g bannana
v 0.0450809184 0.303012581 -0.737538532
v 0.0983428481 0.343300451 -0.678708787
v -0.00815474812 0.262750975 -0.796263224
v -0.00815474812 0.262750975 -0.796263224
v 0.0983428481 0.343300451 -0.678708787
v 0.0450809184 0.303012581 -0.737538532
v -0.834187399 0.303012581 -0.306137911
v -0.841147168 0.262856028 -0.383036792
v -0.826439731 0.340017541 -0.227768287
v -0.564804946 0.214557858 -0.354252239
v -0.55802902 0.135951864 -0.40199888
v -0.551358147 0.21017189 -0.361842326
v -0.627679236 0.158879706 -0.363050437
v -0.564043311 0.220414569 -0.339492276
v -0.697171872 0.0446344426 -0.334108304
v -0.569689916 -0.0100457042 -0.401368561
v -0.623555901 0.193547234 -0.2876223
v -0.549808614 0.222857054 -0.33240119
v -0.746783206 -0.0813505066 -0.279060471
v -0.581534655 -0.168754699 -0.355250243
v -0.681019956 0.128125407 -0.214846754
v -0.549756087 0.20528692 -0.251221395
v -0.536361815 0.218471086 -0.339991278
v -0.721045193 0.0548771214 -0.148085499
v -0.556689593 0.074417001 -0.0535902208
v -0.552040993 0.156936224 -0.163344464
v -0.783105321 -0.218549876 -0.170776972
v -0.592722812 -0.335500257 -0.236829118
v -0.754031871 -0.028850212 -0.0584751907
v -0.559893713 -0.00686784745 0.126575873
v -0.480079608 0.182332814 -0.290301154
v -0.537149713 0.212115373 -0.354751241
v -0.431229909 0.108112788 -0.219364038
v -0.803196729 -0.324023204 -0.0123306095
v -0.599446211 -0.460986204 -0.0523821099
v -0.77572534 -0.0935629314 0.0525922162
v -0.484202943 0.147665286 -0.365624238
v -0.551358147 0.21017189 -0.361842326
v -0.55802902 0.135951864 -0.40199888
v -0.569689916 -0.0100457042 -0.401368561
v -0.432805706 0.0233874499 -0.33888822
v -0.581534655 -0.168754699 -0.355250243
v -0.401893827 -0.10892695 -0.285284868
v -0.592722812 -0.335500257 -0.236829118
v -0.785836702 -0.116989776 0.179916593
v -0.552408678 0.0380423596 0.343484294
v -0.400922085 0.0292441611 -0.153810893
v -0.38398227 -0.25053855 -0.177999373
v -0.599446211 -0.460986204 -0.0523821099
v -0.810419131 -0.366753559 0.177841794
v -0.599551264 -0.512751127 0.171249711
v -0.378519508 -0.0588691398 -0.0653299065
v -0.375210335 -0.35819173 -0.0200257502
v -0.599551264 -0.512751127 0.171249711
v -0.36339186 -0.126497083 0.0452647613
v -0.36811925 -0.402130196 0.169778967
v -0.593064234 -0.483441308 0.401473614
v -0.784576065 -0.0923285573 0.316511907
v -0.352597652 -0.151657304 0.172221452
v -0.359373578 -0.374553753 0.367410141
v -0.581350812 -0.384323693 0.612157638
v -0.345033828 -0.127495088 0.308580396
v -0.351652174 -0.283971704 0.552592521
v -0.56603932 -0.229055188 0.773913173
v -0.807582697 -0.338678114 0.375472968
v -0.593064234 -0.483441308 0.401473614
v -0.343116608 -0.057661029 0.447854565
v -0.362787804 -0.147271337 0.703343743
v -0.549677297 -0.0437414911 0.857535454
v -0.770393894 -0.023492503 0.455549706
v -0.53856793 0.154493739 0.595454193
v -0.361527167 0.0346281333 0.580799283
v -0.794162162 -0.248568804 0.560524032
v -0.581350812 -0.384323693 0.612157638
v -0.411427397 0.00678905762 0.800281506
v -0.732811142 0.0646470612 0.587522682
v -0.75610667 -0.115755402 0.710434828
v -0.56603932 -0.229055188 0.773913173
v -0.662819503 0.137895346 0.706784232
v -0.680153267 0.0282724198 0.805166475
v -0.549677297 -0.0437414911 0.857535454
v -0.541430628 0.0592893523 0.860581994
v -0.618066876 0.0998135918 0.826649838
v -0.534680965 0.153521997 0.816380896
v -0.606353454 0.158879706 0.765981663
v -0.41465778 0.117882728 0.702266948
v -0.534838545 0.175977101 0.708360029
v -0.46487317 0.147665286 0.763407862
v -0.460539729 0.087601167 0.823839667
v -0.541430628 0.0592893523 0.860581994
v -0.131382053 0.214557858 -0.57092429
v -0.164001046 0.135951864 -0.606589823
v -0.128703199 0.21017189 -0.586183255
v -0.17813069 0.158879706 -0.527957566
v -0.119511051 0.220414569 -0.562152355
v -0.199902948 0.0446344426 -0.455943655
v -0.170855761 -0.0100457042 -0.597056253
v -0.117278672 0.193547234 -0.483283728
v -0.104987458 0.222857054 -0.568613122
v -0.188951161 -0.0813505066 -0.38269537
v -0.142806579 -0.168754699 -0.558738129
v -0.0975812131 0.128125407 -0.392701679
v -0.0422970108 0.20528692 -0.517215885
v -0.102334867 0.218471086 -0.583872087
v -0.0714492505 0.0548771214 -0.319348341
v 0.105959199 0.074417001 -0.386240912
v 0.0241228217 0.156936224 -0.459620514
v -0.128388039 -0.218549876 -0.285888923
v -0.0584226641 -0.335500257 -0.474748163
v -0.023203607 -0.028850212 -0.236960435
v 0.243106042 -0.00686784745 -0.269290531
v -0.0281411034 0.182332814 -0.595716826
v -0.114179605 0.212115373 -0.592670285
v 0.0576347657 0.108112788 -0.588389371
v -0.0187651128 -0.324023204 -0.169700177
v 0.0797484466 -0.460986204 -0.352440072
v 0.0488890938 -0.0935629314 -0.149556242
v -0.0889931208 0.147665286 -0.640390663
v -0.128703199 0.21017189 -0.586183255
v -0.164001046 0.135951864 -0.606589823
v -0.170855761 -0.0100457042 -0.597056253
v -0.0356524012 0.0233874499 -0.663108399
v -0.142806579 -0.168754699 -0.558738129
v 0.0253309326 -0.10892695 -0.652970774
v -0.0584226641 -0.335500257 -0.474748163
v 0.14081057 -0.116989776 -0.0609176756
v 0.415340625 0.0380423596 -0.137343817
v 0.127442561 0.0292441611 -0.570215182
v 0.119589841 -0.25053855 -0.598658313
v 0.0797484466 -0.460986204 -0.352440072
v 0.123476806 -0.366753559 -0.043347542
v 0.252403243 -0.512751127 -0.21032947
v 0.210119363 -0.0588691398 -0.531266739
v 0.247150587 -0.35819173 -0.505134776
v 0.252403243 -0.512751127 -0.21032947
v 0.30508738 -0.126497083 -0.47280468
v 0.398295757 -0.402130196 -0.390022825
v 0.434355239 -0.483441308 -0.0691118186
v 0.247071797 -0.0923285573 0.0248844568
v 0.409956653 -0.151657304 -0.40039682
v 0.55650575 -0.374553753 -0.271128961
v 0.604488761 -0.384323693 0.0557700729
v 0.520183635 -0.127495088 -0.31958471
v 0.704341747 -0.283971704 -0.159562551
v 0.739166855 -0.229055188 0.146588492
v 0.278036203 -0.338678114 0.080063606
v 0.434355239 -0.483441308 -0.0691118186
v 0.628939873 -0.057661029 -0.23267952
v 0.813780831 -0.147271337 -0.0551922808
v 0.814069727 -0.0437414911 0.187112731
v 0.363444386 -0.023492503 0.10228234
v 0.618723458 0.154493739 0.0119629236
v 0.719889609 0.0346281333 -0.134034644
v 0.429417743 -0.248568804 0.187244048
v 0.604488761 -0.384323693 0.0557700729
v 0.857693033 0.00678905762 0.0439253341
v 0.489219229 0.0646470612 0.156962487
v 0.56940102 -0.115755402 0.253164878
v 0.739166855 -0.229055188 0.146588492
v 0.62578828 0.137895346 0.178708482
v 0.690763632 0.0282724198 0.254635621
v 0.814069727 -0.0437414911 0.187112731
v 0.821764868 0.0592893523 0.182726764
v 0.746835733 0.0998135918 0.220335779
v 0.79190352 0.153521997 0.149398662
v 0.707414551 0.158879706 0.172720454
v 0.779953728 0.117882728 -0.015771099
v 0.708307503 0.175977101 0.0807989778
v 0.795317746 0.147665286 0.0618631536
v 0.844718974 0.087601167 0.0967933147
v 0.821764868 0.0592893523 0.182726764
v -0.0181085309 0.149950191 -0.769264573
v -0.0302421657 0.115755402 -0.727400906
v -0.00266572282 0.141650995 -0.748516583
v -0.0549033847 0.129202201 -0.760597691
v -0.0457112371 0.242475723 -0.820714337
v -0.063964216 0.113312917 -0.699824463
v -0.0872860077 0.233073469 -0.820110281
v -0.0592893523 0.355749245 -0.858507195
v -0.0915406589 0.12823046 -0.736934477
v -0.0997610652 0.368092987 -0.860581994
v -0.038173676 0.390679407 -0.838730946
v -0.168964805 0.150186561 -0.668308529
v -0.148216815 0.137501397 -0.628650977
v -0.290012258 0.159457498 -0.531608162
v -0.125131393 0.234544213 -0.798390549
v -0.0701886131 0.418492219 -0.833110604
v 0.0540629598 0.460487202 -0.736934477
v -0.309079399 0.171669923 -0.5695586
v -0.466212597 0.159457498 -0.44517571
v -0.199062523 0.250643603 -0.728188805
v -0.137054921 0.375157809 -0.839282475
v 0.0252521427 0.491267765 -0.727768592
v 0.0827161972 0.463166056 -0.701767946
v -0.484544366 0.171433554 -0.483520098
v -0.629596455 0.137002395 -0.392333993
v -0.337233634 0.266769256 -0.626523652
v -0.214715437 0.384822695 -0.762856333
v -0.104934931 0.430704644 -0.809552443
v 0.0660915416 0.493946619 -0.67752694
v 0.118066571 0.366385873 -0.639944187
v -0.194440186 0.438032099 -0.725562477
v -0.0100457042 0.502981187 -0.704814486
v -0.352702705 0.39359463 -0.658985065
v -0.512330915 0.26663794 -0.540747783
v 0.110975485 0.383220635 -0.601179588
v 0.135426598 0.266165201 -0.599708844
v 0.0346281333 0.505896411 -0.649766654
v 0.129464834 0.268345053 -0.557004752
v 0.127862774 0.240269608 -0.604357444
v -0.648322173 0.149713822 -0.433225918
v 0.0823485112 0.391651148 -0.569190914
v 0.117383725 0.227348075 -0.56443726
v -0.00266572282 0.141650995 -0.748516583
v -0.0302421657 0.115755402 -0.727400906
v 0.100995439 0.273230023 -0.52414939
v 0.0873910608 0.227348075 -0.532448586
v -0.063964216 0.113312917 -0.699824463
v -0.0526447427 0.252245663 -0.439923055
v -0.148216815 0.137501397 -0.628650977
v -0.0464728722 0.295685126 -0.427841946
v -0.066039015 0.405308053 -0.46776213
v -0.201268638 0.266900573 -0.353017864
v -0.290012258 0.159457498 -0.531608162
v -0.195411927 0.308632923 -0.341173126
v -0.37941246 0.267136942 -0.265850041
v -0.466212597 0.159457498 -0.44517571
v -0.104646035 0.510545012 -0.546184281
v -0.214085119 0.412766824 -0.37925488
v -0.373713328 0.308396553 -0.254136619
v -0.539355829 0.252245663 -0.20200401
v -0.629596455 0.137002395 -0.392333993
v -0.728346384 0.114783661 -0.371192053
v -0.533551644 0.295685126 -0.189817849
v -0.392360256 0.412766824 -0.292165847
v -0.250801183 0.512751127 -0.454026435
v -0.706968075 0.225877331 -0.145380381
v -0.553117787 0.404940367 -0.229606717
v -0.428945004 0.512751127 -0.366806086
v -0.750355012 0.2261137 -0.141335836
v -0.771181792 0.117226146 -0.361317061
v -0.7111702 0.271785543 -0.128887042
v -0.591383384 0.50980964 -0.307897551
v -0.787386236 0.239297866 -0.157697859
v -0.805796794 0.142622737 -0.352151176
v -0.789723667 0.264930827 -0.148558238
v -0.754084398 0.266900573 -0.126575873
v -0.811469662 0.365046446 -0.186692519
v -0.7786143 0.381644839 -0.168150644
v -0.837470309 0.461957946 -0.252928508
v -0.736382948 0.390049088 -0.171013341
v -0.809552443 0.492712245 -0.250853709
v -0.844745237 0.459515461 -0.297838715
v -0.768686781 0.504688301 -0.258653903
v -0.820057755 0.49026976 -0.315041163
v -0.857693033 0.391152146 -0.434933032
v -0.620246728 0.506395414 -0.368145513
v -0.780163834 0.502009446 -0.328855648
v -0.833425764 0.419490224 -0.456889133
v -0.857456664 0.356852303 -0.464531747
v -0.793400526 0.431676385 -0.469836929
v -0.832795445 0.369301097 -0.498043691
v -0.834555085 0.24381515 -0.430888487
v -0.456810343 0.509310638 -0.424060034
v -0.806479639 0.234780582 -0.463848902
v -0.811390873 0.151158302 -0.377547767
v -0.792586365 0.376628552 -0.514510767
v -0.678078468 0.438531101 -0.488273751
v -0.279060471 0.509310638 -0.511227857
v -0.780085044 0.130646681 -0.401604931
v -0.805796794 0.142622737 -0.352151176
v -0.771181792 0.117226146 -0.361317061
v -0.695280916 0.385059065 -0.527563617
v -0.511464227 0.444860551 -0.536361815
v -0.134664963 0.506868153 -0.605933241
v -0.334423463 0.444387812 -0.623161952
v -0.528587884 0.393831 -0.572867773
v -0.677395623 0.250407233 -0.493946619
v -0.765430134 0.236382642 -0.48057861
v -0.738300167 0.129937573 -0.416233577
v -0.728346384 0.114783661 -0.371192053
v -0.826439731 0.340017541 -0.227768287
v -0.841147168 0.262856028 -0.383036792
v -0.834187399 0.303012581 -0.306137911
v -0.805796794 0.142622737 -0.352151176
v -0.811390873 0.151158302 -0.377547767
v -0.787386236 0.239297866 -0.157697859
v -0.834555085 0.24381515 -0.430888487
v -0.789723667 0.264930827 -0.148558238
v -0.857456664 0.356852303 -0.464531747
v -0.857693033 0.391152146 -0.434933032
v -0.844745237 0.459515461 -0.297838715
v -0.811469662 0.365046446 -0.186692519
v -0.837470309 0.461957946 -0.252928508
v 0.259546855 0.0874698507 0.62410743
v 0.193415918 -0.043636438 0.692707115
v 0.202214117 0.0591317726 0.692103059
v 0.189371373 0.153390681 0.649241388
v 0.29379417 0.00689411073 0.581876077
v 0.229738033 0.147770339 0.571502082
v 0.296236655 -0.147166284 0.473356209
v 0.142832843 -0.228950135 0.624238746
v 0.241635298 -0.283866651 0.332348664
v 0.0596570382 -0.38421864 0.484701945
v 0.155334164 -0.3744487 0.168413276
v -0.0411939531 -0.483336255 0.299388249
v 0.0627561051 -0.402051406 -0.00639510843
v -0.145748067 -0.512646074 0.094088197
v -0.0250420365 -0.358086677 -0.17484778
v -0.241477719 -0.460881151 -0.107955208
v -0.100654017 -0.250433497 -0.313885579
v -0.314463371 -0.335395204 -0.277510937
v -0.162819198 -0.108821896 -0.403128201
v -0.355118927 -0.168649646 -0.389313716
v -0.211064842 0.0167428404 -0.444098916
v -0.367777827 -0.0274582582 -0.440317004
v -0.358848312 0.116201878 -0.44076348
v -0.270971381 0.136450866 -0.440317004
v -0.334607306 0.208070828 -0.392622889
v -0.16347578 0.114258395 -0.338599324
v -0.10564404 0.0293492143 -0.284838392
v -0.0474183502 -0.05879035 -0.214400278
v -0.203395964 0.0742856846 -0.127468825
v 0.0136175102 -0.126418293 -0.121008058
v -0.129044621 -0.00678905762 0.0368342488
v 0.0777524374 -0.151552251 -0.0109123924
v 0.143095476 -0.127390035 0.109084529
v -0.0293492143 0.0381474127 0.229449137
v 0.204499022 -0.0575559759 0.234097737
v 0.244839418 0.0347331865 0.362131222
v 0.0911467097 0.154598792 0.451137475
v 0.248883963 0.117987781 0.494576938
v 0.142911633 0.176082154 0.551594517
v 0.102991449 0.158984759 0.634350109
v 0.118407993 0.0999186449 0.694177858
v 0.202214117 0.0591317726 0.692103059
v 0.02659157 0.13776403 0.605066553
v 0.0530912185 0.0283774729 0.701373997
v 0.193415918 -0.043636438 0.692707115
v 0.142832843 -0.228950135 0.624238746
v -0.0561114955 -0.115650349 0.648400963
v 0.0596570382 -0.38421864 0.484701945
v -0.0877587467 0.0645157448 0.527300984
v -0.154756371 -0.248463751 0.529244466
v -0.0411939531 -0.483336255 0.299388249
v -0.178262006 -0.0233874499 0.424165087
v -0.246152582 -0.338573061 0.367751564
v -0.145748067 -0.512646074 0.094088197
v -0.250643603 -0.0922235041 0.304640905
v -0.333477985 -0.366648506 0.190395641
v -0.241477719 -0.460881151 -0.107955208
v -0.310313773 -0.116884723 0.181833812
v -0.408433383 -0.323918151 0.0154559397
v -0.314463371 -0.335395204 -0.277510937
v -0.355749245 -0.0934578783 0.0624672091
v -0.458176033 -0.218444823 -0.136267023
v -0.355118927 -0.168649646 -0.389313716
v -0.383798427 -0.0287451588 -0.0472870338
v -0.471780412 -0.0812454535 -0.249671862
v -0.367777827 -0.0274582582 -0.440317004
v -0.39238652 0.0549821745 -0.142386367
v -0.460277096 0.0358362442 -0.320320082
v -0.358848312 0.116201878 -0.44076348
v -0.390285457 0.133246746 -0.22314595
v -0.410193023 0.146036963 -0.371349633
v -0.370587998 0.192733073 -0.309867297
v -0.243368675 0.154572528 -0.222358052
v -0.288068776 0.208832463 -0.315540165
v -0.240663557 0.182254024 -0.376864922
v -0.00815474812 0.262750975 -0.796263224
v -0.0181085309 0.149950191 -0.769264573
v -0.00266572282 0.141650995 -0.748516583
v -0.0457112371 0.242475723 -0.820714337
v -0.0592893523 0.355749245 -0.858507195
v 0.127862774 0.240269608 -0.604357444
v -0.038173676 0.390679407 -0.838730946
v 0.0983428481 0.343300451 -0.678708787
v 0.135426598 0.266165201 -0.599708844
v 0.0540629598 0.460487202 -0.736934477
v 0.118066571 0.366385873 -0.639944187
v 0.0827161972 0.463166056 -0.701767946
vt 0.555944689 0.0999338353
vt 0.555944689 0.094914848
vt 0.555944689 0.104952823
vt 0.555944689 0.104952823
vt 0.555944689 0.094914848
vt 0.555944689 0.0999338353
vt 0.576020638 0.104952823
vt 0.576737636 0.10997181
vt 0.576737636 0.0999338353
vt 0.596096588 0.138651738
vt 0.592511597 0.143670725
vt 0.594662591 0.138651738
vt 0.596813586 0.143670725
vt 0.596813586 0.13793474
vt 0.601115575 0.150123709
vt 0.592511597 0.1537087
vt 0.600398577 0.140802733
vt 0.596813586 0.136500743
vt 0.606134563 0.155859695
vt 0.597530584 0.163746675
vt 0.606134563 0.143670725
vt 0.601832573 0.136500743
vt 0.596813586 0.135783745
vt 0.61115355 0.146538718
vt 0.616172537 0.136500743
vt 0.608285557 0.136500743
vt 0.613304545 0.162312678
vt 0.606134563 0.17378465
vt 0.617606534 0.150123709
vt 0.628361507 0.136500743
vt 0.600398577 0.132915752
vt 0.596096588 0.135066747
vt 0.606134563 0.129330761
vt 0.622625521 0.166614668
vt 0.61904053 0.180237633
vt 0.624776516 0.152274704
vt 0.596813586 0.13004776
vt 0.594662591 0.134349749
vt 0.592511597 0.129330761
vt 0.592511597 0.119292787
vt 0.601115575 0.122877778
vt 0.597530584 0.109254812
vt 0.606134563 0.117141792
vt 0.606134563 0.0992168371
vt 0.631946498 0.152991702
vt 0.641984472 0.136500743
vt 0.61115355 0.126462769
vt 0.613304545 0.110688808
vt 0.61904053 0.0927638534
vt 0.632663496 0.168765662
vt 0.633380494 0.183105626
vt 0.617606534 0.123594776
vt 0.622625521 0.106386819
vt 0.633380494 0.0906128588
vt 0.624776516 0.120726783
vt 0.632663496 0.104952823
vt 0.647720458 0.0920468552
vt 0.639833478 0.152274704
vt 0.631946498 0.120009785
vt 0.643418469 0.106386819
vt 0.661343424 0.0984998389
vt 0.639833478 0.120726783
vt 0.653456444 0.110688808
vt 0.672098397 0.108537814
vt 0.643418469 0.167331666
vt 0.647720458 0.180954632
vt 0.648437456 0.122877778
vt 0.66277742 0.117141792
vt 0.677117384 0.122160779
vt 0.648437456 0.150123709
vt 0.657758433 0.136500743
vt 0.656324436 0.126462769
vt 0.653456444 0.163029677
vt 0.661343424 0.175218646
vt 0.668513406 0.125028772
vt 0.656324436 0.146538718
vt 0.66277742 0.156576693
vt 0.672098397 0.164463673
vt 0.663494418 0.142953727
vt 0.668513406 0.147972715
vt 0.677117384 0.151557706
vt 0.675683388 0.143670725
vt 0.6706644 0.142953727
vt 0.671381399 0.136500743
vt 0.667079409 0.140085734
vt 0.663494418 0.130764758
vt 0.664211417 0.136500743
vt 0.667079409 0.132915752
vt 0.6706644 0.13004776
vt 0.675683388 0.129330761
vt 0.717986281 0.0490269633
vt 0.720854274 0.0432909778
vt 0.71870328 0.0490269633
vt 0.716552285 0.0440079759
vt 0.717269283 0.0497439615
vt 0.712967294 0.0375549922
vt 0.720854274 0.033253003
vt 0.712967294 0.0468759687
vt 0.716552285 0.0511779579
vt 0.707948307 0.0311020084
vt 0.716552285 0.0232150282
vt 0.707948307 0.0432909778
vt 0.711533298 0.0511779579
vt 0.717269283 0.0518949561
vt 0.702212321 0.040422985
vt 0.697910332 0.0511779579
vt 0.705797312 0.0511779579
vt 0.700778325 0.0253660228
vt 0.707231308 0.0138940517
vt 0.695759337 0.0375549922
vt 0.685721362 0.0511779579
vt 0.712967294 0.0547629489
vt 0.717986281 0.0526119543
vt 0.707948307 0.0583479399
vt 0.691457348 0.0210640336
vt 0.695042339 0.00672406969
vt 0.689306353 0.0354039976
vt 0.716552285 0.0576309417
vt 0.71870328 0.0526119543
vt 0.720854274 0.0583479399
vt 0.720854274 0.0683859147
vt 0.712967294 0.0640839255
vt 0.716552285 0.0784238894
vt 0.707948307 0.0705369092
vt 0.707231308 0.087744866
vt 0.681419373 0.0339700012
vt 0.672098397 0.0511779579
vt 0.702212321 0.0612159327
vt 0.700778325 0.0762728948
vt 0.695042339 0.094914848
vt 0.680702375 0.018913039
vt 0.680702375 0.0045730751
vt 0.695759337 0.0640839255
vt 0.691457348 0.080574884
vt 0.680702375 0.0970658425
vt 0.689306353 0.0662349201
vt 0.680702375 0.0827258786
vt 0.665645413 0.0956318461
vt 0.673532393 0.0346869994
vt 0.681419373 0.0676689165
vt 0.669947402 0.0812918822
vt 0.652022447 0.0891788624
vt 0.673532393 0.0669519183
vt 0.659909427 0.076989893
vt 0.641267474 0.0784238894
vt 0.669947402 0.0203470354
vt 0.665645413 0.0060070715
vt 0.665645413 0.0640839255
vt 0.651305449 0.0705369092
vt 0.636965485 0.0655179219
vt 0.665645413 0.0375549922
vt 0.655607438 0.0511779579
vt 0.657758433 0.0612159327
vt 0.659909427 0.0246490246
vt 0.652022447 0.0124600553
vt 0.645569463 0.0626499291
vt 0.657758433 0.040422985
vt 0.651305449 0.0311020084
vt 0.641267474 0.0232150282
vt 0.650588451 0.0447249741
vt 0.644852465 0.0389889886
vt 0.636965485 0.0361209958
vt 0.637682483 0.0440079759
vt 0.643418469 0.0440079759
vt 0.642701471 0.0511779579
vt 0.646286462 0.0468759687
vt 0.650588451 0.0569139435
vt 0.649154454 0.0511779579
vt 0.646286462 0.0547629489
vt 0.643418469 0.0576309417
vt 0.637682483 0.0576309417
vt 0.738062231 0.0999338353
vt 0.735911236 0.0977828407
vt 0.738062231 0.0977828407
vt 0.735911236 0.0999338353
vt 0.738062231 0.107103817
vt 0.733043243 0.0977828407
vt 0.735911236 0.107103817
vt 0.738062231 0.114990797
vt 0.733043243 0.0999338353
vt 0.735911236 0.114990797
vt 0.738062231 0.118575788
vt 0.725156263 0.0999338353
vt 0.725156263 0.0977828407
vt 0.715118289 0.0977828407
vt 0.733043243 0.107103817
vt 0.735911236 0.118575788
vt 0.738062231 0.127179767
vt 0.715118289 0.0999338353
vt 0.703646317 0.0977828407
vt 0.725156263 0.107103817
vt 0.733043243 0.114990797
vt 0.735911236 0.127179767
vt 0.738062231 0.131481756
vt 0.703646317 0.0999338353
vt 0.694325341 0.0977828407
vt 0.715118289 0.107103817
vt 0.725156263 0.114990797
vt 0.733043243 0.118575788
vt 0.735911236 0.131481756
vt 0.738062231 0.139368736
vt 0.725156263 0.118575788
vt 0.733043243 0.127179767
vt 0.715118289 0.114990797
vt 0.703646317 0.107103817
vt 0.735911236 0.139368736
vt 0.738062231 0.14582172
vt 0.733043243 0.131481756
vt 0.735911236 0.14582172
vt 0.738062231 0.148689713
vt 0.694325341 0.0999338353
vt 0.733043243 0.139368736
vt 0.735911236 0.148689713
vt 0.738062231 0.162312678
vt 0.735911236 0.162312678
vt 0.733043243 0.14582172
vt 0.733043243 0.148689713
vt 0.733043243 0.162312678
vt 0.725156263 0.148689713
vt 0.725156263 0.162312678
vt 0.725156263 0.14582172
vt 0.725156263 0.139368736
vt 0.715118289 0.148689713
vt 0.715118289 0.162312678
vt 0.715118289 0.14582172
vt 0.703646317 0.148689713
vt 0.703646317 0.162312678
vt 0.725156263 0.131481756
vt 0.715118289 0.139368736
vt 0.703646317 0.14582172
vt 0.694325341 0.148689713
vt 0.694325341 0.162312678
vt 0.685721362 0.162312678
vt 0.694325341 0.14582172
vt 0.703646317 0.139368736
vt 0.715118289 0.131481756
vt 0.685721362 0.148689713
vt 0.694325341 0.139368736
vt 0.703646317 0.131481756
vt 0.683570368 0.148689713
vt 0.683570368 0.162312678
vt 0.685721362 0.14582172
vt 0.694325341 0.131481756
vt 0.680702375 0.148689713
vt 0.680702375 0.162312678
vt 0.680702375 0.14582172
vt 0.683570368 0.14582172
vt 0.680702375 0.139368736
vt 0.683570368 0.139368736
vt 0.680702375 0.131481756
vt 0.685721362 0.139368736
vt 0.683570368 0.131481756
vt 0.680702375 0.127179767
vt 0.685721362 0.131481756
vt 0.683570368 0.127179767
vt 0.680702375 0.118575788
vt 0.694325341 0.127179767
vt 0.685721362 0.127179767
vt 0.683570368 0.118575788
vt 0.680702375 0.114990797
vt 0.685721362 0.118575788
vt 0.683570368 0.114990797
vt 0.680702375 0.107103817
vt 0.703646317 0.127179767
vt 0.683570368 0.107103817
vt 0.680702375 0.0999338353
vt 0.685721362 0.114990797
vt 0.694325341 0.118575788
vt 0.715118289 0.127179767
vt 0.683570368 0.0999338353
vt 0.680702375 0.0977828407
vt 0.683570368 0.0977828407
vt 0.694325341 0.114990797
vt 0.703646317 0.118575788
vt 0.725156263 0.127179767
vt 0.715118289 0.118575788
vt 0.703646317 0.114990797
vt 0.694325341 0.107103817
vt 0.685721362 0.107103817
vt 0.685721362 0.0999338353
vt 0.685721362 0.0977828407
vt 0.576737636 0.0999338353
vt 0.576737636 0.10997181
vt 0.576020638 0.104952823
vt 0.583907618 0.111405806
vt 0.582473622 0.112839803
vt 0.583907618 0.0992168371
vt 0.576737636 0.112839803
vt 0.582473622 0.0977828407
vt 0.569567655 0.112122805
vt 0.568133658 0.109254812
vt 0.568133658 0.100650834
vt 0.576737636 0.0970658425
vt 0.569567655 0.0984998389
vt 0.554510692 0.0576309417
vt 0.548057709 0.0655179219
vt 0.549491705 0.0583479399
vt 0.553793694 0.0511779579
vt 0.556661687 0.0626499291
vt 0.558095683 0.0547629489
vt 0.563114671 0.0705369092
vt 0.553076696 0.0791408876
vt 0.571718649 0.076989893
vt 0.563831669 0.0891788624
vt 0.581756624 0.0812918822
vt 0.577454635 0.0956318461
vt 0.592511597 0.0827258786
vt 0.592511597 0.0970658425
vt 0.60326657 0.080574884
vt 0.606851561 0.0941978498
vt 0.611870548 0.0762728948
vt 0.619757528 0.087744866
vt 0.619757528 0.069819911
vt 0.628361507 0.0777068912
vt 0.624059518 0.0640839255
vt 0.632663496 0.0683859147
vt 0.632663496 0.0583479399
vt 0.627644508 0.0576309417
vt 0.629078505 0.0504609597
vt 0.61904053 0.0576309417
vt 0.614021543 0.0612159327
vt 0.607568559 0.0640839255
vt 0.609002555 0.0511779579
vt 0.600398577 0.0662349201
vt 0.596813586 0.0511779579
vt 0.593228595 0.0676689165
vt 0.585341615 0.0669519183
vt 0.58319062 0.0511779579
vt 0.576737636 0.0640839255
vt 0.568850656 0.0612159327
vt 0.56741666 0.0511779579
vt 0.561680674 0.0569139435
vt 0.560963676 0.0511779579
vt 0.558095683 0.0468759687
vt 0.554510692 0.0440079759
vt 0.549491705 0.0440079759
vt 0.561680674 0.0447249741
vt 0.556661687 0.0389889886
vt 0.548057709 0.0361209958
vt 0.553076696 0.02249803
vt 0.563114671 0.0311020084
vt 0.563831669 0.0124600553
vt 0.568850656 0.040422985
vt 0.571718649 0.0246490246
vt 0.577454635 0.0060070715
vt 0.576737636 0.0375549922
vt 0.581756624 0.0203470354
vt 0.592511597 0.0045730751
vt 0.585341615 0.0346869994
vt 0.592511597 0.018913039
vt 0.606851561 0.00744106789
vt 0.593228595 0.0339700012
vt 0.60326657 0.0210640336
vt 0.619757528 0.0138940517
vt 0.600398577 0.0354039976
vt 0.612587546 0.0253660228
vt 0.628361507 0.0239320264
vt 0.607568559 0.0375549922
vt 0.619757528 0.0318190066
vt 0.632663496 0.033253003
vt 0.614021543 0.0411399832
vt 0.624059518 0.0375549922
vt 0.632663496 0.0432909778
vt 0.61904053 0.0440079759
vt 0.627644508 0.0440079759
vt 0.624059518 0.0468759687
vt 0.616172537 0.0511779579
vt 0.623342519 0.0511779579
vt 0.624059518 0.0547629489
vt 0.555944689 0.104952823
vt 0.549491705 0.107103817
vt 0.548057709 0.106386819
vt 0.555944689 0.107820816
vt 0.562397673 0.106386819
vt 0.548057709 0.0934808516
vt 0.563831669 0.104235825
vt 0.555944689 0.094914848
vt 0.549491705 0.0920468552
vt 0.563831669 0.0956318461
vt 0.555944689 0.0920468552
vt 0.562397673 0.0927638534
vn 0.777278569 -0.114325511 -0.618682231
vn 0.831874704 -0.18452054 -0.523389575
vn 0.753880226 -0.246916122 -0.608848941
vn 0.753880226 -0.246916122 -0.608848941
vn 0.831874704 -0.18452054 -0.523389575
vn 0.777278569 -0.114325511 -0.618682231
vn -0.977597175 -0.145523302 0.15207476
vn -0.946399384 -0.278113913 0.164258509
vn -0.938599936 -0.215718331 0.26925037
vn -0.478432519 0.642220921 -0.598877795
vn -0.0104656535 0.0728612355 -0.997287176
vn 0.0207321375 0.478432519 -0.87787955
vn -0.68121816 0.322443564 -0.657245743
vn -0.454496112 0.890748721 -0
vn -0.767012085 0.119657922 -0.630376429
vn -0.0338639968 -0.176721093 -0.983678243
vn -0.665619265 0.743613742 0.0631632571
vn 0.0831277195 0.977597175 0.19337411
vn -0.813808772 -0.114325511 -0.569776237
vn -0.0494628923 -0.457501212 -0.887832227
vn -0.735814294 0.642220921 0.214778054
vn 0.0831277195 0.891803249 0.444720976
vn 0.582292376 0.806009324 -0.106228803
vn -0.852806011 0.501830862 0.144525756
vn 0.0753282718 0.860605458 0.503670424
vn 0.0753282718 0.813808772 0.576229932
vn -0.837207115 -0.317111152 -0.445561178
vn -0.0728612355 -0.714882987 -0.695437671
vn -0.845006563 0.517429757 0.135019831
vn 0.0831277195 0.99319607 0.0815557993
vn 0.777278569 0.626622026 0.0564168613
vn 0.551094585 0.556426996 -0.621839012
vn 0.839674151 0.517429757 0.164965953
vn -0.845006563 -0.465300659 -0.263551143
vn -0.0806606833 -0.909869181 -0.406979026
vn -0.884003802 0.447234728 0.136082244
vn 0.699284092 0.213251295 -0.682294397
vn 0.0207321375 0.478432519 -0.87787955
vn -0.0104656535 0.0728612355 -0.997287176
vn -0.0338639968 -0.176721093 -0.983678243
vn 0.753880226 -0.005133242 -0.656991822
vn -0.0494628923 -0.457501212 -0.887832227
vn 0.769479122 -0.239116675 -0.59222048
vn -0.0728612355 -0.714882987 -0.695437671
vn -0.876204354 0.470633071 -0.103780744
vn 0.067528824 0.938599936 -0.338334181
vn 0.925468077 0.361440802 0.113443314
vn 0.761679674 -0.441902316 -0.473884392
vn -0.0806606833 -0.909869181 -0.406979026
vn -0.845006563 -0.527696241 -0.0866059207
vn -0.0806606833 -0.995663106 -0.0463555029
vn 0.917668629 0.377039698 0.125400773
vn 0.746080778 -0.597891271 -0.293069105
vn -0.0806606833 -0.995663106 -0.0463555029
vn 0.94886642 0.306844668 0.0741543445
vn 0.752259303 -0.658867165 -0
vn -0.0728612355 -0.956665868 0.281924915
vn -0.876204354 0.470633071 -0.103780744
vn 0.941066972 0.330243011 -0.073024019
vn 0.769479122 -0.621289614 0.14799019
vn -0.05726234 -0.824075256 0.563578741
vn 0.941066972 0.322443564 -0.102093595
vn 0.792877465 -0.504297898 0.342094951
vn -0.0338639968 -0.605690719 0.794979234
vn -0.852806011 -0.488699003 0.184106472
vn -0.0728612355 -0.956665868 0.281924915
vn 0.917668629 0.361440802 -0.165060092
vn 0.792877465 -0.317111152 0.520370871
vn -0.0104656535 -0.3249106 0.945686826
vn -0.852806011 0.501830862 -0.144525756
vn 0.067528824 0.915201593 -0.397298254
vn 0.863072495 0.486231966 -0.136690687
vn -0.845006563 -0.379506734 0.376747326
vn -0.05726234 -0.824075256 0.563578741
vn 0.753880226 -0.0831277195 0.651731837
vn -0.774811533 0.618822578 -0.129327897
vn -0.813808772 -0.192319988 0.548387003
vn -0.0338639968 -0.605690719 0.794979234
vn -0.759212638 0.642220921 0.105586263
vn -0.735814294 0.0416634445 0.675900497
vn -0.0104656535 -0.3249106 0.945686826
vn 0.0207321375 0.0650617878 0.997665847
vn -0.533028653 0.338042459 0.775633774
vn 0.0753282718 0.767012085 0.637195506
vn -0.478432519 0.852806011 0.209342383
vn 0.855273047 0.50963031 0.0937281322
vn 0.0753282718 0.99319607 -0.0888100086
vn 0.613490167 0.767012085 0.187942215
vn 0.613490167 0.244449086 0.750915747
vn 0.0207321375 0.0650617878 0.997665847
vn -0.766722606 0.64197854 -0
vn -0.774811533 0.0728612355 -0.627979561
vn -0.665619265 0.478432519 -0.572759391
vn -0.938599936 0.322443564 0.122720449
vn -0.330243011 0.891803249 0.309235376
vn -0.977597175 0.119657922 0.173163927
vn -0.782610981 -0.176721093 -0.596900082
vn -0.36924025 0.743613742 0.557404916
vn 0.215478139 0.976508664 -0
vn -0.954198831 -0.114325511 0.27646748
vn -0.720215399 -0.457501212 -0.521519339
vn -0.322443564 0.642220921 0.695400918
vn 0.39510563 0.891803249 0.220405322
vn 0.317111152 0.806009324 -0.499789442
vn -0.423836384 0.501830862 0.754008293
vn 0.434102868 0.860605458 0.266294845
vn 0.488699003 0.813808772 0.314465527
vn -0.876204354 -0.317111152 0.362913829
vn -0.579825339 -0.714882987 -0.390825908
vn -0.423836384 0.517429757 0.743390318
vn 0.114325511 0.99319607 -0.0221640203
vn 0.527696241 0.626622026 -0.573481921
vn -0.12745737 0.556426996 -0.821062493
vn 0.660286853 0.517429757 -0.544323174
vn -0.735814294 -0.465300659 0.492008761
vn -0.361440802 -0.909869181 -0.2037121
vn -0.486231966 0.447234728 0.75070605
vn -0.0728612355 0.213251295 -0.974276719
vn -0.665619265 0.478432519 -0.572759391
vn -0.774811533 0.0728612355 -0.627979561
vn -0.782610981 -0.176721093 -0.596900082
vn -0.026064549 -0.005133242 -0.999647082
vn -0.720215399 -0.457501212 -0.521519339
vn 0.0285315853 -0.239116675 -0.970571566
vn -0.579825339 -0.714882987 -0.390825908
vn -0.603223683 0.470633071 0.643914359
vn -0.221050743 0.938599936 -0.264890033
vn 0.675885749 0.361440802 -0.642291991
vn 0.114325511 -0.441902316 -0.889748291
vn -0.361440802 -0.909869181 -0.2037121
vn -0.564226444 -0.527696241 0.634968658
vn -0.088460131 -0.995663106 0.0288059662
vn 0.675885749 0.377039698 -0.633261021
vn 0.25471557 -0.597891271 -0.760030267
vn -0.088460131 -0.995663106 0.0288059662
vn 0.652487405 0.306844668 -0.692897204
vn 0.434102868 -0.660286853 -0.612842534
vn 0.176721093 -0.956665868 0.231430493
vn -0.626622026 0.470633071 0.62116773
vn 0.527696241 0.330243011 -0.782608606
vn 0.605690719 -0.621289614 -0.49712973
vn 0.402905077 -0.824075256 0.398205313
vn 0.504297898 0.322443564 -0.801070395
vn 0.769479122 -0.504297898 -0.391899874
vn 0.597891271 -0.605690719 0.525037885
vn -0.400438041 -0.488699003 0.775127512
vn 0.176721093 -0.956665868 0.231430493
vn 0.449701764 0.361440802 -0.816779572
vn 0.902069733 -0.317111152 -0.292763921
vn 0.722682435 -0.3249106 0.610051801
vn -0.650020369 0.501830862 0.570648145
vn -0.267847429 0.915201593 -0.3011043
vn 0.441902316 0.486231966 -0.753857293
vn -0.252248534 -0.379506734 0.890137807
vn 0.402905077 -0.824075256 0.398205313
vn 0.980064211 -0.0831277195 -0.180454772
vn -0.579825339 0.618822578 0.529963388
vn -0.0962595788 -0.192319988 0.976599773
vn 0.597891271 -0.605690719 0.525037885
vn -0.377039698 0.642220921 0.66737797
vn 0.0519299285 0.0416634445 0.997781259
vn 0.722682435 -0.3249106 0.610051801
vn 0.785078017 0.0650617878 0.615970349
vn 0.25471557 0.338042459 0.906006222
vn 0.543295137 0.767012085 0.341354442
vn -0.143056265 0.852806011 0.502251743
vn 0.621289614 0.50963031 -0.595211024
vn -0.0338639968 0.99319607 -0.111421703
vn 0.535495689 0.767012085 -0.35346404
vn 0.969817064 0.24383368 -0
vn 0.785078017 0.0650617878 0.615970349
vn 0.332710048 -0.613490167 -0.716193996
vn 0.418503973 -0.902069733 0.105473318
vn 0.699284092 -0.660286853 -0.273903323
vn -0.0806606833 -0.80847636 -0.582974981
vn 0.387306182 -0.340509495 -0.856765549
vn 0.122124958 -0.925468077 0.358600521
vn -0.1976524 -0.504297898 -0.840605234
vn 0.215718331 0.111858474 -0.970027465
vn -0.431635832 -0.831874704 -0.348819417
vn -0.228850191 0.236649638 -0.944258725
vn 0.543295137 0.322443564 -0.775151948
vn -0.431635832 -0.831874704 -0.348819417
vn 0.098726615 -0.917668629 0.384886143
vn 0.137723854 -0.925468077 0.35290364
vn -0.634421474 -0.332710048 -0.697720157
vn 0.0753282718 0.696817056 -0.713282302
vn 0.597891271 0.361440802 -0.71546249
vn -0.306844668 -0.855273047 -0.417557619
vn 0.192319988 -0.925468077 0.32637687
vn -0.626622026 -0.332710048 -0.704733184
vn -0.587624787 0.314644116 -0.745450327
vn 0.207918884 0.790410429 -0.576212714
vn 0.769479122 0.525229205 -0.363367807
vn -0.143056265 -0.855273047 -0.498039075
vn 0.246916122 -0.917668629 0.311314497
vn -0.501830862 -0.340509495 -0.795122047
vn -0.595424235 0.322443564 -0.735866923
vn -0.291245773 0.82160822 -0.490036563
vn 0.551094585 0.829407667 -0.0915296676
vn 0.956665868 0.166454609 -0.238921077
vn -0.322443564 0.829407667 -0.456194114
vn -0.135256818 0.938599936 -0.317388963
vn -0.486231966 0.322443564 -0.812162929
vn -0.322443564 -0.340509495 -0.883223319
vn 0.839674151 0.455034175 0.296464532
vn 0.993472261 -0.11407395 -0
vn 0.246916122 0.946399384 0.208232166
vn 0.87867139 -0.0909271673 0.468688424
vn 0.761679674 -0.613490167 -0.208503932
vn -0.00266620575 -0.839674151 -0.543083981
vn 0.535495689 0.572025892 0.621313726
vn 0.543295137 -0.80847636 0.226266146
vn 0.699284092 -0.660286853 -0.273903323
vn 0.418503973 -0.902069733 0.105473318
vn 0.590091823 -0.0441304808 0.806129109
vn 0.262515018 -0.80847636 0.526736974
vn 0.122124958 -0.925468077 0.358600521
vn 0.231317227 -0.80847636 0.541163853
vn 0.098726615 -0.917668629 0.384886143
vn 0.519896794 -0.036331033 0.853456138
vn 0.465300659 0.572025892 0.675486251
vn 0.246916122 -0.816275808 0.522231973
vn 0.137723854 -0.925468077 0.35290364
vn 0.465300659 -0.036331033 0.88440678
vn 0.270314466 -0.816275808 0.510513364
vn 0.192319988 -0.925468077 0.32637687
vn 0.192319988 0.954198831 0.229167215
vn 0.39510563 0.579825339 0.712526573
vn 0.39510563 0.205451847 0.89536645
vn 0.293712809 -0.800676913 0.522158278
vn 0.246916122 -0.917668629 0.311314497
vn 0.207918884 -0.917668629 0.338606003
vn 0.317111152 0.205451847 0.925867191
vn 0.317111152 0.579825339 0.750495232
vn 0.153322749 0.954198831 0.256898277
vn 0.246916122 -0.80847636 0.534226921
vn 0.239116675 0.572025892 0.784607925
vn 0.106526063 0.954198831 0.279565356
vn -0.174254056 -0.824075256 0.539013447
vn -0.182053504 -0.917668629 0.353186649
vn 0.278113913 -0.036331033 0.959860775
vn 0.0753282718 0.946399384 0.314092117
vn -0.634421474 -0.63688851 0.438043856
vn -0.634421474 -0.691484644 0.345482823
vn -0.626622026 -0.137723854 0.767057349
vn -0.182053504 -0.098726615 0.978319772
vn -0.798209876 0.0728612355 0.597956715
vn -0.275646877 0.306844668 0.910969346
vn -0.798209876 0.494031414 0.34466499
vn 0.161122197 0.564226444 0.809745736
vn -0.423836384 0.829407667 0.363930818
vn -0.946399384 0.322443564 -0.0189302635
vn 0.0129326898 0.946399384 0.322739759
vn -0.587624787 0.782610981 -0.205468154
vn -0.954198831 0.283446325 -0.0957223644
vn -0.111858474 0.946399384 -0.303011367
vn -0.158655161 0.946399384 -0.281348088
vn -0.61102313 0.68121816 -0.403227668
vn -0.891803249 0.0806606833 -0.445175043
vn -0.205451847 0.829407667 -0.519492502
vn -0.595424235 0.221050743 -0.7724031
vn -0.899602697 -0.301512257 -0.315919842
vn -0.135256818 0.946399384 -0.293315189
vn -0.556426996 -0.363907839 -0.746967257
vn -0.75141319 -0.621289614 -0.222210335
vn -0.228850191 0.322443564 -0.918508431
vn -0.166454609 0.829407667 -0.533268961
vn -0.158655161 0.946399384 -0.281348088
vn -0.400438041 -0.80847636 -0.431294969
vn -0.634421474 -0.691484644 0.345482823
vn -0.182053504 -0.917668629 0.353186649
vn -0.221050743 0.322443564 -0.9204166
vn -0.221050743 0.82160822 -0.525448858
vn -0.174254056 0.946399384 -0.271962737
vn -0.275646877 0.82160822 -0.498977687
vn -0.345841907 0.330243011 -0.878255617
vn -0.174254056 -0.3249106 -0.929552917
vn -0.174254056 -0.332710048 -0.926789916
vn -0.0104656535 -0.831874704 -0.554864801
vn 0.207918884 -0.917668629 0.338606003
vn -0.938599936 -0.215718331 0.26925037
vn -0.946399384 -0.278113913 0.164258509
vn -0.977597175 -0.145523302 0.15207476
vn -0.634421474 -0.691484644 0.345482823
vn -0.75141319 -0.621289614 -0.222210335
vn -0.634421474 -0.63688851 0.438043856
vn -0.899602697 -0.301512257 -0.315919842
vn -0.626622026 -0.137723854 0.767057349
vn -0.891803249 0.0806606833 -0.445175043
vn -0.954198831 0.283446325 -0.0957223644
vn -0.946399384 0.322443564 -0.0189302635
vn -0.798209876 0.0728612355 0.597956715
vn -0.798209876 0.494031414 0.34466499
vn 0.870871942 0.244449086 0.426411426
vn 0.39510563 -0.3249106 0.859258194
vn 0.449701764 0.0650617878 0.890805976
vn 0.340509495 0.767012085 0.543825105
vn 0.964465315 -0.0831277195 0.250791622
vn 0.63688851 0.767012085 -0.0778812355
vn 0.941066972 -0.317111152 0.117615777
vn 0.309311704 -0.605690719 0.73312006
vn 0.863072495 -0.504297898 -0.0280980235
vn 0.192319988 -0.824075256 0.532834866
vn 0.761679674 -0.621289614 -0.183965457
vn 0.0597293763 -0.956665868 0.284996174
vn 0.652487405 -0.660286853 -0.371862148
vn -0.0962301884 -0.995359106 -0
vn 0.551094585 -0.597891271 -0.582083144
vn -0.244449086 -0.909869181 -0.335235317
vn 0.480899555 -0.441902316 -0.757270072
vn -0.361440802 -0.714882987 -0.598584047
vn 0.449701764 -0.246916122 -0.858370987
vn -0.423836384 -0.480899555 -0.767527418
vn 0.418503973 -0.0129326898 -0.908122883
vn -0.447234728 -0.207918884 -0.86991427
vn -0.431635832 0.104059027 -0.896025796
vn 0.301512257 0.260047982 -0.917314235
vn -0.205451847 0.845006563 -0.493713932
vn 0.824075256 0.525229205 -0.212212758
vn 0.894270286 0.353641355 -0.274259819
vn 0.87867139 0.377039698 -0.292878224
vn 0.285913361 0.860605458 0.421440144
vn 0.886470838 0.306844668 -0.346432971
vn 0.106526063 0.99319607 0.0470506546
vn 0.80847636 0.322443564 -0.492337408
vn 0.800676913 0.322443564 -0.5049224
vn -0.0806606833 0.938599936 -0.335445993
vn 0.753880226 0.361440802 -0.54865759
vn 0.714882987 0.486231966 -0.502514467
vn -0.111858474 0.915201593 -0.387161112
vn 0.816275808 0.50963031 -0.271975647
vn 0.0207321375 0.99319607 -0.114593825
vn -0.345841907 0.852806011 0.391299481
vn -0.150855713 0.338042459 0.928961705
vn 0.449701764 0.0650617878 0.890805976
vn -0.626622026 0.642220921 0.441471545
vn -0.377039698 0.0416634445 0.925259544
vn 0.39510563 -0.3249106 0.859258194
vn 0.309311704 -0.605690719 0.73312006
vn -0.501830862 -0.192319988 0.843314181
vn 0.192319988 -0.824075256 0.532834866
vn -0.75141319 0.618822578 0.228990906
vn -0.61102313 -0.379506734 0.694712439
vn 0.0597293763 -0.956665868 0.284996174
vn -0.829407667 0.501830862 0.245456121
vn -0.689017608 -0.488699003 0.535189706
vn -0.0962301884 -0.995359106 -0
vn -0.829407667 0.470633071 0.300977464
vn -0.782610981 -0.527696241 0.330237383
vn -0.244449086 -0.909869181 -0.335235317
vn -0.82160822 0.470633071 0.321658897
vn -0.876204354 -0.465300659 0.125543724
vn -0.361440802 -0.714882987 -0.598584047
vn -0.759212638 0.447234728 0.472839581
vn -0.946399384 -0.317111152 -0.0613899324
vn -0.423836384 -0.480899555 -0.767527418
vn -0.696817056 0.517429757 0.496701557
vn -0.985396622 -0.129924406 -0.110059735
vn -0.447234728 -0.207918884 -0.86991427
vn -0.696817056 0.494031414 0.519979762
vn -0.969797727 0.088460131 -0.227304144
vn -0.431635832 0.104059027 -0.896025796
vn -0.587624787 0.634421474 0.502201656
vn -0.884003802 0.338042459 -0.322900255
vn -0.548627548 0.767012085 0.332716507
vn 0.317111152 0.813808772 0.486986447
vn 0.239116675 0.915201593 0.324390599
vn 0.660286853 0.68121816 -0.316169401
vn 0.753880226 -0.246916122 -0.608848941
vn 0.332710048 -0.613490167 -0.716193996
vn 0.699284092 -0.660286853 -0.273903323
vn 0.387306182 -0.340509495 -0.856765549
vn 0.215718331 0.111858474 -0.970027465
vn 0.761679674 -0.613490167 -0.208503932
vn 0.543295137 0.322443564 -0.775151948
vn 0.831874704 -0.18452054 -0.523389575
vn 0.993472261 -0.11407395 -0
vn 0.597891271 0.361440802 -0.71546249
vn 0.956665868 0.166454609 -0.238921077
vn 0.769479122 0.525229205 -0.363367807
g bannana_0
f 3/3/3 2/2/2 1/1/1
f 6/6/6 5/5/5 4/4/4
f 9/9/9 8/8/8 7/7/7
f 12/12/12 11/11/11 10/10/10
f 11/11/11 13/13/13 10/10/10
f 10/10/10 13/13/13 14/14/14
f 13/13/13 11/11/11 15/15/15
f 11/11/11 16/16/16 15/15/15
f 13/13/13 17/17/17 14/14/14
f 14/14/14 17/17/17 18/18/18
f 15/15/15 16/16/16 19/19/19
f 16/16/16 20/20/20 19/19/19
f 13/13/13 15/15/15 21/21/21
f 17/17/17 13/13/13 21/21/21
f 17/17/17 22/22/22 18/18/18
f 18/18/18 22/22/22 23/23/23
f 15/15/15 19/19/19 24/24/24
f 21/21/21 15/15/15 24/24/24
f 21/21/21 24/24/24 25/25/25
f 17/17/17 21/21/21 26/26/26
f 22/22/22 17/17/17 26/26/26
f 26/26/26 21/21/21 25/25/25
f 19/19/19 20/20/20 27/27/27
f 20/20/20 28/28/28 27/27/27
f 24/24/24 19/19/19 29/29/29
f 24/24/24 29/29/29 25/25/25
f 19/19/19 27/27/27 29/29/29
f 25/25/25 29/29/29 30/30/30
f 22/22/22 31/31/31 23/23/23
f 32/32/32 23/23/23 31/31/31
f 22/22/22 26/26/26 33/33/33
f 31/31/31 22/22/22 33/33/33
f 27/27/27 28/28/28 34/34/34
f 28/28/28 35/35/35 34/34/34
f 29/29/29 27/27/27 36/36/36
f 29/29/29 36/36/36 30/30/30
f 27/27/27 34/34/34 36/36/36
f 37/37/37 32/32/32 31/31/31
f 32/32/32 37/37/37 38/38/38
f 37/37/37 39/39/39 38/38/38
f 39/39/39 37/37/37 40/40/40
f 37/37/37 31/31/31 41/41/41
f 37/37/37 41/41/41 40/40/40
f 31/31/31 33/33/33 41/41/41
f 40/40/40 41/41/41 42/42/42
f 41/41/41 43/43/43 42/42/42
f 43/43/43 41/41/41 33/33/33
f 42/42/42 43/43/43 44/44/44
f 36/36/36 34/34/34 45/45/45
f 36/36/36 45/45/45 30/30/30
f 30/30/30 45/45/45 46/46/46
f 47/47/47 43/43/43 33/33/33
f 33/33/33 26/26/26 47/47/47
f 26/26/26 25/25/25 47/47/47
f 43/43/43 48/48/48 44/44/44
f 43/43/43 47/47/47 48/48/48
f 44/44/44 48/48/48 49/49/49
f 34/34/34 50/50/50 45/45/45
f 34/34/34 35/35/35 50/50/50
f 35/35/35 51/51/51 50/50/50
f 47/47/47 25/25/25 52/52/52
f 47/47/47 52/52/52 48/48/48
f 48/48/48 53/53/53 49/49/49
f 48/48/48 52/52/52 53/53/53
f 49/49/49 53/53/53 54/54/54
f 52/52/52 25/25/25 55/55/55
f 52/52/52 55/55/55 53/53/53
f 25/25/25 30/30/30 55/55/55
f 53/53/53 56/56/56 54/54/54
f 53/53/53 55/55/55 56/56/56
f 54/54/54 56/56/56 57/57/57
f 45/45/45 50/50/50 58/58/58
f 45/45/45 58/58/58 46/46/46
f 55/55/55 30/30/30 59/59/59
f 55/55/55 59/59/59 56/56/56
f 56/56/56 60/60/60 57/57/57
f 56/56/56 59/59/59 60/60/60
f 57/57/57 60/60/60 61/61/61
f 59/59/59 30/30/30 62/62/62
f 59/59/59 62/62/62 60/60/60
f 30/30/30 46/46/46 62/62/62
f 60/60/60 63/63/63 61/61/61
f 60/60/60 62/62/62 63/63/63
f 61/61/61 63/63/63 64/64/64
f 50/50/50 65/65/65 58/58/58
f 50/50/50 51/51/51 65/65/65
f 51/51/51 66/66/66 65/65/65
f 62/62/62 67/67/67 63/63/63
f 62/62/62 46/46/46 67/67/67
f 63/63/63 68/68/68 64/64/64
f 63/63/63 67/67/67 68/68/68
f 64/64/64 68/68/68 69/69/69
f 58/58/58 65/65/65 70/70/70
f 58/58/58 70/70/70 46/46/46
f 46/46/46 70/70/70 71/71/71
f 46/46/46 71/71/71 72/72/72
f 67/67/67 46/46/46 72/72/72
f 67/67/67 72/72/72 68/68/68
f 65/65/65 66/66/66 73/73/73
f 65/65/65 73/73/73 70/70/70
f 66/66/66 74/74/74 73/73/73
f 68/68/68 75/75/75 69/69/69
f 68/68/68 72/72/72 75/75/75
f 70/70/70 73/73/73 76/76/76
f 70/70/70 76/76/76 71/71/71
f 73/73/73 74/74/74 77/77/77
f 73/73/73 77/77/77 76/76/76
f 74/74/74 78/78/78 77/77/77
f 76/76/76 77/77/77 79/79/79
f 76/76/76 79/79/79 71/71/71
f 77/77/77 78/78/78 80/80/80
f 77/77/77 80/80/80 79/79/79
f 78/78/78 81/81/81 80/80/80
f 80/80/80 81/81/81 82/82/82
f 83/83/83 80/80/80 82/82/82
f 79/79/79 80/80/80 83/83/83
f 83/83/83 82/82/82 84/84/84
f 85/85/85 79/79/79 83/83/83
f 71/71/71 79/79/79 85/85/85
f 85/85/85 83/83/83 84/84/84
f 72/72/72 71/71/71 86/86/86
f 72/72/72 86/86/86 75/75/75
f 87/87/87 71/71/71 85/85/85
f 85/85/85 84/84/84 87/87/87
f 88/88/88 86/86/86 71/71/71
f 87/87/87 88/88/88 71/71/71
f 75/75/75 86/86/86 88/88/88
f 84/84/84 88/88/88 87/87/87
f 89/89/89 75/75/75 88/88/88
f 84/84/84 89/89/89 88/88/88
f 69/69/69 75/75/75 89/89/89
f 84/84/84 90/90/90 89/89/89
f 90/90/90 69/69/69 89/89/89
f 93/93/93 92/92/92 91/91/91
f 92/92/92 94/94/94 91/91/91
f 91/91/91 94/94/94 95/95/95
f 94/94/94 92/92/92 96/96/96
f 92/92/92 97/97/97 96/96/96
f 94/94/94 98/98/98 95/95/95
f 95/95/95 98/98/98 99/99/99
f 96/96/96 97/97/97 100/100/100
f 97/97/97 101/101/101 100/100/100
f 94/94/94 96/96/96 102/102/102
f 98/98/98 94/94/94 102/102/102
f 98/98/98 103/103/103 99/99/99
f 99/99/99 103/103/103 104/104/104
f 96/96/96 100/100/100 105/105/105
f 102/102/102 96/96/96 105/105/105
f 102/102/102 105/105/105 106/106/106
f 98/98/98 102/102/102 107/107/107
f 103/103/103 98/98/98 107/107/107
f 107/107/107 102/102/102 106/106/106
f 100/100/100 101/101/101 108/108/108
f 101/101/101 109/109/109 108/108/108
f 105/105/105 100/100/100 110/110/110
f 105/105/105 110/110/110 106/106/106
f 100/100/100 108/108/108 110/110/110
f 106/106/106 110/110/110 111/111/111
f 103/103/103 112/112/112 104/104/104
f 113/113/113 104/104/104 112/112/112
f 103/103/103 107/107/107 114/114/114
f 112/112/112 103/103/103 114/114/114
f 108/108/108 109/109/109 115/115/115
f 109/109/109 116/116/116 115/115/115
f 110/110/110 108/108/108 117/117/117
f 110/110/110 117/117/117 111/111/111
f 108/108/108 115/115/115 117/117/117
f 118/118/118 113/113/113 112/112/112
f 113/113/113 118/118/118 119/119/119
f 118/118/118 120/120/120 119/119/119
f 120/120/120 118/118/118 121/121/121
f 118/118/118 112/112/112 122/122/122
f 118/118/118 122/122/122 121/121/121
f 112/112/112 114/114/114 122/122/122
f 121/121/121 122/122/122 123/123/123
f 122/122/122 124/124/124 123/123/123
f 124/124/124 122/122/122 114/114/114
f 123/123/123 124/124/124 125/125/125
f 117/117/117 115/115/115 126/126/126
f 117/117/117 126/126/126 111/111/111
f 111/111/111 126/126/126 127/127/127
f 128/128/128 124/124/124 114/114/114
f 114/114/114 107/107/107 128/128/128
f 107/107/107 106/106/106 128/128/128
f 124/124/124 129/129/129 125/125/125
f 124/124/124 128/128/128 129/129/129
f 125/125/125 129/129/129 130/130/130
f 115/115/115 131/131/131 126/126/126
f 115/115/115 116/116/116 131/131/131
f 116/116/116 132/132/132 131/131/131
f 128/128/128 106/106/106 133/133/133
f 128/128/128 133/133/133 129/129/129
f 129/129/129 134/134/134 130/130/130
f 129/129/129 133/133/133 134/134/134
f 130/130/130 134/134/134 135/135/135
f 133/133/133 106/106/106 136/136/136
f 133/133/133 136/136/136 134/134/134
f 106/106/106 111/111/111 136/136/136
f 134/134/134 137/137/137 135/135/135
f 134/134/134 136/136/136 137/137/137
f 135/135/135 137/137/137 138/138/138
f 126/126/126 131/131/131 139/139/139
f 126/126/126 139/139/139 127/127/127
f 136/136/136 111/111/111 140/140/140
f 136/136/136 140/140/140 137/137/137
f 137/137/137 141/141/141 138/138/138
f 137/137/137 140/140/140 141/141/141
f 138/138/138 141/141/141 142/142/142
f 140/140/140 111/111/111 143/143/143
f 140/140/140 143/143/143 141/141/141
f 111/111/111 127/127/127 143/143/143
f 141/141/141 144/144/144 142/142/142
f 141/141/141 143/143/143 144/144/144
f 142/142/142 144/144/144 145/145/145
f 131/131/131 146/146/146 139/139/139
f 131/131/131 132/132/132 146/146/146
f 132/132/132 147/147/147 146/146/146
f 143/143/143 148/148/148 144/144/144
f 143/143/143 127/127/127 148/148/148
f 144/144/144 149/149/149 145/145/145
f 144/144/144 148/148/148 149/149/149
f 145/145/145 149/149/149 150/150/150
f 139/139/139 146/146/146 151/151/151
f 139/139/139 151/151/151 127/127/127
f 127/127/127 151/151/151 152/152/152
f 127/127/127 152/152/152 153/153/153
f 148/148/148 127/127/127 153/153/153
f 148/148/148 153/153/153 149/149/149
f 146/146/146 147/147/147 154/154/154
f 146/146/146 154/154/154 151/151/151
f 147/147/147 155/155/155 154/154/154
f 149/149/149 156/156/156 150/150/150
f 149/149/149 153/153/153 156/156/156
f 151/151/151 154/154/154 157/157/157
f 151/151/151 157/157/157 152/152/152
f 154/154/154 155/155/155 158/158/158
f 154/154/154 158/158/158 157/157/157
f 155/155/155 159/159/159 158/158/158
f 157/157/157 158/158/158 160/160/160
f 157/157/157 160/160/160 152/152/152
f 158/158/158 159/159/159 161/161/161
f 158/158/158 161/161/161 160/160/160
f 159/159/159 162/162/162 161/161/161
f 161/161/161 162/162/162 163/163/163
f 164/164/164 161/161/161 163/163/163
f 160/160/160 161/161/161 164/164/164
f 164/164/164 163/163/163 165/165/165
f 166/166/166 160/160/160 164/164/164
f 152/152/152 160/160/160 166/166/166
f 166/166/166 164/164/164 165/165/165
f 153/153/153 152/152/152 167/167/167
f 153/153/153 167/167/167 156/156/156
f 168/168/168 152/152/152 166/166/166
f 166/166/166 165/165/165 168/168/168
f 169/169/169 167/167/167 152/152/152
f 168/168/168 169/169/169 152/152/152
f 156/156/156 167/167/167 169/169/169
f 165/165/165 169/169/169 168/168/168
f 170/170/170 156/156/156 169/169/169
f 165/165/165 170/170/170 169/169/169
f 150/150/150 156/156/156 170/170/170
f 165/165/165 171/171/171 170/170/170
f 171/171/171 150/150/150 170/170/170
f 174/174/174 173/173/173 172/172/172
f 173/173/173 175/175/175 172/172/172
f 172/172/172 175/175/175 176/176/176
f 173/173/173 177/177/177 175/175/175
f 175/175/175 178/178/178 176/176/176
f 176/176/176 178/178/178 179/179/179
f 177/177/177 180/180/180 175/175/175
f 175/175/175 180/180/180 178/178/178
f 178/178/178 181/181/181 179/179/179
f 179/179/179 181/181/181 182/182/182
f 183/183/183 180/180/180 177/177/177
f 184/184/184 183/183/183 177/177/177
f 184/184/184 185/185/185 183/183/183
f 180/180/180 186/186/186 178/178/178
f 178/178/178 186/186/186 181/181/181
f 181/181/181 187/187/187 182/182/182
f 188/188/188 182/182/182 187/187/187
f 185/185/185 189/189/189 183/183/183
f 185/185/185 190/190/190 189/189/189
f 183/183/183 191/191/191 180/180/180
f 191/191/191 186/186/186 180/180/180
f 183/183/183 189/189/189 191/191/191
f 186/186/186 192/192/192 181/181/181
f 181/181/181 192/192/192 187/187/187
f 193/193/193 188/188/188 187/187/187
f 188/188/188 193/193/193 194/194/194
f 190/190/190 195/195/195 189/189/189
f 190/190/190 196/196/196 195/195/195
f 189/189/189 197/197/197 191/191/191
f 189/189/189 195/195/195 197/197/197
f 186/186/186 191/191/191 198/198/198
f 192/192/192 186/186/186 198/198/198
f 198/198/198 191/191/191 197/197/197
f 192/192/192 199/199/199 187/187/187
f 193/193/193 187/187/187 199/199/199
f 193/193/193 200/200/200 194/194/194
f 194/194/194 200/200/200 201/201/201
f 192/192/192 198/198/198 202/202/202
f 199/199/199 192/192/192 202/202/202
f 203/203/203 193/193/193 199/199/199
f 193/193/193 203/203/203 200/200/200
f 203/203/203 199/199/199 202/202/202
f 204/204/204 198/198/198 197/197/197
f 202/202/202 198/198/198 204/204/204
f 195/195/195 205/205/205 197/197/197
f 204/204/204 197/197/197 205/205/205
f 200/200/200 206/206/206 201/201/201
f 201/201/201 206/206/206 207/207/207
f 203/203/203 208/208/208 200/200/200
f 200/200/200 208/208/208 206/206/206
f 206/206/206 209/209/209 207/207/207
f 207/207/207 209/209/209 210/210/210
f 195/195/195 211/211/211 205/205/205
f 196/196/196 211/211/211 195/195/195
f 208/208/208 212/212/212 206/206/206
f 206/206/206 212/212/212 209/209/209
f 209/209/209 213/213/213 210/210/210
f 214/214/214 210/210/210 213/213/213
f 215/215/215 214/214/214 213/213/213
f 209/209/209 216/216/216 213/213/213
f 212/212/212 216/216/216 209/209/209
f 215/215/215 213/213/213 217/217/217
f 216/216/216 217/217/217 213/213/213
f 218/218/218 215/215/215 217/217/217
f 218/218/218 217/217/217 219/219/219
f 217/217/217 216/216/216 219/219/219
f 220/220/220 218/218/218 219/219/219
f 216/216/216 212/212/212 221/221/221
f 216/216/216 221/221/221 219/219/219
f 222/222/222 212/212/212 208/208/208
f 212/212/212 222/222/222 221/221/221
f 220/220/220 219/219/219 223/223/223
f 224/224/224 220/220/220 223/223/223
f 219/219/219 221/221/221 225/225/225
f 223/223/223 219/219/219 225/225/225
f 224/224/224 223/223/223 226/226/226
f 227/227/227 224/224/224 226/226/226
f 228/228/228 222/222/222 208/208/208
f 228/228/228 208/208/208 203/203/203
f 221/221/221 222/222/222 229/229/229
f 225/225/225 221/221/221 229/229/229
f 223/223/223 225/225/225 230/230/230
f 226/226/226 223/223/223 230/230/230
f 227/227/227 226/226/226 231/231/231
f 232/232/232 227/227/227 231/231/231
f 233/233/233 232/232/232 231/231/231
f 231/231/231 226/226/226 234/234/234
f 226/226/226 230/230/230 234/234/234
f 230/230/230 225/225/225 235/235/235
f 225/225/225 229/229/229 235/235/235
f 236/236/236 229/229/229 222/222/222
f 228/228/228 236/236/236 222/222/222
f 237/237/237 233/233/233 231/231/231
f 231/231/231 234/234/234 237/237/237
f 234/234/234 230/230/230 238/238/238
f 230/230/230 235/235/235 238/238/238
f 239/239/239 235/235/235 229/229/229
f 236/236/236 239/239/239 229/229/229
f 237/237/237 240/240/240 233/233/233
f 240/240/240 241/241/241 233/233/233
f 234/234/234 242/242/242 237/237/237
f 234/234/234 238/238/238 242/242/242
f 243/243/243 238/238/238 235/235/235
f 239/239/239 243/243/243 235/235/235
f 240/240/240 244/244/244 241/241/241
f 244/244/244 245/245/245 241/241/241
f 244/244/244 240/240/240 246/246/246
f 240/240/240 237/237/237 247/247/247
f 240/240/240 247/247/247 246/246/246
f 237/237/237 242/242/242 247/247/247
f 246/246/246 247/247/247 248/248/248
f 247/247/247 249/249/249 248/248/248
f 247/247/247 242/242/242 249/249/249
f 248/248/248 249/249/249 250/250/250
f 238/238/238 251/251/251 242/242/242
f 242/242/242 251/251/251 249/249/249
f 251/251/251 238/238/238 243/243/243
f 249/249/249 252/252/252 250/250/250
f 249/249/249 251/251/251 252/252/252
f 250/250/250 252/252/252 253/253/253
f 254/254/254 251/251/251 243/243/243
f 251/251/251 254/254/254 252/252/252
f 252/252/252 255/255/255 253/253/253
f 252/252/252 254/254/254 255/255/255
f 256/256/256 253/253/253 255/255/255
f 254/254/254 243/243/243 257/257/257
f 257/257/257 243/243/243 239/239/239
f 254/254/254 258/258/258 255/255/255
f 258/258/258 254/254/254 257/257/257
f 259/259/259 256/256/256 255/255/255
f 259/259/259 255/255/255 258/258/258
f 256/256/256 259/259/259 260/260/260
f 261/261/261 259/259/259 258/258/258
f 258/258/258 257/257/257 261/261/261
f 259/259/259 262/262/262 260/260/260
f 259/259/259 261/261/261 262/262/262
f 260/260/260 262/262/262 263/263/263
f 264/264/264 257/257/257 239/239/239
f 264/264/264 239/239/239 236/236/236
f 262/262/262 265/265/265 263/263/263
f 263/263/263 265/265/265 266/266/266
f 261/261/261 267/267/267 262/262/262
f 262/262/262 267/267/267 265/265/265
f 257/257/257 268/268/268 261/261/261
f 257/257/257 264/264/264 268/268/268
f 269/269/269 264/264/264 236/236/236
f 269/269/269 236/236/236 228/228/228
f 265/265/265 270/270/270 266/266/266
f 266/266/266 270/270/270 271/271/271
f 270/270/270 272/272/272 271/271/271
f 268/268/268 273/273/273 261/261/261
f 273/273/273 267/267/267 261/261/261
f 264/264/264 274/274/274 268/268/268
f 264/264/264 269/269/269 274/274/274
f 268/268/268 274/274/274 273/273/273
f 275/275/275 269/269/269 228/228/228
f 275/275/275 228/228/228 203/203/203
f 275/275/275 203/203/203 202/202/202
f 269/269/269 275/275/275 276/276/276
f 275/275/275 202/202/202 276/276/276
f 269/269/269 276/276/276 274/274/274
f 276/276/276 202/202/202 204/204/204
f 274/274/274 276/276/276 277/277/277
f 276/276/276 204/204/204 277/277/277
f 274/274/274 277/277/277 273/273/273
f 277/277/277 204/204/204 205/205/205
f 273/273/273 277/277/277 278/278/278
f 277/277/277 205/205/205 278/278/278
f 273/273/273 278/278/278 267/267/267
f 211/211/211 278/278/278 205/205/205
f 278/278/278 279/279/279 267/267/267
f 279/279/279 278/278/278 211/211/211
f 267/267/267 279/279/279 265/265/265
f 265/265/265 279/279/279 270/270/270
f 280/280/280 279/279/279 211/211/211
f 279/279/279 280/280/280 270/270/270
f 280/280/280 211/211/211 196/196/196
f 270/270/270 280/280/280 272/272/272
f 281/281/281 280/280/280 196/196/196
f 280/280/280 281/281/281 272/272/272
f 284/284/284 283/283/283 282/282/282
f 282/282/282 283/283/283 285/285/285
f 286/286/286 285/285/285 283/283/283
f 287/287/287 282/282/282 285/285/285
f 288/288/288 286/286/286 283/283/283
f 287/287/287 289/289/289 282/282/282
f 290/290/290 288/288/288 283/283/283
f 291/291/291 290/290/290 283/283/283
f 291/291/291 283/283/283 292/292/292
f 283/283/283 282/282/282 292/292/292
f 289/289/289 293/293/293 282/282/282
f 294/294/294 292/292/292 282/282/282
f 293/293/293 294/294/294 282/282/282
f 297/297/297 296/296/296 295/295/295
f 298/298/298 297/297/297 295/295/295
f 296/296/296 299/299/299 295/295/295
f 298/298/298 295/295/295 300/300/300
f 295/295/295 299/299/299 300/300/300
f 301/301/301 299/299/299 296/296/296
f 302/302/302 301/301/301 296/296/296
f 303/303/303 301/301/301 302/302/302
f 304/304/304 303/303/303 302/302/302
f 305/305/305 303/303/303 304/304/304
f 306/306/306 305/305/305 304/304/304
f 307/307/307 305/305/305 306/306/306
f 308/308/308 307/307/307 306/306/306
f 309/309/309 307/307/307 308/308/308
f 310/310/310 309/309/309 308/308/308
f 311/311/311 309/309/309 310/310/310
f 312/312/312 311/311/311 310/310/310
f 313/313/313 311/311/311 312/312/312
f 314/314/314 313/313/313 312/312/312
f 315/315/315 313/313/313 314/314/314
f 316/316/316 315/315/315 314/314/314
f 315/315/315 316/316/316 317/317/317
f 318/318/318 315/315/315 317/317/317
f 318/318/318 317/317/317 319/319/319
f 313/313/313 315/315/315 320/320/320
f 320/320/320 315/315/315 318/318/318
f 313/313/313 321/321/321 311/311/311
f 321/321/321 313/313/313 320/320/320
f 311/311/311 322/322/322 309/309/309
f 321/321/321 322/322/322 311/311/311
f 321/321/321 323/323/323 322/322/322
f 322/322/322 324/324/324 309/309/309
f 322/322/322 323/323/323 324/324/324
f 323/323/323 325/325/325 324/324/324
f 309/309/309 324/324/324 307/307/307
f 324/324/324 326/326/326 307/307/307
f 324/324/324 325/325/325 326/326/326
f 307/307/307 326/326/326 305/305/305
f 326/326/326 327/327/327 305/305/305
f 326/326/326 325/325/325 327/327/327
f 325/325/325 328/328/328 327/327/327
f 305/305/305 327/327/327 303/303/303
f 327/327/327 329/329/329 303/303/303
f 327/327/327 328/328/328 329/329/329
f 303/303/303 329/329/329 301/301/301
f 329/329/329 330/330/330 301/301/301
f 329/329/329 328/328/328 330/330/330
f 301/301/301 330/330/330 299/299/299
f 328/328/328 331/331/331 330/330/330
f 330/330/330 331/331/331 332/332/332
f 330/330/330 332/332/332 299/299/299
f 299/299/299 332/332/332 300/300/300
f 300/300/300 332/332/332 331/331/331
f 333/333/333 300/300/300 331/331/331
f 298/298/298 300/300/300 333/333/333
f 334/334/334 298/298/298 333/333/333
f 333/333/333 331/331/331 334/334/334
f 334/334/334 335/335/335 298/298/298
f 335/335/335 336/336/336 298/298/298
f 334/334/334 337/337/337 335/335/335
f 331/331/331 337/337/337 334/334/334
f 335/335/335 338/338/338 336/336/336
f 337/337/337 338/338/338 335/335/335
f 338/338/338 339/339/339 336/336/336
f 340/340/340 339/339/339 338/338/338
f 341/341/341 340/340/340 338/338/338
f 341/341/341 338/338/338 337/337/337
f 342/342/342 340/340/340 341/341/341
f 343/343/343 337/337/337 331/331/331
f 343/343/343 341/341/341 337/337/337
f 344/344/344 342/342/342 341/341/341
f 344/344/344 341/341/341 343/343/343
f 345/345/345 342/342/342 344/344/344
f 346/346/346 343/343/343 331/331/331
f 346/346/346 344/344/344 343/343/343
f 328/328/328 346/346/346 331/331/331
f 347/347/347 345/345/345 344/344/344
f 347/347/347 344/344/344 346/346/346
f 348/348/348 345/345/345 347/347/347
f 349/349/349 346/346/346 328/328/328
f 349/349/349 347/347/347 346/346/346
f 350/350/350 348/348/348 347/347/347
f 350/350/350 347/347/347 349/349/349
f 351/351/351 348/348/348 350/350/350
f 352/352/352 349/349/349 328/328/328
f 352/352/352 350/350/350 349/349/349
f 325/325/325 352/352/352 328/328/328
f 353/353/353 351/351/351 350/350/350
f 353/353/353 350/350/350 352/352/352
f 354/354/354 351/351/351 353/353/353
f 355/355/355 352/352/352 325/325/325
f 355/355/355 353/353/353 352/352/352
f 356/356/356 354/354/354 353/353/353
f 356/356/356 353/353/353 355/355/355
f 357/357/357 354/354/354 356/356/356
f 358/358/358 355/355/355 325/325/325
f 358/358/358 356/356/356 355/355/355
f 323/323/323 358/358/358 325/325/325
f 359/359/359 357/357/357 356/356/356
f 359/359/359 356/356/356 358/358/358
f 360/360/360 357/357/357 359/359/359
f 361/361/361 359/359/359 358/358/358
f 361/361/361 358/358/358 323/323/323
f 362/362/362 360/360/360 359/359/359
f 362/362/362 359/359/359 361/361/361
f 363/363/363 360/360/360 362/362/362
f 364/364/364 361/361/361 323/323/323
f 364/364/364 362/362/362 361/361/361
f 365/365/365 363/363/363 362/362/362
f 365/365/365 319/319/319 363/363/363
f 365/365/365 362/362/362 366/366/366
f 362/362/362 364/364/364 366/366/366
f 365/365/365 366/366/366 319/319/319
f 367/367/367 364/364/364 323/323/323
f 367/367/367 323/323/323 321/321/321
f 320/320/320 367/367/367 321/321/321
f 366/366/366 364/364/364 368/368/368
f 366/366/366 368/368/368 319/319/319
f 364/364/364 367/367/367 368/368/368
f 367/367/367 320/320/320 369/369/369
f 368/368/368 367/367/367 369/369/369
f 368/368/368 369/369/369 319/319/319
f 369/369/369 320/320/320 318/318/318
f 369/369/369 318/318/318 319/319/319
f 372/372/372 371/371/371 370/370/370
f 371/371/371 373/373/373 370/370/370
f 373/373/373 374/374/374 370/370/370
f 372/372/372 370/370/370 375/375/375
f 374/374/374 376/376/376 370/370/370
f 370/370/370 377/377/377 375/375/375
f 377/377/377 370/370/370 376/376/376
f 378/378/378 375/375/375 377/377/377
f 379/379/379 377/377/377 376/376/376
f 380/380/380 378/378/378 377/377/377
f 379/379/379 381/381/381 377/377/377
f 381/381/381 380/380/380 377/377/377
