g Beam_008A
v -0.0881675133 -1.97236847 -0.159254037
v -0.0444192487 -2.01032974 -0.0796554887
v -0.105310136 -1.68793196 -0.0580361299
v -0.059560079 -1.73601138 0.0146471351
v -0.000707380215 -2.04825461 -5.69405486E-05
v -0.121215287 -1.46409517 0.151824514
v -0.0138100219 -1.78409079 0.0873304001
v 0.0430408845 -2.08621587 0.0795416076
v -0.0373583807 -1.50984522 0.128166967
v 0.0294650918 -1.25860207 0.237646817
v 0.031903639 -1.83217021 0.160013665
v 0.0867527529 -2.12414074 0.159140156
v 0.0776536962 -1.88024962 0.23269693
v 0.0465349222 -1.55555888 0.104509419
v 0.0734681301 -1.29281452 0.156519627
v 0.0119585067 -1.06679395 0.261085987
v 0.130428225 -1.60130894 0.0808518717
v 0.214321528 -1.6470226 0.0571943243
v 0.117471168 -1.32702698 0.0753924377
v 0.0365987523 -1.08266271 0.167110929
v 0.0794735075 -0.869599196 0.245544798
v 0.16143781 -1.36127582 -0.00573475194
v 0.205440849 -1.39548828 -0.0868619416
v 0.0612389979 -1.09853146 0.0731722679
v 0.0369627146 -0.863921385 0.156956382
v 0.0543237148 -0.693623439 0.253224402
v 0.0858792435 -1.11436382 -0.0208027899
v 0.110519489 -1.13023258 -0.114741451
v -0.00554807839 -0.85827997 0.0683679659
v -0.00718590859 -0.667527345 0.180941496
v 0.181674113 -0.495445984 0.0652014942
v -0.0480588713 -0.852602158 -0.0202204502
v -0.0905696643 -0.846924347 -0.108808866
v -0.0687319282 -0.641467646 0.108658589
v 0.0945051492 -0.454209059 0.0848554567
v 0.109864357 -0.265822189 -0.0499561676
v -0.130241552 -0.615407948 0.0364120788
v -0.191751175 -0.589311853 -0.0358708278
v 0.00733618592 -0.412935738 0.104509419
v 0.0554156016 -0.225131207 0.0212348522
v 0.090465168 -0.0364167712 -0.0883177907
v 0.0450426769 0.00383745572 -0.0108302237
v -0.0798691736 -0.371698813 0.124126985
v -0.167038137 -0.330425492 0.143780948
v 0.00100324245 -0.18440383 0.0924258719
v -0.000343417947 0.0440916826 0.0666573433
v -0.0534455129 -0.143712848 0.163580495
v -0.107894268 -0.103021866 0.234771515
v -0.0457295128 0.0843823057 0.14414491
v -0.0911156077 0.124636533 0.221668873
vt 1.00000018 1.00000018
vt 1.00000018 0.749877989
vt 0.889106161 1.00000018
vt 0.889106161 0.749877989
vt 1.00000018 0.4997558
vt 0.777723624 1.00000018
vt 0.889106161 0.4997558
vt 1.00000018 0.25012213
vt 0.777723624 0.749877989
vt 0.666829606 1.00000018
vt 0.889106161 0.25012213
vt 1.00000018 -5.96046448E-08
vt 0.889106161 -5.96046448E-08
vt 0.777723624 0.4997558
vt 0.666829606 0.749877989
vt 0.555447068 1.00000018
vt 0.777723624 0.25012213
vt 0.777723624 -5.96046448E-08
vt 0.666829606 0.4997558
vt 0.555447068 0.749877989
vt 0.444553051 1.00000018
vt 0.666829606 0.25012213
vt 0.666829606 -5.96046448E-08
vt 0.555447068 0.4997558
vt 0.444553051 0.749877989
vt 0.333170513 1.00000018
vt 0.555447068 0.25012213
vt 0.555447068 -5.96046448E-08
vt 0.444553051 0.4997558
vt 0.333170513 0.749877989
vt 0.222276496 1.00000018
vt 0.444553051 0.25012213
vt 0.444553051 -5.96046448E-08
vt 0.333170513 0.4997558
vt 0.222276496 0.749877989
vt 0.110893958 1.00000018
vt 0.333170513 0.25012213
vt 0.333170513 -5.96046448E-08
vt 0.222276496 0.4997558
vt 0.110893958 0.749877989
vt -5.96046448E-08 1.00000018
vt -5.96046448E-08 0.749877989
vt 0.222276496 0.25012213
vt 0.222276496 -5.96046448E-08
vt 0.110893958 0.4997558
vt -5.96046448E-08 0.4997558
vt 0.110893958 0.25012213
vt 0.110893958 -5.96046448E-08
vt -5.96046448E-08 0.25012213
vt -5.96046448E-08 -5.96046448E-08
vn 0.895859599 0.198022561 -0.397772101
vn 0.895859599 0.19068107 -0.40134313
vn 0.888518108 0.278778962 -0.36444185
vn 0.866493635 0.234730016 -0.440557147
vn 0.895859599 0.183339579 -0.404749524
vn 0.0882955883 0.440291764 -0.893502687
vn 0.837127671 0.0805587049 -0.541043027
vn 0.895859599 0.175998088 -0.407995406
vn -0.0732172139 0.33751089 -0.938469839
vn -0.792683333 0.168656597 -0.585839642
vn 0.778395743 -0.110320061 -0.618004491
vn 0.895859599 0.168656597 -0.411084579
vn 0.771054252 -0.0736126063 -0.632500217
vn -0.242071507 0.0365097588 -0.969571257
vn -0.836732279 0.11726616 -0.534909097
vn -0.946854644 0.109924669 -0.302295966
vn -0.381559836 -0.235125408 -0.89393967
vn -0.48434071 -0.323223301 -0.812982641
vn -0.873439734 -0.0662711153 -0.482401462
vn -0.976220608 -0.0369051513 -0.213614922
vn -0.939513153 -0.0222221692 0.34179118
vn -0.880781225 -0.220442426 -0.419081819
vn -0.895464207 -0.271832863 -0.352492197
vn -0.954196135 -0.220442426 -0.202274252
vn -0.902805698 -0.154369007 0.401387695
vn -0.741292896 0.183339579 0.645655823
vn -0.91748868 -0.352589265 -0.184106852
vn -0.902805698 -0.403979702 -0.147452612
vn -0.873439734 -0.31588181 0.370569446
vn -0.675219476 0.212705543 0.706282529
vn 0.286515846 0.447633255 0.847073278
vn -0.829390788 -0.433345666 0.352593896
vn -0.800024824 -0.470053121 0.372840912
vn -0.726609914 -0.000197696218 0.687050213
vn 0.330564792 0.308144926 0.892061446
vn 0.793078725 0.26409598 0.548889287
vn -0.755975878 -0.205759444 0.621420569
vn -0.719268423 -0.31588181 0.618766207
vn 0.213100935 0.0218267768 0.976786355
vn 0.807761707 0.153973615 0.569045825
vn 0.866493635 0.11726616 0.485218949
vn 0.873835126 0.0879001959 0.478210966
vn 0.0882955883 -0.271832863 0.958285335
vn 0.117661552 -0.374613738 0.919684895
vn 0.771054252 0.00714379479 0.636729383
vn 0.859152144 0.0365097588 0.510416135
vn 0.719663815 -0.147027516 0.678577116
vn 0.75637127 -0.147027516 0.637405218
vn 0.851810653 -0.00753918723 0.523795544
vn 0.851810653 -0.0295636602 0.523014915
g Beam_008A_0
f 3/3/3 2/2/2 1/1/1
f 2/2/2 3/3/3 4/4/4
f 4/4/4 5/5/5 2/2/2
f 6/6/6 4/4/4 3/3/3
f 5/5/5 4/4/4 7/7/7
f 7/7/7 8/8/8 5/5/5
f 4/4/4 6/6/6 9/9/9
f 9/9/9 7/7/7 4/4/4
f 10/10/10 9/9/9 6/6/6
f 8/8/8 7/7/7 11/11/11
f 11/11/11 12/12/12 8/8/8
f 12/12/12 11/11/11 13/13/13
f 7/7/7 9/9/9 14/14/14
f 14/14/14 11/11/11 7/7/7
f 9/9/9 10/10/10 15/15/15
f 15/15/15 14/14/14 9/9/9
f 16/16/16 15/15/15 10/10/10
f 17/17/17 13/13/13 11/11/11
f 11/11/11 14/14/14 17/17/17
f 13/13/13 17/17/17 18/18/18
f 14/14/14 15/15/15 19/19/19
f 19/19/19 17/17/17 14/14/14
f 15/15/15 16/16/16 20/20/20
f 20/20/20 19/19/19 15/15/15
f 21/21/21 20/20/20 16/16/16
f 22/22/22 18/18/18 17/17/17
f 17/17/17 19/19/19 22/22/22
f 18/18/18 22/22/22 23/23/23
f 19/19/19 20/20/20 24/24/24
f 24/24/24 22/22/22 19/19/19
f 20/20/20 21/21/21 25/25/25
f 25/25/25 24/24/24 20/20/20
f 26/26/26 25/25/25 21/21/21
f 27/27/27 23/23/23 22/22/22
f 22/22/22 24/24/24 27/27/27
f 23/23/23 27/27/27 28/28/28
f 24/24/24 25/25/25 29/29/29
f 29/29/29 27/27/27 24/24/24
f 25/25/25 26/26/26 30/30/30
f 30/30/30 29/29/29 25/25/25
f 31/31/31 30/30/30 26/26/26
f 32/32/32 28/28/28 27/27/27
f 27/27/27 29/29/29 32/32/32
f 28/28/28 32/32/32 33/33/33
f 29/29/29 30/30/30 34/34/34
f 34/34/34 32/32/32 29/29/29
f 30/30/30 31/31/31 35/35/35
f 35/35/35 34/34/34 30/30/30
f 36/36/36 35/35/35 31/31/31
f 37/37/37 33/33/33 32/32/32
f 32/32/32 34/34/34 37/37/37
f 33/33/33 37/37/37 38/38/38
f 34/34/34 35/35/35 39/39/39
f 39/39/39 37/37/37 34/34/34
f 35/35/35 36/36/36 40/40/40
f 40/40/40 39/39/39 35/35/35
f 41/41/41 40/40/40 36/36/36
f 40/40/40 41/41/41 42/42/42
f 43/43/43 38/38/38 37/37/37
f 37/37/37 39/39/39 43/43/43
f 38/38/38 43/43/43 44/44/44
f 42/42/42 45/45/45 40/40/40
f 39/39/39 40/40/40 45/45/45
f 45/45/45 43/43/43 39/39/39
f 45/45/45 42/42/42 46/46/46
f 47/47/47 44/44/44 43/43/43
f 43/43/43 45/45/45 47/47/47
f 46/46/46 47/47/47 45/45/45
f 44/44/44 47/47/47 48/48/48
f 47/47/47 46/46/46 49/49/49
f 49/49/49 48/48/48 47/47/47
f 48/48/48 49/49/49 50/50/50
