g Box001
v 0.190499991 -0.190499991 -9.93410745E-09
v 0.190499991 0.190499971 -9.93410745E-09
v -0.190499971 -0.190499991 -9.93410745E-09
v -0.190499971 0.190499971 -9.93410745E-09
v 0.190499991 0.190499971 0.380999953
v -0.190499971 -0.190499991 0.380999953
v -0.190499971 0.190499971 0.380999953
v 0.190499991 -0.190499991 0.380999953
v 0.190499991 -0.190499991 0.380999953
v -0.190499971 -0.190499991 -9.93410745E-09
v -0.190499971 -0.190499991 0.380999953
v 0.190499991 -0.190499991 -9.93410745E-09
v 0.190499991 0.190499971 0.380999953
v 0.190499991 -0.190499991 -9.93410745E-09
v 0.190499991 -0.190499991 0.380999953
v 0.190499991 0.190499971 -9.93410745E-09
v -0.190499971 0.190499971 0.380999953
v 0.190499991 0.190499971 -9.93410745E-09
v 0.190499991 0.190499971 0.380999953
v -0.190499971 0.190499971 -9.93410745E-09
v -0.190499971 -0.190499991 0.380999953
v -0.190499971 0.190499971 -9.93410745E-09
v -0.190499971 0.190499971 0.380999953
v -0.190499971 -0.190499991 -9.93410745E-09
vt 0.423961216 0.225291731
vt 0.423961216 0.294851072
vt 0.49302013 0.225291731
vt 0.49302013 0.294851072
vt 0.49302013 0.294851072
vt 0.423961216 0.225291731
vt 0.423961216 0.294851072
vt 0.49302013 0.225291731
vt 2.00981411 1.00645815
vt 1.00996113 0.00660516863
vt 1.00996113 1.00645815
vt 2.00981411 0.00660516863
vt 2.03833845 0.988943204
vt 1.03848547 -0.0109097734
vt 1.03848547 0.988943204
vt 2.03833845 -0.0109097734
vt 2.02983119 1.0019543
vt 1.02997821 0.00210132639
vt 1.02997821 1.0019543
vt 2.02983119 0.00210132639
vt 2.02032308 1.00345558
vt 1.0204701 0.00360260714
vt 1.0204701 1.00345558
vt 2.02032308 0.00360260714
vn -0.00392153871 0.00392153871 -0.999984621
vn -0.00392153871 0.00392153871 -0.999984621
vn -0.00392153871 0.00392153871 -0.999984621
vn -0.00392153871 0.00392153871 -0.999984621
vn -0.00392153871 0.00392153871 0.999984621
vn -0.00392153871 0.00392153871 0.999984621
vn -0.00392153871 0.00392153871 0.999984621
vn -0.00392153871 0.00392153871 0.999984621
vn -0.00392153847 -0.999992311 -0
vn -0.00392153847 -0.999992311 -0
vn -0.00392153847 -0.999992311 -0
vn -0.00392153847 -0.999992311 -0
vn 0.999992311 0.00392153847 -0
vn 0.999992311 0.00392153847 -0
vn 0.999992311 0.00392153847 -0
vn 0.999992311 0.00392153847 -0
vn -0.00392153847 0.999992311 -0
vn -0.00392153847 0.999992311 -0
vn -0.00392153847 0.999992311 -0
vn -0.00392153847 0.999992311 -0
vn -0.999992311 0.00392153847 -0
vn -0.999992311 0.00392153847 -0
vn -0.999992311 0.00392153847 -0
vn -0.999992311 0.00392153847 -0
g Box001_0
f 3/3/3 2/2/2 1/1/1
f 4/4/4 2/2/2 3/3/3
f 7/7/7 6/6/6 5/5/5
f 6/6/6 8/8/8 5/5/5
f 11/11/11 10/10/10 9/9/9
f 10/10/10 12/12/12 9/9/9
f 15/15/15 14/14/14 13/13/13
f 14/14/14 16/16/16 13/13/13
f 19/19/19 18/18/18 17/17/17
f 18/18/18 20/20/20 17/17/17
f 23/23/23 22/22/22 21/21/21
f 22/22/22 24/24/24 21/21/21
