g building_02_02
v 29.8321065 -50.6295758 -104.07511
v 29.8321065 -50.6295758 -116.136338
v 29.8722271 -51.0006905 -116.346971
v 29.8421367 -50.9906604 -103.864477
v 31.6926952 -51.6125283 -117.214577
v 31.6926952 -51.6125283 -102.996871
v 30.1480556 -50.2333858 -103.819342
v 31.7077404 -51.3818353 -102.756148
v 29.9925886 -50.8402085 -103.538498
v 30.2433418 -38.3426697 -103.814327
v 30.1229802 -38.0718562 -103.478317
v 31.7127554 -37.5302294 -102.751133
v 31.6926952 -37.3045515 -102.996871
v 30.2533719 -37.7859976 -103.633784
v 30.3637033 -38.0818864 -104.040004
v 30.3887786 -38.0818864 -116.166428
v 30.2533719 -37.7859976 -116.577664
v 31.6926952 -37.3045515 -117.214577
v 30.2232815 -38.3376546 -116.397121
v 31.7127554 -37.5302294 -117.460315
v 30.1580857 -38.0718562 -116.753191
v 30.1480556 -50.2333858 -116.397121
v 30.0176639 -50.8402085 -116.687995
v 31.7077404 -51.3818353 -117.460315
v 29.8321065 -50.6295758 -116.136338
v 31.6926952 -51.6125283 -117.214577
v 29.8722271 -51.0006905 -116.346971
v 29.8321065 -71.186322 -104.07511
v 29.8321065 -71.186322 -116.136338
v 29.8722271 -71.5574367 -116.346971
v 29.8421367 -71.5474066 -103.864477
v 31.6926952 -72.1692745 -117.214577
v 31.6926952 -72.1692745 -102.996871
v 30.1480556 -70.7901319 -103.819342
v 31.7077404 -71.9385815 -102.756148
v 29.9925886 -71.3969547 -103.538498
v 30.2433418 -58.8994159 -103.814327
v 30.1229802 -58.6286024 -103.478317
v 31.7127554 -58.0869755 -102.751133
v 31.6926952 -57.8612977 -102.996871
v 30.2533719 -58.3427438 -103.633784
v 30.3637033 -58.6386326 -104.040004
v 30.3887786 -58.6386326 -116.166428
v 30.2533719 -58.3477589 -116.577664
v 31.6926952 -57.8612977 -117.214577
v 30.2232815 -58.8944008 -116.397121
v 31.7127554 -58.0869755 -117.460315
v 30.1580857 -58.6286024 -116.753191
v 30.1480556 -70.7901319 -116.397121
v 30.0176639 -71.3969547 -116.687995
v 31.7077404 -71.9385815 -117.460315
v 29.8321065 -71.186322 -116.136338
v 31.6926952 -72.1692745 -117.214577
v 29.8722271 -71.5574367 -116.346971
v -20.2733951 14.7367647 -99.4612512
v -20.2733951 14.7367647 -123.944792
v -20.1981691 13.9895202 -124.366058
v -20.2533348 14.0095805 -99.0349708
v -16.5070822 12.7407694 -126.126345
v -16.5070822 12.7407694 -97.2796985
v -19.6314669 15.5391749 -98.9446997
v -16.4669617 13.2121854 -96.7882223
v -19.9474159 14.3104843 -98.3729824
v -19.4459096 39.6716616 -98.9396846
v -19.6866326 40.2132884 -98.2526209
v -16.4619467 41.3216175 -96.7832072
v -16.5070822 41.7779883 -97.2746835
v -19.4158192 40.7950358 -98.5685699
v -19.2001715 40.1982433 -99.3960554
v -19.1450058 40.1982433 -123.994943
v -19.4208343 40.7950358 -124.832459
v -16.5070822 41.7779883 -126.126345
v -19.4860301 39.6816917 -124.466359
v -16.4619467 41.3216175 -126.622836
v -19.6114067 40.2183035 -125.188528
v -19.6314669 15.5391749 -124.461344
v -19.8972653 14.3104843 -125.053121
v -16.4669617 13.2121854 -126.617821
v -20.2733951 14.7367647 -123.944792
v -16.5070822 12.7407694 -126.126345
v -20.1981691 13.9895202 -124.366058
v -16.6073835 -0.514044031 -164.3311
v -19.6665724 -2.55517497 -162.074322
v -16.4569316 0.468908458 -163.694187
v -19.1801112 -2.76079258 -163.072319
v -18.5783036 -4.34053765 -162.274924
v -19.2603522 -3.6283986 -161.467499
v -18.5783036 -126.417219 -162.274924
v -19.1450058 -128.022039 -163.09238
v -16.6073835 -130.248727 -164.3311
v -19.2603522 -127.129358 -161.467499
v -16.4569316 -131.23168 -163.694187
v -19.5863314 -128.287838 -162.059277
v -19.2603522 -127.129358 -99.0048804
v -19.6665724 -128.207596 -98.4030728
v -16.4619467 -131.226665 -96.7932373
v -18.5783036 -126.417219 -98.1974552
v -16.6073835 -130.248727 -96.1412791
v -19.1801112 -128.001979 -97.40006
v -18.688635 -4.3054322 -98.1974552
v -19.1450058 -2.74073232 -97.3850149
v -16.6073835 -0.514044031 -96.1412791
v -16.4569316 0.468908458 -96.7781921
v -19.5863314 -2.47493395 -98.4131029
v -19.1951564 -3.6283986 -99.0399859
v -19.2603522 -3.6283986 -161.467499
v -19.6665724 -2.55517497 -162.074322
v -16.4569316 0.468908458 -163.694187
v -31.7127554 25.5341969 -32.8662201
v -31.7127554 25.5341969 -57.3447461
v -31.6375295 24.7869524 -57.7660115
v -31.6926952 24.8019976 -32.4399397
v -27.9464426 23.5382016 -59.5313139
v -27.9464426 23.5382016 -30.6796523
v -31.0708273 26.3366071 -32.3446535
v -27.9063221 24.0096176 -30.1881761
v -31.3867763 25.1079165 -31.7729362
v -30.8852699 50.4690938 -32.3446535
v -31.125993 51.0107206 -31.6575897
v -27.901307 52.1140347 -30.1881761
v -27.9464426 52.5754205 -30.6796523
v -30.8551795 51.592468 -31.9735388
v -30.6395318 50.9906604 -32.8010243
v -30.5843661 50.9906604 -57.3999118
v -30.8601946 51.592468 -58.2374275
v -27.9464426 52.5754205 -59.5313139
v -30.9253904 50.4791239 -57.8663127
v -27.901307 52.1140347 -60.0278052
v -31.050767 51.0107206 -58.5884819
v -31.0708273 26.3366071 -57.8663127
v -31.3366257 25.1079165 -58.4580903
v -27.9063221 24.0096176 -60.0227901
v -31.7127554 25.5341969 -57.3447461
v -27.9464426 23.5382016 -59.5313139
v -31.6375295 24.7869524 -57.7660115
v -31.7127554 71.9837171 -32.8662201
v -31.7127554 71.9837171 -57.3447461
v -31.6375295 71.2314576 -57.7660115
v -31.6926952 71.2515178 -32.4399397
v -27.9464426 69.9877218 -59.5313139
v -27.9464426 69.9877218 -30.6796523
v -31.0708273 72.7861273 -32.3446535
v -27.9063221 70.4591377 -30.1881761
v -31.3867763 71.5574367 -31.7729362
v -30.8852699 96.9186139 -32.3446535
v -31.125993 97.4602408 -31.6575897
v -27.901307 98.5635548 -30.1881761
v -27.9464426 99.0249407 -30.6796523
v -30.8551795 98.0419882 -31.9735388
v -30.6395318 97.4401806 -32.8010243
v -30.5843661 97.4401806 -57.3999118
v -30.8601946 98.0419882 -58.2374275
v -27.9464426 99.0249407 -59.5313139
v -30.9253904 96.9286441 -57.8663127
v -27.901307 98.5635548 -60.0278052
v -31.050767 97.4602408 -58.5884819
v -31.0708273 72.7861273 -57.8663127
v -31.3366257 71.5524216 -58.4580903
v -27.9063221 70.4591377 -60.0227901
v -31.7127554 71.9837171 -57.3447461
v -27.9464426 69.9877218 -59.5313139
v -31.6375295 71.2314576 -57.7660115
v -29.8471517 110.960792 -49.4359906
v -29.8471517 109.260686 -50.5242595
v -29.8471517 110.674934 -49.1451169
v -29.8471517 109.56159 -50.8101181
v -29.8471517 129.531573 -49.4309756
v -29.8471517 130.930776 -50.8101181
v -29.8471517 129.817432 -49.1451169
v -29.8471517 131.23168 -50.5242595
v -29.8471517 129.817432 -30.9554808
v -29.8471517 131.23168 -29.5713232
v -29.8471517 129.531573 -30.6646071
v -29.8471517 130.930776 -29.2854646
v -29.8471517 110.960792 -30.6646071
v -29.8471517 109.56159 -29.2854646
v -29.8471517 110.674934 -30.9554808
v -29.8471517 109.260686 -29.5713232
v -29.8471517 110.674934 -49.1451169
v -29.8471517 109.260686 -50.5242595
v 29.8321065 -50.6295758 104.07511
v 29.8722271 -51.0006905 116.346971
v 29.8321065 -50.6295758 116.136338
v 29.8421367 -50.9906604 103.864477
v 31.6926952 -51.6125283 117.214577
v 31.6926952 -51.6125283 102.996871
v 30.1480556 -50.2333858 103.819342
v 31.7077404 -51.3818353 102.756148
v 29.9925886 -50.8402085 103.538498
v 30.2433418 -38.3426697 103.814327
v 30.1229802 -38.0718562 103.478317
v 31.7127554 -37.5302294 102.751133
v 31.6926952 -37.3045515 102.996871
v 30.2533719 -37.7859976 103.633784
v 30.3637033 -38.0818864 104.040004
v 30.3887786 -38.0818864 116.166428
v 30.2533719 -37.7859976 116.577664
v 31.6926952 -37.3045515 117.214577
v 30.2232815 -38.3376546 116.397121
v 31.7127554 -37.5302294 117.460315
v 30.1580857 -38.0718562 116.753191
v 30.1480556 -50.2333858 116.397121
v 30.0176639 -50.8402085 116.687995
v 31.7077404 -51.3818353 117.460315
v 29.8321065 -50.6295758 116.136338
v 31.6926952 -51.6125283 117.214577
v 29.8722271 -51.0006905 116.346971
v 29.8321065 -71.186322 104.07511
v 29.8722271 -71.5574367 116.346971
v 29.8321065 -71.186322 116.136338
v 29.8421367 -71.5474066 103.864477
v 31.6926952 -72.1692745 117.214577
v 31.6926952 -72.1692745 102.996871
v 30.1480556 -70.7901319 103.819342
v 31.7077404 -71.9385815 102.756148
v 29.9925886 -71.3969547 103.538498
v 30.2433418 -58.8994159 103.814327
v 30.1229802 -58.6286024 103.478317
v 31.7127554 -58.0869755 102.751133
v 31.6926952 -57.8612977 102.996871
v 30.2533719 -58.3427438 103.633784
v 30.3637033 -58.6386326 104.040004
v 30.3887786 -58.6386326 116.166428
v 30.2533719 -58.3477589 116.577664
v 31.6926952 -57.8612977 117.214577
v 30.2232815 -58.8944008 116.397121
v 31.7127554 -58.0869755 117.460315
v 30.1580857 -58.6286024 116.753191
v 30.1480556 -70.7901319 116.397121
v 30.0176639 -71.3969547 116.687995
v 31.7077404 -71.9385815 117.460315
v 29.8321065 -71.186322 116.136338
v 31.6926952 -72.1692745 117.214577
v 29.8722271 -71.5574367 116.346971
v -20.2733951 14.7367647 99.4612512
v -20.1981691 13.9895202 124.366058
v -20.2733951 14.7367647 123.944792
v -20.2533348 14.0095805 99.0349708
v -16.5070822 12.7407694 126.126345
v -16.5070822 12.7407694 97.2796985
v -19.6314669 15.5391749 98.9446997
v -16.4669617 13.2121854 96.7882223
v -19.9474159 14.3104843 98.3729824
v -19.4459096 39.6716616 98.9396846
v -19.6866326 40.2132884 98.2526209
v -16.4619467 41.3216175 96.7832072
v -16.5070822 41.7779883 97.2746835
v -19.4158192 40.7950358 98.5685699
v -19.2001715 40.1982433 99.3960554
v -19.1450058 40.1982433 123.994943
v -19.4208343 40.7950358 124.832459
v -16.5070822 41.7779883 126.126345
v -19.4860301 39.6816917 124.466359
v -16.4619467 41.3216175 126.622836
v -19.6114067 40.2183035 125.188528
v -19.6314669 15.5391749 124.461344
v -19.8972653 14.3104843 125.053121
v -16.4669617 13.2121854 126.617821
v -20.2733951 14.7367647 123.944792
v -16.5070822 12.7407694 126.126345
v -20.1981691 13.9895202 124.366058
v -16.6073835 -0.514044031 164.3311
v -16.4569316 0.468908458 163.694187
v -19.6665724 -2.55517497 162.074322
v -19.1801112 -2.76079258 163.072319
v -18.5783036 -4.34053765 162.274924
v -19.2603522 -3.6283986 161.467499
v -18.5783036 -126.417219 162.274924
v -19.1450058 -128.022039 163.09238
v -16.6073835 -130.248727 164.3311
v -19.2603522 -127.129358 161.467499
v -16.4569316 -131.23168 163.694187
v -19.5863314 -128.287838 162.059277
v -19.2603522 -127.129358 99.0048804
v -19.6665724 -128.207596 98.4030728
v -16.4619467 -131.226665 96.7932373
v -18.5783036 -126.417219 98.1974552
v -16.6073835 -130.248727 96.1412791
v -19.1801112 -128.001979 97.40006
v -18.688635 -4.3054322 98.1974552
v -19.1450058 -2.74073232 97.3850149
v -16.6073835 -0.514044031 96.1412791
v -16.4569316 0.468908458 96.7781921
v -19.5863314 -2.47493395 98.4131029
v -19.1951564 -3.6283986 99.0399859
v -19.2603522 -3.6283986 161.467499
v -19.6665724 -2.55517497 162.074322
v -16.4569316 0.468908458 163.694187
v -31.7127554 25.5341969 32.8662201
v -31.6375295 24.7869524 57.7660115
v -31.7127554 25.5341969 57.3447461
v -31.6926952 24.8019976 32.4399397
v -27.9464426 23.5382016 59.5313139
v -27.9464426 23.5382016 30.6796523
v -31.0708273 26.3366071 32.3446535
v -27.9063221 24.0096176 30.1881761
v -31.3867763 25.1079165 31.7729362
v -30.8852699 50.4690938 32.3446535
v -31.125993 51.0107206 31.6575897
v -27.901307 52.1140347 30.1881761
v -27.9464426 52.5754205 30.6796523
v -30.8551795 51.592468 31.9735388
v -30.6395318 50.9906604 32.8010243
v -30.5843661 50.9906604 57.3999118
v -30.8601946 51.592468 58.2374275
v -27.9464426 52.5754205 59.5313139
v -30.9253904 50.4791239 57.8663127
v -27.901307 52.1140347 60.0278052
v -31.050767 51.0107206 58.5884819
v -31.0708273 26.3366071 57.8663127
v -31.3366257 25.1079165 58.4580903
v -27.9063221 24.0096176 60.0227901
v -31.7127554 25.5341969 57.3447461
v -27.9464426 23.5382016 59.5313139
v -31.6375295 24.7869524 57.7660115
v -31.7127554 71.9837171 32.8662201
v -31.6375295 71.2314576 57.7660115
v -31.7127554 71.9837171 57.3447461
v -31.6926952 71.2515178 32.4399397
v -27.9464426 69.9877218 59.5313139
v -27.9464426 69.9877218 30.6796523
v -31.0708273 72.7861273 32.3446535
v -27.9063221 70.4591377 30.1881761
v -31.3867763 71.5574367 31.7729362
v -30.8852699 96.9186139 32.3446535
v -31.125993 97.4602408 31.6575897
v -27.901307 98.5635548 30.1881761
v -27.9464426 99.0249407 30.6796523
v -30.8551795 98.0419882 31.9735388
v -30.6395318 97.4401806 32.8010243
v -30.5843661 97.4401806 57.3999118
v -30.8601946 98.0419882 58.2374275
v -27.9464426 99.0249407 59.5313139
v -30.9253904 96.9286441 57.8663127
v -27.901307 98.5635548 60.0278052
v -31.050767 97.4602408 58.5884819
v -31.0708273 72.7861273 57.8663127
v -31.3366257 71.5524216 58.4580903
v -27.9063221 70.4591377 60.0227901
v -31.7127554 71.9837171 57.3447461
v -27.9464426 69.9877218 59.5313139
v -31.6375295 71.2314576 57.7660115
v -29.8471517 110.960792 49.4359906
v -29.8471517 110.674934 49.1451169
v -29.8471517 109.260686 50.5242595
v -29.8471517 109.56159 50.8101181
v -29.8471517 129.531573 49.4309756
v -29.8471517 130.930776 50.8101181
v -29.8471517 129.817432 49.1451169
v -29.8471517 131.23168 50.5242595
v -29.8471517 129.817432 30.9554808
v -29.8471517 131.23168 29.5713232
v -29.8471517 129.531573 30.6646071
v -29.8471517 130.930776 29.2854646
v -29.8471517 110.960792 30.6646071
v -29.8471517 109.56159 29.2854646
v -29.8471517 110.674934 30.9554808
v -29.8471517 109.260686 29.5713232
v -29.8471517 110.674934 49.1451169
v -29.8471517 109.260686 50.5242595
vt 0.412631453 0.409546145
vt 0.412631453 0.418564737
vt 0.412963717 0.418564737
vt 0.412963717 0.409546145
vt 0.414245306 0.418564737
vt 0.414245306 0.409546145
vt 0.412631453 0.409261347
vt 0.414245306 0.409261347
vt 0.412963717 0.409261347
vt 0.412631453 0.400242756
vt 0.412963717 0.400242756
vt 0.414245306 0.400242756
vt 0.414245306 0.400005424
vt 0.412963717 0.400005424
vt 0.412631453 0.400005424
vt 0.412631453 0.390796967
vt 0.412963717 0.390796967
vt 0.414245306 0.390796967
vt 0.412631453 0.390559636
vt 0.414245306 0.390559636
vt 0.412963717 0.390559636
vt 0.412631453 0.381541044
vt 0.412963717 0.381541044
vt 0.414245306 0.381541044
vt 0.412631453 0.38120878
vt 0.414245306 0.38120878
vt 0.412963717 0.38120878
vt 0.412631453 0.409546145
vt 0.412631453 0.418564737
vt 0.412963717 0.418564737
vt 0.412963717 0.409546145
vt 0.414245306 0.418564737
vt 0.414245306 0.409546145
vt 0.412631453 0.409261347
vt 0.414245306 0.409261347
vt 0.412963717 0.409261347
vt 0.412631453 0.400242756
vt 0.412963717 0.400242756
vt 0.414245306 0.400242756
vt 0.414245306 0.400005424
vt 0.412963717 0.400005424
vt 0.412631453 0.400005424
vt 0.412631453 0.390796967
vt 0.412963717 0.390796967
vt 0.414245306 0.390796967
vt 0.412631453 0.390559636
vt 0.414245306 0.390559636
vt 0.412963717 0.390559636
vt 0.412631453 0.381541044
vt 0.412963717 0.381541044
vt 0.414245306 0.381541044
vt 0.412631453 0.38120878
vt 0.414245306 0.38120878
vt 0.412963717 0.38120878
vt 0.412631453 0.409546145
vt 0.412631453 0.418564737
vt 0.412963717 0.418564737
vt 0.412963717 0.409546145
vt 0.414245306 0.418564737
vt 0.414245306 0.409546145
vt 0.412631453 0.409261347
vt 0.414245306 0.409261347
vt 0.412963717 0.409261347
vt 0.412631453 0.400242756
vt 0.412963717 0.400242756
vt 0.414245306 0.400242756
vt 0.414245306 0.400005424
vt 0.412963717 0.400005424
vt 0.412631453 0.400005424
vt 0.412631453 0.390796967
vt 0.412963717 0.390796967
vt 0.414245306 0.390796967
vt 0.412631453 0.390559636
vt 0.414245306 0.390559636
vt 0.412963717 0.390559636
vt 0.412631453 0.381541044
vt 0.412963717 0.381541044
vt 0.414245306 0.381541044
vt 0.412631453 0.38120878
vt 0.414245306 0.38120878
vt 0.412963717 0.38120878
vt 0.403612861 0.370149139
vt 0.404087524 0.37000674
vt 0.403612861 0.37000674
vt 0.404087524 0.370149139
vt 0.404229923 0.370149139
vt 0.404229923 0.37000674
vt 0.404229923 0.386002874
vt 0.404087524 0.386002874
vt 0.403612861 0.386002874
vt 0.404229923 0.386145273
vt 0.403612861 0.386145273
vt 0.404087524 0.386145273
vt 0.404229923 0.394262005
vt 0.404087524 0.394262005
vt 0.403612861 0.394262005
vt 0.404229923 0.394404404
vt 0.403612861 0.394404404
vt 0.404087524 0.394404404
vt 0.404229923 0.410258139
vt 0.404087524 0.410258139
vt 0.403612861 0.410258139
vt 0.403612861 0.410400538
vt 0.404087524 0.410400538
vt 0.404229923 0.410400538
vt 0.404229923 0.418517271
vt 0.404087524 0.418517271
vt 0.403612861 0.418517271
vt 0.412631453 0.409546145
vt 0.412631453 0.418564737
vt 0.412963717 0.418564737
vt 0.412963717 0.409546145
vt 0.414245306 0.418564737
vt 0.414245306 0.409546145
vt 0.412631453 0.409261347
vt 0.414245306 0.409261347
vt 0.412963717 0.409261347
vt 0.412631453 0.400242756
vt 0.412963717 0.400242756
vt 0.414245306 0.400242756
vt 0.414245306 0.400005424
vt 0.412963717 0.400005424
vt 0.412631453 0.400005424
vt 0.412631453 0.390796967
vt 0.412963717 0.390796967
vt 0.414245306 0.390796967
vt 0.412631453 0.390559636
vt 0.414245306 0.390559636
vt 0.412963717 0.390559636
vt 0.412631453 0.381541044
vt 0.412963717 0.381541044
vt 0.414245306 0.381541044
vt 0.412631453 0.38120878
vt 0.414245306 0.38120878
vt 0.412963717 0.38120878
vt 0.412631453 0.409546145
vt 0.412631453 0.418564737
vt 0.412963717 0.418564737
vt 0.412963717 0.409546145
vt 0.414245306 0.418564737
vt 0.414245306 0.409546145
vt 0.412631453 0.409261347
vt 0.414245306 0.409261347
vt 0.412963717 0.409261347
vt 0.412631453 0.400242756
vt 0.412963717 0.400242756
vt 0.414245306 0.400242756
vt 0.414245306 0.400005424
vt 0.412963717 0.400005424
vt 0.412631453 0.400005424
vt 0.412631453 0.390796967
vt 0.412963717 0.390796967
vt 0.414245306 0.390796967
vt 0.412631453 0.390559636
vt 0.414245306 0.390559636
vt 0.412963717 0.390559636
vt 0.412631453 0.381541044
vt 0.412963717 0.381541044
vt 0.414245306 0.381541044
vt 0.412631453 0.38120878
vt 0.414245306 0.38120878
vt 0.412963717 0.38120878
vt 0.407600028 0.395163865
vt 0.408027224 0.395068932
vt 0.407600028 0.395068932
vt 0.408027224 0.395163865
vt 0.407600028 0.400432621
vt 0.408027224 0.400432621
vt 0.407600028 0.400527553
vt 0.408027224 0.400527553
vt 0.407600028 0.405701377
vt 0.408027224 0.405701377
vt 0.407600028 0.405843776
vt 0.408027224 0.405843776
vt 0.407600028 0.411112532
vt 0.408027224 0.411112532
vt 0.407600028 0.411207465
vt 0.408027224 0.411207465
vt 0.407600028 0.416381288
vt 0.408027224 0.416381288
vt 0.412631453 0.409546145
vt 0.412963717 0.418564737
vt 0.412631453 0.418564737
vt 0.412963717 0.409546145
vt 0.414245306 0.418564737
vt 0.414245306 0.409546145
vt 0.412631453 0.409261347
vt 0.414245306 0.409261347
vt 0.412963717 0.409261347
vt 0.412631453 0.400242756
vt 0.412963717 0.400242756
vt 0.414245306 0.400242756
vt 0.414245306 0.400005424
vt 0.412963717 0.400005424
vt 0.412631453 0.400005424
vt 0.412631453 0.390796967
vt 0.412963717 0.390796967
vt 0.414245306 0.390796967
vt 0.412631453 0.390559636
vt 0.414245306 0.390559636
vt 0.412963717 0.390559636
vt 0.412631453 0.381541044
vt 0.412963717 0.381541044
vt 0.414245306 0.381541044
vt 0.412631453 0.38120878
vt 0.414245306 0.38120878
vt 0.412963717 0.38120878
vt 0.412631453 0.409546145
vt 0.412963717 0.418564737
vt 0.412631453 0.418564737
vt 0.412963717 0.409546145
vt 0.414245306 0.418564737
vt 0.414245306 0.409546145
vt 0.412631453 0.409261347
vt 0.414245306 0.409261347
vt 0.412963717 0.409261347
vt 0.412631453 0.400242756
vt 0.412963717 0.400242756
vt 0.414245306 0.400242756
vt 0.414245306 0.400005424
vt 0.412963717 0.400005424
vt 0.412631453 0.400005424
vt 0.412631453 0.390796967
vt 0.412963717 0.390796967
vt 0.414245306 0.390796967
vt 0.412631453 0.390559636
vt 0.414245306 0.390559636
vt 0.412963717 0.390559636
vt 0.412631453 0.381541044
vt 0.412963717 0.381541044
vt 0.414245306 0.381541044
vt 0.412631453 0.38120878
vt 0.414245306 0.38120878
vt 0.412963717 0.38120878
vt 0.412631453 0.409546145
vt 0.412963717 0.418564737
vt 0.412631453 0.418564737
vt 0.412963717 0.409546145
vt 0.414245306 0.418564737
vt 0.414245306 0.409546145
vt 0.412631453 0.409261347
vt 0.414245306 0.409261347
vt 0.412963717 0.409261347
vt 0.412631453 0.400242756
vt 0.412963717 0.400242756
vt 0.414245306 0.400242756
vt 0.414245306 0.400005424
vt 0.412963717 0.400005424
vt 0.412631453 0.400005424
vt 0.412631453 0.390796967
vt 0.412963717 0.390796967
vt 0.414245306 0.390796967
vt 0.412631453 0.390559636
vt 0.414245306 0.390559636
vt 0.412963717 0.390559636
vt 0.412631453 0.381541044
vt 0.412963717 0.381541044
vt 0.414245306 0.381541044
vt 0.412631453 0.38120878
vt 0.414245306 0.38120878
vt 0.412963717 0.38120878
vt 0.403612861 0.370149139
vt 0.403612861 0.37000674
vt 0.404087524 0.37000674
vt 0.404087524 0.370149139
vt 0.404229923 0.370149139
vt 0.404229923 0.37000674
vt 0.404229923 0.386002874
vt 0.404087524 0.386002874
vt 0.403612861 0.386002874
vt 0.404229923 0.386145273
vt 0.403612861 0.386145273
vt 0.404087524 0.386145273
vt 0.404229923 0.394262005
vt 0.404087524 0.394262005
vt 0.403612861 0.394262005
vt 0.404229923 0.394404404
vt 0.403612861 0.394404404
vt 0.404087524 0.394404404
vt 0.404229923 0.410258139
vt 0.404087524 0.410258139
vt 0.403612861 0.410258139
vt 0.403612861 0.410400538
vt 0.404087524 0.410400538
vt 0.404229923 0.410400538
vt 0.404229923 0.418517271
vt 0.404087524 0.418517271
vt 0.403612861 0.418517271
vt 0.412631453 0.409546145
vt 0.412963717 0.418564737
vt 0.412631453 0.418564737
vt 0.412963717 0.409546145
vt 0.414245306 0.418564737
vt 0.414245306 0.409546145
vt 0.412631453 0.409261347
vt 0.414245306 0.409261347
vt 0.412963717 0.409261347
vt 0.412631453 0.400242756
vt 0.412963717 0.400242756
vt 0.414245306 0.400242756
vt 0.414245306 0.400005424
vt 0.412963717 0.400005424
vt 0.412631453 0.400005424
vt 0.412631453 0.390796967
vt 0.412963717 0.390796967
vt 0.414245306 0.390796967
vt 0.412631453 0.390559636
vt 0.414245306 0.390559636
vt 0.412963717 0.390559636
vt 0.412631453 0.381541044
vt 0.412963717 0.381541044
vt 0.414245306 0.381541044
vt 0.412631453 0.38120878
vt 0.414245306 0.38120878
vt 0.412963717 0.38120878
vt 0.412631453 0.409546145
vt 0.412963717 0.418564737
vt 0.412631453 0.418564737
vt 0.412963717 0.409546145
vt 0.414245306 0.418564737
vt 0.414245306 0.409546145
vt 0.412631453 0.409261347
vt 0.414245306 0.409261347
vt 0.412963717 0.409261347
vt 0.412631453 0.400242756
vt 0.412963717 0.400242756
vt 0.414245306 0.400242756
vt 0.414245306 0.400005424
vt 0.412963717 0.400005424
vt 0.412631453 0.400005424
vt 0.412631453 0.390796967
vt 0.412963717 0.390796967
vt 0.414245306 0.390796967
vt 0.412631453 0.390559636
vt 0.414245306 0.390559636
vt 0.412963717 0.390559636
vt 0.412631453 0.381541044
vt 0.412963717 0.381541044
vt 0.414245306 0.381541044
vt 0.412631453 0.38120878
vt 0.414245306 0.38120878
vt 0.412963717 0.38120878
vt 0.407600028 0.395163865
vt 0.407600028 0.395068932
vt 0.408027224 0.395068932
vt 0.408027224 0.395163865
vt 0.407600028 0.400432621
vt 0.408027224 0.400432621
vt 0.407600028 0.400527553
vt 0.408027224 0.400527553
vt 0.407600028 0.405701377
vt 0.408027224 0.405701377
vt 0.407600028 0.405843776
vt 0.408027224 0.405843776
vt 0.407600028 0.411112532
vt 0.408027224 0.411112532
vt 0.407600028 0.411207465
vt 0.408027224 0.411207465
vt 0.407600028 0.416381288
vt 0.408027224 0.416381288
vn 0.554527142 -0.832165638 -0
vn 0.554527142 -0.832165638 -0
vn 0.401688343 0.913983578 0.057275602
vn 0.401688343 0.913983578 -0.057275602
vn 0.479080809 0.875287345 0.0659821376
vn 0.479080809 0.875287345 -0.0659821376
vn 0.31655663 -0.0456829997 0.947472935
vn 0.548734028 0.0162309731 -0.835839411
vn 0.463602316 0.0162309731 -0.885894716
vn 0.200467932 0.00849172648 0.979663462
vn 0.494559302 -0.0069867667 -0.869115805
vn 0.548734028 -0.0147260133 -0.835867281
vn 0.501713253 -0.865033995 -0
vn 0.393556364 -0.919300489 -0
vn 0.215946425 0.975897551 0.031481938
vn 0.215946425 0.975897551 -0.031481938
vn 0.393556364 -0.919300489 -0
vn 0.501713253 -0.865033995 -0
vn 0.215946425 0.00849172648 -0.976368287
vn 0.548734028 -0.0147260133 0.835867281
vn 0.494559302 -0.0147260133 0.869019126
vn 0.33977437 -0.0456829997 -0.93939685
vn 0.463602316 0.0162309731 0.885894716
vn 0.548734028 0.0162309731 0.835839411
vn 0.554527142 -0.832165638 -0
vn 0.479080809 0.875287345 0.0659821376
vn 0.401688343 0.913983578 0.057275602
vn 0.554527142 -0.832165638 -0
vn 0.554527142 -0.832165638 -0
vn 0.401688343 0.913983578 0.057275602
vn 0.401688343 0.913983578 -0.057275602
vn 0.479080809 0.875287345 0.0659821376
vn 0.479080809 0.875287345 -0.0659821376
vn 0.31655663 -0.0456829997 0.947472935
vn 0.548734028 0.0162309731 -0.835839411
vn 0.463602316 0.0162309731 -0.885894716
vn 0.200467932 0.00849172648 0.979663462
vn 0.494559302 -0.0069867667 -0.869115805
vn 0.548734028 -0.0147260133 -0.835867281
vn 0.501713253 -0.865033995 -0
vn 0.393556364 -0.919300489 -0
vn 0.215946425 0.975897551 0.031481938
vn 0.215946425 0.975897551 -0.031481938
vn 0.393556364 -0.919300489 -0
vn 0.501713253 -0.865033995 -0
vn 0.215946425 0.00849172648 -0.976368287
vn 0.548734028 -0.0147260133 0.835867281
vn 0.494559302 -0.0147260133 0.869019126
vn 0.33977437 -0.0456829997 -0.93939685
vn 0.463602316 0.0162309731 0.885894716
vn 0.548734028 0.0162309731 0.835839411
vn 0.554527142 -0.832165638 -0
vn 0.479080809 0.875287345 0.0659821376
vn 0.401688343 0.913983578 0.057275602
vn 0.554527142 -0.832165638 -0
vn 0.554527142 -0.832165638 -0
vn 0.401688343 0.913983578 0.057275602
vn 0.401688343 0.913983578 -0.057275602
vn 0.479080809 0.875287345 0.0659821376
vn 0.479080809 0.875287345 -0.0659821376
vn 0.31655663 -0.0456829997 0.947472935
vn 0.548734028 0.0162309731 -0.835839411
vn 0.463602316 0.0162309731 -0.885894716
vn 0.200467932 0.00849172648 0.979663462
vn 0.494559302 -0.0069867667 -0.869115805
vn 0.548734028 -0.0147260133 -0.835867281
vn 0.501713253 -0.865033995 -0
vn 0.393556364 -0.919300489 -0
vn 0.215946425 0.975897551 0.031481938
vn 0.215946425 0.975897551 -0.031481938
vn 0.393556364 -0.919300489 -0
vn 0.501713253 -0.865033995 -0
vn 0.215946425 0.00849172648 -0.976368287
vn 0.548734028 -0.0147260133 0.835867281
vn 0.494559302 -0.0147260133 0.869019126
vn 0.33977437 -0.0456829997 -0.93939685
vn 0.463602316 0.0162309731 0.885894716
vn 0.548734028 0.0162309731 0.835839411
vn 0.554527142 -0.832165638 -0
vn 0.479080809 0.875287345 0.0659821376
vn 0.401688343 0.913983578 0.057275602
vn 0.68030122 -0.0069867667 0.732899335
vn 0.773172179 -0.633865741 0.0204695813
vn 0.773172179 -0.633865741 0.0204695813
vn 0.517777042 -0.0069867667 0.855487066
vn 0.332035124 0.00849172648 -0.943228799
vn 0.33977437 0.937201318 -0.0787849453
vn 0.332035124 -0.0069867667 -0.943241147
vn 0.517777042 0.00075247989 0.855515265
vn 0.68030122 0.00849172648 0.732883442
vn 0.338840902 -0.940843687 -0
vn 0.772596367 0.634897514 -0
vn 0.773172179 0.627631454 0.0910139499
vn 0.338840902 -0.940843687 -0
vn 0.772596367 0.634897514 -0
vn 0.772596367 0.634897514 -0
vn 0.332035124 -0.0069867667 0.943241147
vn 0.68030122 0.00849172648 -0.732883442
vn 0.517777042 0.00075247989 -0.855515265
vn 0.33977437 0.00849172648 0.940468643
vn 0.510037795 -0.0069867667 -0.860123615
vn 0.68030122 -0.0069867667 -0.732899335
vn 0.773172179 -0.633865741 -0.0204695813
vn 0.773172179 -0.633865741 -0.0204695813
vn 0.33977437 0.937201318 0.0787849453
vn 0.33977437 0.937201318 -0.0787849453
vn 0.773172179 -0.633865741 0.0204695813
vn 0.773172179 -0.633865741 0.0204695813
vn 0.554527142 -0.832165638 -0
vn 0.554527142 -0.832165638 -0
vn 0.401688343 0.913983578 0.057275602
vn 0.401688343 0.913983578 -0.057275602
vn 0.479080809 0.875287345 0.0659821376
vn 0.479080809 0.875287345 -0.0659821376
vn 0.31655663 -0.0456829997 0.947472935
vn 0.548734028 0.0162309731 -0.835839411
vn 0.463602316 0.0162309731 -0.885894716
vn 0.200467932 0.00849172648 0.979663462
vn 0.494559302 -0.0069867667 -0.869115805
vn 0.548734028 -0.0147260133 -0.835867281
vn 0.501713253 -0.865033995 -0
vn 0.393556364 -0.919300489 -0
vn 0.215946425 0.975897551 0.031481938
vn 0.215946425 0.975897551 -0.031481938
vn 0.393556364 -0.919300489 -0
vn 0.501713253 -0.865033995 -0
vn 0.215946425 0.00849172648 -0.976368287
vn 0.548734028 -0.0147260133 0.835867281
vn 0.494559302 -0.0147260133 0.869019126
vn 0.33977437 -0.0456829997 -0.93939685
vn 0.463602316 0.0162309731 0.885894716
vn 0.548734028 0.0162309731 0.835839411
vn 0.554527142 -0.832165638 -0
vn 0.479080809 0.875287345 0.0659821376
vn 0.401688343 0.913983578 0.057275602
vn 0.554527142 -0.832165638 -0
vn 0.554527142 -0.832165638 -0
vn 0.401688343 0.913983578 0.057275602
vn 0.401688343 0.913983578 -0.057275602
vn 0.479080809 0.875287345 0.0659821376
vn 0.479080809 0.875287345 -0.0659821376
vn 0.31655663 -0.0456829997 0.947472935
vn 0.548734028 0.0162309731 -0.835839411
vn 0.463602316 0.0162309731 -0.885894716
vn 0.200467932 0.00849172648 0.979663462
vn 0.494559302 -0.0069867667 -0.869115805
vn 0.548734028 -0.0147260133 -0.835867281
vn 0.501713253 -0.865033995 -0
vn 0.393556364 -0.919300489 -0
vn 0.215946425 0.975897551 0.031481938
vn 0.215946425 0.975897551 -0.031481938
vn 0.393556364 -0.919300489 -0
vn 0.501713253 -0.865033995 -0
vn 0.215946425 0.00849172648 -0.976368287
vn 0.548734028 -0.0147260133 0.835867281
vn 0.494559302 -0.0147260133 0.869019126
vn 0.33977437 -0.0456829997 -0.93939685
vn 0.463602316 0.0162309731 0.885894716
vn 0.548734028 0.0162309731 0.835839411
vn 0.554527142 -0.832165638 -0
vn 0.479080809 0.875287345 0.0659821376
vn 0.401688343 0.913983578 0.057275602
vn 0.997610331 0.00075247989 -0.0690873512
vn 0.942813681 0.33332021 -0
vn 0.997610331 -0.0689007394 -0.00512995328
vn 0.943435604 0.00075247989 0.331554964
vn 0.997610331 0.00075247989 -0.0690873512
vn 0.943435604 0.00075247989 0.331554964
vn 0.997518895 0.0703992462 -0
vn 0.943285604 -0.331982332 -0
vn 0.997518895 0.0703992462 -0
vn 0.943285604 -0.331982332 -0
vn 0.997610331 0.00075247989 0.0690873512
vn 0.943435604 0.00075247989 -0.331554964
vn 0.997610331 0.00075247989 0.0690873512
vn 0.943435604 0.00075247989 -0.331554964
vn 0.997610331 -0.0689007394 0.00512995328
vn 0.942813681 0.33332021 -0
vn 0.997610331 -0.0689007394 -0.00512995328
vn 0.942813681 0.33332021 -0
vn 0.554527142 -0.832165638 -0
vn 0.401688343 0.913983578 -0.057275602
vn 0.554527142 -0.832165638 -0
vn 0.401688343 0.913983578 0.057275602
vn 0.479080809 0.875287345 -0.0659821376
vn 0.479080809 0.875287345 0.0659821376
vn 0.31655663 -0.0456829997 -0.947472935
vn 0.548734028 0.0162309731 0.835839411
vn 0.463602316 0.0162309731 0.885894716
vn 0.200467932 0.00849172648 -0.979663462
vn 0.494559302 -0.0069867667 0.869115805
vn 0.548734028 -0.0147260133 0.835867281
vn 0.501713253 -0.865033995 -0
vn 0.393556364 -0.919300489 -0
vn 0.215946425 0.975897551 -0.031481938
vn 0.215946425 0.975897551 0.031481938
vn 0.393556364 -0.919300489 -0
vn 0.501713253 -0.865033995 -0
vn 0.215946425 0.00849172648 0.976368287
vn 0.548734028 -0.0147260133 -0.835867281
vn 0.494559302 -0.0147260133 -0.869019126
vn 0.33977437 -0.0456829997 0.93939685
vn 0.463602316 0.0162309731 -0.885894716
vn 0.548734028 0.0162309731 -0.835839411
vn 0.554527142 -0.832165638 -0
vn 0.479080809 0.875287345 -0.0659821376
vn 0.401688343 0.913983578 -0.057275602
vn 0.554527142 -0.832165638 -0
vn 0.401688343 0.913983578 -0.057275602
vn 0.554527142 -0.832165638 -0
vn 0.401688343 0.913983578 0.057275602
vn 0.479080809 0.875287345 -0.0659821376
vn 0.479080809 0.875287345 0.0659821376
vn 0.31655663 -0.0456829997 -0.947472935
vn 0.548734028 0.0162309731 0.835839411
vn 0.463602316 0.0162309731 0.885894716
vn 0.200467932 0.00849172648 -0.979663462
vn 0.494559302 -0.0069867667 0.869115805
vn 0.548734028 -0.0147260133 0.835867281
vn 0.501713253 -0.865033995 -0
vn 0.393556364 -0.919300489 -0
vn 0.215946425 0.975897551 -0.031481938
vn 0.215946425 0.975897551 0.031481938
vn 0.393556364 -0.919300489 -0
vn 0.501713253 -0.865033995 -0
vn 0.215946425 0.00849172648 0.976368287
vn 0.548734028 -0.0147260133 -0.835867281
vn 0.494559302 -0.0147260133 -0.869019126
vn 0.33977437 -0.0456829997 0.93939685
vn 0.463602316 0.0162309731 -0.885894716
vn 0.548734028 0.0162309731 -0.835839411
vn 0.554527142 -0.832165638 -0
vn 0.479080809 0.875287345 -0.0659821376
vn 0.401688343 0.913983578 -0.057275602
vn 0.554527142 -0.832165638 -0
vn 0.401688343 0.913983578 -0.057275602
vn 0.554527142 -0.832165638 -0
vn 0.401688343 0.913983578 0.057275602
vn 0.479080809 0.875287345 -0.0659821376
vn 0.479080809 0.875287345 0.0659821376
vn 0.31655663 -0.0456829997 -0.947472935
vn 0.548734028 0.0162309731 0.835839411
vn 0.463602316 0.0162309731 0.885894716
vn 0.200467932 0.00849172648 -0.979663462
vn 0.494559302 -0.0069867667 0.869115805
vn 0.548734028 -0.0147260133 0.835867281
vn 0.501713253 -0.865033995 -0
vn 0.393556364 -0.919300489 -0
vn 0.215946425 0.975897551 -0.031481938
vn 0.215946425 0.975897551 0.031481938
vn 0.393556364 -0.919300489 -0
vn 0.501713253 -0.865033995 -0
vn 0.215946425 0.00849172648 0.976368287
vn 0.548734028 -0.0147260133 -0.835867281
vn 0.494559302 -0.0147260133 -0.869019126
vn 0.33977437 -0.0456829997 0.93939685
vn 0.463602316 0.0162309731 -0.885894716
vn 0.548734028 0.0162309731 -0.835839411
vn 0.554527142 -0.832165638 -0
vn 0.479080809 0.875287345 -0.0659821376
vn 0.401688343 0.913983578 -0.057275602
vn 0.68030122 -0.0069867667 -0.732899335
vn 0.773172179 -0.633865741 -0.0204695813
vn 0.773172179 -0.633865741 -0.0204695813
vn 0.517777042 -0.0069867667 -0.855487066
vn 0.332035124 0.00849172648 0.943228799
vn 0.33977437 0.937201318 0.0787849453
vn 0.332035124 -0.0069867667 0.943241147
vn 0.517777042 0.00075247989 -0.855515265
vn 0.68030122 0.00849172648 -0.732883442
vn 0.338840902 -0.940843687 -0
vn 0.772596367 0.634897514 -0
vn 0.773172179 0.627631454 -0.0910139499
vn 0.338840902 -0.940843687 -0
vn 0.772596367 0.634897514 -0
vn 0.772596367 0.634897514 -0
vn 0.332035124 -0.0069867667 -0.943241147
vn 0.68030122 0.00849172648 0.732883442
vn 0.517777042 0.00075247989 0.855515265
vn 0.33977437 0.00849172648 -0.940468643
vn 0.510037795 -0.0069867667 0.860123615
vn 0.68030122 -0.0069867667 0.732899335
vn 0.773172179 -0.633865741 0.0204695813
vn 0.773172179 -0.633865741 0.0204695813
vn 0.33977437 0.937201318 -0.0787849453
vn 0.33977437 0.937201318 0.0787849453
vn 0.773172179 -0.633865741 -0.0204695813
vn 0.773172179 -0.633865741 -0.0204695813
vn 0.554527142 -0.832165638 -0
vn 0.401688343 0.913983578 -0.057275602
vn 0.554527142 -0.832165638 -0
vn 0.401688343 0.913983578 0.057275602
vn 0.479080809 0.875287345 -0.0659821376
vn 0.479080809 0.875287345 0.0659821376
vn 0.31655663 -0.0456829997 -0.947472935
vn 0.548734028 0.0162309731 0.835839411
vn 0.463602316 0.0162309731 0.885894716
vn 0.200467932 0.00849172648 -0.979663462
vn 0.494559302 -0.0069867667 0.869115805
vn 0.548734028 -0.0147260133 0.835867281
vn 0.501713253 -0.865033995 -0
vn 0.393556364 -0.919300489 -0
vn 0.215946425 0.975897551 -0.031481938
vn 0.215946425 0.975897551 0.031481938
vn 0.393556364 -0.919300489 -0
vn 0.501713253 -0.865033995 -0
vn 0.215946425 0.00849172648 0.976368287
vn 0.548734028 -0.0147260133 -0.835867281
vn 0.494559302 -0.0147260133 -0.869019126
vn 0.33977437 -0.0456829997 0.93939685
vn 0.463602316 0.0162309731 -0.885894716
vn 0.548734028 0.0162309731 -0.835839411
vn 0.554527142 -0.832165638 -0
vn 0.479080809 0.875287345 -0.0659821376
vn 0.401688343 0.913983578 -0.057275602
vn 0.554527142 -0.832165638 -0
vn 0.401688343 0.913983578 -0.057275602
vn 0.554527142 -0.832165638 -0
vn 0.401688343 0.913983578 0.057275602
vn 0.479080809 0.875287345 -0.0659821376
vn 0.479080809 0.875287345 0.0659821376
vn 0.31655663 -0.0456829997 -0.947472935
vn 0.548734028 0.0162309731 0.835839411
vn 0.463602316 0.0162309731 0.885894716
vn 0.200467932 0.00849172648 -0.979663462
vn 0.494559302 -0.0069867667 0.869115805
vn 0.548734028 -0.0147260133 0.835867281
vn 0.501713253 -0.865033995 -0
vn 0.393556364 -0.919300489 -0
vn 0.215946425 0.975897551 -0.031481938
vn 0.215946425 0.975897551 0.031481938
vn 0.393556364 -0.919300489 -0
vn 0.501713253 -0.865033995 -0
vn 0.215946425 0.00849172648 0.976368287
vn 0.548734028 -0.0147260133 -0.835867281
vn 0.494559302 -0.0147260133 -0.869019126
vn 0.33977437 -0.0456829997 0.93939685
vn 0.463602316 0.0162309731 -0.885894716
vn 0.548734028 0.0162309731 -0.835839411
vn 0.554527142 -0.832165638 -0
vn 0.479080809 0.875287345 -0.0659821376
vn 0.401688343 0.913983578 -0.057275602
vn 0.997610331 0.00075247989 0.0690873512
vn 0.997610331 -0.0689007394 0.00512995328
vn 0.942813681 0.33332021 -0
vn 0.943435604 0.00075247989 -0.331554964
vn 0.997610331 0.00075247989 0.0690873512
vn 0.943435604 0.00075247989 -0.331554964
vn 0.997518895 0.0703992462 -0
vn 0.943285604 -0.331982332 -0
vn 0.997518895 0.0703992462 -0
vn 0.943285604 -0.331982332 -0
vn 0.997610331 0.00075247989 -0.0690873512
vn 0.943435604 0.00075247989 0.331554964
vn 0.997610331 0.00075247989 -0.0690873512
vn 0.943435604 0.00075247989 0.331554964
vn 0.997610331 -0.0689007394 -0.00512995328
vn 0.942813681 0.33332021 -0
vn 0.997610331 -0.0689007394 0.00512995328
vn 0.942813681 0.33332021 -0
g building_02_02_0
f 3/3/3 2/2/2 1/1/1
f 4/4/4 3/3/3 1/1/1
f 3/3/3 4/4/4 5/5/5
f 4/4/4 6/6/6 5/5/5
f 4/4/4 1/1/1 7/7/7
f 6/6/6 4/4/4 8/8/8
f 9/9/9 4/4/4 7/7/7
f 4/4/4 9/9/9 8/8/8
f 7/7/7 10/10/10 9/9/9
f 9/9/9 11/11/11 8/8/8
f 10/10/10 11/11/11 9/9/9
f 11/11/11 12/12/12 8/8/8
f 12/12/12 11/11/11 13/13/13
f 11/11/11 10/10/10 14/14/14
f 11/11/11 14/14/14 13/13/13
f 10/10/10 15/15/15 14/14/14
f 15/15/15 16/16/16 14/14/14
f 14/14/14 17/17/17 13/13/13
f 16/16/16 17/17/17 14/14/14
f 17/17/17 18/18/18 13/13/13
f 17/17/17 16/16/16 19/19/19
f 18/18/18 17/17/17 20/20/20
f 21/21/21 17/17/17 19/19/19
f 17/17/17 21/21/21 20/20/20
f 21/21/21 19/19/19 22/22/22
f 21/21/21 23/23/23 20/20/20
f 23/23/23 21/21/21 22/22/22
f 23/23/23 24/24/24 20/20/20
f 23/23/23 22/22/22 25/25/25
f 24/24/24 23/23/23 26/26/26
f 27/27/27 23/23/23 25/25/25
f 23/23/23 27/27/27 26/26/26
f 30/30/30 29/29/29 28/28/28
f 31/31/31 30/30/30 28/28/28
f 30/30/30 31/31/31 32/32/32
f 31/31/31 33/33/33 32/32/32
f 31/31/31 28/28/28 34/34/34
f 33/33/33 31/31/31 35/35/35
f 36/36/36 31/31/31 34/34/34
f 31/31/31 36/36/36 35/35/35
f 34/34/34 37/37/37 36/36/36
f 36/36/36 38/38/38 35/35/35
f 37/37/37 38/38/38 36/36/36
f 38/38/38 39/39/39 35/35/35
f 39/39/39 38/38/38 40/40/40
f 38/38/38 37/37/37 41/41/41
f 38/38/38 41/41/41 40/40/40
f 37/37/37 42/42/42 41/41/41
f 42/42/42 43/43/43 41/41/41
f 41/41/41 44/44/44 40/40/40
f 43/43/43 44/44/44 41/41/41
f 44/44/44 45/45/45 40/40/40
f 44/44/44 43/43/43 46/46/46
f 45/45/45 44/44/44 47/47/47
f 48/48/48 44/44/44 46/46/46
f 44/44/44 48/48/48 47/47/47
f 48/48/48 46/46/46 49/49/49
f 48/48/48 50/50/50 47/47/47
f 50/50/50 48/48/48 49/49/49
f 50/50/50 51/51/51 47/47/47
f 50/50/50 49/49/49 52/52/52
f 51/51/51 50/50/50 53/53/53
f 54/54/54 50/50/50 52/52/52
f 50/50/50 54/54/54 53/53/53
f 57/57/57 56/56/56 55/55/55
f 58/58/58 57/57/57 55/55/55
f 57/57/57 58/58/58 59/59/59
f 58/58/58 60/60/60 59/59/59
f 58/58/58 55/55/55 61/61/61
f 60/60/60 58/58/58 62/62/62
f 63/63/63 58/58/58 61/61/61
f 58/58/58 63/63/63 62/62/62
f 61/61/61 64/64/64 63/63/63
f 63/63/63 65/65/65 62/62/62
f 64/64/64 65/65/65 63/63/63
f 65/65/65 66/66/66 62/62/62
f 66/66/66 65/65/65 67/67/67
f 65/65/65 64/64/64 68/68/68
f 65/65/65 68/68/68 67/67/67
f 64/64/64 69/69/69 68/68/68
f 69/69/69 70/70/70 68/68/68
f 68/68/68 71/71/71 67/67/67
f 70/70/70 71/71/71 68/68/68
f 71/71/71 72/72/72 67/67/67
f 71/71/71 70/70/70 73/73/73
f 72/72/72 71/71/71 74/74/74
f 75/75/75 71/71/71 73/73/73
f 71/71/71 75/75/75 74/74/74
f 75/75/75 73/73/73 76/76/76
f 75/75/75 77/77/77 74/74/74
f 77/77/77 75/75/75 76/76/76
f 77/77/77 78/78/78 74/74/74
f 77/77/77 76/76/76 79/79/79
f 78/78/78 77/77/77 80/80/80
f 81/81/81 77/77/77 79/79/79
f 77/77/77 81/81/81 80/80/80
f 84/84/84 83/83/83 82/82/82
f 83/83/83 85/85/85 82/82/82
f 85/85/85 83/83/83 86/86/86
f 83/83/83 87/87/87 86/86/86
f 85/85/85 86/86/86 88/88/88
f 85/85/85 89/89/89 82/82/82
f 89/89/89 85/85/85 88/88/88
f 89/89/89 90/90/90 82/82/82
f 89/89/89 88/88/88 91/91/91
f 90/90/90 89/89/89 92/92/92
f 93/93/93 89/89/89 91/91/91
f 89/89/89 93/93/93 92/92/92
f 93/93/93 91/91/91 94/94/94
f 93/93/93 95/95/95 92/92/92
f 95/95/95 93/93/93 94/94/94
f 95/95/95 96/96/96 92/92/92
f 95/95/95 94/94/94 97/97/97
f 96/96/96 95/95/95 98/98/98
f 99/99/99 95/95/95 97/97/97
f 95/95/95 99/99/99 98/98/98
f 97/97/97 100/100/100 99/99/99
f 99/99/99 101/101/101 98/98/98
f 100/100/100 101/101/101 99/99/99
f 101/101/101 102/102/102 98/98/98
f 102/102/102 101/101/101 103/103/103
f 101/101/101 100/100/100 104/104/104
f 101/101/101 104/104/104 103/103/103
f 100/100/100 105/105/105 104/104/104
f 105/105/105 106/106/106 104/104/104
f 106/106/106 107/107/107 104/104/104
f 104/104/104 107/107/107 103/103/103
f 107/107/107 108/108/108 103/103/103
f 111/111/111 110/110/110 109/109/109
f 112/112/112 111/111/111 109/109/109
f 111/111/111 112/112/112 113/113/113
f 112/112/112 114/114/114 113/113/113
f 112/112/112 109/109/109 115/115/115
f 114/114/114 112/112/112 116/116/116
f 117/117/117 112/112/112 115/115/115
f 112/112/112 117/117/117 116/116/116
f 115/115/115 118/118/118 117/117/117
f 117/117/117 119/119/119 116/116/116
f 118/118/118 119/119/119 117/117/117
f 119/119/119 120/120/120 116/116/116
f 120/120/120 119/119/119 121/121/121
f 119/119/119 118/118/118 122/122/122
f 119/119/119 122/122/122 121/121/121
f 118/118/118 123/123/123 122/122/122
f 123/123/123 124/124/124 122/122/122
f 122/122/122 125/125/125 121/121/121
f 124/124/124 125/125/125 122/122/122
f 125/125/125 126/126/126 121/121/121
f 125/125/125 124/124/124 127/127/127
f 126/126/126 125/125/125 128/128/128
f 129/129/129 125/125/125 127/127/127
f 125/125/125 129/129/129 128/128/128
f 129/129/129 127/127/127 130/130/130
f 129/129/129 131/131/131 128/128/128
f 131/131/131 129/129/129 130/130/130
f 131/131/131 132/132/132 128/128/128
f 131/131/131 130/130/130 133/133/133
f 132/132/132 131/131/131 134/134/134
f 135/135/135 131/131/131 133/133/133
f 131/131/131 135/135/135 134/134/134
f 138/138/138 137/137/137 136/136/136
f 139/139/139 138/138/138 136/136/136
f 138/138/138 139/139/139 140/140/140
f 139/139/139 141/141/141 140/140/140
f 139/139/139 136/136/136 142/142/142
f 141/141/141 139/139/139 143/143/143
f 144/144/144 139/139/139 142/142/142
f 139/139/139 144/144/144 143/143/143
f 142/142/142 145/145/145 144/144/144
f 144/144/144 146/146/146 143/143/143
f 145/145/145 146/146/146 144/144/144
f 146/146/146 147/147/147 143/143/143
f 147/147/147 146/146/146 148/148/148
f 146/146/146 145/145/145 149/149/149
f 146/146/146 149/149/149 148/148/148
f 145/145/145 150/150/150 149/149/149
f 150/150/150 151/151/151 149/149/149
f 149/149/149 152/152/152 148/148/148
f 151/151/151 152/152/152 149/149/149
f 152/152/152 153/153/153 148/148/148
f 152/152/152 151/151/151 154/154/154
f 153/153/153 152/152/152 155/155/155
f 156/156/156 152/152/152 154/154/154
f 152/152/152 156/156/156 155/155/155
f 156/156/156 154/154/154 157/157/157
f 156/156/156 158/158/158 155/155/155
f 158/158/158 156/156/156 157/157/157
f 158/158/158 159/159/159 155/155/155
f 158/158/158 157/157/157 160/160/160
f 159/159/159 158/158/158 161/161/161
f 162/162/162 158/158/158 160/160/160
f 158/158/158 162/162/162 161/161/161
f 165/165/165 164/164/164 163/163/163
f 164/164/164 166/166/166 163/163/163
f 163/163/163 166/166/166 167/167/167
f 166/166/166 168/168/168 167/167/167
f 169/169/169 167/167/167 168/168/168
f 170/170/170 169/169/169 168/168/168
f 169/169/169 170/170/170 171/171/171
f 170/170/170 172/172/172 171/171/171
f 173/173/173 171/171/171 172/172/172
f 174/174/174 173/173/173 172/172/172
f 173/173/173 174/174/174 175/175/175
f 174/174/174 176/176/176 175/175/175
f 177/177/177 175/175/175 176/176/176
f 178/178/178 177/177/177 176/176/176
f 177/177/177 178/178/178 179/179/179
f 178/178/178 180/180/180 179/179/179
f 183/183/183 182/182/182 181/181/181
f 182/182/182 184/184/184 181/181/181
f 184/184/184 182/182/182 185/185/185
f 186/186/186 184/184/184 185/185/185
f 181/181/181 184/184/184 187/187/187
f 184/184/184 186/186/186 188/188/188
f 184/184/184 189/189/189 187/187/187
f 189/189/189 184/184/184 188/188/188
f 190/190/190 187/187/187 189/189/189
f 191/191/191 189/189/189 188/188/188
f 191/191/191 190/190/190 189/189/189
f 192/192/192 191/191/191 188/188/188
f 191/191/191 192/192/192 193/193/193
f 190/190/190 191/191/191 194/194/194
f 194/194/194 191/191/191 193/193/193
f 195/195/195 190/190/190 194/194/194
f 196/196/196 195/195/195 194/194/194
f 197/197/197 194/194/194 193/193/193
f 197/197/197 196/196/196 194/194/194
f 198/198/198 197/197/197 193/193/193
f 196/196/196 197/197/197 199/199/199
f 197/197/197 198/198/198 200/200/200
f 197/197/197 201/201/201 199/199/199
f 201/201/201 197/197/197 200/200/200
f 199/199/199 201/201/201 202/202/202
f 203/203/203 201/201/201 200/200/200
f 201/201/201 203/203/203 202/202/202
f 204/204/204 203/203/203 200/200/200
f 202/202/202 203/203/203 205/205/205
f 203/203/203 204/204/204 206/206/206
f 203/203/203 207/207/207 205/205/205
f 207/207/207 203/203/203 206/206/206
f 210/210/210 209/209/209 208/208/208
f 209/209/209 211/211/211 208/208/208
f 211/211/211 209/209/209 212/212/212
f 213/213/213 211/211/211 212/212/212
f 208/208/208 211/211/211 214/214/214
f 211/211/211 213/213/213 215/215/215
f 211/211/211 216/216/216 214/214/214
f 216/216/216 211/211/211 215/215/215
f 217/217/217 214/214/214 216/216/216
f 218/218/218 216/216/216 215/215/215
f 218/218/218 217/217/217 216/216/216
f 219/219/219 218/218/218 215/215/215
f 218/218/218 219/219/219 220/220/220
f 217/217/217 218/218/218 221/221/221
f 221/221/221 218/218/218 220/220/220
f 222/222/222 217/217/217 221/221/221
f 223/223/223 222/222/222 221/221/221
f 224/224/224 221/221/221 220/220/220
f 224/224/224 223/223/223 221/221/221
f 225/225/225 224/224/224 220/220/220
f 223/223/223 224/224/224 226/226/226
f 224/224/224 225/225/225 227/227/227
f 224/224/224 228/228/228 226/226/226
f 228/228/228 224/224/224 227/227/227
f 226/226/226 228/228/228 229/229/229
f 230/230/230 228/228/228 227/227/227
f 228/228/228 230/230/230 229/229/229
f 231/231/231 230/230/230 227/227/227
f 229/229/229 230/230/230 232/232/232
f 230/230/230 231/231/231 233/233/233
f 230/230/230 234/234/234 232/232/232
f 234/234/234 230/230/230 233/233/233
f 237/237/237 236/236/236 235/235/235
f 236/236/236 238/238/238 235/235/235
f 238/238/238 236/236/236 239/239/239
f 240/240/240 238/238/238 239/239/239
f 235/235/235 238/238/238 241/241/241
f 238/238/238 240/240/240 242/242/242
f 238/238/238 243/243/243 241/241/241
f 243/243/243 238/238/238 242/242/242
f 244/244/244 241/241/241 243/243/243
f 245/245/245 243/243/243 242/242/242
f 245/245/245 244/244/244 243/243/243
f 246/246/246 245/245/245 242/242/242
f 245/245/245 246/246/246 247/247/247
f 244/244/244 245/245/245 248/248/248
f 248/248/248 245/245/245 247/247/247
f 249/249/249 244/244/244 248/248/248
f 250/250/250 249/249/249 248/248/248
f 251/251/251 248/248/248 247/247/247
f 251/251/251 250/250/250 248/248/248
f 252/252/252 251/251/251 247/247/247
f 250/250/250 251/251/251 253/253/253
f 251/251/251 252/252/252 254/254/254
f 251/251/251 255/255/255 253/253/253
f 255/255/255 251/251/251 254/254/254
f 253/253/253 255/255/255 256/256/256
f 257/257/257 255/255/255 254/254/254
f 255/255/255 257/257/257 256/256/256
f 258/258/258 257/257/257 254/254/254
f 256/256/256 257/257/257 259/259/259
f 257/257/257 258/258/258 260/260/260
f 257/257/257 261/261/261 259/259/259
f 261/261/261 257/257/257 260/260/260
f 264/264/264 263/263/263 262/262/262
f 265/265/265 264/264/264 262/262/262
f 264/264/264 265/265/265 266/266/266
f 267/267/267 264/264/264 266/266/266
f 266/266/266 265/265/265 268/268/268
f 269/269/269 265/265/265 262/262/262
f 265/265/265 269/269/269 268/268/268
f 270/270/270 269/269/269 262/262/262
f 268/268/268 269/269/269 271/271/271
f 269/269/269 270/270/270 272/272/272
f 269/269/269 273/273/273 271/271/271
f 273/273/273 269/269/269 272/272/272
f 271/271/271 273/273/273 274/274/274
f 275/275/275 273/273/273 272/272/272
f 273/273/273 275/275/275 274/274/274
f 276/276/276 275/275/275 272/272/272
f 274/274/274 275/275/275 277/277/277
f 275/275/275 276/276/276 278/278/278
f 275/275/275 279/279/279 277/277/277
f 279/279/279 275/275/275 278/278/278
f 280/280/280 277/277/277 279/279/279
f 281/281/281 279/279/279 278/278/278
f 281/281/281 280/280/280 279/279/279
f 282/282/282 281/281/281 278/278/278
f 281/281/281 282/282/282 283/283/283
f 280/280/280 281/281/281 284/284/284
f 284/284/284 281/281/281 283/283/283
f 285/285/285 280/280/280 284/284/284
f 286/286/286 285/285/285 284/284/284
f 287/287/287 286/286/286 284/284/284
f 287/287/287 284/284/284 283/283/283
f 288/288/288 287/287/287 283/283/283
f 291/291/291 290/290/290 289/289/289
f 290/290/290 292/292/292 289/289/289
f 292/292/292 290/290/290 293/293/293
f 294/294/294 292/292/292 293/293/293
f 289/289/289 292/292/292 295/295/295
f 292/292/292 294/294/294 296/296/296
f 292/292/292 297/297/297 295/295/295
f 297/297/297 292/292/292 296/296/296
f 298/298/298 295/295/295 297/297/297
f 299/299/299 297/297/297 296/296/296
f 299/299/299 298/298/298 297/297/297
f 300/300/300 299/299/299 296/296/296
f 299/299/299 300/300/300 301/301/301
f 298/298/298 299/299/299 302/302/302
f 302/302/302 299/299/299 301/301/301
f 303/303/303 298/298/298 302/302/302
f 304/304/304 303/303/303 302/302/302
f 305/305/305 302/302/302 301/301/301
f 305/305/305 304/304/304 302/302/302
f 306/306/306 305/305/305 301/301/301
f 304/304/304 305/305/305 307/307/307
f 305/305/305 306/306/306 308/308/308
f 305/305/305 309/309/309 307/307/307
f 309/309/309 305/305/305 308/308/308
f 307/307/307 309/309/309 310/310/310
f 311/311/311 309/309/309 308/308/308
f 309/309/309 311/311/311 310/310/310
f 312/312/312 311/311/311 308/308/308
f 310/310/310 311/311/311 313/313/313
f 311/311/311 312/312/312 314/314/314
f 311/311/311 315/315/315 313/313/313
f 315/315/315 311/311/311 314/314/314
f 318/318/318 317/317/317 316/316/316
f 317/317/317 319/319/319 316/316/316
f 319/319/319 317/317/317 320/320/320
f 321/321/321 319/319/319 320/320/320
f 316/316/316 319/319/319 322/322/322
f 319/319/319 321/321/321 323/323/323
f 319/319/319 324/324/324 322/322/322
f 324/324/324 319/319/319 323/323/323
f 325/325/325 322/322/322 324/324/324
f 326/326/326 324/324/324 323/323/323
f 326/326/326 325/325/325 324/324/324
f 327/327/327 326/326/326 323/323/323
f 326/326/326 327/327/327 328/328/328
f 325/325/325 326/326/326 329/329/329
f 329/329/329 326/326/326 328/328/328
f 330/330/330 325/325/325 329/329/329
f 331/331/331 330/330/330 329/329/329
f 332/332/332 329/329/329 328/328/328
f 332/332/332 331/331/331 329/329/329
f 333/333/333 332/332/332 328/328/328
f 331/331/331 332/332/332 334/334/334
f 332/332/332 333/333/333 335/335/335
f 332/332/332 336/336/336 334/334/334
f 336/336/336 332/332/332 335/335/335
f 334/334/334 336/336/336 337/337/337
f 338/338/338 336/336/336 335/335/335
f 336/336/336 338/338/338 337/337/337
f 339/339/339 338/338/338 335/335/335
f 337/337/337 338/338/338 340/340/340
f 338/338/338 339/339/339 341/341/341
f 338/338/338 342/342/342 340/340/340
f 342/342/342 338/338/338 341/341/341
f 345/345/345 344/344/344 343/343/343
f 346/346/346 345/345/345 343/343/343
f 346/346/346 343/343/343 347/347/347
f 348/348/348 346/346/346 347/347/347
f 347/347/347 349/349/349 348/348/348
f 349/349/349 350/350/350 348/348/348
f 350/350/350 349/349/349 351/351/351
f 352/352/352 350/350/350 351/351/351
f 351/351/351 353/353/353 352/352/352
f 353/353/353 354/354/354 352/352/352
f 354/354/354 353/353/353 355/355/355
f 356/356/356 354/354/354 355/355/355
f 355/355/355 357/357/357 356/356/356
f 357/357/357 358/358/358 356/356/356
f 358/358/358 357/357/357 359/359/359
f 360/360/360 358/358/358 359/359/359
