g building_02_09
v -1.46511515 -2.89314024E-05 1.89601946
v 0.717354123 -2.89314024E-05 1.09456175
v 0.717354123 -2.89314024E-05 1.89601946
v -1.46511515 -2.89314024E-05 1.01951369
v 0.717354123 -2.89314024E-05 -1.14328223
v -1.46511515 -2.89314024E-05 -1.06829204
v -1.46511515 -2.89314024E-05 -1.89601946
v 0.717354123 -2.89314024E-05 -1.89601946
v 1.46511515 -2.89314024E-05 -0.456450736
v 1.46511515 -2.89314024E-05 0.407730255
vt 0.594596564 0.767845809
vt 0.154752576 0.606544788
vt 0.154752576 0.767845809
vt 0.594596564 0.591609508
vt 0.154752576 0.15549934
vt 0.594596564 0.170434619
vt 0.594596564 0.00390625
vt 0.154752576 0.00390625
vt 0.00390625 0.293650677
vt 0.00390625 0.467646686
vn -0.0018889772 0.999998216 -0
vn -0.0018889772 0.999998216 -0
vn 0.034606535 0.999401014 -0
vn -0.0018889772 0.999998216 -0
vn -0.0018889772 0.999998216 -0
vn -0.0018889772 0.999998216 -0
vn -0.0018889772 0.999998216 -0
vn 0.034606535 0.999401014 -0
vn -0.0018889772 0.999998216 -0
vn -0.0018889772 0.999998216 -0
g building_02_09_0
f 3/3/3 2/2/2 1/1/1
f 2/2/2 4/4/4 1/1/1
f 5/5/5 4/4/4 2/2/2
f 5/5/5 6/6/6 4/4/4
f 7/7/7 6/6/6 5/5/5
f 5/5/5 8/8/8 7/7/7
f 9/9/9 5/5/5 2/2/2
f 2/2/2 10/10/10 9/9/9
