g Cylinder001
v 0.459499836 -0.459498674 0
v 0.432251602 -0.288820446 0
v 0.540314496 -0.361025542 0
v 0.367599934 -0.367598951 0
v 0.361026913 -0.540313542 0
v 0.288821608 -0.432250887 0
v 0.336962759 -0.336961865 0
v 0.248679876 -0.600364387 0
v 0.264750153 -0.396225512 0
v 0.198943973 -0.480291575 0
v 0.126776218 -0.637343645 0
v 0.101421036 -0.50987494 0
v 6.27475345E-07 -0.649830103 0
v 0.182363242 -0.440262258 0
v 5.63015476E-07 -0.519864082 0
v -0.126774997 -0.637343884 0
v 0.0929682553 -0.467380047 0
v -0.101419933 -0.509875119 0
v -0.248678714 -0.600364923 0
v -0.1989429 -0.480291963 0
v -0.36102587 -0.540314257 0
v -0.288820654 -0.432251424 0
v -0.459498972 -0.459499538 0
v -0.182362229 -0.440262586 0
v 0.240134284 -0.359385341 0
v 0.165407538 -0.399327695 0
v -0.3675991 -0.367599636 0
v -0.540313721 -0.361026555 0
v -0.264749229 -0.396225929 0
v -0.336962014 -0.336962491 0
v -0.1654066 -0.399327993 0
v -0.432250977 -0.28882128 0
v -0.336962014 -0.336962491 0
v -0.600364566 -0.248679504 0
v -0.396225512 -0.264749855 0
v -0.480291575 -0.19894363 0
v -0.637343764 -0.126775831 0
v -0.50987488 -0.101420678 0
v -0.649830103 -2.11741536E-07 0
v -0.519864023 -1.90567363E-07 0
v -0.637343824 0.126775399 0
v -0.509875 0.101420306 0
v -0.600364804 0.248679101 0
v -0.480291724 0.198943242 0
v -0.540313959 0.361026227 0
v -0.467380047 0.0929675475 0
v -0.432251126 0.288820952 0
v -0.45949924 0.45949924 0
v -0.367599338 0.367599368 0
v -0.361026227 0.540313959 0
v -0.440262377 0.182362556 0
v -0.288820922 0.432251155 0
v -0.248679101 0.600364745 0
v -0.336962193 0.336962193 0
v -0.198943213 0.480291784 0
v -0.264749497 0.396225721 0
v -0.126775488 0.637343824 0
v -0.305632174 0.305632234 0
v -0.240133643 0.35938552 0
v -0.101420335 0.509875059 0
v 4.90608087E-08 0.649830103 0
v 1.00283813E-07 0.519864023 0
v -0.0929675549 0.467380136 0
v 0.126775578 0.637343764 0
v 1.14996354E-07 0.476536542 0
v 0.101420514 0.50987494 0
v 0.248679191 0.600364685 0
v 0.0929677635 0.467380017 0
v 1.29626059E-07 0.43222931 0
v 0.198943421 0.480291784 0
v 0.0929677635 0.467380017 0
v 0.361026227 0.540313959 0
v 0.18236275 0.440262437 0
v 0.288821012 0.432251155 0
v 0.45949924 0.45949924 0
v 0.264749587 0.396225691 0
v 0.165407076 0.399327844 0
v 0.240133792 0.35938552 0
v 0.14966777 0.361329645 0
v 0.367599487 0.367599398 0
v 0.540313959 0.361026257 0
v 0.264749587 0.396225691 0
v 0.432251275 0.288821012 0
v 0.600364685 0.248679206 0
v 0.336962342 0.336962283 0
v 0.240133792 0.35938552 0
v 0.305632383 0.305632293 0
v 0.480291814 0.198943347 0
v 0.637343764 0.126775563 0
v 0.39622584 0.264749587 0
v 0.359385669 0.240133762 0
v 0.440262467 0.182362646 0
v 0.509875059 0.101420417 0
v 0.649830103 0 0
v 0.519864082 -2.11741451E-08 0
v 0.637343943 -0.126774579 0
v 0.509875238 -0.101419687 0
v 0.600365102 -0.248678342 0
v 0.476536661 -2.42634943E-08 0
v 0.480292112 -0.198942676 0
v 0.540314496 -0.361025542 0
v 0.432251602 -0.288820446 0
v 0.467380375 -0.0929669961 0
v 0.4322294 -2.72668395E-08 0
v 0.423924387 -0.084323138 0
v 0.440262735 -0.182362035 0
v 0.480292112 -0.198942676 0
v 0.396226138 -0.26474905 0
v 0.383585781 -0.0762993619 0
v 0.391100526 -3.08910231E-08 0
v 0.4322294 -2.72668395E-08 0
v 0.356868893 -3.39789992E-08 0
v 0.350011885 -0.0696211457 0
v 0.350011736 0.0696216077 0
v 0.383585602 0.076299876 0
v 0.423924208 0.0843237266 0
v 0.476536661 -2.42634943E-08 0
v 0.383585602 0.076299876 0
v 0.467380136 0.0929676443 0
v 0.399327874 0.165406972 0
v 0.440262467 0.182362646 0
v 0.509875059 0.101420417 0
v 0.480291814 0.198943347 0
v 0.329703867 0.136567742 0
v 0.361329764 0.149667636 0
v 0.423924208 0.0843237266 0
v 0.295541286 0.122417115 0
v 0.313744932 0.0624076724 0
v 0.356868893 -3.39789992E-08 0
v 0.319891572 -3.80192553E-08 0
v 0.260854632 0.108049437 0
v 0.276921809 0.0550830923 0
v 0.227426887 0.0942031965 0
v 0.241435081 0.0480243452 0
v 0.265980154 0.177722141 0
v 0.29672569 0.198265687 0
v 0.234763026 0.156863496 0
v 0.260854632 0.108049437 0
v 0.199649543 0.199649349 0
v 0.226197541 0.226197347 0
v 0.227426887 0.0942031965 0
v 0.204678833 0.136761859 0
v 0.234763026 0.156863496 0
v 0.361329764 0.149667636 0
v 0.329703867 0.136567742 0
v 0.325188249 0.217283741 0
v 0.399327874 0.165406972 0
v 0.325188249 0.217283741 0
v 0.359385669 0.240133762 0
v 0.39622584 0.264749587 0
v 0.276549876 0.276549757 0
v 0.21728383 0.325188071 0
v 0.13656792 0.329703748 0
v 0.198265776 0.296725512 0
v 0.276549876 0.276549757 0
v 0.252344459 0.25234431 0
v 0.069621779 0.350011587 0
v 0.076300025 0.383585453 0
v 0.0624078698 0.313744724 0
v 0.165407076 0.399327844 0
v 0.0843238682 0.423924059 0
v 0.122417293 0.295541137 0
v 0.0550833121 0.2769216 0
v 0.108049639 0.260854453 0
v 0.18236275 0.440262437 0
v 0.0843238682 0.423924059 0
v 1.44097967E-07 0.391100407 0
v 0.076300025 0.383585453 0
v 1.5637076E-07 0.356868774 0
v 0.069621779 0.350011587 0
v 1.69502925E-07 0.319891363 0
v 0.0624078698 0.313744724 0
v 1.82596622E-07 0.282346845 0
v 0.0550833121 0.2769216 0
v -0.0624075457 0.313744754 0
v -0.069621481 0.350011677 0
v -0.0762997493 0.383585542 0
v -0.0843236148 0.423924178 0
v 1.14996354E-07 0.476536542 0
v -0.0929675549 0.467380136 0
v -0.165406853 0.399327844 0
v -0.182362512 0.440262437 0
v -0.149667487 0.361329645 0
v -0.0762997493 0.383585542 0
v -0.136567578 0.329703748 0
v -0.069621481 0.350011677 0
v -0.240133643 0.35938552 0
v -0.264749497 0.396225721 0
v -0.198943213 0.480291784 0
v -0.288820922 0.432251155 0
v -0.217283621 0.3251881 0
v -0.149667487 0.361329645 0
v -0.276549637 0.276549727 0
v -0.198265553 0.296725541 0
v -0.136567578 0.329703748 0
v -0.177722007 0.265979975 0
v -0.252344221 0.25234431 0
v -0.122416951 0.295541137 0
v -0.0624075457 0.313744754 0
v -0.276549637 0.276549727 0
v -0.108049259 0.260854453 0
v -0.0550829545 0.27692163 0
v -0.156863362 0.234762818 0
v -0.177722007 0.265979975 0
v -0.136761725 0.20467864 0
v -0.0942030102 0.227426708 0
v -0.19964923 0.199649349 0
v -0.226197243 0.226197347 0
v -0.198265553 0.296725541 0
v -0.265979826 0.177722082 0
v -0.296725452 0.198265627 0
v -0.325188011 0.217283696 0
v -0.305632174 0.305632234 0
v -0.359385431 0.240133688 0
v -0.361329615 0.149667531 0
v -0.399327755 0.165406898 0
v -0.156863362 0.234762818 0
v -0.174064726 0.174064845 0
v -0.136761725 0.20467864 0
v -0.336962193 0.336962193 0
v -0.359385431 0.240133688 0
v -0.396225661 0.264749497 0
v -0.367599338 0.367599368 0
v -0.432251126 0.288820952 0
v -0.325188011 0.217283696 0
v -0.329703718 0.136567682 0
v -0.296725452 0.198265627 0
v -0.295541018 0.122417048 0
v -0.265979826 0.177722082 0
v -0.265979826 0.177722082 0
v -0.260854363 0.108049378 0
v -0.234762684 0.156863451 0
v -0.226197243 0.226197347 0
v -0.227426603 0.0942031443 0
v -0.204678476 0.136761829 0
v -0.19964923 0.199649349 0
v -0.204678476 0.136761829 0
v -0.174064726 0.174064845 0
v 0.0545052215 -0.022576673 0
v 0.0739050359 -0.0493815318 0
v 0.049053438 -0.0327762701 0
v 0.0821188316 -0.0340145566 0
v 0.0578624047 -0.0115094781 0
v 0.097584419 -0.06520354 0
v 0.0871768519 -0.0173404329 0
v 0.0589959659 -7.53812159E-08 0
v 0.108429939 -0.0449129231 0
v 0.122630306 -0.0819386244 0
v 0.0888847113 -6.98636455E-08 0
v 0.0578623824 0.0115094157 0
v 0.136259437 -0.0564402342 0
v 0.148907319 -0.0994963124 0
v 0.115108564 -0.0228963494 0
v 0.0871768147 0.0173404291 0
v 0.0545051843 0.022576604 0
v 0.165456906 -0.0685341582 0
v 0.17600368 -0.117601477 0
v 0.117363624 -6.3614749E-08 0
v 0.144652203 -0.0287728924 0
v 0.0821187869 0.0340145417 0
v 0.0490534008 0.0327761844 0
v 0.195564747 -0.0810051933 0
v 0.204679012 -0.13676168 0
v 0.175648034 -0.0349382982 0
v 0.227427036 -0.0942029431 0
v 0.207610339 -0.0412959419 0
v 0.2414352 -0.0480240732 0
v 0.147486046 -5.81860036E-08 0
v 0.115108512 0.022896396 0
v 0.0739049837 0.0493814871 0
v 0.0417165235 0.0417161845 0
v 0.179089129 -5.42685292E-08 0
v 0.144652143 0.0287729949 0
v 0.108429857 0.0449129716 0
v 0.062851049 0.0628507286 0
v 0.0327765159 0.049053058 0
v 0.0975843295 0.0652035475 0
v 0.136259347 0.0564403273 0
v 0.175647959 0.0349384546 0
v 0.211677581 -4.77059245E-08 0
v 0.0493818037 0.0739046484 0
v 0.0225769486 0.0545048565 0
v 0.0829886794 0.0829883739 0
v 0.122630224 0.0819386765 0
v 0.246165082 -4.5769319E-08 0
v 0.207610235 0.0412961617 0
v 0.165456787 0.0685343072 0
v 0.0340148658 0.0821184739 0
v 0.0115097556 0.0578620359 0
v 0.0652038381 0.097584039 0
v 0.104288429 0.104288153 0
v 0.1489072 0.0994964093 0
v 0.195564613 0.081005387 0
v 0.0173407495 0.0871764943 0
v 2.68743776E-07 0.058995638 0
v 0.0449132733 0.108429581 0
v 0.0819389448 0.122629903 0
v 0.126635179 0.126634926 0
v 2.56123428E-07 0.0888843909 0
v -0.0115092201 0.0578620471 0
v 0.0228967033 0.115108222 0
v 0.0564406104 0.136259079 0
v -0.0173402391 0.0871765018 0
v -0.0225764029 0.0545048565 0
v 2.43803811E-07 0.117363334 0
v -0.0340143442 0.0821184739 0
v -0.0327759944 0.0490530655 0
v 0.176003531 0.117601611 0
v 0.0994966477 0.148906916 0
v 0.028773278 0.144651845 0
v -0.0228962153 0.115108222 0
v -0.0493813083 0.0739046633 0
v -0.0417159982 0.0417161882 0
v 0.149678707 0.149678469 0
v 0.0685345754 0.165456533 0
v 2.32431731E-07 0.147485763 0
v -0.0449127704 0.108429581 0
v -0.0628505498 0.0628507361 0
v -0.0490528718 0.0327761732 0
v 0.117601834 0.176003277 0
v 0.0349387228 0.175647691 0
v -0.0287728216 0.144651875 0
v -0.0652033761 0.0975840539 0
v -0.0739044696 0.0493814796 0
v -0.0545046739 0.0225765891 0
v 0.0810056254 0.195564374 0
v 2.19838142E-07 0.179088876 0
v -0.0564401336 0.136259079 0
v -0.0829882249 0.0829883963 0
v -0.0821183026 0.034014523 0
v -0.0578618646 0.0115094017 0
v 0.0412964113 0.207610011 0
v -0.0349382907 0.175647736 0
v -0.0819385126 0.122629933 0
v -0.0975838676 0.06520354 0
v -0.0871763304 0.0173404068 0
v -0.0589954406 -9.46044523E-08 0
v 2.06798603E-07 0.211677372 0
v -0.0685341209 0.165456563 0
v -0.104288004 0.104288153 0
v -0.108429439 0.0449129418 0
v -0.0888841972 -9.88258861E-08 0
v -0.0578618497 -0.0115095889 0
v -0.0412959978 0.207610056 0
v -0.0994962677 0.148906946 0
v -0.122629732 0.0819386542 0
v -0.11510808 0.0228963736 0
v -0.087176308 -0.0173406005 0
v -0.054504659 -0.0225767829 0
v -0.0810052082 0.195564404 0
v -0.126634777 0.126634926 0
v -0.13625893 0.0564402938 0
v -0.117363155 -1.01856592E-07 0
v -0.0821182728 -0.0340147242 0
v -0.0490528606 -0.0327763744 0
v -0.117601477 0.176003292 0
v -0.148906767 0.0994963944 0
v -0.144651711 0.0287729595 0
v -0.115108058 -0.0228965711 0
v -0.0739044547 -0.0493816845 0
v -0.0417159833 -0.0417163707 0
v -0.149678335 0.149678469 0
v -0.165456384 0.0685342699 0
v -0.147485584 -1.06242979E-07 0
v -0.108429395 -0.0449131466 0
v -0.0628505275 -0.0628509298 0
v -0.0327759646 -0.0490532406 0
v -0.176003128 0.117601596 0
v -0.175647557 0.0349384136 0
v -0.144651681 -0.0287731681 0
v -0.0975838453 -0.0652037486 0
v -0.0493812561 -0.0739048421 0
v -0.0225763693 -0.0545050278 0
v -0.19556427 0.0810053423 0
v -0.179088682 -1.12623098E-07 0
v -0.136258885 -0.0564405061 0
v -0.0829881951 -0.0829885826 0
v -0.0340142958 -0.0821186453 0
v -0.0115091735 -0.0578621961 0
v -0.207609892 0.0412961133 0
v -0.175647527 -0.0349386334 0
v -0.122629724 -0.0819388852 0
v -0.0652033091 -0.0975842252 0
v -0.0173401702 -0.0871766433 0
v 3.21255925E-07 -0.0589957796 0
v -0.211677209 -1.16679175E-07 0
v -0.165456325 -0.0685344934 0
v -0.104287952 -0.104288369 0
v -0.0449127108 -0.108429775 0
v 3.35239605E-07 -0.088884525 0
v 0.0115098152 -0.05786217 0
v -0.207609877 -0.0412963368 0
v -0.148906738 -0.0994966179 0
v -0.0819384307 -0.122630119 0
v -0.0228961241 -0.115108371 0
v 0.0173408389 -0.0871766061 0
v 0.0225770082 -0.054504972 0
v -0.246164739 -1.25980023E-07 0
v -0.241434753 0.0480242856 0
v -0.241434738 -0.0480245352 0
v -0.227426603 0.0942031443 0
v -0.260854363 0.108049378 0
v -0.204678476 0.136761829 0
v -0.276921481 0.055083029 0
v -0.295541018 0.122417048 0
v -0.174064726 0.174064845 0
v -0.313744634 0.0624076054 0
v -0.329703718 0.136567682 0
v -0.136761725 0.20467864 0
v -0.350011557 0.0696215332 0
v -0.361329615 0.149667531 0
v -0.383585423 0.0762997866 0
v -0.0942030102 0.227426708 0
v -0.0480241962 0.241434917 0
v 1.95246244E-07 0.246164888 0
v 0.0480245762 0.241434857 0
v 0.0550833121 0.2769216 0
v 0.09420342 0.227426693 0
v 0.136762068 0.20467861 0
v 0.174065053 0.174064845 0
v 0.204678833 0.136761859 0
v 0.227426887 0.0942031965 0
v 0.241435081 0.0480243452 0
v 0.199649543 0.199649349 0
v 0.156863645 0.234762803 0
v 0.234763026 0.156863496 0
v 0.204678833 0.136761859 0
v 0.226197541 0.226197347 0
v 0.282347023 -4.14786818E-08 0
v 0.276921809 0.0550830923 0
v 0.313744932 0.0624076724 0
v 0.276921928 -0.055082757 0
v 0.177722275 0.265979946 0
v 0.108049639 0.260854453 0
v 0.122417293 0.295541137 0
v 0.13656792 0.329703748 0
v 0.252344459 0.25234431 0
v 0.29672569 0.198265687 0
v 0.265980154 0.177722141 0
v 0.325188249 0.217283741 0
v 0.276549876 0.276549757 0
v 0.313745081 -0.0624072812 0
v 0.319891572 -3.80192553E-08 0
v 0.295541465 -0.122416742 0
v 0.329704076 -0.136567324 0
v 0.350011885 -0.0696211457 0
v 0.361329973 -0.149667159 0
v 0.383585781 -0.0762993619 0
v 0.26085481 -0.108049117 0
v 0.227427036 -0.0942029431 0
v 0.265980393 -0.177721843 0
v 0.23476322 -0.156863242 0
v 0.313745081 -0.0624072812 0
v 0.356868893 -3.39789992E-08 0
v 0.227427036 -0.0942029431 0
v 0.26085481 -0.108049117 0
v 0.296725959 -0.198265344 0
v 0.295541465 -0.122416742 0
v 0.329704076 -0.136567324 0
v 0.325188488 -0.217283353 0
v 0.361329973 -0.149667159 0
v 0.359385937 -0.2401333 0
v 0.399328142 -0.165406436 0
v 0.423924387 -0.084323138 0
v 0.440262735 -0.182362035 0
v 0.467380375 -0.0929669961 0
v 0.480292112 -0.198942676 0
v 0.509875238 -0.101419687 0
v 0.0763004199 -0.383585453 0
v 0.0696221441 -0.350011617 0
v 0.136568293 -0.329703659 0
v 0.149668187 -0.361329556 0
v 0.0843243003 -0.423924088 0
v 0.149668187 -0.361329556 0
v 0.217284292 -0.325187951 0
v 0.276550204 -0.276549399 0
v 0.30563277 -0.305631906 0
v 0.336962759 -0.336961865 0
v 0.359385937 -0.2401333 0
v 0.396226138 -0.26474905 0
v 0.252344787 -0.252344042 0
v 0.296725959 -0.198265344 0
v 0.325188488 -0.217283353 0
v 0.30563277 -0.305631906 0
v 0.276550204 -0.276549399 0
v 0.265980393 -0.177721843 0
v 0.198266193 -0.296725392 0
v 0.149668187 -0.361329556 0
v 0.136568293 -0.329703659 0
v 0.177722648 -0.265979856 0
v 0.122417629 -0.295541018 0
v 0.156863987 -0.234762713 0
v 0.108049944 -0.260854423 0
v 0.136762366 -0.20467855 0
v 0.0942036882 -0.227426678 0
v 0.226197854 -0.226197124 0
v 0.198266193 -0.296725392 0
v 0.23476322 -0.156863242 0
v 0.177722648 -0.265979856 0
v 0.199649811 -0.199649155 0
v 0.204679012 -0.13676168 0
v 0.174065262 -0.174064666 0
v 0.156863987 -0.234762713 0
v 0.174065262 -0.174064666 0
v 0.199649811 -0.199649155 0
v 0.17600368 -0.117601477 0
v 0.149678901 -0.149678364 0
v 0.148907319 -0.0994963124 0
v 0.11760208 -0.176003247 0
v 0.126635343 -0.126634851 0
v 0.122630306 -0.0819386244 0
v 0.0810058489 -0.195564359 0
v 0.0480248258 -0.241434932 0
v 0.0994968489 -0.148906916 0
v 0.104288578 -0.104288138 0
v 0.097584419 -0.06520354 0
v 0.0829887837 -0.0829884112 0
v 0.0739050359 -0.0493815318 0
v 0.0819391012 -0.122629948 0
v 0.0685347617 -0.165456533 0
v 0.0628511235 -0.0628507882 0
v 0.049053438 -0.0327762701 0
v 0.0417165756 -0.0417162776 0
v 0.0652039722 -0.0975840911 0
v 0.0493819006 -0.0739047453 0
v 0.0327765793 -0.0490531735 0
v 0.0564407632 -0.136259109 0
v 0.0412966236 -0.207610071 0
v 0.0340149552 -0.0821185559 0
v 0.0449133962 -0.108429655 0
v 0.0349389017 -0.17564775 0
v 0.0228968188 -0.115108334 0
v 0.028773427 -0.144651949 0
v 3.48269111E-07 -0.117363468 0
v 3.63709034E-07 -0.147485882 0
v 3.79245421E-07 -0.179088935 0
v 3.95212908E-07 -0.211677432 0
v -0.0287727062 -0.144651994 0
v 4.14357913E-07 -0.246164963 0
v 4.33913954E-07 -0.282346934 0
v 0.0550835989 -0.27692163 0
v -0.0412958339 -0.20761013 0
v -0.0480239987 -0.241435006 0
v -0.0349381492 -0.17564781 0
v -0.0810050964 -0.195564553 0
v -0.0942028686 -0.227426872 0
v -0.0564400554 -0.136259273 0
v -0.0685340241 -0.165456712 0
v -0.0994961634 -0.14890711 0
v -0.117601342 -0.176003471 0
v -0.126634732 -0.126635134 0
v -0.14967826 -0.149678677 0
v -0.176003084 -0.117601842 0
v -0.136761561 -0.204678819 0
v -0.195564196 -0.0810055807 0
v -0.174064636 -0.174065053 0
v -0.227426499 -0.0942034051 0
v -0.204678416 -0.136762097 0
v -0.260854274 -0.108049646 0
v -0.234762609 -0.156863719 0
v -0.276921451 -0.0550832972 0
v -0.313744605 -0.0624078847 0
v -0.295540899 -0.122417346 0
v -0.282346696 -1.33478977E-07 0
v -0.246164739 -1.25980023E-07 0
v -0.319891244 -1.42253114E-07 0
v -0.313744605 -0.0624078847 0
v -0.356868684 -1.50261613E-07 0
v -0.350011557 0.0696215332 0
v -0.313744634 0.0624076054 0
v -0.383585423 0.0762997866 0
v -0.350011498 -0.0696218237 0
v -0.295540899 -0.122417346 0
v -0.391100347 -1.58327708E-07 0
v -0.329703599 -0.13656798 0
v -0.383585393 -0.076300092 0
v -0.361329526 -0.149667874 0
v -0.423924029 -0.0843239576 0
v -0.399327666 -0.16540724 0
v -0.467379987 -0.0929678977 0
v -0.296725333 -0.19826591 0
v -0.325187951 -0.217283994 0
v -0.265979767 -0.17772238 0
v -0.234762609 -0.156863719 0
v -0.260854274 -0.108049646 0
v -0.199649125 -0.199649572 0
v -0.226197124 -0.226197585 0
v -0.252344102 -0.252344549 0
v -0.440262198 -0.182362914 0
v -0.519864023 -1.90567363E-07 0
v -0.476536542 -1.79538858E-07 0
v -0.359385341 -0.240134001 0
v -0.325187951 -0.217283994 0
v -0.361329526 -0.149667874 0
v -0.296725333 -0.19826591 0
v -0.276549518 -0.276549965 0
v -0.305632025 -0.305632502 0
v -0.336962014 -0.336962491 0
v -0.24013342 -0.359385788 0
v -0.149667233 -0.361329883 0
v -0.0762994587 -0.383585662 0
v -0.0843232796 -0.423924297 0
v -0.0696212053 -0.350011736 0
v -0.217283413 -0.325188369 0
v -0.305632025 -0.305632502 0
v -0.276549518 -0.276549965 0
v -0.136567384 -0.329703927 0
v -0.0624072962 -0.313744873 0
v -0.198265344 -0.29672575 0
v -0.252344102 -0.252344549 0
v -0.122416772 -0.295541286 0
v -0.0550827347 -0.276921719 0
v -0.177721798 -0.265980184 0
v -0.226197124 -0.226197585 0
v -0.108049102 -0.260854632 0
v -0.0480239987 -0.241435006 0
v -0.156863183 -0.234763026 0
v -0.199649125 -0.199649572 0
v -0.199649125 -0.199649572 0
v -0.234762609 -0.156863719 0
v -0.204678416 -0.136762097 0
v -0.282346696 -1.33478977E-07 0
v -0.319891244 -1.42253114E-07 0
v -0.276921481 0.055083029 0
v -0.246164739 -1.25980023E-07 0
v -0.241434753 0.0480242856 0
v -0.432229251 -1.68105032E-07 0
v -0.423924029 -0.0843239576 0
v -0.467379987 -0.0929678977 0
v -0.432229251 -1.68105032E-07 0
v -0.383585393 -0.076300092 0
v -0.423924059 0.0843236223 0
v -0.399327755 0.165406898 0
v -0.396225661 0.264749497 0
v -0.359385431 0.240133688 0
v -0.432251126 0.288820952 0
v -0.480291724 0.198943242 0
v -0.432229251 -1.68105032E-07 0
v -0.476536542 -1.79538858E-07 0
v -0.509875 0.101420306 0
v -0.519864023 -1.90567363E-07 0
v -0.182362229 -0.440262586 0
v -0.1654066 -0.399327993 0
v -0.0843232796 -0.423924297 0
v -0.0929671898 -0.467380196 0
v 5.14353928E-07 -0.43222937 0
v 4.92216941E-07 -0.391100496 0
v -0.0762994587 -0.383585662 0
v 4.74020112E-07 -0.356868804 0
v -0.0696212053 -0.350011736 0
v 4.54238716E-07 -0.319891453 0
v -0.0624072962 -0.313744873 0
v 5.39162215E-07 -0.476536632 0
v -0.101419933 -0.509875119 0
v 0.0843243003 -0.423924088 0
v 0.165407538 -0.399327695 0
v 0.182363242 -0.440262258 0
v 0.0763004199 -0.383585453 0
v 4.92216941E-07 -0.391100496 0
v 0.0696221441 -0.350011617 0
v 4.74020112E-07 -0.356868804 0
v 0.0624081939 -0.313744754 0
v 4.54238716E-07 -0.319891453 0
v 0.122417629 -0.295541018 0
v 0.108049944 -0.260854423 0
v 0.0550835989 -0.27692163 0
v 0.0942036882 -0.227426678 0
v 0.0480248258 -0.241434932 0
v 4.33913954E-07 -0.282346934 0
v -0.0550827347 -0.276921719 0
v -0.0480239987 -0.241435006 0
v 4.14357913E-07 -0.246164963 0
v 4.33913954E-07 -0.282346934 0
v -0.101420335 0.509875059 0
v -0.0929675549 0.467380136 0
v -0.182362512 0.440262437 0
v -0.198943213 0.480291784 0
v 0.101421036 -0.50987494 0
v 0.0929682553 -0.467380047 0
v 0.198943973 -0.480291575 0
v 0.367599934 -0.367598951 0
v 0.336962759 -0.336961865 0
v 0.519864082 -2.11741451E-08 0
v 0.467380136 0.0929676443 0
v 0.509875059 0.101420417 0
v -0.1989429 -0.480291963 0
v -0.0929671898 -0.467380196 0
v -0.101419933 -0.509875119 0
v 1.82596622E-07 0.282346845 0
v 1.95246244E-07 0.246164888 0
v -0.0480241962 0.241434917 0
v -0.0550829545 0.27692163 0
v 1.69502925E-07 0.319891363 0
v -0.0480241962 0.241434917 0
v -0.0942030102 0.227426708 0
v -0.108049259 0.260854453 0
v 0.156863645 0.234762803 0
v 0.136762068 0.20467861 0
v 0.09420342 0.227426693 0
vt 0.0284522213 0.998456299
vt 0.0014428841 0.708988786
vt 0.0014428841 0.998456299
vt 0.0284522213 0.708988786
vt 0.0591527373 0.998456299
vt 0.0591527373 0.708988786
vt 0.0284522213 0.654175401
vt 0.0923646614 0.998456299
vt 0.0591527373 0.654175401
vt 0.0923646614 0.708988786
vt 0.126811624 0.998456299
vt 0.126811624 0.708988786
vt 0.161169916 0.998456299
vt 0.0923646614 0.654175401
vt 0.161169916 0.708988786
vt 0.194119126 0.998456299
vt 0.126811624 0.654175401
vt 0.194119126 0.708988786
vt 0.22439304 0.998456299
vt 0.22439304 0.708988786
vt 0.250828236 0.998456299
vt 0.250828236 0.708988786
vt 0.277785271 0.998456299
vt 0.22439304 0.654175401
vt 0.0591527373 0.599362135
vt 0.0923646614 0.599362135
vt 0.277785271 0.708988786
vt 0.308426231 0.998456299
vt 0.250828236 0.654175401
vt 0.277785271 0.654175401
vt 0.22439304 0.599362135
vt 0.308426231 0.708988786
vt 0.277785271 0.654175401
vt 0.341573805 0.998456299
vt 0.308426231 0.654175401
vt 0.341573805 0.708988786
vt 0.375954151 0.998456299
vt 0.375954151 0.708988786
vt 0.410245776 0.998456299
vt 0.410245776 0.708988786
vt 0.443131059 0.998456299
vt 0.443131059 0.708988786
vt 0.473346323 0.998456299
vt 0.473346323 0.708988786
vt 0.499730408 0.998456299
vt 0.443131059 0.654175401
vt 0.499730408 0.708988786
vt 0.524813831 0.998456299
vt 0.524813831 0.708988786
vt 0.554079711 0.998456299
vt 0.473346323 0.654175401
vt 0.554079711 0.708988786
vt 0.586402774 0.998456299
vt 0.524813831 0.654175401
vt 0.586402774 0.708988786
vt 0.554079711 0.654175401
vt 0.620541334 0.998456299
vt 0.524813831 0.599362135
vt 0.554079711 0.599362135
vt 0.620541334 0.708988786
vt 0.655183315 0.998456299
vt 0.655183315 0.708988786
vt 0.620541334 0.654175401
vt 0.688997269 0.998456299
vt 0.655183315 0.654175401
vt 0.688997269 0.708988786
vt 0.72068429 0.998456299
vt 0.688997269 0.654175401
vt 0.655183315 0.599362135
vt 0.72068429 0.708988786
vt 0.688997269 0.654175401
vt 0.74902612 0.998456299
vt 0.72068429 0.654175401
vt 0.74902612 0.708988786
vt 0.77603054 0.998456299
vt 0.74902612 0.654175401
vt 0.72068429 0.599362135
vt 0.74902612 0.599362135
vt 0.72068429 0.54454875
vt 0.77603054 0.708988786
vt 0.806725442 0.998456299
vt 0.74902612 0.654175401
vt 0.806725442 0.708988786
vt 0.839931369 0.998456299
vt 0.77603054 0.654175401
vt 0.74902612 0.599362135
vt 0.77603054 0.599362135
vt 0.839931369 0.708988786
vt 0.874372244 0.998456299
vt 0.806725442 0.654175401
vt 0.806725442 0.599362135
vt 0.839931369 0.654175401
vt 0.874372244 0.708988786
vt 0.908724248 0.998456299
vt 0.908724248 0.708988786
vt 0.941667378 0.998456299
vt 0.941667378 0.708988786
vt 0.971935749 0.998456299
vt 0.908724248 0.654175401
vt 0.971935749 0.708988786
vt 0.998366296 0.998456299
vt 0.998366296 0.708988786
vt 0.941667378 0.654175401
vt 0.908724248 0.599362135
vt 0.941667378 0.599362135
vt 0.971935749 0.654175401
vt 0.971935749 0.708988786
vt 0.998366296 0.654175401
vt 0.941667378 0.54454875
vt 0.908724248 0.54454875
vt 0.908724248 0.599362135
vt 0.908724248 0.489735454
vt 0.941667378 0.489735454
vt 0.874372244 0.489735454
vt 0.874372244 0.54454875
vt 0.874372244 0.599362135
vt 0.908724248 0.654175401
vt 0.874372244 0.54454875
vt 0.874372244 0.654175401
vt 0.839931369 0.599362135
vt 0.839931369 0.654175401
vt 0.874372244 0.708988786
vt 0.839931369 0.708988786
vt 0.839931369 0.489735454
vt 0.839931369 0.54454875
vt 0.874372244 0.599362135
vt 0.839931369 0.434922069
vt 0.874372244 0.434922069
vt 0.908724248 0.489735454
vt 0.908724248 0.434922069
vt 0.839931369 0.380108804
vt 0.874372244 0.380108804
vt 0.839931369 0.325295508
vt 0.874372244 0.325295508
vt 0.806725442 0.434922069
vt 0.806725442 0.489735454
vt 0.806725442 0.380108804
vt 0.839931369 0.380108804
vt 0.77603054 0.380108804
vt 0.77603054 0.434922069
vt 0.839931369 0.325295508
vt 0.806725442 0.325295508
vt 0.806725442 0.380108804
vt 0.839931369 0.54454875
vt 0.839931369 0.489735454
vt 0.806725442 0.54454875
vt 0.839931369 0.599362135
vt 0.806725442 0.54454875
vt 0.806725442 0.599362135
vt 0.806725442 0.654175401
vt 0.77603054 0.54454875
vt 0.74902612 0.54454875
vt 0.72068429 0.489735454
vt 0.74902612 0.489735454
vt 0.77603054 0.54454875
vt 0.77603054 0.489735454
vt 0.688997269 0.489735454
vt 0.688997269 0.54454875
vt 0.688997269 0.434922069
vt 0.72068429 0.599362135
vt 0.688997269 0.599362135
vt 0.72068429 0.434922069
vt 0.688997269 0.380108804
vt 0.72068429 0.380108804
vt 0.72068429 0.654175401
vt 0.688997269 0.599362135
vt 0.655183315 0.54454875
vt 0.688997269 0.54454875
vt 0.655183315 0.489735454
vt 0.688997269 0.489735454
vt 0.655183315 0.434922069
vt 0.688997269 0.434922069
vt 0.655183315 0.380108804
vt 0.688997269 0.380108804
vt 0.620541334 0.434922069
vt 0.620541334 0.489735454
vt 0.620541334 0.54454875
vt 0.620541334 0.599362135
vt 0.655183315 0.654175401
vt 0.620541334 0.654175401
vt 0.586402774 0.599362135
vt 0.586402774 0.654175401
vt 0.586402774 0.54454875
vt 0.620541334 0.54454875
vt 0.586402774 0.489735454
vt 0.620541334 0.489735454
vt 0.554079711 0.599362135
vt 0.554079711 0.654175401
vt 0.586402774 0.708988786
vt 0.554079711 0.708988786
vt 0.554079711 0.54454875
vt 0.586402774 0.54454875
vt 0.524813831 0.54454875
vt 0.554079711 0.489735454
vt 0.586402774 0.489735454
vt 0.554079711 0.434922069
vt 0.524813831 0.489735454
vt 0.586402774 0.434922069
vt 0.620541334 0.434922069
vt 0.524813831 0.54454875
vt 0.586402774 0.380108804
vt 0.620541334 0.380108804
vt 0.554079711 0.380108804
vt 0.554079711 0.434922069
vt 0.554079711 0.325295508
vt 0.586402774 0.325295508
vt 0.524813831 0.380108804
vt 0.524813831 0.434922069
vt 0.554079711 0.489735454
vt 0.499730408 0.434922069
vt 0.499730408 0.489735454
vt 0.499730408 0.54454875
vt 0.524813831 0.599362135
vt 0.499730408 0.599362135
vt 0.473346323 0.54454875
vt 0.473346323 0.599362135
vt 0.554079711 0.380108804
vt 0.524813831 0.325295508
vt 0.554079711 0.325295508
vt 0.524813831 0.654175401
vt 0.499730408 0.599362135
vt 0.499730408 0.654175401
vt 0.524813831 0.708988786
vt 0.499730408 0.708988786
vt 0.499730408 0.54454875
vt 0.473346323 0.489735454
vt 0.499730408 0.489735454
vt 0.473346323 0.434922069
vt 0.499730408 0.434922069
vt 0.499730408 0.434922069
vt 0.473346323 0.380108804
vt 0.499730408 0.380108804
vt 0.524813831 0.434922069
vt 0.473346323 0.325295508
vt 0.499730408 0.325295508
vt 0.524813831 0.380108804
vt 0.499730408 0.325295508
vt 0.524813831 0.325295508
vt 0.971935749 0.0103000104
vt 0.998366296 0.0623364449
vt 0.998366296 0.0103000104
vt 0.971935749 0.0623364449
vt 0.941667378 0.0103000104
vt 0.998366296 0.114372909
vt 0.941667378 0.0623364449
vt 0.908724248 0.0103000104
vt 0.971935749 0.114372909
vt 0.998366296 0.166409343
vt 0.908724248 0.0623364449
vt 0.874372244 0.0103000104
vt 0.971935749 0.166409343
vt 0.998366296 0.218445778
vt 0.941667378 0.114372909
vt 0.874372244 0.0623364449
vt 0.839931369 0.0103000104
vt 0.971935749 0.218445778
vt 0.998366296 0.270482212
vt 0.908724248 0.114372909
vt 0.941667378 0.166409343
vt 0.839931369 0.0623364449
vt 0.806725442 0.0103000104
vt 0.971935749 0.270482212
vt 0.998366296 0.325295508
vt 0.941667378 0.218445778
vt 0.971935749 0.325295508
vt 0.941667378 0.270482212
vt 0.941667378 0.325295508
vt 0.908724248 0.166409343
vt 0.874372244 0.114372909
vt 0.806725442 0.0623364449
vt 0.77603054 0.0103000104
vt 0.908724248 0.218445778
vt 0.874372244 0.166409343
vt 0.839931369 0.114372909
vt 0.77603054 0.0623364449
vt 0.74902612 0.0103000104
vt 0.806725442 0.114372909
vt 0.839931369 0.166409343
vt 0.874372244 0.218445778
vt 0.908724248 0.270482212
vt 0.74902612 0.0623364449
vt 0.72068429 0.0103000104
vt 0.77603054 0.114372909
vt 0.806725442 0.166409343
vt 0.908724248 0.325295508
vt 0.874372244 0.270482212
vt 0.839931369 0.218445778
vt 0.72068429 0.0623364449
vt 0.688997269 0.0103000104
vt 0.74902612 0.114372909
vt 0.77603054 0.166409343
vt 0.806725442 0.218445778
vt 0.839931369 0.270482212
vt 0.688997269 0.0623364449
vt 0.655183315 0.0103000402
vt 0.72068429 0.114372909
vt 0.74902612 0.166409343
vt 0.77603054 0.218445778
vt 0.655183315 0.0623364747
vt 0.620541334 0.0103000402
vt 0.688997269 0.114372909
vt 0.72068429 0.166409343
vt 0.620541334 0.0623364747
vt 0.586402774 0.0103000402
vt 0.655183315 0.114372909
vt 0.586402774 0.0623364747
vt 0.554079711 0.0103000402
vt 0.806725442 0.270482212
vt 0.74902612 0.218445778
vt 0.688997269 0.166409343
vt 0.620541334 0.114372909
vt 0.554079711 0.0623364747
vt 0.524813831 0.0103000402
vt 0.77603054 0.270482212
vt 0.72068429 0.218445778
vt 0.655183315 0.166409373
vt 0.586402774 0.114372909
vt 0.524813831 0.0623364747
vt 0.499730408 0.0103000402
vt 0.74902612 0.270482212
vt 0.688997269 0.218445778
vt 0.620541334 0.166409373
vt 0.554079711 0.114372909
vt 0.499730408 0.0623364747
vt 0.473346323 0.0103000402
vt 0.72068429 0.270482212
vt 0.655183315 0.218445778
vt 0.586402774 0.166409373
vt 0.524813831 0.114372909
vt 0.473346323 0.0623364747
vt 0.443131059 0.0103000402
vt 0.688997269 0.270482212
vt 0.620541334 0.218445778
vt 0.554079711 0.166409373
vt 0.499730408 0.114372909
vt 0.443131059 0.0623364747
vt 0.410245776 0.0103000402
vt 0.655183315 0.270482212
vt 0.586402774 0.218445778
vt 0.524813831 0.166409373
vt 0.473346323 0.114372909
vt 0.410245776 0.0623364747
vt 0.375954151 0.0103000402
vt 0.620541334 0.270482212
vt 0.554079711 0.218445778
vt 0.499730408 0.166409373
vt 0.443131059 0.114372909
vt 0.375954151 0.0623364747
vt 0.341573805 0.0103000402
vt 0.586402774 0.270482212
vt 0.524813831 0.218445778
vt 0.473346323 0.166409373
vt 0.410245776 0.114372909
vt 0.341573805 0.0623364747
vt 0.308426231 0.0103000402
vt 0.554079711 0.270482212
vt 0.499730408 0.218445778
vt 0.443131059 0.166409373
vt 0.375954151 0.114372909
vt 0.308426231 0.0623364747
vt 0.277785271 0.0103000402
vt 0.524813831 0.270482212
vt 0.473346323 0.218445778
vt 0.410245776 0.166409373
vt 0.341573805 0.114372909
vt 0.277785271 0.0623364747
vt 0.250828236 0.0103000402
vt 0.499730408 0.270482212
vt 0.443131059 0.218445778
vt 0.375954151 0.166409373
vt 0.308426231 0.114372909
vt 0.250828236 0.0623364747
vt 0.22439304 0.0103000402
vt 0.473346323 0.270482212
vt 0.410245776 0.218445778
vt 0.341573805 0.166409373
vt 0.277785271 0.114372909
vt 0.22439304 0.0623364747
vt 0.194119126 0.0103000402
vt 0.443131059 0.270482212
vt 0.375954151 0.218445778
vt 0.308426231 0.166409373
vt 0.250828236 0.114372909
vt 0.194119126 0.0623364747
vt 0.161169916 0.0103000104
vt 0.410245776 0.270482212
vt 0.341573805 0.218445778
vt 0.277785271 0.166409373
vt 0.22439304 0.114372909
vt 0.161169916 0.0623364449
vt 0.126811624 0.0103000104
vt 0.375954151 0.270482212
vt 0.308426231 0.218445778
vt 0.250828236 0.166409373
vt 0.194119126 0.114372909
vt 0.126811624 0.0623364449
vt 0.0923646614 0.0103000104
vt 0.410245776 0.325295508
vt 0.443131059 0.325295508
vt 0.375954151 0.325295508
vt 0.473346323 0.325295508
vt 0.473346323 0.380108804
vt 0.499730408 0.325295508
vt 0.443131059 0.380108804
vt 0.473346323 0.434922069
vt 0.524813831 0.325295508
vt 0.443131059 0.434922069
vt 0.473346323 0.489735454
vt 0.554079711 0.325295508
vt 0.443131059 0.489735454
vt 0.473346323 0.54454875
vt 0.443131059 0.54454875
vt 0.586402774 0.325295508
vt 0.620541334 0.325295508
vt 0.655183315 0.325295508
vt 0.688997269 0.325295508
vt 0.688997269 0.380108804
vt 0.72068429 0.325295508
vt 0.74902612 0.325295508
vt 0.77603054 0.325295508
vt 0.806725442 0.325295508
vt 0.839931369 0.325295508
vt 0.874372244 0.325295508
vt 0.77603054 0.380108804
vt 0.74902612 0.380108804
vt 0.806725442 0.380108804
vt 0.806725442 0.325295508
vt 0.77603054 0.434922069
vt 0.908724248 0.380108804
vt 0.874372244 0.380108804
vt 0.874372244 0.434922069
vt 0.941667378 0.380108804
vt 0.74902612 0.434922069
vt 0.72068429 0.380108804
vt 0.72068429 0.434922069
vt 0.72068429 0.489735454
vt 0.77603054 0.489735454
vt 0.806725442 0.489735454
vt 0.806725442 0.434922069
vt 0.806725442 0.54454875
vt 0.77603054 0.54454875
vt 0.941667378 0.434922069
vt 0.908724248 0.434922069
vt 0.971935749 0.434922069
vt 0.971935749 0.489735454
vt 0.941667378 0.489735454
vt 0.971935749 0.54454875
vt 0.941667378 0.54454875
vt 0.971935749 0.380108804
vt 0.971935749 0.325295508
vt 0.998366296 0.434922069
vt 0.998366296 0.380108804
vt 0.941667378 0.434922069
vt 0.908724248 0.489735454
vt 0.971935749 0.325295508
vt 0.971935749 0.380108804
vt 0.998366296 0.489735454
vt 0.971935749 0.434922069
vt 0.971935749 0.489735454
vt 0.998366296 0.54454875
vt 0.971935749 0.54454875
vt 0.998366296 0.599362135
vt 0.971935749 0.599362135
vt 0.941667378 0.599362135
vt 0.971935749 0.654175401
vt 0.941667378 0.654175401
vt 0.971935749 0.708988786
vt 0.941667378 0.708988786
vt 0.126811624 0.54454875
vt 0.126811624 0.489735454
vt 0.0923646614 0.489735454
vt 0.0923646614 0.54454875
vt 0.126811624 0.599362135
vt 0.0923646614 0.54454875
vt 0.0591527373 0.54454875
vt 0.0284522213 0.54454875
vt 0.0284522213 0.599362135
vt 0.0284522213 0.654175401
vt 0.0014428841 0.599362135
vt 0.0014428841 0.654175401
vt 0.0284522213 0.489735454
vt 0.0014428841 0.489735454
vt 0.0014428841 0.54454875
vt 0.0284522213 0.599362135
vt 0.0284522213 0.54454875
vt 0.0014428841 0.434922069
vt 0.0591527373 0.489735454
vt 0.0923646614 0.54454875
vt 0.0923646614 0.489735454
vt 0.0591527373 0.434922069
vt 0.0923646614 0.434922069
vt 0.0591527373 0.380108804
vt 0.0923646614 0.380108804
vt 0.0591527373 0.325295508
vt 0.0923646614 0.325295508
vt 0.0284522213 0.434922069
vt 0.0591527373 0.489735454
vt 0.0014428841 0.380108804
vt 0.0591527373 0.434922069
vt 0.0284522213 0.380108804
vt 0.0014428841 0.325295508
vt 0.0284522213 0.325295508
vt 0.0591527373 0.380108804
vt 0.0284522213 0.325295508
vt 0.0284522213 0.380108804
vt 0.0014428841 0.270482212
vt 0.0284522213 0.270482212
vt 0.0014428841 0.218445778
vt 0.0591527373 0.270482212
vt 0.0284522213 0.218445778
vt 0.0014428841 0.166409343
vt 0.0923646614 0.270482212
vt 0.126811624 0.325295508
vt 0.0591527373 0.218445778
vt 0.0284522213 0.166409343
vt 0.0014428841 0.114372909
vt 0.0284522213 0.114372909
vt 0.0014428841 0.0623364449
vt 0.0591527373 0.166409343
vt 0.0923646614 0.218445778
vt 0.0284522213 0.0623364449
vt 0.0014428841 0.0103000104
vt 0.0284522213 0.0103000104
vt 0.0591527373 0.114372909
vt 0.0591527373 0.0623364449
vt 0.0591527373 0.0103000104
vt 0.0923646614 0.166409343
vt 0.126811624 0.270482212
vt 0.0923646614 0.0623364449
vt 0.0923646614 0.114372909
vt 0.126811624 0.218445778
vt 0.126811624 0.114372909
vt 0.126811624 0.166409343
vt 0.161169916 0.114372909
vt 0.161169916 0.166409343
vt 0.161169916 0.218445778
vt 0.161169916 0.270482212
vt 0.194119126 0.166409373
vt 0.161169916 0.325295508
vt 0.161169916 0.380108804
vt 0.126811624 0.380108804
vt 0.194119126 0.270482212
vt 0.194119126 0.325295508
vt 0.194119126 0.218445778
vt 0.22439304 0.270482212
vt 0.22439304 0.325295508
vt 0.22439304 0.166409373
vt 0.22439304 0.218445778
vt 0.250828236 0.218445778
vt 0.250828236 0.270482212
vt 0.277785271 0.218445778
vt 0.277785271 0.270482212
vt 0.308426231 0.270482212
vt 0.250828236 0.325295508
vt 0.341573805 0.270482212
vt 0.277785271 0.325295508
vt 0.341573805 0.325295508
vt 0.308426231 0.325295508
vt 0.341573805 0.380108804
vt 0.308426231 0.380108804
vt 0.375954151 0.380108804
vt 0.375954151 0.434922069
vt 0.341573805 0.434922069
vt 0.410245776 0.380108804
vt 0.410245776 0.325295508
vt 0.410245776 0.434922069
vt 0.375954151 0.434922069
vt 0.410245776 0.489735454
vt 0.443131059 0.489735454
vt 0.443131059 0.434922069
vt 0.443131059 0.54454875
vt 0.375954151 0.489735454
vt 0.341573805 0.434922069
vt 0.410245776 0.54454875
vt 0.341573805 0.489735454
vt 0.375954151 0.54454875
vt 0.341573805 0.54454875
vt 0.375954151 0.599362135
vt 0.341573805 0.599362135
vt 0.375954151 0.654175401
vt 0.308426231 0.489735454
vt 0.308426231 0.54454875
vt 0.308426231 0.434922069
vt 0.308426231 0.380108804
vt 0.341573805 0.380108804
vt 0.277785271 0.380108804
vt 0.277785271 0.434922069
vt 0.277785271 0.489735454
vt 0.341573805 0.654175401
vt 0.410245776 0.708988786
vt 0.410245776 0.654175401
vt 0.308426231 0.599362135
vt 0.308426231 0.54454875
vt 0.341573805 0.54454875
vt 0.308426231 0.489735454
vt 0.277785271 0.54454875
vt 0.277785271 0.599362135
vt 0.277785271 0.654175401
vt 0.250828236 0.599362135
vt 0.22439304 0.54454875
vt 0.194119126 0.54454875
vt 0.194119126 0.599362135
vt 0.194119126 0.489735454
vt 0.250828236 0.54454875
vt 0.277785271 0.599362135
vt 0.277785271 0.54454875
vt 0.22439304 0.489735454
vt 0.194119126 0.434922069
vt 0.250828236 0.489735454
vt 0.277785271 0.489735454
vt 0.22439304 0.434922069
vt 0.194119126 0.380108804
vt 0.250828236 0.434922069
vt 0.277785271 0.434922069
vt 0.22439304 0.380108804
vt 0.194119126 0.325295508
vt 0.250828236 0.380108804
vt 0.277785271 0.380108804
vt 0.277785271 0.380108804
vt 0.308426231 0.380108804
vt 0.308426231 0.325295508
vt 0.410245776 0.380108804
vt 0.410245776 0.434922069
vt 0.443131059 0.380108804
vt 0.410245776 0.325295508
vt 0.443131059 0.325295508
vt 0.410245776 0.599362135
vt 0.375954151 0.599362135
vt 0.375954151 0.654175401
vt 0.410245776 0.599362135
vt 0.375954151 0.54454875
vt 0.443131059 0.599362135
vt 0.473346323 0.599362135
vt 0.499730408 0.654175401
vt 0.499730408 0.599362135
vt 0.499730408 0.708988786
vt 0.473346323 0.708988786
vt 0.410245776 0.599362135
vt 0.410245776 0.654175401
vt 0.443131059 0.708988786
vt 0.410245776 0.708988786
vt 0.22439304 0.654175401
vt 0.22439304 0.599362135
vt 0.194119126 0.599362135
vt 0.194119126 0.654175401
vt 0.161169916 0.599362135
vt 0.161169916 0.54454875
vt 0.194119126 0.54454875
vt 0.161169916 0.489735454
vt 0.194119126 0.489735454
vt 0.161169916 0.434922069
vt 0.194119126 0.434922069
vt 0.161169916 0.654175401
vt 0.194119126 0.708988786
vt 0.126811624 0.599362135
vt 0.0923646614 0.599362135
vt 0.0923646614 0.654175401
vt 0.126811624 0.54454875
vt 0.161169916 0.54454875
vt 0.126811624 0.489735454
vt 0.161169916 0.489735454
vt 0.126811624 0.434922069
vt 0.161169916 0.434922069
vt 0.0923646614 0.434922069
vt 0.0923646614 0.380108804
vt 0.126811624 0.380108804
vt 0.0923646614 0.325295508
vt 0.126811624 0.325295508
vt 0.161169916 0.380108804
vt 0.194119126 0.380108804
vt 0.194119126 0.325295508
vt 0.161169916 0.325295508
vt 0.161169916 0.380108804
vt 0.620541334 0.708988786
vt 0.620541334 0.654175401
vt 0.586402774 0.654175401
vt 0.586402774 0.708988786
vt 0.126811624 0.708988786
vt 0.126811624 0.654175401
vt 0.0923646614 0.708988786
vt 0.0284522213 0.708988786
vt 0.0284522213 0.654175401
vt 0.908724248 0.708988786
vt 0.874372244 0.654175401
vt 0.874372244 0.708988786
vt 0.22439304 0.708988786
vt 0.194119126 0.654175401
vt 0.194119126 0.708988786
vt 0.655183315 0.380108804
vt 0.655183315 0.325295508
vt 0.620541334 0.325295508
vt 0.620541334 0.380108804
vt 0.655183315 0.434922069
vt 0.620541334 0.325295508
vt 0.586402774 0.325295508
vt 0.586402774 0.380108804
vt 0.74902612 0.380108804
vt 0.74902612 0.325295508
vt 0.72068429 0.325295508
vn -0 0 1
vn -0 0 1
vn -0 0 1
vn -0 0 1
vn -0 0 1
vn -0 0 1
vn -0 0 1
vn -0 0 1
vn -0 0 1
vn -0 0 1
vn -0 0 1
vn -0 0 1
vn -0 0 1
vn -0 0 1
vn -0 0 1
vn -0 0 1
vn -0 0 1
vn -0 0 1
vn -0 0 1
vn -0 0 1
vn -0 0 1
vn -0 0 1
vn -0 0 1
vn -0 0 1
vn -0 0 1
vn -0 0 1
vn -0 0 1
vn -0 0 1
vn -0 0 1
vn -0 0 1
vn -0 0 1
vn -0 0 1
vn -0 0 1
vn -0 0 1
vn -0 0 1
vn -0 0 1
vn -0 0 1
vn -0 0 1
vn -0 0 1
vn -0 0 1
vn -0 0 1
vn -0 0 1
vn -0 0 1
vn -0 0 1
vn -0 0 1
vn -0 0 1
vn -0 0 1
vn -0 0 1
vn -0 0 1
vn -0 0 1
vn -0 0 1
vn -0 0 1
vn -0 0 1
vn -0 0 1
vn -0 0 1
vn -0 0 1
vn -0 0 1
vn -0 0 1
vn -0 0 1
vn -0 0 1
vn -0 0 1
vn -0 0 1
vn -0 0 1
vn -0 0 1
vn -0 0 1
vn -0 0 1
vn -0 0 1
vn -0 0 1
vn -0 0 1
vn -0 0 1
vn -0 0 1
vn -0 0 1
vn -0 0 1
vn -0 0 1
vn -0 0 1
vn -0 0 1
vn -0 0 1
vn -0 0 1
vn -0 0 1
vn -0 0 1
vn -0 0 1
vn -0 0 1
vn -0 0 1
vn -0 0 1
vn -0 0 1
vn -0 0 1
vn -0 0 1
vn -0 0 1
vn -0 0 1
vn -0 0 1
vn -0 0 1
vn -0 0 1
vn -0 0 1
vn -0 0 1
vn -0 0 1
vn -0 0 1
vn -0 0 1
vn -0 0 1
vn -0 0 1
vn -0 0 1
vn -0 0 1
vn -0 0 1
vn -0 0 1
vn -0 0 1
vn -0 0 1
vn -0 0 1
vn -0 0 1
vn -0 0 1
vn -0 0 1
vn -0 0 1
vn -0 0 1
vn -0 0 1
vn -0 0 1
vn -0 0 1
vn -0 0 1
vn -0 0 1
vn -0 0 1
vn -0 0 1
vn -0 0 1
vn -0 0 1
vn -0 0 1
vn -0 0 1
vn -0 0 1
vn -0 0 1
vn -0 0 1
vn -0 0 1
vn -0 0 1
vn -0 0 1
vn -0 0 1
vn -0 0 1
vn -0 0 1
vn -0 0 1
vn -0 0 1
vn -0 0 1
vn -0 0 1
vn -0 0 1
vn -0 0 1
vn -0 0 1
vn -0 0 1
vn -0 0 1
vn -0 0 1
vn -0 0 1
vn -0 0 1
vn -0 0 1
vn -0 0 1
vn -0 0 1
vn -0 0 1
vn -0 0 1
vn -0 0 1
vn -0 0 1
vn -0 0 1
vn -0 0 1
vn -0 0 1
vn -0 0 1
vn -0 0 1
vn -0 0 1
vn -0 0 1
vn -0 0 1
vn -0 0 1
vn -0 0 1
vn -0 0 1
vn -0 0 1
vn -0 0 1
vn -0 0 1
vn -0 0 1
vn -0 0 1
vn -0 0 1
vn -0 0 1
vn -0 0 1
vn -0 0 1
vn -0 0 1
vn -0 0 1
vn -0 0 1
vn -0 0 1
vn -0 0 1
vn -0 0 1
vn -0 0 1
vn -0 0 1
vn -0 0 1
vn -0 0 1
vn -0 0 1
vn -0 0 1
vn -0 0 1
vn -0 0 1
vn -0 0 1
vn -0 0 1
vn -0 0 1
vn -0 0 1
vn -0 0 1
vn -0 0 1
vn -0 0 1
vn -0 0 1
vn -0 0 1
vn -0 0 1
vn -0 0 1
vn -0 0 1
vn -0 0 1
vn -0 0 1
vn -0 0 1
vn -0 0 1
vn -0 0 1
vn -0 0 1
vn -0 0 1
vn -0 0 1
vn -0 0 1
vn -0 0 1
vn -0 0 1
vn -0 0 1
vn -0 0 1
vn -0 0 1
vn -0 0 1
vn -0 0 1
vn -0 0 1
vn -0 0 1
vn -0 0 1
vn -0 0 1
vn -0 0 1
vn -0 0 1
vn -0 0 1
vn -0 0 1
vn -0 0 1
vn -0 0 1
vn -0 0 1
vn -0 0 1
vn -0 0 1
vn -0 0 1
vn -0 0 1
vn -0 0 1
vn -0 0 1
vn -0 0 1
vn -0 0 1
vn -0 0 1
vn -0 0 1
vn -0 0 1
vn -0 0 1
vn -0 0 1
vn -0 0 1
vn -0 0 1
vn -0 0 1
vn -0 0 1
vn -0 0 1
vn -0 0 1
vn -0 0 1
vn -0 0 1
vn -0 0 1
vn -0 0 1
vn -0 0 1
vn -0 0 1
vn -0 0 1
vn -0 0 1
vn -0 0 1
vn -0 0 1
vn -0 0 1
vn -0 0 1
vn -0 0 1
vn -0 0 1
vn -0 0 1
vn -0 0 1
vn -0 0 1
vn -0 0 1
vn -0 0 1
vn -0 0 1
vn -0 0 1
vn -0 0 1
vn -0 0 1
vn -0 0 1
vn -0 0 1
vn -0 0 1
vn -0 0 1
vn -0 0 1
vn -0 0 1
vn -0 0 1
vn -0 0 1
vn -0 0 1
vn -0 0 1
vn -0 0 1
vn -0 0 1
vn -0 0 1
vn -0 0 1
vn -0 0 1
vn -0 0 1
vn -0 0 1
vn -0 0 1
vn -0 0 1
vn -0 0 1
vn -0 0 1
vn -0 0 1
vn -0 0 1
vn -0 0 1
vn -0 0 1
vn -0 0 1
vn -0 0 1
vn -0 0 1
vn -0 0 1
vn -0 0 1
vn -0 0 1
vn -0 0 1
vn -0 0 1
vn -0 0 1
vn -0 0 1
vn -0 0 1
vn -0 0 1
vn -0 0 1
vn -0 0 1
vn -0 0 1
vn -0 0 1
vn -0 0 1
vn -0 0 1
vn -0 0 1
vn -0 0 1
vn -0 0 1
vn -0 0 1
vn -0 0 1
vn -0 0 1
vn -0 0 1
vn -0 0 1
vn -0 0 1
vn -0 0 1
vn -0 0 1
vn -0 0 1
vn -0 0 1
vn -0 0 1
vn -0 0 1
vn -0 0 1
vn -0 0 1
vn -0 0 1
vn -0 0 1
vn -0 0 1
vn -0 0 1
vn -0 0 1
vn -0 0 1
vn -0 0 1
vn -0 0 1
vn -0 0 1
vn -0 0 1
vn -0 0 1
vn -0 0 1
vn -0 0 1
vn -0 0 1
vn -0 0 1
vn -0 0 1
vn -0 0 1
vn -0 0 1
vn -0 0 1
vn -0 0 1
vn -0 0 1
vn -0 0 1
vn -0 0 1
vn -0 0 1
vn -0 0 1
vn -0 0 1
vn -0 0 1
vn -0 0 1
vn -0 0 1
vn -0 0 1
vn -0 0 1
vn -0 0 1
vn -0 0 1
vn -0 0 1
vn -0 0 1
vn -0 0 1
vn -0 0 1
vn -0 0 1
vn -0 0 1
vn -0 0 1
vn -0 0 1
vn -0 0 1
vn -0 0 1
vn -0 0 1
vn -0 0 1
vn -0 0 1
vn -0 0 1
vn -0 0 1
vn -0 0 1
vn -0 0 1
vn -0 0 1
vn -0 0 1
vn -0 0 1
vn -0 0 1
vn -0 0 1
vn -0 0 1
vn -0 0 1
vn -0 0 1
vn -0 0 1
vn -0 0 1
vn -0 0 1
vn -0 0 1
vn -0 0 1
vn -0 0 1
vn -0 0 1
vn -0 0 1
vn -0 0 1
vn -0 0 1
vn -0 0 1
vn -0 0 1
vn -0 0 1
vn -0 0 1
vn -0 0 1
vn -0 0 1
vn -0 0 1
vn -0 0 1
vn -0 0 1
vn -0 0 1
vn -0 0 1
vn -0 0 1
vn -0 0 1
vn -0 0 1
vn -0 0 1
vn -0 0 1
vn -0 0 1
vn -0 0 1
vn -0 0 1
vn -0 0 1
vn -0 0 1
vn -0 0 1
vn -0 0 1
vn -0 0 1
vn -0 0 1
vn -0 0 1
vn -0 0 1
vn -0 0 1
vn -0 0 1
vn -0 0 1
vn -0 0 1
vn -0 0 1
vn -0 0 1
vn -0 0 1
vn -0 0 1
vn -0 0 1
vn -0 0 1
vn -0 0 1
vn -0 0 1
vn -0 0 1
vn -0 0 1
vn -0 0 1
vn -0 0 1
vn -0 0 1
vn -0 0 1
vn -0 0 1
vn -0 0 1
vn -0 0 1
vn -0 0 1
vn -0 0 1
vn -0 0 1
vn -0 0 1
vn -0 0 1
vn -0 0 1
vn -0 0 1
vn -0 0 1
vn -0 0 1
vn -0 0 1
vn -0 0 1
vn -0 0 1
vn -0 0 1
vn -0 0 1
vn -0 0 1
vn -0 0 1
vn -0 0 1
vn -0 0 1
vn -0 0 1
vn -0 0 1
vn -0 0 1
vn -0 0 1
vn -0 0 1
vn -0 0 1
vn -0 0 1
vn -0 0 1
vn -0 0 1
vn -0 0 1
vn -0 0 1
vn -0 0 1
vn -0 0 1
vn -0 0 1
vn -0 0 1
vn -0 0 1
vn -0 0 1
vn -0 0 1
vn -0 0 1
vn -0 0 1
vn -0 0 1
vn -0 0 1
vn -0 0 1
vn -0 0 1
vn -0 0 1
vn -0 0 1
vn -0 0 1
vn -0 0 1
vn -0 0 1
vn -0 0 1
vn -0 0 1
vn -0 0 1
vn -0 0 1
vn -0 0 1
vn -0 0 1
vn -0 0 1
vn -0 0 1
vn -0 0 1
vn -0 0 1
vn -0 0 1
vn -0 0 1
vn -0 0 1
vn -0 0 1
vn -0 0 1
vn -0 0 1
vn -0 0 1
vn -0 0 1
vn -0 0 1
vn -0 0 1
vn -0 0 1
vn -0 0 1
vn -0 0 1
vn -0 0 1
vn -0 0 1
vn -0 0 1
vn -0 0 1
vn -0 0 1
vn -0 0 1
vn -0 0 1
vn -0 0 1
vn -0 0 1
vn -0 0 1
vn -0 0 1
vn -0 0 1
vn -0 0 1
vn -0 0 1
vn -0 0 1
vn -0 0 1
vn -0 0 1
vn -0 0 1
vn -0 0 1
vn -0 0 1
vn -0 0 1
vn -0 0 1
vn -0 0 1
vn -0 0 1
vn -0 0 1
vn -0 0 1
vn -0 0 1
vn -0 0 1
vn -0 0 1
vn -0 0 1
vn -0 0 1
vn -0 0 1
vn -0 0 1
vn -0 0 1
vn -0 0 1
vn -0 0 1
vn -0 0 1
vn -0 0 1
vn -0 0 1
vn -0 0 1
vn -0 0 1
vn -0 0 1
vn -0 0 1
vn -0 0 1
vn -0 0 1
vn -0 0 1
vn -0 0 1
vn -0 0 1
vn -0 0 1
vn -0 0 1
vn -0 0 1
vn -0 0 1
vn -0 0 1
vn -0 0 1
vn -0 0 1
vn -0 0 1
vn -0 0 1
vn -0 0 1
vn -0 0 1
vn -0 0 1
vn -0 0 1
vn -0 0 1
vn -0 0 1
vn -0 0 1
vn -0 0 1
vn -0 0 1
vn -0 0 1
vn -0 0 1
vn -0 0 1
vn -0 0 1
vn -0 0 1
vn -0 0 1
vn -0 0 1
vn -0 0 1
vn -0 0 1
vn -0 0 1
vn -0 0 1
vn -0 0 1
vn -0 0 1
vn -0 0 1
vn -0 0 1
vn -0 0 1
vn -0 0 1
vn -0 0 1
vn -0 0 1
vn -0 0 1
vn -0 0 1
vn -0 0 1
vn -0 0 1
vn -0 0 1
vn -0 0 1
vn -0 0 1
vn -0 0 1
vn -0 0 1
vn -0 0 1
vn -0 0 1
vn -0 0 1
vn -0 0 1
vn -0 0 1
vn -0 0 1
vn -0 0 1
vn -0 0 1
vn -0 0 1
vn -0 0 1
vn -0 0 1
vn -0 0 1
vn -0 0 1
vn -0 0 1
vn -0 0 1
vn -0 0 1
vn -0 0 1
vn -0 0 1
vn -0 0 1
vn -0 0 1
vn -0 0 1
vn -0 0 1
vn -0 0 1
vn -0 0 1
vn -0 0 1
vn -0 0 1
vn -0 0 1
vn -0 0 1
vn -0 0 1
vn -0 0 1
vn -0 0 1
vn -0 0 1
vn -0 0 1
vn -0 0 1
vn -0 0 1
vn -0 0 1
vn -0 0 1
vn -0 0 1
vn -0 0 1
vn -0 0 1
vn -0 0 1
vn -0 0 1
vn -0 0 1
vn -0 0 1
vn -0 0 1
vn -0 0 1
vn -0 0 1
vn -0 0 1
vn -0 0 1
vn -0 0 1
vn -0 0 1
vn -0 0 1
vn -0 0 1
vn -0 0 1
vn -0 0 1
vn -0 0 1
vn -0 0 1
vn -0 0 1
vn -0 0 1
vn -0 0 1
vn -0 0 1
vn -0 0 1
vn -0 0 1
vn -0 0 1
vn -0 0 1
vn -0 0 1
vn -0 0 1
vn -0 0 1
vn -0 0 1
vn -0 0 1
vn -0 0 1
vn -0 0 1
vn -0 0 1
vn -0 0 1
vn -0 0 1
vn -0 0 1
vn -0 0 1
vn -0 0 1
vn -0 0 1
vn -0 0 1
vn -0 0 1
vn -0 0 1
vn -0 0 1
vn -0 0 1
vn -0 0 1
vn -0 0 1
vn -0 0 1
vn -0 0 1
vn -0 0 1
vn -0 0 1
vn -0 0 1
vn -0 0 1
vn -0 0 1
vn -0 0 1
g Cylinder001_0
f 3/3/3 2/2/2 1/1/1
f 2/2/2 4/4/4 1/1/1
f 1/1/1 4/4/4 5/5/5
f 4/4/4 6/6/6 5/5/5
f 4/4/4 7/7/7 6/6/6
f 5/5/5 6/6/6 8/8/8
f 7/7/7 9/9/9 6/6/6
f 6/6/6 10/10/10 8/8/8
f 6/6/6 9/9/9 10/10/10
f 8/8/8 10/10/10 11/11/11
f 10/10/10 12/12/12 11/11/11
f 11/11/11 12/12/12 13/13/13
f 9/9/9 14/14/14 10/10/10
f 12/12/12 15/15/15 13/13/13
f 13/13/13 15/15/15 16/16/16
f 12/12/12 17/17/17 15/15/15
f 15/15/15 18/18/18 16/16/16
f 16/16/16 18/18/18 19/19/19
f 18/18/18 20/20/20 19/19/19
f 19/19/19 20/20/20 21/21/21
f 20/20/20 22/22/22 21/21/21
f 21/21/21 22/22/22 23/23/23
f 20/20/20 24/24/24 22/22/22
f 9/9/9 25/25/25 14/14/14
f 25/25/25 26/26/26 14/14/14
f 22/22/22 27/27/27 23/23/23
f 23/23/23 27/27/27 28/28/28
f 24/24/24 29/29/29 22/22/22
f 22/22/22 29/29/29 27/27/27
f 29/29/29 30/30/30 27/27/27
f 24/24/24 31/31/31 29/29/29
f 27/27/27 32/32/32 28/28/28
f 27/27/27 33/33/33 32/32/32
f 28/28/28 32/32/32 34/34/34
f 33/33/33 35/35/35 32/32/32
f 32/32/32 36/36/36 34/34/34
f 32/32/32 35/35/35 36/36/36
f 34/34/34 36/36/36 37/37/37
f 36/36/36 38/38/38 37/37/37
f 37/37/37 38/38/38 39/39/39
f 38/38/38 40/40/40 39/39/39
f 39/39/39 40/40/40 41/41/41
f 40/40/40 42/42/42 41/41/41
f 41/41/41 42/42/42 43/43/43
f 42/42/42 44/44/44 43/43/43
f 43/43/43 44/44/44 45/45/45
f 42/42/42 46/46/46 44/44/44
f 44/44/44 47/47/47 45/45/45
f 45/45/45 47/47/47 48/48/48
f 47/47/47 49/49/49 48/48/48
f 48/48/48 49/49/49 50/50/50
f 46/46/46 51/51/51 44/44/44
f 49/49/49 52/52/52 50/50/50
f 50/50/50 52/52/52 53/53/53
f 49/49/49 54/54/54 52/52/52
f 52/52/52 55/55/55 53/53/53
f 54/54/54 56/56/56 52/52/52
f 53/53/53 55/55/55 57/57/57
f 54/54/54 58/58/58 56/56/56
f 58/58/58 59/59/59 56/56/56
f 55/55/55 60/60/60 57/57/57
f 57/57/57 60/60/60 61/61/61
f 60/60/60 62/62/62 61/61/61
f 60/60/60 63/63/63 62/62/62
f 61/61/61 62/62/62 64/64/64
f 63/63/63 65/65/65 62/62/62
f 62/62/62 66/66/66 64/64/64
f 62/62/62 65/65/65 66/66/66
f 64/64/64 66/66/66 67/67/67
f 65/65/65 68/68/68 66/66/66
f 65/65/65 69/69/69 68/68/68
f 66/66/66 70/70/70 67/67/67
f 66/66/66 71/71/71 70/70/70
f 67/67/67 70/70/70 72/72/72
f 71/71/71 73/73/73 70/70/70
f 70/70/70 74/74/74 72/72/72
f 70/70/70 73/73/73 74/74/74
f 72/72/72 74/74/74 75/75/75
f 73/73/73 76/76/76 74/74/74
f 73/73/73 77/77/77 76/76/76
f 77/77/77 78/78/78 76/76/76
f 77/77/77 79/79/79 78/78/78
f 74/74/74 80/80/80 75/75/75
f 75/75/75 80/80/80 81/81/81
f 74/74/74 82/82/82 80/80/80
f 80/80/80 83/83/83 81/81/81
f 81/81/81 83/83/83 84/84/84
f 82/82/82 85/85/85 80/80/80
f 80/80/80 85/85/85 83/83/83
f 82/82/82 86/86/86 85/85/85
f 86/86/86 87/87/87 85/85/85
f 83/83/83 88/88/88 84/84/84
f 84/84/84 88/88/88 89/89/89
f 85/85/85 90/90/90 83/83/83
f 83/83/83 90/90/90 88/88/88
f 85/85/85 87/87/87 90/90/90
f 87/87/87 91/91/91 90/90/90
f 90/90/90 92/92/92 88/88/88
f 88/88/88 93/93/93 89/89/89
f 89/89/89 93/93/93 94/94/94
f 93/93/93 95/95/95 94/94/94
f 94/94/94 95/95/95 96/96/96
f 95/95/95 97/97/97 96/96/96
f 96/96/96 97/97/97 98/98/98
f 95/95/95 99/99/99 97/97/97
f 97/97/97 100/100/100 98/98/98
f 98/98/98 100/100/100 101/101/101
f 100/100/100 102/102/102 101/101/101
f 99/99/99 103/103/103 97/97/97
f 99/99/99 104/104/104 103/103/103
f 104/104/104 105/105/105 103/103/103
f 107/107/107 106/106/106 102/102/102
f 106/106/106 108/108/108 102/102/102
f 110/110/110 109/109/109 105/105/105
f 111/111/111 110/110/110 105/105/105
f 110/110/110 112/112/112 109/109/109
f 112/112/112 113/113/113 109/109/109
f 114/114/114 112/112/112 110/110/110
f 115/115/115 110/110/110 111/111/111
f 116/116/116 115/115/115 111/111/111
f 116/116/116 111/111/111 117/117/117
f 118/118/118 114/114/114 110/110/110
f 119/119/119 116/116/116 117/117/117
f 120/120/120 116/116/116 119/119/119
f 121/121/121 120/120/120 119/119/119
f 121/121/121 119/119/119 122/122/122
f 123/123/123 121/121/121 122/122/122
f 124/124/124 114/114/114 118/118/118
f 125/125/125 124/124/124 118/118/118
f 120/120/120 125/125/125 126/126/126
f 125/125/125 118/118/118 126/126/126
f 124/124/124 127/127/127 114/114/114
f 127/127/127 128/128/128 114/114/114
f 114/114/114 128/128/128 129/129/129
f 128/128/128 130/130/130 129/129/129
f 127/127/127 131/131/131 128/128/128
f 131/131/131 132/132/132 128/128/128
f 131/131/131 133/133/133 132/132/132
f 133/133/133 134/134/134 132/132/132
f 135/135/135 127/127/127 124/124/124
f 136/136/136 135/135/135 124/124/124
f 135/135/135 137/137/137 127/127/127
f 137/137/137 138/138/138 127/127/127
f 139/139/139 137/137/137 135/135/135
f 140/140/140 139/139/139 135/135/135
f 142/142/142 141/141/141 138/138/138
f 143/143/143 142/142/142 138/138/138
f 136/136/136 145/145/145 144/144/144
f 146/146/146 136/136/136 144/144/144
f 148/148/148 144/144/144 147/147/147
f 149/149/149 148/148/148 147/147/147
f 149/149/149 147/147/147 92/92/92
f 150/150/150 149/149/149 92/92/92
f 151/151/151 148/148/148 149/149/149
f 87/87/87 151/151/151 149/149/149
f 152/152/152 151/151/151 87/87/87
f 78/78/78 152/152/152 87/87/87
f 79/79/79 152/152/152 78/78/78
f 79/79/79 153/153/153 152/152/152
f 153/153/153 154/154/154 152/152/152
f 152/152/152 154/154/154 155/155/155
f 154/154/154 156/156/156 155/155/155
f 157/157/157 153/153/153 79/79/79
f 158/158/158 157/157/157 79/79/79
f 157/157/157 159/159/159 153/153/153
f 158/158/158 79/79/79 160/160/160
f 161/161/161 158/158/158 160/160/160
f 159/159/159 162/162/162 153/153/153
f 159/159/159 163/163/163 162/162/162
f 163/163/163 164/164/164 162/162/162
f 166/166/166 160/160/160 165/165/165
f 68/68/68 166/166/166 165/165/165
f 69/69/69 166/166/166 68/68/68
f 69/69/69 167/167/167 166/166/166
f 167/167/167 168/168/168 166/166/166
f 167/167/167 169/169/169 168/168/168
f 169/169/169 170/170/170 168/168/168
f 169/169/169 171/171/171 170/170/170
f 171/171/171 172/172/172 170/170/170
f 171/171/171 173/173/173 172/172/172
f 173/173/173 174/174/174 172/172/172
f 175/175/175 171/171/171 169/169/169
f 176/176/176 175/175/175 169/169/169
f 176/176/176 169/169/169 167/167/167
f 177/177/177 176/176/176 167/167/167
f 177/177/177 167/167/167 69/69/69
f 178/178/178 177/177/177 69/69/69
f 178/178/178 69/69/69 179/179/179
f 180/180/180 178/178/178 179/179/179
f 181/181/181 178/178/178 180/180/180
f 182/182/182 181/181/181 180/180/180
f 181/181/181 183/183/183 178/178/178
f 183/183/183 184/184/184 178/178/178
f 183/183/183 185/185/185 184/184/184
f 185/185/185 186/186/186 184/184/184
f 187/187/187 181/181/181 182/182/182
f 188/188/188 187/187/187 182/182/182
f 188/188/188 182/182/182 189/189/189
f 190/190/190 188/188/188 189/189/189
f 187/187/187 191/191/191 181/181/181
f 191/191/191 192/192/192 181/181/181
f 193/193/193 191/191/191 187/187/187
f 58/58/58 193/193/193 187/187/187
f 191/191/191 194/194/194 192/192/192
f 194/194/194 195/195/195 192/192/192
f 194/194/194 196/196/196 195/195/195
f 197/197/197 194/194/194 191/191/191
f 196/196/196 198/198/198 195/195/195
f 195/195/195 198/198/198 186/186/186
f 198/198/198 199/199/199 186/186/186
f 200/200/200 197/197/197 191/191/191
f 198/198/198 201/201/201 199/199/199
f 201/201/201 202/202/202 199/199/199
f 203/203/203 201/201/201 198/198/198
f 204/204/204 203/203/203 198/198/198
f 203/203/203 205/205/205 201/201/201
f 205/205/205 206/206/206 201/201/201
f 207/207/207 203/203/203 204/204/204
f 208/208/208 207/207/207 204/204/204
f 208/208/208 204/204/204 209/209/209
f 197/197/197 208/208/208 209/209/209
f 210/210/210 208/208/208 197/197/197
f 211/211/211 210/210/210 197/197/197
f 211/211/211 197/197/197 200/200/200
f 212/212/212 211/211/211 200/200/200
f 212/212/212 200/200/200 213/213/213
f 214/214/214 212/212/212 213/213/213
f 215/215/215 212/212/212 214/214/214
f 216/216/216 215/215/215 214/214/214
f 207/207/207 218/218/218 217/217/217
f 218/218/218 219/219/219 217/217/217
f 221/221/221 213/213/213 220/220/220
f 222/222/222 221/221/221 220/220/220
f 222/222/222 220/220/220 223/223/223
f 224/224/224 222/222/222 223/223/223
f 215/215/215 226/226/226 225/225/225
f 226/226/226 227/227/227 225/225/225
f 226/226/226 228/228/228 227/227/227
f 228/228/228 229/229/229 227/227/227
f 228/228/228 231/231/231 230/230/230
f 231/231/231 232/232/232 230/230/230
f 230/230/230 232/232/232 233/233/233
f 231/231/231 234/234/234 232/232/232
f 234/234/234 235/235/235 232/232/232
f 232/232/232 236/236/236 233/233/233
f 232/232/232 237/237/237 236/236/236
f 237/237/237 238/238/238 236/236/236
f 241/241/241 240/240/240 239/239/239
f 240/240/240 242/242/242 239/239/239
f 239/239/239 242/242/242 243/243/243
f 242/242/242 240/240/240 244/244/244
f 242/242/242 245/245/245 243/243/243
f 243/243/243 245/245/245 246/246/246
f 247/247/247 242/242/242 244/244/244
f 245/245/245 242/242/242 247/247/247
f 247/247/247 244/244/244 248/248/248
f 245/245/245 249/249/249 246/246/246
f 246/246/246 249/249/249 250/250/250
f 251/251/251 247/247/247 248/248/248
f 251/251/251 248/248/248 252/252/252
f 253/253/253 245/245/245 247/247/247
f 249/249/249 245/245/245 253/253/253
f 253/253/253 247/247/247 251/251/251
f 249/249/249 254/254/254 250/250/250
f 250/250/250 254/254/254 255/255/255
f 256/256/256 251/251/251 252/252/252
f 256/256/256 252/252/252 257/257/257
f 258/258/258 249/249/249 253/253/253
f 254/254/254 249/249/249 258/258/258
f 259/259/259 253/253/253 251/251/251
f 259/259/259 251/251/251 256/256/256
f 258/258/258 253/253/253 259/259/259
f 254/254/254 260/260/260 255/255/255
f 255/255/255 260/260/260 261/261/261
f 262/262/262 256/256/256 257/257/257
f 262/262/262 257/257/257 263/263/263
f 264/264/264 259/259/259 256/256/256
f 264/264/264 256/256/256 262/262/262
f 265/265/265 262/262/262 263/263/263
f 266/266/266 262/262/262 265/265/265
f 266/266/266 264/264/264 262/262/262
f 267/267/267 266/266/266 265/265/265
f 268/268/268 258/258/258 259/259/259
f 268/268/268 259/259/259 264/264/264
f 269/269/269 254/254/254 258/258/258
f 260/260/260 254/254/254 269/269/269
f 269/269/269 258/258/258 268/268/268
f 260/260/260 270/270/270 261/261/261
f 261/261/261 270/270/270 271/271/271
f 272/272/272 268/268/268 264/264/264
f 272/272/272 264/264/264 266/266/266
f 273/273/273 269/269/269 268/268/268
f 273/273/273 268/268/268 272/272/272
f 274/274/274 260/260/260 269/269/269
f 270/270/270 260/260/260 274/274/274
f 274/274/274 269/269/269 273/273/273
f 270/270/270 275/275/275 271/271/271
f 271/271/271 275/275/275 276/276/276
f 277/277/277 270/270/270 274/274/274
f 275/275/275 270/270/270 277/277/277
f 278/278/278 274/274/274 273/273/273
f 277/277/277 274/274/274 278/278/278
f 279/279/279 273/273/273 272/272/272
f 278/278/278 273/273/273 279/279/279
f 280/280/280 272/272/272 266/266/266
f 279/279/279 272/272/272 280/280/280
f 275/275/275 281/281/281 276/276/276
f 276/276/276 281/281/281 282/282/282
f 283/283/283 275/275/275 277/277/277
f 281/281/281 275/275/275 283/283/283
f 284/284/284 277/277/277 278/278/278
f 283/283/283 277/277/277 284/284/284
f 285/285/285 280/280/280 266/266/266
f 267/267/267 285/285/285 266/266/266
f 286/286/286 279/279/279 280/280/280
f 286/286/286 280/280/280 285/285/285
f 287/287/287 278/278/278 279/279/279
f 284/284/284 278/278/278 287/287/287
f 287/287/287 279/279/279 286/286/286
f 281/281/281 288/288/288 282/282/282
f 282/282/282 288/288/288 289/289/289
f 290/290/290 281/281/281 283/283/283
f 288/288/288 281/281/281 290/290/290
f 291/291/291 283/283/283 284/284/284
f 290/290/290 283/283/283 291/291/291
f 292/292/292 284/284/284 287/287/287
f 291/291/291 284/284/284 292/292/292
f 293/293/293 287/287/287 286/286/286
f 292/292/292 287/287/287 293/293/293
f 288/288/288 294/294/294 289/289/289
f 289/289/289 294/294/294 295/295/295
f 296/296/296 288/288/288 290/290/290
f 294/294/294 288/288/288 296/296/296
f 297/297/297 290/290/290 291/291/291
f 296/296/296 290/290/290 297/297/297
f 298/298/298 291/291/291 292/292/292
f 297/297/297 291/291/291 298/298/298
f 294/294/294 299/299/299 295/295/295
f 295/295/295 299/299/299 300/300/300
f 301/301/301 294/294/294 296/296/296
f 299/299/299 294/294/294 301/301/301
f 302/302/302 296/296/296 297/297/297
f 301/301/301 296/296/296 302/302/302
f 299/299/299 303/303/303 300/300/300
f 300/300/300 303/303/303 304/304/304
f 305/305/305 299/299/299 301/301/301
f 303/303/303 299/299/299 305/305/305
f 303/303/303 306/306/306 304/304/304
f 304/304/304 306/306/306 307/307/307
f 298/298/298 292/292/292 308/308/308
f 308/308/308 292/292/292 293/293/293
f 309/309/309 297/297/297 298/298/298
f 302/302/302 297/297/297 309/309/309
f 310/310/310 301/301/301 302/302/302
f 305/305/305 301/301/301 310/310/310
f 311/311/311 303/303/303 305/305/305
f 306/306/306 303/303/303 311/311/311
f 306/306/306 312/312/312 307/307/307
f 307/307/307 312/312/312 313/313/313
f 314/314/314 298/298/298 308/308/308
f 309/309/309 298/298/298 314/314/314
f 315/315/315 302/302/302 309/309/309
f 310/310/310 302/302/302 315/315/315
f 316/316/316 305/305/305 310/310/310
f 311/311/311 305/305/305 316/316/316
f 317/317/317 306/306/306 311/311/311
f 312/312/312 306/306/306 317/317/317
f 312/312/312 318/318/318 313/313/313
f 313/313/313 318/318/318 319/319/319
f 320/320/320 309/309/309 314/314/314
f 315/315/315 309/309/309 320/320/320
f 321/321/321 310/310/310 315/315/315
f 316/316/316 310/310/310 321/321/321
f 322/322/322 311/311/311 316/316/316
f 317/317/317 311/311/311 322/322/322
f 323/323/323 312/312/312 317/317/317
f 318/318/318 312/312/312 323/323/323
f 318/318/318 324/324/324 319/319/319
f 319/319/319 324/324/324 325/325/325
f 326/326/326 315/315/315 320/320/320
f 321/321/321 315/315/315 326/326/326
f 327/327/327 316/316/316 321/321/321
f 322/322/322 316/316/316 327/327/327
f 328/328/328 317/317/317 322/322/322
f 323/323/323 317/317/317 328/328/328
f 329/329/329 318/318/318 323/323/323
f 324/324/324 318/318/318 329/329/329
f 324/324/324 330/330/330 325/325/325
f 325/325/325 330/330/330 331/331/331
f 332/332/332 321/321/321 326/326/326
f 327/327/327 321/321/321 332/332/332
f 333/333/333 322/322/322 327/327/327
f 328/328/328 322/322/322 333/333/333
f 334/334/334 323/323/323 328/328/328
f 329/329/329 323/323/323 334/334/334
f 335/335/335 324/324/324 329/329/329
f 330/330/330 324/324/324 335/335/335
f 330/330/330 336/336/336 331/331/331
f 331/331/331 336/336/336 337/337/337
f 338/338/338 327/327/327 332/332/332
f 333/333/333 327/327/327 338/338/338
f 339/339/339 328/328/328 333/333/333
f 334/334/334 328/328/328 339/339/339
f 340/340/340 329/329/329 334/334/334
f 335/335/335 329/329/329 340/340/340
f 341/341/341 330/330/330 335/335/335
f 336/336/336 330/330/330 341/341/341
f 336/336/336 342/342/342 337/337/337
f 337/337/337 342/342/342 343/343/343
f 344/344/344 333/333/333 338/338/338
f 339/339/339 333/333/333 344/344/344
f 345/345/345 334/334/334 339/339/339
f 340/340/340 334/334/334 345/345/345
f 346/346/346 335/335/335 340/340/340
f 341/341/341 335/335/335 346/346/346
f 347/347/347 336/336/336 341/341/341
f 342/342/342 336/336/336 347/347/347
f 342/342/342 348/348/348 343/343/343
f 343/343/343 348/348/348 349/349/349
f 350/350/350 339/339/339 344/344/344
f 345/345/345 339/339/339 350/350/350
f 351/351/351 340/340/340 345/345/345
f 346/346/346 340/340/340 351/351/351
f 352/352/352 341/341/341 346/346/346
f 347/347/347 341/341/341 352/352/352
f 353/353/353 342/342/342 347/347/347
f 348/348/348 342/342/342 353/353/353
f 348/348/348 354/354/354 349/349/349
f 349/349/349 354/354/354 355/355/355
f 356/356/356 345/345/345 350/350/350
f 351/351/351 345/345/345 356/356/356
f 357/357/357 346/346/346 351/351/351
f 352/352/352 346/346/346 357/357/357
f 358/358/358 347/347/347 352/352/352
f 353/353/353 347/347/347 358/358/358
f 359/359/359 348/348/348 353/353/353
f 354/354/354 348/348/348 359/359/359
f 354/354/354 360/360/360 355/355/355
f 355/355/355 360/360/360 361/361/361
f 362/362/362 351/351/351 356/356/356
f 357/357/357 351/351/351 362/362/362
f 363/363/363 352/352/352 357/357/357
f 358/358/358 352/352/352 363/363/363
f 364/364/364 353/353/353 358/358/358
f 359/359/359 353/353/353 364/364/364
f 365/365/365 354/354/354 359/359/359
f 360/360/360 354/354/354 365/365/365
f 360/360/360 366/366/366 361/361/361
f 361/361/361 366/366/366 367/367/367
f 368/368/368 357/357/357 362/362/362
f 363/363/363 357/357/357 368/368/368
f 369/369/369 358/358/358 363/363/363
f 364/364/364 358/358/358 369/369/369
f 370/370/370 359/359/359 364/364/364
f 365/365/365 359/359/359 370/370/370
f 371/371/371 360/360/360 365/365/365
f 366/366/366 360/360/360 371/371/371
f 366/366/366 372/372/372 367/367/367
f 367/367/367 372/372/372 373/373/373
f 374/374/374 363/363/363 368/368/368
f 369/369/369 363/363/363 374/374/374
f 375/375/375 364/364/364 369/369/369
f 370/370/370 364/364/364 375/375/375
f 376/376/376 365/365/365 370/370/370
f 371/371/371 365/365/365 376/376/376
f 377/377/377 366/366/366 371/371/371
f 372/372/372 366/366/366 377/377/377
f 372/372/372 378/378/378 373/373/373
f 373/373/373 378/378/378 379/379/379
f 380/380/380 369/369/369 374/374/374
f 375/375/375 369/369/369 380/380/380
f 381/381/381 370/370/370 375/375/375
f 376/376/376 370/370/370 381/381/381
f 382/382/382 371/371/371 376/376/376
f 377/377/377 371/371/371 382/382/382
f 383/383/383 372/372/372 377/377/377
f 378/378/378 372/372/372 383/383/383
f 378/378/378 384/384/384 379/379/379
f 379/379/379 384/384/384 385/385/385
f 386/386/386 375/375/375 380/380/380
f 381/381/381 375/375/375 386/386/386
f 387/387/387 376/376/376 381/381/381
f 382/382/382 376/376/376 387/387/387
f 388/388/388 377/377/377 382/382/382
f 383/383/383 377/377/377 388/388/388
f 389/389/389 378/378/378 383/383/383
f 384/384/384 378/378/378 389/389/389
f 384/384/384 390/390/390 385/385/385
f 385/385/385 390/390/390 391/391/391
f 392/392/392 381/381/381 386/386/386
f 387/387/387 381/381/381 392/392/392
f 393/393/393 382/382/382 387/387/387
f 388/388/388 382/382/382 393/393/393
f 394/394/394 383/383/383 388/388/388
f 389/389/389 383/383/383 394/394/394
f 395/395/395 384/384/384 389/389/389
f 390/390/390 384/384/384 395/395/395
f 390/390/390 396/396/396 391/391/391
f 391/391/391 396/396/396 397/397/397
f 392/392/392 386/386/386 398/398/398
f 398/398/398 386/386/386 380/380/380
f 399/399/399 398/398/398 380/380/380
f 399/399/399 380/380/380 374/374/374
f 400/400/400 392/392/392 398/398/398
f 401/401/401 399/399/399 374/374/374
f 401/401/401 374/374/374 368/368/368
f 399/399/399 401/401/401 402/402/402
f 403/403/403 401/401/401 368/368/368
f 404/404/404 399/399/399 402/402/402
f 403/403/403 368/368/368 362/362/362
f 404/404/404 402/402/402 405/405/405
f 406/406/406 403/403/403 362/362/362
f 407/407/407 404/404/404 405/405/405
f 406/406/406 362/362/362 356/356/356
f 407/407/407 405/405/405 408/408/408
f 409/409/409 406/406/406 356/356/356
f 410/410/410 407/407/407 408/408/408
f 409/409/409 356/356/356 350/350/350
f 410/410/410 408/408/408 411/411/411
f 412/412/412 410/410/410 411/411/411
f 413/413/413 409/409/409 350/350/350
f 413/413/413 350/350/350 344/344/344
f 414/414/414 413/413/413 344/344/344
f 414/414/414 344/344/344 338/338/338
f 415/415/415 414/414/414 338/338/338
f 415/415/415 338/338/338 332/332/332
f 416/416/416 415/415/415 332/332/332
f 415/415/415 416/416/416 417/417/417
f 173/173/173 415/415/415 417/417/417
f 417/417/417 416/416/416 164/164/164
f 416/416/416 418/418/418 164/164/164
f 416/416/416 332/332/332 418/418/418
f 332/332/332 326/326/326 418/418/418
f 418/418/418 326/326/326 419/419/419
f 326/326/326 320/320/320 419/419/419
f 419/419/419 320/320/320 420/420/420
f 320/320/320 314/314/314 420/420/420
f 420/420/420 314/314/314 421/421/421
f 314/314/314 308/308/308 421/421/421
f 421/421/421 308/308/308 422/422/422
f 308/308/308 293/293/293 422/422/422
f 422/422/422 293/293/293 423/423/423
f 293/293/293 286/286/286 423/423/423
f 423/423/423 286/286/286 285/285/285
f 419/419/419 420/420/420 424/424/424
f 425/425/425 419/419/419 424/424/424
f 424/424/424 420/420/420 426/426/426
f 420/420/420 427/427/427 426/426/426
f 425/425/425 424/424/424 428/428/428
f 423/423/423 285/285/285 429/429/429
f 430/430/430 423/423/423 429/429/429
f 430/430/430 429/429/429 130/130/130
f 431/431/431 430/430/430 130/130/130
f 429/429/429 285/285/285 432/432/432
f 285/285/285 267/267/267 432/432/432
f 433/433/433 425/425/425 428/428/428
f 434/434/434 425/425/425 433/433/433
f 435/435/435 434/434/434 433/433/433
f 435/435/435 433/433/433 154/154/154
f 436/436/436 435/435/435 154/154/154
f 154/154/154 433/433/433 437/437/437
f 433/433/433 428/428/428 437/437/437
f 437/437/437 428/428/428 438/438/438
f 428/428/428 439/439/439 438/438/438
f 437/437/437 438/438/438 440/440/440
f 441/441/441 437/437/437 440/440/440
f 429/429/429 432/432/432 442/442/442
f 443/443/443 429/429/429 442/442/442
f 442/442/442 432/432/432 444/444/444
f 442/442/442 444/444/444 445/445/445
f 446/446/446 442/442/442 445/445/445
f 446/446/446 445/445/445 447/447/447
f 448/448/448 446/446/446 447/447/447
f 432/432/432 449/449/449 444/444/444
f 432/432/432 267/267/267 449/449/449
f 267/267/267 450/450/450 449/449/449
f 444/444/444 449/449/449 451/451/451
f 449/449/449 452/452/452 451/451/451
f 443/443/443 453/453/453 113/113/113
f 454/454/454 443/443/443 113/113/113
f 455/455/455 263/263/263 452/452/452
f 456/456/456 455/455/455 452/452/452
f 458/458/458 451/451/451 457/457/457
f 459/459/459 458/458/458 457/457/457
f 459/459/459 457/457/457 460/460/460
f 461/461/461 459/459/459 460/460/460
f 461/461/461 460/460/460 462/462/462
f 463/463/463 461/461/461 462/462/462
f 463/463/463 462/462/462 108/108/108
f 448/448/448 461/461/461 463/463/463
f 464/464/464 448/448/448 463/463/463
f 465/465/465 463/463/463 108/108/108
f 464/464/464 463/463/463 465/465/465
f 466/466/466 464/464/464 465/465/465
f 466/466/466 465/465/465 467/467/467
f 468/468/468 466/466/466 467/467/467
f 471/471/471 470/470/470 469/469/469
f 472/472/472 471/471/471 469/469/469
f 474/474/474 469/469/469 473/473/473
f 26/26/26 474/474/474 473/473/473
f 475/475/475 474/474/474 26/26/26
f 25/25/25 475/475/475 26/26/26
f 476/476/476 475/475/475 25/25/25
f 477/477/477 476/476/476 25/25/25
f 477/477/477 25/25/25 9/9/9
f 478/478/478 477/477/477 9/9/9
f 479/479/479 477/477/477 478/478/478
f 480/480/480 479/479/479 478/478/478
f 476/476/476 481/481/481 475/475/475
f 482/482/482 481/481/481 476/476/476
f 483/483/483 482/482/482 476/476/476
f 479/479/479 483/483/483 484/484/484
f 483/483/483 485/485/485 484/484/484
f 482/482/482 486/486/486 481/481/481
f 481/481/481 487/487/487 475/475/475
f 475/475/475 487/487/487 488/488/488
f 487/487/487 489/489/489 488/488/488
f 487/487/487 490/490/490 489/489/489
f 490/490/490 491/491/491 489/489/489
f 490/490/490 492/492/492 491/491/491
f 492/492/492 493/493/493 491/491/491
f 492/492/492 494/494/494 493/493/493
f 494/494/494 495/495/495 493/493/493
f 486/486/486 496/496/496 481/481/481
f 481/481/481 496/496/496 497/497/497
f 486/486/486 498/498/498 496/496/496
f 496/496/496 499/499/499 497/497/497
f 498/498/498 500/500/500 496/496/496
f 496/496/496 500/500/500 499/499/499
f 498/498/498 501/501/501 500/500/500
f 501/501/501 502/502/502 500/500/500
f 500/500/500 503/503/503 499/499/499
f 504/504/504 494/494/494 503/503/503
f 505/505/505 504/504/504 503/503/503
f 501/501/501 506/506/506 504/504/504
f 506/506/506 507/507/507 504/504/504
f 504/504/504 507/507/507 494/494/494
f 506/506/506 508/508/508 507/507/507
f 507/507/507 509/509/509 494/494/494
f 494/494/494 509/509/509 495/495/495
f 508/508/508 510/510/510 507/507/507
f 507/507/507 510/510/510 509/509/509
f 508/508/508 511/511/511 510/510/510
f 509/509/509 512/512/512 495/495/495
f 495/495/495 512/512/512 513/513/513
f 510/510/510 514/514/514 509/509/509
f 509/509/509 514/514/514 512/512/512
f 511/511/511 515/515/515 510/510/510
f 510/510/510 515/515/515 514/514/514
f 511/511/511 516/516/516 515/515/515
f 516/516/516 517/517/517 515/515/515
f 516/516/516 518/518/518 517/517/517
f 515/515/515 519/519/519 514/514/514
f 515/515/515 517/517/517 519/519/519
f 514/514/514 520/520/520 512/512/512
f 514/514/514 519/519/519 520/520/520
f 518/518/518 521/521/521 517/517/517
f 521/521/521 518/518/518 522/522/522
f 523/523/523 521/521/521 522/522/522
f 517/517/517 524/524/524 519/519/519
f 517/517/517 521/521/521 524/524/524
f 525/525/525 521/521/521 523/523/523
f 521/521/521 525/525/525 524/524/524
f 526/526/526 525/525/525 523/523/523
f 519/519/519 524/524/524 527/527/527
f 519/519/519 527/527/527 520/520/520
f 512/512/512 520/520/520 528/528/528
f 512/512/512 528/528/528 513/513/513
f 529/529/529 525/525/525 526/526/526
f 397/397/397 529/529/529 526/526/526
f 396/396/396 529/529/529 397/397/397
f 524/524/524 525/525/525 530/530/530
f 525/525/525 529/529/529 530/530/530
f 524/524/524 530/530/530 527/527/527
f 520/520/520 527/527/527 531/531/531
f 520/520/520 531/531/531 528/528/528
f 529/529/529 396/396/396 532/532/532
f 530/530/530 529/529/529 532/532/532
f 527/527/527 530/530/530 533/533/533
f 527/527/527 533/533/533 531/531/531
f 530/530/530 532/532/532 533/533/533
f 532/532/532 396/396/396 534/534/534
f 396/396/396 390/390/390 534/534/534
f 534/534/534 390/390/390 395/395/395
f 533/533/533 532/532/532 535/535/535
f 532/532/532 534/534/534 535/535/535
f 531/531/531 533/533/533 536/536/536
f 533/533/533 535/535/535 536/536/536
f 528/528/528 531/531/531 537/537/537
f 531/531/531 536/536/536 537/537/537
f 534/534/534 395/395/395 538/538/538
f 535/535/535 534/534/534 538/538/538
f 528/528/528 537/537/537 539/539/539
f 513/513/513 528/528/528 539/539/539
f 513/513/513 539/539/539 540/540/540
f 541/541/541 513/513/513 540/540/540
f 539/539/539 537/537/537 542/542/542
f 537/537/537 536/536/536 542/542/542
f 543/543/543 539/539/539 542/542/542
f 536/536/536 535/535/535 544/544/544
f 536/536/536 544/544/544 542/542/542
f 535/535/535 538/538/538 544/544/544
f 543/543/543 542/542/542 545/545/545
f 542/542/542 544/544/544 545/545/545
f 546/546/546 543/543/543 545/545/545
f 538/538/538 395/395/395 547/547/547
f 395/395/395 389/389/389 547/547/547
f 547/547/547 389/389/389 394/394/394
f 544/544/544 538/538/538 548/548/548
f 544/544/544 548/548/548 545/545/545
f 538/538/538 547/547/547 548/548/548
f 547/547/547 394/394/394 549/549/549
f 548/548/548 547/547/547 549/549/549
f 545/545/545 548/548/548 550/550/550
f 546/546/546 545/545/545 550/550/550
f 548/548/548 549/549/549 550/550/550
f 549/549/549 394/394/394 551/551/551
f 394/394/394 388/388/388 551/551/551
f 551/551/551 388/388/388 393/393/393
f 550/550/550 549/549/549 552/552/552
f 549/549/549 551/551/551 552/552/552
f 551/551/551 393/393/393 553/553/553
f 552/552/552 551/551/551 553/553/553
f 554/554/554 550/550/550 552/552/552
f 554/554/554 546/546/546 550/550/550
f 553/553/553 393/393/393 555/555/555
f 393/393/393 387/387/387 555/555/555
f 555/555/555 387/387/387 392/392/392
f 556/556/556 552/552/552 553/553/553
f 556/556/556 554/554/554 552/552/552
f 557/557/557 555/555/555 392/392/392
f 400/400/400 557/557/557 392/392/392
f 558/558/558 553/553/553 555/555/555
f 558/558/558 556/556/556 553/553/553
f 557/557/557 558/558/558 555/555/555
f 558/558/558 557/557/557 559/559/559
f 560/560/560 558/558/558 559/559/559
f 557/557/557 400/400/400 561/561/561
f 559/559/559 557/557/557 561/561/561
f 559/559/559 561/561/561 562/562/562
f 563/563/563 559/559/559 562/562/562
f 561/561/561 400/400/400 564/564/564
f 400/400/400 565/565/565 564/564/564
f 561/561/561 564/564/564 566/566/566
f 567/567/567 561/561/561 566/566/566
f 567/567/567 566/566/566 568/568/568
f 568/568/568 566/566/566 569/569/569
f 566/566/566 570/570/570 569/569/569
f 568/568/568 569/569/569 571/571/571
f 572/572/572 567/567/567 568/568/568
f 573/573/573 567/567/567 572/572/572
f 574/574/574 568/568/568 571/571/571
f 572/572/572 568/568/568 574/574/574
f 575/575/575 573/573/573 572/572/572
f 576/576/576 572/572/572 574/574/574
f 575/575/575 572/572/572 576/576/576
f 577/577/577 575/575/575 576/576/576
f 577/577/577 576/576/576 578/578/578
f 579/579/579 577/577/577 578/578/578
f 579/579/579 578/578/578 580/580/580
f 581/581/581 575/575/575 577/577/577
f 582/582/582 581/581/581 577/577/577
f 583/583/583 573/573/573 575/575/575
f 581/581/581 583/583/583 575/575/575
f 583/583/583 584/584/584 573/573/573
f 584/584/584 585/585/585 573/573/573
f 586/586/586 584/584/584 583/583/583
f 587/587/587 586/586/586 583/583/583
f 587/587/587 583/583/583 581/581/581
f 588/588/588 587/587/587 581/581/581
f 589/589/589 579/579/579 580/580/580
f 589/589/589 580/580/580 38/38/38
f 38/38/38 580/580/580 590/590/590
f 580/580/580 591/591/591 590/590/590
f 36/36/36 589/589/589 38/38/38
f 35/35/35 589/589/589 36/36/36
f 592/592/592 579/579/579 589/589/589
f 35/35/35 592/592/592 589/589/589
f 592/592/592 593/593/593 579/579/579
f 593/593/593 594/594/594 579/579/579
f 588/588/588 595/595/595 593/593/593
f 596/596/596 588/588/588 593/593/593
f 596/596/596 593/593/593 592/592/592
f 597/597/597 596/596/596 592/592/592
f 597/597/597 592/592/592 35/35/35
f 598/598/598 597/597/597 35/35/35
f 599/599/599 597/597/597 598/598/598
f 29/29/29 599/599/599 598/598/598
f 31/31/31 599/599/599 29/29/29
f 31/31/31 600/600/600 599/599/599
f 601/601/601 600/600/600 31/31/31
f 602/602/602 601/601/601 31/31/31
f 601/601/601 603/603/603 600/600/600
f 600/600/600 604/604/604 599/599/599
f 599/599/599 604/604/604 605/605/605
f 604/604/604 606/606/606 605/605/605
f 603/603/603 607/607/607 600/600/600
f 600/600/600 607/607/607 604/604/604
f 603/603/603 608/608/608 607/607/607
f 604/604/604 609/609/609 606/606/606
f 607/607/607 609/609/609 604/604/604
f 609/609/609 610/610/610 606/606/606
f 608/608/608 611/611/611 607/607/607
f 607/607/607 611/611/611 609/609/609
f 608/608/608 612/612/612 611/611/611
f 609/609/609 613/613/613 610/610/610
f 611/611/611 613/613/613 609/609/609
f 613/613/613 614/614/614 610/610/610
f 612/612/612 615/615/615 611/611/611
f 611/611/611 615/615/615 613/613/613
f 612/612/612 616/616/616 615/615/615
f 616/616/616 546/546/546 615/615/615
f 613/613/613 617/617/617 614/614/614
f 615/615/615 617/617/617 613/613/613
f 615/615/615 546/546/546 617/617/617
f 617/617/617 618/618/618 614/614/614
f 546/546/546 554/554/554 617/617/617
f 617/617/617 554/554/554 619/619/619
f 554/554/554 556/556/556 619/619/619
f 619/619/619 556/556/556 620/620/620
f 556/556/556 621/621/621 620/620/620
f 623/623/623 622/622/622 570/570/570
f 622/622/622 624/624/624 570/570/570
f 622/622/622 625/625/625 624/624/624
f 625/625/625 626/626/626 624/624/624
f 628/628/628 627/627/627 591/591/591
f 629/629/629 628/628/628 591/591/591
f 628/628/628 631/631/631 630/630/630
f 631/631/631 574/574/574 630/630/630
f 630/630/630 574/574/574 632/632/632
f 574/574/574 571/571/571 632/632/632
f 632/632/632 571/571/571 633/633/633
f 571/571/571 411/411/411 633/633/633
f 632/632/632 633/633/633 51/51/51
f 51/51/51 633/633/633 634/634/634
f 633/633/633 635/635/635 634/634/634
f 51/51/51 634/634/634 636/636/636
f 637/637/637 51/51/51 636/636/636
f 46/46/46 632/632/632 51/51/51
f 638/638/638 632/632/632 46/46/46
f 639/639/639 638/638/638 46/46/46
f 639/639/639 46/46/46 640/640/640
f 641/641/641 639/639/639 640/640/640
f 644/644/644 643/643/643 642/642/642
f 645/645/645 644/644/644 642/642/642
f 646/646/646 644/644/644 645/645/645
f 646/646/646 647/647/647 644/644/644
f 647/647/647 648/648/648 644/644/644
f 647/647/647 649/649/649 648/648/648
f 649/649/649 650/650/650 648/648/648
f 649/649/649 651/651/651 650/650/650
f 651/651/651 652/652/652 650/650/650
f 653/653/653 646/646/646 645/645/645
f 653/653/653 645/645/645 654/654/654
f 15/15/15 653/653/653 654/654/654
f 17/17/17 653/653/653 15/15/15
f 655/655/655 646/646/646 653/653/653
f 17/17/17 655/655/655 653/653/653
f 656/656/656 655/655/655 17/17/17
f 657/657/657 656/656/656 17/17/17
f 655/655/655 658/658/658 646/646/646
f 658/658/658 659/659/659 646/646/646
f 658/658/658 660/660/660 659/659/659
f 660/660/660 661/661/661 659/659/659
f 660/660/660 662/662/662 661/661/661
f 662/662/662 663/663/663 661/661/661
f 664/664/664 662/662/662 660/660/660
f 471/471/471 664/664/664 660/660/660
f 664/664/664 665/665/665 662/662/662
f 662/662/662 541/541/541 663/663/663
f 665/665/665 666/666/666 662/662/662
f 665/665/665 667/667/667 666/666/666
f 667/667/667 668/668/668 666/666/666
f 541/541/541 669/669/669 663/663/663
f 663/663/663 669/669/669 652/652/652
f 669/669/669 670/670/670 652/652/652
f 672/672/672 671/671/671 670/670/670
f 673/673/673 672/672/672 670/670/670
f 676/676/676 675/675/675 674/674/674
f 677/677/677 676/676/676 674/674/674
f 657/657/657 679/679/679 678/678/678
f 680/680/680 657/657/657 678/678/678
f 480/480/480 682/682/682 681/681/681
f 2/2/2 480/480/480 681/681/681
f 685/685/685 684/684/684 683/683/683
f 684/684/684 117/117/117 683/683/683
f 688/688/688 687/687/687 686/686/686
f 687/687/687 642/642/642 686/686/686
f 691/691/691 690/690/690 689/689/689
f 692/692/692 691/691/691 689/689/689
f 692/692/692 689/689/689 693/693/693
f 175/175/175 692/692/692 693/693/693
f 695/695/695 694/694/694 202/202/202
f 696/696/696 695/695/695 202/202/202
f 699/699/699 698/698/698 697/697/697
f 434/434/434 699/699/699 697/697/697
