g Cylinder001
v 1.16273741E-05 0.761999965 0.152399993
v 1.16273741E-05 0.761999965 -1.16273741E-05
v 0.0994721858 0.755488635 -1.16273741E-05
v 0.0994721858 0.755488635 0.152399993
v 1.16273741E-05 0.761999965 0.304811613
v 0.197211893 0.736024411 -1.16273741E-05
v 0.0994721858 0.755488635 0.304811613
v 1.16273741E-05 0.761999965 0.457199979
v 0.197211893 0.736024411 0.152399993
v 0.291602916 0.704002622 -1.16273741E-05
v 0.0994721858 0.755488635 0.457199979
v 1.16273741E-05 0.761999965 0.609611599
v 0.291602916 0.704002622 0.152399993
v 0.380994169 0.65991162 -1.16273741E-05
v 0.197211893 0.736024411 0.304811613
v 0.0994721858 0.755488635 0.609611599
v 1.16273741E-05 0.761999965 0.761999965
v 0.0994721858 0.755488635 0.761999965
v 0.380994169 0.65991162 0.152399993
v 0.463874092 0.604542064 -1.16273741E-05
v 0.291602916 0.704002622 0.304811613
v 0.197211893 0.736024411 0.457199979
v 0.197211893 0.736024411 0.609611599
v 0.197211893 0.736024411 0.761999965
v 0.463874092 0.604542064 0.152399993
v 0.538824145 0.538824145 -1.16273741E-05
v 0.380994169 0.65991162 0.304811613
v 0.291602916 0.704002622 0.457199979
v 0.291602916 0.704002622 0.609611599
v 0.291602916 0.704002622 0.761999965
v 0.538824145 0.538824145 0.152399993
v 0.604542064 0.463874092 -1.16273741E-05
v 0.463874092 0.604542064 0.304811613
v 0.380994169 0.65991162 0.457199979
v 0.380994169 0.65991162 0.609611599
v 0.380994169 0.65991162 0.761999965
v 0.604542064 0.463874092 0.152399993
v 0.65991162 0.380994169 -1.16273741E-05
v 0.538824145 0.538824145 0.304811613
v 0.463874092 0.604542064 0.457199979
v 0.463874092 0.604542064 0.609611599
v 0.463874092 0.604542064 0.761999965
v 0.65991162 0.380994169 0.152399993
v 0.704002622 0.291602916 -1.16273741E-05
v 0.604542064 0.463874092 0.304811613
v 0.538824145 0.538824145 0.457199979
v 0.538824145 0.538824145 0.609611599
v 0.538824145 0.538824145 0.761999965
v 0.704002622 0.291602916 0.152399993
v 0.736024411 0.197211893 -1.16273741E-05
v 0.65991162 0.380994169 0.304811613
v 0.604542064 0.463874092 0.457199979
v 0.604542064 0.463874092 0.609611599
v 0.604542064 0.463874092 0.761999965
v 0.736024411 0.197211893 0.152399993
v 0.755488635 0.0994721858 -1.16273741E-05
v 0.704002622 0.291602916 0.304811613
v 0.65991162 0.380994169 0.457199979
v 0.65991162 0.380994169 0.609611599
v 0.65991162 0.380994169 0.761999965
v 0.755488635 0.0994721858 0.152399993
v 0.761999965 -1.16273741E-05 -1.16273741E-05
v 0.736024411 0.197211893 0.304811613
v 0.704002622 0.291602916 0.457199979
v 0.704002622 0.291602916 0.609611599
v 0.704002622 0.291602916 0.761999965
v 0.761999965 -1.16273741E-05 0.152399993
v 0.755488635 -0.0994489311 -1.16273741E-05
v 0.755488635 0.0994721858 0.304811613
v 0.736024411 0.197211893 0.457199979
v 0.736024411 0.197211893 0.609611599
v 0.736024411 0.197211893 0.761999965
v 0.755488635 -0.0994489311 0.152399993
v 0.736024411 -0.197211893 -1.16273741E-05
v 0.761999965 -1.16273741E-05 0.304811613
v 0.755488635 0.0994721858 0.457199979
v 0.755488635 0.0994721858 0.609611599
v 0.755488635 0.0994721858 0.761999965
v 0.736024411 -0.197211893 0.152399993
v 0.704002622 -0.291602916 -1.16273741E-05
v 0.755488635 -0.0994489311 0.304811613
v 0.761999965 -1.16273741E-05 0.457199979
v 0.761999965 -1.16273741E-05 0.609611599
v 0.761999965 -1.16273741E-05 0.761999965
v 0.704002622 -0.291602916 0.152399993
v 0.65991162 -0.380994169 -1.16273741E-05
v 0.736024411 -0.197211893 0.304811613
v 0.755488635 -0.0994489311 0.457199979
v 0.755488635 -0.0994489311 0.609611599
v 0.755488635 -0.0994489311 0.761999965
v 0.65991162 -0.380994169 0.152399993
v 0.604542064 -0.463874092 -1.16273741E-05
v 0.704002622 -0.291602916 0.304811613
v 0.736024411 -0.197211893 0.457199979
v 0.736024411 -0.197211893 0.609611599
v 0.736024411 -0.197211893 0.761999965
v 0.604542064 -0.463874092 0.152399993
v 0.538824145 -0.538824145 -1.16273741E-05
v 0.65991162 -0.380994169 0.304811613
v 0.704002622 -0.291602916 0.457199979
v 0.704002622 -0.291602916 0.609611599
v 0.704002622 -0.291602916 0.761999965
v 0.538824145 -0.538824145 0.152399993
v 0.463874092 -0.604542064 -1.16273741E-05
v 0.604542064 -0.463874092 0.304811613
v 0.65991162 -0.380994169 0.457199979
v 0.65991162 -0.380994169 0.609611599
v 0.65991162 -0.380994169 0.761999965
v 0.463874092 -0.604542064 0.152399993
v 0.380994169 -0.65991162 -1.16273741E-05
v 0.538824145 -0.538824145 0.304811613
v 0.604542064 -0.463874092 0.457199979
v 0.604542064 -0.463874092 0.609611599
v 0.604542064 -0.463874092 0.761999965
v 0.380994169 -0.65991162 0.152399993
v 0.291602916 -0.704002622 -1.16273741E-05
v 0.463874092 -0.604542064 0.304811613
v 0.538824145 -0.538824145 0.457199979
v 0.538824145 -0.538824145 0.609611599
v 0.538824145 -0.538824145 0.761999965
v 0.291602916 -0.704002622 0.152399993
v 0.197211893 -0.736024411 -1.16273741E-05
v 0.380994169 -0.65991162 0.304811613
v 0.463874092 -0.604542064 0.457199979
v 0.463874092 -0.604542064 0.609611599
v 0.463874092 -0.604542064 0.761999965
v 0.197211893 -0.736024411 0.152399993
v 0.0994721858 -0.755488635 -1.16273741E-05
v 0.291602916 -0.704002622 0.304811613
v 0.380994169 -0.65991162 0.457199979
v 0.380994169 -0.65991162 0.609611599
v 0.380994169 -0.65991162 0.761999965
v 0.0994721858 -0.755488635 0.152399993
v 1.16273741E-05 -0.761999965 -1.16273741E-05
v 0.197211893 -0.736024411 0.304811613
v 0.291602916 -0.704002622 0.457199979
v 0.291602916 -0.704002622 0.609611599
v 0.291602916 -0.704002622 0.761999965
v 1.16273741E-05 -0.761999965 0.152399993
v -0.0994721858 -0.755488635 -1.16273741E-05
v 0.0994721858 -0.755488635 0.304811613
v 0.197211893 -0.736024411 0.457199979
v 0.197211893 -0.736024411 0.609611599
v 0.197211893 -0.736024411 0.761999965
v -0.0994721858 -0.755488635 0.152399993
v -0.197211893 -0.736024411 -1.16273741E-05
v 1.16273741E-05 -0.761999965 0.304811613
v 0.0994721858 -0.755488635 0.457199979
v 0.0994721858 -0.755488635 0.609611599
v 0.0994721858 -0.755488635 0.761999965
v -0.197211893 -0.736024411 0.152399993
v -0.291602916 -0.704002622 -1.16273741E-05
v -0.0994721858 -0.755488635 0.304811613
v 1.16273741E-05 -0.761999965 0.457199979
v 1.16273741E-05 -0.761999965 0.609611599
v 1.16273741E-05 -0.761999965 0.761999965
v -0.291602916 -0.704002622 0.152399993
v -0.380994169 -0.65991162 -1.16273741E-05
v -0.197211893 -0.736024411 0.304811613
v -0.0994721858 -0.755488635 0.457199979
v -0.0994721858 -0.755488635 0.609611599
v -0.0994721858 -0.755488635 0.761999965
v -0.380994169 -0.65991162 0.152399993
v -0.463874092 -0.604542064 -1.16273741E-05
v -0.291602916 -0.704002622 0.304811613
v -0.197211893 -0.736024411 0.457199979
v -0.197211893 -0.736024411 0.609611599
v -0.197211893 -0.736024411 0.761999965
v -0.463874092 -0.604542064 0.152399993
v -0.538824145 -0.538824145 -1.16273741E-05
v -0.380994169 -0.65991162 0.304811613
v -0.291602916 -0.704002622 0.457199979
v -0.291602916 -0.704002622 0.609611599
v -0.291602916 -0.704002622 0.761999965
v -0.538824145 -0.538824145 0.152399993
v -0.604542064 -0.463874092 -1.16273741E-05
v -0.463874092 -0.604542064 0.304811613
v -0.380994169 -0.65991162 0.457199979
v -0.380994169 -0.65991162 0.609611599
v -0.380994169 -0.65991162 0.761999965
v -0.604542064 -0.463874092 0.152399993
v -0.65991162 -0.380994169 -1.16273741E-05
v -0.538824145 -0.538824145 0.304811613
v -0.463874092 -0.604542064 0.457199979
v -0.463874092 -0.604542064 0.609611599
v -0.463874092 -0.604542064 0.761999965
v -0.65991162 -0.380994169 0.152399993
v -0.704002622 -0.291602916 -1.16273741E-05
v -0.604542064 -0.463874092 0.304811613
v -0.538824145 -0.538824145 0.457199979
v -0.538824145 -0.538824145 0.609611599
v -0.538824145 -0.538824145 0.761999965
v -0.704002622 -0.291602916 0.152399993
v -0.736024411 -0.197211893 -1.16273741E-05
v -0.65991162 -0.380994169 0.304811613
v -0.604542064 -0.463874092 0.457199979
v -0.604542064 -0.463874092 0.609611599
v -0.604542064 -0.463874092 0.761999965
v -0.736024411 -0.197211893 0.152399993
v -0.755488635 -0.0994721858 -1.16273741E-05
v -0.704002622 -0.291602916 0.304811613
v -0.65991162 -0.380994169 0.457199979
v -0.65991162 -0.380994169 0.609611599
v -0.65991162 -0.380994169 0.761999965
v -0.755488635 -0.0994721858 0.152399993
v -0.761999965 1.16273741E-05 -1.16273741E-05
v -0.736024411 -0.197211893 0.304811613
v -0.704002622 -0.291602916 0.457199979
v -0.704002622 -0.291602916 0.609611599
v -0.704002622 -0.291602916 0.761999965
v -0.761999965 1.16273741E-05 0.152399993
v -0.755488635 0.0994721858 -1.16273741E-05
v -0.755488635 -0.0994721858 0.304811613
v -0.736024411 -0.197211893 0.457199979
v -0.736024411 -0.197211893 0.609611599
v -0.736024411 -0.197211893 0.761999965
v -0.755488635 0.0994721858 0.152399993
v -0.736024411 0.197211893 -1.16273741E-05
v -0.761999965 1.16273741E-05 0.304811613
v -0.755488635 -0.0994721858 0.457199979
v -0.755488635 -0.0994721858 0.609611599
v -0.755488635 -0.0994721858 0.761999965
v -0.736024411 0.197211893 0.152399993
v -0.704002622 0.291602916 -1.16273741E-05
v -0.755488635 0.0994721858 0.304811613
v -0.761999965 1.16273741E-05 0.457199979
v -0.761999965 1.16273741E-05 0.609611599
v -0.761999965 1.16273741E-05 0.761999965
v -0.704002622 0.291602916 0.152399993
v -0.65991162 0.380994169 -1.16273741E-05
v -0.736024411 0.197211893 0.304811613
v -0.755488635 0.0994721858 0.457199979
v -0.755488635 0.0994721858 0.609611599
v -0.755488635 0.0994721858 0.761999965
v -0.65991162 0.380994169 0.152399993
v -0.604542064 0.463874092 -1.16273741E-05
v -0.704002622 0.291602916 0.304811613
v -0.736024411 0.197211893 0.457199979
v -0.736024411 0.197211893 0.609611599
v -0.736024411 0.197211893 0.761999965
v -0.604542064 0.463874092 0.152399993
v -0.538824145 0.538824145 -1.16273741E-05
v -0.65991162 0.380994169 0.304811613
v -0.704002622 0.291602916 0.457199979
v -0.704002622 0.291602916 0.609611599
v -0.704002622 0.291602916 0.761999965
v -0.538824145 0.538824145 0.152399993
v -0.463874092 0.604542064 -1.16273741E-05
v -0.604542064 0.463874092 0.304811613
v -0.65991162 0.380994169 0.457199979
v -0.65991162 0.380994169 0.609611599
v -0.65991162 0.380994169 0.761999965
v -0.463874092 0.604542064 0.152399993
v -0.380994169 0.65991162 -1.16273741E-05
v -0.538824145 0.538824145 0.304811613
v -0.604542064 0.463874092 0.457199979
v -0.604542064 0.463874092 0.609611599
v -0.604542064 0.463874092 0.761999965
v -0.380994169 0.65991162 0.152399993
v -0.291602916 0.704002622 -1.16273741E-05
v -0.463874092 0.604542064 0.304811613
v -0.538824145 0.538824145 0.457199979
v -0.538824145 0.538824145 0.609611599
v -0.538824145 0.538824145 0.761999965
v -0.291602916 0.704002622 0.152399993
v -0.197211893 0.736024411 -1.16273741E-05
v -0.380994169 0.65991162 0.304811613
v -0.463874092 0.604542064 0.457199979
v -0.463874092 0.604542064 0.609611599
v -0.463874092 0.604542064 0.761999965
v -0.197211893 0.736024411 0.152399993
v -0.0994721858 0.755488635 -1.16273741E-05
v -0.291602916 0.704002622 0.304811613
v -0.380994169 0.65991162 0.457199979
v -0.380994169 0.65991162 0.609611599
v -0.380994169 0.65991162 0.761999965
v -0.0994721858 0.755488635 0.152399993
v 1.16273741E-05 0.761999965 -1.16273741E-05
v 1.16273741E-05 0.761999965 0.152399993
v -0.197211893 0.736024411 0.304811613
v -0.291602916 0.704002622 0.457199979
v -0.291602916 0.704002622 0.609611599
v -0.291602916 0.704002622 0.761999965
v -0.0994721858 0.755488635 0.304811613
v 1.16273741E-05 0.761999965 0.304811613
v -0.197211893 0.736024411 0.457199979
v -0.197211893 0.736024411 0.609611599
v -0.197211893 0.736024411 0.761999965
v -0.0994721858 0.755488635 0.457199979
v 1.16273741E-05 0.761999965 0.457199979
v -0.0994721858 0.755488635 0.609611599
v -0.0994721858 0.755488635 0.761999965
v 1.16273741E-05 0.761999965 0.609611599
v 1.16273741E-05 0.761999965 0.761999965
vt 1.00145517 0.199436751
vt 1.00096554 -0.000333404983
vt 0.979911331 -0.000333404983
vt 0.980890596 0.199436751
vt 1.0019448 0.39969654
vt 0.959346756 -0.000333404983
vt 0.980890596 0.39969654
vt 1.0019448 0.599466696
vt 0.959836389 0.199436751
vt 0.938292548 -0.000333404983
vt 0.980890596 0.599466696
vt 1.00145517 0.799726484
vt 0.939271814 0.199436751
vt 0.917727973 -0.000333404983
vt 0.960326021 0.39969654
vt 0.980400963 0.799726484
vt 1.00096554 0.99949664
vt 0.980400963 0.99949664
vt 0.918217606 0.199436751
vt 0.896673766 -0.000333404983
vt 0.939271814 0.39969654
vt 0.960326021 0.599466696
vt 0.959836389 0.799726484
vt 0.959346756 0.99949664
vt 0.897653031 0.199436751
vt 0.876109191 -0.000333404983
vt 0.918217606 0.39969654
vt 0.939271814 0.599466696
vt 0.938782181 0.799726484
vt 0.938782181 0.99949664
vt 0.876598824 0.199436751
vt 0.855054983 -0.000333404983
vt 0.897653031 0.39969654
vt 0.918707239 0.599466696
vt 0.918217606 0.799726484
vt 0.917727973 0.99949664
vt 0.855544616 0.199436751
vt 0.834490408 -0.000333404983
vt 0.876598824 0.39969654
vt 0.897653031 0.599466696
vt 0.897163398 0.799726484
vt 0.897163398 0.99949664
vt 0.834980041 0.199436751
vt 0.813436201 -0.000333404983
vt 0.856034249 0.39969654
vt 0.877088456 0.599466696
vt 0.876109191 0.799726484
vt 0.876109191 0.99949664
vt 0.813925833 0.199436751
vt 0.792381993 -0.000333404983
vt 0.834980041 0.39969654
vt 0.856034249 0.599466696
vt 0.855544616 0.799726484
vt 0.855054983 0.99949664
vt 0.793361259 0.199436751
vt 0.771817418 -0.000333404983
vt 0.814415466 0.39969654
vt 0.835469674 0.599466696
vt 0.834490408 0.799726484
vt 0.834490408 0.99949664
vt 0.772307051 0.199436751
vt 0.750763211 -0.000333404983
vt 0.793361259 0.39969654
vt 0.814415466 0.599466696
vt 0.813925833 0.799726484
vt 0.813436201 0.99949664
vt 0.751742476 0.199436751
vt 0.730198636 -0.000333404983
vt 0.772796684 0.39969654
vt 0.793850891 0.599466696
vt 0.792871626 0.799726484
vt 0.792871626 0.99949664
vt 0.730688269 0.199436751
vt 0.709144428 -0.000333404983
vt 0.751742476 0.39969654
vt 0.772796684 0.599466696
vt 0.772307051 0.799726484
vt 0.771817418 0.99949664
vt 0.710123694 0.199436751
vt 0.688579853 -0.000333404983
vt 0.731177901 0.39969654
vt 0.751742476 0.599466696
vt 0.751252843 0.799726484
vt 0.751252843 0.99949664
vt 0.689069486 0.199436751
vt 0.667525646 -0.000333404983
vt 0.710123694 0.39969654
vt 0.731177901 0.599466696
vt 0.730688269 0.799726484
vt 0.730198636 0.99949664
vt 0.668015278 0.199436751
vt 0.646961071 -0.000333404983
vt 0.689069486 0.39969654
vt 0.710123694 0.599466696
vt 0.709634061 0.799726484
vt 0.709634061 0.99949664
vt 0.647450704 0.199436751
vt 0.625906863 -0.000333404983
vt 0.668504911 0.39969654
vt 0.689559119 0.599466696
vt 0.689069486 0.799726484
vt 0.688579853 0.99949664
vt 0.626396496 0.199436751
vt 0.605342288 -0.000333404983
vt 0.647450704 0.39969654
vt 0.668504911 0.599466696
vt 0.668015278 0.799726484
vt 0.668015278 0.99949664
vt 0.605831921 0.199436751
vt 0.584288081 -0.000333404983
vt 0.626886129 0.39969654
vt 0.647940336 0.599466696
vt 0.646961071 0.799726484
vt 0.646961071 0.99949664
vt 0.584777713 0.199436751
vt 0.563233873 -0.000333404983
vt 0.605831921 0.39969654
vt 0.626886129 0.599466696
vt 0.626396496 0.799726484
vt 0.625906863 0.99949664
vt 0.564213139 0.199436751
vt 0.542669298 -0.000333404983
vt 0.585267346 0.39969654
vt 0.606321554 0.599466696
vt 0.605342288 0.799726484
vt 0.605342288 0.99949664
vt 0.543158931 0.199436751
vt 0.521615091 -0.000333404983
vt 0.564213139 0.39969654
vt 0.585267346 0.599466696
vt 0.584777713 0.799726484
vt 0.584288081 0.99949664
vt 0.522594356 0.199436751
vt 0.501050516 -0.000333404983
vt 0.543648564 0.39969654
vt 0.564213139 0.599466696
vt 0.563723506 0.799726484
vt 0.563723506 0.99949664
vt 0.501540148 0.199436751
vt 0.479996308 -0.000333404983
vt 0.522594356 0.39969654
vt 0.543648564 0.599466696
vt 0.543158931 0.799726484
vt 0.542669298 0.99949664
vt 0.480975574 0.199436751
vt 0.459431733 -0.000333404983
vt 0.502029781 0.39969654
vt 0.522594356 0.599466696
vt 0.522104723 0.799726484
vt 0.522104723 0.99949664
vt 0.459921366 0.199436751
vt 0.438377526 -0.000333404983
vt 0.480975574 0.39969654
vt 0.502029781 0.599466696
vt 0.501540148 0.799726484
vt 0.501050516 0.99949664
vt 0.438867158 0.199436751
vt 0.417812951 -0.000333404983
vt 0.459921366 0.39969654
vt 0.480975574 0.599466696
vt 0.480485941 0.799726484
vt 0.480485941 0.99949664
vt 0.418302584 0.199436751
vt 0.396758743 -0.000333404983
vt 0.439356791 0.39969654
vt 0.460410999 0.599466696
vt 0.459921366 0.799726484
vt 0.459431733 0.99949664
vt 0.397248376 0.199436751
vt 0.375704536 -0.000333404983
vt 0.418302584 0.39969654
vt 0.439356791 0.599466696
vt 0.438867158 0.799726484
vt 0.438867158 0.99949664
vt 0.376683801 0.199436751
vt 0.355139961 -0.000333404983
vt 0.397738009 0.39969654
vt 0.418792216 0.599466696
vt 0.417812951 0.799726484
vt 0.417812951 0.99949664
vt 0.355629593 0.199436751
vt 0.334085753 -0.000333404983
vt 0.376683801 0.39969654
vt 0.397738009 0.599466696
vt 0.397248376 0.799726484
vt 0.396758743 0.99949664
vt 0.335065019 0.199436751
vt 0.313521178 -0.000333404983
vt 0.356119226 0.39969654
vt 0.377173434 0.599466696
vt 0.376194168 0.799726484
vt 0.376194168 0.99949664
vt 0.314010811 0.199436751
vt 0.292466971 -0.000333404983
vt 0.335065019 0.39969654
vt 0.356119226 0.599466696
vt 0.355629593 0.799726484
vt 0.355139961 0.99949664
vt 0.293446236 0.199436751
vt 0.271902396 -0.000333404983
vt 0.314500444 0.39969654
vt 0.335065019 0.599466696
vt 0.334575386 0.799726484
vt 0.334575386 0.99949664
vt 0.272392028 0.199436751
vt 0.250848188 -0.000333404983
vt 0.293446236 0.39969654
vt 0.314500444 0.599466696
vt 0.314010811 0.799726484
vt 0.313521178 0.99949664
vt 0.251827454 0.199436751
vt 0.230283613 -0.000333404983
vt 0.272392028 0.39969654
vt 0.293446236 0.599466696
vt 0.292956603 0.799726484
vt 0.292956603 0.99949664
vt 0.230773246 0.199436751
vt 0.209229406 -0.000333404983
vt 0.251827454 0.39969654
vt 0.272881661 0.599466696
vt 0.272392028 0.799726484
vt 0.271902396 0.99949664
vt 0.209719038 0.199436751
vt 0.188664831 -0.000333404983
vt 0.230773246 0.39969654
vt 0.251827454 0.599466696
vt 0.251337821 0.799726484
vt 0.251337821 0.99949664
vt 0.189154463 0.199436751
vt 0.167610623 -0.000333404983
vt 0.210208671 0.39969654
vt 0.231262879 0.599466696
vt 0.230283613 0.799726484
vt 0.230283613 0.99949664
vt 0.168100256 0.199436751
vt 0.146556416 -0.000333404983
vt 0.189154463 0.39969654
vt 0.210208671 0.599466696
vt 0.209719038 0.799726484
vt 0.209229406 0.99949664
vt 0.147535681 0.199436751
vt 0.125991841 -0.000333404983
vt 0.168589889 0.39969654
vt 0.189644096 0.599466696
vt 0.188664831 0.799726484
vt 0.188664831 0.99949664
vt 0.126481473 0.199436751
vt 0.104937633 -0.000333404983
vt 0.147535681 0.39969654
vt 0.168589889 0.599466696
vt 0.168100256 0.799726484
vt 0.167610623 0.99949664
vt 0.105916899 0.199436751
vt 0.0843730582 -0.000333404983
vt 0.126971106 0.39969654
vt 0.148025314 0.599466696
vt 0.147046048 0.799726484
vt 0.147046048 0.99949664
vt 0.0848626909 0.199436751
vt 0.0633188506 -0.000333404983
vt 0.105916899 0.39969654
vt 0.126971106 0.599466696
vt 0.126481473 0.799726484
vt 0.125991841 0.99949664
vt 0.064298116 0.199436751
vt 0.0427542757 -0.000333404983
vt 0.0853523237 0.39969654
vt 0.105916899 0.599466696
vt 0.105427266 0.799726484
vt 0.105427266 0.99949664
vt 0.0432439084 0.199436751
vt 0.0217000681 -0.000333404983
vt 0.064298116 0.39969654
vt 0.0853523237 0.599466696
vt 0.0848626909 0.799726484
vt 0.0843730582 0.99949664
vt 0.0221897008 0.199436751
vt 0.00113549322 -0.000333404983
vt 0.00162512596 0.199436751
vt 0.0432439084 0.39969654
vt 0.064298116 0.599466696
vt 0.0638084833 0.799726484
vt 0.0638084833 0.99949664
vt 0.0226793336 0.39969654
vt 0.00162512596 0.39969654
vt 0.0437335412 0.599466696
vt 0.0432439084 0.799726484
vt 0.0427542757 0.99949664
vt 0.0226793336 0.599466696
vt 0.00211475869 0.599466696
vt 0.0221897008 0.799726484
vt 0.0221897008 0.99949664
vt 0.00113549322 0.799726484
vt 0.00113549322 0.99949664
vn -0.00392153847 0.999992311 -0
vn -0.00392153847 0.999992311 -0
vn 0.129339184 0.991600411 -0
vn 0.129339184 0.991600411 -0
vn -0.00392153847 0.999992311 -0
vn 0.254493299 0.967074537 -0
vn 0.129339184 0.991600411 -0
vn -0.00392153847 0.999992311 -0
vn 0.254493299 0.967074537 -0
vn 0.380389255 0.921561596 -0.0776417341
vn 0.129339184 0.991600411 -0
vn -0.00392153847 0.999992311 -0
vn 0.380389255 0.921561596 -0.0776417341
vn 0.498035416 0.866660055 -0.0293440684
vn 0.254493299 0.967074537 -0
vn 0.129339184 0.991600411 -0
vn -0.00392153847 0.999992311 -0
vn 0.129339184 0.991600411 -0
vn 0.498035416 0.866660055 -0.0293440684
vn 0.606868637 0.79480215 -0
vn 0.380389255 0.921561596 -0.0776417341
vn 0.254493299 0.967074537 -0
vn 0.254493299 0.967074537 -0
vn 0.254493299 0.967074537 -0
vn 0.606868637 0.79480215 -0
vn 0.707106781 0.707106781 -0
vn 0.498035416 0.866660055 -0.0293440684
vn 0.380389255 0.921561596 -0.0776417341
vn 0.380389255 0.921561596 -0.0776417341
vn 0.380389255 0.921561596 -0.0776417341
vn 0.707106781 0.707106781 -0
vn 0.79480215 0.606868637 -0
vn 0.606868637 0.79480215 -0
vn 0.498035416 0.866660055 -0.0293440684
vn 0.498035416 0.866660055 -0.0293440684
vn 0.498035416 0.866660055 -0.0293440684
vn 0.79480215 0.606868637 -0
vn 0.866660055 0.498035416 -0.0293440684
vn 0.707106781 0.707106781 -0
vn 0.606868637 0.79480215 -0
vn 0.606868637 0.79480215 -0
vn 0.606868637 0.79480215 -0
vn 0.866660055 0.498035416 -0.0293440684
vn 0.921561596 0.380389255 -0.0776417341
vn 0.79480215 0.606868637 -0
vn 0.707106781 0.707106781 -0
vn 0.707106781 0.707106781 -0
vn 0.707106781 0.707106781 -0
vn 0.921561596 0.380389255 -0.0776417341
vn 0.967074537 0.254493299 -0
vn 0.866660055 0.498035416 -0.0293440684
vn 0.79480215 0.606868637 -0
vn 0.79480215 0.606868637 -0
vn 0.79480215 0.606868637 -0
vn 0.967074537 0.254493299 -0
vn 0.991600411 0.129339184 -0
vn 0.921561596 0.380389255 -0.0776417341
vn 0.866660055 0.498035416 -0.0293440684
vn 0.866660055 0.498035416 -0.0293440684
vn 0.866660055 0.498035416 -0.0293440684
vn 0.991600411 0.129339184 -0
vn 0.999992311 0.00392153847 -0
vn 0.967074537 0.254493299 -0
vn 0.921561596 0.380389255 -0.0776417341
vn 0.921561596 0.380389255 -0.0776417341
vn 0.921561596 0.380389255 -0.0776417341
vn 0.999992311 0.00392153847 -0
vn 0.991600411 -0.129339184 -0
vn 0.991600411 0.129339184 -0
vn 0.967074537 0.254493299 -0
vn 0.967074537 0.254493299 -0
vn 0.967074537 0.254493299 -0
vn 0.991600411 -0.129339184 -0
vn 0.967074537 -0.254493299 -0
vn 0.999992311 0.00392153847 -0
vn 0.991600411 0.129339184 -0
vn 0.991600411 0.129339184 -0
vn 0.991600411 0.129339184 -0
vn 0.967074537 -0.254493299 -0
vn 0.921561596 -0.380389255 -0.0776417341
vn 0.991600411 -0.129339184 -0
vn 0.999992311 0.00392153847 -0
vn 0.999992311 0.00392153847 -0
vn 0.999992311 0.00392153847 -0
vn 0.921561596 -0.380389255 -0.0776417341
vn 0.866660055 -0.498035416 -0.0293440684
vn 0.967074537 -0.254493299 -0
vn 0.991600411 -0.129339184 -0
vn 0.991600411 -0.129339184 -0
vn 0.991600411 -0.129339184 -0
vn 0.866660055 -0.498035416 -0.0293440684
vn 0.79480215 -0.606868637 -0
vn 0.921561596 -0.380389255 -0.0776417341
vn 0.967074537 -0.254493299 -0
vn 0.967074537 -0.254493299 -0
vn 0.967074537 -0.254493299 -0
vn 0.79480215 -0.606868637 -0
vn 0.707106781 -0.707106781 -0
vn 0.866660055 -0.498035416 -0.0293440684
vn 0.921561596 -0.380389255 -0.0776417341
vn 0.921561596 -0.380389255 -0.0776417341
vn 0.921561596 -0.380389255 -0.0776417341
vn 0.707106781 -0.707106781 -0
vn 0.606868637 -0.79480215 -0
vn 0.79480215 -0.606868637 -0
vn 0.866660055 -0.498035416 -0.0293440684
vn 0.866660055 -0.498035416 -0.0293440684
vn 0.866660055 -0.498035416 -0.0293440684
vn 0.606868637 -0.79480215 -0
vn 0.498035416 -0.866660055 -0.0293440684
vn 0.707106781 -0.707106781 -0
vn 0.79480215 -0.606868637 -0
vn 0.79480215 -0.606868637 -0
vn 0.79480215 -0.606868637 -0
vn 0.498035416 -0.866660055 -0.0293440684
vn 0.380389255 -0.921561596 -0.0776417341
vn 0.606868637 -0.79480215 -0
vn 0.707106781 -0.707106781 -0
vn 0.707106781 -0.707106781 -0
vn 0.707106781 -0.707106781 -0
vn 0.380389255 -0.921561596 -0.0776417341
vn 0.254493299 -0.967074537 -0
vn 0.498035416 -0.866660055 -0.0293440684
vn 0.606868637 -0.79480215 -0
vn 0.606868637 -0.79480215 -0
vn 0.606868637 -0.79480215 -0
vn 0.254493299 -0.967074537 -0
vn 0.129339184 -0.991600411 -0
vn 0.380389255 -0.921561596 -0.0776417341
vn 0.498035416 -0.866660055 -0.0293440684
vn 0.498035416 -0.866660055 -0.0293440684
vn 0.498035416 -0.866660055 -0.0293440684
vn 0.129339184 -0.991600411 -0
vn 0.00392153847 -0.999992311 -0
vn 0.254493299 -0.967074537 -0
vn 0.380389255 -0.921561596 -0.0776417341
vn 0.380389255 -0.921561596 -0.0776417341
vn 0.380389255 -0.921561596 -0.0776417341
vn 0.00392153847 -0.999992311 -0
vn -0.129339184 -0.991600411 -0
vn 0.129339184 -0.991600411 -0
vn 0.254493299 -0.967074537 -0
vn 0.254493299 -0.967074537 -0
vn 0.254493299 -0.967074537 -0
vn -0.129339184 -0.991600411 -0
vn -0.254493299 -0.967074537 -0
vn 0.00392153847 -0.999992311 -0
vn 0.129339184 -0.991600411 -0
vn 0.129339184 -0.991600411 -0
vn 0.129339184 -0.991600411 -0
vn -0.254493299 -0.967074537 -0
vn -0.380389255 -0.921561596 -0.0776417341
vn -0.129339184 -0.991600411 -0
vn 0.00392153847 -0.999992311 -0
vn 0.00392153847 -0.999992311 -0
vn 0.00392153847 -0.999992311 -0
vn -0.380389255 -0.921561596 -0.0776417341
vn -0.498035416 -0.866660055 -0.0293440684
vn -0.254493299 -0.967074537 -0
vn -0.129339184 -0.991600411 -0
vn -0.129339184 -0.991600411 -0
vn -0.129339184 -0.991600411 -0
vn -0.498035416 -0.866660055 -0.0293440684
vn -0.606868637 -0.79480215 -0
vn -0.380389255 -0.921561596 -0.0776417341
vn -0.254493299 -0.967074537 -0
vn -0.254493299 -0.967074537 -0
vn -0.254493299 -0.967074537 -0
vn -0.606868637 -0.79480215 -0
vn -0.707106781 -0.707106781 -0
vn -0.498035416 -0.866660055 -0.0293440684
vn -0.380389255 -0.921561596 -0.0776417341
vn -0.380389255 -0.921561596 -0.0776417341
vn -0.380389255 -0.921561596 -0.0776417341
vn -0.707106781 -0.707106781 -0
vn -0.79480215 -0.606868637 -0
vn -0.606868637 -0.79480215 -0
vn -0.498035416 -0.866660055 -0.0293440684
vn -0.498035416 -0.866660055 -0.0293440684
vn -0.498035416 -0.866660055 -0.0293440684
vn -0.79480215 -0.606868637 -0
vn -0.866660055 -0.498035416 -0.0293440684
vn -0.707106781 -0.707106781 -0
vn -0.606868637 -0.79480215 -0
vn -0.606868637 -0.79480215 -0
vn -0.606868637 -0.79480215 -0
vn -0.866660055 -0.498035416 -0.0293440684
vn -0.921561596 -0.380389255 -0.0776417341
vn -0.79480215 -0.606868637 -0
vn -0.707106781 -0.707106781 -0
vn -0.707106781 -0.707106781 -0
vn -0.707106781 -0.707106781 -0
vn -0.921561596 -0.380389255 -0.0776417341
vn -0.967074537 -0.254493299 -0
vn -0.866660055 -0.498035416 -0.0293440684
vn -0.79480215 -0.606868637 -0
vn -0.79480215 -0.606868637 -0
vn -0.79480215 -0.606868637 -0
vn -0.967074537 -0.254493299 -0
vn -0.991600411 -0.129339184 -0
vn -0.921561596 -0.380389255 -0.0776417341
vn -0.866660055 -0.498035416 -0.0293440684
vn -0.866660055 -0.498035416 -0.0293440684
vn -0.866660055 -0.498035416 -0.0293440684
vn -0.991600411 -0.129339184 -0
vn -0.999992311 0.00392153847 -0
vn -0.967074537 -0.254493299 -0
vn -0.921561596 -0.380389255 -0.0776417341
vn -0.921561596 -0.380389255 -0.0776417341
vn -0.921561596 -0.380389255 -0.0776417341
vn -0.999992311 0.00392153847 -0
vn -0.991600411 0.129339184 -0
vn -0.991600411 -0.129339184 -0
vn -0.967074537 -0.254493299 -0
vn -0.967074537 -0.254493299 -0
vn -0.967074537 -0.254493299 -0
vn -0.991600411 0.129339184 -0
vn -0.967074537 0.254493299 -0
vn -0.999992311 0.00392153847 -0
vn -0.991600411 -0.129339184 -0
vn -0.991600411 -0.129339184 -0
vn -0.991600411 -0.129339184 -0
vn -0.967074537 0.254493299 -0
vn -0.921561596 0.380389255 -0.0776417341
vn -0.991600411 0.129339184 -0
vn -0.999992311 0.00392153847 -0
vn -0.999992311 0.00392153847 -0
vn -0.999992311 0.00392153847 -0
vn -0.921561596 0.380389255 -0.0776417341
vn -0.866660055 0.498035416 -0.0293440684
vn -0.967074537 0.254493299 -0
vn -0.991600411 0.129339184 -0
vn -0.991600411 0.129339184 -0
vn -0.991600411 0.129339184 -0
vn -0.866660055 0.498035416 -0.0293440684
vn -0.79480215 0.606868637 -0
vn -0.921561596 0.380389255 -0.0776417341
vn -0.967074537 0.254493299 -0
vn -0.967074537 0.254493299 -0
vn -0.967074537 0.254493299 -0
vn -0.79480215 0.606868637 -0
vn -0.707106781 0.707106781 -0
vn -0.866660055 0.498035416 -0.0293440684
vn -0.921561596 0.380389255 -0.0776417341
vn -0.921561596 0.380389255 -0.0776417341
vn -0.921561596 0.380389255 -0.0776417341
vn -0.707106781 0.707106781 -0
vn -0.606868637 0.79480215 -0
vn -0.79480215 0.606868637 -0
vn -0.866660055 0.498035416 -0.0293440684
vn -0.866660055 0.498035416 -0.0293440684
vn -0.866660055 0.498035416 -0.0293440684
vn -0.606868637 0.79480215 -0
vn -0.498035416 0.866660055 -0.0293440684
vn -0.707106781 0.707106781 -0
vn -0.79480215 0.606868637 -0
vn -0.79480215 0.606868637 -0
vn -0.79480215 0.606868637 -0
vn -0.498035416 0.866660055 -0.0293440684
vn -0.380389255 0.921561596 -0.0776417341
vn -0.606868637 0.79480215 -0
vn -0.707106781 0.707106781 -0
vn -0.707106781 0.707106781 -0
vn -0.707106781 0.707106781 -0
vn -0.380389255 0.921561596 -0.0776417341
vn -0.254493299 0.967074537 -0
vn -0.498035416 0.866660055 -0.0293440684
vn -0.606868637 0.79480215 -0
vn -0.606868637 0.79480215 -0
vn -0.606868637 0.79480215 -0
vn -0.254493299 0.967074537 -0
vn -0.129339184 0.991600411 -0
vn -0.380389255 0.921561596 -0.0776417341
vn -0.498035416 0.866660055 -0.0293440684
vn -0.498035416 0.866660055 -0.0293440684
vn -0.498035416 0.866660055 -0.0293440684
vn -0.129339184 0.991600411 -0
vn -0.00392153847 0.999992311 -0
vn -0.00392153847 0.999992311 -0
vn -0.254493299 0.967074537 -0
vn -0.380389255 0.921561596 -0.0776417341
vn -0.380389255 0.921561596 -0.0776417341
vn -0.380389255 0.921561596 -0.0776417341
vn -0.129339184 0.991600411 -0
vn -0.00392153847 0.999992311 -0
vn -0.254493299 0.967074537 -0
vn -0.254493299 0.967074537 -0
vn -0.254493299 0.967074537 -0
vn -0.129339184 0.991600411 -0
vn -0.00392153847 0.999992311 -0
vn -0.129339184 0.991600411 -0
vn -0.129339184 0.991600411 -0
vn -0.00392153847 0.999992311 -0
vn -0.00392153847 0.999992311 -0
g Cylinder001_0
f 3/3/3 2/2/2 1/1/1
f 4/4/4 3/3/3 1/1/1
f 4/4/4 1/1/1 5/5/5
f 6/6/6 3/3/3 4/4/4
f 7/7/7 4/4/4 5/5/5
f 7/7/7 5/5/5 8/8/8
f 9/9/9 6/6/6 4/4/4
f 9/9/9 4/4/4 7/7/7
f 10/10/10 6/6/6 9/9/9
f 11/11/11 7/7/7 8/8/8
f 11/11/11 8/8/8 12/12/12
f 13/13/13 10/10/10 9/9/9
f 14/14/14 10/10/10 13/13/13
f 15/15/15 9/9/9 7/7/7
f 15/15/15 7/7/7 11/11/11
f 13/13/13 9/9/9 15/15/15
f 16/16/16 11/11/11 12/12/12
f 16/16/16 12/12/12 17/17/17
f 18/18/18 16/16/16 17/17/17
f 19/19/19 14/14/14 13/13/13
f 20/20/20 14/14/14 19/19/19
f 21/21/21 13/13/13 15/15/15
f 19/19/19 13/13/13 21/21/21
f 22/22/22 15/15/15 11/11/11
f 22/22/22 11/11/11 16/16/16
f 21/21/21 15/15/15 22/22/22
f 23/23/23 16/16/16 18/18/18
f 23/23/23 22/22/22 16/16/16
f 24/24/24 23/23/23 18/18/18
f 20/20/20 19/19/19 25/25/25
f 26/26/26 20/20/20 25/25/25
f 27/27/27 19/19/19 21/21/21
f 25/25/25 19/19/19 27/27/27
f 28/28/28 21/21/21 22/22/22
f 28/28/28 22/22/22 23/23/23
f 27/27/27 21/21/21 28/28/28
f 29/29/29 23/23/23 24/24/24
f 29/29/29 28/28/28 23/23/23
f 30/30/30 29/29/29 24/24/24
f 26/26/26 25/25/25 31/31/31
f 32/32/32 26/26/26 31/31/31
f 25/25/25 27/27/27 33/33/33
f 31/31/31 25/25/25 33/33/33
f 34/34/34 27/27/27 28/28/28
f 34/34/34 28/28/28 29/29/29
f 33/33/33 27/27/27 34/34/34
f 35/35/35 29/29/29 30/30/30
f 35/35/35 34/34/34 29/29/29
f 36/36/36 35/35/35 30/30/30
f 32/32/32 31/31/31 37/37/37
f 38/38/38 32/32/32 37/37/37
f 31/31/31 33/33/33 39/39/39
f 37/37/37 31/31/31 39/39/39
f 33/33/33 34/34/34 40/40/40
f 40/40/40 34/34/34 35/35/35
f 39/39/39 33/33/33 40/40/40
f 41/41/41 35/35/35 36/36/36
f 40/40/40 35/35/35 41/41/41
f 41/41/41 36/36/36 42/42/42
f 38/38/38 37/37/37 43/43/43
f 44/44/44 38/38/38 43/43/43
f 37/37/37 39/39/39 45/45/45
f 43/43/43 37/37/37 45/45/45
f 39/39/39 40/40/40 46/46/46
f 46/46/46 40/40/40 41/41/41
f 45/45/45 39/39/39 46/46/46
f 47/47/47 41/41/41 42/42/42
f 46/46/46 41/41/41 47/47/47
f 47/47/47 42/42/42 48/48/48
f 49/49/49 44/44/44 43/43/43
f 50/50/50 44/44/44 49/49/49
f 43/43/43 45/45/45 51/51/51
f 49/49/49 43/43/43 51/51/51
f 45/45/45 46/46/46 52/52/52
f 52/52/52 46/46/46 47/47/47
f 51/51/51 45/45/45 52/52/52
f 53/53/53 47/47/47 48/48/48
f 52/52/52 47/47/47 53/53/53
f 53/53/53 48/48/48 54/54/54
f 55/55/55 50/50/50 49/49/49
f 56/56/56 50/50/50 55/55/55
f 57/57/57 49/49/49 51/51/51
f 55/55/55 49/49/49 57/57/57
f 51/51/51 52/52/52 58/58/58
f 58/58/58 52/52/52 53/53/53
f 57/57/57 51/51/51 58/58/58
f 59/59/59 53/53/53 54/54/54
f 58/58/58 53/53/53 59/59/59
f 59/59/59 54/54/54 60/60/60
f 61/61/61 56/56/56 55/55/55
f 62/62/62 56/56/56 61/61/61
f 63/63/63 55/55/55 57/57/57
f 61/61/61 55/55/55 63/63/63
f 64/64/64 57/57/57 58/58/58
f 64/64/64 58/58/58 59/59/59
f 63/63/63 57/57/57 64/64/64
f 65/65/65 59/59/59 60/60/60
f 65/65/65 64/64/64 59/59/59
f 66/66/66 65/65/65 60/60/60
f 67/67/67 62/62/62 61/61/61
f 68/68/68 62/62/62 67/67/67
f 69/69/69 61/61/61 63/63/63
f 67/67/67 61/61/61 69/69/69
f 70/70/70 63/63/63 64/64/64
f 70/70/70 64/64/64 65/65/65
f 69/69/69 63/63/63 70/70/70
f 71/71/71 65/65/65 66/66/66
f 71/71/71 70/70/70 65/65/65
f 72/72/72 71/71/71 66/66/66
f 73/73/73 68/68/68 67/67/67
f 74/74/74 68/68/68 73/73/73
f 75/75/75 67/67/67 69/69/69
f 73/73/73 67/67/67 75/75/75
f 76/76/76 69/69/69 70/70/70
f 76/76/76 70/70/70 71/71/71
f 75/75/75 69/69/69 76/76/76
f 77/77/77 71/71/71 72/72/72
f 77/77/77 76/76/76 71/71/71
f 78/78/78 77/77/77 72/72/72
f 79/79/79 74/74/74 73/73/73
f 80/80/80 74/74/74 79/79/79
f 81/81/81 73/73/73 75/75/75
f 79/79/79 73/73/73 81/81/81
f 82/82/82 75/75/75 76/76/76
f 82/82/82 76/76/76 77/77/77
f 81/81/81 75/75/75 82/82/82
f 83/83/83 77/77/77 78/78/78
f 83/83/83 82/82/82 77/77/77
f 84/84/84 83/83/83 78/78/78
f 85/85/85 80/80/80 79/79/79
f 86/86/86 80/80/80 85/85/85
f 87/87/87 79/79/79 81/81/81
f 85/85/85 79/79/79 87/87/87
f 88/88/88 81/81/81 82/82/82
f 88/88/88 82/82/82 83/83/83
f 87/87/87 81/81/81 88/88/88
f 89/89/89 83/83/83 84/84/84
f 89/89/89 88/88/88 83/83/83
f 90/90/90 89/89/89 84/84/84
f 91/91/91 86/86/86 85/85/85
f 92/92/92 86/86/86 91/91/91
f 93/93/93 85/85/85 87/87/87
f 91/91/91 85/85/85 93/93/93
f 94/94/94 87/87/87 88/88/88
f 94/94/94 88/88/88 89/89/89
f 93/93/93 87/87/87 94/94/94
f 95/95/95 89/89/89 90/90/90
f 95/95/95 94/94/94 89/89/89
f 96/96/96 95/95/95 90/90/90
f 92/92/92 91/91/91 97/97/97
f 98/98/98 92/92/92 97/97/97
f 99/99/99 91/91/91 93/93/93
f 97/97/97 91/91/91 99/99/99
f 100/100/100 93/93/93 94/94/94
f 100/100/100 94/94/94 95/95/95
f 99/99/99 93/93/93 100/100/100
f 101/101/101 95/95/95 96/96/96
f 101/101/101 100/100/100 95/95/95
f 102/102/102 101/101/101 96/96/96
f 98/98/98 97/97/97 103/103/103
f 104/104/104 98/98/98 103/103/103
f 97/97/97 99/99/99 105/105/105
f 103/103/103 97/97/97 105/105/105
f 106/106/106 99/99/99 100/100/100
f 106/106/106 100/100/100 101/101/101
f 105/105/105 99/99/99 106/106/106
f 107/107/107 101/101/101 102/102/102
f 107/107/107 106/106/106 101/101/101
f 108/108/108 107/107/107 102/102/102
f 104/104/104 103/103/103 109/109/109
f 110/110/110 104/104/104 109/109/109
f 103/103/103 105/105/105 111/111/111
f 109/109/109 103/103/103 111/111/111
f 105/105/105 106/106/106 112/112/112
f 112/112/112 106/106/106 107/107/107
f 111/111/111 105/105/105 112/112/112
f 113/113/113 107/107/107 108/108/108
f 112/112/112 107/107/107 113/113/113
f 113/113/113 108/108/108 114/114/114
f 110/110/110 109/109/109 115/115/115
f 116/116/116 110/110/110 115/115/115
f 109/109/109 111/111/111 117/117/117
f 115/115/115 109/109/109 117/117/117
f 111/111/111 112/112/112 118/118/118
f 118/118/118 112/112/112 113/113/113
f 117/117/117 111/111/111 118/118/118
f 119/119/119 113/113/113 114/114/114
f 118/118/118 113/113/113 119/119/119
f 119/119/119 114/114/114 120/120/120
f 121/121/121 116/116/116 115/115/115
f 122/122/122 116/116/116 121/121/121
f 115/115/115 117/117/117 123/123/123
f 121/121/121 115/115/115 123/123/123
f 117/117/117 118/118/118 124/124/124
f 124/124/124 118/118/118 119/119/119
f 123/123/123 117/117/117 124/124/124
f 125/125/125 119/119/119 120/120/120
f 124/124/124 119/119/119 125/125/125
f 125/125/125 120/120/120 126/126/126
f 127/127/127 122/122/122 121/121/121
f 128/128/128 122/122/122 127/127/127
f 129/129/129 121/121/121 123/123/123
f 127/127/127 121/121/121 129/129/129
f 123/123/123 124/124/124 130/130/130
f 130/130/130 124/124/124 125/125/125
f 129/129/129 123/123/123 130/130/130
f 131/131/131 125/125/125 126/126/126
f 130/130/130 125/125/125 131/131/131
f 131/131/131 126/126/126 132/132/132
f 133/133/133 128/128/128 127/127/127
f 134/134/134 128/128/128 133/133/133
f 135/135/135 127/127/127 129/129/129
f 133/133/133 127/127/127 135/135/135
f 136/136/136 129/129/129 130/130/130
f 136/136/136 130/130/130 131/131/131
f 135/135/135 129/129/129 136/136/136
f 137/137/137 131/131/131 132/132/132
f 137/137/137 136/136/136 131/131/131
f 138/138/138 137/137/137 132/132/132
f 139/139/139 134/134/134 133/133/133
f 140/140/140 134/134/134 139/139/139
f 141/141/141 133/133/133 135/135/135
f 139/139/139 133/133/133 141/141/141
f 142/142/142 135/135/135 136/136/136
f 142/142/142 136/136/136 137/137/137
f 141/141/141 135/135/135 142/142/142
f 143/143/143 137/137/137 138/138/138
f 143/143/143 142/142/142 137/137/137
f 144/144/144 143/143/143 138/138/138
f 145/145/145 140/140/140 139/139/139
f 146/146/146 140/140/140 145/145/145
f 147/147/147 139/139/139 141/141/141
f 145/145/145 139/139/139 147/147/147
f 148/148/148 141/141/141 142/142/142
f 148/148/148 142/142/142 143/143/143
f 147/147/147 141/141/141 148/148/148
f 149/149/149 143/143/143 144/144/144
f 149/149/149 148/148/148 143/143/143
f 150/150/150 149/149/149 144/144/144
f 151/151/151 146/146/146 145/145/145
f 152/152/152 146/146/146 151/151/151
f 153/153/153 145/145/145 147/147/147
f 151/151/151 145/145/145 153/153/153
f 154/154/154 147/147/147 148/148/148
f 154/154/154 148/148/148 149/149/149
f 153/153/153 147/147/147 154/154/154
f 155/155/155 149/149/149 150/150/150
f 155/155/155 154/154/154 149/149/149
f 156/156/156 155/155/155 150/150/150
f 157/157/157 152/152/152 151/151/151
f 158/158/158 152/152/152 157/157/157
f 159/159/159 151/151/151 153/153/153
f 157/157/157 151/151/151 159/159/159
f 160/160/160 153/153/153 154/154/154
f 160/160/160 154/154/154 155/155/155
f 159/159/159 153/153/153 160/160/160
f 161/161/161 155/155/155 156/156/156
f 161/161/161 160/160/160 155/155/155
f 162/162/162 161/161/161 156/156/156
f 163/163/163 158/158/158 157/157/157
f 164/164/164 158/158/158 163/163/163
f 165/165/165 157/157/157 159/159/159
f 163/163/163 157/157/157 165/165/165
f 166/166/166 159/159/159 160/160/160
f 166/166/166 160/160/160 161/161/161
f 165/165/165 159/159/159 166/166/166
f 167/167/167 161/161/161 162/162/162
f 167/167/167 166/166/166 161/161/161
f 168/168/168 167/167/167 162/162/162
f 164/164/164 163/163/163 169/169/169
f 170/170/170 164/164/164 169/169/169
f 171/171/171 163/163/163 165/165/165
f 169/169/169 163/163/163 171/171/171
f 172/172/172 165/165/165 166/166/166
f 172/172/172 166/166/166 167/167/167
f 171/171/171 165/165/165 172/172/172
f 173/173/173 167/167/167 168/168/168
f 173/173/173 172/172/172 167/167/167
f 174/174/174 173/173/173 168/168/168
f 170/170/170 169/169/169 175/175/175
f 176/176/176 170/170/170 175/175/175
f 169/169/169 171/171/171 177/177/177
f 175/175/175 169/169/169 177/177/177
f 178/178/178 171/171/171 172/172/172
f 178/178/178 172/172/172 173/173/173
f 177/177/177 171/171/171 178/178/178
f 179/179/179 173/173/173 174/174/174
f 179/179/179 178/178/178 173/173/173
f 180/180/180 179/179/179 174/174/174
f 176/176/176 175/175/175 181/181/181
f 182/182/182 176/176/176 181/181/181
f 175/175/175 177/177/177 183/183/183
f 181/181/181 175/175/175 183/183/183
f 177/177/177 178/178/178 184/184/184
f 184/184/184 178/178/178 179/179/179
f 183/183/183 177/177/177 184/184/184
f 185/185/185 179/179/179 180/180/180
f 184/184/184 179/179/179 185/185/185
f 185/185/185 180/180/180 186/186/186
f 182/182/182 181/181/181 187/187/187
f 188/188/188 182/182/182 187/187/187
f 181/181/181 183/183/183 189/189/189
f 187/187/187 181/181/181 189/189/189
f 183/183/183 184/184/184 190/190/190
f 190/190/190 184/184/184 185/185/185
f 189/189/189 183/183/183 190/190/190
f 191/191/191 185/185/185 186/186/186
f 190/190/190 185/185/185 191/191/191
f 191/191/191 186/186/186 192/192/192
f 193/193/193 188/188/188 187/187/187
f 194/194/194 188/188/188 193/193/193
f 187/187/187 189/189/189 195/195/195
f 193/193/193 187/187/187 195/195/195
f 189/189/189 190/190/190 196/196/196
f 196/196/196 190/190/190 191/191/191
f 195/195/195 189/189/189 196/196/196
f 197/197/197 191/191/191 192/192/192
f 196/196/196 191/191/191 197/197/197
f 197/197/197 192/192/192 198/198/198
f 199/199/199 194/194/194 193/193/193
f 200/200/200 194/194/194 199/199/199
f 201/201/201 193/193/193 195/195/195
f 199/199/199 193/193/193 201/201/201
f 195/195/195 196/196/196 202/202/202
f 202/202/202 196/196/196 197/197/197
f 201/201/201 195/195/195 202/202/202
f 203/203/203 197/197/197 198/198/198
f 202/202/202 197/197/197 203/203/203
f 203/203/203 198/198/198 204/204/204
f 205/205/205 200/200/200 199/199/199
f 206/206/206 200/200/200 205/205/205
f 207/207/207 199/199/199 201/201/201
f 205/205/205 199/199/199 207/207/207
f 208/208/208 201/201/201 202/202/202
f 208/208/208 202/202/202 203/203/203
f 207/207/207 201/201/201 208/208/208
f 209/209/209 203/203/203 204/204/204
f 209/209/209 208/208/208 203/203/203
f 210/210/210 209/209/209 204/204/204
f 211/211/211 206/206/206 205/205/205
f 212/212/212 206/206/206 211/211/211
f 213/213/213 205/205/205 207/207/207
f 211/211/211 205/205/205 213/213/213
f 214/214/214 207/207/207 208/208/208
f 214/214/214 208/208/208 209/209/209
f 213/213/213 207/207/207 214/214/214
f 215/215/215 209/209/209 210/210/210
f 215/215/215 214/214/214 209/209/209
f 216/216/216 215/215/215 210/210/210
f 217/217/217 212/212/212 211/211/211
f 218/218/218 212/212/212 217/217/217
f 219/219/219 211/211/211 213/213/213
f 217/217/217 211/211/211 219/219/219
f 220/220/220 213/213/213 214/214/214
f 220/220/220 214/214/214 215/215/215
f 219/219/219 213/213/213 220/220/220
f 221/221/221 215/215/215 216/216/216
f 221/221/221 220/220/220 215/215/215
f 222/222/222 221/221/221 216/216/216
f 223/223/223 218/218/218 217/217/217
f 224/224/224 218/218/218 223/223/223
f 225/225/225 217/217/217 219/219/219
f 223/223/223 217/217/217 225/225/225
f 226/226/226 219/219/219 220/220/220
f 226/226/226 220/220/220 221/221/221
f 225/225/225 219/219/219 226/226/226
f 227/227/227 221/221/221 222/222/222
f 227/227/227 226/226/226 221/221/221
f 228/228/228 227/227/227 222/222/222
f 229/229/229 224/224/224 223/223/223
f 230/230/230 224/224/224 229/229/229
f 231/231/231 223/223/223 225/225/225
f 229/229/229 223/223/223 231/231/231
f 232/232/232 225/225/225 226/226/226
f 232/232/232 226/226/226 227/227/227
f 231/231/231 225/225/225 232/232/232
f 233/233/233 227/227/227 228/228/228
f 233/233/233 232/232/232 227/227/227
f 234/234/234 233/233/233 228/228/228
f 235/235/235 230/230/230 229/229/229
f 236/236/236 230/230/230 235/235/235
f 237/237/237 229/229/229 231/231/231
f 235/235/235 229/229/229 237/237/237
f 238/238/238 231/231/231 232/232/232
f 238/238/238 232/232/232 233/233/233
f 237/237/237 231/231/231 238/238/238
f 239/239/239 233/233/233 234/234/234
f 239/239/239 238/238/238 233/233/233
f 240/240/240 239/239/239 234/234/234
f 236/236/236 235/235/235 241/241/241
f 242/242/242 236/236/236 241/241/241
f 243/243/243 235/235/235 237/237/237
f 241/241/241 235/235/235 243/243/243
f 244/244/244 237/237/237 238/238/238
f 244/244/244 238/238/238 239/239/239
f 243/243/243 237/237/237 244/244/244
f 245/245/245 239/239/239 240/240/240
f 245/245/245 244/244/244 239/239/239
f 246/246/246 245/245/245 240/240/240
f 242/242/242 241/241/241 247/247/247
f 248/248/248 242/242/242 247/247/247
f 241/241/241 243/243/243 249/249/249
f 247/247/247 241/241/241 249/249/249
f 250/250/250 243/243/243 244/244/244
f 250/250/250 244/244/244 245/245/245
f 249/249/249 243/243/243 250/250/250
f 251/251/251 245/245/245 246/246/246
f 251/251/251 250/250/250 245/245/245
f 252/252/252 251/251/251 246/246/246
f 248/248/248 247/247/247 253/253/253
f 254/254/254 248/248/248 253/253/253
f 247/247/247 249/249/249 255/255/255
f 253/253/253 247/247/247 255/255/255
f 249/249/249 250/250/250 256/256/256
f 256/256/256 250/250/250 251/251/251
f 255/255/255 249/249/249 256/256/256
f 257/257/257 251/251/251 252/252/252
f 256/256/256 251/251/251 257/257/257
f 257/257/257 252/252/252 258/258/258
f 254/254/254 253/253/253 259/259/259
f 260/260/260 254/254/254 259/259/259
f 253/253/253 255/255/255 261/261/261
f 259/259/259 253/253/253 261/261/261
f 255/255/255 256/256/256 262/262/262
f 262/262/262 256/256/256 257/257/257
f 261/261/261 255/255/255 262/262/262
f 263/263/263 257/257/257 258/258/258
f 262/262/262 257/257/257 263/263/263
f 263/263/263 258/258/258 264/264/264
f 265/265/265 260/260/260 259/259/259
f 266/266/266 260/260/260 265/265/265
f 259/259/259 261/261/261 267/267/267
f 265/265/265 259/259/259 267/267/267
f 261/261/261 262/262/262 268/268/268
f 268/268/268 262/262/262 263/263/263
f 267/267/267 261/261/261 268/268/268
f 269/269/269 263/263/263 264/264/264
f 268/268/268 263/263/263 269/269/269
f 269/269/269 264/264/264 270/270/270
f 271/271/271 266/266/266 265/265/265
f 272/272/272 266/266/266 271/271/271
f 273/273/273 265/265/265 267/267/267
f 271/271/271 265/265/265 273/273/273
f 267/267/267 268/268/268 274/274/274
f 274/274/274 268/268/268 269/269/269
f 273/273/273 267/267/267 274/274/274
f 275/275/275 269/269/269 270/270/270
f 274/274/274 269/269/269 275/275/275
f 275/275/275 270/270/270 276/276/276
f 277/277/277 272/272/272 271/271/271
f 278/278/278 272/272/272 277/277/277
f 279/279/279 278/278/278 277/277/277
f 280/280/280 271/271/271 273/273/273
f 277/277/277 271/271/271 280/280/280
f 281/281/281 273/273/273 274/274/274
f 281/281/281 274/274/274 275/275/275
f 280/280/280 273/273/273 281/281/281
f 282/282/282 275/275/275 276/276/276
f 282/282/282 281/281/281 275/275/275
f 283/283/283 282/282/282 276/276/276
f 279/279/279 277/277/277 284/284/284
f 284/284/284 277/277/277 280/280/280
f 285/285/285 279/279/279 284/284/284
f 286/286/286 280/280/280 281/281/281
f 286/286/286 281/281/281 282/282/282
f 284/284/284 280/280/280 286/286/286
f 287/287/287 282/282/282 283/283/283
f 287/287/287 286/286/286 282/282/282
f 288/288/288 287/287/287 283/283/283
f 285/285/285 284/284/284 289/289/289
f 289/289/289 284/284/284 286/286/286
f 289/289/289 286/286/286 287/287/287
f 290/290/290 285/285/285 289/289/289
f 291/291/291 287/287/287 288/288/288
f 291/291/291 289/289/289 287/287/287
f 290/290/290 289/289/289 291/291/291
f 292/292/292 291/291/291 288/288/288
f 293/293/293 290/290/290 291/291/291
f 293/293/293 291/291/291 292/292/292
f 294/294/294 293/293/293 292/292/292
