g dimian3dimian3_02_mobile
v -11.5497472 -0.496808811 -14.684496
v -11.5497472 -0.496808811 -16.7933102
v -9.45016647 -0.496808811 -16.7933102
v -9.45016647 -0.496808811 -14.684496
v 9.4501638 -0.496808811 -16.7933102
v 9.4501638 -0.496808811 -14.684496
v 11.5497445 -0.496808811 -16.7933102
v 11.5497445 -0.496808811 -14.684496
v 9.4501638 -0.496808811 -12.5756818
v 11.5497445 -0.496808811 -12.5756818
v 13.6498382 -0.496808811 -14.6757755
v 13.6498382 -0.496808811 -12.5756818
v 15.7499319 -0.496808811 -14.6757755
v 15.7499319 -0.496808811 -12.5756818
v 15.7499319 -0.496808811 -2.07572635
v 13.6498382 -0.496808811 -2.07572635
v -11.5497472 -0.496808811 -12.5756818
v -9.45016647 -0.496808811 -12.5756818
v -13.6498409 -0.496808811 -12.5756818
v -13.6498409 -0.496808811 -14.6757755
v -15.7499346 -0.496808811 -12.5756818
v -15.7499346 -0.496808811 -14.6757755
v -13.6498409 -0.496808811 -2.07572635
v -15.7499346 -0.496808811 -2.07572635
v -15.7499346 -0.496808811 0.023854379
v -13.6498409 -0.496808811 0.023854379
v -11.5497472 -0.496808811 -2.07572635
v -11.5497472 -0.496808811 0.023854379
v -13.6498409 -0.496808811 2.12394807
v -11.5497472 -0.496808811 2.12394807
v -13.6498409 -0.496808811 4.22404177
v -11.5497472 -0.496808811 4.22404177
v -15.7499346 -0.496808811 4.22404177
v -15.7499346 -0.496808811 2.12394807
v -13.6498409 -0.496808811 10.5243228
v -15.7499346 -0.496808811 10.5243228
v -15.7499346 -0.496808811 12.6239036
v -13.6498409 -0.496808811 12.6239036
v -11.5497472 -0.496808811 10.5243228
v -11.5497472 -0.496808811 12.6239036
v -9.45016647 -0.496808811 10.5243228
v -9.45016647 -0.496808811 12.6239036
v -11.5497472 -0.496808811 14.7239973
v -9.45016647 -0.496808811 14.7239973
v -11.5497472 -0.496808811 16.824091
v -9.45016647 -0.496808811 16.824091
v 9.4501638 -0.496808811 14.7239973
v 9.4501638 -0.496808811 16.824091
v 11.5497445 -0.496808811 14.7239973
v 11.5497445 -0.496808811 16.824091
v 11.5497445 -0.496808811 12.6239036
v 9.4501638 -0.496808811 12.6239036
v 11.5497445 -0.496808811 10.5243228
v 9.4501638 -0.496808811 10.5243228
v 13.6498382 -0.496808811 10.5243228
v 13.6498382 -0.496808811 12.6239036
v 15.7499319 -0.496808811 10.5243228
v 15.7499319 -0.496808811 12.6239036
v 13.6498382 -0.496808811 4.22404177
v 15.7499319 -0.496808811 4.22404177
v 15.7499319 -0.496808811 2.12394807
v 13.6498382 -0.496808811 2.12394807
v 11.5497445 -0.496808811 4.22404177
v 11.5497445 -0.496808811 2.12394807
v 13.6498382 -0.496808811 0.023854379
v 11.5497445 -0.496808811 0.023854379
v 11.5497445 -0.496808811 -2.07572635
v 15.7499319 -0.496808811 0.023854379
v -11.5497472 -0.496808811 -14.684496
v -11.5497472 -0.829212502 -14.684496
v -11.5497472 -0.829212502 -16.7933102
v -11.5497472 -0.496808811 -16.7933102
v 11.5497445 -0.496808811 -16.7933102
v 11.5497445 -0.829212502 -16.7933102
v 11.5497445 -0.829212502 -14.684496
v 11.5497445 -0.496808811 -14.684496
v -11.5497472 -0.496808811 -16.7933102
v -11.5497472 -0.829212502 -16.7933102
v -9.45016647 -0.829212502 -16.7933102
v -9.45016647 -0.496808811 -16.7933102
v -9.45016647 -0.496808811 -16.7933102
v -9.45016647 -0.829212502 -16.7933102
v 9.4501638 -0.829212502 -16.7933102
v 9.4501638 -0.496808811 -16.7933102
v 11.5497445 -0.829212502 -16.7933102
v 11.5497445 -0.496808811 -16.7933102
v 9.4501638 -0.496808811 -14.684496
v 9.4501638 -0.829212502 -14.684496
v -9.45016647 -0.829212502 -14.684496
v -9.45016647 -0.496808811 -14.684496
v -15.7499346 -0.496808811 -12.5756818
v -15.7499346 -0.829212502 -14.6757755
v -15.7499346 -0.496808811 -14.6757755
v -15.7499346 -0.829212502 -12.5756818
v -15.7499346 -0.496808811 -2.07572635
v -15.7499346 -0.829212502 -2.07572635
v -15.7499346 -0.496808811 0.023854379
v -15.7499346 -0.829212502 0.023854379
v -9.45016647 -0.496808811 -14.684496
v -9.45016647 -0.829212502 -14.684496
v -9.45016647 -0.829212502 -12.5756818
v -9.45016647 -0.496808811 -12.5756818
v 9.4501638 -0.496808811 -12.5756818
v 9.4501638 -0.829212502 -12.5756818
v 9.4501638 -0.829212502 -14.684496
v 9.4501638 -0.496808811 -14.684496
v 15.7499319 -0.496808811 -14.6757755
v 15.7499319 -0.829212502 -14.6757755
v 15.7499319 -0.829212502 -12.5756818
v 15.7499319 -0.496808811 -12.5756818
v 15.7499319 -0.829212502 -2.07572635
v 15.7499319 -0.496808811 -2.07572635
v 15.7499319 -0.829212502 0.023854379
v 15.7499319 -0.496808811 0.023854379
v -15.7499346 -0.496808811 -14.6757755
v -15.7499346 -0.829212502 -14.6757755
v -13.6498409 -0.829212502 -14.6757755
v -13.6498409 -0.496808811 -14.6757755
v -11.5497472 -0.829212502 -14.684496
v -11.5497472 -0.496808811 -14.684496
v 11.5497445 -0.496808811 -14.684496
v 11.5497445 -0.829212502 -14.684496
v 13.6498382 -0.829212502 -14.6757755
v 13.6498382 -0.496808811 -14.6757755
v 15.7499319 -0.829212502 -14.6757755
v 15.7499319 -0.496808811 -14.6757755
v -11.5497472 -0.496808811 -12.5756818
v -13.6498409 -0.829212502 -12.5756818
v -13.6498409 -0.496808811 -12.5756818
v -11.5497472 -0.829212502 -12.5756818
v -9.45016647 -0.496808811 -12.5756818
v -9.45016647 -0.829212502 -12.5756818
v 11.5497445 -0.496808811 -12.5756818
v 9.4501638 -0.829212502 -12.5756818
v 9.4501638 -0.496808811 -12.5756818
v 11.5497445 -0.829212502 -12.5756818
v 13.6498382 -0.496808811 -12.5756818
v 13.6498382 -0.829212502 -12.5756818
v -9.45016647 -0.496808811 16.824091
v -9.45016647 -0.829212502 16.824091
v -11.5497472 -0.829212502 16.824091
v -11.5497472 -0.496808811 16.824091
v -11.5497472 -0.496808811 16.824091
v -11.5497472 -0.829212502 16.824091
v -11.5497472 -0.829212502 14.7239973
v -11.5497472 -0.496808811 14.7239973
v -11.5497472 -0.829212502 12.6239036
v -11.5497472 -0.496808811 12.6239036
v 9.4501638 -0.496808811 16.824091
v -9.45016647 -0.829212502 16.824091
v -9.45016647 -0.496808811 16.824091
v 9.4501638 -0.829212502 16.824091
v 11.5497445 -0.496808811 16.824091
v 11.5497445 -0.829212502 16.824091
v 11.5497445 -0.496808811 14.7239973
v 11.5497445 -0.829212502 16.824091
v 11.5497445 -0.496808811 16.824091
v 11.5497445 -0.829212502 14.7239973
v 11.5497445 -0.496808811 12.6239036
v 11.5497445 -0.829212502 12.6239036
v -9.45016647 -0.496808811 14.7239973
v -9.45016647 -0.829212502 14.7239973
v 9.4501638 -0.829212502 14.7239973
v 9.4501638 -0.496808811 14.7239973
v -9.45016647 -0.496808811 12.6239036
v -9.45016647 -0.829212502 14.7239973
v -9.45016647 -0.496808811 14.7239973
v -9.45016647 -0.829212502 12.6239036
v -9.45016647 -0.496808811 10.5243228
v -9.45016647 -0.829212502 10.5243228
v 9.4501638 -0.496808811 14.7239973
v 9.4501638 -0.829212502 14.7239973
v 9.4501638 -0.829212502 12.6239036
v 9.4501638 -0.496808811 12.6239036
v 9.4501638 -0.829212502 10.5243228
v 9.4501638 -0.496808811 10.5243228
v -13.6498409 -0.496808811 12.6239036
v -15.7499346 -0.829212502 12.6239036
v -15.7499346 -0.496808811 12.6239036
v -13.6498409 -0.829212502 12.6239036
v -11.5497472 -0.496808811 12.6239036
v -11.5497472 -0.829212502 12.6239036
v -15.7499346 -0.496808811 12.6239036
v -15.7499346 -0.829212502 12.6239036
v -15.7499346 -0.829212502 10.5243228
v -15.7499346 -0.496808811 10.5243228
v -15.7499346 -0.829212502 4.22404177
v -15.7499346 -0.496808811 4.22404177
v -15.7499346 -0.829212502 2.12394807
v -15.7499346 -0.496808811 2.12394807
v 13.6498382 -0.496808811 12.6239036
v 11.5497445 -0.829212502 12.6239036
v 11.5497445 -0.496808811 12.6239036
v 13.6498382 -0.829212502 12.6239036
v 15.7499319 -0.496808811 12.6239036
v 15.7499319 -0.829212502 12.6239036
v 15.7499319 -0.496808811 10.5243228
v 15.7499319 -0.829212502 12.6239036
v 15.7499319 -0.496808811 12.6239036
v 15.7499319 -0.829212502 10.5243228
v 15.7499319 -0.496808811 4.22404177
v 15.7499319 -0.829212502 4.22404177
v 15.7499319 -0.496808811 2.12394807
v 15.7499319 -0.829212502 2.12394807
v -13.6498409 -0.496808811 10.5243228
v -13.6498409 -0.829212502 10.5243228
v -11.5497472 -0.829212502 10.5243228
v -11.5497472 -0.496808811 10.5243228
v -9.45016647 -0.829212502 10.5243228
v -9.45016647 -0.496808811 10.5243228
v 9.4501638 -0.496808811 10.5243228
v 9.4501638 -0.829212502 10.5243228
v 11.5497445 -0.829212502 10.5243228
v 11.5497445 -0.496808811 10.5243228
v 13.6498382 -0.829212502 10.5243228
v 13.6498382 -0.496808811 10.5243228
v 13.6498382 -0.496808811 10.5243228
v 13.6498382 -0.829212502 10.5243228
v 13.6498382 -0.829212502 4.22404177
v 13.6498382 -0.496808811 4.22404177
v -13.6498409 -0.496808811 4.22404177
v -13.6498409 -0.829212502 4.22404177
v -13.6498409 -0.829212502 10.5243228
v -13.6498409 -0.496808811 10.5243228
v -11.5497472 -0.496808811 4.22404177
v -11.5497472 -0.829212502 4.22404177
v -13.6498409 -0.829212502 4.22404177
v -13.6498409 -0.496808811 4.22404177
v -11.5497472 -0.496808811 2.12394807
v -11.5497472 -0.829212502 4.22404177
v -11.5497472 -0.496808811 4.22404177
v -11.5497472 -0.829212502 2.12394807
v -11.5497472 -0.496808811 0.023854379
v -11.5497472 -0.829212502 0.023854379
v -11.5497472 -0.496808811 -2.07572635
v -11.5497472 -0.829212502 -2.07572635
v 13.6498382 -0.496808811 4.22404177
v 13.6498382 -0.829212502 4.22404177
v 11.5497445 -0.829212502 4.22404177
v 11.5497445 -0.496808811 4.22404177
v 11.5497445 -0.496808811 4.22404177
v 11.5497445 -0.829212502 4.22404177
v 11.5497445 -0.829212502 2.12394807
v 11.5497445 -0.496808811 2.12394807
v 11.5497445 -0.829212502 0.023854379
v 11.5497445 -0.496808811 0.023854379
v 11.5497445 -0.829212502 -2.07572635
v 11.5497445 -0.496808811 -2.07572635
v -15.7499346 -0.496808811 2.12394807
v -15.7499346 -0.829212502 2.12394807
v -13.6498409 -0.829212502 2.12394807
v -13.6498409 -0.496808811 2.12394807
v -13.6498409 -0.496808811 2.12394807
v -13.6498409 -0.829212502 2.12394807
v -13.6498409 -0.829212502 0.023854379
v -13.6498409 -0.496808811 0.023854379
v 13.6498382 -0.496808811 2.12394807
v 13.6498382 -0.829212502 2.12394807
v 15.7499319 -0.829212502 2.12394807
v 15.7499319 -0.496808811 2.12394807
v 13.6498382 -0.496808811 0.023854379
v 13.6498382 -0.829212502 0.023854379
v 13.6498382 -0.829212502 2.12394807
v 13.6498382 -0.496808811 2.12394807
v -13.6498409 -0.496808811 0.023854379
v -13.6498409 -0.829212502 0.023854379
v -15.7499346 -0.829212502 0.023854379
v -15.7499346 -0.496808811 0.023854379
v 15.7499319 -0.496808811 0.023854379
v 15.7499319 -0.829212502 0.023854379
v 13.6498382 -0.829212502 0.023854379
v 13.6498382 -0.496808811 0.023854379
v -13.6498409 -0.496808811 -2.07572635
v -13.6498409 -0.829212502 -2.07572635
v -11.5497472 -0.829212502 -2.07572635
v -11.5497472 -0.496808811 -2.07572635
v 11.5497445 -0.496808811 -2.07572635
v 11.5497445 -0.829212502 -2.07572635
v 13.6498382 -0.829212502 -2.07572635
v 13.6498382 -0.496808811 -2.07572635
v 13.6498382 -0.496808811 -2.07572635
v 13.6498382 -0.829212502 -2.07572635
v 13.6498382 -0.829212502 -12.5756818
v 13.6498382 -0.496808811 -12.5756818
v -13.6498409 -0.496808811 -12.5756818
v -13.6498409 -0.829212502 -12.5756818
v -13.6498409 -0.829212502 -2.07572635
v -13.6498409 -0.496808811 -2.07572635
vt 0.137210872 0.92600996
vt 0.137210872 0.98676099
vt 0.197961902 0.98676099
vt 0.197961902 0.92600996
vt 0.742792568 0.988689594
vt 0.742792568 0.927938564
vt 0.803543598 0.988689594
vt 0.803543598 0.927938564
vt 0.742792568 0.867187534
vt 0.803543598 0.867187534
vt 0.864294628 0.927938564
vt 0.864294628 0.867187534
vt 0.925045658 0.927938564
vt 0.925045658 0.867187534
vt 0.925045658 0.564396686
vt 0.86525893 0.564396686
vt 0.137210872 0.86525893
vt 0.197961902 0.86525893
vt 0.0774241443 0.86525893
vt 0.0774241443 0.92600996
vt 0.0166731143 0.86525893
vt 0.0166731143 0.92600996
vt 0.0774241443 0.562468082
vt 0.0176374164 0.562468082
vt 0.0176374164 0.501717052
vt 0.0774241443 0.501717052
vt 0.138175174 0.562468082
vt 0.138175174 0.501717052
vt 0.0783884464 0.441930324
vt 0.138175174 0.441930324
vt 0.0783884464 0.381179294
vt 0.139139476 0.381179294
vt 0.0176374164 0.381179294
vt 0.0176374164 0.440966022
vt 0.0783884464 0.198926204
vt 0.0176374164 0.198926204
vt 0.0186017185 0.138175174
vt 0.0783884464 0.139139476
vt 0.139139476 0.199890506
vt 0.139139476 0.139139476
vt 0.199890506 0.199890506
vt 0.199890506 0.139139476
vt 0.139139476 0.0783884464
vt 0.199890506 0.0783884464
vt 0.139139476 0.0176374164
vt 0.199890506 0.0176374164
vt 0.744721172 0.0793527485
vt 0.744721172 0.0195660205
vt 0.805472202 0.0793527485
vt 0.805472202 0.0195660205
vt 0.805472202 0.140103778
vt 0.744721172 0.140103778
vt 0.805472202 0.200854808
vt 0.744721172 0.200854808
vt 0.86525893 0.200854808
vt 0.866223232 0.140103778
vt 0.92600996 0.200854808
vt 0.92600996 0.141068081
vt 0.86525893 0.383107898
vt 0.92600996 0.383107898
vt 0.92600996 0.442894626
vt 0.86525893 0.442894626
vt 0.8045079 0.382143596
vt 0.8045079 0.442894626
vt 0.86525893 0.503645656
vt 0.8045079 0.503645656
vt 0.8045079 0.564396686
vt 0.925045658 0.503645656
vt 0.966510647 0.104424602
vt 0.973260761 0.104424602
vt 0.973260761 0.057173801
vt 0.966510647 0.057173801
vt 0.933724377 0.526788906
vt 0.941438793 0.526788906
vt 0.941438793 0.479538105
vt 0.933724377 0.479538105
vt 0.966510647 0.057173801
vt 0.973260761 0.057173801
vt 0.973260761 0.00992299989
vt 0.966510647 0.00992299989
vt 0.933724377 0.996404011
vt 0.941438793 0.996404011
vt 0.941438793 0.574039707
vt 0.933724377 0.574039707
vt 0.941438793 0.526788906
vt 0.933724377 0.526788906
vt 0.965546345 0.433251606
vt 0.957831928 0.433251606
vt 0.957831928 0.85561591
vt 0.965546345 0.85561591
vt 0.966510647 0.245212703
vt 0.973260761 0.197961902
vt 0.966510647 0.197961902
vt 0.973260761 0.245212703
vt 0.966510647 0.479538105
vt 0.973260761 0.479538105
vt 0.966510647 0.526788906
vt 0.973260761 0.526788906
vt 0.9915825 0.52871751
vt 0.983868084 0.52871751
vt 0.983868084 0.575968311
vt 0.9915825 0.575968311
vt 0.965546345 0.386000805
vt 0.957831928 0.386000805
vt 0.957831928 0.433251606
vt 0.965546345 0.433251606
vt 0.933724377 0.386000805
vt 0.941438793 0.386000805
vt 0.941438793 0.338750004
vt 0.933724377 0.338750004
vt 0.941438793 0.1034603
vt 0.933724377 0.1034603
vt 0.941438793 0.057173801
vt 0.933724377 0.057173801
vt 0.966510647 0.197961902
vt 0.973260761 0.197961902
vt 0.973260761 0.150711101
vt 0.966510647 0.150711101
vt 0.973260761 0.104424602
vt 0.966510647 0.104424602
vt 0.933724377 0.479538105
vt 0.941438793 0.479538105
vt 0.941438793 0.432287304
vt 0.933724377 0.432287304
vt 0.941438793 0.386000805
vt 0.933724377 0.386000805
vt 0.9915825 0.623219112
vt 0.983868084 0.670469913
vt 0.9915825 0.670469913
vt 0.983868084 0.623219112
vt 0.9915825 0.575968311
vt 0.983868084 0.575968311
vt 0.965546345 0.338750004
vt 0.957831928 0.386000805
vt 0.965546345 0.386000805
vt 0.957831928 0.338750004
vt 0.965546345 0.291499202
vt 0.957831928 0.291499202
vt 0.974225063 0.573075405
vt 0.98193948 0.573075405
vt 0.98193948 0.526788906
vt 0.974225063 0.526788906
vt 0.974225063 0.526788906
vt 0.98193948 0.526788906
vt 0.98193948 0.479538105
vt 0.974225063 0.479538105
vt 0.98193948 0.432287304
vt 0.974225063 0.432287304
vt 0.942403095 0.432287304
vt 0.94915321 0.00992299989
vt 0.942403095 0.00992299989
vt 0.94915321 0.432287304
vt 0.942403095 0.479538105
vt 0.94915321 0.479538105
vt 0.942403095 0.526788906
vt 0.94915321 0.479538105
vt 0.942403095 0.479538105
vt 0.94915321 0.526788906
vt 0.942403095 0.573075405
vt 0.94915321 0.573075405
vt 0.950117512 0.432287304
vt 0.957831928 0.432287304
vt 0.957831928 0.00992299989
vt 0.950117512 0.00992299989
vt 0.950117512 0.479538105
vt 0.957831928 0.432287304
vt 0.950117512 0.432287304
vt 0.957831928 0.479538105
vt 0.950117512 0.526788906
vt 0.957831928 0.526788906
vt 0.989653896 0.00992299989
vt 0.98193948 0.00992299989
vt 0.98193948 0.057173801
vt 0.989653896 0.057173801
vt 0.98193948 0.1034603
vt 0.989653896 0.1034603
vt 0.974225063 0.386000805
vt 0.98193948 0.338750004
vt 0.974225063 0.338750004
vt 0.98193948 0.386000805
vt 0.974225063 0.432287304
vt 0.98193948 0.432287304
vt 0.974225063 0.338750004
vt 0.98193948 0.338750004
vt 0.98193948 0.291499202
vt 0.974225063 0.291499202
vt 0.98193948 0.150711101
vt 0.974225063 0.150711101
vt 0.98193948 0.1034603
vt 0.974225063 0.1034603
vt 0.942403095 0.620326206
vt 0.94915321 0.573075405
vt 0.942403095 0.573075405
vt 0.94915321 0.620326206
vt 0.942403095 0.667577007
vt 0.94915321 0.667577007
vt 0.942403095 0.714827808
vt 0.94915321 0.667577007
vt 0.942403095 0.667577007
vt 0.94915321 0.714827808
vt 0.942403095 0.85561591
vt 0.94915321 0.85561591
vt 0.942403095 0.901902409
vt 0.94915321 0.901902409
vt 0.950117512 0.620326206
vt 0.957831928 0.620326206
vt 0.957831928 0.573075405
vt 0.950117512 0.573075405
vt 0.957831928 0.526788906
vt 0.950117512 0.526788906
vt 0.989653896 0.1034603
vt 0.98193948 0.1034603
vt 0.98193948 0.150711101
vt 0.989653896 0.150711101
vt 0.98193948 0.197961902
vt 0.989653896 0.197961902
vt 0.989653896 0.197961902
vt 0.98193948 0.197961902
vt 0.98193948 0.338750004
vt 0.989653896 0.338750004
vt 0.950117512 0.761114307
vt 0.957831928 0.761114307
vt 0.957831928 0.620326206
vt 0.950117512 0.620326206
vt 0.950117512 0.808365108
vt 0.957831928 0.808365108
vt 0.957831928 0.761114307
vt 0.950117512 0.761114307
vt 0.950117512 0.85561591
vt 0.957831928 0.808365108
vt 0.950117512 0.808365108
vt 0.957831928 0.85561591
vt 0.950117512 0.901902409
vt 0.957831928 0.901902409
vt 0.950117512 0.94915321
vt 0.957831928 0.94915321
vt 0.989653896 0.338750004
vt 0.98193948 0.338750004
vt 0.98193948 0.386000805
vt 0.989653896 0.386000805
vt 0.989653896 0.386000805
vt 0.98193948 0.386000805
vt 0.98193948 0.432287304
vt 0.989653896 0.432287304
vt 0.98193948 0.479538105
vt 0.989653896 0.479538105
vt 0.98193948 0.526788906
vt 0.989653896 0.526788906
vt 0.974225063 0.1034603
vt 0.98193948 0.1034603
vt 0.98193948 0.057173801
vt 0.974225063 0.057173801
vt 0.974225063 0.057173801
vt 0.98193948 0.057173801
vt 0.98193948 0.00992299989
vt 0.974225063 0.00992299989
vt 0.942403095 0.94915321
vt 0.94915321 0.94915321
vt 0.94915321 0.901902409
vt 0.942403095 0.901902409
vt 0.942403095 0.996404011
vt 0.94915321 0.996404011
vt 0.94915321 0.94915321
vt 0.942403095 0.94915321
vt 0.966510647 0.574039707
vt 0.973260761 0.574039707
vt 0.973260761 0.526788906
vt 0.966510647 0.526788906
vt 0.933724377 0.057173801
vt 0.941438793 0.057173801
vt 0.941438793 0.00992299989
vt 0.933724377 0.00992299989
vt 0.9915825 0.904795315
vt 0.983868084 0.904795315
vt 0.983868084 0.952046116
vt 0.9915825 0.952046116
vt 0.965546345 0.00992299989
vt 0.957831928 0.00992299989
vt 0.957831928 0.057173801
vt 0.965546345 0.057173801
vt 0.965546345 0.057173801
vt 0.957831928 0.057173801
vt 0.957831928 0.291499202
vt 0.965546345 0.291499202
vt 0.9915825 0.670469913
vt 0.983868084 0.670469913
vt 0.983868084 0.904795315
vt 0.9915825 0.904795315
g dimian3dimian3_02_mobile_0
f 3/3/3 2/2/2 1/1/1
f 4/4/4 3/3/3 1/1/1
f 3/3/3 4/4/4 5/5/5
f 4/4/4 6/6/6 5/5/5
f 7/7/7 5/5/5 6/6/6
f 8/8/8 7/7/7 6/6/6
f 8/8/8 6/6/6 9/9/9
f 10/10/10 8/8/8 9/9/9
f 11/11/11 8/8/8 10/10/10
f 12/12/12 11/11/11 10/10/10
f 13/13/13 11/11/11 12/12/12
f 14/14/14 13/13/13 12/12/12
f 14/14/14 12/12/12 15/15/15
f 12/12/12 16/16/16 15/15/15
f 4/4/4 1/1/1 17/17/17
f 18/18/18 4/4/4 17/17/17
f 17/17/17 1/1/1 19/19/19
f 1/1/1 20/20/20 19/19/19
f 19/19/19 20/20/20 21/21/21
f 20/20/20 22/22/22 21/21/21
f 19/19/19 21/21/21 23/23/23
f 21/21/21 24/24/24 23/23/23
f 23/23/23 24/24/24 25/25/25
f 26/26/26 23/23/23 25/25/25
f 27/27/27 23/23/23 26/26/26
f 28/28/28 27/27/27 26/26/26
f 28/28/28 26/26/26 29/29/29
f 30/30/30 28/28/28 29/29/29
f 30/30/30 29/29/29 31/31/31
f 32/32/32 30/30/30 31/31/31
f 31/31/31 29/29/29 33/33/33
f 29/29/29 34/34/34 33/33/33
f 31/31/31 33/33/33 35/35/35
f 33/33/33 36/36/36 35/35/35
f 35/35/35 36/36/36 37/37/37
f 38/38/38 35/35/35 37/37/37
f 39/39/39 35/35/35 38/38/38
f 40/40/40 39/39/39 38/38/38
f 41/41/41 39/39/39 40/40/40
f 42/42/42 41/41/41 40/40/40
f 42/42/42 40/40/40 43/43/43
f 44/44/44 42/42/42 43/43/43
f 44/44/44 43/43/43 45/45/45
f 46/46/46 44/44/44 45/45/45
f 44/44/44 46/46/46 47/47/47
f 46/46/46 48/48/48 47/47/47
f 49/49/49 47/47/47 48/48/48
f 50/50/50 49/49/49 48/48/48
f 49/49/49 51/51/51 47/47/47
f 51/51/51 52/52/52 47/47/47
f 51/51/51 53/53/53 52/52/52
f 53/53/53 54/54/54 52/52/52
f 55/55/55 53/53/53 51/51/51
f 56/56/56 55/55/55 51/51/51
f 57/57/57 55/55/55 56/56/56
f 58/58/58 57/57/57 56/56/56
f 59/59/59 55/55/55 57/57/57
f 60/60/60 59/59/59 57/57/57
f 60/60/60 61/61/61 59/59/59
f 61/61/61 62/62/62 59/59/59
f 59/59/59 62/62/62 63/63/63
f 62/62/62 64/64/64 63/63/63
f 62/62/62 65/65/65 64/64/64
f 65/65/65 66/66/66 64/64/64
f 65/65/65 16/16/16 66/66/66
f 16/16/16 67/67/67 66/66/66
f 15/15/15 16/16/16 65/65/65
f 68/68/68 15/15/15 65/65/65
f 71/71/71 70/70/70 69/69/69
f 72/72/72 71/71/71 69/69/69
f 75/75/75 74/74/74 73/73/73
f 76/76/76 75/75/75 73/73/73
f 79/79/79 78/78/78 77/77/77
f 80/80/80 79/79/79 77/77/77
f 83/83/83 82/82/82 81/81/81
f 84/84/84 83/83/83 81/81/81
f 85/85/85 83/83/83 84/84/84
f 86/86/86 85/85/85 84/84/84
f 89/89/89 88/88/88 87/87/87
f 90/90/90 89/89/89 87/87/87
f 93/93/93 92/92/92 91/91/91
f 92/92/92 94/94/94 91/91/91
f 91/91/91 94/94/94 95/95/95
f 94/94/94 96/96/96 95/95/95
f 95/95/95 96/96/96 97/97/97
f 96/96/96 98/98/98 97/97/97
f 101/101/101 100/100/100 99/99/99
f 102/102/102 101/101/101 99/99/99
f 105/105/105 104/104/104 103/103/103
f 106/106/106 105/105/105 103/103/103
f 109/109/109 108/108/108 107/107/107
f 110/110/110 109/109/109 107/107/107
f 111/111/111 109/109/109 110/110/110
f 112/112/112 111/111/111 110/110/110
f 113/113/113 111/111/111 112/112/112
f 114/114/114 113/113/113 112/112/112
f 117/117/117 116/116/116 115/115/115
f 118/118/118 117/117/117 115/115/115
f 119/119/119 117/117/117 118/118/118
f 120/120/120 119/119/119 118/118/118
f 123/123/123 122/122/122 121/121/121
f 124/124/124 123/123/123 121/121/121
f 125/125/125 123/123/123 124/124/124
f 126/126/126 125/125/125 124/124/124
f 129/129/129 128/128/128 127/127/127
f 128/128/128 130/130/130 127/127/127
f 127/127/127 130/130/130 131/131/131
f 130/130/130 132/132/132 131/131/131
f 135/135/135 134/134/134 133/133/133
f 134/134/134 136/136/136 133/133/133
f 133/133/133 136/136/136 137/137/137
f 136/136/136 138/138/138 137/137/137
f 141/141/141 140/140/140 139/139/139
f 142/142/142 141/141/141 139/139/139
f 145/145/145 144/144/144 143/143/143
f 146/146/146 145/145/145 143/143/143
f 147/147/147 145/145/145 146/146/146
f 148/148/148 147/147/147 146/146/146
f 151/151/151 150/150/150 149/149/149
f 150/150/150 152/152/152 149/149/149
f 149/149/149 152/152/152 153/153/153
f 152/152/152 154/154/154 153/153/153
f 157/157/157 156/156/156 155/155/155
f 156/156/156 158/158/158 155/155/155
f 155/155/155 158/158/158 159/159/159
f 158/158/158 160/160/160 159/159/159
f 163/163/163 162/162/162 161/161/161
f 164/164/164 163/163/163 161/161/161
f 167/167/167 166/166/166 165/165/165
f 166/166/166 168/168/168 165/165/165
f 165/165/165 168/168/168 169/169/169
f 168/168/168 170/170/170 169/169/169
f 173/173/173 172/172/172 171/171/171
f 174/174/174 173/173/173 171/171/171
f 175/175/175 173/173/173 174/174/174
f 176/176/176 175/175/175 174/174/174
f 179/179/179 178/178/178 177/177/177
f 178/178/178 180/180/180 177/177/177
f 177/177/177 180/180/180 181/181/181
f 180/180/180 182/182/182 181/181/181
f 185/185/185 184/184/184 183/183/183
f 186/186/186 185/185/185 183/183/183
f 187/187/187 185/185/185 186/186/186
f 188/188/188 187/187/187 186/186/186
f 189/189/189 187/187/187 188/188/188
f 190/190/190 189/189/189 188/188/188
f 193/193/193 192/192/192 191/191/191
f 192/192/192 194/194/194 191/191/191
f 191/191/191 194/194/194 195/195/195
f 194/194/194 196/196/196 195/195/195
f 199/199/199 198/198/198 197/197/197
f 198/198/198 200/200/200 197/197/197
f 197/197/197 200/200/200 201/201/201
f 200/200/200 202/202/202 201/201/201
f 201/201/201 202/202/202 203/203/203
f 202/202/202 204/204/204 203/203/203
f 207/207/207 206/206/206 205/205/205
f 208/208/208 207/207/207 205/205/205
f 209/209/209 207/207/207 208/208/208
f 210/210/210 209/209/209 208/208/208
f 213/213/213 212/212/212 211/211/211
f 214/214/214 213/213/213 211/211/211
f 215/215/215 213/213/213 214/214/214
f 216/216/216 215/215/215 214/214/214
f 219/219/219 218/218/218 217/217/217
f 220/220/220 219/219/219 217/217/217
f 223/223/223 222/222/222 221/221/221
f 224/224/224 223/223/223 221/221/221
f 227/227/227 226/226/226 225/225/225
f 228/228/228 227/227/227 225/225/225
f 231/231/231 230/230/230 229/229/229
f 230/230/230 232/232/232 229/229/229
f 229/229/229 232/232/232 233/233/233
f 232/232/232 234/234/234 233/233/233
f 233/233/233 234/234/234 235/235/235
f 234/234/234 236/236/236 235/235/235
f 239/239/239 238/238/238 237/237/237
f 240/240/240 239/239/239 237/237/237
f 243/243/243 242/242/242 241/241/241
f 244/244/244 243/243/243 241/241/241
f 245/245/245 243/243/243 244/244/244
f 246/246/246 245/245/245 244/244/244
f 247/247/247 245/245/245 246/246/246
f 248/248/248 247/247/247 246/246/246
f 251/251/251 250/250/250 249/249/249
f 252/252/252 251/251/251 249/249/249
f 255/255/255 254/254/254 253/253/253
f 256/256/256 255/255/255 253/253/253
f 259/259/259 258/258/258 257/257/257
f 260/260/260 259/259/259 257/257/257
f 263/263/263 262/262/262 261/261/261
f 264/264/264 263/263/263 261/261/261
f 267/267/267 266/266/266 265/265/265
f 268/268/268 267/267/267 265/265/265
f 271/271/271 270/270/270 269/269/269
f 272/272/272 271/271/271 269/269/269
f 275/275/275 274/274/274 273/273/273
f 276/276/276 275/275/275 273/273/273
f 279/279/279 278/278/278 277/277/277
f 280/280/280 279/279/279 277/277/277
f 283/283/283 282/282/282 281/281/281
f 284/284/284 283/283/283 281/281/281
f 287/287/287 286/286/286 285/285/285
f 288/288/288 287/287/287 285/285/285
