g DiTanDiTan_mobile
v 0.0375135208 -0.0206202771 -0.0012224323
v 0.0333773413 -0.0210285988 -0.0012224323
v 0.0414822714 -0.0194158134 -0.0012224323
v -0.0375134612 -0.0206202771 -0.0012224323
v -0.0414822118 -0.0194158134 -0.0012224323
v -0.0333772817 -0.0210285988 -0.0012224323
v 0.0332133292 0.0234665104 -0.00143940661
v 0.0333739244 0.0212865165 -0.0012224323
v 8.8403188E-07 0.0212045105 -0.0012224323
v 8.8403188E-07 0.023375962 -0.00143940661
v 0.0377919997 0.0230154772 -0.00143940661
v 0.0375101039 0.0208781948 -0.0012224323
v 0.0333739244 0.0212865165 -0.0012224323
v 0.0377919997 0.0230154772 -0.00143940661
v 0.0421929904 0.0216794621 -0.00143940661
v 0.0414788544 0.0196754396 -0.0012224323
v 0.0375101039 0.0208781948 -0.0012224323
v 0.0468297484 0.0191577765 -0.00143940661
v 0.0512990774 0.014917381 -0.00143940661
v 0.0496914174 0.0135796575 -0.0012224323
v 0.045656037 0.0174014805 -0.0012224323
v 0.0512990774 0.014917381 -0.00143940661
v 0.0529289474 0.00822534661 -0.0012224323
v 0.0548936754 0.00898048554 -0.00143940661
v 0.0559819639 0.00314268074 -0.00143940661
v 0.053909603 0.00296329253 -0.0012224323
v 0.0529289474 0.00822534661 -0.0012224323
v 0.0559819639 0.00314268074 -0.00143940661
v 0.0538754338 -0.00278396393 -0.0012224323
v 0.0559409609 -0.00323328868 -0.00143940661
v 0.0559409609 -0.00323328868 -0.00143940661
v 0.0548936754 -0.00898054514 -0.00143940661
v 0.0529306559 -0.00796401197 -0.0012224323
v 0.0538754338 -0.00278396393 -0.0012224323
v 0.0548936754 -0.00898054514 -0.00143940661
v 0.0511606922 -0.0151463741 -0.00143940661
v 0.0495684084 -0.0135250464 -0.0012224323
v 0.0529306559 -0.00796401197 -0.0012224323
v 0.0511606922 -0.0151463741 -0.00143940661
v 0.0462659569 -0.0195952016 -0.00143940661
v 0.0451503331 -0.0175365084 -0.0012224323
v 0.0495684084 -0.0135250464 -0.0012224323
v 0.0421929904 -0.0216795217 -0.00143940661
v 0.0377919997 -0.0230155368 -0.00143940661
v 0.0375135208 -0.0206202771 -0.0012224323
v 0.0414822714 -0.0194158134 -0.0012224323
v 0.0377919997 -0.0230155368 -0.00143940661
v 0.0333773413 -0.0210285988 -0.0012224323
v 0.0375135208 -0.0206202771 -0.0012224323
v 0.0332133292 -0.02346657 -0.00143940661
v 8.8403188E-07 -0.0233760217 -0.00143940661
v 8.8403188E-07 -0.0209465928 -0.0012224323
v 0.0333773413 -0.0210285988 -0.0012224323
v 0.0332133292 0.0234665104 -0.00339730075
v 0.0332133292 0.0234665104 -0.00143940661
v 8.8403188E-07 0.023375962 -0.00143940661
v 8.8403188E-07 0.023375962 -0.00339730075
v 0.0332133292 0.0234665104 -0.00339730075
v 0.0377919997 0.0230154772 -0.00339559229
v 0.0377919997 0.0230154772 -0.00143940661
v 0.0332133292 0.0234665104 -0.00143940661
v 0.0377919997 0.0230154772 -0.00339559229
v 0.0421929904 0.0216794621 -0.00339559229
v 0.0421929904 0.0216794621 -0.00143940661
v 0.0377919997 0.0230154772 -0.00143940661
v 0.0468297484 0.0191577765 -0.00339730075
v 0.0512990774 0.014917381 -0.00339730075
v 0.0512990774 0.014917381 -0.00143940661
v 0.0468297484 0.0191577765 -0.00143940661
v 0.0512990774 0.014917381 -0.00339730075
v 0.0548936754 0.00898048554 -0.00339559229
v 0.0548936754 0.00898048554 -0.00143940661
v 0.0512990774 0.014917381 -0.00143940661
v 0.0548936754 0.00898048554 -0.00339559229
v 0.0559819639 0.00314268074 -0.00339730075
v 0.0559819639 0.00314268074 -0.00143940661
v 0.0548936754 0.00898048554 -0.00143940661
v 0.0559409609 -0.00323328868 -0.00339730075
v 0.0548936754 -0.00898054514 -0.00339559229
v 0.0548936754 -0.00898054514 -0.00143940661
v 0.0559409609 -0.00323328868 -0.00143940661
v 0.0548936754 -0.00898054514 -0.00339559229
v 0.0511606922 -0.0151463741 -0.00339730075
v 0.0511606922 -0.0151463741 -0.00143940661
v 0.0548936754 -0.00898054514 -0.00143940661
v 0.0511606922 -0.0151463741 -0.00339730075
v 0.0462659569 -0.0195952016 -0.00339730075
v 0.0462659569 -0.0195952016 -0.00143940661
v 0.0511606922 -0.0151463741 -0.00143940661
v 0.0377919997 -0.0230155368 -0.00339559229
v 0.0332133292 -0.02346657 -0.00339730075
v 0.0332133292 -0.02346657 -0.00143940661
v 0.0377919997 -0.0230155368 -0.00143940661
v 8.8403188E-07 0.0212045105 -0.0012224323
v 0.0333773413 -0.0210285988 -0.0012224323
v 8.8403188E-07 -0.0209465928 -0.0012224323
v 0.0333739244 0.0212865165 -0.0012224323
v 0.0414822714 -0.0194158134 -0.0012224323
v 0.0529306559 -0.00796401197 -0.0012224323
v 0.0495684084 -0.0135250464 -0.0012224323
v 0.0451503331 -0.0175365084 -0.0012224323
v 0.0414788544 0.0196754396 -0.0012224323
v 0.0375101039 0.0208781948 -0.0012224323
v 0.0529289474 0.00822534661 -0.0012224323
v 0.045656037 0.0174014805 -0.0012224323
v 0.0496914174 0.0135796575 -0.0012224323
v 0.053909603 0.00296329253 -0.0012224323
v 0.0538754338 -0.00278396393 -0.0012224323
v 0.0421929904 -0.0216795217 -0.00339559229
v 0.0377919997 -0.0230155368 -0.00339559229
v 0.0377919997 -0.0230155368 -0.00143940661
v 0.0421929904 -0.0216795217 -0.00143940661
v 0.0462659569 -0.0195952016 -0.00143940661
v 0.0421929904 -0.0216795217 -0.00143940661
v 0.0414822714 -0.0194158134 -0.0012224323
v 0.0451503331 -0.0175365084 -0.0012224323
v 0.0462659569 -0.0195952016 -0.00339730075
v 0.0421929904 -0.0216795217 -0.00339559229
v 0.0421929904 -0.0216795217 -0.00143940661
v 0.0462659569 -0.0195952016 -0.00143940661
v 0.0421929904 0.0216794621 -0.00339559229
v 0.0468297484 0.0191577765 -0.00339730075
v 0.0468297484 0.0191577765 -0.00143940661
v 0.0421929904 0.0216794621 -0.00143940661
v 0.0421929904 0.0216794621 -0.00143940661
v 0.0468297484 0.0191577765 -0.00143940661
v 0.045656037 0.0174014805 -0.0012224323
v 0.0414788544 0.0196754396 -0.0012224323
v 0.0559819639 0.00314268074 -0.00339730075
v 0.0559409609 -0.00323328868 -0.00339730075
v 0.0559409609 -0.00323328868 -0.00143940661
v 0.0559819639 0.00314268074 -0.00143940661
v 0.0332133292 -0.02346657 -0.00339730075
v 8.8403188E-07 -0.0233760217 -0.00339730075
v 8.8403188E-07 -0.0233760217 -0.00143940661
v 0.0332133292 -0.02346657 -0.00143940661
v 8.8403188E-07 0.0212045105 -0.0012224323
v -0.0333738648 0.0212865165 -0.0012224323
v -0.0332132696 0.0234665104 -0.00143940661
v 8.8403188E-07 0.023375962 -0.00143940661
v -0.0333738648 0.0212865165 -0.0012224323
v -0.0375100443 0.0208781948 -0.0012224323
v -0.0377919401 0.0230154772 -0.00143940661
v -0.0377919401 0.0230154772 -0.00143940661
v -0.0375100443 0.0208781948 -0.0012224323
v -0.0414787948 0.0196754396 -0.0012224323
v -0.0421929307 0.0216794621 -0.00143940661
v -0.0468296888 0.0191577765 -0.00143940661
v -0.0456559774 0.0174014805 -0.0012224323
v -0.0496913578 0.0135796575 -0.0012224323
v -0.0512990178 0.014917381 -0.00143940661
v -0.0512990178 0.014917381 -0.00143940661
v -0.0529288878 0.00822534661 -0.0012224323
v -0.0548936158 0.00898048554 -0.00143940661
v -0.0529288878 0.00822534661 -0.0012224323
v -0.0539095434 0.00296329253 -0.0012224323
v -0.0559819043 0.00314268074 -0.00143940661
v -0.0559819043 0.00314268074 -0.00143940661
v -0.0538753742 -0.00278396393 -0.0012224323
v -0.0559409012 -0.00323328868 -0.00143940661
v -0.0559409012 -0.00323328868 -0.00143940661
v -0.0538753742 -0.00278396393 -0.0012224323
v -0.0529305963 -0.00796401197 -0.0012224323
v -0.0548936158 -0.00898054514 -0.00143940661
v -0.0548936158 -0.00898054514 -0.00143940661
v -0.0529305963 -0.00796401197 -0.0012224323
v -0.0495683487 -0.0135250464 -0.0012224323
v -0.0511606326 -0.0151463741 -0.00143940661
v -0.0511606326 -0.0151463741 -0.00143940661
v -0.0495683487 -0.0135250464 -0.0012224323
v -0.0451502735 -0.0175365084 -0.0012224323
v -0.0462658973 -0.0195952016 -0.00143940661
v -0.0421929307 -0.0216795217 -0.00143940661
v -0.0414822118 -0.0194158134 -0.0012224323
v -0.0375134612 -0.0206202771 -0.0012224323
v -0.0377919401 -0.0230155368 -0.00143940661
v -0.0377919401 -0.0230155368 -0.00143940661
v -0.0375134612 -0.0206202771 -0.0012224323
v -0.0333772817 -0.0210285988 -0.0012224323
v -0.0332132696 -0.02346657 -0.00143940661
v 8.8403188E-07 -0.0209465928 -0.0012224323
v 8.8403188E-07 -0.0233760217 -0.00143940661
v -0.0333772817 -0.0210285988 -0.0012224323
v 8.8403188E-07 0.023375962 -0.00143940661
v -0.0332132696 0.0234665104 -0.00143940661
v -0.0332132696 0.0234665104 -0.00339730075
v 8.8403188E-07 0.023375962 -0.00339730075
v -0.0332132696 0.0234665104 -0.00339730075
v -0.0332132696 0.0234665104 -0.00143940661
v -0.0377919401 0.0230154772 -0.00143940661
v -0.0377919401 0.0230154772 -0.00339559229
v -0.0377919401 0.0230154772 -0.00339559229
v -0.0377919401 0.0230154772 -0.00143940661
v -0.0421929307 0.0216794621 -0.00143940661
v -0.0421929307 0.0216794621 -0.00339559229
v -0.0468296888 0.0191577765 -0.00339730075
v -0.0468296888 0.0191577765 -0.00143940661
v -0.0512990178 0.014917381 -0.00143940661
v -0.0512990178 0.014917381 -0.00339730075
v -0.0512990178 0.014917381 -0.00339730075
v -0.0512990178 0.014917381 -0.00143940661
v -0.0548936158 0.00898048554 -0.00143940661
v -0.0548936158 0.00898048554 -0.00339559229
v -0.0548936158 0.00898048554 -0.00339559229
v -0.0548936158 0.00898048554 -0.00143940661
v -0.0559819043 0.00314268074 -0.00143940661
v -0.0559819043 0.00314268074 -0.00339730075
v -0.0559409012 -0.00323328868 -0.00339730075
v -0.0559409012 -0.00323328868 -0.00143940661
v -0.0548936158 -0.00898054514 -0.00143940661
v -0.0548936158 -0.00898054514 -0.00339559229
v -0.0548936158 -0.00898054514 -0.00339559229
v -0.0548936158 -0.00898054514 -0.00143940661
v -0.0511606326 -0.0151463741 -0.00143940661
v -0.0511606326 -0.0151463741 -0.00339730075
v -0.0511606326 -0.0151463741 -0.00339730075
v -0.0511606326 -0.0151463741 -0.00143940661
v -0.0462658973 -0.0195952016 -0.00143940661
v -0.0462658973 -0.0195952016 -0.00339730075
v -0.0377919401 -0.0230155368 -0.00339559229
v -0.0377919401 -0.0230155368 -0.00143940661
v -0.0332132696 -0.02346657 -0.00143940661
v -0.0332132696 -0.02346657 -0.00339730075
v -0.0333772817 -0.0210285988 -0.0012224323
v 8.8403188E-07 0.0212045105 -0.0012224323
v 8.8403188E-07 -0.0209465928 -0.0012224323
v -0.0333738648 0.0212865165 -0.0012224323
v -0.0414822118 -0.0194158134 -0.0012224323
v -0.0529305963 -0.00796401197 -0.0012224323
v -0.0495683487 -0.0135250464 -0.0012224323
v -0.0451502735 -0.0175365084 -0.0012224323
v -0.0414787948 0.0196754396 -0.0012224323
v -0.0375100443 0.0208781948 -0.0012224323
v -0.0529288878 0.00822534661 -0.0012224323
v -0.0456559774 0.0174014805 -0.0012224323
v -0.0496913578 0.0135796575 -0.0012224323
v -0.0539095434 0.00296329253 -0.0012224323
v -0.0538753742 -0.00278396393 -0.0012224323
v -0.0421929307 -0.0216795217 -0.00339559229
v -0.0421929307 -0.0216795217 -0.00143940661
v -0.0377919401 -0.0230155368 -0.00143940661
v -0.0377919401 -0.0230155368 -0.00339559229
v -0.0462658973 -0.0195952016 -0.00143940661
v -0.0451502735 -0.0175365084 -0.0012224323
v -0.0414822118 -0.0194158134 -0.0012224323
v -0.0421929307 -0.0216795217 -0.00143940661
v -0.0462658973 -0.0195952016 -0.00339730075
v -0.0462658973 -0.0195952016 -0.00143940661
v -0.0421929307 -0.0216795217 -0.00143940661
v -0.0421929307 -0.0216795217 -0.00339559229
v -0.0421929307 0.0216794621 -0.00339559229
v -0.0421929307 0.0216794621 -0.00143940661
v -0.0468296888 0.0191577765 -0.00143940661
v -0.0468296888 0.0191577765 -0.00339730075
v -0.0421929307 0.0216794621 -0.00143940661
v -0.0414787948 0.0196754396 -0.0012224323
v -0.0456559774 0.0174014805 -0.0012224323
v -0.0468296888 0.0191577765 -0.00143940661
v -0.0559819043 0.00314268074 -0.00339730075
v -0.0559819043 0.00314268074 -0.00143940661
v -0.0559409012 -0.00323328868 -0.00143940661
v -0.0559409012 -0.00323328868 -0.00339730075
v 8.8403188E-07 -0.0233760217 -0.00143940661
v 8.8403188E-07 -0.0233760217 -0.00339730075
v -0.0332132696 -0.02346657 -0.00339730075
v -0.0332132696 -0.02346657 -0.00143940661
vt 0.720839258 0.847989238
vt 0.722110757 0.839724489
vt 0.716389008 0.856253986
vt 0.720839258 0.847989238
vt 0.716389008 0.856253986
vt 0.722110757 0.839724489
vt 0.518670789 0.287893576
vt 0.522485289 0.287893576
vt 0.522485289 0.230676085
vt 0.518670789 0.230676085
vt 0.518670789 0.296158324
vt 0.522485289 0.296158324
vt 0.522485289 0.287893576
vt 0.518670789 0.296158324
vt 0.518670789 0.303787323
vt 0.522485289 0.303787323
vt 0.522485289 0.296158324
vt 0.518670789 0.312687822
vt 0.518670789 0.32285982
vt 0.522485289 0.32285982
vt 0.522485289 0.312687822
vt 0.518670789 0.32285982
vt 0.522485289 0.334303318
vt 0.518670789 0.334303318
vt 0.518670789 0.344475317
vt 0.522485289 0.344475317
vt 0.522485289 0.334303318
vt 0.518670789 0.344475317
vt 0.522485289 0.355283065
vt 0.518670789 0.355283065
vt 0.518670789 0.355283065
vt 0.518670789 0.365455064
vt 0.522485289 0.365455064
vt 0.522485289 0.355283065
vt 0.518670789 0.365455064
vt 0.518670789 0.377534312
vt 0.522485289 0.377534312
vt 0.522485289 0.365455064
vt 0.518670789 0.377534312
vt 0.518670789 0.38834206
vt 0.522485289 0.38834206
vt 0.522485289 0.377534312
vt 0.518670789 0.395971059
vt 0.518670789 0.403600058
vt 0.522485289 0.403600058
vt 0.522485289 0.395971059
vt 0.518670789 0.403600058
vt 0.522485289 0.411864806
vt 0.522485289 0.403600058
vt 0.518670789 0.411864806
vt 0.518670789 0.469082297
vt 0.522485289 0.469082297
vt 0.522485289 0.411864806
vt 0.51549204 0.287893576
vt 0.518670789 0.287893576
vt 0.518670789 0.230676085
vt 0.51549204 0.230676085
vt 0.51549204 0.287893576
vt 0.51549204 0.296158324
vt 0.518670789 0.296158324
vt 0.518670789 0.287893576
vt 0.51549204 0.296158324
vt 0.51549204 0.303787323
vt 0.518670789 0.303787323
vt 0.518670789 0.296158324
vt 0.51549204 0.312687822
vt 0.51549204 0.32285982
vt 0.518670789 0.32285982
vt 0.518670789 0.312687822
vt 0.51549204 0.32285982
vt 0.51549204 0.334303318
vt 0.518670789 0.334303318
vt 0.518670789 0.32285982
vt 0.51549204 0.334303318
vt 0.51549204 0.344475317
vt 0.518670789 0.344475317
vt 0.518670789 0.334303318
vt 0.51549204 0.355283065
vt 0.51549204 0.365455064
vt 0.518670789 0.365455064
vt 0.518670789 0.355283065
vt 0.51549204 0.365455064
vt 0.51549204 0.377534312
vt 0.518670789 0.377534312
vt 0.518670789 0.365455064
vt 0.51549204 0.377534312
vt 0.51549204 0.38834206
vt 0.518670789 0.38834206
vt 0.518670789 0.377534312
vt 0.51549204 0.403600058
vt 0.51549204 0.411864806
vt 0.518670789 0.411864806
vt 0.518670789 0.403600058
vt 0.57715978 0.778056749
vt 0.722110757 0.839724489
vt 0.722110757 0.778056749
vt 0.57715978 0.839088739
vt 0.716389008 0.856253986
vt 0.676972514 0.879140983
vt 0.696045011 0.872147734
vt 0.710031509 0.863247235
vt 0.582881529 0.856253986
vt 0.57843128 0.847989238
vt 0.622298023 0.879140983
vt 0.591146278 0.864518735
vt 0.604497026 0.872783484
vt 0.64009902 0.881048232
vt 0.659807267 0.881048232
vt 0.51549204 0.395971059
vt 0.51549204 0.403600058
vt 0.518670789 0.403600058
vt 0.518670789 0.395971059
vt 0.518670789 0.38834206
vt 0.518670789 0.395971059
vt 0.522485289 0.395971059
vt 0.522485289 0.38834206
vt 0.51549204 0.38834206
vt 0.51549204 0.395971059
vt 0.518670789 0.395971059
vt 0.518670789 0.38834206
vt 0.51549204 0.303787323
vt 0.51549204 0.312687822
vt 0.518670789 0.312687822
vt 0.518670789 0.303787323
vt 0.518670789 0.303787323
vt 0.518670789 0.312687822
vt 0.522485289 0.312687822
vt 0.522485289 0.303787323
vt 0.51549204 0.344475317
vt 0.51549204 0.355283065
vt 0.518670789 0.355283065
vt 0.518670789 0.344475317
vt 0.51549204 0.411864806
vt 0.51549204 0.469082297
vt 0.518670789 0.469082297
vt 0.518670789 0.411864806
vt 0.522485289 0.230676085
vt 0.522485289 0.287893576
vt 0.518670789 0.287893576
vt 0.518670789 0.230676085
vt 0.522485289 0.287893576
vt 0.522485289 0.296158324
vt 0.518670789 0.296158324
vt 0.518670789 0.296158324
vt 0.522485289 0.296158324
vt 0.522485289 0.303787323
vt 0.518670789 0.303787323
vt 0.518670789 0.312687822
vt 0.522485289 0.312687822
vt 0.522485289 0.32285982
vt 0.518670789 0.32285982
vt 0.518670789 0.32285982
vt 0.522485289 0.334303318
vt 0.518670789 0.334303318
vt 0.522485289 0.334303318
vt 0.522485289 0.344475317
vt 0.518670789 0.344475317
vt 0.518670789 0.344475317
vt 0.522485289 0.355283065
vt 0.518670789 0.355283065
vt 0.518670789 0.355283065
vt 0.522485289 0.355283065
vt 0.522485289 0.365455064
vt 0.518670789 0.365455064
vt 0.518670789 0.365455064
vt 0.522485289 0.365455064
vt 0.522485289 0.377534312
vt 0.518670789 0.377534312
vt 0.518670789 0.377534312
vt 0.522485289 0.377534312
vt 0.522485289 0.38834206
vt 0.518670789 0.38834206
vt 0.518670789 0.395971059
vt 0.522485289 0.395971059
vt 0.522485289 0.403600058
vt 0.518670789 0.403600058
vt 0.518670789 0.403600058
vt 0.522485289 0.403600058
vt 0.522485289 0.411864806
vt 0.518670789 0.411864806
vt 0.522485289 0.469082297
vt 0.518670789 0.469082297
vt 0.522485289 0.411864806
vt 0.518670789 0.230676085
vt 0.518670789 0.287893576
vt 0.51549204 0.287893576
vt 0.51549204 0.230676085
vt 0.51549204 0.287893576
vt 0.518670789 0.287893576
vt 0.518670789 0.296158324
vt 0.51549204 0.296158324
vt 0.51549204 0.296158324
vt 0.518670789 0.296158324
vt 0.518670789 0.303787323
vt 0.51549204 0.303787323
vt 0.51549204 0.312687822
vt 0.518670789 0.312687822
vt 0.518670789 0.32285982
vt 0.51549204 0.32285982
vt 0.51549204 0.32285982
vt 0.518670789 0.32285982
vt 0.518670789 0.334303318
vt 0.51549204 0.334303318
vt 0.51549204 0.334303318
vt 0.518670789 0.334303318
vt 0.518670789 0.344475317
vt 0.51549204 0.344475317
vt 0.51549204 0.355283065
vt 0.518670789 0.355283065
vt 0.518670789 0.365455064
vt 0.51549204 0.365455064
vt 0.51549204 0.365455064
vt 0.518670789 0.365455064
vt 0.518670789 0.377534312
vt 0.51549204 0.377534312
vt 0.51549204 0.377534312
vt 0.518670789 0.377534312
vt 0.518670789 0.38834206
vt 0.51549204 0.38834206
vt 0.51549204 0.403600058
vt 0.518670789 0.403600058
vt 0.518670789 0.411864806
vt 0.51549204 0.411864806
vt 0.722110757 0.839724489
vt 0.57715978 0.778056749
vt 0.722110757 0.778056749
vt 0.57715978 0.839088739
vt 0.716389008 0.856253986
vt 0.676972514 0.879140983
vt 0.696045011 0.872147734
vt 0.710031509 0.863247235
vt 0.582881529 0.856253986
vt 0.57843128 0.847989238
vt 0.622298023 0.879140983
vt 0.591146278 0.864518735
vt 0.604497026 0.872783484
vt 0.64009902 0.881048232
vt 0.659807267 0.881048232
vt 0.51549204 0.395971059
vt 0.518670789 0.395971059
vt 0.518670789 0.403600058
vt 0.51549204 0.403600058
vt 0.518670789 0.38834206
vt 0.522485289 0.38834206
vt 0.522485289 0.395971059
vt 0.518670789 0.395971059
vt 0.51549204 0.38834206
vt 0.518670789 0.38834206
vt 0.518670789 0.395971059
vt 0.51549204 0.395971059
vt 0.51549204 0.303787323
vt 0.518670789 0.303787323
vt 0.518670789 0.312687822
vt 0.51549204 0.312687822
vt 0.518670789 0.303787323
vt 0.522485289 0.303787323
vt 0.522485289 0.312687822
vt 0.518670789 0.312687822
vt 0.51549204 0.344475317
vt 0.518670789 0.344475317
vt 0.518670789 0.355283065
vt 0.51549204 0.355283065
vt 0.518670789 0.469082297
vt 0.51549204 0.469082297
vt 0.51549204 0.411864806
vt 0.518670789 0.411864806
g DiTanDiTan_mobile_0
f 3/3/3 2/2/2 1/1/1
f 6/6/6 5/5/5 4/4/4
f 9/9/9 8/8/8 7/7/7
f 10/10/10 9/9/9 7/7/7
f 12/12/12 11/11/11 7/7/7
f 13/13/13 12/12/12 7/7/7
f 16/16/16 15/15/15 14/14/14
f 17/17/17 16/16/16 14/14/14
f 20/20/20 19/19/19 18/18/18
f 21/21/21 20/20/20 18/18/18
f 20/20/20 23/23/23 22/22/22
f 23/23/23 24/24/24 22/22/22
f 26/26/26 25/25/25 24/24/24
f 27/27/27 26/26/26 24/24/24
f 26/26/26 29/29/29 28/28/28
f 29/29/29 30/30/30 28/28/28
f 33/33/33 32/32/32 31/31/31
f 34/34/34 33/33/33 31/31/31
f 37/37/37 36/36/36 35/35/35
f 38/38/38 37/37/37 35/35/35
f 41/41/41 40/40/40 39/39/39
f 42/42/42 41/41/41 39/39/39
f 45/45/45 44/44/44 43/43/43
f 46/46/46 45/45/45 43/43/43
f 49/49/49 48/48/48 47/47/47
f 48/48/48 50/50/50 47/47/47
f 52/52/52 51/51/51 50/50/50
f 53/53/53 52/52/52 50/50/50
f 56/56/56 55/55/55 54/54/54
f 57/57/57 56/56/56 54/54/54
f 60/60/60 59/59/59 58/58/58
f 61/61/61 60/60/60 58/58/58
f 64/64/64 63/63/63 62/62/62
f 65/65/65 64/64/64 62/62/62
f 68/68/68 67/67/67 66/66/66
f 69/69/69 68/68/68 66/66/66
f 72/72/72 71/71/71 70/70/70
f 73/73/73 72/72/72 70/70/70
f 76/76/76 75/75/75 74/74/74
f 77/77/77 76/76/76 74/74/74
f 80/80/80 79/79/79 78/78/78
f 81/81/81 80/80/80 78/78/78
f 84/84/84 83/83/83 82/82/82
f 85/85/85 84/84/84 82/82/82
f 88/88/88 87/87/87 86/86/86
f 89/89/89 88/88/88 86/86/86
f 92/92/92 91/91/91 90/90/90
f 93/93/93 92/92/92 90/90/90
f 96/96/96 95/95/95 94/94/94
f 95/95/95 97/97/97 94/94/94
f 98/98/98 97/97/97 95/95/95
f 99/99/99 97/97/97 98/98/98
f 99/99/99 98/98/98 100/100/100
f 98/98/98 101/101/101 100/100/100
f 99/99/99 102/102/102 97/97/97
f 97/97/97 102/102/102 103/103/103
f 104/104/104 102/102/102 99/99/99
f 102/102/102 104/104/104 105/105/105
f 104/104/104 106/106/106 105/105/105
f 104/104/104 99/99/99 107/107/107
f 99/99/99 108/108/108 107/107/107
f 111/111/111 110/110/110 109/109/109
f 112/112/112 111/111/111 109/109/109
f 115/115/115 114/114/114 113/113/113
f 116/116/116 115/115/115 113/113/113
f 119/119/119 118/118/118 117/117/117
f 120/120/120 119/119/119 117/117/117
f 123/123/123 122/122/122 121/121/121
f 124/124/124 123/123/123 121/121/121
f 127/127/127 126/126/126 125/125/125
f 128/128/128 127/127/127 125/125/125
f 131/131/131 130/130/130 129/129/129
f 132/132/132 131/131/131 129/129/129
f 135/135/135 134/134/134 133/133/133
f 136/136/136 135/135/135 133/133/133
f 139/139/139 138/138/138 137/137/137
f 140/140/140 139/139/139 137/137/137
f 142/142/142 141/141/141 139/139/139
f 143/143/143 142/142/142 139/139/139
f 146/146/146 145/145/145 144/144/144
f 147/147/147 146/146/146 144/144/144
f 150/150/150 149/149/149 148/148/148
f 151/151/151 150/150/150 148/148/148
f 153/153/153 150/150/150 152/152/152
f 154/154/154 153/153/153 152/152/152
f 156/156/156 155/155/155 154/154/154
f 157/157/157 156/156/156 154/154/154
f 159/159/159 156/156/156 158/158/158
f 160/160/160 159/159/159 158/158/158
f 163/163/163 162/162/162 161/161/161
f 164/164/164 163/163/163 161/161/161
f 167/167/167 166/166/166 165/165/165
f 168/168/168 167/167/167 165/165/165
f 171/171/171 170/170/170 169/169/169
f 172/172/172 171/171/171 169/169/169
f 175/175/175 174/174/174 173/173/173
f 176/176/176 175/175/175 173/173/173
f 179/179/179 178/178/178 177/177/177
f 180/180/180 179/179/179 177/177/177
f 180/180/180 182/182/182 181/181/181
f 183/183/183 180/180/180 181/181/181
f 186/186/186 185/185/185 184/184/184
f 187/187/187 186/186/186 184/184/184
f 190/190/190 189/189/189 188/188/188
f 191/191/191 190/190/190 188/188/188
f 194/194/194 193/193/193 192/192/192
f 195/195/195 194/194/194 192/192/192
f 198/198/198 197/197/197 196/196/196
f 199/199/199 198/198/198 196/196/196
f 202/202/202 201/201/201 200/200/200
f 203/203/203 202/202/202 200/200/200
f 206/206/206 205/205/205 204/204/204
f 207/207/207 206/206/206 204/204/204
f 210/210/210 209/209/209 208/208/208
f 211/211/211 210/210/210 208/208/208
f 214/214/214 213/213/213 212/212/212
f 215/215/215 214/214/214 212/212/212
f 218/218/218 217/217/217 216/216/216
f 219/219/219 218/218/218 216/216/216
f 222/222/222 221/221/221 220/220/220
f 223/223/223 222/222/222 220/220/220
f 226/226/226 225/225/225 224/224/224
f 225/225/225 227/227/227 224/224/224
f 227/227/227 228/228/228 224/224/224
f 227/227/227 229/229/229 228/228/228
f 228/228/228 229/229/229 230/230/230
f 231/231/231 228/228/228 230/230/230
f 232/232/232 229/229/229 227/227/227
f 232/232/232 227/227/227 233/233/233
f 232/232/232 234/234/234 229/229/229
f 234/234/234 232/232/232 235/235/235
f 236/236/236 234/234/234 235/235/235
f 229/229/229 234/234/234 237/237/237
f 238/238/238 229/229/229 237/237/237
f 241/241/241 240/240/240 239/239/239
f 242/242/242 241/241/241 239/239/239
f 245/245/245 244/244/244 243/243/243
f 246/246/246 245/245/245 243/243/243
f 249/249/249 248/248/248 247/247/247
f 250/250/250 249/249/249 247/247/247
f 253/253/253 252/252/252 251/251/251
f 254/254/254 253/253/253 251/251/251
f 257/257/257 256/256/256 255/255/255
f 258/258/258 257/257/257 255/255/255
f 261/261/261 260/260/260 259/259/259
f 262/262/262 261/261/261 259/259/259
f 265/265/265 264/264/264 263/263/263
f 266/266/266 265/265/265 263/263/263
