g ground_03_1ground_03_1_mobile
v -11.236422 -3.61490983 3.21871724
v -10.8412475 -5.17825864 3.05871976
v -9.51162995 -5.17825864 4.40616837
v -9.85861242 -3.61490983 4.61483978
v -8.20948183 -5.17825864 5.38543002
v -9.91162363 -3.42069603 4.67556171
v -11.2990716 -3.42069603 3.26980077
v -8.50923613 -3.61490983 5.62976352
v -6.89480379 -5.17825864 6.13481578
v -10.0398144 -3.34021537 4.82206542
v -11.4499126 -3.34021537 3.39317232
v -8.55357278 -3.42069603 5.69723233
v -7.146848 -3.61490983 6.4061368
v -5.5695235 -5.17825864 6.61769973
v -10.8475125 -3.34021537 5.74108706
v -12.3973675 -3.34021537 4.16087104
v -8.66055905 -3.34021537 5.86012132
v -7.18058241 -3.42069603 6.47938866
v -5.77385763 -3.61490983 6.90636987
v -3.78641912 -5.17825864 6.9405862
v -9.33235567 -3.34021537 6.88420154
v -10.9761851 -3.42069603 5.88759077
v -12.5491724 -3.42069603 4.28376067
v -7.26250883 -3.34021537 6.65625334
v -5.79506211 -3.42069603 6.98444093
v -3.92569403 -3.61490983 7.24130434
v -1.4679015 -5.17825864 7.16998017
v -7.77430798 -3.34021537 7.76611533
v -9.43886001 -3.42069603 7.04709054
v -11.0291964 -3.61490983 5.94783078
v -12.611822 -3.61490983 4.3348442
v -3.93677819 -3.42069603 7.32082116
v -1.52332231 -3.61490983 7.47889095
v 1.25157364 -5.17825864 7.1251616
v -7.85575247 -3.42069603 7.94298001
v -9.48319666 -3.61490983 7.11407743
v -11.0291964 -6.81341355 5.94783078
v -12.611822 -6.81341355 4.3348442
v -1.52669576 -3.42069603 7.55937161
v 1.29398261 -3.61490983 7.4321447
v 4.01393967 -5.17825864 6.63986805
v -7.88948688 -3.61490983 8.01623187
v -9.48319666 -6.81341355 7.11407743
v -10.9761851 -7.00762735 5.88759077
v -12.5491724 -7.00762735 4.28376067
v -10.4663137 -7.02256688 5.49289821
v -11.9621937 -7.02256688 3.968103
v -9.00368616 -7.02256688 6.59601332
v -9.43886001 -7.00762735 7.04709054
v -7.50009544 -7.02256688 7.44708422
v -7.85575247 -7.00762735 7.94298001
v -5.9507223 -7.02256688 8.01189459
v -7.88948688 -6.81341355 8.01623187
v -6.21963372 -7.00762735 8.53911518
v -3.9897894 -7.02256688 8.37622618
v -6.24083821 -6.81341355 8.61670432
v -4.16376256 -7.00762735 8.92127782
v -1.52525 -7.02256688 8.61766816
v -6.24083821 -3.61490983 8.61670432
v -4.17532864 -6.81341355 9.00079464
v -1.59079113 -7.00762735 9.17332204
v 1.38892087 -7.02256688 8.56465694
v -6.21963372 -3.42069603 8.53911518
v -4.17532864 -3.61490983 9.00079464
v -1.59368265 -6.81341355 9.25380269
v 1.45542584 -7.00762735 9.1174193
v 4.34646454 -7.02256688 8.04948435
v -6.16855019 -3.34021537 8.35116634
v -4.16376256 -3.42069603 8.92127782
v -1.59368265 -3.61490983 9.25380269
v 1.46313657 -6.81341355 9.19789996
v 4.54597947 -7.00762735 8.57959647
v 7.08618033 -7.02256688 7.22877442
v -5.84566372 -3.34021537 7.17238977
v -4.13677504 -3.34021537 8.7289917
v -3.96376572 -3.34021537 7.51310728
v -1.59079113 -3.42069603 9.17332204
v 1.46313657 -3.61490983 9.19789996
v 4.56429243 -6.81341355 8.65814944
v -1.5348884 -3.34021537 7.75358541
v -1.58308041 -3.34021537 8.97862631
v 1.45542584 -3.42069603 9.1174193
v 1.43663096 -3.34021537 8.92368742
v 1.32048822 -3.34021537 7.70635724
v 4.56429243 -3.61490983 8.65814944
v 7.40135608 -7.00762735 7.72418828
v 9.4755402 -7.02256688 6.35987247
v 4.54597947 -3.42069603 8.57959647
v 7.42689784 -6.81341355 7.80081358
v 9.89143725 -7.00762735 6.81866041
v 11.7511669 -7.02256688 5.26687768
v 7.42689784 -3.61490983 7.80081358
v 4.5011609 -3.34021537 8.39020187
v 12.269231 -7.00762735 5.67650977
v 13.0865675 -7.02256688 4.40231301
v 9.92276206 -6.81341355 6.89287611
v 7.40135608 -3.42069603 7.72418828
v 13.6846304 -7.00762735 4.75989773
v 14.0643834 -7.02256688 3.30980014
v 9.92276206 -3.61490983 6.89287611
v 12.3082666 -6.81341355 5.7468701
v 14.7356981 -7.00762735 3.58545844
v 14.6436514 -7.02256688 2.0023509
v 13.7376416 -6.81341355 4.82110158
v 12.3082666 -3.61490983 5.7468701
v 9.89143725 -3.42069603 6.81866041
v 7.34015223 -3.34021537 7.5400948
v 15.3597847 -7.00762735 2.17728789
v 14.8282268 -7.02256688 0.559000188
v 14.8041308 -6.81341355 3.62979509
v 13.7376416 -3.61490983 4.82110158
v 12.269231 -3.42069603 5.67650977
v 15.5578538 -7.00714543 0.632252044
v 14.6899157 -7.02256688 -1.03567343
v 15.4383376 -6.81341355 2.1989743
v 14.8041308 -3.61490983 3.62979509
v 15.4108682 -7.00762735 -1.05784176
v 14.2629345 -7.02256688 -2.60432337
v 9.8157758 -3.34021537 6.63938613
v 13.6846304 -3.42069603 4.75989773
v 15.6373706 -6.81244971 0.633215884
v 14.9607548 -7.00810927 -2.71179155
v 13.6268 -7.02256688 -4.14357618
v 15.4899031 -6.81293163 -1.07278128
v 15.6127927 -3.61394599 0.624541322
v 15.4383376 -3.61490983 2.1989743
v 14.2884763 -7.00762735 -4.33923574
v 12.6239242 -7.02256688 -5.53632528
v 15.0373801 -6.81389547 -2.73781524
v 14.7356981 -3.42069603 3.58545844
v 13.2157221 -7.00762735 -5.82836886
v 11.0735873 -7.02256688 -6.59317607
v 15.4749636 -3.61442791 -1.0780824
v 15.3597847 -3.42069603 2.17776982
v 14.3588366 -6.81341355 -4.37875319
v 11.5487605 -7.00762735 -6.96521839
v 9.03988443 -7.02256688 -7.00136239
v 15.0417174 -3.61490983 -2.73829716
v 15.5308663 -3.42021411 0.622613642
v 13.2730706 -6.81341355 -5.88668119
v 9.37771042 -7.00762735 -7.40087416
v 6.37486626 -7.02256688 -6.8360638
v 14.3588366 -3.61346407 -4.37875319
v 15.3944829 -3.42069603 -1.06507056
v 11.5805672 -6.81341355 -7.04087984
v 6.58980262 -7.00762735 -7.22786484
v 3.72382377 -7.02256688 -6.64474152
v 13.2730706 -3.61153639 -5.88668119
v 14.965574 -3.42069603 -2.71275539
v 9.38349346 -6.81341355 -7.48135482
v 3.849123 -7.00762735 -7.0302776
v 1.09687729 -7.02256688 -6.65293416
v 11.5805672 -3.61009063 -7.04087984
v 14.2884763 -3.41925027 -4.33923574
v 6.5845015 -6.81341355 -7.30786358
v 1.14410546 -7.00762735 -7.03847024
v -1.31706051 -7.02256688 -6.90208685
v 9.38349346 -3.61490983 -7.48135482
v 13.2157221 -3.4178045 -5.82836886
v 3.84623148 -6.81341355 -7.11075826
v -1.33585539 -7.00762735 -7.29436982
v -4.23123138 -7.02256688 -7.56665467
v 6.5845015 -3.65105383 -7.30786358
v 11.5487605 -3.41587682 -6.96521839
v 1.14844274 -6.81341355 -7.1189509
v -4.3396634 -7.00762735 -7.97917828
v -6.21529644 -7.02256688 -8.10303175
v 3.84623148 -3.61490983 -7.11075826
v 9.37771042 -3.42069603 -7.40039224
v -1.32236163 -6.81341355 -7.37388663
v -6.39553456 -7.00762735 -8.53531408
v -8.04129171 -7.02256688 -8.52278416
v 1.14844274 -3.61490983 -7.1189509
v 6.58980262 -3.45684003 -7.22786484
v -4.32038659 -6.81341355 -8.05724934
v -8.30201049 -7.00762735 -8.97337946
v -9.90776827 -7.02256688 -8.74350357
v -1.32236163 -3.61490983 -7.37388663
v 3.849123 -3.42069603 -7.0302776
v -6.37625776 -6.81341355 -8.61338514
v -10.2672807 -7.00762735 -9.20566495
v -11.7014749 -7.02256688 -8.55410897
v -4.32038659 -3.61490983 -8.05724934
v 1.14410546 -3.42069603 -7.03847024
v -8.28803481 -6.81341355 -9.05241435
v -12.1795396 -7.00762735 -9.00422234
v -13.2132583 -7.02256688 -7.8620717
v -6.37625776 -3.61490983 -8.61338514
v -1.33585539 -3.42069603 -7.29436982
v -10.2667987 -6.81341355 -9.28662752
v -13.8127669 -7.00762735 -8.25628234
v -14.2855305 -7.02256688 -6.63365735
v -8.28803481 -3.61490983 -9.05241435
v -4.3396634 -3.42069603 -7.97917828
v -12.201226 -6.81341355 -9.08277532
v -14.9804593 -7.00762735 -6.91847214
v -14.7684144 -7.02256688 -4.87368514
v -10.2667987 -3.61490983 -9.28662752
v -6.39553456 -3.42069603 -8.53531408
v -13.8619227 -6.81341355 -8.3223054
v -15.5014149 -7.00762735 -5.02163461
v -14.6358864 -7.02256688 -2.48721679
v -15.0532292 -6.81341355 -6.95750766
v -13.8619227 -3.61490983 -8.3223054
v -15.3611762 -7.00762735 -2.49830095
v -14.0320405 -7.02256688 -0.0867727505
v -15.5823775 -6.81341355 -5.03030917
v -14.7274512 -7.00762735 0.0187677521
v -13.1342234 -7.02256688 2.20764886
v -12.201226 -3.61490983 -9.08277532
v -15.0532292 -3.61490983 -6.95750766
v -15.440693 -6.81341355 -2.48625295
v -13.7852974 -7.00762735 2.42740443
v -11.9621937 -7.02256688 3.968103
v -12.5491724 -7.00762735 4.28376067
v -14.8045584 -6.81341355 0.0433456774
v -13.8571035 -6.81341355 2.46451228
v -12.611822 -6.81341355 4.3348442
v -14.8045584 -3.61490983 0.0433456774
v -13.8571035 -3.61490983 2.46451228
v -12.611822 -3.61490983 4.3348442
v -15.5823775 -3.61490983 -5.03030917
v -13.7852974 -3.42069603 2.42740443
v -12.5491724 -3.42069603 4.28376067
v -15.440693 -3.61490983 -2.48625295
v -14.7279331 -3.42069603 0.0187677521
v -13.6118062 -3.34021537 2.33680345
v -12.3973675 -3.34021537 4.16087104
v -15.3611762 -3.42069603 -2.49830095
v -15.5014149 -3.42069603 -5.02163461
v -14.9804593 -3.42069603 -6.91847214
v -14.5423939 -3.34021537 -0.0405084206
v -12.533269 -3.34021537 1.77488461
v -11.4499126 -3.34021537 3.39317232
v -15.1684081 -3.34021537 -2.52769807
v -15.3057554 -3.34021537 -5.00091204
v -13.3756653 -3.34021537 -0.414478421
v -12.3597778 -3.42069603 1.68476555
v -11.2990716 -3.42069603 3.26980077
v -13.9621621 -3.34021537 -2.70841811
v -13.1901261 -3.42069603 -0.473272673
v -12.2879717 -3.61490983 1.64717578
v -11.236422 -3.61490983 3.21871724
v -10.8412475 -5.17825864 3.05871976
v -11.8561713 -5.17825864 1.5421172
v -13.1135008 -3.61490983 -0.497850599
v -12.6527852 -5.17825864 -0.528211565
v -13.2094029 -5.17825864 -2.70408083
v -13.769876 -3.42069603 -2.73974292
v -13.6898772 -3.61490983 -2.75227284
v -13.836381 -3.61490983 -4.84428801
v -13.3506055 -5.17825864 -4.72236222
v -13.9173435 -3.42069603 -4.85103489
v -13.5250606 -3.61490983 -6.13727965
v -13.0503693 -5.17825864 -5.97053529
v -14.1130031 -3.34021537 -4.86693826
v -12.8214572 -3.61490983 -6.92859246
v -12.3713438 -5.17825864 -6.73437866
v -11.3250953 -5.17825864 -7.17870899
v -13.5987943 -3.42069603 -6.17583326
v -13.7761409 -3.34021537 -6.26836192
v -12.8696492 -3.42069603 -6.99557935
v -11.737137 -3.61490983 -7.38930808
v -14.8050404 -3.34021537 -6.82449772
v -10.2783648 -3.61490983 -7.51894458
v -9.91644283 -5.17825864 -7.30400822
v -12.985792 -3.34021537 -7.15702259
v -11.7568957 -3.42069603 -7.46834297
v -13.6937326 -3.34021537 -8.09724871
v -8.59164447 -3.61490983 -7.30208054
v -8.28899865 -5.17825864 -7.09485489
v -10.2764372 -3.42069603 -7.59990716
v -11.8046058 -3.34021537 -7.65918333
v -13.8127669 -3.42069603 -8.25628234
v -6.80757625 -3.61490983 -6.88811117
v -6.56709812 -5.17825864 -6.69486121
v -8.57766879 -3.42069603 -7.38159735
v -12.1274923 -3.34021537 -8.81434582
v -12.1795396 -3.42069603 -9.00422234
v -10.2725818 -3.34021537 -7.7950848
v -4.75025933 -3.61490983 -6.33149345
v -4.58206921 -5.17825864 -6.15800221
v -10.2687264 -3.34021537 -9.0104873
v -10.2672807 -3.42069603 -9.20566495
v -6.78781752 -3.42069603 -6.96618223
v -8.54297054 -3.34021537 -7.57291964
v -1.61151369 -3.61490983 -5.62162514
v -1.55271944 -5.17825864 -5.47319375
v -8.33526298 -3.34021537 -8.78157525
v -8.30201049 -3.42069603 -8.97337946
v -6.74058935 -3.34021537 -7.15413107
v -4.73098252 -3.42069603 -6.40956451
v -6.44276273 -3.34021537 -8.34688332
v 1.05446832 -3.61490983 -5.34452108
v 1.02025199 -5.17825864 -5.20572809
v -1.59850185 -3.42069603 -5.70114195
v -4.68423627 -3.34021537 -6.59799527
v -4.38689157 -3.34021537 -7.79074752
v 3.90743533 -3.61490983 -5.33391884
v 3.77346154 -5.17825864 -5.19512585
v 1.0588056 -3.42069603 -5.42500174
v -1.56717704 -3.34021537 -5.89294616
v -1.3671802 -3.34021537 -7.10256561
v 6.70353577 -3.65105383 -5.53295184
v 6.4717322 -5.17825864 -5.38741197
v 3.90502573 -3.42069603 -5.41439949
v 1.06940784 -3.34021537 -5.61921554
v 1.13398514 -3.34021537 -6.84425644
v 9.27265184 -3.61539175 -5.71993684
v 8.95121113 -5.17825864 -5.56765009
v 6.69775273 -3.45684003 -5.61295058
v 3.89827885 -3.34021537 -5.60861329
v 3.85586988 -3.34021537 -6.8360638
v 10.8413018 -3.61105447 -5.47704911
v 10.4649222 -5.17825864 -5.33343692
v 6.68377705 -3.37635938 -5.80668246
v 6.60281447 -3.37635938 -7.03413296
v 9.27554336 -3.42069603 -5.80089942
v 12.0798364 -3.61250023 -4.63127932
v 11.660566 -5.17825864 -4.51754618
v 9.283736 -3.34021537 -5.99607706
v 9.36469858 -3.34021537 -7.2052146
v 10.8711808 -3.41684066 -5.55415632
v 12.8841611 -3.61394599 -3.43563555
v 12.4364573 -5.17825864 -3.36286561
v 10.9444327 -3.33636001 -5.73921364
v 11.4716533 -3.33587809 -6.78257067
v 12.1376669 -3.41828642 -4.68910974
v 13.3843942 -3.61442791 -2.08866886
v 12.9154859 -5.17825864 -2.06264517
v 12.2779056 -3.33780577 -4.82838465
v 13.0783749 -3.33732385 -5.68716627
v 12.9559672 -3.41973219 -3.47226148
v 13.7116179 -3.61539175 -0.792785702
v 13.2557215 -5.17825864 -0.78507498
v 13.1299403 -3.33925153 -3.5614167
v 14.1178766 -3.33876961 -4.24381556
v 13.4615014 -3.42021411 -2.11228294
v 13.8402906 -3.61587367 0.530566902
v 13.3877676 -5.17825864 0.518036979
v 13.2735525 -5.17825864 1.58163465
v 13.6475225 -3.34021537 -2.17011336
v 14.7809986 -3.33973345 -2.6505877
v 13.7901709 -3.42117795 -0.808207145
v 15.2021968 -3.34021537 -1.03278191
v 13.9819751 -3.34021537 -0.842423473
v 13.9202893 -3.42117795 0.526711541
v 13.7516173 -3.61490983 1.68862091
v 15.3356887 -3.34021537 0.619722121
v 14.114985 -3.34021537 0.5233381
v 13.3140338 -3.61490983 2.69342433
v 12.8513905 -5.17825864 2.55173982
v 13.8306522 -3.42069603 1.70789771
v 15.1699081 -3.34021537 2.12668628
v 14.0219745 -3.34021537 1.75512588
v 12.5338052 -3.61490983 3.53341107
v 12.0986313 -5.17825864 3.36232943
v 13.3824665 -3.42069603 2.7382429
v 14.5708815 -3.34021537 3.47895409
v 13.5472832 -3.34021537 2.846193
v 11.4393646 -3.61490983 4.19846081
v 11.0427444 -5.17825864 4.00424701
v 12.5853706 -3.42069603 3.59606068
v 13.5574035 -3.34021537 4.61098442
v 12.7092241 -3.34021537 3.74834743
v 9.23361631 -3.61490983 5.25482967
v 8.91362136 -5.17825864 5.02398995
v 11.4779182 -3.42069603 4.26930306
v 12.1738109 -3.34021537 5.50687389
v 11.5704469 -3.34021537 4.4403847
v 6.8673886 -3.61490983 6.11264746
v 6.62980199 -5.17825864 5.85144676
v 9.2644592 -3.42069603 5.32952729
v 9.33963873 -3.34021537 5.50831965
v 4.15658802 -3.61490983 6.92950203
v 6.89244845 -3.42069603 6.18879084
v 6.9536523 -3.34021537 6.37336623
v 4.17538291 -3.42069603 7.00805501
v 4.22020148 -3.34021537 7.19744961
v 1.30169333 -3.42069603 7.51262536
v 11.3796065 -4.31465782 -6.828835
v 14.839311 -4.31465782 -0.934470212
v 14.3540174 -4.31465782 3.43847281
v 1.267477 -4.31465782 -6.39173346
v 7.17148019 -4.31465782 7.48274631
v -1.53585224 -4.31465782 8.88513381
v -10.6441422 -4.31465782 5.69434081
v -14.2879401 -4.31465782 -0.00532825306
v -11.7752087 -4.31465782 -8.81482774
v -15.0387716 -4.31465782 -4.90308226
v -13.3732557 -6.95702574 2.33150233
v -12.171347 -6.95702574 4.13677504
v -12.171347 -8.02014149 4.13677504
v -13.3732557 -8.02014149 2.33150233
v -14.2879401 -6.95702574 -0.00532825306
v -14.2879401 -8.02014149 -0.00532825306
v -14.9023882 -8.02014149 -2.44721742
v -14.9023882 -6.95702574 -2.44721742
v -15.0387716 -6.95702574 -4.90308226
v -15.0387716 -8.02014149 -4.90308226
v -14.5279363 -6.95702574 -6.76377578
v -14.5279363 -8.02014149 -6.76377578
v -13.3780749 -6.95702574 -8.08086342
v -13.3780749 -8.02014149 -8.08086342
v -11.7752087 -8.02014149 -8.81482774
v -11.7752087 -6.95702574 -8.81482774
v -9.90825019 -6.95702574 -9.01193306
v -9.90825019 -8.02014149 -9.01193306
v -7.9979189 -6.95702574 -8.78591254
v -7.9979189 -8.02014149 -8.78591254
v -6.15216491 -6.95702574 -8.36182284
v -6.15216491 -8.02014149 -8.36182284
v -4.16809984 -6.95702574 -7.82496385
v -4.16809984 -8.02014149 -7.82496385
v -1.27416962 -6.95702574 -7.16521523
v -1.27416962 -8.02014149 -7.16521523
v 1.11133489 -6.95702574 -6.91943598
v 1.11133489 -8.02014149 -6.91943598
v 3.71563113 -6.95702574 -6.91124333
v 3.71563113 -8.02014149 -6.91124333
v 6.35848098 -6.96714607 -7.10160177
v 6.35848098 -8.02014149 -7.10160177
v 9.06012507 -6.95702574 -7.26930997
v 9.06012507 -8.02014149 -7.26930997
v 11.3796065 -6.95702574 -6.828835
v 11.3796065 -8.02014149 -6.828835
v 12.9607864 -6.95702574 -5.75318933
v 12.9607864 -8.02014149 -5.75318933
v 14.1072743 -6.95702574 -3.72478761
v 14.1072743 -8.02014149 -3.72478761
v 14.5988328 -6.95702574 -2.15951111
v 14.5988328 -8.02014149 -2.15951111
v 14.839311 -6.95702574 -0.934470212
v 14.839311 -8.02014149 -0.934470212
v 15.0455728 -6.95702574 0.593216515
v 15.0455728 -8.02014149 0.593216515
v 14.9564175 -8.02014149 2.09439764
v 14.9564175 -6.95702574 2.09439764
v 14.3540174 -6.95702574 3.43847281
v 14.3540174 -8.02014149 3.43847281
v 13.3516236 -6.95702574 4.54881672
v 13.3516236 -8.02014149 4.54881672
v 11.883695 -6.95702574 5.50012701
v 11.883695 -8.02014149 5.50012701
v 9.58059879 -6.95702574 6.60613364
v 9.58059879 -8.02014149 6.60613364
v 7.17148019 -6.95702574 7.48274631
v 7.17148019 -8.02014149 7.48274631
v 4.40863224 -6.95702574 8.31020313
v 4.40863224 -8.02014149 8.31020313
v 1.41446264 -6.95702574 8.83115876
v 1.41446264 -8.02014149 8.83115876
v -1.53585224 -6.95702574 8.88513381
v -1.53585224 -8.02014149 8.88513381
v -4.02786109 -6.95702574 8.64128224
v -4.02786109 -8.02014149 8.64128224
v -6.02204648 -6.95702574 8.27020376
v -6.02204648 -8.02014149 8.27020376
v -7.61334666 -6.95702574 7.69045388
v -7.61334666 -8.02014149 7.69045388
v -9.15163563 -6.95702574 6.82010617
v -9.15163563 -8.02014149 6.82010617
v -10.6441422 -6.95702574 5.69434081
v -10.6441422 -8.02014149 5.69434081
v -12.171347 -6.95702574 4.13677504
v -12.171347 -8.02014149 4.13677504
v -12.7679641 -8.29579979 4.40520453
v -11.1660617 -15.8074884 6.03794984
v -12.7679641 -15.8074884 4.40520453
v -11.1660617 -8.29579979 6.03794984
v -12.7043506 -8.09821255 4.35315716
v -9.60078517 -15.8074884 7.2186541
v -11.1120866 -8.09821255 5.97626407
v -12.5501362 -8.01676805 4.22833985
v -9.60078517 -8.29579979 7.2186541
v -7.98779858 -15.8074884 8.13189269
v -7.98779858 -8.29579979 8.13189269
v -6.31890926 -15.8074884 8.74007586
v -9.5559666 -8.09821255 7.15022144
v -10.9814863 -8.01676805 5.82783268
v -6.31890926 -8.29579979 8.74007586
v -4.22737601 -15.8074884 9.12898539
v -10.3125812 -8.01676805 5.47265756
v -11.7858109 -8.01676805 3.97099452
v -8.87212197 -8.01676805 6.55938739
v -9.44753457 -8.01676805 6.98492285
v -7.39118149 -8.01676805 7.39792837
v -7.95310033 -8.09821255 8.05719508
v -7.87021008 -8.01676805 7.87743888
v -5.86445861 -8.01676805 7.95358225
v -4.22737601 -8.29579979 9.12898539
v -1.61440521 -15.8074884 9.38440304
v -6.29722286 -8.09821255 8.66055905
v -6.24517549 -8.01676805 8.46971868
v -3.93292283 -8.01676805 8.31309465
v -1.61440521 -8.29579979 9.38440304
v 1.48000377 -15.8074884 9.32801839
v -4.21580993 -8.09821255 9.04754089
v -4.18834049 -8.01676805 8.85188133
v -1.50549127 -8.01676805 8.55068126
v 1.48000377 -8.29579979 9.32801839
v 4.61971324 -15.8074884 8.78152099
v -1.61103177 -8.09821255 9.30247662
v -1.60332105 -8.01676805 9.10488938
v 1.36482486 -8.01676805 8.49815197
v 4.61971324 -8.29579979 8.78152099
v 7.51749882 -15.8074884 7.91358288
v 1.47229305 -8.09821255 9.24657389
v 1.45349816 -8.01676805 9.04946857
v 4.27803189 -8.01676805 7.99117202
v 7.51749882 -8.29579979 7.91358288
v 10.0442059 -15.8074884 6.99456125
v 4.60091836 -8.09821255 8.70200417
v 4.55561787 -8.01676805 8.50923613
v 6.97726639 -8.01676805 7.18251009
v 10.0442059 -8.29579979 6.99456125
v 12.4591076 -15.8074884 5.83457956
v 7.49147514 -8.09821255 7.83599375
v 7.42930744 -8.01676805 7.64852683
v 9.33048225 -8.01676805 6.32661998
v 12.4591076 -8.29579979 5.83457956
v 13.9983604 -15.8074884 4.83700495
v 10.0123992 -8.09869447 6.91889979
v 9.9357739 -8.01676805 6.73673399
v 11.5718927 -8.01676805 5.25001047
v 13.9983604 -8.29579979 4.83700495
v 15.050392 -15.8074884 3.67220406
v 12.4191082 -8.09869447 5.76325538
v 12.3222423 -8.01676805 5.59024607
v 12.9747621 -8.01676805 4.34110916
v 15.050392 -8.29579979 3.67220406
v 15.6817073 -15.8074884 2.26306967
v 13.9448672 -8.09869447 4.77435533
v 13.8157127 -8.01676805 4.6225505
v 13.9111328 -8.01676805 3.30353518
v 14.9809955 -8.09869447 3.62690357
v 14.8132873 -8.01676805 3.51798962
v 14.4677506 -8.01676805 2.06162707
v 15.6817073 -8.29579979 2.26306967
v 15.6012266 -8.09869447 2.24331095
v 15.406049 -8.01676805 2.19511894
v 14.5511227 -8.01676805 0.656348049
v 15.7751998 -8.29579979 0.688636696
v 15.7751998 -15.8074884 0.688636696
v 15.5588177 -15.8074884 -0.913747648
v 15.6927915 -8.09869447 0.691528216
v 15.4947223 -8.01676805 0.698757018
v 14.3525716 -8.01676805 -0.814954027
v 15.5588177 -8.29579979 -0.913747648
v 15.3067735 -15.8074884 -2.19806472
v 15.478337 -8.09869447 -0.900253885
v 15.2831594 -8.01676805 -0.867965238
v 14.1202862 -8.01676805 -1.99951364
v 15.3067735 -8.29579979 -2.19806472
v 14.7911189 -15.8074884 -3.83996652
v 15.2272566 -8.09869447 -2.17782408
v 15.0359344 -8.01676805 -2.12915015
v 13.6484864 -8.01676805 -3.50117668
v 14.7911189 -8.29579979 -3.83996652
v 13.5887283 -15.8074884 -5.96716185
v 14.7154575 -8.09869447 -3.80719595
v 14.5332917 -8.01676805 -3.72816105
v 12.5632023 -8.01676805 -5.42114637
v 13.5887283 -8.29579979 -5.96716185
v 11.9309231 -15.8074884 -7.09485489
v 13.5270425 -8.09869447 -5.91029528
v 13.3776473 -8.01676805 -5.77294805
v 11.1015386 -8.01676805 -6.41534755
v 11.9309231 -8.29579979 -7.09485489
v 9.49819045 -15.8074884 -7.55701627
v 11.8986345 -8.09869447 -7.01774768
v 11.8215273 -8.01676805 -6.8312446
v 8.90301912 -8.01676805 -6.83269036
v 9.49819045 -8.29579979 -7.55701627
v 6.66498216 -15.8074884 -7.38111543
v 9.49288933 -8.09869447 -7.47460793
v 9.4803594 -8.01676805 -7.27605685
v 6.04137755 -8.01676805 -6.71269225
v 6.66498216 -8.34543756 -7.38111543
v 3.89297773 -15.8074884 -7.18160051
v 6.59703143 -8.11315207 -7.31268278
v 6.43317859 -8.01676805 -7.1478661
v 3.66502952 -8.01676805 -6.48185252
v 3.89297773 -8.29579979 -7.18160051
v 1.1619365 -15.8074884 -7.18979315
v 3.89586925 -8.09869447 -7.09967409
v 3.90261613 -8.01676805 -6.90208685
v 1.07711856 -8.01676805 -6.49004516
v 1.1619365 -8.29579979 -7.18979315
v -1.33971076 -15.8074884 -7.44810233
v 1.15759922 -8.09869447 -7.10834866
v 1.14699698 -8.01676805 -6.91076141
v -1.30067523 -8.01676805 -6.73486058
v -1.33971076 -8.29579979 -7.44810233
v -4.37436165 -15.8074884 -8.1401396
v -1.35320452 -8.09869447 -7.36713975
v -1.38549317 -8.01676805 -7.17196211
v -4.17147328 -8.01676805 -7.38979
v -4.37436165 -8.29579979 -8.1401396
v -6.45577457 -15.8074884 -8.70302228
v -4.39412037 -8.09869447 -8.06062278
v -4.44183046 -8.01676805 -7.86881858
v -6.12614122 -8.01676805 -7.91845635
v -6.45577457 -8.29579979 -8.70302228
v -8.39116571 -15.8074884 -9.14735261
v -6.4755333 -8.09869447 -8.62350546
v -6.52324339 -8.01676805 -8.43170126
v -7.92514897 -8.01676805 -8.33146188
v -8.39116571 -8.29579979 -9.14735261
v -10.3945076 -15.8074884 -9.3844573
v -8.40514139 -8.09869447 -9.06639004
v -8.4388758 -8.01676805 -8.87169431
v -9.76319224 -8.01676805 -8.54880785
v -10.3945076 -8.29579979 -9.3844573
v -12.352067 -15.8074884 -9.17771358
v -10.3949895 -8.09869447 -9.30204897
v -10.3959533 -8.01676805 -9.10349788
v -11.5299113 -8.01676805 -8.36278669
v -12.352067 -8.29579979 -9.17771358
v -12.3303806 -8.09869447 -9.09771484
v -12.2773694 -8.01676805 -8.9049468
v -13.0185625 -8.01676805 -7.68086974
v -14.0334863 -8.29579979 -8.40808717
v -14.0334863 -15.8074884 -8.40808717
v -15.2397323 -15.8074884 -7.02642224
v -13.9833666 -8.09869447 -8.34110028
v -13.8628866 -8.01676805 -8.17917513
v -14.0744495 -8.01676805 -6.47125028
v -15.2397323 -8.29579979 -7.02642224
v -15.7751455 -15.8074884 -5.07560966
v -15.1655166 -8.09869447 -6.98690479
v -14.9872062 -8.01676805 -6.89100269
v -14.5501046 -8.01676805 -4.73826559
v -15.7751455 -8.29579979 -5.07560966
v -15.6320153 -15.8074884 -2.49974671
v -15.6927372 -8.09869447 -5.06645318
v -15.4937042 -8.01676805 -5.04524869
v -14.4195043 -8.01676805 -2.38745932
v -15.6320153 -8.29579979 -2.49974671
v -15.5510527 -8.09821255 -2.51227663
v -15.3549112 -8.01676805 -2.54215568
v -13.8248149 -8.01676805 -0.0231592969
v -14.9876881 -8.29579979 0.0606948011
v -14.9876881 -15.8074884 0.0606948011
v -14.0286671 -15.8074884 2.51174045
v -14.909617 -8.09821255 0.0356349557
v -14.7211863 -8.01676805 -0.0246050572
v -12.9404915 -8.01676805 2.23704599
v -14.0286671 -8.29579979 2.51174045
v -12.7679641 -15.8074884 4.40520453
v -12.7679641 -8.29579979 4.40520453
v -13.9554152 -8.09821255 2.47366876
v -12.7043506 -8.09821255 4.35315716
v -13.7795144 -8.01676805 2.38210394
v -11.7858109 -8.01676805 3.97099452
v -12.5501362 -8.01676805 4.22833985
vt 0.163936502 0.944690153
vt 0.183334108 0.944690153
vt 0.183334108 0.919473265
vt 0.163936502 0.919473265
vt 0.183334108 0.897166018
vt 0.161996741 0.919473265
vt 0.161996741 0.944690153
vt 0.163936502 0.897166018
vt 0.183334108 0.875828651
vt 0.1590871 0.919473265
vt 0.1590871 0.944690153
vt 0.161996741 0.897166018
vt 0.163936502 0.875828651
vt 0.183334108 0.856431045
vt 0.144538895 0.919473265
vt 0.144538895 0.944690153
vt 0.1590871 0.897166018
vt 0.161996741 0.875828651
vt 0.163936502 0.856431045
vt 0.183334108 0.832184037
vt 0.144538895 0.897166018
vt 0.141629254 0.919473265
vt 0.141629254 0.944690153
vt 0.1590871 0.875828651
vt 0.161996741 0.856431045
vt 0.163936502 0.832184037
vt 0.183334108 0.801147867
vt 0.144538895 0.875828651
vt 0.141629254 0.897166018
vt 0.139689494 0.919473265
vt 0.139689494 0.944690153
vt 0.161996741 0.832184037
vt 0.163936502 0.801147867
vt 0.183334108 0.765262295
vt 0.141629254 0.875828651
vt 0.139689494 0.897166018
vt 0.100894281 0.919473265
vt 0.100894281 0.944690153
vt 0.161996741 0.801147867
vt 0.163936502 0.765262295
vt 0.183334108 0.728406843
vt 0.139689494 0.875828651
vt 0.100894281 0.897166018
vt 0.0979846403 0.919473265
vt 0.0979846403 0.944690153
vt 0.0902255978 0.919473265
vt 0.0902255978 0.944690153
vt 0.0902255978 0.897166018
vt 0.0979846403 0.897166018
vt 0.0902255978 0.875828651
vt 0.0979846403 0.875828651
vt 0.0902255978 0.856431045
vt 0.100894281 0.875828651
vt 0.0979846403 0.856431045
vt 0.0902255978 0.832184037
vt 0.100894281 0.856431045
vt 0.0979846403 0.832184037
vt 0.0902255978 0.801147867
vt 0.139689494 0.856431045
vt 0.100894281 0.832184037
vt 0.0979846403 0.801147867
vt 0.0902255978 0.765262295
vt 0.141629254 0.856431045
vt 0.139689494 0.832184037
vt 0.100894281 0.801147867
vt 0.0979846403 0.765262295
vt 0.0902255978 0.728406843
vt 0.144538895 0.856431045
vt 0.141629254 0.832184037
vt 0.139689494 0.801147867
vt 0.100894281 0.765262295
vt 0.0979846403 0.728406843
vt 0.0902255978 0.693491152
vt 0.1590871 0.856431045
vt 0.144538895 0.832184037
vt 0.1590871 0.832184037
vt 0.141629254 0.801147867
vt 0.139689494 0.765262295
vt 0.100894281 0.728406843
vt 0.1590871 0.801147867
vt 0.144538895 0.801147867
vt 0.141629254 0.765262295
vt 0.144538895 0.765262295
vt 0.1590871 0.765262295
vt 0.139689494 0.728406843
vt 0.0979846403 0.693491152
vt 0.0902255978 0.662454982
vt 0.141629254 0.728406843
vt 0.100894281 0.693491152
vt 0.0979846403 0.662454982
vt 0.0902255978 0.631418812
vt 0.139689494 0.693491152
vt 0.144538895 0.728406843
vt 0.0979846403 0.631418812
vt 0.0902255978 0.612021206
vt 0.100894281 0.662454982
vt 0.141629254 0.693491152
vt 0.0979846403 0.612021206
vt 0.0902255978 0.595533241
vt 0.139689494 0.662454982
vt 0.100894281 0.631418812
vt 0.0979846403 0.595533241
vt 0.0902255978 0.579045275
vt 0.100894281 0.612021206
vt 0.139689494 0.631418812
vt 0.141629254 0.662454982
vt 0.144538895 0.693491152
vt 0.0979846403 0.579045275
vt 0.0902255978 0.56158743
vt 0.100894281 0.595533241
vt 0.139689494 0.612021206
vt 0.141629254 0.631418812
vt 0.0979846403 0.56158743
vt 0.0902255978 0.543159704
vt 0.100894281 0.579045275
vt 0.139689494 0.595533241
vt 0.0979846403 0.543159704
vt 0.0902255978 0.523762097
vt 0.144538895 0.662454982
vt 0.141629254 0.612021206
vt 0.100894281 0.56158743
vt 0.0979846403 0.523762097
vt 0.0902255978 0.504364491
vt 0.100894281 0.543159704
vt 0.139689494 0.56158743
vt 0.139689494 0.579045275
vt 0.0979846403 0.504364491
vt 0.0902255978 0.483997005
vt 0.100894281 0.523762097
vt 0.141629254 0.595533241
vt 0.0979846403 0.483997005
vt 0.0902255978 0.461689757
vt 0.139689494 0.543159704
vt 0.141629254 0.579045275
vt 0.100894281 0.504364491
vt 0.0979846403 0.461689757
vt 0.0902255978 0.43744275
vt 0.139689494 0.523762097
vt 0.141629254 0.56158743
vt 0.100894281 0.483997005
vt 0.0979846403 0.43744275
vt 0.0902255978 0.404466819
vt 0.139689494 0.504364491
vt 0.141629254 0.543159704
vt 0.100894281 0.461689757
vt 0.0979846403 0.404466819
vt 0.0902255978 0.371490888
vt 0.139689494 0.483997005
vt 0.141629254 0.523762097
vt 0.100894281 0.43744275
vt 0.0979846403 0.371490888
vt 0.0902255978 0.337545077
vt 0.139689494 0.461689757
vt 0.141629254 0.504364491
vt 0.100894281 0.404466819
vt 0.0979846403 0.337545077
vt 0.0902255978 0.306508907
vt 0.139689494 0.43744275
vt 0.141629254 0.483997005
vt 0.100894281 0.371490888
vt 0.0979846403 0.306508907
vt 0.0902255978 0.268683575
vt 0.139689494 0.404466819
vt 0.141629254 0.461689757
vt 0.100894281 0.337545077
vt 0.0979846403 0.268683575
vt 0.0902255978 0.243466687
vt 0.139689494 0.371490888
vt 0.141629254 0.43744275
vt 0.100894281 0.306508907
vt 0.0979846403 0.243466687
vt 0.0902255978 0.22018956
vt 0.139689494 0.337545077
vt 0.141629254 0.404466819
vt 0.100894281 0.268683575
vt 0.0979846403 0.22018956
vt 0.0902255978 0.197882312
vt 0.139689494 0.306508907
vt 0.141629254 0.371490888
vt 0.100894281 0.243466687
vt 0.0979846403 0.197882312
vt 0.0902255978 0.176544946
vt 0.139689494 0.268683575
vt 0.141629254 0.337545077
vt 0.100894281 0.22018956
vt 0.0979846403 0.176544946
vt 0.0902255978 0.157147339
vt 0.139689494 0.243466687
vt 0.141629254 0.306508907
vt 0.100894281 0.197882312
vt 0.0979846403 0.157147339
vt 0.0902255978 0.138719613
vt 0.139689494 0.22018956
vt 0.141629254 0.268683575
vt 0.100894281 0.176544946
vt 0.0979846403 0.138719613
vt 0.0902255978 0.118352127
vt 0.139689494 0.197882312
vt 0.141629254 0.243466687
vt 0.100894281 0.157147339
vt 0.0979846403 0.118352127
vt 0.0902255978 0.0892557175
vt 0.100894281 0.138719613
vt 0.139689494 0.157147339
vt 0.0979846403 0.0892557175
vt 0.0902255978 0.0591894278
vt 0.100894281 0.118352127
vt 0.0979846403 0.0591894278
vt 0.0902255978 0.0291231381
vt 0.139689494 0.176544946
vt 0.139689494 0.138719613
vt 0.100894281 0.0892557175
vt 0.0979846403 0.0291231381
vt 0.0902255978 0.00390625
vt 0.0979846403 0.00390625
vt 0.100894281 0.0591894278
vt 0.100894281 0.0291231381
vt 0.100894281 0.00390625
vt 0.139689494 0.0591894278
vt 0.139689494 0.0291231381
vt 0.139689494 0.00390625
vt 0.139689494 0.118352127
vt 0.141629254 0.0291231381
vt 0.141629254 0.00390625
vt 0.139689494 0.0892557175
vt 0.141629254 0.0591894278
vt 0.144538895 0.0291231381
vt 0.144538895 0.00390625
vt 0.141629254 0.0892557175
vt 0.141629254 0.118352127
vt 0.141629254 0.138719613
vt 0.144538895 0.0591894278
vt 0.1590871 0.0291231381
vt 0.1590871 0.00390625
vt 0.144538895 0.0892557175
vt 0.144538895 0.118352127
vt 0.1590871 0.0591894278
vt 0.161996741 0.0291231381
vt 0.161996741 0.00390625
vt 0.1590871 0.0892557175
vt 0.161996741 0.0591894278
vt 0.163936502 0.0291231381
vt 0.163936502 0.00390625
vt 0.183334108 0.00390625
vt 0.183334108 0.0291231381
vt 0.163936502 0.0591894278
vt 0.183334108 0.0591894278
vt 0.183334108 0.0892557175
vt 0.161996741 0.0892557175
vt 0.163936502 0.0892557175
vt 0.163936502 0.118352127
vt 0.183334108 0.118352127
vt 0.161996741 0.118352127
vt 0.163936502 0.138719613
vt 0.183334108 0.138719613
vt 0.1590871 0.118352127
vt 0.163936502 0.157147339
vt 0.183334108 0.157147339
vt 0.183334108 0.176544946
vt 0.161996741 0.138719613
vt 0.1590871 0.138719613
vt 0.161996741 0.157147339
vt 0.163936502 0.176544946
vt 0.144538895 0.138719613
vt 0.163936502 0.197882312
vt 0.183334108 0.197882312
vt 0.1590871 0.157147339
vt 0.161996741 0.176544946
vt 0.144538895 0.157147339
vt 0.163936502 0.22018956
vt 0.183334108 0.22018956
vt 0.161996741 0.197882312
vt 0.1590871 0.176544946
vt 0.141629254 0.157147339
vt 0.163936502 0.243466687
vt 0.183334108 0.243466687
vt 0.161996741 0.22018956
vt 0.144538895 0.176544946
vt 0.141629254 0.176544946
vt 0.1590871 0.197882312
vt 0.163936502 0.268683575
vt 0.183334108 0.268683575
vt 0.144538895 0.197882312
vt 0.141629254 0.197882312
vt 0.161996741 0.243466687
vt 0.1590871 0.22018956
vt 0.163936502 0.306508907
vt 0.183334108 0.306508907
vt 0.144538895 0.22018956
vt 0.141629254 0.22018956
vt 0.1590871 0.243466687
vt 0.161996741 0.268683575
vt 0.144538895 0.243466687
vt 0.163936502 0.337545077
vt 0.183334108 0.337545077
vt 0.161996741 0.306508907
vt 0.1590871 0.268683575
vt 0.144538895 0.268683575
vt 0.163936502 0.371490888
vt 0.183334108 0.371490888
vt 0.161996741 0.337545077
vt 0.1590871 0.306508907
vt 0.144538895 0.306508907
vt 0.163936502 0.404466819
vt 0.183334108 0.404466819
vt 0.161996741 0.371490888
vt 0.1590871 0.337545077
vt 0.144538895 0.337545077
vt 0.163936502 0.43744275
vt 0.183334108 0.43744275
vt 0.161996741 0.404466819
vt 0.1590871 0.371490888
vt 0.144538895 0.371490888
vt 0.163936502 0.461689757
vt 0.183334108 0.461689757
vt 0.1590871 0.404466819
vt 0.144538895 0.404466819
vt 0.161996741 0.43744275
vt 0.163936502 0.483997005
vt 0.183334108 0.483997005
vt 0.1590871 0.43744275
vt 0.144538895 0.43744275
vt 0.161996741 0.461689757
vt 0.163936502 0.504364491
vt 0.183334108 0.504364491
vt 0.1590871 0.461689757
vt 0.144538895 0.461689757
vt 0.161996741 0.483997005
vt 0.163936502 0.523762097
vt 0.183334108 0.523762097
vt 0.1590871 0.483997005
vt 0.144538895 0.483997005
vt 0.161996741 0.504364491
vt 0.163936502 0.543159704
vt 0.183334108 0.543159704
vt 0.1590871 0.504364491
vt 0.144538895 0.504364491
vt 0.161996741 0.523762097
vt 0.163936502 0.56158743
vt 0.183334108 0.56158743
vt 0.183334108 0.579045275
vt 0.1590871 0.523762097
vt 0.144538895 0.523762097
vt 0.161996741 0.543159704
vt 0.144538895 0.543159704
vt 0.1590871 0.543159704
vt 0.161996741 0.56158743
vt 0.163936502 0.579045275
vt 0.144538895 0.56158743
vt 0.1590871 0.56158743
vt 0.163936502 0.595533241
vt 0.183334108 0.595533241
vt 0.161996741 0.579045275
vt 0.144538895 0.579045275
vt 0.1590871 0.579045275
vt 0.163936502 0.612021206
vt 0.183334108 0.612021206
vt 0.161996741 0.595533241
vt 0.144538895 0.595533241
vt 0.1590871 0.595533241
vt 0.163936502 0.631418812
vt 0.183334108 0.631418812
vt 0.161996741 0.612021206
vt 0.144538895 0.612021206
vt 0.1590871 0.612021206
vt 0.163936502 0.662454982
vt 0.183334108 0.662454982
vt 0.161996741 0.631418812
vt 0.144538895 0.631418812
vt 0.1590871 0.631418812
vt 0.163936502 0.693491152
vt 0.183334108 0.693491152
vt 0.161996741 0.662454982
vt 0.1590871 0.662454982
vt 0.163936502 0.728406843
vt 0.161996741 0.693491152
vt 0.1590871 0.693491152
vt 0.161996741 0.728406843
vt 0.1590871 0.728406843
vt 0.161996741 0.765262295
vt 0.985425126 0.09701476
vt 0.858370805 0.0116652925
vt 0.760412894 0.0184544547
vt 0.985425126 0.321057112
vt 0.668274264 0.168785903
vt 0.62365977 0.353063162
vt 0.671183905 0.555768148
vt 0.784659901 0.648876658
vt 0.985425126 0.615900727
vt 0.889406975 0.678942947
vt 0.205641355 0.0300930184
vt 0.205641355 0.00390625
vt 0.193032911 0.00390625
vt 0.193032911 0.0300930184
vt 0.205641355 0.0611291884
vt 0.193032911 0.0611291884
vt 0.193032911 0.0911954781
vt 0.205641355 0.0911954781
vt 0.205641355 0.121261768
vt 0.193032911 0.121261768
vt 0.205641355 0.144538895
vt 0.193032911 0.144538895
vt 0.205641355 0.165876262
vt 0.193032911 0.165876262
vt 0.193032911 0.187213629
vt 0.205641355 0.187213629
vt 0.205641355 0.210490757
vt 0.193032911 0.210490757
vt 0.205641355 0.233767884
vt 0.193032911 0.233767884
vt 0.205641355 0.256075131
vt 0.193032911 0.256075131
vt 0.205641355 0.281292019
vt 0.193032911 0.281292019
vt 0.205641355 0.317177591
vt 0.193032911 0.317177591
vt 0.205641355 0.346274
vt 0.193032911 0.346274
vt 0.205641355 0.378280051
vt 0.193032911 0.378280051
vt 0.205641355 0.410286101
vt 0.193032911 0.410286101
vt 0.205641355 0.443262032
vt 0.193032911 0.443262032
vt 0.205641355 0.472358441
vt 0.193032911 0.472358441
vt 0.205641355 0.495635568
vt 0.193032911 0.495635568
vt 0.205641355 0.523762097
vt 0.193032911 0.523762097
vt 0.205641355 0.543159704
vt 0.193032911 0.543159704
vt 0.205641355 0.558677789
vt 0.193032911 0.558677789
vt 0.205641355 0.577105515
vt 0.193032911 0.577105515
vt 0.193032911 0.595533241
vt 0.205641355 0.595533241
vt 0.205641355 0.613960967
vt 0.193032911 0.613960967
vt 0.205641355 0.631418812
vt 0.193032911 0.631418812
vt 0.205641355 0.652756179
vt 0.193032911 0.652756179
vt 0.205641355 0.683792349
vt 0.193032911 0.683792349
vt 0.205641355 0.714828519
vt 0.193032911 0.714828519
vt 0.205641355 0.750714091
vt 0.193032911 0.750714091
vt 0.205641355 0.787569542
vt 0.193032911 0.787569542
vt 0.205641355 0.823455114
vt 0.193032911 0.823455114
vt 0.205641355 0.853521404
vt 0.193032911 0.853521404
vt 0.205641355 0.877768411
vt 0.193032911 0.877768411
vt 0.205641355 0.899105778
vt 0.193032911 0.899105778
vt 0.205641355 0.920443145
vt 0.193032911 0.920443145
vt 0.205641355 0.942750392
vt 0.193032911 0.942750392
vt 0.205641355 0.968937161
vt 0.193032911 0.968937161
vt 0.0669484703 0.99609381
vt 0.00390625 0.968937161
vt 0.00390625 0.99609381
vt 0.0669484703 0.968937161
vt 0.0688882309 0.99609381
vt 0.00390625 0.945660033
vt 0.0688882309 0.968937161
vt 0.0717978719 0.99609381
vt 0.0669484703 0.945660033
vt 0.00390625 0.923352786
vt 0.0669484703 0.923352786
vt 0.00390625 0.902015419
vt 0.0688882309 0.945660033
vt 0.0717978719 0.968937161
vt 0.0669484703 0.902015419
vt 0.00390625 0.876798531
vt 0.081496675 0.968937161
vt 0.081496675 0.99609381
vt 0.081496675 0.945660033
vt 0.0717978719 0.945660033
vt 0.081496675 0.923352786
vt 0.0688882309 0.923352786
vt 0.0717978719 0.923352786
vt 0.081496675 0.902015419
vt 0.0669484703 0.876798531
vt 0.00390625 0.845762361
vt 0.0688882309 0.902015419
vt 0.0717978719 0.902015419
vt 0.081496675 0.876798531
vt 0.0669484703 0.845762361
vt 0.00390625 0.808906909
vt 0.0688882309 0.876798531
vt 0.0717978719 0.876798531
vt 0.081496675 0.845762361
vt 0.0669484703 0.808906909
vt 0.00390625 0.770111697
vt 0.0688882309 0.845762361
vt 0.0717978719 0.845762361
vt 0.081496675 0.808906909
vt 0.0669484703 0.770111697
vt 0.00390625 0.734226125
vt 0.0688882309 0.808906909
vt 0.0717978719 0.808906909
vt 0.081496675 0.770111697
vt 0.0669484703 0.734226125
vt 0.00390625 0.702220075
vt 0.0688882309 0.770111697
vt 0.0717978719 0.770111697
vt 0.081496675 0.734226125
vt 0.0669484703 0.702220075
vt 0.00390625 0.670214025
vt 0.0688882309 0.734226125
vt 0.0717978719 0.734226125
vt 0.081496675 0.702220075
vt 0.0669484703 0.670214025
vt 0.00390625 0.647906777
vt 0.0688882309 0.702220075
vt 0.0717978719 0.702220075
vt 0.081496675 0.670214025
vt 0.0669484703 0.647906777
vt 0.00390625 0.629479052
vt 0.0688882309 0.670214025
vt 0.0717978719 0.670214025
vt 0.081496675 0.647906777
vt 0.0669484703 0.629479052
vt 0.00390625 0.612021206
vt 0.0688882309 0.647906777
vt 0.0717978719 0.647906777
vt 0.081496675 0.629479052
vt 0.0688882309 0.629479052
vt 0.0717978719 0.629479052
vt 0.081496675 0.612021206
vt 0.0669484703 0.612021206
vt 0.0688882309 0.612021206
vt 0.0717978719 0.612021206
vt 0.081496675 0.59359348
vt 0.0669484703 0.59359348
vt 0.00390625 0.59359348
vt 0.00390625 0.574195874
vt 0.0688882309 0.59359348
vt 0.0717978719 0.59359348
vt 0.081496675 0.574195874
vt 0.0669484703 0.574195874
vt 0.00390625 0.558677789
vt 0.0688882309 0.574195874
vt 0.0717978719 0.574195874
vt 0.081496675 0.558677789
vt 0.0669484703 0.558677789
vt 0.00390625 0.538310302
vt 0.0688882309 0.558677789
vt 0.0717978719 0.558677789
vt 0.081496675 0.538310302
vt 0.0669484703 0.538310302
vt 0.00390625 0.509213893
vt 0.0688882309 0.538310302
vt 0.0717978719 0.538310302
vt 0.081496675 0.509213893
vt 0.0669484703 0.509213893
vt 0.00390625 0.485936765
vt 0.0688882309 0.509213893
vt 0.0717978719 0.509213893
vt 0.081496675 0.485936765
vt 0.0669484703 0.485936765
vt 0.00390625 0.456840356
vt 0.0688882309 0.485936765
vt 0.0717978719 0.485936765
vt 0.081496675 0.456840356
vt 0.0669484703 0.456840356
vt 0.00390625 0.420954784
vt 0.0688882309 0.456840356
vt 0.0717978719 0.456840356
vt 0.081496675 0.420954784
vt 0.0669484703 0.420954784
vt 0.00390625 0.388948734
vt 0.0688882309 0.420954784
vt 0.0717978719 0.420954784
vt 0.081496675 0.388948734
vt 0.0669484703 0.388948734
vt 0.00390625 0.355972803
vt 0.0688882309 0.388948734
vt 0.0717978719 0.388948734
vt 0.081496675 0.355972803
vt 0.0669484703 0.355972803
vt 0.00390625 0.325906514
vt 0.0688882309 0.355972803
vt 0.0717978719 0.355972803
vt 0.081496675 0.325906514
vt 0.0669484703 0.325906514
vt 0.00390625 0.288081182
vt 0.0688882309 0.325906514
vt 0.0717978719 0.325906514
vt 0.081496675 0.288081182
vt 0.0669484703 0.288081182
vt 0.00390625 0.261894413
vt 0.0688882309 0.288081182
vt 0.0717978719 0.288081182
vt 0.081496675 0.261894413
vt 0.0669484703 0.261894413
vt 0.00390625 0.238617286
vt 0.0688882309 0.261894413
vt 0.0717978719 0.261894413
vt 0.081496675 0.238617286
vt 0.0669484703 0.238617286
vt 0.00390625 0.214370278
vt 0.0688882309 0.238617286
vt 0.0717978719 0.238617286
vt 0.081496675 0.214370278
vt 0.0669484703 0.214370278
vt 0.00390625 0.19109315
vt 0.0688882309 0.214370278
vt 0.0717978719 0.214370278
vt 0.081496675 0.19109315
vt 0.0669484703 0.19109315
vt 0.0688882309 0.19109315
vt 0.0717978719 0.19109315
vt 0.081496675 0.169755783
vt 0.0669484703 0.169755783
vt 0.00390625 0.169755783
vt 0.00390625 0.148418417
vt 0.0688882309 0.169755783
vt 0.0717978719 0.169755783
vt 0.081496675 0.148418417
vt 0.0669484703 0.148418417
vt 0.00390625 0.124171409
vt 0.0688882309 0.148418417
vt 0.0717978719 0.148418417
vt 0.081496675 0.124171409
vt 0.0669484703 0.124171409
vt 0.00390625 0.0941051191
vt 0.0688882309 0.124171409
vt 0.0717978719 0.124171409
vt 0.081496675 0.0941051191
vt 0.0669484703 0.0941051191
vt 0.0688882309 0.0941051191
vt 0.0717978719 0.0941051191
vt 0.081496675 0.0620990687
vt 0.0669484703 0.0620990687
vt 0.00390625 0.0620990687
vt 0.00390625 0.0310628987
vt 0.0688882309 0.0620990687
vt 0.0717978719 0.0620990687
vt 0.081496675 0.0310628987
vt 0.0669484703 0.0310628987
vt 0.00390625 0.00390625
vt 0.0669484703 0.00390625
vt 0.0688882309 0.0310628987
vt 0.0688882309 0.00390625
vt 0.0717978719 0.0310628987
vt 0.081496675 0.00390625
vt 0.0717978719 0.00390625
g ground_03_1ground_03_1_mobile_0
f 3/3/3 2/2/2 1/1/1
f 4/4/4 3/3/3 1/1/1
f 3/3/3 4/4/4 5/5/5
f 6/6/6 4/4/4 1/1/1
f 7/7/7 6/6/6 1/1/1
f 4/4/4 8/8/8 5/5/5
f 9/9/9 5/5/5 8/8/8
f 10/10/10 6/6/6 7/7/7
f 11/11/11 10/10/10 7/7/7
f 4/4/4 6/6/6 12/12/12
f 8/8/8 4/4/4 12/12/12
f 13/13/13 9/9/9 8/8/8
f 14/14/14 9/9/9 13/13/13
f 10/10/10 11/11/11 15/15/15
f 11/11/11 16/16/16 15/15/15
f 6/6/6 10/10/10 17/17/17
f 12/12/12 6/6/6 17/17/17
f 12/12/12 18/18/18 8/8/8
f 18/18/18 13/13/13 8/8/8
f 19/19/19 14/14/14 13/13/13
f 20/20/20 14/14/14 19/19/19
f 10/10/10 15/15/15 21/21/21
f 17/17/17 10/10/10 21/21/21
f 22/22/22 15/15/15 16/16/16
f 23/23/23 22/22/22 16/16/16
f 17/17/17 24/24/24 12/12/12
f 24/24/24 18/18/18 12/12/12
f 18/18/18 25/25/25 13/13/13
f 25/25/25 19/19/19 13/13/13
f 26/26/26 20/20/20 19/19/19
f 20/20/20 26/26/26 27/27/27
f 17/17/17 21/21/21 28/28/28
f 24/24/24 17/17/17 28/28/28
f 21/21/21 15/15/15 29/29/29
f 15/15/15 22/22/22 29/29/29
f 30/30/30 22/22/22 23/23/23
f 31/31/31 30/30/30 23/23/23
f 25/25/25 32/32/32 19/19/19
f 32/32/32 26/26/26 19/19/19
f 26/26/26 33/33/33 27/27/27
f 34/34/34 27/27/27 33/33/33
f 29/29/29 35/35/35 21/21/21
f 35/35/35 28/28/28 21/21/21
f 29/29/29 22/22/22 36/36/36
f 22/22/22 30/30/30 36/36/36
f 37/37/37 30/30/30 31/31/31
f 38/38/38 37/37/37 31/31/31
f 32/32/32 39/39/39 26/26/26
f 39/39/39 33/33/33 26/26/26
f 40/40/40 34/34/34 33/33/33
f 41/41/41 34/34/34 40/40/40
f 42/42/42 35/35/35 29/29/29
f 36/36/36 42/42/42 29/29/29
f 36/36/36 30/30/30 43/43/43
f 30/30/30 37/37/37 43/43/43
f 44/44/44 37/37/37 38/38/38
f 45/45/45 44/44/44 38/38/38
f 46/46/46 44/44/44 45/45/45
f 47/47/47 46/46/46 45/45/45
f 44/44/44 46/46/46 48/48/48
f 37/37/37 44/44/44 49/49/49
f 49/49/49 44/44/44 48/48/48
f 43/43/43 37/37/37 49/49/49
f 48/48/48 50/50/50 49/49/49
f 50/50/50 51/51/51 49/49/49
f 49/49/49 51/51/51 43/43/43
f 50/50/50 52/52/52 51/51/51
f 43/43/43 53/53/53 36/36/36
f 51/51/51 53/53/53 43/43/43
f 53/53/53 42/42/42 36/36/36
f 52/52/52 54/54/54 51/51/51
f 51/51/51 54/54/54 53/53/53
f 52/52/52 55/55/55 54/54/54
f 53/53/53 56/56/56 42/42/42
f 54/54/54 56/56/56 53/53/53
f 55/55/55 57/57/57 54/54/54
f 54/54/54 57/57/57 56/56/56
f 55/55/55 58/58/58 57/57/57
f 56/56/56 59/59/59 42/42/42
f 42/42/42 59/59/59 35/35/35
f 57/57/57 60/60/60 56/56/56
f 56/56/56 60/60/60 59/59/59
f 58/58/58 61/61/61 57/57/57
f 57/57/57 61/61/61 60/60/60
f 58/58/58 62/62/62 61/61/61
f 59/59/59 63/63/63 35/35/35
f 35/35/35 63/63/63 28/28/28
f 60/60/60 64/64/64 59/59/59
f 59/59/59 64/64/64 63/63/63
f 61/61/61 65/65/65 60/60/60
f 64/64/64 60/60/60 65/65/65
f 62/62/62 66/66/66 61/61/61
f 61/61/61 66/66/66 65/65/65
f 62/62/62 67/67/67 66/66/66
f 63/63/63 68/68/68 28/28/28
f 24/24/24 28/28/28 68/68/68
f 64/64/64 69/69/69 63/63/63
f 63/63/63 69/69/69 68/68/68
f 70/70/70 64/64/64 65/65/65
f 64/64/64 70/70/70 69/69/69
f 66/66/66 71/71/71 65/65/65
f 65/65/65 71/71/71 70/70/70
f 67/67/67 72/72/72 66/66/66
f 66/66/66 72/72/72 71/71/71
f 67/67/67 73/73/73 72/72/72
f 74/74/74 24/24/24 68/68/68
f 24/24/24 74/74/74 18/18/18
f 74/74/74 25/25/25 18/18/18
f 69/69/69 75/75/75 68/68/68
f 74/74/74 68/68/68 75/75/75
f 74/74/74 76/76/76 25/25/25
f 76/76/76 74/74/74 75/75/75
f 76/76/76 32/32/32 25/25/25
f 70/70/70 77/77/77 69/69/69
f 69/69/69 77/77/77 75/75/75
f 71/71/71 78/78/78 70/70/70
f 70/70/70 78/78/78 77/77/77
f 72/72/72 79/79/79 71/71/71
f 71/71/71 79/79/79 78/78/78
f 76/76/76 80/80/80 32/32/32
f 80/80/80 39/39/39 32/32/32
f 76/76/76 75/75/75 81/81/81
f 77/77/77 81/81/81 75/75/75
f 80/80/80 76/76/76 81/81/81
f 78/78/78 82/82/82 77/77/77
f 77/77/77 82/82/82 81/81/81
f 80/80/80 81/81/81 83/83/83
f 82/82/82 83/83/83 81/81/81
f 80/80/80 84/84/84 39/39/39
f 84/84/84 80/80/80 83/83/83
f 78/78/78 85/85/85 82/82/82
f 79/79/79 85/85/85 78/78/78
f 72/72/72 86/86/86 79/79/79
f 73/73/73 86/86/86 72/72/72
f 73/73/73 87/87/87 86/86/86
f 82/82/82 88/88/88 83/83/83
f 85/85/85 88/88/88 82/82/82
f 79/79/79 89/89/89 85/85/85
f 86/86/86 89/89/89 79/79/79
f 87/87/87 90/90/90 86/86/86
f 86/86/86 90/90/90 89/89/89
f 90/90/90 87/87/87 91/91/91
f 89/89/89 92/92/92 85/85/85
f 85/85/85 92/92/92 88/88/88
f 88/88/88 93/93/93 83/83/83
f 84/84/84 83/83/83 93/93/93
f 94/94/94 90/90/90 91/91/91
f 94/94/94 91/91/91 95/95/95
f 90/90/90 96/96/96 89/89/89
f 89/89/89 96/96/96 92/92/92
f 96/96/96 90/90/90 94/94/94
f 92/92/92 97/97/97 88/88/88
f 88/88/88 97/97/97 93/93/93
f 98/98/98 94/94/94 95/95/95
f 98/98/98 95/95/95 99/99/99
f 96/96/96 100/100/100 92/92/92
f 92/92/92 100/100/100 97/97/97
f 101/101/101 96/96/96 94/94/94
f 101/101/101 94/94/94 98/98/98
f 100/100/100 96/96/96 101/101/101
f 102/102/102 98/98/98 99/99/99
f 99/99/99 103/103/103 102/102/102
f 104/104/104 101/101/101 98/98/98
f 104/104/104 98/98/98 102/102/102
f 105/105/105 100/100/100 101/101/101
f 105/105/105 101/101/101 104/104/104
f 100/100/100 106/106/106 97/97/97
f 106/106/106 100/100/100 105/105/105
f 97/97/97 107/107/107 93/93/93
f 97/97/97 106/106/106 107/107/107
f 103/103/103 108/108/108 102/102/102
f 108/108/108 103/103/103 109/109/109
f 110/110/110 104/104/104 102/102/102
f 102/102/102 108/108/108 110/110/110
f 111/111/111 105/105/105 104/104/104
f 111/111/111 104/104/104 110/110/110
f 112/112/112 106/106/106 105/105/105
f 112/112/112 105/105/105 111/111/111
f 113/113/113 108/108/108 109/109/109
f 113/113/113 109/109/109 114/114/114
f 108/108/108 115/115/115 110/110/110
f 115/115/115 108/108/108 113/113/113
f 116/116/116 111/111/111 110/110/110
f 116/116/116 110/110/110 115/115/115
f 117/117/117 113/113/113 114/114/114
f 117/117/117 114/114/114 118/118/118
f 119/119/119 106/106/106 112/112/112
f 106/106/106 119/119/119 107/107/107
f 120/120/120 112/112/112 111/111/111
f 120/120/120 111/111/111 116/116/116
f 121/121/121 115/115/115 113/113/113
f 121/121/121 113/113/113 117/117/117
f 122/122/122 117/117/117 118/118/118
f 122/122/122 118/118/118 123/123/123
f 124/124/124 121/121/121 117/117/117
f 124/124/124 117/117/117 122/122/122
f 121/121/121 125/125/125 115/115/115
f 125/125/125 121/121/121 124/124/124
f 126/126/126 116/116/116 115/115/115
f 125/125/125 126/126/126 115/115/115
f 127/127/127 122/122/122 123/123/123
f 123/123/123 128/128/128 127/127/127
f 129/129/129 124/124/124 122/122/122
f 129/129/129 122/122/122 127/127/127
f 116/116/116 126/126/126 130/130/130
f 130/130/130 120/120/120 116/116/116
f 128/128/128 131/131/131 127/127/127
f 128/128/128 132/132/132 131/131/131
f 133/133/133 125/125/125 124/124/124
f 133/133/133 124/124/124 129/129/129
f 134/134/134 126/126/126 125/125/125
f 126/126/126 134/134/134 130/130/130
f 135/135/135 129/129/129 127/127/127
f 127/127/127 131/131/131 135/135/135
f 132/132/132 136/136/136 131/131/131
f 132/132/132 137/137/137 136/136/136
f 138/138/138 133/133/133 129/129/129
f 138/138/138 129/129/129 135/135/135
f 139/139/139 125/125/125 133/133/133
f 139/139/139 134/134/134 125/125/125
f 131/131/131 140/140/140 135/135/135
f 131/131/131 136/136/136 140/140/140
f 137/137/137 141/141/141 136/136/136
f 137/137/137 142/142/142 141/141/141
f 143/143/143 138/138/138 135/135/135
f 135/135/135 140/140/140 143/143/143
f 144/144/144 133/133/133 138/138/138
f 144/144/144 139/139/139 133/133/133
f 136/136/136 145/145/145 140/140/140
f 136/136/136 141/141/141 145/145/145
f 142/142/142 146/146/146 141/141/141
f 142/142/142 147/147/147 146/146/146
f 140/140/140 148/148/148 143/143/143
f 140/140/140 145/145/145 148/148/148
f 149/149/149 138/138/138 143/143/143
f 149/149/149 144/144/144 138/138/138
f 141/141/141 150/150/150 145/145/145
f 141/141/141 146/146/146 150/150/150
f 147/147/147 151/151/151 146/146/146
f 147/147/147 152/152/152 151/151/151
f 145/145/145 153/153/153 148/148/148
f 145/145/145 150/150/150 153/153/153
f 143/143/143 148/148/148 154/154/154
f 154/154/154 149/149/149 143/143/143
f 146/146/146 155/155/155 150/150/150
f 146/146/146 151/151/151 155/155/155
f 152/152/152 156/156/156 151/151/151
f 152/152/152 157/157/157 156/156/156
f 150/150/150 158/158/158 153/153/153
f 158/158/158 150/150/150 155/155/155
f 148/148/148 153/153/153 159/159/159
f 148/148/148 159/159/159 154/154/154
f 151/151/151 160/160/160 155/155/155
f 151/151/151 156/156/156 160/160/160
f 157/157/157 161/161/161 156/156/156
f 157/157/157 162/162/162 161/161/161
f 163/163/163 158/158/158 155/155/155
f 155/155/155 160/160/160 163/163/163
f 153/153/153 158/158/158 164/164/164
f 153/153/153 164/164/164 159/159/159
f 156/156/156 165/165/165 160/160/160
f 156/156/156 161/161/161 165/165/165
f 162/162/162 166/166/166 161/161/161
f 162/162/162 167/167/167 166/166/166
f 160/160/160 168/168/168 163/163/163
f 160/160/160 165/165/165 168/168/168
f 158/158/158 163/163/163 169/169/169
f 158/158/158 169/169/169 164/164/164
f 161/161/161 170/170/170 165/165/165
f 161/161/161 166/166/166 170/170/170
f 167/167/167 171/171/171 166/166/166
f 167/167/167 172/172/172 171/171/171
f 165/165/165 173/173/173 168/168/168
f 165/165/165 170/170/170 173/173/173
f 163/163/163 168/168/168 174/174/174
f 163/163/163 174/174/174 169/169/169
f 166/166/166 175/175/175 170/170/170
f 166/166/166 171/171/171 175/175/175
f 172/172/172 176/176/176 171/171/171
f 172/172/172 177/177/177 176/176/176
f 170/170/170 178/178/178 173/173/173
f 170/170/170 175/175/175 178/178/178
f 168/168/168 173/173/173 179/179/179
f 168/168/168 179/179/179 174/174/174
f 171/171/171 180/180/180 175/175/175
f 171/171/171 176/176/176 180/180/180
f 177/177/177 181/181/181 176/176/176
f 177/177/177 182/182/182 181/181/181
f 175/175/175 183/183/183 178/178/178
f 183/183/183 175/175/175 180/180/180
f 173/173/173 178/178/178 184/184/184
f 173/173/173 184/184/184 179/179/179
f 176/176/176 185/185/185 180/180/180
f 176/176/176 181/181/181 185/185/185
f 182/182/182 186/186/186 181/181/181
f 182/182/182 187/187/187 186/186/186
f 188/188/188 183/183/183 180/180/180
f 180/180/180 185/185/185 188/188/188
f 178/178/178 183/183/183 189/189/189
f 178/178/178 189/189/189 184/184/184
f 181/181/181 190/190/190 185/185/185
f 181/181/181 186/186/186 190/190/190
f 187/187/187 191/191/191 186/186/186
f 191/191/191 187/187/187 192/192/192
f 185/185/185 193/193/193 188/188/188
f 185/185/185 190/190/190 193/193/193
f 183/183/183 188/188/188 194/194/194
f 183/183/183 194/194/194 189/189/189
f 186/186/186 195/195/195 190/190/190
f 186/186/186 191/191/191 195/195/195
f 196/196/196 191/191/191 192/192/192
f 196/196/196 192/192/192 197/197/197
f 190/190/190 198/198/198 193/193/193
f 190/190/190 195/195/195 198/198/198
f 188/188/188 193/193/193 199/199/199
f 188/188/188 199/199/199 194/194/194
f 191/191/191 200/200/200 195/195/195
f 200/200/200 191/191/191 196/196/196
f 201/201/201 196/196/196 197/197/197
f 197/197/197 202/202/202 201/201/201
f 203/203/203 200/200/200 196/196/196
f 203/203/203 196/196/196 201/201/201
f 200/200/200 204/204/204 195/195/195
f 204/204/204 200/200/200 203/203/203
f 202/202/202 205/205/205 201/201/201
f 202/202/202 206/206/206 205/205/205
f 207/207/207 203/203/203 201/201/201
f 201/201/201 205/205/205 207/207/207
f 206/206/206 208/208/208 205/205/205
f 206/206/206 209/209/209 208/208/208
f 204/204/204 210/210/210 195/195/195
f 195/195/195 210/210/210 198/198/198
f 211/211/211 204/204/204 203/203/203
f 203/203/203 207/207/207 211/211/211
f 205/205/205 212/212/212 207/207/207
f 205/205/205 208/208/208 212/212/212
f 209/209/209 213/213/213 208/208/208
f 209/209/209 214/214/214 213/213/213
f 214/214/214 215/215/215 213/213/213
f 208/208/208 213/213/213 216/216/216
f 208/208/208 216/216/216 212/212/212
f 213/213/213 215/215/215 217/217/217
f 213/213/213 217/217/217 216/216/216
f 215/215/215 218/218/218 217/217/217
f 216/216/216 217/217/217 219/219/219
f 216/216/216 219/219/219 212/212/212
f 217/217/217 218/218/218 220/220/220
f 217/217/217 220/220/220 219/219/219
f 218/218/218 221/221/221 220/220/220
f 207/207/207 212/212/212 222/222/222
f 207/207/207 222/222/222 211/211/211
f 220/220/220 221/221/221 223/223/223
f 221/221/221 224/224/224 223/223/223
f 219/219/219 225/225/225 212/212/212
f 212/212/212 225/225/225 222/222/222
f 219/219/219 220/220/220 226/226/226
f 220/220/220 223/223/223 226/226/226
f 223/223/223 224/224/224 227/227/227
f 224/224/224 228/228/228 227/227/227
f 225/225/225 219/219/219 229/229/229
f 219/219/219 226/226/226 229/229/229
f 222/222/222 225/225/225 230/230/230
f 225/225/225 229/229/229 230/230/230
f 231/231/231 211/211/211 222/222/222
f 230/230/230 231/231/231 222/222/222
f 226/226/226 223/223/223 232/232/232
f 223/223/223 227/227/227 232/232/232
f 233/233/233 227/227/227 228/228/228
f 234/234/234 233/233/233 228/228/228
f 229/229/229 226/226/226 235/235/235
f 226/226/226 232/232/232 235/235/235
f 230/230/230 229/229/229 236/236/236
f 229/229/229 235/235/235 236/236/236
f 237/237/237 232/232/232 227/227/227
f 233/233/233 237/237/237 227/227/227
f 233/233/233 234/234/234 238/238/238
f 234/234/234 239/239/239 238/238/238
f 240/240/240 235/235/235 232/232/232
f 237/237/237 240/240/240 232/232/232
f 237/237/237 233/233/233 241/241/241
f 233/233/233 238/238/238 241/241/241
f 238/238/238 239/239/239 242/242/242
f 239/239/239 243/243/243 242/242/242
f 243/243/243 244/244/244 242/242/242
f 244/244/244 245/245/245 242/242/242
f 238/238/238 242/242/242 246/246/246
f 242/242/242 245/245/245 246/246/246
f 241/241/241 238/238/238 246/246/246
f 245/245/245 247/247/247 246/246/246
f 246/246/246 247/247/247 248/248/248
f 237/237/237 241/241/241 249/249/249
f 240/240/240 237/237/237 249/249/249
f 241/241/241 246/246/246 250/250/250
f 250/250/250 246/246/246 248/248/248
f 249/249/249 241/241/241 250/250/250
f 250/250/250 248/248/248 251/251/251
f 249/249/249 250/250/250 251/251/251
f 248/248/248 252/252/252 251/251/251
f 240/240/240 249/249/249 253/253/253
f 253/253/253 249/249/249 251/251/251
f 251/251/251 252/252/252 254/254/254
f 251/251/251 254/254/254 253/253/253
f 252/252/252 255/255/255 254/254/254
f 256/256/256 240/240/240 253/253/253
f 240/240/240 256/256/256 235/235/235
f 256/256/256 236/236/236 235/235/235
f 257/257/257 254/254/254 255/255/255
f 258/258/258 257/257/257 255/255/255
f 257/257/257 258/258/258 259/259/259
f 254/254/254 260/260/260 253/253/253
f 253/253/253 260/260/260 256/256/256
f 254/254/254 257/257/257 260/260/260
f 256/256/256 261/261/261 236/236/236
f 260/260/260 261/261/261 256/256/256
f 257/257/257 262/262/262 260/260/260
f 260/260/260 262/262/262 261/261/261
f 263/263/263 257/257/257 259/259/259
f 262/262/262 257/257/257 263/263/263
f 261/261/261 264/264/264 236/236/236
f 236/236/236 264/264/264 230/230/230
f 264/264/264 231/231/231 230/230/230
f 263/263/263 259/259/259 265/265/265
f 259/259/259 266/266/266 265/265/265
f 262/262/262 267/267/267 261/261/261
f 261/261/261 267/267/267 264/264/264
f 268/268/268 262/262/262 263/263/263
f 268/268/268 263/263/263 265/265/265
f 267/267/267 262/262/262 268/268/268
f 264/264/264 269/269/269 231/231/231
f 267/267/267 269/269/269 264/264/264
f 265/265/265 266/266/266 270/270/270
f 266/266/266 271/271/271 270/270/270
f 272/272/272 268/268/268 265/265/265
f 272/272/272 265/265/265 270/270/270
f 273/273/273 267/267/267 268/268/268
f 267/267/267 273/273/273 269/269/269
f 273/273/273 268/268/268 272/272/272
f 269/269/269 274/274/274 231/231/231
f 231/231/231 274/274/274 211/211/211
f 274/274/274 204/204/204 211/211/211
f 270/270/270 271/271/271 275/275/275
f 271/271/271 276/276/276 275/275/275
f 277/277/277 272/272/272 270/270/270
f 277/277/277 270/270/270 275/275/275
f 273/273/273 278/278/278 269/269/269
f 274/274/274 269/269/269 278/278/278
f 204/204/204 274/274/274 279/279/279
f 279/279/279 274/274/274 278/278/278
f 210/210/210 204/204/204 279/279/279
f 280/280/280 273/273/273 272/272/272
f 273/273/273 280/280/280 278/278/278
f 280/280/280 272/272/272 277/277/277
f 281/281/281 275/275/275 276/276/276
f 282/282/282 281/281/281 276/276/276
f 279/279/279 278/278/278 283/283/283
f 280/280/280 283/283/283 278/278/278
f 210/210/210 279/279/279 284/284/284
f 284/284/284 279/279/279 283/283/283
f 198/198/198 210/210/210 284/284/284
f 285/285/285 277/277/277 275/275/275
f 285/285/285 275/275/275 281/281/281
f 286/286/286 280/280/280 277/277/277
f 280/280/280 286/286/286 283/283/283
f 286/286/286 277/277/277 285/285/285
f 281/281/281 282/282/282 287/287/287
f 282/282/282 288/288/288 287/287/287
f 284/284/284 283/283/283 289/289/289
f 286/286/286 289/289/289 283/283/283
f 198/198/198 284/284/284 290/290/290
f 290/290/290 284/284/284 289/289/289
f 193/193/193 198/198/198 290/290/290
f 193/193/193 290/290/290 199/199/199
f 291/291/291 286/286/286 285/285/285
f 286/286/286 291/291/291 289/289/289
f 292/292/292 285/285/285 281/281/281
f 292/292/292 281/281/281 287/287/287
f 291/291/291 285/285/285 292/292/292
f 290/290/290 289/289/289 293/293/293
f 199/199/199 290/290/290 293/293/293
f 291/291/291 293/293/293 289/289/289
f 287/287/287 288/288/288 294/294/294
f 288/288/288 295/295/295 294/294/294
f 296/296/296 292/292/292 287/287/287
f 296/296/296 287/287/287 294/294/294
f 297/297/297 291/291/291 292/292/292
f 291/291/291 297/297/297 293/293/293
f 297/297/297 292/292/292 296/296/296
f 199/199/199 293/293/293 298/298/298
f 297/297/297 298/298/298 293/293/293
f 194/194/194 199/199/199 298/298/298
f 294/294/294 295/295/295 299/299/299
f 295/295/295 300/300/300 299/299/299
f 301/301/301 296/296/296 294/294/294
f 301/301/301 294/294/294 299/299/299
f 302/302/302 297/297/297 296/296/296
f 297/297/297 302/302/302 298/298/298
f 302/302/302 296/296/296 301/301/301
f 194/194/194 298/298/298 303/303/303
f 302/302/302 303/303/303 298/298/298
f 189/189/189 194/194/194 303/303/303
f 299/299/299 300/300/300 304/304/304
f 300/300/300 305/305/305 304/304/304
f 306/306/306 301/301/301 299/299/299
f 306/306/306 299/299/299 304/304/304
f 307/307/307 302/302/302 301/301/301
f 302/302/302 307/307/307 303/303/303
f 307/307/307 301/301/301 306/306/306
f 189/189/189 303/303/303 308/308/308
f 307/307/307 308/308/308 303/303/303
f 184/184/184 189/189/189 308/308/308
f 309/309/309 304/304/304 305/305/305
f 310/310/310 309/309/309 305/305/305
f 311/311/311 306/306/306 304/304/304
f 311/311/311 304/304/304 309/309/309
f 312/312/312 307/307/307 306/306/306
f 307/307/307 312/312/312 308/308/308
f 312/312/312 306/306/306 311/311/311
f 184/184/184 308/308/308 313/313/313
f 312/312/312 313/313/313 308/308/308
f 179/179/179 184/184/184 313/313/313
f 309/309/309 310/310/310 314/314/314
f 310/310/310 315/315/315 314/314/314
f 316/316/316 312/312/312 311/311/311
f 312/312/312 316/316/316 313/313/313
f 179/179/179 313/313/313 317/317/317
f 316/316/316 317/317/317 313/313/313
f 174/174/174 179/179/179 317/317/317
f 318/318/318 311/311/311 309/309/309
f 316/316/316 311/311/311 318/318/318
f 318/318/318 309/309/309 314/314/314
f 314/314/314 315/315/315 319/319/319
f 315/315/315 320/320/320 319/319/319
f 316/316/316 321/321/321 317/317/317
f 321/321/321 316/316/316 318/318/318
f 174/174/174 317/317/317 322/322/322
f 321/321/321 322/322/322 317/317/317
f 169/169/169 174/174/174 322/322/322
f 323/323/323 318/318/318 314/314/314
f 321/321/321 318/318/318 323/323/323
f 323/323/323 314/314/314 319/319/319
f 319/319/319 320/320/320 324/324/324
f 320/320/320 325/325/325 324/324/324
f 321/321/321 326/326/326 322/322/322
f 326/326/326 321/321/321 323/323/323
f 169/169/169 322/322/322 327/327/327
f 326/326/326 327/327/327 322/322/322
f 164/164/164 169/169/169 327/327/327
f 328/328/328 323/323/323 319/319/319
f 326/326/326 323/323/323 328/328/328
f 328/328/328 319/319/319 324/324/324
f 329/329/329 324/324/324 325/325/325
f 330/330/330 329/329/329 325/325/325
f 326/326/326 331/331/331 327/327/327
f 331/331/331 326/326/326 328/328/328
f 164/164/164 327/327/327 332/332/332
f 331/331/331 332/332/332 327/327/327
f 159/159/159 164/164/164 332/332/332
f 333/333/333 328/328/328 324/324/324
f 331/331/331 328/328/328 333/333/333
f 324/324/324 329/329/329 333/333/333
f 334/334/334 329/329/329 330/330/330
f 335/335/335 334/334/334 330/330/330
f 331/331/331 336/336/336 332/332/332
f 336/336/336 331/331/331 333/333/333
f 159/159/159 332/332/332 337/337/337
f 336/336/336 337/337/337 332/332/332
f 154/154/154 159/159/159 337/337/337
f 329/329/329 338/338/338 333/333/333
f 333/333/333 338/338/338 336/336/336
f 329/329/329 334/334/334 338/338/338
f 339/339/339 334/334/334 335/335/335
f 340/340/340 339/339/339 335/335/335
f 339/339/339 340/340/340 341/341/341
f 336/336/336 342/342/342 337/337/337
f 338/338/338 342/342/342 336/336/336
f 337/337/337 343/343/343 154/154/154
f 342/342/342 343/343/343 337/337/337
f 343/343/343 149/149/149 154/154/154
f 334/334/334 344/344/344 338/338/338
f 338/338/338 344/344/344 342/342/342
f 334/334/334 339/339/339 344/344/344
f 343/343/343 345/345/345 149/149/149
f 345/345/345 144/144/144 149/149/149
f 342/342/342 346/346/346 343/343/343
f 344/344/344 346/346/346 342/342/342
f 346/346/346 345/345/345 343/343/343
f 339/339/339 347/347/347 344/344/344
f 344/344/344 347/347/347 346/346/346
f 348/348/348 339/339/339 341/341/341
f 339/339/339 348/348/348 347/347/347
f 345/345/345 349/349/349 144/144/144
f 349/349/349 139/139/139 144/144/144
f 346/346/346 350/350/350 345/345/345
f 347/347/347 350/350/350 346/346/346
f 350/350/350 349/349/349 345/345/345
f 351/351/351 348/348/348 341/341/341
f 352/352/352 351/351/351 341/341/341
f 348/348/348 353/353/353 347/347/347
f 347/347/347 353/353/353 350/350/350
f 353/353/353 348/348/348 351/351/351
f 349/349/349 354/354/354 139/139/139
f 354/354/354 134/134/134 139/139/139
f 350/350/350 355/355/355 349/349/349
f 353/353/353 355/355/355 350/350/350
f 355/355/355 354/354/354 349/349/349
f 356/356/356 351/351/351 352/352/352
f 357/357/357 356/356/356 352/352/352
f 358/358/358 353/353/353 351/351/351
f 355/355/355 353/353/353 358/358/358
f 351/351/351 356/356/356 358/358/358
f 134/134/134 354/354/354 359/359/359
f 130/130/130 134/134/134 359/359/359
f 355/355/355 360/360/360 354/354/354
f 360/360/360 355/355/355 358/358/358
f 360/360/360 359/359/359 354/354/354
f 361/361/361 356/356/356 357/357/357
f 362/362/362 361/361/361 357/357/357
f 356/356/356 363/363/363 358/358/358
f 358/358/358 363/363/363 360/360/360
f 356/356/356 361/361/361 363/363/363
f 359/359/359 364/364/364 130/130/130
f 364/364/364 120/120/120 130/130/130
f 360/360/360 365/365/365 359/359/359
f 363/363/363 365/365/365 360/360/360
f 365/365/365 364/364/364 359/359/359
f 366/366/366 361/361/361 362/362/362
f 367/367/367 366/366/366 362/362/362
f 361/361/361 368/368/368 363/363/363
f 363/363/363 368/368/368 365/365/365
f 361/361/361 366/366/366 368/368/368
f 364/364/364 369/369/369 120/120/120
f 369/369/369 112/112/112 120/120/120
f 369/369/369 119/119/119 112/112/112
f 365/365/365 370/370/370 364/364/364
f 368/368/368 370/370/370 365/365/365
f 370/370/370 369/369/369 364/364/364
f 366/366/366 367/367/367 371/371/371
f 367/367/367 372/372/372 371/371/371
f 366/366/366 373/373/373 368/368/368
f 368/368/368 373/373/373 370/370/370
f 373/373/373 366/366/366 371/371/371
f 370/370/370 374/374/374 369/369/369
f 374/374/374 119/119/119 369/369/369
f 373/373/373 374/374/374 370/370/370
f 371/371/371 372/372/372 375/375/375
f 372/372/372 41/41/41 375/375/375
f 375/375/375 41/41/41 40/40/40
f 376/376/376 373/373/373 371/371/371
f 374/374/374 373/373/373 376/376/376
f 376/376/376 371/371/371 375/375/375
f 374/374/374 377/377/377 119/119/119
f 377/377/377 374/374/374 376/376/376
f 377/377/377 107/107/107 119/119/119
f 378/378/378 376/376/376 375/375/375
f 378/378/378 375/375/375 40/40/40
f 377/377/377 376/376/376 378/378/378
f 377/377/377 379/379/379 107/107/107
f 379/379/379 377/377/377 378/378/378
f 379/379/379 93/93/93 107/107/107
f 379/379/379 84/84/84 93/93/93
f 380/380/380 378/378/378 40/40/40
f 379/379/379 378/378/378 380/380/380
f 84/84/84 379/379/379 380/380/380
f 380/380/380 40/40/40 33/33/33
f 84/84/84 380/380/380 39/39/39
f 39/39/39 380/380/380 33/33/33
f 383/383/383 382/382/382 381/381/381
f 383/383/383 381/381/381 384/384/384
f 385/385/385 383/383/383 384/384/384
f 386/386/386 385/385/385 384/384/384
f 384/384/384 387/387/387 386/386/386
f 384/384/384 388/388/388 387/387/387
f 384/384/384 389/389/389 388/388/388
f 389/389/389 390/390/390 388/388/388
f 393/393/393 392/392/392 391/391/391
f 394/394/394 393/393/393 391/391/391
f 394/394/394 391/391/391 395/395/395
f 396/396/396 394/394/394 395/395/395
f 396/396/396 395/395/395 397/397/397
f 395/395/395 398/398/398 397/397/397
f 397/397/397 398/398/398 399/399/399
f 400/400/400 397/397/397 399/399/399
f 400/400/400 399/399/399 401/401/401
f 402/402/402 400/400/400 401/401/401
f 401/401/401 403/403/403 402/402/402
f 403/403/403 404/404/404 402/402/402
f 404/404/404 403/403/403 405/405/405
f 403/403/403 406/406/406 405/405/405
f 405/405/405 406/406/406 407/407/407
f 408/408/408 405/405/405 407/407/407
f 408/408/408 407/407/407 409/409/409
f 410/410/410 408/408/408 409/409/409
f 410/410/410 409/409/409 411/411/411
f 412/412/412 410/410/410 411/411/411
f 411/411/411 413/413/413 412/412/412
f 413/413/413 414/414/414 412/412/412
f 414/414/414 413/413/413 415/415/415
f 416/416/416 414/414/414 415/415/415
f 416/416/416 415/415/415 417/417/417
f 418/418/418 416/416/416 417/417/417
f 418/418/418 417/417/417 419/419/419
f 420/420/420 418/418/418 419/419/419
f 420/420/420 419/419/419 421/421/421
f 422/422/422 420/420/420 421/421/421
f 421/421/421 423/423/423 422/422/422
f 423/423/423 424/424/424 422/422/422
f 424/424/424 423/423/423 425/425/425
f 426/426/426 424/424/424 425/425/425
f 426/426/426 425/425/425 427/427/427
f 428/428/428 426/426/426 427/427/427
f 428/428/428 427/427/427 429/429/429
f 430/430/430 428/428/428 429/429/429
f 429/429/429 431/431/431 430/430/430
f 431/431/431 432/432/432 430/430/430
f 431/431/431 433/433/433 432/432/432
f 433/433/433 434/434/434 432/432/432
f 433/433/433 435/435/435 434/434/434
f 435/435/435 436/436/436 434/434/434
f 436/436/436 435/435/435 437/437/437
f 435/435/435 438/438/438 437/437/437
f 438/438/438 439/439/439 437/437/437
f 439/439/439 440/440/440 437/437/437
f 439/439/439 441/441/441 440/440/440
f 441/441/441 442/442/442 440/440/440
f 441/441/441 443/443/443 442/442/442
f 443/443/443 444/444/444 442/442/442
f 443/443/443 445/445/445 444/444/444
f 445/445/445 446/446/446 444/444/444
f 446/446/446 445/445/445 447/447/447
f 448/448/448 446/446/446 447/447/447
f 448/448/448 447/447/447 449/449/449
f 450/450/450 448/448/448 449/449/449
f 450/450/450 449/449/449 451/451/451
f 452/452/452 450/450/450 451/451/451
f 452/452/452 451/451/451 453/453/453
f 454/454/454 452/452/452 453/453/453
f 453/453/453 455/455/455 454/454/454
f 455/455/455 456/456/456 454/454/454
f 456/456/456 455/455/455 457/457/457
f 458/458/458 456/456/456 457/457/457
f 458/458/458 457/457/457 459/459/459
f 460/460/460 458/458/458 459/459/459
f 460/460/460 459/459/459 461/461/461
f 462/462/462 460/460/460 461/461/461
f 461/461/461 463/463/463 462/462/462
f 463/463/463 464/464/464 462/462/462
f 464/464/464 463/463/463 465/465/465
f 466/466/466 464/464/464 465/465/465
f 469/469/469 468/468/468 467/467/467
f 468/468/468 470/470/470 467/467/467
f 467/467/467 470/470/470 471/471/471
f 470/470/470 468/468/468 472/472/472
f 470/470/470 473/473/473 471/471/471
f 471/471/471 473/473/473 474/474/474
f 475/475/475 470/470/470 472/472/472
f 473/473/473 470/470/470 475/475/475
f 472/472/472 476/476/476 475/475/475
f 476/476/476 477/477/477 475/475/475
f 476/476/476 478/478/478 477/477/477
f 479/479/479 473/473/473 475/475/475
f 475/475/475 477/477/477 479/479/479
f 473/473/473 480/480/480 474/474/474
f 480/480/480 473/473/473 479/479/479
f 478/478/478 481/481/481 477/477/477
f 478/478/478 482/482/482 481/481/481
f 480/480/480 483/483/483 474/474/474
f 483/483/483 484/484/484 474/474/474
f 485/485/485 483/483/483 480/480/480
f 486/486/486 485/485/485 480/480/480
f 486/486/486 480/480/480 479/479/479
f 487/487/487 485/485/485 486/486/486
f 477/477/477 488/488/488 479/479/479
f 479/479/479 488/488/488 486/486/486
f 477/477/477 481/481/481 488/488/488
f 489/489/489 487/487/487 486/486/486
f 488/488/488 489/489/489 486/486/486
f 490/490/490 487/487/487 489/489/489
f 482/482/482 491/491/491 481/481/481
f 491/491/491 482/482/482 492/492/492
f 481/481/481 493/493/493 488/488/488
f 488/488/488 493/493/493 489/489/489
f 481/481/481 491/491/491 493/493/493
f 494/494/494 490/490/490 489/489/489
f 493/493/493 494/494/494 489/489/489
f 495/495/495 490/490/490 494/494/494
f 496/496/496 491/491/491 492/492/492
f 492/492/492 497/497/497 496/496/496
f 491/491/491 498/498/498 493/493/493
f 493/493/493 498/498/498 494/494/494
f 491/491/491 496/496/496 498/498/498
f 499/499/499 495/495/495 494/494/494
f 498/498/498 499/499/499 494/494/494
f 500/500/500 495/495/495 499/499/499
f 497/497/497 501/501/501 496/496/496
f 497/497/497 502/502/502 501/501/501
f 496/496/496 503/503/503 498/498/498
f 498/498/498 503/503/503 499/499/499
f 496/496/496 501/501/501 503/503/503
f 504/504/504 500/500/500 499/499/499
f 503/503/503 504/504/504 499/499/499
f 505/505/505 500/500/500 504/504/504
f 502/502/502 506/506/506 501/501/501
f 502/502/502 507/507/507 506/506/506
f 501/501/501 508/508/508 503/503/503
f 503/503/503 508/508/508 504/504/504
f 501/501/501 506/506/506 508/508/508
f 509/509/509 505/505/505 504/504/504
f 508/508/508 509/509/509 504/504/504
f 510/510/510 505/505/505 509/509/509
f 507/507/507 511/511/511 506/506/506
f 507/507/507 512/512/512 511/511/511
f 506/506/506 513/513/513 508/508/508
f 508/508/508 513/513/513 509/509/509
f 506/506/506 511/511/511 513/513/513
f 514/514/514 510/510/510 509/509/509
f 513/513/513 514/514/514 509/509/509
f 515/515/515 510/510/510 514/514/514
f 512/512/512 516/516/516 511/511/511
f 516/516/516 512/512/512 517/517/517
f 511/511/511 518/518/518 513/513/513
f 513/513/513 518/518/518 514/514/514
f 511/511/511 516/516/516 518/518/518
f 519/519/519 515/515/515 514/514/514
f 518/518/518 519/519/519 514/514/514
f 520/520/520 515/515/515 519/519/519
f 521/521/521 516/516/516 517/517/517
f 521/521/521 517/517/517 522/522/522
f 516/516/516 523/523/523 518/518/518
f 518/518/518 523/523/523 519/519/519
f 523/523/523 516/516/516 521/521/521
f 524/524/524 520/520/520 519/519/519
f 523/523/523 524/524/524 519/519/519
f 525/525/525 520/520/520 524/524/524
f 526/526/526 521/521/521 522/522/522
f 526/526/526 522/522/522 527/527/527
f 528/528/528 523/523/523 521/521/521
f 524/524/524 523/523/523 528/528/528
f 528/528/528 521/521/521 526/526/526
f 529/529/529 525/525/525 524/524/524
f 529/529/529 524/524/524 528/528/528
f 530/530/530 525/525/525 529/529/529
f 531/531/531 526/526/526 527/527/527
f 531/531/531 527/527/527 532/532/532
f 533/533/533 528/528/528 526/526/526
f 529/529/529 528/528/528 533/533/533
f 526/526/526 531/531/531 533/533/533
f 534/534/534 530/530/530 529/529/529
f 534/534/534 529/529/529 533/533/533
f 535/535/535 530/530/530 534/534/534
f 531/531/531 536/536/536 533/533/533
f 533/533/533 536/536/536 534/534/534
f 537/537/537 535/535/535 534/534/534
f 536/536/536 537/537/537 534/534/534
f 538/538/538 535/535/535 537/537/537
f 539/539/539 531/531/531 532/532/532
f 531/531/531 539/539/539 536/536/536
f 536/536/536 540/540/540 537/537/537
f 539/539/539 540/540/540 536/536/536
f 541/541/541 538/538/538 537/537/537
f 540/540/540 541/541/541 537/537/537
f 542/542/542 538/538/538 541/541/541
f 543/543/543 539/539/539 532/532/532
f 540/540/540 539/539/539 543/543/543
f 544/544/544 543/543/543 532/532/532
f 543/543/543 544/544/544 545/545/545
f 541/541/541 540/540/540 546/546/546
f 546/546/546 540/540/540 543/543/543
f 547/547/547 542/542/542 541/541/541
f 547/547/547 541/541/541 546/546/546
f 548/548/548 542/542/542 547/547/547
f 549/549/549 543/543/543 545/545/545
f 546/546/546 543/543/543 549/549/549
f 549/549/549 545/545/545 550/550/550
f 547/547/547 546/546/546 551/551/551
f 551/551/551 546/546/546 549/549/549
f 552/552/552 548/548/548 547/547/547
f 552/552/552 547/547/547 551/551/551
f 553/553/553 548/548/548 552/552/552
f 554/554/554 549/549/549 550/550/550
f 551/551/551 549/549/549 554/554/554
f 554/554/554 550/550/550 555/555/555
f 552/552/552 551/551/551 556/556/556
f 556/556/556 551/551/551 554/554/554
f 557/557/557 553/553/553 552/552/552
f 557/557/557 552/552/552 556/556/556
f 558/558/558 553/553/553 557/557/557
f 559/559/559 554/554/554 555/555/555
f 556/556/556 554/554/554 559/559/559
f 555/555/555 560/560/560 559/559/559
f 557/557/557 556/556/556 561/561/561
f 561/561/561 556/556/556 559/559/559
f 562/562/562 558/558/558 557/557/557
f 562/562/562 557/557/557 561/561/561
f 563/563/563 558/558/558 562/562/562
f 560/560/560 564/564/564 559/559/559
f 559/559/559 564/564/564 561/561/561
f 560/560/560 565/565/565 564/564/564
f 561/561/561 566/566/566 562/562/562
f 564/564/564 566/566/566 561/561/561
f 567/567/567 563/563/563 562/562/562
f 566/566/566 567/567/567 562/562/562
f 568/568/568 563/563/563 567/567/567
f 565/565/565 569/569/569 564/564/564
f 564/564/564 569/569/569 566/566/566
f 565/565/565 570/570/570 569/569/569
f 566/566/566 571/571/571 567/567/567
f 569/569/569 571/571/571 566/566/566
f 572/572/572 568/568/568 567/567/567
f 571/571/571 572/572/572 567/567/567
f 573/573/573 568/568/568 572/572/572
f 570/570/570 574/574/574 569/569/569
f 569/569/569 574/574/574 571/571/571
f 574/574/574 570/570/570 575/575/575
f 571/571/571 576/576/576 572/572/572
f 574/574/574 576/576/576 571/571/571
f 577/577/577 573/573/573 572/572/572
f 576/576/576 577/577/577 572/572/572
f 578/578/578 573/573/573 577/577/577
f 579/579/579 574/574/574 575/575/575
f 574/574/574 579/579/579 576/576/576
f 575/575/575 580/580/580 579/579/579
f 576/576/576 581/581/581 577/577/577
f 579/579/579 581/581/581 576/576/576
f 582/582/582 578/578/578 577/577/577
f 581/581/581 582/582/582 577/577/577
f 583/583/583 578/578/578 582/582/582
f 580/580/580 584/584/584 579/579/579
f 579/579/579 584/584/584 581/581/581
f 580/580/580 585/585/585 584/584/584
f 581/581/581 586/586/586 582/582/582
f 584/584/584 586/586/586 581/581/581
f 587/587/587 583/583/583 582/582/582
f 586/586/586 587/587/587 582/582/582
f 588/588/588 583/583/583 587/587/587
f 585/585/585 589/589/589 584/584/584
f 584/584/584 589/589/589 586/586/586
f 585/585/585 590/590/590 589/589/589
f 586/586/586 591/591/591 587/587/587
f 589/589/589 591/591/591 586/586/586
f 592/592/592 588/588/588 587/587/587
f 591/591/591 592/592/592 587/587/587
f 593/593/593 588/588/588 592/592/592
f 590/590/590 594/594/594 589/589/589
f 589/589/589 594/594/594 591/591/591
f 590/590/590 595/595/595 594/594/594
f 591/591/591 596/596/596 592/592/592
f 594/594/594 596/596/596 591/591/591
f 597/597/597 593/593/593 592/592/592
f 596/596/596 597/597/597 592/592/592
f 598/598/598 593/593/593 597/597/597
f 595/595/595 599/599/599 594/594/594
f 594/594/594 599/599/599 596/596/596
f 599/599/599 595/595/595 600/600/600
f 596/596/596 601/601/601 597/597/597
f 599/599/599 601/601/601 596/596/596
f 602/602/602 598/598/598 597/597/597
f 601/601/601 602/602/602 597/597/597
f 603/603/603 598/598/598 602/602/602
f 604/604/604 599/599/599 600/600/600
f 599/599/599 604/604/604 601/601/601
f 600/600/600 605/605/605 604/604/604
f 601/601/601 606/606/606 602/602/602
f 604/604/604 606/606/606 601/601/601
f 607/607/607 603/603/603 602/602/602
f 606/606/606 607/607/607 602/602/602
f 608/608/608 603/603/603 607/607/607
f 605/605/605 609/609/609 604/604/604
f 604/604/604 609/609/609 606/606/606
f 605/605/605 610/610/610 609/609/609
f 606/606/606 611/611/611 607/607/607
f 609/609/609 611/611/611 606/606/606
f 612/612/612 608/608/608 607/607/607
f 611/611/611 612/612/612 607/607/607
f 613/613/613 608/608/608 612/612/612
f 610/610/610 614/614/614 609/609/609
f 609/609/609 614/614/614 611/611/611
f 610/610/610 615/615/615 614/614/614
f 611/611/611 616/616/616 612/612/612
f 614/614/614 616/616/616 611/611/611
f 617/617/617 613/613/613 612/612/612
f 616/616/616 617/617/617 612/612/612
f 618/618/618 613/613/613 617/617/617
f 615/615/615 619/619/619 614/614/614
f 614/614/614 619/619/619 616/616/616
f 616/616/616 620/620/620 617/617/617
f 619/619/619 620/620/620 616/616/616
f 621/621/621 618/618/618 617/617/617
f 620/620/620 621/621/621 617/617/617
f 622/622/622 618/618/618 621/621/621
f 623/623/623 619/619/619 615/615/615
f 619/619/619 623/623/623 620/620/620
f 624/624/624 623/623/623 615/615/615
f 623/623/623 624/624/624 625/625/625
f 620/620/620 626/626/626 621/621/621
f 623/623/623 626/626/626 620/620/620
f 627/627/627 622/622/622 621/621/621
f 626/626/626 627/627/627 621/621/621
f 628/628/628 622/622/622 627/627/627
f 629/629/629 623/623/623 625/625/625
f 626/626/626 623/623/623 629/629/629
f 625/625/625 630/630/630 629/629/629
f 627/627/627 626/626/626 631/631/631
f 631/631/631 626/626/626 629/629/629
f 632/632/632 628/628/628 627/627/627
f 632/632/632 627/627/627 631/631/631
f 633/633/633 628/628/628 632/632/632
f 630/630/630 634/634/634 629/629/629
f 631/631/631 629/629/629 634/634/634
f 630/630/630 635/635/635 634/634/634
f 632/632/632 631/631/631 636/636/636
f 636/636/636 631/631/631 634/634/634
f 637/637/637 633/633/633 632/632/632
f 637/637/637 632/632/632 636/636/636
f 638/638/638 633/633/633 637/637/637
f 635/635/635 639/639/639 634/634/634
f 636/636/636 634/634/634 639/639/639
f 637/637/637 636/636/636 640/640/640
f 640/640/640 636/636/636 639/639/639
f 641/641/641 638/638/638 637/637/637
f 641/641/641 637/637/637 640/640/640
f 642/642/642 638/638/638 641/641/641
f 643/643/643 639/639/639 635/635/635
f 639/639/639 643/643/643 640/640/640
f 644/644/644 643/643/643 635/635/635
f 644/644/644 645/645/645 643/643/643
f 640/640/640 646/646/646 641/641/641
f 643/643/643 646/646/646 640/640/640
f 647/647/647 642/642/642 641/641/641
f 646/646/646 647/647/647 641/641/641
f 648/648/648 642/642/642 647/647/647
f 645/645/645 649/649/649 643/643/643
f 643/643/643 649/649/649 646/646/646
f 645/645/645 650/650/650 649/649/649
f 650/650/650 651/651/651 649/649/649
f 649/649/649 652/652/652 646/646/646
f 649/649/649 651/651/651 652/652/652
f 646/646/646 652/652/652 647/647/647
f 651/651/651 653/653/653 652/652/652
f 654/654/654 648/648/648 647/647/647
f 652/652/652 654/654/654 647/647/647
f 652/652/652 653/653/653 654/654/654
f 655/655/655 648/648/648 654/654/654
f 653/653/653 656/656/656 654/654/654
f 656/656/656 655/655/655 654/654/654
