g HaiLang_02
v -0.530057057 0.0549796926 -8.44194222E-06
v -0.518740901 -0.0887773969 -8.44194222E-06
v -0.549336433 -0.103396194 -8.44194222E-06
v -0.498422115 0.0570585123 -8.44194222E-06
v -0.487743017 -0.0757847736 -8.44194222E-06
v -0.510760916 0.213372343 -8.44194222E-06
v -0.46670335 0.0582320395 -8.44194222E-06
v -0.456409839 -0.0644183239 -8.44194222E-06
v -0.478103329 0.202911186 -8.44194222E-06
v -0.434951055 0.0584835097 -8.44194222E-06
v -0.424808426 -0.0546109889 -8.44194222E-06
v -0.457784542 0.348747095 -8.44194222E-06
v -0.491481539 0.371764994 -8.44194222E-06
v -0.42464078 0.326265666 -8.44194222E-06
v -0.445663682 0.192248853 -8.44194222E-06
v -0.392016722 0.304287177 -8.44194222E-06
v -0.413475506 0.181385343 -8.44194222E-06
v -0.359862075 0.282778099 -8.44194222E-06
v -0.403165231 0.057846452 -8.44194222E-06
v -0.392989073 -0.0463627687 -8.44194222E-06
v -0.38150527 0.170320658 -8.44194222E-06
v -0.328143309 0.261738431 -8.44194222E-06
v -0.371362642 0.0563376312 -8.44194222E-06
v -0.360985308 -0.039640134 -8.44194222E-06
v -0.349752976 0.159038031 -8.44194222E-06
v -0.296810132 0.241101116 -8.44194222E-06
v -0.339593583 0.0539402827 -8.44194222E-06
v -0.32886419 -0.0343927907 -8.44194222E-06
v -0.318201857 0.147520699 -8.44194222E-06
v -0.265862541 0.220866153 -8.44194222E-06
v -0.307858053 0.0506879357 -8.44194222E-06
v -0.29665925 -0.0306039741 -8.44194222E-06
v -0.286851915 0.135785427 -8.44194222E-06
v -0.23523348 0.200983248 -8.44194222E-06
v -0.276172816 0.046597355 -8.44194222E-06
v -0.264404015 -0.0282233902 -8.44194222E-06
v -0.255703148 0.123798684 -8.44194222E-06
v -0.204906182 0.181435637 -8.44194222E-06
v -0.244571404 0.0416685405 -8.44194222E-06
v -0.232165544 -0.0272175097 -8.44194222E-06
v -0.224738793 0.111543707 -8.44194222E-06
v -0.174863885 0.162173025 -8.44194222E-06
v -0.213070579 0.0359182569 -8.44194222E-06
v -0.199977368 -0.0275695679 -8.44194222E-06
v -0.193975614 0.0990372589 -8.44194222E-06
v -0.145073057 0.143178649 -8.44194222E-06
v -0.181670343 0.0293465042 -8.44194222E-06
v -0.167873015 -0.0291957414 -8.44194222E-06
v -0.163380082 0.0862625764 -8.44194222E-06
v -0.115533699 0.124402212 -8.44194222E-06
v -0.150420988 0.0220035765 -8.44194222E-06
v -0.13590278 -0.0320960302 -8.44194222E-06
v -0.132985726 0.0732028944 -8.44194222E-06
v -0.0862458117 0.105843717 -8.44194222E-06
v -0.119356045 0.0138894738 -8.44194222E-06
v -0.104116955 -0.0362033756 -8.44194222E-06
v -0.102792546 0.059858213 -8.44194222E-06
v -0.057175865 0.0874361036 -8.44194222E-06
v -0.0884755135 0.0050209606 -8.44194222E-06
v -0.0725323074 -0.0414674836 -8.44194222E-06
v -0.0728173069 0.0462285321 -8.44194222E-06
v -0.0283238591 0.0691626077 -8.44194222E-06
v -0.057796158 -0.00460196293 -8.44194222E-06
v -0.0411823649 -0.0478715895 -8.44194222E-06
v -0.0430600085 0.0322803224 -8.44194222E-06
v 0.00032697077 0.0509896999 -8.44194222E-06
v -0.0273347432 -0.0149290028 -8.44194222E-06
v -0.0100671278 -0.0553653993 -8.44194222E-06
v -0.0135038862 0.0180303485 -8.44194222E-06
v 0.0287766245 0.032867086 -8.44194222E-06
v 0.00287520139 -0.0259601591 -8.44194222E-06
v 0.0207631098 -0.0639153836 -8.44194222E-06
v 0.0158342953 0.00346184581 -8.44194222E-06
v 0.0570418668 0.0147780015 -8.44194222E-06
v 0.0328672052 -0.037678667 -8.44194222E-06
v 0.044954536 -0.0114419504 -8.44194222E-06
v 0.0851226977 -0.00331108295 -8.44194222E-06
v 0.0625909743 -0.0500677619 -8.44194222E-06
v 0.0513083479 -0.0734544838 -8.44194222E-06
v 0.073856836 -0.0266978048 -8.44194222E-06
v 0.113035882 -0.0214504615 -8.44194222E-06
v 0.0920465085 -0.0631274439 -8.44194222E-06
v 0.0815518219 -0.0839659351 -8.44194222E-06
v 0.102541195 -0.0422889527 -8.44194222E-06
v 0.140764655 -0.0396736633 -8.44194222E-06
v 0.121233808 -0.0768241835 -8.44194222E-06
v 0.111476767 -0.0953994436 -8.44194222E-06
v 0.131007614 -0.0582489234 -8.44194222E-06
v 0.168309016 -0.0579974533 -8.44194222E-06
v 0.150152873 -0.0911412161 -8.44194222E-06
v 0.141083183 -0.10772148 -8.44194222E-06
v 0.159222562 -0.074577717 -8.44194222E-06
v 0.195668966 -0.0764721253 -8.44194222E-06
v 0.178786938 -0.106078542 -8.44194222E-06
v 0.170337541 -0.12088175 -8.44194222E-06
v 0.187219569 -0.0912753335 -8.44194222E-06
v 0.222827739 -0.0951312087 -8.44194222E-06
v 0.207119239 -0.121619395 -8.44194222E-06
v 0.199256606 -0.134846724 -8.44194222E-06
v 0.214965107 -0.108375302 -8.44194222E-06
v 0.249785337 -0.114008233 -8.44194222E-06
v 0.235149776 -0.137730248 -8.44194222E-06
v 0.227840377 -0.149582874 -8.44194222E-06
v 0.242475939 -0.125860858 -8.44194222E-06
v 0.276524994 -0.133119963 -8.44194222E-06
v 0.262878548 -0.1544111 -8.44194222E-06
v 0.25607209 -0.165039904 -8.44194222E-06
v 0.269701771 -0.143765531 -8.44194222E-06
v 0.303029945 -0.152499927 -8.44194222E-06
v 0.290288792 -0.171628421 -8.44194222E-06
v 0.28393498 -0.181184286 -8.44194222E-06
v 0.296659369 -0.162055792 -8.44194222E-06
v 0.329249897 -0.172148126 -8.44194222E-06
v 0.317363743 -0.189348683 -8.44194222E-06
v 0.311412283 -0.197965726 -8.44194222E-06
v 0.323298438 -0.180748405 -8.44194222E-06
v 0.35518485 -0.192114854 -8.44194222E-06
v 0.344086635 -0.20758865 -8.44194222E-06
v 0.338554292 -0.21533393 -8.44194222E-06
v 0.349635742 -0.199860134 -8.44194222E-06
v 0.380801273 -0.212433641 -8.44194222E-06
v 0.370474233 -0.226314792 -8.44194222E-06
v 0.365310713 -0.233255367 -8.44194222E-06
v 0.375637753 -0.219374216 -8.44194222E-06
v 0.406082403 -0.233104485 -8.44194222E-06
v 0.396526539 -0.245510345 -8.44194222E-06
v 0.391731842 -0.251713275 -8.44194222E-06
v 0.401304471 -0.239307415 -8.44194222E-06
v 0.431011475 -0.254144153 -8.44194222E-06
v 0.422226786 -0.265158544 -8.44194222E-06
v 0.417817676 -0.270657358 -8.44194222E-06
v 0.426619131 -0.259659731 -8.44194222E-06
v 0.45555496 -0.275619701 -8.44194222E-06
v 0.447574974 -0.28525939 -8.44194222E-06
v 0.443584982 -0.290070851 -8.44194222E-06
v 0.451564967 -0.280431163 -8.44194222E-06
v 0.479679327 -0.297514367 -8.44194222E-06
v 0.472604634 -0.305779352 -8.44194222E-06
v 0.469050523 -0.309920227 -8.44194222E-06
v 0.476141981 -0.301638477 -8.44194222E-06
v 0.503384578 -0.319844914 -8.44194222E-06
v 0.497282236 -0.326735196 -8.44194222E-06
v 0.494231065 -0.330171954 -8.44194222E-06
v 0.521624545 -0.348076627 -8.44194222E-06
v 0.519143373 -0.350792505 -8.44194222E-06
v 0.54380421 -0.371765113 -8.44194222E-06
v 0.545648324 -0.369820411 -8.44194222E-06
v 0.547492438 -0.367892473 -8.44194222E-06
v 0.500333407 -0.323281673 -8.44194222E-06
v 0.526603653 -0.342661637 -8.44194222E-06
v 0.524122481 -0.34536075 -8.44194222E-06
v 0.549336553 -0.365947771 -8.44194222E-06
vt 0 0.333333333
vt 0.027370479 0
vt 0 0
vt 0.027370479 0.333333333
vt 0.0537634409 0
vt 0 0.666666667
vt 0.0537634409 0.333333333
vt 0.0811339198 0
vt 0.027370479 0.666666667
vt 0.0811339198 0.333333333
vt 0.108504399 0
vt 0.027370479 1
vt 0 1
vt 0.0537634409 1
vt 0.0537634409 0.666666667
vt 0.0811339198 1
vt 0.0811339198 0.666666667
vt 0.108504399 1
vt 0.108504399 0.333333333
vt 0.134897361 0
vt 0.108504399 0.666666667
vt 0.134897361 1
vt 0.134897361 0.333333333
vt 0.16226784 0
vt 0.134897361 0.666666667
vt 0.16226784 1
vt 0.16226784 0.333333333
vt 0.189638319 0
vt 0.16226784 0.666666667
vt 0.189638319 1
vt 0.189638319 0.333333333
vt 0.216031281 0
vt 0.189638319 0.666666667
vt 0.216031281 1
vt 0.216031281 0.333333333
vt 0.24340176 0
vt 0.216031281 0.666666667
vt 0.24340176 1
vt 0.24340176 0.333333333
vt 0.269794721 0
vt 0.24340176 0.666666667
vt 0.269794721 1
vt 0.269794721 0.333333333
vt 0.2971652 0
vt 0.269794721 0.666666667
vt 0.2971652 1
vt 0.2971652 0.333333333
vt 0.324535679 0
vt 0.2971652 0.666666667
vt 0.324535679 1
vt 0.324535679 0.333333333
vt 0.350928641 0
vt 0.324535679 0.666666667
vt 0.350928641 1
vt 0.350928641 0.333333333
vt 0.37829912 0
vt 0.350928641 0.666666667
vt 0.37829912 1
vt 0.37829912 0.333333333
vt 0.405669599 0
vt 0.37829912 0.666666667
vt 0.405669599 1
vt 0.405669599 0.333333333
vt 0.432062561 0
vt 0.405669599 0.666666667
vt 0.432062561 1
vt 0.432062561 0.333333333
vt 0.45943304 0
vt 0.432062561 0.666666667
vt 0.45943304 1
vt 0.45943304 0.333333333
vt 0.486803519 0
vt 0.45943304 0.666666667
vt 0.486803519 1
vt 0.486803519 0.333333333
vt 0.486803519 0.666666667
vt 0.513196481 1
vt 0.513196481 0.333333333
vt 0.513196481 0
vt 0.513196481 0.666666667
vt 0.54056696 1
vt 0.54056696 0.333333333
vt 0.54056696 0
vt 0.54056696 0.666666667
vt 0.567937439 1
vt 0.567937439 0.333333333
vt 0.567937439 0
vt 0.567937439 0.666666667
vt 0.594330401 1
vt 0.594330401 0.333333333
vt 0.594330401 0
vt 0.594330401 0.666666667
vt 0.62170088 1
vt 0.62170088 0.333333333
vt 0.62170088 0
vt 0.62170088 0.666666667
vt 0.649071359 1
vt 0.649071359 0.333333333
vt 0.649071359 0
vt 0.649071359 0.666666667
vt 0.675464321 1
vt 0.675464321 0.333333333
vt 0.675464321 0
vt 0.675464321 0.666666667
vt 0.7028348 1
vt 0.7028348 0.333333333
vt 0.7028348 0
vt 0.7028348 0.666666667
vt 0.730205279 1
vt 0.730205279 0.333333333
vt 0.730205279 0
vt 0.730205279 0.666666667
vt 0.75659824 1
vt 0.75659824 0.333333333
vt 0.75659824 0
vt 0.75659824 0.666666667
vt 0.783968719 1
vt 0.783968719 0.333333333
vt 0.783968719 0
vt 0.783968719 0.666666667
vt 0.810361681 1
vt 0.810361681 0.333333333
vt 0.810361681 0
vt 0.810361681 0.666666667
vt 0.83773216 1
vt 0.83773216 0.333333333
vt 0.83773216 0
vt 0.83773216 0.666666667
vt 0.865102639 1
vt 0.865102639 0.333333333
vt 0.865102639 0
vt 0.865102639 0.666666667
vt 0.891495601 1
vt 0.891495601 0.333333333
vt 0.891495601 0
vt 0.891495601 0.666666667
vt 0.91886608 1
vt 0.91886608 0.333333333
vt 0.91886608 0
vt 0.91886608 0.666666667
vt 0.946236559 1
vt 0.946236559 0.333333333
vt 0.946236559 0
vt 0.972629521 0.333333333
vt 0.972629521 0
vt 1 0
vt 1 0.333333333
vt 1 0.666666667
vt 0.946236559 0.666666667
vt 0.972629521 1
vt 0.972629521 0.666666667
vt 1 1
vn -0 0 1
vn -0 0 1
vn -0 0 1
vn -0 0 1
vn -0 0 1
vn -0 0 1
vn -0 0 1
vn -0 0 1
vn -0 0 1
vn -0 0 1
vn -0 0 1
vn -0 0 1
vn -0 0 1
vn -0 0 1
vn -0 0 1
vn -0 0 1
vn -0 0 1
vn -0 0 1
vn -0 0 1
vn -0 0 1
vn -0 0 1
vn -0 0 1
vn -0 0 1
vn -0 0 1
vn -0 0 1
vn -0 0 1
vn -0 0 1
vn -0 0 1
vn -0 0 1
vn -0 0 1
vn -0 0 1
vn -0 0 1
vn -0 0 1
vn -0 0 1
vn -0 0 1
vn -0 0 1
vn -0 0 1
vn -0 0 1
vn -0 0 1
vn -0 0 1
vn -0 0 1
vn -0 0 1
vn -0 0 1
vn -0 0 1
vn -0 0 1
vn -0 0 1
vn -0 0 1
vn -0 0 1
vn -0 0 1
vn -0 0 1
vn -0 0 1
vn -0 0 1
vn -0 0 1
vn -0 0 1
vn -0 0 1
vn -0 0 1
vn -0 0 1
vn -0 0 1
vn -0 0 1
vn -0 0 1
vn -0 0 1
vn -0 0 1
vn -0 0 1
vn -0 0 1
vn -0 0 1
vn -0 0 1
vn -0 0 1
vn -0 0 1
vn -0 0 1
vn -0 0 1
vn -0 0 1
vn -0 0 1
vn -0 0 1
vn -0 0 1
vn -0 0 1
vn -0 0 1
vn -0 0 1
vn -0 0 1
vn -0 0 1
vn -0 0 1
vn -0 0 1
vn -0 0 1
vn -0 0 1
vn -0 0 1
vn -0 0 1
vn -0 0 1
vn -0 0 1
vn -0 0 1
vn -0 0 1
vn -0 0 1
vn -0 0 1
vn -0 0 1
vn -0 0 1
vn -0 0 1
vn -0 0 1
vn -0 0 1
vn -0 0 1
vn -0 0 1
vn -0 0 1
vn -0 0 1
vn -0 0 1
vn -0 0 1
vn -0 0 1
vn -0 0 1
vn -0 0 1
vn -0 0 1
vn -0 0 1
vn -0 0 1
vn -0 0 1
vn -0 0 1
vn -0 0 1
vn -0 0 1
vn -0 0 1
vn -0 0 1
vn -0 0 1
vn -0 0 1
vn -0 0 1
vn -0 0 1
vn -0 0 1
vn -0 0 1
vn -0 0 1
vn -0 0 1
vn -0 0 1
vn -0 0 1
vn -0 0 1
vn -0 0 1
vn -0 0 1
vn -0 0 1
vn -0 0 1
vn -0 0 1
vn -0 0 1
vn -0 0 1
vn -0 0 1
vn -0 0 1
vn -0 0 1
vn -0 0 1
vn -0 0 1
vn -0 0 1
vn -0 0 1
vn -0 0 1
vn -0 0 1
vn -0 0 1
vn -0 0 1
vn -0 0 1
vn -0 0 1
vn -0 0 1
vn -0 0 1
vn -0 0 1
vn -0 0 1
vn -0 0 1
vn -0 0 1
vn -0 0 1
g HaiLang_02_0
f 3/3/3 2/2/2 1/1/1
f 2/2/2 4/4/4 1/1/1
f 2/2/2 5/5/5 4/4/4
f 1/1/1 4/4/4 6/6/6
f 5/5/5 7/7/7 4/4/4
f 5/5/5 8/8/8 7/7/7
f 4/4/4 9/9/9 6/6/6
f 4/4/4 7/7/7 9/9/9
f 8/8/8 10/10/10 7/7/7
f 8/8/8 11/11/11 10/10/10
f 6/6/6 9/9/9 12/12/12
f 13/13/13 6/6/6 12/12/12
f 12/12/12 9/9/9 14/14/14
f 7/7/7 15/15/15 9/9/9
f 9/9/9 15/15/15 14/14/14
f 7/7/7 10/10/10 15/15/15
f 14/14/14 15/15/15 16/16/16
f 15/15/15 17/17/17 16/16/16
f 10/10/10 17/17/17 15/15/15
f 16/16/16 17/17/17 18/18/18
f 11/11/11 19/19/19 10/10/10
f 10/10/10 19/19/19 17/17/17
f 11/11/11 20/20/20 19/19/19
f 17/17/17 21/21/21 18/18/18
f 19/19/19 21/21/21 17/17/17
f 18/18/18 21/21/21 22/22/22
f 20/20/20 23/23/23 19/19/19
f 19/19/19 23/23/23 21/21/21
f 20/20/20 24/24/24 23/23/23
f 21/21/21 25/25/25 22/22/22
f 23/23/23 25/25/25 21/21/21
f 22/22/22 25/25/25 26/26/26
f 24/24/24 27/27/27 23/23/23
f 23/23/23 27/27/27 25/25/25
f 24/24/24 28/28/28 27/27/27
f 25/25/25 29/29/29 26/26/26
f 27/27/27 29/29/29 25/25/25
f 26/26/26 29/29/29 30/30/30
f 28/28/28 31/31/31 27/27/27
f 27/27/27 31/31/31 29/29/29
f 28/28/28 32/32/32 31/31/31
f 29/29/29 33/33/33 30/30/30
f 31/31/31 33/33/33 29/29/29
f 30/30/30 33/33/33 34/34/34
f 32/32/32 35/35/35 31/31/31
f 31/31/31 35/35/35 33/33/33
f 32/32/32 36/36/36 35/35/35
f 33/33/33 37/37/37 34/34/34
f 35/35/35 37/37/37 33/33/33
f 34/34/34 37/37/37 38/38/38
f 36/36/36 39/39/39 35/35/35
f 35/35/35 39/39/39 37/37/37
f 36/36/36 40/40/40 39/39/39
f 37/37/37 41/41/41 38/38/38
f 39/39/39 41/41/41 37/37/37
f 38/38/38 41/41/41 42/42/42
f 40/40/40 43/43/43 39/39/39
f 39/39/39 43/43/43 41/41/41
f 40/40/40 44/44/44 43/43/43
f 41/41/41 45/45/45 42/42/42
f 43/43/43 45/45/45 41/41/41
f 42/42/42 45/45/45 46/46/46
f 44/44/44 47/47/47 43/43/43
f 43/43/43 47/47/47 45/45/45
f 44/44/44 48/48/48 47/47/47
f 45/45/45 49/49/49 46/46/46
f 47/47/47 49/49/49 45/45/45
f 46/46/46 49/49/49 50/50/50
f 48/48/48 51/51/51 47/47/47
f 47/47/47 51/51/51 49/49/49
f 48/48/48 52/52/52 51/51/51
f 49/49/49 53/53/53 50/50/50
f 51/51/51 53/53/53 49/49/49
f 50/50/50 53/53/53 54/54/54
f 52/52/52 55/55/55 51/51/51
f 51/51/51 55/55/55 53/53/53
f 52/52/52 56/56/56 55/55/55
f 53/53/53 57/57/57 54/54/54
f 55/55/55 57/57/57 53/53/53
f 54/54/54 57/57/57 58/58/58
f 56/56/56 59/59/59 55/55/55
f 55/55/55 59/59/59 57/57/57
f 56/56/56 60/60/60 59/59/59
f 57/57/57 61/61/61 58/58/58
f 59/59/59 61/61/61 57/57/57
f 58/58/58 61/61/61 62/62/62
f 60/60/60 63/63/63 59/59/59
f 59/59/59 63/63/63 61/61/61
f 60/60/60 64/64/64 63/63/63
f 61/61/61 65/65/65 62/62/62
f 63/63/63 65/65/65 61/61/61
f 62/62/62 65/65/65 66/66/66
f 64/64/64 67/67/67 63/63/63
f 63/63/63 67/67/67 65/65/65
f 64/64/64 68/68/68 67/67/67
f 65/65/65 69/69/69 66/66/66
f 67/67/67 69/69/69 65/65/65
f 66/66/66 69/69/69 70/70/70
f 68/68/68 71/71/71 67/67/67
f 67/67/67 71/71/71 69/69/69
f 68/68/68 72/72/72 71/71/71
f 69/69/69 73/73/73 70/70/70
f 71/71/71 73/73/73 69/69/69
f 70/70/70 73/73/73 74/74/74
f 72/72/72 75/75/75 71/71/71
f 71/71/71 75/75/75 73/73/73
f 73/73/73 76/76/76 74/74/74
f 75/75/75 76/76/76 73/73/73
f 74/74/74 76/76/76 77/77/77
f 78/78/78 75/75/75 72/72/72
f 76/76/76 75/75/75 78/78/78
f 79/79/79 78/78/78 72/72/72
f 76/76/76 80/80/80 77/77/77
f 80/80/80 76/76/76 78/78/78
f 77/77/77 80/80/80 81/81/81
f 82/82/82 78/78/78 79/79/79
f 80/80/80 78/78/78 82/82/82
f 83/83/83 82/82/82 79/79/79
f 80/80/80 84/84/84 81/81/81
f 84/84/84 80/80/80 82/82/82
f 81/81/81 84/84/84 85/85/85
f 86/86/86 82/82/82 83/83/83
f 84/84/84 82/82/82 86/86/86
f 87/87/87 86/86/86 83/83/83
f 84/84/84 88/88/88 85/85/85
f 88/88/88 84/84/84 86/86/86
f 85/85/85 88/88/88 89/89/89
f 90/90/90 86/86/86 87/87/87
f 88/88/88 86/86/86 90/90/90
f 91/91/91 90/90/90 87/87/87
f 88/88/88 92/92/92 89/89/89
f 92/92/92 88/88/88 90/90/90
f 89/89/89 92/92/92 93/93/93
f 94/94/94 90/90/90 91/91/91
f 92/92/92 90/90/90 94/94/94
f 95/95/95 94/94/94 91/91/91
f 92/92/92 96/96/96 93/93/93
f 96/96/96 92/92/92 94/94/94
f 93/93/93 96/96/96 97/97/97
f 98/98/98 94/94/94 95/95/95
f 96/96/96 94/94/94 98/98/98
f 99/99/99 98/98/98 95/95/95
f 96/96/96 100/100/100 97/97/97
f 100/100/100 96/96/96 98/98/98
f 97/97/97 100/100/100 101/101/101
f 102/102/102 98/98/98 99/99/99
f 100/100/100 98/98/98 102/102/102
f 103/103/103 102/102/102 99/99/99
f 100/100/100 104/104/104 101/101/101
f 104/104/104 100/100/100 102/102/102
f 101/101/101 104/104/104 105/105/105
f 106/106/106 102/102/102 103/103/103
f 104/104/104 102/102/102 106/106/106
f 107/107/107 106/106/106 103/103/103
f 104/104/104 108/108/108 105/105/105
f 108/108/108 104/104/104 106/106/106
f 105/105/105 108/108/108 109/109/109
f 110/110/110 106/106/106 107/107/107
f 108/108/108 106/106/106 110/110/110
f 111/111/111 110/110/110 107/107/107
f 108/108/108 112/112/112 109/109/109
f 112/112/112 108/108/108 110/110/110
f 109/109/109 112/112/112 113/113/113
f 114/114/114 110/110/110 111/111/111
f 112/112/112 110/110/110 114/114/114
f 115/115/115 114/114/114 111/111/111
f 112/112/112 116/116/116 113/113/113
f 116/116/116 112/112/112 114/114/114
f 113/113/113 116/116/116 117/117/117
f 118/118/118 114/114/114 115/115/115
f 116/116/116 114/114/114 118/118/118
f 119/119/119 118/118/118 115/115/115
f 116/116/116 120/120/120 117/117/117
f 120/120/120 116/116/116 118/118/118
f 117/117/117 120/120/120 121/121/121
f 122/122/122 118/118/118 119/119/119
f 120/120/120 118/118/118 122/122/122
f 123/123/123 122/122/122 119/119/119
f 120/120/120 124/124/124 121/121/121
f 124/124/124 120/120/120 122/122/122
f 121/121/121 124/124/124 125/125/125
f 126/126/126 122/122/122 123/123/123
f 124/124/124 122/122/122 126/126/126
f 127/127/127 126/126/126 123/123/123
f 124/124/124 128/128/128 125/125/125
f 128/128/128 124/124/124 126/126/126
f 125/125/125 128/128/128 129/129/129
f 130/130/130 126/126/126 127/127/127
f 128/128/128 126/126/126 130/130/130
f 131/131/131 130/130/130 127/127/127
f 128/128/128 132/132/132 129/129/129
f 132/132/132 128/128/128 130/130/130
f 129/129/129 132/132/132 133/133/133
f 134/134/134 130/130/130 131/131/131
f 132/132/132 130/130/130 134/134/134
f 135/135/135 134/134/134 131/131/131
f 132/132/132 136/136/136 133/133/133
f 136/136/136 132/132/132 134/134/134
f 133/133/133 136/136/136 137/137/137
f 138/138/138 134/134/134 135/135/135
f 136/136/136 134/134/134 138/138/138
f 139/139/139 138/138/138 135/135/135
f 136/136/136 140/140/140 137/137/137
f 140/140/140 136/136/136 138/138/138
f 137/137/137 140/140/140 141/141/141
f 142/142/142 138/138/138 139/139/139
f 140/140/140 138/138/138 142/142/142
f 143/143/143 142/142/142 139/139/139
f 144/144/144 142/142/142 143/143/143
f 145/145/145 144/144/144 143/143/143
f 145/145/145 146/146/146 144/144/144
f 146/146/146 147/147/147 144/144/144
f 144/144/144 147/147/147 148/148/148
f 140/140/140 149/149/149 141/141/141
f 149/149/149 140/140/140 142/142/142
f 149/149/149 142/142/142 144/144/144
f 141/141/141 149/149/149 150/150/150
f 151/151/151 144/144/144 148/148/148
f 151/151/151 149/149/149 144/144/144
f 149/149/149 151/151/151 150/150/150
f 151/151/151 148/148/148 152/152/152
f 150/150/150 151/151/151 152/152/152
