g handrail_snow1
v -307.539159 -7.13220023 0.00469532602
v -307.11658 -7.15098153 -0.906197922
v -307.435862 -7.06646566 -0.671431621
v -307.11658 -7.2354974 0.00469532602
v -307.435862 -7.06646566 0.680822273
v -277.986777 -7.30123197 -0.943760531
v -307.11658 -7.14159088 0.915588574
v -277.986777 -7.39513849 0.00469532602
v -191.667904 -7.25427871 -0.943760531
v -277.986777 -7.30123197 0.953151183
v -191.667904 -7.34818523 0.00469532602
v -105.414765 -7.34818523 -1.00010444
v -191.667904 -7.25427871 0.953151183
v -105.414765 -7.44209175 0.00469532602
v -76.5009469 -7.40452914 -1.05644836
v -105.414765 -7.34818523 1.00949509
v -76.4915562 -7.51721696 0.00469532602
v -76.1628834 -7.36696653 -1.05644836
v -76.5009469 -7.39513849 1.06583901
v -76.1534928 -7.4702637 0.00469532602
v -75.7215228 -7.28245066 -1.0470577
v -76.1628834 -7.35757588 1.05644836
v -75.7027415 -7.38574783 0.00469532602
v -72.1624656 -5.68603981 -1.01888575
v -75.7309134 -7.28245066 1.05644836
v -72.124903 -5.77994633 0.00469532602
v -62.302281 -1.00949509 -0.971932487
v -72.1624656 -5.67664916 1.0282764
v -62.274109 -1.10340162 0.00469532602
v -52.4045337 3.47923658 -1.00010444
v -62.3116717 -1.00949509 0.981323139
v -52.3669711 3.38533006 0.00469532602
v -48.9769457 5.08503808 -0.990713791
v -52.4045337 3.48862724 1.00949509
v -48.9393831 4.99113156 0.00469532602
v -48.7421794 5.16955395 -0.990713791
v -48.9769457 5.09442873 1.00010444
v -48.7140075 5.07564743 0.00469532602
v -48.4135066 5.27285112 -0.990713791
v -48.7421794 5.1789446 1.00010444
v -48.3947253 5.1789446 0.00469532602
v -48.4228973 5.28224178 1.00010444
v -48.0660525 5.36675764 -0.990713791
v -48.0472712 5.26346047 0.00469532602
v -48.0660525 5.36675764 0.990713791
v -47.7373797 5.43249221 0.990713791
v -47.727989 5.32919504 0.00469532602
v -47.7373797 5.42310156 -0.981323139
v -35.6703918 5.74238373 0.906197922
v -35.6610011 5.65786786 0.00469532602
v -35.6703918 5.74238373 -0.89680727
v -0.183117715 5.79872764 -0.878025966
v -0.183117715 5.72360242 0.00469532602
v -0.183117715 5.79872764 0.887416618
v 35.3041564 5.74238373 -0.89680727
v 35.3041564 5.65786786 0.00469532602
v 35.3041564 5.74238373 0.906197922
v 47.3711442 5.56396134 -0.953151183
v 47.3617536 5.47005482 0.00469532602
v 47.3711442 5.56396134 0.962541835
v 47.7373797 5.49822677 -0.953151183
v 47.7185984 5.40432025 0.00469532602
v 47.7373797 5.49822677 0.962541835
v 48.0942245 5.4137109 -0.953151183
v 48.0754431 5.31980438 0.00469532602
v 48.0942245 5.4137109 0.962541835
v 48.4228973 5.31041373 -0.953151183
v 48.3947253 5.21650721 0.00469532602
v 48.4228973 5.31041373 0.962541835
v 48.6764449 5.22589786 -0.953151183
v 48.6482729 5.13199134 0.00469532602
v 48.6858355 5.22589786 0.962541835
v 52.1228142 3.64826832 -0.962541835
v 52.0852516 3.56375245 0.00469532602
v 52.1228142 3.64826832 0.962541835
v 62.0205614 -0.859244662 -0.934369879
v 61.9829988 -0.943760531 0.00469532602
v 62.0205614 -0.84985401 0.943760531
v 71.908918 -5.44188286 -0.934369879
v 71.8807461 -5.52639873 0.00469532602
v 71.908918 -5.44188286 0.943760531
v 75.4491939 -7.0195124 -0.934369879
v 75.4304126 -7.10402827 0.00469532602
v 75.4491939 -7.0195124 0.943760531
v 75.8436012 -7.07585632 -0.962541835
v 75.8342106 -7.17915349 0.00469532602
v 75.8436012 -7.07585632 0.971932487
v 76.1347115 -7.11341892 -0.962541835
v 76.1253208 -7.20732545 0.00469532602
v 76.1347115 -7.11341892 0.971932487
v 105.104873 -7.20732545 -0.953151183
v 105.104873 -7.29184131 0.00469532602
v 105.104873 -7.20732545 0.962541835
v 191.517653 -7.14159088 -0.915588574
v 191.517653 -7.22610675 0.00469532602
v 191.517653 -7.14159088 0.924979227
v 277.949215 -7.52660761 -1.01888575
v 277.949215 -7.62990479 0.00469532602
v 277.949215 -7.51721696 1.0282764
v 306.985111 -7.48904501 -1.01888575
v 306.97572 -7.60173283 0.00469532602
v 307.445253 -7.30123197 -0.737166186
v 306.985111 -7.48904501 1.01888575
v 307.510987 -7.36696653 0.00469532602
v 307.445253 -7.29184131 0.746556838
v 52.2542833 3.97694114 1.37573052
v 62.0205614 -0.84985401 0.943760531
v 52.1228142 3.64826832 0.962541835
v 48.6858355 5.22589786 0.962541835
v 62.1332493 -0.558743797 1.32877726
v 71.908918 -5.44188286 0.943760531
v 48.807914 5.55457069 1.37573052
v 48.4228973 5.31041373 0.962541835
v 52.423315 4.39952048 1.40390248
v 48.5355851 5.64847721 1.36633987
v 48.0942245 5.4137109 0.962541835
v 48.9675551 5.97715003 1.39451183
v 48.188131 5.75177438 1.36633987
v 47.7373797 5.49822677 0.962541835
v 48.6670542 6.0804472 1.39451183
v 47.8031142 5.8456809 1.36633987
v 47.3711442 5.56396134 0.962541835
v 48.3008188 6.19313502 1.39451183
v 47.4180975 5.91141546 1.36633987
v 35.3041564 5.74238373 0.906197922
v 47.8876301 6.28704154 1.39451183
v 35.3229377 6.01471264 1.23487074
v -0.183117715 5.79872764 0.887416618
v 47.4650508 6.36216676 1.39451183
v -0.183117715 6.05227524 1.18791748
v -35.6703918 5.74238373 0.906197922
v 35.341719 6.39972937 1.2442614
v -35.6797824 6.01471264 1.23487074
v -47.7373797 5.43249221 0.990713791
v -0.183117715 6.41851067 1.19730814
v -47.7749423 5.83629025 1.4790277
v -48.0660525 5.36675764 0.990713791
v -35.6985638 6.39972937 1.2442614
v -48.1411777 5.77055568 1.48841835
v -48.4228973 5.28224178 1.00010444
v -47.8218955 6.35277611 1.52598096
v -48.5261944 5.67664916 1.48841835
v -48.7421794 5.1789446 1.00010444
v -48.2444749 6.28704154 1.53537161
v -48.8736486 5.57335199 1.497809
v -48.9769457 5.09442873 1.00010444
v -48.6576636 6.18374437 1.53537161
v -49.1365868 5.48883612 1.497809
v -52.4045337 3.48862724 1.00949509
v -49.0332897 6.0804472 1.54476226
v -52.5735655 3.88303462 1.53537161
v -62.3116717 -1.00949509 0.981323139
v -49.3243999 5.97715003 1.54476226
v -62.4619221 -0.633869013 1.4790277
v -72.1624656 -5.67664916 1.0282764
v -52.7801598 4.39012983 1.59171552
v -72.3127161 -5.25406982 1.60110617
v -75.7309134 -7.28245066 1.05644836
v -62.6403445 -0.164336411 1.53537161
v -75.8529919 -6.83169936 1.64805943
v -76.1628834 -7.35757588 1.05644836
v -72.5005291 -4.71880265 1.69501269
v -76.2380086 -6.88804328 1.64805943
v -76.5009469 -7.39513849 1.06583901
v -76.012633 -6.26826024 1.74196595
v -76.5197282 -6.91621523 1.64805943
v -105.414765 -7.34818523 1.00949509
v -76.3225245 -6.30582285 1.74196595
v -53.0149261 4.9441783 1.57293422
v -62.8469388 0.370930756 1.53537161
v -72.7071235 -4.10841027 1.70440335
v -76.1816647 -5.6296959 1.75135661
v -49.5403849 6.52180785 1.52598096
v -49.2023214 6.63449567 1.52598096
v -48.7985234 6.7471835 1.52598096
v -48.3477721 6.85048067 1.51659031
v -47.8782395 6.92560588 1.51659031
v -35.7267357 6.86926197 1.25365205
v -0.183117715 6.86926197 1.20669879
v 35.3698909 6.86926197 1.25365205
v 47.5213947 6.86926197 1.39451183
v 47.9815366 6.80352741 1.38512118
v 48.4228973 6.69083958 1.38512118
v 48.8266953 6.57815176 1.38512118
v 49.1459775 6.46546393 1.39451183
v 52.6205187 4.87844374 1.40390248
v 62.2834997 -0.154945759 1.36633987
v 72.0122152 -5.12260069 1.37573052
v 75.5431004 -6.68144893 1.39451183
v 75.4491939 -7.0195124 0.943760531
v 75.8905545 -6.73779284 1.39451183
v 75.8436012 -7.07585632 0.971932487
v 76.1628834 -6.7659648 1.39451183
v 76.1347115 -7.11341892 0.971932487
v 105.123654 -6.82230871 1.44146509
v 105.104873 -7.20732545 0.962541835
v 191.527044 -6.81291806 1.31938661
v 191.517653 -7.14159088 0.924979227
v 277.949215 -7.02890306 1.61988748
v 277.949215 -7.51721696 1.0282764
v 306.985111 -7.48904501 1.01888575
v 307.003892 -7.02890306 1.57293422
v 307.445253 -7.29184131 0.746556838
v 277.949215 -6.44668263 1.70440335
v 191.536434 -6.38094807 1.36633987
v 105.133045 -6.34338546 1.48841835
v 76.1910554 -6.30582285 1.44146509
v 75.9562891 -6.28704154 1.44146509
v 75.6557882 -6.24008828 1.45085574
v 72.153075 -4.70002135 1.43207444
v 62.4619221 0.323977496 1.38512118
v 52.8083318 5.32919504 1.00949509
v 49.3243999 6.92560588 1.00010444
v 48.9675551 7.03829371 1.00010444
v 48.5449758 7.16037219 1.00010444
v 48.0660525 7.27306001 1.00010444
v 47.5777386 7.34818523 1.00949509
v 35.3886722 7.26366936 0.934369879
v -0.183117715 7.2354974 0.915588574
v 35.3980629 7.39513849 0.00469532602
v -35.745517 7.26366936 0.934369879
v 47.5965199 7.49843566 0.00469532602
v -0.183117715 7.35757588 0.00469532602
v -47.9251927 7.4702637 1.0470577
v 35.3886722 7.26366936 -0.924979227
v -48.4510692 7.39513849 1.0470577
v -48.9393831 7.28245066 1.0470577
v -48.4792412 7.54538892 0.00469532602
v -47.943974 7.62990479 0.00469532602
v -35.7549077 7.39513849 0.00469532602
v -49.3713531 7.16976284 1.05644836
v -48.9769457 7.44209175 0.00469532602
v -48.4604599 7.40452914 -1.0470577
v -49.7469792 7.04768436 1.05644836
v -49.4183064 7.32001327 0.00469532602
v -53.2403018 5.48883612 1.07522966
v -0.183117715 7.2354974 -0.906197922
v -47.9251927 7.47965435 -1.0470577
v -48.9393831 7.29184131 -1.0470577
v -49.8033231 7.19793479 0.00469532602
v -63.0535332 0.887416618 1.06583901
v -35.745517 7.27306001 -0.924979227
v -49.3807438 7.17915349 -1.0470577
v -53.3060363 5.64847721 0.00469532602
v -72.9324991 -3.50740854 1.15035488
v -49.7469792 7.05707501 -1.0470577
v -63.1098771 1.0282764 0.00469532602
v -53.2496924 5.49822677 -1.06583901
v -35.7267357 6.86926197 -1.25365205
v -47.8782395 6.92560588 -1.51659031
v -0.183117715 6.86926197 -1.19730814
v -48.3571627 6.85048067 -1.51659031
v 35.3698909 6.86926197 -1.2442614
v -48.7985234 6.7471835 -1.52598096
v -49.211712 6.63449567 -1.52598096
v -49.5403849 6.52180785 -1.52598096
v -35.6985638 6.39972937 -1.2442614
v -0.183117715 6.41851067 -1.18791748
v -47.8218955 6.35277611 -1.52598096
v -48.2444749 6.28704154 -1.53537161
v -48.6576636 6.18374437 -1.53537161
v -49.0332897 6.07105655 -1.54476226
v 35.341719 6.39972937 -1.23487074
v -53.0149261 4.95356895 -1.58232487
v -49.3243999 5.97715003 -1.54476226
v -63.0535332 0.89680727 -1.05644836
v -72.9794524 -3.34776745 0.00469532602
v -76.3600871 -4.99113156 1.19730814
v -76.4070404 -5.64847721 1.74196595
v -76.5572908 -6.32460415 1.74196595
v -105.424155 -6.89743393 1.56354357
v -191.677294 -6.86926197 1.43207444
v -191.667904 -7.25427871 0.953151183
v -277.986777 -6.91621523 1.42268378
v -277.986777 -7.30123197 0.953151183
v -307.11658 -7.14159088 0.915588574
v -307.135361 -6.85048067 1.2630427
v -307.435862 -7.06646566 0.680822273
v -277.996168 -6.42790133 1.46963705
v -191.677294 -6.39033872 1.4790277
v -105.442936 -6.35277611 1.63866878
v -76.5948534 -5.66725851 1.74196595
v -76.4821656 -4.98174091 1.18791748
v -76.4070404 -4.81270917 0.00469532602
v -72.9324991 -3.49801789 -1.14096422
v -62.8469388 0.380321408 -1.54476226
v -52.7801598 4.39012983 -1.59171552
v -191.686685 -5.83629025 1.497809
v -105.461718 -5.73299307 1.63866878
v -76.632416 -5.00052221 1.17852683
v -76.4915562 -4.80331852 0.00469532602
v -76.3600871 -4.98174091 -1.18791748
v -72.7165141 -4.09901962 -1.70440335
v -62.6403445 -0.164336411 -1.53537161
v -277.996168 -5.88324351 1.4790277
v -307.135361 -6.43729198 1.29121466
v -307.55794 -6.84109002 0.924979227
v -307.708191 -6.83169936 0.00469532602
v -307.539159 -7.13220023 0.00469532602
v -307.567331 -6.84109002 -0.915588574
v -307.435862 -7.06646566 -0.671431621
v -307.11658 -7.15098153 -0.906197922
v -307.135361 -6.85048067 -1.25365205
v -277.986777 -7.30123197 -0.943760531
v -307.567331 -6.43729198 -0.934369879
v -307.708191 -6.42790133 0.00469532602
v -307.567331 -6.43729198 0.943760531
v -307.135361 -5.94897807 1.30999596
v -277.986777 -6.91621523 -1.41329313
v -191.667904 -7.25427871 -0.943760531
v -307.135361 -6.43729198 -1.281824
v -307.567331 -5.95836872 -0.953151183
v -307.708191 -5.95836872 0.00469532602
v -191.677294 -6.86926197 -1.42268378
v -105.414765 -7.34818523 -1.00010444
v -277.996168 -6.42790133 -1.46024639
v -307.135361 -5.94897807 -1.30060531
v -105.424155 -6.89743393 -1.55415291
v -76.5009469 -7.40452914 -1.05644836
v -191.677294 -6.39033872 -1.4790277
v -76.5197282 -6.92560588 -1.64805943
v -76.1628834 -7.36696653 -1.05644836
v -307.567331 -5.95836872 0.953151183
v -307.454643 -5.63908655 -0.708994229
v -277.996168 -5.88324351 -1.46963705
v -105.442936 -6.35277611 -1.62927813
v -76.2380086 -6.89743393 -1.64805943
v -75.7215228 -7.28245066 -1.0470577
v -307.55794 -5.53578938 0.00469532602
v -307.12597 -5.51700808 -0.962541835
v -191.686685 -5.83629025 -1.48841835
v -76.5572908 -6.33399481 -1.74196595
v -75.8529919 -6.83169936 -1.63866878
v -72.1624656 -5.68603981 -1.01888575
v -307.11658 -5.3761483 0.00469532602
v -277.996168 -5.33858569 -1.01888575
v -105.461718 -5.72360242 -1.63866878
v -76.3225245 -6.30582285 -1.74196595
v -72.3127161 -5.25406982 -1.60110617
v -62.302281 -1.00949509 -0.971932487
v -277.996168 -5.19772591 0.00469532602
v -191.696076 -5.29163243 -1.0282764
v -76.5948534 -5.66725851 -1.74196595
v -76.012633 -6.26826024 -1.74196595
v -62.4525314 -0.643259665 -1.4790277
v -52.4045337 3.47923658 -1.00010444
v -191.696076 -5.15077265 0.00469532602
v -105.480499 -5.10381939 -1.10340162
v -76.416431 -5.64847721 -1.74196595
v -72.5005291 -4.71880265 -1.69501269
v -52.5735655 3.88303462 -1.53537161
v -48.9769457 5.08503808 -0.990713791
v -105.48989 -4.95356895 0.00469532602
v -76.632416 -4.99113156 -1.17852683
v -76.1816647 -5.62030525 -1.75135661
v -76.4821656 -4.98174091 -1.17852683
v -49.1271962 5.47944547 -1.497809
v -48.7421794 5.16955395 -0.990713791
v -76.6418067 -4.81270917 0.00469532602
v -48.8642579 5.57335199 -1.497809
v -48.4135066 5.27285112 -0.990713791
v -105.480499 -5.11321004 1.11279227
v -48.5261944 5.67664916 -1.48841835
v -48.0660525 5.36675764 -0.990713791
v -191.696076 -5.29163243 1.03766705
v -48.1411777 5.77055568 -1.48841835
v -47.7373797 5.42310156 -0.981323139
v -277.996168 -5.33858569 1.0282764
v -47.7749423 5.83629025 -1.4790277
v -35.6703918 5.74238373 -0.89680727
v -307.12597 -5.51700808 0.971932487
v -307.454643 -5.63908655 0.718384882
v -35.6797824 6.01471264 -1.22548009
v -0.183117715 5.79872764 -0.878025966
v -0.183117715 6.05227524 -1.17852683
v 35.3041564 5.74238373 -0.89680727
v 35.3229377 6.01471264 -1.22548009
v 47.3711442 5.56396134 -0.953151183
v 47.4180975 5.91141546 -1.35694922
v 47.7373797 5.49822677 -0.953151183
v 47.4650508 6.36216676 -1.38512118
v 47.8031142 5.8456809 -1.35694922
v 48.0942245 5.4137109 -0.953151183
v 47.5213947 6.87865262 -1.38512118
v 48.188131 5.75177438 -1.36633987
v 48.4228973 5.31041373 -0.953151183
v 47.8876301 6.28704154 -1.38512118
v 47.5777386 7.34818523 -1.00010444
v 48.5261944 5.64847721 -1.36633987
v 48.6764449 5.22589786 -0.953151183
v 48.3008188 6.19313502 -1.38512118
v 47.9815366 6.80352741 -1.38512118
v 48.0942245 7.41391979 0.00469532602
v 48.807914 5.55457069 -1.36633987
v 52.1228142 3.64826832 -0.962541835
v 48.6670542 6.0804472 -1.38512118
v 48.0660525 7.27306001 -0.990713791
v 48.4228973 6.69083958 -1.38512118
v 48.5825384 7.31062262 0.00469532602
v 48.5449758 7.16037219 -0.990713791
v 48.8266953 6.57815176 -1.38512118
v 48.9675551 5.97715003 -1.39451183
v 49.0145084 7.17915349 0.00469532602
v 48.9675551 7.03829371 -0.990713791
v 49.3713531 7.06646566 0.00469532602
v 49.1459775 6.47485459 -1.38512118
v 49.3243999 6.92560588 -0.990713791
v 52.2542833 3.97694114 -1.36633987
v 52.8646757 5.47005482 0.00469532602
v 52.423315 4.39952048 -1.39451183
v 52.8083318 5.32919504 -1.00949509
v 52.6205187 4.88783439 -1.39451183
v 62.1332493 -0.558743797 -1.31938661
v 62.0205614 -0.859244662 -0.934369879
v 62.6215632 0.746556838 1.00949509
v 62.2834997 -0.154945759 -1.35694922
v 62.4619221 0.323977496 -1.37573052
v 62.6685164 0.878025966 0.00469532602
v 62.6215632 0.746556838 -1.00010444
v 72.0122152 -5.12260069 -1.36633987
v 71.908918 -5.44188286 -0.934369879
v 75.4491939 -7.0195124 -0.934369879
v 72.3127161 -4.20231679 1.45085574
v 72.153075 -4.70002135 -1.42268378
v 75.5431004 -6.68144893 -1.38512118
v 75.8436012 -7.07585632 -0.962541835
v 72.4629665 -3.73278419 1.03766705
v 72.5099198 -3.60131506 0.00469532602
v 75.7778667 -5.72360242 1.46963705
v 72.3127161 -4.20231679 -1.44146509
v 72.4629665 -3.73278419 -1.0282764
v 75.6557882 -6.24008828 -1.44146509
v 75.9093358 -5.24467917 1.0470577
v 76.0220236 -5.76116503 1.46024639
v 75.9375078 -5.11321004 0.00469532602
v 75.9093358 -5.24467917 -1.03766705
v 75.7778667 -5.72360242 -1.46024639
v 75.8905545 -6.73779284 -1.38512118
v 76.1347115 -7.11341892 -0.962541835
v 75.9562891 -6.28704154 -1.43207444
v 76.1628834 -6.7659648 -1.38512118
v 105.104873 -7.20732545 -0.953151183
v 76.0220236 -5.76116503 -1.45085574
v 76.0877582 -5.26346047 -1.0470577
v 105.123654 -6.82230871 -1.42268378
v 191.517653 -7.14159088 -0.915588574
v 76.1910554 -6.30582285 -1.43207444
v 191.527044 -6.81291806 -1.31938661
v 277.949215 -7.52660761 -1.01888575
v 76.2380086 -5.77994633 -1.45085574
v 105.133045 -6.34338546 -1.4790277
v 76.0971489 -5.11321004 0.00469532602
v 277.949215 -7.03829371 -1.61988748
v 306.985111 -7.48904501 -1.01888575
v 191.536434 -6.38094807 -1.35694922
v 105.151826 -5.78933699 -1.48841835
v 76.2661806 -5.28224178 -1.0470577
v 76.0877582 -5.26346047 1.05644836
v 307.003892 -7.02890306 -1.57293422
v 307.445253 -7.30123197 -0.737166186
v 277.949215 -6.44668263 -1.70440335
v 191.545825 -5.87385285 -1.36633987
v 76.2755712 -5.13199134 0.00469532602
v 105.170608 -5.24467917 -1.03766705
v 76.2661806 -5.28224178 1.05644836
v 307.595503 -6.91621523 -1.00949509
v 307.510987 -7.36696653 0.00469532602
v 307.003892 -6.45607328 -1.64805943
v 277.949215 -5.78933699 -1.69501269
v 307.6988 -6.87865262 0.00469532602
v 307.614284 -6.43729198 -1.0282764
v 307.595503 -6.91621523 1.01888575
v 105.179998 -5.10381939 0.00469532602
v 191.545825 -5.40432025 -0.990713791
v 307.003892 -5.81750894 -1.63866878
v 307.708191 -6.43729198 0.00469532602
v 307.003892 -6.45607328 1.64805943
v 191.555216 -5.27285112 0.00469532602
v 277.958605 -5.12260069 -1.12218292
v 307.614284 -6.43729198 1.03766705
v 277.949215 -5.78933699 1.69501269
v 307.003892 -5.81750894 1.64805943
v 307.604894 -5.90202481 1.0470577
v 191.545825 -5.87385285 1.37573052
v 277.958605 -5.12260069 1.13157357
v 105.151826 -5.78933699 1.50719965
v 307.708191 -5.93019677 0.00469532602
v 306.994501 -5.18833526 1.12218292
v 191.545825 -5.40432025 1.00010444
v 76.2380086 -5.77994633 1.45085574
v 105.170608 -5.24467917 1.0470577
v 277.958605 -4.95356895 0.00469532602
v 306.985111 -5.00991287 0.00469532602
v 307.492206 -5.45127351 0.793510098
v 306.994501 -5.1789446 -1.11279227
v 307.55794 -5.34797634 0.00469532602
v 307.614284 -5.90202481 -1.03766705
v 307.492206 -5.45127351 -0.784119446
vt 0.786980282 0.15634281
vt 0.786980282 0.15709001
vt 0.786980282 0.15709001
vt 0.786980282 0.15634281
vt 0.786980282 0.155595609
vt 0.760081054 0.159331613
vt 0.786980282 0.155595609
vt 0.760081054 0.158584412
vt 0.680130568 0.164562018
vt 0.760081054 0.157837211
vt 0.680130568 0.163814817
vt 0.600180083 0.169792424
vt 0.680130568 0.163067617
vt 0.600180083 0.169045223
vt 0.573280854 0.172034026
vt 0.600180083 0.168298022
vt 0.573280854 0.170539625
vt 0.573280854 0.172034026
vt 0.573280854 0.169792424
vt 0.573280854 0.170539625
vt 0.572533654 0.172034026
vt 0.573280854 0.169792424
vt 0.572533654 0.170539625
vt 0.56879765 0.172034026
vt 0.572533654 0.169792424
vt 0.56879765 0.171286825
vt 0.559084039 0.172781227
vt 0.56879765 0.169792424
vt 0.559084039 0.171286825
vt 0.548623228 0.173528428
vt 0.559084039 0.170539625
vt 0.548623228 0.172034026
vt 0.545634425 0.173528428
vt 0.548623228 0.171286825
vt 0.545634425 0.172781227
vt 0.544887224 0.173528428
vt 0.545634425 0.171286825
vt 0.544887224 0.172781227
vt 0.544887224 0.173528428
vt 0.544887224 0.171286825
vt 0.544887224 0.172781227
vt 0.544887224 0.171286825
vt 0.544887224 0.173528428
vt 0.544140023 0.172781227
vt 0.544140023 0.172034026
vt 0.544140023 0.172034026
vt 0.544140023 0.172781227
vt 0.544140023 0.173528428
vt 0.532932011 0.172781227
vt 0.532932011 0.173528428
vt 0.532932011 0.174275629
vt 0.500055176 0.176517231
vt 0.500055176 0.17577003
vt 0.500055176 0.175022829
vt 0.467178341 0.178758833
vt 0.467178341 0.178011633
vt 0.467178341 0.176517231
vt 0.455970329 0.179506034
vt 0.455970329 0.178758833
vt 0.455970329 0.177264432
vt 0.455970329 0.179506034
vt 0.455970329 0.178758833
vt 0.455970329 0.177264432
vt 0.455223128 0.179506034
vt 0.455223128 0.178758833
vt 0.455223128 0.177264432
vt 0.455223128 0.179506034
vt 0.455223128 0.178758833
vt 0.455223128 0.177264432
vt 0.455223128 0.179506034
vt 0.455223128 0.178758833
vt 0.454475928 0.178011633
vt 0.451487124 0.179506034
vt 0.451487124 0.178758833
vt 0.451487124 0.178011633
vt 0.441026313 0.180253235
vt 0.441026313 0.179506034
vt 0.441026313 0.178758833
vt 0.431312703 0.181000436
vt 0.431312703 0.180253235
vt 0.431312703 0.179506034
vt 0.427576699 0.181000436
vt 0.427576699 0.180253235
vt 0.427576699 0.179506034
vt 0.427576699 0.181000436
vt 0.427576699 0.180253235
vt 0.427576699 0.179506034
vt 0.426829498 0.181000436
vt 0.426829498 0.180253235
vt 0.426829498 0.179506034
vt 0.399930269 0.183242038
vt 0.399930269 0.182494837
vt 0.399930269 0.181000436
vt 0.319979784 0.188472444
vt 0.319979784 0.187725243
vt 0.319979784 0.186978042
vt 0.240029299 0.193702849
vt 0.240029299 0.192955649
vt 0.240029299 0.192208448
vt 0.21313007 0.195944452
vt 0.21313007 0.19445005
vt 0.21313007 0.195197251
vt 0.21313007 0.193702849
vt 0.21313007 0.19445005
vt 0.21313007 0.193702849
vt 0.556842437 0.0644371115
vt 0.566556047 0.0629427099
vt 0.556842437 0.0636899107
vt 0.553106433 0.0644371115
vt 0.566556047 0.0629427099
vt 0.577016858 0.0614483083
vt 0.553106433 0.0651843123
vt 0.552359232 0.0644371115
vt 0.556842437 0.0651843123
vt 0.553106433 0.0651843123
vt 0.552359232 0.0644371115
vt 0.553106433 0.0651843123
vt 0.552359232 0.0651843123
vt 0.551612031 0.0644371115
vt 0.553106433 0.0651843123
vt 0.551612031 0.0651843123
vt 0.551612031 0.0644371115
vt 0.552359232 0.0651843123
vt 0.551612031 0.0651843123
vt 0.540404019 0.0666787139
vt 0.552359232 0.0659315131
vt 0.540404019 0.0666787139
vt 0.507527184 0.0711619186
vt 0.551612031 0.0659315131
vt 0.507527184 0.0719091194
vt 0.474650349 0.0756451234
vt 0.540404019 0.0674259147
vt 0.474650349 0.0763923242
vt 0.463442337 0.077139525
vt 0.507527184 0.0719091194
vt 0.463442337 0.077139525
vt 0.462695136 0.077139525
vt 0.474650349 0.0763923242
vt 0.463442337 0.0778867258
vt 0.462695136 0.077139525
vt 0.463442337 0.0778867258
vt 0.462695136 0.0778867258
vt 0.461947936 0.077139525
vt 0.463442337 0.0778867258
vt 0.461947936 0.0778867258
vt 0.461947936 0.077139525
vt 0.462695136 0.0778867258
vt 0.461947936 0.0778867258
vt 0.458211932 0.077139525
vt 0.462695136 0.0778867258
vt 0.458211932 0.0778867258
vt 0.448498321 0.0786339266
vt 0.461947936 0.0778867258
vt 0.448498321 0.0793811274
vt 0.43803751 0.0801283282
vt 0.458211932 0.0786339266
vt 0.43803751 0.080875529
vt 0.435048707 0.0801283282
vt 0.448498321 0.0801283282
vt 0.435048707 0.080875529
vt 0.434301506 0.0801283282
vt 0.43803751 0.080875529
vt 0.434301506 0.080875529
vt 0.434301506 0.0801283282
vt 0.435048707 0.0816227298
vt 0.434301506 0.080875529
vt 0.407402277 0.084611533
vt 0.435048707 0.0816227298
vt 0.458211932 0.0793811274
vt 0.448498321 0.080875529
vt 0.438784711 0.0816227298
vt 0.435048707 0.0823699306
vt 0.461947936 0.0786339266
vt 0.462695136 0.0786339266
vt 0.462695136 0.0786339266
vt 0.463442337 0.0786339266
vt 0.463442337 0.0786339266
vt 0.474650349 0.077139525
vt 0.507527184 0.0726563202
vt 0.540404019 0.0681731155
vt 0.551612031 0.0659315131
vt 0.552359232 0.0659315131
vt 0.552359232 0.0659315131
vt 0.553106433 0.0659315131
vt 0.553106433 0.0659315131
vt 0.556842437 0.0651843123
vt 0.566556047 0.0636899107
vt 0.577016858 0.0614483083
vt 0.580005662 0.0607011075
vt 0.580005662 0.0607011075
vt 0.580005662 0.0607011075
vt 0.580005662 0.0607011075
vt 0.580752862 0.0607011075
vt 0.580752862 0.0607011075
vt 0.60690489 0.0569651035
vt 0.60690489 0.0569651035
vt 0.686855375 0.0465042923
vt 0.686855375 0.0457570915
vt 0.766805861 0.0345490796
vt 0.766805861 0.0338018788
vt 0.793705089 0.0308130756
vt 0.793705089 0.0315602764
vt 0.79445229 0.0323074772
vt 0.766805861 0.0352962804
vt 0.686855375 0.0465042923
vt 0.607652091 0.0577123043
vt 0.580752862 0.0614483083
vt 0.580752862 0.0614483083
vt 0.580005662 0.0614483083
vt 0.577016858 0.0621955091
vt 0.566556047 0.0636899107
vt 0.556842437 0.0659315131
vt 0.553106433 0.0666787139
vt 0.553106433 0.0666787139
vt 0.552359232 0.0666787139
vt 0.552359232 0.0666787139
vt 0.551612031 0.0666787139
vt 0.540404019 0.0681731155
vt 0.507527184 0.0726563202
vt 0.540404019 0.0689203163
vt 0.474650349 0.0778867258
vt 0.551612031 0.0674259147
vt 0.507527184 0.0741507218
vt 0.463442337 0.0793811274
vt 0.54115122 0.0704147179
vt 0.463442337 0.0793811274
vt 0.462695136 0.0793811274
vt 0.463442337 0.0801283282
vt 0.464189538 0.0801283282
vt 0.474650349 0.0786339266
vt 0.462695136 0.0793811274
vt 0.462695136 0.0801283282
vt 0.463442337 0.080875529
vt 0.461947936 0.0793811274
vt 0.462695136 0.0801283282
vt 0.458959132 0.0801283282
vt 0.508274385 0.0748979226
vt 0.464189538 0.080875529
vt 0.463442337 0.080875529
vt 0.461947936 0.0801283282
vt 0.448498321 0.080875529
vt 0.47539755 0.0793811274
vt 0.462695136 0.080875529
vt 0.458959132 0.080875529
vt 0.438784711 0.0823699306
vt 0.462695136 0.0816227298
vt 0.448498321 0.0823699306
vt 0.458959132 0.0816227298
vt 0.47539755 0.0801283282
vt 0.464189538 0.0816227298
vt 0.508274385 0.0748979226
vt 0.463442337 0.0816227298
vt 0.54115122 0.0704147179
vt 0.463442337 0.0816227298
vt 0.462695136 0.0816227298
vt 0.462695136 0.0816227298
vt 0.47539755 0.0801283282
vt 0.508274385 0.0756451234
vt 0.464189538 0.0823699306
vt 0.463442337 0.0823699306
vt 0.463442337 0.0823699306
vt 0.462695136 0.0823699306
vt 0.54115122 0.0711619186
vt 0.458959132 0.0823699306
vt 0.462695136 0.0823699306
vt 0.449245522 0.0831171314
vt 0.438784711 0.0838643322
vt 0.435048707 0.0831171314
vt 0.435048707 0.0823699306
vt 0.434301506 0.0816227298
vt 0.408149478 0.0853587338
vt 0.328198993 0.0965667458
vt 0.328198993 0.095819545
vt 0.248248508 0.107774758
vt 0.248248508 0.107774758
vt 0.221349279 0.112257962
vt 0.22209648 0.112257962
vt 0.221349279 0.113005163
vt 0.248248508 0.108521959
vt 0.328198993 0.0973139465
vt 0.408149478 0.0853587338
vt 0.434301506 0.0823699306
vt 0.435048707 0.0831171314
vt 0.435048707 0.0838643322
vt 0.438784711 0.084611533
vt 0.449245522 0.0838643322
vt 0.458959132 0.0831171314
vt 0.328198993 0.0973139465
vt 0.408149478 0.0861059346
vt 0.435048707 0.0831171314
vt 0.435048707 0.0838643322
vt 0.435048707 0.0853587338
vt 0.438784711 0.0853587338
vt 0.449245522 0.084611533
vt 0.248248508 0.109269159
vt 0.22209648 0.113005163
vt 0.221349279 0.113005163
vt 0.221349279 0.114499565
vt 0.221349279 0.114499565
vt 0.22209648 0.115993966
vt 0.221349279 0.115993966
vt 0.22209648 0.116741167
vt 0.22284368 0.116741167
vt 0.248995708 0.113752364
vt 0.22209648 0.115993966
vt 0.221349279 0.114499565
vt 0.22209648 0.113005163
vt 0.22209648 0.113005163
vt 0.248995708 0.113005163
vt 0.328946194 0.102544352
vt 0.22284368 0.115993966
vt 0.22209648 0.115246766
vt 0.22209648 0.114499565
vt 0.328946194 0.101797151
vt 0.408896679 0.0913363402
vt 0.248995708 0.113005163
vt 0.22284368 0.115993966
vt 0.408896679 0.0905891394
vt 0.435048707 0.088347537
vt 0.328946194 0.101049951
vt 0.435048707 0.0876003362
vt 0.435795908 0.088347537
vt 0.22209648 0.113752364
vt 0.22284368 0.115246766
vt 0.248995708 0.112257962
vt 0.408896679 0.0905891394
vt 0.435795908 0.0876003362
vt 0.435795908 0.0876003362
vt 0.22209648 0.114499565
vt 0.22284368 0.115246766
vt 0.328946194 0.101049951
vt 0.435048707 0.0868531354
vt 0.435795908 0.0876003362
vt 0.439531912 0.0876003362
vt 0.22284368 0.114499565
vt 0.248995708 0.111510762
vt 0.408149478 0.0898419386
vt 0.435795908 0.0868531354
vt 0.438784711 0.0868531354
vt 0.449245522 0.0853587338
vt 0.248995708 0.110763561
vt 0.328946194 0.10030275
vt 0.435048707 0.0861059346
vt 0.435795908 0.0868531354
vt 0.449245522 0.084611533
vt 0.458959132 0.084611533
vt 0.328198993 0.0995555489
vt 0.408149478 0.0890947378
vt 0.435048707 0.0861059346
vt 0.438784711 0.0861059346
vt 0.458959132 0.0838643322
vt 0.462695136 0.0838643322
vt 0.408149478 0.088347537
vt 0.435048707 0.0853587338
vt 0.435795908 0.0861059346
vt 0.435048707 0.0853587338
vt 0.462695136 0.0831171314
vt 0.463442337 0.0838643322
vt 0.435048707 0.0838643322
vt 0.462695136 0.0831171314
vt 0.463442337 0.0831171314
vt 0.408149478 0.0868531354
vt 0.463442337 0.0831171314
vt 0.464189538 0.0831171314
vt 0.328198993 0.0980611473
vt 0.464189538 0.0831171314
vt 0.464189538 0.0831171314
vt 0.248995708 0.11001636
vt 0.464189538 0.0823699306
vt 0.47539755 0.080875529
vt 0.22284368 0.113752364
vt 0.22209648 0.113752364
vt 0.47539755 0.080875529
vt 0.508274385 0.0763923242
vt 0.508274385 0.0756451234
vt 0.54115122 0.0719091194
vt 0.54115122 0.0711619186
vt 0.552359232 0.0704147179
vt 0.552359232 0.0696675171
vt 0.552359232 0.0704147179
vt 0.552359232 0.0696675171
vt 0.552359232 0.0696675171
vt 0.553106433 0.0704147179
vt 0.552359232 0.0689203163
vt 0.553106433 0.0696675171
vt 0.553106433 0.0704147179
vt 0.552359232 0.0696675171
vt 0.552359232 0.0681731155
vt 0.553106433 0.0696675171
vt 0.553853634 0.0704147179
vt 0.553106433 0.0696675171
vt 0.552359232 0.0689203163
vt 0.552359232 0.0674259147
vt 0.553853634 0.0696675171
vt 0.557589638 0.0696675171
vt 0.553106433 0.0696675171
vt 0.552359232 0.0681731155
vt 0.553106433 0.0689203163
vt 0.553106433 0.0674259147
vt 0.553106433 0.0681731155
vt 0.553106433 0.0689203163
vt 0.553853634 0.0696675171
vt 0.553106433 0.0674259147
vt 0.553106433 0.0681731155
vt 0.553853634 0.0674259147
vt 0.553853634 0.0689203163
vt 0.553853634 0.0681731155
vt 0.557589638 0.0696675171
vt 0.556842437 0.0666787139
vt 0.557589638 0.0689203163
vt 0.556842437 0.0681731155
vt 0.556842437 0.0681731155
vt 0.567303248 0.0681731155
vt 0.567303248 0.0681731155
vt 0.566556047 0.0644371115
vt 0.567303248 0.0674259147
vt 0.567303248 0.0666787139
vt 0.567303248 0.0651843123
vt 0.567303248 0.0666787139
vt 0.577764059 0.0666787139
vt 0.577764059 0.0666787139
vt 0.580752862 0.0666787139
vt 0.577016858 0.0621955091
vt 0.577016858 0.0659315131
vt 0.580752862 0.0659315131
vt 0.581500063 0.0666787139
vt 0.577016858 0.0629427099
vt 0.577016858 0.0644371115
vt 0.580005662 0.0621955091
vt 0.577016858 0.0659315131
vt 0.577016858 0.0651843123
vt 0.580752862 0.0659315131
vt 0.580752862 0.0629427099
vt 0.580752862 0.0621955091
vt 0.580752862 0.0636899107
vt 0.580752862 0.0644371115
vt 0.580752862 0.0651843123
vt 0.580752862 0.0659315131
vt 0.581500063 0.0666787139
vt 0.580752862 0.0659315131
vt 0.581500063 0.0659315131
vt 0.607652091 0.0629427099
vt 0.580752862 0.0651843123
vt 0.580752862 0.0644371115
vt 0.607652091 0.0621955091
vt 0.687602576 0.0517346979
vt 0.581500063 0.0659315131
vt 0.687602576 0.0509874971
vt 0.767553062 0.0412738868
vt 0.581500063 0.0651843123
vt 0.607652091 0.0621955091
vt 0.580752862 0.0636899107
vt 0.767553062 0.040526686
vt 0.79445229 0.036790682
vt 0.687602576 0.0509874971
vt 0.607652091 0.0614483083
vt 0.580752862 0.0644371115
vt 0.580752862 0.0621955091
vt 0.79445229 0.036790682
vt 0.795199491 0.0352962804
vt 0.767553062 0.0397794852
vt 0.687602576 0.0502402963
vt 0.580752862 0.0636899107
vt 0.607652091 0.0607011075
vt 0.580752862 0.0621955091
vt 0.79445229 0.0352962804
vt 0.795199491 0.0338018788
vt 0.793705089 0.0360434812
vt 0.767553062 0.0397794852
vt 0.795199491 0.0338018788
vt 0.79445229 0.0352962804
vt 0.79445229 0.0323074772
vt 0.607652091 0.0599539067
vt 0.687602576 0.0494930955
vt 0.793705089 0.0352962804
vt 0.79445229 0.0338018788
vt 0.792957889 0.0315602764
vt 0.687602576 0.0487458947
vt 0.767553062 0.0390322844
vt 0.793705089 0.0323074772
vt 0.766805861 0.0360434812
vt 0.792957889 0.0323074772
vt 0.793705089 0.033054678
vt 0.687602576 0.0472514931
vt 0.767553062 0.036790682
vt 0.607652091 0.0584595051
vt 0.79445229 0.0338018788
vt 0.792957889 0.033054678
vt 0.687602576 0.0479986939
vt 0.580752862 0.0621955091
vt 0.607652091 0.0592067059
vt 0.767553062 0.0375378828
vt 0.792957889 0.0338018788
vt 0.793705089 0.033054678
vt 0.793705089 0.0352962804
vt 0.793705089 0.0338018788
vt 0.793705089 0.0352962804
vt 0.793705089 0.0345490796
vn -0.584201433 -0.811608702 -0
vn -0.0117646161 -0.952933906 -0.302949772
vn -0.552936958 -0.803915435 -0.219044958
vn -0.0117638918 -0.999930803 -0
vn -0.552936958 -0.803915435 0.219044958
vn -0.00392153871 -0.945090829 -0.326784252
vn -0.0117646161 -0.952933906 0.302949772
vn -0.00392153847 -0.999992311 -0
vn -0.00392153871 -0.945090829 -0.326784252
vn -0.00392153871 -0.945090829 0.326784252
vn -0.00392153847 -0.999992311 -0
vn -0.00392153871 -0.945090829 -0.326784252
vn -0.00392153871 -0.945090829 0.326784252
vn -0.00392153847 -0.999992311 -0
vn -0.00392153871 -0.945090829 -0.326784252
vn -0.00392153871 -0.945090829 0.326784252
vn -0.00392153847 -0.999992311 -0
vn 0.145096932 -0.937247751 -0.317038693
vn -0.00392153871 -0.945090829 0.326784252
vn 0.15294001 -0.984306216 0.0880376456
vn 0.372546177 -0.874503132 -0.310569828
vn 0.145096932 -0.937247751 0.317038693
vn 0.388232309 -0.921561541 -0
vn 0.403918487 -0.858816977 -0.315092456
vn 0.372546177 -0.874503132 0.310569828
vn 0.426739521 -0.90437458 -0
vn 0.39607541 -0.858816977 -0.324896399
vn 0.403918487 -0.858816977 0.315092456
vn 0.419604642 -0.905875442 0.0576335743
vn 0.39607541 -0.858816977 -0.324896399
vn 0.39607541 -0.858816977 0.324896399
vn 0.419604642 -0.905875442 0.0576335743
vn 0.39607541 -0.858816977 -0.324896399
vn 0.39607541 -0.858816977 0.324896399
vn 0.419604642 -0.905875442 0.0576335743
vn 0.294115403 -0.898032364 -0.327160515
vn 0.39607541 -0.8509739 0.344916935
vn 0.317644635 -0.945090829 -0.0768453717
vn 0.262743093 -0.905875442 -0.332198361
vn 0.294115403 -0.890189287 0.347935574
vn 0.278343635 -0.960481557 -0
vn 0.262743093 -0.905875442 0.332198361
vn 0.215684629 -0.921561596 -0.322807009
vn 0.223143683 -0.974785564 -0
vn 0.215684629 -0.913718519 0.344381487
vn 0.0352938484 -0.952933906 0.301116779
vn 0.0352721557 -0.999377744 -0
vn 0.0352938484 -0.952933906 -0.301116779
vn 0.0117646161 -0.960776984 0.277072521
vn 0.0117638918 -0.999930803 -0
vn 0.0117646161 -0.960776984 -0.277072521
vn -0.00392153871 -0.960776984 -0.277294445
vn -0.00392153847 -0.999992311 -0
vn -0.00392153871 -0.960776984 0.277294445
vn -0.00392153871 -0.960776984 -0.277294445
vn -0.00392153847 -0.999992311 -0
vn -0.00392153871 -0.960776984 0.277294445
vn -0.0196076935 -0.952933906 -0.3025434
vn -0.0196040749 -0.999807822 -0
vn -0.0196076935 -0.952933906 0.3025434
vn -0.199998474 -0.929404674 -0.310173439
vn -0.207841552 -0.976463138 0.0576335743
vn -0.199998474 -0.929404674 0.310173439
vn -0.247056939 -0.913718519 -0.322616393
vn -0.26179466 -0.965123596 -0
vn -0.247056939 -0.913718519 0.322616393
vn -0.286272326 -0.905875442 -0.312150348
vn -0.301958481 -0.952933906 0.0271670136
vn -0.286272326 -0.905875442 0.312150348
vn -0.388232332 -0.866660055 -0.313330506
vn -0.410852712 -0.911701732 -0
vn -0.388232332 -0.866660055 0.313330506
vn -0.39607541 -0.866660055 -0.3033556
vn -0.410852712 -0.911701732 -0
vn -0.39607541 -0.866660055 0.3033556
vn -0.39607541 -0.866660055 -0.3033556
vn -0.419604642 -0.905875442 0.0576335743
vn -0.39607541 -0.866660055 0.3033556
vn -0.39607541 -0.866660055 -0.3033556
vn -0.419604642 -0.905875442 0.0576335743
vn -0.39607541 -0.866660055 0.3033556
vn -0.3647031 -0.882346209 -0.297416906
vn -0.380389255 -0.921561596 0.0776417341
vn -0.3647031 -0.882346209 0.297416906
vn -0.137253855 -0.945090829 -0.296588444
vn -0.14470579 -0.989474726 -0
vn -0.137253855 -0.945090829 0.296588444
vn -0.00392153871 -0.952933906 -0.303152754
vn -0.00392153847 -0.999992311 -0
vn -0.00392153871 -0.952933906 0.303152754
vn -0.00392153871 -0.952933906 -0.303152754
vn -0.00392153847 -0.999992311 -0
vn -0.00392153871 -0.952933906 0.303152754
vn -0.00392153871 -0.952933906 -0.303152754
vn -0.00392153847 -0.999992311 -0
vn -0.00392153871 -0.945090829 0.326784252
vn -0.00392153871 -0.945090829 -0.326784252
vn -0.00392153847 -0.999992311 -0
vn -0.00392153871 -0.945090829 0.326784252
vn 0.0117646161 -0.937247751 -0.34846556
vn 0.00392153847 -0.999992311 -0
vn 0.678426197 -0.694112351 -0.240719629
vn 0.0117646161 -0.937247751 0.34846556
vn 0.694112351 -0.717641584 0.056556177
vn 0.678426197 -0.694112351 0.240719629
vn -0.199998474 -0.435290797 0.877794129
vn -0.39607541 -0.866660055 0.3033556
vn -0.39607541 -0.866660055 0.3033556
vn -0.388232332 -0.866660055 0.313330506
vn -0.207841552 -0.450976951 0.867998663
vn -0.39607541 -0.866660055 0.3033556
vn -0.192155397 -0.419604642 0.887134853
vn -0.286272326 -0.905875442 0.312150348
vn -0.0117646161 -0.0352938484 0.999307729
vn -0.137253855 -0.427447719 0.893560198
vn -0.247056939 -0.913718519 0.322616393
vn -0.0117646161 -0.0196076935 0.999738532
vn -0.1215677 -0.435290797 0.892044403
vn -0.199998474 -0.929404674 0.310173439
vn -0.0117646161 -0.0117646161 0.999861584
vn -0.0901953903 -0.443133874 0.891906476
vn -0.0196076935 -0.952933906 0.3025434
vn -0.00392153871 -0.0196076935 0.99980006
vn -0.0196076935 -0.443133874 0.896240988
vn -0.00392153871 -0.960776984 0.277294445
vn -0.00392153871 -0.0196076935 0.99980006
vn -0.00392153871 -0.450976951 0.89252698
vn -0.00392153871 -0.960776984 0.277294445
vn -0.0117646161 -0.0196076935 0.999738532
vn -0.00392153871 -0.450976951 0.89252698
vn 0.0117646161 -0.960776984 0.277072521
vn -0.00392153871 -0.027450771 0.999615464
vn 0.0117646161 -0.458820029 0.888451335
vn 0.0352938484 -0.952933906 0.301116779
vn 0.00392153871 -0.027450771 0.999615464
vn 0.027450771 -0.466663106 0.88400905
vn 0.215684629 -0.913718519 0.344381487
vn 0.00392153871 -0.027450771 0.999615464
vn 0.113724623 -0.466663106 0.877093071
vn 0.262743093 -0.905875442 0.332198361
vn 0.0196076935 -0.027450771 0.999430835
vn 0.137253855 -0.458820029 0.877864204
vn 0.294115403 -0.890189287 0.347935574
vn 0.0196076935 -0.0196076935 0.999615464
vn 0.160783087 -0.450976951 0.877934273
vn 0.39607541 -0.8509739 0.344916935
vn 0.0196076935 -0.0196076935 0.999615464
vn 0.215684629 -0.443133874 0.870122124
vn 0.39607541 -0.858816977 0.324896399
vn 0.0196076935 -0.0196076935 0.999615464
vn 0.207841552 -0.466663106 0.859667049
vn 0.39607541 -0.858816977 0.324896399
vn 0.0196076935 -0.0196076935 0.999615464
vn 0.223527706 -0.474506184 0.851398406
vn 0.403918487 -0.858816977 0.315092456
vn 0.0196076935 -0.0352938484 0.999184609
vn 0.239213861 -0.498035416 0.83350912
vn 0.372546177 -0.874503132 0.310569828
vn 0.027450771 -0.0509800032 0.99832234
vn 0.231370784 -0.529407726 0.816207707
vn 0.145096932 -0.937247751 0.317038693
vn 0.0431369258 -0.066666158 0.996842429
vn 0.0823523129 -0.568623113 0.818465547
vn -0.00392153871 -0.945090829 0.326784252
vn 0.0431369258 -0.0823523129 0.995669274
vn -0.00392153871 -0.54509388 0.838365841
vn -0.00392153871 -0.945090829 0.326784252
vn 0.00392153871 -0.0901953903 0.995916369
vn -0.168626164 0.356860022 0.918812354
vn -0.160783087 0.356860022 0.920217215
vn -0.145096932 0.349016945 0.925815345
vn -0.129410777 0.325487713 0.9366486
vn -0.15294001 0.372546177 0.915324368
vn -0.113724623 0.39607541 0.911148166
vn -0.0901953903 0.39607541 0.913777359
vn -0.066666158 0.403918487 0.912362581
vn 0.0196076935 0.388232332 0.921352915
vn 0.00392153871 0.349016945 0.937108208
vn 0.00392153871 0.33333079 0.942801785
vn -0.00392153871 0.341173868 0.939992028
vn -0.00392153871 0.372546177 0.92800537
vn 0.0745092355 0.372546177 0.925017686
vn 0.0980384677 0.372546177 0.92282057
vn 0.105881545 0.3647031 0.925084184
vn 0.15294001 0.349016945 0.924552068
vn 0.15294001 0.325487713 0.933095441
vn -0.027450771 -0.0509800032 0.99832234
vn -0.223527706 -0.482349261 0.846979666
vn -0.215684629 -0.513721571 0.83040369
vn -0.3647031 -0.882346209 0.297416906
vn -0.0745092355 -0.529407726 0.845089246
vn -0.137253855 -0.945090829 0.296588444
vn -0.00392153871 -0.529407726 0.848358463
vn -0.00392153871 -0.952933906 0.303152754
vn 0.00392153871 -0.513721571 0.857947999
vn -0.00392153871 -0.952933906 0.303152754
vn -0.00392153871 -0.513721571 0.857947999
vn -0.00392153871 -0.945090829 0.326784252
vn -0.00392153871 -0.521564648 0.853202754
vn -0.00392153871 -0.945090829 0.326784252
vn 0.0117646161 -0.937247751 0.34846556
vn 0.0117646161 -0.521564648 0.853130653
vn 0.678426197 -0.694112351 0.240719629
vn -0.00392153871 -0.0588230806 0.998260721
vn -0.00392153871 -0.0588230806 0.998260721
vn 0.00392153871 -0.0588230806 0.998260721
vn -0.00392153871 -0.066666158 0.997767631
vn 0.00392153871 -0.0745092355 0.997212613
vn -0.0352938484 -0.0745092355 0.996595564
vn -0.0352938484 -0.066666158 0.997150925
vn 0.145096932 0.325487713 0.934347167
vn 0.388232332 0.827444667 0.405722785
vn 0.372546177 0.835287745 0.404355944
vn 0.270586171 0.874503132 0.402526268
vn 0.223527706 0.882346209 0.414126226
vn 0.176469242 0.898032364 0.402984466
vn -0.00392153871 0.921561596 0.388212372
vn -0.00392153871 0.921561596 0.388212372
vn -0.00392153871 0.921561596 0.388212372
vn -0.00392153847 0.999992311 -0
vn 0.00392153871 0.921561596 0.388212372
vn -0.00392153847 0.999992311 -0
vn -0.00392153847 0.999992311 -0
vn 0.0117646161 0.913718519 0.406177377
vn -0.00392153871 0.921561596 -0.388212372
vn -0.160783087 0.898032364 0.409495631
vn -0.215684629 0.882346209 0.418264638
vn -0.176469231 0.984306157 -0
vn 0.0117638918 0.999930803 -0
vn 0.00392153847 0.999992311 -0
vn -0.254900016 0.874503132 0.412638164
vn -0.239213861 0.968620061 0.0674678157
vn -0.160783087 0.898032364 -0.409495631
vn -0.356860022 0.827444667 0.433573808
vn -0.28555303 0.95836291 -0
vn -0.380389255 0.81960159 0.428435816
vn 0.00392153871 0.921561596 -0.388212372
vn 0.0117646161 0.921561596 -0.388053885
vn -0.215684629 0.882346209 -0.418264638
vn -0.394862771 0.918740111 -0
vn -0.372546177 0.827444667 0.420172189
vn 0.00392153871 0.921561596 -0.388212372
vn -0.254900016 0.874503132 -0.412638164
vn -0.419604642 0.905875442 0.0576335743
vn -0.3647031 0.827444667 0.426997624
vn -0.356860022 0.835287745 -0.418264638
vn -0.411761564 0.905875442 0.0992073505
vn -0.380389255 0.81960159 -0.428435816
vn 0.00392153871 0.349016945 -0.937108208
vn 0.0196076935 0.388232332 -0.921352915
vn 0.00392153871 0.33333079 -0.942801785
vn -0.066666158 0.411761564 -0.908849843
vn -0.00392153871 0.341173868 -0.939992028
vn -0.0901953903 0.403918487 -0.910337656
vn -0.113724623 0.39607541 -0.911148166
vn -0.15294001 0.380389255 -0.912092851
vn 0.00392153871 -0.027450771 -0.999615464
vn 0.00392153871 -0.027450771 -0.999615464
vn 0.0196076935 -0.027450771 -0.999430835
vn 0.0196076935 -0.027450771 -0.999430835
vn 0.0196076935 -0.0196076935 -0.999615464
vn 0.0196076935 -0.0196076935 -0.999615464
vn -0.00392153871 -0.027450771 -0.999615464
vn -0.168626164 0.3647031 -0.915727506
vn 0.0196076935 -0.0196076935 -0.999615464
vn -0.372546177 0.827444667 -0.420172189
vn -0.403918487 0.913718519 0.0443657964
vn -0.341173868 0.827444667 0.446022101
vn -0.0431369258 0.325487713 0.944561779
vn -0.00392153871 -0.0745092355 0.997212613
vn -0.00392153871 -0.529407726 0.848358463
vn -0.00392153871 -0.521564648 0.853202754
vn -0.00392153871 -0.945090829 0.326784252
vn -0.00392153871 -0.513721571 0.857947999
vn -0.00392153871 -0.945090829 0.326784252
vn -0.0117646161 -0.952933906 0.302949772
vn -0.0117646161 -0.490192339 0.87153489
vn -0.552936958 -0.803915435 0.219044958
vn -0.00392153871 -0.0588230806 0.998260721
vn -0.00392153871 -0.0588230806 0.998260721
vn -0.00392153871 -0.066666158 0.997767631
vn -0.00392153871 0.380389255 0.924818164
vn -0.0509800032 0.874503132 0.482333196
vn -0.380389255 0.921561596 0.0776417341
vn -0.3647031 0.827444667 -0.426997624
vn -0.160783087 0.356860022 -0.920217215
vn 0.0196076935 -0.0352938484 -0.999184609
vn -0.00392153871 0.380389255 0.924818164
vn -0.00392153871 0.380389255 0.924818164
vn -0.00392153871 0.898032364 0.439911917
vn -0.0352721557 0.999377744 -0
vn -0.341173868 0.827444667 -0.446022101
vn -0.145096932 0.356860022 -0.92282057
vn 0.027450771 -0.0509800032 -0.99832234
vn -0.00392153871 0.372546177 0.92800537
vn -0.0196076935 -0.0509800032 0.998507175
vn -0.866660055 -0.278429248 0.413977661
vn -0.974785564 -0.223143683 -0
vn -0.584201433 -0.811608702 -0
vn -0.866660055 -0.278429248 -0.413977661
vn -0.552936958 -0.803915435 -0.219044958
vn -0.0117646161 -0.952933906 -0.302949772
vn -0.0117646161 -0.490192339 -0.87153489
vn -0.00392153871 -0.945090829 -0.326784252
vn -0.913718519 -0.0196076935 -0.405874373
vn -0.999992311 -0.00392153847 -0
vn -0.913718519 -0.0196076935 0.405874373
vn -0.0117646161 0.349016945 0.937042564
vn -0.00392153871 -0.513721571 -0.857947999
vn -0.00392153871 -0.945090829 -0.326784252
vn -0.0196076935 -0.0509800032 -0.998507175
vn -0.882346209 0.199998474 -0.425988001
vn -0.984306216 0.160783087 0.0727328847
vn -0.00392153871 -0.521564648 -0.853202754
vn -0.00392153871 -0.945090829 -0.326784252
vn -0.00392153871 -0.0588230806 -0.998260721
vn -0.0117646161 0.349016945 -0.937042564
vn -0.00392153871 -0.529407726 -0.848358463
vn -0.00392153871 -0.945090829 -0.326784252
vn -0.00392153871 -0.0588230806 -0.998260721
vn -0.00392153871 -0.54509388 -0.838365841
vn 0.145096932 -0.937247751 -0.317038693
vn -0.882346209 0.199998474 0.425988001
vn -0.678426197 0.686269274 -0.262244885
vn -0.00392153871 0.372546177 -0.92800537
vn -0.00392153871 -0.066666158 -0.997767631
vn 0.0823523129 -0.568623113 -0.818465547
vn 0.372546177 -0.874503132 -0.310569828
vn -0.701955429 0.709798506 0.0586911971
vn -0.0117646161 0.913718519 -0.406177377
vn -0.00392153871 0.380389255 -0.924818164
vn -0.00392153871 -0.0745092355 -0.997212613
vn 0.231370784 -0.529407726 -0.816207707
vn 0.403918487 -0.858816977 -0.315092456
vn -0.0117638918 0.999930803 -0
vn -0.00392153871 0.905875442 -0.423526039
vn -0.00392153871 0.380389255 -0.924818164
vn 0.00392153871 -0.0901953903 -0.995916369
vn 0.239213861 -0.498035416 -0.83350912
vn 0.39607541 -0.858816977 -0.324896399
vn -0.00392153847 0.999992311 -0
vn -0.00392153871 0.905875442 -0.423526039
vn -0.00392153871 0.380389255 -0.924818164
vn 0.0431369258 -0.0823523129 -0.995669274
vn 0.223527706 -0.482349261 -0.846979666
vn 0.39607541 -0.858816977 -0.324896399
vn -0.00392153847 0.999992311 -0
vn -0.00392153871 0.905875442 -0.423526039
vn -0.0509800032 0.325487713 -0.944170953
vn 0.0431369258 -0.066666158 -0.996842429
vn 0.215684629 -0.466663106 -0.857732876
vn 0.39607541 -0.858816977 -0.324896399
vn -0.00392153847 0.999992311 -0
vn -0.00392153871 0.898032364 -0.439911917
vn -0.129410777 0.33333079 -0.9338862
vn -0.0509800032 0.882346209 -0.467831386
vn 0.215684629 -0.450976951 -0.866083097
vn 0.294115403 -0.898032364 -0.327160515
vn -0.00392153847 0.999992311 -0
vn 0.160783087 -0.458820029 -0.873860962
vn 0.262743093 -0.905875442 -0.332198361
vn -0.00392153871 0.905875442 0.423526039
vn 0.137253855 -0.466663106 -0.873720164
vn 0.215684629 -0.921561596 -0.322807009
vn -0.00392153871 0.905875442 0.423526039
vn 0.113724623 -0.466663106 -0.877093071
vn 0.0352938484 -0.952933906 -0.301116779
vn -0.00392153871 0.905875442 0.423526039
vn 0.027450771 -0.466663106 -0.88400905
vn 0.0117646161 -0.960776984 -0.277072521
vn -0.0117646161 0.913718519 0.406177377
vn -0.678426197 0.686269274 0.262244885
vn 0.0117646161 -0.458820029 -0.888451335
vn -0.00392153871 -0.960776984 -0.277294445
vn 0.00392153871 -0.458820029 -0.88852057
vn -0.00392153871 -0.960776984 -0.277294445
vn -0.00392153871 -0.450976951 -0.89252698
vn -0.0196076935 -0.952933906 -0.3025434
vn -0.0196076935 -0.443133874 -0.896240988
vn -0.199998474 -0.929404674 -0.310173439
vn -0.0117646161 -0.0196076935 -0.999738532
vn -0.0901953903 -0.443133874 -0.891906476
vn -0.247056939 -0.913718519 -0.322616393
vn -0.00392153871 0.372546177 -0.92800537
vn -0.1215677 -0.435290797 -0.892044403
vn -0.286272326 -0.905875442 -0.312150348
vn -0.00392153871 -0.0196076935 -0.99980006
vn -0.00392153871 0.921561596 -0.388212372
vn -0.137253855 -0.435290797 -0.889765869
vn -0.388232332 -0.866660055 -0.313330506
vn -0.00392153871 -0.0196076935 -0.99980006
vn 0.0745092355 0.372546177 -0.925017686
vn 0.191602233 0.981472661 -0
vn -0.192155397 -0.419604642 -0.887134853
vn -0.39607541 -0.866660055 -0.3033556
vn -0.0117646161 -0.0117646161 -0.999861584
vn 0.176469242 0.898032364 -0.402984466
vn 0.0980384677 0.372546177 -0.92282057
vn 0.247056939 0.968620061 0.0271670136
vn 0.223527706 0.882346209 -0.414126226
vn 0.105881545 0.3647031 -0.925084184
vn -0.0117646161 -0.0196076935 -0.999738532
vn 0.294115403 0.952933906 0.0735737741
vn 0.270586171 0.874503132 -0.402526268
vn 0.403918487 0.913718519 0.0443657964
vn 0.15294001 0.349016945 -0.924552068
vn 0.372546177 0.835287745 -0.404355944
vn -0.199998474 -0.435290797 -0.877794129
vn 0.419604642 0.905875442 0.0576335743
vn -0.0117646161 -0.0352938484 -0.999307729
vn 0.388232332 0.827444667 -0.405722785
vn 0.15294001 0.325487713 -0.933095441
vn -0.207841552 -0.458820029 -0.863878505
vn -0.39607541 -0.866660055 -0.3033556
vn 0.380389255 0.835287745 0.396986647
vn -0.027450771 -0.0509800032 -0.99832234
vn 0.145096932 0.325487713 -0.934347167
vn 0.419604642 0.905875442 0.0576335743
vn 0.380389255 0.835287745 -0.396986647
vn -0.223527706 -0.482349261 -0.846979666
vn -0.39607541 -0.866660055 -0.3033556
vn -0.3647031 -0.882346209 -0.297416906
vn 0.137253855 0.317644635 0.938223462
vn -0.0352938484 -0.066666158 -0.997150925
vn -0.215684629 -0.513721571 -0.83040369
vn -0.137253855 -0.945090829 -0.296588444
vn 0.372546177 0.835287745 0.404355944
vn 0.410852712 0.911701732 -0
vn 0.1215677 0.301958481 0.945538138
vn 0.137253855 0.317644635 -0.938223462
vn 0.372546177 0.835287745 -0.404355944
vn -0.0352938484 -0.0745092355 -0.996595564
vn 0.349016945 0.843130822 0.409044727
vn 0.0509800032 0.309801558 0.949433533
vn 0.388232309 0.921561541 -0
vn 0.349016945 0.843130822 -0.409044727
vn 0.1215677 0.301958481 -0.945538138
vn -0.0745092355 -0.529407726 -0.845089246
vn -0.00392153871 -0.952933906 -0.303152754
vn 0.00392153871 -0.0745092355 -0.997212613
vn -0.00392153871 -0.529407726 -0.848358463
vn -0.00392153871 -0.952933906 -0.303152754
vn 0.0509800032 0.309801558 -0.949433533
vn 0.0823523129 0.890189287 -0.448086075
vn 0.00392153871 -0.513721571 -0.857947999
vn -0.00392153871 -0.952933906 -0.303152754
vn -0.00392153871 -0.066666158 -0.997767631
vn -0.00392153871 -0.513721571 -0.857947999
vn -0.00392153871 -0.945090829 -0.326784252
vn -0.00392153871 0.349016945 -0.937108208
vn 0.00392153871 -0.0588230806 -0.998260721
vn 0.0901953903 0.992149293 -0.0866289305
vn -0.00392153871 -0.521564648 -0.853202754
vn 0.0117646161 -0.937247751 -0.34846556
vn -0.00392153871 -0.0588230806 -0.998260721
vn 0.00392153871 0.356860022 -0.934149638
vn -0.00392153871 0.905875442 -0.423526039
vn 0.0823523129 0.890189287 0.448086075
vn 0.0117646161 -0.521564648 -0.853130653
vn 0.678426197 -0.694112351 -0.240719629
vn -0.00392153871 -0.0588230806 -0.998260721
vn -0.00392153871 0.372546177 -0.92800537
vn -0.00392153847 0.999992311 -0
vn 0.00392153871 0.913718519 -0.406328795
vn -0.00392153871 0.905875442 0.423526039
vn 0.866660055 -0.278429248 -0.413977661
vn 0.694112351 -0.717641584 0.056556177
vn 0.0196076935 -0.0588230806 -0.998075841
vn -0.00392153871 0.388232332 -0.921553188
vn 0.981472661 -0.191602233 -0
vn 0.905875442 -0.027450771 -0.422653687
vn 0.866660055 -0.278429248 0.413977661
vn 0.00392153847 0.999992311 -0
vn -0.00392153871 0.905875442 -0.423526039
vn 0.0196076935 0.388232332 -0.921352915
vn 0.999930803 -0.0117638918 -0
vn 0.0196076935 -0.0588230806 0.998075841
vn -0.00392153847 0.999992311 -0
vn -0.00392153871 0.905875442 -0.423526039
vn 0.905875442 -0.027450771 0.422653687
vn -0.00392153871 0.380389255 0.924818164
vn 0.0196076935 0.388232332 0.921352915
vn 0.882346209 0.199998474 0.425988001
vn -0.00392153871 0.372546177 0.92800537
vn -0.00392153871 0.905875442 0.423526039
vn 0.00392153871 0.3647031 0.931115605
vn 0.991600411 0.129339184 -0
vn 0.0117646161 0.898032364 0.439772062
vn -0.00392153871 0.905875442 0.423526039
vn -0.00392153871 0.349016945 0.937108208
vn 0.00392153871 0.913718519 0.406328795
vn -0.00392153847 0.999992311 -0
vn 0.0117638918 0.999930803 -0
vn 0.756856971 0.599995422 0.259177582
vn 0.0117646161 0.898032364 -0.439772062
vn 0.764700048 0.639210809 0.0815069169
vn 0.882346209 0.199998474 -0.425988001
vn 0.756856971 0.599995422 -0.259177582
g handrail_snow1_0
f 3/3/3 2/2/2 1/1/1
f 2/2/2 4/4/4 1/1/1
f 1/1/1 4/4/4 5/5/5
f 2/2/2 6/6/6 4/4/4
f 4/4/4 7/7/7 5/5/5
f 6/6/6 8/8/8 4/4/4
f 4/4/4 8/8/8 7/7/7
f 8/8/8 6/6/6 9/9/9
f 8/8/8 10/10/10 7/7/7
f 11/11/11 8/8/8 9/9/9
f 10/10/10 8/8/8 11/11/11
f 11/11/11 9/9/9 12/12/12
f 13/13/13 10/10/10 11/11/11
f 14/14/14 11/11/11 12/12/12
f 13/13/13 11/11/11 14/14/14
f 12/12/12 15/15/15 14/14/14
f 16/16/16 13/13/13 14/14/14
f 15/15/15 17/17/17 14/14/14
f 14/14/14 17/17/17 16/16/16
f 15/15/15 18/18/18 17/17/17
f 17/17/17 19/19/19 16/16/16
f 18/18/18 20/20/20 17/17/17
f 17/17/17 20/20/20 19/19/19
f 18/18/18 21/21/21 20/20/20
f 20/20/20 22/22/22 19/19/19
f 21/21/21 23/23/23 20/20/20
f 20/20/20 23/23/23 22/22/22
f 21/21/21 24/24/24 23/23/23
f 23/23/23 25/25/25 22/22/22
f 24/24/24 26/26/26 23/23/23
f 23/23/23 26/26/26 25/25/25
f 24/24/24 27/27/27 26/26/26
f 26/26/26 28/28/28 25/25/25
f 27/27/27 29/29/29 26/26/26
f 26/26/26 29/29/29 28/28/28
f 27/27/27 30/30/30 29/29/29
f 29/29/29 31/31/31 28/28/28
f 30/30/30 32/32/32 29/29/29
f 29/29/29 32/32/32 31/31/31
f 32/32/32 30/30/30 33/33/33
f 32/32/32 34/34/34 31/31/31
f 35/35/35 32/32/32 33/33/33
f 34/34/34 32/32/32 35/35/35
f 35/35/35 33/33/33 36/36/36
f 37/37/37 34/34/34 35/35/35
f 38/38/38 35/35/35 36/36/36
f 37/37/37 35/35/35 38/38/38
f 38/38/38 36/36/36 39/39/39
f 40/40/40 37/37/37 38/38/38
f 41/41/41 38/38/38 39/39/39
f 40/40/40 38/38/38 41/41/41
f 42/42/42 40/40/40 41/41/41
f 41/41/41 39/39/39 43/43/43
f 42/42/42 41/41/41 44/44/44
f 44/44/44 41/41/41 43/43/43
f 45/45/45 42/42/42 44/44/44
f 45/45/45 44/44/44 46/46/46
f 44/44/44 43/43/43 47/47/47
f 44/44/44 47/47/47 46/46/46
f 43/43/43 48/48/48 47/47/47
f 46/46/46 47/47/47 49/49/49
f 47/47/47 48/48/48 50/50/50
f 47/47/47 50/50/50 49/49/49
f 48/48/48 51/51/51 50/50/50
f 51/51/51 52/52/52 50/50/50
f 50/50/50 53/53/53 49/49/49
f 52/52/52 53/53/53 50/50/50
f 53/53/53 54/54/54 49/49/49
f 52/52/52 55/55/55 53/53/53
f 53/53/53 56/56/56 54/54/54
f 55/55/55 56/56/56 53/53/53
f 56/56/56 57/57/57 54/54/54
f 55/55/55 58/58/58 56/56/56
f 56/56/56 59/59/59 57/57/57
f 58/58/58 59/59/59 56/56/56
f 59/59/59 60/60/60 57/57/57
f 58/58/58 61/61/61 59/59/59
f 59/59/59 62/62/62 60/60/60
f 61/61/61 62/62/62 59/59/59
f 62/62/62 63/63/63 60/60/60
f 61/61/61 64/64/64 62/62/62
f 62/62/62 65/65/65 63/63/63
f 64/64/64 65/65/65 62/62/62
f 65/65/65 66/66/66 63/63/63
f 64/64/64 67/67/67 65/65/65
f 65/65/65 68/68/68 66/66/66
f 67/67/67 68/68/68 65/65/65
f 68/68/68 69/69/69 66/66/66
f 67/67/67 70/70/70 68/68/68
f 68/68/68 71/71/71 69/69/69
f 70/70/70 71/71/71 68/68/68
f 71/71/71 72/72/72 69/69/69
f 70/70/70 73/73/73 71/71/71
f 71/71/71 74/74/74 72/72/72
f 73/73/73 74/74/74 71/71/71
f 74/74/74 75/75/75 72/72/72
f 73/73/73 76/76/76 74/74/74
f 74/74/74 77/77/77 75/75/75
f 76/76/76 77/77/77 74/74/74
f 77/77/77 78/78/78 75/75/75
f 76/76/76 79/79/79 77/77/77
f 77/77/77 80/80/80 78/78/78
f 79/79/79 80/80/80 77/77/77
f 80/80/80 81/81/81 78/78/78
f 79/79/79 82/82/82 80/80/80
f 80/80/80 83/83/83 81/81/81
f 82/82/82 83/83/83 80/80/80
f 83/83/83 84/84/84 81/81/81
f 82/82/82 85/85/85 83/83/83
f 83/83/83 86/86/86 84/84/84
f 85/85/85 86/86/86 83/83/83
f 86/86/86 87/87/87 84/84/84
f 85/85/85 88/88/88 86/86/86
f 86/86/86 89/89/89 87/87/87
f 88/88/88 89/89/89 86/86/86
f 89/89/89 90/90/90 87/87/87
f 88/88/88 91/91/91 89/89/89
f 89/89/89 92/92/92 90/90/90
f 91/91/91 92/92/92 89/89/89
f 92/92/92 93/93/93 90/90/90
f 91/91/91 94/94/94 92/92/92
f 92/92/92 95/95/95 93/93/93
f 94/94/94 95/95/95 92/92/92
f 95/95/95 96/96/96 93/93/93
f 94/94/94 97/97/97 95/95/95
f 95/95/95 98/98/98 96/96/96
f 97/97/97 98/98/98 95/95/95
f 98/98/98 99/99/99 96/96/96
f 98/98/98 97/97/97 100/100/100
f 99/99/99 98/98/98 101/101/101
f 101/101/101 98/98/98 100/100/100
f 101/101/101 100/100/100 102/102/102
f 103/103/103 99/99/99 101/101/101
f 104/104/104 101/101/101 102/102/102
f 103/103/103 101/101/101 104/104/104
f 105/105/105 103/103/103 104/104/104
f 108/108/108 107/107/107 106/106/106
f 108/108/108 106/106/106 109/109/109
f 107/107/107 110/110/110 106/106/106
f 107/107/107 111/111/111 110/110/110
f 106/106/106 112/112/112 109/109/109
f 109/109/109 112/112/112 113/113/113
f 106/106/106 110/110/110 114/114/114
f 106/106/106 114/114/114 112/112/112
f 112/112/112 115/115/115 113/113/113
f 113/113/113 115/115/115 116/116/116
f 114/114/114 117/117/117 112/112/112
f 112/112/112 117/117/117 115/115/115
f 115/115/115 118/118/118 116/116/116
f 116/116/116 118/118/118 119/119/119
f 117/117/117 120/120/120 115/115/115
f 115/115/115 120/120/120 118/118/118
f 118/118/118 121/121/121 119/119/119
f 119/119/119 121/121/121 122/122/122
f 120/120/120 123/123/123 118/118/118
f 118/118/118 123/123/123 121/121/121
f 121/121/121 124/124/124 122/122/122
f 122/122/122 124/124/124 125/125/125
f 123/123/123 126/126/126 121/121/121
f 121/121/121 126/126/126 124/124/124
f 124/124/124 127/127/127 125/125/125
f 125/125/125 127/127/127 128/128/128
f 126/126/126 129/129/129 124/124/124
f 124/124/124 129/129/129 127/127/127
f 127/127/127 130/130/130 128/128/128
f 128/128/128 130/130/130 131/131/131
f 129/129/129 132/132/132 127/127/127
f 127/127/127 132/132/132 130/130/130
f 130/130/130 133/133/133 131/131/131
f 131/131/131 133/133/133 134/134/134
f 132/132/132 135/135/135 130/130/130
f 130/130/130 135/135/135 133/133/133
f 133/133/133 136/136/136 134/134/134
f 134/134/134 136/136/136 137/137/137
f 135/135/135 138/138/138 133/133/133
f 133/133/133 138/138/138 136/136/136
f 136/136/136 139/139/139 137/137/137
f 137/137/137 139/139/139 140/140/140
f 138/138/138 141/141/141 136/136/136
f 136/136/136 141/141/141 139/139/139
f 139/139/139 142/142/142 140/140/140
f 140/140/140 142/142/142 143/143/143
f 141/141/141 144/144/144 139/139/139
f 139/139/139 144/144/144 142/142/142
f 142/142/142 145/145/145 143/143/143
f 143/143/143 145/145/145 146/146/146
f 144/144/144 147/147/147 142/142/142
f 142/142/142 147/147/147 145/145/145
f 145/145/145 148/148/148 146/146/146
f 146/146/146 148/148/148 149/149/149
f 147/147/147 150/150/150 145/145/145
f 145/145/145 150/150/150 148/148/148
f 148/148/148 151/151/151 149/149/149
f 152/152/152 149/149/149 151/151/151
f 150/150/150 153/153/153 148/148/148
f 148/148/148 153/153/153 151/151/151
f 154/154/154 152/152/152 151/151/151
f 155/155/155 152/152/152 154/154/154
f 153/153/153 156/156/156 151/151/151
f 154/154/154 151/151/151 156/156/156
f 157/157/157 155/155/155 154/154/154
f 155/155/155 157/157/157 158/158/158
f 159/159/159 154/154/154 156/156/156
f 157/157/157 154/154/154 159/159/159
f 157/157/157 160/160/160 158/158/158
f 158/158/158 160/160/160 161/161/161
f 162/162/162 157/157/157 159/159/159
f 157/157/157 162/162/162 160/160/160
f 160/160/160 163/163/163 161/161/161
f 161/161/161 163/163/163 164/164/164
f 162/162/162 165/165/165 160/160/160
f 160/160/160 165/165/165 163/163/163
f 163/163/163 166/166/166 164/164/164
f 164/164/164 166/166/166 167/167/167
f 165/165/165 168/168/168 163/163/163
f 163/163/163 168/168/168 166/166/166
f 159/159/159 156/156/156 169/169/169
f 162/162/162 159/159/159 170/170/170
f 170/170/170 159/159/159 169/169/169
f 162/162/162 171/171/171 165/165/165
f 171/171/171 162/162/162 170/170/170
f 165/165/165 172/172/172 168/168/168
f 171/171/171 172/172/172 165/165/165
f 173/173/173 169/169/169 156/156/156
f 153/153/153 173/173/173 156/156/156
f 174/174/174 173/173/173 153/153/153
f 150/150/150 174/174/174 153/153/153
f 175/175/175 174/174/174 150/150/150
f 147/147/147 175/175/175 150/150/150
f 176/176/176 175/175/175 147/147/147
f 144/144/144 176/176/176 147/147/147
f 177/177/177 176/176/176 144/144/144
f 141/141/141 177/177/177 144/144/144
f 178/178/178 177/177/177 141/141/141
f 138/138/138 178/178/178 141/141/141
f 179/179/179 178/178/178 138/138/138
f 135/135/135 179/179/179 138/138/138
f 180/180/180 179/179/179 135/135/135
f 132/132/132 180/180/180 135/135/135
f 181/181/181 180/180/180 132/132/132
f 129/129/129 181/181/181 132/132/132
f 182/182/182 181/181/181 129/129/129
f 126/126/126 182/182/182 129/129/129
f 183/183/183 182/182/182 126/126/126
f 123/123/123 183/183/183 126/126/126
f 184/184/184 183/183/183 123/123/123
f 120/120/120 184/184/184 123/123/123
f 185/185/185 184/184/184 120/120/120
f 117/117/117 185/185/185 120/120/120
f 186/186/186 185/185/185 117/117/117
f 114/114/114 186/186/186 117/117/117
f 114/114/114 187/187/187 186/186/186
f 110/110/110 187/187/187 114/114/114
f 110/110/110 188/188/188 187/187/187
f 111/111/111 188/188/188 110/110/110
f 189/189/189 188/188/188 111/111/111
f 190/190/190 189/189/189 111/111/111
f 191/191/191 189/189/189 190/190/190
f 192/192/192 191/191/191 190/190/190
f 193/193/193 191/191/191 192/192/192
f 194/194/194 193/193/193 192/192/192
f 195/195/195 193/193/193 194/194/194
f 196/196/196 195/195/195 194/194/194
f 197/197/197 195/195/195 196/196/196
f 198/198/198 197/197/197 196/196/196
f 199/199/199 197/197/197 198/198/198
f 200/200/200 199/199/199 198/198/198
f 200/200/200 201/201/201 199/199/199
f 201/201/201 202/202/202 199/199/199
f 201/201/201 203/203/203 202/202/202
f 199/199/199 204/204/204 197/197/197
f 199/199/199 202/202/202 204/204/204
f 197/197/197 205/205/205 195/195/195
f 204/204/204 205/205/205 197/197/197
f 195/195/195 206/206/206 193/193/193
f 205/205/205 206/206/206 195/195/195
f 193/193/193 207/207/207 191/191/191
f 206/206/206 207/207/207 193/193/193
f 207/207/207 208/208/208 191/191/191
f 191/191/191 208/208/208 189/189/189
f 208/208/208 209/209/209 189/189/189
f 189/189/189 209/209/209 188/188/188
f 209/209/209 210/210/210 188/188/188
f 188/188/188 210/210/210 187/187/187
f 187/187/187 210/210/210 211/211/211
f 187/187/187 211/211/211 186/186/186
f 186/186/186 211/211/211 212/212/212
f 186/186/186 212/212/212 185/185/185
f 212/212/212 213/213/213 185/185/185
f 185/185/185 213/213/213 184/184/184
f 213/213/213 214/214/214 184/184/184
f 184/184/184 214/214/214 183/183/183
f 214/214/214 215/215/215 183/183/183
f 183/183/183 215/215/215 182/182/182
f 215/215/215 216/216/216 182/182/182
f 182/182/182 216/216/216 181/181/181
f 216/216/216 217/217/217 181/181/181
f 181/181/181 217/217/217 180/180/180
f 217/217/217 218/218/218 180/180/180
f 180/180/180 218/218/218 179/179/179
f 218/218/218 219/219/219 179/179/179
f 179/179/179 219/219/219 178/178/178
f 218/218/218 217/217/217 220/220/220
f 218/218/218 220/220/220 219/219/219
f 219/219/219 221/221/221 178/178/178
f 178/178/178 221/221/221 177/177/177
f 217/217/217 216/216/216 222/222/222
f 217/217/217 222/222/222 220/220/220
f 220/220/220 223/223/223 219/219/219
f 219/219/219 223/223/223 221/221/221
f 221/221/221 224/224/224 177/177/177
f 177/177/177 224/224/224 176/176/176
f 220/220/220 222/222/222 225/225/225
f 220/220/220 225/225/225 223/223/223
f 224/224/224 226/226/226 176/176/176
f 176/176/176 226/226/226 175/175/175
f 226/226/226 227/227/227 175/175/175
f 175/175/175 227/227/227 174/174/174
f 228/228/228 226/226/226 224/224/224
f 227/227/227 226/226/226 228/228/228
f 229/229/229 224/224/224 221/221/221
f 229/229/229 228/228/228 224/224/224
f 223/223/223 230/230/230 221/221/221
f 230/230/230 229/229/229 221/221/221
f 227/227/227 231/231/231 174/174/174
f 174/174/174 231/231/231 173/173/173
f 232/232/232 227/227/227 228/228/228
f 231/231/231 227/227/227 232/232/232
f 233/233/233 228/228/228 229/229/229
f 232/232/232 228/228/228 233/233/233
f 231/231/231 234/234/234 173/173/173
f 173/173/173 234/234/234 169/169/169
f 235/235/235 231/231/231 232/232/232
f 234/234/234 231/231/231 235/235/235
f 234/234/234 236/236/236 169/169/169
f 170/170/170 169/169/169 236/236/236
f 223/223/223 237/237/237 230/230/230
f 225/225/225 237/237/237 223/223/223
f 238/238/238 229/229/229 230/230/230
f 238/238/238 233/233/233 229/229/229
f 239/239/239 232/232/232 233/233/233
f 235/235/235 232/232/232 239/239/239
f 240/240/240 234/234/234 235/235/235
f 236/236/236 234/234/234 240/240/240
f 241/241/241 170/170/170 236/236/236
f 171/171/171 170/170/170 241/241/241
f 237/237/237 242/242/242 230/230/230
f 242/242/242 238/238/238 230/230/230
f 243/243/243 235/235/235 239/239/239
f 240/240/240 235/235/235 243/243/243
f 244/244/244 236/236/236 240/240/240
f 236/236/236 244/244/244 241/241/241
f 245/245/245 171/171/171 241/241/241
f 171/171/171 245/245/245 172/172/172
f 246/246/246 240/240/240 243/243/243
f 244/244/244 240/240/240 246/246/246
f 244/244/244 247/247/247 241/241/241
f 241/241/241 247/247/247 245/245/245
f 248/248/248 244/244/244 246/246/246
f 244/244/244 248/248/248 247/247/247
f 238/238/238 242/242/242 249/249/249
f 250/250/250 238/238/238 249/249/249
f 233/233/233 238/238/238 250/250/250
f 249/249/249 242/242/242 251/251/251
f 242/242/242 237/237/237 251/251/251
f 252/252/252 233/233/233 250/250/250
f 239/239/239 233/233/233 252/252/252
f 251/251/251 237/237/237 253/253/253
f 237/237/237 225/225/225 253/253/253
f 254/254/254 239/239/239 252/252/252
f 243/243/243 239/239/239 254/254/254
f 255/255/255 243/243/243 254/254/254
f 246/246/246 243/243/243 255/255/255
f 256/256/256 246/246/246 255/255/255
f 248/248/248 246/246/246 256/256/256
f 250/250/250 249/249/249 257/257/257
f 249/249/249 251/251/251 258/258/258
f 257/257/257 249/249/249 258/258/258
f 252/252/252 250/250/250 259/259/259
f 259/259/259 250/250/250 257/257/257
f 254/254/254 252/252/252 260/260/260
f 260/260/260 252/252/252 259/259/259
f 255/255/255 254/254/254 261/261/261
f 261/261/261 254/254/254 260/260/260
f 256/256/256 255/255/255 262/262/262
f 262/262/262 255/255/255 261/261/261
f 258/258/258 251/251/251 263/263/263
f 251/251/251 253/253/253 263/263/263
f 264/264/264 248/248/248 256/256/256
f 265/265/265 256/256/256 262/262/262
f 264/264/264 256/256/256 265/265/265
f 248/248/248 264/264/264 266/266/266
f 248/248/248 266/266/266 247/247/247
f 247/247/247 266/266/266 267/267/267
f 247/247/247 267/267/267 245/245/245
f 245/245/245 267/267/267 268/268/268
f 245/245/245 268/268/268 172/172/172
f 172/172/172 268/268/268 269/269/269
f 172/172/172 269/269/269 168/168/168
f 168/168/168 269/269/269 270/270/270
f 168/168/168 270/270/270 166/166/166
f 166/166/166 270/270/270 271/271/271
f 166/166/166 271/271/271 167/167/167
f 167/167/167 271/271/271 272/272/272
f 273/273/273 167/167/167 272/272/272
f 273/273/273 272/272/272 274/274/274
f 275/275/275 273/273/273 274/274/274
f 275/275/275 274/274/274 276/276/276
f 274/274/274 277/277/277 276/276/276
f 276/276/276 277/277/277 278/278/278
f 274/274/274 272/272/272 279/279/279
f 274/274/274 279/279/279 277/277/277
f 272/272/272 271/271/271 280/280/280
f 272/272/272 280/280/280 279/279/279
f 270/270/270 281/281/281 271/271/271
f 271/271/271 281/281/281 280/280/280
f 269/269/269 282/282/282 270/270/270
f 270/270/270 282/282/282 281/281/281
f 269/269/269 283/283/283 282/282/282
f 268/268/268 283/283/283 269/269/269
f 268/268/268 284/284/284 283/283/283
f 267/267/267 284/284/284 268/268/268
f 267/267/267 285/285/285 284/284/284
f 266/266/266 285/285/285 267/267/267
f 266/266/266 286/286/286 285/285/285
f 264/264/264 286/286/286 266/266/266
f 264/264/264 287/287/287 286/286/286
f 287/287/287 264/264/264 265/265/265
f 280/280/280 281/281/281 288/288/288
f 282/282/282 289/289/289 281/281/281
f 281/281/281 289/289/289 288/288/288
f 283/283/283 290/290/290 282/282/282
f 282/282/282 290/290/290 289/289/289
f 284/284/284 291/291/291 283/283/283
f 283/283/283 291/291/291 290/290/290
f 285/285/285 292/292/292 284/284/284
f 284/284/284 292/292/292 291/291/291
f 286/286/286 293/293/293 285/285/285
f 292/292/292 285/285/285 293/293/293
f 287/287/287 294/294/294 286/286/286
f 286/286/286 294/294/294 293/293/293
f 280/280/280 288/288/288 295/295/295
f 279/279/279 280/280/280 295/295/295
f 279/279/279 295/295/295 296/296/296
f 279/279/279 296/296/296 277/277/277
f 277/277/277 296/296/296 297/297/297
f 277/277/277 297/297/297 278/278/278
f 278/278/278 297/297/297 298/298/298
f 299/299/299 278/278/278 298/298/298
f 299/299/299 298/298/298 300/300/300
f 301/301/301 299/299/299 300/300/300
f 301/301/301 300/300/300 302/302/302
f 300/300/300 303/303/303 302/302/302
f 302/302/302 303/303/303 304/304/304
f 300/300/300 298/298/298 305/305/305
f 300/300/300 305/305/305 303/303/303
f 298/298/298 297/297/297 306/306/306
f 298/298/298 306/306/306 305/305/305
f 296/296/296 307/307/307 297/297/297
f 297/297/297 307/307/307 306/306/306
f 295/295/295 308/308/308 296/296/296
f 296/296/296 308/308/308 307/307/307
f 303/303/303 309/309/309 304/304/304
f 304/304/304 309/309/309 310/310/310
f 305/305/305 311/311/311 303/303/303
f 303/303/303 311/311/311 309/309/309
f 305/305/305 306/306/306 312/312/312
f 305/305/305 312/312/312 311/311/311
f 306/306/306 307/307/307 313/313/313
f 306/306/306 313/313/313 312/312/312
f 309/309/309 314/314/314 310/310/310
f 310/310/310 314/314/314 315/315/315
f 311/311/311 316/316/316 309/309/309
f 309/309/309 316/316/316 314/314/314
f 312/312/312 317/317/317 311/311/311
f 311/311/311 317/317/317 316/316/316
f 314/314/314 318/318/318 315/315/315
f 315/315/315 318/318/318 319/319/319
f 316/316/316 320/320/320 314/314/314
f 314/314/314 320/320/320 318/318/318
f 318/318/318 321/321/321 319/319/319
f 319/319/319 321/321/321 322/322/322
f 307/307/307 323/323/323 313/313/313
f 308/308/308 323/323/323 307/307/307
f 312/312/312 313/313/313 324/324/324
f 312/312/312 324/324/324 317/317/317
f 317/317/317 325/325/325 316/316/316
f 316/316/316 325/325/325 320/320/320
f 320/320/320 326/326/326 318/318/318
f 318/318/318 326/326/326 321/321/321
f 321/321/321 327/327/327 322/322/322
f 322/322/322 327/327/327 328/328/328
f 313/313/313 323/323/323 329/329/329
f 313/313/313 329/329/329 324/324/324
f 324/324/324 330/330/330 317/317/317
f 317/317/317 330/330/330 325/325/325
f 325/325/325 331/331/331 320/320/320
f 320/320/320 331/331/331 326/326/326
f 326/326/326 332/332/332 321/321/321
f 321/321/321 332/332/332 327/327/327
f 327/327/327 333/333/333 328/328/328
f 328/328/328 333/333/333 334/334/334
f 329/329/329 335/335/335 324/324/324
f 335/335/335 330/330/330 324/324/324
f 330/330/330 336/336/336 325/325/325
f 325/325/325 336/336/336 331/331/331
f 331/331/331 337/337/337 326/326/326
f 326/326/326 337/337/337 332/332/332
f 332/332/332 338/338/338 327/327/327
f 327/327/327 338/338/338 333/333/333
f 333/333/333 339/339/339 334/334/334
f 340/340/340 334/334/334 339/339/339
f 335/335/335 341/341/341 330/330/330
f 341/341/341 336/336/336 330/330/330
f 336/336/336 342/342/342 331/331/331
f 331/331/331 342/342/342 337/337/337
f 337/337/337 343/343/343 332/332/332
f 332/332/332 343/343/343 338/338/338
f 338/338/338 344/344/344 333/333/333
f 333/333/333 344/344/344 339/339/339
f 345/345/345 340/340/340 339/339/339
f 346/346/346 340/340/340 345/345/345
f 336/336/336 341/341/341 347/347/347
f 342/342/342 336/336/336 347/347/347
f 342/342/342 348/348/348 337/337/337
f 337/337/337 348/348/348 343/343/343
f 343/343/343 349/349/349 338/338/338
f 338/338/338 349/349/349 344/344/344
f 344/344/344 350/350/350 339/339/339
f 345/345/345 339/339/339 350/350/350
f 351/351/351 346/346/346 345/345/345
f 346/346/346 351/351/351 352/352/352
f 348/348/348 342/342/342 353/353/353
f 342/342/342 347/347/347 353/353/353
f 348/348/348 354/354/354 343/343/343
f 343/343/343 354/354/354 349/349/349
f 354/354/354 348/348/348 353/353/353
f 349/349/349 355/355/355 344/344/344
f 344/344/344 355/355/355 350/350/350
f 294/294/294 345/345/345 350/350/350
f 351/351/351 345/345/345 294/294/294
f 294/294/294 350/350/350 293/293/293
f 355/355/355 293/293/293 350/350/350
f 287/287/287 351/351/351 294/294/294
f 355/355/355 292/292/292 293/293/293
f 349/349/349 356/356/356 355/355/355
f 356/356/356 292/292/292 355/355/355
f 354/354/354 356/356/356 349/349/349
f 292/292/292 356/356/356 291/291/291
f 351/351/351 287/287/287 357/357/357
f 351/351/351 357/357/357 352/352/352
f 287/287/287 265/265/265 357/357/357
f 352/352/352 357/357/357 358/358/358
f 356/356/356 354/354/354 359/359/359
f 291/291/291 356/356/356 359/359/359
f 359/359/359 354/354/354 353/353/353
f 291/291/291 359/359/359 290/290/290
f 357/357/357 265/265/265 360/360/360
f 357/357/357 360/360/360 358/358/358
f 265/265/265 262/262/262 360/360/360
f 358/358/358 360/360/360 361/361/361
f 359/359/359 353/353/353 362/362/362
f 290/290/290 359/359/359 362/362/362
f 353/353/353 347/347/347 362/362/362
f 290/290/290 362/362/362 289/289/289
f 360/360/360 262/262/262 363/363/363
f 360/360/360 363/363/363 361/361/361
f 262/262/262 261/261/261 363/363/363
f 361/361/361 363/363/363 364/364/364
f 347/347/347 365/365/365 362/362/362
f 289/289/289 362/362/362 365/365/365
f 347/347/347 341/341/341 365/365/365
f 288/288/288 289/289/289 365/365/365
f 363/363/363 261/261/261 366/366/366
f 363/363/363 366/366/366 364/364/364
f 261/261/261 260/260/260 366/366/366
f 364/364/364 366/366/366 367/367/367
f 341/341/341 368/368/368 365/365/365
f 288/288/288 365/365/365 368/368/368
f 295/295/295 288/288/288 368/368/368
f 368/368/368 341/341/341 335/335/335
f 295/295/295 368/368/368 308/308/308
f 366/366/366 260/260/260 369/369/369
f 366/366/366 369/369/369 367/367/367
f 260/260/260 259/259/259 369/369/369
f 367/367/367 369/369/369 370/370/370
f 371/371/371 368/368/368 335/335/335
f 368/368/368 371/371/371 308/308/308
f 371/371/371 335/335/335 329/329/329
f 308/308/308 371/371/371 323/323/323
f 372/372/372 371/371/371 329/329/329
f 323/323/323 372/372/372 329/329/329
f 371/371/371 372/372/372 323/323/323
f 369/369/369 259/259/259 373/373/373
f 369/369/369 373/373/373 370/370/370
f 259/259/259 257/257/257 373/373/373
f 370/370/370 373/373/373 374/374/374
f 373/373/373 257/257/257 375/375/375
f 373/373/373 375/375/375 374/374/374
f 257/257/257 258/258/258 375/375/375
f 374/374/374 375/375/375 376/376/376
f 375/375/375 258/258/258 377/377/377
f 375/375/375 377/377/377 376/376/376
f 376/376/376 377/377/377 378/378/378
f 258/258/258 263/263/263 377/377/377
f 377/377/377 379/379/379 378/378/378
f 377/377/377 263/263/263 379/379/379
f 378/378/378 379/379/379 380/380/380
f 263/263/263 381/381/381 379/379/379
f 263/263/263 253/253/253 381/381/381
f 379/379/379 382/382/382 380/380/380
f 379/379/379 381/381/381 382/382/382
f 380/380/380 382/382/382 383/383/383
f 253/253/253 384/384/384 381/381/381
f 253/253/253 225/225/225 384/384/384
f 382/382/382 385/385/385 383/383/383
f 383/383/383 385/385/385 386/386/386
f 381/381/381 387/387/387 382/382/382
f 381/381/381 384/384/384 387/387/387
f 382/382/382 387/387/387 385/385/385
f 225/225/225 388/388/388 384/384/384
f 222/222/222 388/388/388 225/225/225
f 385/385/385 389/389/389 386/386/386
f 386/386/386 389/389/389 390/390/390
f 387/387/387 391/391/391 385/385/385
f 385/385/385 391/391/391 389/389/389
f 384/384/384 392/392/392 387/387/387
f 384/384/384 388/388/388 392/392/392
f 387/387/387 392/392/392 391/391/391
f 222/222/222 393/393/393 388/388/388
f 216/216/216 393/393/393 222/222/222
f 389/389/389 394/394/394 390/390/390
f 390/390/390 394/394/394 395/395/395
f 391/391/391 396/396/396 389/389/389
f 389/389/389 396/396/396 394/394/394
f 388/388/388 397/397/397 392/392/392
f 393/393/393 397/397/397 388/388/388
f 392/392/392 398/398/398 391/391/391
f 392/392/392 397/397/397 398/398/398
f 391/391/391 398/398/398 396/396/396
f 399/399/399 393/393/393 216/216/216
f 215/215/215 399/399/399 216/216/216
f 400/400/400 397/397/397 393/393/393
f 397/397/397 400/400/400 398/398/398
f 399/399/399 400/400/400 393/393/393
f 398/398/398 401/401/401 396/396/396
f 398/398/398 400/400/400 401/401/401
f 396/396/396 402/402/402 394/394/394
f 396/396/396 401/401/401 402/402/402
f 403/403/403 399/399/399 215/215/215
f 214/214/214 403/403/403 215/215/215
f 404/404/404 400/400/400 399/399/399
f 400/400/400 404/404/404 401/401/401
f 403/403/403 404/404/404 399/399/399
f 405/405/405 403/403/403 214/214/214
f 213/213/213 405/405/405 214/214/214
f 401/401/401 404/404/404 406/406/406
f 401/401/401 406/406/406 402/402/402
f 407/407/407 404/404/404 403/403/403
f 405/405/405 407/407/407 403/403/403
f 404/404/404 407/407/407 406/406/406
f 394/394/394 402/402/402 408/408/408
f 394/394/394 408/408/408 395/395/395
f 409/409/409 405/405/405 213/213/213
f 212/212/212 409/409/409 213/213/213
f 402/402/402 406/406/406 410/410/410
f 402/402/402 410/410/410 408/408/408
f 411/411/411 407/407/407 405/405/405
f 409/409/409 411/411/411 405/405/405
f 406/406/406 407/407/407 412/412/412
f 406/406/406 412/412/412 410/410/410
f 407/407/407 411/411/411 412/412/412
f 395/395/395 408/408/408 413/413/413
f 414/414/414 395/395/395 413/413/413
f 212/212/212 415/415/415 409/409/409
f 211/211/211 415/415/415 212/212/212
f 408/408/408 410/410/410 416/416/416
f 413/413/413 408/408/408 416/416/416
f 410/410/410 412/412/412 417/417/417
f 416/416/416 410/410/410 417/417/417
f 409/409/409 418/418/418 411/411/411
f 415/415/415 418/418/418 409/409/409
f 412/412/412 411/411/411 419/419/419
f 417/417/417 412/412/412 419/419/419
f 418/418/418 419/419/419 411/411/411
f 414/414/414 413/413/413 420/420/420
f 421/421/421 414/414/414 420/420/420
f 421/421/421 420/420/420 422/422/422
f 211/211/211 423/423/423 415/415/415
f 210/210/210 423/423/423 211/211/211
f 413/413/413 416/416/416 424/424/424
f 420/420/420 413/413/413 424/424/424
f 420/420/420 425/425/425 422/422/422
f 420/420/420 424/424/424 425/425/425
f 422/422/422 425/425/425 426/426/426
f 415/415/415 427/427/427 418/418/418
f 423/423/423 427/427/427 415/415/415
f 418/418/418 428/428/428 419/419/419
f 427/427/427 428/428/428 418/418/418
f 429/429/429 423/423/423 210/210/210
f 209/209/209 429/429/429 210/210/210
f 424/424/424 416/416/416 430/430/430
f 416/416/416 417/417/417 430/430/430
f 417/417/417 419/419/419 431/431/431
f 428/428/428 431/431/431 419/419/419
f 430/430/430 417/417/417 431/431/431
f 424/424/424 432/432/432 425/425/425
f 424/424/424 430/430/430 432/432/432
f 433/433/433 427/427/427 423/423/423
f 429/429/429 433/433/433 423/423/423
f 434/434/434 429/429/429 209/209/209
f 208/208/208 434/434/434 209/209/209
f 435/435/435 428/428/428 427/427/427
f 433/433/433 435/435/435 427/427/427
f 436/436/436 431/431/431 428/428/428
f 435/435/435 436/436/436 428/428/428
f 430/430/430 431/431/431 437/437/437
f 430/430/430 437/437/437 432/432/432
f 431/431/431 436/436/436 437/437/437
f 425/425/425 432/432/432 438/438/438
f 425/425/425 438/438/438 426/426/426
f 426/426/426 438/438/438 439/439/439
f 432/432/432 437/437/437 440/440/440
f 432/432/432 440/440/440 438/438/438
f 438/438/438 441/441/441 439/439/439
f 438/438/438 440/440/440 441/441/441
f 439/439/439 441/441/441 442/442/442
f 437/437/437 436/436/436 443/443/443
f 437/437/437 443/443/443 440/440/440
f 444/444/444 436/436/436 435/435/435
f 436/436/436 444/444/444 443/443/443
f 441/441/441 445/445/445 442/442/442
f 442/442/442 445/445/445 446/446/446
f 440/440/440 447/447/447 441/441/441
f 440/440/440 443/443/443 447/447/447
f 441/441/441 447/447/447 445/445/445
f 445/445/445 448/448/448 446/446/446
f 446/446/446 448/448/448 449/449/449
f 443/443/443 450/450/450 447/447/447
f 443/443/443 444/444/444 450/450/450
f 447/447/447 451/451/451 445/445/445
f 445/445/445 451/451/451 448/448/448
f 447/447/447 450/450/450 451/451/451
f 452/452/452 444/444/444 435/435/435
f 452/452/452 435/435/435 433/433/433
f 448/448/448 453/453/453 449/449/449
f 449/449/449 453/453/453 454/454/454
f 451/451/451 455/455/455 448/448/448
f 448/448/448 455/455/455 453/453/453
f 450/450/450 456/456/456 451/451/451
f 451/451/451 456/456/456 455/455/455
f 444/444/444 457/457/457 450/450/450
f 457/457/457 444/444/444 452/452/452
f 450/450/450 457/457/457 456/456/456
f 458/458/458 452/452/452 433/433/433
f 458/458/458 433/433/433 429/429/429
f 434/434/434 458/458/458 429/429/429
f 453/453/453 459/459/459 454/454/454
f 454/454/454 459/459/459 460/460/460
f 455/455/455 461/461/461 453/453/453
f 453/453/453 461/461/461 459/459/459
f 456/456/456 462/462/462 455/455/455
f 455/455/455 462/462/462 461/461/461
f 463/463/463 457/457/457 452/452/452
f 463/463/463 452/452/452 458/458/458
f 457/457/457 464/464/464 456/456/456
f 456/456/456 464/464/464 462/462/462
f 464/464/464 457/457/457 463/463/463
f 465/465/465 458/458/458 434/434/434
f 465/465/465 463/463/463 458/458/458
f 459/459/459 466/466/466 460/460/460
f 467/467/467 460/460/460 466/466/466
f 461/461/461 468/468/468 459/459/459
f 459/459/459 468/468/468 466/466/466
f 462/462/462 469/469/469 461/461/461
f 461/461/461 469/469/469 468/468/468
f 470/470/470 467/467/467 466/466/466
f 203/203/203 467/467/467 470/470/470
f 468/468/468 471/471/471 466/466/466
f 470/470/470 466/466/466 471/471/471
f 472/472/472 203/203/203 470/470/470
f 203/203/203 472/472/472 202/202/202
f 473/473/473 463/463/463 465/465/465
f 473/473/473 464/464/464 463/463/463
f 464/464/464 474/474/474 462/462/462
f 462/462/462 474/474/474 469/469/469
f 469/469/469 475/475/475 468/468/468
f 468/468/468 475/475/475 471/471/471
f 476/476/476 470/470/470 471/471/471
f 472/472/472 470/470/470 476/476/476
f 202/202/202 472/472/472 477/477/477
f 202/202/202 477/477/477 204/204/204
f 473/473/473 478/478/478 464/464/464
f 478/478/478 474/474/474 464/464/464
f 474/474/474 479/479/479 469/469/469
f 469/469/469 479/479/479 475/475/475
f 480/480/480 472/472/472 476/476/476
f 472/472/472 480/480/480 477/477/477
f 204/204/204 477/477/477 481/481/481
f 204/204/204 481/481/481 205/205/205
f 477/477/477 480/480/480 482/482/482
f 477/477/477 482/482/482 481/481/481
f 480/480/480 476/476/476 483/483/483
f 480/480/480 483/483/483 482/482/482
f 481/481/481 484/484/484 205/205/205
f 205/205/205 484/484/484 206/206/206
f 481/481/481 482/482/482 485/485/485
f 481/481/481 485/485/485 484/484/484
f 484/484/484 486/486/486 206/206/206
f 206/206/206 486/486/486 207/207/207
f 476/476/476 487/487/487 483/483/483
f 476/476/476 471/471/471 487/487/487
f 482/482/482 483/483/483 488/488/488
f 482/482/482 488/488/488 485/485/485
f 485/485/485 489/489/489 484/484/484
f 484/484/484 489/489/489 486/486/486
f 486/486/486 490/490/490 207/207/207
f 207/207/207 490/490/490 208/208/208
f 490/490/490 434/434/434 208/208/208
f 490/490/490 465/465/465 434/434/434
f 486/486/486 491/491/491 490/490/490
f 491/491/491 465/465/465 490/490/490
f 489/489/489 491/491/491 486/486/486
f 491/491/491 473/473/473 465/465/465
f 491/491/491 489/489/489 473/473/473
f 489/489/489 478/478/478 473/473/473
f 489/489/489 485/485/485 478/478/478
f 485/485/485 492/492/492 478/478/478
f 492/492/492 485/485/485 488/488/488
f 478/478/478 492/492/492 474/474/474
f 492/492/492 479/479/479 474/474/474
f 493/493/493 492/492/492 488/488/488
f 479/479/479 492/492/492 493/493/493
f 493/493/493 488/488/488 494/494/494
f 483/483/483 494/494/494 488/488/488
f 483/483/483 487/487/487 494/494/494
f 495/495/495 479/479/479 493/493/493
f 479/479/479 495/495/495 475/475/475
f 496/496/496 493/493/493 494/494/494
f 487/487/487 496/496/496 494/494/494
f 495/495/495 493/493/493 496/496/496
f 475/475/475 495/495/495 497/497/497
f 487/487/487 497/497/497 496/496/496
f 475/475/475 497/497/497 471/471/471
f 471/471/471 497/497/497 487/487/487
f 495/495/495 498/498/498 497/497/497
f 497/497/497 498/498/498 496/496/496
f 498/498/498 495/495/495 496/496/496
