g heye_3heye_3_mobile
v -0.0204543669 1.46081469 0.21567567
v -0.153051308 1.63410101 0.284222476
v -0.028241284 1.63081077 0.211946724
v -0.158096353 1.46289851 0.295518989
v -0.0291186831 1.29970228 0.213372497
v -0.260423025 1.63782996 0.187379548
v -0.160399526 1.3000313 0.28948687
v -0.0576341543 1.20823342 0.203392082
v -0.276216209 1.46344689 0.189134347
v -0.200321185 1.63629451 0.0553309816
v -0.158096353 1.20702699 0.261519773
v -0.0862593004 1.1052487 0.192424593
v -0.210411275 1.46355656 0.0437054434
v -0.0591696028 1.63157849 0.0722209146
v -0.272706612 1.29816683 0.188256947
v -0.154148057 1.10338422 0.231797878
v -0.0873560493 1.02650213 0.19034077
v -0.055001957 1.46180176 0.0622404997
v -0.028241284 1.63081077 0.211946724
v -0.0204543669 1.46081469 0.21567567
v -0.2103016 1.30079902 0.0496278874
v -0.244191141 1.20549155 0.183979627
v -0.0620211499 1.30189577 0.0671758697
v -0.0291186831 1.29970228 0.213372497
v -0.151735209 1.02463765 0.227959257
v -0.0711241657 0.783572246 0.1858441
v -0.196372889 1.20900114 0.0780336837
v -0.0828593789 1.21053659 0.0915236951
v -0.0576341543 1.20823342 0.203392082
v -0.212495098 1.10184878 0.179044257
v -0.143728942 0.778307852 0.228068932
v -0.0471053649 0.544371313 0.171696039
v -0.103368583 1.10667447 0.116858595
v -0.0862593004 1.1052487 0.192424593
v -0.180031331 1.10502935 0.107645904
v -0.207559728 1.02266351 0.177837833
v -0.131226005 0.536255371 0.22017234
v -0.0246220126 0.278300032 0.133967877
v -0.103587933 1.0270505 0.118503718
v -0.0873560493 1.02650213 0.19034077
v -0.176521734 1.0252957 0.109729727
v -0.207011354 0.778417527 0.171696039
v -0.108413628 0.263384247 0.181786129
v 0.00685468058 0.0156286717 0.0766079102
v -0.0895495471 0.78993339 0.104245982
v -0.0711241657 0.783572246 0.1858441
v -0.172134739 0.786752818 0.094594592
v -0.204379156 0.538119844 0.155025456
v -0.0766079102 -0.00597728147 0.123658438
v 0.0497375623 -0.263055222 -0.00509988235
v -0.068820993 0.555558152 0.0774853093
v -0.0471053649 0.544371313 0.171696039
v -0.164347822 0.551171156 0.0662984706
v -0.181457104 0.267990592 0.11674892
v -0.033176654 -0.288609471 0.0408538963
v 0.104684682 -0.566306291 -0.112142574
v -0.0466666654 0.293106142 0.0405248716
v -0.0246220126 0.278300032 0.133967877
v -0.141974144 0.286964348 0.0291186831
v -0.149761061 0.00137093612 0.058950253
v 0.0218801404 -0.594273388 -0.0669565199
v 0.168515467 -0.912440241 -0.236733249
v -0.0158480215 0.0340540531 -0.0156286717
v 0.00685468058 0.0156286717 0.0766079102
v -0.110936151 0.0261574611 -0.0275832347
v -0.106987854 -0.280383854 -0.0234155889
v 0.0853819013 -0.939858964 -0.191108495
v 0.241229919 -1.39150016 -0.373936535
v 0.0264864858 -0.24013317 -0.09656874
v 0.0497375623 -0.263055222 -0.00509988235
v -0.0684919684 -0.24978456 -0.109181352
v -0.0521504099 -0.584951022 -0.131006655
v 0.156780254 -1.41518993 -0.326776333
v 0.307363877 -1.89161765 -0.495895012
v 0.0811045806 -0.540093992 -0.202843708
v 0.104684682 -0.566306291 -0.112142574
v -0.0142028982 -0.550951806 -0.216004694
v 0.0109126515 -0.930755948 -0.255707004
v 0.222146488 -1.91366231 -0.447418711
v 0.363627095 -2.36936147 -0.59657656
v 0.144935366 -0.886885992 -0.328311781
v 0.168515467 -0.912440241 -0.236733249
v 0.0491891878 -0.897634131 -0.341253418
v 0.0818723048 -1.40729334 -0.392252242
v 0.277422632 -2.39096742 -0.547771235
v 0.407168026 -2.7841519 -0.671923209
v 0.218088517 -1.37022323 -0.467379541
v 0.241229919 -1.39150016 -0.373936535
v 0.121355265 -1.37888755 -0.479882478
v 0.14658049 -1.90708181 -0.513662344
v 0.284222476 -1.8730826 -0.590654116
v 0.307363877 -1.89161765 -0.495895012
v 0.186940849 -1.88119854 -0.602937704
v 0.201527609 -2.38449661 -0.614672917
v 0.319647465 -2.80137086 -0.622130809
v 0.340485694 -2.35356829 -0.693090463
v 0.363627095 -2.36936147 -0.59657656
v 0.242326668 -2.36124553 -0.705154701
v 0.346188788 -3.10286713 -0.66611044
v 0.433819025 -3.08981582 -0.716780239
v 0.269635715 -3.10045428 -0.734108871
v 0.242984717 -2.79511939 -0.689690541
v 0.311641198 -3.08586752 -0.827113178
v 0.284880525 -2.77636498 -0.781817448
v 0.411116322 -3.07928703 -0.81504894
v 0.384026625 -2.76890709 -0.769643536
v 0.407168026 -2.7841519 -0.671923209
v 0.433819025 -3.08981582 -0.716780239
v -2.75168813 2.60878175 -0.258119852
v -2.58081466 2.53255771 -0.188914997
v -2.763204 2.62117502 -0.296944763
v -2.77866816 2.59814329 -0.234430076
v -2.83800227 2.63488438 -0.351672532
v -2.39009002 2.38405791 -0.590105742
v -3.06788084 2.64815504 -0.437109271
v -3.31081072 2.6850058 -0.638472368
v -3.10286713 2.55021536 -0.163360748
v -3.40535047 2.68654125 -1.02518603
v -2.16942415 2.4360438 -1.50062667
v -3.3052173 2.68171556 -1.44743435
v -3.07402263 2.70869558 -1.82175475
v -2.77779076 2.8134351 -2.17929489
v -2.47256554 2.57730506 -2.4111476
v -1.47913039 2.45819813 -2.28118286
v -2.26560903 2.79731289 -2.7570622
v -2.10614174 2.84162154 -2.9868311
v -1.84665095 2.54396389 -3.14651774
v -1.55754794 2.48298466 -3.27878565
v -1.25122597 2.65287106 -3.4004151
v -0.950607103 2.53354478 -3.36674491
v -0.602937704 2.29116327 -2.47519774
v -0.607434374 2.23972575 -3.31190747
v -0.28477085 2.33931055 -3.34700343
v 0.155683505 2.48528783 -3.1117508
v 0.0429377192 2.62128469 -3.44099481
v 0.299028586 2.59803361 -3.42015658
v 0.640665866 2.42507631 -2.98716012
v 0.594492737 2.47585579 -3.34470026
v 0.856177023 2.53299641 -3.28108883
v 0.316466893 2.34380722 -2.53277706
v 1.0528241 2.36563252 -2.78579703
v 1.11906773 2.58476295 -3.18863289
v 1.31374066 2.385374 -2.98650207
v 1.0493145 2.23577746 -2.12785736
v 1.52025848 2.23840965 -2.3635487
v 1.55491574 2.21230703 -2.70014094
v 1.85279274 2.39996076 -2.62764583
v 2.0416529 2.44854674 -2.18565603
v 2.17106927 2.60889143 -2.53749308
v 2.37747741 2.52268697 -2.35685853
v 1.84884445 2.33251071 -1.67325495
v 2.45315309 2.45775943 -1.83743826
v 2.62106534 2.50173906 -2.13619266
v 2.83207983 2.63236186 -1.93691338
v 2.63685853 2.2871053 -1.32394043
v 2.94767716 2.48188791 -1.63092044
v 2.98222475 2.2425773 -1.29685073
v 2.25946723 2.25815113 -0.862428492
v 2.97652166 2.39129645 -0.768546787
v 3.21484519 2.40061881 -1.00412845
v 3.4052408 2.61887184 -0.779952975
v 3.18523297 2.4688366 -0.297712487
v 3.49846446 2.54462194 -0.487230696
v 3.57721103 2.52718364 -0.202075983
v 2.62260079 2.39272222 -0.0508343112
v 3.2571797 2.5858597 0.181676454
v 3.58763014 2.73271438 0.0900979215
v 3.53454749 2.70869558 0.335769674
v 2.92892276 2.31573045 0.704386976
v 3.34228741 2.38778685 0.65152368
v 3.2274578 2.36815505 0.946768482
v 2.31660785 2.32593021 0.823603581
v 2.81354477 2.49768109 1.30825692
v 3.21056787 2.6417939 1.2952056
v 3.08180955 2.61174298 1.57509592
v 2.57818246 2.64310999 1.85564429
v 2.91740689 2.63225218 1.89918522
v 2.79829996 2.87989808 2.145186
v 1.99909904 2.46730115 1.67928707
v 2.27273789 2.59090475 2.17819814
v 2.6103172 2.86158237 2.34731682
v 2.35685853 2.56765367 2.48737165
v 1.74761452 2.45183699 2.48090083
v 2.06040731 2.46872692 2.66460627
v 1.85027022 2.65155496 2.82966698
v 1.22600075 2.40972183 2.11754792
v 1.25188402 2.57105359 2.5867371
v 1.56599291 2.73381113 2.90468461
v 1.25594199 2.66471595 2.88395605
v 0.746721484 2.71001168 2.73797877
v 0.966729312 2.78491963 2.98189573
v 0.758017997 2.94263212 3.16099482
v 0.409361524 2.50437126 2.3932706
v 0.285099875 2.55975708 2.97608296
v 0.470560112 2.77000384 3.27077939
v 0.174657261 2.55010569 3.3519388
v -0.295189964 2.61569127 3.13412447
v -0.164128472 2.65978058 3.43913034
v -0.425483733 2.84074414 3.41829211
v -0.458495875 2.50601638 2.48824905
v -0.771617684 2.64848406 2.87584011
v -0.714038367 2.76868774 3.28328232
v -0.981316072 2.73534658 3.12524081
v -1.31911473 2.82780251 2.7889776
v -1.30847627 2.97048954 3.09573826
v -1.56851543 3.00459843 3.06042295
v -1.32481783 2.55197016 2.23939673
v -1.84368973 2.55767326 2.63773592
v -1.88119854 2.62523299 2.97246369
v -2.18773985 2.53573828 2.87814328
v -2.34907162 2.70803753 2.33974925
v -2.46017228 2.53244803 2.67458669
v -2.63927137 2.58344685 2.43538575
v -2.0687426 2.55427333 1.71021539
v -2.6574774 2.68950247 1.75978844
v -2.84578919 2.67820596 2.10307084
v -3.04166854 2.89459452 1.79981977
v -3.00843705 2.69487654 1.1541637
v -3.26814719 2.88011743 1.43822166
v -3.45119458 2.77296506 1.08539754
v -2.61240103 2.51994509 0.746063434
v -3.25871515 2.57138262 0.4579475
v -3.59377193 2.69476687 0.633866023
v -3.56174687 2.62336851 0.257790827
v -3.18402655 2.48967482 0.0950332916
v -3.38670574 2.57116327 0.00751272992
v -1.4000548 2.03836265 0.0774853093
v -1.46026631 2.09440652 0.546126111
v -1.18311787 2.10515466 0.962122966
v -0.549855057 1.69595765 0.150748135
v -0.798597706 2.10811588 1.28347039
v -0.406180952 1.69464155 0.379091255
v -0.148993337 1.53912256 0.0291186831
v -0.505656077 1.68235796 -0.205256555
v -0.326886008 2.0940775 1.43635719
v -1.37932625 2.02509199 -0.418354865
v -1.23718759 2.03869168 -0.88907949
v -0.12146494 1.68685463 0.495456312
v 0.180250681 2.08179391 1.44348606
v 0.638911068 2.0477947 1.2524324
v -0.311202498 1.66667445 -0.397955336
v -0.875808828 2.02191142 -1.24793573
v -0.388742645 1.98692513 -1.36517818
v 0.177508808 1.66678413 0.374375235
v 1.05304345 2.02838224 0.944245959
v 1.24365841 1.99207985 0.476592231
v 0.00104191145 1.6503329 -0.412542096
v 0.114665097 1.97946724 -1.43580881
v 0.567841739 1.95862901 -1.229291
v 0.305938104 1.6468233 0.0820916546
v 1.37000388 1.98067366 -0.0194672928
v 0.246494314 1.64298468 -0.228288282
v 0.999522103 1.96367406 -0.958942394
v 1.21437521 1.95764194 -0.501927131
v -2.736553 2.6614257 -0.260861724
v -2.75168813 2.60878175 -0.258119852
v -2.763204 2.62117502 -0.296944763
v -2.77866816 2.59814329 -0.234430076
v -2.76353302 2.65188399 -0.237171948
v -3.10286713 2.55021536 -0.163360748
v -3.08871907 2.6133881 -0.170928315
v -3.38670574 2.57116327 0.00751272992
v -3.38330582 2.6330199 -0.00619663124
v -3.56174687 2.62336851 0.257790827
v -3.56174687 2.68390905 0.244739515
v -3.59377193 2.69476687 0.633866023
v -3.58927526 2.75728155 0.632769274
v -3.45119458 2.77296506 1.08539754
v -3.4497688 2.82867991 1.05655305
v -3.26814719 2.88011743 1.43822166
v -3.24906376 2.94844489 1.45840184
v -3.04166854 2.89459452 1.79981977
v -3.0379396 2.96270262 1.79674887
v -2.84578919 2.67820596 2.10307084
v -2.83580877 2.7317273 2.12906379
v -2.63927137 2.58344685 2.43538575
v -2.68423808 2.65517423 2.44646292
v -2.46017228 2.53244803 2.67458669
v -2.46433992 2.59748524 2.72207591
v -2.18773985 2.53573828 2.87814328
v -2.20879743 2.59276922 2.88165288
v -1.88119854 2.62523299 2.97246369
v -1.8909596 2.69180565 2.97882483
v -1.56851543 3.00459843 3.06042295
v -1.5952761 3.06075197 3.04309432
v -1.30847627 2.97048954 3.09573826
v -1.28039949 3.03289455 3.09617696
v -0.981316072 2.73534658 3.12524081
v -0.989870713 2.80115151 3.12556983
v -0.714038367 2.76868774 3.28328232
v -0.698025833 2.8317508 3.28657257
v -0.425483733 2.84074414 3.41829211
v -0.426141782 2.9064394 3.41204064
v -0.164128472 2.65978058 3.43913034
v -0.130458281 2.71176647 3.44099481
v 0.174657261 2.55010569 3.3519388
v 0.15129651 2.60132386 3.36093214
v 0.470560112 2.77000384 3.27077939
v 0.461676446 2.83690552 3.26694076
v 0.758017997 2.94263212 3.16099482
v 0.738934567 3.0060242 3.15507238
v 0.966729312 2.78491963 2.98189573
v 0.996780231 2.84436342 2.96676059
v 1.25594199 2.66471595 2.88395605
v 1.24815508 2.73117893 2.88603987
v 1.56599291 2.73381113 2.90468461
v 1.58496666 2.79380329 2.8894398
v 1.85027022 2.65155496 2.82966698
v 1.85476689 2.71571477 2.82155104
v 2.06040731 2.46872692 2.66460627
v 2.08124554 2.52301599 2.65528391
v 2.35685853 2.56765367 2.48737165
v 2.32823339 2.61229135 2.51446135
v 2.6103172 2.86158237 2.34731682
v 2.60373671 2.92793568 2.34654909
v 2.79829996 2.87989808 2.145186
v 2.79402264 2.94767716 2.14310217
v 2.91740689 2.63225218 1.89918522
v 2.93638065 2.68379938 1.87066975
v 3.08180955 2.61174298 1.57509592
v 3.07577743 2.67776726 1.58639244
v 3.21056787 2.6417939 1.2952056
v 3.21681934 2.69981191 1.26548371
v 3.2274578 2.36815505 0.946768482
v 3.23776724 2.42759884 0.944465309
v 3.34228741 2.38778685 0.65152368
v 3.34568733 2.44679194 0.666439465
v 3.53454749 2.70869558 0.335769674
v 3.5292831 2.76638457 0.358472376
v 3.58763014 2.73271438 0.0900979215
v 3.58631404 2.7859067 0.0615824503
v 3.57721103 2.52718364 -0.202075983
v 3.59377193 2.60318833 -0.189463371
v 3.49846446 2.54462194 -0.487230696
v 3.50109665 2.60922045 -0.493920864
v 3.4052408 2.61887184 -0.779952975
v 3.40019575 2.68204458 -0.787301193
v 3.21484519 2.40061881 -1.00412845
v 3.20683893 2.45381114 -1.0301214
v 2.98222475 2.2425773 -1.29685073
v 2.99812761 2.29247937 -1.28237364
v 2.94767716 2.48188791 -1.63092044
v 2.95348993 2.54374454 -1.61896588
v 2.83207983 2.63236186 -1.93691338
v 2.8317508 2.69750874 -1.93099094
v 2.62106534 2.50173906 -2.13619266
v 2.61788477 2.5644731 -2.14628275
v 2.37747741 2.52268697 -2.35685853
v 2.38877393 2.58739515 -2.35049739
v 2.17106927 2.60889143 -2.53749308
v 2.15417934 2.67096742 -2.54604772
v 1.85279274 2.39996076 -2.62764583
v 1.85048957 2.46412057 -2.63247153
v 1.55491574 2.21230703 -2.70014094
v 1.54427728 2.26330585 -2.72207591
v 1.31374066 2.385374 -2.98650207
v 1.34598508 2.43538575 -2.97136694
v 1.11906773 2.58476295 -3.18863289
v 1.11479041 2.65078724 -3.18742647
v 0.856177023 2.53299641 -3.28108883
v 0.869228335 2.59880134 -3.2807598
v 0.594492737 2.47585579 -3.34470026
v 0.587583219 2.53990592 -3.35380328
v 0.299028586 2.59803361 -3.42015658
v 0.318002341 2.6627418 -3.41938886
v 0.0429377192 2.62128469 -3.44099481
v 0.0124480999 2.67930271 -3.43989806
v -0.28477085 2.33931055 -3.34700343
v -0.2849902 2.39699954 -3.35862897
v -0.607434374 2.23972575 -3.31190747
v -0.603924778 2.29346645 -3.32386203
v -0.950607103 2.53354478 -3.36674491
v -0.908930645 2.58202108 -3.37705435
v -1.25122597 2.65287106 -3.4004151
v -1.24738735 2.71538575 -3.40403438
v -1.55754794 2.48298466 -3.27878565
v -1.54965135 2.54571869 -3.29622396
v -1.84665095 2.54396389 -3.14651774
v -1.83974143 2.61086558 -3.16724629
v -2.10614174 2.84162154 -2.9868311
v -2.09210335 2.9060007 -3.00141786
v -2.26560903 2.79731289 -2.7570622
v -2.28436343 2.85851148 -2.73973357
v -2.47256554 2.57730506 -2.4111476
v -2.4600626 2.63806495 -2.43286323
v -2.77779076 2.8134351 -2.17929489
v -2.77395214 2.87693686 -2.17688204
v -3.07402263 2.70869558 -1.82175475
v -3.07095174 2.77219734 -1.81835483
v -3.3052173 2.68171556 -1.44743435
v -3.3021464 2.74083032 -1.44469248
v -3.40535047 2.68654125 -1.02518603
v -3.40238925 2.74225609 -1.02299253
v -3.31081072 2.6850058 -0.638472368
v -3.30587535 2.73819812 -0.642091639
v -3.06788084 2.64815504 -0.437109271
v -3.05899717 2.69970224 -0.43798667
v -2.83800227 2.63488438 -0.351672532
v -2.82319616 2.68511548 -0.351891882
v -2.74861724 2.67206416 -0.298918911
v -3.0304817 2.82626706 -1.79334895
v -3.26014092 2.79270654 -1.42999604
v -3.36191922 2.79325492 -1.01476691
v -2.52411274 2.67513506 -0.804191126
v -2.37056789 2.69893451 -1.24135523
v -3.26123767 2.78842922 -0.654704252
v -2.73775942 2.92815503 -2.14858592
v -3.00920477 2.74752049 -0.463869944
v -2.77921653 2.72339201 -0.373388161
v -2.70277313 2.7085859 -0.3094477
v -2.42759884 2.69674102 -2.4155346
v -1.88075984 2.74949464 -1.65746176
v -2.26889927 2.90896193 -2.69728939
v -2.6915863 2.69816679 -0.263493921
v -2.05382681 2.9579866 -2.98101833
v -2.54473162 2.6836897 -0.286306298
v -2.71834697 2.68928312 -0.234101051
v -1.57443787 2.78053263 -2.09221303
v -1.80903246 2.67645116 -3.14662741
v -3.02905593 2.66559335 -0.157109279
v -1.53320011 2.6103172 -3.26946329
v -1.25649037 2.70694078 -2.40193491
v -1.23861336 2.77121026 -3.36729329
v -1.2275362 2.47399131 -1.30705049
v -0.674555407 2.44010177 -1.67961609
v -2.60922045 2.67645116 -0.11652957
v -0.80945552 2.63247153 -2.47113977
v -0.875150779 2.62918128 -3.34645506
v -0.595041112 2.35236186 -3.29699168
v -1.69727375 2.47278489 -0.823603581
v -0.349040335 2.53014486 -2.43132778
v 0.305170379 2.63532308 -2.47870734
v -0.00466118279 2.72734031 -3.39920868
v -0.293544841 2.45534658 -3.33044253
v 0.327105357 2.71812762 -3.37606728
v 0.576725405 2.60154321 -3.31903634
v 0.856177023 2.65758708 -3.24445741
v 1.10601642 2.70266346 -3.14531131
v 1.04339206 2.52652559 -2.09879352
v 1.35322362 2.4849588 -2.92256161
v 1.51981978 2.32110452 -2.70891493
v 1.81330978 2.52049347 -2.61185265
v 2.11952207 2.72185656 -2.51654517
v 1.67457105 2.61711705 -1.73938891
v 0.459921648 2.39535442 -1.64408143
v 1.50611042 2.39842532 -0.479882478
v 2.13893453 2.55339593 -1.06949468
v 2.53255771 2.66767717 -0.26459067
v 2.36278098 2.64694862 -2.31913037
v 2.58300815 2.62424591 -2.12796704
v 2.79829996 2.74960431 -1.90280449
v 2.92640023 2.59573044 -1.58090869
v 2.97630231 2.34940064 -1.26515469
v 3.16132385 2.50733248 -1.04130824
v 3.3576419 2.7334821 -0.782694847
v 3.46260077 2.66910294 -0.483940449
v 3.55878564 2.67524474 -0.185076376
v 3.54705043 2.82780251 0.0324089298
v 3.48607119 2.81277705 0.372730111
v 2.42924396 2.62018794 0.422412836
v 3.30675275 2.50480996 0.678065003
v 3.21341942 2.4871523 0.917265937
v 3.1802976 2.74817854 1.23137482
v 2.22875826 2.65528391 1.00873479
v 3.03519772 2.7352369 1.5690638
v 2.91356827 2.73688202 1.83030939
v 2.76287497 2.99801794 2.11085776
v 2.09506457 2.77153929 1.45927924
v 2.56337635 2.97586361 2.32625924
v 1.48011747 2.45084991 0.870325084
v 1.78161374 2.72810803 1.82350955
v 2.28173123 2.66021928 2.50426158
v 2.06962 2.57818246 2.62106534
v 0.694516236 2.12303167 -0.161496274
v 1.10766154 2.47355262 1.36430079
v 1.44699565 2.65462586 2.01149231
v 1.84347038 2.76627489 2.77515856
v 1.5765217 2.84359569 2.84096349
v 1.03966311 2.73161763 2.06764585
v 1.23444572 2.78886792 2.84370537
v 0.999741453 2.89634931 2.91422632
v 0.716231864 3.05296506 3.1078025
v 0.581880125 2.81551892 2.1892753
v 0.434367399 2.8881237 3.22526431
v 0.548758309 2.51062273 1.5943987
v 0.148554638 2.75355261 2.4605013
v 0.133858202 2.65528391 3.33077155
v -0.107316879 2.76079115 3.40249893
v 0.384904024 2.17446919 0.834022696
v -0.0526987843 2.53453185 1.79466505
v -0.201198584 2.75728155 2.54067365
v -0.414187219 2.95458668 3.36915776
v -0.682890698 2.88713662 3.24632189
v -0.595370136 2.82407356 2.31967875
v -0.974077529 2.86026627 3.08860939
v -1.24859378 3.08060313 3.0536231
v -1.5979083 3.10286713 2.99406964
v -1.07848802 2.88231093 2.17666269
v -1.88975318 2.75453968 2.94076764
v -0.635620821 2.56162155 1.62291417
v -1.57926357 2.77910686 2.14529567
v -2.19881702 2.65374846 2.8575244
v -2.44569519 2.67875433 2.72426941
v -0.251868383 2.20166856 0.946329782
v -1.22830392 2.5627183 1.41540928
v -1.90488831 2.82538966 1.94097135
v -2.68028978 2.74028195 2.43406966
v -2.80049346 2.7872228 2.12248329
v -0.133309828 1.8171484 0.0182608691
v -2.08607123 2.85642765 1.4524794
v -2.99242452 3.01611429 1.78380724
v -3.19411664 3.00163721 1.44864078
v -0.80024283 2.20517816 0.626298455
v -1.57915389 2.56688595 0.878112001
v -2.41125728 2.84074414 0.94314921
v -3.40359568 2.87956906 1.02913432
v -3.54408921 2.8116803 0.61675674
v -2.6885154 2.76243627 0.419561289
v -3.51820594 2.73940455 0.237062273
v -3.33482952 2.69048955 -0.00104191145
v -1.83348996 2.50711313 0.331382678
v -0.954884424 2.17995294 0.0761692106
v -1.70802189 2.49559727 -0.19527614
v -0.820093985 2.16119853 -0.61182137
v -0.273254987 2.13268306 -0.897743806
vt 0.129990675 0.558677722
vt 0.123201514 0.567406644
vt 0.129990675 0.566436764
vt 0.123201514 0.559647602
vt 0.128050915 0.55091868
vt 0.116412353 0.567406644
vt 0.122231634 0.551888561
vt 0.126111155 0.54703916
vt 0.116412353 0.559647602
vt 0.109623191 0.567406644
vt 0.120291874 0.54800904
vt 0.123201514 0.543159639
vt 0.109623191 0.559647602
vt 0.10283403 0.567406644
vt 0.116412353 0.552858441
vt 0.119321993 0.543159639
vt 0.122231634 0.540249998
vt 0.10283403 0.559647602
vt 0.0960448686 0.566436764
vt 0.0960448686 0.558677722
vt 0.110593072 0.552858441
vt 0.115442473 0.54897892
vt 0.10380391 0.552858441
vt 0.097984629 0.55091868
vt 0.118352113 0.540249998
vt 0.123201514 0.529581316
vt 0.110593072 0.54897892
vt 0.105743671 0.54800904
vt 0.10089427 0.54606928
vt 0.115442473 0.544129519
vt 0.119321993 0.528611436
vt 0.125141274 0.517942754
vt 0.106713551 0.543159639
vt 0.10380391 0.542189759
vt 0.110593072 0.544129519
vt 0.115442473 0.540249998
vt 0.120291874 0.517942754
vt 0.125141274 0.506304191
vt 0.107683431 0.539280118
vt 0.10477379 0.539280118
vt 0.111562952 0.540249998
vt 0.115442473 0.528611436
vt 0.121261754 0.506304191
vt 0.126111155 0.493695749
vt 0.107683431 0.528611436
vt 0.10380391 0.528611436
vt 0.111562952 0.528611436
vt 0.116412353 0.517942754
vt 0.121261754 0.493695749
vt 0.126111155 0.480117426
vt 0.107683431 0.517942754
vt 0.10283403 0.517942754
vt 0.111562952 0.517942754
vt 0.116412353 0.506304191
vt 0.122231634 0.480117426
vt 0.127081035 0.465569223
vt 0.107683431 0.505334311
vt 0.10380391 0.505334311
vt 0.112532832 0.505334311
vt 0.117382233 0.493695749
vt 0.122231634 0.465569223
vt 0.127081035 0.44908126
vt 0.107683431 0.493695749
vt 0.10380391 0.492725869
vt 0.112532832 0.493695749
vt 0.117382233 0.480117426
vt 0.122231634 0.44908126
vt 0.128050915 0.425804135
vt 0.108653311 0.480117426
vt 0.10380391 0.480117426
vt 0.112532832 0.480117426
vt 0.117382233 0.465569223
vt 0.123201514 0.425804135
vt 0.129020795 0.402527011
vt 0.108653311 0.465569223
vt 0.10477379 0.465569223
vt 0.113502712 0.465569223
vt 0.118352113 0.44908126
vt 0.124171394 0.402527011
vt 0.129020795 0.380219766
vt 0.109623191 0.44811138
vt 0.10477379 0.44811138
vt 0.113502712 0.44811138
vt 0.119321993 0.425804135
vt 0.125141274 0.380219766
vt 0.129990675 0.360822162
vt 0.109623191 0.425804135
vt 0.105743671 0.425804135
vt 0.114472592 0.425804135
vt 0.119321993 0.402527011
vt 0.110593072 0.402527011
vt 0.105743671 0.402527011
vt 0.115442473 0.402527011
vt 0.120291874 0.380219766
vt 0.125141274 0.360822162
vt 0.110593072 0.380219766
vt 0.106713551 0.380219766
vt 0.115442473 0.380219766
vt 0.126111155 0.347243839
vt 0.129990675 0.347243839
vt 0.121261754 0.347243839
vt 0.120291874 0.360822162
vt 0.116412353 0.347243839
vt 0.116412353 0.360822162
vt 0.111562952 0.346273959
vt 0.111562952 0.360822162
vt 0.106713551 0.360822162
vt 0.107683431 0.346273959
vt 0.853521302 0.297779949
vt 0.854491182 0.289051028
vt 0.852551421 0.29874983
vt 0.855461062 0.29874983
vt 0.850611661 0.30262935
vt 0.834123698 0.283231746
vt 0.849641781 0.313298032
vt 0.8438225 0.325906475
vt 0.863220104 0.311358272
vt 0.828304417 0.334635397
vt 0.790479089 0.285171507
vt 0.808906813 0.334635397
vt 0.790479089 0.330755876
vt 0.770111605 0.325906475
vt 0.755563402 0.312328152
vt 0.7458646 0.264804023
vt 0.736165798 0.308448632
vt 0.724527236 0.306508871
vt 0.711918793 0.292930548
vt 0.703189871 0.282261866
vt 0.692521189 0.269653424
vt 0.691551309 0.255105221
vt 0.727436876 0.225038935
vt 0.690581429 0.235707617
vt 0.684762148 0.222129294
vt 0.690581429 0.196912409
vt 0.676033226 0.204671451
vt 0.675063346 0.194002768
vt 0.691551309 0.173635284
vt 0.676033226 0.180424446
vt 0.675063346 0.168785883
vt 0.715798314 0.183334086
vt 0.69640071 0.1532678
vt 0.675063346 0.156177441
vt 0.683792267 0.144538878
vt 0.725497116 0.145508759
vt 0.709979033 0.128050915
vt 0.694460949 0.129990675
vt 0.693491069 0.114472592
vt 0.711918793 0.10089427
vt 0.693491069 0.097984629
vt 0.700280231 0.0873159468
vt 0.737135678 0.10477379
vt 0.722587475 0.0795569053
vt 0.707069392 0.0756773845
vt 0.711918793 0.0630689419
vt 0.74489472 0.0650087023
vt 0.725497116 0.0553099004
vt 0.741985079 0.0494906192
vt 0.770111605 0.0776171449
vt 0.766232084 0.043671338
vt 0.752653761 0.0359122965
vt 0.760412803 0.0223339737
vt 0.784659808 0.0291231351
vt 0.773021245 0.0174845727
vt 0.783689927 0.0106954114
vt 0.802117651 0.0514303796
vt 0.805027292 0.0194243331
vt 0.79726825 0.00390625
vt 0.807936932 0.00390625
vt 0.833153817 0.0300930153
vt 0.827334536 0.0126351718
vt 0.839942979 0.013605052
vt 0.84479238 0.0562797806
vt 0.862250223 0.0281532549
vt 0.859340583 0.00972553118
vt 0.871949025 0.0126351718
vt 0.890376749 0.0320327757
vt 0.886497228 0.0165146925
vt 0.902015311 0.0155448124
vt 0.887467108 0.0601593014
vt 0.907834593 0.0427014578
vt 0.912683994 0.0223339737
vt 0.921412915 0.0368821767
vt 0.926262316 0.0640388221
vt 0.931111717 0.048520739
vt 0.94275028 0.0562797806
vt 0.915593634 0.0911954676
vt 0.936930998 0.0844063063
vt 0.949539441 0.0669484627
vt 0.950509321 0.0805267855
vt 0.951479201 0.10477379
vt 0.960208123 0.0911954676
vt 0.972816566 0.0970147488
vt 0.938870759 0.124171394
vt 0.966027404 0.124171394
vt 0.977665967 0.110593072
vt 0.983485248 0.125141274
vt 0.978635847 0.148418399
vt 0.991244289 0.139689477
vt 0.99609369 0.15229792
vt 0.951479201 0.162966602
vt 0.973786446 0.172665404
vt 0.991244289 0.164906363
vt 0.988334649 0.177514805
vt 0.978635847 0.198852169
vt 0.99318405 0.194972649
vt 0.99609369 0.205641331
vt 0.950509321 0.204671451
vt 0.972816566 0.225038935
vt 0.988334649 0.225038935
vt 0.987364769 0.238617257
vt 0.964087644 0.25025582
vt 0.980575607 0.25219558
vt 0.972816566 0.261894382
vt 0.933051478 0.243466658
vt 0.94275028 0.269653424
vt 0.959238243 0.274502825
vt 0.949539441 0.289051028
vt 0.919473155 0.291960668
vt 0.935961118 0.30165947
vt 0.921412915 0.312328152
vt 0.89619603 0.278382345
vt 0.891346629 0.310388392
vt 0.903955072 0.322996834
vt 0.887467108 0.325906475
vt 0.874858666 0.310388392
vt 0.873888786 0.321057074
vt 0.850611661 0.229888336
vt 0.872918906 0.227948575
vt 0.888436989 0.211460612
vt 0.8438225 0.191093128
vt 0.899105671 0.191093128
vt 0.852551421 0.182364206
vt 0.834123698 0.174605164
vt 0.828304417 0.193032888
vt 0.901045431 0.167816003
vt 0.828304417 0.234737737
vt 0.805997172 0.234737737
vt 0.854491182 0.168785883
vt 0.89522615 0.145508759
vt 0.881647827 0.127081035
vt 0.817635734 0.186243727
vt 0.786599568 0.222129294
vt 0.775930886 0.20176181
vt 0.84673214 0.157147321
vt 0.863220104 0.112532832
vt 0.840912859 0.108653311
vt 0.813756214 0.173635284
vt 0.767201964 0.180424446
vt 0.772051365 0.157147321
vt 0.832183937 0.155207561
vt 0.816665854 0.108653311
vt 0.819575495 0.161026842
vt 0.778840527 0.135809957
vt 0.79726825 0.120291874
vt 0.692521189 0.35209324
vt 0.692521189 0.35015348
vt 0.691551309 0.35015348
vt 0.692521189 0.3491836
vt 0.693491069 0.35112336
vt 0.701250111 0.335605277
vt 0.702219991 0.338514918
vt 0.713858553 0.325906475
vt 0.713858553 0.328816116
vt 0.727436876 0.322996834
vt 0.727436876 0.324936595
vt 0.74489472 0.326876355
vt 0.743924839 0.329785996
vt 0.762352563 0.339484798
vt 0.759442923 0.340454678
vt 0.774961006 0.35112336
vt 0.773991126 0.354033001
vt 0.787569448 0.365671563
vt 0.785629688 0.366641443
vt 0.801147771 0.376340245
vt 0.800177891 0.378280006
vt 0.815695974 0.386039047
vt 0.811816453 0.387978808
vt 0.824424896 0.396707729
vt 0.821515255 0.39961737
vt 0.828304417 0.411255932
vt 0.826364656 0.412225812
vt 0.830244177 0.424834255
vt 0.827334536 0.425804135
vt 0.827334536 0.446171619
vt 0.824424896 0.445201739
vt 0.827334536 0.457810182
vt 0.824424896 0.458780062
vt 0.828304417 0.475268025
vt 0.825394776 0.474298145
vt 0.829274297 0.486906588
vt 0.827334536 0.487876468
vt 0.830244177 0.50145479
vt 0.827334536 0.50048491
vt 0.830244177 0.515033113
vt 0.827334536 0.515033113
vt 0.824424896 0.529581316
vt 0.822485135 0.527641556
vt 0.814726094 0.542189759
vt 0.811816453 0.541219879
vt 0.804057412 0.553828321
vt 0.802117651 0.551888561
vt 0.79532849 0.564497003
vt 0.792418849 0.563527123
vt 0.788539328 0.576135566
vt 0.786599568 0.574195805
vt 0.783689927 0.587774128
vt 0.780780287 0.586804248
vt 0.776900766 0.59941269
vt 0.774961006 0.59747293
vt 0.769141725 0.610081372
vt 0.766232084 0.609111492
vt 0.758473042 0.619780174
vt 0.757503162 0.616870534
vt 0.743924839 0.628509096
vt 0.741985079 0.626569336
vt 0.732286277 0.634328377
vt 0.731316397 0.632388617
vt 0.718707954 0.641117539
vt 0.716768194 0.639177778
vt 0.703189871 0.644027179
vt 0.704159751 0.641117539
vt 0.689611548 0.644027179
vt 0.688641668 0.642087419
vt 0.671183825 0.64596694
vt 0.671183825 0.644027179
vt 0.659545262 0.6479067
vt 0.658575382 0.644997059
vt 0.639177778 0.64693682
vt 0.639177778 0.644997059
vt 0.627539216 0.644997059
vt 0.626569336 0.643057299
vt 0.611051253 0.644997059
vt 0.613960893 0.643057299
vt 0.601352451 0.638207898
vt 0.602322331 0.635298258
vt 0.590683769 0.627539216
vt 0.592623529 0.626569336
vt 0.579045206 0.617840414
vt 0.580015086 0.615900654
vt 0.566436764 0.607171732
vt 0.568376524 0.606201852
vt 0.553828321 0.59650305
vt 0.555768081 0.594563289
vt 0.542189759 0.585834368
vt 0.544129519 0.583894607
vt 0.533460837 0.574195805
vt 0.536370478 0.572256045
vt 0.527641556 0.561587363
vt 0.530551196 0.560617482
vt 0.524731915 0.54897892
vt 0.526671676 0.54800904
vt 0.520852394 0.532490957
vt 0.522792155 0.532490957
vt 0.516002993 0.519882514
vt 0.517942754 0.517942754
vt 0.510183712 0.504364431
vt 0.513093353 0.504364431
vt 0.506304191 0.489816228
vt 0.509213832 0.488846348
vt 0.504364431 0.476237905
vt 0.507274072 0.477207786
vt 0.503394551 0.464599343
vt 0.505334311 0.464599343
vt 0.505334311 0.45102102
vt 0.508243952 0.451990901
vt 0.508243952 0.439382458
vt 0.511153592 0.439382458
vt 0.515033113 0.419984854
vt 0.516002993 0.421924614
vt 0.517942754 0.408346292
vt 0.519882514 0.408346292
vt 0.525701795 0.390888448
vt 0.527641556 0.392828209
vt 0.530551196 0.377310125
vt 0.532490957 0.378280006
vt 0.537340358 0.361792042
vt 0.539280118 0.363731803
vt 0.54606928 0.35209324
vt 0.54897892 0.354033001
vt 0.562557243 0.344334199
vt 0.563527123 0.346273959
vt 0.574195805 0.337545037
vt 0.576135566 0.340454678
vt 0.592623529 0.330755876
vt 0.591653649 0.332695636
vt 0.609111492 0.323966715
vt 0.610081372 0.326876355
vt 0.629478976 0.316207673
vt 0.629478976 0.319117314
vt 0.6479067 0.312328152
vt 0.6479067 0.315237793
vt 0.667304304 0.314267913
vt 0.666334424 0.316207673
vt 0.682822387 0.322996834
vt 0.680882627 0.324936595
vt 0.689611548 0.336575157
vt 0.687671788 0.337545037
vt 0.690581429 0.347243839
vt 0.688641668 0.34821372
vt 0.690581429 0.35209324
vt 0.630448857 0.322026954
vt 0.6479067 0.318147433
vt 0.666334424 0.319117314
vt 0.664394663 0.358882402
vt 0.643057299 0.359852282
vt 0.678942866 0.327846235
vt 0.611051253 0.329785996
vt 0.684762148 0.339484798
vt 0.686701908 0.35015348
vt 0.688641668 0.354033001
vt 0.592623529 0.336575157
vt 0.617840414 0.373430605
vt 0.578075326 0.342394438
vt 0.691551309 0.355002881
vt 0.564497003 0.34821372
vt 0.687671788 0.361792042
vt 0.693491069 0.354033001
vt 0.594563289 0.381189646
vt 0.55091868 0.355972761
vt 0.702219991 0.342394438
vt 0.542189759 0.366641443
vt 0.576135566 0.391858328
vt 0.534430717 0.379249886
vt 0.623659695 0.409316172
vt 0.59941269 0.429683656
vt 0.69640071 0.361792042
vt 0.566436764 0.410286052
vt 0.529581316 0.394767969
vt 0.522792155 0.409316172
vt 0.651786221 0.395737849
vt 0.560617482 0.432593297
vt 0.55091868 0.461689702
vt 0.514063233 0.439382458
vt 0.518912634 0.422894495
vt 0.511153592 0.452960781
vt 0.509213832 0.464599343
vt 0.510183712 0.476237905
vt 0.512123473 0.487876468
vt 0.557707842 0.50145479
vt 0.516002993 0.503394551
vt 0.520852394 0.516972874
vt 0.525701795 0.531521077
vt 0.529581316 0.54703916
vt 0.567406644 0.535400597
vt 0.585834368 0.481087306
vt 0.625599456 0.544129519
vt 0.591653649 0.565466883
vt 0.624629575 0.592623529
vt 0.533460837 0.559647602
vt 0.539280118 0.570316284
vt 0.54703916 0.581954847
vt 0.557707842 0.592623529
vt 0.570316284 0.604262091
vt 0.581954847 0.612991013
vt 0.593593409 0.623659695
vt 0.604262091 0.632388617
vt 0.615900654 0.639177778
vt 0.626569336 0.640147659
vt 0.640147659 0.642087419
vt 0.657605502 0.59747293
vt 0.659545262 0.642087419
vt 0.671183825 0.640147659
vt 0.687671788 0.639177778
vt 0.685732028 0.595533169
vt 0.703189871 0.637238018
vt 0.715798314 0.636268138
vt 0.730346517 0.629478976
vt 0.709009152 0.594563289
vt 0.741015199 0.624629575
vt 0.687671788 0.559647602
vt 0.729376637 0.583894607
vt 0.756533282 0.613960893
vt 0.764292324 0.607171732
vt 0.64984646 0.511153592
vt 0.714828434 0.54800904
vt 0.741985079 0.571286165
vt 0.773021245 0.595533169
vt 0.778840527 0.584864487
vt 0.750714001 0.553828321
vt 0.783689927 0.571286165
vt 0.789509209 0.561587363
vt 0.800177891 0.5499488
vt 0.761382683 0.535400597
vt 0.808906813 0.539280118
vt 0.733256157 0.525701795
vt 0.778840527 0.516972874
vt 0.820545375 0.526671676
vt 0.824424896 0.515033113
vt 0.69834047 0.509213832
vt 0.74877424 0.50145479
vt 0.785629688 0.502424671
vt 0.824424896 0.50048491
vt 0.823455016 0.487876468
vt 0.781750167 0.482057187
vt 0.821515255 0.474298145
vt 0.821515255 0.459749942
vt 0.821515255 0.445201739
vt 0.780780287 0.459749942
vt 0.824424896 0.426774015
vt 0.74877424 0.473328265
vt 0.783689927 0.435502937
vt 0.823455016 0.413195693
vt 0.818605615 0.40155713
vt 0.710948913 0.483027067
vt 0.7458646 0.444231859
vt 0.777870646 0.419014974
vt 0.808906813 0.389918568
vt 0.79726825 0.381189646
vt 0.668274184 0.476237905
vt 0.759442923 0.405436651
vt 0.782720047 0.369551084
vt 0.772051365 0.356942641
vt 0.704159751 0.454900541
vt 0.726466996 0.421924614
vt 0.740045319 0.385069167
vt 0.757503162 0.343364319
vt 0.742954959 0.332695636
vt 0.720647715 0.366641443
vt 0.726466996 0.328816116
vt 0.713858553 0.331725756
vt 0.704159751 0.403496891
vt 0.681852507 0.440352338
vt 0.679912747 0.40155713
vt 0.64984646 0.438412578
vt 0.629478976 0.458780062
g heye_3heye_3_mobile_0
f 3/3/3 2/2/2 1/1/1
f 2/2/2 4/4/4 1/1/1
f 1/1/1 4/4/4 5/5/5
f 2/2/2 6/6/6 4/4/4
f 4/4/4 7/7/7 5/5/5
f 5/5/5 7/7/7 8/8/8
f 6/6/6 9/9/9 4/4/4
f 4/4/4 9/9/9 7/7/7
f 6/6/6 10/10/10 9/9/9
f 7/7/7 11/11/11 8/8/8
f 8/8/8 11/11/11 12/12/12
f 10/10/10 13/13/13 9/9/9
f 10/10/10 14/14/14 13/13/13
f 9/9/9 15/15/15 7/7/7
f 7/7/7 15/15/15 11/11/11
f 9/9/9 13/13/13 15/15/15
f 11/11/11 16/16/16 12/12/12
f 12/12/12 16/16/16 17/17/17
f 14/14/14 18/18/18 13/13/13
f 14/14/14 19/19/19 18/18/18
f 19/19/19 20/20/20 18/18/18
f 13/13/13 21/21/21 15/15/15
f 13/13/13 18/18/18 21/21/21
f 15/15/15 22/22/22 11/11/11
f 11/11/11 22/22/22 16/16/16
f 15/15/15 21/21/21 22/22/22
f 18/18/18 20/20/20 23/23/23
f 18/18/18 23/23/23 21/21/21
f 20/20/20 24/24/24 23/23/23
f 16/16/16 25/25/25 17/17/17
f 17/17/17 25/25/25 26/26/26
f 21/21/21 27/27/27 22/22/22
f 21/21/21 23/23/23 27/27/27
f 23/23/23 24/24/24 28/28/28
f 23/23/23 28/28/28 27/27/27
f 24/24/24 29/29/29 28/28/28
f 22/22/22 30/30/30 16/16/16
f 22/22/22 27/27/27 30/30/30
f 16/16/16 30/30/30 25/25/25
f 25/25/25 31/31/31 26/26/26
f 26/26/26 31/31/31 32/32/32
f 28/28/28 29/29/29 33/33/33
f 29/29/29 34/34/34 33/33/33
f 27/27/27 28/28/28 35/35/35
f 27/27/27 35/35/35 30/30/30
f 28/28/28 33/33/33 35/35/35
f 30/30/30 36/36/36 25/25/25
f 30/30/30 35/35/35 36/36/36
f 25/25/25 36/36/36 31/31/31
f 31/31/31 37/37/37 32/32/32
f 32/32/32 37/37/37 38/38/38
f 33/33/33 34/34/34 39/39/39
f 34/34/34 40/40/40 39/39/39
f 35/35/35 33/33/33 41/41/41
f 35/35/35 41/41/41 36/36/36
f 33/33/33 39/39/39 41/41/41
f 36/36/36 42/42/42 31/31/31
f 36/36/36 41/41/41 42/42/42
f 31/31/31 42/42/42 37/37/37
f 37/37/37 43/43/43 38/38/38
f 38/38/38 43/43/43 44/44/44
f 39/39/39 40/40/40 45/45/45
f 40/40/40 46/46/46 45/45/45
f 41/41/41 39/39/39 47/47/47
f 41/41/41 47/47/47 42/42/42
f 39/39/39 45/45/45 47/47/47
f 42/42/42 48/48/48 37/37/37
f 42/42/42 47/47/47 48/48/48
f 37/37/37 48/48/48 43/43/43
f 43/43/43 49/49/49 44/44/44
f 44/44/44 49/49/49 50/50/50
f 45/45/45 46/46/46 51/51/51
f 46/46/46 52/52/52 51/51/51
f 47/47/47 45/45/45 53/53/53
f 47/47/47 53/53/53 48/48/48
f 45/45/45 51/51/51 53/53/53
f 48/48/48 54/54/54 43/43/43
f 48/48/48 53/53/53 54/54/54
f 43/43/43 54/54/54 49/49/49
f 49/49/49 55/55/55 50/50/50
f 50/50/50 55/55/55 56/56/56
f 51/51/51 52/52/52 57/57/57
f 52/52/52 58/58/58 57/57/57
f 53/53/53 51/51/51 59/59/59
f 53/53/53 59/59/59 54/54/54
f 51/51/51 57/57/57 59/59/59
f 54/54/54 60/60/60 49/49/49
f 54/54/54 59/59/59 60/60/60
f 49/49/49 60/60/60 55/55/55
f 55/55/55 61/61/61 56/56/56
f 56/56/56 61/61/61 62/62/62
f 57/57/57 58/58/58 63/63/63
f 58/58/58 64/64/64 63/63/63
f 59/59/59 57/57/57 65/65/65
f 59/59/59 65/65/65 60/60/60
f 57/57/57 63/63/63 65/65/65
f 60/60/60 66/66/66 55/55/55
f 60/60/60 65/65/65 66/66/66
f 55/55/55 66/66/66 61/61/61
f 61/61/61 67/67/67 62/62/62
f 62/62/62 67/67/67 68/68/68
f 63/63/63 64/64/64 69/69/69
f 64/64/64 70/70/70 69/69/69
f 65/65/65 63/63/63 71/71/71
f 65/65/65 71/71/71 66/66/66
f 63/63/63 69/69/69 71/71/71
f 66/66/66 72/72/72 61/61/61
f 66/66/66 71/71/71 72/72/72
f 61/61/61 72/72/72 67/67/67
f 67/67/67 73/73/73 68/68/68
f 68/68/68 73/73/73 74/74/74
f 69/69/69 70/70/70 75/75/75
f 70/70/70 76/76/76 75/75/75
f 71/71/71 69/69/69 77/77/77
f 71/71/71 77/77/77 72/72/72
f 69/69/69 75/75/75 77/77/77
f 72/72/72 78/78/78 67/67/67
f 72/72/72 77/77/77 78/78/78
f 67/67/67 78/78/78 73/73/73
f 73/73/73 79/79/79 74/74/74
f 74/74/74 79/79/79 80/80/80
f 75/75/75 76/76/76 81/81/81
f 76/76/76 82/82/82 81/81/81
f 77/77/77 75/75/75 83/83/83
f 77/77/77 83/83/83 78/78/78
f 75/75/75 81/81/81 83/83/83
f 78/78/78 84/84/84 73/73/73
f 78/78/78 83/83/83 84/84/84
f 73/73/73 84/84/84 79/79/79
f 79/79/79 85/85/85 80/80/80
f 80/80/80 85/85/85 86/86/86
f 81/81/81 82/82/82 87/87/87
f 82/82/82 88/88/88 87/87/87
f 83/83/83 81/81/81 89/89/89
f 83/83/83 89/89/89 84/84/84
f 81/81/81 87/87/87 89/89/89
f 84/84/84 90/90/90 79/79/79
f 84/84/84 89/89/89 90/90/90
f 79/79/79 90/90/90 85/85/85
f 87/87/87 88/88/88 91/91/91
f 88/88/88 92/92/92 91/91/91
f 89/89/89 87/87/87 93/93/93
f 89/89/89 93/93/93 90/90/90
f 87/87/87 91/91/91 93/93/93
f 90/90/90 94/94/94 85/85/85
f 90/90/90 93/93/93 94/94/94
f 85/85/85 95/95/95 86/86/86
f 85/85/85 94/94/94 95/95/95
f 91/91/91 92/92/92 96/96/96
f 92/92/92 97/97/97 96/96/96
f 93/93/93 91/91/91 98/98/98
f 93/93/93 98/98/98 94/94/94
f 91/91/91 96/96/96 98/98/98
f 86/86/86 95/95/95 99/99/99
f 100/100/100 86/86/86 99/99/99
f 99/99/99 95/95/95 101/101/101
f 94/94/94 102/102/102 95/95/95
f 95/95/95 102/102/102 101/101/101
f 94/94/94 98/98/98 102/102/102
f 101/101/101 102/102/102 103/103/103
f 98/98/98 104/104/104 102/102/102
f 102/102/102 104/104/104 103/103/103
f 98/98/98 96/96/96 104/104/104
f 103/103/103 104/104/104 105/105/105
f 96/96/96 97/97/97 106/106/106
f 96/96/96 106/106/106 104/104/104
f 104/104/104 106/106/106 105/105/105
f 97/97/97 107/107/107 106/106/106
f 105/105/105 106/106/106 108/108/108
f 106/106/106 107/107/107 108/108/108
f 111/111/111 110/110/110 109/109/109
f 109/109/109 110/110/110 112/112/112
f 111/111/111 113/113/113 110/110/110
f 113/113/113 114/114/114 110/110/110
f 115/115/115 114/114/114 113/113/113
f 116/116/116 114/114/114 115/115/115
f 112/112/112 110/110/110 117/117/117
f 118/118/118 114/114/114 116/116/116
f 119/119/119 114/114/114 118/118/118
f 120/120/120 119/119/119 118/118/118
f 121/121/121 119/119/119 120/120/120
f 122/122/122 119/119/119 121/121/121
f 123/123/123 119/119/119 122/122/122
f 124/124/124 119/119/119 123/123/123
f 125/125/125 124/124/124 123/123/123
f 126/126/126 124/124/124 125/125/125
f 127/127/127 124/124/124 126/126/126
f 128/128/128 124/124/124 127/127/127
f 129/129/129 124/124/124 128/128/128
f 130/130/130 124/124/124 129/129/129
f 131/131/131 124/124/124 130/130/130
f 132/132/132 131/131/131 130/130/130
f 133/133/133 131/131/131 132/132/132
f 134/134/134 131/131/131 133/133/133
f 135/135/135 134/134/134 133/133/133
f 136/136/136 134/134/134 135/135/135
f 137/137/137 134/134/134 136/136/136
f 138/138/138 137/137/137 136/136/136
f 139/139/139 137/137/137 138/138/138
f 134/134/134 140/140/140 131/131/131
f 137/137/137 140/140/140 134/134/134
f 141/141/141 137/137/137 139/139/139
f 142/142/142 141/141/141 139/139/139
f 143/143/143 141/141/141 142/142/142
f 141/141/141 144/144/144 137/137/137
f 144/144/144 140/140/140 137/137/137
f 145/145/145 141/141/141 143/143/143
f 145/145/145 144/144/144 141/141/141
f 146/146/146 145/145/145 143/143/143
f 147/147/147 145/145/145 146/146/146
f 148/148/148 145/145/145 147/147/147
f 149/149/149 148/148/148 147/147/147
f 150/150/150 148/148/148 149/149/149
f 148/148/148 151/151/151 145/145/145
f 151/151/151 144/144/144 145/145/145
f 152/152/152 148/148/148 150/150/150
f 152/152/152 151/151/151 148/148/148
f 153/153/153 152/152/152 150/150/150
f 154/154/154 152/152/152 153/153/153
f 155/155/155 152/152/152 154/154/154
f 156/156/156 155/155/155 154/154/154
f 157/157/157 155/155/155 156/156/156
f 155/155/155 158/158/158 152/152/152
f 158/158/158 151/151/151 152/152/152
f 159/159/159 155/155/155 157/157/157
f 159/159/159 158/158/158 155/155/155
f 160/160/160 159/159/159 157/157/157
f 161/161/161 159/159/159 160/160/160
f 162/162/162 159/159/159 161/161/161
f 163/163/163 162/162/162 161/161/161
f 164/164/164 162/162/162 163/163/163
f 162/162/162 165/165/165 159/159/159
f 165/165/165 158/158/158 159/159/159
f 166/166/166 162/162/162 164/164/164
f 166/166/166 165/165/165 162/162/162
f 167/167/167 166/166/166 164/164/164
f 168/168/168 166/166/166 167/167/167
f 169/169/169 166/166/166 168/168/168
f 170/170/170 169/169/169 168/168/168
f 171/171/171 169/169/169 170/170/170
f 169/169/169 172/172/172 166/166/166
f 172/172/172 165/165/165 166/166/166
f 173/173/173 169/169/169 171/171/171
f 173/173/173 172/172/172 169/169/169
f 174/174/174 173/173/173 171/171/171
f 175/175/175 173/173/173 174/174/174
f 176/176/176 173/173/173 175/175/175
f 177/177/177 176/176/176 175/175/175
f 178/178/178 176/176/176 177/177/177
f 176/176/176 179/179/179 173/173/173
f 179/179/179 172/172/172 173/173/173
f 180/180/180 176/176/176 178/178/178
f 180/180/180 179/179/179 176/176/176
f 181/181/181 180/180/180 178/178/178
f 182/182/182 180/180/180 181/181/181
f 183/183/183 180/180/180 182/182/182
f 184/184/184 183/183/183 182/182/182
f 185/185/185 183/183/183 184/184/184
f 183/183/183 186/186/186 180/180/180
f 186/186/186 179/179/179 180/180/180
f 187/187/187 183/183/183 185/185/185
f 187/187/187 186/186/186 183/183/183
f 188/188/188 187/187/187 185/185/185
f 189/189/189 187/187/187 188/188/188
f 190/190/190 187/187/187 189/189/189
f 191/191/191 190/190/190 189/189/189
f 192/192/192 190/190/190 191/191/191
f 190/190/190 193/193/193 187/187/187
f 193/193/193 186/186/186 187/187/187
f 194/194/194 190/190/190 192/192/192
f 194/194/194 193/193/193 190/190/190
f 195/195/195 194/194/194 192/192/192
f 196/196/196 194/194/194 195/195/195
f 197/197/197 194/194/194 196/196/196
f 198/198/198 197/197/197 196/196/196
f 199/199/199 197/197/197 198/198/198
f 197/197/197 200/200/200 194/194/194
f 200/200/200 193/193/193 194/194/194
f 201/201/201 197/197/197 199/199/199
f 201/201/201 200/200/200 197/197/197
f 202/202/202 201/201/201 199/199/199
f 203/203/203 201/201/201 202/202/202
f 204/204/204 201/201/201 203/203/203
f 205/205/205 204/204/204 203/203/203
f 206/206/206 204/204/204 205/205/205
f 204/204/204 207/207/207 201/201/201
f 207/207/207 200/200/200 201/201/201
f 208/208/208 204/204/204 206/206/206
f 208/208/208 207/207/207 204/204/204
f 209/209/209 208/208/208 206/206/206
f 210/210/210 208/208/208 209/209/209
f 211/211/211 208/208/208 210/210/210
f 212/212/212 211/211/211 210/210/210
f 213/213/213 211/211/211 212/212/212
f 211/211/211 214/214/214 208/208/208
f 214/214/214 207/207/207 208/208/208
f 215/215/215 211/211/211 213/213/213
f 215/215/215 214/214/214 211/211/211
f 216/216/216 215/215/215 213/213/213
f 217/217/217 215/215/215 216/216/216
f 218/218/218 215/215/215 217/217/217
f 219/219/219 218/218/218 217/217/217
f 220/220/220 218/218/218 219/219/219
f 218/218/218 221/221/221 215/215/215
f 221/221/221 214/214/214 215/215/215
f 222/222/222 218/218/218 220/220/220
f 222/222/222 221/221/221 218/218/218
f 223/223/223 222/222/222 220/220/220
f 224/224/224 222/222/222 223/223/223
f 225/225/225 222/222/222 224/224/224
f 226/226/226 225/225/225 224/224/224
f 117/117/117 225/225/225 226/226/226
f 110/110/110 225/225/225 117/117/117
f 225/225/225 110/110/110 222/222/222
f 110/110/110 221/221/221 222/222/222
f 110/110/110 227/227/227 221/221/221
f 110/110/110 114/114/114 227/227/227
f 221/221/221 228/228/228 214/214/214
f 227/227/227 228/228/228 221/221/221
f 228/228/228 229/229/229 214/214/214
f 214/214/214 229/229/229 207/207/207
f 227/227/227 230/230/230 228/228/228
f 228/228/228 230/230/230 229/229/229
f 229/229/229 231/231/231 207/207/207
f 207/207/207 231/231/231 200/200/200
f 229/229/229 232/232/232 231/231/231
f 230/230/230 232/232/232 229/229/229
f 230/230/230 233/233/233 232/232/232
f 234/234/234 233/233/233 230/230/230
f 234/234/234 230/230/230 227/227/227
f 231/231/231 235/235/235 200/200/200
f 231/231/231 232/232/232 235/235/235
f 200/200/200 235/235/235 193/193/193
f 114/114/114 236/236/236 227/227/227
f 236/236/236 234/234/234 227/227/227
f 237/237/237 236/236/236 114/114/114
f 237/237/237 234/234/234 236/236/236
f 119/119/119 237/237/237 114/114/114
f 232/232/232 238/238/238 235/235/235
f 232/232/232 233/233/233 238/238/238
f 235/235/235 239/239/239 193/193/193
f 235/235/235 238/238/238 239/239/239
f 193/193/193 239/239/239 186/186/186
f 239/239/239 240/240/240 186/186/186
f 239/239/239 238/238/238 240/240/240
f 186/186/186 240/240/240 179/179/179
f 241/241/241 234/234/234 237/237/237
f 241/241/241 233/233/233 234/234/234
f 242/242/242 237/237/237 119/119/119
f 242/242/242 241/241/241 237/237/237
f 124/124/124 242/242/242 119/119/119
f 243/243/243 242/242/242 124/124/124
f 243/243/243 241/241/241 242/242/242
f 131/131/131 243/243/243 124/124/124
f 238/238/238 244/244/244 240/240/240
f 238/238/238 233/233/233 244/244/244
f 240/240/240 245/245/245 179/179/179
f 240/240/240 244/244/244 245/245/245
f 179/179/179 245/245/245 172/172/172
f 245/245/245 246/246/246 172/172/172
f 245/245/245 244/244/244 246/246/246
f 172/172/172 246/246/246 165/165/165
f 247/247/247 241/241/241 243/243/243
f 247/247/247 233/233/233 241/241/241
f 248/248/248 243/243/243 131/131/131
f 248/248/248 247/247/247 243/243/243
f 140/140/140 248/248/248 131/131/131
f 249/249/249 248/248/248 140/140/140
f 249/249/249 247/247/247 248/248/248
f 144/144/144 249/249/249 140/140/140
f 244/244/244 250/250/250 246/246/246
f 244/244/244 233/233/233 250/250/250
f 246/246/246 251/251/251 165/165/165
f 246/246/246 250/250/250 251/251/251
f 165/165/165 251/251/251 158/158/158
f 252/252/252 233/233/233 247/247/247
f 252/252/252 247/247/247 249/249/249
f 250/250/250 233/233/233 252/252/252
f 253/253/253 249/249/249 144/144/144
f 253/253/253 252/252/252 249/249/249
f 151/151/151 253/253/253 144/144/144
f 251/251/251 254/254/254 158/158/158
f 251/251/251 250/250/250 254/254/254
f 250/250/250 252/252/252 254/254/254
f 254/254/254 252/252/252 253/253/253
f 254/254/254 253/253/253 151/151/151
f 158/158/158 254/254/254 151/151/151
f 257/257/257 256/256/256 255/255/255
f 256/256/256 258/258/258 255/255/255
f 258/258/258 259/259/259 255/255/255
f 258/258/258 260/260/260 259/259/259
f 260/260/260 261/261/261 259/259/259
f 260/260/260 262/262/262 261/261/261
f 262/262/262 263/263/263 261/261/261
f 262/262/262 264/264/264 263/263/263
f 264/264/264 265/265/265 263/263/263
f 264/264/264 266/266/266 265/265/265
f 266/266/266 267/267/267 265/265/265
f 266/266/266 268/268/268 267/267/267
f 268/268/268 269/269/269 267/267/267
f 268/268/268 270/270/270 269/269/269
f 270/270/270 271/271/271 269/269/269
f 270/270/270 272/272/272 271/271/271
f 272/272/272 273/273/273 271/271/271
f 272/272/272 274/274/274 273/273/273
f 274/274/274 275/275/275 273/273/273
f 274/274/274 276/276/276 275/275/275
f 276/276/276 277/277/277 275/275/275
f 276/276/276 278/278/278 277/277/277
f 278/278/278 279/279/279 277/277/277
f 278/278/278 280/280/280 279/279/279
f 280/280/280 281/281/281 279/279/279
f 280/280/280 282/282/282 281/281/281
f 282/282/282 283/283/283 281/281/281
f 282/282/282 284/284/284 283/283/283
f 284/284/284 285/285/285 283/283/283
f 284/284/284 286/286/286 285/285/285
f 286/286/286 287/287/287 285/285/285
f 286/286/286 288/288/288 287/287/287
f 288/288/288 289/289/289 287/287/287
f 288/288/288 290/290/290 289/289/289
f 290/290/290 291/291/291 289/289/289
f 290/290/290 292/292/292 291/291/291
f 292/292/292 293/293/293 291/291/291
f 292/292/292 294/294/294 293/293/293
f 294/294/294 295/295/295 293/293/293
f 294/294/294 296/296/296 295/295/295
f 296/296/296 297/297/297 295/295/295
f 296/296/296 298/298/298 297/297/297
f 298/298/298 299/299/299 297/297/297
f 298/298/298 300/300/300 299/299/299
f 300/300/300 301/301/301 299/299/299
f 300/300/300 302/302/302 301/301/301
f 302/302/302 303/303/303 301/301/301
f 302/302/302 304/304/304 303/303/303
f 304/304/304 305/305/305 303/303/303
f 304/304/304 306/306/306 305/305/305
f 306/306/306 307/307/307 305/305/305
f 306/306/306 308/308/308 307/307/307
f 308/308/308 309/309/309 307/307/307
f 308/308/308 310/310/310 309/309/309
f 310/310/310 311/311/311 309/309/309
f 310/310/310 312/312/312 311/311/311
f 312/312/312 313/313/313 311/311/311
f 312/312/312 314/314/314 313/313/313
f 314/314/314 315/315/315 313/313/313
f 314/314/314 316/316/316 315/315/315
f 316/316/316 317/317/317 315/315/315
f 316/316/316 318/318/318 317/317/317
f 318/318/318 319/319/319 317/317/317
f 318/318/318 320/320/320 319/319/319
f 320/320/320 321/321/321 319/319/319
f 320/320/320 322/322/322 321/321/321
f 322/322/322 323/323/323 321/321/321
f 322/322/322 324/324/324 323/323/323
f 324/324/324 325/325/325 323/323/323
f 324/324/324 326/326/326 325/325/325
f 326/326/326 327/327/327 325/325/325
f 326/326/326 328/328/328 327/327/327
f 328/328/328 329/329/329 327/327/327
f 328/328/328 330/330/330 329/329/329
f 330/330/330 331/331/331 329/329/329
f 330/330/330 332/332/332 331/331/331
f 332/332/332 333/333/333 331/331/331
f 332/332/332 334/334/334 333/333/333
f 334/334/334 335/335/335 333/333/333
f 334/334/334 336/336/336 335/335/335
f 336/336/336 337/337/337 335/335/335
f 336/336/336 338/338/338 337/337/337
f 338/338/338 339/339/339 337/337/337
f 338/338/338 340/340/340 339/339/339
f 340/340/340 341/341/341 339/339/339
f 340/340/340 342/342/342 341/341/341
f 342/342/342 343/343/343 341/341/341
f 342/342/342 344/344/344 343/343/343
f 344/344/344 345/345/345 343/343/343
f 344/344/344 346/346/346 345/345/345
f 346/346/346 347/347/347 345/345/345
f 346/346/346 348/348/348 347/347/347
f 348/348/348 349/349/349 347/347/347
f 348/348/348 350/350/350 349/349/349
f 350/350/350 351/351/351 349/349/349
f 350/350/350 352/352/352 351/351/351
f 352/352/352 353/353/353 351/351/351
f 352/352/352 354/354/354 353/353/353
f 354/354/354 355/355/355 353/353/353
f 354/354/354 356/356/356 355/355/355
f 356/356/356 357/357/357 355/355/355
f 356/356/356 358/358/358 357/357/357
f 358/358/358 359/359/359 357/357/357
f 358/358/358 360/360/360 359/359/359
f 360/360/360 361/361/361 359/359/359
f 361/361/361 360/360/360 362/362/362
f 363/363/363 361/361/361 362/362/362
f 362/362/362 364/364/364 363/363/363
f 364/364/364 365/365/365 363/363/363
f 364/364/364 366/366/366 365/365/365
f 366/366/366 367/367/367 365/365/365
f 366/366/366 368/368/368 367/367/367
f 368/368/368 369/369/369 367/367/367
f 368/368/368 370/370/370 369/369/369
f 370/370/370 371/371/371 369/369/369
f 370/370/370 372/372/372 371/371/371
f 372/372/372 373/373/373 371/371/371
f 372/372/372 374/374/374 373/373/373
f 374/374/374 375/375/375 373/373/373
f 374/374/374 376/376/376 375/375/375
f 376/376/376 377/377/377 375/375/375
f 376/376/376 378/378/378 377/377/377
f 378/378/378 379/379/379 377/377/377
f 378/378/378 380/380/380 379/379/379
f 380/380/380 381/381/381 379/379/379
f 380/380/380 382/382/382 381/381/381
f 382/382/382 383/383/383 381/381/381
f 382/382/382 384/384/384 383/383/383
f 384/384/384 385/385/385 383/383/383
f 384/384/384 386/386/386 385/385/385
f 386/386/386 387/387/387 385/385/385
f 386/386/386 388/388/388 387/387/387
f 388/388/388 389/389/389 387/387/387
f 388/388/388 390/390/390 389/389/389
f 390/390/390 391/391/391 389/389/389
f 390/390/390 392/392/392 391/391/391
f 392/392/392 393/393/393 391/391/391
f 392/392/392 394/394/394 393/393/393
f 394/394/394 395/395/395 393/393/393
f 394/394/394 396/396/396 395/395/395
f 396/396/396 397/397/397 395/395/395
f 396/396/396 398/398/398 397/397/397
f 398/398/398 399/399/399 397/397/397
f 398/398/398 257/257/257 399/399/399
f 257/257/257 400/400/400 399/399/399
f 400/400/400 257/257/257 255/255/255
f 387/387/387 389/389/389 401/401/401
f 389/389/389 391/391/391 402/402/402
f 401/401/401 389/389/389 402/402/402
f 391/391/391 393/393/393 403/403/403
f 402/402/402 391/391/391 403/403/403
f 402/402/402 403/403/403 404/404/404
f 405/405/405 402/402/402 404/404/404
f 401/401/401 402/402/402 405/405/405
f 403/403/403 406/406/406 404/404/404
f 403/403/403 393/393/393 406/406/406
f 393/393/393 395/395/395 406/406/406
f 407/407/407 387/387/387 401/401/401
f 407/407/407 401/401/401 405/405/405
f 385/385/385 387/387/387 407/407/407
f 406/406/406 395/395/395 408/408/408
f 406/406/406 408/408/408 404/404/404
f 395/395/395 397/397/397 408/408/408
f 408/408/408 397/397/397 409/409/409
f 408/408/408 409/409/409 404/404/404
f 397/397/397 399/399/399 409/409/409
f 409/409/409 399/399/399 410/410/410
f 404/404/404 409/409/409 410/410/410
f 399/399/399 400/400/400 410/410/410
f 411/411/411 385/385/385 407/407/407
f 383/383/383 385/385/385 411/411/411
f 412/412/412 407/407/407 405/405/405
f 411/411/411 407/407/407 412/412/412
f 413/413/413 383/383/383 411/411/411
f 413/413/413 411/411/411 412/412/412
f 381/381/381 383/383/383 413/413/413
f 410/410/410 400/400/400 414/414/414
f 400/400/400 255/255/255 414/414/414
f 415/415/415 381/381/381 413/413/413
f 379/379/379 381/381/381 415/415/415
f 410/410/410 414/414/414 416/416/416
f 416/416/416 404/404/404 410/410/410
f 414/414/414 255/255/255 417/417/417
f 414/414/414 417/417/417 416/416/416
f 255/255/255 259/259/259 417/417/417
f 415/415/415 413/413/413 418/418/418
f 418/418/418 413/413/413 412/412/412
f 419/419/419 379/379/379 415/415/415
f 419/419/419 415/415/415 418/418/418
f 377/377/377 379/379/379 419/419/419
f 417/417/417 259/259/259 420/420/420
f 259/259/259 261/261/261 420/420/420
f 421/421/421 377/377/377 419/419/419
f 375/375/375 377/377/377 421/421/421
f 422/422/422 419/419/419 418/418/418
f 421/421/421 419/419/419 422/422/422
f 423/423/423 375/375/375 421/421/421
f 423/423/423 421/421/421 422/422/422
f 373/373/373 375/375/375 423/423/423
f 418/418/418 412/412/412 424/424/424
f 422/422/422 418/418/418 424/424/424
f 425/425/425 422/422/422 424/424/424
f 417/417/417 420/420/420 426/426/426
f 417/417/417 426/426/426 416/416/416
f 427/427/427 423/423/423 422/422/422
f 427/427/427 422/422/422 425/425/425
f 428/428/428 373/373/373 423/423/423
f 428/428/428 423/423/423 427/427/427
f 371/371/371 373/373/373 428/428/428
f 429/429/429 371/371/371 428/428/428
f 429/429/429 428/428/428 427/427/427
f 369/369/369 371/371/371 429/429/429
f 424/424/424 412/412/412 430/430/430
f 412/412/412 405/405/405 430/430/430
f 405/405/405 404/404/404 430/430/430
f 431/431/431 429/429/429 427/427/427
f 431/431/431 427/427/427 425/425/425
f 432/432/432 431/431/431 425/425/425
f 432/432/432 433/433/433 431/431/431
f 434/434/434 369/369/369 429/429/429
f 434/434/434 429/429/429 431/431/431
f 433/433/433 434/434/434 431/431/431
f 367/367/367 369/369/369 434/434/434
f 433/433/433 367/367/367 434/434/434
f 365/365/365 367/367/367 433/433/433
f 435/435/435 365/365/365 433/433/433
f 435/435/435 433/433/433 432/432/432
f 363/363/363 365/365/365 435/435/435
f 436/436/436 363/363/363 435/435/435
f 436/436/436 435/435/435 432/432/432
f 361/361/361 363/363/363 436/436/436
f 437/437/437 361/361/361 436/436/436
f 437/437/437 436/436/436 432/432/432
f 359/359/359 361/361/361 437/437/437
f 438/438/438 359/359/359 437/437/437
f 438/438/438 437/437/437 432/432/432
f 439/439/439 438/438/438 432/432/432
f 357/357/357 359/359/359 438/438/438
f 440/440/440 357/357/357 438/438/438
f 440/440/440 438/438/438 439/439/439
f 355/355/355 357/357/357 440/440/440
f 441/441/441 355/355/355 440/440/440
f 441/441/441 440/440/440 439/439/439
f 353/353/353 355/355/355 441/441/441
f 442/442/442 353/353/353 441/441/441
f 442/442/442 441/441/441 439/439/439
f 351/351/351 353/353/353 442/442/442
f 443/443/443 351/351/351 442/442/442
f 443/443/443 442/442/442 439/439/439
f 444/444/444 443/443/443 439/439/439
f 349/349/349 351/351/351 443/443/443
f 439/439/439 432/432/432 445/445/445
f 444/444/444 439/439/439 445/445/445
f 446/446/446 444/444/444 445/445/445
f 447/447/447 444/444/444 446/446/446
f 448/448/448 447/447/447 446/446/446
f 445/445/445 432/432/432 425/425/425
f 449/449/449 349/349/349 443/443/443
f 449/449/449 443/443/443 444/444/444
f 347/347/347 349/349/349 449/449/449
f 450/450/450 347/347/347 449/449/449
f 450/450/450 449/449/449 444/444/444
f 345/345/345 347/347/347 450/450/450
f 451/451/451 450/450/450 444/444/444
f 451/451/451 345/345/345 450/450/450
f 447/447/447 451/451/451 444/444/444
f 343/343/343 345/345/345 451/451/451
f 452/452/452 343/343/343 451/451/451
f 452/452/452 451/451/451 447/447/447
f 341/341/341 343/343/343 452/452/452
f 453/453/453 341/341/341 452/452/452
f 453/453/453 452/452/452 447/447/447
f 339/339/339 341/341/341 453/453/453
f 454/454/454 339/339/339 453/453/453
f 454/454/454 453/453/453 447/447/447
f 337/337/337 339/339/339 454/454/454
f 455/455/455 454/454/454 447/447/447
f 455/455/455 337/337/337 454/454/454
f 335/335/335 337/337/337 455/455/455
f 448/448/448 455/455/455 447/447/447
f 456/456/456 335/335/335 455/455/455
f 456/456/456 455/455/455 448/448/448
f 333/333/333 335/335/335 456/456/456
f 457/457/457 333/333/333 456/456/456
f 457/457/457 456/456/456 448/448/448
f 331/331/331 333/333/333 457/457/457
f 458/458/458 331/331/331 457/457/457
f 458/458/458 457/457/457 448/448/448
f 329/329/329 331/331/331 458/458/458
f 459/459/459 329/329/329 458/458/458
f 459/459/459 458/458/458 448/448/448
f 327/327/327 329/329/329 459/459/459
f 460/460/460 459/459/459 448/448/448
f 460/460/460 448/448/448 446/446/446
f 461/461/461 327/327/327 459/459/459
f 461/461/461 459/459/459 460/460/460
f 325/325/325 327/327/327 461/461/461
f 462/462/462 325/325/325 461/461/461
f 462/462/462 461/461/461 460/460/460
f 323/323/323 325/325/325 462/462/462
f 463/463/463 323/323/323 462/462/462
f 463/463/463 462/462/462 460/460/460
f 321/321/321 323/323/323 463/463/463
f 464/464/464 463/463/463 460/460/460
f 464/464/464 460/460/460 446/446/446
f 465/465/465 321/321/321 463/463/463
f 465/465/465 463/463/463 464/464/464
f 319/319/319 321/321/321 465/465/465
f 466/466/466 319/319/319 465/465/465
f 466/466/466 465/465/465 464/464/464
f 317/317/317 319/319/319 466/466/466
f 467/467/467 317/317/317 466/466/466
f 315/315/315 317/317/317 467/467/467
f 468/468/468 466/466/466 464/464/464
f 467/467/467 466/466/466 468/468/468
f 469/469/469 315/315/315 467/467/467
f 469/469/469 467/467/467 468/468/468
f 313/313/313 315/315/315 469/469/469
f 470/470/470 464/464/464 446/446/446
f 468/468/468 464/464/464 470/470/470
f 471/471/471 469/469/469 468/468/468
f 471/471/471 468/468/468 470/470/470
f 472/472/472 313/313/313 469/469/469
f 472/472/472 469/469/469 471/471/471
f 311/311/311 313/313/313 472/472/472
f 473/473/473 311/311/311 472/472/472
f 473/473/473 472/472/472 471/471/471
f 309/309/309 311/311/311 473/473/473
f 470/470/470 446/446/446 474/474/474
f 446/446/446 445/445/445 474/474/474
f 475/475/475 471/471/471 470/470/470
f 475/475/475 470/470/470 474/474/474
f 476/476/476 473/473/473 471/471/471
f 476/476/476 471/471/471 475/475/475
f 477/477/477 309/309/309 473/473/473
f 477/477/477 473/473/473 476/476/476
f 307/307/307 309/309/309 477/477/477
f 478/478/478 307/307/307 477/477/477
f 478/478/478 477/477/477 476/476/476
f 305/305/305 307/307/307 478/478/478
f 479/479/479 478/478/478 476/476/476
f 479/479/479 476/476/476 475/475/475
f 480/480/480 305/305/305 478/478/478
f 480/480/480 478/478/478 479/479/479
f 303/303/303 305/305/305 480/480/480
f 481/481/481 303/303/303 480/480/480
f 481/481/481 480/480/480 479/479/479
f 301/301/301 303/303/303 481/481/481
f 482/482/482 301/301/301 481/481/481
f 299/299/299 301/301/301 482/482/482
f 483/483/483 481/481/481 479/479/479
f 482/482/482 481/481/481 483/483/483
f 484/484/484 299/299/299 482/482/482
f 484/484/484 482/482/482 483/483/483
f 297/297/297 299/299/299 484/484/484
f 485/485/485 479/479/479 475/475/475
f 483/483/483 479/479/479 485/485/485
f 486/486/486 484/484/484 483/483/483
f 486/486/486 483/483/483 485/485/485
f 487/487/487 297/297/297 484/484/484
f 487/487/487 484/484/484 486/486/486
f 295/295/295 297/297/297 487/487/487
f 488/488/488 295/295/295 487/487/487
f 488/488/488 487/487/487 486/486/486
f 293/293/293 295/295/295 488/488/488
f 485/485/485 475/475/475 489/489/489
f 489/489/489 475/475/475 474/474/474
f 490/490/490 486/486/486 485/485/485
f 490/490/490 485/485/485 489/489/489
f 491/491/491 488/488/488 486/486/486
f 491/491/491 486/486/486 490/490/490
f 492/492/492 293/293/293 488/488/488
f 492/492/492 488/488/488 491/491/491
f 291/291/291 293/293/293 492/492/492
f 493/493/493 291/291/291 492/492/492
f 493/493/493 492/492/492 491/491/491
f 289/289/289 291/291/291 493/493/493
f 494/494/494 493/493/493 491/491/491
f 494/494/494 491/491/491 490/490/490
f 495/495/495 289/289/289 493/493/493
f 495/495/495 493/493/493 494/494/494
f 287/287/287 289/289/289 495/495/495
f 496/496/496 287/287/287 495/495/495
f 496/496/496 495/495/495 494/494/494
f 285/285/285 287/287/287 496/496/496
f 497/497/497 285/285/285 496/496/496
f 283/283/283 285/285/285 497/497/497
f 498/498/498 496/496/496 494/494/494
f 497/497/497 496/496/496 498/498/498
f 499/499/499 283/283/283 497/497/497
f 499/499/499 497/497/497 498/498/498
f 281/281/281 283/283/283 499/499/499
f 500/500/500 494/494/494 490/490/490
f 498/498/498 494/494/494 500/500/500
f 501/501/501 499/499/499 498/498/498
f 501/501/501 498/498/498 500/500/500
f 502/502/502 281/281/281 499/499/499
f 502/502/502 499/499/499 501/501/501
f 279/279/279 281/281/281 502/502/502
f 503/503/503 279/279/279 502/502/502
f 503/503/503 502/502/502 501/501/501
f 277/277/277 279/279/279 503/503/503
f 500/500/500 490/490/490 504/504/504
f 504/504/504 490/490/490 489/489/489
f 505/505/505 501/501/501 500/500/500
f 505/505/505 500/500/500 504/504/504
f 506/506/506 503/503/503 501/501/501
f 506/506/506 501/501/501 505/505/505
f 507/507/507 277/277/277 503/503/503
f 507/507/507 503/503/503 506/506/506
f 275/275/275 277/277/277 507/507/507
f 508/508/508 275/275/275 507/507/507
f 508/508/508 507/507/507 506/506/506
f 273/273/273 275/275/275 508/508/508
f 504/504/504 489/489/489 509/509/509
f 489/489/489 474/474/474 509/509/509
f 510/510/510 508/508/508 506/506/506
f 510/510/510 506/506/506 505/505/505
f 511/511/511 273/273/273 508/508/508
f 511/511/511 508/508/508 510/510/510
f 271/271/271 273/273/273 511/511/511
f 512/512/512 271/271/271 511/511/511
f 512/512/512 511/511/511 510/510/510
f 269/269/269 271/271/271 512/512/512
f 513/513/513 505/505/505 504/504/504
f 513/513/513 504/504/504 509/509/509
f 514/514/514 510/510/510 505/505/505
f 514/514/514 505/505/505 513/513/513
f 515/515/515 512/512/512 510/510/510
f 515/515/515 510/510/510 514/514/514
f 516/516/516 269/269/269 512/512/512
f 516/516/516 512/512/512 515/515/515
f 267/267/267 269/269/269 516/516/516
f 517/517/517 267/267/267 516/516/516
f 517/517/517 516/516/516 515/515/515
f 265/265/265 267/267/267 517/517/517
f 518/518/518 515/515/515 514/514/514
f 518/518/518 517/517/517 515/515/515
f 519/519/519 265/265/265 517/517/517
f 519/519/519 517/517/517 518/518/518
f 263/263/263 265/265/265 519/519/519
f 520/520/520 263/263/263 519/519/519
f 520/520/520 519/519/519 518/518/518
f 261/261/261 263/263/263 520/520/520
f 420/420/420 261/261/261 520/520/520
f 420/420/420 520/520/520 426/426/426
f 426/426/426 520/520/520 518/518/518
f 521/521/521 518/518/518 514/514/514
f 426/426/426 518/518/518 521/521/521
f 521/521/521 514/514/514 513/513/513
f 416/416/416 426/426/426 521/521/521
f 522/522/522 521/521/521 513/513/513
f 522/522/522 513/513/513 509/509/509
f 523/523/523 416/416/416 521/521/521
f 523/523/523 521/521/521 522/522/522
f 404/404/404 416/416/416 523/523/523
f 430/430/430 404/404/404 523/523/523
f 430/430/430 523/523/523 522/522/522
f 524/524/524 430/430/430 522/522/522
f 524/524/524 522/522/522 509/509/509
f 424/424/424 430/430/430 524/524/524
f 425/425/425 424/424/424 524/524/524
f 525/525/525 524/524/524 509/509/509
f 525/525/525 425/425/425 524/524/524
f 474/474/474 525/525/525 509/509/509
f 445/445/445 425/425/425 525/525/525
f 474/474/474 445/445/445 525/525/525
