g huaban_01
v -0.00762667402 0.00108051705 -0.000269837885
v -0.0255687986 0.0228858825 -0.00274120491
v -0.00880699891 0.000554610153 0.000803723949
v -0.0250250978 0.0228839055 -0.00402829285
v -0.0335483484 0.0353316869 -0.00236753421
v -0.0179866446 0.0259049045 -0.00839766974
v 9.53153168E-07 0.00256136017 -0.00329281402
v -0.0330639605 0.0352189925 -0.00384837733
v -0.0369865142 0.0530919188 0.000807678136
v -0.0359129524 0.0524157528 -0.000548608085
v -0.0284375614 0.0681099219 0.000275839953
v -0.0179411714 0.0448573239 -0.00945541483
v -0.0279927154 0.0673230387 -0.00056244774
v -0.0191827862 0.0760578383 -0.00125443051
v -0.0136350615 0.0662909958 -0.0039828197
v -0.0209246057 0.0745493158 -0.00194641327
v -0.00921428019 0.0831397876 -0.00561194484
v -0.00917276123 0.0827364605 -0.00593618819
v 9.53153168E-07 0.0922779143 -0.0102640461
v -0.0124646221 0.0759451439 -0.00416471231
v 9.53153168E-07 0.0911984212 -0.00954636113
v 9.53153168E-07 0.0747055062 -0.00730235988
v 9.53153168E-07 0.0641142157 -0.00798841136
v 9.53153168E-07 0.0430581687 -0.0129410309
v 0.00947320867 0.0830409329 -0.00545970863
v 0.0094336668 0.0833533137 -0.00470050468
v 0.0208790617 0.0741618055 -0.00163403248
v 0.0125574747 0.0761092427 -0.00377324777
v 0.0217035098 0.0725702451 -0.0020610847
v 0.031169834 0.0653973495 -0.000991477055
v 0.0299203108 0.0644661384 -0.00187721499
v 0.0372909158 0.0522318831 0.000123603745
v 0.0132731826 0.0659331419 -0.00371788915
v 0.0357250577 0.0516565488 -0.00104485858
v 0.0353197535 0.0356658157 -0.00324536378
v 0.0178086354 0.0447564921 -0.0093387663
v 0.0349618996 0.0356242967 -0.00438614679
v 0.0238802898 0.0210432313 -0.00122872829
v 0.0170079124 0.0254224937 -0.00861317294
v 0.0230004832 0.0213734059 -0.0029606623
v 0.00880099684 0.000604037493 0.000728594391
v 0.00820786875 0.000989570749 -0.000214479264
v 9.53153168E-07 0.0233959727 -0.0108275178
v 0.0238802898 0.0210432313 -0.00122872829
v 0.00880099684 0.000604037493 0.000728594391
v 0.00773336629 0.00149175253 0.000101855715
v 0.0224963243 0.02247267 -0.000451730498
v 0.0353197535 0.0356658157 -0.00324536378
v 0.011994003 0.0259404922 -0.00680215519
v 9.53153168E-07 0.0028638555 -0.00258303742
v 0.0345447328 0.0360770512 -0.00225286278
v 0.0372909158 0.0522318831 0.000123603745
v 0.0354087227 0.0524098215 0.00144232519
v 0.031169834 0.0653973495 -0.000991477055
v 0.018075543 0.0441554557 -0.00864282935
v 0.0300824325 0.0660458362 0.000457732566
v 0.0208790617 0.0741618055 -0.00163403248
v 0.0132514346 0.0677659076 -0.00142050637
v 9.53153168E-07 0.042874299 -0.0111418757
v 9.53153168E-07 0.0237261473 -0.00928933896
v -0.0128125906 0.0262370562 -0.00654513302
v -0.00713437771 0.00142453134 0.000129535025
v 0.0202641856 0.075502275 0.000254091923
v 0.0094336668 0.0833533137 -0.00470050468
v 0.0126306272 0.0789819597 -0.00254942682
v 9.53153168E-07 0.0653479221 -0.00621891258
v 0.00957799463 0.0832900467 -0.00374161427
v 9.53153168E-07 0.0919358771 -0.00917862172
v 9.53153168E-07 0.0922779143 -0.0102640461
v -0.00921428019 0.0831397876 -0.00561194484
v -0.024564435 0.0236154301 -0.00187128371
v -0.00880699891 0.000554610153 0.000803723949
v -0.0255687986 0.0228858825 -0.00274120491
v -0.0324233822 0.0356440677 -0.00121686573
v -0.0335483484 0.0353316869 -0.00236753421
v -0.0183227505 0.0443274628 -0.0084727993
v -0.0354008851 0.0530919188 0.00194055278
v -0.0369865142 0.0530919188 0.000807678136
v -0.0132574366 0.0678687165 -0.00189500884
v -0.0278009373 0.068596287 0.001375104
v -0.0284375614 0.0681099219 0.000275839953
v -0.0188506345 0.0771116292 -0.000532791336
v -0.0191827862 0.0760578383 -0.00125443051
v 9.53153168E-07 0.0769653242 -0.00557042587
v -0.011827998 0.0790768602 -0.00285983052
v -0.00906204398 0.0836360381 -0.00460362709
vt 0.312817872 0.681342156
vt 0.241767639 0.762542422
vt 0.305790926 0.675876753
vt 0.24645227 0.764884737
vt 0.204290594 0.828908024
vt 0.308914013 0.779719401
vt 0.33389871 0.693834505
vt 0.209755996 0.831250339
vt 0.198044419 0.870288929
vt 0.203509822 0.870288929
vt 0.201167506 0.908546746
vt 0.301887067 0.846085003
vt 0.205852137 0.906985203
vt 0.231617606 0.94524302
vt 0.290956262 0.918696779
vt 0.234740693 0.941339161
vt 0.292517806 0.982720066
vt 0.293298577 0.977254664
vt 0.337802569 0.985062381
vt 0.29017549 0.946023792
vt 0.336241026 0.981158522
vt 0.333117939 0.946804564
vt 0.335460254 0.916354464
vt 0.343267972 0.846085003
vt 0.381525789 0.970227717
vt 0.383087333 0.974912348
vt 0.432275956 0.948366107
vt 0.376060387 0.948366107
vt 0.426810553 0.942900705
vt 0.452576022 0.919477551
vt 0.446329848 0.917135236
vt 0.463506827 0.876535103
vt 0.379183474 0.913231377
vt 0.458041425 0.876535103
vt 0.458822196 0.830469567
vt 0.383868105 0.846085003
vt 0.454137566 0.832031111
vt 0.422125922 0.756296248
vt 0.368252669 0.777377086
vt 0.415879748 0.760200107
vt 0.362006495 0.684465243
vt 0.356541092 0.689149874
vt 0.338583341 0.778938629
vt 0.53455706 0.758638563
vt 0.596238031 0.691492189
vt 0.601703434 0.696957592
vt 0.540803234 0.763323194
vt 0.49551847 0.831250339
vt 0.586087998 0.778157858
vt 0.621222728 0.701642222
vt 0.500983873 0.832811883
vt 0.49551847 0.876535103
vt 0.502545417 0.875754331
vt 0.501764645 0.920258323
vt 0.56969179 0.840619601
vt 0.508791591 0.917135236
vt 0.519722396 0.951489195
vt 0.572034106 0.909327518
vt 0.607168836 0.842181144
vt 0.614195782 0.780500173
vt 0.642303567 0.782842488
vt 0.639961251 0.689930646
vt 0.52596857 0.946023792
vt 0.561884072 0.983500838
vt 0.572814877 0.952269966
vt 0.611853467 0.913231377
vt 0.564226388 0.978816207
vt 0.606388064 0.991308556
vt 0.606388064 0.996773958
vt 0.651672828 0.995212415
vt 0.70476531 0.772692455
vt 0.646988197 0.684465243
vt 0.710230712 0.769569368
vt 0.733653866 0.841400372
vt 0.73990004 0.839838829
vt 0.644645882 0.842961916
vt 0.734434638 0.880438962
vt 0.740680812 0.881219734
vt 0.650892056 0.917135236
vt 0.730530779 0.917135236
vt 0.735215409 0.919477551
vt 0.701642222 0.952269966
vt 0.705546081 0.955393053
vt 0.611853467 0.953050738
vt 0.650892056 0.95383151
vt 0.650111284 0.98896624
vn -0.448686404 -0.489400584 -0.747775086
vn -0.78205616 -0.535917294 0.31808932
vn -0.72003388 -0.528164509 0.450103835
vn -0.549472609 -0.419625519 -0.722491713
vn -0.913853506 -0.357603239 0.192332248
vn -0.270372348 -0.218053108 -0.937737509
vn 0.0164806976 -0.404119949 -0.914557518
vn -0.68902274 -0.202547538 -0.695860732
vn -0.983628571 0.154080573 0.0934559322
vn -0.650258815 0.138575003 -0.746967497
vn -0.79756173 0.59598932 -0.0932309882
vn -0.278125133 0.0998110778 -0.955345047
vn -0.502955899 0.324641844 -0.80102624
vn -0.650258815 0.696775525 -0.30276615
vn -0.247113993 0.130822218 -0.960114692
vn -0.526214254 0.394416909 -0.753348432
vn -0.64250603 0.526214254 -0.55703192
vn -0.402169694 0.0998110778 -0.910108392
vn 0.0707501928 0.727786665 -0.682144398
vn -0.247113993 -0.0552446227 -0.967410309
vn 0.125019688 -0.117266903 -0.985199752
vn 0.0164806976 -0.0397390527 -0.999074169
vn 0.00872791258 0.161833358 -0.986779503
vn 0.000975127547 0.0765527227 -0.997065058
vn 0.466142229 0.130822218 -0.874983982
vn 0.68322021 0.62700046 -0.374273387
vn 0.65220907 0.67351717 -0.347847597
vn 0.194794753 -0.0785029778 -0.977697441
vn 0.303333744 0.239361208 -0.922331205
vn 0.80726477 0.526214254 -0.267249226
vn 0.311086529 0.161833358 -0.936501541
vn 0.993331611 0.107563863 0.0415009119
vn 0.218053108 0.130822218 -0.967128941
vn 0.512658939 0.146327788 -0.846031318
vn 0.931309331 -0.342097669 0.125028457
vn 0.264569819 0.0998110778 -0.959187448
vn 0.613445145 -0.194794753 -0.765336565
vn 0.737489705 -0.551422865 0.389925325
vn 0.264569819 -0.233558678 -0.935656537
vn 0.535917294 -0.458389444 -0.708993491
vn 0.721984135 -0.528164509 0.446968857
vn 0.504906154 -0.489400584 -0.711025206
vn 0.000975127547 -0.218053108 -0.975936418
vn 0.737489705 -0.551422865 0.389925325
vn 0.721984135 -0.528164509 0.446968857
vn -0.169586143 0.177338928 0.969428411
vn -0.0377887976 0.0920582928 0.99503632
vn 0.931309331 -0.342097669 0.125028457
vn -0.270372348 0.239361208 0.932526142
vn -0.0222832275 0.324641844 0.945574498
vn 0.194794753 -0.140525258 0.970725325
vn 0.993331611 0.107563863 0.0415009119
vn 0.264569819 -0.0319862677 0.963835925
vn 0.80726477 0.526214254 -0.267249226
vn -0.285877918 -0.0707501928 0.955650682
vn 0.450636659 0.487450329 0.747876178
vn 0.65220907 0.67351717 -0.347847597
vn -0.239361208 -0.117266903 0.963822953
vn 0.000975127547 -0.0629974078 0.998013214
vn 0.000975127547 0.223855638 0.974621825
vn 0.264569819 0.223855638 0.9380253
vn 0.132772473 0.208350068 0.969000371
vn 0.380861594 0.603742105 0.700314156
vn 0.68322021 0.62700046 -0.374273387
vn -0.301383489 0.0300360126 0.953029816
vn -0.00677765748 -0.156030828 0.987728932
vn 0.000975127547 0.603742105 0.797179102
vn -0.0300360126 0.898347936 0.438256574
vn 0.0707501928 0.727786665 -0.682144398
vn -0.64250603 0.526214254 -0.55703192
vn -0.00677765748 0.0300360126 0.999525838
vn -0.72003388 -0.528164509 0.450103835
vn -0.78205616 -0.535917294 0.31808932
vn -0.161833358 -0.171536398 0.971794849
vn -0.913853506 -0.357603239 0.192332248
vn 0.311086529 -0.0707501928 0.947744471
vn -0.278125133 -0.0164806976 0.960403455
vn -0.983628571 0.154080573 0.0934559322
vn 0.256817033 -0.109514118 0.960235216
vn -0.409922479 0.471944759 0.780532962
vn -0.79756173 0.59598932 -0.0932309882
vn -0.386664124 0.68902274 0.612975137
vn -0.650258815 0.696775525 -0.30276615
vn -0.00677765748 0.107563863 0.994175075
vn 0.264569819 0.123069433 0.95648143
vn -0.278125133 0.72003388 0.635765383
g huaban_01_0
f 3/3/3 2/2/2 1/1/1
f 2/2/2 4/4/4 1/1/1
f 4/4/4 2/2/2 5/5/5
f 1/1/1 4/4/4 6/6/6
f 7/7/7 1/1/1 6/6/6
f 8/8/8 4/4/4 5/5/5
f 4/4/4 8/8/8 6/6/6
f 5/5/5 9/9/9 8/8/8
f 9/9/9 10/10/10 8/8/8
f 10/10/10 9/9/9 11/11/11
f 8/8/8 12/12/12 6/6/6
f 10/10/10 12/12/12 8/8/8
f 13/13/13 10/10/10 11/11/11
f 11/11/11 14/14/14 13/13/13
f 10/10/10 13/13/13 15/15/15
f 10/10/10 15/15/15 12/12/12
f 14/14/14 16/16/16 13/13/13
f 13/13/13 16/16/16 15/15/15
f 14/14/14 17/17/17 16/16/16
f 17/17/17 18/18/18 16/16/16
f 17/17/17 19/19/19 18/18/18
f 20/20/20 16/16/16 18/18/18
f 16/16/16 20/20/20 15/15/15
f 19/19/19 21/21/21 18/18/18
f 21/21/21 20/20/20 18/18/18
f 15/15/15 20/20/20 22/22/22
f 22/22/22 20/20/20 21/21/21
f 12/12/12 15/15/15 23/23/23
f 23/23/23 15/15/15 22/22/22
f 6/6/6 12/12/12 24/24/24
f 24/24/24 12/12/12 23/23/23
f 25/25/25 21/21/21 19/19/19
f 26/26/26 25/25/25 19/19/19
f 26/26/26 27/27/27 25/25/25
f 28/28/28 22/22/22 21/21/21
f 22/22/22 28/28/28 23/23/23
f 25/25/25 28/28/28 21/21/21
f 27/27/27 29/29/29 25/25/25
f 29/29/29 28/28/28 25/25/25
f 27/27/27 30/30/30 29/29/29
f 30/30/30 31/31/31 29/29/29
f 29/29/29 31/31/31 28/28/28
f 31/31/31 30/30/30 32/32/32
f 28/28/28 33/33/33 23/23/23
f 31/31/31 33/33/33 28/28/28
f 23/23/23 33/33/33 24/24/24
f 34/34/34 31/31/31 32/32/32
f 33/33/33 31/31/31 34/34/34
f 34/34/34 32/32/32 35/35/35
f 33/33/33 34/34/34 36/36/36
f 33/33/33 36/36/36 24/24/24
f 37/37/37 34/34/34 35/35/35
f 34/34/34 37/37/37 36/36/36
f 37/37/37 35/35/35 38/38/38
f 36/36/36 39/39/39 24/24/24
f 36/36/36 37/37/37 39/39/39
f 40/40/40 37/37/37 38/38/38
f 37/37/37 40/40/40 39/39/39
f 38/38/38 41/41/41 40/40/40
f 41/41/41 42/42/42 40/40/40
f 39/39/39 40/40/40 42/42/42
f 7/7/7 39/39/39 42/42/42
f 39/39/39 43/43/43 24/24/24
f 7/7/7 43/43/43 39/39/39
f 43/43/43 6/6/6 24/24/24
f 7/7/7 6/6/6 43/43/43
f 46/46/46 45/45/45 44/44/44
f 47/47/47 46/46/46 44/44/44
f 44/44/44 48/48/48 47/47/47
f 47/47/47 49/49/49 46/46/46
f 49/49/49 50/50/50 46/46/46
f 48/48/48 51/51/51 47/47/47
f 47/47/47 51/51/51 49/49/49
f 48/48/48 52/52/52 51/51/51
f 52/52/52 53/53/53 51/51/51
f 52/52/52 54/54/54 53/53/53
f 51/51/51 55/55/55 49/49/49
f 51/51/51 53/53/53 55/55/55
f 54/54/54 56/56/56 53/53/53
f 56/56/56 54/54/54 57/57/57
f 53/53/53 58/58/58 55/55/55
f 56/56/56 58/58/58 53/53/53
f 49/49/49 55/55/55 59/59/59
f 55/55/55 58/58/58 59/59/59
f 60/60/60 50/50/50 49/49/49
f 60/60/60 49/49/49 59/59/59
f 60/60/60 61/61/61 50/50/50
f 60/60/60 59/59/59 61/61/61
f 62/62/62 50/50/50 61/61/61
f 63/63/63 56/56/56 57/57/57
f 63/63/63 57/57/57 64/64/64
f 58/58/58 56/56/56 65/65/65
f 56/56/56 63/63/63 65/65/65
f 58/58/58 66/66/66 59/59/59
f 58/58/58 65/65/65 66/66/66
f 67/67/67 63/63/63 64/64/64
f 65/65/65 63/63/63 67/67/67
f 67/67/67 64/64/64 68/68/68
f 67/67/67 68/68/68 65/65/65
f 64/64/64 69/69/69 68/68/68
f 68/68/68 69/69/69 70/70/70
f 71/71/71 62/62/62 61/61/61
f 62/62/62 71/71/71 72/72/72
f 71/71/71 73/73/73 72/72/72
f 73/73/73 71/71/71 74/74/74
f 74/74/74 71/71/71 61/61/61
f 75/75/75 73/73/73 74/74/74
f 76/76/76 74/74/74 61/61/61
f 59/59/59 76/76/76 61/61/61
f 59/59/59 66/66/66 76/76/76
f 74/74/74 77/77/77 75/75/75
f 76/76/76 77/77/77 74/74/74
f 77/77/77 78/78/78 75/75/75
f 66/66/66 79/79/79 76/76/76
f 79/79/79 77/77/77 76/76/76
f 78/78/78 77/77/77 80/80/80
f 80/80/80 77/77/77 79/79/79
f 81/81/81 78/78/78 80/80/80
f 80/80/80 82/82/82 81/81/81
f 82/82/82 80/80/80 79/79/79
f 82/82/82 83/83/83 81/81/81
f 66/66/66 84/84/84 79/79/79
f 65/65/65 84/84/84 66/66/66
f 84/84/84 65/65/65 68/68/68
f 84/84/84 85/85/85 79/79/79
f 85/85/85 82/82/82 79/79/79
f 84/84/84 68/68/68 85/85/85
f 82/82/82 86/86/86 83/83/83
f 82/82/82 85/85/85 86/86/86
f 85/85/85 68/68/68 86/86/86
f 86/86/86 70/70/70 83/83/83
f 86/86/86 68/68/68 70/70/70
