g item_02item_02_mobile
v 4.97343395 17.5876144 8.18592717
v 0.000357261257 13.4555307 5.99448663
v 0.000357261257 17.5904725 5.99448663
v 4.97343395 13.4526726 8.18592717
v 5.66866436 17.5868999 8.29310555
v 5.66866436 13.4519581 8.29239103
v 6.13524756 17.5876144 7.95370736
v 6.13524756 13.4533871 7.95370736
v 6.24814212 17.5876144 7.25919147
v 6.24814212 13.4533871 7.25919147
v 5.70081787 17.5876144 1.85239962
v 5.70081787 13.4533871 1.85239962
v 9.32201797 17.5847563 -2.20037208
v 9.32201797 13.4498145 -2.20037208
v 9.63855144 17.5861854 -2.82843737
v 9.63855144 13.4519581 -2.82843737
v 9.46063534 17.5847563 -3.37719066
v 9.46063534 13.4498145 -3.37719066
v 8.83471362 17.5826127 -3.69944031
v 8.83471362 13.4483855 -3.69944031
v 3.52295325 17.5890434 -4.84910704
v 3.52295325 13.4548162 -4.84910704
v 0.787761071 17.589758 -9.54566352
v 0.787761071 13.4555307 -9.54566352
v 0.288309834 17.5904725 -10.0408276
v 0.288309834 13.4555307 -10.0408276
v -0.288309834 17.5904725 -10.0408276
v -0.288309834 13.4555307 -10.0408276
v -0.787761071 17.589758 -9.54566352
v -0.787761071 13.4555307 -9.54566352
v -3.52295325 17.5890434 -4.84910704
v -3.52295325 13.4548162 -4.84910704
v -8.83471362 17.5826127 -3.69944031
v -8.83471362 13.4483855 -3.69944031
v -9.46063534 17.5847563 -3.37719066
v -9.46063534 13.4498145 -3.37719066
v -9.63855144 17.5861854 -2.82843737
v -9.63855144 13.4519581 -2.82843737
v -9.32201797 17.5847563 -2.20037208
v -9.32201797 13.4498145 -2.20037208
v -5.70081787 17.5876144 1.85239962
v -5.70081787 13.4533871 1.85239962
v -6.24814212 17.5883289 7.25919147
v -6.24814212 13.4533871 7.25919147
v -6.13524756 17.5876144 7.95370736
v -6.13524756 13.4533871 7.95370736
v -5.66866436 17.5868999 8.29310555
v -5.66866436 13.4519581 8.29239103
v -4.97343395 17.5876144 8.18592717
v -4.97343395 13.4526726 8.18592717
v 0.000357261257 17.5904725 5.99448663
v 0.000357261257 13.4555307 5.99448663
v -13.5084054 -18.161376 9.81432398
v -9.81432398 10.2859088 13.5084054
v -9.81432398 -18.161376 13.5084054
v -13.5084054 10.2859088 9.81432398
v -15.8799056 -18.161376 5.15992433
v -15.8799056 10.2859088 5.15992433
v -16.6973194 -18.161376 0.000357261257
v -16.6973194 10.2859088 0.000357261257
v -15.8799056 -18.161376 -5.15992433
v -15.8799056 10.2859088 -5.15992433
v -13.5084054 -18.161376 -9.81432398
v -13.5084054 10.2859088 -9.81432398
v -9.81432398 -18.161376 -13.5084054
v -9.81432398 10.2859088 -13.5084054
v -5.15992433 -18.161376 -15.8799056
v -5.15992433 10.2859088 -15.8799056
v 0.000357261257 -18.161376 -16.6973194
v 0.000357261257 10.2859088 -16.6973194
v 5.15992433 -18.161376 -15.8799056
v 5.15992433 10.2859088 -15.8799056
v 9.81432398 -18.161376 -13.5084054
v 9.81432398 10.2859088 -13.5084054
v 13.5084054 -18.161376 -9.81432398
v 13.5084054 10.2859088 -9.81432398
v 15.8799056 -18.161376 -5.15992433
v 15.8799056 10.2859088 -5.15992433
v 16.6973194 -18.161376 0.000357261257
v 16.6973194 10.2859088 0.000357261257
v 15.8799056 -18.161376 5.15992433
v 15.8799056 10.2859088 5.15992433
v 13.5084054 -18.161376 9.81432398
v 13.5084054 10.2859088 9.81432398
v 9.81432398 -18.161376 13.5084054
v 9.81432398 10.2859088 13.5084054
v 5.15992433 -18.161376 15.8799056
v 5.15992433 10.2859088 15.8799056
v 0.000357261257 -18.161376 16.6973194
v 0.000357261257 10.2859088 16.6973194
v -5.15992433 -18.161376 15.8799056
v -5.15992433 10.2859088 15.8799056
v -9.81432398 -18.161376 13.5084054
v -9.81432398 10.2859088 13.5084054
v -16.4715302 -6.71829793 5.35213089
v -14.0121437 -6.71829793 10.1801595
v -14.0121437 4.87125723 10.1801595
v -16.4715302 4.87125723 5.35213089
v -17.3196685 -6.71829793 0.000357261257
v -17.3196685 4.87125723 0.000357261257
v -16.4715302 -6.71829793 -5.35213089
v -16.4715302 4.87125723 -5.35213089
v -14.0121437 -6.71829793 -10.1801595
v -14.0121437 4.87125723 -10.1801595
v -10.1801595 -6.71829793 -14.0121437
v -10.1801595 4.87125723 -14.0121437
v -5.35213089 -6.71829793 -16.4715302
v -5.35213089 4.87125723 -16.4715302
v 0.000357261257 -6.71829793 -17.3196685
v 0.000357261257 4.87125723 -17.3196685
v 5.35213089 -6.71829793 -16.4715302
v 5.35213089 4.87125723 -16.4715302
v 10.1801595 -6.71829793 -14.0121437
v 10.1801595 4.87125723 -14.0121437
v 14.0121437 -6.71829793 -10.1801595
v 14.0121437 4.87125723 -10.1801595
v 16.4715302 -6.71829793 -5.35213089
v 16.4715302 4.87125723 -5.35213089
v 17.3196685 -6.71829793 0.000357261257
v 17.3196685 4.87125723 0.000357261257
v 16.4715302 -6.71829793 5.35213089
v 16.4715302 4.87125723 5.35213089
v 14.0121437 -6.71829793 10.1801595
v 14.0121437 4.87125723 10.1801595
v 10.1801595 -6.71829793 14.0121437
v 10.1801595 4.87125723 14.0121437
v 5.35213089 -6.71829793 16.4715302
v 5.35213089 4.87125723 16.4715302
v 0.000357261257 -6.71829793 17.3196685
v 0.000357261257 4.87125723 17.3196685
v -5.35213089 -6.71829793 16.4715302
v -5.35213089 4.87125723 16.4715302
v -10.1801595 -6.71829793 14.0121437
v -10.1801595 4.87125723 14.0121437
v -14.0121437 -6.71829793 10.1801595
v -14.0121437 4.87125723 10.1801595
v -16.4715302 4.87125723 5.35213089
v -14.0121437 4.87125723 10.1801595
v -14.0578732 5.08132685 10.2137421
v -16.5265485 5.08132685 5.36999395
v -17.3196685 4.87125723 0.000357261257
v -14.1843437 5.23566372 10.3052009
v -17.3768303 5.08132685 0.000357261257
v -16.4715302 4.87125723 -5.35213089
v -16.6744546 5.23566372 5.41786696
v -14.3565436 5.29211099 10.4309569
v -16.5265485 5.08132685 -5.36999395
v -14.0121437 4.87125723 -10.1801595
v -17.5325962 5.23566372 0.000357261257
v -16.877379 5.29211099 5.48360303
v -14.0578732 5.08132685 -10.2137421
v -10.1801595 4.87125723 -14.0121437
v -16.6744546 5.23566372 -5.41786696
v -10.2137421 5.08132685 -14.0578732
v -5.35213089 4.87125723 -16.4715302
v -20.5285891 5.29211099 6.67042492
v -17.462573 5.29211099 12.687419
v -18.0284748 5.15492267 13.098984
v -17.7462384 5.29211099 0.000357261257
v -14.1843437 5.23566372 -10.3052009
v -5.36999395 5.08132685 -16.5265485
v 0.000357261257 4.87125723 -17.3196685
v -21.1938095 5.15492267 6.88621072
v -18.5086339 4.76336434 13.4469564
v -21.5853679 5.29211099 0.000357261257
v -16.877379 5.29211099 -5.48360303
v -10.3052009 5.23566372 -14.1843437
v 0.000357261257 5.08132685 -17.3768303
v 5.35213089 4.87125723 -16.4715302
v -21.7582823 4.76336434 7.06984301
v -18.82874 4.17745587 13.6798908
v -22.2848854 5.15492267 0.000357261257
v -20.5285891 5.29211099 -6.67042492
v -14.3565436 5.29211099 -10.4309569
v -5.41786696 5.23566372 -16.6744546
v -22.1348357 4.17745587 7.19202636
v -18.9416346 3.48722713 13.7620609
v -17.462573 5.29211099 -12.687419
v -21.1938095 5.15492267 -6.88621072
v -22.8779391 4.76336434 0.000357261257
v -10.4309569 5.29211099 -14.3565436
v -12.687419 5.29211099 -17.462573
v -18.0284748 5.15492267 -13.0982695
v -21.7582823 4.76336434 -7.06984301
v -23.2737846 4.17745587 0.000357261257
v -22.2670223 3.48722713 7.23489771
v -22.2670223 -5.33426782 7.23489771
v -18.9416346 -5.33426782 13.7620609
v -18.82874 -6.02521109 13.6798908
v -22.1348357 -6.02521109 7.19202636
v -18.5086339 -6.61111955 13.4469564
v -23.4131165 -5.33426782 0.000357261257
v -23.4131165 3.48722713 0.000357261257
v -22.1348357 4.17745587 -7.19202636
v -18.5086339 4.76336434 -13.4469564
v -21.7582823 -6.61111955 7.06984301
v -18.0284748 -7.00267789 13.098984
v -23.2737846 -6.02521109 0.000357261257
v -22.2670223 -5.33426782 -7.23489771
v -22.2670223 3.48722713 -7.23489771
v -21.1938095 -7.00267789 6.88621072
v -17.462573 -7.13986621 12.687419
v -22.8779391 -6.61111955 0.000357261257
v -22.1348357 -6.02521109 -7.19202636
v -18.82874 4.17745587 -13.6798908
v -18.9416346 -5.33426782 -13.7620609
v -18.9416346 3.48722713 -13.7620609
v -20.5285891 -7.13986621 6.67042492
v -22.2848854 -7.00267789 0.000357261257
v -21.7582823 -6.61111955 -7.06984301
v -18.82874 -6.02521109 -13.6798908
v -13.7620609 -5.33426782 -18.9416346
v -16.877379 -7.13986621 5.48360303
v -14.3565436 -7.13986621 10.4309569
v -14.1843437 -7.08341894 10.3052009
v -16.6744546 -7.08341894 5.41786696
v -14.0578732 -6.92908207 10.2137421
v -17.7462384 -7.13986621 0.000357261257
v -21.5853679 -7.13986621 0.000357261257
v -21.1938095 -7.00267789 -6.88621072
v -18.5086339 -6.61111955 -13.4469564
v -16.5265485 -6.92908207 5.36999395
v -14.0121437 -6.71829793 10.1801595
v -16.4715302 -6.71829793 5.35213089
v -17.5325962 -7.08341894 0.000357261257
v -17.3768303 -6.92908207 0.000357261257
v -17.3196685 -6.71829793 0.000357261257
v -16.877379 -7.13986621 -5.48360303
v -20.5285891 -7.13986621 -6.67042492
v -16.6744546 -7.08341894 -5.41786696
v -16.5265485 -6.92908207 -5.36999395
v -16.4715302 -6.71829793 -5.35213089
v -14.3565436 -7.13986621 -10.4309569
v -18.0284748 -7.00267789 -13.0982695
v -14.1843437 -7.08341894 -10.3052009
v -14.0578732 -6.92908207 -10.2137421
v -14.0121437 -6.71829793 -10.1801595
v -17.462573 -7.13986621 -12.687419
v -10.4309569 -7.13986621 -14.3565436
v -10.3052009 -7.08341894 -14.1843437
v -10.2137421 -6.92908207 -14.0578732
v -10.1801595 -6.71829793 -14.0121437
v -5.36999395 -6.92908207 -16.5265485
v -5.35213089 -6.71829793 -16.4715302
v -5.41786696 -7.08341894 -16.6744546
v -5.48360303 -7.13986621 -16.877379
v -12.687419 -7.13986621 -17.462573
v -13.0982695 -7.00267789 -18.0284748
v 0.000357261257 -6.92908207 -17.3768303
v 0.000357261257 -6.71829793 -17.3196685
v 0.000357261257 -7.08341894 -17.5325962
v 0.000357261257 -7.13986621 -17.7462384
v -6.67042492 -7.13986621 -20.5285891
v 5.36999395 -6.92908207 -16.5265485
v 5.35213089 -6.71829793 -16.4715302
v 5.41786696 -7.08341894 -16.6744546
v 5.48360303 -7.13986621 -16.877379
v 10.2137421 -6.92908207 -14.0578732
v 10.1801595 -6.71829793 -14.0121437
v 10.3052009 -7.08341894 -14.1843437
v 14.0578732 -6.92908207 -10.2137421
v 14.0121437 -6.71829793 -10.1801595
v -6.88621072 -7.00267789 -21.1938095
v 0.000357261257 -7.13986621 -21.5853679
v 10.4309569 -7.13986621 -14.3565436
v 14.1843437 -7.08341894 -10.3052009
v 16.5265485 -6.92908207 -5.36999395
v 16.4715302 -6.71829793 -5.35213089
v 0.000357261257 -7.00267789 -22.2848854
v 6.67042492 -7.13986621 -20.5285891
v 14.3565436 -7.13986621 -10.4309569
v 16.6744546 -7.08341894 -5.41786696
v 17.3768303 -6.92908207 0.000357261257
v 17.3196685 -6.71829793 0.000357261257
v 6.88621072 -7.00267789 -21.1938095
v 12.687419 -7.13986621 -17.462573
v 16.877379 -7.13986621 -5.48360303
v 17.5325962 -7.08341894 0.000357261257
v 16.5265485 -6.92908207 5.36999395
v 16.4715302 -6.71829793 5.35213089
v 13.098984 -7.00267789 -18.0284748
v 17.462573 -7.13986621 -12.687419
v 17.7462384 -7.13986621 0.000357261257
v 16.6744546 -7.08341894 5.41786696
v 14.0578732 -6.92908207 10.2137421
v 14.0121437 -6.71829793 10.1801595
v 18.0284748 -7.00267789 -13.0982695
v 20.5285891 -7.13986621 -6.67042492
v 16.877379 -7.13986621 5.48360303
v 14.1843437 -7.08341894 10.3052009
v 10.2137421 -6.92908207 14.0578732
v 10.1801595 -6.71829793 14.0121437
v 21.1938095 -7.00267789 -6.88621072
v 21.5853679 -7.13986621 0.000357261257
v 14.3565436 -7.13986621 10.4309569
v 10.3052009 -7.08341894 14.1843437
v 5.36999395 -6.92908207 16.5265485
v 5.35213089 -6.71829793 16.4715302
v 22.2848854 -7.00267789 0.000357261257
v 20.5285891 -7.13986621 6.67042492
v 10.4309569 -7.13986621 14.3565436
v 5.41786696 -7.08341894 16.6744546
v 0.000357261257 -6.92908207 17.3768303
v 0.000357261257 -6.71829793 17.3196685
v 21.1938095 -7.00267789 6.88621072
v 17.462573 -7.13986621 12.687419
v 5.48360303 -7.13986621 16.877379
v 0.000357261257 -7.08341894 17.5325962
v -5.36999395 -6.92908207 16.5265485
v -5.35213089 -6.71829793 16.4715302
v 18.0284748 -7.00267789 13.098984
v 12.687419 -7.13986621 17.462573
v 0.000357261257 -7.13986621 17.7462384
v -5.41786696 -7.08341894 16.6744546
v -10.2137421 -6.92908207 14.0578732
v -10.1801595 -6.71829793 14.0121437
v -14.0578732 -6.92908207 10.2137421
v -14.0121437 -6.71829793 10.1801595
v -14.1843437 -7.08341894 10.3052009
v -10.3052009 -7.08341894 14.1843437
v -14.3565436 -7.13986621 10.4309569
v -5.48360303 -7.13986621 16.877379
v -10.4309569 -7.13986621 14.3565436
v -12.687419 -7.13986621 17.462573
v -17.462573 -7.13986621 12.687419
v -18.0284748 -7.00267789 13.098984
v -6.67042492 -7.13986621 20.5285891
v -13.0982695 -7.00267789 18.0284748
v -18.5086339 -6.61111955 13.4469564
v 0.000357261257 -7.13986621 21.5853679
v -13.4469564 -6.61111955 18.5086339
v -18.82874 -6.02521109 13.6798908
v -6.88621072 -7.00267789 21.1938095
v 6.67042492 -7.13986621 20.5285891
v -13.6798908 -6.02521109 18.82874
v -18.9416346 -5.33426782 13.7620609
v -7.06984301 -6.61111955 21.7582823
v 0.000357261257 -7.00267789 22.2848854
v 6.88621072 -7.00267789 21.1938095
v 0.000357261257 -6.61111955 22.8779391
v -7.19202636 -6.02521109 22.1348357
v -13.7620609 -5.33426782 18.9416346
v 13.098984 -7.00267789 18.0284748
v 7.06984301 -6.61111955 21.7582823
v 0.000357261257 -6.02521109 23.2737846
v 13.4469564 -6.61111955 18.5086339
v -13.7620609 3.48722713 18.9416346
v -18.9416346 3.48722713 13.7620609
v -18.82874 4.17745587 13.6798908
v -7.23489771 -5.33426782 22.2670223
v 7.19202636 -6.02521109 22.1348357
v 18.5086339 -6.61111955 13.4469564
v -13.6798908 4.17745587 18.82874
v -18.5086339 4.76336434 13.4469564
v -7.23489771 3.48722713 22.2670223
v 0.000357261257 -5.33426782 23.4131165
v 13.6798908 -6.02521109 18.82874
v 21.7582823 -6.61111955 7.06984301
v -13.4469564 4.76336434 18.5086339
v -18.0284748 5.15492267 13.098984
v 0.000357261257 3.48722713 23.4131165
v -7.19202636 4.17745587 22.1348357
v 7.23489771 -5.33426782 22.2670223
v 18.82874 -6.02521109 13.6798908
v -13.0982695 5.15492267 18.0284748
v -17.462573 5.29211099 12.687419
v -7.06984301 4.76336434 21.7582823
v 7.23489771 3.48722713 22.2670223
v 0.000357261257 4.17745587 23.2737846
v 13.7620609 -5.33426782 18.9416346
v 13.7620609 3.48722713 18.9416346
v 7.19202636 4.17745587 22.1348357
v 0.000357261257 4.76336434 22.8779391
v -6.88621072 5.15492267 21.1938095
v -12.687419 5.29211099 17.462573
v -10.4309569 5.29211099 14.3565436
v -14.3565436 5.29211099 10.4309569
v -14.1843437 5.23566372 10.3052009
v -10.3052009 5.23566372 14.1843437
v -14.0578732 5.08132685 10.2137421
v -5.48360303 5.29211099 16.877379
v -6.67042492 5.29211099 20.5285891
v 0.000357261257 5.15492267 22.2848854
v 7.06984301 4.76336434 21.7582823
v -10.2137421 5.08132685 14.0578732
v -14.0121437 4.87125723 10.1801595
v -10.1801595 4.87125723 14.0121437
v -5.41786696 5.23566372 16.6744546
v -5.36999395 5.08132685 16.5265485
v -5.35213089 4.87125723 16.4715302
v 0.000357261257 5.29211099 17.7462384
v 0.000357261257 5.29211099 21.5853679
v 0.000357261257 5.08132685 17.3768303
v 0.000357261257 4.87125723 17.3196685
v 0.000357261257 5.23566372 17.5325962
v 5.36999395 5.08132685 16.5265485
v 5.35213089 4.87125723 16.4715302
v 5.48360303 5.29211099 16.877379
v 5.41786696 5.23566372 16.6744546
v 6.88621072 5.15492267 21.1938095
v 10.2137421 5.08132685 14.0578732
v 10.1801595 4.87125723 14.0121437
v 10.3052009 5.23566372 14.1843437
v 6.67042492 5.29211099 20.5285891
v 10.4309569 5.29211099 14.3565436
v 14.0578732 5.08132685 10.2137421
v 14.0121437 4.87125723 10.1801595
v 14.1843437 5.23566372 10.3052009
v 14.3565436 5.29211099 10.4309569
v 12.687419 5.29211099 17.462573
v 13.098984 5.15492267 18.0284748
v 16.5265485 5.08132685 5.36999395
v 16.4715302 4.87125723 5.35213089
v 16.6744546 5.23566372 5.41786696
v 16.877379 5.29211099 5.48360303
v 17.462573 5.29211099 12.687419
v 17.3768303 5.08132685 0.000357261257
v 17.3196685 4.87125723 0.000357261257
v 17.5325962 5.23566372 0.000357261257
v 17.7462384 5.29211099 0.000357261257
v 16.5265485 5.08132685 -5.36999395
v 16.4715302 4.87125723 -5.35213089
v 16.6744546 5.23566372 -5.41786696
v 14.0578732 5.08132685 -10.2137421
v 14.0121437 4.87125723 -10.1801595
v 18.0284748 5.15492267 13.098984
v 20.5285891 5.29211099 6.67042492
v 16.877379 5.29211099 -5.48360303
v 14.1843437 5.23566372 -10.3052009
v 10.2137421 5.08132685 -14.0578732
v 10.1801595 4.87125723 -14.0121437
v 21.1938095 5.15492267 6.88621072
v 21.5853679 5.29211099 0.000357261257
v 14.3565436 5.29211099 -10.4309569
v 10.3052009 5.23566372 -14.1843437
v 5.36999395 5.08132685 -16.5265485
v 5.41786696 5.23566372 -16.6744546
v 0.000357261257 5.23566372 -17.5325962
v 10.4309569 5.29211099 -14.3565436
v 20.5285891 5.29211099 -6.67042492
v 5.48360303 5.29211099 -16.877379
v -5.48360303 5.29211099 -16.877379
v 0.000357261257 5.29211099 -17.7462384
v 17.462573 5.29211099 -12.687419
v -6.67042492 5.29211099 -20.5285891
v 12.687419 5.29211099 -17.462573
v 6.67042492 5.29211099 -20.5285891
v 0.000357261257 5.29211099 -21.5853679
v -13.0982695 5.15492267 -18.0284748
v -6.88621072 5.15492267 -21.1938095
v -13.4469564 4.76336434 -18.5086339
v 0.000357261257 5.15492267 -22.2848854
v 6.88621072 5.15492267 -21.1938095
v -7.06984301 4.76336434 -21.7582823
v -13.6798908 4.17745587 -18.82874
v 0.000357261257 4.76336434 -22.8779391
v 13.098984 5.15492267 -18.0284748
v -7.19202636 4.17745587 -22.1348357
v -13.7620609 3.48722713 -18.9416346
v 7.06984301 4.76336434 -21.7582823
v 18.0284748 5.15492267 -13.0982695
v 0.000357261257 4.17745587 -23.2737846
v -7.23489771 3.48722713 -22.2670223
v -7.23489771 -5.33426782 -22.2670223
v 13.4469564 4.76336434 -18.5086339
v 21.1938095 5.15492267 -6.88621072
v 7.19202636 4.17745587 -22.1348357
v 0.000357261257 3.48722713 -23.4131165
v 18.5086339 4.76336434 -13.4469564
v 22.2848854 5.15492267 0.000357261257
v 13.6798908 4.17745587 -18.82874
v 21.7582823 4.76336434 -7.06984301
v 22.8779391 4.76336434 0.000357261257
v 18.82874 4.17745587 -13.6798908
v 7.23489771 3.48722713 -22.2670223
v 21.7582823 4.76336434 7.06984301
v 22.1348357 4.17745587 -7.19202636
v 13.7620609 3.48722713 -18.9416346
v 18.5086339 4.76336434 13.4469564
v 23.2737846 4.17745587 0.000357261257
v 18.9416346 3.48722713 -13.7620609
v 13.4469564 4.76336434 18.5086339
v 22.1348357 4.17745587 7.19202636
v 22.2670223 3.48722713 -7.23489771
v 13.6798908 4.17745587 18.82874
v 18.82874 4.17745587 13.6798908
v 18.9416346 3.48722713 13.7620609
v 23.4131165 3.48722713 0.000357261257
v 22.2670223 3.48722713 7.23489771
v 18.9416346 -5.33426782 13.7620609
v 22.2670223 -5.33426782 7.23489771
v 22.1348357 -6.02521109 7.19202636
v 23.4131165 -5.33426782 0.000357261257
v 23.2737846 -6.02521109 0.000357261257
v 22.8779391 -6.61111955 0.000357261257
v 21.7582823 -6.61111955 -7.06984301
v 22.2670223 -5.33426782 -7.23489771
v 22.1348357 -6.02521109 -7.19202636
v 18.5086339 -6.61111955 -13.4469564
v 18.9416346 -5.33426782 -13.7620609
v 18.82874 -6.02521109 -13.6798908
v 13.4469564 -6.61111955 -18.5086339
v 13.7620609 -5.33426782 -18.9416346
v 13.6798908 -6.02521109 -18.82874
v 7.06984301 -6.61111955 -21.7582823
v 7.23489771 -5.33426782 -22.2670223
v 7.19202636 -6.02521109 -22.1348357
v 0.000357261257 -6.61111955 -22.8779391
v 0.000357261257 -5.33426782 -23.4131165
v 0.000357261257 -6.02521109 -23.2737846
v -7.06984301 -6.61111955 -21.7582823
v -7.19202636 -6.02521109 -22.1348357
v -13.4469564 -6.61111955 -18.5086339
v -13.6798908 -6.02521109 -18.82874
v -9.27414496 17.7233737 -2.20037208
v -9.32201797 17.5847563 -2.20037208
v -9.63855144 17.5861854 -2.82843737
v -5.70081787 17.5876144 1.85239962
v -9.58924939 17.7233737 -2.82843737
v -9.46063534 17.5847563 -3.37719066
v -9.41133328 17.7240882 -3.37719066
v -8.83471362 17.5826127 -3.69944031
v -8.78755513 17.7262318 -3.69944031
v -3.52295325 17.5890434 -4.84910704
v -3.5022321 17.733377 -4.84910704
v -0.787761071 17.589758 -9.54566352
v -0.783473936 17.734806 -9.54566352
v -0.288309834 17.5904725 -10.0408276
v -0.286880789 17.734806 -10.0408276
v 0.288309834 17.5904725 -10.0408276
v -9.13910021 18.067059 -3.37719066
v -8.545332 18.0534831 -3.69944031
v -3.41291678 18.0363345 -4.84910704
v -0.763467305 18.0270457 -9.54566352
v -0.279735564 18.0241877 -10.0408276
v -9.30558395 18.0742042 -2.82843737
v 0.286880789 17.734806 -10.0408276
v 0.279735564 18.0241877 -10.0408276
v 0.783473936 17.734806 -9.54566352
v 0.787761071 17.589758 -9.54566352
v 3.52295325 17.5890434 -4.84910704
v 0.763467305 18.0270457 -9.54566352
v 3.5022321 17.733377 -4.84910704
v 8.83471362 17.5826127 -3.69944031
v 3.41291678 18.0363345 -4.84910704
v 0.260443456 18.1213627 -10.0008144
v 0.726312135 18.1220772 -9.52208427
v 3.36147116 18.1256499 -4.81552448
v -0.260443456 18.1213627 -10.0008144
v -0.726312135 18.1220772 -9.52208427
v -3.36361473 18.1256499 -4.81909709
v -8.47459427 18.1306515 -3.66371419
v -9.05764464 18.1356532 -3.35504046
v 0.646285613 18.161376 -9.46492247
v 0.218286628 18.161376 -9.90435382
v 0.000357261257 18.161376 -0.0839563953
v 3.28716082 18.161376 -4.7304963
v -0.218286628 18.161376 -9.90292477
v -0.646285613 18.161376 -9.46492247
v -3.29502057 18.161376 -4.74121414
v -8.41743247 18.161376 -3.57225531
v 8.41743247 18.161376 -3.57225531
v -8.96618576 18.161376 -3.29573509
v 8.96618576 18.161376 -3.29573509
v -9.11837905 18.161376 -2.83701164
v 8.47459427 18.1306515 -3.66371419
v -9.22269934 18.1385113 -2.83058094
v 8.545332 18.0534831 -3.69944031
v 9.05764464 18.1356532 -3.35504046
v -9.0054845 18.067059 -2.20037208
v -8.93831938 18.1349386 -2.23681273
v 8.78755513 17.7262318 -3.69944031
v -5.66866436 17.7298044 1.85239962
v 9.13910021 18.067059 -3.37719066
v 9.41133328 17.7240882 -3.37719066
v 9.46063534 17.5847563 -3.37719066
v 9.63855144 17.5861854 -2.82843737
v -5.52504533 18.0299038 1.85239962
v -6.21384504 17.7283753 7.25919147
v -6.24814212 17.5883289 7.25919147
v 9.58924939 17.7233737 -2.82843737
v 9.32201797 17.5847563 -2.20037208
v 9.30558395 18.0742042 -2.82843737
v -6.10095048 17.7298044 7.95370736
v -6.13524756 17.5876144 7.95370736
v -6.03950154 18.0599138 7.25919147
v -5.44501881 18.1249353 1.88812574
v 9.27414496 17.7233737 -2.20037208
v 5.70081787 17.5876144 1.85239962
v -5.63579632 17.7305189 8.29310555
v -5.66866436 17.5868999 8.29310555
v -5.93375221 18.0541976 7.95370736
v -4.94485305 17.7312334 8.18592717
v -4.97343395 17.5876144 8.18592717
v 0.000357261257 17.5904725 5.99448663
v -8.88258662 18.161376 -2.33041518
v -5.97019286 18.1342241 7.25847695
v -5.33712591 18.161376 1.98172819
v -5.49360634 18.0306184 8.29310555
v -5.87230328 18.161376 7.25633338
v -5.86301448 18.1320806 7.93584429
v -5.76798299 18.161376 7.88797129
v -5.4478769 18.1227918 8.24951968
v -4.82338423 18.0213296 8.18592717
v -5.4257267 18.161376 8.14448487
v -4.8098083 18.161376 8.03945006
v 0.000357261257 18.161376 5.84300785
v 4.8098083 18.161376 8.03945006
v -4.79623237 18.1192192 8.14162678
v 0.000357261257 17.734806 5.99448663
v 0.000357261257 18.1206482 5.94947171
v 0.000357261257 18.0234731 5.99448663
v 4.94485305 17.7312334 8.18592717
v 4.97343395 17.5876144 8.18592717
v 4.79623237 18.1192192 8.14162678
v 4.82338423 18.0213296 8.18592717
v 5.63579632 17.7305189 8.29310555
v 5.66866436 17.5868999 8.29310555
v 5.4921773 18.0334765 8.29310555
v 6.10095048 17.7298044 7.95370736
v 6.13524756 17.5876144 7.95370736
v 5.44716238 18.1242208 8.2502342
v 5.93375221 18.0541976 7.95370736
v 6.21384504 17.7283753 7.25919147
v 6.24814212 17.5876144 7.25919147
v 5.4257267 18.161376 8.14734296
v 5.86301448 18.1320806 7.93584429
v 5.66866436 17.7298044 1.85239962
v 6.03950154 18.0599138 7.25919147
v 5.76798299 18.161376 7.88797129
v 5.5336196 18.0113263 1.85239962
v 5.97019286 18.1342241 7.25847695
v 9.0054845 18.067059 -2.20037208
v 5.87230328 18.161376 7.25633338
v 5.44216072 18.1199337 1.89384192
v 8.9390339 18.1349386 -2.23538368
v 5.31783381 18.161376 2.0010203
v 9.22269934 18.1385113 -2.83058094
v 8.88473019 18.161376 -2.324699
v 9.11837905 18.161376 -2.83701164
v 13.3097681 11.814987 9.66999043
v 15.6469713 11.814987 5.08418494
v 15.8799056 10.2859088 5.15992433
v 13.5084054 10.2859088 9.81432398
v 16.6973194 10.2859088 0.000357261257
v 9.66999043 11.814987 13.3097681
v 9.81432398 10.2859088 13.5084054
v 16.4522381 11.814987 0.000357261257
v 15.8799056 10.2859088 -5.15992433
v 5.08418494 11.814987 15.6469713
v 5.15992433 10.2859088 15.8799056
v 15.6469713 11.814987 -5.08418494
v 13.5084054 10.2859088 -9.81432398
v 0.000357261257 11.814987 16.4522381
v 0.000357261257 10.2859088 16.6973194
v 13.3097681 11.814987 -9.66999043
v 9.81432398 10.2859088 -13.5084054
v -5.08418494 11.814987 15.6469713
v -5.15992433 10.2859088 15.8799056
v 9.66999043 11.814987 -13.3097681
v 5.15992433 10.2859088 -15.8799056
v -9.66999043 11.814987 13.3097681
v -9.81432398 10.2859088 13.5084054
v 5.08418494 11.814987 -15.6469713
v 0.000357261257 10.2859088 -16.6973194
v -13.3097681 11.814987 9.66999043
v -13.5084054 10.2859088 9.81432398
v 0.000357261257 11.814987 -16.4522381
v -5.15992433 10.2859088 -15.8799056
v -15.6469713 11.814987 5.08418494
v -15.8799056 10.2859088 5.15992433
v -5.08418494 11.814987 -15.6469713
v -9.81432398 10.2859088 -13.5084054
v -16.4522381 11.814987 0.000357261257
v -16.6973194 10.2859088 0.000357261257
v -9.66999043 11.814987 -13.3097681
v -13.5084054 10.2859088 -9.81432398
v -15.6469713 11.814987 -5.08418494
v -15.8799056 10.2859088 -5.15992433
v -13.3097681 11.814987 -9.66999043
v -14.9703184 13.1940155 4.86411201
v -15.7405737 13.1940155 0.000357261257
v -14.9703184 13.1940155 -4.86411201
v -12.7345775 13.1940155 -9.25199476
v -9.25199476 13.1940155 -12.7345775
v -4.86411201 13.1940155 -14.9703184
v -12.7345775 13.1940155 9.25199476
v 0.000357261257 13.1940155 -15.7405737
v -9.25199476 13.1940155 12.7345775
v 4.86411201 13.1940155 -14.9703184
v -4.86411201 13.1940155 14.9703184
v 9.25199476 13.1940155 -12.7345775
v 0.000357261257 13.1940155 15.7405737
v 12.7345775 13.1940155 -9.25199476
v 4.86411201 13.1940155 14.9703184
v 14.9703184 13.1940155 -4.86411201
v 9.25199476 13.1940155 12.7345775
v 15.7405737 13.1940155 0.000357261257
v 12.7345775 13.1940155 9.25199476
v 14.9703184 13.1940155 4.86411201
v 0.000357261257 14.2879494 14.6323493
v 4.52185573 14.2879494 13.9163977
v 8.60106475 14.2879494 11.8378517
v 11.8378517 14.2879494 8.60106475
v 13.9163977 14.2879494 4.52185573
v 14.6323493 14.2879494 0.000357261257
v -4.52185573 14.2879494 13.9163977
v 13.9163977 14.2879494 -4.52185573
v -8.60106475 14.2879494 11.8378517
v 11.8378517 14.2879494 -8.60106475
v -11.8378517 14.2879494 8.60106475
v 8.60106475 14.2879494 -11.8378517
v -13.9163977 14.2879494 4.52185573
v 4.52185573 14.2879494 -13.9163977
v -14.6323493 14.2879494 0.000357261257
v 0.000357261257 14.2879494 -14.6323493
v -13.9163977 14.2879494 -4.52185573
v -4.52185573 14.2879494 -13.9163977
v -11.8378517 14.2879494 -8.60106475
v -8.60106475 14.2879494 -11.8378517
v -13.2361723 14.9910396 0.000357261257
v -12.5881004 14.9910396 -4.09028413
v -10.7081916 14.9910396 -7.78007839
v -7.78007839 14.9910396 -10.7081916
v -4.09028413 14.9910396 -12.5881004
v 0.000357261257 14.9910396 -13.2361723
v -12.5881004 14.9910396 4.09028413
v 4.09028413 14.9910396 -12.5881004
v -10.7081916 14.9910396 7.78007839
v 7.78007839 14.9910396 -10.7081916
v -7.78007839 14.9910396 10.7081916
v 10.7081916 14.9910396 -7.78007839
v -4.09028413 14.9910396 12.5881004
v 12.5881004 14.9910396 -4.09028413
v 0.000357261257 14.9910396 13.2361723
v 13.2361723 14.9910396 0.000357261257
v 4.09028413 14.9910396 12.5881004
v 12.5881004 14.9910396 4.09028413
v 7.78007839 14.9910396 10.7081916
v 10.7081916 14.9910396 7.78007839
v -3.61226857 15.2332627 11.116184
v 0.000357261257 15.2332627 11.6885165
v 3.61226857 15.2332627 11.116184
v 6.87049123 15.2332627 9.4563482
v 0.000357261257 15.2332627 0.000357261257
v -6.87049123 15.2332627 9.4563482
v 9.4563482 15.2332627 6.87049123
v 11.116184 15.2332627 3.61226857
v -9.4563482 15.2332627 6.87049123
v 11.6885165 15.2332627 0.000357261257
v -11.116184 15.2332627 3.61226857
v 11.116184 15.2332627 -3.61226857
v -11.6885165 15.2332627 0.000357261257
v 9.4563482 15.2332627 -6.87049123
v -11.116184 15.2332627 -3.61226857
v 6.87049123 15.2332627 -9.4563482
v -9.4563482 15.2332627 -6.87049123
v 3.61226857 15.2332627 -11.116184
v -6.87049123 15.2332627 -9.4563482
v 0.000357261257 15.2332627 -11.6885165
v -3.61226857 15.2332627 -11.116184
vt 0.885708863 0.43317939
vt 0.855669433 0.472908958
vt 0.885708863 0.472908958
vt 0.855669433 0.43317939
vt 0.885708863 0.428334321
vt 0.855669433 0.428334321
vt 0.885708863 0.423489251
vt 0.855669433 0.423489251
vt 0.885708863 0.418644182
vt 0.855669433 0.418644182
vt 0.885708863 0.378914614
vt 0.855669433 0.378914614
vt 0.885708863 0.339185046
vt 0.855669433 0.339185046
vt 0.885708863 0.334339976
vt 0.855669433 0.334339976
vt 0.885708863 0.330463921
vt 0.855669433 0.330463921
vt 0.885708863 0.324649838
vt 0.855669433 0.324649838
vt 0.885708863 0.284920269
vt 0.855669433 0.284920269
vt 0.885708863 0.245190701
vt 0.855669433 0.245190701
vt 0.885708863 0.240345632
vt 0.855669433 0.240345632
vt 0.885708863 0.236469576
vt 0.855669433 0.236469576
vt 0.885708863 0.230655493
vt 0.855669433 0.230655493
vt 0.885708863 0.191894939
vt 0.855669433 0.191894939
vt 0.885708863 0.152165371
vt 0.855669433 0.152165371
vt 0.885708863 0.146351287
vt 0.855669433 0.146351287
vt 0.885708863 0.142475232
vt 0.855669433 0.142475232
vt 0.885708863 0.137630163
vt 0.855669433 0.137630163
vt 0.885708863 0.0979005944
vt 0.855669433 0.0979005944
vt 0.885708863 0.0581710262
vt 0.855669433 0.0581710262
vt 0.885708863 0.0533259569
vt 0.855669433 0.0533259569
vt 0.885708863 0.0484808876
vt 0.855669433 0.0484808876
vt 0.885708863 0.0436358183
vt 0.855669433 0.0436358183
vt 0.885708863 0.00390625
vt 0.855669433 0.00390625
vt 0.159917481 0.0368527212
vt 0.339185046 0.00390625
vt 0.159917481 0.00390625
vt 0.339185046 0.0368527212
vt 0.159917481 0.0697991925
vt 0.339185046 0.0697991925
vt 0.159917481 0.102745664
vt 0.339185046 0.102745664
vt 0.159917481 0.135692135
vt 0.339185046 0.135692135
vt 0.159917481 0.168638606
vt 0.339185046 0.168638606
vt 0.159917481 0.201585077
vt 0.339185046 0.201585077
vt 0.159917481 0.233562535
vt 0.339185046 0.233562535
vt 0.159917481 0.266509006
vt 0.339185046 0.266509006
vt 0.159917481 0.299455477
vt 0.339185046 0.299455477
vt 0.159917481 0.332401949
vt 0.339185046 0.332401949
vt 0.159917481 0.36534842
vt 0.339185046 0.36534842
vt 0.159917481 0.398294891
vt 0.339185046 0.398294891
vt 0.159917481 0.431241362
vt 0.339185046 0.431241362
vt 0.159917481 0.464187834
vt 0.339185046 0.464187834
vt 0.159917481 0.497134305
vt 0.339185046 0.497134305
vt 0.159917481 0.530080776
vt 0.339185046 0.530080776
vt 0.159917481 0.563027247
vt 0.339185046 0.563027247
vt 0.159917481 0.595973719
vt 0.339185046 0.595973719
vt 0.159917481 0.62892019
vt 0.339185046 0.62892019
vt 0.159917481 0.660897647
vt 0.339185046 0.660897647
vt 0.995207429 0.0397597628
vt 0.995207429 0.00390625
vt 0.91768632 0.00390625
vt 0.91768632 0.0397597628
vt 0.995207429 0.0765822895
vt 0.91768632 0.0765822895
vt 0.995207429 0.112435802
vt 0.91768632 0.112435802
vt 0.995207429 0.148289315
vt 0.91768632 0.148289315
vt 0.995207429 0.184142828
vt 0.91768632 0.184142828
vt 0.995207429 0.220965355
vt 0.91768632 0.220965355
vt 0.995207429 0.256818867
vt 0.91768632 0.256818867
vt 0.995207429 0.29267238
vt 0.91768632 0.29267238
vt 0.995207429 0.328525893
vt 0.91768632 0.328525893
vt 0.995207429 0.36534842
vt 0.91768632 0.36534842
vt 0.995207429 0.401201933
vt 0.91768632 0.401201933
vt 0.995207429 0.437055445
vt 0.91768632 0.437055445
vt 0.995207429 0.472908958
vt 0.91768632 0.472908958
vt 0.995207429 0.509731485
vt 0.91768632 0.509731485
vt 0.995207429 0.545584998
vt 0.91768632 0.545584998
vt 0.995207429 0.581438511
vt 0.91768632 0.581438511
vt 0.995207429 0.618261037
vt 0.91768632 0.618261037
vt 0.995207429 0.65411455
vt 0.91768632 0.65411455
vt 0.995207429 0.689968063
vt 0.91768632 0.689968063
vt 0.995207429 0.725821576
vt 0.91768632 0.725821576
vt 0.150227343 0.0446048321
vt 0.150227343 0.00390625
vt 0.148289315 0.00390625
vt 0.148289315 0.0446048321
vt 0.150227343 0.0843344004
vt 0.147320301 0.00390625
vt 0.148289315 0.0843344004
vt 0.150227343 0.125032983
vt 0.147320301 0.0446048321
vt 0.146351287 0.00390625
vt 0.148289315 0.125032983
vt 0.150227343 0.164762551
vt 0.147320301 0.0843344004
vt 0.146351287 0.0446048321
vt 0.148289315 0.164762551
vt 0.150227343 0.205461133
vt 0.147320301 0.125032983
vt 0.148289315 0.205461133
vt 0.150227343 0.245190701
vt 0.122125941 0.0446048321
vt 0.122125941 0.00390625
vt 0.118249885 0.00390625
vt 0.146351287 0.0843344004
vt 0.147320301 0.164762551
vt 0.148289315 0.245190701
vt 0.150227343 0.285889283
vt 0.118249885 0.0446048321
vt 0.113404816 0.00390625
vt 0.122125941 0.0843344004
vt 0.146351287 0.125032983
vt 0.147320301 0.205461133
vt 0.148289315 0.285889283
vt 0.150227343 0.325618852
vt 0.113404816 0.0446048321
vt 0.108559747 0.00390625
vt 0.118249885 0.0843344004
vt 0.122125941 0.125032983
vt 0.146351287 0.164762551
vt 0.147320301 0.245190701
vt 0.108559747 0.0446048321
vt 0.104683691 0.00390625
vt 0.122125941 0.164762551
vt 0.118249885 0.125032983
vt 0.113404816 0.0843344004
vt 0.146351287 0.205461133
vt 0.122125941 0.205461133
vt 0.118249885 0.164762551
vt 0.113404816 0.125032983
vt 0.108559747 0.0843344004
vt 0.104683691 0.0446048321
vt 0.0494499014 0.0446048321
vt 0.0494499014 0.00390625
vt 0.0446048321 0.00390625
vt 0.0446048321 0.0446048321
vt 0.0407287767 0.00390625
vt 0.0494499014 0.0843344004
vt 0.104683691 0.0843344004
vt 0.108559747 0.125032983
vt 0.113404816 0.164762551
vt 0.0407287767 0.0446048321
vt 0.0358837074 0.00390625
vt 0.0446048321 0.0843344004
vt 0.0494499014 0.125032983
vt 0.104683691 0.125032983
vt 0.0358837074 0.0446048321
vt 0.0320076519 0.00390625
vt 0.0407287767 0.0843344004
vt 0.0446048321 0.125032983
vt 0.108559747 0.164762551
vt 0.0494499014 0.164762551
vt 0.104683691 0.164762551
vt 0.0320076519 0.0446048321
vt 0.0358837074 0.0843344004
vt 0.0407287767 0.125032983
vt 0.0446048321 0.164762551
vt 0.0494499014 0.205461133
vt 0.00778230544 0.0446048321
vt 0.00778230544 0.00390625
vt 0.00681329158 0.00390625
vt 0.00681329158 0.0446048321
vt 0.00487526386 0.00390625
vt 0.00778230544 0.0843344004
vt 0.0320076519 0.0843344004
vt 0.0358837074 0.125032983
vt 0.0407287767 0.164762551
vt 0.00487526386 0.0446048321
vt 0.00390625 0.00390625
vt 0.00390625 0.0446048321
vt 0.00681329158 0.0843344004
vt 0.00487526386 0.0843344004
vt 0.00390625 0.0843344004
vt 0.00778230544 0.125032983
vt 0.0320076519 0.125032983
vt 0.00681329158 0.125032983
vt 0.00487526386 0.125032983
vt 0.00390625 0.125032983
vt 0.00778230544 0.164762551
vt 0.0358837074 0.164762551
vt 0.00681329158 0.164762551
vt 0.00487526386 0.164762551
vt 0.00390625 0.164762551
vt 0.0320076519 0.164762551
vt 0.00778230544 0.205461133
vt 0.00681329158 0.205461133
vt 0.00487526386 0.205461133
vt 0.00390625 0.205461133
vt 0.00487526386 0.245190701
vt 0.00390625 0.245190701
vt 0.00681329158 0.245190701
vt 0.00778230544 0.245190701
vt 0.0320076519 0.205461133
vt 0.0358837074 0.205461133
vt 0.00487526386 0.285889283
vt 0.00390625 0.285889283
vt 0.00681329158 0.285889283
vt 0.00778230544 0.285889283
vt 0.0320076519 0.245190701
vt 0.00487526386 0.325618852
vt 0.00390625 0.325618852
vt 0.00681329158 0.325618852
vt 0.00778230544 0.325618852
vt 0.00487526386 0.366317434
vt 0.00390625 0.366317434
vt 0.00681329158 0.366317434
vt 0.00487526386 0.406047002
vt 0.00390625 0.406047002
vt 0.0358837074 0.245190701
vt 0.0320076519 0.285889283
vt 0.00778230544 0.366317434
vt 0.00681329158 0.406047002
vt 0.00487526386 0.446745584
vt 0.00390625 0.446745584
vt 0.0358837074 0.285889283
vt 0.0320076519 0.325618852
vt 0.00778230544 0.406047002
vt 0.00681329158 0.446745584
vt 0.00487526386 0.487444166
vt 0.00390625 0.487444166
vt 0.0358837074 0.325618852
vt 0.0320076519 0.366317434
vt 0.00778230544 0.446745584
vt 0.00681329158 0.487444166
vt 0.00487526386 0.527173734
vt 0.00390625 0.527173734
vt 0.0358837074 0.366317434
vt 0.0320076519 0.406047002
vt 0.00778230544 0.487444166
vt 0.00681329158 0.527173734
vt 0.00487526386 0.567872317
vt 0.00390625 0.567872317
vt 0.0358837074 0.406047002
vt 0.0320076519 0.446745584
vt 0.00778230544 0.527173734
vt 0.00681329158 0.567872317
vt 0.00487526386 0.607601885
vt 0.00390625 0.607601885
vt 0.0358837074 0.446745584
vt 0.0320076519 0.487444166
vt 0.00778230544 0.567872317
vt 0.00681329158 0.607601885
vt 0.00487526386 0.648300467
vt 0.00390625 0.648300467
vt 0.0358837074 0.487444166
vt 0.0320076519 0.527173734
vt 0.00778230544 0.607601885
vt 0.00681329158 0.648300467
vt 0.00487526386 0.688030035
vt 0.00390625 0.688030035
vt 0.0358837074 0.527173734
vt 0.0320076519 0.567872317
vt 0.00778230544 0.648300467
vt 0.00681329158 0.688030035
vt 0.00487526386 0.728728617
vt 0.00390625 0.728728617
vt 0.0358837074 0.567872317
vt 0.0320076519 0.607601885
vt 0.00778230544 0.688030035
vt 0.00681329158 0.728728617
vt 0.00487526386 0.768458186
vt 0.00390625 0.768458186
vt 0.00487526386 0.809156768
vt 0.00390625 0.809156768
vt 0.00681329158 0.809156768
vt 0.00681329158 0.768458186
vt 0.00778230544 0.809156768
vt 0.00778230544 0.728728617
vt 0.00778230544 0.768458186
vt 0.0320076519 0.768458186
vt 0.0320076519 0.809156768
vt 0.0358837074 0.809156768
vt 0.0320076519 0.728728617
vt 0.0358837074 0.768458186
vt 0.0407287767 0.809156768
vt 0.0320076519 0.688030035
vt 0.0407287767 0.768458186
vt 0.0446048321 0.809156768
vt 0.0358837074 0.728728617
vt 0.0320076519 0.648300467
vt 0.0446048321 0.768458186
vt 0.0494499014 0.809156768
vt 0.0407287767 0.728728617
vt 0.0358837074 0.688030035
vt 0.0358837074 0.648300467
vt 0.0407287767 0.688030035
vt 0.0446048321 0.728728617
vt 0.0494499014 0.768458186
vt 0.0358837074 0.607601885
vt 0.0407287767 0.648300467
vt 0.0446048321 0.688030035
vt 0.0407287767 0.607601885
vt 0.104683691 0.768458186
vt 0.104683691 0.809156768
vt 0.108559747 0.809156768
vt 0.0494499014 0.728728617
vt 0.0446048321 0.648300467
vt 0.0407287767 0.567872317
vt 0.108559747 0.768458186
vt 0.113404816 0.809156768
vt 0.104683691 0.728728617
vt 0.0494499014 0.688030035
vt 0.0446048321 0.607601885
vt 0.0407287767 0.527173734
vt 0.113404816 0.768458186
vt 0.118249885 0.809156768
vt 0.104683691 0.688030035
vt 0.108559747 0.728728617
vt 0.0494499014 0.648300467
vt 0.0446048321 0.567872317
vt 0.118249885 0.768458186
vt 0.122125941 0.809156768
vt 0.113404816 0.728728617
vt 0.104683691 0.648300467
vt 0.108559747 0.688030035
vt 0.0494499014 0.607601885
vt 0.104683691 0.607601885
vt 0.108559747 0.648300467
vt 0.113404816 0.688030035
vt 0.118249885 0.728728617
vt 0.122125941 0.768458186
vt 0.146351287 0.768458186
vt 0.146351287 0.809156768
vt 0.147320301 0.809156768
vt 0.147320301 0.768458186
vt 0.148289315 0.809156768
vt 0.146351287 0.728728617
vt 0.122125941 0.728728617
vt 0.118249885 0.688030035
vt 0.113404816 0.648300467
vt 0.148289315 0.768458186
vt 0.150227343 0.809156768
vt 0.150227343 0.768458186
vt 0.147320301 0.728728617
vt 0.148289315 0.728728617
vt 0.150227343 0.728728617
vt 0.146351287 0.688030035
vt 0.122125941 0.688030035
vt 0.148289315 0.688030035
vt 0.150227343 0.688030035
vt 0.147320301 0.688030035
vt 0.148289315 0.648300467
vt 0.150227343 0.648300467
vt 0.146351287 0.648300467
vt 0.147320301 0.648300467
vt 0.118249885 0.648300467
vt 0.148289315 0.607601885
vt 0.150227343 0.607601885
vt 0.147320301 0.607601885
vt 0.122125941 0.648300467
vt 0.146351287 0.607601885
vt 0.148289315 0.567872317
vt 0.150227343 0.567872317
vt 0.147320301 0.567872317
vt 0.146351287 0.567872317
vt 0.122125941 0.607601885
vt 0.118249885 0.607601885
vt 0.148289315 0.527173734
vt 0.150227343 0.527173734
vt 0.147320301 0.527173734
vt 0.146351287 0.527173734
vt 0.122125941 0.567872317
vt 0.148289315 0.487444166
vt 0.150227343 0.487444166
vt 0.147320301 0.487444166
vt 0.146351287 0.487444166
vt 0.148289315 0.446745584
vt 0.150227343 0.446745584
vt 0.147320301 0.446745584
vt 0.148289315 0.406047002
vt 0.150227343 0.406047002
vt 0.118249885 0.567872317
vt 0.122125941 0.527173734
vt 0.146351287 0.446745584
vt 0.147320301 0.406047002
vt 0.148289315 0.366317434
vt 0.150227343 0.366317434
vt 0.118249885 0.527173734
vt 0.122125941 0.487444166
vt 0.146351287 0.406047002
vt 0.147320301 0.366317434
vt 0.148289315 0.325618852
vt 0.147320301 0.325618852
vt 0.147320301 0.285889283
vt 0.146351287 0.366317434
vt 0.122125941 0.446745584
vt 0.146351287 0.325618852
vt 0.146351287 0.245190701
vt 0.146351287 0.285889283
vt 0.122125941 0.406047002
vt 0.122125941 0.245190701
vt 0.122125941 0.366317434
vt 0.122125941 0.325618852
vt 0.122125941 0.285889283
vt 0.118249885 0.205461133
vt 0.118249885 0.245190701
vt 0.113404816 0.205461133
vt 0.118249885 0.285889283
vt 0.118249885 0.325618852
vt 0.113404816 0.245190701
vt 0.108559747 0.205461133
vt 0.113404816 0.285889283
vt 0.118249885 0.366317434
vt 0.108559747 0.245190701
vt 0.104683691 0.205461133
vt 0.113404816 0.325618852
vt 0.118249885 0.406047002
vt 0.108559747 0.285889283
vt 0.104683691 0.245190701
vt 0.0494499014 0.245190701
vt 0.113404816 0.366317434
vt 0.118249885 0.446745584
vt 0.108559747 0.325618852
vt 0.104683691 0.285889283
vt 0.113404816 0.406047002
vt 0.118249885 0.487444166
vt 0.108559747 0.366317434
vt 0.113404816 0.446745584
vt 0.113404816 0.487444166
vt 0.108559747 0.406047002
vt 0.104683691 0.325618852
vt 0.113404816 0.527173734
vt 0.108559747 0.446745584
vt 0.104683691 0.366317434
vt 0.113404816 0.567872317
vt 0.108559747 0.487444166
vt 0.104683691 0.406047002
vt 0.113404816 0.607601885
vt 0.108559747 0.527173734
vt 0.104683691 0.446745584
vt 0.108559747 0.607601885
vt 0.108559747 0.567872317
vt 0.104683691 0.567872317
vt 0.104683691 0.487444166
vt 0.104683691 0.527173734
vt 0.0494499014 0.567872317
vt 0.0494499014 0.527173734
vt 0.0446048321 0.527173734
vt 0.0494499014 0.487444166
vt 0.0446048321 0.487444166
vt 0.0407287767 0.487444166
vt 0.0407287767 0.446745584
vt 0.0494499014 0.446745584
vt 0.0446048321 0.446745584
vt 0.0407287767 0.406047002
vt 0.0494499014 0.406047002
vt 0.0446048321 0.406047002
vt 0.0407287767 0.366317434
vt 0.0494499014 0.366317434
vt 0.0446048321 0.366317434
vt 0.0407287767 0.325618852
vt 0.0494499014 0.325618852
vt 0.0446048321 0.325618852
vt 0.0407287767 0.285889283
vt 0.0494499014 0.285889283
vt 0.0446048321 0.285889283
vt 0.0407287767 0.245190701
vt 0.0446048321 0.245190701
vt 0.0407287767 0.205461133
vt 0.0446048321 0.205461133
vt 0.385697711 0.845979294
vt 0.381821655 0.845979294
vt 0.380852642 0.868266613
vt 0.432210376 0.70934834
vt 0.384728697 0.867297599
vt 0.392480808 0.884739849
vt 0.39538785 0.881832807
vt 0.414768127 0.89249196
vt 0.416706154 0.888615904
vt 0.560120206 0.877956752
vt 0.562058233 0.874080696
vt 0.672525814 0.969044055
vt 0.674463841 0.965167999
vt 0.69675116 0.975827152
vt 0.69675116 0.97292011
vt 0.717100451 0.969044055
vt 0.406047002 0.876018724
vt 0.423489251 0.878925766
vt 0.565934289 0.866328586
vt 0.678339897 0.958384902
vt 0.69675116 0.965167999
vt 0.396356863 0.863421544
vt 0.714193409 0.966137013
vt 0.710317354 0.96032293
vt 0.72679059 0.946756736
vt 0.730666645 0.94772575
vt 0.758768047 0.806249726
vt 0.720007493 0.943849694
vt 0.755861005 0.804311698
vt 0.880863793 0.724852562
vt 0.747139881 0.800435643
vt 0.708379326 0.958384902
vt 0.717100451 0.94288068
vt 0.745201853 0.799466629
vt 0.695782146 0.963229972
vt 0.680277924 0.956446875
vt 0.566903303 0.863421544
vt 0.424458265 0.876987738
vt 0.40798503 0.874080696
vt 0.714193409 0.941911667
vt 0.707410312 0.956446875
vt 0.61147794 0.706441299
vt 0.742294811 0.797528601
vt 0.695782146 0.96032293
vt 0.681246938 0.953539833
vt 0.567872317 0.860514502
vt 0.425427279 0.874080696
vt 0.860514502 0.717100451
vt 0.409923057 0.871173655
vt 0.871173655 0.705472285
vt 0.401201933 0.861483516
vt 0.86245253 0.719038479
vt 0.399263905 0.86245253
vt 0.865359572 0.720007493
vt 0.874080696 0.705472285
vt 0.397325877 0.844041267
vt 0.400232919 0.845010281
vt 0.876987738 0.722914534
vt 0.436086432 0.708379326
vt 0.876987738 0.705472285
vt 0.888615904 0.705472285
vt 0.89249196 0.705472285
vt 0.891522946 0.686092008
vt 0.44577657 0.707410312
vt 0.376976586 0.575624427
vt 0.373100531 0.576593441
vt 0.888615904 0.688030035
vt 0.876987738 0.667680744
vt 0.876018724 0.690937077
vt 0.375038558 0.553337109
vt 0.371162503 0.552368095
vt 0.386666725 0.5736864
vt 0.448683612 0.706441299
vt 0.874080696 0.670587786
vt 0.750046922 0.595004705
vt 0.385697711 0.537832887
vt 0.381821655 0.534925845
vt 0.384728697 0.554306123
vt 0.406047002 0.529111762
vt 0.405077988 0.525235707
vt 0.548492039 0.532987818
vt 0.402170947 0.846948308
vt 0.389573766 0.572717386
vt 0.451590653 0.702565243
vt 0.392480808 0.541708942
vt 0.392480808 0.571748372
vt 0.386666725 0.554306123
vt 0.389573766 0.555275136
vt 0.394418836 0.54364697
vt 0.409923057 0.536863873
vt 0.396356863 0.545584998
vt 0.411861085 0.542677956
vt 0.555275136 0.550430067
vt 0.659928633 0.453528681
vt 0.410892071 0.539770915
vt 0.550430067 0.536863873
vt 0.554306123 0.547523026
vt 0.552368095 0.544615984
vt 0.656052578 0.438993473
vt 0.65411455 0.435117418
vt 0.658959619 0.45062164
vt 0.657990606 0.447714598
vt 0.678339897 0.432210376
vt 0.679308911 0.428334321
vt 0.674463841 0.439962487
vt 0.695782146 0.438024459
vt 0.698689188 0.435117418
vt 0.674463841 0.442869529
vt 0.688999049 0.444807556
vt 0.708379326 0.456435723
vt 0.712255382 0.455466709
vt 0.674463841 0.44577657
vt 0.687061021 0.446745584
vt 0.747139881 0.596942732
vt 0.698689188 0.461280792
vt 0.685122994 0.448683612
vt 0.73938777 0.601787802
vt 0.69675116 0.462249806
vt 0.863421544 0.676401869
vt 0.693844118 0.46321882
vt 0.735511714 0.602756816
vt 0.861483516 0.678339897
vt 0.730666645 0.601787802
vt 0.874080696 0.690937077
vt 0.860514502 0.681246938
vt 0.871173655 0.691906091
vt 0.629889204 0.0930555251
vt 0.643455398 0.135692135
vt 0.656052578 0.133754107
vt 0.640548356 0.087241442
vt 0.656052578 0.1822048
vt 0.602756816 0.0562329984
vt 0.61147794 0.0475118737
vt 0.643455398 0.180266773
vt 0.640548356 0.228717466
vt 0.566903303 0.0300696242
vt 0.572717386 0.0194104718
vt 0.629889204 0.222903382
vt 0.61147794 0.268447034
vt 0.524266693 0.0165034302
vt 0.526204721 0.00390625
vt 0.602756816 0.259725909
vt 0.572717386 0.296548436
vt 0.478723041 0.0165034302
vt 0.477754028 0.00390625
vt 0.566903303 0.285889283
vt 0.526204721 0.312052658
vt 0.436086432 0.0300696242
vt 0.431241362 0.0194104718
vt 0.524266693 0.299455477
vt 0.477754028 0.312052658
vt 0.400232919 0.0562329984
vt 0.391511794 0.0475118737
vt 0.479692055 0.299455477
vt 0.431241362 0.296548436
vt 0.374069545 0.0930555251
vt 0.362441378 0.087241442
vt 0.437055445 0.285889283
vt 0.391511794 0.268447034
vt 0.359534337 0.135692135
vt 0.34790617 0.133754107
vt 0.400232919 0.259725909
vt 0.362441378 0.228717466
vt 0.359534337 0.180266773
vt 0.34790617 0.1822048
vt 0.374069545 0.222903382
vt 0.384728697 0.0988696083
vt 0.372131517 0.137630163
vt 0.372131517 0.178328745
vt 0.384728697 0.217089299
vt 0.408954044 0.251004784
vt 0.441900515 0.274261117
vt 0.408954044 0.0649541232
vt 0.481630083 0.286858297
vt 0.441900515 0.0416977905
vt 0.522328665 0.286858297
vt 0.480661069 0.0281315965
vt 0.56108922 0.274261117
vt 0.522328665 0.0281315965
vt 0.594035691 0.25003577
vt 0.56108922 0.0416977905
vt 0.618261037 0.217089299
vt 0.594035691 0.0649541232
vt 0.630858218 0.178328745
vt 0.618261037 0.0988696083
vt 0.630858218 0.137630163
vt 0.520390637 0.0407287767
vt 0.555275136 0.052356943
vt 0.585314566 0.0736752479
vt 0.607601885 0.103714678
vt 0.618261037 0.13956819
vt 0.618261037 0.176390717
vt 0.482599097 0.0407287767
vt 0.607601885 0.211275216
vt 0.447714598 0.052356943
vt 0.585314566 0.241314646
vt 0.417675168 0.0746442618
vt 0.555275136 0.263601965
vt 0.396356863 0.104683691
vt 0.520390637 0.275230131
vt 0.384728697 0.13956819
vt 0.483568111 0.275230131
vt 0.384728697 0.176390717
vt 0.447714598 0.263601965
vt 0.396356863 0.21224423
vt 0.417675168 0.241314646
vt 0.397325877 0.141506218
vt 0.397325877 0.174452689
vt 0.407016016 0.206430147
vt 0.426396293 0.232593521
vt 0.453528681 0.251973798
vt 0.485506138 0.262632951
vt 0.407016016 0.109528761
vt 0.51845261 0.262632951
vt 0.426396293 0.0833653865
vt 0.549461053 0.251973798
vt 0.453528681 0.0639851093
vt 0.576593441 0.232593521
vt 0.484537125 0.0533259569
vt 0.595973719 0.205461133
vt 0.51845261 0.0533259569
vt 0.606632871 0.174452689
vt 0.549461053 0.0630160955
vt 0.606632871 0.141506218
vt 0.576593441 0.0833653865
vt 0.595973719 0.109528761
vt 0.487444166 0.065923137
vt 0.516514582 0.065923137
vt 0.54364697 0.0746442618
vt 0.567872317 0.0920865113
vt 0.501979374 0.157979454
vt 0.459342764 0.0746442618
vt 0.585314566 0.115342844
vt 0.594035691 0.143444246
vt 0.435117418 0.0920865113
vt 0.594035691 0.172514662
vt 0.418644182 0.115342844
vt 0.585314566 0.200616064
vt 0.408954044 0.143444246
vt 0.567872317 0.223872396
vt 0.408954044 0.172514662
vt 0.544615984 0.241314646
vt 0.418644182 0.200616064
vt 0.516514582 0.25003577
vt 0.436086432 0.223872396
vt 0.487444166 0.25003577
vt 0.459342764 0.241314646
g item_02item_02_mobile_0
f 3/3/3 2/2/2 1/1/1
f 2/2/2 4/4/4 1/1/1
f 1/1/1 4/4/4 5/5/5
f 4/4/4 6/6/6 5/5/5
f 5/5/5 6/6/6 7/7/7
f 6/6/6 8/8/8 7/7/7
f 7/7/7 8/8/8 9/9/9
f 8/8/8 10/10/10 9/9/9
f 9/9/9 10/10/10 11/11/11
f 10/10/10 12/12/12 11/11/11
f 11/11/11 12/12/12 13/13/13
f 12/12/12 14/14/14 13/13/13
f 13/13/13 14/14/14 15/15/15
f 14/14/14 16/16/16 15/15/15
f 15/15/15 16/16/16 17/17/17
f 16/16/16 18/18/18 17/17/17
f 17/17/17 18/18/18 19/19/19
f 18/18/18 20/20/20 19/19/19
f 19/19/19 20/20/20 21/21/21
f 20/20/20 22/22/22 21/21/21
f 21/21/21 22/22/22 23/23/23
f 22/22/22 24/24/24 23/23/23
f 23/23/23 24/24/24 25/25/25
f 24/24/24 26/26/26 25/25/25
f 25/25/25 26/26/26 27/27/27
f 26/26/26 28/28/28 27/27/27
f 27/27/27 28/28/28 29/29/29
f 28/28/28 30/30/30 29/29/29
f 29/29/29 30/30/30 31/31/31
f 30/30/30 32/32/32 31/31/31
f 31/31/31 32/32/32 33/33/33
f 32/32/32 34/34/34 33/33/33
f 33/33/33 34/34/34 35/35/35
f 34/34/34 36/36/36 35/35/35
f 35/35/35 36/36/36 37/37/37
f 36/36/36 38/38/38 37/37/37
f 37/37/37 38/38/38 39/39/39
f 38/38/38 40/40/40 39/39/39
f 39/39/39 40/40/40 41/41/41
f 40/40/40 42/42/42 41/41/41
f 41/41/41 42/42/42 43/43/43
f 42/42/42 44/44/44 43/43/43
f 43/43/43 44/44/44 45/45/45
f 44/44/44 46/46/46 45/45/45
f 45/45/45 46/46/46 47/47/47
f 46/46/46 48/48/48 47/47/47
f 47/47/47 48/48/48 49/49/49
f 48/48/48 50/50/50 49/49/49
f 49/49/49 50/50/50 51/51/51
f 50/50/50 52/52/52 51/51/51
f 55/55/55 54/54/54 53/53/53
f 54/54/54 56/56/56 53/53/53
f 53/53/53 56/56/56 57/57/57
f 56/56/56 58/58/58 57/57/57
f 57/57/57 58/58/58 59/59/59
f 58/58/58 60/60/60 59/59/59
f 59/59/59 60/60/60 61/61/61
f 60/60/60 62/62/62 61/61/61
f 61/61/61 62/62/62 63/63/63
f 62/62/62 64/64/64 63/63/63
f 63/63/63 64/64/64 65/65/65
f 64/64/64 66/66/66 65/65/65
f 65/65/65 66/66/66 67/67/67
f 66/66/66 68/68/68 67/67/67
f 67/67/67 68/68/68 69/69/69
f 68/68/68 70/70/70 69/69/69
f 69/69/69 70/70/70 71/71/71
f 70/70/70 72/72/72 71/71/71
f 71/71/71 72/72/72 73/73/73
f 72/72/72 74/74/74 73/73/73
f 73/73/73 74/74/74 75/75/75
f 74/74/74 76/76/76 75/75/75
f 75/75/75 76/76/76 77/77/77
f 76/76/76 78/78/78 77/77/77
f 77/77/77 78/78/78 79/79/79
f 78/78/78 80/80/80 79/79/79
f 79/79/79 80/80/80 81/81/81
f 80/80/80 82/82/82 81/81/81
f 81/81/81 82/82/82 83/83/83
f 82/82/82 84/84/84 83/83/83
f 83/83/83 84/84/84 85/85/85
f 84/84/84 86/86/86 85/85/85
f 85/85/85 86/86/86 87/87/87
f 86/86/86 88/88/88 87/87/87
f 87/87/87 88/88/88 89/89/89
f 88/88/88 90/90/90 89/89/89
f 89/89/89 90/90/90 91/91/91
f 90/90/90 92/92/92 91/91/91
f 91/91/91 92/92/92 93/93/93
f 92/92/92 94/94/94 93/93/93
f 97/97/97 96/96/96 95/95/95
f 98/98/98 97/97/97 95/95/95
f 98/98/98 95/95/95 99/99/99
f 100/100/100 98/98/98 99/99/99
f 100/100/100 99/99/99 101/101/101
f 102/102/102 100/100/100 101/101/101
f 102/102/102 101/101/101 103/103/103
f 104/104/104 102/102/102 103/103/103
f 104/104/104 103/103/103 105/105/105
f 106/106/106 104/104/104 105/105/105
f 106/106/106 105/105/105 107/107/107
f 108/108/108 106/106/106 107/107/107
f 108/108/108 107/107/107 109/109/109
f 110/110/110 108/108/108 109/109/109
f 110/110/110 109/109/109 111/111/111
f 112/112/112 110/110/110 111/111/111
f 112/112/112 111/111/111 113/113/113
f 114/114/114 112/112/112 113/113/113
f 114/114/114 113/113/113 115/115/115
f 116/116/116 114/114/114 115/115/115
f 116/116/116 115/115/115 117/117/117
f 118/118/118 116/116/116 117/117/117
f 118/118/118 117/117/117 119/119/119
f 120/120/120 118/118/118 119/119/119
f 120/120/120 119/119/119 121/121/121
f 122/122/122 120/120/120 121/121/121
f 122/122/122 121/121/121 123/123/123
f 124/124/124 122/122/122 123/123/123
f 124/124/124 123/123/123 125/125/125
f 126/126/126 124/124/124 125/125/125
f 126/126/126 125/125/125 127/127/127
f 128/128/128 126/126/126 127/127/127
f 128/128/128 127/127/127 129/129/129
f 130/130/130 128/128/128 129/129/129
f 130/130/130 129/129/129 131/131/131
f 132/132/132 130/130/130 131/131/131
f 132/132/132 131/131/131 133/133/133
f 134/134/134 132/132/132 133/133/133
f 134/134/134 133/133/133 135/135/135
f 136/136/136 134/134/134 135/135/135
f 139/139/139 138/138/138 137/137/137
f 140/140/140 139/139/139 137/137/137
f 140/140/140 137/137/137 141/141/141
f 142/142/142 139/139/139 140/140/140
f 143/143/143 140/140/140 141/141/141
f 143/143/143 141/141/141 144/144/144
f 145/145/145 142/142/142 140/140/140
f 145/145/145 140/140/140 143/143/143
f 146/146/146 142/142/142 145/145/145
f 147/147/147 143/143/143 144/144/144
f 147/147/147 144/144/144 148/148/148
f 149/149/149 145/145/145 143/143/143
f 149/149/149 143/143/143 147/147/147
f 150/150/150 146/146/146 145/145/145
f 150/150/150 145/145/145 149/149/149
f 151/151/151 147/147/147 148/148/148
f 151/151/151 148/148/148 152/152/152
f 153/153/153 149/149/149 147/147/147
f 153/153/153 147/147/147 151/151/151
f 154/154/154 151/151/151 152/152/152
f 154/154/154 152/152/152 155/155/155
f 150/150/150 156/156/156 146/146/146
f 156/156/156 157/157/157 146/146/146
f 158/158/158 157/157/157 156/156/156
f 159/159/159 150/150/150 149/149/149
f 159/159/159 149/149/149 153/153/153
f 160/160/160 153/153/153 151/151/151
f 160/160/160 151/151/151 154/154/154
f 161/161/161 154/154/154 155/155/155
f 161/161/161 155/155/155 162/162/162
f 163/163/163 158/158/158 156/156/156
f 164/164/164 158/158/158 163/163/163
f 165/165/165 156/156/156 150/150/150
f 159/159/159 165/165/165 150/150/150
f 163/163/163 156/156/156 165/165/165
f 166/166/166 159/159/159 153/153/153
f 166/166/166 153/153/153 160/160/160
f 167/167/167 160/160/160 154/154/154
f 167/167/167 154/154/154 161/161/161
f 168/168/168 161/161/161 162/162/162
f 168/168/168 162/162/162 169/169/169
f 170/170/170 164/164/164 163/163/163
f 171/171/171 164/164/164 170/170/170
f 172/172/172 163/163/163 165/165/165
f 170/170/170 163/163/163 172/172/172
f 173/173/173 165/165/165 159/159/159
f 166/166/166 173/173/173 159/159/159
f 172/172/172 165/165/165 173/173/173
f 174/174/174 166/166/166 160/160/160
f 174/174/174 160/160/160 167/167/167
f 175/175/175 167/167/167 161/161/161
f 175/175/175 161/161/161 168/168/168
f 176/176/176 171/171/171 170/170/170
f 177/177/177 171/171/171 176/176/176
f 178/178/178 173/173/173 166/166/166
f 174/174/174 178/178/178 166/166/166
f 179/179/179 172/172/172 173/173/173
f 179/179/179 173/173/173 178/178/178
f 180/180/180 170/170/170 172/172/172
f 176/176/176 170/170/170 180/180/180
f 180/180/180 172/172/172 179/179/179
f 181/181/181 174/174/174 167/167/167
f 181/181/181 167/167/167 175/175/175
f 182/182/182 178/178/178 174/174/174
f 181/181/181 182/182/182 174/174/174
f 183/183/183 179/179/179 178/178/178
f 183/183/183 178/178/178 182/182/182
f 184/184/184 180/180/180 179/179/179
f 184/184/184 179/179/179 183/183/183
f 185/185/185 176/176/176 180/180/180
f 185/185/185 180/180/180 184/184/184
f 186/186/186 176/176/176 185/185/185
f 186/186/186 177/177/177 176/176/176
f 177/177/177 186/186/186 187/187/187
f 188/188/188 177/177/177 187/187/187
f 189/189/189 188/188/188 187/187/187
f 190/190/190 189/189/189 187/187/187
f 191/191/191 189/189/189 190/190/190
f 187/187/187 186/186/186 192/192/192
f 190/190/190 187/187/187 192/192/192
f 193/193/193 186/186/186 185/185/185
f 186/186/186 193/193/193 192/192/192
f 194/194/194 185/185/185 184/184/184
f 193/193/193 185/185/185 194/194/194
f 195/195/195 184/184/184 183/183/183
f 194/194/194 184/184/184 195/195/195
f 196/196/196 191/191/191 190/190/190
f 197/197/197 191/191/191 196/196/196
f 198/198/198 190/190/190 192/192/192
f 196/196/196 190/190/190 198/198/198
f 192/192/192 193/193/193 199/199/199
f 198/198/198 192/192/192 199/199/199
f 200/200/200 193/193/193 194/194/194
f 193/193/193 200/200/200 199/199/199
f 201/201/201 197/197/197 196/196/196
f 202/202/202 197/197/197 201/201/201
f 203/203/203 196/196/196 198/198/198
f 201/201/201 196/196/196 203/203/203
f 204/204/204 198/198/198 199/199/199
f 203/203/203 198/198/198 204/204/204
f 205/205/205 194/194/194 195/195/195
f 200/200/200 194/194/194 205/205/205
f 199/199/199 200/200/200 206/206/206
f 204/204/204 199/199/199 206/206/206
f 207/207/207 200/200/200 205/205/205
f 200/200/200 207/207/207 206/206/206
f 208/208/208 202/202/202 201/201/201
f 209/209/209 201/201/201 203/203/203
f 208/208/208 201/201/201 209/209/209
f 210/210/210 203/203/203 204/204/204
f 209/209/209 203/203/203 210/210/210
f 211/211/211 204/204/204 206/206/206
f 210/210/210 204/204/204 211/211/211
f 206/206/206 207/207/207 212/212/212
f 211/211/211 206/206/206 212/212/212
f 202/202/202 208/208/208 213/213/213
f 214/214/214 202/202/202 213/213/213
f 215/215/215 214/214/214 213/213/213
f 216/216/216 215/215/215 213/213/213
f 217/217/217 215/215/215 216/216/216
f 213/213/213 208/208/208 218/218/218
f 216/216/216 213/213/213 218/218/218
f 219/219/219 208/208/208 209/209/209
f 208/208/208 219/219/219 218/218/218
f 220/220/220 209/209/209 210/210/210
f 219/219/219 209/209/209 220/220/220
f 221/221/221 210/210/210 211/211/211
f 220/220/220 210/210/210 221/221/221
f 222/222/222 217/217/217 216/216/216
f 223/223/223 217/217/217 222/222/222
f 224/224/224 223/223/223 222/222/222
f 225/225/225 216/216/216 218/218/218
f 222/222/222 216/216/216 225/225/225
f 224/224/224 222/222/222 226/226/226
f 226/226/226 222/222/222 225/225/225
f 227/227/227 224/224/224 226/226/226
f 218/218/218 219/219/219 228/228/228
f 225/225/225 218/218/218 228/228/228
f 229/229/229 219/219/219 220/220/220
f 219/219/219 229/229/229 228/228/228
f 226/226/226 225/225/225 230/230/230
f 230/230/230 225/225/225 228/228/228
f 227/227/227 226/226/226 231/231/231
f 231/231/231 226/226/226 230/230/230
f 232/232/232 227/227/227 231/231/231
f 230/230/230 228/228/228 233/233/233
f 228/228/228 229/229/229 233/233/233
f 229/229/229 220/220/220 234/234/234
f 234/234/234 220/220/220 221/221/221
f 231/231/231 230/230/230 235/235/235
f 235/235/235 230/230/230 233/233/233
f 232/232/232 231/231/231 236/236/236
f 236/236/236 231/231/231 235/235/235
f 237/237/237 232/232/232 236/236/236
f 229/229/229 238/238/238 233/233/233
f 238/238/238 229/229/229 234/234/234
f 235/235/235 233/233/233 239/239/239
f 233/233/233 238/238/238 239/239/239
f 236/236/236 235/235/235 240/240/240
f 240/240/240 235/235/235 239/239/239
f 237/237/237 236/236/236 241/241/241
f 241/241/241 236/236/236 240/240/240
f 242/242/242 237/237/237 241/241/241
f 242/242/242 241/241/241 243/243/243
f 244/244/244 242/242/242 243/243/243
f 241/241/241 240/240/240 245/245/245
f 243/243/243 241/241/241 245/245/245
f 240/240/240 239/239/239 246/246/246
f 245/245/245 240/240/240 246/246/246
f 238/238/238 247/247/247 239/239/239
f 239/239/239 247/247/247 246/246/246
f 238/238/238 234/234/234 248/248/248
f 247/247/247 238/238/238 248/248/248
f 244/244/244 243/243/243 249/249/249
f 250/250/250 244/244/244 249/249/249
f 243/243/243 245/245/245 251/251/251
f 249/249/249 243/243/243 251/251/251
f 245/245/245 246/246/246 252/252/252
f 251/251/251 245/245/245 252/252/252
f 247/247/247 253/253/253 246/246/246
f 246/246/246 253/253/253 252/252/252
f 250/250/250 249/249/249 254/254/254
f 255/255/255 250/250/250 254/254/254
f 249/249/249 251/251/251 256/256/256
f 254/254/254 249/249/249 256/256/256
f 251/251/251 252/252/252 257/257/257
f 256/256/256 251/251/251 257/257/257
f 255/255/255 254/254/254 258/258/258
f 259/259/259 255/255/255 258/258/258
f 254/254/254 256/256/256 260/260/260
f 258/258/258 254/254/254 260/260/260
f 259/259/259 258/258/258 261/261/261
f 262/262/262 259/259/259 261/261/261
f 253/253/253 247/247/247 263/263/263
f 247/247/247 248/248/248 263/263/263
f 253/253/253 264/264/264 252/252/252
f 252/252/252 264/264/264 257/257/257
f 256/256/256 257/257/257 265/265/265
f 260/260/260 256/256/256 265/265/265
f 258/258/258 260/260/260 266/266/266
f 261/261/261 258/258/258 266/266/266
f 262/262/262 261/261/261 267/267/267
f 268/268/268 262/262/262 267/267/267
f 253/253/253 263/263/263 269/269/269
f 264/264/264 253/253/253 269/269/269
f 264/264/264 270/270/270 257/257/257
f 257/257/257 270/270/270 265/265/265
f 260/260/260 265/265/265 271/271/271
f 266/266/266 260/260/260 271/271/271
f 261/261/261 266/266/266 272/272/272
f 267/267/267 261/261/261 272/272/272
f 267/267/267 273/273/273 268/268/268
f 273/273/273 274/274/274 268/268/268
f 264/264/264 269/269/269 275/275/275
f 270/270/270 264/264/264 275/275/275
f 270/270/270 276/276/276 265/265/265
f 265/265/265 276/276/276 271/271/271
f 266/266/266 271/271/271 277/277/277
f 272/272/272 266/266/266 277/277/277
f 272/272/272 278/278/278 267/267/267
f 278/278/278 273/273/273 267/267/267
f 274/274/274 273/273/273 279/279/279
f 280/280/280 274/274/274 279/279/279
f 270/270/270 275/275/275 281/281/281
f 276/276/276 270/270/270 281/281/281
f 276/276/276 282/282/282 271/271/271
f 271/271/271 282/282/282 277/277/277
f 277/277/277 283/283/283 272/272/272
f 283/283/283 278/278/278 272/272/272
f 273/273/273 278/278/278 284/284/284
f 279/279/279 273/273/273 284/284/284
f 280/280/280 279/279/279 285/285/285
f 286/286/286 280/280/280 285/285/285
f 276/276/276 281/281/281 287/287/287
f 282/282/282 276/276/276 287/287/287
f 282/282/282 288/288/288 277/277/277
f 277/277/277 288/288/288 283/283/283
f 278/278/278 283/283/283 289/289/289
f 284/284/284 278/278/278 289/289/289
f 279/279/279 284/284/284 290/290/290
f 285/285/285 279/279/279 290/290/290
f 286/286/286 285/285/285 291/291/291
f 292/292/292 286/286/286 291/291/291
f 282/282/282 287/287/287 293/293/293
f 288/288/288 282/282/282 293/293/293
f 288/288/288 294/294/294 283/283/283
f 283/283/283 294/294/294 289/289/289
f 284/284/284 289/289/289 295/295/295
f 290/290/290 284/284/284 295/295/295
f 285/285/285 290/290/290 296/296/296
f 291/291/291 285/285/285 296/296/296
f 292/292/292 291/291/291 297/297/297
f 298/298/298 292/292/292 297/297/297
f 293/293/293 299/299/299 288/288/288
f 299/299/299 294/294/294 288/288/288
f 294/294/294 300/300/300 289/289/289
f 289/289/289 300/300/300 295/295/295
f 290/290/290 295/295/295 301/301/301
f 296/296/296 290/290/290 301/301/301
f 291/291/291 296/296/296 302/302/302
f 297/297/297 291/291/291 302/302/302
f 298/298/298 297/297/297 303/303/303
f 304/304/304 298/298/298 303/303/303
f 294/294/294 299/299/299 305/305/305
f 300/300/300 294/294/294 305/305/305
f 300/300/300 306/306/306 295/295/295
f 295/295/295 306/306/306 301/301/301
f 296/296/296 301/301/301 307/307/307
f 302/302/302 296/296/296 307/307/307
f 297/297/297 302/302/302 308/308/308
f 303/303/303 297/297/297 308/308/308
f 304/304/304 303/303/303 309/309/309
f 310/310/310 304/304/304 309/309/309
f 300/300/300 305/305/305 311/311/311
f 306/306/306 300/300/300 311/311/311
f 306/306/306 312/312/312 301/301/301
f 301/301/301 312/312/312 307/307/307
f 302/302/302 307/307/307 313/313/313
f 308/308/308 302/302/302 313/313/313
f 303/303/303 308/308/308 314/314/314
f 309/309/309 303/303/303 314/314/314
f 310/310/310 309/309/309 315/315/315
f 316/316/316 310/310/310 315/315/315
f 316/316/316 315/315/315 317/317/317
f 318/318/318 316/316/316 317/317/317
f 317/317/317 315/315/315 319/319/319
f 315/315/315 309/309/309 320/320/320
f 315/315/315 320/320/320 319/319/319
f 309/309/309 314/314/314 320/320/320
f 319/319/319 320/320/320 321/321/321
f 314/314/314 308/308/308 322/322/322
f 308/308/308 313/313/313 322/322/322
f 320/320/320 314/314/314 323/323/323
f 320/320/320 323/323/323 321/321/321
f 314/314/314 322/322/322 323/323/323
f 323/323/323 324/324/324 321/321/321
f 324/324/324 325/325/325 321/321/321
f 325/325/325 324/324/324 326/326/326
f 322/322/322 327/327/327 323/323/323
f 327/327/327 324/324/324 323/323/323
f 324/324/324 328/328/328 326/326/326
f 324/324/324 327/327/327 328/328/328
f 326/326/326 328/328/328 329/329/329
f 313/313/313 330/330/330 322/322/322
f 330/330/330 327/327/327 322/322/322
f 328/328/328 331/331/331 329/329/329
f 329/329/329 331/331/331 332/332/332
f 327/327/327 333/333/333 328/328/328
f 327/327/327 330/330/330 333/333/333
f 328/328/328 333/333/333 331/331/331
f 334/334/334 330/330/330 313/313/313
f 307/307/307 334/334/334 313/313/313
f 312/312/312 334/334/334 307/307/307
f 331/331/331 335/335/335 332/332/332
f 332/332/332 335/335/335 336/336/336
f 333/333/333 337/337/337 331/331/331
f 331/331/331 337/337/337 335/335/335
f 330/330/330 338/338/338 333/333/333
f 330/330/330 334/334/334 338/338/338
f 333/333/333 338/338/338 337/337/337
f 334/334/334 312/312/312 339/339/339
f 334/334/334 339/339/339 338/338/338
f 338/338/338 340/340/340 337/337/337
f 338/338/338 339/339/339 340/340/340
f 337/337/337 341/341/341 335/335/335
f 337/337/337 340/340/340 341/341/341
f 335/335/335 342/342/342 336/336/336
f 335/335/335 341/341/341 342/342/342
f 312/312/312 343/343/343 339/339/339
f 312/312/312 306/306/306 343/343/343
f 306/306/306 311/311/311 343/343/343
f 339/339/339 344/344/344 340/340/340
f 339/339/339 343/343/343 344/344/344
f 340/340/340 345/345/345 341/341/341
f 340/340/340 344/344/344 345/345/345
f 343/343/343 311/311/311 346/346/346
f 343/343/343 346/346/346 344/344/344
f 342/342/342 347/347/347 336/336/336
f 347/347/347 348/348/348 336/336/336
f 348/348/348 347/347/347 349/349/349
f 341/341/341 350/350/350 342/342/342
f 341/341/341 345/345/345 350/350/350
f 344/344/344 351/351/351 345/345/345
f 344/344/344 346/346/346 351/351/351
f 311/311/311 352/352/352 346/346/346
f 311/311/311 305/305/305 352/352/352
f 347/347/347 353/353/353 349/349/349
f 349/349/349 353/353/353 354/354/354
f 355/355/355 347/347/347 342/342/342
f 350/350/350 355/355/355 342/342/342
f 347/347/347 355/355/355 353/353/353
f 345/345/345 356/356/356 350/350/350
f 345/345/345 351/351/351 356/356/356
f 346/346/346 357/357/357 351/351/351
f 346/346/346 352/352/352 357/357/357
f 305/305/305 358/358/358 352/352/352
f 305/305/305 299/299/299 358/358/358
f 353/353/353 359/359/359 354/354/354
f 354/354/354 359/359/359 360/360/360
f 361/361/361 355/355/355 350/350/350
f 356/356/356 361/361/361 350/350/350
f 355/355/355 362/362/362 353/353/353
f 353/353/353 362/362/362 359/359/359
f 355/355/355 361/361/361 362/362/362
f 351/351/351 363/363/363 356/356/356
f 351/351/351 357/357/357 363/363/363
f 352/352/352 364/364/364 357/357/357
f 352/352/352 358/358/358 364/364/364
f 359/359/359 365/365/365 360/360/360
f 360/360/360 365/365/365 366/366/366
f 362/362/362 367/367/367 359/359/359
f 359/359/359 367/367/367 365/365/365
f 368/368/368 361/361/361 356/356/356
f 363/363/363 368/368/368 356/356/356
f 361/361/361 369/369/369 362/362/362
f 362/362/362 369/369/369 367/367/367
f 361/361/361 368/368/368 369/369/369
f 357/357/357 370/370/370 363/363/363
f 357/357/357 364/364/364 370/370/370
f 371/371/371 368/368/368 363/363/363
f 370/370/370 371/371/371 363/363/363
f 368/368/368 372/372/372 369/369/369
f 368/368/368 371/371/371 372/372/372
f 369/369/369 373/373/373 367/367/367
f 369/369/369 372/372/372 373/373/373
f 367/367/367 374/374/374 365/365/365
f 367/367/367 373/373/373 374/374/374
f 365/365/365 374/374/374 375/375/375
f 365/365/365 375/375/375 366/366/366
f 366/366/366 375/375/375 376/376/376
f 377/377/377 366/366/366 376/376/376
f 377/377/377 376/376/376 378/378/378
f 376/376/376 379/379/379 378/378/378
f 378/378/378 379/379/379 380/380/380
f 376/376/376 375/375/375 381/381/381
f 376/376/376 381/381/381 379/379/379
f 374/374/374 382/382/382 375/375/375
f 375/375/375 382/382/382 381/381/381
f 373/373/373 383/383/383 374/374/374
f 374/374/374 383/383/383 382/382/382
f 372/372/372 384/384/384 373/373/373
f 373/373/373 384/384/384 383/383/383
f 379/379/379 385/385/385 380/380/380
f 380/380/380 385/385/385 386/386/386
f 385/385/385 387/387/387 386/386/386
f 381/381/381 388/388/388 379/379/379
f 379/379/379 388/388/388 385/385/385
f 385/385/385 389/389/389 387/387/387
f 388/388/388 389/389/389 385/385/385
f 389/389/389 390/390/390 387/387/387
f 381/381/381 382/382/382 391/391/391
f 381/381/381 391/391/391 388/388/388
f 383/383/383 392/392/392 382/382/382
f 382/382/382 392/392/392 391/391/391
f 389/389/389 393/393/393 390/390/390
f 393/393/393 394/394/394 390/390/390
f 388/388/388 395/395/395 389/389/389
f 391/391/391 395/395/395 388/388/388
f 395/395/395 393/393/393 389/389/389
f 393/393/393 396/396/396 394/394/394
f 396/396/396 397/397/397 394/394/394
f 391/391/391 398/398/398 395/395/395
f 391/391/391 392/392/392 398/398/398
f 395/395/395 399/399/399 393/393/393
f 399/399/399 396/396/396 393/393/393
f 398/398/398 399/399/399 395/395/395
f 383/383/383 400/400/400 392/392/392
f 384/384/384 400/400/400 383/383/383
f 396/396/396 401/401/401 397/397/397
f 401/401/401 402/402/402 397/397/397
f 399/399/399 403/403/403 396/396/396
f 403/403/403 401/401/401 396/396/396
f 392/392/392 404/404/404 398/398/398
f 400/400/400 404/404/404 392/392/392
f 398/398/398 405/405/405 399/399/399
f 405/405/405 403/403/403 399/399/399
f 398/398/398 404/404/404 405/405/405
f 401/401/401 406/406/406 402/402/402
f 406/406/406 407/407/407 402/402/402
f 403/403/403 408/408/408 401/401/401
f 408/408/408 406/406/406 401/401/401
f 405/405/405 409/409/409 403/403/403
f 409/409/409 408/408/408 403/403/403
f 404/404/404 410/410/410 405/405/405
f 405/405/405 410/410/410 409/409/409
f 400/400/400 411/411/411 404/404/404
f 411/411/411 410/410/410 404/404/404
f 406/406/406 412/412/412 407/407/407
f 412/412/412 413/413/413 407/407/407
f 408/408/408 414/414/414 406/406/406
f 414/414/414 412/412/412 406/406/406
f 409/409/409 415/415/415 408/408/408
f 415/415/415 414/414/414 408/408/408
f 410/410/410 416/416/416 409/409/409
f 409/409/409 416/416/416 415/415/415
f 412/412/412 417/417/417 413/413/413
f 417/417/417 418/418/418 413/413/413
f 414/414/414 419/419/419 412/412/412
f 419/419/419 417/417/417 412/412/412
f 415/415/415 420/420/420 414/414/414
f 420/420/420 419/419/419 414/414/414
f 418/418/418 417/417/417 421/421/421
f 422/422/422 418/418/418 421/421/421
f 417/417/417 419/419/419 423/423/423
f 421/421/421 417/417/417 423/423/423
f 422/422/422 421/421/421 424/424/424
f 425/425/425 422/422/422 424/424/424
f 426/426/426 416/416/416 410/410/410
f 411/411/411 426/426/426 410/410/410
f 416/416/416 427/427/427 415/415/415
f 415/415/415 427/427/427 420/420/420
f 419/419/419 420/420/420 428/428/428
f 423/423/423 419/419/419 428/428/428
f 421/421/421 423/423/423 429/429/429
f 424/424/424 421/421/421 429/429/429
f 424/424/424 430/430/430 425/425/425
f 430/430/430 431/431/431 425/425/425
f 426/426/426 432/432/432 416/416/416
f 432/432/432 427/427/427 416/416/416
f 427/427/427 433/433/433 420/420/420
f 420/420/420 433/433/433 428/428/428
f 423/423/423 428/428/428 434/434/434
f 429/429/429 423/423/423 434/434/434
f 429/429/429 435/435/435 424/424/424
f 435/435/435 430/430/430 424/424/424
f 430/430/430 436/436/436 431/431/431
f 436/436/436 169/169/169 431/431/431
f 436/436/436 168/168/168 169/169/169
f 437/437/437 436/436/436 430/430/430
f 435/435/435 437/437/437 430/430/430
f 438/438/438 168/168/168 436/436/436
f 437/437/437 438/438/438 436/436/436
f 438/438/438 175/175/175 168/168/168
f 439/439/439 435/435/435 429/429/429
f 434/434/434 439/439/439 429/429/429
f 428/428/428 440/440/440 434/434/434
f 433/433/433 440/440/440 428/428/428
f 441/441/441 437/437/437 435/435/435
f 439/439/439 441/441/441 435/435/435
f 442/442/442 175/175/175 438/438/438
f 442/442/442 181/181/181 175/175/175
f 443/443/443 438/438/438 437/437/437
f 441/441/441 443/443/443 437/437/437
f 443/443/443 442/442/442 438/438/438
f 434/434/434 444/444/444 439/439/439
f 440/440/440 444/444/444 434/434/434
f 442/442/442 445/445/445 181/181/181
f 445/445/445 182/182/182 181/181/181
f 439/439/439 446/446/446 441/441/441
f 444/444/444 446/446/446 439/439/439
f 441/441/441 447/447/447 443/443/443
f 446/446/446 447/447/447 441/441/441
f 443/443/443 448/448/448 442/442/442
f 448/448/448 445/445/445 442/442/442
f 447/447/447 448/448/448 443/443/443
f 449/449/449 182/182/182 445/445/445
f 449/449/449 183/183/183 182/182/182
f 195/195/195 183/183/183 449/449/449
f 450/450/450 445/445/445 448/448/448
f 450/450/450 449/449/449 445/445/445
f 451/451/451 195/195/195 449/449/449
f 451/451/451 449/449/449 450/450/450
f 205/205/205 195/195/195 451/451/451
f 452/452/452 448/448/448 447/447/447
f 452/452/452 450/450/450 448/448/448
f 453/453/453 447/447/447 446/446/446
f 453/453/453 452/452/452 447/447/447
f 454/454/454 451/451/451 450/450/450
f 454/454/454 450/450/450 452/452/452
f 455/455/455 205/205/205 451/451/451
f 455/455/455 451/451/451 454/454/454
f 207/207/207 205/205/205 455/455/455
f 456/456/456 454/454/454 452/452/452
f 456/456/456 452/452/452 453/453/453
f 457/457/457 453/453/453 446/446/446
f 457/457/457 446/446/446 444/444/444
f 458/458/458 455/455/455 454/454/454
f 458/458/458 454/454/454 456/456/456
f 459/459/459 207/207/207 455/455/455
f 459/459/459 455/455/455 458/458/458
f 207/207/207 459/459/459 212/212/212
f 460/460/460 456/456/456 453/453/453
f 460/460/460 453/453/453 457/457/457
f 461/461/461 457/457/457 444/444/444
f 444/444/444 440/440/440 461/461/461
f 462/462/462 458/458/458 456/456/456
f 462/462/462 456/456/456 460/460/460
f 463/463/463 459/459/459 458/458/458
f 463/463/463 458/458/458 462/462/462
f 212/212/212 459/459/459 464/464/464
f 459/459/459 463/463/463 464/464/464
f 465/465/465 460/460/460 457/457/457
f 465/465/465 457/457/457 461/461/461
f 440/440/440 466/466/466 461/461/461
f 440/440/440 433/433/433 466/466/466
f 467/467/467 462/462/462 460/460/460
f 467/467/467 460/460/460 465/465/465
f 468/468/468 463/463/463 462/462/462
f 468/468/468 462/462/462 467/467/467
f 469/469/469 465/465/465 461/461/461
f 461/461/461 466/466/466 469/469/469
f 433/433/433 470/470/470 466/466/466
f 470/470/470 433/433/433 427/427/427
f 432/432/432 470/470/470 427/427/427
f 471/471/471 467/467/467 465/465/465
f 471/471/471 465/465/465 469/469/469
f 466/466/466 472/472/472 469/469/469
f 466/466/466 470/470/470 472/472/472
f 473/473/473 470/470/470 432/432/432
f 470/470/470 473/473/473 472/472/472
f 469/469/469 472/472/472 474/474/474
f 474/474/474 471/471/471 469/469/469
f 475/475/475 467/467/467 471/471/471
f 475/475/475 468/468/468 467/467/467
f 476/476/476 473/473/473 432/432/432
f 476/476/476 432/432/432 426/426/426
f 472/472/472 473/473/473 477/477/477
f 472/472/472 477/477/477 474/474/474
f 478/478/478 471/471/471 474/474/474
f 478/478/478 475/475/475 471/471/471
f 479/479/479 476/476/476 426/426/426
f 479/479/479 426/426/426 411/411/411
f 480/480/480 473/473/473 476/476/476
f 473/473/473 480/480/480 477/477/477
f 474/474/474 477/477/477 481/481/481
f 481/481/481 478/478/478 474/474/474
f 482/482/482 479/479/479 411/411/411
f 482/482/482 411/411/411 400/400/400
f 384/384/384 482/482/482 400/400/400
f 483/483/483 476/476/476 479/479/479
f 483/483/483 480/480/480 476/476/476
f 477/477/477 480/480/480 484/484/484
f 477/477/477 484/484/484 481/481/481
f 485/485/485 482/482/482 384/384/384
f 372/372/372 485/485/485 384/384/384
f 371/371/371 485/485/485 372/372/372
f 486/486/486 479/479/479 482/482/482
f 485/485/485 486/486/486 482/482/482
f 486/486/486 483/483/483 479/479/479
f 371/371/371 487/487/487 485/485/485
f 487/487/487 486/486/486 485/485/485
f 487/487/487 371/371/371 370/370/370
f 488/488/488 480/480/480 483/483/483
f 480/480/480 488/488/488 484/484/484
f 489/489/489 483/483/483 486/486/486
f 487/487/487 489/489/489 486/486/486
f 489/489/489 488/488/488 483/483/483
f 490/490/490 487/487/487 370/370/370
f 489/489/489 487/487/487 490/490/490
f 364/364/364 490/490/490 370/370/370
f 488/488/488 489/489/489 491/491/491
f 491/491/491 489/489/489 490/490/490
f 364/364/364 492/492/492 490/490/490
f 492/492/492 491/491/491 490/490/490
f 358/358/358 492/492/492 364/364/364
f 484/484/484 488/488/488 493/493/493
f 493/493/493 488/488/488 491/491/491
f 492/492/492 494/494/494 491/491/491
f 494/494/494 493/493/493 491/491/491
f 358/358/358 495/495/495 492/492/492
f 495/495/495 494/494/494 492/492/492
f 299/299/299 495/495/495 358/358/358
f 495/495/495 299/299/299 293/293/293
f 496/496/496 495/495/495 293/293/293
f 494/494/494 495/495/495 496/496/496
f 293/293/293 287/287/287 496/496/496
f 497/497/497 484/484/484 493/493/493
f 481/481/481 484/484/484 497/497/497
f 493/493/493 494/494/494 498/498/498
f 498/498/498 494/494/494 496/496/496
f 497/497/497 493/493/493 498/498/498
f 287/287/287 499/499/499 496/496/496
f 496/496/496 499/499/499 498/498/498
f 287/287/287 281/281/281 499/499/499
f 500/500/500 481/481/481 497/497/497
f 478/478/478 481/481/481 500/500/500
f 498/498/498 501/501/501 497/497/497
f 499/499/499 501/501/501 498/498/498
f 501/501/501 500/500/500 497/497/497
f 281/281/281 502/502/502 499/499/499
f 499/499/499 502/502/502 501/501/501
f 281/281/281 275/275/275 502/502/502
f 503/503/503 478/478/478 500/500/500
f 475/475/475 478/478/478 503/503/503
f 501/501/501 504/504/504 500/500/500
f 502/502/502 504/504/504 501/501/501
f 504/504/504 503/503/503 500/500/500
f 275/275/275 505/505/505 502/502/502
f 502/502/502 505/505/505 504/504/504
f 275/275/275 269/269/269 505/505/505
f 506/506/506 475/475/475 503/503/503
f 468/468/468 475/475/475 506/506/506
f 504/504/504 507/507/507 503/503/503
f 505/505/505 507/507/507 504/504/504
f 507/507/507 506/506/506 503/503/503
f 269/269/269 508/508/508 505/505/505
f 505/505/505 508/508/508 507/507/507
f 269/269/269 263/263/263 508/508/508
f 509/509/509 468/468/468 506/506/506
f 463/463/463 468/468/468 509/509/509
f 464/464/464 463/463/463 509/509/509
f 507/507/507 510/510/510 506/506/506
f 508/508/508 510/510/510 507/507/507
f 510/510/510 509/509/509 506/506/506
f 263/263/263 511/511/511 508/508/508
f 508/508/508 511/511/511 510/510/510
f 263/263/263 248/248/248 511/511/511
f 510/510/510 512/512/512 509/509/509
f 512/512/512 464/464/464 509/509/509
f 511/511/511 512/512/512 510/510/510
f 248/248/248 513/513/513 511/511/511
f 511/511/511 513/513/513 512/512/512
f 248/248/248 234/234/234 513/513/513
f 234/234/234 221/221/221 513/513/513
f 512/512/512 514/514/514 464/464/464
f 513/513/513 514/514/514 512/512/512
f 513/513/513 221/221/221 514/514/514
f 514/514/514 212/212/212 464/464/464
f 221/221/221 211/211/211 514/514/514
f 514/514/514 211/211/211 212/212/212
f 517/517/517 516/516/516 515/515/515
f 515/515/515 516/516/516 518/518/518
f 519/519/519 517/517/517 515/515/515
f 520/520/520 517/517/517 519/519/519
f 521/521/521 520/520/520 519/519/519
f 522/522/522 520/520/520 521/521/521
f 523/523/523 522/522/522 521/521/521
f 524/524/524 522/522/522 523/523/523
f 525/525/525 524/524/524 523/523/523
f 524/524/524 525/525/525 526/526/526
f 525/525/525 527/527/527 526/526/526
f 526/526/526 527/527/527 528/528/528
f 527/527/527 529/529/529 528/528/528
f 528/528/528 529/529/529 530/530/530
f 521/521/521 519/519/519 531/531/531
f 523/523/523 521/521/521 532/532/532
f 521/521/521 531/531/531 532/532/532
f 533/533/533 525/525/525 523/523/523
f 532/532/532 533/533/533 523/523/523
f 534/534/534 527/527/527 525/525/525
f 533/533/533 534/534/534 525/525/525
f 535/535/535 529/529/529 527/527/527
f 534/534/534 535/535/535 527/527/527
f 519/519/519 536/536/536 531/531/531
f 519/519/519 515/515/515 536/536/536
f 529/529/529 537/537/537 530/530/530
f 535/535/535 538/538/538 529/529/529
f 538/538/538 537/537/537 529/529/529
f 537/537/537 539/539/539 530/530/530
f 539/539/539 540/540/540 530/530/530
f 541/541/541 540/540/540 539/539/539
f 538/538/538 542/542/542 537/537/537
f 542/542/542 539/539/539 537/537/537
f 543/543/543 541/541/541 539/539/539
f 541/541/541 543/543/543 544/544/544
f 542/542/542 545/545/545 539/539/539
f 545/545/545 543/543/543 539/539/539
f 546/546/546 538/538/538 535/535/535
f 542/542/542 538/538/538 547/547/547
f 538/538/538 546/546/546 547/547/547
f 545/545/545 542/542/542 548/548/548
f 542/542/542 547/547/547 548/548/548
f 549/549/549 546/546/546 535/535/535
f 549/549/549 535/535/535 534/534/534
f 550/550/550 549/549/549 534/534/534
f 550/550/550 534/534/534 533/533/533
f 551/551/551 550/550/550 533/533/533
f 533/533/533 532/532/532 551/551/551
f 532/532/532 552/552/552 551/551/551
f 532/532/532 531/531/531 552/552/552
f 531/531/531 553/553/553 552/552/552
f 531/531/531 536/536/536 553/553/553
f 547/547/547 546/546/546 554/554/554
f 555/555/555 546/546/546 549/549/549
f 546/546/546 555/555/555 554/554/554
f 555/555/555 556/556/556 554/554/554
f 554/554/554 556/556/556 557/557/557
f 547/547/547 554/554/554 557/557/557
f 548/548/548 547/547/547 557/557/557
f 558/558/558 555/555/555 549/549/549
f 558/558/558 556/556/556 555/555/555
f 558/558/558 549/549/549 550/550/550
f 559/559/559 558/558/558 550/550/550
f 559/559/559 556/556/556 558/558/558
f 559/559/559 550/550/550 551/551/551
f 560/560/560 559/559/559 551/551/551
f 560/560/560 556/556/556 559/559/559
f 551/551/551 552/552/552 560/560/560
f 552/552/552 561/561/561 560/560/560
f 561/561/561 556/556/556 560/560/560
f 552/552/552 553/553/553 561/561/561
f 557/557/557 556/556/556 562/562/562
f 557/557/557 562/562/562 548/548/548
f 563/563/563 556/556/556 561/561/561
f 553/553/553 563/563/563 561/561/561
f 562/562/562 556/556/556 564/564/564
f 565/565/565 556/556/556 563/563/563
f 562/562/562 566/566/566 548/548/548
f 566/566/566 562/562/562 564/564/564
f 548/548/548 566/566/566 545/545/545
f 553/553/553 567/567/567 563/563/563
f 567/567/567 565/565/565 563/563/563
f 536/536/536 567/567/567 553/553/553
f 566/566/566 568/568/568 545/545/545
f 545/545/545 568/568/568 543/543/543
f 569/569/569 566/566/566 564/564/564
f 568/568/568 566/566/566 569/569/569
f 536/536/536 570/570/570 567/567/567
f 515/515/515 570/570/570 536/536/536
f 567/567/567 571/571/571 565/565/565
f 570/570/570 571/571/571 567/567/567
f 568/568/568 572/572/572 543/543/543
f 543/543/543 572/572/572 544/544/544
f 570/570/570 515/515/515 573/573/573
f 573/573/573 515/515/515 518/518/518
f 572/572/572 568/568/568 574/574/574
f 574/574/574 568/568/568 569/569/569
f 572/572/572 575/575/575 544/544/544
f 575/575/575 572/572/572 574/574/574
f 575/575/575 576/576/576 544/544/544
f 577/577/577 576/576/576 575/575/575
f 578/578/578 570/570/570 573/573/573
f 570/570/570 578/578/578 571/571/571
f 579/579/579 573/573/573 518/518/518
f 578/578/578 573/573/573 579/579/579
f 580/580/580 579/579/579 518/518/518
f 581/581/581 577/577/577 575/575/575
f 582/582/582 577/577/577 581/581/581
f 575/575/575 574/574/574 583/583/583
f 581/581/581 575/575/575 583/583/583
f 579/579/579 580/580/580 584/584/584
f 580/580/580 585/585/585 584/584/584
f 586/586/586 578/578/578 579/579/579
f 579/579/579 584/584/584 586/586/586
f 578/578/578 587/587/587 571/571/571
f 578/578/578 586/586/586 587/587/587
f 588/588/588 582/582/582 581/581/581
f 582/582/582 588/588/588 589/589/589
f 584/584/584 585/585/585 590/590/590
f 585/585/585 591/591/591 590/590/590
f 584/584/584 592/592/592 586/586/586
f 584/584/584 590/590/590 592/592/592
f 590/590/590 591/591/591 593/593/593
f 591/591/591 594/594/594 593/593/593
f 593/593/593 594/594/594 595/595/595
f 571/571/571 587/587/587 596/596/596
f 571/571/571 596/596/596 565/565/565
f 596/596/596 556/556/556 565/565/565
f 586/586/586 597/597/597 587/587/587
f 586/586/586 592/592/592 597/597/597
f 587/587/587 598/598/598 596/596/596
f 598/598/598 556/556/556 596/596/596
f 587/587/587 597/597/597 598/598/598
f 590/590/590 599/599/599 592/592/592
f 590/590/590 593/593/593 599/599/599
f 597/597/597 600/600/600 598/598/598
f 600/600/600 556/556/556 598/598/598
f 592/592/592 601/601/601 597/597/597
f 597/597/597 601/601/601 600/600/600
f 592/592/592 599/599/599 601/601/601
f 601/601/601 602/602/602 600/600/600
f 602/602/602 556/556/556 600/600/600
f 599/599/599 603/603/603 601/601/601
f 601/601/601 603/603/603 602/602/602
f 593/593/593 604/604/604 599/599/599
f 599/599/599 604/604/604 603/603/603
f 605/605/605 556/556/556 602/602/602
f 603/603/603 605/605/605 602/602/602
f 606/606/606 556/556/556 605/605/605
f 607/607/607 556/556/556 606/606/606
f 608/608/608 556/556/556 607/607/607
f 603/603/603 609/609/609 605/605/605
f 609/609/609 606/606/606 605/605/605
f 604/604/604 609/609/609 603/603/603
f 604/604/604 593/593/593 610/610/610
f 610/610/610 593/593/593 595/595/595
f 611/611/611 607/607/607 606/606/606
f 609/609/609 611/611/611 606/606/606
f 604/604/604 612/612/612 609/609/609
f 612/612/612 604/604/604 610/610/610
f 612/612/612 611/611/611 609/609/609
f 613/613/613 610/610/610 595/595/595
f 612/612/612 610/610/610 613/613/613
f 614/614/614 613/613/613 595/595/595
f 611/611/611 615/615/615 607/607/607
f 615/615/615 608/608/608 607/607/607
f 612/612/612 616/616/616 611/611/611
f 616/616/616 612/612/612 613/613/613
f 616/616/616 615/615/615 611/611/611
f 613/613/613 614/614/614 617/617/617
f 613/613/613 617/617/617 616/616/616
f 614/614/614 618/618/618 617/617/617
f 616/616/616 619/619/619 615/615/615
f 617/617/617 619/619/619 616/616/616
f 617/617/617 618/618/618 620/620/620
f 617/617/617 620/620/620 619/619/619
f 618/618/618 621/621/621 620/620/620
f 615/615/615 622/622/622 608/608/608
f 619/619/619 622/622/622 615/615/615
f 620/620/620 623/623/623 619/619/619
f 619/619/619 623/623/623 622/622/622
f 620/620/620 621/621/621 624/624/624
f 620/620/620 624/624/624 623/623/623
f 621/621/621 625/625/625 624/624/624
f 624/624/624 625/625/625 589/589/589
f 622/622/622 626/626/626 608/608/608
f 626/626/626 556/556/556 608/608/608
f 623/623/623 627/627/627 622/622/622
f 622/622/622 627/627/627 626/626/626
f 628/628/628 624/624/624 589/589/589
f 588/588/588 628/628/628 589/589/589
f 624/624/624 629/629/629 623/623/623
f 629/629/629 624/624/624 628/628/628
f 623/623/623 629/629/629 627/627/627
f 627/627/627 630/630/630 626/626/626
f 630/630/630 556/556/556 626/626/626
f 631/631/631 628/628/628 588/588/588
f 631/631/631 629/629/629 628/628/628
f 629/629/629 632/632/632 627/627/627
f 627/627/627 632/632/632 630/630/630
f 629/629/629 631/631/631 632/632/632
f 633/633/633 631/631/631 588/588/588
f 588/588/588 581/581/581 633/633/633
f 581/581/581 583/583/583 633/633/633
f 632/632/632 634/634/634 630/630/630
f 634/634/634 556/556/556 630/630/630
f 631/631/631 635/635/635 632/632/632
f 631/631/631 633/633/633 635/635/635
f 632/632/632 635/635/635 634/634/634
f 633/633/633 583/583/583 636/636/636
f 633/633/633 636/636/636 635/635/635
f 635/635/635 637/637/637 634/634/634
f 637/637/637 556/556/556 634/634/634
f 635/635/635 636/636/636 637/637/637
f 583/583/583 638/638/638 636/636/636
f 583/583/583 574/574/574 638/638/638
f 574/574/574 569/569/569 638/638/638
f 636/636/636 639/639/639 637/637/637
f 639/639/639 556/556/556 637/637/637
f 636/636/636 638/638/638 639/639/639
f 638/638/638 569/569/569 640/640/640
f 638/638/638 640/640/640 639/639/639
f 640/640/640 556/556/556 639/639/639
f 569/569/569 564/564/564 640/640/640
f 564/564/564 556/556/556 640/640/640
f 643/643/643 642/642/642 641/641/641
f 644/644/644 643/643/643 641/641/641
f 643/643/643 645/645/645 642/642/642
f 644/644/644 641/641/641 646/646/646
f 647/647/647 644/644/644 646/646/646
f 645/645/645 648/648/648 642/642/642
f 648/648/648 645/645/645 649/649/649
f 647/647/647 646/646/646 650/650/650
f 651/651/651 647/647/647 650/650/650
f 652/652/652 648/648/648 649/649/649
f 649/649/649 653/653/653 652/652/652
f 651/651/651 650/650/650 654/654/654
f 655/655/655 651/651/651 654/654/654
f 653/653/653 656/656/656 652/652/652
f 653/653/653 657/657/657 656/656/656
f 655/655/655 654/654/654 658/658/658
f 659/659/659 655/655/655 658/658/658
f 657/657/657 660/660/660 656/656/656
f 657/657/657 661/661/661 660/660/660
f 659/659/659 658/658/658 662/662/662
f 663/663/663 659/659/659 662/662/662
f 661/661/661 664/664/664 660/660/660
f 661/661/661 665/665/665 664/664/664
f 663/663/663 662/662/662 666/666/666
f 667/667/667 663/663/663 666/666/666
f 665/665/665 668/668/668 664/664/664
f 665/665/665 669/669/669 668/668/668
f 667/667/667 666/666/666 670/670/670
f 671/671/671 667/667/667 670/670/670
f 669/669/669 672/672/672 668/668/668
f 669/669/669 673/673/673 672/672/672
f 671/671/671 670/670/670 674/674/674
f 675/675/675 671/671/671 674/674/674
f 673/673/673 676/676/676 672/672/672
f 673/673/673 677/677/677 676/676/676
f 675/675/675 674/674/674 678/678/678
f 679/679/679 675/675/675 678/678/678
f 677/677/677 679/679/679 680/680/680
f 677/677/677 680/680/680 676/676/676
f 679/679/679 678/678/678 680/680/680
f 670/670/670 666/666/666 681/681/681
f 674/674/674 670/670/670 682/682/682
f 670/670/670 681/681/681 682/682/682
f 678/678/678 674/674/674 683/683/683
f 674/674/674 682/682/682 683/683/683
f 680/680/680 678/678/678 684/684/684
f 678/678/678 683/683/683 684/684/684
f 676/676/676 680/680/680 685/685/685
f 680/680/680 684/684/684 685/685/685
f 672/672/672 676/676/676 686/686/686
f 676/676/676 685/685/685 686/686/686
f 666/666/666 687/687/687 681/681/681
f 666/666/666 662/662/662 687/687/687
f 672/672/672 686/686/686 688/688/688
f 668/668/668 672/672/672 688/688/688
f 662/662/662 689/689/689 687/687/687
f 662/662/662 658/658/658 689/689/689
f 668/668/668 688/688/688 690/690/690
f 664/664/664 668/668/668 690/690/690
f 658/658/658 691/691/691 689/689/689
f 658/658/658 654/654/654 691/691/691
f 664/664/664 690/690/690 692/692/692
f 660/660/660 664/664/664 692/692/692
f 654/654/654 693/693/693 691/691/691
f 654/654/654 650/650/650 693/693/693
f 660/660/660 692/692/692 694/694/694
f 656/656/656 660/660/660 694/694/694
f 650/650/650 695/695/695 693/693/693
f 650/650/650 646/646/646 695/695/695
f 656/656/656 694/694/694 696/696/696
f 652/652/652 656/656/656 696/696/696
f 646/646/646 697/697/697 695/695/695
f 646/646/646 641/641/641 697/697/697
f 696/696/696 698/698/698 652/652/652
f 698/698/698 648/648/648 652/652/652
f 641/641/641 699/699/699 697/697/697
f 641/641/641 642/642/642 699/699/699
f 642/642/642 648/648/648 700/700/700
f 648/648/648 698/698/698 700/700/700
f 642/642/642 700/700/700 699/699/699
f 693/693/693 695/695/695 701/701/701
f 695/695/695 697/697/697 702/702/702
f 695/695/695 702/702/702 701/701/701
f 697/697/697 699/699/699 703/703/703
f 697/697/697 703/703/703 702/702/702
f 699/699/699 700/700/700 704/704/704
f 699/699/699 704/704/704 703/703/703
f 700/700/700 698/698/698 705/705/705
f 700/700/700 705/705/705 704/704/704
f 706/706/706 698/698/698 696/696/696
f 698/698/698 706/706/706 705/705/705
f 693/693/693 701/701/701 707/707/707
f 691/691/691 693/693/693 707/707/707
f 708/708/708 706/706/706 696/696/696
f 696/696/696 694/694/694 708/708/708
f 691/691/691 707/707/707 709/709/709
f 689/689/689 691/691/691 709/709/709
f 694/694/694 710/710/710 708/708/708
f 694/694/694 692/692/692 710/710/710
f 689/689/689 709/709/709 711/711/711
f 687/687/687 689/689/689 711/711/711
f 692/692/692 712/712/712 710/710/710
f 692/692/692 690/690/690 712/712/712
f 687/687/687 711/711/711 713/713/713
f 681/681/681 687/687/687 713/713/713
f 690/690/690 714/714/714 712/712/712
f 690/690/690 688/688/688 714/714/714
f 681/681/681 713/713/713 715/715/715
f 682/682/682 681/681/681 715/715/715
f 688/688/688 716/716/716 714/714/714
f 688/688/688 686/686/686 716/716/716
f 682/682/682 715/715/715 717/717/717
f 683/683/683 682/682/682 717/717/717
f 686/686/686 718/718/718 716/716/716
f 686/686/686 685/685/685 718/718/718
f 683/683/683 717/717/717 719/719/719
f 684/684/684 683/683/683 719/719/719
f 685/685/685 684/684/684 720/720/720
f 685/685/685 720/720/720 718/718/718
f 684/684/684 719/719/719 720/720/720
f 715/715/715 713/713/713 721/721/721
f 717/717/717 715/715/715 722/722/722
f 715/715/715 721/721/721 722/722/722
f 719/719/719 717/717/717 723/723/723
f 717/717/717 722/722/722 723/723/723
f 720/720/720 719/719/719 724/724/724
f 719/719/719 723/723/723 724/724/724
f 718/718/718 720/720/720 725/725/725
f 720/720/720 724/724/724 725/725/725
f 716/716/716 718/718/718 726/726/726
f 718/718/718 725/725/725 726/726/726
f 713/713/713 727/727/727 721/721/721
f 713/713/713 711/711/711 727/727/727
f 716/716/716 726/726/726 728/728/728
f 714/714/714 716/716/716 728/728/728
f 711/711/711 729/729/729 727/727/727
f 711/711/711 709/709/709 729/729/729
f 714/714/714 728/728/728 730/730/730
f 712/712/712 714/714/714 730/730/730
f 709/709/709 731/731/731 729/729/729
f 709/709/709 707/707/707 731/731/731
f 712/712/712 730/730/730 732/732/732
f 710/710/710 712/712/712 732/732/732
f 707/707/707 733/733/733 731/731/731
f 707/707/707 701/701/701 733/733/733
f 710/710/710 732/732/732 734/734/734
f 708/708/708 710/710/710 734/734/734
f 701/701/701 735/735/735 733/733/733
f 701/701/701 702/702/702 735/735/735
f 734/734/734 736/736/736 708/708/708
f 736/736/736 706/706/706 708/708/708
f 702/702/702 737/737/737 735/735/735
f 702/702/702 703/703/703 737/737/737
f 706/706/706 736/736/736 738/738/738
f 705/705/705 706/706/706 738/738/738
f 703/703/703 739/739/739 737/737/737
f 703/703/703 704/704/704 739/739/739
f 704/704/704 705/705/705 740/740/740
f 705/705/705 738/738/738 740/740/740
f 704/704/704 740/740/740 739/739/739
f 733/733/733 735/735/735 741/741/741
f 735/735/735 737/737/737 742/742/742
f 735/735/735 742/742/742 741/741/741
f 737/737/737 739/739/739 743/743/743
f 737/737/737 743/743/743 742/742/742
f 739/739/739 740/740/740 744/744/744
f 739/739/739 744/744/744 743/743/743
f 743/743/743 745/745/745 742/742/742
f 742/742/742 745/745/745 741/741/741
f 744/744/744 745/745/745 743/743/743
f 741/741/741 745/745/745 746/746/746
f 733/733/733 741/741/741 746/746/746
f 747/747/747 745/745/745 744/744/744
f 740/740/740 747/747/747 744/744/744
f 740/740/740 738/738/738 747/747/747
f 731/731/731 733/733/733 746/746/746
f 738/738/738 748/748/748 747/747/747
f 748/748/748 745/745/745 747/747/747
f 738/738/738 736/736/736 748/748/748
f 731/731/731 746/746/746 749/749/749
f 746/746/746 745/745/745 749/749/749
f 729/729/729 731/731/731 749/749/749
f 736/736/736 750/750/750 748/748/748
f 750/750/750 745/745/745 748/748/748
f 750/750/750 736/736/736 734/734/734
f 729/729/729 749/749/749 751/751/751
f 749/749/749 745/745/745 751/751/751
f 727/727/727 729/729/729 751/751/751
f 752/752/752 750/750/750 734/734/734
f 752/752/752 745/745/745 750/750/750
f 734/734/734 732/732/732 752/752/752
f 751/751/751 745/745/745 753/753/753
f 727/727/727 751/751/751 753/753/753
f 754/754/754 745/745/745 752/752/752
f 732/732/732 754/754/754 752/752/752
f 753/753/753 745/745/745 755/755/755
f 721/721/721 727/727/727 753/753/753
f 721/721/721 753/753/753 755/755/755
f 732/732/732 730/730/730 754/754/754
f 722/722/722 721/721/721 755/755/755
f 730/730/730 756/756/756 754/754/754
f 756/756/756 745/745/745 754/754/754
f 730/730/730 728/728/728 756/756/756
f 722/722/722 755/755/755 757/757/757
f 755/755/755 745/745/745 757/757/757
f 723/723/723 722/722/722 757/757/757
f 728/728/728 758/758/758 756/756/756
f 758/758/758 745/745/745 756/756/756
f 728/728/728 726/726/726 758/758/758
f 723/723/723 757/757/757 759/759/759
f 757/757/757 745/745/745 759/759/759
f 724/724/724 723/723/723 759/759/759
f 726/726/726 760/760/760 758/758/758
f 760/760/760 745/745/745 758/758/758
f 726/726/726 725/725/725 760/760/760
f 759/759/759 745/745/745 761/761/761
f 724/724/724 759/759/759 761/761/761
f 761/761/761 745/745/745 760/760/760
f 725/725/725 761/761/761 760/760/760
f 725/725/725 724/724/724 761/761/761
