g Item1_shell
v 1.36625042 1.36625042 -1.93230074
v 0.929299296 2.24356172 1.95290326
v 0.739430099 1.78504466 -1.93230074
v 1.71716012 1.71716012 1.95290326
v 1.78504466 0.739430099 -1.93230074
v 2.24356172 0.929299296 1.95290326
v 1.93215252 3.70548784E-05 -1.93230074
v 2.42839146 3.70548784E-05 1.95290326
v 1.78504466 -0.739430099 -1.93230074
v 2.24356172 -0.929299296 1.95290326
v 1.36625042 -1.36625042 -1.93230074
v 1.71716012 -1.71716012 1.95290326
v 0.739430099 -1.78504466 -1.93230074
v 0.929299296 -2.24356172 1.95290326
v -3.70548784E-05 -1.93215252 -1.93230074
v -3.70548784E-05 -2.42839146 1.95290326
v -0.739430099 -1.78504466 -1.93230074
v -0.929299296 -2.24356172 1.95290326
v -1.36625042 -1.36625042 -1.93230074
v -1.71716012 -1.71716012 1.95290326
v -1.78504466 -0.739430099 -1.93230074
v -2.24356172 -0.929299296 1.95290326
v -1.93215252 3.70548784E-05 -1.93230074
v -2.42839146 3.70548784E-05 1.95290326
v -1.78504466 0.739430099 -1.93230074
v -2.24356172 0.929299296 1.95290326
v -1.36625042 1.36625042 -1.93230074
v -1.71716012 1.71716012 1.95290326
v -0.739430099 1.78504466 -1.93230074
v -0.929299296 2.24356172 1.95290326
v -3.70548784E-05 1.93215252 -1.93230074
v -3.70548784E-05 2.42839146 1.95290326
v 0.739430099 1.78504466 -1.93230074
v 0.929299296 2.24356172 1.95290326
vt 0.93682695 0.652795211
vt 0.999294411 0.993438086
vt 0.999294411 0.652795211
vt 0.93682695 0.993438086
vt 0.874359488 0.652795211
vt 0.874359488 0.993438086
vt 0.811892027 0.652795211
vt 0.811892027 0.993438086
vt 0.749424566 0.652795211
vt 0.749424566 0.993438086
vt 0.686957104 0.652795211
vt 0.686957104 0.993438086
vt 0.624489643 0.652795211
vt 0.624489643 0.993438086
vt 0.562022182 0.652795211
vt 0.562022182 0.993438086
vt 0.49955472 0.652795211
vt 0.49955472 0.993438086
vt 0.438063313 0.652795211
vt 0.438063313 0.993438086
vt 0.375595852 0.652795211
vt 0.375595852 0.993438086
vt 0.31312839 0.652795211
vt 0.31312839 0.993438086
vt 0.250660929 0.652795211
vt 0.250660929 0.993438086
vt 0.188193468 0.652795211
vt 0.188193468 0.993438086
vt 0.125726006 0.652795211
vt 0.125726006 0.993438086
vt 0.0632585449 0.652795211
vt 0.0632585449 0.993438086
vt 0.000791083556 0.652795211
vt 0.000791083556 0.993438086
vn 0.704083763 0.704083763 -0.092369412
vn 0.377326658 0.914141903 -0.148220022
vn 0.377326658 0.914141903 -0.148220022
vn 0.704083763 0.704083763 -0.092369412
vn 0.914141903 0.377326658 -0.148220022
vn 0.914141903 0.377326658 -0.148220022
vn 0.991941214 0.00388996554 -0.126639239
vn 0.991941214 0.00388996554 -0.126639239
vn 0.914141903 -0.377326658 -0.148220022
vn 0.914141903 -0.377326658 -0.148220022
vn 0.704083763 -0.704083763 -0.092369412
vn 0.704083763 -0.704083763 -0.092369412
vn 0.377326658 -0.914141903 -0.148220022
vn 0.377326658 -0.914141903 -0.148220022
vn -0.00388996554 -0.991941214 -0.126639239
vn -0.00388996554 -0.991941214 -0.126639239
vn -0.377326658 -0.914141903 -0.148220022
vn -0.377326658 -0.914141903 -0.148220022
vn -0.704083763 -0.704083763 -0.092369412
vn -0.704083763 -0.704083763 -0.092369412
vn -0.914141903 -0.377326658 -0.148220022
vn -0.914141903 -0.377326658 -0.148220022
vn -0.991941214 0.00388996554 -0.126639239
vn -0.991941214 0.00388996554 -0.126639239
vn -0.914141903 0.377326658 -0.148220022
vn -0.914141903 0.377326658 -0.148220022
vn -0.704083763 0.704083763 -0.092369412
vn -0.704083763 0.704083763 -0.092369412
vn -0.377326658 0.914141903 -0.148220022
vn -0.377326658 0.914141903 -0.148220022
vn -0.00388996554 0.991941214 -0.126639239
vn -0.00388996554 0.991941214 -0.126639239
vn 0.377326658 0.914141903 -0.148220022
vn 0.377326658 0.914141903 -0.148220022
g Item1_shell_0
f 3/3/3 2/2/2 1/1/1
f 2/2/2 4/4/4 1/1/1
f 1/1/1 4/4/4 5/5/5
f 4/4/4 6/6/6 5/5/5
f 5/5/5 6/6/6 7/7/7
f 6/6/6 8/8/8 7/7/7
f 7/7/7 8/8/8 9/9/9
f 8/8/8 10/10/10 9/9/9
f 9/9/9 10/10/10 11/11/11
f 10/10/10 12/12/12 11/11/11
f 11/11/11 12/12/12 13/13/13
f 12/12/12 14/14/14 13/13/13
f 13/13/13 14/14/14 15/15/15
f 14/14/14 16/16/16 15/15/15
f 15/15/15 16/16/16 17/17/17
f 16/16/16 18/18/18 17/17/17
f 17/17/17 18/18/18 19/19/19
f 18/18/18 20/20/20 19/19/19
f 19/19/19 20/20/20 21/21/21
f 20/20/20 22/22/22 21/21/21
f 21/21/21 22/22/22 23/23/23
f 22/22/22 24/24/24 23/23/23
f 23/23/23 24/24/24 25/25/25
f 24/24/24 26/26/26 25/25/25
f 25/25/25 26/26/26 27/27/27
f 26/26/26 28/28/28 27/27/27
f 27/27/27 28/28/28 29/29/29
f 28/28/28 30/30/30 29/29/29
f 29/29/29 30/30/30 31/31/31
f 30/30/30 32/32/32 31/31/31
f 31/31/31 32/32/32 33/33/33
f 32/32/32 34/34/34 33/33/33
