g Item_18Item_18_mobile
v 46.0263691 18.9361731 38.9984397
v 46.4066308 18.9361731 36.1015362
v 46.9234412 19.1505025 36.1412909
v 46.5293517 19.1505025 39.1384452
v 45.0359599 18.9361731 41.394089
v 47.1377706 19.6673129 36.156847
v 45.4853602 19.1505025 41.6585438
v 43.4578735 18.9361731 43.4509596
v 46.7367672 19.6673129 39.1954845
v 43.8243076 19.1505025 43.8225791
v 41.4027313 18.9361731 45.0307745
v 46.7367672 20.6438943 39.1954845
v 47.1377706 20.6438943 36.156847
v 47.3503715 21.1607046 36.1706747
v 45.6720342 19.6673129 41.767437
v 41.6602723 19.1505025 45.4836318
v 39.0088105 18.9361731 46.0229121
v 46.9459112 21.1607046 39.2507953
v 47.8689103 21.375034 36.205244
v 45.6720342 20.6438943 41.767437
v 43.9764123 19.6673129 43.9764123
v 39.1401737 19.1505025 46.5276232
v 36.1136355 18.9361731 46.4049024
v 43.9764123 20.6438943 43.9764123
v 45.8587082 21.1607046 41.8763301
v 47.4488939 21.375034 39.3856154
v 41.767437 19.6673129 45.6720342
v 36.1447478 19.1505025 46.9234412
v -36.1015362 18.9361731 46.4066308
v 41.767437 20.6438943 45.6720342
v 44.128517 21.1607046 44.128517
v 39.1954845 19.6673129 46.7367672
v -36.1412909 19.1505025 46.9234412
v -38.9984397 18.9361731 46.0263691
v 39.1954845 20.6438943 46.7367672
v 36.156847 19.6673129 47.1377706
v -39.1384452 19.1505025 46.5293517
v -41.394089 18.9361731 45.0359599
v 46.3098369 21.375034 42.1355995
v 41.8763301 21.1607046 45.8587082
v 36.156847 20.6438943 47.1377706
v -36.156847 19.6673129 47.1377706
v -41.6585438 19.1505025 45.4853602
v -43.4509596 18.9361731 43.4578735
v 44.498408 21.375034 44.498408
v 39.2507953 21.1607046 46.9459112
v -36.156847 20.6438943 47.1377706
v -39.1954845 19.6673129 46.7367672
v -43.8225791 19.1505025 43.8243076
v -45.0307745 18.9361731 41.4027313
v 42.1355995 21.375034 46.3098369
v 36.1706747 21.1607046 47.3503715
v -39.1954845 20.6438943 46.7367672
v -41.767437 19.6673129 45.6720342
v -45.4836318 19.1505025 41.6602723
v -46.0229121 18.9361731 39.0088105
v 39.3856154 21.375034 47.4488939
v -36.1706747 21.1607046 47.3503715
v -41.767437 20.6438943 45.6720342
v -43.9764123 19.6673129 43.9764123
v -46.5276232 19.1505025 39.1401737
v -46.4049024 18.9361731 36.1136355
v 36.205244 21.375034 47.8689103
v -39.2507953 21.1607046 46.9459112
v -43.9764123 20.6438943 43.9764123
v -45.6720342 19.6673129 41.767437
v -46.9234412 19.1505025 36.1447478
v -46.4066308 18.9361731 -36.1015362
v -36.205244 21.375034 47.8689103
v -41.8763301 21.1607046 45.8587082
v -45.6720342 20.6438943 41.767437
v -46.7367672 19.6673129 39.1954845
v -46.9234412 19.1505025 -36.1412909
v -46.0263691 18.9361731 -38.9984397
v -39.3856154 21.375034 47.4488939
v -44.128517 21.1607046 44.128517
v -46.7367672 20.6438943 39.1954845
v -47.1377706 19.6673129 36.156847
v -46.5293517 19.1505025 -39.1384452
v -45.0359599 18.9361731 -41.394089
v -42.1355995 21.375034 46.3098369
v -45.8587082 21.1607046 41.8763301
v -44.498408 21.375034 44.498408
v -46.4774978 21.375034 46.4774978
v -44.498408 21.375034 44.498408
v -43.5373828 21.375034 48.7348701
v -47.1377706 19.6673129 -36.156847
v -40.1115697 21.375034 50.153938
v -43.7966522 21.1607046 49.1877273
v -46.8473888 21.1607046 46.8473888
v -36.3867326 21.375034 50.6448214
v -40.2463898 21.1607046 50.6586491
v -43.9055453 20.6438943 49.3744013
v -46.9994936 20.6438943 46.9994936
v -43.9055453 -13.5122572 49.3744013
v -46.9994936 -13.5122572 46.9994936
v -40.3017006 -13.5122572 50.8660646
v -40.3017006 20.6438943 50.8660646
v -36.4351295 -13.5122572 51.3759611
v -36.4351295 20.6438943 51.3759611
v 36.4351295 -13.5122572 51.3759611
v -36.4213018 21.1607046 51.1616317
v 36.4351295 20.6438943 51.3759611
v 40.3017006 -13.5122572 50.8660646
v 36.4213018 21.1607046 51.1616317
v 40.3017006 20.6438943 50.8660646
v 43.9055453 -13.5122572 49.3744013
v 36.3867326 21.375034 50.6448214
v 43.9055453 20.6438943 49.3744013
v 46.9994936 -13.5122572 46.9994936
v 40.2463898 21.1607046 50.6586491
v 40.1115697 21.375034 50.153938
v 46.9994936 20.6438943 46.9994936
v 49.3744013 -13.5122572 43.9055453
v 43.7966522 21.1607046 49.1877273
v 43.5373828 21.375034 48.7348701
v 49.3744013 20.6438943 43.9055453
v 50.8660646 -13.5122572 40.3017006
v 46.8473888 21.1607046 46.8473888
v 46.4774978 21.375034 46.4774978
v 50.8660646 20.6438943 40.3017006
v 51.3759611 -13.5122572 36.4351295
v 51.3759611 20.6438943 36.4351295
v 49.1877273 21.1607046 43.7966522
v 48.7348701 21.375034 43.5373828
v 50.6586491 21.1607046 40.2463898
v 51.1616317 21.1607046 36.4213018
v 50.153938 21.375034 40.1115697
v 50.6448214 21.375034 36.3867326
v 51.3759611 -13.5122572 -36.4351295
v 51.3759611 -13.5122572 36.4351295
v 51.3759611 20.6438943 36.4351295
v 51.3759611 20.6438943 -36.4351295
v 50.8660646 -13.5122572 -40.3017006
v 51.1616317 21.1607046 36.4213018
v 50.8660646 20.6438943 -40.3017006
v 49.3744013 -13.5122572 -43.9055453
v 51.1616317 21.1607046 -36.4213018
v 50.6448214 21.375034 36.3867326
v 49.3744013 20.6438943 -43.9055453
v 46.9994936 -13.5122572 -46.9994936
v 50.6586491 21.1607046 -40.2463898
v 50.6448214 21.375034 -36.3867326
v 46.9994936 20.6438943 -46.9994936
v 43.9055453 -13.5122572 -49.3744013
v 49.1877273 21.1607046 -43.7966522
v 43.9055453 20.6438943 -49.3744013
v 40.3017006 -13.5122572 -50.8660646
v 47.8689103 21.375034 -36.205244
v 47.8689103 21.375034 36.205244
v 47.3503715 21.1607046 36.1706747
v 50.153938 21.375034 -40.1115697
v 46.8473888 21.1607046 -46.8473888
v 40.3017006 20.6438943 -50.8660646
v 36.4351295 -13.5122572 -51.3759611
v 47.3503715 21.1607046 -36.1706747
v 47.1377706 20.6438943 36.156847
v 47.4488939 21.375034 -39.3856154
v 48.7348701 21.375034 -43.5373828
v 43.7966522 21.1607046 -49.1877273
v 36.4351295 20.6438943 -51.3759611
v -36.4351295 -13.5122572 -51.3759611
v 46.3098369 21.375034 -42.1355995
v 46.9459112 21.1607046 -39.2507953
v 46.4774978 21.375034 -46.4774978
v 40.2463898 21.1607046 -50.6586491
v -36.4351295 20.6438943 -51.3759611
v -40.3017006 -13.5122572 -50.8660646
v 44.498408 21.375034 -44.498408
v 43.5373828 21.375034 -48.7348701
v 36.4213018 21.1607046 -51.1616317
v -40.3017006 20.6438943 -50.8660646
v -43.9055453 -13.5122572 -49.3744013
v 45.8587082 21.1607046 -41.8763301
v 42.1355995 21.375034 -46.3098369
v 40.1115697 21.375034 -50.153938
v -36.4213018 21.1607046 -51.1616317
v -43.9055453 20.6438943 -49.3744013
v -46.9994936 -13.5122572 -46.9994936
v 44.128517 21.1607046 -44.128517
v 39.3856154 21.375034 -47.4488939
v 36.3867326 21.375034 -50.6448214
v -40.2463898 21.1607046 -50.6586491
v -46.9994936 20.6438943 -46.9994936
v -49.3744013 -13.5122572 -43.9055453
v 41.8763301 21.1607046 -45.8587082
v 36.205244 21.375034 -47.8689103
v -36.3867326 21.375034 -50.6448214
v -43.7966522 21.1607046 -49.1877273
v -49.3744013 20.6438943 -43.9055453
v -50.8660646 -13.5122572 -40.3017006
v 39.2507953 21.1607046 -46.9459112
v -36.205244 21.375034 -47.8689103
v -40.1115697 21.375034 -50.153938
v -46.8473888 21.1607046 -46.8473888
v -50.8660646 20.6438943 -40.3017006
v -51.3759611 -13.5122572 -36.4351295
v 36.1706747 21.1607046 -47.3503715
v -39.3856154 21.375034 -47.4488939
v -43.5373828 21.375034 -48.7348701
v -49.1877273 21.1607046 -43.7966522
v -51.3759611 20.6438943 -36.4351295
v -51.3759611 -13.5122572 36.4351295
v -36.1706747 21.1607046 -47.3503715
v -42.1355995 21.375034 -46.3098369
v -46.4774978 21.375034 -46.4774978
v -50.6586491 21.1607046 -40.2463898
v -51.3759611 20.6438943 36.4351295
v -50.8660646 -13.5122572 40.3017006
v -39.2507953 21.1607046 -46.9459112
v -44.498408 21.375034 -44.498408
v -48.7348701 21.375034 -43.5373828
v -51.1616317 21.1607046 -36.4213018
v -50.8660646 20.6438943 40.3017006
v -49.3744013 -13.5122572 43.9055453
v -41.8763301 21.1607046 -45.8587082
v -46.3098369 21.375034 -42.1355995
v -50.153938 21.375034 -40.1115697
v -51.1616317 21.1607046 36.4213018
v -49.3744013 20.6438943 43.9055453
v -46.9994936 -13.5122572 46.9994936
v -46.9994936 20.6438943 46.9994936
v -50.6586491 21.1607046 40.2463898
v -49.1877273 21.1607046 43.7966522
v -46.8473888 21.1607046 46.8473888
v -50.6448214 21.375034 -36.3867326
v -47.4488939 21.375034 -39.3856154
v -50.6448214 21.375034 36.3867326
v -48.7348701 21.375034 43.5373828
v -46.4774978 21.375034 46.4774978
v -50.153938 21.375034 40.1115697
v -46.3098369 21.375034 42.1355995
v -47.8689103 21.375034 -36.205244
v -47.8689103 21.375034 36.205244
v -47.4488939 21.375034 39.3856154
v -46.9459112 21.1607046 39.2507953
v -47.3503715 21.1607046 36.1706747
v -47.1377706 20.6438943 36.156847
v -47.1377706 20.6438943 -36.156847
v -47.3503715 21.1607046 -36.1706747
v -46.7367672 20.6438943 -39.1954845
v -46.9459112 21.1607046 -39.2507953
v -46.7367672 19.6673129 -39.1954845
v -45.6720342 20.6438943 -41.767437
v -45.8587082 21.1607046 -41.8763301
v -45.4853602 19.1505025 -41.6585438
v -43.4578735 18.9361731 -43.4509596
v -45.6720342 19.6673129 -41.767437
v -43.8243076 19.1505025 -43.8225791
v -41.4027313 18.9361731 -45.0307745
v -43.9764123 20.6438943 -43.9764123
v -44.128517 21.1607046 -44.128517
v -41.6602723 19.1505025 -45.4836318
v -39.0088105 18.9361731 -46.0229121
v -43.9764123 19.6673129 -43.9764123
v -41.767437 20.6438943 -45.6720342
v -39.1401737 19.1505025 -46.5276232
v -36.1136355 18.9361731 -46.4049024
v -41.767437 19.6673129 -45.6720342
v -39.1954845 20.6438943 -46.7367672
v -36.1447478 19.1505025 -46.9234412
v 36.1015362 18.9361731 -46.4066308
v -39.1954845 19.6673129 -46.7367672
v -36.156847 20.6438943 -47.1377706
v 36.1412909 19.1505025 -46.9234412
v 38.9984397 18.9361731 -46.0263691
v -36.156847 19.6673129 -47.1377706
v 36.156847 20.6438943 -47.1377706
v 39.1384452 19.1505025 -46.5293517
v 41.394089 18.9361731 -45.0359599
v 36.156847 19.6673129 -47.1377706
v 39.1954845 20.6438943 -46.7367672
v 41.6585438 19.1505025 -45.4853602
v 43.4509596 18.9361731 -43.4578735
v 39.1954845 19.6673129 -46.7367672
v 41.767437 20.6438943 -45.6720342
v 43.8225791 19.1505025 -43.8243076
v 45.0307745 18.9361731 -41.4027313
v 41.767437 19.6673129 -45.6720342
v 43.9764123 20.6438943 -43.9764123
v 45.4836318 19.1505025 -41.6602723
v 46.0229121 18.9361731 -39.0088105
v 43.9764123 19.6673129 -43.9764123
v 45.6720342 20.6438943 -41.767437
v 46.5276232 19.1505025 -39.1401737
v 46.4049024 18.9361731 -36.1136355
v 45.6720342 19.6673129 -41.767437
v 46.7367672 20.6438943 -39.1954845
v 46.9234412 19.1505025 -36.1447478
v 46.4066308 18.9361731 36.1015362
v 46.9234412 19.1505025 36.1412909
v 46.7367672 19.6673129 -39.1954845
v 47.1377706 20.6438943 -36.156847
v 47.1377706 19.6673129 -36.156847
v 47.1377706 19.6673129 36.156847
v -36.1136355 18.9361731 -46.4049024
v 36.1015362 18.9361731 -46.4066308
v 38.9984397 18.9361731 -46.0263691
v -39.0088105 18.9361731 -46.0229121
v 41.394089 18.9361731 -45.0359599
v -41.4027313 18.9361731 -45.0307745
v 43.4509596 18.9361731 -43.4578735
v -43.4578735 18.9361731 -43.4509596
v 45.0307745 18.9361731 -41.4027313
v -45.0359599 18.9361731 -41.394089
v 46.0229121 18.9361731 -39.0088105
v -46.0263691 18.9361731 -38.9984397
v 46.4049024 18.9361731 -36.1136355
v -46.4066308 18.9361731 -36.1015362
v 46.4066308 18.9361731 36.1015362
v -46.4049024 18.9361731 36.1136355
v 46.0263691 18.9361731 38.9984397
v -46.0229121 18.9361731 39.0088105
v 45.0359599 18.9361731 41.394089
v -45.0307745 18.9361731 41.4027313
v 43.4578735 18.9361731 43.4509596
v -43.4509596 18.9361731 43.4578735
v 41.4027313 18.9361731 45.0307745
v -41.394089 18.9361731 45.0359599
v 39.0088105 18.9361731 46.0229121
v -38.9984397 18.9361731 46.0263691
v 36.1136355 18.9361731 46.4049024
v -36.1015362 18.9361731 46.4066308
v -48.4012768 -20.5471004 54.4301547
v -51.8132622 -20.5471004 51.8132622
v -51.8132622 -13.9253598 51.8132622
v -48.4012768 -13.9253598 54.4301547
v -51.6386874 -13.3411394 51.6421444
v -44.4292695 -20.5471004 56.0756512
v -48.2768275 -13.3411394 54.2192823
v -44.4292695 -13.9253598 56.0756512
v -40.165152 -20.5471004 56.6374016
v -44.3653164 -13.3411394 55.8405803
v -40.165152 -13.9253598 56.6374016
v 40.165152 -20.5471004 56.6374016
v -40.1495959 -13.3411394 56.3954168
v 40.165152 -13.9253598 56.6374016
v 44.4292695 -20.5471004 56.0756512
v 40.1513243 -13.3411394 56.3954168
v 44.4292695 -13.9270882 56.0756512
v 48.4012768 -20.5471004 54.4301547
v 44.3670449 -13.3411394 55.8388518
v 48.4012768 -13.9270882 54.4301547
v 51.8132622 -20.5471004 51.8132622
v 48.2802844 -13.3411394 54.2175538
v 51.8132622 -13.9253598 51.8132622
v 54.4301547 -20.5471004 48.4012768
v 51.6421444 -13.3411394 51.6386874
v 54.4301547 -13.9253598 48.4012768
v 56.0756512 -20.5471004 44.4292695
v 54.2192823 -13.3411394 48.2768275
v 56.0756512 -13.9253598 44.4292695
v 56.6374016 -20.5471004 40.165152
v 55.8405803 -13.3411394 44.3653164
v 56.6374016 -13.9253598 40.165152
v 56.6374016 -20.5471004 -40.165152
v 56.3954168 -13.3411394 40.1495959
v 56.6374016 -13.9253598 -40.165152
v 56.0756512 -20.5471004 -44.4292695
v 56.0756512 -13.9270882 -44.4292695
v 54.4301547 -20.5471004 -48.4012768
v 56.3954168 -13.3411394 -40.1513243
v 54.4301547 -13.9270882 -48.4012768
v 51.8132622 -20.5471004 -51.8132622
v 55.8388518 -13.3411394 -44.3670449
v 54.2175538 -13.3411394 -48.2802844
v 51.8132622 -13.9253598 -51.8132622
v 48.4012768 -20.5471004 -54.4301547
v 51.6386874 -13.3411394 -51.6421444
v 48.4012768 -13.9253598 -54.4301547
v 44.4292695 -20.5471004 -56.0756512
v 48.2768275 -13.3411394 -54.2192823
v 44.4292695 -13.9253598 -56.0756512
v 40.165152 -20.5471004 -56.6374016
v 44.3653164 -13.3411394 -55.8405803
v 40.165152 -13.9253598 -56.6374016
v -40.165152 -20.5471004 -56.6374016
v 40.1495959 -13.3411394 -56.3954168
v -40.165152 -13.9253598 -56.6374016
v -44.4292695 -20.5471004 -56.0756512
v -40.1513243 -13.3411394 -56.3954168
v -44.4292695 -13.9270882 -56.0756512
v -48.4012768 -20.5471004 -54.4301547
v -44.3670449 -13.3411394 -55.8388518
v -48.4012768 -13.9270882 -54.4301547
v -51.8132622 -20.5471004 -51.8132622
v -48.2802844 -13.3411394 -54.2175538
v -51.8132622 -13.9253598 -51.8132622
v -54.4301547 -20.5471004 -48.4012768
v -51.6421444 -13.3411394 -51.6386874
v -54.4301547 -13.9253598 -48.4012768
v -56.0756512 -20.5471004 -44.4292695
v -54.2192823 -13.3411394 -48.2768275
v -56.0756512 -13.9253598 -44.4292695
v -56.6374016 -20.5471004 -40.165152
v -55.8405803 -13.3411394 -44.3653164
v -56.6374016 -13.9253598 -40.165152
v -56.6374016 -20.5471004 40.165152
v -56.3954168 -13.3411394 -40.1495959
v -56.6374016 -13.9253598 40.165152
v -56.0756512 -20.5471004 44.4292695
v -56.3954168 -13.3411394 40.1513243
v -56.0756512 -13.9270882 44.4292695
v -54.4301547 -20.5471004 48.4012768
v -55.8388518 -13.3411394 44.3670449
v -54.4301547 -13.9270882 48.4012768
v -51.8132622 -20.5471004 51.8132622
v -54.2175538 -13.3411394 48.2802844
v -51.8132622 -13.9253598 51.8132622
v -51.6386874 -13.3411394 51.6421444
v -48.4012768 7.6441263 54.4301547
v -51.8132622 7.6441263 51.8132622
v -51.8132622 14.2658669 51.8132622
v -48.4012768 14.2658669 54.4301547
v -51.6386874 14.8500873 51.6421444
v -44.4292695 7.6441263 56.0756512
v -48.2768275 14.8500873 54.2192823
v -44.4292695 14.2658669 56.0756512
v -40.165152 7.6441263 56.6374016
v -44.3653164 14.8500873 55.8405803
v -40.165152 14.2658669 56.6374016
v 40.165152 7.6441263 56.6374016
v -40.1495959 14.8500873 56.3954168
v 40.165152 14.2658669 56.6374016
v 44.4292695 7.6441263 56.0756512
v 40.1513243 14.8500873 56.3954168
v 44.4292695 14.2641384 56.0756512
v 48.4012768 7.6441263 54.4301547
v 44.3670449 14.8500873 55.8388518
v 48.4012768 14.2641384 54.4301547
v 51.8132622 7.6441263 51.8132622
v 48.2802844 14.8500873 54.2175538
v 51.8132622 14.2658669 51.8132622
v 54.4301547 7.6441263 48.4012768
v 51.6421444 14.8500873 51.6386874
v 54.4301547 14.2658669 48.4012768
v 56.0756512 7.6441263 44.4292695
v 54.2192823 14.8500873 48.2768275
v 56.0756512 14.2658669 44.4292695
v 56.6374016 7.6441263 40.165152
v 55.8405803 14.8500873 44.3653164
v 56.6374016 14.2658669 40.165152
v 56.6374016 7.6441263 -40.165152
v 56.3954168 14.8500873 40.1495959
v 56.6374016 14.2658669 -40.165152
v 56.0756512 7.6441263 -44.4292695
v 56.0756512 14.2641384 -44.4292695
v 54.4301547 7.6441263 -48.4012768
v 56.3954168 14.8500873 -40.1513243
v 54.4301547 14.2641384 -48.4012768
v 51.8132622 7.6441263 -51.8132622
v 55.8388518 14.8500873 -44.3670449
v 54.2175538 14.8500873 -48.2802844
v 51.8132622 14.2658669 -51.8132622
v 48.4012768 7.6441263 -54.4301547
v 51.6386874 14.8500873 -51.6421444
v 48.4012768 14.2658669 -54.4301547
v 44.4292695 7.6441263 -56.0756512
v 48.2768275 14.8500873 -54.2192823
v 44.4292695 14.2658669 -56.0756512
v 40.165152 7.6441263 -56.6374016
v 44.3653164 14.8500873 -55.8405803
v 40.165152 14.2658669 -56.6374016
v -40.165152 7.6441263 -56.6374016
v 40.1495959 14.8500873 -56.3954168
v -40.165152 14.2658669 -56.6374016
v -44.4292695 7.6441263 -56.0756512
v -40.1513243 14.8500873 -56.3954168
v -44.4292695 14.2641384 -56.0756512
v -48.4012768 7.6441263 -54.4301547
v -44.3670449 14.8500873 -55.8388518
v -48.4012768 14.2641384 -54.4301547
v -51.8132622 7.6441263 -51.8132622
v -48.2802844 14.8500873 -54.2175538
v -51.8132622 14.2658669 -51.8132622
v -54.4301547 7.6441263 -48.4012768
v -51.6421444 14.8500873 -51.6386874
v -54.4301547 14.2658669 -48.4012768
v -56.0756512 7.6441263 -44.4292695
v -54.2192823 14.8500873 -48.2768275
v -56.0756512 14.2658669 -44.4292695
v -56.6374016 7.6441263 -40.165152
v -55.8405803 14.8500873 -44.3653164
v -56.6374016 14.2658669 -40.165152
v -56.6374016 7.6441263 40.165152
v -56.3954168 14.8500873 -40.1495959
v -56.6374016 14.2658669 40.165152
v -56.0756512 7.6441263 44.4292695
v -56.3954168 14.8500873 40.1513243
v -56.0756512 14.2641384 44.4292695
v -54.4301547 7.6441263 48.4012768
v -55.8388518 14.8500873 44.3670449
v -54.4301547 14.2641384 48.4012768
v -51.8132622 7.6441263 51.8132622
v -54.2175538 14.8500873 48.2802844
v -51.8132622 14.2658669 51.8132622
v -51.6386874 14.8500873 51.6421444
v -48.2802844 -21.1313208 54.2175538
v -51.6421444 -21.1330492 51.6386874
v -51.8132622 -20.5471004 51.8132622
v -48.4012768 -20.5471004 54.4301547
v -44.3670449 -21.1313208 55.8388518
v -44.4292695 -20.5471004 56.0756512
v -40.1513243 -21.1330492 56.3954168
v -40.165152 -20.5471004 56.6374016
v 40.1495959 -21.1330492 56.3954168
v 40.165152 -20.5471004 56.6374016
v 44.3653164 -21.1330492 55.8405803
v 44.4292695 -20.5471004 56.0756512
v 48.2768275 -21.1330492 54.2210107
v 48.4012768 -20.5471004 54.4301547
v 51.6386874 -21.1330492 51.6421444
v 51.8132622 -20.5471004 51.8132622
v 54.2175538 -21.1330492 48.2802844
v 54.4301547 -20.5471004 48.4012768
v 55.8405803 -21.1330492 44.3670449
v 56.0756512 -20.5471004 44.4292695
v 56.3954168 -21.1330492 40.1513243
v 56.6374016 -20.5471004 40.165152
v 56.3954168 -21.1330492 -40.1495959
v 56.6374016 -20.5471004 -40.165152
v 55.8405803 -21.1330492 -44.3653164
v 56.0756512 -20.5471004 -44.4292695
v 54.2210107 -21.1330492 -48.2768275
v 54.4301547 -20.5471004 -48.4012768
v 51.6421444 -21.1330492 -51.6386874
v 51.8132622 -20.5471004 -51.8132622
v 48.2802844 -21.1330492 -54.2175538
v 48.4012768 -20.5471004 -54.4301547
v 44.3670449 -21.1330492 -55.8405803
v 44.4292695 -20.5471004 -56.0756512
v 40.1513243 -21.1330492 -56.3954168
v 40.165152 -20.5471004 -56.6374016
v -40.1495959 -21.1330492 -56.3954168
v -40.165152 -20.5471004 -56.6374016
v -44.3653164 -21.1330492 -55.8405803
v -44.4292695 -20.5471004 -56.0756512
v -48.2768275 -21.1330492 -54.2210107
v -48.4012768 -20.5471004 -54.4301547
v -51.6386874 -21.1330492 -51.6421444
v -51.8132622 -20.5471004 -51.8132622
v -54.2175538 -21.1330492 -48.2802844
v -54.4301547 -20.5471004 -48.4012768
v -55.8405803 -21.1330492 -44.3670449
v -56.0756512 -20.5471004 -44.4292695
v -56.3954168 -21.1330492 -40.1513243
v -56.6374016 -20.5471004 -40.165152
v -56.3954168 -21.1330492 40.1495959
v -56.6374016 -20.5471004 40.165152
v -55.8405803 -21.1330492 44.3653164
v -56.0756512 -20.5471004 44.4292695
v -54.2192823 -21.1330492 48.2768275
v -54.4301547 -20.5471004 48.4012768
v -51.6421444 -21.1330492 51.6386874
v -51.8132622 -20.5471004 51.8132622
v -48.2802844 7.05990591 54.2175538
v -51.6421444 7.05817744 51.6386874
v -51.8132622 7.6441263 51.8132622
v -48.4012768 7.6441263 54.4301547
v -44.3670449 7.05990591 55.8388518
v -44.4292695 7.6441263 56.0756512
v -40.1513243 7.05817744 56.3954168
v -40.165152 7.6441263 56.6374016
v 40.1495959 7.05817744 56.3954168
v 40.165152 7.6441263 56.6374016
v 44.3653164 7.05817744 55.8405803
v 44.4292695 7.6441263 56.0756512
v 48.2768275 7.05817744 54.2210107
v 48.4012768 7.6441263 54.4301547
v 51.6386874 7.05817744 51.6421444
v 51.8132622 7.6441263 51.8132622
v 54.2175538 7.05817744 48.2802844
v 54.4301547 7.6441263 48.4012768
v 55.8405803 7.05817744 44.3670449
v 56.0756512 7.6441263 44.4292695
v 56.3954168 7.05817744 40.1513243
v 56.6374016 7.6441263 40.165152
v 56.3954168 7.05817744 -40.1495959
v 56.6374016 7.6441263 -40.165152
v 55.8405803 7.05817744 -44.3653164
v 56.0756512 7.6441263 -44.4292695
v 54.2210107 7.05817744 -48.2768275
v 54.4301547 7.6441263 -48.4012768
v 51.6421444 7.05817744 -51.6386874
v 51.8132622 7.6441263 -51.8132622
v 48.2802844 7.05817744 -54.2175538
v 48.4012768 7.6441263 -54.4301547
v 44.3670449 7.05817744 -55.8405803
v 44.4292695 7.6441263 -56.0756512
v 40.1513243 7.05817744 -56.3954168
v 40.165152 7.6441263 -56.6374016
v -40.1495959 7.05817744 -56.3954168
v -40.165152 7.6441263 -56.6374016
v -44.3653164 7.05817744 -55.8405803
v -44.4292695 7.6441263 -56.0756512
v -48.2768275 7.05817744 -54.2210107
v -48.4012768 7.6441263 -54.4301547
v -51.6386874 7.05817744 -51.6421444
v -51.8132622 7.6441263 -51.8132622
v -54.2175538 7.05817744 -48.2802844
v -54.4301547 7.6441263 -48.4012768
v -55.8405803 7.05817744 -44.3670449
v -56.0756512 7.6441263 -44.4292695
v -56.3954168 7.05817744 -40.1513243
v -56.6374016 7.6441263 -40.165152
v -56.3954168 7.05817744 40.1495959
v -56.6374016 7.6441263 40.165152
v -55.8405803 7.05817744 44.3653164
v -56.0756512 7.6441263 44.4292695
v -54.2192823 7.05817744 48.2768275
v -54.4301547 7.6441263 48.4012768
v -51.6421444 7.05817744 51.6386874
v -51.8132622 7.6441263 51.8132622
v 55.8094679 6.81619266 -40.1115697
v 55.8094679 6.81619266 40.1167551
v 55.8405803 7.05817744 44.3670449
v 55.2701876 6.81619266 -44.2132117
v 55.8405803 7.05817744 -44.3653164
v 55.2684591 6.81619266 44.2183971
v 54.2175538 7.05817744 48.2802844
v 53.7128427 6.81619266 -47.9778034
v 54.2210107 7.05817744 -48.2768275
v 53.7059288 6.81619266 47.9899027
v 51.6386874 7.05817744 51.6421444
v 51.2290418 6.81619266 -51.218671
v 51.6421444 7.05817744 -51.6386874
v 51.218671 6.81619266 51.2290418
v 48.2768275 7.05817744 54.2210107
v 47.9899027 6.81619266 -53.7059288
v 48.2802844 7.05817744 -54.2175538
v 47.9778034 6.81619266 53.7128427
v 44.3653164 7.05817744 55.8405803
v 44.2183971 6.81619266 -55.2684591
v 44.3670449 7.05817744 -55.8405803
v 44.2132117 6.81619266 55.2701876
v 40.1495959 7.05817744 56.3954168
v 40.1167551 6.81619266 -55.8094679
v 40.1513243 7.05817744 -56.3954168
v -40.1115697 6.81619266 -55.8094679
v -40.1495959 7.05817744 -56.3954168
v -44.2132117 6.81619266 -55.2701876
v -44.3653164 7.05817744 -55.8405803
v -47.9778034 6.81619266 -53.7128427
v -48.2768275 7.05817744 -54.2210107
v -51.218671 6.81619266 -51.2290418
v -51.6386874 7.05817744 -51.6421444
v -53.7059288 6.81619266 -47.9899027
v -54.2175538 7.05817744 -48.2802844
v -55.2684591 6.81619266 -44.2183971
v -55.8405803 7.05817744 -44.3670449
v -55.8094679 6.81619266 -40.1167551
v -56.3954168 7.05817744 -40.1513243
v -55.8094679 6.81619266 40.1115697
v -56.3954168 7.05817744 40.1495959
v -55.2701876 6.81619266 44.2132117
v -55.8405803 7.05817744 44.3653164
v -53.7111142 6.81619266 47.9778034
v -54.2192823 7.05817744 48.2768275
v -51.2273133 6.81619266 51.218671
v -51.6421444 7.05817744 51.6386874
v -47.9899027 6.81619266 53.7042004
v -48.2802844 7.05990591 54.2175538
v -44.2183971 6.81619266 55.2684591
v -44.3670449 7.05990591 55.8388518
v -40.1167551 6.81619266 55.8094679
v -40.1513243 7.05817744 56.3954168
v 40.1115697 6.81619266 55.8094679
v 55.8094679 -21.375034 -40.1115697
v 55.8094679 -21.375034 40.1167551
v 55.8405803 -21.1330492 44.3670449
v 55.2701876 -21.375034 -44.2132117
v 55.8405803 -21.1330492 -44.3653164
v 55.2684591 -21.375034 44.2183971
v 54.2175538 -21.1330492 48.2802844
v 53.7128427 -21.375034 -47.9778034
v 54.2210107 -21.1330492 -48.2768275
v 53.7059288 -21.375034 47.9899027
v 51.6386874 -21.1330492 51.6421444
v 51.2290418 -21.375034 -51.218671
v 51.6421444 -21.1330492 -51.6386874
v 51.218671 -21.375034 51.2290418
v 48.2768275 -21.1330492 54.2210107
v 47.9899027 -21.375034 -53.7059288
v 48.2802844 -21.1330492 -54.2175538
v 47.9778034 -21.375034 53.7128427
v 44.3653164 -21.1330492 55.8405803
v 44.2183971 -21.375034 -55.2684591
v 44.3670449 -21.1330492 -55.8405803
v 44.2132117 -21.375034 55.2701876
v 40.1495959 -21.1330492 56.3954168
v 40.1167551 -21.375034 -55.8094679
v 40.1513243 -21.1330492 -56.3954168
v -40.1115697 -21.375034 -55.8094679
v -40.1495959 -21.1330492 -56.3954168
v -44.2132117 -21.375034 -55.2701876
v -44.3653164 -21.1330492 -55.8405803
v -47.9778034 -21.375034 -53.7128427
v -48.2768275 -21.1330492 -54.2210107
v -51.218671 -21.375034 -51.2290418
v -51.6386874 -21.1330492 -51.6421444
v -53.7059288 -21.375034 -47.9899027
v -54.2175538 -21.1330492 -48.2802844
v -55.2684591 -21.375034 -44.2183971
v -55.8405803 -21.1330492 -44.3670449
v -55.8094679 -21.375034 -40.1167551
v -56.3954168 -21.1330492 -40.1513243
v -55.8094679 -21.375034 40.1115697
v -56.3954168 -21.1330492 40.1495959
v -55.2701876 -21.375034 44.2132117
v -55.8405803 -21.1330492 44.3653164
v -53.7111142 -21.375034 47.9778034
v -54.2192823 -21.1330492 48.2768275
v -51.2273133 -21.375034 51.218671
v -51.6421444 -21.1330492 51.6386874
v -47.9899027 -21.375034 53.7042004
v -48.2802844 -21.1313208 54.2175538
v -44.2183971 -21.375034 55.2684591
v -44.3670449 -21.1313208 55.8388518
v -40.1167551 -21.375034 55.8094679
v -40.1513243 -21.1330492 56.3954168
v 40.1115697 -21.375034 55.8094679
v 55.8094679 15.0920721 40.1115697
v 55.8094679 15.0920721 -40.1167551
v 55.8388518 14.8500873 -44.3670449
v 55.2701876 15.0920721 44.2132117
v 55.8405803 14.8500873 44.3653164
v 55.2684591 15.0920721 -44.2183971
v 54.2175538 14.8500873 -48.2802844
v 53.7111142 15.0920721 47.9778034
v 54.2192823 14.8500873 48.2768275
v 53.7042004 15.0920721 -47.9899027
v 51.6386874 14.8500873 -51.6421444
v 51.2273133 15.0920721 51.218671
v 51.6421444 14.8500873 51.6386874
v 51.218671 15.0920721 -51.2273133
v 48.2768275 14.8500873 -54.2192823
v 47.9899027 15.0920721 53.7042004
v 48.2802844 14.8500873 54.2175538
v 47.9778034 15.0920721 -53.7111142
v 44.3653164 14.8500873 -55.8405803
v 44.2183971 15.0920721 55.2684591
v 44.3670449 14.8500873 55.8388518
v 44.2132117 15.0920721 -55.2701876
v 40.1495959 14.8500873 -56.3954168
v 40.1167551 15.0920721 55.8094679
v 40.1513243 14.8500873 56.3954168
v -40.1115697 15.0920721 55.8094679
v -40.1495959 14.8500873 56.3954168
v -44.2132117 15.0920721 55.2701876
v -44.3653164 14.8500873 55.8405803
v -47.9778034 15.0920721 53.7111142
v -48.2768275 14.8500873 54.2192823
v -51.218671 15.0920721 51.2273133
v -51.6386874 14.8500873 51.6421444
v -53.7042004 15.0920721 47.9899027
v -54.2175538 14.8500873 48.2802844
v -55.2684591 15.0920721 44.2183971
v -55.8388518 14.8500873 44.3670449
v -55.8094679 15.0920721 40.1167551
v -56.3954168 14.8500873 40.1513243
v -55.8094679 15.0920721 -40.1115697
v -56.3954168 14.8500873 -40.1495959
v -55.2701876 15.0920721 -44.2132117
v -55.8405803 14.8500873 -44.3653164
v -53.7111142 15.0920721 -47.9778034
v -54.2192823 14.8500873 -48.2768275
v -51.2273133 15.0920721 -51.218671
v -51.6421444 14.8500873 -51.6386874
v -47.9899027 15.0920721 -53.7042004
v -48.2802844 14.8500873 -54.2175538
v -44.2183971 15.0920721 -55.2684591
v -44.3670449 14.8500873 -55.8388518
v -40.1167551 15.0920721 -55.8094679
v -40.1513243 14.8500873 -56.3954168
v 40.1115697 15.0920721 -55.8094679
v 55.8094679 -13.0991546 40.1115697
v 55.8094679 -13.0991546 -40.1167551
v 55.8388518 -13.3411394 -44.3670449
v 55.2701876 -13.0991546 44.2132117
v 55.8405803 -13.3411394 44.3653164
v 55.2684591 -13.0991546 -44.2183971
v 54.2175538 -13.3411394 -48.2802844
v 53.7111142 -13.0991546 47.9778034
v 54.2192823 -13.3411394 48.2768275
v 53.7042004 -13.0991546 -47.9899027
v 51.6386874 -13.3411394 -51.6421444
v 51.2273133 -13.0991546 51.218671
v 51.6421444 -13.3411394 51.6386874
v 51.218671 -13.0991546 -51.2273133
v 48.2768275 -13.3411394 -54.2192823
v 47.9899027 -13.0991546 53.7042004
v 48.2802844 -13.3411394 54.2175538
v 47.9778034 -13.0991546 -53.7111142
v 44.3653164 -13.3411394 -55.8405803
v 44.2183971 -13.0991546 55.2684591
v 44.3670449 -13.3411394 55.8388518
v 44.2132117 -13.0991546 -55.2701876
v 40.1495959 -13.3411394 -56.3954168
v 40.1167551 -13.0991546 55.8094679
v 40.1513243 -13.3411394 56.3954168
v -40.1115697 -13.0991546 55.8094679
v -40.1495959 -13.3411394 56.3954168
v -44.2132117 -13.0991546 55.2701876
v -44.3653164 -13.3411394 55.8405803
v -47.9778034 -13.0991546 53.7111142
v -48.2768275 -13.3411394 54.2192823
v -51.218671 -13.0991546 51.2273133
v -51.6386874 -13.3411394 51.6421444
v -53.7042004 -13.0991546 47.9899027
v -54.2175538 -13.3411394 48.2802844
v -55.2684591 -13.0991546 44.2183971
v -55.8388518 -13.3411394 44.3670449
v -55.8094679 -13.0991546 40.1167551
v -56.3954168 -13.3411394 40.1513243
v -55.8094679 -13.0991546 -40.1115697
v -56.3954168 -13.3411394 -40.1495959
v -55.2701876 -13.0991546 -44.2132117
v -55.8405803 -13.3411394 -44.3653164
v -53.7111142 -13.0991546 -47.9778034
v -54.2192823 -13.3411394 -48.2768275
v -51.2273133 -13.0991546 -51.218671
v -51.6421444 -13.3411394 -51.6386874
v -47.9899027 -13.0991546 -53.7042004
v -48.2802844 -13.3411394 -54.2175538
v -44.2183971 -13.0991546 -55.2684591
v -44.3670449 -13.3411394 -55.8388518
v -40.1167551 -13.0991546 -55.8094679
v -40.1513243 -13.3411394 -56.3954168
v 40.1115697 -13.0991546 -55.8094679
vt 0.0909090909 0.00782013685
vt 0.0869990225 0
vt 0.0850439883 0.000977517107
vt 0.0889540567 0.00782013685
vt 0.0948191593 0.0136852395
vt 0.0840664712 0.000977517107
vt 0.0938416422 0.0146627566
vt 0.0997067449 0.0195503421
vt 0.0879765396 0.00879765396
vt 0.0987292278 0.0205278592
vt 0.105571848 0.0254154448
vt 0.0850439883 0.00977517107
vt 0.0811339198 0.00195503421
vt 0.0801564027 0.00293255132
vt 0.091886608 0.0156402737
vt 0.10459433 0.0263929619
vt 0.110459433 0.0312805474
vt 0.0840664712 0.0107526882
vt 0.0782013685 0.00293255132
vt 0.0899315738 0.0166177908
vt 0.0977517107 0.0215053763
vt 0.109481916 0.0322580645
vt 0.117302053 0.0361681329
vt 0.0957966764 0.0234604106
vt 0.0889540567 0.0175953079
vt 0.082111437 0.0117302053
vt 0.102639296 0.027370479
vt 0.116324536 0.0381231672
vt 0.27370479 0.144672532
vt 0.101661779 0.0293255132
vt 0.0938416422 0.0244379277
vt 0.108504399 0.0332355816
vt 0.272727273 0.146627566
vt 0.281524927 0.149560117
vt 0.107526882 0.0351906158
vt 0.115347019 0.0391006843
vt 0.28054741 0.151515152
vt 0.287390029 0.153470186
vt 0.0879765396 0.018572825
vt 0.0997067449 0.0312805474
vt 0.114369501 0.0410557185
vt 0.272727273 0.147605083
vt 0.287390029 0.154447703
vt 0.294232649 0.156402737
vt 0.0928641251 0.0254154448
vt 0.106549365 0.03714565
vt 0.270772239 0.149560117
vt 0.279569892 0.152492669
vt 0.294232649 0.158357771
vt 0.302052786 0.159335288
vt 0.0987292278 0.0322580645
vt 0.113391984 0.0430107527
vt 0.278592375 0.154447703
vt 0.286412512 0.156402737
vt 0.301075269 0.161290323
vt 0.308895406 0.16226784
vt 0.105571848 0.0381231672
vt 0.269794721 0.150537634
vt 0.285434995 0.158357771
vt 0.293255132 0.159335288
vt 0.308895406 0.163245357
vt 0.316715543 0.164222874
vt 0.112414467 0.0439882698
vt 0.277614858 0.156402737
vt 0.292277615 0.16226784
vt 0.301075269 0.16226784
vt 0.316715543 0.166177908
vt 0.50342131 0.195503421
vt 0.268817204 0.152492669
vt 0.284457478 0.160312805
vt 0.300097752 0.165200391
vt 0.307917889 0.165200391
vt 0.50342131 0.197458456
vt 0.512218964 0.196480938
vt 0.276637341 0.157380254
vt 0.292277615 0.163245357
vt 0.307917889 0.168132942
vt 0.316715543 0.167155425
vt 0.511241447 0.198435973
vt 0.519061584 0.197458456
vt 0.283479961 0.161290323
vt 0.299120235 0.166177908
vt 0.291300098 0.165200391
vt 0.288367546 0.172043011
vt 0.291300098 0.165200391
vt 0.28054741 0.168132942
vt 0.50342131 0.198435973
vt 0.272727273 0.163245357
vt 0.279569892 0.169110459
vt 0.288367546 0.173020528
vt 0.264907136 0.158357771
vt 0.271749756 0.165200391
vt 0.278592375 0.170087977
vt 0.287390029 0.173998045
vt 0.240469208 0.254154448
vt 0.251221896 0.258064516
vt 0.228739003 0.249266862
vt 0.270772239 0.166177908
vt 0.217986315 0.244379277
vt 0.262952102 0.161290323
vt 0.0469208211 0.121212121
vt 0.263929619 0.159335288
vt 0.106549365 0.0527859238
vt 0.0381231672 0.113391984
vt 0.107526882 0.0508308895
vt 0.0987292278 0.045943304
vt 0.0303030303 0.105571848
vt 0.108504399 0.0498533724
vt 0.091886608 0.0391006843
vt 0.0224828935 0.0967741935
vt 0.0997067449 0.0449657869
vt 0.100684262 0.0439882698
vt 0.0850439883 0.0322580645
vt 0.0146627566 0.0889540567
vt 0.0928641251 0.0381231672
vt 0.0938416422 0.03714565
vt 0.0791788856 0.0244379277
vt 0.00684261975 0.0811339198
vt 0.0860215054 0.0312805474
vt 0.0879765396 0.0303030303
vt 0.0723362659 0.0166177908
vt 0 0.073313783
vt 0.0664711632 0.00782013685
vt 0.0801564027 0.0234604106
vt 0.0811339198 0.0224828935
vt 0.0742913001 0.0156402737
vt 0.0684261975 0.00684261975
vt 0.0752688172 0.0146627566
vt 0.0703812317 0.00586510264
vt 0.836754643 0.215053763
vt 1 0.0879765396
vt 0.938416422 0.0146627566
vt 0.787878788 0.136852395
vt 0.826001955 0.220918866
vt 0.937438905 0.0127077224
vt 0.780058651 0.14173998
vt 0.816226784 0.226783969
vt 0.786901271 0.135874878
vt 0.935483871 0.0117302053
vt 0.772238514 0.146627566
vt 0.805474096 0.232649071
vt 0.779081134 0.140762463
vt 0.785923754 0.133919844
vt 0.76344086 0.151515152
vt 0.794721408 0.238514174
vt 0.771260997 0.145650049
vt 0.755620723 0.15542522
vt 0.783968719 0.244379277
vt 0.781036168 0.129032258
vt 0.930596285 0.00684261975
vt 0.929618768 0.00586510264
vt 0.778103617 0.139784946
vt 0.76344086 0.149560117
vt 0.746823069 0.159335288
vt 0.773216031 0.250244379
vt 0.780058651 0.127077224
vt 0.928641251 0.00391006843
vt 0.773216031 0.133919844
vt 0.77028348 0.144672532
vt 0.754643206 0.154447703
vt 0.738025415 0.16226784
vt 0.567937439 0.30400782
vt 0.766373412 0.137829912
vt 0.772238514 0.132942326
vt 0.762463343 0.1485826
vt 0.745845552 0.157380254
vt 0.555229717 0.214076246
vt 0.556207234 0.305962854
vt 0.758553275 0.14173998
vt 0.754643206 0.152492669
vt 0.737047898 0.160312805
vt 0.546432063 0.215053763
vt 0.543499511 0.306940371
vt 0.765395894 0.136852395
vt 0.751710655 0.145650049
vt 0.745845552 0.156402737
vt 0.555229717 0.212121212
vt 0.537634409 0.216031281
vt 0.531769306 0.307917889
vt 0.758553275 0.140762463
vt 0.743890518 0.1485826
vt 0.737047898 0.159335288
vt 0.546432063 0.214076246
vt 0.527859238 0.217008798
vt 0.519061584 0.308895406
vt 0.750733138 0.144672532
vt 0.735092864 0.151515152
vt 0.555229717 0.211143695
vt 0.536656891 0.215053763
vt 0.519061584 0.217008798
vt 0.507331378 0.308895406
vt 0.742913001 0.147605083
vt 0.552297165 0.203323558
vt 0.545454545 0.212121212
vt 0.527859238 0.215053763
vt 0.509286413 0.216031281
vt 0.495601173 0.309872923
vt 0.734115347 0.150537634
vt 0.544477028 0.205278592
vt 0.536656891 0.213098729
vt 0.519061584 0.215053763
vt 0.500488759 0.215053763
vt 0.286412512 0.270772239
vt 0.552297165 0.201368524
vt 0.535679374 0.205278592
vt 0.527859238 0.214076246
vt 0.509286413 0.214076246
vt 0.313782991 0.183773216
vt 0.274682307 0.26686217
vt 0.543499511 0.203323558
vt 0.527859238 0.206256109
vt 0.519061584 0.214076246
vt 0.500488759 0.213098729
vt 0.304985337 0.180840665
vt 0.262952102 0.262952102
vt 0.535679374 0.204301075
vt 0.519061584 0.206256109
vt 0.51026393 0.213098729
vt 0.313782991 0.181818182
vt 0.296187683 0.177908113
vt 0.251221896 0.258064516
vt 0.287390029 0.173998045
vt 0.304985337 0.179863148
vt 0.296187683 0.176930596
vt 0.288367546 0.173020528
vt 0.500488759 0.212121212
vt 0.511241447 0.205278592
vt 0.313782991 0.180840665
vt 0.2971652 0.174975562
vt 0.288367546 0.172043011
vt 0.304985337 0.177908113
vt 0.299120235 0.168132942
vt 0.502443793 0.204301075
vt 0.315738025 0.173020528
vt 0.306940371 0.171065494
vt 0.306940371 0.169110459
vt 0.315738025 0.171065494
vt 0.315738025 0.170087977
vt 0.502443793 0.201368524
vt 0.502443793 0.203323558
vt 0.511241447 0.202346041
vt 0.511241447 0.204301075
vt 0.511241447 0.200391007
vt 0.519061584 0.203323558
vt 0.519061584 0.204301075
vt 0.519061584 0.19941349
vt 0.52688172 0.197458456
vt 0.519061584 0.200391007
vt 0.52688172 0.19941349
vt 0.534701857 0.197458456
vt 0.527859238 0.203323558
vt 0.527859238 0.204301075
vt 0.534701857 0.198435973
vt 0.542521994 0.196480938
vt 0.52688172 0.200391007
vt 0.535679374 0.202346041
vt 0.542521994 0.197458456
vt 0.550342131 0.194525904
vt 0.534701857 0.200391007
vt 0.543499511 0.202346041
vt 0.551319648 0.196480938
vt 0.732160313 0.142717498
vt 0.542521994 0.19941349
vt 0.552297165 0.200391007
vt 0.73313783 0.144672532
vt 0.740957967 0.140762463
vt 0.551319648 0.197458456
vt 0.734115347 0.1485826
vt 0.740957967 0.14173998
vt 0.747800587 0.137829912
vt 0.73313783 0.145650049
vt 0.742913001 0.145650049
vt 0.748778104 0.138807429
vt 0.754643206 0.134897361
vt 0.741935484 0.143695015
vt 0.749755621 0.142717498
vt 0.755620723 0.135874878
vt 0.761485826 0.130987292
vt 0.748778104 0.140762463
vt 0.757575758 0.139784946
vt 0.762463343 0.131964809
vt 0.768328446 0.127077224
vt 0.75659824 0.136852395
vt 0.764418377 0.135874878
vt 0.769305963 0.128054741
vt 0.775171065 0.122189638
vt 0.76344086 0.133919844
vt 0.771260997 0.130987292
vt 0.776148583 0.123167155
vt 0.924731183 0
vt 0.9257087 0.000977517107
vt 0.77028348 0.129032258
vt 0.779081134 0.126099707
vt 0.7771261 0.124144673
vt 0.926686217 0.00195503421
vt 0.80742913 0.76344086
vt 0.80742913 0.595307918
vt 0.806451613 0.588465298
vt 0.806451613 0.77028348
vt 0.803519062 0.582600196
vt 0.803519062 0.776148583
vt 0.80058651 0.57771261
vt 0.80058651 0.781036168
vt 0.795698925 0.573802542
vt 0.795698925 0.783968719
vt 0.789833822 0.571847507
vt 0.789833822 0.786901271
vt 0.782991202 0.57086999
vt 0.782991202 0.787878788
vt 0.61485826 0.57086999
vt 0.61485826 0.787878788
vt 0.60801564 0.571847507
vt 0.60801564 0.786901271
vt 0.602150538 0.573802542
vt 0.602150538 0.783968719
vt 0.597262952 0.57771261
vt 0.597262952 0.781036168
vt 0.593352884 0.582600196
vt 0.593352884 0.776148583
vt 0.591397849 0.588465298
vt 0.591397849 0.77028348
vt 0.590420332 0.595307918
vt 0.590420332 0.76344086
vt 0.00879765396 0.549364614
vt 0.0166177908 0.561094819
vt 0.0283479961 0.550342131
vt 0.0224828935 0.541544477
vt 0.0293255132 0.549364614
vt 0.00293255132 0.536656891
vt 0.0234604106 0.541544477
vt 0.0175953079 0.532746823
vt 0 0.523949169
vt 0.0195503421 0.531769306
vt 0.0166177908 0.521994135
vt 0.00293255132 0.319648094
vt 0.0175953079 0.521994135
vt 0.0195503421 0.322580645
vt 0.00684261975 0.305962854
vt 0.0215053763 0.322580645
vt 0.0215053763 0.311827957
vt 0.0127077224 0.294232649
vt 0.0224828935 0.311827957
vt 0.0254154448 0.302052786
vt 0.0215053763 0.283479961
vt 0.027370479 0.303030303
vt 0.0322580645 0.294232649
vt 0.0322580645 0.274682307
vt 0.0332355816 0.295210166
vt 0.0410557185 0.288367546
vt 0.0449657869 0.268817204
vt 0.0420332356 0.289345064
vt 0.0508308895 0.283479961
vt 0.0586510264 0.265884653
vt 0.0508308895 0.285434995
vt 0.0615835777 0.281524927
vt 0.262952102 0.264907136
vt 0.0615835777 0.283479961
vt 0.260997067 0.281524927
vt 0.276637341 0.268817204
vt 0.271749756 0.283479961
vt 0.289345064 0.274682307
vt 0.260997067 0.283479961
vt 0.281524927 0.288367546
vt 0.300097752 0.283479961
vt 0.270772239 0.285434995
vt 0.28054741 0.289345064
vt 0.289345064 0.294232649
vt 0.308895406 0.295210166
vt 0.288367546 0.295210166
vt 0.295210166 0.303030303
vt 0.314760508 0.307917889
vt 0.294232649 0.30400782
vt 0.299120235 0.312805474
vt 0.31769306 0.320625611
vt 0.298142717 0.312805474
vt 0.301075269 0.323558162
vt 0.31769306 0.527859238
vt 0.300097752 0.323558162
vt 0.302052786 0.525904203
vt 0.314760508 0.541544477
vt 0.300097752 0.525904203
vt 0.300097752 0.535679374
vt 0.307917889 0.554252199
vt 0.298142717 0.535679374
vt 0.295210166 0.545454545
vt 0.299120235 0.565004888
vt 0.294232649 0.545454545
vt 0.288367546 0.554252199
vt 0.288367546 0.573802542
vt 0.287390029 0.553274682
vt 0.28054741 0.561094819
vt 0.275659824 0.580645161
vt 0.279569892 0.560117302
vt 0.270772239 0.565982405
vt 0.261974585 0.58455523
vt 0.269794721 0.56402737
vt 0.26001955 0.567937439
vt 0.054740958 0.579667644
vt 0.26001955 0.565982405
vt 0.0576735093 0.56402737
vt 0.0410557185 0.575757576
vt 0.0576735093 0.562072336
vt 0.0469208211 0.561094819
vt 0.0283479961 0.569892473
vt 0.0469208211 0.560117302
vt 0.03714565 0.557184751
vt 0.0166177908 0.561094819
vt 0.0381231672 0.556207234
vt 0.0283479961 0.550342131
vt 0.0293255132 0.549364614
vt 0.692082111 0.539589443
vt 0.700879765 0.551319648
vt 0.711632454 0.54056696
vt 0.705767351 0.532746823
vt 0.712609971 0.539589443
vt 0.687194526 0.527859238
vt 0.706744868 0.531769306
vt 0.701857283 0.522971652
vt 0.683284457 0.514173998
vt 0.7028348 0.522971652
vt 0.699902248 0.512218964
vt 0.687194526 0.312805474
vt 0.701857283 0.512218964
vt 0.7028348 0.314760508
vt 0.690127077 0.299120235
vt 0.704789834 0.315738025
vt 0.704789834 0.304985337
vt 0.69599218 0.287390029
vt 0.706744868 0.304985337
vt 0.709677419 0.295210166
vt 0.704789834 0.276637341
vt 0.710654936 0.296187683
vt 0.715542522 0.287390029
vt 0.716520039 0.267839687
vt 0.716520039 0.288367546
vt 0.724340176 0.281524927
vt 0.728250244 0.262952102
vt 0.725317693 0.282502444
vt 0.734115347 0.277614858
vt 0.741935484 0.259042033
vt 0.734115347 0.278592375
vt 0.744868035 0.275659824
vt 0.944281525 0.259042033
vt 0.744868035 0.276637341
vt 0.942326491 0.275659824
vt 0.957966764 0.262952102
vt 0.952101662 0.277614858
vt 0.96969697 0.268817204
vt 0.942326491 0.276637341
vt 0.961876833 0.281524927
vt 0.980449658 0.277614858
vt 0.952101662 0.278592375
vt 0.960899316 0.282502444
vt 0.96969697 0.287390029
vt 0.989247312 0.288367546
vt 0.968719453 0.289345064
vt 0.975562072 0.296187683
vt 0.994134897 0.301075269
vt 0.974584555 0.2971652
vt 0.979472141 0.305962854
vt 0.998044966 0.313782991
vt 0.978494624 0.305962854
vt 0.981427175 0.316715543
vt 0.998044966 0.519061584
vt 0.980449658 0.316715543
vt 0.982404692 0.516129032
vt 0.994134897 0.532746823
vt 0.980449658 0.516129032
vt 0.980449658 0.52688172
vt 0.988269795 0.544477028
vt 0.978494624 0.525904203
vt 0.975562072 0.536656891
vt 0.979472141 0.556207234
vt 0.974584555 0.535679374
vt 0.968719453 0.544477028
vt 0.968719453 0.56402737
vt 0.967741935 0.543499511
vt 0.960899316 0.551319648
vt 0.95601173 0.57086999
vt 0.959921799 0.550342131
vt 0.951124145 0.556207234
vt 0.942326491 0.573802542
vt 0.950146628 0.554252199
vt 0.940371457 0.558162268
vt 0.738025415 0.569892473
vt 0.940371457 0.556207234
vt 0.73998045 0.554252199
vt 0.724340176 0.565982405
vt 0.740957967 0.552297165
vt 0.730205279 0.551319648
vt 0.711632454 0.560117302
vt 0.730205279 0.550342131
vt 0.720430108 0.54740958
vt 0.700879765 0.551319648
vt 0.721407625 0.546432063
vt 0.711632454 0.54056696
vt 0.712609971 0.539589443
vt 0.342130987 0.58455523
vt 0.33431085 0.578690127
vt 0.332355816 0.579667644
vt 0.34115347 0.586510264
vt 0.351906158 0.588465298
vt 0.350928641 0.590420332
vt 0.362658847 0.590420332
vt 0.361681329 0.591397849
vt 0.560117302 0.590420332
vt 0.561094819 0.592375367
vt 0.57086999 0.588465298
vt 0.571847507 0.590420332
vt 0.580645161 0.58455523
vt 0.581622678 0.586510264
vt 0.589442815 0.578690127
vt 0.590420332 0.579667644
vt 0.595307918 0.569892473
vt 0.596285435 0.57086999
vt 0.599217986 0.560117302
vt 0.601173021 0.561094819
vt 0.601173021 0.550342131
vt 0.602150538 0.550342131
vt 0.601173021 0.350928641
vt 0.602150538 0.350928641
vt 0.599217986 0.34115347
vt 0.601173021 0.340175953
vt 0.595307918 0.331378299
vt 0.597262952 0.330400782
vt 0.589442815 0.322580645
vt 0.590420332 0.321603128
vt 0.580645161 0.316715543
vt 0.581622678 0.314760508
vt 0.57086999 0.312805474
vt 0.571847507 0.31085044
vt 0.561094819 0.31085044
vt 0.561094819 0.309872923
vt 0.361681329 0.311827957
vt 0.361681329 0.309872923
vt 0.350928641 0.312805474
vt 0.350928641 0.31085044
vt 0.342130987 0.316715543
vt 0.34115347 0.315738025
vt 0.333333333 0.323558162
vt 0.332355816 0.321603128
vt 0.327468231 0.331378299
vt 0.325513196 0.330400782
vt 0.322580645 0.34115347
vt 0.321603128 0.34115347
vt 0.321603128 0.351906158
vt 0.319648094 0.351906158
vt 0.321603128 0.550342131
vt 0.320625611 0.550342131
vt 0.323558162 0.560117302
vt 0.321603128 0.561094819
vt 0.327468231 0.569892473
vt 0.326490714 0.57086999
vt 0.33431085 0.578690127
vt 0.332355816 0.579667644
vt 0.0215053763 0.8514174
vt 0.0136852395 0.84457478
vt 0.0127077224 0.845552297
vt 0.0205278592 0.852394917
vt 0.0303030303 0.855327468
vt 0.0303030303 0.856304985
vt 0.0410557185 0.856304985
vt 0.0410557185 0.857282502
vt 0.233626588 0.856304985
vt 0.233626588 0.857282502
vt 0.24340176 0.855327468
vt 0.244379277 0.856304985
vt 0.253176931 0.8514174
vt 0.254154448 0.852394917
vt 0.260997067 0.84457478
vt 0.261974585 0.845552297
vt 0.26686217 0.836754643
vt 0.268817204 0.83773216
vt 0.270772239 0.826979472
vt 0.272727273 0.827956989
vt 0.272727273 0.817204301
vt 0.27370479 0.817204301
vt 0.272727273 0.624633431
vt 0.274682307 0.623655914
vt 0.270772239 0.613880743
vt 0.272727273 0.613880743
vt 0.26686217 0.605083089
vt 0.268817204 0.604105572
vt 0.260997067 0.596285435
vt 0.261974585 0.595307918
vt 0.253176931 0.590420332
vt 0.254154448 0.589442815
vt 0.24340176 0.586510264
vt 0.244379277 0.58455523
vt 0.233626588 0.585532747
vt 0.233626588 0.583577713
vt 0.0400782014 0.585532747
vt 0.0400782014 0.583577713
vt 0.0303030303 0.586510264
vt 0.0303030303 0.585532747
vt 0.0205278592 0.590420332
vt 0.0205278592 0.589442815
vt 0.0127077224 0.597262952
vt 0.0117302053 0.596285435
vt 0.00684261975 0.605083089
vt 0.00586510264 0.604105572
vt 0.00293255132 0.613880743
vt 0.000977517107 0.613880743
vt 0.00195503421 0.624633431
vt 0 0.624633431
vt 0.00195503421 0.817204301
vt 0 0.817204301
vt 0.00293255132 0.826979472
vt 0.00195503421 0.827956989
vt 0.00684261975 0.836754643
vt 0.00586510264 0.83773216
vt 0.0136852395 0.84457478
vt 0.0127077224 0.845552297
vt 0.270772239 0.624633431
vt 0.270772239 0.817204301
vt 0.270772239 0.826979472
vt 0.269794721 0.61485826
vt 0.270772239 0.613880743
vt 0.269794721 0.826979472
vt 0.26686217 0.836754643
vt 0.265884653 0.605083089
vt 0.26686217 0.605083089
vt 0.265884653 0.835777126
vt 0.260997067 0.84457478
vt 0.26001955 0.597262952
vt 0.260997067 0.596285435
vt 0.26001955 0.843597263
vt 0.253176931 0.8514174
vt 0.252199413 0.591397849
vt 0.253176931 0.590420332
vt 0.252199413 0.849462366
vt 0.24340176 0.855327468
vt 0.24340176 0.587487781
vt 0.24340176 0.586510264
vt 0.24340176 0.853372434
vt 0.233626588 0.856304985
vt 0.233626588 0.586510264
vt 0.233626588 0.585532747
vt 0.0410557185 0.587487781
vt 0.0400782014 0.585532747
vt 0.0303030303 0.588465298
vt 0.0303030303 0.586510264
vt 0.0215053763 0.592375367
vt 0.0205278592 0.590420332
vt 0.0136852395 0.598240469
vt 0.0127077224 0.597262952
vt 0.00782013685 0.606060606
vt 0.00684261975 0.605083089
vt 0.00391006843 0.61485826
vt 0.00293255132 0.613880743
vt 0.00293255132 0.624633431
vt 0.00195503421 0.624633431
vt 0.00293255132 0.817204301
vt 0.00195503421 0.817204301
vt 0.00488758553 0.826979472
vt 0.00293255132 0.826979472
vt 0.00879765396 0.835777126
vt 0.00684261975 0.836754643
vt 0.0146627566 0.843597263
vt 0.0136852395 0.84457478
vt 0.0224828935 0.849462366
vt 0.0215053763 0.8514174
vt 0.0312805474 0.853372434
vt 0.0303030303 0.855327468
vt 0.0410557185 0.854349951
vt 0.0410557185 0.856304985
vt 0.233626588 0.854349951
vt 0.599217986 0.350928641
vt 0.599217986 0.550342131
vt 0.599217986 0.560117302
vt 0.598240469 0.34115347
vt 0.599217986 0.34115347
vt 0.598240469 0.560117302
vt 0.595307918 0.569892473
vt 0.594330401 0.332355816
vt 0.595307918 0.331378299
vt 0.594330401 0.569892473
vt 0.589442815 0.578690127
vt 0.588465298 0.323558162
vt 0.589442815 0.322580645
vt 0.587487781 0.57771261
vt 0.580645161 0.58455523
vt 0.579667644 0.31769306
vt 0.580645161 0.316715543
vt 0.579667644 0.583577713
vt 0.57086999 0.588465298
vt 0.57086999 0.313782991
vt 0.57086999 0.312805474
vt 0.57086999 0.587487781
vt 0.560117302 0.590420332
vt 0.560117302 0.312805474
vt 0.561094819 0.31085044
vt 0.361681329 0.312805474
vt 0.361681329 0.311827957
vt 0.351906158 0.314760508
vt 0.350928641 0.312805474
vt 0.342130987 0.31769306
vt 0.342130987 0.316715543
vt 0.33431085 0.324535679
vt 0.333333333 0.323558162
vt 0.328445748 0.332355816
vt 0.327468231 0.331378299
vt 0.324535679 0.34115347
vt 0.322580645 0.34115347
vt 0.323558162 0.351906158
vt 0.321603128 0.351906158
vt 0.323558162 0.550342131
vt 0.321603128 0.550342131
vt 0.324535679 0.560117302
vt 0.323558162 0.560117302
vt 0.328445748 0.568914956
vt 0.327468231 0.569892473
vt 0.335288368 0.57771261
vt 0.33431085 0.578690127
vt 0.343108504 0.583577713
vt 0.342130987 0.58455523
vt 0.351906158 0.587487781
vt 0.351906158 0.588465298
vt 0.362658847 0.588465298
vt 0.362658847 0.590420332
vt 0.560117302 0.588465298
vt 0.744868035 0.278592375
vt 0.941348974 0.278592375
vt 0.952101662 0.278592375
vt 0.735092864 0.28054741
vt 0.734115347 0.278592375
vt 0.951124145 0.279569892
vt 0.960899316 0.282502444
vt 0.725317693 0.283479961
vt 0.725317693 0.282502444
vt 0.959921799 0.284457478
vt 0.968719453 0.289345064
vt 0.717497556 0.289345064
vt 0.716520039 0.288367546
vt 0.967741935 0.290322581
vt 0.974584555 0.2971652
vt 0.711632454 0.2971652
vt 0.710654936 0.296187683
vt 0.973607038 0.2971652
vt 0.978494624 0.305962854
vt 0.707722385 0.305962854
vt 0.706744868 0.304985337
vt 0.976539589 0.306940371
vt 0.980449658 0.316715543
vt 0.705767351 0.315738025
vt 0.704789834 0.315738025
vt 0.7028348 0.512218964
vt 0.701857283 0.512218964
vt 0.704789834 0.521994135
vt 0.7028348 0.522971652
vt 0.707722385 0.530791789
vt 0.706744868 0.531769306
vt 0.714565005 0.538611926
vt 0.712609971 0.539589443
vt 0.721407625 0.544477028
vt 0.721407625 0.546432063
vt 0.731182796 0.549364614
vt 0.730205279 0.550342131
vt 0.740957967 0.551319648
vt 0.740957967 0.552297165
vt 0.940371457 0.554252199
vt 0.940371457 0.556207234
vt 0.950146628 0.553274682
vt 0.950146628 0.554252199
vt 0.958944282 0.549364614
vt 0.959921799 0.550342131
vt 0.966764418 0.542521994
vt 0.967741935 0.543499511
vt 0.973607038 0.534701857
vt 0.974584555 0.535679374
vt 0.977517107 0.525904203
vt 0.978494624 0.525904203
vt 0.978494624 0.516129032
vt 0.980449658 0.516129032
vt 0.978494624 0.316715543
vt 0.0615835777 0.285434995
vt 0.260997067 0.284457478
vt 0.270772239 0.285434995
vt 0.0518084066 0.286412512
vt 0.0508308895 0.285434995
vt 0.270772239 0.286412512
vt 0.28054741 0.289345064
vt 0.0420332356 0.290322581
vt 0.0420332356 0.289345064
vt 0.279569892 0.290322581
vt 0.288367546 0.295210166
vt 0.0342130987 0.296187683
vt 0.0332355816 0.295210166
vt 0.287390029 0.296187683
vt 0.294232649 0.30400782
vt 0.0283479961 0.30400782
vt 0.027370479 0.303030303
vt 0.293255132 0.30400782
vt 0.298142717 0.312805474
vt 0.0244379277 0.312805474
vt 0.0224828935 0.311827957
vt 0.296187683 0.313782991
vt 0.300097752 0.323558162
vt 0.0224828935 0.322580645
vt 0.0215053763 0.322580645
vt 0.0195503421 0.521994135
vt 0.0175953079 0.521994135
vt 0.0205278592 0.531769306
vt 0.0195503421 0.531769306
vt 0.0244379277 0.54056696
vt 0.0234604106 0.541544477
vt 0.0303030303 0.548387097
vt 0.0293255132 0.549364614
vt 0.0381231672 0.554252199
vt 0.0381231672 0.556207234
vt 0.0478983382 0.559139785
vt 0.0469208211 0.560117302
vt 0.0576735093 0.561094819
vt 0.0576735093 0.562072336
vt 0.26001955 0.56402737
vt 0.26001955 0.565982405
vt 0.269794721 0.563049853
vt 0.269794721 0.56402737
vt 0.278592375 0.558162268
vt 0.279569892 0.560117302
vt 0.286412512 0.552297165
vt 0.287390029 0.553274682
vt 0.293255132 0.544477028
vt 0.294232649 0.545454545
vt 0.2971652 0.535679374
vt 0.298142717 0.535679374
vt 0.299120235 0.524926686
vt 0.300097752 0.525904203
vt 0.298142717 0.323558162
g Item_18Item_18_mobile_0
f 3/3/3 2/2/2 1/1/1
f 4/4/4 3/3/3 1/1/1
f 1/1/1 5/5/5 4/4/4
f 6/6/6 3/3/3 4/4/4
f 5/5/5 7/7/7 4/4/4
f 7/7/7 5/5/5 8/8/8
f 9/9/9 6/6/6 4/4/4
f 4/4/4 7/7/7 9/9/9
f 10/10/10 7/7/7 8/8/8
f 10/10/10 8/8/8 11/11/11
f 6/6/6 9/9/9 12/12/12
f 13/13/13 6/6/6 12/12/12
f 13/13/13 12/12/12 14/14/14
f 7/7/7 15/15/15 9/9/9
f 15/15/15 7/7/7 10/10/10
f 16/16/16 10/10/10 11/11/11
f 16/16/16 11/11/11 17/17/17
f 12/12/12 18/18/18 14/14/14
f 14/14/14 18/18/18 19/19/19
f 12/12/12 9/9/9 20/20/20
f 9/9/9 15/15/15 20/20/20
f 12/12/12 20/20/20 18/18/18
f 21/21/21 15/15/15 10/10/10
f 21/21/21 10/10/10 16/16/16
f 22/22/22 16/16/16 17/17/17
f 22/22/22 17/17/17 23/23/23
f 20/20/20 15/15/15 24/24/24
f 15/15/15 21/21/21 24/24/24
f 20/20/20 25/25/25 18/18/18
f 25/25/25 20/20/20 24/24/24
f 18/18/18 26/26/26 19/19/19
f 18/18/18 25/25/25 26/26/26
f 27/27/27 21/21/21 16/16/16
f 27/27/27 16/16/16 22/22/22
f 28/28/28 22/22/22 23/23/23
f 28/28/28 23/23/23 29/29/29
f 24/24/24 21/21/21 30/30/30
f 21/21/21 27/27/27 30/30/30
f 31/31/31 25/25/25 24/24/24
f 31/31/31 24/24/24 30/30/30
f 32/32/32 27/27/27 22/22/22
f 32/32/32 22/22/22 28/28/28
f 33/33/33 28/28/28 29/29/29
f 33/33/33 29/29/29 34/34/34
f 30/30/30 27/27/27 35/35/35
f 27/27/27 32/32/32 35/35/35
f 36/36/36 32/32/32 28/28/28
f 36/36/36 28/28/28 33/33/33
f 37/37/37 33/33/33 34/34/34
f 37/37/37 34/34/34 38/38/38
f 39/39/39 25/25/25 31/31/31
f 25/25/25 39/39/39 26/26/26
f 40/40/40 31/31/31 30/30/30
f 40/40/40 30/30/30 35/35/35
f 35/35/35 32/32/32 41/41/41
f 32/32/32 36/36/36 41/41/41
f 42/42/42 36/36/36 33/33/33
f 42/42/42 33/33/33 37/37/37
f 43/43/43 37/37/37 38/38/38
f 43/43/43 38/38/38 44/44/44
f 45/45/45 39/39/39 31/31/31
f 45/45/45 31/31/31 40/40/40
f 46/46/46 40/40/40 35/35/35
f 46/46/46 35/35/35 41/41/41
f 41/41/41 36/36/36 47/47/47
f 36/36/36 42/42/42 47/47/47
f 48/48/48 42/42/42 37/37/37
f 48/48/48 37/37/37 43/43/43
f 49/49/49 43/43/43 44/44/44
f 49/49/49 44/44/44 50/50/50
f 51/51/51 45/45/45 40/40/40
f 51/51/51 40/40/40 46/46/46
f 52/52/52 46/46/46 41/41/41
f 52/52/52 41/41/41 47/47/47
f 47/47/47 42/42/42 53/53/53
f 42/42/42 48/48/48 53/53/53
f 54/54/54 48/48/48 43/43/43
f 54/54/54 43/43/43 49/49/49
f 55/55/55 49/49/49 50/50/50
f 55/55/55 50/50/50 56/56/56
f 57/57/57 51/51/51 46/46/46
f 57/57/57 46/46/46 52/52/52
f 58/58/58 52/52/52 47/47/47
f 47/47/47 53/53/53 58/58/58
f 53/53/53 48/48/48 59/59/59
f 48/48/48 54/54/54 59/59/59
f 60/60/60 54/54/54 49/49/49
f 60/60/60 49/49/49 55/55/55
f 61/61/61 55/55/55 56/56/56
f 61/61/61 56/56/56 62/62/62
f 63/63/63 57/57/57 52/52/52
f 63/63/63 52/52/52 58/58/58
f 53/53/53 64/64/64 58/58/58
f 53/53/53 59/59/59 64/64/64
f 59/59/59 54/54/54 65/65/65
f 54/54/54 60/60/60 65/65/65
f 66/66/66 60/60/60 55/55/55
f 66/66/66 55/55/55 61/61/61
f 67/67/67 61/61/61 62/62/62
f 67/67/67 62/62/62 68/68/68
f 69/69/69 63/63/63 58/58/58
f 58/58/58 64/64/64 69/69/69
f 59/59/59 70/70/70 64/64/64
f 59/59/59 65/65/65 70/70/70
f 65/65/65 60/60/60 71/71/71
f 60/60/60 66/66/66 71/71/71
f 72/72/72 66/66/66 61/61/61
f 72/72/72 61/61/61 67/67/67
f 73/73/73 67/67/67 68/68/68
f 73/73/73 68/68/68 74/74/74
f 64/64/64 75/75/75 69/69/69
f 64/64/64 70/70/70 75/75/75
f 65/65/65 76/76/76 70/70/70
f 65/65/65 71/71/71 76/76/76
f 71/71/71 66/66/66 77/77/77
f 66/66/66 72/72/72 77/77/77
f 78/78/78 72/72/72 67/67/67
f 78/78/78 67/67/67 73/73/73
f 79/79/79 73/73/73 74/74/74
f 79/79/79 74/74/74 80/80/80
f 70/70/70 81/81/81 75/75/75
f 70/70/70 76/76/76 81/81/81
f 71/71/71 82/82/82 76/76/76
f 71/71/71 77/77/77 82/82/82
f 76/76/76 83/83/83 81/81/81
f 81/81/81 83/83/83 84/84/84
f 76/76/76 82/82/82 85/85/85
f 75/75/75 81/81/81 86/86/86
f 86/86/86 81/81/81 84/84/84
f 87/87/87 78/78/78 73/73/73
f 87/87/87 73/73/73 79/79/79
f 88/88/88 75/75/75 86/86/86
f 69/69/69 75/75/75 88/88/88
f 86/86/86 84/84/84 89/89/89
f 84/84/84 90/90/90 89/89/89
f 91/91/91 69/69/69 88/88/88
f 63/63/63 69/69/69 91/91/91
f 88/88/88 86/86/86 92/92/92
f 86/86/86 89/89/89 92/92/92
f 89/89/89 90/90/90 93/93/93
f 90/90/90 94/94/94 93/93/93
f 93/93/93 94/94/94 95/95/95
f 94/94/94 96/96/96 95/95/95
f 93/93/93 95/95/95 97/97/97
f 89/89/89 93/93/93 98/98/98
f 98/98/98 93/93/93 97/97/97
f 92/92/92 89/89/89 98/98/98
f 98/98/98 97/97/97 99/99/99
f 100/100/100 98/98/98 99/99/99
f 92/92/92 98/98/98 100/100/100
f 100/100/100 99/99/99 101/101/101
f 88/88/88 92/92/92 102/102/102
f 102/102/102 92/92/92 100/100/100
f 91/91/91 88/88/88 102/102/102
f 103/103/103 100/100/100 101/101/101
f 100/100/100 103/103/103 102/102/102
f 101/101/101 104/104/104 103/103/103
f 102/102/102 105/105/105 91/91/91
f 103/103/103 105/105/105 102/102/102
f 104/104/104 106/106/106 103/103/103
f 103/103/103 106/106/106 105/105/105
f 104/104/104 107/107/107 106/106/106
f 105/105/105 108/108/108 91/91/91
f 108/108/108 63/63/63 91/91/91
f 57/57/57 63/63/63 108/108/108
f 107/107/107 109/109/109 106/106/106
f 107/107/107 110/110/110 109/109/109
f 106/106/106 111/111/111 105/105/105
f 105/105/105 111/111/111 108/108/108
f 106/106/106 109/109/109 111/111/111
f 112/112/112 57/57/57 108/108/108
f 111/111/111 112/112/112 108/108/108
f 51/51/51 57/57/57 112/112/112
f 110/110/110 113/113/113 109/109/109
f 110/110/110 114/114/114 113/113/113
f 109/109/109 115/115/115 111/111/111
f 111/111/111 115/115/115 112/112/112
f 109/109/109 113/113/113 115/115/115
f 116/116/116 51/51/51 112/112/112
f 115/115/115 116/116/116 112/112/112
f 45/45/45 51/51/51 116/116/116
f 114/114/114 117/117/117 113/113/113
f 114/114/114 118/118/118 117/117/117
f 113/113/113 119/119/119 115/115/115
f 115/115/115 119/119/119 116/116/116
f 113/113/113 117/117/117 119/119/119
f 120/120/120 45/45/45 116/116/116
f 119/119/119 120/120/120 116/116/116
f 39/39/39 45/45/45 120/120/120
f 118/118/118 121/121/121 117/117/117
f 118/118/118 122/122/122 121/121/121
f 122/122/122 123/123/123 121/121/121
f 117/117/117 124/124/124 119/119/119
f 119/119/119 124/124/124 120/120/120
f 117/117/117 121/121/121 124/124/124
f 125/125/125 39/39/39 120/120/120
f 124/124/124 125/125/125 120/120/120
f 26/26/26 39/39/39 125/125/125
f 126/126/126 121/121/121 123/123/123
f 121/121/121 126/126/126 124/124/124
f 124/124/124 126/126/126 125/125/125
f 127/127/127 126/126/126 123/123/123
f 128/128/128 26/26/26 125/125/125
f 126/126/126 128/128/128 125/125/125
f 128/128/128 126/126/126 127/127/127
f 19/19/19 26/26/26 128/128/128
f 129/129/129 128/128/128 127/127/127
f 129/129/129 19/19/19 128/128/128
f 132/132/132 131/131/131 130/130/130
f 133/133/133 132/132/132 130/130/130
f 130/130/130 134/134/134 133/133/133
f 135/135/135 132/132/132 133/133/133
f 134/134/134 136/136/136 133/133/133
f 134/134/134 137/137/137 136/136/136
f 138/138/138 135/135/135 133/133/133
f 133/133/133 136/136/136 138/138/138
f 139/139/139 135/135/135 138/138/138
f 137/137/137 140/140/140 136/136/136
f 137/137/137 141/141/141 140/140/140
f 136/136/136 142/142/142 138/138/138
f 136/136/136 140/140/140 142/142/142
f 143/143/143 139/139/139 138/138/138
f 138/138/138 142/142/142 143/143/143
f 141/141/141 144/144/144 140/140/140
f 141/141/141 145/145/145 144/144/144
f 140/140/140 146/146/146 142/142/142
f 140/140/140 144/144/144 146/146/146
f 145/145/145 147/147/147 144/144/144
f 145/145/145 148/148/148 147/147/147
f 143/143/143 149/149/149 139/139/139
f 149/149/149 150/150/150 139/139/139
f 150/150/150 149/149/149 151/151/151
f 142/142/142 152/152/152 143/143/143
f 142/142/142 146/146/146 152/152/152
f 144/144/144 153/153/153 146/146/146
f 144/144/144 147/147/147 153/153/153
f 148/148/148 154/154/154 147/147/147
f 148/148/148 155/155/155 154/154/154
f 149/149/149 156/156/156 151/151/151
f 151/151/151 156/156/156 157/157/157
f 158/158/158 149/149/149 143/143/143
f 152/152/152 158/158/158 143/143/143
f 149/149/149 158/158/158 156/156/156
f 146/146/146 159/159/159 152/152/152
f 146/146/146 153/153/153 159/159/159
f 147/147/147 160/160/160 153/153/153
f 147/147/147 154/154/154 160/160/160
f 155/155/155 161/161/161 154/154/154
f 161/161/161 155/155/155 162/162/162
f 163/163/163 158/158/158 152/152/152
f 159/159/159 163/163/163 152/152/152
f 158/158/158 164/164/164 156/156/156
f 158/158/158 163/163/163 164/164/164
f 153/153/153 165/165/165 159/159/159
f 153/153/153 160/160/160 165/165/165
f 154/154/154 166/166/166 160/160/160
f 166/166/166 154/154/154 161/161/161
f 167/167/167 161/161/161 162/162/162
f 162/162/162 168/168/168 167/167/167
f 169/169/169 163/163/163 159/159/159
f 165/165/165 169/169/169 159/159/159
f 160/160/160 170/170/170 165/165/165
f 160/160/160 166/166/166 170/170/170
f 171/171/171 166/166/166 161/161/161
f 171/171/171 161/161/161 167/167/167
f 168/168/168 172/172/172 167/167/167
f 168/168/168 173/173/173 172/172/172
f 163/163/163 169/169/169 174/174/174
f 163/163/163 174/174/174 164/164/164
f 175/175/175 169/169/169 165/165/165
f 170/170/170 175/175/175 165/165/165
f 166/166/166 176/176/176 170/170/170
f 176/176/176 166/166/166 171/171/171
f 177/177/177 171/171/171 167/167/167
f 167/167/167 172/172/172 177/177/177
f 173/173/173 178/178/178 172/172/172
f 173/173/173 179/179/179 178/178/178
f 169/169/169 180/180/180 174/174/174
f 169/169/169 175/175/175 180/180/180
f 181/181/181 175/175/175 170/170/170
f 176/176/176 181/181/181 170/170/170
f 182/182/182 176/176/176 171/171/171
f 182/182/182 171/171/171 177/177/177
f 172/172/172 183/183/183 177/177/177
f 172/172/172 178/178/178 183/183/183
f 179/179/179 184/184/184 178/178/178
f 179/179/179 185/185/185 184/184/184
f 175/175/175 186/186/186 180/180/180
f 175/175/175 181/181/181 186/186/186
f 187/187/187 181/181/181 176/176/176
f 182/182/182 187/187/187 176/176/176
f 188/188/188 182/182/182 177/177/177
f 177/177/177 183/183/183 188/188/188
f 178/178/178 189/189/189 183/183/183
f 178/178/178 184/184/184 189/189/189
f 185/185/185 190/190/190 184/184/184
f 185/185/185 191/191/191 190/190/190
f 181/181/181 192/192/192 186/186/186
f 181/181/181 187/187/187 192/192/192
f 193/193/193 187/187/187 182/182/182
f 188/188/188 193/193/193 182/182/182
f 183/183/183 194/194/194 188/188/188
f 183/183/183 189/189/189 194/194/194
f 184/184/184 195/195/195 189/189/189
f 184/184/184 190/190/190 195/195/195
f 191/191/191 196/196/196 190/190/190
f 191/191/191 197/197/197 196/196/196
f 187/187/187 198/198/198 192/192/192
f 198/198/198 187/187/187 193/193/193
f 199/199/199 193/193/193 188/188/188
f 194/194/194 199/199/199 188/188/188
f 189/189/189 200/200/200 194/194/194
f 189/189/189 195/195/195 200/200/200
f 190/190/190 201/201/201 195/195/195
f 190/190/190 196/196/196 201/201/201
f 197/197/197 202/202/202 196/196/196
f 202/202/202 197/197/197 203/203/203
f 204/204/204 198/198/198 193/193/193
f 193/193/193 199/199/199 204/204/204
f 205/205/205 199/199/199 194/194/194
f 200/200/200 205/205/205 194/194/194
f 195/195/195 206/206/206 200/200/200
f 195/195/195 201/201/201 206/206/206
f 196/196/196 207/207/207 201/201/201
f 207/207/207 196/196/196 202/202/202
f 208/208/208 202/202/202 203/203/203
f 208/208/208 203/203/203 209/209/209
f 199/199/199 210/210/210 204/204/204
f 199/199/199 205/205/205 210/210/210
f 211/211/211 205/205/205 200/200/200
f 206/206/206 211/211/211 200/200/200
f 201/201/201 212/212/212 206/206/206
f 201/201/201 207/207/207 212/212/212
f 213/213/213 207/207/207 202/202/202
f 213/213/213 202/202/202 208/208/208
f 214/214/214 208/208/208 209/209/209
f 214/214/214 209/209/209 215/215/215
f 205/205/205 216/216/216 210/210/210
f 205/205/205 211/211/211 216/216/216
f 217/217/217 211/211/211 206/206/206
f 212/212/212 217/217/217 206/206/206
f 207/207/207 218/218/218 212/212/212
f 218/218/218 207/207/207 213/213/213
f 219/219/219 213/213/213 208/208/208
f 208/208/208 214/214/214 219/219/219
f 220/220/220 214/214/214 215/215/215
f 220/220/220 215/215/215 221/221/221
f 222/222/222 220/220/220 221/221/221
f 223/223/223 214/214/214 220/220/220
f 214/214/214 223/223/223 219/219/219
f 224/224/224 220/220/220 222/222/222
f 224/224/224 223/223/223 220/220/220
f 225/225/225 224/224/224 222/222/222
f 226/226/226 213/213/213 219/219/219
f 226/226/226 218/218/218 213/213/213
f 218/218/218 227/227/227 212/212/212
f 227/227/227 217/217/217 212/212/212
f 219/219/219 223/223/223 228/228/228
f 228/228/228 226/226/226 219/219/219
f 229/229/229 224/224/224 225/225/225
f 230/230/230 229/229/229 225/225/225
f 230/230/230 85/85/85 229/229/229
f 231/231/231 223/223/223 224/224/224
f 229/229/229 231/231/231 224/224/224
f 223/223/223 231/231/231 228/228/228
f 85/85/85 232/232/232 229/229/229
f 229/229/229 232/232/232 231/231/231
f 82/82/82 232/232/232 85/85/85
f 226/226/226 233/233/233 218/218/218
f 233/233/233 227/227/227 218/218/218
f 228/228/228 234/234/234 226/226/226
f 234/234/234 233/233/233 226/226/226
f 231/231/231 235/235/235 228/228/228
f 232/232/232 235/235/235 231/231/231
f 235/235/235 234/234/234 228/228/228
f 82/82/82 236/236/236 232/232/232
f 236/236/236 235/235/235 232/232/232
f 77/77/77 236/236/236 82/82/82
f 237/237/237 234/234/234 235/235/235
f 236/236/236 237/237/237 235/235/235
f 77/77/77 238/238/238 236/236/236
f 238/238/238 237/237/237 236/236/236
f 77/77/77 72/72/72 238/238/238
f 72/72/72 78/78/78 238/238/238
f 238/238/238 78/78/78 239/239/239
f 238/238/238 239/239/239 237/237/237
f 78/78/78 87/87/87 239/239/239
f 237/237/237 240/240/240 234/234/234
f 240/240/240 233/233/233 234/234/234
f 239/239/239 240/240/240 237/237/237
f 239/239/239 87/87/87 241/241/241
f 240/240/240 239/239/239 241/241/241
f 233/233/233 240/240/240 242/242/242
f 242/242/242 240/240/240 241/241/241
f 227/227/227 233/233/233 242/242/242
f 87/87/87 243/243/243 241/241/241
f 243/243/243 87/87/87 79/79/79
f 242/242/242 241/241/241 244/244/244
f 241/241/241 243/243/243 244/244/244
f 227/227/227 242/242/242 245/245/245
f 245/245/245 242/242/242 244/244/244
f 217/217/217 227/227/227 245/245/245
f 243/243/243 79/79/79 246/246/246
f 246/246/246 79/79/79 80/80/80
f 246/246/246 80/80/80 247/247/247
f 243/243/243 248/248/248 244/244/244
f 248/248/248 243/243/243 246/246/246
f 249/249/249 246/246/246 247/247/247
f 248/248/248 246/246/246 249/249/249
f 249/249/249 247/247/247 250/250/250
f 245/245/245 244/244/244 251/251/251
f 244/244/244 248/248/248 251/251/251
f 217/217/217 245/245/245 252/252/252
f 252/252/252 245/245/245 251/251/251
f 211/211/211 217/217/217 252/252/252
f 211/211/211 252/252/252 216/216/216
f 253/253/253 249/249/249 250/250/250
f 253/253/253 250/250/250 254/254/254
f 255/255/255 248/248/248 249/249/249
f 248/248/248 255/255/255 251/251/251
f 255/255/255 249/249/249 253/253/253
f 252/252/252 251/251/251 256/256/256
f 216/216/216 252/252/252 256/256/256
f 251/251/251 255/255/255 256/256/256
f 257/257/257 253/253/253 254/254/254
f 257/257/257 254/254/254 258/258/258
f 259/259/259 255/255/255 253/253/253
f 255/255/255 259/259/259 256/256/256
f 259/259/259 253/253/253 257/257/257
f 216/216/216 256/256/256 260/260/260
f 256/256/256 259/259/259 260/260/260
f 210/210/210 216/216/216 260/260/260
f 261/261/261 257/257/257 258/258/258
f 261/261/261 258/258/258 262/262/262
f 263/263/263 259/259/259 257/257/257
f 259/259/259 263/263/263 260/260/260
f 263/263/263 257/257/257 261/261/261
f 210/210/210 260/260/260 264/264/264
f 260/260/260 263/263/263 264/264/264
f 204/204/204 210/210/210 264/264/264
f 265/265/265 261/261/261 262/262/262
f 265/265/265 262/262/262 266/266/266
f 267/267/267 263/263/263 261/261/261
f 263/263/263 267/267/267 264/264/264
f 267/267/267 261/261/261 265/265/265
f 264/264/264 268/268/268 204/204/204
f 264/264/264 267/267/267 268/268/268
f 268/268/268 198/198/198 204/204/204
f 269/269/269 265/265/265 266/266/266
f 269/269/269 266/266/266 270/270/270
f 271/271/271 267/267/267 265/265/265
f 267/267/267 271/271/271 268/268/268
f 271/271/271 265/265/265 269/269/269
f 198/198/198 268/268/268 272/272/272
f 268/268/268 271/271/271 272/272/272
f 192/192/192 198/198/198 272/272/272
f 273/273/273 269/269/269 270/270/270
f 273/273/273 270/270/270 274/274/274
f 275/275/275 271/271/271 269/269/269
f 271/271/271 275/275/275 272/272/272
f 275/275/275 269/269/269 273/273/273
f 192/192/192 272/272/272 276/276/276
f 272/272/272 275/275/275 276/276/276
f 186/186/186 192/192/192 276/276/276
f 277/277/277 273/273/273 274/274/274
f 277/277/277 274/274/274 278/278/278
f 279/279/279 275/275/275 273/273/273
f 275/275/275 279/279/279 276/276/276
f 279/279/279 273/273/273 277/277/277
f 186/186/186 276/276/276 280/280/280
f 276/276/276 279/279/279 280/280/280
f 180/180/180 186/186/186 280/280/280
f 281/281/281 277/277/277 278/278/278
f 281/281/281 278/278/278 282/282/282
f 283/283/283 279/279/279 277/277/277
f 279/279/279 283/283/283 280/280/280
f 283/283/283 277/277/277 281/281/281
f 180/180/180 280/280/280 284/284/284
f 280/280/280 283/283/283 284/284/284
f 174/174/174 180/180/180 284/284/284
f 285/285/285 281/281/281 282/282/282
f 282/282/282 286/286/286 285/285/285
f 287/287/287 283/283/283 281/281/281
f 283/283/283 287/287/287 284/284/284
f 287/287/287 281/281/281 285/285/285
f 174/174/174 284/284/284 288/288/288
f 284/284/284 287/287/287 288/288/288
f 164/164/164 174/174/174 288/288/288
f 286/286/286 289/289/289 285/285/285
f 289/289/289 286/286/286 290/290/290
f 291/291/291 289/289/289 290/290/290
f 292/292/292 287/287/287 285/285/285
f 287/287/287 292/292/292 288/288/288
f 285/285/285 289/289/289 292/292/292
f 164/164/164 288/288/288 293/293/293
f 288/288/288 292/292/292 293/293/293
f 156/156/156 164/164/164 293/293/293
f 156/156/156 293/293/293 157/157/157
f 294/294/294 289/289/289 291/291/291
f 289/289/289 294/294/294 292/292/292
f 292/292/292 294/294/294 293/293/293
f 293/293/293 294/294/294 157/157/157
f 295/295/295 294/294/294 291/291/291
f 294/294/294 295/295/295 157/157/157
f 298/298/298 297/297/297 296/296/296
f 296/296/296 299/299/299 298/298/298
f 299/299/299 300/300/300 298/298/298
f 299/299/299 301/301/301 300/300/300
f 301/301/301 302/302/302 300/300/300
f 301/301/301 303/303/303 302/302/302
f 303/303/303 304/304/304 302/302/302
f 303/303/303 305/305/305 304/304/304
f 305/305/305 306/306/306 304/304/304
f 305/305/305 307/307/307 306/306/306
f 307/307/307 308/308/308 306/306/306
f 307/307/307 309/309/309 308/308/308
f 309/309/309 310/310/310 308/308/308
f 309/309/309 311/311/311 310/310/310
f 311/311/311 312/312/312 310/310/310
f 311/311/311 313/313/313 312/312/312
f 313/313/313 314/314/314 312/312/312
f 313/313/313 315/315/315 314/314/314
f 315/315/315 316/316/316 314/314/314
f 315/315/315 317/317/317 316/316/316
f 317/317/317 318/318/318 316/316/316
f 317/317/317 319/319/319 318/318/318
f 319/319/319 320/320/320 318/318/318
f 319/319/319 321/321/321 320/320/320
f 321/321/321 322/322/322 320/320/320
f 321/321/321 323/323/323 322/322/322
f 326/326/326 325/325/325 324/324/324
f 327/327/327 326/326/326 324/324/324
f 326/326/326 327/327/327 328/328/328
f 327/327/327 324/324/324 329/329/329
f 327/327/327 330/330/330 328/328/328
f 331/331/331 327/327/327 329/329/329
f 327/327/327 331/331/331 330/330/330
f 331/331/331 329/329/329 332/332/332
f 331/331/331 333/333/333 330/330/330
f 334/334/334 331/331/331 332/332/332
f 333/333/333 331/331/331 334/334/334
f 334/334/334 332/332/332 335/335/335
f 336/336/336 333/333/333 334/334/334
f 337/337/337 334/334/334 335/335/335
f 334/334/334 337/337/337 336/336/336
f 335/335/335 338/338/338 337/337/337
f 337/337/337 339/339/339 336/336/336
f 338/338/338 340/340/340 337/337/337
f 337/337/337 340/340/340 339/339/339
f 338/338/338 341/341/341 340/340/340
f 340/340/340 342/342/342 339/339/339
f 341/341/341 343/343/343 340/340/340
f 340/340/340 343/343/343 342/342/342
f 341/341/341 344/344/344 343/343/343
f 343/343/343 345/345/345 342/342/342
f 344/344/344 346/346/346 343/343/343
f 343/343/343 346/346/346 345/345/345
f 344/344/344 347/347/347 346/346/346
f 346/346/346 348/348/348 345/345/345
f 347/347/347 349/349/349 346/346/346
f 346/346/346 349/349/349 348/348/348
f 347/347/347 350/350/350 349/349/349
f 349/349/349 351/351/351 348/348/348
f 350/350/350 352/352/352 349/349/349
f 349/349/349 352/352/352 351/351/351
f 350/350/350 353/353/353 352/352/352
f 352/352/352 354/354/354 351/351/351
f 353/353/353 355/355/355 352/352/352
f 354/354/354 352/352/352 355/355/355
f 355/355/355 353/353/353 356/356/356
f 357/357/357 354/354/354 355/355/355
f 358/358/358 355/355/355 356/356/356
f 355/355/355 358/358/358 357/357/357
f 356/356/356 359/359/359 358/358/358
f 359/359/359 360/360/360 358/358/358
f 359/359/359 361/361/361 360/360/360
f 358/358/358 362/362/362 357/357/357
f 358/358/358 360/360/360 362/362/362
f 361/361/361 363/363/363 360/360/360
f 361/361/361 364/364/364 363/363/363
f 360/360/360 365/365/365 362/362/362
f 360/360/360 363/363/363 365/365/365
f 363/363/363 366/366/366 365/365/365
f 364/364/364 367/367/367 363/363/363
f 363/363/363 367/367/367 366/366/366
f 364/364/364 368/368/368 367/367/367
f 367/367/367 369/369/369 366/366/366
f 368/368/368 370/370/370 367/367/367
f 367/367/367 370/370/370 369/369/369
f 368/368/368 371/371/371 370/370/370
f 370/370/370 372/372/372 369/369/369
f 371/371/371 373/373/373 370/370/370
f 370/370/370 373/373/373 372/372/372
f 371/371/371 374/374/374 373/373/373
f 373/373/373 375/375/375 372/372/372
f 374/374/374 376/376/376 373/373/373
f 373/373/373 376/376/376 375/375/375
f 376/376/376 374/374/374 377/377/377
f 376/376/376 378/378/378 375/375/375
f 379/379/379 376/376/376 377/377/377
f 376/376/376 379/379/379 378/378/378
f 377/377/377 380/380/380 379/379/379
f 379/379/379 381/381/381 378/378/378
f 380/380/380 382/382/382 379/379/379
f 379/379/379 382/382/382 381/381/381
f 380/380/380 383/383/383 382/382/382
f 382/382/382 384/384/384 381/381/381
f 383/383/383 385/385/385 382/382/382
f 382/382/382 385/385/385 384/384/384
f 383/383/383 386/386/386 385/385/385
f 385/385/385 387/387/387 384/384/384
f 386/386/386 388/388/388 385/385/385
f 385/385/385 388/388/388 387/387/387
f 386/386/386 389/389/389 388/388/388
f 388/388/388 390/390/390 387/387/387
f 389/389/389 391/391/391 388/388/388
f 388/388/388 391/391/391 390/390/390
f 389/389/389 392/392/392 391/391/391
f 391/391/391 393/393/393 390/390/390
f 392/392/392 394/394/394 391/391/391
f 391/391/391 394/394/394 393/393/393
f 392/392/392 395/395/395 394/394/394
f 394/394/394 396/396/396 393/393/393
f 395/395/395 397/397/397 394/394/394
f 394/394/394 397/397/397 396/396/396
f 397/397/397 395/395/395 398/398/398
f 397/397/397 399/399/399 396/396/396
f 400/400/400 397/397/397 398/398/398
f 397/397/397 400/400/400 399/399/399
f 400/400/400 398/398/398 401/401/401
f 400/400/400 402/402/402 399/399/399
f 403/403/403 400/400/400 401/401/401
f 400/400/400 403/403/403 402/402/402
f 403/403/403 401/401/401 404/404/404
f 403/403/403 405/405/405 402/402/402
f 406/406/406 403/403/403 404/404/404
f 403/403/403 406/406/406 405/405/405
f 406/406/406 404/404/404 407/407/407
f 406/406/406 408/408/408 405/405/405
f 409/409/409 406/406/406 407/407/407
f 406/406/406 409/409/409 408/408/408
f 409/409/409 410/410/410 408/408/408
f 413/413/413 412/412/412 411/411/411
f 414/414/414 413/413/413 411/411/411
f 413/413/413 414/414/414 415/415/415
f 414/414/414 411/411/411 416/416/416
f 414/414/414 417/417/417 415/415/415
f 418/418/418 414/414/414 416/416/416
f 414/414/414 418/418/418 417/417/417
f 418/418/418 416/416/416 419/419/419
f 418/418/418 420/420/420 417/417/417
f 421/421/421 418/418/418 419/419/419
f 420/420/420 418/418/418 421/421/421
f 421/421/421 419/419/419 422/422/422
f 423/423/423 420/420/420 421/421/421
f 424/424/424 421/421/421 422/422/422
f 421/421/421 424/424/424 423/423/423
f 422/422/422 425/425/425 424/424/424
f 424/424/424 426/426/426 423/423/423
f 425/425/425 427/427/427 424/424/424
f 424/424/424 427/427/427 426/426/426
f 425/425/425 428/428/428 427/427/427
f 427/427/427 429/429/429 426/426/426
f 428/428/428 430/430/430 427/427/427
f 427/427/427 430/430/430 429/429/429
f 428/428/428 431/431/431 430/430/430
f 430/430/430 432/432/432 429/429/429
f 431/431/431 433/433/433 430/430/430
f 430/430/430 433/433/433 432/432/432
f 431/431/431 434/434/434 433/433/433
f 433/433/433 435/435/435 432/432/432
f 434/434/434 436/436/436 433/433/433
f 433/433/433 436/436/436 435/435/435
f 434/434/434 437/437/437 436/436/436
f 436/436/436 438/438/438 435/435/435
f 437/437/437 439/439/439 436/436/436
f 436/436/436 439/439/439 438/438/438
f 437/437/437 440/440/440 439/439/439
f 439/439/439 441/441/441 438/438/438
f 440/440/440 442/442/442 439/439/439
f 441/441/441 439/439/439 442/442/442
f 442/442/442 440/440/440 443/443/443
f 444/444/444 441/441/441 442/442/442
f 445/445/445 442/442/442 443/443/443
f 442/442/442 445/445/445 444/444/444
f 443/443/443 446/446/446 445/445/445
f 446/446/446 447/447/447 445/445/445
f 446/446/446 448/448/448 447/447/447
f 445/445/445 449/449/449 444/444/444
f 445/445/445 447/447/447 449/449/449
f 448/448/448 450/450/450 447/447/447
f 448/448/448 451/451/451 450/450/450
f 447/447/447 452/452/452 449/449/449
f 447/447/447 450/450/450 452/452/452
f 450/450/450 453/453/453 452/452/452
f 451/451/451 454/454/454 450/450/450
f 450/450/450 454/454/454 453/453/453
f 451/451/451 455/455/455 454/454/454
f 454/454/454 456/456/456 453/453/453
f 455/455/455 457/457/457 454/454/454
f 454/454/454 457/457/457 456/456/456
f 455/455/455 458/458/458 457/457/457
f 457/457/457 459/459/459 456/456/456
f 458/458/458 460/460/460 457/457/457
f 457/457/457 460/460/460 459/459/459
f 458/458/458 461/461/461 460/460/460
f 460/460/460 462/462/462 459/459/459
f 461/461/461 463/463/463 460/460/460
f 460/460/460 463/463/463 462/462/462
f 463/463/463 461/461/461 464/464/464
f 463/463/463 465/465/465 462/462/462
f 466/466/466 463/463/463 464/464/464
f 463/463/463 466/466/466 465/465/465
f 464/464/464 467/467/467 466/466/466
f 466/466/466 468/468/468 465/465/465
f 467/467/467 469/469/469 466/466/466
f 466/466/466 469/469/469 468/468/468
f 467/467/467 470/470/470 469/469/469
f 469/469/469 471/471/471 468/468/468
f 470/470/470 472/472/472 469/469/469
f 469/469/469 472/472/472 471/471/471
f 470/470/470 473/473/473 472/472/472
f 472/472/472 474/474/474 471/471/471
f 473/473/473 475/475/475 472/472/472
f 472/472/472 475/475/475 474/474/474
f 473/473/473 476/476/476 475/475/475
f 475/475/475 477/477/477 474/474/474
f 476/476/476 478/478/478 475/475/475
f 475/475/475 478/478/478 477/477/477
f 476/476/476 479/479/479 478/478/478
f 478/478/478 480/480/480 477/477/477
f 479/479/479 481/481/481 478/478/478
f 478/478/478 481/481/481 480/480/480
f 479/479/479 482/482/482 481/481/481
f 481/481/481 483/483/483 480/480/480
f 482/482/482 484/484/484 481/481/481
f 481/481/481 484/484/484 483/483/483
f 484/484/484 482/482/482 485/485/485
f 484/484/484 486/486/486 483/483/483
f 487/487/487 484/484/484 485/485/485
f 484/484/484 487/487/487 486/486/486
f 487/487/487 485/485/485 488/488/488
f 487/487/487 489/489/489 486/486/486
f 490/490/490 487/487/487 488/488/488
f 487/487/487 490/490/490 489/489/489
f 490/490/490 488/488/488 491/491/491
f 490/490/490 492/492/492 489/489/489
f 493/493/493 490/490/490 491/491/491
f 490/490/490 493/493/493 492/492/492
f 493/493/493 491/491/491 494/494/494
f 493/493/493 495/495/495 492/492/492
f 496/496/496 493/493/493 494/494/494
f 493/493/493 496/496/496 495/495/495
f 496/496/496 497/497/497 495/495/495
f 500/500/500 499/499/499 498/498/498
f 501/501/501 500/500/500 498/498/498
f 501/501/501 498/498/498 502/502/502
f 503/503/503 501/501/501 502/502/502
f 503/503/503 502/502/502 504/504/504
f 505/505/505 503/503/503 504/504/504
f 504/504/504 506/506/506 505/505/505
f 506/506/506 507/507/507 505/505/505
f 506/506/506 508/508/508 507/507/507
f 508/508/508 509/509/509 507/507/507
f 508/508/508 510/510/510 509/509/509
f 510/510/510 511/511/511 509/509/509
f 510/510/510 512/512/512 511/511/511
f 512/512/512 513/513/513 511/511/511
f 512/512/512 514/514/514 513/513/513
f 514/514/514 515/515/515 513/513/513
f 514/514/514 516/516/516 515/515/515
f 516/516/516 517/517/517 515/515/515
f 517/517/517 516/516/516 518/518/518
f 519/519/519 517/517/517 518/518/518
f 518/518/518 520/520/520 519/519/519
f 520/520/520 521/521/521 519/519/519
f 520/520/520 522/522/522 521/521/521
f 522/522/522 523/523/523 521/521/521
f 522/522/522 524/524/524 523/523/523
f 524/524/524 525/525/525 523/523/523
f 524/524/524 526/526/526 525/525/525
f 526/526/526 527/527/527 525/525/525
f 526/526/526 528/528/528 527/527/527
f 528/528/528 529/529/529 527/527/527
f 528/528/528 530/530/530 529/529/529
f 530/530/530 531/531/531 529/529/529
f 531/531/531 530/530/530 532/532/532
f 533/533/533 531/531/531 532/532/532
f 533/533/533 532/532/532 534/534/534
f 535/535/535 533/533/533 534/534/534
f 534/534/534 536/536/536 535/535/535
f 536/536/536 537/537/537 535/535/535
f 536/536/536 538/538/538 537/537/537
f 538/538/538 539/539/539 537/537/537
f 538/538/538 540/540/540 539/539/539
f 540/540/540 541/541/541 539/539/539
f 540/540/540 542/542/542 541/541/541
f 542/542/542 543/543/543 541/541/541
f 542/542/542 544/544/544 543/543/543
f 544/544/544 545/545/545 543/543/543
f 545/545/545 544/544/544 546/546/546
f 547/547/547 545/545/545 546/546/546
f 547/547/547 546/546/546 548/548/548
f 549/549/549 547/547/547 548/548/548
f 548/548/548 550/550/550 549/549/549
f 550/550/550 551/551/551 549/549/549
f 551/551/551 550/550/550 552/552/552
f 553/553/553 551/551/551 552/552/552
f 553/553/553 552/552/552 554/554/554
f 555/555/555 553/553/553 554/554/554
f 558/558/558 557/557/557 556/556/556
f 559/559/559 558/558/558 556/556/556
f 559/559/559 556/556/556 560/560/560
f 561/561/561 559/559/559 560/560/560
f 561/561/561 560/560/560 562/562/562
f 563/563/563 561/561/561 562/562/562
f 562/562/562 564/564/564 563/563/563
f 564/564/564 565/565/565 563/563/563
f 564/564/564 566/566/566 565/565/565
f 566/566/566 567/567/567 565/565/565
f 566/566/566 568/568/568 567/567/567
f 568/568/568 569/569/569 567/567/567
f 568/568/568 570/570/570 569/569/569
f 570/570/570 571/571/571 569/569/569
f 570/570/570 572/572/572 571/571/571
f 572/572/572 573/573/573 571/571/571
f 572/572/572 574/574/574 573/573/573
f 574/574/574 575/575/575 573/573/573
f 575/575/575 574/574/574 576/576/576
f 577/577/577 575/575/575 576/576/576
f 576/576/576 578/578/578 577/577/577
f 578/578/578 579/579/579 577/577/577
f 578/578/578 580/580/580 579/579/579
f 580/580/580 581/581/581 579/579/579
f 580/580/580 582/582/582 581/581/581
f 582/582/582 583/583/583 581/581/581
f 582/582/582 584/584/584 583/583/583
f 584/584/584 585/585/585 583/583/583
f 584/584/584 586/586/586 585/585/585
f 586/586/586 587/587/587 585/585/585
f 586/586/586 588/588/588 587/587/587
f 588/588/588 589/589/589 587/587/587
f 589/589/589 588/588/588 590/590/590
f 591/591/591 589/589/589 590/590/590
f 591/591/591 590/590/590 592/592/592
f 593/593/593 591/591/591 592/592/592
f 592/592/592 594/594/594 593/593/593
f 594/594/594 595/595/595 593/593/593
f 594/594/594 596/596/596 595/595/595
f 596/596/596 597/597/597 595/595/595
f 596/596/596 598/598/598 597/597/597
f 598/598/598 599/599/599 597/597/597
f 598/598/598 600/600/600 599/599/599
f 600/600/600 601/601/601 599/599/599
f 600/600/600 602/602/602 601/601/601
f 602/602/602 603/603/603 601/601/601
f 603/603/603 602/602/602 604/604/604
f 605/605/605 603/603/603 604/604/604
f 605/605/605 604/604/604 606/606/606
f 607/607/607 605/605/605 606/606/606
f 606/606/606 608/608/608 607/607/607
f 608/608/608 609/609/609 607/607/607
f 609/609/609 608/608/608 610/610/610
f 611/611/611 609/609/609 610/610/610
f 611/611/611 610/610/610 612/612/612
f 613/613/613 611/611/611 612/612/612
f 614/614/614 578/578/578 576/576/576
f 615/615/615 614/614/614 576/576/576
f 576/576/576 616/616/616 615/615/615
f 614/614/614 617/617/617 578/578/578
f 617/617/617 618/618/618 578/578/578
f 616/616/616 619/619/619 615/615/615
f 619/619/619 616/616/616 620/620/620
f 617/617/617 621/621/621 618/618/618
f 621/621/621 622/622/622 618/618/618
f 623/623/623 619/619/619 620/620/620
f 623/623/623 620/620/620 624/624/624
f 621/621/621 625/625/625 622/622/622
f 625/625/625 626/626/626 622/622/622
f 627/627/627 623/623/623 624/624/624
f 627/627/627 624/624/624 628/628/628
f 625/625/625 629/629/629 626/626/626
f 629/629/629 630/630/630 626/626/626
f 631/631/631 627/627/627 628/628/628
f 631/631/631 628/628/628 632/632/632
f 629/629/629 633/633/633 630/630/630
f 633/633/633 634/634/634 630/630/630
f 635/635/635 631/631/631 632/632/632
f 635/635/635 632/632/632 636/636/636
f 634/634/634 633/633/633 637/637/637
f 638/638/638 634/634/634 637/637/637
f 638/638/638 637/637/637 639/639/639
f 640/640/640 638/638/638 639/639/639
f 641/641/641 639/639/639 637/637/637
f 639/639/639 641/641/641 640/640/640
f 637/637/637 633/633/633 641/641/641
f 641/641/641 642/642/642 640/640/640
f 633/633/633 643/643/643 641/641/641
f 641/641/641 643/643/643 642/642/642
f 633/633/633 629/629/629 643/643/643
f 643/643/643 644/644/644 642/642/642
f 629/629/629 645/645/645 643/643/643
f 643/643/643 645/645/645 644/644/644
f 629/629/629 625/625/625 645/645/645
f 645/645/645 646/646/646 644/644/644
f 625/625/625 647/647/647 645/645/645
f 645/645/645 647/647/647 646/646/646
f 625/625/625 621/621/621 647/647/647
f 647/647/647 648/648/648 646/646/646
f 621/621/621 649/649/649 647/647/647
f 647/647/647 649/649/649 648/648/648
f 621/621/621 617/617/617 649/649/649
f 649/649/649 650/650/650 648/648/648
f 617/617/617 651/651/651 649/649/649
f 650/650/650 649/649/649 651/651/651
f 617/617/617 614/614/614 651/651/651
f 652/652/652 650/650/650 651/651/651
f 614/614/614 653/653/653 651/651/651
f 652/652/652 651/651/651 653/653/653
f 614/614/614 615/615/615 653/653/653
f 654/654/654 652/652/652 653/653/653
f 615/615/615 655/655/655 653/653/653
f 653/653/653 655/655/655 654/654/654
f 615/615/615 619/619/619 655/655/655
f 655/655/655 656/656/656 654/654/654
f 619/619/619 657/657/657 655/655/655
f 656/656/656 655/655/655 657/657/657
f 619/619/619 623/623/623 657/657/657
f 658/658/658 656/656/656 657/657/657
f 623/623/623 659/659/659 657/657/657
f 658/658/658 657/657/657 659/659/659
f 623/623/623 627/627/627 659/659/659
f 660/660/660 658/658/658 659/659/659
f 627/627/627 661/661/661 659/659/659
f 660/660/660 659/659/659 661/661/661
f 627/627/627 631/631/631 661/661/661
f 662/662/662 660/660/660 661/661/661
f 631/631/631 663/663/663 661/661/661
f 662/662/662 661/661/661 663/663/663
f 664/664/664 662/662/662 663/663/663
f 631/631/631 635/635/635 663/663/663
f 664/664/664 663/663/663 665/665/665
f 635/635/635 665/665/665 663/663/663
f 666/666/666 664/664/664 665/665/665
f 635/635/635 667/667/667 665/665/665
f 665/665/665 667/667/667 666/666/666
f 667/667/667 635/635/635 636/636/636
f 667/667/667 636/636/636 666/666/666
f 668/668/668 520/520/520 518/518/518
f 669/669/669 668/668/668 518/518/518
f 518/518/518 670/670/670 669/669/669
f 668/668/668 671/671/671 520/520/520
f 671/671/671 672/672/672 520/520/520
f 670/670/670 673/673/673 669/669/669
f 673/673/673 670/670/670 674/674/674
f 671/671/671 675/675/675 672/672/672
f 675/675/675 676/676/676 672/672/672
f 677/677/677 673/673/673 674/674/674
f 677/677/677 674/674/674 678/678/678
f 675/675/675 679/679/679 676/676/676
f 679/679/679 680/680/680 676/676/676
f 681/681/681 677/677/677 678/678/678
f 681/681/681 678/678/678 682/682/682
f 679/679/679 683/683/683 680/680/680
f 683/683/683 684/684/684 680/680/680
f 685/685/685 681/681/681 682/682/682
f 685/685/685 682/682/682 686/686/686
f 683/683/683 687/687/687 684/684/684
f 687/687/687 688/688/688 684/684/684
f 689/689/689 685/685/685 686/686/686
f 689/689/689 686/686/686 690/690/690
f 688/688/688 687/687/687 691/691/691
f 692/692/692 688/688/688 691/691/691
f 692/692/692 691/691/691 693/693/693
f 694/694/694 692/692/692 693/693/693
f 695/695/695 693/693/693 691/691/691
f 693/693/693 695/695/695 694/694/694
f 691/691/691 687/687/687 695/695/695
f 695/695/695 696/696/696 694/694/694
f 687/687/687 697/697/697 695/695/695
f 695/695/695 697/697/697 696/696/696
f 687/687/687 683/683/683 697/697/697
f 697/697/697 698/698/698 696/696/696
f 683/683/683 699/699/699 697/697/697
f 697/697/697 699/699/699 698/698/698
f 683/683/683 679/679/679 699/699/699
f 699/699/699 700/700/700 698/698/698
f 679/679/679 701/701/701 699/699/699
f 699/699/699 701/701/701 700/700/700
f 679/679/679 675/675/675 701/701/701
f 701/701/701 702/702/702 700/700/700
f 675/675/675 703/703/703 701/701/701
f 701/701/701 703/703/703 702/702/702
f 675/675/675 671/671/671 703/703/703
f 703/703/703 704/704/704 702/702/702
f 671/671/671 705/705/705 703/703/703
f 704/704/704 703/703/703 705/705/705
f 671/671/671 668/668/668 705/705/705
f 706/706/706 704/704/704 705/705/705
f 668/668/668 707/707/707 705/705/705
f 706/706/706 705/705/705 707/707/707
f 668/668/668 669/669/669 707/707/707
f 708/708/708 706/706/706 707/707/707
f 669/669/669 709/709/709 707/707/707
f 707/707/707 709/709/709 708/708/708
f 669/669/669 673/673/673 709/709/709
f 709/709/709 710/710/710 708/708/708
f 673/673/673 711/711/711 709/709/709
f 710/710/710 709/709/709 711/711/711
f 673/673/673 677/677/677 711/711/711
f 712/712/712 710/710/710 711/711/711
f 677/677/677 713/713/713 711/711/711
f 712/712/712 711/711/711 713/713/713
f 677/677/677 681/681/681 713/713/713
f 714/714/714 712/712/712 713/713/713
f 681/681/681 715/715/715 713/713/713
f 714/714/714 713/713/713 715/715/715
f 681/681/681 685/685/685 715/715/715
f 716/716/716 714/714/714 715/715/715
f 685/685/685 717/717/717 715/715/715
f 716/716/716 715/715/715 717/717/717
f 718/718/718 716/716/716 717/717/717
f 685/685/685 689/689/689 717/717/717
f 718/718/718 717/717/717 719/719/719
f 689/689/689 719/719/719 717/717/717
f 720/720/720 718/718/718 719/719/719
f 689/689/689 721/721/721 719/719/719
f 719/719/719 721/721/721 720/720/720
f 721/721/721 689/689/689 690/690/690
f 721/721/721 690/690/690 720/720/720
f 449/449/449 723/723/723 722/722/722
f 444/444/444 449/449/449 722/722/722
f 449/449/449 724/724/724 723/723/723
f 722/722/722 725/725/725 444/444/444
f 725/725/725 726/726/726 444/444/444
f 724/724/724 727/727/727 723/723/723
f 724/724/724 728/728/728 727/727/727
f 726/726/726 725/725/725 729/729/729
f 730/730/730 726/726/726 729/729/729
f 728/728/728 731/731/731 727/727/727
f 728/728/728 732/732/732 731/731/731
f 730/730/730 729/729/729 733/733/733
f 734/734/734 730/730/730 733/733/733
f 732/732/732 735/735/735 731/731/731
f 732/732/732 736/736/736 735/735/735
f 734/734/734 733/733/733 737/737/737
f 738/738/738 734/734/734 737/737/737
f 736/736/736 739/739/739 735/735/735
f 736/736/736 740/740/740 739/739/739
f 738/738/738 737/737/737 741/741/741
f 742/742/742 738/738/738 741/741/741
f 740/740/740 743/743/743 739/739/739
f 740/740/740 744/744/744 743/743/743
f 742/742/742 741/741/741 745/745/745
f 746/746/746 742/742/742 745/745/745
f 746/746/746 745/745/745 747/747/747
f 748/748/748 746/746/746 747/747/747
f 749/749/749 747/747/747 745/745/745
f 747/747/747 749/749/749 748/748/748
f 749/749/749 745/745/745 741/741/741
f 749/749/749 750/750/750 748/748/748
f 751/751/751 749/749/749 741/741/741
f 750/750/750 749/749/749 751/751/751
f 751/751/751 741/741/741 737/737/737
f 752/752/752 750/750/750 751/751/751
f 753/753/753 751/751/751 737/737/737
f 752/752/752 751/751/751 753/753/753
f 753/753/753 737/737/737 733/733/733
f 754/754/754 752/752/752 753/753/753
f 755/755/755 753/753/753 733/733/733
f 754/754/754 753/753/753 755/755/755
f 755/755/755 733/733/733 729/729/729
f 756/756/756 754/754/754 755/755/755
f 757/757/757 755/755/755 729/729/729
f 756/756/756 755/755/755 757/757/757
f 757/757/757 729/729/729 725/725/725
f 758/758/758 756/756/756 757/757/757
f 759/759/759 757/757/757 725/725/725
f 758/758/758 757/757/757 759/759/759
f 759/759/759 725/725/725 722/722/722
f 760/760/760 758/758/758 759/759/759
f 761/761/761 759/759/759 722/722/722
f 760/760/760 759/759/759 761/761/761
f 761/761/761 722/722/722 723/723/723
f 762/762/762 760/760/760 761/761/761
f 763/763/763 761/761/761 723/723/723
f 762/762/762 761/761/761 763/763/763
f 763/763/763 723/723/723 727/727/727
f 764/764/764 762/762/762 763/763/763
f 765/765/765 763/763/763 727/727/727
f 764/764/764 763/763/763 765/765/765
f 765/765/765 727/727/727 731/731/731
f 766/766/766 764/764/764 765/765/765
f 767/767/767 765/765/765 731/731/731
f 766/766/766 765/765/765 767/767/767
f 767/767/767 731/731/731 735/735/735
f 768/768/768 766/766/766 767/767/767
f 769/769/769 767/767/767 735/735/735
f 768/768/768 767/767/767 769/769/769
f 769/769/769 735/735/735 739/739/739
f 770/770/770 768/768/768 769/769/769
f 771/771/771 769/769/769 739/739/739
f 770/770/770 769/769/769 771/771/771
f 772/772/772 770/770/770 771/771/771
f 771/771/771 739/739/739 743/743/743
f 772/772/772 771/771/771 773/773/773
f 773/773/773 771/771/771 743/743/743
f 774/774/774 772/772/772 773/773/773
f 743/743/743 775/775/775 773/773/773
f 774/774/774 773/773/773 775/775/775
f 744/744/744 775/775/775 743/743/743
f 744/744/744 774/774/774 775/775/775
f 362/362/362 777/777/777 776/776/776
f 357/357/357 362/362/362 776/776/776
f 362/362/362 778/778/778 777/777/777
f 776/776/776 779/779/779 357/357/357
f 779/779/779 780/780/780 357/357/357
f 778/778/778 781/781/781 777/777/777
f 778/778/778 782/782/782 781/781/781
f 780/780/780 779/779/779 783/783/783
f 784/784/784 780/780/780 783/783/783
f 782/782/782 785/785/785 781/781/781
f 782/782/782 786/786/786 785/785/785
f 784/784/784 783/783/783 787/787/787
f 788/788/788 784/784/784 787/787/787
f 786/786/786 789/789/789 785/785/785
f 786/786/786 790/790/790 789/789/789
f 788/788/788 787/787/787 791/791/791
f 792/792/792 788/788/788 791/791/791
f 790/790/790 793/793/793 789/789/789
f 790/790/790 794/794/794 793/793/793
f 792/792/792 791/791/791 795/795/795
f 796/796/796 792/792/792 795/795/795
f 794/794/794 797/797/797 793/793/793
f 794/794/794 798/798/798 797/797/797
f 796/796/796 795/795/795 799/799/799
f 800/800/800 796/796/796 799/799/799
f 800/800/800 799/799/799 801/801/801
f 802/802/802 800/800/800 801/801/801
f 803/803/803 801/801/801 799/799/799
f 801/801/801 803/803/803 802/802/802
f 803/803/803 799/799/799 795/795/795
f 803/803/803 804/804/804 802/802/802
f 805/805/805 803/803/803 795/795/795
f 804/804/804 803/803/803 805/805/805
f 805/805/805 795/795/795 791/791/791
f 806/806/806 804/804/804 805/805/805
f 807/807/807 805/805/805 791/791/791
f 806/806/806 805/805/805 807/807/807
f 807/807/807 791/791/791 787/787/787
f 808/808/808 806/806/806 807/807/807
f 809/809/809 807/807/807 787/787/787
f 808/808/808 807/807/807 809/809/809
f 809/809/809 787/787/787 783/783/783
f 810/810/810 808/808/808 809/809/809
f 811/811/811 809/809/809 783/783/783
f 810/810/810 809/809/809 811/811/811
f 811/811/811 783/783/783 779/779/779
f 812/812/812 810/810/810 811/811/811
f 813/813/813 811/811/811 779/779/779
f 812/812/812 811/811/811 813/813/813
f 813/813/813 779/779/779 776/776/776
f 814/814/814 812/812/812 813/813/813
f 815/815/815 813/813/813 776/776/776
f 814/814/814 813/813/813 815/815/815
f 815/815/815 776/776/776 777/777/777
f 816/816/816 814/814/814 815/815/815
f 817/817/817 815/815/815 777/777/777
f 816/816/816 815/815/815 817/817/817
f 817/817/817 777/777/777 781/781/781
f 818/818/818 816/816/816 817/817/817
f 819/819/819 817/817/817 781/781/781
f 818/818/818 817/817/817 819/819/819
f 819/819/819 781/781/781 785/785/785
f 820/820/820 818/818/818 819/819/819
f 821/821/821 819/819/819 785/785/785
f 820/820/820 819/819/819 821/821/821
f 821/821/821 785/785/785 789/789/789
f 822/822/822 820/820/820 821/821/821
f 823/823/823 821/821/821 789/789/789
f 822/822/822 821/821/821 823/823/823
f 823/823/823 789/789/789 793/793/793
f 824/824/824 822/822/822 823/823/823
f 825/825/825 823/823/823 793/793/793
f 824/824/824 823/823/823 825/825/825
f 826/826/826 824/824/824 825/825/825
f 825/825/825 793/793/793 797/797/797
f 826/826/826 825/825/825 827/827/827
f 827/827/827 825/825/825 797/797/797
f 828/828/828 826/826/826 827/827/827
f 797/797/797 829/829/829 827/827/827
f 828/828/828 827/827/827 829/829/829
f 798/798/798 829/829/829 797/797/797
f 798/798/798 828/828/828 829/829/829
