g item_11item_11_mobile
v 2.00691076 0.238452967 5.13026716
v 2.00691076 0.238452967 4.40456928
v 2.03907647 0.27061868 4.40456928
v 2.03907647 0.27061868 5.13026716
v 2.00691076 0.238452967 4.40456928
v 2.03907647 0.0362684829 4.37207535
v 2.03907647 0.238452967 4.37207535
v 2.00691076 0.0362684829 4.40456928
v 2.00691076 0.0362684829 5.13026716
v 2.00691076 0.238452967 5.13026716
v 2.03907647 0.238452967 5.16243288
v 2.03907647 0.0362684829 5.16243288
v 3.21772011 0.0362684829 5.16243288
v 3.21772011 0.238452967 5.16243288
v 3.24988582 0.238452967 5.13026716
v 3.24988582 0.0362684829 5.13026716
v 3.24988582 0.0362684829 4.40456928
v 3.24988582 0.238452967 4.40456928
v 3.21772011 0.238452967 4.37207535
v 3.21772011 0.0362684829 4.37207535
v 2.03907647 0.238452967 4.37207535
v 2.03907647 0.0362684829 4.37207535
v 2.00691076 0.238452967 5.13026716
v 2.03907647 0.27061868 5.13026716
v 2.03907647 0.238452967 5.16243288
v 3.21772011 0.238452967 5.16243288
v 3.21772011 0.27061868 5.13026716
v 3.24988582 0.238452967 5.13026716
v 3.24988582 0.238452967 4.40456928
v 3.21772011 0.27061868 4.40456928
v 3.21772011 0.238452967 4.37207535
v 2.03907647 0.27061868 4.40456928
v 2.03907647 0.238452967 4.37207535
v 2.00691076 0.238452967 4.40456928
v 2.00691076 0.238452967 6.38702753
v 2.00691076 0.238452967 5.66132966
v 2.03907647 0.27061868 5.66132966
v 2.03907647 0.27061868 6.38702753
v 2.00691076 0.238452967 5.66132966
v 2.03907647 0.0362684829 5.62916394
v 2.03907647 0.238452967 5.62916394
v 2.00691076 0.0362684829 5.66132966
v 2.00691076 0.0362684829 6.38702753
v 2.00691076 0.238452967 6.38702753
v 2.03907647 0.238452967 6.41919325
v 2.03907647 0.0362684829 6.41919325
v 3.21772011 0.0362684829 6.41919325
v 3.21772011 0.238452967 6.41919325
v 3.24988582 0.238452967 6.38702753
v 3.24988582 0.0362684829 6.38702753
v 3.24988582 0.0362684829 5.66132966
v 3.24988582 0.238452967 5.66132966
v 3.21772011 0.238452967 5.62916394
v 3.21772011 0.0362684829 5.62916394
v 2.03907647 0.238452967 5.62916394
v 2.03907647 0.0362684829 5.62916394
v 2.00691076 0.238452967 6.38702753
v 2.03907647 0.27061868 6.38702753
v 2.03907647 0.238452967 6.41919325
v 3.21772011 0.238452967 6.41919325
v 3.21772011 0.27061868 6.38702753
v 3.24988582 0.238452967 6.38702753
v 3.24988582 0.238452967 5.66132966
v 3.21772011 0.27061868 5.66132966
v 3.21772011 0.238452967 5.62916394
v 2.03907647 0.27061868 5.66132966
v 2.03907647 0.238452967 5.62916394
v 2.00691076 0.238452967 5.66132966
v -2.00691076 0.238452967 5.13026716
v -2.03907647 0.27061868 5.13026716
v -2.03907647 0.27061868 4.40456928
v -2.00691076 0.238452967 4.40456928
v -2.00691076 0.238452967 4.40456928
v -2.03907647 0.238452967 4.37207535
v -2.03907647 0.0362684829 4.37207535
v -2.00691076 0.0362684829 4.40456928
v -2.00691076 0.0362684829 5.13026716
v -2.00691076 0.238452967 5.13026716
v -2.03907647 0.238452967 5.16243288
v -2.03907647 0.0362684829 5.16243288
v -3.21772011 0.0362684829 5.16243288
v -3.21772011 0.238452967 5.16243288
v -3.24988582 0.238452967 5.13026716
v -3.24988582 0.0362684829 5.13026716
v -3.24988582 0.0362684829 4.40456928
v -3.24988582 0.238452967 4.40456928
v -3.21772011 0.238452967 4.37207535
v -3.21772011 0.0362684829 4.37207535
v -2.03907647 0.238452967 4.37207535
v -2.03907647 0.0362684829 4.37207535
v -2.00691076 0.238452967 5.13026716
v -2.03907647 0.238452967 5.16243288
v -2.03907647 0.27061868 5.13026716
v -3.21772011 0.238452967 5.16243288
v -3.21772011 0.27061868 5.13026716
v -3.24988582 0.238452967 5.13026716
v -3.24988582 0.238452967 4.40456928
v -3.21772011 0.27061868 4.40456928
v -3.21772011 0.238452967 4.37207535
v -2.03907647 0.27061868 4.40456928
v -2.03907647 0.238452967 4.37207535
v -2.00691076 0.238452967 4.40456928
v -2.00691076 0.238452967 6.38702753
v -2.03907647 0.27061868 6.38702753
v -2.03907647 0.27061868 5.66132966
v -2.00691076 0.238452967 5.66132966
v -2.00691076 0.238452967 5.66132966
v -2.03907647 0.238452967 5.62916394
v -2.03907647 0.0362684829 5.62916394
v -2.00691076 0.0362684829 5.66132966
v -2.00691076 0.0362684829 6.38702753
v -2.00691076 0.238452967 6.38702753
v -2.03907647 0.238452967 6.41919325
v -2.03907647 0.0362684829 6.41919325
v -3.21772011 0.0362684829 6.41919325
v -3.21772011 0.238452967 6.41919325
v -3.24988582 0.238452967 6.38702753
v -3.24988582 0.0362684829 6.38702753
v -3.24988582 0.0362684829 5.66132966
v -3.24988582 0.238452967 5.66132966
v -3.21772011 0.238452967 5.62916394
v -3.21772011 0.0362684829 5.62916394
v -2.03907647 0.238452967 5.62916394
v -2.03907647 0.0362684829 5.62916394
v -2.00691076 0.238452967 6.38702753
v -2.03907647 0.238452967 6.41919325
v -2.03907647 0.27061868 6.38702753
v -3.21772011 0.238452967 6.41919325
v -3.21772011 0.27061868 6.38702753
v -3.24988582 0.238452967 6.38702753
v -3.24988582 0.238452967 5.66132966
v -3.21772011 0.27061868 5.66132966
v -3.21772011 0.238452967 5.62916394
v -2.03907647 0.27061868 5.66132966
v -2.03907647 0.238452967 5.62916394
v -2.00691076 0.238452967 5.66132966
v -10.0522777 -0.235827194 5.61669152
v -10.0709864 -0.235827194 -8.22933518
v -10.0043574 -0.169198216 -8.22933518
v -9.98564877 -0.169198216 5.60782954
v -9.89998294 -0.235827194 6.18549949
v -9.98564877 0.0530077827 5.60782954
v -10.0043574 0.0530077827 -8.22933518
v -9.92722533 0.13013985 -8.22933518
v -9.83762084 -0.169198216 6.15956999
v -9.60523997 -0.235827194 6.6955558
v -9.55206808 -0.169198216 6.65452811
v -9.18905503 -0.235827194 7.11206897
v -9.83762084 0.0530077827 6.15956999
v -9.9085167 0.13013985 5.59765467
v -9.14802733 -0.169198216 7.05856886
v -8.67899872 -0.235827194 7.40648371
v 9.8796332 0.0966612507 5.59371601
v 9.89834183 0.0966612507 -8.22933518
v 9.97974078 0.0247807281 -8.22933518
v -9.76606854 0.13013985 6.13003005
v -9.55206808 0.0530077827 6.65452811
v -8.65306922 -0.169198216 7.34412162
v -8.11019075 -0.235827194 7.55877852
v -9.14802733 0.0530077827 7.05856886
v -9.49036243 0.129811629 6.6072642
v 9.73882615 0.0969894723 6.11887052
v 9.96103215 0.0247807281 5.60454732
v -8.10132877 -0.169198216 7.49214954
v 8.11019075 -0.235827194 7.55877852
v -8.65306922 0.0326580457 7.34412162
v -9.10076343 0.129811629 6.9968632
v 9.46738692 0.0969894723 6.58954024
v 9.98564877 -0.169198216 5.60782954
v 10.0043574 -0.169198216 -8.22933518
v 10.0709864 -0.235827194 -8.22933518
v 10.0522777 -0.235827194 5.61669152
v 9.83762084 -0.169198216 6.15956999
v 9.89998294 -0.235827194 6.18549949
v 9.81497355 0.0247807281 6.15037979
v 9.55206808 -0.169198216 6.65452811
v 9.6055682 -0.235827194 6.6955558
v 9.53237479 0.0247807281 6.63942992
v 9.14802733 -0.169198216 7.05856886
v 9.18905503 -0.235827194 7.11206897
v 9.08303946 0.0969894723 6.97388769
v 8.65306922 -0.169198216 7.34412162
v 8.67899872 -0.235827194 7.40648371
v 9.13292914 0.0247807281 7.03887556
v -8.55525919 0.129811629 7.34412162
v 8.10132877 -0.169198216 7.49214954
v 8.54869476 0.0969894723 7.30801724
v 8.64486368 0.0027898833 7.32377188
v -8.1338227 0.0178880753 7.48328756
v 8.09837477 0.0251089497 7.46753292
v -8.13579203 0.105523233 7.41501747
v 8.0881999 0.0973176939 7.38613398
v -10.0522777 -0.235827194 5.61669152
v -10.6880429 -0.235827194 -8.22835051
v -10.0709864 -0.235827194 -8.22933518
v -10.6565336 -0.235827194 5.69644936
v -9.89998294 -0.235827194 6.18549949
v -10.7234908 -0.302784393 5.70531134
v -10.7550001 -0.302784393 -8.22835051
v -10.7550001 -0.724877325 -8.22835051
v -10.4632111 -0.235827194 6.41886503
v -9.60523997 -0.235827194 6.6955558
v -10.525245 -0.302784393 6.44446631
v -10.7234908 -0.724877325 5.70531134
v -10.0890386 -0.235827194 7.06644617
v -9.18905503 -0.235827194 7.11206897
v -10.1425387 -0.302784393 7.10747387
v -9.5599454 -0.235827194 7.59553933
v -8.67899872 -0.235827194 7.40648371
v -10.6565336 -0.791506303 5.69644936
v -10.6880429 -0.791506303 -8.22835051
v -10.510475 -0.791506303 -8.22900695
v -10.4832327 -0.791506303 5.67347385
v -10.4632111 -0.791506303 6.41886503
v -10.3013979 -0.791506303 6.35157961
v -10.525245 -0.724877325 6.44446631
v -10.0890386 -0.791506303 7.06644617
v -9.95020084 -0.791506303 6.96010239
v -10.1425387 -0.724877325 7.10747387
v -9.5599454 -0.791506303 7.59553933
v -9.45360161 -0.791506303 7.45670161
v -9.60097309 -0.302784393 7.64903945
v -9.60097309 -0.724877325 7.64903945
v -8.91203603 -0.791506303 7.96971192
v -8.84507883 -0.791506303 7.80789869
v -8.93796553 -0.302784393 8.03174579
v -8.93796553 -0.724877325 8.03174579
v -8.18962037 -0.791506303 8.16303442
v -8.16664486 -0.791506303 7.98973343
v -8.91203603 -0.235827194 7.96971192
v -8.11019075 -0.235827194 7.55877852
v -8.19848235 -0.302784393 8.22999162
v -8.18962037 -0.235827194 8.16303442
v 8.11019075 -0.235827194 7.55877852
v -8.19848235 -0.724877325 8.22999162
v 8.18962037 -0.791506303 8.16303442
v 8.16664486 -0.791506303 7.98973343
v 8.18962037 -0.235827194 8.16303442
v 8.67899872 -0.235827194 7.40648371
v 8.19848235 -0.302784393 8.22999162
v 8.19848235 -0.724877325 8.22999162
v 8.91203603 -0.791506303 7.96971192
v 8.84507883 -0.791506303 7.80789869
v 8.91203603 -0.235827194 7.96971192
v 9.18905503 -0.235827194 7.11206897
v 8.93796553 -0.302784393 8.03174579
v 8.93796553 -0.724877325 8.03174579
v 9.5599454 -0.791506303 7.59553933
v 9.45360161 -0.791506303 7.45670161
v 9.5599454 -0.235827194 7.59553933
v 9.6055682 -0.235827194 6.6955558
v 9.60097309 -0.302784393 7.64903945
v 9.60097309 -0.724877325 7.64903945
v 10.0890386 -0.791506303 7.06644617
v 9.95020084 -0.791506303 6.96010239
v 10.0890386 -0.235827194 7.06644617
v 9.89998294 -0.235827194 6.18549949
v 10.1425387 -0.302784393 7.10747387
v 10.1425387 -0.724877325 7.10747387
v 10.4632111 -0.791506303 6.41886503
v 10.3013979 -0.791506303 6.35157961
v 10.4632111 -0.235827194 6.41886503
v 10.0522777 -0.235827194 5.61669152
v 10.525245 -0.302784393 6.44446631
v 10.525245 -0.724877325 6.44446631
v 10.6565336 -0.791506303 5.69644936
v 10.4832327 -0.791506303 5.67347385
v 10.6565336 -0.235827194 5.69644936
v 10.0709864 -0.235827194 -8.22933518
v 10.6880429 -0.235827194 -8.22835051
v 10.7550001 -0.302784393 -8.22835051
v 10.7234908 -0.302784393 5.70531134
v 10.7234908 -0.724877325 5.70531134
v 10.7550001 -0.724877325 -8.22835051
v 10.6880429 -0.791506303 -8.22835051
v 10.510475 -0.791506303 -8.22900695
v -10.4832327 -0.791506303 5.67347385
v -10.510475 -0.905399186 -8.22900695
v -10.510475 -0.791506303 -8.22900695
v -10.4832327 -0.905399186 5.67347385
v -10.3013979 -0.791506303 6.35157961
v -10.4162755 -0.972356385 5.66461187
v -10.4438461 -0.972356385 -8.22900695
v -9.92197378 -0.972356385 -8.22999162
v -9.90490626 -0.972356385 5.59667001
v -10.2390358 -0.972356385 6.32597832
v -9.7624581 -0.972356385 6.12838894
v -10.3013979 -0.905399186 6.35157961
v -9.95020084 -0.791506303 6.96010239
v -9.89670072 -0.972356385 6.91907469
v -9.48740843 -0.972356385 6.60496665
v -9.95020084 -0.905399186 6.96010239
v -9.45360161 -0.791506303 7.45670161
v -9.41257392 -0.972356385 7.4032015
v -9.09846588 -0.972356385 6.99390921
v -9.45360161 -0.905399186 7.45670161
v -8.84507883 -0.791506303 7.80789869
v -8.81947755 -0.972356385 7.74553659
v -8.62188817 -0.972356385 7.26895888
v -8.84507883 -0.905399186 7.80789869
v -8.16664486 -0.791506303 7.98973343
v -8.1581111 -0.972356385 7.92277623
v -8.09049745 -0.972356385 7.41140704
v -8.16664486 -0.905399186 7.98973343
v 8.16664486 -0.791506303 7.98973343
v 8.1581111 -0.972356385 7.92277623
v 8.09049745 -0.972356385 7.41140704
v 8.16664486 -0.905399186 7.98973343
v 8.84507883 -0.791506303 7.80789869
v 8.81947755 -0.972356385 7.74553659
v 8.62188817 -0.972356385 7.26895888
v 8.84507883 -0.905399186 7.80789869
v 9.45360161 -0.791506303 7.45670161
v 9.41257392 -0.972356385 7.4032015
v 9.09846588 -0.972356385 6.99390921
v 9.45360161 -0.905399186 7.45670161
v 9.95020084 -0.791506303 6.96010239
v 9.89670072 -0.972356385 6.91907469
v 9.48740843 -0.972356385 6.60496665
v 9.95020084 -0.905399186 6.96010239
v 10.3013979 -0.791506303 6.35157961
v 10.2390358 -0.972356385 6.32597832
v 9.7624581 -0.972356385 6.12838894
v 10.3013979 -0.905399186 6.35157961
v 10.4832327 -0.791506303 5.67347385
v 10.4162755 -0.972356385 5.66461187
v 9.90490626 -0.972356385 5.59667001
v 10.4832327 -0.905399186 5.67347385
v 10.510475 -0.791506303 -8.22900695
v 10.510475 -0.905399186 -8.22900695
v 10.4438461 -0.972356385 -8.22900695
v 9.92197378 -0.972356385 -8.22999162
v -8.30613902 0.0746704059 1.94192289
v -7.9542855 0.0746704059 1.25200116
v -7.70221134 0.898834754 1.43514879
v -8.00975495 0.898834754 2.03842003
v -8.42725278 0.0746704059 2.70733557
v -8.30613902 0.0746704059 1.94192289
v -8.00975495 0.898834754 2.03842003
v -8.11544229 0.898834754 2.70733557
v -8.30613902 0.0746704059 3.47242004
v -8.07375815 0.952006648 2.70733557
v -7.96971192 0.952006648 2.05122067
v -7.96971192 0.952006648 3.36312226
v -8.00975495 0.898834754 3.3759229
v -7.9542855 0.0746704059 4.16266999
v -7.66840452 0.952006648 3.95490574
v -7.70221134 0.898834754 3.97919414
v -7.40648371 0.0746704059 4.71047178
v -7.19871946 0.952006648 4.42426258
v -7.22333608 0.898834754 4.4580694
v -6.71656198 0.0746704059 5.06199708
v -6.6072642 0.952006648 4.7258982
v -6.62006484 0.898834754 4.76561301
v -5.9511493 0.0746704059 5.18311084
v -5.9511493 0.952006648 4.82961621
v -5.9511493 0.898834754 4.87162857
v -5.18606483 0.0746704059 5.06199708
v -5.29536261 0.952006648 4.7258982
v -5.28256197 0.898834754 4.76561301
v -4.49581488 0.0746704059 4.71047178
v -4.70390735 0.952006648 4.42426258
v -4.67929073 0.898834754 4.4580694
v -3.94801309 0.0746704059 4.16266999
v -4.23422229 0.952006648 3.95490574
v -4.20041547 0.898834754 3.97919414
v -3.59648779 0.0746704059 3.47242004
v -3.93258667 0.952006648 3.36312226
v -3.89287187 0.898834754 3.3759229
v -3.47537404 0.0746704059 2.70733557
v -3.82886866 0.952006648 2.70733557
v -3.78718452 0.898834754 2.70733557
v -3.59648779 0.0746704059 1.94192289
v -3.93258667 0.952006648 2.05122067
v -3.89287187 0.898834754 2.03842003
v -3.94801309 0.0746704059 1.25200116
v -4.23422229 0.952006648 1.45976541
v -4.20041547 0.898834754 1.43514879
v -4.49581488 0.0746704059 0.704199367
v -4.70390735 0.952006648 0.990080349
v -4.67929073 0.898834754 0.956273528
v -5.18606483 0.0746704059 0.352345849
v -5.29536261 0.952006648 0.688772953
v -5.28256197 0.898834754 0.648729922
v -5.9511493 0.0746704059 0.231232092
v -5.9511493 0.952006648 0.584726717
v -5.9511493 0.898834754 0.543042578
v -6.71656198 0.0746704059 0.352345849
v -6.6072642 0.952006648 0.688772953
v -6.62006484 0.898834754 0.648729922
v -7.40681194 0.0746704059 0.704199367
v -7.19871946 0.952006648 0.990080349
v -7.22333608 0.898834754 0.956273528
v -7.9542855 0.0746704059 1.25200116
v -7.66840452 0.952006648 1.45976541
v -7.70221134 0.898834754 1.43514879
v -7.96971192 0.952006648 2.05122067
v -8.00975495 0.898834754 2.03842003
v 8.30613902 0.0746704059 1.94192289
v 8.00975495 0.898834754 2.03842003
v 7.70221134 0.898834754 1.43514879
v 7.9542855 0.0746704059 1.25200116
v 8.42725278 0.0746704059 2.70733557
v 8.00975495 0.898834754 2.03842003
v 8.30613902 0.0746704059 1.94192289
v 8.11544229 0.898834754 2.70733557
v 8.30613902 0.0746704059 3.47242004
v 8.07375815 0.952006648 2.70733557
v 7.96971192 0.952006648 2.05122067
v 7.96971192 0.952006648 3.36312226
v 8.00975495 0.898834754 3.3759229
v 7.9542855 0.0746704059 4.16266999
v 7.66840452 0.952006648 3.95490574
v 7.70221134 0.898834754 3.97919414
v 7.40648371 0.0746704059 4.71047178
v 7.19871946 0.952006648 4.42426258
v 7.22333608 0.898834754 4.4580694
v 6.71656198 0.0746704059 5.06199708
v 6.6072642 0.952006648 4.7258982
v 6.62006484 0.898834754 4.76561301
v 5.9511493 0.0746704059 5.18311084
v 5.9511493 0.952006648 4.82961621
v 5.9511493 0.898834754 4.87162857
v 5.18606483 0.0746704059 5.06199708
v 5.29536261 0.952006648 4.7258982
v 5.28256197 0.898834754 4.76561301
v 4.49581488 0.0746704059 4.71047178
v 4.70390735 0.952006648 4.42426258
v 4.67929073 0.898834754 4.4580694
v 3.94801309 0.0746704059 4.16266999
v 4.23422229 0.952006648 3.95490574
v 4.20041547 0.898834754 3.97919414
v 3.59648779 0.0746704059 3.47242004
v 3.93258667 0.952006648 3.36312226
v 3.89287187 0.898834754 3.3759229
v 3.47537404 0.0746704059 2.70733557
v 3.82886866 0.952006648 2.70733557
v 3.78718452 0.898834754 2.70733557
v 3.59648779 0.0746704059 1.94192289
v 3.93258667 0.952006648 2.05122067
v 3.89287187 0.898834754 2.03842003
v 3.94801309 0.0746704059 1.25200116
v 4.23422229 0.952006648 1.45976541
v 4.20041547 0.898834754 1.43514879
v 4.49581488 0.0746704059 0.704199367
v 4.70390735 0.952006648 0.990080349
v 4.67929073 0.898834754 0.956273528
v 5.18606483 0.0746704059 0.352345849
v 5.29536261 0.952006648 0.688772953
v 5.28256197 0.898834754 0.648729922
v 5.9511493 0.0746704059 0.231232092
v 5.9511493 0.952006648 0.584726717
v 5.9511493 0.898834754 0.543042578
v 6.71656198 0.0746704059 0.352345849
v 6.6072642 0.952006648 0.688772953
v 6.62006484 0.898834754 0.648729922
v 7.40648371 0.0746704059 0.704199367
v 7.19871946 0.952006648 0.990080349
v 7.22333608 0.898834754 0.956273528
v 7.9542855 0.0746704059 1.25200116
v 7.66840452 0.952006648 1.45976541
v 7.70221134 0.898834754 1.43514879
v 7.96971192 0.952006648 2.05122067
v 8.00975495 0.898834754 2.03842003
v 7.96971192 0.952006648 2.05122067
v 8.07375815 0.952006648 2.70733557
v 8.00877028 0.972356385 2.70733557
v 7.90800626 0.972356385 2.0715704
v 7.66840452 0.952006648 1.45976541
v 7.90800626 0.972356385 3.34310075
v 7.96971192 0.952006648 3.36312226
v 5.9511493 0.972356385 2.70733557
v 7.61588907 0.972356385 1.49783911
v 7.61588907 0.972356385 3.91650382
v 7.16064576 0.972356385 1.0425958
v 7.19871946 0.952006648 0.990080349
v 7.66840452 0.952006648 3.95490574
v 6.6072642 0.952006648 0.688772953
v 7.16064576 0.972356385 4.37174713
v 7.19871946 0.952006648 4.42426258
v 6.58691447 0.972356385 0.750478607
v 5.9511493 0.952006648 0.584726717
v 6.58691447 0.972356385 4.66386432
v 6.6072642 0.952006648 4.7258982
v 5.9511493 0.972356385 0.649714587
v 5.29536261 0.952006648 0.688772953
v 5.9511493 0.972356385 4.76462834
v 5.9511493 0.952006648 4.82961621
v 5.31538413 0.972356385 0.750478607
v 5.31538413 0.972356385 4.66386432
v 4.74198105 0.972356385 1.0425958
v 4.70390735 0.952006648 0.990080349
v 5.29536261 0.952006648 4.7258982
v 4.23422229 0.952006648 1.45976541
v 4.74198105 0.972356385 4.37174713
v 4.70390735 0.952006648 4.42426258
v 4.28673774 0.972356385 1.49783911
v 3.93258667 0.952006648 2.05122067
v 4.28673774 0.972356385 3.91650382
v 4.23422229 0.952006648 3.95490574
v 3.99462055 0.972356385 2.0715704
v 3.82886866 0.952006648 2.70733557
v 3.99462055 0.972356385 3.34310075
v 3.93258667 0.952006648 3.36312226
v 3.89385653 0.972356385 2.70733557
v -7.96971192 0.952006648 2.05122067
v -8.00877028 0.972356385 2.70733557
v -8.07375815 0.952006648 2.70733557
v -7.90800626 0.972356385 2.0715704
v -7.66840452 0.952006648 1.45976541
v -7.90800626 0.972356385 3.34310075
v -7.96971192 0.952006648 3.36312226
v -5.9511493 0.972356385 2.70733557
v -7.61588907 0.972356385 1.49783911
v -7.61588907 0.972356385 3.91650382
v -7.16064576 0.972356385 1.0425958
v -7.19871946 0.952006648 0.990080349
v -7.66840452 0.952006648 3.95490574
v -6.6072642 0.952006648 0.688772953
v -7.16064576 0.972356385 4.37174713
v -7.19871946 0.952006648 4.42426258
v -6.58691447 0.972356385 0.750478607
v -5.9511493 0.952006648 0.584726717
v -6.58691447 0.972356385 4.66386432
v -6.6072642 0.952006648 4.7258982
v -5.9511493 0.972356385 0.649714587
v -5.29536261 0.952006648 0.688772953
v -5.9511493 0.972356385 4.76462834
v -5.9511493 0.952006648 4.82961621
v -5.31538413 0.972356385 0.750478607
v -5.31538413 0.972356385 4.66386432
v -4.74198105 0.972356385 1.0425958
v -4.70390735 0.952006648 0.990080349
v -5.29536261 0.952006648 4.7258982
v -4.23422229 0.952006648 1.45976541
v -4.74198105 0.972356385 4.37174713
v -4.70390735 0.952006648 4.42426258
v -4.28673774 0.972356385 1.49783911
v -3.93258667 0.952006648 2.05122067
v -4.28673774 0.972356385 3.91650382
v -4.23422229 0.952006648 3.95490574
v -3.99462055 0.972356385 2.0715704
v -3.82886866 0.952006648 2.70733557
v -3.99462055 0.972356385 3.34310075
v -3.93258667 0.952006648 3.36312226
v -3.89385653 0.972356385 2.70733557
vt 0.843791494 0.241626981
vt 0.960151786 0.241626981
vt 0.960151786 0.233869628
vt 0.843791494 0.234839297
vt 0.420046096 0.676038739
vt 0.411319074 0.677978077
vt 0.420046096 0.677978077
vt 0.411319074 0.676038739
vt 0.411319074 0.64210032
vt 0.420046096 0.64210032
vt 0.420046096 0.639191313
vt 0.411319074 0.639191313
vt 0.411319074 0.583920174
vt 0.420046096 0.583920174
vt 0.420046096 0.581980836
vt 0.411319074 0.581980836
vt 0.411319074 0.548042417
vt 0.420046096 0.548042417
vt 0.420046096 0.54513341
vt 0.411319074 0.54513341
vt 0.420046096 0.489862271
vt 0.411319074 0.489862271
vt 0.843791494 0.241626981
vt 0.843791494 0.234839297
vt 0.83700381 0.234839297
vt 0.836034141 0.0457538217
vt 0.842821825 0.0467234908
vt 0.842821825 0.038966138
vt 0.959182117 0.038966138
vt 0.959182117 0.0457538217
vt 0.965969801 0.0457538217
vt 0.960151786 0.233869628
vt 0.96693947 0.233869628
vt 0.960151786 0.241626981
vt 0.677008408 0.240657311
vt 0.798217046 0.240657311
vt 0.797247377 0.232899959
vt 0.677008408 0.232899959
vt 0.440409147 0.676038739
vt 0.430712456 0.677978077
vt 0.440409147 0.677978077
vt 0.430712456 0.676038739
vt 0.430712456 0.64210032
vt 0.440409147 0.64210032
vt 0.440409147 0.639191313
vt 0.430712456 0.639191313
vt 0.430712456 0.583920174
vt 0.440409147 0.583920174
vt 0.440409147 0.581980836
vt 0.430712456 0.581980836
vt 0.430712456 0.548042417
vt 0.440409147 0.548042417
vt 0.440409147 0.54513341
vt 0.430712456 0.54513341
vt 0.440409147 0.489862271
vt 0.430712456 0.489862271
vt 0.677008408 0.240657311
vt 0.677008408 0.232899959
vt 0.669251055 0.233869628
vt 0.668281386 0.0370267998
vt 0.676038739 0.0370267998
vt 0.676038739 0.0292694469
vt 0.797247377 0.0292694469
vt 0.797247377 0.0370267998
vt 0.80500473 0.0370267998
vt 0.797247377 0.232899959
vt 0.80500473 0.232899959
vt 0.798217046 0.240657311
vt 0.843791494 0.241626981
vt 0.843791494 0.234839297
vt 0.960151786 0.233869628
vt 0.960151786 0.241626981
vt 0.420046096 0.676038739
vt 0.420046096 0.677978077
vt 0.411319074 0.677978077
vt 0.411319074 0.676038739
vt 0.411319074 0.64210032
vt 0.420046096 0.64210032
vt 0.420046096 0.639191313
vt 0.411319074 0.639191313
vt 0.411319074 0.583920174
vt 0.420046096 0.583920174
vt 0.420046096 0.581980836
vt 0.411319074 0.581980836
vt 0.411319074 0.548042417
vt 0.420046096 0.548042417
vt 0.420046096 0.54513341
vt 0.411319074 0.54513341
vt 0.420046096 0.489862271
vt 0.411319074 0.489862271
vt 0.843791494 0.241626981
vt 0.83700381 0.234839297
vt 0.843791494 0.234839297
vt 0.836034141 0.0457538217
vt 0.842821825 0.0467234908
vt 0.842821825 0.038966138
vt 0.959182117 0.038966138
vt 0.959182117 0.0457538217
vt 0.965969801 0.0457538217
vt 0.960151786 0.233869628
vt 0.96693947 0.233869628
vt 0.960151786 0.241626981
vt 0.677008408 0.240657311
vt 0.677008408 0.232899959
vt 0.797247377 0.232899959
vt 0.798217046 0.240657311
vt 0.440409147 0.676038739
vt 0.440409147 0.677978077
vt 0.430712456 0.677978077
vt 0.430712456 0.676038739
vt 0.430712456 0.64210032
vt 0.440409147 0.64210032
vt 0.440409147 0.639191313
vt 0.430712456 0.639191313
vt 0.430712456 0.583920174
vt 0.440409147 0.583920174
vt 0.440409147 0.581980836
vt 0.430712456 0.581980836
vt 0.430712456 0.548042417
vt 0.440409147 0.548042417
vt 0.440409147 0.54513341
vt 0.430712456 0.54513341
vt 0.440409147 0.489862271
vt 0.430712456 0.489862271
vt 0.677008408 0.240657311
vt 0.669251055 0.233869628
vt 0.677008408 0.232899959
vt 0.668281386 0.0370267998
vt 0.676038739 0.0370267998
vt 0.676038739 0.0292694469
vt 0.797247377 0.0292694469
vt 0.797247377 0.0370267998
vt 0.80500473 0.0370267998
vt 0.797247377 0.232899959
vt 0.80500473 0.232899959
vt 0.798217046 0.240657311
vt 0.536406388 0.972757485
vt 0.993120536 0.959182117
vt 0.993120536 0.95627311
vt 0.536406388 0.969848477
vt 0.514103999 0.968878808
vt 0.536406388 0.963060793
vt 0.993120536 0.948515757
vt 0.992150867 0.94560675
vt 0.516043337 0.965969801
vt 0.494710617 0.959182117
vt 0.496649955 0.95627311
vt 0.478226242 0.943667411
vt 0.517982675 0.958212448
vt 0.537376057 0.959182117
vt 0.481135249 0.941728073
vt 0.466590213 0.924274029
vt 0.517013006 0.30756448
vt 0.971787815 0.292049774
vt 0.971787815 0.288171098
vt 0.518952344 0.955303441
vt 0.5014983 0.949485426
vt 0.46949922 0.92330436
vt 0.461741867 0.90197164
vt 0.486953264 0.935910059
vt 0.503437638 0.946576419
vt 0.499558962 0.312412825
vt 0.516043337 0.303685803
vt 0.465620543 0.90197164
vt 0.446227161 0.367683964
vt 0.476286904 0.920395353
vt 0.489862271 0.93397072
vt 0.484044256 0.322109516
vt 0.516043337 0.296898119
vt 0.971787815 0.282353083
vt 0.971787815 0.279444076
vt 0.515073668 0.293989112
vt 0.495680286 0.302716134
vt 0.493740947 0.299807127
vt 0.497619624 0.309503818
vt 0.477256573 0.313382494
vt 0.475317234 0.311443156
vt 0.482104918 0.319200509
vt 0.463681205 0.3288972
vt 0.460772198 0.326957862
vt 0.471438558 0.334715215
vt 0.453014845 0.347320913
vt 0.450105838 0.346351244
vt 0.468529551 0.332775876
vt 0.478226242 0.916516677
vt 0.449136169 0.367683964
vt 0.461741867 0.353138927
vt 0.45883286 0.349260251
vt 0.471438558 0.902941309
vt 0.455923852 0.367683964
vt 0.475317234 0.902941309
vt 0.459802529 0.367683964
vt 0.030239116 0.723552525
vt 0.0215120941 0.995059874
vt 0.0341177924 0.995059874
vt 0.0186030868 0.722582856
vt 0.030239116 0.709977158
vt 0.0166637486 0.722582856
vt 0.0195727559 0.995059874
vt 0.0118154031 0.995059874
vt 0.0186030868 0.709007488
vt 0.0312087851 0.69640179
vt 0.0166637486 0.709007488
vt 0.00793672666 0.722582856
vt 0.0186030868 0.69640179
vt 0.0312087851 0.682826423
vt 0.0176334177 0.69640179
vt 0.0186030868 0.682826423
vt 0.0312087851 0.670220724
vt 0.00599738845 0.722582856
vt 0.00987606487 0.995059874
vt 0.00599738845 0.995059874
vt 0.00308838114 0.722582856
vt 0.00793672666 0.709007488
vt 0.00405805024 0.708037819
vt 0.00890639576 0.709007488
vt 0.00890639576 0.695432121
vt 0.00502771935 0.695432121
vt 0.00987606487 0.695432121
vt 0.00890639576 0.682826423
vt 0.00599738845 0.683796092
vt 0.0176334177 0.682826423
vt 0.00987606487 0.682826423
vt 0.00793672666 0.671190393
vt 0.00502771935 0.671190393
vt 0.0176334177 0.670220724
vt 0.00987606487 0.670220724
vt 0.00696705755 0.657615026
vt 0.00405805024 0.656645357
vt 0.0186030868 0.670220724
vt 0.030239116 0.656645357
vt 0.0176334177 0.657615026
vt 0.0186030868 0.657615026
vt 0.030239116 0.343442236
vt 0.00890639576 0.657615026
vt 0.00696705755 0.342472567
vt 0.00405805024 0.342472567
vt 0.0186030868 0.342472567
vt 0.0312087851 0.329866869
vt 0.0176334177 0.342472567
vt 0.00890639576 0.342472567
vt 0.00793672666 0.3288972
vt 0.00502771935 0.3288972
vt 0.0186030868 0.329866869
vt 0.0312087851 0.316291502
vt 0.0176334177 0.329866869
vt 0.00987606487 0.3288972
vt 0.00890639576 0.316291502
vt 0.00599738845 0.316291502
vt 0.0186030868 0.316291502
vt 0.0312087851 0.303685803
vt 0.0176334177 0.316291502
vt 0.00987606487 0.316291502
vt 0.00890639576 0.304655472
vt 0.00502771935 0.304655472
vt 0.0186030868 0.303685803
vt 0.030239116 0.290110436
vt 0.0176334177 0.303685803
vt 0.00987606487 0.304655472
vt 0.00793672666 0.291080105
vt 0.00405805024 0.291080105
vt 0.0186030868 0.291080105
vt 0.030239116 0.276535068
vt 0.0166637486 0.291080105
vt 0.00890639576 0.291080105
vt 0.00599738845 0.277504737
vt 0.00308838114 0.277504737
vt 0.0186030868 0.277504737
vt 0.0341177924 0.00502771935
vt 0.0215120941 0.00502771935
vt 0.0195727559 0.00502771935
vt 0.0166637486 0.277504737
vt 0.00793672666 0.277504737
vt 0.0118154031 0.00502771935
vt 0.00987606487 0.00502771935
vt 0.00599738845 0.00502771935
vt 0.0544808436 0.701250136
vt 0.0467234908 0.979545168
vt 0.048662829 0.979545168
vt 0.0525415054 0.701250136
vt 0.0525415054 0.688644437
vt 0.0506021672 0.701250136
vt 0.0447841526 0.979545168
vt 0.0341177924 0.979545168
vt 0.0399358071 0.702219805
vt 0.048662829 0.689614106
vt 0.0399358071 0.690583775
vt 0.0506021672 0.688644437
vt 0.0506021672 0.678947746
vt 0.0476931599 0.678947746
vt 0.038966138 0.679917415
vt 0.048662829 0.678947746
vt 0.0496324981 0.669251055
vt 0.0467234908 0.669251055
vt 0.038966138 0.669251055
vt 0.048662829 0.669251055
vt 0.0506021672 0.659554364
vt 0.0476931599 0.659554364
vt 0.038966138 0.658584695
vt 0.048662829 0.659554364
vt 0.0525415054 0.648888004
vt 0.048662829 0.648888004
vt 0.038966138 0.646948666
vt 0.0506021672 0.648888004
vt 0.0525415054 0.335684884
vt 0.048662829 0.335684884
vt 0.038966138 0.336654553
vt 0.0506021672 0.335684884
vt 0.0506021672 0.324048854
vt 0.0476931599 0.324048854
vt 0.038966138 0.325018523
vt 0.048662829 0.324048854
vt 0.0496324981 0.314352163
vt 0.0467234908 0.314352163
vt 0.038966138 0.314352163
vt 0.048662829 0.314352163
vt 0.0506021672 0.305625141
vt 0.0476931599 0.304655472
vt 0.038966138 0.304655472
vt 0.048662829 0.304655472
vt 0.0525415054 0.294958781
vt 0.048662829 0.294958781
vt 0.0399358071 0.293989112
vt 0.0506021672 0.294958781
vt 0.0544808436 0.283322752
vt 0.0506021672 0.282353083
vt 0.0399358071 0.281383414
vt 0.0525415054 0.283322752
vt 0.048662829 0.00405805024
vt 0.0467234908 0.00405805024
vt 0.0447841526 0.00405805024
vt 0.0341177924 0.00502771935
vt 0.0729045566 0.975666492
vt 0.0942372769 0.978575499
vt 0.095206946 0.893244618
vt 0.0748438948 0.892274949
vt 0.433621463 0.971787815
vt 0.453984514 0.968878808
vt 0.451075507 0.892274949
vt 0.433621463 0.893244618
vt 0.41519775 0.971787815
vt 0.432651794 0.886456934
vt 0.451075507 0.886456934
vt 0.41519775 0.886456934
vt 0.41519775 0.893244618
vt 0.395804368 0.969848477
vt 0.396774037 0.886456934
vt 0.396774037 0.892274949
vt 0.378350324 0.969848477
vt 0.378350324 0.886456934
vt 0.378350324 0.892274949
vt 0.359926611 0.969848477
vt 0.359926611 0.886456934
vt 0.359926611 0.892274949
vt 0.341502898 0.969848477
vt 0.341502898 0.886456934
vt 0.341502898 0.892274949
vt 0.323079185 0.969848477
vt 0.323079185 0.886456934
vt 0.323079185 0.892274949
vt 0.304655472 0.969848477
vt 0.304655472 0.886456934
vt 0.304655472 0.892274949
vt 0.286231759 0.970818146
vt 0.286231759 0.886456934
vt 0.286231759 0.892274949
vt 0.267808046 0.970818146
vt 0.266838377 0.886456934
vt 0.266838377 0.892274949
vt 0.248414664 0.970818146
vt 0.248414664 0.886456934
vt 0.248414664 0.892274949
vt 0.229990951 0.971787815
vt 0.229990951 0.886456934
vt 0.229990951 0.893244618
vt 0.211567238 0.971787815
vt 0.210597569 0.886456934
vt 0.210597569 0.893244618
vt 0.192173856 0.972757485
vt 0.192173856 0.886456934
vt 0.192173856 0.893244618
vt 0.172780474 0.972757485
vt 0.172780474 0.886456934
vt 0.172780474 0.893244618
vt 0.154356761 0.973727154
vt 0.153387092 0.886456934
vt 0.153387092 0.893244618
vt 0.134963379 0.975666492
vt 0.13399371 0.886456934
vt 0.13399371 0.893244618
vt 0.114600328 0.97760583
vt 0.114600328 0.886456934
vt 0.114600328 0.893244618
vt 0.0942372769 0.978575499
vt 0.095206946 0.886456934
vt 0.095206946 0.893244618
vt 0.0758135639 0.886456934
vt 0.0748438948 0.892274949
vt 0.0729045566 0.975666492
vt 0.0748438948 0.892274949
vt 0.095206946 0.893244618
vt 0.0942372769 0.978575499
vt 0.433621463 0.971787815
vt 0.451075507 0.892274949
vt 0.453984514 0.968878808
vt 0.433621463 0.893244618
vt 0.41519775 0.971787815
vt 0.432651794 0.886456934
vt 0.451075507 0.886456934
vt 0.41519775 0.886456934
vt 0.41519775 0.893244618
vt 0.395804368 0.969848477
vt 0.396774037 0.886456934
vt 0.396774037 0.892274949
vt 0.378350324 0.969848477
vt 0.378350324 0.886456934
vt 0.378350324 0.892274949
vt 0.359926611 0.969848477
vt 0.359926611 0.886456934
vt 0.359926611 0.892274949
vt 0.341502898 0.969848477
vt 0.341502898 0.886456934
vt 0.341502898 0.892274949
vt 0.323079185 0.969848477
vt 0.323079185 0.886456934
vt 0.323079185 0.892274949
vt 0.304655472 0.969848477
vt 0.304655472 0.886456934
vt 0.304655472 0.892274949
vt 0.286231759 0.970818146
vt 0.286231759 0.886456934
vt 0.286231759 0.892274949
vt 0.267808046 0.970818146
vt 0.266838377 0.886456934
vt 0.266838377 0.892274949
vt 0.248414664 0.970818146
vt 0.248414664 0.886456934
vt 0.248414664 0.892274949
vt 0.229990951 0.971787815
vt 0.229990951 0.886456934
vt 0.229990951 0.893244618
vt 0.211567238 0.971787815
vt 0.210597569 0.886456934
vt 0.210597569 0.893244618
vt 0.192173856 0.972757485
vt 0.192173856 0.886456934
vt 0.192173856 0.893244618
vt 0.172780474 0.972757485
vt 0.172780474 0.886456934
vt 0.172780474 0.893244618
vt 0.154356761 0.973727154
vt 0.153387092 0.886456934
vt 0.153387092 0.893244618
vt 0.134963379 0.975666492
vt 0.13399371 0.886456934
vt 0.13399371 0.893244618
vt 0.114600328 0.97760583
vt 0.114600328 0.886456934
vt 0.114600328 0.893244618
vt 0.0942372769 0.978575499
vt 0.095206946 0.886456934
vt 0.095206946 0.893244618
vt 0.0758135639 0.886456934
vt 0.0748438948 0.892274949
vt 0.648888004 0.101024961
vt 0.648888004 0.134963379
vt 0.645009328 0.13399371
vt 0.645009328 0.10199463
vt 0.638221644 0.0690258802
vt 0.635312637 0.165023121
vt 0.638221644 0.16696246
vt 0.543194072 0.117509335
vt 0.635312637 0.0709652184
vt 0.615919254 0.191204187
vt 0.615919254 0.0447841526
vt 0.618828262 0.0418751453
vt 0.618828262 0.194113195
vt 0.591677527 0.0224817632
vt 0.589738189 0.210597569
vt 0.591677527 0.213506577
vt 0.589738189 0.0253907705
vt 0.559678446 0.0127850722
vt 0.559678446 0.22029426
vt 0.559678446 0.223203268
vt 0.559678446 0.0156940795
vt 0.526709697 0.0127850722
vt 0.526709697 0.22029426
vt 0.526709697 0.223203268
vt 0.526709697 0.0156940795
vt 0.496649955 0.210597569
vt 0.496649955 0.0253907705
vt 0.494710617 0.0224817632
vt 0.494710617 0.213506577
vt 0.467559882 0.0428448144
vt 0.470468889 0.191204187
vt 0.467559882 0.193143525
vt 0.470468889 0.0447841526
vt 0.4481665 0.0690258802
vt 0.451075507 0.165023121
vt 0.4481665 0.16696246
vt 0.451075507 0.0709652184
vt 0.437500139 0.101024961
vt 0.441378816 0.13399371
vt 0.437500139 0.134963379
vt 0.441378816 0.10199463
vt 0.648888004 0.101024961
vt 0.645009328 0.13399371
vt 0.648888004 0.134963379
vt 0.645009328 0.10199463
vt 0.638221644 0.0690258802
vt 0.635312637 0.165023121
vt 0.638221644 0.16696246
vt 0.543194072 0.117509335
vt 0.635312637 0.0709652184
vt 0.615919254 0.191204187
vt 0.615919254 0.0447841526
vt 0.618828262 0.0418751453
vt 0.618828262 0.194113195
vt 0.591677527 0.0224817632
vt 0.589738189 0.210597569
vt 0.591677527 0.213506577
vt 0.589738189 0.0253907705
vt 0.559678446 0.0127850722
vt 0.559678446 0.22029426
vt 0.559678446 0.223203268
vt 0.559678446 0.0156940795
vt 0.526709697 0.0127850722
vt 0.526709697 0.22029426
vt 0.526709697 0.223203268
vt 0.526709697 0.0156940795
vt 0.496649955 0.210597569
vt 0.496649955 0.0253907705
vt 0.494710617 0.0224817632
vt 0.494710617 0.213506577
vt 0.467559882 0.0428448144
vt 0.470468889 0.191204187
vt 0.467559882 0.193143525
vt 0.470468889 0.0447841526
vt 0.4481665 0.0690258802
vt 0.451075507 0.165023121
vt 0.4481665 0.16696246
vt 0.451075507 0.0709652184
vt 0.437500139 0.101024961
vt 0.441378816 0.13399371
vt 0.437500139 0.134963379
vt 0.441378816 0.10199463
g item_11item_11_mobile_0
f 3/3/3 2/2/2 1/1/1
f 4/4/4 3/3/3 1/1/1
f 7/7/7 6/6/6 5/5/5
f 6/6/6 8/8/8 5/5/5
f 8/8/8 9/9/9 5/5/5
f 9/9/9 10/10/10 5/5/5
f 10/10/10 9/9/9 11/11/11
f 9/9/9 12/12/12 11/11/11
f 12/12/12 13/13/13 11/11/11
f 13/13/13 14/14/14 11/11/11
f 14/14/14 13/13/13 15/15/15
f 13/13/13 16/16/16 15/15/15
f 16/16/16 17/17/17 15/15/15
f 17/17/17 18/18/18 15/15/15
f 18/18/18 17/17/17 19/19/19
f 17/17/17 20/20/20 19/19/19
f 19/19/19 20/20/20 21/21/21
f 20/20/20 22/22/22 21/21/21
f 25/25/25 24/24/24 23/23/23
f 25/25/25 26/26/26 24/24/24
f 26/26/26 27/27/27 24/24/24
f 26/26/26 28/28/28 27/27/27
f 28/28/28 29/29/29 27/27/27
f 27/27/27 30/30/30 24/24/24
f 29/29/29 30/30/30 27/27/27
f 30/30/30 29/29/29 31/31/31
f 30/30/30 32/32/32 24/24/24
f 30/30/30 31/31/31 33/33/33
f 32/32/32 30/30/30 33/33/33
f 32/32/32 33/33/33 34/34/34
f 37/37/37 36/36/36 35/35/35
f 38/38/38 37/37/37 35/35/35
f 41/41/41 40/40/40 39/39/39
f 40/40/40 42/42/42 39/39/39
f 42/42/42 43/43/43 39/39/39
f 43/43/43 44/44/44 39/39/39
f 44/44/44 43/43/43 45/45/45
f 43/43/43 46/46/46 45/45/45
f 46/46/46 47/47/47 45/45/45
f 47/47/47 48/48/48 45/45/45
f 48/48/48 47/47/47 49/49/49
f 47/47/47 50/50/50 49/49/49
f 50/50/50 51/51/51 49/49/49
f 51/51/51 52/52/52 49/49/49
f 52/52/52 51/51/51 53/53/53
f 51/51/51 54/54/54 53/53/53
f 53/53/53 54/54/54 55/55/55
f 54/54/54 56/56/56 55/55/55
f 59/59/59 58/58/58 57/57/57
f 59/59/59 60/60/60 58/58/58
f 60/60/60 61/61/61 58/58/58
f 60/60/60 62/62/62 61/61/61
f 62/62/62 63/63/63 61/61/61
f 61/61/61 64/64/64 58/58/58
f 63/63/63 64/64/64 61/61/61
f 64/64/64 63/63/63 65/65/65
f 64/64/64 66/66/66 58/58/58
f 64/64/64 65/65/65 67/67/67
f 66/66/66 64/64/64 67/67/67
f 66/66/66 67/67/67 68/68/68
f 71/71/71 70/70/70 69/69/69
f 72/72/72 71/71/71 69/69/69
f 75/75/75 74/74/74 73/73/73
f 76/76/76 75/75/75 73/73/73
f 77/77/77 76/76/76 73/73/73
f 78/78/78 77/77/77 73/73/73
f 77/77/77 78/78/78 79/79/79
f 80/80/80 77/77/77 79/79/79
f 81/81/81 80/80/80 79/79/79
f 82/82/82 81/81/81 79/79/79
f 81/81/81 82/82/82 83/83/83
f 84/84/84 81/81/81 83/83/83
f 85/85/85 84/84/84 83/83/83
f 86/86/86 85/85/85 83/83/83
f 85/85/85 86/86/86 87/87/87
f 88/88/88 85/85/85 87/87/87
f 88/88/88 87/87/87 89/89/89
f 90/90/90 88/88/88 89/89/89
f 93/93/93 92/92/92 91/91/91
f 94/94/94 92/92/92 93/93/93
f 95/95/95 94/94/94 93/93/93
f 96/96/96 94/94/94 95/95/95
f 97/97/97 96/96/96 95/95/95
f 98/98/98 95/95/95 93/93/93
f 98/98/98 97/97/97 95/95/95
f 97/97/97 98/98/98 99/99/99
f 100/100/100 98/98/98 93/93/93
f 99/99/99 98/98/98 101/101/101
f 98/98/98 100/100/100 101/101/101
f 101/101/101 100/100/100 102/102/102
f 105/105/105 104/104/104 103/103/103
f 106/106/106 105/105/105 103/103/103
f 109/109/109 108/108/108 107/107/107
f 110/110/110 109/109/109 107/107/107
f 111/111/111 110/110/110 107/107/107
f 112/112/112 111/111/111 107/107/107
f 111/111/111 112/112/112 113/113/113
f 114/114/114 111/111/111 113/113/113
f 115/115/115 114/114/114 113/113/113
f 116/116/116 115/115/115 113/113/113
f 115/115/115 116/116/116 117/117/117
f 118/118/118 115/115/115 117/117/117
f 119/119/119 118/118/118 117/117/117
f 120/120/120 119/119/119 117/117/117
f 119/119/119 120/120/120 121/121/121
f 122/122/122 119/119/119 121/121/121
f 122/122/122 121/121/121 123/123/123
f 124/124/124 122/122/122 123/123/123
f 127/127/127 126/126/126 125/125/125
f 128/128/128 126/126/126 127/127/127
f 129/129/129 128/128/128 127/127/127
f 130/130/130 128/128/128 129/129/129
f 131/131/131 130/130/130 129/129/129
f 132/132/132 129/129/129 127/127/127
f 132/132/132 131/131/131 129/129/129
f 131/131/131 132/132/132 133/133/133
f 134/134/134 132/132/132 127/127/127
f 133/133/133 132/132/132 135/135/135
f 132/132/132 134/134/134 135/135/135
f 135/135/135 134/134/134 136/136/136
f 139/139/139 138/138/138 137/137/137
f 140/140/140 139/139/139 137/137/137
f 140/140/140 137/137/137 141/141/141
f 139/139/139 140/140/140 142/142/142
f 143/143/143 139/139/139 142/142/142
f 144/144/144 143/143/143 142/142/142
f 145/145/145 140/140/140 141/141/141
f 142/142/142 140/140/140 145/145/145
f 145/145/145 141/141/141 146/146/146
f 147/147/147 145/145/145 146/146/146
f 147/147/147 146/146/146 148/148/148
f 149/149/149 142/142/142 145/145/145
f 149/149/149 145/145/145 147/147/147
f 150/150/150 144/144/144 142/142/142
f 150/150/150 142/142/142 149/149/149
f 151/151/151 147/147/147 148/148/148
f 151/151/151 148/148/148 152/152/152
f 144/144/144 150/150/150 153/153/153
f 154/154/154 144/144/144 153/153/153
f 155/155/155 154/154/154 153/153/153
f 156/156/156 150/150/150 149/149/149
f 150/150/150 156/156/156 153/153/153
f 157/157/157 149/149/149 147/147/147
f 157/157/157 147/147/147 151/151/151
f 156/156/156 149/149/149 157/157/157
f 158/158/158 151/151/151 152/152/152
f 158/158/158 152/152/152 159/159/159
f 160/160/160 157/157/157 151/151/151
f 160/160/160 151/151/151 158/158/158
f 161/161/161 156/156/156 157/157/157
f 161/161/161 157/157/157 160/160/160
f 156/156/156 162/162/162 153/153/153
f 156/156/156 161/161/161 162/162/162
f 163/163/163 155/155/155 153/153/153
f 163/163/163 153/153/153 162/162/162
f 164/164/164 158/158/158 159/159/159
f 164/164/164 159/159/159 165/165/165
f 166/166/166 160/160/160 158/158/158
f 166/166/166 158/158/158 164/164/164
f 167/167/167 161/161/161 160/160/160
f 167/167/167 160/160/160 166/166/166
f 161/161/161 168/168/168 162/162/162
f 161/161/161 167/167/167 168/168/168
f 163/163/163 169/169/169 155/155/155
f 169/169/169 170/170/170 155/155/155
f 171/171/171 170/170/170 169/169/169
f 172/172/172 171/171/171 169/169/169
f 172/172/172 169/169/169 173/173/173
f 169/169/169 163/163/163 173/173/173
f 174/174/174 172/172/172 173/173/173
f 175/175/175 163/163/163 162/162/162
f 163/163/163 175/175/175 173/173/173
f 175/175/175 162/162/162 168/168/168
f 174/174/174 173/173/173 176/176/176
f 173/173/173 175/175/175 176/176/176
f 177/177/177 174/174/174 176/176/176
f 178/178/178 175/175/175 168/168/168
f 175/175/175 178/178/178 176/176/176
f 177/177/177 176/176/176 179/179/179
f 176/176/176 178/178/178 179/179/179
f 180/180/180 177/177/177 179/179/179
f 178/178/178 168/168/168 181/181/181
f 167/167/167 181/181/181 168/168/168
f 180/180/180 179/179/179 182/182/182
f 183/183/183 180/180/180 182/182/182
f 178/178/178 184/184/184 179/179/179
f 184/184/184 178/178/178 181/181/181
f 179/179/179 184/184/184 182/182/182
f 167/167/167 185/185/185 181/181/181
f 185/185/185 167/167/167 166/166/166
f 183/183/183 182/182/182 186/186/186
f 165/165/165 183/183/183 186/186/186
f 186/186/186 164/164/164 165/165/165
f 184/184/184 181/181/181 187/187/187
f 185/185/185 187/187/187 181/181/181
f 184/184/184 188/188/188 182/182/182
f 182/182/182 188/188/188 186/186/186
f 188/188/188 184/184/184 187/187/187
f 185/185/185 166/166/166 189/189/189
f 189/189/189 166/166/166 164/164/164
f 164/164/164 186/186/186 190/190/190
f 188/188/188 190/190/190 186/186/186
f 189/189/189 164/164/164 190/190/190
f 191/191/191 185/185/185 189/189/189
f 185/185/185 191/191/191 187/187/187
f 191/191/191 189/189/189 190/190/190
f 192/192/192 190/190/190 188/188/188
f 187/187/187 192/192/192 188/188/188
f 192/192/192 191/191/191 190/190/190
f 191/191/191 192/192/192 187/187/187
f 195/195/195 194/194/194 193/193/193
f 194/194/194 196/196/196 193/193/193
f 193/193/193 196/196/196 197/197/197
f 196/196/196 194/194/194 198/198/198
f 194/194/194 199/199/199 198/198/198
f 199/199/199 200/200/200 198/198/198
f 196/196/196 201/201/201 197/197/197
f 197/197/197 201/201/201 202/202/202
f 196/196/196 198/198/198 203/203/203
f 201/201/201 196/196/196 203/203/203
f 200/200/200 204/204/204 198/198/198
f 198/198/198 204/204/204 203/203/203
f 201/201/201 205/205/205 202/202/202
f 202/202/202 205/205/205 206/206/206
f 201/201/201 203/203/203 207/207/207
f 205/205/205 201/201/201 207/207/207
f 205/205/205 208/208/208 206/206/206
f 206/206/206 208/208/208 209/209/209
f 204/204/204 200/200/200 210/210/210
f 200/200/200 211/211/211 210/210/210
f 211/211/211 212/212/212 210/210/210
f 212/212/212 213/213/213 210/210/210
f 210/210/210 213/213/213 214/214/214
f 204/204/204 210/210/210 214/214/214
f 213/213/213 215/215/215 214/214/214
f 204/204/204 216/216/216 203/203/203
f 216/216/216 204/204/204 214/214/214
f 203/203/203 216/216/216 207/207/207
f 214/214/214 215/215/215 217/217/217
f 216/216/216 214/214/214 217/217/217
f 215/215/215 218/218/218 217/217/217
f 216/216/216 219/219/219 207/207/207
f 219/219/219 216/216/216 217/217/217
f 217/217/217 218/218/218 220/220/220
f 219/219/219 217/217/217 220/220/220
f 218/218/218 221/221/221 220/220/220
f 207/207/207 219/219/219 222/222/222
f 205/205/205 207/207/207 222/222/222
f 208/208/208 205/205/205 222/222/222
f 223/223/223 219/219/219 220/220/220
f 219/219/219 223/223/223 222/222/222
f 220/220/220 221/221/221 224/224/224
f 223/223/223 220/220/220 224/224/224
f 221/221/221 225/225/225 224/224/224
f 208/208/208 222/222/222 226/226/226
f 222/222/222 223/223/223 226/226/226
f 227/227/227 223/223/223 224/224/224
f 223/223/223 227/227/227 226/226/226
f 224/224/224 225/225/225 228/228/228
f 227/227/227 224/224/224 228/228/228
f 225/225/225 229/229/229 228/228/228
f 230/230/230 208/208/208 226/226/226
f 208/208/208 230/230/230 209/209/209
f 209/209/209 230/230/230 231/231/231
f 226/226/226 227/227/227 232/232/232
f 230/230/230 226/226/226 232/232/232
f 230/230/230 233/233/233 231/231/231
f 233/233/233 230/230/230 232/232/232
f 231/231/231 233/233/233 234/234/234
f 235/235/235 227/227/227 228/228/228
f 227/227/227 235/235/235 232/232/232
f 228/228/228 229/229/229 236/236/236
f 235/235/235 228/228/228 236/236/236
f 229/229/229 237/237/237 236/236/236
f 233/233/233 238/238/238 234/234/234
f 234/234/234 238/238/238 239/239/239
f 233/233/233 232/232/232 240/240/240
f 232/232/232 235/235/235 240/240/240
f 238/238/238 233/233/233 240/240/240
f 241/241/241 235/235/235 236/236/236
f 235/235/235 241/241/241 240/240/240
f 236/236/236 237/237/237 242/242/242
f 236/236/236 242/242/242 241/241/241
f 237/237/237 243/243/243 242/242/242
f 238/238/238 244/244/244 239/239/239
f 239/239/239 244/244/244 245/245/245
f 240/240/240 246/246/246 238/238/238
f 240/240/240 241/241/241 246/246/246
f 246/246/246 244/244/244 238/238/238
f 242/242/242 247/247/247 241/241/241
f 241/241/241 247/247/247 246/246/246
f 242/242/242 243/243/243 248/248/248
f 242/242/242 248/248/248 247/247/247
f 243/243/243 249/249/249 248/248/248
f 244/244/244 250/250/250 245/245/245
f 245/245/245 250/250/250 251/251/251
f 246/246/246 252/252/252 244/244/244
f 246/246/246 247/247/247 252/252/252
f 252/252/252 250/250/250 244/244/244
f 248/248/248 253/253/253 247/247/247
f 247/247/247 253/253/253 252/252/252
f 248/248/248 249/249/249 254/254/254
f 248/248/248 254/254/254 253/253/253
f 249/249/249 255/255/255 254/254/254
f 250/250/250 256/256/256 251/251/251
f 251/251/251 256/256/256 257/257/257
f 252/252/252 258/258/258 250/250/250
f 252/252/252 253/253/253 258/258/258
f 258/258/258 256/256/256 250/250/250
f 254/254/254 259/259/259 253/253/253
f 253/253/253 259/259/259 258/258/258
f 254/254/254 255/255/255 260/260/260
f 254/254/254 260/260/260 259/259/259
f 255/255/255 261/261/261 260/260/260
f 256/256/256 262/262/262 257/257/257
f 257/257/257 262/262/262 263/263/263
f 258/258/258 264/264/264 256/256/256
f 258/258/258 259/259/259 264/264/264
f 264/264/264 262/262/262 256/256/256
f 260/260/260 265/265/265 259/259/259
f 259/259/259 265/265/265 264/264/264
f 260/260/260 261/261/261 266/266/266
f 260/260/260 266/266/266 265/265/265
f 261/261/261 267/267/267 266/266/266
f 262/262/262 268/268/268 263/263/263
f 263/263/263 268/268/268 269/269/269
f 268/268/268 270/270/270 269/269/269
f 271/271/271 270/270/270 268/268/268
f 264/264/264 272/272/272 262/262/262
f 272/272/272 268/268/268 262/262/262
f 264/264/264 265/265/265 272/272/272
f 272/272/272 271/271/271 268/268/268
f 265/265/265 273/273/273 272/272/272
f 272/272/272 273/273/273 271/271/271
f 266/266/266 273/273/273 265/265/265
f 273/273/273 274/274/274 271/271/271
f 275/275/275 274/274/274 273/273/273
f 266/266/266 275/275/275 273/273/273
f 266/266/266 267/267/267 275/275/275
f 267/267/267 276/276/276 275/275/275
f 279/279/279 278/278/278 277/277/277
f 278/278/278 280/280/280 277/277/277
f 277/277/277 280/280/280 281/281/281
f 280/280/280 278/278/278 282/282/282
f 278/278/278 283/283/283 282/282/282
f 283/283/283 284/284/284 282/282/282
f 284/284/284 285/285/285 282/282/282
f 282/282/282 285/285/285 286/286/286
f 280/280/280 282/282/282 286/286/286
f 285/285/285 287/287/287 286/286/286
f 280/280/280 288/288/288 281/281/281
f 288/288/288 280/280/280 286/286/286
f 281/281/281 288/288/288 289/289/289
f 286/286/286 287/287/287 290/290/290
f 288/288/288 286/286/286 290/290/290
f 287/287/287 291/291/291 290/290/290
f 288/288/288 292/292/292 289/289/289
f 292/292/292 288/288/288 290/290/290
f 289/289/289 292/292/292 293/293/293
f 290/290/290 291/291/291 294/294/294
f 292/292/292 290/290/290 294/294/294
f 291/291/291 295/295/295 294/294/294
f 292/292/292 296/296/296 293/293/293
f 296/296/296 292/292/292 294/294/294
f 293/293/293 296/296/296 297/297/297
f 294/294/294 295/295/295 298/298/298
f 296/296/296 294/294/294 298/298/298
f 295/295/295 299/299/299 298/298/298
f 296/296/296 300/300/300 297/297/297
f 300/300/300 296/296/296 298/298/298
f 297/297/297 300/300/300 301/301/301
f 298/298/298 299/299/299 302/302/302
f 300/300/300 298/298/298 302/302/302
f 299/299/299 303/303/303 302/302/302
f 300/300/300 304/304/304 301/301/301
f 304/304/304 300/300/300 302/302/302
f 301/301/301 304/304/304 305/305/305
f 302/302/302 303/303/303 306/306/306
f 304/304/304 302/302/302 306/306/306
f 303/303/303 307/307/307 306/306/306
f 304/304/304 308/308/308 305/305/305
f 308/308/308 304/304/304 306/306/306
f 305/305/305 308/308/308 309/309/309
f 306/306/306 307/307/307 310/310/310
f 306/306/306 310/310/310 308/308/308
f 307/307/307 311/311/311 310/310/310
f 308/308/308 312/312/312 309/309/309
f 310/310/310 312/312/312 308/308/308
f 309/309/309 312/312/312 313/313/313
f 310/310/310 311/311/311 314/314/314
f 310/310/310 314/314/314 312/312/312
f 311/311/311 315/315/315 314/314/314
f 312/312/312 316/316/316 313/313/313
f 314/314/314 316/316/316 312/312/312
f 313/313/313 316/316/316 317/317/317
f 314/314/314 315/315/315 318/318/318
f 314/314/314 318/318/318 316/316/316
f 315/315/315 319/319/319 318/318/318
f 316/316/316 320/320/320 317/317/317
f 318/318/318 320/320/320 316/316/316
f 317/317/317 320/320/320 321/321/321
f 318/318/318 319/319/319 322/322/322
f 318/318/318 322/322/322 320/320/320
f 319/319/319 323/323/323 322/322/322
f 320/320/320 324/324/324 321/321/321
f 322/322/322 324/324/324 320/320/320
f 321/321/321 324/324/324 325/325/325
f 322/322/322 323/323/323 326/326/326
f 322/322/322 326/326/326 324/324/324
f 323/323/323 327/327/327 326/326/326
f 324/324/324 328/328/328 325/325/325
f 326/326/326 328/328/328 324/324/324
f 325/325/325 328/328/328 329/329/329
f 328/328/328 330/330/330 329/329/329
f 331/331/331 330/330/330 328/328/328
f 326/326/326 331/331/331 328/328/328
f 326/326/326 327/327/327 331/331/331
f 327/327/327 332/332/332 331/331/331
f 335/335/335 334/334/334 333/333/333
f 336/336/336 335/335/335 333/333/333
f 339/339/339 338/338/338 337/337/337
f 340/340/340 339/339/339 337/337/337
f 340/340/340 337/337/337 341/341/341
f 340/340/340 342/342/342 339/339/339
f 342/342/342 343/343/343 339/339/339
f 342/342/342 340/340/340 344/344/344
f 345/345/345 340/340/340 341/341/341
f 340/340/340 345/345/345 344/344/344
f 345/345/345 341/341/341 346/346/346
f 344/344/344 345/345/345 347/347/347
f 348/348/348 345/345/345 346/346/346
f 345/345/345 348/348/348 347/347/347
f 348/348/348 346/346/346 349/349/349
f 347/347/347 348/348/348 350/350/350
f 351/351/351 348/348/348 349/349/349
f 348/348/348 351/351/351 350/350/350
f 351/351/351 349/349/349 352/352/352
f 350/350/350 351/351/351 353/353/353
f 354/354/354 351/351/351 352/352/352
f 351/351/351 354/354/354 353/353/353
f 354/354/354 352/352/352 355/355/355
f 353/353/353 354/354/354 356/356/356
f 357/357/357 354/354/354 355/355/355
f 354/354/354 357/357/357 356/356/356
f 357/357/357 355/355/355 358/358/358
f 356/356/356 357/357/357 359/359/359
f 360/360/360 357/357/357 358/358/358
f 357/357/357 360/360/360 359/359/359
f 360/360/360 358/358/358 361/361/361
f 359/359/359 360/360/360 362/362/362
f 363/363/363 360/360/360 361/361/361
f 360/360/360 363/363/363 362/362/362
f 363/363/363 361/361/361 364/364/364
f 362/362/362 363/363/363 365/365/365
f 366/366/366 363/363/363 364/364/364
f 363/363/363 366/366/366 365/365/365
f 366/366/366 364/364/364 367/367/367
f 365/365/365 366/366/366 368/368/368
f 369/369/369 366/366/366 367/367/367
f 366/366/366 369/369/369 368/368/368
f 369/369/369 367/367/367 370/370/370
f 368/368/368 369/369/369 371/371/371
f 372/372/372 369/369/369 370/370/370
f 369/369/369 372/372/372 371/371/371
f 372/372/372 370/370/370 373/373/373
f 371/371/371 372/372/372 374/374/374
f 375/375/375 372/372/372 373/373/373
f 372/372/372 375/375/375 374/374/374
f 375/375/375 373/373/373 376/376/376
f 374/374/374 375/375/375 377/377/377
f 378/378/378 375/375/375 376/376/376
f 375/375/375 378/378/378 377/377/377
f 378/378/378 376/376/376 379/379/379
f 377/377/377 378/378/378 380/380/380
f 381/381/381 378/378/378 379/379/379
f 378/378/378 381/381/381 380/380/380
f 381/381/381 379/379/379 382/382/382
f 380/380/380 381/381/381 383/383/383
f 384/384/384 381/381/381 382/382/382
f 381/381/381 384/384/384 383/383/383
f 384/384/384 382/382/382 385/385/385
f 383/383/383 384/384/384 386/386/386
f 387/387/387 384/384/384 385/385/385
f 384/384/384 387/387/387 386/386/386
f 387/387/387 385/385/385 388/388/388
f 386/386/386 387/387/387 389/389/389
f 390/390/390 387/387/387 388/388/388
f 387/387/387 390/390/390 389/389/389
f 390/390/390 388/388/388 391/391/391
f 389/389/389 390/390/390 392/392/392
f 393/393/393 390/390/390 391/391/391
f 390/390/390 393/393/393 392/392/392
f 393/393/393 391/391/391 394/394/394
f 392/392/392 393/393/393 395/395/395
f 396/396/396 393/393/393 394/394/394
f 393/393/393 396/396/396 395/395/395
f 395/395/395 396/396/396 397/397/397
f 396/396/396 398/398/398 397/397/397
f 401/401/401 400/400/400 399/399/399
f 402/402/402 401/401/401 399/399/399
f 405/405/405 404/404/404 403/403/403
f 404/404/404 406/406/406 403/403/403
f 403/403/403 406/406/406 407/407/407
f 408/408/408 406/406/406 404/404/404
f 409/409/409 408/408/408 404/404/404
f 406/406/406 408/408/408 410/410/410
f 406/406/406 411/411/411 407/407/407
f 411/411/411 406/406/406 410/410/410
f 407/407/407 411/411/411 412/412/412
f 411/411/411 410/410/410 413/413/413
f 411/411/411 414/414/414 412/412/412
f 414/414/414 411/411/411 413/413/413
f 412/412/412 414/414/414 415/415/415
f 414/414/414 413/413/413 416/416/416
f 414/414/414 417/417/417 415/415/415
f 417/417/417 414/414/414 416/416/416
f 415/415/415 417/417/417 418/418/418
f 417/417/417 416/416/416 419/419/419
f 417/417/417 420/420/420 418/418/418
f 420/420/420 417/417/417 419/419/419
f 418/418/418 420/420/420 421/421/421
f 420/420/420 419/419/419 422/422/422
f 420/420/420 423/423/423 421/421/421
f 423/423/423 420/420/420 422/422/422
f 421/421/421 423/423/423 424/424/424
f 423/423/423 422/422/422 425/425/425
f 423/423/423 426/426/426 424/424/424
f 426/426/426 423/423/423 425/425/425
f 424/424/424 426/426/426 427/427/427
f 426/426/426 425/425/425 428/428/428
f 426/426/426 429/429/429 427/427/427
f 429/429/429 426/426/426 428/428/428
f 427/427/427 429/429/429 430/430/430
f 429/429/429 428/428/428 431/431/431
f 429/429/429 432/432/432 430/430/430
f 432/432/432 429/429/429 431/431/431
f 430/430/430 432/432/432 433/433/433
f 432/432/432 431/431/431 434/434/434
f 432/432/432 435/435/435 433/433/433
f 435/435/435 432/432/432 434/434/434
f 433/433/433 435/435/435 436/436/436
f 435/435/435 434/434/434 437/437/437
f 435/435/435 438/438/438 436/436/436
f 438/438/438 435/435/435 437/437/437
f 436/436/436 438/438/438 439/439/439
f 438/438/438 437/437/437 440/440/440
f 438/438/438 441/441/441 439/439/439
f 441/441/441 438/438/438 440/440/440
f 439/439/439 441/441/441 442/442/442
f 441/441/441 440/440/440 443/443/443
f 441/441/441 444/444/444 442/442/442
f 444/444/444 441/441/441 443/443/443
f 442/442/442 444/444/444 445/445/445
f 444/444/444 443/443/443 446/446/446
f 444/444/444 447/447/447 445/445/445
f 447/447/447 444/444/444 446/446/446
f 445/445/445 447/447/447 448/448/448
f 447/447/447 446/446/446 449/449/449
f 447/447/447 450/450/450 448/448/448
f 450/450/450 447/447/447 449/449/449
f 448/448/448 450/450/450 451/451/451
f 450/450/450 449/449/449 452/452/452
f 450/450/450 453/453/453 451/451/451
f 453/453/453 450/450/450 452/452/452
f 451/451/451 453/453/453 454/454/454
f 453/453/453 452/452/452 455/455/455
f 453/453/453 456/456/456 454/454/454
f 456/456/456 453/453/453 455/455/455
f 454/454/454 456/456/456 457/457/457
f 456/456/456 455/455/455 458/458/458
f 456/456/456 459/459/459 457/457/457
f 459/459/459 456/456/456 458/458/458
f 457/457/457 459/459/459 460/460/460
f 459/459/459 458/458/458 461/461/461
f 459/459/459 462/462/462 460/460/460
f 462/462/462 459/459/459 461/461/461
f 462/462/462 461/461/461 463/463/463
f 464/464/464 462/462/462 463/463/463
f 467/467/467 466/466/466 465/465/465
f 468/468/468 467/467/467 465/465/465
f 465/465/465 469/469/469 468/468/468
f 466/466/466 467/467/467 470/470/470
f 471/471/471 466/466/466 470/470/470
f 468/468/468 472/472/472 467/467/467
f 467/467/467 472/472/472 470/470/470
f 469/469/469 473/473/473 468/468/468
f 473/473/473 472/472/472 468/468/468
f 470/470/470 472/472/472 474/474/474
f 471/471/471 470/470/470 474/474/474
f 475/475/475 472/472/472 473/473/473
f 469/469/469 476/476/476 473/473/473
f 476/476/476 475/475/475 473/473/473
f 477/477/477 471/471/471 474/474/474
f 476/476/476 478/478/478 475/475/475
f 477/477/477 474/474/474 479/479/479
f 474/474/474 472/472/472 479/479/479
f 480/480/480 477/477/477 479/479/479
f 478/478/478 481/481/481 475/475/475
f 481/481/481 472/472/472 475/475/475
f 478/478/478 482/482/482 481/481/481
f 480/480/480 479/479/479 483/483/483
f 479/479/479 472/472/472 483/483/483
f 484/484/484 480/480/480 483/483/483
f 482/482/482 485/485/485 481/481/481
f 485/485/485 472/472/472 481/481/481
f 482/482/482 486/486/486 485/485/485
f 484/484/484 483/483/483 487/487/487
f 483/483/483 472/472/472 487/487/487
f 488/488/488 484/484/484 487/487/487
f 489/489/489 472/472/472 485/485/485
f 486/486/486 489/489/489 485/485/485
f 487/487/487 472/472/472 490/490/490
f 488/488/488 487/487/487 490/490/490
f 491/491/491 472/472/472 489/489/489
f 486/486/486 492/492/492 489/489/489
f 492/492/492 491/491/491 489/489/489
f 493/493/493 488/488/488 490/490/490
f 492/492/492 494/494/494 491/491/491
f 493/493/493 490/490/490 495/495/495
f 490/490/490 472/472/472 495/495/495
f 496/496/496 493/493/493 495/495/495
f 494/494/494 497/497/497 491/491/491
f 497/497/497 472/472/472 491/491/491
f 494/494/494 498/498/498 497/497/497
f 496/496/496 495/495/495 499/499/499
f 495/495/495 472/472/472 499/499/499
f 500/500/500 496/496/496 499/499/499
f 498/498/498 501/501/501 497/497/497
f 501/501/501 472/472/472 497/497/497
f 498/498/498 502/502/502 501/501/501
f 500/500/500 499/499/499 503/503/503
f 499/499/499 472/472/472 503/503/503
f 504/504/504 500/500/500 503/503/503
f 505/505/505 472/472/472 501/501/501
f 502/502/502 505/505/505 501/501/501
f 503/503/503 472/472/472 505/505/505
f 504/504/504 503/503/503 505/505/505
f 502/502/502 504/504/504 505/505/505
f 508/508/508 507/507/507 506/506/506
f 507/507/507 509/509/509 506/506/506
f 510/510/510 506/506/506 509/509/509
f 507/507/507 508/508/508 511/511/511
f 508/508/508 512/512/512 511/511/511
f 513/513/513 509/509/509 507/507/507
f 513/513/513 507/507/507 511/511/511
f 514/514/514 510/510/510 509/509/509
f 513/513/513 514/514/514 509/509/509
f 513/513/513 511/511/511 515/515/515
f 511/511/511 512/512/512 515/515/515
f 513/513/513 516/516/516 514/514/514
f 517/517/517 510/510/510 514/514/514
f 516/516/516 517/517/517 514/514/514
f 512/512/512 518/518/518 515/515/515
f 519/519/519 517/517/517 516/516/516
f 515/515/515 518/518/518 520/520/520
f 513/513/513 515/515/515 520/520/520
f 518/518/518 521/521/521 520/520/520
f 522/522/522 519/519/519 516/516/516
f 513/513/513 522/522/522 516/516/516
f 523/523/523 519/519/519 522/522/522
f 520/520/520 521/521/521 524/524/524
f 513/513/513 520/520/520 524/524/524
f 521/521/521 525/525/525 524/524/524
f 526/526/526 523/523/523 522/522/522
f 513/513/513 526/526/526 522/522/522
f 527/527/527 523/523/523 526/526/526
f 524/524/524 525/525/525 528/528/528
f 513/513/513 524/524/524 528/528/528
f 525/525/525 529/529/529 528/528/528
f 513/513/513 530/530/530 526/526/526
f 530/530/530 527/527/527 526/526/526
f 513/513/513 528/528/528 531/531/531
f 528/528/528 529/529/529 531/531/531
f 513/513/513 532/532/532 530/530/530
f 533/533/533 527/527/527 530/530/530
f 532/532/532 533/533/533 530/530/530
f 529/529/529 534/534/534 531/531/531
f 535/535/535 533/533/533 532/532/532
f 531/531/531 534/534/534 536/536/536
f 513/513/513 531/531/531 536/536/536
f 534/534/534 537/537/537 536/536/536
f 538/538/538 535/535/535 532/532/532
f 513/513/513 538/538/538 532/532/532
f 539/539/539 535/535/535 538/538/538
f 536/536/536 537/537/537 540/540/540
f 513/513/513 536/536/536 540/540/540
f 537/537/537 541/541/541 540/540/540
f 542/542/542 539/539/539 538/538/538
f 513/513/513 542/542/542 538/538/538
f 543/543/543 539/539/539 542/542/542
f 540/540/540 541/541/541 544/544/544
f 513/513/513 540/540/540 544/544/544
f 541/541/541 545/545/545 544/544/544
f 513/513/513 546/546/546 542/542/542
f 546/546/546 543/543/543 542/542/542
f 513/513/513 544/544/544 546/546/546
f 545/545/545 543/543/543 546/546/546
f 544/544/544 545/545/545 546/546/546
