g Item02_shell
v 0.00992860139 0.109489203 -0.01615027
v 0.0102692291 0.106305377 -0.0169288476
v 0.0110200002 0.106423554 -0.0175788208
v 0.0106411389 0.109951483 -0.0167063968
v 0.0106411389 0.109951483 -0.0167063968
v 0.0110200002 0.106423554 -0.0175788208
v 0.0120071253 0.106479167 -0.0176101029
v 0.011610885 0.110166982 -0.0166959695
v 0.0139257628 0.106305377 -0.0153334588
v 0.0135816594 0.109489203 -0.0145514055
v 0.0135051919 0.109951483 -0.0154551115
v 0.0138875291 0.106423554 -0.0163240597
v 0.0138875291 0.106423554 -0.0163240597
v 0.0135051919 0.109951483 -0.0154551115
v 0.0128413155 0.110166982 -0.0161572216
v 0.0132375559 0.106479167 -0.0170713551
v 0.00903532271 0.111724138 -0.0141030282
v 0.00992860139 0.109489203 -0.01615027
v 0.0106411389 0.109951483 -0.0167063968
v 0.00961578006 0.112520094 -0.0143532853
v 0.00961578006 0.112520094 -0.0143532853
v 0.0106411389 0.109951483 -0.0167063968
v 0.011610885 0.110166982 -0.0166959695
v 0.0105160103 0.11289548 -0.0141933988
v 0.0135816594 0.109489203 -0.0145514055
v 0.0126883807 0.111724138 -0.0125076395
v 0.0124763573 0.112520094 -0.013102
v 0.0135051919 0.109951483 -0.0154551115
v 0.0135051919 0.109951483 -0.0154551115
v 0.0124763573 0.112520094 -0.013102
v 0.0117499167 0.11289548 -0.0136581268
v 0.0128413155 0.110166982 -0.0161572216
v 0.00775970685 0.112575707 -0.0111833625
v 0.00903532271 0.111724138 -0.0141030282
v 0.00961578006 0.112520094 -0.0143532853
v 0.0082011325 0.113468985 -0.0111207982
v 0.0082011325 0.113468985 -0.0111207982
v 0.00961578006 0.112520094 -0.0143532853
v 0.0105160103 0.11289548 -0.0141933988
v 0.00904227429 0.113893032 -0.0108149285
v 0.0126883807 0.111724138 -0.0125076395
v 0.0114162406 0.112575707 -0.00958797372
v 0.0110686613 0.113468985 -0.00986603713
v 0.0124763573 0.112520094 -0.013102
v 0.0124763573 0.112520094 -0.013102
v 0.0110686613 0.113468985 -0.00986603713
v 0.0102692291 0.113893032 -0.0102761806
v 0.0117499167 0.11289548 -0.0136581268
v -0.00362698952 0.109489203 0.024846703
v -0.00396761719 0.106305377 0.0256287563
v -0.00471838837 0.106423554 0.0262752537
v -0.00433952699 0.109951483 0.0254028298
v -0.00433952699 0.109951483 0.0254028298
v -0.00471838837 0.106423554 0.0262752537
v -0.00570898925 0.106479167 0.0263065358
v -0.00530927311 0.110166982 0.0253924024
v -0.00762415094 0.106305377 0.0240298917
v -0.00728352327 0.109489203 0.0232478384
v -0.00720705583 0.109951483 0.0241515445
v -0.00758939301 0.106423554 0.0250204926
v -0.00758939301 0.106423554 0.0250204926
v -0.00720705583 0.109951483 0.0241515445
v -0.00653970367 0.110166982 0.0248536546
v -0.00693941981 0.106479167 0.025767788
v -0.00273371083 0.111724138 0.0227994612
v -0.00362698952 0.109489203 0.024846703
v -0.00433952699 0.109951483 0.0254028298
v -0.00331416819 0.112520094 0.0230497182
v -0.00331416819 0.112520094 0.0230497182
v -0.00433952699 0.109951483 0.0254028298
v -0.00530927311 0.110166982 0.0253924024
v -0.00421787425 0.11289548 0.0228933076
v -0.00728352327 0.109489203 0.0232478384
v -0.00638676879 0.111724138 0.0212040724
v -0.00617822124 0.112520094 0.0217984329
v -0.00720705583 0.109951483 0.0241515445
v -0.00720705583 0.109951483 0.0241515445
v -0.00617822124 0.112520094 0.0217984329
v -0.00544830481 0.11289548 0.0223545597
v -0.00653970367 0.110166982 0.0248536546
v -0.00145809497 0.112575707 0.0198832712
v -0.00273371083 0.111724138 0.0227994612
v -0.00331416819 0.112520094 0.0230497182
v -0.00189952062 0.113468985 0.0198172312
v -0.00189952062 0.113468985 0.0198172312
v -0.00331416819 0.112520094 0.0230497182
v -0.00421787425 0.11289548 0.0228933076
v -0.00274066242 0.113893032 0.0195113614
v -0.00638676879 0.111724138 0.0212040724
v -0.00511462872 0.112575707 0.0182844067
v -0.00476704947 0.113468985 0.0185659459
v -0.00617822124 0.112520094 0.0217984329
v -0.00617822124 0.112520094 0.0217984329
v -0.00476704947 0.113468985 0.0185659459
v -0.00397109298 0.113893032 0.0189726136
v -0.00544830481 0.11289548 0.0223545597
v 0.0135816594 -0.109489203 -0.0145514055
v 0.0139257628 -0.106305377 -0.0153334588
v 0.0138875291 -0.106423554 -0.0163240597
v 0.0135051919 -0.109951483 -0.0154551115
v 0.0135051919 -0.109951483 -0.0154551115
v 0.0138875291 -0.106423554 -0.0163240597
v 0.0132375559 -0.106479167 -0.0170713551
v 0.0128413155 -0.110166982 -0.0161572216
v 0.0102692291 -0.106305377 -0.0169288476
v 0.00992860139 -0.109489203 -0.01615027
v 0.0106411389 -0.109951483 -0.0167063968
v 0.0110200002 -0.106423554 -0.0175788208
v 0.0110200002 -0.106423554 -0.0175788208
v 0.0106411389 -0.109951483 -0.0167063968
v 0.011610885 -0.110166982 -0.0166959695
v 0.0120071253 -0.106479167 -0.0176101029
v 0.0126883807 -0.111724138 -0.0125076395
v 0.0135816594 -0.109489203 -0.0145514055
v 0.0135051919 -0.109951483 -0.0154551115
v 0.0124763573 -0.112520094 -0.013102
v 0.0124763573 -0.112520094 -0.013102
v 0.0135051919 -0.109951483 -0.0154551115
v 0.0128413155 -0.110166982 -0.0161572216
v 0.0117499167 -0.11289548 -0.0136581268
v 0.00992860139 -0.109489203 -0.01615027
v 0.00903532271 -0.111724138 -0.0141030282
v 0.00961578006 -0.112520094 -0.0143532853
v 0.0106411389 -0.109951483 -0.0167063968
v 0.0106411389 -0.109951483 -0.0167063968
v 0.00961578006 -0.112520094 -0.0143532853
v 0.0105160103 -0.11289548 -0.0141933988
v 0.011610885 -0.110166982 -0.0166959695
v 0.0114162406 -0.112575707 -0.00958797372
v 0.0126883807 -0.111724138 -0.0125076395
v 0.0124763573 -0.112520094 -0.013102
v 0.0110686613 -0.113468985 -0.00986603713
v 0.0110686613 -0.113468985 -0.00986603713
v 0.0124763573 -0.112520094 -0.013102
v 0.0117499167 -0.11289548 -0.0136581268
v 0.0102727049 -0.113893032 -0.0102761806
v 0.00903532271 -0.111724138 -0.0141030282
v 0.00775970685 -0.112575707 -0.0111833625
v 0.0082011325 -0.113468985 -0.0111207982
v 0.00961578006 -0.112520094 -0.0143532853
v 0.00961578006 -0.112520094 -0.0143532853
v 0.0082011325 -0.113468985 -0.0111207982
v 0.00904227429 -0.113893032 -0.0108149285
v 0.0105160103 -0.11289548 -0.0141933988
v -0.00728352327 -0.109489203 0.0232478384
v -0.00762415094 -0.106305377 0.0240298917
v -0.00758939301 -0.106423554 0.0250204926
v -0.00720705583 -0.109951483 0.0241515445
v -0.00720705583 -0.109951483 0.0241515445
v -0.00758939301 -0.106423554 0.0250204926
v -0.00693941981 -0.106479167 0.025767788
v -0.00653970367 -0.110166982 0.0248536546
v -0.00396761719 -0.106305377 0.0256287563
v -0.00362698952 -0.109489203 0.024846703
v -0.00433952699 -0.109951483 0.0254028298
v -0.00471838837 -0.106423554 0.0262752537
v -0.00471838837 -0.106423554 0.0262752537
v -0.00433952699 -0.109951483 0.0254028298
v -0.00530927311 -0.110166982 0.0253924024
v -0.00570898925 -0.106479167 0.0263065358
v -0.00638676879 -0.111724138 0.0212040724
v -0.00728352327 -0.109489203 0.0232478384
v -0.00720705583 -0.109951483 0.0241515445
v -0.00617822124 -0.112520094 0.0217984329
v -0.00617822124 -0.112520094 0.0217984329
v -0.00720705583 -0.109951483 0.0241515445
v -0.00653970367 -0.110166982 0.0248536546
v -0.00544830481 -0.11289548 0.0223545597
v -0.00362698952 -0.109489203 0.024846703
v -0.00273371083 -0.111724138 0.0227994612
v -0.00331416819 -0.112520094 0.0230497182
v -0.00433952699 -0.109951483 0.0254028298
v -0.00433952699 -0.109951483 0.0254028298
v -0.00331416819 -0.112520094 0.0230497182
v -0.00421787425 -0.11289548 0.0228933076
v -0.00530927311 -0.110166982 0.0253924024
v -0.00511462872 -0.112575707 0.0182844067
v -0.00638676879 -0.111724138 0.0212040724
v -0.00617822124 -0.112520094 0.0217984329
v -0.00476704947 -0.113468985 0.0185659459
v -0.00476704947 -0.113468985 0.0185659459
v -0.00617822124 -0.112520094 0.0217984329
v -0.00544830481 -0.11289548 0.0223545597
v -0.00397109298 -0.113893032 0.0189726136
v -0.00273371083 -0.111724138 0.0227994612
v -0.00145809497 -0.112575707 0.0198832712
v -0.00189952062 -0.113468985 0.0198172312
v -0.00331416819 -0.112520094 0.0230497182
v -0.00331416819 -0.112520094 0.0230497182
v -0.00189952062 -0.113468985 0.0198172312
v -0.00274066242 -0.113893032 0.0195113614
v -0.00421787425 -0.11289548 0.0228933076
v 0.0139257628 -0.106305377 -0.0153334588
v 0.0139257628 0.106305377 -0.0153334588
v 0.0138875291 0.106423554 -0.0163240597
v 0.0138875291 -0.106423554 -0.0163240597
v 0.0138875291 -0.106423554 -0.0163240597
v 0.0138875291 0.106423554 -0.0163240597
v 0.0132375559 0.106479167 -0.0170713551
v 0.0132375559 -0.106479167 -0.0170713551
v 0.0102692291 0.106305377 -0.0169288476
v 0.0102692291 -0.106305377 -0.0169288476
v 0.0110200002 -0.106423554 -0.0175788208
v 0.0110200002 0.106423554 -0.0175788208
v 0.0110200002 0.106423554 -0.0175788208
v 0.0110200002 -0.106423554 -0.0175788208
v 0.0120071253 -0.106479167 -0.0176101029
v 0.0120071253 0.106479167 -0.0176101029
v 0.0102727049 -0.113893032 -0.0102761806
v -0.00274066242 -0.113893032 0.0195113614
v -0.00189952062 -0.113468985 0.0198172312
v 0.0110686613 -0.113468985 -0.00986603713
v 0.0110686613 -0.113468985 -0.00986603713
v -0.00189952062 -0.113468985 0.0198172312
v -0.00145809497 -0.112575707 0.0198832712
v 0.0114162406 -0.112575707 -0.00958797372
v -0.00570898925 -0.106479167 0.0263065358
v -0.00570898925 0.106479167 0.0263065358
v -0.00471838837 0.106423554 0.0262752537
v -0.00471838837 -0.106423554 0.0262752537
v -0.00471838837 -0.106423554 0.0262752537
v -0.00471838837 0.106423554 0.0262752537
v -0.00396761719 0.106305377 0.0256287563
v -0.00396761719 -0.106305377 0.0256287563
v -0.00274066242 0.113893032 0.0195113614
v 0.0102692291 0.113893032 -0.0102761806
v 0.0110686613 0.113468985 -0.00986603713
v -0.00189952062 0.113468985 0.0198172312
v -0.00189952062 0.113468985 0.0198172312
v 0.0110686613 0.113468985 -0.00986603713
v 0.0114162406 0.112575707 -0.00958797372
v -0.00145809497 0.112575707 0.0198832712
v 0.00775970685 -0.112575707 -0.0111833625
v -0.00511462872 -0.112575707 0.0182844067
v -0.00476704947 -0.113468985 0.0185659459
v 0.0082011325 -0.113468985 -0.0111207982
v 0.0082011325 -0.113468985 -0.0111207982
v -0.00476704947 -0.113468985 0.0185659459
v -0.00397109298 -0.113893032 0.0189726136
v 0.00904227429 -0.113893032 -0.0108149285
v -0.00762415094 -0.106305377 0.0240298917
v -0.00762415094 0.106305377 0.0240298917
v -0.00758939301 0.106423554 0.0250204926
v -0.00758939301 -0.106423554 0.0250204926
v -0.00758939301 -0.106423554 0.0250204926
v -0.00758939301 0.106423554 0.0250204926
v -0.00693941981 0.106479167 0.025767788
v -0.00693941981 -0.106479167 0.025767788
v -0.00511462872 0.112575707 0.0182844067
v 0.00775970685 0.112575707 -0.0111833625
v 0.0082011325 0.113468985 -0.0111207982
v -0.00476704947 0.113468985 0.0185659459
v -0.00476704947 0.113468985 0.0185659459
v 0.0082011325 0.113468985 -0.0111207982
v 0.00904227429 0.113893032 -0.0108149285
v -0.00397109298 0.113893032 0.0189726136
v 0.0126883807 -0.111724138 -0.0125076395
v 0.0114162406 -0.112575707 -0.00958797372
v -0.00145809497 -0.112575707 0.0198832712
v -0.00273371083 -0.111724138 0.0227994612
v 0.0135816594 -0.109489203 -0.0145514055
v -0.00362698952 -0.109489203 0.024846703
v 0.0139257628 -0.106305377 -0.0153334588
v -0.00396761719 -0.106305377 0.0256287563
v -0.00396761719 0.106305377 0.0256287563
v 0.0139257628 0.106305377 -0.0153334588
v 0.0135816594 0.109489203 -0.0145514055
v -0.00362698952 0.109489203 0.024846703
v 0.0126883807 0.111724138 -0.0125076395
v -0.00273371083 0.111724138 0.0227994612
v 0.0114162406 0.112575707 -0.00958797372
v -0.00145809497 0.112575707 0.0198832712
v 0.0132375559 -0.106479167 -0.0170713551
v 0.0120071253 -0.106479167 -0.0176101029
v 0.011610885 -0.110166982 -0.0166959695
v 0.0128413155 -0.110166982 -0.0161572216
v 0.0132375559 0.106479167 -0.0170713551
v 0.0120071253 0.106479167 -0.0176101029
v 0.0120071253 -0.106479167 -0.0176101029
v 0.0132375559 -0.106479167 -0.0170713551
v 0.0117499167 -0.11289548 -0.0136581268
v 0.0105160103 -0.11289548 -0.0141933988
v 0.00904227429 -0.113893032 -0.0108149285
v 0.0102727049 -0.113893032 -0.0102761806
v 0.00904227429 -0.113893032 -0.0108149285
v -0.00397109298 -0.113893032 0.0189726136
v -0.00274066242 -0.113893032 0.0195113614
v 0.0102727049 -0.113893032 -0.0102761806
v 0.0128413155 -0.110166982 -0.0161572216
v 0.011610885 -0.110166982 -0.0166959695
v 0.0105160103 -0.11289548 -0.0141933988
v 0.0117499167 -0.11289548 -0.0136581268
v -0.00544830481 -0.11289548 0.0223545597
v -0.00421787425 -0.11289548 0.0228933076
v -0.00274066242 -0.113893032 0.0195113614
v -0.00397109298 -0.113893032 0.0189726136
v -0.00693941981 0.106479167 0.025767788
v -0.00570898925 0.106479167 0.0263065358
v -0.00570898925 -0.106479167 0.0263065358
v -0.00693941981 -0.106479167 0.025767788
v -0.00693941981 -0.106479167 0.025767788
v -0.00570898925 -0.106479167 0.0263065358
v -0.00530927311 -0.110166982 0.0253924024
v -0.00653970367 -0.110166982 0.0248536546
v -0.00653970367 -0.110166982 0.0248536546
v -0.00530927311 -0.110166982 0.0253924024
v -0.00421787425 -0.11289548 0.0228933076
v -0.00544830481 -0.11289548 0.0223545597
v 0.0105160103 0.11289548 -0.0141933988
v 0.0117499167 0.11289548 -0.0136581268
v 0.0102692291 0.113893032 -0.0102761806
v 0.00904227429 0.113893032 -0.0108149285
v 0.0102692291 0.113893032 -0.0102761806
v -0.00274066242 0.113893032 0.0195113614
v -0.00397109298 0.113893032 0.0189726136
v 0.00904227429 0.113893032 -0.0108149285
v 0.0120071253 0.106479167 -0.0176101029
v 0.0132375559 0.106479167 -0.0170713551
v 0.0128413155 0.110166982 -0.0161572216
v 0.011610885 0.110166982 -0.0166959695
v 0.011610885 0.110166982 -0.0166959695
v 0.0128413155 0.110166982 -0.0161572216
v 0.0117499167 0.11289548 -0.0136581268
v 0.0105160103 0.11289548 -0.0141933988
v -0.00570898925 0.106479167 0.0263065358
v -0.00693941981 0.106479167 0.025767788
v -0.00653970367 0.110166982 0.0248536546
v -0.00530927311 0.110166982 0.0253924024
v -0.00421787425 0.11289548 0.0228933076
v -0.00544830481 0.11289548 0.0223545597
v -0.00397109298 0.113893032 0.0189726136
v -0.00274066242 0.113893032 0.0195113614
v -0.00530927311 0.110166982 0.0253924024
v -0.00653970367 0.110166982 0.0248536546
v -0.00544830481 0.11289548 0.0223545597
v -0.00421787425 0.11289548 0.0228933076
v 0.00903532271 0.111724138 -0.0141030282
v 0.00775970685 0.112575707 -0.0111833625
v -0.00511462872 0.112575707 0.0182844067
v -0.00638676879 0.111724138 0.0212040724
v 0.00992860139 0.109489203 -0.01615027
v -0.00728352327 0.109489203 0.0232478384
v 0.0102692291 0.106305377 -0.0169288476
v -0.00762415094 0.106305377 0.0240298917
v -0.00762415094 -0.106305377 0.0240298917
v 0.0102692291 -0.106305377 -0.0169288476
v 0.00992860139 -0.109489203 -0.01615027
v -0.00728352327 -0.109489203 0.0232478384
v 0.00903532271 -0.111724138 -0.0141030282
v -0.00638676879 -0.111724138 0.0212040724
v 0.00775970685 -0.112575707 -0.0111833625
v -0.00511462872 -0.112575707 0.0182844067
vt 0.980481088 0.0454116399
vt 0.966801911 0.0273355848
vt 0.967290453 0.00877098759
vt 0.982923798 0.0288012109
vt 0.982923798 0.0288012109
vt 0.967290453 0.00877098759
vt 0.967290453 -2.27689743E-05
vt 0.98341234 0.0209845384
vt 0.966801911 0.0288012109
vt 0.980481088 0.046877266
vt 0.982923798 0.0297782949
vt 0.967290453 0.00974807165
vt 0.967290453 0.00974807165
vt 0.982923798 0.0297782949
vt 0.98341234 0.0214730804
vt 0.967290453 0.000465773057
vt 0.990251928 0.0923116749
vt 0.980481088 0.0454116399
vt 0.982923798 0.0288012109
vt 0.994160265 0.0830293763
vt 0.994160265 0.0830293763
vt 0.982923798 0.0288012109
vt 0.98341234 0.0209845384
vt 0.995625891 0.0786324981
vt 0.980481088 0.046877266
vt 0.990251928 0.093777301
vt 0.994160265 0.0840064604
vt 0.982923798 0.0297782949
vt 0.982923798 0.0297782949
vt 0.994160265 0.0840064604
vt 0.995625891 0.0791210401
vt 0.98341234 0.0214730804
vt 0.994160265 0.159730475
vt 0.990251928 0.0923116749
vt 0.994160265 0.0830293763
vt 0.998068601 0.157287765
vt 0.998068601 0.157287765
vt 0.994160265 0.0830293763
vt 0.995625891 0.0786324981
vt 1.00002277 0.156799223
vt 0.990251928 0.093777301
vt 0.994160265 0.161196101
vt 0.998068601 0.158264849
vt 0.994160265 0.0840064604
vt 0.994160265 0.0840064604
vt 0.998068601 0.158264849
vt 1.00002277 0.156799223
vt 0.995625891 0.0791210401
vt 0.980481088 0.95458836
vt 0.966801911 0.972664415
vt 0.967290453 0.991229012
vt 0.982923798 0.971198789
vt 0.982923798 0.971198789
vt 0.967290453 0.991229012
vt 0.967290453 1.00002277
vt 0.98341234 0.979015462
vt 0.966801911 0.971198789
vt 0.980481088 0.953122734
vt 0.982923798 0.970221705
vt 0.967290453 0.990251928
vt 0.967290453 0.990251928
vt 0.982923798 0.970221705
vt 0.98341234 0.97852692
vt 0.967290453 0.999534227
vt 0.990251928 0.907688325
vt 0.980481088 0.95458836
vt 0.982923798 0.971198789
vt 0.994160265 0.916970624
vt 0.994160265 0.916970624
vt 0.982923798 0.971198789
vt 0.98341234 0.979015462
vt 0.995625891 0.921367502
vt 0.980481088 0.953122734
vt 0.990251928 0.906222699
vt 0.994160265 0.91599354
vt 0.982923798 0.970221705
vt 0.982923798 0.970221705
vt 0.994160265 0.91599354
vt 0.995625891 0.92087896
vt 0.98341234 0.97852692
vt 0.994160265 0.840269525
vt 0.990251928 0.907688325
vt 0.994160265 0.916970624
vt 0.998068601 0.842712235
vt 0.998068601 0.842712235
vt 0.994160265 0.916970624
vt 0.995625891 0.921367502
vt 1.00002277 0.843200777
vt 0.990251928 0.906222699
vt 0.994160265 0.838803899
vt 0.998068601 0.841735151
vt 0.994160265 0.91599354
vt 0.994160265 0.91599354
vt 0.998068601 0.841735151
vt 1.00002277 0.843200777
vt 0.995625891 0.92087896
vt 0.0195189123 0.046877266
vt 0.0331980892 0.0288012109
vt 0.0327095471 0.00974807165
vt 0.0170762021 0.0297782949
vt 0.0170762021 0.0297782949
vt 0.0327095471 0.00974807165
vt 0.0327095471 0.000465773057
vt 0.0165876601 0.0214730804
vt 0.0331980892 0.0273355848
vt 0.0195189123 0.0454116399
vt 0.0170762021 0.0288012109
vt 0.0327095471 0.00877098759
vt 0.0327095471 0.00877098759
vt 0.0170762021 0.0288012109
vt 0.0165876601 0.0209845384
vt 0.0327095471 -2.27689743E-05
vt 0.00974807165 0.093777301
vt 0.0195189123 0.046877266
vt 0.0170762021 0.0297782949
vt 0.0058397354 0.0840064604
vt 0.0058397354 0.0840064604
vt 0.0170762021 0.0297782949
vt 0.0165876601 0.0214730804
vt 0.00437410931 0.0791210401
vt 0.0195189123 0.0454116399
vt 0.00974807165 0.0923116749
vt 0.0058397354 0.0830293763
vt 0.0170762021 0.0288012109
vt 0.0170762021 0.0288012109
vt 0.0058397354 0.0830293763
vt 0.00437410931 0.0786324981
vt 0.0165876601 0.0209845384
vt 0.0058397354 0.161196101
vt 0.00974807165 0.093777301
vt 0.0058397354 0.0840064604
vt 0.00193139915 0.158264849
vt 0.00193139915 0.158264849
vt 0.0058397354 0.0840064604
vt 0.00437410931 0.0791210401
vt -2.27689743E-05 0.156799223
vt 0.00974807165 0.0923116749
vt 0.0058397354 0.159730475
vt 0.00193139915 0.157287765
vt 0.0058397354 0.0830293763
vt 0.0058397354 0.0830293763
vt 0.00193139915 0.157287765
vt -2.27689743E-05 0.156799223
vt 0.00437410931 0.0786324981
vt 0.0195189123 0.953122734
vt 0.0331980892 0.971198789
vt 0.0327095471 0.990251928
vt 0.0170762021 0.970221705
vt 0.0170762021 0.970221705
vt 0.0327095471 0.990251928
vt 0.0327095471 0.999534227
vt 0.0165876601 0.97852692
vt 0.0331980892 0.972664415
vt 0.0195189123 0.95458836
vt 0.0170762021 0.971198789
vt 0.0327095471 0.991229012
vt 0.0327095471 0.991229012
vt 0.0170762021 0.971198789
vt 0.0165876601 0.979015462
vt 0.0327095471 1.00002277
vt 0.00974807165 0.906222699
vt 0.0195189123 0.953122734
vt 0.0170762021 0.970221705
vt 0.0058397354 0.91599354
vt 0.0058397354 0.91599354
vt 0.0170762021 0.970221705
vt 0.0165876601 0.97852692
vt 0.00437410931 0.92087896
vt 0.0195189123 0.95458836
vt 0.00974807165 0.907688325
vt 0.0058397354 0.916970624
vt 0.0170762021 0.971198789
vt 0.0170762021 0.971198789
vt 0.0058397354 0.916970624
vt 0.00437410931 0.921367502
vt 0.0165876601 0.979015462
vt 0.0058397354 0.838803899
vt 0.00974807165 0.906222699
vt 0.0058397354 0.91599354
vt 0.00193139915 0.841735151
vt 0.00193139915 0.841735151
vt 0.0058397354 0.91599354
vt 0.00437410931 0.92087896
vt -2.27689743E-05 0.843200777
vt 0.00974807165 0.907688325
vt 0.0058397354 0.840269525
vt 0.00193139915 0.842712235
vt 0.0058397354 0.916970624
vt 0.0058397354 0.916970624
vt 0.00193139915 0.842712235
vt -2.27689743E-05 0.843200777
vt 0.00437410931 0.921367502
vt 0.0331980892 0.0288012109
vt 0.966801911 0.0288012109
vt 0.967290453 0.00974807165
vt 0.0327095471 0.00974807165
vt 0.0327095471 0.00974807165
vt 0.967290453 0.00974807165
vt 0.967290453 0.000465773057
vt 0.0327095471 0.000465773057
vt 0.966801911 0.0273355848
vt 0.0331980892 0.0273355848
vt 0.0327095471 0.00877098759
vt 0.967290453 0.00877098759
vt 0.967290453 0.00877098759
vt 0.0327095471 0.00877098759
vt 0.0327095471 -2.27689743E-05
vt 0.967290453 -2.27689743E-05
vt -2.27689743E-05 0.156799223
vt -2.27689743E-05 0.843200777
vt 0.00193139915 0.842712235
vt 0.00193139915 0.158264849
vt 0.00193139915 0.158264849
vt 0.00193139915 0.842712235
vt 0.0058397354 0.840269525
vt 0.0058397354 0.161196101
vt 0.0327095471 1.00002277
vt 0.967290453 1.00002277
vt 0.967290453 0.991229012
vt 0.0327095471 0.991229012
vt 0.0327095471 0.991229012
vt 0.967290453 0.991229012
vt 0.966801911 0.972664415
vt 0.0331980892 0.972664415
vt 1.00002277 0.843200777
vt 1.00002277 0.156799223
vt 0.998068601 0.158264849
vt 0.998068601 0.842712235
vt 0.998068601 0.842712235
vt 0.998068601 0.158264849
vt 0.994160265 0.161196101
vt 0.994160265 0.840269525
vt 0.0058397354 0.159730475
vt 0.0058397354 0.838803899
vt 0.00193139915 0.841735151
vt 0.00193139915 0.157287765
vt 0.00193139915 0.157287765
vt 0.00193139915 0.841735151
vt -2.27689743E-05 0.843200777
vt -2.27689743E-05 0.156799223
vt 0.0331980892 0.971198789
vt 0.966801911 0.971198789
vt 0.967290453 0.990251928
vt 0.0327095471 0.990251928
vt 0.0327095471 0.990251928
vt 0.967290453 0.990251928
vt 0.967290453 0.999534227
vt 0.0327095471 0.999534227
vt 0.994160265 0.838803899
vt 0.994160265 0.159730475
vt 0.998068601 0.157287765
vt 0.998068601 0.841735151
vt 0.998068601 0.841735151
vt 0.998068601 0.157287765
vt 1.00002277 0.156799223
vt 1.00002277 0.843200777
vt 0.00974807165 0.093777301
vt 0.0058397354 0.161196101
vt 0.0058397354 0.840269525
vt 0.00974807165 0.907688325
vt 0.0195189123 0.046877266
vt 0.0195189123 0.95458836
vt 0.0331980892 0.0288012109
vt 0.0331980892 0.972664415
vt 0.966801911 0.972664415
vt 0.966801911 0.0288012109
vt 0.980481088 0.046877266
vt 0.980481088 0.95458836
vt 0.990251928 0.093777301
vt 0.990251928 0.907688325
vt 0.994160265 0.161196101
vt 0.994160265 0.840269525
vt 0.0327095471 0.000465773057
vt 0.0327095471 -2.27689743E-05
vt 0.0165876601 0.0209845384
vt 0.0165876601 0.0214730804
vt 0.967290453 0.000465773057
vt 0.967290453 -2.27689743E-05
vt 0.0327095471 -2.27689743E-05
vt 0.0327095471 0.000465773057
vt 0.00437410931 0.0791210401
vt 0.00437410931 0.0786324981
vt -2.27689743E-05 0.156799223
vt -2.27689743E-05 0.156799223
vt -2.27689743E-05 0.156799223
vt -2.27689743E-05 0.843200777
vt -2.27689743E-05 0.843200777
vt -2.27689743E-05 0.156799223
vt 0.0165876601 0.0214730804
vt 0.0165876601 0.0209845384
vt 0.00437410931 0.0786324981
vt 0.00437410931 0.0791210401
vt 0.00437410931 0.92087896
vt 0.00437410931 0.921367502
vt -2.27689743E-05 0.843200777
vt -2.27689743E-05 0.843200777
vt 0.967290453 0.999534227
vt 0.967290453 1.00002277
vt 0.0327095471 1.00002277
vt 0.0327095471 0.999534227
vt 0.0327095471 0.999534227
vt 0.0327095471 1.00002277
vt 0.0165876601 0.979015462
vt 0.0165876601 0.97852692
vt 0.0165876601 0.97852692
vt 0.0165876601 0.979015462
vt 0.00437410931 0.921367502
vt 0.00437410931 0.92087896
vt 0.995625891 0.0786324981
vt 0.995625891 0.0791210401
vt 1.00002277 0.156799223
vt 1.00002277 0.156799223
vt 1.00002277 0.156799223
vt 1.00002277 0.843200777
vt 1.00002277 0.843200777
vt 1.00002277 0.156799223
vt 0.967290453 -2.27689743E-05
vt 0.967290453 0.000465773057
vt 0.98341234 0.0214730804
vt 0.98341234 0.0209845384
vt 0.98341234 0.0209845384
vt 0.98341234 0.0214730804
vt 0.995625891 0.0791210401
vt 0.995625891 0.0786324981
vt 0.967290453 1.00002277
vt 0.967290453 0.999534227
vt 0.98341234 0.97852692
vt 0.98341234 0.979015462
vt 0.995625891 0.921367502
vt 0.995625891 0.92087896
vt 1.00002277 0.843200777
vt 1.00002277 0.843200777
vt 0.98341234 0.979015462
vt 0.98341234 0.97852692
vt 0.995625891 0.92087896
vt 0.995625891 0.921367502
vt 0.990251928 0.0923116749
vt 0.994160265 0.159730475
vt 0.994160265 0.838803899
vt 0.990251928 0.906222699
vt 0.980481088 0.0454116399
vt 0.980481088 0.953122734
vt 0.966801911 0.0273355848
vt 0.966801911 0.971198789
vt 0.0331980892 0.971198789
vt 0.0331980892 0.0273355848
vt 0.0195189123 0.0454116399
vt 0.0195189123 0.953122734
vt 0.00974807165 0.0923116749
vt 0.00974807165 0.906222699
vt 0.0058397354 0.159730475
vt 0.0058397354 0.838803899
vn -0.654896964 0.113724623 -0.747112225
vn -0.654896964 0.113724623 -0.747112225
vn -0.654896964 0.113724623 -0.747112225
vn -0.654896964 0.113724623 -0.747112225
vn -0.0431369258 0.239213861 -0.970008213
vn -0.0431369258 0.239213861 -0.970008213
vn -0.0431369258 0.239213861 -0.970008213
vn -0.0431369258 0.239213861 -0.970008213
vn 0.992149293 0.113724623 -0.0520239392
vn 0.992149293 0.113724623 -0.0520239392
vn 0.992149293 0.113724623 -0.0520239392
vn 0.992149293 0.113724623 -0.0520239392
vn 0.741170816 0.239213861 -0.62724999
vn 0.741170816 0.239213861 -0.62724999
vn 0.741170816 0.239213861 -0.62724999
vn 0.741170816 0.239213861 -0.62724999
vn -0.701955429 0.309801558 -0.641312382
vn -0.701955429 0.309801558 -0.641312382
vn -0.701955429 0.309801558 -0.641312382
vn -0.701955429 0.309801558 -0.641312382
vn -0.137253855 0.639210809 -0.756684162
vn -0.137253855 0.639210809 -0.756684162
vn -0.137253855 0.639210809 -0.756684162
vn -0.137253855 0.639210809 -0.756684162
vn 0.945090829 0.309801558 0.104049605
vn 0.945090829 0.309801558 0.104049605
vn 0.945090829 0.309801558 0.104049605
vn 0.945090829 0.309801558 0.104049605
vn 0.647053887 0.639210809 -0.415608961
vn 0.647053887 0.639210809 -0.415608961
vn 0.647053887 0.639210809 -0.415608961
vn 0.647053887 0.639210809 -0.415608961
vn -0.780386203 0.419604642 -0.463604701
vn -0.780386203 0.419604642 -0.463604701
vn -0.780386203 0.419604642 -0.463604701
vn -0.780386203 0.419604642 -0.463604701
vn -0.301958481 0.874503132 -0.379559413
vn -0.301958481 0.874503132 -0.379559413
vn -0.301958481 0.874503132 -0.379559413
vn -0.301958481 0.874503132 -0.379559413
vn 0.866660055 0.419604642 0.26987459
vn 0.866660055 0.419604642 0.26987459
vn 0.866660055 0.419604642 0.26987459
vn 0.866660055 0.419604642 0.26987459
vn 0.488960668 0.872305832 -0
vn 0.488960668 0.872305832 -0
vn 0.488960668 0.872305832 -0
vn 0.488960668 0.872305832 -0
vn 0.654896964 0.113724623 0.747112225
vn 0.654896964 0.113724623 0.747112225
vn 0.654896964 0.113724623 0.747112225
vn 0.654896964 0.113724623 0.747112225
vn 0.0431369258 0.239213861 0.970008213
vn 0.0431369258 0.239213861 0.970008213
vn 0.0431369258 0.239213861 0.970008213
vn 0.0431369258 0.239213861 0.970008213
vn -0.992149293 0.113724623 0.0520239392
vn -0.992149293 0.113724623 0.0520239392
vn -0.992149293 0.113724623 0.0520239392
vn -0.992149293 0.113724623 0.0520239392
vn -0.741170816 0.239213861 0.62724999
vn -0.741170816 0.239213861 0.62724999
vn -0.741170816 0.239213861 0.62724999
vn -0.741170816 0.239213861 0.62724999
vn 0.701955429 0.309801558 0.641312382
vn 0.701955429 0.309801558 0.641312382
vn 0.701955429 0.309801558 0.641312382
vn 0.701955429 0.309801558 0.641312382
vn 0.137253855 0.639210809 0.756684162
vn 0.137253855 0.639210809 0.756684162
vn 0.137253855 0.639210809 0.756684162
vn 0.137253855 0.639210809 0.756684162
vn -0.945090829 0.309801558 -0.104049605
vn -0.945090829 0.309801558 -0.104049605
vn -0.945090829 0.309801558 -0.104049605
vn -0.945090829 0.309801558 -0.104049605
vn -0.647053887 0.639210809 0.415608961
vn -0.647053887 0.639210809 0.415608961
vn -0.647053887 0.639210809 0.415608961
vn -0.647053887 0.639210809 0.415608961
vn 0.780386203 0.419604642 0.463604701
vn 0.780386203 0.419604642 0.463604701
vn 0.780386203 0.419604642 0.463604701
vn 0.780386203 0.419604642 0.463604701
vn 0.301958481 0.874503132 0.379559413
vn 0.301958481 0.874503132 0.379559413
vn 0.301958481 0.874503132 0.379559413
vn 0.301958481 0.874503132 0.379559413
vn -0.866660055 0.419604642 -0.26987459
vn -0.866660055 0.419604642 -0.26987459
vn -0.866660055 0.419604642 -0.26987459
vn -0.866660055 0.419604642 -0.26987459
vn -0.488960668 0.872305832 -0
vn -0.488960668 0.872305832 -0
vn -0.488960668 0.872305832 -0
vn -0.488960668 0.872305832 -0
vn 0.992149293 -0.113724623 -0.0520239392
vn 0.992149293 -0.113724623 -0.0520239392
vn 0.992149293 -0.113724623 -0.0520239392
vn 0.992149293 -0.113724623 -0.0520239392
vn 0.741170816 -0.239213861 -0.62724999
vn 0.741170816 -0.239213861 -0.62724999
vn 0.741170816 -0.239213861 -0.62724999
vn 0.741170816 -0.239213861 -0.62724999
vn -0.654896964 -0.113724623 -0.747112225
vn -0.654896964 -0.113724623 -0.747112225
vn -0.654896964 -0.113724623 -0.747112225
vn -0.654896964 -0.113724623 -0.747112225
vn -0.0431369258 -0.239213861 -0.970008213
vn -0.0431369258 -0.239213861 -0.970008213
vn -0.0431369258 -0.239213861 -0.970008213
vn -0.0431369258 -0.239213861 -0.970008213
vn 0.945090829 -0.309801558 0.104049605
vn 0.945090829 -0.309801558 0.104049605
vn 0.945090829 -0.309801558 0.104049605
vn 0.945090829 -0.309801558 0.104049605
vn 0.647053887 -0.639210809 -0.415608961
vn 0.647053887 -0.639210809 -0.415608961
vn 0.647053887 -0.639210809 -0.415608961
vn 0.647053887 -0.639210809 -0.415608961
vn -0.701955429 -0.309801558 -0.641312382
vn -0.701955429 -0.309801558 -0.641312382
vn -0.701955429 -0.309801558 -0.641312382
vn -0.701955429 -0.309801558 -0.641312382
vn -0.137253855 -0.639210809 -0.756684162
vn -0.137253855 -0.639210809 -0.756684162
vn -0.137253855 -0.639210809 -0.756684162
vn -0.137253855 -0.639210809 -0.756684162
vn 0.866660055 -0.419604642 0.26987459
vn 0.866660055 -0.419604642 0.26987459
vn 0.866660055 -0.419604642 0.26987459
vn 0.866660055 -0.419604642 0.26987459
vn 0.488960668 -0.872305832 -0
vn 0.488960668 -0.872305832 -0
vn 0.488960668 -0.872305832 -0
vn 0.488960668 -0.872305832 -0
vn -0.780386203 -0.419604642 -0.463604701
vn -0.780386203 -0.419604642 -0.463604701
vn -0.780386203 -0.419604642 -0.463604701
vn -0.780386203 -0.419604642 -0.463604701
vn -0.301958481 -0.874503132 -0.379559413
vn -0.301958481 -0.874503132 -0.379559413
vn -0.301958481 -0.874503132 -0.379559413
vn -0.301958481 -0.874503132 -0.379559413
vn -0.992149293 -0.113724623 0.0520239392
vn -0.992149293 -0.113724623 0.0520239392
vn -0.992149293 -0.113724623 0.0520239392
vn -0.992149293 -0.113724623 0.0520239392
vn -0.741170816 -0.239213861 0.62724999
vn -0.741170816 -0.239213861 0.62724999
vn -0.741170816 -0.239213861 0.62724999
vn -0.741170816 -0.239213861 0.62724999
vn 0.654896964 -0.113724623 0.747112225
vn 0.654896964 -0.113724623 0.747112225
vn 0.654896964 -0.113724623 0.747112225
vn 0.654896964 -0.113724623 0.747112225
vn 0.0431369258 -0.239213861 0.970008213
vn 0.0431369258 -0.239213861 0.970008213
vn 0.0431369258 -0.239213861 0.970008213
vn 0.0431369258 -0.239213861 0.970008213
vn -0.945090829 -0.309801558 -0.104049605
vn -0.945090829 -0.309801558 -0.104049605
vn -0.945090829 -0.309801558 -0.104049605
vn -0.945090829 -0.309801558 -0.104049605
vn -0.647053887 -0.639210809 0.415608961
vn -0.647053887 -0.639210809 0.415608961
vn -0.647053887 -0.639210809 0.415608961
vn -0.647053887 -0.639210809 0.415608961
vn 0.701955429 -0.309801558 0.641312382
vn 0.701955429 -0.309801558 0.641312382
vn 0.701955429 -0.309801558 0.641312382
vn 0.701955429 -0.309801558 0.641312382
vn 0.137253855 -0.639210809 0.756684162
vn 0.137253855 -0.639210809 0.756684162
vn 0.137253855 -0.639210809 0.756684162
vn 0.137253855 -0.639210809 0.756684162
vn -0.866660055 -0.419604642 -0.26987459
vn -0.866660055 -0.419604642 -0.26987459
vn -0.866660055 -0.419604642 -0.26987459
vn -0.866660055 -0.419604642 -0.26987459
vn -0.488960668 -0.872305832 -0
vn -0.488960668 -0.872305832 -0
vn -0.488960668 -0.872305832 -0
vn -0.488960668 -0.872305832 -0
vn 0.780386203 -0.419604642 0.463604701
vn 0.780386203 -0.419604642 0.463604701
vn 0.780386203 -0.419604642 0.463604701
vn 0.780386203 -0.419604642 0.463604701
vn 0.301958481 -0.874503132 0.379559413
vn 0.301958481 -0.874503132 0.379559413
vn 0.301958481 -0.874503132 0.379559413
vn 0.301958481 -0.874503132 0.379559413
vn 0.999992311 0.00392153847 -0
vn 0.999992311 0.00392153847 -0
vn 0.999992311 0.00392153847 -0
vn 0.999992311 0.00392153847 -0
vn 0.756856971 0.00392153871 -0.653568778
vn 0.756856971 0.00392153871 -0.653568778
vn 0.756856971 0.00392153871 -0.653568778
vn 0.756856971 0.00392153871 -0.653568778
vn -0.654896964 0.00392153871 -0.755708004
vn -0.654896964 0.00392153871 -0.755708004
vn -0.654896964 0.00392153871 -0.755708004
vn -0.654896964 0.00392153871 -0.755708004
vn -0.0352938484 0.00392153871 -0.999369284
vn -0.0352938484 0.00392153871 -0.999369284
vn -0.0352938484 0.00392153871 -0.999369284
vn -0.0352938484 0.00392153871 -0.999369284
vn 0.39607541 -0.905875442 0.150046507
vn 0.39607541 -0.905875442 0.150046507
vn 0.39607541 -0.905875442 0.150046507
vn 0.39607541 -0.905875442 0.150046507
vn 0.827444667 -0.435290797 0.354763646
vn 0.827444667 -0.435290797 0.354763646
vn 0.827444667 -0.435290797 0.354763646
vn 0.827444667 -0.435290797 0.354763646
vn 0.0352938484 -0.00392153871 0.999369284
vn 0.0352938484 -0.00392153871 0.999369284
vn 0.0352938484 -0.00392153871 0.999369284
vn 0.0352938484 -0.00392153871 0.999369284
vn 0.654896964 -0.00392153871 0.755708004
vn 0.654896964 -0.00392153871 0.755708004
vn 0.654896964 -0.00392153871 0.755708004
vn 0.654896964 -0.00392153871 0.755708004
vn 0.39607541 0.905875442 0.150046507
vn 0.39607541 0.905875442 0.150046507
vn 0.39607541 0.905875442 0.150046507
vn 0.39607541 0.905875442 0.150046507
vn 0.827444667 0.435290797 0.354763646
vn 0.827444667 0.435290797 0.354763646
vn 0.827444667 0.435290797 0.354763646
vn 0.827444667 0.435290797 0.354763646
vn -0.827444667 -0.435290797 -0.354763646
vn -0.827444667 -0.435290797 -0.354763646
vn -0.827444667 -0.435290797 -0.354763646
vn -0.827444667 -0.435290797 -0.354763646
vn -0.39607541 -0.905875442 -0.150046507
vn -0.39607541 -0.905875442 -0.150046507
vn -0.39607541 -0.905875442 -0.150046507
vn -0.39607541 -0.905875442 -0.150046507
vn -0.999992311 0.00392153847 -0
vn -0.999992311 0.00392153847 -0
vn -0.999992311 0.00392153847 -0
vn -0.999992311 0.00392153847 -0
vn -0.756856971 -0.00392153871 0.653568778
vn -0.756856971 -0.00392153871 0.653568778
vn -0.756856971 -0.00392153871 0.653568778
vn -0.756856971 -0.00392153871 0.653568778
vn -0.827444667 0.435290797 -0.354763646
vn -0.827444667 0.435290797 -0.354763646
vn -0.827444667 0.435290797 -0.354763646
vn -0.827444667 0.435290797 -0.354763646
vn -0.39607541 0.905875442 -0.150046507
vn -0.39607541 0.905875442 -0.150046507
vn -0.39607541 0.905875442 -0.150046507
vn -0.39607541 0.905875442 -0.150046507
vn 0.913718519 0.00392153871 0.406328795
vn 0.913718519 0.00392153871 0.406328795
vn 0.913718519 0.00392153871 0.406328795
vn 0.913718519 0.00392153871 0.406328795
vn 0.913718519 0.00392153871 0.406328795
vn 0.913718519 0.00392153871 0.406328795
vn 0.913718519 0.00392153871 0.406328795
vn 0.913718519 0.00392153871 0.406328795
vn 0.913718519 0.00392153871 0.406328795
vn 0.913718519 0.00392153871 0.406328795
vn 0.913718519 0.00392153871 0.406328795
vn 0.913718519 0.00392153871 0.406328795
vn 0.913718519 0.00392153871 0.406328795
vn 0.913718519 0.00392153871 0.406328795
vn 0.913718519 -0.00392153871 0.406328795
vn 0.913718519 -0.00392153871 0.406328795
vn 0.388232332 -0.262743093 -0.883312925
vn 0.388232332 -0.262743093 -0.883312925
vn 0.388232332 -0.262743093 -0.883312925
vn 0.388232332 -0.262743093 -0.883312925
vn 0.403918487 0.00392153871 -0.914786575
vn 0.403918487 0.00392153871 -0.914786575
vn 0.403918487 0.00392153871 -0.914786575
vn 0.403918487 0.00392153871 -0.914786575
vn 0.105881545 -0.968620061 -0.224865017
vn 0.105881545 -0.968620061 -0.224865017
vn 0.105881545 -0.968620061 -0.224865017
vn 0.105881545 -0.968620061 -0.224865017
vn -0.00392153847 -0.999992311 -0
vn -0.00392153847 -0.999992311 -0
vn -0.00392153847 -0.999992311 -0
vn -0.00392153847 -0.999992311 -0
vn 0.286272326 -0.709798506 -0.643610314
vn 0.286272326 -0.709798506 -0.643610314
vn 0.286272326 -0.709798506 -0.643610314
vn 0.286272326 -0.709798506 -0.643610314
vn -0.105881545 -0.968620061 0.224865017
vn -0.105881545 -0.968620061 0.224865017
vn -0.105881545 -0.968620061 0.224865017
vn -0.105881545 -0.968620061 0.224865017
vn -0.403918487 -0.00392153871 0.914786575
vn -0.403918487 -0.00392153871 0.914786575
vn -0.403918487 -0.00392153871 0.914786575
vn -0.403918487 -0.00392153871 0.914786575
vn -0.388232332 -0.262743093 0.883312925
vn -0.388232332 -0.262743093 0.883312925
vn -0.388232332 -0.262743093 0.883312925
vn -0.388232332 -0.262743093 0.883312925
vn -0.286272326 -0.709798506 0.643610314
vn -0.286272326 -0.709798506 0.643610314
vn -0.286272326 -0.709798506 0.643610314
vn -0.286272326 -0.709798506 0.643610314
vn 0.105881545 0.968620061 -0.224865017
vn 0.105881545 0.968620061 -0.224865017
vn 0.105881545 0.968620061 -0.224865017
vn 0.105881545 0.968620061 -0.224865017
vn -0.00392153847 0.999992311 -0
vn -0.00392153847 0.999992311 -0
vn -0.00392153847 0.999992311 -0
vn -0.00392153847 0.999992311 -0
vn 0.388232332 0.262743093 -0.883312925
vn 0.388232332 0.262743093 -0.883312925
vn 0.388232332 0.262743093 -0.883312925
vn 0.388232332 0.262743093 -0.883312925
vn 0.286272326 0.709798506 -0.643610314
vn 0.286272326 0.709798506 -0.643610314
vn 0.286272326 0.709798506 -0.643610314
vn 0.286272326 0.709798506 -0.643610314
vn -0.388232332 0.262743093 0.883312925
vn -0.388232332 0.262743093 0.883312925
vn -0.388232332 0.262743093 0.883312925
vn -0.388232332 0.262743093 0.883312925
vn -0.105881545 0.968620061 0.224865017
vn -0.105881545 0.968620061 0.224865017
vn -0.105881545 0.968620061 0.224865017
vn -0.105881545 0.968620061 0.224865017
vn -0.286272326 0.709798506 0.643610314
vn -0.286272326 0.709798506 0.643610314
vn -0.286272326 0.709798506 0.643610314
vn -0.286272326 0.709798506 0.643610314
vn -0.913718519 -0.00392153871 -0.406328795
vn -0.913718519 -0.00392153871 -0.406328795
vn -0.913718519 -0.00392153871 -0.406328795
vn -0.913718519 -0.00392153871 -0.406328795
vn -0.913718519 0.00392153871 -0.406328795
vn -0.913718519 0.00392153871 -0.406328795
vn -0.913718519 0.00392153871 -0.406328795
vn -0.913718519 0.00392153871 -0.406328795
vn -0.913718519 0.00392153871 -0.406328795
vn -0.913718519 0.00392153871 -0.406328795
vn -0.913718519 -0.00392153871 -0.406328795
vn -0.913718519 -0.00392153871 -0.406328795
vn -0.913718519 -0.00392153871 -0.406328795
vn -0.913718519 -0.00392153871 -0.406328795
vn -0.913718519 0.00392153871 -0.406328795
vn -0.913718519 0.00392153871 -0.406328795
g Item02_shell_0
f 3/3/3 2/2/2 1/1/1
f 4/4/4 3/3/3 1/1/1
f 7/7/7 6/6/6 5/5/5
f 8/8/8 7/7/7 5/5/5
f 11/11/11 10/10/10 9/9/9
f 12/12/12 11/11/11 9/9/9
f 15/15/15 14/14/14 13/13/13
f 16/16/16 15/15/15 13/13/13
f 19/19/19 18/18/18 17/17/17
f 20/20/20 19/19/19 17/17/17
f 23/23/23 22/22/22 21/21/21
f 24/24/24 23/23/23 21/21/21
f 27/27/27 26/26/26 25/25/25
f 28/28/28 27/27/27 25/25/25
f 31/31/31 30/30/30 29/29/29
f 32/32/32 31/31/31 29/29/29
f 35/35/35 34/34/34 33/33/33
f 36/36/36 35/35/35 33/33/33
f 39/39/39 38/38/38 37/37/37
f 40/40/40 39/39/39 37/37/37
f 43/43/43 42/42/42 41/41/41
f 44/44/44 43/43/43 41/41/41
f 47/47/47 46/46/46 45/45/45
f 48/48/48 47/47/47 45/45/45
f 51/51/51 50/50/50 49/49/49
f 52/52/52 51/51/51 49/49/49
f 55/55/55 54/54/54 53/53/53
f 56/56/56 55/55/55 53/53/53
f 59/59/59 58/58/58 57/57/57
f 60/60/60 59/59/59 57/57/57
f 63/63/63 62/62/62 61/61/61
f 64/64/64 63/63/63 61/61/61
f 67/67/67 66/66/66 65/65/65
f 68/68/68 67/67/67 65/65/65
f 71/71/71 70/70/70 69/69/69
f 72/72/72 71/71/71 69/69/69
f 75/75/75 74/74/74 73/73/73
f 76/76/76 75/75/75 73/73/73
f 79/79/79 78/78/78 77/77/77
f 80/80/80 79/79/79 77/77/77
f 83/83/83 82/82/82 81/81/81
f 84/84/84 83/83/83 81/81/81
f 87/87/87 86/86/86 85/85/85
f 88/88/88 87/87/87 85/85/85
f 91/91/91 90/90/90 89/89/89
f 92/92/92 91/91/91 89/89/89
f 95/95/95 94/94/94 93/93/93
f 96/96/96 95/95/95 93/93/93
f 99/99/99 98/98/98 97/97/97
f 100/100/100 99/99/99 97/97/97
f 103/103/103 102/102/102 101/101/101
f 104/104/104 103/103/103 101/101/101
f 107/107/107 106/106/106 105/105/105
f 108/108/108 107/107/107 105/105/105
f 111/111/111 110/110/110 109/109/109
f 112/112/112 111/111/111 109/109/109
f 115/115/115 114/114/114 113/113/113
f 116/116/116 115/115/115 113/113/113
f 119/119/119 118/118/118 117/117/117
f 120/120/120 119/119/119 117/117/117
f 123/123/123 122/122/122 121/121/121
f 124/124/124 123/123/123 121/121/121
f 127/127/127 126/126/126 125/125/125
f 128/128/128 127/127/127 125/125/125
f 131/131/131 130/130/130 129/129/129
f 132/132/132 131/131/131 129/129/129
f 135/135/135 134/134/134 133/133/133
f 136/136/136 135/135/135 133/133/133
f 139/139/139 138/138/138 137/137/137
f 140/140/140 139/139/139 137/137/137
f 143/143/143 142/142/142 141/141/141
f 144/144/144 143/143/143 141/141/141
f 147/147/147 146/146/146 145/145/145
f 148/148/148 147/147/147 145/145/145
f 151/151/151 150/150/150 149/149/149
f 152/152/152 151/151/151 149/149/149
f 155/155/155 154/154/154 153/153/153
f 156/156/156 155/155/155 153/153/153
f 159/159/159 158/158/158 157/157/157
f 160/160/160 159/159/159 157/157/157
f 163/163/163 162/162/162 161/161/161
f 164/164/164 163/163/163 161/161/161
f 167/167/167 166/166/166 165/165/165
f 168/168/168 167/167/167 165/165/165
f 171/171/171 170/170/170 169/169/169
f 172/172/172 171/171/171 169/169/169
f 175/175/175 174/174/174 173/173/173
f 176/176/176 175/175/175 173/173/173
f 179/179/179 178/178/178 177/177/177
f 180/180/180 179/179/179 177/177/177
f 183/183/183 182/182/182 181/181/181
f 184/184/184 183/183/183 181/181/181
f 187/187/187 186/186/186 185/185/185
f 188/188/188 187/187/187 185/185/185
f 191/191/191 190/190/190 189/189/189
f 192/192/192 191/191/191 189/189/189
f 195/195/195 194/194/194 193/193/193
f 196/196/196 195/195/195 193/193/193
f 199/199/199 198/198/198 197/197/197
f 200/200/200 199/199/199 197/197/197
f 203/203/203 202/202/202 201/201/201
f 204/204/204 203/203/203 201/201/201
f 207/207/207 206/206/206 205/205/205
f 208/208/208 207/207/207 205/205/205
f 211/211/211 210/210/210 209/209/209
f 212/212/212 211/211/211 209/209/209
f 215/215/215 214/214/214 213/213/213
f 216/216/216 215/215/215 213/213/213
f 219/219/219 218/218/218 217/217/217
f 220/220/220 219/219/219 217/217/217
f 223/223/223 222/222/222 221/221/221
f 224/224/224 223/223/223 221/221/221
f 227/227/227 226/226/226 225/225/225
f 228/228/228 227/227/227 225/225/225
f 231/231/231 230/230/230 229/229/229
f 232/232/232 231/231/231 229/229/229
f 235/235/235 234/234/234 233/233/233
f 236/236/236 235/235/235 233/233/233
f 239/239/239 238/238/238 237/237/237
f 240/240/240 239/239/239 237/237/237
f 243/243/243 242/242/242 241/241/241
f 244/244/244 243/243/243 241/241/241
f 247/247/247 246/246/246 245/245/245
f 248/248/248 247/247/247 245/245/245
f 251/251/251 250/250/250 249/249/249
f 252/252/252 251/251/251 249/249/249
f 255/255/255 254/254/254 253/253/253
f 256/256/256 255/255/255 253/253/253
f 259/259/259 258/258/258 257/257/257
f 260/260/260 259/259/259 257/257/257
f 260/260/260 257/257/257 261/261/261
f 262/262/262 260/260/260 261/261/261
f 262/262/262 261/261/261 263/263/263
f 264/264/264 262/262/262 263/263/263
f 265/265/265 264/264/264 263/263/263
f 266/266/266 265/265/265 263/263/263
f 266/266/266 267/267/267 265/265/265
f 267/267/267 268/268/268 265/265/265
f 267/267/267 269/269/269 268/268/268
f 269/269/269 270/270/270 268/268/268
f 269/269/269 271/271/271 270/270/270
f 271/271/271 272/272/272 270/270/270
f 275/275/275 274/274/274 273/273/273
f 276/276/276 275/275/275 273/273/273
f 279/279/279 278/278/278 277/277/277
f 280/280/280 279/279/279 277/277/277
f 283/283/283 282/282/282 281/281/281
f 284/284/284 283/283/283 281/281/281
f 287/287/287 286/286/286 285/285/285
f 288/288/288 287/287/287 285/285/285
f 291/291/291 290/290/290 289/289/289
f 292/292/292 291/291/291 289/289/289
f 295/295/295 294/294/294 293/293/293
f 296/296/296 295/295/295 293/293/293
f 299/299/299 298/298/298 297/297/297
f 300/300/300 299/299/299 297/297/297
f 303/303/303 302/302/302 301/301/301
f 304/304/304 303/303/303 301/301/301
f 307/307/307 306/306/306 305/305/305
f 308/308/308 307/307/307 305/305/305
f 311/311/311 310/310/310 309/309/309
f 312/312/312 311/311/311 309/309/309
f 315/315/315 314/314/314 313/313/313
f 316/316/316 315/315/315 313/313/313
f 319/319/319 318/318/318 317/317/317
f 320/320/320 319/319/319 317/317/317
f 323/323/323 322/322/322 321/321/321
f 324/324/324 323/323/323 321/321/321
f 327/327/327 326/326/326 325/325/325
f 328/328/328 327/327/327 325/325/325
f 331/331/331 330/330/330 329/329/329
f 332/332/332 331/331/331 329/329/329
f 335/335/335 334/334/334 333/333/333
f 336/336/336 335/335/335 333/333/333
f 339/339/339 338/338/338 337/337/337
f 340/340/340 339/339/339 337/337/337
f 340/340/340 337/337/337 341/341/341
f 342/342/342 340/340/340 341/341/341
f 342/342/342 341/341/341 343/343/343
f 344/344/344 342/342/342 343/343/343
f 345/345/345 344/344/344 343/343/343
f 346/346/346 345/345/345 343/343/343
f 346/346/346 347/347/347 345/345/345
f 347/347/347 348/348/348 345/345/345
f 347/347/347 349/349/349 348/348/348
f 349/349/349 350/350/350 348/348/348
f 349/349/349 351/351/351 350/350/350
f 351/351/351 352/352/352 350/350/350
