g item_01_04item_01_04_mobile
v 0.0340275238 -0.244497276 -0.196189392
v 0.112451183 -0.042067482 -0.766413204
v -0.131541106 -0.186650458 -0.325441939
v 0.418378405 -0.148903536 -0.527531057
v 0.382130458 0.360066696 -1.06109811
v 0.64397418 -0.227667872 -0.203411727
v 0.156125871 -0.287149935 -0.0207411523
v 0.186854864 -0.297847168 0.194702472
v 0.781879903 0.220457592 -0.748902447
v 0.604864553 0.867810494 -1.1645274
v 1.07663295 0.117573382 -0.325441939
v 0.700798969 -0.247563362 0.194702472
v 1.03752332 0.716686535 -0.826644755
v 0.709384009 1.41677611 -0.965776912
v 1.35653251 0.60528542 -0.368299004
v 1.07874514 1.28779611 -0.677292312
v 0.734934723 1.90414747 -0.636138627
v 0.636274898 -0.225010598 0.578372001
v 0.151969622 -0.28565096 0.402378679
v 0.0340275238 -0.244497276 0.585526201
v 1.15090036 0.0916138562 0.194702472
v 1.35108169 1.19267931 -0.285991636
v 0.99943572 1.81182423 -0.429620719
v 0.822079694 2.1041244 -0.424578712
v 1.06654893 0.121048279 0.696041558
v 0.418378405 -0.148903536 0.916867866
v 0.112451183 -0.042067482 1.15581815
v -0.131541106 -0.186650458 0.714846884
v -0.334924793 -0.115585404 0.747415528
v 1.43693209 0.577213702 0.194702472
v 1.19443877 1.74368899 -0.149448618
v 1.345699 0.609100993 0.737331513
v 0.781879903 0.220457592 1.13830739
v 1.41976201 1.16869571 0.194702472
v 0.382130458 0.360066696 1.45043492
v 0.604864553 0.867810494 1.55393235
v 1.03752332 0.716686535 1.2160497
v 0.406250332 0.681596887 1.52497487
v 1.34181529 1.19588167 0.65795396
v 1.18782965 1.74600559 0.526384814
v 1.24356428 1.72651891 0.194702472
v 1.15226306 1.07937041 0.979143474
v 1.15628304 1.96390208 -0.0620992422
v 1.16214267 1.25863422 0.865902708
v 1.01490242 2.02399736 -0.270116126
v 1.00515908 2.14262081 -0.0716381756
v 0.892122719 2.19617511 -0.173227816
v 1.0798353 2.10439694 0.0544120159
v 1.09407557 2.09410852 0.206353598
v 1.19205404 1.9480947 0.193271632
v 1.07022823 2.10405626 0.344191186
v 1.1525356 1.965878 0.439853061
v 0.996846581 2.1387371 0.466562074
v 1.01674207 2.0242699 0.657408878
v 0.887693928 2.19099683 0.563450384
v 0.822624776 2.1054871 0.81221214
v 0.751832263 2.25558903 0.59397497
v 0.99943572 1.81182423 0.819025664
v 0.750128882 1.89481295 1.01627718
v 1.00992855 1.74225815 0.851866849
v 0.583538223 2.20394252 0.85070855
v 0.605818446 2.32311106 0.577622513
v 0.344860482 2.30110337 0.810985705
v 0.484333316 2.37836873 0.488024674
v 0.55682921 2.17525759 0.885661927
v 0.728053064 2.10746303 0.858135291
v 1.14061193 1.54814085 0.759884277
v 0.150811323 2.37932263 0.655432956
v 0.401549001 2.41570685 0.355706041
v 0.0233984266 2.43049219 0.43958052
v 0.368094599 2.430901 0.199608209
v -0.179372044 2.22349734 0.819025664
v 0.0956899148 2.09260954 1.04557533
v -0.0257952157 2.45011514 0.189319788
v 0.390306687 2.42156648 0.038740911
v 0.0110659484 2.43478471 -0.0661192212
v 0.479972661 2.38191177 -0.0913973948
v -0.423500603 2.30873452 0.194702472
v -0.354684012 2.28468278 0.530200387
v 0.154081814 2.37659722 -0.273522888
v 0.601594062 2.32801679 -0.184878942
v 0.347654027 2.29817356 -0.426282093
v 0.748970583 2.26158494 -0.204093079
v -0.179372044 2.22349734 -0.429620719
v -0.374375096 2.29156444 -0.149448618
v -0.908623502 1.98182165 0.194702472
v 0.584764658 2.20162593 -0.464165285
v 0.892122719 2.19617511 -0.173227816
v 0.822079694 2.1041244 -0.424578712
v 0.410065906 2.01766078 -0.68819395
v 0.734934723 1.90414747 -0.636138627
v 0.0851289528 2.13110595 -0.636138627
v 0.255535185 1.57525868 -1.03847721
v 0.709384009 1.41677611 -0.965776912
v -0.567674768 1.86272125 -0.677292312
v -0.198245505 1.73374124 -0.965776912
v 0.0733415565 1.05341088 -1.24969645
v 0.604864553 0.867810494 -1.1645274
v -0.840011317 1.95783804 -0.285991636
v -0.89090834 1.39013523 -0.826644755
v -0.458249575 1.23907941 -1.1645274
v -0.108920207 0.531563092 -1.13972618
v 0.382130458 0.360066696 -1.06109811
v -0.263450928 0.0892291228 -0.826644755
v 0.112451183 -0.042067482 -0.766413204
v -0.59513327 0.701356107 -1.05878151
v -0.999788452 0.842668591 -0.748902447
v -1.20991753 1.50153635 -0.368299004
v -1.29031711 1.52960807 0.194702472
v -0.334924793 -0.115585404 -0.358078719
v -0.131541106 -0.186650458 -0.325441939
v -0.639284904 0.220457592 -0.766413204
v -0.538376616 -0.0445884858 -0.325441939
v -0.703945246 0.0132583318 -0.196189392
v -0.945212126 0.327293647 -0.527531057
v -1.33678534 0.960406284 -0.324488046
v -1.1708079 0.406057982 -0.203411727
v -0.826043593 0.0559109911 -0.0207411523
v -0.856772586 0.0666082236 0.194702472
v -1.43694414 0.995359661 0.194702472
v -1.22763269 0.425953472 0.194702472
v -1.14805073 0.398154295 0.582800791
v -0.813711115 0.0515503359 0.404763413
v -0.703945246 0.0132583318 0.585526201
v -1.30605635 0.949640916 0.702718811
v -1.17775769 1.49036217 0.743599954
v -0.945212126 0.327293647 0.916867866
v -0.812552816 1.94829911 0.663336643
v -0.89090834 1.39013523 1.2160497
v -0.999788452 0.842668591 1.13830739
v -0.567674768 1.86272125 1.06662912
v -0.639284904 0.220457592 1.15581815
v -0.538376616 -0.0445884858 0.714846884
v -0.59513327 0.701356107 1.44811832
v -0.458249575 1.23907941 1.49594926
v -0.218140994 0.569718826 1.47387344
v -0.250573368 1.95572585 1.08850053
v -0.263450928 0.0892291228 1.2160497
v -0.241783922 0.40694374 1.40846361
v -0.396723455 1.80303478 1.20017419
v 0.102980385 2.0683534 1.04768752
v -0.244645602 1.92785854 1.09224797
v 0.541498781 2.15045636 0.885525657
v 0.705840977 2.08899838 0.860520024
v 0.724714438 1.89413159 1.01178025
v -0.376214748 1.78688673 1.19853894
v 0.624623772 1.63951021 1.21850257
v -0.433107672 1.6512976 1.28459375
v -0.408033904 1.6499349 1.27600871
v -0.310736784 1.51972846 1.44110039
v -0.297586683 1.52817723 1.41902457
v -0.197836693 1.39831146 1.51495899
v 0.138342574 1.2280415 1.56728685
v -0.185708621 1.40519312 1.49349639
v 0.13868325 1.24125974 1.54343952
v 0.646222643 1.63739801 1.23192521
v 0.55267296 1.46242672 1.36315368
v 0.2799276 1.25584068 1.52061422
v 0.267526987 1.2674918 1.50146821
v 0.423420413 1.35375102 1.45159322
v 0.409520824 1.36308554 1.43258349
v 0.576520294 1.46317621 1.37644005
v 0.642815881 1.44001023 1.36581095
v 0.74672212 1.55570386 1.22524796
v 0.344383536 1.25004918 1.50507938
v 0.908952123 1.73340057 0.958225956
v 0.911473127 1.71227864 0.941260282
v 0.998481826 1.71677557 0.850163468
v 0.753740049 1.53648973 1.20944058
v 1.11976255 1.52756401 0.766970341
v 1.1370689 1.25904303 0.870331498
v 1.1297103 1.09388322 0.977985175
v 0.655489035 1.42590623 1.34700563
v 1.0392267 0.962041529 1.12958608
v 0.539386589 1.26919519 1.44668748
v 0.552264149 1.25720338 1.4281547
v 1.05394391 0.944053826 1.14811887
v 0.949833266 0.877826375 1.23512757
v 0.967207752 0.862427811 1.24671056
v 0.768525396 0.873806395 1.39033964
v 0.777996194 0.858135291 1.40853175
v 0.617333302 0.973351979 1.49710756
v 0.613585864 0.962791017 1.52204506
v 0.533526958 1.1195702 1.47598563
v 0.519354829 1.1220912 1.49785705
v 0.466550019 1.18205021 1.49336012
v 0.474930653 1.04291806 1.53437753
v 0.445087418 1.16706046 1.48497949
v 0.452105348 1.05007226 1.51945592
v 0.34274829 1.22402152 1.49479096
v 0.371501361 1.01832124 1.55100253
v 0.235230883 1.16610657 1.56047333
v 0.252946046 1.15493239 1.54037343
v 0.37422677 1.00326335 1.57382784
v 0.288171964 1.08107379 1.55393235
v 0.278564895 1.0752823 1.57709833
v 0.0733415565 1.05341088 1.60830427
v 0.321694501 0.966674726 1.59931042
v 0.158306199 1.05211631 1.61661677
v 0.0492898173 0.984594293 1.61498152
v 0.383765704 0.850436009 1.56687804
v -0.125954016 0.773920136 1.55856554
v 0.297915303 0.949095834 1.59692568
v 0.1571479 1.02765576 1.60046872
v 0.284015714 0.939693171 1.57784782
v 0.0415905353 0.959588661 1.5892264
v 0.364960378 0.846688571 1.54950356
v -0.110351047 0.76083817 1.54098665
v 0.385877896 0.690113792 1.5105302
v -0.197155341 0.569173744 1.45963318
v 0.193736523 0.433380213 1.45861115
v -0.218890482 0.423296198 1.40301279
v 0.210906603 0.419889436 1.47264701
v 0.105024442 0.336764445 1.39197489
v -0.201788537 0.265631256 1.34087346
v -0.191500116 0.293089757 1.33583145
v 0.117152515 0.315778791 1.3997423
v -0.0345165262 0.252413019 1.32377151
v -0.0314504405 0.225976547 1.32711014
v -0.334924793 -0.115585404 -0.358078719
v 0.0340275238 -0.244497276 -0.196189392
v -0.131541106 -0.186650458 -0.325441939
v -0.288524696 0.0173464461 0.194702472
v 0.186854864 -0.297847168 0.194702472
v 0.156125871 -0.287149935 -0.0207411523
v 0.0340275238 -0.244497276 0.585526201
v 0.151969622 -0.28565096 0.402378679
v -0.334924793 -0.115585404 0.747415528
v -0.131541106 -0.186650458 0.714846884
v -0.703945246 0.0132583318 0.585526201
v -0.538376616 -0.0445884858 0.714846884
v -0.856772586 0.0666082236 0.194702472
v -0.813711115 0.0515503359 0.404763413
v -0.703945246 0.0132583318 -0.196189392
v -0.826043593 0.0559109911 -0.0207411523
v -0.334924793 -0.115585404 -0.358078719
v -0.538376616 -0.0445884858 -0.325441939
v 1.00515908 2.14262081 -0.0716381756
v 0.87822313 2.16258443 -0.0542636897
v 0.892122719 2.19617511 -0.173227816
v 0.963324043 2.12313413 0.0141440899
v 1.02464576 2.09417665 0.105513445
v 1.0798353 2.10439694 0.0544120159
v 1.09407557 2.09410852 0.206353598
v 1.04018059 2.08661364 0.217936589
v 1.0226017 2.09506241 0.326339753
v 1.07022823 2.10405626 0.344191186
v 0.996846581 2.1387371 0.466562074
v 0.963324043 2.123066 0.421797223
v 0.878291266 2.1625163 0.490205002
v 0.887693928 2.19099683 0.563450384
v 0.751832263 2.25558903 0.59397497
v 0.773431133 2.21089232 0.507715758
v 0.667276432 2.25988155 0.492317194
v 0.605818446 2.32311106 0.577622513
v 0.484333316 2.37836873 0.488024674
v 0.580267732 2.2996044 0.424999579
v 0.522420914 2.32515511 0.329610245
v 0.401549001 2.41570685 0.355706041
v 0.368094599 2.430901 0.199608209
v 0.499459339 2.33489845 0.218004724
v 0.516152472 2.32808493 0.103469388
v 0.390306687 2.42156648 0.038740911
v 0.479972661 2.38191177 -0.0913973948
v 0.580267732 2.29974067 0.0109417336
v 0.667276432 2.26001783 -0.0563758821
v 0.601594062 2.32801679 -0.184878942
v 0.748970583 2.26158494 -0.204093079
v 0.773431133 2.21096045 -0.071774446
v 0.87822313 2.16258443 -0.0542636897
v 0.892122719 2.19617511 -0.173227816
v 0.628098669 2.75638304 0.170037516
v 0.56268884 2.83937176 0.172967331
v 0.617333302 2.74882003 0.17555647
v 0.58960226 2.83044604 0.163905344
v 0.63838709 2.76394605 0.175760876
v 0.603024902 2.90975546 0.144963748
v 0.581085355 2.93918988 0.160498582
v 0.611678077 2.82663047 0.173921224
v 0.640908094 2.76585384 0.196405853
v 0.622920391 2.88243323 0.161179935
v 0.655216494 2.96330976 0.128951967
v 0.64983381 3.00718885 0.149460674
v 0.660462908 2.91977134 0.149596944
v 0.765186769 2.96140197 0.126430963
v 0.781334821 3.00848342 0.14837051
v 0.74815296 2.91445679 0.146258318
v 0.891441367 2.89210843 0.116619489
v 0.941725173 2.92910587 0.140466822
v 0.839658585 2.85708692 0.139989876
v 0.981107341 2.77668734 0.0978822981
v 1.06232455 2.79154082 0.125204529
v 0.89954946 2.76571757 0.128611291
v 1.02294238 2.63046912 0.0664719531
v 1.11812731 2.64818428 0.105513445
v 0.922579171 2.61425293 0.101425331
v 0.992349655 2.43451217 0.0253864042
v 1.10743007 2.40821197 0.0745119113
v 0.874748233 2.47259977 0.0753295341
v 0.86105305 2.32133954 -0.0296668686
v 1.01994443 2.23473965 0.00501396789
v 0.723351733 2.38838461 0.067017035
v 0.877132966 2.76135691 0.231768042
v 0.891168826 2.60757568 0.245599495
v 0.841293831 2.48520479 0.25827265
v 0.693235957 2.40071709 0.238581566
v 0.82528205 2.84673036 0.227952469
v 0.742702141 2.90082974 0.226657899
v 0.661757477 2.90668937 0.225567735
v 0.628643751 2.87391633 0.218686076
v 0.617878384 2.82519963 0.208193249
v 0.610656048 2.8276525 0.219435564
v 0.637705738 2.76353724 0.202674295
v 0.627281046 2.75583796 0.20846579
v 0.622307174 2.88270577 0.23681005
v 0.660054096 2.91970321 0.248733716
v 0.748016689 2.91432052 0.250368962
v 0.840203667 2.85660997 0.25398013
v 0.587421932 2.83269451 0.230677878
v 0.61678822 2.74841122 0.202946836
v 0.601934738 2.91043681 0.254048265
v 0.654671412 2.96317349 0.269378694
v 0.765050499 2.9612657 0.270060046
v 0.561394271 2.84053006 0.222569785
v 0.612563835 2.74561767 0.189251653
v 0.580404002 2.93946242 0.239262918
v 0.649424999 3.00712072 0.248869987
v 0.551923473 2.8419609 0.197768558
v 0.617333302 2.74882003 0.17555647
v 0.56268884 2.83937176 0.172967331
v 0.581085355 2.93918988 0.160498582
v 0.572023368 2.95090914 0.199948886
v 0.64983381 3.00718885 0.149460674
v 0.647380942 3.02551723 0.199131263
v 0.781334821 3.00848342 0.14837051
v 0.787330722 3.02831078 0.198177369
v 0.941725173 2.92910587 0.140466822
v 0.781198551 3.00841529 0.247984229
v 0.96237015 2.94511765 0.196746529
v 1.06232455 2.79154082 0.125204529
v 0.941588902 2.92910587 0.252958101
v 1.09584708 2.79835435 0.195383825
v 1.11812731 2.64818428 0.105513445
v 0.891168826 2.89217657 0.27700984
v 1.15532915 2.65527034 0.194566202
v 1.10743007 2.40821197 0.0745119113
v 1.06218827 2.79167709 0.26556312
v 0.980902935 2.77682361 0.293089757
v 1.14872003 2.39812795 0.19415739
v 1.01994443 2.23473965 0.00501396789
v 1.11812731 2.64811614 0.283618959
v 0.900367083 2.76455927 0.262905846
v 1.10415958 2.18309314 0.149596944
v 0.993439819 2.13212798 0.00310618121
v 1.02301051 2.63033285 0.322592315
v 0.922374765 2.6132309 0.287775208
v 1.10756634 2.40800756 0.313802869
v 0.992622196 2.4341715 0.362996512
v 0.874884504 2.47232723 0.313189652
v 1.07527024 2.20148966 0.31836793
v 1.05448899 2.10153526 0.0952931591
v 0.963324043 2.12313413 0.0141440899
v 1.02464576 2.09417665 0.105513445
v 1.04018059 2.08661364 0.217936589
v 1.06968315 2.09335903 0.208738331
v 1.05244494 2.10242102 0.318163525
v 1.0226017 2.09506241 0.326339753
v 0.963324043 2.123066 0.421797223
v 0.944995664 2.27657469 0.417845379
v 0.783992095 2.35983595 0.385276735
v 0.993439819 2.13199171 0.414438617
v 0.907861959 2.17375861 0.483595884
v 0.878291266 2.1625163 0.490205002
v 0.773431133 2.21089232 0.507715758
v 0.802116069 2.22445123 0.50110664
v 0.694939338 2.27514385 0.485571806
v 0.667276432 2.25988155 0.492317194
v 0.580267732 2.2996044 0.424999579
v 0.606976745 2.31582059 0.417572838
v 0.548448575 2.34157571 0.321365881
v 0.522420914 2.32515511 0.329610245
v 0.499459339 2.33489845 0.218004724
v 0.525146324 2.35138718 0.208738331
v 0.542111998 2.34464179 0.0933172371
v 0.516152472 2.32808493 0.103469388
v 0.580267732 2.29974067 0.0109417336
v 0.60690861 2.31602499 4.00954675E-05
v 0.694939338 2.27528012 -0.0680270079
v 0.667276432 2.26001783 -0.0563758821
v 0.773431133 2.21096045 -0.071774446
v 0.802047934 2.2245875 -0.0835618423
v 0.907793824 2.17389488 -0.066051086
v 0.87822313 2.16258443 -0.0542636897
v 0.993439819 2.13212798 0.00310618121
v 0.963324043 2.12313413 0.0141440899
v 0.621557686 1.81352761 0.875918588
v 0.620263117 1.96867154 0.742305385
v 0.634026435 1.97923251 0.740670139
v 0.634435247 1.80569205 0.890158853
v 0.54981128 1.55243337 1.07766703
v 0.724714438 1.89413159 1.01178025
v 0.705840977 2.08899838 0.860520024
v 0.624623772 1.63951021 1.21850257
v 0.561053595 1.55134321 1.08815986
v 0.48412891 1.39749384 1.19847081
v 0.55267296 1.46242672 1.36315368
v 0.495030548 1.39633554 1.2090999
v 0.373886094 1.31607223 1.25543187
v 0.409520824 1.36308554 1.43258349
v 0.381108429 1.31246106 1.26796875
v 0.208794411 1.22742828 1.32356711
v 0.267526987 1.2674918 1.50146821
v 0.218810291 1.22497542 1.33480942
v 0.107341041 1.19635862 1.36254046
v 0.13868325 1.24125974 1.54343952
v 0.119400978 1.19220237 1.37746208
v -0.168606676 1.34932223 1.29311065
v -0.185708621 1.40519312 1.49349639
v -0.176782904 1.34502971 1.30503432
v -0.23967173 1.44184988 1.25931558
v -0.297586683 1.52817723 1.41902457
v -0.252276749 1.45377355 1.26708299
v -0.313530328 1.55216083 1.14001077
v -0.408033904 1.6499349 1.27600871
v -0.325930942 1.56183604 1.14423516
v -0.296632789 1.66608295 1.07330637
v -0.376214748 1.78688673 1.19853894
v -0.30835205 1.67466799 1.07787144
v -0.188025219 1.7847064 0.980165503
v -0.244645602 1.92785854 1.09224797
v -0.198041099 1.79574431 0.983163453
v 0.119264707 1.92363415 0.926202394
v 0.102980385 2.0683534 1.04768752
v 0.111906102 1.93657985 0.930086103
v 0.501026449 2.01622994 0.76226901
v 0.541498781 2.15045636 0.885525657
v 0.498709851 2.03176478 0.765062555
v 0.620263117 1.96867154 0.742305385
v 0.705840977 2.08899838 0.860520024
v 0.634026435 1.97923251 0.740670139
v 0.867866574 1.64203121 0.758453437
v 0.957396278 1.47182938 0.694270042
v 0.859077128 1.62792722 0.757908355
v 0.973476194 1.46978533 0.692566661
v 0.970069432 1.22613371 0.78502618
v 1.11976255 1.52756401 0.766970341
v 0.998481826 1.71677557 0.850163468
v 1.1370689 1.25904303 0.870331498
v 0.984718508 1.22313576 0.783936016
v 0.962165744 1.08543445 0.889750041
v 1.1297103 1.09388322 0.977985175
v 0.97667855 1.0814826 0.889136824
v 0.887148847 0.951889379 1.02036529
v 1.0392267 0.962041529 1.12958608
v 0.901593517 0.947937535 1.02179613
v 0.815061764 0.863517974 1.10260453
v 0.949833266 0.877826375 1.23512757
v 0.831277951 0.859089184 1.10532994
v 0.649424999 0.86501695 1.24262244
v 0.768525396 0.873806395 1.39033964
v 0.65528463 0.856636315 1.25359222
v 0.542997756 0.943508745 1.32465727
v 0.617333302 0.973351979 1.49710756
v 0.542793351 0.940783335 1.34087346
v 0.503956265 1.06260914 1.29495031
v 0.533526958 1.1195702 1.47598563
v 0.498846122 1.0694908 1.30755532
v 0.521739562 1.19492778 1.24909529
v 0.552264149 1.25720338 1.4281547
v 0.51690196 1.2019457 1.2612915
v 0.616992625 1.33951075 1.18034683
v 0.655489035 1.42590623 1.34700563
v 0.613245187 1.34755071 1.19254304
v 0.686694975 1.44934476 1.04789193
v 0.753740049 1.53648973 1.20944058
v 0.684378376 1.4579298 1.06083763
v 0.809747215 1.6178432 0.811258246
v 0.911473127 1.71227864 0.941260282
v 0.809202134 1.62860857 0.822773102
v 0.859077128 1.62792722 0.757908355
v 0.998481826 1.71677557 0.850163468
v 0.867866574 1.64203121 0.758453437
v 0.143793393 1.05613629 1.43346925
v 0.255943996 0.96790116 1.39347386
v 0.143588988 1.04503025 1.42059169
v 0.264120225 0.973556385 1.4045799
v 0.330279541 0.887365308 1.36853636
v 0.284015714 0.939693171 1.57784782
v 0.1571479 1.02765576 1.60046872
v 0.364960378 0.846688571 1.54950356
v 0.34261202 0.883345329 1.37793903
v 0.353513658 0.737127107 1.33038063
v 0.385877896 0.690113792 1.5105302
v 0.365164784 0.733379669 1.33964702
v 0.177861013 0.516982151 1.28929508
v 0.193736523 0.433380213 1.45861115
v 0.187740622 0.509351004 1.29856147
v 0.0993010824 0.450141482 1.24071466
v 0.105024442 0.336764445 1.39197489
v 0.109521368 0.441215766 1.24923156
v -0.0271579204 0.376351018 1.18157327
v -0.0345165262 0.252413019 1.32377151
v -0.025318269 0.360816184 1.18320851
v -0.140126146 0.402310544 1.19254304
v -0.191500116 0.293089757 1.33583145
v -0.151709137 0.390182472 1.19642675
v -0.146462723 0.505944242 1.24943597
v -0.218890482 0.423296198 1.40301279
v -0.158863337 0.503695779 1.25754406
v -0.133108216 0.622523635 1.28854559
v -0.197155341 0.569173744 1.45963318
v -0.145168154 0.622728041 1.29733504
v -0.0549570978 0.784412962 1.36076895
v -0.110351047 0.76083817 1.54098665
v -0.0665400884 0.784276692 1.37044415
v 0.069185307 0.982754642 1.4150046
v 0.0415905353 0.959588661 1.5892264
v 0.0593056974 0.984526158 1.42631505
v 0.143588988 1.04503025 1.42059169
v 0.1571479 1.02765576 1.60046872
v 0.143793393 1.05613629 1.43346925
v 0.398210374 1.00544368 1.35586321
v 0.326600238 0.986638351 1.3699672
v 0.384924003 1.00966806 1.3471419
v 0.328235484 0.977848905 1.38332171
v 0.25703416 1.03910248 1.37235194
v 0.371501361 1.01832124 1.55100253
v 0.452105348 1.05007226 1.51945592
v 0.288171964 1.08107379 1.55393235
v 0.251378935 1.03569572 1.38597898
v 0.230802093 1.09408762 1.36233606
v 0.252946046 1.15493239 1.54037343
v 0.220445537 1.1006286 1.37405532
v 0.299141737 1.14661989 1.32765522
v 0.34274829 1.22402152 1.49479096
v 0.300095631 1.16188218 1.33365112
v 0.379336913 1.10199131 1.31995594
v 0.445087418 1.16706046 1.48497949
v 0.391941932 1.11078076 1.32486168
v 0.384924003 1.00966806 1.3471419
v 0.452105348 1.05007226 1.51945592
v 0.398210374 1.00544368 1.35586321
v 0.501026449 2.01622994 0.76226901
v 0.620263117 1.96867154 0.742305385
v 0.621557686 1.81352761 0.875918588
v 0.54981128 1.55243337 1.07766703
v 0.119264707 1.92363415 0.926202394
v -0.188025219 1.7847064 0.980165503
v 0.48412891 1.39749384 1.19847081
v -0.296632789 1.66608295 1.07330637
v 0.373886094 1.31607223 1.25543187
v -0.313530328 1.55216083 1.14001077
v 0.208794411 1.22742828 1.32356711
v -0.23967173 1.44184988 1.25931558
v 0.107341041 1.19635862 1.36254046
v -0.168606676 1.34932223 1.29311065
v 0.809747215 1.6178432 0.811258246
v 0.859077128 1.62792722 0.757908355
v 0.957396278 1.47182938 0.694270042
v 0.970069432 1.22613371 0.78502618
v 0.686694975 1.44934476 1.04789193
v 0.616992625 1.33951075 1.18034683
v 0.962165744 1.08543445 0.889750041
v 0.521739562 1.19492778 1.24909529
v 0.887148847 0.951889379 1.02036529
v 0.503956265 1.06260914 1.29495031
v 0.815061764 0.863517974 1.10260453
v 0.542997756 0.943508745 1.32465727
v 0.649424999 0.86501695 1.24262244
v 0.069185307 0.982754642 1.4150046
v 0.143588988 1.04503025 1.42059169
v 0.255943996 0.96790116 1.39347386
v 0.330279541 0.887365308 1.36853636
v 0.353513658 0.737127107 1.33038063
v -0.0549570978 0.784412962 1.36076895
v -0.133108216 0.622523635 1.28854559
v 0.177861013 0.516982151 1.28929508
v -0.146462723 0.505944242 1.24943597
v 0.0993010824 0.450141482 1.24071466
v -0.140126146 0.402310544 1.19254304
v -0.0271579204 0.376351018 1.18157327
v 0.379336913 1.10199131 1.31995594
v 0.384924003 1.00966806 1.3471419
v 0.326600238 0.986638351 1.3699672
v 0.25703416 1.03910248 1.37235194
v 0.299141737 1.14661989 1.32765522
v 0.230802093 1.09408762 1.36233606
v 0.61678822 2.74841122 0.202946836
v 0.625986477 2.75760947 0.189183518
v 0.612563835 2.74561767 0.189251653
v 0.627281046 2.75583796 0.20846579
v 0.617333302 2.74882003 0.17555647
v 0.637705738 2.76353724 0.202674295
v 0.628098669 2.75638304 0.170037516
v 0.640908094 2.76585384 0.196405853
v 0.63838709 2.76394605 0.175760876
v 0.923805605 1.31763934 0.851185496
v 0.970614514 1.4376255 0.773170648
v 0.960462363 1.42297642 0.748505692
v 0.9367513 1.34026024 0.8680149
v 0.83686504 1.31055328 0.956250034
v 0.938250276 1.56878583 0.736036943
v 0.925440851 1.56497026 0.708305901
v 0.856419854 1.33378739 0.965107615
v 0.750673964 1.40594261 1.00210505
v 0.858600182 1.65688469 0.778417061
v 0.839181639 1.66035959 0.754160916
v 0.77676976 1.42188625 1.00748773
v 0.715652451 1.54793645 0.961905259
v 0.778268735 1.65041185 0.875441641
v 0.752309209 1.65327353 0.859225454
v 0.744405522 1.55304659 0.970354029
v 0.960598634 1.45956504 0.810304353
v 0.935797407 1.55992825 0.781891959
v 0.934639108 1.38502509 0.882936517
v 0.874816368 1.62738213 0.814324332
v 0.873181123 1.38005122 0.957203928
v 0.813358383 1.62240826 0.888591742
v 0.787466992 1.54786831 0.961223907
v 0.812200084 1.4475051 0.989636301
v 0.931913698 1.4853883 0.854319717
v 0.918491056 1.53976022 0.838921153
v 0.888920363 1.51127969 0.898403217
v 0.917877839 1.44505224 0.89363375
v 0.885513601 1.57621257 0.856500045
v 0.884559707 1.44239496 0.933833541
v 0.852195469 1.5735553 0.896699836
v 0.851582252 1.47891545 0.951344297
v 0.83815961 1.53321923 0.935945733
v 0.305342044 1.27389652 1.24548412
v 0.37279593 1.40212704 1.22000154
v 0.358010583 1.38924948 1.19220237
v 0.315834871 1.27723514 1.27764395
v 0.178269824 1.22613371 1.26755994
v 0.315834871 1.52695079 1.16235913
v 0.305342044 1.50467057 1.13898874
v 0.178269824 1.2255205 1.30155942
v 0.051197604 1.27389652 1.24548412
v 0.178269824 1.57873357 1.13844366
v 0.178269824 1.55243337 1.11691293
v 0.0407729125 1.27723514 1.27764395
v -0.00140280024 1.38924948 1.19220237
v 0.0407729125 1.52695079 1.16235913
v 0.051197604 1.50467057 1.13898874
v -0.0162562823 1.40212704 1.22000154
v 0.358010583 1.41493646 1.24780072
v 0.305342044 1.53028942 1.19451896
v 0.305342044 1.2995835 1.30108248
v 0.178269824 1.57812036 1.17244315
v 0.178269824 1.25175256 1.32315829
v 0.051197604 1.53028942 1.19451896
v -0.00140280024 1.41493646 1.24780072
v 0.051197604 1.2995835 1.30108248
v 0.315834871 1.4258381 1.27137551
v 0.275566945 1.51414137 1.2305625
v 0.178269824 1.55066186 1.21366497
v 0.0810408385 1.51414137 1.2305625
v 0.275566945 1.33753483 1.31212039
v 0.0407729125 1.4258381 1.27137551
v 0.0810408385 1.33753483 1.31212039
v 0.178269824 1.30094621 1.32901792
v 0.178269824 1.50065059 1.25590881
v 0.230938363 1.48089137 1.26503894
v 0.178269824 1.43564957 1.29263371
v 0.12566942 1.48089137 1.26503894
v 0.25274164 1.43306043 1.28711475
v 0.103866143 1.43306043 1.28711475
v 0.230938363 1.38529763 1.30912243
v 0.12566942 1.38529763 1.30912243
v 0.178269824 1.36547028 1.31832069
v 0.897846079 1.32050102 0.834969309
v 0.923805605 1.31763934 0.851185496
v 0.960462363 1.42297642 0.748505692
v 0.817514633 1.31402817 0.931993889
v 0.83686504 1.31055328 0.956250034
v 0.931709293 1.41786628 0.740056922
v 0.925440851 1.56497026 0.708305901
v 0.737864539 1.40212704 0.974374008
v 0.750673964 1.40594261 1.00210505
v 0.899345054 1.54902661 0.702923217
v 0.839181639 1.66035959 0.754160916
v 0.7055003 1.53328737 0.937240303
v 0.715652451 1.54793645 0.961905259
v 0.81969496 1.63712547 0.745303335
v 0.752309209 1.65327353 0.859225454
v 0.739363514 1.63058449 0.84239605
v 0.801298446 1.34353073 0.896086619
v 0.862756431 1.3485046 0.821819208
v 0.740317407 1.41098462 0.928518992
v 0.888647822 1.42304455 0.749187044
v 0.71551618 1.51134782 0.900106598
v 0.86391473 1.52340776 0.72077465
v 0.802933692 1.59086165 0.753207023
v 0.741475706 1.58588777 0.827474433
v 0.757623758 1.43115265 0.871489797
v 0.790601213 1.39463216 0.853910906
v 0.787194452 1.45963318 0.812007734
v 0.744201116 1.48552457 0.856091233
v 0.82385121 1.39735757 0.813711115
v 0.758236975 1.52579249 0.816777201
v 0.837955204 1.43769363 0.774465218
v 0.791555107 1.5285179 0.77657741
v 0.824532562 1.49199742 0.759066654
v 0.275566945 1.2901127 1.20944058
v 0.305342044 1.27389652 1.24548412
v 0.358010583 1.38924948 1.19220237
v 0.178269824 1.25352408 1.22633812
v 0.178269824 1.22613371 1.26755994
v 0.315834871 1.37841597 1.16869571
v 0.305342044 1.50467057 1.13898874
v 0.0810408385 1.2901127 1.20944058
v 0.051197604 1.27389652 1.24548412
v 0.275566945 1.46671924 1.1278827
v 0.178269824 1.55243337 1.11691293
v 0.0407729125 1.37841597 1.16869571
v -0.00140280024 1.38924948 1.19220237
v 0.178269824 1.50323973 1.11098516
v 0.051197604 1.50467057 1.13898874
v 0.0810408385 1.46671924 1.1278827
v 0.178269824 1.30353535 1.18416241
v 0.230938363 1.3233627 1.17503229
v 0.178269824 1.3686045 1.14743751
v 0.12566942 1.3233627 1.17503229
v 0.25274164 1.3711255 1.15295647
v 0.103866143 1.3711255 1.15295647
v 0.230938363 1.4188883 1.13088065
v 0.12566942 1.4188883 1.13088065
v 0.178269824 1.43871566 1.12175053
vt 0.81593102 0.173078077
vt 0.837198335 0.143110496
vt 0.812064235 0.162444419
vt 0.84106512 0.161477723
vt 0.871999396 0.131510142
vt 0.84106512 0.178878254
vt 0.81593102 0.185645127
vt 0.814964323 0.201112265
vt 0.8710327 0.155677546
vt 0.907767154 0.135376927
vt 0.868132612 0.176944862
vt 0.838165031 0.198212177
vt 0.901000281 0.158577635
vt 0.940634823 0.153744154
vt 0.895200104 0.180811646
vt 0.930001166 0.172111381
vt 0.964802227 0.17984495
vt 0.835264943 0.215612708
vt 0.811097539 0.216579404
vt 0.809164146 0.233013239
vt 0.864265827 0.197245481
vt 0.9213009 0.190478608
vt 0.95416857 0.192412
vt 0.970602404 0.196278785
vt 0.860399043 0.216579404
vt 0.831398158 0.233979935
vt 0.82849807 0.252347162
vt 0.805297362 0.250413769
vt 0.80336397 0.2678143
vt 0.889399927 0.201112265
vt 0.945468304 0.205945746
vt 0.885533143 0.221412885
vt 0.856532258 0.236880023
vt 0.915500723 0.209812531
vt 0.85363217 0.256213946
vt 0.876832877 0.259114035
vt 0.880699662 0.241713504
vt 0.86619922 0.262014123
vt 0.909700547 0.228179758
vt 0.93386795 0.237846719
vt 0.939668127 0.222379581
vt 0.898100193 0.240746808
vt 0.95416857 0.215612708
vt 0.907767154 0.240746808
vt 0.960935443 0.20497905
vt 0.963835531 0.2175461
vt 0.969635708 0.211745923
vt 0.95900205 0.224312973
vt 0.955135266 0.233979935
vt 0.948368393 0.228179758
vt 0.953201873 0.2426802
vt 0.944501608 0.240746808
vt 0.951268481 0.253313858
vt 0.94160152 0.25524725
vt 0.949335089 0.264914212
vt 0.937734735 0.2678143
vt 0.949335089 0.276514565
vt 0.92903447 0.253313858
vt 0.924200989 0.266847604
vt 0.925167685 0.252347162
vt 0.936768039 0.281348046
vt 0.949335089 0.288114919
vt 0.934834647 0.2929484
vt 0.950301785 0.300681969
vt 0.93386795 0.281348046
vt 0.934834647 0.272647781
vt 0.920334204 0.2426802
vt 0.935801343 0.306482146
vt 0.952235177 0.313249019
vt 0.935801343 0.319049196
vt 0.95416857 0.325816069
vt 0.918400812 0.307448842
vt 0.918400812 0.291015008
vt 0.937734735 0.332582942
vt 0.957068658 0.338383119
vt 0.939668127 0.345149992
vt 0.959968747 0.349016777
vt 0.920334204 0.336449727
vt 0.918400812 0.321949285
vt 0.944501608 0.356750346
vt 0.963835531 0.359650435
vt 0.949335089 0.3683507
vt 0.969635708 0.366417308
vt 0.928067773 0.365450612
vt 0.922267597 0.350950169
vt 0.8961668 0.341283208
vt 0.957068658 0.377050966
vt 0.976402581 0.369317396
vt 0.967702316 0.381884446
vt 0.944501608 0.389618016
vt 0.956101962 0.398318281
vt 0.93386795 0.378017662
vt 0.919367508 0.412818723
vt 0.930967862 0.429252558
vt 0.90390037 0.377050966
vt 0.909700547 0.394451496
vt 0.888433231 0.425385773
vt 0.8961668 0.448586481
vt 0.898100193 0.359650435
vt 0.877799573 0.383817839
vt 0.882633054 0.404118458
vt 0.857498954 0.427319166
vt 0.85846565 0.450519873
vt 0.827531373 0.419585596
vt 0.822697893 0.437952823
vt 0.855565562 0.40605185
vt 0.852665473 0.384784535
vt 0.873932789 0.363517219
vt 0.8710327 0.344183296
vt 0.80336397 0.405085154
vt 0.799497185 0.415718812
vt 0.82849807 0.401218369
vt 0.804330666 0.392518104
vt 0.80336397 0.376084269
vt 0.826564677 0.381884446
vt 0.850732081 0.364483916
vt 0.824631285 0.363517219
vt 0.801430577 0.359650435
vt 0.801430577 0.341283208
vt 0.847831993 0.345149992
vt 0.822697893 0.3432166
vt 0.821731196 0.323882677
vt 0.799497185 0.322915981
vt 0.800463881 0.304548754
vt 0.846865296 0.324849373
vt 0.870066004 0.324849373
vt 0.821731196 0.30551545
vt 0.894233408 0.322915981
vt 0.870066004 0.304548754
vt 0.8458986 0.30551545
vt 0.894233408 0.304548754
vt 0.823664589 0.286181527
vt 0.800463881 0.286181527
vt 0.847831993 0.285214831
vt 0.871999396 0.286181527
vt 0.848798689 0.269747692
vt 0.904867066 0.296815185
vt 0.825597981 0.268780996
vt 0.84106512 0.269747692
vt 0.895200104 0.295848489
vt 0.917434116 0.290048312
vt 0.90390037 0.295848489
vt 0.932901254 0.28038135
vt 0.93386795 0.272647781
vt 0.924200989 0.2678143
vt 0.8961668 0.294881792
vt 0.909700547 0.2678143
vt 0.889399927 0.293915096
vt 0.890366623 0.2929484
vt 0.885533143 0.286181527
vt 0.886499839 0.286181527
vt 0.88359975 0.281348046
vt 0.88359975 0.270714389
vt 0.884566446 0.281348046
vt 0.884566446 0.270714389
vt 0.909700547 0.266847604
vt 0.900033585 0.266847604
vt 0.887466535 0.269747692
vt 0.887466535 0.270714389
vt 0.893266712 0.268780996
vt 0.894233408 0.269747692
vt 0.900033585 0.265880908
vt 0.901000281 0.262980819
vt 0.90873385 0.261047427
vt 0.888433231 0.2678143
vt 0.922267597 0.256213946
vt 0.9213009 0.25524725
vt 0.924200989 0.251380465
vt 0.907767154 0.259114035
vt 0.919367508 0.243646896
vt 0.906800458 0.241713504
vt 0.899066889 0.241713504
vt 0.901000281 0.261047427
vt 0.89133332 0.245580289
vt 0.892300016 0.262980819
vt 0.893266712 0.261047427
vt 0.890366623 0.244613592
vt 0.885533143 0.247513681
vt 0.885533143 0.246546985
vt 0.881666358 0.253313858
vt 0.880699662 0.253313858
vt 0.882633054 0.259114035
vt 0.881666358 0.259114035
vt 0.887466535 0.261047427
vt 0.886499839 0.262014123
vt 0.887466535 0.263947515
vt 0.881666358 0.262980819
vt 0.886499839 0.264914212
vt 0.882633054 0.263947515
vt 0.886499839 0.2678143
vt 0.879732966 0.265880908
vt 0.882633054 0.2678143
vt 0.882633054 0.266847604
vt 0.87876627 0.264914212
vt 0.880699662 0.265880908
vt 0.879732966 0.266847604
vt 0.873932789 0.268780996
vt 0.875866181 0.265880908
vt 0.875866181 0.2678143
vt 0.8710327 0.2678143
vt 0.871999396 0.264914212
vt 0.85846565 0.268780996
vt 0.873932789 0.266847604
vt 0.874899485 0.266847604
vt 0.872966093 0.266847604
vt 0.869099308 0.266847604
vt 0.8710327 0.264914212
vt 0.85846565 0.2678143
vt 0.865232523 0.262980819
vt 0.848798689 0.268780996
vt 0.851698777 0.264914212
vt 0.842031816 0.268780996
vt 0.851698777 0.263947515
vt 0.8458986 0.263947515
vt 0.835264943 0.268780996
vt 0.837198335 0.2678143
vt 0.844931904 0.262980819
vt 0.838165031 0.264914212
vt 0.837198335 0.263947515
vt 0.493054504 0.679626862
vt 0.484354239 0.662226331
vt 0.486287631 0.671893293
vt 0.509488339 0.659326243
vt 0.489187719 0.643859104
vt 0.484354239 0.652559369
vt 0.505621554 0.634192143
vt 0.495954592 0.638058927
vt 0.523988781 0.638058927
vt 0.515288516 0.634192143
vt 0.534622439 0.654492762
vt 0.53172235 0.6448258
vt 0.53172235 0.672859989
vt 0.534622439 0.664159723
vt 0.516255212 0.684460343
vt 0.524955477 0.680593558
vt 0.496921289 0.68252695
vt 0.50658825 0.685427039
vt 0.561689931 0.436019431
vt 0.559756539 0.430219254
vt 0.554923058 0.433119342
vt 0.564590019 0.433119342
vt 0.5694235 0.434086039
vt 0.568456804 0.436986127
vt 0.575223677 0.435052735
vt 0.574256981 0.432152646
vt 0.579090462 0.430219254
vt 0.580057158 0.43118595
vt 0.584890639 0.426352469
vt 0.58199055 0.425385773
vt 0.583923943 0.420552292
vt 0.587790727 0.419585596
vt 0.587790727 0.412818723
vt 0.583923943 0.415718812
vt 0.58199055 0.410885331
vt 0.585857335 0.40605185
vt 0.581023854 0.401218369
vt 0.578123766 0.407018546
vt 0.574256981 0.405085154
vt 0.574256981 0.397351585
vt 0.566523412 0.397351585
vt 0.568456804 0.404118458
vt 0.563623323 0.40605185
vt 0.559756539 0.399284977
vt 0.554923058 0.404118458
vt 0.559756539 0.409918635
vt 0.557823146 0.413785419
vt 0.551056273 0.410885331
vt 0.551056273 0.4186189
vt 0.557823146 0.419585596
vt 0.558789843 0.424419077
vt 0.552989666 0.425385773
vt 0.741495416 0.831398158
vt 0.7453622 0.83333155
vt 0.741495416 0.831398158
vt 0.744395504 0.83333155
vt 0.74052872 0.832364854
vt 0.747295593 0.835264943
vt 0.748262289 0.834298246
vt 0.743428808 0.834298246
vt 0.74052872 0.832364854
vt 0.7453622 0.836231639
vt 0.749228985 0.837198335
vt 0.751162377 0.836231639
vt 0.747295593 0.838165031
vt 0.752129073 0.84106512
vt 0.754062466 0.839131727
vt 0.750195681 0.842031816
vt 0.756962554 0.844931904
vt 0.758895946 0.842998512
vt 0.754062466 0.846865296
vt 0.761796035 0.848798689
vt 0.763729427 0.8458986
vt 0.75792925 0.850732081
vt 0.767596212 0.851698777
vt 0.769529604 0.846865296
vt 0.764696123 0.856532258
vt 0.774363085 0.855565562
vt 0.777263173 0.850732081
vt 0.7704963 0.861365739
vt 0.780163262 0.861365739
vt 0.784030046 0.854598866
vt 0.776296477 0.868132612
vt 0.754062466 0.854598866
vt 0.759862643 0.861365739
vt 0.763729427 0.868132612
vt 0.771462996 0.872966093
vt 0.751162377 0.848798689
vt 0.747295593 0.844931904
vt 0.744395504 0.840098423
vt 0.743428808 0.838165031
vt 0.741495416 0.835264943
vt 0.741495416 0.835264943
vt 0.74052872 0.832364854
vt 0.739562023 0.832364854
vt 0.742462112 0.838165031
vt 0.744395504 0.84106512
vt 0.746328896 0.844931904
vt 0.749228985 0.850732081
vt 0.74052872 0.836231639
vt 0.738595327 0.832364854
vt 0.741495416 0.839131727
vt 0.742462112 0.842031816
vt 0.744395504 0.846865296
vt 0.739562023 0.837198335
vt 0.738595327 0.832364854
vt 0.739562023 0.840098423
vt 0.74052872 0.842998512
vt 0.738595327 0.837198335
vt 0.737628631 0.832364854
vt 0.736661935 0.836231639
vt 0.736661935 0.840098423
vt 0.738595327 0.840098423
vt 0.735695239 0.843965208
vt 0.738595327 0.843965208
vt 0.737628631 0.848798689
vt 0.739562023 0.848798689
vt 0.739562023 0.855565562
vt 0.742462112 0.847831993
vt 0.741495416 0.854598866
vt 0.739562023 0.862332435
vt 0.744395504 0.85363217
vt 0.743428808 0.861365739
vt 0.738595327 0.868132612
vt 0.747295593 0.852665473
vt 0.743428808 0.867165916
vt 0.738595327 0.877799573
vt 0.746328896 0.860399043
vt 0.750195681 0.85846565
vt 0.744395504 0.876832877
vt 0.735695239 0.887466535
vt 0.748262289 0.86619922
vt 0.75309577 0.855565562
vt 0.743428808 0.886499839
vt 0.737628631 0.892300016
vt 0.752129073 0.865232523
vt 0.756962554 0.863299131
vt 0.750195681 0.875866181
vt 0.755995858 0.873932789
vt 0.761796035 0.870066004
vt 0.751162377 0.884566446
vt 0.742462112 0.89133332
vt 0.737628631 0.894233408
vt 0.742462112 0.893266712
vt 0.747295593 0.892300016
vt 0.747295593 0.890366623
vt 0.751162377 0.889399927
vt 0.752129073 0.890366623
vt 0.756962554 0.889399927
vt 0.75792925 0.881666358
vt 0.76566282 0.877799573
vt 0.755995858 0.888433231
vt 0.759862643 0.887466535
vt 0.760829339 0.888433231
vt 0.764696123 0.887466535
vt 0.763729427 0.886499839
vt 0.767596212 0.885533143
vt 0.768562908 0.886499839
vt 0.772429693 0.884566446
vt 0.771462996 0.88359975
vt 0.775329781 0.880699662
vt 0.776296477 0.882633054
vt 0.779196566 0.879732966
vt 0.77822987 0.877799573
vt 0.781129958 0.874899485
vt 0.782096654 0.875866181
vt 0.784030046 0.871999396
vt 0.78306335 0.8710327
vt 0.784030046 0.867165916
vt 0.784996743 0.868132612
vt 0.786930135 0.864265827
vt 0.785963439 0.863299131
vt 0.786930135 0.859432346
vt 0.787896831 0.860399043
vt 0.788863527 0.854598866
vt 0.789830223 0.855565562
vt 0.98413615 0.417652204
vt 0.992836416 0.414752116
vt 0.992836416 0.414752116
vt 0.983169454 0.416685508
vt 0.969635708 0.423452381
vt 0.980269366 0.408951939
vt 0.990903023 0.40605185
vt 0.96673562 0.415718812
vt 0.969635708 0.423452381
vt 0.961902139 0.428285862
vt 0.957068658 0.421518989
vt 0.961902139 0.427319166
vt 0.957068658 0.433119342
vt 0.950301785 0.427319166
vt 0.957068658 0.432152646
vt 0.952235177 0.439886216
vt 0.945468304 0.434086039
vt 0.951268481 0.438919519
vt 0.948368393 0.443753
vt 0.94160152 0.439886216
vt 0.948368393 0.442786304
vt 0.946435 0.457286746
vt 0.937734735 0.45632005
vt 0.945468304 0.457286746
vt 0.945468304 0.463086923
vt 0.936768039 0.464053619
vt 0.944501608 0.463086923
vt 0.948368393 0.469853796
vt 0.939668127 0.473720581
vt 0.947401697 0.470820492
vt 0.950301785 0.475653973
vt 0.943534912 0.480487454
vt 0.950301785 0.475653973
vt 0.956101962 0.48145415
vt 0.950301785 0.487254327
vt 0.956101962 0.48145415
vt 0.968669012 0.490154416
vt 0.964802227 0.497887985
vt 0.967702316 0.491121112
vt 0.986069543 0.496921289
vt 0.985102847 0.505621554
vt 0.986069543 0.497887985
vt 0.99186972 0.496921289
vt 0.992836416 0.505621554
vt 0.992836416 0.497887985
vt 0.588757423 0.496921289
vt 0.581023854 0.500788073
vt 0.588757423 0.497887985
vt 0.580057158 0.500788073
vt 0.572323589 0.508521643
vt 0.577157069 0.4940212
vt 0.586824031 0.489187719
vt 0.566523412 0.501754769
vt 0.571356893 0.508521643
vt 0.566523412 0.513355123
vt 0.558789843 0.508521643
vt 0.565556716 0.513355123
vt 0.560723235 0.521088693
vt 0.553956362 0.516255212
vt 0.560723235 0.520121996
vt 0.558789843 0.526888869
vt 0.550089577 0.523022085
vt 0.557823146 0.525922173
vt 0.555889754 0.535589135
vt 0.547189489 0.534622439
vt 0.555889754 0.535589135
vt 0.554923058 0.542356008
vt 0.547189489 0.5442894
vt 0.554923058 0.542356008
vt 0.557823146 0.547189489
vt 0.550089577 0.552022969
vt 0.557823146 0.548156185
vt 0.561689931 0.552989666
vt 0.553956362 0.557823146
vt 0.560723235 0.552989666
vt 0.566523412 0.559756539
vt 0.559756539 0.565556716
vt 0.565556716 0.559756539
vt 0.573290285 0.563623323
vt 0.567490108 0.570390196
vt 0.573290285 0.563623323
vt 0.585857335 0.570390196
vt 0.58199055 0.578123766
vt 0.585857335 0.570390196
vt 0.588757423 0.571356893
vt 0.586824031 0.580057158
vt 0.588757423 0.572323589
vt 0.136343623 0.553956362
vt 0.131510142 0.557823146
vt 0.136343623 0.553956362
vt 0.130543446 0.55685645
vt 0.126676662 0.559756539
vt 0.126676662 0.550089577
vt 0.133443535 0.547189489
vt 0.121843181 0.552989666
vt 0.126676662 0.559756539
vt 0.121843181 0.564590019
vt 0.116043004 0.557823146
vt 0.121843181 0.563623323
vt 0.114109612 0.574256981
vt 0.106376042 0.570390196
vt 0.113142915 0.573290285
vt 0.112176219 0.579090462
vt 0.10444265 0.576190373
vt 0.112176219 0.578123766
vt 0.111209523 0.585857335
vt 0.102509258 0.584890639
vt 0.110242827 0.585857335
vt 0.110242827 0.590690816
vt 0.102509258 0.592624208
vt 0.110242827 0.590690816
vt 0.113142915 0.5945576
vt 0.106376042 0.599391081
vt 0.113142915 0.595524296
vt 0.1170097 0.598424385
vt 0.111209523 0.605191258
vt 0.1170097 0.599391081
vt 0.123776573 0.604224562
vt 0.118943092 0.611958131
vt 0.122809877 0.605191258
vt 0.132476839 0.610024739
vt 0.128610054 0.617758308
vt 0.132476839 0.610991435
vt 0.136343623 0.611958131
vt 0.134410231 0.6196917
vt 0.136343623 0.612924827
vt 0.972535797 0.106376042
vt 0.970602404 0.110242827
vt 0.972535797 0.107342739
vt 0.970602404 0.109276131
vt 0.969635708 0.113142915
vt 0.962868835 0.106376042
vt 0.965768923 0.102509258
vt 0.960935443 0.111209523
vt 0.968669012 0.113142915
vt 0.968669012 0.116043004
vt 0.959968747 0.115076308
vt 0.967702316 0.116043004
vt 0.968669012 0.119909789
vt 0.960935443 0.121843181
vt 0.968669012 0.119909789
vt 0.970602404 0.123776573
vt 0.961902139 0.127643358
vt 0.969635708 0.124743269
vt 0.972535797 0.127643358
vt 0.964802227 0.132476839
vt 0.972535797 0.128610054
vt 0.351916866 0.395418192
vt 0.348050081 0.390584712
vt 0.340316512 0.395418192
vt 0.328716158 0.405085154
vt 0.352883562 0.414752116
vt 0.352883562 0.430219254
vt 0.321949285 0.411852027
vt 0.349016777 0.436986127
vt 0.320015892 0.417652204
vt 0.344183296 0.440852912
vt 0.319049196 0.426352469
vt 0.336449727 0.440852912
vt 0.319049196 0.432152646
vt 0.33064955 0.439886216
vt 0.0377406154 0.48145415
vt 0.0396740077 0.484354239
vt 0.0483742731 0.482420846
vt 0.0551411462 0.472753885
vt 0.0358072231 0.466953708
vt 0.0358072231 0.459220139
vt 0.0580412346 0.465987012
vt 0.0358072231 0.450519873
vt 0.0580412346 0.45632005
vt 0.0396740077 0.444719696
vt 0.0570745385 0.450519873
vt 0.0435407923 0.440852912
vt 0.0503076654 0.443753
vt 0.00390625 0.205945746
vt 0.00583964231 0.209812531
vt 0.0116398192 0.208845835
vt 0.0164733 0.207879139
vt 0.0213067808 0.202078962
vt 0.00390625 0.194345392
vt 0.00487294615 0.186611823
vt 0.0193733885 0.189511912
vt 0.00680633846 0.180811646
vt 0.0184066923 0.184678431
vt 0.00970642693 0.176944862
vt 0.0155066039 0.177911558
vt 0.00390625 0.0474075769
vt 0.00777303462 0.0503076654
vt 0.00970642693 0.0493409692
vt 0.00970642693 0.0454741846
vt 0.00487294615 0.0435407923
vt 0.00873973077 0.0425740962
vt 0.178878254 0.00390625
vt 0.177911558 0.00487294615
vt 0.178878254 0.00487294615
vt 0.177911558 0.00390625
vt 0.177911558 0.00583964231
vt 0.176944862 0.00390625
vt 0.177911558 0.00583964231
vt 0.176944862 0.00390625
vt 0.176944862 0.00487294615
vt 0.0744750693 0.0802752462
vt 0.0764084616 0.0735083731
vt 0.0744750693 0.0725416769
vt 0.0764084616 0.07930855
vt 0.07930855 0.085108727
vt 0.0802752462 0.0686748923
vt 0.0802752462 0.0667415
vt 0.0802752462 0.0841420308
vt 0.0860754231 0.085108727
vt 0.0860754231 0.0677081962
vt 0.0870421193 0.0667415
vt 0.0860754231 0.0831753346
vt 0.0918756 0.07930855
vt 0.0899422077 0.0725416769
vt 0.0918756 0.0715749808
vt 0.0899422077 0.0783418539
vt 0.0783418539 0.0735083731
vt 0.0812419423 0.0706082846
vt 0.0783418539 0.0783418539
vt 0.085108727 0.0696415885
vt 0.0812419423 0.0822086385
vt 0.0880088154 0.0735083731
vt 0.0880088154 0.0783418539
vt 0.085108727 0.0812419423
vt 0.0802752462 0.0744750693
vt 0.0822086385 0.0725416769
vt 0.0831753346 0.0754417654
vt 0.0802752462 0.0773751577
vt 0.0841420308 0.0725416769
vt 0.0822086385 0.07930855
vt 0.0860754231 0.0744750693
vt 0.0841420308 0.07930855
vt 0.0860754231 0.0773751577
vt 0.747295593 0.384784535
vt 0.752129073 0.391551408
vt 0.75309577 0.390584712
vt 0.746328896 0.385751231
vt 0.738595327 0.384784535
vt 0.751162377 0.398318281
vt 0.75309577 0.399284977
vt 0.738595327 0.385751231
vt 0.731828454 0.390584712
vt 0.746328896 0.404118458
vt 0.747295593 0.405085154
vt 0.733761846 0.390584712
vt 0.731828454 0.399284977
vt 0.738595327 0.404118458
vt 0.738595327 0.405085154
vt 0.733761846 0.398318281
vt 0.750195681 0.391551408
vt 0.750195681 0.398318281
vt 0.7453622 0.386717927
vt 0.7453622 0.402185066
vt 0.739562023 0.386717927
vt 0.739562023 0.402185066
vt 0.734728543 0.398318281
vt 0.734728543 0.391551408
vt 0.748262289 0.392518104
vt 0.748262289 0.397351585
vt 0.744395504 0.400251673
vt 0.74052872 0.400251673
vt 0.744395504 0.389618016
vt 0.736661935 0.397351585
vt 0.736661935 0.392518104
vt 0.74052872 0.388651319
vt 0.743428808 0.398318281
vt 0.7453622 0.396384889
vt 0.742462112 0.394451496
vt 0.741495416 0.398318281
vt 0.7453622 0.3934848
vt 0.739562023 0.396384889
vt 0.743428808 0.391551408
vt 0.739562023 0.3934848
vt 0.741495416 0.391551408
vt 0.239780112 0.0174399962
vt 0.240746808 0.0174399962
vt 0.240746808 0.00970642693
vt 0.235913327 0.0213067808
vt 0.235913327 0.0222734769
vt 0.239780112 0.0106731231
vt 0.235913327 0.00390625
vt 0.23011315 0.0213067808
vt 0.229146454 0.0222734769
vt 0.235913327 0.00583964231
vt 0.229146454 0.00390625
vt 0.225279669 0.0155066039
vt 0.224312973 0.0164733
vt 0.23011315 0.00487294615
vt 0.224312973 0.00873973077
vt 0.225279669 0.00970642693
vt 0.234946631 0.0193733885
vt 0.237846719 0.0164733
vt 0.231079846 0.0193733885
vt 0.237846719 0.0116398192
vt 0.227213062 0.0155066039
vt 0.234946631 0.00777303462
vt 0.23011315 0.00777303462
vt 0.227213062 0.0106731231
vt 0.232046542 0.0164733
vt 0.233979935 0.0164733
vt 0.233013239 0.0135732115
vt 0.23011315 0.0145399077
vt 0.235913327 0.0145399077
vt 0.23011315 0.0116398192
vt 0.235913327 0.0126065154
vt 0.231079846 0.00970642693
vt 0.233979935 0.0106731231
vt 0.00970642693 0.0677081962
vt 0.00873973077 0.0648081077
vt 0.00390625 0.0696415885
vt 0.0145399077 0.0677081962
vt 0.0145399077 0.0648081077
vt 0.00583964231 0.0706082846
vt 0.00390625 0.0764084616
vt 0.0174399962 0.0706082846
vt 0.0193733885 0.0696415885
vt 0.00583964231 0.0754417654
vt 0.00873973077 0.0812419423
vt 0.0174399962 0.0754417654
vt 0.0193733885 0.0764084616
vt 0.00970642693 0.07930855
vt 0.0145399077 0.0812419423
vt 0.0145399077 0.07930855
vt 0.0126065154 0.0696415885
vt 0.0106731231 0.0696415885
vt 0.0116398192 0.0735083731
vt 0.0145399077 0.0715749808
vt 0.00873973077 0.0715749808
vt 0.0145399077 0.0744750693
vt 0.00873973077 0.0744750693
vt 0.0126065154 0.0764084616
vt 0.0106731231 0.0764084616
g item_01_04item_01_04_mobile_0
f 3/3/3 2/2/2 1/1/1
f 2/2/2 4/4/4 1/1/1
f 2/2/2 5/5/5 4/4/4
f 1/1/1 4/4/4 6/6/6
f 7/7/7 1/1/1 6/6/6
f 7/7/7 6/6/6 8/8/8
f 5/5/5 9/9/9 4/4/4
f 5/5/5 10/10/10 9/9/9
f 6/6/6 4/4/4 11/11/11
f 4/4/4 9/9/9 11/11/11
f 6/6/6 12/12/12 8/8/8
f 6/6/6 11/11/11 12/12/12
f 10/10/10 13/13/13 9/9/9
f 10/10/10 14/14/14 13/13/13
f 11/11/11 9/9/9 15/15/15
f 9/9/9 13/13/13 15/15/15
f 14/14/14 16/16/16 13/13/13
f 14/14/14 17/17/17 16/16/16
f 8/8/8 12/12/12 18/18/18
f 19/19/19 8/8/8 18/18/18
f 19/19/19 18/18/18 20/20/20
f 11/11/11 21/21/21 12/12/12
f 11/11/11 15/15/15 21/21/21
f 15/15/15 13/13/13 22/22/22
f 13/13/13 16/16/16 22/22/22
f 17/17/17 23/23/23 16/16/16
f 17/17/17 24/24/24 23/23/23
f 18/18/18 12/12/12 25/25/25
f 12/12/12 21/21/21 25/25/25
f 18/18/18 26/26/26 20/20/20
f 18/18/18 25/25/25 26/26/26
f 20/20/20 26/26/26 27/27/27
f 28/28/28 20/20/20 27/27/27
f 28/28/28 27/27/27 29/29/29
f 15/15/15 30/30/30 21/21/21
f 15/15/15 22/22/22 30/30/30
f 22/22/22 16/16/16 31/31/31
f 16/16/16 23/23/23 31/31/31
f 25/25/25 21/21/21 32/32/32
f 21/21/21 30/30/30 32/32/32
f 25/25/25 33/33/33 26/26/26
f 25/25/25 32/32/32 33/33/33
f 22/22/22 34/34/34 30/30/30
f 22/22/22 31/31/31 34/34/34
f 27/27/27 26/26/26 35/35/35
f 26/26/26 33/33/33 35/35/35
f 35/35/35 33/33/33 36/36/36
f 33/33/33 37/37/37 36/36/36
f 32/32/32 37/37/37 33/33/33
f 38/38/38 35/35/35 36/36/36
f 32/32/32 30/30/30 39/39/39
f 30/30/30 34/34/34 39/39/39
f 39/39/39 34/34/34 40/40/40
f 31/31/31 41/41/41 34/34/34
f 34/34/34 41/41/41 40/40/40
f 32/32/32 39/39/39 42/42/42
f 32/32/32 42/42/42 37/37/37
f 31/31/31 43/43/43 41/41/41
f 31/31/31 23/23/23 43/43/43
f 44/44/44 39/39/39 40/40/40
f 39/39/39 44/44/44 42/42/42
f 23/23/23 45/45/45 43/43/43
f 24/24/24 45/45/45 23/23/23
f 45/45/45 24/24/24 46/46/46
f 24/24/24 47/47/47 46/46/46
f 46/46/46 48/48/48 45/45/45
f 48/48/48 43/43/43 45/45/45
f 48/48/48 49/49/49 43/43/43
f 49/49/49 50/50/50 43/43/43
f 43/43/43 50/50/50 41/41/41
f 50/50/50 49/49/49 51/51/51
f 41/41/41 50/50/50 52/52/52
f 52/52/52 50/50/50 51/51/51
f 40/40/40 41/41/41 52/52/52
f 52/52/52 51/51/51 53/53/53
f 54/54/54 52/52/52 53/53/53
f 54/54/54 53/53/53 55/55/55
f 56/56/56 54/54/54 55/55/55
f 56/56/56 55/55/55 57/57/57
f 52/52/52 54/54/54 58/58/58
f 40/40/40 52/52/52 58/58/58
f 58/58/58 54/54/54 56/56/56
f 59/59/59 58/58/58 56/56/56
f 60/60/60 58/58/58 59/59/59
f 40/40/40 58/58/58 60/60/60
f 61/61/61 56/56/56 57/57/57
f 61/61/61 57/57/57 62/62/62
f 63/63/63 61/61/61 62/62/62
f 63/63/63 62/62/62 64/64/64
f 56/56/56 61/61/61 65/65/65
f 65/65/65 61/61/61 63/63/63
f 66/66/66 59/59/59 56/56/56
f 66/66/66 56/56/56 65/65/65
f 67/67/67 40/40/40 60/60/60
f 67/67/67 44/44/44 40/40/40
f 68/68/68 63/63/63 64/64/64
f 68/68/68 64/64/64 69/69/69
f 70/70/70 68/68/68 69/69/69
f 70/70/70 69/69/69 71/71/71
f 63/63/63 68/68/68 72/72/72
f 72/72/72 68/68/68 70/70/70
f 73/73/73 65/65/65 63/63/63
f 73/73/73 63/63/63 72/72/72
f 74/74/74 70/70/70 71/71/71
f 74/74/74 71/71/71 75/75/75
f 76/76/76 74/74/74 75/75/75
f 76/76/76 75/75/75 77/77/77
f 70/70/70 74/74/74 78/78/78
f 78/78/78 74/74/74 76/76/76
f 79/79/79 72/72/72 70/70/70
f 79/79/79 70/70/70 78/78/78
f 80/80/80 76/76/76 77/77/77
f 80/80/80 77/77/77 81/81/81
f 82/82/82 80/80/80 81/81/81
f 82/82/82 81/81/81 83/83/83
f 76/76/76 80/80/80 84/84/84
f 84/84/84 80/80/80 82/82/82
f 85/85/85 78/78/78 76/76/76
f 85/85/85 76/76/76 84/84/84
f 79/79/79 78/78/78 86/86/86
f 86/86/86 78/78/78 85/85/85
f 87/87/87 82/82/82 83/83/83
f 87/87/87 83/83/83 88/88/88
f 89/89/89 87/87/87 88/88/88
f 90/90/90 87/87/87 89/89/89
f 82/82/82 87/87/87 90/90/90
f 91/91/91 90/90/90 89/89/89
f 92/92/92 84/84/84 82/82/82
f 92/92/92 82/82/82 90/90/90
f 93/93/93 90/90/90 91/91/91
f 92/92/92 90/90/90 93/93/93
f 94/94/94 93/93/93 91/91/91
f 85/85/85 84/84/84 95/95/95
f 95/95/95 84/84/84 92/92/92
f 96/96/96 92/92/92 93/93/93
f 96/96/96 95/95/95 92/92/92
f 97/97/97 93/93/93 94/94/94
f 96/96/96 93/93/93 97/97/97
f 98/98/98 97/97/97 94/94/94
f 99/99/99 85/85/85 95/95/95
f 99/99/99 86/86/86 85/85/85
f 100/100/100 95/95/95 96/96/96
f 99/99/99 95/95/95 100/100/100
f 101/101/101 96/96/96 97/97/97
f 101/101/101 100/100/100 96/96/96
f 102/102/102 97/97/97 98/98/98
f 101/101/101 97/97/97 102/102/102
f 103/103/103 102/102/102 98/98/98
f 104/104/104 102/102/102 103/103/103
f 105/105/105 104/104/104 103/103/103
f 106/106/106 101/101/101 102/102/102
f 106/106/106 102/102/102 104/104/104
f 107/107/107 100/100/100 101/101/101
f 106/106/106 107/107/107 101/101/101
f 108/108/108 99/99/99 100/100/100
f 108/108/108 100/100/100 107/107/107
f 109/109/109 86/86/86 99/99/99
f 108/108/108 109/109/109 99/99/99
f 110/110/110 104/104/104 105/105/105
f 111/111/111 110/110/110 105/105/105
f 112/112/112 104/104/104 110/110/110
f 112/112/112 106/106/106 104/104/104
f 113/113/113 112/112/112 110/110/110
f 113/113/113 114/114/114 112/112/112
f 112/112/112 115/115/115 106/106/106
f 115/115/115 107/107/107 106/106/106
f 114/114/114 115/115/115 112/112/112
f 116/116/116 108/108/108 107/107/107
f 116/116/116 107/107/107 115/115/115
f 117/117/117 115/115/115 114/114/114
f 117/117/117 116/116/116 115/115/115
f 118/118/118 117/117/117 114/114/114
f 118/118/118 119/119/119 117/117/117
f 116/116/116 120/120/120 108/108/108
f 120/120/120 109/109/109 108/108/108
f 117/117/117 121/121/121 116/116/116
f 119/119/119 121/121/121 117/117/117
f 121/121/121 120/120/120 116/116/116
f 122/122/122 121/121/121 119/119/119
f 123/123/123 122/122/122 119/119/119
f 123/123/123 124/124/124 122/122/122
f 125/125/125 120/120/120 121/121/121
f 122/122/122 125/125/125 121/121/121
f 126/126/126 109/109/109 120/120/120
f 125/125/125 126/126/126 120/120/120
f 124/124/124 127/127/127 122/122/122
f 122/122/122 127/127/127 125/125/125
f 126/126/126 128/128/128 109/109/109
f 126/126/126 129/129/129 128/128/128
f 128/128/128 86/86/86 109/109/109
f 128/128/128 79/79/79 86/86/86
f 125/125/125 130/130/130 126/126/126
f 127/127/127 130/130/130 125/125/125
f 130/130/130 129/129/129 126/126/126
f 128/128/128 131/131/131 79/79/79
f 129/129/129 131/131/131 128/128/128
f 131/131/131 72/72/72 79/79/79
f 132/132/132 127/127/127 124/124/124
f 133/133/133 132/132/132 124/124/124
f 133/133/133 29/29/29 132/132/132
f 134/134/134 130/130/130 127/127/127
f 132/132/132 134/134/134 127/127/127
f 135/135/135 129/129/129 130/130/130
f 134/134/134 135/135/135 130/130/130
f 134/134/134 136/136/136 135/135/135
f 137/137/137 72/72/72 131/131/131
f 137/137/137 73/73/73 72/72/72
f 29/29/29 138/138/138 132/132/132
f 27/27/27 138/138/138 29/29/29
f 132/132/132 139/139/139 134/134/134
f 139/139/139 136/136/136 134/134/134
f 132/132/132 138/138/138 139/139/139
f 140/140/140 131/131/131 129/129/129
f 140/140/140 137/137/137 131/131/131
f 141/141/141 73/73/73 137/137/137
f 142/142/142 141/141/141 137/137/137
f 142/142/142 137/137/137 140/140/140
f 141/141/141 143/143/143 73/73/73
f 143/143/143 65/65/65 73/73/73
f 143/143/143 144/144/144 65/65/65
f 144/144/144 66/66/66 65/65/65
f 66/66/66 144/144/144 145/145/145
f 59/59/59 66/66/66 145/145/145
f 146/146/146 142/142/142 140/140/140
f 145/145/145 147/147/147 59/59/59
f 146/146/146 140/140/140 148/148/148
f 148/148/148 140/140/140 129/129/129
f 149/149/149 146/146/146 148/148/148
f 150/150/150 148/148/148 129/129/129
f 149/149/149 148/148/148 150/150/150
f 151/151/151 149/149/149 150/150/150
f 135/135/135 150/150/150 129/129/129
f 151/151/151 150/150/150 152/152/152
f 152/152/152 150/150/150 135/135/135
f 152/152/152 135/135/135 153/153/153
f 154/154/154 151/151/151 152/152/152
f 154/154/154 152/152/152 153/153/153
f 155/155/155 154/154/154 153/153/153
f 147/147/147 156/156/156 59/59/59
f 147/147/147 157/157/157 156/156/156
f 153/153/153 158/158/158 155/155/155
f 158/158/158 159/159/159 155/155/155
f 159/159/159 158/158/158 160/160/160
f 161/161/161 159/159/159 160/160/160
f 157/157/157 161/161/161 162/162/162
f 157/157/157 162/162/162 156/156/156
f 161/161/161 160/160/160 162/162/162
f 156/156/156 162/162/162 163/163/163
f 163/163/163 162/162/162 160/160/160
f 156/156/156 164/164/164 59/59/59
f 164/164/164 156/156/156 163/163/163
f 165/165/165 158/158/158 153/153/153
f 165/165/165 160/160/160 158/158/158
f 164/164/164 166/166/166 59/59/59
f 166/166/166 60/60/60 59/59/59
f 166/166/166 164/164/164 167/167/167
f 166/166/166 167/167/167 168/168/168
f 60/60/60 166/166/166 168/168/168
f 164/164/164 169/169/169 167/167/167
f 164/164/164 163/163/163 169/169/169
f 168/168/168 170/170/170 60/60/60
f 170/170/170 67/67/67 60/60/60
f 67/67/67 170/170/170 171/171/171
f 44/44/44 67/67/67 171/171/171
f 44/44/44 171/171/171 172/172/172
f 42/42/42 44/44/44 172/172/172
f 163/163/163 173/173/173 169/169/169
f 42/42/42 172/172/172 174/174/174
f 163/163/163 175/175/175 173/173/173
f 175/175/175 176/176/176 173/173/173
f 175/175/175 163/163/163 160/160/160
f 177/177/177 42/42/42 174/174/174
f 177/177/177 174/174/174 178/178/178
f 42/42/42 177/177/177 37/37/37
f 179/179/179 177/177/177 178/178/178
f 179/179/179 37/37/37 177/177/177
f 179/179/179 178/178/178 180/180/180
f 179/179/179 181/181/181 37/37/37
f 181/181/181 179/179/179 180/180/180
f 181/181/181 180/180/180 182/182/182
f 181/181/181 36/36/36 37/37/37
f 183/183/183 181/181/181 182/182/182
f 181/181/181 183/183/183 36/36/36
f 183/183/183 182/182/182 184/184/184
f 185/185/185 184/184/184 176/176/176
f 175/175/175 185/185/185 176/176/176
f 185/185/185 183/183/183 184/184/184
f 186/186/186 185/185/185 175/175/175
f 186/186/186 175/175/175 160/160/160
f 165/165/165 186/186/186 160/160/160
f 183/183/183 185/185/185 187/187/187
f 36/36/36 183/183/183 187/187/187
f 185/185/185 186/186/186 187/187/187
f 188/188/188 186/186/186 165/165/165
f 188/188/188 189/189/189 186/186/186
f 189/189/189 187/187/187 186/186/186
f 190/190/190 188/188/188 165/165/165
f 189/189/189 191/191/191 187/187/187
f 165/165/165 192/192/192 190/190/190
f 192/192/192 193/193/193 190/190/190
f 192/192/192 165/165/165 153/153/153
f 191/191/191 194/194/194 187/187/187
f 36/36/36 187/187/187 194/194/194
f 191/191/191 195/195/195 194/194/194
f 195/195/195 193/193/193 196/196/196
f 193/193/193 192/192/192 196/196/196
f 195/195/195 196/196/196 194/194/194
f 192/192/192 153/153/153 197/197/197
f 196/196/196 192/192/192 197/197/197
f 135/135/135 197/197/197 153/153/153
f 198/198/198 36/36/36 194/194/194
f 198/198/198 194/194/194 196/196/196
f 199/199/199 196/196/196 197/197/197
f 199/199/199 198/198/198 196/196/196
f 200/200/200 197/197/197 135/135/135
f 199/199/199 197/197/197 200/200/200
f 201/201/201 36/36/36 198/198/198
f 201/201/201 38/38/38 36/36/36
f 202/202/202 200/200/200 135/135/135
f 136/136/136 202/202/202 135/135/135
f 203/203/203 198/198/198 199/199/199
f 203/203/203 201/201/201 198/198/198
f 199/199/199 200/200/200 204/204/204
f 204/204/204 205/205/205 199/199/199
f 205/205/205 203/203/203 199/199/199
f 200/200/200 206/206/206 204/204/204
f 200/200/200 202/202/202 206/206/206
f 203/203/203 205/205/205 207/207/207
f 201/201/201 203/203/203 207/207/207
f 202/202/202 208/208/208 206/206/206
f 202/202/202 136/136/136 208/208/208
f 201/201/201 207/207/207 209/209/209
f 38/38/38 201/201/201 209/209/209
f 136/136/136 210/210/210 208/208/208
f 136/136/136 139/139/139 210/210/210
f 38/38/38 209/209/209 211/211/211
f 139/139/139 212/212/212 210/210/210
f 213/213/213 38/38/38 211/211/211
f 213/213/213 211/211/211 214/214/214
f 38/38/38 213/213/213 35/35/35
f 139/139/139 215/215/215 212/212/212
f 215/215/215 216/216/216 212/212/212
f 138/138/138 215/215/215 139/139/139
f 217/217/217 213/213/213 214/214/214
f 35/35/35 213/213/213 217/217/217
f 217/217/217 214/214/214 218/218/218
f 27/27/27 35/35/35 217/217/217
f 219/219/219 218/218/218 216/216/216
f 215/215/215 219/219/219 216/216/216
f 219/219/219 215/215/215 138/138/138
f 219/219/219 217/217/217 218/218/218
f 27/27/27 219/219/219 138/138/138
f 27/27/27 217/217/217 219/219/219
f 222/222/222 221/221/221 220/220/220
f 221/221/221 223/223/223 220/220/220
f 224/224/224 223/223/223 221/221/221
f 225/225/225 224/224/224 221/221/221
f 226/226/226 223/223/223 224/224/224
f 227/227/227 226/226/226 224/224/224
f 228/228/228 223/223/223 226/226/226
f 229/229/229 228/228/228 226/226/226
f 230/230/230 223/223/223 228/228/228
f 231/231/231 230/230/230 228/228/228
f 232/232/232 223/223/223 230/230/230
f 233/233/233 232/232/232 230/230/230
f 234/234/234 223/223/223 232/232/232
f 235/235/235 234/234/234 232/232/232
f 236/236/236 223/223/223 234/234/234
f 237/237/237 236/236/236 234/234/234
f 240/240/240 239/239/239 238/238/238
f 239/239/239 241/241/241 238/238/238
f 238/238/238 241/241/241 242/242/242
f 243/243/243 238/238/238 242/242/242
f 243/243/243 242/242/242 244/244/244
f 242/242/242 245/245/245 244/244/244
f 244/244/244 245/245/245 246/246/246
f 247/247/247 244/244/244 246/246/246
f 247/247/247 246/246/246 248/248/248
f 246/246/246 249/249/249 248/248/248
f 248/248/248 249/249/249 250/250/250
f 251/251/251 248/248/248 250/250/250
f 251/251/251 250/250/250 252/252/252
f 250/250/250 253/253/253 252/252/252
f 252/252/252 253/253/253 254/254/254
f 255/255/255 252/252/252 254/254/254
f 255/255/255 254/254/254 256/256/256
f 254/254/254 257/257/257 256/256/256
f 256/256/256 257/257/257 258/258/258
f 259/259/259 256/256/256 258/258/258
f 259/259/259 258/258/258 260/260/260
f 258/258/258 261/261/261 260/260/260
f 260/260/260 261/261/261 262/262/262
f 263/263/263 260/260/260 262/262/262
f 263/263/263 262/262/262 264/264/264
f 262/262/262 265/265/265 264/264/264
f 264/264/264 265/265/265 266/266/266
f 267/267/267 264/264/264 266/266/266
f 267/267/267 266/266/266 268/268/268
f 266/266/266 269/269/269 268/268/268
f 268/268/268 269/269/269 270/270/270
f 271/271/271 268/268/268 270/270/270
f 274/274/274 273/273/273 272/272/272
f 273/273/273 275/275/275 272/272/272
f 272/272/272 275/275/275 276/276/276
f 277/277/277 275/275/275 273/273/273
f 278/278/278 277/277/277 273/273/273
f 275/275/275 279/279/279 276/276/276
f 276/276/276 279/279/279 280/280/280
f 277/277/277 281/281/281 275/275/275
f 281/281/281 279/279/279 275/275/275
f 282/282/282 277/277/277 278/278/278
f 283/283/283 282/282/282 278/278/278
f 284/284/284 281/281/281 277/277/277
f 282/282/282 284/284/284 277/277/277
f 285/285/285 282/282/282 283/283/283
f 286/286/286 285/285/285 283/283/283
f 287/287/287 284/284/284 282/282/282
f 285/285/285 287/287/287 282/282/282
f 288/288/288 285/285/285 286/286/286
f 289/289/289 288/288/288 286/286/286
f 290/290/290 287/287/287 285/285/285
f 288/288/288 290/290/290 285/285/285
f 291/291/291 288/288/288 289/289/289
f 292/292/292 291/291/291 289/289/289
f 293/293/293 290/290/290 288/288/288
f 291/291/291 293/293/293 288/288/288
f 294/294/294 291/291/291 292/292/292
f 295/295/295 294/294/294 292/292/292
f 296/296/296 293/293/293 291/291/291
f 294/294/294 296/296/296 291/291/291
f 297/297/297 294/294/294 295/295/295
f 298/298/298 297/297/297 295/295/295
f 299/299/299 296/296/296 294/294/294
f 297/297/297 299/299/299 294/294/294
f 300/300/300 297/297/297 298/298/298
f 301/301/301 300/300/300 298/298/298
f 302/302/302 299/299/299 297/297/297
f 300/300/300 302/302/302 297/297/297
f 293/293/293 303/303/303 290/290/290
f 296/296/296 304/304/304 293/293/293
f 304/304/304 303/303/303 293/293/293
f 299/299/299 305/305/305 296/296/296
f 305/305/305 304/304/304 296/296/296
f 302/302/302 306/306/306 299/299/299
f 306/306/306 305/305/305 299/299/299
f 303/303/303 307/307/307 290/290/290
f 290/290/290 307/307/307 287/287/287
f 307/307/307 308/308/308 287/287/287
f 287/287/287 308/308/308 284/284/284
f 308/308/308 309/309/309 284/284/284
f 284/284/284 309/309/309 281/281/281
f 309/309/309 310/310/310 281/281/281
f 281/281/281 310/310/310 279/279/279
f 310/310/310 311/311/311 279/279/279
f 279/279/279 311/311/311 280/280/280
f 311/311/311 312/312/312 280/280/280
f 312/312/312 313/313/313 280/280/280
f 313/313/313 312/312/312 314/314/314
f 311/311/311 310/310/310 315/315/315
f 312/312/312 311/311/311 315/315/315
f 309/309/309 316/316/316 310/310/310
f 316/316/316 315/315/315 310/310/310
f 308/308/308 317/317/317 309/309/309
f 317/317/317 316/316/316 309/309/309
f 308/308/308 307/307/307 318/318/318
f 317/317/317 308/308/308 318/318/318
f 312/312/312 319/319/319 314/314/314
f 314/314/314 319/319/319 320/320/320
f 315/315/315 321/321/321 312/312/312
f 321/321/321 319/319/319 312/312/312
f 316/316/316 322/322/322 315/315/315
f 322/322/322 321/321/321 315/315/315
f 317/317/317 323/323/323 316/316/316
f 323/323/323 322/322/322 316/316/316
f 319/319/319 324/324/324 320/320/320
f 320/320/320 324/324/324 325/325/325
f 321/321/321 326/326/326 319/319/319
f 326/326/326 324/324/324 319/319/319
f 322/322/322 327/327/327 321/321/321
f 327/327/327 326/326/326 321/321/321
f 324/324/324 328/328/328 325/325/325
f 325/325/325 328/328/328 329/329/329
f 328/328/328 330/330/330 329/329/329
f 330/330/330 328/328/328 331/331/331
f 332/332/332 328/328/328 324/324/324
f 328/328/328 332/332/332 331/331/331
f 326/326/326 332/332/332 324/324/324
f 333/333/333 331/331/331 332/332/332
f 334/334/334 332/332/332 326/326/326
f 334/334/334 333/333/333 332/332/332
f 327/327/327 334/334/334 326/326/326
f 335/335/335 333/333/333 334/334/334
f 336/336/336 335/335/335 334/334/334
f 336/336/336 334/334/334 327/327/327
f 335/335/335 336/336/336 337/337/337
f 338/338/338 327/327/327 322/322/322
f 338/338/338 336/336/336 327/327/327
f 323/323/323 338/338/338 322/322/322
f 336/336/336 339/339/339 337/337/337
f 339/339/339 336/336/336 338/338/338
f 340/340/340 337/337/337 339/339/339
f 341/341/341 338/338/338 323/323/323
f 341/341/341 339/339/339 338/338/338
f 342/342/342 340/340/340 339/339/339
f 342/342/342 339/339/339 341/341/341
f 340/340/340 342/342/342 343/343/343
f 344/344/344 341/341/341 323/323/323
f 344/344/344 323/323/323 317/317/317
f 318/318/318 344/344/344 317/317/317
f 342/342/342 345/345/345 343/343/343
f 346/346/346 343/343/343 345/345/345
f 347/347/347 342/342/342 341/341/341
f 347/347/347 341/341/341 344/344/344
f 345/345/345 342/342/342 347/347/347
f 348/348/348 344/344/344 318/318/318
f 348/348/348 347/347/347 344/344/344
f 349/349/349 346/346/346 345/345/345
f 350/350/350 346/346/346 349/349/349
f 351/351/351 345/345/345 347/347/347
f 351/351/351 347/347/347 348/348/348
f 349/349/349 345/345/345 351/351/351
f 352/352/352 348/348/348 318/318/318
f 352/352/352 318/318/318 307/307/307
f 303/303/303 352/352/352 307/307/307
f 353/353/353 350/350/350 349/349/349
f 354/354/354 350/350/350 353/353/353
f 355/355/355 351/351/351 348/348/348
f 355/355/355 348/348/348 352/352/352
f 352/352/352 303/303/303 356/356/356
f 356/356/356 355/355/355 352/352/352
f 303/303/303 304/304/304 356/356/356
f 357/357/357 349/349/349 351/351/351
f 357/357/357 351/351/351 355/355/355
f 353/353/353 349/349/349 357/357/357
f 358/358/358 355/355/355 356/356/356
f 358/358/358 357/357/357 355/355/355
f 359/359/359 356/356/356 304/304/304
f 359/359/359 358/358/358 356/356/356
f 305/305/305 359/359/359 304/304/304
f 360/360/360 357/357/357 358/358/358
f 360/360/360 353/353/353 357/357/357
f 361/361/361 354/354/354 353/353/353
f 362/362/362 354/354/354 361/361/361
f 363/363/363 362/362/362 361/361/361
f 363/363/363 361/361/361 364/364/364
f 361/361/361 353/353/353 365/365/365
f 361/361/361 365/365/365 364/364/364
f 365/365/365 353/353/353 360/360/360
f 364/364/364 365/365/365 366/366/366
f 366/366/366 365/365/365 360/360/360
f 367/367/367 364/364/364 366/366/366
f 367/367/367 366/366/366 368/368/368
f 369/369/369 358/358/358 359/359/359
f 369/369/369 360/360/360 358/358/358
f 370/370/370 359/359/359 305/305/305
f 370/370/370 369/369/369 359/359/359
f 306/306/306 370/370/370 305/305/305
f 366/366/366 360/360/360 371/371/371
f 366/366/366 371/371/371 368/368/368
f 371/371/371 360/360/360 369/369/369
f 368/368/368 371/371/371 372/372/372
f 372/372/372 371/371/371 369/369/369
f 373/373/373 368/368/368 372/372/372
f 373/373/373 372/372/372 374/374/374
f 372/372/372 369/369/369 375/375/375
f 372/372/372 375/375/375 374/374/374
f 375/375/375 369/369/369 370/370/370
f 374/374/374 375/375/375 376/376/376
f 376/376/376 375/375/375 370/370/370
f 377/377/377 374/374/374 376/376/376
f 377/377/377 376/376/376 378/378/378
f 376/376/376 370/370/370 379/379/379
f 376/376/376 379/379/379 378/378/378
f 379/379/379 370/370/370 306/306/306
f 378/378/378 379/379/379 380/380/380
f 380/380/380 379/379/379 306/306/306
f 381/381/381 378/378/378 380/380/380
f 381/381/381 380/380/380 382/382/382
f 380/380/380 306/306/306 383/383/383
f 380/380/380 383/383/383 382/382/382
f 383/383/383 306/306/306 302/302/302
f 382/382/382 383/383/383 384/384/384
f 384/384/384 383/383/383 302/302/302
f 385/385/385 382/382/382 384/384/384
f 385/385/385 384/384/384 386/386/386
f 384/384/384 302/302/302 387/387/387
f 384/384/384 387/387/387 386/386/386
f 387/387/387 302/302/302 300/300/300
f 386/386/386 387/387/387 388/388/388
f 388/388/388 387/387/387 300/300/300
f 389/389/389 386/386/386 388/388/388
f 389/389/389 388/388/388 390/390/390
f 388/388/388 300/300/300 391/391/391
f 388/388/388 391/391/391 390/390/390
f 391/391/391 300/300/300 301/301/301
f 390/390/390 391/391/391 392/392/392
f 392/392/392 391/391/391 301/301/301
f 393/393/393 390/390/390 392/392/392
f 392/392/392 301/301/301 394/394/394
f 393/393/393 392/392/392 395/395/395
f 392/392/392 394/394/394 395/395/395
f 398/398/398 397/397/397 396/396/396
f 399/399/399 398/398/398 396/396/396
f 396/396/396 400/400/400 399/399/399
f 398/398/398 399/399/399 401/401/401
f 402/402/402 398/398/398 401/401/401
f 401/401/401 399/399/399 403/403/403
f 400/400/400 404/404/404 399/399/399
f 399/399/399 404/404/404 403/403/403
f 400/400/400 405/405/405 404/404/404
f 403/403/403 404/404/404 406/406/406
f 405/405/405 407/407/407 404/404/404
f 404/404/404 407/407/407 406/406/406
f 405/405/405 408/408/408 407/407/407
f 406/406/406 407/407/407 409/409/409
f 408/408/408 410/410/410 407/407/407
f 407/407/407 410/410/410 409/409/409
f 408/408/408 411/411/411 410/410/410
f 409/409/409 410/410/410 412/412/412
f 411/411/411 413/413/413 410/410/410
f 410/410/410 413/413/413 412/412/412
f 411/411/411 414/414/414 413/413/413
f 412/412/412 413/413/413 415/415/415
f 414/414/414 416/416/416 413/413/413
f 413/413/413 416/416/416 415/415/415
f 414/414/414 417/417/417 416/416/416
f 415/415/415 416/416/416 418/418/418
f 417/417/417 419/419/419 416/416/416
f 416/416/416 419/419/419 418/418/418
f 417/417/417 420/420/420 419/419/419
f 418/418/418 419/419/419 421/421/421
f 420/420/420 422/422/422 419/419/419
f 419/419/419 422/422/422 421/421/421
f 420/420/420 423/423/423 422/422/422
f 421/421/421 422/422/422 424/424/424
f 423/423/423 425/425/425 422/422/422
f 422/422/422 425/425/425 424/424/424
f 423/423/423 426/426/426 425/425/425
f 424/424/424 425/425/425 427/427/427
f 426/426/426 428/428/428 425/425/425
f 425/425/425 428/428/428 427/427/427
f 426/426/426 429/429/429 428/428/428
f 427/427/427 428/428/428 430/430/430
f 429/429/429 431/431/431 428/428/428
f 428/428/428 431/431/431 430/430/430
f 429/429/429 432/432/432 431/431/431
f 430/430/430 431/431/431 433/433/433
f 432/432/432 434/434/434 431/431/431
f 431/431/431 434/434/434 433/433/433
f 432/432/432 435/435/435 434/434/434
f 433/433/433 434/434/434 436/436/436
f 435/435/435 437/437/437 434/434/434
f 434/434/434 437/437/437 436/436/436
f 435/435/435 438/438/438 437/437/437
f 436/436/436 437/437/437 439/439/439
f 438/438/438 440/440/440 437/437/437
f 437/437/437 440/440/440 439/439/439
f 443/443/443 442/442/442 441/441/441
f 442/442/442 444/444/444 441/441/441
f 444/444/444 442/442/442 445/445/445
f 441/441/441 444/444/444 446/446/446
f 447/447/447 441/441/441 446/446/446
f 446/446/446 444/444/444 448/448/448
f 449/449/449 444/444/444 445/445/445
f 444/444/444 449/449/449 448/448/448
f 449/449/449 445/445/445 450/450/450
f 448/448/448 449/449/449 451/451/451
f 452/452/452 449/449/449 450/450/450
f 449/449/449 452/452/452 451/451/451
f 452/452/452 450/450/450 453/453/453
f 451/451/451 452/452/452 454/454/454
f 455/455/455 452/452/452 453/453/453
f 452/452/452 455/455/455 454/454/454
f 455/455/455 453/453/453 456/456/456
f 454/454/454 455/455/455 457/457/457
f 458/458/458 455/455/455 456/456/456
f 455/455/455 458/458/458 457/457/457
f 458/458/458 456/456/456 459/459/459
f 457/457/457 458/458/458 460/460/460
f 461/461/461 458/458/458 459/459/459
f 458/458/458 461/461/461 460/460/460
f 461/461/461 459/459/459 462/462/462
f 460/460/460 461/461/461 463/463/463
f 464/464/464 461/461/461 462/462/462
f 461/461/461 464/464/464 463/463/463
f 464/464/464 462/462/462 465/465/465
f 463/463/463 464/464/464 466/466/466
f 467/467/467 464/464/464 465/465/465
f 464/464/464 467/467/467 466/466/466
f 467/467/467 465/465/465 468/468/468
f 466/466/466 467/467/467 469/469/469
f 470/470/470 467/467/467 468/468/468
f 467/467/467 470/470/470 469/469/469
f 470/470/470 468/468/468 471/471/471
f 469/469/469 470/470/470 472/472/472
f 473/473/473 470/470/470 471/471/471
f 470/470/470 473/473/473 472/472/472
f 473/473/473 471/471/471 474/474/474
f 475/475/475 472/472/472 473/473/473
f 476/476/476 473/473/473 474/474/474
f 476/476/476 475/475/475 473/473/473
f 476/476/476 474/474/474 477/477/477
f 475/475/475 476/476/476 478/478/478
f 479/479/479 476/476/476 477/477/477
f 476/476/476 479/479/479 478/478/478
f 479/479/479 477/477/477 480/480/480
f 478/478/478 479/479/479 481/481/481
f 482/482/482 479/479/479 480/480/480
f 479/479/479 482/482/482 481/481/481
f 485/485/485 484/484/484 483/483/483
f 484/484/484 486/486/486 483/483/483
f 486/486/486 484/484/484 487/487/487
f 483/483/483 486/486/486 488/488/488
f 489/489/489 483/483/483 488/488/488
f 488/488/488 486/486/486 490/490/490
f 491/491/491 486/486/486 487/487/487
f 486/486/486 491/491/491 490/490/490
f 491/491/491 487/487/487 492/492/492
f 490/490/490 491/491/491 493/493/493
f 494/494/494 491/491/491 492/492/492
f 491/491/491 494/494/494 493/493/493
f 494/494/494 492/492/492 495/495/495
f 493/493/493 494/494/494 496/496/496
f 497/497/497 494/494/494 495/495/495
f 494/494/494 497/497/497 496/496/496
f 497/497/497 495/495/495 498/498/498
f 496/496/496 497/497/497 499/499/499
f 500/500/500 497/497/497 498/498/498
f 497/497/497 500/500/500 499/499/499
f 500/500/500 498/498/498 501/501/501
f 499/499/499 500/500/500 502/502/502
f 503/503/503 500/500/500 501/501/501
f 500/500/500 503/503/503 502/502/502
f 503/503/503 501/501/501 504/504/504
f 502/502/502 503/503/503 505/505/505
f 506/506/506 503/503/503 504/504/504
f 503/503/503 506/506/506 505/505/505
f 506/506/506 504/504/504 507/507/507
f 505/505/505 506/506/506 508/508/508
f 509/509/509 506/506/506 507/507/507
f 506/506/506 509/509/509 508/508/508
f 509/509/509 507/507/507 510/510/510
f 508/508/508 509/509/509 511/511/511
f 512/512/512 509/509/509 510/510/510
f 509/509/509 512/512/512 511/511/511
f 512/512/512 510/510/510 513/513/513
f 511/511/511 512/512/512 514/514/514
f 515/515/515 512/512/512 513/513/513
f 512/512/512 515/515/515 514/514/514
f 515/515/515 513/513/513 516/516/516
f 514/514/514 515/515/515 517/517/517
f 518/518/518 515/515/515 516/516/516
f 515/515/515 518/518/518 517/517/517
f 518/518/518 516/516/516 519/519/519
f 517/517/517 518/518/518 520/520/520
f 521/521/521 518/518/518 519/519/519
f 518/518/518 521/521/521 520/520/520
f 524/524/524 523/523/523 522/522/522
f 523/523/523 525/525/525 522/522/522
f 523/523/523 526/526/526 525/525/525
f 522/522/522 525/525/525 527/527/527
f 528/528/528 522/522/522 527/527/527
f 527/527/527 525/525/525 529/529/529
f 526/526/526 530/530/530 525/525/525
f 525/525/525 530/530/530 529/529/529
f 526/526/526 531/531/531 530/530/530
f 529/529/529 530/530/530 532/532/532
f 531/531/531 533/533/533 530/530/530
f 530/530/530 533/533/533 532/532/532
f 533/533/533 531/531/531 534/534/534
f 532/532/532 533/533/533 535/535/535
f 536/536/536 533/533/533 534/534/534
f 533/533/533 536/536/536 535/535/535
f 534/534/534 537/537/537 536/536/536
f 535/535/535 536/536/536 538/538/538
f 537/537/537 539/539/539 536/536/536
f 536/536/536 539/539/539 538/538/538
f 537/537/537 540/540/540 539/539/539
f 538/538/538 539/539/539 541/541/541
f 540/540/540 542/542/542 539/539/539
f 539/539/539 542/542/542 541/541/541
f 545/545/545 544/544/544 543/543/543
f 545/545/545 543/543/543 546/546/546
f 543/543/543 547/547/547 546/546/546
f 547/547/547 548/548/548 546/546/546
f 548/548/548 549/549/549 546/546/546
f 548/548/548 550/550/550 549/549/549
f 550/550/550 551/551/551 549/549/549
f 550/550/550 552/552/552 551/551/551
f 552/552/552 553/553/553 551/551/551
f 552/552/552 554/554/554 553/553/553
f 554/554/554 555/555/555 553/553/553
f 554/554/554 556/556/556 555/555/555
f 559/559/559 558/558/558 557/557/557
f 560/560/560 559/559/559 557/557/557
f 561/561/561 560/560/560 557/557/557
f 561/561/561 562/562/562 560/560/560
f 562/562/562 563/563/563 560/560/560
f 562/562/562 564/564/564 563/563/563
f 564/564/564 565/565/565 563/563/563
f 564/564/564 566/566/566 565/565/565
f 566/566/566 567/567/567 565/565/565
f 566/566/566 568/568/568 567/567/567
f 568/568/568 569/569/569 567/567/567
f 572/572/572 571/571/571 570/570/570
f 573/573/573 572/572/572 570/570/570
f 574/574/574 573/573/573 570/570/570
f 575/575/575 574/574/574 570/570/570
f 575/575/575 576/576/576 574/574/574
f 576/576/576 577/577/577 574/574/574
f 576/576/576 578/578/578 577/577/577
f 578/578/578 579/579/579 577/577/577
f 578/578/578 580/580/580 579/579/579
f 580/580/580 581/581/581 579/579/579
f 584/584/584 583/583/583 582/582/582
f 585/585/585 584/584/584 582/582/582
f 586/586/586 585/585/585 582/582/582
f 586/586/586 587/587/587 585/585/585
f 590/590/590 589/589/589 588/588/588
f 588/588/588 589/589/589 591/591/591
f 592/592/592 589/589/589 590/590/590
f 591/591/591 589/589/589 593/593/593
f 594/594/594 589/589/589 592/592/592
f 595/595/595 593/593/593 589/589/589
f 596/596/596 589/589/589 594/594/594
f 596/596/596 595/595/595 589/589/589
f 599/599/599 598/598/598 597/597/597
f 598/598/598 600/600/600 597/597/597
f 597/597/597 600/600/600 601/601/601
f 602/602/602 598/598/598 599/599/599
f 603/603/603 602/602/602 599/599/599
f 600/600/600 604/604/604 601/601/601
f 601/601/601 604/604/604 605/605/605
f 606/606/606 602/602/602 603/603/603
f 607/607/607 606/606/606 603/603/603
f 604/604/604 608/608/608 605/605/605
f 605/605/605 608/608/608 609/609/609
f 610/610/610 606/606/606 607/607/607
f 611/611/611 610/610/610 607/607/607
f 609/609/609 612/612/612 611/611/611
f 608/608/608 612/612/612 609/609/609
f 612/612/612 610/610/610 611/611/611
f 598/598/598 613/613/613 600/600/600
f 602/602/602 614/614/614 598/598/598
f 614/614/614 613/613/613 598/598/598
f 600/600/600 615/615/615 604/604/604
f 613/613/613 615/615/615 600/600/600
f 606/606/606 616/616/616 602/602/602
f 616/616/616 614/614/614 602/602/602
f 604/604/604 617/617/617 608/608/608
f 615/615/615 617/617/617 604/604/604
f 610/610/610 618/618/618 606/606/606
f 618/618/618 616/616/616 606/606/606
f 612/612/612 619/619/619 610/610/610
f 619/619/619 618/618/618 610/610/610
f 608/608/608 620/620/620 612/612/612
f 617/617/617 620/620/620 608/608/608
f 620/620/620 619/619/619 612/612/612
f 613/613/613 621/621/621 615/615/615
f 614/614/614 622/622/622 613/613/613
f 622/622/622 621/621/621 613/613/613
f 622/622/622 623/623/623 621/621/621
f 621/621/621 624/624/624 615/615/615
f 615/615/615 624/624/624 617/617/617
f 621/621/621 623/623/623 624/624/624
f 625/625/625 622/622/622 614/614/614
f 616/616/616 625/625/625 614/614/614
f 625/625/625 623/623/623 622/622/622
f 624/624/624 626/626/626 617/617/617
f 617/617/617 626/626/626 620/620/620
f 624/624/624 623/623/623 626/626/626
f 627/627/627 625/625/625 616/616/616
f 627/627/627 623/623/623 625/625/625
f 618/618/618 627/627/627 616/616/616
f 626/626/626 628/628/628 620/620/620
f 620/620/620 628/628/628 619/619/619
f 626/626/626 623/623/623 628/628/628
f 629/629/629 627/627/627 618/618/618
f 619/619/619 629/629/629 618/618/618
f 628/628/628 629/629/629 619/619/619
f 629/629/629 623/623/623 627/627/627
f 628/628/628 623/623/623 629/629/629
f 632/632/632 631/631/631 630/630/630
f 631/631/631 633/633/633 630/630/630
f 630/630/630 633/633/633 634/634/634
f 635/635/635 631/631/631 632/632/632
f 636/636/636 635/635/635 632/632/632
f 633/633/633 637/637/637 634/634/634
f 634/634/634 637/637/637 638/638/638
f 639/639/639 635/635/635 636/636/636
f 640/640/640 639/639/639 636/636/636
f 637/637/637 641/641/641 638/638/638
f 638/638/638 641/641/641 642/642/642
f 643/643/643 639/639/639 640/640/640
f 644/644/644 643/643/643 640/640/640
f 642/642/642 645/645/645 644/644/644
f 641/641/641 645/645/645 642/642/642
f 645/645/645 643/643/643 644/644/644
f 631/631/631 646/646/646 633/633/633
f 635/635/635 647/647/647 631/631/631
f 647/647/647 646/646/646 631/631/631
f 633/633/633 648/648/648 637/637/637
f 646/646/646 648/648/648 633/633/633
f 639/639/639 649/649/649 635/635/635
f 649/649/649 647/647/647 635/635/635
f 637/637/637 650/650/650 641/641/641
f 648/648/648 650/650/650 637/637/637
f 643/643/643 651/651/651 639/639/639
f 651/651/651 649/649/649 639/639/639
f 645/645/645 652/652/652 643/643/643
f 652/652/652 651/651/651 643/643/643
f 641/641/641 653/653/653 645/645/645
f 650/650/650 653/653/653 641/641/641
f 653/653/653 652/652/652 645/645/645
f 646/646/646 654/654/654 648/648/648
f 647/647/647 655/655/655 646/646/646
f 655/655/655 654/654/654 646/646/646
f 649/649/649 656/656/656 647/647/647
f 656/656/656 655/655/655 647/647/647
f 651/651/651 657/657/657 649/649/649
f 657/657/657 656/656/656 649/649/649
f 648/648/648 658/658/658 650/650/650
f 654/654/654 658/658/658 648/648/648
f 652/652/652 659/659/659 651/651/651
f 659/659/659 657/657/657 651/651/651
f 653/653/653 660/660/660 652/652/652
f 660/660/660 659/659/659 652/652/652
f 650/650/650 661/661/661 653/653/653
f 658/658/658 661/661/661 650/650/650
f 661/661/661 660/660/660 653/653/653
f 656/656/656 662/662/662 655/655/655
f 655/655/655 663/663/663 654/654/654
f 662/662/662 663/663/663 655/655/655
f 662/662/662 664/664/664 663/663/663
f 665/665/665 662/662/662 656/656/656
f 657/657/657 665/665/665 656/656/656
f 665/665/665 664/664/664 662/662/662
f 663/663/663 666/666/666 654/654/654
f 654/654/654 666/666/666 658/658/658
f 663/663/663 664/664/664 666/666/666
f 667/667/667 665/665/665 657/657/657
f 659/659/659 667/667/667 657/657/657
f 667/667/667 664/664/664 665/665/665
f 666/666/666 668/668/668 658/658/658
f 658/658/658 668/668/668 661/661/661
f 666/666/666 664/664/664 668/668/668
f 669/669/669 667/667/667 659/659/659
f 660/660/660 669/669/669 659/659/659
f 669/669/669 664/664/664 667/667/667
f 661/661/661 670/670/670 660/660/660
f 668/668/668 670/670/670 661/661/661
f 668/668/668 664/664/664 670/670/670
f 670/670/670 669/669/669 660/660/660
f 670/670/670 664/664/664 669/669/669
f 673/673/673 672/672/672 671/671/671
f 671/671/671 672/672/672 674/674/674
f 672/672/672 675/675/675 674/674/674
f 676/676/676 673/673/673 671/671/671
f 677/677/677 673/673/673 676/676/676
f 674/674/674 675/675/675 678/678/678
f 675/675/675 679/679/679 678/678/678
f 680/680/680 677/677/677 676/676/676
f 681/681/681 677/677/677 680/680/680
f 678/678/678 679/679/679 682/682/682
f 679/679/679 683/683/683 682/682/682
f 684/684/684 681/681/681 680/680/680
f 685/685/685 681/681/681 684/684/684
f 683/683/683 685/685/685 686/686/686
f 682/682/682 683/683/683 686/686/686
f 686/686/686 685/685/685 684/684/684
f 671/671/671 674/674/674 687/687/687
f 676/676/676 671/671/671 688/688/688
f 688/688/688 671/671/671 687/687/687
f 674/674/674 678/678/678 689/689/689
f 687/687/687 674/674/674 689/689/689
f 680/680/680 676/676/676 690/690/690
f 690/690/690 676/676/676 688/688/688
f 678/678/678 682/682/682 691/691/691
f 689/689/689 678/678/678 691/691/691
f 684/684/684 680/680/680 692/692/692
f 692/692/692 680/680/680 690/690/690
f 686/686/686 684/684/684 693/693/693
f 693/693/693 684/684/684 692/692/692
f 682/682/682 686/686/686 694/694/694
f 691/691/691 682/682/682 694/694/694
f 694/694/694 686/686/686 693/693/693
f 687/687/687 689/689/689 695/695/695
f 688/688/688 687/687/687 696/696/696
f 696/696/696 687/687/687 695/695/695
f 695/695/695 697/697/697 696/696/696
f 695/695/695 689/689/689 698/698/698
f 689/689/689 691/691/691 698/698/698
f 698/698/698 697/697/697 695/695/695
f 699/699/699 688/688/688 696/696/696
f 696/696/696 697/697/697 699/699/699
f 690/690/690 688/688/688 699/699/699
f 698/698/698 691/691/691 700/700/700
f 691/691/691 694/694/694 700/700/700
f 700/700/700 697/697/697 698/698/698
f 701/701/701 690/690/690 699/699/699
f 699/699/699 697/697/697 701/701/701
f 692/692/692 690/690/690 701/701/701
f 700/700/700 694/694/694 702/702/702
f 702/702/702 697/697/697 700/700/700
f 694/694/694 693/693/693 702/702/702
f 703/703/703 692/692/692 701/701/701
f 701/701/701 697/697/697 703/703/703
f 703/703/703 697/697/697 702/702/702
f 693/693/693 692/692/692 703/703/703
f 702/702/702 693/693/693 703/703/703
f 706/706/706 705/705/705 704/704/704
f 704/704/704 705/705/705 707/707/707
f 705/705/705 708/708/708 707/707/707
f 709/709/709 706/706/706 704/704/704
f 710/710/710 706/706/706 709/709/709
f 707/707/707 708/708/708 711/711/711
f 708/708/708 712/712/712 711/711/711
f 713/713/713 710/710/710 709/709/709
f 714/714/714 710/710/710 713/713/713
f 711/711/711 712/712/712 715/715/715
f 712/712/712 716/716/716 715/715/715
f 717/717/717 714/714/714 713/713/713
f 718/718/718 714/714/714 717/717/717
f 716/716/716 718/718/718 719/719/719
f 715/715/715 716/716/716 719/719/719
f 719/719/719 718/718/718 717/717/717
f 704/704/704 707/707/707 720/720/720
f 709/709/709 704/704/704 721/721/721
f 721/721/721 704/704/704 720/720/720
f 720/720/720 722/722/722 721/721/721
f 720/720/720 707/707/707 723/723/723
f 707/707/707 711/711/711 723/723/723
f 723/723/723 722/722/722 720/720/720
f 724/724/724 709/709/709 721/721/721
f 713/713/713 709/709/709 724/724/724
f 721/721/721 722/722/722 724/724/724
f 723/723/723 711/711/711 725/725/725
f 711/711/711 715/715/715 725/725/725
f 725/725/725 722/722/722 723/723/723
f 726/726/726 713/713/713 724/724/724
f 717/717/717 713/713/713 726/726/726
f 724/724/724 722/722/722 726/726/726
f 725/725/725 715/715/715 727/727/727
f 715/715/715 719/719/719 727/727/727
f 727/727/727 722/722/722 725/725/725
f 728/728/728 717/717/717 726/726/726
f 719/719/719 717/717/717 728/728/728
f 726/726/726 722/722/722 728/728/728
f 727/727/727 719/719/719 728/728/728
f 728/728/728 722/722/722 727/727/727
