g item_12_06item_12_06_mobile
v 0.345478854 0.134955913 -0.431846171
v 0.426355921 0.116194403 -0.409430804
v 0.465620676 0.14639078 -0.331242067
v 0.371850987 0.19218704 -0.330030425
v 0.215965742 0.154664019 -0.441558235
v 0.489077298 0.176606088 -0.217896795
v 0.242924764 0.222061575 -0.329424605
v 0.0717993411 0.167064412 -0.435481095
v 0.391199387 0.233818283 -0.21365605
v 0.482034632 0.189953076 -0.108792269
v 0.0999321411 0.235105652 -0.320943114
v -0.0594933692 0.175640561 -0.425182143
v 0.387678054 0.258297227 -0.10939809
v 0.449812542 0.184557485 -0.0118230893
v 0.267536231 0.271966057 -0.210021126
v -0.0342760815 0.238910963 -0.312442692
v -0.160286792 0.183913801 -0.419123936
v 0.362479698 0.259584596 -0.0172754758
v 0.401744454 0.162937258 0.075452959
v 0.272231342 0.305040082 -0.105763166
v 0.128632898 0.285956729 -0.201539636
v -0.142699059 0.240501243 -0.314865975
v -0.252882704 0.182967206 -0.420335577
v 0.323801831 0.233818283 0.068788931
v 0.357784587 0.134312229 0.159718835
v -0.0084908369 0.285653819 -0.196068317
v 0.257578053 0.310132762 -0.0118230893
v 0.140370674 0.320621034 -0.0930409303
v -0.243511415 0.230012972 -0.328212963
v -0.352521281 0.16515229 -0.425182143
v 0.288058408 0.19248995 0.153035876
v 0.330238676 0.107618253 0.243359959
v -0.129219548 0.279595612 -0.206386202
v 0.00381489659 0.31679679 -0.0845594402
v 0.134501786 0.325391872 0.00697628508
v 0.228271475 0.279292701 0.079693704
v -0.350173726 0.198226315 -0.350022509
v -0.419918837 0.140351504 -0.426393784
v -0.436332792 0.149571338 -0.37427427
v -0.242337637 0.259887506 -0.23001321
v -0.355455726 0.218559173 -0.260928999
v -0.446877859 0.161025136 -0.286392401
v -0.125717147 0.305664835 -0.0930409303
v 0.00322800776 0.319352597 0.0239392654
v 0.113411652 0.290405725 0.106368748
v -0.366587681 0.239232806 -0.146977907
v -0.459183593 0.181679837 -0.168806385
v -0.249361371 0.282151418 -0.116667939
v -0.125717147 0.307576956 0.0227276239
v -0.368935237 0.250042919 -0.0184871173
v -0.462704926 0.197582631 -0.0348442769
v -0.250535149 0.286922256 0.00576464363
v -0.00731705924 0.283419855 0.130620509
v 0.199551787 0.226188728 0.168200326
v -0.350173726 0.238267279 0.108792031
v -0.446877859 0.194402072 0.0960697955
v -0.23588186 0.263389907 0.126379764
v -0.122782703 0.275468458 0.136072895
v 0.089955031 0.230959566 0.199097183
v 0.269296898 0.147678149 0.236677
v 0.31032232 0.0834422198 0.305778426
v 0.260512497 0.0942523333 0.31728902
v 0.182550942 0.166117817 0.25184145
v 0.173766542 0.0974328922 0.334270932
v 0.0729731188 0.16515229 0.280333956
v 0.0641697864 0.0926809858 0.356686299
v -0.0231441257 0.224295538 0.226983868
v -0.0401449698 0.159756699 0.305778426
v -0.050103148 0.0907688642 0.374274032
v -0.12454337 0.222383417 0.236071179
v -0.13860977 0.163883853 0.313048275
v -0.153849947 0.100291609 0.375485673
v -0.223576126 0.222061575 0.229407151
v -0.232379459 0.174050282 0.302749322
v -0.250535149 0.119053119 0.359734334
v -0.330238438 0.212198056 0.214261633
v -0.426355682 0.180089557 0.201539397
v -0.329651549 0.1804114 0.283363059
v -0.341976214 0.138136472 0.330030187
v -0.414049949 0.163562011 0.268198609
v -0.402331104 0.141941784 0.305778426
v -0.0864523915 -0.293586522 -0.55185547
v 0.0102517418 -0.28627881 -0.555490395
v 0.00322800776 -0.257029028 -0.594887674
v -0.108129414 -0.265624109 -0.593070212
v -0.185485148 -0.303128199 -0.538527414
v -0.0190548358 -0.196939185 -0.617321972
v -0.215378615 -0.274522101 -0.577318873
v -0.287471281 -0.303128199 -0.512458191
v -0.140370436 -0.203622145 -0.617321972
v -0.0448400804 -0.107618492 -0.619745255
v -0.317932704 -0.270394948 -0.543979801
v -0.384156482 -0.296767081 -0.471849271
v -0.164395014 -0.106974807 -0.620351076
v -0.0641695479 -0.00493187855 -0.59185857
v -0.251122037 -0.209339578 -0.600964813
v -0.411702393 -0.25894115 -0.493677749
v -0.466207327 -0.290405964 -0.416700653
v -0.17552697 0.00269767621 -0.590041108
v -0.0700384362 0.0926809858 -0.522776076
v -0.271644215 -0.107296649 -0.605811379
v -0.350173726 -0.202353707 -0.564596637
v -0.490250837 -0.248774721 -0.426393784
v -0.525407371 -0.287244337 -0.338511916
v -0.173179415 0.103169257 -0.517304757
v -0.0594933692 0.175640561 -0.425182143
v -0.160286792 0.183913801 -0.419123936
v -0.434572126 -0.188363035 -0.506399984
v -0.275165547 0.00746851442 -0.578530514
v -0.266362215 0.107940095 -0.510034908
v -0.252882704 0.182967206 -0.420335577
v -0.368348348 -0.100310779 -0.571866486
v -0.549431949 -0.241769918 -0.335482812
v -0.558803238 -0.289137526 -0.231224851
v -0.372437638 0.010327231 -0.553067112
v -0.364240126 0.102525573 -0.497918494
v -0.352521281 0.16515229 -0.425182143
v -0.501382793 -0.176928169 -0.425787964
v -0.448051637 -0.0907691026 -0.512458191
v -0.585781193 -0.239233044 -0.219108437
v -0.56819346 -0.295498644 -0.10939809
v -0.442182749 0.0926809858 -0.466396884
v -0.419918837 0.140351504 -0.426393784
v -0.450967149 0.0109709155 -0.501553418
v -0.50255657 -0.0840861427 -0.423970502
v -0.550018838 -0.167386492 -0.322154756
v -0.599828661 -0.244003882 -0.0912234681
v -0.557061504 -0.302806356 0.0130344923
v -0.480860616 0.0885349002 -0.398507099
v -0.436332792 0.149571338 -0.37427427
v -0.496687682 0.0106490732 -0.416700653
v -0.582846748 -0.158488501 -0.197279959
v -0.539473771 -0.0751881508 -0.309413589
v -0.593391815 -0.256082433 0.0330265763
v -0.520125371 -0.300591324 0.134861254
v -0.497274571 0.0952178601 -0.297297174
v -0.446877859 0.161025136 -0.286392401
v -0.521886038 0.0170101908 -0.301537919
v -0.598654883 -0.159756938 -0.0663658865
v -0.564672127 -0.0615193207 -0.176682054
v -0.559977016 -0.260209587 0.156064979
v -0.454488482 -0.280239534 0.256082195
v -0.511340971 0.114925966 -0.170018026
v -0.459183593 0.181679837 -0.168806385
v -0.540647549 0.0344843324 -0.166988923
v -0.598086926 -0.175962642 0.0572783372
v -0.579325415 -0.0564266402 -0.0421330575
v -0.496100793 -0.244003882 0.281545597
v -0.372437638 -0.252580032 0.37306239
v -0.518364705 0.13082876 -0.0330268147
v -0.462704926 0.197582631 -0.0348442769
v -0.551779504 0.0462599727 -0.0293918903
v -0.573456527 -0.188041193 0.176681816
v -0.581086082 -0.0710609971 0.0809242774
v -0.411115505 -0.221115218 0.402766538
v -0.285710614 -0.230959805 0.47851306
v -0.510167193 0.127326359 0.0954639748
v -0.446877859 0.194402072 0.0960697955
v -0.550018838 0.0370401386 0.0942523333
v -0.520125371 -0.179465043 0.294873653
v -0.56291146 -0.0859982644 0.191221513
v -0.316758927 -0.208392983 0.510640491
v -0.199551548 -0.222383655 0.554884336
v -0.491992572 0.11587256 0.199116115
v -0.426355682 0.180089557 0.201539397
v -0.53477866 0.0233713085 0.198491362
v -0.442182749 -0.165796213 0.408824745
v -0.521886038 -0.0837643005 0.293056191
v -0.218899948 -0.209036667 0.587617587
v -0.112824525 -0.23001321 0.588223407
v -0.470315549 0.10888669 0.269410251
v -0.414049949 0.163562011 0.268198609
v -0.504317237 0.0211373445 0.280939776
v -0.455075371 -0.0783687096 0.386996267
v -0.346065504 -0.165152529 0.508217208
v -0.119848259 -0.222383655 0.620350838
v -0.0143597252 -0.244325725 0.587011766
v -0.430463904 0.0990231716 0.322760338
v -0.402331104 0.141941784 0.305778426
v -0.450399192 0.0189223125 0.352445554
v -0.364240126 -0.0882132964 0.471849032
v -0.24057697 -0.177552922 0.578530276
v -0.0143597252 -0.240823324 0.617927555
v 0.10460832 -0.257029028 0.562173116
v -0.358371238 0.0799587506 0.37306239
v -0.341976214 0.138136472 0.330030187
v -0.367761459 0.00207292359 0.420335339
v -0.256990926 -0.109208771 0.534286431
v -0.130393326 -0.197582869 0.608840244
v 0.104021431 -0.257994555 0.591858332
v 0.228858364 -0.2710197 0.519746733
v -0.262253993 0.0535676852 0.414882952
v -0.250535149 0.119053119 0.359734334
v -0.264601549 -0.0236933891 0.473666495
v -0.141525282 -0.13304403 0.562778937
v -0.0172941693 -0.219524939 0.608234423
v 0.226510809 -0.271341543 0.547614487
v 0.339628897 -0.288512774 0.462761721
v -0.157352348 0.0300353364 0.436692498
v -0.153849947 0.100291609 0.375485673
v -0.151502392 -0.0487970855 0.499129897
v -0.0260785698 -0.155307942 0.565808041
v 0.0987583634 -0.238267517 0.588223407
v 0.341389564 -0.278649255 0.486407662
v 0.427529698 -0.297410766 0.391842833
v -0.0477555927 0.0150980692 0.440346355
v -0.050103148 0.0907688642 0.374274032
v -0.0377974145 -0.0685051909 0.505188104
v 0.0846919634 -0.171513646 0.555490156
v 0.215378853 -0.247487352 0.55064359
v 0.436900988 -0.275146854 0.410642207
v 0.486729742 -0.286922494 0.308201709
v 0.0624091199 0.0112927578 0.431845933
v 0.0641697864 0.0926809858 0.356686299
v 0.0694517858 -0.0789934622 0.500341538
v 0.191941164 -0.1756408 0.530651507
v 0.328496942 -0.24368204 0.494283331
v 0.503143698 -0.257672712 0.322154518
v 0.52012561 -0.26433674 0.213049991
v 0.167329697 0.0154199114 0.415488773
v 0.173766542 0.0974328922 0.334270932
v 0.171418987 -0.0780468674 0.48519602
v 0.424595254 -0.229691368 0.419729518
v 0.296842809 -0.164527776 0.486407662
v 0.542408453 -0.233515611 0.225772226
v 0.531257566 -0.241448076 0.106974569
v 0.257578053 0.0239960611 0.393660295
v 0.260512497 0.0942523333 0.31728902
v 0.266949342 -0.0653246321 0.454886052
v 0.491405921 -0.209983262 0.330636008
v 0.387678054 -0.146391018 0.420335339
v 0.559390366 -0.211573542 0.124562302
v 0.524233832 -0.228744773 -0.0093998064
v 0.325562497 0.0332158953 0.353051374
v 0.31032232 0.0834422198 0.305778426
v 0.348413298 -0.0491189277 0.400343255
v 0.453901832 -0.130185314 0.331847649
v 0.534778899 -0.188041193 0.234253717
v 0.560564143 -0.199494991 0.0118228509
v 0.50196992 -0.233515611 -0.131832389
v 0.371264098 0.0449915356 0.278516493
v 0.330238676 0.107618253 0.243359959
v 0.40878712 -0.0373622193 0.316077378
v 0.504298543 -0.113979609 0.233647896
v 0.561737921 -0.167386492 0.137284537
v 0.550605965 -0.20267555 -0.115456297
v 0.465033788 -0.250365 -0.243966019
v 0.413463298 0.0599288029 0.187586589
v 0.357784587 0.134312229 0.159718835
v 0.460944498 -0.0252836685 0.217896557
v 0.54825841 -0.0955399408 0.136072895
v 0.577564987 -0.15339582 0.0287858312
v 0.521886276 -0.217290975 -0.239100521
v 0.41287641 -0.2710197 -0.332453708
v 0.467381343 0.0802805929 0.0966756162
v 0.401744454 0.162937258 0.075452959
v 0.517191166 -0.0077905951 0.120927377
v 0.582260098 -0.150858946 -0.1009166
v 0.582260098 -0.0789934622 0.0275741897
v 0.469142009 -0.237320922 -0.340329378
v 0.350173964 -0.289137526 -0.40579588
v 0.520712499 0.100613451 0.000312257102
v 0.449812542 0.184557485 -0.0118230893
v 0.56701992 0.0112927578 0.0154577752
v 0.599828899 -0.0691488755 -0.102128241
v 0.564085476 -0.16038169 -0.232436493
v 0.39881001 -0.255760591 -0.425182143
v 0.278668187 -0.299322887 -0.474272554
v 0.552366632 0.112067249 -0.110609731
v 0.482034632 0.189953076 -0.108792269
v 0.593392054 0.0249615879 -0.108792269
v 0.586349388 -0.0729541869 -0.236677238
v 0.511341209 -0.178821359 -0.345175943
v 0.317932943 -0.266892547 -0.499735956
v 0.19779112 -0.29994764 -0.525805179
v 0.55295352 0.107296411 -0.230619031
v 0.489077298 0.176606088 -0.217896795
v 0.584607653 0.0236931507 -0.239706342
v 0.532431343 -0.0917156975 -0.355474896
v 0.433398587 -0.198226554 -0.438510199
v 0.224750142 -0.267839142 -0.556096215
v 0.106368986 -0.291693333 -0.550643829
v 0.515449431 0.0840859043 -0.347599226
v 0.465620676 0.14639078 -0.331242067
v 0.533605121 0.00334136073 -0.360340394
v 0.446878098 -0.113657767 -0.453068828
v 0.340802675 -0.209339578 -0.514881474
v 0.117500942 -0.260853271 -0.585194542
v 0.0102517418 -0.28627881 -0.555490395
v 0.00322800776 -0.257029028 -0.594887674
v 0.441596098 0.06119724 -0.440952414
v 0.426355921 0.116194403 -0.409430804
v 0.446878098 -0.0201909881 -0.458521215
v 0.232966586 -0.20966142 -0.570654845
v 0.10930343 -0.202031865 -0.603388096
v -0.0190548358 -0.196939185 -0.617321972
v 0.342563342 -0.125414475 -0.527622641
v 0.334933787 0.0596069606 -0.496706852
v 0.345478854 0.134955913 -0.431846171
v 0.335520676 -0.0300355749 -0.526411
v 0.221247741 -0.125092633 -0.578530514
v 0.0876074757 -0.116194641 -0.607628841
v -0.0448400804 -0.107618492 -0.619745255
v 0.206007564 -0.0268550161 -0.5664141
v 0.202486231 0.0697733897 -0.522170255
v 0.215965742 0.154664019 -0.441558235
v 0.0671042305 -0.016688587 -0.585800363
v -0.0641695479 -0.00493187855 -0.59185857
v 0.0600615646 0.0812271877 -0.527622641
v 0.0717993411 0.167064412 -0.435481095
v -0.0700384362 0.0926809858 -0.522776076
v -0.0594933692 0.175640561 -0.425182143
v -0.190767148 -0.240501481 0.480349454
v -0.265775326 -0.250989753 0.415488773
v -0.285710614 -0.230959805 0.47851306
v -0.199551548 -0.222383655 0.554884336
v -0.372437638 -0.252580032 0.37306239
v -0.109890081 -0.246218914 0.510640491
v -0.112824525 -0.23001321 0.588223407
v -0.336694215 -0.27260998 0.328818545
v -0.454488482 -0.280239534 0.256082195
v -0.0125990587 -0.257994555 0.513063774
v -0.0143597252 -0.244325725 0.587011766
v -0.402917993 -0.296767081 0.227589689
v -0.520125371 -0.300591324 0.134861254
v 0.108716542 -0.264980425 0.497312435
v 0.10460832 -0.257029028 0.562173116
v -0.45566226 -0.31361647 0.117879342
v -0.557061504 -0.302806356 0.0130344923
v 0.231792808 -0.275790539 0.467002467
v 0.228858364 -0.2710197 0.519746733
v -0.48379506 -0.315528592 0.00273554
v -0.56819346 -0.295498644 -0.10939809
v 0.332586232 -0.297732608 0.42154698
v 0.339628897 -0.288512774 0.462761721
v -0.493753238 -0.309167474 -0.113638835
v -0.558803238 -0.289137526 -0.231224851
v 0.404092009 -0.314884907 0.363369259
v 0.427529698 -0.297410766 0.391842833
v -0.490837726 -0.301859762 -0.225166644
v -0.525407371 -0.287244337 -0.338511916
v 0.44570432 -0.31331356 0.289421266
v 0.486729742 -0.286922494 0.308201709
v -0.46972866 -0.298035518 -0.320943114
v -0.466207327 -0.290405964 -0.416700653
v 0.465620676 -0.295498644 0.199116115
v 0.52012561 -0.26433674 0.213049991
v -0.424595016 -0.300269482 -0.39063143
v -0.384156482 -0.296767081 -0.471849271
v 0.469728898 -0.271341543 0.0936465126
v 0.531257566 -0.241448076 0.106974569
v -0.357784349 -0.304718478 -0.437904378
v -0.287471281 -0.303128199 -0.512458191
v 0.459183831 -0.254492154 -0.0209104002
v 0.524233832 -0.228744773 -0.0093998064
v -0.27399177 -0.306952442 -0.468820167
v -0.185485148 -0.303128199 -0.538527414
v 0.433398587 -0.255438749 -0.133649851
v 0.50196992 -0.233515611 -0.131832389
v -0.181963815 -0.304093726 -0.487619542
v -0.0864523915 -0.293586522 -0.55185547
v 0.396481386 -0.270073105 -0.233648134
v 0.465033788 -0.250365 -0.243966019
v -0.0923023479 -0.295176802 -0.497312673
v 0.0102517418 -0.28627881 -0.555490395
v 0.351934631 -0.288815684 -0.311231051
v 0.41287641 -0.2710197 -0.332453708
v -0.00674910231 -0.290405964 -0.499130135
v 0.106368986 -0.291693333 -0.550643829
v 0.299190364 -0.304718478 -0.373668449
v 0.350173964 -0.289137526 -0.40579588
v 0.0776492975 -0.298679203 -0.493677749
v 0.19779112 -0.29994764 -0.525805179
v 0.234140364 -0.312348033 -0.428817067
v 0.278668187 -0.299322887 -0.474272554
v 0.158526364 -0.309811159 -0.472455092
v 0.281602631 -0.295820486 -0.292450608
v 0.260512497 -0.306952442 -0.344570123
v 0.201312453 -0.309811159 -0.368216063
v 0.123956719 -0.30504032 -0.397901278
v 0.0460140965 -0.293586522 -0.417912294
v -0.0313605693 -0.285332215 -0.428211247
v 0.196030454 -0.296767081 -0.294268071
v 0.312082986 -0.27929294 -0.219108437
v 0.107542764 -0.29296177 -0.31062523
v 0.0290132524 -0.288190931 -0.330030425
v 0.211270631 -0.280561377 -0.21305023
v 0.343131299 -0.268160984 -0.129409106
v 0.112237875 -0.280883219 -0.22153172
v 0.237055876 -0.2710197 -0.128197464
v 0.369522364 -0.2710197 -0.0263627867
v -0.0454269693 -0.285332215 -0.345781764
v 0.0313608077 -0.286600652 -0.242148556
v 0.134501786 -0.274843944 -0.139102237
v 0.265775565 -0.273878417 -0.0342384561
v 0.385330498 -0.291049648 0.0833475603
v -0.0407318586 -0.292639927 -0.26214064
v 0.0542116082 -0.289781211 -0.163353998
v 0.166155919 -0.278024502 -0.0506145476
v 0.291560809 -0.291693333 0.0730296761
v 0.391199387 -0.314581997 0.18879823
v -0.0161203917 -0.304093726 -0.184557724
v 0.0852788523 -0.295498644 -0.0778764803
v 0.198378009 -0.289781211 0.055460875
v 0.31032232 -0.309811159 0.182740023
v 0.388264943 -0.32539211 0.27728592
v 0.0120124083 -0.312991717 -0.0997049583
v 0.109890319 -0.301216077 0.0281800105
v 0.221815698 -0.299322887 0.172441071
v 0.319693609 -0.313938312 0.280939776
v 0.377132987 -0.321567867 0.336088394
v 0.32438872 -0.307255352 0.362157617
v 0.233553475 -0.286600652 0.388207908
v 0.232379697 -0.297088923 0.286997984
v 0.115153387 -0.280239534 0.401554896
v 0.122782942 -0.293908365 0.280939776
v -0.00557532465 -0.278024502 0.403978179
v 0.12336983 -0.301859762 0.151218413
v -0.105781859 -0.268482826 0.39790104
v 0.00849107531 -0.295176802 0.271227713
v 0.0213836976 -0.306952442 0.133043792
v -0.187832704 -0.262443551 0.375485673
v -0.0934761255 -0.287869089 0.265775326
v 0.0243181418 -0.31361647 0.00697628508
v -0.259338481 -0.270697858 0.331847649
v -0.0776490591 -0.302806356 0.130014688
v -0.184311371 -0.282473498 0.254264732
v -0.0653433256 -0.312669875 0.00576464363
v -0.312669637 -0.282151656 0.291844549
v -0.176113859 -0.297732608 0.129408867
v -0.267535993 -0.289137526 0.230618792
v -0.341389326 -0.298035518 0.214261633
v -0.0676908809 -0.314260155 -0.1009166
v -0.275752436 -0.301537919 0.119715736
v -0.37126386 -0.309811159 0.111821134
v -0.163808125 -0.3066306 0.0106112094
v -0.0928892367 -0.305665073 -0.189404289
v -0.384743371 -0.310757754 0.00152389855
v -0.273404881 -0.305665073 0.00758210581
v -0.162047459 -0.307255352 -0.0960700339
v -0.118674481 -0.293586522 -0.269410489
v -0.388851593 -0.304396636 -0.108186448
v -0.273404881 -0.302806356 -0.0997049583
v -0.183137593 -0.29994764 -0.188192648
v -0.123956481 -0.286600652 -0.351234151
v -0.394720481 -0.296767081 -0.209415305
v -0.286884392 -0.295820486 -0.195462497
v -0.205420436 -0.291693333 -0.271227951
v -0.111650747 -0.287547247 -0.430028709
v -0.390025371 -0.292639927 -0.296691354
v -0.298603237 -0.290103053 -0.279103621
v -0.206594214 -0.289137526 -0.351234151
v -0.194288481 -0.294230207 -0.425182143
v -0.290973682 -0.291049648 -0.353051613
v -0.366587681 -0.294873891 -0.363975318
v -0.276339325 -0.298035518 -0.415489011
v -0.336107326 -0.299625798 -0.407007521
vt 0.499382928 0.154308451
vt 0.497723916 0.149331415
vt 0.491917374 0.147672403
vt 0.491917374 0.154308451
vt 0.500212434 0.16260351
vt 0.484451821 0.146842897
vt 0.491917374 0.161774004
vt 0.500212434 0.172557582
vt 0.483622315 0.153478945
vt 0.476986267 0.147672403
vt 0.491917374 0.17089857
vt 0.500212434 0.180852641
vt 0.477815773 0.154308451
vt 0.47035022 0.149331415
vt 0.484451821 0.161774004
vt 0.491917374 0.179193629
vt 0.499382928 0.187488689
vt 0.472009231 0.156796968
vt 0.464543678 0.152649439
vt 0.477815773 0.161774004
vt 0.484451821 0.170069064
vt 0.49274688 0.186659183
vt 0.499382928 0.19329523
vt 0.46620269 0.15845598
vt 0.458737136 0.155137956
vt 0.484451821 0.178364123
vt 0.472009231 0.163433016
vt 0.477815773 0.170069064
vt 0.493576386 0.192465724
vt 0.500212434 0.199931278
vt 0.460396148 0.160114992
vt 0.452930594 0.157626474
vt 0.485281327 0.185829677
vt 0.477815773 0.178364123
vt 0.471179725 0.17089857
vt 0.46620269 0.165092028
vt 0.495235398 0.199101772
vt 0.500212434 0.204078808
vt 0.49689441 0.204908314
vt 0.486940339 0.192465724
vt 0.489428857 0.199931278
vt 0.491917374 0.20573782
vt 0.478645279 0.185829677
vt 0.471179725 0.178364123
vt 0.465373184 0.171728076
vt 0.481963303 0.200760784
vt 0.484451821 0.207396832
vt 0.480304291 0.19329523
vt 0.471179725 0.185829677
vt 0.474497749 0.200760784
vt 0.475327255 0.207396832
vt 0.472838737 0.19329523
vt 0.463714172 0.179193629
vt 0.460396148 0.16675104
vt 0.46620269 0.199931278
vt 0.467032196 0.206567326
vt 0.464543678 0.19329523
vt 0.463714172 0.185829677
vt 0.458737136 0.173387088
vt 0.454589606 0.161774004
vt 0.448783065 0.15845598
vt 0.448783065 0.161774004
vt 0.4537601 0.167580546
vt 0.447124053 0.167580546
vt 0.452101089 0.174216593
vt 0.446294547 0.175046099
vt 0.457078124 0.180023135
vt 0.451271583 0.181682147
vt 0.445465041 0.182511653
vt 0.457078124 0.186659183
vt 0.451271583 0.187488689
vt 0.446294547 0.189147701
vt 0.45790763 0.192465724
vt 0.452930594 0.19329523
vt 0.447953559 0.194954242
vt 0.459566642 0.199101772
vt 0.460396148 0.20573782
vt 0.454589606 0.199101772
vt 0.451271583 0.200760784
vt 0.455419112 0.204908314
vt 0.452930594 0.204078808
vt 0.97468984 0.851093453
vt 0.973030828 0.846945923
vt 0.971371817 0.848604935
vt 0.973030828 0.852752465
vt 0.977178358 0.854411477
vt 0.968883299 0.850263947
vt 0.975519346 0.856070489
vt 0.97883737 0.858559007
vt 0.971371817 0.854411477
vt 0.965565275 0.852752465
vt 0.977178358 0.860218019
vt 0.980496382 0.863536042
vt 0.968053793 0.856899995
vt 0.962247251 0.856070489
vt 0.973030828 0.858559007
vt 0.97883737 0.864365548
vt 0.981325888 0.867683572
vt 0.963906263 0.860218019
vt 0.957270215 0.859388513
vt 0.969712805 0.861047525
vt 0.97468984 0.862706536
vt 0.979666876 0.868513078
vt 0.9829849 0.871831102
vt 0.959758733 0.862706536
vt 0.953122686 0.86187703
vt 0.955611203 0.86602456
vt 0.976348852 0.86602456
vt 0.965565275 0.863536042
vt 0.961417745 0.86602456
vt 0.958099721 0.868513078
vt 0.971371817 0.864365548
vt 0.981325888 0.873490114
vt 0.984643912 0.875978632
vt 0.967224287 0.866854066
vt 0.963906263 0.869342584
vt 0.961417745 0.871831102
vt 0.977178358 0.87017209
vt 0.973030828 0.868513078
vt 0.9829849 0.877637644
vt 0.98713243 0.880955667
vt 0.966394781 0.871831102
vt 0.963906263 0.873490114
vt 0.968883299 0.87017209
vt 0.973860334 0.871831102
vt 0.97883737 0.875149126
vt 0.985473418 0.882614679
vt 0.989620948 0.885932703
vt 0.967224287 0.875149126
vt 0.964735769 0.875978632
vt 0.970542311 0.873490114
vt 0.980496382 0.880126161
vt 0.975519346 0.876808138
vt 0.98713243 0.887591715
vt 0.99127996 0.891739245
vt 0.968053793 0.879296656
vt 0.964735769 0.880126161
vt 0.971371817 0.87846715
vt 0.982155394 0.885103197
vt 0.976348852 0.881785173
vt 0.988791442 0.892568751
vt 0.992109465 0.897545787
vt 0.969712805 0.884273691
vt 0.966394781 0.885103197
vt 0.973030828 0.883444185
vt 0.983814406 0.889250727
vt 0.978007864 0.886762209
vt 0.989620948 0.898375293
vt 0.992938971 0.903352328
vt 0.970542311 0.890080233
vt 0.967224287 0.890909739
vt 0.973860334 0.889250727
vt 0.986302924 0.893398257
vt 0.980496382 0.891739245
vt 0.990450454 0.904181834
vt 0.992938971 0.909988376
vt 0.972201323 0.895057269
vt 0.968883299 0.896716281
vt 0.976348852 0.893398257
vt 0.98713243 0.899204798
vt 0.982155394 0.895886775
vt 0.99127996 0.909988376
vt 0.993768477 0.914965412
vt 0.973860334 0.899204798
vt 0.971371817 0.90086381
vt 0.978007864 0.897545787
vt 0.987961936 0.904181834
vt 0.9829849 0.900034304
vt 0.992109465 0.914965412
vt 0.993768477 0.918283435
vt 0.975519346 0.901693316
vt 0.973030828 0.903352328
vt 0.97883737 0.90086381
vt 0.983814406 0.904181834
vt 0.988791442 0.90915887
vt 0.992938971 0.918283435
vt 0.994597983 0.922430965
vt 0.976348852 0.90501134
vt 0.97468984 0.90501134
vt 0.979666876 0.904181834
vt 0.985473418 0.90915887
vt 0.990450454 0.914135906
vt 0.993768477 0.922430965
vt 0.995427489 0.927408001
vt 0.978007864 0.908329364
vt 0.97468984 0.908329364
vt 0.981325888 0.908329364
vt 0.98713243 0.9133064
vt 0.992109465 0.918283435
vt 0.993768477 0.927408001
vt 0.995427489 0.933214543
vt 0.97883737 0.912476894
vt 0.975519346 0.912476894
vt 0.9829849 0.912476894
vt 0.988791442 0.918283435
vt 0.992938971 0.922430965
vt 0.993768477 0.932385037
vt 0.994597983 0.938191578
vt 0.979666876 0.917453929
vt 0.976348852 0.917453929
vt 0.983814406 0.917453929
vt 0.989620948 0.922430965
vt 0.992938971 0.927408001
vt 0.993768477 0.937362072
vt 0.993768477 0.943168614
vt 0.980496382 0.921601459
vt 0.976348852 0.921601459
vt 0.984643912 0.922430965
vt 0.989620948 0.926578495
vt 0.992938971 0.932385037
vt 0.992938971 0.942339108
vt 0.992109465 0.947316144
vt 0.980496382 0.926578495
vt 0.976348852 0.927408001
vt 0.985473418 0.926578495
vt 0.989620948 0.931555531
vt 0.992109465 0.936532566
vt 0.99127996 0.946486638
vt 0.990450454 0.951463674
vt 0.980496382 0.930726025
vt 0.976348852 0.932385037
vt 0.985473418 0.930726025
vt 0.99127996 0.941509602
vt 0.989620948 0.93570306
vt 0.988791442 0.950634168
vt 0.987961936 0.955611203
vt 0.980496382 0.934873555
vt 0.976348852 0.936532566
vt 0.984643912 0.934873555
vt 0.989620948 0.945657132
vt 0.987961936 0.93985059
vt 0.98713243 0.953952192
vt 0.986302924 0.959758733
vt 0.979666876 0.938191578
vt 0.977178358 0.938191578
vt 0.983814406 0.938191578
vt 0.986302924 0.94399812
vt 0.98713243 0.949804662
vt 0.984643912 0.958099721
vt 0.985473418 0.965565275
vt 0.978007864 0.941509602
vt 0.97468984 0.940680096
vt 0.982155394 0.942339108
vt 0.984643912 0.94814565
vt 0.985473418 0.953122686
vt 0.983814406 0.963076757
vt 0.983814406 0.970542311
vt 0.976348852 0.945657132
vt 0.972201323 0.94399812
vt 0.980496382 0.946486638
vt 0.982155394 0.95229318
vt 0.9829849 0.957270215
vt 0.982155394 0.968883299
vt 0.9829849 0.975519346
vt 0.97468984 0.949804662
vt 0.970542311 0.94814565
vt 0.97883737 0.950634168
vt 0.981325888 0.962247251
vt 0.980496382 0.955611203
vt 0.981325888 0.973030828
vt 0.982155394 0.979666876
vt 0.973030828 0.953952192
vt 0.968883299 0.95229318
vt 0.977178358 0.954781697
vt 0.978007864 0.960588239
vt 0.979666876 0.967224287
vt 0.979666876 0.978007864
vt 0.980496382 0.983814406
vt 0.971371817 0.958099721
vt 0.967224287 0.956440709
vt 0.97468984 0.959758733
vt 0.976348852 0.965565275
vt 0.97883737 0.972201323
vt 0.97883737 0.982155394
vt 0.97883737 0.987961936
vt 0.969712805 0.963076757
vt 0.965565275 0.961417745
vt 0.973030828 0.963906263
vt 0.975519346 0.970542311
vt 0.977178358 0.976348852
vt 0.977178358 0.986302924
vt 0.977178358 0.99127996
vt 0.968883299 0.968053793
vt 0.965565275 0.967224287
vt 0.971371817 0.968883299
vt 0.973860334 0.975519346
vt 0.976348852 0.981325888
vt 0.975519346 0.990450454
vt 0.975519346 0.995427489
vt 0.973860334 0.995427489
vt 0.967224287 0.973030828
vt 0.965565275 0.971371817
vt 0.970542311 0.973860334
vt 0.97468984 0.985473418
vt 0.973030828 0.990450454
vt 0.970542311 0.995427489
vt 0.973030828 0.980496382
vt 0.965565275 0.977178358
vt 0.963076757 0.97468984
vt 0.968883299 0.97883737
vt 0.971371817 0.985473418
vt 0.968883299 0.990450454
vt 0.966394781 0.995427489
vt 0.967224287 0.983814406
vt 0.963076757 0.982155394
vt 0.959758733 0.97883737
vt 0.964735769 0.989620948
vt 0.962247251 0.993768477
vt 0.960588239 0.98713243
vt 0.956440709 0.984643912
vt 0.957270215 0.992109465
vt 0.953122686 0.988791442
vt 0.608048208 0.319380136
vt 0.606389196 0.313573594
vt 0.603071172 0.316062112
vt 0.604730184 0.322698159
vt 0.602241666 0.307767052
vt 0.611366232 0.323527665
vt 0.608877714 0.327675195
vt 0.60555969 0.306937546
vt 0.60141216 0.298642487
vt 0.616343268 0.326845689
vt 0.61385475 0.330163713
vt 0.60555969 0.299471993
vt 0.602241666 0.290347427
vt 0.622979315 0.329334207
vt 0.621320303 0.332652231
vt 0.606389196 0.292006439
vt 0.603900678 0.282881874
vt 0.630444869 0.331822725
vt 0.628785857 0.334311243
vt 0.608048208 0.284540886
vt 0.607218702 0.276245826
vt 0.637910423 0.332652231
vt 0.636251411 0.335140749
vt 0.611366232 0.278734344
vt 0.611366232 0.270439284
vt 0.642887458 0.331822725
vt 0.643716964 0.334311243
vt 0.615513762 0.272927802
vt 0.617172774 0.265462249
vt 0.647864494 0.329334207
vt 0.649523506 0.331822725
vt 0.619661291 0.267950766
vt 0.622149809 0.262973731
vt 0.652012024 0.325186677
vt 0.654500542 0.327675195
vt 0.623808821 0.266291755
vt 0.628785857 0.262973731
vt 0.655330048 0.320209642
vt 0.658648071 0.322698159
vt 0.628785857 0.265462249
vt 0.634592399 0.263803237
vt 0.658648071 0.313573594
vt 0.661966095 0.316062112
vt 0.634592399 0.266291755
vt 0.641228446 0.265462249
vt 0.661136589 0.306937546
vt 0.664454613 0.309426064
vt 0.639569434 0.268780272
vt 0.647034988 0.267950766
vt 0.661966095 0.300301499
vt 0.666113625 0.301960511
vt 0.64454647 0.27126879
vt 0.652012024 0.27126879
vt 0.661966095 0.294494957
vt 0.666113625 0.296153969
vt 0.649523506 0.273757308
vt 0.656989059 0.274586814
vt 0.661136589 0.289517921
vt 0.665284119 0.289517921
vt 0.653671036 0.276245826
vt 0.661136589 0.278734344
vt 0.659477577 0.284540886
vt 0.663625107 0.28371138
vt 0.656989059 0.280393356
vt 0.657818565 0.293665451
vt 0.658648071 0.290347427
vt 0.656159554 0.287029403
vt 0.65284153 0.282881874
vt 0.649523506 0.27956385
vt 0.645375976 0.276245826
vt 0.653671036 0.291176933
vt 0.656989059 0.298642487
vt 0.649523506 0.287029403
vt 0.646205482 0.28371138
vt 0.652012024 0.295324463
vt 0.656159554 0.304449028
vt 0.647034988 0.292006439
vt 0.650353012 0.301131005
vt 0.654500542 0.31025557
vt 0.642057952 0.280393356
vt 0.642887458 0.288688415
vt 0.645375976 0.296983475
vt 0.648694 0.306937546
vt 0.651182518 0.316891618
vt 0.64039894 0.285370391
vt 0.642057952 0.292835945
vt 0.64454647 0.302790017
vt 0.647034988 0.313573594
vt 0.647864494 0.322698159
vt 0.638739928 0.289517921
vt 0.64039894 0.298642487
vt 0.642057952 0.309426064
vt 0.643716964 0.319380136
vt 0.645375976 0.326845689
vt 0.637080917 0.295324463
vt 0.638739928 0.305278534
vt 0.639569434 0.316062112
vt 0.641228446 0.325186677
vt 0.642887458 0.329334207
vt 0.638739928 0.329334207
vt 0.633762893 0.327675195
vt 0.636251411 0.322698159
vt 0.627126845 0.325186677
vt 0.631274375 0.31855063
vt 0.620490797 0.321039148
vt 0.635421905 0.311914582
vt 0.615513762 0.317721124
vt 0.625467833 0.3144031
vt 0.630444869 0.307767052
vt 0.611366232 0.313573594
vt 0.620490797 0.311085076
vt 0.634592399 0.301131005
vt 0.60970722 0.309426064
vt 0.625467833 0.304449028
vt 0.615513762 0.307767052
vt 0.630444869 0.298642487
vt 0.608048208 0.305278534
vt 0.620490797 0.301131005
vt 0.612195738 0.303619523
vt 0.608877714 0.300301499
vt 0.632933387 0.292835945
vt 0.615513762 0.297812981
vt 0.610536726 0.293665451
vt 0.624638327 0.295324463
vt 0.634592399 0.287029403
vt 0.61385475 0.287858909
vt 0.618831786 0.292006439
vt 0.627956351 0.289517921
vt 0.636251411 0.282052368
vt 0.617172774 0.282052368
vt 0.622979315 0.286199897
vt 0.630444869 0.284540886
vt 0.638739928 0.277904838
vt 0.619661291 0.276245826
vt 0.624638327 0.280393356
vt 0.631274375 0.27956385
vt 0.641228446 0.273757308
vt 0.622979315 0.272098296
vt 0.627126845 0.276245826
vt 0.633762893 0.27541632
vt 0.637080917 0.27126879
vt 0.629615363 0.272098296
vt 0.626297339 0.269609778
vt 0.632103881 0.269609778
vt 0.628785857 0.267950766
g item_12_06item_12_06_mobile_0
f 3/3/3 2/2/2 1/1/1
f 4/4/4 3/3/3 1/1/1
f 4/4/4 1/1/1 5/5/5
f 6/6/6 3/3/3 4/4/4
f 7/7/7 4/4/4 5/5/5
f 7/7/7 5/5/5 8/8/8
f 9/9/9 6/6/6 4/4/4
f 9/9/9 4/4/4 7/7/7
f 10/10/10 6/6/6 9/9/9
f 11/11/11 7/7/7 8/8/8
f 11/11/11 8/8/8 12/12/12
f 13/13/13 10/10/10 9/9/9
f 14/14/14 10/10/10 13/13/13
f 15/15/15 9/9/9 7/7/7
f 15/15/15 7/7/7 11/11/11
f 13/13/13 9/9/9 15/15/15
f 16/16/16 11/11/11 12/12/12
f 16/16/16 12/12/12 17/17/17
f 18/18/18 14/14/14 13/13/13
f 19/19/19 14/14/14 18/18/18
f 20/20/20 13/13/13 15/15/15
f 18/18/18 13/13/13 20/20/20
f 21/21/21 15/15/15 11/11/11
f 21/21/21 11/11/11 16/16/16
f 20/20/20 15/15/15 21/21/21
f 22/22/22 16/16/16 17/17/17
f 22/22/22 17/17/17 23/23/23
f 24/24/24 19/19/19 18/18/18
f 25/25/25 19/19/19 24/24/24
f 26/26/26 21/21/21 16/16/16
f 26/26/26 16/16/16 22/22/22
f 27/27/27 18/18/18 20/20/20
f 24/24/24 18/18/18 27/27/27
f 28/28/28 20/20/20 21/21/21
f 28/28/28 21/21/21 26/26/26
f 27/27/27 20/20/20 28/28/28
f 29/29/29 22/22/22 23/23/23
f 29/29/29 23/23/23 30/30/30
f 31/31/31 25/25/25 24/24/24
f 25/25/25 31/31/31 32/32/32
f 33/33/33 26/26/26 22/22/22
f 33/33/33 22/22/22 29/29/29
f 34/34/34 28/28/28 26/26/26
f 34/34/34 26/26/26 33/33/33
f 35/35/35 27/27/27 28/28/28
f 35/35/35 28/28/28 34/34/34
f 36/36/36 24/24/24 27/27/27
f 31/31/31 24/24/24 36/36/36
f 36/36/36 27/27/27 35/35/35
f 37/37/37 29/29/29 30/30/30
f 37/37/37 30/30/30 38/38/38
f 39/39/39 37/37/37 38/38/38
f 40/40/40 33/33/33 29/29/29
f 40/40/40 29/29/29 37/37/37
f 41/41/41 37/37/37 39/39/39
f 41/41/41 40/40/40 37/37/37
f 42/42/42 41/41/41 39/39/39
f 43/43/43 34/34/34 33/33/33
f 43/43/43 33/33/33 40/40/40
f 44/44/44 35/35/35 34/34/34
f 44/44/44 34/34/34 43/43/43
f 45/45/45 36/36/36 35/35/35
f 45/45/45 35/35/35 44/44/44
f 46/46/46 41/41/41 42/42/42
f 47/47/47 46/46/46 42/42/42
f 48/48/48 40/40/40 41/41/41
f 48/48/48 43/43/43 40/40/40
f 46/46/46 48/48/48 41/41/41
f 49/49/49 44/44/44 43/43/43
f 49/49/49 43/43/43 48/48/48
f 50/50/50 46/46/46 47/47/47
f 51/51/51 50/50/50 47/47/47
f 52/52/52 48/48/48 46/46/46
f 52/52/52 49/49/49 48/48/48
f 50/50/50 52/52/52 46/46/46
f 53/53/53 44/44/44 49/49/49
f 53/53/53 45/45/45 44/44/44
f 54/54/54 36/36/36 45/45/45
f 54/54/54 31/31/31 36/36/36
f 55/55/55 50/50/50 51/51/51
f 56/56/56 55/55/55 51/51/51
f 57/57/57 52/52/52 50/50/50
f 55/55/55 57/57/57 50/50/50
f 58/58/58 49/49/49 52/52/52
f 58/58/58 53/53/53 49/49/49
f 57/57/57 58/58/58 52/52/52
f 59/59/59 45/45/45 53/53/53
f 59/59/59 54/54/54 45/45/45
f 31/31/31 54/54/54 60/60/60
f 31/31/31 60/60/60 32/32/32
f 32/32/32 60/60/60 61/61/61
f 60/60/60 62/62/62 61/61/61
f 54/54/54 63/63/63 60/60/60
f 60/60/60 63/63/63 62/62/62
f 63/63/63 54/54/54 59/59/59
f 63/63/63 64/64/64 62/62/62
f 64/64/64 63/63/63 65/65/65
f 65/65/65 63/63/63 59/59/59
f 66/66/66 64/64/64 65/65/65
f 67/67/67 59/59/59 53/53/53
f 67/67/67 53/53/53 58/58/58
f 65/65/65 59/59/59 67/67/67
f 66/66/66 65/65/65 68/68/68
f 68/68/68 65/65/65 67/67/67
f 69/69/69 66/66/66 68/68/68
f 70/70/70 67/67/67 58/58/58
f 68/68/68 67/67/67 70/70/70
f 70/70/70 58/58/58 57/57/57
f 69/69/69 68/68/68 71/71/71
f 71/71/71 68/68/68 70/70/70
f 72/72/72 69/69/69 71/71/71
f 73/73/73 70/70/70 57/57/57
f 71/71/71 70/70/70 73/73/73
f 73/73/73 57/57/57 55/55/55
f 72/72/72 71/71/71 74/74/74
f 74/74/74 71/71/71 73/73/73
f 75/75/75 72/72/72 74/74/74
f 76/76/76 73/73/73 55/55/55
f 74/74/74 73/73/73 76/76/76
f 76/76/76 55/55/55 56/56/56
f 77/77/77 76/76/76 56/56/56
f 75/75/75 74/74/74 78/78/78
f 78/78/78 74/74/74 76/76/76
f 78/78/78 76/76/76 77/77/77
f 79/79/79 75/75/75 78/78/78
f 80/80/80 78/78/78 77/77/77
f 79/79/79 78/78/78 80/80/80
f 81/81/81 79/79/79 80/80/80
f 84/84/84 83/83/83 82/82/82
f 85/85/85 84/84/84 82/82/82
f 85/85/85 82/82/82 86/86/86
f 87/87/87 84/84/84 85/85/85
f 88/88/88 85/85/85 86/86/86
f 88/88/88 86/86/86 89/89/89
f 90/90/90 87/87/87 85/85/85
f 90/90/90 85/85/85 88/88/88
f 91/91/91 87/87/87 90/90/90
f 92/92/92 88/88/88 89/89/89
f 92/92/92 89/89/89 93/93/93
f 94/94/94 91/91/91 90/90/90
f 95/95/95 91/91/91 94/94/94
f 96/96/96 90/90/90 88/88/88
f 96/96/96 88/88/88 92/92/92
f 94/94/94 90/90/90 96/96/96
f 97/97/97 92/92/92 93/93/93
f 97/97/97 93/93/93 98/98/98
f 99/99/99 95/95/95 94/94/94
f 100/100/100 95/95/95 99/99/99
f 101/101/101 94/94/94 96/96/96
f 99/99/99 94/94/94 101/101/101
f 102/102/102 96/96/96 92/92/92
f 102/102/102 92/92/92 97/97/97
f 101/101/101 96/96/96 102/102/102
f 103/103/103 97/97/97 98/98/98
f 103/103/103 98/98/98 104/104/104
f 105/105/105 100/100/100 99/99/99
f 106/106/106 100/100/100 105/105/105
f 107/107/107 106/106/106 105/105/105
f 108/108/108 102/102/102 97/97/97
f 108/108/108 97/97/97 103/103/103
f 109/109/109 99/99/99 101/101/101
f 105/105/105 99/99/99 109/109/109
f 107/107/107 105/105/105 110/110/110
f 110/110/110 105/105/105 109/109/109
f 111/111/111 107/107/107 110/110/110
f 112/112/112 101/101/101 102/102/102
f 109/109/109 101/101/101 112/112/112
f 112/112/112 102/102/102 108/108/108
f 113/113/113 103/103/103 104/104/104
f 113/113/113 104/104/104 114/114/114
f 110/110/110 109/109/109 115/115/115
f 115/115/115 109/109/109 112/112/112
f 111/111/111 110/110/110 116/116/116
f 116/116/116 110/110/110 115/115/115
f 117/117/117 111/111/111 116/116/116
f 118/118/118 108/108/108 103/103/103
f 118/118/118 103/103/103 113/113/113
f 119/119/119 112/112/112 108/108/108
f 115/115/115 112/112/112 119/119/119
f 119/119/119 108/108/108 118/118/118
f 120/120/120 113/113/113 114/114/114
f 120/120/120 114/114/114 121/121/121
f 117/117/117 116/116/116 122/122/122
f 123/123/123 117/117/117 122/122/122
f 116/116/116 115/115/115 124/124/124
f 124/124/124 115/115/115 119/119/119
f 122/122/122 116/116/116 124/124/124
f 125/125/125 119/119/119 118/118/118
f 124/124/124 119/119/119 125/125/125
f 126/126/126 118/118/118 113/113/113
f 126/126/126 113/113/113 120/120/120
f 125/125/125 118/118/118 126/126/126
f 127/127/127 120/120/120 121/121/121
f 127/127/127 121/121/121 128/128/128
f 123/123/123 122/122/122 129/129/129
f 130/130/130 123/123/123 129/129/129
f 122/122/122 124/124/124 131/131/131
f 131/131/131 124/124/124 125/125/125
f 129/129/129 122/122/122 131/131/131
f 132/132/132 126/126/126 120/120/120
f 132/132/132 120/120/120 127/127/127
f 133/133/133 125/125/125 126/126/126
f 131/131/131 125/125/125 133/133/133
f 133/133/133 126/126/126 132/132/132
f 134/134/134 127/127/127 128/128/128
f 134/134/134 128/128/128 135/135/135
f 130/130/130 129/129/129 136/136/136
f 137/137/137 130/130/130 136/136/136
f 129/129/129 131/131/131 138/138/138
f 138/138/138 131/131/131 133/133/133
f 136/136/136 129/129/129 138/138/138
f 139/139/139 132/132/132 127/127/127
f 139/139/139 127/127/127 134/134/134
f 140/140/140 133/133/133 132/132/132
f 138/138/138 133/133/133 140/140/140
f 140/140/140 132/132/132 139/139/139
f 141/141/141 134/134/134 135/135/135
f 141/141/141 135/135/135 142/142/142
f 137/137/137 136/136/136 143/143/143
f 144/144/144 137/137/137 143/143/143
f 136/136/136 138/138/138 145/145/145
f 145/145/145 138/138/138 140/140/140
f 143/143/143 136/136/136 145/145/145
f 146/146/146 139/139/139 134/134/134
f 146/146/146 134/134/134 141/141/141
f 147/147/147 140/140/140 139/139/139
f 145/145/145 140/140/140 147/147/147
f 147/147/147 139/139/139 146/146/146
f 148/148/148 141/141/141 142/142/142
f 148/148/148 142/142/142 149/149/149
f 144/144/144 143/143/143 150/150/150
f 151/151/151 144/144/144 150/150/150
f 143/143/143 145/145/145 152/152/152
f 152/152/152 145/145/145 147/147/147
f 150/150/150 143/143/143 152/152/152
f 153/153/153 146/146/146 141/141/141
f 153/153/153 141/141/141 148/148/148
f 154/154/154 147/147/147 146/146/146
f 152/152/152 147/147/147 154/154/154
f 154/154/154 146/146/146 153/153/153
f 155/155/155 148/148/148 149/149/149
f 155/155/155 149/149/149 156/156/156
f 151/151/151 150/150/150 157/157/157
f 158/158/158 151/151/151 157/157/157
f 150/150/150 152/152/152 159/159/159
f 159/159/159 152/152/152 154/154/154
f 157/157/157 150/150/150 159/159/159
f 160/160/160 153/153/153 148/148/148
f 160/160/160 148/148/148 155/155/155
f 161/161/161 154/154/154 153/153/153
f 159/159/159 154/154/154 161/161/161
f 161/161/161 153/153/153 160/160/160
f 162/162/162 155/155/155 156/156/156
f 162/162/162 156/156/156 163/163/163
f 158/158/158 157/157/157 164/164/164
f 165/165/165 158/158/158 164/164/164
f 157/157/157 159/159/159 166/166/166
f 166/166/166 159/159/159 161/161/161
f 164/164/164 157/157/157 166/166/166
f 167/167/167 160/160/160 155/155/155
f 167/167/167 155/155/155 162/162/162
f 168/168/168 161/161/161 160/160/160
f 166/166/166 161/161/161 168/168/168
f 168/168/168 160/160/160 167/167/167
f 169/169/169 162/162/162 163/163/163
f 163/163/163 170/170/170 169/169/169
f 164/164/164 171/171/171 165/165/165
f 171/171/171 172/172/172 165/165/165
f 166/166/166 173/173/173 164/164/164
f 173/173/173 166/166/166 168/168/168
f 173/173/173 171/171/171 164/164/164
f 174/174/174 168/168/168 167/167/167
f 173/173/173 168/168/168 174/174/174
f 175/175/175 167/167/167 162/162/162
f 175/175/175 162/162/162 169/169/169
f 174/174/174 167/167/167 175/175/175
f 170/170/170 176/176/176 169/169/169
f 170/170/170 177/177/177 176/176/176
f 171/171/171 178/178/178 172/172/172
f 178/178/178 179/179/179 172/172/172
f 173/173/173 180/180/180 171/171/171
f 180/180/180 173/173/173 174/174/174
f 180/180/180 178/178/178 171/171/171
f 181/181/181 174/174/174 175/175/175
f 180/180/180 174/174/174 181/181/181
f 182/182/182 175/175/175 169/169/169
f 169/169/169 176/176/176 182/182/182
f 181/181/181 175/175/175 182/182/182
f 177/177/177 183/183/183 176/176/176
f 177/177/177 184/184/184 183/183/183
f 178/178/178 185/185/185 179/179/179
f 185/185/185 186/186/186 179/179/179
f 180/180/180 187/187/187 178/178/178
f 187/187/187 180/180/180 181/181/181
f 187/187/187 185/185/185 178/178/178
f 188/188/188 181/181/181 182/182/182
f 187/187/187 181/181/181 188/188/188
f 176/176/176 189/189/189 182/182/182
f 176/176/176 183/183/183 189/189/189
f 182/182/182 189/189/189 188/188/188
f 184/184/184 190/190/190 183/183/183
f 184/184/184 191/191/191 190/190/190
f 185/185/185 192/192/192 186/186/186
f 192/192/192 193/193/193 186/186/186
f 187/187/187 194/194/194 185/185/185
f 194/194/194 187/187/187 188/188/188
f 194/194/194 192/192/192 185/185/185
f 189/189/189 195/195/195 188/188/188
f 188/188/188 195/195/195 194/194/194
f 183/183/183 196/196/196 189/189/189
f 183/183/183 190/190/190 196/196/196
f 189/189/189 196/196/196 195/195/195
f 191/191/191 197/197/197 190/190/190
f 191/191/191 198/198/198 197/197/197
f 192/192/192 199/199/199 193/193/193
f 199/199/199 200/200/200 193/193/193
f 194/194/194 201/201/201 192/192/192
f 195/195/195 201/201/201 194/194/194
f 201/201/201 199/199/199 192/192/192
f 196/196/196 202/202/202 195/195/195
f 195/195/195 202/202/202 201/201/201
f 190/190/190 203/203/203 196/196/196
f 190/190/190 197/197/197 203/203/203
f 196/196/196 203/203/203 202/202/202
f 198/198/198 204/204/204 197/197/197
f 198/198/198 205/205/205 204/204/204
f 199/199/199 206/206/206 200/200/200
f 206/206/206 207/207/207 200/200/200
f 201/201/201 208/208/208 199/199/199
f 202/202/202 208/208/208 201/201/201
f 208/208/208 206/206/206 199/199/199
f 203/203/203 209/209/209 202/202/202
f 202/202/202 209/209/209 208/208/208
f 197/197/197 210/210/210 203/203/203
f 197/197/197 204/204/204 210/210/210
f 203/203/203 210/210/210 209/209/209
f 205/205/205 211/211/211 204/204/204
f 205/205/205 212/212/212 211/211/211
f 206/206/206 213/213/213 207/207/207
f 213/213/213 214/214/214 207/207/207
f 208/208/208 215/215/215 206/206/206
f 209/209/209 215/215/215 208/208/208
f 215/215/215 213/213/213 206/206/206
f 210/210/210 216/216/216 209/209/209
f 209/209/209 216/216/216 215/215/215
f 204/204/204 217/217/217 210/210/210
f 204/204/204 211/211/211 217/217/217
f 210/210/210 217/217/217 216/216/216
f 212/212/212 218/218/218 211/211/211
f 212/212/212 219/219/219 218/218/218
f 213/213/213 220/220/220 214/214/214
f 220/220/220 221/221/221 214/214/214
f 215/215/215 222/222/222 213/213/213
f 216/216/216 222/222/222 215/215/215
f 222/222/222 220/220/220 213/213/213
f 211/211/211 223/223/223 217/217/217
f 211/211/211 218/218/218 223/223/223
f 217/217/217 224/224/224 216/216/216
f 216/216/216 224/224/224 222/222/222
f 217/217/217 223/223/223 224/224/224
f 219/219/219 225/225/225 218/218/218
f 219/219/219 226/226/226 225/225/225
f 220/220/220 227/227/227 221/221/221
f 227/227/227 228/228/228 221/221/221
f 222/222/222 229/229/229 220/220/220
f 224/224/224 229/229/229 222/222/222
f 229/229/229 227/227/227 220/220/220
f 218/218/218 230/230/230 223/223/223
f 218/218/218 225/225/225 230/230/230
f 223/223/223 231/231/231 224/224/224
f 224/224/224 231/231/231 229/229/229
f 223/223/223 230/230/230 231/231/231
f 226/226/226 232/232/232 225/225/225
f 226/226/226 233/233/233 232/232/232
f 227/227/227 234/234/234 228/228/228
f 234/234/234 235/235/235 228/228/228
f 229/229/229 236/236/236 227/227/227
f 231/231/231 236/236/236 229/229/229
f 236/236/236 234/234/234 227/227/227
f 230/230/230 237/237/237 231/231/231
f 231/231/231 237/237/237 236/236/236
f 225/225/225 238/238/238 230/230/230
f 225/225/225 232/232/232 238/238/238
f 230/230/230 238/238/238 237/237/237
f 233/233/233 239/239/239 232/232/232
f 233/233/233 240/240/240 239/239/239
f 234/234/234 241/241/241 235/235/235
f 241/241/241 242/242/242 235/235/235
f 236/236/236 243/243/243 234/234/234
f 237/237/237 243/243/243 236/236/236
f 243/243/243 241/241/241 234/234/234
f 238/238/238 244/244/244 237/237/237
f 237/237/237 244/244/244 243/243/243
f 232/232/232 245/245/245 238/238/238
f 232/232/232 239/239/239 245/245/245
f 238/238/238 245/245/245 244/244/244
f 240/240/240 246/246/246 239/239/239
f 240/240/240 247/247/247 246/246/246
f 241/241/241 248/248/248 242/242/242
f 248/248/248 249/249/249 242/242/242
f 243/243/243 250/250/250 241/241/241
f 244/244/244 250/250/250 243/243/243
f 250/250/250 248/248/248 241/241/241
f 245/245/245 251/251/251 244/244/244
f 244/244/244 251/251/251 250/250/250
f 239/239/239 252/252/252 245/245/245
f 239/239/239 246/246/246 252/252/252
f 245/245/245 252/252/252 251/251/251
f 247/247/247 253/253/253 246/246/246
f 253/253/253 247/247/247 254/254/254
f 248/248/248 255/255/255 249/249/249
f 255/255/255 256/256/256 249/249/249
f 250/250/250 257/257/257 248/248/248
f 251/251/251 257/257/257 250/250/250
f 257/257/257 255/255/255 248/248/248
f 246/246/246 258/258/258 252/252/252
f 246/246/246 253/253/253 258/258/258
f 252/252/252 259/259/259 251/251/251
f 251/251/251 259/259/259 257/257/257
f 252/252/252 258/258/258 259/259/259
f 260/260/260 253/253/253 254/254/254
f 260/260/260 254/254/254 261/261/261
f 255/255/255 262/262/262 256/256/256
f 262/262/262 263/263/263 256/256/256
f 257/257/257 264/264/264 255/255/255
f 259/259/259 264/264/264 257/257/257
f 264/264/264 262/262/262 255/255/255
f 258/258/258 265/265/265 259/259/259
f 259/259/259 265/265/265 264/264/264
f 253/253/253 266/266/266 258/258/258
f 266/266/266 253/253/253 260/260/260
f 258/258/258 266/266/266 265/265/265
f 267/267/267 260/260/260 261/261/261
f 267/267/267 261/261/261 268/268/268
f 262/262/262 269/269/269 263/263/263
f 269/269/269 270/270/270 263/263/263
f 264/264/264 271/271/271 262/262/262
f 265/265/265 271/271/271 264/264/264
f 271/271/271 269/269/269 262/262/262
f 266/266/266 272/272/272 265/265/265
f 265/265/265 272/272/272 271/271/271
f 273/273/273 266/266/266 260/260/260
f 273/273/273 260/260/260 267/267/267
f 272/272/272 266/266/266 273/273/273
f 274/274/274 267/267/267 268/268/268
f 274/274/274 268/268/268 275/275/275
f 269/269/269 276/276/276 270/270/270
f 276/276/276 277/277/277 270/270/270
f 271/271/271 278/278/278 269/269/269
f 272/272/272 278/278/278 271/271/271
f 278/278/278 276/276/276 269/269/269
f 279/279/279 272/272/272 273/273/273
f 278/278/278 272/272/272 279/279/279
f 280/280/280 273/273/273 267/267/267
f 280/280/280 267/267/267 274/274/274
f 279/279/279 273/273/273 280/280/280
f 281/281/281 274/274/274 275/275/275
f 281/281/281 275/275/275 282/282/282
f 276/276/276 283/283/283 277/277/277
f 283/283/283 284/284/284 277/277/277
f 278/278/278 285/285/285 276/276/276
f 285/285/285 278/278/278 279/279/279
f 285/285/285 283/283/283 276/276/276
f 286/286/286 279/279/279 280/280/280
f 285/285/285 279/279/279 286/286/286
f 287/287/287 280/280/280 274/274/274
f 287/287/287 274/274/274 281/281/281
f 286/286/286 280/280/280 287/287/287
f 288/288/288 281/281/281 282/282/282
f 288/288/288 282/282/282 289/289/289
f 290/290/290 288/288/288 289/289/289
f 283/283/283 291/291/291 284/284/284
f 291/291/291 292/292/292 284/284/284
f 285/285/285 293/293/293 283/283/283
f 293/293/293 285/285/285 286/286/286
f 293/293/293 291/291/291 283/283/283
f 294/294/294 287/287/287 281/281/281
f 294/294/294 281/281/281 288/288/288
f 295/295/295 288/288/288 290/290/290
f 295/295/295 294/294/294 288/288/288
f 296/296/296 295/295/295 290/290/290
f 297/297/297 286/286/286 287/287/287
f 293/293/293 286/286/286 297/297/297
f 297/297/297 287/287/287 294/294/294
f 291/291/291 298/298/298 292/292/292
f 298/298/298 299/299/299 292/292/292
f 293/293/293 300/300/300 291/291/291
f 300/300/300 293/293/293 297/297/297
f 300/300/300 298/298/298 291/291/291
f 301/301/301 297/297/297 294/294/294
f 301/301/301 294/294/294 295/295/295
f 300/300/300 297/297/297 301/301/301
f 302/302/302 295/295/295 296/296/296
f 302/302/302 301/301/301 295/295/295
f 303/303/303 302/302/302 296/296/296
f 304/304/304 300/300/300 301/301/301
f 300/300/300 304/304/304 298/298/298
f 304/304/304 301/301/301 302/302/302
f 298/298/298 305/305/305 299/299/299
f 304/304/304 305/305/305 298/298/298
f 305/305/305 306/306/306 299/299/299
f 307/307/307 302/302/302 303/303/303
f 307/307/307 304/304/304 302/302/302
f 305/305/305 304/304/304 307/307/307
f 308/308/308 307/307/307 303/303/303
f 306/306/306 305/305/305 309/309/309
f 309/309/309 305/305/305 307/307/307
f 309/309/309 307/307/307 308/308/308
f 310/310/310 306/306/306 309/309/309
f 311/311/311 309/309/309 308/308/308
f 310/310/310 309/309/309 311/311/311
f 312/312/312 310/310/310 311/311/311
f 315/315/315 314/314/314 313/313/313
f 316/316/316 315/315/315 313/313/313
f 315/315/315 317/317/317 314/314/314
f 313/313/313 318/318/318 316/316/316
f 318/318/318 319/319/319 316/316/316
f 317/317/317 320/320/320 314/314/314
f 320/320/320 317/317/317 321/321/321
f 318/318/318 322/322/322 319/319/319
f 322/322/322 323/323/323 319/319/319
f 324/324/324 320/320/320 321/321/321
f 324/324/324 321/321/321 325/325/325
f 322/322/322 326/326/326 323/323/323
f 326/326/326 327/327/327 323/323/323
f 328/328/328 324/324/324 325/325/325
f 328/328/328 325/325/325 329/329/329
f 326/326/326 330/330/330 327/327/327
f 330/330/330 331/331/331 327/327/327
f 332/332/332 328/328/328 329/329/329
f 332/332/332 329/329/329 333/333/333
f 330/330/330 334/334/334 331/331/331
f 334/334/334 335/335/335 331/331/331
f 336/336/336 332/332/332 333/333/333
f 336/336/336 333/333/333 337/337/337
f 334/334/334 338/338/338 335/335/335
f 338/338/338 339/339/339 335/335/335
f 340/340/340 336/336/336 337/337/337
f 340/340/340 337/337/337 341/341/341
f 339/339/339 338/338/338 342/342/342
f 343/343/343 339/339/339 342/342/342
f 344/344/344 340/340/340 341/341/341
f 344/344/344 341/341/341 345/345/345
f 343/343/343 342/342/342 346/346/346
f 347/347/347 343/343/343 346/346/346
f 348/348/348 344/344/344 345/345/345
f 348/348/348 345/345/345 349/349/349
f 346/346/346 350/350/350 347/347/347
f 350/350/350 351/351/351 347/347/347
f 352/352/352 348/348/348 349/349/349
f 352/352/352 349/349/349 353/353/353
f 350/350/350 354/354/354 351/351/351
f 354/354/354 355/355/355 351/351/351
f 356/356/356 352/352/352 353/353/353
f 356/356/356 353/353/353 357/357/357
f 354/354/354 358/358/358 355/355/355
f 358/358/358 359/359/359 355/355/355
f 360/360/360 356/356/356 357/357/357
f 357/357/357 361/361/361 360/360/360
f 358/358/358 362/362/362 359/359/359
f 362/362/362 363/363/363 359/359/359
f 361/361/361 364/364/364 360/360/360
f 361/361/361 365/365/365 364/364/364
f 363/363/363 362/362/362 366/366/366
f 367/367/367 363/363/363 366/366/366
f 365/365/365 368/368/368 364/364/364
f 365/365/365 369/369/369 368/368/368
f 367/367/367 366/366/366 370/370/370
f 371/371/371 367/367/367 370/370/370
f 369/369/369 372/372/372 368/368/368
f 369/369/369 373/373/373 372/372/372
f 371/371/371 370/370/370 374/374/374
f 375/375/375 371/371/371 374/374/374
f 373/373/373 375/375/375 376/376/376
f 373/373/373 376/376/376 372/372/372
f 375/375/375 374/374/374 376/376/376
f 366/366/366 362/362/362 377/377/377
f 370/370/370 366/366/366 378/378/378
f 366/366/366 377/377/377 378/378/378
f 379/379/379 374/374/374 370/370/370
f 378/378/378 379/379/379 370/370/370
f 376/376/376 374/374/374 380/380/380
f 374/374/374 379/379/379 380/380/380
f 372/372/372 376/376/376 381/381/381
f 376/376/376 380/380/380 381/381/381
f 368/368/368 372/372/372 382/382/382
f 372/372/372 381/381/381 382/382/382
f 383/383/383 379/379/379 378/378/378
f 377/377/377 383/383/383 378/378/378
f 362/362/362 384/384/384 377/377/377
f 384/384/384 362/362/362 358/358/358
f 385/385/385 380/380/380 379/379/379
f 383/383/383 385/385/385 379/379/379
f 381/381/381 380/380/380 386/386/386
f 380/380/380 385/385/385 386/386/386
f 387/387/387 383/383/383 377/377/377
f 384/384/384 387/387/387 377/377/377
f 388/388/388 384/384/384 358/358/358
f 388/388/388 358/358/358 354/354/354
f 389/389/389 385/385/385 383/383/383
f 387/387/387 389/389/389 383/383/383
f 390/390/390 387/387/387 384/384/384
f 388/388/388 390/390/390 384/384/384
f 391/391/391 388/388/388 354/354/354
f 391/391/391 354/354/354 350/350/350
f 381/381/381 386/386/386 392/392/392
f 382/382/382 381/381/381 392/392/392
f 386/386/386 385/385/385 393/393/393
f 385/385/385 389/389/389 393/393/393
f 394/394/394 389/389/389 387/387/387
f 390/390/390 394/394/394 387/387/387
f 395/395/395 390/390/390 388/388/388
f 391/391/391 395/395/395 388/388/388
f 396/396/396 391/391/391 350/350/350
f 396/396/396 350/350/350 346/346/346
f 392/392/392 386/386/386 397/397/397
f 386/386/386 393/393/393 397/397/397
f 393/393/393 389/389/389 398/398/398
f 398/398/398 389/389/389 394/394/394
f 399/399/399 394/394/394 390/390/390
f 395/395/395 399/399/399 390/390/390
f 400/400/400 395/395/395 391/391/391
f 396/396/396 400/400/400 391/391/391
f 401/401/401 396/396/396 346/346/346
f 346/346/346 342/342/342 401/401/401
f 397/397/397 393/393/393 402/402/402
f 402/402/402 393/393/393 398/398/398
f 398/398/398 394/394/394 403/403/403
f 403/403/403 394/394/394 399/399/399
f 404/404/404 399/399/399 395/395/395
f 400/400/400 404/404/404 395/395/395
f 405/405/405 400/400/400 396/396/396
f 401/401/401 405/405/405 396/396/396
f 342/342/342 406/406/406 401/401/401
f 406/406/406 342/342/342 338/338/338
f 402/402/402 398/398/398 407/407/407
f 407/407/407 398/398/398 403/403/403
f 403/403/403 399/399/399 408/408/408
f 408/408/408 399/399/399 404/404/404
f 409/409/409 404/404/404 400/400/400
f 405/405/405 409/409/409 400/400/400
f 405/405/405 401/401/401 410/410/410
f 401/401/401 406/406/406 410/410/410
f 411/411/411 406/406/406 338/338/338
f 411/411/411 338/338/338 334/334/334
f 406/406/406 411/411/411 412/412/412
f 412/412/412 411/411/411 334/334/334
f 410/410/410 406/406/406 412/412/412
f 412/412/412 334/334/334 330/330/330
f 413/413/413 412/412/412 330/330/330
f 410/410/410 412/412/412 413/413/413
f 413/413/413 330/330/330 326/326/326
f 405/405/405 410/410/410 414/414/414
f 414/414/414 410/410/410 413/413/413
f 409/409/409 405/405/405 414/414/414
f 415/415/415 413/413/413 326/326/326
f 414/414/414 413/413/413 415/415/415
f 415/415/415 326/326/326 322/322/322
f 409/409/409 414/414/414 416/416/416
f 416/416/416 414/414/414 415/415/415
f 417/417/417 415/415/415 322/322/322
f 416/416/416 415/415/415 417/417/417
f 417/417/417 322/322/322 318/318/318
f 418/418/418 409/409/409 416/416/416
f 404/404/404 409/409/409 418/418/418
f 408/408/408 404/404/404 418/418/418
f 419/419/419 417/417/417 318/318/318
f 419/419/419 318/318/318 313/313/313
f 420/420/420 416/416/416 417/417/417
f 418/418/418 416/416/416 420/420/420
f 420/420/420 417/417/417 419/419/419
f 408/408/408 418/418/418 421/421/421
f 421/421/421 418/418/418 420/420/420
f 422/422/422 419/419/419 313/313/313
f 314/314/314 422/422/422 313/313/313
f 423/423/423 420/420/420 419/419/419
f 421/421/421 420/420/420 423/423/423
f 423/423/423 419/419/419 422/422/422
f 424/424/424 408/408/408 421/421/421
f 424/424/424 403/403/403 408/408/408
f 407/407/407 403/403/403 424/424/424
f 314/314/314 425/425/425 422/422/422
f 320/320/320 425/425/425 314/314/314
f 426/426/426 421/421/421 423/423/423
f 424/424/424 421/421/421 426/426/426
f 427/427/427 423/423/423 422/422/422
f 425/425/425 427/427/427 422/422/422
f 426/426/426 423/423/423 427/427/427
f 407/407/407 424/424/424 428/428/428
f 428/428/428 424/424/424 426/426/426
f 425/425/425 320/320/320 429/429/429
f 429/429/429 320/320/320 324/324/324
f 430/430/430 426/426/426 427/427/427
f 428/428/428 426/426/426 430/430/430
f 427/427/427 425/425/425 431/431/431
f 425/425/425 429/429/429 431/431/431
f 427/427/427 431/431/431 430/430/430
f 432/432/432 429/429/429 324/324/324
f 431/431/431 429/429/429 432/432/432
f 432/432/432 324/324/324 328/328/328
f 433/433/433 407/407/407 428/428/428
f 402/402/402 407/407/407 433/433/433
f 431/431/431 434/434/434 430/430/430
f 431/431/431 432/432/432 434/434/434
f 435/435/435 432/432/432 328/328/328
f 432/432/432 435/435/435 434/434/434
f 435/435/435 328/328/328 332/332/332
f 436/436/436 428/428/428 430/430/430
f 430/430/430 434/434/434 436/436/436
f 433/433/433 428/428/428 436/436/436
f 437/437/437 402/402/402 433/433/433
f 397/397/397 402/402/402 437/437/437
f 438/438/438 435/435/435 332/332/332
f 438/438/438 332/332/332 336/336/336
f 434/434/434 435/435/435 439/439/439
f 434/434/434 439/439/439 436/436/436
f 435/435/435 438/438/438 439/439/439
f 440/440/440 433/433/433 436/436/436
f 436/436/436 439/439/439 440/440/440
f 437/437/437 433/433/433 440/440/440
f 441/441/441 397/397/397 437/437/437
f 392/392/392 397/397/397 441/441/441
f 442/442/442 438/438/438 336/336/336
f 442/442/442 336/336/336 340/340/340
f 439/439/439 438/438/438 443/443/443
f 439/439/439 443/443/443 440/440/440
f 438/438/438 442/442/442 443/443/443
f 444/444/444 437/437/437 440/440/440
f 440/440/440 443/443/443 444/444/444
f 441/441/441 437/437/437 444/444/444
f 445/445/445 392/392/392 441/441/441
f 382/382/382 392/392/392 445/445/445
f 446/446/446 442/442/442 340/340/340
f 446/446/446 340/340/340 344/344/344
f 443/443/443 442/442/442 447/447/447
f 443/443/443 447/447/447 444/444/444
f 442/442/442 446/446/446 447/447/447
f 448/448/448 441/441/441 444/444/444
f 444/444/444 447/447/447 448/448/448
f 445/445/445 441/441/441 448/448/448
f 449/449/449 382/382/382 445/445/445
f 368/368/368 382/382/382 449/449/449
f 364/364/364 368/368/368 449/449/449
f 450/450/450 446/446/446 344/344/344
f 450/450/450 344/344/344 348/348/348
f 447/447/447 446/446/446 451/451/451
f 447/447/447 451/451/451 448/448/448
f 446/446/446 450/450/450 451/451/451
f 452/452/452 445/445/445 448/448/448
f 449/449/449 445/445/445 452/452/452
f 452/452/452 448/448/448 451/451/451
f 364/364/364 449/449/449 453/453/453
f 453/453/453 449/449/449 452/452/452
f 360/360/360 364/364/364 453/453/453
f 454/454/454 452/452/452 451/451/451
f 454/454/454 451/451/451 450/450/450
f 453/453/453 452/452/452 454/454/454
f 455/455/455 450/450/450 348/348/348
f 455/455/455 454/454/454 450/450/450
f 455/455/455 348/348/348 352/352/352
f 453/453/453 456/456/456 360/360/360
f 456/456/456 453/453/453 454/454/454
f 456/456/456 454/454/454 455/455/455
f 456/456/456 356/356/356 360/360/360
f 457/457/457 352/352/352 356/356/356
f 457/457/457 455/455/455 352/352/352
f 456/456/456 457/457/457 356/356/356
f 457/457/457 456/456/456 455/455/455
