g item_09_06item_09_06_mobile
v -0.287974895 -0.691929837 -0.0041085604
v -0.220243269 -0.845501382 0.0310061005
v -0.194531697 -0.8535087 0.00500068218
v -0.272180644 -0.683371557 -0.0349257157
v -0.104945235 -0.436503737 -0.0789659652
v -0.059399022 -0.360581138 -0.0034474057
v -0.0898488691 -0.359075175 0.0152853109
v -0.136533737 -0.436724121 -0.062143251
v -0.195229583 -0.341481113 0.162649348
v -0.310637809 -0.435622197 0.15420126
v -0.1969192 -0.337440723 0.198278241
v -0.314237429 -0.435879313 0.189058805
v -0.128195842 -0.318891661 0.304467032
v -0.217451727 -0.43532835 0.367937884
v -0.0983704187 -0.31661435 0.326285137
v -0.187552842 -0.43396931 0.389462142
v 0.0249349336 -0.308202993 0.354310751
v 0.00884683577 -0.434593734 0.447092794
v 0.0626207517 -0.305668567 0.35475152
v 0.0454307294 -0.433748925 0.449480297
v 0.256375811 -0.303648372 0.323383403
v 0.350076124 -0.434483542 0.415981792
v 0.276908337 -0.308092801 0.294953751
v 0.37009442 -0.433197963 0.385899253
v 0.249176571 -0.33413495 0.111997552
v 0.33685303 -0.43576912 0.097709264
v 0.236614631 -0.339901688 0.079050009
v 0.325760324 -0.435438543 0.0635128734
v 0.199626699 -0.349598624 0.015873004
v 0.266146208 -0.436283352 -0.0429697646
v 0.170756277 -0.354630746 -0.00473298429
v 0.236981939 -0.435365081 -0.0645307541
v 0.0988740679 -0.358009981 -0.0215924292
v 0.120875827 -0.436613929 -0.0978823359
v 0.0628778674 -0.360103637 -0.0228780078
v 0.0847694342 -0.436136428 -0.100453493
v -0.059399022 -0.360581138 -0.0034474057
v -0.104945235 -0.436503737 -0.0789659652
v -0.136533737 -0.436724121 -0.062143251
v -0.310637809 -0.435622197 0.15420126
v -0.320665322 -0.466145506 0.134146234
v -0.157874342 -0.465925121 -0.0683507591
v -0.286983163 -0.640176116 -0.0200130041
v -0.254292736 -0.640433232 -0.050315928
v -0.298847217 -0.658614986 0.00731472365
v -0.143439131 -0.490204191 -0.0914544429
v -0.272180644 -0.683371557 -0.0349257157
v -0.287974895 -0.691929837 -0.0041085604
v -0.132530078 -0.602894337 -0.125246794
v -0.111630244 -0.466916853 -0.0970742579
v -0.104945235 -0.436503737 -0.0789659652
v 0.0847694342 -0.436136428 -0.100453493
v -0.112768899 -0.634225724 -0.128295452
v -0.194531697 -0.8535087 0.00500068218
v -0.0984806111 -0.594005479 -0.136412963
v 0.09042598 -0.466072044 -0.11966371
v 0.120875827 -0.436613929 -0.0978823359
v -0.0646515288 -0.621553592 -0.142473548
v 0.0956050252 -0.540158102 -0.145705859
v 0.127046604 -0.475291479 -0.122749099
v 0.130940071 -0.53020405 -0.142657202
v 0.0988373371 -0.575676802 -0.151105289
v 0.1115462 -0.710295245 -0.144457012
v 0.0932909837 -0.739128937 -0.134209114
v 0.17946148 -0.463390694 -0.105669269
v 0.236981939 -0.435365081 -0.0645307541
v 0.258396006 -0.463794733 -0.083410394
v 0.266146208 -0.436283352 -0.0429697646
v 0.285282964 -0.462398962 -0.0610045957
v 0.325760324 -0.435438543 0.0635128734
v 0.326678594 -0.463611079 0.0135589625
v 0.33685303 -0.43576912 0.097709264
v 0.297147017 -0.479442061 -0.0704811465
v 0.269929482 -0.481241871 -0.0936582919
v 0.256596196 -0.493987465 -0.107873118
v 0.348900738 -0.468202431 0.0921261798
v 0.37009442 -0.433197963 0.385899253
v 0.381958473 -0.467357623 0.398424462
v 0.209213442 -0.508385945 -0.124952948
v 0.133658151 -0.565943135 -0.148166824
v 0.252923114 -0.53332617 -0.121169674
v 0.281756805 -0.518303266 -0.106330424
v 0.148166824 -0.716466023 -0.140673738
v 0.29501663 -0.506769789 -0.0929236756
v 0.317716275 -0.596539906 -0.0946867548
v 0.307358184 -0.652995171 -0.104420421
v 0.131637957 -0.758449346 -0.128038337
v 0.320581279 -0.494171119 -0.0548338185
v 0.17134397 -0.744858944 -0.13042584
v 0.318193775 -0.521976347 -0.0779742331
v 0.335273605 -0.525392313 -0.0465326539
v 0.313235115 -0.688624063 -0.0980659899
v 0.334392066 -0.662802299 -0.077790579
v 0.344713425 -0.480764371 0.0504367026
v 0.345962273 -0.851598698 -0.0173316545
v 0.34221573 -0.799844977 -0.0398109144
v 0.32153628 -0.876612384 -0.0211883902
v 0.321646472 -0.840395799 -0.0583967077
v 0.291821049 -0.861956788 -0.0502424664
v -0.183145144 -0.876612384 0.034311874
v -0.128306034 -0.862507751 -0.00436567612
v -0.220243269 -0.845501382 0.0310061005
v -0.211354411 -0.860083517 0.0669655702
v -0.158498766 -0.509304216 0.403897353
v -0.143549323 -0.504235363 0.402538313
v -0.162135117 -0.485906685 0.430233349
v -0.319489936 -0.537219636 0.441399517
v -0.10472485 -0.457477033 0.934106695
v -0.162135117 -0.485906685 0.430233349
v -0.125991993 -0.479772639 0.42667046
v -0.0644311439 -0.451820487 0.971608859
v -0.101161961 -0.460305306 0.993573887
v 0.348790546 -0.477311674 0.877394314
v 0.294171821 -0.479111484 0.387148101
v 0.31569608 -0.506659597 0.380683477
v 0.00947125966 -0.462398962 0.990304845
v 0.321830126 -0.483041682 0.920038792
v 0.356834595 -0.504786325 0.919267445
v 0.369286342 -0.505263826 0.874015078
v 0.2959349 -0.853692354 0.905273004
v 0.23837771 -0.854353509 0.373667891
v 0.210094981 -0.876612384 0.37363116
v -0.0715201915 -0.461958193 1.0119393
v -0.172419745 -0.512499797 1.09142478
v 0.225558655 -0.509414408 1.02104854
v 0.150444135 -0.50948787 1.04411549
v -0.142263745 -0.512720182 1.11541001
v -0.171170898 -0.534795402 1.12176444
v -0.171942245 -0.535419826 1.12139713
v -0.134513542 -0.518633843 1.11974424
v 0.256008502 -0.531195782 1.02431758
v 0.222363074 -0.537440021 1.04407876
v -0.0296103295 -0.545447339 1.11250827
v 0.254465808 -0.58728374 1.03809164
v 0.285723733 -0.578027574 1.02002008
v -0.13396258 -0.546585995 1.13215926
v -0.301712221 -0.671874811 1.07412457
v 0.202050932 -0.628422255 1.05285743
v 0.131637957 -0.640396501 1.06332571
v -0.262777555 -0.682967518 1.08514381
v -0.284669122 -0.71771487 1.07045149
v -0.313906852 -0.702214466 1.05531839
v 0.192684574 -0.666071342 1.04455626
v -0.262006208 -0.858393899 0.991406769
v 0.278671416 -0.611893387 1.02571335
v 0.22533827 -0.652995171 1.03985472
v 0.265925823 -0.857622552 0.938110354
v 0.288919314 -0.818026731 0.948174598
v 0.333877834 -0.639514961 0.986190993
v 0.269782559 -0.876612384 0.906705505
v -0.261822554 -0.876612384 0.961140576
v -0.320591861 -0.876612384 0.428984501
v 0.342032076 -0.604767609 0.979726369
v 0.352022858 -0.63180149 0.956255377
v 0.323225897 -0.74511606 0.931388614
v 0.360985177 -0.56616352 0.915778017
v -0.319489936 -0.537219636 0.441399517
v -0.162135117 -0.485906685 0.430233349
v -0.10472485 -0.457477033 0.934106695
v -0.3686725 -0.536338097 0.596697411
v -0.101161961 -0.460305306 0.993573887
v -0.367460383 -0.537146175 0.654879025
v -0.172419745 -0.512499797 1.09142478
v -0.330398989 -0.563629094 0.983472913
v -0.171170898 -0.534795402 1.12176444
v -0.326542253 -0.583720851 1.01697142
v -0.171942245 -0.535419826 1.12139713
v -0.301712221 -0.671874811 1.07412457
v -0.313906852 -0.702214466 1.05531839
v -0.350454015 -0.596172597 0.989827344
v -0.362501723 -0.584528929 0.939432663
v -0.294072211 -0.84987235 0.977926559
v -0.284669122 -0.71771487 1.07045149
v -0.262006208 -0.858393899 0.991406769
v -0.261822554 -0.876612384 0.961140576
v -0.394090225 -0.567559291 0.598203375
v -0.394530995 -0.560543705 0.641031507
v -0.440738363 -0.688954641 0.768744557
v -0.433282007 -0.71231544 0.798055749
v -0.441840287 -0.699680039 0.729148737
v -0.297598369 -0.862397558 0.936934968
v -0.348029781 -0.861773134 0.475008215
v -0.320591861 -0.876612384 0.428984501
v -0.437212204 -0.729285078 0.762610511
v -0.355008636 -0.843995419 0.431518928
v -0.418112179 -0.750588952 0.638350157
v -0.378185782 -0.742948942 0.458846655
v -0.370545772 -0.78291207 0.435449125
v -0.346156509 -0.754812995 0.413263712
v -0.326542253 -0.851892544 0.405770625
v -0.367717499 -0.715584483 0.436330665
v 0.0302976328 -0.858761207 0.369443847
v 0.210094981 -0.876612384 0.37363116
v -0.340830541 -0.792131505 0.410839478
v 0.211674407 -0.847741962 0.351445747
v 0.23837771 -0.854353509 0.373667891
v 0.28649508 -0.508092099 0.35835114
v 0.31569608 -0.506659597 0.380683477
v 0.294171821 -0.479111484 0.387148101
v -0.381785402 -0.562233323 0.558754477
v -0.342373235 -0.565024865 0.439746631
v -0.158498766 -0.509304216 0.403897353
v -0.313098774 -0.56120486 0.417634679
v -0.0526772825 -0.498615548 0.393502532
v -0.143549323 -0.504235363 0.402538313
v -0.125991993 -0.479772639 0.42667046
v -0.162135117 -0.485906685 0.430233349
v 0.773692635 -0.675547893 1.11610789
v 0.391398293 -0.853325046 1.13741177
v 0.316357235 -0.849174464 1.14644755
v 0.840616184 -0.604326839 1.11794443
v 0.816594229 -0.853398508 0.941012088
v 0.759183963 -0.876612384 0.659654031
v 0.790772465 -0.876612384 0.949056137
v 0.777622833 -0.853141392 0.578699311
v 0.855859473 -0.328441673 0.623731292
v 0.887117398 -0.464051849 1.10975346
v 0.75187453 -0.85394947 0.558276977
v 0.744601828 -0.876612384 0.586192397
v 0.797898244 -0.683445018 0.55706486
v 0.782985532 -0.559074472 0.51794654
v 0.877714309 -0.430883922 1.11757713
v 0.865005446 -0.46632916 1.13693427
v 0.838706181 -0.427945456 1.14608024
v 0.803407866 -0.346109196 1.13968908
v 0.778945142 -0.35617344 1.16455584
v 0.848696963 -0.348717084 0.585090473
v 0.83459233 -0.304236065 0.612271277
v 0.853288316 -0.32649494 0.743069716
v 0.812370186 -0.547834842 0.535283485
v 0.838375604 -0.38313386 0.544319266
v 0.834298483 -0.321352626 0.566835257
v 0.781626492 -0.520800961 0.512620571
v 0.195219001 -0.384823477 0.553244855
v 0.66103922 -0.334355335 1.15981756
v 0.774463983 -0.325907247 1.13318772
v 0.813986341 -0.309929342 0.820865586
v 0.25905716 -0.363335949 1.18538221
v 0.422692949 -0.385264247 1.19820127
v 0.254171962 -0.405833504 1.20315993
v 0.237790017 -0.392683872 1.17399566
v 0.734133546 -0.310112996 1.10295826
v 0.706365048 -0.313382038 1.12617214
v 0.347578429 -0.314226847 1.10270114
v 0.251821189 -0.359295559 1.15162659
v 0.186991298 -0.347982468 0.575613922
v 0.172078586 -0.379901548 0.580499121
v 0.716980254 -0.304236065 1.03386759
v 0.691672721 -0.304236065 1.09113094
v 0.356099978 -0.304236065 1.06725591
v 0.322674935 -0.313345308 1.07743034
v 0.258542929 -0.365503068 0.543768304
v 0.76627301 -0.304236065 0.539323875
v 0.61743974 -0.304236065 0.522280776
v 0.579827384 -0.304236065 0.517799616
v 0.28153642 -0.304236065 0.560260441
v 0.246054451 -0.313749347 0.565549678
v 0.269158135 -0.328000904 0.536642525
v 0.265558515 -0.32965379 0.537266949
v 0.311067997 -0.321903588 0.531132903
v 0.592168938 -0.323446282 0.501123826
v 0.798889976 -0.321168972 0.528451553
v 0.683995981 -0.324291091 0.501270749
v 0.744785482 -0.388716944 0.495504011
v 0.76623628 -0.32425436 0.510196337
v 0.806089216 -0.336963223 0.522941931
v 0.756612806 -0.355218439 0.498001706
v 0.774831291 -0.340526112 0.505898832
v 0.803334405 -0.465594543 0.511077877
v 0.779826682 -0.382399243 0.499470939
v 0.798008436 -0.368588456 0.507514988
v 0.82695232 -0.35121478 0.532198097
v 0.819091925 -0.382546167 0.51618346
v 0.422692949 -0.385264247 1.19820127
v 0.778945142 -0.35617344 1.16455584
v 0.838706181 -0.427945456 1.14608024
v 0.865005446 -0.46632916 1.13693427
v 0.254171962 -0.405833504 1.20315993
v 0.840616184 -0.604326839 1.11794443
v 0.855896203 -0.612738196 1.09682421
v 0.887117398 -0.464051849 1.10975346
v 0.816594229 -0.853398508 0.941012088
v 0.316357235 -0.849174464 1.14644755
v 0.773692635 -0.675547893 1.11610789
v 0.801093825 -0.858504091 0.9797631
v 0.790772465 -0.876612384 0.949056137
v 0.295494131 -0.853104661 1.12319694
v 0.237790017 -0.392683872 1.17399566
v 0.838889835 -0.656190752 1.09946883
v 0.635254187 -0.859091785 1.09814652
v 0.595144135 -0.853876009 1.11533655
v 0.391398293 -0.853325046 1.13741177
v 0.321793395 -0.876612384 1.11875251
v 0.243005793 -0.853104661 0.636844194
v 0.172078586 -0.379901548 0.580499121
v 0.586145084 -0.876612384 1.09017594
v 0.633013607 -0.876612384 1.06097494
v 0.759183963 -0.876612384 0.659654031
v 0.744601828 -0.876612384 0.586192397
v 0.270076405 -0.876612384 0.636954386
v 0.75187453 -0.85394947 0.558276977
v 0.264199475 -0.853104661 0.610471467
v 0.195219001 -0.384823477 0.553244855
v 0.782985532 -0.559074472 0.51794654
v -0.204595941 -0.796208626 0.580939891
v 0.106550809 -0.796208626 0.150785294
v 0.0884425159 -0.770974555 0.136019506
v -0.220941155 -0.770974555 0.563235637
v -0.20184113 -0.776667832 0.61913994
v 0.199994007 -0.776814755 0.90692589
v 0.231031547 -0.796208626 0.891719332
v -0.204595941 -0.796208626 0.580939891
v -0.220941155 -0.770974555 0.563235637
v 0.106550809 -0.796208626 0.150785294
v 0.542104835 -0.796208626 0.460573004
v -0.225348853 -0.752131646 0.606651462
v 0.560690628 -0.773178404 0.442574903
v 0.123887754 -0.771121478 0.130142575
v 0.0884425159 -0.770974555 0.136019506
v 0.185044564 -0.0879282845 0.074642311
v 0.635694956 -0.344713425 0.430894504
v 0.631323989 -0.301628177 0.421675069
v 0.149746249 -0.0810963525 0.0790132782
v 0.251674266 -0.0839980871 0.121510833
v 0.590258936 -0.080398467 0.363052685
v 0.172078586 -0.0564499744 0.0912079094
v -0.101382346 -0.0838511638 0.426486806
v -0.0777644304 -0.0576620914 0.435375663
v -0.0978561872 -0.067763066 0.463070699
v -0.127497956 -0.109011773 0.461528005
v -0.229205588 -0.694243878 0.578185079
v -0.234311172 -0.608293767 0.626596296
v -0.207350752 -0.190994957 0.568635067
v -0.196955931 -0.166275117 0.591775482
v -0.210362679 -0.198120735 0.604521075
v -0.236515021 -0.59540125 0.593207983
v -0.228985203 -0.566934867 0.636550347
v -0.23151963 -0.502729399 0.623437446
v 0.575786994 -0.0534747783 0.37903059
v 0.172078586 -0.0564499744 0.0912079094
v 0.251674266 -0.0839980871 0.121510833
v 0.590258936 -0.080398467 0.363052685
v -0.0777644304 -0.0576620914 0.435375663
v 0.608550883 -0.0880017461 0.398057153
v 0.649469013 -0.303464718 0.455651074
v 0.631323989 -0.301628177 0.421675069
v 0.648954781 -0.341701498 0.464062431
v 0.635694956 -0.344713425 0.430894504
v 0.642122849 -0.255163694 0.520701351
v 0.587577586 -0.68803637 0.474200137
v 0.560690628 -0.773178404 0.442574903
v 0.641278041 -0.29141701 0.53146348
v 0.564437172 -0.774096674 0.478607835
v 0.542104835 -0.796208626 0.460573004
v 0.613950313 -0.375530581 0.584833357
v 0.253951577 -0.773839559 0.906044351
v 0.231031547 -0.796208626 0.891719332
v 0.22082038 -0.754335495 0.925878992
v 0.199994007 -0.776814755 0.90692589
v 0.597752023 -0.383317514 0.615760705
v 0.60752242 -0.348129391 0.608634927
v 0.634556301 -0.262987358 0.554199856
v 0.474667055 -0.161353187 0.867917763
v 0.448220867 -0.172996856 0.908468585
v 0.436871045 -0.131674687 0.904758772
v 0.620268013 -0.141077776 0.554236587
v 0.613032042 -0.149305479 0.589057401
v 0.268239864 -0.666989612 0.937155353
v 0.580672193 -0.118708709 0.625273987
v 0.394079643 -0.0208210821 0.780424957
v 0.60304126 -0.11606409 0.570030838
v 0.394189836 -0.276871606 0.938734778
v 0.59044259 -0.0626207517 0.421454684
v 0.428092379 -0.0233187776 0.715521604
v 0.370204612 -0.00612875533 0.751444343
v 0.317312236 -0.0160093451 0.757651851
v -0.0978561872 -0.067763066 0.463070699
v -0.196955931 -0.166275117 0.591775482
v 0.297440864 -0.479331869 0.990819076
v -0.113172938 -0.163299921 0.730067007
v 0.360544407 -0.01982935 0.791480933
v -0.141529128 -0.192096881 0.723712576
v -0.210362679 -0.198120735 0.604521075
v -0.23151963 -0.502729399 0.623437446
v -0.126542955 -0.211490752 0.75045261
v -0.228985203 -0.566934867 0.636550347
v 0.289874316 -0.424602952 0.999450818
v 0.267211402 -0.477972829 1.00260967
v 0.42045237 -0.151325674 0.92940515
v 0.223207883 -0.239332712 0.977118481
v 0.192464189 -0.262620049 0.977412328
v 0.425557953 -0.120435057 0.90868897
v 0.410792165 -0.145081436 0.929809189
v 0.389561753 -0.119884095 0.915263786
v 0.200691892 -0.215971912 0.960956922
v -0.0761115436 -0.165356846 0.76525513
v 0.16594454 -0.242271177 0.961654807
v -0.102521001 -0.192978421 0.769846482
v -0.0322182175 -0.456779147 0.901159152
v -0.0553219013 -0.477936098 0.883381437
v -0.0160933889 -0.489175728 0.910268395
v -0.03592803 -0.514262876 0.894143566
v -0.20184113 -0.776667832 0.61913994
v -0.225348853 -0.752131646 0.606651462
v -0.084853478 -0.531012128 0.83901061
v -0.234311172 -0.608293767 0.626596296
v 1.07308552 -0.48116841 0.758753775
v 1.09262632 -0.609212037 0.73921298
v 0.541370219 -0.467137238 0.823253089
v 0.961350379 -0.321573011 0.797541518
v 1.09446286 -0.646714201 0.733887012
v 0.491820347 -0.447192404 0.812674614
v 0.942470739 -0.293143358 0.785787656
v 0.497146315 -0.492701886 0.824428476
v 1.05332434 -0.799698054 0.717431606
v 0.462178578 -0.208478825 0.528818861
v 0.867833719 -0.208258441 0.663510767
v 0.490681691 -0.863756598 0.770140328
v 0.900377223 -0.868862182 0.7248145
v 0.470038972 -0.475107825 0.805108066
v 0.464713004 -0.804656714 0.755521463
v 0.487669764 -0.890974134 0.742041253
v 0.87822854 -0.890974134 0.7009762
v 0.920285325 -0.890974134 0.172566669
v 0.442601052 -0.263281204 0.550820621
v 0.462949925 -0.864785061 0.73921298
v 0.46140723 -0.195292462 0.493520546
v 0.863279098 -0.195292462 0.627330912
v 0.436724121 -0.219975571 0.496275358
v 0.442674514 -0.195292462 0.324228212
v 0.88226893 -0.195292462 0.277029112
v 0.431765461 -0.890974134 0.224430582
v 0.90562973 -0.870698723 0.145092018
v 0.407927161 -0.866584871 0.229903474
v 0.41821179 -0.219351147 0.324889366
v 0.4501676 -0.869486606 0.193870543
v 0.705042739 -0.579056037 0.067222686
v 0.490644961 -0.208295171 0.286211816
v 0.875767575 -0.207634017 0.245403879
v 0.802709981 -0.328698789 0.121547564
v 0.423941797 -0.844656574 0.200849398
v 0.684106173 -0.550956962 0.072218077
v 0.704271391 -0.517752303 0.0712630758
v 0.433602002 -0.244070987 0.289150281
v 0.474630324 -0.237092132 0.269940064
v 0.786842268 -0.357238634 0.105716582
v 1.09446286 -0.646714201 0.733887012
v 1.08568419 -0.801497864 0.703290242
v 1.05332434 -0.799698054 0.717431606
v 0.900377223 -0.868862182 0.7248145
v 1.12307617 -0.650019975 0.717945838
v 1.1239577 -0.613252427 0.719782378
v 1.09262632 -0.609212037 0.73921298
v 1.10426999 -0.48208668 0.739323173
v 1.12954079 -0.467908585 0.685916565
v 1.07308552 -0.48116841 0.758753775
v 1.13967849 -0.650387283 0.69333619
v 1.12910002 -0.804840368 0.653115946
v 1.13831945 -0.613399351 0.697633696
v 1.08935728 -0.44833106 0.748469146
v 1.08858593 -0.394006181 0.722941229
v 0.988567914 -0.299167212 0.780902458
v 0.961350379 -0.321573011 0.797541518
v 0.965243845 -0.272684293 0.765916284
v 0.942470739 -0.293143358 0.785787656
v 0.888586631 -0.211490752 0.66725731
v 0.867833719 -0.208258441 0.663510767
v 1.04458241 -0.317606082 0.710526213
v 1.07595053 -0.357275365 0.717394875
v 1.09354459 -0.364952105 0.686100219
v 0.898577413 -0.206017861 0.606027039
v 0.863279098 -0.195292462 0.627330912
v 0.910661851 -0.216412682 0.641766123
v 1.07268148 -0.336485722 0.67985598
v 1.12759406 -0.373620578 0.427478538
v 1.13916426 -0.398413879 0.400481387
v 1.10886134 -0.346182658 0.408525436
v 0.916575513 -0.206385169 0.271666413
v 0.88226893 -0.195292462 0.277029112
v 0.875767575 -0.207634017 0.245403879
v 1.10368229 -0.34045265 0.363603647
v 1.15176293 -0.527449239 0.648451132
v 1.15977025 -0.612628003 0.656642104
v 1.20002723 -0.631066873 0.522831738
v 1.15980698 -0.649432282 0.650030557
v 1.19738261 -0.664271532 0.543400996
v 1.15536255 -0.773104942 0.608194157
v 0.910514928 -0.219902109 0.238939255
v 0.96186461 -0.239038865 0.261822554
v 0.868494874 -0.286568542 0.170068973
v 0.802709981 -0.328698789 0.121547564
v 0.938356887 -0.238414441 0.23379694
v 0.990294262 -0.27521872 0.249003499
v 0.841240608 -0.34809266 0.118866214
v 1.11503212 -0.363556334 0.339287846
v 0.813435379 -0.380966741 0.0988479193
v 0.786842268 -0.357238634 0.105716582
v 0.958926145 -0.266844093 0.226340585
v 1.1527914 -0.450902217 0.388103102
v 0.732443928 -0.540378487 0.0649086445
v 0.704271391 -0.517752303 0.0712630758
v 0.705042739 -0.579056037 0.067222686
v 1.20399415 -0.635437841 0.484852074
v 1.20267185 -0.668385383 0.503952098
v 1.15117524 -0.806346332 0.58630259
v 1.11903578 -0.833527136 0.634383229
v 1.06258051 -0.830294824 0.698698889
v 0.957126335 -0.876979692 0.70409832
v 0.915693973 -0.890974134 0.689112146
v 0.87822854 -0.890974134 0.7009762
v 0.920285325 -0.890974134 0.172566669
v 1.1960603 -0.646310162 0.410435439
v 1.19455433 -0.681351362 0.415687946
v 1.1352708 -0.865593139 0.446798947
v 1.12120289 -0.8768695 0.500021901
v 1.07539957 -0.87731027 0.630563224
v 1.05295704 -0.890974134 0.613703779
v 1.10963269 -0.890974134 0.440003746
v 0.954922486 -0.890974134 0.188397651
v 0.964325575 -0.870698723 0.158792612
v 0.90562973 -0.870698723 0.145092018
v 1.09218555 -0.890974134 0.299655295
v 1.09545459 -0.868862182 0.265826213
v 1.11323231 -0.866291025 0.297598369
v 1.13233233 -0.870368145 0.411280248
v 1.18401259 -0.68623656 0.381197709
v 1.09299363 -0.707981204 0.207864984
v 1.11359961 -0.706879279 0.238645408
v 1.18555528 -0.650864784 0.376275779
v 1.11293846 -0.671434041 0.233025593
v 1.13240579 -0.401389076 0.347331895
v 1.11271808 -0.541810988 0.237690407
v 1.09446286 -0.512830374 0.222300195
v 1.09089997 -0.546439071 0.209297486
v 1.09328747 -0.671654426 0.203126708
v 1.06919206 -0.496558622 0.202208438
v 1.07191014 -0.532554823 0.191079
v 1.04237856 -0.698100614 0.15016087
v 1.03268163 -0.470332819 0.183843029
v 1.05266319 -0.663647108 0.154531838
v 1.04370087 -0.5148873 0.17532148
v 0.869119298 -0.403335809 0.116074672
v 1.02783316 -0.635217456 0.139729318
v 1.01336122 -0.689652526 0.131905654
v 0.992204265 -0.642086119 0.125477762
v 0.754151841 -0.588055087 0.0711896142
v 0.937254963 -0.853288316 0.142300476
v 0.37009442 -0.433197963 0.385899253
v 0.381958473 -0.467357623 0.398424462
v 0.360250561 -0.48164591 0.425237958
v 0.350076124 -0.434483542 0.415981792
v 0.306219529 -0.46860647 0.431665851
v 0.0454307294 -0.433748925 0.449480297
v 0.0282774379 -0.468533009 0.461674928
v 0.00884683577 -0.434593734 0.447092794
v -0.0442659254 -0.464125311 0.455651074
v -0.187552842 -0.43396931 0.389462142
v -0.20635902 -0.463280502 0.408268321
v -0.217451727 -0.43532835 0.367937884
v -0.233870402 -0.463611079 0.386266561
v -0.314237429 -0.435879313 0.189058805
v -0.310784733 -0.463868195 0.244522339
v -0.310637809 -0.435622197 0.15420126
v -0.320665322 -0.466145506 0.134146234
v -0.24727715 -0.498064586 0.411500632
v -0.218369997 -0.495897467 0.433061622
v -0.17712129 -0.524033273 0.468800707
v -0.164265504 -0.555217737 0.47974649
v -0.198388433 -0.552720041 0.470159747
v -0.23963714 -0.524584235 0.43475124
v -0.188507843 -0.732003158 0.475742831
v -0.218186343 -0.699790232 0.466449934
v -0.279269692 -0.523261926 0.387809256
v -0.270233911 -0.548716382 0.411721017
v -0.211648258 -0.777769756 0.453116648
v -0.2265977 -0.741149132 0.447974334
v -0.282979504 -0.574942185 0.389021373
v -0.293007017 -0.549157152 0.366064612
v -0.286909702 -0.708091396 0.271519489
v -0.332933415 -0.47216936 0.174697056
v -0.286983163 -0.640176116 -0.0200130041
v -0.298847217 -0.658614986 0.00731472365
v -0.293741634 -0.70015754 0.231042129
v -0.286615855 -0.729064693 0.194862275
v -0.287974895 -0.691929837 -0.0041085604
v -0.220243269 -0.845501382 0.0310061005
v -0.280665463 -0.735566047 0.241216565
v -0.211354411 -0.860083517 0.0669655702
v -0.168636471 -0.857806206 0.441766826
v -0.183732837 -0.770680708 0.47346552
v -0.138076432 -0.876612384 0.437689705
v -0.183145144 -0.876612384 0.034311874
v 0.32153628 -0.876612384 -0.0211883902
v -0.141712783 -0.85259043 0.46446647
v 0.364033835 -0.876612384 0.382777134
v 0.366604992 -0.851341582 0.409260053
v 0.38897406 -0.851047736 0.381124247
v 0.345962273 -0.851598698 -0.0173316545
v 0.348900738 -0.468202431 0.0921261798
v -0.059399022 -0.360581138 -0.0034474057
v 0.0628778674 -0.360103637 -0.0228780078
v 0.0770926935 -0.34045265 0.00463337401
v 0.0988740679 -0.358009981 -0.0215924292
v -0.0348995671 -0.341848421 0.0231824365
v -0.0898488691 -0.359075175 0.0152853109
v 0.153529523 -0.334796105 0.0213826265
v 0.170756277 -0.354630746 -0.00473298429
v 0.0941357925 -0.286091041 0.15240145
v 0.18214283 -0.32921302 0.045955543
v 0.199626699 -0.349598624 0.015873004
v -0.0689123035 -0.340966882 0.0398582274
v -0.195229583 -0.341481113 0.162649348
v 0.209213442 -0.320911856 0.0902896389
v 0.236614631 -0.339901688 0.079050009
v 0.0565968977 -0.286091041 0.164926659
v 0.13134411 -0.280985458 0.184100145
v -0.157837611 -0.324842053 0.16316358
v -0.1969192 -0.337440723 0.198278241
v 0.141298161 -0.2954574 0.134880851
v 0.221554996 -0.314594155 0.125624685
v 0.249176571 -0.33413495 0.111997552
v 0.0386355283 -0.283593346 0.200078051
v -0.157286649 -0.318891661 0.199269973
v -0.128195842 -0.318891661 0.304467032
v -0.101970039 -0.302730102 0.288378934
v -0.0983704187 -0.31661435 0.326285137
v 0.244438295 -0.291086433 0.266817945
v 0.276908337 -0.308092801 0.294953751
v 0.256375811 -0.303648372 0.323383403
v 0.0989842604 -0.277385838 0.204595941
v -0.0567544031 -0.296853171 0.304099724
v 0.0249349336 -0.308202993 0.354310751
v 0.162638766 -0.283593346 0.207130367
v 0.222950767 -0.287119504 0.297414715
v 0.126165065 -0.278414301 0.224504044
v 0.0390028364 -0.290792586 0.325109751
v 0.155402795 -0.280911996 0.245624263
v 0.0959356026 -0.288331621 0.318718589
v 0.0626207517 -0.305668567 0.35475152
vt 0.963117879 0.141629254
vt 0.984455246 0.132900332
vt 0.983485366 0.12805093
vt 0.961178118 0.137749733
vt 0.990274528 0.786599662
vt 0.981545605 0.774961098
vt 0.977666084 0.776900859
vt 0.986395006 0.789509303
vt 0.956328717 0.782720141
vt 0.954388956 0.800177986
vt 0.952449196 0.781750261
vt 0.950509435 0.800177986
vt 0.940810632 0.772051457
vt 0.929172068 0.787569542
vt 0.937900991 0.768171936
vt 0.926262427 0.783690021
vt 0.931111829 0.753623731
vt 0.913653983 0.762352654
vt 0.930141948 0.74974421
vt 0.912684103 0.758473133
vt 0.924322666 0.726467083
vt 0.902015419 0.722587562
vt 0.925292547 0.722587562
vt 0.9029853 0.71773816
vt 0.939840751 0.705129716
vt 0.928202188 0.692521272
vt 0.942750392 0.702220075
vt 0.931111829 0.690581511
vt 0.949539555 0.696400793
vt 0.943720273 0.682822469
vt 0.954388956 0.695430913
vt 0.948569674 0.681852588
vt 0.963117879 0.695430913
vt 0.963117879 0.681852588
vt 0.9669974 0.695430913
vt 0.967967281 0.682822469
vt 0.981545605 0.700280314
vt 0.990274528 0.688641751
vt 0.927232307 0.123201528
vt 0.926262427 0.15811722
vt 0.930141948 0.157147339
vt 0.932081709 0.125141289
vt 0.955358836 0.141629254
vt 0.955358836 0.135809972
vt 0.959238358 0.144538895
vt 0.93499135 0.122231648
vt 0.961178118 0.137749733
vt 0.963117879 0.141629254
vt 0.948569674 0.119322007
vt 0.931111829 0.118352127
vt 0.927232307 0.118352127
vt 0.926262427 0.0921653584
vt 0.952449196 0.117382247
vt 0.983485366 0.12805093
vt 0.947599794 0.115442486
vt 0.930141948 0.0921653584
vt 0.926262427 0.0873159569
vt 0.950509435 0.110593084
vt 0.939840751 0.0911954781
vt 0.932081709 0.0873159569
vt 0.938870871 0.0873159569
vt 0.943720273 0.0911954781
vt 0.960208238 0.0902255978
vt 0.964087759 0.0921653584
vt 0.930141948 0.0795569144
vt 0.927232307 0.0688882309
vt 0.932081709 0.0688882309
vt 0.927232307 0.0630689491
vt 0.932081709 0.0640388294
vt 0.929172068 0.0456111034
vt 0.933051589 0.0524002656
vt 0.929172068 0.0407617019
vt 0.93499135 0.0640388294
vt 0.93499135 0.0679183506
vt 0.93596123 0.0708279916
vt 0.933051589 0.0417315822
vt 0.928202188 0.00584601062
vt 0.933051589 0.00390625
vt 0.936931111 0.0776171537
vt 0.942750392 0.0873159569
vt 0.940810632 0.0727677522
vt 0.938870871 0.0688882309
vt 0.961178118 0.0863460766
vt 0.937900991 0.06597859
vt 0.948569674 0.0650087097
vt 0.955358836 0.0669484703
vt 0.96602752 0.0882858372
vt 0.936931111 0.0601593081
vt 0.96505764 0.0834364356
vt 0.939840751 0.0630689491
vt 0.940810632 0.0591894278
vt 0.959238358 0.0669484703
vt 0.957298597 0.0630689491
vt 0.93499135 0.0465809837
vt 0.981545605 0.0582195475
vt 0.974756443 0.0601593081
vt 0.985425126 0.0630689491
vt 0.978635964 0.0640388294
vt 0.981545605 0.0679183506
vt 0.988334767 0.12708105
vt 0.984455246 0.120291887
vt 0.984455246 0.132900332
vt 0.989304647 0.132900332
vt 0.247346208 0.896196137
vt 0.246376328 0.895226257
vt 0.242496807 0.900075659
vt 0.257045012 0.913653983
vt 0.931111829 0.450051194
vt 0.915593744 0.387978854
vt 0.910744342 0.388948734
vt 0.927232307 0.454900595
vt 0.931111829 0.460719877
vt 0.878738292 0.448111433
vt 0.851581643 0.401557178
vt 0.845762361 0.404466819
vt 0.918503385 0.458780117
vt 0.882617813 0.451990954
vt 0.878738292 0.452960835
vt 0.874858771 0.449081313
vt 0.858370805 0.480117483
vt 0.804057508 0.451021074
vt 0.802117747 0.456840356
vt 0.927232307 0.462659638
vt 0.933051589 0.483027124
vt 0.893286496 0.462659638
vt 0.901045539 0.465569279
vt 0.928202188 0.483997005
vt 0.928202188 0.489816287
vt 0.928202188 0.490786167
vt 0.926262427 0.483997005
vt 0.889406975 0.463629518
vt 0.893286496 0.466539159
vt 0.914623863 0.481087364
vt 0.887467215 0.46847892
vt 0.884557574 0.465569279
vt 0.923352786 0.488846406
vt 0.921413026 0.519882576
vt 0.888437095 0.476237962
vt 0.893286496 0.481087364
vt 0.917533504 0.516972935
vt 0.914623863 0.522792217
vt 0.919473265 0.524731978
vt 0.886497334 0.479147603
vt 0.889406975 0.535400661
vt 0.883587693 0.4694488
vt 0.885527454 0.476237962
vt 0.861280446 0.483027124
vt 0.864190087 0.479147603
vt 0.876798531 0.466539159
vt 0.857400925 0.483027124
vt 0.884557574 0.537340422
vt 0.802117747 0.541219943
vt 0.877768411 0.463629518
vt 0.874858771 0.464599398
vt 0.867099728 0.472358441
vt 0.874858771 0.456840356
vt 0.257045012 0.913653983
vt 0.242496807 0.900075659
vt 0.22018956 0.969907041
vt 0.256075131 0.932081709
vt 0.219219679 0.977666084
vt 0.255105251 0.938870871
vt 0.233767884 0.991244408
vt 0.25316549 0.977666084
vt 0.235707645 0.99609381
vt 0.255105251 0.981545605
vt 0.235707645 0.99609381
vt 0.263834174 0.992214288
vt 0.270623336 0.991244408
vt 0.258014892 0.978635964
vt 0.257045012 0.971846802
vt 0.292930583 0.982515485
vt 0.273532977 0.994154049
vt 0.295840224 0.985425126
vt 0.299719745 0.981545605
vt 0.259954652 0.933051589
vt 0.258984772 0.936931111
vt 0.272563097 0.953419076
vt 0.275472737 0.957298597
vt 0.274502857 0.948569674
vt 0.295840224 0.977666084
vt 0.295840224 0.917533504
vt 0.299719745 0.909774462
vt 0.277412498 0.952449196
vt 0.293900463 0.912684103
vt 0.280322139 0.937900991
vt 0.281292019 0.917533504
vt 0.286141421 0.914623863
vt 0.28323178 0.911714222
vt 0.294870344 0.908804581
vt 0.278382378 0.914623863
vt 0.285171541 0.864190087
vt 0.28323178 0.839943079
vt 0.288081182 0.910744342
vt 0.279352259 0.84188284
vt 0.279352259 0.837033438
vt 0.233767884 0.844792481
vt 0.231828123 0.84091296
vt 0.227948602 0.844792481
vt 0.259954652 0.928202188
vt 0.260924533 0.914623863
vt 0.247346208 0.896196137
vt 0.258984772 0.910744342
vt 0.243466687 0.884557574
vt 0.246376328 0.895226257
vt 0.241526927 0.895226257
vt 0.242496807 0.900075659
vt 0.905894941 0.342394479
vt 0.87291901 0.310388429
vt 0.864190087 0.308448668
vt 0.909774462 0.354033043
vt 0.144538895 0.771081577
vt 0.168785903 0.787569542
vt 0.149388297 0.770111697
vt 0.167816023 0.791449064
vt 0.138719613 0.834123797
vt 0.0785870341 0.807937029
vt 0.175575065 0.795328585
vt 0.175575065 0.792418944
vt 0.164906382 0.807937029
vt 0.166846142 0.822485234
vt 0.0766472734 0.814726191
vt 0.0727677522 0.81181655
vt 0.0708279916 0.820545473
vt 0.0727677522 0.836063558
vt 0.0679183506 0.84091296
vt 0.142599135 0.835093678
vt 0.137749733 0.837033438
vt 0.124171409 0.833153917
vt 0.16005698 0.821515353
vt 0.148418417 0.834123797
vt 0.142599135 0.837033438
vt 0.163936502 0.826364755
vt 0.175575065 0.90395518
vt 0.0747075128 0.861280446
vt 0.0747075128 0.84188284
vt 0.114472606 0.838003319
vt 0.0892557175 0.922382906
vt 0.0776171537 0.900075659
vt 0.0853761962 0.926262427
vt 0.0921653584 0.927232307
vt 0.0795569144 0.848672002
vt 0.0766472734 0.853521404
vt 0.0960448797 0.90492506
vt 0.0941051191 0.921413026
vt 0.169755783 0.905894941
vt 0.171695544 0.909774462
vt 0.0882858372 0.851581643
vt 0.081496675 0.855461164
vt 0.0999244009 0.9029853
vt 0.0999244009 0.907834701
vt 0.170725664 0.896196137
vt 0.144538895 0.84285272
vt 0.149388297 0.857400925
vt 0.150358177 0.861280446
vt 0.161026861 0.895226257
vt 0.163936502 0.899105778
vt 0.164906382 0.895226257
vt 0.164906382 0.895226257
vt 0.162966621 0.890376856
vt 0.153267818 0.858370805
vt 0.146478656 0.839943079
vt 0.150358177 0.849641882
vt 0.154237698 0.84091296
vt 0.148418417 0.84188284
vt 0.147448536 0.838973199
vt 0.151328057 0.84188284
vt 0.149388297 0.84091296
vt 0.157147339 0.830244276
vt 0.152297938 0.838003319
vt 0.150358177 0.838003319
vt 0.146478656 0.837033438
vt 0.150358177 0.836063558
vt 0.843822601 0.348213761
vt 0.889406975 0.378280051
vt 0.902015419 0.374400529
vt 0.907834701 0.371490888
vt 0.822485234 0.333665556
vt 0.909774462 0.354033043
vt 0.913653983 0.352093282
vt 0.913653983 0.373430649
vt 0.929172068 0.312328189
vt 0.864190087 0.308448668
vt 0.905894941 0.342394479
vt 0.923352786 0.31329807
vt 0.924322666 0.306508907
vt 0.863220207 0.305539027
vt 0.817635832 0.328816155
vt 0.912684103 0.346274
vt 0.900075659 0.31523783
vt 0.895226257 0.316207711
vt 0.87291901 0.310388429
vt 0.867099728 0.305539027
vt 0.87194913 0.256075131
vt 0.817635832 0.229888363
vt 0.897166018 0.312328189
vt 0.902015419 0.310388429
vt 0.930141948 0.261894413
vt 0.931111829 0.250255849
vt 0.875828651 0.257045012
vt 0.930141948 0.244436567
vt 0.87388889 0.25316549
vt 0.822485234 0.225038961
vt 0.916563624 0.200791953
vt 0.53152114 0.15811722
vt 0.539280182 0.09701476
vt 0.536370542 0.09701476
vt 0.526671738 0.157147339
vt 0.53249102 0.161996741
vt 0.591653719 0.16005698
vt 0.59359348 0.155207579
vt 0.53152114 0.15811722
vt 0.526671738 0.157147339
vt 0.539280182 0.09701476
vt 0.59359348 0.0766472734
vt 0.525701858 0.161996741
vt 0.591653719 0.0717978719
vt 0.538310302 0.0941051191
vt 0.536370542 0.09701476
vt 0.472358441 0.0533701459
vt 0.553828387 0.0145749334
vt 0.547039225 0.0126351728
vt 0.4694488 0.0572496672
vt 0.478177723 0.0456111034
vt 0.515033175 0.00390625
vt 0.466539159 0.0543400262
vt 0.451021074 0.108653324
vt 0.447141553 0.106713563
vt 0.447141553 0.112532845
vt 0.452960835 0.115442486
vt 0.517942816 0.157147339
vt 0.506304252 0.16005698
vt 0.458780117 0.135809972
vt 0.453930715 0.136779853
vt 0.457810236 0.139689494
vt 0.505334372 0.155207579
vt 0.50048497 0.1590871
vt 0.493695808 0.155207579
vt 0.278382378 0.792418944
vt 0.224069081 0.832184037
vt 0.235707645 0.829274396
vt 0.2822619 0.794358705
vt 0.187213629 0.78078038
vt 0.28323178 0.788539423
vt 0.307478788 0.762352654
vt 0.310388429 0.767202056
vt 0.310388429 0.757503253
vt 0.31426795 0.759443013
vt 0.297779985 0.761382774
vt 0.330755915 0.712888758
vt 0.339484838 0.703189955
vt 0.299719745 0.756533372
vt 0.334635437 0.701250195
vt 0.337545077 0.697370673
vt 0.301659506 0.742955048
vt 0.269653456 0.666334503
vt 0.270623336 0.661485102
vt 0.261894413 0.665364623
vt 0.260924533 0.661485102
vt 0.299719745 0.739075527
vt 0.297779985 0.742955048
vt 0.294870344 0.756533372
vt 0.261894413 0.740045407
vt 0.258984772 0.736165886
vt 0.256075131 0.739075527
vt 0.28323178 0.767202056
vt 0.2822619 0.763322535
vt 0.262864293 0.677973067
vt 0.275472737 0.763322535
vt 0.248316089 0.755563492
vt 0.279352259 0.768171936
vt 0.257045012 0.723557442
vt 0.279352259 0.786599662
vt 0.25316549 0.761382774
vt 0.245406448 0.759443013
vt 0.239587166 0.756533372
vt 0.184303988 0.774961098
vt 0.177514826 0.742955048
vt 0.254135371 0.699310434
vt 0.194002791 0.736165886
vt 0.244436567 0.754593612
vt 0.19012327 0.732286365
vt 0.175575065 0.736165886
vt 0.175575065 0.68670199
vt 0.193032911 0.728406843
vt 0.177514826 0.677003187
vt 0.25122573 0.705129716
vt 0.25122573 0.698340554
vt 0.255105251 0.736165886
vt 0.238617286 0.721617681
vt 0.235707645 0.71870804
vt 0.254135371 0.739075527
vt 0.254135371 0.736165886
vt 0.25122573 0.739075527
vt 0.234737764 0.723557442
vt 0.198852193 0.734226125
vt 0.231828123 0.720647801
vt 0.196912432 0.730346604
vt 0.215340158 0.693491152
vt 0.212430517 0.691551392
vt 0.218249799 0.690581511
vt 0.216310038 0.68670199
vt 0.186243749 0.646936897
vt 0.182364227 0.650816418
vt 0.207581116 0.683792349
vt 0.177514826 0.670214025
vt 0.370521008 0.764292415
vt 0.346274 0.766232176
vt 0.387008973 0.816665952
vt 0.405436699 0.776900859
vt 0.338514958 0.768171936
vt 0.389918614 0.820545473
vt 0.412225862 0.78078038
vt 0.385069213 0.821515353
vt 0.312328189 0.782720141
vt 0.422894545 0.847702122
vt 0.441322271 0.800177986
vt 0.349183641 0.84285272
vt 0.31523783 0.807937029
vt 0.387978854 0.824424994
vt 0.356942684 0.84188284
vt 0.348213761 0.846732241
vt 0.311358309 0.815696071
vt 0.311358309 0.919473265
vt 0.416105383 0.847702122
vt 0.351123402 0.844792481
vt 0.425804186 0.850611763
vt 0.446171672 0.806967149
vt 0.421924665 0.852551523
vt 0.425804186 0.87291901
vt 0.4694488 0.876798531
vt 0.349183641 0.895226257
vt 0.317177591 0.924322666
vt 0.354033043 0.897166018
vt 0.422894545 0.87291901
vt 0.351123402 0.900075659
vt 0.387978854 0.93499135
vt 0.428713827 0.877768411
vt 0.467509039 0.883587693
vt 0.442292151 0.912684103
vt 0.355002923 0.900075659
vt 0.393798136 0.931111829
vt 0.400587298 0.931111829
vt 0.421924665 0.877768411
vt 0.424834306 0.880678052
vt 0.436472869 0.917533504
vt 0.782720141 0.893286496
vt 0.776900859 0.916563624
vt 0.78078038 0.919473265
vt 0.781750261 0.945660033
vt 0.77884062 0.893286496
vt 0.77884062 0.887467215
vt 0.782720141 0.886497334
vt 0.776900859 0.868069608
vt 0.770111697 0.869039489
vt 0.781750261 0.866129848
vt 0.774961098 0.893286496
vt 0.770111697 0.913653983
vt 0.774961098 0.888437095
vt 0.776900859 0.863220207
vt 0.771081577 0.857400925
vt 0.773991218 0.838973199
vt 0.77884062 0.838003319
vt 0.771081577 0.835093678
vt 0.775930979 0.833153917
vt 0.755563492 0.823455114
vt 0.755563492 0.820545473
vt 0.766232176 0.846732241
vt 0.769141816 0.852551523
vt 0.765262295 0.855461164
vt 0.74780445 0.825394875
vt 0.74974421 0.820545473
vt 0.752653851 0.826364755
vt 0.763322535 0.851581643
vt 0.736165886 0.864190087
vt 0.733256245 0.868069608
vt 0.732286365 0.861280446
vt 0.704159836 0.84285272
vt 0.703189955 0.838973199
vt 0.697370673 0.84188284
vt 0.726467083 0.861280446
vt 0.767202056 0.877768411
vt 0.769141816 0.888437095
vt 0.753623731 0.891346736
vt 0.769141816 0.893286496
vt 0.756533372 0.895226257
vt 0.764292415 0.908804581
vt 0.700280314 0.845762361
vt 0.706099596 0.848672002
vt 0.688641751 0.856431045
vt 0.676033307 0.862250326
vt 0.701250195 0.849641882
vt 0.707069477 0.854491284
vt 0.680882708 0.865159967
vt 0.724527322 0.865159967
vt 0.676033307 0.870009369
vt 0.673123666 0.867099728
vt 0.702220075 0.853521404
vt 0.733256245 0.87388889
vt 0.666334503 0.894256377
vt 0.662454982 0.891346736
vt 0.663424862 0.900075659
vt 0.74877433 0.892316616
vt 0.751683971 0.896196137
vt 0.762352654 0.912684103
vt 0.767202056 0.917533504
vt 0.776900859 0.922382906
vt 0.777870739 0.938870871
vt 0.775930979 0.944690153
vt 0.777870739 0.949539555
vt 0.707069477 0.939840751
vt 0.740045407 0.894256377
vt 0.741015287 0.898135898
vt 0.745864689 0.918503385
vt 0.751683971 0.920443145
vt 0.767202056 0.925292547
vt 0.765262295 0.929172068
vt 0.744894809 0.922382906
vt 0.710948998 0.936931111
vt 0.707069477 0.933051589
vt 0.700280314 0.93596123
vt 0.728406843 0.923352786
vt 0.724527322 0.921413026
vt 0.728406843 0.920443145
vt 0.741985168 0.919473265
vt 0.737135766 0.899105778
vt 0.714828519 0.906864821
vt 0.719677921 0.90492506
vt 0.736165886 0.895226257
vt 0.71773816 0.901045539
vt 0.727436963 0.869039489
vt 0.71676828 0.887467215
vt 0.713858639 0.884557574
vt 0.712888758 0.888437095
vt 0.713858639 0.902015419
vt 0.709979117 0.882617813
vt 0.709009237 0.887467215
vt 0.707069477 0.907834701
vt 0.705129716 0.879708172
vt 0.707069477 0.9029853
vt 0.705129716 0.885527454
vt 0.683792349 0.87291901
vt 0.703189955 0.901045539
vt 0.703189955 0.907834701
vt 0.699310434 0.902015419
vt 0.670214025 0.900075659
vt 0.703189955 0.932081709
vt 0.837033438 0.677003187
vt 0.843822601 0.677973067
vt 0.84285272 0.672153785
vt 0.837033438 0.672153785
vt 0.84091296 0.665364623
vt 0.834123797 0.627539291
vt 0.838973199 0.62559953
vt 0.834123797 0.621720009
vt 0.838973199 0.613960967
vt 0.838003319 0.588744078
vt 0.84285272 0.588744078
vt 0.839943079 0.581954916
vt 0.844792481 0.583894677
vt 0.854491284 0.554798267
vt 0.855461164 0.56255731
vt 0.856431045 0.549948866
vt 0.863220207 0.549948866
vt 0.849641882 0.585834437
vt 0.847702122 0.590683839
vt 0.849641882 0.597473001
vt 0.852551523 0.600382642
vt 0.853521404 0.596503121
vt 0.852551523 0.588744078
vt 0.870009369 0.600382642
vt 0.868069608 0.596503121
vt 0.854491284 0.581954916
vt 0.856431045 0.584864557
vt 0.875828651 0.598442882
vt 0.87291901 0.595533241
vt 0.861280446 0.582924797
vt 0.859340686 0.580015156
vt 0.884557574 0.578075395
vt 0.861280446 0.554798267
vt 0.899105778 0.545099464
vt 0.900075659 0.548978986
vt 0.886497334 0.574195874
vt 0.893286496 0.573225993
vt 0.905894941 0.551888627
vt 0.925292547 0.576135634
vt 0.890376856 0.578075395
vt 0.924322666 0.581954916
vt 0.883587693 0.603292283
vt 0.87291901 0.601352522
vt 0.885527454 0.607171804
vt 0.932081709 0.585834437
vt 0.932081709 0.672153785
vt 0.880678052 0.606201924
vt 0.892316616 0.65566582
vt 0.888437095 0.6566357
vt 0.890376856 0.658575461
vt 0.928202188 0.677003187
vt 0.875828651 0.705129716
vt 0.941780512 0.173635305
vt 0.941780512 0.18915339
vt 0.946629914 0.19012327
vt 0.942750392 0.193032911
vt 0.945660033 0.175575065
vt 0.943720273 0.168785903
vt 0.949539555 0.198852193
vt 0.946629914 0.201761834
vt 0.96505764 0.18915339
vt 0.953419076 0.201761834
vt 0.949539555 0.204671475
vt 0.947599794 0.171695544
vt 0.959238358 0.153267818
vt 0.959238358 0.203701594
vt 0.958268477 0.208550996
vt 0.96602752 0.184303988
vt 0.969907041 0.192063031
vt 0.961178118 0.15811722
vt 0.964087759 0.152297938
vt 0.964087759 0.194972672
vt 0.964087759 0.204671475
vt 0.963117879 0.209520876
vt 0.969907041 0.181394347
vt 0.96505764 0.157147339
vt 0.978635964 0.15811722
vt 0.977666084 0.162966621
vt 0.982515485 0.161996741
vt 0.981545605 0.204671475
vt 0.985425126 0.208550996
vt 0.989304647 0.204671475
vt 0.971846802 0.188183509
vt 0.980575725 0.167816023
vt 0.988334767 0.176544946
vt 0.972816682 0.195942552
vt 0.984455246 0.201761834
vt 0.974756443 0.19109315
vt 0.984455246 0.178484706
vt 0.977666084 0.194002791
vt 0.985425126 0.185273868
vt 0.989304647 0.180424467
g item_09_06item_09_06_mobile_0
f 3/3/3 2/2/2 1/1/1
f 4/4/4 3/3/3 1/1/1
f 7/7/7 6/6/6 5/5/5
f 8/8/8 7/7/7 5/5/5
f 9/9/9 7/7/7 8/8/8
f 10/10/10 9/9/9 8/8/8
f 11/11/11 9/9/9 10/10/10
f 12/12/12 11/11/11 10/10/10
f 13/13/13 11/11/11 12/12/12
f 14/14/14 13/13/13 12/12/12
f 15/15/15 13/13/13 14/14/14
f 16/16/16 15/15/15 14/14/14
f 17/17/17 15/15/15 16/16/16
f 18/18/18 17/17/17 16/16/16
f 19/19/19 17/17/17 18/18/18
f 20/20/20 19/19/19 18/18/18
f 21/21/21 19/19/19 20/20/20
f 22/22/22 21/21/21 20/20/20
f 23/23/23 21/21/21 22/22/22
f 24/24/24 23/23/23 22/22/22
f 25/25/25 23/23/23 24/24/24
f 26/26/26 25/25/25 24/24/24
f 25/25/25 26/26/26 27/27/27
f 26/26/26 28/28/28 27/27/27
f 29/29/29 27/27/27 28/28/28
f 30/30/30 29/29/29 28/28/28
f 29/29/29 30/30/30 31/31/31
f 30/30/30 32/32/32 31/31/31
f 33/33/33 31/31/31 32/32/32
f 34/34/34 33/33/33 32/32/32
f 35/35/35 33/33/33 34/34/34
f 36/36/36 35/35/35 34/34/34
f 37/37/37 35/35/35 36/36/36
f 38/38/38 37/37/37 36/36/36
f 41/41/41 40/40/40 39/39/39
f 42/42/42 41/41/41 39/39/39
f 43/43/43 41/41/41 42/42/42
f 43/43/43 42/42/42 44/44/44
f 45/45/45 43/43/43 44/44/44
f 46/46/46 42/42/42 39/39/39
f 42/42/42 46/46/46 44/44/44
f 45/45/45 44/44/44 47/47/47
f 47/47/47 48/48/48 45/45/45
f 44/44/44 49/49/49 47/47/47
f 46/46/46 49/49/49 44/44/44
f 50/50/50 46/46/46 39/39/39
f 39/39/39 51/51/51 50/50/50
f 51/51/51 52/52/52 50/50/50
f 49/49/49 53/53/53 47/47/47
f 47/47/47 53/53/53 54/54/54
f 55/55/55 49/49/49 46/46/46
f 50/50/50 55/55/55 46/46/46
f 52/52/52 56/56/56 50/50/50
f 56/56/56 52/52/52 57/57/57
f 55/55/55 58/58/58 49/49/49
f 58/58/58 53/53/53 49/49/49
f 59/59/59 55/55/55 50/50/50
f 56/56/56 59/59/59 50/50/50
f 58/58/58 55/55/55 59/59/59
f 60/60/60 56/56/56 57/57/57
f 61/61/61 59/59/59 56/56/56
f 60/60/60 61/61/61 56/56/56
f 62/62/62 58/58/58 59/59/59
f 59/59/59 61/61/61 62/62/62
f 58/58/58 63/63/63 53/53/53
f 58/58/58 62/62/62 63/63/63
f 53/53/53 64/64/64 54/54/54
f 63/63/63 64/64/64 53/53/53
f 57/57/57 65/65/65 60/60/60
f 57/57/57 66/66/66 65/65/65
f 66/66/66 67/67/67 65/65/65
f 67/67/67 66/66/66 68/68/68
f 69/69/69 67/67/67 68/68/68
f 69/69/69 68/68/68 70/70/70
f 71/71/71 69/69/69 70/70/70
f 71/71/71 70/70/70 72/72/72
f 67/67/67 69/69/69 73/73/73
f 73/73/73 69/69/69 71/71/71
f 67/67/67 74/74/74 65/65/65
f 74/74/74 67/67/67 73/73/73
f 60/60/60 65/65/65 75/75/75
f 74/74/74 75/75/75 65/65/65
f 71/71/71 72/72/72 76/76/76
f 76/76/76 72/72/72 77/77/77
f 78/78/78 76/76/76 77/77/77
f 79/79/79 60/60/60 75/75/75
f 79/79/79 61/61/61 60/60/60
f 80/80/80 61/61/61 79/79/79
f 61/61/61 80/80/80 62/62/62
f 79/79/79 75/75/75 81/81/81
f 81/81/81 80/80/80 79/79/79
f 75/75/75 74/74/74 82/82/82
f 75/75/75 82/82/82 81/81/81
f 80/80/80 83/83/83 62/62/62
f 83/83/83 63/63/63 62/62/62
f 74/74/74 84/84/84 82/82/82
f 73/73/73 84/84/84 74/74/74
f 82/82/82 85/85/85 81/81/81
f 82/82/82 84/84/84 85/85/85
f 81/81/81 86/86/86 80/80/80
f 86/86/86 83/83/83 80/80/80
f 85/85/85 86/86/86 81/81/81
f 87/87/87 63/63/63 83/83/83
f 87/87/87 64/64/64 63/63/63
f 84/84/84 73/73/73 88/88/88
f 88/88/88 73/73/73 71/71/71
f 83/83/83 86/86/86 89/89/89
f 83/83/83 89/89/89 87/87/87
f 90/90/90 84/84/84 88/88/88
f 84/84/84 90/90/90 85/85/85
f 88/88/88 71/71/71 91/91/91
f 88/88/88 91/91/91 90/90/90
f 86/86/86 92/92/92 89/89/89
f 92/92/92 86/86/86 85/85/85
f 93/93/93 85/85/85 90/90/90
f 91/91/91 93/93/93 90/90/90
f 93/93/93 92/92/92 85/85/85
f 71/71/71 94/94/94 91/91/91
f 76/76/76 94/94/94 71/71/71
f 94/94/94 76/76/76 95/95/95
f 96/96/96 93/93/93 91/91/91
f 94/94/94 96/96/96 91/91/91
f 96/96/96 94/94/94 95/95/95
f 92/92/92 93/93/93 96/96/96
f 96/96/96 95/95/95 97/97/97
f 89/89/89 92/92/92 98/98/98
f 98/98/98 92/92/92 96/96/96
f 97/97/97 98/98/98 96/96/96
f 89/89/89 98/98/98 87/87/87
f 97/97/97 99/99/99 98/98/98
f 98/98/98 99/99/99 87/87/87
f 97/97/97 100/100/100 99/99/99
f 101/101/101 87/87/87 99/99/99
f 100/100/100 101/101/101 99/99/99
f 87/87/87 101/101/101 64/64/64
f 101/101/101 54/54/54 64/64/64
f 54/54/54 101/101/101 100/100/100
f 100/100/100 102/102/102 54/54/54
f 100/100/100 103/103/103 102/102/102
f 106/106/106 105/105/105 104/104/104
f 107/107/107 106/106/106 104/104/104
f 110/110/110 109/109/109 108/108/108
f 111/111/111 110/110/110 108/108/108
f 111/111/111 108/108/108 112/112/112
f 111/111/111 113/113/113 110/110/110
f 113/113/113 114/114/114 110/110/110
f 115/115/115 114/114/114 113/113/113
f 112/112/112 116/116/116 111/111/111
f 117/117/117 113/113/113 111/111/111
f 116/116/116 117/117/117 111/111/111
f 113/113/113 117/117/117 118/118/118
f 119/119/119 115/115/115 113/113/113
f 119/119/119 113/113/113 118/118/118
f 119/119/119 120/120/120 115/115/115
f 120/120/120 121/121/121 115/115/115
f 122/122/122 121/121/121 120/120/120
f 112/112/112 123/123/123 116/116/116
f 112/112/112 124/124/124 123/123/123
f 125/125/125 117/117/117 116/116/116
f 118/118/118 117/117/117 125/125/125
f 125/125/125 116/116/116 126/126/126
f 116/116/116 123/123/123 126/126/126
f 124/124/124 127/127/127 123/123/123
f 127/127/127 124/124/124 128/128/128
f 127/127/127 128/128/128 129/129/129
f 123/123/123 127/127/127 130/130/130
f 126/126/126 123/123/123 130/130/130
f 130/130/130 127/127/127 129/129/129
f 125/125/125 126/126/126 131/131/131
f 131/131/131 118/118/118 125/125/125
f 126/126/126 130/130/130 132/132/132
f 126/126/126 132/132/132 131/131/131
f 130/130/130 129/129/129 133/133/133
f 130/130/130 133/133/133 132/132/132
f 132/132/132 134/134/134 131/131/131
f 134/134/134 132/132/132 133/133/133
f 131/131/131 135/135/135 118/118/118
f 134/134/134 135/135/135 131/131/131
f 129/129/129 136/136/136 133/133/133
f 129/129/129 137/137/137 136/136/136
f 138/138/138 134/134/134 133/133/133
f 136/136/136 139/139/139 133/133/133
f 139/139/139 138/138/138 133/133/133
f 137/137/137 140/140/140 136/136/136
f 136/136/136 140/140/140 139/139/139
f 140/140/140 137/137/137 141/141/141
f 137/137/137 142/142/142 141/141/141
f 139/139/139 140/140/140 143/143/143
f 140/140/140 141/141/141 143/143/143
f 138/138/138 139/139/139 143/143/143
f 141/141/141 144/144/144 143/143/143
f 134/134/134 138/138/138 145/145/145
f 145/145/145 135/135/135 134/134/134
f 146/146/146 138/138/138 143/143/143
f 138/138/138 146/146/146 145/145/145
f 144/144/144 147/147/147 143/143/143
f 146/146/146 143/143/143 147/147/147
f 145/145/145 146/146/146 148/148/148
f 148/148/148 146/146/146 147/147/147
f 135/135/135 145/145/145 149/149/149
f 149/149/149 145/145/145 148/148/148
f 147/147/147 144/144/144 150/150/150
f 144/144/144 151/151/151 150/150/150
f 122/122/122 150/150/150 151/151/151
f 152/152/152 122/122/122 151/151/151
f 150/150/150 122/122/122 120/120/120
f 147/147/147 150/150/150 120/120/120
f 120/120/120 148/148/148 147/147/147
f 153/153/153 135/135/135 149/149/149
f 135/135/135 153/153/153 118/118/118
f 149/149/149 148/148/148 154/154/154
f 149/149/149 154/154/154 153/153/153
f 120/120/120 155/155/155 148/148/148
f 148/148/148 155/155/155 154/154/154
f 120/120/120 119/119/119 155/155/155
f 156/156/156 118/118/118 153/153/153
f 154/154/154 156/156/156 153/153/153
f 156/156/156 154/154/154 155/155/155
f 119/119/119 156/156/156 155/155/155
f 118/118/118 156/156/156 119/119/119
f 159/159/159 158/158/158 157/157/157
f 160/160/160 159/159/159 157/157/157
f 161/161/161 159/159/159 160/160/160
f 162/162/162 161/161/161 160/160/160
f 163/163/163 161/161/161 162/162/162
f 164/164/164 163/163/163 162/162/162
f 165/165/165 163/163/163 164/164/164
f 166/166/166 165/165/165 164/164/164
f 167/167/167 165/165/165 166/166/166
f 168/168/168 167/167/167 166/166/166
f 169/169/169 168/168/168 166/166/166
f 170/170/170 166/166/166 164/164/164
f 170/170/170 169/169/169 166/166/166
f 171/171/171 164/164/164 162/162/162
f 171/171/171 170/170/170 164/164/164
f 169/169/169 170/170/170 172/172/172
f 173/173/173 169/169/169 172/172/172
f 174/174/174 173/173/173 172/172/172
f 175/175/175 174/174/174 172/172/172
f 176/176/176 162/162/162 160/160/160
f 177/177/177 171/171/171 162/162/162
f 176/176/176 177/177/177 162/162/162
f 170/170/170 171/171/171 178/178/178
f 171/171/171 177/177/177 178/178/178
f 170/170/170 179/179/179 172/172/172
f 179/179/179 170/170/170 178/178/178
f 180/180/180 178/178/178 177/177/177
f 176/176/176 180/180/180 177/177/177
f 179/179/179 178/178/178 180/180/180
f 181/181/181 175/175/175 172/172/172
f 181/181/181 172/172/172 179/179/179
f 175/175/175 181/181/181 182/182/182
f 183/183/183 175/175/175 182/182/182
f 184/184/184 181/181/181 179/179/179
f 181/181/181 184/184/184 182/182/182
f 184/184/184 179/179/179 180/180/180
f 185/185/185 182/182/182 184/184/184
f 182/182/182 185/185/185 183/183/183
f 180/180/180 186/186/186 184/184/184
f 186/186/186 185/185/185 184/184/184
f 186/186/186 180/180/180 187/187/187
f 187/187/187 180/180/180 176/176/176
f 185/185/185 186/186/186 188/188/188
f 188/188/188 186/186/186 187/187/187
f 188/188/188 187/187/187 189/189/189
f 185/185/185 190/190/190 183/183/183
f 190/190/190 185/185/185 188/188/188
f 191/191/191 187/187/187 176/176/176
f 187/187/187 191/191/191 189/189/189
f 190/190/190 192/192/192 183/183/183
f 192/192/192 193/193/193 183/183/183
f 194/194/194 190/190/190 188/188/188
f 194/194/194 192/192/192 190/190/190
f 189/189/189 194/194/194 188/188/188
f 193/193/193 192/192/192 195/195/195
f 195/195/195 192/192/192 194/194/194
f 189/189/189 195/195/195 194/194/194
f 196/196/196 193/193/193 195/195/195
f 195/195/195 197/197/197 196/196/196
f 197/197/197 195/195/195 189/189/189
f 197/197/197 198/198/198 196/196/196
f 198/198/198 197/197/197 199/199/199
f 200/200/200 191/191/191 176/176/176
f 160/160/160 200/200/200 176/176/176
f 200/200/200 160/160/160 157/157/157
f 201/201/201 191/191/191 200/200/200
f 201/201/201 200/200/200 157/157/157
f 189/189/189 191/191/191 201/201/201
f 201/201/201 157/157/157 202/202/202
f 203/203/203 189/189/189 201/201/201
f 203/203/203 197/197/197 189/189/189
f 203/203/203 201/201/201 202/202/202
f 204/204/204 197/197/197 203/203/203
f 202/202/202 204/204/204 203/203/203
f 197/197/197 204/204/204 199/199/199
f 202/202/202 205/205/205 204/204/204
f 204/204/204 205/205/205 199/199/199
f 205/205/205 206/206/206 199/199/199
f 205/205/205 207/207/207 206/206/206
f 210/210/210 209/209/209 208/208/208
f 211/211/211 210/210/210 208/208/208
f 214/214/214 213/213/213 212/212/212
f 213/213/213 215/215/215 212/212/212
f 212/212/212 215/215/215 216/216/216
f 217/217/217 212/212/212 216/216/216
f 218/218/218 215/215/215 213/213/213
f 213/213/213 219/219/219 218/218/218
f 218/218/218 220/220/220 215/215/215
f 218/218/218 221/221/221 220/220/220
f 222/222/222 217/217/217 216/216/216
f 217/217/217 222/222/222 223/223/223
f 222/222/222 224/224/224 223/223/223
f 222/222/222 225/225/225 224/224/224
f 225/225/225 226/226/226 224/224/224
f 215/215/215 220/220/220 227/227/227
f 216/216/216 215/215/215 227/227/227
f 216/216/216 227/227/227 228/228/228
f 229/229/229 222/222/222 216/216/216
f 229/229/229 225/225/225 222/222/222
f 229/229/229 216/216/216 228/228/228
f 221/221/221 230/230/230 220/220/220
f 227/227/227 220/220/220 231/231/231
f 220/220/220 230/230/230 231/231/231
f 227/227/227 232/232/232 228/228/228
f 227/227/227 231/231/231 232/232/232
f 230/230/230 221/221/221 233/233/233
f 221/221/221 234/234/234 233/233/233
f 235/235/235 226/226/226 225/225/225
f 236/236/236 225/225/225 229/229/229
f 235/235/235 225/225/225 236/236/236
f 237/237/237 229/229/229 228/228/228
f 237/237/237 236/236/236 229/229/229
f 235/235/235 238/238/238 226/226/226
f 238/238/238 239/239/239 226/226/226
f 238/238/238 240/240/240 239/239/239
f 240/240/240 238/238/238 241/241/241
f 242/242/242 236/236/236 237/237/237
f 236/236/236 243/243/243 235/235/235
f 236/236/236 242/242/242 243/243/243
f 244/244/244 238/238/238 235/235/235
f 243/243/243 244/244/244 235/235/235
f 238/238/238 245/245/245 241/241/241
f 245/245/245 238/238/238 244/244/244
f 245/245/245 246/246/246 241/241/241
f 246/246/246 247/247/247 241/241/241
f 234/234/234 247/247/247 246/246/246
f 248/248/248 242/242/242 237/237/237
f 228/228/228 248/248/248 237/237/237
f 243/243/243 242/242/242 249/249/249
f 242/242/242 248/248/248 249/249/249
f 250/250/250 244/244/244 243/243/243
f 249/249/249 250/250/250 243/243/243
f 251/251/251 245/245/245 244/244/244
f 245/245/245 251/251/251 246/246/246
f 244/244/244 250/250/250 251/251/251
f 252/252/252 234/234/234 246/246/246
f 234/234/234 252/252/252 233/233/233
f 228/228/228 253/253/253 248/248/248
f 248/248/248 254/254/254 249/249/249
f 253/253/253 254/254/254 248/248/248
f 249/249/249 255/255/255 250/250/250
f 254/254/254 255/255/255 249/249/249
f 250/250/250 256/256/256 251/251/251
f 255/255/255 256/256/256 250/250/250
f 251/251/251 257/257/257 246/246/246
f 256/256/256 257/257/257 251/251/251
f 246/246/246 257/257/257 258/258/258
f 246/246/246 258/258/258 252/252/252
f 259/259/259 257/257/257 256/256/256
f 257/257/257 259/259/259 258/258/258
f 259/259/259 256/256/256 255/255/255
f 259/259/259 260/260/260 258/258/258
f 260/260/260 259/259/259 255/255/255
f 258/258/258 260/260/260 252/252/252
f 261/261/261 260/260/260 255/255/255
f 261/261/261 255/255/255 254/254/254
f 260/260/260 261/261/261 252/252/252
f 262/262/262 253/253/253 228/228/228
f 232/232/232 262/262/262 228/228/228
f 254/254/254 253/253/253 263/263/263
f 254/254/254 263/263/263 261/261/261
f 261/261/261 264/264/264 252/252/252
f 264/264/264 233/233/233 252/252/252
f 265/265/265 253/253/253 262/262/262
f 253/253/253 265/265/265 263/263/263
f 266/266/266 262/262/262 232/232/232
f 262/262/262 266/266/266 265/265/265
f 263/263/263 267/267/267 261/261/261
f 267/267/267 264/264/264 261/261/261
f 265/265/265 268/268/268 263/263/263
f 268/268/268 267/267/267 263/263/263
f 266/266/266 268/268/268 265/265/265
f 233/233/233 264/264/264 269/269/269
f 269/269/269 230/230/230 233/233/233
f 264/264/264 267/267/267 270/270/270
f 267/267/267 268/268/268 270/270/270
f 264/264/264 270/270/270 269/269/269
f 268/268/268 271/271/271 270/270/270
f 268/268/268 266/266/266 271/271/271
f 270/270/270 271/271/271 269/269/269
f 272/272/272 266/266/266 232/232/232
f 271/271/271 266/266/266 272/272/272
f 231/231/231 272/272/272 232/232/232
f 230/230/230 269/269/269 273/273/273
f 271/271/271 273/273/273 269/269/269
f 273/273/273 271/271/271 272/272/272
f 231/231/231 230/230/230 273/273/273
f 231/231/231 273/273/273 272/272/272
f 276/276/276 275/275/275 274/274/274
f 276/276/276 274/274/274 277/277/277
f 274/274/274 278/278/278 277/277/277
f 277/277/277 278/278/278 279/279/279
f 279/279/279 280/280/280 277/277/277
f 280/280/280 281/281/281 277/277/277
f 282/282/282 281/281/281 280/280/280
f 278/278/278 283/283/283 279/279/279
f 280/280/280 279/279/279 284/284/284
f 285/285/285 282/282/282 280/280/280
f 285/285/285 286/286/286 282/282/282
f 287/287/287 283/283/283 278/278/278
f 288/288/288 287/287/287 278/278/278
f 289/289/289 280/280/280 284/284/284
f 289/289/289 285/285/285 280/280/280
f 286/286/286 285/285/285 290/290/290
f 290/290/290 285/285/285 289/289/289
f 284/284/284 291/291/291 289/289/289
f 291/291/291 290/290/290 289/289/289
f 284/284/284 292/292/292 291/291/291
f 283/283/283 293/293/293 292/292/292
f 283/283/283 287/287/287 293/293/293
f 287/287/287 288/288/288 294/294/294
f 293/293/293 287/287/287 294/294/294
f 288/288/288 295/295/295 294/294/294
f 291/291/291 292/292/292 296/296/296
f 290/290/290 291/291/291 296/296/296
f 292/292/292 293/293/293 296/296/296
f 297/297/297 286/286/286 290/290/290
f 297/297/297 290/290/290 296/296/296
f 286/286/286 297/297/297 298/298/298
f 299/299/299 298/298/298 297/297/297
f 296/296/296 299/299/299 297/297/297
f 296/296/296 293/293/293 299/299/299
f 293/293/293 300/300/300 299/299/299
f 300/300/300 293/293/293 294/294/294
f 299/299/299 300/300/300 301/301/301
f 302/302/302 294/294/294 295/295/295
f 294/294/294 302/302/302 300/300/300
f 300/300/300 302/302/302 301/301/301
f 303/303/303 302/302/302 295/295/295
f 301/301/301 302/302/302 303/303/303
f 304/304/304 301/301/301 303/303/303
f 307/307/307 306/306/306 305/305/305
f 308/308/308 307/307/307 305/305/305
f 311/311/311 310/310/310 309/309/309
f 312/312/312 311/311/311 309/309/309
f 313/313/313 312/312/312 309/309/309
f 312/312/312 314/314/314 311/311/311
f 314/314/314 315/315/315 311/311/311
f 309/309/309 316/316/316 313/313/313
f 317/317/317 315/315/315 314/314/314
f 318/318/318 317/317/317 314/314/314
f 314/314/314 319/319/319 318/318/318
f 317/317/317 318/318/318 320/320/320
f 321/321/321 317/317/317 320/320/320
f 321/321/321 320/320/320 322/322/322
f 319/319/319 323/323/323 318/318/318
f 323/323/323 320/320/320 318/318/318
f 320/320/320 324/324/324 322/322/322
f 325/325/325 322/322/322 324/324/324
f 326/326/326 324/324/324 320/320/320
f 323/323/323 326/326/326 320/320/320
f 327/327/327 323/323/323 319/319/319
f 326/326/326 323/323/323 327/327/327
f 313/313/313 327/327/327 319/319/319
f 328/328/328 326/326/326 327/327/327
f 329/329/329 328/328/328 327/327/327
f 330/330/330 327/327/327 313/313/313
f 330/330/330 329/329/329 327/327/327
f 331/331/331 330/330/330 313/313/313
f 316/316/316 331/331/331 313/313/313
f 316/316/316 332/332/332 331/331/331
f 329/329/329 330/330/330 333/333/333
f 333/333/333 330/330/330 331/331/331
f 334/334/334 329/329/329 333/333/333
f 333/333/333 335/335/335 334/334/334
f 332/332/332 336/336/336 331/331/331
f 336/336/336 333/333/333 331/331/331
f 335/335/335 333/333/333 336/336/336
f 336/336/336 332/332/332 337/337/337
f 338/338/338 335/335/335 336/336/336
f 338/338/338 336/336/336 337/337/337
f 341/341/341 340/340/340 339/339/339
f 342/342/342 341/341/341 339/339/339
f 339/339/339 340/340/340 343/343/343
f 344/344/344 342/342/342 339/339/339
f 344/344/344 345/345/345 342/342/342
f 345/345/345 346/346/346 342/342/342
f 345/345/345 347/347/347 346/346/346
f 347/347/347 348/348/348 346/346/346
f 349/349/349 345/345/345 344/344/344
f 347/347/347 345/345/345 349/349/349
f 347/347/347 350/350/350 348/348/348
f 350/350/350 351/351/351 348/348/348
f 352/352/352 347/347/347 349/349/349
f 347/347/347 352/352/352 350/350/350
f 351/351/351 350/350/350 353/353/353
f 354/354/354 351/351/351 353/353/353
f 352/352/352 355/355/355 350/350/350
f 350/350/350 355/355/355 353/353/353
f 354/354/354 353/353/353 356/356/356
f 357/357/357 354/354/354 356/356/356
f 358/358/358 357/357/357 356/356/356
f 358/358/358 359/359/359 357/357/357
f 355/355/355 360/360/360 353/353/353
f 356/356/356 353/353/353 360/360/360
f 361/361/361 355/355/355 352/352/352
f 361/361/361 360/360/360 355/355/355
f 349/349/349 362/362/362 352/352/352
f 362/362/362 361/361/361 352/352/352
f 361/361/361 363/363/363 360/360/360
f 361/361/361 362/362/362 363/363/363
f 364/364/364 356/356/356 360/360/360
f 363/363/363 364/364/364 360/360/360
f 364/364/364 363/363/363 365/365/365
f 362/362/362 349/349/349 366/366/366
f 366/366/366 349/349/349 344/344/344
f 362/362/362 367/367/367 363/363/363
f 365/365/365 363/363/363 367/367/367
f 367/367/367 362/362/362 366/366/366
f 356/356/356 364/364/364 368/368/368
f 356/356/356 368/368/368 358/358/358
f 367/367/367 366/366/366 369/369/369
f 369/369/369 365/365/365 367/367/367
f 365/365/365 369/369/369 370/370/370
f 366/366/366 344/344/344 371/371/371
f 366/366/366 371/371/371 369/369/369
f 364/364/364 372/372/372 368/368/368
f 365/365/365 372/372/372 364/364/364
f 344/344/344 373/373/373 371/371/371
f 373/373/373 344/344/344 339/339/339
f 371/371/371 374/374/374 369/369/369
f 374/374/374 371/371/371 373/373/373
f 374/374/374 370/370/370 369/369/369
f 339/339/339 375/375/375 373/373/373
f 375/375/375 374/374/374 373/373/373
f 370/370/370 374/374/374 375/375/375
f 375/375/375 339/339/339 343/343/343
f 376/376/376 375/375/375 343/343/343
f 375/375/375 376/376/376 370/370/370
f 377/377/377 376/376/376 343/343/343
f 376/376/376 377/377/377 378/378/378
f 372/372/372 379/379/379 368/368/368
f 368/368/368 379/379/379 358/358/358
f 380/380/380 376/376/376 378/378/378
f 376/376/376 381/381/381 370/370/370
f 381/381/381 376/376/376 380/380/380
f 382/382/382 380/380/380 378/378/378
f 383/383/383 382/382/382 378/378/378
f 383/383/383 384/384/384 382/382/382
f 385/385/385 382/382/382 384/384/384
f 380/380/380 382/382/382 385/385/385
f 386/386/386 385/385/385 384/384/384
f 379/379/379 372/372/372 387/387/387
f 379/379/379 388/388/388 358/358/358
f 388/388/388 379/379/379 387/387/387
f 372/372/372 389/389/389 387/387/387
f 365/365/365 389/389/389 372/372/372
f 388/388/388 387/387/387 390/390/390
f 387/387/387 389/389/389 390/390/390
f 388/388/388 391/391/391 358/358/358
f 391/391/391 388/388/388 390/390/390
f 365/365/365 392/392/392 389/389/389
f 392/392/392 365/365/365 370/370/370
f 389/389/389 393/393/393 390/390/390
f 392/392/392 393/393/393 389/389/389
f 394/394/394 392/392/392 370/370/370
f 392/392/392 394/394/394 393/393/393
f 381/381/381 394/394/394 370/370/370
f 390/390/390 393/393/393 395/395/395
f 393/393/393 394/394/394 395/395/395
f 391/391/391 390/390/390 395/395/395
f 394/394/394 381/381/381 396/396/396
f 395/395/395 394/394/394 396/396/396
f 396/396/396 381/381/381 380/380/380
f 397/397/397 395/395/395 396/396/396
f 397/397/397 391/391/391 395/395/395
f 398/398/398 396/396/396 380/380/380
f 398/398/398 397/397/397 396/396/396
f 380/380/380 385/385/385 398/398/398
f 397/397/397 399/399/399 391/391/391
f 397/397/397 398/398/398 399/399/399
f 385/385/385 400/400/400 398/398/398
f 400/400/400 399/399/399 398/398/398
f 386/386/386 400/400/400 385/385/385
f 399/399/399 401/401/401 391/391/391
f 401/401/401 399/399/399 400/400/400
f 391/391/391 401/401/401 358/358/358
f 359/359/359 358/358/358 401/401/401
f 402/402/402 359/359/359 401/401/401
f 402/402/402 401/401/401 400/400/400
f 359/359/359 402/402/402 403/403/403
f 403/403/403 402/402/402 404/404/404
f 405/405/405 400/400/400 386/386/386
f 400/400/400 405/405/405 402/402/402
f 402/402/402 405/405/405 404/404/404
f 406/406/406 405/405/405 386/386/386
f 404/404/404 405/405/405 406/406/406
f 409/409/409 408/408/408 407/407/407
f 410/410/410 409/409/409 407/407/407
f 411/411/411 408/408/408 409/409/409
f 412/412/412 409/409/409 410/410/410
f 413/413/413 412/412/412 410/410/410
f 414/414/414 411/411/411 409/409/409
f 409/409/409 412/412/412 414/414/414
f 411/411/411 414/414/414 415/415/415
f 412/412/412 413/413/413 416/416/416
f 413/413/413 417/417/417 416/416/416
f 414/414/414 418/418/418 415/415/415
f 419/419/419 415/415/415 418/418/418
f 412/412/412 420/420/420 414/414/414
f 420/420/420 412/412/412 416/416/416
f 414/414/414 420/420/420 421/421/421
f 418/418/418 414/414/414 421/421/421
f 422/422/422 419/419/419 418/418/418
f 422/422/422 423/423/423 419/419/419
f 423/423/423 422/422/422 424/424/424
f 420/420/420 425/425/425 421/421/421
f 425/425/425 420/420/420 416/416/416
f 426/426/426 418/418/418 421/421/421
f 421/421/421 425/425/425 426/426/426
f 422/422/422 418/418/418 426/426/426
f 427/427/427 416/416/416 417/417/417
f 428/428/428 427/427/427 417/417/417
f 429/429/429 425/425/425 416/416/416
f 427/427/427 429/429/429 416/416/416
f 425/425/425 429/429/429 426/426/426
f 427/427/427 428/428/428 430/430/430
f 429/429/429 427/427/427 430/430/430
f 428/428/428 431/431/431 430/430/430
f 422/422/422 432/432/432 424/424/424
f 424/424/424 432/432/432 433/433/433
f 422/422/422 426/426/426 434/434/434
f 432/432/432 422/422/422 434/434/434
f 429/429/429 435/435/435 426/426/426
f 435/435/435 429/429/429 430/430/430
f 435/435/435 434/434/434 426/426/426
f 432/432/432 436/436/436 433/433/433
f 436/436/436 432/432/432 434/434/434
f 436/436/436 437/437/437 433/433/433
f 430/430/430 431/431/431 438/438/438
f 431/431/431 439/439/439 438/438/438
f 439/439/439 440/440/440 438/438/438
f 434/434/434 435/435/435 441/441/441
f 441/441/441 436/436/436 434/434/434
f 442/442/442 437/437/437 436/436/436
f 441/441/441 442/442/442 436/436/436
f 442/442/442 443/443/443 437/437/437
f 444/444/444 435/435/435 430/430/430
f 435/435/435 444/444/444 441/441/441
f 444/444/444 442/442/442 441/441/441
f 444/444/444 430/430/430 438/438/438
f 442/442/442 444/444/444 443/443/443
f 438/438/438 440/440/440 445/445/445
f 444/444/444 438/438/438 445/445/445
f 444/444/444 445/445/445 443/443/443
f 440/440/440 446/446/446 445/445/445
f 445/445/445 446/446/446 443/443/443
f 449/449/449 448/448/448 447/447/447
f 448/448/448 449/449/449 450/450/450
f 448/448/448 451/451/451 447/447/447
f 447/447/447 451/451/451 452/452/452
f 453/453/453 447/447/447 452/452/452
f 453/453/453 452/452/452 454/454/454
f 455/455/455 454/454/454 452/452/452
f 456/456/456 453/453/453 454/454/454
f 451/451/451 457/457/457 452/452/452
f 451/451/451 448/448/448 458/458/458
f 457/457/457 451/451/451 458/458/458
f 459/459/459 455/455/455 452/452/452
f 457/457/457 459/459/459 452/452/452
f 460/460/460 456/456/456 454/454/454
f 460/460/460 454/454/454 461/461/461
f 454/454/454 455/455/455 461/461/461
f 456/456/456 460/460/460 462/462/462
f 462/462/462 460/460/460 461/461/461
f 463/463/463 456/456/456 462/462/462
f 462/462/462 464/464/464 463/463/463
f 464/464/464 465/465/465 463/463/463
f 465/465/465 464/464/464 466/466/466
f 467/467/467 465/465/465 466/466/466
f 468/468/468 464/464/464 462/462/462
f 464/464/464 468/468/468 466/466/466
f 462/462/462 461/461/461 469/469/469
f 469/469/469 468/468/468 462/462/462
f 470/470/470 469/469/469 461/461/461
f 455/455/455 470/470/470 461/461/461
f 468/468/468 469/469/469 470/470/470
f 467/467/467 466/466/466 471/471/471
f 467/467/467 471/471/471 472/472/472
f 466/466/466 468/468/468 473/473/473
f 466/466/466 473/473/473 471/471/471
f 474/474/474 468/468/468 470/470/470
f 468/468/468 474/474/474 473/473/473
f 474/474/474 470/470/470 475/475/475
f 470/470/470 455/455/455 475/475/475
f 475/475/475 455/455/455 476/476/476
f 477/477/477 473/473/473 474/474/474
f 477/477/477 474/474/474 475/475/475
f 473/473/473 477/477/477 471/471/471
f 477/477/477 475/475/475 476/476/476
f 471/471/471 478/478/478 472/472/472
f 478/478/478 479/479/479 472/472/472
f 480/480/480 479/479/479 478/478/478
f 477/477/477 481/481/481 471/471/471
f 481/481/481 477/477/477 476/476/476
f 471/471/471 481/481/481 478/478/478
f 455/455/455 482/482/482 476/476/476
f 482/482/482 455/455/455 459/459/459
f 483/483/483 482/482/482 459/459/459
f 459/459/459 457/457/457 483/483/483
f 476/476/476 482/482/482 484/484/484
f 482/482/482 483/483/483 484/484/484
f 457/457/457 485/485/485 483/483/483
f 485/485/485 457/457/457 458/458/458
f 483/483/483 485/485/485 486/486/486
f 484/484/484 483/483/483 486/486/486
f 487/487/487 485/485/485 458/458/458
f 486/486/486 485/485/485 487/487/487
f 488/488/488 480/480/480 478/478/478
f 481/481/481 489/489/489 478/478/478
f 478/478/478 489/489/489 488/488/488
f 488/488/488 490/490/490 480/480/480
f 490/490/490 491/491/491 480/480/480
f 489/489/489 492/492/492 488/488/488
f 488/488/488 492/492/492 490/490/490
f 489/489/489 481/481/481 493/493/493
f 492/492/492 489/489/489 493/493/493
f 494/494/494 491/491/491 490/490/490
f 490/490/490 492/492/492 494/494/494
f 481/481/481 495/495/495 493/493/493
f 481/481/481 476/476/476 495/495/495
f 496/496/496 491/491/491 494/494/494
f 497/497/497 491/491/491 496/496/496
f 492/492/492 498/498/498 494/494/494
f 498/498/498 492/492/492 493/493/493
f 476/476/476 499/499/499 495/495/495
f 476/476/476 484/484/484 499/499/499
f 497/497/497 496/496/496 500/500/500
f 501/501/501 497/497/497 500/500/500
f 502/502/502 501/501/501 500/500/500
f 484/484/484 503/503/503 499/499/499
f 503/503/503 484/484/484 486/486/486
f 504/504/504 503/503/503 486/486/486
f 486/486/486 487/487/487 504/504/504
f 487/487/487 505/505/505 504/504/504
f 487/487/487 458/458/458 505/505/505
f 458/458/458 506/506/506 505/505/505
f 458/458/458 448/448/448 506/506/506
f 448/448/448 507/507/507 506/506/506
f 507/507/507 448/448/448 450/450/450
f 508/508/508 507/507/507 450/450/450
f 506/506/506 507/507/507 508/508/508
f 509/509/509 508/508/508 450/450/450
f 510/510/510 509/509/509 450/450/450
f 509/509/509 510/510/510 511/511/511
f 499/499/499 503/503/503 512/512/512
f 503/503/503 504/504/504 513/513/513
f 512/512/512 503/503/503 513/513/513
f 504/504/504 505/505/505 514/514/514
f 513/513/513 504/504/504 514/514/514
f 506/506/506 515/515/515 505/505/505
f 515/515/515 514/514/514 505/505/505
f 516/516/516 506/506/506 508/508/508
f 506/506/506 516/516/516 515/515/515
f 509/509/509 517/517/517 508/508/508
f 517/517/517 516/516/516 508/508/508
f 515/515/515 516/516/516 518/518/518
f 514/514/514 515/515/515 518/518/518
f 516/516/516 517/517/517 518/518/518
f 519/519/519 509/509/509 511/511/511
f 517/517/517 509/509/509 519/519/519
f 520/520/520 519/519/519 511/511/511
f 520/520/520 511/511/511 521/521/521
f 522/522/522 517/517/517 519/519/519
f 518/518/518 517/517/517 522/522/522
f 523/523/523 522/522/522 519/519/519
f 520/520/520 523/523/523 519/519/519
f 518/518/518 522/522/522 524/524/524
f 522/522/522 523/523/523 524/524/524
f 525/525/525 514/514/514 518/518/518
f 518/518/518 524/524/524 525/525/525
f 514/514/514 525/525/525 526/526/526
f 526/526/526 525/525/525 524/524/524
f 513/513/513 514/514/514 526/526/526
f 524/524/524 523/523/523 527/527/527
f 527/527/527 523/523/523 520/520/520
f 528/528/528 526/526/526 524/524/524
f 528/528/528 524/524/524 527/527/527
f 513/513/513 526/526/526 529/529/529
f 529/529/529 526/526/526 528/528/528
f 512/512/512 513/513/513 529/529/529
f 530/530/530 529/529/529 528/528/528
f 530/530/530 528/528/528 527/527/527
f 529/529/529 531/531/531 512/512/512
f 531/531/531 529/529/529 530/530/530
f 531/531/531 499/499/499 512/512/512
f 499/499/499 531/531/531 495/495/495
f 495/495/495 531/531/531 532/532/532
f 532/532/532 531/531/531 530/530/530
f 533/533/533 495/495/495 532/532/532
f 493/493/493 495/495/495 533/533/533
f 532/532/532 530/530/530 534/534/534
f 534/534/534 533/533/533 532/532/532
f 535/535/535 530/530/530 527/527/527
f 530/530/530 535/535/535 534/534/534
f 536/536/536 493/493/493 533/533/533
f 498/498/498 493/493/493 536/536/536
f 533/533/533 534/534/534 537/537/537
f 534/534/534 535/535/535 537/537/537
f 536/536/536 533/533/533 537/537/537
f 535/535/535 527/527/527 538/538/538
f 538/538/538 527/527/527 520/520/520
f 539/539/539 498/498/498 536/536/536
f 494/494/494 498/498/498 539/539/539
f 535/535/535 540/540/540 537/537/537
f 540/540/540 535/535/535 538/538/538
f 537/537/537 541/541/541 536/536/536
f 541/541/541 539/539/539 536/536/536
f 541/541/541 537/537/537 540/540/540
f 542/542/542 494/494/494 539/539/539
f 541/541/541 542/542/542 539/539/539
f 496/496/496 494/494/494 542/542/542
f 543/543/543 541/541/541 540/540/540
f 543/543/543 542/542/542 541/541/541
f 540/540/540 538/538/538 543/543/543
f 496/496/496 542/542/542 543/543/543
f 544/544/544 538/538/538 520/520/520
f 543/543/543 538/538/538 544/544/544
f 545/545/545 496/496/496 543/543/543
f 543/543/543 544/544/544 545/545/545
f 500/500/500 496/496/496 545/545/545
f 500/500/500 545/545/545 546/546/546
f 545/545/545 544/544/544 546/546/546
f 502/502/502 500/500/500 546/546/546
f 547/547/547 544/544/544 520/520/520
f 547/547/547 546/546/546 544/544/544
f 502/502/502 546/546/546 547/547/547
f 521/521/521 547/547/547 520/520/520
f 521/521/521 502/502/502 547/547/547
f 550/550/550 549/549/549 548/548/548
f 548/548/548 551/551/551 550/550/550
f 551/551/551 552/552/552 550/550/550
f 552/552/552 551/551/551 553/553/553
f 554/554/554 552/552/552 553/553/553
f 553/553/553 555/555/555 554/554/554
f 555/555/555 556/556/556 554/554/554
f 555/555/555 557/557/557 556/556/556
f 557/557/557 558/558/558 556/556/556
f 558/558/558 557/557/557 559/559/559
f 560/560/560 558/558/558 559/559/559
f 560/560/560 559/559/559 561/561/561
f 562/562/562 560/560/560 561/561/561
f 562/562/562 561/561/561 563/563/563
f 562/562/562 563/563/563 564/564/564
f 558/558/558 560/560/560 565/565/565
f 565/565/565 560/560/560 562/562/562
f 558/558/558 566/566/566 556/556/556
f 566/566/566 558/558/558 565/565/565
f 556/556/556 567/567/567 554/554/554
f 566/566/566 567/567/567 556/556/556
f 554/554/554 568/568/568 552/552/552
f 567/567/567 568/568/568 554/554/554
f 569/569/569 567/567/567 566/566/566
f 568/568/568 567/567/567 569/569/569
f 565/565/565 570/570/570 566/566/566
f 570/570/570 569/569/569 566/566/566
f 568/568/568 571/571/571 552/552/552
f 552/552/552 571/571/571 550/550/550
f 568/568/568 569/569/569 572/572/572
f 569/569/569 570/570/570 572/572/572
f 571/571/571 568/568/568 572/572/572
f 570/570/570 565/565/565 573/573/573
f 573/573/573 565/565/565 562/562/562
f 570/570/570 574/574/574 572/572/572
f 574/574/574 570/570/570 573/573/573
f 571/571/571 572/572/572 575/575/575
f 576/576/576 572/572/572 574/574/574
f 572/572/572 576/576/576 575/575/575
f 574/574/574 573/573/573 577/577/577
f 577/577/577 576/576/576 574/574/574
f 578/578/578 573/573/573 562/562/562
f 573/573/573 578/578/578 577/577/577
f 577/577/577 579/579/579 576/576/576
f 576/576/576 579/579/579 575/575/575
f 580/580/580 578/578/578 562/562/562
f 564/564/564 580/580/580 562/562/562
f 580/580/580 564/564/564 581/581/581
f 582/582/582 580/580/580 581/581/581
f 578/578/578 583/583/583 577/577/577
f 578/578/578 580/580/580 583/583/583
f 580/580/580 582/582/582 583/583/583
f 583/583/583 579/579/579 577/577/577
f 584/584/584 583/583/583 582/582/582
f 579/579/579 583/583/583 584/584/584
f 585/585/585 584/584/584 582/582/582
f 584/584/584 585/585/585 586/586/586
f 587/587/587 579/579/579 584/584/584
f 587/587/587 584/584/584 586/586/586
f 579/579/579 587/587/587 575/575/575
f 588/588/588 587/587/587 586/586/586
f 575/575/575 587/587/587 589/589/589
f 587/587/587 588/588/588 589/589/589
f 575/575/575 589/589/589 590/590/590
f 575/575/575 590/590/590 571/571/571
f 571/571/571 590/590/590 550/550/550
f 591/591/591 589/589/589 588/588/588
f 592/592/592 591/591/591 588/588/588
f 592/592/592 593/593/593 591/591/591
f 589/589/589 594/594/594 590/590/590
f 590/590/590 594/594/594 550/550/550
f 589/589/589 591/591/591 594/594/594
f 593/593/593 595/595/595 591/591/591
f 591/591/591 595/595/595 594/594/594
f 594/594/594 596/596/596 550/550/550
f 595/595/595 596/596/596 594/594/594
f 550/550/550 596/596/596 549/549/549
f 597/597/597 595/595/595 593/593/593
f 596/596/596 595/595/595 597/597/597
f 596/596/596 597/597/597 549/549/549
f 598/598/598 597/597/597 593/593/593
f 549/549/549 597/597/597 599/599/599
f 597/597/597 598/598/598 599/599/599
f 602/602/602 601/601/601 600/600/600
f 602/602/602 603/603/603 601/601/601
f 604/604/604 602/602/602 600/600/600
f 604/604/604 600/600/600 605/605/605
f 603/603/603 602/602/602 606/606/606
f 607/607/607 603/603/603 606/606/606
f 608/608/608 606/606/606 602/602/602
f 604/604/604 608/608/608 602/602/602
f 606/606/606 609/609/609 607/607/607
f 609/609/609 606/606/606 608/608/608
f 609/609/609 610/610/610 607/607/607
f 611/611/611 604/604/604 605/605/605
f 611/611/611 605/605/605 612/612/612
f 609/609/609 613/613/613 610/610/610
f 613/613/613 614/614/614 610/610/610
f 604/604/604 611/611/611 615/615/615
f 608/608/608 604/604/604 615/615/615
f 608/608/608 615/615/615 616/616/616
f 617/617/617 611/611/611 612/612/612
f 617/617/617 615/615/615 611/611/611
f 617/617/617 612/612/612 618/618/618
f 619/619/619 609/609/609 608/608/608
f 619/619/619 613/613/613 609/609/609
f 616/616/616 619/619/619 608/608/608
f 613/613/613 620/620/620 614/614/614
f 620/620/620 613/613/613 619/619/619
f 616/616/616 620/620/620 619/619/619
f 620/620/620 621/621/621 614/614/614
f 622/622/622 615/615/615 617/617/617
f 615/615/615 622/622/622 616/616/616
f 623/623/623 617/617/617 618/618/618
f 623/623/623 622/622/622 617/617/617
f 618/618/618 624/624/624 623/623/623
f 624/624/624 625/625/625 623/623/623
f 625/625/625 622/622/622 623/623/623
f 625/625/625 624/624/624 626/626/626
f 621/621/621 620/620/620 627/627/627
f 628/628/628 621/621/621 627/627/627
f 629/629/629 628/628/628 627/627/627
f 630/630/630 622/622/622 625/625/625
f 622/622/622 630/630/630 616/616/616
f 631/631/631 625/625/625 626/626/626
f 631/631/631 630/630/630 625/625/625
f 631/631/631 626/626/626 632/632/632
f 620/620/620 616/616/616 633/633/633
f 627/627/627 620/620/620 633/633/633
f 634/634/634 629/629/629 627/627/627
f 627/627/627 633/633/633 634/634/634
f 616/616/616 630/630/630 635/635/635
f 633/633/633 616/616/616 635/635/635
f 631/631/631 636/636/636 630/630/630
f 636/636/636 631/631/631 632/632/632
f 636/636/636 635/635/635 630/630/630
f 637/637/637 633/633/633 635/635/635
f 633/633/633 637/637/637 634/634/634
f 637/637/637 635/635/635 636/636/636
f 634/634/634 638/638/638 629/629/629
f 638/638/638 634/634/634 637/637/637
f 638/638/638 637/637/637 636/636/636
f 638/638/638 636/636/636 632/632/632
f 638/638/638 639/639/639 629/629/629
f 639/639/639 638/638/638 632/632/632
