g item_02item_02_mobile
v -1.52582148 -3.39045572 -1.8884841
v 1.52582148 -3.39045572 1.34971541
v 1.52582148 -3.39045572 -1.8884841
v -1.52582148 -3.39045572 1.34971541
v -1.70689411 -3.34192826 -1.8884841
v -1.70689411 -3.34192826 1.34971541
v -1.83943928 -3.20938309 -1.8884841
v -1.83943928 -3.20938309 1.34971541
v -1.88796675 -3.02831046 -1.8884841
v -1.88796675 -3.02831046 1.34971541
v -1.88796675 3.02831046 1.34971541
v -1.88796675 3.02831046 -1.8884841
v -1.83943928 3.20938309 -1.8884841
v -1.83943928 3.20938309 1.34971541
v -1.70689411 3.34192826 -1.8884841
v -1.70689411 3.34192826 1.34971541
v -1.52582148 3.39045572 -1.8884841
v -1.52582148 3.39045572 1.34971541
v 1.52582148 3.39045572 -1.8884841
v 1.52582148 3.39045572 1.34971541
v 1.70689411 3.34192826 -1.8884841
v 1.70689411 3.34192826 1.34971541
v 1.83943928 3.20938309 -1.8884841
v 1.83943928 3.20938309 1.34971541
v 1.88796675 3.02831046 -1.8884841
v 1.88796675 3.02831046 1.34971541
v 1.88796675 -3.02831046 1.34971541
v 1.88796675 -3.02831046 -1.8884841
v 1.83943928 -3.20938309 -1.8884841
v 1.83943928 -3.20938309 1.34971541
v 1.70689411 -3.34192826 -1.8884841
v 1.70689411 -3.34192826 1.34971541
v 1.52582148 -3.39045572 -1.8884841
v 1.52582148 -3.39045572 1.34971541
v -1.27583777 -0.510676561 1.19233742
v -1.51661264 -1.06165472 1.19233742
v -1.38541259 -1.06165472 1.19233742
v -1.39700123 -0.460493574 1.19233742
v -0.963668555 -0.0435091671 1.19233742
v -1.05637774 0.0492000212 1.19233742
v -0.496501161 0.268660053 1.19233742
v -0.546684148 0.389823512 1.19233742
v 0.0545804652 0.378338334 1.19233742
v 0.0545804652 0.50943492 1.19233742
v 0.605558621 0.268660053 1.19233742
v 0.655741608 0.389823512 1.19233742
v 1.07272602 -0.0435091671 1.19233742
v 1.1654352 0.0492000212 1.19233742
v 1.38489524 -0.510676561 1.19233742
v 1.50605869 -0.460493574 1.19233742
v 1.49457352 -1.06165472 1.19233742
v 1.6256701 -1.06165472 1.19233742
v 1.38489524 -1.61273634 1.19233742
v 1.50605869 -1.66291933 1.19233742
v 1.07272602 -2.07990374 1.19233742
v 1.1654352 -2.17261293 1.19233742
v 0.605558621 -2.39207296 1.19233742
v 0.655741608 -2.51323642 1.19233742
v 0.0545804652 -2.50164777 1.19233742
v 0.0545804652 -2.63284782 1.19233742
v -0.496501161 -2.39207296 1.19233742
v -0.546684148 -2.51323642 1.19233742
v -1.38541259 -1.06165472 1.19233742
v -1.51661264 -1.06165472 1.19233742
v -1.39700123 -1.66291933 1.19233742
v -1.27583777 -1.61273634 1.19233742
v -1.05637774 -2.17261293 1.19233742
v -0.963668555 -2.07990374 1.19233742
v -0.546684148 -2.51323642 1.19233742
v -0.496501161 -2.39207296 1.19233742
v 0.99760674 -2.00468099 1.56079436
v 0.564894881 -2.29377638 1.6236007
v 0.564894881 -2.29377638 1.56079436
v 0.99760674 -2.00468099 1.6236007
v 1.28670213 -1.5720726 1.56079436
v 1.01043703 -2.01761475 1.64150102
v 0.571827376 -2.31064201 1.64150102
v 0.648291763 -2.49502568 1.6447086
v 1.28670213 -1.5720726 1.6236007
v 1.38820628 -1.06165472 1.56079436
v 1.30346429 -1.5790051 1.64150102
v 1.15157021 -2.15874794 1.6447086
v 1.38820628 -1.06165472 1.6236007
v 1.28670213 -0.551340301 1.56079436
v 1.40641701 -1.06165472 1.64150102
v 1.28670213 -0.551340301 1.6236007
v 0.99760674 -0.118628442 1.56079436
v 1.1654352 -2.17261293 1.62535969
v 0.655741608 -2.51323642 1.62535969
v 1.48784796 -1.65536601 1.6447086
v 1.30346429 -0.544407806 1.64150102
v 0.99760674 -0.118628442 1.6236007
v 0.564894881 0.170466951 1.56079436
v 1.1654352 -2.17261293 1.19233742
v 0.655741608 -2.51323642 1.19233742
v 1.50605869 -1.66291933 1.19233742
v 1.50605869 -1.66291933 1.62535969
v 1.6256701 -1.06165472 1.19233742
v 1.6256701 -1.06165472 1.62535969
v 1.50605869 -0.460493574 1.19233742
v 1.60601079 -1.06165472 1.6447086
v 1.50605869 -0.460493574 1.62535969
v 1.1654352 0.0492000212 1.19233742
v 1.48784796 -0.46794342 1.6447086
v 1.1654352 0.0492000212 1.62535969
v 0.655741608 0.389823512 1.19233742
v 1.01043703 -0.105798153 1.64150102
v 0.655741608 0.389823512 1.62535969
v 0.0545804652 0.50943492 1.19233742
v 1.15157021 0.035335031 1.6447086
v 0.571827376 0.187229103 1.64150102
v 0.0545804652 0.50943492 1.62535969
v -0.546684148 0.389823512 1.19233742
v 0.648291763 0.371612779 1.6447086
v 0.564894881 0.170466951 1.6236007
v 0.0545804652 0.271971095 1.56079436
v -0.546684148 0.389823512 1.62535969
v -1.05637774 0.0492000212 1.19233742
v 0.0545804652 0.489775606 1.6447086
v 0.0545804652 0.290181829 1.64150102
v 0.0545804652 0.271971095 1.6236007
v -0.455837421 0.170466951 1.56079436
v -1.05637774 0.0492000212 1.62535969
v -1.39700123 -0.460493574 1.19233742
v -0.539130832 0.371612779 1.6447086
v -0.462769916 0.187229103 1.64150102
v -0.455837421 0.170466951 1.6236007
v -0.88844581 -0.118628442 1.56079436
v -1.39700123 -0.460493574 1.62535969
v -1.51661264 -1.06165472 1.19233742
v -1.04251275 0.035335031 1.6447086
v -0.901379569 -0.105798153 1.64150102
v -0.88844581 -0.118628442 1.6236007
v -1.17764467 -0.551340301 1.56079436
v -1.51661264 -1.06165472 1.62535969
v -1.39700123 -1.66291933 1.19233742
v -1.3787905 -0.46794342 1.6447086
v -1.19440682 -0.544407806 1.64150102
v -1.17764467 -0.551340301 1.6236007
v -1.27914882 -1.06165472 1.56079436
v -1.39700123 -1.66291933 1.62535969
v -1.05637774 -2.17261293 1.19233742
v -1.49695333 -1.06165472 1.6447086
v -1.29735955 -1.06165472 1.64150102
v -1.27914882 -1.06165472 1.6236007
v -1.17764467 -1.5720726 1.56079436
v -1.05637774 -2.17261293 1.62535969
v -0.546684148 -2.51323642 1.19233742
v -1.3787905 -1.65536601 1.6447086
v -1.19440682 -1.5790051 1.64150102
v -1.17764467 -1.5720726 1.6236007
v -0.88844581 -2.00468099 1.56079436
v -0.546684148 -2.51323642 1.62535969
v 0.0545804652 -2.63284782 1.19233742
v -1.04251275 -2.15874794 1.6447086
v -0.901379569 -2.01761475 1.64150102
v -0.88844581 -2.00468099 1.6236007
v -0.455837421 -2.29377638 1.56079436
v 0.0545804652 -2.63284782 1.62535969
v 0.655741608 -2.51323642 1.19233742
v 0.655741608 -2.51323642 1.62535969
v -0.539130832 -2.49502568 1.6447086
v -0.462769916 -2.31064201 1.64150102
v -0.455837421 -2.29377638 1.6236007
v 0.0545804652 -2.395384 1.56079436
v 0.0545804652 -2.61318851 1.6447086
v 0.648291763 -2.49502568 1.6447086
v 0.571827376 -2.31064201 1.64150102
v 0.0545804652 -2.41359473 1.64150102
v 0.0545804652 -2.395384 1.6236007
v 0.564894881 -2.29377638 1.56079436
v 0.564894881 -2.29377638 1.6236007
v 0.0545804652 0.936455925 1.41376339
v 0.433280944 0.886376408 1.41376339
v 0.385270829 1.00215942 1.41376339
v 0.0545804652 0.811050193 1.41376339
v -0.276213368 1.00215942 1.41376339
v 0.0545804652 0.811050193 1.66064299
v 0.433280944 0.886376408 1.66064299
v -0.324223484 0.886376408 1.41376339
v -0.556720745 1.18954373 1.41376339
v 0.0545804652 0.827294994 1.67657738
v 0.42707274 0.901379569 1.67657738
v 0.391582503 0.987156262 1.67657738
v -0.324223484 0.886376408 1.66064299
v -0.64529113 1.10097335 1.41376339
v -0.744001583 1.47005111 1.41376339
v -0.318015279 0.901379569 1.67657738
v 0.0545804652 0.920107653 1.67657738
v -0.64529113 1.10097335 1.66064299
v -0.859888068 1.42204099 1.41376339
v -0.809808552 1.80074147 1.41376339
v -0.633805952 1.11245852 1.67657738
v -0.859888068 1.42204099 1.66064299
v -0.935214284 1.80074147 1.41376339
v -0.744001583 2.13153531 1.41376339
v 0.0545804652 0.936455925 1.66064299
v 0.385270829 1.00215942 1.66064299
v 0.385270829 1.00215942 1.59431867
v 0.0545804652 0.936455925 1.59431867
v -0.276213368 1.00215942 1.66064299
v -0.276213368 1.00215942 1.59431867
v -0.282525043 0.987156262 1.67657738
v -0.556720745 1.18954373 1.66064299
v -0.556720745 1.18954373 1.59431867
v -0.568205924 1.17805855 1.67657738
v -0.744001583 1.47005111 1.66064299
v -0.744001583 1.47005111 1.59431867
v -0.844781437 1.4282492 1.67657738
v -0.759108214 1.46373943 1.67657738
v -0.809808552 1.80074147 1.66064299
v -0.809808552 1.80074147 1.59431867
v -0.918866012 1.80074147 1.67657738
v -0.826156824 1.80074147 1.67657738
v -0.744001583 2.13153531 1.66064299
v -0.744001583 2.13153531 1.59431867
v -0.935214284 1.80074147 1.66064299
v -0.844781437 2.17333722 1.67657738
v -0.759108214 2.13784698 1.67657738
v -0.556720745 2.41204268 1.66064299
v -0.556720745 2.41204268 1.59431867
v -0.859888068 2.17954542 1.66064299
v -0.633805952 2.48912789 1.67657738
v -0.568205924 2.42352786 1.67657738
v -0.276213368 2.59932352 1.66064299
v -0.276213368 2.59932352 1.59431867
v -0.859888068 2.17954542 1.41376339
v -0.556720745 2.41204268 1.41376339
v -0.64529113 2.50061307 1.66064299
v -0.64529113 2.50061307 1.41376339
v -0.276213368 2.59932352 1.41376339
v -0.318015279 2.70010337 1.67657738
v -0.282525043 2.61443015 1.67657738
v 0.0545804652 2.66513049 1.66064299
v 0.0545804652 2.66513049 1.59431867
v -0.324223484 2.71521001 1.41376339
v 0.0545804652 2.66513049 1.41376339
v -0.324223484 2.71521001 1.66064299
v 0.0545804652 2.77418795 1.67657738
v 0.0545804652 2.68147876 1.67657738
v 0.385270829 2.59932352 1.66064299
v 0.385270829 2.59932352 1.59431867
v 0.0545804652 2.79053622 1.41376339
v 0.385270829 2.59932352 1.41376339
v 0.0545804652 2.79053622 1.66064299
v 0.42707274 2.70010337 1.67657738
v 0.391582503 2.61443015 1.67657738
v 0.665778205 2.41204268 1.66064299
v 0.665778205 2.41204268 1.59431867
v 0.433280944 2.71521001 1.41376339
v 0.665778205 2.41204268 1.41376339
v 0.433280944 2.71521001 1.66064299
v 0.742863412 2.48912789 1.67657738
v 0.677263384 2.42352786 1.67657738
v 0.853162514 2.13153531 1.66064299
v 0.853162514 2.13153531 1.59431867
v 0.754348591 2.50061307 1.41376339
v 0.853162514 2.13153531 1.41376339
v 0.754348591 2.50061307 1.66064299
v 0.953942368 2.17333722 1.67657738
v 0.868165675 2.13784698 1.67657738
v 0.918866012 1.80074147 1.66064299
v 0.918866012 1.80074147 1.59431867
v 0.968945529 2.17954542 1.41376339
v 0.918866012 1.80074147 1.41376339
v 0.968945529 2.17954542 1.66064299
v 1.02802694 1.80074147 1.67657738
v 0.935214284 1.80074147 1.67657738
v 0.853162514 1.47005111 1.66064299
v 0.853162514 1.47005111 1.59431867
v 1.04427174 1.80074147 1.41376339
v 0.853162514 1.47005111 1.41376339
v 1.04427174 1.80074147 1.66064299
v 0.953942368 1.4282492 1.67657738
v 0.868165675 1.46373943 1.67657738
v 0.665778205 1.18954373 1.66064299
v 0.665778205 1.18954373 1.59431867
v 0.968945529 1.42204099 1.41376339
v 0.665778205 1.18954373 1.41376339
v 0.968945529 1.42204099 1.66064299
v 0.742863412 1.11245852 1.67657738
v 0.677263384 1.17805855 1.67657738
v 0.385270829 1.00215942 1.66064299
v 0.385270829 1.00215942 1.59431867
v 0.391582503 0.987156262 1.67657738
v 0.42707274 0.901379569 1.67657738
v 0.754348591 1.10097335 1.66064299
v 0.433280944 0.886376408 1.66064299
v 0.754348591 1.10097335 1.41376339
v 0.433280944 0.886376408 1.41376339
v 0.385270829 1.00215942 1.41376339
v -5.17350381E-05 5.17350381E-05 -1.8884841
v 1.83943928 3.20938309 -1.8884841
v 1.70689411 3.34192826 -1.8884841
v 1.52582148 3.39045572 -1.8884841
v 1.88796675 3.02831046 -1.8884841
v -1.52582148 3.39045572 -1.8884841
v 1.88796675 -3.02831046 -1.8884841
v -1.70689411 3.34192826 -1.8884841
v 1.83943928 -3.20938309 -1.8884841
v -1.83943928 3.20938309 -1.8884841
v 1.70689411 -3.34192826 -1.8884841
v -1.88796675 3.02831046 -1.8884841
v 1.52582148 -3.39045572 -1.8884841
v -1.88796675 -3.02831046 -1.8884841
v -1.52582148 -3.39045572 -1.8884841
v -1.83943928 -3.20938309 -1.8884841
v -1.70689411 -3.34192826 -1.8884841
v -1.88796675 -3.02831046 1.34971541
v -1.88796675 3.02831046 1.34971541
v -1.86654844 3.00689215 1.42980125
v -1.83943928 3.20938309 1.34971541
v -1.81802097 3.18796478 1.42980125
v -1.70689411 3.34192826 1.34971541
v -1.68547581 3.32050995 1.42980125
v -1.52582148 3.39045572 1.34971541
v -1.86654844 -3.00689215 1.42980125
v -1.80788091 2.94832809 1.48836531
v -1.75945691 3.12929725 1.48836531
v -1.81802097 -3.18796478 1.42980125
v -1.83943928 -3.20938309 1.34971541
v -1.68547581 -3.32050995 1.42980125
v -1.70689411 -3.34192826 1.34971541
v -1.50440317 -3.36903742 1.42980125
v -1.52582148 -3.39045572 1.34971541
v 1.52582148 -3.39045572 1.34971541
v -1.50440317 3.36903742 1.42980125
v -1.62691174 3.26184242 1.48836531
v 1.50440317 3.36903742 1.42980125
v 1.52582148 3.39045572 1.34971541
v 1.70689411 3.34192826 1.34971541
v 1.68547581 3.32050995 1.42980125
v 1.83943928 3.20938309 1.34971541
v 1.44583911 3.31036988 1.48836531
v 1.81802097 3.18796478 1.42980125
v 1.88796675 3.02831046 1.34971541
v -1.44583911 3.31036988 1.48836531
v 1.62691174 3.26184242 1.48836531
v 1.36575327 3.23038751 1.50988709
v -1.67937107 3.04931488 1.50988709
v -1.5468259 3.18186005 1.50988709
v -1.36575327 3.23038751 1.50988709
v 5.17350381E-05 0.537992661 1.50988709
v -1.72789854 2.86824225 1.50988709
v -0.0881047699 0.364369873 1.50988709
v -1.80788091 -2.94832809 1.48836531
v -0.187642983 0.168087139 1.50988709
v -1.75945691 -3.12929725 1.48836531
v -1.62691174 -3.26184242 1.48836531
v -1.44583911 -3.31036988 1.48836531
v 1.50440317 -3.36903742 1.42980125
v 1.68547581 -3.32050995 1.42980125
v 1.70689411 -3.34192826 1.34971541
v 1.81802097 -3.18796478 1.42980125
v 1.83943928 -3.20938309 1.34971541
v 1.86654844 -3.00689215 1.42980125
v 1.88796675 -3.02831046 1.34971541
v 1.86654844 3.00689215 1.42980125
v 1.80788091 -2.94832809 1.48836531
v 1.75945691 -3.12929725 1.48836531
v 1.62691174 -3.26184242 1.48836531
v 1.44583911 -3.31036988 1.48836531
v 1.75945691 3.12929725 1.48836531
v 1.80788091 2.94832809 1.48836531
v 1.72789854 -2.86824225 1.50988709
v 1.67937107 -3.04931488 1.50988709
v 1.5468259 3.18186005 1.50988709
v 1.67937107 3.04931488 1.50988709
v 1.72789854 2.86824225 1.50988709
v 0.272902326 5.17350381E-05 1.50988709
v 1.5468259 -3.18186005 1.50988709
v 0.0881047699 0.364369873 1.50988709
v 0.187642983 0.168087139 1.50988709
v 0.187642983 -0.168087139 1.50988709
v -5.17350381E-05 0.194265068 1.50988709
v 0.100624649 -5.17350381E-05 1.50988709
v 0.0881047699 -0.364369873 1.50988709
v 1.36575327 -3.23038751 1.50988709
v -0.100624649 5.17350381E-05 1.50988709
v -5.17350381E-05 -0.194265068 1.50988709
v -1.36575327 -3.23038751 1.50988709
v -5.17350381E-05 -0.537992661 1.50988709
v -0.0881047699 -0.364369873 1.50988709
v -1.5468259 -3.18186005 1.50988709
v -0.187642983 -0.168087139 1.50988709
v -1.67937107 -3.04931488 1.50988709
v -1.72789854 -2.86824225 1.50988709
v -0.272902326 5.17350381E-05 1.50988709
v 0.853162514 1.47005111 1.59431867
v 0.0545804652 1.80074147 1.44201072
v 0.918866012 1.80074147 1.59431867
v 0.665778205 1.18954373 1.59431867
v 0.853162514 2.13153531 1.59431867
v 0.385270829 1.00215942 1.59431867
v 0.665778205 2.41204268 1.59431867
v 0.0545804652 0.936455925 1.59431867
v 0.385270829 2.59932352 1.59431867
v -0.276213368 1.00215942 1.59431867
v 0.0545804652 2.66513049 1.59431867
v -0.556720745 1.18954373 1.59431867
v -0.276213368 2.59932352 1.59431867
v -0.744001583 1.47005111 1.59431867
v -0.556720745 2.41204268 1.59431867
v -0.809808552 1.80074147 1.59431867
v -0.744001583 2.13153531 1.59431867
v 1.28670213 -1.5720726 1.56079436
v 0.0545804652 -1.06165472 1.50005743
v 1.38820628 -1.06165472 1.56079436
v 0.99760674 -2.00468099 1.56079436
v 1.28670213 -0.551340301 1.56079436
v 0.564894881 -2.29377638 1.56079436
v 0.99760674 -0.118628442 1.56079436
v 0.0545804652 -2.395384 1.56079436
v 0.564894881 0.170466951 1.56079436
v -0.455837421 -2.29377638 1.56079436
v 0.0545804652 0.271971095 1.56079436
v -0.88844581 -2.00468099 1.56079436
v -0.455837421 0.170466951 1.56079436
v -1.17764467 -1.5720726 1.56079436
v -0.88844581 -0.118628442 1.56079436
v -1.27914882 -1.06165472 1.56079436
v -1.17764467 -0.551340301 1.56079436
v 0.45407843 1.54113505 1.48991736
v 0.500122613 1.77176985 1.54661896
v 0.515850065 1.77176985 1.48991736
v 0.440420379 1.54899878 1.54661896
v 0.285215265 1.37227189 1.48991736
v 0.440420379 1.99454092 1.54661896
v 0.45407843 2.00240465 1.48991736
v 0.277351539 1.38582647 1.54661896
v 0.0545804652 1.31039678 1.48991736
v 0.277351539 2.15771323 1.54661896
v 0.285215265 2.17126781 1.48991736
v 0.0545804652 1.32612423 1.54661896
v -0.176157805 1.37227189 1.48991736
v 0.0545804652 2.21741547 1.54661896
v 0.0545804652 2.23314292 1.48991736
v -0.168294079 1.38582647 1.54661896
v -0.345020969 1.54113505 1.48991736
v -0.168294079 2.15771323 1.54661896
v -0.176157805 2.17126781 1.48991736
v -0.331362919 1.54899878 1.54661896
v -0.406792605 1.77176985 1.48991736
v -0.331362919 1.99454092 1.54661896
v -0.345020969 2.00240465 1.48991736
v -0.391065153 1.77176985 1.54661896
v 0.217649305 2.05424316 1.64491554
v 0.0545804652 2.098011 1.64491554
v -0.108591845 2.05424316 1.64491554
v -0.227996313 1.93483869 1.64491554
v -0.271660685 1.77176985 1.64491554
v -0.227996313 1.60870101 1.64491554
v 0.337053773 1.93483869 1.64491554
v -0.108591845 1.48929654 1.64491554
v 0.380718145 1.77176985 1.64491554
v 0.0545804652 1.4455287 1.64491554
v 0.337053773 1.60870101 1.64491554
v 0.217649305 1.48929654 1.64491554
v -0.0648240028 1.77176985 1.70161714
v -0.048889611 1.71206762 1.70161714
v -0.00512176877 1.66840324 1.70161714
v 0.0545804652 1.65236538 1.70161714
v 0.0545804652 1.77176985 1.70917045
v -0.048889611 1.83147208 1.70161714
v 0.114282699 1.66840324 1.70161714
v 0.157947071 1.71206762 1.70161714
v -0.00512176877 1.87513646 1.70161714
v 0.173984933 1.77176985 1.70161714
v 0.0545804652 1.89117432 1.70161714
v 0.157947071 1.83147208 1.70161714
v 0.114282699 1.87513646 1.70161714
v 0.737689908 -1.43683721 1.51371548
v 0.816534107 -1.04240928 1.61066694
v 0.843436326 -1.04240928 1.51371548
v 0.714409141 -1.4233861 1.61066694
v 0.449008396 -1.72551873 1.51371548
v 0.714409141 -0.661432462 1.61066694
v 0.737689908 -0.647981352 1.51371548
v 0.435557286 -1.70223796 1.61066694
v 0.0545804652 -1.83126514 1.51371548
v 0.435557286 -0.382477137 1.61066694
v 0.449008396 -0.35919637 1.51371548
v 0.0545804652 -1.80436292 1.61066694
v -0.339847465 -1.72551873 1.51371548
v 0.0545804652 -0.280352172 1.61066694
v 0.0545804652 -0.253553422 1.51371548
v -0.326499826 -1.70223796 1.61066694
v -0.628632448 -1.43683721 1.51371548
v -0.326499826 -0.382477137 1.61066694
v -0.339847465 -0.35919637 1.51371548
v -0.605351681 -1.4233861 1.61066694
v -0.734378866 -1.04240928 1.51371548
v -0.605351681 -0.661432462 1.61066694
v -0.628632448 -0.647981352 1.51371548
v -0.707476646 -1.04240928 1.61066694
v 0.333432321 -0.559307497 1.77870235
v 0.0545804652 -0.484602102 1.77870235
v -0.22437486 -0.559307497 1.77870235
v -0.428521321 -0.763453957 1.77870235
v -0.503226716 -1.04240928 1.77870235
v -0.428521321 -1.32126114 1.77870235
v 0.537578781 -0.763453957 1.77870235
v -0.22437486 -1.5254076 1.77870235
v 0.612387646 -1.04240928 1.77870235
v 0.0545804652 -1.60021646 1.77870235
v 0.537578781 -1.32126114 1.77870235
v 0.333432321 -1.5254076 1.77870235
v -0.149669465 -1.04240928 1.87575728
v -0.122249895 -1.14443078 1.87575728
v -0.0475445 -1.21923964 1.87575728
v 0.0545804652 -1.24655574 1.87575728
v 0.0545804652 -1.04240928 1.8884841
v -0.122249895 -0.940284318 1.87575728
v 0.15660196 -1.21923964 1.87575728
v 0.231307355 -1.14443078 1.87575728
v -0.0475445 -0.865578923 1.87575728
v 0.258726926 -1.04240928 1.87575728
v 0.0545804652 -0.838159352 1.87575728
v 0.231307355 -0.940284318 1.87575728
v 0.15660196 -0.865578923 1.87575728
vt 0.200433841 0.744075098
vt 0.0626092966 0.874242723
vt 0.200433841 0.874242723
vt 0.0626092966 0.744075098
vt 0.200433841 0.736418179
vt 0.0626092966 0.736418179
vt 0.200433841 0.72876126
vt 0.0626092966 0.72876126
vt 0.200433841 0.720253572
vt 0.0626092966 0.720253572
vt 0.0626092966 0.463321397
vt 0.200433841 0.463321397
vt 0.200433841 0.454813709
vt 0.0626092966 0.454813709
vt 0.200433841 0.44715679
vt 0.0626092966 0.44715679
vt 0.200433841 0.439499871
vt 0.0626092966 0.439499871
vt 0.200433841 0.309332246
vt 0.0626092966 0.309332246
vt 0.200433841 0.301675327
vt 0.0626092966 0.301675327
vt 0.200433841 0.293167639
vt 0.0626092966 0.293167639
vt 0.200433841 0.28551072
vt 0.0626092966 0.28551072
vt 0.0626092966 0.0277277761
vt 0.200433841 0.0277277761
vt 0.200433841 0.020070857
vt 0.0626092966 0.020070857
vt 0.200433841 0.0115631691
vt 0.0626092966 0.0115631691
vt 0.200433841 0.00390625
vt 0.0626092966 0.00390625
vt 0.435246027 0.450559865
vt 0.429290645 0.476082929
vt 0.435246027 0.476082929
vt 0.429290645 0.450559865
vt 0.435246027 0.42588757
vt 0.429290645 0.42588757
vt 0.435246027 0.401215275
vt 0.429290645 0.401215275
vt 0.435246027 0.375692212
vt 0.429290645 0.375692212
vt 0.435246027 0.351019917
vt 0.429290645 0.351019917
vt 0.435246027 0.326347622
vt 0.429290645 0.326347622
vt 0.435246027 0.300824558
vt 0.429290645 0.300824558
vt 0.435246027 0.276152263
vt 0.429290645 0.276152263
vt 0.435246027 0.251479968
vt 0.429290645 0.251479968
vt 0.435246027 0.225956904
vt 0.429290645 0.225956904
vt 0.435246027 0.201284609
vt 0.429290645 0.201284609
vt 0.435246027 0.176612315
vt 0.429290645 0.176612315
vt 0.435246027 0.151089251
vt 0.429290645 0.151089251
vt 0.356975298 0.677715132
vt 0.36293068 0.677715132
vt 0.36293068 0.653042837
vt 0.356975298 0.653042837
vt 0.36293068 0.628370542
vt 0.356975298 0.628370542
vt 0.36293068 0.603698248
vt 0.356975298 0.603698248
vt 0.41908142 0.372289136
vt 0.416529114 0.396961431
vt 0.41908142 0.396961431
vt 0.416529114 0.372289136
vt 0.41908142 0.34846761
vt 0.414827576 0.372289136
vt 0.414827576 0.396961431
vt 0.406319888 0.396961431
vt 0.416529114 0.34846761
vt 0.41908142 0.323795315
vt 0.414827576 0.34846761
vt 0.406319888 0.372289136
vt 0.416529114 0.323795315
vt 0.41908142 0.29912302
vt 0.414827576 0.323795315
vt 0.416529114 0.29912302
vt 0.41908142 0.274450725
vt 0.405469119 0.372289136
vt 0.405469119 0.396961431
vt 0.406319888 0.34846761
vt 0.414827576 0.29912302
vt 0.416529114 0.274450725
vt 0.41908142 0.249778431
vt 0.386752206 0.372289136
vt 0.386752206 0.396961431
vt 0.386752206 0.34846761
vt 0.405469119 0.34846761
vt 0.386752206 0.323795315
vt 0.405469119 0.323795315
vt 0.386752206 0.29912302
vt 0.406319888 0.323795315
vt 0.405469119 0.29912302
vt 0.386752206 0.274450725
vt 0.406319888 0.29912302
vt 0.405469119 0.274450725
vt 0.386752206 0.249778431
vt 0.414827576 0.274450725
vt 0.405469119 0.249778431
vt 0.386752206 0.225106136
vt 0.406319888 0.274450725
vt 0.414827576 0.249778431
vt 0.405469119 0.225106136
vt 0.386752206 0.200433841
vt 0.406319888 0.249778431
vt 0.416529114 0.249778431
vt 0.41908142 0.225106136
vt 0.405469119 0.200433841
vt 0.386752206 0.175761546
vt 0.406319888 0.225106136
vt 0.414827576 0.225106136
vt 0.416529114 0.225106136
vt 0.41908142 0.200433841
vt 0.405469119 0.175761546
vt 0.386752206 0.151089251
vt 0.406319888 0.200433841
vt 0.414827576 0.200433841
vt 0.416529114 0.200433841
vt 0.41908142 0.175761546
vt 0.405469119 0.151089251
vt 0.386752206 0.126416956
vt 0.406319888 0.175761546
vt 0.414827576 0.175761546
vt 0.416529114 0.175761546
vt 0.41908142 0.151089251
vt 0.405469119 0.126416956
vt 0.386752206 0.10259543
vt 0.406319888 0.151089251
vt 0.414827576 0.151089251
vt 0.416529114 0.151089251
vt 0.41908142 0.126416956
vt 0.405469119 0.10259543
vt 0.386752206 0.0779231348
vt 0.406319888 0.126416956
vt 0.414827576 0.126416956
vt 0.416529114 0.126416956
vt 0.41908142 0.10259543
vt 0.405469119 0.0779231348
vt 0.386752206 0.0532508399
vt 0.406319888 0.10259543
vt 0.414827576 0.10259543
vt 0.416529114 0.10259543
vt 0.41908142 0.0779231348
vt 0.405469119 0.0532508399
vt 0.386752206 0.0285785449
vt 0.406319888 0.0779231348
vt 0.414827576 0.0779231348
vt 0.416529114 0.0779231348
vt 0.41908142 0.0532508399
vt 0.405469119 0.0285785449
vt 0.386752206 0.00390625
vt 0.405469119 0.00390625
vt 0.406319888 0.0532508399
vt 0.414827576 0.0532508399
vt 0.416529114 0.0532508399
vt 0.41908142 0.0285785449
vt 0.406319888 0.0285785449
vt 0.406319888 0.00390625
vt 0.414827576 0.00390625
vt 0.414827576 0.0285785449
vt 0.416529114 0.0285785449
vt 0.41908142 0.00390625
vt 0.416529114 0.00390625
vt 0.377393749 0.445455252
vt 0.382498362 0.429290645
vt 0.377393749 0.429290645
vt 0.382498362 0.445455252
vt 0.377393749 0.460769091
vt 0.393558356 0.445455252
vt 0.393558356 0.429290645
vt 0.382498362 0.460769091
vt 0.377393749 0.476082929
vt 0.394409125 0.445455252
vt 0.394409125 0.429290645
vt 0.3978122 0.429290645
vt 0.393558356 0.460769091
vt 0.382498362 0.476082929
vt 0.377393749 0.491396767
vt 0.394409125 0.460769091
vt 0.3978122 0.445455252
vt 0.393558356 0.476082929
vt 0.382498362 0.491396767
vt 0.377393749 0.507561374
vt 0.394409125 0.476082929
vt 0.393558356 0.491396767
vt 0.382498362 0.507561374
vt 0.377393749 0.522875212
vt 0.398662969 0.445455252
vt 0.398662969 0.429290645
vt 0.402066044 0.429290645
vt 0.402066044 0.445455252
vt 0.398662969 0.460769091
vt 0.402066044 0.460769091
vt 0.3978122 0.460769091
vt 0.398662969 0.476082929
vt 0.402066044 0.476082929
vt 0.3978122 0.476082929
vt 0.398662969 0.491396767
vt 0.402066044 0.491396767
vt 0.394409125 0.491396767
vt 0.3978122 0.491396767
vt 0.398662969 0.507561374
vt 0.402066044 0.507561374
vt 0.394409125 0.507561374
vt 0.3978122 0.507561374
vt 0.398662969 0.522875212
vt 0.402066044 0.522875212
vt 0.393558356 0.507561374
vt 0.394409125 0.522875212
vt 0.3978122 0.522875212
vt 0.398662969 0.538189051
vt 0.402066044 0.538189051
vt 0.393558356 0.522875212
vt 0.394409125 0.538189051
vt 0.3978122 0.538189051
vt 0.398662969 0.553502889
vt 0.402066044 0.553502889
vt 0.382498362 0.522875212
vt 0.377393749 0.538189051
vt 0.393558356 0.538189051
vt 0.382498362 0.538189051
vt 0.377393749 0.553502889
vt 0.394409125 0.553502889
vt 0.3978122 0.553502889
vt 0.398662969 0.569667496
vt 0.402066044 0.569667496
vt 0.382498362 0.553502889
vt 0.377393749 0.569667496
vt 0.393558356 0.553502889
vt 0.394409125 0.569667496
vt 0.3978122 0.569667496
vt 0.398662969 0.584981334
vt 0.402066044 0.584981334
vt 0.382498362 0.569667496
vt 0.377393749 0.584981334
vt 0.393558356 0.569667496
vt 0.394409125 0.584981334
vt 0.3978122 0.584981334
vt 0.398662969 0.600295172
vt 0.402066044 0.600295172
vt 0.382498362 0.584981334
vt 0.377393749 0.600295172
vt 0.393558356 0.584981334
vt 0.394409125 0.600295172
vt 0.3978122 0.600295172
vt 0.398662969 0.616459779
vt 0.402066044 0.616459779
vt 0.382498362 0.600295172
vt 0.377393749 0.616459779
vt 0.393558356 0.600295172
vt 0.394409125 0.616459779
vt 0.3978122 0.616459779
vt 0.398662969 0.631773618
vt 0.402066044 0.631773618
vt 0.382498362 0.616459779
vt 0.377393749 0.631773618
vt 0.393558356 0.616459779
vt 0.394409125 0.631773618
vt 0.3978122 0.631773618
vt 0.398662969 0.647087456
vt 0.402066044 0.647087456
vt 0.382498362 0.631773618
vt 0.377393749 0.647087456
vt 0.393558356 0.631773618
vt 0.394409125 0.647087456
vt 0.3978122 0.647087456
vt 0.398662969 0.662401294
vt 0.402066044 0.662401294
vt 0.382498362 0.647087456
vt 0.377393749 0.662401294
vt 0.393558356 0.647087456
vt 0.394409125 0.662401294
vt 0.3978122 0.662401294
vt 0.398662969 0.678565901
vt 0.402066044 0.678565901
vt 0.3978122 0.678565901
vt 0.394409125 0.678565901
vt 0.393558356 0.662401294
vt 0.393558356 0.678565901
vt 0.382498362 0.662401294
vt 0.382498362 0.678565901
vt 0.377393749 0.678565901
vt 0.291466101 0.451410634
vt 0.36973683 0.315287627
vt 0.363781449 0.309332246
vt 0.356124529 0.307630708
vt 0.371438368 0.322944547
vt 0.225956904 0.307630708
vt 0.371438368 0.58072749
vt 0.218299985 0.309332246
vt 0.36973683 0.588384409
vt 0.213195373 0.315287627
vt 0.363781449 0.593489022
vt 0.210643066 0.322944547
vt 0.356124529 0.596041328
vt 0.210643066 0.58072749
vt 0.225956904 0.596041328
vt 0.213195373 0.588384409
vt 0.218299985 0.593489022
vt 0.379095287 0.281256876
vt 0.379095287 0.0226231634
vt 0.375692212 0.0234739322
vt 0.375692212 0.0132647067
vt 0.373139905 0.0158170131
vt 0.368886061 0.00730932516
vt 0.367184524 0.00986163154
vt 0.360378373 0.00390625
vt 0.375692212 0.279555338
vt 0.372289136 0.0260262386
vt 0.36973683 0.0183693194
vt 0.373139905 0.288063026
vt 0.375692212 0.289764564
vt 0.367184524 0.293167639
vt 0.368886061 0.296570714
vt 0.359527605 0.296570714
vt 0.360378373 0.299973789
vt 0.22935998 0.299973789
vt 0.359527605 0.00730932516
vt 0.363781449 0.0132647067
vt 0.231061517 0.00730932516
vt 0.22935998 0.00390625
vt 0.220852292 0.00730932516
vt 0.222553829 0.00986163154
vt 0.214046141 0.0141154755
vt 0.233613824 0.0107124003
vt 0.217449216 0.0158170131
vt 0.210643066 0.0226231634
vt 0.356124529 0.0107124003
vt 0.225956904 0.0132647067
vt 0.237016899 0.0141154755
vt 0.366333755 0.0217723946
vt 0.360378373 0.0166677819
vt 0.352721454 0.0141154755
vt 0.294869176 0.128969262
vt 0.368035292 0.0294293137
vt 0.298272252 0.136626181
vt 0.372289136 0.277003032
vt 0.302526096 0.1442831
vt 0.36973683 0.284659951
vt 0.363781449 0.290615332
vt 0.356124529 0.29231687
vt 0.231061517 0.295719945
vt 0.222553829 0.293167639
vt 0.220852292 0.296570714
vt 0.217449216 0.288063026
vt 0.214046141 0.289764564
vt 0.214046141 0.279555338
vt 0.210643066 0.281256876
vt 0.214046141 0.0234739322
vt 0.218299985 0.277003032
vt 0.220001523 0.284659951
vt 0.225956904 0.290615332
vt 0.233613824 0.29231687
vt 0.220001523 0.0183693194
vt 0.218299985 0.0260262386
vt 0.22170306 0.273599957
vt 0.223404598 0.281256876
vt 0.22935998 0.0166677819
vt 0.223404598 0.0217723946
vt 0.22170306 0.0294293137
vt 0.282958413 0.15194002
vt 0.22935998 0.287212257
vt 0.291466101 0.136626181
vt 0.287212257 0.1442831
vt 0.287212257 0.15874617
vt 0.294869176 0.143432332
vt 0.290615332 0.15194002
vt 0.291466101 0.167253858
vt 0.237016899 0.288913795
vt 0.29912302 0.15194002
vt 0.294869176 0.160447708
vt 0.352721454 0.288913795
vt 0.294869176 0.174910777
vt 0.298272252 0.167253858
vt 0.360378373 0.287212257
vt 0.302526096 0.15874617
vt 0.366333755 0.281256876
vt 0.368035292 0.273599957
vt 0.30677994 0.15194002
vt 0.413126038 0.752582786
vt 0.383349131 0.732164335
vt 0.403767582 0.762792011
vt 0.41908142 0.738970485
vt 0.390155281 0.767896624
vt 0.41908142 0.725358185
vt 0.375692212 0.767896624
vt 0.413126038 0.711745884
vt 0.36293068 0.762792011
vt 0.403767582 0.701536658
vt 0.352721454 0.752582786
vt 0.390155281 0.696432046
vt 0.346766073 0.738970485
vt 0.375692212 0.696432046
vt 0.346766073 0.725358185
vt 0.36293068 0.701536658
vt 0.352721454 0.711745884
vt 0.244673818 0.710044346
vt 0.275301494 0.663252063
vt 0.228509211 0.693879739
vt 0.2642415 0.717701265
vt 0.220852292 0.674312057
vt 0.286361489 0.717701265
vt 0.220852292 0.652192069
vt 0.30677994 0.710044346
vt 0.228509211 0.631773618
vt 0.322093778 0.693879739
vt 0.244673818 0.616459779
vt 0.330601466 0.674312057
vt 0.2642415 0.607952091
vt 0.330601466 0.652192069
vt 0.286361489 0.607952091
vt 0.322093778 0.631773618
vt 0.30677994 0.616459779
vt 0.405469119 0.790016613
vt 0.408021426 0.778956618
vt 0.405469119 0.77810585
vt 0.408021426 0.789165844
vt 0.411424501 0.800225838
vt 0.413126038 0.769598162
vt 0.411424501 0.767896624
vt 0.413126038 0.798524301
vt 0.421633726 0.80618122
vt 0.422484495 0.764493549
vt 0.421633726 0.761941243
vt 0.422484495 0.803628913
vt 0.433544489 0.80618122
vt 0.432693721 0.764493549
vt 0.433544489 0.761941243
vt 0.432693721 0.803628913
vt 0.443753715 0.800225838
vt 0.441201408 0.769598162
vt 0.443753715 0.767896624
vt 0.442052177 0.798524301
vt 0.448858328 0.790016613
vt 0.44715679 0.778956618
vt 0.448858328 0.77810585
vt 0.44715679 0.789165844
vt 0.424186033 0.770448931
vt 0.430992183 0.771299699
vt 0.436947565 0.774702774
vt 0.44035064 0.780658156
vt 0.44035064 0.787464306
vt 0.436947565 0.793419688
vt 0.417379882 0.774702774
vt 0.430992183 0.797673532
vt 0.413976807 0.780658156
vt 0.424186033 0.796822763
vt 0.413976807 0.787464306
vt 0.417379882 0.793419688
vt 0.431842952 0.784912
vt 0.430992183 0.787464306
vt 0.428439877 0.789165844
vt 0.42588757 0.789165844
vt 0.427589108 0.784061231
vt 0.431842952 0.782359694
vt 0.424186033 0.787464306
vt 0.422484495 0.785762769
vt 0.430992183 0.780658156
vt 0.422484495 0.783210462
vt 0.428439877 0.778956618
vt 0.424186033 0.780658156
vt 0.42588757 0.778956618
vt 0.241270743 0.81298737
vt 0.227658442 0.799375069
vt 0.224255367 0.802778145
vt 0.24297228 0.808733526
vt 0.261689194 0.81298737
vt 0.218299985 0.784061231
vt 0.21489691 0.784912
vt 0.260838425 0.808733526
vt 0.278704569 0.802778145
vt 0.219150754 0.766195087
vt 0.21489691 0.765344318
vt 0.276152263 0.800225838
vt 0.288913795 0.785762769
vt 0.227658442 0.750881248
vt 0.225106136 0.748328942
vt 0.284659951 0.784912
vt 0.288913795 0.765344318
vt 0.24297228 0.74237356
vt 0.242121511 0.738119716
vt 0.284659951 0.767045855
vt 0.279555338 0.748328942
vt 0.260838425 0.74237356
vt 0.261689194 0.738119716
vt 0.276152263 0.750881248
vt 0.22935998 0.769598162
vt 0.235315361 0.758538167
vt 0.245524587 0.752582786
vt 0.258286118 0.752582786
vt 0.268495344 0.759388936
vt 0.274450725 0.769598162
vt 0.22935998 0.781508925
vt 0.274450725 0.781508925
vt 0.235315361 0.79171815
vt 0.268495344 0.792568919
vt 0.245524587 0.797673532
vt 0.25743535 0.798524301
vt 0.25743535 0.769598162
vt 0.259987656 0.773001237
vt 0.259987656 0.77810585
vt 0.25743535 0.781508925
vt 0.252330737 0.775553543
vt 0.254032274 0.767045855
vt 0.254032274 0.783210462
vt 0.249778431 0.783210462
vt 0.249778431 0.767045855
vt 0.246375355 0.781508925
vt 0.246375355 0.769598162
vt 0.243823049 0.777255081
vt 0.243823049 0.773001237
g item_02item_02_mobile_0
f 3/3/3 2/2/2 1/1/1
f 2/2/2 4/4/4 1/1/1
f 5/5/5 1/1/1 4/4/4
f 6/6/6 5/5/5 4/4/4
f 7/7/7 5/5/5 6/6/6
f 8/8/8 7/7/7 6/6/6
f 9/9/9 7/7/7 8/8/8
f 10/10/10 9/9/9 8/8/8
f 10/10/10 11/11/11 9/9/9
f 11/11/11 12/12/12 9/9/9
f 13/13/13 12/12/12 11/11/11
f 14/14/14 13/13/13 11/11/11
f 15/15/15 13/13/13 14/14/14
f 16/16/16 15/15/15 14/14/14
f 17/17/17 15/15/15 16/16/16
f 18/18/18 17/17/17 16/16/16
f 19/19/19 17/17/17 18/18/18
f 20/20/20 19/19/19 18/18/18
f 21/21/21 19/19/19 20/20/20
f 22/22/22 21/21/21 20/20/20
f 23/23/23 21/21/21 22/22/22
f 24/24/24 23/23/23 22/22/22
f 25/25/25 23/23/23 24/24/24
f 26/26/26 25/25/25 24/24/24
f 25/25/25 26/26/26 27/27/27
f 28/28/28 25/25/25 27/27/27
f 29/29/29 28/28/28 27/27/27
f 30/30/30 29/29/29 27/27/27
f 31/31/31 29/29/29 30/30/30
f 32/32/32 31/31/31 30/30/30
f 33/33/33 31/31/31 32/32/32
f 34/34/34 33/33/33 32/32/32
f 37/37/37 36/36/36 35/35/35
f 36/36/36 38/38/38 35/35/35
f 35/35/35 38/38/38 39/39/39
f 38/38/38 40/40/40 39/39/39
f 39/39/39 40/40/40 41/41/41
f 40/40/40 42/42/42 41/41/41
f 41/41/41 42/42/42 43/43/43
f 42/42/42 44/44/44 43/43/43
f 43/43/43 44/44/44 45/45/45
f 44/44/44 46/46/46 45/45/45
f 45/45/45 46/46/46 47/47/47
f 46/46/46 48/48/48 47/47/47
f 47/47/47 48/48/48 49/49/49
f 48/48/48 50/50/50 49/49/49
f 49/49/49 50/50/50 51/51/51
f 50/50/50 52/52/52 51/51/51
f 51/51/51 52/52/52 53/53/53
f 52/52/52 54/54/54 53/53/53
f 53/53/53 54/54/54 55/55/55
f 54/54/54 56/56/56 55/55/55
f 55/55/55 56/56/56 57/57/57
f 56/56/56 58/58/58 57/57/57
f 57/57/57 58/58/58 59/59/59
f 58/58/58 60/60/60 59/59/59
f 59/59/59 60/60/60 61/61/61
f 60/60/60 62/62/62 61/61/61
f 65/65/65 64/64/64 63/63/63
f 66/66/66 65/65/65 63/63/63
f 67/67/67 65/65/65 66/66/66
f 68/68/68 67/67/67 66/66/66
f 69/69/69 67/67/67 68/68/68
f 70/70/70 69/69/69 68/68/68
f 73/73/73 72/72/72 71/71/71
f 72/72/72 74/74/74 71/71/71
f 71/71/71 74/74/74 75/75/75
f 76/76/76 74/74/74 72/72/72
f 77/77/77 76/76/76 72/72/72
f 77/77/77 78/78/78 76/76/76
f 74/74/74 79/79/79 75/75/75
f 75/75/75 79/79/79 80/80/80
f 76/76/76 81/81/81 74/74/74
f 81/81/81 79/79/79 74/74/74
f 78/78/78 82/82/82 76/76/76
f 76/76/76 82/82/82 81/81/81
f 79/79/79 83/83/83 80/80/80
f 80/80/80 83/83/83 84/84/84
f 81/81/81 85/85/85 79/79/79
f 85/85/85 83/83/83 79/79/79
f 83/83/83 86/86/86 84/84/84
f 84/84/84 86/86/86 87/87/87
f 88/88/88 82/82/82 78/78/78
f 89/89/89 88/88/88 78/78/78
f 82/82/82 90/90/90 81/81/81
f 81/81/81 90/90/90 85/85/85
f 83/83/83 85/85/85 91/91/91
f 86/86/86 83/83/83 91/91/91
f 86/86/86 92/92/92 87/87/87
f 87/87/87 92/92/92 93/93/93
f 88/88/88 89/89/89 94/94/94
f 89/89/89 95/95/95 94/94/94
f 88/88/88 94/94/94 96/96/96
f 88/88/88 97/97/97 82/82/82
f 97/97/97 88/88/88 96/96/96
f 97/97/97 90/90/90 82/82/82
f 97/97/97 96/96/96 98/98/98
f 99/99/99 97/97/97 98/98/98
f 97/97/97 99/99/99 90/90/90
f 99/99/99 98/98/98 100/100/100
f 99/99/99 101/101/101 90/90/90
f 90/90/90 101/101/101 85/85/85
f 85/85/85 101/101/101 91/91/91
f 102/102/102 99/99/99 100/100/100
f 101/101/101 99/99/99 102/102/102
f 102/102/102 100/100/100 103/103/103
f 101/101/101 104/104/104 91/91/91
f 104/104/104 101/101/101 102/102/102
f 105/105/105 102/102/102 103/103/103
f 102/102/102 105/105/105 104/104/104
f 105/105/105 103/103/103 106/106/106
f 91/91/91 104/104/104 107/107/107
f 91/91/91 107/107/107 86/86/86
f 107/107/107 92/92/92 86/86/86
f 108/108/108 105/105/105 106/106/106
f 108/108/108 106/106/106 109/109/109
f 105/105/105 110/110/110 104/104/104
f 104/104/104 110/110/110 107/107/107
f 105/105/105 108/108/108 110/110/110
f 107/107/107 111/111/111 92/92/92
f 107/107/107 110/110/110 111/111/111
f 112/112/112 108/108/108 109/109/109
f 112/112/112 109/109/109 113/113/113
f 108/108/108 114/114/114 110/110/110
f 110/110/110 114/114/114 111/111/111
f 108/108/108 112/112/112 114/114/114
f 111/111/111 115/115/115 92/92/92
f 92/92/92 115/115/115 93/93/93
f 93/93/93 115/115/115 116/116/116
f 117/117/117 112/112/112 113/113/113
f 117/117/117 113/113/113 118/118/118
f 112/112/112 119/119/119 114/114/114
f 112/112/112 117/117/117 119/119/119
f 111/111/111 114/114/114 120/120/120
f 111/111/111 120/120/120 115/115/115
f 114/114/114 119/119/119 120/120/120
f 115/115/115 121/121/121 116/116/116
f 120/120/120 121/121/121 115/115/115
f 116/116/116 121/121/121 122/122/122
f 123/123/123 117/117/117 118/118/118
f 123/123/123 118/118/118 124/124/124
f 117/117/117 125/125/125 119/119/119
f 117/117/117 123/123/123 125/125/125
f 120/120/120 119/119/119 126/126/126
f 120/120/120 126/126/126 121/121/121
f 119/119/119 125/125/125 126/126/126
f 121/121/121 127/127/127 122/122/122
f 126/126/126 127/127/127 121/121/121
f 122/122/122 127/127/127 128/128/128
f 129/129/129 123/123/123 124/124/124
f 129/129/129 124/124/124 130/130/130
f 123/123/123 131/131/131 125/125/125
f 123/123/123 129/129/129 131/131/131
f 126/126/126 125/125/125 132/132/132
f 126/126/126 132/132/132 127/127/127
f 125/125/125 131/131/131 132/132/132
f 127/127/127 133/133/133 128/128/128
f 132/132/132 133/133/133 127/127/127
f 128/128/128 133/133/133 134/134/134
f 135/135/135 129/129/129 130/130/130
f 135/135/135 130/130/130 136/136/136
f 129/129/129 137/137/137 131/131/131
f 129/129/129 135/135/135 137/137/137
f 132/132/132 131/131/131 138/138/138
f 132/132/132 138/138/138 133/133/133
f 131/131/131 137/137/137 138/138/138
f 133/133/133 139/139/139 134/134/134
f 138/138/138 139/139/139 133/133/133
f 134/134/134 139/139/139 140/140/140
f 141/141/141 135/135/135 136/136/136
f 141/141/141 136/136/136 142/142/142
f 135/135/135 143/143/143 137/137/137
f 135/135/135 141/141/141 143/143/143
f 138/138/138 137/137/137 144/144/144
f 138/138/138 144/144/144 139/139/139
f 137/137/137 143/143/143 144/144/144
f 139/139/139 145/145/145 140/140/140
f 144/144/144 145/145/145 139/139/139
f 140/140/140 145/145/145 146/146/146
f 147/147/147 141/141/141 142/142/142
f 147/147/147 142/142/142 148/148/148
f 141/141/141 149/149/149 143/143/143
f 141/141/141 147/147/147 149/149/149
f 144/144/144 143/143/143 150/150/150
f 144/144/144 150/150/150 145/145/145
f 143/143/143 149/149/149 150/150/150
f 145/145/145 151/151/151 146/146/146
f 150/150/150 151/151/151 145/145/145
f 146/146/146 151/151/151 152/152/152
f 153/153/153 147/147/147 148/148/148
f 153/153/153 148/148/148 154/154/154
f 147/147/147 155/155/155 149/149/149
f 147/147/147 153/153/153 155/155/155
f 150/150/150 149/149/149 156/156/156
f 150/150/150 156/156/156 151/151/151
f 149/149/149 155/155/155 156/156/156
f 151/151/151 157/157/157 152/152/152
f 156/156/156 157/157/157 151/151/151
f 152/152/152 157/157/157 158/158/158
f 159/159/159 153/153/153 154/154/154
f 159/159/159 154/154/154 160/160/160
f 161/161/161 159/159/159 160/160/160
f 153/153/153 162/162/162 155/155/155
f 153/153/153 159/159/159 162/162/162
f 156/156/156 155/155/155 163/163/163
f 156/156/156 163/163/163 157/157/157
f 155/155/155 162/162/162 163/163/163
f 157/157/157 164/164/164 158/158/158
f 163/163/163 164/164/164 157/157/157
f 158/158/158 164/164/164 165/165/165
f 159/159/159 161/161/161 166/166/166
f 159/159/159 166/166/166 162/162/162
f 161/161/161 167/167/167 166/166/166
f 166/166/166 167/167/167 168/168/168
f 163/163/163 162/162/162 169/169/169
f 162/162/162 166/166/166 169/169/169
f 163/163/163 169/169/169 164/164/164
f 169/169/169 166/166/166 168/168/168
f 164/164/164 170/170/170 165/165/165
f 169/169/169 170/170/170 164/164/164
f 169/169/169 168/168/168 170/170/170
f 165/165/165 170/170/170 171/171/171
f 168/168/168 172/172/172 170/170/170
f 170/170/170 172/172/172 171/171/171
f 175/175/175 174/174/174 173/173/173
f 174/174/174 176/176/176 173/173/173
f 173/173/173 176/176/176 177/177/177
f 178/178/178 176/176/176 174/174/174
f 179/179/179 178/178/178 174/174/174
f 176/176/176 180/180/180 177/177/177
f 177/177/177 180/180/180 181/181/181
f 178/178/178 179/179/179 182/182/182
f 179/179/179 183/183/183 182/182/182
f 182/182/182 183/183/183 184/184/184
f 178/178/178 185/185/185 176/176/176
f 185/185/185 180/180/180 176/176/176
f 180/180/180 186/186/186 181/181/181
f 181/181/181 186/186/186 187/187/187
f 178/178/178 182/182/182 188/188/188
f 185/185/185 178/178/178 188/188/188
f 189/189/189 182/182/182 184/184/184
f 188/188/188 182/182/182 189/189/189
f 185/185/185 190/190/190 180/180/180
f 190/190/190 186/186/186 180/180/180
f 186/186/186 191/191/191 187/187/187
f 187/187/187 191/191/191 192/192/192
f 185/185/185 188/188/188 193/193/193
f 190/190/190 185/185/185 193/193/193
f 190/190/190 194/194/194 186/186/186
f 194/194/194 191/191/191 186/186/186
f 191/191/191 195/195/195 192/192/192
f 192/192/192 195/195/195 196/196/196
f 189/189/189 184/184/184 197/197/197
f 184/184/184 198/198/198 197/197/197
f 197/197/197 198/198/198 199/199/199
f 200/200/200 197/197/197 199/199/199
f 201/201/201 197/197/197 200/200/200
f 189/189/189 197/197/197 201/201/201
f 202/202/202 201/201/201 200/200/200
f 203/203/203 189/189/189 201/201/201
f 203/203/203 188/188/188 189/189/189
f 193/193/193 188/188/188 203/203/203
f 204/204/204 201/201/201 202/202/202
f 203/203/203 201/201/201 204/204/204
f 205/205/205 204/204/204 202/202/202
f 206/206/206 193/193/193 203/203/203
f 206/206/206 203/203/203 204/204/204
f 207/207/207 204/204/204 205/205/205
f 206/206/206 204/204/204 207/207/207
f 208/208/208 207/207/207 205/205/205
f 209/209/209 193/193/193 206/206/206
f 190/190/190 193/193/193 209/209/209
f 194/194/194 190/190/190 209/209/209
f 210/210/210 206/206/206 207/207/207
f 210/210/210 209/209/209 206/206/206
f 211/211/211 207/207/207 208/208/208
f 210/210/210 207/207/207 211/211/211
f 212/212/212 211/211/211 208/208/208
f 194/194/194 209/209/209 213/213/213
f 213/213/213 209/209/209 210/210/210
f 214/214/214 210/210/210 211/211/211
f 214/214/214 213/213/213 210/210/210
f 215/215/215 211/211/211 212/212/212
f 214/214/214 211/211/211 215/215/215
f 216/216/216 215/215/215 212/212/212
f 217/217/217 194/194/194 213/213/213
f 194/194/194 217/217/217 191/191/191
f 217/217/217 195/195/195 191/191/191
f 218/218/218 213/213/213 214/214/214
f 217/217/217 213/213/213 218/218/218
f 219/219/219 214/214/214 215/215/215
f 219/219/219 218/218/218 214/214/214
f 220/220/220 215/215/215 216/216/216
f 219/219/219 215/215/215 220/220/220
f 221/221/221 220/220/220 216/216/216
f 217/217/217 222/222/222 195/195/195
f 222/222/222 217/217/217 218/218/218
f 223/223/223 218/218/218 219/219/219
f 222/222/222 218/218/218 223/223/223
f 224/224/224 219/219/219 220/220/220
f 224/224/224 223/223/223 219/219/219
f 225/225/225 220/220/220 221/221/221
f 224/224/224 220/220/220 225/225/225
f 226/226/226 225/225/225 221/221/221
f 222/222/222 227/227/227 195/195/195
f 195/195/195 227/227/227 196/196/196
f 196/196/196 227/227/227 228/228/228
f 229/229/229 222/222/222 223/223/223
f 222/222/222 229/229/229 227/227/227
f 227/227/227 230/230/230 228/228/228
f 229/229/229 230/230/230 227/227/227
f 228/228/228 230/230/230 231/231/231
f 232/232/232 223/223/223 224/224/224
f 229/229/229 223/223/223 232/232/232
f 233/233/233 224/224/224 225/225/225
f 233/233/233 232/232/232 224/224/224
f 234/234/234 225/225/225 226/226/226
f 233/233/233 225/225/225 234/234/234
f 235/235/235 234/234/234 226/226/226
f 230/230/230 236/236/236 231/231/231
f 231/231/231 236/236/236 237/237/237
f 229/229/229 238/238/238 230/230/230
f 238/238/238 229/229/229 232/232/232
f 238/238/238 236/236/236 230/230/230
f 239/239/239 232/232/232 233/233/233
f 238/238/238 232/232/232 239/239/239
f 240/240/240 233/233/233 234/234/234
f 240/240/240 239/239/239 233/233/233
f 241/241/241 234/234/234 235/235/235
f 240/240/240 234/234/234 241/241/241
f 242/242/242 241/241/241 235/235/235
f 236/236/236 243/243/243 237/237/237
f 237/237/237 243/243/243 244/244/244
f 238/238/238 245/245/245 236/236/236
f 245/245/245 238/238/238 239/239/239
f 245/245/245 243/243/243 236/236/236
f 246/246/246 239/239/239 240/240/240
f 245/245/245 239/239/239 246/246/246
f 247/247/247 240/240/240 241/241/241
f 247/247/247 246/246/246 240/240/240
f 248/248/248 241/241/241 242/242/242
f 247/247/247 241/241/241 248/248/248
f 249/249/249 248/248/248 242/242/242
f 243/243/243 250/250/250 244/244/244
f 244/244/244 250/250/250 251/251/251
f 245/245/245 252/252/252 243/243/243
f 252/252/252 245/245/245 246/246/246
f 252/252/252 250/250/250 243/243/243
f 253/253/253 246/246/246 247/247/247
f 252/252/252 246/246/246 253/253/253
f 254/254/254 247/247/247 248/248/248
f 254/254/254 253/253/253 247/247/247
f 255/255/255 248/248/248 249/249/249
f 254/254/254 248/248/248 255/255/255
f 256/256/256 255/255/255 249/249/249
f 250/250/250 257/257/257 251/251/251
f 251/251/251 257/257/257 258/258/258
f 252/252/252 259/259/259 250/250/250
f 259/259/259 252/252/252 253/253/253
f 259/259/259 257/257/257 250/250/250
f 260/260/260 253/253/253 254/254/254
f 259/259/259 253/253/253 260/260/260
f 261/261/261 254/254/254 255/255/255
f 261/261/261 260/260/260 254/254/254
f 262/262/262 255/255/255 256/256/256
f 255/255/255 262/262/262 261/261/261
f 263/263/263 262/262/262 256/256/256
f 257/257/257 264/264/264 258/258/258
f 258/258/258 264/264/264 265/265/265
f 259/259/259 266/266/266 257/257/257
f 266/266/266 259/259/259 260/260/260
f 266/266/266 264/264/264 257/257/257
f 267/267/267 260/260/260 261/261/261
f 260/260/260 267/267/267 266/266/266
f 262/262/262 268/268/268 261/261/261
f 268/268/268 267/267/267 261/261/261
f 269/269/269 262/262/262 263/263/263
f 268/268/268 262/262/262 269/269/269
f 270/270/270 269/269/269 263/263/263
f 264/264/264 271/271/271 265/265/265
f 265/265/265 271/271/271 272/272/272
f 266/266/266 273/273/273 264/264/264
f 267/267/267 273/273/273 266/266/266
f 273/273/273 271/271/271 264/264/264
f 274/274/274 267/267/267 268/268/268
f 273/273/273 267/267/267 274/274/274
f 275/275/275 268/268/268 269/269/269
f 275/275/275 274/274/274 268/268/268
f 276/276/276 269/269/269 270/270/270
f 275/275/275 269/269/269 276/276/276
f 277/277/277 276/276/276 270/270/270
f 271/271/271 278/278/278 272/272/272
f 272/272/272 278/278/278 279/279/279
f 273/273/273 280/280/280 271/271/271
f 280/280/280 273/273/273 274/274/274
f 280/280/280 278/278/278 271/271/271
f 281/281/281 274/274/274 275/275/275
f 280/280/280 274/274/274 281/281/281
f 282/282/282 275/275/275 276/276/276
f 282/282/282 281/281/281 275/275/275
f 283/283/283 276/276/276 277/277/277
f 282/282/282 276/276/276 283/283/283
f 284/284/284 283/283/283 277/277/277
f 285/285/285 282/282/282 283/283/283
f 285/285/285 286/286/286 282/282/282
f 286/286/286 281/281/281 282/282/282
f 287/287/287 280/280/280 281/281/281
f 287/287/287 281/281/281 286/286/286
f 280/280/280 287/287/287 278/278/278
f 288/288/288 287/287/287 286/286/286
f 287/287/287 289/289/289 278/278/278
f 287/287/287 288/288/288 289/289/289
f 278/278/278 289/289/289 279/279/279
f 288/288/288 290/290/290 289/289/289
f 279/279/279 289/289/289 291/291/291
f 289/289/289 290/290/290 291/291/291
f 294/294/294 293/293/293 292/292/292
f 295/295/295 294/294/294 292/292/292
f 293/293/293 296/296/296 292/292/292
f 295/295/295 292/292/292 297/297/297
f 296/296/296 298/298/298 292/292/292
f 292/292/292 299/299/299 297/297/297
f 298/298/298 300/300/300 292/292/292
f 292/292/292 301/301/301 299/299/299
f 300/300/300 302/302/302 292/292/292
f 292/292/292 303/303/303 301/301/301
f 302/302/302 304/304/304 292/292/292
f 292/292/292 305/305/305 303/303/303
f 292/292/292 304/304/304 306/306/306
f 292/292/292 307/307/307 305/305/305
f 292/292/292 306/306/306 308/308/308
f 292/292/292 308/308/308 307/307/307
f 311/311/311 310/310/310 309/309/309
f 312/312/312 310/310/310 311/311/311
f 313/313/313 312/312/312 311/311/311
f 314/314/314 312/312/312 313/313/313
f 315/315/315 314/314/314 313/313/313
f 316/316/316 314/314/314 315/315/315
f 317/317/317 311/311/311 309/309/309
f 311/311/311 318/318/318 313/313/313
f 318/318/318 311/311/311 317/317/317
f 313/313/313 319/319/319 315/315/315
f 318/318/318 319/319/319 313/313/313
f 317/317/317 309/309/309 320/320/320
f 309/309/309 321/321/321 320/320/320
f 320/320/320 321/321/321 322/322/322
f 321/321/321 323/323/323 322/322/322
f 322/322/322 323/323/323 324/324/324
f 323/323/323 325/325/325 324/324/324
f 325/325/325 326/326/326 324/324/324
f 327/327/327 316/316/316 315/315/315
f 319/319/319 328/328/328 315/315/315
f 315/315/315 328/328/328 327/327/327
f 327/327/327 329/329/329 316/316/316
f 329/329/329 330/330/330 316/316/316
f 331/331/331 330/330/330 329/329/329
f 332/332/332 331/331/331 329/329/329
f 333/333/333 331/331/331 332/332/332
f 334/334/334 329/329/329 327/327/327
f 332/332/332 329/329/329 334/334/334
f 335/335/335 333/333/333 332/332/332
f 336/336/336 333/333/333 335/335/335
f 328/328/328 337/337/337 327/327/327
f 337/337/337 334/334/334 327/327/327
f 338/338/338 332/332/332 334/334/334
f 335/335/335 332/332/332 338/338/338
f 339/339/339 334/334/334 337/337/337
f 338/338/338 334/334/334 339/339/339
f 319/319/319 340/340/340 328/328/328
f 328/328/328 341/341/341 337/337/337
f 340/340/340 341/341/341 328/328/328
f 342/342/342 339/339/339 337/337/337
f 341/341/341 342/342/342 337/337/337
f 343/343/343 342/342/342 341/341/341
f 343/343/343 339/339/339 342/342/342
f 344/344/344 340/340/340 319/319/319
f 318/318/318 344/344/344 319/319/319
f 345/345/345 341/341/341 340/340/340
f 345/345/345 343/343/343 341/341/341
f 344/344/344 318/318/318 346/346/346
f 346/346/346 318/318/318 317/317/317
f 347/347/347 345/345/345 340/340/340
f 347/347/347 340/340/340 344/344/344
f 348/348/348 346/346/346 317/317/317
f 320/320/320 348/348/348 317/317/317
f 349/349/349 348/348/348 320/320/320
f 322/322/322 349/349/349 320/320/320
f 350/350/350 349/349/349 322/322/322
f 324/324/324 350/350/350 322/322/322
f 324/324/324 351/351/351 350/350/350
f 326/326/326 351/351/351 324/324/324
f 351/351/351 326/326/326 352/352/352
f 326/326/326 353/353/353 352/352/352
f 352/352/352 353/353/353 354/354/354
f 353/353/353 355/355/355 354/354/354
f 354/354/354 355/355/355 356/356/356
f 355/355/355 357/357/357 356/356/356
f 357/357/357 336/336/336 356/356/356
f 336/336/336 358/358/358 356/356/356
f 358/358/358 336/336/336 335/335/335
f 354/354/354 356/356/356 359/359/359
f 356/356/356 358/358/358 359/359/359
f 352/352/352 354/354/354 360/360/360
f 360/360/360 354/354/354 359/359/359
f 351/351/351 352/352/352 361/361/361
f 361/361/361 352/352/352 360/360/360
f 351/351/351 362/362/362 350/350/350
f 362/362/362 351/351/351 361/361/361
f 358/358/358 335/335/335 363/363/363
f 363/363/363 335/335/335 338/338/338
f 358/358/358 364/364/364 359/359/359
f 364/364/364 358/358/358 363/363/363
f 360/360/360 359/359/359 365/365/365
f 359/359/359 364/364/364 365/365/365
f 361/361/361 360/360/360 366/366/366
f 366/366/366 360/360/360 365/365/365
f 363/363/363 338/338/338 367/367/367
f 367/367/367 338/338/338 339/339/339
f 364/364/364 363/363/363 368/368/368
f 368/368/368 363/363/363 367/367/367
f 364/364/364 369/369/369 365/365/365
f 369/369/369 364/364/364 368/368/368
f 370/370/370 365/365/365 369/369/369
f 370/370/370 369/369/369 368/368/368
f 366/366/366 365/365/365 370/370/370
f 371/371/371 361/361/361 366/366/366
f 362/362/362 361/361/361 371/371/371
f 372/372/372 367/367/367 339/339/339
f 343/343/343 372/372/372 339/339/339
f 373/373/373 368/368/368 367/367/367
f 373/373/373 370/370/370 368/368/368
f 372/372/372 373/373/373 367/367/367
f 374/374/374 366/366/366 370/370/370
f 374/374/374 370/370/370 373/373/373
f 371/371/371 366/366/366 374/374/374
f 375/375/375 372/372/372 343/343/343
f 345/345/345 375/375/375 343/343/343
f 376/376/376 373/373/373 372/372/372
f 376/376/376 374/374/374 373/373/373
f 375/375/375 376/376/376 372/372/372
f 377/377/377 371/371/371 374/374/374
f 377/377/377 374/374/374 376/376/376
f 378/378/378 362/362/362 371/371/371
f 378/378/378 371/371/371 377/377/377
f 379/379/379 375/375/375 345/345/345
f 347/347/347 379/379/379 345/345/345
f 380/380/380 376/376/376 375/375/375
f 380/380/380 377/377/377 376/376/376
f 379/379/379 380/380/380 375/375/375
f 362/362/362 378/378/378 381/381/381
f 350/350/350 362/362/362 381/381/381
f 350/350/350 381/381/381 349/349/349
f 382/382/382 378/378/378 377/377/377
f 382/382/382 377/377/377 380/380/380
f 381/381/381 378/378/378 382/382/382
f 383/383/383 382/382/382 380/380/380
f 383/383/383 380/380/380 379/379/379
f 381/381/381 382/382/382 383/383/383
f 381/381/381 384/384/384 349/349/349
f 384/384/384 381/381/381 383/383/383
f 349/349/349 384/384/384 348/348/348
f 385/385/385 383/383/383 379/379/379
f 385/385/385 379/379/379 347/347/347
f 384/384/384 383/383/383 385/385/385
f 384/384/384 386/386/386 348/348/348
f 386/386/386 384/384/384 385/385/385
f 348/348/348 386/386/386 346/346/346
f 386/386/386 387/387/387 346/346/346
f 386/386/386 385/385/385 387/387/387
f 387/387/387 344/344/344 346/346/346
f 388/388/388 385/385/385 347/347/347
f 388/388/388 347/347/347 344/344/344
f 385/385/385 388/388/388 387/387/387
f 388/388/388 344/344/344 387/387/387
f 391/391/391 390/390/390 389/389/389
f 389/389/389 390/390/390 392/392/392
f 393/393/393 390/390/390 391/391/391
f 392/392/392 390/390/390 394/394/394
f 395/395/395 390/390/390 393/393/393
f 394/394/394 390/390/390 396/396/396
f 397/397/397 390/390/390 395/395/395
f 396/396/396 390/390/390 398/398/398
f 399/399/399 390/390/390 397/397/397
f 398/398/398 390/390/390 400/400/400
f 401/401/401 390/390/390 399/399/399
f 400/400/400 390/390/390 402/402/402
f 403/403/403 390/390/390 401/401/401
f 402/402/402 390/390/390 404/404/404
f 405/405/405 390/390/390 403/403/403
f 404/404/404 390/390/390 405/405/405
f 408/408/408 407/407/407 406/406/406
f 406/406/406 407/407/407 409/409/409
f 410/410/410 407/407/407 408/408/408
f 409/409/409 407/407/407 411/411/411
f 412/412/412 407/407/407 410/410/410
f 411/411/411 407/407/407 413/413/413
f 414/414/414 407/407/407 412/412/412
f 413/413/413 407/407/407 415/415/415
f 416/416/416 407/407/407 414/414/414
f 415/415/415 407/407/407 417/417/417
f 418/418/418 407/407/407 416/416/416
f 417/417/417 407/407/407 419/419/419
f 420/420/420 407/407/407 418/418/418
f 419/419/419 407/407/407 421/421/421
f 422/422/422 407/407/407 420/420/420
f 421/421/421 407/407/407 422/422/422
f 425/425/425 424/424/424 423/423/423
f 424/424/424 426/426/426 423/423/423
f 423/423/423 426/426/426 427/427/427
f 428/428/428 424/424/424 425/425/425
f 429/429/429 428/428/428 425/425/425
f 426/426/426 430/430/430 427/427/427
f 427/427/427 430/430/430 431/431/431
f 432/432/432 428/428/428 429/429/429
f 433/433/433 432/432/432 429/429/429
f 430/430/430 434/434/434 431/431/431
f 431/431/431 434/434/434 435/435/435
f 436/436/436 432/432/432 433/433/433
f 437/437/437 436/436/436 433/433/433
f 434/434/434 438/438/438 435/435/435
f 435/435/435 438/438/438 439/439/439
f 440/440/440 436/436/436 437/437/437
f 441/441/441 440/440/440 437/437/437
f 438/438/438 442/442/442 439/439/439
f 439/439/439 442/442/442 443/443/443
f 444/444/444 440/440/440 441/441/441
f 445/445/445 444/444/444 441/441/441
f 443/443/443 446/446/446 445/445/445
f 442/442/442 446/446/446 443/443/443
f 446/446/446 444/444/444 445/445/445
f 447/447/447 432/432/432 436/436/436
f 448/448/448 436/436/436 440/440/440
f 448/448/448 447/447/447 436/436/436
f 449/449/449 440/440/440 444/444/444
f 449/449/449 448/448/448 440/440/440
f 450/450/450 444/444/444 446/446/446
f 450/450/450 449/449/449 444/444/444
f 451/451/451 446/446/446 442/442/442
f 451/451/451 450/450/450 446/446/446
f 452/452/452 442/442/442 438/438/438
f 452/452/452 451/451/451 442/442/442
f 447/447/447 453/453/453 432/432/432
f 453/453/453 428/428/428 432/432/432
f 454/454/454 452/452/452 438/438/438
f 454/454/454 438/438/438 434/434/434
f 453/453/453 455/455/455 428/428/428
f 455/455/455 424/424/424 428/428/428
f 456/456/456 454/454/454 434/434/434
f 456/456/456 434/434/434 430/430/430
f 455/455/455 457/457/457 424/424/424
f 457/457/457 426/426/426 424/424/424
f 458/458/458 430/430/430 426/426/426
f 458/458/458 456/456/456 430/430/430
f 457/457/457 458/458/458 426/426/426
f 459/459/459 451/451/451 452/452/452
f 460/460/460 452/452/452 454/454/454
f 460/460/460 459/459/459 452/452/452
f 461/461/461 454/454/454 456/456/456
f 461/461/461 460/460/460 454/454/454
f 462/462/462 456/456/456 458/458/458
f 462/462/462 461/461/461 456/456/456
f 461/461/461 463/463/463 460/460/460
f 460/460/460 463/463/463 459/459/459
f 462/462/462 463/463/463 461/461/461
f 459/459/459 463/463/463 464/464/464
f 459/459/459 464/464/464 451/451/451
f 465/465/465 463/463/463 462/462/462
f 465/465/465 462/462/462 458/458/458
f 465/465/465 458/458/458 457/457/457
f 464/464/464 450/450/450 451/451/451
f 466/466/466 465/465/465 457/457/457
f 466/466/466 463/463/463 465/465/465
f 466/466/466 457/457/457 455/455/455
f 464/464/464 467/467/467 450/450/450
f 464/464/464 463/463/463 467/467/467
f 467/467/467 449/449/449 450/450/450
f 468/468/468 466/466/466 455/455/455
f 468/468/468 463/463/463 466/466/466
f 468/468/468 455/455/455 453/453/453
f 467/467/467 469/469/469 449/449/449
f 467/467/467 463/463/463 469/469/469
f 469/469/469 448/448/448 449/449/449
f 470/470/470 468/468/468 453/453/453
f 470/470/470 463/463/463 468/468/468
f 470/470/470 453/453/453 447/447/447
f 471/471/471 447/447/447 448/448/448
f 469/469/469 471/471/471 448/448/448
f 469/469/469 463/463/463 471/471/471
f 471/471/471 470/470/470 447/447/447
f 471/471/471 463/463/463 470/470/470
f 474/474/474 473/473/473 472/472/472
f 473/473/473 475/475/475 472/472/472
f 472/472/472 475/475/475 476/476/476
f 477/477/477 473/473/473 474/474/474
f 478/478/478 477/477/477 474/474/474
f 475/475/475 479/479/479 476/476/476
f 476/476/476 479/479/479 480/480/480
f 481/481/481 477/477/477 478/478/478
f 482/482/482 481/481/481 478/478/478
f 479/479/479 483/483/483 480/480/480
f 480/480/480 483/483/483 484/484/484
f 485/485/485 481/481/481 482/482/482
f 486/486/486 485/485/485 482/482/482
f 483/483/483 487/487/487 484/484/484
f 484/484/484 487/487/487 488/488/488
f 489/489/489 485/485/485 486/486/486
f 490/490/490 489/489/489 486/486/486
f 487/487/487 491/491/491 488/488/488
f 488/488/488 491/491/491 492/492/492
f 493/493/493 489/489/489 490/490/490
f 494/494/494 493/493/493 490/490/490
f 492/492/492 495/495/495 494/494/494
f 491/491/491 495/495/495 492/492/492
f 495/495/495 493/493/493 494/494/494
f 496/496/496 481/481/481 485/485/485
f 497/497/497 485/485/485 489/489/489
f 497/497/497 496/496/496 485/485/485
f 498/498/498 489/489/489 493/493/493
f 498/498/498 497/497/497 489/489/489
f 499/499/499 493/493/493 495/495/495
f 499/499/499 498/498/498 493/493/493
f 500/500/500 495/495/495 491/491/491
f 500/500/500 499/499/499 495/495/495
f 501/501/501 491/491/491 487/487/487
f 501/501/501 500/500/500 491/491/491
f 496/496/496 502/502/502 481/481/481
f 502/502/502 477/477/477 481/481/481
f 503/503/503 501/501/501 487/487/487
f 503/503/503 487/487/487 483/483/483
f 502/502/502 504/504/504 477/477/477
f 504/504/504 473/473/473 477/477/477
f 505/505/505 503/503/503 483/483/483
f 505/505/505 483/483/483 479/479/479
f 504/504/504 506/506/506 473/473/473
f 506/506/506 475/475/475 473/473/473
f 507/507/507 479/479/479 475/475/475
f 507/507/507 505/505/505 479/479/479
f 506/506/506 507/507/507 475/475/475
f 508/508/508 500/500/500 501/501/501
f 509/509/509 501/501/501 503/503/503
f 509/509/509 508/508/508 501/501/501
f 510/510/510 503/503/503 505/505/505
f 510/510/510 509/509/509 503/503/503
f 511/511/511 505/505/505 507/507/507
f 511/511/511 510/510/510 505/505/505
f 510/510/510 512/512/512 509/509/509
f 509/509/509 512/512/512 508/508/508
f 511/511/511 512/512/512 510/510/510
f 508/508/508 512/512/512 513/513/513
f 508/508/508 513/513/513 500/500/500
f 514/514/514 512/512/512 511/511/511
f 514/514/514 511/511/511 507/507/507
f 514/514/514 507/507/507 506/506/506
f 513/513/513 499/499/499 500/500/500
f 515/515/515 514/514/514 506/506/506
f 515/515/515 512/512/512 514/514/514
f 515/515/515 506/506/506 504/504/504
f 513/513/513 516/516/516 499/499/499
f 513/513/513 512/512/512 516/516/516
f 516/516/516 498/498/498 499/499/499
f 517/517/517 515/515/515 504/504/504
f 517/517/517 512/512/512 515/515/515
f 517/517/517 504/504/504 502/502/502
f 516/516/516 518/518/518 498/498/498
f 516/516/516 512/512/512 518/518/518
f 518/518/518 497/497/497 498/498/498
f 519/519/519 517/517/517 502/502/502
f 519/519/519 512/512/512 517/517/517
f 519/519/519 502/502/502 496/496/496
f 520/520/520 496/496/496 497/497/497
f 518/518/518 520/520/520 497/497/497
f 518/518/518 512/512/512 520/520/520
f 520/520/520 519/519/519 496/496/496
f 520/520/520 512/512/512 519/519/519
