g item_07item_07_mobile
v -0.00284812788 -0.299905976 0.312036514
v -0.00290086791 -0.28595624 0.311983774
v 0.00284779463 -0.285877129 0.312036514
v 0.00290053465 -0.299826866 0.311983774
v -0.312036514 -0.285877129 0.00284812788
v -0.311983774 -0.299826866 0.00290086791
v -0.312036514 -0.299905976 -0.00284779463
v -0.311983774 -0.28595624 -0.00290053465
v -0.305628601 -0.303940587 -0.00308512474
v -0.00308545799 -0.303940587 -0.305628268
v -0.00290086791 -0.299826866 -0.311983441
v -0.312036514 -0.299905976 -0.00284779463
v -0.305628601 -0.303940587 0.00308545799
v -0.00284812788 -0.285877129 -0.312036181
v -0.311983774 -0.299826866 0.00290086791
v -0.311983774 -0.28595624 -0.00290053465
v -0.00308545799 -0.303940587 0.305628601
v -0.00308545799 -0.281842518 -0.305628268
v -0.00284812788 -0.299905976 0.312036514
v 0.00308512474 -0.303940587 0.305628601
v -0.312036514 -0.285877129 0.00284812788
v 0.00290053465 -0.299826866 0.311983774
v 0.305628268 -0.303940587 0.00308545799
v -0.00290086791 -0.28595624 0.311983774
v 0.312036181 -0.299905976 0.00284812788
v 0.305628268 -0.303940587 -0.00308512474
v 0.00284779463 -0.285877129 0.312036514
v 0.311983441 -0.299826866 -0.00290053465
v 0.00308512474 -0.303940587 -0.305628268
v 0.311983441 -0.28595624 0.00290086791
v 0.00284779463 -0.299905976 -0.312036181
v -0.00308545799 -0.303940587 -0.305628268
v -0.00290086791 -0.299826866 -0.311983441
v 0.312036181 -0.285877129 -0.00284779463
v -0.00284812788 -0.285877129 -0.312036181
v 0.00290053465 -0.28595624 -0.311983441
v 0.00308512474 -0.281842518 -0.305628268
v -0.00308545799 -0.281842518 -0.305628268
v -0.00303271796 -0.281842518 -0.285534319
v 0.305628268 -0.281842518 -0.00308512474
v 0.305628268 -0.281842518 0.00308545799
v 0.00308512474 -0.281842518 0.305628601
v 0.00303238471 -0.281842518 -0.285534319
v 0.285534319 -0.281842518 -0.00303238471
v 0.00290053465 -0.28595624 -0.279574697
v -0.00295360793 -0.28600898 -0.279548327
v -0.00290086791 -0.299826866 -0.279574697
v 0.279548327 -0.28600898 -0.00295327468
v 0.285534319 -0.281842518 0.00303271796
v -0.00308545799 -0.281842518 0.305628601
v 0.00295327468 -0.299774126 -0.279548327
v 0.279574697 -0.28595624 0.00290086791
v 0.00303238471 -0.281842518 0.285534653
v -0.305628601 -0.281842518 0.00308545799
v 0.00303238471 -0.303940587 -0.285534319
v -0.00303271796 -0.303940587 -0.285534319
v -0.00308545799 -0.303940587 -0.305628268
v 0.00308512474 -0.303940587 -0.305628268
v 0.285534319 -0.303940587 -0.00303238471
v 0.305628268 -0.303940587 -0.00308512474
v 0.279574697 -0.299826866 -0.00290053465
v 0.285534319 -0.303940587 0.00303271796
v 0.305628268 -0.303940587 0.00308545799
v 0.279548327 -0.299774126 0.00295360793
v 0.00303238471 -0.303940587 0.285534653
v 0.00308512474 -0.303940587 0.305628601
v 0.00295327468 -0.28600898 0.27954866
v -0.00303271796 -0.303940587 0.285534653
v -0.00308545799 -0.303940587 0.305628601
v 0.00290053465 -0.299826866 0.27957503
v -0.00290086791 -0.28595624 0.27957503
v -0.285508283 -0.303940587 0.00300634795
v -0.305628601 -0.303940587 0.00308545799
v -0.00295360793 -0.299774126 0.27954866
v -0.00303271796 -0.281842518 0.285534653
v -0.285534653 -0.303940587 -0.00303238471
v -0.305628601 -0.303940587 -0.00308512474
v -0.27957503 -0.299826866 0.00290086791
v -0.27957503 -0.28595624 0.00290086791
v -0.285534653 -0.281842518 0.00303271796
v -0.00303271796 -0.303940587 -0.285534319
v -0.00308545799 -0.303940587 -0.305628268
v -0.27957503 -0.299826866 -0.00290053465
v -0.00290086791 -0.299826866 -0.279574697
v -0.00295360793 -0.28600898 -0.279548327
v -0.27957503 -0.28595624 -0.00290053465
v -0.285508283 -0.281842518 -0.0030060147
v -0.00303271796 -0.281842518 -0.285534319
v -0.305628601 -0.281842518 -0.00308512474
v 0.312036181 -0.285877129 -0.00284779463
v 0.311983441 -0.299826866 -0.00290053465
v 0.312036181 -0.299905976 0.00284812788
v 0.311983441 -0.28595624 0.00290086791
v -0.00622348937 -1.09978754 0.0308003402
v -0.0262119582 -1.41301054 0.0174571143
v -0.0262119582 -1.09978754 0.0174571143
v -0.00622348937 -1.41301054 0.0308003402
v 0.017351301 -1.41301054 0.0261064781
v 0.017351301 -1.09978754 0.0261064781
v 0.0307208969 -1.09978754 0.00611800932
v 0.0307208969 -1.41301054 0.00611800932
v 0.0260270349 -1.09978754 -0.0174567811
v 0.0260270349 -1.41301054 -0.0174567811
v 0.00603856604 -1.09978754 -0.030800007
v 0.00603856604 -1.41301054 -0.030800007
v -0.0175362244 -1.09978754 -0.0261061449
v -0.0175362244 -1.41301054 -0.0261061449
v -0.0309058203 -1.09978754 -0.00611767607
v -0.0309058203 -1.41301054 -0.00611767607
v -0.0262119582 -1.09978754 0.0174571143
v -0.0262119582 -1.41301054 0.0174571143
v -0.00284812788 -0.810007481 0.312036514
v -0.00290086791 -0.796057745 0.311983774
v 0.00284779463 -0.795978635 0.312036514
v 0.00290053465 -0.809902001 0.311983774
v -0.312036514 -0.795978635 0.00284812788
v -0.311983774 -0.809902001 0.00290086791
v -0.312036514 -0.810007481 -0.00284779463
v -0.311983774 -0.796057745 -0.00290053465
v -0.305628601 -0.814015722 -0.00308512474
v -0.00308545799 -0.814015722 -0.305628268
v -0.00290086791 -0.809902001 -0.311983441
v -0.312036514 -0.810007481 -0.00284779463
v -0.305628601 -0.814015722 0.00308545799
v -0.00284812788 -0.795978635 -0.312036181
v -0.311983774 -0.809902001 0.00290086791
v -0.311983774 -0.796057745 -0.00290053465
v -0.00308545799 -0.814015722 0.305628601
v -0.00308545799 -0.791944023 -0.305628268
v -0.00284812788 -0.810007481 0.312036514
v 0.00308512474 -0.814015722 0.305628601
v -0.312036514 -0.795978635 0.00284812788
v 0.00290053465 -0.809902001 0.311983774
v 0.305628268 -0.814015722 0.00308545799
v -0.00290086791 -0.796057745 0.311983774
v 0.312036181 -0.810007481 0.00284812788
v 0.305628268 -0.814015722 -0.00308512474
v 0.00284779463 -0.795978635 0.312036514
v 0.311983441 -0.809902001 -0.00290053465
v 0.00308512474 -0.814015722 -0.305628268
v 0.311983441 -0.796057745 0.00290086791
v 0.00284779463 -0.810007481 -0.312036181
v -0.00308545799 -0.814015722 -0.305628268
v -0.00290086791 -0.809902001 -0.311983441
v 0.312036181 -0.795978635 -0.00284779463
v -0.00284812788 -0.795978635 -0.312036181
v 0.00290053465 -0.796057745 -0.311983441
v 0.00308512474 -0.791944023 -0.305628268
v -0.00308545799 -0.791944023 -0.305628268
v -0.00303271796 -0.791944023 -0.285534319
v 0.305628268 -0.791944023 -0.00308512474
v 0.305628268 -0.791944023 0.00308545799
v 0.00308512474 -0.791944023 0.305628601
v 0.00303238471 -0.791944023 -0.285534319
v 0.285534319 -0.791944023 -0.00303238471
v 0.00290053465 -0.796057745 -0.279574697
v -0.00295360793 -0.796110485 -0.279548327
v -0.00290086791 -0.809902001 -0.279574697
v 0.279548327 -0.796110485 -0.00295327468
v 0.285534319 -0.791944023 0.00303271796
v -0.00308545799 -0.791944023 0.305628601
v 0.00295327468 -0.809875631 -0.279548327
v 0.279574697 -0.796057745 0.00290086791
v 0.00303238471 -0.791944023 0.285534653
v -0.305628601 -0.791944023 0.00308545799
v 0.00303238471 -0.814015722 -0.285534319
v -0.00303271796 -0.814015722 -0.285534319
v -0.00308545799 -0.814015722 -0.305628268
v 0.00308512474 -0.814015722 -0.305628268
v 0.285534319 -0.814015722 -0.00303238471
v 0.305628268 -0.814015722 -0.00308512474
v 0.279574697 -0.809902001 -0.00290053465
v 0.285534319 -0.814015722 0.00303271796
v 0.305628268 -0.814015722 0.00308545799
v 0.279548327 -0.809875631 0.00295360793
v 0.00303238471 -0.814015722 0.285534653
v 0.00308512474 -0.814015722 0.305628601
v 0.00295327468 -0.796110485 0.27954866
v -0.00303271796 -0.814015722 0.285534653
v -0.00308545799 -0.814015722 0.305628601
v 0.00290053465 -0.809902001 0.27957503
v -0.00290086791 -0.796057745 0.27957503
v -0.285508283 -0.814015722 0.00300634795
v -0.305628601 -0.814015722 0.00308545799
v -0.00295360793 -0.809875631 0.27954866
v -0.00303271796 -0.791944023 0.285534653
v -0.285534653 -0.814015722 -0.00303238471
v -0.305628601 -0.814015722 -0.00308512474
v -0.27957503 -0.809902001 0.00290086791
v -0.27957503 -0.796057745 0.00290086791
v -0.285534653 -0.791944023 0.00303271796
v -0.00303271796 -0.814015722 -0.285534319
v -0.00308545799 -0.814015722 -0.305628268
v -0.27957503 -0.809902001 -0.00290053465
v -0.00290086791 -0.809902001 -0.279574697
v -0.00295360793 -0.796110485 -0.279548327
v -0.27957503 -0.796057745 -0.00290053465
v -0.285508283 -0.791944023 -0.0030060147
v -0.00303271796 -0.791944023 -0.285534319
v -0.305628601 -0.791944023 -0.00308512474
v 0.312036181 -0.795978635 -0.00284779463
v 0.311983441 -0.809902001 -0.00290053465
v 0.312036181 -0.810007481 0.00284812788
v 0.311983441 -0.796057745 0.00290086791
v -0.0278996389 -0.00208306429 -0.0324613177
v 0.0278993057 -0.00208306429 -0.0324613177
v 0.0278993057 0.00385018832 -0.0324613177
v 0.0320657675 -0.00208306429 -0.0282421158
v -0.0278996389 0.00385018832 -0.0324613177
v -0.0320661008 0.00385018832 -0.0282421158
v -0.0320661008 -0.00208306429 -0.0282421158
v -0.0320661008 -0.00208306429 0.0282424491
v 0.0320657675 0.00385018832 -0.0282421158
v -1.6662561E-07 0.0304575301 -0.00424540525
v -0.00416662846 0.0304839001 1.6662561E-07
v -0.0320661008 0.00385018832 0.0282424491
v 0.0320657675 0.00385018832 0.0282424491
v 0.0320657675 -0.00208306429 0.0282424491
v 0.0278993057 -0.00208306429 0.0324616509
v 0.00416629521 0.0304839001 1.6662561E-07
v -1.6662561E-07 0.0304575301 0.0042457385
v -0.0278996389 0.00385018832 0.0324616509
v -0.0278996389 -0.00208306429 0.0324616509
v 0.0278993057 0.00385018832 0.0324616509
v 0.0658984924 -0.58058838 -0.00297964469
v 0.0658984924 -0.590925424 -0.00297964469
v 0.0658984924 -0.590925424 0.00297997794
v 0.00297964469 -0.590925424 -0.0658984924
v 0.0658984924 -0.58058838 0.00297997794
v 0.00297964469 -0.58058838 0.0658988257
v 0.00297964469 -0.590925424 0.0658988257
v -0.00297997794 -0.590925424 0.0658988257
v 0.00297964469 -0.58058838 -0.0658984924
v 0.0629450511 -0.576395548 1.6662561E-07
v -1.6662561E-07 -0.576395548 0.0629453844
v -0.00297997794 -0.58058838 0.0658988257
v -0.00297997794 -0.58058838 -0.0658984924
v -0.00297997794 -0.590925424 -0.0658984924
v -0.0658988257 -0.590925424 -0.00297964469
v -1.6662561E-07 -0.576395548 -0.0629450511
v -0.0658988257 -0.58058838 0.00297997794
v -0.0658988257 -0.590925424 0.00297997794
v -0.0629453844 -0.576395548 1.6662561E-07
v -0.0658988257 -0.58058838 -0.00297964469
v -1.6662561E-07 -0.595118256 -0.0629450511
v 0.0658984924 -0.590925424 -0.00297964469
v 0.00297964469 -0.590925424 -0.0658984924
v -0.00297997794 -0.590925424 -0.0658984924
v 0.0629450511 -0.595118256 1.6662561E-07
v 0.0658984924 -0.590925424 0.00297997794
v 0.00297964469 -0.590925424 0.0658988257
v -0.0629453844 -0.595118256 1.6662561E-07
v -0.0658988257 -0.590925424 -0.00297964469
v -0.0658988257 -0.590925424 0.00297997794
v -1.6662561E-07 -0.595118256 0.0629453844
v -0.00297997794 -0.590925424 0.0658988257
v 0.0658984924 -1.00830997 -0.00297964469
v 0.0658984924 -1.03185839 -0.00297964469
v 0.0658984924 -1.03185839 0.00297997794
v 0.00297964469 -1.03185839 -0.0658984924
v 0.0658984924 -1.00830997 0.00297997794
v 0.00297964469 -1.00830997 0.0658988257
v 0.00297964469 -1.03185839 0.0658988257
v -0.00297997794 -1.03185839 0.0658988257
v 0.00297964469 -1.00830997 -0.0658984924
v 0.0629450511 -1.00411714 1.6662561E-07
v -1.6662561E-07 -1.00411714 0.0629453844
v -0.00297997794 -1.00830997 0.0658988257
v -0.00297997794 -1.00830997 -0.0658984924
v -0.00297997794 -1.03185839 -0.0658984924
v -0.0658988257 -1.03185839 -0.00297964469
v -1.6662561E-07 -1.00411714 -0.0629450511
v -0.0658988257 -1.00830997 0.00297997794
v -0.0658988257 -1.03185839 0.00297997794
v -0.0629453844 -1.00411714 1.6662561E-07
v -0.0658988257 -1.00830997 -0.00297964469
v -1.6662561E-07 -1.03607759 -0.0629450511
v 0.0658984924 -1.03185839 -0.00297964469
v 0.00297964469 -1.03185839 -0.0658984924
v -0.00297997794 -1.03185839 -0.0658984924
v 0.0629450511 -1.03607759 1.6662561E-07
v 0.0658984924 -1.03185839 0.00297997794
v 0.00297964469 -1.03185839 0.0658988257
v -0.0629453844 -1.03607759 1.6662561E-07
v -0.0658988257 -1.03185839 -0.00297964469
v -0.0658988257 -1.03185839 0.00297997794
v -1.6662561E-07 -1.03607759 0.0629453844
v -0.00297997794 -1.03185839 0.0658988257
v 0.0658984924 -0.0705132445 -0.00297964469
v 0.0658984924 -0.080823919 -0.00297964469
v 0.0658984924 -0.080823919 0.00297997794
v 0.00297964469 -0.080823919 -0.0658984924
v 0.0658984924 -0.0705132445 0.00297997794
v 0.00297964469 -0.0705132445 0.0658988257
v 0.00297964469 -0.080823919 0.0658988257
v -0.00297997794 -0.080823919 0.0658988257
v 0.00297964469 -0.0705132445 -0.0658984924
v 0.0629450511 -0.0662940426 1.6662561E-07
v -1.6662561E-07 -0.0662940426 0.0629453844
v -0.00297997794 -0.0705132445 0.0658988257
v -0.00297997794 -0.0705132445 -0.0658984924
v -0.00297997794 -0.080823919 -0.0658984924
v -0.0658988257 -0.080823919 -0.00297964469
v -1.6662561E-07 -0.0662940426 -0.0629450511
v -0.0658988257 -0.0705132445 0.00297997794
v -0.0658988257 -0.080823919 0.00297997794
v -0.0629453844 -0.0662940426 1.6662561E-07
v -0.0658988257 -0.0705132445 -0.00297964469
v -1.6662561E-07 -0.0850167509 -0.0629450511
v 0.0658984924 -0.080823919 -0.00297964469
v 0.00297964469 -0.080823919 -0.0658984924
v -0.00297997794 -0.080823919 -0.0658984924
v 0.0629450511 -0.0850167509 1.6662561E-07
v 0.0658984924 -0.080823919 0.00297997794
v 0.00297964469 -0.080823919 0.0658988257
v -0.0629453844 -0.0850167509 1.6662561E-07
v -0.0658988257 -0.080823919 -0.00297964469
v -0.0658988257 -0.080823919 0.00297997794
v -1.6662561E-07 -0.0850167509 0.0629453844
v -0.00297997794 -0.080823919 0.0658988257
v 0.0658984924 -0.498234833 -0.00297964469
v 0.0658984924 -0.521756884 -0.00297964469
v 0.0658984924 -0.521756884 0.00297997794
v 0.00297964469 -0.521756884 -0.0658984924
v 0.0658984924 -0.498234833 0.00297997794
v 0.00297964469 -0.498234833 0.0658988257
v 0.00297964469 -0.521756884 0.0658988257
v -0.00297997794 -0.521756884 0.0658988257
v 0.00297964469 -0.498234833 -0.0658984924
v 0.0629450511 -0.494015631 1.6662561E-07
v -1.6662561E-07 -0.494015631 0.0629453844
v -0.00297997794 -0.498234833 0.0658988257
v -0.00297997794 -0.498234833 -0.0658984924
v -0.00297997794 -0.521756884 -0.0658984924
v -0.0658988257 -0.521756884 -0.00297964469
v -1.6662561E-07 -0.494015631 -0.0629450511
v -0.0658988257 -0.498234833 0.00297997794
v -0.0658988257 -0.521756884 0.00297997794
v -0.0629453844 -0.494015631 1.6662561E-07
v -0.0658988257 -0.498234833 -0.00297964469
v -1.6662561E-07 -0.525976085 -0.0629450511
v 0.0658984924 -0.521756884 -0.00297964469
v 0.00297964469 -0.521756884 -0.0658984924
v -0.00297997794 -0.521756884 -0.0658984924
v 0.0629450511 -0.525976085 1.6662561E-07
v 0.0658984924 -0.521756884 0.00297997794
v 0.00297964469 -0.521756884 0.0658988257
v -0.0629453844 -0.525976085 1.6662561E-07
v -0.0658988257 -0.521756884 -0.00297964469
v -0.0658988257 -0.521756884 0.00297997794
v -1.6662561E-07 -0.525976085 0.0629453844
v -0.00297997794 -0.521756884 0.0658988257
v -0.00416662846 -0.028716776 1.6662561E-07
v -0.0320661008 -0.00208306429 0.0282424491
v -0.0278996389 -0.00208306429 0.0324616509
v -0.0320661008 -0.00208306429 -0.0282421158
v -1.6662561E-07 -0.028690406 0.0042457385
v 0.0278993057 -0.00208306429 0.0324616509
v 0.0320657675 -0.00208306429 0.0282424491
v -1.6662561E-07 -0.028690406 -0.00424540525
v -0.0278996389 -0.00208306429 -0.0324613177
v 0.0278993057 -0.00208306429 -0.0324613177
v 0.00416629521 -0.028716776 1.6662561E-07
v 0.0320657675 -0.00208306429 -0.0282421158
v -0.023416737 -1.4161222 0.0155848435
v -0.0276095688 -1.4161222 -0.00545842578
v -0.0309058203 -1.41301054 -0.00611767607
v -0.000105646672 -1.4161222 1.6662561E-07
v -0.0262119582 -1.41301054 0.0174571143
v -0.0175362244 -1.41301054 -0.0261061449
v -0.00556423908 -1.4161222 0.0275040888
v -0.00622348937 -1.41301054 0.0308003402
v -0.0156639535 -1.4161222 -0.0233109237
v 0.00603856604 -1.41301054 -0.030800007
v 0.0154790302 -1.4161222 0.0233112569
v 0.017351301 -1.41301054 0.0261064781
v 0.00537931575 -1.4161222 -0.0275037555
v 0.0260270349 -1.41301054 -0.0174567811
v 0.0273982755 -1.4161222 0.00545875903
v 0.0307208969 -1.41301054 0.00611800932
v 0.0232318136 -1.4161222 -0.0155845102
v -0.0262119582 -1.09978754 0.0174571143
v -0.0309058203 -1.09978754 -0.00611767607
v -0.0276095688 -1.09667588 -0.00545842578
v -0.023416737 -1.09667588 0.0155848435
v -0.000105646672 -1.09667588 1.6662561E-07
v -0.00622348937 -1.09978754 0.0308003402
v -0.0156639535 -1.09667588 -0.0233109237
v -0.0175362244 -1.09978754 -0.0261061449
v -0.00556423908 -1.09667588 0.0275040888
v 0.017351301 -1.09978754 0.0261064781
v 0.00537931575 -1.09667588 -0.0275037555
v 0.00603856604 -1.09978754 -0.030800007
v 0.0154790302 -1.09667588 0.0233112569
v 0.0307208969 -1.09978754 0.00611800932
v 0.0232318136 -1.09667588 -0.0155845102
v 0.0260270349 -1.09978754 -0.0174567811
v 0.0273982755 -1.09667588 0.00545875903
v 0.299721386 -0.295871364 -0.00297964469
v 0.0316965874 -0.506488647 0.00297997794
v 0.299721386 -0.295871364 0.00297997794
v 0.00297964469 -0.295871364 0.299721719
v 0.0316965874 -0.506488647 -0.00297964469
v 0.00297964469 -0.506488647 -0.0316965874
v 0.00297964469 -0.295871364 -0.299721386
v -0.00297997794 -0.295871364 -0.299721386
v 0.00297964469 -0.506488647 0.0316969206
v 0.0267653952 -0.509072908 1.6662561E-07
v -1.6662561E-07 -0.509072908 -0.0267653952
v -0.00297997794 -0.506488647 -0.0316965874
v -0.00297997794 -0.506488647 0.0316969206
v -0.00297997794 -0.295871364 0.299721719
v -0.299721719 -0.295871364 0.00297997794
v -1.6662561E-07 -0.509072908 0.0267657284
v -0.0267657284 -0.509072908 1.6662561E-07
v -0.0316969206 -0.506488647 -0.00297964469
v -0.299721719 -0.295871364 -0.00297964469
v -0.0316969206 -0.506488647 0.00297997794
v 0.299721386 -0.805946499 -0.00297964469
v 0.0316965874 -1.01659015 0.00297997794
v 0.299721386 -0.805946499 0.00297997794
v 0.00297964469 -0.805946499 0.299721719
v 0.0316965874 -1.01659015 -0.00297964469
v 0.00297964469 -1.01659015 -0.0316965874
v 0.00297964469 -0.805946499 -0.299721386
v -0.00297997794 -0.805946499 -0.299721386
v 0.00297964469 -1.01659015 0.0316969206
v 0.0267653952 -1.01917441 1.6662561E-07
v -1.6662561E-07 -1.01917441 -0.0267653952
v -0.00297997794 -1.01659015 -0.0316965874
v -0.00297997794 -1.01659015 0.0316969206
v -0.00297997794 -0.805946499 0.299721719
v -0.299721719 -0.805946499 0.00297997794
v -1.6662561E-07 -1.01917441 0.0267657284
v -0.0267657284 -1.01917441 1.6662561E-07
v -0.0316969206 -1.01659015 -0.00297964469
v -0.299721719 -0.805946499 -0.00297964469
v -0.0316969206 -1.01659015 0.00297997794
v 0.00297964469 -0.295871364 -0.299721386
v 0.299721386 -0.295871364 -0.00297964469
v 0.299721386 -0.289911741 -0.00297964469
v 0.00297964469 -0.289911741 -0.299721386
v -0.00297997794 -0.295871364 -0.299721386
v 0.299721386 -0.289911741 0.00297997794
v 0.299721386 -0.295871364 0.00297997794
v -0.00297997794 -0.289911741 -0.299721386
v -0.299721719 -0.295871364 -0.00297964469
v -0.299721719 -0.289911741 -0.00297964469
v -0.299721719 -0.295871364 0.00297997794
v 0.0316965874 -0.0792944584 -0.00297964469
v -0.00297997794 -0.0792944584 -0.0316965874
v 0.00297964469 -0.289911741 0.299721719
v 0.00297964469 -0.295871364 0.299721719
v -0.00297997794 -0.289911741 0.299721719
v -0.00297997794 -0.295871364 0.299721719
v -0.299721719 -0.289911741 0.00297997794
v 0.0027686846 -0.0791098683 0.0316705506
v -0.0316969206 -0.0792944584 0.00297997794
v 0.0316702173 -0.0791098683 0.00276901785
v 0.0027686846 -0.0791098683 -0.0316702173
v -0.0316705506 -0.0791098683 -0.0027686846
v -0.00276901785 -0.0791098683 0.0316705506
v -1.6662561E-07 -0.0767101972 0.0267657284
v 0.0267653952 -0.0767101972 1.6662561E-07
v -1.6662561E-07 -0.0767101972 -0.0267653952
v -0.0267657284 -0.0767101972 1.6662561E-07
v 0.00297964469 -0.805946499 -0.299721386
v 0.299721386 -0.805946499 -0.00297964469
v 0.299721386 -0.800013246 -0.00297964469
v 0.00297964469 -0.800013246 -0.299721386
v -0.00297997794 -0.805946499 -0.299721386
v 0.299721386 -0.800013246 0.00297997794
v 0.299721386 -0.805946499 0.00297997794
v -0.00297997794 -0.800013246 -0.299721386
v -0.299721719 -0.805946499 -0.00297964469
v -0.299721719 -0.800013246 -0.00297964469
v -0.299721719 -0.805946499 0.00297997794
v 0.0316965874 -0.589395963 -0.00297964469
v -0.00297997794 -0.589395963 -0.0316965874
v 0.00297964469 -0.800013246 0.299721719
v 0.00297964469 -0.805946499 0.299721719
v -0.00297997794 -0.800013246 0.299721719
v -0.00297997794 -0.805946499 0.299721719
v -0.299721719 -0.800013246 0.00297997794
v 0.0027686846 -0.589211373 0.0316705506
v -0.0316969206 -0.589395963 0.00297997794
v 0.0316702173 -0.589211373 0.00276901785
v 0.0027686846 -0.589211373 -0.0316702173
v -0.0316705506 -0.589211373 -0.0027686846
v -0.00276901785 -0.589211373 0.0316705506
v -1.6662561E-07 -0.586785332 0.0267657284
v 0.0267653952 -0.586785332 1.6662561E-07
v -1.6662561E-07 -0.586785332 -0.0267653952
v -0.0267657284 -0.586785332 1.6662561E-07
vt 0.248254877 0.37430774
vt 0.255042339 0.37430774
vt 0.255042339 0.37430774
vt 0.249224514 0.37430774
vt 0.262799438 0.552721023
vt 0.256981613 0.552721023
vt 0.256981613 0.552721023
vt 0.262799438 0.551751385
vt 0.254072701 0.554660297
vt 0.279283274 0.74083068
vt 0.282192186 0.742769954
vt 0.256981613 0.552721023
vt 0.254072701 0.551751385
vt 0.288979648 0.741800317
vt 0.256981613 0.552721023
vt 0.262799438 0.551751385
vt 0.246315602 0.375277377
vt 0.29188856 0.738891405
vt 0.248254877 0.37430774
vt 0.246315602 0.372368465
vt 0.262799438 0.552721023
vt 0.249224514 0.37430774
vt 0.255042339 0.196864094
vt 0.255042339 0.37430774
vt 0.256981613 0.195894457
vt 0.255042339 0.192985544
vt 0.255042339 0.37430774
vt 0.257951251 0.194924819
vt 0.279283274 0.00778479963
vt 0.263769075 0.195894457
vt 0.282192186 0.00681516222
vt 0.278313636 0.00487588741
vt 0.282192186 0.00390625
vt 0.263769075 0.195894457
vt 0.289949285 0.00487588741
vt 0.288979648 0.00778479963
vt 0.29188856 0.00972407444
vt 0.292858197 0.00778479963
vt 0.298676022 0.0136026241
vt 0.266677987 0.195894457
vt 0.266677987 0.196864094
vt 0.257951251 0.373338102
vt 0.297706384 0.0165115363
vt 0.273465449 0.193955182
vt 0.299645659 0.0184508111
vt 0.300615297 0.0155418989
vt 0.305463484 0.0165115363
vt 0.276374361 0.193955182
vt 0.272495812 0.199773006
vt 0.257951251 0.37430774
vt 0.306433121 0.0194204485
vt 0.275404724 0.200742644
vt 0.264738713 0.371398827
vt 0.26570835 0.551751385
vt 0.309342033 0.0174811737
vt 0.308372396 0.0155418989
vt 0.315159858 0.0106937119
vt 0.316129495 0.0126329867
vt 0.285101098 0.195894457
vt 0.290918923 0.199773006
vt 0.282192186 0.193955182
vt 0.284131461 0.199773006
vt 0.290918923 0.197833731
vt 0.282192186 0.200742644
vt 0.276374361 0.372368465
vt 0.282192186 0.375277377
vt 0.267647625 0.37042919
vt 0.276374361 0.376247014
vt 0.282192186 0.373338102
vt 0.273465449 0.371398827
vt 0.267647625 0.377216652
vt 0.284131461 0.548842473
vt 0.289949285 0.550781748
vt 0.273465449 0.377216652
vt 0.264738713 0.377216652
vt 0.284131461 0.552721023
vt 0.289949285 0.548842473
vt 0.281222549 0.547872836
vt 0.274435087 0.547872836
vt 0.271526174 0.548842473
vt 0.309342033 0.730164668
vt 0.316129495 0.735982493
vt 0.281222549 0.55369066
vt 0.306433121 0.729195031
vt 0.299645659 0.730164668
vt 0.275404724 0.554660297
vt 0.272495812 0.554660297
vt 0.297706384 0.732103943
vt 0.26570835 0.552721023
vt 0.263769075 0.195894457
vt 0.257951251 0.194924819
vt 0.256981613 0.195894457
vt 0.263769075 0.195894457
vt 0.865913905 0.534297912
vt 0.855247894 0.394670125
vt 0.855247894 0.534297912
vt 0.865913905 0.394670125
vt 0.876579917 0.394670125
vt 0.876579917 0.534297912
vt 0.887245928 0.534297912
vt 0.887245928 0.394670125
vt 0.89791194 0.534297912
vt 0.89791194 0.394670125
vt 0.908577951 0.534297912
vt 0.908577951 0.394670125
vt 0.919243963 0.534297912
vt 0.919243963 0.394670125
vt 0.929909974 0.534297912
vt 0.929909974 0.394670125
vt 0.940575986 0.534297912
vt 0.940575986 0.394670125
vt 0.248254877 0.37430774
vt 0.255042339 0.37430774
vt 0.255042339 0.37430774
vt 0.249224514 0.37430774
vt 0.262799438 0.552721023
vt 0.256981613 0.552721023
vt 0.256981613 0.552721023
vt 0.262799438 0.551751385
vt 0.254072701 0.554660297
vt 0.279283274 0.74083068
vt 0.282192186 0.742769954
vt 0.256981613 0.552721023
vt 0.254072701 0.551751385
vt 0.288979648 0.741800317
vt 0.256981613 0.552721023
vt 0.262799438 0.551751385
vt 0.246315602 0.375277377
vt 0.29188856 0.738891405
vt 0.248254877 0.37430774
vt 0.246315602 0.372368465
vt 0.262799438 0.552721023
vt 0.249224514 0.37430774
vt 0.255042339 0.196864094
vt 0.255042339 0.37430774
vt 0.256981613 0.195894457
vt 0.255042339 0.192985544
vt 0.255042339 0.37430774
vt 0.257951251 0.194924819
vt 0.279283274 0.00778479963
vt 0.263769075 0.195894457
vt 0.282192186 0.00681516222
vt 0.278313636 0.00487588741
vt 0.282192186 0.00390625
vt 0.263769075 0.195894457
vt 0.289949285 0.00487588741
vt 0.288979648 0.00778479963
vt 0.29188856 0.00972407444
vt 0.292858197 0.00778479963
vt 0.298676022 0.0136026241
vt 0.266677987 0.195894457
vt 0.266677987 0.196864094
vt 0.257951251 0.373338102
vt 0.297706384 0.0165115363
vt 0.273465449 0.193955182
vt 0.299645659 0.0184508111
vt 0.300615297 0.0155418989
vt 0.305463484 0.0165115363
vt 0.276374361 0.193955182
vt 0.272495812 0.199773006
vt 0.257951251 0.37430774
vt 0.306433121 0.0194204485
vt 0.275404724 0.200742644
vt 0.264738713 0.371398827
vt 0.26570835 0.551751385
vt 0.309342033 0.0174811737
vt 0.308372396 0.0155418989
vt 0.315159858 0.0106937119
vt 0.316129495 0.0126329867
vt 0.285101098 0.195894457
vt 0.290918923 0.199773006
vt 0.282192186 0.193955182
vt 0.284131461 0.199773006
vt 0.290918923 0.197833731
vt 0.282192186 0.200742644
vt 0.276374361 0.372368465
vt 0.282192186 0.375277377
vt 0.267647625 0.37042919
vt 0.276374361 0.376247014
vt 0.282192186 0.373338102
vt 0.273465449 0.371398827
vt 0.267647625 0.377216652
vt 0.284131461 0.548842473
vt 0.289949285 0.550781748
vt 0.273465449 0.377216652
vt 0.264738713 0.377216652
vt 0.284131461 0.552721023
vt 0.289949285 0.548842473
vt 0.281222549 0.547872836
vt 0.274435087 0.547872836
vt 0.271526174 0.548842473
vt 0.309342033 0.730164668
vt 0.316129495 0.735982493
vt 0.281222549 0.55369066
vt 0.306433121 0.729195031
vt 0.299645659 0.730164668
vt 0.275404724 0.554660297
vt 0.272495812 0.554660297
vt 0.297706384 0.732103943
vt 0.26570835 0.552721023
vt 0.263769075 0.195894457
vt 0.257951251 0.194924819
vt 0.256981613 0.195894457
vt 0.263769075 0.195894457
vt 0.949302722 0.0417221089
vt 0.979361482 0.0417221089
vt 0.978391845 0.0388131967
vt 0.982270394 0.0378435593
vt 0.95027236 0.0388131967
vt 0.947363447 0.0368739219
vt 0.945424173 0.0378435593
vt 0.945424173 0.00778479963
vt 0.980331119 0.0368739219
vt 0.963847283 0.0242686356
vt 0.961908009 0.0223293607
vt 0.947363447 0.00875443704
vt 0.980331119 0.00875443704
vt 0.982270394 0.00778479963
vt 0.979361482 0.00390625
vt 0.965786558 0.0223293607
vt 0.963847283 0.0213597233
vt 0.949302722 0.00681516222
vt 0.948333085 0.00390625
vt 0.978391845 0.00584552481
vt 0.543024649 0.982270394
vt 0.539146099 0.985179306
vt 0.543024649 0.988088219
vt 0.539146099 0.939606348
vt 0.544963923 0.984209669
vt 0.585688694 0.984209669
vt 0.588597607 0.988088219
vt 0.591506519 0.984209669
vt 0.543024649 0.941545623
vt 0.545933561 0.982270394
vt 0.585688694 0.982270394
vt 0.587627969 0.982270394
vt 0.544963923 0.939606348
vt 0.543024649 0.935727799
vt 0.587627969 0.935727799
vt 0.544963923 0.94251526
vt 0.587627969 0.941545623
vt 0.591506519 0.939606348
vt 0.585688694 0.941545623
vt 0.585688694 0.939606348
vt 0.21334793 0.699136271
vt 0.253103064 0.697196996
vt 0.21334793 0.697196996
vt 0.211408655 0.699136271
vt 0.253103064 0.699136271
vt 0.256011976 0.699136271
vt 0.256011976 0.738891405
vt 0.21334793 0.738891405
vt 0.211408655 0.738891405
vt 0.21334793 0.741800317
vt 0.253103064 0.738891405
vt 0.253103064 0.741800317
vt 0.168744609 0.986148944
vt 0.160017873 0.991966768
vt 0.16486606 0.995845318
vt 0.160017873 0.938636711
vt 0.170683884 0.988088219
vt 0.211408655 0.987118581
vt 0.218196117 0.995845318
vt 0.222074667 0.990997131
vt 0.167774972 0.944454535
vt 0.171653521 0.985179306
vt 0.211408655 0.985179306
vt 0.21334793 0.985179306
vt 0.169714247 0.943484898
vt 0.163896422 0.934758161
vt 0.21722648 0.934758161
vt 0.170683884 0.945424173
vt 0.21334793 0.944454535
vt 0.222074667 0.937667073
vt 0.210439018 0.944454535
vt 0.211408655 0.94251526
vt 0.20946938 0.646775851
vt 0.249224514 0.643866939
vt 0.20946938 0.643866939
vt 0.206560468 0.646775851
vt 0.249224514 0.646775851
vt 0.252133426 0.646775851
vt 0.252133426 0.686530985
vt 0.20946938 0.686530985
vt 0.207530106 0.686530985
vt 0.20946938 0.689439897
vt 0.249224514 0.686530985
vt 0.249224514 0.689439897
vt 0.543024649 0.982270394
vt 0.539146099 0.985179306
vt 0.543024649 0.988088219
vt 0.539146099 0.939606348
vt 0.544963923 0.984209669
vt 0.585688694 0.984209669
vt 0.588597607 0.988088219
vt 0.591506519 0.984209669
vt 0.543024649 0.941545623
vt 0.545933561 0.982270394
vt 0.585688694 0.982270394
vt 0.587627969 0.982270394
vt 0.544963923 0.939606348
vt 0.543024649 0.935727799
vt 0.587627969 0.935727799
vt 0.544963923 0.94251526
vt 0.587627969 0.941545623
vt 0.591506519 0.939606348
vt 0.585688694 0.941545623
vt 0.585688694 0.939606348
vt 0.21334793 0.699136271
vt 0.253103064 0.697196996
vt 0.21334793 0.697196996
vt 0.211408655 0.699136271
vt 0.253103064 0.699136271
vt 0.256011976 0.699136271
vt 0.256011976 0.738891405
vt 0.21334793 0.738891405
vt 0.211408655 0.738891405
vt 0.21334793 0.741800317
vt 0.253103064 0.738891405
vt 0.253103064 0.741800317
vt 0.168744609 0.986148944
vt 0.160017873 0.991966768
vt 0.16486606 0.995845318
vt 0.160017873 0.938636711
vt 0.170683884 0.988088219
vt 0.211408655 0.987118581
vt 0.218196117 0.995845318
vt 0.222074667 0.990997131
vt 0.167774972 0.944454535
vt 0.171653521 0.985179306
vt 0.211408655 0.985179306
vt 0.21334793 0.985179306
vt 0.169714247 0.943484898
vt 0.163896422 0.934758161
vt 0.21722648 0.934758161
vt 0.170683884 0.945424173
vt 0.21334793 0.944454535
vt 0.222074667 0.937667073
vt 0.210439018 0.944454535
vt 0.211408655 0.94251526
vt 0.20946938 0.646775851
vt 0.249224514 0.643866939
vt 0.20946938 0.643866939
vt 0.206560468 0.646775851
vt 0.249224514 0.646775851
vt 0.252133426 0.646775851
vt 0.252133426 0.686530985
vt 0.20946938 0.686530985
vt 0.207530106 0.686530985
vt 0.20946938 0.689439897
vt 0.249224514 0.686530985
vt 0.249224514 0.689439897
vt 0.959968734 0.0659630441
vt 0.945424173 0.0805076052
vt 0.947363447 0.08244688
vt 0.945424173 0.051418483
vt 0.961908009 0.0679023189
vt 0.97645257 0.08244688
vt 0.978391845 0.0805076052
vt 0.961908009 0.0640237693
vt 0.947363447 0.0494792082
vt 0.97645257 0.0494792082
vt 0.963847283 0.0659630441
vt 0.978391845 0.051418483
vt 0.983240032 0.34812753
vt 0.990027493 0.354914992
vt 0.991966768 0.353945354
vt 0.978391845 0.359763179
vt 0.984209669 0.346188255
vt 0.991966768 0.365581003
vt 0.973543657 0.34812753
vt 0.97257402 0.346188255
vt 0.990027493 0.364611366
vt 0.984209669 0.373338102
vt 0.966756196 0.354914992
vt 0.964816921 0.353945354
vt 0.983240032 0.371398827
vt 0.97257402 0.373338102
vt 0.966756196 0.364611366
vt 0.964816921 0.365581003
vt 0.973543657 0.371398827
vt 0.957059822 0.381095202
vt 0.949302722 0.388852301
vt 0.951241997 0.389821938
vt 0.958029459 0.383034476
vt 0.962877646 0.394670125
vt 0.967725833 0.381095202
vt 0.951241997 0.399518312
vt 0.949302722 0.399518312
vt 0.967725833 0.383034476
vt 0.97645257 0.388852301
vt 0.958029459 0.406305774
vt 0.957059822 0.408245049
vt 0.974513295 0.389821938
vt 0.97645257 0.399518312
vt 0.967725833 0.406305774
vt 0.967725833 0.408245049
vt 0.974513295 0.399518312
vt 0.0814772426 0.626413466
vt 0.0533577578 0.598293981
vt 0.0814772426 0.626413466
vt 0.0203900859 0.626413466
vt 0.0543273952 0.597324343
vt 0.0533577578 0.593445794
vt 0.0814772426 0.564356672
vt 0.0814772426 0.564356672
vt 0.0485095707 0.598293981
vt 0.0533577578 0.597324343
vt 0.0533577578 0.593445794
vt 0.0533577578 0.592476156
vt 0.0485095707 0.598293981
vt 0.0194204485 0.625443828
vt 0.0203900859 0.565326309
vt 0.0494792082 0.597324343
vt 0.0485095707 0.593445794
vt 0.0485095707 0.592476156
vt 0.0203900859 0.564356672
vt 0.0485095707 0.593445794
vt 0.0814772426 0.626413466
vt 0.0533577578 0.598293981
vt 0.0814772426 0.626413466
vt 0.0203900859 0.626413466
vt 0.0543273952 0.597324343
vt 0.0533577578 0.593445794
vt 0.0814772426 0.564356672
vt 0.0814772426 0.564356672
vt 0.0485095707 0.598293981
vt 0.0533577578 0.597324343
vt 0.0533577578 0.593445794
vt 0.0533577578 0.592476156
vt 0.0485095707 0.598293981
vt 0.0194204485 0.625443828
vt 0.0203900859 0.565326309
vt 0.0494792082 0.597324343
vt 0.0485095707 0.593445794
vt 0.0485095707 0.592476156
vt 0.0203900859 0.564356672
vt 0.0485095707 0.593445794
vt 0.0814772426 0.563387034
vt 0.0203900859 0.563387034
vt 0.0203900859 0.564356672
vt 0.0814772426 0.564356672
vt 0.08244688 0.564356672
vt 0.0203900859 0.565326309
vt 0.0194204485 0.565326309
vt 0.0814772426 0.565326309
vt 0.08244688 0.625443828
vt 0.0814772426 0.625443828
vt 0.0814772426 0.627383103
vt 0.0485095707 0.592476156
vt 0.0533577578 0.593445794
vt 0.0203900859 0.625443828
vt 0.0194204485 0.626413466
vt 0.0203900859 0.626413466
vt 0.0203900859 0.627383103
vt 0.0814772426 0.626413466
vt 0.0475399333 0.597324343
vt 0.0523881204 0.598293981
vt 0.0485095707 0.592476156
vt 0.0533577578 0.593445794
vt 0.0533577578 0.598293981
vt 0.0485095707 0.597324343
vt 0.0485095707 0.597324343
vt 0.0494792082 0.593445794
vt 0.0533577578 0.593445794
vt 0.0523881204 0.597324343
vt 0.0814772426 0.563387034
vt 0.0203900859 0.563387034
vt 0.0203900859 0.564356672
vt 0.0814772426 0.564356672
vt 0.08244688 0.564356672
vt 0.0203900859 0.565326309
vt 0.0194204485 0.565326309
vt 0.0814772426 0.565326309
vt 0.08244688 0.625443828
vt 0.0814772426 0.625443828
vt 0.0814772426 0.627383103
vt 0.0485095707 0.592476156
vt 0.0533577578 0.593445794
vt 0.0203900859 0.625443828
vt 0.0194204485 0.626413466
vt 0.0203900859 0.626413466
vt 0.0203900859 0.627383103
vt 0.0814772426 0.626413466
vt 0.0475399333 0.597324343
vt 0.0523881204 0.598293981
vt 0.0485095707 0.592476156
vt 0.0533577578 0.593445794
vt 0.0533577578 0.598293981
vt 0.0485095707 0.597324343
vt 0.0485095707 0.597324343
vt 0.0494792082 0.593445794
vt 0.0533577578 0.593445794
vt 0.0523881204 0.597324343
g item_07item_07_mobile_0
f 3/3/3 2/2/2 1/1/1
f 4/4/4 3/3/3 1/1/1
f 7/7/7 6/6/6 5/5/5
f 8/8/8 7/7/7 5/5/5
f 11/11/11 10/10/10 9/9/9
f 12/12/12 11/11/11 9/9/9
f 12/12/12 9/9/9 13/13/13
f 14/14/14 11/11/11 12/12/12
f 15/15/15 12/12/12 13/13/13
f 16/16/16 14/14/14 12/12/12
f 15/15/15 13/13/13 17/17/17
f 18/18/18 14/14/14 16/16/16
f 19/19/19 15/15/15 17/17/17
f 19/19/19 17/17/17 20/20/20
f 21/21/21 15/15/15 19/19/19
f 22/22/22 19/19/19 20/20/20
f 20/20/20 23/23/23 22/22/22
f 24/24/24 21/21/21 19/19/19
f 23/23/23 25/25/25 22/22/22
f 25/25/25 23/23/23 26/26/26
f 27/27/27 22/22/22 25/25/25
f 28/28/28 25/25/25 26/26/26
f 28/28/28 26/26/26 29/29/29
f 30/30/30 27/27/27 25/25/25
f 31/31/31 28/28/28 29/29/29
f 31/31/31 29/29/29 32/32/32
f 33/33/33 31/31/31 32/32/32
f 34/34/34 28/28/28 31/31/31
f 31/31/31 33/33/33 35/35/35
f 36/36/36 31/31/31 35/35/35
f 36/36/36 34/34/34 31/31/31
f 36/36/36 35/35/35 37/37/37
f 35/35/35 38/38/38 37/37/37
f 38/38/38 39/39/39 37/37/37
f 40/40/40 34/34/34 36/36/36
f 37/37/37 40/40/40 36/36/36
f 30/30/30 34/34/34 41/41/41
f 34/34/34 40/40/40 41/41/41
f 27/27/27 30/30/30 42/42/42
f 30/30/30 41/41/41 42/42/42
f 39/39/39 43/43/43 37/37/37
f 40/40/40 37/37/37 43/43/43
f 40/40/40 44/44/44 41/41/41
f 44/44/44 40/40/40 43/43/43
f 45/45/45 43/43/43 39/39/39
f 46/46/46 45/45/45 39/39/39
f 46/46/46 47/47/47 45/45/45
f 43/43/43 45/45/45 48/48/48
f 44/44/44 43/43/43 48/48/48
f 44/44/44 49/49/49 41/41/41
f 42/42/42 41/41/41 49/49/49
f 27/27/27 42/42/42 50/50/50
f 24/24/24 27/27/27 50/50/50
f 47/47/47 51/51/51 45/45/45
f 45/45/45 51/51/51 48/48/48
f 48/48/48 52/52/52 44/44/44
f 52/52/52 49/49/49 44/44/44
f 53/53/53 42/42/42 49/49/49
f 42/42/42 53/53/53 50/50/50
f 50/50/50 54/54/54 24/24/24
f 54/54/54 21/21/21 24/24/24
f 51/51/51 47/47/47 55/55/55
f 47/47/47 56/56/56 55/55/55
f 55/55/55 56/56/56 57/57/57
f 58/58/58 55/55/55 57/57/57
f 55/55/55 58/58/58 59/59/59
f 55/55/55 59/59/59 51/51/51
f 58/58/58 60/60/60 59/59/59
f 59/59/59 61/61/61 51/51/51
f 51/51/51 61/61/61 48/48/48
f 48/48/48 61/61/61 52/52/52
f 62/62/62 59/59/59 60/60/60
f 61/61/61 59/59/59 62/62/62
f 63/63/63 62/62/62 60/60/60
f 61/61/61 64/64/64 52/52/52
f 64/64/64 61/61/61 62/62/62
f 62/62/62 63/63/63 65/65/65
f 62/62/62 65/65/65 64/64/64
f 63/63/63 66/66/66 65/65/65
f 52/52/52 64/64/64 67/67/67
f 52/52/52 67/67/67 49/49/49
f 67/67/67 53/53/53 49/49/49
f 68/68/68 65/65/65 66/66/66
f 69/69/69 68/68/68 66/66/66
f 65/65/65 70/70/70 64/64/64
f 64/64/64 70/70/70 67/67/67
f 70/70/70 65/65/65 68/68/68
f 67/67/67 71/71/71 53/53/53
f 67/67/67 70/70/70 71/71/71
f 68/68/68 69/69/69 72/72/72
f 69/69/69 73/73/73 72/72/72
f 74/74/74 70/70/70 68/68/68
f 70/70/70 74/74/74 71/71/71
f 68/68/68 72/72/72 74/74/74
f 71/71/71 75/75/75 53/53/53
f 53/53/53 75/75/75 50/50/50
f 54/54/54 50/50/50 75/75/75
f 76/76/76 72/72/72 73/73/73
f 77/77/77 76/76/76 73/73/73
f 72/72/72 78/78/78 74/74/74
f 72/72/72 76/76/76 78/78/78
f 71/71/71 74/74/74 79/79/79
f 71/71/71 79/79/79 75/75/75
f 74/74/74 78/78/78 79/79/79
f 80/80/80 54/54/54 75/75/75
f 79/79/79 80/80/80 75/75/75
f 76/76/76 77/77/77 81/81/81
f 77/77/77 82/82/82 81/81/81
f 83/83/83 76/76/76 81/81/81
f 76/76/76 83/83/83 78/78/78
f 84/84/84 83/83/83 81/81/81
f 83/83/83 84/84/84 85/85/85
f 86/86/86 79/79/79 78/78/78
f 83/83/83 86/86/86 78/78/78
f 86/86/86 83/83/83 85/85/85
f 80/80/80 79/79/79 86/86/86
f 87/87/87 86/86/86 85/85/85
f 87/87/87 80/80/80 86/86/86
f 88/88/88 87/87/87 85/85/85
f 88/88/88 18/18/18 87/87/87
f 54/54/54 80/80/80 89/89/89
f 80/80/80 87/87/87 89/89/89
f 18/18/18 89/89/89 87/87/87
f 21/21/21 54/54/54 89/89/89
f 89/89/89 18/18/18 16/16/16
f 16/16/16 21/21/21 89/89/89
f 92/92/92 91/91/91 90/90/90
f 93/93/93 92/92/92 90/90/90
f 96/96/96 95/95/95 94/94/94
f 95/95/95 97/97/97 94/94/94
f 97/97/97 98/98/98 94/94/94
f 98/98/98 99/99/99 94/94/94
f 99/99/99 98/98/98 100/100/100
f 98/98/98 101/101/101 100/100/100
f 100/100/100 101/101/101 102/102/102
f 101/101/101 103/103/103 102/102/102
f 102/102/102 103/103/103 104/104/104
f 103/103/103 105/105/105 104/104/104
f 104/104/104 105/105/105 106/106/106
f 105/105/105 107/107/107 106/106/106
f 106/106/106 107/107/107 108/108/108
f 107/107/107 109/109/109 108/108/108
f 108/108/108 109/109/109 110/110/110
f 109/109/109 111/111/111 110/110/110
f 114/114/114 113/113/113 112/112/112
f 115/115/115 114/114/114 112/112/112
f 118/118/118 117/117/117 116/116/116
f 119/119/119 118/118/118 116/116/116
f 122/122/122 121/121/121 120/120/120
f 123/123/123 122/122/122 120/120/120
f 123/123/123 120/120/120 124/124/124
f 125/125/125 122/122/122 123/123/123
f 126/126/126 123/123/123 124/124/124
f 127/127/127 125/125/125 123/123/123
f 126/126/126 124/124/124 128/128/128
f 129/129/129 125/125/125 127/127/127
f 130/130/130 126/126/126 128/128/128
f 130/130/130 128/128/128 131/131/131
f 132/132/132 126/126/126 130/130/130
f 133/133/133 130/130/130 131/131/131
f 131/131/131 134/134/134 133/133/133
f 135/135/135 132/132/132 130/130/130
f 134/134/134 136/136/136 133/133/133
f 136/136/136 134/134/134 137/137/137
f 138/138/138 133/133/133 136/136/136
f 139/139/139 136/136/136 137/137/137
f 139/139/139 137/137/137 140/140/140
f 141/141/141 138/138/138 136/136/136
f 142/142/142 139/139/139 140/140/140
f 142/142/142 140/140/140 143/143/143
f 144/144/144 142/142/142 143/143/143
f 145/145/145 139/139/139 142/142/142
f 142/142/142 144/144/144 146/146/146
f 147/147/147 142/142/142 146/146/146
f 147/147/147 145/145/145 142/142/142
f 147/147/147 146/146/146 148/148/148
f 146/146/146 149/149/149 148/148/148
f 149/149/149 150/150/150 148/148/148
f 151/151/151 145/145/145 147/147/147
f 148/148/148 151/151/151 147/147/147
f 141/141/141 145/145/145 152/152/152
f 145/145/145 151/151/151 152/152/152
f 138/138/138 141/141/141 153/153/153
f 141/141/141 152/152/152 153/153/153
f 150/150/150 154/154/154 148/148/148
f 151/151/151 148/148/148 154/154/154
f 151/151/151 155/155/155 152/152/152
f 155/155/155 151/151/151 154/154/154
f 156/156/156 154/154/154 150/150/150
f 157/157/157 156/156/156 150/150/150
f 157/157/157 158/158/158 156/156/156
f 154/154/154 156/156/156 159/159/159
f 155/155/155 154/154/154 159/159/159
f 155/155/155 160/160/160 152/152/152
f 153/153/153 152/152/152 160/160/160
f 138/138/138 153/153/153 161/161/161
f 135/135/135 138/138/138 161/161/161
f 158/158/158 162/162/162 156/156/156
f 156/156/156 162/162/162 159/159/159
f 159/159/159 163/163/163 155/155/155
f 163/163/163 160/160/160 155/155/155
f 164/164/164 153/153/153 160/160/160
f 153/153/153 164/164/164 161/161/161
f 161/161/161 165/165/165 135/135/135
f 165/165/165 132/132/132 135/135/135
f 162/162/162 158/158/158 166/166/166
f 158/158/158 167/167/167 166/166/166
f 166/166/166 167/167/167 168/168/168
f 169/169/169 166/166/166 168/168/168
f 166/166/166 169/169/169 170/170/170
f 166/166/166 170/170/170 162/162/162
f 169/169/169 171/171/171 170/170/170
f 170/170/170 172/172/172 162/162/162
f 162/162/162 172/172/172 159/159/159
f 159/159/159 172/172/172 163/163/163
f 173/173/173 170/170/170 171/171/171
f 172/172/172 170/170/170 173/173/173
f 174/174/174 173/173/173 171/171/171
f 172/172/172 175/175/175 163/163/163
f 175/175/175 172/172/172 173/173/173
f 173/173/173 174/174/174 176/176/176
f 173/173/173 176/176/176 175/175/175
f 174/174/174 177/177/177 176/176/176
f 163/163/163 175/175/175 178/178/178
f 163/163/163 178/178/178 160/160/160
f 178/178/178 164/164/164 160/160/160
f 179/179/179 176/176/176 177/177/177
f 180/180/180 179/179/179 177/177/177
f 176/176/176 181/181/181 175/175/175
f 175/175/175 181/181/181 178/178/178
f 181/181/181 176/176/176 179/179/179
f 178/178/178 182/182/182 164/164/164
f 178/178/178 181/181/181 182/182/182
f 179/179/179 180/180/180 183/183/183
f 180/180/180 184/184/184 183/183/183
f 185/185/185 181/181/181 179/179/179
f 181/181/181 185/185/185 182/182/182
f 179/179/179 183/183/183 185/185/185
f 182/182/182 186/186/186 164/164/164
f 164/164/164 186/186/186 161/161/161
f 165/165/165 161/161/161 186/186/186
f 187/187/187 183/183/183 184/184/184
f 188/188/188 187/187/187 184/184/184
f 183/183/183 189/189/189 185/185/185
f 183/183/183 187/187/187 189/189/189
f 182/182/182 185/185/185 190/190/190
f 182/182/182 190/190/190 186/186/186
f 185/185/185 189/189/189 190/190/190
f 191/191/191 165/165/165 186/186/186
f 190/190/190 191/191/191 186/186/186
f 187/187/187 188/188/188 192/192/192
f 188/188/188 193/193/193 192/192/192
f 194/194/194 187/187/187 192/192/192
f 187/187/187 194/194/194 189/189/189
f 195/195/195 194/194/194 192/192/192
f 194/194/194 195/195/195 196/196/196
f 197/197/197 190/190/190 189/189/189
f 194/194/194 197/197/197 189/189/189
f 197/197/197 194/194/194 196/196/196
f 191/191/191 190/190/190 197/197/197
f 198/198/198 197/197/197 196/196/196
f 198/198/198 191/191/191 197/197/197
f 199/199/199 198/198/198 196/196/196
f 199/199/199 129/129/129 198/198/198
f 165/165/165 191/191/191 200/200/200
f 191/191/191 198/198/198 200/200/200
f 129/129/129 200/200/200 198/198/198
f 132/132/132 165/165/165 200/200/200
f 200/200/200 129/129/129 127/127/127
f 127/127/127 132/132/132 200/200/200
f 203/203/203 202/202/202 201/201/201
f 204/204/204 203/203/203 201/201/201
f 207/207/207 206/206/206 205/205/205
f 208/208/208 206/206/206 207/207/207
f 209/209/209 207/207/207 205/205/205
f 210/210/210 209/209/209 205/205/205
f 211/211/211 210/210/210 205/205/205
f 210/210/210 211/211/211 212/212/212
f 213/213/213 208/208/208 207/207/207
f 214/214/214 207/207/207 209/209/209
f 213/213/213 207/207/207 214/214/214
f 209/209/209 210/210/210 215/215/215
f 214/214/214 209/209/209 215/215/215
f 216/216/216 210/210/210 212/212/212
f 215/215/215 210/210/210 216/216/216
f 208/208/208 213/213/213 217/217/217
f 218/218/218 208/208/208 217/217/217
f 218/218/218 217/217/217 219/219/219
f 220/220/220 213/213/213 214/214/214
f 213/213/213 220/220/220 217/217/217
f 215/215/215 221/221/221 214/214/214
f 221/221/221 215/215/215 216/216/216
f 221/221/221 220/220/220 214/214/214
f 216/216/216 212/212/212 222/222/222
f 222/222/222 221/221/221 216/216/216
f 212/212/212 223/223/223 222/222/222
f 222/222/222 223/223/223 219/219/219
f 217/217/217 220/220/220 224/224/224
f 220/220/220 221/221/221 224/224/224
f 217/217/217 224/224/224 219/219/219
f 224/224/224 222/222/222 219/219/219
f 224/224/224 221/221/221 222/222/222
f 227/227/227 226/226/226 225/225/225
f 225/225/225 226/226/226 228/228/228
f 229/229/229 227/227/227 225/225/225
f 229/229/229 230/230/230 227/227/227
f 230/230/230 231/231/231 227/227/227
f 231/231/231 230/230/230 232/232/232
f 233/233/233 225/225/225 228/228/228
f 225/225/225 234/234/234 229/229/229
f 234/234/234 225/225/225 233/233/233
f 230/230/230 229/229/229 235/235/235
f 229/229/229 234/234/234 235/235/235
f 230/230/230 236/236/236 232/232/232
f 236/236/236 230/230/230 235/235/235
f 233/233/233 228/228/228 237/237/237
f 228/228/228 238/238/238 237/237/237
f 237/237/237 238/238/238 239/239/239
f 240/240/240 234/234/234 233/233/233
f 235/235/235 234/234/234 240/240/240
f 237/237/237 240/240/240 233/233/233
f 236/236/236 241/241/241 232/232/232
f 241/241/241 242/242/242 232/232/232
f 239/239/239 242/242/242 241/241/241
f 235/235/235 243/243/243 236/236/236
f 243/243/243 235/235/235 240/240/240
f 243/243/243 241/241/241 236/236/236
f 240/240/240 237/237/237 244/244/244
f 244/244/244 237/237/237 239/239/239
f 244/244/244 239/239/239 241/241/241
f 243/243/243 240/240/240 244/244/244
f 241/241/241 243/243/243 244/244/244
f 247/247/247 246/246/246 245/245/245
f 248/248/248 247/247/247 245/245/245
f 246/246/246 249/249/249 245/245/245
f 246/246/246 250/250/250 249/249/249
f 249/249/249 250/250/250 251/251/251
f 248/248/248 245/245/245 252/252/252
f 245/245/245 249/249/249 252/252/252
f 253/253/253 248/248/248 252/252/252
f 254/254/254 253/253/253 252/252/252
f 255/255/255 249/249/249 251/251/251
f 249/249/249 255/255/255 252/252/252
f 254/254/254 252/252/252 255/255/255
f 256/256/256 255/255/255 251/251/251
f 256/256/256 254/254/254 255/255/255
f 259/259/259 258/258/258 257/257/257
f 257/257/257 258/258/258 260/260/260
f 261/261/261 259/259/259 257/257/257
f 261/261/261 262/262/262 259/259/259
f 262/262/262 263/263/263 259/259/259
f 263/263/263 262/262/262 264/264/264
f 265/265/265 257/257/257 260/260/260
f 257/257/257 266/266/266 261/261/261
f 266/266/266 257/257/257 265/265/265
f 262/262/262 261/261/261 267/267/267
f 261/261/261 266/266/266 267/267/267
f 262/262/262 268/268/268 264/264/264
f 268/268/268 262/262/262 267/267/267
f 265/265/265 260/260/260 269/269/269
f 260/260/260 270/270/270 269/269/269
f 269/269/269 270/270/270 271/271/271
f 272/272/272 266/266/266 265/265/265
f 267/267/267 266/266/266 272/272/272
f 269/269/269 272/272/272 265/265/265
f 268/268/268 273/273/273 264/264/264
f 273/273/273 274/274/274 264/264/264
f 271/271/271 274/274/274 273/273/273
f 267/267/267 275/275/275 268/268/268
f 275/275/275 267/267/267 272/272/272
f 275/275/275 273/273/273 268/268/268
f 272/272/272 269/269/269 276/276/276
f 276/276/276 269/269/269 271/271/271
f 276/276/276 271/271/271 273/273/273
f 275/275/275 272/272/272 276/276/276
f 273/273/273 275/275/275 276/276/276
f 279/279/279 278/278/278 277/277/277
f 280/280/280 279/279/279 277/277/277
f 278/278/278 281/281/281 277/277/277
f 278/278/278 282/282/282 281/281/281
f 281/281/281 282/282/282 283/283/283
f 280/280/280 277/277/277 284/284/284
f 277/277/277 281/281/281 284/284/284
f 285/285/285 280/280/280 284/284/284
f 286/286/286 285/285/285 284/284/284
f 287/287/287 281/281/281 283/283/283
f 281/281/281 287/287/287 284/284/284
f 286/286/286 284/284/284 287/287/287
f 288/288/288 287/287/287 283/283/283
f 288/288/288 286/286/286 287/287/287
f 291/291/291 290/290/290 289/289/289
f 289/289/289 290/290/290 292/292/292
f 293/293/293 291/291/291 289/289/289
f 293/293/293 294/294/294 291/291/291
f 294/294/294 295/295/295 291/291/291
f 295/295/295 294/294/294 296/296/296
f 297/297/297 289/289/289 292/292/292
f 289/289/289 298/298/298 293/293/293
f 298/298/298 289/289/289 297/297/297
f 294/294/294 293/293/293 299/299/299
f 293/293/293 298/298/298 299/299/299
f 294/294/294 300/300/300 296/296/296
f 300/300/300 294/294/294 299/299/299
f 297/297/297 292/292/292 301/301/301
f 292/292/292 302/302/302 301/301/301
f 301/301/301 302/302/302 303/303/303
f 304/304/304 298/298/298 297/297/297
f 299/299/299 298/298/298 304/304/304
f 301/301/301 304/304/304 297/297/297
f 300/300/300 305/305/305 296/296/296
f 305/305/305 306/306/306 296/296/296
f 303/303/303 306/306/306 305/305/305
f 299/299/299 307/307/307 300/300/300
f 307/307/307 299/299/299 304/304/304
f 307/307/307 305/305/305 300/300/300
f 304/304/304 301/301/301 308/308/308
f 308/308/308 301/301/301 303/303/303
f 308/308/308 303/303/303 305/305/305
f 307/307/307 304/304/304 308/308/308
f 305/305/305 307/307/307 308/308/308
f 311/311/311 310/310/310 309/309/309
f 312/312/312 311/311/311 309/309/309
f 310/310/310 313/313/313 309/309/309
f 310/310/310 314/314/314 313/313/313
f 313/313/313 314/314/314 315/315/315
f 312/312/312 309/309/309 316/316/316
f 309/309/309 313/313/313 316/316/316
f 317/317/317 312/312/312 316/316/316
f 318/318/318 317/317/317 316/316/316
f 319/319/319 313/313/313 315/315/315
f 313/313/313 319/319/319 316/316/316
f 318/318/318 316/316/316 319/319/319
f 320/320/320 319/319/319 315/315/315
f 320/320/320 318/318/318 319/319/319
f 323/323/323 322/322/322 321/321/321
f 321/321/321 322/322/322 324/324/324
f 325/325/325 323/323/323 321/321/321
f 325/325/325 326/326/326 323/323/323
f 326/326/326 327/327/327 323/323/323
f 327/327/327 326/326/326 328/328/328
f 329/329/329 321/321/321 324/324/324
f 321/321/321 330/330/330 325/325/325
f 330/330/330 321/321/321 329/329/329
f 326/326/326 325/325/325 331/331/331
f 325/325/325 330/330/330 331/331/331
f 326/326/326 332/332/332 328/328/328
f 332/332/332 326/326/326 331/331/331
f 329/329/329 324/324/324 333/333/333
f 324/324/324 334/334/334 333/333/333
f 333/333/333 334/334/334 335/335/335
f 336/336/336 330/330/330 329/329/329
f 331/331/331 330/330/330 336/336/336
f 333/333/333 336/336/336 329/329/329
f 332/332/332 337/337/337 328/328/328
f 337/337/337 338/338/338 328/328/328
f 335/335/335 338/338/338 337/337/337
f 331/331/331 339/339/339 332/332/332
f 339/339/339 331/331/331 336/336/336
f 339/339/339 337/337/337 332/332/332
f 336/336/336 333/333/333 340/340/340
f 340/340/340 333/333/333 335/335/335
f 340/340/340 335/335/335 337/337/337
f 339/339/339 336/336/336 340/340/340
f 337/337/337 339/339/339 340/340/340
f 343/343/343 342/342/342 341/341/341
f 344/344/344 343/343/343 341/341/341
f 342/342/342 345/345/345 341/341/341
f 342/342/342 346/346/346 345/345/345
f 345/345/345 346/346/346 347/347/347
f 344/344/344 341/341/341 348/348/348
f 341/341/341 345/345/345 348/348/348
f 349/349/349 344/344/344 348/348/348
f 350/350/350 349/349/349 348/348/348
f 351/351/351 345/345/345 347/347/347
f 345/345/345 351/351/351 348/348/348
f 350/350/350 348/348/348 351/351/351
f 352/352/352 351/351/351 347/347/347
f 352/352/352 350/350/350 351/351/351
f 355/355/355 354/354/354 353/353/353
f 354/354/354 356/356/356 353/353/353
f 357/357/357 355/355/355 353/353/353
f 358/358/358 355/355/355 357/357/357
f 359/359/359 358/358/358 357/357/357
f 353/353/353 356/356/356 360/360/360
f 357/357/357 353/353/353 360/360/360
f 356/356/356 361/361/361 360/360/360
f 362/362/362 360/360/360 361/361/361
f 363/363/363 359/359/359 357/357/357
f 363/363/363 357/357/357 360/360/360
f 360/360/360 362/362/362 363/363/363
f 364/364/364 359/359/359 363/363/363
f 362/362/362 364/364/364 363/363/363
f 367/367/367 366/366/366 365/365/365
f 365/365/365 366/366/366 368/368/368
f 369/369/369 367/367/367 365/365/365
f 367/367/367 370/370/370 366/366/366
f 369/369/369 365/365/365 371/371/371
f 371/371/371 365/365/365 368/368/368
f 372/372/372 369/369/369 371/371/371
f 370/370/370 373/373/373 366/366/366
f 366/366/366 373/373/373 368/368/368
f 373/373/373 370/370/370 374/374/374
f 372/372/372 371/371/371 375/375/375
f 375/375/375 371/371/371 368/368/368
f 376/376/376 372/372/372 375/375/375
f 377/377/377 373/373/373 374/374/374
f 373/373/373 377/377/377 368/368/368
f 374/374/374 378/378/378 377/377/377
f 376/376/376 375/375/375 379/379/379
f 379/379/379 375/375/375 368/368/368
f 380/380/380 376/376/376 379/379/379
f 378/378/378 381/381/381 377/377/377
f 377/377/377 381/381/381 368/368/368
f 381/381/381 379/379/379 368/368/368
f 380/380/380 379/379/379 381/381/381
f 378/378/378 380/380/380 381/381/381
f 384/384/384 383/383/383 382/382/382
f 385/385/385 384/384/384 382/382/382
f 384/384/384 385/385/385 386/386/386
f 385/385/385 382/382/382 387/387/387
f 384/384/384 388/388/388 383/383/383
f 388/388/388 384/384/384 386/386/386
f 388/388/388 389/389/389 383/383/383
f 390/390/390 385/385/385 387/387/387
f 385/385/385 390/390/390 386/386/386
f 390/390/390 387/387/387 391/391/391
f 389/389/389 388/388/388 392/392/392
f 392/392/392 388/388/388 386/386/386
f 393/393/393 389/389/389 392/392/392
f 394/394/394 390/390/390 391/391/391
f 390/390/390 394/394/394 386/386/386
f 394/394/394 391/391/391 395/395/395
f 392/392/392 396/396/396 393/393/393
f 396/396/396 392/392/392 386/386/386
f 396/396/396 397/397/397 393/393/393
f 398/398/398 395/395/395 397/397/397
f 398/398/398 394/394/394 395/395/395
f 394/394/394 398/398/398 386/386/386
f 396/396/396 398/398/398 397/397/397
f 398/398/398 396/396/396 386/386/386
g item_07item_07_mobile_1
f 401/401/401 400/400/400 399/399/399
f 401/401/401 402/402/402 400/400/400
f 400/400/400 403/403/403 399/399/399
f 399/399/399 403/403/403 404/404/404
f 405/405/405 399/399/399 404/404/404
f 405/405/405 404/404/404 406/406/406
f 402/402/402 407/407/407 400/400/400
f 408/408/408 403/403/403 400/400/400
f 400/400/400 407/407/407 408/408/408
f 404/404/404 403/403/403 409/409/409
f 403/403/403 408/408/408 409/409/409
f 404/404/404 410/410/410 406/406/406
f 409/409/409 410/410/410 404/404/404
f 411/411/411 407/407/407 402/402/402
f 412/412/412 411/411/411 402/402/402
f 412/412/412 413/413/413 411/411/411
f 407/407/407 414/414/414 408/408/408
f 414/414/414 407/407/407 411/411/411
f 409/409/409 408/408/408 415/415/415
f 410/410/410 409/409/409 415/415/415
f 408/408/408 414/414/414 415/415/415
f 406/406/406 410/410/410 416/416/416
f 416/416/416 410/410/410 415/415/415
f 417/417/417 406/406/406 416/416/416
f 417/417/417 416/416/416 413/413/413
f 414/414/414 411/411/411 418/418/418
f 415/415/415 414/414/414 418/418/418
f 413/413/413 418/418/418 411/411/411
f 416/416/416 418/418/418 413/413/413
f 415/415/415 418/418/418 416/416/416
f 421/421/421 420/420/420 419/419/419
f 421/421/421 422/422/422 420/420/420
f 420/420/420 423/423/423 419/419/419
f 419/419/419 423/423/423 424/424/424
f 425/425/425 419/419/419 424/424/424
f 425/425/425 424/424/424 426/426/426
f 422/422/422 427/427/427 420/420/420
f 428/428/428 423/423/423 420/420/420
f 420/420/420 427/427/427 428/428/428
f 424/424/424 423/423/423 429/429/429
f 423/423/423 428/428/428 429/429/429
f 424/424/424 430/430/430 426/426/426
f 429/429/429 430/430/430 424/424/424
f 431/431/431 427/427/427 422/422/422
f 432/432/432 431/431/431 422/422/422
f 432/432/432 433/433/433 431/431/431
f 427/427/427 434/434/434 428/428/428
f 434/434/434 427/427/427 431/431/431
f 429/429/429 428/428/428 435/435/435
f 430/430/430 429/429/429 435/435/435
f 428/428/428 434/434/434 435/435/435
f 426/426/426 430/430/430 436/436/436
f 436/436/436 430/430/430 435/435/435
f 437/437/437 426/426/426 436/436/436
f 437/437/437 436/436/436 433/433/433
f 434/434/434 431/431/431 438/438/438
f 435/435/435 434/434/434 438/438/438
f 433/433/433 438/438/438 431/431/431
f 436/436/436 438/438/438 433/433/433
f 435/435/435 438/438/438 436/436/436
f 441/441/441 440/440/440 439/439/439
f 442/442/442 441/441/441 439/439/439
f 442/442/442 439/439/439 443/443/443
f 441/441/441 444/444/444 440/440/440
f 444/444/444 445/445/445 440/440/440
f 446/446/446 442/442/442 443/443/443
f 446/446/446 443/443/443 447/447/447
f 448/448/448 446/446/446 447/447/447
f 448/448/448 447/447/447 449/449/449
f 444/444/444 441/441/441 450/450/450
f 450/450/450 441/441/441 442/442/442
f 442/442/442 446/446/446 451/451/451
f 451/451/451 446/446/446 448/448/448
f 445/445/445 444/444/444 452/452/452
f 453/453/453 445/445/445 452/452/452
f 452/452/452 454/454/454 453/453/453
f 454/454/454 455/455/455 453/453/453
f 456/456/456 449/449/449 455/455/455
f 456/456/456 448/448/448 449/449/449
f 454/454/454 456/456/456 455/455/455
f 457/457/457 452/452/452 444/444/444
f 454/454/454 452/452/452 457/457/457
f 448/448/448 456/456/456 458/458/458
f 458/458/458 456/456/456 454/454/454
f 459/459/459 444/444/444 450/450/450
f 459/459/459 457/457/457 444/444/444
f 460/460/460 450/450/450 442/442/442
f 460/460/460 442/442/442 451/451/451
f 461/461/461 451/451/451 448/448/448
f 461/461/461 448/448/448 458/458/458
f 462/462/462 454/454/454 457/457/457
f 462/462/462 458/458/458 454/454/454
f 457/457/457 459/459/459 463/463/463
f 462/462/462 457/457/457 463/463/463
f 450/450/450 464/464/464 459/459/459
f 464/464/464 450/450/450 460/460/460
f 459/459/459 464/464/464 463/463/463
f 451/451/451 465/465/465 460/460/460
f 465/465/465 464/464/464 460/460/460
f 465/465/465 451/451/451 461/461/461
f 463/463/463 464/464/464 465/465/465
f 466/466/466 458/458/458 462/462/462
f 458/458/458 466/466/466 461/461/461
f 466/466/466 465/465/465 461/461/461
f 463/463/463 466/466/466 462/462/462
f 466/466/466 463/463/463 465/465/465
f 469/469/469 468/468/468 467/467/467
f 470/470/470 469/469/469 467/467/467
f 470/470/470 467/467/467 471/471/471
f 469/469/469 472/472/472 468/468/468
f 472/472/472 473/473/473 468/468/468
f 474/474/474 470/470/470 471/471/471
f 474/474/474 471/471/471 475/475/475
f 476/476/476 474/474/474 475/475/475
f 476/476/476 475/475/475 477/477/477
f 472/472/472 469/469/469 478/478/478
f 478/478/478 469/469/469 470/470/470
f 470/470/470 474/474/474 479/479/479
f 479/479/479 474/474/474 476/476/476
f 473/473/473 472/472/472 480/480/480
f 481/481/481 473/473/473 480/480/480
f 480/480/480 482/482/482 481/481/481
f 482/482/482 483/483/483 481/481/481
f 484/484/484 477/477/477 483/483/483
f 484/484/484 476/476/476 477/477/477
f 482/482/482 484/484/484 483/483/483
f 485/485/485 480/480/480 472/472/472
f 482/482/482 480/480/480 485/485/485
f 476/476/476 484/484/484 486/486/486
f 486/486/486 484/484/484 482/482/482
f 487/487/487 472/472/472 478/478/478
f 487/487/487 485/485/485 472/472/472
f 488/488/488 478/478/478 470/470/470
f 488/488/488 470/470/470 479/479/479
f 489/489/489 479/479/479 476/476/476
f 489/489/489 476/476/476 486/486/486
f 490/490/490 482/482/482 485/485/485
f 490/490/490 486/486/486 482/482/482
f 485/485/485 487/487/487 491/491/491
f 490/490/490 485/485/485 491/491/491
f 478/478/478 492/492/492 487/487/487
f 492/492/492 478/478/478 488/488/488
f 487/487/487 492/492/492 491/491/491
f 479/479/479 493/493/493 488/488/488
f 493/493/493 492/492/492 488/488/488
f 493/493/493 479/479/479 489/489/489
f 491/491/491 492/492/492 493/493/493
f 494/494/494 486/486/486 490/490/490
f 486/486/486 494/494/494 489/489/489
f 494/494/494 493/493/493 489/489/489
f 491/491/491 494/494/494 490/490/490
f 494/494/494 491/491/491 493/493/493
