g item_16item_16_low_mobile
v -0.651535009 3.13571283 0.328636632
v -0.554081944 3.23336041 0.554081944
v -0.328636632 3.13571283 0.651535009
v -0.355090956 2.95636806 0.355090956
v -0.699775248 3.0876671 9.72585474E-05
v -9.72585474E-05 3.0876671 0.699775248
v -0.381545281 2.89587325 9.72585474E-05
v -0.651535009 3.13571283 -0.328636632
v -9.72585474E-05 2.89587325 0.381545281
v 0.328636632 3.13571283 0.651535009
v -0.355090956 2.95636806 -0.355090956
v -0.554081944 3.23336041 -0.554081944
v 0.355090956 2.95636806 0.355090956
v 0.554081944 3.23336041 0.554081944
v 0.651535009 3.13571283 0.328636632
v -9.72585474E-05 2.83168261 9.72585474E-05
v 0.381545281 2.89587325 9.72585474E-05
v 0.699775248 3.0876671 9.72585474E-05
v -0.328636632 3.13571283 -0.651535009
v -0.651535009 3.4586112 -0.651535009
v -9.72585474E-05 2.89587325 -0.381545281
v 0.355090956 2.95636806 -0.355090956
v 0.651535009 3.13571283 -0.328636632
v -0.355090956 3.43215688 -0.831074287
v -0.699775248 3.78734509 -0.699775248
v -9.72585474E-05 3.0876671 -0.699775248
v 0.328636632 3.13571283 -0.651535009
v 0.554081944 3.23336041 -0.554081944
v -0.381545281 3.78734509 -0.891374587
v -0.651535009 4.11588447 -0.651535009
v -9.72585474E-05 3.40589707 -0.891374587
v 0.355090956 3.43215688 -0.831074287
v 0.651535009 3.4586112 -0.651535009
v -0.355090956 4.14233879 -0.831074287
v -0.554081944 4.34132978 -0.554081944
v -9.72585474E-05 3.78734509 -0.955565228
v 0.381545281 3.78734509 -0.891374587
v 0.699775248 3.78734509 -0.699775248
v -0.328636632 4.43878284 -0.651535009
v -0.651535009 4.43878284 -0.328636632
v -9.72585474E-05 4.16879312 -0.891374587
v 0.355090956 4.14233879 -0.831074287
v 0.651535009 4.11588447 -0.651535009
v -0.355090956 4.61832212 -0.355090956
v -0.699775248 4.48702308 9.72585474E-05
v -9.72585474E-05 4.48702308 -0.699775248
v 0.328636632 4.43878284 -0.651535009
v 0.554081944 4.34132978 -0.554081944
v -0.381545281 4.67881694 9.72585474E-05
v -0.651535009 4.43878284 0.328636632
v -9.72585474E-05 4.67881694 -0.381545281
v 0.355090956 4.61832212 -0.355090956
v 0.651535009 4.43878284 -0.328636632
v -0.355090956 4.61832212 0.355090956
v -0.554081944 4.34132978 0.554081944
v -9.72585474E-05 4.74300758 9.72585474E-05
v 0.381545281 4.67881694 9.72585474E-05
v 0.699775248 4.48702308 9.72585474E-05
v -9.72585474E-05 4.67881694 0.381545281
v 0.355090956 4.61832212 0.355090956
v 0.651535009 4.43878284 0.328636632
v -0.328636632 4.43878284 0.651535009
v -9.72585474E-05 4.48702308 0.699775248
v 0.328636632 4.43878284 0.651535009
v 0.554081944 4.34132978 0.554081944
v -0.651535009 4.11588447 0.651535009
v -0.355090956 4.14233879 0.831074287
v -9.72585474E-05 4.16879312 0.891374587
v 0.355090956 4.14233879 0.831074287
v -0.831074287 4.14233879 0.355090956
v -0.651535009 4.43878284 0.328636632
v 0.651535009 4.11588447 0.651535009
v 0.651535009 4.43878284 0.328636632
v -0.891374587 4.16879312 9.72585474E-05
v -0.699775248 4.48702308 9.72585474E-05
v 0.831074287 4.14233879 0.355090956
v 0.699775248 4.48702308 9.72585474E-05
v -0.831074287 4.14233879 -0.355090956
v -0.651535009 4.43878284 -0.328636632
v -0.651535009 4.11588447 -0.651535009
v -0.554081944 4.34132978 -0.554081944
v -0.699775248 3.78734509 -0.699775248
v -0.891374587 3.78734509 -0.381545281
v -0.651535009 3.4586112 -0.651535009
v -0.955565228 3.78734509 9.72585474E-05
v -0.831074287 3.43215688 -0.355090956
v -0.554081944 3.23336041 -0.554081944
v -0.651535009 3.13571283 -0.328636632
v -0.891374587 3.40589707 9.72585474E-05
v -0.699775248 3.0876671 9.72585474E-05
v -0.891374587 3.78734509 0.381545281
v -0.831074287 3.43215688 0.355090956
v -0.651535009 3.13571283 0.328636632
v -0.699775248 3.78734509 0.699775248
v -0.651535009 3.4586112 0.651535009
v -0.554081944 3.23336041 0.554081944
v -0.381545281 3.78734509 0.891374587
v -0.355090956 3.43215688 0.831074287
v -0.328636632 3.13571283 0.651535009
v -9.72585474E-05 3.78734509 0.955565228
v -9.72585474E-05 3.40589707 0.891374587
v -9.72585474E-05 3.0876671 0.699775248
v 0.381545281 3.78734509 0.891374587
v 0.355090956 3.43215688 0.831074287
v 0.328636632 3.13571283 0.651535009
v 0.699775248 3.78734509 0.699775248
v 0.651535009 3.4586112 0.651535009
v 0.554081944 3.23336041 0.554081944
v 0.891374587 3.78734509 0.381545281
v 0.831074287 3.43215688 0.355090956
v 0.651535009 3.13571283 0.328636632
v 0.891374587 4.16879312 9.72585474E-05
v 0.651535009 4.43878284 -0.328636632
v 0.891374587 3.40589707 9.72585474E-05
v 0.699775248 3.0876671 9.72585474E-05
v 0.955565228 3.78734509 9.72585474E-05
v 0.831074287 4.14233879 -0.355090956
v 0.554081944 4.34132978 -0.554081944
v 0.651535009 4.11588447 -0.651535009
v 0.891374587 3.78734509 -0.381545281
v 0.699775248 3.78734509 -0.699775248
v 0.831074287 3.43215688 -0.355090956
v 0.651535009 3.13571283 -0.328636632
v 0.651535009 3.4586112 -0.651535009
v 0.554081944 3.23336041 -0.554081944
v -0.981046967 4.4860505 0.750349693
v -0.496893918 4.12969518 0.597264739
v -0.499228124 4.12677742 -0.592985363
v -0.983770207 4.48254919 -0.745681283
v -1.67761268 5.01961089 1.03920758
v -1.68111399 5.01494248 -1.03356658
v -2.39888207 5.5249663 1.29849887
v -2.40296693 5.5193253 -1.2920798
v -3.18745437 5.92606055 1.44030183
v -3.19212278 5.919836 -1.43388276
v -3.92078382 6.18963121 1.53289197
v -3.92564675 6.18282311 -1.52744549
v -4.3131248 6.17173564 1.55954081
v -4.3187658 6.16492754 -1.55545595
v -4.71305195 6.03790788 -1.57626928
v -4.70857805 6.04432694 1.57860348
v -5.00638373 5.82841297 1.584439
v -5.01124665 5.82141035 -1.58404996
v -5.21296088 5.41720383 1.58404996
v -5.21801832 5.41039573 -1.58618965
v -5.20128985 4.95872704 1.58191027
v -5.2063473 4.95191894 -1.58657868
v -4.94822311 4.48682857 1.5696557
v -4.95328056 4.48002047 -1.57626928
v -4.55860537 4.06686616 1.52627838
v -4.5634683 4.06025258 -1.53405907
v -3.96746792 3.73501999 1.43329921
v -3.9705802 3.72840641 -1.44088538
v -3.15302485 3.52105119 1.29227432
v -3.15710971 3.51541019 -1.29849887
v -2.35180893 3.46483575 1.13510451
v -2.35531024 3.45977831 -1.13938388
v -1.56129146 3.46969868 0.920357634
v -1.56440373 3.46561382 -0.922302805
v -0.432314243 3.48720522 0.673709958
v -0.43387038 3.48409294 -0.672931889
v -0.722144714 4.47068365 0.760075548
v -0.20356214 4.06900585 -0.626247786
v -0.202784071 4.07036747 0.628776509
v -0.7231173 4.46893299 -0.757352308
v -1.53172486 5.07115792 1.07208097
v -1.53308648 5.06882371 -1.06916321
v -2.34130501 5.63798073 1.36755243
v -2.34305566 5.63486846 -1.36444016
v -3.22771941 6.14080742 1.51713608
v -3.22966458 6.13750063 -1.51382929
v -3.96960761 6.3738389 1.61497818
v -3.9717473 6.37014308 -1.61225494
v -4.51367192 6.35399816 1.64648995
v -4.51658968 6.35010782 -1.64454478
v -4.91748941 6.22308815 1.66399649
v -4.91885103 6.21978136 -1.66263487
v -5.23941521 5.97877468 1.67080459
v -5.24155489 5.97507886 -1.67061007
v -5.48839709 5.51660207 1.6709991
v -5.49053677 5.51290624 -1.6721662
v -5.48975871 5.00132628 1.66944297
v -5.49189839 4.99743594 -1.67177717
v -5.26159015 4.47087816 1.65718839
v -5.26372984 4.46718234 -1.66030066
v -4.71927649 3.94081908 1.61167139
v -4.72141618 3.93712326 -1.61556173
v -4.03068598 3.56501205 1.51363477
v -4.03263115 3.56151075 -1.5173306
v -3.18862148 3.38566729 1.36444016
v -3.19037213 3.38255502 -1.36755243
v -2.28781281 3.32244924 1.19832256
v -2.28936895 3.31992051 -1.20026773
v -1.39945324 3.32828475 0.963929463
v -1.40062034 3.32614506 -0.964513014
v -0.28720449 3.34832001 0.732259603
v -0.287982559 3.34656936 -0.731481535
v -0.722144714 4.47068365 0.760075548
v -0.202784071 4.07036747 0.628776509
v -0.496893918 4.12969518 0.597264739
v -0.981046967 4.4860505 0.750349693
v -1.53172486 5.07115792 1.07208097
v -1.67761268 5.01961089 1.03920758
v -2.34130501 5.63798073 1.36755243
v -2.39888207 5.5249663 1.29849887
v -3.22771941 6.14080742 1.51713608
v -3.18745437 5.92606055 1.44030183
v -3.96960761 6.3738389 1.61497818
v -3.92078382 6.18963121 1.53289197
v -4.51367192 6.35399816 1.64648995
v -4.3131248 6.17173564 1.55954081
v -4.70857805 6.04432694 1.57860348
v -4.91748941 6.22308815 1.66399649
v -5.23941521 5.97877468 1.67080459
v -5.00638373 5.82841297 1.584439
v -5.48839709 5.51660207 1.6709991
v -5.21296088 5.41720383 1.58404996
v -5.48975871 5.00132628 1.66944297
v -5.20128985 4.95872704 1.58191027
v -5.26159015 4.47087816 1.65718839
v -4.94822311 4.48682857 1.5696557
v -4.71927649 3.94081908 1.61167139
v -4.55860537 4.06686616 1.52627838
v -4.03068598 3.56501205 1.51363477
v -3.96746792 3.73501999 1.43329921
v -3.18862148 3.38566729 1.36444016
v -3.15302485 3.52105119 1.29227432
v -2.28781281 3.32244924 1.19832256
v -2.35180893 3.46483575 1.13510451
v -1.39945324 3.32828475 0.963929463
v -1.56129146 3.46969868 0.920357634
v -0.28720449 3.34832001 0.732259603
v -0.432314243 3.48720522 0.673709958
v -0.20356214 4.06900585 -0.626247786
v -0.983770207 4.48254919 -0.745681283
v -0.499228124 4.12677742 -0.592985363
v -0.7231173 4.46893299 -0.757352308
v -1.68111399 5.01494248 -1.03356658
v -1.53308648 5.06882371 -1.06916321
v -2.40296693 5.5193253 -1.2920798
v -2.34305566 5.63486846 -1.36444016
v -3.19212278 5.919836 -1.43388276
v -3.22966458 6.13750063 -1.51382929
v -3.92564675 6.18282311 -1.52744549
v -3.9717473 6.37014308 -1.61225494
v -4.3187658 6.16492754 -1.55545595
v -4.51658968 6.35010782 -1.64454478
v -4.91885103 6.21978136 -1.66263487
v -4.71305195 6.03790788 -1.57626928
v -5.01124665 5.82141035 -1.58404996
v -5.24155489 5.97507886 -1.67061007
v -5.21801832 5.41039573 -1.58618965
v -5.49053677 5.51290624 -1.6721662
v -5.2063473 4.95191894 -1.58657868
v -5.49189839 4.99743594 -1.67177717
v -4.95328056 4.48002047 -1.57626928
v -5.26372984 4.46718234 -1.66030066
v -4.5634683 4.06025258 -1.53405907
v -4.72141618 3.93712326 -1.61556173
v -3.9705802 3.72840641 -1.44088538
v -4.03263115 3.56151075 -1.5173306
v -3.15710971 3.51541019 -1.29849887
v -3.19037213 3.38255502 -1.36755243
v -2.35531024 3.45977831 -1.13938388
v -2.28936895 3.31992051 -1.20026773
v -1.56440373 3.46561382 -0.922302805
v -1.40062034 3.32614506 -0.964513014
v -0.43387038 3.48409294 -0.672931889
v -0.287982559 3.34656936 -0.731481535
v 0.981046967 4.4860505 0.750349693
v 0.499228124 4.12677742 -0.592985363
v 0.496893918 4.12969518 0.597264739
v 0.983770207 4.48254919 -0.745681283
v 1.67761268 5.01961089 1.03920758
v 1.68111399 5.01494248 -1.03356658
v 2.39888207 5.5249663 1.29849887
v 2.40296693 5.5193253 -1.2920798
v 3.18745437 5.92606055 1.44030183
v 3.19212278 5.919836 -1.43388276
v 3.92078382 6.18963121 1.53289197
v 3.92564675 6.18282311 -1.52744549
v 4.3131248 6.17173564 1.55954081
v 4.3187658 6.16492754 -1.55545595
v 4.71305195 6.03790788 -1.57626928
v 4.70857805 6.04432694 1.57860348
v 5.00638373 5.82841297 1.584439
v 5.01124665 5.82141035 -1.58404996
v 5.21296088 5.41720383 1.58404996
v 5.21801832 5.41039573 -1.58618965
v 5.20128985 4.95872704 1.58191027
v 5.2063473 4.95191894 -1.58657868
v 4.94822311 4.48682857 1.5696557
v 4.95328056 4.48002047 -1.57626928
v 4.55860537 4.06686616 1.52627838
v 4.5634683 4.06025258 -1.53405907
v 3.96746792 3.73501999 1.43329921
v 3.9705802 3.72840641 -1.44088538
v 3.15302485 3.52105119 1.29227432
v 3.15710971 3.51541019 -1.29849887
v 2.35180893 3.46483575 1.13510451
v 2.35531024 3.45977831 -1.13938388
v 1.56129146 3.46969868 0.920357634
v 1.56440373 3.46561382 -0.922302805
v 0.432314243 3.48720522 0.673709958
v 0.43387038 3.48409294 -0.672931889
v 0.722144714 4.47068365 0.760075548
v 0.202784071 4.07036747 0.628776509
v 0.20356214 4.06900585 -0.626247786
v 0.7231173 4.46893299 -0.757352308
v 1.53172486 5.07115792 1.07208097
v 1.53308648 5.06882371 -1.06916321
v 2.34130501 5.63798073 1.36755243
v 2.34305566 5.63486846 -1.36444016
v 3.22771941 6.14080742 1.51713608
v 3.22966458 6.13750063 -1.51382929
v 3.96960761 6.3738389 1.61497818
v 3.9717473 6.37014308 -1.61225494
v 4.51367192 6.35399816 1.64648995
v 4.51658968 6.35010782 -1.64454478
v 4.91748941 6.22308815 1.66399649
v 4.91885103 6.21978136 -1.66263487
v 5.23941521 5.97877468 1.67080459
v 5.24155489 5.97507886 -1.67061007
v 5.48839709 5.51660207 1.6709991
v 5.49053677 5.51290624 -1.6721662
v 5.48975871 5.00132628 1.66944297
v 5.49189839 4.99743594 -1.67177717
v 5.26159015 4.47087816 1.65718839
v 5.26372984 4.46718234 -1.66030066
v 4.71927649 3.94081908 1.61167139
v 4.72141618 3.93712326 -1.61556173
v 4.03068598 3.56501205 1.51363477
v 4.03263115 3.56151075 -1.5173306
v 3.18862148 3.38566729 1.36444016
v 3.19037213 3.38255502 -1.36755243
v 2.28781281 3.32244924 1.19832256
v 2.28936895 3.31992051 -1.20026773
v 1.39945324 3.32828475 0.963929463
v 1.40062034 3.32614506 -0.964513014
v 0.28720449 3.34832001 0.732259603
v 0.287982559 3.34656936 -0.731481535
v 0.722144714 4.47068365 0.760075548
v 0.496893918 4.12969518 0.597264739
v 0.202784071 4.07036747 0.628776509
v 0.981046967 4.4860505 0.750349693
v 1.53172486 5.07115792 1.07208097
v 1.67761268 5.01961089 1.03920758
v 2.34130501 5.63798073 1.36755243
v 2.39888207 5.5249663 1.29849887
v 3.22771941 6.14080742 1.51713608
v 3.18745437 5.92606055 1.44030183
v 3.96960761 6.3738389 1.61497818
v 3.92078382 6.18963121 1.53289197
v 4.51367192 6.35399816 1.64648995
v 4.3131248 6.17173564 1.55954081
v 4.70857805 6.04432694 1.57860348
v 4.91748941 6.22308815 1.66399649
v 5.23941521 5.97877468 1.67080459
v 5.00638373 5.82841297 1.584439
v 5.48839709 5.51660207 1.6709991
v 5.21296088 5.41720383 1.58404996
v 5.48975871 5.00132628 1.66944297
v 5.20128985 4.95872704 1.58191027
v 5.26159015 4.47087816 1.65718839
v 4.94822311 4.48682857 1.5696557
v 4.71927649 3.94081908 1.61167139
v 4.55860537 4.06686616 1.52627838
v 4.03068598 3.56501205 1.51363477
v 3.96746792 3.73501999 1.43329921
v 3.18862148 3.38566729 1.36444016
v 3.15302485 3.52105119 1.29227432
v 2.28781281 3.32244924 1.19832256
v 2.35180893 3.46483575 1.13510451
v 1.39945324 3.32828475 0.963929463
v 1.56129146 3.46969868 0.920357634
v 0.28720449 3.34832001 0.732259603
v 0.432314243 3.48720522 0.673709958
v 0.20356214 4.06900585 -0.626247786
v 0.499228124 4.12677742 -0.592985363
v 0.983770207 4.48254919 -0.745681283
v 0.7231173 4.46893299 -0.757352308
v 1.68111399 5.01494248 -1.03356658
v 1.53308648 5.06882371 -1.06916321
v 2.40296693 5.5193253 -1.2920798
v 2.34305566 5.63486846 -1.36444016
v 3.19212278 5.919836 -1.43388276
v 3.22966458 6.13750063 -1.51382929
v 3.92564675 6.18282311 -1.52744549
v 3.9717473 6.37014308 -1.61225494
v 4.3187658 6.16492754 -1.55545595
v 4.51658968 6.35010782 -1.64454478
v 4.91885103 6.21978136 -1.66263487
v 4.71305195 6.03790788 -1.57626928
v 5.01124665 5.82141035 -1.58404996
v 5.24155489 5.97507886 -1.67061007
v 5.21801832 5.41039573 -1.58618965
v 5.49053677 5.51290624 -1.6721662
v 5.2063473 4.95191894 -1.58657868
v 5.49189839 4.99743594 -1.67177717
v 4.95328056 4.48002047 -1.57626928
v 5.26372984 4.46718234 -1.66030066
v 4.5634683 4.06025258 -1.53405907
v 4.72141618 3.93712326 -1.61556173
v 3.9705802 3.72840641 -1.44088538
v 4.03263115 3.56151075 -1.5173306
v 3.15710971 3.51541019 -1.29849887
v 3.19037213 3.38255502 -1.36755243
v 2.35531024 3.45977831 -1.13938388
v 2.28936895 3.31992051 -1.20026773
v 1.56440373 3.46561382 -0.922302805
v 1.40062034 3.32614506 -0.964513014
v 0.43387038 3.48409294 -0.672931889
v 0.287982559 3.34656936 -0.731481535
v -0.750349693 4.4860505 -0.981046967
v -0.597264739 4.12969518 -0.496893918
v 0.592985363 4.12677742 -0.499228124
v 0.745681283 4.48254919 -0.983770207
v -1.03920758 5.01961089 -1.67761268
v 1.03356658 5.01494248 -1.68111399
v -1.29849887 5.5249663 -2.39888207
v 1.2920798 5.5193253 -2.40296693
v -1.44030183 5.92606055 -3.18745437
v 1.43388276 5.919836 -3.19212278
v -1.53289197 6.18963121 -3.92078382
v 1.52744549 6.18282311 -3.92564675
v -1.55954081 6.17173564 -4.3131248
v 1.55545595 6.16492754 -4.3187658
v 1.57626928 6.03790788 -4.71305195
v -1.57860348 6.04432694 -4.70857805
v -1.584439 5.82841297 -5.00638373
v 1.58404996 5.82141035 -5.01124665
v -1.58404996 5.41720383 -5.21296088
v 1.58618965 5.41039573 -5.21801832
v -1.58191027 4.95872704 -5.20128985
v 1.58657868 4.95191894 -5.2063473
v -1.5696557 4.48682857 -4.94822311
v 1.57626928 4.48002047 -4.95328056
v -1.52627838 4.06686616 -4.55860537
v 1.53405907 4.06025258 -4.5634683
v -1.43329921 3.73501999 -3.96746792
v 1.44088538 3.72840641 -3.9705802
v -1.29227432 3.52105119 -3.15302485
v 1.29849887 3.51541019 -3.15710971
v -1.13510451 3.46483575 -2.35180893
v 1.13938388 3.45977831 -2.35531024
v -0.920357634 3.46969868 -1.56129146
v 0.922302805 3.46561382 -1.56440373
v -0.673709958 3.48720522 -0.432314243
v 0.672931889 3.48409294 -0.43387038
v -0.760075548 4.47068365 -0.722144714
v 0.626247786 4.06900585 -0.20356214
v -0.628776509 4.07036747 -0.202784071
v 0.757352308 4.46893299 -0.7231173
v -1.07208097 5.07115792 -1.53172486
v 1.06916321 5.06882371 -1.53308648
v -1.36755243 5.63798073 -2.34130501
v 1.36444016 5.63486846 -2.34305566
v -1.51713608 6.14080742 -3.22771941
v 1.51382929 6.13750063 -3.22966458
v -1.61497818 6.3738389 -3.96960761
v 1.61225494 6.37014308 -3.9717473
v -1.64648995 6.35399816 -4.51367192
v 1.64454478 6.35010782 -4.51658968
v -1.66399649 6.22308815 -4.91748941
v 1.66263487 6.21978136 -4.91885103
v -1.67080459 5.97877468 -5.23941521
v 1.67061007 5.97507886 -5.24155489
v -1.6709991 5.51660207 -5.48839709
v 1.6721662 5.51290624 -5.49053677
v -1.66944297 5.00132628 -5.48975871
v 1.67177717 4.99743594 -5.49189839
v -1.65718839 4.47087816 -5.26159015
v 1.66030066 4.46718234 -5.26372984
v -1.61167139 3.94081908 -4.71927649
v 1.61556173 3.93712326 -4.72141618
v -1.51363477 3.56501205 -4.03068598
v 1.5173306 3.56151075 -4.03263115
v -1.36444016 3.38566729 -3.18862148
v 1.36755243 3.38255502 -3.19037213
v -1.19832256 3.32244924 -2.28781281
v 1.20026773 3.31992051 -2.28936895
v -0.963929463 3.32828475 -1.39945324
v 0.964513014 3.32614506 -1.40062034
v -0.732259603 3.34832001 -0.28720449
v 0.731481535 3.34656936 -0.287982559
v -0.760075548 4.47068365 -0.722144714
v -0.628776509 4.07036747 -0.202784071
v -0.597264739 4.12969518 -0.496893918
v -0.750349693 4.4860505 -0.981046967
v -1.07208097 5.07115792 -1.53172486
v -1.03920758 5.01961089 -1.67761268
v -1.36755243 5.63798073 -2.34130501
v -1.29849887 5.5249663 -2.39888207
v -1.51713608 6.14080742 -3.22771941
v -1.44030183 5.92606055 -3.18745437
v -1.61497818 6.3738389 -3.96960761
v -1.53289197 6.18963121 -3.92078382
v -1.64648995 6.35399816 -4.51367192
v -1.55954081 6.17173564 -4.3131248
v -1.57860348 6.04432694 -4.70857805
v -1.66399649 6.22308815 -4.91748941
v -1.67080459 5.97877468 -5.23941521
v -1.584439 5.82841297 -5.00638373
v -1.6709991 5.51660207 -5.48839709
v -1.58404996 5.41720383 -5.21296088
v -1.66944297 5.00132628 -5.48975871
v -1.58191027 4.95872704 -5.20128985
v -1.65718839 4.47087816 -5.26159015
v -1.5696557 4.48682857 -4.94822311
v -1.61167139 3.94081908 -4.71927649
v -1.52627838 4.06686616 -4.55860537
v -1.51363477 3.56501205 -4.03068598
v -1.43329921 3.73501999 -3.96746792
v -1.36444016 3.38566729 -3.18862148
v -1.29227432 3.52105119 -3.15302485
v -1.19832256 3.32244924 -2.28781281
v -1.13510451 3.46483575 -2.35180893
v -0.963929463 3.32828475 -1.39945324
v -0.920357634 3.46969868 -1.56129146
v -0.732259603 3.34832001 -0.28720449
v -0.673709958 3.48720522 -0.432314243
v 0.626247786 4.06900585 -0.20356214
v 0.745681283 4.48254919 -0.983770207
v 0.592985363 4.12677742 -0.499228124
v 0.757352308 4.46893299 -0.7231173
v 1.03356658 5.01494248 -1.68111399
v 1.06916321 5.06882371 -1.53308648
v 1.2920798 5.5193253 -2.40296693
v 1.36444016 5.63486846 -2.34305566
v 1.43388276 5.919836 -3.19212278
v 1.51382929 6.13750063 -3.22966458
v 1.52744549 6.18282311 -3.92564675
v 1.61225494 6.37014308 -3.9717473
v 1.55545595 6.16492754 -4.3187658
v 1.64454478 6.35010782 -4.51658968
v 1.66263487 6.21978136 -4.91885103
v 1.57626928 6.03790788 -4.71305195
v 1.58404996 5.82141035 -5.01124665
v 1.67061007 5.97507886 -5.24155489
v 1.58618965 5.41039573 -5.21801832
v 1.6721662 5.51290624 -5.49053677
v 1.58657868 4.95191894 -5.2063473
v 1.67177717 4.99743594 -5.49189839
v 1.57626928 4.48002047 -4.95328056
v 1.66030066 4.46718234 -5.26372984
v 1.53405907 4.06025258 -4.5634683
v 1.61556173 3.93712326 -4.72141618
v 1.44088538 3.72840641 -3.9705802
v 1.5173306 3.56151075 -4.03263115
v 1.29849887 3.51541019 -3.15710971
v 1.36755243 3.38255502 -3.19037213
v 1.13938388 3.45977831 -2.35531024
v 1.20026773 3.31992051 -2.28936895
v 0.922302805 3.46561382 -1.56440373
v 0.964513014 3.32614506 -1.40062034
v 0.672931889 3.48409294 -0.43387038
v 0.731481535 3.34656936 -0.287982559
v -0.750349693 4.4860505 0.981046967
v 0.592985363 4.12677742 0.499228124
v -0.597264739 4.12969518 0.496893918
v 0.745681283 4.48254919 0.983770207
v -1.03920758 5.01961089 1.67761268
v 1.03356658 5.01494248 1.68111399
v -1.29849887 5.5249663 2.39888207
v 1.2920798 5.5193253 2.40296693
v -1.44030183 5.92606055 3.18745437
v 1.43388276 5.919836 3.19212278
v -1.53289197 6.18963121 3.92078382
v 1.52744549 6.18282311 3.92564675
v -1.55954081 6.17173564 4.3131248
v 1.55545595 6.16492754 4.3187658
v 1.57626928 6.03790788 4.71305195
v -1.57860348 6.04432694 4.70857805
v -1.584439 5.82841297 5.00638373
v 1.58404996 5.82141035 5.01124665
v -1.58404996 5.41720383 5.21296088
v 1.58618965 5.41039573 5.21801832
v -1.58191027 4.95872704 5.20128985
v 1.58657868 4.95191894 5.2063473
v -1.5696557 4.48682857 4.94822311
v 1.57626928 4.48002047 4.95328056
v -1.52627838 4.06686616 4.55860537
v 1.53405907 4.06025258 4.5634683
v -1.43329921 3.73501999 3.96746792
v 1.44088538 3.72840641 3.9705802
v -1.29227432 3.52105119 3.15302485
v 1.29849887 3.51541019 3.15710971
v -1.13510451 3.46483575 2.35180893
v 1.13938388 3.45977831 2.35531024
v -0.920357634 3.46969868 1.56129146
v 0.922302805 3.46561382 1.56440373
v -0.673709958 3.48720522 0.432314243
v 0.672931889 3.48409294 0.43387038
v -0.760075548 4.47068365 0.722144714
v -0.628776509 4.07036747 0.202784071
v 0.626247786 4.06900585 0.20356214
v 0.757352308 4.46893299 0.7231173
v -1.07208097 5.07115792 1.53172486
v 1.06916321 5.06882371 1.53308648
v -1.36755243 5.63798073 2.34130501
v 1.36444016 5.63486846 2.34305566
v -1.51713608 6.14080742 3.22771941
v 1.51382929 6.13750063 3.22966458
v -1.61497818 6.3738389 3.96960761
v 1.61225494 6.37014308 3.9717473
v -1.64648995 6.35399816 4.51367192
v 1.64454478 6.35010782 4.51658968
v -1.66399649 6.22308815 4.91748941
v 1.66263487 6.21978136 4.91885103
v -1.67080459 5.97877468 5.23941521
v 1.67061007 5.97507886 5.24155489
v -1.6709991 5.51660207 5.48839709
v 1.6721662 5.51290624 5.49053677
v -1.66944297 5.00132628 5.48975871
v 1.67177717 4.99743594 5.49189839
v -1.65718839 4.47087816 5.26159015
v 1.66030066 4.46718234 5.26372984
v -1.61167139 3.94081908 4.71927649
v 1.61556173 3.93712326 4.72141618
v -1.51363477 3.56501205 4.03068598
v 1.5173306 3.56151075 4.03263115
v -1.36444016 3.38566729 3.18862148
v 1.36755243 3.38255502 3.19037213
v -1.19832256 3.32244924 2.28781281
v 1.20026773 3.31992051 2.28936895
v -0.963929463 3.32828475 1.39945324
v 0.964513014 3.32614506 1.40062034
v -0.732259603 3.34832001 0.28720449
v 0.731481535 3.34656936 0.287982559
v -0.760075548 4.47068365 0.722144714
v -0.597264739 4.12969518 0.496893918
v -0.628776509 4.07036747 0.202784071
v -0.750349693 4.4860505 0.981046967
v -1.07208097 5.07115792 1.53172486
v -1.03920758 5.01961089 1.67761268
v -1.36755243 5.63798073 2.34130501
v -1.29849887 5.5249663 2.39888207
v -1.51713608 6.14080742 3.22771941
v -1.44030183 5.92606055 3.18745437
v -1.61497818 6.3738389 3.96960761
v -1.53289197 6.18963121 3.92078382
v -1.64648995 6.35399816 4.51367192
v -1.55954081 6.17173564 4.3131248
v -1.57860348 6.04432694 4.70857805
v -1.66399649 6.22308815 4.91748941
v -1.67080459 5.97877468 5.23941521
v -1.584439 5.82841297 5.00638373
v -1.6709991 5.51660207 5.48839709
v -1.58404996 5.41720383 5.21296088
v -1.66944297 5.00132628 5.48975871
v -1.58191027 4.95872704 5.20128985
v -1.65718839 4.47087816 5.26159015
v -1.5696557 4.48682857 4.94822311
v -1.61167139 3.94081908 4.71927649
v -1.52627838 4.06686616 4.55860537
v -1.51363477 3.56501205 4.03068598
v -1.43329921 3.73501999 3.96746792
v -1.36444016 3.38566729 3.18862148
v -1.29227432 3.52105119 3.15302485
v -1.19832256 3.32244924 2.28781281
v -1.13510451 3.46483575 2.35180893
v -0.963929463 3.32828475 1.39945324
v -0.920357634 3.46969868 1.56129146
v -0.732259603 3.34832001 0.28720449
v -0.673709958 3.48720522 0.432314243
v 0.626247786 4.06900585 0.20356214
v 0.592985363 4.12677742 0.499228124
v 0.745681283 4.48254919 0.983770207
v 0.757352308 4.46893299 0.7231173
v 1.03356658 5.01494248 1.68111399
v 1.06916321 5.06882371 1.53308648
v 1.2920798 5.5193253 2.40296693
v 1.36444016 5.63486846 2.34305566
v 1.43388276 5.919836 3.19212278
v 1.51382929 6.13750063 3.22966458
v 1.52744549 6.18282311 3.92564675
v 1.61225494 6.37014308 3.9717473
v 1.55545595 6.16492754 4.3187658
v 1.64454478 6.35010782 4.51658968
v 1.66263487 6.21978136 4.91885103
v 1.57626928 6.03790788 4.71305195
v 1.58404996 5.82141035 5.01124665
v 1.67061007 5.97507886 5.24155489
v 1.58618965 5.41039573 5.21801832
v 1.6721662 5.51290624 5.49053677
v 1.58657868 4.95191894 5.2063473
v 1.67177717 4.99743594 5.49189839
v 1.57626928 4.48002047 4.95328056
v 1.66030066 4.46718234 5.26372984
v 1.53405907 4.06025258 4.5634683
v 1.61556173 3.93712326 4.72141618
v 1.44088538 3.72840641 3.9705802
v 1.5173306 3.56151075 4.03263115
v 1.29849887 3.51541019 3.15710971
v 1.36755243 3.38255502 3.19037213
v 1.13938388 3.45977831 2.35531024
v 1.20026773 3.31992051 2.28936895
v 0.922302805 3.46561382 1.56440373
v 0.964513014 3.32614506 1.40062034
v 0.672931889 3.48409294 0.43387038
v 0.731481535 3.34656936 0.287982559
v -4.548685 -5.40767249 4.548685
v -4.42302696 -5.965353 4.42302696
v -4.548685 -6.09081653 3.86534645
v -4.83170737 -5.40767249 3.86534645
v -4.548685 2.32321492 4.548685
v -4.83170737 -5.40767249 -3.86534645
v -4.548685 -6.09081653 -3.86534645
v -4.83170737 2.32321492 3.86534645
v -4.548685 -5.40767249 -4.548685
v -4.42302696 -5.965353 -4.42302696
v -4.83170737 2.32321492 -3.86534645
v -4.548685 2.32321492 -4.548685
v -4.548685 3.00655347 -3.86534645
v -4.42302696 2.88089543 -4.42302696
v -4.548685 3.00655347 3.86534645
v -4.42302696 2.88089543 4.42302696
v -4.548685 -6.09081653 3.86534645
v -4.42302696 -5.965353 4.42302696
v -3.86534645 -6.09081653 4.548685
v -3.86534645 -6.3738389 3.86534645
v -4.548685 -6.09081653 -3.86534645
v 3.86534645 -6.3738389 3.86534645
v 3.86534645 -6.09081653 4.548685
v -3.86534645 -6.3738389 -3.86534645
v 4.548685 -6.09081653 3.86534645
v 4.42302696 -5.965353 4.42302696
v 3.86534645 -6.3738389 -3.86534645
v 4.548685 -6.09081653 -3.86534645
v 3.86534645 -6.09081653 -4.548685
v 4.42302696 -5.965353 -4.42302696
v -3.86534645 -6.09081653 -4.548685
v -4.42302696 -5.965353 -4.42302696
v -3.86534645 -6.09081653 4.548685
v -4.42302696 -5.965353 4.42302696
v -4.548685 -5.40767249 4.548685
v -3.86534645 -5.40767249 4.83170737
v 3.86534645 -6.09081653 4.548685
v -3.86534645 2.32321492 4.83170737
v -4.548685 2.32321492 4.548685
v -3.86534645 3.00655347 4.548685
v -4.42302696 2.88089543 4.42302696
v 3.86534645 2.32321492 4.83170737
v 3.86534645 3.00655347 4.548685
v 3.86534645 -5.40767249 4.83170737
v 4.548685 2.32321492 4.548685
v 4.42302696 2.88089543 4.42302696
v 4.548685 -5.40767249 4.548685
v 4.42302696 -5.965353 4.42302696
v 4.548685 -6.09081653 3.86534645
v 4.42302696 -5.965353 4.42302696
v 4.548685 -5.40767249 4.548685
v 4.83170737 -5.40767249 3.86534645
v 4.548685 -6.09081653 -3.86534645
v 4.83170737 2.32321492 3.86534645
v 4.548685 2.32321492 4.548685
v 4.548685 3.00655347 3.86534645
v 4.42302696 2.88089543 4.42302696
v 4.83170737 2.32321492 -3.86534645
v 4.548685 3.00655347 -3.86534645
v 4.83170737 -5.40767249 -3.86534645
v 4.548685 2.32321492 -4.548685
v 4.42302696 2.88089543 -4.42302696
v 4.548685 -5.40767249 -4.548685
v 4.42302696 -5.965353 -4.42302696
v -3.86534645 3.00655347 4.548685
v -4.42302696 2.88089543 4.42302696
v -4.548685 3.00655347 3.86534645
v -3.86534645 3.28957585 3.86534645
v 3.86534645 3.00655347 4.548685
v -3.86534645 3.28957585 -3.86534645
v -4.548685 3.00655347 -3.86534645
v -3.86534645 3.00655347 -4.548685
v -4.42302696 2.88089543 -4.42302696
v 3.86534645 3.28957585 -3.86534645
v 3.86534645 3.00655347 -4.548685
v 3.86534645 3.28957585 3.86534645
v 4.548685 3.00655347 -3.86534645
v 4.42302696 2.88089543 -4.42302696
v 4.548685 3.00655347 3.86534645
v 4.42302696 2.88089543 4.42302696
v -3.86534645 3.00655347 -4.548685
v -4.42302696 2.88089543 -4.42302696
v -4.548685 2.32321492 -4.548685
v -3.86534645 2.32321492 -4.83170737
v 3.86534645 3.00655347 -4.548685
v -3.86534645 -5.40767249 -4.83170737
v -4.548685 -5.40767249 -4.548685
v -3.86534645 -6.09081653 -4.548685
v -4.42302696 -5.965353 -4.42302696
v 3.86534645 -5.40767249 -4.83170737
v 3.86534645 -6.09081653 -4.548685
v 3.86534645 2.32321492 -4.83170737
v 4.548685 -5.40767249 -4.548685
v 4.42302696 -5.965353 -4.42302696
v 4.548685 2.32321492 -4.548685
v 4.42302696 2.88089543 -4.42302696
vt 0.0684039478 0.777599969
vt 0.0684039478 0.786822284
vt 0.0776262628 0.786822284
vt 0.0776262628 0.777599969
vt 0.0684039478 0.768377654
vt 0.0868485778 0.786822284
vt 0.0776262628 0.768377654
vt 0.0684039478 0.759155339
vt 0.0868485778 0.777599969
vt 0.0969931242 0.786822284
vt 0.0776262628 0.759155339
vt 0.0684039478 0.749010793
vt 0.0969931242 0.777599969
vt 0.106215439 0.786822284
vt 0.106215439 0.777599969
vt 0.0868485778 0.768377654
vt 0.0969931242 0.768377654
vt 0.106215439 0.768377654
vt 0.0776262628 0.749010793
vt 0.0684039478 0.739788478
vt 0.0868485778 0.759155339
vt 0.0969931242 0.759155339
vt 0.106215439 0.759155339
vt 0.0776262628 0.739788478
vt 0.0684039478 0.730566163
vt 0.0868485778 0.749010793
vt 0.0969931242 0.749010793
vt 0.106215439 0.749010793
vt 0.0776262628 0.730566163
vt 0.0684039478 0.721343848
vt 0.0868485778 0.739788478
vt 0.0969931242 0.739788478
vt 0.106215439 0.739788478
vt 0.0776262628 0.721343848
vt 0.0684039478 0.711199301
vt 0.0868485778 0.730566163
vt 0.0969931242 0.730566163
vt 0.106215439 0.730566163
vt 0.0776262628 0.711199301
vt 0.0684039478 0.701976986
vt 0.0868485778 0.721343848
vt 0.0969931242 0.721343848
vt 0.106215439 0.721343848
vt 0.0776262628 0.701976986
vt 0.0684039478 0.692754671
vt 0.0868485778 0.711199301
vt 0.0969931242 0.711199301
vt 0.106215439 0.711199301
vt 0.0776262628 0.692754671
vt 0.0684039478 0.683532356
vt 0.0868485778 0.701976986
vt 0.0969931242 0.701976986
vt 0.106215439 0.701976986
vt 0.0776262628 0.683532356
vt 0.0684039478 0.674310041
vt 0.0868485778 0.692754671
vt 0.0969931242 0.692754671
vt 0.106215439 0.692754671
vt 0.0868485778 0.683532356
vt 0.0969931242 0.683532356
vt 0.106215439 0.683532356
vt 0.0776262628 0.674310041
vt 0.0868485778 0.674310041
vt 0.0969931242 0.674310041
vt 0.106215439 0.674310041
vt 0.0684039478 0.664165495
vt 0.0776262628 0.664165495
vt 0.0868485778 0.664165495
vt 0.0969931242 0.664165495
vt 0.0591816329 0.664165495
vt 0.0591816329 0.674310041
vt 0.106215439 0.664165495
vt 0.115437754 0.674310041
vt 0.0490370864 0.664165495
vt 0.0490370864 0.674310041
vt 0.115437754 0.664165495
vt 0.124660069 0.674310041
vt 0.0398147714 0.664165495
vt 0.0398147714 0.674310041
vt 0.0305924565 0.664165495
vt 0.0305924565 0.674310041
vt 0.0305924565 0.65494318
vt 0.0398147714 0.65494318
vt 0.0305924565 0.645720865
vt 0.0490370864 0.65494318
vt 0.0398147714 0.645720865
vt 0.0305924565 0.63649855
vt 0.0398147714 0.63649855
vt 0.0490370864 0.645720865
vt 0.0490370864 0.63649855
vt 0.0591816329 0.65494318
vt 0.0591816329 0.645720865
vt 0.0591816329 0.63649855
vt 0.0684039478 0.65494318
vt 0.0684039478 0.645720865
vt 0.0684039478 0.63649855
vt 0.0776262628 0.65494318
vt 0.0776262628 0.645720865
vt 0.0776262628 0.63649855
vt 0.0868485778 0.65494318
vt 0.0868485778 0.645720865
vt 0.0868485778 0.63649855
vt 0.0969931242 0.65494318
vt 0.0969931242 0.645720865
vt 0.0969931242 0.63649855
vt 0.106215439 0.65494318
vt 0.106215439 0.645720865
vt 0.106215439 0.63649855
vt 0.115437754 0.65494318
vt 0.115437754 0.645720865
vt 0.115437754 0.63649855
vt 0.124660069 0.664165495
vt 0.133882384 0.674310041
vt 0.124660069 0.645720865
vt 0.124660069 0.63649855
vt 0.124660069 0.65494318
vt 0.133882384 0.664165495
vt 0.144026931 0.674310041
vt 0.144026931 0.664165495
vt 0.133882384 0.65494318
vt 0.144026931 0.65494318
vt 0.133882384 0.645720865
vt 0.133882384 0.63649855
vt 0.144026931 0.645720865
vt 0.144026931 0.63649855
vt 0.250083553 0.496319362
vt 0.252850247 0.516608455
vt 0.309106369 0.518452918
vt 0.312795295 0.499086057
vt 0.246394627 0.468652418
vt 0.318328684 0.471419112
vt 0.241783469 0.438218778
vt 0.324784304 0.440985473
vt 0.239016775 0.407785139
vt 0.330317693 0.411474065
vt 0.237172312 0.382884888
vt 0.334006619 0.385651583
vt 0.23625008 0.369051416
vt 0.335851082 0.372740342
vt 0.336773313 0.358906869
vt 0.23625008 0.355217943
vt 0.23625008 0.343228934
vt 0.337695545 0.34691786
vt 0.237172312 0.32847323
vt 0.337695545 0.332162156
vt 0.238094543 0.312795295
vt 0.338617776 0.316484221
vt 0.239016775 0.296195128
vt 0.338617776 0.299884054
vt 0.240861238 0.274983803
vt 0.338617776 0.278672729
vt 0.244550164 0.252850247
vt 0.335851082 0.255616942
vt 0.250083553 0.225183302
vt 0.332162156 0.227949997
vt 0.255616942 0.198438589
vt 0.32847323 0.201205283
vt 0.262072562 0.172616107
vt 0.324784304 0.175382802
vt 0.26668372 0.135726847
vt 0.322939841 0.13757131
vt 0.384729351 0.129271227
vt 0.44559663 0.105293208
vt 0.386573814 0.107137671
vt 0.450207788 0.126504532
vt 0.381040425 0.159704866
vt 0.455741177 0.156938172
vt 0.376429268 0.1929052
vt 0.462196797 0.190138505
vt 0.372740342 0.226105534
vt 0.467730186 0.223338839
vt 0.370895879 0.251928016
vt 0.472341344 0.24823909
vt 0.369973647 0.269450414
vt 0.473263575 0.265761488
vt 0.369973647 0.283283887
vt 0.475108038 0.279594961
vt 0.369973647 0.296195128
vt 0.475108038 0.292506202
vt 0.370895879 0.312795295
vt 0.47603027 0.309106369
vt 0.37181811 0.329395462
vt 0.476952501 0.325706536
vt 0.372740342 0.347840091
vt 0.476952501 0.344151165
vt 0.374584805 0.372740342
vt 0.47603027 0.369051416
vt 0.379195962 0.397640592
vt 0.474185807 0.394873898
vt 0.384729351 0.425307537
vt 0.470496881 0.422540843
vt 0.39026274 0.454818945
vt 0.465885723 0.452052251
vt 0.396718361 0.483408122
vt 0.462196797 0.480641427
vt 0.401329518 0.518452918
vt 0.460352334 0.516608455
vt 0.38380712 0.692754671
vt 0.377351499 0.705665912
vt 0.381962657 0.704743681
vt 0.387496046 0.692754671
vt 0.393029435 0.672465578
vt 0.395796129 0.674310041
vt 0.404096213 0.653098717
vt 0.405940676 0.656787643
vt 0.417007454 0.63649855
vt 0.417929685 0.641109708
vt 0.429918695 0.627276235
vt 0.430840926 0.632809624
vt 0.440985473 0.626354004
vt 0.43914101 0.631887393
vt 0.449285556 0.634654087
vt 0.451130019 0.629120698
vt 0.461274566 0.635576319
vt 0.458507871 0.640187476
vt 0.472341344 0.648487559
vt 0.467730186 0.652176485
vt 0.478796964 0.663243263
vt 0.475108038 0.665087726
vt 0.48248589 0.67984343
vt 0.476952501 0.67984343
vt 0.478796964 0.697365829
vt 0.475108038 0.695521366
vt 0.470496881 0.711199301
vt 0.466807955 0.707510375
vt 0.455741177 0.720421616
vt 0.452974482 0.717654922
vt 0.438218778 0.726877237
vt 0.436374315 0.723188311
vt 0.419774148 0.731488394
vt 0.419774148 0.726877237
vt 0.405018444 0.73517732
vt 0.405940676 0.730566163
vt 0.281439424 0.737021783
vt 0.289739507 0.722266079
vt 0.280517192 0.732410626
vt 0.29158397 0.725955005
vt 0.304495211 0.708432607
vt 0.306339674 0.711199301
vt 0.317406452 0.692754671
vt 0.321095378 0.693676903
vt 0.327550999 0.676154504
vt 0.333084387 0.675232273
vt 0.331239925 0.6613988
vt 0.336773313 0.660476569
vt 0.329395462 0.653098717
vt 0.333084387 0.649409791
vt 0.327550999 0.641109708
vt 0.322939841 0.644798634
vt 0.314639758 0.638343013
vt 0.318328684 0.634654087
vt 0.300806285 0.632809624
vt 0.302650748 0.628198467
vt 0.28512835 0.631887393
vt 0.286050581 0.626354004
vt 0.270372646 0.634654087
vt 0.269450414 0.629120698
vt 0.257461405 0.642031939
vt 0.25469471 0.638343013
vt 0.24823909 0.653098717
vt 0.244550164 0.651254254
vt 0.244550164 0.669698884
vt 0.240861238 0.667854421
vt 0.244550164 0.687221282
vt 0.240861238 0.687221282
vt 0.246394627 0.704743681
vt 0.242705701 0.705665912
vt 0.24823909 0.718577153
vt 0.244550164 0.721343848
vt 0.312795295 0.499086057
vt 0.252850247 0.516608455
vt 0.309106369 0.518452918
vt 0.250083553 0.496319362
vt 0.318328684 0.471419112
vt 0.246394627 0.468652418
vt 0.324784304 0.440985473
vt 0.242705701 0.438218778
vt 0.330317693 0.411474065
vt 0.239016775 0.407785139
vt 0.334006619 0.385651583
vt 0.237172312 0.382884888
vt 0.335851082 0.372740342
vt 0.23625008 0.369051416
vt 0.23625008 0.355217943
vt 0.336773313 0.359829101
vt 0.337695545 0.34691786
vt 0.23625008 0.343228934
vt 0.337695545 0.332162156
vt 0.237172312 0.32847323
vt 0.338617776 0.316484221
vt 0.237172312 0.312795295
vt 0.338617776 0.299884054
vt 0.239016775 0.296195128
vt 0.338617776 0.278672729
vt 0.240861238 0.274983803
vt 0.335851082 0.256539173
vt 0.244550164 0.252850247
vt 0.332162156 0.227949997
vt 0.250083553 0.225183302
vt 0.32847323 0.201205283
vt 0.256539173 0.198438589
vt 0.324784304 0.175382802
vt 0.262072562 0.172616107
vt 0.322939841 0.13757131
vt 0.26668372 0.135726847
vt 0.450207788 0.126504532
vt 0.44559663 0.105293208
vt 0.386573814 0.107137671
vt 0.384729351 0.129271227
vt 0.455741177 0.156938172
vt 0.381040425 0.159704866
vt 0.462196797 0.190138505
vt 0.376429268 0.1929052
vt 0.467730186 0.223338839
vt 0.372740342 0.226105534
vt 0.472341344 0.24823909
vt 0.370895879 0.251928016
vt 0.473263575 0.265761488
vt 0.369973647 0.269450414
vt 0.475108038 0.279594961
vt 0.369973647 0.283283887
vt 0.475108038 0.292506202
vt 0.369973647 0.296195128
vt 0.47603027 0.309106369
vt 0.370895879 0.312795295
vt 0.476952501 0.325706536
vt 0.37181811 0.329395462
vt 0.476952501 0.344151165
vt 0.372740342 0.347840091
vt 0.47603027 0.369051416
vt 0.374584805 0.372740342
vt 0.474185807 0.394873898
vt 0.379195962 0.397640592
vt 0.470496881 0.422540843
vt 0.384729351 0.425307537
vt 0.465885723 0.452052251
vt 0.39026274 0.454818945
vt 0.462196797 0.480641427
vt 0.396718361 0.483408122
vt 0.460352334 0.516608455
vt 0.401329518 0.518452918
vt 0.29158397 0.725955005
vt 0.280517192 0.732410626
vt 0.281439424 0.737021783
vt 0.289739507 0.722266079
vt 0.307261906 0.711199301
vt 0.304495211 0.708432607
vt 0.321095378 0.693676903
vt 0.317406452 0.692754671
vt 0.333084387 0.675232273
vt 0.32847323 0.677076736
vt 0.336773313 0.660476569
vt 0.331239925 0.6613988
vt 0.333084387 0.649409791
vt 0.329395462 0.653098717
vt 0.322939841 0.644798634
vt 0.327550999 0.641109708
vt 0.318328684 0.634654087
vt 0.314639758 0.638343013
vt 0.302650748 0.628198467
vt 0.300806285 0.632809624
vt 0.286050581 0.626354004
vt 0.28512835 0.631887393
vt 0.269450414 0.629120698
vt 0.270372646 0.634654087
vt 0.25469471 0.638343013
vt 0.257461405 0.642031939
vt 0.244550164 0.651254254
vt 0.24823909 0.653098717
vt 0.240861238 0.667854421
vt 0.244550164 0.669698884
vt 0.240861238 0.687221282
vt 0.244550164 0.687221282
vt 0.242705701 0.705665912
vt 0.246394627 0.704743681
vt 0.244550164 0.721343848
vt 0.24823909 0.718577153
vt 0.377351499 0.705665912
vt 0.381962657 0.704743681
vt 0.387496046 0.692754671
vt 0.38380712 0.692754671
vt 0.395796129 0.674310041
vt 0.393029435 0.672465578
vt 0.405940676 0.656787643
vt 0.404096213 0.654020948
vt 0.417929685 0.641109708
vt 0.417007454 0.63649855
vt 0.430840926 0.632809624
vt 0.429918695 0.627276235
vt 0.43914101 0.631887393
vt 0.440985473 0.626354004
vt 0.451130019 0.629120698
vt 0.449285556 0.634654087
vt 0.458507871 0.640187476
vt 0.461274566 0.635576319
vt 0.468652418 0.652176485
vt 0.472341344 0.648487559
vt 0.475108038 0.666009958
vt 0.479719196 0.663243263
vt 0.476952501 0.680765662
vt 0.48248589 0.67984343
vt 0.475108038 0.695521366
vt 0.478796964 0.697365829
vt 0.466807955 0.707510375
vt 0.470496881 0.711199301
vt 0.452974482 0.717654922
vt 0.455741177 0.720421616
vt 0.436374315 0.723188311
vt 0.438218778 0.726877237
vt 0.419774148 0.726877237
vt 0.419774148 0.731488394
vt 0.406862907 0.730566163
vt 0.405018444 0.73517732
vt 0.650332022 0.496319362
vt 0.652176485 0.516608455
vt 0.708432607 0.518452918
vt 0.713043764 0.499086057
vt 0.646643097 0.468652418
vt 0.718577153 0.471419112
vt 0.642031939 0.438218778
vt 0.725032774 0.440985473
vt 0.638343013 0.407785139
vt 0.730566163 0.411474065
vt 0.63649855 0.382884888
vt 0.734255089 0.385651583
vt 0.63649855 0.369051416
vt 0.73517732 0.372740342
vt 0.737021783 0.358906869
vt 0.63649855 0.355217943
vt 0.63649855 0.343228934
vt 0.737021783 0.34691786
vt 0.637420782 0.32847323
vt 0.737944015 0.332162156
vt 0.637420782 0.312795295
vt 0.738866246 0.316484221
vt 0.638343013 0.296195128
vt 0.738866246 0.299884054
vt 0.641109708 0.274983803
vt 0.737944015 0.278672729
vt 0.644798634 0.252850247
vt 0.736099552 0.255616942
vt 0.650332022 0.225183302
vt 0.732410626 0.227949997
vt 0.655865411 0.198438589
vt 0.7287217 0.201205283
vt 0.6613988 0.172616107
vt 0.724110542 0.175382802
vt 0.666009958 0.135726847
vt 0.722266079 0.13757131
vt 0.78405559 0.129271227
vt 0.8458451 0.105293208
vt 0.786822284 0.107137671
vt 0.849534026 0.126504532
vt 0.780366664 0.159704866
vt 0.855989646 0.156938172
vt 0.776677738 0.1929052
vt 0.862445267 0.190138505
vt 0.772988812 0.226105534
vt 0.867978656 0.223338839
vt 0.770222117 0.251928016
vt 0.871667582 0.24823909
vt 0.770222117 0.269450414
vt 0.873512045 0.265761488
vt 0.770222117 0.283283887
vt 0.874434276 0.279594961
vt 0.770222117 0.296195128
vt 0.875356508 0.292506202
vt 0.771144349 0.312795295
vt 0.876278739 0.309106369
vt 0.771144349 0.329395462
vt 0.876278739 0.325706536
vt 0.772988812 0.347840091
vt 0.877200971 0.344151165
vt 0.774833275 0.372740342
vt 0.876278739 0.369051416
vt 0.778522201 0.397640592
vt 0.874434276 0.394873898
vt 0.78405559 0.425307537
vt 0.87074535 0.422540843
vt 0.79051121 0.454818945
vt 0.866134193 0.452052251
vt 0.796966831 0.483408122
vt 0.862445267 0.480641427
vt 0.801577988 0.518452918
vt 0.859678572 0.516608455
vt 0.78405559 0.692754671
vt 0.776677738 0.705665912
vt 0.781288895 0.704743681
vt 0.787744516 0.692754671
vt 0.792355673 0.672465578
vt 0.796044599 0.674310041
vt 0.804344683 0.653098717
vt 0.806189145 0.656787643
vt 0.817255923 0.63649855
vt 0.818178155 0.641109708
vt 0.830167164 0.627276235
vt 0.831089396 0.632809624
vt 0.841233942 0.626354004
vt 0.839389479 0.631887393
vt 0.849534026 0.634654087
vt 0.851378489 0.629120698
vt 0.860600804 0.635576319
vt 0.857834109 0.640187476
vt 0.871667582 0.648487559
vt 0.867978656 0.652176485
vt 0.879045434 0.663243263
vt 0.874434276 0.665087726
vt 0.881812128 0.67984343
vt 0.877200971 0.67984343
vt 0.879045434 0.697365829
vt 0.874434276 0.695521366
vt 0.87074535 0.711199301
vt 0.867056424 0.707510375
vt 0.855989646 0.720421616
vt 0.853222952 0.717654922
vt 0.838467248 0.726877237
vt 0.836622785 0.723188311
vt 0.820022618 0.731488394
vt 0.820022618 0.726877237
vt 0.805266914 0.73517732
vt 0.806189145 0.730566163
vt 0.681687893 0.737021783
vt 0.689987977 0.722266079
vt 0.680765662 0.732410626
vt 0.69183244 0.725955005
vt 0.703821449 0.708432607
vt 0.706588144 0.711199301
vt 0.71673269 0.692754671
vt 0.721343848 0.693676903
vt 0.727799468 0.676154504
vt 0.732410626 0.675232273
vt 0.731488394 0.6613988
vt 0.737021783 0.660476569
vt 0.7287217 0.653098717
vt 0.733332857 0.649409791
vt 0.727799468 0.641109708
vt 0.723188311 0.644798634
vt 0.714888227 0.638343013
vt 0.718577153 0.634654087
vt 0.700132523 0.632809624
vt 0.702899218 0.628198467
vt 0.685376819 0.631887393
vt 0.686299051 0.626354004
vt 0.670621115 0.634654087
vt 0.669698884 0.629120698
vt 0.657709874 0.642031939
vt 0.654020948 0.638343013
vt 0.648487559 0.653098717
vt 0.644798634 0.651254254
vt 0.644798634 0.669698884
vt 0.641109708 0.667854421
vt 0.644798634 0.687221282
vt 0.641109708 0.687221282
vt 0.646643097 0.704743681
vt 0.642954171 0.705665912
vt 0.647565328 0.718577153
vt 0.644798634 0.721343848
vt 0.713043764 0.499086057
vt 0.652176485 0.516608455
vt 0.708432607 0.518452918
vt 0.650332022 0.496319362
vt 0.718577153 0.471419112
vt 0.646643097 0.468652418
vt 0.725032774 0.440985473
vt 0.642031939 0.438218778
vt 0.730566163 0.411474065
vt 0.639265245 0.407785139
vt 0.734255089 0.385651583
vt 0.63649855 0.382884888
vt 0.73517732 0.372740342
vt 0.63649855 0.369051416
vt 0.63649855 0.355217943
vt 0.737021783 0.359829101
vt 0.737021783 0.34691786
vt 0.63649855 0.343228934
vt 0.737944015 0.332162156
vt 0.637420782 0.32847323
vt 0.738866246 0.316484221
vt 0.637420782 0.312795295
vt 0.738866246 0.299884054
vt 0.638343013 0.296195128
vt 0.737944015 0.278672729
vt 0.641109708 0.274983803
vt 0.736099552 0.256539173
vt 0.644798634 0.252850247
vt 0.732410626 0.227949997
vt 0.650332022 0.225183302
vt 0.7287217 0.201205283
vt 0.655865411 0.198438589
vt 0.725032774 0.175382802
vt 0.662321032 0.172616107
vt 0.723188311 0.13757131
vt 0.666932189 0.135726847
vt 0.849534026 0.126504532
vt 0.8458451 0.105293208
vt 0.786822284 0.107137671
vt 0.78405559 0.129271227
vt 0.855989646 0.156938172
vt 0.780366664 0.159704866
vt 0.862445267 0.190138505
vt 0.776677738 0.1929052
vt 0.867978656 0.223338839
vt 0.772988812 0.226105534
vt 0.871667582 0.24823909
vt 0.770222117 0.251928016
vt 0.873512045 0.265761488
vt 0.770222117 0.269450414
vt 0.874434276 0.279594961
vt 0.770222117 0.283283887
vt 0.875356508 0.292506202
vt 0.770222117 0.296195128
vt 0.876278739 0.309106369
vt 0.771144349 0.312795295
vt 0.876278739 0.325706536
vt 0.771144349 0.329395462
vt 0.877200971 0.344151165
vt 0.772988812 0.347840091
vt 0.876278739 0.369051416
vt 0.774833275 0.372740342
vt 0.874434276 0.394873898
vt 0.778522201 0.397640592
vt 0.87074535 0.422540843
vt 0.78405559 0.425307537
vt 0.866134193 0.452052251
vt 0.79051121 0.454818945
vt 0.862445267 0.480641427
vt 0.796966831 0.483408122
vt 0.859678572 0.516608455
vt 0.801577988 0.518452918
vt 0.69183244 0.725955005
vt 0.680765662 0.732410626
vt 0.681687893 0.737021783
vt 0.689987977 0.722266079
vt 0.706588144 0.711199301
vt 0.703821449 0.708432607
vt 0.721343848 0.693676903
vt 0.717654922 0.692754671
vt 0.732410626 0.675232273
vt 0.727799468 0.677076736
vt 0.737021783 0.660476569
vt 0.731488394 0.6613988
vt 0.733332857 0.649409791
vt 0.7287217 0.653098717
vt 0.723188311 0.644798634
vt 0.727799468 0.641109708
vt 0.718577153 0.634654087
vt 0.714888227 0.638343013
vt 0.702899218 0.628198467
vt 0.700132523 0.632809624
vt 0.686299051 0.626354004
vt 0.685376819 0.631887393
vt 0.669698884 0.629120698
vt 0.670621115 0.634654087
vt 0.654020948 0.638343013
vt 0.657709874 0.642031939
vt 0.644798634 0.651254254
vt 0.648487559 0.653098717
vt 0.641109708 0.667854421
vt 0.644798634 0.669698884
vt 0.641109708 0.687221282
vt 0.644798634 0.687221282
vt 0.642954171 0.705665912
vt 0.646643097 0.704743681
vt 0.643876402 0.721343848
vt 0.647565328 0.718577153
vt 0.776677738 0.705665912
vt 0.781288895 0.704743681
vt 0.787744516 0.692754671
vt 0.78405559 0.692754671
vt 0.796044599 0.674310041
vt 0.792355673 0.672465578
vt 0.806189145 0.656787643
vt 0.804344683 0.654020948
vt 0.818178155 0.641109708
vt 0.817255923 0.63649855
vt 0.831089396 0.632809624
vt 0.830167164 0.627276235
vt 0.839389479 0.631887393
vt 0.841233942 0.626354004
vt 0.851378489 0.629120698
vt 0.849534026 0.634654087
vt 0.858756341 0.640187476
vt 0.860600804 0.635576319
vt 0.867978656 0.652176485
vt 0.871667582 0.648487559
vt 0.874434276 0.666009958
vt 0.879045434 0.663243263
vt 0.877200971 0.680765662
vt 0.88273436 0.67984343
vt 0.874434276 0.695521366
vt 0.879045434 0.697365829
vt 0.867056424 0.707510375
vt 0.87074535 0.711199301
vt 0.853222952 0.717654922
vt 0.855989646 0.720421616
vt 0.836622785 0.723188311
vt 0.838467248 0.726877237
vt 0.820022618 0.726877237
vt 0.820022618 0.731488394
vt 0.806189145 0.730566163
vt 0.805266914 0.73517732
vt 0.652176485 0.835700553
vt 0.642954171 0.835700553
vt 0.642954171 0.8458451
vt 0.652176485 0.8458451
vt 0.770222117 0.835700553
vt 0.652176485 0.9629685
vt 0.642954171 0.9629685
vt 0.770222117 0.8458451
vt 0.652176485 0.972190815
vt 0.642954171 0.972190815
vt 0.770222117 0.9629685
vt 0.770222117 0.972190815
vt 0.779444432 0.9629685
vt 0.779444432 0.972190815
vt 0.779444432 0.8458451
vt 0.779444432 0.835700553
vt 0.61805392 0.973113046
vt 0.627276235 0.973113046
vt 0.627276235 0.963890731
vt 0.61805392 0.963890731
vt 0.500008288 0.973113046
vt 0.61805392 0.8458451
vt 0.627276235 0.8458451
vt 0.500008288 0.963890731
vt 0.61805392 0.835700553
vt 0.627276235 0.835700553
vt 0.500008288 0.8458451
vt 0.500008288 0.835700553
vt 0.489863742 0.8458451
vt 0.489863742 0.835700553
vt 0.489863742 0.963890731
vt 0.489863742 0.973113046
vt 0.338617776 0.963890731
vt 0.338617776 0.974035278
vt 0.347840091 0.974035278
vt 0.347840091 0.963890731
vt 0.338617776 0.8458451
vt 0.465885723 0.963890731
vt 0.465885723 0.974035278
vt 0.47603027 0.963890731
vt 0.47603027 0.974035278
vt 0.465885723 0.8458451
vt 0.47603027 0.8458451
vt 0.347840091 0.8458451
vt 0.465885723 0.835700553
vt 0.47603027 0.835700553
vt 0.347840091 0.835700553
vt 0.338617776 0.835700553
vt 0.796966831 0.9629685
vt 0.796966831 0.972190815
vt 0.806189145 0.972190815
vt 0.806189145 0.9629685
vt 0.796966831 0.8458451
vt 0.924234777 0.9629685
vt 0.924234777 0.972190815
vt 0.933457092 0.9629685
vt 0.933457092 0.972190815
vt 0.924234777 0.8458451
vt 0.933457092 0.8458451
vt 0.806189145 0.8458451
vt 0.924234777 0.835700553
vt 0.933457092 0.835700553
vt 0.806189145 0.835700553
vt 0.796966831 0.835700553
vt 0.0444259289 0.835700553
vt 0.0342813824 0.835700553
vt 0.0342813824 0.8458451
vt 0.0444259289 0.8458451
vt 0.162471561 0.835700553
vt 0.0444259289 0.963890731
vt 0.0342813824 0.963890731
vt 0.0444259289 0.974035278
vt 0.0342813824 0.974035278
vt 0.162471561 0.963890731
vt 0.162471561 0.974035278
vt 0.162471561 0.8458451
vt 0.172616107 0.963890731
vt 0.172616107 0.974035278
vt 0.172616107 0.8458451
vt 0.172616107 0.835700553
vt 0.184605116 0.963890731
vt 0.184605116 0.974035278
vt 0.194749663 0.974035278
vt 0.194749663 0.963890731
vt 0.184605116 0.8458451
vt 0.312795295 0.963890731
vt 0.312795295 0.974035278
vt 0.322939841 0.963890731
vt 0.322939841 0.974035278
vt 0.312795295 0.8458451
vt 0.322939841 0.8458451
vt 0.194749663 0.8458451
vt 0.312795295 0.835700553
vt 0.322939841 0.835700553
vt 0.194749663 0.835700553
vt 0.184605116 0.835700553
g item_16item_16_low_mobile_0
f 3/3/3 2/2/2 1/1/1
f 4/4/4 3/3/3 1/1/1
f 4/4/4 1/1/1 5/5/5
f 6/6/6 3/3/3 4/4/4
f 7/7/7 4/4/4 5/5/5
f 7/7/7 5/5/5 8/8/8
f 9/9/9 6/6/6 4/4/4
f 9/9/9 4/4/4 7/7/7
f 10/10/10 6/6/6 9/9/9
f 11/11/11 7/7/7 8/8/8
f 11/11/11 8/8/8 12/12/12
f 13/13/13 10/10/10 9/9/9
f 14/14/14 10/10/10 13/13/13
f 15/15/15 14/14/14 13/13/13
f 16/16/16 9/9/9 7/7/7
f 13/13/13 9/9/9 16/16/16
f 16/16/16 7/7/7 11/11/11
f 15/15/15 13/13/13 17/17/17
f 17/17/17 13/13/13 16/16/16
f 18/18/18 15/15/15 17/17/17
f 19/19/19 11/11/11 12/12/12
f 19/19/19 12/12/12 20/20/20
f 21/21/21 16/16/16 11/11/11
f 17/17/17 16/16/16 21/21/21
f 21/21/21 11/11/11 19/19/19
f 18/18/18 17/17/17 22/22/22
f 22/22/22 17/17/17 21/21/21
f 23/23/23 18/18/18 22/22/22
f 24/24/24 19/19/19 20/20/20
f 24/24/24 20/20/20 25/25/25
f 26/26/26 21/21/21 19/19/19
f 22/22/22 21/21/21 26/26/26
f 26/26/26 19/19/19 24/24/24
f 23/23/23 22/22/22 27/27/27
f 27/27/27 22/22/22 26/26/26
f 28/28/28 23/23/23 27/27/27
f 29/29/29 24/24/24 25/25/25
f 29/29/29 25/25/25 30/30/30
f 31/31/31 26/26/26 24/24/24
f 27/27/27 26/26/26 31/31/31
f 31/31/31 24/24/24 29/29/29
f 28/28/28 27/27/27 32/32/32
f 32/32/32 27/27/27 31/31/31
f 33/33/33 28/28/28 32/32/32
f 34/34/34 29/29/29 30/30/30
f 34/34/34 30/30/30 35/35/35
f 36/36/36 31/31/31 29/29/29
f 32/32/32 31/31/31 36/36/36
f 36/36/36 29/29/29 34/34/34
f 33/33/33 32/32/32 37/37/37
f 37/37/37 32/32/32 36/36/36
f 38/38/38 33/33/33 37/37/37
f 39/39/39 34/34/34 35/35/35
f 39/39/39 35/35/35 40/40/40
f 41/41/41 36/36/36 34/34/34
f 37/37/37 36/36/36 41/41/41
f 41/41/41 34/34/34 39/39/39
f 38/38/38 37/37/37 42/42/42
f 42/42/42 37/37/37 41/41/41
f 43/43/43 38/38/38 42/42/42
f 44/44/44 39/39/39 40/40/40
f 44/44/44 40/40/40 45/45/45
f 46/46/46 41/41/41 39/39/39
f 42/42/42 41/41/41 46/46/46
f 46/46/46 39/39/39 44/44/44
f 43/43/43 42/42/42 47/47/47
f 47/47/47 42/42/42 46/46/46
f 48/48/48 43/43/43 47/47/47
f 49/49/49 44/44/44 45/45/45
f 49/49/49 45/45/45 50/50/50
f 51/51/51 46/46/46 44/44/44
f 47/47/47 46/46/46 51/51/51
f 51/51/51 44/44/44 49/49/49
f 48/48/48 47/47/47 52/52/52
f 52/52/52 47/47/47 51/51/51
f 53/53/53 48/48/48 52/52/52
f 54/54/54 49/49/49 50/50/50
f 54/54/54 50/50/50 55/55/55
f 56/56/56 51/51/51 49/49/49
f 52/52/52 51/51/51 56/56/56
f 56/56/56 49/49/49 54/54/54
f 53/53/53 52/52/52 57/57/57
f 57/57/57 52/52/52 56/56/56
f 58/58/58 53/53/53 57/57/57
f 59/59/59 56/56/56 54/54/54
f 57/57/57 56/56/56 59/59/59
f 58/58/58 57/57/57 60/60/60
f 60/60/60 57/57/57 59/59/59
f 61/61/61 58/58/58 60/60/60
f 59/59/59 54/54/54 62/62/62
f 62/62/62 54/54/54 55/55/55
f 60/60/60 59/59/59 63/63/63
f 63/63/63 59/59/59 62/62/62
f 61/61/61 60/60/60 64/64/64
f 64/64/64 60/60/60 63/63/63
f 65/65/65 61/61/61 64/64/64
f 62/62/62 55/55/55 66/66/66
f 63/63/63 62/62/62 67/67/67
f 67/67/67 62/62/62 66/66/66
f 64/64/64 63/63/63 68/68/68
f 68/68/68 63/63/63 67/67/67
f 65/65/65 64/64/64 69/69/69
f 69/69/69 64/64/64 68/68/68
f 66/66/66 55/55/55 70/70/70
f 55/55/55 71/71/71 70/70/70
f 72/72/72 65/65/65 69/69/69
f 73/73/73 65/65/65 72/72/72
f 70/70/70 71/71/71 74/74/74
f 71/71/71 75/75/75 74/74/74
f 76/76/76 73/73/73 72/72/72
f 77/77/77 73/73/73 76/76/76
f 74/74/74 75/75/75 78/78/78
f 75/75/75 79/79/79 78/78/78
f 78/78/78 79/79/79 80/80/80
f 79/79/79 81/81/81 80/80/80
f 78/78/78 80/80/80 82/82/82
f 83/83/83 78/78/78 82/82/82
f 74/74/74 78/78/78 83/83/83
f 83/83/83 82/82/82 84/84/84
f 70/70/70 74/74/74 85/85/85
f 85/85/85 74/74/74 83/83/83
f 86/86/86 83/83/83 84/84/84
f 85/85/85 83/83/83 86/86/86
f 86/86/86 84/84/84 87/87/87
f 88/88/88 86/86/86 87/87/87
f 89/89/89 86/86/86 88/88/88
f 89/89/89 85/85/85 86/86/86
f 90/90/90 89/89/89 88/88/88
f 91/91/91 70/70/70 85/85/85
f 91/91/91 85/85/85 89/89/89
f 66/66/66 70/70/70 91/91/91
f 92/92/92 89/89/89 90/90/90
f 92/92/92 91/91/91 89/89/89
f 93/93/93 92/92/92 90/90/90
f 94/94/94 66/66/66 91/91/91
f 94/94/94 91/91/91 92/92/92
f 67/67/67 66/66/66 94/94/94
f 95/95/95 92/92/92 93/93/93
f 95/95/95 94/94/94 92/92/92
f 96/96/96 95/95/95 93/93/93
f 97/97/97 67/67/67 94/94/94
f 97/97/97 94/94/94 95/95/95
f 68/68/68 67/67/67 97/97/97
f 98/98/98 95/95/95 96/96/96
f 98/98/98 97/97/97 95/95/95
f 99/99/99 98/98/98 96/96/96
f 100/100/100 68/68/68 97/97/97
f 100/100/100 97/97/97 98/98/98
f 69/69/69 68/68/68 100/100/100
f 101/101/101 98/98/98 99/99/99
f 101/101/101 100/100/100 98/98/98
f 102/102/102 101/101/101 99/99/99
f 103/103/103 69/69/69 100/100/100
f 103/103/103 100/100/100 101/101/101
f 72/72/72 69/69/69 103/103/103
f 104/104/104 101/101/101 102/102/102
f 104/104/104 103/103/103 101/101/101
f 105/105/105 104/104/104 102/102/102
f 106/106/106 72/72/72 103/103/103
f 106/106/106 103/103/103 104/104/104
f 76/76/76 72/72/72 106/106/106
f 107/107/107 104/104/104 105/105/105
f 107/107/107 106/106/106 104/104/104
f 108/108/108 107/107/107 105/105/105
f 109/109/109 76/76/76 106/106/106
f 109/109/109 106/106/106 107/107/107
f 110/110/110 107/107/107 108/108/108
f 110/110/110 109/109/109 107/107/107
f 111/111/111 110/110/110 108/108/108
f 112/112/112 76/76/76 109/109/109
f 112/112/112 77/77/77 76/76/76
f 113/113/113 77/77/77 112/112/112
f 114/114/114 110/110/110 111/111/111
f 115/115/115 114/114/114 111/111/111
f 116/116/116 109/109/109 110/110/110
f 116/116/116 112/112/112 109/109/109
f 114/114/114 116/116/116 110/110/110
f 117/117/117 113/113/113 112/112/112
f 117/117/117 112/112/112 116/116/116
f 118/118/118 113/113/113 117/117/117
f 119/119/119 118/118/118 117/117/117
f 120/120/120 117/117/117 116/116/116
f 119/119/119 117/117/117 120/120/120
f 120/120/120 116/116/116 114/114/114
f 121/121/121 119/119/119 120/120/120
f 122/122/122 114/114/114 115/115/115
f 122/122/122 120/120/120 114/114/114
f 121/121/121 120/120/120 122/122/122
f 123/123/123 122/122/122 115/115/115
f 124/124/124 121/121/121 122/122/122
f 124/124/124 122/122/122 123/123/123
f 125/125/125 124/124/124 123/123/123
f 128/128/128 127/127/127 126/126/126
f 129/129/129 128/128/128 126/126/126
f 129/129/129 126/126/126 130/130/130
f 131/131/131 129/129/129 130/130/130
f 131/131/131 130/130/130 132/132/132
f 133/133/133 131/131/131 132/132/132
f 133/133/133 132/132/132 134/134/134
f 135/135/135 133/133/133 134/134/134
f 135/135/135 134/134/134 136/136/136
f 137/137/137 135/135/135 136/136/136
f 137/137/137 136/136/136 138/138/138
f 139/139/139 137/137/137 138/138/138
f 140/140/140 139/139/139 138/138/138
f 141/141/141 140/140/140 138/138/138
f 140/140/140 141/141/141 142/142/142
f 143/143/143 140/140/140 142/142/142
f 143/143/143 142/142/142 144/144/144
f 145/145/145 143/143/143 144/144/144
f 145/145/145 144/144/144 146/146/146
f 147/147/147 145/145/145 146/146/146
f 147/147/147 146/146/146 148/148/148
f 149/149/149 147/147/147 148/148/148
f 149/149/149 148/148/148 150/150/150
f 151/151/151 149/149/149 150/150/150
f 151/151/151 150/150/150 152/152/152
f 153/153/153 151/151/151 152/152/152
f 153/153/153 152/152/152 154/154/154
f 155/155/155 153/153/153 154/154/154
f 155/155/155 154/154/154 156/156/156
f 157/157/157 155/155/155 156/156/156
f 157/157/157 156/156/156 158/158/158
f 159/159/159 157/157/157 158/158/158
f 159/159/159 158/158/158 160/160/160
f 161/161/161 159/159/159 160/160/160
f 164/164/164 163/163/163 162/162/162
f 163/163/163 165/165/165 162/162/162
f 162/162/162 165/165/165 166/166/166
f 165/165/165 167/167/167 166/166/166
f 166/166/166 167/167/167 168/168/168
f 167/167/167 169/169/169 168/168/168
f 168/168/168 169/169/169 170/170/170
f 169/169/169 171/171/171 170/170/170
f 170/170/170 171/171/171 172/172/172
f 171/171/171 173/173/173 172/172/172
f 172/172/172 173/173/173 174/174/174
f 173/173/173 175/175/175 174/174/174
f 174/174/174 175/175/175 176/176/176
f 175/175/175 177/177/177 176/176/176
f 176/176/176 177/177/177 178/178/178
f 177/177/177 179/179/179 178/178/178
f 178/178/178 179/179/179 180/180/180
f 179/179/179 181/181/181 180/180/180
f 180/180/180 181/181/181 182/182/182
f 181/181/181 183/183/183 182/182/182
f 182/182/182 183/183/183 184/184/184
f 183/183/183 185/185/185 184/184/184
f 184/184/184 185/185/185 186/186/186
f 185/185/185 187/187/187 186/186/186
f 186/186/186 187/187/187 188/188/188
f 187/187/187 189/189/189 188/188/188
f 188/188/188 189/189/189 190/190/190
f 189/189/189 191/191/191 190/190/190
f 190/190/190 191/191/191 192/192/192
f 191/191/191 193/193/193 192/192/192
f 192/192/192 193/193/193 194/194/194
f 193/193/193 195/195/195 194/194/194
f 194/194/194 195/195/195 196/196/196
f 195/195/195 197/197/197 196/196/196
f 200/200/200 199/199/199 198/198/198
f 201/201/201 200/200/200 198/198/198
f 201/201/201 198/198/198 202/202/202
f 203/203/203 201/201/201 202/202/202
f 203/203/203 202/202/202 204/204/204
f 205/205/205 203/203/203 204/204/204
f 205/205/205 204/204/204 206/206/206
f 207/207/207 205/205/205 206/206/206
f 207/207/207 206/206/206 208/208/208
f 209/209/209 207/207/207 208/208/208
f 209/209/209 208/208/208 210/210/210
f 211/211/211 209/209/209 210/210/210
f 212/212/212 211/211/211 210/210/210
f 213/213/213 212/212/212 210/210/210
f 212/212/212 213/213/213 214/214/214
f 215/215/215 212/212/212 214/214/214
f 215/215/215 214/214/214 216/216/216
f 217/217/217 215/215/215 216/216/216
f 217/217/217 216/216/216 218/218/218
f 219/219/219 217/217/217 218/218/218
f 219/219/219 218/218/218 220/220/220
f 221/221/221 219/219/219 220/220/220
f 221/221/221 220/220/220 222/222/222
f 223/223/223 221/221/221 222/222/222
f 223/223/223 222/222/222 224/224/224
f 225/225/225 223/223/223 224/224/224
f 225/225/225 224/224/224 226/226/226
f 227/227/227 225/225/225 226/226/226
f 227/227/227 226/226/226 228/228/228
f 229/229/229 227/227/227 228/228/228
f 229/229/229 228/228/228 230/230/230
f 231/231/231 229/229/229 230/230/230
f 231/231/231 230/230/230 232/232/232
f 233/233/233 231/231/231 232/232/232
f 236/236/236 235/235/235 234/234/234
f 235/235/235 237/237/237 234/234/234
f 235/235/235 238/238/238 237/237/237
f 238/238/238 239/239/239 237/237/237
f 238/238/238 240/240/240 239/239/239
f 240/240/240 241/241/241 239/239/239
f 240/240/240 242/242/242 241/241/241
f 242/242/242 243/243/243 241/241/241
f 242/242/242 244/244/244 243/243/243
f 244/244/244 245/245/245 243/243/243
f 244/244/244 246/246/246 245/245/245
f 246/246/246 247/247/247 245/245/245
f 247/247/247 246/246/246 248/248/248
f 246/246/246 249/249/249 248/248/248
f 249/249/249 250/250/250 248/248/248
f 250/250/250 251/251/251 248/248/248
f 250/250/250 252/252/252 251/251/251
f 252/252/252 253/253/253 251/251/251
f 252/252/252 254/254/254 253/253/253
f 254/254/254 255/255/255 253/253/253
f 254/254/254 256/256/256 255/255/255
f 256/256/256 257/257/257 255/255/255
f 256/256/256 258/258/258 257/257/257
f 258/258/258 259/259/259 257/257/257
f 258/258/258 260/260/260 259/259/259
f 260/260/260 261/261/261 259/259/259
f 260/260/260 262/262/262 261/261/261
f 262/262/262 263/263/263 261/261/261
f 262/262/262 264/264/264 263/263/263
f 264/264/264 265/265/265 263/263/263
f 264/264/264 266/266/266 265/265/265
f 266/266/266 267/267/267 265/265/265
f 266/266/266 268/268/268 267/267/267
f 268/268/268 269/269/269 267/267/267
f 272/272/272 271/271/271 270/270/270
f 271/271/271 273/273/273 270/270/270
f 270/270/270 273/273/273 274/274/274
f 273/273/273 275/275/275 274/274/274
f 274/274/274 275/275/275 276/276/276
f 275/275/275 277/277/277 276/276/276
f 276/276/276 277/277/277 278/278/278
f 277/277/277 279/279/279 278/278/278
f 278/278/278 279/279/279 280/280/280
f 279/279/279 281/281/281 280/280/280
f 280/280/280 281/281/281 282/282/282
f 281/281/281 283/283/283 282/282/282
f 283/283/283 284/284/284 282/282/282
f 284/284/284 285/285/285 282/282/282
f 285/285/285 284/284/284 286/286/286
f 284/284/284 287/287/287 286/286/286
f 286/286/286 287/287/287 288/288/288
f 287/287/287 289/289/289 288/288/288
f 288/288/288 289/289/289 290/290/290
f 289/289/289 291/291/291 290/290/290
f 290/290/290 291/291/291 292/292/292
f 291/291/291 293/293/293 292/292/292
f 292/292/292 293/293/293 294/294/294
f 293/293/293 295/295/295 294/294/294
f 294/294/294 295/295/295 296/296/296
f 295/295/295 297/297/297 296/296/296
f 296/296/296 297/297/297 298/298/298
f 297/297/297 299/299/299 298/298/298
f 298/298/298 299/299/299 300/300/300
f 299/299/299 301/301/301 300/300/300
f 300/300/300 301/301/301 302/302/302
f 301/301/301 303/303/303 302/302/302
f 302/302/302 303/303/303 304/304/304
f 303/303/303 305/305/305 304/304/304
f 308/308/308 307/307/307 306/306/306
f 309/309/309 308/308/308 306/306/306
f 309/309/309 306/306/306 310/310/310
f 311/311/311 309/309/309 310/310/310
f 311/311/311 310/310/310 312/312/312
f 313/313/313 311/311/311 312/312/312
f 313/313/313 312/312/312 314/314/314
f 315/315/315 313/313/313 314/314/314
f 315/315/315 314/314/314 316/316/316
f 317/317/317 315/315/315 316/316/316
f 317/317/317 316/316/316 318/318/318
f 319/319/319 317/317/317 318/318/318
f 319/319/319 318/318/318 320/320/320
f 321/321/321 319/319/319 320/320/320
f 321/321/321 320/320/320 322/322/322
f 323/323/323 321/321/321 322/322/322
f 323/323/323 322/322/322 324/324/324
f 325/325/325 323/323/323 324/324/324
f 325/325/325 324/324/324 326/326/326
f 327/327/327 325/325/325 326/326/326
f 327/327/327 326/326/326 328/328/328
f 329/329/329 327/327/327 328/328/328
f 329/329/329 328/328/328 330/330/330
f 331/331/331 329/329/329 330/330/330
f 331/331/331 330/330/330 332/332/332
f 333/333/333 331/331/331 332/332/332
f 333/333/333 332/332/332 334/334/334
f 335/335/335 333/333/333 334/334/334
f 335/335/335 334/334/334 336/336/336
f 337/337/337 335/335/335 336/336/336
f 337/337/337 336/336/336 338/338/338
f 339/339/339 337/337/337 338/338/338
f 339/339/339 338/338/338 340/340/340
f 341/341/341 339/339/339 340/340/340
f 344/344/344 343/343/343 342/342/342
f 343/343/343 345/345/345 342/342/342
f 342/342/342 345/345/345 346/346/346
f 345/345/345 347/347/347 346/346/346
f 346/346/346 347/347/347 348/348/348
f 347/347/347 349/349/349 348/348/348
f 348/348/348 349/349/349 350/350/350
f 349/349/349 351/351/351 350/350/350
f 350/350/350 351/351/351 352/352/352
f 351/351/351 353/353/353 352/352/352
f 352/352/352 353/353/353 354/354/354
f 353/353/353 355/355/355 354/354/354
f 355/355/355 356/356/356 354/354/354
f 356/356/356 357/357/357 354/354/354
f 357/357/357 356/356/356 358/358/358
f 356/356/356 359/359/359 358/358/358
f 358/358/358 359/359/359 360/360/360
f 359/359/359 361/361/361 360/360/360
f 360/360/360 361/361/361 362/362/362
f 361/361/361 363/363/363 362/362/362
f 362/362/362 363/363/363 364/364/364
f 363/363/363 365/365/365 364/364/364
f 364/364/364 365/365/365 366/366/366
f 365/365/365 367/367/367 366/366/366
f 366/366/366 367/367/367 368/368/368
f 367/367/367 369/369/369 368/368/368
f 368/368/368 369/369/369 370/370/370
f 369/369/369 371/371/371 370/370/370
f 370/370/370 371/371/371 372/372/372
f 371/371/371 373/373/373 372/372/372
f 372/372/372 373/373/373 374/374/374
f 373/373/373 375/375/375 374/374/374
f 374/374/374 375/375/375 376/376/376
f 375/375/375 377/377/377 376/376/376
f 380/380/380 379/379/379 378/378/378
f 381/381/381 380/380/380 378/378/378
f 382/382/382 380/380/380 381/381/381
f 383/383/383 382/382/382 381/381/381
f 384/384/384 382/382/382 383/383/383
f 385/385/385 384/384/384 383/383/383
f 386/386/386 384/384/384 385/385/385
f 387/387/387 386/386/386 385/385/385
f 388/388/388 386/386/386 387/387/387
f 389/389/389 388/388/388 387/387/387
f 390/390/390 388/388/388 389/389/389
f 391/391/391 390/390/390 389/389/389
f 390/390/390 391/391/391 392/392/392
f 393/393/393 390/390/390 392/392/392
f 394/394/394 393/393/393 392/392/392
f 395/395/395 394/394/394 392/392/392
f 396/396/396 394/394/394 395/395/395
f 397/397/397 396/396/396 395/395/395
f 398/398/398 396/396/396 397/397/397
f 399/399/399 398/398/398 397/397/397
f 400/400/400 398/398/398 399/399/399
f 401/401/401 400/400/400 399/399/399
f 402/402/402 400/400/400 401/401/401
f 403/403/403 402/402/402 401/401/401
f 404/404/404 402/402/402 403/403/403
f 405/405/405 404/404/404 403/403/403
f 406/406/406 404/404/404 405/405/405
f 407/407/407 406/406/406 405/405/405
f 408/408/408 406/406/406 407/407/407
f 409/409/409 408/408/408 407/407/407
f 410/410/410 408/408/408 409/409/409
f 411/411/411 410/410/410 409/409/409
f 412/412/412 410/410/410 411/411/411
f 413/413/413 412/412/412 411/411/411
f 416/416/416 415/415/415 414/414/414
f 417/417/417 416/416/416 414/414/414
f 417/417/417 414/414/414 418/418/418
f 419/419/419 417/417/417 418/418/418
f 419/419/419 418/418/418 420/420/420
f 421/421/421 419/419/419 420/420/420
f 421/421/421 420/420/420 422/422/422
f 423/423/423 421/421/421 422/422/422
f 423/423/423 422/422/422 424/424/424
f 425/425/425 423/423/423 424/424/424
f 425/425/425 424/424/424 426/426/426
f 427/427/427 425/425/425 426/426/426
f 428/428/428 427/427/427 426/426/426
f 429/429/429 428/428/428 426/426/426
f 428/428/428 429/429/429 430/430/430
f 431/431/431 428/428/428 430/430/430
f 431/431/431 430/430/430 432/432/432
f 433/433/433 431/431/431 432/432/432
f 433/433/433 432/432/432 434/434/434
f 435/435/435 433/433/433 434/434/434
f 435/435/435 434/434/434 436/436/436
f 437/437/437 435/435/435 436/436/436
f 437/437/437 436/436/436 438/438/438
f 439/439/439 437/437/437 438/438/438
f 439/439/439 438/438/438 440/440/440
f 441/441/441 439/439/439 440/440/440
f 441/441/441 440/440/440 442/442/442
f 443/443/443 441/441/441 442/442/442
f 443/443/443 442/442/442 444/444/444
f 445/445/445 443/443/443 444/444/444
f 445/445/445 444/444/444 446/446/446
f 447/447/447 445/445/445 446/446/446
f 447/447/447 446/446/446 448/448/448
f 449/449/449 447/447/447 448/448/448
f 452/452/452 451/451/451 450/450/450
f 451/451/451 453/453/453 450/450/450
f 450/450/450 453/453/453 454/454/454
f 453/453/453 455/455/455 454/454/454
f 454/454/454 455/455/455 456/456/456
f 455/455/455 457/457/457 456/456/456
f 456/456/456 457/457/457 458/458/458
f 457/457/457 459/459/459 458/458/458
f 458/458/458 459/459/459 460/460/460
f 459/459/459 461/461/461 460/460/460
f 460/460/460 461/461/461 462/462/462
f 461/461/461 463/463/463 462/462/462
f 462/462/462 463/463/463 464/464/464
f 463/463/463 465/465/465 464/464/464
f 464/464/464 465/465/465 466/466/466
f 465/465/465 467/467/467 466/466/466
f 466/466/466 467/467/467 468/468/468
f 467/467/467 469/469/469 468/468/468
f 468/468/468 469/469/469 470/470/470
f 469/469/469 471/471/471 470/470/470
f 470/470/470 471/471/471 472/472/472
f 471/471/471 473/473/473 472/472/472
f 472/472/472 473/473/473 474/474/474
f 473/473/473 475/475/475 474/474/474
f 474/474/474 475/475/475 476/476/476
f 475/475/475 477/477/477 476/476/476
f 476/476/476 477/477/477 478/478/478
f 477/477/477 479/479/479 478/478/478
f 478/478/478 479/479/479 480/480/480
f 479/479/479 481/481/481 480/480/480
f 480/480/480 481/481/481 482/482/482
f 481/481/481 483/483/483 482/482/482
f 482/482/482 483/483/483 484/484/484
f 483/483/483 485/485/485 484/484/484
f 488/488/488 487/487/487 486/486/486
f 489/489/489 488/488/488 486/486/486
f 489/489/489 486/486/486 490/490/490
f 491/491/491 489/489/489 490/490/490
f 491/491/491 490/490/490 492/492/492
f 493/493/493 491/491/491 492/492/492
f 493/493/493 492/492/492 494/494/494
f 495/495/495 493/493/493 494/494/494
f 495/495/495 494/494/494 496/496/496
f 497/497/497 495/495/495 496/496/496
f 497/497/497 496/496/496 498/498/498
f 499/499/499 497/497/497 498/498/498
f 500/500/500 499/499/499 498/498/498
f 501/501/501 500/500/500 498/498/498
f 500/500/500 501/501/501 502/502/502
f 503/503/503 500/500/500 502/502/502
f 503/503/503 502/502/502 504/504/504
f 505/505/505 503/503/503 504/504/504
f 505/505/505 504/504/504 506/506/506
f 507/507/507 505/505/505 506/506/506
f 507/507/507 506/506/506 508/508/508
f 509/509/509 507/507/507 508/508/508
f 509/509/509 508/508/508 510/510/510
f 511/511/511 509/509/509 510/510/510
f 511/511/511 510/510/510 512/512/512
f 513/513/513 511/511/511 512/512/512
f 513/513/513 512/512/512 514/514/514
f 515/515/515 513/513/513 514/514/514
f 515/515/515 514/514/514 516/516/516
f 517/517/517 515/515/515 516/516/516
f 517/517/517 516/516/516 518/518/518
f 519/519/519 517/517/517 518/518/518
f 519/519/519 518/518/518 520/520/520
f 521/521/521 519/519/519 520/520/520
f 524/524/524 523/523/523 522/522/522
f 523/523/523 525/525/525 522/522/522
f 523/523/523 526/526/526 525/525/525
f 526/526/526 527/527/527 525/525/525
f 526/526/526 528/528/528 527/527/527
f 528/528/528 529/529/529 527/527/527
f 528/528/528 530/530/530 529/529/529
f 530/530/530 531/531/531 529/529/529
f 530/530/530 532/532/532 531/531/531
f 532/532/532 533/533/533 531/531/531
f 532/532/532 534/534/534 533/533/533
f 534/534/534 535/535/535 533/533/533
f 535/535/535 534/534/534 536/536/536
f 534/534/534 537/537/537 536/536/536
f 537/537/537 538/538/538 536/536/536
f 538/538/538 539/539/539 536/536/536
f 538/538/538 540/540/540 539/539/539
f 540/540/540 541/541/541 539/539/539
f 540/540/540 542/542/542 541/541/541
f 542/542/542 543/543/543 541/541/541
f 542/542/542 544/544/544 543/543/543
f 544/544/544 545/545/545 543/543/543
f 544/544/544 546/546/546 545/545/545
f 546/546/546 547/547/547 545/545/545
f 546/546/546 548/548/548 547/547/547
f 548/548/548 549/549/549 547/547/547
f 548/548/548 550/550/550 549/549/549
f 550/550/550 551/551/551 549/549/549
f 550/550/550 552/552/552 551/551/551
f 552/552/552 553/553/553 551/551/551
f 552/552/552 554/554/554 553/553/553
f 554/554/554 555/555/555 553/553/553
f 554/554/554 556/556/556 555/555/555
f 556/556/556 557/557/557 555/555/555
f 560/560/560 559/559/559 558/558/558
f 559/559/559 561/561/561 558/558/558
f 558/558/558 561/561/561 562/562/562
f 561/561/561 563/563/563 562/562/562
f 562/562/562 563/563/563 564/564/564
f 563/563/563 565/565/565 564/564/564
f 564/564/564 565/565/565 566/566/566
f 565/565/565 567/567/567 566/566/566
f 566/566/566 567/567/567 568/568/568
f 567/567/567 569/569/569 568/568/568
f 568/568/568 569/569/569 570/570/570
f 569/569/569 571/571/571 570/570/570
f 571/571/571 572/572/572 570/570/570
f 572/572/572 573/573/573 570/570/570
f 573/573/573 572/572/572 574/574/574
f 572/572/572 575/575/575 574/574/574
f 574/574/574 575/575/575 576/576/576
f 575/575/575 577/577/577 576/576/576
f 576/576/576 577/577/577 578/578/578
f 577/577/577 579/579/579 578/578/578
f 578/578/578 579/579/579 580/580/580
f 579/579/579 581/581/581 580/580/580
f 580/580/580 581/581/581 582/582/582
f 581/581/581 583/583/583 582/582/582
f 582/582/582 583/583/583 584/584/584
f 583/583/583 585/585/585 584/584/584
f 584/584/584 585/585/585 586/586/586
f 585/585/585 587/587/587 586/586/586
f 586/586/586 587/587/587 588/588/588
f 587/587/587 589/589/589 588/588/588
f 588/588/588 589/589/589 590/590/590
f 589/589/589 591/591/591 590/590/590
f 590/590/590 591/591/591 592/592/592
f 591/591/591 593/593/593 592/592/592
f 596/596/596 595/595/595 594/594/594
f 597/597/597 596/596/596 594/594/594
f 597/597/597 594/594/594 598/598/598
f 599/599/599 597/597/597 598/598/598
f 599/599/599 598/598/598 600/600/600
f 601/601/601 599/599/599 600/600/600
f 601/601/601 600/600/600 602/602/602
f 603/603/603 601/601/601 602/602/602
f 603/603/603 602/602/602 604/604/604
f 605/605/605 603/603/603 604/604/604
f 605/605/605 604/604/604 606/606/606
f 607/607/607 605/605/605 606/606/606
f 607/607/607 606/606/606 608/608/608
f 609/609/609 607/607/607 608/608/608
f 609/609/609 608/608/608 610/610/610
f 611/611/611 609/609/609 610/610/610
f 611/611/611 610/610/610 612/612/612
f 613/613/613 611/611/611 612/612/612
f 613/613/613 612/612/612 614/614/614
f 615/615/615 613/613/613 614/614/614
f 615/615/615 614/614/614 616/616/616
f 617/617/617 615/615/615 616/616/616
f 617/617/617 616/616/616 618/618/618
f 619/619/619 617/617/617 618/618/618
f 619/619/619 618/618/618 620/620/620
f 621/621/621 619/619/619 620/620/620
f 621/621/621 620/620/620 622/622/622
f 623/623/623 621/621/621 622/622/622
f 623/623/623 622/622/622 624/624/624
f 625/625/625 623/623/623 624/624/624
f 625/625/625 624/624/624 626/626/626
f 627/627/627 625/625/625 626/626/626
f 627/627/627 626/626/626 628/628/628
f 629/629/629 627/627/627 628/628/628
f 632/632/632 631/631/631 630/630/630
f 631/631/631 633/633/633 630/630/630
f 630/630/630 633/633/633 634/634/634
f 633/633/633 635/635/635 634/634/634
f 634/634/634 635/635/635 636/636/636
f 635/635/635 637/637/637 636/636/636
f 636/636/636 637/637/637 638/638/638
f 637/637/637 639/639/639 638/638/638
f 638/638/638 639/639/639 640/640/640
f 639/639/639 641/641/641 640/640/640
f 640/640/640 641/641/641 642/642/642
f 641/641/641 643/643/643 642/642/642
f 643/643/643 644/644/644 642/642/642
f 644/644/644 645/645/645 642/642/642
f 645/645/645 644/644/644 646/646/646
f 644/644/644 647/647/647 646/646/646
f 646/646/646 647/647/647 648/648/648
f 647/647/647 649/649/649 648/648/648
f 648/648/648 649/649/649 650/650/650
f 649/649/649 651/651/651 650/650/650
f 650/650/650 651/651/651 652/652/652
f 651/651/651 653/653/653 652/652/652
f 652/652/652 653/653/653 654/654/654
f 653/653/653 655/655/655 654/654/654
f 654/654/654 655/655/655 656/656/656
f 655/655/655 657/657/657 656/656/656
f 656/656/656 657/657/657 658/658/658
f 657/657/657 659/659/659 658/658/658
f 658/658/658 659/659/659 660/660/660
f 659/659/659 661/661/661 660/660/660
f 660/660/660 661/661/661 662/662/662
f 661/661/661 663/663/663 662/662/662
f 662/662/662 663/663/663 664/664/664
f 663/663/663 665/665/665 664/664/664
f 668/668/668 667/667/667 666/666/666
f 669/669/669 668/668/668 666/666/666
f 670/670/670 668/668/668 669/669/669
f 671/671/671 670/670/670 669/669/669
f 672/672/672 670/670/670 671/671/671
f 673/673/673 672/672/672 671/671/671
f 674/674/674 672/672/672 673/673/673
f 675/675/675 674/674/674 673/673/673
f 676/676/676 674/674/674 675/675/675
f 677/677/677 676/676/676 675/675/675
f 678/678/678 676/676/676 677/677/677
f 679/679/679 678/678/678 677/677/677
f 678/678/678 679/679/679 680/680/680
f 681/681/681 678/678/678 680/680/680
f 682/682/682 681/681/681 680/680/680
f 683/683/683 682/682/682 680/680/680
f 684/684/684 682/682/682 683/683/683
f 685/685/685 684/684/684 683/683/683
f 686/686/686 684/684/684 685/685/685
f 687/687/687 686/686/686 685/685/685
f 688/688/688 686/686/686 687/687/687
f 689/689/689 688/688/688 687/687/687
f 690/690/690 688/688/688 689/689/689
f 691/691/691 690/690/690 689/689/689
f 692/692/692 690/690/690 691/691/691
f 693/693/693 692/692/692 691/691/691
f 694/694/694 692/692/692 693/693/693
f 695/695/695 694/694/694 693/693/693
f 696/696/696 694/694/694 695/695/695
f 697/697/697 696/696/696 695/695/695
f 698/698/698 696/696/696 697/697/697
f 699/699/699 698/698/698 697/697/697
f 700/700/700 698/698/698 699/699/699
f 701/701/701 700/700/700 699/699/699
f 704/704/704 703/703/703 702/702/702
f 705/705/705 704/704/704 702/702/702
f 702/702/702 706/706/706 705/705/705
f 705/705/705 707/707/707 704/704/704
f 707/707/707 708/708/708 704/704/704
f 706/706/706 709/709/709 705/705/705
f 705/705/705 709/709/709 707/707/707
f 707/707/707 710/710/710 708/708/708
f 710/710/710 711/711/711 708/708/708
f 710/710/710 707/707/707 712/712/712
f 709/709/709 712/712/712 707/707/707
f 713/713/713 710/710/710 712/712/712
f 712/712/712 714/714/714 713/713/713
f 714/714/714 712/712/712 709/709/709
f 714/714/714 715/715/715 713/713/713
f 716/716/716 714/714/714 709/709/709
f 709/709/709 706/706/706 716/716/716
f 706/706/706 717/717/717 716/716/716
f 720/720/720 719/719/719 718/718/718
f 721/721/721 720/720/720 718/718/718
f 718/718/718 722/722/722 721/721/721
f 721/721/721 723/723/723 720/720/720
f 723/723/723 724/724/724 720/720/720
f 722/722/722 725/725/725 721/721/721
f 723/723/723 721/721/721 725/725/725
f 723/723/723 726/726/726 724/724/724
f 726/726/726 727/727/727 724/724/724
f 723/723/723 728/728/728 726/726/726
f 728/728/728 723/723/723 725/725/725
f 728/728/728 729/729/729 726/726/726
f 728/728/728 730/730/730 729/729/729
f 730/730/730 728/728/728 725/725/725
f 730/730/730 731/731/731 729/729/729
f 732/732/732 730/730/730 725/725/725
f 725/725/725 722/722/722 732/732/732
f 722/722/722 733/733/733 732/732/732
f 736/736/736 735/735/735 734/734/734
f 737/737/737 736/736/736 734/734/734
f 734/734/734 738/738/738 737/737/737
f 737/737/737 739/739/739 736/736/736
f 739/739/739 740/740/740 736/736/736
f 739/739/739 741/741/741 740/740/740
f 741/741/741 742/742/742 740/740/740
f 739/739/739 743/743/743 741/741/741
f 743/743/743 739/739/739 737/737/737
f 743/743/743 744/744/744 741/741/741
f 738/738/738 745/745/745 737/737/737
f 745/745/745 743/743/743 737/737/737
f 743/743/743 746/746/746 744/744/744
f 746/746/746 743/743/743 745/745/745
f 746/746/746 747/747/747 744/744/744
f 748/748/748 746/746/746 745/745/745
f 745/745/745 738/738/738 748/748/748
f 738/738/738 749/749/749 748/748/748
f 752/752/752 751/751/751 750/750/750
f 753/753/753 752/752/752 750/750/750
f 750/750/750 754/754/754 753/753/753
f 753/753/753 755/755/755 752/752/752
f 755/755/755 756/756/756 752/752/752
f 755/755/755 757/757/757 756/756/756
f 757/757/757 758/758/758 756/756/756
f 755/755/755 759/759/759 757/757/757
f 759/759/759 755/755/755 753/753/753
f 759/759/759 760/760/760 757/757/757
f 754/754/754 761/761/761 753/753/753
f 761/761/761 759/759/759 753/753/753
f 759/759/759 762/762/762 760/760/760
f 759/759/759 761/761/761 762/762/762
f 762/762/762 763/763/763 760/760/760
f 761/761/761 764/764/764 762/762/762
f 761/761/761 754/754/754 764/764/764
f 754/754/754 765/765/765 764/764/764
f 768/768/768 767/767/767 766/766/766
f 769/769/769 768/768/768 766/766/766
f 766/766/766 770/770/770 769/769/769
f 769/769/769 771/771/771 768/768/768
f 771/771/771 772/772/772 768/768/768
f 771/771/771 773/773/773 772/772/772
f 773/773/773 774/774/774 772/772/772
f 771/771/771 775/775/775 773/773/773
f 775/775/775 771/771/771 769/769/769
f 775/775/775 776/776/776 773/773/773
f 770/770/770 777/777/777 769/769/769
f 777/777/777 775/775/775 769/769/769
f 775/775/775 778/778/778 776/776/776
f 778/778/778 775/775/775 777/777/777
f 778/778/778 779/779/779 776/776/776
f 780/780/780 778/778/778 777/777/777
f 777/777/777 770/770/770 780/780/780
f 770/770/770 781/781/781 780/780/780
f 784/784/784 783/783/783 782/782/782
f 785/785/785 784/784/784 782/782/782
f 782/782/782 786/786/786 785/785/785
f 785/785/785 787/787/787 784/784/784
f 787/787/787 788/788/788 784/784/784
f 787/787/787 789/789/789 788/788/788
f 789/789/789 790/790/790 788/788/788
f 787/787/787 791/791/791 789/789/789
f 791/791/791 787/787/787 785/785/785
f 791/791/791 792/792/792 789/789/789
f 786/786/786 793/793/793 785/785/785
f 793/793/793 791/791/791 785/785/785
f 791/791/791 794/794/794 792/792/792
f 794/794/794 791/791/791 793/793/793
f 794/794/794 795/795/795 792/792/792
f 796/796/796 794/794/794 793/793/793
f 793/793/793 786/786/786 796/796/796
f 786/786/786 797/797/797 796/796/796
