g item_13polySurface3_mobile
v -113.395775 5.70220331 110.388808
v -123.602912 -2.06625558 103.116912
v -113.290945 11.0154319 94.3939481
v 90.7138614 -17.7190381 33.7745888
v 92.893223 -21.3329164 48.8645995
v 101.809295 -9.4429811 42.023059
v -43.4299887 -52.0095012 -9.43746373
v -44.3458724 -43.8548263 2.81110071
v -28.0530747 -51.5736289 -2.55178426
v 95.0229284 25.7578482 -160.635509
v 81.9522756 24.3785054 -169.170882
v 95.6629435 16.9355714 -174.103412
v 95.6298392 5.83462022 -51.4025904
v 64.9642892 14.121712 -58.840007
v 105.57766 18.0500804 -63.6677069
v -8.26226362 -5.66909908 -23.7219382
v 2.6400622 8.267781 -48.6549394
v 1.44830998 3.31318151 -13.1837589
v -31.2972891 0.00275868568 -64.7104901
v -43.6727531 5.39874788 -95.8615688
v -33.5980329 -4.46631212 -89.9966031
v -3.57249796 11.8099334 -99.4975166
v -0.598634793 8.92434819 -60.1807282
v -14.1934378 -1.47037947 -87.5689597
v 88.540017 42.304445 -78.6528875
v 96.4739971 15.8376145 -85.5164975
v 93.9139367 15.5617459 -79.2708331
v 7.86501289 31.9317868 -111.210896
v 4.39458629 10.8554282 -110.311564
v 7.08706352 10.9933625 -117.79312
v 88.540017 42.304445 -78.6528875
v 34.3704649 26.6020061 -60.5559095
v 81.957793 44.384494 -81.036392
v -64.9256676 16.7976371 -3.41801156
v -35.2256575 23.7219382 -45.647972
v -37.0022511 33.4876855 -45.6590068
v -61.5766232 9.68022807 -3.55042848
v -32.7097362 2.72834014 -45.9348753
v -81.9688277 5.28840046 26.2157901
v -74.6693454 -19.5011491 24.0253936
v -78.2611542 -3.78767544 26.5026934
v -99.5416555 -10.5464554 57.8523975
v -119.536609 -40.8809632 90.8517956
v -103.144499 -2.61247534 58.7793159
v -124.618108 -25.3881844 96.9429736
v -128.386473 -17.7852466 100.082358
v 71.811347 18.2707753 57.4772162
v 60.9310907 12.4389137 72.285841
v 44.5831193 15.1038041 61.753179
v 55.3475109 20.8860093 46.6245467
v 103.767962 1.84556072 45.8631495
v 85.6433971 -5.21667463 82.2502137
v 106.52113 9.0181435 48.202515
v 83.0005762 -11.4402695 78.1066678
v 101.809295 -9.4429811 42.023059
v 92.893223 -21.3329164 48.8645995
v 58.4813778 -37.5429535 100.258914
v 61.5931753 -21.1232563 107.779091
v 64.3353088 -14.1382641 111.260552
v 51.5239725 -17.8183508 131.680344
v 49.1349507 -24.2847101 127.393346
v 37.4601929 -33.2780254 145.777228
v 17.7576597 -58.0068839 164.889402
v 40.0092185 -26.5854539 150.693205
v 19.4073538 -42.9334253 174.197208
v 19.6721876 -37.1236333 179.532506
v -2.04418609 25.8516435 -27.9316926
v -37.0022511 33.4876855 -45.6590068
v -35.2256575 23.7219382 -45.647972
v -3.34076836 18.5080223 -27.3909902
v -32.7097362 2.72834014 -45.9348753
v 33.3663033 -7.68293963 -3.37387259
v 34.3649476 14.8058661 0.609669536
v 36.2518886 23.3081353 0.86898599
v 69.8802671 8.88020922 23.1867532
v 90.7138614 -17.7190381 33.7745888
v 101.809295 -9.4429811 42.023059
v 70.9947761 16.483147 23.5067607
v 103.767962 1.84556072 45.8631495
v 106.52113 9.0181435 48.202515
v 18.6459565 -29.0186147 179.201463
v 40.0092185 -26.5854539 150.693205
v 19.6721876 -37.1236333 179.532506
v 36.3291318 -20.0363341 151.410464
v 16.7534982 -10.8002545 180.790466
v 47.7997468 -9.80712761 132.336911
v 51.5239725 -17.8183508 131.680344
v 54.3378319 11.9037287 120.79457
v 61.4221368 -6.5905001 111.613664
v 64.3353088 -14.1382641 111.260552
v 82.3495264 2.2538462 82.8847114
v 97.9029962 35.9042942 59.1544971
v 85.6433971 -5.21667463 82.2502137
v 102.7638 15.8652014 50.9722354
v 106.52113 9.0181435 48.202515
v 45.3665861 3.40145945 95.9995031
v 36.7650041 -1.57520953 109.048086
v 21.1398084 0.631739022 100.038219
v 29.6531124 6.30911416 84.6337181
v -51.4577641 -27.6723761 110.306047
v -29.97312 -30.6186524 122.736685
v -16.9631583 -25.5206013 103.172086
v -38.8505705 -22.6184639 90.9069693
v -124.618108 -25.3881844 96.9429736
v -128.386473 -17.7852466 100.082358
v -92.8049451 -27.655824 121.075956
v -90.813174 -32.4449023 116.899306
v -119.536609 -40.8809632 90.8517956
v -53.2509098 -28.1413527 140.557794
v -48.781839 -49.4108193 128.033361
v -50.5308457 -33.6752761 135.812855
v -10.9823277 -35.2366922 158.897537
v 17.7576597 -58.0068839 164.889402
v -12.6320217 -28.9579236 164.376286
v 19.4073538 -42.9334253 174.197208
v 19.6721876 -37.1236333 179.532506
v -3.35732048 -15.3962248 142.406114
v 6.50773953 -9.50367218 126.626432
v 21.9398272 -11.7051034 135.956307
v 12.6375391 -17.8514551 152.238069
v -36.362236 15.8486493 45.1238217
v -25.8019872 31.7386788 49.4163367
v -47.3693919 19.633566 80.7825929
v -49.6535836 8.52158008 64.2691004
v 34.4146039 1.78486964 21.1729126
v 15.4900201 4.57665955 9.78505812
v 5.79048125 -1.57520953 28.2461827
v 21.9453446 -4.1628567 38.7898794
v -103.144499 -2.61247534 58.7793159
v -126.030555 -12.8527166 101.367905
v -128.386473 -17.7852466 100.082358
v -100.440987 3.29662939 62.4097462
v -123.602912 -2.06625558 103.116912
v -113.290945 11.0154319 94.3939481
v -77.0197456 31.5731577 38.7678099
v -79.1384162 12.4333964 30.5910656
v -81.9688277 5.28840046 26.2157901
v -64.9256676 16.7976371 -3.41801156
v -62.2718119 23.6943513 0.86898599
v -36.2849928 58.0068839 -28.2792869
v -36.3843055 40.0533574 -39.7112804
v -37.0022511 33.4876855 -45.6590068
v -126.030555 -12.8527166 101.367905
v -92.8049451 -27.655824 121.075956
v -128.386473 -17.7852466 100.082358
v -91.6518145 -20.9356657 120.115933
v -123.602912 -2.06625558 103.116912
v -113.395775 5.70220331 110.388808
v -49.9184175 -1.15037193 141.225396
v -51.8108758 -22.9439888 139.239143
v -53.2509098 -28.1413527 140.557794
v -12.6320217 -28.9579236 164.376286
v -11.892694 -24.5936829 163.195569
v 16.7534982 -10.8002545 180.790466
v 18.6459565 -29.0186147 179.201463
v 19.6721876 -37.1236333 179.532506
v -49.6535836 8.52158008 64.2691004
v -69.4388774 10.4857643 54.4702488
v -54.1557587 18.563196 33.6697588
v -36.362236 15.8486493 45.1238217
v -41.2120054 -35.8822247 76.015584
v -38.8505705 -22.6184639 90.9069693
v -16.9631583 -25.5206013 103.172086
v -6.54084376 -40.1471528 94.5373997
v 70.9947761 16.483147 23.5067607
v 106.52113 9.0181435 48.202515
v 102.7638 15.8652014 50.9722354
v 69.240252 22.3646648 28.2241132
v 97.9029962 35.9042942 59.1544971
v 36.2518886 23.3081353 0.86898599
v 30.8779689 46.5362688 15.3851901
v 33.702863 29.2779312 6.43049633
v -4.1242351 33.4325118 -22.2598348
v -36.2849928 58.0068839 -28.2792869
v -2.04418609 25.8516435 -27.9316926
v -36.3843055 40.0533574 -39.7112804
v -37.0022511 33.4876855 -45.6590068
v -39.3195471 -3.41801156 100.74996
v -17.6748992 -5.50909531 110.92951
v -29.2668964 -11.8982114 127.630593
v -50.9005096 -9.96713138 118.400031
v -27.1758127 35.6835993 -10.5795596
v -11.8595898 32.6104235 0.582082679
v -22.0170704 25.917852 18.325949
v -37.9071 28.5441208 7.51741849
v -33.8573494 -32.9359484 67.0939945
v -2.15453352 -37.7415788 86.934462
v -5.99462399 -18.28181 79.4970454
v -23.5453823 -15.9755488 69.7202633
v 21.6032676 18.2100842 48.5170051
v 23.3798612 28.577225 66.8677823
v -11.892694 33.9952837 44.6051888
v 2.45247157 21.1453258 36.3677534
v -95.878121 -4.84701075 95.7181172
v -111.674355 7.78776969 104.48522
v -88.0820752 19.7328787 72.7161959
v -84.1647415 1.53658793 78.3163279
v 26.11096 24.7205824 78.7963392
v 29.6531124 6.30911416 84.6337181
v 21.1398084 0.631739022 100.038219
v 9.53125904 13.4982491 108.722561
v 33.7083804 24.8309298 31.0103858
v 21.6032676 18.2100842 48.5170051
v 2.45247157 21.1453258 36.3677534
v 14.0334341 28.5220513 16.9079846
v -18.8721688 2.38074575 12.3340837
v -6.10497142 9.02917824 -6.94912924
v -25.2833543 12.4002922 -20.6211755
v -36.6822435 6.33118365 -0.797260163
v -84.1647415 1.53658793 78.3163279
v -67.353311 -0.0634497707 86.653076
v -76.9590545 -7.495349 106.482509
v -95.878121 -4.84701075 95.7181172
v -81.1026004 -16.1134831 69.3726689
v -94.3718786 -23.258479 90.3773017
v -77.025263 -24.4943702 98.4105944
v -63.8056412 -19.3576974 76.9976761
v -10.3312779 -9.03469562 50.2715292
v -23.5453823 -15.9755488 69.7202633
v -5.99462399 -18.28181 79.4970454
v 5.56426902 -11.7602771 61.3779978
v 20.9963567 -29.8186336 127.580937
v 2.91593077 -28.6323987 116.060665
v -8.7477923 -32.4780066 133.175551
v 10.6733549 -35.6891167 144.624097
v 34.3980518 -23.4846912 107.155628
v 47.2921487 -17.8017987 88.2751832
v 27.7661714 -15.4624333 77.4501006
v 16.4941817 -21.564646 93.6822071
v -51.8053585 40.6878552 18.0114588
v -37.9071 28.5441208 7.51741849
v -22.0170704 25.917852 18.325949
v -18.6845781 35.4960087 39.0712653
v 20.9467004 25.8957825 74.3162336
v 7.02637244 9.58091538 71.0168456
v -11.0043972 12.2513231 59.9489986
v -16.1852089 30.7455519 53.521261
v -12.3727053 -21.1563605 34.1166659
v -33.8573494 -32.9359484 67.0939945
v -23.5453823 -15.9755488 69.7202633
v -10.3312779 -9.03469562 50.2715292
v 2.09935981 9.71884967 118.074506
v 6.50773953 -9.50367218 126.626432
v -3.35732048 -15.3962248 142.406114
v -18.1880147 -2.48005843 150.461476
v 39.3581687 9.11745619 126.609879
v 36.7650041 -1.57520953 109.048086
v 45.3665861 3.40145945 95.9995031
v 60.2800409 19.9977125 98.3774902
v 5.79048125 -1.57520953 28.2461827
v -6.28704467 -17.895594 24.0364284
v 25.0130031 -23.600556 46.5086819
v 21.9453446 -4.1628567 38.7898794
v 36.7650041 -1.57520953 109.048086
v 39.3581687 9.11745619 126.609879
v 9.53125904 13.4982491 108.722561
v 21.1398084 0.631739022 100.038219
v 7.02637244 9.58091538 71.0168456
v -2.92696551 3.84284916 86.1344431
v -23.4791739 6.15462776 75.5190206
v -11.0043972 12.2513231 59.9489986
v -16.1852089 30.7455519 53.521261
v -11.0043972 12.2513231 59.9489986
v -23.4791739 6.15462776 75.5190206
v -36.0256763 19.0045857 83.9219772
v 0.74760382 49.2452981 2.80558334
v -11.8595898 32.6104235 0.582082679
v -27.1758127 35.6835993 -10.5795596
v -32.632493 54.8454301 -18.7287171
v -54.1557587 18.563196 33.6697588
v -57.3337646 37.6477835 25.5371534
v -25.8019872 31.7386788 49.4163367
v -36.362236 15.8486493 45.1238217
v 66.3381146 -29.9896721 75.3424647
v 62.8345838 -10.6788723 67.3036546
v 44.0755212 -8.01398191 54.0950676
v 32.1083427 -24.9302425 51.7446674
v 37.9622737 -42.216167 113.892338
v 59.5683 -32.3345549 82.4267696
v 47.2921487 -17.8017987 88.2751832
v 34.3980518 -23.4846912 107.155628
v 21.9453446 -4.1628567 38.7898794
v 25.0130031 -23.600556 46.5086819
v 47.9597506 -12.6485739 14.0720557
v 34.4146039 1.78486964 21.1729126
v 32.1083427 -24.9302425 51.7446674
v 44.0755212 -8.01398191 54.0950676
v 57.7199806 -2.2924678 37.818822
v 56.4509852 -14.4968933 21.0239436
v 14.596206 -53.9460986 150.875279
v 10.6733549 -35.6891167 144.624097
v -8.7477923 -32.4780066 133.175551
v -19.2749369 -49.8025527 132.833474
v -29.97312 -30.6186524 122.736685
v -27.0654652 -48.8535648 128.673376
v -6.54084376 -40.1471528 94.5373997
v -16.9631583 -25.5206013 103.172086
v 0.190349312 -41.4492524 99.5471729
v 2.91593077 -28.6323987 116.060665
v 20.9963567 -29.8186336 127.580937
v 34.0228705 -44.4838067 120.949056
v -11.8595898 32.6104235 0.582082679
v 0.74760382 49.2452981 2.80558334
v -18.6845781 35.4960087 39.0712653
v -22.0170704 25.917852 18.325949
v 56.4509852 -14.4968933 21.0239436
v 57.7199806 -2.2924678 37.818822
v 76.1700704 -5.20563989 48.9639122
v 88.926233 -19.3632148 40.8975153
v 59.5683 -32.3345549 82.4267696
v 25.4543928 -27.4958202 59.5958868
v 27.7661714 -15.4624333 77.4501006
v 47.2921487 -17.8017987 88.2751832
v 16.4941817 -21.564646 93.6822071
v 2.9876566 -38.5250456 90.2062632
v 37.9622737 -42.216167 113.892338
v 34.3980518 -23.4846912 107.155628
v -62.1173255 -44.2189728 109.042569
v -51.4577641 -27.6723761 110.306047
v -38.8505705 -22.6184639 90.9069693
v -41.2120054 -35.8822247 76.015584
v -88.0820752 19.7328787 72.7161959
v -56.2192556 16.6597028 88.1758705
v -67.353311 -0.0634497707 86.653076
v -84.1647415 1.53658793 78.3163279
v 23.3798612 28.577225 66.8677823
v 21.6032676 18.2100842 48.5170051
v 33.7083804 24.8309298 31.0103858
v 46.8342069 40.4506082 36.3125797
v -4.47734687 11.269231 112.700586
v -17.6748992 -5.50909531 110.92951
v -39.3195471 -3.41801156 100.74996
v -44.5720846 15.0596651 94.2670485
v -94.3718786 -23.258479 90.3773017
v -106.134914 -39.0933348 86.7634235
v -74.4652027 -42.9665295 103.365194
v -77.025263 -24.4943702 98.4105944
v -43.463093 -31.3469454 60.7655696
v -46.2548829 -12.4554659 55.8054527
v -65.229123 -8.60985802 45.4272772
v -75.3810863 -25.0074857 42.6630741
v 47.9597506 -12.6485739 14.0720557
v 13.4872143 -7.36293209 -7.39051895
v 15.4900201 4.57665955 9.78505812
v 34.4146039 1.78486964 21.1729126
v -44.5720846 15.0596651 94.2670485
v -39.3195471 -3.41801156 100.74996
v -50.9005096 -9.96713138 118.400031
v -67.8498744 3.09800402 125.682961
v -17.6748992 -5.50909531 110.92951
v -4.47734687 11.269231 112.700586
v -24.9136904 -1.2717541 145.755158
v -29.2668964 -11.8982114 127.630593
v 60.9310907 12.4389137 72.285841
v 62.8732054 22.7729503 90.8517956
v 29.2668964 28.1303179 69.3064604
v 44.5831193 15.1038041 61.753179
v 15.6169197 -7.5725922 171.228862
v 12.6375391 -17.8514551 152.238069
v 21.9398272 -11.7051034 135.956307
v 34.712542 5.00701452 137.760487
v -33.0352611 -4.8745976 35.484974
v -21.2280863 -19.2970064 27.2640906
v -54.0343765 -13.1506547 5.07874034
v -51.3750035 -1.79590438 23.0267494
v -67.8498744 3.09800402 125.682961
v -50.9005096 -9.96713138 118.400031
v -29.2668964 -11.8982114 127.630593
v -24.9136904 -1.2717541 145.755158
v -47.3693919 19.633566 80.7825929
v -82.4212522 23.3467569 62.5973369
v -69.4388774 10.4857643 54.4702488
v -49.6535836 8.52158008 64.2691004
v 2.91593077 -28.6323987 116.060665
v 0.190349312 -41.4492524 99.5471729
v -19.2749369 -49.8025527 132.833474
v -8.7477923 -32.4780066 133.175551
v 51.5625941 40.1471528 38.0450343
v 55.3475109 20.8860093 46.6245467
v 44.5831193 15.1038041 61.753179
v 29.2668964 28.1303179 69.3064604
v -18.1880147 -2.48005843 150.461476
v -3.35732048 -15.3962248 142.406114
v 12.6375391 -17.8514551 152.238069
v 15.6169197 -7.5725922 171.228862
v 85.3675285 34.712542 60.2469367
v 71.811347 18.2707753 57.4772162
v 55.3475109 20.8860093 46.6245467
v 51.5625941 40.1471528 38.0450343
v -25.2833543 12.4002922 -20.6211755
v -6.10497142 9.02917824 -6.94912924
v 6.43049633 -5.45943897 -14.3865458
v -28.8089546 0.234488283 -37.3112239
v 62.8345838 -10.6788723 67.3036546
v 66.3381146 -29.9896721 75.3424647
v 88.926233 -19.3632148 40.8975153
v 76.1700704 -5.20563989 48.9639122
v -50.3818766 -33.9290752 68.5505806
v -63.8056412 -19.3576974 76.9976761
v -77.025263 -24.4943702 98.4105944
v -74.4652027 -42.9665295 103.365194
v 46.8342069 40.4506082 36.3125797
v 33.7083804 24.8309298 31.0103858
v 14.0334341 28.5220513 16.9079846
v 7.31327575 47.4631872 8.97400453
v -56.2192556 16.6597028 88.1758705
v -75.3259126 3.96423133 121.809766
v -76.9590545 -7.495349 106.482509
v -67.353311 -0.0634497707 86.653076
v -75.3810863 -25.0074857 42.6630741
v -65.229123 -8.60985802 45.4272772
v -51.3750035 -1.79590438 23.0267494
v -54.0343765 -13.1506547 5.07874034
v -46.2548829 -12.4554659 55.8054527
v -33.0352611 -4.8745976 35.484974
v -51.3750035 -1.79590438 23.0267494
v -65.229123 -8.60985802 45.4272772
v -32.632493 54.8454301 -18.7287171
v -27.1758127 35.6835993 -10.5795596
v -37.9071 28.5441208 7.51741849
v -51.8053585 40.6878552 18.0114588
v -76.9590545 -7.495349 106.482509
v -75.3259126 3.96423133 121.809766
v -111.674355 7.78776969 104.48522
v -95.878121 -4.84701075 95.7181172
v 62.8732054 22.7729503 90.8517956
v 60.9310907 12.4389137 72.285841
v 71.811347 18.2707753 57.4772162
v 85.3675285 34.712542 60.2469367
v 27.7661714 -15.4624333 77.4501006
v 25.4543928 -27.4958202 59.5958868
v 2.9876566 -38.5250456 90.2062632
v 16.4941817 -21.564646 93.6822071
v 6.50773953 -9.50367218 126.626432
v 2.09935981 9.71884967 118.074506
v 34.712542 5.00701452 137.760487
v 21.9398272 -11.7051034 135.956307
v -83.5854175 -29.3220701 55.8716612
v -81.1026004 -16.1134831 69.3726689
v -63.8056412 -19.3576974 76.9976761
v -50.3818766 -33.9290752 68.5505806
v -82.4212522 23.3467569 62.5973369
v -57.3337646 37.6477835 25.5371534
v -54.1557587 18.563196 33.6697588
v -69.4388774 10.4857643 54.4702488
v 60.2800409 19.9977125 98.3774902
v 45.3665861 3.40145945 95.9995031
v 29.6531124 6.30911416 84.6337181
v 26.11096 24.7205824 78.7963392
v 7.31327575 47.4631872 8.97400453
v 14.0334341 28.5220513 16.9079846
v 2.45247157 21.1453258 36.3677534
v -11.892694 33.9952837 44.6051888
v -36.6822435 6.33118365 -0.797260163
v -51.1432739 -10.7009418 -2.70075328
v -15.0100088 -16.6265986 18.8335472
v -18.8721688 2.38074575 12.3340837
v -5.99462399 -18.28181 79.4970454
v -2.15453352 -37.7415788 86.934462
v 18.8500993 -25.9344041 54.0950676
v 5.56426902 -11.7602771 61.3779978
v 44.0755212 -8.01398191 54.0950676
v 62.8345838 -10.6788723 67.3036546
v 76.1700704 -5.20563989 48.9639122
v 57.7199806 -2.2924678 37.818822
v -27.0654652 -48.8535648 128.673376
v -29.97312 -30.6186524 122.736685
v -51.4577641 -27.6723761 110.306047
v -62.1173255 -44.2189728 109.042569
v -28.8089546 0.234488283 -37.3112239
v -51.1432739 -10.7009418 -2.70075328
v -36.6822435 6.33118365 -0.797260163
v -25.2833543 12.4002922 -20.6211755
v -18.8721688 2.38074575 12.3340837
v -15.0100088 -16.6265986 18.8335472
v 6.43049633 -5.45943897 -14.3865458
v -6.10497142 9.02917824 -6.94912924
v -2.92696551 3.84284916 86.1344431
v -0.471735252 14.4858585 103.916931
v -36.0256763 19.0045857 83.9219772
v -23.4791739 6.15462776 75.5190206
v -21.2280863 -19.2970064 27.2640906
v -33.0352611 -4.8745976 35.484974
v -46.2548829 -12.4554659 55.8054527
v -43.463093 -31.3469454 60.7655696
v -106.134914 -39.0933348 86.7634235
v -94.3718786 -23.258479 90.3773017
v -81.1026004 -16.1134831 69.3726689
v -83.5854175 -29.3220701 55.8716612
v 5.56426902 -11.7602771 61.3779978
v 18.8500993 -25.9344041 54.0950676
v -12.3727053 -21.1563605 34.1166659
v -10.3312779 -9.03469562 50.2715292
v 15.4900201 4.57665955 9.78505812
v 13.4872143 -7.36293209 -7.39051895
v -6.28704467 -17.895594 24.0364284
v 5.79048125 -1.57520953 28.2461827
v -0.471735252 14.4858585 103.916931
v -2.92696551 3.84284916 86.1344431
v 7.02637244 9.58091538 71.0168456
v 20.9467004 25.8957825 74.3162336
v 34.0228705 -44.4838067 120.949056
v 20.9963567 -29.8186336 127.580937
v 10.6733549 -35.6891167 144.624097
v 14.596206 -53.9460986 150.875279
v -60.0979676 -23.2860659 -158.676842
v -26.6682145 -12.7809908 -165.579073
v -62.9394139 -15.6776107 -159.841007
v -26.3647591 -19.6501181 -162.489345
v -55.513032 -41.0244148 -157.424399
v -1.98901238 -21.0791173 -164.45353
v -2.86627443 -12.8361645 -167.631536
v 18.2928448 -36.4008576 -165.093545
v 22.0722442 -15.0817346 -167.741883
v 20.7756619 -7.495349 -170.307461
v 57.8579149 -10.5519727 -174.075825
v 96.3857191 -31.5897098 -177.419352
v 56.9806528 -2.87730917 -176.862098
v 97.8533399 -9.4816027 -178.517309
v 99.1830264 -1.60279638 -180.790466
v 97.3898807 5.45943897 -177.386248
v 56.9806528 -2.87730917 -176.862098
v 99.1830264 -1.60279638 -180.790466
v 57.0082397 3.88698813 -172.757174
v 95.6629435 16.9355714 -174.103412
v 81.9522756 24.3785054 -169.170882
v 19.0156204 17.0679883 -160.5693
v 20.0142646 -0.228970912 -166.417714
v 20.7756619 -7.495349 -170.307461
v -2.86627443 -12.8361645 -167.631536
v -2.62351009 -5.74634228 -163.703167
v -26.0502689 -5.28840046 -161.24242
v -59.1213929 8.36709368 -152.044961
v -26.6682145 -12.7809908 -165.579073
v -60.7103959 -8.49951059 -157.363707
v -62.9394139 -15.6776107 -159.841007
v 124.954668 -7.80983917 -49.7804832
v 126.069177 -22.1163831 -13.5479054
v 128.386473 -14.1051599 -10.5023164
v 122.151843 -17.062471 -50.2660119
v 123.133936 -42.6520394 -18.3590532
v 115.486859 -9.42091161 -96.7940046
v 109.677067 -36.6877609 -97.9361005
v 111.983328 -17.2279921 -96.8271088
v 105.649386 -12.8306471 -138.372915
v 96.3857191 -31.5897098 -177.419352
v 108.154272 -5.53668217 -137.992217
v 97.8533399 -9.4816027 -178.517309
v 99.1830264 -1.60279638 -180.790466
v 124.954668 -7.80983917 -49.7804832
v 128.386473 -14.1051599 -10.5023164
v 125.51744 -4.75321543 -12.2292536
v 121.280099 -1.33796256 -48.9418427
v 119.078668 15.2307037 -14.6348276
v 106.488026 20.3894459 -92.744254
v 111.817807 -1.7352133 -95.0891368
v 115.486859 -9.42091161 -96.7940046
v 105.174892 1.5034837 -136.938399
v 95.0229284 25.7578482 -160.635509
v 95.6629435 16.9355714 -174.103412
v 108.154272 -5.53668217 -137.992217
v 97.3898807 5.45943897 -177.386248
v 99.1830264 -1.60279638 -180.790466
v 80.7163844 -18.4473312 -153.3912
v 61.7586964 -19.6390834 -150.058708
v 64.9091155 -20.9798046 -130.725839
v 84.0654289 -19.7052918 -133.821084
v -8.60985802 -29.3275875 -72.1754936
v -9.10090407 -27.5896155 -96.1153679
v -30.1331237 -28.963441 -92.9649489
v -30.4862355 -30.850382 -69.4443947
v 0.86898599 -25.4323233 3.52835899
v -47.8273337 -33.5869982 5.62496011
v -49.5211667 -28.8972325 8.24019414
v 1.10071559 -31.7386788 -0.400009424
v -44.3458724 -43.8548263 2.81110071
v -28.0530747 -51.5736289 -2.55178426
v 40.7761331 -46.6300641 -10.9492235
v 39.7333499 -26.3757938 -5.74082491
v 39.6230025 -18.6845781 -1.38210153
v 75.5686769 -16.9135019 -3.79871019
v 75.5962638 -24.3785054 -7.9588082
v 123.133936 -42.6520394 -18.3590532
v 126.069177 -22.1163831 -13.5479054
v 128.386473 -14.1051599 -10.5023164
v 0.86898599 -25.4323233 3.52835899
v -49.5211667 -28.8972325 8.24019414
v -48.1473412 -20.2404769 6.10497142
v 0.201384055 -17.1893705 0.582082679
v -46.6742031 -3.0262782 3.9697487
v 39.6230025 -18.6845781 -1.38210153
v 35.3249702 6.17669725 -7.32982786
v 37.5595056 -9.79057549 -4.96839292
v 74.4320984 -9.77402338 -6.84981655
v 119.078668 15.2307037 -14.6348276
v 75.5686769 -16.9135019 -3.79871019
v 125.51744 -4.75321543 -12.2292536
v 128.386473 -14.1051599 -10.5023164
v -6.2429057 -33.0131916 -21.9784488
v -6.9767161 -31.8379915 -40.759581
v -30.1993322 -33.0297437 -40.7650984
v -27.9096231 -34.6628856 -19.0211378
v 103.83417 -26.4806239 -34.5028819
v 99.5913119 -25.1123158 -53.1736666
v 78.1563241 -26.3261375 -51.7667369
v 81.7095113 -27.5289244 -32.737323
v 3.52835899 -48.6549394 -15.7989929
v 2.41384997 -46.2824697 -51.2536213
v -6.9767161 -31.8379915 -40.759581
v -6.2429057 -33.0131916 -21.9784488
v -48.1473412 -20.2404769 6.10497142
v -49.5211667 -28.8972325 8.24019414
v -56.2523598 -21.520507 -33.0407784
v -53.7033342 -15.3576032 -33.0904348
v -46.6742031 -3.0262782 3.9697487
v -56.6551279 -21.757754 -77.130093
v -52.1639876 2.92696551 -76.0100667
v -53.6095389 -14.6072407 -77.604587
v -57.4275599 -15.0486304 -123.260835
v -59.1213929 8.36709368 -152.044961
v -60.3848709 -22.9550236 -124.060854
v -60.7103959 -8.49951059 -157.363707
v -62.9394139 -15.6776107 -159.841007
v -33.2559559 -26.8171835 -122.753237
v -13.8789477 -25.5371534 -124.756043
v -16.2183131 -24.372988 -142.737156
v -35.8767073 -25.4930144 -141.462643
v 46.2107439 -28.1303179 -50.5473978
v 52.7377942 -42.7679042 -61.7311096
v 13.2885889 -45.2286518 -55.9930433
v 22.0943136 -29.6751819 -46.9335195
v 89.786943 -21.3384338 -107.514257
v 67.7891833 -22.828124 -104.247973
v 71.2485752 -24.3233317 -81.6929592
v 94.9456852 -22.9384715 -83.6295565
v 25.5978445 -0.366905196 -43.374815
v 46.420404 1.04554187 -46.7569637
v 46.2438481 -0.328283596 -28.9082673
v 27.2971948 -2.75040963 -29.3662091
v -47.8273337 -33.5869982 5.62496011
v -56.2523598 -21.520507 -33.0407784
v -49.5211667 -28.8972325 8.24019414
v -52.511582 -27.2640906 -33.5814808
v -44.3458724 -43.8548263 2.81110071
v -43.4299887 -52.0095012 -9.43746373
v -45.9569448 -46.5914425 -80.0874041
v -53.0578018 -25.9233694 -77.797695
v -56.6551279 -21.757754 -77.130093
v -60.3848709 -22.9550236 -124.060854
v -57.4937683 -26.5137281 -124.160167
v -55.513032 -41.0244148 -157.424399
v -60.0979676 -23.2860659 -158.676842
v -62.9394139 -15.6776107 -159.841007
v 22.0943136 -29.6751819 -46.9335195
v 22.9770931 -31.1538374 -24.8309298
v 49.5597883 -29.4213828 -29.5206955
v 46.2107439 -28.1303179 -50.5473978
v 70.4816605 10.4636948 -16.8748803
v 84.1206026 2.74489226 -32.3345549
v 112.529548 15.2196689 -21.9122404
v 104.010726 5.01253189 -31.6559182
v 84.1206026 2.74489226 -32.3345549
v 95.6298392 5.83462022 -51.4025904
v 104.010726 5.01253189 -31.6559182
v 64.9642892 14.121712 -58.840007
v 70.4816605 10.4636948 -16.8748803
v 104.010726 5.01253189 -31.6559182
v 95.6298392 5.83462022 -51.4025904
v 105.57766 18.0500804 -63.6677069
v 112.529548 15.2196689 -21.9122404
v 17.4211001 4.94080606 -14.8169008
v 46.2438481 -0.328283596 -28.9082673
v 61.8966307 9.69678018 -17.6638644
v 27.2971948 -2.75040963 -29.3662091
v -30.8007257 0.753121192 -117.120001
v -44.3348376 6.02772822 -104.69488
v -47.1873186 8.84710499 -143.08475
v -37.3001891 -0.50483948 -136.127345
v 27.2971948 -2.75040963 -29.3662091
v 17.4211001 4.94080606 -14.8169008
v 12.9134077 9.49263744 -51.4963857
v 25.5978445 -0.366905196 -43.374815
v 61.8966307 9.69678018 -17.6638644
v 46.2438481 -0.328283596 -28.9082673
v 46.420404 1.04554187 -46.7569637
v 54.4040404 12.8251297 -56.9144443
v -44.3348376 6.02772822 -104.69488
v -30.8007257 0.753121192 -117.120001
v -5.50357794 12.3340837 -107.751504
v -21.2446385 0.857951248 -136.497009
v -37.3001891 -0.50483948 -136.127345
v -10.7837023 12.9740988 -147.542786
v -21.2446385 0.857951248 -136.497009
v -37.3001891 -0.50483948 -136.127345
v -10.7837023 12.9740988 -147.542786
v -47.1873186 8.84710499 -143.08475
v 96.4188233 -35.7056688 -121.44562
v 89.786943 -21.3384338 -107.514257
v 94.9456852 -22.9384715 -83.6295565
v 105.803872 -38.9167789 -73.9079482
v -8.26226362 -5.66909908 -23.7219382
v -30.122089 -8.08019037 -17.6969687
v -27.1261563 -7.03740718 -34.0283879
v 2.6400622 8.267781 -48.6549394
v -39.5954156 1.38210153 -42.111337
v -30.122089 -8.08019037 -17.6969687
v -39.5954156 1.38210153 -42.111337
v -27.1261563 -7.03740718 -34.0283879
v -37.1512201 -1.33796256 -6.33118365
v -0.598634793 8.92434819 -60.1807282
v -39.7830063 2.47454106 -55.7116574
v -31.2972891 0.00275868568 -64.7104901
v -14.1934378 -1.47037947 -87.5689597
v -33.5980329 -4.46631212 -89.9966031
v -39.7830063 2.47454106 -55.7116574
v -43.6727531 5.39874788 -95.8615688
v -31.2972891 0.00275868568 -64.7104901
v -52.1639876 2.92696551 -76.0100667
v -39.5954156 1.38210153 -42.111337
v -0.598634793 8.92434819 -60.1807282
v 2.6400622 8.267781 -48.6549394
v 12.9134077 9.49263744 -51.4963857
v 1.44830998 3.31318151 -13.1837589
v -3.57249796 11.8099334 -99.4975166
v -46.6742031 -3.0262782 3.9697487
v -37.1512201 -1.33796256 -6.33118365
v 35.3249702 6.17669725 -7.32982786
v 17.4211001 4.94080606 -14.8169008
v 61.8966307 9.69678018 -17.6638644
v 54.4040404 12.8251297 -56.9144443
v 87.7289634 24.6433392 -162.125199
v 64.9642892 14.121712 -58.840007
v -5.50357794 12.3340837 -107.751504
v -44.3348376 6.02772822 -104.69488
v -59.1213929 8.36709368 -152.044961
v -47.1873186 8.84710499 -143.08475
v -10.7837023 12.9740988 -147.542786
v 19.0156204 17.0679883 -160.5693
v 81.9522756 24.3785054 -169.170882
v 95.0229284 25.7578482 -160.635509
v 106.488026 20.3894459 -92.744254
v 105.57766 18.0500804 -63.6677069
v 119.078668 15.2307037 -14.6348276
v 112.529548 15.2196689 -21.9122404
v 70.4816605 10.4636948 -16.8748803
v -43.6727531 5.39874788 -95.8615688
v -3.57249796 11.8099334 -99.4975166
v -33.5980329 -4.46631212 -89.9966031
v -14.1934378 -1.47037947 -87.5689597
v 99.5913119 -25.1123158 -53.1736666
v 108.954291 -39.4685161 -65.2953315
v 65.6649953 -41.7527078 -63.6290853
v 78.1563241 -26.3261375 -51.7667369
v 6.3201489 -37.9953779 -154.136045
v 16.0362399 -22.5191512 -144.337194
v 32.2738638 -21.5039549 -146.389656
v 42.4368619 -35.545665 -160.657578
v 0.929677076 -41.7858121 -108.568075
v -9.10090407 -27.5896155 -96.1153679
v -8.60985802 -29.3275875 -72.1754936
v 1.45934473 -45.0796828 -64.4015173
v 16.0362399 -22.5191512 -144.337194
v 6.3201489 -37.9953779 -154.136045
v 10.778185 -40.478195 -119.453849
v 18.0390457 -23.8764246 -126.328494
v 39.8712842 -24.5495439 -100.943068
v 21.0735999 -25.7744003 -98.5816329
v 22.4529428 -27.3854728 -75.4252253
v 42.7844563 -25.961991 -79.8667092
v 52.8481417 -41.7858121 -72.1865283
v 42.7844563 -25.961991 -79.8667092
v 22.4529428 -27.3854728 -75.4252253
v 15.0375957 -44.0368996 -67.5905579
v 108.954291 -39.4685161 -65.2953315
v 99.5913119 -25.1123158 -53.1736666
v 103.83417 -26.4806239 -34.5028819
v 115.459272 -42.3541013 -25.8185393
v 49.5597883 -29.4213828 -29.5206955
v 62.0787039 -44.9031269 -22.8998499
v 52.7377942 -42.7679042 -61.7311096
v 46.2107439 -28.1303179 -50.5473978
v 67.7891833 -22.828124 -104.247973
v 56.9585833 -38.4202155 -113.655091
v 63.2483867 -41.2009707 -72.1589414
v 71.2485752 -24.3233317 -81.6929592
v 50.8122316 -35.2201401 -159.70859
v 61.7586964 -19.6390834 -150.058708
v 80.7163844 -18.4473312 -153.3912
v 89.9414294 -32.6876667 -166.605305
v -9.10090407 -27.5896155 -96.1153679
v 0.929677076 -41.7858121 -108.568075
v -39.6285199 -44.3127681 -104.595568
v -30.1331237 -28.963441 -92.9649489
v 89.9414294 -32.6876667 -166.605305
v 80.7163844 -18.4473312 -153.3912
v 84.0654289 -19.7052918 -133.821084
v 96.7719351 -35.3139354 -126.46091
v 61.7586964 -19.6390834 -150.058708
v 50.8122316 -35.2201401 -159.70859
v 57.1461739 -37.9346868 -120.022138
v 64.9091155 -20.9798046 -130.725839
v 46.6742031 -38.4202155 -121.324238
v 36.4725834 -22.7453635 -127.271964
v 18.0390457 -23.8764246 -126.328494
v 10.778185 -40.478195 -119.453849
v -38.679532 -47.965268 -57.1461739
v -30.4862355 -30.850382 -69.4443947
v -30.1331237 -28.963441 -92.9649489
v -39.6285199 -44.3127681 -104.595568
v 13.2885889 -45.2286518 -55.9930433
v 15.6279544 -47.8052642 -16.483147
v 22.9770931 -31.1538374 -24.8309298
v 22.0943136 -29.6751819 -46.9335195
v 96.7719351 -35.3139354 -126.46091
v 84.0654289 -19.7052918 -133.821084
v 64.9091155 -20.9798046 -130.725839
v 57.1461739 -37.9346868 -120.022138
v -41.2782139 -43.7775831 -112.706104
v -33.2559559 -26.8171835 -122.753237
v -35.8767073 -25.4930144 -141.462643
v -46.7900679 -40.9747585 -152.232552
v -46.7900679 -40.9747585 -152.232552
v -35.8767073 -25.4930144 -141.462643
v -16.2183131 -24.372988 -142.737156
v -6.40842684 -38.6188409 -154.820199
v 11.0926751 -41.2726965 -108.34738
v 21.0735999 -25.7744003 -98.5816329
v 39.8712842 -24.5495439 -100.943068
v 48.7542521 -38.7622925 -114.719944
v 2.41384997 -46.2824697 -51.2536213
v -38.1553817 -48.6108004 -48.7266652
v -30.1993322 -33.0297437 -40.7650984
v -6.9767161 -31.8379915 -40.759581
v -13.8789477 -25.5371534 -124.756043
v -1.45934473 -41.2064881 -116.844132
v -6.40842684 -38.6188409 -154.820199
v -16.2183131 -24.372988 -142.737156
v -8.26226362 -5.66909908 -23.7219382
v 1.44830998 3.31318151 -13.1837589
v -37.1512201 -1.33796256 -6.33118365
v -30.122089 -8.08019037 -17.6969687
v -27.9096231 -34.6628856 -19.0211378
v -37.0298379 -51.7060458 -8.41123265
v 3.52835899 -48.6549394 -15.7989929
v -6.2429057 -33.0131916 -21.9784488
v 105.803872 -38.9167789 -73.9079482
v 94.9456852 -22.9384715 -83.6295565
v 71.2485752 -24.3233317 -81.6929592
v 63.2483867 -41.2009707 -72.1589414
v 32.2738638 -21.5039549 -146.389656
v 16.0362399 -22.5191512 -144.337194
v 18.0390457 -23.8764246 -126.328494
v 36.4725834 -22.7453635 -127.271964
v 115.459272 -42.3541013 -25.8185393
v 103.83417 -26.4806239 -34.5028819
v 81.7095113 -27.5289244 -32.737323
v 71.7396212 -44.3900113 -24.5936829
v -30.1993322 -33.0297437 -40.7650984
v -38.1553817 -48.6108004 -48.7266652
v -37.0298379 -51.7060458 -8.41123265
v -27.9096231 -34.6628856 -19.0211378
v -1.45934473 -41.2064881 -116.844132
v -13.8789477 -25.5371534 -124.756043
v -33.2559559 -26.8171835 -122.753237
v -41.2782139 -43.7775831 -112.706104
v 56.9585833 -38.4202155 -113.655091
v 67.7891833 -22.828124 -104.247973
v 89.786943 -21.3384338 -107.514257
v 96.4188233 -35.7056688 -121.44562
v 54.4040404 12.8251297 -56.9144443
v 46.420404 1.04554187 -46.7569637
v 25.5978445 -0.366905196 -43.374815
v 12.9134077 9.49263744 -51.4963857
v 71.7396212 -44.3900113 -24.5936829
v 81.7095113 -27.5289244 -32.737323
v 78.1563241 -26.3261375 -51.7667369
v 65.6649953 -41.7527078 -63.6290853
v 21.0735999 -25.7744003 -98.5816329
v 11.0926751 -41.2726965 -108.34738
v 15.0375957 -44.0368996 -67.5905579
v 22.4529428 -27.3854728 -75.4252253
v 15.6279544 -47.8052642 -16.483147
v 62.0787039 -44.9031269 -22.8998499
v 49.5597883 -29.4213828 -29.5206955
v 22.9770931 -31.1538374 -24.8309298
v 42.4368619 -35.545665 -160.657578
v 32.2738638 -21.5039549 -146.389656
v 36.4725834 -22.7453635 -127.271964
v 46.6742031 -38.4202155 -121.324238
v 1.45934473 -45.0796828 -64.4015173
v -8.60985802 -29.3275875 -72.1754936
v -30.4862355 -30.850382 -69.4443947
v -38.679532 -47.965268 -57.1461739
v 48.7542521 -38.7622925 -114.719944
v 39.8712842 -24.5495439 -100.943068
v 42.7844563 -25.961991 -79.8667092
v 52.8481417 -41.7858121 -72.1865283
v 33.1731954 9.64712384 -55.1599203
v 34.3704649 26.6020061 -60.5559095
v 37.9622737 9.47608532 -54.3930056
v 88.540017 42.304445 -78.6528875
v 93.9139367 15.5617459 -79.2708331
v 79.0391035 42.4699661 -111.227448
v 57.0468613 44.5444977 -140.717798
v 59.3586399 39.5678288 -147.393817
v 61.3393762 18.7011303 -155.002273
v 87.4861991 18.7838908 -118.648313
v 88.540017 42.304445 -78.6528875
v 96.4739971 15.8376145 -85.5164975
v 23.4019307 35.589804 -127.040234
v 59.3586399 39.5678288 -147.393817
v 57.0468613 44.5444977 -140.717798
v 61.3393762 18.7011303 -155.002273
v 24.1357411 13.007203 -131.945178
v 7.08706352 10.9933625 -117.79312
v 7.86501289 31.9317868 -111.210896
v 7.86501289 31.9317868 -111.210896
v 23.4019307 35.589804 -127.040234
v 34.3704649 26.6020061 -60.5559095
v 81.957793 44.384494 -81.036392
v 72.3961884 44.963818 -108.573592
v 57.0468613 44.5444977 -140.717798
v 57.0468613 44.5444977 -140.717798
v 79.0391035 42.4699661 -111.227448
v 72.3961884 44.963818 -108.573592
v 81.957793 44.384494 -81.036392
v 88.540017 42.304445 -78.6528875
v 7.86501289 31.9317868 -111.210896
v 34.3704649 26.6020061 -60.5559095
v 33.1731954 9.64712384 -55.1599203
v 4.39458629 10.8554282 -110.311564
v -6.40842684 -38.6188409 -154.820199
v -55.513032 -41.0244148 -157.424399
v -46.7900679 -40.9747585 -152.232552
v -41.2782139 -43.7775831 -112.706104
v 18.2928448 -36.4008576 -165.093545
v -45.9569448 -46.5914425 -80.0874041
v 6.3201489 -37.9953779 -154.136045
v -1.45934473 -41.2064881 -116.844132
v 42.4368619 -35.545665 -160.657578
v 96.3857191 -31.5897098 -177.419352
v 10.778185 -40.478195 -119.453849
v -39.6285199 -44.3127681 -104.595568
v 0.929677076 -41.7858121 -108.568075
v -38.679532 -47.965268 -57.1461739
v 11.0926751 -41.2726965 -108.34738
v 46.6742031 -38.4202155 -121.324238
v 15.0375957 -44.0368996 -67.5905579
v 48.7542521 -38.7622925 -114.719944
v 1.45934473 -45.0796828 -64.4015173
v 50.8122316 -35.2201401 -159.70859
v 89.9414294 -32.6876667 -166.605305
v 57.1461739 -37.9346868 -120.022138
v 96.7719351 -35.3139354 -126.46091
v 109.677067 -36.6877609 -97.9361005
v 56.9585833 -38.4202155 -113.655091
v 52.8481417 -41.7858121 -72.1865283
v 96.4188233 -35.7056688 -121.44562
v 63.2483867 -41.2009707 -72.1589414
v 105.803872 -38.9167789 -73.9079482
v 52.7377942 -42.7679042 -61.7311096
v 65.6649953 -41.7527078 -63.6290853
v 108.954291 -39.4685161 -65.2953315
v 123.133936 -42.6520394 -18.3590532
v 115.459272 -42.3541013 -25.8185393
v 71.7396212 -44.3900113 -24.5936829
v 13.2885889 -45.2286518 -55.9930433
v 62.0787039 -44.9031269 -22.8998499
v 40.7761331 -46.6300641 -10.9492235
v 15.6279544 -47.8052642 -16.483147
v -28.0530747 -51.5736289 -2.55178426
v 2.41384997 -46.2824697 -51.2536213
v 3.52835899 -48.6549394 -15.7989929
v -37.0298379 -51.7060458 -8.41123265
v -43.4299887 -52.0095012 -9.43746373
v -38.1553817 -48.6108004 -48.7266652
v -83.5854175 -29.3220701 55.8716612
v -119.536609 -40.8809632 90.8517956
v -106.134914 -39.0933348 86.7634235
v -74.4652027 -42.9665295 103.365194
v -74.6693454 -19.5011491 24.0253936
v -48.781839 -49.4108193 128.033361
v -75.3810863 -25.0074857 42.6630741
v -43.463093 -31.3469454 60.7655696
v -54.0343765 -13.1506547 5.07874034
v -50.3818766 -33.9290752 68.5505806
v -51.1432739 -10.7009418 -2.70075328
v -32.7097362 2.72834014 -45.9348753
v -28.8089546 0.234488283 -37.3112239
v -15.0100088 -16.6265986 18.8335472
v 6.43049633 -5.45943897 -14.3865458
v 33.3663033 -7.68293963 -3.37387259
v -21.2280863 -19.2970064 27.2640906
v -33.8573494 -32.9359484 67.0939945
v -41.2120054 -35.8822247 76.015584
v -62.1173255 -44.2189728 109.042569
v -6.54084376 -40.1471528 94.5373997
v -27.0654652 -48.8535648 128.673376
v -12.3727053 -21.1563605 34.1166659
v -2.15453352 -37.7415788 86.934462
v 13.4872143 -7.36293209 -7.39051895
v -6.28704467 -17.895594 24.0364284
v 47.9597506 -12.6485739 14.0720557
v 18.8500993 -25.9344041 54.0950676
v 25.0130031 -23.600556 46.5086819
v 90.7138614 -17.7190381 33.7745888
v 25.4543928 -27.4958202 59.5958868
v 2.9876566 -38.5250456 90.2062632
v 0.190349312 -41.4492524 99.5471729
v 37.9622737 -42.216167 113.892338
v -19.2749369 -49.8025527 132.833474
v 17.7576597 -58.0068839 164.889402
v 14.596206 -53.9460986 150.875279
v 34.0228705 -44.4838067 120.949056
v 58.4813778 -37.5429535 100.258914
v 59.5683 -32.3345549 82.4267696
v 66.3381146 -29.9896721 75.3424647
v 92.893223 -21.3329164 48.8645995
v 88.926233 -19.3632148 40.8975153
v 56.4509852 -14.4968933 21.0239436
v 32.1083427 -24.9302425 51.7446674
v 62.8732054 22.7729503 90.8517956
v 85.3675285 34.712542 60.2469367
v 97.9029962 35.9042942 59.1544971
v 51.5625941 40.1471528 38.0450343
v 60.2800409 19.9977125 98.3774902
v 30.8779689 46.5362688 15.3851901
v 54.3378319 11.9037287 120.79457
v 26.11096 24.7205824 78.7963392
v 39.3581687 9.11745619 126.609879
v 29.2668964 28.1303179 69.3064604
v 34.712542 5.00701452 137.760487
v 16.7534982 -10.8002545 180.790466
v 15.6169197 -7.5725922 171.228862
v 2.09935981 9.71884967 118.074506
v -18.1880147 -2.48005843 150.461476
v -49.9184175 -1.15037193 141.225396
v 9.53125904 13.4982491 108.722561
v -24.9136904 -1.2717541 145.755158
v -4.47734687 11.269231 112.700586
v -67.8498744 3.09800402 125.682961
v -0.471735252 14.4858585 103.916931
v 20.9467004 25.8957825 74.3162336
v -36.0256763 19.0045857 83.9219772
v -44.5720846 15.0596651 94.2670485
v -75.3259126 3.96423133 121.809766
v -113.395775 5.70220331 110.388808
v -111.674355 7.78776969 104.48522
v -56.2192556 16.6597028 88.1758705
v -113.290945 11.0154319 94.3939481
v -88.0820752 19.7328787 72.7161959
v -82.4212522 23.3467569 62.5973369
v -77.0197456 31.5731577 38.7678099
v -47.3693919 19.633566 80.7825929
v -57.3337646 37.6477835 25.5371534
v -25.8019872 31.7386788 49.4163367
v -36.2849928 58.0068839 -28.2792869
v -16.1852089 30.7455519 53.521261
v -51.8053585 40.6878552 18.0114588
v -32.632493 54.8454301 -18.7287171
v 0.74760382 49.2452981 2.80558334
v -18.6845781 35.4960087 39.0712653
v -11.892694 33.9952837 44.6051888
v 7.31327575 47.4631872 8.97400453
v 23.3798612 28.577225 66.8677823
v 46.8342069 40.4506082 36.3125797
vt 0.0117827159 0.318624813
vt 0.0126986625 0.336943744
vt 0.0337654333 0.324120492
vt 0.238937462 0.14093118
vt 0.218786638 0.150090646
vt 0.238937462 0.161997951
vt 0.238937462 0.310381294
vt 0.238937462 0.291146416
vt 0.217870691 0.303969668
vt 0.00995082281 0.1491747
vt 0.0301016471 0.14093118
vt 0.00995082281 0.129023875
vt 0.183980669 0.615391497
vt 0.165661738 0.576005795
vt 0.164745791 0.634626375
vt 0.208711226 0.464260315
vt 0.172073363 0.487158979
vt 0.22611421 0.479831407
vt 0.145510913 0.439529758
vt 0.0987976389 0.426706506
vt 0.112536837 0.442277598
vt 0.0987976389 0.487158979
vt 0.155586325 0.484411139
vt 0.118032517 0.466092208
vt 0.929561166 0.0823106008
vt 0.937804685 0.0594119369
vt 0.930477113 0.0594119369
vt 0.8672768 0.0575800438
vt 0.866360854 0.0374292195
vt 0.857201388 0.0383451661
vt 0.84621003 0.00537109002
vt 0.774766198 0.00995082281
vt 0.839798404 0.0126986625
vt 0.174821203 0.358010515
vt 0.243517195 0.368085927
vt 0.245349088 0.356178621
vt 0.174821203 0.369001873
vt 0.237105569 0.394648377
vt 0.127191982 0.360758354
vt 0.124444142 0.39373243
vt 0.125360089 0.372665659
vt 0.0749830284 0.368085927
vt 0.0145305556 0.391900537
vt 0.0740670818 0.357094568
vt 0.00995082281 0.36991782
vt 0.00628703658 0.358010515
vt 0.456932743 0.611727711
vt 0.454184903 0.589744994
vt 0.431286239 0.592492833
vt 0.434034079 0.614475551
vt 0.239853409 0.177569043
vt 0.182148776 0.185812562
vt 0.242601248 0.187644455
vt 0.181232829 0.17573715
vt 0.238937462 0.161997951
vt 0.218786638 0.150090646
vt 0.126276036 0.153754432
vt 0.127191982 0.177569043
vt 0.128107929 0.187644455
vt 0.0933019595 0.192224188
vt 0.0933019595 0.182148776
vt 0.0594119369 0.179400936
vt 0.0117827159 0.158334165
vt 0.0584959903 0.190392295
vt 0.00903487625 0.181232829
vt 0.00537109002 0.191308241
vt 0.436781918 0.350682942
vt 0.489906819 0.355262675
vt 0.486243033 0.342439423
vt 0.435865972 0.34060753
vt 0.479831407 0.31404508
vt 0.372665659 0.31404508
vt 0.372665659 0.345187263
vt 0.371749713 0.357094568
vt 0.314961026 0.345187263
vt 0.279239111 0.313129133
vt 0.261836126 0.327784278
vt 0.314961026 0.355262675
vt 0.259088286 0.34335537
vt 0.2554245 0.354346728
vt 0.00903487625 0.201383653
vt 0.0584959903 0.190392295
vt 0.00537109002 0.191308241
vt 0.0575800438 0.19955176
vt 0.0126986625 0.224282317
vt 0.0933019595 0.204131493
vt 0.0933019595 0.192224188
vt 0.120780356 0.225198264
vt 0.129023875 0.198635814
vt 0.128107929 0.187644455
vt 0.181232829 0.195887974
vt 0.235273676 0.22611421
vt 0.182148776 0.185812562
vt 0.239853409 0.197719867
vt 0.242601248 0.187644455
vt 0.457848689 0.538451986
vt 0.45510085 0.520133055
vt 0.434950025 0.521964948
vt 0.435865972 0.542115773
vt 0.597072566 0.612643657
vt 0.621803123 0.609895818
vt 0.619055283 0.584249314
vt 0.594324726 0.5879131
vt 0.256340447 0.177569043
vt 0.253592607 0.189476348
vt 0.31129724 0.183980669
vt 0.312213187 0.173905257
vt 0.260920179 0.152838486
vt 0.372665659 0.187644455
vt 0.372665659 0.151922539
vt 0.373581606 0.177569043
vt 0.437697865 0.181232829
vt 0.479831407 0.151006593
vt 0.438613812 0.194056081
vt 0.486243033 0.176653096
vt 0.488990872 0.186728508
vt 0.437697865 0.444109491
vt 0.439529758 0.467008155
vt 0.460596529 0.464260315
vt 0.459680582 0.442277598
vt 0.3085494 0.538451986
vt 0.326868332 0.555854971
vt 0.326868332 0.494486552
vt 0.306717507 0.511889536
vt 0.61997123 0.443193544
vt 0.597072566 0.441361651
vt 0.600736352 0.466092208
vt 0.620887177 0.465176262
vt 0.0740670818 0.357094568
vt 0.00903487625 0.350682942
vt 0.00628703658 0.358010515
vt 0.0740670818 0.347019156
vt 0.0126986625 0.336943744
vt 0.0337654333 0.324120492
vt 0.126276036 0.321372652
vt 0.126276036 0.348851049
vt 0.127191982 0.360758354
vt 0.174821203 0.358010515
vt 0.174821203 0.347935102
vt 0.236189622 0.317708866
vt 0.241685302 0.344271316
vt 0.245349088 0.356178621
vt 0.256340447 0.19680392
vt 0.31129724 0.183980669
vt 0.253592607 0.189476348
vt 0.31129724 0.193140134
vt 0.25817234 0.213290959
vt 0.273743431 0.227030157
vt 0.373581606 0.227946103
vt 0.372665659 0.195887974
vt 0.372665659 0.187644455
vt 0.438613812 0.194056081
vt 0.437697865 0.200467707
vt 0.482579246 0.224282317
vt 0.486243033 0.198635814
vt 0.488990872 0.186728508
vt 0.306717507 0.511889536
vt 0.28198695 0.511889536
vt 0.282902897 0.542115773
vt 0.3085494 0.538451986
vt 0.578753635 0.570510116
vt 0.594324726 0.5879131
vt 0.619055283 0.584249314
vt 0.635542321 0.567762276
vt 0.314961026 0.355262675
vt 0.2554245 0.354346728
vt 0.259088286 0.36442214
vt 0.314961026 0.366254034
vt 0.261836126 0.394648377
vt 0.371749713 0.357094568
vt 0.371749713 0.395564323
vt 0.371749713 0.369001873
vt 0.435865972 0.36442214
vt 0.4816633 0.395564323
vt 0.436781918 0.350682942
vt 0.486243033 0.36716998
vt 0.489906819 0.355262675
vt 0.359842408 0.465176262
vt 0.388236751 0.465176262
vt 0.385488911 0.440445705
vt 0.357094568 0.439529758
vt 0.282902897 0.620887177
vt 0.303969668 0.618139337
vt 0.303053721 0.59340878
vt 0.281071004 0.596156619
vt 0.581501475 0.555854971
vt 0.635542321 0.556770917
vt 0.619055283 0.538451986
vt 0.598904459 0.538451986
vt 0.383657018 0.588829047
vt 0.403807842 0.569594169
vt 0.338775637 0.571426062
vt 0.356178621 0.591576887
vt 0.280155057 0.435865972
vt 0.261836126 0.413883255
vt 0.263668019 0.475251674
vt 0.282902897 0.459680582
vt 0.416631094 0.557686864
vt 0.435865972 0.542115773
vt 0.434950025 0.521964948
vt 0.42029488 0.501814124
vt 0.386404858 0.614475551
vt 0.383657018 0.588829047
vt 0.356178621 0.591576887
vt 0.358010515 0.619055283
vt 0.552191185 0.462428422
vt 0.550359292 0.438613812
vt 0.527460628 0.435865972
vt 0.526544681 0.461512476
vt 0.282902897 0.459680582
vt 0.303053721 0.459680582
vt 0.306717507 0.434034079
vt 0.280155057 0.435865972
vt 0.527460628 0.591576887
vt 0.531124414 0.61722339
vt 0.548527398 0.612643657
vt 0.546695505 0.586997154
vt 0.597072566 0.513721429
vt 0.598904459 0.538451986
vt 0.619055283 0.538451986
vt 0.616307444 0.513721429
vt 0.683171542 0.586997154
vt 0.662104772 0.5879131
vt 0.664852611 0.609895818
vt 0.686835329 0.608063925
vt 0.686835329 0.541199826
vt 0.685919382 0.519217109
vt 0.662104772 0.517385216
vt 0.663020718 0.541199826
vt 0.264583966 0.575089849
vt 0.281071004 0.596156619
vt 0.303053721 0.59340878
vt 0.326868332 0.573257956
vt 0.406555682 0.559518757
vt 0.387320804 0.539367933
vt 0.361674301 0.542115773
vt 0.34060753 0.557686864
vt 0.581501475 0.495402498
vt 0.581501475 0.555854971
vt 0.598904459 0.538451986
vt 0.597072566 0.513721429
vt 0.418462987 0.485327086
vt 0.439529758 0.467008155
vt 0.437697865 0.444109491
vt 0.419378934 0.42304272
vt 0.475251674 0.502730071
vt 0.45510085 0.520133055
vt 0.457848689 0.538451986
vt 0.477999514 0.559518757
vt 0.600736352 0.466092208
vt 0.581501475 0.480747353
vt 0.636458268 0.485327086
vt 0.620887177 0.465176262
vt 0.45510085 0.520133055
vt 0.475251674 0.502730071
vt 0.42029488 0.501814124
vt 0.434950025 0.521964948
vt 0.387320804 0.539367933
vt 0.384572965 0.517385216
vt 0.358010515 0.519217109
vt 0.361674301 0.542115773
vt 0.34060753 0.557686864
vt 0.361674301 0.542115773
vt 0.358010515 0.519217109
vt 0.341523477 0.499066284
vt 0.321372652 0.638290161
vt 0.303969668 0.618139337
vt 0.282902897 0.620887177
vt 0.260004233 0.639206108
vt 0.282902897 0.542115773
vt 0.264583966 0.56135065
vt 0.326868332 0.555854971
vt 0.3085494 0.538451986
vt 0.706986153 0.488990872
vt 0.690499115 0.468840048
vt 0.666684504 0.469755995
vt 0.648365573 0.486243033
vt 0.701490474 0.560434704
vt 0.704238313 0.502730071
vt 0.685919382 0.519217109
vt 0.686835329 0.541199826
vt 0.620887177 0.465176262
vt 0.636458268 0.485327086
vt 0.638290161 0.423958667
vt 0.61997123 0.443193544
vt 0.648365573 0.486243033
vt 0.666684504 0.469755995
vt 0.667600451 0.446857331
vt 0.652945306 0.426706506
vt 0.701490474 0.624550963
vt 0.686835329 0.608063925
vt 0.664852611 0.609895818
vt 0.648365573 0.627298802
vt 0.621803123 0.609895818
vt 0.636458268 0.627298802
vt 0.635542321 0.567762276
vt 0.619055283 0.584249314
vt 0.645617734 0.568678223
vt 0.662104772 0.5879131
vt 0.683171542 0.586997154
vt 0.70240642 0.571426062
vt 0.303969668 0.618139337
vt 0.321372652 0.638290161
vt 0.326868332 0.573257956
vt 0.303053721 0.59340878
vt 0.652945306 0.426706506
vt 0.667600451 0.446857331
vt 0.689583168 0.445025438
vt 0.707902099 0.428538399
vt 0.704238313 0.502730071
vt 0.645617734 0.499066284
vt 0.662104772 0.517385216
vt 0.685919382 0.519217109
vt 0.663020718 0.541199826
vt 0.641953947 0.556770917
vt 0.701490474 0.560434704
vt 0.686835329 0.541199826
vt 0.580585528 0.628214749
vt 0.597072566 0.612643657
vt 0.594324726 0.5879131
vt 0.578753635 0.570510116
vt 0.263668019 0.475251674
vt 0.321372652 0.479831407
vt 0.303053721 0.459680582
vt 0.282902897 0.459680582
vt 0.403807842 0.569594169
vt 0.383657018 0.588829047
vt 0.386404858 0.614475551
vt 0.406555682 0.632794482
vt 0.407471629 0.487158979
vt 0.388236751 0.465176262
vt 0.359842408 0.465176262
vt 0.338775637 0.4816633
vt 0.531124414 0.61722339
vt 0.511889536 0.631878535
vt 0.563182543 0.630046642
vt 0.548527398 0.612643657
vt 0.567762276 0.554939024
vt 0.552191185 0.536620093
vt 0.530208467 0.539367933
vt 0.512805483 0.554939024
vt 0.638290161 0.423958667
vt 0.581501475 0.423958667
vt 0.597072566 0.441361651
vt 0.61997123 0.443193544
vt 0.338775637 0.4816633
vt 0.359842408 0.465176262
vt 0.357094568 0.439529758
vt 0.336027797 0.418462987
vt 0.388236751 0.465176262
vt 0.407471629 0.487158979
vt 0.408387575 0.423958667
vt 0.385488911 0.440445705
vt 0.454184903 0.589744994
vt 0.474335727 0.571426062
vt 0.412051361 0.571426062
vt 0.431286239 0.592492833
vt 0.4816633 0.423958667
vt 0.459680582 0.442277598
vt 0.460596529 0.464260315
vt 0.47891546 0.485327086
vt 0.549443345 0.510057643
vt 0.567762276 0.493570605
vt 0.51097359 0.490822765
vt 0.526544681 0.51097359
vt 0.336027797 0.418462987
vt 0.357094568 0.439529758
vt 0.385488911 0.440445705
vt 0.408387575 0.423958667
vt 0.326868332 0.494486552
vt 0.262752073 0.492654658
vt 0.28198695 0.511889536
vt 0.306717507 0.511889536
vt 0.662104772 0.5879131
vt 0.645617734 0.568678223
vt 0.648365573 0.627298802
vt 0.664852611 0.609895818
vt 0.413883255 0.633710428
vt 0.434034079 0.614475551
vt 0.431286239 0.592492833
vt 0.412051361 0.571426062
vt 0.419378934 0.42304272
vt 0.437697865 0.444109491
vt 0.459680582 0.442277598
vt 0.4816633 0.423958667
vt 0.47616762 0.631878535
vt 0.456932743 0.611727711
vt 0.434034079 0.614475551
vt 0.413883255 0.633710428
vt 0.527460628 0.435865972
vt 0.550359292 0.438613812
vt 0.568678223 0.42029488
vt 0.509141697 0.419378934
vt 0.690499115 0.468840048
vt 0.706986153 0.488990872
vt 0.707902099 0.428538399
vt 0.689583168 0.445025438
vt 0.56409849 0.567762276
vt 0.546695505 0.586997154
vt 0.548527398 0.612643657
vt 0.563182543 0.630046642
vt 0.406555682 0.632794482
vt 0.386404858 0.614475551
vt 0.358010515 0.619055283
vt 0.334195904 0.636458268
vt 0.321372652 0.479831407
vt 0.324120492 0.417547041
vt 0.306717507 0.434034079
vt 0.303053721 0.459680582
vt 0.512805483 0.554939024
vt 0.530208467 0.539367933
vt 0.526544681 0.51097359
vt 0.51097359 0.490822765
vt 0.552191185 0.536620093
vt 0.549443345 0.510057643
vt 0.526544681 0.51097359
vt 0.530208467 0.539367933
vt 0.260004233 0.639206108
vt 0.282902897 0.620887177
vt 0.281071004 0.596156619
vt 0.264583966 0.575089849
vt 0.306717507 0.434034079
vt 0.324120492 0.417547041
vt 0.261836126 0.413883255
vt 0.280155057 0.435865972
vt 0.474335727 0.571426062
vt 0.454184903 0.589744994
vt 0.456932743 0.611727711
vt 0.47616762 0.631878535
vt 0.662104772 0.517385216
vt 0.645617734 0.499066284
vt 0.641953947 0.556770917
vt 0.663020718 0.541199826
vt 0.439529758 0.467008155
vt 0.418462987 0.485327086
vt 0.47891546 0.485327086
vt 0.460596529 0.464260315
vt 0.513721429 0.576005795
vt 0.527460628 0.591576887
vt 0.546695505 0.586997154
vt 0.56409849 0.567762276
vt 0.262752073 0.492654658
vt 0.264583966 0.56135065
vt 0.282902897 0.542115773
vt 0.28198695 0.511889536
vt 0.477999514 0.559518757
vt 0.457848689 0.538451986
vt 0.435865972 0.542115773
vt 0.416631094 0.557686864
vt 0.334195904 0.636458268
vt 0.358010515 0.619055283
vt 0.356178621 0.591576887
vt 0.338775637 0.571426062
vt 0.526544681 0.461512476
vt 0.50822575 0.479831407
vt 0.568678223 0.480747353
vt 0.552191185 0.462428422
vt 0.619055283 0.538451986
vt 0.635542321 0.556770917
vt 0.635542321 0.497234391
vt 0.616307444 0.513721429
vt 0.666684504 0.469755995
vt 0.690499115 0.468840048
vt 0.689583168 0.445025438
vt 0.667600451 0.446857331
vt 0.636458268 0.627298802
vt 0.621803123 0.609895818
vt 0.597072566 0.612643657
vt 0.580585528 0.628214749
vt 0.509141697 0.419378934
vt 0.50822575 0.479831407
vt 0.526544681 0.461512476
vt 0.527460628 0.435865972
vt 0.552191185 0.462428422
vt 0.568678223 0.480747353
vt 0.568678223 0.42029488
vt 0.550359292 0.438613812
vt 0.384572965 0.517385216
vt 0.405639736 0.499982231
vt 0.341523477 0.499066284
vt 0.358010515 0.519217109
vt 0.567762276 0.493570605
vt 0.549443345 0.510057643
vt 0.552191185 0.536620093
vt 0.567762276 0.554939024
vt 0.511889536 0.631878535
vt 0.531124414 0.61722339
vt 0.527460628 0.591576887
vt 0.513721429 0.576005795
vt 0.616307444 0.513721429
vt 0.635542321 0.497234391
vt 0.581501475 0.495402498
vt 0.597072566 0.513721429
vt 0.597072566 0.441361651
vt 0.581501475 0.423958667
vt 0.581501475 0.480747353
vt 0.600736352 0.466092208
vt 0.405639736 0.499982231
vt 0.384572965 0.517385216
vt 0.387320804 0.539367933
vt 0.406555682 0.559518757
vt 0.70240642 0.571426062
vt 0.683171542 0.586997154
vt 0.686835329 0.608063925
vt 0.701490474 0.624550963
vt 0.239853409 0.0896381733
vt 0.190392295 0.0997135854
vt 0.242601248 0.0997135854
vt 0.190392295 0.0905541198
vt 0.235273676 0.0658235628
vt 0.155586325 0.0868903336
vt 0.155586325 0.0978816923
vt 0.128107929 0.0649076162
vt 0.11986441 0.0914700664
vt 0.120780356 0.102461425
vt 0.0667395094 0.0942179061
vt 0.013614609 0.0639916697
vt 0.0667395094 0.105209265
vt 0.00903487625 0.092386013
vt 0.00628703658 0.103377372
vt 0.0081189297 0.113452784
vt 0.0667395094 0.105209265
vt 0.00628703658 0.103377372
vt 0.0667395094 0.11436873
vt 0.00995082281 0.129023875
vt 0.0301016471 0.14093118
vt 0.122612249 0.137267394
vt 0.121696303 0.113452784
vt 0.120780356 0.102461425
vt 0.155586325 0.0978816923
vt 0.155586325 0.107957104
vt 0.189476348 0.110704944
vt 0.237105569 0.132687661
vt 0.190392295 0.0997135854
vt 0.239853409 0.109788998
vt 0.242601248 0.0997135854
vt 0.436781918 0.0997135854
vt 0.487158979 0.115284677
vt 0.490822765 0.104293318
vt 0.436781918 0.112536837
vt 0.482579246 0.144594967
vt 0.371749713 0.106125211
vt 0.370833766 0.14367902
vt 0.371749713 0.11711657
vt 0.313129133 0.11436873
vt 0.260004233 0.14367902
vt 0.31404508 0.104293318
vt 0.257256393 0.113452784
vt 0.253592607 0.103377372
vt 0.436781918 0.0997135854
vt 0.490822765 0.104293318
vt 0.487158979 0.0914700664
vt 0.436781918 0.0896381733
vt 0.4816633 0.0630757231
vt 0.372665659 0.0630757231
vt 0.372665659 0.0933019595
vt 0.371749713 0.106125211
vt 0.31404508 0.0933019595
vt 0.277407218 0.0621597766
vt 0.260004233 0.0768149215
vt 0.31404508 0.104293318
vt 0.257256393 0.092386013
vt 0.253592607 0.103377372
vt 0.911242235 0.604400138
vt 0.908494395 0.584249314
vt 0.888343571 0.586081207
vt 0.890175464 0.607147978
vt 0.825143259 0.467924101
vt 0.849873816 0.468840048
vt 0.848041923 0.445941384
vt 0.822395419 0.445025438
vt 0.176653096 0.270995592
vt 0.242601248 0.276491271
vt 0.244433141 0.270079645
vt 0.176653096 0.281071004
vt 0.238937462 0.291146416
vt 0.217870691 0.303969668
vt 0.125360089 0.306717507
vt 0.124444142 0.279239111
vt 0.124444142 0.268247752
vt 0.0768149215 0.270079645
vt 0.0768149215 0.281071004
vt 0.0145305556 0.310381294
vt 0.00903487625 0.283818843
vt 0.00537109002 0.272827485
vt 0.176653096 0.270995592
vt 0.244433141 0.270079645
vt 0.240769355 0.259088286
vt 0.176653096 0.260004233
vt 0.237105569 0.237105569
vt 0.124444142 0.268247752
vt 0.126276036 0.234357729
vt 0.125360089 0.2554245
vt 0.0768149215 0.260004233
vt 0.013614609 0.232525836
vt 0.0768149215 0.270079645
vt 0.0081189297 0.260004233
vt 0.00537109002 0.272827485
vt 0.75553132 0.463344369
vt 0.774766198 0.462428422
vt 0.777514038 0.438613812
vt 0.753699427 0.440445705
vt 0.75553132 0.613559604
vt 0.774766198 0.610811764
vt 0.774766198 0.586997154
vt 0.754615374 0.59066094
vt 0.739044282 0.477999514
vt 0.79033729 0.4816633
vt 0.774766198 0.462428422
vt 0.75553132 0.463344369
vt 0.256340447 0.25817234
vt 0.25267666 0.270079645
vt 0.312213187 0.264583966
vt 0.312213187 0.254508554
vt 0.260920179 0.234357729
vt 0.372665659 0.268247752
vt 0.373581606 0.233441783
vt 0.374497553 0.25817234
vt 0.438613812 0.261836126
vt 0.480747353 0.233441783
vt 0.438613812 0.273743431
vt 0.486243033 0.257256393
vt 0.489906819 0.267331805
vt 0.894755197 0.44960517
vt 0.895671144 0.469755995
vt 0.914906021 0.467924101
vt 0.913990075 0.446857331
vt 0.778429984 0.536620093
vt 0.794917022 0.553107131
vt 0.794917022 0.495402498
vt 0.777514038 0.51097359
vt 0.848041923 0.607147978
vt 0.845294083 0.583333368
vt 0.821479473 0.586081207
vt 0.822395419 0.610811764
vt 0.186728508 0.519217109
vt 0.185812562 0.545779559
vt 0.208711226 0.543031719
vt 0.20504744 0.519217109
vt 0.2554245 0.277407218
vt 0.312213187 0.264583966
vt 0.25267666 0.270079645
vt 0.31129724 0.273743431
vt 0.25817234 0.292062362
vt 0.273743431 0.305801561
vt 0.373581606 0.305801561
vt 0.373581606 0.275575324
vt 0.372665659 0.268247752
vt 0.438613812 0.273743431
vt 0.438613812 0.280155057
vt 0.483495193 0.303053721
vt 0.487158979 0.278323164
vt 0.489906819 0.267331805
vt 0.777514038 0.51097359
vt 0.75553132 0.511889536
vt 0.75553132 0.539367933
vt 0.778429984 0.536620093
vt 0.22886205 0.578753635
vt 0.207795279 0.598904459
vt 0.22611421 0.639206108
vt 0.209627172 0.623635016
vt 0.207795279 0.598904459
vt 0.183980669 0.615391497
vt 0.209627172 0.623635016
vt 0.165661738 0.576005795
vt 0.22886205 0.578753635
vt 0.209627172 0.623635016
vt 0.183980669 0.615391497
vt 0.164745791 0.634626375
vt 0.22611421 0.639206108
vt 0.22611421 0.501814124
vt 0.208711226 0.543031719
vt 0.227030157 0.565930383
vt 0.20504744 0.519217109
vt 0.069487349 0.447773277
vt 0.0859743871 0.427622453
vt 0.0301016471 0.429454346
vt 0.0438408454 0.445025438
vt 0.20504744 0.519217109
vt 0.22611421 0.501814124
vt 0.169325524 0.501814124
vt 0.186728508 0.519217109
vt 0.227030157 0.565930383
vt 0.208711226 0.543031719
vt 0.185812562 0.545779559
vt 0.166577684 0.56135065
vt 0.0859743871 0.427622453
vt 0.069487349 0.447773277
vt 0.0868903336 0.485327086
vt 0.0465886851 0.463344369
vt 0.0438408454 0.445025438
vt 0.028269754 0.482579246
vt 0.0465886851 0.463344369
vt 0.0438408454 0.445025438
vt 0.028269754 0.482579246
vt 0.0301016471 0.429454346
vt 0.866360854 0.623635016
vt 0.848041923 0.607147978
vt 0.822395419 0.610811764
vt 0.801328648 0.627298802
vt 0.208711226 0.464260315
vt 0.213290959 0.435865972
vt 0.193140134 0.442277598
vt 0.172073363 0.487158979
vt 0.176653096 0.423958667
vt 0.213290959 0.435865972
vt 0.176653096 0.423958667
vt 0.193140134 0.442277598
vt 0.229777997 0.42304272
vt 0.155586325 0.484411139
vt 0.157418219 0.426706506
vt 0.145510913 0.439529758
vt 0.118032517 0.466092208
vt 0.112536837 0.442277598
vt 0.157418219 0.426706506
vt 0.0987976389 0.426706506
vt 0.145510913 0.439529758
vt 0.126276036 0.412051361
vt 0.176653096 0.423958667
vt 0.155586325 0.484411139
vt 0.172073363 0.487158979
vt 0.169325524 0.501814124
vt 0.22611421 0.479831407
vt 0.0987976389 0.487158979
vt 0.242601248 0.408387575
vt 0.229777997 0.42304272
vt 0.238937462 0.526544681
vt 0.22611421 0.501814124
vt 0.227030157 0.565930383
vt 0.166577684 0.56135065
vt 0.0181943418 0.627298802
vt 0.165661738 0.576005795
vt 0.0868903336 0.485327086
vt 0.0859743871 0.427622453
vt 0.0154465022 0.413883255
vt 0.0301016471 0.429454346
vt 0.028269754 0.482579246
vt 0.0117827159 0.526544681
vt 0.00720298314 0.61997123
vt 0.0209421815 0.637374215
vt 0.123528196 0.641953947
vt 0.164745791 0.634626375
vt 0.237105569 0.647449627
vt 0.22611421 0.639206108
vt 0.22886205 0.578753635
vt 0.0987976389 0.426706506
vt 0.0987976389 0.487158979
vt 0.112536837 0.442277598
vt 0.118032517 0.466092208
vt 0.774766198 0.610811764
vt 0.79033729 0.629130696
vt 0.795832969 0.568678223
vt 0.774766198 0.586997154
vt 0.927729273 0.503646017
vt 0.909410342 0.519217109
vt 0.912158182 0.536620093
vt 0.929561166 0.555854971
vt 0.866360854 0.488990872
vt 0.849873816 0.468840048
vt 0.825143259 0.467924101
vt 0.805908381 0.483495193
vt 0.909410342 0.519217109
vt 0.927729273 0.503646017
vt 0.878268159 0.502730071
vt 0.892007357 0.521049002
vt 0.848957869 0.53753604
vt 0.84621003 0.517385216
vt 0.823311366 0.518301162
vt 0.826975152 0.539367933
vt 0.807740274 0.554939024
vt 0.826975152 0.539367933
vt 0.823311366 0.518301162
vt 0.808656221 0.499982231
vt 0.79033729 0.629130696
vt 0.774766198 0.610811764
vt 0.75553132 0.613559604
vt 0.735380496 0.630046642
vt 0.75553132 0.539367933
vt 0.739044282 0.556770917
vt 0.794917022 0.553107131
vt 0.778429984 0.536620093
vt 0.845294083 0.583333368
vt 0.863613014 0.565930383
vt 0.805908381 0.56684633
vt 0.821479473 0.586081207
vt 0.926813327 0.56684633
vt 0.908494395 0.584249314
vt 0.911242235 0.604400138
vt 0.927729273 0.623635016
vt 0.849873816 0.468840048
vt 0.866360854 0.488990872
vt 0.8672768 0.430370293
vt 0.848041923 0.445941384
vt 0.927729273 0.623635016
vt 0.911242235 0.604400138
vt 0.890175464 0.607147978
vt 0.87277248 0.625466909
vt 0.908494395 0.584249314
vt 0.926813327 0.56684633
vt 0.870940587 0.56684633
vt 0.888343571 0.586081207
vt 0.874604373 0.554939024
vt 0.892923304 0.539367933
vt 0.892007357 0.521049002
vt 0.878268159 0.502730071
vt 0.804076488 0.424874613
vt 0.822395419 0.445025438
vt 0.848041923 0.445941384
vt 0.8672768 0.430370293
vt 0.794917022 0.495402498
vt 0.738128336 0.493570605
vt 0.75553132 0.511889536
vt 0.777514038 0.51097359
vt 0.87277248 0.625466909
vt 0.890175464 0.607147978
vt 0.888343571 0.586081207
vt 0.870940587 0.56684633
vt 0.878268159 0.429454346
vt 0.894755197 0.44960517
vt 0.913990075 0.446857331
vt 0.933224953 0.430370293
vt 0.933224953 0.430370293
vt 0.913990075 0.446857331
vt 0.914906021 0.467924101
vt 0.930477113 0.487158979
vt 0.865444907 0.500898178
vt 0.84621003 0.517385216
vt 0.848957869 0.53753604
vt 0.866360854 0.555854971
vt 0.79033729 0.4816633
vt 0.793085129 0.423958667
vt 0.777514038 0.438613812
vt 0.774766198 0.462428422
vt 0.895671144 0.469755995
vt 0.877352213 0.487158979
vt 0.930477113 0.487158979
vt 0.914906021 0.467924101
vt 0.208711226 0.464260315
vt 0.22611421 0.479831407
vt 0.229777997 0.42304272
vt 0.213290959 0.435865972
vt 0.753699427 0.440445705
vt 0.737212389 0.421210827
vt 0.739044282 0.477999514
vt 0.75553132 0.463344369
vt 0.801328648 0.627298802
vt 0.822395419 0.610811764
vt 0.821479473 0.586081207
vt 0.805908381 0.56684633
vt 0.912158182 0.536620093
vt 0.909410342 0.519217109
vt 0.892007357 0.521049002
vt 0.892923304 0.539367933
vt 0.735380496 0.630046642
vt 0.75553132 0.613559604
vt 0.754615374 0.59066094
vt 0.739960229 0.570510116
vt 0.777514038 0.438613812
vt 0.793085129 0.423958667
vt 0.737212389 0.421210827
vt 0.753699427 0.440445705
vt 0.877352213 0.487158979
vt 0.895671144 0.469755995
vt 0.894755197 0.44960517
vt 0.878268159 0.429454346
vt 0.863613014 0.565930383
vt 0.845294083 0.583333368
vt 0.848041923 0.607147978
vt 0.866360854 0.623635016
vt 0.166577684 0.56135065
vt 0.185812562 0.545779559
vt 0.186728508 0.519217109
vt 0.169325524 0.501814124
vt 0.739960229 0.570510116
vt 0.754615374 0.59066094
vt 0.774766198 0.586997154
vt 0.795832969 0.568678223
vt 0.84621003 0.517385216
vt 0.865444907 0.500898178
vt 0.808656221 0.499982231
vt 0.823311366 0.518301162
vt 0.738128336 0.493570605
vt 0.739044282 0.556770917
vt 0.75553132 0.539367933
vt 0.75553132 0.511889536
vt 0.929561166 0.555854971
vt 0.912158182 0.536620093
vt 0.892923304 0.539367933
vt 0.874604373 0.554939024
vt 0.805908381 0.483495193
vt 0.825143259 0.467924101
vt 0.822395419 0.445025438
vt 0.804076488 0.424874613
vt 0.866360854 0.555854971
vt 0.848957869 0.53753604
vt 0.826975152 0.539367933
vt 0.807740274 0.554939024
vt 0.857201388 0.0630757231
vt 0.863613014 0.077730868
vt 0.862697068 0.06124383
vt 0.929561166 0.0823106008
vt 0.930477113 0.0594119369
vt 0.894755197 0.0878062802
vt 0.933224953 0.0868903336
vt 0.936888739 0.0933019595
vt 0.941468472 0.110704944
vt 0.895671144 0.109788998
vt 0.860865175 0.0823106008
vt 0.859949228 0.106125211
vt 0.913074128 0.028269754
vt 0.859949228 0.0264378608
vt 0.865444907 0.0337654333
vt 0.857201388 0.00628703658
vt 0.913074128 0.00720298314
vt 0.940552525 0.00903487625
vt 0.940552525 0.0291857005
vt 0.768354572 0.0823106008
vt 0.793085129 0.0942179061
vt 0.774766198 0.00995082281
vt 0.839798404 0.0126986625
vt 0.841630297 0.0502524713
vt 0.838882457 0.0951338526
vt 0.838882457 0.0951338526
vt 0.850789762 0.0493365248
vt 0.841630297 0.0502524713
vt 0.839798404 0.0126986625
vt 0.84621003 0.00537109002
vt 0.8672768 0.0575800438
vt 0.936888739 0.053000311
vt 0.942384418 0.036513273
vt 0.866360854 0.0374292195
vt 0.930477113 0.487158979
vt 0.940552525 0.42029488
vt 0.933224953 0.430370293
vt 0.878268159 0.429454346
vt 0.938720632 0.522880895
vt 0.835218671 0.419378934
vt 0.927729273 0.503646017
vt 0.877352213 0.487158979
vt 0.929561166 0.555854971
vt 0.940552525 0.633710428
vt 0.878268159 0.502730071
vt 0.8672768 0.430370293
vt 0.866360854 0.488990872
vt 0.804076488 0.424874613
vt 0.865444907 0.500898178
vt 0.874604373 0.554939024
vt 0.808656221 0.499982231
vt 0.866360854 0.555854971
vt 0.805908381 0.483495193
vt 0.926813327 0.56684633
vt 0.927729273 0.623635016
vt 0.870940587 0.56684633
vt 0.87277248 0.625466909
vt 0.833386778 0.636458268
vt 0.863613014 0.565930383
vt 0.807740274 0.554939024
vt 0.866360854 0.623635016
vt 0.805908381 0.56684633
vt 0.801328648 0.627298802
vt 0.794917022 0.553107131
vt 0.795832969 0.568678223
vt 0.79033729 0.629130696
vt 0.725305084 0.638290161
vt 0.735380496 0.630046642
vt 0.739960229 0.570510116
vt 0.794917022 0.495402498
vt 0.739044282 0.556770917
vt 0.728052924 0.526544681
vt 0.738128336 0.493570605
vt 0.72896887 0.432202186
vt 0.79033729 0.4816633
vt 0.739044282 0.477999514
vt 0.737212389 0.421210827
vt 0.739960229 0.412967308
vt 0.793085129 0.423958667
vt 0.513721429 0.576005795
vt 0.500898178 0.645617734
vt 0.511889536 0.631878535
vt 0.563182543 0.630046642
vt 0.501814124 0.531124414
vt 0.609895818 0.641038001
vt 0.512805483 0.554939024
vt 0.567762276 0.554939024
vt 0.51097359 0.490822765
vt 0.56409849 0.567762276
vt 0.50822575 0.479831407
vt 0.499066284 0.412051361
vt 0.509141697 0.419378934
vt 0.568678223 0.480747353
vt 0.568678223 0.42029488
vt 0.608063925 0.414799201
vt 0.567762276 0.493570605
vt 0.581501475 0.555854971
vt 0.578753635 0.570510116
vt 0.580585528 0.628214749
vt 0.635542321 0.567762276
vt 0.636458268 0.627298802
vt 0.581501475 0.495402498
vt 0.635542321 0.556770917
vt 0.581501475 0.423958667
vt 0.581501475 0.480747353
vt 0.638290161 0.423958667
vt 0.635542321 0.497234391
vt 0.636458268 0.485327086
vt 0.703322367 0.419378934
vt 0.645617734 0.499066284
vt 0.641953947 0.556770917
vt 0.645617734 0.568678223
vt 0.701490474 0.560434704
vt 0.648365573 0.627298802
vt 0.713397779 0.639206108
vt 0.701490474 0.624550963
vt 0.70240642 0.571426062
vt 0.714313725 0.527460628
vt 0.704238313 0.502730071
vt 0.706986153 0.488990872
vt 0.717061565 0.435865972
vt 0.707902099 0.428538399
vt 0.652945306 0.426706506
vt 0.648365573 0.486243033
vt 0.474335727 0.571426062
vt 0.47616762 0.631878535
vt 0.489906819 0.642869894
vt 0.413883255 0.633710428
vt 0.477999514 0.559518757
vt 0.369001873 0.645617734
vt 0.488074926 0.523796841
vt 0.416631094 0.557686864
vt 0.475251674 0.502730071
vt 0.412051361 0.571426062
vt 0.47891546 0.485327086
vt 0.489906819 0.412967308
vt 0.4816633 0.423958667
vt 0.418462987 0.485327086
vt 0.419378934 0.42304272
vt 0.371749713 0.412051361
vt 0.42029488 0.501814124
vt 0.408387575 0.423958667
vt 0.407471629 0.487158979
vt 0.336027797 0.418462987
vt 0.405639736 0.499982231
vt 0.406555682 0.559518757
vt 0.341523477 0.499066284
vt 0.338775637 0.4816633
vt 0.324120492 0.417547041
vt 0.264583966 0.405639736
vt 0.261836126 0.413883255
vt 0.321372652 0.479831407
vt 0.251760714 0.426706506
vt 0.263668019 0.475251674
vt 0.262752073 0.492654658
vt 0.251760714 0.528376574
vt 0.326868332 0.494486552
vt 0.264583966 0.56135065
vt 0.326868332 0.555854971
vt 0.248096928 0.648365573
vt 0.34060753 0.557686864
vt 0.264583966 0.575089849
vt 0.260004233 0.639206108
vt 0.321372652 0.638290161
vt 0.326868332 0.573257956
vt 0.338775637 0.571426062
vt 0.334195904 0.636458268
vt 0.403807842 0.569594169
vt 0.406555682 0.632794482
g item_13polySurface3_mobile_0
f 3/3/3 2/2/2 1/1/1
f 6/6/6 5/5/5 4/4/4
f 9/9/9 8/8/8 7/7/7
f 12/12/12 11/11/11 10/10/10
f 15/15/15 14/14/14 13/13/13
f 18/18/18 17/17/17 16/16/16
f 21/21/21 20/20/20 19/19/19
f 24/24/24 23/23/23 22/22/22
f 27/27/27 26/26/26 25/25/25
f 30/30/30 29/29/29 28/28/28
f 33/33/33 32/32/32 31/31/31
f 36/36/36 35/35/35 34/34/34
f 35/35/35 37/37/37 34/34/34
f 37/37/37 35/35/35 38/38/38
f 39/39/39 34/34/34 37/37/37
f 37/37/37 38/38/38 40/40/40
f 41/41/41 39/39/39 37/37/37
f 37/37/37 40/40/40 41/41/41
f 39/39/39 41/41/41 42/42/42
f 42/42/42 41/41/41 40/40/40
f 42/42/42 40/40/40 43/43/43
f 44/44/44 39/39/39 42/42/42
f 42/42/42 43/43/43 45/45/45
f 42/42/42 45/45/45 44/44/44
f 45/45/45 46/46/46 44/44/44
f 49/49/49 48/48/48 47/47/47
f 50/50/50 49/49/49 47/47/47
f 53/53/53 52/52/52 51/51/51
f 52/52/52 54/54/54 51/51/51
f 51/51/51 54/54/54 55/55/55
f 54/54/54 56/56/56 55/55/55
f 54/54/54 57/57/57 56/56/56
f 58/58/58 54/54/54 52/52/52
f 54/54/54 58/58/58 57/57/57
f 59/59/59 58/58/58 52/52/52
f 58/58/58 59/59/59 60/60/60
f 57/57/57 58/58/58 61/61/61
f 61/61/61 58/58/58 60/60/60
f 57/57/57 61/61/61 62/62/62
f 62/62/62 61/61/61 60/60/60
f 57/57/57 62/62/62 63/63/63
f 64/64/64 62/62/62 60/60/60
f 63/63/63 62/62/62 65/65/65
f 62/62/62 64/64/64 65/65/65
f 64/64/64 66/66/66 65/65/65
f 69/69/69 68/68/68 67/67/67
f 70/70/70 69/69/69 67/67/67
f 70/70/70 71/71/71 69/69/69
f 70/70/70 72/72/72 71/71/71
f 70/70/70 67/67/67 73/73/73
f 73/73/73 72/72/72 70/70/70
f 67/67/67 74/74/74 73/73/73
f 73/73/73 75/75/75 72/72/72
f 75/75/75 73/73/73 74/74/74
f 76/76/76 72/72/72 75/75/75
f 75/75/75 77/77/77 76/76/76
f 78/78/78 75/75/75 74/74/74
f 75/75/75 79/79/79 77/77/77
f 79/79/79 75/75/75 78/78/78
f 80/80/80 79/79/79 78/78/78
f 83/83/83 82/82/82 81/81/81
f 82/82/82 84/84/84 81/81/81
f 81/81/81 84/84/84 85/85/85
f 84/84/84 82/82/82 86/86/86
f 85/85/85 84/84/84 86/86/86
f 82/82/82 87/87/87 86/86/86
f 85/85/85 86/86/86 88/88/88
f 86/86/86 87/87/87 89/89/89
f 88/88/88 86/86/86 89/89/89
f 87/87/87 90/90/90 89/89/89
f 88/88/88 89/89/89 91/91/91
f 89/89/89 90/90/90 91/91/91
f 88/88/88 91/91/91 92/92/92
f 90/90/90 93/93/93 91/91/91
f 92/92/92 91/91/91 94/94/94
f 91/91/91 93/93/93 94/94/94
f 93/93/93 95/95/95 94/94/94
f 98/98/98 97/97/97 96/96/96
f 99/99/99 98/98/98 96/96/96
f 102/102/102 101/101/101 100/100/100
f 103/103/103 102/102/102 100/100/100
f 106/106/106 105/105/105 104/104/104
f 107/107/107 106/106/106 104/104/104
f 108/108/108 107/107/107 104/104/104
f 106/106/106 107/107/107 109/109/109
f 110/110/110 107/107/107 108/108/108
f 107/107/107 111/111/111 109/109/109
f 111/111/111 107/107/107 110/110/110
f 111/111/111 112/112/112 109/109/109
f 110/110/110 112/112/112 111/111/111
f 113/113/113 112/112/112 110/110/110
f 112/112/112 114/114/114 109/109/109
f 115/115/115 112/112/112 113/113/113
f 114/114/114 112/112/112 115/115/115
f 116/116/116 114/114/114 115/115/115
f 119/119/119 118/118/118 117/117/117
f 120/120/120 119/119/119 117/117/117
f 123/123/123 122/122/122 121/121/121
f 124/124/124 123/123/123 121/121/121
f 127/127/127 126/126/126 125/125/125
f 128/128/128 127/127/127 125/125/125
f 131/131/131 130/130/130 129/129/129
f 130/130/130 132/132/132 129/129/129
f 132/132/132 130/130/130 133/133/133
f 132/132/132 133/133/133 134/134/134
f 134/134/134 135/135/135 132/132/132
f 132/132/132 136/136/136 129/129/129
f 132/132/132 135/135/135 136/136/136
f 136/136/136 137/137/137 129/129/129
f 137/137/137 136/136/136 138/138/138
f 135/135/135 139/139/139 136/136/136
f 136/136/136 139/139/139 138/138/138
f 140/140/140 139/139/139 135/135/135
f 141/141/141 139/139/139 140/140/140
f 138/138/138 139/139/139 141/141/141
f 142/142/142 138/138/138 141/141/141
f 145/145/145 144/144/144 143/143/143
f 144/144/144 146/146/146 143/143/143
f 143/143/143 146/146/146 147/147/147
f 147/147/147 146/146/146 148/148/148
f 149/149/149 148/148/148 146/146/146
f 146/146/146 144/144/144 150/150/150
f 149/149/149 146/146/146 150/150/150
f 144/144/144 151/151/151 150/150/150
f 151/151/151 152/152/152 150/150/150
f 153/153/153 149/149/149 150/150/150
f 152/152/152 153/153/153 150/150/150
f 153/153/153 154/154/154 149/149/149
f 153/153/153 155/155/155 154/154/154
f 155/155/155 153/153/153 152/152/152
f 156/156/156 155/155/155 152/152/152
f 159/159/159 158/158/158 157/157/157
f 160/160/160 159/159/159 157/157/157
f 163/163/163 162/162/162 161/161/161
f 164/164/164 163/163/163 161/161/161
f 167/167/167 166/166/166 165/165/165
f 168/168/168 167/167/167 165/165/165
f 168/168/168 169/169/169 167/167/167
f 165/165/165 170/170/170 168/168/168
f 168/168/168 171/171/171 169/169/169
f 170/170/170 172/172/172 168/168/168
f 172/172/172 171/171/171 168/168/168
f 172/172/172 170/170/170 173/173/173
f 173/173/173 171/171/171 172/172/172
f 173/173/173 174/174/174 171/171/171
f 170/170/170 175/175/175 173/173/173
f 173/173/173 176/176/176 174/174/174
f 176/176/176 173/173/173 175/175/175
f 177/177/177 176/176/176 175/175/175
f 180/180/180 179/179/179 178/178/178
f 181/181/181 180/180/180 178/178/178
f 184/184/184 183/183/183 182/182/182
f 185/185/185 184/184/184 182/182/182
f 188/188/188 187/187/187 186/186/186
f 189/189/189 188/188/188 186/186/186
f 192/192/192 191/191/191 190/190/190
f 193/193/193 192/192/192 190/190/190
f 196/196/196 195/195/195 194/194/194
f 197/197/197 196/196/196 194/194/194
f 200/200/200 199/199/199 198/198/198
f 201/201/201 200/200/200 198/198/198
f 204/204/204 203/203/203 202/202/202
f 205/205/205 204/204/204 202/202/202
f 208/208/208 207/207/207 206/206/206
f 209/209/209 208/208/208 206/206/206
f 212/212/212 211/211/211 210/210/210
f 213/213/213 212/212/212 210/210/210
f 216/216/216 215/215/215 214/214/214
f 217/217/217 216/216/216 214/214/214
f 220/220/220 219/219/219 218/218/218
f 221/221/221 220/220/220 218/218/218
f 224/224/224 223/223/223 222/222/222
f 225/225/225 224/224/224 222/222/222
f 228/228/228 227/227/227 226/226/226
f 229/229/229 228/228/228 226/226/226
f 232/232/232 231/231/231 230/230/230
f 233/233/233 232/232/232 230/230/230
f 236/236/236 235/235/235 234/234/234
f 237/237/237 236/236/236 234/234/234
f 240/240/240 239/239/239 238/238/238
f 241/241/241 240/240/240 238/238/238
f 244/244/244 243/243/243 242/242/242
f 245/245/245 244/244/244 242/242/242
f 248/248/248 247/247/247 246/246/246
f 249/249/249 248/248/248 246/246/246
f 252/252/252 251/251/251 250/250/250
f 253/253/253 252/252/252 250/250/250
f 256/256/256 255/255/255 254/254/254
f 257/257/257 256/256/256 254/254/254
f 260/260/260 259/259/259 258/258/258
f 261/261/261 260/260/260 258/258/258
f 264/264/264 263/263/263 262/262/262
f 265/265/265 264/264/264 262/262/262
f 268/268/268 267/267/267 266/266/266
f 269/269/269 268/268/268 266/266/266
f 272/272/272 271/271/271 270/270/270
f 273/273/273 272/272/272 270/270/270
f 276/276/276 275/275/275 274/274/274
f 277/277/277 276/276/276 274/274/274
f 280/280/280 279/279/279 278/278/278
f 281/281/281 280/280/280 278/278/278
f 284/284/284 283/283/283 282/282/282
f 285/285/285 284/284/284 282/282/282
f 288/288/288 287/287/287 286/286/286
f 289/289/289 288/288/288 286/286/286
f 292/292/292 291/291/291 290/290/290
f 293/293/293 292/292/292 290/290/290
f 296/296/296 295/295/295 294/294/294
f 297/297/297 296/296/296 294/294/294
f 300/300/300 299/299/299 298/298/298
f 301/301/301 300/300/300 298/298/298
f 304/304/304 303/303/303 302/302/302
f 305/305/305 304/304/304 302/302/302
f 308/308/308 307/307/307 306/306/306
f 309/309/309 308/308/308 306/306/306
f 312/312/312 311/311/311 310/310/310
f 313/313/313 312/312/312 310/310/310
f 316/316/316 315/315/315 314/314/314
f 317/317/317 316/316/316 314/314/314
f 320/320/320 319/319/319 318/318/318
f 321/321/321 320/320/320 318/318/318
f 324/324/324 323/323/323 322/322/322
f 325/325/325 324/324/324 322/322/322
f 328/328/328 327/327/327 326/326/326
f 329/329/329 328/328/328 326/326/326
f 332/332/332 331/331/331 330/330/330
f 333/333/333 332/332/332 330/330/330
f 336/336/336 335/335/335 334/334/334
f 337/337/337 336/336/336 334/334/334
f 340/340/340 339/339/339 338/338/338
f 341/341/341 340/340/340 338/338/338
f 344/344/344 343/343/343 342/342/342
f 345/345/345 344/344/344 342/342/342
f 348/348/348 347/347/347 346/346/346
f 349/349/349 348/348/348 346/346/346
f 352/352/352 351/351/351 350/350/350
f 353/353/353 352/352/352 350/350/350
f 356/356/356 355/355/355 354/354/354
f 357/357/357 356/356/356 354/354/354
f 360/360/360 359/359/359 358/358/358
f 361/361/361 360/360/360 358/358/358
f 364/364/364 363/363/363 362/362/362
f 365/365/365 364/364/364 362/362/362
f 368/368/368 367/367/367 366/366/366
f 369/369/369 368/368/368 366/366/366
f 372/372/372 371/371/371 370/370/370
f 373/373/373 372/372/372 370/370/370
f 376/376/376 375/375/375 374/374/374
f 377/377/377 376/376/376 374/374/374
f 380/380/380 379/379/379 378/378/378
f 381/381/381 380/380/380 378/378/378
f 384/384/384 383/383/383 382/382/382
f 385/385/385 384/384/384 382/382/382
f 388/388/388 387/387/387 386/386/386
f 389/389/389 388/388/388 386/386/386
f 392/392/392 391/391/391 390/390/390
f 393/393/393 392/392/392 390/390/390
f 396/396/396 395/395/395 394/394/394
f 397/397/397 396/396/396 394/394/394
f 400/400/400 399/399/399 398/398/398
f 401/401/401 400/400/400 398/398/398
f 404/404/404 403/403/403 402/402/402
f 405/405/405 404/404/404 402/402/402
f 408/408/408 407/407/407 406/406/406
f 409/409/409 408/408/408 406/406/406
f 412/412/412 411/411/411 410/410/410
f 413/413/413 412/412/412 410/410/410
f 416/416/416 415/415/415 414/414/414
f 417/417/417 416/416/416 414/414/414
f 420/420/420 419/419/419 418/418/418
f 421/421/421 420/420/420 418/418/418
f 424/424/424 423/423/423 422/422/422
f 425/425/425 424/424/424 422/422/422
f 428/428/428 427/427/427 426/426/426
f 429/429/429 428/428/428 426/426/426
f 432/432/432 431/431/431 430/430/430
f 433/433/433 432/432/432 430/430/430
f 436/436/436 435/435/435 434/434/434
f 437/437/437 436/436/436 434/434/434
f 440/440/440 439/439/439 438/438/438
f 441/441/441 440/440/440 438/438/438
f 444/444/444 443/443/443 442/442/442
f 445/445/445 444/444/444 442/442/442
f 448/448/448 447/447/447 446/446/446
f 449/449/449 448/448/448 446/446/446
f 452/452/452 451/451/451 450/450/450
f 453/453/453 452/452/452 450/450/450
f 456/456/456 455/455/455 454/454/454
f 457/457/457 456/456/456 454/454/454
f 460/460/460 459/459/459 458/458/458
f 461/461/461 460/460/460 458/458/458
f 464/464/464 463/463/463 462/462/462
f 465/465/465 464/464/464 462/462/462
f 468/468/468 467/467/467 466/466/466
f 469/469/469 468/468/468 466/466/466
f 472/472/472 471/471/471 470/470/470
f 473/473/473 472/472/472 470/470/470
f 476/476/476 475/475/475 474/474/474
f 477/477/477 476/476/476 474/474/474
f 480/480/480 479/479/479 478/478/478
f 481/481/481 480/480/480 478/478/478
f 484/484/484 483/483/483 482/482/482
f 485/485/485 484/484/484 482/482/482
f 488/488/488 487/487/487 486/486/486
f 489/489/489 488/488/488 486/486/486
f 492/492/492 491/491/491 490/490/490
f 493/493/493 492/492/492 490/490/490
f 496/496/496 495/495/495 494/494/494
f 497/497/497 496/496/496 494/494/494
f 500/500/500 499/499/499 498/498/498
f 501/501/501 500/500/500 498/498/498
f 504/504/504 503/503/503 502/502/502
f 505/505/505 504/504/504 502/502/502
f 508/508/508 507/507/507 506/506/506
f 507/507/507 509/509/509 506/506/506
f 506/506/506 509/509/509 510/510/510
f 509/509/509 507/507/507 511/511/511
f 510/510/510 509/509/509 511/511/511
f 507/507/507 512/512/512 511/511/511
f 510/510/510 511/511/511 513/513/513
f 511/511/511 512/512/512 514/514/514
f 513/513/513 511/511/511 514/514/514
f 512/512/512 515/515/515 514/514/514
f 513/513/513 514/514/514 516/516/516
f 514/514/514 515/515/515 516/516/516
f 513/513/513 516/516/516 517/517/517
f 515/515/515 518/518/518 516/516/516
f 517/517/517 516/516/516 519/519/519
f 516/516/516 518/518/518 519/519/519
f 518/518/518 520/520/520 519/519/519
f 523/523/523 522/522/522 521/521/521
f 522/522/522 524/524/524 521/521/521
f 521/521/521 524/524/524 525/525/525
f 524/524/524 526/526/526 525/525/525
f 524/524/524 527/527/527 526/526/526
f 528/528/528 524/524/524 522/522/522
f 524/524/524 528/528/528 527/527/527
f 529/529/529 528/528/528 522/522/522
f 528/528/528 529/529/529 530/530/530
f 527/527/527 528/528/528 531/531/531
f 531/531/531 528/528/528 530/530/530
f 527/527/527 531/531/531 532/532/532
f 532/532/532 531/531/531 530/530/530
f 527/527/527 532/532/532 533/533/533
f 534/534/534 532/532/532 530/530/530
f 533/533/533 532/532/532 535/535/535
f 532/532/532 534/534/534 535/535/535
f 534/534/534 536/536/536 535/535/535
f 539/539/539 538/538/538 537/537/537
f 538/538/538 540/540/540 537/537/537
f 540/540/540 538/538/538 541/541/541
f 542/542/542 537/537/537 540/540/540
f 540/540/540 541/541/541 543/543/543
f 544/544/544 542/542/542 540/540/540
f 540/540/540 543/543/543 544/544/544
f 542/542/542 544/544/544 545/545/545
f 544/544/544 543/543/543 545/545/545
f 545/545/545 543/543/543 546/546/546
f 547/547/547 542/542/542 545/545/545
f 545/545/545 546/546/546 548/548/548
f 545/545/545 548/548/548 547/547/547
f 548/548/548 549/549/549 547/547/547
f 552/552/552 551/551/551 550/550/550
f 553/553/553 552/552/552 550/550/550
f 553/553/553 554/554/554 552/552/552
f 553/553/553 555/555/555 554/554/554
f 553/553/553 550/550/550 556/556/556
f 556/556/556 555/555/555 553/553/553
f 550/550/550 557/557/557 556/556/556
f 556/556/556 558/558/558 555/555/555
f 558/558/558 556/556/556 557/557/557
f 559/559/559 555/555/555 558/558/558
f 558/558/558 560/560/560 559/559/559
f 561/561/561 558/558/558 557/557/557
f 558/558/558 562/562/562 560/560/560
f 562/562/562 558/558/558 561/561/561
f 563/563/563 562/562/562 561/561/561
f 566/566/566 565/565/565 564/564/564
f 567/567/567 566/566/566 564/564/564
f 570/570/570 569/569/569 568/568/568
f 571/571/571 570/570/570 568/568/568
f 574/574/574 573/573/573 572/572/572
f 573/573/573 575/575/575 572/572/572
f 575/575/575 573/573/573 576/576/576
f 575/575/575 576/576/576 577/577/577
f 577/577/577 578/578/578 575/575/575
f 575/575/575 579/579/579 572/572/572
f 575/575/575 578/578/578 579/579/579
f 579/579/579 580/580/580 572/572/572
f 580/580/580 579/579/579 581/581/581
f 578/578/578 582/582/582 579/579/579
f 579/579/579 582/582/582 581/581/581
f 583/583/583 582/582/582 578/578/578
f 584/584/584 582/582/582 583/583/583
f 581/581/581 582/582/582 584/584/584
f 585/585/585 581/581/581 584/584/584
f 588/588/588 587/587/587 586/586/586
f 589/589/589 588/588/588 586/586/586
f 589/589/589 590/590/590 588/588/588
f 586/586/586 591/591/591 589/589/589
f 589/589/589 592/592/592 590/590/590
f 591/591/591 593/593/593 589/589/589
f 589/589/589 593/593/593 592/592/592
f 593/593/593 591/591/591 594/594/594
f 594/594/594 592/592/592 593/593/593
f 594/594/594 595/595/595 592/592/592
f 591/591/591 596/596/596 594/594/594
f 594/594/594 597/597/597 595/595/595
f 597/597/597 594/594/594 596/596/596
f 598/598/598 597/597/597 596/596/596
f 601/601/601 600/600/600 599/599/599
f 602/602/602 601/601/601 599/599/599
f 605/605/605 604/604/604 603/603/603
f 606/606/606 605/605/605 603/603/603
f 609/609/609 608/608/608 607/607/607
f 610/610/610 609/609/609 607/607/607
f 613/613/613 612/612/612 611/611/611
f 614/614/614 613/613/613 611/611/611
f 615/615/615 614/614/614 611/611/611
f 613/613/613 614/614/614 616/616/616
f 617/617/617 614/614/614 615/615/615
f 614/614/614 618/618/618 616/616/616
f 618/618/618 614/614/614 617/617/617
f 618/618/618 619/619/619 616/616/616
f 617/617/617 619/619/619 618/618/618
f 620/620/620 619/619/619 617/617/617
f 619/619/619 621/621/621 616/616/616
f 622/622/622 619/619/619 620/620/620
f 621/621/621 619/619/619 622/622/622
f 623/623/623 621/621/621 622/622/622
f 626/626/626 625/625/625 624/624/624
f 627/627/627 626/626/626 624/624/624
f 630/630/630 629/629/629 628/628/628
f 631/631/631 630/630/630 628/628/628
f 634/634/634 633/633/633 632/632/632
f 635/635/635 634/634/634 632/632/632
f 638/638/638 637/637/637 636/636/636
f 639/639/639 638/638/638 636/636/636
f 642/642/642 641/641/641 640/640/640
f 641/641/641 643/643/643 640/640/640
f 640/640/640 643/643/643 644/644/644
f 644/644/644 643/643/643 645/645/645
f 646/646/646 645/645/645 643/643/643
f 643/643/643 641/641/641 647/647/647
f 646/646/646 643/643/643 647/647/647
f 641/641/641 648/648/648 647/647/647
f 648/648/648 649/649/649 647/647/647
f 650/650/650 646/646/646 647/647/647
f 649/649/649 650/650/650 647/647/647
f 650/650/650 651/651/651 646/646/646
f 650/650/650 652/652/652 651/651/651
f 652/652/652 650/650/650 649/649/649
f 653/653/653 652/652/652 649/649/649
f 656/656/656 655/655/655 654/654/654
f 657/657/657 656/656/656 654/654/654
f 660/660/660 659/659/659 658/658/658
f 661/661/661 659/659/659 660/660/660
f 664/664/664 663/663/663 662/662/662
f 665/665/665 662/662/662 663/663/663
f 665/665/665 666/666/666 662/662/662
f 669/669/669 668/668/668 667/667/667
f 669/669/669 667/667/667 670/670/670
f 673/673/673 672/672/672 671/671/671
f 674/674/674 671/671/671 672/672/672
f 677/677/677 676/676/676 675/675/675
f 678/678/678 677/677/677 675/675/675
f 681/681/681 680/680/680 679/679/679
f 682/682/682 681/681/681 679/679/679
f 685/685/685 684/684/684 683/683/683
f 686/686/686 685/685/685 683/683/683
f 689/689/689 688/688/688 687/687/687
f 689/689/689 690/690/690 688/688/688
f 688/688/688 690/690/690 691/691/691
f 692/692/692 690/690/690 689/689/689
f 695/695/695 694/694/694 693/693/693
f 696/696/696 694/694/694 695/695/695
f 699/699/699 698/698/698 697/697/697
f 700/700/700 699/699/699 697/697/697
f 703/703/703 702/702/702 701/701/701
f 701/701/701 704/704/704 703/703/703
f 703/703/703 704/704/704 705/705/705
f 708/708/708 707/707/707 706/706/706
f 709/709/709 706/706/706 707/707/707
f 712/712/712 711/711/711 710/710/710
f 712/712/712 710/710/710 713/713/713
f 714/714/714 712/712/712 713/713/713
f 717/717/717 716/716/716 715/715/715
f 718/718/718 715/715/715 716/716/716
f 718/718/718 719/719/719 715/715/715
f 715/715/715 719/719/719 720/720/720
f 719/719/719 721/721/721 720/720/720
f 720/720/720 721/721/721 722/722/722
f 721/721/721 723/723/723 722/722/722
f 724/724/724 720/720/720 722/722/722
f 725/725/725 719/719/719 718/718/718
f 725/725/725 726/726/726 719/719/719
f 723/723/723 726/726/726 725/725/725
f 725/725/725 727/727/727 723/723/723
f 723/723/723 728/728/728 722/722/722
f 723/723/723 727/727/727 728/728/728
f 729/729/729 728/728/728 727/727/727
f 730/730/730 724/724/724 722/722/722
f 731/731/731 724/724/724 730/730/730
f 731/731/731 730/730/730 732/732/732
f 730/730/730 729/729/729 732/732/732
f 731/731/731 733/733/733 724/724/724
f 724/724/724 733/733/733 716/716/716
f 718/718/718 716/716/716 734/734/734
f 733/733/733 734/734/734 716/716/716
f 718/718/718 734/734/734 735/735/735
f 734/734/734 736/736/736 735/735/735
f 735/735/735 736/736/736 737/737/737
f 731/731/731 737/737/737 733/733/733
f 735/735/735 737/737/737 738/738/738
f 738/738/738 737/737/737 731/731/731
f 739/739/739 738/738/738 731/731/731
f 731/731/731 740/740/740 739/739/739
f 731/731/731 741/741/741 740/740/740
f 731/731/731 732/732/732 742/742/742
f 742/742/742 741/741/741 731/731/731
f 742/742/742 743/743/743 741/741/741
f 744/744/744 743/743/743 742/742/742
f 744/744/744 745/745/745 743/743/743
f 729/729/729 745/745/745 732/732/732
f 745/745/745 727/727/727 743/743/743
f 745/745/745 729/729/729 727/727/727
f 748/748/748 747/747/747 746/746/746
f 749/749/749 747/747/747 748/748/748
f 752/752/752 751/751/751 750/750/750
f 753/753/753 752/752/752 750/750/750
f 756/756/756 755/755/755 754/754/754
f 757/757/757 756/756/756 754/754/754
f 760/760/760 759/759/759 758/758/758
f 761/761/761 760/760/760 758/758/758
f 764/764/764 763/763/763 762/762/762
f 765/765/765 764/764/764 762/762/762
f 768/768/768 767/767/767 766/766/766
f 769/769/769 768/768/768 766/766/766
f 772/772/772 771/771/771 770/770/770
f 773/773/773 772/772/772 770/770/770
f 776/776/776 775/775/775 774/774/774
f 777/777/777 776/776/776 774/774/774
f 780/780/780 779/779/779 778/778/778
f 781/781/781 780/780/780 778/778/778
f 784/784/784 783/783/783 782/782/782
f 785/785/785 784/784/784 782/782/782
f 788/788/788 787/787/787 786/786/786
f 789/789/789 788/788/788 786/786/786
f 792/792/792 791/791/791 790/790/790
f 793/793/793 792/792/792 790/790/790
f 796/796/796 795/795/795 794/794/794
f 797/797/797 796/796/796 794/794/794
f 800/800/800 799/799/799 798/798/798
f 801/801/801 800/800/800 798/798/798
f 804/804/804 803/803/803 802/802/802
f 805/805/805 804/804/804 802/802/802
f 808/808/808 807/807/807 806/806/806
f 809/809/809 808/808/808 806/806/806
f 812/812/812 811/811/811 810/810/810
f 813/813/813 812/812/812 810/810/810
f 816/816/816 815/815/815 814/814/814
f 817/817/817 816/816/816 814/814/814
f 820/820/820 819/819/819 818/818/818
f 821/821/821 820/820/820 818/818/818
f 824/824/824 823/823/823 822/822/822
f 825/825/825 824/824/824 822/822/822
f 828/828/828 827/827/827 826/826/826
f 829/829/829 828/828/828 826/826/826
f 832/832/832 831/831/831 830/830/830
f 833/833/833 832/832/832 830/830/830
f 836/836/836 835/835/835 834/834/834
f 837/837/837 836/836/836 834/834/834
f 840/840/840 839/839/839 838/838/838
f 841/841/841 840/840/840 838/838/838
f 844/844/844 843/843/843 842/842/842
f 845/845/845 844/844/844 842/842/842
f 848/848/848 847/847/847 846/846/846
f 849/849/849 848/848/848 846/846/846
f 852/852/852 851/851/851 850/850/850
f 853/853/853 852/852/852 850/850/850
f 856/856/856 855/855/855 854/854/854
f 857/857/857 856/856/856 854/854/854
f 860/860/860 859/859/859 858/858/858
f 861/861/861 860/860/860 858/858/858
f 864/864/864 863/863/863 862/862/862
f 865/865/865 864/864/864 862/862/862
f 868/868/868 867/867/867 866/866/866
f 869/869/869 868/868/868 866/866/866
f 872/872/872 871/871/871 870/870/870
f 873/873/873 872/872/872 870/870/870
f 876/876/876 875/875/875 874/874/874
f 877/877/877 876/876/876 874/874/874
f 880/880/880 879/879/879 878/878/878
f 881/881/881 880/880/880 878/878/878
f 884/884/884 883/883/883 882/882/882
f 885/885/885 884/884/884 882/882/882
f 888/888/888 887/887/887 886/886/886
f 889/889/889 888/888/888 886/886/886
f 892/892/892 891/891/891 890/890/890
f 893/893/893 892/892/892 890/890/890
f 896/896/896 895/895/895 894/894/894
f 897/897/897 896/896/896 894/894/894
f 900/900/900 899/899/899 898/898/898
f 901/901/901 899/899/899 900/900/900
f 902/902/902 901/901/901 900/900/900
f 905/905/905 904/904/904 903/903/903
f 905/905/905 903/903/903 906/906/906
f 903/903/903 907/907/907 906/906/906
f 903/903/903 908/908/908 907/907/907
f 908/908/908 909/909/909 907/907/907
f 912/912/912 911/911/911 910/910/910
f 911/911/911 913/913/913 910/910/910
f 913/913/913 914/914/914 910/910/910
f 914/914/914 915/915/915 910/910/910
f 915/915/915 916/916/916 910/910/910
f 919/919/919 918/918/918 917/917/917
f 918/918/918 919/919/919 920/920/920
f 921/921/921 918/918/918 920/920/920
f 921/921/921 922/922/922 918/918/918
f 925/925/925 924/924/924 923/923/923
f 924/924/924 925/925/925 926/926/926
f 927/927/927 924/924/924 926/926/926
f 930/930/930 929/929/929 928/928/928
f 931/931/931 930/930/930 928/928/928
f 934/934/934 933/933/933 932/932/932
f 935/935/935 933/933/933 934/934/934
f 932/932/932 933/933/933 936/936/936
f 935/935/935 937/937/937 933/933/933
f 932/932/932 936/936/936 938/938/938
f 932/932/932 938/938/938 939/939/939
f 936/936/936 940/940/940 938/938/938
f 941/941/941 940/940/940 936/936/936
f 938/938/938 942/942/942 939/939/939
f 935/935/935 939/939/939 943/943/943
f 943/943/943 937/937/937 935/935/935
f 939/939/939 944/944/944 943/943/943
f 939/939/939 942/942/942 944/944/944
f 943/943/943 945/945/945 937/937/937
f 942/942/942 946/946/946 944/944/944
f 946/946/946 942/942/942 947/947/947
f 946/946/946 948/948/948 944/944/944
f 949/949/949 946/946/946 947/947/947
f 948/948/948 950/950/950 944/944/944
f 947/947/947 940/940/940 951/951/951
f 941/941/941 951/951/951 940/940/940
f 941/941/941 952/952/952 951/951/951
f 953/953/953 947/947/947 951/951/951
f 947/947/947 953/953/953 949/949/949
f 941/941/941 954/954/954 952/952/952
f 955/955/955 954/954/954 941/941/941
f 953/953/953 956/956/956 949/949/949
f 957/957/957 949/949/949 956/956/956
f 953/953/953 954/954/954 958/958/958
f 956/956/956 953/953/953 958/958/958
f 958/958/958 954/954/954 955/955/955
f 959/959/959 957/957/957 956/956/956
f 958/958/958 955/955/955 960/960/960
f 957/957/957 961/961/961 948/948/948
f 961/961/961 957/957/957 959/959/959
f 962/962/962 959/959/959 960/960/960
f 962/962/962 961/961/961 959/959/959
f 955/955/955 963/963/963 960/960/960
f 963/963/963 962/962/962 960/960/960
f 955/955/955 964/964/964 963/963/963
f 965/965/965 963/963/963 964/964/964
f 962/962/962 966/966/966 961/961/961
f 965/965/965 964/964/964 966/966/966
f 961/961/961 967/967/967 948/948/948
f 966/966/966 968/968/968 961/961/961
f 968/968/968 966/966/966 964/964/964
f 969/969/969 968/968/968 964/964/964
f 969/969/969 970/970/970 968/968/968
f 948/948/948 967/967/967 950/950/950
f 971/971/971 970/970/970 969/969/969
f 967/967/967 972/972/972 950/950/950
f 967/967/967 970/970/970 972/972/972
f 950/950/950 972/972/972 945/945/945
f 970/970/970 973/973/973 972/972/972
f 971/971/971 973/973/973 970/970/970
f 971/971/971 974/974/974 973/973/973
f 975/975/975 974/974/974 971/971/971
f 972/972/972 976/976/976 945/945/945
f 975/975/975 976/976/976 974/974/974
f 945/945/945 976/976/976 937/937/937
f 937/937/937 976/976/976 975/975/975
f 979/979/979 978/978/978 977/977/977
f 980/980/980 978/978/978 979/979/979
f 977/977/977 978/978/978 981/981/981
f 980/980/980 982/982/982 978/978/978
f 983/983/983 977/977/977 981/981/981
f 977/977/977 983/983/983 984/984/984
f 983/983/983 981/981/981 985/985/985
f 986/986/986 977/977/977 984/984/984
f 985/985/985 981/981/981 987/987/987
f 981/981/981 988/988/988 987/987/987
f 988/988/988 989/989/989 987/987/987
f 985/985/985 987/987/987 990/990/990
f 988/988/988 991/991/991 989/989/989
f 992/992/992 991/991/991 988/988/988
f 993/993/993 985/985/985 990/990/990
f 984/984/984 994/994/994 986/986/986
f 994/994/994 984/984/984 993/993/993
f 986/986/986 995/995/995 980/980/980
f 994/994/994 995/995/995 986/986/986
f 995/995/995 996/996/996 980/980/980
f 980/980/980 996/996/996 982/982/982
f 997/997/997 995/995/995 994/994/994
f 996/996/996 998/998/998 982/982/982
f 999/999/999 994/994/994 993/993/993
f 993/993/993 990/990/990 999/999/999
f 1000/1000/1000 997/997/997 994/994/994
f 990/990/990 991/991/991 1001/1001/1001
f 992/992/992 1001/1001/1001 991/991/991
f 990/990/990 1002/1002/1002 999/999/999
f 1002/1002/1002 990/990/990 1001/1001/1001
f 1003/1003/1003 1001/1001/1001 992/992/992
f 999/999/999 1002/1002/1002 1004/1004/1004
f 1002/1002/1002 1005/1005/1005 1004/1004/1004
f 1006/1006/1006 1003/1003/1003 992/992/992
f 1004/1004/1004 1007/1007/1007 1000/1000/1000
f 1007/1007/1007 1004/1004/1004 1005/1005/1005
f 997/997/997 1000/1000/1000 1008/1008/1008
f 1007/1007/1007 1008/1008/1008 1000/1000/1000
f 1009/1009/1009 997/997/997 1008/1008/1008
f 997/997/997 1009/1009/1009 998/998/998
f 1009/1009/1009 1008/1008/1008 1010/1010/1010
f 1009/1009/1009 1011/1011/1011 998/998/998
f 982/982/982 998/998/998 1011/1011/1011
f 982/982/982 1011/1011/1011 1012/1012/1012
f 1012/1012/1012 1011/1011/1011 1013/1013/1013
f 1012/1012/1012 1013/1013/1013 1014/1014/1014
f 1014/1014/1014 1009/1009/1009 1010/1010/1010
f 1012/1012/1012 1014/1014/1014 1015/1015/1015
f 1015/1015/1015 1014/1014/1014 1010/1010/1010
f 1015/1015/1015 1010/1010/1010 1016/1016/1016
f 1015/1015/1015 1016/1016/1016 1017/1017/1017
f 1016/1016/1016 1007/1007/1007 1017/1017/1017
f 1015/1015/1015 1017/1017/1017 1018/1018/1018
f 1018/1018/1018 1017/1017/1017 1019/1019/1019
f 1018/1018/1018 1019/1019/1019 1006/1006/1006
f 1006/1006/1006 1019/1019/1019 1020/1020/1020
f 1020/1020/1020 1003/1003/1003 1006/1006/1006
f 1007/1007/1007 1021/1021/1021 1017/1017/1017
f 1003/1003/1003 1020/1020/1020 1021/1021/1021
f 1021/1021/1021 1007/1007/1007 1005/1005/1005
f 1005/1005/1005 1003/1003/1003 1021/1021/1021
f 1024/1024/1024 1023/1023/1023 1022/1022/1022
f 1024/1024/1024 1025/1025/1025 1023/1023/1023
f 1024/1024/1024 1022/1022/1022 1026/1026/1026
f 1027/1027/1027 1025/1025/1025 1024/1024/1024
f 1024/1024/1024 1026/1026/1026 1028/1028/1028
f 1029/1029/1029 1026/1026/1026 1022/1022/1022
f 1028/1028/1028 1026/1026/1026 1030/1030/1030
f 1031/1031/1031 1029/1029/1029 1022/1022/1022
f 1032/1032/1032 1028/1028/1028 1030/1030/1030
f 1032/1032/1032 1033/1033/1033 1028/1028/1028
f 1034/1034/1034 1033/1033/1033 1032/1032/1032
f 1032/1032/1032 1030/1030/1030 1035/1035/1035
f 1036/1036/1036 1033/1033/1033 1034/1034/1034
f 1036/1036/1036 1037/1037/1037 1033/1033/1033
f 1030/1030/1030 1038/1038/1038 1035/1035/1035
f 1036/1036/1036 1035/1035/1035 1039/1039/1039
f 1039/1039/1039 1037/1037/1037 1036/1036/1036
f 1035/1035/1035 1040/1040/1040 1039/1039/1039
f 1035/1035/1035 1038/1038/1038 1040/1040/1040
f 1039/1039/1039 1041/1041/1041 1037/1037/1037
f 1042/1042/1042 1038/1038/1038 1029/1029/1029
f 1038/1038/1038 1042/1042/1042 1040/1040/1040
f 1043/1043/1043 1042/1042/1042 1029/1029/1029
f 1029/1029/1029 1031/1031/1031 1043/1043/1043
f 1042/1042/1042 1044/1044/1044 1040/1040/1040
f 1044/1044/1044 1045/1045/1045 1040/1040/1040
f 1041/1041/1041 1046/1046/1046 1037/1037/1037
f 1037/1037/1037 1046/1046/1046 1047/1047/1047
f 1047/1047/1047 1046/1046/1046 1048/1048/1048
f 1049/1049/1049 1046/1046/1046 1041/1041/1041
f 1045/1045/1045 1049/1049/1049 1041/1041/1041
f 1047/1047/1047 1048/1048/1048 1050/1050/1050
f 1050/1050/1050 1048/1048/1048 1051/1051/1051
f 1050/1050/1050 1051/1051/1051 1052/1052/1052
f 1052/1052/1052 1051/1051/1051 1049/1049/1049
f 1050/1050/1050 1052/1052/1052 1053/1053/1053
f 1054/1054/1054 1049/1049/1049 1045/1045/1045
f 1054/1054/1054 1052/1052/1052 1049/1049/1049
f 1044/1044/1044 1054/1054/1054 1045/1045/1045
f 1053/1053/1053 1052/1052/1052 1055/1055/1055
f 1056/1056/1056 1054/1054/1054 1044/1044/1044
f 1053/1053/1053 1055/1055/1055 1057/1057/1057
f 1058/1058/1058 1056/1056/1056 1044/1044/1044
f 1055/1055/1055 1059/1059/1059 1057/1057/1057
f 1059/1059/1059 1055/1055/1055 1056/1056/1056
f 1060/1060/1060 1057/1057/1057 1059/1059/1059
f 1060/1060/1060 1061/1061/1061 1057/1057/1057
f 1062/1062/1062 1059/1059/1059 1056/1056/1056
f 1027/1027/1027 1057/1057/1057 1061/1061/1061
f 1056/1056/1056 1058/1058/1058 1063/1063/1063
f 1062/1062/1062 1056/1056/1056 1063/1063/1063
f 1061/1061/1061 1062/1062/1062 1064/1064/1064
f 1062/1062/1062 1063/1063/1063 1064/1064/1064
f 1027/1027/1027 1061/1061/1061 1064/1064/1064
f 1063/1063/1063 1058/1058/1058 1065/1065/1065
f 1058/1058/1058 1043/1043/1043 1065/1065/1065
f 1031/1031/1031 1065/1065/1065 1043/1043/1043
f 1066/1066/1066 1027/1027/1027 1064/1064/1064
f 1065/1065/1065 1031/1031/1031 1066/1066/1066
f 1066/1066/1066 1025/1025/1025 1027/1027/1027
f 1031/1031/1031 1025/1025/1025 1066/1066/1066
