g item_29item_29_mobile
v -3.05245607 53.1292117 13.4043398
v -3.44683024 52.7348375 13.4043398
v -3.05245607 52.7348375 13.0099656
v -3.44683024 17.6881197 13.4043398
v -3.05245607 17.2937455 13.4043398
v -3.05245607 17.6881197 13.0099656
v 2.88068421 17.2937455 13.4043398
v 3.27505838 17.6881197 13.4043398
v 2.88068421 17.6881197 13.0099656
v 3.27505838 52.7348375 13.4043398
v 2.88068421 53.1292117 13.4043398
v 2.88068421 52.7348375 13.0099656
v 2.88068421 17.2937455 37.764394
v 2.88068421 17.6881197 38.1587682
v 3.27505838 17.6881197 37.764394
v 2.88068421 52.7348375 38.1587682
v 2.88068421 53.1292117 37.764394
v 3.27505838 52.7348375 37.764394
v -3.05245607 17.2937455 37.764394
v -3.44683024 17.6881197 37.764394
v -3.05245607 17.6881197 38.1587682
v -3.44683024 52.7348375 37.764394
v -3.05245607 53.1292117 37.764394
v -3.05245607 52.7348375 38.1587682
v -13.8705777 42.2427318 8.98033802
v -14.2649519 41.8501104 8.98033802
v -13.8705777 41.8501104 8.58596385
v -14.2649519 18.569765 8.98033802
v -13.8705777 18.1753909 8.98033802
v -13.8705777 18.569765 8.58596385
v 13.6988059 18.1753909 8.98033802
v 14.09318 18.569765 8.98033802
v 13.6988059 18.569765 8.58596385
v 14.09318 41.8501104 8.98033802
v 13.6988059 42.2427318 8.98033802
v 13.6988059 41.8501104 8.58596385
v 13.6988059 18.1753909 22.5152595
v 13.6988059 18.569765 22.9096337
v 14.09318 18.569765 22.5152595
v 13.6988059 41.8501104 22.9096337
v 13.6988059 42.2427318 22.5152595
v 14.09318 41.8501104 22.5152595
v -13.8705777 18.1753909 22.5152595
v -14.2649519 18.569765 22.5152595
v -13.8705777 18.569765 22.9096337
v -14.2649519 41.8501104 22.5152595
v -13.8705777 42.2427318 22.5152595
v -13.8705777 41.8501104 22.9096337
v -20.9535378 42.5757589 12.2142062
v -21.347912 42.1813847 12.2142062
v -20.9535378 42.1813847 11.819832
v -21.347912 28.2398197 12.2142062
v -20.9535378 27.8454455 12.2142062
v -20.9535378 28.2398197 11.819832
v 20.7835187 27.8454455 12.2142062
v 21.1761401 28.2398197 12.2142062
v 20.7835187 28.2398197 11.819832
v 21.1778929 42.1813847 12.2142062
v 20.7835187 42.5757589 12.2142062
v 20.7835187 42.1813847 11.819832
v 20.7835187 27.8454455 25.7491277
v 20.7835187 28.2398197 26.1435019
v 21.1761401 28.2398197 25.7491277
v 20.7835187 42.1813847 26.1435019
v 20.7835187 42.5757589 25.7491277
v 21.1778929 42.1813847 25.7491277
v -20.9535378 27.8454455 25.7491277
v -21.347912 28.2398197 25.7491277
v -20.9535378 28.2398197 26.1435019
v -21.347912 42.1813847 25.7491277
v -20.9535378 42.5757589 25.7491277
v -20.9535378 42.1813847 26.1435019
v 10.8820979 -40.0359892 20.4434805
v 10.8820979 -39.6416151 20.8361019
v 11.2764721 -39.6416151 20.4434805
v 10.8820979 15.9143123 20.8361019
v 10.8820979 16.3086865 20.4434805
v 11.2764721 15.9143123 20.4434805
v -11.0538698 -40.0359892 20.4434805
v -11.4482439 -39.6416151 20.4434805
v -11.0538698 -39.6416151 20.8361019
v -11.4482439 15.9143123 20.4434805
v -11.0538698 16.3086865 20.4434805
v -11.0538698 15.9143123 20.8361019
v -3.56601887 23.1620331 18.1613687
v -3.96039304 22.767659 18.1613687
v -3.56601887 22.767659 17.7669945
v -3.96039304 -45.460825 18.1613687
v -3.56601887 -45.8551992 18.1613687
v -3.56601887 -45.460825 17.7669945
v 3.39424701 -45.8551992 18.1613687
v 3.78862118 -45.460825 18.1613687
v 3.39424701 -45.460825 17.7669945
v 3.78862118 22.767659 18.1613687
v 3.39424701 23.1620331 18.1613687
v 3.39424701 22.767659 17.7669945
v 3.39424701 -45.8551992 27.119797
v 3.39424701 -45.460825 27.5141712
v 3.78862118 -45.460825 27.119797
v 3.39424701 22.767659 27.5141712
v 3.39424701 23.1620331 27.119797
v 3.78862118 22.767659 27.119797
v -3.56601887 -45.8551992 27.119797
v -3.96039304 -45.460825 27.119797
v -3.56601887 -45.460825 27.5141712
v -3.96039304 22.767659 27.119797
v -3.56601887 23.1620331 27.119797
v -3.56601887 22.767659 27.5141712
v 4.97875479 -57.4340248 20.4434805
v 4.97875479 -57.0396506 20.8361019
v 5.37312896 -57.0396506 20.4434805
v 4.97875479 33.3123479 20.8361019
v 4.97875479 33.706722 20.4434805
v 5.37312896 33.3123479 20.4434805
v -5.14877387 -57.4340248 20.4434805
v -5.54314804 -57.0396506 20.4434805
v -5.14877387 -57.0396506 20.8361019
v -5.54314804 33.3123479 20.4434805
v -5.14877387 33.706722 20.4434805
v -5.14877387 33.3123479 20.8361019
v 27.3003328 42.7002059 21.5757726
v 26.9059586 42.7002059 21.9701468
v 26.9059586 43.09458 21.5757726
v -26.9059586 42.7002059 21.9701468
v -27.3003328 42.7002059 21.5757726
v -26.9059586 43.09458 21.5757726
v -26.9059586 34.9985165 21.9701468
v -26.9059586 34.6041424 21.5757726
v -27.3003328 34.9985165 21.5757726
v 26.9059586 34.9985165 21.9701468
v 27.3003328 34.9985165 21.5757726
v 26.9059586 34.6041424 21.5757726
v -3.81491279 57.4340248 28.7498769
v 3.64839926 57.4340248 28.7533825
v 3.64489371 57.1202782 29.2231259
v -3.81491279 57.1202782 29.2231259
v -4.21629806 57.0501673 28.8375156
v -4.21629806 57.0396506 2.21638283
v -3.82192389 57.4340248 2.21638283
v -3.81491279 57.4340248 28.7498769
v -3.81491279 57.1202782 29.2231259
v -4.21629806 45.5099027 33.6856887
v -3.82367667 45.4906222 34.1238823
v -3.82367667 44.9455095 34.234307
v -4.21629806 44.9507678 33.8399329
v -4.21629806 25.4704366 33.8399329
v -3.82367667 25.4756949 34.234307
v -3.82367667 24.9305822 34.1238823
v -4.21629806 24.9113017 33.6856887
v -4.21629806 13.3710371 28.8375156
v -3.81841834 13.2991734 29.2231259
v -3.81841834 12.9871796 28.7533825
v -4.21629806 13.3815537 2.21638283
v -3.82192389 12.9871796 2.21638283
v 3.64839926 57.4340248 28.7533825
v 3.6519048 57.4340248 2.21638283
v 4.04627897 57.0396506 2.21638283
v 4.04627897 57.0501673 28.8375156
v 3.64489371 57.1202782 29.2231259
v 3.6519048 45.4906222 34.1238823
v 4.04627897 45.5099027 33.6856887
v 4.04627897 44.9507678 33.8399329
v 3.6519048 44.9455095 34.234307
v 3.6519048 25.4756949 34.234307
v 4.04627897 25.4704366 33.8399329
v 4.04627897 24.9113017 33.6856887
v 3.65365758 24.9305822 34.1238823
v 3.64839926 13.2991734 29.2231259
v 4.04627897 13.3710371 28.8375156
v 3.64489371 12.9871796 28.7498769
v 3.6519048 12.9871796 2.21638283
v 4.04627897 13.3815537 2.21638283
v 3.64489371 12.9871796 28.7498769
v -3.81841834 12.9871796 28.7533825
v -3.81841834 13.2991734 29.2231259
v 3.64839926 13.2991734 29.2231259
v -3.05245607 53.1292117 13.4043398
v -3.05245607 53.1292117 37.764394
v -3.44683024 52.7348375 37.764394
v -3.44683024 52.7348375 13.4043398
v -3.05245607 52.7348375 13.0099656
v 2.88068421 52.7348375 13.0099656
v 2.88068421 53.1292117 13.4043398
v -3.05245607 53.1292117 13.4043398
v -3.44683024 52.7348375 13.4043398
v -3.44683024 17.6881197 13.4043398
v -3.05245607 17.6881197 13.0099656
v -3.05245607 52.7348375 13.0099656
v -3.44683024 17.6881197 13.4043398
v -3.44683024 17.6881197 37.764394
v -3.05245607 17.2937455 37.764394
v -3.05245607 17.2937455 13.4043398
v -3.05245607 17.2937455 13.4043398
v 2.88068421 17.2937455 13.4043398
v 2.88068421 17.6881197 13.0099656
v -3.05245607 17.6881197 13.0099656
v 2.88068421 17.2937455 13.4043398
v 2.88068421 17.2937455 37.764394
v 3.27505838 17.6881197 37.764394
v 3.27505838 17.6881197 13.4043398
v 3.27505838 17.6881197 13.4043398
v 3.27505838 52.7348375 13.4043398
v 2.88068421 52.7348375 13.0099656
v 2.88068421 17.6881197 13.0099656
v 3.27505838 52.7348375 13.4043398
v 3.27505838 52.7348375 37.764394
v 2.88068421 53.1292117 37.764394
v 2.88068421 53.1292117 13.4043398
v 2.88068421 17.2937455 37.764394
v -3.05245607 17.2937455 37.764394
v -3.05245607 17.6881197 38.1587682
v 2.88068421 17.6881197 38.1587682
v 2.88068421 17.6881197 38.1587682
v 2.88068421 52.7348375 38.1587682
v 3.27505838 52.7348375 37.764394
v 3.27505838 17.6881197 37.764394
v 2.88068421 52.7348375 38.1587682
v -3.05245607 52.7348375 38.1587682
v -3.05245607 53.1292117 37.764394
v 2.88068421 53.1292117 37.764394
v -3.44683024 17.6881197 37.764394
v -3.44683024 52.7348375 37.764394
v -3.05245607 52.7348375 38.1587682
v -3.05245607 17.6881197 38.1587682
v -8.07765937 56.0055139 27.8857593
v 7.91114583 56.0055139 27.8892648
v 7.90588751 55.6917674 28.3590083
v -8.07765937 55.6917674 28.3590083
v -8.47904463 55.6234092 27.973398
v -8.47904463 55.6111398 3.08050045
v -8.08467046 56.0055139 3.08050045
v -8.07765937 56.0055139 27.8857593
v -8.07765937 55.6917674 28.3590083
v -8.47904463 44.8648819 32.4920496
v -8.08642324 44.8473541 32.9284903
v -8.08467046 44.3004886 33.0389151
v -8.47904463 44.3074997 32.6462937
v -8.47904463 26.1137047 32.6462937
v -8.08467046 26.1207158 33.0389151
v -8.08642324 25.5738503 32.9284903
v -8.47904463 25.5563225 32.4920496
v -8.47904463 14.799548 27.973398
v -8.08116492 14.7276842 28.3590083
v -8.08116492 14.4156905 27.8892648
v -8.47904463 14.8100646 3.08050045
v -8.08467046 14.4156905 3.08050045
v 7.91114583 56.0055139 27.8892648
v 7.91465138 56.0055139 3.08050045
v 8.30902555 55.6111398 3.08050045
v 8.30902555 55.6234092 27.973398
v 7.90588751 55.6917674 28.3590083
v 7.91465138 44.8473541 32.9284903
v 8.30902555 44.8648819 32.4920496
v 8.30902555 44.3074997 32.6462937
v 7.91465138 44.3004886 33.0389151
v 7.91465138 26.1207158 33.0389151
v 8.30902555 26.1137047 32.6462937
v 8.30902555 25.5563225 32.4920496
v 7.91465138 25.5756031 32.9284903
v 7.91114583 14.7276842 28.3590083
v 8.30902555 14.799548 27.973398
v 7.90588751 14.4156905 27.8857593
v 7.91465138 14.4156905 3.08050045
v 8.30902555 14.8100646 3.08050045
v 7.90588751 14.4156905 27.8857593
v -8.08116492 14.4156905 27.8892648
v -8.08116492 14.7276842 28.3590083
v 7.91114583 14.7276842 28.3590083
v -13.8705777 42.2427318 8.98033802
v -13.8705777 42.2427318 22.5152595
v -14.2649519 41.8501104 22.5152595
v -14.2649519 41.8501104 8.98033802
v -13.8705777 41.8501104 8.58596385
v 13.6988059 41.8501104 8.58596385
v 13.6988059 42.2427318 8.98033802
v -13.8705777 42.2427318 8.98033802
v -14.2649519 41.8501104 8.98033802
v -14.2649519 18.569765 8.98033802
v -13.8705777 18.569765 8.58596385
v -13.8705777 41.8501104 8.58596385
v -14.2649519 18.569765 8.98033802
v -14.2649519 18.569765 22.5152595
v -13.8705777 18.1753909 22.5152595
v -13.8705777 18.1753909 8.98033802
v -13.8705777 18.1753909 8.98033802
v 13.6988059 18.1753909 8.98033802
v 13.6988059 18.569765 8.58596385
v -13.8705777 18.569765 8.58596385
v 13.6988059 18.1753909 8.98033802
v 13.6988059 18.1753909 22.5152595
v 14.09318 18.569765 22.5152595
v 14.09318 18.569765 8.98033802
v 14.09318 18.569765 8.98033802
v 14.09318 41.8501104 8.98033802
v 13.6988059 41.8501104 8.58596385
v 13.6988059 18.569765 8.58596385
v 14.09318 41.8501104 8.98033802
v 14.09318 41.8501104 22.5152595
v 13.6988059 42.2427318 22.5152595
v 13.6988059 42.2427318 8.98033802
v 13.6988059 18.1753909 22.5152595
v -13.8705777 18.1753909 22.5152595
v -13.8705777 18.569765 22.9096337
v 13.6988059 18.569765 22.9096337
v 13.6988059 18.569765 22.9096337
v 13.6988059 41.8501104 22.9096337
v 14.09318 41.8501104 22.5152595
v 14.09318 18.569765 22.5152595
v 13.6988059 41.8501104 22.9096337
v -13.8705777 41.8501104 22.9096337
v -13.8705777 42.2427318 22.5152595
v 13.6988059 42.2427318 22.5152595
v -14.2649519 18.569765 22.5152595
v -14.2649519 41.8501104 22.5152595
v -13.8705777 41.8501104 22.9096337
v -13.8705777 18.569765 22.9096337
v -20.9535378 42.5757589 12.2142062
v -20.9535378 42.5757589 25.7491277
v -21.347912 42.1813847 25.7491277
v -21.347912 42.1813847 12.2142062
v -20.9535378 42.1813847 11.819832
v 20.7835187 42.1813847 11.819832
v 20.7835187 42.5757589 12.2142062
v -20.9535378 42.5757589 12.2142062
v -21.347912 42.1813847 12.2142062
v -21.347912 28.2398197 12.2142062
v -20.9535378 28.2398197 11.819832
v -20.9535378 42.1813847 11.819832
v -21.347912 28.2398197 12.2142062
v -21.347912 28.2398197 25.7491277
v -20.9535378 27.8454455 25.7491277
v -20.9535378 27.8454455 12.2142062
v -20.9535378 27.8454455 12.2142062
v 20.7835187 27.8454455 12.2142062
v 20.7835187 28.2398197 11.819832
v -20.9535378 28.2398197 11.819832
v 20.7835187 27.8454455 12.2142062
v 20.7835187 27.8454455 25.7491277
v 21.1761401 28.2398197 25.7491277
v 21.1761401 28.2398197 12.2142062
v 21.1761401 28.2398197 12.2142062
v 21.1778929 42.1813847 12.2142062
v 20.7835187 42.1813847 11.819832
v 20.7835187 28.2398197 11.819832
v 21.1778929 42.1813847 12.2142062
v 21.1778929 42.1813847 25.7491277
v 20.7835187 42.5757589 25.7491277
v 20.7835187 42.5757589 12.2142062
v 20.7835187 27.8454455 25.7491277
v -20.9535378 27.8454455 25.7491277
v -20.9535378 28.2398197 26.1435019
v 20.7835187 28.2398197 26.1435019
v 20.7835187 28.2398197 26.1435019
v 20.7835187 42.1813847 26.1435019
v 21.1778929 42.1813847 25.7491277
v 21.1761401 28.2398197 25.7491277
v 20.7835187 42.1813847 26.1435019
v -20.9535378 42.1813847 26.1435019
v -20.9535378 42.5757589 25.7491277
v 20.7835187 42.5757589 25.7491277
v -21.347912 28.2398197 25.7491277
v -21.347912 42.1813847 25.7491277
v -20.9535378 42.1813847 26.1435019
v -20.9535378 28.2398197 26.1435019
v 10.8820979 -40.0359892 17.127232
v 10.8820979 -40.0359892 20.4434805
v 11.2764721 -39.6416151 20.4434805
v 11.2764721 -39.6416151 17.127232
v 10.8820979 -40.0359892 20.4434805
v -11.0538698 -40.0359892 20.4434805
v -11.0538698 -39.6416151 20.8361019
v 10.8820979 -39.6416151 20.8361019
v 10.8820979 -39.6416151 20.8361019
v 10.8820979 15.9143123 20.8361019
v 11.2764721 15.9143123 20.4434805
v 11.2764721 -39.6416151 20.4434805
v 10.8820979 15.9143123 20.8361019
v -11.0538698 15.9143123 20.8361019
v -11.0538698 16.3086865 20.4434805
v 10.8820979 16.3086865 20.4434805
v 10.8820979 16.3086865 20.4434805
v 10.8820979 16.3086865 17.127232
v 11.2764721 15.9143123 17.127232
v 11.2764721 15.9143123 20.4434805
v -11.0538698 -40.0359892 20.4434805
v -11.0538698 -40.0359892 17.127232
v -11.4482439 -39.6416151 17.127232
v -11.4482439 -39.6416151 20.4434805
v -11.4482439 -39.6416151 20.4434805
v -11.4482439 15.9143123 20.4434805
v -11.0538698 15.9143123 20.8361019
v -11.0538698 -39.6416151 20.8361019
v -11.4482439 15.9143123 20.4434805
v -11.4482439 15.9143123 17.127232
v -11.0538698 16.3086865 17.127232
v -11.0538698 16.3086865 20.4434805
v -3.56601887 23.1620331 18.1613687
v -3.56601887 23.1620331 27.119797
v -3.96039304 22.767659 27.119797
v -3.96039304 22.767659 18.1613687
v -3.56601887 22.767659 17.7669945
v 3.39424701 22.767659 17.7669945
v 3.39424701 23.1620331 18.1613687
v -3.56601887 23.1620331 18.1613687
v -3.96039304 22.767659 18.1613687
v -3.96039304 -45.460825 18.1613687
v -3.56601887 -45.460825 17.7669945
v -3.56601887 22.767659 17.7669945
v -3.96039304 -45.460825 18.1613687
v -3.96039304 -45.460825 27.119797
v -3.56601887 -45.8551992 27.119797
v -3.56601887 -45.8551992 18.1613687
v -3.56601887 -45.8551992 18.1613687
v 3.39424701 -45.8551992 18.1613687
v 3.39424701 -45.460825 17.7669945
v -3.56601887 -45.460825 17.7669945
v 3.39424701 -45.8551992 18.1613687
v 3.39424701 -45.8551992 27.119797
v 3.78862118 -45.460825 27.119797
v 3.78862118 -45.460825 18.1613687
v 3.78862118 -45.460825 18.1613687
v 3.78862118 22.767659 18.1613687
v 3.39424701 22.767659 17.7669945
v 3.39424701 -45.460825 17.7669945
v 3.78862118 22.767659 18.1613687
v 3.78862118 22.767659 27.119797
v 3.39424701 23.1620331 27.119797
v 3.39424701 23.1620331 18.1613687
v 3.39424701 -45.8551992 27.119797
v -3.56601887 -45.8551992 27.119797
v -3.56601887 -45.460825 27.5141712
v 3.39424701 -45.460825 27.5141712
v 3.39424701 -45.460825 27.5141712
v 3.39424701 22.767659 27.5141712
v 3.78862118 22.767659 27.119797
v 3.78862118 -45.460825 27.119797
v 3.39424701 22.767659 27.5141712
v -3.56601887 22.767659 27.5141712
v -3.56601887 23.1620331 27.119797
v 3.39424701 23.1620331 27.119797
v -3.96039304 -45.460825 27.119797
v -3.96039304 22.767659 27.119797
v -3.56601887 22.767659 27.5141712
v -3.56601887 -45.460825 27.5141712
v 4.97875479 -57.4340248 17.127232
v 4.97875479 -57.4340248 20.4434805
v 5.37312896 -57.0396506 20.4434805
v 5.37312896 -57.0396506 17.127232
v 4.97875479 -57.4340248 20.4434805
v -5.14877387 -57.4340248 20.4434805
v -5.14877387 -57.0396506 20.8361019
v 4.97875479 -57.0396506 20.8361019
v 4.97875479 -57.0396506 20.8361019
v 4.97875479 33.3123479 20.8361019
v 5.37312896 33.3123479 20.4434805
v 5.37312896 -57.0396506 20.4434805
v 4.97875479 33.3123479 20.8361019
v -5.14877387 33.3123479 20.8361019
v -5.14877387 33.706722 20.4434805
v 4.97875479 33.706722 20.4434805
v 4.97875479 33.706722 20.4434805
v 4.97875479 33.706722 17.127232
v 5.37312896 33.3123479 17.127232
v 5.37312896 33.3123479 20.4434805
v -5.14877387 -57.4340248 20.4434805
v -5.14877387 -57.4340248 17.127232
v -5.54314804 -57.0396506 17.127232
v -5.54314804 -57.0396506 20.4434805
v -5.54314804 -57.0396506 20.4434805
v -5.54314804 33.3123479 20.4434805
v -5.14877387 33.3123479 20.8361019
v -5.14877387 -57.0396506 20.8361019
v -5.54314804 33.3123479 20.4434805
v -5.54314804 33.3123479 17.127232
v -5.14877387 33.706722 17.127232
v -5.14877387 33.706722 20.4434805
v 27.3003328 42.7002059 21.5757726
v 27.3003328 34.9985165 21.5757726
v 26.9059586 34.9985165 21.9701468
v 26.9059586 42.7002059 21.9701468
v 26.9059586 43.09458 21.5757726
v 26.9059586 43.09458 -38.1587682
v 27.3003328 42.7002059 -38.1587682
v 27.3003328 42.7002059 21.5757726
v 26.9059586 42.7002059 21.9701468
v -26.9059586 42.7002059 21.9701468
v -26.9059586 43.09458 21.5757726
v 26.9059586 43.09458 21.5757726
v -26.9059586 42.7002059 21.9701468
v -26.9059586 34.9985165 21.9701468
v -27.3003328 34.9985165 21.5757726
v -27.3003328 42.7002059 21.5757726
v -27.3003328 42.7002059 21.5757726
v -27.3003328 42.7002059 -38.1587682
v -26.9059586 43.09458 -38.1587682
v -26.9059586 43.09458 21.5757726
v -26.9059586 34.9985165 21.9701468
v 26.9059586 34.9985165 21.9701468
v 26.9059586 34.6041424 21.5757726
v -26.9059586 34.6041424 21.5757726
v -26.9059586 34.6041424 21.5757726
v -26.9059586 34.6041424 -38.1587682
v -27.3003328 34.9985165 -38.1587682
v -27.3003328 34.9985165 21.5757726
v 27.3003328 34.9985165 21.5757726
v 27.3003328 34.9985165 -38.1587682
v 26.9059586 34.6041424 -38.1587682
v 26.9059586 34.6041424 21.5757726
v -4.21629806 57.0501673 28.8375156
v -4.21629806 45.5081499 2.21638283
v -4.21629806 57.0396506 2.21638283
v -4.21629806 45.5099027 33.6856887
v -4.21629806 44.9507678 33.8399329
v -4.21629806 44.9507678 2.21638283
v -4.21629806 25.4704366 33.8399329
v -4.21629806 25.4704366 2.21638283
v -4.21629806 24.9113017 33.6856887
v -4.21629806 24.9130544 2.21638283
v -4.21629806 13.3815537 2.21638283
v -4.21629806 13.3710371 28.8375156
v 3.64489371 57.1202782 29.2231259
v -3.82367667 45.4906222 34.1238823
v -3.81491279 57.1202782 29.2231259
v 3.6519048 45.4906222 34.1238823
v 3.6519048 44.9455095 34.234307
v -3.82367667 44.9455095 34.234307
v 3.6519048 25.4756949 34.234307
v -3.82367667 25.4756949 34.234307
v 3.65365758 24.9305822 34.1238823
v -3.82367667 24.9305822 34.1238823
v -3.81841834 13.2991734 29.2231259
v 3.64839926 13.2991734 29.2231259
v 3.64839926 57.4340248 28.7533825
v -3.81491279 57.4340248 28.7498769
v -3.82192389 57.4340248 2.21638283
v 3.6519048 57.4340248 2.21638283
v 3.64489371 12.9871796 28.7498769
v 3.6519048 12.9871796 2.21638283
v -3.82192389 12.9871796 2.21638283
v -3.81841834 12.9871796 28.7533825
v 4.04627897 57.0396506 2.21638283
v 4.04627897 45.5099027 33.6856887
v 4.04627897 57.0501673 28.8375156
v 4.04627897 45.5081499 2.21638283
v 4.04627897 44.9507678 2.21638283
v 4.04627897 44.9507678 33.8399329
v 4.04627897 25.4704366 33.8399329
v 4.04627897 25.4704366 2.21638283
v 4.04627897 24.9130544 2.21638283
v 4.04627897 24.9113017 33.6856887
v 4.04627897 13.3710371 28.8375156
v 4.04627897 13.3815537 2.21638283
v -3.05245607 52.7348375 13.0099656
v -3.05245607 17.6881197 13.0099656
v 2.88068421 17.6881197 13.0099656
v 2.88068421 52.7348375 13.0099656
v 3.27505838 52.7348375 13.4043398
v 3.27505838 17.6881197 13.4043398
v 3.27505838 17.6881197 37.764394
v 3.27505838 52.7348375 37.764394
v 2.88068421 52.7348375 38.1587682
v 2.88068421 17.6881197 38.1587682
v -3.05245607 17.6881197 38.1587682
v -3.05245607 52.7348375 38.1587682
v -3.44683024 52.7348375 37.764394
v -3.44683024 17.6881197 37.764394
v -3.44683024 17.6881197 13.4043398
v -3.44683024 52.7348375 13.4043398
v 2.88068421 53.1292117 13.4043398
v 2.88068421 53.1292117 37.764394
v -3.05245607 53.1292117 37.764394
v -3.05245607 53.1292117 13.4043398
v 2.88068421 17.2937455 37.764394
v 2.88068421 17.2937455 13.4043398
v -3.05245607 17.2937455 13.4043398
v -3.05245607 17.2937455 37.764394
v -8.47904463 55.6234092 27.973398
v -8.47904463 44.8648819 3.08050045
v -8.47904463 55.6111398 3.08050045
v -8.47904463 44.8648819 32.4920496
v -8.47904463 44.3074997 32.6462937
v -8.47904463 44.3074997 3.08050045
v -8.47904463 26.1137047 32.6462937
v -8.47904463 26.1154575 3.08050045
v -8.47904463 25.5563225 32.4920496
v -8.47904463 25.5563225 3.08050045
v -8.47904463 14.8100646 3.08050045
v -8.47904463 14.799548 27.973398
v 7.90588751 55.6917674 28.3590083
v -8.08642324 44.8473541 32.9284903
v -8.07765937 55.6917674 28.3590083
v 7.91465138 44.8473541 32.9284903
v 7.91465138 44.3004886 33.0389151
v -8.08467046 44.3004886 33.0389151
v 7.91465138 26.1207158 33.0389151
v -8.08467046 26.1207158 33.0389151
v 7.91465138 25.5756031 32.9284903
v -8.08642324 25.5738503 32.9284903
v -8.08116492 14.7276842 28.3590083
v 7.91114583 14.7276842 28.3590083
v 7.91114583 56.0055139 27.8892648
v -8.07765937 56.0055139 27.8857593
v -8.08467046 56.0055139 3.08050045
v 7.91465138 56.0055139 3.08050045
v 7.90588751 14.4156905 27.8857593
v 7.91465138 14.4156905 3.08050045
v -8.08467046 14.4156905 3.08050045
v -8.08116492 14.4156905 27.8892648
v 8.30902555 55.6111398 3.08050045
v 8.30902555 44.8648819 32.4920496
v 8.30902555 55.6234092 27.973398
v 8.30902555 44.8648819 3.08050045
v 8.30902555 44.3074997 3.08050045
v 8.30902555 44.3074997 32.6462937
v 8.30902555 26.1137047 32.6462937
v 8.30902555 26.1154575 3.08050045
v 8.30902555 25.5563225 3.08050045
v 8.30902555 25.5563225 32.4920496
v 8.30902555 14.799548 27.973398
v 8.30902555 14.8100646 3.08050045
v -13.8705777 41.8501104 8.58596385
v -13.8705777 18.569765 8.58596385
v 13.6988059 18.569765 8.58596385
v 13.6988059 41.8501104 8.58596385
v 14.09318 41.8501104 8.98033802
v 14.09318 18.569765 8.98033802
v 14.09318 18.569765 22.5152595
v 14.09318 41.8501104 22.5152595
v 13.6988059 41.8501104 22.9096337
v 13.6988059 18.569765 22.9096337
v -13.8705777 18.569765 22.9096337
v -13.8705777 41.8501104 22.9096337
v -14.2649519 41.8501104 22.5152595
v -14.2649519 18.569765 22.5152595
v -14.2649519 18.569765 8.98033802
v -14.2649519 41.8501104 8.98033802
v 13.6988059 42.2427318 8.98033802
v 13.6988059 42.2427318 22.5152595
v -13.8705777 42.2427318 22.5152595
v -13.8705777 42.2427318 8.98033802
v 13.6988059 18.1753909 22.5152595
v 13.6988059 18.1753909 8.98033802
v -13.8705777 18.1753909 8.98033802
v -13.8705777 18.1753909 22.5152595
v -20.9535378 42.1813847 11.819832
v -20.9535378 28.2398197 11.819832
v 20.7835187 28.2398197 11.819832
v 20.7835187 42.1813847 11.819832
v 21.1778929 42.1813847 12.2142062
v 21.1761401 28.2398197 12.2142062
v 21.1761401 28.2398197 25.7491277
v 21.1778929 42.1813847 25.7491277
v 20.7835187 42.1813847 26.1435019
v 20.7835187 28.2398197 26.1435019
v -20.9535378 28.2398197 26.1435019
v -20.9535378 42.1813847 26.1435019
v -21.347912 42.1813847 25.7491277
v -21.347912 28.2398197 25.7491277
v -21.347912 28.2398197 12.2142062
v -21.347912 42.1813847 12.2142062
v 20.7835187 42.5757589 12.2142062
v 20.7835187 42.5757589 25.7491277
v -20.9535378 42.5757589 25.7491277
v -20.9535378 42.5757589 12.2142062
v 20.7835187 27.8454455 25.7491277
v 20.7835187 27.8454455 12.2142062
v -20.9535378 27.8454455 12.2142062
v -20.9535378 27.8454455 25.7491277
v 11.2764721 15.9143123 17.127232
v 11.2764721 -39.6416151 17.127232
v 11.2764721 -39.6416151 20.4434805
v 11.2764721 15.9143123 20.4434805
v 10.8820979 15.9143123 20.8361019
v 10.8820979 -39.6416151 20.8361019
v -11.0538698 -39.6416151 20.8361019
v -11.0538698 15.9143123 20.8361019
v -11.4482439 15.9143123 20.4434805
v -11.4482439 -39.6416151 20.4434805
v -11.4482439 -39.6416151 17.127232
v -11.4482439 15.9143123 17.127232
v 10.8820979 16.3086865 20.4434805
v -11.0538698 16.3086865 20.4434805
v -11.0538698 16.3086865 17.127232
v 10.8820979 16.3086865 17.127232
v 10.8820979 -40.0359892 20.4434805
v 10.8820979 -40.0359892 17.127232
v -11.0538698 -40.0359892 17.127232
v -11.0538698 -40.0359892 20.4434805
v -3.56601887 22.767659 17.7669945
v -3.56601887 -45.460825 17.7669945
v 3.39424701 -45.460825 17.7669945
v 3.39424701 22.767659 17.7669945
v 3.78862118 22.767659 18.1613687
v 3.78862118 -45.460825 18.1613687
v 3.78862118 -45.460825 27.119797
v 3.78862118 22.767659 27.119797
v 3.39424701 22.767659 27.5141712
v 3.39424701 -45.460825 27.5141712
v -3.56601887 -45.460825 27.5141712
v -3.56601887 22.767659 27.5141712
v -3.96039304 22.767659 27.119797
v -3.96039304 -45.460825 27.119797
v -3.96039304 -45.460825 18.1613687
v -3.96039304 22.767659 18.1613687
v 3.39424701 23.1620331 18.1613687
v 3.39424701 23.1620331 27.119797
v -3.56601887 23.1620331 27.119797
v -3.56601887 23.1620331 18.1613687
v 3.39424701 -45.8551992 27.119797
v 3.39424701 -45.8551992 18.1613687
v -3.56601887 -45.8551992 18.1613687
v -3.56601887 -45.8551992 27.119797
v 5.37312896 33.3123479 17.127232
v 5.37312896 -57.0396506 17.127232
v 5.37312896 -57.0396506 20.4434805
v 5.37312896 33.3123479 20.4434805
v 4.97875479 33.3123479 20.8361019
v 4.97875479 -57.0396506 20.8361019
v -5.14877387 -57.0396506 20.8361019
v -5.14877387 33.3123479 20.8361019
v -5.54314804 33.3123479 20.4434805
v -5.54314804 -57.0396506 20.4434805
v -5.54314804 -57.0396506 17.127232
v -5.54314804 33.3123479 17.127232
v 4.97875479 33.706722 20.4434805
v -5.14877387 33.706722 20.4434805
v -5.14877387 33.706722 17.127232
v 4.97875479 33.706722 17.127232
v 4.97875479 -57.4340248 20.4434805
v 4.97875479 -57.4340248 17.127232
v -5.14877387 -57.4340248 17.127232
v -5.14877387 -57.4340248 20.4434805
v 26.9059586 43.09458 21.5757726
v -26.9059586 43.09458 21.5757726
v -26.9059586 43.09458 -38.1587682
v 26.9059586 43.09458 -38.1587682
v -27.3003328 34.9985165 21.5757726
v -27.3003328 34.9985165 -38.1587682
v -27.3003328 42.7002059 -38.1587682
v -27.3003328 42.7002059 21.5757726
v 26.9059586 34.6041424 -38.1587682
v -26.9059586 34.6041424 -38.1587682
v -26.9059586 34.6041424 21.5757726
v 26.9059586 34.6041424 21.5757726
v 26.9059586 34.9985165 21.9701468
v -26.9059586 34.9985165 21.9701468
v -26.9059586 42.7002059 21.9701468
v 26.9059586 42.7002059 21.9701468
v 27.3003328 34.9985165 21.5757726
v 27.3003328 42.7002059 21.5757726
v 27.3003328 42.7002059 -38.1587682
v 27.3003328 34.9985165 -38.1587682
vt 0.225800944 0.801083482
vt 0.225800944 0.801996629
vt 0.227627237 0.801996629
vt 0.225800944 0.894224465
vt 0.225800944 0.896050758
vt 0.227627237 0.894224465
vt 0.0696528259 0.826651595
vt 0.0696528259 0.828477889
vt 0.0705659727 0.828477889
vt 0.0696528259 0.920705724
vt 0.0696528259 0.921618871
vt 0.0705659727 0.920705724
vt 0.00481939689 0.826651595
vt 0.00390625 0.828477889
vt 0.00573254377 0.828477889
vt 0.00390625 0.920705724
vt 0.00481939689 0.921618871
vt 0.00573254377 0.920705724
vt 0.161880661 0.896050758
vt 0.161880661 0.894224465
vt 0.160054368 0.894224465
vt 0.161880661 0.801996629
vt 0.161880661 0.800170335
vt 0.160054368 0.801996629
vt 0.855872295 0.836696211
vt 0.856785442 0.837609358
vt 0.856785442 0.836696211
vt 0.917966284 0.837609358
vt 0.919792578 0.836696211
vt 0.917966284 0.836696211
vt 0.919792578 0.76364446
vt 0.917966284 0.762731313
vt 0.917966284 0.76364446
vt 0.856785442 0.762731313
vt 0.855872295 0.76364446
vt 0.856785442 0.76364446
vt 0.919792578 0.753599844
vt 0.917966284 0.753599844
vt 0.917966284 0.754512991
vt 0.856785442 0.753599844
vt 0.855872295 0.753599844
vt 0.856785442 0.754512991
vt 0.919792578 0.680548093
vt 0.917966284 0.679634946
vt 0.917966284 0.680548093
vt 0.856785442 0.679634946
vt 0.855872295 0.680548093
vt 0.856785442 0.680548093
vt 0.898790199 0.332639129
vt 0.899703346 0.334465423
vt 0.899703346 0.332639129
vt 0.937142368 0.334465423
vt 0.938055515 0.332639129
vt 0.936229222 0.332639129
vt 0.938055515 0.223061503
vt 0.937142368 0.221235209
vt 0.936229222 0.223061503
vt 0.899703346 0.221235209
vt 0.898790199 0.223061503
vt 0.899703346 0.223061503
vt 0.938055515 0.453174518
vt 0.936229222 0.453174518
vt 0.937142368 0.455000812
vt 0.899703346 0.453174518
vt 0.898790199 0.453174518
vt 0.899703346 0.455000812
vt 0.938055515 0.343596892
vt 0.937142368 0.341770598
vt 0.936229222 0.343596892
vt 0.899703346 0.341770598
vt 0.898790199 0.343596892
vt 0.899703346 0.343596892
vt 0.164620102 0.785559985
vt 0.165533249 0.784646838
vt 0.163706955 0.784646838
vt 0.164620102 0.635803896
vt 0.164620102 0.634890749
vt 0.163706955 0.635803896
vt 0.224887797 0.785559985
vt 0.225800944 0.784646838
vt 0.224887797 0.784646838
vt 0.225800944 0.635803896
vt 0.224887797 0.634890749
vt 0.22397465 0.635803896
vt 0.438564168 0.568231026
vt 0.437651021 0.57005732
vt 0.438564168 0.57005732
vt 0.437651021 0.749947257
vt 0.438564168 0.750860403
vt 0.438564168 0.74903411
vt 0.457740253 0.750860403
vt 0.4586534 0.749947257
vt 0.457740253 0.74903411
vt 0.4586534 0.57005732
vt 0.457740253 0.568231026
vt 0.457740253 0.57005732
vt 0.234932412 0.322594514
vt 0.234932412 0.32350766
vt 0.235845559 0.32350766
vt 0.234932412 0.503397597
vt 0.234932412 0.505223891
vt 0.235845559 0.503397597
vt 0.215756328 0.322594514
vt 0.214843181 0.32350766
vt 0.216669475 0.32350766
vt 0.214843181 0.503397597
vt 0.215756328 0.505223891
vt 0.216669475 0.503397597
vt 0.665024596 0.252282203
vt 0.665937743 0.251369056
vt 0.664111449 0.251369056
vt 0.665024596 0.0112114251
vt 0.665024596 0.0102982782
vt 0.664111449 0.0112114251
vt 0.694245296 0.25319535
vt 0.695158443 0.251369056
vt 0.69333215 0.251369056
vt 0.695158443 0.0112114251
vt 0.69333215 0.0102982782
vt 0.69333215 0.0112114251
vt 0.281502904 0.772775929
vt 0.282416051 0.774602223
vt 0.282416051 0.772775929
vt 0.422127524 0.773689076
vt 0.423040671 0.772775929
vt 0.422127524 0.772775929
vt 0.00481939689 0.692419003
vt 0.00573254377 0.691505856
vt 0.00390625 0.691505856
vt 0.144530871 0.692419003
vt 0.145444017 0.690592709
vt 0.144530871 0.690592709
vt 0.71068194 0.451348225
vt 0.730771172 0.451348225
vt 0.730771172 0.449521931
vt 0.71068194 0.449521931
vt 0.0742185603 0.817520126
vt 0.00390625 0.817520126
vt 0.00390625 0.81934642
vt 0.0742185603 0.81934642
vt 0.0751317072 0.818433273
vt 0.0870026167 0.787386279
vt 0.0879157636 0.787386279
vt 0.0888289105 0.785559985
vt 0.0870026167 0.785559985
vt 0.0879157636 0.73442376
vt 0.0888289105 0.73442376
vt 0.0888289105 0.733510613
vt 0.0870026167 0.733510613
vt 0.0742185603 0.703376765
vt 0.0760448541 0.702463618
vt 0.0742185603 0.701550472
vt 0.00481939689 0.701550472
vt 0.00481939689 0.700637325
vt 0.83121733 0.621193546
vt 0.762731313 0.620280399
vt 0.762731313 0.621193546
vt 0.832130476 0.622106692
vt 0.833043623 0.622106692
vt 0.84582768 0.65224054
vt 0.844914533 0.65224054
vt 0.844914533 0.654066833
vt 0.846740827 0.654066833
vt 0.846740827 0.705203059
vt 0.844914533 0.705203059
vt 0.844914533 0.706116206
vt 0.846740827 0.706116206
vt 0.83395677 0.7371632
vt 0.832130476 0.7371632
vt 0.832130476 0.738076347
vt 0.761818166 0.738989494
vt 0.761818166 0.7371632
vt 0.730771172 0.328073395
vt 0.71068194 0.328073395
vt 0.71068194 0.328986542
vt 0.730771172 0.328986542
vt 0.225800944 0.801083482
vt 0.161880661 0.800170335
vt 0.161880661 0.801996629
vt 0.225800944 0.801996629
vt 0.605670048 0.0705659727
vt 0.621193546 0.0705659727
vt 0.621193546 0.0696528259
vt 0.605670048 0.0696528259
vt 0.225800944 0.801996629
vt 0.225800944 0.894224465
vt 0.227627237 0.894224465
vt 0.227627237 0.801996629
vt 0.225800944 0.894224465
vt 0.161880661 0.894224465
vt 0.161880661 0.896050758
vt 0.225800944 0.896050758
vt 0.605670048 0.164620102
vt 0.621193546 0.164620102
vt 0.621193546 0.162793808
vt 0.605670048 0.162793808
vt 0.0696528259 0.826651595
vt 0.00481939689 0.826651595
vt 0.00573254377 0.828477889
vt 0.0696528259 0.828477889
vt 0.0696528259 0.828477889
vt 0.0696528259 0.920705724
vt 0.0705659727 0.920705724
vt 0.0705659727 0.828477889
vt 0.0696528259 0.920705724
vt 0.00573254377 0.920705724
vt 0.00481939689 0.921618871
vt 0.0696528259 0.921618871
vt 0.621193546 0.228540384
vt 0.605670048 0.228540384
vt 0.605670048 0.230366678
vt 0.621193546 0.230366678
vt 0.00390625 0.828477889
vt 0.00390625 0.920705724
vt 0.00573254377 0.920705724
vt 0.00573254377 0.828477889
vt 0.621193546 0.00390625
vt 0.605670048 0.00390625
vt 0.605670048 0.00573254377
vt 0.621193546 0.00573254377
vt 0.161880661 0.894224465
vt 0.161880661 0.801996629
vt 0.160054368 0.801996629
vt 0.160054368 0.894224465
vt 0.71068194 0.184709334
vt 0.752686697 0.184709334
vt 0.752686697 0.183796187
vt 0.71068194 0.183796187
vt 0.498831863 0.876874674
vt 0.433998434 0.876874674
vt 0.433998434 0.878700968
vt 0.498831863 0.878700968
vt 0.500658156 0.877787821
vt 0.510702772 0.849480267
vt 0.512529066 0.849480267
vt 0.512529066 0.847653973
vt 0.511615919 0.847653973
vt 0.511615919 0.800170335
vt 0.513442213 0.800170335
vt 0.512529066 0.798344042
vt 0.511615919 0.798344042
vt 0.49974501 0.770036488
vt 0.500658156 0.770036488
vt 0.49974501 0.769123341
vt 0.434911581 0.769123341
vt 0.434911581 0.768210194
vt 0.307984163 0.782820545
vt 0.243150734 0.781907398
vt 0.243150734 0.782820545
vt 0.307984163 0.783733691
vt 0.30889731 0.783733691
vt 0.32076822 0.812041245
vt 0.319855073 0.812041245
vt 0.319855073 0.813867539
vt 0.321681367 0.813867539
vt 0.321681367 0.861351177
vt 0.319855073 0.861351177
vt 0.319855073 0.862264324
vt 0.321681367 0.862264324
vt 0.309810457 0.891485024
vt 0.307984163 0.890571877
vt 0.307984163 0.892398171
vt 0.242237587 0.892398171
vt 0.242237587 0.891485024
vt 0.752686697 0.068739679
vt 0.71068194 0.068739679
vt 0.71068194 0.0705659727
vt 0.752686697 0.0705659727
vt 0.684200681 0.525313122
vt 0.648587952 0.525313122
vt 0.648587952 0.527139416
vt 0.684200681 0.527139416
vt 0.856785442 0.836696211
vt 0.856785442 0.76364446
vt 0.855872295 0.76364446
vt 0.855872295 0.836696211
vt 0.856785442 0.837609358
vt 0.917966284 0.837609358
vt 0.917966284 0.836696211
vt 0.856785442 0.836696211
vt 0.684200681 0.588320258
vt 0.648587952 0.588320258
vt 0.648587952 0.589233404
vt 0.684200681 0.589233404
vt 0.919792578 0.836696211
vt 0.919792578 0.76364446
vt 0.917966284 0.76364446
vt 0.917966284 0.836696211
vt 0.684200681 0.388341089
vt 0.648587952 0.388341089
vt 0.648587952 0.390167383
vt 0.684200681 0.390167383
vt 0.917966284 0.762731313
vt 0.856785442 0.762731313
vt 0.856785442 0.76364446
vt 0.917966284 0.76364446
vt 0.684200681 0.451348225
vt 0.648587952 0.451348225
vt 0.648587952 0.452261371
vt 0.684200681 0.452261371
vt 0.919792578 0.753599844
vt 0.919792578 0.680548093
vt 0.917966284 0.680548093
vt 0.917966284 0.753599844
vt 0.917966284 0.753599844
vt 0.856785442 0.753599844
vt 0.856785442 0.754512991
vt 0.917966284 0.754512991
vt 0.856785442 0.753599844
vt 0.856785442 0.680548093
vt 0.855872295 0.680548093
vt 0.855872295 0.753599844
vt 0.917966284 0.679634946
vt 0.856785442 0.679634946
vt 0.856785442 0.680548093
vt 0.917966284 0.680548093
vt 0.203885418 0.581928229
vt 0.16827269 0.581928229
vt 0.16827269 0.583754523
vt 0.203885418 0.583754523
vt 0.899703346 0.332639129
vt 0.899703346 0.223061503
vt 0.898790199 0.223061503
vt 0.898790199 0.332639129
vt 0.899703346 0.334465423
vt 0.937142368 0.334465423
vt 0.936229222 0.332639129
vt 0.899703346 0.332639129
vt 0.203885418 0.32076822
vt 0.16827269 0.32076822
vt 0.16827269 0.322594514
vt 0.203885418 0.322594514
vt 0.938055515 0.332639129
vt 0.938055515 0.223061503
vt 0.936229222 0.223061503
vt 0.936229222 0.332639129
vt 0.203885418 0.43217214
vt 0.16827269 0.43217214
vt 0.16827269 0.433998434
vt 0.203885418 0.433998434
vt 0.937142368 0.221235209
vt 0.899703346 0.221235209
vt 0.899703346 0.223061503
vt 0.936229222 0.223061503
vt 0.203885418 0.470524309
vt 0.16827269 0.470524309
vt 0.16827269 0.472350603
vt 0.203885418 0.472350603
vt 0.938055515 0.453174518
vt 0.938055515 0.343596892
vt 0.936229222 0.343596892
vt 0.936229222 0.453174518
vt 0.936229222 0.453174518
vt 0.899703346 0.453174518
vt 0.899703346 0.455000812
vt 0.937142368 0.455000812
vt 0.899703346 0.453174518
vt 0.899703346 0.343596892
vt 0.898790199 0.343596892
vt 0.898790199 0.453174518
vt 0.937142368 0.341770598
vt 0.899703346 0.341770598
vt 0.899703346 0.343596892
vt 0.936229222 0.343596892
vt 0.159141221 0.79286516
vt 0.164620102 0.785559985
vt 0.163706955 0.784646838
vt 0.15640178 0.79012572
vt 0.164620102 0.785559985
vt 0.224887797 0.785559985
vt 0.224887797 0.784646838
vt 0.165533249 0.784646838
vt 0.165533249 0.784646838
vt 0.164620102 0.635803896
vt 0.163706955 0.635803896
vt 0.163706955 0.784646838
vt 0.164620102 0.635803896
vt 0.22397465 0.635803896
vt 0.224887797 0.634890749
vt 0.164620102 0.634890749
vt 0.164620102 0.634890749
vt 0.159141221 0.627585574
vt 0.15640178 0.631238161
vt 0.163706955 0.635803896
vt 0.224887797 0.785559985
vt 0.230366678 0.791952013
vt 0.233106119 0.789212573
vt 0.225800944 0.784646838
vt 0.225800944 0.784646838
vt 0.225800944 0.635803896
vt 0.22397465 0.635803896
vt 0.224887797 0.784646838
vt 0.225800944 0.635803896
vt 0.233106119 0.631238161
vt 0.230366678 0.628498721
vt 0.224887797 0.634890749
vt 0.57005732 0.186535627
vt 0.593799139 0.186535627
vt 0.593799139 0.184709334
vt 0.57005732 0.184709334
vt 0.438564168 0.57005732
vt 0.457740253 0.57005732
vt 0.457740253 0.568231026
vt 0.438564168 0.568231026
vt 0.437651021 0.57005732
vt 0.437651021 0.749947257
vt 0.438564168 0.74903411
vt 0.438564168 0.57005732
vt 0.57005732 0.00573254377
vt 0.593799139 0.00573254377
vt 0.593799139 0.00390625
vt 0.57005732 0.00390625
vt 0.438564168 0.750860403
vt 0.457740253 0.750860403
vt 0.457740253 0.74903411
vt 0.438564168 0.74903411
vt 0.57005732 0.387427942
vt 0.593799139 0.387427942
vt 0.593799139 0.385601649
vt 0.57005732 0.385601649
vt 0.4586534 0.749947257
vt 0.4586534 0.57005732
vt 0.457740253 0.57005732
vt 0.457740253 0.74903411
vt 0.57005732 0.205711712
vt 0.593799139 0.205711712
vt 0.593799139 0.204798565
vt 0.57005732 0.204798565
vt 0.234932412 0.322594514
vt 0.215756328 0.322594514
vt 0.216669475 0.32350766
vt 0.234932412 0.32350766
vt 0.234932412 0.32350766
vt 0.234932412 0.503397597
vt 0.235845559 0.503397597
vt 0.235845559 0.32350766
vt 0.234932412 0.503397597
vt 0.216669475 0.503397597
vt 0.215756328 0.505223891
vt 0.234932412 0.505223891
vt 0.214843181 0.32350766
vt 0.214843181 0.503397597
vt 0.216669475 0.503397597
vt 0.216669475 0.32350766
vt 0.659545715 0.258674231
vt 0.665024596 0.252282203
vt 0.664111449 0.251369056
vt 0.655893127 0.256847938
vt 0.665024596 0.252282203
vt 0.694245296 0.25319535
vt 0.69333215 0.251369056
vt 0.665937743 0.251369056
vt 0.665937743 0.251369056
vt 0.665024596 0.0112114251
vt 0.664111449 0.0112114251
vt 0.664111449 0.251369056
vt 0.665024596 0.0112114251
vt 0.69333215 0.0112114251
vt 0.69333215 0.0102982782
vt 0.665024596 0.0102982782
vt 0.665024596 0.0102982782
vt 0.659545715 0.00390625
vt 0.655893127 0.00664569066
vt 0.664111449 0.0112114251
vt 0.694245296 0.25319535
vt 0.699724178 0.258674231
vt 0.702463618 0.256847938
vt 0.695158443 0.251369056
vt 0.695158443 0.251369056
vt 0.695158443 0.0112114251
vt 0.69333215 0.0112114251
vt 0.69333215 0.251369056
vt 0.695158443 0.0112114251
vt 0.702463618 0.00664569066
vt 0.699724178 0.00481939689
vt 0.69333215 0.0102982782
vt 0.539010326 0.305244723
vt 0.559099557 0.305244723
vt 0.559099557 0.304331576
vt 0.539010326 0.304331576
vt 0.282416051 0.772775929
vt 0.282416051 0.612975224
vt 0.281502904 0.612975224
vt 0.281502904 0.772775929
vt 0.282416051 0.774602223
vt 0.422127524 0.773689076
vt 0.422127524 0.772775929
vt 0.282416051 0.772775929
vt 0.539010326 0.162793808
vt 0.559099557 0.162793808
vt 0.559099557 0.160967515
vt 0.539010326 0.160967515
vt 0.423040671 0.772775929
vt 0.428519552 0.618454105
vt 0.426693259 0.618454105
vt 0.422127524 0.772775929
vt 0.00481939689 0.692419003
vt 0.144530871 0.692419003
vt 0.144530871 0.690592709
vt 0.00573254377 0.691505856
vt 0.00573254377 0.691505856
vt 0.00573254377 0.530792004
vt 0.00390625 0.530792004
vt 0.00390625 0.691505856
vt 0.145444017 0.690592709
vt 0.150922899 0.536270885
vt 0.150009752 0.536270885
vt 0.144530871 0.690592709
vt 0.0742185603 0.817520126
vt 0.00390625 0.787386279
vt 0.00390625 0.817520126
vt 0.0870026167 0.787386279
vt 0.0870026167 0.785559985
vt 0.00390625 0.785559985
vt 0.0879157636 0.73442376
vt 0.00390625 0.73442376
vt 0.0870026167 0.733510613
vt 0.00390625 0.732597466
vt 0.00481939689 0.701550472
vt 0.0742185603 0.703376765
vt 0.730771172 0.449521931
vt 0.71068194 0.416648643
vt 0.71068194 0.449521931
vt 0.730771172 0.416648643
vt 0.730771172 0.414822349
vt 0.71068194 0.414822349
vt 0.730771172 0.363686123
vt 0.71068194 0.363686123
vt 0.730771172 0.362772977
vt 0.71068194 0.362772977
vt 0.71068194 0.328986542
vt 0.730771172 0.328986542
vt 0.730771172 0.451348225
vt 0.71068194 0.451348225
vt 0.71068194 0.520747388
vt 0.730771172 0.520747388
vt 0.730771172 0.328073395
vt 0.730771172 0.257761085
vt 0.71068194 0.257761085
vt 0.71068194 0.328073395
vt 0.762731313 0.621193546
vt 0.844914533 0.65224054
vt 0.832130476 0.622106692
vt 0.761818166 0.65224054
vt 0.761818166 0.654066833
vt 0.844914533 0.654066833
vt 0.844914533 0.705203059
vt 0.761818166 0.705203059
vt 0.761818166 0.707029353
vt 0.844914533 0.706116206
vt 0.832130476 0.7371632
vt 0.761818166 0.7371632
vt 0.605670048 0.0705659727
vt 0.605670048 0.162793808
vt 0.621193546 0.162793808
vt 0.621193546 0.0705659727
vt 0.0696528259 0.920705724
vt 0.0696528259 0.828477889
vt 0.00573254377 0.828477889
vt 0.00573254377 0.920705724
vt 0.621193546 0.322594514
vt 0.621193546 0.230366678
vt 0.605670048 0.230366678
vt 0.605670048 0.322594514
vt 0.161880661 0.801996629
vt 0.161880661 0.894224465
vt 0.225800944 0.894224465
vt 0.225800944 0.801996629
vt 0.621193546 0.0696528259
vt 0.621193546 0.00573254377
vt 0.605670048 0.00573254377
vt 0.605670048 0.0696528259
vt 0.621193546 0.228540384
vt 0.621193546 0.164620102
vt 0.605670048 0.164620102
vt 0.605670048 0.228540384
vt 0.498831863 0.876874674
vt 0.433998434 0.84856712
vt 0.433998434 0.876874674
vt 0.510702772 0.849480267
vt 0.511615919 0.847653973
vt 0.433998434 0.847653973
vt 0.511615919 0.800170335
vt 0.433998434 0.799257188
vt 0.511615919 0.798344042
vt 0.433998434 0.797430895
vt 0.434911581 0.769123341
vt 0.49974501 0.770036488
vt 0.752686697 0.183796187
vt 0.71068194 0.152749193
vt 0.71068194 0.183796187
vt 0.752686697 0.152749193
vt 0.752686697 0.150922899
vt 0.71068194 0.150922899
vt 0.752686697 0.103439261
vt 0.71068194 0.103439261
vt 0.752686697 0.101612967
vt 0.71068194 0.101612967
vt 0.71068194 0.0705659727
vt 0.752686697 0.0705659727
vt 0.752686697 0.184709334
vt 0.71068194 0.184709334
vt 0.71068194 0.250455909
vt 0.752686697 0.250455909
vt 0.752686697 0.068739679
vt 0.752686697 0.00390625
vt 0.71068194 0.00390625
vt 0.71068194 0.068739679
vt 0.243150734 0.782820545
vt 0.319855073 0.812041245
vt 0.307984163 0.783733691
vt 0.242237587 0.812041245
vt 0.242237587 0.812954392
vt 0.319855073 0.813867539
vt 0.319855073 0.861351177
vt 0.242237587 0.861351177
vt 0.242237587 0.863177471
vt 0.319855073 0.862264324
vt 0.307984163 0.890571877
vt 0.242237587 0.891485024
vt 0.856785442 0.836696211
vt 0.917966284 0.836696211
vt 0.917966284 0.76364446
vt 0.856785442 0.76364446
vt 0.684200681 0.451348225
vt 0.684200681 0.390167383
vt 0.648587952 0.390167383
vt 0.648587952 0.451348225
vt 0.856785442 0.753599844
vt 0.917966284 0.753599844
vt 0.917966284 0.680548093
vt 0.856785442 0.680548093
vt 0.648587952 0.527139416
vt 0.648587952 0.588320258
vt 0.684200681 0.588320258
vt 0.684200681 0.527139416
vt 0.684200681 0.452261371
vt 0.648587952 0.452261371
vt 0.648587952 0.525313122
vt 0.684200681 0.525313122
vt 0.648587952 0.388341089
vt 0.684200681 0.388341089
vt 0.684200681 0.316202485
vt 0.648587952 0.316202485
vt 0.899703346 0.332639129
vt 0.936229222 0.332639129
vt 0.936229222 0.223061503
vt 0.899703346 0.223061503
vt 0.203885418 0.470524309
vt 0.203885418 0.433998434
vt 0.16827269 0.433998434
vt 0.16827269 0.470524309
vt 0.899703346 0.453174518
vt 0.936229222 0.453174518
vt 0.936229222 0.343596892
vt 0.899703346 0.343596892
vt 0.16827269 0.583754523
vt 0.16827269 0.620280399
vt 0.203885418 0.620280399
vt 0.203885418 0.583754523
vt 0.203885418 0.472350603
vt 0.16827269 0.472350603
vt 0.16827269 0.581928229
vt 0.203885418 0.581928229
vt 0.16827269 0.43217214
vt 0.203885418 0.43217214
vt 0.203885418 0.322594514
vt 0.16827269 0.322594514
vt 0.15640178 0.631238161
vt 0.15640178 0.79012572
vt 0.163706955 0.784646838
vt 0.163706955 0.635803896
vt 0.164620102 0.635803896
vt 0.165533249 0.784646838
vt 0.224887797 0.784646838
vt 0.22397465 0.635803896
vt 0.225800944 0.635803896
vt 0.225800944 0.784646838
vt 0.233106119 0.789212573
vt 0.233106119 0.631238161
vt 0.164620102 0.634890749
vt 0.224887797 0.634890749
vt 0.230366678 0.628498721
vt 0.159141221 0.627585574
vt 0.164620102 0.785559985
vt 0.159141221 0.79286516
vt 0.230366678 0.791952013
vt 0.224887797 0.785559985
vt 0.438564168 0.57005732
vt 0.438564168 0.74903411
vt 0.457740253 0.74903411
vt 0.457740253 0.57005732
vt 0.57005732 0.205711712
vt 0.57005732 0.385601649
vt 0.593799139 0.385601649
vt 0.593799139 0.205711712
vt 0.234932412 0.503397597
vt 0.234932412 0.32350766
vt 0.216669475 0.32350766
vt 0.216669475 0.503397597
vt 0.593799139 0.184709334
vt 0.593799139 0.00573254377
vt 0.57005732 0.00573254377
vt 0.57005732 0.184709334
vt 0.57005732 0.204798565
vt 0.593799139 0.204798565
vt 0.593799139 0.186535627
vt 0.57005732 0.186535627
vt 0.593799139 0.387427942
vt 0.57005732 0.387427942
vt 0.57005732 0.40569088
vt 0.593799139 0.40569088
vt 0.655893127 0.00664569066
vt 0.655893127 0.256847938
vt 0.664111449 0.251369056
vt 0.664111449 0.0112114251
vt 0.665024596 0.0112114251
vt 0.665937743 0.251369056
vt 0.69333215 0.251369056
vt 0.69333215 0.0112114251
vt 0.695158443 0.0112114251
vt 0.695158443 0.251369056
vt 0.702463618 0.256847938
vt 0.702463618 0.00664569066
vt 0.665024596 0.0102982782
vt 0.69333215 0.0102982782
vt 0.699724178 0.00481939689
vt 0.659545715 0.00390625
vt 0.665024596 0.252282203
vt 0.659545715 0.258674231
vt 0.699724178 0.258674231
vt 0.694245296 0.25319535
vt 0.282416051 0.772775929
vt 0.422127524 0.772775929
vt 0.426693259 0.618454105
vt 0.282416051 0.612975224
vt 0.559099557 0.160967515
vt 0.559099557 0.00390625
vt 0.539010326 0.00390625
vt 0.539010326 0.160967515
vt 0.150009752 0.536270885
vt 0.00573254377 0.530792004
vt 0.00573254377 0.691505856
vt 0.144530871 0.690592709
vt 0.559099557 0.304331576
vt 0.559099557 0.162793808
vt 0.539010326 0.162793808
vt 0.539010326 0.304331576
vt 0.559099557 0.305244723
vt 0.539010326 0.305244723
vt 0.539010326 0.463219134
vt 0.559099557 0.463219134
g item_29item_29_mobile_0
f 3/3/3 2/2/2 1/1/1
f 6/6/6 5/5/5 4/4/4
f 9/9/9 8/8/8 7/7/7
f 12/12/12 11/11/11 10/10/10
f 15/15/15 14/14/14 13/13/13
f 18/18/18 17/17/17 16/16/16
f 21/21/21 20/20/20 19/19/19
f 24/24/24 23/23/23 22/22/22
f 27/27/27 26/26/26 25/25/25
f 30/30/30 29/29/29 28/28/28
f 33/33/33 32/32/32 31/31/31
f 36/36/36 35/35/35 34/34/34
f 39/39/39 38/38/38 37/37/37
f 42/42/42 41/41/41 40/40/40
f 45/45/45 44/44/44 43/43/43
f 48/48/48 47/47/47 46/46/46
f 51/51/51 50/50/50 49/49/49
f 54/54/54 53/53/53 52/52/52
f 57/57/57 56/56/56 55/55/55
f 60/60/60 59/59/59 58/58/58
f 63/63/63 62/62/62 61/61/61
f 66/66/66 65/65/65 64/64/64
f 69/69/69 68/68/68 67/67/67
f 72/72/72 71/71/71 70/70/70
f 75/75/75 74/74/74 73/73/73
f 78/78/78 77/77/77 76/76/76
f 81/81/81 80/80/80 79/79/79
f 84/84/84 83/83/83 82/82/82
f 87/87/87 86/86/86 85/85/85
f 90/90/90 89/89/89 88/88/88
f 93/93/93 92/92/92 91/91/91
f 96/96/96 95/95/95 94/94/94
f 99/99/99 98/98/98 97/97/97
f 102/102/102 101/101/101 100/100/100
f 105/105/105 104/104/104 103/103/103
f 108/108/108 107/107/107 106/106/106
f 111/111/111 110/110/110 109/109/109
f 114/114/114 113/113/113 112/112/112
f 117/117/117 116/116/116 115/115/115
f 120/120/120 119/119/119 118/118/118
f 123/123/123 122/122/122 121/121/121
f 126/126/126 125/125/125 124/124/124
f 129/129/129 128/128/128 127/127/127
f 132/132/132 131/131/131 130/130/130
f 135/135/135 134/134/134 133/133/133
f 136/136/136 135/135/135 133/133/133
f 139/139/139 138/138/138 137/137/137
f 140/140/140 139/139/139 137/137/137
f 137/137/137 141/141/141 140/140/140
f 137/137/137 142/142/142 141/141/141
f 142/142/142 143/143/143 141/141/141
f 143/143/143 142/142/142 144/144/144
f 142/142/142 145/145/145 144/144/144
f 145/145/145 146/146/146 144/144/144
f 146/146/146 147/147/147 144/144/144
f 148/148/148 147/147/147 146/146/146
f 149/149/149 148/148/148 146/146/146
f 148/148/148 149/149/149 150/150/150
f 151/151/151 148/148/148 150/150/150
f 152/152/152 151/151/151 150/150/150
f 152/152/152 150/150/150 153/153/153
f 154/154/154 152/152/152 153/153/153
f 157/157/157 156/156/156 155/155/155
f 158/158/158 157/157/157 155/155/155
f 159/159/159 158/158/158 155/155/155
f 159/159/159 160/160/160 158/158/158
f 160/160/160 161/161/161 158/158/158
f 161/161/161 160/160/160 162/162/162
f 160/160/160 163/163/163 162/162/162
f 163/163/163 164/164/164 162/162/162
f 164/164/164 165/165/165 162/162/162
f 166/166/166 165/165/165 164/164/164
f 167/167/167 166/166/166 164/164/164
f 166/166/166 167/167/167 168/168/168
f 169/169/169 166/166/166 168/168/168
f 170/170/170 169/169/169 168/168/168
f 169/169/169 170/170/170 171/171/171
f 172/172/172 169/169/169 171/171/171
f 175/175/175 174/174/174 173/173/173
f 176/176/176 175/175/175 173/173/173
f 179/179/179 178/178/178 177/177/177
f 180/180/180 179/179/179 177/177/177
f 183/183/183 182/182/182 181/181/181
f 184/184/184 183/183/183 181/181/181
f 187/187/187 186/186/186 185/185/185
f 188/188/188 187/187/187 185/185/185
f 191/191/191 190/190/190 189/189/189
f 192/192/192 191/191/191 189/189/189
f 195/195/195 194/194/194 193/193/193
f 196/196/196 195/195/195 193/193/193
f 199/199/199 198/198/198 197/197/197
f 200/200/200 199/199/199 197/197/197
f 203/203/203 202/202/202 201/201/201
f 204/204/204 203/203/203 201/201/201
f 207/207/207 206/206/206 205/205/205
f 208/208/208 207/207/207 205/205/205
f 211/211/211 210/210/210 209/209/209
f 212/212/212 211/211/211 209/209/209
f 215/215/215 214/214/214 213/213/213
f 216/216/216 215/215/215 213/213/213
f 219/219/219 218/218/218 217/217/217
f 220/220/220 219/219/219 217/217/217
f 223/223/223 222/222/222 221/221/221
f 224/224/224 223/223/223 221/221/221
f 227/227/227 226/226/226 225/225/225
f 228/228/228 227/227/227 225/225/225
f 231/231/231 230/230/230 229/229/229
f 232/232/232 231/231/231 229/229/229
f 229/229/229 233/233/233 232/232/232
f 229/229/229 234/234/234 233/233/233
f 234/234/234 235/235/235 233/233/233
f 235/235/235 234/234/234 236/236/236
f 234/234/234 237/237/237 236/236/236
f 237/237/237 238/238/238 236/236/236
f 238/238/238 239/239/239 236/236/236
f 240/240/240 239/239/239 238/238/238
f 241/241/241 240/240/240 238/238/238
f 240/240/240 241/241/241 242/242/242
f 243/243/243 240/240/240 242/242/242
f 244/244/244 243/243/243 242/242/242
f 244/244/244 242/242/242 245/245/245
f 246/246/246 244/244/244 245/245/245
f 249/249/249 248/248/248 247/247/247
f 250/250/250 249/249/249 247/247/247
f 251/251/251 250/250/250 247/247/247
f 251/251/251 252/252/252 250/250/250
f 252/252/252 253/253/253 250/250/250
f 253/253/253 252/252/252 254/254/254
f 252/252/252 255/255/255 254/254/254
f 255/255/255 256/256/256 254/254/254
f 256/256/256 257/257/257 254/254/254
f 258/258/258 257/257/257 256/256/256
f 259/259/259 258/258/258 256/256/256
f 258/258/258 259/259/259 260/260/260
f 261/261/261 258/258/258 260/260/260
f 262/262/262 261/261/261 260/260/260
f 261/261/261 262/262/262 263/263/263
f 264/264/264 261/261/261 263/263/263
f 267/267/267 266/266/266 265/265/265
f 268/268/268 267/267/267 265/265/265
f 271/271/271 270/270/270 269/269/269
f 272/272/272 271/271/271 269/269/269
f 275/275/275 274/274/274 273/273/273
f 276/276/276 275/275/275 273/273/273
f 279/279/279 278/278/278 277/277/277
f 280/280/280 279/279/279 277/277/277
f 283/283/283 282/282/282 281/281/281
f 284/284/284 283/283/283 281/281/281
f 287/287/287 286/286/286 285/285/285
f 288/288/288 287/287/287 285/285/285
f 291/291/291 290/290/290 289/289/289
f 292/292/292 291/291/291 289/289/289
f 295/295/295 294/294/294 293/293/293
f 296/296/296 295/295/295 293/293/293
f 299/299/299 298/298/298 297/297/297
f 300/300/300 299/299/299 297/297/297
f 303/303/303 302/302/302 301/301/301
f 304/304/304 303/303/303 301/301/301
f 307/307/307 306/306/306 305/305/305
f 308/308/308 307/307/307 305/305/305
f 311/311/311 310/310/310 309/309/309
f 312/312/312 311/311/311 309/309/309
f 315/315/315 314/314/314 313/313/313
f 316/316/316 315/315/315 313/313/313
f 319/319/319 318/318/318 317/317/317
f 320/320/320 319/319/319 317/317/317
f 323/323/323 322/322/322 321/321/321
f 324/324/324 323/323/323 321/321/321
f 327/327/327 326/326/326 325/325/325
f 328/328/328 327/327/327 325/325/325
f 331/331/331 330/330/330 329/329/329
f 332/332/332 331/331/331 329/329/329
f 335/335/335 334/334/334 333/333/333
f 336/336/336 335/335/335 333/333/333
f 339/339/339 338/338/338 337/337/337
f 340/340/340 339/339/339 337/337/337
f 343/343/343 342/342/342 341/341/341
f 344/344/344 343/343/343 341/341/341
f 347/347/347 346/346/346 345/345/345
f 348/348/348 347/347/347 345/345/345
f 351/351/351 350/350/350 349/349/349
f 352/352/352 351/351/351 349/349/349
f 355/355/355 354/354/354 353/353/353
f 356/356/356 355/355/355 353/353/353
f 359/359/359 358/358/358 357/357/357
f 360/360/360 359/359/359 357/357/357
f 363/363/363 362/362/362 361/361/361
f 364/364/364 363/363/363 361/361/361
f 367/367/367 366/366/366 365/365/365
f 368/368/368 367/367/367 365/365/365
f 371/371/371 370/370/370 369/369/369
f 372/372/372 371/371/371 369/369/369
f 375/375/375 374/374/374 373/373/373
f 376/376/376 375/375/375 373/373/373
f 379/379/379 378/378/378 377/377/377
f 380/380/380 379/379/379 377/377/377
f 383/383/383 382/382/382 381/381/381
f 384/384/384 383/383/383 381/381/381
f 387/387/387 386/386/386 385/385/385
f 388/388/388 387/387/387 385/385/385
f 391/391/391 390/390/390 389/389/389
f 392/392/392 391/391/391 389/389/389
f 395/395/395 394/394/394 393/393/393
f 396/396/396 395/395/395 393/393/393
f 399/399/399 398/398/398 397/397/397
f 400/400/400 399/399/399 397/397/397
f 403/403/403 402/402/402 401/401/401
f 404/404/404 403/403/403 401/401/401
f 407/407/407 406/406/406 405/405/405
f 408/408/408 407/407/407 405/405/405
f 411/411/411 410/410/410 409/409/409
f 412/412/412 411/411/411 409/409/409
f 415/415/415 414/414/414 413/413/413
f 416/416/416 415/415/415 413/413/413
f 419/419/419 418/418/418 417/417/417
f 420/420/420 419/419/419 417/417/417
f 423/423/423 422/422/422 421/421/421
f 424/424/424 423/423/423 421/421/421
f 427/427/427 426/426/426 425/425/425
f 428/428/428 427/427/427 425/425/425
f 431/431/431 430/430/430 429/429/429
f 432/432/432 431/431/431 429/429/429
f 435/435/435 434/434/434 433/433/433
f 436/436/436 435/435/435 433/433/433
f 439/439/439 438/438/438 437/437/437
f 440/440/440 439/439/439 437/437/437
f 443/443/443 442/442/442 441/441/441
f 444/444/444 443/443/443 441/441/441
f 447/447/447 446/446/446 445/445/445
f 448/448/448 447/447/447 445/445/445
f 451/451/451 450/450/450 449/449/449
f 452/452/452 451/451/451 449/449/449
f 455/455/455 454/454/454 453/453/453
f 456/456/456 455/455/455 453/453/453
f 459/459/459 458/458/458 457/457/457
f 460/460/460 459/459/459 457/457/457
f 463/463/463 462/462/462 461/461/461
f 464/464/464 463/463/463 461/461/461
f 467/467/467 466/466/466 465/465/465
f 468/468/468 467/467/467 465/465/465
f 471/471/471 470/470/470 469/469/469
f 472/472/472 471/471/471 469/469/469
f 475/475/475 474/474/474 473/473/473
f 476/476/476 475/475/475 473/473/473
f 479/479/479 478/478/478 477/477/477
f 480/480/480 479/479/479 477/477/477
f 483/483/483 482/482/482 481/481/481
f 484/484/484 483/483/483 481/481/481
f 487/487/487 486/486/486 485/485/485
f 488/488/488 487/487/487 485/485/485
f 491/491/491 490/490/490 489/489/489
f 492/492/492 491/491/491 489/489/489
f 495/495/495 494/494/494 493/493/493
f 496/496/496 495/495/495 493/493/493
f 499/499/499 498/498/498 497/497/497
f 500/500/500 499/499/499 497/497/497
f 503/503/503 502/502/502 501/501/501
f 504/504/504 503/503/503 501/501/501
f 507/507/507 506/506/506 505/505/505
f 508/508/508 507/507/507 505/505/505
f 511/511/511 510/510/510 509/509/509
f 510/510/510 512/512/512 509/509/509
f 512/512/512 510/510/510 513/513/513
f 510/510/510 514/514/514 513/513/513
f 513/513/513 514/514/514 515/515/515
f 514/514/514 516/516/516 515/515/515
f 515/515/515 516/516/516 517/517/517
f 516/516/516 518/518/518 517/517/517
f 518/518/518 519/519/519 517/517/517
f 519/519/519 520/520/520 517/517/517
f 523/523/523 522/522/522 521/521/521
f 522/522/522 524/524/524 521/521/521
f 525/525/525 524/524/524 522/522/522
f 526/526/526 525/525/525 522/522/522
f 525/525/525 526/526/526 527/527/527
f 526/526/526 528/528/528 527/527/527
f 527/527/527 528/528/528 529/529/529
f 528/528/528 530/530/530 529/529/529
f 530/530/530 531/531/531 529/529/529
f 531/531/531 532/532/532 529/529/529
f 535/535/535 534/534/534 533/533/533
f 536/536/536 535/535/535 533/533/533
f 539/539/539 538/538/538 537/537/537
f 540/540/540 539/539/539 537/537/537
f 543/543/543 542/542/542 541/541/541
f 542/542/542 544/544/544 541/541/541
f 545/545/545 544/544/544 542/542/542
f 546/546/546 545/545/545 542/542/542
f 545/545/545 546/546/546 547/547/547
f 548/548/548 545/545/545 547/547/547
f 549/549/549 548/548/548 547/547/547
f 550/550/550 549/549/549 547/547/547
f 550/550/550 551/551/551 549/549/549
f 551/551/551 552/552/552 549/549/549
f 555/555/555 554/554/554 553/553/553
f 556/556/556 555/555/555 553/553/553
f 559/559/559 558/558/558 557/557/557
f 560/560/560 559/559/559 557/557/557
f 563/563/563 562/562/562 561/561/561
f 564/564/564 563/563/563 561/561/561
f 567/567/567 566/566/566 565/565/565
f 568/568/568 567/567/567 565/565/565
f 571/571/571 570/570/570 569/569/569
f 572/572/572 571/571/571 569/569/569
f 575/575/575 574/574/574 573/573/573
f 576/576/576 575/575/575 573/573/573
f 579/579/579 578/578/578 577/577/577
f 578/578/578 580/580/580 577/577/577
f 580/580/580 578/578/578 581/581/581
f 578/578/578 582/582/582 581/581/581
f 581/581/581 582/582/582 583/583/583
f 582/582/582 584/584/584 583/583/583
f 583/583/583 584/584/584 585/585/585
f 584/584/584 586/586/586 585/585/585
f 586/586/586 587/587/587 585/585/585
f 587/587/587 588/588/588 585/585/585
f 591/591/591 590/590/590 589/589/589
f 590/590/590 592/592/592 589/589/589
f 593/593/593 592/592/592 590/590/590
f 594/594/594 593/593/593 590/590/590
f 593/593/593 594/594/594 595/595/595
f 594/594/594 596/596/596 595/595/595
f 595/595/595 596/596/596 597/597/597
f 596/596/596 598/598/598 597/597/597
f 598/598/598 599/599/599 597/597/597
f 599/599/599 600/600/600 597/597/597
f 603/603/603 602/602/602 601/601/601
f 604/604/604 603/603/603 601/601/601
f 607/607/607 606/606/606 605/605/605
f 608/608/608 607/607/607 605/605/605
f 611/611/611 610/610/610 609/609/609
f 610/610/610 612/612/612 609/609/609
f 613/613/613 612/612/612 610/610/610
f 614/614/614 613/613/613 610/610/610
f 613/613/613 614/614/614 615/615/615
f 616/616/616 613/613/613 615/615/615
f 617/617/617 616/616/616 615/615/615
f 618/618/618 617/617/617 615/615/615
f 618/618/618 619/619/619 617/617/617
f 619/619/619 620/620/620 617/617/617
f 623/623/623 622/622/622 621/621/621
f 624/624/624 623/623/623 621/621/621
f 627/627/627 626/626/626 625/625/625
f 628/628/628 627/627/627 625/625/625
f 631/631/631 630/630/630 629/629/629
f 632/632/632 631/631/631 629/629/629
f 635/635/635 634/634/634 633/633/633
f 636/636/636 635/635/635 633/633/633
f 639/639/639 638/638/638 637/637/637
f 640/640/640 639/639/639 637/637/637
f 643/643/643 642/642/642 641/641/641
f 644/644/644 643/643/643 641/641/641
f 647/647/647 646/646/646 645/645/645
f 648/648/648 647/647/647 645/645/645
f 651/651/651 650/650/650 649/649/649
f 652/652/652 651/651/651 649/649/649
f 655/655/655 654/654/654 653/653/653
f 656/656/656 655/655/655 653/653/653
f 659/659/659 658/658/658 657/657/657
f 660/660/660 659/659/659 657/657/657
f 663/663/663 662/662/662 661/661/661
f 664/664/664 663/663/663 661/661/661
f 667/667/667 666/666/666 665/665/665
f 668/668/668 667/667/667 665/665/665
f 671/671/671 670/670/670 669/669/669
f 672/672/672 671/671/671 669/669/669
f 675/675/675 674/674/674 673/673/673
f 676/676/676 675/675/675 673/673/673
f 679/679/679 678/678/678 677/677/677
f 680/680/680 679/679/679 677/677/677
f 683/683/683 682/682/682 681/681/681
f 684/684/684 683/683/683 681/681/681
f 687/687/687 686/686/686 685/685/685
f 688/688/688 687/687/687 685/685/685
f 691/691/691 690/690/690 689/689/689
f 692/692/692 691/691/691 689/689/689
f 695/695/695 694/694/694 693/693/693
f 696/696/696 695/695/695 693/693/693
f 699/699/699 698/698/698 697/697/697
f 700/700/700 699/699/699 697/697/697
f 703/703/703 702/702/702 701/701/701
f 704/704/704 703/703/703 701/701/701
f 707/707/707 706/706/706 705/705/705
f 708/708/708 707/707/707 705/705/705
f 711/711/711 710/710/710 709/709/709
f 712/712/712 711/711/711 709/709/709
f 715/715/715 714/714/714 713/713/713
f 716/716/716 715/715/715 713/713/713
f 719/719/719 718/718/718 717/717/717
f 720/720/720 719/719/719 717/717/717
f 723/723/723 722/722/722 721/721/721
f 724/724/724 723/723/723 721/721/721
f 727/727/727 726/726/726 725/725/725
f 728/728/728 727/727/727 725/725/725
f 731/731/731 730/730/730 729/729/729
f 732/732/732 731/731/731 729/729/729
f 735/735/735 734/734/734 733/733/733
f 736/736/736 735/735/735 733/733/733
f 739/739/739 738/738/738 737/737/737
f 740/740/740 739/739/739 737/737/737
f 743/743/743 742/742/742 741/741/741
f 744/744/744 743/743/743 741/741/741
f 747/747/747 746/746/746 745/745/745
f 748/748/748 747/747/747 745/745/745
f 751/751/751 750/750/750 749/749/749
f 752/752/752 751/751/751 749/749/749
