g item_17item_17_mobile
v 103.26932 19.8484664 8.86755814
v 103.410101 19.9434116 -26.1017564
v 103.223484 20.3755762 -25.9249618
v 103.085977 20.2806309 8.69076355
v 102.902635 20.2806309 9.1229281
v 103.085977 19.8484664 9.30627064
v 102.647265 19.8484664 9.48961317
v 103.085977 23.1093443 8.69076355
v 103.223484 23.2010156 -25.9249618
v 103.410101 23.6331802 -26.1017564
v 102.902635 23.1093443 9.1229281
v 103.272594 23.5415089 8.86755814
v 103.855361 23.8132487 -26.5371949
v 102.47047 20.2806309 9.30299666
v 38.4642816 19.9401377 9.60092828
v 102.47047 23.1093443 9.30299666
v 38.2645692 20.3624803 9.41758575
v 38.2645692 23.2141115 9.41758575
v 102.647265 23.5382349 9.48961317
v 37.8422266 20.3624803 9.59438033
v 38.0321171 19.9368637 9.78427082
v 37.8520485 19.9303157 10.2295313
v 37.8422266 23.2141115 9.59438033
v 37.665432 20.3559323 10.0199969
v 37.8520485 19.6618499 26.0755646
v 103.089251 23.5382349 9.30627064
v 103.531238 23.7183035 9.74498313
v 38.4708296 23.6397281 9.60092828
v 37.665432 23.2075636 10.016723
v 103.717854 23.7183035 9.29972269
v 106.533472 23.7183035 12.5507787
v 106.644787 23.8132487 -29.8078948
v 107.096595 23.6331802 -30.2597032
v 106.350129 23.7183035 12.9731213
v 106.975458 23.5447829 12.9960392
v 107.279938 23.2010156 -30.4495937
v 37.665432 22.9227278 25.902044
v 37.8487746 23.6299062 10.2164354
v 37.665432 20.0972884 25.8954961
v 37.4853635 20.0907405 26.3309346
v 37.668706 19.6553019 26.5175511
v 37.2299935 19.652028 26.7008936
v 37.4853635 22.9161799 26.3309346
v 37.0531989 20.0841925 26.5110032
v -37.2299935 19.652028 26.6976197
v 38.0321171 23.6364541 9.78427082
v 37.8520485 23.3548924 26.0755646
v 38.4904734 23.8099747 10.2459011
v 37.0531989 22.9096319 26.5110032
v 38.297309 23.8034268 10.6846136
v -37.0531989 20.0841925 26.5110032
v -37.0531989 22.9096319 26.5110032
v 37.2299935 23.3450705 26.6976197
v -37.4853635 20.0907405 26.3309346
v -37.67198 19.6553019 26.5142771
v -37.8553225 19.6651239 26.0755646
v -37.4853635 22.9161799 26.3309346
v -37.665432 20.0972884 25.8954961
v -37.8520485 19.9303157 10.2197093
v 37.67198 23.3483444 26.5142771
v 38.1139664 23.525139 26.9529896
v -37.2299935 23.3450705 26.7008936
v -37.665432 22.9227278 25.902044
v 38.297309 23.5349609 26.5044552
v 37.665432 23.521865 27.1396061
v -37.665432 20.3559323 10.0199969
v -37.665432 23.2075636 10.016723
v -37.8520485 23.3548924 26.0755646
v -37.8422266 20.3624803 9.59438033
v -38.0321171 19.9368637 9.78427082
v -38.4741036 19.9401377 9.60420225
v -37.8422266 23.2141115 9.59438033
v -38.2645692 20.3624803 9.41758575
v -102.647265 19.8484664 9.48961317
v -37.668706 23.3483444 26.5175511
v -38.1074185 23.525139 26.9595376
v -37.8487746 23.6299062 10.2229833
v -38.2645692 23.2141115 9.41758575
v -37.665432 23.521865 27.1461541
v -38.290761 23.5349609 26.5044552
v -102.47047 20.2806309 9.30299666
v -102.47047 23.1093443 9.30299666
v -38.4642816 23.6397281 9.60092828
v -102.902635 20.2806309 9.1229281
v -103.089251 19.8484664 9.30627064
v -103.272594 19.8484664 8.86755814
v -102.902635 23.1093443 9.1229281
v -103.085977 20.2806309 8.69076355
v -103.410101 19.9434116 -26.1017564
v -38.0321171 23.6364541 9.78427082
v -38.4904734 23.8099747 10.2426272
v -102.647265 23.5382349 9.48961317
v -103.085977 23.1093443 8.69076355
v -38.3071309 23.8034268 10.7075314
v -38.9357339 23.8132487 10.0527367
v -103.223484 20.3755762 -25.9249618
v -103.223484 23.2010156 -25.9249618
v -103.26932 23.5415089 8.86755814
v -103.043416 20.3755762 -26.3571264
v -103.226758 19.9434116 -26.5437429
v -102.79132 19.9434116 -26.7238115
v -102.611251 20.3788502 -26.5371949
v -102.611251 23.2010156 -26.5371949
v -103.043416 23.2010156 -26.3571264
v -102.79132 23.6364541 -26.7238115
v -103.413375 23.6331802 -26.1017564
v -103.230032 23.6364541 -26.5404689
v -103.675293 23.8132487 -26.9824554
v -103.226758 23.8165227 -27.1690719
v -106.032554 23.8165227 -30.4266759
v -106.47454 23.8132487 -30.2531553
v -106.49091 23.6364541 -30.8522925
v -103.861909 23.8132487 -26.5371949
v -103.711306 23.7183035 9.29972269
v -106.657883 23.8132487 -29.8308126
v -106.923075 23.6364541 -30.6820458
v -107.099869 23.6364541 -30.2727991
v -107.106417 23.2075636 -30.8588404
v -106.684075 23.2010156 -31.0258131
v -106.684075 20.3755762 -31.0258131
v -107.106417 20.3755762 -30.8555664
v -106.49091 19.9434116 -30.8522925
v -107.279938 23.2141115 -30.4626896
v -103.52469 23.7183035 9.75153108
v -106.52365 23.7183035 12.5278609
v -106.972184 23.5415089 12.9796693
v -107.155527 23.1060704 13.1695598
v -107.279938 20.3755762 -30.4495937
v -103.085977 23.5382349 9.30627064
v -106.343581 23.7183035 12.9665734
v -103.079429 23.7183035 9.93814759
v -105.911417 23.7183035 13.1499159
v -41.669502 23.8132487 13.2317653
v -41.2438854 23.8099747 13.4052859
v -42.0852967 23.6331802 13.6541079
v -106.366499 23.5382349 13.5722585
v -106.792116 23.5382349 13.3987379
v -106.978732 23.1060704 13.5788065
v -41.0703648 23.8034268 13.8276285
v -107.155527 20.267535 13.1826557
v -41.040899 23.5349609 29.8046208
v -40.8673784 23.525139 30.2433333
v -41.4796115 23.3548924 30.2564292
v -41.4927074 23.6233582 14.2434232
v -40.4548577 23.521865 30.4266759
v -41.6662281 23.6299062 13.8276285
v -41.8397487 23.1911937 14.0011491
v 40.4548577 23.521865 30.4266759
v 40.8772004 23.525139 30.2498813
v 40.8935702 23.3450705 30.8522925
v -40.8935702 23.3450705 30.8522925
v -41.3093649 23.3483444 30.6787719
v -41.4894335 22.9129059 30.8555664
v -41.6596801 22.9194539 30.4495937
v -41.669502 23.1846457 14.4136698
v 41.0539949 23.5349609 29.8275387
v 41.0703648 23.8034268 13.8276285
v -41.669502 20.3690282 14.4103958
v -41.6596801 20.0809185 30.4626896
v -41.8397487 20.3755762 14.0011491
v -41.0801867 22.9096319 31.0258131
v -41.4894335 20.0809185 30.8621144
v -41.4861595 19.6585759 30.2760731
v 41.0801867 22.9096319 31.0258131
v -41.4959814 19.9335897 14.2434232
v -41.0801867 20.0841925 31.0258131
v 41.4894335 22.9194539 30.8588404
v 41.0801867 20.0841925 31.0258131
v 41.3093649 23.3483444 30.6820458
v 41.4828855 23.3581663 30.2727991
v 41.4927074 23.6233582 14.2434232
v 41.2438854 23.8099747 13.4118338
v 38.9586517 23.8132487 10.0625586
v 103.079429 23.7183035 9.93159964
v 41.669502 23.8132487 13.2383132
v 105.911417 23.7183035 13.1499159
v 106.366499 23.5382349 13.5722585
v 42.0787488 23.6331802 13.6541079
v 41.6662281 23.6299062 13.8276285
v 41.8397487 23.1944677 14.0011491
v 106.79539 23.5415089 13.4020119
v 106.978732 23.1126183 13.5820805
v 106.55639 23.1060704 13.7457792
v 41.669502 23.1846457 14.4136698
v 107.155527 23.1191663 13.1826557
v 107.155527 20.2806309 13.1728337
v 107.279938 20.3624803 -30.4626896
v 107.099869 19.9401377 -30.2727991
v 106.978732 20.2806309 13.5788065
v 106.972184 19.8484664 12.9796693
v 106.654609 19.7633431 -29.8308126
v 106.55639 20.2806309 13.7457792
v 41.6596801 22.9325497 30.4594156
v 41.4894335 20.0874665 30.8588404
v 41.6596801 20.0940144 30.4528677
v 40.8968442 19.652028 30.8522925
v 41.669502 20.3690282 14.4103958
v -40.8968442 19.652028 30.8522925
v -41.3126389 19.652028 30.6820458
v -40.8837483 19.4752334 30.2531553
v -41.0638169 19.4850553 29.8340866
v 41.4828855 19.6618499 30.2629772
v 41.4959814 19.9335897 14.2434232
v 41.8397487 20.3788502 14.0011491
v 41.3093649 19.6553019 30.6787719
v 40.8772004 19.4752334 30.2498813
v 40.4581317 19.4719594 30.4266759
v -40.4581317 19.4719594 30.4266759
v 42.2489954 23.2010156 13.8309025
v 42.2522694 20.3821241 13.8309025
v 106.366499 19.8484664 13.5722585
v 42.0820227 19.9434116 13.6541079
v 106.79539 19.8484664 13.3987379
v 106.343581 19.6683978 12.9665734
v 41.6662281 19.9434116 13.8276285
v 41.2504334 19.7600691 13.4118338
v 105.914691 19.6683978 13.1499159
v 106.52365 19.6683978 12.5311349
v 103.71458 19.6683978 9.30299666
v 103.861909 19.7633431 -26.533921
v 103.410101 19.9434116 -26.1017564
v 103.26932 19.8484664 8.86755814
v 103.527964 19.6683978 9.75153108
v 103.085977 19.8484664 9.30627064
v 102.647265 19.8484664 9.48961317
v 103.082703 19.6683978 9.93814759
v 38.9390078 19.7633431 10.0527367
v 38.4642816 19.9401377 9.60092828
v 41.669502 19.7633431 13.2350392
v 38.5002954 19.7600691 10.2491751
v 38.0321171 19.9368637 9.78427082
v 37.8520485 19.9303157 10.2295313
v 38.3202268 19.7535212 10.7173534
v 41.0769128 19.7535212 13.8374504
v 38.3005829 19.4850553 26.5175511
v 37.8520485 19.6618499 26.0755646
v 41.050721 19.4850553 29.8144428
v 38.1139664 19.4752334 26.9628115
v 37.668706 19.6553019 26.5175511
v 37.2299935 19.652028 26.7008936
v 37.665432 19.4719594 27.1494281
v -37.665432 19.4719594 27.1428801
v -37.2299935 19.652028 26.6976197
v -38.1205144 19.4752334 26.9595376
v -37.67198 19.6553019 26.5142771
v -37.8553225 19.6651239 26.0755646
v -38.3071309 19.4850553 26.5175511
v -38.3071309 19.7535212 10.6944355
v -37.8520485 19.9303157 10.2197093
v -41.0769128 19.7535212 13.8374504
v -38.5002954 19.7600691 10.2491751
v -38.0321171 19.9368637 9.78427082
v -38.4741036 19.9401377 9.60420225
v -41.2504334 19.7600691 13.4151078
v -38.9619257 19.7633431 10.0658326
v -103.082703 19.6683978 9.93159964
v -102.647265 19.8484664 9.48961317
v -41.6662281 19.9401377 13.8276285
v -41.669502 19.7633431 13.2415872
v -42.0787488 19.9434116 13.6573819
v -103.531238 19.6683978 9.7482571
v -103.089251 19.8484664 9.30627064
v -103.272594 19.8484664 8.86755814
v -105.914691 19.6683978 13.1499159
v -106.366499 19.8484664 13.5722585
v -42.2457214 20.3755762 13.8309025
v -106.353403 19.6683978 12.9731213
v -103.721128 19.6683978 9.30299666
v -106.55639 20.2806309 13.7457792
v -42.2522694 23.1944677 13.8309025
v -106.55639 23.1060704 13.7457792
v -106.978732 20.274083 13.5820805
v -103.855361 19.7633431 -26.533921
v -103.410101 19.9434116 -26.1017564
v -106.79539 19.8451924 13.4020119
v -106.975458 19.8451924 12.9960392
v -106.536746 19.6683978 12.5507787
v -107.096595 19.9434116 -30.2597032
v -103.672019 19.7633431 -26.9857294
v -103.226758 19.9434116 -26.5437429
v -102.79132 19.9434116 -26.7238115
v -103.226758 19.7633431 -27.1723459
v -106.644787 19.7633431 -29.8078948
v -106.464718 19.7633431 -30.2466073
v -106.032554 19.7633431 -30.4266759
v -106.919801 19.9434116 -30.6787719
v -102.611251 20.3788502 -26.5371949
v -70.4804718 19.9434116 -26.7238115
v -102.79132 19.9434116 -26.7238115
v -70.4804718 20.3788502 -26.5371949
v -102.611251 23.2010156 -26.5371949
v -70.3134991 20.3853981 -26.5830306
v -70.3134991 19.9794253 -26.7598252
v -70.4804718 23.2010156 -26.5371949
v -102.79132 23.6364541 -26.7238115
v -70.1923621 20.4115899 -26.7041676
v -70.1890881 20.0743706 -26.8514964
v -70.3134991 23.1944677 -26.5830306
v -70.4804718 23.6364541 -26.7238115
v -103.226758 23.8165227 -27.1690719
v -70.1923621 23.1682759 -26.7041676
v -70.3134991 23.6004404 -26.7565512
v -70.4804718 23.8165227 -27.1690719
v -106.032554 23.8165227 -30.4266759
v -70.1923621 23.5054952 -26.8482225
v -70.3134991 23.7706871 -27.1756198
v -70.4804718 23.8165227 -30.4266759
v -106.49091 23.6364541 -30.8522925
v -70.1923621 23.64955 -27.2018116
v -70.3134991 23.7706871 -30.4201279
v -70.4804718 23.6364541 -30.8522925
v -106.684075 23.2010156 -31.0258131
v -70.1923621 23.64955 -30.3939361
v -70.3134991 23.6004404 -30.8162788
v -70.4804718 23.2010156 -31.0258131
v -106.684075 20.3755762 -31.0258131
v -70.1923621 23.5087691 -30.7246075
v -70.3134991 23.1944677 -30.9799774
v -70.4804718 20.3755762 -31.0258131
v -106.49091 19.9434116 -30.8522925
v -70.1923621 23.1715498 -30.8588404
v -70.3134991 20.3853981 -30.9799774
v -70.4804718 19.9434116 -30.8522925
v -106.032554 19.7633431 -30.4266759
v -70.1923621 20.4083159 -30.8588404
v -70.3134991 19.9794253 -30.8162788
v -70.1923621 20.0710966 -30.7246075
v -70.1465265 23.1388101 -30.6918677
v -70.1465265 20.4410557 -30.6918677
v -70.1465265 23.3810842 -30.5936485
v -70.1465265 20.1987816 -30.5936485
v -70.1465265 21.7899329 -28.783141
v -70.1465265 23.4825774 -30.3611964
v -70.1465265 20.0972884 -30.3611964
v -70.1465265 23.4825774 -27.2345514
v -70.1465265 23.3778102 -26.9759074
v -70.1465265 23.1322622 -26.8711403
v -70.1465265 20.4476036 -26.8711403
v -70.1890881 20.0743706 -26.8514964
v -70.1923621 19.9303157 -30.3939361
v -70.1465265 20.0972884 -27.2378253
v -70.1465265 20.2020556 -26.9759074
v -70.1923621 19.9303157 -27.2050856
v -70.3134991 19.8091787 -30.4168539
v -70.3134991 19.8091787 -27.1821678
v -70.3134991 19.9794253 -26.7598252
v -70.4804718 19.7633431 -30.4266759
v -70.4804718 19.7633431 -27.1723459
v -70.4804718 19.9434116 -26.7238115
v -103.226758 19.7633431 -27.1723459
v -102.79132 19.9434116 -26.7238115
v 70.1923621 19.9303157 -27.2018116
v 70.1923621 20.0743706 -26.8482225
v 70.3134991 19.9794253 -26.7565512
v 70.3134991 19.8091787 -27.1756198
v 70.4804718 19.9434116 -26.7238115
v 70.4804718 19.7633431 -27.1690719
v 103.226758 19.7633431 -27.1657979
v 102.79132 19.9434116 -26.7238115
v 103.675293 19.7633431 -26.9824554
v 103.230032 19.9434116 -26.5404689
v 103.410101 19.9434116 -26.1017564
v 103.861909 19.7633431 -26.533921
v 106.032554 19.7633431 -30.4266759
v 106.47454 19.7633431 -30.2531553
v 106.654609 19.7633431 -29.8308126
v 107.099869 19.9401377 -30.2727991
v 70.3134991 19.8091787 -30.4168539
v 70.4804718 19.7633431 -30.4266759
v 106.49091 19.9434116 -30.8522925
v 106.923075 19.9434116 -30.6820458
v 107.106417 20.3690282 -30.8588404
v 107.279938 20.3624803 -30.4626896
v 70.1923621 19.9303157 -30.3939361
v 107.106417 23.2010156 -30.8555664
v 107.279938 23.2010156 -30.4495937
v 107.096595 23.6331802 -30.2597032
v 70.4804718 19.9434116 -30.8522925
v 70.3134991 19.9794253 -30.8162788
v 106.684075 20.3755762 -31.0258131
v 106.684075 23.2010156 -31.0258131
v 70.4804718 20.3755762 -31.0258131
v 70.1923621 20.0710966 -30.7246075
v 70.3134991 20.3853981 -30.9799774
v 70.1923621 20.4083159 -30.8588404
v 106.919801 23.6364541 -30.6787719
v 106.49091 23.6364541 -30.8522925
v 106.467992 23.8132487 -30.2466073
v 106.644787 23.8132487 -29.8078948
v 70.4804718 23.2010156 -31.0258131
v 70.3134991 23.1944677 -30.9799774
v 70.1923621 23.1715498 -30.8588404
v 103.672019 23.8132487 -26.9857294
v 103.855361 23.8132487 -26.5371949
v 103.410101 23.6331802 -26.1017564
v 106.032554 23.8165227 -30.4266759
v 70.4804718 23.6364541 -30.8522925
v 70.3134991 23.6004404 -30.8162788
v 103.226758 23.8165227 -27.1723459
v 70.4804718 23.8165227 -30.4266759
v 70.1923621 23.5087691 -30.7246075
v 70.3134991 23.7706871 -30.4201279
v 70.1923621 23.64955 -30.3939361
v 103.226758 23.6364541 -26.5437429
v 102.79132 23.6364541 -26.7238115
v 103.043416 23.2010156 -26.3571264
v 103.223484 23.2010156 -25.9249618
v 70.4804718 23.8165227 -27.1723459
v 70.3134991 23.7706871 -27.1821678
v 70.1923621 23.64955 -27.2050856
v 103.043416 20.3755762 -26.3571264
v 103.223484 20.3755762 -25.9249618
v 103.410101 19.9434116 -26.1017564
v 103.230032 19.9434116 -26.5404689
v 102.79132 19.9434116 -26.7238115
v 102.611251 20.3788502 -26.5371949
v 102.611251 23.2010156 -26.5371949
v 70.4804718 20.3788502 -26.5371949
v 70.4804718 19.9434116 -26.7238115
v 70.3134991 19.9794253 -26.7565512
v 70.4804718 23.6364541 -26.7238115
v 70.3134991 20.3853981 -26.5830306
v 70.1923621 20.0743706 -26.8482225
v 70.4804718 23.2010156 -26.5371949
v 70.3134991 23.6004404 -26.7598252
v 70.3134991 23.1944677 -26.5830306
v 70.1890881 23.5054952 -26.8514964
v 70.1923621 20.4115899 -26.7041676
v 70.1923621 23.1682759 -26.7041676
v 70.1465265 23.3778102 -26.9759074
v 70.1465265 23.1322622 -26.8711403
v 70.1465265 20.4476036 -26.8711403
v 70.1465265 20.2020556 -26.9759074
v 70.1465265 21.7899329 -28.783141
v 70.1465265 23.4825774 -27.2378253
v 70.1465265 20.0972884 -27.2345514
v 70.1465265 23.4825774 -30.3611964
v 70.1465265 20.0972884 -30.3611964
v 70.1465265 23.3810842 -30.5936485
v 70.1465265 20.1987816 -30.5936485
v 70.1465265 23.1388101 -30.6918677
v 70.1465265 20.4410557 -30.6918677
v 103.082703 21.5476588 9.29972269
v 39.1616381 21.9372617 -26.5371949
v 103.223484 21.6426041 -26.5371949
v 39.1616381 21.6426041 9.41758575
v -39.1616381 21.6426041 9.41758575
v -39.1616381 21.9372617 -26.5371949
v -103.223484 21.6426041 -26.5371949
v -103.082703 21.5476588 9.29972269
v -39.1616381 21.3512204 30.6329362
v 39.1616381 21.3512204 30.6329362
v -103.082703 20.7848229 9.29972269
v -103.082703 -23.6200843 9.29972269
v -103.223484 -23.521865 -26.5371949
v -103.223484 20.8797682 -26.5371949
v -39.1616381 20.8797682 9.41758575
v -39.1616381 -23.521865 9.41758575
v -103.082703 -23.6200843 9.29972269
v -103.082703 20.7848229 9.29972269
v -39.1616381 20.5883845 30.6329362
v -39.1616381 -23.8132487 30.6329362
v -39.1616381 -23.521865 9.41758575
v -39.1616381 20.8797682 9.41758575
v 39.1616381 20.5883845 30.6329362
v 39.1616381 -23.8132487 30.6329362
v -39.1616381 -23.8132487 30.6329362
v -39.1616381 20.5883845 30.6329362
v 39.1616381 20.8797682 9.41758575
v 39.1616381 -23.521865 9.41758575
v 39.1616381 -23.8132487 30.6329362
v 39.1616381 20.5883845 30.6329362
v 103.082703 20.7848229 9.29972269
v 103.082703 -23.6200843 9.29972269
v 39.1616381 -23.521865 9.41758575
v 39.1616381 20.8797682 9.41758575
v 103.223484 20.8797682 -26.5371949
v 103.223484 -23.521865 -26.5371949
v 103.082703 -23.6200843 9.29972269
v 103.082703 20.7848229 9.29972269
v 39.1616381 21.1744258 -26.5371949
v 103.223484 -23.521865 -26.5371949
v 103.223484 20.8797682 -26.5371949
v 39.1616381 -23.2304814 -26.5371949
v -39.1616381 21.1744258 -26.5371949
v -39.1616381 -23.2304814 -26.5371949
v -103.223484 20.8797682 -26.5371949
v -103.223484 -23.521865 -26.5371949
vt 0.218800263 0.0339634491
vt 0.120344473 0.0339634491
vt 0.121273301 0.0348922773
vt 0.217871435 0.0348922773
vt 0.219729091 0.0348922773
vt 0.220657919 0.0339634491
vt 0.221586748 0.0339634491
vt 0.217871435 0.0432517312
vt 0.121273301 0.0432517312
vt 0.120344473 0.0441805594
vt 0.220657919 0.0432517312
vt 0.217871435 0.0451093876
vt 0.119415644 0.0460382158
vt 0.222515576 0.0348922773
vt 0.387846997 0.0265328234
vt 0.222515576 0.0432517312
vt 0.388775826 0.0274616516
vt 0.387846997 0.0348922773
vt 0.222515576 0.0451093876
vt 0.389704654 0.0283904798
vt 0.389704654 0.0265328234
vt 0.390633482 0.0265328234
vt 0.388775826 0.0348922773
vt 0.390633482 0.0283904798
vt 0.425928954 0.0321057927
vt 0.220657919 0.0451093876
vt 0.220657919 0.046967044
vt 0.387846997 0.0367499337
vt 0.388775826 0.0348922773
vt 0.218800263 0.0460382158
vt 0.221586748 0.0543976697
vt 0.110127362 0.0543976697
vt 0.109198534 0.0553264979
vt 0.221586748 0.0553264979
vt 0.221586748 0.0562553261
vt 0.108269706 0.0571841543
vt 0.424071298 0.0404652465
vt 0.388775826 0.0367499337
vt 0.425928954 0.0330346209
vt 0.426857782 0.0330346209
vt 0.426857782 0.0321057927
vt 0.42778661 0.0321057927
vt 0.425928954 0.0404652465
vt 0.428715439 0.0330346209
vt 0.616338737 0.0311769644
vt 0.388775826 0.0358211055
vt 0.424071298 0.042322903
vt 0.387846997 0.0376787619
vt 0.42778661 0.0404652465
vt 0.388775826 0.0376787619
vt 0.616338737 0.0330346209
vt 0.616338737 0.0404652465
vt 0.42778661 0.0413940748
vt 0.617267565 0.0330346209
vt 0.617267565 0.0311769644
vt 0.618196394 0.0311769644
vt 0.619125222 0.0404652465
vt 0.619125222 0.0330346209
vt 0.654420694 0.0265328234
vt 0.425928954 0.042322903
vt 0.425000126 0.0432517312
vt 0.617267565 0.0413940748
vt 0.620982878 0.0404652465
vt 0.424071298 0.0432517312
vt 0.426857782 0.0432517312
vt 0.654420694 0.0283904798
vt 0.65627835 0.0358211055
vt 0.620982878 0.0413940748
vt 0.655349522 0.0283904798
vt 0.655349522 0.0265328234
vt 0.657207178 0.0265328234
vt 0.65627835 0.0348922773
vt 0.65627835 0.0283904798
vt 0.824396256 0.0367499337
vt 0.619125222 0.0413940748
vt 0.619125222 0.0432517312
vt 0.65627835 0.0367499337
vt 0.65627835 0.0348922773
vt 0.617267565 0.042322903
vt 0.620982878 0.0432517312
vt 0.824396256 0.0376787619
vt 0.823467428 0.0460382158
vt 0.657207178 0.0367499337
vt 0.826253913 0.0376787619
vt 0.826253913 0.0367499337
vt 0.828111569 0.0367499337
vt 0.826253913 0.0460382158
vt 0.828111569 0.0386075901
vt 0.926567359 0.0386075901
vt 0.65627835 0.0358211055
vt 0.65627835 0.0376787619
vt 0.823467428 0.0478958722
vt 0.828111569 0.046967044
vt 0.65627835 0.0376787619
vt 0.657207178 0.0376787619
vt 0.926567359 0.0395364183
vt 0.927496188 0.0478958722
vt 0.828111569 0.0478958722
vt 0.927496188 0.0395364183
vt 0.927496188 0.0386075901
vt 0.929353844 0.0386075901
vt 0.929353844 0.0395364183
vt 0.929353844 0.046967044
vt 0.928425016 0.0478958722
vt 0.930282672 0.0478958722
vt 0.927496188 0.0497535287
vt 0.929353844 0.0488247004
vt 0.930282672 0.0506823569
vt 0.9312115 0.0497535287
vt 0.938642126 0.0581129825
vt 0.938642126 0.0590418108
vt 0.940499783 0.059970639
vt 0.928425016 0.0506823569
vt 0.828111569 0.0497535287
vt 0.93678447 0.059970639
vt 0.939570954 0.0608994672
vt 0.937713298 0.0608994672
vt 0.939570954 0.0627571236
vt 0.940499783 0.0618282954
vt 0.940499783 0.0711165775
vt 0.939570954 0.0711165775
vt 0.939570954 0.0729742339
vt 0.938642126 0.0627571236
vt 0.826253913 0.0497535287
vt 0.825325084 0.0571841543
vt 0.824396256 0.0590418108
vt 0.824396256 0.059970639
vt 0.937713298 0.0711165775
vt 0.826253913 0.0478958722
vt 0.824396256 0.0581129825
vt 0.823467428 0.0488247004
vt 0.823467428 0.0581129825
vt 0.659064835 0.0478958722
vt 0.657207178 0.046967044
vt 0.659993663 0.0488247004
vt 0.824396256 0.0590418108
vt 0.824396256 0.0590418108
vt 0.824396256 0.059970639
vt 0.65627835 0.046967044
vt 0.824396256 0.0664724364
vt 0.620982878 0.0506823569
vt 0.62005405 0.0506823569
vt 0.620982878 0.0516111851
vt 0.655349522 0.0488247004
vt 0.619125222 0.0506823569
vt 0.657207178 0.0488247004
vt 0.657207178 0.0506823569
vt 0.425000126 0.0506823569
vt 0.424071298 0.0506823569
vt 0.424071298 0.0516111851
vt 0.62005405 0.0516111851
vt 0.62005405 0.0516111851
vt 0.62005405 0.0525400133
vt 0.620982878 0.0525400133
vt 0.655349522 0.0506823569
vt 0.424071298 0.0506823569
vt 0.388775826 0.046967044
vt 0.655349522 0.059970639
vt 0.620982878 0.0590418108
vt 0.657207178 0.059970639
vt 0.62005405 0.0525400133
vt 0.62005405 0.0590418108
vt 0.62005405 0.059970639
vt 0.424071298 0.0525400133
vt 0.655349522 0.0618282954
vt 0.62005405 0.0590418108
vt 0.424071298 0.0525400133
vt 0.424071298 0.0590418108
vt 0.424071298 0.0516111851
vt 0.424071298 0.0516111851
vt 0.388775826 0.0488247004
vt 0.387846997 0.046967044
vt 0.387846997 0.0376787619
vt 0.222515576 0.0460382158
vt 0.385989341 0.0478958722
vt 0.222515576 0.0543976697
vt 0.221586748 0.0562553261
vt 0.385060513 0.0488247004
vt 0.386918169 0.0488247004
vt 0.386918169 0.0506823569
vt 0.221586748 0.0562553261
vt 0.221586748 0.0571841543
vt 0.221586748 0.0571841543
vt 0.388775826 0.0497535287
vt 0.221586748 0.0571841543
vt 0.221586748 0.0627571236
vt 0.108269706 0.0655436082
vt 0.109198534 0.0674012647
vt 0.221586748 0.0627571236
vt 0.221586748 0.06461478
vt 0.110127362 0.0683300929
vt 0.221586748 0.0636859518
vt 0.424071298 0.0525400133
vt 0.424071298 0.0590418108
vt 0.424071298 0.0590418108
vt 0.425000126 0.059970639
vt 0.388775826 0.059970639
vt 0.62005405 0.059970639
vt 0.62005405 0.059970639
vt 0.62005405 0.0608994672
vt 0.620982878 0.0608994672
vt 0.424071298 0.059970639
vt 0.389704654 0.0608994672
vt 0.386918169 0.059970639
vt 0.424071298 0.059970639
vt 0.424071298 0.0608994672
vt 0.425000126 0.0608994672
vt 0.619125222 0.0608994672
vt 0.385060513 0.0506823569
vt 0.385060513 0.0590418108
vt 0.222515576 0.06461478
vt 0.385060513 0.0608994672
vt 0.221586748 0.0636859518
vt 0.222515576 0.0655436082
vt 0.387846997 0.0608994672
vt 0.387846997 0.0627571236
vt 0.222515576 0.0655436082
vt 0.221586748 0.0655436082
vt 0.218800263 0.0739030621
vt 0.119415644 0.0766895468
vt 0.121273301 0.077618375
vt 0.217871435 0.0757607185
vt 0.220657919 0.0739030621
vt 0.220657919 0.0757607185
vt 0.224373232 0.0757607185
vt 0.223444404 0.0748318903
vt 0.388775826 0.0720454057
vt 0.388775826 0.0729742339
vt 0.385989341 0.0618282954
vt 0.388775826 0.0720454057
vt 0.388775826 0.0729742339
vt 0.388775826 0.0729742339
vt 0.389704654 0.0711165775
vt 0.388775826 0.0627571236
vt 0.423142469 0.0683300929
vt 0.423142469 0.0692589211
vt 0.424071298 0.0608994672
vt 0.425000126 0.0683300929
vt 0.425000126 0.0701877493
vt 0.42778661 0.0701877493
vt 0.426857782 0.0692589211
vt 0.617267565 0.0692589211
vt 0.616338737 0.0701877493
vt 0.619125222 0.0683300929
vt 0.619125222 0.0692589211
vt 0.621911706 0.0692589211
vt 0.620982878 0.0674012647
vt 0.654420694 0.0720454057
vt 0.655349522 0.0729742339
vt 0.655349522 0.0627571236
vt 0.655349522 0.0720454057
vt 0.655349522 0.0739030621
vt 0.655349522 0.0729742339
vt 0.657207178 0.0627571236
vt 0.65627835 0.0720454057
vt 0.8225386 0.077618375
vt 0.821609772 0.0785472032
vt 0.657207178 0.0618282954
vt 0.658136007 0.0627571236
vt 0.659064835 0.0608994672
vt 0.824396256 0.0766895468
vt 0.824396256 0.0785472032
vt 0.828111569 0.0785472032
vt 0.823467428 0.0683300929
vt 0.823467428 0.0674012647
vt 0.659064835 0.059970639
vt 0.823467428 0.0683300929
vt 0.827182741 0.0766895468
vt 0.824396256 0.0664724364
vt 0.659993663 0.0506823569
vt 0.824396256 0.059970639
vt 0.824396256 0.0664724364
vt 0.927496188 0.0813336878
vt 0.925638531 0.0831913442
vt 0.824396256 0.0674012647
vt 0.824396256 0.0674012647
vt 0.824396256 0.0683300929
vt 0.937713298 0.0720454057
vt 0.928425016 0.082262516
vt 0.926567359 0.0831913442
vt 0.927496188 0.0850490007
vt 0.929353844 0.0831913442
vt 0.93678447 0.0739030621
vt 0.937713298 0.0739030621
vt 0.938642126 0.0748318903
vt 0.938642126 0.0720454057
vt 0.201152527 0.130561583
vt 0.295893004 0.153782288
vt 0.201152527 0.128703927
vt 0.294964176 0.154711116
vt 0.198366042 0.137992209
vt 0.294964176 0.157497601
vt 0.295893004 0.155639945
vt 0.291248863 0.158426429
vt 0.197437214 0.139849865
vt 0.294964176 0.160284086
vt 0.295893004 0.156568773
vt 0.291248863 0.159355257
vt 0.290320035 0.159355257
vt 0.195579558 0.140778693
vt 0.291248863 0.159355257
vt 0.291248863 0.159355257
vt 0.290320035 0.160284086
vt 0.186291276 0.150066975
vt 0.291248863 0.159355257
vt 0.290320035 0.160284086
vt 0.286604722 0.163999399
vt 0.185362447 0.150995804
vt 0.291248863 0.160284086
vt 0.287533551 0.164928227
vt 0.286604722 0.164928227
vt 0.184433619 0.15285346
vt 0.287533551 0.164928227
vt 0.286604722 0.164928227
vt 0.286604722 0.165857055
vt 0.183504791 0.161212914
vt 0.287533551 0.165857055
vt 0.286604722 0.165857055
vt 0.285675894 0.171430024
vt 0.184433619 0.16307057
vt 0.287533551 0.165857055
vt 0.286604722 0.171430024
vt 0.285675894 0.171430024
vt 0.185362447 0.164928227
vt 0.286604722 0.171430024
vt 0.286604722 0.171430024
vt 0.286604722 0.171430024
vt 0.287533551 0.165857055
vt 0.287533551 0.171430024
vt 0.287533551 0.165857055
vt 0.287533551 0.171430024
vt 0.291248863 0.166785883
vt 0.287533551 0.164928227
vt 0.287533551 0.171430024
vt 0.291248863 0.161212914
vt 0.291248863 0.160284086
vt 0.291248863 0.160284086
vt 0.294964176 0.16307057
vt 0.294035348 0.170501196
vt 0.286604722 0.172358852
vt 0.29310652 0.170501196
vt 0.294035348 0.166785883
vt 0.29310652 0.172358852
vt 0.286604722 0.172358852
vt 0.292177692 0.175145337
vt 0.29310652 0.174216509
vt 0.285675894 0.172358852
vt 0.292177692 0.177002993
vt 0.292177692 0.177931822
vt 0.192793073 0.175145337
vt 0.193721901 0.177002993
vt 0.421284813 0.192793073
vt 0.420355985 0.195579558
vt 0.421284813 0.197437214
vt 0.422213641 0.194650729
vt 0.421284813 0.198366042
vt 0.422213641 0.197437214
vt 0.520669431 0.207654324
vt 0.518811775 0.208583153
vt 0.522527088 0.207654324
vt 0.520669431 0.209511981
vt 0.52159826 0.210440809
vt 0.522527088 0.209511981
vt 0.529028885 0.197437214
vt 0.530886542 0.197437214
vt 0.53181537 0.199294871
vt 0.532744198 0.196508386
vt 0.426857782 0.191864245
vt 0.426857782 0.192793073
vt 0.530886542 0.196508386
vt 0.53181537 0.196508386
vt 0.532744198 0.194650729
vt 0.533673026 0.194650729
vt 0.426857782 0.190935417
vt 0.53181537 0.185362447
vt 0.533673026 0.185362447
vt 0.532744198 0.182575963
vt 0.42778661 0.191864245
vt 0.426857782 0.191864245
vt 0.530886542 0.194650729
vt 0.530886542 0.185362447
vt 0.428715439 0.191864245
vt 0.426857782 0.191864245
vt 0.42778661 0.190935417
vt 0.42778661 0.190935417
vt 0.53181537 0.183504791
vt 0.529957714 0.184433619
vt 0.530886542 0.182575963
vt 0.530886542 0.180718306
vt 0.430573095 0.186291276
vt 0.430573095 0.186291276
vt 0.430573095 0.186291276
vt 0.522527088 0.171430024
vt 0.522527088 0.170501196
vt 0.52159826 0.169572368
vt 0.529028885 0.182575963
vt 0.431501923 0.185362447
vt 0.430573095 0.185362447
vt 0.520669431 0.172358852
vt 0.431501923 0.185362447
vt 0.430573095 0.185362447
vt 0.431501923 0.185362447
vt 0.430573095 0.185362447
vt 0.520669431 0.170501196
vt 0.518811775 0.170501196
vt 0.519740603 0.16864354
vt 0.52159826 0.16864354
vt 0.429644267 0.179789478
vt 0.428715439 0.179789478
vt 0.428715439 0.179789478
vt 0.517882947 0.159355257
vt 0.519740603 0.159355257
vt 0.518811775 0.157497601
vt 0.517882947 0.158426429
vt 0.516954119 0.158426429
vt 0.51602529 0.160284086
vt 0.518811775 0.16864354
vt 0.422213641 0.176074165
vt 0.421284813 0.176074165
vt 0.421284813 0.17886065
vt 0.429644267 0.17886065
vt 0.422213641 0.17886065
vt 0.421284813 0.182575963
vt 0.429644267 0.177931822
vt 0.429644267 0.17886065
vt 0.429644267 0.177931822
vt 0.428715439 0.17886065
vt 0.422213641 0.180718306
vt 0.428715439 0.177931822
vt 0.428715439 0.17886065
vt 0.42778661 0.17886065
vt 0.422213641 0.182575963
vt 0.421284813 0.185362447
vt 0.425928954 0.185362447
vt 0.428715439 0.179789478
vt 0.421284813 0.190006588
vt 0.430573095 0.185362447
vt 0.426857782 0.190935417
vt 0.430573095 0.185362447
vt 0.426857782 0.190935417
vt 0.429644267 0.186291276
vt 0.42778661 0.190935417
vt 0.971151114 0.437074892
vt 0.652563037 0.602406314
vt 0.971151114 0.602406314
vt 0.652563037 0.437074892
vt 0.291248863 0.437074892
vt 0.291248863 0.602406314
vt 0.0209598541 0.602406314
vt 0.0209598541 0.437074892
vt 0.291248863 0.330259648
vt 0.652563037 0.330259648
vt 0.154711116 0.966506972
vt 0.154711116 0.856905244
vt 0.0571841543 0.856905244
vt 0.0571841543 0.966506972
vt 0.32933082 0.966506972
vt 0.32933082 0.856905244
vt 0.154711116 0.856905244
vt 0.154711116 0.966506972
vt 0.392491138 0.966506972
vt 0.392491138 0.856905244
vt 0.32933082 0.856905244
vt 0.32933082 0.966506972
vt 0.607050455 0.966506972
vt 0.607050455 0.856905244
vt 0.392491138 0.856905244
vt 0.392491138 0.966506972
vt 0.670210773 0.966506972
vt 0.670210773 0.856905244
vt 0.607050455 0.856905244
vt 0.607050455 0.966506972
vt 0.844830477 0.966506972
vt 0.844830477 0.856905244
vt 0.670210773 0.856905244
vt 0.670210773 0.966506972
vt 0.943286267 0.966506972
vt 0.943286267 0.856905244
vt 0.844830477 0.856905244
vt 0.844830477 0.966506972
vt 0.66649546 0.646990068
vt 0.952574549 0.826253913
vt 0.952574549 0.646990068
vt 0.66649546 0.826253913
vt 0.318184881 0.646990068
vt 0.318184881 0.826253913
vt 0.0330346209 0.646990068
vt 0.0330346209 0.826253913
g item_17item_17_mobile_0
f 3/3/3 2/2/2 1/1/1
f 4/4/4 3/3/3 1/1/1
f 4/4/4 1/1/1 5/5/5
f 1/1/1 6/6/6 5/5/5
f 5/5/5 6/6/6 7/7/7
f 3/3/3 4/4/4 8/8/8
f 9/9/9 3/3/3 8/8/8
f 10/10/10 9/9/9 8/8/8
f 8/8/8 4/4/4 11/11/11
f 4/4/4 5/5/5 11/11/11
f 12/12/12 10/10/10 8/8/8
f 8/8/8 11/11/11 12/12/12
f 13/13/13 10/10/10 12/12/12
f 14/14/14 5/5/5 7/7/7
f 7/7/7 15/15/15 14/14/14
f 11/11/11 5/5/5 16/16/16
f 5/5/5 14/14/14 16/16/16
f 15/15/15 17/17/17 14/14/14
f 16/16/16 14/14/14 18/18/18
f 14/14/14 17/17/17 18/18/18
f 16/16/16 19/19/19 11/11/11
f 16/16/16 18/18/18 19/19/19
f 17/17/17 15/15/15 20/20/20
f 15/15/15 21/21/21 20/20/20
f 20/20/20 21/21/21 22/22/22
f 18/18/18 17/17/17 23/23/23
f 17/17/17 20/20/20 23/23/23
f 24/24/24 20/20/20 22/22/22
f 22/22/22 25/25/25 24/24/24
f 19/19/19 26/26/26 11/11/11
f 11/11/11 26/26/26 12/12/12
f 12/12/12 26/26/26 27/27/27
f 27/27/27 26/26/26 19/19/19
f 18/18/18 28/28/28 19/19/19
f 18/18/18 23/23/23 28/28/28
f 20/20/20 24/24/24 29/29/29
f 23/23/23 20/20/20 29/29/29
f 30/30/30 12/12/12 27/27/27
f 30/30/30 13/13/13 12/12/12
f 30/30/30 31/31/31 13/13/13
f 31/31/31 32/32/32 13/13/13
f 33/33/33 32/32/32 31/31/31
f 31/31/31 30/30/30 34/34/34
f 30/30/30 27/27/27 34/34/34
f 35/35/35 33/33/33 31/31/31
f 31/31/31 34/34/34 35/35/35
f 36/36/36 33/33/33 35/35/35
f 29/29/29 24/24/24 37/37/37
f 29/29/29 38/38/38 23/23/23
f 29/29/29 37/37/37 38/38/38
f 24/24/24 39/39/39 37/37/37
f 25/25/25 39/39/39 24/24/24
f 39/39/39 25/25/25 40/40/40
f 25/25/25 41/41/41 40/40/40
f 40/40/40 41/41/41 42/42/42
f 37/37/37 39/39/39 43/43/43
f 39/39/39 40/40/40 43/43/43
f 44/44/44 40/40/40 42/42/42
f 44/44/44 42/42/42 45/45/45
f 38/38/38 46/46/46 23/23/23
f 23/23/23 46/46/46 28/28/28
f 37/37/37 47/47/47 38/38/38
f 37/37/37 43/43/43 47/47/47
f 48/48/48 46/46/46 38/38/38
f 28/28/28 46/46/46 48/48/48
f 40/40/40 44/44/44 49/49/49
f 43/43/43 40/40/40 49/49/49
f 38/38/38 47/47/47 50/50/50
f 50/50/50 48/48/48 38/38/38
f 51/51/51 44/44/44 45/45/45
f 49/49/49 44/44/44 52/52/52
f 44/44/44 51/51/51 52/52/52
f 49/49/49 53/53/53 43/43/43
f 53/53/53 49/49/49 52/52/52
f 51/51/51 45/45/45 54/54/54
f 45/45/45 55/55/55 54/54/54
f 54/54/54 55/55/55 56/56/56
f 52/52/52 51/51/51 57/57/57
f 51/51/51 54/54/54 57/57/57
f 58/58/58 54/54/54 56/56/56
f 58/58/58 56/56/56 59/59/59
f 53/53/53 60/60/60 43/43/43
f 43/43/43 60/60/60 47/47/47
f 47/47/47 60/60/60 61/61/61
f 61/61/61 60/60/60 53/53/53
f 62/62/62 53/53/53 52/52/52
f 52/52/52 57/57/57 62/62/62
f 54/54/54 58/58/58 63/63/63
f 57/57/57 54/54/54 63/63/63
f 64/64/64 47/47/47 61/61/61
f 47/47/47 64/64/64 50/50/50
f 65/65/65 53/53/53 62/62/62
f 65/65/65 61/61/61 53/53/53
f 66/66/66 58/58/58 59/59/59
f 63/63/63 58/58/58 67/67/67
f 58/58/58 66/66/66 67/67/67
f 63/63/63 68/68/68 57/57/57
f 68/68/68 63/63/63 67/67/67
f 66/66/66 59/59/59 69/69/69
f 59/59/59 70/70/70 69/69/69
f 69/69/69 70/70/70 71/71/71
f 67/67/67 66/66/66 72/72/72
f 66/66/66 69/69/69 72/72/72
f 73/73/73 69/69/69 71/71/71
f 73/73/73 71/71/71 74/74/74
f 68/68/68 75/75/75 57/57/57
f 57/57/57 75/75/75 62/62/62
f 62/62/62 75/75/75 76/76/76
f 76/76/76 75/75/75 68/68/68
f 77/77/77 68/68/68 67/67/67
f 67/67/67 72/72/72 77/77/77
f 69/69/69 73/73/73 78/78/78
f 72/72/72 69/69/69 78/78/78
f 79/79/79 62/62/62 76/76/76
f 79/79/79 65/65/65 62/62/62
f 80/80/80 68/68/68 77/77/77
f 80/80/80 76/76/76 68/68/68
f 81/81/81 73/73/73 74/74/74
f 78/78/78 73/73/73 82/82/82
f 73/73/73 81/81/81 82/82/82
f 78/78/78 83/83/83 72/72/72
f 83/83/83 78/78/78 82/82/82
f 81/81/81 74/74/74 84/84/84
f 74/74/74 85/85/85 84/84/84
f 84/84/84 85/85/85 86/86/86
f 82/82/82 81/81/81 87/87/87
f 81/81/81 84/84/84 87/87/87
f 88/88/88 84/84/84 86/86/86
f 88/88/88 86/86/86 89/89/89
f 83/83/83 90/90/90 72/72/72
f 72/72/72 90/90/90 77/77/77
f 77/77/77 90/90/90 91/91/91
f 91/91/91 90/90/90 83/83/83
f 92/92/92 83/83/83 82/82/82
f 82/82/82 87/87/87 92/92/92
f 84/84/84 88/88/88 93/93/93
f 87/87/87 84/84/84 93/93/93
f 94/94/94 77/77/77 91/91/91
f 94/94/94 80/80/80 77/77/77
f 95/95/95 83/83/83 92/92/92
f 95/95/95 91/91/91 83/83/83
f 96/96/96 88/88/88 89/89/89
f 93/93/93 88/88/88 97/97/97
f 88/88/88 96/96/96 97/97/97
f 93/93/93 98/98/98 87/87/87
f 93/93/93 97/97/97 98/98/98
f 96/96/96 89/89/89 99/99/99
f 89/89/89 100/100/100 99/99/99
f 99/99/99 100/100/100 101/101/101
f 102/102/102 99/99/99 101/101/101
f 99/99/99 102/102/102 103/103/103
f 96/96/96 99/99/99 104/104/104
f 104/104/104 99/99/99 103/103/103
f 97/97/97 96/96/96 104/104/104
f 103/103/103 105/105/105 104/104/104
f 97/97/97 104/104/104 106/106/106
f 97/97/97 106/106/106 98/98/98
f 105/105/105 107/107/107 104/104/104
f 104/104/104 107/107/107 106/106/106
f 108/108/108 107/107/107 105/105/105
f 106/106/106 107/107/107 108/108/108
f 109/109/109 108/108/108 105/105/105
f 108/108/108 109/109/109 110/110/110
f 111/111/111 108/108/108 110/110/110
f 110/110/110 112/112/112 111/111/111
f 113/113/113 106/106/106 108/108/108
f 113/113/113 108/108/108 111/111/111
f 106/106/106 113/113/113 114/114/114
f 98/98/98 106/106/106 114/114/114
f 115/115/115 113/113/113 111/111/111
f 113/113/113 115/115/115 114/114/114
f 112/112/112 116/116/116 111/111/111
f 111/111/111 116/116/116 117/117/117
f 115/115/115 111/111/111 117/117/117
f 118/118/118 116/116/116 112/112/112
f 117/117/117 116/116/116 118/118/118
f 119/119/119 118/118/118 112/112/112
f 119/119/119 120/120/120 118/118/118
f 120/120/120 121/121/121 118/118/118
f 120/120/120 122/122/122 121/121/121
f 123/123/123 117/117/117 118/118/118
f 118/118/118 121/121/121 123/123/123
f 114/114/114 124/124/124 98/98/98
f 115/115/115 125/125/125 114/114/114
f 124/124/124 114/114/114 125/125/125
f 115/115/115 117/117/117 126/126/126
f 125/125/125 115/115/115 126/126/126
f 117/117/117 123/123/123 127/127/127
f 126/126/126 117/117/117 127/127/127
f 121/121/121 128/128/128 123/123/123
f 123/123/123 128/128/128 127/127/127
f 124/124/124 129/129/129 98/98/98
f 98/98/98 129/129/129 87/87/87
f 87/87/87 129/129/129 92/92/92
f 92/92/92 129/129/129 124/124/124
f 130/130/130 124/124/124 125/125/125
f 125/125/125 126/126/126 130/130/130
f 131/131/131 92/92/92 124/124/124
f 131/131/131 124/124/124 130/130/130
f 131/131/131 95/95/95 92/92/92
f 131/131/131 132/132/132 95/95/95
f 132/132/132 131/131/131 130/130/130
f 132/132/132 133/133/133 95/95/95
f 91/91/91 95/95/95 133/133/133
f 134/134/134 91/91/91 133/133/133
f 94/94/94 91/91/91 134/134/134
f 135/135/135 133/133/133 132/132/132
f 133/133/133 135/135/135 134/134/134
f 132/132/132 130/130/130 136/136/136
f 136/136/136 135/135/135 132/132/132
f 126/126/126 137/137/137 130/130/130
f 130/130/130 137/137/137 136/136/136
f 138/138/138 137/137/137 126/126/126
f 136/136/136 137/137/137 138/138/138
f 127/127/127 138/138/138 126/126/126
f 139/139/139 94/94/94 134/134/134
f 94/94/94 139/139/139 80/80/80
f 127/127/127 140/140/140 138/138/138
f 128/128/128 140/140/140 127/127/127
f 139/139/139 141/141/141 80/80/80
f 76/76/76 80/80/80 141/141/141
f 142/142/142 76/76/76 141/141/141
f 79/79/79 76/76/76 142/142/142
f 143/143/143 141/141/141 139/139/139
f 141/141/141 143/143/143 142/142/142
f 139/139/139 134/134/134 144/144/144
f 144/144/144 143/143/143 139/139/139
f 145/145/145 79/79/79 142/142/142
f 79/79/79 145/145/145 65/65/65
f 134/134/134 146/146/146 144/144/144
f 135/135/135 146/146/146 134/134/134
f 147/147/147 146/146/146 135/135/135
f 144/144/144 146/146/146 147/147/147
f 145/145/145 148/148/148 65/65/65
f 61/61/61 65/65/65 148/148/148
f 149/149/149 61/61/61 148/148/148
f 64/64/64 61/61/61 149/149/149
f 150/150/150 148/148/148 145/145/145
f 148/148/148 150/150/150 149/149/149
f 145/145/145 142/142/142 151/151/151
f 151/151/151 150/150/150 145/145/145
f 143/143/143 152/152/152 142/142/142
f 142/142/142 152/152/152 151/151/151
f 153/153/153 152/152/152 143/143/143
f 151/151/151 152/152/152 153/153/153
f 154/154/154 143/143/143 144/144/144
f 154/154/154 153/153/153 143/143/143
f 155/155/155 144/144/144 147/147/147
f 155/155/155 154/154/154 144/144/144
f 156/156/156 64/64/64 149/149/149
f 64/64/64 156/156/156 50/50/50
f 156/156/156 157/157/157 50/50/50
f 48/48/48 50/50/50 157/157/157
f 155/155/155 158/158/158 154/154/154
f 154/154/154 159/159/159 153/153/153
f 158/158/158 159/159/159 154/154/154
f 147/147/147 160/160/160 155/155/155
f 160/160/160 158/158/158 155/155/155
f 161/161/161 151/151/151 153/153/153
f 159/159/159 162/162/162 153/153/153
f 153/153/153 162/162/162 161/161/161
f 163/163/163 159/159/159 158/158/158
f 159/159/159 163/163/163 162/162/162
f 161/161/161 164/164/164 151/151/151
f 164/164/164 150/150/150 151/151/151
f 158/158/158 160/160/160 165/165/165
f 165/165/165 163/163/163 158/158/158
f 162/162/162 166/166/166 161/161/161
f 161/161/161 166/166/166 164/164/164
f 164/164/164 167/167/167 150/150/150
f 166/166/166 168/168/168 164/164/164
f 164/164/164 168/168/168 167/167/167
f 167/167/167 169/169/169 150/150/150
f 150/150/150 169/169/169 149/149/149
f 149/149/149 169/169/169 170/170/170
f 170/170/170 169/169/169 167/167/167
f 156/156/156 149/149/149 170/170/170
f 156/156/156 170/170/170 171/171/171
f 157/157/157 156/156/156 171/171/171
f 157/157/157 171/171/171 172/172/172
f 172/172/172 48/48/48 157/157/157
f 173/173/173 48/48/48 172/172/172
f 173/173/173 28/28/28 48/48/48
f 28/28/28 173/173/173 174/174/174
f 19/19/19 28/28/28 174/174/174
f 174/174/174 27/27/27 19/19/19
f 173/173/173 175/175/175 174/174/174
f 175/175/175 173/173/173 172/172/172
f 27/27/27 174/174/174 176/176/176
f 175/175/175 176/176/176 174/174/174
f 34/34/34 27/27/27 176/176/176
f 176/176/176 175/175/175 177/177/177
f 176/176/176 177/177/177 34/34/34
f 175/175/175 172/172/172 178/178/178
f 175/175/175 178/178/178 177/177/177
f 171/171/171 179/179/179 172/172/172
f 172/172/172 179/179/179 178/178/178
f 180/180/180 179/179/179 171/171/171
f 178/178/178 179/179/179 180/180/180
f 177/177/177 181/181/181 34/34/34
f 34/34/34 181/181/181 35/35/35
f 182/182/182 181/181/181 177/177/177
f 35/35/35 181/181/181 182/182/182
f 177/177/177 178/178/178 183/183/183
f 183/183/183 182/182/182 177/177/177
f 184/184/184 180/180/180 171/171/171
f 171/171/171 170/170/170 184/184/184
f 185/185/185 35/35/35 182/182/182
f 185/185/185 36/36/36 35/35/35
f 185/185/185 186/186/186 36/36/36
f 186/186/186 187/187/187 36/36/36
f 188/188/188 187/187/187 186/186/186
f 182/182/182 189/189/189 185/185/185
f 189/189/189 186/186/186 185/185/185
f 190/190/190 188/188/188 186/186/186
f 186/186/186 189/189/189 190/190/190
f 191/191/191 188/188/188 190/190/190
f 183/183/183 192/192/192 182/182/182
f 192/192/192 189/189/189 182/182/182
f 170/170/170 193/193/193 184/184/184
f 193/193/193 170/170/170 167/167/167
f 167/167/167 194/194/194 193/193/193
f 168/168/168 194/194/194 167/167/167
f 193/193/193 195/195/195 184/184/184
f 194/194/194 195/195/195 193/193/193
f 168/168/168 196/196/196 194/194/194
f 196/196/196 168/168/168 166/166/166
f 195/195/195 197/197/197 184/184/184
f 184/184/184 197/197/197 180/180/180
f 198/198/198 196/196/196 166/166/166
f 166/166/166 162/162/162 198/198/198
f 162/162/162 199/199/199 198/198/198
f 163/163/163 199/199/199 162/162/162
f 200/200/200 199/199/199 163/163/163
f 198/198/198 199/199/199 200/200/200
f 201/201/201 200/200/200 163/163/163
f 201/201/201 163/163/163 165/165/165
f 195/195/195 194/194/194 202/202/202
f 197/197/197 195/195/195 203/203/203
f 195/195/195 202/202/202 203/203/203
f 197/197/197 204/204/204 180/180/180
f 197/197/197 203/203/203 204/204/204
f 196/196/196 205/205/205 194/194/194
f 194/194/194 205/205/205 202/202/202
f 206/206/206 205/205/205 196/196/196
f 202/202/202 205/205/205 206/206/206
f 207/207/207 196/196/196 198/198/198
f 207/207/207 206/206/206 196/196/196
f 208/208/208 198/198/198 200/200/200
f 208/208/208 207/207/207 198/198/198
f 180/180/180 204/204/204 209/209/209
f 209/209/209 178/178/178 180/180/180
f 178/178/178 209/209/209 183/183/183
f 209/209/209 210/210/210 183/183/183
f 204/204/204 210/210/210 209/209/209
f 210/210/210 192/192/192 183/183/183
f 192/192/192 210/210/210 211/211/211
f 192/192/192 211/211/211 189/189/189
f 210/210/210 204/204/204 212/212/212
f 210/210/210 212/212/212 211/211/211
f 211/211/211 213/213/213 189/189/189
f 189/189/189 213/213/213 190/190/190
f 214/214/214 213/213/213 211/211/211
f 190/190/190 213/213/213 214/214/214
f 204/204/204 215/215/215 212/212/212
f 203/203/203 215/215/215 204/204/204
f 216/216/216 215/215/215 203/203/203
f 212/212/212 215/215/215 216/216/216
f 211/211/211 212/212/212 217/217/217
f 217/217/217 214/214/214 211/211/211
f 218/218/218 190/190/190 214/214/214
f 218/218/218 191/191/191 190/190/190
f 191/191/191 218/218/218 219/219/219
f 220/220/220 191/191/191 219/219/219
f 221/221/221 220/220/220 219/219/219
f 222/222/222 221/221/221 219/219/219
f 223/223/223 219/219/219 218/218/218
f 219/219/219 223/223/223 222/222/222
f 214/214/214 223/223/223 218/218/218
f 223/223/223 224/224/224 222/222/222
f 225/225/225 224/224/224 223/223/223
f 226/226/226 223/223/223 214/214/214
f 226/226/226 225/225/225 223/223/223
f 217/217/217 226/226/226 214/214/214
f 226/226/226 227/227/227 225/225/225
f 226/226/226 217/217/217 227/227/227
f 227/227/227 228/228/228 225/225/225
f 217/217/217 229/229/229 227/227/227
f 212/212/212 229/229/229 217/217/217
f 229/229/229 212/212/212 216/216/216
f 227/227/227 230/230/230 228/228/228
f 230/230/230 227/227/227 229/229/229
f 216/216/216 230/230/230 229/229/229
f 230/230/230 231/231/231 228/228/228
f 232/232/232 231/231/231 230/230/230
f 233/233/233 230/230/230 216/216/216
f 233/233/233 232/232/232 230/230/230
f 234/234/234 233/233/233 216/216/216
f 234/234/234 216/216/216 203/203/203
f 203/203/203 202/202/202 234/234/234
f 233/233/233 235/235/235 232/232/232
f 233/233/233 234/234/234 235/235/235
f 235/235/235 236/236/236 232/232/232
f 202/202/202 237/237/237 234/234/234
f 234/234/234 237/237/237 235/235/235
f 237/237/237 202/202/202 206/206/206
f 235/235/235 238/238/238 236/236/236
f 238/238/238 235/235/235 237/237/237
f 206/206/206 238/238/238 237/237/237
f 238/238/238 239/239/239 236/236/236
f 240/240/240 239/239/239 238/238/238
f 241/241/241 238/238/238 206/206/206
f 241/241/241 240/240/240 238/238/238
f 207/207/207 241/241/241 206/206/206
f 240/240/240 241/241/241 242/242/242
f 241/241/241 207/207/207 242/242/242
f 243/243/243 240/240/240 242/242/242
f 207/207/207 208/208/208 242/242/242
f 242/242/242 244/244/244 243/243/243
f 244/244/244 242/242/242 208/208/208
f 244/244/244 245/245/245 243/243/243
f 200/200/200 244/244/244 208/208/208
f 246/246/246 245/245/245 244/244/244
f 247/247/247 244/244/244 200/200/200
f 247/247/247 246/246/246 244/244/244
f 201/201/201 247/247/247 200/200/200
f 246/246/246 247/247/247 248/248/248
f 247/247/247 201/201/201 248/248/248
f 249/249/249 246/246/246 248/248/248
f 201/201/201 250/250/250 248/248/248
f 250/250/250 201/201/201 165/165/165
f 248/248/248 251/251/251 249/249/249
f 251/251/251 248/248/248 250/250/250
f 251/251/251 252/252/252 249/249/249
f 253/253/253 252/252/252 251/251/251
f 250/250/250 165/165/165 254/254/254
f 254/254/254 251/251/251 250/250/250
f 255/255/255 253/253/253 251/251/251
f 255/255/255 251/251/251 254/254/254
f 253/253/253 255/255/255 256/256/256
f 257/257/257 253/253/253 256/256/256
f 165/165/165 258/258/258 254/254/254
f 160/160/160 258/258/258 165/165/165
f 259/259/259 255/255/255 254/254/254
f 255/255/255 259/259/259 256/256/256
f 254/254/254 258/258/258 260/260/260
f 260/260/260 258/258/258 160/160/160
f 259/259/259 254/254/254 260/260/260
f 256/256/256 261/261/261 257/257/257
f 261/261/261 262/262/262 257/257/257
f 263/263/263 262/262/262 261/261/261
f 259/259/259 264/264/264 256/256/256
f 261/261/261 256/256/256 264/264/264
f 264/264/264 259/259/259 265/265/265
f 259/259/259 260/260/260 265/265/265
f 266/266/266 260/260/260 160/160/160
f 266/266/266 160/160/160 147/147/147
f 267/267/267 261/261/261 264/264/264
f 264/264/264 265/265/265 267/267/267
f 268/268/268 263/263/263 261/261/261
f 268/268/268 261/261/261 267/267/267
f 260/260/260 266/266/266 269/269/269
f 265/265/265 260/260/260 269/269/269
f 270/270/270 266/266/266 147/147/147
f 269/269/269 266/266/266 270/270/270
f 270/270/270 147/147/147 135/135/135
f 270/270/270 135/135/135 136/136/136
f 271/271/271 270/270/270 136/136/136
f 271/271/271 269/269/269 270/270/270
f 271/271/271 136/136/136 138/138/138
f 272/272/272 269/269/269 271/271/271
f 138/138/138 272/272/272 271/271/271
f 269/269/269 272/272/272 265/265/265
f 140/140/140 272/272/272 138/138/138
f 263/263/263 268/268/268 273/273/273
f 274/274/274 263/263/263 273/273/273
f 272/272/272 275/275/275 265/265/265
f 265/265/265 275/275/275 267/267/267
f 140/140/140 276/276/276 272/272/272
f 276/276/276 275/275/275 272/272/272
f 267/267/267 275/275/275 276/276/276
f 276/276/276 140/140/140 128/128/128
f 277/277/277 268/268/268 267/267/267
f 277/277/277 267/267/267 276/276/276
f 268/268/268 277/277/277 273/273/273
f 278/278/278 276/276/276 128/128/128
f 277/277/277 276/276/276 278/278/278
f 128/128/128 121/121/121 278/278/278
f 273/273/273 279/279/279 274/274/274
f 279/279/279 280/280/280 274/274/274
f 281/281/281 280/280/280 279/279/279
f 282/282/282 281/281/281 279/279/279
f 277/277/277 283/283/283 273/273/273
f 279/279/279 273/273/273 283/283/283
f 283/283/283 277/277/277 278/278/278
f 282/282/282 279/279/279 284/284/284
f 284/284/284 279/279/279 283/283/283
f 283/283/283 278/278/278 284/284/284
f 285/285/285 282/282/282 284/284/284
f 285/285/285 284/284/284 122/122/122
f 122/122/122 286/286/286 121/121/121
f 121/121/121 286/286/286 278/278/278
f 284/284/284 286/286/286 122/122/122
f 278/278/278 286/286/286 284/284/284
f 289/289/289 288/288/288 287/287/287
f 288/288/288 290/290/290 287/287/287
f 291/291/291 287/287/287 290/290/290
f 292/292/292 290/290/290 288/288/288
f 293/293/293 292/292/292 288/288/288
f 294/294/294 291/291/291 290/290/290
f 291/291/291 294/294/294 295/295/295
f 296/296/296 292/292/292 293/293/293
f 297/297/297 296/296/296 293/293/293
f 292/292/292 298/298/298 290/290/290
f 298/298/298 294/294/294 290/290/290
f 294/294/294 299/299/299 295/295/295
f 295/295/295 299/299/299 300/300/300
f 296/296/296 301/301/301 292/292/292
f 301/301/301 298/298/298 292/292/292
f 298/298/298 302/302/302 294/294/294
f 302/302/302 299/299/299 294/294/294
f 299/299/299 303/303/303 300/300/300
f 300/300/300 303/303/303 304/304/304
f 301/301/301 305/305/305 298/298/298
f 305/305/305 302/302/302 298/298/298
f 302/302/302 306/306/306 299/299/299
f 306/306/306 303/303/303 299/299/299
f 303/303/303 307/307/307 304/304/304
f 304/304/304 307/307/307 308/308/308
f 305/305/305 309/309/309 302/302/302
f 309/309/309 306/306/306 302/302/302
f 303/303/303 306/306/306 310/310/310
f 307/307/307 303/303/303 310/310/310
f 307/307/307 311/311/311 308/308/308
f 308/308/308 311/311/311 312/312/312
f 306/306/306 309/309/309 313/313/313
f 310/310/310 306/306/306 313/313/313
f 307/307/307 310/310/310 314/314/314
f 311/311/311 307/307/307 314/314/314
f 311/311/311 315/315/315 312/312/312
f 312/312/312 315/315/315 316/316/316
f 310/310/310 313/313/313 317/317/317
f 314/314/314 310/310/310 317/317/317
f 314/314/314 318/318/318 311/311/311
f 318/318/318 315/315/315 311/311/311
f 315/315/315 319/319/319 316/316/316
f 316/316/316 319/319/319 320/320/320
f 317/317/317 321/321/321 314/314/314
f 321/321/321 318/318/318 314/314/314
f 318/318/318 322/322/322 315/315/315
f 322/322/322 319/319/319 315/315/315
f 319/319/319 323/323/323 320/320/320
f 320/320/320 323/323/323 324/324/324
f 321/321/321 325/325/325 318/318/318
f 325/325/325 322/322/322 318/318/318
f 322/322/322 326/326/326 319/319/319
f 326/326/326 323/323/323 319/319/319
f 325/325/325 327/327/327 322/322/322
f 327/327/327 326/326/326 322/322/322
f 328/328/328 321/321/321 317/317/317
f 329/329/329 325/325/325 321/321/321
f 328/328/328 329/329/329 321/321/321
f 330/330/330 328/328/328 317/317/317
f 317/317/317 313/313/313 330/330/330
f 329/329/329 331/331/331 325/325/325
f 331/331/331 327/327/327 325/325/325
f 332/332/332 329/329/329 328/328/328
f 332/332/332 328/328/328 330/330/330
f 332/332/332 331/331/331 329/329/329
f 332/332/332 330/330/330 333/333/333
f 313/313/313 333/333/333 330/330/330
f 332/332/332 334/334/334 331/331/331
f 331/331/331 334/334/334 327/327/327
f 313/313/313 309/309/309 333/333/333
f 309/309/309 335/335/335 333/333/333
f 335/335/335 332/332/332 333/333/333
f 335/335/335 309/309/309 305/305/305
f 336/336/336 335/335/335 305/305/305
f 335/335/335 336/336/336 332/332/332
f 336/336/336 305/305/305 301/301/301
f 337/337/337 336/336/336 301/301/301
f 336/336/336 337/337/337 332/332/332
f 337/337/337 301/301/301 296/296/296
f 338/338/338 337/337/337 296/296/296
f 337/337/337 338/338/338 332/332/332
f 338/338/338 296/296/296 339/339/339
f 334/334/334 340/340/340 327/327/327
f 327/327/327 340/340/340 326/326/326
f 332/332/332 341/341/341 334/334/334
f 334/334/334 341/341/341 340/340/340
f 338/338/338 342/342/342 332/332/332
f 342/342/342 341/341/341 332/332/332
f 342/342/342 338/338/338 339/339/339
f 341/341/341 342/342/342 343/343/343
f 341/341/341 343/343/343 340/340/340
f 342/342/342 339/339/339 343/343/343
f 340/340/340 344/344/344 326/326/326
f 340/340/340 343/343/343 344/344/344
f 326/326/326 344/344/344 323/323/323
f 343/343/343 339/339/339 345/345/345
f 343/343/343 345/345/345 344/344/344
f 339/339/339 346/346/346 345/345/345
f 344/344/344 347/347/347 323/323/323
f 344/344/344 345/345/345 347/347/347
f 323/323/323 347/347/347 324/324/324
f 345/345/345 346/346/346 348/348/348
f 345/345/345 348/348/348 347/347/347
f 347/347/347 348/348/348 324/324/324
f 346/346/346 349/349/349 348/348/348
f 348/348/348 350/350/350 324/324/324
f 348/348/348 349/349/349 351/351/351
f 350/350/350 348/348/348 351/351/351
f 354/354/354 353/353/353 352/352/352
f 355/355/355 354/354/354 352/352/352
f 356/356/356 354/354/354 355/355/355
f 357/357/357 356/356/356 355/355/355
f 357/357/357 358/358/358 356/356/356
f 358/358/358 359/359/359 356/356/356
f 358/358/358 360/360/360 359/359/359
f 360/360/360 361/361/361 359/359/359
f 362/362/362 361/361/361 360/360/360
f 363/363/363 362/362/362 360/360/360
f 360/360/360 358/358/358 364/364/364
f 364/364/364 358/358/358 357/357/357
f 363/363/363 360/360/360 365/365/365
f 365/365/365 360/360/360 364/364/364
f 366/366/366 363/363/363 365/365/365
f 366/366/366 365/365/365 367/367/367
f 357/357/357 355/355/355 368/368/368
f 369/369/369 364/364/364 357/357/357
f 369/369/369 357/357/357 368/368/368
f 364/364/364 370/370/370 365/365/365
f 370/370/370 364/364/364 369/369/369
f 365/365/365 371/371/371 367/367/367
f 370/370/370 371/371/371 365/365/365
f 367/367/367 371/371/371 372/372/372
f 372/372/372 371/371/371 370/370/370
f 373/373/373 367/367/367 372/372/372
f 368/368/368 355/355/355 374/374/374
f 355/355/355 352/352/352 374/374/374
f 373/373/373 372/372/372 375/375/375
f 376/376/376 373/373/373 375/375/375
f 376/376/376 375/375/375 377/377/377
f 378/378/378 370/370/370 369/369/369
f 369/369/369 368/368/368 379/379/379
f 378/378/378 369/369/369 379/379/379
f 380/380/380 372/372/372 370/370/370
f 380/380/380 370/370/370 378/378/378
f 372/372/372 380/380/380 381/381/381
f 375/375/375 372/372/372 381/381/381
f 382/382/382 380/380/380 378/378/378
f 381/381/381 380/380/380 382/382/382
f 368/368/368 374/374/374 383/383/383
f 379/379/379 368/368/368 383/383/383
f 378/378/378 379/379/379 384/384/384
f 382/382/382 378/378/378 384/384/384
f 379/379/379 383/383/383 385/385/385
f 384/384/384 379/379/379 385/385/385
f 375/375/375 386/386/386 377/377/377
f 381/381/381 387/387/387 375/375/375
f 387/387/387 386/386/386 375/375/375
f 377/377/377 386/386/386 388/388/388
f 388/388/388 386/386/386 387/387/387
f 389/389/389 377/377/377 388/388/388
f 390/390/390 381/381/381 382/382/382
f 387/387/387 381/381/381 390/390/390
f 382/382/382 384/384/384 391/391/391
f 390/390/390 382/382/382 391/391/391
f 384/384/384 385/385/385 392/392/392
f 391/391/391 384/384/384 392/392/392
f 388/388/388 393/393/393 389/389/389
f 393/393/393 394/394/394 389/389/389
f 394/394/394 393/393/393 395/395/395
f 396/396/396 388/388/388 387/387/387
f 397/397/397 387/387/387 390/390/390
f 396/396/396 387/387/387 397/397/397
f 390/390/390 391/391/391 398/398/398
f 397/397/397 390/390/390 398/398/398
f 396/396/396 399/399/399 388/388/388
f 399/399/399 393/393/393 388/388/388
f 400/400/400 396/396/396 397/397/397
f 399/399/399 396/396/396 400/400/400
f 391/391/391 392/392/392 401/401/401
f 398/398/398 391/391/391 401/401/401
f 398/398/398 402/402/402 397/397/397
f 402/402/402 400/400/400 397/397/397
f 401/401/401 403/403/403 398/398/398
f 403/403/403 402/402/402 398/398/398
f 393/393/393 404/404/404 395/395/395
f 399/399/399 405/405/405 393/393/393
f 405/405/405 404/404/404 393/393/393
f 395/395/395 404/404/404 406/406/406
f 406/406/406 404/404/404 405/405/405
f 407/407/407 395/395/395 406/406/406
f 408/408/408 399/399/399 400/400/400
f 405/405/405 399/399/399 408/408/408
f 402/402/402 409/409/409 400/400/400
f 409/409/409 408/408/408 400/400/400
f 403/403/403 410/410/410 402/402/402
f 410/410/410 409/409/409 402/402/402
f 406/406/406 411/411/411 407/407/407
f 411/411/411 412/412/412 407/407/407
f 412/412/412 411/411/411 413/413/413
f 411/411/411 414/414/414 413/413/413
f 415/415/415 414/414/414 411/411/411
f 416/416/416 411/411/411 406/406/406
f 416/416/416 415/415/415 411/411/411
f 417/417/417 406/406/406 405/405/405
f 417/417/417 416/416/416 406/406/406
f 415/415/415 416/416/416 418/418/418
f 418/418/418 416/416/416 417/417/417
f 419/419/419 415/415/415 418/418/418
f 419/419/419 418/418/418 420/420/420
f 417/417/417 405/405/405 421/421/421
f 421/421/421 405/405/405 408/408/408
f 418/418/418 422/422/422 420/420/420
f 420/420/420 422/422/422 423/423/423
f 424/424/424 418/418/418 417/417/417
f 424/424/424 417/417/417 421/421/421
f 418/418/418 424/424/424 422/422/422
f 421/421/421 408/408/408 425/425/425
f 408/408/408 409/409/409 425/425/425
f 424/424/424 421/421/421 426/426/426
f 424/424/424 426/426/426 422/422/422
f 421/421/421 425/425/425 426/426/426
f 425/425/425 409/409/409 427/427/427
f 409/409/409 410/410/410 427/427/427
f 422/422/422 426/426/426 428/428/428
f 422/422/422 428/428/428 423/423/423
f 426/426/426 425/425/425 429/429/429
f 425/425/425 427/427/427 429/429/429
f 426/426/426 429/429/429 428/428/428
f 427/427/427 410/410/410 430/430/430
f 429/429/429 427/427/427 431/431/431
f 427/427/427 430/430/430 431/431/431
f 428/428/428 429/429/429 432/432/432
f 429/429/429 431/431/431 432/432/432
f 423/423/423 428/428/428 433/433/433
f 428/428/428 432/432/432 433/433/433
f 434/434/434 432/432/432 431/431/431
f 434/434/434 431/431/431 430/430/430
f 434/434/434 433/433/433 432/432/432
f 434/434/434 430/430/430 435/435/435
f 410/410/410 435/435/435 430/430/430
f 436/436/436 433/433/433 434/434/434
f 423/423/423 433/433/433 436/436/436
f 435/435/435 410/410/410 403/403/403
f 352/352/352 423/423/423 436/436/436
f 437/437/437 435/435/435 403/403/403
f 434/434/434 435/435/435 437/437/437
f 437/437/437 403/403/403 401/401/401
f 352/352/352 436/436/436 438/438/438
f 438/438/438 436/436/436 434/434/434
f 374/374/374 352/352/352 438/438/438
f 439/439/439 437/437/437 401/401/401
f 434/434/434 437/437/437 439/439/439
f 401/401/401 392/392/392 439/439/439
f 374/374/374 438/438/438 440/440/440
f 440/440/440 438/438/438 434/434/434
f 383/383/383 374/374/374 440/440/440
f 392/392/392 441/441/441 439/439/439
f 441/441/441 434/434/434 439/439/439
f 392/392/392 385/385/385 441/441/441
f 442/442/442 440/440/440 434/434/434
f 383/383/383 440/440/440 442/442/442
f 441/441/441 442/442/442 434/434/434
f 385/385/385 442/442/442 441/441/441
f 385/385/385 383/383/383 442/442/442
f 445/445/445 444/444/444 443/443/443
f 444/444/444 446/446/446 443/443/443
f 447/447/447 446/446/446 444/444/444
f 448/448/448 447/447/447 444/444/444
f 448/448/448 449/449/449 447/447/447
f 449/449/449 450/450/450 447/447/447
f 447/447/447 451/451/451 446/446/446
f 451/451/451 452/452/452 446/446/446
f 455/455/455 454/454/454 453/453/453
f 456/456/456 455/455/455 453/453/453
f 459/459/459 458/458/458 457/457/457
f 460/460/460 459/459/459 457/457/457
f 463/463/463 462/462/462 461/461/461
f 464/464/464 463/463/463 461/461/461
f 467/467/467 466/466/466 465/465/465
f 468/468/468 467/467/467 465/465/465
f 471/471/471 470/470/470 469/469/469
f 472/472/472 471/471/471 469/469/469
f 475/475/475 474/474/474 473/473/473
f 476/476/476 475/475/475 473/473/473
f 479/479/479 478/478/478 477/477/477
f 480/480/480 479/479/479 477/477/477
f 483/483/483 482/482/482 481/481/481
f 482/482/482 484/484/484 481/481/481
f 481/481/481 484/484/484 485/485/485
f 484/484/484 486/486/486 485/485/485
f 485/485/485 486/486/486 487/487/487
f 486/486/486 488/488/488 487/487/487
