g Item_23Item_23_mobile
v 6.34914906 2.71876704 -0.125943279
v 6.47670012 2.71876704 -0.0734222521
v 6.47670012 7.47781521 -0.0734222521
v 6.34914906 7.47781521 -0.125943279
v 6.34914906 7.60536627 -0.0734222521
v 6.45311925 7.5817854 -0.0498413828
v 3.45191771 7.60536627 -0.0734222521
v 3.45191771 7.47781521 -0.125943279
v 3.45191771 2.71876704 -0.125943279
v 3.32329478 2.71876704 -0.0734222521
v 3.32329478 7.47781521 -0.0734222521
v 3.34687565 7.5817854 -0.0498413828
v 6.47670012 7.47781521 2.72412633
v 6.53029301 2.71876704 2.59657527
v 6.47670012 2.71876704 2.72412633
v 6.53029301 7.47781521 2.59657527
v 6.47670012 7.60536627 2.59657527
v 6.45311925 7.5817854 2.70054546
v 6.47670012 7.60536627 0.0541288136
v 6.53029301 7.47781521 0.0541288136
v 6.53029301 2.71876704 0.0541288136
v 6.47670012 2.71876704 -0.0734222521
v 6.47670012 7.47781521 -0.0734222521
v 6.45311925 7.5817854 -0.0498413828
v 3.32329478 7.47781521 2.72412633
v 3.45191771 2.71876704 2.77771922
v 3.32329478 2.71876704 2.72412633
v 3.45191771 7.47781521 2.77771922
v 3.45191771 7.60536627 2.72412633
v 3.34687565 7.5817854 2.70054546
v 6.34914906 7.60536627 2.72412633
v 6.34914906 7.47781521 2.77771922
v 6.34914906 2.71876704 2.77771922
v 6.47670012 2.71876704 2.72412633
v 6.47670012 7.47781521 2.72412633
v 6.45311925 7.5817854 2.70054546
v 3.32329478 7.47781521 -0.0734222521
v 3.27077376 2.71876704 0.0541288136
v 3.32329478 2.71876704 -0.0734222521
v 3.27077376 7.47781521 0.0541288136
v 3.32329478 7.60536627 0.0541288136
v 3.34687565 7.5817854 -0.0498413828
v 3.32329478 7.60536627 2.59657527
v 3.27077376 7.47781521 2.59657527
v 3.27077376 2.71876704 2.59657527
v 3.32329478 2.71876704 2.72412633
v 3.32329478 7.47781521 2.72412633
v 3.34687565 7.5817854 2.70054546
v 6.47670012 7.60536627 0.0541288136
v 6.34914906 7.60536627 -0.0734222521
v 6.45311925 7.5817854 -0.0498413828
v 6.34914906 7.65895916 0.0541288136
v 6.47670012 7.60536627 2.59657527
v 3.45191771 7.65895916 0.0541288136
v 3.45191771 7.60536627 -0.0734222521
v 3.32329478 7.60536627 0.0541288136
v 3.34687565 7.5817854 -0.0498413828
v 3.45191771 7.65895916 2.59657527
v 3.32329478 7.60536627 2.59657527
v 6.34914906 7.65895916 2.59657527
v 3.45191771 7.60536627 2.72412633
v 3.34687565 7.5817854 2.70054546
v 6.34914906 7.60536627 2.72412633
v 6.45311925 7.5817854 2.70054546
v -34.9409531 5.25263863 -0.970567143
v 26.1345702 5.13366243 -1.02308817
v 26.0541809 5.23870448 -0.973782716
v -34.9409531 5.12508757 -1.02308817
v -35.069576 5.12508757 -0.970567143
v -35.0459951 5.22905776 -0.946986273
v -35.069576 -5.19047089 -0.970567143
v -34.9409531 -5.19047089 -1.02308817
v -34.9409531 -5.31909381 -0.970567143
v -35.0459951 -5.29551294 -0.946986273
v 32.1123206 -5.31909381 -0.970567143
v 32.1123206 -5.19047089 -1.02308817
v 32.2409435 -5.19047089 -0.970567143
v 32.2173627 -5.29551294 -0.946986273
v 32.2387998 1.55044216 -0.970567143
v 32.1187518 1.59438832 -1.02308817
v 26.2556902 5.18403974 -0.973782716
v 32.1412608 1.71979567 -0.970567143
v 32.2291531 1.65762793 -0.945914416
v 26.2985645 5.23656077 -0.836584931
v 32.1412608 1.71979567 -0.970567143
v 32.1637698 1.77124484 -0.838728646
v 26.2556902 5.18403974 -0.973782716
v 26.1763727 5.28800994 -0.836584931
v 26.2985645 5.23656077 4.30618829
v 26.1645823 5.24620749 -0.950201846
v 26.0541809 5.23870448 -0.973782716
v 26.1345702 5.13366243 -1.02308817
v 26.1763727 5.28800994 4.30618829
v 26.0445342 5.30623152 -0.836584931
v 26.2556902 5.18403974 4.44338607
v 32.1637698 1.77124484 4.308332
v 32.1412608 1.71979567 4.4401705
v -34.9409531 5.30623152 -0.843016077
v -34.9409531 5.25263863 -0.970567143
v -35.069576 5.25263863 -0.843016077
v -35.0459951 5.22905776 -0.946986273
v -34.9409531 5.30623152 4.31261944
v -35.069576 5.25263863 4.31261944
v 26.0445342 5.30623152 4.30618829
v -34.9409531 5.25263863 4.4401705
v -35.0459951 5.22905776 4.41658963
v 26.0541809 5.23870448 4.44338607
v 26.1345702 5.13366243 4.49269153
v 26.1645823 5.24620749 4.4198052
v 32.1412608 1.71979567 4.4401705
v 26.1345702 5.13366243 4.49269153
v 26.2556902 5.18403974 4.44338607
v 32.1187518 1.59438832 4.49269153
v 32.2387998 1.55044216 4.4401705
v 32.2291531 1.65762793 4.41551777
v 32.2409435 -5.19047089 4.4401705
v 32.1123206 -5.19047089 4.49269153
v 32.1123206 -5.31909381 4.4401705
v 32.2173627 -5.29551294 4.41658963
v -34.9409531 -5.31909381 4.4401705
v -34.9409531 -5.19047089 4.49269153
v -35.069576 -5.19047089 4.4401705
v -35.0459951 -5.29551294 4.41658963
v -35.069576 5.12508757 4.4401705
v -34.9409531 5.12508757 4.49269153
v 26.0541809 5.23870448 4.44338607
v -34.9409531 5.25263863 4.4401705
v -35.0459951 5.22905776 4.41658963
v 26.2985645 5.23656077 -0.836584931
v 32.1637698 1.77124484 4.308332
v 26.2985645 5.23656077 4.30618829
v 32.1637698 1.77124484 -0.838728646
v 32.2591651 1.67477765 4.308332
v 32.1412608 1.71979567 4.4401705
v 32.2291531 1.65762793 4.41551777
v 32.2387998 1.55044216 4.4401705
v 32.2591651 1.67477765 -0.838728646
v 32.1412608 1.71979567 -0.970567143
v 32.2291531 1.65762793 -0.945914416
v 32.2387998 1.55044216 -0.970567143
v 32.2934646 1.54401101 4.308332
v 32.2934646 1.54401101 -0.838728646
v 32.2409435 -5.19047089 -0.970567143
v 32.2934646 -5.19047089 4.31261944
v 32.2409435 -5.19047089 4.4401705
v 32.2934646 -5.19047089 -0.843016077
v 32.2409435 -5.31909381 4.31261944
v 32.2173627 -5.29551294 4.41658963
v 32.2409435 -5.31909381 -0.843016077
v 32.2173627 -5.29551294 -0.946986273
v -35.069576 5.25263863 -0.843016077
v -35.069576 5.12508757 -0.970567143
v -35.0459951 5.22905776 -0.946986273
v -35.122097 5.12508757 -0.843016077
v -35.069576 5.25263863 4.31261944
v -35.122097 -5.19047089 -0.843016077
v -35.069576 -5.19047089 -0.970567143
v -35.069576 -5.31909381 -0.843016077
v -35.0459951 -5.29551294 -0.946986273
v -35.122097 -5.19047089 4.31261944
v -35.069576 -5.31909381 4.31261944
v -35.122097 5.12508757 4.31261944
v -35.069576 -5.19047089 4.4401705
v -35.0459951 -5.29551294 4.41658963
v -35.069576 5.12508757 4.4401705
v -35.0459951 5.22905776 4.41658963
v -35.069576 -5.31909381 -0.843016077
v -34.9409531 -5.31909381 -0.970567143
v -35.0459951 -5.29551294 -0.946986273
v -34.9409531 -5.37161484 -0.843016077
v -35.069576 -5.31909381 4.31261944
v 32.1123206 -5.37161484 -0.843016077
v 32.1123206 -5.31909381 -0.970567143
v 32.2409435 -5.31909381 -0.843016077
v 32.2173627 -5.29551294 -0.946986273
v 32.1123206 -5.37161484 4.31261944
v 32.2409435 -5.31909381 4.31261944
v -34.9409531 -5.37161484 4.31261944
v 32.1123206 -5.31909381 4.4401705
v 32.2173627 -5.29551294 4.41658963
v -34.9409531 -5.31909381 4.4401705
v -35.0459951 -5.29551294 4.41658963
v -28.3136569 3.89459493 -2.80880309
v 23.176243 3.77561873 -2.86132412
v 23.09371 3.87958893 -2.81201866
v -28.3136569 3.76704387 -2.86132412
v -28.4422799 3.76704387 -2.80880309
v -28.418699 3.87101406 -2.78522222
v -28.4422799 -3.83242719 -2.80880309
v -28.3136569 -3.83242719 -2.86132412
v -28.3136569 -3.96105011 -2.80880309
v -28.418699 -3.93746924 -2.78522222
v 28.0832075 -3.96105011 -2.80880309
v 28.0832075 -3.83242719 -2.86132412
v 28.2107586 -3.83242719 -2.80880309
v 28.1871777 -3.93746924 -2.78522222
v 28.2096867 1.10883679 -2.80880309
v 28.0896387 1.14956738 -2.86132412
v 23.2973629 3.82813976 -2.81201866
v 28.1089321 1.27604659 -2.80880309
v 28.1989682 1.21602255 -2.78415036
v -28.4422799 3.89459493 -2.68125202
v -28.3136569 3.94711596 0.561117503
v -28.4422799 3.89459493 0.561117503
v -28.3136569 3.94711596 -2.68125202
v -28.3136569 3.89459493 -2.80880309
v -28.418699 3.87101406 -2.78522222
v 23.09371 3.87958893 -2.81201866
v 23.0829914 3.94711596 -2.67482088
v 23.0872788 3.94711596 0.561117503
v 23.2148299 3.93210995 0.561117503
v 23.2148299 3.9310381 -2.67482088
v 23.3359498 3.88494821 0.561117503
v 23.3391654 3.88387636 -2.67482088
v 28.132513 1.32535204 0.561117503
v 28.1292974 1.3264239 -2.67696459
v 28.1089321 1.27604659 -2.80880309
v 23.2973629 3.82813976 -2.81201866
v 23.176243 3.77561873 -2.86132412
v 23.2041113 3.88816379 -2.78843779
v -28.4422799 -3.96105011 -2.68125202
v -28.4948009 -3.83242719 0.561117503
v -28.4422799 -3.96105011 0.561117503
v -28.4948009 -3.83242719 -2.68125202
v -28.4422799 -3.83242719 -2.80880309
v -28.418699 -3.93746924 -2.78522222
v -28.4422799 3.76704387 -2.80880309
v -28.4948009 3.76704387 -2.68125202
v -28.4948009 3.76704387 0.561117503
v -28.4422799 3.89459493 0.561117503
v -28.4422799 3.89459493 -2.68125202
v -28.418699 3.87101406 -2.78522222
v 28.1292974 1.3264239 -2.67696459
v 28.2289802 1.23317228 0.561117503
v 28.132513 1.32535204 0.561117503
v 28.2279083 1.23317228 -2.67696459
v 28.1089321 1.27604659 -2.80880309
v 28.1989682 1.21602255 -2.78415036
v 28.2096867 1.10883679 -2.80880309
v 28.2643515 1.10562121 0.561117503
v 28.2643515 1.10240564 -2.67696459
v 28.2107586 -3.83242719 -2.80880309
v 28.2643515 -3.83242719 -2.68125202
v 28.2643515 -3.83242719 0.561117503
v 28.2107586 -3.96105011 0.561117503
v 28.2107586 -3.96105011 -2.68125202
v 28.1871777 -3.93746924 -2.78522222
v 28.2107586 -3.96105011 -2.68125202
v 28.0832075 -4.01357114 0.561117503
v 28.2107586 -3.96105011 0.561117503
v 28.0832075 -4.01357114 -2.68125202
v 28.0832075 -3.96105011 -2.80880309
v 28.1871777 -3.93746924 -2.78522222
v -28.3136569 -3.96105011 -2.80880309
v -28.3136569 -4.01357114 -2.68125202
v -28.3136569 -4.01357114 0.561117503
v -28.4422799 -3.96105011 0.561117503
v -28.4422799 -3.96105011 -2.68125202
v -28.418699 -3.93746924 -2.78522222
v 18.6712251 2.71876704 -0.125943279
v 18.7987762 2.71876704 -0.0734222521
v 18.7987762 7.47781521 -0.0734222521
v 18.6712251 7.47781521 -0.125943279
v 18.6712251 7.60536627 -0.0734222521
v 18.7751953 7.5817854 -0.0498413828
v 15.7739938 7.60536627 -0.0734222521
v 15.7739938 7.47781521 -0.125943279
v 15.7739938 2.71876704 -0.125943279
v 15.6453708 2.71876704 -0.0734222521
v 15.6453708 7.47781521 -0.0734222521
v 15.6689517 7.5817854 -0.0498413828
v 18.7987762 7.47781521 2.72412633
v 18.8512972 2.71876704 2.59657527
v 18.7987762 2.71876704 2.72412633
v 18.8512972 7.47781521 2.59657527
v 18.7987762 7.60536627 2.59657527
v 18.7751953 7.5817854 2.70054546
v 18.7987762 7.60536627 0.0541288136
v 18.8512972 7.47781521 0.0541288136
v 18.8512972 2.71876704 0.0541288136
v 18.7987762 2.71876704 -0.0734222521
v 18.7987762 7.47781521 -0.0734222521
v 18.7751953 7.5817854 -0.0498413828
v 15.6453708 7.47781521 2.72412633
v 15.7739938 2.71876704 2.77771922
v 15.6453708 2.71876704 2.72412633
v 15.7739938 7.47781521 2.77771922
v 15.7739938 7.60536627 2.72412633
v 15.6689517 7.5817854 2.70054546
v 18.6712251 7.60536627 2.72412633
v 18.6712251 7.47781521 2.77771922
v 18.6712251 2.71876704 2.77771922
v 18.7987762 2.71876704 2.72412633
v 18.7987762 7.47781521 2.72412633
v 18.7751953 7.5817854 2.70054546
v 15.6453708 7.47781521 -0.0734222521
v 15.5928498 2.71876704 0.0541288136
v 15.6453708 2.71876704 -0.0734222521
v 15.5928498 7.47781521 0.0541288136
v 15.6453708 7.60536627 0.0541288136
v 15.6689517 7.5817854 -0.0498413828
v 15.6453708 7.60536627 2.59657527
v 15.5928498 7.47781521 2.59657527
v 15.5928498 2.71876704 2.59657527
v 15.6453708 2.71876704 2.72412633
v 15.6453708 7.47781521 2.72412633
v 15.6689517 7.5817854 2.70054546
v 18.7987762 7.60536627 0.0541288136
v 18.6712251 7.60536627 -0.0734222521
v 18.7751953 7.5817854 -0.0498413828
v 18.6712251 7.65895916 0.0541288136
v 18.7987762 7.60536627 2.59657527
v 15.7739938 7.65895916 0.0541288136
v 15.7739938 7.60536627 -0.0734222521
v 15.6453708 7.60536627 0.0541288136
v 15.6689517 7.5817854 -0.0498413828
v 15.7739938 7.65895916 2.59657527
v 15.6453708 7.60536627 2.59657527
v 18.6712251 7.65895916 2.59657527
v 15.7739938 7.60536627 2.72412633
v 15.6689517 7.5817854 2.70054546
v 18.6712251 7.60536627 2.72412633
v 18.7751953 7.5817854 2.70054546
v -30.0929407 3.52373217 0.626500823
v -30.0393478 3.52373217 0.497877899
v -30.0393478 6.67285008 0.497877899
v -30.0929407 6.67285008 0.626500823
v -30.0393478 6.80040114 0.626500823
v -30.015767 6.77682028 0.521458769
v -30.0393478 6.80040114 2.22142507
v -30.0929407 6.67285008 2.22142507
v -30.0929407 3.52373217 2.22142507
v -30.0393478 3.52373217 2.350048
v -30.0393478 6.67285008 2.350048
v -30.015767 6.77682028 2.32646713
v -30.0393478 6.67285008 2.350048
v -29.9117968 3.52373217 2.40256902
v -30.0393478 3.52373217 2.350048
v -29.9117968 6.67285008 2.40256902
v -29.9117968 6.80040114 2.350048
v -30.015767 6.77682028 2.32646713
v 28.6030585 6.80040114 2.350048
v 28.6030585 6.67285008 2.40256902
v 28.6030585 3.52373217 2.40256902
v 28.7306096 3.52373217 2.350048
v 28.7306096 6.67285008 2.350048
v 28.7070287 6.77682028 2.32646713
v 28.7306096 6.67285008 2.350048
v 28.7831306 3.52373217 2.22142507
v 28.7306096 3.52373217 2.350048
v 28.7831306 6.67285008 2.22142507
v 28.7306096 6.80040114 2.22142507
v 28.7070287 6.77682028 2.32646713
v 28.7306096 6.80040114 0.626500823
v 28.7831306 6.67285008 0.626500823
v 28.7831306 3.52373217 0.626500823
v 28.7306096 3.52373217 0.497877899
v 28.7306096 6.67285008 0.497877899
v 28.7070287 6.77682028 0.521458769
v 28.7306096 6.67285008 0.497877899
v 28.6030585 3.52373217 0.445356872
v 28.7306096 3.52373217 0.497877899
v 28.6030585 6.67285008 0.445356872
v 28.6030585 6.80040114 0.497877899
v 28.7070287 6.77682028 0.521458769
v -29.9117968 6.80040114 0.497877899
v -29.9117968 6.67285008 0.445356872
v -29.9117968 3.52373217 0.445356872
v -30.0393478 3.52373217 0.497877899
v -30.0393478 6.67285008 0.497877899
v -30.015767 6.77682028 0.521458769
v -29.9117968 6.80040114 0.497877899
v -30.0393478 6.80040114 0.626500823
v -30.015767 6.77682028 0.521458769
v -29.9117968 6.85292217 0.626500823
v 28.6030585 6.80040114 0.497877899
v -29.9117968 6.85292217 2.22142507
v -30.0393478 6.80040114 2.22142507
v -29.9117968 6.80040114 2.350048
v -30.015767 6.77682028 2.32646713
v 28.6030585 6.85292217 2.22142507
v 28.6030585 6.80040114 2.350048
v 28.6030585 6.85292217 0.626500823
v 28.7306096 6.80040114 2.22142507
v 28.7070287 6.77682028 2.32646713
v 28.7306096 6.80040114 0.626500823
v 28.7070287 6.77682028 0.521458769
v -5.97828629 2.71876704 -0.125943279
v -5.84966337 2.71876704 -0.0734222521
v -5.84966337 7.47781521 -0.0734222521
v -5.97828629 7.47781521 -0.125943279
v -5.97828629 7.60536627 -0.0734222521
v -5.87324424 7.5817854 -0.0498413828
v -8.87551764 7.60536627 -0.0734222521
v -8.87551764 7.47781521 -0.125943279
v -8.87551764 2.71876704 -0.125943279
v -9.00306871 2.71876704 -0.0734222521
v -9.00306871 7.47781521 -0.0734222521
v -8.97948784 7.5817854 -0.0498413828
v -5.84966337 7.47781521 2.72412633
v -5.79714234 2.71876704 2.59657527
v -5.84966337 2.71876704 2.72412633
v -5.79714234 7.47781521 2.59657527
v -5.84966337 7.60536627 2.59657527
v -5.87324424 7.5817854 2.70054546
v -5.84966337 7.60536627 0.0541288136
v -5.79714234 7.47781521 0.0541288136
v -5.79714234 2.71876704 0.0541288136
v -5.84966337 2.71876704 -0.0734222521
v -5.84966337 7.47781521 -0.0734222521
v -5.87324424 7.5817854 -0.0498413828
v -9.00306871 7.47781521 2.72412633
v -8.87551764 2.71876704 2.77771922
v -9.00306871 2.71876704 2.72412633
v -8.87551764 7.47781521 2.77771922
v -8.87551764 7.60536627 2.72412633
v -8.97948784 7.5817854 2.70054546
v -5.97828629 7.60536627 2.72412633
v -5.97828629 7.47781521 2.77771922
v -5.97828629 2.71876704 2.77771922
v -5.84966337 2.71876704 2.72412633
v -5.84966337 7.47781521 2.72412633
v -5.87324424 7.5817854 2.70054546
v -9.00306871 7.47781521 -0.0734222521
v -9.05666159 2.71876704 0.0541288136
v -9.00306871 2.71876704 -0.0734222521
v -9.05666159 7.47781521 0.0541288136
v -9.00306871 7.60536627 0.0541288136
v -8.97948784 7.5817854 -0.0498413828
v -9.00306871 7.60536627 2.59657527
v -9.05666159 7.47781521 2.59657527
v -9.05666159 2.71876704 2.59657527
v -9.00306871 2.71876704 2.72412633
v -9.00306871 7.47781521 2.72412633
v -8.97948784 7.5817854 2.70054546
v -5.84966337 7.60536627 0.0541288136
v -5.97828629 7.60536627 -0.0734222521
v -5.87324424 7.5817854 -0.0498413828
v -5.97828629 7.65895916 0.0541288136
v -5.84966337 7.60536627 2.59657527
v -8.87551764 7.65895916 0.0541288136
v -8.87551764 7.60536627 -0.0734222521
v -9.00306871 7.60536627 0.0541288136
v -8.97948784 7.5817854 -0.0498413828
v -8.87551764 7.65895916 2.59657527
v -9.00306871 7.60536627 2.59657527
v -5.97828629 7.65895916 2.59657527
v -8.87551764 7.60536627 2.72412633
v -8.97948784 7.5817854 2.70054546
v -5.97828629 7.60536627 2.72412633
v -5.87324424 7.5817854 2.70054546
v 24.8740656 2.71876704 -0.125943279
v 25.0026885 2.71876704 -0.0734222521
v 25.0026885 7.47781521 -0.0734222521
v 24.8740656 7.47781521 -0.125943279
v 24.8740656 7.60536627 -0.0734222521
v 24.9791076 7.5817854 -0.0498413828
v 21.9768342 7.60536627 -0.0734222521
v 21.9768342 7.47781521 -0.125943279
v 21.9768342 2.71876704 -0.125943279
v 21.8492832 2.71876704 -0.0734222521
v 21.8492832 7.47781521 -0.0734222521
v 21.872864 7.5817854 -0.0498413828
v 25.0026885 7.47781521 2.72412633
v 25.0552095 2.71876704 2.59657527
v 25.0026885 2.71876704 2.72412633
v 25.0552095 7.47781521 2.59657527
v 25.0026885 7.60536627 2.59657527
v 24.9791076 7.5817854 2.70054546
v 25.0026885 7.60536627 0.0541288136
v 25.0552095 7.47781521 0.0541288136
v 25.0552095 2.71876704 0.0541288136
v 25.0026885 2.71876704 -0.0734222521
v 25.0026885 7.47781521 -0.0734222521
v 24.9791076 7.5817854 -0.0498413828
v 21.8492832 7.47781521 2.72412633
v 21.9768342 2.71876704 2.77771922
v 21.8492832 2.71876704 2.72412633
v 21.9768342 7.47781521 2.77771922
v 21.9768342 7.60536627 2.72412633
v 21.872864 7.5817854 2.70054546
v 24.8740656 7.60536627 2.72412633
v 24.8740656 7.47781521 2.77771922
v 24.8740656 2.71876704 2.77771922
v 25.0026885 2.71876704 2.72412633
v 25.0026885 7.47781521 2.72412633
v 24.9791076 7.5817854 2.70054546
v 21.8492832 7.47781521 -0.0734222521
v 21.7956903 2.71876704 0.0541288136
v 21.8492832 2.71876704 -0.0734222521
v 21.7956903 7.47781521 0.0541288136
v 21.8492832 7.60536627 0.0541288136
v 21.872864 7.5817854 -0.0498413828
v 21.8492832 7.60536627 2.59657527
v 21.7956903 7.47781521 2.59657527
v 21.7956903 2.71876704 2.59657527
v 21.8492832 2.71876704 2.72412633
v 21.8492832 7.47781521 2.72412633
v 21.872864 7.5817854 2.70054546
v 25.0026885 7.60536627 0.0541288136
v 24.8740656 7.60536627 -0.0734222521
v 24.9791076 7.5817854 -0.0498413828
v 24.8740656 7.65895916 0.0541288136
v 25.0026885 7.60536627 2.59657527
v 21.9768342 7.65895916 0.0541288136
v 21.9768342 7.60536627 -0.0734222521
v 21.8492832 7.60536627 0.0541288136
v 21.872864 7.5817854 -0.0498413828
v 21.9768342 7.65895916 2.59657527
v 21.8492832 7.60536627 2.59657527
v 24.8740656 7.65895916 2.59657527
v 21.9768342 7.60536627 2.72412633
v 21.872864 7.5817854 2.70054546
v 24.8740656 7.60536627 2.72412633
v 24.9791076 7.5817854 2.70054546
v 12.5519895 2.71876704 -0.125943279
v 12.6806125 2.71876704 -0.0734222521
v 12.6806125 7.47781521 -0.0734222521
v 12.5519895 7.47781521 -0.125943279
v 12.5519895 7.60536627 -0.0734222521
v 12.6570316 7.5817854 -0.0498413828
v 9.65475819 7.60536627 -0.0734222521
v 9.65475819 7.47781521 -0.125943279
v 9.65475819 2.71876704 -0.125943279
v 9.52720712 2.71876704 -0.0734222521
v 9.52720712 7.47781521 -0.0734222521
v 9.55078799 7.5817854 -0.0498413828
v 12.6806125 7.47781521 2.72412633
v 12.7331335 2.71876704 2.59657527
v 12.6806125 2.71876704 2.72412633
v 12.7331335 7.47781521 2.59657527
v 12.6806125 7.60536627 2.59657527
v 12.6570316 7.5817854 2.70054546
v 12.6806125 7.60536627 0.0541288136
v 12.7331335 7.47781521 0.0541288136
v 12.7331335 2.71876704 0.0541288136
v 12.6806125 2.71876704 -0.0734222521
v 12.6806125 7.47781521 -0.0734222521
v 12.6570316 7.5817854 -0.0498413828
v 9.52720712 7.47781521 2.72412633
v 9.65475819 2.71876704 2.77771922
v 9.52720712 2.71876704 2.72412633
v 9.65475819 7.47781521 2.77771922
v 9.65475819 7.60536627 2.72412633
v 9.55078799 7.5817854 2.70054546
v 12.5519895 7.60536627 2.72412633
v 12.5519895 7.47781521 2.77771922
v 12.5519895 2.71876704 2.77771922
v 12.6806125 2.71876704 2.72412633
v 12.6806125 7.47781521 2.72412633
v 12.6570316 7.5817854 2.70054546
v 9.52720712 7.47781521 -0.0734222521
v 9.47468609 2.71876704 0.0541288136
v 9.52720712 2.71876704 -0.0734222521
v 9.47468609 7.47781521 0.0541288136
v 9.52720712 7.60536627 0.0541288136
v 9.55078799 7.5817854 -0.0498413828
v 9.52720712 7.60536627 2.59657527
v 9.47468609 7.47781521 2.59657527
v 9.47468609 2.71876704 2.59657527
v 9.52720712 2.71876704 2.72412633
v 9.52720712 7.47781521 2.72412633
v 9.55078799 7.5817854 2.70054546
v 12.6806125 7.60536627 0.0541288136
v 12.5519895 7.60536627 -0.0734222521
v 12.6570316 7.5817854 -0.0498413828
v 12.5519895 7.65895916 0.0541288136
v 12.6806125 7.60536627 2.59657527
v 9.65475819 7.65895916 0.0541288136
v 9.65475819 7.60536627 -0.0734222521
v 9.52720712 7.60536627 0.0541288136
v 9.55078799 7.5817854 -0.0498413828
v 9.65475819 7.65895916 2.59657527
v 9.52720712 7.60536627 2.59657527
v 12.5519895 7.65895916 2.59657527
v 9.65475819 7.60536627 2.72412633
v 9.55078799 7.5817854 2.70054546
v 12.5519895 7.60536627 2.72412633
v 12.6570316 7.5817854 2.70054546
v 0.225626045 2.71876704 -0.125943279
v 0.35317711 2.71876704 -0.0734222521
v 0.35317711 7.47781521 -0.0734222521
v 0.225626045 7.47781521 -0.125943279
v 0.225626045 7.60536627 -0.0734222521
v 0.329596241 7.5817854 -0.0498413828
v -2.6716053 7.60536627 -0.0734222521
v -2.6716053 7.47781521 -0.125943279
v -2.6716053 2.71876704 -0.125943279
v -2.80022823 2.71876704 -0.0734222521
v -2.80022823 7.47781521 -0.0734222521
v -2.77664736 7.5817854 -0.0498413828
v 0.35317711 7.47781521 2.72412633
v 0.405698137 2.71876704 2.59657527
v 0.35317711 2.71876704 2.72412633
v 0.405698137 7.47781521 2.59657527
v 0.35317711 7.60536627 2.59657527
v 0.329596241 7.5817854 2.70054546
v 0.35317711 7.60536627 0.0541288136
v 0.405698137 7.47781521 0.0541288136
v 0.405698137 2.71876704 0.0541288136
v 0.35317711 2.71876704 -0.0734222521
v 0.35317711 7.47781521 -0.0734222521
v 0.329596241 7.5817854 -0.0498413828
v -2.80022823 7.47781521 2.72412633
v -2.6716053 2.71876704 2.77771922
v -2.80022823 2.71876704 2.72412633
v -2.6716053 7.47781521 2.77771922
v -2.6716053 7.60536627 2.72412633
v -2.77664736 7.5817854 2.70054546
v 0.225626045 7.60536627 2.72412633
v 0.225626045 7.47781521 2.77771922
v 0.225626045 2.71876704 2.77771922
v 0.35317711 2.71876704 2.72412633
v 0.35317711 7.47781521 2.72412633
v 0.329596241 7.5817854 2.70054546
v -2.80022823 7.47781521 -0.0734222521
v -2.85274925 2.71876704 0.0541288136
v -2.80022823 2.71876704 -0.0734222521
v -2.85274925 7.47781521 0.0541288136
v -2.80022823 7.60536627 0.0541288136
v -2.77664736 7.5817854 -0.0498413828
v -2.80022823 7.60536627 2.59657527
v -2.85274925 7.47781521 2.59657527
v -2.85274925 2.71876704 2.59657527
v -2.80022823 2.71876704 2.72412633
v -2.80022823 7.47781521 2.72412633
v -2.77664736 7.5817854 2.70054546
v 0.35317711 7.60536627 0.0541288136
v 0.225626045 7.60536627 -0.0734222521
v 0.329596241 7.5817854 -0.0498413828
v 0.225626045 7.65895916 0.0541288136
v 0.35317711 7.60536627 2.59657527
v -2.6716053 7.65895916 0.0541288136
v -2.6716053 7.60536627 -0.0734222521
v -2.80022823 7.60536627 0.0541288136
v -2.77664736 7.5817854 -0.0498413828
v -2.6716053 7.65895916 2.59657527
v -2.80022823 7.60536627 2.59657527
v 0.225626045 7.65895916 2.59657527
v -2.6716053 7.60536627 2.72412633
v -2.77664736 7.5817854 2.70054546
v 0.225626045 7.60536627 2.72412633
v 0.329596241 7.5817854 2.70054546
v 26.9223856 -1.76802927 -0.296368653
v 26.3071393 -0.284578218 -0.296368653
v 26.3071393 -0.284578218 -4.29975714
v 26.9223856 -1.76802927 -4.29975714
v 26.3071393 -3.25148032 -0.296368653
v 26.3071393 -3.25148032 -4.29975714
v 26.264265 -3.20860601 -4.43588307
v 26.8602179 -1.76802927 -4.43588307
v 26.264265 -0.328524383 -4.43588307
v 24.8236883 -3.86672663 -0.296368653
v 26.3071393 -3.25148032 -0.296368653
v 26.3071393 -3.25148032 -4.29975714
v 24.8236883 -3.86672663 -4.29975714
v 23.3402372 -3.25148032 -0.296368653
v 23.3402372 -3.25148032 -4.29975714
v 23.3841834 -3.20860601 -4.43588307
v 24.8236883 -3.80455889 -4.43588307
v 26.264265 -3.20860601 -4.43588307
v 22.7260628 -1.76802927 -0.296368653
v 23.3402372 -3.25148032 -0.296368653
v 23.3402372 -3.25148032 -4.29975714
v 22.7260628 -1.76802927 -4.29975714
v 23.3402372 -0.284578218 -0.296368653
v 23.3402372 -0.284578218 -4.29975714
v 23.3841834 -0.328524383 -4.43588307
v 22.7871587 -1.76802927 -4.43588307
v 23.3841834 -3.20860601 -4.43588307
v 24.8236883 0.329596241 -0.296368653
v 23.3402372 -0.284578218 -0.296368653
v 23.3402372 -0.284578218 -4.29975714
v 24.8236883 0.329596241 -4.29975714
v 26.3071393 -0.284578218 -0.296368653
v 26.3071393 -0.284578218 -4.29975714
v 26.264265 -0.328524383 -4.43588307
v 24.8236883 0.268500353 -4.43588307
v 23.3841834 -0.328524383 -4.43588307
v 34.067389 -1.48934627 -0.200973318
v 34.9495279 -2.84738997 -0.253494345
v 34.9934741 -2.72412633 -0.203117033
v 33.9419817 -1.51721457 -0.253494345
v 33.8894607 -1.40038208 -0.200973318
v 33.9977183 -1.40681322 -0.177392448
v 23.0015302 -1.39716651 -0.200973318
v 34.9409531 -7.47781521 -0.253494345
v 35.0588574 -2.92027629 -0.203117033
v 35.069576 -7.47781521 -0.200973318
v 34.9409531 -7.60536627 -0.200973318
v 35.0459951 -7.5817854 -0.177392448
v 23.0015302 -7.47781521 -0.253494345
v 23.0015302 -7.60536627 -0.200973318
v 23.0015302 -1.52471757 -0.253494345
v 22.8739791 -7.47781521 -0.200973318
v 22.89756 -7.5817854 -0.177392448
v 22.8739791 -1.52471757 -0.200973318
v 22.89756 -1.42074737 -0.177392448
v 35.069576 -7.47781521 3.49372016
v 34.9495279 -2.84738997 3.54731304
v 35.0588574 -2.92027629 3.49586387
v 34.9409531 -7.47781521 3.54731304
v 34.9409531 -7.60536627 3.49372016
v 35.0459951 -7.5817854 3.47121114
v 23.0015302 -7.60536627 3.49372016
v 33.9419817 -1.51721457 3.54731304
v 34.9934741 -2.72412633 3.49586387
v 34.067389 -1.48934627 3.49479201
v 23.0015302 -7.47781521 3.54731304
v 33.8894607 -1.40038208 3.49479201
v 33.9977183 -1.40681322 3.47013929
v 23.0015302 -1.52471757 3.54731304
v 23.0015302 -1.39716651 3.49372016
v 22.8739791 -1.52471757 3.49372016
v 22.89756 -1.42074737 3.47121114
v 22.8739791 -7.47781521 3.49372016
v 22.89756 -7.5817854 3.47121114
v 23.0015302 -1.39716651 -0.200973318
v 22.8739791 -1.39716651 -0.0734222521
v 22.89756 -1.42074737 -0.177392448
v 23.0015302 -1.34357362 -0.0734222521
v 33.8894607 -1.40038208 -0.200973318
v 23.0015302 -1.34357362 3.36616909
v 22.8739791 -1.39716651 3.36616909
v 33.8819577 -1.34357362 -0.0691348213
v 23.0015302 -1.39716651 3.49372016
v 22.89756 -1.42074737 3.47121114
v 33.8819577 -1.34357362 3.36188166
v 33.8894607 -1.40038208 3.49479201
v 34.0137962 -1.37465749 3.36188166
v 33.9977183 -1.40681322 3.47013929
v 34.0137962 -1.37465749 -0.0691348213
v 33.9977183 -1.40681322 -0.177392448
v 22.8739791 -1.39716651 -0.0734222521
v 22.8739791 -1.52471757 -0.200973318
v 22.89756 -1.42074737 -0.177392448
v 22.8214581 -1.52471757 -0.0734222521
v 22.8739791 -1.39716651 3.36616909
v 22.8214581 -7.47781521 -0.0734222521
v 22.8739791 -7.47781521 -0.200973318
v 22.8739791 -7.60536627 -0.0734222521
v 22.89756 -7.5817854 -0.177392448
v 22.8214581 -7.47781521 3.36616909
v 22.8739791 -7.60536627 3.36616909
v 22.8214581 -1.52471757 3.36616909
v 22.8739791 -7.47781521 3.49372016
v 22.89756 -7.5817854 3.47121114
v 22.8739791 -1.52471757 3.49372016
v 22.89756 -1.42074737 3.47121114
v 22.8739791 -7.60536627 -0.0734222521
v 23.0015302 -7.60536627 -0.200973318
v 22.89756 -7.5817854 -0.177392448
v 23.0015302 -7.65895916 -0.0734222521
v 22.8739791 -7.60536627 3.36616909
v 34.9409531 -7.65895916 -0.0734222521
v 34.9409531 -7.60536627 -0.200973318
v 35.069576 -7.60536627 -0.0734222521
v 35.0459951 -7.5817854 -0.177392448
v 34.9409531 -7.65895916 3.36616909
v 35.069576 -7.60536627 3.36616909
v 23.0015302 -7.65895916 3.36616909
v 34.9409531 -7.60536627 3.49372016
v 35.0459951 -7.5817854 3.47121114
v 23.0015302 -7.60536627 3.49372016
v 22.89756 -7.5817854 3.47121114
v 34.067389 -1.48934627 -0.200973318
v 34.0137962 -1.37465749 -0.0691348213
v 33.9977183 -1.40681322 -0.177392448
v 34.1166945 -1.46040611 -0.0691348213
v 34.9934741 -2.72412633 -0.203117033
v 34.1166945 -1.46040611 3.36188166
v 34.0137962 -1.37465749 3.36188166
v 34.067389 -1.48934627 3.49479201
v 33.9977183 -1.40681322 3.47013929
v 35.0384921 -2.67910831 3.3608098
v 34.9934741 -2.72412633 3.49586387
v 35.0384921 -2.67910831 -0.0680629636
v 35.1006599 -2.79701265 3.3608098
v 35.1006599 -2.79701265 -0.0680629636
v 35.062073 -2.80987495 3.472283
v 35.0588574 -2.92027629 3.49586387
v 34.9495279 -2.84738997 3.54731304
v 35.122097 -2.92885115 3.3608098
v 35.122097 -7.47781521 3.36616909
v 35.069576 -7.47781521 3.49372016
v 35.069576 -7.60536627 3.36616909
v 35.0459951 -7.5817854 3.47121114
v 35.122097 -7.47781521 -0.0734222521
v 35.069576 -7.60536627 -0.0734222521
v 35.122097 -2.92885115 -0.0680629636
v 35.069576 -7.47781521 -0.200973318
v 35.0459951 -7.5817854 -0.177392448
v 35.0588574 -2.92027629 -0.203117033
v 35.062073 -2.80987495 -0.179536164
v 34.9495279 -2.84738997 -0.253494345
v 22.7871587 -1.76802927 -4.43588307
v 23.4892255 -0.433566438 -4.49269153
v 23.3841834 -0.328524383 -4.43588307
v 22.9361469 -1.76802927 -4.49269153
v 24.8236883 -1.76802927 -4.49269153
v 23.3841834 -3.20860601 -4.43588307
v 24.8236883 0.119512133 -4.49269153
v 24.8236883 0.268500353 -4.43588307
v 23.4892255 -3.10356396 -4.49269153
v 24.8236883 -3.80455889 -4.43588307
v 26.159223 -0.433566438 -4.49269153
v 26.264265 -0.328524383 -4.43588307
v 24.8236883 -3.65664253 -4.49269153
v 26.264265 -3.20860601 -4.43588307
v 26.7123015 -1.76802927 -4.49269153
v 26.8602179 -1.76802927 -4.43588307
v 26.159223 -3.10356396 -4.49269153
vt 0.439882698 0.656891496
vt 0.444770283 0.656891496
vt 0.444770283 0.498533724
vt 0.439882698 0.499511241
vt 0.439882698 0.494623656
vt 0.443792766 0.495601173
vt 0.344086022 0.493646139
vt 0.344086022 0.498533724
vt 0.343108504 0.656891496
vt 0.339198436 0.656891496
vt 0.339198436 0.498533724
vt 0.340175953 0.494623656
vt 0.24340176 0.81427175
vt 0.247311828 0.655913978
vt 0.24340176 0.655913978
vt 0.248289345 0.81427175
vt 0.248289345 0.818181818
vt 0.244379277 0.818181818
vt 0.332355816 0.819159335
vt 0.332355816 0.81427175
vt 0.332355816 0.655913978
vt 0.337243402 0.655913978
vt 0.337243402 0.81427175
vt 0.336265885 0.818181818
vt 0.655913978 0.158357771
vt 0.659824047 0.000977517107
vt 0.654936461 0.000977517107
vt 0.660801564 0.158357771
vt 0.659824047 0.16226784
vt 0.656891496 0.16226784
vt 0.75659824 0.163245357
vt 0.75659824 0.158357771
vt 0.75659824 0
vt 0.761485826 0
vt 0.760508309 0.158357771
vt 0.760508309 0.16226784
vt 0.847507331 0.784946237
vt 0.8514174 0.627565982
vt 0.846529814 0.627565982
vt 0.8514174 0.784946237
vt 0.8514174 0.789833822
vt 0.847507331 0.788856305
vt 0.935483871 0.789833822
vt 0.935483871 0.784946237
vt 0.936461388 0.626588465
vt 0.940371457 0.626588465
vt 0.940371457 0.784946237
vt 0.939393939 0.788856305
vt 0.303030303 0.194525904
vt 0.307917889 0.19941349
vt 0.306940371 0.195503421
vt 0.303030303 0.19941349
vt 0.218963832 0.194525904
vt 0.302052786 0.295210166
vt 0.306940371 0.295210166
vt 0.302052786 0.300097752
vt 0.305962854 0.299120235
vt 0.217986315 0.295210166
vt 0.217986315 0.299120235
vt 0.218963832 0.19941349
vt 0.213098729 0.295210166
vt 0.214076246 0.299120235
vt 0.214076246 0.198435973
vt 0.215053763 0.195503421
vt 0.154447703 0.342130987
vt 0.159335288 0.0312805474
vt 0.158357771 0.0312805474
vt 0.15542522 0.342130987
vt 0.15542522 0.343108504
vt 0.154447703 0.343108504
vt 0.208211144 0.344086022
vt 0.208211144 0.343108504
vt 0.208211144 0.343108504
vt 0.208211144 0.343108504
vt 0.213098729 0.000977517107
vt 0.212121212 0.000977517107
vt 0.212121212 0
vt 0.213098729 0.000977517107
vt 0.177908113 0
vt 0.177908113 0.000977517107
vt 0.159335288 0.0303030303
vt 0.176930596 0.000977517107
vt 0.177908113 0
vt 0.790811339 0.368523949
vt 0.798631476 0.33431085
vt 0.797653959 0.33431085
vt 0.791788856 0.368523949
vt 0.790811339 0.369501466
vt 0.765395894 0.367546432
vt 0.791788856 0.369501466
vt 0.791788856 0.369501466
vt 0.792766373 0.369501466
vt 0.765395894 0.367546432
vt 0.790811339 0.369501466
vt 0.764418377 0.367546432
vt 0.761485826 0.332355816
vt 0.760508309 0.333333333
vt 0.778103617 0.679374389
vt 0.779081134 0.680351906
vt 0.778103617 0.680351906
vt 0.778103617 0.680351906
vt 0.751710655 0.678396872
vt 0.751710655 0.679374389
vt 0.765395894 0.368523949
vt 0.750733138 0.678396872
vt 0.750733138 0.679374389
vt 0.764418377 0.368523949
vt 0.76344086 0.367546432
vt 0.764418377 0.367546432
vt 0.35483871 0.000977517107
vt 0.3714565 0.0312805474
vt 0.372434018 0.0303030303
vt 0.353861193 0.000977517107
vt 0.353861193 0
vt 0.35483871 0
vt 0.319648094 0
vt 0.319648094 0.000977517107
vt 0.318670577 0.000977517107
vt 0.318670577 0
vt 0.316715543 0.342130987
vt 0.31769306 0.342130987
vt 0.31769306 0.343108504
vt 0.316715543 0.343108504
vt 0.369501466 0.344086022
vt 0.369501466 0.343108504
vt 0.372434018 0.0322580645
vt 0.370478983 0.343108504
vt 0.370478983 0.343108504
vt 0.848484848 0.0625610948
vt 0.825024438 0.0322580645
vt 0.825024438 0.0625610948
vt 0.848484848 0.0322580645
vt 0.825024438 0.0312805474
vt 0.825024438 0.0312805474
vt 0.825024438 0.0312805474
vt 0.825024438 0.0303030303
vt 0.848484848 0.0312805474
vt 0.848484848 0.0312805474
vt 0.848484848 0.0312805474
vt 0.848484848 0.0303030303
vt 0.825024438 0.0303030303
vt 0.848484848 0.0303030303
vt 0.848484848 0.000977517107
vt 0.825024438 0.000977517107
vt 0.825024438 0.000977517107
vt 0.848484848 0.000977517107
vt 0.825024438 0
vt 0.825024438 0
vt 0.848484848 0
vt 0.848484848 0
vt 0.601173021 0.0537634409
vt 0.600195503 0.0537634409
vt 0.600195503 0.0537634409
vt 0.601173021 0.0537634409
vt 0.627565982 0.0537634409
vt 0.601173021 0.000977517107
vt 0.600195503 0.000977517107
vt 0.601173021 0
vt 0.600195503 0
vt 0.626588465 0.000977517107
vt 0.626588465 0
vt 0.627565982 0.0527859238
vt 0.627565982 0.000977517107
vt 0.627565982 0
vt 0.6285435 0.0527859238
vt 0.627565982 0.0537634409
vt 0.122189638 0.477028348
vt 0.121212121 0.477028348
vt 0.121212121 0.477028348
vt 0.122189638 0.477028348
vt 0.1485826 0.478005865
vt 0.124144673 0.134897361
vt 0.123167155 0.134897361
vt 0.124144673 0.133919844
vt 0.123167155 0.134897361
vt 0.150537634 0.134897361
vt 0.150537634 0.134897361
vt 0.1485826 0.477028348
vt 0.151515152 0.134897361
vt 0.151515152 0.134897361
vt 0.149560117 0.477028348
vt 0.1485826 0.477028348
vt 0.708699902 0.505376344
vt 0.707722385 0.193548387
vt 0.706744868 0.194525904
vt 0.709677419 0.505376344
vt 0.709677419 0.506353861
vt 0.708699902 0.506353861
vt 0.755620723 0.506353861
vt 0.755620723 0.505376344
vt 0.75659824 0.505376344
vt 0.755620723 0.506353861
vt 0.754643206 0.164222874
vt 0.753665689 0.164222874
vt 0.753665689 0.163245357
vt 0.754643206 0.163245357
vt 0.723362659 0.163245357
vt 0.723362659 0.164222874
vt 0.706744868 0.19257087
vt 0.722385142 0.164222874
vt 0.722385142 0.163245357
vt 0.961876833 0.862170088
vt 0.942326491 0.862170088
vt 0.942326491 0.863147605
vt 0.961876833 0.862170088
vt 0.96285435 0.862170088
vt 0.96285435 0.862170088
vt 0.963831867 0.553274682
vt 0.96285435 0.553274682
vt 0.943304008 0.552297165
vt 0.944281525 0.551319648
vt 0.96285435 0.552297165
vt 0.944281525 0.550342131
vt 0.963831867 0.551319648
vt 0.946236559 0.518084066
vt 0.965786901 0.519061584
vt 0.966764418 0.519061584
vt 0.963831867 0.551319648
vt 0.964809384 0.552297165
vt 0.963831867 0.552297165
vt 0.630498534 0
vt 0.650048876 0.000977517107
vt 0.650048876 0
vt 0.630498534 0.000977517107
vt 0.629521017 0.000977517107
vt 0.629521017 0
vt 0.629521017 0.0469208211
vt 0.630498534 0.0469208211
vt 0.650048876 0.0469208211
vt 0.650048876 0.0478983382
vt 0.630498534 0.0478983382
vt 0.629521017 0.0478983382
vt 0.650048876 0.0801564027
vt 0.630498534 0.0791788856
vt 0.630498534 0.0801564027
vt 0.649071359 0.0791788856
vt 0.650048876 0.0791788856
vt 0.650048876 0.0791788856
vt 0.650048876 0.0782013685
vt 0.630498534 0.0791788856
vt 0.649071359 0.0782013685
vt 0.650048876 0.0488758553
vt 0.649071359 0.0488758553
vt 0.629521017 0.0488758553
vt 0.629521017 0.0478983382
vt 0.649071359 0.0478983382
vt 0.650048876 0.0478983382
vt 0.951124145 0
vt 0.970674487 0.000977517107
vt 0.970674487 0
vt 0.951124145 0.000977517107
vt 0.950146628 0.000977517107
vt 0.950146628 0.000977517107
vt 0.951124145 0.342130987
vt 0.952101662 0.342130987
vt 0.971652004 0.343108504
vt 0.971652004 0.343108504
vt 0.952101662 0.343108504
vt 0.951124145 0.343108504
vt 0.546432063 0.464320626
vt 0.551319648 0.464320626
vt 0.551319648 0.306940371
vt 0.546432063 0.306940371
vt 0.546432063 0.303030303
vt 0.550342131 0.303030303
vt 0.450635386 0.302052786
vt 0.450635386 0.306940371
vt 0.449657869 0.465298143
vt 0.445747801 0.465298143
vt 0.445747801 0.306940371
vt 0.446725318 0.303030303
vt 0.000977517107 0.830889541
vt 0.00488758553 0.672531769
vt 0 0.672531769
vt 0.00488758553 0.829912023
vt 0.00488758553 0.834799609
vt 0.000977517107 0.833822092
vt 0.0889540567 0.834799609
vt 0.0889540567 0.830889541
vt 0.0889540567 0.672531769
vt 0.0938416422 0.672531769
vt 0.0938416422 0.830889541
vt 0.0928641251 0.834799609
vt 0.552297165 0.320625611
vt 0.557184751 0.163245357
vt 0.552297165 0.163245357
vt 0.557184751 0.320625611
vt 0.557184751 0.325513196
vt 0.553274682 0.324535679
vt 0.652981427 0.325513196
vt 0.652981427 0.320625611
vt 0.652981427 0.16226784
vt 0.657869013 0.16226784
vt 0.657869013 0.320625611
vt 0.656891496 0.324535679
vt 0.854349951 0.158357771
vt 0.859237537 0
vt 0.854349951 0
vt 0.859237537 0.158357771
vt 0.859237537 0.16226784
vt 0.855327468 0.16226784
vt 0.943304008 0.163245357
vt 0.943304008 0.158357771
vt 0.943304008 0
vt 0.948191593 0
vt 0.948191593 0.158357771
vt 0.947214076 0.16226784
vt 0.28054741 0.820136852
vt 0.285434995 0.825024438
vt 0.284457478 0.82111437
vt 0.28054741 0.825024438
vt 0.196480938 0.820136852
vt 0.28054741 0.920821114
vt 0.284457478 0.920821114
vt 0.28054741 0.9257087
vt 0.284457478 0.924731183
vt 0.196480938 0.919843597
vt 0.195503421 0.924731183
vt 0.196480938 0.824046921
vt 0.191593353 0.920821114
vt 0.19257087 0.923753666
vt 0.19257087 0.824046921
vt 0.19257087 0.820136852
vt 0.126099707 0
vt 0.12512219 0
vt 0.12512219 0.018572825
vt 0.126099707 0.018572825
vt 0.126099707 0.0195503421
vt 0.12512219 0.018572825
vt 0.134897361 0.0195503421
vt 0.134897361 0.018572825
vt 0.134897361 0
vt 0.135874878 0
vt 0.135874878 0.018572825
vt 0.135874878 0.018572825
vt 0.983382209 0.89540567
vt 0.964809384 0.89540567
vt 0.964809384 0.89540567
vt 0.983382209 0.894428152
vt 0.983382209 0.894428152
vt 0.983382209 0.89540567
vt 0.984359726 0.553274682
vt 0.983382209 0.553274682
vt 0.964809384 0.553274682
vt 0.964809384 0.552297165
vt 0.983382209 0.552297165
vt 0.984359726 0.553274682
vt 0 0.018572825
vt 0.000977517107 0
vt 0 0
vt 0.000977517107 0.018572825
vt 0.000977517107 0.0195503421
vt 0 0.018572825
vt 0.00977517107 0.0195503421
vt 0.00977517107 0.018572825
vt 0.00977517107 0
vt 0.0107526882 0
vt 0.0107526882 0.018572825
vt 0.0107526882 0.018572825
vt 0.972629521 0
vt 0.991202346 0.000977517107
vt 0.991202346 0
vt 0.972629521 0.000977517107
vt 0.971652004 0.000977517107
vt 0.971652004 0.000977517107
vt 0.971652004 0.342130987
vt 0.972629521 0.342130987
vt 0.991202346 0.343108504
vt 0.991202346 0.343108504
vt 0.972629521 0.343108504
vt 0.972629521 0.343108504
vt 1 0.684261975
vt 0.999022483 0.685239492
vt 1 0.685239492
vt 0.999022483 0.684261975
vt 0.998044966 0.344086022
vt 0.990224829 0.684261975
vt 0.990224829 0.685239492
vt 0.989247312 0.684261975
vt 0.989247312 0.685239492
vt 0.987292278 0.344086022
vt 0.986314761 0.344086022
vt 0.997067449 0.344086022
vt 0.987292278 0.343108504
vt 0.987292278 0.344086022
vt 0.997067449 0.343108504
vt 0.997067449 0.344086022
vt 0.594330401 0.627565982
vt 0.599217986 0.627565982
vt 0.599217986 0.470185728
vt 0.594330401 0.470185728
vt 0.594330401 0.465298143
vt 0.598240469 0.46627566
vt 0.498533724 0.465298143
vt 0.498533724 0.469208211
vt 0.497556207 0.627565982
vt 0.493646139 0.627565982
vt 0.493646139 0.469208211
vt 0.494623656 0.465298143
vt 0.655913978 0.809384164
vt 0.659824047 0.651026393
vt 0.654936461 0.651026393
vt 0.660801564 0.809384164
vt 0.660801564 0.813294233
vt 0.656891496 0.813294233
vt 0.744868035 0.813294233
vt 0.744868035 0.809384164
vt 0.744868035 0.651026393
vt 0.748778104 0.651026393
vt 0.748778104 0.809384164
vt 0.748778104 0.813294233
vt 0.600195503 0.483870968
vt 0.605083089 0.325513196
vt 0.600195503 0.325513196
vt 0.605083089 0.482893451
vt 0.605083089 0.487781036
vt 0.601173021 0.486803519
vt 0.700879765 0.487781036
vt 0.700879765 0.483870968
vt 0.700879765 0.325513196
vt 0.705767351 0.325513196
vt 0.705767351 0.483870968
vt 0.704789834 0.487781036
vt 0.787878788 0.622678397
vt 0.792766373 0.464320626
vt 0.787878788 0.465298143
vt 0.792766373 0.622678397
vt 0.792766373 0.626588465
vt 0.788856305 0.626588465
vt 0.876832845 0.627565982
vt 0.876832845 0.622678397
vt 0.876832845 0.464320626
vt 0.88172043 0.464320626
vt 0.88172043 0.622678397
vt 0.880742913 0.626588465
vt 0.0899315738 0.835777126
vt 0.0938416422 0.839687195
vt 0.0928641251 0.836754643
vt 0.0889540567 0.839687195
vt 0.00488758553 0.834799609
vt 0.0889540567 0.936461388
vt 0.0928641251 0.936461388
vt 0.0889540567 0.940371457
vt 0.0928641251 0.940371457
vt 0.00488758553 0.935483871
vt 0.00488758553 0.940371457
vt 0.00488758553 0.839687195
vt 0 0.935483871
vt 0.000977517107 0.939393939
vt 0.000977517107 0.839687195
vt 0.000977517107 0.835777126
vt 0.100684262 0.509286413
vt 0.105571848 0.509286413
vt 0.105571848 0.351906158
vt 0.100684262 0.351906158
vt 0.100684262 0.347018573
vt 0.10459433 0.34799609
vt 0.00488758553 0.347018573
vt 0.00488758553 0.350928641
vt 0.00488758553 0.509286413
vt 0 0.509286413
vt 0.000977517107 0.350928641
vt 0.000977517107 0.347018573
vt 0.147605083 0.815249267
vt 0.151515152 0.657869013
vt 0.147605083 0.657869013
vt 0.152492669 0.815249267
vt 0.152492669 0.820136852
vt 0.1485826 0.819159335
vt 0.23655914 0.820136852
vt 0.23655914 0.815249267
vt 0.23655914 0.656891496
vt 0.241446725 0.656891496
vt 0.241446725 0.815249267
vt 0.240469208 0.819159335
vt 0.126099707 0.65200391
vt 0.130009775 0.494623656
vt 0.12512219 0.494623656
vt 0.130009775 0.65200391
vt 0.130009775 0.656891496
vt 0.126099707 0.655913978
vt 0.225806452 0.656891496
vt 0.225806452 0.65200391
vt 0.226783969 0.493646139
vt 0.230694037 0.493646139
vt 0.230694037 0.652981427
vt 0.22971652 0.655913978
vt 0.854349951 0.320625611
vt 0.859237537 0.163245357
vt 0.854349951 0.163245357
vt 0.859237537 0.320625611
vt 0.859237537 0.325513196
vt 0.855327468 0.324535679
vt 0.943304008 0.325513196
vt 0.943304008 0.320625611
vt 0.943304008 0.163245357
vt 0.948191593 0.163245357
vt 0.948191593 0.321603128
vt 0.947214076 0.324535679
vt 0.490713587 0.790811339
vt 0.495601173 0.795698925
vt 0.494623656 0.791788856
vt 0.490713587 0.795698925
vt 0.406647116 0.789833822
vt 0.48973607 0.891495601
vt 0.494623656 0.891495601
vt 0.48973607 0.89540567
vt 0.493646139 0.89540567
vt 0.405669599 0.890518084
vt 0.405669599 0.89540567
vt 0.406647116 0.794721408
vt 0.401759531 0.890518084
vt 0.401759531 0.894428152
vt 0.401759531 0.794721408
vt 0.402737048 0.790811339
vt 0.333333333 0.655913978
vt 0.337243402 0.655913978
vt 0.337243402 0.498533724
vt 0.333333333 0.498533724
vt 0.333333333 0.493646139
vt 0.337243402 0.494623656
vt 0.23655914 0.492668622
vt 0.237536657 0.497556207
vt 0.23655914 0.655913978
vt 0.231671554 0.655913978
vt 0.232649071 0.497556207
vt 0.233626588 0.493646139
vt 0.541544477 0.809384164
vt 0.545454545 0.651026393
vt 0.541544477 0.651026393
vt 0.546432063 0.809384164
vt 0.546432063 0.813294233
vt 0.542521994 0.813294233
vt 0.630498534 0.813294233
vt 0.630498534 0.809384164
vt 0.630498534 0.651026393
vt 0.635386119 0.651026393
vt 0.635386119 0.809384164
vt 0.634408602 0.813294233
vt 0.600195503 0.646138807
vt 0.605083089 0.488758553
vt 0.600195503 0.488758553
vt 0.605083089 0.646138807
vt 0.605083089 0.651026393
vt 0.601173021 0.650048876
vt 0.700879765 0.651026393
vt 0.700879765 0.646138807
vt 0.700879765 0.487781036
vt 0.705767351 0.487781036
vt 0.705767351 0.647116325
vt 0.704789834 0.650048876
vt 0.751710655 0.838709677
vt 0.755620723 0.680351906
vt 0.750733138 0.680351906
vt 0.755620723 0.838709677
vt 0.755620723 0.842619746
vt 0.751710655 0.841642229
vt 0.840664712 0.842619746
vt 0.839687195 0.838709677
vt 0.840664712 0.680351906
vt 0.84457478 0.680351906
vt 0.84457478 0.838709677
vt 0.843597263 0.842619746
vt 0.18572825 0.820136852
vt 0.189638319 0.824046921
vt 0.188660802 0.82111437
vt 0.184750733 0.824046921
vt 0.100684262 0.819159335
vt 0.184750733 0.920821114
vt 0.188660802 0.920821114
vt 0.184750733 0.924731183
vt 0.188660802 0.924731183
vt 0.100684262 0.919843597
vt 0.0997067449 0.924731183
vt 0.100684262 0.824046921
vt 0.0957966764 0.919843597
vt 0.0967741935 0.923753666
vt 0.0967741935 0.824046921
vt 0.0967741935 0.820136852
vt 0.594330401 0.16226784
vt 0.599217986 0.16226784
vt 0.599217986 0.00488758553
vt 0.594330401 0.00488758553
vt 0.594330401 0.000977517107
vt 0.598240469 0.000977517107
vt 0.498533724 0
vt 0.498533724 0.00488758553
vt 0.497556207 0.163245357
vt 0.493646139 0.163245357
vt 0.493646139 0.00488758553
vt 0.494623656 0.000977517107
vt 0.445747801 0.785923754
vt 0.449657869 0.6285435
vt 0.445747801 0.6285435
vt 0.450635386 0.785923754
vt 0.450635386 0.790811339
vt 0.446725318 0.789833822
vt 0.534701857 0.790811339
vt 0.534701857 0.785923754
vt 0.534701857 0.627565982
vt 0.539589443 0.627565982
vt 0.539589443 0.785923754
vt 0.538611926 0.789833822
vt 0.018572825 0.667644184
vt 0.0234604106 0.51026393
vt 0.018572825 0.51026393
vt 0.0234604106 0.667644184
vt 0.0234604106 0.671554252
vt 0.0195503421 0.671554252
vt 0.119257087 0.672531769
vt 0.119257087 0.667644184
vt 0.119257087 0.509286413
vt 0.124144673 0.509286413
vt 0.124144673 0.667644184
vt 0.123167155 0.671554252
vt 0.758553275 0.320625611
vt 0.76344086 0.16226784
vt 0.758553275 0.16226784
vt 0.76344086 0.320625611
vt 0.76344086 0.324535679
vt 0.759530792 0.323558162
vt 0.847507331 0.325513196
vt 0.847507331 0.320625611
vt 0.847507331 0.16226784
vt 0.852394917 0.16226784
vt 0.852394917 0.320625611
vt 0.8514174 0.324535679
vt 0.586510264 0.81427175
vt 0.591397849 0.818181818
vt 0.590420332 0.81427175
vt 0.586510264 0.818181818
vt 0.502443793 0.813294233
vt 0.585532747 0.913978495
vt 0.590420332 0.914956012
vt 0.585532747 0.91886608
vt 0.589442815 0.917888563
vt 0.501466276 0.913978495
vt 0.501466276 0.91886608
vt 0.502443793 0.818181818
vt 0.49657869 0.913978495
vt 0.497556207 0.917888563
vt 0.497556207 0.818181818
vt 0.498533724 0.81427175
vt 0.386119257 0.494623656
vt 0.444770283 0.493646139
vt 0.442815249 0.34799609
vt 0.386119257 0.350928641
vt 0.327468231 0.493646139
vt 0.328445748 0.348973607
vt 0.329423265 0.343108504
vt 0.386119257 0.345063539
vt 0.441837732 0.343108504
vt 0.430107527 0.302052786
vt 0.488758553 0.302052786
vt 0.486803519 0.156402737
vt 0.430107527 0.158357771
vt 0.3714565 0.301075269
vt 0.372434018 0.156402737
vt 0.373411535 0.151515152
vt 0.430107527 0.153470186
vt 0.485826002 0.150537634
vt 0.434017595 0
vt 0.375366569 0
vt 0.377321603 0.145650049
vt 0.434017595 0.143695015
vt 0.492668622 0.000977517107
vt 0.491691105 0.145650049
vt 0.490713587 0.150537634
vt 0.434017595 0.1485826
vt 0.37829912 0.151515152
vt 0.268817204 0.343108504
vt 0.210166178 0.343108504
vt 0.211143695 0.488758553
vt 0.268817204 0.485826002
vt 0.326490714 0.343108504
vt 0.326490714 0.488758553
vt 0.324535679 0.493646139
vt 0.268817204 0.491691105
vt 0.213098729 0.493646139
vt 0.00195503421 0.168132942
vt 0.0234604106 0.154447703
vt 0.0215053763 0.153470186
vt 0.00293255132 0.171065494
vt 0.000977517107 0.171065494
vt 0.000977517107 0.170087977
vt 0 0.345063539
vt 0.0977517107 0.15542522
vt 0.0254154448 0.152492669
vt 0.0977517107 0.153470186
vt 0.0997067449 0.15542522
vt 0.0997067449 0.153470186
vt 0.0967741935 0.345063539
vt 0.0987292278 0.345063539
vt 0.00195503421 0.344086022
vt 0.0967741935 0.347018573
vt 0.0987292278 0.347018573
vt 0.00195503421 0.347018573
vt 0 0.346041056
vt 0.217986315 0
vt 0.291300098 0.00293255132
vt 0.290322581 0.000977517107
vt 0.217986315 0.00195503421
vt 0.215053763 0.00195503421
vt 0.216031281 0
vt 0.213098729 0.191593353
vt 0.311827957 0.018572825
vt 0.293255132 0.00195503421
vt 0.312805474 0.0166177908
vt 0.216031281 0.191593353
vt 0.313782991 0.0195503421
vt 0.313782991 0.0175953079
vt 0.309872923 0.19257087
vt 0.312805474 0.19257087
vt 0.309872923 0.194525904
vt 0.311827957 0.194525904
vt 0.216031281 0.193548387
vt 0.214076246 0.193548387
vt 0.397849462 0.831867058
vt 0.395894428 0.833822092
vt 0.396871945 0.833822092
vt 0.395894428 0.831867058
vt 0.397849462 0.65884653
vt 0.34115347 0.831867058
vt 0.34115347 0.833822092
vt 0.395894428 0.65884653
vt 0.339198436 0.831867058
vt 0.339198436 0.833822092
vt 0.34115347 0.65884653
vt 0.339198436 0.65884653
vt 0.34115347 0.656891496
vt 0.339198436 0.656891496
vt 0.395894428 0.656891496
vt 0.397849462 0.656891496
vt 0.801564027 0.424242424
vt 0.799608993 0.42228739
vt 0.799608993 0.424242424
vt 0.801564027 0.42228739
vt 0.856304985 0.424242424
vt 0.801564027 0.327468231
vt 0.798631476 0.327468231
vt 0.80058651 0.325513196
vt 0.799608993 0.325513196
vt 0.855327468 0.327468231
vt 0.855327468 0.325513196
vt 0.856304985 0.421309873
vt 0.85826002 0.327468231
vt 0.857282502 0.325513196
vt 0.85826002 0.421309873
vt 0.85826002 0.423264907
vt 0.885630499 0.519061584
vt 0.883675464 0.517106549
vt 0.883675464 0.519061584
vt 0.885630499 0.517106549
vt 0.940371457 0.520039101
vt 0.886608016 0.327468231
vt 0.884652981 0.327468231
vt 0.886608016 0.325513196
vt 0.885630499 0.325513196
vt 0.941348974 0.328445748
vt 0.941348974 0.325513196
vt 0.940371457 0.517106549
vt 0.943304008 0.328445748
vt 0.943304008 0.326490714
vt 0.942326491 0.517106549
vt 0.942326491 0.519061584
vt 0.820136852 0.100684262
vt 0.818181818 0.102639296
vt 0.820136852 0.102639296
vt 0.818181818 0.100684262
vt 0.82111437 0.0772238514
vt 0.765395894 0.0997067449
vt 0.765395894 0.101661779
vt 0.762463343 0.0997067449
vt 0.76344086 0.101661779
vt 0.766373412 0.0762463343
vt 0.76344086 0.0762463343
vt 0.818181818 0.0772238514
vt 0.766373412 0.0742913001
vt 0.818181818 0.0752688172
vt 0.764418377 0.0742913001
vt 0.76344086 0.0723362659
vt 0.762463343 0.0742913001
vt 0.766373412 0.0723362659
vt 0.767350929 0.00195503421
vt 0.765395894 0.00195503421
vt 0.767350929 0
vt 0.765395894 0
vt 0.820136852 0.00391006843
vt 0.82111437 0.000977517107
vt 0.818181818 0.073313783
vt 0.823069404 0.00391006843
vt 0.822091887 0.00195503421
vt 0.82111437 0.073313783
vt 0.820136852 0.0752688172
vt 0.822091887 0.0752688172
vt 0.0762463343 0.153470186
vt 0.0263929619 0.126099707
vt 0.0224828935 0.130987292
vt 0.0762463343 0.146627566
vt 0.0762463343 0.0762463343
vt 0.130987292 0.130987292
vt 0.00586510264 0.0762463343
vt 0 0.0762463343
vt 0.126099707 0.126099707
vt 0.153470186 0.0762463343
vt 0.0263929619 0.0263929619
vt 0.0224828935 0.0224828935
vt 0.146627566 0.0762463343
vt 0.130987292 0.0224828935
vt 0.0762463343 0.00586510264
vt 0.0762463343 0
vt 0.126099707 0.0263929619
g Item_23Item_23_mobile_0
f 3/3/3 2/2/2 1/1/1
f 4/4/4 3/3/3 1/1/1
f 3/3/3 4/4/4 5/5/5
f 6/6/6 3/3/3 5/5/5
f 7/7/7 5/5/5 4/4/4
f 4/4/4 1/1/1 8/8/8
f 8/8/8 7/7/7 4/4/4
f 1/1/1 9/9/9 8/8/8
f 9/9/9 10/10/10 8/8/8
f 10/10/10 11/11/11 8/8/8
f 7/7/7 8/8/8 11/11/11
f 12/12/12 7/7/7 11/11/11
f 15/15/15 14/14/14 13/13/13
f 14/14/14 16/16/16 13/13/13
f 13/13/13 16/16/16 17/17/17
f 18/18/18 13/13/13 17/17/17
f 17/17/17 16/16/16 19/19/19
f 16/16/16 14/14/14 20/20/20
f 16/16/16 20/20/20 19/19/19
f 14/14/14 21/21/21 20/20/20
f 20/20/20 21/21/21 22/22/22
f 23/23/23 20/20/20 22/22/22
f 19/19/19 20/20/20 23/23/23
f 24/24/24 19/19/19 23/23/23
f 27/27/27 26/26/26 25/25/25
f 26/26/26 28/28/28 25/25/25
f 25/25/25 28/28/28 29/29/29
f 30/30/30 25/25/25 29/29/29
f 29/29/29 28/28/28 31/31/31
f 28/28/28 26/26/26 32/32/32
f 28/28/28 32/32/32 31/31/31
f 26/26/26 33/33/33 32/32/32
f 33/33/33 34/34/34 32/32/32
f 34/34/34 35/35/35 32/32/32
f 31/31/31 32/32/32 35/35/35
f 36/36/36 31/31/31 35/35/35
f 39/39/39 38/38/38 37/37/37
f 38/38/38 40/40/40 37/37/37
f 37/37/37 40/40/40 41/41/41
f 42/42/42 37/37/37 41/41/41
f 41/41/41 40/40/40 43/43/43
f 40/40/40 38/38/38 44/44/44
f 40/40/40 44/44/44 43/43/43
f 38/38/38 45/45/45 44/44/44
f 45/45/45 46/46/46 44/44/44
f 46/46/46 47/47/47 44/44/44
f 43/43/43 44/44/44 47/47/47
f 48/48/48 43/43/43 47/47/47
f 51/51/51 50/50/50 49/49/49
f 50/50/50 52/52/52 49/49/49
f 53/53/53 49/49/49 52/52/52
f 54/54/54 52/52/52 50/50/50
f 55/55/55 54/54/54 50/50/50
f 56/56/56 54/54/54 55/55/55
f 57/57/57 56/56/56 55/55/55
f 54/54/54 56/56/56 58/58/58
f 52/52/52 54/54/54 58/58/58
f 56/56/56 59/59/59 58/58/58
f 60/60/60 53/53/53 52/52/52
f 60/60/60 52/52/52 58/58/58
f 61/61/61 58/58/58 59/59/59
f 58/58/58 61/61/61 60/60/60
f 62/62/62 61/61/61 59/59/59
f 61/61/61 63/63/63 60/60/60
f 53/53/53 60/60/60 63/63/63
f 64/64/64 53/53/53 63/63/63
f 67/67/67 66/66/66 65/65/65
f 66/66/66 68/68/68 65/65/65
f 65/65/65 68/68/68 69/69/69
f 70/70/70 65/65/65 69/69/69
f 71/71/71 69/69/69 68/68/68
f 72/72/72 71/71/71 68/68/68
f 72/72/72 68/68/68 66/66/66
f 71/71/71 72/72/72 73/73/73
f 74/74/74 71/71/71 73/73/73
f 75/75/75 73/73/73 72/72/72
f 76/76/76 72/72/72 66/66/66
f 76/76/76 75/75/75 72/72/72
f 75/75/75 76/76/76 77/77/77
f 78/78/78 75/75/75 77/77/77
f 77/77/77 76/76/76 79/79/79
f 66/66/66 80/80/80 76/76/76
f 76/76/76 80/80/80 79/79/79
f 80/80/80 66/66/66 81/81/81
f 82/82/82 80/80/80 81/81/81
f 79/79/79 80/80/80 82/82/82
f 83/83/83 79/79/79 82/82/82
f 86/86/86 85/85/85 84/84/84
f 85/85/85 87/87/87 84/84/84
f 88/88/88 84/84/84 87/87/87
f 89/89/89 84/84/84 88/88/88
f 90/90/90 88/88/88 87/87/87
f 90/90/90 87/87/87 91/91/91
f 90/90/90 91/91/91 88/88/88
f 87/87/87 92/92/92 91/91/91
f 93/93/93 89/89/89 88/88/88
f 91/91/91 94/94/94 88/88/88
f 93/93/93 88/88/88 94/94/94
f 95/95/95 89/89/89 93/93/93
f 89/89/89 95/95/95 96/96/96
f 95/95/95 97/97/97 96/96/96
f 94/94/94 91/91/91 98/98/98
f 91/91/91 99/99/99 98/98/98
f 100/100/100 98/98/98 99/99/99
f 101/101/101 100/100/100 99/99/99
f 102/102/102 98/98/98 100/100/100
f 94/94/94 98/98/98 102/102/102
f 103/103/103 102/102/102 100/100/100
f 104/104/104 94/94/94 102/102/102
f 104/104/104 93/93/93 94/94/94
f 105/105/105 102/102/102 103/103/103
f 104/104/104 102/102/102 105/105/105
f 106/106/106 105/105/105 103/103/103
f 107/107/107 104/104/104 105/105/105
f 93/93/93 104/104/104 107/107/107
f 107/107/107 108/108/108 95/95/95
f 109/109/109 93/93/93 107/107/107
f 109/109/109 95/95/95 93/93/93
f 109/109/109 107/107/107 95/95/95
f 112/112/112 111/111/111 110/110/110
f 111/111/111 113/113/113 110/110/110
f 110/110/110 113/113/113 114/114/114
f 115/115/115 110/110/110 114/114/114
f 114/114/114 113/113/113 116/116/116
f 113/113/113 117/117/117 116/116/116
f 117/117/117 113/113/113 111/111/111
f 116/116/116 117/117/117 118/118/118
f 119/119/119 116/116/116 118/118/118
f 118/118/118 117/117/117 120/120/120
f 111/111/111 121/121/121 117/117/117
f 117/117/117 121/121/121 120/120/120
f 120/120/120 121/121/121 122/122/122
f 123/123/123 120/120/120 122/122/122
f 124/124/124 122/122/122 121/121/121
f 111/111/111 125/125/125 121/121/121
f 125/125/125 124/124/124 121/121/121
f 111/111/111 126/126/126 125/125/125
f 126/126/126 127/127/127 125/125/125
f 124/124/124 125/125/125 127/127/127
f 128/128/128 124/124/124 127/127/127
f 131/131/131 130/130/130 129/129/129
f 130/130/130 132/132/132 129/129/129
f 130/130/130 133/133/133 132/132/132
f 133/133/133 130/130/130 134/134/134
f 135/135/135 133/133/133 134/134/134
f 135/135/135 136/136/136 133/133/133
f 133/133/133 137/137/137 132/132/132
f 138/138/138 132/132/132 137/137/137
f 139/139/139 138/138/138 137/137/137
f 139/139/139 137/137/137 140/140/140
f 136/136/136 141/141/141 133/133/133
f 133/133/133 141/141/141 137/137/137
f 137/137/137 142/142/142 140/140/140
f 141/141/141 142/142/142 137/137/137
f 143/143/143 140/140/140 142/142/142
f 141/141/141 136/136/136 144/144/144
f 136/136/136 145/145/145 144/144/144
f 146/146/146 142/142/142 141/141/141
f 146/146/146 143/143/143 142/142/142
f 144/144/144 146/146/146 141/141/141
f 147/147/147 144/144/144 145/145/145
f 144/144/144 147/147/147 146/146/146
f 148/148/148 147/147/147 145/145/145
f 147/147/147 149/149/149 146/146/146
f 143/143/143 146/146/146 149/149/149
f 150/150/150 143/143/143 149/149/149
f 153/153/153 152/152/152 151/151/151
f 152/152/152 154/154/154 151/151/151
f 155/155/155 151/151/151 154/154/154
f 156/156/156 154/154/154 152/152/152
f 157/157/157 156/156/156 152/152/152
f 158/158/158 156/156/156 157/157/157
f 159/159/159 158/158/158 157/157/157
f 160/160/160 156/156/156 158/158/158
f 156/156/156 160/160/160 154/154/154
f 161/161/161 160/160/160 158/158/158
f 162/162/162 155/155/155 154/154/154
f 160/160/160 162/162/162 154/154/154
f 163/163/163 160/160/160 161/161/161
f 162/162/162 160/160/160 163/163/163
f 164/164/164 163/163/163 161/161/161
f 165/165/165 162/162/162 163/163/163
f 155/155/155 162/162/162 165/165/165
f 166/166/166 155/155/155 165/165/165
f 169/169/169 168/168/168 167/167/167
f 168/168/168 170/170/170 167/167/167
f 171/171/171 167/167/167 170/170/170
f 172/172/172 170/170/170 168/168/168
f 173/173/173 172/172/172 168/168/168
f 174/174/174 172/172/172 173/173/173
f 175/175/175 174/174/174 173/173/173
f 176/176/176 172/172/172 174/174/174
f 170/170/170 172/172/172 176/176/176
f 177/177/177 176/176/176 174/174/174
f 178/178/178 171/171/171 170/170/170
f 178/178/178 170/170/170 176/176/176
f 179/179/179 176/176/176 177/177/177
f 176/176/176 179/179/179 178/178/178
f 180/180/180 179/179/179 177/177/177
f 179/179/179 181/181/181 178/178/178
f 171/171/171 178/178/178 181/181/181
f 182/182/182 171/171/171 181/181/181
f 185/185/185 184/184/184 183/183/183
f 184/184/184 186/186/186 183/183/183
f 183/183/183 186/186/186 187/187/187
f 188/188/188 183/183/183 187/187/187
f 189/189/189 187/187/187 186/186/186
f 190/190/190 189/189/189 186/186/186
f 190/190/190 186/186/186 184/184/184
f 189/189/189 190/190/190 191/191/191
f 192/192/192 189/189/189 191/191/191
f 193/193/193 191/191/191 190/190/190
f 194/194/194 190/190/190 184/184/184
f 194/194/194 193/193/193 190/190/190
f 193/193/193 194/194/194 195/195/195
f 196/196/196 193/193/193 195/195/195
f 195/195/195 194/194/194 197/197/197
f 184/184/184 198/198/198 194/194/194
f 194/194/194 198/198/198 197/197/197
f 198/198/198 184/184/184 199/199/199
f 200/200/200 198/198/198 199/199/199
f 197/197/197 198/198/198 200/200/200
f 201/201/201 197/197/197 200/200/200
f 204/204/204 203/203/203 202/202/202
f 203/203/203 205/205/205 202/202/202
f 202/202/202 205/205/205 206/206/206
f 207/207/207 202/202/202 206/206/206
f 208/208/208 206/206/206 205/205/205
f 209/209/209 205/205/205 203/203/203
f 209/209/209 208/208/208 205/205/205
f 210/210/210 209/209/209 203/203/203
f 210/210/210 211/211/211 209/209/209
f 211/211/211 212/212/212 209/209/209
f 208/208/208 209/209/209 212/212/212
f 211/211/211 213/213/213 212/212/212
f 213/213/213 214/214/214 212/212/212
f 213/213/213 215/215/215 214/214/214
f 215/215/215 216/216/216 214/214/214
f 216/216/216 217/217/217 214/214/214
f 217/217/217 218/218/218 214/214/214
f 212/212/212 214/214/214 218/218/218
f 218/218/218 219/219/219 208/208/208
f 220/220/220 212/212/212 218/218/218
f 220/220/220 208/208/208 212/212/212
f 220/220/220 218/218/218 208/208/208
f 223/223/223 222/222/222 221/221/221
f 222/222/222 224/224/224 221/221/221
f 221/221/221 224/224/224 225/225/225
f 226/226/226 221/221/221 225/225/225
f 225/225/225 224/224/224 227/227/227
f 224/224/224 222/222/222 228/228/228
f 224/224/224 228/228/228 227/227/227
f 222/222/222 229/229/229 228/228/228
f 229/229/229 230/230/230 228/228/228
f 230/230/230 231/231/231 228/228/228
f 227/227/227 228/228/228 231/231/231
f 232/232/232 227/227/227 231/231/231
f 235/235/235 234/234/234 233/233/233
f 234/234/234 236/236/236 233/233/233
f 237/237/237 233/233/233 236/236/236
f 238/238/238 237/237/237 236/236/236
f 238/238/238 236/236/236 239/239/239
f 234/234/234 240/240/240 236/236/236
f 236/236/236 241/241/241 239/239/239
f 240/240/240 241/241/241 236/236/236
f 242/242/242 239/239/239 241/241/241
f 243/243/243 241/241/241 240/240/240
f 243/243/243 242/242/242 241/241/241
f 244/244/244 243/243/243 240/240/240
f 244/244/244 245/245/245 243/243/243
f 245/245/245 246/246/246 243/243/243
f 242/242/242 243/243/243 246/246/246
f 247/247/247 242/242/242 246/246/246
f 250/250/250 249/249/249 248/248/248
f 249/249/249 251/251/251 248/248/248
f 248/248/248 251/251/251 252/252/252
f 253/253/253 248/248/248 252/252/252
f 252/252/252 251/251/251 254/254/254
f 255/255/255 251/251/251 249/249/249
f 251/251/251 255/255/255 254/254/254
f 256/256/256 255/255/255 249/249/249
f 256/256/256 257/257/257 255/255/255
f 257/257/257 258/258/258 255/255/255
f 254/254/254 255/255/255 258/258/258
f 259/259/259 254/254/254 258/258/258
f 262/262/262 261/261/261 260/260/260
f 263/263/263 262/262/262 260/260/260
f 262/262/262 263/263/263 264/264/264
f 265/265/265 262/262/262 264/264/264
f 266/266/266 264/264/264 263/263/263
f 263/263/263 260/260/260 267/267/267
f 267/267/267 266/266/266 263/263/263
f 260/260/260 268/268/268 267/267/267
f 268/268/268 269/269/269 267/267/267
f 269/269/269 270/270/270 267/267/267
f 266/266/266 267/267/267 270/270/270
f 271/271/271 266/266/266 270/270/270
f 274/274/274 273/273/273 272/272/272
f 273/273/273 275/275/275 272/272/272
f 272/272/272 275/275/275 276/276/276
f 277/277/277 272/272/272 276/276/276
f 276/276/276 275/275/275 278/278/278
f 275/275/275 273/273/273 279/279/279
f 275/275/275 279/279/279 278/278/278
f 273/273/273 280/280/280 279/279/279
f 279/279/279 280/280/280 281/281/281
f 282/282/282 279/279/279 281/281/281
f 278/278/278 279/279/279 282/282/282
f 283/283/283 278/278/278 282/282/282
f 286/286/286 285/285/285 284/284/284
f 285/285/285 287/287/287 284/284/284
f 284/284/284 287/287/287 288/288/288
f 289/289/289 284/284/284 288/288/288
f 288/288/288 287/287/287 290/290/290
f 287/287/287 285/285/285 291/291/291
f 287/287/287 291/291/291 290/290/290
f 285/285/285 292/292/292 291/291/291
f 292/292/292 293/293/293 291/291/291
f 293/293/293 294/294/294 291/291/291
f 290/290/290 291/291/291 294/294/294
f 295/295/295 290/290/290 294/294/294
f 298/298/298 297/297/297 296/296/296
f 297/297/297 299/299/299 296/296/296
f 296/296/296 299/299/299 300/300/300
f 301/301/301 296/296/296 300/300/300
f 300/300/300 299/299/299 302/302/302
f 299/299/299 297/297/297 303/303/303
f 299/299/299 303/303/303 302/302/302
f 297/297/297 304/304/304 303/303/303
f 304/304/304 305/305/305 303/303/303
f 305/305/305 306/306/306 303/303/303
f 302/302/302 303/303/303 306/306/306
f 307/307/307 302/302/302 306/306/306
f 310/310/310 309/309/309 308/308/308
f 309/309/309 311/311/311 308/308/308
f 312/312/312 308/308/308 311/311/311
f 313/313/313 311/311/311 309/309/309
f 314/314/314 313/313/313 309/309/309
f 315/315/315 313/313/313 314/314/314
f 316/316/316 315/315/315 314/314/314
f 313/313/313 315/315/315 317/317/317
f 311/311/311 313/313/313 317/317/317
f 315/315/315 318/318/318 317/317/317
f 319/319/319 312/312/312 311/311/311
f 319/319/319 311/311/311 317/317/317
f 320/320/320 317/317/317 318/318/318
f 317/317/317 320/320/320 319/319/319
f 321/321/321 320/320/320 318/318/318
f 320/320/320 322/322/322 319/319/319
f 312/312/312 319/319/319 322/322/322
f 323/323/323 312/312/312 322/322/322
f 326/326/326 325/325/325 324/324/324
f 327/327/327 326/326/326 324/324/324
f 326/326/326 327/327/327 328/328/328
f 329/329/329 326/326/326 328/328/328
f 330/330/330 328/328/328 327/327/327
f 331/331/331 327/327/327 324/324/324
f 331/331/331 330/330/330 327/327/327
f 332/332/332 331/331/331 324/324/324
f 332/332/332 333/333/333 331/331/331
f 333/333/333 334/334/334 331/331/331
f 330/330/330 331/331/331 334/334/334
f 335/335/335 330/330/330 334/334/334
f 338/338/338 337/337/337 336/336/336
f 337/337/337 339/339/339 336/336/336
f 336/336/336 339/339/339 340/340/340
f 341/341/341 336/336/336 340/340/340
f 342/342/342 340/340/340 339/339/339
f 343/343/343 339/339/339 337/337/337
f 343/343/343 342/342/342 339/339/339
f 344/344/344 343/343/343 337/337/337
f 344/344/344 345/345/345 343/343/343
f 345/345/345 346/346/346 343/343/343
f 342/342/342 343/343/343 346/346/346
f 347/347/347 342/342/342 346/346/346
f 350/350/350 349/349/349 348/348/348
f 349/349/349 351/351/351 348/348/348
f 348/348/348 351/351/351 352/352/352
f 353/353/353 348/348/348 352/352/352
f 354/354/354 352/352/352 351/351/351
f 355/355/355 351/351/351 349/349/349
f 355/355/355 354/354/354 351/351/351
f 356/356/356 355/355/355 349/349/349
f 356/356/356 357/357/357 355/355/355
f 357/357/357 358/358/358 355/355/355
f 354/354/354 355/355/355 358/358/358
f 359/359/359 354/354/354 358/358/358
f 362/362/362 361/361/361 360/360/360
f 361/361/361 363/363/363 360/360/360
f 360/360/360 363/363/363 364/364/364
f 365/365/365 360/360/360 364/364/364
f 364/364/364 363/363/363 366/366/366
f 367/367/367 363/363/363 361/361/361
f 363/363/363 367/367/367 366/366/366
f 368/368/368 367/367/367 361/361/361
f 367/367/367 368/368/368 369/369/369
f 370/370/370 367/367/367 369/369/369
f 366/366/366 367/367/367 370/370/370
f 371/371/371 366/366/366 370/370/370
f 374/374/374 373/373/373 372/372/372
f 373/373/373 375/375/375 372/372/372
f 376/376/376 372/372/372 375/375/375
f 377/377/377 375/375/375 373/373/373
f 378/378/378 377/377/377 373/373/373
f 379/379/379 377/377/377 378/378/378
f 380/380/380 379/379/379 378/378/378
f 381/381/381 377/377/377 379/379/379
f 375/375/375 377/377/377 381/381/381
f 382/382/382 381/381/381 379/379/379
f 383/383/383 376/376/376 375/375/375
f 383/383/383 375/375/375 381/381/381
f 384/384/384 381/381/381 382/382/382
f 383/383/383 381/381/381 384/384/384
f 385/385/385 384/384/384 382/382/382
f 386/386/386 383/383/383 384/384/384
f 376/376/376 383/383/383 386/386/386
f 387/387/387 376/376/376 386/386/386
f 390/390/390 389/389/389 388/388/388
f 391/391/391 390/390/390 388/388/388
f 390/390/390 391/391/391 392/392/392
f 393/393/393 390/390/390 392/392/392
f 394/394/394 392/392/392 391/391/391
f 391/391/391 388/388/388 395/395/395
f 395/395/395 394/394/394 391/391/391
f 388/388/388 396/396/396 395/395/395
f 396/396/396 397/397/397 395/395/395
f 397/397/397 398/398/398 395/395/395
f 394/394/394 395/395/395 398/398/398
f 399/399/399 394/394/394 398/398/398
f 402/402/402 401/401/401 400/400/400
f 401/401/401 403/403/403 400/400/400
f 400/400/400 403/403/403 404/404/404
f 405/405/405 400/400/400 404/404/404
f 404/404/404 403/403/403 406/406/406
f 403/403/403 401/401/401 407/407/407
f 403/403/403 407/407/407 406/406/406
f 401/401/401 408/408/408 407/407/407
f 407/407/407 408/408/408 409/409/409
f 410/410/410 407/407/407 409/409/409
f 406/406/406 407/407/407 410/410/410
f 411/411/411 406/406/406 410/410/410
f 414/414/414 413/413/413 412/412/412
f 413/413/413 415/415/415 412/412/412
f 412/412/412 415/415/415 416/416/416
f 417/417/417 412/412/412 416/416/416
f 416/416/416 415/415/415 418/418/418
f 415/415/415 413/413/413 419/419/419
f 415/415/415 419/419/419 418/418/418
f 413/413/413 420/420/420 419/419/419
f 420/420/420 421/421/421 419/419/419
f 421/421/421 422/422/422 419/419/419
f 418/418/418 419/419/419 422/422/422
f 423/423/423 418/418/418 422/422/422
f 426/426/426 425/425/425 424/424/424
f 425/425/425 427/427/427 424/424/424
f 424/424/424 427/427/427 428/428/428
f 429/429/429 424/424/424 428/428/428
f 428/428/428 427/427/427 430/430/430
f 427/427/427 425/425/425 431/431/431
f 427/427/427 431/431/431 430/430/430
f 425/425/425 432/432/432 431/431/431
f 432/432/432 433/433/433 431/431/431
f 433/433/433 434/434/434 431/431/431
f 430/430/430 431/431/431 434/434/434
f 435/435/435 430/430/430 434/434/434
f 438/438/438 437/437/437 436/436/436
f 437/437/437 439/439/439 436/436/436
f 440/440/440 436/436/436 439/439/439
f 441/441/441 439/439/439 437/437/437
f 442/442/442 441/441/441 437/437/437
f 443/443/443 441/441/441 442/442/442
f 444/444/444 443/443/443 442/442/442
f 441/441/441 443/443/443 445/445/445
f 439/439/439 441/441/441 445/445/445
f 443/443/443 446/446/446 445/445/445
f 447/447/447 440/440/440 439/439/439
f 447/447/447 439/439/439 445/445/445
f 448/448/448 445/445/445 446/446/446
f 445/445/445 448/448/448 447/447/447
f 449/449/449 448/448/448 446/446/446
f 448/448/448 450/450/450 447/447/447
f 440/440/440 447/447/447 450/450/450
f 451/451/451 440/440/440 450/450/450
f 454/454/454 453/453/453 452/452/452
f 455/455/455 454/454/454 452/452/452
f 454/454/454 455/455/455 456/456/456
f 457/457/457 454/454/454 456/456/456
f 458/458/458 456/456/456 455/455/455
f 455/455/455 452/452/452 459/459/459
f 459/459/459 458/458/458 455/455/455
f 452/452/452 460/460/460 459/459/459
f 460/460/460 461/461/461 459/459/459
f 461/461/461 462/462/462 459/459/459
f 458/458/458 459/459/459 462/462/462
f 463/463/463 458/458/458 462/462/462
f 466/466/466 465/465/465 464/464/464
f 465/465/465 467/467/467 464/464/464
f 464/464/464 467/467/467 468/468/468
f 469/469/469 464/464/464 468/468/468
f 468/468/468 467/467/467 470/470/470
f 467/467/467 465/465/465 471/471/471
f 467/467/467 471/471/471 470/470/470
f 465/465/465 472/472/472 471/471/471
f 471/471/471 472/472/472 473/473/473
f 474/474/474 471/471/471 473/473/473
f 470/470/470 471/471/471 474/474/474
f 475/475/475 470/470/470 474/474/474
f 478/478/478 477/477/477 476/476/476
f 477/477/477 479/479/479 476/476/476
f 476/476/476 479/479/479 480/480/480
f 481/481/481 476/476/476 480/480/480
f 480/480/480 479/479/479 482/482/482
f 479/479/479 477/477/477 483/483/483
f 479/479/479 483/483/483 482/482/482
f 477/477/477 484/484/484 483/483/483
f 484/484/484 485/485/485 483/483/483
f 485/485/485 486/486/486 483/483/483
f 482/482/482 483/483/483 486/486/486
f 487/487/487 482/482/482 486/486/486
f 490/490/490 489/489/489 488/488/488
f 489/489/489 491/491/491 488/488/488
f 488/488/488 491/491/491 492/492/492
f 493/493/493 488/488/488 492/492/492
f 492/492/492 491/491/491 494/494/494
f 491/491/491 489/489/489 495/495/495
f 491/491/491 495/495/495 494/494/494
f 489/489/489 496/496/496 495/495/495
f 496/496/496 497/497/497 495/495/495
f 497/497/497 498/498/498 495/495/495
f 494/494/494 495/495/495 498/498/498
f 499/499/499 494/494/494 498/498/498
f 502/502/502 501/501/501 500/500/500
f 501/501/501 503/503/503 500/500/500
f 504/504/504 500/500/500 503/503/503
f 505/505/505 503/503/503 501/501/501
f 506/506/506 505/505/505 501/501/501
f 507/507/507 505/505/505 506/506/506
f 508/508/508 507/507/507 506/506/506
f 505/505/505 507/507/507 509/509/509
f 503/503/503 505/505/505 509/509/509
f 507/507/507 510/510/510 509/509/509
f 511/511/511 504/504/504 503/503/503
f 511/511/511 503/503/503 509/509/509
f 512/512/512 509/509/509 510/510/510
f 509/509/509 512/512/512 511/511/511
f 513/513/513 512/512/512 510/510/510
f 512/512/512 514/514/514 511/511/511
f 504/504/504 511/511/511 514/514/514
f 515/515/515 504/504/504 514/514/514
f 518/518/518 517/517/517 516/516/516
f 519/519/519 518/518/518 516/516/516
f 518/518/518 519/519/519 520/520/520
f 521/521/521 518/518/518 520/520/520
f 522/522/522 520/520/520 519/519/519
f 519/519/519 516/516/516 523/523/523
f 523/523/523 522/522/522 519/519/519
f 516/516/516 524/524/524 523/523/523
f 524/524/524 525/525/525 523/523/523
f 525/525/525 526/526/526 523/523/523
f 522/522/522 523/523/523 526/526/526
f 527/527/527 522/522/522 526/526/526
f 530/530/530 529/529/529 528/528/528
f 529/529/529 531/531/531 528/528/528
f 528/528/528 531/531/531 532/532/532
f 533/533/533 528/528/528 532/532/532
f 532/532/532 531/531/531 534/534/534
f 531/531/531 529/529/529 535/535/535
f 531/531/531 535/535/535 534/534/534
f 529/529/529 536/536/536 535/535/535
f 535/535/535 536/536/536 537/537/537
f 538/538/538 535/535/535 537/537/537
f 534/534/534 535/535/535 538/538/538
f 539/539/539 534/534/534 538/538/538
f 542/542/542 541/541/541 540/540/540
f 541/541/541 543/543/543 540/540/540
f 540/540/540 543/543/543 544/544/544
f 545/545/545 540/540/540 544/544/544
f 544/544/544 543/543/543 546/546/546
f 543/543/543 541/541/541 547/547/547
f 543/543/543 547/547/547 546/546/546
f 541/541/541 548/548/548 547/547/547
f 548/548/548 549/549/549 547/547/547
f 549/549/549 550/550/550 547/547/547
f 546/546/546 547/547/547 550/550/550
f 551/551/551 546/546/546 550/550/550
f 554/554/554 553/553/553 552/552/552
f 553/553/553 555/555/555 552/552/552
f 552/552/552 555/555/555 556/556/556
f 557/557/557 552/552/552 556/556/556
f 556/556/556 555/555/555 558/558/558
f 555/555/555 553/553/553 559/559/559
f 555/555/555 559/559/559 558/558/558
f 553/553/553 560/560/560 559/559/559
f 560/560/560 561/561/561 559/559/559
f 561/561/561 562/562/562 559/559/559
f 558/558/558 559/559/559 562/562/562
f 563/563/563 558/558/558 562/562/562
f 566/566/566 565/565/565 564/564/564
f 565/565/565 567/567/567 564/564/564
f 568/568/568 564/564/564 567/567/567
f 569/569/569 567/567/567 565/565/565
f 570/570/570 569/569/569 565/565/565
f 571/571/571 569/569/569 570/570/570
f 572/572/572 571/571/571 570/570/570
f 569/569/569 571/571/571 573/573/573
f 567/567/567 569/569/569 573/573/573
f 571/571/571 574/574/574 573/573/573
f 575/575/575 568/568/568 567/567/567
f 575/575/575 567/567/567 573/573/573
f 576/576/576 573/573/573 574/574/574
f 573/573/573 576/576/576 575/575/575
f 577/577/577 576/576/576 574/574/574
f 576/576/576 578/578/578 575/575/575
f 568/568/568 575/575/575 578/578/578
f 579/579/579 568/568/568 578/578/578
f 582/582/582 581/581/581 580/580/580
f 583/583/583 582/582/582 580/580/580
f 582/582/582 583/583/583 584/584/584
f 585/585/585 582/582/582 584/584/584
f 586/586/586 584/584/584 583/583/583
f 583/583/583 580/580/580 587/587/587
f 587/587/587 586/586/586 583/583/583
f 580/580/580 588/588/588 587/587/587
f 588/588/588 589/589/589 587/587/587
f 589/589/589 590/590/590 587/587/587
f 586/586/586 587/587/587 590/590/590
f 591/591/591 586/586/586 590/590/590
f 594/594/594 593/593/593 592/592/592
f 593/593/593 595/595/595 592/592/592
f 592/592/592 595/595/595 596/596/596
f 597/597/597 592/592/592 596/596/596
f 596/596/596 595/595/595 598/598/598
f 595/595/595 593/593/593 599/599/599
f 595/595/595 599/599/599 598/598/598
f 593/593/593 600/600/600 599/599/599
f 599/599/599 600/600/600 601/601/601
f 602/602/602 599/599/599 601/601/601
f 598/598/598 599/599/599 602/602/602
f 603/603/603 598/598/598 602/602/602
f 606/606/606 605/605/605 604/604/604
f 605/605/605 607/607/607 604/604/604
f 604/604/604 607/607/607 608/608/608
f 609/609/609 604/604/604 608/608/608
f 608/608/608 607/607/607 610/610/610
f 607/607/607 605/605/605 611/611/611
f 607/607/607 611/611/611 610/610/610
f 605/605/605 612/612/612 611/611/611
f 612/612/612 613/613/613 611/611/611
f 613/613/613 614/614/614 611/611/611
f 610/610/610 611/611/611 614/614/614
f 615/615/615 610/610/610 614/614/614
f 618/618/618 617/617/617 616/616/616
f 617/617/617 619/619/619 616/616/616
f 616/616/616 619/619/619 620/620/620
f 621/621/621 616/616/616 620/620/620
f 620/620/620 619/619/619 622/622/622
f 619/619/619 617/617/617 623/623/623
f 619/619/619 623/623/623 622/622/622
f 617/617/617 624/624/624 623/623/623
f 624/624/624 625/625/625 623/623/623
f 625/625/625 626/626/626 623/623/623
f 622/622/622 623/623/623 626/626/626
f 627/627/627 622/622/622 626/626/626
f 630/630/630 629/629/629 628/628/628
f 629/629/629 631/631/631 628/628/628
f 632/632/632 628/628/628 631/631/631
f 633/633/633 631/631/631 629/629/629
f 634/634/634 633/633/633 629/629/629
f 635/635/635 633/633/633 634/634/634
f 636/636/636 635/635/635 634/634/634
f 633/633/633 635/635/635 637/637/637
f 631/631/631 633/633/633 637/637/637
f 635/635/635 638/638/638 637/637/637
f 639/639/639 632/632/632 631/631/631
f 639/639/639 631/631/631 637/637/637
f 640/640/640 637/637/637 638/638/638
f 637/637/637 640/640/640 639/639/639
f 641/641/641 640/640/640 638/638/638
f 640/640/640 642/642/642 639/639/639
f 632/632/632 639/639/639 642/642/642
f 643/643/643 632/632/632 642/642/642
f 646/646/646 645/645/645 644/644/644
f 647/647/647 646/646/646 644/644/644
f 647/647/647 644/644/644 648/648/648
f 649/649/649 647/647/647 648/648/648
f 649/649/649 650/650/650 647/647/647
f 650/650/650 651/651/651 647/647/647
f 647/647/647 651/651/651 646/646/646
f 651/651/651 652/652/652 646/646/646
f 655/655/655 654/654/654 653/653/653
f 656/656/656 655/655/655 653/653/653
f 656/656/656 653/653/653 657/657/657
f 658/658/658 656/656/656 657/657/657
f 658/658/658 659/659/659 656/656/656
f 659/659/659 660/660/660 656/656/656
f 656/656/656 660/660/660 655/655/655
f 660/660/660 661/661/661 655/655/655
f 664/664/664 663/663/663 662/662/662
f 665/665/665 664/664/664 662/662/662
f 665/665/665 662/662/662 666/666/666
f 667/667/667 665/665/665 666/666/666
f 667/667/667 668/668/668 665/665/665
f 668/668/668 669/669/669 665/665/665
f 665/665/665 669/669/669 664/664/664
f 669/669/669 670/670/670 664/664/664
f 673/673/673 672/672/672 671/671/671
f 674/674/674 673/673/673 671/671/671
f 674/674/674 671/671/671 675/675/675
f 676/676/676 674/674/674 675/675/675
f 676/676/676 677/677/677 674/674/674
f 677/677/677 678/678/678 674/674/674
f 673/673/673 674/674/674 678/678/678
f 679/679/679 673/673/673 678/678/678
f 682/682/682 681/681/681 680/680/680
f 681/681/681 683/683/683 680/680/680
f 680/680/680 683/683/683 684/684/684
f 685/685/685 680/680/680 684/684/684
f 684/684/684 683/683/683 686/686/686
f 683/683/683 681/681/681 687/687/687
f 687/687/687 681/681/681 688/688/688
f 689/689/689 687/687/687 688/688/688
f 690/690/690 687/687/687 689/689/689
f 691/691/691 690/690/690 689/689/689
f 687/687/687 690/690/690 692/692/692
f 687/687/687 692/692/692 683/683/683
f 690/690/690 693/693/693 692/692/692
f 683/683/683 694/694/694 686/686/686
f 692/692/692 694/694/694 683/683/683
f 695/695/695 692/692/692 693/693/693
f 692/692/692 695/695/695 694/694/694
f 696/696/696 695/695/695 693/693/693
f 695/695/695 697/697/697 694/694/694
f 686/686/686 694/694/694 697/697/697
f 698/698/698 686/686/686 697/697/697
f 701/701/701 700/700/700 699/699/699
f 700/700/700 702/702/702 699/699/699
f 699/699/699 702/702/702 703/703/703
f 704/704/704 699/699/699 703/703/703
f 703/703/703 702/702/702 705/705/705
f 702/702/702 700/700/700 706/706/706
f 706/706/706 700/700/700 707/707/707
f 708/708/708 706/706/706 707/707/707
f 702/702/702 709/709/709 705/705/705
f 706/706/706 709/709/709 702/702/702
f 710/710/710 706/706/706 708/708/708
f 711/711/711 710/710/710 708/708/708
f 706/706/706 710/710/710 712/712/712
f 706/706/706 712/712/712 709/709/709
f 710/710/710 713/713/713 712/712/712
f 714/714/714 712/712/712 713/713/713
f 712/712/712 714/714/714 709/709/709
f 715/715/715 714/714/714 713/713/713
f 714/714/714 716/716/716 709/709/709
f 705/705/705 709/709/709 716/716/716
f 717/717/717 705/705/705 716/716/716
f 720/720/720 719/719/719 718/718/718
f 719/719/719 721/721/721 718/718/718
f 722/722/722 718/718/718 721/721/721
f 723/723/723 721/721/721 719/719/719
f 724/724/724 723/723/723 719/719/719
f 725/725/725 722/722/722 721/721/721
f 725/725/725 721/721/721 723/723/723
f 726/726/726 723/723/723 724/724/724
f 727/727/727 726/726/726 724/724/724
f 728/728/728 723/723/723 726/726/726
f 728/728/728 725/725/725 723/723/723
f 729/729/729 728/728/728 726/726/726
f 730/730/730 728/728/728 729/729/729
f 728/728/728 730/730/730 725/725/725
f 731/731/731 730/730/730 729/729/729
f 730/730/730 732/732/732 725/725/725
f 722/722/722 725/725/725 732/732/732
f 733/733/733 722/722/722 732/732/732
f 736/736/736 735/735/735 734/734/734
f 735/735/735 737/737/737 734/734/734
f 738/738/738 734/734/734 737/737/737
f 739/739/739 737/737/737 735/735/735
f 740/740/740 739/739/739 735/735/735
f 741/741/741 739/739/739 740/740/740
f 742/742/742 741/741/741 740/740/740
f 743/743/743 739/739/739 741/741/741
f 739/739/739 743/743/743 737/737/737
f 744/744/744 743/743/743 741/741/741
f 745/745/745 738/738/738 737/737/737
f 743/743/743 745/745/745 737/737/737
f 746/746/746 743/743/743 744/744/744
f 745/745/745 743/743/743 746/746/746
f 747/747/747 746/746/746 744/744/744
f 748/748/748 745/745/745 746/746/746
f 738/738/738 745/745/745 748/748/748
f 749/749/749 738/738/738 748/748/748
f 752/752/752 751/751/751 750/750/750
f 751/751/751 753/753/753 750/750/750
f 754/754/754 750/750/750 753/753/753
f 755/755/755 753/753/753 751/751/751
f 756/756/756 755/755/755 751/751/751
f 757/757/757 755/755/755 756/756/756
f 758/758/758 757/757/757 756/756/756
f 759/759/759 755/755/755 757/757/757
f 753/753/753 755/755/755 759/759/759
f 760/760/760 759/759/759 757/757/757
f 761/761/761 754/754/754 753/753/753
f 761/761/761 753/753/753 759/759/759
f 762/762/762 759/759/759 760/760/760
f 759/759/759 762/762/762 761/761/761
f 763/763/763 762/762/762 760/760/760
f 762/762/762 764/764/764 761/761/761
f 754/754/754 761/761/761 764/764/764
f 765/765/765 754/754/754 764/764/764
f 768/768/768 767/767/767 766/766/766
f 767/767/767 769/769/769 766/766/766
f 770/770/770 766/766/766 769/769/769
f 771/771/771 769/769/769 767/767/767
f 772/772/772 771/771/771 767/767/767
f 773/773/773 771/771/771 772/772/772
f 774/774/774 773/773/773 772/772/772
f 771/771/771 773/773/773 775/775/775
f 771/771/771 775/775/775 769/769/769
f 773/773/773 776/776/776 775/775/775
f 775/775/775 777/777/777 769/769/769
f 777/777/777 770/770/770 769/769/769
f 775/775/775 778/778/778 777/777/777
f 778/778/778 775/775/775 776/776/776
f 770/770/770 777/777/777 779/779/779
f 778/778/778 779/779/779 777/777/777
f 780/780/780 778/778/778 776/776/776
f 780/780/780 776/776/776 781/781/781
f 780/780/780 781/781/781 778/778/778
f 776/776/776 782/782/782 781/781/781
f 781/781/781 783/783/783 778/778/778
f 778/778/778 783/783/783 779/779/779
f 783/783/783 781/781/781 784/784/784
f 781/781/781 785/785/785 784/784/784
f 786/786/786 784/784/784 785/785/785
f 787/787/787 786/786/786 785/785/785
f 784/784/784 786/786/786 788/788/788
f 784/784/784 788/788/788 783/783/783
f 786/786/786 789/789/789 788/788/788
f 788/788/788 790/790/790 783/783/783
f 783/783/783 790/790/790 779/779/779
f 791/791/791 788/788/788 789/789/789
f 788/788/788 791/791/791 790/790/790
f 792/792/792 791/791/791 789/789/789
f 791/791/791 793/793/793 790/790/790
f 779/779/779 790/790/790 793/793/793
f 794/794/794 779/779/779 793/793/793
f 794/794/794 770/770/770 779/779/779
f 794/794/794 793/793/793 770/770/770
f 793/793/793 795/795/795 770/770/770
f 798/798/798 797/797/797 796/796/796
f 797/797/797 799/799/799 796/796/796
f 799/799/799 797/797/797 800/800/800
f 796/796/796 799/799/799 801/801/801
f 797/797/797 798/798/798 802/802/802
f 797/797/797 802/802/802 800/800/800
f 798/798/798 803/803/803 802/802/802
f 799/799/799 804/804/804 801/801/801
f 804/804/804 799/799/799 800/800/800
f 801/801/801 804/804/804 805/805/805
f 806/806/806 802/802/802 803/803/803
f 802/802/802 806/806/806 800/800/800
f 807/807/807 806/806/806 803/803/803
f 804/804/804 808/808/808 805/805/805
f 808/808/808 804/804/804 800/800/800
f 805/805/805 808/808/808 809/809/809
f 810/810/810 806/806/806 807/807/807
f 806/806/806 810/810/810 800/800/800
f 811/811/811 810/810/810 807/807/807
f 809/809/809 812/812/812 811/811/811
f 808/808/808 812/812/812 809/809/809
f 812/812/812 808/808/808 800/800/800
f 810/810/810 812/812/812 800/800/800
f 812/812/812 810/810/810 811/811/811
