g item_10item_10_01_mobile
v 0.660472816 -0.829683059 -0.37976878
v 0.847237765 -0.773507998 -0.375016164
v 0.845139764 -0.769311995 -0.387604173
v 0.659273958 -0.825401423 -0.39269932
v 0.336952423 -0.85528724 -0.382123679
v 0.832294856 -0.742680221 -0.426738323
v 0.336438626 -0.851005604 -0.395182668
v 0.00512565629 -0.856186384 -0.38246621
v 0.651524197 -0.797656424 -0.43324641
v 0.827542241 -0.733774419 -0.432090368
v 0.3332274 -0.822703992 -0.436286371
v 0.00512565629 -0.823346238 -0.43641482
v 0.648569869 -0.788194009 -0.438684087
v 0.614959029 -0.2617669 -0.374673633
v 0.332028542 -0.812984679 -0.441724048
v 0.00512565629 -0.851861932 -0.395439566
v -0.32623013 -0.851005604 -0.395182668
v -0.32670111 -0.85528724 -0.382123679
v -0.649065462 -0.825401423 -0.39269932
v -0.65026432 -0.829683059 -0.37976878
v 0.319312084 -0.397451935 -0.391414829
v 0.00512565629 -0.43500188 -0.395996179
v 0.608964739 -0.253160812 -0.366881056
v 0.316443388 -0.388374867 -0.383108456
v 0.00512565629 -0.813626925 -0.441809681
v -0.323018903 -0.822703992 -0.436286371
v -0.321820045 -0.812984679 -0.441724048
v -0.834931267 -0.769311995 -0.387604173
v -0.836986452 -0.773507998 -0.375016164
v -0.641315701 -0.797656424 -0.43324641
v -0.965092992 -0.663427145 -0.376557553
v -0.967661974 -0.667494699 -0.364397708
v -1.00868004 -0.480472851 -0.345130347
v -0.638361372 -0.788194009 -0.438684087
v -0.604750532 -0.2617669 -0.374673633
v -0.82208636 -0.742680221 -0.426738323
v -0.817333745 -0.733774419 -0.432090368
v -0.943128201 -0.629388141 -0.41937391
v -0.948651511 -0.637651698 -0.414278763
v -1.00474094 -0.476148399 -0.356562314
v -1.01201972 -0.2848021 -0.33592483
v -1.01672952 -0.288784021 -0.325220741
v -0.979308023 -0.448317767 -0.39175736
v -1.0177143 0.0421436018 -0.302228357
v -1.02289507 0.0399599676 -0.29268031
v -1.01518813 0.368532691 -0.261081838
v -0.981277575 -0.258769755 -0.36919314
v -0.970273772 -0.43876972 -0.39633871
v -0.692909411 -0.133703176 -0.359131296
v -0.970402221 -0.249564238 -0.373474775
v -0.971900793 0.0624813713 -0.337166505
v -0.98393219 0.0574290412 -0.332884869
v -1.01009298 0.368918038 -0.269559477
v -0.985002598 0.689141572 -0.237961005
v -0.989883663 0.689441286 -0.230296878
v -0.973913162 0.82538322 -0.214968622
v -0.97511202 0.373328123 -0.297818272
v -0.718213878 -0.0361246987 -0.347485247
v -0.968561117 0.82538322 -0.223018097
v -0.962566827 0.886567794 -0.155924866
v -0.968775199 0.882200525 -0.150444372
v -0.960383193 0.901810417 -0.0836936713
v -0.96723381 0.89590176 -0.0838649367
v -0.923946473 0.892219553 -0.187951501
v -0.928913171 0.82538322 -0.248964809
v -0.960383193 0.901810417 0.035806781
v -0.967276627 0.89590176 0.0360208627
v -0.945483101 0.688884674 -0.26365082
v -0.934051134 0.688285245 -0.267718374
v -0.963209073 0.374227266 -0.302142725
v -0.729774295 0.415416602 -0.297518558
v -0.920949328 0.919108225 -0.083179875
v -0.962566827 0.886567794 0.108080792
v -0.968775199 0.882200525 0.102557481
v -0.734312828 0.188361461 -0.322223596
v -0.721767636 0.194141669 -0.316058041
v -0.920949328 0.919108225 0.0352929847
v -0.968561117 0.82538322 0.175174023
v -0.973870346 0.82538322 0.16733863
v -0.989883663 0.68939847 0.182409987
v -0.707295707 -0.0268763656 -0.340334915
v -0.684988385 -0.123041903 -0.351467168
v -0.909132014 0.922233819 0.035207352
v -0.909132014 0.922233819 -0.0830942423
v -0.912386057 0.893589676 -0.192061871
v -0.916796142 0.82538322 -0.252647016
v -0.912386057 0.893589676 0.144217797
v -0.728875151 0.931482152 0.0349504538
v -0.728875151 0.931482152 -0.0827945278
v -0.728404171 0.902110131 -0.19360326
v -0.727547844 0.82538322 -0.252647016
v -0.923946473 0.892219553 0.140107427
v -0.928913171 0.82538322 0.201120735
v -0.945483101 0.688884674 0.215806746
v -0.916796142 0.82538322 0.204802942
v -0.726905599 0.689655368 -0.267547108
v -0.715473631 0.689655368 -0.263094207
v -0.985002598 0.689141572 0.190116931
v -1.01009298 0.368918038 0.221715403
v -1.01518813 0.368532691 0.213152131
v -1.02289507 0.0399599676 0.244793419
v -0.71795698 0.417257705 -0.292294962
v -0.6829332 0.421710606 -0.256072324
v -1.0177143 0.0421436018 0.2544271
v -0.975154836 0.373285307 0.249931382
v -0.963251889 0.37418445 0.254298651
v -1.01201972 -0.2848021 0.288166389
v -1.0166867 -0.288784021 0.277419483
v -0.984146271 0.0573005922 0.285040795
v -1.00474094 -0.476148399 0.308761057
v -1.00868004 -0.480472851 0.297329089
v -0.967661974 -0.667494699 0.316553634
v -0.934051134 0.688285245 0.219831483
v -0.726905599 0.689655368 0.219703034
v -0.981534474 -0.258983837 0.321349066
v -0.727547844 0.82538322 0.204802942
v -0.728404171 0.902110131 0.145759186
v -0.716158693 0.82538322 0.200821021
v -0.716800938 0.900311844 0.142076979
v -0.717057837 0.928399375 0.0350360865
v -0.717057837 0.928399375 -0.0828801605
v -0.681306179 0.90095409 0.0358495973
v -0.716800938 0.900311844 -0.189921053
v -0.716158693 0.82538322 -0.248665095
v -0.680920831 0.881215749 -0.160206501
v -0.680920831 0.82538322 -0.218137032
v -0.681306179 0.90095409 -0.0836936713
v -0.681306179 0.689013123 -0.231196021
v -0.677495523 0.689055939 -0.222761199
v -0.677324257 0.82538322 -0.210301639
v -0.677324257 0.87556399 -0.154940089
v -0.677324257 0.893461227 -0.0833511405
v -0.677324257 0.893504044 0.0355070665
v -0.678951279 0.422352852 -0.246524277
v -0.677324257 0.87509301 0.106839117
v -0.680792382 0.212210172 -0.264849678
v -0.680920831 0.881215749 0.112319611
v -0.677324257 0.82538322 0.162671647
v -0.680920831 0.82538322 0.170292958
v -0.681306179 0.689013123 0.183351947
v -0.677495523 0.689055939 0.174788676
v -0.678951279 0.422352852 0.198508937
v -0.684859936 0.210411885 -0.275296869
v -0.675697236 -0.00011614253 -0.295078026
v -0.672229111 0.00279536974 -0.283603242
v -0.662210083 -0.0925994736 -0.304411991
v -0.659683918 -0.089174165 -0.292509044
v -0.582057863 -0.229568999 -0.318627022
v -0.580173943 -0.226871569 -0.306167462
v -0.598756242 -0.253160812 -0.366881056
v -0.298699213 -0.364740238 -0.333270216
v -0.297842886 -0.361957175 -0.320211227
v 0.00512565629 -0.401562305 -0.337123688
v 0.00512565629 -0.398736426 -0.323893434
v 0.308051382 -0.361957175 -0.320211227
v -0.309103587 -0.397451935 -0.391414829
v -0.306234892 -0.388374867 -0.383108456
v 0.00512565629 -0.425625098 -0.38751854
v 0.308907709 -0.364740238 -0.333270216
v 0.590425256 -0.226871569 -0.306167462
v 0.592266359 -0.229568999 -0.318627022
v 0.68757557 0.82538322 -0.210301639
v 0.68757557 0.87556399 -0.154940089
v 0.68757557 0.893461227 -0.0833511405
v 0.687661203 0.708623014 -0.023922037
v 0.687704019 0.689055939 -0.222761199
v 0.68757557 0.893504044 0.0355070665
v 0.68757557 0.82538322 0.162671647
v 0.68757557 0.87509301 0.106839117
v 0.687704019 0.689055939 0.174788676
v 0.689202591 0.427405182 -0.023922037
v 0.689202591 0.422352852 -0.246524277
v 0.689202591 0.422352852 0.198508937
v 0.691000878 0.212210172 -0.264849678
v 0.69168594 0.214265357 -0.023922037
v 0.691000878 0.212210172 0.216919971
v 0.682480423 0.00279536974 -0.283603242
v 0.682480423 0.00279536974 0.235801984
v 0.683679281 0.00176777718 -0.023922037
v 0.671048456 -0.0907583702 -0.023922037
v 0.669892414 -0.089174165 -0.292509044
v 0.669892414 -0.089174165 0.24466497
v 0.590425256 -0.226871569 -0.306167462
v 0.591752563 -0.227599447 -0.023922037
v 0.590425256 -0.226871569 0.258323388
v 0.308051382 -0.361957175 -0.320211227
v 0.308265464 -0.361999992 -0.023922037
v 0.308051382 -0.361957175 0.272367153
v 0.00512565629 -0.398736426 -0.323893434
v 0.00512565629 -0.398736426 -0.023922037
v 0.00512565629 -0.398736426 0.27604936
v -0.297842886 -0.361957175 0.272367153
v -0.298056967 -0.361999992 -0.023922037
v -0.297842886 -0.361957175 -0.320211227
v -0.580173943 -0.226871569 0.258323388
v -0.581544067 -0.227599447 -0.023922037
v -0.580173943 -0.226871569 -0.306167462
v -0.659683918 -0.089174165 -0.292509044
v -0.659683918 -0.089174165 0.24466497
v -0.66083996 -0.0907583702 -0.023922037
v -0.672229111 0.00279536974 -0.283603242
v -0.673470785 0.00176777718 -0.023922037
v -0.672229111 0.00279536974 0.235801984
v -0.681477444 0.214265357 -0.023922037
v -0.680792382 0.212210172 0.216919971
v -0.680792382 0.212210172 -0.264849678
v -0.678951279 0.422352852 0.198508937
v -0.678994095 0.427405182 -0.023922037
v -0.677452706 0.708623014 -0.023922037
v -0.678951279 0.422352852 -0.246524277
v -0.677495523 0.689055939 -0.222761199
v -0.677495523 0.689055939 0.174788676
v -0.677324257 0.82538322 -0.210301639
v -0.677324257 0.82538322 0.162671647
v -0.677324257 0.893461227 -0.0833511405
v -0.677324257 0.87556399 -0.154940089
v -0.677324257 0.893504044 0.0355070665
v -0.677324257 0.87509301 0.106839117
v 0.336952423 -0.85528724 0.334279605
v 0.00512565629 -0.884487996 -0.023922037
v 0.00512565629 -0.856186384 0.334622136
v 0.339350139 -0.882646892 -0.023922037
v 0.00512565629 -0.856186384 -0.38246621
v 0.336952423 -0.85528724 -0.382123679
v 0.660472816 -0.829683059 -0.37976878
v 0.668136944 -0.857299609 -0.023922037
v 0.660472816 -0.829683059 0.331924706
v 0.847237765 -0.773507998 -0.375016164
v 0.862737286 -0.80275157 -0.023922037
v 0.847237765 -0.773507998 0.327129274
v 0.996666851 -0.697551781 -0.023922037
v 0.97787047 -0.667494699 -0.364397708
v 0.97787047 -0.667494699 0.316553634
v 1.01888854 -0.480472851 -0.345130347
v 1.04667636 -0.511214996 -0.023922037
v 1.01888854 -0.480472851 0.297329089
v 1.02693802 -0.288784021 -0.325220741
v 1.02693802 -0.288784021 0.277419483
v 1.05943563 -0.316272122 -0.023922037
v 1.06761355 0.0237753847 -0.023922037
v 1.03310357 0.0399599676 -0.29268031
v 1.03310357 0.0399599676 0.244793419
v 1.02539663 0.368532691 -0.261081838
v 1.05793706 0.363651626 -0.023922037
v 1.02543944 0.368532691 0.213152131
v 1.00009216 0.689441286 -0.230296878
v 1.03014924 0.689612552 -0.023922037
v 1.01075343 0.82538322 -0.023922037
v 1.00009216 0.68939847 0.182409987
v 0.984121658 0.82538322 -0.214968622
v 0.978983695 0.882200525 -0.150444372
v 0.977442307 0.89590176 -0.0838649367
v 0.984078842 0.82538322 0.16733863
v 0.977485123 0.89590176 0.0360208627
v 0.978983695 0.882200525 0.102557481
v -0.32670111 -0.85528724 0.334279605
v 0.00512565629 -0.856186384 0.334622136
v 0.00512565629 -0.884487996 -0.023922037
v -0.329141643 -0.882646892 -0.023922037
v 0.00512565629 -0.856186384 -0.38246621
v -0.32670111 -0.85528724 -0.382123679
v -0.65026432 -0.829683059 -0.37976878
v -0.657928448 -0.857299609 -0.023922037
v -0.65026432 -0.829683059 0.331924706
v -0.836986452 -0.773507998 0.327129274
v -0.85252879 -0.80275157 -0.023922037
v -0.836986452 -0.773507998 -0.375016164
v -0.967661974 -0.667494699 0.316553634
v -0.986458355 -0.697551781 -0.023922037
v -0.967661974 -0.667494699 -0.364397708
v -1.03646786 -0.511214996 -0.023922037
v -1.00868004 -0.480472851 0.297329089
v -1.00868004 -0.480472851 -0.345130347
v -1.0166867 -0.288784021 0.277419483
v -1.04922713 -0.316272122 -0.023922037
v -1.01672952 -0.288784021 -0.325220741
v -1.05740506 0.0237753847 -0.023922037
v -1.02289507 0.0399599676 -0.29268031
v -1.02289507 0.0399599676 0.244793419
v -1.01518813 0.368532691 -0.261081838
v -1.04768575 0.363651626 -0.023922037
v -1.01518813 0.368532691 0.213152131
v -0.989883663 0.68939847 0.182409987
v -1.01994075 0.689612552 -0.023922037
v -0.989883663 0.689441286 -0.230296878
v -0.973913162 0.82538322 -0.214968622
v -1.00054494 0.82538322 -0.023922037
v -0.968775199 0.882200525 -0.150444372
v -0.96723381 0.89590176 -0.0838649367
v -0.973870346 0.82538322 0.16733863
v -0.967276627 0.89590176 0.0360208627
v -0.968775199 0.882200525 0.102557481
v 0.592266359 -0.229568999 -0.318627022
v 0.669892414 -0.089174165 -0.292509044
v 0.590425256 -0.226871569 -0.306167462
v 0.67241858 -0.0925994736 -0.304411991
v 0.608964739 -0.253160812 -0.366881056
v 0.682480423 0.00279536974 -0.283603242
v 0.695196881 -0.123041903 -0.351467168
v 0.614959029 -0.2617669 -0.374673633
v 0.685905732 -0.00011614253 -0.295078026
v 0.691000878 0.212210172 -0.264849678
v 0.717504203 -0.0268763656 -0.340334915
v 0.703160724 -0.133703176 -0.359131296
v 0.695068432 0.210411885 -0.275296869
v 0.689202591 0.422352852 -0.246524277
v 0.731976132 0.194141669 -0.316058041
v 0.693141696 0.421710606 -0.256072324
v 0.687704019 0.689055939 -0.222761199
v 0.953379514 -0.629388141 -0.41937391
v 0.827542241 -0.733774419 -0.432090368
v 0.832294856 -0.742680221 -0.426738323
v 0.728422374 -0.0361246987 -0.347485247
v 0.691514675 0.689013123 -0.231196021
v 0.68757557 0.82538322 -0.210301639
v 0.691129328 0.82538322 -0.218137032
v 0.68757557 0.87556399 -0.154940089
v 0.691129328 0.881215749 -0.160206501
v 0.68757557 0.893461227 -0.0833511405
v 0.726367189 0.82538322 -0.248665095
v 0.725724944 0.689655368 -0.263094207
v 0.728165476 0.417257705 -0.292294962
v 0.744521325 0.188361461 -0.322223596
v 0.739982791 0.415416602 -0.297518558
v 0.982109289 0.0624813713 -0.337166505
v 0.737114095 0.689655368 -0.267547108
v 0.691514675 0.90095409 -0.0836936713
v 0.68757557 0.893504044 0.0355070665
v 0.691514675 0.90095409 0.0358495973
v 0.68757557 0.87509301 0.106839117
v 0.727266333 0.928399375 -0.0828801605
v 0.727009435 0.900311844 -0.189921053
v 0.737799157 0.82538322 -0.252647016
v 0.738655484 0.902110131 -0.19360326
v 0.973417569 0.374227266 -0.302142725
v 0.927004638 0.82538322 -0.252647016
v 0.691129328 0.881215749 0.112319611
v 0.68757557 0.82538322 0.162671647
v 0.691129328 0.82538322 0.170292958
v 0.687704019 0.689055939 0.174788676
v 0.727009435 0.900311844 0.142076979
v 0.727266333 0.928399375 0.0350360865
v 0.739083647 0.931482152 -0.0827945278
v 0.94425963 0.688285245 -0.267718374
v 0.691514675 0.689013123 0.183351947
v 0.689202591 0.422352852 0.198508937
v 0.693141696 0.421710606 0.20822825
v 0.691000878 0.212210172 0.216919971
v 0.725724944 0.689655368 0.215250133
v 0.739083647 0.931482152 0.0349504538
v 0.726367189 0.82538322 0.200821021
v 0.738655484 0.902110131 0.145759186
v 0.737799157 0.82538322 0.204802942
v 0.695068432 0.210411885 0.227452795
v 0.682480423 0.00279536974 0.235801984
v 0.92263737 0.893589676 0.144217797
v 0.685905732 -0.00011614253 0.247233952
v 0.669892414 -0.089174165 0.24466497
v 0.67241858 -0.0925994736 0.256567917
v 0.590425256 -0.226871569 0.258323388
v 0.717504203 -0.0268335493 0.292448025
v 0.731976132 0.194184485 0.268213967
v 0.728165476 0.417257705 0.244408072
v 0.737114095 0.689655368 0.219703034
v 0.739982791 0.415416602 0.249631668
v 0.944302446 0.688285245 0.219831483
v 0.744478508 0.188404277 0.274379522
v 0.592266359 -0.229568999 0.270740132
v 0.308051382 -0.361957175 0.272367153
v 0.927004638 0.82538322 0.204802942
v 0.973460385 0.37418445 0.254298651
v 0.308907709 -0.364740238 0.285426142
v 0.00512565629 -0.398736426 0.27604936
v 0.695196881 -0.122999087 0.303623094
v 0.608964739 -0.253160812 0.319036982
v 0.728422374 -0.0360818824 0.299598356
v 0.316443388 -0.388374867 0.335264382
v 0.00512565629 -0.425625098 0.33963165
v 0.00512565629 -0.401562305 0.289279614
v -0.298699213 -0.364740238 0.285426142
v -0.297842886 -0.361957175 0.272367153
v 0.70320354 -0.133788809 0.311287222
v 0.615001845 -0.261809716 0.326829559
v -0.582015047 -0.229568999 0.270740132
v -0.580173943 -0.226871569 0.258323388
v 0.319312084 -0.397451935 0.343570755
v -0.306234892 -0.388374867 0.335264382
v -0.662210083 -0.0925994736 0.256567917
v -0.659683918 -0.089174165 0.24466497
v -0.598756242 -0.253160812 0.319036982
v -0.675697236 -0.00011614253 0.247233952
v -0.672229111 0.00279536974 0.235801984
v -0.684988385 -0.122999087 0.303623094
v -0.684859936 0.210411885 0.227452795
v -0.680792382 0.212210172 0.216919971
v -0.707295707 -0.0268335493 0.292448025
v -0.6829332 0.421710606 0.20822825
v -0.721767636 0.194184485 0.268213967
v -0.734270012 0.188404277 0.274379522
v -0.71795698 0.417257705 0.244408072
v -0.718213878 -0.0360818824 0.299598356
v -0.692995044 -0.133788809 0.311287222
v -0.715473631 0.689655368 0.215250133
v -0.729774295 0.415416602 0.249631668
v -0.972114875 0.0623101059 0.289365247
v -0.970787568 -0.249906769 0.325630701
v -0.970616303 -0.439069434 0.348494636
v -0.979522105 -0.448489033 0.343913286
v -0.965092992 -0.663427145 0.328756295
v -0.948737144 -0.63773733 0.366434689
v -0.834931267 -0.769311995 0.339760099
v -0.836986452 -0.773507998 0.327129274
v -0.649065462 -0.825401423 0.344898062
v -0.65026432 -0.829683059 0.331924706
v -0.943299467 -0.629602223 0.371572652
v -0.82208636 -0.742637405 0.378851433
v -0.817419377 -0.733902868 0.384246294
v -0.32623013 -0.851005604 0.347338594
v -0.32670111 -0.85528724 0.334279605
v 0.00512565629 -0.851861932 0.347595492
v 0.00512565629 -0.856186384 0.334622136
v 0.336952423 -0.85528724 0.334279605
v -0.604750532 -0.261809716 0.326829559
v -0.638404189 -0.788236825 0.390840013
v -0.641315701 -0.797656424 0.385402336
v -0.309103587 -0.397451935 0.343570755
v -0.323018903 -0.822703992 0.388442297
v -0.321820045 -0.813027496 0.393879974
v 0.00512565629 -0.813626925 0.393965607
v 0.00512565629 -0.43500188 0.348152105
v 0.00512565629 -0.823346238 0.388570746
v 0.3332274 -0.822703992 0.388442297
v 0.332028542 -0.813027496 0.393879974
v 0.336438626 -0.851005604 0.347338594
v 0.660472816 -0.829683059 0.331924706
v 0.648612685 -0.788236825 0.390840013
v 0.651524197 -0.797656424 0.385402336
v 0.659273958 -0.825401423 0.344898062
v 0.847237765 -0.773507998 0.327129274
v 0.845139764 -0.769311995 0.339760099
v 0.97787047 -0.667494699 0.316553634
v 0.827627874 -0.733902868 0.384246294
v 0.832294856 -0.742637405 0.378851433
v 0.975301489 -0.663427145 0.328756295
v 1.01888854 -0.480472851 0.297329089
v 0.958988457 -0.63773733 0.366434689
v 0.953550779 -0.629602223 0.371572652
v 1.01494944 -0.476148399 0.308761057
v 1.02693802 -0.288784021 0.277419483
v 0.989730601 -0.448489033 0.343913286
v 0.980824799 -0.439069434 0.348494636
v 1.02222822 -0.2848021 0.288166389
v 1.03310357 0.0399599676 0.244793419
v 0.980996064 -0.249906769 0.325630701
v 0.99174297 -0.258983837 0.321349066
v 1.02792279 0.0421436018 0.2544271
v 1.02543944 0.368532691 0.213152131
v 0.994354768 0.0573005922 0.285040795
v 0.982323371 0.0623101059 0.289365247
v 0.985363333 0.373285307 0.249931382
v 1.02030148 0.368918038 0.221715403
v 1.00009216 0.68939847 0.182409987
v 0.995211095 0.689141572 0.190116931
v 0.984078842 0.82538322 0.16733863
v 0.955734414 0.688884674 0.215806746
v 0.939121667 0.82538322 0.201120735
v 0.978769614 0.82538322 0.175174023
v 0.978983695 0.882200525 0.102557481
v 0.972775324 0.886567794 0.108080792
v 0.977485123 0.89590176 0.0360208627
v 0.934197786 0.892219553 0.140107427
v 0.970591689 0.901810417 0.035806781
v 0.977442307 0.89590176 -0.0838649367
v 0.931157825 0.919108225 0.0352929847
v 0.970591689 0.901810417 -0.0836936713
v 0.978983695 0.882200525 -0.150444372
v 0.919383327 0.922233819 0.035207352
v 0.931157825 0.919108225 -0.083179875
v 0.919383327 0.922233819 -0.0830942423
v 0.972775324 0.886567794 -0.155924866
v 0.984121658 0.82538322 -0.214968622
v 0.934197786 0.892219553 -0.187951501
v 0.92263737 0.893589676 -0.192061871
v 0.978769614 0.82538322 -0.223018097
v 1.00009216 0.689441286 -0.230296878
v 0.939121667 0.82538322 -0.248964809
v 0.955691597 0.688884674 -0.26365082
v 0.995211095 0.689141572 -0.237961005
v 1.02539663 0.368532691 -0.261081838
v 1.02030148 0.368918038 -0.269559477
v 1.03310357 0.0399599676 -0.29268031
v 0.985320516 0.373328123 -0.297818272
v 0.994183502 0.0574290412 -0.332884869
v 1.02792279 0.0421436018 -0.302228357
v 1.02693802 -0.288784021 -0.325220741
v 0.991486072 -0.258769755 -0.36919314
v 1.02222822 -0.2848021 -0.33592483
v 1.01888854 -0.480472851 -0.345130347
v 1.01494944 -0.476148399 -0.356562314
v 0.97787047 -0.667494699 -0.364397708
v 0.980610717 -0.249564238 -0.373474775
v 0.975301489 -0.663427145 -0.376557553
v 0.847237765 -0.773507998 -0.375016164
v 0.845139764 -0.769311995 -0.387604173
v 0.989516519 -0.448317767 -0.39175736
v 0.980525084 -0.43876972 -0.39633871
v 0.958902824 -0.637651698 -0.414278763
v -1.00799498 -1.72865529 1.00880849
v -1.07140601 -1.66652876 -1.00869825
v -1.06721 -1.66104826 1.00910821
v -1.00760963 -1.660877 1.06862294
v -1.01210535 -1.73456395 -1.00929768
v -1.01154874 -1.66661439 -1.06859833
v 0.947299591 -1.66657157 -1.06859833
v 0.944131181 -1.72865529 1.00919384
v 0.94331767 -1.660877 1.06858013
v 1.00291804 -1.66104826 1.00910821
v 0.947856204 -1.73456395 -1.00929768
v 1.00715686 -1.66682847 -1.00899796
v 1.00715686 -1.66682847 -1.00899796
v 0.945544121 -1.23982094 -1.06431669
v 0.947299591 -1.66657157 -1.06859833
v 1.00304649 -1.23994939 -1.00668588
v 1.00291804 -1.66104826 1.00910821
v -1.00970764 -1.23982094 -1.06440233
v -1.01154874 -1.66661439 -1.06859833
v 0.998593587 -1.25292275 1.00945074
v 0.94331767 -1.660877 1.06858013
v 0.940020811 -1.25369344 1.0679807
v -1.00760963 -1.660877 1.06862294
v 0.960786744 -1.16724722 0.966077769
v 0.963869521 -1.15572962 -0.961728704
v -1.06721 -1.23994939 -1.00677151
v -1.07140601 -1.66652876 -1.00869825
v 0.904526051 -1.15628623 -1.02526818
v -1.00465531 -1.25382189 1.0679807
v -1.06721 -1.66104826 1.00910821
v -1.06322808 -1.2530512 1.00949355
v -0.967148178 -1.15581525 -1.02475438
v -0.967062545 -1.1690455 1.02961724
v -1.02867528 -1.15624341 -0.963441358
v 0.901015109 -1.16840326 1.028975
v -1.02482181 -1.16681905 0.964493563
v 0.664197839 -0.949997022 -0.774878122
v -0.728318538 -0.949954205 -0.774835305
v 0.721357676 -0.950468002 -0.717675469
v 0.720629797 -0.952394738 0.712947466
v -0.787148213 -0.951795309 -0.716904774
v 0.663341512 -0.951110247 0.769807588
v -0.727633477 -0.951324329 0.770107303
v -0.784793313 -0.952523187 0.713118732
v -0.712733385 -0.936509869 -0.758522273
v 0.648484236 -0.936509869 -0.758522273
v 0.70555844 -0.937066482 -0.701704968
v 0.704916194 -0.938393789 0.696420353
v -0.771391794 -0.938436605 -0.700763008
v -0.769122527 -0.938522238 0.696720067
v 0.647841991 -0.936895217 0.752895127
v -0.712005506 -0.937109298 0.753152026
v 0.625663118 -0.907009399 -0.67841287
v -0.689912266 -0.907009399 -0.67841287
v 0.625363403 -0.907009399 0.672657274
v -0.689783817 -0.907180665 0.673171071
vt 0.239487736 0.00287615369
vt 0.216118691 0.00190244347
vt 0.216118691 0.00384986391
vt 0.239487736 0.00482357412
vt 0.277462435 0.0106658354
vt 0.216118691 0.00969212521
vt 0.276488725 0.0126132559
vt 0.315437133 0.0204029376
vt 0.238514026 0.0106658354
vt 0.216118691 0.0106658354
vt 0.275515014 0.0184555172
vt 0.313489713 0.0281926193
vt 0.238514026 0.0116395456
vt 0.222934663 0.0739569995
vt 0.275515014 0.0194292274
vt 0.314463423 0.022350358
vt 0.353411832 0.03111375
vt 0.353411832 0.0291663295
vt 0.38943911 0.0408508521
vt 0.39041282 0.0398771419
vt 0.262856782 0.0690884484
vt 0.30180519 0.0749307097
vt 0.222934663 0.0759044199
vt 0.262856782 0.0710358689
vt 0.313489713 0.0291663295
vt 0.351464411 0.0369560113
vt 0.350490701 0.0379297215
vt 0.409887024 0.0515616645
vt 0.411834445 0.0505879543
vt 0.386517979 0.0466931134
vt 0.424492678 0.0661673178
vt 0.425466388 0.0651936076
vt 0.429361229 0.0885626528
vt 0.386517979 0.0476668237
vt 0.373859746 0.110957988
vt 0.406965894 0.0564302156
vt 0.405992183 0.0574039258
vt 0.418650416 0.0710358689
vt 0.419624126 0.0700621586
vt 0.427413808 0.0885626528
vt 0.426440098 0.111931698
vt 0.428387518 0.110957988
vt 0.421571547 0.0914837834
vt 0.426440098 0.150880107
vt 0.427413808 0.150880107
vt 0.426440098 0.194697066
vt 0.420597837 0.113879118
vt 0.420597837 0.0924574936
vt 0.383596848 0.128484772
vt 0.419624126 0.114852829
vt 0.419624126 0.151853817
vt 0.420597837 0.151853817
vt 0.425466388 0.194697066
vt 0.423518967 0.229750634
vt 0.424492678 0.229750634
vt 0.421571547 0.247277418
vt 0.419624126 0.193723356
vt 0.387491689 0.140169294
vt 0.420597837 0.246303708
vt 0.420597837 0.258961941
vt 0.421571547 0.258961941
vt 0.421571547 0.268699043
vt 0.422545257 0.268699043
vt 0.415729286 0.25604081
vt 0.415729286 0.245329998
vt 0.421571547 0.284278406
vt 0.422545257 0.284278406
vt 0.417676706 0.228776924
vt 0.415729286 0.228776924
vt 0.418650416 0.193723356
vt 0.38943911 0.194697066
vt 0.415729286 0.269672753
vt 0.420597837 0.294015508
vt 0.421571547 0.294015508
vt 0.3884654 0.161590919
vt 0.387491689 0.161590919
vt 0.415729286 0.284278406
vt 0.420597837 0.306673741
vt 0.421571547 0.305700031
vt 0.424492678 0.323226815
vt 0.385544269 0.142116715
vt 0.382623138 0.129458482
vt 0.414755575 0.284278406
vt 0.414755575 0.269672753
vt 0.413781865 0.25604081
vt 0.413781865 0.245329998
vt 0.413781865 0.297910349
vt 0.39236024 0.283304696
vt 0.39236024 0.269672753
vt 0.39236024 0.25701452
vt 0.39236024 0.245329998
vt 0.415729286 0.296936639
vt 0.415729286 0.308621162
vt 0.417676706 0.324200525
vt 0.413781865 0.308621162
vt 0.39041282 0.229750634
vt 0.38943911 0.229750634
vt 0.423518967 0.324200525
vt 0.425466388 0.359254093
vt 0.426440098 0.358280383
vt 0.427413808 0.403071053
vt 0.3884654 0.194697066
vt 0.382623138 0.195670777
vt 0.426440098 0.402097343
vt 0.420597837 0.359254093
vt 0.418650416 0.359254093
vt 0.426440098 0.442019461
vt 0.428387518 0.442019461
vt 0.420597837 0.402097343
vt 0.427413808 0.464414796
vt 0.429361229 0.465388507
vt 0.425466388 0.487783842
vt 0.416702996 0.325174235
vt 0.39041282 0.324200525
vt 0.420597837 0.439098331
vt 0.39236024 0.307647452
vt 0.39236024 0.296936639
vt 0.39041282 0.307647452
vt 0.39138653 0.295962929
vt 0.39041282 0.283304696
vt 0.39041282 0.269672753
vt 0.385544269 0.284278406
vt 0.39138653 0.25701452
vt 0.39041282 0.246303708
vt 0.385544269 0.258961941
vt 0.385544269 0.248251128
vt 0.385544269 0.268699043
vt 0.383596848 0.230724344
vt 0.382623138 0.230724344
vt 0.384570559 0.248251128
vt 0.384570559 0.258961941
vt 0.384570559 0.268699043
vt 0.384570559 0.284278406
vt 0.380675718 0.195670777
vt 0.384570559 0.294015508
vt 0.379702008 0.16451205
vt 0.385544269 0.294989219
vt 0.384570559 0.304726321
vt 0.385544269 0.305700031
vt 0.383596848 0.322253105
vt 0.382623138 0.322253105
vt 0.380675718 0.357306673
vt 0.380675718 0.163538339
vt 0.379702008 0.146011556
vt 0.377754587 0.146985266
vt 0.377754587 0.135300743
vt 0.375807167 0.136274453
vt 0.368017485 0.117773959
vt 0.367043775 0.118747669
vt 0.372886036 0.112905408
vt 0.335885048 0.0953786243
vt 0.334911338 0.0973260447
vt 0.29985777 0.0827203915
vt 0.29985777 0.0846678119
vt 0.262856782 0.0788255506
vt 0.339779889 0.0875889425
vt 0.338806178 0.089536363
vt 0.30180519 0.0759044199
vt 0.262856782 0.0778518404
vt 0.224882083 0.0836941017
vt 0.224882083 0.0817466812
vt 0.940559092 0.567628079
vt 0.947375064 0.574444051
vt 0.956138456 0.576391471
vt 0.962954427 0.553996136
vt 0.938611672 0.551075006
vt 0.969770399 0.576391471
vt 0.985349762 0.567628079
vt 0.978533791 0.573470341
vt 0.987297183 0.551075006
vt 0.962954427 0.516995148
vt 0.935690541 0.516995148
vt 0.989244603 0.516995148
vt 0.932769411 0.485836421
vt 0.961980717 0.485836421
vt 0.992165734 0.484862711
vt 0.93082199 0.468309637
vt 0.994113154 0.468309637
vt 0.961980717 0.468309637
vt 0.961980717 0.456625115
vt 0.92984828 0.456625115
vt 0.995086865 0.456625115
vt 0.92790086 0.43715091
vt 0.961980717 0.43715091
vt 0.996060575 0.43715091
vt 0.925953439 0.399176212
vt 0.961980717 0.398202502
vt 0.998007995 0.398202502
vt 0.924979729 0.361201513
vt 0.961980717 0.361201513
vt 0.998007995 0.361201513
vt 0.997034285 0.324200525
vt 0.961007007 0.324200525
vt 0.925953439 0.324200525
vt 0.995086865 0.285252117
vt 0.961007007 0.285252117
vt 0.926927149 0.286225827
vt 0.92887457 0.265777912
vt 0.994113154 0.265777912
vt 0.961007007 0.265777912
vt 0.92984828 0.2550671
vt 0.961007007 0.2550671
vt 0.992165734 0.25409339
vt 0.961007007 0.237540316
vt 0.991192024 0.237540316
vt 0.93082199 0.237540316
vt 0.988270893 0.206381589
vt 0.961007007 0.205407879
vt 0.961007007 0.169380601
vt 0.933743121 0.206381589
vt 0.936664252 0.171328021
vt 0.984376052 0.171328021
vt 0.937637962 0.154774948
vt 0.983402342 0.154774948
vt 0.953217325 0.146985266
vt 0.944453933 0.148932686
vt 0.967822978 0.146985266
vt 0.97658637 0.148932686
vt 0.833450969 0.276488725
vt 0.877267928 0.235592895
vt 0.833450969 0.235592895
vt 0.877267928 0.276488725
vt 0.921084888 0.236566606
vt 0.921084888 0.276488725
vt 0.920111178 0.316410843
vt 0.877267928 0.316410843
vt 0.833450969 0.316410843
vt 0.919137468 0.340753599
vt 0.876294218 0.340753599
vt 0.834424679 0.340753599
vt 0.876294218 0.360227803
vt 0.918163757 0.362175224
vt 0.835398389 0.361201513
vt 0.915242627 0.386517979
vt 0.876294218 0.383596848
vt 0.837345809 0.385544269
vt 0.913295206 0.409887024
vt 0.83929323 0.409887024
vt 0.876294218 0.406965894
vt 0.876294218 0.448835433
vt 0.908426655 0.450782853
vt 0.843188071 0.449809143
vt 0.904531814 0.494599813
vt 0.875320508 0.494599813
vt 0.847082912 0.493626103
vt 0.900636974 0.529653381
vt 0.875320508 0.528679671
vt 0.875320508 0.545232744
vt 0.850004042 0.528679671
vt 0.898689553 0.546206455
vt 0.890899871 0.553022426
vt 0.882136479 0.554969847
vt 0.851951463 0.545232744
vt 0.867530826 0.554969847
vt 0.859741144 0.553022426
vt 0.829556128 0.253119679
vt 0.829556128 0.21222385
vt 0.785739168 0.21222385
vt 0.785739168 0.253119679
vt 0.740948498 0.213197561
vt 0.741922208 0.253119679
vt 0.741922208 0.293041798
vt 0.785739168 0.293041798
vt 0.828582417 0.293041798
vt 0.828582417 0.317384554
vt 0.785739168 0.316410843
vt 0.742895918 0.317384554
vt 0.826634997 0.337832468
vt 0.785739168 0.336858758
vt 0.744843339 0.338806178
vt 0.785739168 0.360227803
vt 0.825661287 0.362175224
vt 0.746790759 0.363148934
vt 0.822740156 0.385544269
vt 0.785739168 0.383596848
vt 0.74873818 0.386517979
vt 0.786712878 0.425466388
vt 0.753606731 0.426440098
vt 0.818845315 0.426440098
vt 0.758475282 0.471230768
vt 0.786712878 0.470257058
vt 0.815924185 0.470257058
vt 0.813003054 0.505310626
vt 0.786712878 0.505310626
vt 0.761396413 0.506284336
vt 0.764317543 0.522837409
vt 0.787686588 0.521863699
vt 0.772107225 0.529653381
vt 0.779896907 0.531600801
vt 0.811055634 0.521863699
vt 0.79450256 0.530627091
vt 0.803265952 0.529653381
vt 0.0739569995 0.196644487
vt 0.0768781302 0.20930272
vt 0.0759044199 0.196644487
vt 0.0759044199 0.20930272
vt 0.067141028 0.194697066
vt 0.080772971 0.220013532
vt 0.0681147382 0.207355299
vt 0.0661673178 0.193723356
vt 0.0788255506 0.220013532
vt 0.0875889425 0.235592895
vt 0.0720095791 0.219039822
vt 0.067141028 0.206381589
vt 0.0856415221 0.236566606
vt 0.101220886 0.264804202
vt 0.0797992608 0.237540316
vt 0.0992734651 0.264804202
vt 0.115826539 0.296936639
vt 0.0106658354 0.169380601
vt 0.0155343865 0.149906396
vt 0.0145606763 0.149906396
vt 0.0700621586 0.219039822
vt 0.114852829 0.296936639
vt 0.1216688 0.313489713
vt 0.12069509 0.313489713
vt 0.126537351 0.322253105
vt 0.125563641 0.322253105
vt 0.131405902 0.331016497
vt 0.115826539 0.313489713
vt 0.109010567 0.29888406
vt 0.0944049141 0.267725333
vt 0.0778518404 0.237540316
vt 0.0924574936 0.267725333
vt 0.0466931134 0.243382577
vt 0.108036857 0.29888406
vt 0.131405902 0.331990207
vt 0.139195584 0.34464844
vt 0.138221874 0.34562215
vt 0.143090425 0.353411832
vt 0.126537351 0.334911338
vt 0.12069509 0.324200525
vt 0.113879118 0.314463423
vt 0.118747669 0.324200525
vt 0.067141028 0.280383565
vt 0.0944049141 0.323226815
vt 0.143090425 0.354385542
vt 0.147958976 0.363148934
vt 0.147958976 0.364122644
vt 0.158669788 0.377754587
vt 0.138221874 0.358280383
vt 0.133353323 0.34659586
vt 0.125563641 0.335885048
vt 0.0846678119 0.310568582
vt 0.157696078 0.378728297
vt 0.176196572 0.407939604
vt 0.175222862 0.408913314
vt 0.191775936 0.43520349
vt 0.152827527 0.381649428
vt 0.131405902 0.34756957
vt 0.144064135 0.368017485
vt 0.137248164 0.359254093
vt 0.143090425 0.368991195
vt 0.190802226 0.4361772
vt 0.201513038 0.449809143
vt 0.118747669 0.369964905
vt 0.200539328 0.451756564
vt 0.208329009 0.458572535
vt 0.207355299 0.460519956
vt 0.223908373 0.469283348
vt 0.196644487 0.457598825
vt 0.185933674 0.441045751
vt 0.170354311 0.411834445
vt 0.151853817 0.382623138
vt 0.168406891 0.412808155
vt 0.129458482 0.395281371
vt 0.184959964 0.442019461
vt 0.223908373 0.471230768
vt 0.262856782 0.474151899
vt 0.123616221 0.379702008
vt 0.144064135 0.427413808
vt 0.262856782 0.476099319
vt 0.29985777 0.469283348
vt 0.205407879 0.467335927
vt 0.221960952 0.478046739
vt 0.196644487 0.459546245
vt 0.262856782 0.482915291
vt 0.30180519 0.477073029
vt 0.29985777 0.470257058
vt 0.335885048 0.457598825
vt 0.334911338 0.456625115
vt 0.204434169 0.469283348
vt 0.221960952 0.47902045
vt 0.368017485 0.43520349
vt 0.367043775 0.43422978
vt 0.262856782 0.483889001
vt 0.338806178 0.464414796
vt 0.377754587 0.418650416
vt 0.375807167 0.417676706
vt 0.372886036 0.441045751
vt 0.379702008 0.406965894
vt 0.377754587 0.406965894
vt 0.382623138 0.423518967
vt 0.380675718 0.38943911
vt 0.379702008 0.38943911
vt 0.385544269 0.411834445
vt 0.382623138 0.357306673
vt 0.387491689 0.39138653
vt 0.3884654 0.39236024
vt 0.3884654 0.358280383
vt 0.387491689 0.412808155
vt 0.383596848 0.425466388
vt 0.38943911 0.323226815
vt 0.38943911 0.358280383
vt 0.419624126 0.401123632
vt 0.419624126 0.438124621
vt 0.420597837 0.460519956
vt 0.421571547 0.461493666
vt 0.424492678 0.486810131
vt 0.419624126 0.483889001
vt 0.409887024 0.502389495
vt 0.411834445 0.503363205
vt 0.38943911 0.512126597
vt 0.39041282 0.514074017
vt 0.418650416 0.482915291
vt 0.406965894 0.497520944
vt 0.405992183 0.496547234
vt 0.353411832 0.522837409
vt 0.353411832 0.52381112
vt 0.315437133 0.531600801
vt 0.315437133 0.532574512
vt 0.277462435 0.542311614
vt 0.373859746 0.442019461
vt 0.386517979 0.505310626
vt 0.387491689 0.507258046
vt 0.339779889 0.465388507
vt 0.351464411 0.516995148
vt 0.350490701 0.515047728
vt 0.313489713 0.52381112
vt 0.30180519 0.47902045
vt 0.313489713 0.52575854
vt 0.276488725 0.535495642
vt 0.276488725 0.533548222
vt 0.277462435 0.541337904
vt 0.240461447 0.551075006
vt 0.240461447 0.541337904
vt 0.239487736 0.543285324
vt 0.240461447 0.549127585
vt 0.217092401 0.551075006
vt 0.217092401 0.549127585
vt 0.196644487 0.544259034
vt 0.218066112 0.542311614
vt 0.218066112 0.543285324
vt 0.197618197 0.542311614
vt 0.183012544 0.52575854
vt 0.200539328 0.537443063
vt 0.200539328 0.536469352
vt 0.184959964 0.52381112
vt 0.173275442 0.504336915
vt 0.187881095 0.518942569
vt 0.188854805 0.517968858
vt 0.174249152 0.503363205
vt 0.155748658 0.469283348
vt 0.179117703 0.497520944
vt 0.178143993 0.498494654
vt 0.156722368 0.469283348
vt 0.136274453 0.430334939
vt 0.161590919 0.465388507
vt 0.162564629 0.464414796
vt 0.142116715 0.427413808
vt 0.137248164 0.429361229
vt 0.1216688 0.398202502
vt 0.12264251 0.398202502
vt 0.115826539 0.381649428
vt 0.128484772 0.396255081
vt 0.12264251 0.380675718
vt 0.116800249 0.381649428
vt 0.109984278 0.370938616
vt 0.110957988 0.370938616
vt 0.105115726 0.363148934
vt 0.117773959 0.370938616
vt 0.106089437 0.362175224
vt 0.0982997549 0.348543281
vt 0.110957988 0.359254093
vt 0.0992734651 0.348543281
vt 0.0944049141 0.339779889
vt 0.111931698 0.358280383
vt 0.104142016 0.34659586
vt 0.105115726 0.34562215
vt 0.0953786243 0.338806178
vt 0.0885626528 0.329069076
vt 0.0982997549 0.333937627
vt 0.0992734651 0.332963917
vt 0.089536363 0.328095366
vt 0.0778518404 0.315437133
vt 0.0934312038 0.324200525
vt 0.0836941017 0.311542292
vt 0.0788255506 0.314463423
vt 0.0603250565 0.285252117
vt 0.0612987667 0.284278406
vt 0.0389034317 0.246303708
vt 0.0651936076 0.281357276
vt 0.044745693 0.244356287
vt 0.0398771419 0.246303708
vt 0.0204029376 0.21125014
vt 0.0281926193 0.21027643
vt 0.0213766478 0.21027643
vt 0.00969212521 0.190802226
vt 0.0106658354 0.189828515
vt 0.00190244347 0.168406891
vt 0.0301400398 0.21027643
vt 0.00384986391 0.168406891
vt 0.00677099456 0.147958976
vt 0.00871841499 0.147958976
vt 0.0174818069 0.190802226
vt 0.0184555172 0.190802226
vt 0.00969212521 0.169380601
vt 0.352438121 0.961980717
vt 0.34659586 0.674736203
vt 0.339779889 0.965875558
vt 0.348543281 0.97366524
vt 0.359254093 0.678631044
vt 0.355359252 0.666946522
vt 0.637735215 0.670841362
vt 0.626050692 0.965875558
vt 0.628971823 0.977560081
vt 0.637735215 0.969770399
vt 0.632866664 0.682525885
vt 0.645524897 0.679604754
vt 0.684473305 0.680578465
vt 0.720500583 0.70492122
vt 0.690315567 0.673762493
vt 0.713684612 0.710763481
vt 0.684473305 0.961980717
vt 0.934716831 0.708816061
vt 0.961007007 0.674736203
vt 0.714658322 0.9317957
vt 0.691289277 0.968796689
vt 0.720500583 0.937637962
vt 0.970744109 0.961007007
vt 0.722448004 0.924006019
vt 0.721474294 0.718553163
vt 0.940559092 0.715632032
vt 0.967822978 0.680578465
vt 0.727316555 0.712710902
vt 0.93082199 0.943480223
vt 0.97463895 0.952243615
vt 0.937637962 0.937637962
vt 0.926927149 0.716605743
vt 0.924006019 0.934716831
vt 0.932769411 0.722448004
vt 0.728290265 0.92984828
vt 0.92984828 0.92887457
vt 0.757501572 0.741922208
vt 0.897715843 0.745817049
vt 0.75165931 0.747764469
vt 0.74971189 0.891873582
vt 0.903558104 0.752633021
vt 0.755554151 0.897715843
vt 0.895768422 0.903558104
vt 0.902584394 0.897715843
vt 0.895768422 0.74873818
vt 0.759448992 0.743869629
vt 0.753606731 0.74971189
vt 0.75165931 0.889926161
vt 0.901610684 0.754580441
vt 0.899663263 0.895768422
vt 0.757501572 0.895768422
vt 0.893821002 0.900636974
vt 0.762370123 0.752633021
vt 0.892847292 0.757501572
vt 0.760422702 0.88700503
vt 0.891873582 0.891873582
g item_10item_10_01_mobile_0
f 3/3/3 2/2/2 1/1/1
f 4/4/4 3/3/3 1/1/1
f 4/4/4 1/1/1 5/5/5
f 3/3/3 4/4/4 6/6/6
f 7/7/7 4/4/4 5/5/5
f 7/7/7 5/5/5 8/8/8
f 4/4/4 9/9/9 6/6/6
f 10/10/10 6/6/6 9/9/9
f 9/9/9 4/4/4 11/11/11
f 4/4/4 7/7/7 11/11/11
f 12/12/12 11/11/11 7/7/7
f 13/13/13 10/10/10 9/9/9
f 13/13/13 9/9/9 11/11/11
f 10/10/10 13/13/13 14/14/14
f 15/15/15 13/13/13 11/11/11
f 13/13/13 15/15/15 14/14/14
f 15/15/15 11/11/11 12/12/12
f 16/16/16 7/7/7 8/8/8
f 16/16/16 12/12/12 7/7/7
f 17/17/17 16/16/16 8/8/8
f 12/12/12 16/16/16 17/17/17
f 18/18/18 17/17/17 8/8/8
f 19/19/19 17/17/17 18/18/18
f 20/20/20 19/19/19 18/18/18
f 15/15/15 21/21/21 14/14/14
f 22/22/22 21/21/21 15/15/15
f 23/23/23 14/14/14 21/21/21
f 24/24/24 23/23/23 21/21/21
f 24/24/24 21/21/21 22/22/22
f 25/25/25 15/15/15 12/12/12
f 25/25/25 22/22/22 15/15/15
f 26/26/26 12/12/12 17/17/17
f 17/17/17 19/19/19 26/26/26
f 27/27/27 25/25/25 12/12/12
f 22/22/22 25/25/25 27/27/27
f 26/26/26 27/27/27 12/12/12
f 28/28/28 19/19/19 20/20/20
f 29/29/29 28/28/28 20/20/20
f 19/19/19 30/30/30 26/26/26
f 30/30/30 19/19/19 28/28/28
f 31/31/31 28/28/28 29/29/29
f 32/32/32 31/31/31 29/29/29
f 32/32/32 33/33/33 31/31/31
f 34/34/34 27/27/27 26/26/26
f 30/30/30 34/34/34 26/26/26
f 27/27/27 34/34/34 35/35/35
f 36/36/36 30/30/30 28/28/28
f 28/28/28 31/31/31 36/36/36
f 37/37/37 34/34/34 30/30/30
f 35/35/35 34/34/34 37/37/37
f 36/36/36 37/37/37 30/30/30
f 38/38/38 37/37/37 36/36/36
f 37/37/37 38/38/38 35/35/35
f 31/31/31 39/39/39 36/36/36
f 39/39/39 38/38/38 36/36/36
f 33/33/33 40/40/40 31/31/31
f 31/31/31 40/40/40 39/39/39
f 40/40/40 33/33/33 41/41/41
f 33/33/33 42/42/42 41/41/41
f 40/40/40 43/43/43 39/39/39
f 39/39/39 43/43/43 38/38/38
f 40/40/40 41/41/41 43/43/43
f 41/41/41 42/42/42 44/44/44
f 42/42/42 45/45/45 44/44/44
f 44/44/44 45/45/45 46/46/46
f 41/41/41 47/47/47 43/43/43
f 41/41/41 44/44/44 47/47/47
f 43/43/43 48/48/48 38/38/38
f 38/38/38 48/48/48 49/49/49
f 38/38/38 49/49/49 35/35/35
f 48/48/48 43/43/43 50/50/50
f 43/43/43 47/47/47 50/50/50
f 49/49/49 48/48/48 50/50/50
f 50/50/50 47/47/47 51/51/51
f 44/44/44 52/52/52 47/47/47
f 47/47/47 52/52/52 51/51/51
f 53/53/53 44/44/44 46/46/46
f 44/44/44 53/53/53 52/52/52
f 54/54/54 53/53/53 46/46/46
f 55/55/55 54/54/54 46/46/46
f 54/54/54 55/55/55 56/56/56
f 53/53/53 57/57/57 52/52/52
f 51/51/51 52/52/52 57/57/57
f 57/57/57 53/53/53 54/54/54
f 58/58/58 49/49/49 50/50/50
f 50/50/50 51/51/51 58/58/58
f 59/59/59 54/54/54 56/56/56
f 59/59/59 56/56/56 60/60/60
f 56/56/56 61/61/61 60/60/60
f 60/60/60 61/61/61 62/62/62
f 61/61/61 63/63/63 62/62/62
f 59/59/59 60/60/60 64/64/64
f 60/60/60 62/62/62 64/64/64
f 54/54/54 59/59/59 65/65/65
f 65/65/65 59/59/59 64/64/64
f 66/66/66 62/62/62 63/63/63
f 67/67/67 66/66/66 63/63/63
f 68/68/68 57/57/57 54/54/54
f 68/68/68 54/54/54 65/65/65
f 68/68/68 69/69/69 57/57/57
f 69/69/69 68/68/68 65/65/65
f 70/70/70 51/51/51 57/57/57
f 69/69/69 70/70/70 57/57/57
f 51/51/51 70/70/70 71/71/71
f 71/71/71 70/70/70 69/69/69
f 62/62/62 72/72/72 64/64/64
f 62/62/62 66/66/66 72/72/72
f 73/73/73 66/66/66 67/67/67
f 74/74/74 73/73/73 67/67/67
f 75/75/75 51/51/51 71/71/71
f 75/75/75 71/71/71 76/76/76
f 51/51/51 75/75/75 58/58/58
f 58/58/58 75/75/75 76/76/76
f 66/66/66 77/77/77 72/72/72
f 77/77/77 66/66/66 73/73/73
f 73/73/73 74/74/74 78/78/78
f 74/74/74 79/79/79 78/78/78
f 79/79/79 80/80/80 78/78/78
f 81/81/81 58/58/58 76/76/76
f 49/49/49 58/58/58 81/81/81
f 82/82/82 49/49/49 81/81/81
f 49/49/49 82/82/82 35/35/35
f 77/77/77 83/83/83 72/72/72
f 83/83/83 84/84/84 72/72/72
f 64/64/64 72/72/72 84/84/84
f 85/85/85 64/64/64 84/84/84
f 64/64/64 85/85/85 65/65/65
f 85/85/85 86/86/86 65/65/65
f 86/86/86 69/69/69 65/65/65
f 87/87/87 83/83/83 77/77/77
f 83/83/83 88/88/88 84/84/84
f 83/83/83 87/87/87 88/88/88
f 84/84/84 89/89/89 85/85/85
f 88/88/88 89/89/89 84/84/84
f 86/86/86 85/85/85 90/90/90
f 89/89/89 90/90/90 85/85/85
f 69/69/69 86/86/86 91/91/91
f 91/91/91 86/86/86 90/90/90
f 92/92/92 87/87/87 77/77/77
f 92/92/92 77/77/77 73/73/73
f 93/93/93 92/92/92 73/73/73
f 78/78/78 93/93/93 73/73/73
f 94/94/94 93/93/93 78/78/78
f 93/93/93 95/95/95 92/92/92
f 95/95/95 87/87/87 92/92/92
f 93/93/93 94/94/94 95/95/95
f 96/96/96 69/69/69 91/91/91
f 97/97/97 96/96/96 91/91/91
f 96/96/96 71/71/71 69/69/69
f 96/96/96 97/97/97 71/71/71
f 98/98/98 94/94/94 78/78/78
f 80/80/80 98/98/98 78/78/78
f 98/98/98 80/80/80 99/99/99
f 98/98/98 99/99/99 94/94/94
f 80/80/80 100/100/100 99/99/99
f 100/100/100 101/101/101 99/99/99
f 97/97/97 102/102/102 71/71/71
f 102/102/102 97/97/97 103/103/103
f 71/71/71 102/102/102 76/76/76
f 76/76/76 102/102/102 103/103/103
f 101/101/101 104/104/104 99/99/99
f 99/99/99 105/105/105 94/94/94
f 105/105/105 99/99/99 104/104/104
f 94/94/94 105/105/105 106/106/106
f 104/104/104 101/101/101 107/107/107
f 101/101/101 108/108/108 107/107/107
f 109/109/109 105/105/105 104/104/104
f 105/105/105 109/109/109 106/106/106
f 104/104/104 107/107/107 109/109/109
f 110/110/110 107/107/107 108/108/108
f 111/111/111 110/110/110 108/108/108
f 110/110/110 111/111/111 112/112/112
f 113/113/113 94/94/94 106/106/106
f 113/113/113 106/106/106 114/114/114
f 94/94/94 113/113/113 95/95/95
f 113/113/113 114/114/114 95/95/95
f 107/107/107 115/115/115 109/109/109
f 115/115/115 107/107/107 110/110/110
f 114/114/114 116/116/116 95/95/95
f 87/87/87 95/95/95 116/116/116
f 117/117/117 87/87/87 116/116/116
f 87/87/87 117/117/117 88/88/88
f 117/117/117 116/116/116 118/118/118
f 116/116/116 114/114/114 118/118/118
f 117/117/117 119/119/119 88/88/88
f 119/119/119 117/117/117 118/118/118
f 119/119/119 120/120/120 88/88/88
f 89/89/89 88/88/88 120/120/120
f 121/121/121 89/89/89 120/120/120
f 90/90/90 89/89/89 121/121/121
f 120/120/120 119/119/119 122/122/122
f 120/120/120 122/122/122 121/121/121
f 123/123/123 90/90/90 121/121/121
f 91/91/91 90/90/90 123/123/123
f 124/124/124 91/91/91 123/123/123
f 124/124/124 97/97/97 91/91/91
f 123/123/123 121/121/121 125/125/125
f 123/123/123 125/125/125 124/124/124
f 97/97/97 124/124/124 126/126/126
f 125/125/125 126/126/126 124/124/124
f 122/122/122 127/127/127 121/121/121
f 121/121/121 127/127/127 125/125/125
f 128/128/128 97/97/97 126/126/126
f 97/97/97 128/128/128 103/103/103
f 129/129/129 128/128/128 126/126/126
f 128/128/128 129/129/129 103/103/103
f 130/130/130 129/129/129 126/126/126
f 131/131/131 130/130/130 126/126/126
f 125/125/125 131/131/131 126/126/126
f 131/131/131 125/125/125 132/132/132
f 125/125/125 127/127/127 132/132/132
f 133/133/133 132/132/132 127/127/127
f 122/122/122 133/133/133 127/127/127
f 129/129/129 134/134/134 103/103/103
f 135/135/135 133/133/133 122/122/122
f 103/103/103 134/134/134 136/136/136
f 137/137/137 135/135/135 122/122/122
f 119/119/119 137/137/137 122/122/122
f 138/138/138 135/135/135 137/137/137
f 137/137/137 119/119/119 139/139/139
f 139/139/139 138/138/138 137/137/137
f 139/139/139 140/140/140 138/138/138
f 119/119/119 118/118/118 139/139/139
f 140/140/140 139/139/139 118/118/118
f 140/140/140 141/141/141 138/138/138
f 141/141/141 140/140/140 142/142/142
f 143/143/143 103/103/103 136/136/136
f 143/143/143 76/76/76 103/103/103
f 144/144/144 143/143/143 136/136/136
f 76/76/76 143/143/143 144/144/144
f 145/145/145 144/144/144 136/136/136
f 81/81/81 76/76/76 144/144/144
f 146/146/146 144/144/144 145/145/145
f 144/144/144 146/146/146 81/81/81
f 147/147/147 146/146/146 145/145/145
f 146/146/146 82/82/82 81/81/81
f 146/146/146 147/147/147 148/148/148
f 146/146/146 148/148/148 82/82/82
f 147/147/147 149/149/149 148/148/148
f 148/148/148 150/150/150 82/82/82
f 82/82/82 150/150/150 35/35/35
f 148/148/148 149/149/149 151/151/151
f 150/150/150 148/148/148 151/151/151
f 149/149/149 152/152/152 151/151/151
f 151/151/151 152/152/152 153/153/153
f 152/152/152 154/154/154 153/153/153
f 154/154/154 155/155/155 153/153/153
f 35/35/35 150/150/150 156/156/156
f 156/156/156 27/27/27 35/35/35
f 156/156/156 22/22/22 27/27/27
f 157/157/157 150/150/150 151/151/151
f 150/150/150 157/157/157 156/156/156
f 156/156/156 157/157/157 22/22/22
f 151/151/151 153/153/153 157/157/157
f 157/157/157 158/158/158 22/22/22
f 153/153/153 158/158/158 157/157/157
f 158/158/158 24/24/24 22/22/22
f 158/158/158 153/153/153 24/24/24
f 155/155/155 159/159/159 153/153/153
f 153/153/153 159/159/159 24/24/24
f 155/155/155 160/160/160 159/159/159
f 23/23/23 24/24/24 159/159/159
f 160/160/160 161/161/161 159/159/159
f 161/161/161 23/23/23 159/159/159
f 164/164/164 163/163/163 162/162/162
f 165/165/165 164/164/164 162/162/162
f 162/162/162 166/166/166 165/165/165
f 165/165/165 167/167/167 164/164/164
f 168/168/168 167/167/167 165/165/165
f 168/168/168 169/169/169 167/167/167
f 165/165/165 170/170/170 168/168/168
f 165/165/165 166/166/166 171/171/171
f 165/165/165 171/171/171 170/170/170
f 166/166/166 172/172/172 171/171/171
f 171/171/171 173/173/173 170/170/170
f 171/171/171 172/172/172 174/174/174
f 173/173/173 171/171/171 175/175/175
f 175/175/175 171/171/171 174/174/174
f 176/176/176 173/173/173 175/175/175
f 174/174/174 177/177/177 175/175/175
f 176/176/176 175/175/175 178/178/178
f 177/177/177 179/179/179 175/175/175
f 175/175/175 179/179/179 178/178/178
f 180/180/180 179/179/179 177/177/177
f 178/178/178 179/179/179 180/180/180
f 181/181/181 180/180/180 177/177/177
f 182/182/182 178/178/178 180/180/180
f 181/181/181 183/183/183 180/180/180
f 182/182/182 180/180/180 184/184/184
f 183/183/183 184/184/184 180/180/180
f 185/185/185 182/182/182 184/184/184
f 184/184/184 183/183/183 186/186/186
f 185/185/185 184/184/184 187/187/187
f 187/187/187 184/184/184 186/186/186
f 188/188/188 185/185/185 187/187/187
f 187/187/187 186/186/186 189/189/189
f 188/188/188 187/187/187 190/190/190
f 190/190/190 187/187/187 189/189/189
f 191/191/191 188/188/188 190/190/190
f 192/192/192 191/191/191 190/190/190
f 193/193/193 190/190/190 189/189/189
f 193/193/193 192/192/192 190/190/190
f 194/194/194 193/193/193 189/189/189
f 195/195/195 192/192/192 193/193/193
f 196/196/196 193/193/193 194/194/194
f 196/196/196 195/195/195 193/193/193
f 197/197/197 196/196/196 194/194/194
f 196/196/196 197/197/197 198/198/198
f 199/199/199 195/195/195 196/196/196
f 200/200/200 196/196/196 198/198/198
f 200/200/200 199/199/199 196/196/196
f 200/200/200 198/198/198 201/201/201
f 200/200/200 202/202/202 199/199/199
f 202/202/202 200/200/200 201/201/201
f 202/202/202 203/203/203 199/199/199
f 202/202/202 201/201/201 204/204/204
f 202/202/202 204/204/204 203/203/203
f 204/204/204 205/205/205 203/203/203
f 201/201/201 206/206/206 204/204/204
f 205/205/205 204/204/204 207/207/207
f 204/204/204 206/206/206 208/208/208
f 204/204/204 208/208/208 207/207/207
f 207/207/207 208/208/208 209/209/209
f 206/206/206 210/210/210 208/208/208
f 210/210/210 211/211/211 208/208/208
f 211/211/211 209/209/209 208/208/208
f 212/212/212 207/207/207 209/209/209
f 209/209/209 211/211/211 213/213/213
f 214/214/214 212/212/212 209/209/209
f 213/213/213 215/215/215 209/209/209
f 213/213/213 216/216/216 215/215/215
f 217/217/217 209/209/209 215/215/215
f 209/209/209 217/217/217 214/214/214
f 217/217/217 218/218/218 214/214/214
f 221/221/221 220/220/220 219/219/219
f 220/220/220 222/222/222 219/219/219
f 220/220/220 223/223/223 222/222/222
f 223/223/223 224/224/224 222/222/222
f 222/222/222 224/224/224 225/225/225
f 219/219/219 222/222/222 226/226/226
f 226/226/226 222/222/222 225/225/225
f 227/227/227 219/219/219 226/226/226
f 226/226/226 225/225/225 228/228/228
f 227/227/227 226/226/226 229/229/229
f 229/229/229 226/226/226 228/228/228
f 230/230/230 227/227/227 229/229/229
f 231/231/231 229/229/229 228/228/228
f 230/230/230 229/229/229 231/231/231
f 232/232/232 231/231/231 228/228/228
f 233/233/233 230/230/230 231/231/231
f 232/232/232 234/234/234 231/231/231
f 233/233/233 231/231/231 235/235/235
f 234/234/234 235/235/235 231/231/231
f 236/236/236 233/233/233 235/235/235
f 234/234/234 237/237/237 235/235/235
f 236/236/236 235/235/235 238/238/238
f 237/237/237 239/239/239 235/235/235
f 235/235/235 239/239/239 238/238/238
f 240/240/240 239/239/239 237/237/237
f 238/238/238 239/239/239 240/240/240
f 241/241/241 240/240/240 237/237/237
f 242/242/242 238/238/238 240/240/240
f 241/241/241 243/243/243 240/240/240
f 240/240/240 244/244/244 242/242/242
f 243/243/243 244/244/244 240/240/240
f 244/244/244 245/245/245 242/242/242
f 244/244/244 243/243/243 246/246/246
f 245/245/245 244/244/244 247/247/247
f 247/247/247 244/244/244 246/246/246
f 248/248/248 247/247/247 246/246/246
f 249/249/249 245/245/245 247/247/247
f 249/249/249 247/247/247 248/248/248
f 250/250/250 248/248/248 246/246/246
f 250/250/250 251/251/251 248/248/248
f 251/251/251 252/252/252 248/248/248
f 253/253/253 249/249/249 248/248/248
f 252/252/252 254/254/254 248/248/248
f 253/253/253 248/248/248 254/254/254
f 255/255/255 253/253/253 254/254/254
f 258/258/258 257/257/257 256/256/256
f 259/259/259 258/258/258 256/256/256
f 260/260/260 258/258/258 259/259/259
f 261/261/261 260/260/260 259/259/259
f 261/261/261 259/259/259 262/262/262
f 259/259/259 256/256/256 263/263/263
f 259/259/259 263/263/263 262/262/262
f 256/256/256 264/264/264 263/263/263
f 263/263/263 264/264/264 265/265/265
f 262/262/262 263/263/263 266/266/266
f 266/266/266 263/263/263 265/265/265
f 267/267/267 262/262/262 266/266/266
f 266/266/266 265/265/265 268/268/268
f 266/266/266 269/269/269 267/267/267
f 269/269/269 266/266/266 268/268/268
f 269/269/269 270/270/270 267/267/267
f 269/269/269 268/268/268 271/271/271
f 269/269/269 271/271/271 270/270/270
f 268/268/268 272/272/272 271/271/271
f 271/271/271 273/273/273 270/270/270
f 271/271/271 272/272/272 274/274/274
f 271/271/271 275/275/275 273/273/273
f 275/275/275 271/271/271 274/274/274
f 275/275/275 276/276/276 273/273/273
f 275/275/275 274/274/274 277/277/277
f 275/275/275 277/277/277 276/276/276
f 277/277/277 278/278/278 276/276/276
f 274/274/274 279/279/279 277/277/277
f 278/278/278 277/277/277 280/280/280
f 277/277/277 279/279/279 281/281/281
f 277/277/277 281/281/281 280/280/280
f 279/279/279 282/282/282 281/281/281
f 281/281/281 282/282/282 283/283/283
f 280/280/280 281/281/281 284/284/284
f 284/284/284 281/281/281 283/283/283
f 285/285/285 280/280/280 284/284/284
f 285/285/285 284/284/284 286/286/286
f 284/284/284 283/283/283 287/287/287
f 284/284/284 287/287/287 286/286/286
f 288/288/288 286/286/286 287/287/287
f 289/289/289 288/288/288 287/287/287
f 283/283/283 290/290/290 287/287/287
f 291/291/291 289/289/289 287/287/287
f 287/287/287 290/290/290 291/291/291
f 290/290/290 292/292/292 291/291/291
f 295/295/295 294/294/294 293/293/293
f 294/294/294 296/296/296 293/293/293
f 297/297/297 293/293/293 296/296/296
f 296/296/296 294/294/294 298/298/298
f 299/299/299 297/297/297 296/296/296
f 297/297/297 299/299/299 300/300/300
f 301/301/301 296/296/296 298/298/298
f 301/301/301 298/298/298 302/302/302
f 299/299/299 296/296/296 303/303/303
f 296/296/296 301/301/301 303/303/303
f 299/299/299 304/304/304 300/300/300
f 304/304/304 299/299/299 303/303/303
f 305/305/305 301/301/301 302/302/302
f 305/305/305 302/302/302 306/306/306
f 307/307/307 303/303/303 301/301/301
f 305/305/305 307/307/307 301/301/301
f 308/308/308 305/305/305 306/306/306
f 305/305/305 308/308/308 307/307/307
f 306/306/306 309/309/309 308/308/308
f 304/304/304 310/310/310 300/300/300
f 310/310/310 311/311/311 300/300/300
f 311/311/311 310/310/310 312/312/312
f 313/313/313 304/304/304 303/303/303
f 313/313/313 303/303/303 307/307/307
f 309/309/309 314/314/314 308/308/308
f 309/309/309 315/315/315 314/314/314
f 315/315/315 316/316/316 314/314/314
f 315/315/315 317/317/317 316/316/316
f 317/317/317 318/318/318 316/316/316
f 318/318/318 317/317/317 319/319/319
f 316/316/316 320/320/320 314/314/314
f 316/316/316 318/318/318 320/320/320
f 314/314/314 321/321/321 308/308/308
f 320/320/320 321/321/321 314/314/314
f 308/308/308 322/322/322 307/307/307
f 321/321/321 322/322/322 308/308/308
f 323/323/323 307/307/307 322/322/322
f 323/323/323 313/313/313 307/307/307
f 322/322/322 321/321/321 324/324/324
f 324/324/324 323/323/323 322/322/322
f 323/323/323 325/325/325 313/313/313
f 323/323/323 324/324/324 325/325/325
f 321/321/321 326/326/326 324/324/324
f 321/321/321 320/320/320 326/326/326
f 327/327/327 318/318/318 319/319/319
f 319/319/319 328/328/328 327/327/327
f 328/328/328 329/329/329 327/327/327
f 328/328/328 330/330/330 329/329/329
f 327/327/327 331/331/331 318/318/318
f 327/327/327 329/329/329 331/331/331
f 318/318/318 332/332/332 320/320/320
f 331/331/331 332/332/332 318/318/318
f 333/333/333 320/320/320 332/332/332
f 320/320/320 333/333/333 326/326/326
f 334/334/334 333/333/333 332/332/332
f 334/334/334 332/332/332 331/331/331
f 324/324/324 335/335/335 325/325/325
f 335/335/335 324/324/324 326/326/326
f 333/333/333 336/336/336 326/326/326
f 336/336/336 333/333/333 334/334/334
f 330/330/330 337/337/337 329/329/329
f 330/330/330 338/338/338 337/337/337
f 338/338/338 339/339/339 337/337/337
f 339/339/339 338/338/338 340/340/340
f 337/337/337 341/341/341 329/329/329
f 341/341/341 337/337/337 339/339/339
f 329/329/329 342/342/342 331/331/331
f 341/341/341 342/342/342 329/329/329
f 343/343/343 334/334/334 331/331/331
f 343/343/343 331/331/331 342/342/342
f 344/344/344 335/335/335 326/326/326
f 336/336/336 344/344/344 326/326/326
f 345/345/345 339/339/339 340/340/340
f 345/345/345 340/340/340 346/346/346
f 347/347/347 345/345/345 346/346/346
f 347/347/347 346/346/346 348/348/348
f 339/339/339 345/345/345 349/349/349
f 345/345/345 347/347/347 349/349/349
f 342/342/342 341/341/341 350/350/350
f 350/350/350 343/343/343 342/342/342
f 351/351/351 341/341/341 339/339/339
f 351/351/351 339/339/339 349/349/349
f 352/352/352 341/341/341 351/351/351
f 341/341/341 352/352/352 350/350/350
f 353/353/353 352/352/352 351/351/351
f 353/353/353 351/351/351 349/349/349
f 354/354/354 347/347/347 348/348/348
f 348/348/348 355/355/355 354/354/354
f 352/352/352 356/356/356 350/350/350
f 356/356/356 352/352/352 353/353/353
f 355/355/355 357/357/357 354/354/354
f 355/355/355 358/358/358 357/357/357
f 358/358/358 359/359/359 357/357/357
f 359/359/359 358/358/358 360/360/360
f 357/357/357 361/361/361 354/354/354
f 361/361/361 357/357/357 359/359/359
f 354/354/354 362/362/362 347/347/347
f 361/361/361 362/362/362 354/354/354
f 347/347/347 363/363/363 349/349/349
f 362/362/362 363/363/363 347/347/347
f 364/364/364 349/349/349 363/363/363
f 364/364/364 353/353/353 349/349/349
f 365/365/365 363/363/363 362/362/362
f 365/365/365 364/364/364 363/363/363
f 353/353/353 364/364/364 366/366/366
f 364/364/364 365/365/365 366/366/366
f 367/367/367 365/365/365 362/362/362
f 362/362/362 361/361/361 367/367/367
f 368/368/368 359/359/359 360/360/360
f 368/368/368 360/360/360 369/369/369
f 370/370/370 353/353/353 366/366/366
f 370/370/370 356/356/356 353/353/353
f 365/365/365 371/371/371 366/366/366
f 371/371/371 365/365/365 367/367/367
f 372/372/372 368/368/368 369/369/369
f 372/372/372 369/369/369 373/373/373
f 374/374/374 361/361/361 359/359/359
f 359/359/359 368/368/368 375/375/375
f 374/374/374 359/359/359 375/375/375
f 361/361/361 374/374/374 376/376/376
f 361/361/361 376/376/376 367/367/367
f 368/368/368 372/372/372 377/377/377
f 375/375/375 368/368/368 377/377/377
f 378/378/378 377/377/377 372/372/372
f 379/379/379 372/372/372 373/373/373
f 379/379/379 378/378/378 372/372/372
f 380/380/380 379/379/379 373/373/373
f 378/378/378 379/379/379 380/380/380
f 381/381/381 380/380/380 373/373/373
f 382/382/382 374/374/374 375/375/375
f 374/374/374 382/382/382 376/376/376
f 383/383/383 375/375/375 377/377/377
f 383/383/383 382/382/382 375/375/375
f 384/384/384 380/380/380 381/381/381
f 385/385/385 384/384/384 381/381/381
f 386/386/386 377/377/377 378/378/378
f 386/386/386 383/383/383 377/377/377
f 380/380/380 384/384/384 387/387/387
f 387/387/387 378/378/378 380/380/380
f 388/388/388 384/384/384 385/385/385
f 389/389/389 388/388/388 385/385/385
f 384/384/384 390/390/390 387/387/387
f 384/384/384 388/388/388 390/390/390
f 388/388/388 389/389/389 391/391/391
f 389/389/389 392/392/392 391/391/391
f 388/388/388 393/393/393 390/390/390
f 388/388/388 391/391/391 393/393/393
f 391/391/391 392/392/392 394/394/394
f 392/392/392 395/395/395 394/394/394
f 394/394/394 395/395/395 142/142/142
f 391/391/391 396/396/396 393/393/393
f 396/396/396 391/391/391 394/394/394
f 397/397/397 394/394/394 142/142/142
f 140/140/140 397/397/397 142/142/142
f 394/394/394 397/397/397 398/398/398
f 398/398/398 396/396/396 394/394/394
f 396/396/396 398/398/398 399/399/399
f 397/397/397 400/400/400 398/398/398
f 400/400/400 397/397/397 140/140/140
f 399/399/399 398/398/398 400/400/400
f 393/393/393 396/396/396 401/401/401
f 401/401/401 396/396/396 399/399/399
f 393/393/393 402/402/402 390/390/390
f 402/402/402 393/393/393 401/401/401
f 403/403/403 400/400/400 140/140/140
f 403/403/403 140/140/140 118/118/118
f 114/114/114 403/403/403 118/118/118
f 403/403/403 114/114/114 400/400/400
f 114/114/114 404/404/404 400/400/400
f 404/404/404 399/399/399 400/400/400
f 106/106/106 404/404/404 114/114/114
f 399/399/399 404/404/404 106/106/106
f 405/405/405 399/399/399 106/106/106
f 109/109/109 405/405/405 106/106/106
f 399/399/399 405/405/405 406/406/406
f 405/405/405 109/109/109 406/406/406
f 401/401/401 399/399/399 406/406/406
f 109/109/109 115/115/115 406/406/406
f 406/406/406 407/407/407 401/401/401
f 407/407/407 406/406/406 115/115/115
f 407/407/407 402/402/402 401/401/401
f 408/408/408 407/407/407 115/115/115
f 408/408/408 115/115/115 110/110/110
f 110/110/110 409/409/409 408/408/408
f 409/409/409 110/110/110 112/112/112
f 407/407/407 408/408/408 410/410/410
f 409/409/409 410/410/410 408/408/408
f 409/409/409 112/112/112 411/411/411
f 409/409/409 411/411/411 410/410/410
f 112/112/112 412/412/412 411/411/411
f 411/411/411 412/412/412 413/413/413
f 412/412/412 414/414/414 413/413/413
f 402/402/402 407/407/407 415/415/415
f 415/415/415 407/407/407 410/410/410
f 411/411/411 416/416/416 410/410/410
f 411/411/411 413/413/413 416/416/416
f 415/415/415 410/410/410 417/417/417
f 402/402/402 415/415/415 417/417/417
f 410/410/410 416/416/416 417/417/417
f 413/413/413 414/414/414 418/418/418
f 414/414/414 419/419/419 418/418/418
f 418/418/418 419/419/419 420/420/420
f 419/419/419 421/421/421 420/420/420
f 421/421/421 422/422/422 420/420/420
f 423/423/423 402/402/402 417/417/417
f 402/402/402 423/423/423 390/390/390
f 390/390/390 423/423/423 387/387/387
f 417/417/417 416/416/416 424/424/424
f 417/417/417 424/424/424 423/423/423
f 413/413/413 425/425/425 416/416/416
f 425/425/425 413/413/413 418/418/418
f 416/416/416 425/425/425 424/424/424
f 423/423/423 426/426/426 387/387/387
f 426/426/426 423/423/423 424/424/424
f 387/387/387 426/426/426 378/378/378
f 427/427/427 425/425/425 418/418/418
f 418/418/418 420/420/420 427/427/427
f 424/424/424 425/425/425 428/428/428
f 428/428/428 426/426/426 424/424/424
f 425/425/425 427/427/427 428/428/428
f 428/428/428 429/429/429 426/426/426
f 428/428/428 427/427/427 429/429/429
f 426/426/426 430/430/430 378/378/378
f 429/429/429 430/430/430 426/426/426
f 430/430/430 386/386/386 378/378/378
f 430/430/430 429/429/429 386/386/386
f 420/420/420 431/431/431 427/427/427
f 427/427/427 431/431/431 429/429/429
f 431/431/431 420/420/420 432/432/432
f 431/431/431 432/432/432 429/429/429
f 429/429/429 433/433/433 386/386/386
f 432/432/432 433/433/433 429/429/429
f 420/420/420 434/434/434 432/432/432
f 422/422/422 434/434/434 420/420/420
f 422/422/422 435/435/435 434/434/434
f 386/386/386 433/433/433 436/436/436
f 383/383/383 386/386/386 436/436/436
f 432/432/432 437/437/437 433/433/433
f 437/437/437 432/432/432 434/434/434
f 437/437/437 436/436/436 433/433/433
f 435/435/435 438/438/438 434/434/434
f 438/438/438 437/437/437 434/434/434
f 435/435/435 439/439/439 438/438/438
f 439/439/439 440/440/440 438/438/438
f 437/437/437 438/438/438 440/440/440
f 439/439/439 441/441/441 440/440/440
f 383/383/383 436/436/436 442/442/442
f 382/382/382 383/383/383 442/442/442
f 437/437/437 443/443/443 436/436/436
f 443/443/443 437/437/437 440/440/440
f 443/443/443 442/442/442 436/436/436
f 441/441/441 444/444/444 440/440/440
f 443/443/443 440/440/440 444/444/444
f 441/441/441 445/445/445 444/444/444
f 443/443/443 446/446/446 442/442/442
f 446/446/446 443/443/443 444/444/444
f 447/447/447 382/382/382 442/442/442
f 446/446/446 447/447/447 442/442/442
f 445/445/445 448/448/448 444/444/444
f 448/448/448 445/445/445 449/449/449
f 446/446/446 444/444/444 450/450/450
f 446/446/446 450/450/450 447/447/447
f 444/444/444 448/448/448 450/450/450
f 447/447/447 451/451/451 382/382/382
f 450/450/450 451/451/451 447/447/447
f 382/382/382 451/451/451 376/376/376
f 452/452/452 448/448/448 449/449/449
f 448/448/448 452/452/452 450/450/450
f 449/449/449 453/453/453 452/452/452
f 451/451/451 454/454/454 376/376/376
f 367/367/367 376/376/376 454/454/454
f 451/451/451 450/450/450 455/455/455
f 452/452/452 455/455/455 450/450/450
f 454/454/454 451/451/451 455/455/455
f 453/453/453 456/456/456 452/452/452
f 453/453/453 457/457/457 456/456/456
f 455/455/455 452/452/452 458/458/458
f 455/455/455 458/458/458 454/454/454
f 452/452/452 456/456/456 458/458/458
f 459/459/459 367/367/367 454/454/454
f 458/458/458 459/459/459 454/454/454
f 459/459/459 371/371/371 367/367/367
f 458/458/458 460/460/460 459/459/459
f 458/458/458 456/456/456 460/460/460
f 460/460/460 371/371/371 459/459/459
f 457/457/457 461/461/461 456/456/456
f 456/456/456 461/461/461 460/460/460
f 457/457/457 462/462/462 461/461/461
f 462/462/462 463/463/463 461/461/461
f 460/460/460 461/461/461 463/463/463
f 462/462/462 464/464/464 463/463/463
f 460/460/460 465/465/465 371/371/371
f 465/465/465 460/460/460 463/463/463
f 465/465/465 366/366/366 371/371/371
f 465/465/465 466/466/466 366/366/366
f 466/466/466 465/465/465 463/463/463
f 466/466/466 370/370/370 366/366/366
f 464/464/464 467/467/467 463/463/463
f 467/467/467 466/466/466 463/463/463
f 464/464/464 468/468/468 467/467/467
f 468/468/468 469/469/469 467/467/467
f 466/466/466 467/467/467 469/469/469
f 469/469/469 468/468/468 470/470/470
f 370/370/370 466/466/466 471/471/471
f 471/471/471 466/466/466 469/469/469
f 356/356/356 370/370/370 471/471/471
f 472/472/472 469/469/469 470/470/470
f 472/472/472 470/470/470 473/473/473
f 474/474/474 471/471/471 469/469/469
f 356/356/356 471/471/471 474/474/474
f 472/472/472 474/474/474 469/469/469
f 475/475/475 472/472/472 473/473/473
f 473/473/473 476/476/476 475/475/475
f 477/477/477 356/356/356 474/474/474
f 356/356/356 477/477/477 350/350/350
f 474/474/474 472/472/472 478/478/478
f 477/477/477 474/474/474 478/478/478
f 472/472/472 475/475/475 478/478/478
f 350/350/350 477/477/477 479/479/479
f 479/479/479 477/477/477 478/478/478
f 343/343/343 350/350/350 479/479/479
f 476/476/476 480/480/480 475/475/475
f 476/476/476 481/481/481 480/480/480
f 478/478/478 475/475/475 482/482/482
f 478/478/478 482/482/482 479/479/479
f 475/475/475 480/480/480 482/482/482
f 343/343/343 479/479/479 483/483/483
f 482/482/482 483/483/483 479/479/479
f 334/334/334 343/343/343 483/483/483
f 483/483/483 336/336/336 334/334/334
f 481/481/481 484/484/484 480/480/480
f 480/480/480 484/484/484 482/482/482
f 484/484/484 481/481/481 485/485/485
f 483/483/483 482/482/482 486/486/486
f 336/336/336 483/483/483 486/486/486
f 484/484/484 486/486/486 482/482/482
f 336/336/336 486/486/486 487/487/487
f 486/486/486 484/484/484 487/487/487
f 344/344/344 336/336/336 487/487/487
f 488/488/488 484/484/484 485/485/485
f 484/484/484 488/488/488 487/487/487
f 488/488/488 485/485/485 489/489/489
f 490/490/490 488/488/488 489/489/489
f 488/488/488 490/490/490 487/487/487
f 490/490/490 489/489/489 491/491/491
f 344/344/344 487/487/487 492/492/492
f 490/490/490 492/492/492 487/487/487
f 335/335/335 344/344/344 492/492/492
f 335/335/335 492/492/492 493/493/493
f 493/493/493 492/492/492 490/490/490
f 325/325/325 335/335/335 493/493/493
f 494/494/494 490/490/490 491/491/491
f 494/494/494 493/493/493 490/490/490
f 491/491/491 495/495/495 494/494/494
f 493/493/493 496/496/496 325/325/325
f 493/493/493 494/494/494 496/496/496
f 495/495/495 497/497/497 494/494/494
f 494/494/494 497/497/497 496/496/496
f 495/495/495 498/498/498 497/497/497
f 498/498/498 499/499/499 497/497/497
f 496/496/496 497/497/497 499/499/499
f 499/499/499 498/498/498 500/500/500
f 496/496/496 501/501/501 325/325/325
f 325/325/325 501/501/501 313/313/313
f 304/304/304 313/313/313 501/501/501
f 502/502/502 499/499/499 500/500/500
f 502/502/502 500/500/500 503/503/503
f 504/504/504 502/502/502 503/503/503
f 502/502/502 504/504/504 312/312/312
f 505/505/505 496/496/496 499/499/499
f 496/496/496 505/505/505 501/501/501
f 505/505/505 499/499/499 502/502/502
f 506/506/506 304/304/304 501/501/501
f 505/505/505 506/506/506 501/501/501
f 304/304/304 506/506/506 310/310/310
f 507/507/507 502/502/502 312/312/312
f 507/507/507 505/505/505 502/502/502
f 310/310/310 507/507/507 312/312/312
f 506/506/506 505/505/505 507/507/507
f 310/310/310 506/506/506 507/507/507
f 510/510/510 509/509/509 508/508/508
f 508/508/508 511/511/511 510/510/510
f 509/509/509 512/512/512 508/508/508
f 509/509/509 513/513/513 512/512/512
f 513/513/513 514/514/514 512/512/512
f 508/508/508 515/515/515 511/511/511
f 515/515/515 508/508/508 512/512/512
f 515/515/515 516/516/516 511/511/511
f 515/515/515 517/517/517 516/516/516
f 514/514/514 518/518/518 512/512/512
f 518/518/518 515/515/515 512/512/512
f 515/515/515 518/518/518 517/517/517
f 519/519/519 518/518/518 514/514/514
f 518/518/518 519/519/519 517/517/517
f 522/522/522 521/521/521 520/520/520
f 521/521/521 523/523/523 520/520/520
f 520/520/520 523/523/523 524/524/524
f 521/521/521 522/522/522 525/525/525
f 522/522/522 526/526/526 525/525/525
f 523/523/523 527/527/527 524/524/524
f 524/524/524 527/527/527 528/528/528
f 527/527/527 529/529/529 528/528/528
f 528/528/528 529/529/529 530/530/530
f 527/527/527 523/523/523 531/531/531
f 529/529/529 527/527/527 531/531/531
f 532/532/532 523/523/523 521/521/521
f 523/523/523 532/532/532 531/531/531
f 533/533/533 525/525/525 526/526/526
f 534/534/534 533/533/533 526/526/526
f 535/535/535 521/521/521 525/525/525
f 535/535/535 532/532/532 521/521/521
f 529/529/529 536/536/536 530/530/530
f 530/530/530 536/536/536 537/537/537
f 537/537/537 538/538/538 534/534/534
f 536/536/536 538/538/538 537/537/537
f 538/538/538 533/533/533 534/534/534
f 539/539/539 525/525/525 533/533/533
f 539/539/539 535/535/535 525/525/525
f 536/536/536 529/529/529 540/540/540
f 538/538/538 536/536/536 540/540/540
f 541/541/541 533/533/533 538/538/538
f 541/541/541 539/539/539 533/533/533
f 529/529/529 542/542/542 540/540/540
f 542/542/542 529/529/529 531/531/531
f 543/543/543 541/541/541 538/538/538
f 543/543/543 538/538/538 540/540/540
f 535/535/535 544/544/544 532/532/532
f 539/539/539 545/545/545 535/535/535
f 545/545/545 544/544/544 535/535/535
f 532/532/532 546/546/546 531/531/531
f 544/544/544 546/546/546 532/532/532
f 531/531/531 547/547/547 542/542/542
f 546/546/546 547/547/547 531/531/531
f 541/541/541 548/548/548 539/539/539
f 548/548/548 545/545/545 539/539/539
f 542/542/542 549/549/549 540/540/540
f 547/547/547 549/549/549 542/542/542
f 540/540/540 550/550/550 543/543/543
f 549/549/549 550/550/550 540/540/540
f 543/543/543 551/551/551 541/541/541
f 551/551/551 548/548/548 541/541/541
f 550/550/550 551/551/551 543/543/543
f 545/545/545 552/552/552 544/544/544
f 544/544/544 553/553/553 546/546/546
f 552/552/552 553/553/553 544/544/544
f 546/546/546 554/554/554 547/547/547
f 553/553/553 554/554/554 546/546/546
f 547/547/547 555/555/555 549/549/549
f 554/554/554 555/555/555 547/547/547
f 548/548/548 556/556/556 545/545/545
f 556/556/556 552/552/552 545/545/545
f 551/551/551 557/557/557 548/548/548
f 557/557/557 556/556/556 548/548/548
f 549/549/549 558/558/558 550/550/550
f 555/555/555 558/558/558 549/549/549
f 550/550/550 559/559/559 551/551/551
f 559/559/559 557/557/557 551/551/551
f 558/558/558 559/559/559 550/550/550
f 560/560/560 553/553/553 552/552/552
f 554/554/554 553/553/553 560/560/560
f 556/556/556 561/561/561 552/552/552
f 561/561/561 556/556/556 557/557/557
f 561/561/561 560/560/560 552/552/552
f 555/555/555 554/554/554 562/562/562
f 558/558/558 555/555/555 562/562/562
f 554/554/554 560/560/560 562/562/562
f 559/559/559 558/558/558 563/563/563
f 557/557/557 559/559/559 563/563/563
f 563/563/563 561/561/561 557/557/557
f 558/558/558 562/562/562 563/563/563
f 560/560/560 561/561/561 563/563/563
f 562/562/562 560/560/560 563/563/563
