g item_07_03item_07_03_mobile
v -0.746773438 -0.456867614 -0.0487985721
v -0.746773438 -0.452979379 -0.0200158513
v -0.7581936 -0.456867614 -0.0403862901
v -0.744866002 -0.524654956 -0.046646593
v -0.746773438 -0.456867614 -0.0487985721
v -0.755430263 -0.535537124 -0.0388456687
v -0.762913282 -0.456867614 -0.0200158513
v -0.746773438 -0.452979379 -0.0200158513
v -0.707181913 -0.551334607 -0.0511217314
v -0.707181913 -0.533629688 -0.0420002744
v -0.734301741 -0.513772789 -0.0388456687
v -0.707181913 -0.526293395 -0.0200158513
v -0.72992442 -0.509248742 -0.0200158513
v -0.676271668 -0.521182445 -0.0200158513
v -0.658762383 -0.528445374 -0.0749402276
v -0.655020874 -0.523407787 -0.078143742
v -0.672236707 -0.516316037 -0.0200158513
v -0.677665563 -0.386659295 -0.0200158513
v -0.759807585 -0.540036716 -0.0200158513
v -0.707181913 -0.56906398 -0.0420002744
v -0.620002304 -0.548277818 -0.113798123
v -0.615307077 -0.544365129 -0.117833084
v -0.657417396 -0.407421003 -0.0926940554
v -0.7581936 -0.456867614 0.000330133161
v -0.645997234 -0.386854929 -0.0991744471
v -0.665756315 -0.365359592 -0.0200158513
v -0.564613296 -0.311731294 -0.0200158513
v -0.556959098 -0.338557671 -0.134828829
v -0.501350001 -0.306180167 -0.0200158513
v -0.591464127 -0.433367024 -0.153560829
v -0.603422283 -0.452294658 -0.142629753
v -0.563463944 -0.561067421 -0.109029533
v -0.432877938 -0.349708835 -0.182734818
v -0.557448184 -0.188775033 -0.0200158513
v -0.533116147 -0.400647159 -0.195622239
v -0.547055103 -0.478998763 -0.143730197
v -0.567792356 -0.565298017 -0.105630385
v -0.559111077 -0.500738643 -0.132187763
v -0.707181913 -0.576400273 -0.0200158513
v -0.552606231 -0.574174931 -0.0200158513
v -0.755430263 -0.535537124 -0.00118603395
v -0.557252549 -0.57842998 -0.0200158513
v -0.746773438 -0.456867614 0.00876686951
v -0.707181913 -0.56906398 0.00196857181
v -0.744866002 -0.524654956 0.00661489038
v -0.735353276 -0.456867614 0.000330133161
v -0.548864722 -0.527491656 -0.0200158513
v -0.563463944 -0.561067421 0.0689978307
v -0.567792356 -0.565298017 0.0655986819
v -0.707181913 -0.551334607 0.0110900288
v -0.734301741 -0.513772789 -0.00118603395
v -0.730609141 -0.456867614 -0.0200158513
v -0.735353276 -0.456867614 -0.0403862901
v -0.746773438 -0.456867614 -0.0487985721
v -0.734301741 -0.513772789 -0.0388456687
v -0.744866002 -0.524654956 -0.046646593
v -0.72992442 -0.509248742 -0.0200158513
v -0.707181913 -0.533629688 0.00196857181
v -0.707181913 -0.526293395 -0.0200158513
v -0.620002304 -0.548277818 0.0737664209
v -0.658762383 -0.528445374 0.034908525
v -0.676271668 -0.521182445 -0.0200158513
v -0.672236707 -0.516316037 -0.0200158513
v -0.615307077 -0.544365129 0.0778013817
v -0.655020874 -0.523407787 0.0381120394
v -0.559111077 -0.500738643 0.0921560607
v -0.657417396 -0.407421003 0.0526623528
v -0.677665563 -0.386659295 -0.0200158513
v -0.665756315 -0.365359592 -0.0200158513
v -0.603422283 -0.452294658 0.102573596
v -0.645997234 -0.386854929 0.0591427445
v -0.591464127 -0.433367024 0.113529126
v -0.547055103 -0.478998763 0.103698494
v -0.556959098 -0.338557671 0.0947971259
v -0.564613296 -0.311731294 -0.0200158513
v -0.533116147 -0.400647159 0.155590536
v -0.433171389 -0.350858188 0.143852468
v -0.501350001 -0.306180167 -0.0200158513
v -0.536564205 -0.506240862 -0.0200158513
v -0.512281076 -0.458701687 0.121647956
v -0.44287975 -0.413950303 0.209145471
v -0.511596356 -0.489587478 -0.0200158513
v -0.512281076 -0.458701687 -0.161679659
v -0.460315671 -0.454030914 0.142531936
v -0.472983003 -0.481982189 -0.0200158513
v -0.44287975 -0.413950303 -0.249177174
v -0.460315671 -0.454030914 -0.182588093
v -0.351542908 -0.556836826 -0.0200158513
v -0.340000475 -0.527320476 -0.223035518
v -0.328115681 -0.465793436 -0.303808099
v -0.360175279 -0.363207613 -0.247856641
v -0.340000475 -0.527320476 0.183003816
v -0.505360507 -0.188285946 -0.200219649
v -0.539963353 0.149110145 -0.220712359
v -0.594985547 0.15952768 -0.0200158513
v -0.772572734 0.387148381 0.0127040131
v -0.229662636 -0.537322288 -0.0200158513
v -0.215307957 -0.501936904 -0.24188979
v -0.215307957 -0.501936904 0.201858087
v -0.202175993 -0.440996768 -0.335647608
v -0.143167748 -0.378271467 -0.335647608
v -0.129595607 -0.425957368 -0.240006808
v -0.234871404 -0.37550813 -0.313809911
v -0.11832217 -0.452710382 -0.0200158513
v -0.433073572 -0.187845769 -0.280062965
v -0.324569806 -0.187772406 -0.343130626
v -0.456305165 0.119960609 -0.314421268
v 0.012141564 -0.428476162 -0.23093426
v -0.66362879 0.435934726 -0.149012327
v -0.631618101 0.466453703 -0.262284683
v -0.350907096 0.108711627 -0.380692444
v -0.202175993 -0.188139221 -0.37056836
v -0.222130709 0.0852844 -0.413314491
v -0.00822887473 -0.289013242 -0.297278798
v -0.515826951 0.484452074 -0.346089598
v -0.356825039 0.396294292 -0.402676867
v -0.0826922434 0.0686065618 -0.338019676
v -0.141700489 0.313492005 -0.331734919
v -0.0671393033 -0.11179287 -0.297547796
v 0.05576805 -0.206577769 -0.196722683
v -0.00884023243 -0.0824966089 -0.190364563
v 0.00245765798 0.0594606505 -0.208265116
v -0.0757227655 0.175056166 -0.251329153
v 0.152656019 -0.395634026 -0.241400704
v -0.081078259 0.183174996 -0.248957085
v 0.132041037 -0.489294027 -0.17701251
v 0.133924019 -0.489807567 -0.17632779
v 0.154465638 -0.396489927 -0.240667075
v 0.012141564 -0.455987259 -0.0200158513
v 0.292925931 -0.510104643 -0.132065492
v 0.288328521 -0.437450893 -0.178822129
v -0.129595607 -0.425957368 0.199975106
v 0.306449164 -0.504724695 -0.127810442
v 0.301949571 -0.434051744 -0.171803743
v -0.202885168 -0.441534763 0.295591451
v 0.403508313 -0.379860997 -0.092180515
v 0.398715269 -0.341027556 -0.115094202
v -0.327039691 -0.466111342 0.264265482
v -0.365212867 -0.344328887 0.244506401
v -0.24064262 -0.357118491 0.304541728
v -0.143167748 -0.378271467 0.295591451
v 0.408717081 -0.377342204 -0.0903953505
v 0.404095217 -0.339022302 -0.112575408
v 0.012141564 -0.428476162 0.190902557
v 0.494184888 -0.377513384 -0.0623218046
v 0.502890622 -0.345429331 -0.0750869535
v 0.0952617578 -0.533507416 -0.0200158513
v 0.505947411 -0.38384705 -0.0577733033
v 0.513748335 -0.352472172 -0.0702939091
v 0.0971936482 -0.534192137 -0.0200158513
v 0.532871604 -0.419745974 -0.0450326087
v 0.540354622 -0.396245384 -0.0556213241
v 0.29473555 -0.536246299 -0.0200158513
v 0.571020325 -0.467211786 -0.035935606
v 0.577891986 -0.450631765 -0.0455461491
v 0.308307691 -0.529790361 -0.0200158513
v 0.577720805 -0.468776862 -0.035544337
v 0.58461692 -0.452172387 -0.0449837
v 0.405366841 -0.397590371 -0.0200158513
v 0.725229193 -0.467260695 -0.0343705303
v 0.725229193 -0.451903389 -0.0431251726
v 0.410648971 -0.394778125 -0.0200158513
v 0.755797078 -0.463837092 -0.032365277
v 0.750637219 -0.451927844 -0.0398972039
v 0.489856476 -0.392161514 -0.0200158513
v 0.787465407 -0.430114601 -0.0307512926
v 0.778588493 -0.4227294 -0.0376963162
v 0.501985813 -0.397492554 -0.0200158513
v 0.797271585 -0.379176277 -0.0304333866
v 0.786316055 -0.376999843 -0.0368159611
v 0.530059359 -0.42977224 -0.0200158513
v 0.782916906 -0.329680757 -0.031338196
v 0.771398927 -0.33327554 -0.0351530681
v 0.56837926 -0.473349818 -0.0200158513
v 0.575104194 -0.474890439 -0.0200158513
v 0.725229193 -0.47290964 -0.0200158513
v 0.757704514 -0.468214413 -0.0200158513
v 0.790595559 -0.432902392 -0.0200158513
v 0.801306546 -0.379983269 -0.0200158513
v 0.788076765 -0.328140135 -0.0200158513
v 0.773086274 -0.33293318 -0.0200158513
v 0.771398927 -0.33327554 -0.0351530681
v 0.782916906 -0.329680757 -0.00871796089
v 0.797271585 -0.379176277 -0.00959831599
v 0.787465407 -0.430114601 -0.00930486429
v 0.755797078 -0.463837092 -0.00766642564
v 0.771398927 -0.33327554 -0.0048786345
v 0.786316055 -0.376999843 -0.00324019584
v 0.725229193 -0.467260695 -0.00566117236
v 0.778588493 -0.4227294 -0.00235984075
v 0.761861747 -0.336674689 -0.0101363108
v 0.772988457 -0.374334324 -0.00649261884
v 0.750637219 -0.451927844 -0.000134498695
v 0.577720805 -0.468776862 -0.00448736556
v 0.758707141 -0.337995222 -0.0200158513
v 0.76721724 -0.413999212 -0.00558780944
v 0.725229193 -0.451903389 0.00306901569
v 0.571020325 -0.467211786 -0.00409609663
v 0.761861747 -0.336674689 -0.0299198461
v 0.766581428 -0.3730627 -0.0200158513
v 0.772988457 -0.374334324 -0.0335635381
v 0.786316055 -0.376999843 -0.0368159611
v 0.744352462 -0.437426439 -0.00397382509
v 0.761617203 -0.409964251 -0.0200158513
v 0.76721724 -0.413999212 -0.0344683475
v 0.778588493 -0.4227294 -0.0376963162
v 0.741320128 -0.430432507 -0.0200158513
v 0.744352462 -0.437426439 -0.0360578775
v 0.750637219 -0.451927844 -0.0398972039
v 0.725229193 -0.433195844 -0.00140612272
v 0.725229193 -0.433195844 -0.0386500342
v 0.725229193 -0.451903389 -0.0431251726
v 0.725229193 -0.424221112 -0.0200158513
v 0.58461692 -0.452172387 0.00495199742
v 0.591757578 -0.431948674 -0.040141747
v 0.58461692 -0.452172387 -0.0449837
v 0.591757578 -0.431948674 0.000110044387
v 0.594741004 -0.422240313 -0.0200158513
v 0.577891986 -0.450631765 0.00551444651
v 0.584959281 -0.430628141 -0.0404841073
v 0.577891986 -0.450631765 -0.0455461491
v 0.587918252 -0.421262141 -0.0200158513
v 0.584959281 -0.430628141 0.000452404703
v 0.532871604 -0.419745974 0.00500090604
v 0.547642006 -0.373502877 -0.0451793345
v 0.540354622 -0.396245384 -0.0556213241
v 0.540354622 -0.396245384 0.0155896215
v 0.505947411 -0.38384705 0.0177416006
v 0.547642006 -0.373502877 0.00514763189
v 0.550429797 -0.364650418 -0.0200158513
v 0.520228727 -0.325181164 -0.0531269847
v 0.513748335 -0.352472172 -0.0702939091
v 0.494184888 -0.377513384 0.022290102
v 0.513748335 -0.352472172 0.0302377522
v 0.520228727 -0.325181164 0.0130952821
v 0.522502977 -0.315277169 -0.0200158513
v 0.509371014 -0.317918234 -0.0557925043
v 0.502890622 -0.345429331 -0.0750869535
v 0.408717081 -0.377342204 0.0503636479
v 0.502890622 -0.345429331 0.0350552509
v 0.511474084 -0.307867514 -0.0200158513
v 0.509371014 -0.317918234 0.0157608017
v 0.39974235 -0.306326892 -0.0803446298
v 0.404095217 -0.339022302 -0.112575408
v 0.403508313 -0.379860997 0.0521488124
v 0.404095217 -0.339022302 0.0725437054
v 0.39974235 -0.306326892 0.0402884728
v 0.397786005 -0.294442099 -0.0200158513
v 0.393971133 -0.307745242 -0.0822276115
v 0.398715269 -0.341027556 -0.115094202
v 0.306449164 -0.504724695 0.0877787395
v 0.398715269 -0.341027556 0.0750624992
v 0.391916971 -0.295615905 -0.0200158513
v 0.393971133 -0.307745242 0.0421959089
v 0.297767884 -0.374285415 -0.126685544
v 0.301949571 -0.434051744 -0.171803743
v 0.292925931 -0.510104643 0.0920337891
v 0.301949571 -0.434051744 0.13177204
v 0.297767884 -0.374285415 0.0866538413
v 0.296300626 -0.349611018 -0.0200158513
v 0.28326648 -0.375605948 -0.132896938
v 0.288328521 -0.437450893 -0.178822129
v 0.133924019 -0.489807567 0.136296087
v 0.288328521 -0.437450893 0.138790426
v 0.281310135 -0.349953378 -0.0200158513
v 0.28326648 -0.375605948 0.0928407813
v 0.173955722 -0.327871138 -0.176303335
v 0.154465638 -0.396489927 -0.240667075
v 0.132041037 -0.489294027 0.136980808
v 0.154465638 -0.396489927 0.200635372
v 0.173955722 -0.327871138 0.136271633
v 0.181340923 -0.299626412 -0.0200158513
v 0.172317283 -0.326721785 -0.176792422
v 0.152656019 -0.395634026 -0.241400704
v -0.00822887473 -0.289013242 -0.297278798
v 0.05576805 -0.206577769 -0.196722683
v 0.179751393 -0.298354788 -0.0200158513
v 0.152656019 -0.395634026 0.201369001
v 0.172317283 -0.326721785 0.136760719
v 0.0704895435 -0.166790609 -0.0200158513
v -0.00884023243 -0.0824966089 -0.190364563
v -0.0078376058 -0.289942506 0.257320459
v 0.0557191414 -0.206431043 0.15669098
v 0.027449961 -0.0524911727 -0.0200158513
v -0.00884023243 -0.082423246 0.15033286
v -0.0669681232 -0.112257502 0.257589456
v 0.038478854 0.0344928018 -0.0200158513
v 0.00245765798 0.0594606505 -0.208265116
v 0.0964600189 0.0880232826 -0.0671882119
v -0.0757227655 0.175056166 -0.251329153
v 0.00245765798 0.0595095591 0.168233414
v -0.0826188804 0.068386473 0.298036882
v -0.202175993 -0.188139221 0.330536658
v -0.0746467759 0.177452688 -0.248639179
v -0.081078259 0.183174996 -0.248957085
v 0.0667480344 0.20107555 -0.267297816
v 0.0647183268 0.194228343 -0.26504802
v 0.0462797784 0.0895394497 0.150650766
v -0.222130709 0.0852844 0.373282788
v -0.350907096 0.108711627 0.340660741
v -0.358267843 0.217875659 0.40610047
v -0.323102548 -0.187772406 0.30341683
v -0.0832791468 0.127957168 0.315374986
v -0.434809828 -0.187870223 0.238074918
v 0.127834896 0.125193831 -0.084648588
v -0.0660633137 0.192271999 0.323347091
v -0.505360507 -0.188285946 0.160187946
v -0.557448184 -0.188775033 -0.0200158513
v -0.594985547 0.15952768 -0.0200158513
v -0.539963353 0.149110145 0.180656202
v 0.127247993 0.131845403 -0.0839883217
v 0.0277434127 0.276712725 -0.195597785
v 0.0539095225 0.192467633 -0.0367181438
v 0.044739157 0.119495977 0.143607925
v -0.0438098932 0.170776662 0.146151173
v 0.0479915799 0.113431309 0.144537189
v -0.0692179195 0.199388202 0.322075467
v -0.137689983 0.232034704 0.292485754
v -0.218658197 0.290896224 0.412091776
v -0.263360673 0.321439655 0.371888893
v -0.217215393 0.283657749 0.412972131
v -0.359221561 0.224967409 0.40416858
v -0.362400621 0.251989419 0.327113054
v -0.420455149 0.262553681 0.385632214
v -0.41898789 0.279329336 0.313271916
v -0.428671797 0.260572882 0.396147567
v -0.406124924 0.358096663 0.40945071
v -0.395976386 0.368538653 0.323616088
v -0.527222659 0.442048303 0.406393922
v -0.502548262 0.455229175 0.328433587
v -0.412018413 0.355700141 0.413314491
v -0.459386408 0.246951832 0.388297734
v -0.610734122 0.402236689 0.354526334
v -0.56855044 0.418718893 0.280796595
v -0.52507068 0.436423812 0.411431509
v -0.622594461 0.335549791 0.333397812
v -0.456305165 0.119960609 0.274389566
v -0.623890539 0.342494814 0.329485122
v -0.570775782 0.364943869 0.269400887
v -0.609340226 0.397761551 0.359539467
v -0.711999412 0.362156078 0.226459122
v -0.6401282 0.387784193 0.191685095
v -0.71346667 0.355675686 0.227975289
v -0.772572734 0.387148381 0.0127040131
v -0.773135183 0.390938799 0.0212874753
v -0.695321574 0.410428883 0.0630065252
v 0.0667480344 0.20107555 -0.267297816
v 0.0277434127 0.276712725 -0.195597785
v -0.109176259 0.227119388 -0.198727936
v -0.186794234 0.330732292 -0.257320459
v -0.140991314 0.316915608 -0.326134882
v -0.214329785 0.428280528 -0.296422898
v -0.186940959 0.420161697 -0.373307243
v -0.322564553 0.438673609 -0.319409947
v -0.189117393 0.414683932 -0.376975389
v -0.320290302 0.431899765 -0.397639279
v -0.321782015 0.436472721 -0.392772872
v -0.353230256 0.407543274 -0.321513018
v -0.358659112 0.403483859 -0.402407869
v -0.366337765 0.469290403 -0.321292929
v -0.378931734 0.45877505 -0.40025589
v -0.450387222 0.484109713 -0.288059524
v -0.383186783 0.45383528 -0.403361588
v -0.502841713 0.487655588 -0.364797143
v -0.489978747 0.48687305 -0.355259963
v -0.459508679 0.534827949 -0.261208694
v -0.515264502 0.54698174 -0.339609206
v -0.50367316 0.547642006 -0.329338396
v -0.605867714 0.572658764 -0.184691163
v -0.642426905 0.572658764 -0.267860265
v -0.644945699 0.57842998 -0.26169778
v -0.606821432 0.475159437 -0.174395899
v -0.634846069 0.474743713 -0.25710037
v -0.617092242 0.489832021 -0.150063863
v -0.679377365 0.488022403 -0.209903555
v -0.665854132 0.488144674 -0.203472072
v -0.648833934 0.555394022 -0.131796494
v -0.73168513 0.535952847 -0.166790609
v -0.703195861 0.5501608 -0.204352427
v -0.698060456 0.556029834 -0.20317862
v -0.73185631 0.540990434 -0.161875293
v -0.719506885 0.498684481 0.0651585043
v -0.801306546 0.479414486 0.0281346816
v -0.79957029 0.483473901 0.0347862535
v -0.695321574 0.410428883 0.0630065252
v -0.773135183 0.390938799 0.0212874753
v -0.570775782 0.364943869 0.269400887
v -0.6401282 0.387784193 0.191685095
v -0.633990169 0.385289854 0.189826568
v -0.566202826 0.362131624 0.264779023
v -0.56855044 0.418718893 0.280796595
v -0.688009736 0.407445457 0.0633733398
v -0.695321574 0.410428883 0.0630065252
v -0.56429539 0.415197473 0.275905733
v -0.502548262 0.455229175 0.328433587
v -0.50208363 0.0881700084 0.170189758
v -0.712586315 0.49623905 0.0624685304
v -0.719506885 0.498684481 0.0651585043
v -0.49873339 0.451365395 0.322564553
v -0.395976386 0.368538653 0.323616088
v -0.54715292 0.0925228753 -0.0644004208
v -0.643820801 0.551383515 -0.127957168
v -0.648833934 0.555394022 -0.131796494
v -0.611663385 0.4854547 -0.146738077
v -0.617092242 0.489832021 -0.150063863
v -0.411309238 0.0881700084 0.216237221
v -0.394044496 0.362425075 0.317575874
v -0.41898789 0.279329336 0.313271916
v -0.349537655 0.0886835489 -0.000476859011
v -0.507439123 0.0881700084 -0.118297716
v -0.352325446 0.0881700084 0.217288756
v -0.466258068 0.0881700084 -0.144635006
v -0.603104377 0.46973058 -0.169700672
v -0.606821432 0.475159437 -0.174395899
v -0.414757295 0.276541545 0.307989785
v -0.362400621 0.251989419 0.327113054
v -0.601465939 0.567156544 -0.180411659
v -0.605867714 0.572658764 -0.184691163
v -0.360101916 0.25000862 0.321048386
v -0.263360673 0.321439655 0.371888893
v -0.456818705 0.530083813 -0.256953644
v -0.459508679 0.534827949 -0.261208694
v -0.267958083 0.317526966 0.36421024
v -0.137689983 0.232034704 0.292485754
v -0.44657235 0.479732392 -0.283975655
v -0.450387222 0.484109713 -0.288059524
v -0.216824124 0.0881700084 0.122381586
v -0.141773852 0.231423346 0.28695908
v -0.0438098932 0.170776662 0.146151173
v -0.0514396374 0.170287576 0.146322353
v 0.0539095225 0.192467633 -0.0367181438
v -0.376608574 0.0881700084 -0.198972479
v -0.364674872 0.465084262 -0.315423895
v -0.366337765 0.469290403 -0.321292929
v -0.351396182 0.402799138 -0.315717347
v -0.353230256 0.407543274 -0.321513018
v -0.12825062 0.0881700084 -0.0987342696
v 0.0471112249 0.192712176 -0.0380142222
v 0.0277434127 0.276712725 -0.195597785
v 0.0237573605 0.274267294 -0.187307774
v -0.109176259 0.227119388 -0.198727936
v -0.347654673 0.0881700084 -0.209879101
v -0.321219566 0.434516376 -0.313981091
v -0.322564553 0.438673609 -0.319409947
v -0.223304516 0.0881700084 -0.155370447
v -0.112575408 0.223549059 -0.192956719
v -0.186794234 0.330732292 -0.257320459
v -0.273289122 0.0881700084 -0.188065858
v -0.2155525 0.422851671 -0.289526783
v -0.214329785 0.428280528 -0.296422898
v -0.183346176 0.310606396 -0.244433038
vt 0.767220136 0.257735509
vt 0.762654861 0.255909399
vt 0.764480971 0.258648564
vt 0.751698203 0.265039948
vt 0.767220136 0.257735509
vt 0.749872093 0.262300783
vt 0.760828751 0.257735509
vt 0.762654861 0.255909399
vt 0.741654599 0.266866057
vt 0.745306818 0.269605222
vt 0.751698203 0.267779112
vt 0.748045983 0.273257442
vt 0.753524312 0.271431332
vt 0.745306818 0.276909661
vt 0.733437105 0.275083551
vt 0.73252405 0.275996606
vt 0.744393763 0.278735771
vt 0.745306818 0.303388253
vt 0.748959038 0.258648564
vt 0.740741544 0.262300783
vt 0.722480446 0.274170497
vt 0.721567391 0.275083551
vt 0.73069794 0.297909924
vt 0.759915697 0.254996344
vt 0.72887183 0.301562143
vt 0.743480709 0.307953527
vt 0.733437105 0.32712768
vt 0.713349897 0.314344912
vt 0.726132666 0.337171284
vt 0.712436842 0.294257704
vt 0.715176007 0.290605485
vt 0.713349897 0.270518277
vt 0.68961047 0.326214625
vt 0.731610995 0.362736821
vt 0.699654074 0.303388253
vt 0.703306294 0.283301045
vt 0.714262952 0.269605222
vt 0.706958513 0.279648826
vt 0.739828489 0.257735509
vt 0.712436842 0.255909399
vt 0.749872093 0.254996344
vt 0.713349897 0.255909399
vt 0.759915697 0.253170234
vt 0.740741544 0.253170234
vt 0.750785148 0.252257179
vt 0.760828751 0.253170234
vt 0.703306294 0.254996344
vt 0.713349897 0.241300521
vt 0.714262952 0.242213576
vt 0.742567654 0.249518015
vt 0.752611257 0.249518015
vt 0.762654861 0.253170234
vt 0.765394026 0.254996344
vt 0.767220136 0.257735509
vt 0.759915697 0.244039685
vt 0.761741806 0.241300521
vt 0.756263477 0.245865795
vt 0.745306818 0.24677885
vt 0.749872093 0.24312663
vt 0.722480446 0.239474411
vt 0.73435016 0.239474411
vt 0.746219873 0.238561356
vt 0.745306818 0.237648301
vt 0.721567391 0.238561356
vt 0.733437105 0.238561356
vt 0.706958513 0.231256917
vt 0.731610995 0.216648039
vt 0.746219873 0.213908874
vt 0.745306818 0.208430545
vt 0.715176007 0.222126368
vt 0.72887183 0.212995819
vt 0.712436842 0.217561094
vt 0.703306294 0.227604697
vt 0.714262952 0.199299996
vt 0.735263215 0.189256392
vt 0.699654074 0.20751749
vt 0.690523525 0.184691118
vt 0.727045721 0.180125843
vt 0.699654074 0.254996344
vt 0.6950888 0.222126368
vt 0.678653812 0.199299996
vt 0.694175745 0.254996344
vt 0.6950888 0.28786632
vt 0.684132141 0.216648039
vt 0.686871306 0.254083289
vt 0.680479921 0.307953527
vt 0.685045196 0.291518539
vt 0.660392714 0.252257179
vt 0.657653549 0.288779375
vt 0.654914385 0.307040473
vt 0.668610208 0.32530157
vt 0.655827439 0.215734984
vt 0.6950888 0.363649876
vt 0.696001854 0.433042047
vt 0.738915434 0.432128992
vt 0.762654861 0.486912285
vt 0.635740232 0.252257179
vt 0.633914122 0.292431594
vt 0.630261903 0.211169709
vt 0.632088012 0.311605747
vt 0.620218299 0.319823241
vt 0.61291386 0.298822979
vt 0.639392451 0.324388515
vt 0.608348585 0.251344124
vt 0.674088537 0.362736821
vt 0.65034911 0.361823766
vt 0.671349373 0.425737608
vt 0.586435268 0.297909924
vt 0.720654336 0.49147756
vt 0.697827964 0.501521163
vt 0.646696891 0.421172333
vt 0.624783573 0.359084601
vt 0.622044409 0.412954839
vt 0.590087488 0.329866845
vt 0.667697153 0.499695054
vt 0.636653287 0.478694791
vt 0.591913597 0.404737345
vt 0.594652762 0.454042309
vt 0.591000542 0.36821515
vt 0.563608896 0.342649613
vt 0.565435006 0.370954315
vt 0.562695841 0.399259016
vt 0.574565554 0.426650663
vt 0.559956676 0.307953527
vt 0.574565554 0.428476773
vt 0.562695841 0.28604021
vt 0.562695841 0.28604021
vt 0.559956676 0.307953527
vt 0.584609158 0.253170234
vt 0.533478085 0.278735771
vt 0.531651975 0.295170759
vt 0.608348585 0.20569138
vt 0.53073892 0.278735771
vt 0.52891281 0.293344649
vt 0.627522738 0.191995557
vt 0.502434218 0.280561881
vt 0.502434218 0.28969243
vt 0.65217522 0.198386941
vt 0.664044933 0.178299733
vt 0.634827177 0.177386679
vt 0.61473997 0.183778063
vt 0.501521163 0.280561881
vt 0.501521163 0.288779375
vt 0.580043884 0.20751749
vt 0.484173121 0.277822716
vt 0.484173121 0.285127155
vt 0.565435006 0.254083289
vt 0.481433956 0.277822716
vt 0.482347011 0.2842141
vt 0.564521951 0.254996344
vt 0.473216462 0.276909661
vt 0.475955627 0.280561881
vt 0.531651975 0.258648564
vt 0.463172858 0.279648826
vt 0.464085913 0.282387991
vt 0.52891281 0.258648564
vt 0.462259803 0.279648826
vt 0.463172858 0.283301045
vt 0.499695054 0.264126893
vt 0.439433431 0.294257704
vt 0.440346486 0.297909924
vt 0.497868944 0.264126893
vt 0.434868157 0.296996869
vt 0.435781212 0.299736033
vt 0.482347011 0.268692167
vt 0.427563718 0.299736033
vt 0.428476773 0.302475198
vt 0.478694791 0.269605222
vt 0.420259279 0.304301308
vt 0.420259279 0.306127418
vt 0.470477297 0.272344387
vt 0.40930262 0.306127418
vt 0.410215675 0.308866582
vt 0.461346748 0.276909661
vt 0.460433694 0.276909661
vt 0.437607321 0.291518539
vt 0.433042047 0.294257704
vt 0.426650663 0.297909924
vt 0.419346224 0.302475198
vt 0.41112873 0.304301308
vt 0.40930262 0.302475198
vt 0.406563455 0.301562143
vt 0.41112873 0.302475198
vt 0.418433169 0.299736033
vt 0.425737608 0.296083814
vt 0.432128992 0.292431594
vt 0.41112873 0.300649088
vt 0.417520114 0.297909924
vt 0.435781212 0.28969243
vt 0.423911498 0.293344649
vt 0.410215675 0.299736033
vt 0.415694004 0.296083814
vt 0.430302882 0.28969243
vt 0.458607584 0.274170497
vt 0.40930262 0.299736033
vt 0.422085388 0.291518539
vt 0.433955102 0.286953265
vt 0.459520639 0.274170497
vt 0.408389565 0.299736033
vt 0.413867894 0.294257704
vt 0.41112873 0.292431594
vt 0.40930262 0.290605485
vt 0.428476773 0.286953265
vt 0.420259279 0.288779375
vt 0.417520114 0.28604021
vt 0.415694004 0.2842141
vt 0.425737608 0.2842141
vt 0.422998443 0.280561881
vt 0.420259279 0.278735771
vt 0.431215937 0.2842141
vt 0.426650663 0.278735771
vt 0.423911498 0.275996606
vt 0.428476773 0.281474936
vt 0.456781474 0.271431332
vt 0.447650925 0.261387728
vt 0.44491176 0.257735509
vt 0.454042309 0.267779112
vt 0.45039009 0.265039948
vt 0.457694529 0.270518277
vt 0.44856398 0.260474673
vt 0.445824815 0.257735509
vt 0.4522162 0.263213838
vt 0.455868419 0.267779112
vt 0.468651188 0.266866057
vt 0.457694529 0.251344124
vt 0.453129254 0.25043107
vt 0.467738133 0.262300783
vt 0.476868682 0.260474673
vt 0.465912023 0.257735509
vt 0.462259803 0.254083289
vt 0.462259803 0.242213576
vt 0.456781474 0.241300521
vt 0.479607846 0.258648564
vt 0.475955627 0.254083289
vt 0.472303407 0.249518015
vt 0.467738133 0.245865795
vt 0.463172858 0.240387466
vt 0.457694529 0.238561356
vt 0.496955889 0.24677885
vt 0.477781736 0.252257179
vt 0.468651188 0.244039685
vt 0.474129517 0.247691905
vt 0.470477297 0.221213313
vt 0.463172858 0.218474148
vt 0.497868944 0.24677885
vt 0.494216724 0.237648301
vt 0.488738395 0.232169972
vt 0.480520901 0.225778588
vt 0.471390352 0.219387203
vt 0.463172858 0.217561094
vt 0.526173645 0.239474411
vt 0.496042834 0.236735246
vt 0.480520901 0.224865533
vt 0.48965145 0.231256917
vt 0.469564242 0.197473886
vt 0.454955364 0.195647776
vt 0.52891281 0.238561356
vt 0.521608371 0.225778588
vt 0.510651712 0.216648039
vt 0.49147756 0.204778325
vt 0.469564242 0.194734721
vt 0.454955364 0.192908612
vt 0.556304457 0.223952478
vt 0.524347536 0.223952478
vt 0.49330367 0.202039161
vt 0.514303932 0.214821929
vt 0.472303407 0.170995294
vt 0.453129254 0.167343075
vt 0.557217512 0.223952478
vt 0.549000018 0.20386527
vt 0.533478085 0.191995557
vt 0.504260328 0.180125843
vt 0.473216462 0.170082239
vt 0.453129254 0.167343075
vt 0.455868419 0.130820879
vt 0.482347011 0.140864483
vt 0.504260328 0.179212788
vt 0.549913073 0.20386527
vt 0.534391139 0.191995557
vt 0.517956151 0.144516703
vt 0.48782534 0.119864221
vt 0.580956939 0.173734459
vt 0.552652237 0.158212526
vt 0.522521426 0.118038111
vt 0.559956676 0.128081715
vt 0.587348323 0.134473099
vt 0.523434481 0.0988639583
vt 0.483260066 0.0970378485
vt 0.517956151 0.0815159154
vt 0.464998968 0.0732984214
vt 0.563608896 0.0979509034
vt 0.596478872 0.0970378485
vt 0.622957463 0.145429758
vt 0.464998968 0.0723853665
vt 0.464085913 0.0723853665
vt 0.484173121 0.0504720492
vt 0.484173121 0.052298159
vt 0.558130567 0.0888203545
vt 0.629348848 0.0897334094
vt 0.657653549 0.085168135
vt 0.654914385 0.0586895432
vt 0.65034911 0.145429758
vt 0.599218036 0.085168135
vt 0.676827702 0.147255867
vt 0.517043097 0.0714723116
vt 0.597391927 0.0714723116
vt 0.697827964 0.149995032
vt 0.73435016 0.158212526
vt 0.754437367 0.0988639583
vt 0.712436842 0.0860811898
vt 0.517043097 0.0705592568
vt 0.499695054 0.0340370613
vt 0.529825865 0.0559503786
vt 0.558130567 0.0815159154
vt 0.56634806 0.0632548177
vt 0.557217512 0.0833420252
vt 0.597391927 0.0696462019
vt 0.599218036 0.0532112139
vt 0.626609683 0.0504720492
vt 0.630261903 0.0395153906
vt 0.626609683 0.0513851041
vt 0.654914385 0.0568634335
vt 0.65217522 0.0395153906
vt 0.666784098 0.0449937199
vt 0.657653549 0.0312978966
vt 0.669523263 0.0468198297
vt 0.674088537 0.0267326222
vt 0.666784098 0.0139498538
vt 0.694175745 0.020341238
vt 0.6950888 0.00390625
vt 0.675001592 0.0276456771
vt 0.675914647 0.052298159
vt 0.707871568 0.0239934575
vt 0.714262952 0.0102976342
vt 0.694175745 0.0212542929
vt 0.712436842 0.0367762259
vt 0.684132141 0.0860811898
vt 0.714262952 0.0349501162
vt 0.722480446 0.0185151282
vt 0.707871568 0.0249065124
vt 0.738915434 0.0386023357
vt 0.741654599 0.0239934575
vt 0.738002379 0.0404284455
vt 0.780002904 0.0468198297
vt 0.779089849 0.0459067748
vt 0.769046245 0.0294717868
vt 0.559956676 0.401998181
vt 0.545347798 0.419346224
vt 0.565435006 0.440346486
vt 0.580043884 0.464998968
vt 0.593739707 0.454955364
vt 0.593739707 0.48599923
vt 0.603783311 0.475042572
vt 0.617479134 0.495129779
vt 0.604696366 0.474129517
vt 0.625696628 0.482347011
vt 0.625696628 0.484173121
vt 0.625696628 0.496955889
vt 0.636653287 0.480520901
vt 0.634827177 0.506086438
vt 0.641218561 0.49147756
vt 0.65034911 0.515216987
vt 0.642131616 0.490564505
vt 0.663131879 0.501521163
vt 0.660392714 0.503347273
vt 0.657653549 0.525260591
vt 0.667697153 0.509738657
vt 0.665871043 0.512477822
vt 0.69143658 0.533478085
vt 0.688697415 0.517956151
vt 0.688697415 0.518869206
vt 0.706045458 0.522521426
vt 0.698741019 0.503347273
vt 0.710610733 0.526173645
vt 0.712436842 0.507912548
vt 0.710610733 0.510651712
vt 0.726132666 0.529825865
vt 0.727045721 0.512477822
vt 0.721567391 0.515216987
vt 0.721567391 0.516130042
vt 0.727958776 0.513390877
vt 0.770872355 0.517956151
vt 0.759915697 0.503347273
vt 0.760828751 0.504260328
vt 0.780002904 0.499695054
vt 0.764480971 0.488738395
vt 0.874047557 0.449477035
vt 0.89504782 0.433042047
vt 0.89322171 0.433042047
vt 0.873134503 0.449477035
vt 0.876786722 0.459520639
vt 0.916961137 0.4056504
vt 0.918787247 0.406563455
vt 0.875873667 0.458607584
vt 0.864003954 0.474129517
vt 0.838438417 0.40930262
vt 0.93613529 0.398345961
vt 0.9379614 0.399259016
vt 0.863090899 0.473216462
vt 0.834786197 0.466825078
vt 0.854873405 0.375519589
vt 0.937048345 0.354519327
vt 0.9379614 0.353606272
vt 0.923352521 0.349954052
vt 0.924265576 0.349040997
vt 0.820177319 0.414780949
vt 0.833873142 0.464998968
vt 0.818351209 0.455868419
vt 0.815612045 0.374606534
vt 0.851221185 0.365475985
vt 0.808307606 0.414780949
vt 0.846655911 0.358171546
vt 0.919700302 0.344475723
vt 0.921526412 0.344475723
vt 0.819264264 0.454042309
vt 0.804655386 0.45039009
vt 0.933396125 0.334432119
vt 0.935222235 0.334432119
vt 0.804655386 0.44856398
vt 0.779089849 0.458607584
vt 0.910569753 0.305214363
vt 0.911482808 0.304301308
vt 0.780002904 0.456781474
vt 0.757176532 0.424824553
vt 0.899613094 0.302475198
vt 0.900526149 0.301562143
vt 0.786394288 0.388302357
vt 0.758089587 0.424824553
vt 0.748959038 0.379171809
vt 0.749872093 0.380084864
vt 0.749872093 0.32712768
vt 0.835699252 0.344475723
vt 0.883178106 0.290605485
vt 0.883178106 0.28969243
vt 0.872221448 0.295170759
vt 0.873134503 0.293344649
vt 0.788220398 0.338084339
vt 0.750785148 0.32712768
vt 0.772698465 0.290605485
vt 0.772698465 0.293344649
vt 0.799177057 0.304301308
vt 0.832047033 0.340823503
vt 0.868569228 0.286953265
vt 0.869482283 0.28604021
vt 0.808307606 0.337171284
vt 0.799177057 0.306127418
vt 0.829307868 0.28969243
vt 0.819264264 0.337171284
vt 0.845742856 0.278735771
vt 0.846655911 0.276909661
vt 0.825655648 0.293344649
g item_07_03item_07_03_mobile_0
f 3/3/3 2/2/2 1/1/1
f 3/3/3 5/5/5 4/4/4
f 6/6/6 3/3/3 4/4/4
f 7/7/7 3/3/3 6/6/6
f 7/7/7 8/8/8 3/3/3
f 6/6/6 4/4/4 9/9/9
f 9/9/9 4/4/4 10/10/10
f 4/4/4 11/11/11 10/10/10
f 10/10/10 11/11/11 12/12/12
f 11/11/11 13/13/13 12/12/12
f 10/10/10 12/12/12 14/14/14
f 15/15/15 10/10/10 14/14/14
f 9/9/9 10/10/10 15/15/15
f 15/15/15 14/14/14 16/16/16
f 14/14/14 17/17/17 16/16/16
f 16/16/16 17/17/17 18/18/18
f 19/19/19 7/7/7 6/6/6
f 20/20/20 6/6/6 9/9/9
f 19/19/19 6/6/6 20/20/20
f 21/21/21 9/9/9 15/15/15
f 20/20/20 9/9/9 21/21/21
f 15/15/15 16/16/16 22/22/22
f 21/21/21 15/15/15 22/22/22
f 23/23/23 16/16/16 18/18/18
f 22/22/22 16/16/16 23/23/23
f 24/24/24 7/7/7 19/19/19
f 24/24/24 8/8/8 7/7/7
f 23/23/23 18/18/18 25/25/25
f 18/18/18 26/26/26 25/25/25
f 25/25/25 26/26/26 27/27/27
f 28/28/28 25/25/25 27/27/27
f 28/28/28 27/27/27 29/29/29
f 23/23/23 25/25/25 30/30/30
f 30/30/30 25/25/25 28/28/28
f 31/31/31 22/22/22 23/23/23
f 31/31/31 23/23/23 30/30/30
f 21/21/21 22/22/22 32/32/32
f 32/32/32 22/22/22 31/31/31
f 33/33/33 28/28/28 29/29/29
f 29/29/29 34/34/34 33/33/33
f 35/35/35 30/30/30 28/28/28
f 35/35/35 28/28/28 33/33/33
f 31/31/31 30/30/30 36/36/36
f 36/36/36 30/30/30 35/35/35
f 37/37/37 21/21/21 32/32/32
f 37/37/37 20/20/20 21/21/21
f 38/38/38 32/32/32 31/31/31
f 38/38/38 31/31/31 36/36/36
f 39/39/39 20/20/20 37/37/37
f 39/39/39 19/19/19 20/20/20
f 32/32/32 40/40/40 37/37/37
f 40/40/40 32/32/32 38/38/38
f 41/41/41 19/19/19 39/39/39
f 41/41/41 24/24/24 19/19/19
f 42/42/42 39/39/39 37/37/37
f 40/40/40 42/42/42 37/37/37
f 43/43/43 24/24/24 41/41/41
f 43/43/43 8/8/8 24/24/24
f 44/44/44 41/41/41 39/39/39
f 44/44/44 39/39/39 42/42/42
f 45/45/45 43/43/43 41/41/41
f 45/45/45 41/41/41 44/44/44
f 46/46/46 8/8/8 43/43/43
f 46/46/46 43/43/43 45/45/45
f 47/47/47 40/40/40 38/38/38
f 42/42/42 40/40/40 48/48/48
f 48/48/48 40/40/40 47/47/47
f 49/49/49 44/44/44 42/42/42
f 49/49/49 42/42/42 48/48/48
f 50/50/50 45/45/45 44/44/44
f 50/50/50 44/44/44 49/49/49
f 51/51/51 46/46/46 45/45/45
f 51/51/51 45/45/45 50/50/50
f 52/52/52 8/8/8 46/46/46
f 52/52/52 46/46/46 51/51/51
f 53/53/53 8/8/8 52/52/52
f 54/54/54 8/8/8 53/53/53
f 54/54/54 53/53/53 55/55/55
f 56/56/56 54/54/54 55/55/55
f 55/55/55 53/53/53 57/57/57
f 53/53/53 52/52/52 57/57/57
f 57/57/57 52/52/52 51/51/51
f 57/57/57 51/51/51 58/58/58
f 58/58/58 51/51/51 50/50/50
f 59/59/59 57/57/57 58/58/58
f 60/60/60 50/50/50 49/49/49
f 58/58/58 50/50/50 60/60/60
f 59/59/59 58/58/58 61/61/61
f 61/61/61 58/58/58 60/60/60
f 62/62/62 59/59/59 61/61/61
f 62/62/62 61/61/61 63/63/63
f 60/60/60 49/49/49 64/64/64
f 49/49/49 48/48/48 64/64/64
f 61/61/61 60/60/60 65/65/65
f 61/61/61 65/65/65 63/63/63
f 60/60/60 64/64/64 65/65/65
f 64/64/64 48/48/48 66/66/66
f 66/66/66 48/48/48 47/47/47
f 63/63/63 65/65/65 67/67/67
f 68/68/68 63/63/63 67/67/67
f 68/68/68 67/67/67 69/69/69
f 65/65/65 64/64/64 70/70/70
f 67/67/67 65/65/65 70/70/70
f 70/70/70 64/64/64 66/66/66
f 67/67/67 71/71/71 69/69/69
f 67/67/67 70/70/70 71/71/71
f 70/70/70 66/66/66 72/72/72
f 70/70/70 72/72/72 71/71/71
f 66/66/66 47/47/47 73/73/73
f 66/66/66 73/73/73 72/72/72
f 69/69/69 71/71/71 74/74/74
f 75/75/75 69/69/69 74/74/74
f 71/71/71 72/72/72 76/76/76
f 74/74/74 71/71/71 76/76/76
f 75/75/75 74/74/74 77/77/77
f 78/78/78 75/75/75 77/77/77
f 47/47/47 79/79/79 73/73/73
f 79/79/79 47/47/47 38/38/38
f 36/36/36 79/79/79 38/38/38
f 72/72/72 73/73/73 80/80/80
f 76/76/76 72/72/72 80/80/80
f 74/74/74 76/76/76 81/81/81
f 77/77/77 74/74/74 81/81/81
f 73/73/73 79/79/79 82/82/82
f 80/80/80 73/73/73 82/82/82
f 79/79/79 36/36/36 83/83/83
f 82/82/82 79/79/79 83/83/83
f 83/83/83 36/36/36 35/35/35
f 76/76/76 80/80/80 84/84/84
f 81/81/81 76/76/76 84/84/84
f 80/80/80 82/82/82 85/85/85
f 84/84/84 80/80/80 85/85/85
f 83/83/83 35/35/35 86/86/86
f 86/86/86 35/35/35 33/33/33
f 82/82/82 83/83/83 87/87/87
f 85/85/85 82/82/82 87/87/87
f 87/87/87 83/83/83 86/86/86
f 85/85/85 88/88/88 84/84/84
f 87/87/87 89/89/89 85/85/85
f 89/89/89 88/88/88 85/85/85
f 86/86/86 90/90/90 87/87/87
f 90/90/90 89/89/89 87/87/87
f 33/33/33 91/91/91 86/86/86
f 91/91/91 90/90/90 86/86/86
f 84/84/84 92/92/92 81/81/81
f 88/88/88 92/92/92 84/84/84
f 33/33/33 93/93/93 91/91/91
f 34/34/34 93/93/93 33/33/33
f 93/93/93 34/34/34 94/94/94
f 34/34/34 95/95/95 94/94/94
f 95/95/95 96/96/96 94/94/94
f 97/97/97 88/88/88 89/89/89
f 89/89/89 90/90/90 98/98/98
f 98/98/98 97/97/97 89/89/89
f 92/92/92 88/88/88 99/99/99
f 88/88/88 97/97/97 99/99/99
f 90/90/90 91/91/91 100/100/100
f 90/90/90 100/100/100 98/98/98
f 100/100/100 101/101/101 98/98/98
f 98/98/98 102/102/102 97/97/97
f 101/101/101 102/102/102 98/98/98
f 91/91/91 103/103/103 100/100/100
f 103/103/103 101/101/101 100/100/100
f 102/102/102 104/104/104 97/97/97
f 97/97/97 104/104/104 99/99/99
f 91/91/91 105/105/105 103/103/103
f 93/93/93 105/105/105 91/91/91
f 105/105/105 106/106/106 103/103/103
f 103/103/103 106/106/106 101/101/101
f 105/105/105 93/93/93 107/107/107
f 106/106/106 105/105/105 107/107/107
f 93/93/93 94/94/94 107/107/107
f 108/108/108 102/102/102 101/101/101
f 102/102/102 108/108/108 104/104/104
f 94/94/94 109/109/109 107/107/107
f 109/109/109 110/110/110 107/107/107
f 96/96/96 109/109/109 94/94/94
f 111/111/111 106/106/106 107/107/107
f 107/107/107 110/110/110 111/111/111
f 106/106/106 112/112/112 101/101/101
f 106/106/106 111/111/111 113/113/113
f 112/112/112 106/106/106 113/113/113
f 114/114/114 108/108/108 101/101/101
f 101/101/101 112/112/112 114/114/114
f 110/110/110 115/115/115 111/111/111
f 111/111/111 115/115/115 113/113/113
f 115/115/115 116/116/116 113/113/113
f 113/113/113 116/116/116 117/117/117
f 112/112/112 113/113/113 117/117/117
f 116/116/116 118/118/118 117/117/117
f 112/112/112 119/119/119 114/114/114
f 119/119/119 112/112/112 117/117/117
f 114/114/114 119/119/119 120/120/120
f 119/119/119 121/121/121 120/120/120
f 121/121/121 119/119/119 122/122/122
f 119/119/119 117/117/117 122/122/122
f 117/117/117 118/118/118 122/122/122
f 118/118/118 123/123/123 122/122/122
f 108/108/108 114/114/114 124/124/124
f 123/123/123 118/118/118 125/125/125
f 126/126/126 108/108/108 124/124/124
f 127/127/127 126/126/126 124/124/124
f 128/128/128 127/127/127 124/124/124
f 129/129/129 108/108/108 126/126/126
f 108/108/108 129/129/129 104/104/104
f 130/130/130 127/127/127 128/128/128
f 131/131/131 130/130/130 128/128/128
f 104/104/104 129/129/129 132/132/132
f 104/104/104 132/132/132 99/99/99
f 133/133/133 130/130/130 131/131/131
f 134/134/134 133/133/133 131/131/131
f 99/99/99 132/132/132 135/135/135
f 92/92/92 99/99/99 135/135/135
f 136/136/136 133/133/133 134/134/134
f 137/137/137 136/136/136 134/134/134
f 138/138/138 92/92/92 135/135/135
f 92/92/92 138/138/138 81/81/81
f 81/81/81 138/138/138 139/139/139
f 77/77/77 81/81/81 139/139/139
f 135/135/135 140/140/140 138/138/138
f 140/140/140 139/139/139 138/138/138
f 132/132/132 141/141/141 135/135/135
f 140/140/140 135/135/135 141/141/141
f 142/142/142 136/136/136 137/137/137
f 143/143/143 142/142/142 137/137/137
f 132/132/132 144/144/144 141/141/141
f 129/129/129 144/144/144 132/132/132
f 145/145/145 142/142/142 143/143/143
f 146/146/146 145/145/145 143/143/143
f 144/144/144 129/129/129 147/147/147
f 147/147/147 129/129/129 126/126/126
f 148/148/148 145/145/145 146/146/146
f 149/149/149 148/148/148 146/146/146
f 150/150/150 147/147/147 126/126/126
f 127/127/127 150/150/150 126/126/126
f 151/151/151 148/148/148 149/149/149
f 152/152/152 151/151/151 149/149/149
f 153/153/153 150/150/150 127/127/127
f 130/130/130 153/153/153 127/127/127
f 154/154/154 151/151/151 152/152/152
f 155/155/155 154/154/154 152/152/152
f 156/156/156 153/153/153 130/130/130
f 133/133/133 156/156/156 130/130/130
f 157/157/157 154/154/154 155/155/155
f 158/158/158 157/157/157 155/155/155
f 159/159/159 156/156/156 133/133/133
f 136/136/136 159/159/159 133/133/133
f 160/160/160 157/157/157 158/158/158
f 161/161/161 160/160/160 158/158/158
f 162/162/162 159/159/159 136/136/136
f 142/142/142 162/162/162 136/136/136
f 163/163/163 160/160/160 161/161/161
f 164/164/164 163/163/163 161/161/161
f 165/165/165 162/162/162 142/142/142
f 145/145/145 165/165/165 142/142/142
f 166/166/166 163/163/163 164/164/164
f 167/167/167 166/166/166 164/164/164
f 168/168/168 165/165/165 145/145/145
f 148/148/148 168/168/168 145/145/145
f 169/169/169 166/166/166 167/167/167
f 170/170/170 169/169/169 167/167/167
f 171/171/171 168/168/168 148/148/148
f 151/151/151 171/171/171 148/148/148
f 172/172/172 169/169/169 170/170/170
f 173/173/173 172/172/172 170/170/170
f 174/174/174 171/171/171 151/151/151
f 154/154/154 174/174/174 151/151/151
f 175/175/175 174/174/174 154/154/154
f 157/157/157 175/175/175 154/154/154
f 176/176/176 175/175/175 157/157/157
f 160/160/160 176/176/176 157/157/157
f 177/177/177 176/176/176 160/160/160
f 163/163/163 177/177/177 160/160/160
f 178/178/178 177/177/177 163/163/163
f 166/166/166 178/178/178 163/163/163
f 169/169/169 179/179/179 166/166/166
f 179/179/179 178/178/178 166/166/166
f 172/172/172 180/180/180 169/169/169
f 180/180/180 179/179/179 169/169/169
f 181/181/181 180/180/180 172/172/172
f 181/181/181 172/172/172 182/182/182
f 180/180/180 183/183/183 179/179/179
f 181/181/181 183/183/183 180/180/180
f 179/179/179 184/184/184 178/178/178
f 183/183/183 184/184/184 179/179/179
f 178/178/178 185/185/185 177/177/177
f 184/184/184 185/185/185 178/178/178
f 177/177/177 186/186/186 176/176/176
f 185/185/185 186/186/186 177/177/177
f 183/183/183 187/187/187 184/184/184
f 181/181/181 187/187/187 183/183/183
f 184/184/184 188/188/188 185/185/185
f 187/187/187 188/188/188 184/184/184
f 186/186/186 189/189/189 176/176/176
f 176/176/176 189/189/189 175/175/175
f 185/185/185 190/190/190 186/186/186
f 188/188/188 190/190/190 185/185/185
f 187/187/187 191/191/191 188/188/188
f 191/191/191 187/187/187 181/181/181
f 191/191/191 192/192/192 188/188/188
f 188/188/188 192/192/192 190/190/190
f 190/190/190 193/193/193 186/186/186
f 186/186/186 193/193/193 189/189/189
f 189/189/189 194/194/194 175/175/175
f 175/175/175 194/194/194 174/174/174
f 195/195/195 191/191/191 181/181/181
f 191/191/191 195/195/195 192/192/192
f 192/192/192 196/196/196 190/190/190
f 190/190/190 196/196/196 193/193/193
f 193/193/193 197/197/197 189/189/189
f 189/189/189 197/197/197 194/194/194
f 194/194/194 198/198/198 174/174/174
f 174/174/174 198/198/198 171/171/171
f 199/199/199 195/195/195 181/181/181
f 199/199/199 181/181/181 182/182/182
f 195/195/195 200/200/200 192/192/192
f 195/195/195 199/199/199 200/200/200
f 192/192/192 200/200/200 196/196/196
f 199/199/199 182/182/182 201/201/201
f 199/199/199 201/201/201 200/200/200
f 182/182/182 202/202/202 201/201/201
f 196/196/196 203/203/203 193/193/193
f 193/193/193 203/203/203 197/197/197
f 200/200/200 204/204/204 196/196/196
f 200/200/200 201/201/201 204/204/204
f 196/196/196 204/204/204 203/203/203
f 201/201/201 202/202/202 205/205/205
f 201/201/201 205/205/205 204/204/204
f 202/202/202 206/206/206 205/205/205
f 204/204/204 207/207/207 203/203/203
f 207/207/207 204/204/204 205/205/205
f 205/205/205 206/206/206 208/208/208
f 208/208/208 207/207/207 205/205/205
f 206/206/206 209/209/209 208/208/208
f 203/203/203 210/210/210 197/197/197
f 203/203/203 207/207/207 210/210/210
f 208/208/208 209/209/209 211/211/211
f 209/209/209 212/212/212 211/211/211
f 207/207/207 208/208/208 213/213/213
f 207/207/207 213/213/213 210/210/210
f 208/208/208 211/211/211 213/213/213
f 197/197/197 210/210/210 214/214/214
f 197/197/197 214/214/214 194/194/194
f 194/194/194 214/214/214 198/198/198
f 211/211/211 212/212/212 215/215/215
f 212/212/212 216/216/216 215/215/215
f 210/210/210 213/213/213 217/217/217
f 210/210/210 217/217/217 214/214/214
f 213/213/213 211/211/211 218/218/218
f 211/211/211 215/215/215 218/218/218
f 213/213/213 218/218/218 217/217/217
f 214/214/214 219/219/219 198/198/198
f 214/214/214 217/217/217 219/219/219
f 215/215/215 216/216/216 220/220/220
f 216/216/216 221/221/221 220/220/220
f 222/222/222 218/218/218 215/215/215
f 220/220/220 222/222/222 215/215/215
f 217/217/217 218/218/218 223/223/223
f 217/217/217 223/223/223 219/219/219
f 218/218/218 222/222/222 223/223/223
f 198/198/198 219/219/219 224/224/224
f 198/198/198 224/224/224 171/171/171
f 171/171/171 224/224/224 168/168/168
f 220/220/220 221/221/221 225/225/225
f 221/221/221 226/226/226 225/225/225
f 219/219/219 223/223/223 227/227/227
f 219/219/219 227/227/227 224/224/224
f 224/224/224 228/228/228 168/168/168
f 224/224/224 227/227/227 228/228/228
f 168/168/168 228/228/228 165/165/165
f 223/223/223 222/222/222 229/229/229
f 223/223/223 229/229/229 227/227/227
f 222/222/222 220/220/220 230/230/230
f 220/220/220 225/225/225 230/230/230
f 222/222/222 230/230/230 229/229/229
f 225/225/225 226/226/226 231/231/231
f 226/226/226 232/232/232 231/231/231
f 228/228/228 233/233/233 165/165/165
f 165/165/165 233/233/233 162/162/162
f 227/227/227 234/234/234 228/228/228
f 227/227/227 229/229/229 234/234/234
f 228/228/228 234/234/234 233/233/233
f 229/229/229 230/230/230 235/235/235
f 229/229/229 235/235/235 234/234/234
f 230/230/230 225/225/225 236/236/236
f 225/225/225 231/231/231 236/236/236
f 230/230/230 236/236/236 235/235/235
f 231/231/231 232/232/232 237/237/237
f 232/232/232 238/238/238 237/237/237
f 233/233/233 239/239/239 162/162/162
f 162/162/162 239/239/239 159/159/159
f 234/234/234 240/240/240 233/233/233
f 234/234/234 235/235/235 240/240/240
f 233/233/233 240/240/240 239/239/239
f 241/241/241 236/236/236 231/231/231
f 237/237/237 241/241/241 231/231/231
f 235/235/235 236/236/236 242/242/242
f 235/235/235 242/242/242 240/240/240
f 236/236/236 241/241/241 242/242/242
f 237/237/237 238/238/238 243/243/243
f 238/238/238 244/244/244 243/243/243
f 239/239/239 245/245/245 159/159/159
f 159/159/159 245/245/245 156/156/156
f 240/240/240 246/246/246 239/239/239
f 240/240/240 242/242/242 246/246/246
f 239/239/239 246/246/246 245/245/245
f 242/242/242 241/241/241 247/247/247
f 242/242/242 247/247/247 246/246/246
f 241/241/241 237/237/237 248/248/248
f 237/237/237 243/243/243 248/248/248
f 241/241/241 248/248/248 247/247/247
f 243/243/243 244/244/244 249/249/249
f 244/244/244 250/250/250 249/249/249
f 245/245/245 251/251/251 156/156/156
f 156/156/156 251/251/251 153/153/153
f 246/246/246 252/252/252 245/245/245
f 246/246/246 247/247/247 252/252/252
f 245/245/245 252/252/252 251/251/251
f 253/253/253 248/248/248 243/243/243
f 249/249/249 253/253/253 243/243/243
f 247/247/247 248/248/248 254/254/254
f 247/247/247 254/254/254 252/252/252
f 248/248/248 253/253/253 254/254/254
f 249/249/249 250/250/250 255/255/255
f 250/250/250 256/256/256 255/255/255
f 251/251/251 257/257/257 153/153/153
f 153/153/153 257/257/257 150/150/150
f 252/252/252 258/258/258 251/251/251
f 252/252/252 254/254/254 258/258/258
f 251/251/251 258/258/258 257/257/257
f 254/254/254 253/253/253 259/259/259
f 254/254/254 259/259/259 258/258/258
f 253/253/253 249/249/249 260/260/260
f 249/249/249 255/255/255 260/260/260
f 253/253/253 260/260/260 259/259/259
f 255/255/255 256/256/256 261/261/261
f 256/256/256 262/262/262 261/261/261
f 257/257/257 263/263/263 150/150/150
f 150/150/150 263/263/263 147/147/147
f 258/258/258 264/264/264 257/257/257
f 258/258/258 259/259/259 264/264/264
f 257/257/257 264/264/264 263/263/263
f 265/265/265 260/260/260 255/255/255
f 261/261/261 265/265/265 255/255/255
f 259/259/259 260/260/260 266/266/266
f 259/259/259 266/266/266 264/264/264
f 260/260/260 265/265/265 266/266/266
f 261/261/261 262/262/262 267/267/267
f 262/262/262 268/268/268 267/267/267
f 263/263/263 269/269/269 147/147/147
f 269/269/269 144/144/144 147/147/147
f 264/264/264 270/270/270 263/263/263
f 264/264/264 266/266/266 270/270/270
f 263/263/263 270/270/270 269/269/269
f 266/266/266 265/265/265 271/271/271
f 266/266/266 271/271/271 270/270/270
f 265/265/265 261/261/261 272/272/272
f 261/261/261 267/267/267 272/272/272
f 265/265/265 272/272/272 271/271/271
f 267/267/267 268/268/268 273/273/273
f 268/268/268 274/274/274 273/273/273
f 274/274/274 275/275/275 273/273/273
f 275/275/275 276/276/276 273/273/273
f 273/273/273 277/277/277 267/267/267
f 277/277/277 272/272/272 267/267/267
f 273/273/273 276/276/276 277/277/277
f 270/270/270 278/278/278 269/269/269
f 270/270/270 271/271/271 278/278/278
f 271/271/271 272/272/272 279/279/279
f 272/272/272 277/277/277 279/279/279
f 271/271/271 279/279/279 278/278/278
f 276/276/276 280/280/280 277/277/277
f 277/277/277 280/280/280 279/279/279
f 276/276/276 281/281/281 280/280/280
f 278/278/278 282/282/282 269/269/269
f 282/282/282 144/144/144 269/269/269
f 144/144/144 282/282/282 141/141/141
f 279/279/279 283/283/283 278/278/278
f 280/280/280 283/283/283 279/279/279
f 283/283/283 282/282/282 278/278/278
f 281/281/281 284/284/284 280/280/280
f 280/280/280 284/284/284 283/283/283
f 283/283/283 285/285/285 282/282/282
f 284/284/284 285/285/285 283/283/283
f 282/282/282 286/286/286 141/141/141
f 285/285/285 286/286/286 282/282/282
f 287/287/287 284/284/284 281/281/281
f 288/288/288 287/287/287 281/281/281
f 289/289/289 287/287/287 288/288/288
f 288/288/288 290/290/290 289/289/289
f 284/284/284 287/287/287 291/291/291
f 285/285/285 284/284/284 291/291/291
f 287/287/287 289/289/289 291/291/291
f 285/285/285 291/291/291 292/292/292
f 286/286/286 285/285/285 292/292/292
f 286/286/286 293/293/293 141/141/141
f 141/141/141 293/293/293 140/140/140
f 290/290/290 294/294/294 289/289/289
f 294/294/294 290/290/290 295/295/295
f 294/294/294 295/295/295 296/296/296
f 297/297/297 294/294/294 296/296/296
f 294/294/294 297/297/297 289/289/289
f 289/289/289 298/298/298 291/291/291
f 291/291/291 298/298/298 292/292/292
f 286/286/286 292/292/292 299/299/299
f 293/293/293 286/286/286 299/299/299
f 293/293/293 299/299/299 300/300/300
f 299/299/299 301/301/301 300/300/300
f 293/293/293 302/302/302 140/140/140
f 302/302/302 293/293/293 300/300/300
f 140/140/140 302/302/302 139/139/139
f 292/292/292 303/303/303 299/299/299
f 298/298/298 303/303/303 292/292/292
f 303/303/303 301/301/301 299/299/299
f 302/302/302 304/304/304 139/139/139
f 304/304/304 302/302/302 300/300/300
f 139/139/139 304/304/304 77/77/77
f 289/289/289 305/305/305 298/298/298
f 297/297/297 305/305/305 289/289/289
f 303/303/303 298/298/298 306/306/306
f 303/303/303 306/306/306 301/301/301
f 304/304/304 307/307/307 77/77/77
f 77/77/77 307/307/307 78/78/78
f 307/307/307 308/308/308 78/78/78
f 308/308/308 307/307/307 309/309/309
f 307/307/307 304/304/304 310/310/310
f 307/307/307 310/310/310 309/309/309
f 305/305/305 297/297/297 311/311/311
f 297/297/297 296/296/296 311/311/311
f 296/296/296 312/312/312 311/311/311
f 312/312/312 313/313/313 311/311/311
f 311/311/311 313/313/313 314/314/314
f 305/305/305 311/311/311 314/314/314
f 313/313/313 315/315/315 314/314/314
f 316/316/316 305/305/305 314/314/314
f 305/305/305 316/316/316 298/298/298
f 298/298/298 316/316/316 306/306/306
f 314/314/314 315/315/315 317/317/317
f 316/316/316 314/314/314 317/317/317
f 306/306/306 316/316/316 317/317/317
f 315/315/315 318/318/318 317/317/317
f 317/317/317 318/318/318 319/319/319
f 306/306/306 317/317/317 319/319/319
f 318/318/318 320/320/320 319/319/319
f 321/321/321 306/306/306 319/319/319
f 306/306/306 321/321/321 301/301/301
f 319/319/319 320/320/320 322/322/322
f 319/319/319 322/322/322 321/321/321
f 322/322/322 301/301/301 321/321/321
f 320/320/320 323/323/323 322/322/322
f 322/322/322 323/323/323 324/324/324
f 322/322/322 324/324/324 301/301/301
f 323/323/323 325/325/325 324/324/324
f 324/324/324 326/326/326 301/301/301
f 301/301/301 326/326/326 300/300/300
f 324/324/324 325/325/325 327/327/327
f 326/326/326 324/324/324 327/327/327
f 325/325/325 328/328/328 327/327/327
f 327/327/327 328/328/328 329/329/329
f 328/328/328 330/330/330 329/329/329
f 331/331/331 326/326/326 327/327/327
f 331/331/331 327/327/327 329/329/329
f 326/326/326 332/332/332 300/300/300
f 326/326/326 331/331/331 332/332/332
f 329/329/329 330/330/330 333/333/333
f 330/330/330 334/334/334 333/333/333
f 335/335/335 331/331/331 329/329/329
f 331/331/331 335/335/335 332/332/332
f 329/329/329 333/333/333 335/335/335
f 332/332/332 335/335/335 336/336/336
f 300/300/300 332/332/332 337/337/337
f 332/332/332 336/336/336 337/337/337
f 337/337/337 304/304/304 300/300/300
f 304/304/304 337/337/337 310/310/310
f 337/337/337 336/336/336 310/310/310
f 333/333/333 334/334/334 338/338/338
f 334/334/334 339/339/339 338/338/338
f 333/333/333 340/340/340 335/335/335
f 335/335/335 340/340/340 336/336/336
f 333/333/333 338/338/338 340/340/340
f 338/338/338 336/336/336 340/340/340
f 338/338/338 339/339/339 341/341/341
f 338/338/338 341/341/341 336/336/336
f 339/339/339 342/342/342 341/341/341
f 336/336/336 343/343/343 310/310/310
f 341/341/341 343/343/343 336/336/336
f 310/310/310 343/343/343 309/309/309
f 343/343/343 344/344/344 309/309/309
f 345/345/345 344/344/344 343/343/343
f 341/341/341 345/345/345 343/343/343
f 341/341/341 342/342/342 345/345/345
f 342/342/342 346/346/346 345/345/345
f 349/349/349 348/348/348 347/347/347
f 125/125/125 349/349/349 347/347/347
f 350/350/350 349/349/349 125/125/125
f 351/351/351 350/350/350 125/125/125
f 352/352/352 350/350/350 351/351/351
f 118/118/118 351/351/351 125/125/125
f 353/353/353 352/352/352 351/351/351
f 354/354/354 352/352/352 353/353/353
f 351/351/351 118/118/118 355/355/355
f 353/353/353 351/351/351 355/355/355
f 356/356/356 355/355/355 118/118/118
f 355/355/355 356/356/356 353/353/353
f 116/116/116 356/356/356 118/118/118
f 357/357/357 354/354/354 353/353/353
f 356/356/356 357/357/357 353/353/353
f 356/356/356 116/116/116 357/357/357
f 358/358/358 354/354/354 357/357/357
f 359/359/359 358/358/358 357/357/357
f 116/116/116 359/359/359 357/357/357
f 360/360/360 358/358/358 359/359/359
f 361/361/361 360/360/360 359/359/359
f 362/362/362 360/360/360 361/361/361
f 359/359/359 116/116/116 363/363/363
f 361/361/361 359/359/359 363/363/363
f 364/364/364 363/363/363 116/116/116
f 363/363/363 364/364/364 361/361/361
f 115/115/115 364/364/364 116/116/116
f 365/365/365 362/362/362 361/361/361
f 364/364/364 365/365/365 361/361/361
f 366/366/366 362/362/362 365/365/365
f 115/115/115 367/367/367 364/364/364
f 364/364/364 367/367/367 365/365/365
f 368/368/368 366/366/366 365/365/365
f 367/367/367 368/368/368 365/365/365
f 369/369/369 366/366/366 368/368/368
f 370/370/370 367/367/367 115/115/115
f 367/367/367 370/370/370 368/368/368
f 110/110/110 370/370/370 115/115/115
f 371/371/371 369/369/369 368/368/368
f 370/370/370 371/371/371 368/368/368
f 370/370/370 110/110/110 371/371/371
f 372/372/372 369/369/369 371/371/371
f 373/373/373 372/372/372 371/371/371
f 110/110/110 373/373/373 371/371/371
f 374/374/374 372/372/372 373/373/373
f 110/110/110 375/375/375 373/373/373
f 109/109/109 375/375/375 110/110/110
f 376/376/376 374/374/374 373/373/373
f 375/375/375 376/376/376 373/373/373
f 377/377/377 374/374/374 376/376/376
f 109/109/109 378/378/378 375/375/375
f 376/376/376 375/375/375 379/379/379
f 378/378/378 379/379/379 375/375/375
f 380/380/380 376/376/376 379/379/379
f 380/380/380 377/377/377 376/376/376
f 380/380/380 379/379/379 378/378/378
f 381/381/381 377/377/377 380/380/380
f 381/381/381 380/380/380 378/378/378
f 382/382/382 377/377/377 381/381/381
f 383/383/383 378/378/378 109/109/109
f 378/378/378 383/383/383 381/381/381
f 96/96/96 383/383/383 109/109/109
f 384/384/384 382/382/382 381/381/381
f 383/383/383 384/384/384 381/381/381
f 383/383/383 96/96/96 384/384/384
f 385/385/385 382/382/382 384/384/384
f 96/96/96 386/386/386 384/384/384
f 386/386/386 385/385/385 384/384/384
f 389/389/389 388/388/388 387/387/387
f 390/390/390 389/389/389 387/387/387
f 390/390/390 387/387/387 391/391/391
f 389/389/389 392/392/392 388/388/388
f 392/392/392 393/393/393 388/388/388
f 394/394/394 390/390/390 391/391/391
f 394/394/394 391/391/391 395/395/395
f 390/390/390 396/396/396 389/389/389
f 389/389/389 396/396/396 392/392/392
f 394/394/394 396/396/396 390/390/390
f 393/393/393 392/392/392 397/397/397
f 398/398/398 393/393/393 397/397/397
f 399/399/399 394/394/394 395/395/395
f 395/395/395 400/400/400 399/399/399
f 397/397/397 392/392/392 401/401/401
f 396/396/396 401/401/401 392/392/392
f 397/397/397 402/402/402 398/398/398
f 402/402/402 397/397/397 401/401/401
f 402/402/402 403/403/403 398/398/398
f 402/402/402 404/404/404 403/403/403
f 402/402/402 401/401/401 404/404/404
f 404/404/404 405/405/405 403/403/403
f 406/406/406 396/396/396 394/394/394
f 399/399/399 406/406/406 394/394/394
f 400/400/400 407/407/407 399/399/399
f 407/407/407 406/406/406 399/399/399
f 400/400/400 408/408/408 407/407/407
f 409/409/409 401/401/401 396/396/396
f 409/409/409 396/396/396 406/406/406
f 409/409/409 410/410/410 401/401/401
f 401/401/401 410/410/410 404/404/404
f 409/409/409 406/406/406 411/411/411
f 411/411/411 406/406/406 407/407/407
f 409/409/409 412/412/412 410/410/410
f 405/405/405 404/404/404 413/413/413
f 404/404/404 410/410/410 413/413/413
f 414/414/414 405/405/405 413/413/413
f 408/408/408 415/415/415 407/407/407
f 415/415/415 411/411/411 407/407/407
f 415/415/415 408/408/408 416/416/416
f 413/413/413 410/410/410 417/417/417
f 414/414/414 413/413/413 417/417/417
f 410/410/410 412/412/412 417/417/417
f 418/418/418 414/414/414 417/417/417
f 419/419/419 415/415/415 416/416/416
f 419/419/419 411/411/411 415/415/415
f 419/419/419 416/416/416 420/420/420
f 417/417/417 421/421/421 418/418/418
f 417/417/417 412/412/412 421/421/421
f 421/421/421 422/422/422 418/418/418
f 423/423/423 419/419/419 420/420/420
f 423/423/423 411/411/411 419/419/419
f 420/420/420 424/424/424 423/423/423
f 422/422/422 421/421/421 425/425/425
f 421/421/421 412/412/412 425/425/425
f 426/426/426 422/422/422 425/425/425
f 427/427/427 411/411/411 423/423/423
f 409/409/409 411/411/411 427/427/427
f 424/424/424 428/428/428 423/423/423
f 428/428/428 427/427/427 423/423/423
f 424/424/424 429/429/429 428/428/428
f 429/429/429 430/430/430 428/428/428
f 430/430/430 427/427/427 428/428/428
f 429/429/429 431/431/431 430/430/430
f 412/412/412 432/432/432 425/425/425
f 432/432/432 412/412/412 409/409/409
f 426/426/426 425/425/425 433/433/433
f 425/425/425 432/432/432 433/433/433
f 434/434/434 426/426/426 433/433/433
f 433/433/433 435/435/435 434/434/434
f 433/433/433 432/432/432 435/435/435
f 435/435/435 436/436/436 434/434/434
f 437/437/437 427/427/427 430/430/430
f 437/437/437 409/409/409 427/427/427
f 431/431/431 438/438/438 430/430/430
f 438/438/438 437/437/437 430/430/430
f 431/431/431 439/439/439 438/438/438
f 439/439/439 440/440/440 438/438/438
f 440/440/440 437/437/437 438/438/438
f 439/439/439 441/441/441 440/440/440
f 432/432/432 442/442/442 435/435/435
f 442/442/442 432/432/432 409/409/409
f 436/436/436 435/435/435 443/443/443
f 435/435/435 442/442/442 443/443/443
f 444/444/444 436/436/436 443/443/443
f 445/445/445 437/437/437 440/440/440
f 437/437/437 445/445/445 409/409/409
f 441/441/441 446/446/446 440/440/440
f 446/446/446 445/445/445 440/440/440
f 441/441/441 447/447/447 446/446/446
f 448/448/448 442/442/442 409/409/409
f 442/442/442 448/448/448 443/443/443
f 445/445/445 448/448/448 409/409/409
f 444/444/444 443/443/443 449/449/449
f 443/443/443 448/448/448 449/449/449
f 450/450/450 444/444/444 449/449/449
f 447/447/447 451/451/451 446/446/446
f 451/451/451 445/445/445 446/446/446
f 448/448/448 445/445/445 451/451/451
f 449/449/449 448/448/448 451/451/451
f 451/451/451 447/447/447 450/450/450
f 449/449/449 451/451/451 450/450/450
