g item_25item_25_mobile
v -0.157973017 -0.00271927167 -0.162192159
v 0.159753357 0.00358441297 -0.168495844
v -0.157973017 0.00358441297 -0.168495844
v 0.159753357 -0.00271927167 -0.162192159
v 0.166057041 0.00358441297 -0.162192159
v 0.166057041 0.00358441297 0.155534214
v 0.159753357 -0.00271927167 0.155534214
v -0.157973017 -0.00271927167 0.155534214
v 0.159753357 0.00358441297 0.161837899
v -0.157973017 0.00358441297 0.161837899
v 0.159753357 0.00358441297 0.161837899
v -0.157973017 0.00358441297 0.161837899
v -0.158241699 0.415514703 0.161837899
v 0.159877363 0.415390696 0.161837899
v -0.151193973 0.421570374 0.155306868
v 0.166057041 0.415514703 0.155802896
v 0.166057041 0.00358441297 0.155534214
v 0.166057041 0.00358441297 -0.162192159
v 0.152974312 0.421570374 0.155306868
v 0.123894691 0.421570374 0.126041238
v -0.122114352 0.421570374 0.126103241
v -0.115934674 0.427750052 0.119675549
v 0.166057041 0.415390696 -0.162316166
v 0.159526011 0.421570374 0.14875517
v 0.16000137 0.415514703 -0.168495844
v 0.159753357 0.00358441297 -0.168495844
v -0.157973017 0.00358441297 -0.168495844
v -0.158097024 0.415390696 -0.168495844
v 0.159526011 0.421570374 -0.155413115
v 0.152974312 0.421570374 -0.161964813
v -0.151193973 0.421570374 -0.161964813
v -0.122114352 0.421570374 -0.132699182
v 0.130322383 0.421570374 0.119675549
v 0.123894691 0.421570374 -0.132761186
v 0.130322383 0.421570374 -0.126333494
v 0.123894691 0.427812055 0.113433868
v 0.11765301 0.427812055 -0.126333494
v -0.115934674 0.427750052 -0.126333494
v -0.115810667 0.503807624 -0.126333494
v 0.123894691 0.427750052 -0.120153816
v 0.117570339 0.503807624 -0.126333494
v 0.117570339 0.510111308 -0.120009142
v -0.115810667 0.510111308 -0.120009142
v -0.115810667 0.510111308 0.113371865
v 0.123894691 0.503807624 -0.120009142
v 0.11765301 0.427812055 0.119675549
v 0.117570339 0.510111308 0.113371865
v 0.123894691 0.503807624 0.113371865
v 0.117570339 0.503807624 0.119675549
v -0.115810667 0.503807624 0.119675549
v -0.38872921 0.198605948 -0.394787788
v -0.394784881 0.231405776 -0.388732118
v -0.394784881 0.198729955 -0.388608111
v -0.388605204 0.231281769 -0.394787788
v -0.381702152 0.237461447 -0.38823609
v -0.388253851 0.237461447 -0.381705059
v 0.388732118 0.231405776 -0.394787788
v 0.388608111 0.198729955 -0.394787788
v 0.394787788 0.198605948 -0.388732118
v 0.394787788 0.231281769 -0.388608111
v 0.38823609 0.237461447 -0.381705059
v 0.381705059 0.237461447 -0.38823609
v 0.394787788 0.231405776 0.38872921
v 0.394787788 0.198729955 0.388605204
v 0.388732118 0.198605948 0.394784881
v 0.388608111 0.231281769 0.394784881
v -0.38872921 0.231405776 0.394784881
v -0.388605204 0.198729955 0.394784881
v -0.394784881 0.198605948 0.38872921
v -0.394784881 0.231281769 0.388605204
v -0.388253851 0.237461447 0.381702152
v -0.381702152 0.237461447 0.388253851
v -0.38872921 0.198605948 -0.394787788
v 0.388608111 0.198729955 -0.394787788
v 0.388732118 0.231405776 -0.394787788
v -0.388605204 0.231281769 -0.394787788
v 0.381705059 0.237461447 -0.38823609
v -0.381702152 0.237461447 -0.38823609
v -0.307587355 0.237461447 -0.314017954
v -0.314015047 0.237461447 -0.307590262
v -0.388253851 0.237461447 -0.381705059
v 0.307590262 0.237461447 -0.314017954
v 0.38823609 0.237461447 -0.381705059
v -0.301407677 0.231281769 -0.307590262
v 0.301410584 0.231281769 -0.307590262
v 0.31395595 0.237461447 -0.307590262
v 0.307590262 0.231281769 -0.301410584
v 0.38823609 0.237461447 0.381702152
v 0.394787788 0.231281769 -0.388608111
v 0.394787788 0.231405776 0.38872921
v 0.394787788 0.198605948 -0.388732118
v 0.394787788 0.198729955 0.388605204
v 0.381705059 0.237461447 0.388253851
v 0.388608111 0.231281769 0.394784881
v 0.314017954 0.237461447 0.307587355
v 0.307590262 0.231219766 0.301345674
v 0.301410584 0.198729955 -0.307590262
v -0.301345674 0.198791959 -0.307590262
v 0.307590262 0.198729955 -0.301410584
v -0.381702152 0.237461447 0.388253851
v 0.307590262 0.237461447 0.314015047
v -0.38872921 0.231405776 0.394784881
v 0.388732118 0.198605948 0.394784881
v -0.388605204 0.198729955 0.394784881
v 0.301410584 0.231281769 0.307587355
v -0.307587355 0.237461447 0.314015047
v -0.388253851 0.237461447 0.381702152
v 0.307590262 0.198729955 0.301407677
v -0.301345674 0.231219766 0.307587355
v 0.301348581 0.198791959 0.307587355
v -0.314015047 0.237461447 0.307587355
v -0.307587355 0.231281769 0.301407677
v -0.301407677 0.198729955 0.307587355
v -0.394784881 0.231281769 0.388605204
v -0.394784881 0.231405776 -0.388732118
v -0.394784881 0.198605948 0.38872921
v -0.394784881 0.198729955 -0.388608111
v -0.307587355 0.231219766 -0.301348581
v -0.307587355 0.198791959 0.301345674
v -0.307587355 0.198729955 -0.301410584
v -0.314015047 0.192550277 0.307587355
v -0.314015047 0.192550277 -0.307590262
v -0.307587355 0.192550277 -0.314017954
v -0.307587355 0.192550277 0.314015047
v 0.307590262 0.192550277 -0.31395595
v 0.307590262 0.192550277 0.314015047
v 0.314017954 0.192550277 -0.307590262
v 0.314017954 0.192550277 0.307587355
v -0.388253851 0.192550277 -0.381705059
v -0.388253851 0.192550277 0.381702152
v -0.381702152 0.192550277 0.388253851
v -0.381702152 0.192550277 -0.38823609
v 0.381705059 0.192550277 0.388253851
v 0.38823609 0.192550277 0.381702152
v 0.381705059 0.192550277 -0.38823609
v 0.38823609 0.192550277 -0.381705059
v -0.394784881 0.198729955 -0.388608111
v -0.394784881 0.198605948 0.38872921
v -0.38872921 0.198605948 -0.394787788
v -0.388605204 0.198729955 0.394784881
v 0.388608111 0.198729955 -0.394787788
v 0.388732118 0.198605948 0.394784881
v 0.394787788 0.198605948 -0.388732118
v 0.394787788 0.198729955 0.388605204
v 0.212290951 0.566203768 0.214292822
v 0.246744205 0.566203768 0.248870083
v 0.253295903 0.566203768 0.242318384
v 0.218718643 0.566203768 0.207865131
v -0.209869909 0.566203768 0.207865131
v -0.244426502 0.566203768 0.242318384
v -0.237895471 0.566203768 0.248870083
v -0.203442218 0.566203768 0.214292822
v -0.203442218 0.566203768 -0.21429573
v -0.237895471 0.566203768 -0.248852322
v -0.244426502 0.566203768 -0.242321291
v -0.209869909 0.566203768 -0.207868038
v 0.246744205 0.566203768 -0.248852322
v 0.212290951 0.566203768 -0.214233726
v 0.218718643 0.566203768 -0.207868038
v 0.253295903 0.566203768 -0.242321291
v 0.212290951 0.566203768 -0.214233726
v 0.246744205 0.566203768 -0.248852322
v -0.237895471 0.566203768 -0.248852322
v -0.203442218 0.566203768 -0.21429573
v -0.197200537 0.572445449 -0.207868038
v 0.206111273 0.572383446 -0.207868038
v 0.218718643 0.566203768 -0.207868038
v -0.203442218 0.572383446 -0.20168836
v -0.209869909 0.566203768 -0.207868038
v 0.206111273 0.580753912 -0.207868038
v -0.19726254 0.580753912 -0.207868038
v 0.212290951 0.572383446 -0.20168836
v 0.212290951 0.580753912 -0.20168836
v 0.218718643 0.566203768 0.207865131
v 0.253295903 0.566203768 -0.242321291
v 0.253295903 0.566203768 0.242318384
v 0.212290951 0.572383446 0.201685453
v 0.212290951 0.566203768 0.214292822
v 0.212290951 0.580691909 0.20162345
v 0.212290951 0.58693359 -0.21429573
v -0.203442218 0.58693359 -0.21429573
v 0.218656639 0.58693359 -0.207868038
v 0.20604927 0.572445449 0.207865131
v 0.206111273 0.580753912 0.207865131
v 0.218718643 0.58693359 0.207865131
v -0.203442218 0.566203768 0.214292822
v 0.246744205 0.566203768 0.248870083
v -0.237895471 0.566203768 0.248870083
v -0.19726254 0.572383446 0.207865131
v -0.209869909 0.566203768 0.207865131
v -0.197200537 0.580691909 0.207865131
v 0.212290951 0.58693359 0.214292822
v 0.253295903 0.58693359 -0.242321291
v 0.253295903 0.58693359 0.242318384
v 0.246744205 0.58693359 0.248870083
v 0.246744205 0.58693359 -0.248852322
v -0.203442218 0.572445449 0.20162345
v -0.203442218 0.580753912 0.201685453
v -0.203442218 0.58693359 0.214292822
v -0.237895471 0.58693359 0.248870083
v -0.244426502 0.566203768 0.242318384
v -0.244426502 0.566203768 -0.242321291
v -0.203442218 0.580691909 -0.201626357
v -0.209869909 0.58693359 0.207865131
v -0.209869909 0.58693359 -0.207868038
v -0.244426502 0.58693359 0.242318384
v -0.237895471 0.58693359 -0.248852322
v -0.244426502 0.58693359 -0.242321291
v -0.244922529 0.580898587 0.255401113
v -0.2509782 0.580753912 0.249221436
v -0.2509782 0.580898587 -0.24934835
v -0.244798523 0.580753912 -0.255404021
v 0.253647256 0.580753912 0.255401113
v 0.253771263 0.580877919 -0.255404021
v 0.259826934 0.580877919 0.249345443
v 0.259826934 0.580753912 -0.249224343
v -0.2509782 0.572259439 0.249345443
v -0.2509782 0.572383446 -0.249224343
v -0.244922529 0.572259439 -0.255404021
v -0.244798523 0.572383446 0.255401113
v 0.253647256 0.572383446 -0.255404021
v 0.259826934 0.572259439 -0.24934835
v 0.253771263 0.572259439 0.255401113
v 0.259826934 0.572383446 0.249221436
v -0.244426502 0.566203768 0.242318384
v -0.244426502 0.566203768 -0.242321291
v -0.237895471 0.566203768 0.248870083
v -0.237895471 0.566203768 -0.248852322
v 0.246744205 0.566203768 0.248870083
v 0.246744205 0.566203768 -0.248852322
v 0.253295903 0.566203768 0.242318384
v 0.253295903 0.566203768 -0.242321291
v 0.127015532 0.677148617 0.202346823
v 0.205945931 0.670824265 0.196043139
v 0.127015532 0.670824265 0.196043139
v 0.120711847 0.677148617 0.196043139
v 0.205945931 0.677148617 0.202346823
v 0.212249616 0.677148617 0.196043139
v 0.212249616 0.763788113 0.196043139
v 0.205945931 0.763788113 0.202346823
v 0.205945931 0.770091797 0.196043139
v 0.127015532 0.770091797 0.196043139
v 0.127015532 0.763788113 0.202346823
v 0.120711847 0.763788113 0.196043139
v 0.127015532 0.677148617 -0.125589453
v 0.205945931 0.670824265 -0.131893137
v 0.127015532 0.670824265 -0.131893137
v 0.120711847 0.677148617 -0.131893137
v 0.205945931 0.677148617 -0.125589453
v 0.212249616 0.677148617 -0.131893137
v 0.212249616 0.763788113 -0.131893137
v 0.205945931 0.763788113 -0.125589453
v 0.205945931 0.770091797 -0.131893137
v 0.127015532 0.770091797 -0.131893137
v 0.127015532 0.763788113 -0.125589453
v 0.120711847 0.763788113 -0.131893137
v -0.115810667 0.510111308 -0.120009142
v -0.115810667 0.510111308 0.113371865
v -0.122114352 0.503807624 0.113371865
v -0.115810667 0.503807624 0.119675549
v -0.122114352 0.503807624 -0.120009142
v -0.115810667 0.503807624 -0.126333494
v -0.115934674 0.427750052 -0.126333494
v -0.122114352 0.427750052 0.113495872
v -0.115934674 0.427750052 0.119675549
v -0.122114352 0.421570374 0.126103241
v -0.122114352 0.427750052 -0.120153816
v -0.12848004 0.421570374 0.119675549
v -0.128542044 0.421570374 -0.126333494
v -0.122114352 0.421570374 -0.132699182
v -0.151193973 0.421570374 -0.161964813
v -0.157745671 0.421570374 0.14875517
v -0.151193973 0.421570374 0.155306868
v -0.158241699 0.415514703 0.161837899
v -0.157745671 0.421570374 -0.155413115
v -0.164276702 0.415390696 0.155658221
v -0.164276702 0.415514703 -0.162440173
v -0.158097024 0.415390696 -0.168495844
v -0.157973017 0.00358441297 -0.168495844
v -0.164276702 0.00358441297 0.155534214
v -0.157973017 0.00358441297 0.161837899
v -0.157973017 -0.00271927167 0.155534214
v -0.164276702 0.00358441297 -0.162192159
v -0.157973017 -0.00271927167 -0.162192159
v -0.204537612 0.677148617 -0.125589453
v -0.125627881 0.670824265 -0.131893137
v -0.204537612 0.670824265 -0.131893137
v -0.210841297 0.677148617 -0.131893137
v -0.125627881 0.677148617 -0.125589453
v -0.119303529 0.677148617 -0.131893137
v -0.119303529 0.763788113 -0.131893137
v -0.125627881 0.763788113 -0.125589453
v -0.125627881 0.770091797 -0.131893137
v -0.204537612 0.770091797 -0.131893137
v -0.204537612 0.763788113 -0.125589453
v -0.210841297 0.763788113 -0.131893137
v -0.204537612 0.677148617 0.202346823
v -0.125627881 0.670824265 0.196043139
v -0.204537612 0.670824265 0.196043139
v -0.210841297 0.677148617 0.196043139
v -0.125627881 0.677148617 0.202346823
v -0.119303529 0.677148617 0.196043139
v -0.119303529 0.763788113 0.196043139
v -0.125627881 0.763788113 0.202346823
v -0.125627881 0.770091797 0.196043139
v -0.204537612 0.770091797 0.196043139
v -0.204537612 0.763788113 0.202346823
v -0.210841297 0.763788113 0.196043139
v 0.239179783 0.00488648553 -0.23475687
v 0.245483468 0.0111901702 0.234753963
v 0.245483468 0.0111901702 -0.23475687
v 0.239179783 0.0111901702 -0.241060554
v 0.239179783 0.00488648553 0.234753963
v 0.239179783 0.0111901702 0.241057647
v -0.23033105 0.0111901702 0.241057647
v -0.23033105 0.00488648553 0.234753963
v -0.236634734 0.0111901702 0.234753963
v -0.236634734 0.0111901702 -0.23475687
v -0.23033105 0.00488648553 -0.23475687
v -0.23033105 0.0111901702 -0.241060554
v -0.2760896 0.337328346 0.286836865
v -0.276234274 0.113020512 0.286836865
v -0.282413952 0.112875837 0.280781195
v 0.285207015 0.112875837 0.286836865
v -0.282413952 0.337328346 0.280533181
v -0.282413952 0.337328346 -0.28051542
v -0.282413952 0.113020512 -0.280660095
v -0.276358281 0.112875837 -0.286839772
v 0.284959001 0.337328346 0.286836865
v -0.2760896 0.343632031 0.280533181
v -0.2760896 0.343632031 -0.28051542
v -0.2760896 0.337328346 -0.286839772
v 0.291262686 0.337328346 0.280533181
v 0.291262686 0.113020512 0.280657188
v 0.291262686 0.112875837 -0.280784102
v 0.284959001 0.343632031 0.280533181
v 0.284959001 0.337328346 -0.286839772
v 0.285083008 0.113020512 -0.286839772
v 0.284959001 0.343632031 -0.28051542
v 0.291262686 0.337328346 -0.28051542
v 0.212249616 0.763788113 0.126847282
v 0.212249616 0.763788113 0.196043139
v 0.205945931 0.770091797 0.196043139
v 0.212249616 0.677148617 0.196043139
v 0.205945931 0.770091797 0.126847282
v 0.127015532 0.770091797 0.196043139
v 0.127015532 0.770091797 0.126847282
v 0.120711847 0.763788113 0.196043139
v 0.212249616 0.677148617 0.126847282
v 0.205945931 0.763788113 0.120543598
v 0.127015532 0.763788113 0.120543598
v 0.120711847 0.763788113 0.126847282
v 0.205945931 0.670824265 0.126847282
v 0.205945931 0.670824265 0.196043139
v 0.205945931 0.677148617 0.120543598
v 0.127015532 0.670824265 0.126847282
v 0.127015532 0.670824265 0.196043139
v 0.127015532 0.677148617 0.120543598
v 0.120711847 0.677148617 0.126847282
v 0.120711847 0.677148617 0.196043139
v 0.212249616 0.763788113 -0.201088994
v 0.212249616 0.763788113 -0.131893137
v 0.205945931 0.770091797 -0.131893137
v 0.212249616 0.677148617 -0.131893137
v 0.205945931 0.770091797 -0.201088994
v 0.127015532 0.770091797 -0.131893137
v 0.127015532 0.770091797 -0.201088994
v 0.120711847 0.763788113 -0.131893137
v 0.212249616 0.677148617 -0.201088994
v 0.205945931 0.763788113 -0.207392678
v 0.127015532 0.763788113 -0.207392678
v 0.120711847 0.763788113 -0.201088994
v 0.205945931 0.670824265 -0.201088994
v 0.205945931 0.670824265 -0.131893137
v 0.205945931 0.677148617 -0.207392678
v 0.127015532 0.670824265 -0.201088994
v 0.127015532 0.670824265 -0.131893137
v 0.127015532 0.677148617 -0.207392678
v 0.120711847 0.677148617 -0.201088994
v 0.120711847 0.677148617 -0.131893137
v -0.119303529 0.763788113 -0.201088994
v -0.119303529 0.763788113 -0.131893137
v -0.125627881 0.770091797 -0.131893137
v -0.119303529 0.677148617 -0.131893137
v -0.125627881 0.770091797 -0.201088994
v -0.204537612 0.770091797 -0.131893137
v -0.204537612 0.770091797 -0.201088994
v -0.210841297 0.763788113 -0.131893137
v -0.119303529 0.677148617 -0.201088994
v -0.125627881 0.763788113 -0.207392678
v -0.204537612 0.763788113 -0.207392678
v -0.210841297 0.763788113 -0.201088994
v -0.125627881 0.670824265 -0.201088994
v -0.125627881 0.670824265 -0.131893137
v -0.125627881 0.677148617 -0.207392678
v -0.204537612 0.670824265 -0.201088994
v -0.204537612 0.670824265 -0.131893137
v -0.204537612 0.677148617 -0.207392678
v -0.210841297 0.677148617 -0.201088994
v -0.210841297 0.677148617 -0.131893137
v -0.119303529 0.763788113 0.126847282
v -0.119303529 0.763788113 0.196043139
v -0.125627881 0.770091797 0.196043139
v -0.119303529 0.677148617 0.196043139
v -0.125627881 0.770091797 0.126847282
v -0.204537612 0.770091797 0.196043139
v -0.204537612 0.770091797 0.126847282
v -0.210841297 0.763788113 0.196043139
v -0.119303529 0.677148617 0.126847282
v -0.125627881 0.763788113 0.120543598
v -0.204537612 0.763788113 0.120543598
v -0.210841297 0.763788113 0.126847282
v -0.125627881 0.670824265 0.126847282
v -0.125627881 0.670824265 0.196043139
v -0.125627881 0.677148617 0.120543598
v -0.204537612 0.670824265 0.126847282
v -0.204537612 0.670824265 0.196043139
v -0.204537612 0.677148617 0.120543598
v -0.210841297 0.677148617 0.126847282
v -0.210841297 0.677148617 0.196043139
v 0.245483468 0.100640489 0.23487797
v 0.245483468 0.0111901702 0.234753963
v 0.239179783 0.0111901702 0.241057647
v 0.23930379 0.100640489 0.241057647
v -0.23033105 0.0111901702 0.241057647
v 0.245483468 0.100640489 -0.234880877
v 0.245483468 0.0111901702 -0.23475687
v -0.230455057 0.100640489 0.241057647
v -0.236634734 0.0111901702 0.234753963
v 0.23930379 0.100640489 -0.241060554
v 0.239179783 0.0111901702 -0.241060554
v -0.236634734 0.100578485 0.234815966
v -0.236634734 0.0111901702 -0.23475687
v -0.230393053 0.100578485 -0.241060554
v -0.23033105 0.0111901702 -0.241060554
v -0.236634734 0.100640489 -0.234880877
v 0.251849156 0.106840834 0.241057647
v 0.245483468 0.106840834 0.247485339
v -0.236634734 0.106840834 0.247485339
v 0.251911159 0.106840834 -0.241060554
v -0.243062426 0.106840834 0.241057647
v -0.243062426 0.106840834 -0.241060554
v 0.245483468 0.106840834 -0.247426243
v -0.236634734 0.106840834 -0.247488246
v 0.284710987 0.106840834 0.273754136
v 0.278179956 0.106840834 0.280285167
v -0.269331223 0.106840834 0.280285167
v 0.284710987 0.106840834 -0.273757043
v -0.275862254 0.106840834 0.273754136
v 0.278179956 0.106840834 -0.280288074
v -0.275862254 0.106840834 -0.273757043
v -0.269331223 0.106840834 -0.280288074
v -0.276234274 0.113020512 0.286836865
v 0.285207015 0.112875837 0.286836865
v -0.282413952 0.112875837 0.280781195
v 0.291262686 0.113020512 0.280657188
v -0.282413952 0.113020512 -0.280660095
v 0.291262686 0.112875837 -0.280784102
v -0.276358281 0.112875837 -0.286839772
v 0.285083008 0.113020512 -0.286839772
v -0.0533731877 0.959677696 0.0509343851
v 0.0551535272 0.959677696 0.0509343851
v 0.0551535272 0.953374012 0.0572380698
v 0.0551535272 0.959677696 -0.0575923298
v -0.0533731877 0.953374012 0.0572380698
v -0.0533731877 0.580671241 0.0572380698
v 0.0551535272 0.580671241 0.0572380698
v 0.0551535272 0.574367556 0.0509343851
v -0.0533731877 0.574367556 0.0509343851
v 0.0551535272 0.574367556 -0.0575923298
v -0.0596768723 0.580671241 0.0509343851
v -0.0596768723 0.953374012 0.0509343851
v -0.0533731877 0.959677696 -0.0575923298
v -0.0533731877 0.574367556 -0.0575923298
v 0.0551535272 0.580671241 -0.0638960144
v -0.0596768723 0.580671241 -0.0575923298
v -0.0533731877 0.953374012 -0.0638960144
v 0.0551535272 0.953374012 -0.0638960144
v -0.0596768723 0.953374012 -0.0575923298
v -0.0533731877 0.580671241 -0.0638960144
v 0.0614572118 0.953374012 -0.0575923298
v 0.0551535272 0.959677696 0.0509343851
v 0.0551535272 0.959677696 -0.0575923298
v 0.0551535272 0.953374012 -0.0638960144
v 0.0614572118 0.953374012 0.0509343851
v 0.0551535272 0.953374012 0.0572380698
v 0.0551535272 0.580671241 0.0572380698
v 0.0614572118 0.580671241 0.0509343851
v 0.0551535272 0.574367556 0.0509343851
v 0.0551535272 0.574367556 -0.0575923298
v 0.0614572118 0.580671241 -0.0575923298
v 0.0551535272 0.580671241 -0.0638960144
vt 0.413478867 0.0839157846
vt 0.42681379 0.0839157846
vt 0.413478867 0.0839157846
vt 0.42681379 0.0839157846
vt 0.427766284 0.0839157846
vt 0.427766284 0.0982032014
vt 0.427766284 0.0982032014
vt 0.413478867 0.0982032014
vt 0.427766284 0.0982032014
vt 0.413478867 0.0991556959
vt 0.269652204 0.128683024
vt 0.259174765 0.114395607
vt 0.242029865 0.126778035
vt 0.252507304 0.133445496
vt 0.242029865 0.12773053
vt 0.252507304 0.133445496
vt 0.269652204 0.129635519
vt 0.269652204 0.148685408
vt 0.252507304 0.133445496
vt 0.251554809 0.134397991
vt 0.242029865 0.129635519
vt 0.242029865 0.129635519
vt 0.254412293 0.14487543
vt 0.252507304 0.133445496
vt 0.254412293 0.145827924
vt 0.269652204 0.149637902
vt 0.262032248 0.162972825
vt 0.243934854 0.155352869
vt 0.254412293 0.14487543
vt 0.254412293 0.145827924
vt 0.243934854 0.154400375
vt 0.243934854 0.152495386
vt 0.251554809 0.134397991
vt 0.252507304 0.14487543
vt 0.252507304 0.14487543
vt 0.251554809 0.134397991
vt 0.252507304 0.14487543
vt 0.243934854 0.151542891
vt 0.24107737 0.147732913
vt 0.252507304 0.14487543
vt 0.24964982 0.143922935
vt 0.24964982 0.143922935
vt 0.24107737 0.147732913
vt 0.240124876 0.134397991
vt 0.24964982 0.143922935
vt 0.250602315 0.134397991
vt 0.247744832 0.13630298
vt 0.248697326 0.13630298
vt 0.248697326 0.13630298
vt 0.240124876 0.133445496
vt 0.690654755 0.0715333566
vt 0.689702261 0.0696283677
vt 0.691607249 0.0705808621
vt 0.689702261 0.0696283677
vt 0.689702261 0.0696283677
vt 0.689702261 0.0696283677
vt 0.715419611 0.0696283677
vt 0.714467116 0.0705808621
vt 0.713514622 0.0696283677
vt 0.715419611 0.0696283677
vt 0.716372105 0.0696283677
vt 0.716372105 0.0686758732
vt 0.715419611 0.0953457181
vt 0.713514622 0.0953457181
vt 0.714467116 0.0943932236
vt 0.715419611 0.0953457181
vt 0.689702261 0.0953457181
vt 0.690654755 0.0934407292
vt 0.691607249 0.0943932236
vt 0.690654755 0.0953457181
vt 0.689702261 0.0953457181
vt 0.689702261 0.0953457181
vt 0.690654755 0.0715333566
vt 0.714467116 0.0705808621
vt 0.715419611 0.0696283677
vt 0.689702261 0.0696283677
vt 0.716372105 0.0686758732
vt 0.689702261 0.0696283677
vt 0.688749766 0.0677233788
vt 0.687797272 0.0686758732
vt 0.689702261 0.0696283677
vt 0.7173246 0.0677233788
vt 0.716372105 0.0696283677
vt 0.687797272 0.0677233788
vt 0.7173246 0.0677233788
vt 0.7173246 0.0686758732
vt 0.7173246 0.0686758732
vt 0.715419611 0.0953457181
vt 0.715419611 0.0696283677
vt 0.715419611 0.0953457181
vt 0.713514622 0.0696283677
vt 0.713514622 0.0953457181
vt 0.715419611 0.0953457181
vt 0.715419611 0.0953457181
vt 0.7173246 0.097250707
vt 0.7173246 0.097250707
vt 0.718277094 0.0667708843
vt 0.686844777 0.0658183898
vt 0.719229589 0.0667708843
vt 0.689702261 0.0953457181
vt 0.716372105 0.097250707
vt 0.689702261 0.0953457181
vt 0.714467116 0.0943932236
vt 0.690654755 0.0934407292
vt 0.716372105 0.097250707
vt 0.688749766 0.097250707
vt 0.689702261 0.0953457181
vt 0.719229589 0.0982032014
vt 0.687797272 0.0982032014
vt 0.718277094 0.0991556959
vt 0.687797272 0.097250707
vt 0.687797272 0.097250707
vt 0.686844777 0.0991556959
vt 0.690654755 0.0953457181
vt 0.689702261 0.0696283677
vt 0.691607249 0.0943932236
vt 0.691607249 0.0705808621
vt 0.687797272 0.0686758732
vt 0.685892283 0.0982032014
vt 0.685892283 0.0667708843
vt 0.685892283 0.0991556959
vt 0.685892283 0.0667708843
vt 0.686844777 0.0658183898
vt 0.686844777 0.0991556959
vt 0.719229589 0.0658183898
vt 0.718277094 0.0991556959
vt 0.719229589 0.0667708843
vt 0.719229589 0.0991556959
vt 0.682082305 0.062008412
vt 0.682082305 0.102965674
vt 0.682082305 0.103918168
vt 0.682082305 0.062008412
vt 0.723039567 0.103918168
vt 0.723039567 0.102965674
vt 0.723039567 0.062008412
vt 0.723992061 0.062008412
vt 0.68112981 0.062008412
vt 0.68112981 0.103918168
vt 0.682082305 0.0610559175
vt 0.682082305 0.103918168
vt 0.723039567 0.0610559175
vt 0.723039567 0.103918168
vt 0.723992061 0.062008412
vt 0.723992061 0.102965674
vt 0.601120276 0.10868064
vt 0.601120276 0.109633135
vt 0.600167781 0.109633135
vt 0.601120276 0.109633135
vt 0.583022881 0.109633135
vt 0.583975376 0.109633135
vt 0.583975376 0.109633135
vt 0.583022881 0.10868064
vt 0.583022881 0.12773053
vt 0.583975376 0.125825541
vt 0.583975376 0.126778035
vt 0.583022881 0.126778035
vt 0.600167781 0.126778035
vt 0.601120276 0.12773053
vt 0.601120276 0.126778035
vt 0.600167781 0.126778035
vt 0.601120276 0.12773053
vt 0.600167781 0.126778035
vt 0.583975376 0.125825541
vt 0.583022881 0.12773053
vt 0.583022881 0.12773053
vt 0.601120276 0.12773053
vt 0.601120276 0.126778035
vt 0.583022881 0.12773053
vt 0.583022881 0.126778035
vt 0.601120276 0.12773053
vt 0.583022881 0.12773053
vt 0.601120276 0.12773053
vt 0.60207277 0.12773053
vt 0.601120276 0.109633135
vt 0.600167781 0.126778035
vt 0.600167781 0.109633135
vt 0.60207277 0.109633135
vt 0.601120276 0.10868064
vt 0.60207277 0.10868064
vt 0.60207277 0.128683024
vt 0.582070387 0.128683024
vt 0.60207277 0.12773053
vt 0.601120276 0.10868064
vt 0.601120276 0.10868064
vt 0.60207277 0.10868064
vt 0.583022881 0.10868064
vt 0.601120276 0.109633135
vt 0.583975376 0.109633135
vt 0.583022881 0.10868064
vt 0.583022881 0.109633135
vt 0.583022881 0.10868064
vt 0.60207277 0.107728146
vt 0.603977759 0.129635519
vt 0.603977759 0.106775652
vt 0.603977759 0.106775652
vt 0.603025265 0.130588013
vt 0.583022881 0.109633135
vt 0.582070387 0.10868064
vt 0.582070387 0.107728146
vt 0.580165398 0.105823157
vt 0.583975376 0.109633135
vt 0.583975376 0.126778035
vt 0.582070387 0.12773053
vt 0.582070387 0.10868064
vt 0.582070387 0.12773053
vt 0.580165398 0.106775652
vt 0.580165398 0.130588013
vt 0.580165398 0.129635519
vt 0.580165398 0.105823157
vt 0.580165398 0.105823157
vt 0.580165398 0.130588013
vt 0.580165398 0.130588013
vt 0.603977759 0.105823157
vt 0.603977759 0.130588013
vt 0.604930254 0.106775652
vt 0.603977759 0.130588013
vt 0.579212903 0.105823157
vt 0.579212903 0.130588013
vt 0.580165398 0.131540508
vt 0.580165398 0.105823157
vt 0.603977759 0.131540508
vt 0.604930254 0.130588013
vt 0.604930254 0.105823157
vt 0.604930254 0.105823157
vt 0.579212903 0.105823157
vt 0.579212903 0.130588013
vt 0.580165398 0.104870663
vt 0.580165398 0.131540508
vt 0.603977759 0.104870663
vt 0.603977759 0.131540508
vt 0.605882748 0.106775652
vt 0.604930254 0.130588013
vt 0.0829632901 0.00390625
vt 0.0867732679 0.00390625
vt 0.0829632901 0.00390625
vt 0.0829632901 0.00390625
vt 0.0867732679 0.00390625
vt 0.0867732679 0.00390625
vt 0.0867732679 0.00771622784
vt 0.0867732679 0.00771622784
vt 0.0867732679 0.0086687223
vt 0.0829632901 0.0086687223
vt 0.0829632901 0.00771622784
vt 0.0829632901 0.00771622784
vt 0.130588013 0.00390625
vt 0.133445496 0.00390625
vt 0.130588013 0.00390625
vt 0.129635519 0.00390625
vt 0.133445496 0.00390625
vt 0.134397991 0.00390625
vt 0.134397991 0.00771622784
vt 0.133445496 0.00771622784
vt 0.133445496 0.0086687223
vt 0.130588013 0.0086687223
vt 0.130588013 0.00771622784
vt 0.129635519 0.00771622784
vt 0.403953923 0.0753433344
vt 0.413478867 0.0762958289
vt 0.413478867 0.0753433344
vt 0.414431362 0.0753433344
vt 0.403953923 0.0753433344
vt 0.403953923 0.0753433344
vt 0.403001428 0.0724858511
vt 0.414431362 0.0724858511
vt 0.414431362 0.0724858511
vt 0.414431362 0.0724858511
vt 0.403953923 0.0724858511
vt 0.414431362 0.0715333566
vt 0.403953923 0.0715333566
vt 0.403001428 0.0724858511
vt 0.402048934 0.0705808621
vt 0.415383856 0.0705808621
vt 0.416336351 0.0705808621
vt 0.416336351 0.0705808621
vt 0.402048934 0.0705808621
vt 0.416336351 0.0705808621
vt 0.402048934 0.0705808621
vt 0.402048934 0.0705808621
vt 0.402048934 0.0524834674
vt 0.416336351 0.0524834674
vt 0.416336351 0.0524834674
vt 0.416336351 0.051530973
vt 0.402048934 0.0524834674
vt 0.402048934 0.051530973
vt 0.114395607 0.00390625
vt 0.118205585 0.00390625
vt 0.114395607 0.00390625
vt 0.114395607 0.00390625
vt 0.118205585 0.00390625
vt 0.118205585 0.00390625
vt 0.118205585 0.00771622784
vt 0.118205585 0.00771622784
vt 0.118205585 0.0086687223
vt 0.114395607 0.0086687223
vt 0.114395607 0.00771622784
vt 0.114395607 0.00771622784
vt 0.0991556959 0.00390625
vt 0.102013179 0.00390625
vt 0.0991556959 0.00390625
vt 0.0982032014 0.00390625
vt 0.102013179 0.00390625
vt 0.102965674 0.00390625
vt 0.102965674 0.00771622784
vt 0.102013179 0.00771622784
vt 0.102013179 0.0086687223
vt 0.0991556959 0.0086687223
vt 0.0991556959 0.00771622784
vt 0.0982032014 0.00771622784
vt 0.741136961 0.112490618
vt 0.742089456 0.132493002
vt 0.742089456 0.112490618
vt 0.741136961 0.111538124
vt 0.741136961 0.132493002
vt 0.741136961 0.133445496
vt 0.721134578 0.133445496
vt 0.721134578 0.132493002
vt 0.721134578 0.132493002
vt 0.721134578 0.112490618
vt 0.721134578 0.112490618
vt 0.721134578 0.111538124
vt 0.388714011 0.0115262057
vt 0.382999045 0.00390625
vt 0.38204655 0.00485874446
vt 0.421098823 0.00390625
vt 0.388714011 0.0115262057
vt 0.389666506 0.0372435561
vt 0.38204655 0.0429585228
vt 0.382999045 0.0439110173
vt 0.414431362 0.0105737112
vt 0.388714011 0.0115262057
vt 0.389666506 0.0372435561
vt 0.389666506 0.0372435561
vt 0.414431362 0.0105737112
vt 0.422051318 0.00485874446
vt 0.422051318 0.0429585228
vt 0.414431362 0.0105737112
vt 0.415383856 0.0362910616
vt 0.421098823 0.0439110173
vt 0.415383856 0.0362910616
vt 0.415383856 0.0362910616
vt 0.0648658954 0.0105737112
vt 0.0629609065 0.0115262057
vt 0.0639134009 0.0124787001
vt 0.0629609065 0.00485874446
vt 0.0658183898 0.0105737112
vt 0.0705808621 0.0124787001
vt 0.0686758732 0.00962121675
vt 0.0705808621 0.0115262057
vt 0.0648658954 0.00676373338
vt 0.0658183898 0.0105737112
vt 0.0686758732 0.00962121675
vt 0.0696283677 0.00962121675
vt 0.0648658954 0.00581123892
vt 0.0639134009 0.00390625
vt 0.0648658954 0.00676373338
vt 0.0686758732 0.00581123892
vt 0.0705808621 0.00390625
vt 0.0686758732 0.00581123892
vt 0.0686758732 0.00581123892
vt 0.0705808621 0.00485874446
vt 0.00581123892 0.0105737112
vt 0.00390625 0.0115262057
vt 0.00485874446 0.0124787001
vt 0.00390625 0.00485874446
vt 0.00676373338 0.0105737112
vt 0.0115262057 0.0124787001
vt 0.00962121675 0.00962121675
vt 0.0115262057 0.0115262057
vt 0.00581123892 0.00676373338
vt 0.00676373338 0.0105737112
vt 0.00962121675 0.00962121675
vt 0.0105737112 0.00962121675
vt 0.00581123892 0.00581123892
vt 0.00485874446 0.00390625
vt 0.00581123892 0.00676373338
vt 0.00962121675 0.00581123892
vt 0.0115262057 0.00390625
vt 0.00962121675 0.00581123892
vt 0.00962121675 0.00581123892
vt 0.0115262057 0.00485874446
vt 0.0258136226 0.0105737112
vt 0.0239086336 0.0115262057
vt 0.0239086336 0.0124787001
vt 0.0239086336 0.00485874446
vt 0.0258136226 0.0105737112
vt 0.0315285893 0.0124787001
vt 0.0296236004 0.00962121675
vt 0.0315285893 0.0115262057
vt 0.0248611281 0.00676373338
vt 0.0258136226 0.0105737112
vt 0.0296236004 0.00962121675
vt 0.0296236004 0.00962121675
vt 0.0258136226 0.00581123892
vt 0.0239086336 0.00390625
vt 0.0258136226 0.00676373338
vt 0.0286711059 0.00581123892
vt 0.0305760949 0.00390625
vt 0.0286711059 0.00581123892
vt 0.0296236004 0.00581123892
vt 0.0315285893 0.00485874446
vt 0.0458160062 0.0105737112
vt 0.0429585228 0.0115262057
vt 0.0439110173 0.0124787001
vt 0.0429585228 0.00485874446
vt 0.0458160062 0.0105737112
vt 0.0505784785 0.0124787001
vt 0.049625984 0.00962121675
vt 0.051530973 0.0115262057
vt 0.0448635117 0.00676373338
vt 0.0458160062 0.0105737112
vt 0.049625984 0.00962121675
vt 0.049625984 0.00962121675
vt 0.0458160062 0.00581123892
vt 0.0439110173 0.00390625
vt 0.0458160062 0.00676373338
vt 0.0486734896 0.00581123892
vt 0.0505784785 0.00390625
vt 0.0486734896 0.00581123892
vt 0.0486734896 0.00581123892
vt 0.051530973 0.00485874446
vt 0.0305760949 0.10868064
vt 0.0277186115 0.105823157
vt 0.0277186115 0.105823157
vt 0.0296236004 0.10868064
vt 0.00962121675 0.104870663
vt 0.0305760949 0.084868279
vt 0.026766117 0.0877257624
vt 0.00676373338 0.10868064
vt 0.00962121675 0.104870663
vt 0.0296236004 0.084868279
vt 0.0277186115 0.0877257624
vt 0.00676373338 0.107728146
vt 0.00962121675 0.0877257624
vt 0.00676373338 0.0839157846
vt 0.00962121675 0.0877257624
vt 0.00676373338 0.084868279
vt 0.0305760949 0.10868064
vt 0.0305760949 0.109633135
vt 0.00676373338 0.10868064
vt 0.0305760949 0.084868279
vt 0.00581123892 0.10868064
vt 0.00581123892 0.084868279
vt 0.0305760949 0.0839157846
vt 0.00676373338 0.0839157846
vt 0.0324810838 0.110585629
vt 0.0324810838 0.111538124
vt 0.00485874446 0.110585629
vt 0.0324810838 0.0829632901
vt 0.00390625 0.109633135
vt 0.0324810838 0.0829632901
vt 0.00390625 0.0829632901
vt 0.00485874446 0.0820107956
vt 0.00390625 0.110585629
vt 0.0324810838 0.111538124
vt 0.00390625 0.110585629
vt 0.0324810838 0.111538124
vt 0.00390625 0.0820107956
vt 0.0334335782 0.0829632901
vt 0.00390625 0.0820107956
vt 0.0324810838 0.0820107956
vt 0.14487543 0.220122492
vt 0.142970441 0.216312514
vt 0.142017947 0.216312514
vt 0.15344788 0.216312514
vt 0.14487543 0.221074987
vt 0.145827924 0.235362404
vt 0.142017947 0.240124876
vt 0.142970441 0.24107737
vt 0.145827924 0.236314898
vt 0.15344788 0.240124876
vt 0.145827924 0.236314898
vt 0.14487543 0.221074987
vt 0.149637902 0.220122492
vt 0.150590397 0.237267392
vt 0.154400375 0.240124876
vt 0.150590397 0.236314898
vt 0.150590397 0.220122492
vt 0.154400375 0.216312514
vt 0.149637902 0.220122492
vt 0.151542891 0.236314898
vt 0.973545609 0.00390625
vt 0.978308082 0.00390625
vt 0.973545609 0.00390625
vt 0.972593115 0.00390625
vt 0.978308082 0.00390625
vt 0.978308082 0.00390625
vt 0.978308082 0.0200986558
vt 0.978308082 0.0200986558
vt 0.978308082 0.0210511503
vt 0.973545609 0.0210511503
vt 0.973545609 0.0200986558
vt 0.972593115 0.0200986558
g item_25item_25_mobile_0
f 3/3/3 2/2/2 1/1/1
f 2/2/2 4/4/4 1/1/1
f 2/2/2 5/5/5 4/4/4
f 5/5/5 6/6/6 4/4/4
f 4/4/4 7/7/7 1/1/1
f 6/6/6 7/7/7 4/4/4
f 7/7/7 8/8/8 1/1/1
f 6/6/6 9/9/9 7/7/7
f 8/8/8 7/7/7 10/10/10
f 7/7/7 9/9/9 10/10/10
f 13/13/13 12/12/12 11/11/11
f 14/14/14 13/13/13 11/11/11
f 13/13/13 14/14/14 15/15/15
f 14/14/14 11/11/11 16/16/16
f 11/11/11 17/17/17 16/16/16
f 16/16/16 17/17/17 18/18/18
f 14/14/14 19/19/19 15/15/15
f 14/14/14 16/16/16 19/19/19
f 15/15/15 19/19/19 20/20/20
f 21/21/21 15/15/15 20/20/20
f 22/22/22 21/21/21 20/20/20
f 23/23/23 16/16/16 18/18/18
f 16/16/16 24/24/24 19/19/19
f 24/24/24 16/16/16 23/23/23
f 23/23/23 18/18/18 25/25/25
f 18/18/18 26/26/26 25/25/25
f 25/25/25 26/26/26 27/27/27
f 28/28/28 25/25/25 27/27/27
f 23/23/23 25/25/25 29/29/29
f 29/29/29 24/24/24 23/23/23
f 30/30/30 25/25/25 28/28/28
f 25/25/25 30/30/30 29/29/29
f 31/31/31 30/30/30 28/28/28
f 30/30/30 31/31/31 32/32/32
f 24/24/24 33/33/33 19/19/19
f 33/33/33 20/20/20 19/19/19
f 30/30/30 34/34/34 29/29/29
f 34/34/34 30/30/30 32/32/32
f 24/24/24 29/29/29 35/35/35
f 33/33/33 24/24/24 35/35/35
f 34/34/34 35/35/35 29/29/29
f 33/33/33 36/36/36 20/20/20
f 33/33/33 35/35/35 36/36/36
f 34/34/34 32/32/32 37/37/37
f 32/32/32 38/38/38 37/37/37
f 38/38/38 39/39/39 37/37/37
f 40/40/40 35/35/35 34/34/34
f 37/37/37 40/40/40 34/34/34
f 35/35/35 40/40/40 36/36/36
f 39/39/39 41/41/41 37/37/37
f 37/37/37 41/41/41 40/40/40
f 41/41/41 39/39/39 42/42/42
f 39/39/39 43/43/43 42/42/42
f 43/43/43 44/44/44 42/42/42
f 41/41/41 45/45/45 40/40/40
f 45/45/45 41/41/41 42/42/42
f 40/40/40 45/45/45 36/36/36
f 36/36/36 46/46/46 20/20/20
f 46/46/46 22/22/22 20/20/20
f 44/44/44 47/47/47 42/42/42
f 42/42/42 47/47/47 45/45/45
f 45/45/45 48/48/48 36/36/36
f 36/36/36 48/48/48 46/46/46
f 47/47/47 48/48/48 45/45/45
f 46/46/46 49/49/49 22/22/22
f 48/48/48 49/49/49 46/46/46
f 48/48/48 47/47/47 49/49/49
f 47/47/47 44/44/44 49/49/49
f 49/49/49 50/50/50 22/22/22
f 44/44/44 50/50/50 49/49/49
f 53/53/53 52/52/52 51/51/51
f 52/52/52 54/54/54 51/51/51
f 54/54/54 52/52/52 55/55/55
f 52/52/52 56/56/56 55/55/55
f 59/59/59 58/58/58 57/57/57
f 60/60/60 59/59/59 57/57/57
f 60/60/60 57/57/57 61/61/61
f 57/57/57 62/62/62 61/61/61
f 65/65/65 64/64/64 63/63/63
f 66/66/66 65/65/65 63/63/63
f 69/69/69 68/68/68 67/67/67
f 70/70/70 69/69/69 67/67/67
f 70/70/70 67/67/67 71/71/71
f 67/67/67 72/72/72 71/71/71
f 75/75/75 74/74/74 73/73/73
f 76/76/76 75/75/75 73/73/73
f 77/77/77 75/75/75 76/76/76
f 78/78/78 77/77/77 76/76/76
f 77/77/77 78/78/78 79/79/79
f 80/80/80 79/79/79 78/78/78
f 81/81/81 80/80/80 78/78/78
f 82/82/82 77/77/77 79/79/79
f 77/77/77 82/82/82 83/83/83
f 84/84/84 79/79/79 80/80/80
f 85/85/85 82/82/82 79/79/79
f 84/84/84 85/85/85 79/79/79
f 82/82/82 86/86/86 83/83/83
f 82/82/82 85/85/85 87/87/87
f 86/86/86 82/82/82 87/87/87
f 88/88/88 83/83/83 86/86/86
f 83/83/83 88/88/88 89/89/89
f 88/88/88 90/90/90 89/89/89
f 89/89/89 90/90/90 91/91/91
f 90/90/90 92/92/92 91/91/91
f 90/90/90 88/88/88 93/93/93
f 94/94/94 90/90/90 93/93/93
f 95/95/95 88/88/88 86/86/86
f 88/88/88 95/95/95 93/93/93
f 86/86/86 87/87/87 96/96/96
f 95/95/95 86/86/86 96/96/96
f 87/87/87 85/85/85 97/97/97
f 84/84/84 98/98/98 85/85/85
f 98/98/98 97/97/97 85/85/85
f 87/87/87 99/99/99 96/96/96
f 99/99/99 87/87/87 97/97/97
f 93/93/93 100/100/100 94/94/94
f 95/95/95 101/101/101 93/93/93
f 100/100/100 93/93/93 101/101/101
f 100/100/100 102/102/102 94/94/94
f 94/94/94 102/102/102 103/103/103
f 102/102/102 104/104/104 103/103/103
f 96/96/96 105/105/105 95/95/95
f 105/105/105 101/101/101 95/95/95
f 106/106/106 100/100/100 101/101/101
f 100/100/100 106/106/106 107/107/107
f 99/99/99 108/108/108 96/96/96
f 96/96/96 108/108/108 105/105/105
f 101/101/101 105/105/105 109/109/109
f 106/106/106 101/101/101 109/109/109
f 108/108/108 110/110/110 105/105/105
f 105/105/105 110/110/110 109/109/109
f 106/106/106 111/111/111 107/107/107
f 109/109/109 112/112/112 106/106/106
f 112/112/112 111/111/111 106/106/106
f 110/110/110 113/113/113 109/109/109
f 109/109/109 113/113/113 112/112/112
f 81/81/81 107/107/107 111/111/111
f 114/114/114 107/107/107 81/81/81
f 115/115/115 114/114/114 81/81/81
f 114/114/114 115/115/115 116/116/116
f 115/115/115 117/117/117 116/116/116
f 80/80/80 81/81/81 111/111/111
f 118/118/118 80/80/80 111/111/111
f 112/112/112 118/118/118 111/111/111
f 118/118/118 84/84/84 80/80/80
f 112/112/112 119/119/119 118/118/118
f 113/113/113 119/119/119 112/112/112
f 118/118/118 120/120/120 84/84/84
f 119/119/119 120/120/120 118/118/118
f 120/120/120 98/98/98 84/84/84
f 119/119/119 113/113/113 121/121/121
f 122/122/122 120/120/120 119/119/119
f 121/121/121 122/122/122 119/119/119
f 98/98/98 120/120/120 123/123/123
f 120/120/120 122/122/122 123/123/123
f 113/113/113 124/124/124 121/121/121
f 124/124/124 113/113/113 110/110/110
f 123/123/123 125/125/125 98/98/98
f 125/125/125 97/97/97 98/98/98
f 126/126/126 124/124/124 110/110/110
f 110/110/110 108/108/108 126/126/126
f 125/125/125 127/127/127 97/97/97
f 127/127/127 99/99/99 97/97/97
f 108/108/108 99/99/99 128/128/128
f 108/108/108 128/128/128 126/126/126
f 99/99/99 127/127/127 128/128/128
f 123/123/123 122/122/122 129/129/129
f 121/121/121 130/130/130 122/122/122
f 130/130/130 129/129/129 122/122/122
f 121/121/121 124/124/124 131/131/131
f 130/130/130 121/121/121 131/131/131
f 123/123/123 132/132/132 125/125/125
f 132/132/132 123/123/123 129/129/129
f 126/126/126 133/133/133 124/124/124
f 133/133/133 131/131/131 124/124/124
f 126/126/126 128/128/128 134/134/134
f 133/133/133 126/126/126 134/134/134
f 127/127/127 125/125/125 135/135/135
f 132/132/132 135/135/135 125/125/125
f 127/127/127 136/136/136 128/128/128
f 136/136/136 134/134/134 128/128/128
f 136/136/136 127/127/127 135/135/135
f 129/129/129 130/130/130 137/137/137
f 130/130/130 138/138/138 137/137/137
f 138/138/138 130/130/130 131/131/131
f 137/137/137 139/139/139 129/129/129
f 139/139/139 132/132/132 129/129/129
f 140/140/140 138/138/138 131/131/131
f 140/140/140 131/131/131 133/133/133
f 139/139/139 141/141/141 132/132/132
f 141/141/141 135/135/135 132/132/132
f 142/142/142 140/140/140 133/133/133
f 142/142/142 133/133/133 134/134/134
f 141/141/141 143/143/143 135/135/135
f 143/143/143 136/136/136 135/135/135
f 144/144/144 142/142/142 134/134/134
f 144/144/144 134/134/134 136/136/136
f 143/143/143 144/144/144 136/136/136
f 147/147/147 146/146/146 145/145/145
f 148/148/148 147/147/147 145/145/145
f 151/151/151 150/150/150 149/149/149
f 152/152/152 151/151/151 149/149/149
f 155/155/155 154/154/154 153/153/153
f 156/156/156 155/155/155 153/153/153
f 159/159/159 158/158/158 157/157/157
f 160/160/160 159/159/159 157/157/157
f 163/163/163 162/162/162 161/161/161
f 164/164/164 163/163/163 161/161/161
f 164/164/164 161/161/161 165/165/165
f 161/161/161 166/166/166 165/165/165
f 161/161/161 167/167/167 166/166/166
f 165/165/165 168/168/168 164/164/164
f 168/168/168 169/169/169 164/164/164
f 165/165/165 166/166/166 170/170/170
f 168/168/168 165/165/165 171/171/171
f 171/171/171 165/165/165 170/170/170
f 167/167/167 172/172/172 166/166/166
f 173/173/173 170/170/170 166/166/166
f 172/172/172 173/173/173 166/166/166
f 172/172/172 167/167/167 174/174/174
f 167/167/167 175/175/175 174/174/174
f 175/175/175 176/176/176 174/174/174
f 177/177/177 172/172/172 174/174/174
f 177/177/177 174/174/174 178/178/178
f 173/173/173 172/172/172 179/179/179
f 172/172/172 177/177/177 179/179/179
f 180/180/180 170/170/170 173/173/173
f 171/171/171 170/170/170 181/181/181
f 170/170/170 180/180/180 181/181/181
f 182/182/182 173/173/173 179/179/179
f 182/182/182 180/180/180 173/173/173
f 183/183/183 177/177/177 178/178/178
f 179/179/179 177/177/177 184/184/184
f 177/177/177 183/183/183 184/184/184
f 185/185/185 182/182/182 179/179/179
f 179/179/179 184/184/184 185/185/185
f 178/178/178 186/186/186 183/183/183
f 178/178/178 187/187/187 186/186/186
f 187/187/187 188/188/188 186/186/186
f 186/186/186 189/189/189 183/183/183
f 189/189/189 186/186/186 190/190/190
f 184/184/184 183/183/183 191/191/191
f 183/183/183 189/189/189 191/191/191
f 184/184/184 192/192/192 185/185/185
f 184/184/184 191/191/191 192/192/192
f 180/180/180 182/182/182 193/193/193
f 185/185/185 194/194/194 182/182/182
f 194/194/194 193/193/193 182/182/182
f 192/192/192 195/195/195 185/185/185
f 195/195/195 194/194/194 185/185/185
f 196/196/196 180/180/180 193/193/193
f 180/180/180 196/196/196 181/181/181
f 197/197/197 189/189/189 190/190/190
f 191/191/191 189/189/189 198/198/198
f 189/189/189 197/197/197 198/198/198
f 191/191/191 199/199/199 192/192/192
f 191/191/191 198/198/198 199/199/199
f 200/200/200 195/195/195 192/192/192
f 199/199/199 200/200/200 192/192/192
f 190/190/190 169/169/169 197/197/197
f 190/190/190 201/201/201 169/169/169
f 201/201/201 202/202/202 169/169/169
f 169/169/169 168/168/168 197/197/197
f 197/197/197 168/168/168 203/203/203
f 198/198/198 197/197/197 203/203/203
f 203/203/203 168/168/168 171/171/171
f 198/198/198 204/204/204 199/199/199
f 198/198/198 203/203/203 204/204/204
f 203/203/203 171/171/171 205/205/205
f 203/203/203 205/205/205 204/204/204
f 171/171/171 181/181/181 205/205/205
f 204/204/204 206/206/206 199/199/199
f 206/206/206 200/200/200 199/199/199
f 181/181/181 207/207/207 205/205/205
f 196/196/196 207/207/207 181/181/181
f 205/205/205 208/208/208 204/204/204
f 208/208/208 206/206/206 204/204/204
f 207/207/207 208/208/208 205/205/205
f 209/209/209 200/200/200 206/206/206
f 206/206/206 208/208/208 210/210/210
f 210/210/210 209/209/209 206/206/206
f 211/211/211 208/208/208 207/207/207
f 208/208/208 211/211/211 210/210/210
f 207/207/207 196/196/196 212/212/212
f 212/212/212 211/211/211 207/207/207
f 200/200/200 209/209/209 213/213/213
f 195/195/195 200/200/200 213/213/213
f 196/196/196 214/214/214 212/212/212
f 214/214/214 196/196/196 193/193/193
f 213/213/213 215/215/215 195/195/195
f 215/215/215 194/194/194 195/195/195
f 216/216/216 193/193/193 194/194/194
f 216/216/216 214/214/214 193/193/193
f 215/215/215 216/216/216 194/194/194
f 209/209/209 210/210/210 217/217/217
f 210/210/210 211/211/211 218/218/218
f 217/217/217 210/210/210 218/218/218
f 211/211/211 212/212/212 219/219/219
f 218/218/218 211/211/211 219/219/219
f 213/213/213 209/209/209 220/220/220
f 220/220/220 209/209/209 217/217/217
f 212/212/212 214/214/214 221/221/221
f 219/219/219 212/212/212 221/221/221
f 214/214/214 216/216/216 222/222/222
f 221/221/221 214/214/214 222/222/222
f 215/215/215 213/213/213 223/223/223
f 223/223/223 213/213/213 220/220/220
f 216/216/216 215/215/215 224/224/224
f 222/222/222 216/216/216 224/224/224
f 224/224/224 215/215/215 223/223/223
f 217/217/217 218/218/218 225/225/225
f 218/218/218 226/226/226 225/225/225
f 218/218/218 219/219/219 226/226/226
f 217/217/217 225/225/225 227/227/227
f 220/220/220 217/217/217 227/227/227
f 219/219/219 228/228/228 226/226/226
f 219/219/219 221/221/221 228/228/228
f 220/220/220 227/227/227 229/229/229
f 223/223/223 220/220/220 229/229/229
f 221/221/221 230/230/230 228/228/228
f 221/221/221 222/222/222 230/230/230
f 223/223/223 229/229/229 231/231/231
f 224/224/224 223/223/223 231/231/231
f 222/222/222 232/232/232 230/230/230
f 231/231/231 232/232/232 224/224/224
f 232/232/232 222/222/222 224/224/224
f 235/235/235 234/234/234 233/233/233
f 233/233/233 236/236/236 235/235/235
f 234/234/234 237/237/237 233/233/233
f 237/237/237 234/234/234 238/238/238
f 237/237/237 238/238/238 239/239/239
f 240/240/240 237/237/237 239/239/239
f 233/233/233 237/237/237 240/240/240
f 241/241/241 240/240/240 239/239/239
f 240/240/240 241/241/241 242/242/242
f 236/236/236 233/233/233 243/243/243
f 243/243/243 233/233/233 240/240/240
f 243/243/243 240/240/240 242/242/242
f 244/244/244 236/236/236 243/243/243
f 242/242/242 244/244/244 243/243/243
f 247/247/247 246/246/246 245/245/245
f 245/245/245 248/248/248 247/247/247
f 246/246/246 249/249/249 245/245/245
f 249/249/249 246/246/246 250/250/250
f 249/249/249 250/250/250 251/251/251
f 252/252/252 249/249/249 251/251/251
f 245/245/245 249/249/249 252/252/252
f 253/253/253 252/252/252 251/251/251
f 252/252/252 253/253/253 254/254/254
f 248/248/248 245/245/245 255/255/255
f 255/255/255 245/245/245 252/252/252
f 255/255/255 252/252/252 254/254/254
f 256/256/256 248/248/248 255/255/255
f 254/254/254 256/256/256 255/255/255
f 259/259/259 258/258/258 257/257/257
f 258/258/258 259/259/259 260/260/260
f 261/261/261 259/259/259 257/257/257
f 257/257/257 262/262/262 261/261/261
f 261/261/261 262/262/262 263/263/263
f 260/260/260 259/259/259 264/264/264
f 265/265/265 260/260/260 264/264/264
f 266/266/266 265/265/265 264/264/264
f 259/259/259 261/261/261 267/267/267
f 267/267/267 261/261/261 263/263/263
f 264/264/264 259/259/259 267/267/267
f 268/268/268 266/266/266 264/264/264
f 264/264/264 267/267/267 268/268/268
f 269/269/269 267/267/267 263/263/263
f 267/267/267 269/269/269 268/268/268
f 270/270/270 269/269/269 263/263/263
f 269/269/269 270/270/270 271/271/271
f 266/266/266 268/268/268 272/272/272
f 273/273/273 266/266/266 272/272/272
f 274/274/274 273/273/273 272/272/272
f 269/269/269 275/275/275 268/268/268
f 275/275/275 269/269/269 271/271/271
f 275/275/275 272/272/272 268/268/268
f 276/276/276 274/274/274 272/272/272
f 272/272/272 275/275/275 276/276/276
f 277/277/277 275/275/275 271/271/271
f 275/275/275 277/277/277 276/276/276
f 278/278/278 277/277/277 271/271/271
f 278/278/278 279/279/279 277/277/277
f 274/274/274 276/276/276 280/280/280
f 276/276/276 277/277/277 280/280/280
f 281/281/281 274/274/274 280/280/280
f 280/280/280 282/282/282 281/281/281
f 279/279/279 283/283/283 277/277/277
f 277/277/277 283/283/283 280/280/280
f 280/280/280 283/283/283 282/282/282
f 283/283/283 279/279/279 284/284/284
f 283/283/283 284/284/284 282/282/282
f 287/287/287 286/286/286 285/285/285
f 285/285/285 288/288/288 287/287/287
f 286/286/286 289/289/289 285/285/285
f 289/289/289 286/286/286 290/290/290
f 289/289/289 290/290/290 291/291/291
f 292/292/292 289/289/289 291/291/291
f 285/285/285 289/289/289 292/292/292
f 293/293/293 292/292/292 291/291/291
f 292/292/292 293/293/293 294/294/294
f 288/288/288 285/285/285 295/295/295
f 295/295/295 285/285/285 292/292/292
f 295/295/295 292/292/292 294/294/294
f 296/296/296 288/288/288 295/295/295
f 294/294/294 296/296/296 295/295/295
f 299/299/299 298/298/298 297/297/297
f 297/297/297 300/300/300 299/299/299
f 298/298/298 301/301/301 297/297/297
f 301/301/301 298/298/298 302/302/302
f 301/301/301 302/302/302 303/303/303
f 304/304/304 301/301/301 303/303/303
f 297/297/297 301/301/301 304/304/304
f 305/305/305 304/304/304 303/303/303
f 304/304/304 305/305/305 306/306/306
f 300/300/300 297/297/297 307/307/307
f 307/307/307 297/297/297 304/304/304
f 307/307/307 304/304/304 306/306/306
f 308/308/308 300/300/300 307/307/307
f 306/306/306 308/308/308 307/307/307
f 311/311/311 310/310/310 309/309/309
f 309/309/309 312/312/312 311/311/311
f 310/310/310 313/313/313 309/309/309
f 313/313/313 310/310/310 314/314/314
f 313/313/313 314/314/314 315/315/315
f 316/316/316 313/313/313 315/315/315
f 313/313/313 316/316/316 309/309/309
f 317/317/317 316/316/316 315/315/315
f 316/316/316 317/317/317 318/318/318
f 312/312/312 309/309/309 319/319/319
f 316/316/316 319/319/319 309/309/309
f 319/319/319 316/316/316 318/318/318
f 320/320/320 312/312/312 319/319/319
f 318/318/318 320/320/320 319/319/319
f 323/323/323 322/322/322 321/321/321
f 321/321/321 322/322/322 324/324/324
f 325/325/325 323/323/323 321/321/321
f 325/325/325 326/326/326 323/323/323
f 326/326/326 327/327/327 323/323/323
f 328/328/328 327/327/327 326/326/326
f 329/329/329 321/321/321 324/324/324
f 321/321/321 330/330/330 325/325/325
f 330/330/330 321/321/321 329/329/329
f 326/326/326 325/325/325 331/331/331
f 325/325/325 330/330/330 331/331/331
f 332/332/332 328/328/328 326/326/326
f 332/332/332 326/326/326 331/331/331
f 329/329/329 324/324/324 333/333/333
f 324/324/324 334/334/334 333/333/333
f 333/333/333 334/334/334 335/335/335
f 336/336/336 330/330/330 329/329/329
f 331/331/331 330/330/330 336/336/336
f 333/333/333 336/336/336 329/329/329
f 332/332/332 337/337/337 328/328/328
f 337/337/337 338/338/338 328/328/328
f 335/335/335 338/338/338 337/337/337
f 331/331/331 339/339/339 332/332/332
f 339/339/339 331/331/331 336/336/336
f 339/339/339 337/337/337 332/332/332
f 336/336/336 333/333/333 340/340/340
f 340/340/340 333/333/333 335/335/335
f 340/340/340 335/335/335 337/337/337
f 339/339/339 336/336/336 340/340/340
f 337/337/337 339/339/339 340/340/340
f 343/343/343 342/342/342 341/341/341
f 342/342/342 344/344/344 341/341/341
f 345/345/345 343/343/343 341/341/341
f 346/346/346 343/343/343 345/345/345
f 347/347/347 346/346/346 345/345/345
f 348/348/348 346/346/346 347/347/347
f 344/344/344 349/349/349 341/341/341
f 350/350/350 345/345/345 341/341/341
f 350/350/350 341/341/341 349/349/349
f 347/347/347 345/345/345 351/351/351
f 345/345/345 350/350/350 351/351/351
f 352/352/352 348/348/348 347/347/347
f 351/351/351 352/352/352 347/347/347
f 349/349/349 344/344/344 353/353/353
f 344/344/344 354/354/354 353/353/353
f 355/355/355 350/350/350 349/349/349
f 351/351/351 350/350/350 355/355/355
f 355/355/355 349/349/349 353/353/353
f 356/356/356 353/353/353 354/354/354
f 353/353/353 356/356/356 355/355/355
f 357/357/357 356/356/356 354/354/354
f 358/358/358 351/351/351 355/355/355
f 352/352/352 351/351/351 358/358/358
f 356/356/356 358/358/358 355/355/355
f 352/352/352 359/359/359 348/348/348
f 359/359/359 352/352/352 358/358/358
f 358/358/358 356/356/356 359/359/359
f 356/356/356 357/357/357 359/359/359
f 359/359/359 360/360/360 348/348/348
f 357/357/357 360/360/360 359/359/359
f 363/363/363 362/362/362 361/361/361
f 362/362/362 364/364/364 361/361/361
f 365/365/365 363/363/363 361/361/361
f 366/366/366 363/363/363 365/365/365
f 367/367/367 366/366/366 365/365/365
f 368/368/368 366/366/366 367/367/367
f 364/364/364 369/369/369 361/361/361
f 370/370/370 365/365/365 361/361/361
f 370/370/370 361/361/361 369/369/369
f 367/367/367 365/365/365 371/371/371
f 365/365/365 370/370/370 371/371/371
f 372/372/372 368/368/368 367/367/367
f 371/371/371 372/372/372 367/367/367
f 369/369/369 364/364/364 373/373/373
f 364/364/364 374/374/374 373/373/373
f 375/375/375 370/370/370 369/369/369
f 371/371/371 370/370/370 375/375/375
f 375/375/375 369/369/369 373/373/373
f 376/376/376 373/373/373 374/374/374
f 373/373/373 376/376/376 375/375/375
f 377/377/377 376/376/376 374/374/374
f 378/378/378 371/371/371 375/375/375
f 372/372/372 371/371/371 378/378/378
f 376/376/376 378/378/378 375/375/375
f 372/372/372 379/379/379 368/368/368
f 379/379/379 372/372/372 378/378/378
f 378/378/378 376/376/376 379/379/379
f 376/376/376 377/377/377 379/379/379
f 379/379/379 380/380/380 368/368/368
f 377/377/377 380/380/380 379/379/379
f 383/383/383 382/382/382 381/381/381
f 382/382/382 384/384/384 381/381/381
f 385/385/385 383/383/383 381/381/381
f 386/386/386 383/383/383 385/385/385
f 387/387/387 386/386/386 385/385/385
f 388/388/388 386/386/386 387/387/387
f 384/384/384 389/389/389 381/381/381
f 390/390/390 385/385/385 381/381/381
f 390/390/390 381/381/381 389/389/389
f 387/387/387 385/385/385 391/391/391
f 385/385/385 390/390/390 391/391/391
f 392/392/392 388/388/388 387/387/387
f 391/391/391 392/392/392 387/387/387
f 389/389/389 384/384/384 393/393/393
f 384/384/384 394/394/394 393/393/393
f 395/395/395 390/390/390 389/389/389
f 391/391/391 390/390/390 395/395/395
f 395/395/395 389/389/389 393/393/393
f 396/396/396 393/393/393 394/394/394
f 393/393/393 396/396/396 395/395/395
f 397/397/397 396/396/396 394/394/394
f 398/398/398 391/391/391 395/395/395
f 392/392/392 391/391/391 398/398/398
f 396/396/396 398/398/398 395/395/395
f 392/392/392 399/399/399 388/388/388
f 399/399/399 392/392/392 398/398/398
f 398/398/398 396/396/396 399/399/399
f 396/396/396 397/397/397 399/399/399
f 399/399/399 400/400/400 388/388/388
f 397/397/397 400/400/400 399/399/399
f 403/403/403 402/402/402 401/401/401
f 402/402/402 404/404/404 401/401/401
f 405/405/405 403/403/403 401/401/401
f 406/406/406 403/403/403 405/405/405
f 407/407/407 406/406/406 405/405/405
f 408/408/408 406/406/406 407/407/407
f 404/404/404 409/409/409 401/401/401
f 410/410/410 405/405/405 401/401/401
f 410/410/410 401/401/401 409/409/409
f 407/407/407 405/405/405 411/411/411
f 405/405/405 410/410/410 411/411/411
f 412/412/412 408/408/408 407/407/407
f 411/411/411 412/412/412 407/407/407
f 409/409/409 404/404/404 413/413/413
f 404/404/404 414/414/414 413/413/413
f 415/415/415 410/410/410 409/409/409
f 411/411/411 410/410/410 415/415/415
f 415/415/415 409/409/409 413/413/413
f 416/416/416 413/413/413 414/414/414
f 413/413/413 416/416/416 415/415/415
f 417/417/417 416/416/416 414/414/414
f 418/418/418 411/411/411 415/415/415
f 412/412/412 411/411/411 418/418/418
f 416/416/416 418/418/418 415/415/415
f 412/412/412 419/419/419 408/408/408
f 419/419/419 412/412/412 418/418/418
f 418/418/418 416/416/416 419/419/419
f 416/416/416 417/417/417 419/419/419
f 419/419/419 420/420/420 408/408/408
f 417/417/417 420/420/420 419/419/419
f 423/423/423 422/422/422 421/421/421
f 424/424/424 423/423/423 421/421/421
f 425/425/425 423/423/423 424/424/424
f 421/421/421 422/422/422 426/426/426
f 422/422/422 427/427/427 426/426/426
f 428/428/428 425/425/425 424/424/424
f 429/429/429 425/425/425 428/428/428
f 426/426/426 427/427/427 430/430/430
f 427/427/427 431/431/431 430/430/430
f 432/432/432 429/429/429 428/428/428
f 433/433/433 429/429/429 432/432/432
f 430/430/430 431/431/431 434/434/434
f 431/431/431 435/435/435 434/434/434
f 435/435/435 433/433/433 436/436/436
f 436/436/436 433/433/433 432/432/432
f 434/434/434 435/435/435 436/436/436
f 437/437/437 421/421/421 426/426/426
f 438/438/438 424/424/424 421/421/421
f 437/437/437 438/438/438 421/421/421
f 428/428/428 424/424/424 439/439/439
f 424/424/424 438/438/438 439/439/439
f 440/440/440 426/426/426 430/430/430
f 440/440/440 437/437/437 426/426/426
f 432/432/432 428/428/428 441/441/441
f 428/428/428 439/439/439 441/441/441
f 436/436/436 432/432/432 442/442/442
f 432/432/432 441/441/441 442/442/442
f 443/443/443 430/430/430 434/434/434
f 443/443/443 440/440/440 430/430/430
f 434/434/434 436/436/436 444/444/444
f 436/436/436 442/442/442 444/444/444
f 444/444/444 443/443/443 434/434/434
f 438/438/438 437/437/437 445/445/445
f 438/438/438 446/446/446 439/439/439
f 446/446/446 438/438/438 445/445/445
f 441/441/441 439/439/439 447/447/447
f 446/446/446 447/447/447 439/439/439
f 440/440/440 448/448/448 437/437/437
f 448/448/448 445/445/445 437/437/437
f 441/441/441 449/449/449 442/442/442
f 449/449/449 441/441/441 447/447/447
f 440/440/440 443/443/443 450/450/450
f 448/448/448 440/440/440 450/450/450
f 444/444/444 442/442/442 451/451/451
f 449/449/449 451/451/451 442/442/442
f 444/444/444 452/452/452 443/443/443
f 452/452/452 450/450/450 443/443/443
f 452/452/452 444/444/444 451/451/451
f 453/453/453 447/447/447 446/446/446
f 454/454/454 453/453/453 446/446/446
f 454/454/454 446/446/446 445/445/445
f 453/453/453 455/455/455 447/447/447
f 455/455/455 449/449/449 447/447/447
f 456/456/456 454/454/454 445/445/445
f 456/456/456 445/445/445 448/448/448
f 449/449/449 455/455/455 457/457/457
f 451/451/451 449/449/449 457/457/457
f 458/458/458 456/456/456 448/448/448
f 458/458/458 448/448/448 450/450/450
f 457/457/457 459/459/459 451/451/451
f 459/459/459 452/452/452 451/451/451
f 460/460/460 458/458/458 450/450/450
f 460/460/460 450/450/450 452/452/452
f 459/459/459 460/460/460 452/452/452
g item_25item_25_mobile_1
f 463/463/463 462/462/462 461/461/461
f 461/461/461 462/462/462 464/464/464
f 465/465/465 463/463/463 461/461/461
f 463/463/463 465/465/465 466/466/466
f 467/467/467 463/463/463 466/466/466
f 467/467/467 466/466/466 468/468/468
f 466/466/466 469/469/469 468/468/468
f 468/468/468 469/469/469 470/470/470
f 466/466/466 465/465/465 471/471/471
f 469/469/469 466/466/466 471/471/471
f 461/461/461 472/472/472 465/465/465
f 465/465/465 472/472/472 471/471/471
f 473/473/473 461/461/461 464/464/464
f 472/472/472 461/461/461 473/473/473
f 469/469/469 474/474/474 470/470/470
f 470/470/470 474/474/474 475/475/475
f 471/471/471 476/476/476 469/469/469
f 471/471/471 472/472/472 476/476/476
f 476/476/476 474/474/474 469/469/469
f 473/473/473 464/464/464 477/477/477
f 464/464/464 478/478/478 477/477/477
f 477/477/477 478/478/478 475/475/475
f 479/479/479 472/472/472 473/473/473
f 472/472/472 479/479/479 476/476/476
f 473/473/473 477/477/477 479/479/479
f 474/474/474 480/480/480 475/475/475
f 474/474/474 476/476/476 480/480/480
f 476/476/476 479/479/479 480/480/480
f 479/479/479 477/477/477 480/480/480
f 480/480/480 477/477/477 475/475/475
f 483/483/483 482/482/482 481/481/481
f 483/483/483 481/481/481 484/484/484
f 482/482/482 485/485/485 481/481/481
f 482/482/482 486/486/486 485/485/485
f 485/485/485 486/486/486 487/487/487
f 488/488/488 485/485/485 487/487/487
f 481/481/481 485/485/485 488/488/488
f 489/489/489 488/488/488 487/487/487
f 488/488/488 489/489/489 490/490/490
f 484/484/484 481/481/481 491/491/491
f 491/491/491 481/481/481 488/488/488
f 491/491/491 488/488/488 490/490/490
f 492/492/492 484/484/484 491/491/491
f 490/490/490 492/492/492 491/491/491
