g lou_02lou_02_mobile
v 10.2467468 -4.89810721 7.78738089
v -9.11193688 -4.89810721 7.78738089
v -9.11193688 -0.841940951 8.98818943
v 10.2467468 -0.841940951 8.98818943
v 30.0362549 3.74679765 -2.60465456
v 30.0362549 -2.8933986 -2.60465456
v 15.4102235 -2.8933986 -2.60465456
v 15.4102235 3.74679765 -2.60465456
v -30.0362549 -2.8933986 -2.60465456
v -30.0362549 3.74679765 -2.60465456
v -14.2240813 3.74679765 -2.60465456
v -14.2240813 -2.8933986 -2.60465456
v -13.2661844 -16.9630248 5.26751625
v -13.2661844 -16.9630248 -11.110229
v -13.2661844 2.78340087 -11.110229
v -13.2661844 2.78340087 10.5556571
v -13.1516035 -16.9721913 5.70567387
v -13.1516035 2.79256735 10.9983979
v -12.8344434 -16.983191 6.03016717
v -12.8344434 2.80356712 11.3283911
v -12.4045356 -16.9923575 6.15208132
v -12.4045356 2.8127336 11.4558052
v -10.654655 -16.9923575 6.15208132
v -10.654655 2.8127336 11.4558052
v -10.2238306 -16.983191 6.03016717
v -10.2238306 2.80356712 11.3283911
v -9.90758712 -16.9721913 5.70567387
v -9.90758712 2.79256735 10.9983979
v -9.7920895 -16.9630248 5.26751625
v -9.7920895 2.78340087 10.5556571
v -9.7920895 -16.9630248 -11.110229
v -9.7920895 2.78340087 -11.110229
v -15.466139 16.598199 13.5054295
v -15.466139 17.8246737 13.5054295
v -15.466139 17.8246737 14.9335667
v -15.466139 16.598199 14.9335667
v -15.2186441 17.8246737 16.1811243
v -15.2186441 16.598199 16.1811243
v -14.5119087 17.8246737 17.2389358
v -14.5119087 16.598199 17.2389358
v -13.4540972 17.8246737 17.9456712
v -13.4540972 16.598199 17.9456712
v -12.205623 17.8246737 18.1940827
v -12.205623 16.598199 18.1940827
v 5.24735 17.8246737 18.1940827
v 5.24735 16.598199 18.1940827
v -13.8445892 -17.6605937 10.1642485
v -9.54917785 -17.6605937 3.78713015
v -13.8445892 -17.6605937 3.78713015
v -9.54917785 -17.6605937 10.1642485
v -9.17151898 -17.4910139 3.78713015
v -9.54917785 -17.4910139 10.5299909
v -13.8445892 -17.4910139 10.5299909
v -9.17151898 -17.4910139 10.1642485
v -8.99552262 -17.1252714 3.78713015
v -9.54917785 -17.1252714 10.6995708
v -13.8445892 -17.1252714 10.6995708
v -13.8445892 -12.5191165 8.33461959
v -9.24943404 -17.4158488 10.4896584
v -8.99552262 -17.1252714 10.1642485
v -9.17151898 -17.1252714 10.5299909
v -9.54917785 -12.5191165 8.33461959
v -8.99552262 -12.5191165 7.80021396
v -8.99552262 -12.5191165 3.78713015
v -9.17151898 -12.1533741 3.78713015
v -9.17151898 -12.5191165 8.16503976
v -9.54917785 -12.1533741 8.16503976
v -13.8445892 -12.1533741 8.16503976
v -9.24851739 -12.2285392 8.12470726
v -9.17151898 -12.1533741 7.80021396
v -9.54917785 -11.9837943 3.78713015
v -9.54917785 -11.9837943 7.80021396
v -13.8445892 -11.9837943 7.80021396
v -13.8445892 -11.9837943 3.78713015
v -13.7730906 9.10185375 -10.3292451
v -13.7730906 8.9414404 -10.6656548
v -13.3166001 8.90294119 -10.7133205
v -13.2744343 9.10185375 -10.3292451
v -13.2744343 9.10185375 -8.68477903
v -13.7730906 9.10185375 -8.68477903
v -13.1635199 8.97352307 -8.26220442
v -13.7730906 9.10185375 -8.18703931
v -13.7730906 9.10185375 -7.68838294
v -12.7757779 9.10185375 -10.3292451
v -12.7757779 8.9396071 -10.6674881
v 13.9060046 8.9414404 -10.6656548
v -12.7757779 9.10185375 -8.68477903
v 13.9060046 9.10185375 -10.3292451
v 14.4468267 8.98818943 -10.6289889
v 13.9060046 9.10185375 -8.68477903
v -12.7757779 8.93777381 -8.3502026
v 14.4046609 9.10185375 -10.3292451
v 14.9033173 9.10185375 -10.3292451
v 14.9033173 8.9396071 -10.6674881
v 14.9033173 9.10185375 -8.68477903
v 14.4046609 9.10185375 -8.68477903
v 14.2955799 8.94419034 -8.23470499
v 14.9033173 9.10185375 -8.18703931
v 14.9033173 9.10185375 -7.68838294
v 13.9060046 8.93777381 -8.3502026
v -12.7757779 8.60319738 -8.18703931
v 14.5687409 8.93777381 -7.68838294
v 14.9033173 9.10185375 -6.78640156
v 13.9060046 8.60319738 -8.18703931
v 14.5687409 8.93777381 -6.78640156
v 14.5659909 8.78652693 -6.31341132
v 14.9033173 8.99368932 -6.32899433
v 14.9033173 8.77277721 -5.91375291
v 14.4046609 8.60319738 -7.68838294
v 14.240581 8.60319738 -8.02295936
v 14.5687409 8.45103386 -5.79550535
v 14.9033173 -3.02906246 7.5417193
v 14.4046609 8.60319738 -6.78640156
v 14.240581 -3.51121918 -8.02295936
v 13.9060046 -3.51121918 -8.18703931
v 14.4046609 -3.51121918 -7.68838294
v 14.4046609 -3.51121918 -6.78640156
v -12.7757779 -3.51121918 -8.18703931
v 14.4046609 -3.60838384 -6.21441337
v -13.111271 8.60319738 -8.02295936
v -13.111271 -3.51121918 -8.02295936
v 14.4046609 8.40886806 -6.35924371
v 14.4046609 -3.80087986 -5.79000546
v -13.2744343 8.60319738 -7.68838294
v -13.2744343 -3.51121918 -7.68838294
v 14.4046609 8.00095982 -5.79000546
v 14.4046609 -16.6431147 7.25664185
v -13.4385142 8.93777381 -7.68838294
v -13.2744343 8.60319738 -6.7277361
v -13.2744343 -3.51121918 -6.7277361
v -13.4385142 8.93777381 -6.7277361
v -13.4357643 8.78927687 -6.25382922
v -13.7730906 9.10185375 -6.7277361
v -13.7730906 8.99460597 -6.26941223
v -13.7730906 8.77552716 -5.85142086
v -13.2744343 8.41253465 -6.29966161
v -13.2744343 -3.60838384 -6.15483126
v -13.2744343 8.01195959 -5.73042336
v -13.2744343 -3.80271316 -5.73042336
v -13.4385142 8.45836704 -5.7350066
v -13.2744343 -3.15739315 7.19705975
v -13.2744343 -16.6403648 7.19705975
v -13.4385142 -2.81548354 7.31347401
v -13.4357643 -3.15830979 7.71771566
v -13.7730906 -2.60373791 7.31805725
v -13.7730906 -2.92731456 7.69663276
v -13.7730906 -3.25180786 8.07520828
v -13.2744343 -3.58180105 7.69479947
v -13.2744343 -17.1142717 7.77363118
v -13.2744343 -4.00620896 8.19345584
v -13.2744343 -17.3388504 8.19345584
v -13.4385142 -3.56438474 8.18978925
v -13.2744343 -8.29520374 13.2496848
v -13.2744343 -17.3388504 13.2496848
v -13.4330143 -7.92671135 13.3092669
v -13.7730906 -7.7415485 13.3679323
v -13.5026796 -8.17603953 13.5760114
v -13.7730906 -8.1100409 13.6493432
v -13.7730906 -8.56286488 13.7483412
v -13.4330143 -8.48769977 13.5686782
v -13.4330143 -17.3388504 13.5906777
v -13.7730906 -17.3388504 13.7483412
v 14.9033173 -17.5148467 13.7520077
v 14.9033173 -17.7623416 13.6850925
v 14.6649889 -17.7495086 13.6209271
v 14.6549058 -17.5130134 13.6850925
v 14.6549058 -8.71319511 13.6640096
v 14.9033173 -8.7379446 13.7520077
v 14.4715762 -8.6151138 13.4815967
v 14.4715762 -17.5065969 13.5026796
v 14.6649889 -8.42261778 13.6355935
v 14.9033173 -8.43636749 13.7217584
v 14.6008236 -8.28237067 13.5219292
v 14.9033173 -8.13662368 13.5815113
v 14.9033173 -7.92029481 13.3697656
v 14.4046609 -8.4730334 13.2533514
v 14.4046609 -17.4983471 13.2533514
v 14.563241 -8.10545766 13.3111002
v 14.4046609 -4.4141172 8.40245153
v 14.4046609 -17.3370171 8.24570476
v 14.5687409 -3.98054282 8.40520147
v 14.5659909 -3.5808844 7.93679447
v 14.9033173 -3.67804906 8.29887033
v 14.9033173 -3.35355576 7.92029481
v 14.4046609 -3.99795913 7.90929504
v 14.4046609 -17.1106051 7.82771339
v 14.4046609 -3.5808844 7.41522191
v 14.5687409 -3.24080809 7.53530276
v -15.8804638 8.60319738 -10.6693214
v -16.0381272 -3.51121918 -10.3292451
v -15.8804638 -3.51121918 -10.6693214
v -16.0381272 8.60319738 -10.3292451
v -16.0381272 -3.51121918 -8.68477903
v -15.8428812 8.87360847 -10.5996562
v -16.0381272 8.60319738 -8.68477903
v -16.0381272 -3.51121918 -8.18703931
v -16.0381272 8.60319738 -8.18703931
v -15.8822971 8.94510699 -8.18612266
v -16.0381272 -3.51121918 -7.68838294
v -16.0381272 8.60319738 -7.68838294
v -16.0381272 -3.51121918 -6.7277361
v -15.8786305 8.9396071 -8.68477903
v -15.8804638 8.94327369 -10.3292451
v -15.5394708 9.10185375 -10.3292451
v -15.5394708 8.94327369 -10.6693214
v -13.7730906 8.9414404 -10.6656548
v -13.7730906 9.10185375 -10.3292451
v -15.5394708 9.10185375 -8.68477903
v -13.7730906 9.10185375 -8.68477903
v -15.5394708 9.10185375 -8.18703931
v -13.7730906 9.10185375 -8.18703931
v -15.5394708 9.10185375 -7.68838294
v -13.7730906 9.10185375 -7.68838294
v -15.8767972 8.9414404 -7.68838294
v -15.5394708 9.10185375 -6.7277361
v -13.7730906 9.10185375 -6.7277361
v -15.8740473 8.93777381 -6.7277361
v -15.8767972 8.78927687 -6.25382922
v -15.5394708 8.99460597 -6.26941223
v -13.7730906 8.99460597 -6.26941223
v -16.0381272 8.60319738 -6.7277361
v -16.0381272 -3.60838384 -6.15483126
v -15.5394708 8.77552716 -5.85142086
v -13.7730906 8.77552716 -5.85142086
v -16.0381272 8.41253465 -6.29966161
v -16.0381272 -3.80271316 -5.73042336
v -16.0381272 8.01195959 -5.73042336
v -16.0381272 -16.6403648 7.19705975
v -15.8740473 8.45836704 -5.7350066
v -15.5394708 -2.60373791 7.31805725
v -13.7730906 -2.60373791 7.31805725
v -16.0381272 -3.15739315 7.19705975
v -16.0381272 -17.1142717 7.77363118
v -15.8740473 -2.81548354 7.31347401
v -15.8767972 -3.15830979 7.71771566
v -15.5394708 -2.92731456 7.69663276
v -13.7730906 -2.92731456 7.69663276
v -16.0381272 -3.58180105 7.69479947
v -16.0381272 -17.3388504 8.19345584
v -15.5394708 -3.25180786 8.07520828
v -13.7730906 -3.25180786 8.07520828
v -16.0381272 -4.00620896 8.19345584
v -16.0381272 -17.3388504 13.2496848
v -15.8740473 -3.56438474 8.18978925
v -15.5394708 -7.7415485 13.3679323
v -13.7730906 -7.7415485 13.3679323
v -16.0381272 -8.29520374 13.2496848
v -15.8804638 -17.3388504 13.5906777
v -15.8804638 -7.92671135 13.3092669
v -15.5394708 -8.1100409 13.6493432
v -13.7730906 -8.1100409 13.6493432
v -15.8428812 -8.15862323 13.5439287
v -15.8804638 -8.48769977 13.5686782
v -15.5394708 -17.3388504 13.7483412
v -15.5394708 -8.56286488 13.7483412
v -13.7730906 -8.56286488 13.7483412
v -13.7730906 -17.3388504 13.7483412
v 16.3974531 8.94327369 -10.6693214
v 14.9033173 9.10185375 -10.3292451
v 14.9033173 8.9396071 -10.6674881
v 16.3974531 9.10185375 -10.3292451
v 16.7008635 8.87360847 -10.5996562
v 16.3974531 9.10185375 -8.68477903
v 14.9033173 9.10185375 -8.68477903
v 14.9033173 9.10185375 -8.18703931
v 16.3974531 9.10185375 -8.18703931
v 16.6981136 8.98818943 -8.14487351
v 14.9033173 9.10185375 -7.68838294
v 16.3974531 9.10185375 -7.68838294
v 14.9033173 9.10185375 -6.78640156
v 16.7347795 8.9414404 -8.68477903
v 16.7384461 8.94327369 -10.3292451
v 16.8961095 8.60319738 -10.3292451
v 16.7384461 8.60319738 -10.6693214
v 16.7384461 -3.51121918 -10.6693214
v 16.8961095 -3.51121918 -10.3292451
v 16.8961095 8.60319738 -8.68477903
v 16.8961095 -3.51121918 -8.68477903
v 16.8961095 8.60319738 -8.18703931
v 16.8961095 -3.51121918 -8.18703931
v 16.8961095 8.60319738 -7.68838294
v 16.8961095 -3.51121918 -7.68838294
v 16.7356961 8.9396071 -7.68838294
v 16.8961095 8.60319738 -6.78640156
v 16.8961095 -3.51121918 -6.78640156
v 16.7320296 8.93777381 -6.78640156
v 16.7347795 8.78652693 -6.31341132
v 16.8961095 8.40886806 -6.35924371
v 16.8961095 -3.60838384 -6.21441337
v 16.3974531 9.10185375 -6.78640156
v 14.9033173 8.99368932 -6.32899433
v 16.8961095 8.00095982 -5.79000546
v 16.8961095 -3.80087986 -5.79000546
v 16.3974531 8.99368932 -6.32899433
v 14.9033173 8.77277721 -5.91375291
v 16.3974531 8.77277721 -5.91375291
v 14.9033173 -3.02906246 7.5417193
v 16.7320296 8.45103386 -5.79550535
v 16.8961095 -3.5808844 7.41522191
v 16.8961095 -16.6431147 7.25664185
v 16.3974531 -3.02906246 7.5417193
v 14.9033173 -3.35355576 7.92029481
v 16.7320296 -3.24080809 7.53530276
v 16.7347795 -3.5808844 7.93679447
v 16.8961095 -3.99795913 7.90929504
v 16.8961095 -17.1106051 7.82771339
v 16.3974531 -3.35355576 7.92029481
v 14.9033173 -3.67804906 8.29887033
v 16.8961095 -4.4141172 8.40245153
v 16.8961095 -17.3370171 8.24570476
v 16.3974531 -3.67804906 8.29887033
v 14.9033173 -7.92029481 13.3697656
v 16.7320296 -3.98054282 8.40520147
v 16.8961095 -8.4730334 13.2533514
v 16.8961095 -17.4983471 13.2533514
v 16.3974531 -7.92029481 13.3697656
v 14.9033173 -8.13662368 13.5815113
v 16.7384461 -8.10545766 13.3111002
v 16.8291942 -8.6151138 13.4815967
v 16.8291942 -17.5065969 13.5026796
v 16.7008635 -8.28237067 13.5219292
v 16.3974531 -8.13662368 13.5815113
v 14.9033173 -8.43636749 13.7217584
v 16.6467813 -8.71319511 13.6640096
v 16.6467813 -17.5130134 13.6850925
v 16.6357815 -8.42261778 13.6355935
v 16.3974531 -8.43636749 13.7217584
v 14.9033173 -8.7379446 13.7520077
v 16.3974531 -8.7379446 13.7520077
v 16.3974531 -17.5148467 13.7520077
v 16.6357815 -17.7495086 13.6209271
v 14.9033173 -17.5148467 13.7520077
v 16.3974531 -17.7623416 13.6850925
v 14.9033173 -17.7623416 13.6850925
v 9.95433615 -17.8246737 4.25645379
v -8.37770204 -17.8246737 4.25645379
v -8.37770204 -5.51501114 7.13106111
v 9.95433615 -5.51501114 7.13106111
v 15.4753055 -17.6605937 12.624531
v 29.6017639 -17.6605937 8.61144721
v 15.4753055 -17.6605937 8.61144721
v 29.6017639 -17.6605937 12.624531
v 29.6017639 -17.5890952 12.8912755
v 15.4753055 -17.5890952 12.8912755
v 29.6017639 -17.3929326 13.0874381
v 15.4753055 -17.3929326 13.0874381
v 29.6017639 -17.1252714 13.1589367
v 15.4753055 -17.1252714 13.1589367
v 15.4753055 -16.0353773 13.1589367
v 29.6017639 -16.0353773 13.1589367
v 29.6017639 -15.7686328 13.0874381
v 15.4753055 -15.7686328 13.0874381
v 29.6017639 -15.5724702 12.8912755
v 15.4753055 -15.5724702 12.8912755
v 29.6017639 -15.5009716 12.624531
v 15.4753055 -15.5009716 12.624531
v 15.4753055 -15.5009716 8.61144721
v 29.6017639 -15.5009716 8.61144721
v 15.4102235 -9.02118875 12.1185415
v 30.0362549 -9.02118875 12.1185415
v 30.0362549 -17.7082594 12.1185415
v 15.4102235 -17.7082594 12.1185415
v -5.45176244 -17.4745142 4.65244561
v -5.46092892 -17.4735976 2.94931411
v -5.46092892 -5.70109063 6.038417
v -5.45176244 -5.70109063 7.7415485
v -5.36101432 -5.70109063 7.83504657
v -5.36101432 -17.4745142 4.74594368
v -4.86052465 -17.4745142 4.74594368
v -4.86052465 -5.70109063 7.83504657
v -4.76977652 -5.70109063 7.7415485
v -4.76977652 -17.4745142 4.65244561
v -4.76061005 -17.4735976 2.94931411
v -4.76061005 -5.70109063 6.038417
v -13.6300936 -0.229620259 11.2083103
v -13.6300936 -0.229620259 -11.110229
v -13.6300936 5.15751852 -11.110229
v -13.6300936 5.15751852 12.7271956
v -13.3221 -0.247953214 11.86738
v -13.3221 5.17493483 13.3963484
v -12.6593636 -0.265369521 12.1808735
v -12.6593636 5.19326778 13.7199251
v 13.8665887 -0.265369521 12.1808735
v 13.8665887 5.19326778 13.7199251
v 14.5302417 -0.247953214 11.86738
v 14.5302417 5.17493483 13.3963484
v 14.8373187 -0.229620259 11.2083103
v 14.8373187 5.15751852 12.7271956
v 14.8373187 -0.229620259 -11.110229
v 14.8373187 5.15751852 -11.110229
v -14.594407 7.24197548 6.87439974
v -14.594407 11.2009771 6.87439974
v -14.594407 11.2009771 13.7767572
v -14.594407 7.24197548 13.7767572
v -14.3469121 11.2009771 15.0243148
v -14.3469121 7.24197548 15.0243148
v -13.6401767 11.2009771 16.0821263
v -13.6401767 7.24197548 16.0821263
v -12.5823652 11.2009771 16.7888617
v -12.5823652 7.24197548 16.7888617
v -11.333891 11.2009771 17.0372733
v -11.333891 7.24197548 17.0372733
v -5.09610312 11.2009771 17.0372733
v -5.09610312 7.24197548 17.0372733
v 10.2467468 -17.6926764 5.05210403
v 10.4071601 -17.6440941 2.82556666
v 10.2467468 -17.6926764 2.82556666
v 10.4071601 -17.6477607 5.06035386
v 10.524491 -17.5267631 2.82556666
v 10.4007436 -17.6092614 5.22718375
v 10.2467468 -17.6532605 5.22535045
v 10.2467468 -17.5405129 5.37568068
v 10.524491 -17.5295131 5.08968659
v 10.5675735 -17.3718497 2.82556666
v 10.4007436 -17.5304297 5.33351489
v 10.2467468 -17.3846827 5.46184557
v 10.4832419 -17.5267631 5.24826665
v 10.5675735 -17.3718497 5.13185238
v 10.4071601 -17.3800995 5.41601318
v 10.2467468 -16.2067904 5.80192188
v 10.524491 -17.3755163 5.29409903
v 10.5675735 -16.2196235 5.46459551
v 10.5675735 -16.2196235 2.82556666
v 10.4071601 -16.210457 5.7542562
v 10.524491 -16.2150402 5.63050875
v 10.524491 -16.0619601 5.51501114
v 10.524491 -16.06471 2.82556666
v 10.4832419 -16.06471 5.67084126
v 10.4007436 -16.0610434 5.75792279
v 10.2467468 -16.0509603 5.80742177
v 10.2467468 -15.937296 5.72217353
v 10.4007436 -15.9812951 5.69834069
v 10.2467468 -15.8987968 5.57092665
v 10.4071601 -15.9437125 5.55351034
v 10.4071601 -15.9464624 2.82556666
v 10.2467468 -15.8987968 2.82556666
v -9.11193688 -15.8987968 5.57092665
v -9.27143359 -15.9464624 2.82556666
v -9.11193688 -15.8987968 2.82556666
v -9.27143359 -15.9437125 5.55351034
v -9.38968114 -16.06471 2.82556666
v -9.26501705 -15.9812951 5.69834069
v -9.11193688 -15.937296 5.72217353
v -9.11193688 -16.0509603 5.80742177
v -9.38968114 -16.0619601 5.51501114
v -9.43184694 -16.2196235 2.82556666
v -9.26501705 -16.0610434 5.75792279
v -9.11193688 -16.2067904 5.80192188
v -9.34751535 -16.06471 5.67084126
v -9.43184694 -16.2196235 5.46459551
v -9.27143359 -16.210457 5.7542562
v -9.11193688 -17.3846827 5.46184557
v -9.38968114 -16.2150402 5.63050875
v -9.43184694 -17.3718497 5.13185238
v -9.43184694 -17.3718497 2.82556666
v -9.27143359 -17.3800995 5.41601318
v -9.38968114 -17.3755163 5.29409903
v -9.38968114 -17.5295131 5.08968659
v -9.38968114 -17.5267631 2.82556666
v -9.34751535 -17.5267631 5.24826665
v -9.26501705 -17.5304297 5.33351489
v -9.11193688 -17.5405129 5.37568068
v -9.11193688 -17.6532605 5.22535045
v -9.26501705 -17.6092614 5.22718375
v -9.11193688 -17.6926764 5.05210403
v -9.27143359 -17.6477607 5.06035386
v -9.27143359 -17.6440941 2.82556666
v -9.11193688 -17.6926764 2.82556666
v 10.2467468 -15.8987968 5.57092665
v -9.11193688 -15.8987968 2.82556666
v 10.2467468 -15.8987968 2.82556666
v -9.11193688 -15.8987968 5.57092665
v -9.11193688 -15.937296 5.72217353
v 10.2467468 -15.937296 5.72217353
v -9.11193688 -16.0509603 5.80742177
v 10.2467468 -16.0509603 5.80742177
v -9.11193688 -16.2067904 5.80192188
v 10.2467468 -16.2067904 5.80192188
v 10.2467468 -17.3846827 5.46184557
v -9.11193688 -17.3846827 5.46184557
v -9.11193688 -17.5405129 5.37568068
v 10.2467468 -17.5405129 5.37568068
v -9.11193688 -17.6532605 5.22535045
v 10.2467468 -17.6532605 5.22535045
v -9.11193688 -17.6926764 5.05210403
v 10.2467468 -17.6926764 5.05210403
v -9.11193688 -17.6926764 2.82556666
v 10.2467468 -17.6926764 2.82556666
v 8.23562164 6.03200047 -9.36951489
v 8.42811766 5.31426528 -9.36951489
v 8.42811766 5.31426528 4.61027982
v 8.23562164 6.03200047 4.61027982
v 7.70854919 6.55907292 -9.36951489
v 8.04954215 6.00175109 5.29684898
v 8.23562164 5.31426528 5.328015
v 7.70854919 5.31426528 5.85508745
v 7.70854919 6.55907292 4.61027982
v 6.99173065 6.7506523 -9.36951489
v 7.67829981 6.00175109 5.66809131
v 6.99173065 5.31426528 6.04666683
v 7.67829981 6.37207678 5.29684898
v 6.99173065 6.7506523 4.61027982
v -6.98806406 6.7506523 -9.36951489
v 6.99173065 6.03200047 5.85508745
v -6.98806406 5.31426528 6.04666683
v 6.99173065 6.55907292 5.328015
v -6.98806406 6.7506523 4.61027982
v -7.70488259 6.55907292 -9.36951489
v -6.98806406 6.03200047 5.85508745
v -6.98806406 6.55907292 5.328015
v -7.70488259 6.55907292 4.61027982
v -8.23195505 6.03200047 -9.36951489
v -7.67463322 6.37207678 5.29684898
v -7.67463322 6.00175109 5.66809131
v -7.70488259 5.31426528 5.85508745
v -8.23195505 5.31426528 5.328015
v -8.04587555 6.00175109 5.29684898
v -8.42353442 5.31426528 4.61027982
v -8.23195505 6.03200047 4.61027982
v -8.42353442 5.31426528 -9.36951489
v -28.7483648 -17.6605937 12.624531
v -14.6209898 -17.6605937 8.61144721
v -28.7483648 -17.6605937 8.61144721
v -14.6209898 -17.6605937 12.624531
v -14.6209898 -17.5890952 12.8912755
v -28.7483648 -17.5890952 12.8912755
v -14.6209898 -17.3929326 13.0874381
v -28.7483648 -17.3929326 13.0874381
v -14.6209898 -17.1252714 13.1589367
v -28.7483648 -17.1252714 13.1589367
v -28.7483648 -16.0353773 13.1589367
v -14.6209898 -16.0353773 13.1589367
v -14.6209898 -15.7686328 13.0874381
v -28.7483648 -15.7686328 13.0874381
v -14.6209898 -15.5724702 12.8912755
v -28.7483648 -15.5724702 12.8912755
v -14.6209898 -15.5009716 12.624531
v -28.7483648 -15.5009716 12.624531
v -28.7483648 -15.5009716 8.61144721
v -14.6209898 -15.5009716 8.61144721
v 16.5807827 7.63521737 6.05125007
v 16.5807827 13.9096712 12.9526909
v 16.5807827 13.9096712 6.05125007
v 16.5807827 7.63521737 12.9526909
v 16.3323711 13.9096712 14.2011651
v 16.3323711 7.63521737 14.2011651
v 15.6256357 13.9096712 15.2589766
v 15.6256357 7.63521737 15.2589766
v 14.5678242 13.9096712 15.965712
v 14.5678242 7.63521737 15.965712
v 13.3202667 13.9096712 16.2132069
v 13.3202667 7.63521737 16.2132069
v -2.78615081 13.9096712 16.2132069
v -2.78615081 7.63521737 16.2132069
v -8.24845471 -17.4745142 3.20964207
v -8.24845471 -0.885940043 9.21093483
v -8.24845471 -0.885940043 7.69938271
v -8.24845471 -17.4745142 4.72119419
v -8.33186965 -17.4745142 4.93018988
v -8.33186965 -0.885940043 9.41993052
v -8.53353215 -17.4745142 5.01635477
v -8.53353215 -0.885940043 9.50609541
v -10.0570007 -0.885940043 9.50609541
v -10.0570007 -17.4745142 5.01635477
v 0.44869907 -17.4745142 4.65244561
v 0.443199183 -17.4735976 2.94931411
v 0.443199183 -5.70109063 6.038417
v 0.44869907 -5.70109063 7.7415485
v 0.539447196 -5.70109063 7.83504657
v 0.539447196 -17.4745142 4.74594368
v 0.720026801 -17.4745142 4.74594368
v 0.720026801 -5.70109063 7.83504657
v 0.810774928 -5.70109063 7.7415485
v 0.810774928 -17.4745142 4.65244561
v 0.816274814 -17.4735976 2.94931411
v 0.816274814 -5.70109063 6.038417
v 30.0362549 10.0799169 -18.1940827
v -30.0362549 10.0799169 -18.1940827
v -30.0362549 16.7540291 -18.1940827
v 30.0362549 16.7540291 -18.1940827
v 9.47217944 -17.4745142 4.72119419
v 9.47217944 -17.4745142 3.20964207
v 9.47217944 -0.885940043 7.69938271
v 9.47217944 -0.885940043 9.21093483
v 9.55559439 -0.885940043 9.41993052
v 9.55559439 -17.4745142 4.93018988
v 9.75725689 -0.885940043 9.50609541
v 9.75725689 -17.4745142 5.01635477
v 11.2798088 -17.4745142 5.01635477
v 11.2798088 -0.885940043 9.50609541
v 10.7472364 -16.9630248 5.26751625
v 10.7472364 -16.9630248 -11.110229
v 10.7472364 2.78340087 -11.110229
v 10.7472364 2.78340087 10.5556571
v 10.8627341 -16.9721913 5.70567387
v 10.8627341 2.79256735 10.9983979
v 11.1789775 -16.983191 6.03016717
v 11.1789775 2.80356712 11.3283911
v 11.609802 -16.9923575 6.15208132
v 11.609802 2.8127336 11.4558052
v 13.3596825 -16.9923575 6.15208132
v 13.3596825 2.8127336 11.4558052
v 13.7895903 -16.983191 6.03016717
v 13.7895903 2.80356712 11.3283911
v 14.1067504 -16.9721913 5.70567387
v 14.1067504 2.79256735 10.9983979
v 14.2213314 -16.9630248 5.26751625
v 14.2213314 2.78340087 10.5556571
v 14.2213314 -16.9630248 -11.110229
v 14.2213314 2.78340087 -11.110229
v 30.0362549 -2.8933986 5.18960119
v 30.0362549 -9.02118875 5.18960119
v 15.4102235 -9.02118875 5.18960119
v 15.4102235 -2.8933986 5.18960119
v 15.4102235 3.74679765 -10.399827
v 15.4102235 8.06054192 -10.399827
v 30.0362549 3.74679765 -10.399827
v 30.0362549 10.0799169 -10.399827
v -30.0362549 10.0799169 -10.399827
v -14.2240813 8.06054192 -10.399827
v -30.0362549 3.74679765 -10.399827
v -14.2240813 3.74679765 -10.399827
v -30.0362549 -9.02118875 12.1185415
v -14.2240813 -9.02118875 12.1185415
v -14.2240813 -17.7082594 12.1185415
v -30.0362549 -17.7082594 12.1185415
v 6.11816535 -17.4745142 4.65244561
v 6.10808223 -17.4735976 2.94931411
v 6.10808223 -5.70109063 6.038417
v 6.11816535 -5.70109063 7.7415485
v 6.20891348 -5.70109063 7.83504657
v 6.20891348 -17.4745142 4.74594368
v 6.7084865 -17.4745142 4.74594368
v 6.7084865 -5.70109063 7.83504657
v 6.79923463 -5.70109063 7.7415485
v 6.79923463 -17.4745142 4.65244561
v 6.80931775 -17.4735976 2.94931411
v 6.80931775 -5.70109063 6.038417
v -14.2240813 -9.02118875 5.18960119
v -30.0362549 -9.02118875 5.18960119
v -30.0362549 -2.8933986 5.18960119
v -14.2240813 -2.8933986 5.18960119
v 10.6271556 -11.9837943 3.78713015
v 14.9216503 -11.9837943 3.78713015
v 14.9216503 -11.9837943 7.80021396
v 10.6271556 -11.9837943 7.80021396
v 10.2494967 -12.1533741 3.78713015
v 10.6271556 -12.1533741 8.16503976
v 14.9216503 -12.1533741 8.16503976
v 10.2494967 -12.1533741 7.80021396
v 10.0735004 -12.5191165 3.78713015
v 10.6271556 -12.5191165 8.33461959
v 14.9216503 -12.5191165 8.33461959
v 14.9216503 -17.1252714 10.6995708
v 10.3264951 -12.2285392 8.12470726
v 10.0735004 -12.5191165 7.80021396
v 10.2494967 -12.5191165 8.16503976
v 10.6271556 -17.1252714 10.6995708
v 10.0735004 -17.1252714 10.1642485
v 10.0735004 -17.1252714 3.78713015
v 10.2494967 -17.4910139 3.78713015
v 10.2494967 -17.1252714 10.5299909
v 10.6271556 -17.4910139 10.5299909
v 14.9216503 -17.4910139 10.5299909
v 10.2907459 -17.4158488 10.4548258
v 10.2494967 -17.4910139 10.1642485
v 10.6271556 -17.6605937 3.78713015
v 10.6271556 -17.6605937 10.1642485
v 14.9216503 -17.6605937 10.1642485
v 14.9216503 -17.6605937 3.78713015
v -13.6300936 -0.229620259 -11.110229
v -13.6300936 -0.229620259 11.2083103
v -13.3221 -0.869440383 11.0460636
v -13.3221 -0.87494027 -11.110229
v -13.2487681 -0.750276177 11.6015521
v -13.3221 -0.247953214 11.86738
v -12.6593636 -0.265369521 12.1808735
v -12.6593636 -1.17560073 10.9782317
v -12.6593636 -1.17560073 6.81940088
v -12.6593636 -0.893273224 11.7106332
v 13.8665887 -0.265369521 12.1808735
v 13.8665887 -1.17560073 10.9782317
v 13.8665887 -1.17560073 6.81940088
v 14.5302417 -0.87494027 -11.110229
v 13.8665887 -0.893273224 11.7106332
v 14.3936612 -0.752109472 11.6648008
v 14.5302417 -0.247953214 11.86738
v 14.8373187 -0.229620259 11.2083103
v 14.5302417 -0.869440383 11.0460636
v 14.8373187 -0.229620259 -11.110229
v 14.8373187 5.15751852 -11.110229
v 14.8373187 5.15751852 12.7271956
v 14.5302417 5.79733864 12.9261081
v 14.5302417 5.80283853 -11.110229
v 14.4569099 5.67817444 13.4146814
v 14.5302417 5.17493483 13.3963484
v 13.8665887 5.19326778 13.7199251
v 13.8665887 6.10349899 13.030606
v 13.8665887 6.10349899 -11.110229
v 13.8665887 5.82117148 13.6035108
v -12.6593636 5.19326778 13.7199251
v -12.6593636 6.10349899 13.030606
v -12.6593636 6.10349899 -11.110229
v -13.3221 5.80283853 -11.110229
v -12.6593636 5.82117148 13.6035108
v -13.2487681 5.67817444 13.4146814
v -13.3221 5.17493483 13.3963484
v -13.6300936 5.15751852 12.7271956
v -13.3221 5.79733864 12.9261081
v -13.6300936 5.15751852 -11.110229
v 10.2467468 -4.06212447 7.94229436
v 10.4071601 -4.10795686 7.92487805
v 10.4007436 -4.14553941 8.3327863
v 10.524491 -4.22528777 7.88637885
v 10.4832419 -4.22803771 8.30528687
v 10.5675735 -4.38295118 7.83596322
v 10.524491 -4.37928459 8.26495436
v 10.5675735 -5.53517739 7.50322009
v 10.2467468 -4.10154032 8.35661914
v 10.4007436 -4.22437112 8.3923684
v 10.4071601 -4.37470135 8.38870181
v 10.524491 -5.53976063 7.92854464
v -9.11193688 -4.10154032 8.35661914
v -9.11193688 -4.06212447 7.94229436
v -9.26501705 -4.14553941 8.3327863
v -9.27143359 -4.10795686 7.92487805
v -9.11193688 -4.21428799 8.44095073
v 10.2467468 -4.21428799 8.44095073
v 10.2467468 -4.37011811 8.43636749
v -9.34751535 -4.22803771 8.30528687
v -9.38968114 -4.22528777 7.88637885
v -9.43184694 -4.38295118 7.83596322
v -9.26501705 -4.22437112 8.3923684
v -9.11193688 -4.37011811 8.43636749
v 10.4071601 -5.54434387 8.05045879
v -9.38968114 -4.37928459 8.26495436
v 10.2467468 -5.54801046 8.09629118
v 10.4007436 -5.69375745 7.9679605
v -9.27143359 -4.37470135 8.38870181
v -9.38968114 -5.53976063 7.92854464
v -9.43184694 -5.53517739 7.50322009
v -9.11193688 -5.54801046 8.09629118
v -9.27143359 -5.54434387 8.05045879
v -9.34751535 -5.69009086 7.88271226
v -9.38968114 -5.69375745 7.4610543
v -9.26501705 -5.69375745 7.9679605
v -9.26501705 -5.7735058 7.86162936
v -9.27143359 -5.81108836 7.43172157
v -9.11193688 -5.8560041 7.42347174
v -9.11193688 -5.70384057 8.01012629
v -9.11193688 -5.81750489 7.85979606
v 10.2467468 -5.70384057 8.01012629
v 10.2467468 -5.81750489 7.85979606
v 10.2467468 -5.8560041 7.42347174
v 10.4007436 -5.7735058 7.86162936
v 10.4071601 -5.81108836 7.43172157
v 10.4832419 -5.69009086 7.88271226
v 10.524491 -5.69375745 7.4610543
v -1.95291801 5.94308563 12.9141917
v -1.49276085 6.46190826 12.9847736
v -1.73108926 5.94308563 12.9847736
v -1.70725642 6.47749127 12.9141917
v -2.12341449 5.94308563 12.7198624
v 2.20682944 6.46190826 12.9847736
v 2.40299206 5.94308563 12.9847736
v -1.86950307 6.49582422 12.7198624
v -2.19491302 5.94308563 12.4558678
v -1.93366841 6.51140723 12.4558678
v -2.19491302 5.94308563 9.99008542
v -1.73108926 6.69932002 12.7088626
v -1.61742494 6.68648695 12.8454431
v -1.40751261 6.68098707 12.9141917
v 2.42040836 6.47290803 12.9141917
v 2.62115422 5.94308563 12.9141917
v 2.57990507 6.4857411 12.7198624
v 2.78523416 5.94308563 12.7198624
v 2.34157666 6.68465366 12.8454431
v 2.13441427 6.68373701 12.9141917
v -1.34884715 6.8487336 12.7198624
v -1.57617579 6.80473451 12.7088626
v 2.64132047 6.49674087 12.4558678
v 2.8512328 5.94308563 12.4558678
v 2.45340768 6.69382014 12.7088626
v 2.30582739 6.80290122 12.7088626
v 2.08308199 6.85148355 12.7198624
v 2.64132047 6.49674087 9.99008542
v 2.8512328 5.94308563 9.99008542
v 2.51023984 6.71398639 12.4558678
v -1.33234749 6.91839883 12.4558678
v 2.06841563 6.91839883 12.4558678
v 2.30032751 6.86889985 12.4558678
v 2.51023984 6.71398639 9.99008542
v 2.57990507 6.4857411 9.72609087
v 2.78523416 5.94308563 9.72609087
v 2.30032751 6.86889985 9.99008542
v 2.45340768 6.69382014 9.73709064
v 2.42040836 6.47290803 9.53176154
v 2.62115422 5.94308563 9.53176154
v 2.06841563 6.91839883 9.99008542
v 2.30582739 6.80290122 9.73709064
v 2.34157666 6.68465366 9.60051012
v 2.20682944 6.46190826 9.46117967
v 2.40299206 5.94308563 9.46117967
v 2.08308199 6.85148355 9.72609087
v 2.13441427 6.68373701 9.53176154
v -1.49276085 6.46190826 9.46117967
v -1.73108926 5.94308563 9.46117967
v -1.40751261 6.68098707 9.53176154
v -1.34884715 6.8487336 9.72609087
v -1.70725642 6.47749127 9.53176154
v -1.95291801 5.94308563 9.53176154
v -1.33234749 6.91839883 9.99008542
v -1.61742494 6.68648695 9.60051012
v -1.86950307 6.49582422 9.72609087
v -2.12341449 5.94308563 9.72609087
v -1.57617579 6.80473451 9.73709064
v -1.56884261 6.87348309 12.4558678
v -1.73108926 6.69932002 9.73709064
v -1.93366841 6.51140723 9.99008542
v -1.56884261 6.87348309 9.99008542
v -1.78975472 6.72406951 12.4558678
v -1.78975472 6.72406951 9.99008542
v -2.87323235 5.94308563 12.6749467
v -1.99141722 7.11731139 12.7455285
v -2.5881549 5.94308563 12.7455285
v -2.26641154 7.13564435 12.6749467
v -3.09139451 5.94308563 12.4806173
v 2.74581831 7.11731139 12.7455285
v 3.2371415 5.94308563 12.7455285
v -2.47449058 7.15672724 12.4806173
v -3.18214264 5.94308563 12.2157061
v -2.55607223 7.1750602 12.2157061
v -3.18214264 5.94308563 9.75084035
v -2.29757757 7.39322236 12.4687009
v -2.15091393 7.37763935 12.6061981
v -1.88233614 7.37122282 12.6749467
v 3.01897934 7.13014446 12.6749467
v 3.51580241 5.94308563 12.6749467
v 3.22339178 7.14572747 12.4806173
v 3.72663139 5.94308563 12.4806173
v 2.91814809 7.37580606 12.6061981
v 2.65232024 7.37397276 12.6749467
v -1.80717102 7.56555214 12.4806173
v -2.09866501 7.51513651 12.4687009
v 3.30222349 7.15856054 12.2157061
v 3.81096299 5.94308563 12.2157061
v 3.06206178 7.38680583 12.4687009
v 2.8723157 7.51238657 12.4687009
v 2.58723825 7.56830208 12.4806173
v 3.30222349 7.15856054 9.75084035
v 3.81096299 5.94308563 9.75084035
v 3.13447695 7.40972202 12.2157061
v -1.78700477 7.64621714 12.2157061
v 2.5689053 7.64621714 12.2157061
v 2.86498252 7.58938498 12.2157061
v 3.13447695 7.40972202 9.75084035
v 3.22339178 7.14572747 9.48592916
v 3.72663139 5.94308563 9.48592916
v 2.86498252 7.58938498 9.75084035
v 3.06206178 7.38680583 9.49692893
v 3.01897934 7.13014446 9.29159984
v 3.51580241 5.94308563 9.29159984
v 2.5689053 7.64621714 9.75084035
v 2.8723157 7.51238657 9.49692893
v 2.91814809 7.37580606 9.36034842
v 2.74581831 7.11731139 9.22101796
v 3.2371415 5.94308563 9.22101796
v 2.58723825 7.56830208 9.48592916
v 2.65232024 7.37397276 9.29159984
v -1.99141722 7.11731139 9.22101796
v -2.5881549 5.94308563 9.22101796
v -1.88233614 7.37122282 9.29159984
v -1.80717102 7.56555214 9.48592916
v -2.26641154 7.13564435 9.29159984
v -2.87323235 5.94308563 9.29159984
v -1.78700477 7.64621714 9.75084035
v -2.15091393 7.37763935 9.36034842
v -2.47449058 7.15672724 9.48592916
v -3.09139451 5.94308563 9.48592916
v -2.09866501 7.51513651 9.49692893
v -2.08949853 7.59396822 12.2157061
v -2.29757757 7.39322236 9.49692893
v -2.55607223 7.1750602 9.75084035
v -2.08949853 7.59396822 9.75084035
v -2.37182603 7.42072179 12.2157061
v -2.37182603 7.42072179 9.75084035
vt 0.344546789 0.180482355
vt 0.344546789 0.127402685
vt 0.33296577 0.127402685
vt 0.33296577 0.180482355
vt 0.53949394 0.224876261
vt 0.521157327 0.224876261
vt 0.521157327 0.265409827
vt 0.53949394 0.265409827
vt 0.782695336 0.191098289
vt 0.80103195 0.191098289
vt 0.80103195 0.146704383
vt 0.782695336 0.146704383
vt 0.74795228 0.880168912
vt 0.74795228 0.833844836
vt 0.697767865 0.833844836
vt 0.697767865 0.880168912
vt 0.74795228 0.881133997
vt 0.697767865 0.881133997
vt 0.74795228 0.882099082
vt 0.697767865 0.882099082
vt 0.74795228 0.883064167
vt 0.697767865 0.883064167
vt 0.74795228 0.887889591
vt 0.697767865 0.887889591
vt 0.74795228 0.888854676
vt 0.697767865 0.888854676
vt 0.74795228 0.889819761
vt 0.697767865 0.889819761
vt 0.74795228 0.890784846
vt 0.697767865 0.890784846
vt 0.74795228 0.937108921
vt 0.697767865 0.937108921
vt 0.504750883 0.0608118267
vt 0.500890544 0.0608118267
vt 0.500890544 0.0646721663
vt 0.504750883 0.0646721663
vt 0.500890544 0.0685325059
vt 0.504750883 0.0685325059
vt 0.500890544 0.0723928456
vt 0.504750883 0.0723928456
vt 0.500890544 0.0752881003
vt 0.504750883 0.0752881003
vt 0.500890544 0.0791484399
vt 0.504750883 0.0791484399
vt 0.500890544 0.127402685
vt 0.504750883 0.127402685
vt 0.615735648 0.260584402
vt 0.591608525 0.254793893
vt 0.595468865 0.268305081
vt 0.607049884 0.253828808
vt 0.591608525 0.252863723
vt 0.608014968 0.252863723
vt 0.617665817 0.258654232
vt 0.606084799 0.252863723
vt 0.59064344 0.250933553
vt 0.608014968 0.252863723
vt 0.618630902 0.257689148
vt 0.618630902 0.237422364
vt 0.607049884 0.252863723
vt 0.606084799 0.251898638
vt 0.607049884 0.251898638
vt 0.608014968 0.240317619
vt 0.606084799 0.240317619
vt 0.595468865 0.235492195
vt 0.59643395 0.233562025
vt 0.607049884 0.240317619
vt 0.608014968 0.240317619
vt 0.617665817 0.23645728
vt 0.607049884 0.240317619
vt 0.606084799 0.239352534
vt 0.597399034 0.23259694
vt 0.607049884 0.239352534
vt 0.617665817 0.23452711
vt 0.608980053 0.224876261
vt 0.383150185 0.859902129
vt 0.385080355 0.859902129
vt 0.385080355 0.857971959
vt 0.383150185 0.857971959
vt 0.379289846 0.858937044
vt 0.379289846 0.859902129
vt 0.377359676 0.857971959
vt 0.378324761 0.859902129
vt 0.377359676 0.860867214
vt 0.383150185 0.857006874
vt 0.38411527 0.857006874
vt 0.38604544 0.778834997
vt 0.378324761 0.857006874
vt 0.385080355 0.778834997
vt 0.38604544 0.777869912
vt 0.380254931 0.778834997
vt 0.377359676 0.857006874
vt 0.385080355 0.777869912
vt 0.385080355 0.776904827
vt 0.38604544 0.776904827
vt 0.381220015 0.775939742
vt 0.380254931 0.777869912
vt 0.379289846 0.776904827
vt 0.380254931 0.775939742
vt 0.379289846 0.774974657
vt 0.379289846 0.778834997
vt 0.376394591 0.857006874
vt 0.378324761 0.775939742
vt 0.378324761 0.773044487
vt 0.378324761 0.778834997
vt 0.377359676 0.773044487
vt 0.376394591 0.772079402
vt 0.377359676 0.772079402
vt 0.376394591 0.770149233
vt 0.377359676 0.775939742
vt 0.377359676 0.777869912
vt 0.375429506 0.771114318
vt 0.33489594 0.740231601
vt 0.376394591 0.774009572
vt 0.342616619 0.782695336
vt 0.343581704 0.783660421
vt 0.342616619 0.781730252
vt 0.342616619 0.779800082
vt 0.344546789 0.851216365
vt 0.341651534 0.778834997
vt 0.376394591 0.857971959
vt 0.344546789 0.85218145
vt 0.375429506 0.773044487
vt 0.340686449 0.777869912
vt 0.376394591 0.859902129
vt 0.343581704 0.853146535
vt 0.373499336 0.771114318
vt 0.297257629 0.74988245
vt 0.376394591 0.859902129
vt 0.374464421 0.861832299
vt 0.342616619 0.855076704
vt 0.375429506 0.862797384
vt 0.375429506 0.863762469
vt 0.376394591 0.862797384
vt 0.376394591 0.864727553
vt 0.375429506 0.865692638
vt 0.374464421 0.863762469
vt 0.342616619 0.857006874
vt 0.372534251 0.864727553
vt 0.341651534 0.857006874
vt 0.373499336 0.864727553
vt 0.33296577 0.892715016
vt 0.297257629 0.883064167
vt 0.333930855 0.893680101
vt 0.33296577 0.894645186
vt 0.33489594 0.893680101
vt 0.333930855 0.894645186
vt 0.33296577 0.89561027
vt 0.332000685 0.893680101
vt 0.295327459 0.884994336
vt 0.330070515 0.894645186
vt 0.294362374 0.885959421
vt 0.332000685 0.89561027
vt 0.314629157 0.905261119
vt 0.290502034 0.89947061
vt 0.315594242 0.906226204
vt 0.316559327 0.907191289
vt 0.314629157 0.906226204
vt 0.315594242 0.907191289
vt 0.313664072 0.907191289
vt 0.314629157 0.906226204
vt 0.290502034 0.900435695
vt 0.290502034 0.90140078
vt 0.290502034 0.731545836
vt 0.290502034 0.732510921
vt 0.290502034 0.732510921
vt 0.291467119 0.732510921
vt 0.314629157 0.727685497
vt 0.314629157 0.726720412
vt 0.315594242 0.728650582
vt 0.291467119 0.733476006
vt 0.315594242 0.727685497
vt 0.315594242 0.726720412
vt 0.315594242 0.727685497
vt 0.316559327 0.726720412
vt 0.317524412 0.727685497
vt 0.315594242 0.728650582
vt 0.291467119 0.734441091
vt 0.316559327 0.728650582
vt 0.330070515 0.739266516
vt 0.294362374 0.74795228
vt 0.3310356 0.739266516
vt 0.33296577 0.740231601
vt 0.332000685 0.738301431
vt 0.333930855 0.739266516
vt 0.3310356 0.740231601
vt 0.295327459 0.748917365
vt 0.33296577 0.741196685
vt 0.333930855 0.741196685
vt 0.276025761 0.755672959
vt 0.302083053 0.776904827
vt 0.303048138 0.775939742
vt 0.275060676 0.756638044
vt 0.299187798 0.780765167
vt 0.275060676 0.755672959
vt 0.273130506 0.760498384
vt 0.299187798 0.781730252
vt 0.272165421 0.761463468
vt 0.271200336 0.760498384
vt 0.298222714 0.782695336
vt 0.271200336 0.762428553
vt 0.296292544 0.784625506
vt 0.272165421 0.759533299
vt 0.274095591 0.755672959
vt 0.273130506 0.755672959
vt 0.274095591 0.754707874
vt 0.270235251 0.751812619
vt 0.269270166 0.752777704
vt 0.271200336 0.759533299
vt 0.266374912 0.756638044
vt 0.270235251 0.760498384
vt 0.265409827 0.757603129
vt 0.269270166 0.761463468
vt 0.265409827 0.759533299
vt 0.270235251 0.761463468
vt 0.268305081 0.763393638
vt 0.263479657 0.762428553
vt 0.269270166 0.764358723
vt 0.268305081 0.765323808
vt 0.268305081 0.765323808
vt 0.263479657 0.763393638
vt 0.270235251 0.764358723
vt 0.295327459 0.786555676
vt 0.267339997 0.766288893
vt 0.262514572 0.765323808
vt 0.269270166 0.766288893
vt 0.295327459 0.787520761
vt 0.269270166 0.767253978
vt 0.297257629 0.840600431
vt 0.268305081 0.767253978
vt 0.268305081 0.813578053
vt 0.262514572 0.813578053
vt 0.270235251 0.813578053
vt 0.297257629 0.842530601
vt 0.269270166 0.813578053
vt 0.269270166 0.815508223
vt 0.267339997 0.814543138
vt 0.262514572 0.814543138
vt 0.270235251 0.815508223
vt 0.297257629 0.843495686
vt 0.267339997 0.816473308
vt 0.262514572 0.816473308
vt 0.270235251 0.817438393
vt 0.28567661 0.854111619
vt 0.269270166 0.816473308
vt 0.267339997 0.834809921
vt 0.263479657 0.835775006
vt 0.269270166 0.835775006
vt 0.284711525 0.854111619
vt 0.268305081 0.834809921
vt 0.268305081 0.835775006
vt 0.263479657 0.837705176
vt 0.269270166 0.835775006
vt 0.269270166 0.836740091
vt 0.28374644 0.855076704
vt 0.268305081 0.837705176
vt 0.264444742 0.839635346
vt 0.2798861 0.857971959
vt 0.18530778 0.361918317
vt 0.189168119 0.359988148
vt 0.188203034 0.359988148
vt 0.186272864 0.362883402
vt 0.184342695 0.362883402
vt 0.188203034 0.366743742
vt 0.192063374 0.363848487
vt 0.193028459 0.365778657
vt 0.189168119 0.367708827
vt 0.188203034 0.368673912
vt 0.193993544 0.366743742
vt 0.190133204 0.368673912
vt 0.194958629 0.369638997
vt 0.187237949 0.366743742
vt 0.18530778 0.363848487
vt 0.184342695 0.363848487
vt 0.18337761 0.362883402
vt 0.157320317 0.38411527
vt 0.158285402 0.385080355
vt 0.187237949 0.367708827
vt 0.161180657 0.388940695
vt 0.187237949 0.368673912
vt 0.161180657 0.38990578
vt 0.188203034 0.369638997
vt 0.162145742 0.390870865
vt 0.189168119 0.369638997
vt 0.190133204 0.371569166
vt 0.164075912 0.392801034
vt 0.190133204 0.371569166
vt 0.191098289 0.372534251
vt 0.190133204 0.373499336
vt 0.165040997 0.394731204
vt 0.191098289 0.370604082
vt 0.195923714 0.371569166
vt 0.190133204 0.375429506
vt 0.165040997 0.395696289
vt 0.192063374 0.372534251
vt 0.195923714 0.372534251
vt 0.192063374 0.373499336
vt 0.195923714 0.422718666
vt 0.191098289 0.374464421
vt 0.190133204 0.423683751
vt 0.162145742 0.446845789
vt 0.192063374 0.422718666
vt 0.195923714 0.423683751
vt 0.191098289 0.422718666
vt 0.191098289 0.424648836
vt 0.190133204 0.425613921
vt 0.162145742 0.448775959
vt 0.192063374 0.423683751
vt 0.195923714 0.425613921
vt 0.190133204 0.426579006
vt 0.162145742 0.450706129
vt 0.192063374 0.425613921
vt 0.195923714 0.444915619
vt 0.191098289 0.426579006
vt 0.190133204 0.443950534
vt 0.170831506 0.461322063
vt 0.192063374 0.443950534
vt 0.194958629 0.445880704
vt 0.191098289 0.443950534
vt 0.190133204 0.444915619
vt 0.171796591 0.461322063
vt 0.191098289 0.444915619
vt 0.191098289 0.444915619
vt 0.194958629 0.446845789
vt 0.190133204 0.445880704
vt 0.171796591 0.462287148
vt 0.191098289 0.444915619
vt 0.191098289 0.445880704
vt 0.193993544 0.447810874
vt 0.191098289 0.445880704
vt 0.172761676 0.463252233
vt 0.171796591 0.463252233
vt 0.175656931 0.466147487
vt 0.171796591 0.463252233
vt 0.175656931 0.466147487
vt 0.637932601 0.983432997
vt 0.637932601 0.814543138
vt 0.522122412 0.814543138
vt 0.522122412 0.983432997
vt 0.408242393 0.944829601
vt 0.396661374 0.905261119
vt 0.396661374 0.944829601
vt 0.408242393 0.905261119
vt 0.409207478 0.905261119
vt 0.409207478 0.944829601
vt 0.410172563 0.905261119
vt 0.410172563 0.944829601
vt 0.410172563 0.905261119
vt 0.410172563 0.944829601
vt 0.413067817 0.944829601
vt 0.413067817 0.905261119
vt 0.414032902 0.905261119
vt 0.414032902 0.944829601
vt 0.414997987 0.905261119
vt 0.414997987 0.944829601
vt 0.415963072 0.905261119
vt 0.415963072 0.944829601
vt 0.426579006 0.944829601
vt 0.426579006 0.905261119
vt 0.771114318 0.205574563
vt 0.771114318 0.165040997
vt 0.746987195 0.165040997
vt 0.746987195 0.205574563
vt 0.415963072 0.142844044
vt 0.411137648 0.141878959
vt 0.411137648 0.175656931
vt 0.415963072 0.176622015
vt 0.415963072 0.176622015
vt 0.415963072 0.142844044
vt 0.417893242 0.142844044
vt 0.417893242 0.176622015
vt 0.417893242 0.176622015
vt 0.417893242 0.142844044
vt 0.422718666 0.141878959
vt 0.422718666 0.175656931
vt 0.865692638 0.671710572
vt 0.849286195 0.731545836
vt 0.863762469 0.735406176
vt 0.881133997 0.671710572
vt 0.866657723 0.669780402
vt 0.882099082 0.669780402
vt 0.866657723 0.667850233
vt 0.882099082 0.667850233
vt 0.866657723 0.593538695
vt 0.882099082 0.593538695
vt 0.866657723 0.591608525
vt 0.882099082 0.591608525
vt 0.865692638 0.589678355
vt 0.881133997 0.589678355
vt 0.849286195 0.529843091
vt 0.863762469 0.525982751
vt 0.380254931 0.304978308
vt 0.390870865 0.304978308
vt 0.390870865 0.28567661
vt 0.380254931 0.28567661
vt 0.390870865 0.28181627
vt 0.380254931 0.28181627
vt 0.390870865 0.277955931
vt 0.380254931 0.277955931
vt 0.390870865 0.275060676
vt 0.380254931 0.275060676
vt 0.390870865 0.271200336
vt 0.380254931 0.271200336
vt 0.390870865 0.253828808
vt 0.380254931 0.253828808
vt 0.350337299 0.047300638
vt 0.350337299 0.0540562323
vt 0.351302383 0.0540562323
vt 0.350337299 0.047300638
vt 0.350337299 0.0540562323
vt 0.350337299 0.047300638
vt 0.350337299 0.047300638
vt 0.350337299 0.0463355531
vt 0.349372214 0.047300638
vt 0.349372214 0.0540562323
vt 0.350337299 0.047300638
vt 0.349372214 0.0463355531
vt 0.349372214 0.047300638
vt 0.349372214 0.047300638
vt 0.349372214 0.0463355531
vt 0.346476959 0.0453704682
vt 0.349372214 0.047300638
vt 0.346476959 0.0463355531
vt 0.346476959 0.0540562323
vt 0.346476959 0.0453704682
vt 0.346476959 0.0463355531
vt 0.345511874 0.0463355531
vt 0.345511874 0.0540562323
vt 0.345511874 0.0463355531
vt 0.345511874 0.0463355531
vt 0.345511874 0.0453704682
vt 0.345511874 0.0453704682
vt 0.345511874 0.0463355531
vt 0.344546789 0.0463355531
vt 0.345511874 0.0463355531
vt 0.345511874 0.0540562323
vt 0.344546789 0.0540562323
vt 0.391835949 0.00869724175
vt 0.391835949 0.0009765625
vt 0.391835949 0.0009765625
vt 0.392801034 0.00869724175
vt 0.392801034 0.0009765625
vt 0.392801034 0.00869724175
vt 0.392801034 0.00966232665
vt 0.392801034 0.00966232665
vt 0.392801034 0.00869724175
vt 0.392801034 0.0009765625
vt 0.392801034 0.00966232665
vt 0.393766119 0.00966232665
vt 0.392801034 0.00869724175
vt 0.393766119 0.00869724175
vt 0.393766119 0.00966232665
vt 0.396661374 0.00869724175
vt 0.393766119 0.00869724175
vt 0.396661374 0.00773215684
vt 0.396661374 0.0009765625
vt 0.396661374 0.00869724175
vt 0.396661374 0.00773215684
vt 0.396661374 0.00773215684
vt 0.396661374 0.0009765625
vt 0.396661374 0.00773215684
vt 0.396661374 0.00773215684
vt 0.397626459 0.00869724175
vt 0.397626459 0.00773215684
vt 0.397626459 0.00773215684
vt 0.397626459 0.00773215684
vt 0.397626459 0.00773215684
vt 0.397626459 0.0009765625
vt 0.397626459 0.0009765625
vt 0.220050836 0.0550213172
vt 0.212330157 0.0009765625
vt 0.212330157 0.0550213172
vt 0.220050836 0.0009765625
vt 0.220050836 0.0009765625
vt 0.220050836 0.0550213172
vt 0.220050836 0.0009765625
vt 0.220050836 0.0550213172
vt 0.221015921 0.0009765625
vt 0.221015921 0.0550213172
vt 0.223911176 0.0550213172
vt 0.223911176 0.0009765625
vt 0.224876261 0.0009765625
vt 0.224876261 0.0550213172
vt 0.224876261 0.0009765625
vt 0.224876261 0.0550213172
vt 0.225841346 0.0009765625
vt 0.225841346 0.0550213172
vt 0.231631855 0.0009765625
vt 0.231631855 0.0550213172
vt 0.00194164741 0.740231601
vt 0.00194164741 0.743126855
vt 0.0424752135 0.739266516
vt 0.0415101286 0.737336346
vt 0.0009765625 0.738301431
vt 0.0434402984 0.736371261
vt 0.0444053833 0.738301431
vt 0.0463355531 0.736371261
vt 0.0415101286 0.735406176
vt 0.0009765625 0.736371261
vt 0.0444053833 0.735406176
vt 0.047300638 0.733476006
vt 0.0424752135 0.735406176
vt 0.0405450436 0.733476006
vt 0.0009765625 0.695837695
vt 0.0444053833 0.733476006
vt 0.0453704682 0.695837695
vt 0.0424752135 0.733476006
vt 0.0386148738 0.695837695
vt 0.0009765625 0.693907525
vt 0.0424752135 0.695837695
vt 0.0405450436 0.695837695
vt 0.0386148738 0.693907525
vt 0.0009765625 0.69101227
vt 0.0405450436 0.693907525
vt 0.0424752135 0.693907525
vt 0.0444053833 0.69294244
vt 0.0424752135 0.69101227
vt 0.0415101286 0.69294244
vt 0.0395799587 0.690047185
vt 0.0395799587 0.691977355
vt 0.00194164741 0.689082101
vt 0.367708827 0.922632648
vt 0.357092893 0.884029252
vt 0.357092893 0.922632648
vt 0.367708827 0.884029252
vt 0.368673912 0.884029252
vt 0.368673912 0.922632648
vt 0.369638997 0.884029252
vt 0.369638997 0.922632648
vt 0.369638997 0.884029252
vt 0.369638997 0.922632648
vt 0.373499336 0.922632648
vt 0.373499336 0.884029252
vt 0.373499336 0.884029252
vt 0.373499336 0.922632648
vt 0.374464421 0.884029252
vt 0.374464421 0.922632648
vt 0.375429506 0.884029252
vt 0.375429506 0.922632648
vt 0.387010525 0.922632648
vt 0.387010525 0.884029252
vt 0.0945897984 0.268305081
vt 0.111961327 0.28760678
vt 0.111961327 0.268305081
vt 0.0945897984 0.28760678
vt 0.111961327 0.291467119
vt 0.0945897984 0.291467119
vt 0.111961327 0.295327459
vt 0.0945897984 0.295327459
vt 0.111961327 0.298222714
vt 0.0945897984 0.298222714
vt 0.111961327 0.302083053
vt 0.0945897984 0.302083053
vt 0.111961327 0.346476959
vt 0.0945897984 0.346476959
vt 0.653373959 0.262514572
vt 0.657234299 0.213295242
vt 0.653373959 0.214260327
vt 0.657234299 0.261549487
vt 0.658199384 0.261549487
vt 0.658199384 0.213295242
vt 0.659164468 0.261549487
vt 0.659164468 0.213295242
vt 0.663024808 0.213295242
vt 0.663024808 0.261549487
vt 0.532738346 0.49027461
vt 0.528878006 0.489309525
vt 0.528878006 0.523087497
vt 0.532738346 0.524052582
vt 0.533703431 0.524052582
vt 0.533703431 0.49027461
vt 0.533703431 0.49027461
vt 0.533703431 0.524052582
vt 0.534668516 0.524052582
vt 0.534668516 0.49027461
vt 0.538528855 0.489309525
vt 0.538528855 0.523087497
vt 0.675570912 0.167936251
vt 0.675570912 0.0009765625
vt 0.656269214 0.0009765625
vt 0.656269214 0.167936251
vt 0.302083053 0.057916572
vt 0.298222714 0.0569514871
vt 0.298222714 0.105205732
vt 0.302083053 0.106170817
vt 0.303048138 0.106170817
vt 0.303048138 0.0588816569
vt 0.303048138 0.106170817
vt 0.303048138 0.0588816569
vt 0.307873563 0.0588816569
vt 0.307873563 0.106170817
vt 0.503785799 0.90333095
vt 0.503785799 0.856041789
vt 0.453601383 0.856041789
vt 0.453601383 0.90333095
vt 0.503785799 0.904296035
vt 0.453601383 0.904296035
vt 0.503785799 0.905261119
vt 0.453601383 0.905261119
vt 0.503785799 0.906226204
vt 0.453601383 0.906226204
vt 0.503785799 0.911051629
vt 0.453601383 0.911051629
vt 0.503785799 0.912016714
vt 0.453601383 0.912016714
vt 0.503785799 0.912981799
vt 0.453601383 0.912981799
vt 0.503785799 0.913946884
vt 0.453601383 0.913946884
vt 0.503785799 0.960270959
vt 0.453601383 0.960270959
vt 0.679431251 0.249003383
vt 0.69680278 0.249003383
vt 0.69680278 0.208469817
vt 0.679431251 0.208469817
vt 0.678466167 0.0415101286
vt 0.69101227 0.0415101286
vt 0.678466167 0.0009765625
vt 0.695837695 0.0009765625
vt 0.695837695 0.167936251
vt 0.69101227 0.123542346
vt 0.678466167 0.167936251
vt 0.678466167 0.123542346
vt 0.74409194 0.208469817
vt 0.74409194 0.165040997
vt 0.719964818 0.165040997
vt 0.719964818 0.208469817
vt 0.193028459 0.00194164741
vt 0.188203034 0.0009765625
vt 0.188203034 0.0347545342
vt 0.193028459 0.0357196191
vt 0.193028459 0.0357196191
vt 0.193028459 0.00194164741
vt 0.194958629 0.00194164741
vt 0.194958629 0.0357196191
vt 0.194958629 0.0357196191
vt 0.194958629 0.00194164741
vt 0.199784053 0.0009765625
vt 0.199784053 0.0347545342
vt 0.790416016 0.237422364
vt 0.790416016 0.193028459
vt 0.773044487 0.193028459
vt 0.773044487 0.237422364
vt 0.129332855 0.174691846
vt 0.120647091 0.162145742
vt 0.109066072 0.169866421
vt 0.119682006 0.1775871
vt 0.129332855 0.175656931
vt 0.118716921 0.1775871
vt 0.108100987 0.171796591
vt 0.119682006 0.178552185
vt 0.13029794 0.1775871
vt 0.117751836 0.178552185
vt 0.107135902 0.172761676
vt 0.102310478 0.191098289
vt 0.118716921 0.178552185
vt 0.120647091 0.17951727
vt 0.118716921 0.17951727
vt 0.111961327 0.189168119
vt 0.113891497 0.189168119
vt 0.13029794 0.194958629
vt 0.129332855 0.196888798
vt 0.112926412 0.189168119
vt 0.112926412 0.190133204
vt 0.103275563 0.193028459
vt 0.113891497 0.189168119
vt 0.113891497 0.190133204
vt 0.12836777 0.197853883
vt 0.112926412 0.190133204
vt 0.103275563 0.194958629
vt 0.119682006 0.207504732
vt 0.866657723 0.734441091
vt 0.805857374 0.74216177
vt 0.806822459 0.74409194
vt 0.866657723 0.736371261
vt 0.804892289 0.74409194
vt 0.803927204 0.743126855
vt 0.802962119 0.745057025
vt 0.806822459 0.745057025
vt 0.818403478 0.74409194
vt 0.804892289 0.745057025
vt 0.801997035 0.818403478
vt 0.805857374 0.818403478
vt 0.817438393 0.819368563
vt 0.866657723 0.829019412
vt 0.803927204 0.818403478
vt 0.803927204 0.819368563
vt 0.802962119 0.820333648
vt 0.804892289 0.822263818
vt 0.805857374 0.820333648
vt 0.866657723 0.830949582
vt 0.915877053 0.841565516
vt 0.980537742 0.840600431
vt 0.980537742 0.838670261
vt 0.915877053 0.839635346
vt 0.981502827 0.837705176
vt 0.982467912 0.838670261
vt 0.983432997 0.836740091
vt 0.980537742 0.836740091
vt 0.915877053 0.837705176
vt 0.982467912 0.836740091
vt 0.988258421 0.765323808
vt 0.984398082 0.765323808
vt 0.915877053 0.760498384
vt 0.915877053 0.758568214
vt 0.986328252 0.765323808
vt 0.986328252 0.764358723
vt 0.987293337 0.763393638
vt 0.984398082 0.761463468
vt 0.984398082 0.763393638
vt 0.915877053 0.756638044
vt 0.239352534 0.0569514871
vt 0.240317619 0.057916572
vt 0.240317619 0.0569514871
vt 0.240317619 0.057916572
vt 0.241282704 0.0569514871
vt 0.241282704 0.0588816569
vt 0.241282704 0.057916572
vt 0.245143044 0.0588816569
vt 0.240317619 0.0569514871
vt 0.241282704 0.0569514871
vt 0.241282704 0.0569514871
vt 0.245143044 0.057916572
vt 0.240317619 0.00290673231
vt 0.239352534 0.00290673231
vt 0.240317619 0.00290673231
vt 0.240317619 0.00194164741
vt 0.241282704 0.00290673231
vt 0.241282704 0.0569514871
vt 0.241282704 0.0569514871
vt 0.241282704 0.00290673231
vt 0.240317619 0.00194164741
vt 0.241282704 0.0009765625
vt 0.241282704 0.00290673231
vt 0.241282704 0.00290673231
vt 0.245143044 0.0569514871
vt 0.241282704 0.00194164741
vt 0.245143044 0.0569514871
vt 0.245143044 0.0569514871
vt 0.241282704 0.00290673231
vt 0.245143044 0.00194164741
vt 0.245143044 0.0009765625
vt 0.245143044 0.00290673231
vt 0.245143044 0.00290673231
vt 0.245143044 0.00194164741
vt 0.246108129 0.0009765625
vt 0.245143044 0.00290673231
vt 0.245143044 0.00194164741
vt 0.246108129 0.00194164741
vt 0.247073214 0.00290673231
vt 0.245143044 0.00290673231
vt 0.246108129 0.00290673231
vt 0.245143044 0.0569514871
vt 0.246108129 0.0569514871
vt 0.247073214 0.0569514871
vt 0.245143044 0.0569514871
vt 0.246108129 0.057916572
vt 0.245143044 0.057916572
vt 0.246108129 0.057916572
vt 0.150564723 0.184342695
vt 0.149599638 0.186272864
vt 0.150564723 0.18530778
vt 0.149599638 0.186272864
vt 0.149599638 0.18337761
vt 0.149599638 0.196888798
vt 0.150564723 0.197853883
vt 0.148634553 0.18530778
vt 0.148634553 0.18337761
vt 0.147669468 0.18530778
vt 0.139948789 0.18337761
vt 0.148634553 0.186272864
vt 0.148634553 0.186272864
vt 0.149599638 0.187237949
vt 0.149599638 0.197853883
vt 0.150564723 0.198818968
vt 0.148634553 0.197853883
vt 0.149599638 0.199784053
vt 0.148634553 0.196888798
vt 0.148634553 0.196888798
vt 0.148634553 0.187237949
vt 0.148634553 0.186272864
vt 0.147669468 0.198818968
vt 0.148634553 0.199784053
vt 0.148634553 0.197853883
vt 0.148634553 0.196888798
vt 0.148634553 0.196888798
vt 0.140913874 0.198818968
vt 0.139948789 0.199784053
vt 0.147669468 0.197853883
vt 0.147669468 0.187237949
vt 0.147669468 0.196888798
vt 0.147669468 0.196888798
vt 0.140913874 0.197853883
vt 0.139948789 0.197853883
vt 0.138983704 0.199784053
vt 0.140913874 0.196888798
vt 0.139948789 0.197853883
vt 0.138983704 0.197853883
vt 0.138018619 0.198818968
vt 0.140913874 0.196888798
vt 0.139948789 0.196888798
vt 0.139948789 0.196888798
vt 0.138983704 0.196888798
vt 0.138018619 0.197853883
vt 0.139948789 0.196888798
vt 0.139948789 0.196888798
vt 0.138983704 0.186272864
vt 0.138018619 0.18530778
vt 0.139948789 0.187237949
vt 0.139948789 0.187237949
vt 0.138983704 0.186272864
vt 0.138018619 0.184342695
vt 0.140913874 0.187237949
vt 0.139948789 0.186272864
vt 0.139948789 0.18530778
vt 0.138983704 0.184342695
vt 0.139948789 0.186272864
vt 0.147669468 0.186272864
vt 0.139948789 0.186272864
vt 0.140913874 0.18530778
vt 0.140913874 0.186272864
vt 0.147669468 0.18530778
vt 0.140913874 0.18530778
vt 0.447810874 0.305943393
vt 0.448775959 0.301117968
vt 0.446845789 0.304978308
vt 0.449741044 0.302083053
vt 0.448775959 0.305943393
vt 0.449741044 0.28760678
vt 0.446845789 0.28567661
vt 0.449741044 0.303048138
vt 0.449741044 0.306908478
vt 0.450706129 0.303048138
vt 0.459391893 0.306908478
vt 0.450706129 0.302083053
vt 0.449741044 0.302083053
vt 0.449741044 0.301117968
vt 0.449741044 0.28760678
vt 0.447810874 0.284711525
vt 0.450706129 0.286641695
vt 0.448775959 0.28374644
vt 0.449741044 0.28760678
vt 0.449741044 0.288571865
vt 0.450706129 0.301117968
vt 0.450706129 0.301117968
vt 0.450706129 0.286641695
vt 0.449741044 0.282781355
vt 0.450706129 0.28760678
vt 0.450706129 0.28760678
vt 0.450706129 0.288571865
vt 0.458426808 0.286641695
vt 0.459391893 0.282781355
vt 0.450706129 0.286641695
vt 0.450706129 0.301117968
vt 0.451671214 0.288571865
vt 0.451671214 0.28760678
vt 0.458426808 0.286641695
vt 0.459391893 0.286641695
vt 0.460356978 0.28374644
vt 0.457461723 0.28760678
vt 0.458426808 0.28760678
vt 0.459391893 0.28760678
vt 0.461322063 0.28374644
vt 0.457461723 0.288571865
vt 0.458426808 0.28760678
vt 0.459391893 0.28760678
vt 0.460356978 0.28760678
vt 0.462287148 0.284711525
vt 0.458426808 0.288571865
vt 0.459391893 0.288571865
vt 0.459391893 0.301117968
vt 0.462287148 0.304013223
vt 0.459391893 0.301117968
vt 0.458426808 0.301117968
vt 0.459391893 0.302083053
vt 0.461322063 0.304978308
vt 0.457461723 0.301117968
vt 0.458426808 0.302083053
vt 0.458426808 0.303048138
vt 0.460356978 0.305943393
vt 0.458426808 0.301117968
vt 0.450706129 0.301117968
vt 0.458426808 0.302083053
vt 0.458426808 0.303048138
vt 0.457461723 0.301117968
vt 0.450706129 0.302083053
vt 0.457461723 0.302083053
g lou_02lou_02_mobile_0
f 3/3/3 2/2/2 1/1/1
f 4/4/4 3/3/3 1/1/1
f 7/7/7 6/6/6 5/5/5
f 8/8/8 7/7/7 5/5/5
f 11/11/11 10/10/10 9/9/9
f 12/12/12 11/11/11 9/9/9
f 15/15/15 14/14/14 13/13/13
f 16/16/16 15/15/15 13/13/13
f 16/16/16 13/13/13 17/17/17
f 18/18/18 16/16/16 17/17/17
f 18/18/18 17/17/17 19/19/19
f 20/20/20 18/18/18 19/19/19
f 20/20/20 19/19/19 21/21/21
f 22/22/22 20/20/20 21/21/21
f 22/22/22 21/21/21 23/23/23
f 24/24/24 22/22/22 23/23/23
f 23/23/23 25/25/25 24/24/24
f 25/25/25 26/26/26 24/24/24
f 25/25/25 27/27/27 26/26/26
f 27/27/27 28/28/28 26/26/26
f 27/27/27 29/29/29 28/28/28
f 29/29/29 30/30/30 28/28/28
f 30/30/30 29/29/29 31/31/31
f 32/32/32 30/30/30 31/31/31
f 35/35/35 34/34/34 33/33/33
f 36/36/36 35/35/35 33/33/33
f 35/35/35 36/36/36 37/37/37
f 36/36/36 38/38/38 37/37/37
f 37/37/37 38/38/38 39/39/39
f 38/38/38 40/40/40 39/39/39
f 39/39/39 40/40/40 41/41/41
f 40/40/40 42/42/42 41/41/41
f 41/41/41 42/42/42 43/43/43
f 42/42/42 44/44/44 43/43/43
f 45/45/45 43/43/43 44/44/44
f 46/46/46 45/45/45 44/44/44
f 49/49/49 48/48/48 47/47/47
f 48/48/48 50/50/50 47/47/47
f 48/48/48 51/51/51 50/50/50
f 50/50/50 52/52/52 47/47/47
f 52/52/52 53/53/53 47/47/47
f 51/51/51 54/54/54 50/50/50
f 51/51/51 55/55/55 54/54/54
f 52/52/52 56/56/56 53/53/53
f 56/56/56 57/57/57 53/53/53
f 58/58/58 57/57/57 56/56/56
f 59/59/59 52/52/52 50/50/50
f 54/54/54 59/59/59 50/50/50
f 52/52/52 59/59/59 56/56/56
f 55/55/55 60/60/60 54/54/54
f 59/59/59 54/54/54 60/60/60
f 59/59/59 61/61/61 56/56/56
f 61/61/61 59/59/59 60/60/60
f 62/62/62 58/58/58 56/56/56
f 62/62/62 56/56/56 61/61/61
f 63/63/63 60/60/60 55/55/55
f 64/64/64 63/63/63 55/55/55
f 63/63/63 64/64/64 65/65/65
f 66/66/66 61/61/61 60/60/60
f 66/66/66 62/62/62 61/61/61
f 63/63/63 66/66/66 60/60/60
f 58/58/58 62/62/62 67/67/67
f 68/68/68 58/58/58 67/67/67
f 66/66/66 69/69/69 62/62/62
f 69/69/69 66/66/66 63/63/63
f 69/69/69 67/67/67 62/62/62
f 70/70/70 63/63/63 65/65/65
f 70/70/70 69/69/69 63/63/63
f 70/70/70 65/65/65 71/71/71
f 68/68/68 67/67/67 72/72/72
f 67/67/67 69/69/69 72/72/72
f 69/69/69 70/70/70 72/72/72
f 72/72/72 70/70/70 71/71/71
f 73/73/73 68/68/68 72/72/72
f 72/72/72 71/71/71 74/74/74
f 73/73/73 72/72/72 74/74/74
f 77/77/77 76/76/76 75/75/75
f 78/78/78 77/77/77 75/75/75
f 78/78/78 75/75/75 79/79/79
f 75/75/75 80/80/80 79/79/79
f 81/81/81 79/79/79 80/80/80
f 82/82/82 81/81/81 80/80/80
f 81/81/81 82/82/82 83/83/83
f 77/77/77 78/78/78 84/84/84
f 85/85/85 77/77/77 84/84/84
f 86/86/86 85/85/85 84/84/84
f 78/78/78 79/79/79 87/87/87
f 79/79/79 81/81/81 87/87/87
f 84/84/84 78/78/78 87/87/87
f 88/88/88 86/86/86 84/84/84
f 89/89/89 86/86/86 88/88/88
f 87/87/87 90/90/90 84/84/84
f 90/90/90 88/88/88 84/84/84
f 81/81/81 91/91/91 87/87/87
f 87/87/87 91/91/91 90/90/90
f 92/92/92 89/89/89 88/88/88
f 89/89/89 92/92/92 93/93/93
f 94/94/94 89/89/89 93/93/93
f 93/93/93 92/92/92 95/95/95
f 92/92/92 88/88/88 96/96/96
f 92/92/92 96/96/96 95/95/95
f 88/88/88 90/90/90 96/96/96
f 96/96/96 97/97/97 95/95/95
f 97/97/97 96/96/96 90/90/90
f 97/97/97 98/98/98 95/95/95
f 98/98/98 97/97/97 99/99/99
f 91/91/91 100/100/100 90/90/90
f 100/100/100 97/97/97 90/90/90
f 91/91/91 101/101/101 100/100/100
f 91/91/91 81/81/81 101/101/101
f 97/97/97 102/102/102 99/99/99
f 99/99/99 102/102/102 103/103/103
f 97/97/97 100/100/100 104/104/104
f 101/101/101 104/104/104 100/100/100
f 102/102/102 105/105/105 103/103/103
f 105/105/105 106/106/106 103/103/103
f 106/106/106 107/107/107 103/103/103
f 107/107/107 106/106/106 108/108/108
f 102/102/102 97/97/97 109/109/109
f 102/102/102 109/109/109 105/105/105
f 110/110/110 97/97/97 104/104/104
f 97/97/97 110/110/110 109/109/109
f 106/106/106 111/111/111 108/108/108
f 108/108/108 111/111/111 112/112/112
f 106/106/106 105/105/105 113/113/113
f 109/109/109 113/113/113 105/105/105
f 114/114/114 110/110/110 104/104/104
f 115/115/115 114/114/114 104/104/104
f 115/115/115 104/104/104 101/101/101
f 114/114/114 116/116/116 110/110/110
f 116/116/116 109/109/109 110/110/110
f 116/116/116 117/117/117 109/109/109
f 117/117/117 113/113/113 109/109/109
f 118/118/118 115/115/115 101/101/101
f 117/117/117 119/119/119 113/113/113
f 118/118/118 101/101/101 120/120/120
f 121/121/121 118/118/118 120/120/120
f 81/81/81 120/120/120 101/101/101
f 119/119/119 122/122/122 113/113/113
f 122/122/122 106/106/106 113/113/113
f 119/119/119 123/123/123 122/122/122
f 121/121/121 120/120/120 124/124/124
f 120/120/120 81/81/81 124/124/124
f 125/125/125 121/121/121 124/124/124
f 106/106/106 122/122/122 126/126/126
f 123/123/123 126/126/126 122/122/122
f 111/111/111 106/106/106 126/126/126
f 123/123/123 127/127/127 126/126/126
f 81/81/81 128/128/128 124/124/124
f 128/128/128 81/81/81 83/83/83
f 125/125/125 124/124/124 129/129/129
f 129/129/129 124/124/124 128/128/128
f 130/130/130 125/125/125 129/129/129
f 131/131/131 128/128/128 83/83/83
f 131/131/131 129/129/129 128/128/128
f 131/131/131 132/132/132 129/129/129
f 133/133/133 131/131/131 83/83/83
f 132/132/132 131/131/131 133/133/133
f 134/134/134 132/132/132 133/133/133
f 132/132/132 134/134/134 135/135/135
f 130/130/130 129/129/129 136/136/136
f 132/132/132 136/136/136 129/129/129
f 137/137/137 130/130/130 136/136/136
f 137/137/137 136/136/136 138/138/138
f 136/136/136 132/132/132 138/138/138
f 139/139/139 137/137/137 138/138/138
f 140/140/140 132/132/132 135/135/135
f 132/132/132 140/140/140 138/138/138
f 139/139/139 138/138/138 141/141/141
f 141/141/141 138/138/138 140/140/140
f 142/142/142 139/139/139 141/141/141
f 143/143/143 140/140/140 135/135/135
f 143/143/143 141/141/141 140/140/140
f 143/143/143 144/144/144 141/141/141
f 145/145/145 143/143/143 135/135/135
f 144/144/144 143/143/143 145/145/145
f 146/146/146 144/144/144 145/145/145
f 144/144/144 146/146/146 147/147/147
f 142/142/142 141/141/141 148/148/148
f 144/144/144 148/148/148 141/141/141
f 149/149/149 142/142/142 148/148/148
f 149/149/149 148/148/148 150/150/150
f 148/148/148 144/144/144 150/150/150
f 151/151/151 149/149/149 150/150/150
f 152/152/152 144/144/144 147/147/147
f 144/144/144 152/152/152 150/150/150
f 150/150/150 153/153/153 151/151/151
f 153/153/153 150/150/150 152/152/152
f 153/153/153 154/154/154 151/151/151
f 155/155/155 152/152/152 147/147/147
f 155/155/155 153/153/153 152/152/152
f 156/156/156 155/155/155 147/147/147
f 157/157/157 155/155/155 156/156/156
f 155/155/155 157/157/157 153/153/153
f 158/158/158 157/157/157 156/156/156
f 157/157/157 158/158/158 159/159/159
f 154/154/154 153/153/153 160/160/160
f 157/157/157 160/160/160 153/153/153
f 160/160/160 157/157/157 159/159/159
f 161/161/161 154/154/154 160/160/160
f 161/161/161 160/160/160 159/159/159
f 162/162/162 161/161/161 159/159/159
f 165/165/165 164/164/164 163/163/163
f 166/166/166 165/165/165 163/163/163
f 166/166/166 163/163/163 167/167/167
f 163/163/163 168/168/168 167/167/167
f 166/166/166 167/167/167 169/169/169
f 170/170/170 166/166/166 169/169/169
f 171/171/171 167/167/167 168/168/168
f 167/167/167 171/171/171 169/169/169
f 172/172/172 171/171/171 168/168/168
f 173/173/173 171/171/171 172/172/172
f 171/171/171 173/173/173 169/169/169
f 174/174/174 173/173/173 172/172/172
f 173/173/173 174/174/174 175/175/175
f 170/170/170 169/169/169 176/176/176
f 169/169/169 173/173/173 176/176/176
f 177/177/177 170/170/170 176/176/176
f 178/178/178 173/173/173 175/175/175
f 173/173/173 178/178/178 176/176/176
f 177/177/177 176/176/176 179/179/179
f 179/179/179 176/176/176 178/178/178
f 180/180/180 177/177/177 179/179/179
f 181/181/181 178/178/178 175/175/175
f 181/181/181 179/179/179 178/178/178
f 181/181/181 182/182/182 179/179/179
f 183/183/183 181/181/181 175/175/175
f 182/182/182 181/181/181 183/183/183
f 184/184/184 182/182/182 183/183/183
f 182/182/182 184/184/184 112/112/112
f 180/180/180 179/179/179 185/185/185
f 182/182/182 185/185/185 179/179/179
f 186/186/186 180/180/180 185/185/185
f 186/186/186 185/185/185 187/187/187
f 185/185/185 182/182/182 187/187/187
f 127/127/127 186/186/186 187/187/187
f 127/127/127 187/187/187 126/126/126
f 188/188/188 182/182/182 112/112/112
f 182/182/182 188/188/188 187/187/187
f 126/126/126 187/187/187 188/188/188
f 111/111/111 188/188/188 112/112/112
f 111/111/111 126/126/126 188/188/188
f 191/191/191 190/190/190 189/189/189
f 190/190/190 192/192/192 189/189/189
f 192/192/192 190/190/190 193/193/193
f 194/194/194 189/189/189 192/192/192
f 195/195/195 192/192/192 193/193/193
f 193/193/193 196/196/196 195/195/195
f 196/196/196 197/197/197 195/195/195
f 197/197/197 198/198/198 195/195/195
f 196/196/196 199/199/199 197/197/197
f 199/199/199 200/200/200 197/197/197
f 198/198/198 197/197/197 200/200/200
f 200/200/200 199/199/199 201/201/201
f 195/195/195 202/202/202 192/192/192
f 198/198/198 202/202/202 195/195/195
f 203/203/203 194/194/194 192/192/192
f 202/202/202 203/203/203 192/192/192
f 194/194/194 203/203/203 204/204/204
f 205/205/205 194/194/194 204/204/204
f 206/206/206 205/205/205 204/204/204
f 207/207/207 206/206/206 204/204/204
f 202/202/202 208/208/208 203/203/203
f 208/208/208 204/204/204 203/203/203
f 207/207/207 204/204/204 208/208/208
f 202/202/202 198/198/198 208/208/208
f 209/209/209 207/207/207 208/208/208
f 209/209/209 208/208/208 210/210/210
f 198/198/198 210/210/210 208/208/208
f 211/211/211 209/209/209 210/210/210
f 211/211/211 210/210/210 212/212/212
f 210/210/210 198/198/198 212/212/212
f 213/213/213 211/211/211 212/212/212
f 198/198/198 214/214/214 212/212/212
f 214/214/214 198/198/198 200/200/200
f 213/213/213 212/212/212 215/215/215
f 215/215/215 212/212/212 214/214/214
f 216/216/216 213/213/213 215/215/215
f 217/217/217 214/214/214 200/200/200
f 217/217/217 215/215/215 214/214/214
f 217/217/217 218/218/218 215/215/215
f 216/216/216 215/215/215 219/219/219
f 218/218/218 219/219/219 215/215/215
f 220/220/220 216/216/216 219/219/219
f 221/221/221 217/217/217 200/200/200
f 218/218/218 217/217/217 221/221/221
f 221/221/221 200/200/200 201/201/201
f 201/201/201 222/222/222 221/221/221
f 220/220/220 219/219/219 223/223/223
f 219/219/219 218/218/218 223/223/223
f 224/224/224 220/220/220 223/223/223
f 222/222/222 225/225/225 221/221/221
f 225/225/225 218/218/218 221/221/221
f 222/222/222 226/226/226 225/225/225
f 226/226/226 227/227/227 225/225/225
f 218/218/218 225/225/225 227/227/227
f 227/227/227 226/226/226 228/228/228
f 218/218/218 229/229/229 223/223/223
f 229/229/229 218/218/218 227/227/227
f 224/224/224 223/223/223 230/230/230
f 230/230/230 223/223/223 229/229/229
f 231/231/231 224/224/224 230/230/230
f 232/232/232 227/227/227 228/228/228
f 228/228/228 233/233/233 232/232/232
f 234/234/234 229/229/229 227/227/227
f 234/234/234 230/230/230 229/229/229
f 232/232/232 234/234/234 227/227/227
f 234/234/234 235/235/235 230/230/230
f 235/235/235 234/234/234 232/232/232
f 231/231/231 230/230/230 236/236/236
f 235/235/235 236/236/236 230/230/230
f 237/237/237 231/231/231 236/236/236
f 233/233/233 238/238/238 232/232/232
f 238/238/238 235/235/235 232/232/232
f 233/233/233 239/239/239 238/238/238
f 237/237/237 236/236/236 240/240/240
f 236/236/236 235/235/235 240/240/240
f 241/241/241 237/237/237 240/240/240
f 239/239/239 242/242/242 238/238/238
f 235/235/235 238/238/238 242/242/242
f 242/242/242 239/239/239 243/243/243
f 235/235/235 244/244/244 240/240/240
f 244/244/244 235/235/235 242/242/242
f 240/240/240 245/245/245 241/241/241
f 240/240/240 244/244/244 245/245/245
f 245/245/245 246/246/246 241/241/241
f 247/247/247 242/242/242 243/243/243
f 247/247/247 243/243/243 248/248/248
f 244/244/244 242/242/242 249/249/249
f 244/244/244 249/249/249 245/245/245
f 242/242/242 247/247/247 249/249/249
f 245/245/245 250/250/250 246/246/246
f 250/250/250 251/251/251 246/246/246
f 249/249/249 252/252/252 245/245/245
f 252/252/252 249/249/249 247/247/247
f 252/252/252 250/250/250 245/245/245
f 253/253/253 247/247/247 248/248/248
f 253/253/253 252/252/252 247/247/247
f 253/253/253 248/248/248 254/254/254
f 250/250/250 255/255/255 251/251/251
f 250/250/250 252/252/252 255/255/255
f 252/252/252 253/253/253 255/255/255
f 255/255/255 253/253/253 254/254/254
f 255/255/255 256/256/256 251/251/251
f 255/255/255 254/254/254 257/257/257
f 256/256/256 255/255/255 257/257/257
f 260/260/260 259/259/259 258/258/258
f 259/259/259 261/261/261 258/258/258
f 262/262/262 258/258/258 261/261/261
f 263/263/263 261/261/261 259/259/259
f 264/264/264 263/263/263 259/259/259
f 264/264/264 265/265/265 263/263/263
f 265/265/265 266/266/266 263/263/263
f 266/266/266 267/267/267 263/263/263
f 265/265/265 268/268/268 266/266/266
f 268/268/268 269/269/269 266/266/266
f 267/267/267 266/266/266 269/269/269
f 268/268/268 270/270/270 269/269/269
f 261/261/261 263/263/263 271/271/271
f 267/267/267 271/271/271 263/263/263
f 272/272/272 262/262/262 261/261/261
f 272/272/272 261/261/261 271/271/271
f 262/262/262 272/272/272 273/273/273
f 274/274/274 262/262/262 273/273/273
f 275/275/275 274/274/274 273/273/273
f 276/276/276 275/275/275 273/273/273
f 272/272/272 271/271/271 277/277/277
f 273/273/273 272/272/272 277/277/277
f 276/276/276 273/273/273 277/277/277
f 271/271/271 267/267/267 277/277/277
f 278/278/278 276/276/276 277/277/277
f 278/278/278 277/277/277 279/279/279
f 267/267/267 279/279/279 277/277/277
f 280/280/280 278/278/278 279/279/279
f 280/280/280 279/279/279 281/281/281
f 279/279/279 267/267/267 281/281/281
f 282/282/282 280/280/280 281/281/281
f 267/267/267 283/283/283 281/281/281
f 283/283/283 267/267/267 269/269/269
f 281/281/281 284/284/284 282/282/282
f 281/281/281 283/283/283 284/284/284
f 284/284/284 285/285/285 282/282/282
f 283/283/283 269/269/269 286/286/286
f 283/283/283 286/286/286 284/284/284
f 286/286/286 287/287/287 284/284/284
f 285/285/285 284/284/284 288/288/288
f 287/287/287 288/288/288 284/284/284
f 289/289/289 285/285/285 288/288/288
f 269/269/269 290/290/290 286/286/286
f 287/287/287 286/286/286 290/290/290
f 270/270/270 290/290/290 269/269/269
f 270/270/270 291/291/291 290/290/290
f 289/289/289 288/288/288 292/292/292
f 288/288/288 287/287/287 292/292/292
f 293/293/293 289/289/289 292/292/292
f 291/291/291 294/294/294 290/290/290
f 294/294/294 287/287/287 290/290/290
f 291/291/291 295/295/295 294/294/294
f 295/295/295 296/296/296 294/294/294
f 287/287/287 294/294/294 296/296/296
f 295/295/295 297/297/297 296/296/296
f 287/287/287 298/298/298 292/292/292
f 298/298/298 287/287/287 296/296/296
f 292/292/292 299/299/299 293/293/293
f 292/292/292 298/298/298 299/299/299
f 299/299/299 300/300/300 293/293/293
f 297/297/297 301/301/301 296/296/296
f 297/297/297 302/302/302 301/301/301
f 298/298/298 296/296/296 303/303/303
f 298/298/298 303/303/303 299/299/299
f 296/296/296 301/301/301 303/303/303
f 303/303/303 304/304/304 299/299/299
f 304/304/304 303/303/303 301/301/301
f 300/300/300 299/299/299 305/305/305
f 304/304/304 305/305/305 299/299/299
f 306/306/306 300/300/300 305/305/305
f 302/302/302 307/307/307 301/301/301
f 307/307/307 304/304/304 301/301/301
f 302/302/302 308/308/308 307/307/307
f 306/306/306 305/305/305 309/309/309
f 305/305/305 304/304/304 309/309/309
f 310/310/310 306/306/306 309/309/309
f 308/308/308 311/311/311 307/307/307
f 304/304/304 307/307/307 311/311/311
f 308/308/308 312/312/312 311/311/311
f 304/304/304 313/313/313 309/309/309
f 313/313/313 304/304/304 311/311/311
f 309/309/309 314/314/314 310/310/310
f 309/309/309 313/313/313 314/314/314
f 314/314/314 315/315/315 310/310/310
f 312/312/312 316/316/316 311/311/311
f 312/312/312 317/317/317 316/316/316
f 313/313/313 311/311/311 318/318/318
f 313/313/313 318/318/318 314/314/314
f 311/311/311 316/316/316 318/318/318
f 315/315/315 314/314/314 319/319/319
f 320/320/320 315/315/315 319/319/319
f 318/318/318 321/321/321 314/314/314
f 321/321/321 318/318/318 316/316/316
f 321/321/321 319/319/319 314/314/314
f 317/317/317 322/322/322 316/316/316
f 322/322/322 321/321/321 316/316/316
f 317/317/317 323/323/323 322/322/322
f 320/320/320 319/319/319 324/324/324
f 319/319/319 321/321/321 324/324/324
f 325/325/325 320/320/320 324/324/324
f 326/326/326 321/321/321 322/322/322
f 321/321/321 326/326/326 324/324/324
f 323/323/323 327/327/327 322/322/322
f 327/327/327 326/326/326 322/322/322
f 323/323/323 328/328/328 327/327/327
f 324/324/324 326/326/326 329/329/329
f 326/326/326 327/327/327 329/329/329
f 325/325/325 324/324/324 329/329/329
f 328/328/328 329/329/329 327/327/327
f 330/330/330 325/325/325 329/329/329
f 330/330/330 329/329/329 328/328/328
f 331/331/331 325/325/325 330/330/330
f 332/332/332 330/330/330 328/328/328
f 333/333/333 331/331/331 330/330/330
f 332/332/332 334/334/334 330/330/330
f 334/334/334 333/333/333 330/330/330
f 337/337/337 336/336/336 335/335/335
f 338/338/338 337/337/337 335/335/335
f 341/341/341 340/340/340 339/339/339
f 340/340/340 342/342/342 339/339/339
f 342/342/342 343/343/343 339/339/339
f 343/343/343 344/344/344 339/339/339
f 343/343/343 345/345/345 344/344/344
f 345/345/345 346/346/346 344/344/344
f 345/345/345 347/347/347 346/346/346
f 347/347/347 348/348/348 346/346/346
f 349/349/349 348/348/348 347/347/347
f 350/350/350 349/349/349 347/347/347
f 349/349/349 350/350/350 351/351/351
f 352/352/352 349/349/349 351/351/351
f 352/352/352 351/351/351 353/353/353
f 354/354/354 352/352/352 353/353/353
f 354/354/354 353/353/353 355/355/355
f 356/356/356 354/354/354 355/355/355
f 356/356/356 355/355/355 357/357/357
f 355/355/355 358/358/358 357/357/357
f 361/361/361 360/360/360 359/359/359
f 362/362/362 361/361/361 359/359/359
f 365/365/365 364/364/364 363/363/363
f 366/366/366 365/365/365 363/363/363
f 367/367/367 366/366/366 363/363/363
f 368/368/368 367/367/367 363/363/363
f 367/367/367 368/368/368 369/369/369
f 370/370/370 367/367/367 369/369/369
f 371/371/371 370/370/370 369/369/369
f 372/372/372 371/371/371 369/369/369
f 371/371/371 372/372/372 373/373/373
f 374/374/374 371/371/371 373/373/373
f 377/377/377 376/376/376 375/375/375
f 378/378/378 377/377/377 375/375/375
f 378/378/378 375/375/375 379/379/379
f 380/380/380 378/378/378 379/379/379
f 380/380/380 379/379/379 381/381/381
f 382/382/382 380/380/380 381/381/381
f 382/382/382 381/381/381 383/383/383
f 384/384/384 382/382/382 383/383/383
f 383/383/383 385/385/385 384/384/384
f 385/385/385 386/386/386 384/384/384
f 385/385/385 387/387/387 386/386/386
f 387/387/387 388/388/388 386/386/386
f 388/388/388 387/387/387 389/389/389
f 390/390/390 388/388/388 389/389/389
f 393/393/393 392/392/392 391/391/391
f 394/394/394 393/393/393 391/391/391
f 393/393/393 394/394/394 395/395/395
f 394/394/394 396/396/396 395/395/395
f 395/395/395 396/396/396 397/397/397
f 396/396/396 398/398/398 397/397/397
f 397/397/397 398/398/398 399/399/399
f 398/398/398 400/400/400 399/399/399
f 399/399/399 400/400/400 401/401/401
f 400/400/400 402/402/402 401/401/401
f 403/403/403 401/401/401 402/402/402
f 404/404/404 403/403/403 402/402/402
f 407/407/407 406/406/406 405/405/405
f 406/406/406 408/408/408 405/405/405
f 406/406/406 409/409/409 408/408/408
f 408/408/408 410/410/410 405/405/405
f 410/410/410 411/411/411 405/405/405
f 411/411/411 410/410/410 412/412/412
f 409/409/409 413/413/413 408/408/408
f 409/409/409 414/414/414 413/413/413
f 410/410/410 415/415/415 412/412/412
f 412/412/412 415/415/415 416/416/416
f 417/417/417 410/410/410 408/408/408
f 413/413/413 417/417/417 408/408/408
f 417/417/417 415/415/415 410/410/410
f 414/414/414 418/418/418 413/413/413
f 417/417/417 413/413/413 418/418/418
f 415/415/415 419/419/419 416/416/416
f 416/416/416 419/419/419 420/420/420
f 415/415/415 417/417/417 421/421/421
f 419/419/419 415/415/415 421/421/421
f 421/421/421 417/417/417 418/418/418
f 422/422/422 418/418/418 414/414/414
f 423/423/423 422/422/422 414/414/414
f 419/419/419 424/424/424 420/420/420
f 419/419/419 421/421/421 424/424/424
f 421/421/421 418/418/418 425/425/425
f 418/418/418 422/422/422 425/425/425
f 421/421/421 425/425/425 424/424/424
f 426/426/426 422/422/422 423/423/423
f 427/427/427 426/426/426 423/423/423
f 428/428/428 425/425/425 422/422/422
f 425/425/425 428/428/428 424/424/424
f 426/426/426 428/428/428 422/422/422
f 424/424/424 429/429/429 420/420/420
f 428/428/428 429/429/429 424/424/424
f 429/429/429 430/430/430 420/420/420
f 430/430/430 429/429/429 431/431/431
f 429/429/429 428/428/428 432/432/432
f 429/429/429 432/432/432 431/431/431
f 432/432/432 428/428/428 426/426/426
f 431/431/431 432/432/432 433/433/433
f 434/434/434 426/426/426 427/427/427
f 434/434/434 432/432/432 426/426/426
f 432/432/432 434/434/434 433/433/433
f 435/435/435 434/434/434 427/427/427
f 433/433/433 434/434/434 435/435/435
f 436/436/436 433/433/433 435/435/435
f 439/439/439 438/438/438 437/437/437
f 438/438/438 440/440/440 437/437/437
f 438/438/438 441/441/441 440/440/440
f 440/440/440 442/442/442 437/437/437
f 442/442/442 443/443/443 437/437/437
f 443/443/443 442/442/442 444/444/444
f 441/441/441 445/445/445 440/440/440
f 441/441/441 446/446/446 445/445/445
f 442/442/442 447/447/447 444/444/444
f 444/444/444 447/447/447 448/448/448
f 449/449/449 442/442/442 440/440/440
f 445/445/445 449/449/449 440/440/440
f 449/449/449 447/447/447 442/442/442
f 446/446/446 450/450/450 445/445/445
f 449/449/449 445/445/445 450/450/450
f 447/447/447 451/451/451 448/448/448
f 452/452/452 448/448/448 451/451/451
f 447/447/447 449/449/449 453/453/453
f 451/451/451 447/447/447 453/453/453
f 453/453/453 449/449/449 450/450/450
f 450/450/450 446/446/446 454/454/454
f 446/446/446 455/455/455 454/454/454
f 456/456/456 452/452/452 451/451/451
f 456/456/456 451/451/451 453/453/453
f 457/457/457 453/453/453 450/450/450
f 454/454/454 457/457/457 450/450/450
f 457/457/457 456/456/456 453/453/453
f 458/458/458 454/454/454 455/455/455
f 459/459/459 458/458/458 455/455/455
f 460/460/460 457/457/457 454/454/454
f 457/457/457 460/460/460 456/456/456
f 458/458/458 460/460/460 454/454/454
f 456/456/456 461/461/461 452/452/452
f 460/460/460 461/461/461 456/456/456
f 461/461/461 462/462/462 452/452/452
f 462/462/462 461/461/461 463/463/463
f 461/461/461 460/460/460 464/464/464
f 461/461/461 464/464/464 463/463/463
f 464/464/464 460/460/460 458/458/458
f 463/463/463 464/464/464 465/465/465
f 466/466/466 458/458/458 459/459/459
f 466/466/466 464/464/464 458/458/458
f 464/464/464 466/466/466 465/465/465
f 467/467/467 466/466/466 459/459/459
f 465/465/465 466/466/466 467/467/467
f 468/468/468 465/465/465 467/467/467
f 471/471/471 470/470/470 469/469/469
f 470/470/470 472/472/472 469/469/469
f 472/472/472 473/473/473 469/469/469
f 473/473/473 474/474/474 469/469/469
f 473/473/473 475/475/475 474/474/474
f 475/475/475 476/476/476 474/474/474
f 475/475/475 477/477/477 476/476/476
f 477/477/477 478/478/478 476/476/476
f 478/478/478 477/477/477 479/479/479
f 477/477/477 480/480/480 479/479/479
f 479/479/479 480/480/480 481/481/481
f 482/482/482 479/479/479 481/481/481
f 482/482/482 481/481/481 483/483/483
f 484/484/484 482/482/482 483/483/483
f 484/484/484 483/483/483 485/485/485
f 486/486/486 484/484/484 485/485/485
f 486/486/486 485/485/485 487/487/487
f 488/488/488 486/486/486 487/487/487
f 491/491/491 490/490/490 489/489/489
f 492/492/492 491/491/491 489/489/489
f 492/492/492 489/489/489 493/493/493
f 492/492/492 494/494/494 491/491/491
f 494/494/494 495/495/495 491/491/491
f 495/495/495 494/494/494 496/496/496
f 497/497/497 492/492/492 493/493/493
f 497/497/497 493/493/493 498/498/498
f 494/494/494 499/499/499 496/496/496
f 496/496/496 499/499/499 500/500/500
f 501/501/501 494/494/494 492/492/492
f 497/497/497 501/501/501 492/492/492
f 499/499/499 494/494/494 501/501/501
f 502/502/502 497/497/497 498/498/498
f 501/501/501 497/497/497 502/502/502
f 498/498/498 503/503/503 502/502/502
f 499/499/499 504/504/504 500/500/500
f 505/505/505 500/500/500 504/504/504
f 499/499/499 501/501/501 506/506/506
f 504/504/504 499/499/499 506/506/506
f 506/506/506 501/501/501 502/502/502
f 503/503/503 507/507/507 502/502/502
f 503/503/503 508/508/508 507/507/507
f 509/509/509 505/505/505 504/504/504
f 509/509/509 504/504/504 506/506/506
f 510/510/510 506/506/506 502/502/502
f 507/507/507 510/510/510 502/502/502
f 510/510/510 509/509/509 506/506/506
f 508/508/508 511/511/511 507/507/507
f 508/508/508 512/512/512 511/511/511
f 513/513/513 510/510/510 507/507/507
f 510/510/510 513/513/513 509/509/509
f 511/511/511 513/513/513 507/507/507
f 509/509/509 514/514/514 505/505/505
f 513/513/513 514/514/514 509/509/509
f 514/514/514 515/515/515 505/505/505
f 515/515/515 514/514/514 516/516/516
f 517/517/517 514/514/514 513/513/513
f 514/514/514 517/517/517 516/516/516
f 517/517/517 513/513/513 511/511/511
f 516/516/516 517/517/517 518/518/518
f 512/512/512 519/519/519 511/511/511
f 519/519/519 517/517/517 511/511/511
f 517/517/517 519/519/519 518/518/518
f 512/512/512 520/520/520 519/519/519
f 520/520/520 518/518/518 519/519/519
f 523/523/523 522/522/522 521/521/521
f 522/522/522 524/524/524 521/521/521
f 524/524/524 525/525/525 521/521/521
f 525/525/525 526/526/526 521/521/521
f 525/525/525 527/527/527 526/526/526
f 527/527/527 528/528/528 526/526/526
f 527/527/527 529/529/529 528/528/528
f 529/529/529 530/530/530 528/528/528
f 531/531/531 530/530/530 529/529/529
f 532/532/532 531/531/531 529/529/529
f 531/531/531 532/532/532 533/533/533
f 534/534/534 531/531/531 533/533/533
f 534/534/534 533/533/533 535/535/535
f 536/536/536 534/534/534 535/535/535
f 536/536/536 535/535/535 537/537/537
f 538/538/538 536/536/536 537/537/537
f 538/538/538 537/537/537 539/539/539
f 537/537/537 540/540/540 539/539/539
f 543/543/543 542/542/542 541/541/541
f 542/542/542 544/544/544 541/541/541
f 544/544/544 542/542/542 545/545/545
f 546/546/546 544/544/544 545/545/545
f 546/546/546 545/545/545 547/547/547
f 548/548/548 546/546/546 547/547/547
f 548/548/548 547/547/547 549/549/549
f 550/550/550 548/548/548 549/549/549
f 550/550/550 549/549/549 551/551/551
f 552/552/552 550/550/550 551/551/551
f 551/551/551 553/553/553 552/552/552
f 553/553/553 554/554/554 552/552/552
f 557/557/557 556/556/556 555/555/555
f 556/556/556 558/558/558 555/555/555
f 558/558/558 556/556/556 559/559/559
f 556/556/556 560/560/560 559/559/559
f 559/559/559 560/560/560 561/561/561
f 560/560/560 562/562/562 561/561/561
f 562/562/562 563/563/563 561/561/561
f 563/563/563 564/564/564 561/561/561
f 567/567/567 566/566/566 565/565/565
f 568/568/568 567/567/567 565/565/565
f 569/569/569 568/568/568 565/565/565
f 570/570/570 569/569/569 565/565/565
f 569/569/569 570/570/570 571/571/571
f 572/572/572 569/569/569 571/571/571
f 573/573/573 572/572/572 571/571/571
f 574/574/574 573/573/573 571/571/571
f 573/573/573 574/574/574 575/575/575
f 576/576/576 573/573/573 575/575/575
f 579/579/579 578/578/578 577/577/577
f 580/580/580 579/579/579 577/577/577
f 583/583/583 582/582/582 581/581/581
f 584/584/584 583/583/583 581/581/581
f 585/585/585 584/584/584 581/581/581
f 586/586/586 585/585/585 581/581/581
f 587/587/587 585/585/585 586/586/586
f 588/588/588 587/587/587 586/586/586
f 587/587/587 588/588/588 589/589/589
f 590/590/590 587/587/587 589/589/589
f 593/593/593 592/592/592 591/591/591
f 594/594/594 593/593/593 591/591/591
f 594/594/594 591/591/591 595/595/595
f 596/596/596 594/594/594 595/595/595
f 596/596/596 595/595/595 597/597/597
f 598/598/598 596/596/596 597/597/597
f 598/598/598 597/597/597 599/599/599
f 600/600/600 598/598/598 599/599/599
f 600/600/600 599/599/599 601/601/601
f 602/602/602 600/600/600 601/601/601
f 601/601/601 603/603/603 602/602/602
f 603/603/603 604/604/604 602/602/602
f 603/603/603 605/605/605 604/604/604
f 605/605/605 606/606/606 604/604/604
f 605/605/605 607/607/607 606/606/606
f 607/607/607 608/608/608 606/606/606
f 608/608/608 607/607/607 609/609/609
f 610/610/610 608/608/608 609/609/609
f 613/613/613 612/612/612 611/611/611
f 614/614/614 613/613/613 611/611/611
f 617/617/617 616/616/616 615/615/615
f 618/618/618 616/616/616 617/617/617
f 619/619/619 616/616/616 618/618/618
f 619/619/619 620/620/620 616/616/616
f 621/621/621 620/620/620 619/619/619
f 621/621/621 622/622/622 620/620/620
f 625/625/625 624/624/624 623/623/623
f 626/626/626 625/625/625 623/623/623
f 629/629/629 628/628/628 627/627/627
f 630/630/630 629/629/629 627/627/627
f 631/631/631 630/630/630 627/627/627
f 632/632/632 631/631/631 627/627/627
f 631/631/631 632/632/632 633/633/633
f 634/634/634 631/631/631 633/633/633
f 635/635/635 634/634/634 633/633/633
f 636/636/636 635/635/635 633/633/633
f 635/635/635 636/636/636 637/637/637
f 638/638/638 635/635/635 637/637/637
f 641/641/641 640/640/640 639/639/639
f 642/642/642 641/641/641 639/639/639
f 645/645/645 644/644/644 643/643/643
f 646/646/646 645/645/645 643/643/643
f 643/643/643 647/647/647 646/646/646
f 646/646/646 648/648/648 645/645/645
f 648/648/648 649/649/649 645/645/645
f 647/647/647 650/650/650 646/646/646
f 647/647/647 651/651/651 650/650/650
f 648/648/648 652/652/652 649/649/649
f 652/652/652 653/653/653 649/649/649
f 653/653/653 652/652/652 654/654/654
f 655/655/655 648/648/648 646/646/646
f 650/650/650 655/655/655 646/646/646
f 648/648/648 655/655/655 652/652/652
f 651/651/651 656/656/656 650/650/650
f 655/655/655 650/650/650 656/656/656
f 655/655/655 657/657/657 652/652/652
f 657/657/657 655/655/655 656/656/656
f 652/652/652 658/658/658 654/654/654
f 658/658/658 652/652/652 657/657/657
f 656/656/656 651/651/651 659/659/659
f 651/651/651 660/660/660 659/659/659
f 659/659/659 660/660/660 661/661/661
f 662/662/662 657/657/657 656/656/656
f 662/662/662 658/658/658 657/657/657
f 659/659/659 662/662/662 656/656/656
f 654/654/654 658/658/658 663/663/663
f 664/664/664 654/654/654 663/663/663
f 662/662/662 665/665/665 658/658/658
f 665/665/665 662/662/662 659/659/659
f 665/665/665 663/663/663 658/658/658
f 666/666/666 659/659/659 661/661/661
f 666/666/666 665/665/665 659/659/659
f 666/666/666 661/661/661 667/667/667
f 664/664/664 663/663/663 668/668/668
f 663/663/663 665/665/665 668/668/668
f 665/665/665 666/666/666 668/668/668
f 668/668/668 666/666/666 667/667/667
f 669/669/669 664/664/664 668/668/668
f 667/667/667 670/670/670 668/668/668
f 670/670/670 669/669/669 668/668/668
f 673/673/673 672/672/672 671/671/671
f 674/674/674 673/673/673 671/671/671
f 673/673/673 675/675/675 672/672/672
f 675/675/675 676/676/676 672/672/672
f 676/676/676 675/675/675 677/677/677
f 678/678/678 673/673/673 674/674/674
f 675/675/675 673/673/673 678/678/678
f 679/679/679 678/678/678 674/674/674
f 675/675/675 680/680/680 677/677/677
f 680/680/680 675/675/675 678/678/678
f 681/681/681 677/677/677 680/680/680
f 682/682/682 678/678/678 679/679/679
f 683/683/683 682/682/682 679/679/679
f 683/683/683 684/684/684 682/682/682
f 685/685/685 680/680/680 678/678/678
f 685/685/685 681/681/681 680/680/680
f 682/682/682 685/685/685 678/678/678
f 685/685/685 686/686/686 681/681/681
f 686/686/686 685/685/685 682/682/682
f 686/686/686 687/687/687 681/681/681
f 687/687/687 686/686/686 688/688/688
f 684/684/684 689/689/689 682/682/682
f 689/689/689 686/686/686 682/682/682
f 686/686/686 689/689/689 688/688/688
f 684/684/684 690/690/690 689/689/689
f 690/690/690 688/688/688 689/689/689
f 693/693/693 692/692/692 691/691/691
f 694/694/694 693/693/693 691/691/691
f 693/693/693 695/695/695 692/692/692
f 695/695/695 696/696/696 692/692/692
f 696/696/696 695/695/695 697/697/697
f 698/698/698 693/693/693 694/694/694
f 695/695/695 693/693/693 698/698/698
f 699/699/699 698/698/698 694/694/694
f 695/695/695 700/700/700 697/697/697
f 700/700/700 695/695/695 698/698/698
f 701/701/701 697/697/697 700/700/700
f 702/702/702 698/698/698 699/699/699
f 703/703/703 702/702/702 699/699/699
f 703/703/703 704/704/704 702/702/702
f 705/705/705 700/700/700 698/698/698
f 705/705/705 701/701/701 700/700/700
f 702/702/702 705/705/705 698/698/698
f 705/705/705 706/706/706 701/701/701
f 706/706/706 705/705/705 702/702/702
f 706/706/706 707/707/707 701/701/701
f 707/707/707 706/706/706 708/708/708
f 704/704/704 709/709/709 702/702/702
f 709/709/709 706/706/706 702/702/702
f 706/706/706 709/709/709 708/708/708
f 704/704/704 710/710/710 709/709/709
f 710/710/710 708/708/708 709/709/709
f 713/713/713 712/712/712 711/711/711
f 712/712/712 713/713/713 714/714/714
f 713/713/713 715/715/715 714/714/714
f 714/714/714 715/715/715 716/716/716
f 715/715/715 717/717/717 716/716/716
f 718/718/718 716/716/716 717/717/717
f 719/719/719 713/713/713 711/711/711
f 720/720/720 715/715/715 713/713/713
f 720/720/720 713/713/713 719/719/719
f 717/717/717 715/715/715 721/721/721
f 715/715/715 720/720/720 721/721/721
f 722/722/722 718/718/718 717/717/717
f 722/722/722 717/717/717 721/721/721
f 723/723/723 719/719/719 711/711/711
f 724/724/724 723/723/723 711/711/711
f 725/725/725 723/723/723 724/724/724
f 726/726/726 725/725/725 724/724/724
f 723/723/723 727/727/727 719/719/719
f 723/723/723 725/725/725 727/727/727
f 728/728/728 720/720/720 719/719/719
f 727/727/727 728/728/728 719/719/719
f 721/721/721 720/720/720 729/729/729
f 720/720/720 728/728/728 729/729/729
f 730/730/730 725/725/725 726/726/726
f 731/731/731 730/730/730 726/726/726
f 730/730/730 731/731/731 732/732/732
f 725/725/725 733/733/733 727/727/727
f 730/730/730 733/733/733 725/725/725
f 727/727/727 734/734/734 728/728/728
f 734/734/734 729/729/729 728/728/728
f 727/727/727 733/733/733 734/734/734
f 735/735/735 721/721/721 729/729/729
f 735/735/735 722/722/722 721/721/721
f 736/736/736 730/730/730 732/732/732
f 733/733/733 730/730/730 736/736/736
f 737/737/737 735/735/735 729/729/729
f 729/729/729 734/734/734 737/737/737
f 735/735/735 738/738/738 722/722/722
f 738/738/738 735/735/735 737/737/737
f 733/733/733 739/739/739 734/734/734
f 739/739/739 733/733/733 736/736/736
f 740/740/740 736/736/736 732/732/732
f 741/741/741 740/740/740 732/732/732
f 742/742/742 734/734/734 739/739/739
f 734/734/734 742/742/742 737/737/737
f 743/743/743 739/739/739 736/736/736
f 740/740/740 743/743/743 736/736/736
f 743/743/743 742/742/742 739/739/739
f 744/744/744 740/740/740 741/741/741
f 740/740/740 744/744/744 743/743/743
f 745/745/745 744/744/744 741/741/741
f 743/743/743 746/746/746 742/742/742
f 744/744/744 746/746/746 743/743/743
f 747/747/747 744/744/744 745/745/745
f 746/746/746 744/744/744 747/747/747
f 748/748/748 747/747/747 745/745/745
f 747/747/747 748/748/748 749/749/749
f 737/737/737 742/742/742 750/750/750
f 746/746/746 750/750/750 742/742/742
f 746/746/746 747/747/747 751/751/751
f 751/751/751 747/747/747 749/749/749
f 750/750/750 746/746/746 751/751/751
f 752/752/752 737/737/737 750/750/750
f 752/752/752 750/750/750 751/751/751
f 752/752/752 738/738/738 737/737/737
f 753/753/753 751/751/751 749/749/749
f 753/753/753 752/752/752 751/751/751
f 754/754/754 753/753/753 749/749/749
f 753/753/753 755/755/755 752/752/752
f 755/755/755 753/753/753 754/754/754
f 755/755/755 738/738/738 752/752/752
f 756/756/756 755/755/755 754/754/754
f 757/757/757 738/738/738 755/755/755
f 757/757/757 755/755/755 756/756/756
f 738/738/738 757/757/757 722/722/722
f 758/758/758 757/757/757 756/756/756
f 722/722/722 757/757/757 718/718/718
f 757/757/757 758/758/758 718/718/718
f 761/761/761 760/760/760 759/759/759
f 760/760/760 762/762/762 759/759/759
f 759/759/759 762/762/762 763/763/763
f 764/764/764 760/760/760 761/761/761
f 765/765/765 764/764/764 761/761/761
f 762/762/762 766/766/766 763/763/763
f 763/763/763 766/766/766 767/767/767
f 766/766/766 768/768/768 767/767/767
f 767/767/767 768/768/768 769/769/769
f 770/770/770 766/766/766 762/762/762
f 766/766/766 770/770/770 768/768/768
f 771/771/771 762/762/762 760/760/760
f 771/771/771 770/770/770 762/762/762
f 760/760/760 764/764/764 772/772/772
f 772/772/772 771/771/771 760/760/760
f 764/764/764 765/765/765 773/773/773
f 765/765/765 774/774/774 773/773/773
f 773/773/773 774/774/774 775/775/775
f 774/774/774 776/776/776 775/775/775
f 773/773/773 777/777/777 764/764/764
f 777/777/777 773/773/773 775/775/775
f 764/764/764 778/778/778 772/772/772
f 777/777/777 778/778/778 764/764/764
f 771/771/771 772/772/772 779/779/779
f 772/772/772 778/778/778 779/779/779
f 771/771/771 780/780/780 770/770/770
f 780/780/780 771/771/771 779/779/779
f 775/775/775 776/776/776 781/781/781
f 776/776/776 782/782/782 781/781/781
f 783/783/783 777/777/777 775/775/775
f 783/783/783 775/775/775 781/781/781
f 777/777/777 784/784/784 778/778/778
f 777/777/777 783/783/783 784/784/784
f 778/778/778 785/785/785 779/779/779
f 784/784/784 785/785/785 778/778/778
f 786/786/786 781/781/781 782/782/782
f 787/787/787 786/786/786 782/782/782
f 788/788/788 783/783/783 781/781/781
f 781/781/781 786/786/786 788/788/788
f 779/779/779 785/785/785 789/789/789
f 780/780/780 779/779/779 789/789/789
f 785/785/785 784/784/784 790/790/790
f 785/785/785 790/790/790 789/789/789
f 784/784/784 783/783/783 791/791/791
f 783/783/783 788/788/788 791/791/791
f 784/784/784 791/791/791 790/790/790
f 788/788/788 792/792/792 791/791/791
f 786/786/786 792/792/792 788/788/788
f 786/786/786 787/787/787 793/793/793
f 787/787/787 794/794/794 793/793/793
f 791/791/791 795/795/795 790/790/790
f 792/792/792 795/795/795 791/791/791
f 796/796/796 792/792/792 786/786/786
f 793/793/793 796/796/796 786/786/786
f 793/793/793 794/794/794 797/797/797
f 796/796/796 793/793/793 797/797/797
f 794/794/794 798/798/798 797/797/797
f 795/795/795 799/799/799 790/790/790
f 789/789/789 790/790/790 799/799/799
f 800/800/800 795/795/795 792/792/792
f 796/796/796 800/800/800 792/792/792
f 795/795/795 800/800/800 799/799/799
f 801/801/801 796/796/796 797/797/797
f 796/796/796 801/801/801 800/800/800
f 797/797/797 798/798/798 802/802/802
f 801/801/801 797/797/797 802/802/802
f 798/798/798 803/803/803 802/802/802
f 800/800/800 801/801/801 804/804/804
f 800/800/800 804/804/804 799/799/799
f 805/805/805 801/801/801 802/802/802
f 801/801/801 805/805/805 804/804/804
f 806/806/806 802/802/802 803/803/803
f 802/802/802 806/806/806 805/805/805
f 807/807/807 806/806/806 803/803/803
f 805/805/805 808/808/808 804/804/804
f 806/806/806 808/808/808 805/805/805
f 804/804/804 809/809/809 799/799/799
f 808/808/808 809/809/809 804/804/804
f 806/806/806 807/807/807 810/810/810
f 807/807/807 811/811/811 810/810/810
f 809/809/809 812/812/812 799/799/799
f 812/812/812 789/789/789 799/799/799
f 813/813/813 808/808/808 806/806/806
f 810/810/810 813/813/813 806/806/806
f 810/810/810 811/811/811 814/814/814
f 813/813/813 810/810/810 814/814/814
f 811/811/811 815/815/815 814/814/814
f 816/816/816 809/809/809 808/808/808
f 813/813/813 816/816/816 808/808/808
f 809/809/809 816/816/816 812/812/812
f 817/817/817 789/789/789 812/812/812
f 817/817/817 780/780/780 789/789/789
f 818/818/818 813/813/813 814/814/814
f 813/813/813 818/818/818 816/816/816
f 814/814/814 815/815/815 819/819/819
f 818/818/818 814/814/814 819/819/819
f 815/815/815 769/769/769 819/819/819
f 768/768/768 819/819/819 769/769/769
f 816/816/816 820/820/820 812/812/812
f 820/820/820 817/817/817 812/812/812
f 816/816/816 818/818/818 820/820/820
f 780/780/780 817/817/817 821/821/821
f 821/821/821 817/817/817 820/820/820
f 770/770/770 780/780/780 821/821/821
f 770/770/770 821/821/821 768/768/768
f 822/822/822 818/818/818 819/819/819
f 818/818/818 822/822/822 820/820/820
f 819/819/819 768/768/768 822/822/822
f 822/822/822 821/821/821 820/820/820
f 768/768/768 821/821/821 822/822/822
f 825/825/825 824/824/824 823/823/823
f 824/824/824 826/826/826 823/823/823
f 823/823/823 826/826/826 827/827/827
f 828/828/828 824/824/824 825/825/825
f 829/829/829 828/828/828 825/825/825
f 826/826/826 830/830/830 827/827/827
f 827/827/827 830/830/830 831/831/831
f 830/830/830 832/832/832 831/831/831
f 831/831/831 832/832/832 833/833/833
f 834/834/834 830/830/830 826/826/826
f 830/830/830 834/834/834 832/832/832
f 835/835/835 826/826/826 824/824/824
f 835/835/835 834/834/834 826/826/826
f 824/824/824 828/828/828 836/836/836
f 836/836/836 835/835/835 824/824/824
f 828/828/828 829/829/829 837/837/837
f 829/829/829 838/838/838 837/837/837
f 837/837/837 838/838/838 839/839/839
f 838/838/838 840/840/840 839/839/839
f 837/837/837 841/841/841 828/828/828
f 841/841/841 837/837/837 839/839/839
f 828/828/828 842/842/842 836/836/836
f 841/841/841 842/842/842 828/828/828
f 835/835/835 836/836/836 843/843/843
f 836/836/836 842/842/842 843/843/843
f 835/835/835 844/844/844 834/834/834
f 844/844/844 835/835/835 843/843/843
f 839/839/839 840/840/840 845/845/845
f 840/840/840 846/846/846 845/845/845
f 847/847/847 841/841/841 839/839/839
f 847/847/847 839/839/839 845/845/845
f 841/841/841 848/848/848 842/842/842
f 841/841/841 847/847/847 848/848/848
f 842/842/842 849/849/849 843/843/843
f 848/848/848 849/849/849 842/842/842
f 850/850/850 845/845/845 846/846/846
f 851/851/851 850/850/850 846/846/846
f 852/852/852 847/847/847 845/845/845
f 845/845/845 850/850/850 852/852/852
f 843/843/843 849/849/849 853/853/853
f 844/844/844 843/843/843 853/853/853
f 849/849/849 848/848/848 854/854/854
f 849/849/849 854/854/854 853/853/853
f 848/848/848 847/847/847 855/855/855
f 847/847/847 852/852/852 855/855/855
f 848/848/848 855/855/855 854/854/854
f 852/852/852 856/856/856 855/855/855
f 850/850/850 856/856/856 852/852/852
f 850/850/850 851/851/851 857/857/857
f 851/851/851 858/858/858 857/857/857
f 855/855/855 859/859/859 854/854/854
f 856/856/856 859/859/859 855/855/855
f 860/860/860 856/856/856 850/850/850
f 857/857/857 860/860/860 850/850/850
f 857/857/857 858/858/858 861/861/861
f 860/860/860 857/857/857 861/861/861
f 858/858/858 862/862/862 861/861/861
f 859/859/859 863/863/863 854/854/854
f 853/853/853 854/854/854 863/863/863
f 864/864/864 859/859/859 856/856/856
f 860/860/860 864/864/864 856/856/856
f 859/859/859 864/864/864 863/863/863
f 865/865/865 860/860/860 861/861/861
f 860/860/860 865/865/865 864/864/864
f 861/861/861 862/862/862 866/866/866
f 865/865/865 861/861/861 866/866/866
f 862/862/862 867/867/867 866/866/866
f 864/864/864 865/865/865 868/868/868
f 864/864/864 868/868/868 863/863/863
f 869/869/869 865/865/865 866/866/866
f 865/865/865 869/869/869 868/868/868
f 870/870/870 866/866/866 867/867/867
f 866/866/866 870/870/870 869/869/869
f 871/871/871 870/870/870 867/867/867
f 869/869/869 872/872/872 868/868/868
f 870/870/870 872/872/872 869/869/869
f 868/868/868 873/873/873 863/863/863
f 872/872/872 873/873/873 868/868/868
f 870/870/870 871/871/871 874/874/874
f 871/871/871 875/875/875 874/874/874
f 873/873/873 876/876/876 863/863/863
f 876/876/876 853/853/853 863/863/863
f 877/877/877 872/872/872 870/870/870
f 874/874/874 877/877/877 870/870/870
f 874/874/874 875/875/875 878/878/878
f 877/877/877 874/874/874 878/878/878
f 875/875/875 879/879/879 878/878/878
f 880/880/880 873/873/873 872/872/872
f 877/877/877 880/880/880 872/872/872
f 873/873/873 880/880/880 876/876/876
f 881/881/881 853/853/853 876/876/876
f 881/881/881 844/844/844 853/853/853
f 882/882/882 877/877/877 878/878/878
f 877/877/877 882/882/882 880/880/880
f 878/878/878 879/879/879 883/883/883
f 882/882/882 878/878/878 883/883/883
f 879/879/879 833/833/833 883/883/883
f 832/832/832 883/883/883 833/833/833
f 880/880/880 884/884/884 876/876/876
f 884/884/884 881/881/881 876/876/876
f 880/880/880 882/882/882 884/884/884
f 844/844/844 881/881/881 885/885/885
f 885/885/885 881/881/881 884/884/884
f 834/834/834 844/844/844 885/885/885
f 834/834/834 885/885/885 832/832/832
f 886/886/886 882/882/882 883/883/883
f 882/882/882 886/886/886 884/884/884
f 883/883/883 832/832/832 886/886/886
f 886/886/886 885/885/885 884/884/884
f 832/832/832 885/885/885 886/886/886
