g louti_04louti_04_mobile
v 6.15063107 -0.475031813 5.33463672
v 6.13519279 -0.726310134 5.21803708
v -6.65623474 -0.726310134 5.21803708
v -6.65623474 -0.475031813 5.33463672
v 6.13519279 -0.726310134 5.21803708
v 6.10208174 -0.842909775 4.96675876
v -6.65623474 -0.842909775 4.96675876
v -6.65623474 -0.726310134 5.21803708
v 6.15063107 -0.475031813 5.33463672
v -6.65623474 -0.475031813 5.33463672
v -6.65623474 0.475031813 5.33463672
v 6.15063107 0.475031813 5.33463672
v 6.13519279 0.726310134 5.21803708
v -6.65623474 0.726310134 5.21803708
v 6.10208174 0.842909775 4.96675876
v -6.65623474 0.842909775 4.96675876
v 6.65623474 0.842909775 -5.33463672
v -6.65623474 0.842909775 -5.33463672
vt 0.38990603 0.969882444
vt 0.39050642 0.969882444
vt 0.39050642 0.933859065
vt 0.38990603 0.933859065
vt 0.39050642 0.969882444
vt 0.39110681 0.969282055
vt 0.39110681 0.933859065
vt 0.39050642 0.933859065
vt 0.38990603 0.969882444
vt 0.38990603 0.933859065
vt 0.386904082 0.933859065
vt 0.386904082 0.969882444
vt 0.386303692 0.969882444
vt 0.386303692 0.933859065
vt 0.385703303 0.969282055
vt 0.385703303 0.933859065
vt 0.356884599 0.971083224
vt 0.356884599 0.933859065
g louti_04louti_04_mobile_0
f 3/3/3 2/2/2 1/1/1
f 4/4/4 3/3/3 1/1/1
f 7/7/7 6/6/6 5/5/5
f 8/8/8 7/7/7 5/5/5
f 11/11/11 10/10/10 9/9/9
f 12/12/12 11/11/11 9/9/9
f 11/11/11 12/12/12 13/13/13
f 14/14/14 11/11/11 13/13/13
f 14/14/14 13/13/13 15/15/15
f 16/16/16 14/14/14 15/15/15
f 16/16/16 15/15/15 17/17/17
f 18/18/18 16/16/16 17/17/17
