g louti_05louti_05_mobile
v 38.2813127 -0.475253847 7.92070017
v 38.2659247 -0.726197348 7.80351429
v -38.2659247 -0.726197348 7.80351429
v -38.2813127 -0.475253847 7.92070017
v 38.2659247 -0.726197348 7.80351429
v 38.2327812 -0.843383229 7.55257079
v -38.2327812 -0.843383229 7.55257079
v -38.2659247 -0.726197348 7.80351429
v 38.2813127 -0.475253847 7.92070017
v -38.2813127 -0.475253847 7.92070017
v -38.2813127 0.475253847 7.92070017
v 38.2813127 0.475253847 7.92070017
v 38.2659247 0.726197348 7.80351429
v -38.2659247 0.726197348 7.80351429
v 38.2327812 0.843383229 7.55257079
v -38.2327812 0.843383229 7.55257079
v 38.7867508 0.843383229 -7.92070017
v -38.7867508 0.843383229 -7.92070017
vt 0.634517146 0.486644154
vt 0.635228074 0.486644154
vt 0.635228074 0.273721265
vt 0.634517146 0.273721265
vt 0.635228074 0.486644154
vt 0.635939002 0.48628869
vt 0.635939002 0.273721265
vt 0.635228074 0.273721265
vt 0.634517146 0.486644154
vt 0.634517146 0.273721265
vt 0.631673435 0.273721265
vt 0.631673435 0.486644154
vt 0.630962507 0.486644154
vt 0.630962507 0.273721265
vt 0.630251579 0.48628869
vt 0.630251579 0.273721265
vt 0.587240445 0.48806601
vt 0.587240445 0.272299409
g louti_05louti_05_mobile_0
f 3/3/3 2/2/2 1/1/1
f 4/4/4 3/3/3 1/1/1
f 7/7/7 6/6/6 5/5/5
f 8/8/8 7/7/7 5/5/5
f 11/11/11 10/10/10 9/9/9
f 12/12/12 11/11/11 9/9/9
f 11/11/11 12/12/12 13/13/13
f 14/14/14 11/11/11 13/13/13
f 14/14/14 13/13/13 15/15/15
f 16/16/16 14/14/14 15/15/15
f 16/16/16 15/15/15 17/17/17
f 18/18/18 16/16/16 17/17/17
