g luoye_02hehua_mobile
v 0.00785502235 -0.0189241883 -0.0136434853
v -0.0875784516 -0.0294348183 0.000878448002
v -0.0319533541 -0.00986067397 -0.0101399419
v -0.0301000305 -0.0796522728 -0.0249157551
v 0.0380159607 -0.1041263 -0.00171112751
v 0.03105965 -0.052182462 -0.0106730898
v -0.132362875 -0.261861914 0.0226359599
v -0.392513662 -0.365800367 0.164351749
v -0.0140294295 -0.497691002 0.119668878
v -0.21335058 -0.491217063 0.0620381285
v -0.247802089 -0.642758007 0.206978193
v -0.39241211 -0.54102831 0.246989674
v -0.0581283772 -0.640371535 0.206902029
v -0.335720717 -0.668704538 0.282659807
v -0.165925805 -0.712701933 0.261333891
v -0.257754184 -0.736465097 0.289133746
v 0.0438298116 -0.0222754036 -0.0333699575
v -0.0119730019 -0.101435173 -0.0402754922
v 0.0112062377 -0.0461147311 -0.0401993282
v 0.0674914231 -0.0895535909 -0.0464193871
v 0.12667084 -0.291134273 -0.00430070302
v -0.027307351 -0.254626336 -0.0223007916
v 0.00630635464 -0.567406437 0.0837956404
v 0.123091133 -0.0577170449 -0.00557010278
v 0.0823687883 -0.0274545547 -0.0215137638
v 0.209257988 -0.157669582 0.0354822855
v 0.353030205 -0.369963998 0.142594237
v 0.226039453 -0.509547196 0.0330958139
v 0.316141448 -0.650475957 0.164681793
v 0.11666797 -0.692112269 0.182783434
v 0.407741335 -0.506170592 0.238941679
v 0.238530347 -0.738546913 0.244323934
v 0.383140368 -0.639762223 0.26780783
v 0.336324904 -0.726411451 0.276008152
v -0.000954611988 0.0389604408 -0.0333699575
v 0.089477427 0.00887566649 -0.05208091
v 0.0302726221 0.0147910694 -0.0443121835
v 0.0542642776 0.0813583928 -0.0536549657
v 0.2335543 0.197102263 -0.0343347014
v 0.241449966 0.0392143208 -0.0536295777
v 0.541815338 0.163133125 0.0145118014
v 0.0131611133 0.125127297 -0.00709338249
v -0.00572755509 0.0773470896 -0.0207521239
v 0.0880810872 0.236809087 0.0246416115
v 0.261252603 0.436536446 0.110351483
v 0.416449417 0.356208829 -0.020218976
v 0.548771648 0.460426549 0.119567326
v 0.640625415 0.305178959 0.101643401
v 0.385323735 0.531309832 0.184738309
v 0.657076836 0.435267046 0.161635234
v 0.524323009 0.544460813 0.202611458
v 0.621178211 0.525140549 0.198295499
v 0.00887054216 0.00356957549 -0.014760557
v 0.0485012027 -0.0845775439 -0.00531622283
v 0.0123233095 -0.0371273808 -0.0117139976
v 0.0760725655 -0.014836721 -0.0348424613
v 0.284685722 -0.0591133847 -0.0139735292
v 0.175365015 -0.171201384 0.0151718893
v 0.477177502 -0.27737398 0.103826769
v 0.0824195643 0.0574175133 -0.0122217575
v 0.0340300454 0.0355330615 -0.015039825
v 0.216798223 0.0871722437 0.000370688098
v 0.486241016 0.123197809 0.0578744972
v 0.526557152 -0.0802615847 -0.00975912199
v 0.703079883 -0.0577424329 0.117688614
v 0.65385256 -0.225861737 0.164275585
v 0.645550686 0.122893153 0.125178073
v 0.762995552 -0.134211075 0.186185425
v 0.75251031 0.0410422564 0.166179685
v 0.805342728 -0.0397931203 0.187302497
v -0.0665318036 -0.0418749359 -0.0222754036
v -0.0119983899 0.0311917143 -0.0218438077
v -0.0265964872 -0.00676333856 -0.0221484637
v -0.0790226973 0.0280436029 -0.0493136185
v -0.027434291 0.0691467671 -0.0220469117
v -0.0763061818 0.103953709 -0.0224023436
v -0.292459573 0.00933265041 -0.0510400022
v -0.186997841 -0.109559331 -0.020092036
v -0.224318194 0.149880592 -0.0199650961
v -0.323636031 -0.160309934 -0.0126025775
v -0.388426195 0.156963843 -0.00930213808
v -0.438973693 -0.221418838 0.0146641294
v -0.551747168 0.165392657 0.032613442
v -0.528999524 -0.0420018759 -0.0707410865
v -0.704202079 -0.110574851 0.0411184204
v -0.597877155 -0.26559395 0.0667602956
v -0.711361494 0.0663286997 0.0799874411
v -0.727787527 -0.217509087 0.0917674709
v -0.790876695 -0.0525632819 0.0981906336
v -0.803824573 -0.155181559 0.102074997
v 0.106055788 0.00603221103 0.0235753157
v 0.170592072 0.107584192 0.0807998569
v 0.174781091 0.117460122 0.080368261
v 0.244902734 0.245542558 0.229471957
v 0.108264543 0.00613376301 0.0141055935
v 0.0194319482 0.0135978336 0.00793631067
v 0.0192542322 0.0138771016 -0.00196500746
v -0.0452566636 0.117561674 0.0558434576
v 0.0818864164 0.215229292 0.0598039849
v -0.0467037794 0.136374178 0.0491918029
v -0.134622407 0.269204169 0.190856816
v -0.138989142 0.276465136 0.185931545
v -0.185068353 0.30946953 0.332318725
v 0.250868913 0.252143437 0.225612982
v -0.19080604 0.317796792 0.33125243
v -0.182377226 0.355040981 0.502545233
v 0.0585802368 0.389720983 0.229497345
v 0.269833745 0.302081623 0.367684203
v 0.263359806 0.294160569 0.367760367
v -0.188038749 0.364637643 0.506099553
v -0.124771865 0.392894482 0.654644713
v 0.245791313 0.346485227 0.526613053
v 0.239952075 0.337370937 0.522500198
v 0.0427381278 0.487566316 0.476217882
v 0.0351471172 0.479569098 0.716312153
v -0.12888472 0.403506664 0.662362663
v -0.0570620814 0.416327602 0.757491481
v 0.189049144 0.385862007 0.669522078
v 0.184707797 0.375706809 0.661626411
v -0.059321613 0.427574484 0.768002111
v 0.0298918022 0.426508188 0.820809141
v 0.10742674 0.423030032 0.792069931
v 0.10526876 0.41191009 0.780899213
v 0.0300187422 0.438034338 0.833046155
v -0.0665318036 -0.0418749359 -0.0222754036
v -0.0265964872 -0.00676333856 -0.0221484637
v -0.0280182149 -0.0070426065 -0.0328621976
v -0.0119983899 0.0311917143 -0.0218438077
v -0.0690452151 -0.0430935597 -0.0330145256
v -0.186997841 -0.109559331 -0.020092036
v -0.0130139097 0.0319533541 -0.0325575417
v -0.0288814067 0.0709493148 -0.0327606457
v -0.027434291 0.0691467671 -0.0220469117
v -0.0818661527 0.0287290787 -0.0607889924
v -0.0790734733 0.106695612 -0.0331414656
v -0.0763061818 0.103953709 -0.0224023436
v -0.301142267 0.00948497838 -0.062540764
v -0.192811692 -0.112631279 -0.030754994
v -0.323636031 -0.160309934 -0.0126025775
v -0.231122177 0.153866507 -0.0306280541
v -0.224318194 0.149880592 -0.0199650961
v -0.333156529 -0.164778221 -0.0230624315
v -0.438973693 -0.221418838 0.0146641294
v -0.399723853 0.161152862 -0.0196604401
v -0.388426195 0.156963843 -0.00930213808
v -0.451642303 -0.227537345 0.00496591523
v -0.597877155 -0.26559395 0.0667602956
v -0.567487725 0.169810168 0.0233722118
v -0.551747168 0.165392657 0.032613442
v -0.614861724 -0.272905692 0.0584584211
v -0.72408088 -0.113672186 0.0321310701
v -0.727787527 -0.217509087 0.0917674709
v -0.54413077 -0.0432204997 -0.0827749962
v -0.731443398 0.0680550833 0.0720409986
v -0.711361494 0.0663286997 0.0799874411
v -0.748326415 -0.223526042 0.0841256843
v -0.803824573 -0.155181559 0.102074997
v -0.813116579 -0.0540865616 0.0907265631
v -0.790876695 -0.0525632819 0.0981906336
v -0.826419888 -0.159497518 0.0947378663
v 0.645550686 0.122893153 0.125178073
v 0.486241016 0.123197809 0.0578744972
v 0.498630358 0.126168204 0.0493441309
v 0.216798223 0.0871722437 0.000370688098
v 0.662281375 0.125863548 0.11850103
v 0.72135924 -0.0596973086 0.110783079
v 0.75251031 0.0410422564 0.166179685
v 0.77213523 0.0417785083 0.160594326
v 0.805342728 -0.0397931203 0.187302497
v 0.826414764 -0.0412402361 0.182301062
v 0.762995552 -0.134211075 0.186185425
v 0.78289974 -0.138247766 0.181158602
v 0.65385256 -0.225861737 0.164275585
v 0.670811741 -0.23241184 0.158664838
v 0.477177502 -0.27737398 0.103826769
v 0.489287576 -0.285320422 0.096565802
v 0.175365015 -0.171201384 0.0151718893
v 0.540038178 -0.0828257722 -0.020142812
v 0.291565869 -0.0610936483 -0.0244587712
v 0.179274766 -0.176253595 0.00547367514
v 0.0485012027 -0.0845775439 -0.00531622283
v 0.0489327986 -0.0872432834 -0.0155729729
v 0.0123233095 -0.0371273808 -0.0117139976
v 0.221825046 0.0891525073 -0.009708346
v 0.083790516 0.0586107491 -0.0226562236
v 0.0824195643 0.0574175133 -0.0122217575
v 0.0117901616 -0.0385237206 -0.0221484637
v 0.00887054216 0.00356957549 -0.014760557
v 0.00823584228 0.00329030755 -0.0252711871
v 0.0340300454 0.0355330615 -0.015039825
v 0.0772658013 -0.0156237489 -0.0458862392
v 0.0340808214 0.0361423733 -0.025525067
v 0.385323735 0.531309832 0.184738309
v 0.261252603 0.436536446 0.110351483
v 0.267498049 0.448062596 0.103268233
v 0.0880810872 0.236809087 0.0246416115
v 0.394945785 0.545400169 0.179686098
v 0.562836598 0.472587399 0.112737955
v 0.524323009 0.544460813 0.202611458
v 0.537753258 0.558931971 0.198016231
v 0.621178211 0.525140549 0.198295499
v 0.637223424 0.539078558 0.19359872
v 0.657076836 0.435267046 0.161635234
v 0.674086793 0.44674242 0.155948323
v 0.640625415 0.305178959 0.101643401
v 0.657203776 0.313125401 0.0943062704
v 0.541815338 0.163133125 0.0145118014
v 0.555702571 0.167195205 0.00481358726
v 0.241449966 0.0392143208 -0.0536295777
v 0.426934659 0.365551611 -0.030856546
v 0.239038107 0.202103698 -0.0863039276
v 0.247162265 0.0398997966 -0.0651811155
v 0.089477427 0.00887566649 -0.05208091
v 0.0910260947 0.00874872652 -0.0635816718
v 0.0302726221 0.0147910694 -0.0443121835
v 0.0896043669 0.242902206 0.0152226653
v 0.0126279654 0.128148468 -0.0174009085
v 0.0131611133 0.125127297 -0.00709338249
v 0.0302218461 0.0148164574 -0.0556098413
v -0.000954611988 0.0389604408 -0.0333699575
v -0.00184319182 0.0396459167 -0.0443629595
v -0.00572755509 0.0773470896 -0.0207521239
v 0.0548482015 0.0831863285 -0.0652065035
v -0.00676846289 0.0790734733 -0.0314150819
v 0.407741335 -0.506170592 0.238941679
v 0.353030205 -0.369963998 0.142594237
v 0.361941392 -0.380144584 0.13634879
v 0.209257988 -0.157669582 0.0354822855
v 0.42084154 -0.520184766 0.228456437
v 0.323402415 -0.668247554 0.159705746
v 0.383140368 -0.639762223 0.26780783
v 0.392889358 -0.65727994 0.264989762
v 0.336324904 -0.726411451 0.276008152
v 0.344779107 -0.746290251 0.273393189
v 0.238530347 -0.738546913 0.244323934
v 0.244344198 -0.758755757 0.240845779
v 0.11666797 -0.692112269 0.182783434
v 0.119155993 -0.711051714 0.177629671
v 0.00630635464 -0.567406437 0.0837956404
v 0.00579859474 -0.58294389 0.0759507498
v -0.027307351 -0.254626336 -0.0223007916
v 0.231497872 -0.523510593 0.0238799717
v 0.129438131 -0.299156879 -0.0145320651
v -0.0287290787 -0.26165881 -0.0330399136
v -0.0119730019 -0.101435173 -0.0402754922
v -0.0130139097 -0.104304016 -0.0514969861
v 0.0112062377 -0.0461147311 -0.0401993282
v 0.214259423 -0.162061705 0.0263172192
v 0.125731484 -0.0593926526 -0.0158268528
v 0.123091133 -0.0577170449 -0.00557010278
v 0.0108000298 -0.0474602949 -0.0513954341
v 0.0438298116 -0.0222754036 -0.0333699575
v 0.0443121835 -0.0229608795 -0.0443883475
v 0.0823687883 -0.0274545547 -0.0215137638
v 0.0686084949 -0.0920670025 -0.0578185969
v 0.083917456 -0.0282923585 -0.0322274978
v -0.0581283772 -0.640371535 0.206902029
v -0.0140294295 -0.497691002 0.119668878
v -0.0150957253 -0.511324355 0.112814119
v 0.0380159607 -0.1041263 -0.00171112751
v -0.0603879088 -0.657889252 0.202408354
v -0.25526616 -0.660351887 0.202484518
v -0.165925805 -0.712701933 0.261333891
v -0.171130344 -0.732199914 0.258338107
v -0.257754184 -0.736465097 0.289133746
v -0.265472134 -0.756597777 0.286899602
v -0.335720717 -0.668704538 0.282659807
v -0.345571259 -0.687009282 0.280247947
v -0.39241211 -0.54102831 0.246989674
v -0.403785932 -0.555854899 0.243587682
v -0.392513662 -0.365800367 0.164351749
v -0.403912872 -0.375854013 0.158715614
v -0.0875784516 -0.0294348183 0.000878448002
v -0.220129175 -0.504494985 0.0535077621
v -0.0906757871 -0.0303233981 -0.0092005861
v -0.0319533541 -0.00986067397 -0.0101399419
v -0.136653446 -0.269097493 0.0131408497
v 0.0383460046 -0.10704592 -0.0118663256
v -0.0335274098 -0.0102161059 -0.02054902
v 0.00785502235 -0.0189241883 -0.0136434853
v 0.00737265044 -0.0195335001 -0.0241287273
v 0.03105965 -0.052182462 -0.0106730898
v -0.0316233102 -0.0819118044 -0.0357056531
v 0.0312119779 -0.0537057417 -0.0210821679
v 0.263359806 0.294160569 0.367760367
v 0.0550766934 0.388705463 0.418815625
v 0.239952075 0.337370937 0.522500198
v 0.0348932372 0.466925876 0.707172475
v 0.184707797 0.375706809 0.661626411
v 0.10526876 0.41191009 0.780899213
v 0.0298918022 0.426508188 0.820809141
v -0.0570620814 0.416327602 0.757491481
v -0.124771865 0.392894482 0.654644713
v -0.182377226 0.355040981 0.502545233
v -0.185068353 0.30946953 0.332318725
v 0.244902734 0.245542558 0.229471957
v 0.0640386558 0.260191431 0.123883285
v -0.134622407 0.269204169 0.190856816
v -0.0452566636 0.117561674 0.0558434576
v 0.0691670308 0.137643578 0.0528476742
v 0.170592072 0.107584192 0.0807998569
v 0.0194319482 0.0135978336 0.00793631067
v 0.106055788 0.00603221103 0.0235753157
v -0.339655856 -0.0260328269 0.398403677
v -0.233407096 -0.211085924 0.472841279
v -0.338005636 -0.0371781568 0.53943399
v -0.307616206 -0.0355025491 0.273367801
v -0.229167301 -0.187018105 0.715601289
v -0.312744581 -0.0693701347 0.668760438
v -0.271311373 -0.120323841 0.782727149
v -0.225689146 -0.171175996 0.825023549
v -0.165189553 -0.235179131 0.776100882
v -0.112763343 -0.286158226 0.689705534
v -0.0622412324 -0.331425021 0.558068779
v -0.0458913635 -0.339219136 0.40546154
v -0.140055438 -0.128422612 0.151480036
v -0.127767648 -0.0185433683 0.0912850989
v -0.0668110716 -0.309413629 0.27412944
v -0.038249577 -0.0379144087 0.0502580987
v -0.0317756382 -0.131291455 0.0837448644
v 0.036137249 -0.296821184 0.246202646
v 0.282781622 -0.257520567 0.285503262
v 0.0557367813 -0.34081858 0.396499577
v 0.306773278 -0.315303644 0.604985794
v 0.101562113 -0.352420893 0.55057932
v 0.158888206 -0.344880659 0.680362752
v 0.224338458 -0.318502532 0.777547997
v 0.291032721 -0.256428883 0.780670721
v 0.339853836 -0.182346713 0.704989107
v 0.375346253 -0.10247608 0.583050566
v 0.385171407 -0.030704218 0.423994776
v 0.0129580094 -0.155283111 0.100729433
v 0.34675937 -0.00968295801 0.260191431
v 0.148402964 -0.105471864 0.0848873242
v -0.022229752 0.0211888442 -0.00374216713
v 0.227715061 0.0250224314 0.0954487302
v 0.0449976593 0.0783118334 -0.00854049822
v 0.415002302 -0.124817516 0.282355151
v 0.473191587 0.108675876 0.30642297
v 0.466641484 -0.0925493744 0.432855187
v 0.304488358 -0.105091044 0.103344397
v 0.547679965 0.134241587 0.598080259
v 0.504494985 -0.0304757261 0.569214109
v 0.532599495 0.0547263858 0.686684363
v 0.532904151 0.131220415 0.727127439
v 0.496269274 0.213579072 0.667567202
v 0.447422771 0.274281768 0.569366437
v 0.382150236 0.321960423 0.423258524
v 0.320558959 0.314597905 0.258312719
v 0.31522748 0.0612003246 0.0652116279
v 0.124335144 -0.0600781285 -0.00914981011
v 0.247670025 0.220484607 0.0732342344
v 0.0427127398 0.000649956045 -0.0421795919
v 0.0953674418 0.091132771 -0.0306026661
v -0.135815643 -0.263842178 0.148433476
v 0.0380921246 -0.354985081 0.142924281
v -0.147697224 -0.341453279 0.266335326
v -0.104588408 -0.169475 0.0707969868
v -0.123832509 -0.414088334 0.402059548
v 0.015192153 -0.121034705 0.00641303096
v -0.0616826965 -0.0383967806 0.0244385076
v -0.000218360127 0.0345429297 0.00184319182
v 0.0717058303 -0.0288508944 0.00369651547
v 0.138501646 -0.162442525 0.0401282886
v 0.194736055 -0.244369586 0.118958014
v 0.241729234 -0.308956646 0.243841562
v 0.24317635 -0.389487366 0.392716766
v 0.067999183 -0.497691002 0.33163325
v 0.0643433117 -0.542729305 0.542886758
v -0.0728534144 -0.47593349 0.525318265
v 0.196462439 -0.463569536 0.524683565
v -0.00108155196 -0.529299056 0.631262369
v 0.139796433 -0.514117035 0.613490772
v 0.0653588315 -0.545242717 0.667668754
v -0.339655856 -0.0260328269 0.398403677
v -0.338005636 -0.0371781568 0.53943399
v -0.347906955 -0.0382698406 0.544029218
v -0.34960795 -0.0268198548 0.399139929
v -0.307616206 -0.0355025491 0.273367801
v -0.321960423 -0.0713503984 0.676859208
v -0.265802178 -0.219057755 0.73230659
v -0.312744581 -0.0693701347 0.668760438
v -0.279384755 -0.123675057 0.793923254
v -0.271311373 -0.120323841 0.782727149
v -0.232543904 -0.175923551 0.837387502
v -0.225689146 -0.171175996 0.825023549
v -0.170394092 -0.241678458 0.78714466
v -0.165189553 -0.235179131 0.776100882
v -0.116520766 -0.294053892 0.698388228
v -0.112763343 -0.286158226 0.689705534
v -0.064653092 -0.340539312 0.563171766
v -0.0622412324 -0.331425021 0.558068779
v -0.278166132 -0.25394086 0.548700609
v -0.267096966 -0.241957726 0.317492136
v -0.0478462391 -0.348561918 0.406375508
v -0.0458913635 -0.339219136 0.40546154
v -0.0693244831 -0.317943996 0.271489089
v -0.0668110716 -0.309413629 0.27412944
v -0.31667972 -0.0365688449 0.270702061
v -0.246304198 -0.0388029885 0.170978016
v -0.127767648 -0.0185433683 0.0912850989
v -0.131956667 -0.0191272922 0.0836433124
v -0.038249577 -0.0379144087 0.0502580987
v -0.0399759606 -0.0390568685 0.0414992403
v -0.0317756382 -0.131291455 0.0837448644
v -0.0333243059 -0.134947326 0.0758999738
v -0.0721933265 -0.25305228 0.167017489
v -0.156735351 -0.0464193871 0.0852173681
v -0.109310576 -0.24343023 0.146960972
v -0.0664302516 -0.154140651 0.0813076168
v -0.101262581 -0.0917623465 0.0656939998
v -0.248233685 -0.0771388613 0.149880592
v -0.196518339 -0.175288851 0.131423519
v 0.036137249 -0.296821184 0.246202646
v 0.0557367813 -0.34081858 0.396499577
v 0.0565491972 -0.35018675 0.397185053
v 0.036416517 -0.304996118 0.242800654
v 0.289788709 -0.264603818 0.283167567
v 0.314440453 -0.323986339 0.611358181
v 0.0129580094 -0.155283111 0.100729433
v 0.103643928 -0.362119108 0.555453815
v 0.101562113 -0.352420893 0.55057932
v 0.0165631047 -0.171658367 0.0832117165
v -0.022229752 0.0211888442 -0.00374216713
v 0.162518689 -0.354350381 0.688791566
v 0.158888206 -0.344880659 0.680362752
v 0.2297461 -0.32726139 0.788617163
v 0.224338458 -0.318502532 0.777547997
v 0.2982683 -0.263486746 0.791816051
v 0.291032721 -0.256428883 0.780670721
v 0.34840959 -0.187398924 0.714052621
v 0.339853836 -0.182346713 0.704989107
v 0.384866751 -0.105344924 0.588813641
v 0.375346253 -0.10247608 0.583050566
v 0.394971173 -0.0316181859 0.425416504
v 0.385171407 -0.030704218 0.423994776
v 0.355518229 -0.0100383899 0.257144872
v 0.34675937 -0.00968295801 0.260191431
v 0.151754179 -0.108442259 0.0395697527
v 0.235737667 0.0140802055 0.0836433124
v 0.227715061 0.0250224314 0.0954487302
v 0.0455308072 0.080368261 -0.0188734123
v 0.0449976593 0.0783118334 -0.00854049822
v -0.0235499277 0.0216966041 -0.0139735292
v 0.415002302 -0.124817516 0.282355151
v 0.466641484 -0.0925493744 0.432855187
v 0.478650006 -0.0951643379 0.434530794
v 0.425614484 -0.128295672 0.279943291
v 0.425741424 0.0953471782 0.153028703
v 0.304488358 -0.105091044 0.103344397
v 0.312079369 -0.108061439 0.096058042
v 0.124335144 -0.0600781285 -0.00914981011
v 0.127026272 -0.0617791242 -0.0195335001
v 0.0427127398 0.000649956045 -0.0421795919
v 0.204256553 0.0291352867 -0.0235448034
v 0.0431697237 0.00057379206 -0.0534518617
v 0.0953674418 0.091132771 -0.0306026661
v 0.0972715415 0.0935446305 -0.04157028
v 0.247670025 0.220484607 0.0732342344
v 0.253712368 0.226425397 0.0651100759
v 0.320558959 0.314597905 0.258312719
v 0.328581566 0.323077495 0.255215384
v 0.382150236 0.321960423 0.423258524
v 0.391873838 0.330668506 0.424654864
v 0.447422771 0.274281768 0.569366437
v 0.532117123 0.143914413 0.387232959
v 0.561897242 0.137821294 0.604249542
v 0.458923533 0.281669675 0.574748692
v 0.496269274 0.213579072 0.667567202
v 0.509090212 0.219316759 0.675640585
v 0.532904151 0.131220415 0.727127439
v 0.546715221 0.134698571 0.736825653
v 0.532599495 0.0547263858 0.686684363
v 0.546410565 0.0561481136 0.695290893
v 0.504494985 -0.0304757261 0.569214109
v 0.517519026 -0.0313896939 0.574596364
v -0.135815643 -0.263842178 0.148433476
v -0.147697224 -0.341453279 0.266335326
v -0.152419391 -0.35082145 0.263466482
v -0.140207766 -0.271103145 0.142340357
v -0.104588408 -0.169475 0.0707969868
v 0.0384475566 -0.364759459 0.136704222
v -0.108142728 -0.174197167 0.0625966644
v -0.0616826965 -0.0383967806 0.0244385076
v -0.127894588 -0.425462156 0.402897352
v -0.123832509 -0.414088334 0.402059548
v -0.0640691681 -0.0395392404 0.0149687853
v -0.000218360127 0.0345429297 0.00184319182
v 0.0158776288 -0.15959907 -0.00818506629
v -0.000903835997 0.0354061215 -0.00823584228
v 0.0717058303 -0.0288508944 0.00369651547
v 0.0729498421 -0.0297140862 -0.00633174264
v 0.138501646 -0.162442525 0.0401282886
v 0.141573593 -0.166961588 0.0311155503
v 0.194736055 -0.244369586 0.118958014
v 0.199331282 -0.251122792 0.112077867
v 0.241729234 -0.308956646 0.243841562
v 0.247593861 -0.317461624 0.240363407
v 0.24317635 -0.389487366 0.392716766
v 0.249091753 -0.4002011 0.39330069
v 0.196462439 -0.463569536 0.524683565
v 0.0688877628 -0.512187547 0.330313074
v 0.0654096075 -0.557606671 0.547558149
v 0.201108442 -0.476288922 0.528847196
v 0.139796433 -0.514117035 0.613490772
v 0.142893769 -0.52823276 0.620091651
v 0.0653588315 -0.545242717 0.667668754
v 0.0664505153 -0.560196246 0.675742137
v -0.00108155196 -0.529299056 0.631262369
v -0.00181780383 -0.543795601 0.63834562
v -0.0728534144 -0.47593349 0.525318265
v -0.0755445419 -0.48898292 0.529507284
vt 0.277614858 0.759530792
vt 0.299120235 0.771260997
vt 0.287390029 0.761485826
vt 0.279569892 0.7771261
vt 0.260997067 0.776148583
vt 0.268817204 0.765395894
vt 0.285434995 0.828934506
vt 0.340175953 0.88856305
vt 0.231671554 0.878787879
vt 0.284457478 0.886608016
vt 0.276637341 0.937438905
vt 0.324535679 0.935483871
vt 0.228739003 0.923753666
vt 0.2971652 0.960899316
vt 0.249266862 0.954056696
vt 0.270772239 0.968719453
vt 0.553274682 0.790811339
vt 0.575757576 0.802541544
vt 0.56402737 0.792766373
vt 0.556207234 0.808406647
vt 0.563049853 0.860215054
vt 0.596285435 0.835777126
vt 0.620723363 0.917888563
vt 0.537634409 0.80742913
vt 0.545454545 0.796676442
vt 0.525904203 0.840664712
vt 0.511241447 0.911045943
vt 0.56402737 0.917888563
vt 0.558162268 0.968719453
vt 0.606060606 0.965786901
vt 0.51026393 0.95601173
vt 0.579667644 0.992179863
vt 0.530791789 0.986314761
vt 0.553274682 1
vt 0.553274682 0.790811339
vt 0.575757576 0.802541544
vt 0.56402737 0.792766373
vt 0.556207234 0.808406647
vt 0.563049853 0.860215054
vt 0.596285435 0.835777126
vt 0.620723363 0.917888563
vt 0.537634409 0.80742913
vt 0.545454545 0.796676442
vt 0.525904203 0.840664712
vt 0.511241447 0.911045943
vt 0.56402737 0.917888563
vt 0.558162268 0.968719453
vt 0.606060606 0.965786901
vt 0.51026393 0.95601173
vt 0.579667644 0.992179863
vt 0.530791789 0.986314761
vt 0.553274682 1
vt 0.277614858 0.759530792
vt 0.299120235 0.771260997
vt 0.287390029 0.761485826
vt 0.279569892 0.7771261
vt 0.285434995 0.828934506
vt 0.318670577 0.805474096
vt 0.340175953 0.88856305
vt 0.260997067 0.776148583
vt 0.268817204 0.765395894
vt 0.248289345 0.808406647
vt 0.231671554 0.878787879
vt 0.284457478 0.886608016
vt 0.276637341 0.937438905
vt 0.324535679 0.935483871
vt 0.228739003 0.923753666
vt 0.2971652 0.960899316
vt 0.249266862 0.954056696
vt 0.270772239 0.968719453
vt 0.88172043 0.0928641251
vt 0.898338221 0.0762463343
vt 0.889540567 0.0811339198
vt 0.900293255 0.0938416422
vt 0.909090909 0.0782013685
vt 0.919843597 0.0879765396
vt 0.905180841 0.145650049
vt 0.869012708 0.12512219
vt 0.939393939 0.122189638
vt 0.861192571 0.161290323
vt 0.950146628 0.163245357
vt 0.8514174 0.195503421
vt 0.960899316 0.205278592
vt 0.904203324 0.203323558
vt 0.896383187 0.254154448
vt 0.848484848 0.239491691
vt 0.944281525 0.253176931
vt 0.868035191 0.270772239
vt 0.916911046 0.278592375
vt 0.890518084 0.285434995
vt 0.206256109 0.133919844
vt 0.188660802 0.14173998
vt 0.172043011 0.15542522
vt 0.123167155 0.189638319
vt 0.207233627 0.136852395
vt 0.228739003 0.147605083
vt 0.226783969 0.1485826
vt 0.231671554 0.165200391
vt 0.198435973 0.173998045
vt 0.227761486 0.187683284
vt 0.224828935 0.249266862
vt 0.223851417 0.249266862
vt 0.216031281 0.294232649
vt 0.124144673 0.190615836
vt 0.214076246 0.293255132
vt 0.186705767 0.33431085
vt 0.163245357 0.237536657
vt 0.0938416422 0.220918866
vt 0.0928641251 0.218963832
vt 0.183773216 0.333333333
vt 0.1485826 0.359726295
vt 0.0723362659 0.260997067
vt 0.0703812317 0.259042033
vt 0.131964809 0.291300098
vt 0.100684262 0.338220919
vt 0.145650049 0.358748778
vt 0.115347019 0.370478983
vt 0.064516129 0.30400782
vt 0.0615835777 0.302052786
vt 0.112414467 0.367546432
vt 0.082111437 0.365591398
vt 0.0703812317 0.344086022
vt 0.0664711632 0.342130987
vt 0.0840664712 0.362658847
vt 0.886608016 0.304985337
vt 0.882697947 0.290322581
vt 0.879765396 0.291300098
vt 0.873900293 0.281524927
vt 0.883675464 0.304985337
vt 0.886608016 0.342130987
vt 0.872922776 0.283479961
vt 0.862170088 0.281524927
vt 0.862170088 0.278592375
vt 0.864125122 0.299120235
vt 0.847507331 0.286412512
vt 0.846529814 0.283479961
vt 0.836754643 0.344086022
vt 0.883675464 0.343108504
vt 0.878787879 0.382209189
vt 0.815249267 0.311827957
vt 0.81427175 0.308895406
vt 0.875855327 0.383186706
vt 0.869990225 0.419354839
vt 0.787878788 0.346041056
vt 0.786901271 0.342130987
vt 0.867057674 0.420332356
vt 0.849462366 0.462365591
vt 0.761485826 0.382209189
vt 0.760508309 0.379276637
vt 0.84457478 0.462365591
vt 0.798631476 0.451612903
vt 0.818181818 0.481915934
vt 0.817204301 0.399804497
vt 0.757575758 0.430107527
vt 0.752688172 0.428152493
vt 0.81427175 0.478983382
vt 0.789833822 0.483870968
vt 0.771260997 0.463343109
vt 0.766373412 0.465298143
vt 0.789833822 0.478983382
vt 0.400782014 0.88856305
vt 0.444770283 0.870967742
vt 0.442815249 0.869990225
vt 0.509286413 0.825024438
vt 0.397849462 0.885630499
vt 0.3714565 0.845552297
vt 0.364613881 0.880742913
vt 0.363636364 0.875855327
vt 0.342130987 0.863147605
vt 0.346041056 0.860215054
vt 0.338220919 0.833822092
vt 0.342130987 0.835777126
vt 0.353861193 0.798631476
vt 0.35483871 0.802541544
vt 0.391006843 0.767350929
vt 0.391006843 0.769305963
vt 0.479960899 0.751710655
vt 0.419354839 0.820136852
vt 0.471163245 0.796676442
vt 0.478983382 0.754643206
vt 0.520039101 0.75659824
vt 0.519061584 0.758553275
vt 0.534701857 0.76344086
vt 0.506353861 0.824046921
vt 0.531769306 0.796676442
vt 0.53372434 0.797653959
vt 0.53372434 0.764418377
vt 0.541544477 0.773216031
vt 0.539589443 0.773216031
vt 0.541544477 0.783968719
vt 0.522971652 0.779081134
vt 0.539589443 0.783968719
vt 0.701857283 0.746823069
vt 0.660801564 0.721407625
vt 0.660801564 0.724340176
vt 0.585532747 0.698924731
vt 0.700879765 0.750733138
vt 0.685239492 0.795698925
vt 0.717497556 0.780058651
vt 0.714565005 0.782991202
vt 0.717497556 0.80742913
vt 0.712609971 0.80742913
vt 0.696969697 0.828934506
vt 0.695014663 0.825024438
vt 0.65884653 0.839687195
vt 0.660801564 0.834799609
vt 0.610948192 0.827956989
vt 0.612903226 0.826979472
vt 0.545454545 0.767350929
vt 0.636363636 0.773216031
vt 0.585532747 0.745845552
vt 0.548387097 0.766373412
vt 0.524926686 0.73313783
vt 0.525904203 0.73313783
vt 0.520039101 0.716520039
vt 0.585532747 0.701857283
vt 0.548387097 0.698924731
vt 0.548387097 0.696969697
vt 0.521994135 0.717497556
vt 0.522971652 0.705767351
vt 0.524926686 0.707722385
vt 0.532746823 0.698924731
vt 0.54056696 0.716520039
vt 0.53372434 0.700879765
vt 0.701857283 0.746823069
vt 0.660801564 0.721407625
vt 0.660801564 0.724340176
vt 0.585532747 0.698924731
vt 0.700879765 0.750733138
vt 0.685239492 0.795698925
vt 0.717497556 0.780058651
vt 0.714565005 0.782991202
vt 0.717497556 0.80742913
vt 0.712609971 0.80742913
vt 0.696969697 0.828934506
vt 0.695014663 0.825024438
vt 0.65884653 0.839687195
vt 0.660801564 0.834799609
vt 0.610948192 0.827956989
vt 0.612903226 0.826979472
vt 0.545454545 0.767350929
vt 0.636363636 0.773216031
vt 0.585532747 0.745845552
vt 0.548387097 0.766373412
vt 0.524926686 0.73313783
vt 0.525904203 0.73313783
vt 0.520039101 0.716520039
vt 0.585532747 0.701857283
vt 0.548387097 0.698924731
vt 0.548387097 0.696969697
vt 0.521994135 0.717497556
vt 0.522971652 0.705767351
vt 0.524926686 0.707722385
vt 0.532746823 0.698924731
vt 0.54056696 0.716520039
vt 0.53372434 0.700879765
vt 0.400782014 0.88856305
vt 0.444770283 0.870967742
vt 0.442815249 0.869990225
vt 0.53372434 0.797653959
vt 0.397849462 0.885630499
vt 0.3714565 0.845552297
vt 0.364613881 0.880742913
vt 0.363636364 0.875855327
vt 0.342130987 0.863147605
vt 0.346041056 0.860215054
vt 0.338220919 0.833822092
vt 0.342130987 0.835777126
vt 0.353861193 0.798631476
vt 0.35483871 0.802541544
vt 0.391006843 0.767350929
vt 0.391006843 0.769305963
vt 0.520039101 0.75659824
vt 0.419354839 0.820136852
vt 0.519061584 0.758553275
vt 0.534701857 0.76344086
vt 0.471163245 0.796676442
vt 0.531769306 0.796676442
vt 0.53372434 0.764418377
vt 0.541544477 0.773216031
vt 0.539589443 0.773216031
vt 0.541544477 0.783968719
vt 0.522971652 0.779081134
vt 0.539589443 0.783968719
vt 0.696969697 0.131964809
vt 0.630498534 0.152492669
vt 0.695014663 0.175953079
vt 0.632453568 0.228739003
vt 0.681329423 0.216031281
vt 0.655913978 0.247311828
vt 0.633431085 0.258064516
vt 0.606060606 0.245356794
vt 0.582600196 0.218963832
vt 0.565004888 0.176930596
vt 0.562072336 0.129032258
vt 0.688172043 0.091886608
vt 0.634408602 0.0742913001
vt 0.57771261 0.0879765396
vt 0.616813294 0.0166177908
vt 0.637341153 0.0224828935
vt 0.659824047 0.0195503421
vt 0.627565982 0.00293255132
vt 0.651026393 0.00488758553
vt 0.275659824 0.695014663
vt 0.213098729 0.713587488
vt 0.274682307 0.734115347
vt 0.267839687 0.65884653
vt 0.214076246 0.7771261
vt 0.260997067 0.77028348
vt 0.23655914 0.797653959
vt 0.216031281 0.806451613
vt 0.189638319 0.795698925
vt 0.166177908 0.773216031
vt 0.1485826 0.735092864
vt 0.147605083 0.692082111
vt 0.217008798 0.619745846
vt 0.238514174 0.593352884
vt 0.16226784 0.655913978
vt 0.218963832 0.575757576
vt 0.198435973 0.591397849
vt 0.132942326 0.630498534
vt 0.0703812317 0.65200391
vt 0.136852395 0.673509286
vt 0.0713587488 0.729227761
vt 0.128054741 0.716520039
vt 0.110459433 0.751710655
vt 0.0860215054 0.774193548
vt 0.0606060606 0.774193548
vt 0.0342130987 0.754643206
vt 0.0117302053 0.71945259
vt 0 0.673509286
vt 0.106549365 0.560117302
vt 0.00782013685 0.627565982
vt 0.0742913001 0.576735093
vt 0.0889540567 0.524926686
vt 0.0430107527 0.558162268
vt 0.0654936461 0.522971652
vt 0.636363636 0.353861193
vt 0.569892473 0.374389052
vt 0.634408602 0.397849462
vt 0.620723363 0.296187683
vt 0.57086999 0.447702835
vt 0.619745846 0.438905181
vt 0.593352884 0.470185728
vt 0.571847507 0.479960899
vt 0.545454545 0.467253177
vt 0.521016618 0.441837732
vt 0.502443793 0.399804497
vt 0.500488759 0.350928641
vt 0.572825024 0.296187683
vt 0.597262952 0.240469208
vt 0.524926686 0.293255132
vt 0.576735093 0.221896383
vt 0.555229717 0.238514174
vt 0.795698925 0.616813294
vt 0.746823069 0.643206256
vt 0.804496579 0.654936461
vt 0.783968719 0.582600196
vt 0.799608993 0.697947214
vt 0.743890518 0.566959922
vt 0.769305963 0.546432063
vt 0.750733138 0.527859238
vt 0.731182796 0.544477028
vt 0.712609971 0.580645161
vt 0.69599218 0.612903226
vt 0.681329423 0.65200391
vt 0.684261975 0.697947214
vt 0.743890518 0.694037146
vt 0.743890518 0.744868035
vt 0.787878788 0.737047898
vt 0.699902248 0.739002933
vt 0.764418377 0.766373412
vt 0.721407625 0.76344086
vt 0.745845552 0.776148583
vt 0.419354839 0.616813294
vt 0.38514174 0.640273705
vt 0.387096774 0.643206256
vt 0.419354839 0.618768328
vt 0.456500489 0.605083089
vt 0.363636364 0.674486804
vt 0.384164223 0.716520039
vt 0.361681329 0.672531769
vt 0.355816227 0.710654936
vt 0.352883675 0.708699902
vt 0.359726295 0.730205279
vt 0.357771261 0.732160313
vt 0.380254154 0.746823069
vt 0.380254154 0.749755621
vt 0.411534702 0.755620723
vt 0.412512219 0.758553275
vt 0.453567937 0.751710655
vt 0.454545455 0.754643206
vt 0.425219941 0.692082111
vt 0.470185728 0.663734115
vt 0.491691105 0.731182796
vt 0.493646139 0.73313783
vt 0.517106549 0.698924731
vt 0.518084066 0.698924731
vt 0.456500489 0.606060606
vt 0.490713587 0.600195503
vt 0.530791789 0.594330401
vt 0.530791789 0.596285435
vt 0.557184751 0.605083089
vt 0.555229717 0.606060606
vt 0.556207234 0.631476051
vt 0.554252199 0.631476051
vt 0.53372434 0.667644184
vt 0.524926686 0.604105572
vt 0.527859238 0.65884653
vt 0.544477028 0.634408602
vt 0.538611926 0.616813294
vt 0.495601173 0.609970674
vt 0.511241447 0.635386119
vt 0.0752688172 0.0342130987
vt 0.0391006843 0.0625610948
vt 0.0400782014 0.064516129
vt 0.0762463343 0.0361681329
vt 0.10459433 0.0987292278
vt 0.0469208211 0.150537634
vt 0.151515152 0.00782013685
vt 0.0136852395 0.102639296
vt 0.0117302053 0.100684262
vt 0.132942326 0.0146627566
vt 0.191593353 0
vt 0.00195503421 0.14173998
vt 0 0.139784946
vt 0.00586510264 0.173020528
vt 0.00293255132 0.173020528
vt 0.0215053763 0.188660802
vt 0.0205278592 0.191593353
vt 0.0508308895 0.196480938
vt 0.0518084066 0.19941349
vt 0.0909090909 0.191593353
vt 0.0928641251 0.193548387
vt 0.133919844 0.171065494
vt 0.135874878 0.172043011
vt 0.166177908 0.133919844
vt 0.168132942 0.134897361
vt 0.159335288 0.0469208211
vt 0.189638319 0.0762463343
vt 0.197458456 0.0576735093
vt 0.205278592 0.018572825
vt 0.207233627 0.018572825
vt 0.191593353 0.00195503421
vt 0.245356794 0.30400782
vt 0.2228739 0.345063539
vt 0.226783969 0.347018573
vt 0.247311828 0.305962854
vt 0.31769306 0.324535679
vt 0.292277615 0.261974585
vt 0.293255132 0.263929619
vt 0.345063539 0.226783969
vt 0.346041056 0.22971652
vt 0.373411535 0.223851417
vt 0.353861193 0.261974585
vt 0.372434018 0.226783969
vt 0.386119257 0.250244379
vt 0.383186706 0.251221896
vt 0.382209189 0.315738025
vt 0.379276637 0.315738025
vt 0.3714565 0.380254154
vt 0.368523949 0.380254154
vt 0.342130987 0.42228739
vt 0.339198436 0.419354839
vt 0.302052786 0.447702835
vt 0.285434995 0.376344086
vt 0.256109482 0.421309873
vt 0.299120235 0.445747801
vt 0.26686217 0.456500489
vt 0.264907136 0.45259042
vt 0.23655914 0.450635386
vt 0.238514174 0.447702835
vt 0.221896383 0.42913001
vt 0.224828935 0.430107527
vt 0.214076246 0.389051808
vt 0.217008798 0.391006843
vt 0.65884653 0.259042033
vt 0.643206256 0.298142717
vt 0.64516129 0.299120235
vt 0.660801564 0.26001955
vt 0.677419355 0.226783969
vt 0.710654936 0.288367546
vt 0.679374389 0.227761486
vt 0.701857283 0.19257087
vt 0.643206256 0.344086022
vt 0.640273705 0.343108504
vt 0.7028348 0.194525904
vt 0.725317693 0.179863148
vt 0.720430108 0.219941349
vt 0.725317693 0.181818182
vt 0.742913001 0.198435973
vt 0.740957967 0.19941349
vt 0.755620723 0.238514174
vt 0.753665689 0.239491691
vt 0.767350929 0.274682307
vt 0.764418377 0.275659824
vt 0.775171065 0.31769306
vt 0.772238514 0.318670577
vt 0.76344086 0.364613881
vt 0.760508309 0.363636364
vt 0.73998045 0.402737048
vt 0.701857283 0.346041056
vt 0.693059629 0.397849462
vt 0.737047898 0.401759531
vt 0.713587488 0.423264907
vt 0.710654936 0.421309873
vt 0.687194526 0.42913001
vt 0.687194526 0.426197458
vt 0.667644184 0.417399804
vt 0.670576735 0.417399804
vt 0.647116325 0.38514174
vt 0.650048876 0.386119257
g luoye_02hehua_mobile_0
f 3/3/3 2/2/2 1/1/1
f 2/2/2 4/4/4 1/1/1
f 1/1/1 4/4/4 5/5/5
f 6/6/6 1/1/1 5/5/5
f 7/7/7 4/4/4 2/2/2
f 5/5/5 4/4/4 7/7/7
f 7/7/7 2/2/2 8/8/8
f 9/9/9 5/5/5 7/7/7
f 8/8/8 10/10/10 7/7/7
f 7/7/7 10/10/10 9/9/9
f 8/8/8 11/11/11 10/10/10
f 9/9/9 10/10/10 11/11/11
f 12/12/12 11/11/11 8/8/8
f 13/13/13 9/9/9 11/11/11
f 14/14/14 11/11/11 12/12/12
f 15/15/15 13/13/13 11/11/11
f 14/14/14 16/16/16 11/11/11
f 15/15/15 11/11/11 16/16/16
f 19/19/19 18/18/18 17/17/17
f 18/18/18 20/20/20 17/17/17
f 21/21/21 20/20/20 18/18/18
f 22/22/22 21/21/21 18/18/18
f 21/21/21 22/22/22 23/23/23
f 17/17/17 20/20/20 24/24/24
f 24/24/24 20/20/20 21/21/21
f 25/25/25 17/17/17 24/24/24
f 26/26/26 24/24/24 21/21/21
f 27/27/27 26/26/26 21/21/21
f 23/23/23 28/28/28 21/21/21
f 28/28/28 27/27/27 21/21/21
f 23/23/23 29/29/29 28/28/28
f 29/29/29 27/27/27 28/28/28
f 30/30/30 29/29/29 23/23/23
f 31/31/31 27/27/27 29/29/29
f 32/32/32 29/29/29 30/30/30
f 33/33/33 31/31/31 29/29/29
f 32/32/32 34/34/34 29/29/29
f 33/33/33 29/29/29 34/34/34
f 37/37/37 36/36/36 35/35/35
f 36/36/36 38/38/38 35/35/35
f 39/39/39 38/38/38 36/36/36
f 40/40/40 39/39/39 36/36/36
f 39/39/39 40/40/40 41/41/41
f 35/35/35 38/38/38 42/42/42
f 42/42/42 38/38/38 39/39/39
f 43/43/43 35/35/35 42/42/42
f 44/44/44 42/42/42 39/39/39
f 45/45/45 44/44/44 39/39/39
f 41/41/41 46/46/46 39/39/39
f 46/46/46 45/45/45 39/39/39
f 41/41/41 47/47/47 46/46/46
f 47/47/47 45/45/45 46/46/46
f 48/48/48 47/47/47 41/41/41
f 49/49/49 45/45/45 47/47/47
f 50/50/50 47/47/47 48/48/48
f 51/51/51 49/49/49 47/47/47
f 50/50/50 52/52/52 47/47/47
f 51/51/51 47/47/47 52/52/52
f 55/55/55 54/54/54 53/53/53
f 54/54/54 56/56/56 53/53/53
f 57/57/57 56/56/56 54/54/54
f 58/58/58 57/57/57 54/54/54
f 57/57/57 58/58/58 59/59/59
f 53/53/53 56/56/56 60/60/60
f 60/60/60 56/56/56 57/57/57
f 61/61/61 53/53/53 60/60/60
f 62/62/62 60/60/60 57/57/57
f 63/63/63 62/62/62 57/57/57
f 59/59/59 64/64/64 57/57/57
f 57/57/57 64/64/64 63/63/63
f 59/59/59 65/65/65 64/64/64
f 63/63/63 64/64/64 65/65/65
f 66/66/66 65/65/65 59/59/59
f 67/67/67 63/63/63 65/65/65
f 68/68/68 65/65/65 66/66/66
f 69/69/69 67/67/67 65/65/65
f 68/68/68 70/70/70 65/65/65
f 69/69/69 65/65/65 70/70/70
f 73/73/73 72/72/72 71/71/71
f 72/72/72 74/74/74 71/71/71
f 74/74/74 72/72/72 75/75/75
f 76/76/76 74/74/74 75/75/75
f 71/71/71 74/74/74 77/77/77
f 77/77/77 74/74/74 76/76/76
f 78/78/78 71/71/71 77/77/77
f 79/79/79 77/77/77 76/76/76
f 80/80/80 78/78/78 77/77/77
f 81/81/81 77/77/77 79/79/79
f 80/80/80 77/77/77 82/82/82
f 83/83/83 77/77/77 81/81/81
f 77/77/77 84/84/84 82/82/82
f 83/83/83 84/84/84 77/77/77
f 82/82/82 84/84/84 85/85/85
f 83/83/83 85/85/85 84/84/84
f 86/86/86 82/82/82 85/85/85
f 87/87/87 85/85/85 83/83/83
f 88/88/88 86/86/86 85/85/85
f 89/89/89 85/85/85 87/87/87
f 88/88/88 85/85/85 90/90/90
f 89/89/89 90/90/90 85/85/85
f 93/93/93 92/92/92 91/91/91
f 94/94/94 92/92/92 93/93/93
f 95/95/95 93/93/93 91/91/91
f 91/91/91 96/96/96 95/95/95
f 96/96/96 97/97/97 95/95/95
f 97/97/97 96/96/96 98/98/98
f 99/99/99 93/93/93 95/95/95
f 97/97/97 99/99/99 95/95/95
f 100/100/100 97/97/97 98/98/98
f 99/99/99 97/97/97 100/100/100
f 98/98/98 101/101/101 100/100/100
f 101/101/101 102/102/102 100/100/100
f 100/100/100 102/102/102 99/99/99
f 102/102/102 101/101/101 103/103/103
f 104/104/104 94/94/94 93/93/93
f 104/104/104 93/93/93 99/99/99
f 105/105/105 102/102/102 103/103/103
f 105/105/105 103/103/103 106/106/106
f 102/102/102 107/107/107 99/99/99
f 107/107/107 104/104/104 99/99/99
f 107/107/107 102/102/102 105/105/105
f 104/104/104 108/108/108 94/94/94
f 107/107/107 108/108/108 104/104/104
f 108/108/108 109/109/109 94/94/94
f 110/110/110 105/105/105 106/106/106
f 107/107/107 105/105/105 110/110/110
f 110/110/110 106/106/106 111/111/111
f 108/108/108 112/112/112 109/109/109
f 112/112/112 113/113/113 109/109/109
f 107/107/107 114/114/114 108/108/108
f 114/114/114 107/107/107 110/110/110
f 114/114/114 112/112/112 108/108/108
f 114/114/114 110/110/110 115/115/115
f 114/114/114 115/115/115 112/112/112
f 116/116/116 110/110/110 111/111/111
f 110/110/110 116/116/116 115/115/115
f 116/116/116 111/111/111 117/117/117
f 112/112/112 118/118/118 113/113/113
f 115/115/115 118/118/118 112/112/112
f 118/118/118 119/119/119 113/113/113
f 120/120/120 116/116/116 117/117/117
f 116/116/116 120/120/120 115/115/115
f 117/117/117 121/121/121 120/120/120
f 118/118/118 122/122/122 119/119/119
f 115/115/115 122/122/122 118/118/118
f 122/122/122 123/123/123 119/119/119
f 121/121/121 123/123/123 122/122/122
f 124/124/124 115/115/115 120/120/120
f 124/124/124 122/122/122 115/115/115
f 121/121/121 124/124/124 120/120/120
f 124/124/124 121/121/121 122/122/122
f 127/127/127 126/126/126 125/125/125
f 128/128/128 126/126/126 127/127/127
f 129/129/129 127/127/127 125/125/125
f 129/129/129 125/125/125 130/130/130
f 131/131/131 128/128/128 127/127/127
f 131/131/131 127/127/127 129/129/129
f 128/128/128 131/131/131 132/132/132
f 133/133/133 128/128/128 132/132/132
f 131/131/131 134/134/134 132/132/132
f 134/134/134 131/131/131 129/129/129
f 132/132/132 135/135/135 133/133/133
f 134/134/134 135/135/135 132/132/132
f 135/135/135 136/136/136 133/133/133
f 134/134/134 129/129/129 137/137/137
f 134/134/134 137/137/137 135/135/135
f 129/129/129 138/138/138 137/137/137
f 138/138/138 129/129/129 130/130/130
f 138/138/138 130/130/130 139/139/139
f 135/135/135 140/140/140 136/136/136
f 137/137/137 140/140/140 135/135/135
f 140/140/140 141/141/141 136/136/136
f 142/142/142 138/138/138 139/139/139
f 138/138/138 142/142/142 137/137/137
f 142/142/142 139/139/139 143/143/143
f 140/140/140 144/144/144 141/141/141
f 137/137/137 144/144/144 140/140/140
f 144/144/144 145/145/145 141/141/141
f 146/146/146 142/142/142 143/143/143
f 137/137/137 142/142/142 146/146/146
f 146/146/146 143/143/143 147/147/147
f 144/144/144 148/148/148 145/145/145
f 137/137/137 148/148/148 144/144/144
f 148/148/148 149/149/149 145/145/145
f 150/150/150 146/146/146 147/147/147
f 146/146/146 150/150/150 151/151/151
f 150/150/150 147/147/147 152/152/152
f 153/153/153 137/137/137 146/146/146
f 153/153/153 148/148/148 137/137/137
f 153/153/153 146/146/146 151/151/151
f 151/151/151 148/148/148 153/153/153
f 148/148/148 154/154/154 149/149/149
f 151/151/151 154/154/154 148/148/148
f 154/154/154 155/155/155 149/149/149
f 156/156/156 150/150/150 152/152/152
f 150/150/150 156/156/156 151/151/151
f 156/156/156 152/152/152 157/157/157
f 154/154/154 158/158/158 155/155/155
f 151/151/151 158/158/158 154/154/154
f 158/158/158 159/159/159 155/155/155
f 160/160/160 157/157/157 159/159/159
f 160/160/160 156/156/156 157/157/157
f 151/151/151 156/156/156 160/160/160
f 160/160/160 158/158/158 151/151/151
f 158/158/158 160/160/160 159/159/159
f 163/163/163 162/162/162 161/161/161
f 164/164/164 162/162/162 163/163/163
f 165/165/165 163/163/163 161/161/161
f 163/163/163 165/165/165 166/166/166
f 165/165/165 161/161/161 167/167/167
f 168/168/168 165/165/165 167/167/167
f 165/165/165 168/168/168 166/166/166
f 168/168/168 167/167/167 169/169/169
f 170/170/170 168/168/168 169/169/169
f 166/166/166 168/168/168 170/170/170
f 170/170/170 169/169/169 171/171/171
f 172/172/172 170/170/170 171/171/171
f 170/170/170 172/172/172 166/166/166
f 172/172/172 171/171/171 173/173/173
f 174/174/174 172/172/172 173/173/173
f 166/166/166 172/172/172 174/174/174
f 174/174/174 173/173/173 175/175/175
f 176/176/176 174/174/174 175/175/175
f 166/166/166 174/174/174 176/176/176
f 175/175/175 177/177/177 176/176/176
f 178/178/178 163/163/163 166/166/166
f 166/166/166 176/176/176 178/178/178
f 178/178/178 179/179/179 163/163/163
f 178/178/178 176/176/176 179/179/179
f 177/177/177 180/180/180 176/176/176
f 180/180/180 179/179/179 176/176/176
f 180/180/180 177/177/177 181/181/181
f 182/182/182 180/180/180 181/181/181
f 179/179/179 180/180/180 182/182/182
f 182/182/182 181/181/181 183/183/183
f 184/184/184 163/163/163 179/179/179
f 184/184/184 164/164/164 163/163/163
f 184/184/184 185/185/185 164/164/164
f 185/185/185 184/184/184 179/179/179
f 185/185/185 186/186/186 164/164/164
f 187/187/187 182/182/182 183/183/183
f 187/187/187 183/183/183 188/188/188
f 189/189/189 187/187/187 188/188/188
f 182/182/182 187/187/187 189/189/189
f 189/189/189 188/188/188 190/190/190
f 191/191/191 179/179/179 182/182/182
f 191/191/191 185/185/185 179/179/179
f 191/191/191 182/182/182 189/189/189
f 191/191/191 189/189/189 185/185/185
f 192/192/192 190/190/190 186/186/186
f 185/185/185 192/192/192 186/186/186
f 189/189/189 192/192/192 185/185/185
f 192/192/192 189/189/189 190/190/190
f 195/195/195 194/194/194 193/193/193
f 196/196/196 194/194/194 195/195/195
f 197/197/197 195/195/195 193/193/193
f 195/195/195 197/197/197 198/198/198
f 197/197/197 193/193/193 199/199/199
f 200/200/200 197/197/197 199/199/199
f 197/197/197 200/200/200 198/198/198
f 200/200/200 199/199/199 201/201/201
f 202/202/202 200/200/200 201/201/201
f 198/198/198 200/200/200 202/202/202
f 202/202/202 201/201/201 203/203/203
f 204/204/204 202/202/202 203/203/203
f 202/202/202 204/204/204 198/198/198
f 204/204/204 203/203/203 205/205/205
f 206/206/206 204/204/204 205/205/205
f 198/198/198 204/204/204 206/206/206
f 206/206/206 205/205/205 207/207/207
f 208/208/208 206/206/206 207/207/207
f 198/198/198 206/206/206 208/208/208
f 207/207/207 209/209/209 208/208/208
f 195/195/195 198/198/198 210/210/210
f 198/198/198 208/208/208 210/210/210
f 195/195/195 210/210/210 211/211/211
f 210/210/210 208/208/208 211/211/211
f 209/209/209 212/212/212 208/208/208
f 212/212/212 211/211/211 208/208/208
f 212/212/212 209/209/209 213/213/213
f 214/214/214 212/212/212 213/213/213
f 211/211/211 212/212/212 214/214/214
f 214/214/214 213/213/213 215/215/215
f 216/216/216 195/195/195 211/211/211
f 216/216/216 196/196/196 195/195/195
f 216/216/216 217/217/217 196/196/196
f 217/217/217 216/216/216 211/211/211
f 217/217/217 218/218/218 196/196/196
f 219/219/219 214/214/214 215/215/215
f 219/219/219 215/215/215 220/220/220
f 221/221/221 219/219/219 220/220/220
f 214/214/214 219/219/219 221/221/221
f 221/221/221 220/220/220 222/222/222
f 214/214/214 223/223/223 211/211/211
f 217/217/217 211/211/211 223/223/223
f 223/223/223 214/214/214 221/221/221
f 223/223/223 221/221/221 217/217/217
f 224/224/224 222/222/222 218/218/218
f 217/217/217 224/224/224 218/218/218
f 221/221/221 224/224/224 217/217/217
f 224/224/224 221/221/221 222/222/222
f 227/227/227 226/226/226 225/225/225
f 228/228/228 226/226/226 227/227/227
f 229/229/229 227/227/227 225/225/225
f 227/227/227 229/229/229 230/230/230
f 229/229/229 225/225/225 231/231/231
f 232/232/232 229/229/229 231/231/231
f 229/229/229 232/232/232 230/230/230
f 232/232/232 231/231/231 233/233/233
f 234/234/234 232/232/232 233/233/233
f 230/230/230 232/232/232 234/234/234
f 234/234/234 233/233/233 235/235/235
f 236/236/236 234/234/234 235/235/235
f 234/234/234 236/236/236 230/230/230
f 236/236/236 235/235/235 237/237/237
f 238/238/238 236/236/236 237/237/237
f 230/230/230 236/236/236 238/238/238
f 238/238/238 237/237/237 239/239/239
f 240/240/240 238/238/238 239/239/239
f 230/230/230 238/238/238 240/240/240
f 239/239/239 241/241/241 240/240/240
f 227/227/227 230/230/230 242/242/242
f 230/230/230 240/240/240 242/242/242
f 227/227/227 242/242/242 243/243/243
f 242/242/242 240/240/240 243/243/243
f 241/241/241 244/244/244 240/240/240
f 244/244/244 243/243/243 240/240/240
f 244/244/244 241/241/241 245/245/245
f 246/246/246 244/244/244 245/245/245
f 243/243/243 244/244/244 246/246/246
f 246/246/246 245/245/245 247/247/247
f 248/248/248 227/227/227 243/243/243
f 248/248/248 228/228/228 227/227/227
f 248/248/248 249/249/249 228/228/228
f 249/249/249 248/248/248 243/243/243
f 249/249/249 250/250/250 228/228/228
f 251/251/251 246/246/246 247/247/247
f 251/251/251 247/247/247 252/252/252
f 253/253/253 251/251/251 252/252/252
f 246/246/246 251/251/251 253/253/253
f 253/253/253 252/252/252 254/254/254
f 246/246/246 255/255/255 243/243/243
f 249/249/249 243/243/243 255/255/255
f 255/255/255 246/246/246 253/253/253
f 255/255/255 253/253/253 249/249/249
f 256/256/256 254/254/254 250/250/250
f 249/249/249 256/256/256 250/250/250
f 253/253/253 256/256/256 249/249/249
f 256/256/256 253/253/253 254/254/254
f 259/259/259 258/258/258 257/257/257
f 260/260/260 258/258/258 259/259/259
f 261/261/261 259/259/259 257/257/257
f 259/259/259 261/261/261 262/262/262
f 261/261/261 257/257/257 263/263/263
f 264/264/264 261/261/261 263/263/263
f 261/261/261 264/264/264 262/262/262
f 264/264/264 263/263/263 265/265/265
f 266/266/266 264/264/264 265/265/265
f 262/262/262 264/264/264 266/266/266
f 266/266/266 265/265/265 267/267/267
f 268/268/268 266/266/266 267/267/267
f 266/266/266 268/268/268 262/262/262
f 268/268/268 267/267/267 269/269/269
f 270/270/270 268/268/268 269/269/269
f 262/262/262 268/268/268 270/270/270
f 270/270/270 269/269/269 271/271/271
f 272/272/272 270/270/270 271/271/271
f 262/262/262 270/270/270 272/272/272
f 271/271/271 273/273/273 272/272/272
f 274/274/274 259/259/259 262/262/262
f 262/262/262 272/272/272 274/274/274
f 273/273/273 275/275/275 272/272/272
f 275/275/275 273/273/273 276/276/276
f 274/274/274 272/272/272 277/277/277
f 274/274/274 277/277/277 259/259/259
f 275/275/275 277/277/277 272/272/272
f 278/278/278 259/259/259 277/277/277
f 278/278/278 260/260/260 259/259/259
f 279/279/279 275/275/275 276/276/276
f 279/279/279 276/276/276 280/280/280
f 281/281/281 279/279/279 280/280/280
f 275/275/275 279/279/279 281/281/281
f 281/281/281 280/280/280 282/282/282
f 283/283/283 277/277/277 275/275/275
f 283/283/283 278/278/278 277/277/277
f 283/283/283 275/275/275 281/281/281
f 283/283/283 281/281/281 278/278/278
f 284/284/284 282/282/282 260/260/260
f 278/278/278 284/284/284 260/260/260
f 281/281/281 284/284/284 278/278/278
f 284/284/284 281/281/281 282/282/282
f 287/287/287 286/286/286 285/285/285
f 288/288/288 286/286/286 287/287/287
f 289/289/289 288/288/288 287/287/287
f 290/290/290 288/288/288 289/289/289
f 290/290/290 291/291/291 288/288/288
f 288/288/288 291/291/291 292/292/292
f 292/292/292 293/293/293 288/288/288
f 293/293/293 294/294/294 288/288/288
f 294/294/294 286/286/286 288/288/288
f 295/295/295 286/286/286 294/294/294
f 285/285/285 286/286/286 296/296/296
f 297/297/297 286/286/286 295/295/295
f 286/286/286 297/297/297 296/296/296
f 298/298/298 297/297/297 295/295/295
f 298/298/298 299/299/299 297/297/297
f 296/296/296 297/297/297 300/300/300
f 299/299/299 300/300/300 297/297/297
f 301/301/301 296/296/296 300/300/300
f 302/302/302 300/300/300 299/299/299
f 301/301/301 300/300/300 303/303/303
f 300/300/300 302/302/302 303/303/303
f 306/306/306 305/305/305 304/304/304
f 304/304/304 305/305/305 307/307/307
f 308/308/308 305/305/305 306/306/306
f 309/309/309 308/308/308 306/306/306
f 310/310/310 308/308/308 309/309/309
f 310/310/310 311/311/311 308/308/308
f 312/312/312 308/308/308 311/311/311
f 312/312/312 313/313/313 308/308/308
f 305/305/305 308/308/308 313/313/313
f 314/314/314 305/305/305 313/313/313
f 315/315/315 305/305/305 314/314/314
f 305/305/305 316/316/316 307/307/307
f 316/316/316 305/305/305 315/315/315
f 307/307/307 316/316/316 317/317/317
f 318/318/318 316/316/316 315/315/315
f 317/317/317 316/316/316 319/319/319
f 316/316/316 318/318/318 320/320/320
f 319/319/319 316/316/316 320/320/320
f 323/323/323 322/322/322 321/321/321
f 324/324/324 322/322/322 323/323/323
f 325/325/325 324/324/324 323/323/323
f 324/324/324 325/325/325 326/326/326
f 327/327/327 324/324/324 326/326/326
f 327/327/327 328/328/328 324/324/324
f 328/328/328 329/329/329 324/324/324
f 329/329/329 330/330/330 324/324/324
f 322/322/322 324/324/324 330/330/330
f 331/331/331 322/322/322 330/330/330
f 321/321/321 322/322/322 332/332/332
f 333/333/333 322/322/322 331/331/331
f 322/322/322 334/334/334 332/332/332
f 334/334/334 322/322/322 333/333/333
f 332/332/332 334/334/334 335/335/335
f 336/336/336 334/334/334 333/333/333
f 337/337/337 335/335/335 334/334/334
f 334/334/334 336/336/336 337/337/337
f 340/340/340 339/339/339 338/338/338
f 338/338/338 339/339/339 341/341/341
f 342/342/342 339/339/339 340/340/340
f 343/343/343 342/342/342 340/340/340
f 344/344/344 342/342/342 343/343/343
f 344/344/344 345/345/345 342/342/342
f 346/346/346 342/342/342 345/345/345
f 346/346/346 347/347/347 342/342/342
f 339/339/339 342/342/342 347/347/347
f 348/348/348 339/339/339 347/347/347
f 349/349/349 339/339/339 348/348/348
f 339/339/339 350/350/350 341/341/341
f 350/350/350 339/339/339 349/349/349
f 341/341/341 350/350/350 351/351/351
f 352/352/352 350/350/350 349/349/349
f 351/351/351 350/350/350 353/353/353
f 350/350/350 352/352/352 354/354/354
f 353/353/353 350/350/350 354/354/354
f 357/357/357 356/356/356 355/355/355
f 355/355/355 356/356/356 358/358/358
f 359/359/359 356/356/356 357/357/357
f 356/356/356 360/360/360 358/358/358
f 361/361/361 358/358/358 360/360/360
f 361/361/361 360/360/360 362/362/362
f 363/363/363 362/362/362 360/360/360
f 364/364/364 363/363/363 360/360/360
f 364/364/364 360/360/360 365/365/365
f 360/360/360 356/356/356 365/365/365
f 365/365/365 356/356/356 366/366/366
f 366/366/366 356/356/356 367/367/367
f 359/359/359 368/368/368 356/356/356
f 368/368/368 367/367/367 356/356/356
f 368/368/368 359/359/359 369/369/369
f 368/368/368 369/369/369 367/367/367
f 370/370/370 369/369/369 359/359/359
f 367/367/367 369/369/369 371/371/371
f 372/372/372 369/369/369 370/370/370
f 373/373/373 371/371/371 369/369/369
f 372/372/372 374/374/374 369/369/369
f 373/373/373 369/369/369 374/374/374
f 377/377/377 376/376/376 375/375/375
f 378/378/378 377/377/377 375/375/375
f 378/378/378 375/375/375 379/379/379
f 377/377/377 380/380/380 376/376/376
f 381/381/381 380/380/380 377/377/377
f 380/380/380 382/382/382 376/376/376
f 380/380/380 383/383/383 382/382/382
f 381/381/381 383/383/383 380/380/380
f 383/383/383 384/384/384 382/382/382
f 383/383/383 385/385/385 384/384/384
f 385/385/385 383/383/383 381/381/381
f 385/385/385 386/386/386 384/384/384
f 385/385/385 387/387/387 386/386/386
f 381/381/381 387/387/387 385/385/385
f 387/387/387 388/388/388 386/386/386
f 387/387/387 389/389/389 388/388/388
f 389/389/389 387/387/387 381/381/381
f 389/389/389 390/390/390 388/388/388
f 389/389/389 391/391/391 390/390/390
f 391/391/391 389/389/389 381/381/381
f 391/391/391 392/392/392 390/390/390
f 393/393/393 381/381/381 377/377/377
f 393/393/393 391/391/391 381/381/381
f 393/393/393 377/377/377 394/394/394
f 393/393/393 394/394/394 391/391/391
f 377/377/377 378/378/378 394/394/394
f 394/394/394 395/395/395 391/391/391
f 391/391/391 395/395/395 392/392/392
f 395/395/395 396/396/396 392/392/392
f 395/395/395 397/397/397 396/396/396
f 394/394/394 397/397/397 395/395/395
f 397/397/397 398/398/398 396/396/396
f 394/394/394 378/378/378 399/399/399
f 399/399/399 378/378/378 379/379/379
f 400/400/400 399/399/399 379/379/379
f 394/394/394 399/399/399 400/400/400
f 400/400/400 379/379/379 401/401/401
f 402/402/402 400/400/400 401/401/401
f 402/402/402 401/401/401 403/403/403
f 404/404/404 402/402/402 403/403/403
f 404/404/404 403/403/403 405/405/405
f 406/406/406 405/405/405 398/398/398
f 406/406/406 404/404/404 405/405/405
f 397/397/397 407/407/407 398/398/398
f 407/407/407 406/406/406 398/398/398
f 400/400/400 402/402/402 408/408/408
f 408/408/408 402/402/402 404/404/404
f 409/409/409 407/407/407 397/397/397
f 394/394/394 409/409/409 397/397/397
f 406/406/406 407/407/407 410/410/410
f 404/404/404 406/406/406 410/410/410
f 407/407/407 409/409/409 410/410/410
f 411/411/411 404/404/404 410/410/410
f 411/411/411 408/408/408 404/404/404
f 411/411/411 410/410/410 409/409/409
f 412/412/412 400/400/400 408/408/408
f 412/412/412 394/394/394 400/400/400
f 412/412/412 408/408/408 411/411/411
f 413/413/413 411/411/411 409/409/409
f 394/394/394 413/413/413 409/409/409
f 413/413/413 412/412/412 411/411/411
f 394/394/394 412/412/412 413/413/413
f 416/416/416 415/415/415 414/414/414
f 417/417/417 416/416/416 414/414/414
f 418/418/418 416/416/416 417/417/417
f 418/418/418 419/419/419 416/416/416
f 417/417/417 414/414/414 420/420/420
f 416/416/416 421/421/421 415/415/415
f 419/419/419 421/421/421 416/416/416
f 421/421/421 422/422/422 415/415/415
f 423/423/423 417/417/417 420/420/420
f 418/418/418 417/417/417 423/423/423
f 423/423/423 420/420/420 424/424/424
f 421/421/421 425/425/425 422/422/422
f 421/421/421 419/419/419 425/425/425
f 425/425/425 426/426/426 422/422/422
f 425/425/425 427/427/427 426/426/426
f 419/419/419 427/427/427 425/425/425
f 427/427/427 428/428/428 426/426/426
f 427/427/427 429/429/429 428/428/428
f 429/429/429 427/427/427 419/419/419
f 429/429/429 430/430/430 428/428/428
f 429/429/429 431/431/431 430/430/430
f 431/431/431 429/429/429 419/419/419
f 431/431/431 432/432/432 430/430/430
f 433/433/433 431/431/431 419/419/419
f 431/431/431 433/433/433 432/432/432
f 419/419/419 418/418/418 433/433/433
f 433/433/433 434/434/434 432/432/432
f 433/433/433 435/435/435 434/434/434
f 418/418/418 435/435/435 433/433/433
f 435/435/435 436/436/436 434/434/434
f 435/435/435 437/437/437 436/436/436
f 418/418/418 437/437/437 435/435/435
f 437/437/437 438/438/438 436/436/436
f 418/418/418 439/439/439 437/437/437
f 439/439/439 418/418/418 423/423/423
f 437/437/437 440/440/440 438/438/438
f 439/439/439 440/440/440 437/437/437
f 440/440/440 441/441/441 438/438/438
f 440/440/440 442/442/442 441/441/441
f 440/440/440 439/439/439 442/442/442
f 442/442/442 443/443/443 441/441/441
f 439/439/439 423/423/423 444/444/444
f 444/444/444 442/442/442 439/439/439
f 442/442/442 444/444/444 443/443/443
f 444/444/444 423/423/423 424/424/424
f 444/444/444 424/424/424 443/443/443
f 447/447/447 446/446/446 445/445/445
f 448/448/448 447/447/447 445/445/445
f 447/447/447 448/448/448 449/449/449
f 448/448/448 445/445/445 450/450/450
f 451/451/451 448/448/448 450/450/450
f 449/449/449 448/448/448 451/451/451
f 451/451/451 450/450/450 452/452/452
f 453/453/453 451/451/451 452/452/452
f 453/453/453 452/452/452 454/454/454
f 451/451/451 453/453/453 455/455/455
f 455/455/455 449/449/449 451/451/451
f 456/456/456 453/453/453 454/454/454
f 455/455/455 453/453/453 456/456/456
f 456/456/456 454/454/454 457/457/457
f 458/458/458 456/456/456 457/457/457
f 456/456/456 458/458/458 455/455/455
f 458/458/458 457/457/457 459/459/459
f 458/458/458 460/460/460 455/455/455
f 460/460/460 458/458/458 459/459/459
f 449/449/449 455/455/455 460/460/460
f 460/460/460 459/459/459 461/461/461
f 462/462/462 460/460/460 461/461/461
f 449/449/449 460/460/460 462/462/462
f 462/462/462 461/461/461 463/463/463
f 464/464/464 462/462/462 463/463/463
f 449/449/449 462/462/462 464/464/464
f 464/464/464 463/463/463 465/465/465
f 466/466/466 449/449/449 464/464/464
f 466/466/466 464/464/464 467/467/467
f 466/466/466 447/447/447 449/449/449
f 466/466/466 467/467/467 447/447/447
f 468/468/468 464/464/464 465/465/465
f 464/464/464 468/468/468 467/467/467
f 468/468/468 465/465/465 469/469/469
f 470/470/470 468/468/468 469/469/469
f 468/468/468 470/470/470 467/467/467
f 470/470/470 469/469/469 471/471/471
f 472/472/472 470/470/470 471/471/471
f 467/467/467 470/470/470 472/472/472
f 472/472/472 471/471/471 473/473/473
f 474/474/474 472/472/472 473/473/473
f 472/472/472 474/474/474 467/467/467
f 474/474/474 473/473/473 475/475/475
f 467/467/467 476/476/476 447/447/447
f 467/467/467 474/474/474 476/476/476
f 476/476/476 474/474/474 475/475/475
f 447/447/447 476/476/476 446/446/446
f 476/476/476 475/475/475 446/446/446
f 479/479/479 478/478/478 477/477/477
f 480/480/480 479/479/479 477/477/477
f 480/480/480 477/477/477 481/481/481
f 482/482/482 479/479/479 480/480/480
f 482/482/482 480/480/480 483/483/483
f 483/483/483 480/480/480 481/481/481
f 483/483/483 481/481/481 484/484/484
f 479/479/479 485/485/485 478/478/478
f 482/482/482 485/485/485 479/479/479
f 485/485/485 486/486/486 478/478/478
f 487/487/487 483/483/483 484/484/484
f 487/487/487 484/484/484 488/488/488
f 483/483/483 487/487/487 489/489/489
f 489/489/489 482/482/482 483/483/483
f 490/490/490 487/487/487 488/488/488
f 489/489/489 487/487/487 490/490/490
f 490/490/490 488/488/488 491/491/491
f 492/492/492 490/490/490 491/491/491
f 490/490/490 492/492/492 489/489/489
f 492/492/492 491/491/491 493/493/493
f 494/494/494 492/492/492 493/493/493
f 492/492/492 494/494/494 489/489/489
f 494/494/494 493/493/493 495/495/495
f 489/489/489 494/494/494 496/496/496
f 496/496/496 494/494/494 495/495/495
f 482/482/482 489/489/489 496/496/496
f 496/496/496 495/495/495 497/497/497
f 498/498/498 496/496/496 497/497/497
f 482/482/482 496/496/496 498/498/498
f 498/498/498 497/497/497 499/499/499
f 500/500/500 498/498/498 499/499/499
f 482/482/482 498/498/498 500/500/500
f 500/500/500 499/499/499 501/501/501
f 500/500/500 502/502/502 482/482/482
f 503/503/503 502/502/502 500/500/500
f 502/502/502 485/485/485 482/482/482
f 485/485/485 502/502/502 503/503/503
f 504/504/504 500/500/500 501/501/501
f 503/503/503 500/500/500 504/504/504
f 504/504/504 501/501/501 505/505/505
f 506/506/506 504/504/504 505/505/505
f 504/504/504 506/506/506 503/503/503
f 506/506/506 505/505/505 507/507/507
f 508/508/508 506/506/506 507/507/507
f 503/503/503 506/506/506 508/508/508
f 508/508/508 507/507/507 509/509/509
f 510/510/510 508/508/508 509/509/509
f 508/508/508 510/510/510 503/503/503
f 510/510/510 509/509/509 511/511/511
f 503/503/503 512/512/512 485/485/485
f 503/503/503 510/510/510 512/512/512
f 512/512/512 510/510/510 511/511/511
f 485/485/485 512/512/512 486/486/486
f 512/512/512 511/511/511 486/486/486
