g luxian3_fixluxian3_fix_mobile
v 11.9074617 -10.4097031 0.194477615
v 6.62940789 -10.4328032 -0.263777825
v 11.9068374 -10.4146977 -0.263777825
v 6.62940789 -10.4328032 0.195101941
v 6.04816019 -10.5845144 -0.263777825
v 6.63502683 -10.4740087 0.34868619
v 11.9480429 -10.4490357 0.348061864
v 6.04816019 -10.5845144 0.195101941
v 5.55494248 -10.9210263 -0.263777825
v 6.64938633 -10.5863874 0.461064908
v 12.0597973 -10.5607901 0.461064908
v 6.11246579 -10.7262365 0.461064908
v 6.06564132 -10.6225983 0.34868619
v 5.66419957 -11.0327807 0.461064908
v 5.58428581 -10.9509939 0.34868619
v 5.35078781 -11.4691847 0.461064908
v 5.55494248 -10.9210263 0.195101941
v 5.20969008 -11.4017575 -0.263777825
v 5.24714966 -11.4198629 0.34868619
v 5.20719278 -11.9892484 0.461064908
v 5.20969008 -11.4017575 0.195101941
v 5.05360853 -11.96927 -0.263777825
v 5.09481406 -11.9742646 0.34868619
v 5.20282249 -13.7610862 0.461064908
v 5.05360853 -11.9686457 0.195101941
v 5.04861392 -13.6087506 -0.263777825
v 5.09044378 -13.6480832 0.34868619
v 5.04923825 -13.607502 0.195101941
v 4.98305967 -13.7667052 -0.263777825
v 4.98305967 -13.7654565 0.195101941
v 4.82385648 -13.8322594 -0.263777825
v 5.0242652 -13.806662 0.34868619
v 5.13664392 -13.9190408 0.461064908
v 4.82448081 -13.8310108 0.195101941
v 4.86506201 -13.8722163 0.34868619
v 4.97744073 -13.984595 0.461064908
v -4.97744073 -13.984595 0.461064908
v -4.86506201 -13.8722163 0.34868619
v -5.13664392 -13.9190408 0.461064908
v -4.82448081 -13.8310108 0.195101941
v -4.82385648 -13.8322594 -0.263777825
v -5.0242652 -13.806662 0.34868619
v -5.20282249 -13.7610862 0.461064908
v -4.98305967 -13.7654565 0.195101941
v -4.98305967 -13.7667052 -0.263777825
v -5.09044378 -13.6480832 0.34868619
v -5.04923825 -13.607502 0.195101941
v -5.04861392 -13.6087506 -0.263777825
v -5.05360853 -11.9686457 0.195101941
v -5.05360853 -11.96927 -0.263777825
v -5.09481406 -11.9742646 0.34868619
v -5.20719278 -11.9892484 0.461064908
v -5.20969008 -11.4017575 0.195101941
v -5.20969008 -11.4017575 -0.263777825
v -5.24714966 -11.4198629 0.34868619
v -5.35078781 -11.4691847 0.461064908
v -5.55494248 -10.9210263 0.195101941
v -5.55494248 -10.9210263 -0.263777825
v -5.58428581 -10.9509939 0.34868619
v -5.66419957 -11.0327807 0.461064908
v -6.04816019 -10.5845144 0.195101941
v -6.04816019 -10.5845144 -0.263777825
v -6.06564132 -10.6225983 0.34868619
v -6.11246579 -10.7262365 0.461064908
v -6.62940789 -10.4328032 0.195101941
v -6.62940789 -10.4328032 -0.263777825
v -6.63502683 -10.4740087 0.34868619
v -6.64938633 -10.5863874 0.461064908
v -11.9074617 -10.4097031 0.194477615
v -11.9068374 -10.4146977 -0.263777825
v -11.9480429 -10.4490357 0.348061864
v -12.0597973 -10.5607901 0.461064908
v 12.2183761 -10.4946115 0.461064908
v 12.0597973 -10.5607901 0.461064908
v 11.9480429 -10.4490357 0.348061864
v 12.1066218 -10.3834814 0.348061864
v 12.2845547 -10.3366569 0.461064908
v 11.9074617 -10.4097031 0.194477615
v 12.1728003 -10.2255269 0.348061864
v 12.3095278 6.93158178 0.461064908
v 12.0654162 -10.3435245 0.194477615
v 11.9068374 -10.4146977 -0.263777825
v 12.0654162 -10.3491435 -0.263777825
v 12.1322191 -10.18557 0.194477615
v 12.1315948 -10.1905646 -0.263777825
v 12.1565679 6.78548944 -0.263777825
v 12.1983977 6.82045171 0.348061864
v 12.1571922 6.78049483 0.194477615
v 12.0903893 6.9440683 -0.263777825
v 12.0910136 6.93844937 0.194477615
v 11.9318104 7.00962255 -0.263777825
v 11.9324347 7.00400362 0.194477615
v 12.1315948 6.97840624 0.348061864
v 12.2433492 7.08953631 0.461064908
v 11.9730159 7.0439605 0.348061864
v 12.0847703 7.15509056 0.461064908
v 12.0866433 -17.1349451 0.271269739
v 14.4796857 -17.0825017 -0.542227316
v 12.0828974 -17.1399397 -0.542227316
v 14.4809343 -17.0818773 0.270645413
v 15.4355291 -16.9769905 -0.542227316
v 14.4790614 -17.0512854 0.386770089
v 12.0654162 -17.1037288 0.386770089
v 15.4355291 -16.9769905 0.270645413
v 16.3420508 -16.6679491 -0.542227316
v 14.4734424 -16.966377 0.471054128
v 12.0067296 -17.0194447 0.471678454
v 15.4105561 -16.8633632 0.471054128
v 15.4286615 -16.9463986 0.386770089
v 16.292729 -16.5624379 0.471054128
v 16.3289399 -16.6398544 0.386770089
v 17.0837503 -16.0779608 0.471054128
v 16.3420508 -16.6679491 0.270645413
v 17.1549235 -16.1697367 -0.542227316
v 17.1361937 -16.145388 0.386770089
v 17.7442875 -15.4342805 0.471054128
v 17.1549235 -16.1697367 0.270645413
v 17.8341904 -15.507951 -0.542227316
v 17.8098417 -15.4879725 0.386770089
v 18.2406268 -14.6638619 0.471054128
v 17.8341904 -15.507951 0.270645413
v 18.3448893 -14.715681 -0.542227316
v 18.3174189 -14.7013215 0.386770089
v 18.5490439 -13.8054134 0.471054128
v 18.3448893 -14.715681 0.270645413
v 18.662047 -13.8316351 -0.542227316
v 18.6320793 -13.8247675 0.386770089
v 18.6539307 -12.8951458 0.471054128
v 18.6626713 -13.8316351 0.270645413
v 18.7694311 -12.9020133 -0.542227316
v 18.7388391 -12.9001404 0.386770089
v 18.7700554 -12.9020133 0.270645413
v 18.7950285 9.49693819 -0.542227316
v 18.7638122 9.49506521 0.386770089
v 18.6789038 9.4900706 0.471054128
v 18.7950285 9.49693819 0.270645413
v 18.6876444 10.4265599 0.270645413
v 18.68702 10.4265599 -0.542227316
v 18.6570524 10.4196923 0.386770089
v 18.574017 10.4003382 0.471054128
v 18.3704866 11.3106058 0.270645413
v 18.3698623 11.3099815 -0.542227316
v 18.342392 11.2962463 0.386770089
v 18.2655998 11.2587868 0.471054128
v 17.8591635 12.1028758 0.270645413
v 17.8591635 12.1028758 -0.542227316
v 17.8354391 12.0828974 0.386770089
v 17.7692605 12.0292053 0.471054128
v 17.1805209 12.7646616 0.270645413
v 17.1798966 12.7646616 -0.542227316
v 17.1611668 12.7403129 0.386770089
v 17.1087234 12.6728856 0.471054128
v 16.3670238 13.2628739 0.270645413
v 16.3670238 13.2628739 -0.542227316
v 16.353913 13.2347792 0.386770089
v 16.3177021 13.1573628 0.471054128
v 15.4605022 13.5719154 0.270645413
v 15.4605022 13.5719154 -0.542227316
v 15.4536346 13.5413234 0.386770089
v 15.4355291 13.458288 0.471054128
v 14.5059074 13.6768022 0.270645413
v 14.5046587 13.6774265 -0.542227316
v 14.5040344 13.6455859 0.386770089
v 14.4984155 13.5613018 0.471054128
v 12.1116164 13.7298699 0.271269739
v 12.1084947 13.7348645 -0.542227316
v 12.0903893 13.6980293 0.386770089
v 12.0317026 13.6143696 0.471678454
v 12.0654162 -17.1037288 0.386770089
v 11.8868589 -17.0587773 0.471678454
v 12.0067296 -17.0194447 0.471678454
v 11.9455456 -17.1430613 0.386770089
v 12.0866433 -17.1349451 0.271269739
v 11.8094425 -17.1586695 0.471678454
v 11.9661484 -17.1742776 0.271269739
v 12.0828974 -17.1399397 -0.542227316
v 11.9630267 -17.1792722 -0.542227316
v 11.8675048 -17.2423292 0.386770089
v 11.8887319 -17.2735455 0.271269739
v 11.8856103 -17.2791644 -0.542227316
v 11.5734472 -18.0907885 0.270645413
v 11.5721985 -18.0957831 -0.542227316
v 11.5459768 -18.076429 0.386770089
v 11.469809 -18.0370964 0.471054128
v 11.0633727 -18.8824341 0.270645413
v 11.063997 -18.8830585 -0.542227316
v 11.0390239 -18.8624557 0.386770089
v 10.9728454 -18.8081393 0.471054128
v 10.3841057 -19.5442199 0.270645413
v 10.3847301 -19.5454686 -0.542227316
v 10.3647516 -19.5192469 0.386770089
v 10.3123082 -19.452444 0.471054128
v 9.57060868 -20.0424322 0.270645413
v 9.571233 -20.0436809 -0.542227316
v 9.55749783 -20.0137132 0.386770089
v 9.52128691 -19.9369211 0.471054128
v 8.66408702 -20.3514737 0.270645413
v 8.66471134 -20.3527224 -0.542227316
v 8.65721943 -20.3208817 0.386770089
v 8.63911397 -20.2378463 0.471054128
v 7.71011656 -20.4563605 0.270645413
v 7.71011656 -20.4576092 -0.542227316
v -7.71011656 -20.4576092 -0.542227316
v 7.70824359 -20.4251442 0.386770089
v 7.70324898 -20.3402358 0.471054128
v -7.71011656 -20.4563605 0.270645413
v -8.66471134 -20.3527224 -0.542227316
v -7.70824359 -20.4251442 0.386770089
v -7.70324898 -20.3402358 0.471054128
v -8.63911397 -20.2378463 0.471054128
v -8.65721943 -20.3208817 0.386770089
v -9.52128691 -19.9369211 0.471054128
v -8.66408702 -20.3514737 0.270645413
v -9.571233 -20.0436809 -0.542227316
v -9.55749783 -20.0137132 0.386770089
v -10.3123082 -19.452444 0.471054128
v -9.57060868 -20.0424322 0.270645413
v -10.3847301 -19.5454686 -0.542227316
v -10.3647516 -19.5192469 0.386770089
v -10.9728454 -18.8081393 0.471054128
v -10.3841057 -19.5442199 0.270645413
v -11.063997 -18.8830585 -0.542227316
v -11.0390239 -18.8624557 0.386770089
v -11.469809 -18.0370964 0.471054128
v -11.0633727 -18.8824341 0.270645413
v -11.5721985 -18.0957831 -0.542227316
v -11.5459768 -18.076429 0.386770089
v -11.8094425 -17.1586695 0.471678454
v -11.5734472 -18.0907885 0.270645413
v -11.8856103 -17.2791644 -0.542227316
v -11.8675048 -17.2423292 0.386770089
v -11.8887319 -17.2735455 0.271269739
v -11.9630267 -17.1792722 -0.542227316
v -11.9661484 -17.1742776 0.271269739
v -12.0828974 -17.1399397 -0.542227316
v -12.0866433 -17.1349451 0.271269739
v -11.9455456 -17.1430613 0.386770089
v -11.8868589 -17.0587773 0.471678454
v -12.0654162 -17.1037288 0.386770089
v -12.0067296 -17.0194447 0.471678454
v 11.9324347 7.00400362 0.194477615
v 11.9318104 7.00962255 -0.263777825
v 6.65438094 7.02772801 -0.263777825
v 6.65438094 7.02772801 0.195101941
v 6.07313323 7.17943928 -0.263777825
v 6.65999987 7.06830922 0.34868619
v 11.9730159 7.0439605 0.348061864
v 6.07313323 7.17943928 0.195101941
v 5.57991553 7.51595111 -0.263777825
v 6.6749837 7.18131226 0.461064908
v 12.0847703 7.15509056 0.461064908
v 6.13743883 7.32116133 0.461064908
v 6.09061437 7.21752318 0.34868619
v 5.68917261 7.6277055 0.461064908
v 5.60925886 7.54591877 0.34868619
v 5.37576085 8.06410953 0.461064908
v 5.57991553 7.51595111 0.195101941
v 5.23466313 7.9966823 -0.263777825
v 5.27274703 8.01478776 0.34868619
v 5.23216583 8.58417326 0.461064908
v 5.11978711 8.56918943 0.34868619
v 5.23466313 7.9966823 0.195101941
v 5.07858158 8.56419482 -0.263777825
v 5.07858158 8.5635705 0.195101941
v 12.0903893 13.6980293 0.386770089
v 12.0317026 13.6143696 0.471678454
v 11.911832 13.6537021 0.471678454
v 11.9705186 13.7379861 0.386770089
v 12.1116164 13.7298699 0.271269739
v 11.8344155 13.75297 0.471678454
v 11.9911214 13.7692025 0.271269739
v 12.1084947 13.7348645 -0.542227316
v 11.9886241 13.7741971 -0.542227316
v 11.8924779 13.837254 0.386770089
v 11.913705 13.8684703 0.271269739
v 11.9105833 13.8740893 -0.542227316
v 11.8475264 16.2777452 -0.542227316
v 11.8475264 16.2777452 0.270645413
v 11.7426396 17.2079912 -0.542227316
v 11.8163101 16.2758722 0.386770089
v 11.732026 16.2708776 0.471054128
v 11.6290122 17.1817695 0.471054128
v 11.7120476 17.2004993 0.386770089
v 11.3287113 18.0408424 0.471054128
v 11.7426396 17.2079912 0.270645413
v 11.4335981 18.0914128 -0.542227316
v 11.4055034 18.0776777 0.386770089
v 10.8442342 18.811261 0.471054128
v 11.4335981 18.0914128 0.270645413
v 10.9353858 18.8836828 -0.542227316
v 10.9110371 18.8643287 0.386770089
v 10.2011782 19.454317 0.471054128
v 10.9353858 18.8836828 0.270645413
v 10.2736 19.5454686 -0.542227316
v 10.2542459 19.5211199 0.386770089
v 9.43075961 19.9387941 0.471054128
v 10.2736 19.5454686 0.270645413
v 9.48133003 20.0436809 -0.542227316
v 9.46759485 20.0155862 0.386770089
v 8.57168674 20.239095 0.471054128
v 9.48133003 20.0436809 0.270645413
v 8.59728411 20.3527224 -0.542227316
v 8.59041652 20.3221304 0.386770089
v 7.66141912 20.3414845 0.471054128
v 8.59728411 20.3527224 0.270645413
v 7.66766238 20.4576092 -0.542227316
v 7.6657894 20.4263929 0.386770089
v 7.66766238 20.4576092 0.270645413
v -7.66766238 20.4576092 -0.542227316
v -7.6657894 20.4263929 0.386770089
v -7.66141912 20.3414845 0.471054128
v -7.66766238 20.4576092 0.270645413
v -8.59728411 20.3527224 0.270645413
v -8.59728411 20.3527224 -0.542227316
v -8.59041652 20.3221304 0.386770089
v -8.57168674 20.239095 0.471054128
v -9.48133003 20.0436809 0.270645413
v -9.48133003 20.0436809 -0.542227316
v -9.46759485 20.0155862 0.386770089
v -9.43075961 19.9387941 0.471054128
v -10.2736 19.5454686 0.270645413
v -10.2736 19.5454686 -0.542227316
v -10.2542459 19.5211199 0.386770089
v -10.2011782 19.454317 0.471054128
v -10.9353858 18.8836828 0.270645413
v -10.9353858 18.8836828 -0.542227316
v -10.9110371 18.8643287 0.386770089
v -10.8442342 18.811261 0.471054128
v -11.4335981 18.0914128 0.270645413
v -11.4335981 18.0914128 -0.542227316
v -11.4055034 18.0776777 0.386770089
v -11.3287113 18.0408424 0.471054128
v -11.7426396 17.2079912 0.270645413
v -11.7426396 17.2079912 -0.542227316
v -11.7120476 17.2004993 0.386770089
v -11.6290122 17.1817695 0.471054128
v -11.8475264 16.2777452 0.270645413
v -11.8475264 16.2777452 -0.542227316
v -11.8163101 16.2758722 0.386770089
v -11.732026 16.2708776 0.471054128
v -11.8344155 13.75297 0.471678454
v -11.913705 13.8684703 0.271269739
v -11.9105833 13.8740893 -0.542227316
v -11.9886241 13.7741971 -0.542227316
v -11.8924779 13.837254 0.386770089
v -11.9911214 13.7692025 0.271269739
v -12.1084947 13.7348645 -0.542227316
v -12.1116164 13.7298699 0.271269739
v -11.9705186 13.7379861 0.386770089
v -11.911832 13.6537021 0.471678454
v -12.0903893 13.6980293 0.386770089
v -12.0317026 13.6143696 0.471678454
v -5.11978711 8.56918943 0.34868619
v -5.23216583 8.58417326 0.461064908
v -5.21406037 13.5388261 0.461064908
v -5.100433 13.4264474 0.349310516
v -5.07858158 8.5635705 0.195101941
v -5.14913044 13.6980293 0.461064908
v -5.05922747 13.3846175 0.195726268
v -5.07858158 8.56419482 -0.263777825
v -5.05797881 13.3796229 -0.263777825
v -5.0361274 13.5856506 0.349310516
v -4.99055158 13.7642078 0.461064908
v -4.99429754 13.5431964 0.195726268
v -4.99304889 13.5388261 -0.263777825
v -4.87754854 13.6518291 0.349310516
v 4.99055158 13.7642078 0.461064908
v -4.83571868 13.6093749 0.195726268
v -4.83447003 13.6050047 -0.263777825
v 4.87754854 13.6518291 0.349310516
v 4.83571868 13.6093749 0.195726268
v 4.83447003 13.6050047 -0.263777825
v 4.99304889 13.5388261 -0.263777825
v 4.99429754 13.5431964 0.195726268
v 5.05797881 13.3796229 -0.263777825
v 5.0361274 13.5856506 0.349310516
v 5.14913044 13.6980293 0.461064908
v 5.05922747 13.3846175 0.195726268
v 5.07858158 8.56419482 -0.263777825
v 5.07858158 8.5635705 0.195101941
v 5.100433 13.4264474 0.349310516
v 5.21406037 13.5388261 0.461064908
v 5.11978711 8.56918943 0.34868619
v 5.23216583 8.58417326 0.461064908
v -12.2183761 -10.4946115 0.461064908
v -11.9480429 -10.4490357 0.348061864
v -12.0597973 -10.5607901 0.461064908
v -12.1066218 -10.3834814 0.348061864
v -12.2845547 -10.3366569 0.461064908
v -11.9074617 -10.4097031 0.194477615
v -12.1728003 -10.2255269 0.348061864
v -12.3095278 6.93158178 0.461064908
v -12.0654162 -10.3435245 0.194477615
v -11.9068374 -10.4146977 -0.263777825
v -12.0654162 -10.3491435 -0.263777825
v -12.1322191 -10.18557 0.194477615
v -12.1315948 -10.1905646 -0.263777825
v -12.1565679 6.78548944 -0.263777825
v -12.1977734 6.82045171 0.348061864
v -12.1571922 6.78049483 0.194477615
v -12.0903893 6.9440683 -0.263777825
v -12.0910136 6.93844937 0.194477615
v -11.9318104 7.00962255 -0.263777825
v -11.9324347 7.00400362 0.194477615
v -12.1315948 6.97840624 0.348061864
v -12.2433492 7.08953631 0.461064908
v -11.9730159 7.0439605 0.348061864
v -12.0847703 7.15509056 0.461064908
v -12.0866433 -17.1349451 0.271269739
v -12.0828974 -17.1399397 -0.542227316
v -14.4796857 -17.0825017 -0.542227316
v -14.4809343 -17.0818773 0.270645413
v -15.4355291 -16.9769905 -0.542227316
v -14.4790614 -17.0512854 0.386770089
v -12.0654162 -17.1037288 0.386770089
v -15.4355291 -16.9769905 0.270645413
v -16.3420508 -16.6679491 -0.542227316
v -14.4734424 -16.966377 0.471054128
v -12.0067296 -17.0194447 0.471678454
v -15.4105561 -16.8633632 0.471054128
v -15.4286615 -16.9463986 0.386770089
v -16.292729 -16.5624379 0.471054128
v -16.3289399 -16.6398544 0.386770089
v -17.0837503 -16.0779608 0.471054128
v -16.3420508 -16.6679491 0.270645413
v -17.1549235 -16.1697367 -0.542227316
v -17.1361937 -16.145388 0.386770089
v -17.7442875 -15.4342805 0.471054128
v -17.1549235 -16.1697367 0.270645413
v -17.8341904 -15.507951 -0.542227316
v -17.8098417 -15.4879725 0.386770089
v -18.2406268 -14.6638619 0.471054128
v -17.8341904 -15.507951 0.270645413
v -18.3448893 -14.715681 -0.542227316
v -18.3174189 -14.7013215 0.386770089
v -18.5490439 -13.8054134 0.471054128
v -18.3448893 -14.715681 0.270645413
v -18.662047 -13.8316351 -0.542227316
v -18.6320793 -13.8247675 0.386770089
v -18.6539307 -12.8951458 0.471054128
v -18.6626713 -13.8316351 0.270645413
v -18.7694311 -12.9020133 -0.542227316
v -18.7388391 -12.9001404 0.386770089
v -18.7700554 -12.9020133 0.270645413
v -18.7950285 9.49693819 -0.542227316
v -18.7638122 9.49506521 0.386770089
v -18.6789038 9.4900706 0.471054128
v -18.7950285 9.49693819 0.270645413
v -18.6876444 10.4265599 0.270645413
v -18.68702 10.4265599 -0.542227316
v -18.6570524 10.4196923 0.386770089
v -18.574017 10.4003382 0.471054128
v -18.3704866 11.3106058 0.270645413
v -18.3698623 11.3099815 -0.542227316
v -18.342392 11.2962463 0.386770089
v -18.2655998 11.2587868 0.471054128
v -17.8591635 12.1028758 0.270645413
v -17.8591635 12.1028758 -0.542227316
v -17.8348148 12.0828974 0.386770089
v -17.7692605 12.0292053 0.471054128
v -17.1805209 12.7646616 0.270645413
v -17.1798966 12.7646616 -0.542227316
v -17.1611668 12.7403129 0.386770089
v -17.1087234 12.6728856 0.471054128
v -16.3670238 13.2628739 0.270645413
v -16.3670238 13.2628739 -0.542227316
v -16.353913 13.2347792 0.386770089
v -16.3177021 13.1573628 0.471054128
v -15.4605022 13.5719154 0.270645413
v -15.4605022 13.5719154 -0.542227316
v -15.4536346 13.5413234 0.386770089
v -15.4355291 13.458288 0.471054128
v -14.5059074 13.6768022 0.270645413
v -14.5046587 13.6774265 -0.542227316
v -14.5040344 13.6455859 0.386770089
v -14.4984155 13.5613018 0.471054128
v -12.1116164 13.7298699 0.271269739
v -12.1084947 13.7348645 -0.542227316
v -12.0903893 13.6980293 0.386770089
v -12.0317026 13.6143696 0.471678454
v -11.9324347 7.00400362 0.194477615
v -6.65438094 7.02772801 -0.263777825
v -11.9318104 7.00962255 -0.263777825
v -6.65438094 7.02772801 0.195101941
v -6.07313323 7.17943928 -0.263777825
v -6.65999987 7.06830922 0.34868619
v -11.9730159 7.0439605 0.348061864
v -6.07313323 7.17943928 0.195101941
v -5.57991553 7.51595111 -0.263777825
v -6.6749837 7.18131226 0.461064908
v -12.0847703 7.15509056 0.461064908
v -6.13743883 7.32116133 0.461064908
v -6.09061437 7.21752318 0.34868619
v -5.68917261 7.6277055 0.461064908
v -5.60925886 7.54591877 0.34868619
v -5.37576085 8.06410953 0.461064908
v -5.57991553 7.51595111 0.195101941
v -5.23466313 7.9966823 -0.263777825
v -5.27274703 8.01478776 0.34868619
v -5.23216583 8.58417326 0.461064908
v -5.11978711 8.56918943 0.34868619
v -5.23466313 7.9966823 0.195101941
v -5.07858158 8.56419482 -0.263777825
v -5.07858158 8.5635705 0.195101941
v -12.463112 7.05332539 0.502270438
v -12.2433492 7.08953631 0.461064908
v -12.3095278 6.93158178 0.461064908
v -12.2845547 -10.3366569 0.461064908
v -12.3800766 7.19567177 0.502270438
v -18.5634034 9.48320301 0.502270438
v -12.0847703 7.15509056 0.461064908
v -12.438139 -10.3304137 0.502270438
v -12.2183761 -10.4946115 0.461064908
v -14.3017527 9.45073805 0.542227316
v -12.1827896 7.30805048 0.502270438
v -18.4603896 10.3734922 0.502270438
v -12.3551036 -10.6007469 0.502270438
v -12.0597973 -10.5607901 0.461064908
v -14.2761553 -12.8558132 0.542227316
v -18.5384304 -12.8882782 0.502270438
v -12.1578165 -10.7131256 0.502270438
v -6.69496214 7.33489651 0.502270438
v -6.6749837 7.18131226 0.461064908
v -6.20236876 7.46350771 0.502270438
v -6.13743883 7.32116133 0.461064908
v -11.9630267 13.4994935 0.502270438
v -5.79780537 7.7394599 0.502270438
v -5.68917261 7.6277055 0.461064908
v -8.14152598 10.0194992 0.502270438
v -5.51623425 8.13091243 0.502270438
v -5.37576085 8.06410953 0.461064908
v -5.3863744 8.60540035 0.502270438
v -5.23216583 8.58417326 0.461064908
v -6.66998909 -10.7399717 0.502270438
v -6.64938633 -10.5863874 0.461064908
v -14.4909236 13.4451772 0.502270438
v -5.36826894 13.6924103 0.502270438
v -5.21406037 13.5388261 0.461064908
v -6.17739571 -10.8685829 0.502270438
v -6.11246579 -10.7262365 0.461064908
v -5.77283233 -11.1445351 0.502270438
v -5.66419957 -11.0327807 0.461064908
v -8.11655293 -13.4245744 0.502270438
v -5.4912612 -11.5359876 0.502270438
v -5.36077703 -12.0104755 0.502270438
v -5.35078781 -11.4691847 0.461064908
v -5.20719278 -11.9892484 0.461064908
v -11.9380537 -16.9045687 0.502270438
v -5.30333901 13.8516135 0.502270438
v -5.14913044 13.6980293 0.461064908
v -5.14476016 13.9177921 0.502270438
v -4.99055158 13.7642078 0.461064908
v -7.92738209 16.5362162 0.502270438
v -11.6159014 16.2646343 0.502270438
v -7.65517586 20.2259842 0.502270438
v 5.14476016 13.9177921 0.502270438
v 4.99055158 13.7642078 0.461064908
v 5.14913044 13.6980293 0.461064908
v 7.65517586 20.2259842 0.502270438
v 5.30333901 13.8516135 0.502270438
v 5.21406037 13.5388261 0.461064908
v 7.92738209 16.5362162 0.502270438
v 5.36826894 13.6924103 0.502270438
v 8.54546504 20.1254676 0.502270438
v 5.23216583 8.58417326 0.461064908
v 5.3863744 8.60540035 0.502270438
v 5.37576085 8.06410953 0.461064908
v 11.6159014 16.2646343 0.502270438
v 5.51623425 8.13091243 0.502270438
v 5.68917261 7.6277055 0.461064908
v 5.79780537 7.7394599 0.502270438
v 6.13743883 7.32116133 0.461064908
v 8.14152598 10.0194992 0.502270438
v 6.20236876 7.46350771 0.502270438
v 6.6749837 7.18131226 0.461064908
v 6.69496214 7.33489651 0.502270438
v 12.0847703 7.15509056 0.461064908
v 11.9630267 13.4994935 0.502270438
v 11.7563747 13.6337237 0.502270438
v 12.1827896 7.30805048 0.502270438
v 11.8356642 13.5375774 0.502270438
v 12.3800766 7.19567177 0.502270438
v 12.2433492 7.08953631 0.461064908
v 14.3017527 9.45073805 0.542227316
v 18.5634034 9.48320301 0.502270438
v 14.4909236 13.4451772 0.502270438
v 12.463112 7.05332539 0.502270438
v 12.3095278 6.93158178 0.461064908
v 12.2845547 -10.3366569 0.461064908
v 12.438139 -10.3304137 0.502270438
v 12.2183761 -10.4946115 0.461064908
v 12.0317026 13.6143696 0.471678454
v 11.911832 13.6537021 0.471678454
v 11.8344155 13.75297 0.471678454
v 11.732026 16.2708776 0.471054128
v 14.4984155 13.5613018 0.471054128
v 15.4099317 13.3446606 0.502270438
v 15.4355291 13.458288 0.471054128
v 11.5153848 17.1555478 0.502270438
v 11.6290122 17.1817695 0.471054128
v 16.267756 13.0518516 0.502270438
v 16.3177021 13.1573628 0.471054128
v 11.2238245 17.990272 0.502270438
v 11.3287113 18.0408424 0.471054128
v 17.0369259 12.5804854 0.502270438
v 17.1087234 12.6728856 0.471054128
v 10.7530825 18.7382148 0.502270438
v 10.8442342 18.811261 0.471054128
v 17.6787332 11.9555348 0.502270438
v 17.7692605 12.0292053 0.471054128
v 10.128132 19.3631653 0.502270438
v 10.2011782 19.454317 0.471054128
v 18.1613374 11.2069677 0.502270438
v 18.2655998 11.2587868 0.471054128
v 9.38018918 19.8339073 0.502270438
v 9.43075961 19.9387941 0.471054128
v 8.57168674 20.239095 0.471054128
v 7.66141912 20.3414845 0.471054128
v -7.66141912 20.3414845 0.471054128
v -8.57168674 20.239095 0.471054128
v 18.4603896 10.3734922 0.502270438
v 18.574017 10.4003382 0.471054128
v 18.6789038 9.4900706 0.471054128
v -8.54546504 20.1254676 0.502270438
v -9.43075961 19.9387941 0.471054128
v 18.5384304 -12.8882782 0.502270438
v 18.6539307 -12.8951458 0.471054128
v 18.5490439 -13.8054134 0.471054128
v -9.38018918 19.8339073 0.502270438
v -10.2011782 19.454317 0.471054128
v -10.128132 19.3631653 0.502270438
v -10.8442342 18.811261 0.471054128
v -10.7530825 18.7382148 0.502270438
v -11.3287113 18.0408424 0.471054128
v -11.2238245 17.990272 0.502270438
v -11.6290122 17.1817695 0.471054128
v -11.5153848 17.1555478 0.502270438
v -11.732026 16.2708776 0.471054128
v -11.7563747 13.6337237 0.502270438
v -11.8344155 13.75297 0.471678454
v -11.911832 13.6537021 0.471678454
v -11.8356642 13.5375774 0.502270438
v -12.0317026 13.6143696 0.471678454
v -14.4984155 13.5613018 0.471054128
v -15.4099317 13.3446606 0.502270438
v -15.4355291 13.458288 0.471054128
v -16.267756 13.0518516 0.502270438
v -16.3177021 13.1573628 0.471054128
v -17.0369259 12.5804854 0.502270438
v -17.1087234 12.6728856 0.471054128
v -17.6787332 11.9555348 0.502270438
v -17.7692605 12.0292053 0.471054128
v -18.1613374 11.2069677 0.502270438
v -18.2655998 11.2587868 0.471054128
v -18.574017 10.4003382 0.471054128
v -18.6789038 9.4900706 0.471054128
v -18.6539307 -12.8951458 0.471054128
v -18.5490439 -13.8054134 0.471054128
v -18.4354166 -13.7785674 0.502270438
v -18.2406268 -14.6638619 0.471054128
v -18.1363643 -14.6120428 0.502270438
v -17.7442875 -15.4342805 0.471054128
v -17.6537602 -15.36061 0.502270438
v -17.0837503 -16.0779608 0.471054128
v -17.0119528 -15.9861848 0.502270438
v -16.292729 -16.5624379 0.471054128
v -16.2427829 -16.4569268 0.502270438
v -15.4105561 -16.8633632 0.471054128
v -15.3849587 -16.7497358 0.502270438
v -14.4734424 -16.966377 0.471054128
v -14.4659505 -16.8508766 0.502270438
v -12.0067296 -17.0194447 0.471678454
v -11.8106911 -16.9426526 0.502270438
v -11.8868589 -17.0587773 0.471678454
v -11.7314017 -17.0387988 0.502270438
v -11.8094425 -17.1586695 0.471678454
v -11.469809 -18.0370964 0.471054128
v -11.3661709 -17.9840287 0.502270438
v -10.9728454 -18.8081393 0.471054128
v -5.35578242 -13.9121732 0.502270438
v -7.41043998 -16.8240306 0.502270438
v -5.20282249 -13.7610862 0.461064908
v -5.13664392 -13.9190408 0.461064908
v -10.8823181 -18.7344688 0.502270438
v -10.3123082 -19.452444 0.471054128
v -5.29022816 -14.072625 0.502270438
v -4.97744073 -13.984595 0.461064908
v -10.2405107 -19.3600437 0.502270438
v -9.52128691 -19.9369211 0.471054128
v -5.13352228 -14.1381793 0.502270438
v 4.97744073 -13.984595 0.461064908
v -9.47134081 -19.83141 0.502270438
v -8.63911397 -20.2378463 0.471054128
v -8.61351659 -20.1235947 0.502270438
v -7.70324898 -20.3402358 0.471054128
v -7.69700571 -20.2247355 0.502270438
v 5.13352228 -14.1381793 0.502270438
v 7.69700571 -20.2247355 0.502270438
v 7.70324898 -20.3402358 0.471054128
v 8.61351659 -20.1235947 0.502270438
v 7.41043998 -16.8240306 0.502270438
v 8.63911397 -20.2378463 0.471054128
v 5.29022816 -14.072625 0.502270438
v 5.13664392 -13.9190408 0.461064908
v 9.47134081 -19.83141 0.502270438
v 9.52128691 -19.9369211 0.471054128
v 5.35578242 -13.9121732 0.502270438
v 5.20282249 -13.7610862 0.461064908
v 5.20719278 -11.9892484 0.461064908
v 5.36077703 -12.0104755 0.502270438
v 5.35078781 -11.4691847 0.461064908
v 10.2405107 -19.3600437 0.502270438
v 10.3123082 -19.452444 0.471054128
v 10.8823181 -18.7344688 0.502270438
v 10.9728454 -18.8081393 0.471054128
v 11.3661709 -17.9840287 0.502270438
v 11.469809 -18.0370964 0.471054128
v 11.7314017 -17.0387988 0.502270438
v 11.8094425 -17.1586695 0.471678454
v 11.8868589 -17.0587773 0.471678454
v 11.8106911 -16.9426526 0.502270438
v 12.0067296 -17.0194447 0.471678454
v 8.11655293 -13.4245744 0.502270438
v 11.9380537 -16.9045687 0.502270438
v 5.4912612 -11.5359876 0.502270438
v 5.66419957 -11.0327807 0.461064908
v 5.77283233 -11.1445351 0.502270438
v 6.11246579 -10.7262365 0.461064908
v 6.17739571 -10.8685829 0.502270438
v 6.64938633 -10.5863874 0.461064908
v 6.66998909 -10.7399717 0.502270438
v 12.0597973 -10.5607901 0.461064908
v 14.4659505 -16.8508766 0.502270438
v 14.4734424 -16.966377 0.471054128
v 12.1578165 -10.7131256 0.502270438
v 15.3849587 -16.7497358 0.502270438
v 15.4105561 -16.8633632 0.471054128
v 14.2761553 -12.8558132 0.542227316
v 12.3551036 -10.6007469 0.502270438
v 16.2427829 -16.4569268 0.502270438
v 16.292729 -16.5624379 0.471054128
v 17.0119528 -15.9861848 0.502270438
v 17.0837503 -16.0779608 0.471054128
v 17.6537602 -15.36061 0.502270438
v 17.7442875 -15.4342805 0.471054128
v 18.1363643 -14.6120428 0.502270438
v 18.2406268 -14.6638619 0.471054128
v 18.4354166 -13.7785674 0.502270438
vt 0.46847892 0.62365977
vt 0.467509039 0.539280182
vt 0.460719877 0.622689889
vt 0.475268082 0.540250063
vt 0.4694488 0.529581379
vt 0.477207842 0.540250063
vt 0.47041868 0.62462965
vt 0.476237962 0.53055126
vt 0.471388561 0.519882576
vt 0.480117483 0.540250063
vt 0.473328321 0.626569411
vt 0.481087364 0.53152114
vt 0.479147603 0.53152114
vt 0.483027124 0.523762097
vt 0.481087364 0.522792217
vt 0.485936765 0.515033175
vt 0.478177723 0.521822337
vt 0.475268082 0.510183773
vt 0.483997005 0.514063294
vt 0.489816287 0.507274132
vt 0.482057244 0.513093414
vt 0.479147603 0.50145485
vt 0.487876526 0.506304252
vt 0.503394611 0.482057244
vt 0.485936765 0.505334372
vt 0.490786167 0.479147603
vt 0.50048497 0.482057244
vt 0.497575329 0.482057244
vt 0.491756047 0.477207842
vt 0.498545209 0.479147603
vt 0.491756047 0.475268082
vt 0.50145485 0.479147603
vt 0.504364491 0.480117483
vt 0.49951509 0.476237962
vt 0.50145485 0.476237962
vt 0.504364491 0.478177723
vt 0.504364491 0.321057112
vt 0.50145485 0.322026992
vt 0.504364491 0.318147471
vt 0.49951509 0.322996873
vt 0.491756047 0.323966753
vt 0.50145485 0.319117352
vt 0.503394611 0.316207711
vt 0.498545209 0.320087232
vt 0.491756047 0.322026992
vt 0.50048497 0.316207711
vt 0.497575329 0.317177591
vt 0.490786167 0.319117352
vt 0.485936765 0.293900463
vt 0.479147603 0.296810104
vt 0.487876526 0.292930583
vt 0.489816287 0.291960703
vt 0.482057244 0.285171541
vt 0.475268082 0.288081182
vt 0.483997005 0.28420166
vt 0.485936765 0.28323178
vt 0.479147603 0.276442618
vt 0.471388561 0.279352259
vt 0.481087364 0.276442618
vt 0.483997005 0.275472737
vt 0.476237962 0.267713695
vt 0.4694488 0.269653456
vt 0.479147603 0.267713695
vt 0.481087364 0.266743815
vt 0.475268082 0.258984772
vt 0.467509039 0.259954652
vt 0.477207842 0.258014892
vt 0.480117483 0.258014892
vt 0.46847892 0.175575065
vt 0.460719877 0.175575065
vt 0.47041868 0.174605185
vt 0.473328321 0.172665424
vt 0.993184169 0.0281532578
vt 0.992214288 0.0262134972
vt 0.989304647 0.0271833775
vt 0.991244408 0.0291231381
vt 0.994154049 0.0310628987
vt 0.987364887 0.0271833775
vt 0.991244408 0.0320327791
vt 0.994154049 0.304569147
vt 0.988334767 0.0300930184
vt 0.980575725 0.0281532578
vt 0.980575725 0.0310628987
vt 0.988334767 0.0330026594
vt 0.981545605 0.0330026594
vt 0.981545605 0.301659506
vt 0.991244408 0.302629386
vt 0.988334767 0.301659506
vt 0.980575725 0.303599267
vt 0.988334767 0.304569147
vt 0.980575725 0.306508907
vt 0.987364887 0.307478788
vt 0.991244408 0.305539027
vt 0.993184169 0.306508907
vt 0.989304647 0.307478788
vt 0.992214288 0.308448668
vt 0.972816682 0.634328453
vt 0.946629914 0.604262163
vt 0.961178118 0.639177855
vt 0.959238358 0.599412762
vt 0.941780512 0.589713959
vt 0.961178118 0.598442882
vt 0.974756443 0.634328453
vt 0.953419076 0.585834437
vt 0.936931111 0.575165754
vt 0.962147999 0.598442882
vt 0.977666084 0.634328453
vt 0.957298597 0.583894677
vt 0.955358836 0.584864557
vt 0.952449196 0.570316352
vt 0.951479315 0.571286233
vt 0.949539555 0.555768148
vt 0.949539555 0.571286233
vt 0.933051589 0.559647669
vt 0.947599794 0.556738028
vt 0.946629914 0.542189823
vt 0.945660033 0.556738028
vt 0.930141948 0.545099464
vt 0.944690153 0.542189823
vt 0.944690153 0.527641619
vt 0.942750392 0.542189823
vt 0.927232307 0.529581379
vt 0.942750392 0.527641619
vt 0.942750392 0.513093414
vt 0.940810632 0.527641619
vt 0.926262427 0.514063294
vt 0.940810632 0.513093414
vt 0.942750392 0.498545209
vt 0.938870871 0.514063294
vt 0.926262427 0.49951509
vt 0.940810632 0.498545209
vt 0.938870871 0.498545209
vt 0.926262427 0.144538895
vt 0.940810632 0.144538895
vt 0.942750392 0.144538895
vt 0.938870871 0.144538895
vt 0.938870871 0.129990691
vt 0.926262427 0.12902081
vt 0.940810632 0.129990691
vt 0.942750392 0.129990691
vt 0.940810632 0.115442486
vt 0.927232307 0.113502725
vt 0.942750392 0.115442486
vt 0.944690153 0.115442486
vt 0.942750392 0.100894281
vt 0.930141948 0.0989545206
vt 0.944690153 0.100894281
vt 0.946629914 0.101864162
vt 0.945660033 0.0863460766
vt 0.933051589 0.0834364356
vt 0.947599794 0.0873159569
vt 0.949539555 0.0873159569
vt 0.949539555 0.0717978719
vt 0.936931111 0.0688882309
vt 0.951479315 0.0727677522
vt 0.952449196 0.0727677522
vt 0.953419076 0.0582195475
vt 0.941780512 0.0533701459
vt 0.955358836 0.0582195475
vt 0.957298597 0.0591894278
vt 0.959238358 0.0436713428
vt 0.946629914 0.0388219412
vt 0.961178118 0.0446412231
vt 0.962147999 0.0456111034
vt 0.972816682 0.00875565156
vt 0.961178118 0.00390625
vt 0.974756443 0.00972553187
vt 0.977666084 0.00875565156
vt 0.545099464 0.175575065
vt 0.547039225 0.177514826
vt 0.547039225 0.175575065
vt 0.545099464 0.177514826
vt 0.543159704 0.175575065
vt 0.547039225 0.179454587
vt 0.543159704 0.177514826
vt 0.53152114 0.172665424
vt 0.53055126 0.174605185
vt 0.545099464 0.179454587
vt 0.543159704 0.179454587
vt 0.53055126 0.176544946
vt 0.539280182 0.193032911
vt 0.526671738 0.18915339
vt 0.541219943 0.193032911
vt 0.542189823 0.194002791
vt 0.535400661 0.206611235
vt 0.522792217 0.203701594
vt 0.537340422 0.207581116
vt 0.539280182 0.207581116
vt 0.53249102 0.22115944
vt 0.519882576 0.219219679
vt 0.534430781 0.22212932
vt 0.536370542 0.22212932
vt 0.53055126 0.235707645
vt 0.517942816 0.234737764
vt 0.53249102 0.236677525
vt 0.534430781 0.236677525
vt 0.528611499 0.25122573
vt 0.516003055 0.250255849
vt 0.53055126 0.25122573
vt 0.53249102 0.25122573
vt 0.528611499 0.265773934
vt 0.516003055 0.265773934
vt 0.516003055 0.510183773
vt 0.53055126 0.265773934
vt 0.53249102 0.265773934
vt 0.528611499 0.510183773
vt 0.516003055 0.525701858
vt 0.53055126 0.510183773
vt 0.53249102 0.510183773
vt 0.53249102 0.524731978
vt 0.53055126 0.524731978
vt 0.534430781 0.539280182
vt 0.528611499 0.524731978
vt 0.517942816 0.541219943
vt 0.53249102 0.539280182
vt 0.536370542 0.553828387
vt 0.53055126 0.539280182
vt 0.519882576 0.556738028
vt 0.534430781 0.553828387
vt 0.539280182 0.568376592
vt 0.53249102 0.554798267
vt 0.522792217 0.571286233
vt 0.537340422 0.568376592
vt 0.542189823 0.581954916
vt 0.535400661 0.568376592
vt 0.526671738 0.585834437
vt 0.541219943 0.582924797
vt 0.547039225 0.596503121
vt 0.539280182 0.582924797
vt 0.53055126 0.599412762
vt 0.545099464 0.596503121
vt 0.543159704 0.596503121
vt 0.53055126 0.601352522
vt 0.543159704 0.598442882
vt 0.53152114 0.603292283
vt 0.543159704 0.600382642
vt 0.545099464 0.598442882
vt 0.547039225 0.598442882
vt 0.545099464 0.600382642
vt 0.547039225 0.600382642
vt 0.00875565156 0.125141289
vt 0.0165146941 0.126111169
vt 0.0213640956 0.0427014625
vt 0.0145749334 0.0417315822
vt 0.0213640956 0.0320327791
vt 0.0116652925 0.0417315822
vt 0.00681589094 0.126111169
vt 0.0136050531 0.0330026594
vt 0.0203942153 0.0223339759
vt 0.00875565156 0.0417315822
vt 0.00390625 0.12708105
vt 0.00875565156 0.0330026594
vt 0.0116652925 0.0330026594
vt 0.00778577125 0.0242737366
vt 0.0106954122 0.0242737366
vt 0.00681589094 0.0155448137
vt 0.0126351728 0.0233038562
vt 0.0184544547 0.0126351728
vt 0.00875565156 0.0155448137
vt 0.00390625 0.00778577125
vt 0.00584601062 0.00681589094
vt 0.0116652925 0.0145749334
vt 0.0155448137 0.00390625
vt 0.00875565156 0.00584601062
vt 0.404466819 0.176544946
vt 0.402527058 0.176544946
vt 0.402527058 0.178484706
vt 0.404466819 0.178484706
vt 0.40640658 0.175575065
vt 0.402527058 0.179454587
vt 0.40640658 0.178484706
vt 0.418045143 0.172665424
vt 0.419015024 0.174605185
vt 0.404466819 0.180424467
vt 0.40640658 0.180424467
vt 0.419015024 0.176544946
vt 0.431623468 0.211460637
vt 0.419984904 0.216310038
vt 0.43744275 0.226008842
vt 0.418045143 0.217279919
vt 0.416105383 0.217279919
vt 0.420954784 0.230858243
vt 0.422894545 0.230858243
vt 0.425804186 0.244436567
vt 0.424834306 0.229888363
vt 0.441322271 0.240557046
vt 0.427743947 0.244436567
vt 0.428713827 0.258984772
vt 0.429683707 0.243466687
vt 0.445201792 0.255105251
vt 0.430653587 0.258014892
vt 0.431623468 0.272563097
vt 0.432593348 0.258014892
vt 0.448111433 0.269653456
vt 0.433563228 0.272563097
vt 0.433563228 0.287111301
vt 0.435502989 0.272563097
vt 0.451021074 0.285171541
vt 0.435502989 0.287111301
vt 0.435502989 0.301659506
vt 0.43744275 0.286141421
vt 0.451990954 0.300689626
vt 0.43744275 0.300689626
vt 0.435502989 0.31523783
vt 0.43938251 0.300689626
vt 0.451990954 0.31523783
vt 0.43744275 0.31523783
vt 0.43938251 0.31523783
vt 0.451990954 0.558677789
vt 0.43744275 0.558677789
vt 0.435502989 0.558677789
vt 0.43938251 0.558677789
vt 0.43938251 0.573225993
vt 0.451990954 0.574195874
vt 0.43744275 0.573225993
vt 0.435502989 0.572256113
vt 0.43744275 0.587774198
vt 0.450051194 0.588744078
vt 0.435502989 0.586804318
vt 0.433563228 0.586804318
vt 0.435502989 0.602322403
vt 0.448111433 0.604262163
vt 0.433563228 0.601352522
vt 0.431623468 0.601352522
vt 0.432593348 0.615900727
vt 0.445201792 0.618810368
vt 0.430653587 0.615900727
vt 0.428713827 0.614930847
vt 0.429683707 0.630448932
vt 0.441322271 0.633358573
vt 0.427743947 0.629479052
vt 0.425804186 0.629479052
vt 0.424834306 0.644027256
vt 0.43744275 0.647906777
vt 0.422894545 0.643057376
vt 0.420954784 0.643057376
vt 0.419984904 0.657605581
vt 0.431623468 0.662454982
vt 0.418045143 0.657605581
vt 0.416105383 0.6566357
vt 0.402527058 0.694461032
vt 0.40640658 0.693491152
vt 0.419015024 0.697370673
vt 0.419015024 0.699310434
vt 0.404466819 0.693491152
vt 0.40640658 0.696400793
vt 0.418045143 0.701250195
vt 0.40640658 0.698340554
vt 0.404466819 0.695430913
vt 0.402527058 0.696400793
vt 0.404466819 0.697370673
vt 0.402527058 0.697370673
vt 0.180424467 0.637238094
vt 0.182364227 0.638207974
vt 0.22115944 0.569346472
vt 0.218249799 0.569346472
vt 0.178484706 0.636268214
vt 0.22212932 0.567406712
vt 0.215340158 0.568376592
vt 0.171695544 0.632388692
vt 0.208550996 0.565466951
vt 0.219219679 0.566436831
vt 0.22212932 0.565466951
vt 0.216310038 0.565466951
vt 0.209520876 0.56352719
vt 0.219219679 0.56352719
vt 0.22212932 0.40640658
vt 0.217279919 0.56255731
vt 0.209520876 0.56158743
vt 0.219219679 0.40834634
vt 0.217279919 0.409316221
vt 0.209520876 0.410286101
vt 0.209520876 0.40834634
vt 0.216310038 0.40640658
vt 0.208550996 0.40640658
vt 0.219219679 0.405436699
vt 0.22212932 0.404466819
vt 0.215340158 0.403496939
vt 0.171695544 0.339484838
vt 0.178484706 0.336575197
vt 0.218249799 0.402527058
vt 0.22115944 0.402527058
vt 0.180424467 0.334635437
vt 0.182364227 0.333665556
vt 0.399617417 0.494665688
vt 0.395737896 0.495635568
vt 0.398647537 0.496605449
vt 0.396707777 0.493695808
vt 0.399617417 0.491756047
vt 0.393798136 0.495635568
vt 0.397677657 0.490786167
vt 0.399617417 0.218249799
vt 0.394768016 0.492725927
vt 0.387008973 0.494665688
vt 0.387008973 0.491756047
vt 0.394768016 0.489816287
vt 0.387978854 0.489816287
vt 0.387978854 0.22115944
vt 0.397677657 0.22018956
vt 0.394768016 0.22115944
vt 0.387008973 0.219219679
vt 0.394768016 0.218249799
vt 0.387008973 0.216310038
vt 0.393798136 0.215340158
vt 0.396707777 0.217279919
vt 0.399617417 0.216310038
vt 0.395737896 0.215340158
vt 0.398647537 0.214370278
vt 0.387008973 0.177514826
vt 0.37537041 0.172665424
vt 0.360822205 0.207581116
vt 0.373430649 0.212430517
vt 0.355972803 0.22212932
vt 0.374400529 0.213400397
vt 0.388948734 0.178484706
vt 0.367611367 0.226978722
vt 0.351123402 0.237647405
vt 0.37634029 0.214370278
vt 0.390888495 0.177514826
vt 0.371490888 0.227948602
vt 0.369551128 0.226978722
vt 0.366641487 0.241526927
vt 0.364701726 0.241526927
vt 0.362761966 0.256075131
vt 0.363731846 0.240557046
vt 0.347243881 0.25219561
vt 0.361792085 0.256075131
vt 0.360822205 0.270623336
vt 0.359852325 0.255105251
vt 0.34433424 0.267713695
vt 0.358882444 0.269653456
vt 0.357912564 0.28420166
vt 0.356942684 0.269653456
vt 0.341424599 0.2822619
vt 0.355972803 0.28420166
vt 0.356942684 0.298749865
vt 0.355002923 0.28420166
vt 0.340454718 0.297779985
vt 0.355002923 0.298749865
vt 0.356942684 0.31329807
vt 0.353063162 0.298749865
vt 0.339484838 0.31329807
vt 0.355002923 0.31329807
vt 0.353063162 0.31329807
vt 0.339484838 0.668274264
vt 0.355002923 0.667304384
vt 0.356942684 0.667304384
vt 0.353063162 0.668274264
vt 0.353063162 0.682822469
vt 0.340454718 0.682822469
vt 0.355002923 0.681852588
vt 0.356942684 0.681852588
vt 0.354033043 0.697370673
vt 0.341424599 0.698340554
vt 0.355972803 0.696400793
vt 0.357912564 0.696400793
vt 0.356942684 0.710948998
vt 0.34433424 0.713858639
vt 0.358882444 0.710948998
vt 0.360822205 0.710948998
vt 0.359852325 0.725497202
vt 0.347243881 0.728406843
vt 0.361792085 0.725497202
vt 0.362761966 0.724527322
vt 0.362761966 0.740045407
vt 0.351123402 0.743924928
vt 0.364701726 0.740045407
vt 0.366641487 0.739075527
vt 0.367611367 0.754593612
vt 0.355972803 0.758473133
vt 0.369551128 0.753623731
vt 0.371490888 0.752653851
vt 0.373430649 0.768171936
vt 0.360822205 0.773021338
vt 0.374400529 0.768171936
vt 0.37634029 0.767202056
vt 0.387008973 0.803087627
vt 0.37537041 0.807937029
vt 0.388948734 0.803087627
vt 0.390888495 0.803087627
vt 0.0436713428 0.125141289
vt 0.0310628987 0.0427014625
vt 0.0359123003 0.126111169
vt 0.0388219412 0.0417315822
vt 0.0310628987 0.0320327791
vt 0.0407617019 0.0417315822
vt 0.0465809837 0.126111169
vt 0.0388219412 0.0330026594
vt 0.0320327791 0.0223339759
vt 0.0436713428 0.0417315822
vt 0.0485207444 0.12708105
vt 0.0436713428 0.0330026594
vt 0.0407617019 0.0330026594
vt 0.0446412231 0.0242737366
vt 0.0417315822 0.0242737366
vt 0.0465809837 0.0155448137
vt 0.0397918216 0.0233038562
vt 0.0339725397 0.0126351728
vt 0.0436713428 0.0155448137
vt 0.0485207444 0.00778577125
vt 0.0465809837 0.00681589094
vt 0.0417315822 0.0145749334
vt 0.0368821806 0.00390625
vt 0.0436713428 0.00584601062
vt 0.763322535 0.327846274
vt 0.757503253 0.326876394
vt 0.759443013 0.330755915
vt 0.759443013 0.750714091
vt 0.761382774 0.323966753
vt 0.911714222 0.267713695
vt 0.753623731 0.324936633
vt 0.763322535 0.750714091
vt 0.757503253 0.754593612
vt 0.807937029 0.268683575
vt 0.756533372 0.321057112
vt 0.909774462 0.246376328
vt 0.761382774 0.757503253
vt 0.753623731 0.756533372
vt 0.807937029 0.812786431
vt 0.911714222 0.812786431
vt 0.756533372 0.760412894
vt 0.622689889 0.320087232
vt 0.622689889 0.323966753
vt 0.611051326 0.317177591
vt 0.609111565 0.321057112
vt 0.751683971 0.169755783
vt 0.601352522 0.310388429
vt 0.598442882 0.31329807
vt 0.657605581 0.255105251
vt 0.59456336 0.301659506
vt 0.590683839 0.302629386
vt 0.590683839 0.290020942
vt 0.586804318 0.290020942
vt 0.622689889 0.761382774
vt 0.622689889 0.757503253
vt 0.812786431 0.171695544
vt 0.589713959 0.165876262
vt 0.585834437 0.169755783
vt 0.611051326 0.764292415
vt 0.609111565 0.761382774
vt 0.601352522 0.771081577
vt 0.598442882 0.768171936
vt 0.658575461 0.826364755
vt 0.59456336 0.78078038
vt 0.590683839 0.792418944
vt 0.590683839 0.77884062
vt 0.586804318 0.791449064
vt 0.751683971 0.911714222
vt 0.588744078 0.161996741
vt 0.584864557 0.165876262
vt 0.584864557 0.161026861
vt 0.580985036 0.164906382
vt 0.651786299 0.09701476
vt 0.741985168 0.102834042
vt 0.644997137 0.00681589094
vt 0.333665556 0.161026861
vt 0.337545077 0.164906382
vt 0.333665556 0.166846142
vt 0.272563097 0.00778577125
vt 0.329786035 0.162966621
vt 0.331725796 0.170725664
vt 0.265773934 0.09701476
vt 0.327846274 0.166846142
vt 0.25122573 0.00972553187
vt 0.331725796 0.290990822
vt 0.327846274 0.290020942
vt 0.327846274 0.303599267
vt 0.175575065 0.103803922
vt 0.324936633 0.301659506
vt 0.320087232 0.31426795
vt 0.318147471 0.311358309
vt 0.309418548 0.321057112
vt 0.260924533 0.256075131
vt 0.307478788 0.318147471
vt 0.296810104 0.324936633
vt 0.295840224 0.321057112
vt 0.164906382 0.325906514
vt 0.166846142 0.170725664
vt 0.171695544 0.167816023
vt 0.161996741 0.322026992
vt 0.169755783 0.169755783
vt 0.15811722 0.324936633
vt 0.161026861 0.327846274
vt 0.110593084 0.270623336
vt 0.00681589094 0.269653456
vt 0.105743683 0.172665424
vt 0.155207579 0.328816155
vt 0.1590871 0.331725796
vt 0.161026861 0.752653851
vt 0.157147339 0.752653851
vt 0.162966621 0.756533372
vt 0.165876262 0.167816023
vt 0.167816023 0.166846142
vt 0.169755783 0.164906382
vt 0.172665424 0.103803922
vt 0.105743683 0.169755783
vt 0.0834364356 0.175575065
vt 0.0824665553 0.172665424
vt 0.178484706 0.0824665553
vt 0.175575065 0.081496675
vt 0.0620990687 0.182364227
vt 0.0611291884 0.180424467
vt 0.185273868 0.0620990687
vt 0.183334108 0.0601593081
vt 0.0436713428 0.194002791
vt 0.0417315822 0.192063031
vt 0.196912432 0.0436713428
vt 0.194972672 0.0417315822
vt 0.0281532578 0.209520876
vt 0.0262134972 0.207581116
vt 0.212430517 0.0281532578
vt 0.210490757 0.0262134972
vt 0.0165146941 0.227948602
vt 0.0136050531 0.226008842
vt 0.230858243 0.0165146941
vt 0.228918482 0.0145749334
vt 0.250255849 0.00681589094
vt 0.272563097 0.00487613031
vt 0.645967017 0.00390625
vt 0.667304384 0.00584601062
vt 0.00972553187 0.248316089
vt 0.00681589094 0.247346208
vt 0.00390625 0.269653456
vt 0.667304384 0.00875565156
vt 0.688641751 0.0136050531
vt 0.00875565156 0.814726191
vt 0.00584601062 0.814726191
vt 0.00875565156 0.837033438
vt 0.68767187 0.0165146941
vt 0.707069477 0.0252436169
vt 0.705129716 0.0271833775
vt 0.723557442 0.0407617019
vt 0.720647801 0.0427014625
vt 0.735196006 0.0591894278
vt 0.732286365 0.0611291884
vt 0.741985168 0.0805267947
vt 0.739075527 0.081496675
vt 0.744894809 0.102834042
vt 0.745864689 0.166846142
vt 0.74780445 0.163936502
vt 0.74974421 0.165876262
vt 0.74780445 0.168785903
vt 0.752653851 0.166846142
vt 0.812786431 0.168785903
vt 0.835093678 0.173635305
vt 0.836063558 0.170725664
vt 0.856431045 0.181394347
vt 0.857400925 0.178484706
vt 0.874858771 0.193032911
vt 0.876798531 0.19012327
vt 0.890376856 0.207581116
vt 0.892316616 0.205641355
vt 0.902015419 0.226008842
vt 0.90492506 0.225038961
vt 0.912684103 0.245406448
vt 0.914623863 0.267713695
vt 0.914623863 0.813756311
vt 0.912684103 0.835093678
vt 0.909774462 0.835093678
vt 0.90492506 0.856431045
vt 0.902015419 0.855461164
vt 0.892316616 0.874858771
vt 0.890376856 0.87291901
vt 0.876798531 0.891346736
vt 0.874858771 0.888437095
vt 0.857400925 0.9029853
vt 0.856431045 0.900075659
vt 0.836063558 0.909774462
vt 0.835093678 0.906864821
vt 0.812786431 0.912684103
vt 0.812786431 0.909774462
vt 0.753623731 0.914623863
vt 0.74877433 0.912684103
vt 0.750714091 0.915593744
vt 0.746834569 0.914623863
vt 0.74877433 0.917533504
vt 0.740045407 0.938870871
vt 0.737135766 0.937900991
vt 0.728406843 0.958268477
vt 0.590683839 0.838973199
vt 0.641117615 0.909774462
vt 0.586804318 0.835093678
vt 0.584864557 0.838973199
vt 0.725497202 0.956328717
vt 0.711918878 0.973786562
vt 0.588744078 0.84285272
vt 0.581954916 0.839943079
vt 0.709979117 0.970876921
vt 0.692521272 0.985425126
vt 0.585834437 0.843822601
vt 0.339484838 0.84091296
vt 0.691551392 0.982515485
vt 0.671183905 0.993184169
vt 0.670214025 0.990274528
vt 0.647906777 0.995123929
vt 0.647906777 0.992214288
vt 0.335605317 0.844792481
vt 0.273532977 0.993184169
vt 0.272563097 0.99609381
vt 0.25122573 0.991244408
vt 0.280322139 0.910744342
vt 0.250255849 0.993184169
vt 0.331725796 0.84285272
vt 0.335605317 0.838973199
vt 0.229888363 0.983485366
vt 0.228918482 0.986395006
vt 0.329786035 0.838973199
vt 0.333665556 0.835093678
vt 0.333665556 0.792418944
vt 0.329786035 0.793388824
vt 0.329786035 0.7798105
vt 0.211460637 0.971846802
vt 0.209520876 0.974756443
vt 0.195942552 0.957298597
vt 0.193032911 0.959238358
vt 0.183334108 0.938870871
vt 0.181394347 0.939840751
vt 0.174605185 0.915593744
vt 0.172665424 0.918503385
vt 0.170725664 0.916563624
vt 0.172665424 0.913653983
vt 0.167816023 0.915593744
vt 0.262864293 0.827334635
vt 0.169755783 0.912684103
vt 0.325906514 0.781750261
vt 0.322026992 0.769141816
vt 0.319117352 0.772051457
vt 0.311358309 0.761382774
vt 0.309418548 0.765262295
vt 0.297779985 0.758473133
vt 0.297779985 0.762352654
vt 0.166846142 0.757503253
vt 0.107683443 0.911714222
vt 0.107683443 0.914623863
vt 0.163936502 0.761382774
vt 0.0853761962 0.908804581
vt 0.0853761962 0.911714222
vt 0.112532845 0.813756311
vt 0.1590871 0.758473133
vt 0.0650087097 0.902015419
vt 0.0630689491 0.90395518
vt 0.0456111034 0.890376856
vt 0.0436713428 0.892316616
vt 0.0300930184 0.874858771
vt 0.0281532578 0.876798531
vt 0.0184544547 0.856431045
vt 0.0155448137 0.858370805
vt 0.0106954122 0.837033438
g luxian3_fixluxian3_fix_mobile_0
f 3/3/3 2/2/2 1/1/1
f 2/2/2 4/4/4 1/1/1
f 2/2/2 5/5/5 4/4/4
f 1/1/1 4/4/4 6/6/6
f 7/7/7 1/1/1 6/6/6
f 5/5/5 8/8/8 4/4/4
f 5/5/5 9/9/9 8/8/8
f 7/7/7 6/6/6 10/10/10
f 11/11/11 7/7/7 10/10/10
f 10/10/10 6/6/6 12/12/12
f 6/6/6 4/4/4 13/13/13
f 6/6/6 13/13/13 12/12/12
f 4/4/4 8/8/8 13/13/13
f 12/12/12 13/13/13 14/14/14
f 13/13/13 15/15/15 14/14/14
f 13/13/13 8/8/8 15/15/15
f 14/14/14 15/15/15 16/16/16
f 9/9/9 17/17/17 8/8/8
f 8/8/8 17/17/17 15/15/15
f 9/9/9 18/18/18 17/17/17
f 15/15/15 19/19/19 16/16/16
f 15/15/15 17/17/17 19/19/19
f 16/16/16 19/19/19 20/20/20
f 18/18/18 21/21/21 17/17/17
f 17/17/17 21/21/21 19/19/19
f 18/18/18 22/22/22 21/21/21
f 19/19/19 23/23/23 20/20/20
f 19/19/19 21/21/21 23/23/23
f 24/24/24 20/20/20 23/23/23
f 22/22/22 25/25/25 21/21/21
f 21/21/21 25/25/25 23/23/23
f 22/22/22 26/26/26 25/25/25
f 27/27/27 24/24/24 23/23/23
f 27/27/27 23/23/23 25/25/25
f 26/26/26 28/28/28 25/25/25
f 28/28/28 27/27/27 25/25/25
f 26/26/26 29/29/29 28/28/28
f 29/29/29 30/30/30 28/28/28
f 28/28/28 30/30/30 27/27/27
f 29/29/29 31/31/31 30/30/30
f 24/24/24 27/27/27 32/32/32
f 30/30/30 32/32/32 27/27/27
f 33/33/33 24/24/24 32/32/32
f 31/31/31 34/34/34 30/30/30
f 30/30/30 34/34/34 32/32/32
f 33/33/33 32/32/32 35/35/35
f 34/34/34 35/35/35 32/32/32
f 36/36/36 33/33/33 35/35/35
f 37/37/37 36/36/36 35/35/35
f 38/38/38 37/37/37 35/35/35
f 38/38/38 35/35/35 34/34/34
f 39/39/39 37/37/37 38/38/38
f 40/40/40 34/34/34 31/31/31
f 40/40/40 38/38/38 34/34/34
f 41/41/41 40/40/40 31/31/31
f 42/42/42 39/39/39 38/38/38
f 38/38/38 40/40/40 42/42/42
f 43/43/43 39/39/39 42/42/42
f 40/40/40 41/41/41 44/44/44
f 40/40/40 44/44/44 42/42/42
f 41/41/41 45/45/45 44/44/44
f 46/46/46 43/43/43 42/42/42
f 42/42/42 44/44/44 46/46/46
f 44/44/44 45/45/45 47/47/47
f 44/44/44 47/47/47 46/46/46
f 45/45/45 48/48/48 47/47/47
f 47/47/47 48/48/48 49/49/49
f 46/46/46 47/47/47 49/49/49
f 48/48/48 50/50/50 49/49/49
f 43/43/43 46/46/46 51/51/51
f 51/51/51 46/46/46 49/49/49
f 52/52/52 43/43/43 51/51/51
f 49/49/49 50/50/50 53/53/53
f 49/49/49 53/53/53 51/51/51
f 50/50/50 54/54/54 53/53/53
f 51/51/51 55/55/55 52/52/52
f 53/53/53 55/55/55 51/51/51
f 55/55/55 56/56/56 52/52/52
f 53/53/53 54/54/54 57/57/57
f 53/53/53 57/57/57 55/55/55
f 54/54/54 58/58/58 57/57/57
f 55/55/55 59/59/59 56/56/56
f 57/57/57 59/59/59 55/55/55
f 59/59/59 60/60/60 56/56/56
f 57/57/57 58/58/58 61/61/61
f 57/57/57 61/61/61 59/59/59
f 58/58/58 62/62/62 61/61/61
f 59/59/59 63/63/63 60/60/60
f 61/61/61 63/63/63 59/59/59
f 63/63/63 64/64/64 60/60/60
f 61/61/61 62/62/62 65/65/65
f 61/61/61 65/65/65 63/63/63
f 62/62/62 66/66/66 65/65/65
f 63/63/63 67/67/67 64/64/64
f 65/65/65 67/67/67 63/63/63
f 67/67/67 68/68/68 64/64/64
f 65/65/65 66/66/66 69/69/69
f 65/65/65 69/69/69 67/67/67
f 66/66/66 70/70/70 69/69/69
f 69/69/69 71/71/71 67/67/67
f 67/67/67 71/71/71 68/68/68
f 71/71/71 72/72/72 68/68/68
f 75/75/75 74/74/74 73/73/73
f 76/76/76 75/75/75 73/73/73
f 76/76/76 73/73/73 77/77/77
f 78/78/78 75/75/75 76/76/76
f 79/79/79 76/76/76 77/77/77
f 77/77/77 80/80/80 79/79/79
f 81/81/81 78/78/78 76/76/76
f 81/81/81 76/76/76 79/79/79
f 82/82/82 78/78/78 81/81/81
f 83/83/83 82/82/82 81/81/81
f 83/83/83 81/81/81 84/84/84
f 84/84/84 81/81/81 79/79/79
f 85/85/85 83/83/83 84/84/84
f 85/85/85 84/84/84 86/86/86
f 80/80/80 87/87/87 79/79/79
f 79/79/79 87/87/87 84/84/84
f 84/84/84 88/88/88 86/86/86
f 87/87/87 88/88/88 84/84/84
f 89/89/89 86/86/86 88/88/88
f 90/90/90 89/89/89 88/88/88
f 90/90/90 88/88/88 87/87/87
f 91/91/91 89/89/89 90/90/90
f 92/92/92 91/91/91 90/90/90
f 93/93/93 87/87/87 80/80/80
f 93/93/93 90/90/90 87/87/87
f 92/92/92 90/90/90 93/93/93
f 94/94/94 93/93/93 80/80/80
f 95/95/95 92/92/92 93/93/93
f 95/95/95 93/93/93 94/94/94
f 96/96/96 95/95/95 94/94/94
f 99/99/99 98/98/98 97/97/97
f 98/98/98 100/100/100 97/97/97
f 98/98/98 101/101/101 100/100/100
f 100/100/100 102/102/102 97/97/97
f 102/102/102 103/103/103 97/97/97
f 101/101/101 104/104/104 100/100/100
f 101/101/101 105/105/105 104/104/104
f 102/102/102 106/106/106 103/103/103
f 106/106/106 107/107/107 103/103/103
f 108/108/108 106/106/106 102/102/102
f 109/109/109 102/102/102 100/100/100
f 109/109/109 108/108/108 102/102/102
f 104/104/104 109/109/109 100/100/100
f 108/108/108 109/109/109 110/110/110
f 109/109/109 111/111/111 110/110/110
f 109/109/109 104/104/104 111/111/111
f 110/110/110 111/111/111 112/112/112
f 105/105/105 113/113/113 104/104/104
f 104/104/104 113/113/113 111/111/111
f 105/105/105 114/114/114 113/113/113
f 111/111/111 115/115/115 112/112/112
f 111/111/111 113/113/113 115/115/115
f 112/112/112 115/115/115 116/116/116
f 114/114/114 117/117/117 113/113/113
f 113/113/113 117/117/117 115/115/115
f 114/114/114 118/118/118 117/117/117
f 115/115/115 119/119/119 116/116/116
f 115/115/115 117/117/117 119/119/119
f 116/116/116 119/119/119 120/120/120
f 118/118/118 121/121/121 117/117/117
f 117/117/117 121/121/121 119/119/119
f 118/118/118 122/122/122 121/121/121
f 119/119/119 123/123/123 120/120/120
f 119/119/119 121/121/121 123/123/123
f 120/120/120 123/123/123 124/124/124
f 122/122/122 125/125/125 121/121/121
f 121/121/121 125/125/125 123/123/123
f 122/122/122 126/126/126 125/125/125
f 123/123/123 127/127/127 124/124/124
f 123/123/123 125/125/125 127/127/127
f 124/124/124 127/127/127 128/128/128
f 126/126/126 129/129/129 125/125/125
f 125/125/125 129/129/129 127/127/127
f 126/126/126 130/130/130 129/129/129
f 127/127/127 131/131/131 128/128/128
f 127/127/127 129/129/129 131/131/131
f 130/130/130 132/132/132 129/129/129
f 129/129/129 132/132/132 131/131/131
f 130/130/130 133/133/133 132/132/132
f 131/131/131 134/134/134 128/128/128
f 134/134/134 135/135/135 128/128/128
f 132/132/132 136/136/136 131/131/131
f 133/133/133 136/136/136 132/132/132
f 136/136/136 134/134/134 131/131/131
f 136/136/136 133/133/133 137/137/137
f 136/136/136 137/137/137 134/134/134
f 133/133/133 138/138/138 137/137/137
f 134/134/134 139/139/139 135/135/135
f 137/137/137 139/139/139 134/134/134
f 139/139/139 140/140/140 135/135/135
f 137/137/137 138/138/138 141/141/141
f 137/137/137 141/141/141 139/139/139
f 138/138/138 142/142/142 141/141/141
f 139/139/139 143/143/143 140/140/140
f 141/141/141 143/143/143 139/139/139
f 143/143/143 144/144/144 140/140/140
f 141/141/141 142/142/142 145/145/145
f 141/141/141 145/145/145 143/143/143
f 142/142/142 146/146/146 145/145/145
f 143/143/143 147/147/147 144/144/144
f 145/145/145 147/147/147 143/143/143
f 147/147/147 148/148/148 144/144/144
f 145/145/145 146/146/146 149/149/149
f 145/145/145 149/149/149 147/147/147
f 146/146/146 150/150/150 149/149/149
f 147/147/147 151/151/151 148/148/148
f 149/149/149 151/151/151 147/147/147
f 151/151/151 152/152/152 148/148/148
f 149/149/149 150/150/150 153/153/153
f 149/149/149 153/153/153 151/151/151
f 150/150/150 154/154/154 153/153/153
f 151/151/151 155/155/155 152/152/152
f 153/153/153 155/155/155 151/151/151
f 155/155/155 156/156/156 152/152/152
f 153/153/153 154/154/154 157/157/157
f 153/153/153 157/157/157 155/155/155
f 154/154/154 158/158/158 157/157/157
f 155/155/155 159/159/159 156/156/156
f 157/157/157 159/159/159 155/155/155
f 159/159/159 160/160/160 156/156/156
f 157/157/157 158/158/158 161/161/161
f 159/159/159 157/157/157 161/161/161
f 158/158/158 162/162/162 161/161/161
f 160/160/160 159/159/159 163/163/163
f 163/163/163 159/159/159 161/161/161
f 164/164/164 160/160/160 163/163/163
f 161/161/161 162/162/162 165/165/165
f 163/163/163 161/161/161 165/165/165
f 162/162/162 166/166/166 165/165/165
f 167/167/167 163/163/163 165/165/165
f 164/164/164 163/163/163 167/167/167
f 168/168/168 164/164/164 167/167/167
f 171/171/171 170/170/170 169/169/169
f 170/170/170 172/172/172 169/169/169
f 173/173/173 169/169/169 172/172/172
f 170/170/170 174/174/174 172/172/172
f 175/175/175 173/173/173 172/172/172
f 176/176/176 173/173/173 175/175/175
f 177/177/177 176/176/176 175/175/175
f 174/174/174 178/178/178 172/172/172
f 175/175/175 172/172/172 178/178/178
f 177/177/177 175/175/175 179/179/179
f 179/179/179 175/175/175 178/178/178
f 180/180/180 177/177/177 179/179/179
f 180/180/180 179/179/179 181/181/181
f 179/179/179 178/178/178 181/181/181
f 182/182/182 180/180/180 181/181/181
f 178/178/178 174/174/174 183/183/183
f 178/178/178 183/183/183 181/181/181
f 174/174/174 184/184/184 183/183/183
f 182/182/182 181/181/181 185/185/185
f 181/181/181 183/183/183 185/185/185
f 186/186/186 182/182/182 185/185/185
f 183/183/183 184/184/184 187/187/187
f 183/183/183 187/187/187 185/185/185
f 184/184/184 188/188/188 187/187/187
f 186/186/186 185/185/185 189/189/189
f 185/185/185 187/187/187 189/189/189
f 190/190/190 186/186/186 189/189/189
f 187/187/187 188/188/188 191/191/191
f 187/187/187 191/191/191 189/189/189
f 188/188/188 192/192/192 191/191/191
f 190/190/190 189/189/189 193/193/193
f 189/189/189 191/191/191 193/193/193
f 194/194/194 190/190/190 193/193/193
f 191/191/191 192/192/192 195/195/195
f 191/191/191 195/195/195 193/193/193
f 192/192/192 196/196/196 195/195/195
f 194/194/194 193/193/193 197/197/197
f 193/193/193 195/195/195 197/197/197
f 198/198/198 194/194/194 197/197/197
f 195/195/195 196/196/196 199/199/199
f 195/195/195 199/199/199 197/197/197
f 196/196/196 200/200/200 199/199/199
f 198/198/198 197/197/197 201/201/201
f 197/197/197 199/199/199 201/201/201
f 202/202/202 198/198/198 201/201/201
f 203/203/203 202/202/202 201/201/201
f 199/199/199 200/200/200 204/204/204
f 199/199/199 204/204/204 201/201/201
f 200/200/200 205/205/205 204/204/204
f 206/206/206 203/203/203 201/201/201
f 206/206/206 201/201/201 204/204/204
f 207/207/207 203/203/203 206/206/206
f 208/208/208 204/204/204 205/205/205
f 208/208/208 206/206/206 204/204/204
f 209/209/209 208/208/208 205/205/205
f 209/209/209 210/210/210 208/208/208
f 210/210/210 211/211/211 208/208/208
f 208/208/208 211/211/211 206/206/206
f 210/210/210 212/212/212 211/211/211
f 213/213/213 207/207/207 206/206/206
f 211/211/211 213/213/213 206/206/206
f 214/214/214 207/207/207 213/213/213
f 212/212/212 215/215/215 211/211/211
f 211/211/211 215/215/215 213/213/213
f 212/212/212 216/216/216 215/215/215
f 217/217/217 214/214/214 213/213/213
f 215/215/215 217/217/217 213/213/213
f 218/218/218 214/214/214 217/217/217
f 216/216/216 219/219/219 215/215/215
f 215/215/215 219/219/219 217/217/217
f 216/216/216 220/220/220 219/219/219
f 221/221/221 218/218/218 217/217/217
f 219/219/219 221/221/221 217/217/217
f 222/222/222 218/218/218 221/221/221
f 220/220/220 223/223/223 219/219/219
f 219/219/219 223/223/223 221/221/221
f 220/220/220 224/224/224 223/223/223
f 225/225/225 222/222/222 221/221/221
f 223/223/223 225/225/225 221/221/221
f 226/226/226 222/222/222 225/225/225
f 224/224/224 227/227/227 223/223/223
f 223/223/223 227/227/227 225/225/225
f 224/224/224 228/228/228 227/227/227
f 229/229/229 226/226/226 225/225/225
f 227/227/227 229/229/229 225/225/225
f 230/230/230 226/226/226 229/229/229
f 228/228/228 231/231/231 227/227/227
f 227/227/227 231/231/231 229/229/229
f 232/232/232 230/230/230 229/229/229
f 231/231/231 232/232/232 229/229/229
f 233/233/233 230/230/230 232/232/232
f 234/234/234 233/233/233 232/232/232
f 234/234/234 232/232/232 231/231/231
f 235/235/235 233/233/233 234/234/234
f 236/236/236 235/235/235 234/234/234
f 231/231/231 228/228/228 237/237/237
f 237/237/237 234/234/234 231/231/231
f 236/236/236 234/234/234 237/237/237
f 228/228/228 238/238/238 237/237/237
f 239/239/239 236/236/236 237/237/237
f 237/237/237 238/238/238 239/239/239
f 238/238/238 240/240/240 239/239/239
f 243/243/243 242/242/242 241/241/241
f 244/244/244 243/243/243 241/241/241
f 245/245/245 243/243/243 244/244/244
f 244/244/244 241/241/241 246/246/246
f 241/241/241 247/247/247 246/246/246
f 248/248/248 245/245/245 244/244/244
f 249/249/249 245/245/245 248/248/248
f 246/246/246 247/247/247 250/250/250
f 247/247/247 251/251/251 250/250/250
f 246/246/246 250/250/250 252/252/252
f 244/244/244 246/246/246 253/253/253
f 253/253/253 246/246/246 252/252/252
f 248/248/248 244/244/244 253/253/253
f 253/253/253 252/252/252 254/254/254
f 255/255/255 253/253/253 254/254/254
f 248/248/248 253/253/253 255/255/255
f 255/255/255 254/254/254 256/256/256
f 257/257/257 249/249/249 248/248/248
f 257/257/257 248/248/248 255/255/255
f 258/258/258 249/249/249 257/257/257
f 259/259/259 255/255/255 256/256/256
f 257/257/257 255/255/255 259/259/259
f 259/259/259 256/256/256 260/260/260
f 261/261/261 259/259/259 260/260/260
f 262/262/262 258/258/258 257/257/257
f 262/262/262 257/257/257 259/259/259
f 262/262/262 259/259/259 261/261/261
f 263/263/263 258/258/258 262/262/262
f 264/264/264 262/262/262 261/261/261
f 264/264/264 263/263/263 262/262/262
f 267/267/267 266/266/266 265/265/265
f 268/268/268 267/267/267 265/265/265
f 265/265/265 269/269/269 268/268/268
f 270/270/270 267/267/267 268/268/268
f 269/269/269 271/271/271 268/268/268
f 269/269/269 272/272/272 271/271/271
f 272/272/272 273/273/273 271/271/271
f 274/274/274 270/270/270 268/268/268
f 268/268/268 271/271/271 274/274/274
f 271/271/271 273/273/273 275/275/275
f 271/271/271 275/275/275 274/274/274
f 273/273/273 276/276/276 275/275/275
f 275/275/275 276/276/276 277/277/277
f 278/278/278 275/275/275 277/277/277
f 275/275/275 278/278/278 274/274/274
f 277/277/277 279/279/279 278/278/278
f 274/274/274 280/280/280 270/270/270
f 278/278/278 280/280/280 274/274/274
f 280/280/280 281/281/281 270/270/270
f 282/282/282 281/281/281 280/280/280
f 283/283/283 282/282/282 280/280/280
f 283/283/283 280/280/280 278/278/278
f 284/284/284 282/282/282 283/283/283
f 279/279/279 285/285/285 278/278/278
f 285/285/285 283/283/283 278/278/278
f 279/279/279 286/286/286 285/285/285
f 287/287/287 284/284/284 283/283/283
f 287/287/287 283/283/283 285/285/285
f 288/288/288 284/284/284 287/287/287
f 286/286/286 289/289/289 285/285/285
f 289/289/289 287/287/287 285/285/285
f 286/286/286 290/290/290 289/289/289
f 291/291/291 288/288/288 287/287/287
f 291/291/291 287/287/287 289/289/289
f 292/292/292 288/288/288 291/291/291
f 290/290/290 293/293/293 289/289/289
f 293/293/293 291/291/291 289/289/289
f 290/290/290 294/294/294 293/293/293
f 295/295/295 292/292/292 291/291/291
f 295/295/295 291/291/291 293/293/293
f 296/296/296 292/292/292 295/295/295
f 294/294/294 297/297/297 293/293/293
f 297/297/297 295/295/295 293/293/293
f 294/294/294 298/298/298 297/297/297
f 299/299/299 296/296/296 295/295/295
f 299/299/299 295/295/295 297/297/297
f 300/300/300 296/296/296 299/299/299
f 298/298/298 301/301/301 297/297/297
f 301/301/301 299/299/299 297/297/297
f 298/298/298 302/302/302 301/301/301
f 303/303/303 300/300/300 299/299/299
f 303/303/303 299/299/299 301/301/301
f 300/300/300 303/303/303 304/304/304
f 302/302/302 305/305/305 301/301/301
f 305/305/305 303/303/303 301/301/301
f 302/302/302 306/306/306 305/305/305
f 303/303/303 307/307/307 304/304/304
f 303/303/303 305/305/305 307/307/307
f 306/306/306 308/308/308 305/305/305
f 305/305/305 308/308/308 307/307/307
f 306/306/306 309/309/309 308/308/308
f 307/307/307 310/310/310 304/304/304
f 310/310/310 311/311/311 304/304/304
f 308/308/308 312/312/312 307/307/307
f 309/309/309 312/312/312 308/308/308
f 312/312/312 310/310/310 307/307/307
f 312/312/312 309/309/309 313/313/313
f 312/312/312 313/313/313 310/310/310
f 309/309/309 314/314/314 313/313/313
f 310/310/310 315/315/315 311/311/311
f 313/313/313 315/315/315 310/310/310
f 315/315/315 316/316/316 311/311/311
f 313/313/313 314/314/314 317/317/317
f 315/315/315 313/313/313 317/317/317
f 314/314/314 318/318/318 317/317/317
f 316/316/316 315/315/315 319/319/319
f 319/319/319 315/315/315 317/317/317
f 320/320/320 316/316/316 319/319/319
f 317/317/317 318/318/318 321/321/321
f 319/319/319 317/317/317 321/321/321
f 318/318/318 322/322/322 321/321/321
f 320/320/320 319/319/319 323/323/323
f 323/323/323 319/319/319 321/321/321
f 324/324/324 320/320/320 323/323/323
f 321/321/321 322/322/322 325/325/325
f 323/323/323 321/321/321 325/325/325
f 322/322/322 326/326/326 325/325/325
f 324/324/324 323/323/323 327/327/327
f 327/327/327 323/323/323 325/325/325
f 328/328/328 324/324/324 327/327/327
f 325/325/325 326/326/326 329/329/329
f 327/327/327 325/325/325 329/329/329
f 326/326/326 330/330/330 329/329/329
f 328/328/328 327/327/327 331/331/331
f 331/331/331 327/327/327 329/329/329
f 332/332/332 328/328/328 331/331/331
f 329/329/329 330/330/330 333/333/333
f 331/331/331 329/329/329 333/333/333
f 330/330/330 334/334/334 333/333/333
f 332/332/332 331/331/331 335/335/335
f 335/335/335 331/331/331 333/333/333
f 336/336/336 332/332/332 335/335/335
f 333/333/333 334/334/334 337/337/337
f 335/335/335 333/333/333 337/337/337
f 334/334/334 338/338/338 337/337/337
f 336/336/336 335/335/335 339/339/339
f 339/339/339 335/335/335 337/337/337
f 340/340/340 336/336/336 339/339/339
f 340/340/340 339/339/339 341/341/341
f 342/342/342 337/337/337 338/338/338
f 343/343/343 342/342/342 338/338/338
f 343/343/343 344/344/344 342/342/342
f 339/339/339 337/337/337 345/345/345
f 339/339/339 345/345/345 341/341/341
f 337/337/337 342/342/342 345/345/345
f 344/344/344 346/346/346 342/342/342
f 342/342/342 346/346/346 345/345/345
f 344/344/344 347/347/347 346/346/346
f 347/347/347 348/348/348 346/346/346
f 341/341/341 345/345/345 349/349/349
f 346/346/346 349/349/349 345/345/345
f 346/346/346 348/348/348 349/349/349
f 350/350/350 341/341/341 349/349/349
f 348/348/348 351/351/351 349/349/349
f 350/350/350 349/349/349 351/351/351
f 352/352/352 350/350/350 351/351/351
f 355/355/355 354/354/354 353/353/353
f 356/356/356 355/355/355 353/353/353
f 356/356/356 353/353/353 357/357/357
f 355/355/355 356/356/356 358/358/358
f 359/359/359 356/356/356 357/357/357
f 357/357/357 360/360/360 359/359/359
f 360/360/360 361/361/361 359/359/359
f 356/356/356 362/362/362 358/358/358
f 356/356/356 359/359/359 362/362/362
f 358/358/358 362/362/362 363/363/363
f 359/359/359 361/361/361 364/364/364
f 359/359/359 364/364/364 362/362/362
f 361/361/361 365/365/365 364/364/364
f 362/362/362 366/366/366 363/363/363
f 362/362/362 364/364/364 366/366/366
f 363/363/363 366/366/366 367/367/367
f 364/364/364 365/365/365 368/368/368
f 364/364/364 368/368/368 366/366/366
f 365/365/365 369/369/369 368/368/368
f 366/366/366 370/370/370 367/367/367
f 366/366/366 368/368/368 370/370/370
f 368/368/368 369/369/369 371/371/371
f 368/368/368 371/371/371 370/370/370
f 369/369/369 372/372/372 371/371/371
f 372/372/372 373/373/373 371/371/371
f 373/373/373 374/374/374 371/371/371
f 371/371/371 374/374/374 370/370/370
f 373/373/373 375/375/375 374/374/374
f 370/370/370 376/376/376 367/367/367
f 374/374/374 376/376/376 370/370/370
f 376/376/376 377/377/377 367/367/367
f 375/375/375 378/378/378 374/374/374
f 374/374/374 378/378/378 376/376/376
f 375/375/375 379/379/379 378/378/378
f 379/379/379 380/380/380 378/378/378
f 376/376/376 381/381/381 377/377/377
f 378/378/378 381/381/381 376/376/376
f 381/381/381 378/378/378 380/380/380
f 381/381/381 382/382/382 377/377/377
f 383/383/383 381/381/381 380/380/380
f 382/382/382 381/381/381 383/383/383
f 384/384/384 382/382/382 383/383/383
f 387/387/387 386/386/386 385/385/385
f 386/386/386 388/388/388 385/385/385
f 385/385/385 388/388/388 389/389/389
f 386/386/386 390/390/390 388/388/388
f 388/388/388 391/391/391 389/389/389
f 392/392/392 389/389/389 391/391/391
f 390/390/390 393/393/393 388/388/388
f 388/388/388 393/393/393 391/391/391
f 390/390/390 394/394/394 393/393/393
f 394/394/394 395/395/395 393/393/393
f 393/393/393 395/395/395 396/396/396
f 393/393/393 396/396/396 391/391/391
f 395/395/395 397/397/397 396/396/396
f 396/396/396 397/397/397 398/398/398
f 399/399/399 392/392/392 391/391/391
f 399/399/399 391/391/391 396/396/396
f 400/400/400 396/396/396 398/398/398
f 400/400/400 399/399/399 396/396/396
f 398/398/398 401/401/401 400/400/400
f 401/401/401 402/402/402 400/400/400
f 400/400/400 402/402/402 399/399/399
f 401/401/401 403/403/403 402/402/402
f 403/403/403 404/404/404 402/402/402
f 399/399/399 405/405/405 392/392/392
f 402/402/402 405/405/405 399/399/399
f 402/402/402 404/404/404 405/405/405
f 405/405/405 406/406/406 392/392/392
f 404/404/404 407/407/407 405/405/405
f 405/405/405 407/407/407 406/406/406
f 407/407/407 408/408/408 406/406/406
f 411/411/411 410/410/410 409/409/409
f 412/412/412 411/411/411 409/409/409
f 413/413/413 411/411/411 412/412/412
f 414/414/414 412/412/412 409/409/409
f 415/415/415 414/414/414 409/409/409
f 416/416/416 413/413/413 412/412/412
f 417/417/417 413/413/413 416/416/416
f 418/418/418 414/414/414 415/415/415
f 419/419/419 418/418/418 415/415/415
f 418/418/418 420/420/420 414/414/414
f 414/414/414 421/421/421 412/412/412
f 420/420/420 421/421/421 414/414/414
f 421/421/421 416/416/416 412/412/412
f 421/421/421 420/420/420 422/422/422
f 423/423/423 421/421/421 422/422/422
f 416/416/416 421/421/421 423/423/423
f 423/423/423 422/422/422 424/424/424
f 425/425/425 417/417/417 416/416/416
f 425/425/425 416/416/416 423/423/423
f 426/426/426 417/417/417 425/425/425
f 427/427/427 423/423/423 424/424/424
f 425/425/425 423/423/423 427/427/427
f 427/427/427 424/424/424 428/428/428
f 429/429/429 426/426/426 425/425/425
f 429/429/429 425/425/425 427/427/427
f 430/430/430 426/426/426 429/429/429
f 431/431/431 427/427/427 428/428/428
f 429/429/429 427/427/427 431/431/431
f 431/431/431 428/428/428 432/432/432
f 433/433/433 430/430/430 429/429/429
f 433/433/433 429/429/429 431/431/431
f 434/434/434 430/430/430 433/433/433
f 435/435/435 431/431/431 432/432/432
f 433/433/433 431/431/431 435/435/435
f 435/435/435 432/432/432 436/436/436
f 437/437/437 434/434/434 433/433/433
f 437/437/437 433/433/433 435/435/435
f 438/438/438 434/434/434 437/437/437
f 439/439/439 435/435/435 436/436/436
f 437/437/437 435/435/435 439/439/439
f 439/439/439 436/436/436 440/440/440
f 441/441/441 438/438/438 437/437/437
f 441/441/441 437/437/437 439/439/439
f 442/442/442 438/438/438 441/441/441
f 443/443/443 439/439/439 440/440/440
f 441/441/441 439/439/439 443/443/443
f 444/444/444 442/442/442 441/441/441
f 444/444/444 441/441/441 443/443/443
f 445/445/445 442/442/442 444/444/444
f 446/446/446 443/443/443 440/440/440
f 447/447/447 446/446/446 440/440/440
f 448/448/448 444/444/444 443/443/443
f 448/448/448 445/445/445 444/444/444
f 446/446/446 448/448/448 443/443/443
f 445/445/445 448/448/448 449/449/449
f 449/449/449 448/448/448 446/446/446
f 450/450/450 445/445/445 449/449/449
f 451/451/451 446/446/446 447/447/447
f 451/451/451 449/449/449 446/446/446
f 452/452/452 451/451/451 447/447/447
f 450/450/450 449/449/449 453/453/453
f 453/453/453 449/449/449 451/451/451
f 454/454/454 450/450/450 453/453/453
f 455/455/455 451/451/451 452/452/452
f 455/455/455 453/453/453 451/451/451
f 456/456/456 455/455/455 452/452/452
f 454/454/454 453/453/453 457/457/457
f 457/457/457 453/453/453 455/455/455
f 458/458/458 454/454/454 457/457/457
f 459/459/459 455/455/455 456/456/456
f 459/459/459 457/457/457 455/455/455
f 460/460/460 459/459/459 456/456/456
f 458/458/458 457/457/457 461/461/461
f 461/461/461 457/457/457 459/459/459
f 462/462/462 458/458/458 461/461/461
f 463/463/463 459/459/459 460/460/460
f 463/463/463 461/461/461 459/459/459
f 464/464/464 463/463/463 460/460/460
f 462/462/462 461/461/461 465/465/465
f 465/465/465 461/461/461 463/463/463
f 466/466/466 462/462/462 465/465/465
f 467/467/467 463/463/463 464/464/464
f 467/467/467 465/465/465 463/463/463
f 468/468/468 467/467/467 464/464/464
f 466/466/466 465/465/465 469/469/469
f 469/469/469 465/465/465 467/467/467
f 470/470/470 466/466/466 469/469/469
f 471/471/471 467/467/467 468/468/468
f 471/471/471 469/469/469 467/467/467
f 472/472/472 471/471/471 468/468/468
f 470/470/470 469/469/469 473/473/473
f 469/469/469 471/471/471 473/473/473
f 474/474/474 470/470/470 473/473/473
f 471/471/471 472/472/472 475/475/475
f 471/471/471 475/475/475 473/473/473
f 472/472/472 476/476/476 475/475/475
f 474/474/474 473/473/473 477/477/477
f 473/473/473 475/475/475 477/477/477
f 478/478/478 474/474/474 477/477/477
f 475/475/475 479/479/479 477/477/477
f 475/475/475 476/476/476 479/479/479
f 476/476/476 480/480/480 479/479/479
f 483/483/483 482/482/482 481/481/481
f 482/482/482 484/484/484 481/481/481
f 482/482/482 485/485/485 484/484/484
f 481/481/481 484/484/484 486/486/486
f 487/487/487 481/481/481 486/486/486
f 485/485/485 488/488/488 484/484/484
f 485/485/485 489/489/489 488/488/488
f 487/487/487 486/486/486 490/490/490
f 491/491/491 487/487/487 490/490/490
f 490/490/490 486/486/486 492/492/492
f 486/486/486 484/484/484 493/493/493
f 486/486/486 493/493/493 492/492/492
f 484/484/484 488/488/488 493/493/493
f 492/492/492 493/493/493 494/494/494
f 493/493/493 495/495/495 494/494/494
f 493/493/493 488/488/488 495/495/495
f 494/494/494 495/495/495 496/496/496
f 489/489/489 497/497/497 488/488/488
f 488/488/488 497/497/497 495/495/495
f 489/489/489 498/498/498 497/497/497
f 495/495/495 499/499/499 496/496/496
f 495/495/495 497/497/497 499/499/499
f 496/496/496 499/499/499 500/500/500
f 499/499/499 501/501/501 500/500/500
f 498/498/498 502/502/502 497/497/497
f 497/497/497 502/502/502 499/499/499
f 499/499/499 502/502/502 501/501/501
f 498/498/498 503/503/503 502/502/502
f 502/502/502 504/504/504 501/501/501
f 503/503/503 504/504/504 502/502/502
f 507/507/507 506/506/506 505/505/505
f 507/507/507 505/505/505 508/508/508
f 506/506/506 509/509/509 505/505/505
f 510/510/510 505/505/505 509/509/509
f 506/506/506 511/511/511 509/509/509
f 505/505/505 512/512/512 508/508/508
f 505/505/505 510/510/510 512/512/512
f 513/513/513 508/508/508 512/512/512
f 509/509/509 514/514/514 510/510/510
f 514/514/514 509/509/509 515/515/515
f 511/511/511 515/515/515 509/509/509
f 514/514/514 516/516/516 510/510/510
f 517/517/517 513/513/513 512/512/512
f 518/518/518 513/513/513 517/517/517
f 519/519/519 517/517/517 512/512/512
f 519/519/519 512/512/512 520/520/520
f 510/510/510 520/520/520 512/512/512
f 521/521/521 517/517/517 519/519/519
f 521/521/521 518/518/518 517/517/517
f 515/515/515 511/511/511 522/522/522
f 511/511/511 523/523/523 522/522/522
f 522/522/522 523/523/523 524/524/524
f 523/523/523 525/525/525 524/524/524
f 522/522/522 526/526/526 515/515/515
f 526/526/526 522/522/522 524/524/524
f 524/524/524 525/525/525 527/527/527
f 525/525/525 528/528/528 527/527/527
f 524/524/524 527/527/527 529/529/529
f 524/524/524 529/529/529 526/526/526
f 527/527/527 528/528/528 530/530/530
f 527/527/527 530/530/530 529/529/529
f 528/528/528 531/531/531 530/530/530
f 530/530/530 531/531/531 532/532/532
f 529/529/529 530/530/530 532/532/532
f 531/531/531 533/533/533 532/532/532
f 518/518/518 521/521/521 534/534/534
f 535/535/535 518/518/518 534/534/534
f 526/526/526 536/536/536 515/515/515
f 515/515/515 536/536/536 514/514/514
f 537/537/537 532/532/532 533/533/533
f 538/538/538 537/537/537 533/533/533
f 535/535/535 534/534/534 539/539/539
f 540/540/540 535/535/535 539/539/539
f 540/540/540 539/539/539 541/541/541
f 542/542/542 540/540/540 541/541/541
f 543/543/543 539/539/539 534/534/534
f 541/541/541 539/539/539 543/543/543
f 542/542/542 541/541/541 544/544/544
f 544/544/544 541/541/541 543/543/543
f 545/545/545 544/544/544 543/543/543
f 546/546/546 542/542/542 544/544/544
f 546/546/546 544/544/544 545/545/545
f 547/547/547 546/546/546 545/545/545
f 543/543/543 534/534/534 548/548/548
f 548/548/548 534/534/534 521/521/521
f 537/537/537 538/538/538 549/549/549
f 538/538/538 550/550/550 549/549/549
f 549/549/549 550/550/550 551/551/551
f 550/550/550 552/552/552 551/551/551
f 549/549/549 553/553/553 537/537/537
f 549/549/549 551/551/551 553/553/553
f 553/553/553 554/554/554 537/537/537
f 551/551/551 555/555/555 553/553/553
f 537/537/537 554/554/554 532/532/532
f 551/551/551 552/552/552 556/556/556
f 552/552/552 557/557/557 556/556/556
f 557/557/557 558/558/558 556/556/556
f 555/555/555 551/551/551 559/559/559
f 551/551/551 556/556/556 559/559/559
f 558/558/558 560/560/560 556/556/556
f 558/558/558 561/561/561 560/560/560
f 556/556/556 560/560/560 562/562/562
f 559/559/559 556/556/556 562/562/562
f 562/562/562 560/560/560 563/563/563
f 561/561/561 563/563/563 560/560/560
f 562/562/562 564/564/564 559/559/559
f 563/563/563 561/561/561 565/565/565
f 566/566/566 563/563/563 565/565/565
f 565/565/565 567/567/567 566/566/566
f 568/568/568 562/562/562 563/563/563
f 568/568/568 563/563/563 566/566/566
f 567/567/567 569/569/569 566/566/566
f 567/567/567 570/570/570 569/569/569
f 570/570/570 571/571/571 569/569/569
f 570/570/570 572/572/572 571/571/571
f 566/566/566 569/569/569 573/573/573
f 569/569/569 571/571/571 573/573/573
f 572/572/572 574/574/574 571/571/571
f 571/571/571 574/574/574 573/573/573
f 572/572/572 575/575/575 574/574/574
f 575/575/575 576/576/576 574/574/574
f 575/575/575 577/577/577 576/576/576
f 574/574/574 576/576/576 578/578/578
f 578/578/578 573/573/573 574/574/574
f 573/573/573 579/579/579 566/566/566
f 579/579/579 568/568/568 566/566/566
f 577/577/577 580/580/580 576/576/576
f 578/578/578 576/576/576 580/580/580
f 578/578/578 581/581/581 573/573/573
f 573/573/573 581/581/581 579/579/579
f 580/580/580 577/577/577 582/582/582
f 577/577/577 583/583/583 582/582/582
f 580/580/580 582/582/582 584/584/584
f 585/585/585 584/584/584 582/582/582
f 584/584/584 586/586/586 580/580/580
f 586/586/586 578/578/578 580/580/580
f 582/582/582 583/583/583 587/587/587
f 582/582/582 587/587/587 585/585/585
f 583/583/583 588/588/588 587/587/587
f 587/587/587 588/588/588 589/589/589
f 590/590/590 587/587/587 589/589/589
f 585/585/585 587/587/587 590/590/590
f 589/589/589 591/591/591 590/590/590
f 581/581/581 578/578/578 592/592/592
f 578/578/578 586/586/586 592/592/592
f 593/593/593 581/581/581 592/592/592
f 579/579/579 581/581/581 593/593/593
f 594/594/594 579/579/579 593/593/593
f 594/594/594 595/595/595 579/579/579
f 586/586/586 596/596/596 592/592/592
f 595/595/595 568/568/568 579/579/579
f 586/586/586 597/597/597 596/596/596
f 597/597/597 598/598/598 596/596/596
f 584/584/584 597/597/597 586/586/586
f 599/599/599 568/568/568 595/595/595
f 600/600/600 599/599/599 595/595/595
f 568/568/568 599/599/599 562/562/562
f 598/598/598 597/597/597 601/601/601
f 584/584/584 601/601/601 597/597/597
f 602/602/602 598/598/598 601/601/601
f 603/603/603 599/599/599 600/600/600
f 599/599/599 603/603/603 562/562/562
f 604/604/604 603/603/603 600/600/600
f 602/602/602 601/601/601 605/605/605
f 584/584/584 605/605/605 601/601/601
f 606/606/606 602/602/602 605/605/605
f 607/607/607 603/603/603 604/604/604
f 603/603/603 607/607/607 562/562/562
f 608/608/608 607/607/607 604/604/604
f 606/606/606 605/605/605 609/609/609
f 584/584/584 609/609/609 605/605/605
f 610/610/610 606/606/606 609/609/609
f 611/611/611 607/607/607 608/608/608
f 562/562/562 607/607/607 611/611/611
f 612/612/612 611/611/611 608/608/608
f 610/610/610 609/609/609 613/613/613
f 584/584/584 613/613/613 609/609/609
f 614/614/614 610/610/610 613/613/613
f 611/611/611 615/615/615 562/562/562
f 615/615/615 611/611/611 612/612/612
f 616/616/616 615/615/615 612/612/612
f 562/562/562 615/615/615 564/564/564
f 564/564/564 615/615/615 616/616/616
f 617/617/617 564/564/564 616/616/616
f 564/564/564 617/617/617 559/559/559
f 617/617/617 618/618/618 559/559/559
f 555/555/555 559/559/559 618/618/618
f 619/619/619 555/555/555 618/618/618
f 619/619/619 620/620/620 555/555/555
f 584/584/584 621/621/621 613/613/613
f 614/614/614 613/613/613 621/621/621
f 622/622/622 614/614/614 621/621/621
f 585/585/585 621/621/621 584/584/584
f 622/622/622 621/621/621 585/585/585
f 623/623/623 622/622/622 585/585/585
f 620/620/620 624/624/624 555/555/555
f 624/624/624 620/620/620 625/625/625
f 624/624/624 553/553/553 555/555/555
f 623/623/623 585/585/585 626/626/626
f 627/627/627 623/623/623 626/626/626
f 628/628/628 627/627/627 626/626/626
f 626/626/626 585/585/585 590/590/590
f 629/629/629 624/624/624 625/625/625
f 629/629/629 553/553/553 624/624/624
f 629/629/629 625/625/625 630/630/630
f 631/631/631 629/629/629 630/630/630
f 629/629/629 631/631/631 553/553/553
f 631/631/631 630/630/630 632/632/632
f 633/633/633 631/631/631 632/632/632
f 633/633/633 553/553/553 631/631/631
f 633/633/633 632/632/632 634/634/634
f 635/635/635 633/633/633 634/634/634
f 633/633/633 635/635/635 553/553/553
f 635/635/635 634/634/634 636/636/636
f 635/635/635 637/637/637 553/553/553
f 637/637/637 635/635/635 636/636/636
f 637/637/637 554/554/554 553/553/553
f 637/637/637 636/636/636 638/638/638
f 554/554/554 637/637/637 638/638/638
f 554/554/554 638/638/638 639/639/639
f 638/638/638 640/640/640 639/639/639
f 554/554/554 639/639/639 532/532/532
f 639/639/639 640/640/640 641/641/641
f 532/532/532 639/639/639 529/529/529
f 642/642/642 639/639/639 641/641/641
f 639/639/639 642/642/642 529/529/529
f 529/529/529 642/642/642 526/526/526
f 642/642/642 641/641/641 643/643/643
f 526/526/526 642/642/642 643/643/643
f 536/536/536 526/526/526 643/643/643
f 644/644/644 536/536/536 643/643/643
f 645/645/645 536/536/536 644/644/644
f 646/646/646 645/645/645 644/644/644
f 536/536/536 645/645/645 514/514/514
f 645/645/645 646/646/646 647/647/647
f 647/647/647 514/514/514 645/645/645
f 646/646/646 648/648/648 647/647/647
f 647/647/647 648/648/648 649/649/649
f 649/649/649 514/514/514 647/647/647
f 648/648/648 650/650/650 649/649/649
f 649/649/649 650/650/650 651/651/651
f 651/651/651 514/514/514 649/649/649
f 650/650/650 652/652/652 651/651/651
f 653/653/653 514/514/514 651/651/651
f 651/651/651 652/652/652 653/653/653
f 652/652/652 654/654/654 653/653/653
f 516/516/516 514/514/514 653/653/653
f 653/653/653 654/654/654 516/516/516
f 654/654/654 655/655/655 516/516/516
f 516/516/516 655/655/655 510/510/510
f 655/655/655 656/656/656 510/510/510
f 510/510/510 656/656/656 520/520/520
f 656/656/656 657/657/657 520/520/520
f 657/657/657 658/658/658 520/520/520
f 658/658/658 659/659/659 520/520/520
f 658/658/658 660/660/660 659/659/659
f 520/520/520 659/659/659 519/519/519
f 660/660/660 661/661/661 659/659/659
f 519/519/519 659/659/659 661/661/661
f 660/660/660 662/662/662 661/661/661
f 662/662/662 663/663/663 661/661/661
f 519/519/519 661/661/661 663/663/663
f 662/662/662 664/664/664 663/663/663
f 664/664/664 665/665/665 663/663/663
f 519/519/519 663/663/663 665/665/665
f 664/664/664 666/666/666 665/665/665
f 666/666/666 667/667/667 665/665/665
f 519/519/519 665/665/665 667/667/667
f 666/666/666 668/668/668 667/667/667
f 519/519/519 667/667/667 669/669/669
f 668/668/668 669/669/669 667/667/667
f 521/521/521 519/519/519 669/669/669
f 669/669/669 668/668/668 670/670/670
f 669/669/669 671/671/671 521/521/521
f 671/671/671 669/669/669 670/670/670
f 671/671/671 548/548/548 521/521/521
f 671/671/671 670/670/670 672/672/672
f 548/548/548 671/671/671 672/672/672
f 673/673/673 548/548/548 672/672/672
f 548/548/548 673/673/673 543/543/543
f 674/674/674 673/673/673 672/672/672
f 545/545/545 543/543/543 673/673/673
f 675/675/675 673/673/673 674/674/674
f 673/673/673 675/675/675 545/545/545
f 676/676/676 675/675/675 674/674/674
f 675/675/675 676/676/676 677/677/677
f 678/678/678 675/675/675 677/677/677
f 675/675/675 678/678/678 545/545/545
f 678/678/678 677/677/677 679/679/679
f 678/678/678 680/680/680 545/545/545
f 681/681/681 680/680/680 678/678/678
f 545/545/545 680/680/680 547/547/547
f 680/680/680 682/682/682 547/547/547
f 682/682/682 680/680/680 683/683/683
f 684/684/684 678/678/678 679/679/679
f 678/678/678 684/684/684 681/681/681
f 684/684/684 679/679/679 685/685/685
f 680/680/680 686/686/686 683/683/683
f 681/681/681 686/686/686 680/680/680
f 683/683/683 686/686/686 687/687/687
f 688/688/688 684/684/684 685/685/685
f 681/681/681 684/684/684 688/688/688
f 688/688/688 685/685/685 689/689/689
f 686/686/686 690/690/690 687/687/687
f 690/690/690 686/686/686 681/681/681
f 687/687/687 690/690/690 691/691/691
f 692/692/692 688/688/688 689/689/689
f 681/681/681 688/688/688 692/692/692
f 692/692/692 689/689/689 693/693/693
f 681/681/681 692/692/692 694/694/694
f 694/694/694 692/692/692 693/693/693
f 690/690/690 681/681/681 694/694/694
f 694/694/694 693/693/693 695/695/695
f 694/694/694 696/696/696 690/690/690
f 696/696/696 694/694/694 695/695/695
f 690/690/690 697/697/697 691/691/691
f 690/690/690 696/696/696 697/697/697
f 696/696/696 695/695/695 698/698/698
f 696/696/696 698/698/698 697/697/697
f 695/695/695 699/699/699 698/698/698
f 700/700/700 698/698/698 699/699/699
f 697/697/697 698/698/698 700/700/700
f 700/700/700 701/701/701 697/697/697
f 702/702/702 700/700/700 699/699/699
f 697/697/697 703/703/703 691/691/691
f 701/701/701 703/703/703 697/697/697
f 703/703/703 704/704/704 691/691/691
f 705/705/705 700/700/700 702/702/702
f 705/705/705 701/701/701 700/700/700
f 706/706/706 705/705/705 702/702/702
f 703/703/703 707/707/707 704/704/704
f 707/707/707 703/703/703 701/701/701
f 707/707/707 708/708/708 704/704/704
f 708/708/708 707/707/707 709/709/709
f 707/707/707 710/710/710 709/709/709
f 711/711/711 709/709/709 710/710/710
f 712/712/712 705/705/705 706/706/706
f 712/712/712 701/701/701 705/705/705
f 713/713/713 712/712/712 706/706/706
f 714/714/714 712/712/712 713/713/713
f 714/714/714 701/701/701 712/712/712
f 715/715/715 714/714/714 713/713/713
f 716/716/716 707/707/707 701/701/701
f 701/701/701 714/714/714 716/716/716
f 716/716/716 714/714/714 715/715/715
f 707/707/707 716/716/716 710/710/710
f 717/717/717 716/716/716 715/715/715
f 718/718/718 716/716/716 717/717/717
f 716/716/716 718/718/718 710/710/710
f 719/719/719 718/718/718 717/717/717
f 718/718/718 719/719/719 720/720/720
f 721/721/721 718/718/718 720/720/720
f 710/710/710 718/718/718 721/721/721
f 721/721/721 720/720/720 722/722/722
f 721/721/721 723/723/723 710/710/710
f 724/724/724 721/721/721 722/722/722
f 723/723/723 721/721/721 724/724/724
f 723/723/723 725/725/725 710/710/710
f 725/725/725 711/711/711 710/710/710
f 726/726/726 711/711/711 725/725/725
f 727/727/727 726/726/726 725/725/725
f 727/727/727 725/725/725 723/723/723
f 728/728/728 726/726/726 727/727/727
f 729/729/729 728/728/728 727/727/727
f 729/729/729 727/727/727 723/723/723
f 730/730/730 728/728/728 729/729/729
f 731/731/731 729/729/729 723/723/723
f 731/731/731 730/730/730 729/729/729
f 724/724/724 731/731/731 723/723/723
f 732/732/732 730/730/730 731/731/731
f 733/733/733 724/724/724 722/722/722
f 734/734/734 733/733/733 722/722/722
f 731/731/731 724/724/724 735/735/735
f 735/735/735 732/732/732 731/731/731
f 724/724/724 733/733/733 735/735/735
f 736/736/736 733/733/733 734/734/734
f 735/735/735 733/733/733 736/736/736
f 737/737/737 736/736/736 734/734/734
f 736/736/736 738/738/738 735/735/735
f 738/738/738 739/739/739 735/735/735
f 732/732/732 735/735/735 739/739/739
f 740/740/740 738/738/738 736/736/736
f 736/736/736 737/737/737 740/740/740
f 591/591/591 732/732/732 739/739/739
f 591/591/591 739/739/739 590/590/590
f 590/590/590 739/739/739 738/738/738
f 737/737/737 741/741/741 740/740/740
f 626/626/626 590/590/590 738/738/738
f 740/740/740 741/741/741 742/742/742
f 742/742/742 738/738/738 740/740/740
f 741/741/741 743/743/743 742/742/742
f 742/742/742 743/743/743 744/744/744
f 744/744/744 738/738/738 742/742/742
f 743/743/743 745/745/745 744/744/744
f 744/744/744 745/745/745 746/746/746
f 746/746/746 738/738/738 744/744/744
f 745/745/745 747/747/747 746/746/746
f 738/738/738 748/748/748 626/626/626
f 748/748/748 738/738/738 746/746/746
f 746/746/746 747/747/747 748/748/748
f 748/748/748 628/628/628 626/626/626
f 747/747/747 628/628/628 748/748/748
