g matou3matuo3_mobile
v 0.300799883 5.75590905 0.778855041
v 0.300799883 5.76638918 0.755274749
v -0.283668902 5.76638918 0.755274749
v -0.283668902 5.75590905 0.778855041
v 0.300799883 5.54852341 0.983620657
v -0.283668902 5.54852341 0.983620657
v 0.300799883 5.50700597 0.932630794
v -0.283668902 5.50700597 0.932630794
v 0.300799883 5.69988067 0.783490483
v -0.283668902 5.69988067 0.783490483
v 0.300799883 5.7192286 0.74922852
v -0.283668902 5.7192286 0.74922852
v 0.300799883 5.70814385 0.710935737
v -0.283668902 5.70814385 0.710935737
v 0.300799883 5.50277361 0.451955603
v -0.283668902 5.50277361 0.451955603
v 0.300799883 5.46911627 0.432607671
v -0.283668902 5.46911627 0.432607671
v 0.300799883 5.43162965 0.440870851
v -0.283668902 5.43162965 0.440870851
v 0.300598342 5.19159437 0.610568339
v -0.283467361 5.19159437 0.610568339
v 0.300799883 4.98965032 0.824000216
v -0.283668902 4.98965032 0.824000216
v 0.300799883 4.96506233 0.881237849
v -0.283668902 4.96506233 0.881237849
v 0.300799883 4.98299947 0.940692432
v -0.283668902 4.98299947 0.940692432
v 0.300799883 5.1829281 1.1944325
v -0.283668902 5.1829281 1.1944325
v 0.300799883 5.22142243 1.24159309
v -0.283668902 5.22142243 1.24159309
v 0.300799883 5.41328942 1.53060282
v -0.283668902 5.41328942 1.53060282
v 0.300799883 5.47737945 1.57373259
v -0.283668902 5.47737945 1.57373259
v 0.300799883 5.55174806 1.55619852
v -0.283668902 5.55174806 1.55619852
v 0.300799883 5.76175374 1.43265392
v -0.283668902 5.76175374 1.43265392
v -0.283668902 5.95059762 1.26356105
v 0.300799883 5.95059762 1.26356105
v 0.300799883 6.11848124 1.08398805
v -0.283668902 6.11848124 1.08398805
v -0.283668902 6.25754451 0.909453583
v 0.300799883 6.25754451 0.909453583
v 0.300799883 6.40144475 0.661961284
v -0.283668902 6.40144475 0.661961284
v 0.300799883 6.43409439 0.555144575
v -0.283668902 6.43409439 0.555144575
v 0.300799883 6.41736649 0.442483178
v -0.283668902 6.41736649 0.442483178
v 0.300799883 6.28596178 0.088577252
v -0.283668902 6.28596178 0.088577252
v 0.300799883 6.08280849 -0.21836963
v -0.283668902 6.08280849 -0.21836963
v -0.283668902 5.85708262 -0.428375311
v 0.300799883 5.85708262 -0.428375311
v 0.300799883 5.5676698 -0.60452211
v -0.283668902 5.5676698 -0.60452211
v -0.283668902 5.2532659 -0.722423572
v 0.300799883 5.2532659 -0.722423572
v -0.283668902 2.94219571 -1.21337735
v 0.300799883 2.94219571 -1.21337735
v 0.300799883 2.73581777 0.0387966349
v -0.283668902 2.73581777 0.0387966349
v 0.300799883 2.74549173 0.171007505
v -0.283668902 2.74549173 0.171007505
v 0.300799883 2.81603107 0.266739461
v -0.283668902 2.81603107 0.266739461
v 0.300799883 2.92828938 0.30019526
v -0.283668902 2.92828938 0.30019526
v -0.283668902 5.12911667 0.26653792
v 0.300799883 5.12911667 0.26653792
v -0.283668902 5.32239445 0.309264604
v 0.300799883 5.32239445 0.309264604
v 0.300799883 5.49995204 0.401167281
v -0.283668902 5.49995204 0.401167281
v -0.283668902 5.65634782 0.54365674
v 0.300799883 5.65634782 0.54365674
v -0.283668902 5.75993987 0.730082129
v 0.300799883 5.75993987 0.730082129
v 0.300799883 5.76638918 0.755274749
v -0.283668902 5.76638918 0.755274749
v 0.0311380784 5.9209711 1.37158701
v 0.0152163425 5.87340743 1.35102983
v 0.0154178835 5.90343704 1.37178855
v 0.0343627337 5.89940622 1.35788222
v 0.182898421 6.17995124 1.18032463
v 0.0337581108 5.76921076 1.24300387
v 0.0152163425 5.75187824 1.24683315
v 0.0154178835 5.74159965 1.2313145
v 0.0311380784 5.7571183 1.22869446
v 0.184510749 6.15798327 1.17145683
v 0.207889501 6.20252382 1.15493047
v 0.184309208 6.03967873 1.07129097
v 0.182898421 6.02960168 1.05536924
v 0.211517238 6.06426672 1.0438814
v 0.207889501 6.05237581 1.02997508
v 0.212323402 6.18317589 1.14364418
v 0.242957628 6.21945326 1.13397021
v 0.249406938 6.08321157 1.02191344
v 0.242957628 6.06910371 1.00901482
v 0.250817725 6.20232228 1.12127313
v 0.473318945 6.30248814 1.05254767
v 0.477752846 6.28374483 1.04065675
v 0.490248386 6.31578984 1.03622285
v 0.476745142 6.16544029 0.941498596
v 0.473318945 6.15254166 0.927995352
v 0.495488451 6.17995124 0.92356145
v 0.490248386 6.16584337 0.911670534
v 0.496697697 6.2988604 1.02251806
v 0.473722027 6.32909155 1.02009957
v 0.477349764 6.19486527 0.905624305
v 0.473722027 6.17934661 0.895547257
v 0.477954387 6.31397597 1.00397629
v 0.246182283 6.3982201 0.918119845
v 0.25404238 6.38229836 0.904011977
v 0.211517238 6.41454491 0.89615188
v 0.252631594 6.26298611 0.804853825
v 0.246182283 6.24807208 0.792962908
v 0.215144975 6.28011709 0.780265828
v 0.211517238 6.2643969 0.770994944
v 0.215749598 6.39983242 0.879020898
v 0.1867277 6.43550517 0.868540768
v 0.188340027 6.30268968 0.750236225
v 0.1867277 6.28515562 0.743383832
v 0.188541568 6.42280809 0.848386672
v 0.032750406 6.59613332 0.547889101
v 0.0349673566 6.5798085 0.527735004
v 0.0214641123 6.59774565 0.545067527
v 0.0345642747 6.44860534 0.414065903
v 0.032750406 6.43207898 0.404795019
v 0.0214641123 6.45001612 0.410639707
v 0.0214641123 6.43348976 0.401771904
v 0.0214641123 6.58162237 0.524308808
v 0.0103793595 6.59613332 0.547889101
v 0.00856549081 6.44840379 0.414065903
v 0.0103793595 6.43228052 0.40499656
v 0.00796086793 6.5798085 0.527936545
v -0.146016426 6.43510209 0.869346932
v -0.147628753 6.42220347 0.849394377
v -0.171209046 6.41414183 0.896958044
v -0.147427212 6.3022866 0.751243929
v -0.146016426 6.28475253 0.744391537
v -0.174433701 6.27951247 0.781273533
v -0.171209046 6.26399382 0.772002648
v -0.175441406 6.39942934 0.880028603
v -0.206075632 6.39701085 0.917515222
v -0.212323402 6.26157532 0.804249202
v -0.206075632 6.24666129 0.792559826
v -0.213935729 6.38108911 0.903407354
v -0.436436949 6.32949463 1.01949495
v -0.44066931 6.31417751 1.00377475
v -0.45336639 6.31619292 1.03581977
v -0.440064687 6.19506681 0.905221223
v -0.436436949 6.17954815 0.894942634
v -0.458807996 6.18055586 0.922956828
v -0.45336639 6.16624645 0.911267452
v -0.460017242 6.29946502 1.0217119
v -0.436840031 6.30289122 1.05214458
v -0.440467769 6.16564183 0.941095514
v -0.436840031 6.15294475 0.92759227
v -0.441273933 6.28434945 1.04025367
v -0.209300287 6.21884864 1.13457484
v -0.217160385 6.2019192 1.12187776
v -0.174836783 6.20171766 1.1555351
v -0.215548057 6.08260695 1.02251806
v -0.209300287 6.06870063 1.00961944
v -0.178262979 6.06346056 1.04428449
v -0.174836783 6.05156964 1.0305797
v -0.179069143 6.18257127 1.14404726
v -0.150047245 6.17914507 1.18092926
v -0.151458032 6.0390741 1.0718956
v -0.150047245 6.02899706 1.05597386
v -0.151659573 6.15737865 1.17206145
v -0.00030231144 5.9209711 1.37158701
v -0.0035269668 5.89940622 1.35768068
v 0.0154178835 5.90343704 1.37178855
v 0.0152163425 5.87340743 1.35102983
v 0.0152163425 5.75187824 1.24683315
v -0.00292234392 5.76900922 1.24300387
v -0.00030231144 5.75671522 1.22849292
v 0.0154178835 5.74159965 1.2313145
v -1.04891993 4.75223507 -1.31737249
v -0.947746366 4.72180239 -1.47719447
v -0.867533064 4.75223507 -1.40141507
v -1.12611012 4.72180239 -1.39456267
v -1.00256551 4.65630158 -1.52616892
v -1.13296251 4.75223507 -1.13598562
v -1.17689844 4.65630158 -1.445351
v -1.05254767 4.47693012 -1.57373259
v -1.20874191 4.72180239 -1.21619892
v -1.22506673 4.47693012 -1.49351929
v -1.04105983 4.37474885 -1.56204321
v -1.20874191 4.72180239 0.679293807
v -1.13296251 4.75223507 0.599080504
v -1.04891993 4.75223507 0.780467369
v -1.25771636 4.65630158 -1.27101807
v -1.21357889 4.37474885 -1.48203145
v -0.977775969 4.2923186 -1.50057322
v -1.12611012 4.72180239 0.857657556
v -0.867533064 4.75223507 0.864509949
v -1.25771636 4.65630158 0.734112948
v -1.30528003 4.47693012 -1.32100022
v -1.15150428 4.2923186 -1.41995684
v -0.701463312 4.11899338 -1.22284978
v -1.30528003 4.47693012 0.784095106
v -1.17689844 4.65630158 0.908445878
v -0.947746366 4.72180239 0.940490891
v -1.29359065 4.37474885 -1.30931085
v -1.29359065 4.37474885 0.77240573
v -1.22506673 4.47693012 0.956614168
v 0.947746366 4.72180239 0.940490891
v 0.867533064 4.75223507 0.864509949
v 1.04891993 4.75223507 0.780467369
v -1.00256551 4.65630158 0.989263804
v 1.12611012 4.72180239 0.857657556
v 1.13296251 4.75223507 0.599080504
v 1.00256551 4.65630158 0.989263804
v -1.23212066 4.2923186 0.70932341
v -1.21357889 4.37474885 0.945126333
v -1.05254767 4.47693012 1.03682747
v 1.05254767 4.47693012 1.03682747
v 1.17689844 4.65630158 0.908445878
v 1.20894345 4.72180239 0.679293807
v -1.23212066 4.2923186 -1.24622853
v 1.20894345 4.72180239 -1.21619892
v 1.13296251 4.75223507 -1.13598562
v 1.04891993 4.75223507 -1.31737249
v 1.12611012 4.72180239 -1.39456267
v 0.867533064 4.75223507 -1.40141507
v 1.25771636 4.65630158 -1.27101807
v 1.25771636 4.65630158 0.734112948
v -0.872974669 4.11818721 -1.14142723
v 1.22506673 4.47693012 0.956614168
v -0.833875723 4.03233076 -1.10232828
v -0.661356661 4.03051689 -1.18234004
v -0.994503868 -6.33735473 -1.50641791
v 1.04085829 4.37474885 1.02513809
v -1.04105983 4.37474885 1.02513809
v -1.15150428 4.2923186 0.883051717
v -0.954397217 4.11899338 0.433010753
v -0.954397217 4.11899338 -0.969915871
v -0.913887484 4.03051689 -0.929607679
v -1.16077516 -6.33735473 -1.42922772
v -0.913887484 4.03051689 0.392904102
v -1.15170582 -6.49133202 -1.42015838
v -1.00317013 -6.49133202 -1.48827922
v -1.23816689 -6.33735473 -1.26295643
v -1.1019252 -6.60399342 -1.37037776
v -1.0015578 -6.60399342 -1.41411215
v -1.14565959 -6.60399342 -1.27001036
v -1.2200282 -6.49133202 -1.27162269
v -1.14565959 -6.60399342 0.733105243
v -1.2200282 -6.49133202 0.734717571
v -1.1019252 -6.60399342 0.833472641
v -1.23816689 -6.33735473 0.726051309
v -1.15170582 -6.49133202 0.883253258
v -1.0015578 -6.60399342 0.87720703
v -0.833875723 4.03233076 0.565423164
v -1.00317013 -6.49133202 0.951374103
v 1.0015578 -6.60399342 0.87720703
v -1.16077516 -6.33735473 0.892524143
v -0.872974669 4.11818721 0.60452211
v 1.00317013 -6.49133202 0.951374103
v 1.1019252 -6.60399342 0.833472641
v -0.994503868 -6.33735473 0.96971433
v -0.661356661 4.03051689 0.645434925
v -0.977775969 4.2923186 0.963668102
v 1.15190736 -6.49133202 0.883253258
v 1.14565959 -6.60399342 0.733105243
v -0.701463312 4.11899338 0.685944658
v 0.994503868 -6.33735473 0.96971433
v 0.66115512 4.03051689 0.645434925
v 0.977775969 4.2923186 0.963668102
v 0.701463312 4.11899338 0.685944658
v 1.2200282 -6.49133202 0.734717571
v 1.14565959 -6.60399342 -1.27001036
v 1.1609767 -6.33735473 0.892524143
v 0.833875723 4.03233076 0.565423164
v 1.21357889 4.37474885 0.945126333
v 1.2200282 -6.49133202 -1.27162269
v 1.1019252 -6.60399342 -1.37037776
v 1.15150428 4.2923186 0.883051717
v 0.872974669 4.11818721 0.60452211
v 1.23816689 -6.33735473 0.726051309
v 0.913887484 4.03051689 0.392904102
v 1.30528003 4.47693012 0.784095106
v 1.15190736 -6.49133202 -1.42015838
v 1.0015578 -6.60399342 -1.41411215
v 1.29359065 4.37474885 0.77240573
v 1.23212066 4.2923186 0.70932341
v 0.954397217 4.11899338 0.433010753
v 1.23816689 -6.33735473 -1.26295643
v 0.913887484 4.03051689 -0.929607679
v 1.30528003 4.47693012 -1.32100022
v 1.29359065 4.37474885 -1.30931085
v 1.23212066 4.2923186 -1.24622853
v 0.954397217 4.11899338 -0.969915871
v 0.833875723 4.03233076 -1.10232828
v 1.17689844 4.65630158 -1.445351
v 1.22506673 4.47693012 -1.49351929
v 1.21357889 4.37474885 -1.48203145
v 1.15150428 4.2923186 -1.41995684
v 0.947746366 4.72180239 -1.47719447
v 1.00256551 4.65630158 -1.52616892
v -0.947746366 4.72180239 -1.47719447
v -0.867533064 4.75223507 -1.40141507
v -1.00256551 4.65630158 -1.52616892
v -1.05254767 4.47693012 -1.57373259
v 1.05254767 4.47693012 -1.57373259
v -1.04105983 4.37474885 -1.56204321
v 1.04085829 4.37474885 -1.56204321
v -0.977775969 4.2923186 -1.50057322
v 0.977775969 4.2923186 -1.50057322
v -0.701463312 4.11899338 -1.22284978
v 0.872974669 4.11818721 -1.14142723
v 0.701463312 4.11899338 -1.22284978
v -0.661356661 4.03051689 -1.18234004
v 0.66115512 4.03051689 -1.18234004
v 1.1609767 -6.33735473 -1.42922772
v 0.994503868 -6.33735473 -1.50641791
v -0.994503868 -6.33735473 -1.50641791
v -1.00317013 -6.49133202 -1.48827922
v 1.00317013 -6.49133202 -1.48827922
v -1.0015578 -6.60399342 -1.41411215
v -1.04891993 4.75223507 -1.31737249
v -0.867533064 4.75223507 -1.40141507
v 0.00010077048 4.75223507 -0.268351789
v -1.13296251 4.75223507 -1.13598562
v 0.867533064 4.75223507 -1.40141507
v -1.13296251 4.75223507 0.599080504
v 1.04891993 4.75223507 -1.31737249
v -1.04891993 4.75223507 0.780467369
v 1.13296251 4.75223507 -1.13598562
v -0.867533064 4.75223507 0.864509949
v 1.13296251 4.75223507 0.599080504
v 0.867533064 4.75223507 0.864509949
v 1.04891993 4.75223507 0.780467369
v -0.146016426 6.43510209 0.869346932
v -0.154481146 6.41756803 0.91932909
v -0.171209046 6.41414183 0.896958044
v -0.206075632 6.39701085 0.917515222
v -0.133520886 6.43651288 0.890911815
v 0.0214641123 6.60399342 0.578120245
v 0.0188440798 6.32546381 1.04428449
v 0.0103793595 6.59613332 0.547889101
v 0.0214641123 6.59774565 0.545067527
v 0.032750406 6.59613332 0.547889101
v 0.1867277 6.43550517 0.868540768
v -0.191766224 6.40225091 0.938677022
v -0.418902886 6.33413007 1.03702901
v -0.436436949 6.32949463 1.01949495
v 0.173627537 6.43752058 0.889097946
v 0.194789338 6.41817265 0.918321385
v 0.211517238 6.41454491 0.89615188
v 0.246182283 6.3982201 0.918119845
v -0.427367606 6.32747922 1.04529219
v -0.45336639 6.31619292 1.03581977
v -0.419305968 6.32082837 1.05335383
v -0.436840031 6.30289122 1.05214458
v 0.233082121 6.40245246 0.938475482
v -0.192975469 6.2388012 1.13759795
v 0.455986423 6.33392853 1.03743209
v 0.473722027 6.32909155 1.02009957
v -0.209300287 6.21884864 1.13457484
v 0.490248386 6.31578984 1.03622285
v -0.157907342 6.22348408 1.1555351
v -0.174836783 6.20171766 1.1555351
v -0.150047245 6.17914507 1.18092926
v 0.464249602 6.32727768 1.04569527
v 0.473318945 6.30248814 1.05254767
v 0.455784882 6.32062683 1.05375691
v 0.242957628 6.21945326 1.13397021
v -0.135133214 6.19708222 1.1811308
v 0.227035892 6.23960736 1.13679179
v 0.191161601 6.22429025 1.15493047
v 0.207889501 6.20252382 1.15493047
v 0.182898421 6.17995124 1.18032463
v 0.168790554 6.198493 1.17992155
v 0.0311380784 5.9209711 1.37158701
v 0.0154178835 5.94737297 1.37783477
v -0.00030231144 5.9209711 1.37158701
v 0.0154178835 5.90343704 1.37178855
v 0.300799883 5.65634782 0.54365674
v 0.393307184 5.5174861 0.379602399
v 0.300799883 5.49995204 0.401167281
v 0.300799883 5.32239445 0.309264604
v 0.393307184 5.68113736 0.530758119
v 0.300799883 5.75993987 0.730082129
v 0.393307184 5.3334792 0.282862738
v 0.454374095 5.55376347 0.335061846
v 0.393307184 5.13274441 0.237717563
v 0.300799883 5.12911667 0.26653792
v 0.393307184 2.96416367 0.272382608
v 0.300799883 2.92828938 0.30019526
v 0.300799883 2.81603107 0.266739461
v 0.393307184 2.84787454 0.237717563
v 0.300799883 2.74549173 0.171007505
v 0.454374095 3.03309068 0.214741893
v 0.454374095 5.14020142 0.178262979
v 0.393307184 2.77531979 0.137954787
v 0.300799883 2.73581777 0.0387966349
v 0.454374095 2.91135994 0.177859897
v 0.454374095 5.35645487 0.228446678
v 0.470698913 5.14725535 0.123040756
v 0.470698913 3.09052986 0.160930457
v 0.470698913 2.96698525 0.123040756
v 0.454374095 2.8363867 0.0714462704
v 0.393307184 2.76604891 -0.00010077048
v 0.470698913 2.89221355 0.0129993919
v 0.454374095 2.82852661 -0.0758801715
v 0.393307184 2.96436521 -1.17185991
v 0.300799883 2.94219571 -1.21337735
v 0.470698913 2.8865704 -0.139567115
v 0.454374095 3.01031655 -1.08600346
v 0.393307184 5.24943662 -0.691990887
v 0.300799883 5.2532659 -0.722423572
v 0.470698913 3.05304324 -1.00579016
v 0.470698913 5.23432105 -0.570461688
v 0.454374095 5.24157652 -0.629110108
v 0.393307184 5.56001124 -0.575701753
v 0.300799883 5.5676698 -0.60452211
v 0.470698913 5.37781821 0.177859897
v 0.470698913 5.5297801 -0.460218783
v 0.454374095 5.54429105 -0.516045629
v 0.393307184 5.84579632 -0.401570363
v 0.300799883 5.85708262 -0.428375311
v 0.470698913 5.58782389 0.293544409
v 0.470698913 5.80085269 -0.293544409
v 0.470698913 5.78110168 0.479969797
v 0.454374095 5.82241757 -0.345743517
v 0.454374095 5.73273184 0.504356253
v 0.393307184 6.06910371 -0.19317701
v 0.300799883 6.08280849 -0.21836963
v 0.470698913 6.01428457 -0.0920034484
v 0.454374095 6.04068643 -0.140776361
v 0.393307184 5.79299259 0.733306784
v 0.393307184 6.26278457 0.0984527591
v 0.300799883 6.28596178 0.088577252
v 0.470698913 6.1718896 0.139970197
v 0.454374095 6.21542244 0.119413019
v 0.393307184 6.38874767 0.434219999
v 0.300799883 6.41736649 0.442483178
v 0.300799883 6.43409439 0.555144575
v 0.470698913 6.27588473 0.406810428
v 0.470698913 5.92600963 0.748019274
v 0.454374095 6.32989771 0.419104427
v 0.393307184 6.40587865 0.549098346
v 0.300799883 6.40144475 0.661961284
v 0.454374095 6.34783486 0.536401266
v 0.393307184 6.37302748 0.657124301
v 0.470698913 6.29402342 0.525114972
v 0.454374095 6.31478214 0.64644263
v 0.393307184 6.23315805 0.897965749
v 0.300799883 6.25754451 0.909453583
v 0.454374095 5.86151652 0.740562259
v 0.454374095 5.86857045 0.767568747
v 0.470698913 6.2609707 0.635559418
v 0.454374095 6.18236973 0.873377751
v 0.470698913 6.13541068 0.850200541
v 0.393307184 6.0961102 1.06927556
v 0.300799883 6.11848124 1.08398805
v 0.470698913 5.92177727 0.800621465
v 0.393307184 5.79964344 0.759305568
v 0.300799883 5.76638918 0.755274749
v 0.454374095 6.04975578 1.03823826
v 0.470698913 6.00662601 1.0094179
v 0.393307184 5.93588513 1.24038384
v 0.300799883 5.95059762 1.26356105
v 0.454374095 5.8574857 0.792559826
v 0.393307184 5.78876023 0.783490483
v 0.300799883 5.75590905 0.778855041
v 0.300799883 5.54852341 0.983620657
v 0.393307184 5.54630646 1.0227196
v 0.300799883 5.50700597 0.932630794
v 0.454374095 5.90525091 1.19302171
v 0.393307184 5.75832755 1.40000428
v 0.300799883 5.76175374 1.43265392
v 0.454374095 5.54187256 1.10414215
v 0.393307184 5.46891473 0.928196893
v 0.300799883 5.69988067 0.783490483
v 0.470698913 5.53784174 1.17992155
v 0.454374095 5.39031375 0.918926008
v 0.470698913 5.87602747 1.14908579
v 0.393307184 5.66058018 0.779862746
v 0.470698913 5.31695284 0.910259747
v 0.454374095 5.58056842 0.771599566
v 0.470698913 5.32481294 1.15896129
v 0.470698913 5.74180119 1.27263039
v 0.393307184 5.68073428 0.744391537
v 0.300799883 5.7192286 0.74922852
v 0.454374095 5.75026591 1.33349576
v 0.470698913 5.59266088 1.36372691
v 0.454374095 5.57835147 1.43688628
v 0.454374095 5.60173022 0.734314489
v 0.393307184 5.66944798 0.704687968
v 0.300799883 5.70814385 0.710935737
v 0.300799883 5.50277361 0.451955603
v 0.454374095 5.5898393 0.69259551
v 0.393307184 5.49833971 0.488837599
v 0.393307184 5.56101895 1.51689804
v 0.300799883 5.55174806 1.55619852
v 0.300799883 5.47737945 1.57373259
v 0.393307184 5.48443338 1.53503672
v 0.300799883 5.41328942 1.53060282
v 0.454374095 5.49874279 1.45562959
v 0.393307184 5.41852949 1.49089925
v 0.470698913 5.51204449 1.3828733
v 0.454374095 5.4304204 1.41008133
v 0.470698913 5.4427144 1.33672042
v 0.393307184 5.24218115 1.22506673
v 0.300799883 5.22142243 1.24159309
v 0.454374095 5.28490783 1.19080476
v 0.393307184 5.20368682 1.17810768
v 0.300799883 5.1829281 1.1944325
v 0.470698913 5.28631862 1.11200225
v 0.454374095 5.24641351 1.14384572
v 0.393307184 5.01988147 0.944723251
v 0.300799883 4.98299947 0.940692432
v 0.300799883 4.96506233 0.881237849
v 0.470698913 5.16398325 0.956412627
v 0.454374095 5.09505625 0.951575644
v 0.393307184 5.0013397 0.883253258
v 0.300799883 4.98965032 0.824000216
v 0.454374095 5.07570831 0.88768716
v 0.393307184 5.02653232 0.824403298
v 0.470698913 5.14423224 0.891717979
v 0.454374095 5.10211018 0.826418708
v 0.393105643 5.21033768 0.631327058
v 0.300598342 5.19159437 0.610568339
v 0.470698913 5.17103719 0.829441822
v 0.454172554 5.24903354 0.674255283
v 0.393307184 5.42538188 0.477551305
v 0.300799883 5.43162965 0.440870851
v 0.300799883 5.46911627 0.432607671
v 0.470698913 5.28470629 0.714563475
v 0.454374095 5.41328942 0.553129165
v 0.393307184 5.4638762 0.469086585
v 0.470698913 5.50720751 0.763134846
v 0.470698913 5.40280929 0.623063879
v 0.454374095 5.45299299 0.544462904
v 0.470698913 5.52877239 0.725043605
v 0.470698913 5.44291594 0.614397617
v 0.454374095 5.4884642 0.564818541
v 0.470698913 5.51647839 0.682518462
v 0.470698913 5.47879023 0.634954795
v 0.0214641123 6.42522658 0.415879772
v 0.0214641123 6.43348976 0.401771904
v 0.0103793595 6.43228052 0.40499656
v 0.032750406 6.43207898 0.404795019
v -0.146016426 6.28475253 0.744391537
v 0.180076848 6.25714142 0.757894781
v 0.1867277 6.28515562 0.743383832
v -0.139567115 6.25673834 0.758902486
v -0.171209046 6.26399382 0.772002648
v 0.194789338 6.24484742 0.774018058
v 0.211517238 6.2643969 0.770994944
v 0.0184409979 6.15435553 0.901593486
v -0.154481146 6.2442428 0.775025763
v -0.206075632 6.24666129 0.792559826
v 0.215144975 6.23456884 0.786312057
v 0.246182283 6.24807208 0.792962908
v -0.175038324 6.23396421 0.78711822
v -0.436436949 6.17954815 0.894942634
v -0.421926 6.15455707 0.901391945
v 0.21192032 6.06084053 0.998131606
v -0.45336639 6.16624645 0.911267452
v -0.436840031 6.15294475 0.92759227
v -0.209300287 6.06870063 1.00961944
v 0.458606455 6.15415399 0.901795027
v 0.473722027 6.17934661 0.895547257
v 0.490248386 6.16584337 0.911670534
v 0.473318945 6.15254166 0.927995352
v 0.242957628 6.06910371 1.00901482
v -0.178262979 6.06023591 0.998736229
v -0.174836783 6.05156964 1.0305797
v 0.191161601 6.05096502 1.01062715
v 0.207889501 6.05237581 1.02997508
v -0.157907342 6.05015886 1.01143331
v -0.150047245 6.02899706 1.05597386
v 0.17624757 6.03786486 1.02574272
v 0.182898421 6.02960168 1.05536924
v -0.143194852 6.03705869 1.02634734
v -0.00030231144 5.75671522 1.22849292
v 0.0154178835 5.76538148 1.22224515
v 0.0311380784 5.7571183 1.22869446
v 0.0154178835 5.74159965 1.2313145
v -0.283668902 5.12911667 0.26653792
v -0.376176202 5.3334792 0.282862738
v -0.283668902 5.32239445 0.309264604
v -0.283668902 5.49995204 0.401167281
v -0.376176202 5.13274441 0.237717563
v -0.283668902 2.92828938 0.30019526
v -0.376176202 5.5174861 0.379602399
v -0.437243113 5.35645487 0.228446678
v -0.376176202 5.68113736 0.530758119
v -0.283668902 5.65634782 0.54365674
v -0.376176202 5.79299259 0.733306784
v -0.283668902 5.75993987 0.730082129
v -0.283668902 5.76638918 0.755274749
v -0.376176202 5.79964344 0.759305568
v -0.283668902 5.75590905 0.778855041
v -0.437243113 5.86151652 0.740562259
v -0.437243113 5.73273184 0.504356253
v -0.453567931 5.78110168 0.479969797
v -0.453567931 5.92600963 0.748019274
v -0.437243113 5.86857045 0.767568747
v -0.437243113 5.55376347 0.335061846
v -0.376176202 5.78876023 0.783490483
v -0.437243113 5.8574857 0.792559826
v -0.376176202 5.54630646 1.0227196
v -0.283668902 5.54852341 0.983620657
v -0.437243113 5.54187256 1.10414215
v -0.376176202 5.46891473 0.928196893
v -0.283668902 5.50700597 0.932630794
v -0.437243113 5.39031375 0.918926008
v -0.376176202 5.66058018 0.779862746
v -0.283668902 5.69988067 0.783490483
v -0.283668902 5.7192286 0.74922852
v -0.453567931 5.31695284 0.910259747
v -0.453567931 5.53784174 1.17992155
v -0.453567931 5.32481294 1.15896129
v -0.453567931 5.92177727 0.800621465
v -0.437243113 5.58056842 0.771599566
v -0.376176202 5.68073428 0.744391537
v -0.283668902 5.70814385 0.710935737
v -0.453567931 5.50720751 0.763134846
v -0.437243113 5.60173022 0.734314489
v -0.376176202 5.66944798 0.704687968
v -0.376176202 5.49833971 0.488837599
v -0.283668902 5.50277361 0.451955603
v -0.283668902 5.46911627 0.432607671
v -0.376176202 5.4638762 0.469086585
v -0.283668902 5.43162965 0.440870851
v -0.437243113 5.4884642 0.564818541
v -0.437243113 5.5898393 0.69259551
v -0.453567931 5.52877239 0.725043605
v -0.376176202 5.42538188 0.477551305
v -0.437243113 5.45299299 0.544462904
v -0.453567931 5.47879023 0.634954795
v -0.453567931 5.51647839 0.682518462
v -0.453567931 5.44291594 0.614397617
v -0.453567931 5.40280929 0.623063879
v -0.437243113 5.41328942 0.553129165
v -0.453567931 5.28470629 0.714563475
v -0.375974661 5.21033768 0.631327058
v -0.283467361 5.19159437 0.610568339
v -0.437041572 5.24903354 0.674255283
v -0.376176202 5.02653232 0.824403298
v -0.283668902 4.98965032 0.824000216
v -0.283668902 4.96506233 0.881237849
v -0.453567931 5.17103719 0.829441822
v -0.437243113 5.10211018 0.826418708
v -0.376176202 5.0013397 0.883253258
v -0.283668902 4.98299947 0.940692432
v -0.437243113 5.07570831 0.88768716
v -0.376176202 5.01988147 0.944723251
v -0.453567931 5.14423224 0.891717979
v -0.437243113 5.09505625 0.951575644
v -0.376176202 5.20368682 1.17810768
v -0.283668902 5.1829281 1.1944325
v -0.453567931 5.16398325 0.956412627
v -0.453567931 5.28631862 1.11200225
v -0.437243113 5.24641351 1.14384572
v -0.376176202 5.24218115 1.22506673
v -0.283668902 5.22142243 1.24159309
v -0.437243113 5.28490783 1.19080476
v -0.376176202 5.41852949 1.49089925
v -0.283668902 5.41328942 1.53060282
v -0.283668902 5.47737945 1.57373259
v -0.453567931 5.4427144 1.33672042
v -0.437243113 5.4304204 1.41008133
v -0.376176202 5.48443338 1.53503672
v -0.283668902 5.55174806 1.55619852
v -0.437243113 5.49874279 1.45562959
v -0.376176202 5.56101895 1.51689804
v -0.453567931 5.51204449 1.3828733
v -0.437243113 5.57835147 1.43688628
v -0.376176202 5.75832755 1.40000428
v -0.283668902 5.76175374 1.43265392
v -0.453567931 5.59266088 1.36372691
v -0.437243113 5.75026591 1.33349576
v -0.453567931 5.74180119 1.27263039
v -0.376176202 5.93588513 1.24038384
v -0.283668902 5.95059762 1.26356105
v -0.453567931 5.87602747 1.14908579
v -0.437243113 5.90525091 1.19302171
v -0.453567931 6.00662601 1.0094179
v -0.376176202 6.0961102 1.06927556
v -0.283668902 6.11848124 1.08398805
v -0.437243113 6.04975578 1.03823826
v -0.453567931 6.13541068 0.850200541
v -0.376176202 6.23315805 0.897965749
v -0.283668902 6.25754451 0.909453583
v -0.437243113 6.18236973 0.873377751
v -0.376176202 6.37302748 0.657124301
v -0.283668902 6.40144475 0.661961284
v -0.283668902 6.43409439 0.555144575
v -0.453567931 6.2609707 0.635559418
v -0.437243113 6.31478214 0.64644263
v -0.376176202 6.40587865 0.549098346
v -0.283668902 6.41736649 0.442483178
v -0.437243113 6.34783486 0.536401266
v -0.453567931 6.29402342 0.525114972
v -0.376176202 6.38874767 0.434219999
v -0.453567931 6.27588473 0.406810428
v -0.437243113 6.32989771 0.419104427
v -0.376176202 6.26278457 0.0984527591
v -0.283668902 6.28596178 0.088577252
v -0.453567931 6.1718896 0.139970197
v -0.437243113 6.21542244 0.119413019
v -0.376176202 6.06910371 -0.19317701
v -0.283668902 6.08280849 -0.21836963
v -0.453567931 6.01428457 -0.0920034484
v -0.437243113 6.04068643 -0.140776361
v -0.376176202 5.84579632 -0.401570363
v -0.283668902 5.85708262 -0.428375311
v -0.453567931 5.58782389 0.293544409
v -0.453567931 5.80085269 -0.293544409
v -0.437243113 5.82241757 -0.345743517
v -0.376176202 5.56001124 -0.575701753
v -0.283668902 5.5676698 -0.60452211
v -0.453567931 5.37781821 0.177859897
v -0.453567931 5.5297801 -0.460218783
v -0.453567931 5.14725535 0.123040756
v -0.437243113 5.14020142 0.178262979
v -0.437243113 5.54429105 -0.516045629
v -0.376176202 5.24943662 -0.691990887
v -0.283668902 5.2532659 -0.722423572
v -0.376176202 2.96416367 0.272382608
v -0.453567931 5.23432105 -0.570461688
v -0.437243113 5.24157652 -0.629110108
v -0.376176202 2.96436521 -1.17185991
v -0.283668902 2.94219571 -1.21337735
v -0.437243113 3.01031655 -1.08600346
v -0.453567931 3.05304324 -1.00579016
v -0.453567931 2.8865704 -0.139567115
v -0.376176202 2.76604891 -0.00010077048
v -0.283668902 2.73581777 0.0387966349
v -0.283668902 2.74549173 0.171007505
v -0.437243113 2.82852661 -0.0758801715
v -0.376176202 2.77531979 0.137954787
v -0.283668902 2.81603107 0.266739461
v -0.437243113 2.8363867 0.0714462704
v -0.376176202 2.84787454 0.237717563
v -0.453567931 2.89221355 0.0129993919
v -0.437243113 2.91135994 0.177859897
v -0.437243113 3.03309068 0.214741893
v -0.453567931 2.96698525 0.123040756
v -0.453567931 3.09052986 0.160930457
v 0.932630794 4.81249582 -1.06907402
v 0.932630794 4.3582225 -1.06907402
v 0.960040364 4.3582225 -0.96749738
v 0.857859097 4.81249582 -1.14384572
v 0.857859097 4.3582225 -1.14384572
v 0.960040364 4.81249582 -0.96749738
v 0.961652692 4.3582225 0.53317661
v 0.906228928 4.9098401 -1.06484166
v 0.756080912 4.81249582 -1.17085221
v 0.756080912 4.34975778 -1.17085221
v 0.961652692 4.81249582 0.53317661
v 0.934646203 4.3582225 0.634954795
v 0.853425196 4.9098401 -1.11724231
v -0.744593078 4.81249582 -1.16903834
v -0.744593078 4.34129305 -1.16903834
v 0.934646203 4.81249582 0.634954795
v 0.860076048 4.3582225 0.709726492
v 0.756080912 4.914274 -1.14364418
v -0.846169722 4.81249582 -1.14162877
v -0.846169722 4.34129305 -1.14162877
v -0.920941418 4.81249582 -1.06685707
v -0.920941418 4.34129305 -1.06685707
v -0.841937362 4.9098401 -1.1152269
v -0.744593078 4.914274 -1.14183031
v 0.756080912 4.98884416 -1.06887248
v -0.947947907 4.81249582 -0.965078888
v -0.947947907 4.34129305 -0.965078888
v -0.894338011 4.9098401 -1.06262471
v -0.841937362 4.96244229 -1.06262471
v -0.946134038 4.81249582 0.535393561
v -0.946134038 4.34129305 0.535393561
v -0.920739877 4.914274 -0.965078888
v -0.845968181 4.98884416 -0.965280429
v -0.744391537 4.98884416 -1.06705861
v 0.853626737 4.96244229 -1.06464012
v -0.744391537 5.01625373 -0.965280429
v 0.756282453 5.01625373 -0.967094298
v -0.918926008 4.914274 0.535393561
v -0.918724467 4.81249582 0.637171746
v -0.918724467 4.34129305 0.637171746
v 0.932630794 4.914274 -0.967295839
v 0.857859097 4.98884416 -0.967295839
v -0.892322602 4.9098401 0.632737845
v -0.843952771 4.81249582 0.711741901
v -0.843952771 4.34129305 0.711741901
v -0.844154312 4.98884416 0.535393561
v 0.934646203 4.914274 0.53317661
v 0.859874507 4.98884416 0.533378151
v 0.908244337 4.9098401 0.630520894
v -0.839720411 4.96244229 0.632737845
v -0.742577668 5.01625373 0.53519202
v 0.758096322 5.01625373 0.533378151
v 0.855642147 4.96244229 0.630722435
v 0.855642147 4.9098401 0.683324626
v -0.839720411 4.9098401 0.685340035
v -0.742376127 4.98884416 0.636970205
v 0.758297863 4.98884416 0.635156336
v 0.758297863 4.914274 0.709928033
v 0.860076048 4.81249582 0.709726492
v 0.758499404 4.34975778 0.737136062
v 0.758499404 4.81249582 0.737136062
v -0.742174586 4.34129305 0.738949931
v -0.742174586 4.914274 0.711741901
v -0.742174586 4.81249582 0.738949931
vt 0.977927015 0.0143775142
vt 0.977927015 0.0134253902
vt 0.959836659 0.0134253902
vt 0.959836659 0.0143775142
vt 0.977927015 0.0229466304
vt 0.959836659 0.0229466304
vt 0.977927015 0.0248508784
vt 0.959836659 0.0248508784
vt 0.977927015 0.0324678705
vt 0.959836659 0.0324678705
vt 0.977927015 0.0343721185
vt 0.959836659 0.0343721185
vt 0.977927015 0.0353242425
vt 0.959836659 0.0353242425
vt 0.977927015 0.0457976067
vt 0.959836659 0.0457976067
vt 0.977927015 0.0467497307
vt 0.959836659 0.0467497307
vt 0.977927015 0.0477018547
vt 0.959836659 0.0477018547
vt 0.977927015 0.0572230948
vt 0.959836659 0.0572230948
vt 0.977927015 0.065792211
vt 0.959836659 0.065792211
vt 0.977927015 0.067696459
vt 0.959836659 0.067696459
vt 0.977927015 0.069600707
vt 0.959836659 0.069600707
vt 0.977927015 0.0800740711
vt 0.959836659 0.0800740711
vt 0.977927015 0.0819783192
vt 0.959836659 0.0819783192
vt 0.977927015 0.0924516833
vt 0.959836659 0.0924516833
vt 0.977927015 0.0953080554
vt 0.959836659 0.0953080554
vt 0.977927015 0.0972123034
vt 0.959836659 0.0972123034
vt 0.977927015 0.104829295
vt 0.959836659 0.104829295
vt 0.959836659 0.112446288
vt 0.977927015 0.112446288
vt 0.977927015 0.121015404
vt 0.959836659 0.121015404
vt 0.959836659 0.127680272
vt 0.977927015 0.127680272
vt 0.977927015 0.136249388
vt 0.959836659 0.136249388
vt 0.977927015 0.140057884
vt 0.959836659 0.140057884
vt 0.977927015 0.142914256
vt 0.959836659 0.142914256
vt 0.977927015 0.155291868
vt 0.959836659 0.155291868
vt 0.977927015 0.166717356
vt 0.959836659 0.166717356
vt 0.959836659 0.176238596
vt 0.977927015 0.176238596
vt 0.977927015 0.186711961
vt 0.959836659 0.186711961
vt 0.959836659 0.197185325
vt 0.977927015 0.197185325
vt 0.959836659 0.270498874
vt 0.977927015 0.270498874
vt 0.977927015 0.309535958
vt 0.959836659 0.309535958
vt 0.977927015 0.313344454
vt 0.959836659 0.313344454
vt 0.977927015 0.31715295
vt 0.959836659 0.31715295
vt 0.977927015 0.320961446
vt 0.959836659 0.320961446
vt 0.959836659 0.389514375
vt 0.977927015 0.389514375
vt 0.959836659 0.395227119
vt 0.977927015 0.395227119
vt 0.977927015 0.401891988
vt 0.959836659 0.401891988
vt 0.959836659 0.408556856
vt 0.977927015 0.408556856
vt 0.959836659 0.415221724
vt 0.977927015 0.415221724
vt 0.977927015 0.415221724
vt 0.959836659 0.415221724
vt 0.818922305 0.373328267
vt 0.817970181 0.372376143
vt 0.817970181 0.373328267
vt 0.818922305 0.372376143
vt 0.829395669 0.373328267
vt 0.818922305 0.367615523
vt 0.817970181 0.367615523
vt 0.817970181 0.367615523
vt 0.818922305 0.367615523
vt 0.829395669 0.372376143
vt 0.831299917 0.373328267
vt 0.829395669 0.367615523
vt 0.829395669 0.367615523
vt 0.831299917 0.367615523
vt 0.831299917 0.367615523
vt 0.831299917 0.372376143
vt 0.832252041 0.373328267
vt 0.832252041 0.367615523
vt 0.832252041 0.367615523
vt 0.832252041 0.372376143
vt 0.840821158 0.373328267
vt 0.840821158 0.372376143
vt 0.841773282 0.373328267
vt 0.840821158 0.367615523
vt 0.840821158 0.367615523
vt 0.841773282 0.367615523
vt 0.841773282 0.367615523
vt 0.841773282 0.372376143
vt 0.841773282 0.373328267
vt 0.841773282 0.367615523
vt 0.841773282 0.367615523
vt 0.841773282 0.372376143
vt 0.850342398 0.373328267
vt 0.850342398 0.372376143
vt 0.851294522 0.373328267
vt 0.850342398 0.367615523
vt 0.850342398 0.367615523
vt 0.851294522 0.367615523
vt 0.851294522 0.367615523
vt 0.851294522 0.372376143
vt 0.85319877 0.373328267
vt 0.85319877 0.367615523
vt 0.85319877 0.367615523
vt 0.85319877 0.372376143
vt 0.864624258 0.373328267
vt 0.864624258 0.372376143
vt 0.865576382 0.373328267
vt 0.864624258 0.367615523
vt 0.864624258 0.367615523
vt 0.865576382 0.367615523
vt 0.865576382 0.367615523
vt 0.865576382 0.372376143
vt 0.865576382 0.373328267
vt 0.865576382 0.367615523
vt 0.865576382 0.367615523
vt 0.865576382 0.372376143
vt 0.877953994 0.373328267
vt 0.877953994 0.372376143
vt 0.879858242 0.373328267
vt 0.877953994 0.367615523
vt 0.877953994 0.367615523
vt 0.879858242 0.367615523
vt 0.879858242 0.367615523
vt 0.879858242 0.372376143
vt 0.880810366 0.373328267
vt 0.880810366 0.367615523
vt 0.880810366 0.367615523
vt 0.880810366 0.372376143
vt 0.888427358 0.373328267
vt 0.888427358 0.372376143
vt 0.889379482 0.373328267
vt 0.888427358 0.367615523
vt 0.888427358 0.367615523
vt 0.889379482 0.367615523
vt 0.889379482 0.367615523
vt 0.889379482 0.372376143
vt 0.890331606 0.373328267
vt 0.890331606 0.367615523
vt 0.890331606 0.367615523
vt 0.890331606 0.372376143
vt 0.898900722 0.373328267
vt 0.898900722 0.372376143
vt 0.899852846 0.373328267
vt 0.898900722 0.367615523
vt 0.898900722 0.367615523
vt 0.899852846 0.367615523
vt 0.899852846 0.367615523
vt 0.899852846 0.372376143
vt 0.90080497 0.373328267
vt 0.90080497 0.367615523
vt 0.90080497 0.367615523
vt 0.90080497 0.372376143
vt 0.912230459 0.373328267
vt 0.912230459 0.372376143
vt 0.913182583 0.373328267
vt 0.913182583 0.372376143
vt 0.913182583 0.367615523
vt 0.912230459 0.367615523
vt 0.912230459 0.367615523
vt 0.913182583 0.367615523
vt 0.952219667 0.0134253902
vt 0.956980287 0.0162817623
vt 0.956980287 0.0134253902
vt 0.952219667 0.0162817623
vt 0.956980287 0.0191381343
vt 0.946506923 0.0134253902
vt 0.952219667 0.0191381343
vt 0.956980287 0.0248508784
vt 0.946506923 0.0162817623
vt 0.952219667 0.0248508784
vt 0.956980287 0.0277072504
vt 0.89128373 0.0162817623
vt 0.89128373 0.0134253902
vt 0.885570986 0.0134253902
vt 0.946506923 0.0191381343
vt 0.952219667 0.0277072504
vt 0.956980287 0.0315157465
vt 0.885570986 0.0162817623
vt 0.879858242 0.0134253902
vt 0.89128373 0.0191381343
vt 0.946506923 0.0248508784
vt 0.952219667 0.0315157465
vt 0.956980287 0.0429412346
vt 0.89128373 0.0248508784
vt 0.885570986 0.0191381343
vt 0.879858242 0.0162817623
vt 0.946506923 0.0277072504
vt 0.89128373 0.0277072504
vt 0.885570986 0.0248508784
vt 0.824635049 0.0162817623
vt 0.824635049 0.0134253902
vt 0.819874429 0.0134253902
vt 0.879858242 0.0191381343
vt 0.819874429 0.0162817623
vt 0.814161685 0.0134253902
vt 0.824635049 0.0191381343
vt 0.89128373 0.0315157465
vt 0.885570986 0.0277072504
vt 0.879858242 0.0248508784
vt 0.824635049 0.0248508784
vt 0.819874429 0.0191381343
vt 0.814161685 0.0162817623
vt 0.946506923 0.0315157465
vt 0.758938492 0.0162817623
vt 0.758938492 0.0134253902
vt 0.753225748 0.0134253902
vt 0.753225748 0.0162817623
vt 0.747513004 0.0134253902
vt 0.758938492 0.0191381343
vt 0.814161685 0.0191381343
vt 0.952219667 0.0429412346
vt 0.819874429 0.0248508784
vt 0.952219667 0.0457976067
vt 0.956980287 0.0457976067
vt 0.956980287 0.353333663
vt 0.824635049 0.0277072504
vt 0.879858242 0.0277072504
vt 0.885570986 0.0315157465
vt 0.89128373 0.0429412346
vt 0.946506923 0.0429412346
vt 0.946506923 0.0457976067
vt 0.952219667 0.353333663
vt 0.89128373 0.0457976067
vt 0.952219667 0.358094283
vt 0.956980287 0.358094283
vt 0.946506923 0.353333663
vt 0.952219667 0.361902779
vt 0.956980287 0.361902779
vt 0.946506923 0.361902779
vt 0.946506923 0.358094283
vt 0.89128373 0.361902779
vt 0.89128373 0.358094283
vt 0.885570986 0.361902779
vt 0.89128373 0.353333663
vt 0.885570986 0.358094283
vt 0.879858242 0.361902779
vt 0.885570986 0.0457976067
vt 0.879858242 0.358094283
vt 0.824635049 0.361902779
vt 0.885570986 0.353333663
vt 0.885570986 0.0429412346
vt 0.824635049 0.358094283
vt 0.819874429 0.361902779
vt 0.879858242 0.353333663
vt 0.879858242 0.0457976067
vt 0.879858242 0.0315157465
vt 0.819874429 0.358094283
vt 0.814161685 0.361902779
vt 0.879858242 0.0429412346
vt 0.824635049 0.353333663
vt 0.824635049 0.0457976067
vt 0.824635049 0.0315157465
vt 0.824635049 0.0429412346
vt 0.814161685 0.358094283
vt 0.758938492 0.361902779
vt 0.819874429 0.353333663
vt 0.819874429 0.0457976067
vt 0.819874429 0.0277072504
vt 0.758938492 0.358094283
vt 0.753225748 0.361902779
vt 0.819874429 0.0315157465
vt 0.819874429 0.0429412346
vt 0.814161685 0.353333663
vt 0.814161685 0.0457976067
vt 0.814161685 0.0248508784
vt 0.753225748 0.358094283
vt 0.747513004 0.361902779
vt 0.814161685 0.0277072504
vt 0.814161685 0.0315157465
vt 0.814161685 0.0429412346
vt 0.758938492 0.353333663
vt 0.758938492 0.0457976067
vt 0.758938492 0.0248508784
vt 0.758938492 0.0277072504
vt 0.758938492 0.0315157465
vt 0.758938492 0.0429412346
vt 0.753225748 0.0457976067
vt 0.753225748 0.0191381343
vt 0.753225748 0.0248508784
vt 0.753225748 0.0277072504
vt 0.753225748 0.0315157465
vt 0.747513004 0.0162817623
vt 0.747513004 0.0191381343
vt 0.693241936 0.0162817623
vt 0.693241936 0.0134253902
vt 0.693241936 0.0191381343
vt 0.693241936 0.0248508784
vt 0.747513004 0.0248508784
vt 0.693241936 0.0277072504
vt 0.747513004 0.0277072504
vt 0.693241936 0.0315157465
vt 0.747513004 0.0315157465
vt 0.693241936 0.0429412346
vt 0.753225748 0.0429412346
vt 0.747513004 0.0429412346
vt 0.693241936 0.0457976067
vt 0.747513004 0.0457976067
vt 0.753225748 0.353333663
vt 0.747513004 0.353333663
vt 0.693241936 0.353333663
vt 0.693241936 0.358094283
vt 0.747513004 0.358094283
vt 0.693241936 0.361902779
vt 0.984591883 0.454258808
vt 0.978879139 0.451402436
vt 0.952219667 0.486631025
vt 0.987448256 0.459971552
vt 0.925560195 0.451402436
vt 0.987448256 0.513290497
vt 0.919847451 0.454258808
vt 0.984591883 0.519003241
vt 0.916991079 0.459971552
vt 0.978879139 0.521859613
vt 0.916991079 0.513290497
vt 0.925560195 0.521859613
vt 0.919847451 0.519003241
vt 0.705619548 0.435216328
vt 0.706571672 0.436168452
vt 0.706571672 0.435216328
vt 0.70847592 0.435216328
vt 0.705619548 0.436168452
vt 0.69419406 0.432359956
vt 0.706571672 0.443785444
vt 0.69419406 0.431407832
vt 0.69419406 0.431407832
vt 0.693241936 0.432359956
vt 0.698002556 0.44283332
vt 0.70847592 0.436168452
vt 0.716092912 0.43331208
vt 0.716092912 0.43331208
vt 0.69895468 0.44283332
vt 0.69895468 0.444737568
vt 0.69895468 0.444737568
vt 0.698002556 0.445689692
vt 0.716092912 0.43331208
vt 0.717045036 0.43331208
vt 0.716092912 0.434264204
vt 0.717045036 0.434264204
vt 0.69895468 0.445689692
vt 0.714188664 0.441881196
vt 0.697050432 0.453306684
vt 0.696098308 0.453306684
vt 0.715140788 0.441881196
vt 0.696098308 0.454258808
vt 0.714188664 0.44283332
vt 0.715140788 0.44283332
vt 0.715140788 0.443785444
vt 0.697050432 0.453306684
vt 0.697050432 0.454258808
vt 0.698002556 0.453306684
vt 0.704667424 0.45235456
vt 0.714188664 0.444737568
vt 0.704667424 0.451402436
vt 0.706571672 0.450450312
vt 0.706571672 0.451402436
vt 0.707523796 0.451402436
vt 0.707523796 0.451402436
vt 0.71799716 0.455210932
vt 0.71799716 0.454258808
vt 0.718949284 0.454258808
vt 0.718949284 0.455210932
vt 0.726566276 0.465684296
vt 0.730374772 0.459019428
vt 0.7275184 0.459019428
vt 0.726566276 0.453306684
vt 0.729422648 0.46663642
vt 0.724662028 0.47139704
vt 0.729422648 0.45235456
vt 0.733231144 0.459019428
vt 0.7275184 0.445689692
vt 0.724662028 0.44759394
vt 0.696098308 0.384753755
vt 0.693241936 0.384753755
vt 0.693241936 0.379993135
vt 0.696098308 0.380945259
vt 0.695146184 0.375232515
vt 0.69895468 0.385705879
vt 0.730374772 0.444737568
vt 0.698002556 0.377136763
vt 0.69895468 0.372376143
vt 0.69895468 0.381897383
vt 0.73227902 0.45235456
vt 0.73227902 0.444737568
vt 0.701811052 0.386658003
vt 0.700858928 0.382849507
vt 0.700858928 0.378088887
vt 0.700858928 0.374280391
vt 0.702763176 0.379041011
vt 0.704667424 0.376184639
vt 0.737991764 0.364759151
vt 0.739896012 0.362854903
vt 0.707523796 0.377136763
vt 0.735135392 0.368567647
vt 0.757034244 0.435216328
vt 0.759890616 0.434264204
vt 0.734183268 0.370471895
vt 0.752273624 0.436168452
vt 0.754177872 0.436168452
vt 0.757986368 0.444737568
vt 0.761794864 0.443785444
vt 0.734183268 0.451402436
vt 0.754177872 0.445689692
vt 0.75608212 0.444737568
vt 0.757986368 0.454258808
vt 0.761794864 0.454258808
vt 0.734183268 0.459971552
vt 0.754177872 0.455210932
vt 0.733231144 0.468540668
vt 0.75608212 0.455210932
vt 0.731326896 0.467588544
vt 0.757034244 0.463780048
vt 0.759890616 0.463780048
vt 0.752273624 0.463780048
vt 0.754177872 0.463780048
vt 0.726566276 0.473301289
vt 0.753225748 0.473301289
vt 0.75608212 0.475205537
vt 0.749417252 0.47139704
vt 0.7513215 0.472349165
vt 0.747513004 0.482822529
vt 0.749417252 0.484726777
vt 0.747513004 0.487583149
vt 0.745608756 0.479014033
vt 0.729422648 0.477109785
vt 0.745608756 0.479966157
vt 0.745608756 0.484726777
vt 0.743704508 0.489487397
vt 0.743704508 0.482822529
vt 0.742752384 0.486631025
vt 0.742752384 0.481870405
vt 0.740848136 0.484726777
vt 0.734183268 0.488535273
vt 0.735135392 0.491391645
vt 0.728470524 0.476157661
vt 0.7275184 0.477109785
vt 0.739896012 0.482822529
vt 0.733231144 0.486631025
vt 0.73227902 0.484726777
vt 0.728470524 0.490439521
vt 0.728470524 0.493295893
vt 0.728470524 0.479014033
vt 0.725614152 0.474253413
vt 0.723709904 0.472349165
vt 0.7275184 0.487583149
vt 0.726566276 0.485678901
vt 0.720853532 0.491391645
vt 0.721805656 0.494248017
vt 0.7275184 0.477109785
vt 0.725614152 0.475205537
vt 0.723709904 0.472349165
vt 0.715140788 0.474253413
vt 0.714188664 0.477109785
vt 0.715140788 0.473301289
vt 0.720853532 0.488535273
vt 0.714188664 0.493295893
vt 0.714188664 0.496152265
vt 0.712284416 0.479966157
vt 0.712284416 0.473301289
vt 0.719901408 0.46663642
vt 0.711332292 0.481870405
vt 0.70847592 0.473301289
vt 0.720853532 0.487583149
vt 0.716092912 0.46663642
vt 0.706571672 0.472349165
vt 0.71323654 0.46663642
vt 0.704667424 0.479966157
vt 0.716092912 0.488535273
vt 0.717045036 0.464732172
vt 0.719901408 0.464732172
vt 0.715140788 0.490439521
vt 0.710380168 0.488535273
vt 0.709428044 0.490439521
vt 0.714188664 0.465684296
vt 0.716092912 0.463780048
vt 0.718949284 0.462827924
vt 0.711332292 0.455210932
vt 0.71323654 0.464732172
vt 0.710380168 0.458067304
vt 0.707523796 0.493295893
vt 0.706571672 0.496152265
vt 0.7037153 0.495200141
vt 0.705619548 0.492343769
vt 0.701811052 0.493295893
vt 0.706571672 0.490439521
vt 0.7037153 0.490439521
vt 0.70847592 0.487583149
vt 0.705619548 0.488535273
vt 0.706571672 0.485678901
vt 0.700858928 0.481870405
vt 0.698002556 0.482822529
vt 0.702763176 0.480918281
vt 0.699906804 0.479966157
vt 0.697050432 0.481870405
vt 0.7037153 0.478061909
vt 0.701811052 0.479014033
vt 0.696098308 0.472349165
vt 0.693241936 0.472349165
vt 0.693241936 0.469492792
vt 0.700858928 0.473301289
vt 0.69895468 0.472349165
vt 0.696098308 0.470444916
vt 0.693241936 0.467588544
vt 0.69895468 0.470444916
vt 0.696098308 0.468540668
vt 0.700858928 0.47139704
vt 0.69895468 0.469492792
vt 0.701811052 0.462827924
vt 0.699906804 0.459971552
vt 0.701811052 0.469492792
vt 0.7037153 0.464732172
vt 0.70847592 0.458067304
vt 0.70847592 0.455210932
vt 0.709428044 0.455210932
vt 0.704667424 0.465684296
vt 0.707523796 0.460923676
vt 0.709428044 0.458067304
vt 0.711332292 0.467588544
vt 0.707523796 0.462827924
vt 0.709428044 0.460923676
vt 0.711332292 0.465684296
vt 0.70847592 0.462827924
vt 0.710380168 0.460923676
vt 0.711332292 0.464732172
vt 0.710380168 0.463780048
vt 0.758938492 0.403796236
vt 0.758938492 0.403796236
vt 0.758938492 0.403796236
vt 0.758938492 0.403796236
vt 0.761794864 0.416173848
vt 0.770363981 0.410461104
vt 0.770363981 0.40950898
vt 0.762746988 0.416173848
vt 0.761794864 0.417125972
vt 0.771316105 0.410461104
vt 0.771316105 0.40950898
vt 0.770363981 0.417125972
vt 0.762746988 0.417125972
vt 0.761794864 0.418078096
vt 0.772268229 0.410461104
vt 0.772268229 0.40950898
vt 0.762746988 0.418078096
vt 0.758938492 0.425695088
vt 0.759890616 0.425695088
vt 0.777028849 0.417125972
vt 0.758938492 0.426647212
vt 0.759890616 0.426647212
vt 0.767507609 0.425695088
vt 0.780837345 0.408556856
vt 0.780837345 0.407604732
vt 0.781789469 0.408556856
vt 0.781789469 0.40950898
vt 0.777980973 0.416173848
vt 0.767507609 0.424742964
vt 0.768459733 0.425695088
vt 0.777028849 0.418078096
vt 0.777980973 0.418078096
vt 0.768459733 0.424742964
vt 0.769411857 0.425695088
vt 0.777028849 0.418078096
vt 0.777980973 0.41903022
vt 0.769411857 0.424742964
vt 0.779885221 0.430455708
vt 0.779885221 0.429503584
vt 0.780837345 0.429503584
vt 0.780837345 0.430455708
vt 0.788454337 0.40950898
vt 0.792262833 0.402844112
vt 0.789406461 0.402844112
vt 0.788454337 0.397131367
vt 0.791310709 0.40950898
vt 0.771316105 0.477109785
vt 0.791310709 0.396179243
vt 0.795119205 0.402844112
vt 0.788454337 0.389514375
vt 0.785597965 0.391418623
vt 0.783693717 0.382849507
vt 0.782741593 0.385705879
vt 0.781789469 0.385705879
vt 0.783693717 0.382849507
vt 0.781789469 0.384753755
vt 0.785597965 0.380945259
vt 0.790358585 0.387610127
vt 0.792262833 0.386658003
vt 0.786550089 0.379041011
vt 0.784645841 0.379993135
vt 0.793214957 0.395227119
vt 0.782741593 0.381897383
vt 0.783693717 0.379041011
vt 0.771316105 0.382849507
vt 0.773220353 0.384753755
vt 0.769411857 0.379993135
vt 0.770363981 0.386658003
vt 0.773220353 0.386658003
vt 0.766555485 0.387610127
vt 0.776076725 0.392370747
vt 0.778933097 0.392370747
vt 0.779885221 0.393322871
vt 0.764651236 0.389514375
vt 0.767507609 0.378088887
vt 0.761794864 0.381897383
vt 0.784645841 0.378088887
vt 0.773220353 0.392370747
vt 0.776076725 0.393322871
vt 0.778933097 0.395227119
vt 0.770363981 0.393322871
vt 0.773220353 0.394274995
vt 0.776076725 0.395227119
vt 0.772268229 0.401891988
vt 0.773220353 0.40474836
vt 0.772268229 0.405700484
vt 0.771316105 0.402844112
vt 0.770363981 0.405700484
vt 0.771316105 0.399035615
vt 0.773220353 0.395227119
vt 0.771316105 0.394274995
vt 0.770363981 0.402844112
vt 0.770363981 0.39998774
vt 0.770363981 0.397131367
vt 0.771316105 0.395227119
vt 0.769411857 0.398083491
vt 0.768459733 0.398083491
vt 0.769411857 0.39998774
vt 0.764651236 0.395227119
vt 0.762746988 0.39998774
vt 0.76084274 0.402844112
vt 0.763699112 0.397131367
vt 0.75608212 0.395227119
vt 0.753225748 0.397131367
vt 0.752273624 0.394274995
vt 0.76084274 0.393322871
vt 0.758938492 0.394274995
vt 0.755129996 0.393322871
vt 0.7513215 0.392370747
vt 0.757986368 0.392370747
vt 0.755129996 0.391418623
vt 0.759890616 0.391418623
vt 0.757986368 0.390466499
vt 0.757034244 0.382849507
vt 0.753225748 0.382849507
vt 0.759890616 0.389514375
vt 0.76084274 0.383801631
vt 0.758938492 0.383801631
vt 0.757034244 0.380945259
vt 0.754177872 0.380945259
vt 0.759890616 0.381897383
vt 0.757986368 0.371424019
vt 0.75608212 0.369519771
vt 0.757034244 0.367615523
vt 0.761794864 0.375232515
vt 0.76084274 0.374280391
vt 0.758938492 0.369519771
vt 0.758938492 0.365711275
vt 0.761794864 0.371424019
vt 0.76084274 0.368567647
vt 0.762746988 0.373328267
vt 0.763699112 0.370471895
vt 0.767507609 0.367615523
vt 0.766555485 0.364759151
vt 0.765603361 0.372376143
vt 0.769411857 0.369519771
vt 0.770363981 0.371424019
vt 0.775124601 0.366663399
vt 0.775124601 0.363807027
vt 0.776076725 0.371424019
vt 0.775124601 0.369519771
vt 0.781789469 0.371424019
vt 0.781789469 0.366663399
vt 0.781789469 0.363807027
vt 0.781789469 0.369519771
vt 0.787502213 0.371424019
vt 0.788454337 0.366663399
vt 0.788454337 0.363807027
vt 0.788454337 0.369519771
vt 0.797023453 0.366663399
vt 0.797975577 0.363807027
vt 0.800831949 0.364759151
vt 0.795119205 0.371424019
vt 0.796071329 0.369519771
vt 0.799879825 0.367615523
vt 0.804640445 0.367615523
vt 0.798927701 0.370471895
vt 0.797975577 0.372376143
vt 0.802736197 0.369519771
vt 0.800831949 0.374280391
vt 0.801784073 0.372376143
vt 0.810353189 0.377136763
vt 0.812257437 0.375232515
vt 0.807496817 0.379993135
vt 0.808448941 0.379041011
vt 0.816065933 0.385705879
vt 0.818922305 0.384753755
vt 0.811305313 0.386658003
vt 0.813209561 0.386658003
vt 0.819874429 0.394274995
vt 0.822730801 0.394274995
vt 0.795119205 0.395227119
vt 0.815113809 0.395227119
vt 0.817018057 0.395227119
vt 0.821778677 0.40474836
vt 0.824635049 0.403796236
vt 0.796071329 0.402844112
vt 0.817018057 0.40474836
vt 0.796071329 0.410461104
vt 0.794167081 0.410461104
vt 0.818922305 0.40474836
vt 0.822730801 0.4142696
vt 0.825587173 0.4142696
vt 0.774172477 0.476157661
vt 0.817970181 0.413317476
vt 0.819874429 0.4142696
vt 0.818922305 0.486631025
vt 0.821778677 0.488535273
vt 0.816065933 0.483774653
vt 0.814161685 0.481870405
vt 0.786550089 0.481870405
vt 0.781789469 0.485678901
vt 0.779885221 0.488535273
vt 0.775124601 0.485678901
vt 0.784645841 0.482822529
vt 0.777980973 0.483774653
vt 0.772268229 0.481870405
vt 0.779885221 0.481870405
vt 0.775124601 0.480918281
vt 0.782741593 0.480918281
vt 0.777980973 0.479014033
vt 0.777028849 0.475205537
vt 0.779885221 0.477109785
vt 0.779885221 0.473301289
vt 0.896996474 0.395227119
vt 0.90556559 0.385705879
vt 0.901757094 0.381897383
vt 0.899852846 0.398083491
vt 0.909374086 0.389514375
vt 0.894140102 0.393322871
vt 0.844629654 0.381897383
vt 0.89604435 0.397131367
vt 0.901757094 0.400939864
vt 0.913182583 0.394274995
vt 0.850342398 0.392370747
vt 0.839869034 0.385705879
vt 0.897948598 0.399035615
vt 0.901757094 0.444737568
vt 0.911278334 0.451402436
vt 0.847486026 0.394274995
vt 0.836060537 0.389514375
vt 0.898900722 0.400939864
vt 0.899852846 0.44759394
vt 0.908421962 0.455210932
vt 0.896996474 0.450450312
vt 0.904613466 0.459019428
vt 0.896996474 0.446641816
vt 0.898900722 0.443785444
vt 0.89604435 0.401891988
vt 0.894140102 0.451402436
vt 0.899852846 0.4618758
vt 0.89604435 0.44759394
vt 0.895092226 0.445689692
vt 0.850342398 0.450450312
vt 0.842725406 0.462827924
vt 0.893187978 0.449498188
vt 0.893187978 0.446641816
vt 0.89604435 0.443785444
vt 0.89604435 0.399035615
vt 0.893187978 0.443785444
vt 0.893187978 0.401891988
vt 0.850342398 0.44759394
vt 0.846533902 0.448546064
vt 0.83891691 0.459019428
vt 0.894140102 0.396179243
vt 0.893187978 0.399035615
vt 0.84843815 0.446641816
vt 0.844629654 0.446641816
vt 0.835108413 0.454258808
vt 0.851294522 0.444737568
vt 0.851294522 0.395227119
vt 0.851294522 0.398083491
vt 0.84843815 0.396179243
vt 0.84843815 0.444737568
vt 0.851294522 0.44283332
vt 0.851294522 0.400939864
vt 0.849390274 0.398083491
vt 0.847486026 0.398083491
vt 0.846533902 0.445689692
vt 0.84843815 0.44283332
vt 0.84843815 0.400939864
vt 0.846533902 0.39998774
vt 0.845581778 0.397131367
vt 0.831299917 0.393322871
vt 0.84367753 0.39998774
vt 0.832252041 0.450450312
vt 0.845581778 0.44283332
vt 0.842725406 0.443785444
g matou3matuo3_mobile_0
f 3/3/3 2/2/2 1/1/1
f 4/4/4 3/3/3 1/1/1
f 1/1/1 5/5/5 4/4/4
f 5/5/5 6/6/6 4/4/4
f 5/5/5 7/7/7 6/6/6
f 7/7/7 8/8/8 6/6/6
f 7/7/7 9/9/9 8/8/8
f 9/9/9 10/10/10 8/8/8
f 10/10/10 9/9/9 11/11/11
f 12/12/12 10/10/10 11/11/11
f 12/12/12 11/11/11 13/13/13
f 14/14/14 12/12/12 13/13/13
f 13/13/13 15/15/15 14/14/14
f 15/15/15 16/16/16 14/14/14
f 15/15/15 17/17/17 16/16/16
f 17/17/17 18/18/18 16/16/16
f 17/17/17 19/19/19 18/18/18
f 19/19/19 20/20/20 18/18/18
f 20/20/20 19/19/19 21/21/21
f 22/22/22 20/20/20 21/21/21
f 21/21/21 23/23/23 22/22/22
f 23/23/23 24/24/24 22/22/22
f 23/23/23 25/25/25 24/24/24
f 25/25/25 26/26/26 24/24/24
f 25/25/25 27/27/27 26/26/26
f 27/27/27 28/28/28 26/26/26
f 28/28/28 27/27/27 29/29/29
f 30/30/30 28/28/28 29/29/29
f 30/30/30 29/29/29 31/31/31
f 32/32/32 30/30/30 31/31/31
f 31/31/31 33/33/33 32/32/32
f 33/33/33 34/34/34 32/32/32
f 33/33/33 35/35/35 34/34/34
f 35/35/35 36/36/36 34/34/34
f 35/35/35 37/37/37 36/36/36
f 37/37/37 38/38/38 36/36/36
f 38/38/38 37/37/37 39/39/39
f 40/40/40 38/38/38 39/39/39
f 41/41/41 40/40/40 39/39/39
f 42/42/42 41/41/41 39/39/39
f 41/41/41 42/42/42 43/43/43
f 44/44/44 41/41/41 43/43/43
f 45/45/45 44/44/44 43/43/43
f 46/46/46 45/45/45 43/43/43
f 45/45/45 46/46/46 47/47/47
f 48/48/48 45/45/45 47/47/47
f 47/47/47 49/49/49 48/48/48
f 49/49/49 50/50/50 48/48/48
f 49/49/49 51/51/51 50/50/50
f 51/51/51 52/52/52 50/50/50
f 52/52/52 51/51/51 53/53/53
f 54/54/54 52/52/52 53/53/53
f 54/54/54 53/53/53 55/55/55
f 56/56/56 54/54/54 55/55/55
f 56/56/56 55/55/55 57/57/57
f 55/55/55 58/58/58 57/57/57
f 57/57/57 58/58/58 59/59/59
f 60/60/60 57/57/57 59/59/59
f 60/60/60 59/59/59 61/61/61
f 59/59/59 62/62/62 61/61/61
f 61/61/61 62/62/62 63/63/63
f 62/62/62 64/64/64 63/63/63
f 64/64/64 65/65/65 63/63/63
f 65/65/65 66/66/66 63/63/63
f 66/66/66 65/65/65 67/67/67
f 68/68/68 66/66/66 67/67/67
f 68/68/68 67/67/67 69/69/69
f 70/70/70 68/68/68 69/69/69
f 70/70/70 69/69/69 71/71/71
f 72/72/72 70/70/70 71/71/71
f 73/73/73 72/72/72 71/71/71
f 74/74/74 73/73/73 71/71/71
f 73/73/73 74/74/74 75/75/75
f 74/74/74 76/76/76 75/75/75
f 75/75/75 76/76/76 77/77/77
f 78/78/78 75/75/75 77/77/77
f 79/79/79 78/78/78 77/77/77
f 80/80/80 79/79/79 77/77/77
f 79/79/79 80/80/80 81/81/81
f 80/80/80 82/82/82 81/81/81
f 81/81/81 82/82/82 83/83/83
f 84/84/84 81/81/81 83/83/83
f 87/87/87 86/86/86 85/85/85
f 86/86/86 88/88/88 85/85/85
f 89/89/89 85/85/85 88/88/88
f 88/88/88 86/86/86 90/90/90
f 86/86/86 91/91/91 90/90/90
f 90/90/90 91/91/91 92/92/92
f 93/93/93 90/90/90 92/92/92
f 94/94/94 89/89/89 88/88/88
f 94/94/94 88/88/88 90/90/90
f 95/95/95 89/89/89 94/94/94
f 96/96/96 90/90/90 93/93/93
f 96/96/96 94/94/94 90/90/90
f 97/97/97 96/96/96 93/93/93
f 96/96/96 97/97/97 98/98/98
f 94/94/94 96/96/96 98/98/98
f 97/97/97 99/99/99 98/98/98
f 100/100/100 95/95/95 94/94/94
f 100/100/100 94/94/94 98/98/98
f 101/101/101 95/95/95 100/100/100
f 98/98/98 99/99/99 102/102/102
f 100/100/100 98/98/98 102/102/102
f 99/99/99 103/103/103 102/102/102
f 104/104/104 101/101/101 100/100/100
f 104/104/104 100/100/100 102/102/102
f 105/105/105 101/101/101 104/104/104
f 106/106/106 105/105/105 104/104/104
f 106/106/106 104/104/104 102/102/102
f 105/105/105 106/106/106 107/107/107
f 108/108/108 102/102/102 103/103/103
f 108/108/108 106/106/106 102/102/102
f 109/109/109 108/108/108 103/103/103
f 110/110/110 108/108/108 109/109/109
f 108/108/108 110/110/110 106/106/106
f 111/111/111 110/110/110 109/109/109
f 106/106/106 112/112/112 107/107/107
f 110/110/110 112/112/112 106/106/106
f 107/107/107 112/112/112 113/113/113
f 114/114/114 110/110/110 111/111/111
f 110/110/110 114/114/114 112/112/112
f 115/115/115 114/114/114 111/111/111
f 112/112/112 116/116/116 113/113/113
f 114/114/114 116/116/116 112/112/112
f 113/113/113 116/116/116 117/117/117
f 116/116/116 118/118/118 117/117/117
f 118/118/118 116/116/116 114/114/114
f 119/119/119 117/117/117 118/118/118
f 120/120/120 114/114/114 115/115/115
f 120/120/120 118/118/118 114/114/114
f 121/121/121 120/120/120 115/115/115
f 120/120/120 121/121/121 122/122/122
f 118/118/118 120/120/120 122/122/122
f 121/121/121 123/123/123 122/122/122
f 124/124/124 119/119/119 118/118/118
f 124/124/124 118/118/118 122/122/122
f 125/125/125 119/119/119 124/124/124
f 122/122/122 123/123/123 126/126/126
f 124/124/124 122/122/122 126/126/126
f 123/123/123 127/127/127 126/126/126
f 128/128/128 125/125/125 124/124/124
f 128/128/128 124/124/124 126/126/126
f 125/125/125 128/128/128 129/129/129
f 128/128/128 130/130/130 129/129/129
f 130/130/130 128/128/128 126/126/126
f 129/129/129 130/130/130 131/131/131
f 132/132/132 126/126/126 127/127/127
f 132/132/132 130/130/130 126/126/126
f 133/133/133 132/132/132 127/127/127
f 134/134/134 132/132/132 133/133/133
f 130/130/130 132/132/132 134/134/134
f 135/135/135 134/134/134 133/133/133
f 130/130/130 136/136/136 131/131/131
f 136/136/136 130/130/130 134/134/134
f 131/131/131 136/136/136 137/137/137
f 138/138/138 134/134/134 135/135/135
f 136/136/136 134/134/134 138/138/138
f 139/139/139 138/138/138 135/135/135
f 136/136/136 140/140/140 137/137/137
f 140/140/140 136/136/136 138/138/138
f 137/137/137 140/140/140 141/141/141
f 140/140/140 142/142/142 141/141/141
f 142/142/142 140/140/140 138/138/138
f 143/143/143 141/141/141 142/142/142
f 144/144/144 138/138/138 139/139/139
f 144/144/144 142/142/142 138/138/138
f 145/145/145 144/144/144 139/139/139
f 144/144/144 145/145/145 146/146/146
f 142/142/142 144/144/144 146/146/146
f 145/145/145 147/147/147 146/146/146
f 148/148/148 143/143/143 142/142/142
f 148/148/148 142/142/142 146/146/146
f 149/149/149 143/143/143 148/148/148
f 146/146/146 147/147/147 150/150/150
f 148/148/148 146/146/146 150/150/150
f 147/147/147 151/151/151 150/150/150
f 152/152/152 149/149/149 148/148/148
f 152/152/152 148/148/148 150/150/150
f 153/153/153 149/149/149 152/152/152
f 154/154/154 153/153/153 152/152/152
f 154/154/154 152/152/152 150/150/150
f 153/153/153 154/154/154 155/155/155
f 156/156/156 150/150/150 151/151/151
f 156/156/156 154/154/154 150/150/150
f 157/157/157 156/156/156 151/151/151
f 158/158/158 156/156/156 157/157/157
f 156/156/156 158/158/158 154/154/154
f 159/159/159 158/158/158 157/157/157
f 154/154/154 160/160/160 155/155/155
f 158/158/158 160/160/160 154/154/154
f 155/155/155 160/160/160 161/161/161
f 162/162/162 158/158/158 159/159/159
f 158/158/158 162/162/162 160/160/160
f 163/163/163 162/162/162 159/159/159
f 160/160/160 164/164/164 161/161/161
f 162/162/162 164/164/164 160/160/160
f 165/165/165 161/161/161 164/164/164
f 166/166/166 165/165/165 164/164/164
f 164/164/164 162/162/162 166/166/166
f 167/167/167 165/165/165 166/166/166
f 168/168/168 162/162/162 163/163/163
f 162/162/162 168/168/168 166/166/166
f 169/169/169 168/168/168 163/163/163
f 168/168/168 169/169/169 170/170/170
f 168/168/168 170/170/170 166/166/166
f 169/169/169 171/171/171 170/170/170
f 172/172/172 167/167/167 166/166/166
f 170/170/170 172/172/172 166/166/166
f 173/173/173 167/167/167 172/172/172
f 170/170/170 171/171/171 174/174/174
f 170/170/170 174/174/174 172/172/172
f 171/171/171 175/175/175 174/174/174
f 176/176/176 173/173/173 172/172/172
f 174/174/174 176/176/176 172/172/172
f 173/173/173 176/176/176 177/177/177
f 176/176/176 178/178/178 177/177/177
f 176/176/176 174/174/174 178/178/178
f 177/177/177 178/178/178 179/179/179
f 178/178/178 180/180/180 179/179/179
f 180/180/180 178/178/178 181/181/181
f 182/182/182 174/174/174 175/175/175
f 174/174/174 182/182/182 178/178/178
f 178/178/178 182/182/182 181/181/181
f 183/183/183 182/182/182 175/175/175
f 181/181/181 182/182/182 183/183/183
f 184/184/184 181/181/181 183/183/183
f 187/187/187 186/186/186 185/185/185
f 186/186/186 188/188/188 185/185/185
f 186/186/186 189/189/189 188/188/188
f 185/185/185 188/188/188 190/190/190
f 189/189/189 191/191/191 188/188/188
f 189/189/189 192/192/192 191/191/191
f 188/188/188 193/193/193 190/190/190
f 188/188/188 191/191/191 193/193/193
f 192/192/192 194/194/194 191/191/191
f 192/192/192 195/195/195 194/194/194
f 193/193/193 196/196/196 190/190/190
f 196/196/196 197/197/197 190/190/190
f 197/197/197 196/196/196 198/198/198
f 191/191/191 199/199/199 193/193/193
f 191/191/191 194/194/194 199/199/199
f 195/195/195 200/200/200 194/194/194
f 195/195/195 201/201/201 200/200/200
f 196/196/196 202/202/202 198/198/198
f 198/198/198 202/202/202 203/203/203
f 204/204/204 196/196/196 193/193/193
f 199/199/199 204/204/204 193/193/193
f 196/196/196 204/204/204 202/202/202
f 194/194/194 205/205/205 199/199/199
f 194/194/194 200/200/200 205/205/205
f 201/201/201 206/206/206 200/200/200
f 201/201/201 207/207/207 206/206/206
f 204/204/204 199/199/199 208/208/208
f 199/199/199 205/205/205 208/208/208
f 204/204/204 209/209/209 202/202/202
f 209/209/209 204/204/204 208/208/208
f 202/202/202 210/210/210 203/203/203
f 202/202/202 209/209/209 210/210/210
f 200/200/200 211/211/211 205/205/205
f 200/200/200 206/206/206 211/211/211
f 212/212/212 208/208/208 205/205/205
f 211/211/211 212/212/212 205/205/205
f 213/213/213 209/209/209 208/208/208
f 208/208/208 212/212/212 213/213/213
f 210/210/210 214/214/214 203/203/203
f 214/214/214 215/215/215 203/203/203
f 216/216/216 215/215/215 214/214/214
f 209/209/209 217/217/217 210/210/210
f 217/217/217 209/209/209 213/213/213
f 218/218/218 216/216/216 214/214/214
f 219/219/219 216/216/216 218/218/218
f 220/220/220 214/214/214 210/210/210
f 217/217/217 220/220/220 210/210/210
f 218/218/218 214/214/214 220/220/220
f 221/221/221 212/212/212 211/211/211
f 212/212/212 222/222/222 213/213/213
f 212/212/212 221/221/221 222/222/222
f 223/223/223 217/217/217 213/213/213
f 213/213/213 222/222/222 223/223/223
f 220/220/220 217/217/217 224/224/224
f 217/217/217 223/223/223 224/224/224
f 225/225/225 218/218/218 220/220/220
f 225/225/225 220/220/220 224/224/224
f 226/226/226 219/219/219 218/218/218
f 226/226/226 218/218/218 225/225/225
f 227/227/227 221/221/221 211/211/211
f 206/206/206 227/227/227 211/211/211
f 226/226/226 228/228/228 219/219/219
f 228/228/228 229/229/229 219/219/219
f 229/229/229 228/228/228 230/230/230
f 228/228/228 231/231/231 230/230/230
f 230/230/230 231/231/231 232/232/232
f 233/233/233 228/228/228 226/226/226
f 228/228/228 233/233/233 231/231/231
f 234/234/234 226/226/226 225/225/225
f 234/234/234 233/233/233 226/226/226
f 206/206/206 235/235/235 227/227/227
f 207/207/207 235/235/235 206/206/206
f 234/234/234 225/225/225 236/236/236
f 236/236/236 225/225/225 224/224/224
f 235/235/235 207/207/207 237/237/237
f 207/207/207 238/238/238 237/237/237
f 238/238/238 239/239/239 237/237/237
f 236/236/236 224/224/224 240/240/240
f 240/240/240 224/224/224 223/223/223
f 241/241/241 240/240/240 223/223/223
f 222/222/222 241/241/241 223/223/223
f 222/222/222 242/242/242 241/241/241
f 221/221/221 242/242/242 222/222/222
f 242/242/242 221/221/221 243/243/243
f 221/221/221 227/227/227 243/243/243
f 235/235/235 244/244/244 227/227/227
f 227/227/227 244/244/244 243/243/243
f 235/235/235 237/237/237 245/245/245
f 244/244/244 235/235/235 245/245/245
f 239/239/239 246/246/246 237/237/237
f 237/237/237 246/246/246 245/245/245
f 244/244/244 245/245/245 247/247/247
f 243/243/243 244/244/244 247/247/247
f 246/246/246 239/239/239 248/248/248
f 239/239/239 249/249/249 248/248/248
f 246/246/246 250/250/250 245/245/245
f 247/247/247 245/245/245 250/250/250
f 248/248/248 249/249/249 251/251/251
f 249/249/249 252/252/252 251/251/251
f 248/248/248 251/251/251 253/253/253
f 246/246/246 248/248/248 254/254/254
f 254/254/254 248/248/248 253/253/253
f 250/250/250 246/246/246 254/254/254
f 253/253/253 255/255/255 254/254/254
f 255/255/255 256/256/256 254/254/254
f 254/254/254 256/256/256 250/250/250
f 256/256/256 255/255/255 257/257/257
f 258/258/258 247/247/247 250/250/250
f 256/256/256 258/258/258 250/250/250
f 259/259/259 256/256/256 257/257/257
f 258/258/258 256/256/256 259/259/259
f 259/259/259 257/257/257 260/260/260
f 247/247/247 258/258/258 261/261/261
f 247/247/247 261/261/261 243/243/243
f 262/262/262 259/259/259 260/260/260
f 260/260/260 263/263/263 262/262/262
f 264/264/264 258/258/258 259/259/259
f 258/258/258 264/264/264 261/261/261
f 264/264/264 259/259/259 262/262/262
f 261/261/261 265/265/265 243/243/243
f 265/265/265 242/242/242 243/243/243
f 263/263/263 266/266/266 262/262/262
f 266/266/266 263/263/263 267/267/267
f 268/268/268 264/264/264 262/262/262
f 262/262/262 266/266/266 268/268/268
f 261/261/261 264/264/264 269/269/269
f 261/261/261 269/269/269 265/265/265
f 264/264/264 268/268/268 269/269/269
f 270/270/270 242/242/242 265/265/265
f 242/242/242 270/270/270 241/241/241
f 271/271/271 266/266/266 267/267/267
f 271/271/271 267/267/267 272/272/272
f 269/269/269 273/273/273 265/265/265
f 273/273/273 270/270/270 265/265/265
f 266/266/266 274/274/274 268/268/268
f 274/274/274 266/266/266 271/271/271
f 275/275/275 269/269/269 268/268/268
f 273/273/273 269/269/269 275/275/275
f 274/274/274 275/275/275 268/268/268
f 270/270/270 276/276/276 241/241/241
f 276/276/276 240/240/240 241/241/241
f 270/270/270 273/273/273 277/277/277
f 277/277/277 273/273/273 275/275/275
f 276/276/276 270/270/270 277/277/277
f 278/278/278 271/271/271 272/272/272
f 272/272/272 279/279/279 278/278/278
f 280/280/280 274/274/274 271/271/271
f 280/280/280 271/271/271 278/278/278
f 281/281/281 275/275/275 274/274/274
f 275/275/275 281/281/281 277/277/277
f 280/280/280 281/281/281 274/274/274
f 282/282/282 240/240/240 276/276/276
f 282/282/282 236/236/236 240/240/240
f 279/279/279 283/283/283 278/278/278
f 283/283/283 279/279/279 284/284/284
f 285/285/285 276/276/276 277/277/277
f 285/285/285 282/282/282 276/276/276
f 281/281/281 286/286/286 277/277/277
f 286/286/286 285/285/285 277/277/277
f 287/287/287 280/280/280 278/278/278
f 278/278/278 283/283/283 287/287/287
f 288/288/288 281/281/281 280/280/280
f 281/281/281 288/288/288 286/286/286
f 287/287/287 288/288/288 280/280/280
f 289/289/289 236/236/236 282/282/282
f 289/289/289 234/234/234 236/236/236
f 290/290/290 283/283/283 284/284/284
f 290/290/290 284/284/284 291/291/291
f 292/292/292 282/282/282 285/285/285
f 292/292/292 289/289/289 282/282/282
f 293/293/293 285/285/285 286/286/286
f 293/293/293 292/292/292 285/285/285
f 288/288/288 294/294/294 286/286/286
f 294/294/294 293/293/293 286/286/286
f 283/283/283 295/295/295 287/287/287
f 295/295/295 283/283/283 290/290/290
f 296/296/296 288/288/288 287/287/287
f 294/294/294 288/288/288 296/296/296
f 295/295/295 296/296/296 287/287/287
f 234/234/234 289/289/289 297/297/297
f 233/233/233 234/234/234 297/297/297
f 292/292/292 298/298/298 289/289/289
f 298/298/298 297/297/297 289/289/289
f 293/293/293 299/299/299 292/292/292
f 299/299/299 298/298/298 292/292/292
f 293/293/293 294/294/294 300/300/300
f 300/300/300 294/294/294 296/296/296
f 299/299/299 293/293/293 300/300/300
f 296/296/296 295/295/295 301/301/301
f 300/300/300 296/296/296 301/301/301
f 233/233/233 297/297/297 302/302/302
f 233/233/233 302/302/302 231/231/231
f 297/297/297 298/298/298 303/303/303
f 297/297/297 303/303/303 302/302/302
f 298/298/298 299/299/299 304/304/304
f 298/298/298 304/304/304 303/303/303
f 299/299/299 300/300/300 305/305/305
f 299/299/299 305/305/305 304/304/304
f 231/231/231 302/302/302 306/306/306
f 231/231/231 306/306/306 232/232/232
f 302/302/302 303/303/303 307/307/307
f 302/302/302 307/307/307 306/306/306
f 306/306/306 308/308/308 232/232/232
f 308/308/308 309/309/309 232/232/232
f 310/310/310 308/308/308 306/306/306
f 307/307/307 310/310/310 306/306/306
f 310/310/310 307/307/307 311/311/311
f 303/303/303 312/312/312 307/307/307
f 307/307/307 312/312/312 311/311/311
f 303/303/303 304/304/304 312/312/312
f 313/313/313 311/311/311 312/312/312
f 304/304/304 314/314/314 312/312/312
f 314/314/314 313/313/313 312/312/312
f 304/304/304 305/305/305 314/314/314
f 315/315/315 313/313/313 314/314/314
f 316/316/316 315/315/315 314/314/314
f 305/305/305 316/316/316 314/314/314
f 315/315/315 316/316/316 317/317/317
f 305/305/305 318/318/318 316/316/316
f 300/300/300 318/318/318 305/305/305
f 318/318/318 300/300/300 301/301/301
f 316/316/316 319/319/319 317/317/317
f 318/318/318 319/319/319 316/316/316
f 320/320/320 317/317/317 319/319/319
f 319/319/319 318/318/318 321/321/321
f 318/318/318 301/301/301 321/321/321
f 321/321/321 320/320/320 319/319/319
f 301/301/301 322/322/322 321/321/321
f 295/295/295 322/322/322 301/301/301
f 322/322/322 295/295/295 290/290/290
f 320/320/320 321/321/321 323/323/323
f 322/322/322 323/323/323 321/321/321
f 324/324/324 320/320/320 323/323/323
f 325/325/325 324/324/324 323/323/323
f 322/322/322 290/290/290 326/326/326
f 323/323/323 322/322/322 326/326/326
f 326/326/326 325/325/325 323/323/323
f 326/326/326 290/290/290 291/291/291
f 327/327/327 325/325/325 326/326/326
f 291/291/291 327/327/327 326/326/326
f 330/330/330 329/329/329 328/328/328
f 330/330/330 328/328/328 331/331/331
f 330/330/330 332/332/332 329/329/329
f 333/333/333 330/330/330 331/331/331
f 330/330/330 334/334/334 332/332/332
f 333/333/333 335/335/335 330/330/330
f 330/330/330 336/336/336 334/334/334
f 335/335/335 337/337/337 330/330/330
f 330/330/330 338/338/338 336/336/336
f 337/337/337 339/339/339 330/330/330
f 340/340/340 338/338/338 330/330/330
f 339/339/339 340/340/340 330/330/330
f 343/343/343 342/342/342 341/341/341
f 343/343/343 344/344/344 342/342/342
f 342/342/342 345/345/345 341/341/341
f 345/345/345 346/346/346 341/341/341
f 345/345/345 342/342/342 347/347/347
f 346/346/346 345/345/345 347/347/347
f 346/346/346 348/348/348 341/341/341
f 349/349/349 348/348/348 346/346/346
f 350/350/350 349/349/349 346/346/346
f 351/351/351 350/350/350 346/346/346
f 344/344/344 352/352/352 342/342/342
f 352/352/352 347/347/347 342/342/342
f 353/353/353 352/352/352 344/344/344
f 347/347/347 352/352/352 353/353/353
f 354/354/354 353/353/353 344/344/344
f 355/355/355 351/351/351 346/346/346
f 355/355/355 346/346/346 347/347/347
f 351/351/351 355/355/355 356/356/356
f 355/355/355 347/347/347 356/356/356
f 357/357/357 351/351/351 356/356/356
f 357/357/357 356/356/356 358/358/358
f 353/353/353 354/354/354 359/359/359
f 354/354/354 360/360/360 359/359/359
f 353/353/353 359/359/359 361/361/361
f 359/359/359 360/360/360 361/361/361
f 353/353/353 361/361/361 347/347/347
f 360/360/360 362/362/362 361/361/361
f 363/363/363 356/356/356 347/347/347
f 356/356/356 363/363/363 358/358/358
f 361/361/361 364/364/364 347/347/347
f 364/364/364 361/361/361 362/362/362
f 365/365/365 363/363/363 347/347/347
f 363/363/363 365/365/365 358/358/358
f 365/365/365 366/366/366 358/358/358
f 367/367/367 364/364/364 362/362/362
f 368/368/368 366/366/366 365/365/365
f 369/369/369 364/364/364 367/367/367
f 347/347/347 364/364/364 369/369/369
f 370/370/370 369/369/369 367/367/367
f 370/370/370 371/371/371 369/369/369
f 372/372/372 368/368/368 365/365/365
f 373/373/373 368/368/368 372/372/372
f 372/372/372 365/365/365 374/374/374
f 374/374/374 373/373/373 372/372/372
f 347/347/347 374/374/374 365/365/365
f 373/373/373 374/374/374 375/375/375
f 371/371/371 376/376/376 369/369/369
f 376/376/376 347/347/347 369/369/369
f 374/374/374 377/377/377 375/375/375
f 347/347/347 377/377/377 374/374/374
f 375/375/375 377/377/377 378/378/378
f 377/377/377 347/347/347 378/378/378
f 379/379/379 375/375/375 378/378/378
f 379/379/379 378/378/378 380/380/380
f 381/381/381 378/378/378 347/347/347
f 378/378/378 381/381/381 380/380/380
f 347/347/347 376/376/376 381/381/381
f 380/380/380 381/381/381 382/382/382
f 376/376/376 371/371/371 383/383/383
f 376/376/376 383/383/383 381/381/381
f 381/381/381 383/383/383 382/382/382
f 371/371/371 384/384/384 383/383/383
f 385/385/385 382/382/382 383/383/383
f 384/384/384 385/385/385 383/383/383
f 388/388/388 387/387/387 386/386/386
f 388/388/388 389/389/389 387/387/387
f 387/387/387 390/390/390 386/386/386
f 386/386/386 390/390/390 391/391/391
f 389/389/389 392/392/392 387/387/387
f 387/387/387 393/393/393 390/390/390
f 387/387/387 392/392/392 393/393/393
f 394/394/394 392/392/392 389/389/389
f 395/395/395 394/394/394 389/389/389
f 396/396/396 394/394/394 395/395/395
f 397/397/397 396/396/396 395/395/395
f 397/397/397 398/398/398 396/396/396
f 398/398/398 399/399/399 396/396/396
f 398/398/398 400/400/400 399/399/399
f 396/396/396 401/401/401 394/394/394
f 396/396/396 399/399/399 401/401/401
f 392/392/392 394/394/394 402/402/402
f 401/401/401 402/402/402 394/394/394
f 400/400/400 403/403/403 399/399/399
f 400/400/400 404/404/404 403/403/403
f 399/399/399 405/405/405 401/401/401
f 399/399/399 403/403/403 405/405/405
f 392/392/392 406/406/406 393/393/393
f 406/406/406 392/392/392 402/402/402
f 406/406/406 402/402/402 407/407/407
f 401/401/401 408/408/408 402/402/402
f 401/401/401 405/405/405 408/408/408
f 408/408/408 407/407/407 402/402/402
f 405/405/405 409/409/409 408/408/408
f 408/408/408 409/409/409 407/407/407
f 403/403/403 410/410/410 405/405/405
f 405/405/405 410/410/410 409/409/409
f 404/404/404 411/411/411 403/403/403
f 403/403/403 411/411/411 410/410/410
f 410/410/410 412/412/412 409/409/409
f 407/407/407 409/409/409 412/412/412
f 410/410/410 413/413/413 412/412/412
f 411/411/411 413/413/413 410/410/410
f 414/414/414 411/411/411 404/404/404
f 415/415/415 414/414/414 404/404/404
f 407/407/407 412/412/412 416/416/416
f 413/413/413 416/416/416 412/412/412
f 417/417/417 413/413/413 411/411/411
f 414/414/414 417/417/417 411/411/411
f 414/414/414 415/415/415 418/418/418
f 415/415/415 419/419/419 418/418/418
f 420/420/420 416/416/416 413/413/413
f 417/417/417 420/420/420 413/413/413
f 421/421/421 416/416/416 420/420/420
f 407/407/407 416/416/416 421/421/421
f 420/420/420 417/417/417 421/421/421
f 417/417/417 414/414/414 422/422/422
f 414/414/414 418/418/418 422/422/422
f 417/417/417 422/422/422 421/421/421
f 418/418/418 419/419/419 423/423/423
f 419/419/419 424/424/424 423/423/423
f 425/425/425 407/407/407 421/421/421
f 425/425/425 406/406/406 407/407/407
f 421/421/421 422/422/422 426/426/426
f 426/426/426 425/425/425 421/421/421
f 422/422/422 418/418/418 427/427/427
f 422/422/422 427/427/427 426/426/426
f 418/418/418 423/423/423 427/427/427
f 423/423/423 424/424/424 428/428/428
f 424/424/424 429/429/429 428/428/428
f 406/406/406 425/425/425 430/430/430
f 393/393/393 406/406/406 430/430/430
f 425/425/425 426/426/426 431/431/431
f 426/426/426 427/427/427 431/431/431
f 430/430/430 425/425/425 431/431/431
f 432/432/432 430/430/430 431/431/431
f 427/427/427 423/423/423 433/433/433
f 427/427/427 433/433/433 431/431/431
f 423/423/423 428/428/428 433/433/433
f 434/434/434 393/393/393 430/430/430
f 432/432/432 434/434/434 430/430/430
f 393/393/393 434/434/434 390/390/390
f 428/428/428 429/429/429 435/435/435
f 429/429/429 436/436/436 435/435/435
f 431/431/431 433/433/433 437/437/437
f 437/437/437 432/432/432 431/431/431
f 433/433/433 428/428/428 438/438/438
f 433/433/433 438/438/438 437/437/437
f 428/428/428 435/435/435 438/438/438
f 390/390/390 434/434/434 439/439/439
f 390/390/390 439/439/439 391/391/391
f 440/440/440 435/435/435 436/436/436
f 441/441/441 440/440/440 436/436/436
f 442/442/442 437/437/437 438/438/438
f 432/432/432 437/437/437 442/442/442
f 443/443/443 438/438/438 435/435/435
f 443/443/443 442/442/442 438/438/438
f 440/440/440 443/443/443 435/435/435
f 440/440/440 441/441/441 444/444/444
f 441/441/441 445/445/445 444/444/444
f 445/445/445 446/446/446 444/444/444
f 442/442/442 443/443/443 447/447/447
f 447/447/447 432/432/432 442/442/442
f 447/447/447 448/448/448 432/432/432
f 443/443/443 440/440/440 449/449/449
f 440/440/440 444/444/444 449/449/449
f 443/443/443 449/449/449 447/447/447
f 446/446/446 450/450/450 444/444/444
f 444/444/444 450/450/450 449/449/449
f 446/446/446 451/451/451 450/450/450
f 449/449/449 452/452/452 447/447/447
f 450/450/450 452/452/452 449/449/449
f 451/451/451 453/453/453 450/450/450
f 450/450/450 453/453/453 452/452/452
f 452/452/452 454/454/454 447/447/447
f 454/454/454 448/448/448 447/447/447
f 452/452/452 455/455/455 454/454/454
f 453/453/453 455/455/455 452/452/452
f 456/456/456 453/453/453 451/451/451
f 457/457/457 456/456/456 451/451/451
f 432/432/432 448/448/448 458/458/458
f 434/434/434 432/432/432 458/458/458
f 434/434/434 458/458/458 439/439/439
f 439/439/439 458/458/458 459/459/459
f 459/459/459 458/458/458 448/448/448
f 455/455/455 460/460/460 454/454/454
f 460/460/460 448/448/448 454/454/454
f 461/461/461 455/455/455 453/453/453
f 456/456/456 461/461/461 453/453/453
f 462/462/462 460/460/460 455/455/455
f 462/462/462 448/448/448 460/460/460
f 461/461/461 462/462/462 455/455/455
f 463/463/463 456/456/456 457/457/457
f 464/464/464 463/463/463 457/457/457
f 462/462/462 465/465/465 448/448/448
f 459/459/459 448/448/448 465/465/465
f 466/466/466 439/439/439 459/459/459
f 391/391/391 439/439/439 466/466/466
f 467/467/467 391/391/391 466/466/466
f 468/468/468 461/461/461 456/456/456
f 463/463/463 468/468/468 456/456/456
f 469/469/469 462/462/462 461/461/461
f 469/469/469 465/465/465 462/462/462
f 468/468/468 469/469/469 461/461/461
f 470/470/470 463/463/463 464/464/464
f 471/471/471 470/470/470 464/464/464
f 466/466/466 459/459/459 472/472/472
f 472/472/472 459/459/459 465/465/465
f 467/467/467 466/466/466 473/473/473
f 473/473/473 466/466/466 472/472/472
f 474/474/474 467/467/467 473/473/473
f 475/475/475 474/474/474 473/473/473
f 476/476/476 475/475/475 473/473/473
f 476/476/476 473/473/473 472/472/472
f 475/475/475 476/476/476 477/477/477
f 478/478/478 468/468/468 463/463/463
f 470/470/470 478/478/478 463/463/463
f 479/479/479 470/470/470 471/471/471
f 480/480/480 479/479/479 471/471/471
f 481/481/481 476/476/476 472/472/472
f 481/481/481 472/472/472 465/465/465
f 476/476/476 482/482/482 477/477/477
f 476/476/476 481/481/481 482/482/482
f 477/477/477 482/482/482 483/483/483
f 484/484/484 481/481/481 465/465/465
f 469/469/469 484/484/484 465/465/465
f 481/481/481 484/484/484 485/485/485
f 481/481/481 485/485/485 482/482/482
f 486/486/486 484/484/484 469/469/469
f 486/486/486 469/469/469 468/468/468
f 478/478/478 486/486/486 468/468/468
f 482/482/482 487/487/487 483/483/483
f 482/482/482 485/485/485 487/487/487
f 484/484/484 488/488/488 485/485/485
f 485/485/485 488/488/488 489/489/489
f 485/485/485 489/489/489 487/487/487
f 490/490/490 488/488/488 484/484/484
f 491/491/491 486/486/486 478/478/478
f 491/491/491 484/484/484 486/486/486
f 487/487/487 492/492/492 483/483/483
f 492/492/492 493/493/493 483/483/483
f 494/494/494 491/491/491 478/478/478
f 494/494/494 478/478/478 470/470/470
f 479/479/479 494/494/494 470/470/470
f 491/491/491 494/494/494 495/495/495
f 495/495/495 484/484/484 491/491/491
f 494/494/494 479/479/479 496/496/496
f 494/494/494 496/496/496 495/495/495
f 497/497/497 492/492/492 487/487/487
f 489/489/489 497/497/497 487/487/487
f 492/492/492 498/498/498 493/493/493
f 498/498/498 499/499/499 493/493/493
f 499/499/499 498/498/498 500/500/500
f 501/501/501 498/498/498 492/492/492
f 497/497/497 501/501/501 492/492/492
f 498/498/498 502/502/502 500/500/500
f 498/498/498 501/501/501 502/502/502
f 479/479/479 503/503/503 496/496/496
f 479/479/479 480/480/480 503/503/503
f 480/480/480 504/504/504 503/503/503
f 504/504/504 505/505/505 503/503/503
f 505/505/505 506/506/506 503/503/503
f 503/503/503 506/506/506 496/496/496
f 505/505/505 507/507/507 506/506/506
f 506/506/506 508/508/508 496/496/496
f 496/496/496 508/508/508 495/495/495
f 507/507/507 509/509/509 506/506/506
f 506/506/506 509/509/509 508/508/508
f 508/508/508 510/510/510 495/495/495
f 484/484/484 495/495/495 510/510/510
f 508/508/508 511/511/511 510/510/510
f 509/509/509 511/511/511 508/508/508
f 512/512/512 484/484/484 510/510/510
f 511/511/511 512/512/512 510/510/510
f 490/490/490 484/484/484 512/512/512
f 512/512/512 511/511/511 490/490/490
f 509/509/509 507/507/507 513/513/513
f 507/507/507 514/514/514 513/513/513
f 511/511/511 509/509/509 515/515/515
f 511/511/511 515/515/515 490/490/490
f 509/509/509 513/513/513 515/515/515
f 516/516/516 513/513/513 514/514/514
f 517/517/517 516/516/516 514/514/514
f 518/518/518 490/490/490 515/515/515
f 518/518/518 488/488/488 490/490/490
f 519/519/519 515/515/515 513/513/513
f 519/519/519 518/518/518 515/515/515
f 516/516/516 519/519/519 513/513/513
f 516/516/516 517/517/517 520/520/520
f 517/517/517 521/521/521 520/520/520
f 521/521/521 522/522/522 520/520/520
f 518/518/518 519/519/519 523/523/523
f 523/523/523 488/488/488 518/518/518
f 519/519/519 516/516/516 524/524/524
f 516/516/516 520/520/520 524/524/524
f 519/519/519 524/524/524 523/523/523
f 522/522/522 525/525/525 520/520/520
f 520/520/520 525/525/525 524/524/524
f 522/522/522 526/526/526 525/525/525
f 524/524/524 527/527/527 523/523/523
f 525/525/525 527/527/527 524/524/524
f 526/526/526 528/528/528 525/525/525
f 525/525/525 528/528/528 527/527/527
f 527/527/527 529/529/529 523/523/523
f 523/523/523 529/529/529 488/488/488
f 527/527/527 530/530/530 529/529/529
f 528/528/528 530/530/530 527/527/527
f 528/528/528 526/526/526 531/531/531
f 526/526/526 532/532/532 531/531/531
f 530/530/530 533/533/533 529/529/529
f 488/488/488 529/529/529 533/533/533
f 530/530/530 528/528/528 534/534/534
f 533/533/533 530/530/530 534/534/534
f 528/528/528 531/531/531 534/534/534
f 531/531/531 532/532/532 535/535/535
f 532/532/532 536/536/536 535/535/535
f 536/536/536 537/537/537 535/535/535
f 488/488/488 533/533/533 538/538/538
f 538/538/538 533/533/533 534/534/534
f 531/531/531 535/535/535 539/539/539
f 534/534/534 531/531/531 539/539/539
f 537/537/537 540/540/540 535/535/535
f 535/535/535 540/540/540 539/539/539
f 537/537/537 500/500/500 540/540/540
f 500/500/500 502/502/502 540/540/540
f 488/488/488 538/538/538 541/541/541
f 488/488/488 541/541/541 489/489/489
f 538/538/538 534/534/534 542/542/542
f 534/534/534 539/539/539 542/542/542
f 541/541/541 538/538/538 542/542/542
f 540/540/540 543/543/543 539/539/539
f 540/540/540 502/502/502 543/543/543
f 539/539/539 543/543/543 542/542/542
f 541/541/541 544/544/544 489/489/489
f 544/544/544 497/497/497 489/489/489
f 542/542/542 545/545/545 541/541/541
f 543/543/543 545/545/545 542/542/542
f 545/545/545 544/544/544 541/541/541
f 502/502/502 546/546/546 543/543/543
f 543/543/543 546/546/546 545/545/545
f 501/501/501 546/546/546 502/502/502
f 547/547/547 501/501/501 497/497/497
f 544/544/544 547/547/547 497/497/497
f 501/501/501 547/547/547 546/546/546
f 545/545/545 548/548/548 544/544/544
f 546/546/546 548/548/548 545/545/545
f 548/548/548 547/547/547 544/544/544
f 547/547/547 548/548/548 546/546/546
f 551/551/551 550/550/550 549/549/549
f 550/550/550 552/552/552 549/549/549
f 553/553/553 551/551/551 549/549/549
f 549/549/549 552/552/552 554/554/554
f 552/552/552 555/555/555 554/554/554
f 556/556/556 553/553/553 549/549/549
f 553/553/553 556/556/556 557/557/557
f 558/558/558 554/554/554 555/555/555
f 559/559/559 558/558/558 555/555/555
f 549/549/549 554/554/554 560/560/560
f 556/556/556 549/549/549 560/560/560
f 558/558/558 560/560/560 554/554/554
f 556/556/556 561/561/561 557/557/557
f 556/556/556 560/560/560 561/561/561
f 557/557/557 561/561/561 562/562/562
f 563/563/563 558/558/558 559/559/559
f 563/563/563 560/560/560 558/558/558
f 564/564/564 563/563/563 559/559/559
f 561/561/561 565/565/565 562/562/562
f 561/561/561 560/560/560 565/565/565
f 566/566/566 562/562/562 565/565/565
f 567/567/567 565/565/565 560/560/560
f 567/567/567 566/566/566 565/565/565
f 560/560/560 563/563/563 568/568/568
f 569/569/569 566/566/566 567/567/567
f 570/570/570 569/569/569 567/567/567
f 571/571/571 570/570/570 567/567/567
f 563/563/563 564/564/564 572/572/572
f 563/563/563 572/572/572 568/568/568
f 564/564/564 573/573/573 572/572/572
f 573/573/573 574/574/574 572/572/572
f 574/574/574 575/575/575 572/572/572
f 572/572/572 575/575/575 568/568/568
f 575/575/575 576/576/576 568/568/568
f 577/577/577 571/571/571 567/567/567
f 577/577/577 567/567/567 560/560/560
f 571/571/571 577/577/577 578/578/578
f 579/579/579 568/568/568 576/576/576
f 579/579/579 560/560/560 568/568/568
f 580/580/580 579/579/579 576/576/576
f 577/577/577 581/581/581 578/578/578
f 577/577/577 560/560/560 581/581/581
f 578/578/578 581/581/581 582/582/582
f 583/583/583 579/579/579 580/580/580
f 583/583/583 560/560/560 579/579/579
f 584/584/584 583/583/583 580/580/580
f 581/581/581 585/585/585 582/582/582
f 581/581/581 560/560/560 585/585/585
f 586/586/586 582/582/582 585/585/585
f 583/583/583 584/584/584 587/587/587
f 560/560/560 583/583/583 587/587/587
f 585/585/585 560/560/560 587/587/587
f 587/587/587 586/586/586 585/585/585
f 584/584/584 588/588/588 587/587/587
f 589/589/589 586/586/586 587/587/587
f 588/588/588 589/589/589 587/587/587
f 592/592/592 591/591/591 590/590/590
f 591/591/591 592/592/592 593/593/593
f 591/591/591 594/594/594 590/590/590
f 590/590/590 594/594/594 595/595/595
f 596/596/596 591/591/591 593/593/593
f 594/594/594 591/591/591 597/597/597
f 597/597/597 591/591/591 596/596/596
f 598/598/598 596/596/596 593/593/593
f 599/599/599 598/598/598 593/593/593
f 598/598/598 599/599/599 600/600/600
f 599/599/599 601/601/601 600/600/600
f 600/600/600 601/601/601 602/602/602
f 603/603/603 600/600/600 602/602/602
f 603/603/603 602/602/602 604/604/604
f 598/598/598 600/600/600 605/605/605
f 605/605/605 600/600/600 603/603/603
f 598/598/598 606/606/606 596/596/596
f 606/606/606 598/598/598 605/605/605
f 606/606/606 605/605/605 607/607/607
f 605/605/605 608/608/608 607/607/607
f 608/608/608 605/605/605 609/609/609
f 609/609/609 605/605/605 603/603/603
f 606/606/606 610/610/610 596/596/596
f 610/610/610 597/597/597 596/596/596
f 610/610/610 606/606/606 607/607/607
f 611/611/611 603/603/603 604/604/604
f 609/609/609 603/603/603 611/611/611
f 608/608/608 609/609/609 612/612/612
f 612/612/612 609/609/609 611/611/611
f 611/611/611 604/604/604 613/613/613
f 604/604/604 614/614/614 613/613/613
f 612/612/612 611/611/611 615/615/615
f 611/611/611 613/613/613 615/615/615
f 616/616/616 613/613/613 614/614/614
f 617/617/617 616/616/616 614/614/614
f 618/618/618 615/615/615 613/613/613
f 616/616/616 618/618/618 613/613/613
f 619/619/619 616/616/616 617/617/617
f 620/620/620 619/619/619 617/617/617
f 620/620/620 621/621/621 619/619/619
f 618/618/618 622/622/622 615/615/615
f 622/622/622 623/623/623 615/615/615
f 612/612/612 615/615/615 623/623/623
f 622/622/622 624/624/624 623/623/623
f 625/625/625 612/612/612 623/623/623
f 625/625/625 608/608/608 612/612/612
f 626/626/626 618/618/618 616/616/616
f 619/619/619 626/626/626 616/616/616
f 621/621/621 627/627/627 619/619/619
f 619/619/619 627/627/627 626/626/626
f 621/621/621 628/628/628 627/627/627
f 626/626/626 629/629/629 618/618/618
f 629/629/629 622/622/622 618/618/618
f 627/627/627 630/630/630 626/626/626
f 626/626/626 630/630/630 629/629/629
f 628/628/628 631/631/631 627/627/627
f 627/627/627 631/631/631 630/630/630
f 632/632/632 631/631/631 628/628/628
f 633/633/633 632/632/632 628/628/628
f 632/632/632 633/633/633 634/634/634
f 635/635/635 632/632/632 634/634/634
f 635/635/635 634/634/634 636/636/636
f 632/632/632 637/637/637 631/631/631
f 637/637/637 632/632/632 635/635/635
f 631/631/631 638/638/638 630/630/630
f 637/637/637 638/638/638 631/631/631
f 630/630/630 639/639/639 629/629/629
f 630/630/630 638/638/638 639/639/639
f 640/640/640 635/635/635 636/636/636
f 641/641/641 637/637/637 635/635/635
f 641/641/641 635/635/635 640/640/640
f 637/637/637 642/642/642 638/638/638
f 642/642/642 637/637/637 641/641/641
f 642/642/642 643/643/643 638/638/638
f 638/638/638 643/643/643 639/639/639
f 643/643/643 642/642/642 644/644/644
f 644/644/644 642/642/642 641/641/641
f 639/639/639 643/643/643 644/644/644
f 629/629/629 639/639/639 645/645/645
f 639/639/639 644/644/644 645/645/645
f 644/644/644 641/641/641 646/646/646
f 645/645/645 644/644/644 646/646/646
f 646/646/646 641/641/641 640/640/640
f 647/647/647 629/629/629 645/645/645
f 647/647/647 645/645/645 646/646/646
f 647/647/647 622/622/622 629/629/629
f 648/648/648 640/640/640 636/636/636
f 649/649/649 648/648/648 636/636/636
f 650/650/650 646/646/646 640/640/640
f 650/650/650 647/647/647 646/646/646
f 648/648/648 650/650/650 640/640/640
f 648/648/648 649/649/649 651/651/651
f 649/649/649 652/652/652 651/651/651
f 651/651/651 652/652/652 653/653/653
f 647/647/647 650/650/650 654/654/654
f 654/654/654 622/622/622 647/647/647
f 650/650/650 648/648/648 655/655/655
f 648/648/648 651/651/651 655/655/655
f 650/650/650 655/655/655 654/654/654
f 656/656/656 651/651/651 653/653/653
f 655/655/655 651/651/651 656/656/656
f 656/656/656 653/653/653 657/657/657
f 654/654/654 655/655/655 658/658/658
f 658/658/658 655/655/655 656/656/656
f 659/659/659 656/656/656 657/657/657
f 658/658/658 656/656/656 659/659/659
f 660/660/660 654/654/654 658/658/658
f 660/660/660 622/622/622 654/654/654
f 660/660/660 658/658/658 661/661/661
f 661/661/661 658/658/658 659/659/659
f 662/662/662 659/659/659 657/657/657
f 663/663/663 662/662/662 657/657/657
f 664/664/664 622/622/622 660/660/660
f 664/664/664 660/660/660 661/661/661
f 622/622/622 664/664/664 665/665/665
f 665/665/665 664/664/664 661/661/661
f 622/622/622 665/665/665 624/624/624
f 666/666/666 661/661/661 659/659/659
f 666/666/666 665/665/665 661/661/661
f 662/662/662 666/666/666 659/659/659
f 665/665/665 666/666/666 624/624/624
f 662/662/662 663/663/663 667/667/667
f 663/663/663 668/668/668 667/667/667
f 666/666/666 662/662/662 669/669/669
f 666/666/666 669/669/669 624/624/624
f 662/662/662 667/667/667 669/669/669
f 667/667/667 668/668/668 670/670/670
f 668/668/668 671/671/671 670/670/670
f 670/670/670 671/671/671 672/672/672
f 624/624/624 669/669/669 673/673/673
f 623/623/623 624/624/624 673/673/673
f 669/669/669 667/667/667 674/674/674
f 667/667/667 670/670/670 674/674/674
f 669/669/669 674/674/674 673/673/673
f 675/675/675 670/670/670 672/672/672
f 674/674/674 670/670/670 675/675/675
f 675/675/675 672/672/672 676/676/676
f 673/673/673 674/674/674 677/677/677
f 677/677/677 674/674/674 675/675/675
f 678/678/678 675/675/675 676/676/676
f 677/677/677 675/675/675 678/678/678
f 679/679/679 673/673/673 677/677/677
f 623/623/623 673/673/673 679/679/679
f 679/679/679 677/677/677 680/680/680
f 680/680/680 677/677/677 678/678/678
f 681/681/681 678/678/678 676/676/676
f 682/682/682 681/681/681 676/676/676
f 683/683/683 623/623/623 679/679/679
f 683/683/683 679/679/679 680/680/680
f 684/684/684 680/680/680 678/678/678
f 681/681/681 684/684/684 678/678/678
f 685/685/685 683/683/683 680/680/680
f 683/683/683 685/685/685 623/623/623
f 684/684/684 685/685/685 680/680/680
f 681/681/681 682/682/682 686/686/686
f 682/682/682 687/687/687 686/686/686
f 623/623/623 685/685/685 688/688/688
f 688/688/688 685/685/685 684/684/684
f 689/689/689 684/684/684 681/681/681
f 689/689/689 688/688/688 684/684/684
f 686/686/686 689/689/689 681/681/681
f 623/623/623 688/688/688 690/690/690
f 690/690/690 688/688/688 689/689/689
f 623/623/623 690/690/690 625/625/625
f 691/691/691 686/686/686 687/687/687
f 692/692/692 691/691/691 687/687/687
f 693/693/693 689/689/689 686/686/686
f 693/693/693 690/690/690 689/689/689
f 691/691/691 693/693/693 686/686/686
f 625/625/625 690/690/690 694/694/694
f 694/694/694 690/690/690 693/693/693
f 625/625/625 694/694/694 608/608/608
f 695/695/695 691/691/691 692/692/692
f 696/696/696 695/695/695 692/692/692
f 697/697/697 693/693/693 691/691/691
f 697/697/697 694/694/694 693/693/693
f 695/695/695 697/697/697 691/691/691
f 698/698/698 695/695/695 696/696/696
f 699/699/699 698/698/698 696/696/696
f 698/698/698 699/699/699 700/700/700
f 701/701/701 694/694/694 697/697/697
f 608/608/608 694/694/694 701/701/701
f 702/702/702 697/697/697 695/695/695
f 698/698/698 702/702/702 695/695/695
f 702/702/702 701/701/701 697/697/697
f 703/703/703 698/698/698 700/700/700
f 702/702/702 698/698/698 703/703/703
f 703/703/703 700/700/700 704/704/704
f 701/701/701 702/702/702 705/705/705
f 705/705/705 702/702/702 703/703/703
f 608/608/608 701/701/701 706/706/706
f 706/706/706 701/701/701 705/705/705
f 707/707/707 703/703/703 704/704/704
f 705/705/705 703/703/703 707/707/707
f 608/608/608 706/706/706 708/708/708
f 608/608/608 708/708/708 607/607/607
f 706/706/706 705/705/705 709/709/709
f 708/708/708 706/706/706 709/709/709
f 709/709/709 705/705/705 707/707/707
f 707/707/707 704/704/704 710/710/710
f 704/704/704 711/711/711 710/710/710
f 708/708/708 709/709/709 712/712/712
f 708/708/708 712/712/712 607/607/607
f 709/709/709 707/707/707 713/713/713
f 709/709/709 713/713/713 712/712/712
f 707/707/707 710/710/710 713/713/713
f 714/714/714 710/710/710 711/711/711
f 715/715/715 714/714/714 711/711/711
f 607/607/607 712/712/712 716/716/716
f 716/716/716 712/712/712 713/713/713
f 717/717/717 713/713/713 710/710/710
f 714/714/714 717/717/717 710/710/710
f 717/717/717 716/716/716 713/713/713
f 714/714/714 715/715/715 718/718/718
f 715/715/715 719/719/719 718/718/718
f 720/720/720 607/607/607 716/716/716
f 720/720/720 610/610/610 607/607/607
f 716/716/716 717/717/717 721/721/721
f 721/721/721 720/720/720 716/716/716
f 717/717/717 714/714/714 722/722/722
f 717/717/717 722/722/722 721/721/721
f 714/714/714 718/718/718 722/722/722
f 718/718/718 719/719/719 723/723/723
f 719/719/719 724/724/724 723/723/723
f 720/720/720 725/725/725 610/610/610
f 725/725/725 597/597/597 610/610/610
f 721/721/721 726/726/726 720/720/720
f 721/721/721 722/722/722 726/726/726
f 726/726/726 725/725/725 720/720/720
f 727/727/727 725/725/725 726/726/726
f 727/727/727 728/728/728 725/725/725
f 728/728/728 597/597/597 725/725/725
f 728/728/728 594/594/594 597/597/597
f 722/722/722 718/718/718 729/729/729
f 722/722/722 729/729/729 726/726/726
f 718/718/718 723/723/723 729/729/729
f 723/723/723 724/724/724 730/730/730
f 724/724/724 731/731/731 730/730/730
f 594/594/594 728/728/728 732/732/732
f 594/594/594 732/732/732 595/595/595
f 733/733/733 726/726/726 729/729/729
f 733/733/733 727/727/727 726/726/726
f 734/734/734 729/729/729 723/723/723
f 730/730/730 734/734/734 723/723/723
f 734/734/734 733/733/733 729/729/729
f 735/735/735 730/730/730 731/731/731
f 736/736/736 735/735/735 731/731/731
f 737/737/737 734/734/734 730/730/730
f 735/735/735 737/737/737 730/730/730
f 738/738/738 733/733/733 734/734/734
f 737/737/737 738/738/738 734/734/734
f 739/739/739 733/733/733 738/738/738
f 739/739/739 738/738/738 737/737/737
f 739/739/739 727/727/727 733/733/733
f 740/740/740 735/735/735 736/736/736
f 741/741/741 740/740/740 736/736/736
f 740/740/740 741/741/741 742/742/742
f 743/743/743 737/737/737 735/735/735
f 740/740/740 743/743/743 735/735/735
f 743/743/743 739/739/739 737/737/737
f 744/744/744 740/740/740 742/742/742
f 743/743/743 740/740/740 744/744/744
f 744/744/744 742/742/742 745/745/745
f 739/739/739 743/743/743 746/746/746
f 746/746/746 743/743/743 744/744/744
f 747/747/747 744/744/744 745/745/745
f 746/746/746 744/744/744 747/747/747
f 747/747/747 745/745/745 595/595/595
f 732/732/732 747/747/747 595/595/595
f 748/748/748 739/739/739 746/746/746
f 748/748/748 727/727/727 739/739/739
f 749/749/749 746/746/746 747/747/747
f 749/749/749 747/747/747 732/732/732
f 748/748/748 746/746/746 749/749/749
f 750/750/750 749/749/749 732/732/732
f 728/728/728 750/750/750 732/732/732
f 728/728/728 727/727/727 750/750/750
f 751/751/751 748/748/748 749/749/749
f 751/751/751 749/749/749 750/750/750
f 751/751/751 727/727/727 748/748/748
f 752/752/752 751/751/751 750/750/750
f 727/727/727 752/752/752 750/750/750
f 752/752/752 727/727/727 751/751/751
f 755/755/755 754/754/754 753/753/753
f 753/753/753 754/754/754 756/756/756
f 754/754/754 757/757/757 756/756/756
f 758/758/758 755/755/755 753/753/753
f 759/759/759 755/755/755 758/758/758
f 760/760/760 753/753/753 756/756/756
f 753/753/753 760/760/760 758/758/758
f 756/756/756 757/757/757 761/761/761
f 757/757/757 762/762/762 761/761/761
f 763/763/763 759/759/759 758/758/758
f 764/764/764 759/759/759 763/763/763
f 765/765/765 760/760/760 756/756/756
f 765/765/765 756/756/756 761/761/761
f 766/766/766 761/761/761 762/762/762
f 767/767/767 766/766/766 762/762/762
f 768/768/768 764/764/764 763/763/763
f 769/769/769 764/764/764 768/768/768
f 770/770/770 765/765/765 761/761/761
f 761/761/761 766/766/766 770/770/770
f 766/766/766 767/767/767 771/771/771
f 767/767/767 772/772/772 771/771/771
f 771/771/771 772/772/772 773/773/773
f 772/772/772 774/774/774 773/773/773
f 771/771/771 775/775/775 766/766/766
f 775/775/775 771/771/771 773/773/773
f 766/766/766 776/776/776 770/770/770
f 775/775/775 776/776/776 766/766/766
f 765/765/765 770/770/770 777/777/777
f 770/770/770 776/776/776 777/777/777
f 773/773/773 774/774/774 778/778/778
f 774/774/774 779/779/779 778/778/778
f 780/780/780 775/775/775 773/773/773
f 780/780/780 773/773/773 778/778/778
f 775/775/775 781/781/781 776/776/776
f 775/775/775 780/780/780 781/781/781
f 782/782/782 778/778/778 779/779/779
f 783/783/783 782/782/782 779/779/779
f 784/784/784 780/780/780 778/778/778
f 778/778/778 782/782/782 784/784/784
f 780/780/780 784/784/784 785/785/785
f 781/781/781 780/780/780 785/785/785
f 781/781/781 786/786/786 776/776/776
f 776/776/776 786/786/786 777/777/777
f 787/787/787 765/765/765 777/777/777
f 760/760/760 765/765/765 787/787/787
f 786/786/786 781/781/781 788/788/788
f 781/781/781 785/785/785 788/788/788
f 777/777/777 786/786/786 789/789/789
f 787/787/787 777/777/777 789/789/789
f 786/786/786 788/788/788 789/789/789
f 784/784/784 790/790/790 785/785/785
f 782/782/782 790/790/790 784/784/784
f 782/782/782 783/783/783 791/791/791
f 783/783/783 792/792/792 791/791/791
f 760/760/760 787/787/787 793/793/793
f 760/760/760 793/793/793 758/758/758
f 794/794/794 787/787/787 789/789/789
f 787/787/787 794/794/794 793/793/793
f 791/791/791 795/795/795 782/782/782
f 795/795/795 790/790/790 782/782/782
f 791/791/791 792/792/792 796/796/796
f 795/795/795 791/791/791 796/796/796
f 792/792/792 797/797/797 796/796/796
f 790/790/790 798/798/798 785/785/785
f 785/785/785 798/798/798 788/788/788
f 758/758/758 793/793/793 799/799/799
f 763/763/763 758/758/758 799/799/799
f 793/793/793 794/794/794 800/800/800
f 799/799/799 793/793/793 800/800/800
f 799/799/799 801/801/801 763/763/763
f 801/801/801 799/799/799 800/800/800
f 801/801/801 768/768/768 763/763/763
f 795/795/795 802/802/802 790/790/790
f 802/802/802 798/798/798 790/790/790
f 798/798/798 803/803/803 788/788/788
f 798/798/798 802/802/802 803/803/803
f 800/800/800 794/794/794 804/804/804
f 803/803/803 804/804/804 788/788/788
f 794/794/794 789/789/789 804/804/804
f 804/804/804 789/789/789 788/788/788
f 805/805/805 801/801/801 800/800/800
f 805/805/805 800/800/800 804/804/804
f 801/801/801 806/806/806 768/768/768
f 801/801/801 805/805/805 806/806/806
f 795/795/795 807/807/807 802/802/802
f 807/807/807 795/795/795 796/796/796
f 802/802/802 808/808/808 803/803/803
f 802/802/802 807/807/807 808/808/808
f 809/809/809 804/804/804 803/803/803
f 809/809/809 805/805/805 804/804/804
f 808/808/808 809/809/809 803/803/803
f 805/805/805 809/809/809 810/810/810
f 810/810/810 809/809/809 808/808/808
f 806/806/806 805/805/805 810/810/810
f 806/806/806 811/811/811 768/768/768
f 811/811/811 769/769/769 768/768/768
f 812/812/812 769/769/769 811/811/811
f 811/811/811 806/806/806 813/813/813
f 813/813/813 812/812/812 811/811/811
f 806/806/806 810/810/810 813/813/813
f 812/812/812 813/813/813 814/814/814
f 815/815/815 810/810/810 808/808/808
f 807/807/807 815/815/815 808/808/808
f 813/813/813 810/810/810 815/815/815
f 813/813/813 816/816/816 814/814/814
f 816/816/816 813/813/813 815/815/815
f 815/815/815 807/807/807 816/816/816
f 797/797/797 814/814/814 816/816/816
f 807/807/807 796/796/796 816/816/816
f 796/796/796 797/797/797 816/816/816
