g matou4matuo4_mobile
v 0.61151726 4.12221731 -1.00215348
v 0.742191488 -5.67886972 -1.95604068
v 0.889503284 -5.6740171 -1.83680478
v 0.686213006 4.12048423 -0.938896063
v 0.589853761 4.56276624 -0.865066857
v 0.964025722 -5.66413854 -1.6615904
v 0.664896123 4.5511546 -0.804755675
v 0.566457181 4.9672671 -0.626075132
v 0.720354681 4.11580492 -0.845309745
v 0.642192775 4.94681675 -0.570616573
v 0.555538778 5.12913676 -0.47841672
v 0.694358482 4.06034636 0.0746090918
v 1.04392071 -5.45842195 1.73715269
v 0.700077646 4.53070426 -0.715848673
v 0.631620988 5.10158079 -0.429023941
v 0.544447066 5.26986286 -0.302335797
v 0.682226922 4.33538615 0.117069551
v 0.677894222 4.91250177 -0.489508432
v 0.655190875 4.05393396 0.160916473
v 0.979623441 -5.44681032 1.90248851
v 0.621222508 5.23693434 -0.261781726
v 0.526249727 5.48563131 0.0144712176
v 0.668188975 5.05790718 -0.357967664
v 0.643579239 4.3147625 0.202337084
v 0.668015667 4.59101544 0.251036631
v 0.577202277 4.04838811 0.216721648
v 0.839070658 -5.4377983 2.00889962
v 0.565937257 4.29795162 0.25796895
v 0.630061216 4.55618053 0.329545152
v 0.550512846 4.56900532 0.411346526
v 0.662296503 4.67368335 0.327292148
v 0.624861976 4.63312928 0.400081506
v 0.542887294 4.67506982 0.520877179
v 0.619489428 4.70141263 0.484655808
v 0.658310419 5.18563517 -0.202337084
v 0.612210492 4.79343918 0.601292088
v 0.536128282 4.76484336 0.627634904
v 0.528156115 4.86172253 0.761601984
v 0.656750647 4.74681933 0.418452154
v 0.603891708 5.44230431 0.0363080249
v 0.510305391 5.63623596 0.343236484
v 0.648605171 4.84889774 0.54929969
v 0.642192775 5.37731381 0.0718361639
v 0.603891708 4.90383637 0.734392629
v 0.589333837 5.58060409 0.333877852
v 0.601812012 4.92983257 0.766107992
v 0.526769651 4.8719477 0.793144039
v 0.630061216 5.49498994 0.320013213
v 0.639593155 4.96657387 0.691758862
v 0.583614673 5.61179953 0.478070104
v 0.504586227 5.66673816 0.4844825
v 0.624168744 5.52739854 0.466631776
v 0.580668437 5.57956424 0.617409732
v 0.501813299 5.63432957 0.621569124
v 0.497653907 5.39412469 1.07009021
v 0.621222508 5.49464333 0.607704484
v 0.634740531 5.03173767 0.767321148
v 0.636993535 4.99967569 0.731793009
v 0.576682353 5.353224 1.04028124
v 0.498693755 5.0561741 1.45327419
v 0.600598856 4.93971113 0.796436891
v 0.600425548 4.94075097 0.798689895
v 0.526249727 4.86050937 0.823819554
v 0.526942959 4.75635127 0.956920094
v 0.600078932 4.77992115 1.00094032
v 0.527462883 4.6334759 1.07892892
v 0.632834144 4.81198313 1.05622558
v 0.617756348 4.98494451 1.34218377
v 0.61758304 5.28771358 0.993834697
v 0.577202277 5.02775159 1.41116035
v 0.582921441 4.67073712 1.72068843
v 0.504586227 4.65617925 1.79729056
v 0.601465396 4.63624883 1.15969045
v 0.634567223 4.64803377 1.26904779
v 0.602158628 4.6052267 1.1739017
v 0.528329423 4.60262708 1.09296687
v 0.62278228 4.68789461 1.60439876
v 0.635607071 4.60453346 1.29400414
v 0.603891708 4.57455118 1.16038368
v 0.529889195 4.57143164 1.07962215
v 0.531622274 4.54734183 1.05362596
v 0.586040985 4.5748978 1.74321847
v 0.507532463 4.56380608 1.81860744
v 0.625901824 4.58876244 1.62796865
v 0.638553307 4.55670046 1.25951585
v 0.610304104 4.48547087 1.0654109
v 0.590893609 4.4861641 1.69919824
v 0.512385087 4.47853855 1.7764936
v 0.533875278 4.20488523 1.41895921
v 0.630927756 4.49829566 1.58273526
v 0.612037184 4.46640699 1.03386884
v 0.532488814 4.54058281 1.03577523
v 0.532662122 4.54924821 1.01844443
v 0.612210492 4.21337732 1.34703639
v 0.538727902 4.14024135 1.34201046
v 0.648605171 4.26987573 1.29799023
v 0.650858175 4.38460562 1.07528945
v 0.629541292 3.98149122 1.09469995
v 0.556058702 3.90592894 1.09002063
v 0.559351554 3.8813192 1.01584481
v 0.661949887 4.0915418 1.09729957
v 0.653631103 4.3516771 1.02884291
v 0.612210492 4.48235133 1.00995234
v 0.632834144 3.95566833 1.01740458
v 0.609610872 4.68321529 0.832484954
v 0.530062503 4.75947081 0.83283157
v 0.530582427 4.78113431 0.787424875
v 0.634220607 3.97975814 0.940109219
v 0.56056471 3.90471578 0.941149067
v 0.55969817 4.12880302 0.68240023
v 0.665416047 4.06502568 1.01792451
v 0.653631103 4.38044623 0.993488081
v 0.666802511 4.09015533 0.937856215
v 0.632834144 4.22308257 0.670441978
v 0.558485014 4.24179983 0.574256041
v 0.555885394 4.4102552 0.441155501
v 0.610130796 4.70626526 0.784825255
v 0.532662122 4.76397682 0.739765176
v 0.651204791 4.56761886 0.828152254
v 0.665762663 4.27836782 0.731966317
v 0.630407832 4.40505596 0.517064403
v 0.664202891 4.39639056 0.629194676
v 0.651724715 4.59153536 0.778932783
v 0.6123838 4.68824123 0.734565937
v 0.62884806 4.4535822 0.503373071
v 0.55449893 4.45722167 0.42746417
v 0.662643119 4.44561003 0.61498342
v 0.626421748 4.49898889 0.525556495
v 0.552072618 4.5012419 0.449300977
v 0.660043499 4.49240319 0.637860075
v 0.654151027 4.57264479 0.726767077
v -0.253116327 4.02637799 0.19055214
v -0.738725328 -5.41492165 1.95482753
v -0.888463436 -5.41942766 1.83905779
v -0.327812072 4.02776446 0.130760882
v -0.96419903 -5.4289596 1.66938926
v -0.339423708 4.28841968 0.172181493
v -0.264381346 4.2757682 0.232319367
v -0.27963245 4.54699521 0.385350327
v -0.362127055 4.03209716 0.0422004968
v -0.374605231 4.30748356 0.0850075715
v -0.336304164 4.08790233 -0.877891648
v -1.04392071 -5.63484949 -1.72762075
v -0.978583593 -5.64663444 -1.89850243
v -0.352941732 4.53018433 0.299216253
v -0.296789941 4.09448803 -0.969224962
v -0.83543119 -5.65599307 -2.00889962
v -0.218801344 4.10038051 -1.02780306
v -0.358140972 4.60713308 0.369752607
v -0.287258002 4.6530597 0.49488098
v -0.356754508 4.50280167 -0.748257268
v -0.317933517 4.52498509 -0.835257882
v -0.240291535 4.54075612 -0.891063056
v -0.388816487 4.56293954 0.218628036
v -0.34098348 4.92082055 -0.600598856
v -0.263688114 4.94525698 -0.652071331
v -0.378764623 4.88425257 -0.521917027
v -0.35138196 5.07558459 -0.459352841
v -0.274606518 5.10695334 -0.504066303
v -0.394362342 4.64560746 0.295056861
v -0.388643179 5.03000459 -0.390376259
v -0.361953747 5.21093814 -0.291937317
v -0.28569823 5.24802605 -0.328158688
v -0.398521734 5.15755928 -0.234399063
v -0.400081506 4.71857012 0.386390175
v -0.379111239 5.4161348 0.00597912583
v -0.303895569 5.4637945 -0.0113516737
v -0.41446607 5.34923792 0.0396008768
v -0.393669111 5.55426128 0.303548953
v -0.320013213 5.61439915 0.317586901
v -0.325559068 5.64455474 0.458832917
v -0.426770938 5.46674074 0.287777926
v -0.399388274 5.58580333 0.447914513
v -0.328331996 5.61214615 0.595746233
v -0.408053674 4.82099515 0.516891095
v -0.363513519 4.67524313 0.454326909
v -0.294190321 4.74283324 0.601812012
v -0.370619147 4.76709636 0.570963189
v -0.41706569 4.93832466 0.659523575
v -0.379111239 4.87784017 0.704410345
v -0.301989181 4.8393658 0.735605785
v -0.432490101 5.49914933 0.434396489
v -0.40233451 5.55339474 0.587600757
v -0.381190935 4.90366306 0.735779093
v -0.303375645 4.84976428 0.76714784
v -0.41966531 4.9715998 0.699557722
v -0.421918314 5.00383508 0.734739245
v -0.382404091 4.91371493 0.766107992
v -0.303895569 4.83815264 0.797823355
v -0.381884167 4.75236518 0.970784734
v -0.304415493 4.73139492 0.928844199
v -0.406320594 5.32705449 1.00995234
v -0.332664696 5.37228788 1.04409402
v -0.435609645 5.46639412 0.575469197
v -0.439075805 5.25963768 0.961426102
v -0.420358542 4.7830407 1.02503014
v -0.436476185 4.95582877 1.31098833
v -0.403720974 5.00071554 1.38169799
v -0.330411692 5.03329744 1.42831784
v -0.325732376 4.63416913 1.77146767
v -0.400081506 4.64474092 1.69035953
v -0.322612833 4.54179597 1.79261125
v -0.434049873 4.65964541 1.57216348
v -0.396961962 4.54907491 1.71288957
v -0.317933517 4.45618182 1.7504974
v -0.422091622 4.61995788 1.2366392
v -0.430757021 4.56068654 1.59556006
v -0.392109339 4.4601679 1.66921595
v -0.295923401 4.1827018 1.39296301
v -0.381537551 4.60661316 1.13334763
v -0.302682413 4.60609324 1.0480801
v -0.301815873 4.5750711 1.06159812
v -0.421225082 4.57663088 1.26176886
v -0.380671011 4.57697749 1.1435728
v -0.299909485 4.54422228 1.0480801
v -0.378764623 4.54439559 1.1260687
v -0.298696329 4.53018433 1.0330023
v -0.370272531 4.18738112 1.31670749
v -0.29089747 4.11805792 1.31618757
v -0.425904398 4.47004646 1.55049998
v -0.418278846 4.52862456 1.22745387
v -0.408053674 4.24197314 1.26558163
v -0.353634964 3.9549751 1.06454436
v -0.274086594 3.88374551 1.06419774
v -0.270793742 3.85930909 0.989848613
v -0.40580067 4.35670303 1.04288086
v -0.394708958 4.0632926 1.06489097
v -0.372698843 4.46068783 1.03612185
v -0.403027742 4.3236012 0.996607625
v -0.370965763 4.44041079 1.0047531
v -0.297829789 4.52359863 1.01480496
v -0.297483173 4.5315708 0.997474165
v -0.391416107 4.03712309 0.985515913
v -0.350168804 3.92967213 0.987422301
v -0.370792455 4.45410212 0.981356521
v -0.300256101 4.73728739 0.80683537
v -0.403027742 4.35219702 0.961079486
v -0.389856335 4.06225275 0.90544762
v -0.34878234 3.95376194 0.909780319
v -0.350168804 4.19691306 0.640113079
v -0.269580586 3.88235905 0.915326175
v -0.270447126 4.1067929 0.656404031
v -0.27183359 4.21996302 0.54843315
v -0.373392075 4.65721909 0.802156055
v -0.391069491 4.25011861 0.699557722
v -0.352768424 4.37905976 0.486908812
v -0.274259902 4.38824509 0.41533261
v -0.275819674 4.43503824 0.401641278
v -0.405454054 4.53936966 0.795916967
v -0.392455955 4.36814136 0.596786081
v -0.354328196 4.42741269 0.473044172
v -0.278245986 4.47940509 0.423304778
v -0.372872151 4.68009575 0.754669664
v -0.299736177 4.7592975 0.761601984
v -0.40493413 4.56328616 0.746524188
v -0.394015727 4.41770745 0.582574825
v -0.356754508 4.47281939 0.495400904
v -0.370619147 4.66241833 0.704583653
v -0.297483173 4.74214001 0.713768977
v -0.402507818 4.54491551 0.69453179
v -0.396615346 4.46415399 0.605624788
v 0.526249727 4.86050937 0.823819554
v -0.303375645 4.84976428 0.76714784
v -0.303895569 4.83815264 0.797823355
v 0.526769651 4.8719477 0.793144039
v -0.301989181 4.8393658 0.735605785
v 0.528156115 4.86172253 0.761601984
v 0.536128282 4.76484336 0.627634904
v -0.294190321 4.74283324 0.601812012
v -0.287258002 4.6530597 0.49488098
v 0.542887294 4.67506982 0.520877179
v 0.550512846 4.56900532 0.411346526
v -0.27963245 4.54699521 0.385350327
v -0.264381346 4.2757682 0.232319367
v 0.565937257 4.29795162 0.25796895
v 0.577202277 4.04838811 0.216721648
v -0.253116327 4.02637799 0.19055214
v -0.738725328 -5.41492165 1.95482753
v 0.839070658 -5.4377983 2.00889962
v -0.304415493 4.73139492 0.928844199
v 0.526249727 4.86050937 0.823819554
v -0.303895569 4.83815264 0.797823355
v 0.526942959 4.75635127 0.956920094
v -0.302682413 4.60609324 1.0480801
v 0.527462883 4.6334759 1.07892892
v 0.528329423 4.60262708 1.09296687
v -0.301815873 4.5750711 1.06159812
v 0.529889195 4.57143164 1.07962215
v -0.299909485 4.54422228 1.0480801
v 0.531622274 4.54734183 1.05362596
v -0.298696329 4.53018433 1.0330023
v 0.532488814 4.54058281 1.03577523
v -0.297829789 4.52359863 1.01480496
v 0.532662122 4.54924821 1.01844443
v -0.297483173 4.5315708 0.997474165
v -0.300256101 4.73728739 0.80683537
v 0.530062503 4.75947081 0.83283157
v 0.530582427 4.78113431 0.787424875
v -0.299736177 4.7592975 0.761601984
v 0.532662122 4.76397682 0.739765176
v -0.297483173 4.74214001 0.713768977
v -0.278245986 4.47940509 0.423304778
v 0.552072618 4.5012419 0.449300977
v 0.55449893 4.45722167 0.42746417
v -0.275819674 4.43503824 0.401641278
v 0.555885394 4.4102552 0.441155501
v -0.274259902 4.38824509 0.41533261
v -0.27183359 4.21996302 0.54843315
v 0.558485014 4.24179983 0.574256041
v 0.55969817 4.12880302 0.68240023
v -0.270447126 4.1067929 0.656404031
v 0.56056471 3.90471578 0.941149067
v -0.269580586 3.88235905 0.915326175
v -0.270793742 3.85930909 0.989848613
v 0.559351554 3.8813192 1.01584481
v -0.274086594 3.88374551 1.06419774
v 0.556058702 3.90592894 1.09002063
v -0.29089747 4.11805792 1.31618757
v 0.538727902 4.14024135 1.34201046
v 0.533875278 4.20488523 1.41895921
v -0.295923401 4.1827018 1.39296301
v -0.317933517 4.45618182 1.7504974
v 0.512385087 4.47853855 1.7764936
v -0.322612833 4.54179597 1.79261125
v 0.507532463 4.56380608 1.81860744
v -0.325732376 4.63416913 1.77146767
v 0.504586227 4.65617925 1.79729056
v -0.330411692 5.03329744 1.42831784
v 0.498693755 5.0561741 1.45327419
v 0.497653907 5.39412469 1.07009021
v -0.332664696 5.37228788 1.04409402
v -0.328331996 5.61214615 0.595746233
v 0.501813299 5.63432957 0.621569124
v 0.504586227 5.66673816 0.4844825
v -0.325559068 5.64455474 0.458832917
v 0.510305391 5.63623596 0.343236484
v -0.320013213 5.61439915 0.317586901
v -0.303895569 5.4637945 -0.0113516737
v 0.526249727 5.48563131 0.0144712176
v 0.544447066 5.26986286 -0.302335797
v -0.28569823 5.24802605 -0.328158688
v 0.555538778 5.12913676 -0.47841672
v -0.274606518 5.10695334 -0.504066303
v 0.566457181 4.9672671 -0.626075132
v -0.263688114 4.94525698 -0.652071331
v 0.589853761 4.56276624 -0.865066857
v -0.240291535 4.54075612 -0.891063056
v 0.61151726 4.12221731 -1.00215348
v -0.218801344 4.10038051 -1.02780306
v 0.742191488 -5.67886972 -1.95604068
v -0.83543119 -5.65599307 -2.00889962
v 0.139252974 4.88026648 1.75535003
v 0.123828562 4.82810078 1.72935383
v 0.123828562 4.86085599 1.75448349
v 0.142545826 4.8568699 1.73975231
v 0.286738078 5.17627654 1.55899207
v 0.141852594 4.71960997 1.60474538
v 0.123828562 4.69967955 1.60769162
v 0.123828562 4.68962769 1.59122736
v 0.139252974 4.70695849 1.58862774
v 0.28829785 5.15287996 1.54824697
v 0.311174505 5.20296597 1.53212933
v 0.288124542 5.02757828 1.43022423
v 0.286738078 5.01787303 1.4123735
v 0.314467357 5.05652071 1.40058856
v 0.311174505 5.04386923 1.38499084
v 0.315333897 5.18234232 1.51809138
v 0.344969564 5.22254977 1.50821283
v 0.35138196 5.07835752 1.37909837
v 0.344969564 5.06379965 1.36332734
v 0.352768424 5.20452574 1.49573465
v 0.568883493 5.31908233 1.42294529
v 0.573216193 5.29880529 1.41064042
v 0.585347753 5.33485335 1.40648103
v 0.572349653 5.1733303 1.29383084
v 0.568883493 5.16085213 1.27927296
v 0.590546993 5.19100772 1.27494026
v 0.585347753 5.17610323 1.26280871
v 0.591760149 5.31700263 1.39157655
v 0.569403417 5.35010446 1.38967016
v 0.572869577 5.20885844 1.25691623
v 0.569403417 5.19222087 1.24426475
v 0.573562809 5.33398681 1.37147282
v 0.348262416 5.43242576 1.28048612
v 0.355887968 5.41526826 1.2648884
v 0.314640665 5.45183625 1.25778277
v 0.354501504 5.28910004 1.14981189
v 0.348262416 5.27384894 1.1347341
v 0.318106825 5.3097237 1.12312246
v 0.314640665 5.29308613 1.11168413
v 0.318800057 5.43675846 1.23819897
v 0.290550854 5.47557945 1.22728057
v 0.291937317 5.33554659 1.09002063
v 0.290550854 5.31752255 1.08256839
v 0.292283933 5.46292796 1.20596368
v 0.140812746 5.67159079 0.884477352
v 0.14306575 5.65391337 0.859521001
v 0.129894342 5.67280394 0.879971344
v 0.142545826 5.51596021 0.727633617
v 0.140812746 5.4984561 0.715155441
v 0.13006765 5.5178666 0.723127609
v 0.13006765 5.49966926 0.713768977
v 0.129894342 5.65737953 0.857267997
v 0.119149247 5.67159079 0.884477352
v 0.117242859 5.51596021 0.727633617
v 0.119149247 5.4984561 0.715155441
v 0.116722935 5.65391337 0.859694309
v -0.032841865 5.47488621 1.22866703
v -0.034574945 5.46292796 1.20596368
v -0.0572782923 5.45096971 1.25951585
v -0.034228329 5.33554659 1.09036725
v -0.032841865 5.31665601 1.08412816
v -0.0605711442 5.30885716 1.12416231
v -0.0572782923 5.2923929 1.11185744
v -0.0614376842 5.4355453 1.23941213
v -0.0912466593 5.43051937 1.28065943
v -0.0974857472 5.28771358 1.14807881
v -0.0912466593 5.27176924 1.13404086
v -0.0988722111 5.41440172 1.26384855
v -0.314987281 5.35079769 1.38897693
v -0.319319981 5.33468005 1.37147282
v -0.331624848 5.33537328 1.40509457
v -0.318453441 5.20937837 1.25691623
v -0.314987281 5.19256749 1.24426475
v -0.336824088 5.19118103 1.27494026
v -0.331624848 5.17679646 1.26159555
v -0.338037244 5.31752255 1.39105662
v -0.315507205 5.31908233 1.42277198
v -0.318973365 5.17402354 1.29365753
v -0.315507205 5.16085213 1.27823312
v -0.319839905 5.29967183 1.41064042
v -0.0943662032 5.22168323 1.50959929
v -0.101991755 5.20383251 1.49625457
v -0.0609177602 5.20244605 1.53351579
v -0.100431983 5.07801091 1.37909837
v -0.0943662032 5.06345303 1.36471381
v -0.0642106121 5.05530756 1.40232164
v -0.0609177602 5.04265607 1.38516415
v -0.0650771521 5.18112916 1.518438
v -0.0368279489 5.17575661 1.55916538
v -0.0382144129 5.02723166 1.43143738
v -0.0366546409 5.01631326 1.41254681
v -0.0383877209 5.15201342 1.54859359
v 0.108750767 4.87991987 1.75535003
v 0.105457915 4.8568699 1.73975231
v 0.123828562 4.86085599 1.75448349
v 0.123828562 4.82810078 1.72935383
v 0.123828562 4.69967955 1.60769162
v 0.106151147 4.71909005 1.60439876
v 0.108750767 4.70643856 1.58862774
v 0.123828562 4.68962769 1.59122736
v -0.032841865 5.47488621 1.22866703
v -0.0409873408 5.45304941 1.2844722
v -0.0572782923 5.45096971 1.25951585
v -0.0912466593 5.43051937 1.28065943
v -0.0208836134 5.47592606 1.25345007
v 0.129894342 5.67886972 0.916539331
v 0.119149247 5.67159079 0.884477352
v 0.129894342 5.67280394 0.879971344
v 0.140812746 5.67159079 0.884477352
v 0.290550854 5.47557945 1.22728057
v 0.127294722 5.34507853 1.41739944
v -0.0773820197 5.43537199 1.30301616
v -0.298176405 5.35513039 1.40873404
v -0.314987281 5.35079769 1.38897693
v 0.277726062 5.47731253 1.24998391
v 0.298176405 5.45391595 1.28360566
v 0.314640665 5.45183625 1.25778277
v -0.298523021 5.33901275 1.42693138
v 0.335437624 5.43537199 1.30301616
v 0.348262416 5.43242576 1.28048612
v -0.306495189 5.34715822 1.41791936
v -0.331624848 5.33537328 1.40509457
v -0.315507205 5.31908233 1.42277198
v -0.0784218677 5.24369335 1.5141053
v -0.0943662032 5.22168323 1.50959929
v -0.0444535007 5.22584263 1.53334249
v -0.0609177602 5.20244605 1.53351579
v -0.0368279489 5.17575661 1.55916538
v -0.0224433853 5.19516711 1.55951199
v 0.12400187 4.90868899 1.76297558
v 0.108750767 4.87991987 1.75535003
v 0.123828562 4.86085599 1.75448349
v 0.139252974 4.88026648 1.75535003
v 0.272873438 5.1970735 1.55881876
v 0.286738078 5.17627654 1.55899207
v 0.294883553 5.22705578 1.53178271
v 0.311174505 5.20296597 1.53212933
v 0.344969564 5.22254977 1.50821283
v 0.32971846 5.24507981 1.51237222
v 0.55189931 5.33901275 1.42693138
v 0.568883493 5.31908233 1.42294529
v 0.552245926 5.35513039 1.40890734
v 0.569403417 5.35010446 1.38967016
v 0.585347753 5.33485335 1.40648103
v 0.560218094 5.34646499 1.41791936
v 0.129894342 5.48927078 0.727980233
v 0.13006765 5.49966926 0.713768977
v 0.119149247 5.4984561 0.715155441
v 0.140812746 5.4984561 0.715155441
v -0.032841865 5.31665601 1.08412816
v 0.28396515 5.2859805 1.09747288
v 0.290550854 5.31752255 1.08256839
v -0.0266027772 5.28476734 1.09764619
v -0.0572782923 5.2923929 1.11185744
v 0.298176405 5.27038278 1.11445706
v 0.314640665 5.29308613 1.11168413
v 0.126948106 5.16345175 1.24946399
v -0.0409873408 5.27055609 1.1153236
v -0.0912466593 5.27176924 1.13404086
v 0.318106825 5.25825122 1.12537547
v 0.348262416 5.27384894 1.1347341
v -0.0610910682 5.25755799 1.12624201
v -0.314987281 5.19256749 1.24426475
v -0.300949333 5.16362506 1.24929068
v 0.314987281 5.05565417 1.35206232
v -0.331624848 5.17679646 1.26159555
v -0.315507205 5.16085213 1.27823312
v -0.0943662032 5.06345303 1.36471381
v 0.554845546 5.16345175 1.24946399
v 0.569403417 5.19222087 1.24426475
v 0.585347753 5.17610323 1.26280871
v 0.568883493 5.16085213 1.27927296
v 0.344969564 5.06379965 1.36332734
v -0.0642106121 5.05426771 1.35240894
v -0.0609177602 5.04265607 1.38516415
v 0.294883553 5.04334931 1.36298073
v 0.311174505 5.04386923 1.38499084
v -0.0444535007 5.04265607 1.36419388
v -0.0366546409 5.01631326 1.41254681
v 0.280325682 5.0280982 1.3797916
v 0.286738078 5.01787303 1.4123735
v -0.0300689371 5.02705836 1.38013822
v 0.108750767 4.70643856 1.58862774
v 0.12400187 4.71631712 1.58100218
v 0.139252974 4.70695849 1.58862774
v 0.123828562 4.68962769 1.59122736
vt 0.060943051 0.863292944
vt 0.309981605 0.873952181
vt 0.309012583 0.869107073
vt 0.060943051 0.860385879
vt 0.0493147917 0.8613549
vt 0.308043561 0.864261965
vt 0.0502838133 0.858447836
vt 0.038655554 0.856509792
vt 0.060943051 0.858447836
vt 0.0396245756 0.854571749
vt 0.0347794676 0.853602727
vt 0.060943051 0.835191317
vt 0.298353345 0.778988064
vt 0.0502838133 0.856509792
vt 0.0357484892 0.851664684
vt 0.0299343595 0.849726641
vt 0.0531908782 0.835191317
vt 0.0405935972 0.851664684
vt 0.060943051 0.832284252
vt 0.298353345 0.774142956
vt 0.0318724028 0.847788598
vt 0.0231512083 0.841974468
vt 0.0367175108 0.848757619
vt 0.0531908782 0.832284252
vt 0.0464077269 0.832284252
vt 0.0599740294 0.830346209
vt 0.297384324 0.770266869
vt 0.0541598998 0.830346209
vt 0.0473767485 0.829377187
vt 0.0464077269 0.826470122
vt 0.0435006621 0.830346209
vt 0.0444696837 0.828408166
vt 0.0435006621 0.824532079
vt 0.0425316405 0.826470122
vt 0.0328414244 0.845850555
vt 0.0396245756 0.823563058
vt 0.0405935972 0.822594036
vt 0.0376865324 0.819686971
vt 0.0415626189 0.828408166
vt 0.0250892515 0.841005447
vt 0.0183061002 0.835191317
vt 0.038655554 0.825501101
vt 0.0270272947 0.840036425
vt 0.0367175108 0.820655993
vt 0.0212131651 0.834222295
vt 0.0357484892 0.819686971
vt 0.0376865324 0.81871795
vt 0.0231512083 0.834222295
vt 0.0347794676 0.822594036
vt 0.0192751218 0.83131523
vt 0.0173370786 0.83131523
vt 0.0221821867 0.830346209
vt 0.0192751218 0.827439144
vt 0.0173370786 0.827439144
vt 0.0202441435 0.815810885
vt 0.0221821867 0.827439144
vt 0.0328414244 0.820655993
vt 0.033810446 0.821625014
vt 0.0231512083 0.815810885
vt 0.0250892515 0.804182625
vt 0.0347794676 0.819686971
vt 0.0347794676 0.819686971
vt 0.0376865324 0.817748928
vt 0.038655554 0.813872841
vt 0.0367175108 0.81290382
vt 0.0405935972 0.809996755
vt 0.0357484892 0.811934798
vt 0.0289653379 0.806120669
vt 0.0250892515 0.816779906
vt 0.0270272947 0.805151647
vt 0.0318724028 0.794492409
vt 0.0309033812 0.792554366
vt 0.0396245756 0.80708969
vt 0.0376865324 0.805151647
vt 0.0405935972 0.80708969
vt 0.0415626189 0.809027733
vt 0.0328414244 0.797399474
vt 0.038655554 0.804182625
vt 0.0415626189 0.80708969
vt 0.0425316405 0.809027733
vt 0.0425316405 0.809996755
vt 0.033810446 0.793523388
vt 0.0328414244 0.790616323
vt 0.0347794676 0.796430453
vt 0.0405935972 0.804182625
vt 0.0444696837 0.80708969
vt 0.0367175108 0.793523388
vt 0.0357484892 0.790616323
vt 0.0464077269 0.794492409
vt 0.0376865324 0.796430453
vt 0.0454387053 0.808058712
vt 0.0435006621 0.809996755
vt 0.0435006621 0.809996755
vt 0.0464077269 0.797399474
vt 0.0483457701 0.795461431
vt 0.0464077269 0.799337517
vt 0.0464077269 0.805151647
vt 0.0551289214 0.798368496
vt 0.0570669646 0.797399474
vt 0.0580359862 0.798368496
vt 0.0522218566 0.800306539
vt 0.0483457701 0.806120669
vt 0.0454387053 0.809027733
vt 0.056097943 0.800306539
vt 0.0464077269 0.815810885
vt 0.0435006621 0.817748928
vt 0.0444696837 0.81871795
vt 0.0570669646 0.801275561
vt 0.0590050078 0.800306539
vt 0.0599740294 0.809027733
vt 0.0541598998 0.801275561
vt 0.0483457701 0.80708969
vt 0.0551289214 0.803213604
vt 0.0570669646 0.810965777
vt 0.0590050078 0.81290382
vt 0.0580359862 0.81871795
vt 0.0464077269 0.816779906
vt 0.0454387053 0.819686971
vt 0.0483457701 0.813872841
vt 0.0551289214 0.809996755
vt 0.056097943 0.816779906
vt 0.0541598998 0.813872841
vt 0.0483457701 0.814841863
vt 0.0473767485 0.817748928
vt 0.056097943 0.817748928
vt 0.0570669646 0.819686971
vt 0.0541598998 0.814841863
vt 0.0541598998 0.817748928
vt 0.056097943 0.819686971
vt 0.0531908782 0.815810885
vt 0.0502838133 0.815810885
vt 0.256685416 0.925310327
vt 0.0212131651 0.862323922
vt 0.0202441435 0.86716903
vt 0.255716395 0.92724837
vt 0.0192751218 0.872014138
vt 0.262499546 0.92724837
vt 0.262499546 0.924341305
vt 0.270251719 0.92143424
vt 0.255716395 0.930155435
vt 0.263468567 0.929186413
vt 0.254747373 0.953411953
vt 0.00861588414 0.956319018
vt 0.00764686253 0.961164126
vt 0.269282697 0.924341305
vt 0.254747373 0.955349996
vt 0.00764686253 0.966009234
vt 0.255716395 0.958257061
vt 0.272189762 0.923372283
vt 0.273158783 0.919496197
vt 0.265406611 0.95147391
vt 0.266375632 0.953411953
vt 0.266375632 0.956319018
vt 0.270251719 0.92724837
vt 0.276065848 0.948566845
vt 0.27703487 0.95147391
vt 0.276065848 0.946628802
vt 0.280910956 0.946628802
vt 0.281879978 0.948566845
vt 0.272189762 0.925310327
vt 0.279941935 0.943721737
vt 0.284787043 0.942752716
vt 0.285756064 0.944690759
vt 0.283818021 0.940814672
vt 0.275096827 0.923372283
vt 0.290601172 0.935969564
vt 0.292539216 0.937907607
vt 0.289632151 0.935000543
vt 0.295446281 0.929186413
vt 0.297384324 0.930155435
vt 0.299322367 0.926279348
vt 0.293508237 0.929186413
vt 0.296415302 0.926279348
vt 0.299322367 0.923372283
vt 0.278003892 0.920465219
vt 0.274127805 0.92143424
vt 0.275096827 0.917558154
vt 0.27703487 0.918527175
vt 0.281879978 0.917558154
vt 0.279941935 0.91562011
vt 0.278972913 0.914651089
vt 0.294477259 0.926279348
vt 0.296415302 0.922403262
vt 0.280910956 0.91562011
vt 0.278972913 0.913682067
vt 0.282849 0.916589132
vt 0.283818021 0.91562011
vt 0.281879978 0.914651089
vt 0.278972913 0.912713046
vt 0.279941935 0.907867938
vt 0.278003892 0.908836959
vt 0.294477259 0.911744024
vt 0.296415302 0.910775002
vt 0.294477259 0.922403262
vt 0.291570194 0.911744024
vt 0.280910956 0.906898916
vt 0.287694108 0.901084786
vt 0.289632151 0.900115765
vt 0.291570194 0.899146743
vt 0.285756064 0.887518484
vt 0.284787043 0.889456527
vt 0.283818021 0.885580441
vt 0.283818021 0.892363592
vt 0.282849 0.888487505
vt 0.281879978 0.885580441
vt 0.278972913 0.900115765
vt 0.281879978 0.89139457
vt 0.280910956 0.888487505
vt 0.27122074 0.889456527
vt 0.27703487 0.902053808
vt 0.276065848 0.904960873
vt 0.275096827 0.903991851
vt 0.278003892 0.899146743
vt 0.27703487 0.902053808
vt 0.274127805 0.903991851
vt 0.276065848 0.902053808
vt 0.274127805 0.904960873
vt 0.270251719 0.892363592
vt 0.268313675 0.890425549
vt 0.279941935 0.89139457
vt 0.27703487 0.899146743
vt 0.27122074 0.894301635
vt 0.262499546 0.893332613
vt 0.260561503 0.89139457
vt 0.258623459 0.893332613
vt 0.270251719 0.900115765
vt 0.264437589 0.895270657
vt 0.272189762 0.902053808
vt 0.269282697 0.901084786
vt 0.27122074 0.90302283
vt 0.274127805 0.904960873
vt 0.273158783 0.904960873
vt 0.262499546 0.896239678
vt 0.260561503 0.895270657
vt 0.27122074 0.903991851
vt 0.273158783 0.912713046
vt 0.268313675 0.902053808
vt 0.262499546 0.898177722
vt 0.259592481 0.896239678
vt 0.259592481 0.904960873
vt 0.257654438 0.895270657
vt 0.257654438 0.903991851
vt 0.257654438 0.907867938
vt 0.27122074 0.910775002
vt 0.262499546 0.904960873
vt 0.260561503 0.911744024
vt 0.258623459 0.913682067
vt 0.259592481 0.914651089
vt 0.269282697 0.908836959
vt 0.262499546 0.908836959
vt 0.261530524 0.912713046
vt 0.260561503 0.914651089
vt 0.270251719 0.911744024
vt 0.272189762 0.913682067
vt 0.268313675 0.909805981
vt 0.263468567 0.909805981
vt 0.262499546 0.912713046
vt 0.269282697 0.912713046
vt 0.27122074 0.914651089
vt 0.267344654 0.910775002
vt 0.264437589 0.910775002
vt 0.315795734 0.739258178
vt 0.314826713 0.764452739
vt 0.315795734 0.764452739
vt 0.314826713 0.739258178
vt 0.313857691 0.764452739
vt 0.313857691 0.739258178
vt 0.309012583 0.739258178
vt 0.309012583 0.764452739
vt 0.305136497 0.764452739
vt 0.305136497 0.739258178
vt 0.300291389 0.739258178
vt 0.300291389 0.764452739
vt 0.291570194 0.764452739
vt 0.291570194 0.739258178
vt 0.283818021 0.739258178
vt 0.283818021 0.764452739
vt 0.00377077609 0.764452739
vt 0.00377077609 0.739258178
vt 0.0144300138 0.995079882
vt 0.00958490575 0.971823364
vt 0.00958490575 0.995079882
vt 0.0144300138 0.971823364
vt 0.0192751218 0.995079882
vt 0.0192751218 0.971823364
vt 0.0202441435 0.971823364
vt 0.0202441435 0.995079882
vt 0.0212131651 0.971823364
vt 0.0212131651 0.995079882
vt 0.0221821867 0.971823364
vt 0.0221821867 0.995079882
vt 0.0221821867 0.971823364
vt 0.0221821867 0.995079882
vt 0.0231512083 0.971823364
vt 0.0231512083 0.995079882
vt 0.0309033812 0.995079882
vt 0.0309033812 0.971823364
vt 0.0328414244 0.971823364
vt 0.0328414244 0.995079882
vt 0.033810446 0.971823364
vt 0.033810446 0.995079882
vt 0.0454387053 0.995079882
vt 0.0454387053 0.971823364
vt 0.0464077269 0.971823364
vt 0.0464077269 0.995079882
vt 0.0473767485 0.971823364
vt 0.0473767485 0.995079882
vt 0.0541598998 0.995079882
vt 0.0541598998 0.971823364
vt 0.0580359862 0.971823364
vt 0.0580359862 0.995079882
vt 0.0677262023 0.971823364
vt 0.0677262023 0.995079882
vt 0.0696642455 0.995079882
vt 0.0696642455 0.971823364
vt 0.0725713104 0.995079882
vt 0.0725713104 0.971823364
vt 0.0822615264 0.995079882
vt 0.0822615264 0.971823364
vt 0.0851685913 0.971823364
vt 0.0851685913 0.995079882
vt 0.0977658722 0.995079882
vt 0.0977658722 0.971823364
vt 0.0997039154 0.995079882
vt 0.0997039154 0.971823364
vt 0.10261098 0.995079882
vt 0.10261098 0.971823364
vt 0.118115326 0.995079882
vt 0.118115326 0.971823364
vt 0.131681629 0.971823364
vt 0.131681629 0.995079882
vt 0.146216953 0.995079882
vt 0.146216953 0.971823364
vt 0.150093039 0.971823364
vt 0.150093039 0.995079882
vt 0.153969126 0.971823364
vt 0.153969126 0.995079882
vt 0.164628363 0.995079882
vt 0.164628363 0.971823364
vt 0.175287601 0.971823364
vt 0.175287601 0.995079882
vt 0.182070752 0.971823364
vt 0.182070752 0.995079882
vt 0.187884882 0.971823364
vt 0.187884882 0.995079882
vt 0.201451184 0.971823364
vt 0.201451184 0.995079882
vt 0.214048465 0.971823364
vt 0.214048465 0.995079882
vt 0.491188646 0.971823364
vt 0.491188646 0.995079882
vt 0.335176166 0.696621227
vt 0.33711421 0.693714162
vt 0.335176166 0.693714162
vt 0.33711421 0.696621227
vt 0.335176166 0.72859894
vt 0.351649534 0.696621227
vt 0.351649534 0.693714162
vt 0.353587577 0.693714162
vt 0.353587577 0.696621227
vt 0.33711421 0.72859894
vt 0.335176166 0.732475026
vt 0.351649534 0.72859894
vt 0.353587577 0.72859894
vt 0.351649534 0.732475026
vt 0.353587577 0.732475026
vt 0.33711421 0.732475026
vt 0.335176166 0.736351113
vt 0.351649534 0.736351113
vt 0.353587577 0.736351113
vt 0.33711421 0.736351113
vt 0.335176166 0.757669588
vt 0.33711421 0.757669588
vt 0.335176166 0.760576653
vt 0.351649534 0.757669588
vt 0.353587577 0.757669588
vt 0.351649534 0.760576653
vt 0.353587577 0.760576653
vt 0.33711421 0.760576653
vt 0.335176166 0.762514696
vt 0.351649534 0.762514696
vt 0.353587577 0.762514696
vt 0.33711421 0.762514696
vt 0.335176166 0.784802193
vt 0.33711421 0.784802193
vt 0.335176166 0.78867828
vt 0.351649534 0.784802193
vt 0.353587577 0.784802193
vt 0.351649534 0.78867828
vt 0.353587577 0.78867828
vt 0.33711421 0.78867828
vt 0.335176166 0.792554366
vt 0.351649534 0.792554366
vt 0.353587577 0.792554366
vt 0.33711421 0.792554366
vt 0.335176166 0.828408166
vt 0.33711421 0.828408166
vt 0.335176166 0.829377187
vt 0.351649534 0.828408166
vt 0.353587577 0.828408166
vt 0.351649534 0.829377187
vt 0.353587577 0.829377187
vt 0.33711421 0.829377187
vt 0.335176166 0.830346209
vt 0.351649534 0.830346209
vt 0.353587577 0.830346209
vt 0.33711421 0.830346209
vt 0.335176166 0.866200008
vt 0.33711421 0.866200008
vt 0.335176166 0.870076095
vt 0.351649534 0.866200008
vt 0.353587577 0.866200008
vt 0.351649534 0.870076095
vt 0.353587577 0.870076095
vt 0.33711421 0.870076095
vt 0.335176166 0.874921203
vt 0.351649534 0.874921203
vt 0.353587577 0.874921203
vt 0.33711421 0.874921203
vt 0.335176166 0.896239678
vt 0.33711421 0.896239678
vt 0.335176166 0.899146743
vt 0.351649534 0.896239678
vt 0.353587577 0.896239678
vt 0.351649534 0.899146743
vt 0.353587577 0.899146743
vt 0.33711421 0.899146743
vt 0.335176166 0.901084786
vt 0.351649534 0.901084786
vt 0.353587577 0.901084786
vt 0.33711421 0.901084786
vt 0.335176166 0.922403262
vt 0.33711421 0.922403262
vt 0.335176166 0.926279348
vt 0.351649534 0.922403262
vt 0.353587577 0.922403262
vt 0.351649534 0.926279348
vt 0.353587577 0.926279348
vt 0.33711421 0.926279348
vt 0.335176166 0.930155435
vt 0.351649534 0.930155435
vt 0.353587577 0.930155435
vt 0.33711421 0.930155435
vt 0.335176166 0.962133148
vt 0.33711421 0.962133148
vt 0.335176166 0.965040213
vt 0.33711421 0.965040213
vt 0.351649534 0.965040213
vt 0.351649534 0.962133148
vt 0.353587577 0.962133148
vt 0.353587577 0.965040213
vt 0.374906052 0.882673376
vt 0.377813117 0.877828268
vt 0.374906052 0.878797289
vt 0.373937031 0.874921203
vt 0.376844096 0.881704354
vt 0.368122901 0.91562011
vt 0.366184858 0.917558154
vt 0.36715388 0.918527175
vt 0.368122901 0.919496197
vt 0.398162571 0.899146743
vt 0.398162571 0.874921203
vt 0.376844096 0.874921203
vt 0.368122901 0.854571749
vt 0.366184858 0.854571749
vt 0.398162571 0.8972087
vt 0.401069636 0.895270657
vt 0.401069636 0.898177722
vt 0.369091923 0.852633706
vt 0.404945722 0.895270657
vt 0.404945722 0.8972087
vt 0.368122901 0.853602727
vt 0.366184858 0.852633706
vt 0.368122901 0.850695663
vt 0.390410398 0.854571749
vt 0.390410398 0.852633706
vt 0.394286485 0.854571749
vt 0.394286485 0.852633706
vt 0.397193549 0.850695663
vt 0.397193549 0.853602727
vt 0.425295176 0.836160339
vt 0.424326155 0.833253274
vt 0.427233219 0.833253274
vt 0.427233219 0.836160339
vt 0.417543003 0.868138052
vt 0.420450068 0.86716903
vt 0.417543003 0.872014138
vt 0.419481046 0.871045116
vt 0.42141909 0.874921203
vt 0.418512025 0.874921203
vt 0.427233219 0.895270657
vt 0.430140284 0.895270657
vt 0.426264198 0.896239678
vt 0.427233219 0.898177722
vt 0.429171263 0.8972087
vt 0.427233219 0.896239678
vt 0.370060944 0.744103286
vt 0.369091923 0.742165242
vt 0.369091923 0.743134264
vt 0.370060944 0.742165242
vt 0.377813117 0.778988064
vt 0.402038658 0.764452739
vt 0.401069636 0.761545675
vt 0.380720182 0.779957085
vt 0.378782139 0.781895128
vt 0.403976701 0.765421761
vt 0.403976701 0.763483718
vt 0.401069636 0.785771215
vt 0.380720182 0.78286415
vt 0.377813117 0.785771215
vt 0.405914744 0.766390783
vt 0.407852787 0.763483718
vt 0.379751161 0.784802193
vt 0.369091923 0.806120669
vt 0.371029966 0.80708969
vt 0.420450068 0.786740236
vt 0.369091923 0.809027733
vt 0.371029966 0.809996755
vt 0.393317463 0.808058712
vt 0.430140284 0.764452739
vt 0.430140284 0.762514696
vt 0.432078327 0.763483718
vt 0.432078327 0.765421761
vt 0.423357133 0.785771215
vt 0.395255506 0.806120669
vt 0.396224528 0.808058712
vt 0.420450068 0.78867828
vt 0.422388111 0.789647301
vt 0.397193549 0.806120669
vt 0.400100614 0.809996755
vt 0.420450068 0.791585344
vt 0.423357133 0.792554366
vt 0.399131593 0.80708969
vt 0.427233219 0.826470122
vt 0.428202241 0.824532079
vt 0.430140284 0.824532079
vt 0.429171263 0.826470122
g matou4matuo4_mobile_0
f 3/3/3 2/2/2 1/1/1
f 4/4/4 3/3/3 1/1/1
f 1/1/1 5/5/5 4/4/4
f 6/6/6 3/3/3 4/4/4
f 5/5/5 7/7/7 4/4/4
f 5/5/5 8/8/8 7/7/7
f 9/9/9 6/6/6 4/4/4
f 4/4/4 7/7/7 9/9/9
f 8/8/8 10/10/10 7/7/7
f 8/8/8 11/11/11 10/10/10
f 9/9/9 12/12/12 6/6/6
f 12/12/12 13/13/13 6/6/6
f 7/7/7 14/14/14 9/9/9
f 7/7/7 10/10/10 14/14/14
f 11/11/11 15/15/15 10/10/10
f 15/15/15 11/11/11 16/16/16
f 9/9/9 14/14/14 17/17/17
f 12/12/12 9/9/9 17/17/17
f 10/10/10 18/18/18 14/14/14
f 10/10/10 15/15/15 18/18/18
f 17/17/17 14/14/14 18/18/18
f 12/12/12 19/19/19 13/13/13
f 19/19/19 20/20/20 13/13/13
f 21/21/21 15/15/15 16/16/16
f 21/21/21 16/16/16 22/22/22
f 15/15/15 23/23/23 18/18/18
f 23/23/23 15/15/15 21/21/21
f 12/12/12 17/17/17 24/24/24
f 19/19/19 12/12/12 24/24/24
f 25/25/25 17/17/17 18/18/18
f 25/25/25 18/18/18 23/23/23
f 17/17/17 25/25/25 24/24/24
f 19/19/19 26/26/26 20/20/20
f 26/26/26 27/27/27 20/20/20
f 26/26/26 19/19/19 28/28/28
f 19/19/19 24/24/24 28/28/28
f 24/24/24 29/29/29 28/28/28
f 25/25/25 29/29/29 24/24/24
f 29/29/29 30/30/30 28/28/28
f 31/31/31 25/25/25 23/23/23
f 25/25/25 31/31/31 29/29/29
f 29/29/29 32/32/32 30/30/30
f 31/31/31 32/32/32 29/29/29
f 33/33/33 30/30/30 32/32/32
f 34/34/34 33/33/33 32/32/32
f 34/34/34 32/32/32 31/31/31
f 23/23/23 35/35/35 31/31/31
f 35/35/35 23/23/23 21/21/21
f 33/33/33 34/34/34 36/36/36
f 37/37/37 33/33/33 36/36/36
f 38/38/38 37/37/37 36/36/36
f 39/39/39 34/34/34 31/31/31
f 35/35/35 39/39/39 31/31/31
f 35/35/35 21/21/21 40/40/40
f 40/40/40 21/21/21 22/22/22
f 22/22/22 41/41/41 40/40/40
f 36/36/36 34/34/34 42/42/42
f 34/34/34 39/39/39 42/42/42
f 39/39/39 35/35/35 43/43/43
f 43/43/43 35/35/35 40/40/40
f 42/42/42 39/39/39 43/43/43
f 44/44/44 38/38/38 36/36/36
f 44/44/44 36/36/36 42/42/42
f 41/41/41 45/45/45 40/40/40
f 40/40/40 45/45/45 43/43/43
f 44/44/44 46/46/46 38/38/38
f 46/46/46 47/47/47 38/38/38
f 42/42/42 43/43/43 48/48/48
f 45/45/45 48/48/48 43/43/43
f 49/49/49 44/44/44 42/42/42
f 49/49/49 42/42/42 48/48/48
f 46/46/46 44/44/44 49/49/49
f 50/50/50 45/45/45 41/41/41
f 51/51/51 50/50/50 41/41/41
f 52/52/52 48/48/48 45/45/45
f 49/49/49 48/48/48 52/52/52
f 50/50/50 52/52/52 45/45/45
f 53/53/53 50/50/50 51/51/51
f 54/54/54 53/53/53 51/51/51
f 53/53/53 54/54/54 55/55/55
f 53/53/53 56/56/56 50/50/50
f 56/56/56 52/52/52 50/50/50
f 52/52/52 56/56/56 57/57/57
f 58/58/58 52/52/52 57/57/57
f 58/58/58 49/49/49 52/52/52
f 58/58/58 46/46/46 49/49/49
f 58/58/58 57/57/57 46/46/46
f 59/59/59 53/53/53 55/55/55
f 56/56/56 53/53/53 59/59/59
f 59/59/59 55/55/55 60/60/60
f 57/57/57 61/61/61 46/46/46
f 47/47/47 46/46/46 61/61/61
f 47/47/47 61/61/61 62/62/62
f 62/62/62 61/61/61 57/57/57
f 62/62/62 63/63/63 47/47/47
f 64/64/64 63/63/63 62/62/62
f 65/65/65 64/64/64 62/62/62
f 66/66/66 64/64/64 65/65/65
f 67/67/67 65/65/65 62/62/62
f 62/62/62 57/57/57 67/67/67
f 68/68/68 67/67/67 57/57/57
f 56/56/56 69/69/69 57/57/57
f 69/69/69 56/56/56 59/59/59
f 69/69/69 68/68/68 57/57/57
f 69/69/69 59/59/59 68/68/68
f 70/70/70 59/59/59 60/60/60
f 59/59/59 70/70/70 68/68/68
f 71/71/71 70/70/70 60/60/60
f 68/68/68 70/70/70 71/71/71
f 72/72/72 71/71/71 60/60/60
f 73/73/73 66/66/66 65/65/65
f 73/73/73 65/65/65 67/67/67
f 74/74/74 67/67/67 68/68/68
f 74/74/74 73/73/73 67/67/67
f 73/73/73 75/75/75 66/66/66
f 75/75/75 76/76/76 66/66/66
f 77/77/77 74/74/74 68/68/68
f 77/77/77 68/68/68 71/71/71
f 74/74/74 78/78/78 73/73/73
f 78/78/78 75/75/75 73/73/73
f 74/74/74 77/77/77 78/78/78
f 75/75/75 79/79/79 76/76/76
f 79/79/79 75/75/75 78/78/78
f 79/79/79 80/80/80 76/76/76
f 80/80/80 79/79/79 81/81/81
f 71/71/71 72/72/72 82/82/82
f 72/72/72 83/83/83 82/82/82
f 77/77/77 71/71/71 84/84/84
f 77/77/77 84/84/84 78/78/78
f 71/71/71 82/82/82 84/84/84
f 85/85/85 79/79/79 78/78/78
f 85/85/85 78/78/78 84/84/84
f 79/79/79 86/86/86 81/81/81
f 79/79/79 85/85/85 86/86/86
f 87/87/87 82/82/82 83/83/83
f 88/88/88 87/87/87 83/83/83
f 87/87/87 88/88/88 89/89/89
f 90/90/90 84/84/84 82/82/82
f 90/90/90 85/85/85 84/84/84
f 87/87/87 90/90/90 82/82/82
f 86/86/86 91/91/91 81/81/81
f 91/91/91 92/92/92 81/81/81
f 93/93/93 92/92/92 91/91/91
f 94/94/94 87/87/87 89/89/89
f 89/89/89 95/95/95 94/94/94
f 90/90/90 87/87/87 96/96/96
f 90/90/90 96/96/96 85/85/85
f 87/87/87 94/94/94 96/96/96
f 85/85/85 97/97/97 86/86/86
f 86/86/86 97/97/97 91/91/91
f 97/97/97 85/85/85 96/96/96
f 98/98/98 94/94/94 95/95/95
f 96/96/96 94/94/94 98/98/98
f 99/99/99 98/98/98 95/95/95
f 99/99/99 100/100/100 98/98/98
f 97/97/97 96/96/96 101/101/101
f 101/101/101 96/96/96 98/98/98
f 97/97/97 102/102/102 91/91/91
f 97/97/97 101/101/101 102/102/102
f 103/103/103 93/93/93 91/91/91
f 103/103/103 91/91/91 102/102/102
f 100/100/100 104/104/104 98/98/98
f 98/98/98 104/104/104 101/101/101
f 103/103/103 105/105/105 93/93/93
f 105/105/105 106/106/106 93/93/93
f 107/107/107 106/106/106 105/105/105
f 108/108/108 104/104/104 100/100/100
f 109/109/109 108/108/108 100/100/100
f 109/109/109 110/110/110 108/108/108
f 104/104/104 111/111/111 101/101/101
f 101/101/101 111/111/111 102/102/102
f 104/104/104 108/108/108 111/111/111
f 112/112/112 103/103/103 102/102/102
f 105/105/105 103/103/103 112/112/112
f 102/102/102 111/111/111 113/113/113
f 108/108/108 113/113/113 111/111/111
f 112/112/112 102/102/102 113/113/113
f 110/110/110 114/114/114 108/108/108
f 108/108/108 114/114/114 113/113/113
f 114/114/114 110/110/110 115/115/115
f 114/114/114 115/115/115 116/116/116
f 117/117/117 107/107/107 105/105/105
f 118/118/118 107/107/107 117/117/117
f 119/119/119 105/105/105 112/112/112
f 117/117/117 105/105/105 119/119/119
f 120/120/120 112/112/112 113/113/113
f 114/114/114 120/120/120 113/113/113
f 119/119/119 112/112/112 120/120/120
f 121/121/121 114/114/114 116/116/116
f 120/120/120 114/114/114 121/121/121
f 122/122/122 119/119/119 120/120/120
f 122/122/122 120/120/120 121/121/121
f 123/123/123 117/117/117 119/119/119
f 123/123/123 119/119/119 122/122/122
f 124/124/124 118/118/118 117/117/117
f 124/124/124 117/117/117 123/123/123
f 125/125/125 121/121/121 116/116/116
f 126/126/126 125/125/125 116/116/116
f 127/127/127 122/122/122 121/121/121
f 127/127/127 123/123/123 122/122/122
f 125/125/125 127/127/127 121/121/121
f 128/128/128 125/125/125 126/126/126
f 124/124/124 128/128/128 118/118/118
f 129/129/129 128/128/128 126/126/126
f 128/128/128 129/129/129 118/118/118
f 128/128/128 130/130/130 125/125/125
f 130/130/130 127/127/127 125/125/125
f 130/130/130 128/128/128 124/124/124
f 131/131/131 124/124/124 123/123/123
f 131/131/131 123/123/123 127/127/127
f 131/131/131 130/130/130 124/124/124
f 130/130/130 131/131/131 127/127/127
f 134/134/134 133/133/133 132/132/132
f 135/135/135 134/134/134 132/132/132
f 136/136/136 134/134/134 135/135/135
f 135/135/135 132/132/132 137/137/137
f 132/132/132 138/138/138 137/137/137
f 138/138/138 139/139/139 137/137/137
f 140/140/140 136/136/136 135/135/135
f 135/135/135 137/137/137 141/141/141
f 140/140/140 135/135/135 141/141/141
f 140/140/140 142/142/142 136/136/136
f 142/142/142 140/140/140 141/141/141
f 142/142/142 143/143/143 136/136/136
f 144/144/144 143/143/143 142/142/142
f 139/139/139 145/145/145 137/137/137
f 141/141/141 137/137/137 145/145/145
f 146/146/146 144/144/144 142/142/142
f 147/147/147 144/144/144 146/146/146
f 148/148/148 147/147/147 146/146/146
f 139/139/139 149/149/149 145/145/145
f 150/150/150 149/149/149 139/139/139
f 151/151/151 142/142/142 141/141/141
f 146/146/146 142/142/142 151/151/151
f 148/148/148 146/146/146 152/152/152
f 152/152/152 146/146/146 151/151/151
f 153/153/153 148/148/148 152/152/152
f 154/154/154 141/141/141 145/145/145
f 141/141/141 154/154/154 151/151/151
f 154/154/154 145/145/145 149/149/149
f 153/153/153 152/152/152 155/155/155
f 156/156/156 153/153/153 155/155/155
f 151/151/151 157/157/157 152/152/152
f 154/154/154 157/157/157 151/151/151
f 157/157/157 155/155/155 152/152/152
f 156/156/156 155/155/155 158/158/158
f 159/159/159 156/156/156 158/158/158
f 154/154/154 160/160/160 157/157/157
f 160/160/160 154/154/154 149/149/149
f 157/157/157 161/161/161 155/155/155
f 161/161/161 158/158/158 155/155/155
f 160/160/160 161/161/161 157/157/157
f 158/158/158 162/162/162 159/159/159
f 162/162/162 163/163/163 159/159/159
f 161/161/161 164/164/164 158/158/158
f 164/164/164 161/161/161 160/160/160
f 164/164/164 162/162/162 158/158/158
f 165/165/165 160/160/160 149/149/149
f 165/165/165 164/164/164 160/160/160
f 162/162/162 166/166/166 163/163/163
f 166/166/166 167/167/167 163/163/163
f 164/164/164 168/168/168 162/162/162
f 168/168/168 166/166/166 162/162/162
f 167/167/167 166/166/166 169/169/169
f 170/170/170 167/167/167 169/169/169
f 171/171/171 170/170/170 169/169/169
f 169/169/169 166/166/166 172/172/172
f 166/166/166 168/168/168 172/172/172
f 173/173/173 171/171/171 169/169/169
f 173/173/173 169/169/169 172/172/172
f 174/174/174 171/171/171 173/173/173
f 175/175/175 168/168/168 164/164/164
f 165/165/165 175/175/175 164/164/164
f 176/176/176 165/165/165 149/149/149
f 176/176/176 149/149/149 150/150/150
f 176/176/176 150/150/150 177/177/177
f 165/165/165 176/176/176 178/178/178
f 175/175/175 165/165/165 178/178/178
f 178/178/178 176/176/176 177/177/177
f 175/175/175 179/179/179 168/168/168
f 179/179/179 172/172/172 168/168/168
f 179/179/179 175/175/175 178/178/178
f 180/180/180 178/178/178 177/177/177
f 180/180/180 179/179/179 178/178/178
f 181/181/181 180/180/180 177/177/177
f 182/182/182 173/173/173 172/172/172
f 182/182/182 172/172/172 179/179/179
f 183/183/183 174/174/174 173/173/173
f 183/183/183 173/173/173 182/182/182
f 180/180/180 181/181/181 184/184/184
f 181/181/181 185/185/185 184/184/184
f 186/186/186 179/179/179 180/180/180
f 186/186/186 182/182/182 179/179/179
f 184/184/184 186/186/186 180/180/180
f 186/186/186 187/187/187 182/182/182
f 186/186/186 184/184/184 187/187/187
f 184/184/184 185/185/185 188/188/188
f 184/184/184 188/188/188 187/187/187
f 185/185/185 189/189/189 188/188/188
f 190/190/190 188/188/188 189/189/189
f 191/191/191 190/190/190 189/189/189
f 183/183/183 192/192/192 174/174/174
f 192/192/192 193/193/193 174/174/174
f 194/194/194 183/183/183 182/182/182
f 187/187/187 194/194/194 182/182/182
f 194/194/194 195/195/195 183/183/183
f 195/195/195 192/192/192 183/183/183
f 195/195/195 194/194/194 187/187/187
f 196/196/196 187/187/187 188/188/188
f 190/190/190 196/196/196 188/188/188
f 197/197/197 195/195/195 187/187/187
f 195/195/195 197/197/197 192/192/192
f 196/196/196 197/197/197 187/187/187
f 192/192/192 198/198/198 193/193/193
f 197/197/197 198/198/198 192/192/192
f 198/198/198 199/199/199 193/193/193
f 200/200/200 199/199/199 198/198/198
f 201/201/201 200/200/200 198/198/198
f 201/201/201 198/198/198 197/197/197
f 200/200/200 201/201/201 202/202/202
f 203/203/203 197/197/197 196/196/196
f 203/203/203 201/201/201 197/197/197
f 201/201/201 204/204/204 202/202/202
f 201/201/201 203/203/203 204/204/204
f 205/205/205 202/202/202 204/204/204
f 206/206/206 196/196/196 190/190/190
f 206/206/206 203/203/203 196/196/196
f 203/203/203 207/207/207 204/204/204
f 203/203/203 206/206/206 207/207/207
f 208/208/208 205/205/205 204/204/204
f 208/208/208 204/204/204 207/207/207
f 205/205/205 208/208/208 209/209/209
f 210/210/210 206/206/206 190/190/190
f 210/210/210 190/190/190 191/191/191
f 211/211/211 210/210/210 191/191/191
f 211/211/211 212/212/212 210/210/210
f 206/206/206 213/213/213 207/207/207
f 206/206/206 210/210/210 213/213/213
f 212/212/212 214/214/214 210/210/210
f 210/210/210 214/214/214 213/213/213
f 212/212/212 215/215/215 214/214/214
f 215/215/215 216/216/216 214/214/214
f 213/213/213 214/214/214 216/216/216
f 216/216/216 215/215/215 217/217/217
f 208/208/208 218/218/218 209/209/209
f 218/218/218 219/219/219 209/209/209
f 220/220/220 208/208/208 207/207/207
f 220/220/220 207/207/207 213/213/213
f 208/208/208 220/220/220 218/218/218
f 221/221/221 220/220/220 213/213/213
f 221/221/221 213/213/213 216/216/216
f 220/220/220 221/221/221 222/222/222
f 220/220/220 222/222/222 218/218/218
f 218/218/218 223/223/223 219/219/219
f 223/223/223 224/224/224 219/219/219
f 224/224/224 223/223/223 225/225/225
f 221/221/221 216/216/216 226/226/226
f 221/221/221 226/226/226 222/222/222
f 218/218/218 222/222/222 227/227/227
f 223/223/223 218/218/218 227/227/227
f 222/222/222 226/226/226 227/227/227
f 216/216/216 228/228/228 226/226/226
f 228/228/228 216/216/216 217/217/217
f 226/226/226 229/229/229 227/227/227
f 226/226/226 228/228/228 229/229/229
f 228/228/228 217/217/217 230/230/230
f 228/228/228 230/230/230 229/229/229
f 217/217/217 231/231/231 230/230/230
f 230/230/230 231/231/231 232/232/232
f 223/223/223 227/227/227 233/233/233
f 229/229/229 233/233/233 227/227/227
f 223/223/223 234/234/234 225/225/225
f 234/234/234 223/223/223 233/233/233
f 235/235/235 230/230/230 232/232/232
f 235/235/235 232/232/232 236/236/236
f 237/237/237 229/229/229 230/230/230
f 235/235/235 237/237/237 230/230/230
f 238/238/238 233/233/233 229/229/229
f 234/234/234 233/233/233 238/238/238
f 237/237/237 238/238/238 229/229/229
f 225/225/225 234/234/234 239/239/239
f 239/239/239 234/234/234 238/238/238
f 239/239/239 238/238/238 240/240/240
f 241/241/241 225/225/225 239/239/239
f 241/241/241 239/239/239 240/240/240
f 242/242/242 241/241/241 240/240/240
f 243/243/243 242/242/242 240/240/240
f 244/244/244 235/235/235 236/236/236
f 237/237/237 235/235/235 244/244/244
f 237/237/237 245/245/245 238/238/238
f 238/238/238 245/245/245 240/240/240
f 243/243/243 240/240/240 246/246/246
f 247/247/247 243/243/243 246/246/246
f 248/248/248 247/247/247 246/246/246
f 249/249/249 245/245/245 237/237/237
f 249/249/249 237/237/237 244/244/244
f 240/240/240 245/245/245 250/250/250
f 246/246/246 240/240/240 250/250/250
f 250/250/250 245/245/245 249/249/249
f 251/251/251 248/248/248 246/246/246
f 251/251/251 246/246/246 250/250/250
f 252/252/252 248/248/248 251/251/251
f 253/253/253 244/244/244 236/236/236
f 254/254/254 253/253/253 236/236/236
f 255/255/255 249/249/249 244/244/244
f 253/253/253 255/255/255 244/244/244
f 256/256/256 250/250/250 249/249/249
f 256/256/256 251/251/251 250/250/250
f 255/255/255 256/256/256 249/249/249
f 257/257/257 252/252/252 251/251/251
f 257/257/257 251/251/251 256/256/256
f 258/258/258 253/253/253 254/254/254
f 257/257/257 258/258/258 252/252/252
f 259/259/259 258/258/258 254/254/254
f 258/258/258 259/259/259 252/252/252
f 258/258/258 260/260/260 253/253/253
f 260/260/260 255/255/255 253/253/253
f 260/260/260 258/258/258 257/257/257
f 261/261/261 257/257/257 256/256/256
f 261/261/261 256/256/256 255/255/255
f 260/260/260 261/261/261 255/255/255
f 261/261/261 260/260/260 257/257/257
f 264/264/264 263/263/263 262/262/262
f 263/263/263 265/265/265 262/262/262
f 263/263/263 266/266/266 265/265/265
f 266/266/266 267/267/267 265/265/265
f 267/267/267 266/266/266 268/268/268
f 266/266/266 269/269/269 268/268/268
f 269/269/269 270/270/270 268/268/268
f 270/270/270 271/271/271 268/268/268
f 271/271/271 270/270/270 272/272/272
f 270/270/270 273/273/273 272/272/272
f 272/272/272 273/273/273 274/274/274
f 275/275/275 272/272/272 274/274/274
f 276/276/276 275/275/275 274/274/274
f 277/277/277 276/276/276 274/274/274
f 277/277/277 278/278/278 276/276/276
f 278/278/278 279/279/279 276/276/276
f 282/282/282 281/281/281 280/280/280
f 281/281/281 283/283/283 280/280/280
f 280/280/280 283/283/283 284/284/284
f 283/283/283 285/285/285 284/284/284
f 285/285/285 286/286/286 284/284/284
f 286/286/286 287/287/287 284/284/284
f 286/286/286 288/288/288 287/287/287
f 288/288/288 289/289/289 287/287/287
f 289/289/289 288/288/288 290/290/290
f 291/291/291 289/289/289 290/290/290
f 290/290/290 292/292/292 291/291/291
f 292/292/292 293/293/293 291/291/291
f 292/292/292 294/294/294 293/293/293
f 294/294/294 295/295/295 293/293/293
f 296/296/296 295/295/295 294/294/294
f 297/297/297 296/296/296 294/294/294
f 297/297/297 298/298/298 296/296/296
f 298/298/298 299/299/299 296/296/296
f 298/298/298 300/300/300 299/299/299
f 300/300/300 301/301/301 299/299/299
f 302/302/302 301/301/301 300/300/300
f 303/303/303 302/302/302 300/300/300
f 303/303/303 304/304/304 302/302/302
f 304/304/304 305/305/305 302/302/302
f 304/304/304 306/306/306 305/305/305
f 306/306/306 307/307/307 305/305/305
f 308/308/308 307/307/307 306/306/306
f 309/309/309 308/308/308 306/306/306
f 309/309/309 310/310/310 308/308/308
f 310/310/310 311/311/311 308/308/308
f 310/310/310 312/312/312 311/311/311
f 312/312/312 313/313/313 311/311/311
f 313/313/313 312/312/312 314/314/314
f 312/312/312 315/315/315 314/314/314
f 316/316/316 314/314/314 315/315/315
f 317/317/317 316/316/316 315/315/315
f 318/318/318 316/316/316 317/317/317
f 319/319/319 318/318/318 317/317/317
f 319/319/319 320/320/320 318/318/318
f 320/320/320 321/321/321 318/318/318
f 322/322/322 321/321/321 320/320/320
f 323/323/323 322/322/322 320/320/320
f 322/322/322 323/323/323 324/324/324
f 323/323/323 325/325/325 324/324/324
f 326/326/326 324/324/324 325/325/325
f 327/327/327 326/326/326 325/325/325
f 328/328/328 326/326/326 327/327/327
f 329/329/329 328/328/328 327/327/327
f 328/328/328 329/329/329 330/330/330
f 331/331/331 328/328/328 330/330/330
f 331/331/331 330/330/330 332/332/332
f 330/330/330 333/333/333 332/332/332
f 333/333/333 334/334/334 332/332/332
f 334/334/334 335/335/335 332/332/332
f 334/334/334 336/336/336 335/335/335
f 336/336/336 337/337/337 335/335/335
f 337/337/337 336/336/336 338/338/338
f 336/336/336 339/339/339 338/338/338
f 339/339/339 340/340/340 338/338/338
f 340/340/340 341/341/341 338/338/338
f 341/341/341 340/340/340 342/342/342
f 343/343/343 341/341/341 342/342/342
f 343/343/343 342/342/342 344/344/344
f 345/345/345 343/343/343 344/344/344
f 345/345/345 344/344/344 346/346/346
f 347/347/347 345/345/345 346/346/346
f 346/346/346 348/348/348 347/347/347
f 348/348/348 349/349/349 347/347/347
f 348/348/348 350/350/350 349/349/349
f 350/350/350 351/351/351 349/349/349
f 354/354/354 353/353/353 352/352/352
f 353/353/353 355/355/355 352/352/352
f 356/356/356 352/352/352 355/355/355
f 355/355/355 353/353/353 357/357/357
f 353/353/353 358/358/358 357/357/357
f 357/357/357 358/358/358 359/359/359
f 360/360/360 357/357/357 359/359/359
f 361/361/361 356/356/356 355/355/355
f 361/361/361 355/355/355 357/357/357
f 362/362/362 356/356/356 361/361/361
f 363/363/363 357/357/357 360/360/360
f 363/363/363 361/361/361 357/357/357
f 364/364/364 363/363/363 360/360/360
f 363/363/363 364/364/364 365/365/365
f 361/361/361 363/363/363 365/365/365
f 364/364/364 366/366/366 365/365/365
f 367/367/367 362/362/362 361/361/361
f 367/367/367 361/361/361 365/365/365
f 368/368/368 362/362/362 367/367/367
f 365/365/365 366/366/366 369/369/369
f 367/367/367 365/365/365 369/369/369
f 366/366/366 370/370/370 369/369/369
f 371/371/371 368/368/368 367/367/367
f 371/371/371 367/367/367 369/369/369
f 372/372/372 368/368/368 371/371/371
f 373/373/373 372/372/372 371/371/371
f 373/373/373 371/371/371 369/369/369
f 372/372/372 373/373/373 374/374/374
f 375/375/375 369/369/369 370/370/370
f 375/375/375 373/373/373 369/369/369
f 376/376/376 375/375/375 370/370/370
f 377/377/377 375/375/375 376/376/376
f 375/375/375 377/377/377 373/373/373
f 378/378/378 377/377/377 376/376/376
f 373/373/373 379/379/379 374/374/374
f 377/377/377 379/379/379 373/373/373
f 374/374/374 379/379/379 380/380/380
f 381/381/381 377/377/377 378/378/378
f 377/377/377 381/381/381 379/379/379
f 382/382/382 381/381/381 378/378/378
f 379/379/379 383/383/383 380/380/380
f 381/381/381 383/383/383 379/379/379
f 380/380/380 383/383/383 384/384/384
f 383/383/383 385/385/385 384/384/384
f 385/385/385 383/383/383 381/381/381
f 386/386/386 384/384/384 385/385/385
f 387/387/387 381/381/381 382/382/382
f 387/387/387 385/385/385 381/381/381
f 388/388/388 387/387/387 382/382/382
f 387/387/387 388/388/388 389/389/389
f 385/385/385 387/387/387 389/389/389
f 388/388/388 390/390/390 389/389/389
f 391/391/391 386/386/386 385/385/385
f 391/391/391 385/385/385 389/389/389
f 392/392/392 386/386/386 391/391/391
f 389/389/389 390/390/390 393/393/393
f 391/391/391 389/389/389 393/393/393
f 390/390/390 394/394/394 393/393/393
f 395/395/395 392/392/392 391/391/391
f 395/395/395 391/391/391 393/393/393
f 392/392/392 395/395/395 396/396/396
f 395/395/395 397/397/397 396/396/396
f 397/397/397 395/395/395 393/393/393
f 396/396/396 397/397/397 398/398/398
f 399/399/399 393/393/393 394/394/394
f 399/399/399 397/397/397 393/393/393
f 400/400/400 399/399/399 394/394/394
f 401/401/401 399/399/399 400/400/400
f 397/397/397 399/399/399 401/401/401
f 402/402/402 401/401/401 400/400/400
f 397/397/397 403/403/403 398/398/398
f 403/403/403 397/397/397 401/401/401
f 398/398/398 403/403/403 404/404/404
f 405/405/405 401/401/401 402/402/402
f 403/403/403 401/401/401 405/405/405
f 406/406/406 405/405/405 402/402/402
f 403/403/403 407/407/407 404/404/404
f 407/407/407 403/403/403 405/405/405
f 404/404/404 407/407/407 408/408/408
f 407/407/407 409/409/409 408/408/408
f 409/409/409 407/407/407 405/405/405
f 410/410/410 408/408/408 409/409/409
f 411/411/411 405/405/405 406/406/406
f 411/411/411 409/409/409 405/405/405
f 412/412/412 411/411/411 406/406/406
f 411/411/411 412/412/412 413/413/413
f 409/409/409 411/411/411 413/413/413
f 412/412/412 414/414/414 413/413/413
f 415/415/415 410/410/410 409/409/409
f 415/415/415 409/409/409 413/413/413
f 416/416/416 410/410/410 415/415/415
f 413/413/413 414/414/414 417/417/417
f 415/415/415 413/413/413 417/417/417
f 414/414/414 418/418/418 417/417/417
f 419/419/419 416/416/416 415/415/415
f 419/419/419 415/415/415 417/417/417
f 420/420/420 416/416/416 419/419/419
f 421/421/421 420/420/420 419/419/419
f 421/421/421 419/419/419 417/417/417
f 420/420/420 421/421/421 422/422/422
f 423/423/423 417/417/417 418/418/418
f 423/423/423 421/421/421 417/417/417
f 424/424/424 423/423/423 418/418/418
f 425/425/425 423/423/423 424/424/424
f 423/423/423 425/425/425 421/421/421
f 426/426/426 425/425/425 424/424/424
f 421/421/421 427/427/427 422/422/422
f 425/425/425 427/427/427 421/421/421
f 422/422/422 427/427/427 428/428/428
f 429/429/429 425/425/425 426/426/426
f 425/425/425 429/429/429 427/427/427
f 430/430/430 429/429/429 426/426/426
f 427/427/427 431/431/431 428/428/428
f 429/429/429 431/431/431 427/427/427
f 432/432/432 428/428/428 431/431/431
f 433/433/433 432/432/432 431/431/431
f 431/431/431 429/429/429 433/433/433
f 434/434/434 432/432/432 433/433/433
f 435/435/435 429/429/429 430/430/430
f 429/429/429 435/435/435 433/433/433
f 436/436/436 435/435/435 430/430/430
f 435/435/435 436/436/436 437/437/437
f 435/435/435 437/437/437 433/433/433
f 436/436/436 438/438/438 437/437/437
f 439/439/439 434/434/434 433/433/433
f 437/437/437 439/439/439 433/433/433
f 440/440/440 434/434/434 439/439/439
f 437/437/437 438/438/438 441/441/441
f 437/437/437 441/441/441 439/439/439
f 438/438/438 442/442/442 441/441/441
f 443/443/443 440/440/440 439/439/439
f 441/441/441 443/443/443 439/439/439
f 440/440/440 443/443/443 444/444/444
f 443/443/443 445/445/445 444/444/444
f 443/443/443 441/441/441 445/445/445
f 444/444/444 445/445/445 446/446/446
f 445/445/445 447/447/447 446/446/446
f 447/447/447 445/445/445 448/448/448
f 449/449/449 441/441/441 442/442/442
f 441/441/441 449/449/449 445/445/445
f 445/445/445 449/449/449 448/448/448
f 450/450/450 449/449/449 442/442/442
f 448/448/448 449/449/449 450/450/450
f 451/451/451 448/448/448 450/450/450
f 454/454/454 453/453/453 452/452/452
f 454/454/454 455/455/455 453/453/453
f 453/453/453 456/456/456 452/452/452
f 456/456/456 457/457/457 452/452/452
f 457/457/457 458/458/458 452/452/452
f 459/459/459 458/458/458 457/457/457
f 460/460/460 459/459/459 457/457/457
f 461/461/461 460/460/460 457/457/457
f 456/456/456 453/453/453 462/462/462
f 457/457/457 456/456/456 462/462/462
f 455/455/455 463/463/463 453/453/453
f 463/463/463 462/462/462 453/453/453
f 464/464/464 463/463/463 455/455/455
f 462/462/462 463/463/463 464/464/464
f 465/465/465 464/464/464 455/455/455
f 466/466/466 461/461/461 457/457/457
f 466/466/466 457/457/457 462/462/462
f 461/461/461 466/466/466 467/467/467
f 466/466/466 462/462/462 467/467/467
f 468/468/468 461/461/461 467/467/467
f 464/464/464 469/469/469 462/462/462
f 470/470/470 467/467/467 462/462/462
f 468/468/468 467/467/467 471/471/471
f 467/467/467 470/470/470 471/471/471
f 464/464/464 465/465/465 472/472/472
f 464/464/464 472/472/472 469/469/469
f 465/465/465 473/473/473 472/472/472
f 472/472/472 473/473/473 469/469/469
f 473/473/473 474/474/474 469/469/469
f 475/475/475 469/469/469 474/474/474
f 469/469/469 475/475/475 462/462/462
f 476/476/476 475/475/475 474/474/474
f 477/477/477 475/475/475 476/476/476
f 462/462/462 475/475/475 477/477/477
f 478/478/478 477/477/477 476/476/476
f 478/478/478 479/479/479 477/477/477
f 479/479/479 480/480/480 477/477/477
f 480/480/480 462/462/462 477/477/477
f 480/480/480 479/479/479 481/481/481
f 479/479/479 482/482/482 481/481/481
f 482/482/482 483/483/483 481/481/481
f 483/483/483 484/484/484 481/481/481
f 480/480/480 481/481/481 485/485/485
f 485/485/485 481/481/481 484/484/484
f 462/462/462 480/480/480 485/485/485
f 486/486/486 485/485/485 484/484/484
f 487/487/487 485/485/485 486/486/486
f 485/485/485 487/487/487 462/462/462
f 488/488/488 487/487/487 486/486/486
f 488/488/488 489/489/489 487/487/487
f 490/490/490 462/462/462 487/487/487
f 489/489/489 490/490/490 487/487/487
f 470/470/470 462/462/462 490/490/490
f 491/491/491 490/490/490 489/489/489
f 470/470/470 490/490/490 491/491/491
f 492/492/492 491/491/491 489/489/489
f 491/491/491 493/493/493 470/470/470
f 470/470/470 493/493/493 471/471/471
f 493/493/493 494/494/494 471/471/471
f 495/495/495 494/494/494 493/493/493
f 492/492/492 495/495/495 496/496/496
f 491/491/491 492/492/492 496/496/496
f 496/496/496 495/495/495 493/493/493
f 496/496/496 493/493/493 491/491/491
f 499/499/499 498/498/498 497/497/497
f 498/498/498 500/500/500 497/497/497
f 501/501/501 499/499/499 497/497/497
f 497/497/497 500/500/500 502/502/502
f 500/500/500 503/503/503 502/502/502
f 504/504/504 501/501/501 497/497/497
f 501/501/501 504/504/504 505/505/505
f 506/506/506 502/502/502 503/503/503
f 507/507/507 506/506/506 503/503/503
f 497/497/497 502/502/502 508/508/508
f 504/504/504 497/497/497 508/508/508
f 506/506/506 508/508/508 502/502/502
f 504/504/504 509/509/509 505/505/505
f 504/504/504 508/508/508 509/509/509
f 505/505/505 509/509/509 510/510/510
f 511/511/511 506/506/506 507/507/507
f 511/511/511 508/508/508 506/506/506
f 512/512/512 511/511/511 507/507/507
f 509/509/509 513/513/513 510/510/510
f 509/509/509 508/508/508 513/513/513
f 514/514/514 510/510/510 513/513/513
f 515/515/515 513/513/513 508/508/508
f 515/515/515 514/514/514 513/513/513
f 508/508/508 511/511/511 516/516/516
f 517/517/517 514/514/514 515/515/515
f 518/518/518 517/517/517 515/515/515
f 519/519/519 518/518/518 515/515/515
f 511/511/511 512/512/512 520/520/520
f 511/511/511 520/520/520 516/516/516
f 512/512/512 521/521/521 520/520/520
f 521/521/521 522/522/522 520/520/520
f 522/522/522 523/523/523 520/520/520
f 520/520/520 523/523/523 516/516/516
f 523/523/523 524/524/524 516/516/516
f 525/525/525 519/519/519 515/515/515
f 525/525/525 515/515/515 508/508/508
f 519/519/519 525/525/525 526/526/526
f 527/527/527 516/516/516 524/524/524
f 527/527/527 508/508/508 516/516/516
f 528/528/528 527/527/527 524/524/524
f 525/525/525 529/529/529 526/526/526
f 525/525/525 508/508/508 529/529/529
f 526/526/526 529/529/529 530/530/530
f 531/531/531 527/527/527 528/528/528
f 531/531/531 508/508/508 527/527/527
f 532/532/532 531/531/531 528/528/528
f 529/529/529 533/533/533 530/530/530
f 529/529/529 508/508/508 533/533/533
f 534/534/534 530/530/530 533/533/533
f 531/531/531 532/532/532 535/535/535
f 508/508/508 531/531/531 535/535/535
f 533/533/533 508/508/508 535/535/535
f 535/535/535 534/534/534 533/533/533
f 532/532/532 536/536/536 535/535/535
f 537/537/537 534/534/534 535/535/535
f 536/536/536 537/537/537 535/535/535
