g Object001
v 0.0120352965 -0.169585625 -0.0167061071
v 0.012774397 -0.159024869 -0.0156622229
v 0.0120352965 -0.150285196 -0.0803297104
v 0.012774397 -0.140920716 -0.0753236377
v 0.0120352965 -0.108103128 -0.131723867
v 0.012774397 -0.101367407 -0.123525184
v 0.0120352965 -0.0494627383 -0.163070873
v 0.012774397 -0.0463844227 -0.152913955
v 0.0120352965 0.0167058091 -0.169585625
v 0.012774397 0.0156619248 -0.159024869
v 0.0120352965 0.0803294124 -0.150285196
v 0.012774397 0.0753233397 -0.140928335
v 0.012774397 0.123524886 -0.101375027
v 0.0120352965 0.131723569 -0.108103128
v 0.012774397 0.152913657 -0.0463844227
v 0.0120352965 0.163070575 -0.0494627383
v 0.012774397 0.159024571 0.0156619248
v 0.0120352965 0.169585327 0.0167058091
v 0.012774397 0.140928037 0.0753233397
v 0.0120352965 0.150284898 0.0803294124
v 0.012774397 0.101374729 0.123524886
v 0.0120352965 0.10810283 0.131723569
v 0.012774397 0.0463841247 0.152913657
v 0.0120352965 0.0494700599 0.163070575
v 0.012774397 -0.0156622229 0.159024571
v 0.0120352965 -0.0167061071 0.169585327
v 0.0120352965 -0.0803297104 0.150284898
v 0.012774397 -0.0753236377 0.140928037
v 0.0120352965 -0.131723867 0.10810283
v 0.012774397 -0.123525184 0.101374729
v 0.012774397 -0.152913955 0.0463841247
v 0.0120352965 -0.163070873 0.0494700599
v 0.012774397 -0.159024869 -0.0156622229
v 0.0120352965 -0.169585625 -0.0167061071
v 0.0107094873 -0.227989807 0.0691590888
v 0.0107094873 -0.237102841 -0.0233503924
v 0.0107094873 -0.24967517 -0.0245923861
v 0.0107094873 -0.240074482 0.0728241131
v 0.0107094873 -0.184169527 0.151145912
v -0.012774099 -0.240074482 0.0728241131
v -0.012774099 -0.24967517 -0.0245923861
v -0.012774099 -0.193937845 0.159161724
v 0.0107094873 -0.193937845 0.159161724
v 0.0107094873 -0.112309143 0.210121563
v -0.012774099 -0.118267665 0.221261408
v 0.0107094873 -0.118267665 0.221261408
v -0.012774099 -0.0245923861 0.249674872
v 0.0107094873 -0.0233503924 0.237102543
v 0.0107094873 -0.0245923861 0.249674872
v -0.012774099 0.0728241131 0.240081804
v 0.0107094873 0.0728241131 0.240081804
v 0.0107094873 0.0691590888 0.227989509
v -0.012774099 0.159161724 0.193937547
v 0.0107094873 0.159161724 0.193937547
v 0.0107094873 0.151145912 0.184169229
v -0.012774099 0.221261408 0.118267367
v 0.0107094873 0.210121563 0.112308845
v 0.0107094873 0.221261408 0.118267367
v -0.012774099 0.249674872 0.0245920881
v 0.0107094873 0.249674872 0.0245920881
v 0.0107094873 0.237102543 0.0233500944
v -0.012774099 0.240081804 -0.0728244111
v 0.0107094873 0.227989509 -0.0691593868
v 0.0107094873 0.240081804 -0.0728244111
v -0.012774099 0.193937547 -0.159162022
v 0.0107094873 0.193937547 -0.159162022
v 0.0107094873 0.184169229 -0.15114621
v -0.012774099 0.118267367 -0.221261706
v 0.0107094873 0.118267367 -0.221261706
v 0.0107094873 0.112308845 -0.210121861
v -0.012774099 0.0245920881 -0.24967517
v 0.0107094873 0.0245920881 -0.24967517
v 0.0107094873 0.0233500944 -0.237102841
v -0.012774099 -0.0728244111 -0.240082102
v 0.0107094873 -0.0728244111 -0.240082102
v 0.0107094873 -0.0691593868 -0.227989807
v -0.012774099 -0.159162022 -0.193937845
v 0.0107094873 -0.159162022 -0.193937845
v 0.0107094873 -0.15114621 -0.184169527
v -0.012774099 -0.221261706 -0.118267665
v 0.0107094873 -0.210121861 -0.112309143
v 0.0107094873 -0.221261706 -0.118267665
v -0.012774099 -0.24967517 -0.0245923861
v 0.0107094873 -0.237102841 -0.0233503924
v 0.0107094873 -0.24967517 -0.0245923861
vt 0.387487389 0.430907348
vt 0.387611802 0.430907348
vt 0.387487389 0.430409698
vt 0.387611802 0.430409698
vt 0.387487389 0.429974254
vt 0.387611802 0.429974254
vt 0.387487389 0.429476604
vt 0.387611802 0.429476604
vt 0.387487389 0.429041161
vt 0.387611802 0.429041161
vt 0.387487389 0.428605717
vt 0.387611802 0.428605717
vt 0.387611802 0.428108067
vt 0.387487389 0.428108067
vt 0.387611802 0.427672623
vt 0.387487389 0.427672623
vt 0.387611802 0.427174973
vt 0.387487389 0.427174973
vt 0.387611802 0.42673953
vt 0.387487389 0.42673953
vt 0.387611802 0.426304086
vt 0.387487389 0.426304086
vt 0.387611802 0.425806436
vt 0.387487389 0.425806436
vt 0.387611802 0.425370992
vt 0.387487389 0.425370992
vt 0.387487389 0.424873342
vt 0.387611802 0.424873342
vt 0.387487389 0.424437898
vt 0.387611802 0.424437898
vt 0.387611802 0.424002455
vt 0.387487389 0.424002455
vt 0.387611802 0.423504805
vt 0.387487389 0.423504805
vt 0.387051945 0.440051666
vt 0.387051945 0.439367397
vt 0.386989739 0.439367397
vt 0.386989739 0.440051666
vt 0.387051945 0.440735935
vt 0.38680312 0.440051666
vt 0.38680312 0.439367397
vt 0.38680312 0.440735935
vt 0.386989739 0.440735935
vt 0.387051945 0.441420203
vt 0.38680312 0.441420203
vt 0.386989739 0.441420203
vt 0.38680312 0.442104472
vt 0.387051945 0.442104472
vt 0.386989739 0.442104472
vt 0.38680312 0.442788741
vt 0.386989739 0.442788741
vt 0.387051945 0.442788741
vt 0.38680312 0.443535216
vt 0.386989739 0.443535216
vt 0.387051945 0.443535216
vt 0.38680312 0.444219484
vt 0.387051945 0.444219484
vt 0.386989739 0.444219484
vt 0.38680312 0.444903753
vt 0.386989739 0.444903753
vt 0.387051945 0.444903753
vt 0.38680312 0.445588022
vt 0.387051945 0.445588022
vt 0.386989739 0.445588022
vt 0.38680312 0.44627229
vt 0.386989739 0.44627229
vt 0.387051945 0.44627229
vt 0.38680312 0.446956559
vt 0.386989739 0.446956559
vt 0.387051945 0.446956559
vt 0.38680312 0.447640828
vt 0.386989739 0.447640828
vt 0.387051945 0.447640828
vt 0.38680312 0.448387303
vt 0.386989739 0.448387303
vt 0.387051945 0.448387303
vt 0.38680312 0.449071571
vt 0.386989739 0.449071571
vt 0.387051945 0.449071571
vt 0.38680312 0.44975584
vt 0.387051945 0.44975584
vt 0.386989739 0.44975584
vt 0.38680312 0.450440109
vt 0.387051945 0.450440109
vt 0.386989739 0.450440109
vn 0.917132166 0.394170759 0.0591439118
vn 0.386366696 -0.917132166 -0.0979253082
vn 0.917132166 0.347338512 0.195510992
vn 0.386366696 -0.815662297 -0.430599342
vn 0.917132166 0.253674017 0.307437933
vn 0.386366696 -0.58150106 -0.715945035
vn 0.917132166 0.113177275 0.382177307
vn 0.386366696 -0.269286078 -0.882159727
vn 0.917132166 -0.0351248412 0.397032537
vn 0.386366696 0.0897611518 -0.917967163
vn 0.917132166 -0.183426958 0.353868819
vn 0.386366696 0.433197632 -0.814285323
vn 0.386366696 0.714191116 -0.583653858
vn 0.917132166 -0.308312951 0.252609807
vn 0.386366696 0.878103982 -0.282230709
vn 0.917132166 -0.378561322 0.124739391
vn 0.386366696 0.917130855 0.0979375886
vn 0.917132166 -0.394172071 -0.0591351719
vn 0.386366696 0.815660986 0.430601826
vn 0.917132166 -0.347339823 -0.195508662
vn 0.386366696 0.581499749 0.7159461
vn 0.917132166 -0.253675329 -0.307436851
vn 0.386366696 0.269284767 0.882160128
vn 0.917132166 -0.113178587 -0.382176919
vn 0.386366696 -0.0897624631 0.917967034
vn 0.917132166 0.0351235299 -0.397032653
vn 0.917132166 0.183425646 -0.353869499
vn 0.386366696 -0.433198944 0.814284626
vn 0.917132166 0.308311639 -0.252611407
vn 0.386366696 -0.714192428 0.583652253
vn 0.386366696 -0.878105293 0.282226629
vn 0.917132166 0.37856001 -0.124743371
vn 0.386366696 -0.917132166 -0.0979253082
vn 0.917132166 0.394170759 0.0591439118
vn 0.690776304 -0.690776304 0.213673105
vn 0.690776304 -0.714192428 -0.112948104
vn 0.417588194 -0.901521417 -0.113486716
vn 0.417588194 -0.870299919 0.261147758
vn 0.690776304 -0.558084936 0.459749172
vn -0.00390203163 -0.956159039 0.292821902
vn -0.00390203163 -0.995185912 -0.0979273986
vn -0.00390203163 -0.776635424 0.629938245
vn 0.417588194 -0.706387053 0.57152203
vn 0.690776304 -0.339534449 0.638392086
vn -0.00390203163 -0.472225816 0.881468974
vn 0.417588194 -0.425393569 0.802907474
vn -0.00390203163 -0.0975678376 0.995221227
vn 0.690776304 -0.0741517139 0.719256297
vn 0.417588194 -0.0897624631 0.904191794
vn -0.00390203163 0.29270089 0.95619609
vn 0.417588194 0.261479392 0.870200338
vn 0.690776304 0.20684177 0.692852495
vn -0.00390203163 0.636137371 0.771565953
vn 0.417588194 0.573694374 0.704623917
vn 0.690776304 0.456613756 0.560653169
vn -0.00390203163 0.878103982 0.478453938
vn 0.690776304 0.636137371 0.343740227
vn 0.417588194 0.800050236 0.430743217
vn -0.00390203163 0.9951846 0.0979407238
vn 0.417588194 0.901520106 0.113497132
vn 0.690776304 0.714191116 0.112956396
vn -0.00390203163 0.956157728 -0.292826184
vn 0.690776304 0.690774993 -0.213677344
vn 0.417588194 0.870298607 -0.261152128
vn -0.00390203163 0.776634113 -0.629939861
vn 0.417588194 0.706385742 -0.571523651
vn 0.690776304 0.558083625 -0.459750764
vn -0.00390203163 0.472224505 -0.881469677
vn 0.417588194 0.425392258 -0.802908168
vn 0.690776304 0.339533138 -0.638392784
vn -0.00390203163 0.0975665263 -0.995221356
vn 0.417588194 0.0897611518 -0.904191924
vn 0.690776304 0.0741504026 -0.719256433
vn -0.00390203163 -0.292702202 -0.956195689
vn 0.417588194 -0.261480703 -0.870199943
vn 0.690776304 -0.206843081 -0.692852104
vn -0.00390203163 -0.636138682 -0.771564872
vn 0.417588194 -0.573695686 -0.70462285
vn 0.690776304 -0.456615067 -0.560652101
vn -0.00390203163 -0.878105293 -0.478451532
vn 0.690776304 -0.636138682 -0.3437378
vn 0.417588194 -0.800051548 -0.430740781
vn -0.00390203163 -0.995185912 -0.0979273986
vn 0.690776304 -0.714192428 -0.112948104
vn 0.417588194 -0.901521417 -0.113486716
g Object001_0
f 3/3/3 2/2/2 1/1/1
f 2/2/2 3/3/3 4/4/4
f 5/5/5 4/4/4 3/3/3
f 4/4/4 5/5/5 6/6/6
f 6/6/6 5/5/5 7/7/7
f 7/7/7 8/8/8 6/6/6
f 9/9/9 8/8/8 7/7/7
f 8/8/8 9/9/9 10/10/10
f 11/11/11 10/10/10 9/9/9
f 11/11/11 12/12/12 10/10/10
f 13/13/13 12/12/12 11/11/11
f 11/11/11 14/14/14 13/13/13
f 15/15/15 13/13/13 14/14/14
f 14/14/14 16/16/16 15/15/15
f 17/17/17 15/15/15 16/16/16
f 16/16/16 18/18/18 17/17/17
f 19/19/19 17/17/17 18/18/18
f 18/18/18 20/20/20 19/19/19
f 21/21/21 19/19/19 20/20/20
f 20/20/20 22/22/22 21/21/21
f 23/23/23 21/21/21 22/22/22
f 22/22/22 24/24/24 23/23/23
f 25/25/25 23/23/23 24/24/24
f 24/24/24 26/26/26 25/25/25
f 27/27/27 25/25/25 26/26/26
f 27/27/27 28/28/28 25/25/25
f 28/28/28 27/27/27 29/29/29
f 29/29/29 30/30/30 28/28/28
f 31/31/31 30/30/30 29/29/29
f 29/29/29 32/32/32 31/31/31
f 33/33/33 31/31/31 32/32/32
f 32/32/32 34/34/34 33/33/33
f 37/37/37 36/36/36 35/35/35
f 35/35/35 38/38/38 37/37/37
f 38/38/38 35/35/35 39/39/39
f 37/37/37 38/38/38 40/40/40
f 40/40/40 41/41/41 37/37/37
f 42/42/42 40/40/40 38/38/38
f 39/39/39 43/43/43 38/38/38
f 38/38/38 43/43/43 42/42/42
f 43/43/43 39/39/39 44/44/44
f 45/45/45 42/42/42 43/43/43
f 44/44/44 46/46/46 43/43/43
f 43/43/43 46/46/46 45/45/45
f 47/47/47 45/45/45 46/46/46
f 46/46/46 44/44/44 48/48/48
f 46/46/46 49/49/49 47/47/47
f 48/48/48 49/49/49 46/46/46
f 50/50/50 47/47/47 49/49/49
f 49/49/49 48/48/48 51/51/51
f 49/49/49 51/51/51 50/50/50
f 48/48/48 52/52/52 51/51/51
f 53/53/53 50/50/50 51/51/51
f 54/54/54 51/51/51 52/52/52
f 51/51/51 54/54/54 53/53/53
f 52/52/52 55/55/55 54/54/54
f 53/53/53 54/54/54 56/56/56
f 54/54/54 55/55/55 57/57/57
f 58/58/58 56/56/56 54/54/54
f 57/57/57 58/58/58 54/54/54
f 56/56/56 58/58/58 59/59/59
f 58/58/58 57/57/57 60/60/60
f 60/60/60 59/59/59 58/58/58
f 61/61/61 60/60/60 57/57/57
f 59/59/59 60/60/60 62/62/62
f 60/60/60 61/61/61 63/63/63
f 64/64/64 62/62/62 60/60/60
f 63/63/63 64/64/64 60/60/60
f 62/62/62 64/64/64 65/65/65
f 64/64/64 63/63/63 66/66/66
f 66/66/66 65/65/65 64/64/64
f 63/63/63 67/67/67 66/66/66
f 68/68/68 65/65/65 66/66/66
f 66/66/66 67/67/67 69/69/69
f 66/66/66 69/69/69 68/68/68
f 67/67/67 70/70/70 69/69/69
f 71/71/71 68/68/68 69/69/69
f 72/72/72 69/69/69 70/70/70
f 69/69/69 72/72/72 71/71/71
f 70/70/70 73/73/73 72/72/72
f 74/74/74 71/71/71 72/72/72
f 75/75/75 72/72/72 73/73/73
f 72/72/72 75/75/75 74/74/74
f 76/76/76 75/75/75 73/73/73
f 77/77/77 74/74/74 75/75/75
f 75/75/75 76/76/76 78/78/78
f 75/75/75 78/78/78 77/77/77
f 79/79/79 78/78/78 76/76/76
f 80/80/80 77/77/77 78/78/78
f 78/78/78 79/79/79 81/81/81
f 78/78/78 82/82/82 80/80/80
f 81/81/81 82/82/82 78/78/78
f 83/83/83 80/80/80 82/82/82
f 82/82/82 81/81/81 84/84/84
f 82/82/82 85/85/85 83/83/83
f 84/84/84 85/85/85 82/82/82
