g paizipolySurface17_mobile
v -0.0597968733 0.00143104421 0.0190765706
v -0.0362861988 0.00143104421 0.00372182788
v -0.0578455337 0.00143104421 0.0221519708
v -0.0116013818 0.00143104421 -0.00535598206
v -0.0362861988 0.00143104421 0.00372182788
v -0.0114733947 0.00143104421 -0.00983738558
v -0.0346075274 0.00143104421 -0.0200318366
v -0.0362861988 0.00143104421 0.00372182788
v -0.0385009322 0.00143104421 -0.0178560559
v -0.0485507022 0.00143104421 -0.00896744425
v -0.0362861988 0.00143104421 0.00372182788
v -0.0514480334 0.00143104421 -0.00550808268
v -0.0514480334 0.00143104421 -0.00550808268
v -0.0542452008 0.00143104421 -0.00203017225
v -0.0542452008 0.00143104421 -0.00203017225
v -0.0362861988 0.00143104421 0.00372182788
v -0.0566973596 0.00143104421 0.00169072819
v -0.0566973596 0.00143104421 0.00169072819
v -0.0362861988 0.00143104421 0.00372182788
v -0.0587451532 0.00143104421 0.00568615169
v -0.0420994102 0.00143104421 -0.015179456
v -0.0362861988 0.00143104421 0.00372182788
v -0.0454474786 0.00143104421 -0.0122042196
v -0.0454474786 0.00143104421 -0.0122042196
v -0.0362861988 0.00143104421 0.00372182788
v -0.0485507022 0.00143104421 -0.00896744425
v -0.0385009322 0.00143104421 -0.0178560559
v -0.0362861988 0.00143104421 0.00372182788
v -0.0420994102 0.00143104421 -0.015179456
v -0.0173663661 0.00143104421 -0.0211874303
v -0.0362861988 0.00143104421 0.00372182788
v -0.0215602623 0.00143104421 -0.0226527899
v -0.0260379561 0.00143104421 -0.0225526261
v -0.0362861988 0.00143104421 0.00372182788
v -0.0304099214 0.00143104421 -0.0215843759
v -0.0304099214 0.00143104421 -0.0215843759
v -0.0362861988 0.00143104421 0.00372182788
v -0.0346075274 0.00143104421 -0.0200318366
v -0.0215602623 0.00143104421 -0.0226527899
v -0.0362861988 0.00143104421 0.00372182788
v -0.0260379561 0.00143104421 -0.0225526261
v -0.0120391347 0.00143104421 -0.014272417
v -0.0362861988 0.00143104421 0.00372182788
v -0.0140331367 0.00143104421 -0.0182214683
v -0.0140331367 0.00143104421 -0.0182214683
v -0.0362861988 0.00143104421 0.00372182788
v -0.0173663661 0.00143104421 -0.0211874303
v -0.0114733947 0.00143104421 -0.00983738558
v -0.0362861988 0.00143104421 0.00372182788
v -0.0120391347 0.00143104421 -0.014272417
v -0.0308495292 0.00143104421 0.023899273
v -0.0362861988 0.00143104421 0.00372182788
v -0.0275663818 0.00143104421 0.0208554058
v -0.0186276883 0.00143104421 0.0108074907
v -0.0362861988 0.00143104421 0.00372182788
v -0.0160048801 0.00143104421 0.0071756248
v -0.0138216798 0.00143104421 0.00327480046
v -0.0362861988 0.00143104421 0.00372182788
v -0.0123173676 0.00143104421 -0.000935789767
v -0.0123173676 0.00143104421 -0.000935789767
v -0.0362861988 0.00143104421 0.00372182788
v -0.0116013818 0.00143104421 -0.00535598206
v -0.0160048801 0.00143104421 0.0071756248
v -0.0362861988 0.00143104421 0.00372182788
v -0.0138216798 0.00143104421 0.00327480046
v -0.0244650131 0.00143104421 0.0176186305
v -0.0362861988 0.00143104421 0.00372182788
v -0.0214953413 0.00143104421 0.0142631425
v -0.0214953413 0.00143104421 0.0142631425
v -0.0186276883 0.00143104421 0.0108074907
v -0.0275663818 0.00143104421 0.0208554058
v -0.0244650131 0.00143104421 0.0176186305
v -0.0469721946 0.00143104421 0.029475059
v -0.0362861988 0.00143104421 0.00372182788
v -0.0425167594 0.00143104421 0.0299220865
v -0.0382004407 0.00143104421 0.0290094828
v -0.0362861988 0.00143104421 0.00372182788
v -0.0343756667 0.00143104421 0.0266686172
v -0.0343756667 0.00143104421 0.0266686172
v -0.0362861988 0.00143104421 0.00372182788
v -0.0308495292 0.00143104421 0.023899273
v -0.0425167594 0.00143104421 0.0299220865
v -0.0362861988 0.00143104421 0.00372182788
v -0.0382004407 0.00143104421 0.0290094828
v -0.0512235923 0.00143104421 0.0280690558
v -0.0362861988 0.00143104421 0.00372182788
v -0.0469721946 0.00143104421 0.029475059
v -0.0548740071 0.00143104421 0.0254944746
v -0.0362861988 0.00143104421 0.00372182788
v -0.0512235923 0.00143104421 0.0280690558
v -0.0578455337 0.00143104421 0.0221519708
v -0.0362861988 0.00143104421 0.00372182788
v -0.0548740071 0.00143104421 0.0254944746
v -0.0587451532 0.00143104421 0.00568615169
v -0.0362861988 0.00143104421 0.00372182788
v -0.0601233332 0.00143104421 0.009230838
v -0.0601233332 0.00143104421 0.009230838
v -0.0362861988 0.00143104421 0.00372182788
v -0.0607799627 0.00143104421 0.0127106033
v -0.0607799627 0.00143104421 0.0127106033
v -0.0362861988 0.00143104421 0.00372182788
v -0.0606482658 0.00143104421 0.0158620539
v -0.0606482658 0.00143104421 0.0158620539
v -0.0362861988 0.00143104421 0.00372182788
v -0.0597968733 0.00143104421 0.0190765706
v 0.0607799627 0.00126781428 -0.00147556147
v 0.0599712326 0.00127523382 0.00207654439
v 0.033479757 0.00142918933 -0.00805484056
v 0.00718118946 0.00159056437 -0.00832565385
v 0.0055563097 0.00159798391 -0.0125028561
v 0.033479757 0.00142918933 -0.00805484056
v 0.0239308061 0.00146999681 -0.0298682948
v 0.0283287398 0.00144217353 -0.0291226308
v 0.033479757 0.00142918933 -0.00805484056
v 0.0407768768 0.00137168787 -0.0241218593
v 0.0446684267 0.00134942925 -0.0218366403
v 0.033479757 0.00142918933 -0.00805484056
v 0.0446684267 0.00134942925 -0.0218366403
v 0.0484690872 0.00132717062 -0.0194957747
v 0.0484690872 0.00132717062 -0.0194957747
v 0.0520267577 0.00130862176 -0.0168154651
v 0.033479757 0.00142918933 -0.00805484056
v 0.0520267577 0.00130862176 -0.0168154651
v 0.0552950661 0.00129007291 -0.0137382099
v 0.033479757 0.00142918933 -0.00805484056
v 0.0326153803 0.00141806001 -0.0278112267
v 0.0367684691 0.0013939465 -0.0261307004
v 0.033479757 0.00142918933 -0.00805484056
v 0.0367684691 0.0013939465 -0.0261307004
v 0.0407768768 0.00137168787 -0.0241218593
v 0.033479757 0.00142918933 -0.00805484056
v 0.0283287398 0.00144217353 -0.0291226308
v 0.0326153803 0.00141806001 -0.0278112267
v 0.033479757 0.00142918933 -0.00805484056
v 0.00730175702 0.00157572529 -0.0251735794
v 0.0107592637 0.00155161177 -0.0279614724
v 0.033479757 0.00142918933 -0.00805484056
v 0.0150125163 0.00152564338 -0.0293674757
v 0.0194549672 0.00149782009 -0.0299220865
v 0.033479757 0.00142918933 -0.00805484056
v 0.0194549672 0.00149782009 -0.0299220865
v 0.0239308061 0.00146999681 -0.0298682948
v 0.033479757 0.00142918933 -0.00805484056
v 0.0107592637 0.00155161177 -0.0279614724
v 0.0150125163 0.00152564338 -0.0293674757
v 0.033479757 0.00142918933 -0.00805484056
v 0.00460289852 0.0015998388 -0.0168729665
v 0.00515565442 0.00159241926 -0.0212616258
v 0.033479757 0.00142918933 -0.00805484056
v 0.00515565442 0.00159241926 -0.0212616258
v 0.00730175702 0.00157572529 -0.0251735794
v 0.033479757 0.00142918933 -0.00805484056
v 0.0055563097 0.00159798391 -0.0125028561
v 0.00460289852 0.0015998388 -0.0168729665
v 0.033479757 0.00142918933 -0.00805484056
v 0.0351268954 0.00143846375 0.0127792341
v 0.0310127592 0.00146072238 0.0110115281
v 0.033479757 0.00142918933 -0.00805484056
v 0.0192231065 0.00152935315 0.00454354219
v 0.0155318843 0.00154975689 0.00200420385
v 0.033479757 0.00142918933 -0.00805484056
v 0.0121671219 0.00156645086 -0.000939499538
v 0.00933842137 0.00158128994 -0.004400716
v 0.033479757 0.00142918933 -0.00805484056
v 0.00933842137 0.00158128994 -0.004400716
v 0.00718118946 0.00159056437 -0.00832565385
v 0.033479757 0.00142918933 -0.00805484056
v 0.0155318843 0.00154975689 0.00200420385
v 0.0121671219 0.00156645086 -0.000939499538
v 0.033479757 0.00142918933 -0.00805484056
v 0.0270062064 0.00148483589 0.00900268708
v 0.0230831234 0.00150709452 0.00683803563
v 0.033479757 0.00142918933 -0.00805484056
v 0.0230831234 0.00150709452 0.00683803563
v 0.0192231065 0.00152935315 0.00454354219
v 0.0310127592 0.00146072238 0.0110115281
v 0.0270062064 0.00148483589 0.00900268708
v 0.0521862779 0.00133273528 0.0126215688
v 0.0481389176 0.00135870367 0.0145376656
v 0.033479757 0.00142918933 -0.00805484056
v 0.0437669523 0.00138652696 0.0151275192
v 0.0393782931 0.00141249536 0.0142037862
v 0.033479757 0.00142918933 -0.00805484056
v 0.0393782931 0.00141249536 0.0142037862
v 0.0351268954 0.00143846375 0.0127792341
v 0.033479757 0.00142918933 -0.00805484056
v 0.0481389176 0.00135870367 0.0145376656
v 0.0437669523 0.00138652696 0.0151275192
v 0.033479757 0.00142918933 -0.00805484056
v 0.0557198349 0.00130862176 0.00987077352
v 0.0521862779 0.00133273528 0.0126215688
v 0.033479757 0.00142918933 -0.00805484056
v 0.058294416 0.00129007291 0.00622221362
v 0.0557198349 0.00130862176 0.00987077352
v 0.033479757 0.00142918933 -0.00805484056
v 0.0599712326 0.00127523382 0.00207654439
v 0.058294416 0.00129007291 0.00622221362
v 0.033479757 0.00142918933 -0.00805484056
v 0.0552950661 0.00129007291 -0.0137382099
v 0.0577843225 0.00127708871 -0.0108594275
v 0.033479757 0.00142918933 -0.00805484056
v 0.0577843225 0.00127708871 -0.0108594275
v 0.0595687224 0.00126966917 -0.00780257612
v 0.033479757 0.00142918933 -0.00805484056
v 0.0595687224 0.00126966917 -0.00780257612
v 0.0605035847 0.0012659594 -0.00479024197
v 0.033479757 0.00142918933 -0.00805484056
v 0.0605035847 0.0012659594 -0.00479024197
v 0.0607799627 0.00126781428 -0.00147556147
v 0.033479757 0.00142918933 -0.00805484056
v -0.0587451532 -0.00143475398 0.00568615169
v -0.0566973596 0.00143104421 0.00169072819
v -0.0587451532 0.00143104421 0.00568615169
v -0.0566973596 -0.00143475398 0.00169072819
v -0.0542452008 0.00143104421 -0.00203017225
v -0.0542452008 -0.00143475398 -0.00203017225
v -0.0514480334 0.00143104421 -0.00550808268
v -0.0514480334 -0.00143475398 -0.00550808268
v -0.0485507022 0.00143104421 -0.00896744425
v -0.0485507022 -0.00143475398 -0.00896744425
v -0.0454474786 0.00143104421 -0.0122042196
v -0.0454474786 -0.00143475398 -0.0122042196
v -0.0420994102 0.00143104421 -0.015179456
v -0.0420994102 -0.00143475398 -0.015179456
v -0.0385009322 0.00143104421 -0.0178560559
v -0.0385009322 -0.00143475398 -0.0178560559
v -0.0346075274 0.00143104421 -0.0200318366
v -0.0346075274 -0.00143475398 -0.0200318366
v -0.0304099214 0.00143104421 -0.0215843759
v -0.0304099214 -0.00143475398 -0.0215843759
v -0.0260379561 0.00143104421 -0.0225526261
v -0.0260379561 -0.00143475398 -0.0225526261
v -0.0215602623 0.00143104421 -0.0226527899
v -0.0215602623 -0.00143475398 -0.0226527899
v -0.0173663661 0.00143104421 -0.0211874303
v -0.0173663661 -0.00143475398 -0.0211874303
v -0.0140331367 0.00143104421 -0.0182214683
v -0.0140331367 -0.00143475398 -0.0182214683
v -0.0120391347 0.00143104421 -0.014272417
v -0.0120391347 -0.00143475398 -0.014272417
v -0.0114733947 0.00143104421 -0.00983738558
v -0.0114733947 -0.00143475398 -0.00983738558
v -0.0116013818 0.00143104421 -0.00535598206
v -0.0116013818 -0.00143475398 -0.00535598206
v -0.0123173676 0.00143104421 -0.000935789767
v -0.0123173676 -0.00143475398 -0.000935789767
v -0.0138216798 0.00143104421 0.00327480046
v -0.0138216798 -0.00143475398 0.00327480046
v -0.0160048801 0.00143104421 0.0071756248
v -0.0160048801 -0.00143475398 0.0071756248
v -0.0186276883 0.00143104421 0.0108074907
v -0.0186276883 -0.00143475398 0.0108074907
v -0.0214953413 0.00143104421 0.0142631425
v -0.0214953413 -0.00143475398 0.0142631425
v -0.0244650131 0.00143104421 0.0176186305
v -0.0244650131 -0.00143475398 0.0176186305
v -0.0275663818 0.00143104421 0.0208554058
v -0.0275663818 -0.00143475398 0.0208554058
v -0.0308495292 0.00143104421 0.023899273
v -0.0308495292 -0.00143475398 0.023899273
v -0.0343756667 0.00143104421 0.0266686172
v -0.0343756667 -0.00143475398 0.0266686172
v -0.0382004407 0.00143104421 0.0290094828
v -0.0382004407 -0.00143475398 0.0290094828
v -0.0425167594 0.00143104421 0.0299220865
v -0.0425167594 -0.00143475398 0.0299220865
v -0.0469721946 0.00143104421 0.029475059
v -0.0469721946 -0.00143475398 0.029475059
v -0.0512235923 0.00143104421 0.0280690558
v -0.0512235923 -0.00143475398 0.0280690558
v -0.0548740071 -0.00143475398 0.0254944746
v -0.0548740071 0.00143104421 0.0254944746
v -0.0578455337 0.00143104421 0.0221519708
v -0.0578455337 -0.00143475398 0.0221519708
v -0.0597968733 0.00143104421 0.0190765706
v -0.0597968733 -0.00143475398 0.0190765706
v -0.0587451532 0.00143104421 0.00568615169
v -0.0601233332 0.00143104421 0.009230838
v -0.0601233332 -0.00143475398 0.009230838
v -0.0587451532 -0.00143475398 0.00568615169
v -0.0601233332 0.00143104421 0.009230838
v -0.0607799627 0.00143104421 0.0127106033
v -0.0607799627 -0.00143475398 0.0127106033
v -0.0601233332 -0.00143475398 0.009230838
v -0.0607799627 0.00143104421 0.0127106033
v -0.0606482658 0.00143104421 0.0158620539
v -0.0606482658 -0.00143475398 0.0158620539
v -0.0607799627 -0.00143475398 0.0127106033
v -0.0606482658 0.00143104421 0.0158620539
v -0.0597968733 0.00143104421 0.0190765706
v -0.0597968733 -0.00143475398 0.0190765706
v -0.0606482658 -0.00143475398 0.0158620539
v 0.0552783721 -0.00157572529 -0.0137345002
v 0.0552950661 0.00129007291 -0.0137382099
v 0.0520267577 0.00130862176 -0.0168154651
v 0.0520100637 -0.00155717643 -0.0168117553
v 0.0484690872 0.00132717062 -0.0194957747
v 0.0484505384 -0.00153862757 -0.0194939198
v 0.0446684267 0.00134942925 -0.0218366403
v 0.0446498778 -0.00151636895 -0.0218329305
v 0.0407768768 0.00137168787 -0.0241218593
v 0.0407583279 -0.00149596521 -0.0241200044
v 0.0367684691 0.0013939465 -0.0261307004
v 0.0367517751 -0.00147185169 -0.0261269906
v 0.0326153803 0.00141806001 -0.0278112267
v 0.0325986863 -0.00144773818 -0.0278075169
v 0.0283287398 0.00144217353 -0.0291226308
v 0.0283101909 -0.00142362467 -0.0291207759
v 0.0239308061 0.00146999681 -0.0298682948
v 0.0239141121 -0.00139580139 -0.0298664399
v 0.0194549672 0.00149782009 -0.0299220865
v 0.0194382733 -0.00136983299 -0.0299202316
v 0.0150125163 0.00152564338 -0.0293674757
v 0.0149939674 -0.0013420097 -0.0293637659
v 0.0107592637 0.00155161177 -0.0279614724
v 0.0107425697 -0.00131418642 -0.0279577626
v 0.00730175702 0.00157572529 -0.0251735794
v 0.00728320816 -0.00129007291 -0.0251698696
v 0.00515565442 0.00159241926 -0.0212616258
v 0.00513896045 -0.00127337894 -0.0212597709
v 0.00460289852 0.0015998388 -0.0168729665
v 0.00458620455 -0.0012659594 -0.0168692568
v 0.0055563097 0.00159798391 -0.0125028561
v 0.00553961573 -0.00126781428 -0.0125010013
v 0.00718118946 0.00159056437 -0.00832565385
v 0.0071626406 -0.00127523382 -0.00832379896
v 0.00933842137 0.00158128994 -0.004400716
v 0.00931987251 -0.00128450825 -0.00439886111
v 0.0121671219 0.00156645086 -0.000939499538
v 0.0121504279 -0.00129934734 -0.000935789767
v 0.0155318843 0.00154975689 0.00200420385
v 0.0155151903 -0.00131789619 0.00200605874
v 0.0192231065 0.00152935315 0.00454354219
v 0.0192045577 -0.00133829993 0.00454725196
v 0.0230831234 0.00150709452 0.00683803563
v 0.0230664294 -0.00135870367 0.00683989051
v 0.0270062064 0.00148483589 0.00900268708
v 0.0269876575 -0.0013809623 0.00900639685
v 0.0310127592 0.00146072238 0.0110115281
v 0.0309960652 -0.00140507581 0.011013383
v 0.0351268954 0.00143846375 0.0127792341
v 0.0351102014 -0.00142918933 0.012781089
v 0.0393782931 0.00141249536 0.0142037862
v 0.0393597442 -0.00145330284 0.0142056411
v 0.0437669523 0.00138652696 0.0151275192
v 0.0437484034 -0.00147927124 0.0151293741
v 0.0481389176 0.00135870367 0.0145376656
v 0.0481222236 -0.00150709452 0.0145413754
v 0.0521862779 0.00133273528 0.0126215688
v 0.0521695839 -0.00153306292 0.0126252786
v 0.0557198349 0.00130862176 0.00987077352
v 0.055701286 -0.00155717643 0.0098744833
v 0.0582777221 -0.00157572529 0.00622406851
v 0.058294416 0.00129007291 0.00622221362
v 0.0599712326 0.00127523382 0.00207654439
v 0.0599545386 -0.00159056437 0.00207839927
v 0.0607799627 0.00126781428 -0.00147556147
v 0.0607614138 -0.00159798391 -0.00147185169
v 0.0552950661 0.00129007291 -0.0137382099
v 0.0552783721 -0.00157572529 -0.0137345002
v 0.0577657736 -0.00158870948 -0.0108575726
v 0.0577843225 0.00127708871 -0.0108594275
v 0.0577843225 0.00127708871 -0.0108594275
v 0.0577657736 -0.00158870948 -0.0108575726
v 0.0595520284 -0.00159612903 -0.00780072124
v 0.0595687224 0.00126966917 -0.00780257612
v 0.0595687224 0.00126966917 -0.00780257612
v 0.0595520284 -0.00159612903 -0.00780072124
v 0.0604850359 -0.0015998388 -0.00478838708
v 0.0605035847 0.0012659594 -0.00479024197
v 0.0605035847 0.0012659594 -0.00479024197
v 0.0604850359 -0.0015998388 -0.00478838708
v 0.0607614138 -0.00159798391 -0.00147185169
v 0.0607799627 0.00126781428 -0.00147556147
vt 0 0
vt 0.500488759 1
vt 1 0
vt 0 0
vt 0.500488759 1
vt 1 0
vt 0 0
vt 0.500488759 1
vt 1 0
vt 0 0
vt 0.500488759 1
vt 1 0
vt 0 0
vt 1 0
vt 0 0
vt 0.500488759 1
vt 1 0
vt 0 0
vt 0.500488759 1
vt 1 0
vt 0 0
vt 0.500488759 1
vt 1 0
vt 0 0
vt 0.500488759 1
vt 1 0
vt 0 0
vt 0.500488759 1
vt 1 0
vt 0 0
vt 0.500488759 1
vt 1 0
vt 0 0
vt 0.500488759 1
vt 1 0
vt 0 0
vt 0.500488759 1
vt 1 0
vt 0 0
vt 0.500488759 1
vt 1 0
vt 0 0
vt 0.500488759 1
vt 1 0
vt 0 0
vt 0.500488759 1
vt 1 0
vt 0 0
vt 0.500488759 1
vt 1 0
vt 0 0
vt 0.500488759 1
vt 1 0
vt 0 0
vt 0.500488759 1
vt 1 0
vt 0 0
vt 0.500488759 1
vt 1 0
vt 0 0
vt 0.500488759 1
vt 1 0
vt 0 0
vt 0.500488759 1
vt 1 0
vt 0 0
vt 0.500488759 1
vt 1 0
vt 0 0
vt 1 0
vt 0 0
vt 1 0
vt 0 0
vt 0.500488759 1
vt 1 0
vt 0 0
vt 0.500488759 1
vt 1 0
vt 0 0
vt 0.500488759 1
vt 1 0
vt 0 0
vt 0.500488759 1
vt 1 0
vt 0 0
vt 0.500488759 1
vt 1 0
vt 0 0
vt 0.500488759 1
vt 1 0
vt 0 0
vt 0.500488759 1
vt 1 0
vt 0 0
vt 0.500488759 1
vt 1 0
vt 0 0
vt 0.500488759 1
vt 1 0
vt 0 0
vt 0.500488759 1
vt 1 0
vt 0 0
vt 0.500488759 1
vt 1 0
vt 0 0
vt 1 0
vt 0.500488759 1
vt 0 0
vt 1 0
vt 0.500488759 1
vt 0 0
vt 1 0
vt 0.500488759 1
vt 0 0
vt 1 0
vt 0.500488759 1
vt 0 0
vt 1 0
vt 0 0
vt 1 0
vt 0.500488759 1
vt 0 0
vt 1 0
vt 0.500488759 1
vt 0 0
vt 1 0
vt 0.500488759 1
vt 0 0
vt 1 0
vt 0.500488759 1
vt 0 0
vt 1 0
vt 0.500488759 1
vt 0 0
vt 1 0
vt 0.500488759 1
vt 0 0
vt 1 0
vt 0.500488759 1
vt 0 0
vt 1 0
vt 0.500488759 1
vt 0 0
vt 1 0
vt 0.500488759 1
vt 0 0
vt 1 0
vt 0.500488759 1
vt 0 0
vt 1 0
vt 0.500488759 1
vt 0 0
vt 1 0
vt 0.500488759 1
vt 0 0
vt 1 0
vt 0.500488759 1
vt 0 0
vt 1 0
vt 0.500488759 1
vt 0 0
vt 1 0
vt 0.500488759 1
vt 0 0
vt 1 0
vt 0.500488759 1
vt 0 0
vt 1 0
vt 0.500488759 1
vt 0 0
vt 1 0
vt 0.500488759 1
vt 0 0
vt 1 0
vt 0 0
vt 1 0
vt 0 0
vt 1 0
vt 0.500488759 1
vt 0 0
vt 1 0
vt 0.500488759 1
vt 0 0
vt 1 0
vt 0.500488759 1
vt 0 0
vt 1 0
vt 0.500488759 1
vt 0 0
vt 1 0
vt 0.500488759 1
vt 0 0
vt 1 0
vt 0.500488759 1
vt 0 0
vt 1 0
vt 0.500488759 1
vt 0 0
vt 1 0
vt 0.500488759 1
vt 0 0
vt 1 0
vt 0.500488759 1
vt 0 0
vt 1 0
vt 0.500488759 1
vt 0 0
vt 1 0
vt 0.500488759 1
vt 0 0
vt 0.0293255132 1
vt 0 1
vt 0.0293255132 0
vt 0.0664711632 1
vt 0.0664711632 0
vt 0.0967741935 1
vt 0.0967741935 0
vt 0.119257087 1
vt 0.119257087 0
vt 0.140762463 1
vt 0.140762463 0
vt 0.164222874 1
vt 0.164222874 0
vt 0.190615836 1
vt 0.190615836 0
vt 0.224828935 1
vt 0.224828935 0
vt 0.263929619 1
vt 0.263929619 0
vt 0.301075269 1
vt 0.301075269 0
vt 0.339198436 1
vt 0.339198436 0
vt 0.381231672 1
vt 0.381231672 0
vt 0.42913001 1
vt 0.42913001 0
vt 0.478005865 1
vt 0.478005865 0
vt 0.513196481 1
vt 0.513196481 0
vt 0.543499511 1
vt 0.543499511 0
vt 0.572825024 1
vt 0.572825024 0
vt 0.602150538 1
vt 0.602150538 0
vt 0.629521017 1
vt 0.629521017 0
vt 0.653958944 1
vt 0.653958944 0
vt 0.676441838 1
vt 0.676441838 0
vt 0.698924731 1
vt 0.698924731 0
vt 0.722385142 1
vt 0.722385142 0
vt 0.747800587 1
vt 0.747800587 0
vt 0.774193548 1
vt 0.774193548 0
vt 0.806451613 1
vt 0.806451613 0
vt 0.8514174 1
vt 0.8514174 0
vt 0.886608016 1
vt 0.886608016 0
vt 0.91202346 1
vt 0.91202346 0
vt 0.939393939 0
vt 0.939393939 1
vt 0.968719453 1
vt 0.968719453 0
vt 1 1
vt 1 0
vt 0 0
vt 0 1
vt 1 1
vt 1 0
vt 0 0
vt 0 1
vt 1 1
vt 1 0
vt 0 0
vt 0 1
vt 1 1
vt 1 0
vt 0 0
vt 0 1
vt 1 1
vt 1 0
vt 0 0
vt 0 1
vt 0.0293255132 1
vt 0.0293255132 0
vt 0.0664711632 1
vt 0.0664711632 0
vt 0.0967741935 1
vt 0.0967741935 0
vt 0.119257087 1
vt 0.119257087 0
vt 0.140762463 1
vt 0.140762463 0
vt 0.164222874 1
vt 0.164222874 0
vt 0.190615836 1
vt 0.190615836 0
vt 0.224828935 1
vt 0.224828935 0
vt 0.263929619 1
vt 0.263929619 0
vt 0.301075269 1
vt 0.301075269 0
vt 0.339198436 1
vt 0.339198436 0
vt 0.381231672 1
vt 0.381231672 0
vt 0.42913001 1
vt 0.42913001 0
vt 0.478005865 1
vt 0.478005865 0
vt 0.513196481 1
vt 0.513196481 0
vt 0.543499511 1
vt 0.543499511 0
vt 0.572825024 1
vt 0.572825024 0
vt 0.602150538 1
vt 0.602150538 0
vt 0.629521017 1
vt 0.629521017 0
vt 0.653958944 1
vt 0.653958944 0
vt 0.676441838 1
vt 0.676441838 0
vt 0.698924731 1
vt 0.698924731 0
vt 0.722385142 1
vt 0.722385142 0
vt 0.747800587 1
vt 0.747800587 0
vt 0.774193548 1
vt 0.774193548 0
vt 0.806451613 1
vt 0.806451613 0
vt 0.8514174 1
vt 0.8514174 0
vt 0.886608016 1
vt 0.886608016 0
vt 0.91202346 1
vt 0.91202346 0
vt 0.939393939 0
vt 0.939393939 1
vt 0.968719453 1
vt 0.968719453 0
vt 1 1
vt 1 0
vt 0 0
vt 1 0
vt 1 1
vt 0 1
vt 0 0
vt 1 0
vt 1 1
vt 0 1
vt 0 0
vt 1 0
vt 1 1
vt 0 1
vt 0 0
vt 1 0
vt 1 1
vt 0 1
g paizipolySurface17_mobile_0
f 3/3/3 2/2/2 1/1/1
f 6/6/6 5/5/5 4/4/4
f 9/9/9 8/8/8 7/7/7
f 12/12/12 11/11/11 10/10/10
f 14/14/14 11/11/11 13/13/13
f 17/17/17 16/16/16 15/15/15
f 20/20/20 19/19/19 18/18/18
f 23/23/23 22/22/22 21/21/21
f 26/26/26 25/25/25 24/24/24
f 29/29/29 28/28/28 27/27/27
f 32/32/32 31/31/31 30/30/30
f 35/35/35 34/34/34 33/33/33
f 38/38/38 37/37/37 36/36/36
f 41/41/41 40/40/40 39/39/39
f 44/44/44 43/43/43 42/42/42
f 47/47/47 46/46/46 45/45/45
f 50/50/50 49/49/49 48/48/48
f 53/53/53 52/52/52 51/51/51
f 56/56/56 55/55/55 54/54/54
f 59/59/59 58/58/58 57/57/57
f 62/62/62 61/61/61 60/60/60
f 65/65/65 64/64/64 63/63/63
f 68/68/68 67/67/67 66/66/66
f 70/70/70 67/67/67 69/69/69
f 72/72/72 67/67/67 71/71/71
f 75/75/75 74/74/74 73/73/73
f 78/78/78 77/77/77 76/76/76
f 81/81/81 80/80/80 79/79/79
f 84/84/84 83/83/83 82/82/82
f 87/87/87 86/86/86 85/85/85
f 90/90/90 89/89/89 88/88/88
f 93/93/93 92/92/92 91/91/91
f 96/96/96 95/95/95 94/94/94
f 99/99/99 98/98/98 97/97/97
f 102/102/102 101/101/101 100/100/100
f 105/105/105 104/104/104 103/103/103
f 108/108/108 107/107/107 106/106/106
f 111/111/111 110/110/110 109/109/109
f 114/114/114 113/113/113 112/112/112
f 117/117/117 116/116/116 115/115/115
f 117/117/117 119/119/119 118/118/118
f 122/122/122 121/121/121 120/120/120
f 125/125/125 124/124/124 123/123/123
f 128/128/128 127/127/127 126/126/126
f 131/131/131 130/130/130 129/129/129
f 134/134/134 133/133/133 132/132/132
f 137/137/137 136/136/136 135/135/135
f 140/140/140 139/139/139 138/138/138
f 143/143/143 142/142/142 141/141/141
f 146/146/146 145/145/145 144/144/144
f 149/149/149 148/148/148 147/147/147
f 152/152/152 151/151/151 150/150/150
f 155/155/155 154/154/154 153/153/153
f 158/158/158 157/157/157 156/156/156
f 161/161/161 160/160/160 159/159/159
f 164/164/164 163/163/163 162/162/162
f 167/167/167 166/166/166 165/165/165
f 170/170/170 169/169/169 168/168/168
f 173/173/173 172/172/172 171/171/171
f 173/173/173 175/175/175 174/174/174
f 173/173/173 177/177/177 176/176/176
f 180/180/180 179/179/179 178/178/178
f 183/183/183 182/182/182 181/181/181
f 186/186/186 185/185/185 184/184/184
f 189/189/189 188/188/188 187/187/187
f 192/192/192 191/191/191 190/190/190
f 195/195/195 194/194/194 193/193/193
f 198/198/198 197/197/197 196/196/196
f 201/201/201 200/200/200 199/199/199
f 204/204/204 203/203/203 202/202/202
f 207/207/207 206/206/206 205/205/205
f 210/210/210 209/209/209 208/208/208
f 213/213/213 212/212/212 211/211/211
f 212/212/212 214/214/214 211/211/211
f 212/212/212 215/215/215 214/214/214
f 215/215/215 216/216/216 214/214/214
f 215/215/215 217/217/217 216/216/216
f 217/217/217 218/218/218 216/216/216
f 217/217/217 219/219/219 218/218/218
f 219/219/219 220/220/220 218/218/218
f 219/219/219 221/221/221 220/220/220
f 221/221/221 222/222/222 220/220/220
f 221/221/221 223/223/223 222/222/222
f 223/223/223 224/224/224 222/222/222
f 223/223/223 225/225/225 224/224/224
f 225/225/225 226/226/226 224/224/224
f 225/225/225 227/227/227 226/226/226
f 227/227/227 228/228/228 226/226/226
f 227/227/227 229/229/229 228/228/228
f 229/229/229 230/230/230 228/228/228
f 229/229/229 231/231/231 230/230/230
f 231/231/231 232/232/232 230/230/230
f 231/231/231 233/233/233 232/232/232
f 233/233/233 234/234/234 232/232/232
f 233/233/233 235/235/235 234/234/234
f 235/235/235 236/236/236 234/234/234
f 235/235/235 237/237/237 236/236/236
f 237/237/237 238/238/238 236/236/236
f 237/237/237 239/239/239 238/238/238
f 239/239/239 240/240/240 238/238/238
f 239/239/239 241/241/241 240/240/240
f 241/241/241 242/242/242 240/240/240
f 241/241/241 243/243/243 242/242/242
f 243/243/243 244/244/244 242/242/242
f 243/243/243 245/245/245 244/244/244
f 245/245/245 246/246/246 244/244/244
f 245/245/245 247/247/247 246/246/246
f 247/247/247 248/248/248 246/246/246
f 247/247/247 249/249/249 248/248/248
f 249/249/249 250/250/250 248/248/248
f 249/249/249 251/251/251 250/250/250
f 251/251/251 252/252/252 250/250/250
f 251/251/251 253/253/253 252/252/252
f 253/253/253 254/254/254 252/252/252
f 253/253/253 255/255/255 254/254/254
f 255/255/255 256/256/256 254/254/254
f 255/255/255 257/257/257 256/256/256
f 257/257/257 258/258/258 256/256/256
f 257/257/257 259/259/259 258/258/258
f 259/259/259 260/260/260 258/258/258
f 259/259/259 261/261/261 260/260/260
f 261/261/261 262/262/262 260/260/260
f 261/261/261 263/263/263 262/262/262
f 263/263/263 264/264/264 262/262/262
f 263/263/263 265/265/265 264/264/264
f 265/265/265 266/266/266 264/264/264
f 265/265/265 267/267/267 266/266/266
f 267/267/267 268/268/268 266/266/266
f 267/267/267 269/269/269 268/268/268
f 269/269/269 270/270/270 268/268/268
f 270/270/270 269/269/269 271/271/271
f 269/269/269 272/272/272 271/271/271
f 272/272/272 273/273/273 271/271/271
f 273/273/273 274/274/274 271/271/271
f 273/273/273 275/275/275 274/274/274
f 275/275/275 276/276/276 274/274/274
f 279/279/279 278/278/278 277/277/277
f 280/280/280 279/279/279 277/277/277
f 283/283/283 282/282/282 281/281/281
f 284/284/284 283/283/283 281/281/281
f 287/287/287 286/286/286 285/285/285
f 288/288/288 287/287/287 285/285/285
f 291/291/291 290/290/290 289/289/289
f 292/292/292 291/291/291 289/289/289
f 295/295/295 294/294/294 293/293/293
f 296/296/296 295/295/295 293/293/293
f 297/297/297 295/295/295 296/296/296
f 298/298/298 297/297/297 296/296/296
f 299/299/299 297/297/297 298/298/298
f 300/300/300 299/299/299 298/298/298
f 301/301/301 299/299/299 300/300/300
f 302/302/302 301/301/301 300/300/300
f 303/303/303 301/301/301 302/302/302
f 304/304/304 303/303/303 302/302/302
f 305/305/305 303/303/303 304/304/304
f 306/306/306 305/305/305 304/304/304
f 307/307/307 305/305/305 306/306/306
f 308/308/308 307/307/307 306/306/306
f 309/309/309 307/307/307 308/308/308
f 310/310/310 309/309/309 308/308/308
f 311/311/311 309/309/309 310/310/310
f 312/312/312 311/311/311 310/310/310
f 313/313/313 311/311/311 312/312/312
f 314/314/314 313/313/313 312/312/312
f 315/315/315 313/313/313 314/314/314
f 316/316/316 315/315/315 314/314/314
f 317/317/317 315/315/315 316/316/316
f 318/318/318 317/317/317 316/316/316
f 319/319/319 317/317/317 318/318/318
f 320/320/320 319/319/319 318/318/318
f 321/321/321 319/319/319 320/320/320
f 322/322/322 321/321/321 320/320/320
f 323/323/323 321/321/321 322/322/322
f 324/324/324 323/323/323 322/322/322
f 325/325/325 323/323/323 324/324/324
f 326/326/326 325/325/325 324/324/324
f 327/327/327 325/325/325 326/326/326
f 328/328/328 327/327/327 326/326/326
f 329/329/329 327/327/327 328/328/328
f 330/330/330 329/329/329 328/328/328
f 331/331/331 329/329/329 330/330/330
f 332/332/332 331/331/331 330/330/330
f 333/333/333 331/331/331 332/332/332
f 334/334/334 333/333/333 332/332/332
f 335/335/335 333/333/333 334/334/334
f 336/336/336 335/335/335 334/334/334
f 337/337/337 335/335/335 336/336/336
f 338/338/338 337/337/337 336/336/336
f 339/339/339 337/337/337 338/338/338
f 340/340/340 339/339/339 338/338/338
f 341/341/341 339/339/339 340/340/340
f 342/342/342 341/341/341 340/340/340
f 343/343/343 341/341/341 342/342/342
f 344/344/344 343/343/343 342/342/342
f 345/345/345 343/343/343 344/344/344
f 346/346/346 345/345/345 344/344/344
f 347/347/347 345/345/345 346/346/346
f 348/348/348 347/347/347 346/346/346
f 349/349/349 347/347/347 348/348/348
f 350/350/350 349/349/349 348/348/348
f 351/351/351 349/349/349 350/350/350
f 352/352/352 351/351/351 350/350/350
f 351/351/351 352/352/352 353/353/353
f 354/354/354 351/351/351 353/353/353
f 355/355/355 354/354/354 353/353/353
f 356/356/356 355/355/355 353/353/353
f 357/357/357 355/355/355 356/356/356
f 358/358/358 357/357/357 356/356/356
f 361/361/361 360/360/360 359/359/359
f 362/362/362 361/361/361 359/359/359
f 365/365/365 364/364/364 363/363/363
f 366/366/366 365/365/365 363/363/363
f 369/369/369 368/368/368 367/367/367
f 370/370/370 369/369/369 367/367/367
f 373/373/373 372/372/372 371/371/371
f 374/374/374 373/373/373 371/371/371
