g paizi2_04paizi2_04_mobile
v -0.189369919 -0.0861388811 0.0673425641
v -0.193152976 -0.0844436436 0.0673425641
v -0.192373761 -0.0836941702 0.0705902822
v -0.189369919 -0.0844436436 0.0709947599
v -0.189369919 -0.0807914479 0.0726899973
v -0.189369919 -0.0844436436 0.0709947599
v -0.192373761 -0.0836941702 0.0705902822
v -0.193152976 -0.0807914479 0.0709947599
v -0.189369919 -0.0463811018 0.0726899973
v -0.194907695 -0.0807914479 0.0673425641
v -0.193152976 -0.0844436436 0.0673425641
v -0.193152976 -0.0463811018 0.0709947599
v -0.192373761 -0.0434783794 0.0705902822
v -0.189369919 -0.042728906 0.0709947599
v -0.189369919 -0.0410336686 0.0673425641
v -0.194907695 -0.0463811018 0.0673425641
v -0.193152976 -0.042728906 0.0673425641
v -0.189369919 -0.0410336686 0.0272100481
v -0.194907695 -0.0807914479 0.0272100481
v -0.193152976 -0.042728906 0.0272100481
v -0.192373761 -0.0434783794 0.02396233
v -0.189369919 -0.042728906 0.0235578523
v -0.189369919 -0.0463811018 0.0218626149
v -0.194907695 -0.0463811018 0.0272100481
v -0.193152976 -0.0463811018 0.0235578523
v -0.189369919 -0.0807914479 0.0218626149
v -0.193152976 -0.0807914479 0.0235578523
v -0.192736601 -0.0836941702 0.0243073257
v -0.189369919 -0.0844436436 0.0235578523
v -0.189369919 -0.0861388811 0.0272100481
v -0.193152976 -0.0844436436 0.0272100481
v -0.189369919 -0.0861388811 0.0673425641
v -0.189369919 -0.0861388811 0.0272100481
v 0.189369919 -0.0861388811 0.0272100481
v 0.189369919 -0.0844436436 0.0235578523
v -0.189369919 -0.0844436436 0.0235578523
v 0.189369919 -0.0807914479 0.0218626149
v -0.189369919 -0.0807914479 0.0218626149
v -0.189369919 -0.0463811018 0.0218626149
v 0.189369919 -0.0463811018 0.0218626149
v 0.189369919 -0.042728906 0.0235578523
v -0.189369919 -0.042728906 0.0235578523
v 0.189369919 -0.0410336686 0.0272100481
v -0.189369919 -0.0410336686 0.0272100481
v -0.189369919 -0.0410336686 0.0673425641
v 0.189369919 -0.0410336686 0.0673425641
v 0.189369919 -0.042728906 0.0709947599
v -0.189369919 -0.042728906 0.0709947599
v 0.189369919 -0.0463811018 0.0726899973
v -0.189369919 -0.0463811018 0.0726899973
v -0.189369919 -0.0807914479 0.0726899973
v 0.189369919 -0.0807914479 0.0726899973
v 0.189369919 -0.0844436436 0.0709947599
v -0.189369919 -0.0844436436 0.0709947599
v 0.189369919 -0.0861388811 0.0673425641
v -0.189369919 -0.0861388811 0.0673425641
v -0.189369919 -0.0861388811 0.0272100481
v 0.189369919 -0.0861388811 0.0272100481
v 0.0223265746 -0.0376967275 0.0587652574
v 0.021690117 -0.0378573289 0.0614062589
v 0.0203041861 -0.0358170958 0.0612932431
v 0.0208871098 -0.0355732195 0.0587652574
v -0.0234210437 -0.0378394843 0.0587652574
v -0.0249140423 -0.0435319132 0.0614062589
v -0.0257229977 -0.0439185463 0.0587652574
v -0.0228024307 -0.0379525001 0.0614062589
v -0.0231593228 -0.0432404513 0.0633513209
v -0.021541412 -0.0358706296 0.0612991913
v -0.0221124393 -0.0356743389 0.0587652574
v -0.020006776 -0.0341278065 0.0587652574
v -0.0212083127 -0.0380833606 0.0633513209
v -0.0209406436 -0.0431214873 0.0640591568
v -0.0200603098 -0.0347821087 0.0612932431
v -0.0176929256 -0.0336281576 0.0587652574
v -0.0204172019 -0.0359658008 0.0626613295
v -0.0190729083 -0.0381963764 0.0640591568
v -0.0178356824 -0.0343003044 0.0614062589
v 0.016318891 -0.0336281576 0.0587652574
v -0.0183472278 -0.0359776972 0.0633513209
v 0.0179189572 -0.0381963764 0.0640591568
v 0.0200424652 -0.0428121808 0.0640591568
v 0.0164854407 -0.0343300454 0.0614062589
v 0.0170683644 -0.0360074382 0.0633513209
v 0.020066258 -0.0380417232 0.0633513209
v 0.0223027818 -0.0428954556 0.0633513209
v 0.0191680796 -0.0359479562 0.0626613295
v 0.0187517055 -0.0347642641 0.0612932431
v 0.0186862752 -0.0340802209 0.0587652574
v 0.0208871098 -0.0355732195 0.0587652574
v 0.0203041861 -0.0358170958 0.0612932431
v 0.021690117 -0.0378573289 0.0614062589
v 0.0241288797 -0.0431631247 0.0614062589
v 0.0223265746 -0.0376967275 0.0587652574
v 0.0250151617 -0.0435378614 0.0587652574
v -0.035793303 -0.0451914615 0.0504675162
v -0.035733821 -0.044852414 0.0504675162
v -0.035733821 -0.044852414 0.0528408487
v -0.0355196857 -0.0443408686 0.0563681322
v -0.0300294956 -0.0312310324 0.0504675162
v -0.0300294956 -0.0312310324 0.0563681322
v -0.0333961777 -0.0437995823 0.0599786906
v -0.0270078092 -0.0278227129 0.0563681322
v -0.0270078092 -0.0278227129 0.0504675162
v -0.0282152942 -0.0314332712 0.0599786906
v -0.0294406237 -0.0435319132 0.0616620316
v -0.0264308337 -0.0286852021 0.0595801611
v -0.0226953631 -0.0263475589 0.0563681322
v -0.0226953631 -0.0263475589 0.0504675162
v -0.0244679272 -0.0316414583 0.0616620316
v -0.0232069084 -0.0281022783 0.0599786906
v 0.0208573688 -0.0263475589 0.0563681322
v 0.0208573688 -0.0263475589 0.0504675162
v 0.0229094984 -0.0316414583 0.0616620316
v 0.0287327877 -0.0430917463 0.0616620316
v 0.0214462408 -0.0281320193 0.0599786906
v 0.0253006754 -0.027739438 0.0563681322
v 0.0253006754 -0.027739438 0.0504675162
v 0.0247355962 -0.0286554611 0.0595801611
v 0.0266985028 -0.0313499964 0.0599786906
v 0.0327775648 -0.0432999334 0.0599786906
v 0.0285543417 -0.0310644827 0.0563681322
v 0.0285543417 -0.0310644827 0.0504675162
v 0.0350319332 -0.0438055305 0.0563681322
v 0.0354661519 -0.0446561233 0.0504675162
v -0.185777206 -0.0861388811 -0.0673425641
v -0.185777206 -0.0854250969 -0.0700133066
v -0.188424155 -0.0847291573 -0.0699002908
v -0.188543119 -0.0854250969 -0.0673425641
v 0.18530135 -0.0861388811 -0.0673425641
v 0.18530135 -0.0861388811 0.0230641516
v 0.188067263 -0.0854250969 0.0230641516
v 0.188067263 -0.0854250969 -0.0673425641
v 0.190101548 -0.0834621904 0.0230641516
v 0.190101548 -0.0834621904 -0.0673425641
v 0.190839125 -0.0807914479 0.0230641516
v 0.190839125 -0.0807914479 -0.0673425641
v 0.189381816 -0.0833491745 -0.0699002908
v 0.190101548 -0.0807914479 -0.0700133066
v 0.187948299 -0.0847291573 -0.0699002908
v 0.187948299 -0.0833491745 -0.0712802736
v 0.188067263 -0.0807914479 -0.0719762131
v 0.18530135 -0.0807914479 -0.0726899973
v 0.18530135 -0.0854250969 -0.0700133066
v -0.185777206 -0.0861388811 -0.0673425641
v -0.185777206 -0.0854250969 -0.0700133066
v 0.18530135 -0.0834621904 -0.0719762131
v -0.185777206 -0.0834621904 -0.0719762131
v -0.185777206 -0.0807914479 -0.0726899973
v -0.188424155 -0.0833491745 -0.0712802736
v -0.188543119 -0.0807914479 -0.0719762131
v -0.188424155 -0.0847291573 -0.0699002908
v -0.189857672 -0.0833491745 -0.0699002908
v -0.190571456 -0.0807914479 -0.0700133066
v -0.191314981 -0.0807914479 -0.0673425641
v -0.190571456 -0.0834621904 -0.0673425641
v -0.188543119 -0.0854250969 -0.0673425641
v -0.190571456 -0.0834621904 0.0230641516
v -0.191314981 -0.0807914479 0.0230641516
v -0.188543119 -0.0854250969 0.0230641516
v -0.185777206 -0.0861388811 0.0230641516
v -0.185777206 -0.0861388811 -0.0673425641
v 0.190101548 -0.0575458761 0.0230641516
v 0.190839125 -0.0602166186 -0.0673425641
v 0.190839125 -0.0602166186 0.0230641516
v 0.190101548 -0.0575458761 -0.0673425641
v 0.188067263 -0.0555829696 0.0230641516
v 0.189381816 -0.057658892 -0.0699002908
v 0.190101548 -0.0602166186 -0.0700133066
v 0.188067263 -0.0602166186 -0.0719762131
v 0.188067263 -0.0555829696 -0.0673425641
v 0.18530135 -0.0548691854 0.0230641516
v 0.187948299 -0.057658892 -0.0712802736
v 0.18530135 -0.0602166186 -0.0726899973
v 0.187948299 -0.0562789092 -0.0699002908
v 0.18530135 -0.0548691854 -0.0673425641
v -0.185777206 -0.0548691854 0.0230641516
v 0.18530135 -0.0575458761 -0.0719762131
v -0.185777206 -0.0602166186 -0.0726899973
v 0.18530135 -0.0555829696 -0.0700133066
v -0.185777206 -0.0548691854 -0.0673425641
v -0.188543119 -0.0555829696 0.0230641516
v -0.185777206 -0.0575458761 -0.0719762131
v -0.185777206 -0.0555829696 -0.0700133066
v -0.188543119 -0.0555829696 -0.0673425641
v -0.190571456 -0.0575458761 0.0230641516
v -0.188424155 -0.0562789092 -0.0699002908
v -0.188424155 -0.057658892 -0.0712802736
v -0.188543119 -0.0602166186 -0.0719762131
v -0.190571456 -0.0602166186 -0.0700133066
v -0.189857672 -0.057658892 -0.0699002908
v -0.191314981 -0.0602166186 -0.0673425641
v -0.190571456 -0.0575458761 -0.0673425641
v -0.191314981 -0.0602166186 0.0230641516
v -0.191314981 -0.0807914479 -0.0673425641
v -0.191314981 -0.0602166186 0.0230641516
v -0.191314981 -0.0807914479 0.0230641516
v -0.191314981 -0.0602166186 -0.0673425641
v -0.190571456 -0.0807914479 -0.0700133066
v -0.190571456 -0.0602166186 -0.0700133066
v -0.188543119 -0.0807914479 -0.0719762131
v -0.188543119 -0.0602166186 -0.0719762131
v -0.185777206 -0.0807914479 -0.0726899973
v -0.185777206 -0.0602166186 -0.0726899973
v 0.18530135 -0.0807914479 -0.0726899973
v 0.18530135 -0.0602166186 -0.0726899973
v 0.188067263 -0.0807914479 -0.0719762131
v 0.188067263 -0.0602166186 -0.0719762131
v 0.190101548 -0.0807914479 -0.0700133066
v 0.190101548 -0.0602166186 -0.0700133066
v 0.190839125 -0.0807914479 -0.0673425641
v 0.190839125 -0.0602166186 -0.0673425641
v 0.190839125 -0.0807914479 0.0230641516
v 0.190839125 -0.0602166186 0.0230641516
v -0.163994891 0.0800717155 -0.0659149957
v -0.159938218 0.0800717155 -0.0639045036
v -0.160770966 0.0837596005 -0.0630182216
v -0.163994891 0.084217612 -0.0639104518
v -0.163994891 0.0861388811 -0.0595801611
v -0.163994891 0.084217612 -0.0639104518
v -0.160770966 0.0837596005 -0.0630182216
v -0.159938218 0.084217612 -0.0595801611
v -0.158058586 0.0800717155 -0.0595801611
v -0.163994891 0.0861388811 -0.0450130154
v -0.159938218 0.0800717155 -0.0639045036
v -0.159938218 0.0839202019 -0.0440196657
v -0.160384333 0.0836822738 -0.039808339
v -0.163994891 0.085014671 -0.0391956743
v -0.163994891 0.0816717817 -0.0343895274
v -0.158058586 0.0800717155 -0.0414619391
v -0.159938218 0.0808747227 -0.036768808
v -0.163994891 -0.0193405774 0.0567666617
v -0.160009596 -0.0220529573 0.0565346819
v -0.158058586 -0.026175061 0.0547145322
v -0.160776914 -0.0248843013 0.0591399941
v -0.163994891 -0.0243370667 0.0596396431
v -0.163994891 -0.0298748424 0.0610493668
v -0.160009596 -0.0280249517 0.0589674963
v -0.163994891 -0.0679849699 0.0610493668
v -0.159938218 -0.0679849699 0.0590388747
v -0.158058586 -0.0679849699 0.0547145322
v -0.158058586 -0.0679849699 -0.0595801611
v -0.159938218 -0.0679849699 -0.0639104518
v -0.163994891 0.0800717155 -0.0659149957
v -0.163994891 -0.0679849699 -0.0659149957
v -0.182957758 -0.0679849699 0.0590388747
v -0.178901085 -0.0298748424 0.0610493668
v -0.178901085 -0.0679849699 0.0610493668
v -0.18288638 -0.0280249517 0.0589674963
v -0.184843338 -0.0679849699 0.0547145322
v -0.184843338 -0.026175061 0.0547145322
v -0.184843338 -0.0679849699 -0.0595801611
v -0.182511643 -0.0246463732 0.0588009467
v -0.178901085 -0.0243370667 0.0596396431
v -0.178907033 -0.0193405774 0.0567666617
v -0.18288638 -0.0220529573 0.0565346819
v -0.178901085 0.0816717817 -0.0343895274
v -0.182957758 0.0808747227 -0.036768808
v -0.184843338 0.0800717155 -0.0595801611
v -0.182957758 -0.0679849699 -0.0639104518
v -0.18212501 0.0840689069 -0.0400343707
v -0.178901085 0.085014671 -0.0391956743
v -0.178907033 0.0861388811 -0.0450130154
v -0.184843338 0.0800717155 -0.0414619391
v -0.182957758 0.0839202019 -0.0440196657
v -0.178907033 0.0861388811 -0.0595801611
v -0.182957758 0.084217612 -0.0595801611
v -0.182511643 0.0833670192 -0.0630182216
v -0.178907033 0.084217612 -0.0639104518
v -0.178907033 0.0800717155 -0.0659149957
v -0.182957758 0.0800717155 -0.0639045036
v -0.178907033 -0.0679849699 -0.0659149957
v -0.163994891 -0.0679849699 -0.0659149957
v -0.178907033 0.0800717155 -0.0659149957
v -0.178907033 -0.0679849699 -0.0659149957
v -0.163994891 0.0800717155 -0.0659149957
v -0.163994891 0.084217612 -0.0639104518
v -0.178907033 0.084217612 -0.0639104518
v -0.163994891 0.0861388811 -0.0595801611
v -0.178907033 0.0861388811 -0.0595801611
v -0.178907033 0.0861388811 -0.0450130154
v -0.163994891 0.0861388811 -0.0450130154
v -0.163994891 0.085014671 -0.0391956743
v -0.178901085 0.085014671 -0.0391956743
v -0.163994891 0.0816717817 -0.0343895274
v -0.178901085 0.0816717817 -0.0343895274
v -0.178907033 -0.0193405774 0.0567666617
v -0.163994891 -0.0193405774 0.0567666617
v -0.163994891 -0.0243370667 0.0596396431
v -0.178901085 -0.0243370667 0.0596396431
v -0.163994891 -0.0298748424 0.0610493668
v -0.178901085 -0.0298748424 0.0610493668
v -0.178901085 -0.0679849699 0.0610493668
v -0.163994891 -0.0679849699 0.0610493668
v -0.165130998 -0.0250805919 0.0513419019
v 0.16400084 -0.0250805919 0.0513419019
v 0.16400084 -0.0294763129 0.0537747163
v -0.165130998 -0.0294763129 0.0537747163
v -0.165130998 -0.0294763129 0.0537747163
v 0.16400084 -0.0294763129 0.0537747163
v 0.16400084 -0.0343538382 0.0549703048
v -0.165130998 -0.0343538382 0.0549703048
v -0.165130998 -0.0680860893 0.0549703048
v 0.16400084 -0.0680860893 0.0549703048
v 0.16400084 -0.0250805919 0.0513419019
v -0.165130998 -0.0250805919 0.0513419019
v -0.165130998 0.0745041988 -0.0405280714
v 0.16400084 0.0745041988 -0.0405280714
v -0.165130998 0.0774485586 -0.0445847449
v 0.16400084 0.0774485586 -0.0445847449
v -0.165130998 0.07843596 -0.0495039076
v 0.16400084 0.07843596 -0.0495039076
v 0.16400084 0.07843596 -0.0545896199
v -0.165130998 0.07843596 -0.0545896199
v -0.165130998 0.0767407226 -0.0582418157
v 0.16400084 0.0767407226 -0.0582418157
v -0.165130998 0.0730885268 -0.0599370532
v 0.16400084 0.0730885268 -0.0599370532
v -0.165130998 -0.0680860893 -0.0599370532
v 0.16400084 -0.0680860893 -0.0599370532
v 0.178383591 0.0800717155 -0.0659149957
v 0.182434316 0.0800717155 -0.0639045036
v 0.181601568 0.0837596005 -0.0630182216
v 0.178383591 0.084217612 -0.0639104518
v 0.178383591 0.0861388811 -0.0595801611
v 0.178383591 0.084217612 -0.0639104518
v 0.181601568 0.0837596005 -0.0630182216
v 0.182434316 0.084217612 -0.0595801611
v 0.184319896 0.0800717155 -0.0595801611
v 0.178383591 0.0861388811 -0.0450130154
v 0.182434316 0.0800717155 -0.0639045036
v 0.182434316 0.0839202019 -0.0440196657
v 0.181988201 0.0836822738 -0.039808339
v 0.178383591 0.085014671 -0.0391956743
v 0.178383591 0.0816717817 -0.0343895274
v 0.184319896 0.0800717155 -0.0414619391
v 0.182434316 0.0808747227 -0.036768808
v 0.178383591 -0.0193405774 0.0567666617
v 0.182362938 -0.0220529573 0.0565346819
v 0.184319896 -0.026175061 0.0547145322
v 0.18159562 -0.0248843013 0.0591399941
v 0.178383591 -0.0243370667 0.0596396431
v 0.178383591 -0.0298748424 0.0610493668
v 0.182362938 -0.0280249517 0.0589674963
v 0.178383591 -0.0679849699 0.0610493668
v 0.182434316 -0.0679849699 0.0590388747
v 0.184319896 -0.0679849699 0.0547145322
v 0.184319896 -0.0679849699 -0.0595801611
v 0.182434316 -0.0679849699 -0.0639104518
v 0.178383591 0.0800717155 -0.0659149957
v 0.178383591 -0.0679849699 -0.0659149957
v 0.159414776 -0.0679849699 0.0590388747
v 0.16347145 -0.0298748424 0.0610493668
v 0.16347145 -0.0679849699 0.0610493668
v 0.159486155 -0.0280249517 0.0589674963
v 0.157535145 -0.0679849699 0.0547145322
v 0.157535145 -0.026175061 0.0547145322
v 0.157535145 -0.0679849699 -0.0595801611
v 0.159860891 -0.0246463732 0.0588009467
v 0.16347145 -0.0243370667 0.0596396431
v 0.16347145 -0.0193405774 0.0567666617
v 0.159486155 -0.0220529573 0.0565346819
v 0.16347145 0.0816717817 -0.0343895274
v 0.159414776 0.0808747227 -0.036768808
v 0.157535145 0.0800717155 -0.0595801611
v 0.159414776 -0.0679849699 -0.0639104518
v 0.160247524 0.0840689069 -0.0400343707
v 0.16347145 0.085014671 -0.0391956743
v 0.16347145 0.0861388811 -0.0450130154
v 0.157535145 0.0800717155 -0.0414619391
v 0.159414776 0.0839202019 -0.0440196657
v 0.16347145 0.0861388811 -0.0595801611
v 0.159414776 0.084217612 -0.0595801611
v 0.159860891 0.0833670192 -0.0630182216
v 0.16347145 0.084217612 -0.0639104518
v 0.16347145 0.0800717155 -0.0659149957
v 0.159414776 0.0800717155 -0.0639045036
v 0.16347145 -0.0679849699 -0.0659149957
v 0.178383591 -0.0679849699 -0.0659149957
v 0.16347145 0.0800717155 -0.0659149957
v 0.16347145 -0.0679849699 -0.0659149957
v 0.178383591 0.0800717155 -0.0659149957
v 0.178383591 0.084217612 -0.0639104518
v 0.16347145 0.084217612 -0.0639104518
v 0.178383591 0.0861388811 -0.0595801611
v 0.16347145 0.0861388811 -0.0595801611
v 0.16347145 0.0861388811 -0.0450130154
v 0.178383591 0.0861388811 -0.0450130154
v 0.178383591 0.085014671 -0.0391956743
v 0.16347145 0.085014671 -0.0391956743
v 0.178383591 0.0816717817 -0.0343895274
v 0.16347145 0.0816717817 -0.0343895274
v 0.16347145 -0.0193405774 0.0567666617
v 0.178383591 -0.0193405774 0.0567666617
v 0.178383591 -0.0243370667 0.0596396431
v 0.16347145 -0.0243370667 0.0596396431
v 0.178383591 -0.0298748424 0.0610493668
v 0.16347145 -0.0298748424 0.0610493668
v 0.16347145 -0.0679849699 0.0610493668
v 0.178383591 -0.0679849699 0.0610493668
v 0.189369919 -0.0410336686 0.0272100481
v 0.189369919 -0.042728906 0.0235578523
v 0.192736601 -0.0434783794 0.0243073257
v 0.189369919 -0.0463811018 0.0218626149
v 0.193152976 -0.042728906 0.0272100481
v 0.189369919 -0.0410336686 0.0673425641
v 0.193152976 -0.0463811018 0.0235578523
v 0.194907695 -0.0463811018 0.0272100481
v 0.193152976 -0.042728906 0.0673425641
v 0.193152976 -0.0807914479 0.0235578523
v 0.189369919 -0.0807914479 0.0218626149
v 0.192373761 -0.0434783794 0.0705902822
v 0.189369919 -0.042728906 0.0709947599
v 0.189369919 -0.0463811018 0.0726899973
v 0.194907695 -0.0807914479 0.0272100481
v 0.192373761 -0.0836941702 0.02396233
v 0.189369919 -0.0844436436 0.0235578523
v 0.189369919 -0.0861388811 0.0272100481
v 0.194907695 -0.0463811018 0.0673425641
v 0.193152976 -0.0463811018 0.0709947599
v 0.189369919 -0.0807914479 0.0726899973
v 0.193152976 -0.0844436436 0.0272100481
v 0.194907695 -0.0807914479 0.0673425641
v 0.193152976 -0.0807914479 0.0709947599
v 0.193152976 -0.0844436436 0.0673425641
v 0.189369919 -0.0861388811 0.0673425641
v 0.192736601 -0.0836941702 0.0702452865
v 0.189369919 -0.0844436436 0.0709947599
vt 0.124632977 0.019236628
vt 0.123674828 0.019236628
vt 0.123674828 0.0201947767
vt 0.124632977 0.0201947767
vt 0.12271668 0.0211529253
vt 0.124632977 0.0201947767
vt 0.123674828 0.0201947767
vt 0.12271668 0.0201947767
vt 0.111218896 0.0211529253
vt 0.12271668 0.019236628
vt 0.123674828 0.019236628
vt 0.112177045 0.0201947767
vt 0.111218896 0.0201947767
vt 0.110260748 0.0201947767
vt 0.109302599 0.019236628
vt 0.112177045 0.019236628
vt 0.110260748 0.019236628
vt 0.109302599 0.00582254725
vt 0.12271668 0.00678069588
vt 0.110260748 0.00678069588
vt 0.111218896 0.00582254725
vt 0.110260748 0.00486439863
vt 0.111218896 0.00390625
vt 0.112177045 0.00678069588
vt 0.112177045 0.00486439863
vt 0.12271668 0.00390625
vt 0.12271668 0.00486439863
vt 0.123674828 0.00582254725
vt 0.123674828 0.00486439863
vt 0.124632977 0.00582254725
vt 0.123674828 0.00678069588
vt 0.124632977 0.019236628
vt 0.0863070319 0.866240014
vt 0.0863070319 0.984092295
vt 0.0872651805 0.984092295
vt 0.0872651805 0.866240014
vt 0.0882233292 0.984092295
vt 0.0882233292 0.866240014
vt 0.098762964 0.866240014
vt 0.098762964 0.984092295
vt 0.100679261 0.984092295
vt 0.100679261 0.866240014
vt 0.10163741 0.984092295
vt 0.10163741 0.866240014
vt 0.114093342 0.866240014
vt 0.114093342 0.984092295
vt 0.115051491 0.984092295
vt 0.115051491 0.866240014
vt 0.116967788 0.984092295
vt 0.116967788 0.866240014
vt 0.127507423 0.866240014
vt 0.127507423 0.984092295
vt 0.128465571 0.984092295
vt 0.128465571 0.866240014
vt 0.12942372 0.984092295
vt 0.12942372 0.866240014
vt 0.141879652 0.866240014
vt 0.141879652 0.984092295
vt 0.281769352 0.0537299786
vt 0.2827275 0.0518136813
vt 0.281769352 0.0498973841
vt 0.279853055 0.0518136813
vt 0.281769352 0.00773884451
vt 0.287518244 0.00678069588
vt 0.286560095 0.00390625
vt 0.2827275 0.00965514176
vt 0.288476392 0.00869699313
vt 0.280811203 0.0106132904
vt 0.279853055 0.00965514176
vt 0.277936757 0.011571439
vt 0.283685649 0.011571439
vt 0.288476392 0.011571439
vt 0.280811203 0.0125295876
vt 0.276978609 0.0144458849
vt 0.281769352 0.0125295876
vt 0.284643798 0.0134877363
vt 0.279853055 0.0144458849
vt 0.277936757 0.0460647896
vt 0.2827275 0.0144458849
vt 0.284643798 0.0479810868
vt 0.288476392 0.0498973841
vt 0.279853055 0.0460647896
vt 0.2827275 0.0470229382
vt 0.283685649 0.0498973841
vt 0.288476392 0.0518136813
vt 0.281769352 0.0489392355
vt 0.280811203 0.0489392355
vt 0.277936757 0.0489392355
vt 0.279853055 0.0518136813
vt 0.281769352 0.0498973841
vt 0.2827275 0.0518136813
vt 0.287518244 0.0546881272
vt 0.281769352 0.0537299786
vt 0.286560095 0.0575625731
vt 0.281769352 0.545260224
vt 0.281769352 0.545260224
vt 0.283685649 0.547176521
vt 0.285601946 0.550050967
vt 0.270271568 0.555799859
vt 0.275062311 0.558674305
vt 0.287518244 0.553883562
vt 0.272187865 0.561548751
vt 0.267397122 0.559632454
vt 0.276978609 0.561548751
vt 0.288476392 0.557716156
vt 0.275062311 0.563465048
vt 0.271229717 0.565381345
vt 0.265480825 0.564423197
vt 0.278894906 0.564423197
vt 0.275062311 0.565381345
vt 0.271229717 0.606581736
vt 0.265480825 0.606581736
vt 0.277936757 0.607539885
vt 0.288476392 0.615205074
vt 0.275062311 0.606581736
vt 0.272187865 0.610414331
vt 0.267397122 0.612330628
vt 0.275062311 0.609456182
vt 0.276978609 0.611372479
vt 0.287518244 0.619037668
vt 0.275062311 0.614246925
vt 0.270271568 0.617121371
vt 0.285601946 0.622870263
vt 0.281769352 0.627661006
vt 0.631493601 0.741680693
vt 0.630535452 0.740722544
vt 0.630535452 0.741680693
vt 0.631493601 0.741680693
vt 0.631493601 0.625744709
vt 0.656405465 0.614246925
vt 0.656405465 0.613288777
vt 0.631493601 0.625744709
vt 0.656405465 0.612330628
vt 0.630535452 0.62478656
vt 0.655447316 0.611372479
vt 0.630535452 0.623828412
vt 0.630535452 0.62478656
vt 0.629577303 0.62478656
vt 0.630535452 0.625744709
vt 0.629577303 0.625744709
vt 0.629577303 0.62478656
vt 0.628619155 0.625744709
vt 0.630535452 0.625744709
vt 0.631493601 0.741680693
vt 0.630535452 0.740722544
vt 0.629577303 0.625744709
vt 0.629577303 0.740722544
vt 0.628619155 0.741680693
vt 0.629577303 0.741680693
vt 0.629577303 0.742638841
vt 0.630535452 0.741680693
vt 0.630535452 0.742638841
vt 0.629577303 0.742638841
vt 0.630535452 0.74359699
vt 0.630535452 0.742638841
vt 0.631493601 0.741680693
vt 0.656405465 0.755094773
vt 0.655447316 0.756052922
vt 0.656405465 0.754136625
vt 0.656405465 0.753178476
vt 0.631493601 0.741680693
vt 0.629577303 0.836537407
vt 0.658321762 0.839411853
vt 0.629577303 0.836537407
vt 0.658321762 0.840370001
vt 0.628619155 0.837495555
vt 0.658321762 0.840370001
vt 0.659279911 0.839411853
vt 0.659279911 0.840370001
vt 0.657363613 0.840370001
vt 0.628619155 0.838453704
vt 0.659279911 0.840370001
vt 0.660238059 0.84132815
vt 0.658321762 0.84132815
vt 0.657363613 0.84132815
vt 0.628619155 0.957264134
vt 0.659279911 0.84132815
vt 0.659279911 0.954389688
vt 0.658321762 0.84132815
vt 0.656405465 0.954389688
vt 0.628619155 0.957264134
vt 0.658321762 0.954389688
vt 0.657363613 0.954389688
vt 0.656405465 0.955347836
vt 0.629577303 0.958222282
vt 0.657363613 0.955347836
vt 0.657363613 0.955347836
vt 0.658321762 0.955347836
vt 0.658321762 0.956305985
vt 0.657363613 0.955347836
vt 0.657363613 0.956305985
vt 0.656405465 0.956305985
vt 0.629577303 0.959180431
vt 0.00390625 0.186912638
vt 0.0106132904 0.158168179
vt 0.00390625 0.158168179
vt 0.0106132904 0.186912638
vt 0.00390625 0.187870786
vt 0.0106132904 0.187870786
vt 0.00390625 0.187870786
vt 0.0106132904 0.187870786
vt 0.00390625 0.188828935
vt 0.0106132904 0.188828935
vt 0.00390625 0.30380677
vt 0.0106132904 0.30380677
vt 0.00390625 0.304764919
vt 0.0106132904 0.304764919
vt 0.00390625 0.305723067
vt 0.0106132904 0.305723067
vt 0.00390625 0.306681216
vt 0.0106132904 0.306681216
vt 0.00390625 0.334467526
vt 0.0106132904 0.334467526
vt 0.0125295876 0.0652277621
vt 0.011571439 0.0642696135
vt 0.0106132904 0.0652277621
vt 0.0106132904 0.0661859107
vt 0.00965514176 0.0652277621
vt 0.0106132904 0.0661859107
vt 0.0106132904 0.0652277621
vt 0.00965514176 0.0642696135
vt 0.0106132904 0.0633114649
vt 0.00582254725 0.0623533162
vt 0.011571439 0.0642696135
vt 0.00678069588 0.0613951676
vt 0.00582254725 0.060437019
vt 0.00486439863 0.060437019
vt 0.00390625 0.0585207217
vt 0.00678069588 0.0594788704
vt 0.00582254725 0.0585207217
vt 0.00390625 0.0163621821
vt 0.00486439863 0.0163621821
vt 0.00678069588 0.0154040335
vt 0.00486439863 0.0154040335
vt 0.00390625 0.0144458849
vt 0.00486439863 0.0134877363
vt 0.00582254725 0.0144458849
vt 0.0125295876 0.00390625
vt 0.0134877363 0.00486439863
vt 0.0144458849 0.00582254725
vt 0.0422321951 0.0297762629
vt 0.0431903437 0.0307344115
vt 0.0125295876 0.0652277621
vt 0.0441484923 0.0316925602
vt 0.677484735 0.92468708
vt 0.668861397 0.917021891
vt 0.676526586 0.925645229
vt 0.669819546 0.915105594
vt 0.678442883 0.923728932
vt 0.670777694 0.914147445
vt 0.706229193 0.899775216
vt 0.669819546 0.914147445
vt 0.667903248 0.915105594
vt 0.667903248 0.913189297
vt 0.669819546 0.913189297
vt 0.667903248 0.871030757
vt 0.669819546 0.871030757
vt 0.674610289 0.866240014
vt 0.707187342 0.898817067
vt 0.669819546 0.86911446
vt 0.668861397 0.86911446
vt 0.669819546 0.867198163
vt 0.670777694 0.870072609
vt 0.670777694 0.868156311
vt 0.67365214 0.864323717
vt 0.67365214 0.865281865
vt 0.674610289 0.865281865
vt 0.674610289 0.863365568
vt 0.676526586 0.864323717
vt 0.675568437 0.865281865
vt 0.708145491 0.897858919
vt 0.00390625 0.343090864
vt 0.00869699313 0.388123849
vt 0.00869699313 0.343090864
vt 0.00390625 0.388123849
vt 0.00390625 0.390040147
vt 0.00869699313 0.390040147
vt 0.00390625 0.390998295
vt 0.00869699313 0.390998295
vt 0.00869699313 0.395789038
vt 0.00390625 0.395789038
vt 0.00390625 0.397705336
vt 0.00869699313 0.397705336
vt 0.00390625 0.399621633
vt 0.00869699313 0.399621633
vt 0.00869699313 0.441780172
vt 0.00390625 0.441780172
vt 0.00390625 0.44369647
vt 0.00869699313 0.44369647
vt 0.00390625 0.445612767
vt 0.00869699313 0.445612767
vt 0.00869699313 0.45711055
vt 0.00390625 0.45711055
vt 0.368002728 0.940975607
vt 0.265480825 0.940975607
vt 0.265480825 0.942891904
vt 0.368002728 0.942891904
vt 0.368002728 0.942891904
vt 0.265480825 0.942891904
vt 0.265480825 0.943850053
vt 0.368002728 0.943850053
vt 0.368002728 0.954389688
vt 0.265480825 0.954389688
vt 0.265480825 0.940975607
vt 0.368002728 0.940975607
vt 0.368002728 0.898817067
vt 0.265480825 0.898817067
vt 0.368002728 0.89690077
vt 0.265480825 0.89690077
vt 0.368002728 0.895942622
vt 0.265480825 0.895942622
vt 0.265480825 0.894026324
vt 0.368002728 0.894026324
vt 0.368002728 0.893068176
vt 0.265480825 0.893068176
vt 0.368002728 0.892110027
vt 0.265480825 0.892110027
vt 0.368002728 0.84803519
vt 0.265480825 0.84803519
vt 0.0278599657 0.942891904
vt 0.0278599657 0.941933756
vt 0.026901817 0.942891904
vt 0.026901817 0.943850053
vt 0.0249855198 0.942891904
vt 0.026901817 0.943850053
vt 0.026901817 0.942891904
vt 0.0259436684 0.941933756
vt 0.026901817 0.940975607
vt 0.0211529253 0.940017458
vt 0.0278599657 0.941933756
vt 0.0221110739 0.93905931
vt 0.0211529253 0.938101161
vt 0.0201947767 0.938101161
vt 0.019236628 0.936184864
vt 0.0221110739 0.937143012
vt 0.0211529253 0.937143012
vt 0.019236628 0.894984473
vt 0.0211529253 0.894026324
vt 0.0221110739 0.893068176
vt 0.0211529253 0.893068176
vt 0.0201947767 0.893068176
vt 0.0201947767 0.891151878
vt 0.0211529253 0.892110027
vt 0.0278599657 0.881570392
vt 0.0288181143 0.882528541
vt 0.0297762629 0.883486689
vt 0.0575625731 0.907440405
vt 0.0585207217 0.908398554
vt 0.0278599657 0.942891904
vt 0.0594788704 0.909356702
vt 0.540469481 0.926603378
vt 0.532804292 0.918938189
vt 0.539511332 0.927561526
vt 0.532804292 0.917021891
vt 0.542385778 0.926603378
vt 0.533762441 0.916063743
vt 0.56921394 0.902649662
vt 0.532804292 0.917021891
vt 0.531846143 0.917021891
vt 0.530887995 0.915105594
vt 0.532804292 0.915105594
vt 0.530887995 0.872947054
vt 0.532804292 0.872947054
vt 0.538553184 0.868156311
vt 0.570172088 0.901691513
vt 0.532804292 0.871030757
vt 0.531846143 0.871030757
vt 0.532804292 0.86911446
vt 0.533762441 0.871988906
vt 0.533762441 0.870072609
vt 0.536636886 0.866240014
vt 0.537595035 0.867198163
vt 0.538553184 0.867198163
vt 0.538553184 0.866240014
vt 0.540469481 0.866240014
vt 0.539511332 0.867198163
vt 0.571130237 0.899775216
vt 0.128465571 0.67365214
vt 0.133256315 0.719643274
vt 0.133256315 0.67365214
vt 0.128465571 0.719643274
vt 0.128465571 0.720601423
vt 0.133256315 0.720601423
vt 0.128465571 0.72251772
vt 0.133256315 0.72251772
vt 0.133256315 0.726350315
vt 0.128465571 0.726350315
vt 0.128465571 0.728266612
vt 0.133256315 0.728266612
vt 0.128465571 0.730182909
vt 0.133256315 0.730182909
vt 0.133256315 0.772341449
vt 0.128465571 0.772341449
vt 0.128465571 0.774257746
vt 0.133256315 0.774257746
vt 0.128465571 0.776174043
vt 0.133256315 0.776174043
vt 0.133256315 0.787671827
vt 0.128465571 0.787671827
vt 0.26931342 0.0815162888
vt 0.270271568 0.0824744374
vt 0.271229717 0.0815162888
vt 0.272187865 0.083432586
vt 0.271229717 0.0805581401
vt 0.26931342 0.068102208
vt 0.272187865 0.0824744374
vt 0.272187865 0.0805581401
vt 0.271229717 0.068102208
vt 0.2827275 0.0824744374
vt 0.2827275 0.083432586
vt 0.271229717 0.0671440594
vt 0.270271568 0.0671440594
vt 0.272187865 0.0661859107
vt 0.2827275 0.0805581401
vt 0.283685649 0.0815162888
vt 0.284643798 0.0824744374
vt 0.285601946 0.0815162888
vt 0.272187865 0.068102208
vt 0.272187865 0.0671440594
vt 0.2827275 0.0661859107
vt 0.283685649 0.0805581401
vt 0.2827275 0.068102208
vt 0.2827275 0.0671440594
vt 0.283685649 0.068102208
vt 0.285601946 0.068102208
vt 0.283685649 0.0671440594
vt 0.284643798 0.0671440594
g paizi2_04paizi2_04_mobile_0
f 3/3/3 2/2/2 1/1/1
f 4/4/4 3/3/3 1/1/1
f 7/7/7 6/6/6 5/5/5
f 8/8/8 7/7/7 5/5/5
f 5/5/5 9/9/9 8/8/8
f 7/7/7 8/8/8 10/10/10
f 11/11/11 7/7/7 10/10/10
f 9/9/9 12/12/12 8/8/8
f 8/8/8 12/12/12 10/10/10
f 13/13/13 12/12/12 9/9/9
f 14/14/14 13/13/13 9/9/9
f 13/13/13 14/14/14 15/15/15
f 12/12/12 16/16/16 10/10/10
f 12/12/12 13/13/13 16/16/16
f 17/17/17 13/13/13 15/15/15
f 13/13/13 17/17/17 16/16/16
f 17/17/17 15/15/15 18/18/18
f 10/10/10 19/19/19 11/11/11
f 10/10/10 16/16/16 19/19/19
f 20/20/20 17/17/17 18/18/18
f 16/16/16 17/17/17 20/20/20
f 21/21/21 20/20/20 18/18/18
f 22/22/22 21/21/21 18/18/18
f 21/21/21 22/22/22 23/23/23
f 24/24/24 16/16/16 20/20/20
f 20/20/20 21/21/21 24/24/24
f 16/16/16 24/24/24 19/19/19
f 25/25/25 21/21/21 23/23/23
f 21/21/21 25/25/25 24/24/24
f 23/23/23 26/26/26 25/25/25
f 25/25/25 27/27/27 24/24/24
f 26/26/26 27/27/27 25/25/25
f 27/27/27 19/19/19 24/24/24
f 28/28/28 27/27/27 26/26/26
f 27/27/27 28/28/28 19/19/19
f 29/29/29 28/28/28 26/26/26
f 28/28/28 29/29/29 30/30/30
f 28/28/28 31/31/31 19/19/19
f 31/31/31 28/28/28 30/30/30
f 19/19/19 31/31/31 11/11/11
f 31/31/31 30/30/30 32/32/32
f 11/11/11 31/31/31 32/32/32
f 35/35/35 34/34/34 33/33/33
f 36/36/36 35/35/35 33/33/33
f 37/37/37 35/35/35 36/36/36
f 38/38/38 37/37/37 36/36/36
f 38/38/38 39/39/39 37/37/37
f 39/39/39 40/40/40 37/37/37
f 40/40/40 39/39/39 41/41/41
f 39/39/39 42/42/42 41/41/41
f 41/41/41 42/42/42 43/43/43
f 42/42/42 44/44/44 43/43/43
f 44/44/44 45/45/45 43/43/43
f 45/45/45 46/46/46 43/43/43
f 47/47/47 46/46/46 45/45/45
f 48/48/48 47/47/47 45/45/45
f 49/49/49 47/47/47 48/48/48
f 50/50/50 49/49/49 48/48/48
f 49/49/49 50/50/50 51/51/51
f 52/52/52 49/49/49 51/51/51
f 52/52/52 51/51/51 53/53/53
f 51/51/51 54/54/54 53/53/53
f 53/53/53 54/54/54 55/55/55
f 54/54/54 56/56/56 55/55/55
f 56/56/56 57/57/57 55/55/55
f 57/57/57 58/58/58 55/55/55
f 61/61/61 60/60/60 59/59/59
f 62/62/62 61/61/61 59/59/59
f 65/65/65 64/64/64 63/63/63
f 64/64/64 66/66/66 63/63/63
f 64/64/64 67/67/67 66/66/66
f 66/66/66 68/68/68 63/63/63
f 68/68/68 69/69/69 63/63/63
f 69/69/69 68/68/68 70/70/70
f 67/67/67 71/71/71 66/66/66
f 67/67/67 72/72/72 71/71/71
f 68/68/68 73/73/73 70/70/70
f 70/70/70 73/73/73 74/74/74
f 75/75/75 68/68/68 66/66/66
f 71/71/71 75/75/75 66/66/66
f 68/68/68 75/75/75 73/73/73
f 72/72/72 76/76/76 71/71/71
f 75/75/75 71/71/71 76/76/76
f 73/73/73 77/77/77 74/74/74
f 74/74/74 77/77/77 78/78/78
f 73/73/73 75/75/75 79/79/79
f 77/77/77 73/73/73 79/79/79
f 79/79/79 75/75/75 76/76/76
f 80/80/80 76/76/76 72/72/72
f 81/81/81 80/80/80 72/72/72
f 77/77/77 82/82/82 78/78/78
f 77/77/77 79/79/79 82/82/82
f 79/79/79 76/76/76 83/83/83
f 76/76/76 80/80/80 83/83/83
f 79/79/79 83/83/83 82/82/82
f 84/84/84 80/80/80 81/81/81
f 85/85/85 84/84/84 81/81/81
f 86/86/86 83/83/83 80/80/80
f 83/83/83 86/86/86 82/82/82
f 84/84/84 86/86/86 80/80/80
f 82/82/82 87/87/87 78/78/78
f 86/86/86 87/87/87 82/82/82
f 87/87/87 88/88/88 78/78/78
f 88/88/88 87/87/87 89/89/89
f 87/87/87 90/90/90 89/89/89
f 87/87/87 86/86/86 90/90/90
f 90/90/90 86/86/86 84/84/84
f 91/91/91 90/90/90 84/84/84
f 91/91/91 84/84/84 85/85/85
f 92/92/92 91/91/91 85/85/85
f 93/93/93 91/91/91 92/92/92
f 94/94/94 93/93/93 92/92/92
f 97/97/97 96/96/96 95/95/95
f 96/96/96 97/97/97 98/98/98
f 98/98/98 99/99/99 96/96/96
f 98/98/98 100/100/100 99/99/99
f 98/98/98 101/101/101 100/100/100
f 99/99/99 100/100/100 102/102/102
f 103/103/103 99/99/99 102/102/102
f 101/101/101 104/104/104 100/100/100
f 101/101/101 105/105/105 104/104/104
f 106/106/106 102/102/102 100/100/100
f 104/104/104 106/106/106 100/100/100
f 103/103/103 102/102/102 107/107/107
f 102/102/102 106/106/106 107/107/107
f 108/108/108 103/103/103 107/107/107
f 105/105/105 109/109/109 104/104/104
f 106/106/106 104/104/104 109/109/109
f 106/106/106 110/110/110 107/107/107
f 110/110/110 106/106/106 109/109/109
f 107/107/107 111/111/111 108/108/108
f 107/107/107 110/110/110 111/111/111
f 111/111/111 112/112/112 108/108/108
f 113/113/113 109/109/109 105/105/105
f 114/114/114 113/113/113 105/105/105
f 110/110/110 109/109/109 115/115/115
f 110/110/110 115/115/115 111/111/111
f 109/109/109 113/113/113 115/115/115
f 111/111/111 116/116/116 112/112/112
f 116/116/116 117/117/117 112/112/112
f 115/115/115 118/118/118 111/111/111
f 118/118/118 115/115/115 113/113/113
f 118/118/118 116/116/116 111/111/111
f 119/119/119 113/113/113 114/114/114
f 119/119/119 118/118/118 113/113/113
f 120/120/120 119/119/119 114/114/114
f 116/116/116 121/121/121 117/117/117
f 116/116/116 118/118/118 121/121/121
f 118/118/118 119/119/119 121/121/121
f 121/121/121 119/119/119 120/120/120
f 121/121/121 122/122/122 117/117/117
f 123/123/123 121/121/121 120/120/120
f 122/122/122 121/121/121 123/123/123
f 124/124/124 122/122/122 123/123/123
f 127/127/127 126/126/126 125/125/125
f 128/128/128 127/127/127 125/125/125
f 131/131/131 130/130/130 129/129/129
f 132/132/132 131/131/131 129/129/129
f 133/133/133 131/131/131 132/132/132
f 134/134/134 133/133/133 132/132/132
f 135/135/135 133/133/133 134/134/134
f 136/136/136 135/135/135 134/134/134
f 134/134/134 137/137/137 136/136/136
f 137/137/137 134/134/134 132/132/132
f 137/137/137 138/138/138 136/136/136
f 139/139/139 132/132/132 129/129/129
f 139/139/139 137/137/137 132/132/132
f 137/137/137 140/140/140 138/138/138
f 140/140/140 137/137/137 139/139/139
f 140/140/140 141/141/141 138/138/138
f 141/141/141 140/140/140 142/142/142
f 143/143/143 139/139/139 129/129/129
f 143/143/143 129/129/129 144/144/144
f 145/145/145 143/143/143 144/144/144
f 140/140/140 139/139/139 146/146/146
f 139/139/139 143/143/143 146/146/146
f 140/140/140 146/146/146 142/142/142
f 146/146/146 143/143/143 145/145/145
f 142/142/142 146/146/146 147/147/147
f 147/147/147 146/146/146 145/145/145
f 148/148/148 142/142/142 147/147/147
f 149/149/149 147/147/147 145/145/145
f 147/147/147 149/149/149 148/148/148
f 149/149/149 150/150/150 148/148/148
f 151/151/151 149/149/149 145/145/145
f 149/149/149 152/152/152 150/150/150
f 152/152/152 149/149/149 151/151/151
f 152/152/152 153/153/153 150/150/150
f 153/153/153 152/152/152 154/154/154
f 152/152/152 151/151/151 155/155/155
f 152/152/152 155/155/155 154/154/154
f 151/151/151 156/156/156 155/155/155
f 154/154/154 155/155/155 157/157/157
f 158/158/158 154/154/154 157/157/157
f 157/157/157 155/155/155 159/159/159
f 155/155/155 156/156/156 159/159/159
f 159/159/159 156/156/156 160/160/160
f 156/156/156 161/161/161 160/160/160
f 164/164/164 163/163/163 162/162/162
f 163/163/163 165/165/165 162/162/162
f 162/162/162 165/165/165 166/166/166
f 167/167/167 165/165/165 163/163/163
f 168/168/168 167/167/167 163/163/163
f 167/167/167 168/168/168 169/169/169
f 165/165/165 170/170/170 166/166/166
f 166/166/166 170/170/170 171/171/171
f 172/172/172 167/167/167 169/169/169
f 172/172/172 169/169/169 173/173/173
f 167/167/167 174/174/174 165/165/165
f 174/174/174 170/170/170 165/165/165
f 167/167/167 172/172/172 174/174/174
f 170/170/170 175/175/175 171/171/171
f 170/170/170 174/174/174 175/175/175
f 176/176/176 171/171/171 175/175/175
f 177/177/177 172/172/172 173/173/173
f 173/173/173 178/178/178 177/177/177
f 174/174/174 172/172/172 179/179/179
f 172/172/172 177/177/177 179/179/179
f 174/174/174 179/179/179 175/175/175
f 180/180/180 176/176/176 175/175/175
f 181/181/181 176/176/176 180/180/180
f 178/178/178 182/182/182 177/177/177
f 177/177/177 182/182/182 179/179/179
f 179/179/179 183/183/183 175/175/175
f 183/183/183 180/180/180 175/175/175
f 182/182/182 183/183/183 179/179/179
f 184/184/184 181/181/181 180/180/180
f 185/185/185 181/181/181 184/184/184
f 183/183/183 186/186/186 180/180/180
f 186/186/186 183/183/183 182/182/182
f 186/186/186 184/184/184 180/180/180
f 187/187/187 182/182/182 178/178/178
f 187/187/187 186/186/186 182/182/182
f 188/188/188 187/187/187 178/178/178
f 187/187/187 188/188/188 189/189/189
f 187/187/187 190/190/190 186/186/186
f 190/190/190 187/187/187 189/189/189
f 186/186/186 190/190/190 184/184/184
f 190/190/190 189/189/189 191/191/191
f 192/192/192 185/185/185 184/184/184
f 190/190/190 192/192/192 184/184/184
f 192/192/192 190/190/190 191/191/191
f 193/193/193 185/185/185 192/192/192
f 191/191/191 193/193/193 192/192/192
f 196/196/196 195/195/195 194/194/194
f 195/195/195 197/197/197 194/194/194
f 198/198/198 194/194/194 197/197/197
f 199/199/199 198/198/198 197/197/197
f 200/200/200 198/198/198 199/199/199
f 201/201/201 200/200/200 199/199/199
f 202/202/202 200/200/200 201/201/201
f 203/203/203 202/202/202 201/201/201
f 202/202/202 203/203/203 204/204/204
f 203/203/203 205/205/205 204/204/204
f 206/206/206 204/204/204 205/205/205
f 207/207/207 206/206/206 205/205/205
f 208/208/208 206/206/206 207/207/207
f 209/209/209 208/208/208 207/207/207
f 210/210/210 208/208/208 209/209/209
f 211/211/211 210/210/210 209/209/209
f 210/210/210 211/211/211 212/212/212
f 211/211/211 213/213/213 212/212/212
f 216/216/216 215/215/215 214/214/214
f 217/217/217 216/216/216 214/214/214
f 220/220/220 219/219/219 218/218/218
f 221/221/221 220/220/220 218/218/218
f 220/220/220 221/221/221 222/222/222
f 221/221/221 218/218/218 223/223/223
f 224/224/224 220/220/220 222/222/222
f 225/225/225 221/221/221 223/223/223
f 222/222/222 221/221/221 225/225/225
f 226/226/226 225/225/225 223/223/223
f 227/227/227 226/226/226 223/223/223
f 226/226/226 227/227/227 228/228/228
f 225/225/225 226/226/226 229/229/229
f 229/229/229 222/222/222 225/225/225
f 230/230/230 226/226/226 228/228/228
f 226/226/226 230/230/230 229/229/229
f 230/230/230 228/228/228 231/231/231
f 229/229/229 230/230/230 232/232/232
f 232/232/232 230/230/230 231/231/231
f 233/233/233 229/229/229 232/232/232
f 222/222/222 229/229/229 233/233/233
f 234/234/234 232/232/232 231/231/231
f 232/232/232 234/234/234 233/233/233
f 235/235/235 234/234/234 231/231/231
f 234/234/234 235/235/235 236/236/236
f 237/237/237 234/234/234 236/236/236
f 234/234/234 237/237/237 233/233/233
f 237/237/237 236/236/236 238/238/238
f 239/239/239 237/237/237 238/238/238
f 233/233/233 237/237/237 239/239/239
f 240/240/240 233/233/233 239/239/239
f 222/222/222 233/233/233 240/240/240
f 240/240/240 241/241/241 222/222/222
f 224/224/224 222/222/222 241/241/241
f 242/242/242 224/224/224 241/241/241
f 243/243/243 224/224/224 242/242/242
f 244/244/244 243/243/243 242/242/242
f 247/247/247 246/246/246 245/245/245
f 246/246/246 248/248/248 245/245/245
f 245/245/245 248/248/248 249/249/249
f 248/248/248 250/250/250 249/249/249
f 251/251/251 249/249/249 250/250/250
f 252/252/252 248/248/248 246/246/246
f 248/248/248 252/252/252 250/250/250
f 253/253/253 252/252/252 246/246/246
f 252/252/252 253/253/253 254/254/254
f 255/255/255 252/252/252 254/254/254
f 252/252/252 255/255/255 250/250/250
f 254/254/254 256/256/256 255/255/255
f 256/256/256 257/257/257 255/255/255
f 255/255/255 257/257/257 250/250/250
f 250/250/250 258/258/258 251/251/251
f 251/251/251 258/258/258 259/259/259
f 260/260/260 257/257/257 256/256/256
f 261/261/261 260/260/260 256/256/256
f 260/260/260 261/261/261 262/262/262
f 257/257/257 263/263/263 250/250/250
f 257/257/257 260/260/260 263/263/263
f 250/250/250 263/263/263 258/258/258
f 264/264/264 260/260/260 262/262/262
f 260/260/260 264/264/264 263/263/263
f 262/262/262 265/265/265 264/264/264
f 264/264/264 266/266/266 263/263/263
f 265/265/265 266/266/266 264/264/264
f 266/266/266 258/258/258 263/263/263
f 267/267/267 266/266/266 265/265/265
f 266/266/266 267/267/267 258/258/258
f 268/268/268 267/267/267 265/265/265
f 267/267/267 268/268/268 269/269/269
f 258/258/258 270/270/270 259/259/259
f 267/267/267 270/270/270 258/258/258
f 270/270/270 267/267/267 269/269/269
f 259/259/259 270/270/270 271/271/271
f 270/270/270 269/269/269 271/271/271
f 274/274/274 273/273/273 272/272/272
f 273/273/273 275/275/275 272/272/272
f 276/276/276 275/275/275 273/273/273
f 277/277/277 276/276/276 273/273/273
f 278/278/278 276/276/276 277/277/277
f 279/279/279 278/278/278 277/277/277
f 279/279/279 280/280/280 278/278/278
f 280/280/280 281/281/281 278/278/278
f 281/281/281 280/280/280 282/282/282
f 280/280/280 283/283/283 282/282/282
f 282/282/282 283/283/283 284/284/284
f 283/283/283 285/285/285 284/284/284
f 285/285/285 286/286/286 284/284/284
f 286/286/286 287/287/287 284/284/284
f 288/288/288 287/287/287 286/286/286
f 289/289/289 288/288/288 286/286/286
f 290/290/290 288/288/288 289/289/289
f 291/291/291 290/290/290 289/289/289
f 291/291/291 292/292/292 290/290/290
f 292/292/292 293/293/293 290/290/290
f 296/296/296 295/295/295 294/294/294
f 297/297/297 296/296/296 294/294/294
f 300/300/300 299/299/299 298/298/298
f 301/301/301 300/300/300 298/298/298
f 300/300/300 301/301/301 302/302/302
f 303/303/303 300/300/300 302/302/302
f 306/306/306 305/305/305 304/304/304
f 307/307/307 306/306/306 304/304/304
f 306/306/306 307/307/307 308/308/308
f 307/307/307 309/309/309 308/308/308
f 308/308/308 309/309/309 310/310/310
f 309/309/309 311/311/311 310/310/310
f 310/310/310 311/311/311 312/312/312
f 313/313/313 310/310/310 312/312/312
f 314/314/314 313/313/313 312/312/312
f 315/315/315 314/314/314 312/312/312
f 316/316/316 314/314/314 315/315/315
f 317/317/317 316/316/316 315/315/315
f 318/318/318 316/316/316 317/317/317
f 319/319/319 318/318/318 317/317/317
f 322/322/322 321/321/321 320/320/320
f 323/323/323 322/322/322 320/320/320
f 326/326/326 325/325/325 324/324/324
f 327/327/327 326/326/326 324/324/324
f 326/326/326 327/327/327 328/328/328
f 327/327/327 324/324/324 329/329/329
f 330/330/330 326/326/326 328/328/328
f 331/331/331 327/327/327 329/329/329
f 328/328/328 327/327/327 331/331/331
f 332/332/332 331/331/331 329/329/329
f 333/333/333 332/332/332 329/329/329
f 332/332/332 333/333/333 334/334/334
f 331/331/331 332/332/332 335/335/335
f 335/335/335 328/328/328 331/331/331
f 336/336/336 332/332/332 334/334/334
f 332/332/332 336/336/336 335/335/335
f 336/336/336 334/334/334 337/337/337
f 335/335/335 336/336/336 338/338/338
f 338/338/338 336/336/336 337/337/337
f 339/339/339 335/335/335 338/338/338
f 328/328/328 335/335/335 339/339/339
f 340/340/340 338/338/338 337/337/337
f 338/338/338 340/340/340 339/339/339
f 341/341/341 340/340/340 337/337/337
f 340/340/340 341/341/341 342/342/342
f 343/343/343 340/340/340 342/342/342
f 340/340/340 343/343/343 339/339/339
f 343/343/343 342/342/342 344/344/344
f 345/345/345 343/343/343 344/344/344
f 339/339/339 343/343/343 345/345/345
f 346/346/346 339/339/339 345/345/345
f 328/328/328 339/339/339 346/346/346
f 346/346/346 347/347/347 328/328/328
f 330/330/330 328/328/328 347/347/347
f 348/348/348 330/330/330 347/347/347
f 349/349/349 330/330/330 348/348/348
f 350/350/350 349/349/349 348/348/348
f 353/353/353 352/352/352 351/351/351
f 352/352/352 354/354/354 351/351/351
f 351/351/351 354/354/354 355/355/355
f 354/354/354 356/356/356 355/355/355
f 357/357/357 355/355/355 356/356/356
f 358/358/358 354/354/354 352/352/352
f 354/354/354 358/358/358 356/356/356
f 359/359/359 358/358/358 352/352/352
f 358/358/358 359/359/359 360/360/360
f 361/361/361 358/358/358 360/360/360
f 358/358/358 361/361/361 356/356/356
f 360/360/360 362/362/362 361/361/361
f 362/362/362 363/363/363 361/361/361
f 361/361/361 363/363/363 356/356/356
f 356/356/356 364/364/364 357/357/357
f 357/357/357 364/364/364 365/365/365
f 366/366/366 363/363/363 362/362/362
f 367/367/367 366/366/366 362/362/362
f 366/366/366 367/367/367 368/368/368
f 363/363/363 369/369/369 356/356/356
f 363/363/363 366/366/366 369/369/369
f 356/356/356 369/369/369 364/364/364
f 370/370/370 366/366/366 368/368/368
f 366/366/366 370/370/370 369/369/369
f 368/368/368 371/371/371 370/370/370
f 370/370/370 372/372/372 369/369/369
f 371/371/371 372/372/372 370/370/370
f 372/372/372 364/364/364 369/369/369
f 373/373/373 372/372/372 371/371/371
f 372/372/372 373/373/373 364/364/364
f 374/374/374 373/373/373 371/371/371
f 373/373/373 374/374/374 375/375/375
f 364/364/364 376/376/376 365/365/365
f 373/373/373 376/376/376 364/364/364
f 376/376/376 373/373/373 375/375/375
f 365/365/365 376/376/376 377/377/377
f 376/376/376 375/375/375 377/377/377
f 380/380/380 379/379/379 378/378/378
f 379/379/379 381/381/381 378/378/378
f 382/382/382 381/381/381 379/379/379
f 383/383/383 382/382/382 379/379/379
f 384/384/384 382/382/382 383/383/383
f 385/385/385 384/384/384 383/383/383
f 385/385/385 386/386/386 384/384/384
f 386/386/386 387/387/387 384/384/384
f 387/387/387 386/386/386 388/388/388
f 386/386/386 389/389/389 388/388/388
f 388/388/388 389/389/389 390/390/390
f 389/389/389 391/391/391 390/390/390
f 391/391/391 392/392/392 390/390/390
f 392/392/392 393/393/393 390/390/390
f 394/394/394 393/393/393 392/392/392
f 395/395/395 394/394/394 392/392/392
f 396/396/396 394/394/394 395/395/395
f 397/397/397 396/396/396 395/395/395
f 397/397/397 398/398/398 396/396/396
f 398/398/398 399/399/399 396/396/396
f 402/402/402 401/401/401 400/400/400
f 401/401/401 402/402/402 403/403/403
f 404/404/404 402/402/402 400/400/400
f 404/404/404 400/400/400 405/405/405
f 402/402/402 406/406/406 403/403/403
f 402/402/402 404/404/404 407/407/407
f 406/406/406 402/402/402 407/407/407
f 408/408/408 404/404/404 405/405/405
f 407/407/407 404/404/404 408/408/408
f 406/406/406 409/409/409 403/403/403
f 409/409/409 410/410/410 403/403/403
f 411/411/411 408/408/408 405/405/405
f 412/412/412 411/411/411 405/405/405
f 411/411/411 412/412/412 413/413/413
f 414/414/414 409/409/409 406/406/406
f 407/407/407 414/414/414 406/406/406
f 409/409/409 415/415/415 410/410/410
f 415/415/415 409/409/409 414/414/414
f 415/415/415 416/416/416 410/410/410
f 416/416/416 415/415/415 417/417/417
f 408/408/408 411/411/411 418/418/418
f 418/418/418 407/407/407 408/408/408
f 419/419/419 411/411/411 413/413/413
f 411/411/411 419/419/419 418/418/418
f 413/413/413 420/420/420 419/419/419
f 421/421/421 415/415/415 414/414/414
f 415/415/415 421/421/421 417/417/417
f 414/414/414 407/407/407 422/422/422
f 407/407/407 418/418/418 422/422/422
f 414/414/414 422/422/422 421/421/421
f 419/419/419 423/423/423 418/418/418
f 420/420/420 423/423/423 419/419/419
f 423/423/423 422/422/422 418/418/418
f 421/421/421 424/424/424 417/417/417
f 422/422/422 424/424/424 421/421/421
f 424/424/424 425/425/425 417/417/417
f 426/426/426 423/423/423 420/420/420
f 423/423/423 426/426/426 422/422/422
f 426/426/426 424/424/424 422/422/422
f 424/424/424 426/426/426 425/425/425
f 427/427/427 426/426/426 420/420/420
f 426/426/426 427/427/427 425/425/425
