g paizipCylinder2_mobile
v 0.00991456035 -0.00484245686 -0.00130541237
v 0.00991456035 0.00883421689 -0.00130541237
v 0.00965912409 0.00883421689 -0.00258808692
v 0.009885263 0.00948150519 -0.00130144502
v 0.00963104747 0.00948150519 -0.0025804574
v 0.00981507144 0.00974975904 -0.0012922896
v 0.00956268699 0.00974975904 -0.00256214656
v 0.00951721506 0.00974975904 -0.00125292129
v 0.00927215495 0.00974975904 -0.00248463066
v 0.0094470235 0.00948150519 -0.00124376587
v 0.00920379447 0.00948150519 -0.00246631981
v 0.00941803133 0.00883421689 -0.00123979852
v 0.00917571784 0.00883421689 -0.0024586903
v 0.00941803133 -0.00484245686 -0.00123979852
v 0.00917571784 -0.00484245686 -0.0024586903
v 0.0094470235 -0.00548974516 -0.00124376587
v 0.00920379447 -0.00548974516 -0.00246631981
v 0.00951721506 -0.00575799901 -0.00125292129
v 0.00927215495 -0.00575799901 -0.00248463066
v 0.00981507144 -0.00575799901 -0.0012922896
v 0.00956268699 -0.00575799901 -0.00256214656
v 0.009885263 -0.00548974516 -0.00130144502
v 0.00963104747 -0.00548974516 -0.0025804574
v 0.00965912409 -0.00484245686 -0.00258808692
v 0.00923889025 0.00883421689 -0.00382681544
v 0.00921172916 0.00948150519 -0.00381552376
v 0.00914642049 0.00974975904 -0.00378836267
v 0.00886870604 0.00974975904 -0.00367361472
v 0.00880339737 0.00948150519 -0.00364645364
v 0.00877623628 0.00883421689 -0.00363516195
v 0.00877623628 -0.00484245686 -0.00363516195
v 0.00880339737 -0.00548974516 -0.00364645364
v 0.00886870604 -0.00575799901 -0.00367361472
v 0.00914642049 -0.00575799901 -0.00378836267
v 0.00921172916 -0.00548974516 -0.00381552376
v 0.00923889025 -0.00484245686 -0.00382681544
v 0.00866026761 0.00883421689 -0.00499993011
v 0.00863493761 0.00948150519 -0.00498528144
v 0.00857359629 0.00974975904 -0.00494988048
v 0.00831327714 0.00974975904 -0.00479973156
v 0.00825193581 0.00948150519 -0.0047643306
v 0.00822660582 0.00883421689 -0.00474968193
v 0.00822660582 -0.00484245686 -0.00474968193
v 0.00825193581 -0.00548974516 -0.0047643306
v 0.00831327714 -0.00575799901 -0.00479973156
v 0.00857359629 -0.00575799901 -0.00494988048
v 0.00863493761 -0.00548974516 -0.00498528144
v 0.00866026761 -0.00484245686 -0.00499993011
v 0.00793363233 0.00883421689 -0.00608759418
v 0.00791013341 0.00948150519 -0.0060698937
v 0.00785398016 0.00974975904 -0.00602655804
v 0.00761563402 0.00974975904 -0.00584375479
v 0.00755948077 0.00948150519 -0.00580072431
v 0.00753628704 0.00883421689 -0.00578271865
v 0.00753628704 -0.00484245686 -0.00578271865
v 0.00755948077 -0.00548974516 -0.00580072431
v 0.00761563402 -0.00575799901 -0.00584375479
v 0.00785398016 -0.00575799901 -0.00602655804
v 0.00791013341 -0.00548974516 -0.0060698937
v 0.00793363233 -0.00484245686 -0.00608759418
v 0.00707119163 0.00883421689 -0.00707119163
v 0.00705043934 0.00948150519 -0.00705043934
v 0.0070003897 0.00974975904 -0.0070003897
v 0.00678767874 0.00974975904 -0.00678767874
v 0.00673762911 0.00948150519 -0.00673762911
v 0.00671687682 0.00883421689 -0.00671687682
v 0.00671687682 -0.00484245686 -0.00671687682
v 0.00673762911 -0.00548974516 -0.00673762911
v 0.00678767874 -0.00575799901 -0.00678767874
v 0.0070003897 -0.00575799901 -0.0070003897
v 0.00705043934 -0.00548974516 -0.00705043934
v 0.00707119163 -0.00484245686 -0.00707119163
v 0.00608759418 0.00883421689 -0.00793363233
v 0.0060698937 0.00948150519 -0.00791013341
v 0.00602655804 0.00974975904 -0.00785398016
v 0.00584375479 0.00974975904 -0.00761563402
v 0.00580072431 0.00948150519 -0.00755948077
v 0.00578271865 0.00883421689 -0.00753628704
v 0.00578271865 -0.00484245686 -0.00753628704
v 0.00580072431 -0.00548974516 -0.00755948077
v 0.00584375479 -0.00575799901 -0.00761563402
v 0.00602655804 -0.00575799901 -0.00785398016
v 0.0060698937 -0.00548974516 -0.00791013341
v 0.00608759418 -0.00484245686 -0.00793363233
v 0.00499993011 0.00883421689 -0.00866026761
v 0.00498528144 0.00948150519 -0.00863493761
v 0.00494988048 0.00974975904 -0.00857359629
v 0.00479973156 0.00974975904 -0.00831327714
v 0.0047643306 0.00948150519 -0.00825193581
v 0.00474968193 0.00883421689 -0.00822660582
v 0.00474968193 -0.00484245686 -0.00822660582
v 0.0047643306 -0.00548974516 -0.00825193581
v 0.00479973156 -0.00575799901 -0.00831327714
v 0.00494988048 -0.00575799901 -0.00857359629
v 0.00498528144 -0.00548974516 -0.00863493761
v 0.00499993011 -0.00484245686 -0.00866026761
v 0.00382681544 0.00883421689 -0.00923889025
v 0.00381552376 0.00948150519 -0.00921172916
v 0.00378866785 0.00974975904 -0.00914642049
v 0.00367361472 0.00974975904 -0.00886870604
v 0.00364645364 0.00948150519 -0.00880339737
v 0.00363516195 0.00883421689 -0.00877623628
v 0.00363516195 -0.00484245686 -0.00877623628
v 0.00364645364 -0.00548974516 -0.00880339737
v 0.00367361472 -0.00575799901 -0.00886870604
v 0.00378866785 -0.00575799901 -0.00914642049
v 0.00381552376 -0.00548974516 -0.00921172916
v 0.00382681544 -0.00484245686 -0.00923889025
v 0.00258808692 0.00883421689 -0.00965912409
v 0.0025804574 0.00948150519 -0.00963104747
v 0.00256214656 0.00974975904 -0.00956268699
v 0.00248463066 0.00974975904 -0.00927215495
v 0.00246631981 0.00948150519 -0.00920379447
v 0.0024586903 0.00883421689 -0.00917541266
v 0.0024586903 -0.00484245686 -0.00917541266
v 0.00246631981 -0.00548974516 -0.00920379447
v 0.00248463066 -0.00575799901 -0.00927215495
v 0.00256214656 -0.00575799901 -0.00956268699
v 0.0025804574 -0.00548974516 -0.00963104747
v 0.00258808692 -0.00484245686 -0.00965912409
v 0.00130541237 0.00883421689 -0.00991456035
v 0.00130144502 0.00948150519 -0.009885263
v 0.0012922896 0.00974975904 -0.00981507144
v 0.00125292129 0.00974975904 -0.00951721506
v 0.00124376587 0.00948150519 -0.0094470235
v 0.00123979852 0.00883421689 -0.00941803133
v 0.00123979852 -0.00484245686 -0.00941803133
v 0.00124376587 -0.00548974516 -0.0094470235
v 0.00125292129 -0.00575799901 -0.00951721506
v 0.0012922896 -0.00575799901 -0.00981507144
v 0.00130144502 -0.00548974516 -0.009885263
v 0.00130541237 -0.00484245686 -0.00991456035
v -1.50727713E-07 0.00883421689 -0.010000011
v -1.50727713E-07 0.00948150519 -0.0099707136
v -1.50727713E-07 0.00974975904 -0.00989991168
v -1.50727713E-07 0.00974975904 -0.00959930867
v -1.50727713E-07 0.00948150519 -0.00952850675
v -1.50727713E-07 0.00883421689 -0.0094992094
v -1.50727713E-07 -0.00484245686 -0.0094992094
v -1.50727713E-07 -0.00548974516 -0.00952850675
v -1.50727713E-07 -0.00575799901 -0.00959930867
v -1.50727713E-07 -0.00575799901 -0.00989991168
v -1.50727713E-07 -0.00548974516 -0.0099707136
v -1.50727713E-07 -0.00484245686 -0.010000011
v -0.00130540865 0.00883421689 -0.00991456035
v -0.0013014413 0.00948150519 -0.009885263
v -0.00129228588 0.00974975904 -0.00981507144
v -0.00125291756 0.00974975904 -0.00951721506
v -0.00124376214 0.00948150519 -0.0094470235
v -0.00123979479 0.00883421689 -0.00941803133
v -0.00123979479 -0.00484245686 -0.00941803133
v -0.00124376214 -0.00548974516 -0.0094470235
v -0.00125291756 -0.00575799901 -0.00951721506
v -0.00129228588 -0.00575799901 -0.00981507144
v -0.0013014413 -0.00548974516 -0.009885263
v -0.00130540865 -0.00484245686 -0.00991456035
v -0.00258808319 0.00883421689 -0.00965912409
v -0.00258045368 0.00948150519 -0.00963104747
v -0.00256214283 0.00974975904 -0.00956268699
v -0.00248462693 0.00974975904 -0.00927215495
v -0.00246631609 0.00948150519 -0.00920379447
v -0.00245868657 0.00883421689 -0.00917541266
v -0.00245868657 -0.00484245686 -0.00917541266
v -0.00246631609 -0.00548974516 -0.00920379447
v -0.00248462693 -0.00575799901 -0.00927215495
v -0.00256214283 -0.00575799901 -0.00956268699
v -0.00258045368 -0.00548974516 -0.00963104747
v -0.00258808319 -0.00484245686 -0.00965912409
v -0.00382681172 0.00883421689 -0.00923889025
v -0.00381552003 0.00948150519 -0.00921172916
v -0.00378866413 0.00974975904 -0.00914642049
v -0.003673611 0.00974975904 -0.00886870604
v -0.00364644991 0.00948150519 -0.00880339737
v -0.00363515823 0.00883421689 -0.00877623628
v -0.00363515823 -0.00484245686 -0.00877623628
v -0.00364644991 -0.00548974516 -0.00880339737
v -0.003673611 -0.00575799901 -0.00886870604
v -0.00378866413 -0.00575799901 -0.00914642049
v -0.00381552003 -0.00548974516 -0.00921172916
v -0.00382681172 -0.00484245686 -0.00923889025
v -0.00499992639 0.00883421689 -0.00866026761
v -0.00498527771 0.00948150519 -0.00863493761
v -0.00494987675 0.00974975904 -0.00857359629
v -0.00479972784 0.00974975904 -0.00831327714
v -0.00476432687 0.00948150519 -0.00825193581
v -0.0047496782 0.00883421689 -0.00822660582
v -0.0047496782 -0.00484245686 -0.00822660582
v -0.00476432687 -0.00548974516 -0.00825193581
v -0.00479972784 -0.00575799901 -0.00831327714
v -0.00494987675 -0.00575799901 -0.00857359629
v -0.00498527771 -0.00548974516 -0.00863493761
v -0.00499992639 -0.00484245686 -0.00866026761
v -0.00608759046 0.00883421689 -0.00793363233
v -0.00606988997 0.00948150519 -0.00791013341
v -0.00602655431 0.00974975904 -0.00785398016
v -0.00584375106 0.00974975904 -0.00761563402
v -0.00580072058 0.00948150519 -0.00755948077
v -0.00578271492 0.00883421689 -0.00753628704
v -0.00578271492 -0.00484245686 -0.00753628704
v -0.00580072058 -0.00548974516 -0.00755948077
v -0.00584375106 -0.00575799901 -0.00761563402
v -0.00602655431 -0.00575799901 -0.00785398016
v -0.00606988997 -0.00548974516 -0.00791013341
v -0.00608759046 -0.00484245686 -0.00793363233
v -0.0070711879 0.00883421689 -0.00707119163
v -0.00705043561 0.00948150519 -0.00705043934
v -0.00700038598 0.00974975904 -0.0070003897
v -0.00678767502 0.00974975904 -0.00678767874
v -0.00673762538 0.00948150519 -0.00673762911
v -0.00671687309 0.00883421689 -0.00671687682
v -0.00671687309 -0.00484245686 -0.00671687682
v -0.00673762538 -0.00548974516 -0.00673762911
v -0.00678767502 -0.00575799901 -0.00678767874
v -0.00700038598 -0.00575799901 -0.0070003897
v -0.00705043561 -0.00548974516 -0.00705043934
v -0.0070711879 -0.00484245686 -0.00707119163
v -0.0079336286 0.00883421689 -0.00608759418
v -0.00791012969 0.00948150519 -0.0060698937
v -0.00785397644 0.00974975904 -0.00602655804
v -0.0076156303 0.00974975904 -0.00584375479
v -0.00755947705 0.00948150519 -0.00580072431
v -0.00753628331 0.00883421689 -0.00578271865
v -0.00753628331 -0.00484245686 -0.00578271865
v -0.00755947705 -0.00548974516 -0.00580072431
v -0.0076156303 -0.00575799901 -0.00584375479
v -0.00785397644 -0.00575799901 -0.00602655804
v -0.00791012969 -0.00548974516 -0.0060698937
v -0.0079336286 -0.00484245686 -0.00608759418
v -0.00866026389 0.00883421689 -0.00499993011
v -0.00863493389 0.00948150519 -0.00498528144
v -0.00857359256 0.00974975904 -0.00494988048
v -0.00831327341 0.00974975904 -0.00479973156
v -0.00825193209 0.00948150519 -0.0047643306
v -0.00822660209 0.00883421689 -0.00474968193
v -0.00822660209 -0.00484245686 -0.00474968193
v -0.00825193209 -0.00548974516 -0.0047643306
v -0.00831327341 -0.00575799901 -0.00479973156
v -0.00857359256 -0.00575799901 -0.00494988048
v -0.00863493389 -0.00548974516 -0.00498528144
v -0.00866026389 -0.00484245686 -0.00499993011
v -0.00923888652 0.00883421689 -0.00382681544
v -0.00921172544 0.00948150519 -0.00381552376
v -0.00914641677 0.00974975904 -0.00378866785
v -0.00886870232 0.00974975904 -0.00367361472
v -0.00880339364 0.00948150519 -0.00364645364
v -0.00877623256 0.00883421689 -0.00363516195
v -0.00877623256 -0.00484245686 -0.00363516195
v -0.00880339364 -0.00548974516 -0.00364645364
v -0.00886870232 -0.00575799901 -0.00367361472
v -0.00914641677 -0.00575799901 -0.00378866785
v -0.00921172544 -0.00548974516 -0.00381552376
v -0.00923888652 -0.00484245686 -0.00382681544
v -0.00965912037 0.00883421689 -0.00258808692
v -0.00963104374 0.00948150519 -0.0025804574
v -0.00956268326 0.00974975904 -0.00256214656
v -0.00927215122 0.00974975904 -0.00248463066
v -0.00920379074 0.00948150519 -0.00246631981
v -0.00917571411 0.00883421689 -0.0024586903
v -0.00917571411 -0.00484245686 -0.0024586903
v -0.00920379074 -0.00548974516 -0.00246631981
v -0.00927215122 -0.00575799901 -0.00248463066
v -0.00956268326 -0.00575799901 -0.00256214656
v -0.00963104374 -0.00548974516 -0.0025804574
v -0.00965912037 -0.00484245686 -0.00258808692
v -0.00991455663 0.00883421689 -0.00130541237
v -0.00988525928 0.00948150519 -0.00130144502
v -0.00981506771 0.00974975904 -0.0012922896
v -0.00951721134 0.00974975904 -0.00125292129
v -0.00944701977 0.00948150519 -0.00124376587
v -0.0094180276 0.00883421689 -0.00123979852
v -0.0094180276 -0.00484245686 -0.00123979852
v -0.00944701977 -0.00548974516 -0.00124376587
v -0.00951721134 -0.00575799901 -0.00125292129
v -0.00981506771 -0.00575799901 -0.0012922896
v -0.00988525928 -0.00548974516 -0.00130144502
v -0.00991455663 -0.00484245686 -0.00130541237
v -0.0100000072 0.00883421689 1.50727713E-07
v -0.00997070988 0.00948150519 1.50727713E-07
v -0.00989990795 0.00974975904 1.50727713E-07
v -0.00959930495 0.00974975904 1.50727713E-07
v -0.00952850302 0.00948150519 1.50727713E-07
v -0.00949920567 0.00883421689 1.50727713E-07
v -0.00949920567 -0.00484245686 1.50727713E-07
v -0.00952850302 -0.00548974516 1.50727713E-07
v -0.00959930495 -0.00575799901 1.50727713E-07
v -0.00989990795 -0.00575799901 1.50727713E-07
v -0.00997070988 -0.00548974516 1.50727713E-07
v -0.0100000072 -0.00484245686 1.50727713E-07
v -0.00991455663 0.00883421689 0.00130540865
v -0.00988525928 0.00948150519 0.0013014413
v -0.00981506771 0.00974975904 0.00129228588
v -0.00951721134 0.00974975904 0.00125291756
v -0.00944701977 0.00948150519 0.00124376214
v -0.0094180276 0.00883421689 0.00123979479
v -0.0094180276 -0.00484245686 0.00123979479
v -0.00944701977 -0.00548974516 0.00124376214
v -0.00951721134 -0.00575799901 0.00125291756
v -0.00981506771 -0.00575799901 0.00129228588
v -0.00988525928 -0.00548974516 0.0013014413
v -0.00991455663 -0.00484245686 0.00130540865
v -0.00965912037 0.00883421689 0.00258808319
v -0.00963104374 0.00948150519 0.00258045368
v -0.00956268326 0.00974975904 0.00256214283
v -0.00927215122 0.00974975904 0.00248462693
v -0.00920379074 0.00948150519 0.00246631609
v -0.00917571411 0.00883421689 0.00245868657
v -0.00917571411 -0.00484245686 0.00245868657
v -0.00920379074 -0.00548974516 0.00246631609
v -0.00927215122 -0.00575799901 0.00248462693
v -0.00956268326 -0.00575799901 0.00256214283
v -0.00963104374 -0.00548974516 0.00258045368
v -0.00965912037 -0.00484245686 0.00258808319
v -0.00923888652 0.00883421689 0.00382681172
v -0.00921172544 0.00948150519 0.00381552003
v -0.00914641677 0.00974975904 0.00378866413
v -0.00886870232 0.00974975904 0.003673611
v -0.00880339364 0.00948150519 0.00364644991
v -0.00877623256 0.00883421689 0.00363515823
v -0.00877623256 -0.00484245686 0.00363515823
v -0.00880339364 -0.00548974516 0.00364644991
v -0.00886870232 -0.00575799901 0.003673611
v -0.00914641677 -0.00575799901 0.00378866413
v -0.00921172544 -0.00548974516 0.00381552003
v -0.00923888652 -0.00484245686 0.00382681172
v -0.00866026389 0.00883421689 0.00499992639
v -0.00863493389 0.00948150519 0.00498527771
v -0.00857359256 0.00974975904 0.00494987675
v -0.00831327341 0.00974975904 0.00479972784
v -0.00825193209 0.00948150519 0.00476432687
v -0.00822660209 0.00883421689 0.0047496782
v -0.00822660209 -0.00484245686 0.0047496782
v -0.00825193209 -0.00548974516 0.00476432687
v -0.00831327341 -0.00575799901 0.00479972784
v -0.00857359256 -0.00575799901 0.00494987675
v -0.00863493389 -0.00548974516 0.00498527771
v -0.00866026389 -0.00484245686 0.00499992639
v -0.0079336286 0.00883421689 0.00608759046
v -0.00791012969 0.00948150519 0.00606988997
v -0.00785397644 0.00974975904 0.00602655431
v -0.0076156303 0.00974975904 0.00584375106
v -0.00755947705 0.00948150519 0.00580072058
v -0.00753628331 0.00883421689 0.00578271492
v -0.00753628331 -0.00484245686 0.00578271492
v -0.00755947705 -0.00548974516 0.00580072058
v -0.0076156303 -0.00575799901 0.00584375106
v -0.00785397644 -0.00575799901 0.00602655431
v -0.00791012969 -0.00548974516 0.00606988997
v -0.0079336286 -0.00484245686 0.00608759046
v -0.0070711879 0.00883421689 0.0070711879
v -0.00705043561 0.00948150519 0.00705043561
v -0.00700038598 0.00974975904 0.00700038598
v -0.00678767502 0.00974975904 0.00678767502
v -0.00673762538 0.00948150519 0.00673762538
v -0.00671687309 0.00883421689 0.00671687309
v -0.00671687309 -0.00484245686 0.00671687309
v -0.00673762538 -0.00548974516 0.00673762538
v -0.00678767502 -0.00575799901 0.00678767502
v -0.00700038598 -0.00575799901 0.00700038598
v -0.00705043561 -0.00548974516 0.00705043561
v -0.0070711879 -0.00484245686 0.0070711879
v -0.00608759046 0.00883421689 0.0079336286
v -0.00606988997 0.00948150519 0.00791012969
v -0.00602655431 0.00974975904 0.00785397644
v -0.00584375106 0.00974975904 0.0076156303
v -0.00580072058 0.00948150519 0.00755947705
v -0.00578271492 0.00883421689 0.00753628331
v -0.00578271492 -0.00484245686 0.00753628331
v -0.00580072058 -0.00548974516 0.00755947705
v -0.00584375106 -0.00575799901 0.0076156303
v -0.00602655431 -0.00575799901 0.00785397644
v -0.00606988997 -0.00548974516 0.00791012969
v -0.00608759046 -0.00484245686 0.0079336286
v -0.00499992639 0.00883421689 0.00866026389
v -0.00498527771 0.00948150519 0.00863493389
v -0.00494987675 0.00974975904 0.00857359256
v -0.00479972784 0.00974975904 0.00831327341
v -0.00476432687 0.00948150519 0.00825193209
v -0.0047496782 0.00883421689 0.00822660209
v -0.0047496782 -0.00484245686 0.00822660209
v -0.00476432687 -0.00548974516 0.00825193209
v -0.00479972784 -0.00575799901 0.00831327341
v -0.00494987675 -0.00575799901 0.00857359256
v -0.00498527771 -0.00548974516 0.00863493389
v -0.00499992639 -0.00484245686 0.00866026389
v -0.00382681172 0.00883421689 0.00923888652
v -0.00381552003 0.00948150519 0.00921172544
v -0.00378866413 0.00974975904 0.00914641677
v -0.003673611 0.00974975904 0.00886870232
v -0.00364644991 0.00948150519 0.00880339364
v -0.00363515823 0.00883421689 0.00877623256
v -0.00363515823 -0.00484245686 0.00877623256
v -0.00364644991 -0.00548974516 0.00880339364
v -0.003673611 -0.00575799901 0.00886870232
v -0.00378866413 -0.00575799901 0.00914641677
v -0.00381552003 -0.00548974516 0.00921172544
v -0.00382681172 -0.00484245686 0.00923888652
v -0.00258808319 0.00883421689 0.00965912037
v -0.00258045368 0.00948150519 0.00963104374
v -0.00256214283 0.00974975904 0.00956268326
v -0.00248462693 0.00974975904 0.00927215122
v -0.00246631609 0.00948150519 0.00920379074
v -0.00245868657 0.00883421689 0.00917540893
v -0.00245868657 -0.00484245686 0.00917540893
v -0.00246631609 -0.00548974516 0.00920379074
v -0.00248462693 -0.00575799901 0.00927215122
v -0.00256214283 -0.00575799901 0.00956268326
v -0.00258045368 -0.00548974516 0.00963104374
v -0.00258808319 -0.00484245686 0.00965912037
v -0.00130540865 0.00883421689 0.00991455663
v -0.0013014413 0.00948150519 0.00988525928
v -0.00129228588 0.00974975904 0.00981506771
v -0.00125291756 0.00974975904 0.00951721134
v -0.00124376214 0.00948150519 0.00944701977
v -0.00123979479 0.00883421689 0.0094180276
v -0.00123979479 -0.00484245686 0.0094180276
v -0.00124376214 -0.00548974516 0.00944701977
v -0.00125291756 -0.00575799901 0.00951721134
v -0.00129228588 -0.00575799901 0.00981506771
v -0.0013014413 -0.00548974516 0.00988525928
v -0.00130540865 -0.00484245686 0.00991455663
v -1.50727713E-07 0.00883421689 0.0100000072
v -1.50727713E-07 0.00948150519 0.00997070988
v -1.50727713E-07 0.00974975904 0.00989990795
v -1.50727713E-07 0.00974975904 0.00959930495
v -1.50727713E-07 0.00948150519 0.00952850302
v -1.50727713E-07 0.00883421689 0.00949920567
v -1.50727713E-07 -0.00484245686 0.00949920567
v -1.50727713E-07 -0.00548974516 0.00952850302
v -1.50727713E-07 -0.00575799901 0.00959930495
v -1.50727713E-07 -0.00575799901 0.00989990795
v -1.50727713E-07 -0.00548974516 0.00997070988
v -1.50727713E-07 -0.00484245686 0.0100000072
v 0.00130541237 0.00883421689 0.00991455663
v 0.00130144502 0.00948150519 0.00988525928
v 0.0012922896 0.00974975904 0.00981506771
v 0.00125292129 0.00974975904 0.00951721134
v 0.00124376587 0.00948150519 0.00944701977
v 0.00123979852 0.00883421689 0.0094180276
v 0.00123979852 -0.00484245686 0.0094180276
v 0.00124376587 -0.00548974516 0.00944701977
v 0.00125292129 -0.00575799901 0.00951721134
v 0.0012922896 -0.00575799901 0.00981506771
v 0.00130144502 -0.00548974516 0.00988525928
v 0.00130541237 -0.00484245686 0.00991455663
v 0.00258808692 0.00883421689 0.00965912037
v 0.0025804574 0.00948150519 0.00963104374
v 0.00256214656 0.00974975904 0.00956237808
v 0.00248463066 0.00974975904 0.00927215122
v 0.00246631981 0.00948150519 0.00920379074
v 0.0024586903 0.00883421689 0.00917540893
v 0.0024586903 -0.00484245686 0.00917540893
v 0.00246631981 -0.00548974516 0.00920379074
v 0.00248463066 -0.00575799901 0.00927215122
v 0.00256214656 -0.00575799901 0.00956237808
v 0.0025804574 -0.00548974516 0.00963104374
v 0.00258808692 -0.00484245686 0.00965912037
v 0.00382681544 0.00883421689 0.00923888652
v 0.00381552376 0.00948150519 0.00921172544
v 0.00378836267 0.00974975904 0.00914641677
v 0.00367361472 0.00974975904 0.00886870232
v 0.00364645364 0.00948150519 0.00880339364
v 0.00363516195 0.00883421689 0.00877623256
v 0.00363516195 -0.00484245686 0.00877623256
v 0.00364645364 -0.00548974516 0.00880339364
v 0.00367361472 -0.00575799901 0.00886870232
v 0.00378836267 -0.00575799901 0.00914641677
v 0.00381552376 -0.00548974516 0.00921172544
v 0.00382681544 -0.00484245686 0.00923888652
v 0.00499993011 0.00883421689 0.00866026389
v 0.00498528144 0.00948150519 0.00863493389
v 0.00494988048 0.00974975904 0.00857359256
v 0.00479973156 0.00974975904 0.00831327341
v 0.0047643306 0.00948150519 0.00825193209
v 0.00474968193 0.00883421689 0.00822660209
v 0.00474968193 -0.00484245686 0.00822660209
v 0.0047643306 -0.00548974516 0.00825193209
v 0.00479973156 -0.00575799901 0.00831327341
v 0.00494988048 -0.00575799901 0.00857359256
v 0.00498528144 -0.00548974516 0.00863493389
v 0.00499993011 -0.00484245686 0.00866026389
v 0.00608759418 0.00883421689 0.0079336286
v 0.0060698937 0.00948150519 0.00791012969
v 0.00602655804 0.00974975904 0.00785397644
v 0.00584375479 0.00974975904 0.0076156303
v 0.00580072431 0.00948150519 0.00755947705
v 0.00578271865 0.00883421689 0.00753628331
v 0.00578271865 -0.00484245686 0.00753628331
v 0.00580072431 -0.00548974516 0.00755947705
v 0.00584375479 -0.00575799901 0.0076156303
v 0.00602655804 -0.00575799901 0.00785397644
v 0.0060698937 -0.00548974516 0.00791012969
v 0.00608759418 -0.00484245686 0.0079336286
v 0.00707119163 0.00883421689 0.0070711879
v 0.00705043934 0.00948150519 0.00705043561
v 0.0070003897 0.00974975904 0.00700038598
v 0.00678767874 0.00974975904 0.00678767502
v 0.00673762911 0.00948150519 0.00673762538
v 0.00671687682 0.00883421689 0.00671687309
v 0.00671687682 -0.00484245686 0.00671687309
v 0.00673762911 -0.00548974516 0.00673762538
v 0.00678767874 -0.00575799901 0.00678767502
v 0.0070003897 -0.00575799901 0.00700038598
v 0.00705043934 -0.00548974516 0.00705043561
v 0.00707119163 -0.00484245686 0.0070711879
v 0.00793363233 0.00883421689 0.00608759046
v 0.00791013341 0.00948150519 0.00606988997
v 0.00785398016 0.00974975904 0.00602655431
v 0.00761563402 0.00974975904 0.00584375106
v 0.00755948077 0.00948150519 0.00580072058
v 0.00753628704 0.00883421689 0.00578271492
v 0.00753628704 -0.00484245686 0.00578271492
v 0.00755948077 -0.00548974516 0.00580072058
v 0.00761563402 -0.00575799901 0.00584375106
v 0.00785398016 -0.00575799901 0.00602655431
v 0.00791013341 -0.00548974516 0.00606988997
v 0.00793363233 -0.00484245686 0.00608759046
v 0.00866026761 0.00883421689 0.00499992639
v 0.00863493761 0.00948150519 0.00498527771
v 0.00857359629 0.00974975904 0.00494987675
v 0.00831327714 0.00974975904 0.00479972784
v 0.00825193581 0.00948150519 0.00476432687
v 0.00822660582 0.00883421689 0.0047496782
v 0.00822660582 -0.00484245686 0.0047496782
v 0.00825193581 -0.00548974516 0.00476432687
v 0.00831327714 -0.00575799901 0.00479972784
v 0.00857359629 -0.00575799901 0.00494987675
v 0.00863493761 -0.00548974516 0.00498527771
v 0.00866026761 -0.00484245686 0.00499992639
v 0.00923889025 0.00883421689 0.00382681172
v 0.00921172916 0.00948150519 0.00381552003
v 0.00914642049 0.00974975904 0.00378866413
v 0.00886870604 0.00974975904 0.003673611
v 0.00880339737 0.00948150519 0.00364644991
v 0.00877623628 0.00883421689 0.00363515823
v 0.00877623628 -0.00484245686 0.00363515823
v 0.00880339737 -0.00548974516 0.00364644991
v 0.00886870604 -0.00575799901 0.003673611
v 0.00914642049 -0.00575799901 0.00378866413
v 0.00921172916 -0.00548974516 0.00381552003
v 0.00923889025 -0.00484245686 0.00382681172
v 0.00965912409 0.00883421689 0.00258808319
v 0.00963104747 0.00948150519 0.00258045368
v 0.00956238181 0.00974975904 0.00256214283
v 0.00927215495 0.00974975904 0.00248462693
v 0.00920379447 0.00948150519 0.00246631609
v 0.00917541266 0.00883421689 0.00245868657
v 0.00917541266 -0.00484245686 0.00245868657
v 0.00920379447 -0.00548974516 0.00246631609
v 0.00927215495 -0.00575799901 0.00248462693
v 0.00956238181 -0.00575799901 0.00256214283
v 0.00963104747 -0.00548974516 0.00258045368
v 0.00965912409 -0.00484245686 0.00258808319
v 0.00991456035 0.00883421689 0.00130540865
v 0.009885263 0.00948150519 0.0013014413
v 0.00981507144 0.00974975904 0.00129228588
v 0.00951721506 0.00974975904 0.00125291756
v 0.0094470235 0.00948150519 0.00124376214
v 0.00941803133 0.00883421689 0.00123979479
v 0.00941803133 -0.00484245686 0.00123979479
v 0.0094470235 -0.00548974516 0.00124376214
v 0.00951721506 -0.00575799901 0.00125291756
v 0.00981507144 -0.00575799901 0.00129228588
v 0.009885263 -0.00548974516 0.0013014413
v 0.00991456035 -0.00484245686 0.00130540865
v 0.010000011 0.00883421689 1.50727713E-07
v 0.0099707136 0.00948150519 1.50727713E-07
v 0.00989991168 0.00974975904 1.50727713E-07
v 0.00959930867 0.00974975904 1.50727713E-07
v 0.00952850675 0.00948150519 1.50727713E-07
v 0.0094992094 0.00883421689 1.50727713E-07
v 0.0094992094 -0.00484245686 1.50727713E-07
v 0.00952850675 -0.00548974516 1.50727713E-07
v 0.00959930867 -0.00575799901 1.50727713E-07
v 0.00989991168 -0.00575799901 1.50727713E-07
v 0.0099707136 -0.00548974516 1.50727713E-07
v 0.010000011 -0.00484245686 1.50727713E-07
v 0.00991456035 0.00883421689 -0.00130541237
v 0.00991456035 -0.00484245686 -0.00130541237
v 0.009885263 0.00948150519 -0.00130144502
v 0.009885263 -0.00548974516 -0.00130144502
v 0.00981507144 -0.00575799901 -0.0012922896
v 0.00981507144 0.00974975904 -0.0012922896
v 0.00951721506 -0.00575799901 -0.00125292129
v 0.00951721506 0.00974975904 -0.00125292129
v 0.0094470235 -0.00548974516 -0.00124376587
v 0.0094470235 0.00948150519 -0.00124376587
v 0.00941803133 -0.00484245686 -0.00123979852
v 0.00941803133 0.00883421689 -0.00123979852
vt 0.37518327 0.33449411
vt 0.37518327 0.665505919
vt 0.380315236 0.665505919
vt 0.37518327 0.68750006
vt 0.380315236 0.68750006
vt 0.37518327 0.68750006
vt 0.380315236 0.68750006
vt 0.37518327 0.68750006
vt 0.380315236 0.68750006
vt 0.37518327 0.68750006
vt 0.380315236 0.68750006
vt 0.37518327 0.665505919
vt 0.380315236 0.665505919
vt 0.37518327 0.33449411
vt 0.380315236 0.33449411
vt 0.37518327 0.31249997
vt 0.380315236 0.31249997
vt 0.37518327 0.31249997
vt 0.380315236 0.31249997
vt 0.37518327 0.31249997
vt 0.380315236 0.31249997
vt 0.37518327 0.31249997
vt 0.380315236 0.31249997
vt 0.380315236 0.33449411
vt 0.385447202 0.665505919
vt 0.385447202 0.68750006
vt 0.385447202 0.68750006
vt 0.385447202 0.68750006
vt 0.385447202 0.68750006
vt 0.385447202 0.665505919
vt 0.385447202 0.33449411
vt 0.385447202 0.31249997
vt 0.385447202 0.31249997
vt 0.385447202 0.31249997
vt 0.385447202 0.31249997
vt 0.385447202 0.33449411
vt 0.390579168 0.665505919
vt 0.390579168 0.68750006
vt 0.390579168 0.68750006
vt 0.390579168 0.68750006
vt 0.390579168 0.68750006
vt 0.390579168 0.665505919
vt 0.390579168 0.33449411
vt 0.390579168 0.31249997
vt 0.390579168 0.31249997
vt 0.390579168 0.31249997
vt 0.390579168 0.31249997
vt 0.390579168 0.33449411
vt 0.395711134 0.665505919
vt 0.395711134 0.68750006
vt 0.395711134 0.68750006
vt 0.395711134 0.68750006
vt 0.395711134 0.68750006
vt 0.395711134 0.665505919
vt 0.395711134 0.33449411
vt 0.395711134 0.31249997
vt 0.395711134 0.31249997
vt 0.395711134 0.31249997
vt 0.395711134 0.31249997
vt 0.395711134 0.33449411
vt 0.401209669 0.665505919
vt 0.401209669 0.68750006
vt 0.401209669 0.68750006
vt 0.401209669 0.68750006
vt 0.401209669 0.68750006
vt 0.401209669 0.665505919
vt 0.401209669 0.33449411
vt 0.401209669 0.31249997
vt 0.401209669 0.31249997
vt 0.401209669 0.31249997
vt 0.401209669 0.31249997
vt 0.401209669 0.33449411
vt 0.406341635 0.665505919
vt 0.406341635 0.68750006
vt 0.406341635 0.68750006
vt 0.406341635 0.68750006
vt 0.406341635 0.68750006
vt 0.406341635 0.665505919
vt 0.406341635 0.33449411
vt 0.406341635 0.31249997
vt 0.406341635 0.31249997
vt 0.406341635 0.31249997
vt 0.406341635 0.31249997
vt 0.406341635 0.33449411
vt 0.411473601 0.665505919
vt 0.411473601 0.68750006
vt 0.411473601 0.68750006
vt 0.411473601 0.68750006
vt 0.411473601 0.68750006
vt 0.411473601 0.665505919
vt 0.411473601 0.33449411
vt 0.411473601 0.31249997
vt 0.411473601 0.31249997
vt 0.411473601 0.31249997
vt 0.411473601 0.31249997
vt 0.411473601 0.33449411
vt 0.416605567 0.665505919
vt 0.416605567 0.68750006
vt 0.416605567 0.68750006
vt 0.416605567 0.68750006
vt 0.416605567 0.68750006
vt 0.416605567 0.665505919
vt 0.416605567 0.33449411
vt 0.416605567 0.31249997
vt 0.416605567 0.31249997
vt 0.416605567 0.31249997
vt 0.416605567 0.31249997
vt 0.416605567 0.33449411
vt 0.421737533 0.665505919
vt 0.421737533 0.68750006
vt 0.421737533 0.68750006
vt 0.421737533 0.68750006
vt 0.421737533 0.68750006
vt 0.421737533 0.665505919
vt 0.421737533 0.33449411
vt 0.421737533 0.31249997
vt 0.421737533 0.31249997
vt 0.421737533 0.31249997
vt 0.421737533 0.31249997
vt 0.421737533 0.33449411
vt 0.427236068 0.665505919
vt 0.427236068 0.68750006
vt 0.427236068 0.68750006
vt 0.427236068 0.68750006
vt 0.427236068 0.68750006
vt 0.427236068 0.665505919
vt 0.427236068 0.33449411
vt 0.427236068 0.31249997
vt 0.427236068 0.31249997
vt 0.427236068 0.31249997
vt 0.427236068 0.31249997
vt 0.427236068 0.33449411
vt 0.432368034 0.665505919
vt 0.432368034 0.68750006
vt 0.432368034 0.68750006
vt 0.432368034 0.68750006
vt 0.432368034 0.68750006
vt 0.432368034 0.665505919
vt 0.432368034 0.33449411
vt 0.432368034 0.31249997
vt 0.432368034 0.31249997
vt 0.432368034 0.31249997
vt 0.432368034 0.31249997
vt 0.432368034 0.33449411
vt 0.4375 0.665505919
vt 0.4375 0.68750006
vt 0.4375 0.68750006
vt 0.4375 0.68750006
vt 0.4375 0.68750006
vt 0.4375 0.665505919
vt 0.4375 0.33449411
vt 0.4375 0.31249997
vt 0.4375 0.31249997
vt 0.4375 0.31249997
vt 0.4375 0.31249997
vt 0.4375 0.33449411
vt 0.442631966 0.665505919
vt 0.442631966 0.68750006
vt 0.442631966 0.68750006
vt 0.442631966 0.68750006
vt 0.442631966 0.68750006
vt 0.442631966 0.665505919
vt 0.442631966 0.33449411
vt 0.442631966 0.31249997
vt 0.442631966 0.31249997
vt 0.442631966 0.31249997
vt 0.442631966 0.31249997
vt 0.442631966 0.33449411
vt 0.447763932 0.665505919
vt 0.447763932 0.68750006
vt 0.447763932 0.68750006
vt 0.447763932 0.68750006
vt 0.447763932 0.68750006
vt 0.447763932 0.665505919
vt 0.447763932 0.33449411
vt 0.447763932 0.31249997
vt 0.447763932 0.31249997
vt 0.447763932 0.31249997
vt 0.447763932 0.31249997
vt 0.447763932 0.33449411
vt 0.453262467 0.665505919
vt 0.453262467 0.68750006
vt 0.453262467 0.68750006
vt 0.453262467 0.68750006
vt 0.453262467 0.68750006
vt 0.453262467 0.665505919
vt 0.453262467 0.33449411
vt 0.453262467 0.31249997
vt 0.453262467 0.31249997
vt 0.453262467 0.31249997
vt 0.453262467 0.31249997
vt 0.453262467 0.33449411
vt 0.458394433 0.665505919
vt 0.458394433 0.68750006
vt 0.458394433 0.68750006
vt 0.458394433 0.68750006
vt 0.458394433 0.68750006
vt 0.458394433 0.665505919
vt 0.458394433 0.33449411
vt 0.458394433 0.31249997
vt 0.458394433 0.31249997
vt 0.458394433 0.31249997
vt 0.458394433 0.31249997
vt 0.458394433 0.33449411
vt 0.463526399 0.665505919
vt 0.463526399 0.68750006
vt 0.463526399 0.68750006
vt 0.463526399 0.68750006
vt 0.463526399 0.68750006
vt 0.463526399 0.665505919
vt 0.463526399 0.33449411
vt 0.463526399 0.31249997
vt 0.463526399 0.31249997
vt 0.463526399 0.31249997
vt 0.463526399 0.31249997
vt 0.463526399 0.33449411
vt 0.468658365 0.665505919
vt 0.468658365 0.68750006
vt 0.468658365 0.68750006
vt 0.468658365 0.68750006
vt 0.468658365 0.68750006
vt 0.468658365 0.665505919
vt 0.468658365 0.33449411
vt 0.468658365 0.31249997
vt 0.468658365 0.31249997
vt 0.468658365 0.31249997
vt 0.468658365 0.31249997
vt 0.468658365 0.33449411
vt 0.473790331 0.665505919
vt 0.473790331 0.68750006
vt 0.473790331 0.68750006
vt 0.473790331 0.68750006
vt 0.473790331 0.68750006
vt 0.473790331 0.665505919
vt 0.473790331 0.33449411
vt 0.473790331 0.31249997
vt 0.473790331 0.31249997
vt 0.473790331 0.31249997
vt 0.473790331 0.31249997
vt 0.473790331 0.33449411
vt 0.479288866 0.665505919
vt 0.479288866 0.68750006
vt 0.479288866 0.68750006
vt 0.479288866 0.68750006
vt 0.479288866 0.68750006
vt 0.479288866 0.665505919
vt 0.479288866 0.33449411
vt 0.479288866 0.31249997
vt 0.479288866 0.31249997
vt 0.479288866 0.31249997
vt 0.479288866 0.31249997
vt 0.479288866 0.33449411
vt 0.484420832 0.665505919
vt 0.484420832 0.68750006
vt 0.484420832 0.68750006
vt 0.484420832 0.68750006
vt 0.484420832 0.68750006
vt 0.484420832 0.665505919
vt 0.484420832 0.33449411
vt 0.484420832 0.31249997
vt 0.484420832 0.31249997
vt 0.484420832 0.31249997
vt 0.484420832 0.31249997
vt 0.484420832 0.33449411
vt 0.489552798 0.665505919
vt 0.489552798 0.68750006
vt 0.489552798 0.68750006
vt 0.489552798 0.68750006
vt 0.489552798 0.68750006
vt 0.489552798 0.665505919
vt 0.489552798 0.33449411
vt 0.489552798 0.31249997
vt 0.489552798 0.31249997
vt 0.489552798 0.31249997
vt 0.489552798 0.31249997
vt 0.489552798 0.33449411
vt 0.494684764 0.665505919
vt 0.494684764 0.68750006
vt 0.494684764 0.68750006
vt 0.494684764 0.68750006
vt 0.494684764 0.68750006
vt 0.494684764 0.665505919
vt 0.494684764 0.33449411
vt 0.494684764 0.31249997
vt 0.494684764 0.31249997
vt 0.494684764 0.31249997
vt 0.494684764 0.31249997
vt 0.494684764 0.33449411
vt 0.500183299 0.665505919
vt 0.500183299 0.68750006
vt 0.500183299 0.68750006
vt 0.500183299 0.68750006
vt 0.500183299 0.68750006
vt 0.500183299 0.665505919
vt 0.500183299 0.33449411
vt 0.500183299 0.31249997
vt 0.500183299 0.31249997
vt 0.500183299 0.31249997
vt 0.500183299 0.31249997
vt 0.500183299 0.33449411
vt 0.505315265 0.665505919
vt 0.505315265 0.68750006
vt 0.505315265 0.68750006
vt 0.505315265 0.68750006
vt 0.505315265 0.68750006
vt 0.505315265 0.665505919
vt 0.505315265 0.33449411
vt 0.505315265 0.31249997
vt 0.505315265 0.31249997
vt 0.505315265 0.31249997
vt 0.505315265 0.31249997
vt 0.505315265 0.33449411
vt 0.510447231 0.665505919
vt 0.510447231 0.68750006
vt 0.510447231 0.68750006
vt 0.510447231 0.68750006
vt 0.510447231 0.68750006
vt 0.510447231 0.665505919
vt 0.510447231 0.33449411
vt 0.510447231 0.31249997
vt 0.510447231 0.31249997
vt 0.510447231 0.31249997
vt 0.510447231 0.31249997
vt 0.510447231 0.33449411
vt 0.515579198 0.665505919
vt 0.515579198 0.68750006
vt 0.515579198 0.68750006
vt 0.515579198 0.68750006
vt 0.515579198 0.68750006
vt 0.515579198 0.665505919
vt 0.515579198 0.33449411
vt 0.515579198 0.31249997
vt 0.515579198 0.31249997
vt 0.515579198 0.31249997
vt 0.515579198 0.31249997
vt 0.515579198 0.33449411
vt 0.520711164 0.665505919
vt 0.520711164 0.68750006
vt 0.520711164 0.68750006
vt 0.520711164 0.68750006
vt 0.520711164 0.68750006
vt 0.520711164 0.665505919
vt 0.520711164 0.33449411
vt 0.520711164 0.31249997
vt 0.520711164 0.31249997
vt 0.520711164 0.31249997
vt 0.520711164 0.31249997
vt 0.520711164 0.33449411
vt 0.526209699 0.665505919
vt 0.526209699 0.68750006
vt 0.526209699 0.68750006
vt 0.526209699 0.68750006
vt 0.526209699 0.68750006
vt 0.526209699 0.665505919
vt 0.526209699 0.33449411
vt 0.526209699 0.31249997
vt 0.526209699 0.31249997
vt 0.526209699 0.31249997
vt 0.526209699 0.31249997
vt 0.526209699 0.33449411
vt 0.531341665 0.665505919
vt 0.531341665 0.68750006
vt 0.531341665 0.68750006
vt 0.531341665 0.68750006
vt 0.531341665 0.68750006
vt 0.531341665 0.665505919
vt 0.531341665 0.33449411
vt 0.531341665 0.31249997
vt 0.531341665 0.31249997
vt 0.531341665 0.31249997
vt 0.531341665 0.31249997
vt 0.531341665 0.33449411
vt 0.536473631 0.665505919
vt 0.536473631 0.68750006
vt 0.536473631 0.68750006
vt 0.536473631 0.68750006
vt 0.536473631 0.68750006
vt 0.536473631 0.665505919
vt 0.536473631 0.33449411
vt 0.536473631 0.31249997
vt 0.536473631 0.31249997
vt 0.536473631 0.31249997
vt 0.536473631 0.31249997
vt 0.536473631 0.33449411
vt 0.541605597 0.665505919
vt 0.541605597 0.68750006
vt 0.541605597 0.68750006
vt 0.541605597 0.68750006
vt 0.541605597 0.68750006
vt 0.541605597 0.665505919
vt 0.541605597 0.33449411
vt 0.541605597 0.31249997
vt 0.541605597 0.31249997
vt 0.541605597 0.31249997
vt 0.541605597 0.31249997
vt 0.541605597 0.33449411
vt 0.546737563 0.665505919
vt 0.546737563 0.68750006
vt 0.546737563 0.68750006
vt 0.546737563 0.68750006
vt 0.546737563 0.68750006
vt 0.546737563 0.665505919
vt 0.546737563 0.33449411
vt 0.546737563 0.31249997
vt 0.546737563 0.31249997
vt 0.546737563 0.31249997
vt 0.546737563 0.31249997
vt 0.546737563 0.33449411
vt 0.552236098 0.665505919
vt 0.552236098 0.68750006
vt 0.552236098 0.68750006
vt 0.552236098 0.68750006
vt 0.552236098 0.68750006
vt 0.552236098 0.665505919
vt 0.552236098 0.33449411
vt 0.552236098 0.31249997
vt 0.552236098 0.31249997
vt 0.552236098 0.31249997
vt 0.552236098 0.31249997
vt 0.552236098 0.33449411
vt 0.557368064 0.665505919
vt 0.557368064 0.68750006
vt 0.557368064 0.68750006
vt 0.557368064 0.68750006
vt 0.557368064 0.68750006
vt 0.557368064 0.665505919
vt 0.557368064 0.33449411
vt 0.557368064 0.31249997
vt 0.557368064 0.31249997
vt 0.557368064 0.31249997
vt 0.557368064 0.31249997
vt 0.557368064 0.33449411
vt 0.56250003 0.665505919
vt 0.56250003 0.68750006
vt 0.56250003 0.68750006
vt 0.56250003 0.68750006
vt 0.56250003 0.68750006
vt 0.56250003 0.665505919
vt 0.56250003 0.33449411
vt 0.56250003 0.31249997
vt 0.56250003 0.31249997
vt 0.56250003 0.31249997
vt 0.56250003 0.31249997
vt 0.56250003 0.33449411
vt 0.567631996 0.665505919
vt 0.567631996 0.68750006
vt 0.567631996 0.68750006
vt 0.567631996 0.68750006
vt 0.567631996 0.68750006
vt 0.567631996 0.665505919
vt 0.567631996 0.33449411
vt 0.567631996 0.31249997
vt 0.567631996 0.31249997
vt 0.567631996 0.31249997
vt 0.567631996 0.31249997
vt 0.567631996 0.33449411
vt 0.572763962 0.665505919
vt 0.572763962 0.68750006
vt 0.572763962 0.68750006
vt 0.572763962 0.68750006
vt 0.572763962 0.68750006
vt 0.572763962 0.665505919
vt 0.572763962 0.33449411
vt 0.572763962 0.31249997
vt 0.572763962 0.31249997
vt 0.572763962 0.31249997
vt 0.572763962 0.31249997
vt 0.572763962 0.33449411
vt 0.578262497 0.665505919
vt 0.578262497 0.68750006
vt 0.578262497 0.68750006
vt 0.578262497 0.68750006
vt 0.578262497 0.68750006
vt 0.578262497 0.665505919
vt 0.578262497 0.33449411
vt 0.578262497 0.31249997
vt 0.578262497 0.31249997
vt 0.578262497 0.31249997
vt 0.578262497 0.31249997
vt 0.578262497 0.33449411
vt 0.583394463 0.665505919
vt 0.583394463 0.68750006
vt 0.583394463 0.68750006
vt 0.583394463 0.68750006
vt 0.583394463 0.68750006
vt 0.583394463 0.665505919
vt 0.583394463 0.33449411
vt 0.583394463 0.31249997
vt 0.583394463 0.31249997
vt 0.583394463 0.31249997
vt 0.583394463 0.31249997
vt 0.583394463 0.33449411
vt 0.588526429 0.665505919
vt 0.588526429 0.68750006
vt 0.588526429 0.68750006
vt 0.588526429 0.68750006
vt 0.588526429 0.68750006
vt 0.588526429 0.665505919
vt 0.588526429 0.33449411
vt 0.588526429 0.31249997
vt 0.588526429 0.31249997
vt 0.588526429 0.31249997
vt 0.588526429 0.31249997
vt 0.588526429 0.33449411
vt 0.593658395 0.665505919
vt 0.593658395 0.68750006
vt 0.593658395 0.68750006
vt 0.593658395 0.68750006
vt 0.593658395 0.68750006
vt 0.593658395 0.665505919
vt 0.593658395 0.33449411
vt 0.593658395 0.31249997
vt 0.593658395 0.31249997
vt 0.593658395 0.31249997
vt 0.593658395 0.31249997
vt 0.593658395 0.33449411
vt 0.598790361 0.665505919
vt 0.598790361 0.68750006
vt 0.598790361 0.68750006
vt 0.598790361 0.68750006
vt 0.598790361 0.68750006
vt 0.598790361 0.665505919
vt 0.598790361 0.33449411
vt 0.598790361 0.31249997
vt 0.598790361 0.31249997
vt 0.598790361 0.31249997
vt 0.598790361 0.31249997
vt 0.598790361 0.33449411
vt 0.604288896 0.665505919
vt 0.604288896 0.68750006
vt 0.604288896 0.68750006
vt 0.604288896 0.68750006
vt 0.604288896 0.68750006
vt 0.604288896 0.665505919
vt 0.604288896 0.33449411
vt 0.604288896 0.31249997
vt 0.604288896 0.31249997
vt 0.604288896 0.31249997
vt 0.604288896 0.31249997
vt 0.604288896 0.33449411
vt 0.609420862 0.665505919
vt 0.609420862 0.68750006
vt 0.609420862 0.68750006
vt 0.609420862 0.68750006
vt 0.609420862 0.68750006
vt 0.609420862 0.665505919
vt 0.609420862 0.33449411
vt 0.609420862 0.31249997
vt 0.609420862 0.31249997
vt 0.609420862 0.31249997
vt 0.609420862 0.31249997
vt 0.609420862 0.33449411
vt 0.614552828 0.665505919
vt 0.614552828 0.68750006
vt 0.614552828 0.68750006
vt 0.614552828 0.68750006
vt 0.614552828 0.68750006
vt 0.614552828 0.665505919
vt 0.614552828 0.33449411
vt 0.614552828 0.31249997
vt 0.614552828 0.31249997
vt 0.614552828 0.31249997
vt 0.614552828 0.31249997
vt 0.614552828 0.33449411
vt 0.619684794 0.665505919
vt 0.619684794 0.68750006
vt 0.619684794 0.68750006
vt 0.619684794 0.68750006
vt 0.619684794 0.68750006
vt 0.619684794 0.665505919
vt 0.619684794 0.33449411
vt 0.619684794 0.31249997
vt 0.619684794 0.31249997
vt 0.619684794 0.31249997
vt 0.619684794 0.31249997
vt 0.619684794 0.33449411
vt 0.62481676 0.665505919
vt 0.62481676 0.33449411
vt 0.62481676 0.68750006
vt 0.62481676 0.31249997
vt 0.62481676 0.31249997
vt 0.62481676 0.68750006
vt 0.62481676 0.31249997
vt 0.62481676 0.68750006
vt 0.62481676 0.31249997
vt 0.62481676 0.68750006
vt 0.62481676 0.33449411
vt 0.62481676 0.665505919
g paizipCylinder2_mobile_0
f 3/3/3 2/2/2 1/1/1
f 2/2/2 3/3/3 4/4/4
f 3/3/3 5/5/5 4/4/4
f 4/4/4 5/5/5 6/6/6
f 5/5/5 7/7/7 6/6/6
f 8/8/8 6/6/6 7/7/7
f 9/9/9 8/8/8 7/7/7
f 10/10/10 8/8/8 9/9/9
f 11/11/11 10/10/10 9/9/9
f 12/12/12 10/10/10 11/11/11
f 13/13/13 12/12/12 11/11/11
f 12/12/12 13/13/13 14/14/14
f 13/13/13 15/15/15 14/14/14
f 14/14/14 15/15/15 16/16/16
f 15/15/15 17/17/17 16/16/16
f 16/16/16 17/17/17 18/18/18
f 17/17/17 19/19/19 18/18/18
f 18/18/18 19/19/19 20/20/20
f 19/19/19 21/21/21 20/20/20
f 20/20/20 21/21/21 22/22/22
f 21/21/21 23/23/23 22/22/22
f 22/22/22 23/23/23 1/1/1
f 23/23/23 24/24/24 1/1/1
f 24/24/24 3/3/3 1/1/1
f 25/25/25 3/3/3 24/24/24
f 3/3/3 25/25/25 5/5/5
f 25/25/25 26/26/26 5/5/5
f 5/5/5 26/26/26 7/7/7
f 26/26/26 27/27/27 7/7/7
f 9/9/9 7/7/7 27/27/27
f 28/28/28 9/9/9 27/27/27
f 9/9/9 28/28/28 11/11/11
f 28/28/28 29/29/29 11/11/11
f 11/11/11 29/29/29 13/13/13
f 29/29/29 30/30/30 13/13/13
f 13/13/13 30/30/30 15/15/15
f 30/30/30 31/31/31 15/15/15
f 15/15/15 31/31/31 17/17/17
f 31/31/31 32/32/32 17/17/17
f 17/17/17 32/32/32 19/19/19
f 32/32/32 33/33/33 19/19/19
f 19/19/19 33/33/33 21/21/21
f 33/33/33 34/34/34 21/21/21
f 21/21/21 34/34/34 23/23/23
f 34/34/34 35/35/35 23/23/23
f 23/23/23 35/35/35 24/24/24
f 35/35/35 36/36/36 24/24/24
f 36/36/36 25/25/25 24/24/24
f 37/37/37 25/25/25 36/36/36
f 25/25/25 37/37/37 26/26/26
f 37/37/37 38/38/38 26/26/26
f 26/26/26 38/38/38 27/27/27
f 38/38/38 39/39/39 27/27/27
f 28/28/28 27/27/27 39/39/39
f 40/40/40 28/28/28 39/39/39
f 28/28/28 40/40/40 29/29/29
f 40/40/40 41/41/41 29/29/29
f 29/29/29 41/41/41 30/30/30
f 41/41/41 42/42/42 30/30/30
f 30/30/30 42/42/42 31/31/31
f 42/42/42 43/43/43 31/31/31
f 31/31/31 43/43/43 32/32/32
f 43/43/43 44/44/44 32/32/32
f 32/32/32 44/44/44 33/33/33
f 44/44/44 45/45/45 33/33/33
f 33/33/33 45/45/45 34/34/34
f 45/45/45 46/46/46 34/34/34
f 34/34/34 46/46/46 35/35/35
f 46/46/46 47/47/47 35/35/35
f 35/35/35 47/47/47 36/36/36
f 47/47/47 48/48/48 36/36/36
f 48/48/48 37/37/37 36/36/36
f 49/49/49 37/37/37 48/48/48
f 37/37/37 49/49/49 38/38/38
f 49/49/49 50/50/50 38/38/38
f 38/38/38 50/50/50 39/39/39
f 50/50/50 51/51/51 39/39/39
f 40/40/40 39/39/39 51/51/51
f 52/52/52 40/40/40 51/51/51
f 40/40/40 52/52/52 41/41/41
f 52/52/52 53/53/53 41/41/41
f 41/41/41 53/53/53 42/42/42
f 53/53/53 54/54/54 42/42/42
f 42/42/42 54/54/54 43/43/43
f 54/54/54 55/55/55 43/43/43
f 43/43/43 55/55/55 44/44/44
f 55/55/55 56/56/56 44/44/44
f 44/44/44 56/56/56 45/45/45
f 56/56/56 57/57/57 45/45/45
f 45/45/45 57/57/57 46/46/46
f 57/57/57 58/58/58 46/46/46
f 46/46/46 58/58/58 47/47/47
f 58/58/58 59/59/59 47/47/47
f 47/47/47 59/59/59 48/48/48
f 59/59/59 60/60/60 48/48/48
f 60/60/60 49/49/49 48/48/48
f 61/61/61 49/49/49 60/60/60
f 49/49/49 61/61/61 50/50/50
f 61/61/61 62/62/62 50/50/50
f 50/50/50 62/62/62 51/51/51
f 62/62/62 63/63/63 51/51/51
f 52/52/52 51/51/51 63/63/63
f 64/64/64 52/52/52 63/63/63
f 52/52/52 64/64/64 53/53/53
f 64/64/64 65/65/65 53/53/53
f 53/53/53 65/65/65 54/54/54
f 65/65/65 66/66/66 54/54/54
f 54/54/54 66/66/66 55/55/55
f 66/66/66 67/67/67 55/55/55
f 55/55/55 67/67/67 56/56/56
f 67/67/67 68/68/68 56/56/56
f 56/56/56 68/68/68 57/57/57
f 68/68/68 69/69/69 57/57/57
f 57/57/57 69/69/69 58/58/58
f 69/69/69 70/70/70 58/58/58
f 58/58/58 70/70/70 59/59/59
f 70/70/70 71/71/71 59/59/59
f 59/59/59 71/71/71 60/60/60
f 71/71/71 72/72/72 60/60/60
f 72/72/72 61/61/61 60/60/60
f 73/73/73 61/61/61 72/72/72
f 61/61/61 73/73/73 62/62/62
f 73/73/73 74/74/74 62/62/62
f 62/62/62 74/74/74 63/63/63
f 74/74/74 75/75/75 63/63/63
f 64/64/64 63/63/63 75/75/75
f 76/76/76 64/64/64 75/75/75
f 64/64/64 76/76/76 65/65/65
f 76/76/76 77/77/77 65/65/65
f 65/65/65 77/77/77 66/66/66
f 77/77/77 78/78/78 66/66/66
f 66/66/66 78/78/78 67/67/67
f 78/78/78 79/79/79 67/67/67
f 67/67/67 79/79/79 68/68/68
f 79/79/79 80/80/80 68/68/68
f 68/68/68 80/80/80 69/69/69
f 80/80/80 81/81/81 69/69/69
f 69/69/69 81/81/81 70/70/70
f 81/81/81 82/82/82 70/70/70
f 70/70/70 82/82/82 71/71/71
f 82/82/82 83/83/83 71/71/71
f 71/71/71 83/83/83 72/72/72
f 83/83/83 84/84/84 72/72/72
f 84/84/84 73/73/73 72/72/72
f 85/85/85 73/73/73 84/84/84
f 73/73/73 85/85/85 74/74/74
f 85/85/85 86/86/86 74/74/74
f 74/74/74 86/86/86 75/75/75
f 86/86/86 87/87/87 75/75/75
f 76/76/76 75/75/75 87/87/87
f 88/88/88 76/76/76 87/87/87
f 76/76/76 88/88/88 77/77/77
f 88/88/88 89/89/89 77/77/77
f 77/77/77 89/89/89 78/78/78
f 89/89/89 90/90/90 78/78/78
f 78/78/78 90/90/90 79/79/79
f 90/90/90 91/91/91 79/79/79
f 79/79/79 91/91/91 80/80/80
f 91/91/91 92/92/92 80/80/80
f 80/80/80 92/92/92 81/81/81
f 92/92/92 93/93/93 81/81/81
f 81/81/81 93/93/93 82/82/82
f 93/93/93 94/94/94 82/82/82
f 82/82/82 94/94/94 83/83/83
f 94/94/94 95/95/95 83/83/83
f 83/83/83 95/95/95 84/84/84
f 95/95/95 96/96/96 84/84/84
f 96/96/96 85/85/85 84/84/84
f 97/97/97 85/85/85 96/96/96
f 85/85/85 97/97/97 86/86/86
f 97/97/97 98/98/98 86/86/86
f 86/86/86 98/98/98 87/87/87
f 98/98/98 99/99/99 87/87/87
f 88/88/88 87/87/87 99/99/99
f 100/100/100 88/88/88 99/99/99
f 88/88/88 100/100/100 89/89/89
f 100/100/100 101/101/101 89/89/89
f 89/89/89 101/101/101 90/90/90
f 101/101/101 102/102/102 90/90/90
f 90/90/90 102/102/102 91/91/91
f 102/102/102 103/103/103 91/91/91
f 91/91/91 103/103/103 92/92/92
f 103/103/103 104/104/104 92/92/92
f 92/92/92 104/104/104 93/93/93
f 104/104/104 105/105/105 93/93/93
f 93/93/93 105/105/105 94/94/94
f 105/105/105 106/106/106 94/94/94
f 94/94/94 106/106/106 95/95/95
f 106/106/106 107/107/107 95/95/95
f 95/95/95 107/107/107 96/96/96
f 107/107/107 108/108/108 96/96/96
f 108/108/108 97/97/97 96/96/96
f 109/109/109 97/97/97 108/108/108
f 97/97/97 109/109/109 98/98/98
f 109/109/109 110/110/110 98/98/98
f 98/98/98 110/110/110 99/99/99
f 110/110/110 111/111/111 99/99/99
f 100/100/100 99/99/99 111/111/111
f 112/112/112 100/100/100 111/111/111
f 100/100/100 112/112/112 101/101/101
f 112/112/112 113/113/113 101/101/101
f 101/101/101 113/113/113 102/102/102
f 113/113/113 114/114/114 102/102/102
f 102/102/102 114/114/114 103/103/103
f 114/114/114 115/115/115 103/103/103
f 103/103/103 115/115/115 104/104/104
f 115/115/115 116/116/116 104/104/104
f 104/104/104 116/116/116 105/105/105
f 116/116/116 117/117/117 105/105/105
f 105/105/105 117/117/117 106/106/106
f 117/117/117 118/118/118 106/106/106
f 106/106/106 118/118/118 107/107/107
f 118/118/118 119/119/119 107/107/107
f 107/107/107 119/119/119 108/108/108
f 119/119/119 120/120/120 108/108/108
f 120/120/120 109/109/109 108/108/108
f 121/121/121 109/109/109 120/120/120
f 109/109/109 121/121/121 110/110/110
f 121/121/121 122/122/122 110/110/110
f 110/110/110 122/122/122 111/111/111
f 122/122/122 123/123/123 111/111/111
f 112/112/112 111/111/111 123/123/123
f 124/124/124 112/112/112 123/123/123
f 112/112/112 124/124/124 113/113/113
f 124/124/124 125/125/125 113/113/113
f 113/113/113 125/125/125 114/114/114
f 125/125/125 126/126/126 114/114/114
f 114/114/114 126/126/126 115/115/115
f 126/126/126 127/127/127 115/115/115
f 115/115/115 127/127/127 116/116/116
f 127/127/127 128/128/128 116/116/116
f 116/116/116 128/128/128 117/117/117
f 128/128/128 129/129/129 117/117/117
f 117/117/117 129/129/129 118/118/118
f 129/129/129 130/130/130 118/118/118
f 118/118/118 130/130/130 119/119/119
f 130/130/130 131/131/131 119/119/119
f 119/119/119 131/131/131 120/120/120
f 131/131/131 132/132/132 120/120/120
f 132/132/132 121/121/121 120/120/120
f 133/133/133 121/121/121 132/132/132
f 121/121/121 133/133/133 122/122/122
f 133/133/133 134/134/134 122/122/122
f 122/122/122 134/134/134 123/123/123
f 134/134/134 135/135/135 123/123/123
f 124/124/124 123/123/123 135/135/135
f 136/136/136 124/124/124 135/135/135
f 124/124/124 136/136/136 125/125/125
f 136/136/136 137/137/137 125/125/125
f 125/125/125 137/137/137 126/126/126
f 137/137/137 138/138/138 126/126/126
f 126/126/126 138/138/138 127/127/127
f 138/138/138 139/139/139 127/127/127
f 127/127/127 139/139/139 128/128/128
f 139/139/139 140/140/140 128/128/128
f 128/128/128 140/140/140 129/129/129
f 140/140/140 141/141/141 129/129/129
f 129/129/129 141/141/141 130/130/130
f 141/141/141 142/142/142 130/130/130
f 130/130/130 142/142/142 131/131/131
f 142/142/142 143/143/143 131/131/131
f 131/131/131 143/143/143 132/132/132
f 143/143/143 144/144/144 132/132/132
f 144/144/144 133/133/133 132/132/132
f 145/145/145 133/133/133 144/144/144
f 133/133/133 145/145/145 134/134/134
f 145/145/145 146/146/146 134/134/134
f 134/134/134 146/146/146 135/135/135
f 146/146/146 147/147/147 135/135/135
f 136/136/136 135/135/135 147/147/147
f 148/148/148 136/136/136 147/147/147
f 136/136/136 148/148/148 137/137/137
f 148/148/148 149/149/149 137/137/137
f 137/137/137 149/149/149 138/138/138
f 149/149/149 150/150/150 138/138/138
f 138/138/138 150/150/150 139/139/139
f 150/150/150 151/151/151 139/139/139
f 139/139/139 151/151/151 140/140/140
f 151/151/151 152/152/152 140/140/140
f 140/140/140 152/152/152 141/141/141
f 152/152/152 153/153/153 141/141/141
f 141/141/141 153/153/153 142/142/142
f 153/153/153 154/154/154 142/142/142
f 142/142/142 154/154/154 143/143/143
f 154/154/154 155/155/155 143/143/143
f 143/143/143 155/155/155 144/144/144
f 155/155/155 156/156/156 144/144/144
f 156/156/156 145/145/145 144/144/144
f 157/157/157 145/145/145 156/156/156
f 145/145/145 157/157/157 146/146/146
f 157/157/157 158/158/158 146/146/146
f 146/146/146 158/158/158 147/147/147
f 158/158/158 159/159/159 147/147/147
f 148/148/148 147/147/147 159/159/159
f 160/160/160 148/148/148 159/159/159
f 148/148/148 160/160/160 149/149/149
f 160/160/160 161/161/161 149/149/149
f 149/149/149 161/161/161 150/150/150
f 161/161/161 162/162/162 150/150/150
f 150/150/150 162/162/162 151/151/151
f 162/162/162 163/163/163 151/151/151
f 151/151/151 163/163/163 152/152/152
f 163/163/163 164/164/164 152/152/152
f 152/152/152 164/164/164 153/153/153
f 164/164/164 165/165/165 153/153/153
f 153/153/153 165/165/165 154/154/154
f 165/165/165 166/166/166 154/154/154
f 154/154/154 166/166/166 155/155/155
f 166/166/166 167/167/167 155/155/155
f 155/155/155 167/167/167 156/156/156
f 167/167/167 168/168/168 156/156/156
f 168/168/168 157/157/157 156/156/156
f 169/169/169 157/157/157 168/168/168
f 157/157/157 169/169/169 158/158/158
f 169/169/169 170/170/170 158/158/158
f 158/158/158 170/170/170 159/159/159
f 170/170/170 171/171/171 159/159/159
f 160/160/160 159/159/159 171/171/171
f 172/172/172 160/160/160 171/171/171
f 160/160/160 172/172/172 161/161/161
f 172/172/172 173/173/173 161/161/161
f 161/161/161 173/173/173 162/162/162
f 173/173/173 174/174/174 162/162/162
f 162/162/162 174/174/174 163/163/163
f 174/174/174 175/175/175 163/163/163
f 163/163/163 175/175/175 164/164/164
f 175/175/175 176/176/176 164/164/164
f 164/164/164 176/176/176 165/165/165
f 176/176/176 177/177/177 165/165/165
f 165/165/165 177/177/177 166/166/166
f 177/177/177 178/178/178 166/166/166
f 166/166/166 178/178/178 167/167/167
f 178/178/178 179/179/179 167/167/167
f 167/167/167 179/179/179 168/168/168
f 179/179/179 180/180/180 168/168/168
f 180/180/180 169/169/169 168/168/168
f 181/181/181 169/169/169 180/180/180
f 169/169/169 181/181/181 170/170/170
f 181/181/181 182/182/182 170/170/170
f 170/170/170 182/182/182 171/171/171
f 182/182/182 183/183/183 171/171/171
f 172/172/172 171/171/171 183/183/183
f 184/184/184 172/172/172 183/183/183
f 172/172/172 184/184/184 173/173/173
f 184/184/184 185/185/185 173/173/173
f 173/173/173 185/185/185 174/174/174
f 185/185/185 186/186/186 174/174/174
f 174/174/174 186/186/186 175/175/175
f 186/186/186 187/187/187 175/175/175
f 175/175/175 187/187/187 176/176/176
f 187/187/187 188/188/188 176/176/176
f 176/176/176 188/188/188 177/177/177
f 188/188/188 189/189/189 177/177/177
f 177/177/177 189/189/189 178/178/178
f 189/189/189 190/190/190 178/178/178
f 178/178/178 190/190/190 179/179/179
f 190/190/190 191/191/191 179/179/179
f 179/179/179 191/191/191 180/180/180
f 191/191/191 192/192/192 180/180/180
f 192/192/192 181/181/181 180/180/180
f 193/193/193 181/181/181 192/192/192
f 181/181/181 193/193/193 182/182/182
f 193/193/193 194/194/194 182/182/182
f 182/182/182 194/194/194 183/183/183
f 194/194/194 195/195/195 183/183/183
f 184/184/184 183/183/183 195/195/195
f 196/196/196 184/184/184 195/195/195
f 184/184/184 196/196/196 185/185/185
f 196/196/196 197/197/197 185/185/185
f 185/185/185 197/197/197 186/186/186
f 197/197/197 198/198/198 186/186/186
f 186/186/186 198/198/198 187/187/187
f 198/198/198 199/199/199 187/187/187
f 187/187/187 199/199/199 188/188/188
f 199/199/199 200/200/200 188/188/188
f 188/188/188 200/200/200 189/189/189
f 200/200/200 201/201/201 189/189/189
f 189/189/189 201/201/201 190/190/190
f 201/201/201 202/202/202 190/190/190
f 190/190/190 202/202/202 191/191/191
f 202/202/202 203/203/203 191/191/191
f 191/191/191 203/203/203 192/192/192
f 203/203/203 204/204/204 192/192/192
f 204/204/204 193/193/193 192/192/192
f 205/205/205 193/193/193 204/204/204
f 193/193/193 205/205/205 194/194/194
f 205/205/205 206/206/206 194/194/194
f 194/194/194 206/206/206 195/195/195
f 206/206/206 207/207/207 195/195/195
f 196/196/196 195/195/195 207/207/207
f 208/208/208 196/196/196 207/207/207
f 196/196/196 208/208/208 197/197/197
f 208/208/208 209/209/209 197/197/197
f 197/197/197 209/209/209 198/198/198
f 209/209/209 210/210/210 198/198/198
f 198/198/198 210/210/210 199/199/199
f 210/210/210 211/211/211 199/199/199
f 199/199/199 211/211/211 200/200/200
f 211/211/211 212/212/212 200/200/200
f 200/200/200 212/212/212 201/201/201
f 212/212/212 213/213/213 201/201/201
f 201/201/201 213/213/213 202/202/202
f 213/213/213 214/214/214 202/202/202
f 202/202/202 214/214/214 203/203/203
f 214/214/214 215/215/215 203/203/203
f 203/203/203 215/215/215 204/204/204
f 215/215/215 216/216/216 204/204/204
f 216/216/216 205/205/205 204/204/204
f 217/217/217 205/205/205 216/216/216
f 205/205/205 217/217/217 206/206/206
f 217/217/217 218/218/218 206/206/206
f 206/206/206 218/218/218 207/207/207
f 218/218/218 219/219/219 207/207/207
f 208/208/208 207/207/207 219/219/219
f 220/220/220 208/208/208 219/219/219
f 208/208/208 220/220/220 209/209/209
f 220/220/220 221/221/221 209/209/209
f 209/209/209 221/221/221 210/210/210
f 221/221/221 222/222/222 210/210/210
f 210/210/210 222/222/222 211/211/211
f 222/222/222 223/223/223 211/211/211
f 211/211/211 223/223/223 212/212/212
f 223/223/223 224/224/224 212/212/212
f 212/212/212 224/224/224 213/213/213
f 224/224/224 225/225/225 213/213/213
f 213/213/213 225/225/225 214/214/214
f 225/225/225 226/226/226 214/214/214
f 214/214/214 226/226/226 215/215/215
f 226/226/226 227/227/227 215/215/215
f 215/215/215 227/227/227 216/216/216
f 227/227/227 228/228/228 216/216/216
f 228/228/228 217/217/217 216/216/216
f 229/229/229 217/217/217 228/228/228
f 217/217/217 229/229/229 218/218/218
f 229/229/229 230/230/230 218/218/218
f 218/218/218 230/230/230 219/219/219
f 230/230/230 231/231/231 219/219/219
f 220/220/220 219/219/219 231/231/231
f 232/232/232 220/220/220 231/231/231
f 220/220/220 232/232/232 221/221/221
f 232/232/232 233/233/233 221/221/221
f 221/221/221 233/233/233 222/222/222
f 233/233/233 234/234/234 222/222/222
f 222/222/222 234/234/234 223/223/223
f 234/234/234 235/235/235 223/223/223
f 223/223/223 235/235/235 224/224/224
f 235/235/235 236/236/236 224/224/224
f 224/224/224 236/236/236 225/225/225
f 236/236/236 237/237/237 225/225/225
f 225/225/225 237/237/237 226/226/226
f 237/237/237 238/238/238 226/226/226
f 226/226/226 238/238/238 227/227/227
f 238/238/238 239/239/239 227/227/227
f 227/227/227 239/239/239 228/228/228
f 239/239/239 240/240/240 228/228/228
f 240/240/240 229/229/229 228/228/228
f 241/241/241 229/229/229 240/240/240
f 229/229/229 241/241/241 230/230/230
f 241/241/241 242/242/242 230/230/230
f 230/230/230 242/242/242 231/231/231
f 242/242/242 243/243/243 231/231/231
f 232/232/232 231/231/231 243/243/243
f 244/244/244 232/232/232 243/243/243
f 232/232/232 244/244/244 233/233/233
f 244/244/244 245/245/245 233/233/233
f 233/233/233 245/245/245 234/234/234
f 245/245/245 246/246/246 234/234/234
f 234/234/234 246/246/246 235/235/235
f 246/246/246 247/247/247 235/235/235
f 235/235/235 247/247/247 236/236/236
f 247/247/247 248/248/248 236/236/236
f 236/236/236 248/248/248 237/237/237
f 248/248/248 249/249/249 237/237/237
f 237/237/237 249/249/249 238/238/238
f 249/249/249 250/250/250 238/238/238
f 238/238/238 250/250/250 239/239/239
f 250/250/250 251/251/251 239/239/239
f 239/239/239 251/251/251 240/240/240
f 251/251/251 252/252/252 240/240/240
f 252/252/252 241/241/241 240/240/240
f 253/253/253 241/241/241 252/252/252
f 241/241/241 253/253/253 242/242/242
f 253/253/253 254/254/254 242/242/242
f 242/242/242 254/254/254 243/243/243
f 254/254/254 255/255/255 243/243/243
f 244/244/244 243/243/243 255/255/255
f 256/256/256 244/244/244 255/255/255
f 244/244/244 256/256/256 245/245/245
f 256/256/256 257/257/257 245/245/245
f 245/245/245 257/257/257 246/246/246
f 257/257/257 258/258/258 246/246/246
f 246/246/246 258/258/258 247/247/247
f 258/258/258 259/259/259 247/247/247
f 247/247/247 259/259/259 248/248/248
f 259/259/259 260/260/260 248/248/248
f 248/248/248 260/260/260 249/249/249
f 260/260/260 261/261/261 249/249/249
f 249/249/249 261/261/261 250/250/250
f 261/261/261 262/262/262 250/250/250
f 250/250/250 262/262/262 251/251/251
f 262/262/262 263/263/263 251/251/251
f 251/251/251 263/263/263 252/252/252
f 263/263/263 264/264/264 252/252/252
f 264/264/264 253/253/253 252/252/252
f 265/265/265 253/253/253 264/264/264
f 253/253/253 265/265/265 254/254/254
f 265/265/265 266/266/266 254/254/254
f 254/254/254 266/266/266 255/255/255
f 266/266/266 267/267/267 255/255/255
f 256/256/256 255/255/255 267/267/267
f 268/268/268 256/256/256 267/267/267
f 256/256/256 268/268/268 257/257/257
f 268/268/268 269/269/269 257/257/257
f 257/257/257 269/269/269 258/258/258
f 269/269/269 270/270/270 258/258/258
f 258/258/258 270/270/270 259/259/259
f 270/270/270 271/271/271 259/259/259
f 259/259/259 271/271/271 260/260/260
f 271/271/271 272/272/272 260/260/260
f 260/260/260 272/272/272 261/261/261
f 272/272/272 273/273/273 261/261/261
f 261/261/261 273/273/273 262/262/262
f 273/273/273 274/274/274 262/262/262
f 262/262/262 274/274/274 263/263/263
f 274/274/274 275/275/275 263/263/263
f 263/263/263 275/275/275 264/264/264
f 275/275/275 276/276/276 264/264/264
f 276/276/276 265/265/265 264/264/264
f 277/277/277 265/265/265 276/276/276
f 265/265/265 277/277/277 266/266/266
f 277/277/277 278/278/278 266/266/266
f 266/266/266 278/278/278 267/267/267
f 278/278/278 279/279/279 267/267/267
f 268/268/268 267/267/267 279/279/279
f 280/280/280 268/268/268 279/279/279
f 268/268/268 280/280/280 269/269/269
f 280/280/280 281/281/281 269/269/269
f 269/269/269 281/281/281 270/270/270
f 281/281/281 282/282/282 270/270/270
f 270/270/270 282/282/282 271/271/271
f 282/282/282 283/283/283 271/271/271
f 271/271/271 283/283/283 272/272/272
f 283/283/283 284/284/284 272/272/272
f 272/272/272 284/284/284 273/273/273
f 284/284/284 285/285/285 273/273/273
f 273/273/273 285/285/285 274/274/274
f 285/285/285 286/286/286 274/274/274
f 274/274/274 286/286/286 275/275/275
f 286/286/286 287/287/287 275/275/275
f 275/275/275 287/287/287 276/276/276
f 287/287/287 288/288/288 276/276/276
f 288/288/288 277/277/277 276/276/276
f 289/289/289 277/277/277 288/288/288
f 277/277/277 289/289/289 278/278/278
f 289/289/289 290/290/290 278/278/278
f 278/278/278 290/290/290 279/279/279
f 290/290/290 291/291/291 279/279/279
f 280/280/280 279/279/279 291/291/291
f 292/292/292 280/280/280 291/291/291
f 280/280/280 292/292/292 281/281/281
f 292/292/292 293/293/293 281/281/281
f 281/281/281 293/293/293 282/282/282
f 293/293/293 294/294/294 282/282/282
f 282/282/282 294/294/294 283/283/283
f 294/294/294 295/295/295 283/283/283
f 283/283/283 295/295/295 284/284/284
f 295/295/295 296/296/296 284/284/284
f 284/284/284 296/296/296 285/285/285
f 296/296/296 297/297/297 285/285/285
f 285/285/285 297/297/297 286/286/286
f 297/297/297 298/298/298 286/286/286
f 286/286/286 298/298/298 287/287/287
f 298/298/298 299/299/299 287/287/287
f 287/287/287 299/299/299 288/288/288
f 299/299/299 300/300/300 288/288/288
f 300/300/300 289/289/289 288/288/288
f 301/301/301 289/289/289 300/300/300
f 289/289/289 301/301/301 290/290/290
f 301/301/301 302/302/302 290/290/290
f 290/290/290 302/302/302 291/291/291
f 302/302/302 303/303/303 291/291/291
f 292/292/292 291/291/291 303/303/303
f 304/304/304 292/292/292 303/303/303
f 292/292/292 304/304/304 293/293/293
f 304/304/304 305/305/305 293/293/293
f 293/293/293 305/305/305 294/294/294
f 305/305/305 306/306/306 294/294/294
f 294/294/294 306/306/306 295/295/295
f 306/306/306 307/307/307 295/295/295
f 295/295/295 307/307/307 296/296/296
f 307/307/307 308/308/308 296/296/296
f 296/296/296 308/308/308 297/297/297
f 308/308/308 309/309/309 297/297/297
f 297/297/297 309/309/309 298/298/298
f 309/309/309 310/310/310 298/298/298
f 298/298/298 310/310/310 299/299/299
f 310/310/310 311/311/311 299/299/299
f 299/299/299 311/311/311 300/300/300
f 311/311/311 312/312/312 300/300/300
f 312/312/312 301/301/301 300/300/300
f 313/313/313 301/301/301 312/312/312
f 301/301/301 313/313/313 302/302/302
f 313/313/313 314/314/314 302/302/302
f 302/302/302 314/314/314 303/303/303
f 314/314/314 315/315/315 303/303/303
f 304/304/304 303/303/303 315/315/315
f 316/316/316 304/304/304 315/315/315
f 304/304/304 316/316/316 305/305/305
f 316/316/316 317/317/317 305/305/305
f 305/305/305 317/317/317 306/306/306
f 317/317/317 318/318/318 306/306/306
f 306/306/306 318/318/318 307/307/307
f 318/318/318 319/319/319 307/307/307
f 307/307/307 319/319/319 308/308/308
f 319/319/319 320/320/320 308/308/308
f 308/308/308 320/320/320 309/309/309
f 320/320/320 321/321/321 309/309/309
f 309/309/309 321/321/321 310/310/310
f 321/321/321 322/322/322 310/310/310
f 310/310/310 322/322/322 311/311/311
f 322/322/322 323/323/323 311/311/311
f 311/311/311 323/323/323 312/312/312
f 323/323/323 324/324/324 312/312/312
f 324/324/324 313/313/313 312/312/312
f 325/325/325 313/313/313 324/324/324
f 313/313/313 325/325/325 314/314/314
f 325/325/325 326/326/326 314/314/314
f 314/314/314 326/326/326 315/315/315
f 326/326/326 327/327/327 315/315/315
f 316/316/316 315/315/315 327/327/327
f 328/328/328 316/316/316 327/327/327
f 316/316/316 328/328/328 317/317/317
f 328/328/328 329/329/329 317/317/317
f 317/317/317 329/329/329 318/318/318
f 329/329/329 330/330/330 318/318/318
f 318/318/318 330/330/330 319/319/319
f 330/330/330 331/331/331 319/319/319
f 319/319/319 331/331/331 320/320/320
f 331/331/331 332/332/332 320/320/320
f 320/320/320 332/332/332 321/321/321
f 332/332/332 333/333/333 321/321/321
f 321/321/321 333/333/333 322/322/322
f 333/333/333 334/334/334 322/322/322
f 322/322/322 334/334/334 323/323/323
f 334/334/334 335/335/335 323/323/323
f 323/323/323 335/335/335 324/324/324
f 335/335/335 336/336/336 324/324/324
f 336/336/336 325/325/325 324/324/324
f 337/337/337 325/325/325 336/336/336
f 325/325/325 337/337/337 326/326/326
f 337/337/337 338/338/338 326/326/326
f 326/326/326 338/338/338 327/327/327
f 338/338/338 339/339/339 327/327/327
f 328/328/328 327/327/327 339/339/339
f 340/340/340 328/328/328 339/339/339
f 328/328/328 340/340/340 329/329/329
f 340/340/340 341/341/341 329/329/329
f 329/329/329 341/341/341 330/330/330
f 341/341/341 342/342/342 330/330/330
f 330/330/330 342/342/342 331/331/331
f 342/342/342 343/343/343 331/331/331
f 331/331/331 343/343/343 332/332/332
f 343/343/343 344/344/344 332/332/332
f 332/332/332 344/344/344 333/333/333
f 344/344/344 345/345/345 333/333/333
f 333/333/333 345/345/345 334/334/334
f 345/345/345 346/346/346 334/334/334
f 334/334/334 346/346/346 335/335/335
f 346/346/346 347/347/347 335/335/335
f 335/335/335 347/347/347 336/336/336
f 347/347/347 348/348/348 336/336/336
f 348/348/348 337/337/337 336/336/336
f 349/349/349 337/337/337 348/348/348
f 337/337/337 349/349/349 338/338/338
f 349/349/349 350/350/350 338/338/338
f 338/338/338 350/350/350 339/339/339
f 350/350/350 351/351/351 339/339/339
f 340/340/340 339/339/339 351/351/351
f 352/352/352 340/340/340 351/351/351
f 340/340/340 352/352/352 341/341/341
f 352/352/352 353/353/353 341/341/341
f 341/341/341 353/353/353 342/342/342
f 353/353/353 354/354/354 342/342/342
f 342/342/342 354/354/354 343/343/343
f 354/354/354 355/355/355 343/343/343
f 343/343/343 355/355/355 344/344/344
f 355/355/355 356/356/356 344/344/344
f 344/344/344 356/356/356 345/345/345
f 356/356/356 357/357/357 345/345/345
f 345/345/345 357/357/357 346/346/346
f 357/357/357 358/358/358 346/346/346
f 346/346/346 358/358/358 347/347/347
f 358/358/358 359/359/359 347/347/347
f 347/347/347 359/359/359 348/348/348
f 359/359/359 360/360/360 348/348/348
f 360/360/360 349/349/349 348/348/348
f 361/361/361 349/349/349 360/360/360
f 349/349/349 361/361/361 350/350/350
f 361/361/361 362/362/362 350/350/350
f 350/350/350 362/362/362 351/351/351
f 362/362/362 363/363/363 351/351/351
f 352/352/352 351/351/351 363/363/363
f 364/364/364 352/352/352 363/363/363
f 352/352/352 364/364/364 353/353/353
f 364/364/364 365/365/365 353/353/353
f 353/353/353 365/365/365 354/354/354
f 365/365/365 366/366/366 354/354/354
f 354/354/354 366/366/366 355/355/355
f 366/366/366 367/367/367 355/355/355
f 355/355/355 367/367/367 356/356/356
f 367/367/367 368/368/368 356/356/356
f 356/356/356 368/368/368 357/357/357
f 368/368/368 369/369/369 357/357/357
f 357/357/357 369/369/369 358/358/358
f 369/369/369 370/370/370 358/358/358
f 358/358/358 370/370/370 359/359/359
f 370/370/370 371/371/371 359/359/359
f 359/359/359 371/371/371 360/360/360
f 371/371/371 372/372/372 360/360/360
f 372/372/372 361/361/361 360/360/360
f 373/373/373 361/361/361 372/372/372
f 361/361/361 373/373/373 362/362/362
f 373/373/373 374/374/374 362/362/362
f 362/362/362 374/374/374 363/363/363
f 374/374/374 375/375/375 363/363/363
f 364/364/364 363/363/363 375/375/375
f 376/376/376 364/364/364 375/375/375
f 364/364/364 376/376/376 365/365/365
f 376/376/376 377/377/377 365/365/365
f 365/365/365 377/377/377 366/366/366
f 377/377/377 378/378/378 366/366/366
f 366/366/366 378/378/378 367/367/367
f 378/378/378 379/379/379 367/367/367
f 367/367/367 379/379/379 368/368/368
f 379/379/379 380/380/380 368/368/368
f 368/368/368 380/380/380 369/369/369
f 380/380/380 381/381/381 369/369/369
f 369/369/369 381/381/381 370/370/370
f 381/381/381 382/382/382 370/370/370
f 370/370/370 382/382/382 371/371/371
f 382/382/382 383/383/383 371/371/371
f 371/371/371 383/383/383 372/372/372
f 383/383/383 384/384/384 372/372/372
f 384/384/384 373/373/373 372/372/372
f 385/385/385 373/373/373 384/384/384
f 373/373/373 385/385/385 374/374/374
f 385/385/385 386/386/386 374/374/374
f 374/374/374 386/386/386 375/375/375
f 386/386/386 387/387/387 375/375/375
f 376/376/376 375/375/375 387/387/387
f 388/388/388 376/376/376 387/387/387
f 376/376/376 388/388/388 377/377/377
f 388/388/388 389/389/389 377/377/377
f 377/377/377 389/389/389 378/378/378
f 389/389/389 390/390/390 378/378/378
f 378/378/378 390/390/390 379/379/379
f 390/390/390 391/391/391 379/379/379
f 379/379/379 391/391/391 380/380/380
f 391/391/391 392/392/392 380/380/380
f 380/380/380 392/392/392 381/381/381
f 392/392/392 393/393/393 381/381/381
f 381/381/381 393/393/393 382/382/382
f 393/393/393 394/394/394 382/382/382
f 382/382/382 394/394/394 383/383/383
f 394/394/394 395/395/395 383/383/383
f 383/383/383 395/395/395 384/384/384
f 395/395/395 396/396/396 384/384/384
f 396/396/396 385/385/385 384/384/384
f 397/397/397 385/385/385 396/396/396
f 385/385/385 397/397/397 386/386/386
f 397/397/397 398/398/398 386/386/386
f 386/386/386 398/398/398 387/387/387
f 398/398/398 399/399/399 387/387/387
f 388/388/388 387/387/387 399/399/399
f 400/400/400 388/388/388 399/399/399
f 388/388/388 400/400/400 389/389/389
f 400/400/400 401/401/401 389/389/389
f 389/389/389 401/401/401 390/390/390
f 401/401/401 402/402/402 390/390/390
f 390/390/390 402/402/402 391/391/391
f 402/402/402 403/403/403 391/391/391
f 391/391/391 403/403/403 392/392/392
f 403/403/403 404/404/404 392/392/392
f 392/392/392 404/404/404 393/393/393
f 404/404/404 405/405/405 393/393/393
f 393/393/393 405/405/405 394/394/394
f 405/405/405 406/406/406 394/394/394
f 394/394/394 406/406/406 395/395/395
f 406/406/406 407/407/407 395/395/395
f 395/395/395 407/407/407 396/396/396
f 407/407/407 408/408/408 396/396/396
f 408/408/408 397/397/397 396/396/396
f 409/409/409 397/397/397 408/408/408
f 397/397/397 409/409/409 398/398/398
f 409/409/409 410/410/410 398/398/398
f 398/398/398 410/410/410 399/399/399
f 410/410/410 411/411/411 399/399/399
f 400/400/400 399/399/399 411/411/411
f 412/412/412 400/400/400 411/411/411
f 400/400/400 412/412/412 401/401/401
f 412/412/412 413/413/413 401/401/401
f 401/401/401 413/413/413 402/402/402
f 413/413/413 414/414/414 402/402/402
f 402/402/402 414/414/414 403/403/403
f 414/414/414 415/415/415 403/403/403
f 403/403/403 415/415/415 404/404/404
f 415/415/415 416/416/416 404/404/404
f 404/404/404 416/416/416 405/405/405
f 416/416/416 417/417/417 405/405/405
f 405/405/405 417/417/417 406/406/406
f 417/417/417 418/418/418 406/406/406
f 406/406/406 418/418/418 407/407/407
f 418/418/418 419/419/419 407/407/407
f 407/407/407 419/419/419 408/408/408
f 419/419/419 420/420/420 408/408/408
f 420/420/420 409/409/409 408/408/408
f 421/421/421 409/409/409 420/420/420
f 409/409/409 421/421/421 410/410/410
f 421/421/421 422/422/422 410/410/410
f 410/410/410 422/422/422 411/411/411
f 422/422/422 423/423/423 411/411/411
f 412/412/412 411/411/411 423/423/423
f 424/424/424 412/412/412 423/423/423
f 412/412/412 424/424/424 413/413/413
f 424/424/424 425/425/425 413/413/413
f 413/413/413 425/425/425 414/414/414
f 425/425/425 426/426/426 414/414/414
f 414/414/414 426/426/426 415/415/415
f 426/426/426 427/427/427 415/415/415
f 415/415/415 427/427/427 416/416/416
f 427/427/427 428/428/428 416/416/416
f 416/416/416 428/428/428 417/417/417
f 428/428/428 429/429/429 417/417/417
f 417/417/417 429/429/429 418/418/418
f 429/429/429 430/430/430 418/418/418
f 418/418/418 430/430/430 419/419/419
f 430/430/430 431/431/431 419/419/419
f 419/419/419 431/431/431 420/420/420
f 431/431/431 432/432/432 420/420/420
f 432/432/432 421/421/421 420/420/420
f 433/433/433 421/421/421 432/432/432
f 421/421/421 433/433/433 422/422/422
f 433/433/433 434/434/434 422/422/422
f 422/422/422 434/434/434 423/423/423
f 434/434/434 435/435/435 423/423/423
f 424/424/424 423/423/423 435/435/435
f 436/436/436 424/424/424 435/435/435
f 424/424/424 436/436/436 425/425/425
f 436/436/436 437/437/437 425/425/425
f 425/425/425 437/437/437 426/426/426
f 437/437/437 438/438/438 426/426/426
f 426/426/426 438/438/438 427/427/427
f 438/438/438 439/439/439 427/427/427
f 427/427/427 439/439/439 428/428/428
f 439/439/439 440/440/440 428/428/428
f 428/428/428 440/440/440 429/429/429
f 440/440/440 441/441/441 429/429/429
f 429/429/429 441/441/441 430/430/430
f 441/441/441 442/442/442 430/430/430
f 430/430/430 442/442/442 431/431/431
f 442/442/442 443/443/443 431/431/431
f 431/431/431 443/443/443 432/432/432
f 443/443/443 444/444/444 432/432/432
f 444/444/444 433/433/433 432/432/432
f 445/445/445 433/433/433 444/444/444
f 433/433/433 445/445/445 434/434/434
f 445/445/445 446/446/446 434/434/434
f 434/434/434 446/446/446 435/435/435
f 446/446/446 447/447/447 435/435/435
f 436/436/436 435/435/435 447/447/447
f 448/448/448 436/436/436 447/447/447
f 436/436/436 448/448/448 437/437/437
f 448/448/448 449/449/449 437/437/437
f 437/437/437 449/449/449 438/438/438
f 449/449/449 450/450/450 438/438/438
f 438/438/438 450/450/450 439/439/439
f 450/450/450 451/451/451 439/439/439
f 439/439/439 451/451/451 440/440/440
f 451/451/451 452/452/452 440/440/440
f 440/440/440 452/452/452 441/441/441
f 452/452/452 453/453/453 441/441/441
f 441/441/441 453/453/453 442/442/442
f 453/453/453 454/454/454 442/442/442
f 442/442/442 454/454/454 443/443/443
f 454/454/454 455/455/455 443/443/443
f 443/443/443 455/455/455 444/444/444
f 455/455/455 456/456/456 444/444/444
f 456/456/456 445/445/445 444/444/444
f 457/457/457 445/445/445 456/456/456
f 445/445/445 457/457/457 446/446/446
f 457/457/457 458/458/458 446/446/446
f 446/446/446 458/458/458 447/447/447
f 458/458/458 459/459/459 447/447/447
f 448/448/448 447/447/447 459/459/459
f 460/460/460 448/448/448 459/459/459
f 448/448/448 460/460/460 449/449/449
f 460/460/460 461/461/461 449/449/449
f 449/449/449 461/461/461 450/450/450
f 461/461/461 462/462/462 450/450/450
f 450/450/450 462/462/462 451/451/451
f 462/462/462 463/463/463 451/451/451
f 451/451/451 463/463/463 452/452/452
f 463/463/463 464/464/464 452/452/452
f 452/452/452 464/464/464 453/453/453
f 464/464/464 465/465/465 453/453/453
f 453/453/453 465/465/465 454/454/454
f 465/465/465 466/466/466 454/454/454
f 454/454/454 466/466/466 455/455/455
f 466/466/466 467/467/467 455/455/455
f 455/455/455 467/467/467 456/456/456
f 467/467/467 468/468/468 456/456/456
f 468/468/468 457/457/457 456/456/456
f 469/469/469 457/457/457 468/468/468
f 457/457/457 469/469/469 458/458/458
f 469/469/469 470/470/470 458/458/458
f 458/458/458 470/470/470 459/459/459
f 470/470/470 471/471/471 459/459/459
f 460/460/460 459/459/459 471/471/471
f 472/472/472 460/460/460 471/471/471
f 460/460/460 472/472/472 461/461/461
f 472/472/472 473/473/473 461/461/461
f 461/461/461 473/473/473 462/462/462
f 473/473/473 474/474/474 462/462/462
f 462/462/462 474/474/474 463/463/463
f 474/474/474 475/475/475 463/463/463
f 463/463/463 475/475/475 464/464/464
f 475/475/475 476/476/476 464/464/464
f 464/464/464 476/476/476 465/465/465
f 476/476/476 477/477/477 465/465/465
f 465/465/465 477/477/477 466/466/466
f 477/477/477 478/478/478 466/466/466
f 466/466/466 478/478/478 467/467/467
f 478/478/478 479/479/479 467/467/467
f 467/467/467 479/479/479 468/468/468
f 479/479/479 480/480/480 468/468/468
f 480/480/480 469/469/469 468/468/468
f 481/481/481 469/469/469 480/480/480
f 469/469/469 481/481/481 470/470/470
f 481/481/481 482/482/482 470/470/470
f 470/470/470 482/482/482 471/471/471
f 482/482/482 483/483/483 471/471/471
f 472/472/472 471/471/471 483/483/483
f 484/484/484 472/472/472 483/483/483
f 472/472/472 484/484/484 473/473/473
f 484/484/484 485/485/485 473/473/473
f 473/473/473 485/485/485 474/474/474
f 485/485/485 486/486/486 474/474/474
f 474/474/474 486/486/486 475/475/475
f 486/486/486 487/487/487 475/475/475
f 475/475/475 487/487/487 476/476/476
f 487/487/487 488/488/488 476/476/476
f 476/476/476 488/488/488 477/477/477
f 488/488/488 489/489/489 477/477/477
f 477/477/477 489/489/489 478/478/478
f 489/489/489 490/490/490 478/478/478
f 478/478/478 490/490/490 479/479/479
f 490/490/490 491/491/491 479/479/479
f 479/479/479 491/491/491 480/480/480
f 491/491/491 492/492/492 480/480/480
f 492/492/492 481/481/481 480/480/480
f 493/493/493 481/481/481 492/492/492
f 481/481/481 493/493/493 482/482/482
f 493/493/493 494/494/494 482/482/482
f 482/482/482 494/494/494 483/483/483
f 494/494/494 495/495/495 483/483/483
f 484/484/484 483/483/483 495/495/495
f 496/496/496 484/484/484 495/495/495
f 484/484/484 496/496/496 485/485/485
f 496/496/496 497/497/497 485/485/485
f 485/485/485 497/497/497 486/486/486
f 497/497/497 498/498/498 486/486/486
f 486/486/486 498/498/498 487/487/487
f 498/498/498 499/499/499 487/487/487
f 487/487/487 499/499/499 488/488/488
f 499/499/499 500/500/500 488/488/488
f 488/488/488 500/500/500 489/489/489
f 500/500/500 501/501/501 489/489/489
f 489/489/489 501/501/501 490/490/490
f 501/501/501 502/502/502 490/490/490
f 490/490/490 502/502/502 491/491/491
f 502/502/502 503/503/503 491/491/491
f 491/491/491 503/503/503 492/492/492
f 503/503/503 504/504/504 492/492/492
f 504/504/504 493/493/493 492/492/492
f 505/505/505 493/493/493 504/504/504
f 493/493/493 505/505/505 494/494/494
f 505/505/505 506/506/506 494/494/494
f 494/494/494 506/506/506 495/495/495
f 506/506/506 507/507/507 495/495/495
f 496/496/496 495/495/495 507/507/507
f 508/508/508 496/496/496 507/507/507
f 496/496/496 508/508/508 497/497/497
f 508/508/508 509/509/509 497/497/497
f 497/497/497 509/509/509 498/498/498
f 509/509/509 510/510/510 498/498/498
f 498/498/498 510/510/510 499/499/499
f 510/510/510 511/511/511 499/499/499
f 499/499/499 511/511/511 500/500/500
f 511/511/511 512/512/512 500/500/500
f 500/500/500 512/512/512 501/501/501
f 512/512/512 513/513/513 501/501/501
f 501/501/501 513/513/513 502/502/502
f 513/513/513 514/514/514 502/502/502
f 502/502/502 514/514/514 503/503/503
f 514/514/514 515/515/515 503/503/503
f 503/503/503 515/515/515 504/504/504
f 515/515/515 516/516/516 504/504/504
f 516/516/516 505/505/505 504/504/504
f 517/517/517 505/505/505 516/516/516
f 505/505/505 517/517/517 506/506/506
f 517/517/517 518/518/518 506/506/506
f 506/506/506 518/518/518 507/507/507
f 518/518/518 519/519/519 507/507/507
f 508/508/508 507/507/507 519/519/519
f 520/520/520 508/508/508 519/519/519
f 508/508/508 520/520/520 509/509/509
f 520/520/520 521/521/521 509/509/509
f 509/509/509 521/521/521 510/510/510
f 521/521/521 522/522/522 510/510/510
f 510/510/510 522/522/522 511/511/511
f 522/522/522 523/523/523 511/511/511
f 511/511/511 523/523/523 512/512/512
f 523/523/523 524/524/524 512/512/512
f 512/512/512 524/524/524 513/513/513
f 524/524/524 525/525/525 513/513/513
f 513/513/513 525/525/525 514/514/514
f 525/525/525 526/526/526 514/514/514
f 514/514/514 526/526/526 515/515/515
f 526/526/526 527/527/527 515/515/515
f 515/515/515 527/527/527 516/516/516
f 527/527/527 528/528/528 516/516/516
f 528/528/528 517/517/517 516/516/516
f 529/529/529 517/517/517 528/528/528
f 517/517/517 529/529/529 518/518/518
f 529/529/529 530/530/530 518/518/518
f 518/518/518 530/530/530 519/519/519
f 530/530/530 531/531/531 519/519/519
f 520/520/520 519/519/519 531/531/531
f 532/532/532 520/520/520 531/531/531
f 520/520/520 532/532/532 521/521/521
f 532/532/532 533/533/533 521/521/521
f 521/521/521 533/533/533 522/522/522
f 533/533/533 534/534/534 522/522/522
f 522/522/522 534/534/534 523/523/523
f 534/534/534 535/535/535 523/523/523
f 523/523/523 535/535/535 524/524/524
f 535/535/535 536/536/536 524/524/524
f 524/524/524 536/536/536 525/525/525
f 536/536/536 537/537/537 525/525/525
f 525/525/525 537/537/537 526/526/526
f 537/537/537 538/538/538 526/526/526
f 526/526/526 538/538/538 527/527/527
f 538/538/538 539/539/539 527/527/527
f 527/527/527 539/539/539 528/528/528
f 539/539/539 540/540/540 528/528/528
f 540/540/540 529/529/529 528/528/528
f 541/541/541 529/529/529 540/540/540
f 529/529/529 541/541/541 530/530/530
f 541/541/541 542/542/542 530/530/530
f 530/530/530 542/542/542 531/531/531
f 542/542/542 543/543/543 531/531/531
f 532/532/532 531/531/531 543/543/543
f 544/544/544 532/532/532 543/543/543
f 532/532/532 544/544/544 533/533/533
f 544/544/544 545/545/545 533/533/533
f 533/533/533 545/545/545 534/534/534
f 545/545/545 546/546/546 534/534/534
f 534/534/534 546/546/546 535/535/535
f 546/546/546 547/547/547 535/535/535
f 535/535/535 547/547/547 536/536/536
f 547/547/547 548/548/548 536/536/536
f 536/536/536 548/548/548 537/537/537
f 548/548/548 549/549/549 537/537/537
f 537/537/537 549/549/549 538/538/538
f 549/549/549 550/550/550 538/538/538
f 538/538/538 550/550/550 539/539/539
f 550/550/550 551/551/551 539/539/539
f 539/539/539 551/551/551 540/540/540
f 551/551/551 552/552/552 540/540/540
f 552/552/552 541/541/541 540/540/540
f 553/553/553 541/541/541 552/552/552
f 541/541/541 553/553/553 542/542/542
f 553/553/553 554/554/554 542/542/542
f 542/542/542 554/554/554 543/543/543
f 554/554/554 555/555/555 543/543/543
f 544/544/544 543/543/543 555/555/555
f 556/556/556 544/544/544 555/555/555
f 544/544/544 556/556/556 545/545/545
f 556/556/556 557/557/557 545/545/545
f 545/545/545 557/557/557 546/546/546
f 557/557/557 558/558/558 546/546/546
f 546/546/546 558/558/558 547/547/547
f 558/558/558 559/559/559 547/547/547
f 547/547/547 559/559/559 548/548/548
f 559/559/559 560/560/560 548/548/548
f 548/548/548 560/560/560 549/549/549
f 560/560/560 561/561/561 549/549/549
f 549/549/549 561/561/561 550/550/550
f 561/561/561 562/562/562 550/550/550
f 550/550/550 562/562/562 551/551/551
f 562/562/562 563/563/563 551/551/551
f 551/551/551 563/563/563 552/552/552
f 563/563/563 564/564/564 552/552/552
f 564/564/564 553/553/553 552/552/552
f 565/565/565 553/553/553 564/564/564
f 553/553/553 565/565/565 554/554/554
f 565/565/565 566/566/566 554/554/554
f 554/554/554 566/566/566 555/555/555
f 566/566/566 567/567/567 555/555/555
f 556/556/556 555/555/555 567/567/567
f 568/568/568 556/556/556 567/567/567
f 556/556/556 568/568/568 557/557/557
f 568/568/568 569/569/569 557/557/557
f 557/557/557 569/569/569 558/558/558
f 569/569/569 570/570/570 558/558/558
f 558/558/558 570/570/570 559/559/559
f 570/570/570 571/571/571 559/559/559
f 559/559/559 571/571/571 560/560/560
f 571/571/571 572/572/572 560/560/560
f 560/560/560 572/572/572 561/561/561
f 572/572/572 573/573/573 561/561/561
f 561/561/561 573/573/573 562/562/562
f 573/573/573 574/574/574 562/562/562
f 562/562/562 574/574/574 563/563/563
f 574/574/574 575/575/575 563/563/563
f 563/563/563 575/575/575 564/564/564
f 575/575/575 576/576/576 564/564/564
f 576/576/576 565/565/565 564/564/564
f 577/577/577 565/565/565 576/576/576
f 566/566/566 565/565/565 577/577/577
f 578/578/578 577/577/577 576/576/576
f 579/579/579 566/566/566 577/577/577
f 578/578/578 576/576/576 580/580/580
f 576/576/576 575/575/575 580/580/580
f 567/567/567 566/566/566 579/579/579
f 580/580/580 575/575/575 581/581/581
f 575/575/575 574/574/574 581/581/581
f 582/582/582 567/567/567 579/579/579
f 583/583/583 581/581/581 574/574/574
f 568/568/568 567/567/567 582/582/582
f 573/573/573 583/583/583 574/574/574
f 584/584/584 568/568/568 582/582/582
f 583/583/583 573/573/573 585/585/585
f 569/569/569 568/568/568 584/584/584
f 573/573/573 572/572/572 585/585/585
f 586/586/586 569/569/569 584/584/584
f 585/585/585 572/572/572 587/587/587
f 570/570/570 569/569/569 586/586/586
f 572/572/572 571/571/571 587/587/587
f 588/588/588 570/570/570 586/586/586
f 588/588/588 587/587/587 571/571/571
f 570/570/570 588/588/588 571/571/571
