g paizipolySurface21_mobile
v -0.0784573585 0.208128067 -0.0166285898
v -0.0784573585 0.225160286 -0.0166285898
v -0.0844133766 0.225160286 -0.0169108918
v -0.0784573585 0.225160286 -0.0166285898
v -0.0796529904 0.208128067 -0.0107666723
v -0.0796529904 0.225160286 -0.0107666723
v -0.0784573585 0.225160286 -0.0166285898
v -0.0784573585 0.208128067 -0.0166285898
v -0.0796529904 0.208128067 -0.0107666723
v -0.0803006243 0.208128067 -0.00481618942
v -0.0796529904 0.225160286 -0.0107666723
v -0.0803006243 0.225160286 -0.00481618942
v -0.080394725 0.225160286 0.00117304076
v -0.080394725 0.208128067 0.00117304076
v -0.080278483 0.225160286 0.00337056791
v -0.080278483 0.208128067 0.00337056791
v -0.0800404637 0.208128067 0.0071899476
v -0.0800404637 0.225160286 0.0071899476
v -0.079481395 0.225160286 0.0131404304
v -0.079481395 0.208128067 0.0131404304
v -0.0784352171 0.208128067 0.019018954
v -0.0784352171 0.225160286 0.019018954
v -0.0767580113 0.225160286 0.0247646295
v -0.0767580113 0.208128067 0.0247646295
v -0.0747985034 0.225160286 0.0304217397
v -0.0747985034 0.208128067 0.0304217397
v -0.0727670363 0.208128067 0.0360511732
v -0.0727670363 0.225160286 0.0360511732
v -0.0704200551 0.225160286 0.0415588295
v -0.0704200551 0.208128067 0.0415588295
v -0.067691136 0.208128067 0.0468948904
v -0.067691136 0.225160286 0.0468948904
v -0.0645802789 0.225160286 0.0520150733
v -0.0645802789 0.208128067 0.0520150733
v -0.0610874839 0.225160286 0.0568917015
v -0.0610874839 0.208128067 0.0568917015
v -0.0572625689 0.208128067 0.0614804925
v -0.0572625689 0.225160286 0.0614804925
v -0.0531110692 0.225160286 0.0658091228
v -0.0531110692 0.208128067 0.0658091228
v -0.0486938735 0.208128067 0.0698388452
v -0.0486938735 0.225160286 0.0698388452
v -0.0440165173 0.225160286 0.0736028715
v -0.0440165173 0.208128067 0.0736028715
v -0.0402690969 0.225160286 0.0763151846
v -0.0402690969 0.208128067 0.0763151846
v -0.0409831548 0.208128067 0.0776270585
v -0.0409831548 0.225160286 0.0776270585
v -0.0429537334 0.225160286 0.0832786334
v -0.0429537334 0.208128067 0.0832786334
v -0.0442600719 0.208128067 0.0891239449
v -0.0442600719 0.225160286 0.0891239449
v -0.0451180485 0.225160286 0.0950578218
v -0.0451180485 0.208128067 0.0950578218
v -0.0454723098 0.225160286 0.101058123
v -0.0454723098 0.208128067 0.101058123
v -0.0449021705 0.208128067 0.107014141
v -0.0449021705 0.225160286 0.107014141
v -0.0422396754 0.225160286 0.112333596
v -0.0422396754 0.208128067 0.112333596
v -0.0377560558 0.208128067 0.116136369
v -0.0377560558 0.225160286 0.116136369
v -0.0318719969 0.225160286 0.116844892
v -0.0318719969 0.208128067 0.116844892
v -0.0259491907 0.225160286 0.115859603
v -0.0259491907 0.208128067 0.115859603
v -0.0202810099 0.208128067 0.113922236
v -0.0202810099 0.225160286 0.113922236
v -0.0151995743 0.225160286 0.110761561
v -0.0151995743 0.208128067 0.110761561
v -0.0106772073 0.208128067 0.10683701
v -0.0106772073 0.225160286 0.10683701
v -0.00656445498 0.225160286 0.102480703
v -0.00656445498 0.208128067 0.102480703
v -0.0027118633 0.225160286 0.0978808415
v -0.0027118633 0.208128067 0.0978808415
v 0.00103002173 0.208128067 0.0931924146
v 0.00103002173 0.225160286 0.0931924146
v 0.00483833075 0.225160286 0.088559341
v 0.00483833075 0.208128067 0.088559341
v 0.00908946641 0.208128067 0.0843414173
v 0.00908946641 0.225160286 0.0843414173
v 0.0142816087 0.225160286 0.0814132262
v 0.0142816087 0.208128067 0.0814132262
v 0.0200051429 0.208128067 0.0819335475
v 0.0200051429 0.225160286 0.0819335475
v 0.0253633451 0.225160286 0.0845905073
v 0.0253633451 0.208128067 0.0845905073
v 0.0305112047 0.208128067 0.0875851224
v 0.0305112047 0.225160286 0.0875851224
v 0.0357310236 0.225160286 0.0905797375
v 0.0357310236 0.208128067 0.0905797375
v 0.0409895898 0.225160286 0.0934470399
v 0.0409895898 0.208128067 0.0934470399
v 0.0463588627 0.208128067 0.096142747
v 0.0463588627 0.225160286 0.096142747
v 0.0518388423 0.225160286 0.0985616875
v 0.0518388423 0.208128067 0.0985616875
v 0.0575070231 0.208128067 0.100559943
v 0.0575070231 0.225160286 0.100559943
v 0.0633800113 0.225160286 0.101766645
v 0.0633800113 0.208128067 0.101766645
v 0.0693083528 0.225160286 0.101323819
v 0.0693083528 0.208128067 0.101323819
v 0.0747827971 0.208128067 0.0989823728
v 0.0747827971 0.225160286 0.0989823728
v 0.078923226 0.225160286 0.0947090958
v 0.078923226 0.208128067 0.0947090958
v 0.0811761065 0.208128067 0.0891903689
v 0.0811761065 0.225160286 0.0891903689
v 0.0814694792 0.225160286 0.0832509567
v 0.0814694792 0.208128067 0.0832509567
v 0.079620678 0.225160286 0.0775938465
v 0.079620678 0.208128067 0.0775938465
v 0.0768751529 0.208128067 0.0722743916
v 0.0768751529 0.225160286 0.0722743916
v 0.0737975078 0.225160286 0.067159744
v 0.0737975078 0.208128067 0.067159744
v 0.0705095201 0.208128067 0.0621170558
v 0.0705095201 0.225160286 0.0621170558
v 0.0669281597 0.225160286 0.0569138429
v 0.0669281597 0.208128067 0.0569138429
v 0.0662196371 0.225160286 0.0559064123
v 0.0662196371 0.208128067 0.0559064123
v 0.0687105369 0.208128067 0.051361904
v 0.0687105369 0.225160286 0.051361904
v 0.0714782033 0.225160286 0.0460645904
v 0.0714782033 0.208128067 0.0460645904
v 0.0740687391 0.208128067 0.0406621055
v 0.0740687391 0.225160286 0.0406621055
v 0.0763492963 0.225160286 0.0351267727
v 0.0763492963 0.208128067 0.0351267727
v 0.0781704208 0.225160286 0.0294309151
v 0.0781704208 0.208128067 0.0294309151
v 0.0794269413 0.208128067 0.0235911389
v 0.0794269413 0.225160286 0.0235911389
v 0.0801133226 0.225160286 0.0176517267
v 0.0801133226 0.208128067 0.0176517267
v 0.0803900893 0.208128067 0.0116791026
v 0.0803900893 0.225160286 0.0116791026
v 0.0804011599 0.208128067 0.00437246316
v 0.0804011599 0.225160286 0.00437246316
v 0.0798088793 0.208128067 -0.00029935779
v 0.0798088793 0.225160286 -0.00029935779
v 0.0790007207 0.225160286 -0.00623323464
v 0.0790007207 0.208128067 -0.00623323464
v 0.0780652495 0.208128067 -0.0121505055
v 0.0780652495 0.225160286 -0.0121505055
v 0.0769139002 0.225160286 -0.0180345643
v 0.0769139002 0.208128067 -0.0180345643
v 0.075463643 0.225160286 -0.0238411285
v 0.075463643 0.208128067 -0.0238411285
v 0.0736093065 0.208128067 -0.0295369861
v 0.0736093065 0.225160286 -0.0295369861
v 0.071240184 0.225160286 -0.035039107
v 0.071240184 0.208128067 -0.035039107
v 0.0679521963 0.208128067 -0.0407349645
v 0.0679521963 0.225160286 -0.0407349645
v 0.0678027423 0.225160286 -0.0409508425
v 0.0678027423 0.208128067 -0.0409508425
v 0.0731830858 0.208128067 -0.0434251363
v 0.0731830858 0.225160286 -0.0434251363
v 0.0777442001 0.225160286 -0.047294334
v 0.0777442001 0.208128067 -0.047294334
v 0.0814418025 0.208128067 -0.0520049022
v 0.0814418025 0.225160286 -0.0520049022
v 0.0842980343 0.225160286 -0.0571970445
v 0.0842980343 0.208128067 -0.0571970445
v 0.0861966535 0.225160286 -0.0629150434
v 0.0861966535 0.208128067 -0.0629150434
v 0.0875804867 0.208128067 -0.0687326782
v 0.0875804867 0.225160286 -0.0687326782
v 0.0885048873 0.225160286 -0.0746610197
v 0.0885048873 0.208128067 -0.0746610197
v 0.0889034312 0.208128067 -0.0806391792
v 0.0889034312 0.225160286 -0.0806391792
v 0.0886598766 0.225160286 -0.0866284094
v 0.0886598766 0.208128067 -0.0866284094
v 0.087619234 0.225160286 -0.0925290743
v 0.087619234 0.208128067 -0.0925290743
v 0.0856541908 0.208128067 -0.0981917198
v 0.0856541908 0.225160286 -0.0981917198
v 0.0831577557 0.225160286 -0.103644023
v 0.0831577557 0.208128067 -0.103644023
v 0.0802572413 0.208128067 -0.108885983
v 0.0802572413 0.225160286 -0.108885983
v 0.0769471122 0.225160286 -0.113862247
v 0.0769471122 0.208128067 -0.113862247
v 0.0731996918 0.225160286 -0.118545139
v 0.0731996918 0.208128067 -0.118545139
v 0.0689208795 0.208128067 -0.12271878
v 0.0689208795 0.225160286 -0.12271878
v 0.0639612213 0.225160286 -0.126062121
v 0.0639612213 0.208128067 -0.126062121
v 0.0586749784 0.208128067 -0.128840858
v 0.0586749784 0.225160286 -0.128840858
v 0.0531175042 0.225160286 -0.131071597
v 0.0531175042 0.208128067 -0.131071597
v 0.0473662933 0.225160286 -0.132770944
v 0.0473662933 0.208128067 -0.132770944
v 0.0414766991 0.208128067 -0.133961041
v 0.0414766991 0.225160286 -0.133961041
v 0.0355096103 0.225160286 -0.13452011
v 0.0355096103 0.208128067 -0.13452011
v 0.0295369861 0.208128067 -0.13428209
v 0.0295369861 0.225160286 -0.13428209
v 0.0236584626 0.225160286 -0.133141812
v 0.0236584626 0.208128067 -0.133141812
v 0.018012423 0.225160286 -0.131171233
v 0.018012423 0.208128067 -0.131171233
v 0.0125767261 0.208128067 -0.128669263
v 0.0125767261 0.225160286 -0.128669263
v 0.00735690721 0.225160286 -0.125735536
v 0.00735690721 0.208128067 -0.125735536
v 0.00249134961 0.208128067 -0.122248277
v 0.00249134961 0.225160286 -0.122248277
v -0.00193691669 0.225160286 -0.118213019
v -0.00193691669 0.208128067 -0.118213019
v -0.00585593237 0.225160286 -0.113690652
v -0.00585593237 0.208128067 -0.113690652
v -0.00923248543 0.208128067 -0.108725458
v -0.00923248543 0.225160286 -0.108725458
v -0.0120278285 0.225160286 -0.103428145
v -0.0120278285 0.208128067 -0.103428145
v -0.0139541244 0.208128067 -0.0977765698
v -0.0139541244 0.225160286 -0.0977765698
v -0.0827195648 0.208343945 -0.0133073901
v -0.087978131 0.224944408 -0.0136837927
v -0.0827195648 0.224944408 -0.0133073901
v -0.0827195648 0.224944408 -0.0133073901
v -0.0832232801 0.224944408 -0.00691408058
v -0.0832232801 0.208343945 -0.00691408058
v -0.0827195648 0.224944408 -0.0133073901
v -0.0832232801 0.208343945 -0.00691408058
v -0.0827195648 0.208343945 -0.0133073901
v -0.0836439654 0.208343945 -0.00169979701
v -0.0832232801 0.224944408 -0.00691408058
v -0.0836439654 0.224944408 -0.00169979701
v -0.0836661067 0.224944408 0.00328200258
v -0.0836661067 0.208343945 0.00328200258
v -0.0835554 0.224944408 0.00520276309
v -0.0835554 0.208343945 0.00520276309
v -0.0834446934 0.208343945 0.0087564468
v -0.0834446934 0.224944408 0.0087564468
v -0.0827859888 0.224944408 0.0146183643
v -0.0827859888 0.208343945 0.0146183643
v -0.0813301962 0.208343945 0.0207681192
v -0.0813301962 0.224944408 0.0207681192
v -0.0797360204 0.224944408 0.0265414714
v -0.0797360204 0.208343945 0.0265414714
v -0.0779038252 0.224944408 0.0319993096
v -0.0779038252 0.208343945 0.0319993096
v -0.0757616513 0.208343945 0.0377283791
v -0.0757616513 0.224944408 0.0377283791
v -0.0732596809 0.224944408 0.0430589047
v -0.0732596809 0.208343945 0.0430589047
v -0.0705362971 0.208343945 0.0479964216
v -0.0705362971 0.224944408 0.0479964216
v -0.067990044 0.224944408 0.0522530926
v -0.067990044 0.208343945 0.0522530926
v -0.0643090476 0.224944408 0.0576721835
v -0.0643090476 0.208343945 0.0576721835
v -0.0606557279 0.208343945 0.0619233191
v -0.0606557279 0.224944408 0.0619233191
v -0.055950695 0.224944408 0.0665397868
v -0.055950695 0.208343945 0.0665397868
v -0.0516165293 0.208343945 0.0707577104
v -0.0516165293 0.224944408 0.0707577104
v -0.0481126636 0.224944408 0.0736692955
v -0.0481126636 0.208343945 0.0736692955
v -0.0457158645 0.224944408 0.0766417693
v -0.0457158645 0.208343945 0.0766417693
v -0.0460092371 0.208343945 0.0781197032
v -0.0460092371 0.224944408 0.0781197032
v -0.047022203 0.224944408 0.0821771022
v -0.047022203 0.208343945 0.0821771022
v -0.0485167429 0.208343945 0.0884154223
v -0.0485167429 0.224944408 0.0884154223
v -0.0493525782 0.224944408 0.0947533785
v -0.0493525782 0.208343945 0.0947533785
v -0.0494798908 0.224944408 0.101102405
v -0.0494798908 0.208343945 0.101102405
v -0.0482953296 0.208343945 0.108093531
v -0.0482953296 0.224944408 0.108093531
v -0.0445645152 0.224944408 0.114442558
v -0.0445645152 0.208343945 0.114442558
v -0.0392450603 0.208343945 0.11897046
v -0.0392450603 0.224944408 0.11897046
v -0.0328683568 0.224944408 0.119955749
v -0.0328683568 0.208343945 0.119955749
v -0.0265636127 0.224944408 0.119130984
v -0.0265636127 0.208343945 0.119130984
v -0.0205356352 0.208343945 0.117403961
v -0.0205356352 0.224944408 0.117403961
v -0.0151497563 0.224944408 0.114448093
v -0.0151497563 0.208343945 0.114448093
v -0.0103672287 0.208343945 0.110717278
v -0.0103672287 0.224944408 0.110717278
v -0.00605520436 0.224944408 0.10650489
v -0.00605520436 0.208343945 0.10650489
v -0.00203101735 0.224944408 0.101960382
v -0.00203101735 0.208343945 0.101960382
v 0.00184371566 0.208343945 0.0971944603
v 0.00184371566 0.224944408 0.0971944603
v 0.00576826668 0.224944408 0.0924230033
v 0.00576826668 0.208343945 0.0924230033
v 0.010146715 0.208343945 0.0880833023
v 0.010146715 0.224944408 0.088077767
v 0.0154938466 0.224944408 0.0850610106
v 0.0154938466 0.208343945 0.0850610106
v 0.0213945114 0.208343945 0.0856034732
v 0.0213945114 0.224944408 0.0856034732
v 0.026907703 0.224944408 0.0883379277
v 0.026907703 0.208343945 0.0883379277
v 0.0322160872 0.208343945 0.0914211081
v 0.0322160872 0.224944408 0.0914211081
v 0.0375908954 0.224944408 0.0945042885
v 0.0375908954 0.208343945 0.0945042885
v 0.0430099863 0.224944408 0.0974601562
v 0.0430099863 0.208343945 0.0974601562
v 0.0485176425 0.208343945 0.100166934
v 0.0485176425 0.224944408 0.100166934
v 0.0541083287 0.224944408 0.102464097
v 0.0541083287 0.208343945 0.102464097
v 0.0598761456 0.208343945 0.10425201
v 0.0598761456 0.224944408 0.10425201
v 0.0658432344 0.224944408 0.105209622
v 0.0658432344 0.208343945 0.105209622
v 0.0718822826 0.224944408 0.104534312
v 0.0718822826 0.208343945 0.104534312
v 0.0775006455 0.208343945 0.101971453
v 0.0775006455 0.224944408 0.101971453
v 0.0818348111 0.224944408 0.0973328436
v 0.0818348111 0.208343945 0.0973328436
v 0.0843755289 0.208343945 0.0911222001
v 0.0843755289 0.224944408 0.0911222001
v 0.0850453042 0.224944408 0.084103398
v 0.0850453042 0.208343945 0.084103398
v 0.0836227237 0.224944408 0.0771122726
v 0.0836227237 0.208343945 0.0771122726
v 0.0810211172 0.208343945 0.0707466398
v 0.0810211172 0.224944408 0.0707466398
v 0.0779434721 0.224944408 0.0647408036
v 0.0779434721 0.208343945 0.0647408036
v 0.075148129 0.208343945 0.0593715307
v 0.075148129 0.224944408 0.0593715307
v 0.0730059552 0.224944408 0.055734817
v 0.0730059552 0.208343945 0.055734817
v 0.0722697559 0.224944408 0.0546997097
v 0.0722697559 0.208343945 0.0546997097
v 0.0737753665 0.208343945 0.0502548374
v 0.0737753665 0.224944408 0.0502548374
v 0.0762718016 0.224944408 0.0452010785
v 0.0762718016 0.208343945 0.0452010785
v 0.0789010847 0.208343945 0.0394830796
v 0.0789010847 0.224944408 0.0394830796
v 0.0806115026 0.224944408 0.0345455627
v 0.0806115026 0.208343945 0.0345455627
v 0.0820008711 0.224944408 0.0290932598
v 0.0820008711 0.208343945 0.0290932598
v 0.0829418777 0.208343945 0.0240505716
v 0.0829418777 0.224944408 0.0240505716
v 0.0834234517 0.224944408 0.0180779474
v 0.0834234517 0.208343945 0.0180779474
v 0.0836670063 0.208343945 0.0120112225
v 0.0836670063 0.224944408 0.0120112225
v 0.0835009463 0.224944408 0.00448316982
v 0.0835009463 0.208343945 0.00448316982
v 0.0829197364 0.208343945 -0.000266145793
v 0.0829197364 0.224944408 -0.000266145793
v 0.0822721024 0.224944408 -0.00607824532
v 0.0822721024 0.208343945 -0.00607824532
v 0.0814473378 0.208343945 -0.0120397988
v 0.0814473378 0.224944408 -0.0120397988
v 0.0806447146 0.224944408 -0.0172097997
v 0.0806447146 0.208343945 -0.0172097997
v 0.0793328407 0.224944408 -0.0228392333
v 0.0793328407 0.208343945 -0.0228392333
v 0.0777386648 0.208343945 -0.0275830136
v 0.0777386648 0.224944408 -0.0275830136
v 0.075214553 0.224944408 -0.0338047277
v 0.075214553 0.208343945 -0.0338047277
v 0.0732882572 0.208343945 -0.0389249106
v 0.0732882572 0.224944408 -0.0389249106
v 0.0731332679 0.224944408 -0.0391518593
v 0.0731332679 0.208343945 -0.0391518593
v 0.0767755169 0.208343945 -0.0415154464
v 0.0767755169 0.224944408 -0.0415154464
v 0.0816576805 0.224944408 -0.0456281988
v 0.0816576805 0.208343945 -0.0456281988
v 0.0853774242 0.208343945 -0.050322161
v 0.0853774242 0.224944408 -0.050322161
v 0.0885547053 0.224944408 -0.0560069479
v 0.0885547053 0.208343945 -0.0560069479
v 0.0906581318 0.224944408 -0.0625552467
v 0.0906581318 0.208343945 -0.0625552467
v 0.091610209 0.208343945 -0.0693471002
v 0.091610209 0.224944408 -0.0693471002
v 0.0922855196 0.224944408 -0.0757514803
v 0.0922855196 0.208343945 -0.0757514803
v 0.0925290743 0.208343945 -0.0820174771
v 0.0925290743 0.224944408 -0.0820174771
v 0.091875905 0.224944408 -0.0880897373
v 0.091875905 0.208343945 -0.0880897373
v 0.0907854444 0.224944408 -0.0938630895
v 0.0907854444 0.208343945 -0.0938630895
v 0.0889311079 0.208343945 -0.099509129
v 0.0889311079 0.224944408 -0.099509129
v 0.0862298655 0.224944408 -0.105121957
v 0.0862298655 0.208343945 -0.105121957
v 0.083345957 0.208343945 -0.110092686
v 0.083345957 0.224944408 -0.110092686
v 0.0801520699 0.224944408 -0.115030202
v 0.0801520699 0.208343945 -0.115030202
v 0.0761168123 0.224944408 -0.120266627
v 0.0761168123 0.208343945 -0.120266627
v 0.0717272933 0.208343945 -0.124584187
v 0.0717272933 0.224944408 -0.124584187
v 0.0667454937 0.224944408 -0.128104659
v 0.0667454937 0.208343945 -0.128104659
v 0.0613042615 0.208343945 -0.13104392
v 0.0613042615 0.224944408 -0.13104392
v 0.0553537786 0.224944408 -0.133529285
v 0.0553537786 0.208343945 -0.133529285
v 0.0494199018 0.224944408 -0.135771095
v 0.0494199018 0.208343945 -0.135771095
v 0.0438236802 0.208343945 -0.137016545
v 0.0438236802 0.224944408 -0.137016545
v 0.0385429727 0.224944408 -0.137597755
v 0.0385429727 0.208343945 -0.137597755
v 0.0322880465 0.208343945 -0.137509189
v 0.0322880465 0.224944408 -0.137509189
v 0.0261825743 0.224944408 -0.136867091
v 0.0261825743 0.208343945 -0.136867091
v 0.0201047788 0.224944408 -0.13519542
v 0.0201047788 0.208343945 -0.13519542
v 0.0137834287 0.208343945 -0.132477572
v 0.0137834287 0.224944408 -0.132477572
v 0.0079104405 0.224944408 -0.129311361
v 0.0079104405 0.208343945 -0.129311361
v 0.00295631757 0.208343945 -0.125752142
v 0.00295631757 0.224944408 -0.125752142
v -0.00156604939 0.224944408 -0.121766703
v -0.00156604939 0.208343945 -0.121766703
v -0.00567880172 0.224944408 -0.117305224
v -0.00567880172 0.208343945 -0.117305224
v -0.00953139341 0.208343945 -0.112937847
v -0.00953139341 0.224944408 -0.112937847
v -0.0129190171 0.224944408 -0.10849851
v -0.0129190171 0.208343945 -0.10849851
v -0.0152992103 0.208343945 -0.103466892
v -0.0152992103 0.224944408 -0.103466892
v -0.0169265981 0.224944408 -0.0994039577
v -0.0169265981 0.208343945 -0.0994039577
v -0.0169265981 0.224944408 -0.0994039577
v -0.0167051848 0.225160286 -0.0951417514
v -0.0192735793 0.224944408 -0.0985404458
v -0.0784573585 0.208128067 -0.0166285898
v -0.0844133766 0.225160286 -0.0169108918
v -0.0844133766 0.208128067 -0.0169108918
v -0.0902088702 0.208128067 -0.0183722197
v -0.0902088702 0.225160286 -0.0183722197
v -0.0956445671 0.225160286 -0.0208963314
v -0.0956445671 0.208128067 -0.0208963314
v -0.10051566 0.208128067 -0.0243669852
v -0.10051566 0.225160286 -0.0243669852
v -0.104694836 0.225160286 -0.0286291915
v -0.104694836 0.208128067 -0.0286291915
v -0.108198702 0.208128067 -0.0335390317
v -0.108198702 0.225160286 -0.0335390317
v -0.111149034 0.208128067 -0.0387754567
v -0.111149034 0.225160286 -0.0387754567
v -0.113651005 0.225160286 -0.0442111535
v -0.113651005 0.208128067 -0.0442111535
v -0.115627119 0.208128067 -0.0498627284
v -0.115627119 0.225160286 -0.0498627284
v -0.117010952 0.225160286 -0.0556914339
v -0.117010952 0.208128067 -0.0556914339
v -0.11772501 0.208128067 -0.0616363815
v -0.11772501 0.225160286 -0.0616363815
v -0.117813575 0.208128067 -0.0676200763
v -0.117813575 0.225160286 -0.0676200763
v -0.117210224 0.225160286 -0.0735373472
v -0.117210224 0.208128067 -0.0735373472
v -0.115588371 0.208128067 -0.0792996287
v -0.115588371 0.225160286 -0.0792996287
v -0.113374238 0.225160286 -0.0848571029
v -0.113374238 0.208128067 -0.0848571029
v -0.110595501 0.208128067 -0.0901654871
v -0.110595501 0.225160286 -0.0901654871
v -0.107224483 0.208128067 -0.0951196101
v -0.107224483 0.225160286 -0.0951196101
v -0.103227973 0.225160286 -0.0995810884
v -0.103227973 0.208128067 -0.0995810884
v -0.0988439895 0.208128067 -0.103666164
v -0.0988439895 0.225160286 -0.103666164
v -0.0942607338 0.225160286 -0.107535362
v -0.0942607338 0.208128067 -0.107535362
v -0.0893564289 0.208128067 -0.110961733
v -0.0893564289 0.225160286 -0.110961733
v -0.0840480447 0.208128067 -0.113718329
v -0.0840480447 0.225160286 -0.113718329
v -0.0783964698 0.225160286 -0.115666766
v -0.0783964698 0.208128067 -0.115666766
v -0.0725234816 0.208128067 -0.116879004
v -0.0725234816 0.225160286 -0.116879004
v -0.0665729988 0.225160286 -0.117515567
v -0.0665729988 0.208128067 -0.117515567
v -0.0605726979 0.208128067 -0.117432537
v -0.0605726979 0.225160286 -0.117432537
v -0.0546609624 0.208128067 -0.11648046
v -0.0546609624 0.225160286 -0.11648046
v -0.0489263575 0.225160286 -0.114753436
v -0.0489263575 0.208128067 -0.114753436
v -0.0434353073 0.208128067 -0.112389849
v -0.0434353073 0.225160286 -0.112389849
v -0.0381878117 0.225160286 -0.109456122
v -0.0381878117 0.208128067 -0.109456122
v -0.0332613655 0.208128067 -0.106035287
v -0.0332613655 0.225160286 -0.106035287
v -0.0287389985 0.208128067 -0.102160553
v -0.0287389985 0.225160286 -0.102160553
v -0.0245487515 0.225160286 -0.0978817412
v -0.0245487515 0.208128067 -0.0978817412
v -0.0204138579 0.208128067 -0.0949314087
v -0.0204138579 0.225160286 -0.0949314087
v -0.0827195648 0.208343945 -0.0133073901
v -0.087978131 0.208343945 -0.0136837927
v -0.087978131 0.224944408 -0.0136837927
v -0.0937902305 0.208343945 -0.0154329579
v -0.0937902305 0.224944408 -0.0154329579
v -0.0997241074 0.224944408 -0.0184054316
v -0.0997241074 0.208343945 -0.0184054316
v -0.104490029 0.208343945 -0.0225956786
v -0.104490029 0.224944408 -0.0225956786
v -0.108918295 0.224944408 -0.0276328316
v -0.108918295 0.208343945 -0.0276328316
v -0.112278242 0.208343945 -0.0331626291
v -0.112278242 0.224944408 -0.0331626291
v -0.115422311 0.208343945 -0.0391186473
v -0.115422311 0.224944408 -0.0391186473
v -0.117669657 0.224944408 -0.0447204042
v -0.117669657 0.208343945 -0.0447204042
v -0.119662376 0.208343945 -0.0512631676
v -0.119662376 0.224944408 -0.0512631676
v -0.120852473 0.224944408 -0.0575457705
v -0.120852473 0.208343945 -0.0575457705
v -0.121494572 0.208343945 -0.0637619493
v -0.121494572 0.224944408 -0.0637619493
v -0.121096028 0.208343945 -0.0695961901
v -0.121096028 0.224944408 -0.0695961901
v -0.12031001 0.224944408 -0.0757736216
v -0.12031001 0.208343945 -0.0757736216
v -0.11863834 0.208343945 -0.0817130338
v -0.11863834 0.224944408 -0.0817130338
v -0.116357783 0.224944408 -0.087436568
v -0.116357783 0.208343945 -0.087436568
v -0.113496016 0.208343945 -0.0929054769
v -0.113496016 0.224944408 -0.0929054769
v -0.110019827 0.208343945 -0.0980090538
v -0.110019827 0.224944408 -0.0980090538
v -0.105907074 0.224944408 -0.10260338
v -0.105907074 0.208343945 -0.10260338
v -0.101390243 0.208343945 -0.106815768
v -0.101390243 0.224944408 -0.106815768
v -0.0966686036 0.224944408 -0.110795673
v -0.0966686036 0.208343945 -0.110795673
v -0.0916148447 0.208343945 -0.114327215
v -0.0916148447 0.224944408 -0.114327215
v -0.0861514712 0.208343945 -0.117166841
v -0.0861514712 0.224944408 -0.117166841
v -0.0803227656 0.224944408 -0.119176167
v -0.0803227656 0.208343945 -0.119176167
v -0.0742726468 0.208343945 -0.120427152
v -0.0742726468 0.224944408 -0.120427152
v -0.0681450333 0.224944408 -0.121080321
v -0.0681450333 0.208343945 -0.121080321
v -0.0619620665 0.208343945 -0.120997291
v -0.0619620665 0.224944408 -0.120997291
v -0.0558732003 0.208343945 -0.120012002
v -0.0558732003 0.224944408 -0.120012002
v -0.0499670001 0.224944408 -0.11823516
v -0.0499670001 0.208343945 -0.11823516
v -0.0443043546 0.208343945 -0.115799614
v -0.0443043546 0.224944408 -0.115799614
v -0.0389461523 0.224944408 -0.112865887
v -0.0389461523 0.208343945 -0.112865887
v -0.0342023721 0.208343945 -0.109998585
v -0.0342023721 0.224944408 -0.109998585
v -0.0300453371 0.208343945 -0.107009505
v -0.0300453371 0.224944408 -0.107009505
v -0.0261595334 0.224944408 -0.103466892
v -0.0261595334 0.208343945 -0.103466892
v -0.0220910637 0.208343945 -0.099542341
v -0.0220910637 0.224944408 -0.099542341
v -0.0220910637 0.208343945 -0.099542341
v -0.0192735793 0.224944408 -0.0985404458
v -0.0220910637 0.224944408 -0.099542341
v -0.0192735793 0.208343945 -0.0985404458
v -0.0169265981 0.224944408 -0.0994039577
v -0.0169265981 0.208343945 -0.0994039577
v -0.0139541244 0.225160286 -0.0977765698
v -0.0139541244 0.208128067 -0.0977765698
v -0.0167051848 0.208128067 -0.0951417514
v -0.0167051848 0.225160286 -0.0951417514
v -0.0204138579 0.208128067 -0.0949314087
v -0.0204138579 0.225160286 -0.0949314087
v -0.0167051848 0.225160286 -0.0951417514
v -0.0167051848 0.208128067 -0.0951417514
v -0.0169265981 0.224944408 -0.0994039577
v -0.0139541244 0.225160286 -0.0977765698
v -0.0167051848 0.225160286 -0.0951417514
v -0.0152992103 0.224944408 -0.103466892
v -0.0120278285 0.225160286 -0.103428145
v -0.0129190171 0.224944408 -0.10849851
v -0.00923248543 0.225160286 -0.108725458
v -0.00953139341 0.224944408 -0.112937847
v -0.00585593237 0.225160286 -0.113690652
v -0.00567880172 0.224944408 -0.117305224
v -0.00193691669 0.225160286 -0.118213019
v -0.00156604939 0.224944408 -0.121766703
v 0.00249134961 0.225160286 -0.122248277
v 0.00295631757 0.224944408 -0.125752142
v 0.00735690721 0.225160286 -0.125735536
v 0.0079104405 0.224944408 -0.129311361
v 0.0125767261 0.225160286 -0.128669263
v 0.0137834287 0.224944408 -0.132477572
v 0.018012423 0.225160286 -0.131171233
v 0.0201047788 0.224944408 -0.13519542
v 0.0236584626 0.225160286 -0.133141812
v 0.0261825743 0.224944408 -0.136867091
v 0.0295369861 0.225160286 -0.13428209
v 0.0322880465 0.224944408 -0.137509189
v 0.0355096103 0.225160286 -0.13452011
v 0.0385429727 0.224944408 -0.137597755
v 0.0414766991 0.225160286 -0.133961041
v 0.0438236802 0.224944408 -0.137016545
v 0.0494199018 0.224944408 -0.135771095
v 0.0473662933 0.225160286 -0.132770944
v 0.0553537786 0.224944408 -0.133529285
v 0.0531175042 0.225160286 -0.131071597
v 0.0613042615 0.224944408 -0.13104392
v 0.0586749784 0.225160286 -0.128840858
v 0.0667454937 0.224944408 -0.128104659
v 0.0639612213 0.225160286 -0.126062121
v 0.0717272933 0.224944408 -0.124584187
v 0.0689208795 0.225160286 -0.12271878
v 0.0761168123 0.224944408 -0.120266627
v 0.0731996918 0.225160286 -0.118545139
v 0.0801520699 0.224944408 -0.115030202
v 0.0769471122 0.225160286 -0.113862247
v 0.083345957 0.224944408 -0.110092686
v 0.0802572413 0.225160286 -0.108885983
v 0.0862298655 0.224944408 -0.105121957
v 0.0831577557 0.225160286 -0.103644023
v 0.0889311079 0.224944408 -0.099509129
v 0.0856541908 0.225160286 -0.0981917198
v 0.0907854444 0.224944408 -0.0938630895
v 0.087619234 0.225160286 -0.0925290743
v 0.091875905 0.224944408 -0.0880897373
v 0.0886598766 0.225160286 -0.0866284094
v 0.0925290743 0.224944408 -0.0820174771
v 0.0889034312 0.225160286 -0.0806391792
v 0.0922855196 0.224944408 -0.0757514803
v 0.0885048873 0.225160286 -0.0746610197
v 0.091610209 0.224944408 -0.0693471002
v 0.0875804867 0.225160286 -0.0687326782
v 0.0906581318 0.224944408 -0.0625552467
v 0.0861966535 0.225160286 -0.0629150434
v 0.0885547053 0.224944408 -0.0560069479
v 0.0842980343 0.225160286 -0.0571970445
v 0.0853774242 0.224944408 -0.050322161
v 0.0814418025 0.225160286 -0.0520049022
v 0.0816576805 0.224944408 -0.0456281988
v 0.0777442001 0.225160286 -0.047294334
v 0.0767755169 0.224944408 -0.0415154464
v 0.0731830858 0.225160286 -0.0434251363
v 0.0731332679 0.224944408 -0.0391518593
v 0.0678027423 0.225160286 -0.0409508425
v 0.0732882572 0.224944408 -0.0389249106
v 0.0679521963 0.225160286 -0.0407349645
v 0.075214553 0.224944408 -0.0338047277
v 0.071240184 0.225160286 -0.035039107
v 0.0777386648 0.224944408 -0.0275830136
v 0.0736093065 0.225160286 -0.0295369861
v 0.0793328407 0.224944408 -0.0228392333
v 0.075463643 0.225160286 -0.0238411285
v 0.0806447146 0.224944408 -0.0172097997
v 0.0769139002 0.225160286 -0.0180345643
v 0.0814473378 0.224944408 -0.0120397988
v 0.0780652495 0.225160286 -0.0121505055
v 0.0822721024 0.224944408 -0.00607824532
v 0.0790007207 0.225160286 -0.00623323464
v 0.0829197364 0.224944408 -0.000266145793
v 0.0798088793 0.225160286 -0.00029935779
v 0.0835009463 0.224944408 0.00448316982
v 0.0804011599 0.225160286 0.00437246316
v 0.0836670063 0.224944408 0.0120112225
v 0.0803900893 0.225160286 0.0116791026
v 0.0834234517 0.224944408 0.0180779474
v 0.0801133226 0.225160286 0.0176517267
v 0.0829418777 0.224944408 0.0240505716
v 0.0794269413 0.225160286 0.0235911389
v 0.0820008711 0.224944408 0.0290932598
v 0.0781704208 0.225160286 0.0294309151
v 0.0806115026 0.224944408 0.0345455627
v 0.0763492963 0.225160286 0.0351267727
v 0.0789010847 0.224944408 0.0394830796
v 0.0740687391 0.225160286 0.0406621055
v 0.0762718016 0.224944408 0.0452010785
v 0.0714782033 0.225160286 0.0460645904
v 0.0737753665 0.224944408 0.0502548374
v 0.0687105369 0.225160286 0.051361904
v 0.0722697559 0.224944408 0.0546997097
v 0.0662196371 0.225160286 0.0559064123
v 0.0730059552 0.224944408 0.055734817
v 0.0669281597 0.225160286 0.0569138429
v 0.075148129 0.224944408 0.0593715307
v 0.0705095201 0.225160286 0.0621170558
v 0.0779434721 0.224944408 0.0647408036
v 0.0737975078 0.225160286 0.067159744
v 0.0810211172 0.224944408 0.0707466398
v 0.0768751529 0.225160286 0.0722743916
v 0.0836227237 0.224944408 0.0771122726
v 0.079620678 0.225160286 0.0775938465
v 0.0850453042 0.224944408 0.084103398
v 0.0814694792 0.225160286 0.0832509567
v 0.0843755289 0.224944408 0.0911222001
v 0.0811761065 0.225160286 0.0891903689
v 0.0818348111 0.224944408 0.0973328436
v 0.078923226 0.225160286 0.0947090958
v 0.0775006455 0.224944408 0.101971453
v 0.0747827971 0.225160286 0.0989823728
v 0.0718822826 0.224944408 0.104534312
v 0.0693083528 0.225160286 0.101323819
v 0.0658432344 0.224944408 0.105209622
v 0.0633800113 0.225160286 0.101766645
v 0.0598761456 0.224944408 0.10425201
v 0.0575070231 0.225160286 0.100559943
v 0.0541083287 0.224944408 0.102464097
v 0.0518388423 0.225160286 0.0985616875
v 0.0485176425 0.224944408 0.100166934
v 0.0463588627 0.225160286 0.096142747
v 0.0430099863 0.224944408 0.0974601562
v 0.0409895898 0.225160286 0.0934470399
v 0.0375908954 0.224944408 0.0945042885
v 0.0357310236 0.225160286 0.0905797375
v 0.0322160872 0.224944408 0.0914211081
v 0.0305112047 0.225160286 0.0875851224
v 0.026907703 0.224944408 0.0883379277
v 0.0253633451 0.225160286 0.0845905073
v 0.0213945114 0.224944408 0.0856034732
v 0.0200051429 0.225160286 0.0819335475
v 0.0154938466 0.224944408 0.0850610106
v 0.0142816087 0.225160286 0.0814132262
v 0.010146715 0.224944408 0.088077767
v 0.00908946641 0.225160286 0.0843414173
v 0.00576826668 0.224944408 0.0924230033
v 0.00483833075 0.225160286 0.088559341
v 0.00184371566 0.224944408 0.0971944603
v 0.00103002173 0.225160286 0.0931924146
v -0.00203101735 0.224944408 0.101960382
v -0.0027118633 0.225160286 0.0978808415
v -0.00605520436 0.224944408 0.10650489
v -0.00656445498 0.225160286 0.102480703
v -0.0103672287 0.224944408 0.110717278
v -0.0106772073 0.225160286 0.10683701
v -0.0151497563 0.224944408 0.114448093
v -0.0151995743 0.225160286 0.110761561
v -0.0205356352 0.224944408 0.117403961
v -0.0202810099 0.225160286 0.113922236
v -0.0265636127 0.224944408 0.119130984
v -0.0259491907 0.225160286 0.115859603
v -0.0328683568 0.224944408 0.119955749
v -0.0318719969 0.225160286 0.116844892
v -0.0392450603 0.224944408 0.11897046
v -0.0377560558 0.225160286 0.116136369
v -0.0445645152 0.224944408 0.114442558
v -0.0422396754 0.225160286 0.112333596
v -0.0482953296 0.224944408 0.108093531
v -0.0449021705 0.225160286 0.107014141
v -0.0494798908 0.224944408 0.101102405
v -0.0454723098 0.225160286 0.101058123
v -0.0493525782 0.224944408 0.0947533785
v -0.0451180485 0.225160286 0.0950578218
v -0.0485167429 0.224944408 0.0884154223
v -0.0442600719 0.225160286 0.0891239449
v -0.047022203 0.224944408 0.0821771022
v -0.0429537334 0.225160286 0.0832786334
v -0.0460092371 0.224944408 0.0781197032
v -0.0409831548 0.225160286 0.0776270585
v -0.0457158645 0.224944408 0.0766417693
v -0.0402690969 0.225160286 0.0763151846
v -0.0481126636 0.224944408 0.0736692955
v -0.0440165173 0.225160286 0.0736028715
v -0.0516165293 0.224944408 0.0707577104
v -0.0486938735 0.225160286 0.0698388452
v -0.055950695 0.224944408 0.0665397868
v -0.0531110692 0.225160286 0.0658091228
v -0.0606557279 0.224944408 0.0619233191
v -0.0572625689 0.225160286 0.0614804925
v -0.0643090476 0.224944408 0.0576721835
v -0.0610874839 0.225160286 0.0568917015
v -0.067990044 0.224944408 0.0522530926
v -0.0645802789 0.225160286 0.0520150733
v -0.0705362971 0.224944408 0.0479964216
v -0.067691136 0.225160286 0.0468948904
v -0.0732596809 0.224944408 0.0430589047
v -0.0704200551 0.225160286 0.0415588295
v -0.0757616513 0.224944408 0.0377283791
v -0.0727670363 0.225160286 0.0360511732
v -0.0779038252 0.224944408 0.0319993096
v -0.0747985034 0.225160286 0.0304217397
v -0.0797360204 0.224944408 0.0265414714
v -0.0767580113 0.225160286 0.0247646295
v -0.0813301962 0.224944408 0.0207681192
v -0.0784352171 0.225160286 0.019018954
v -0.0827859888 0.224944408 0.0146183643
v -0.079481395 0.225160286 0.0131404304
v -0.0834446934 0.224944408 0.0087564468
v -0.0800404637 0.225160286 0.0071899476
v -0.0835554 0.224944408 0.00520276309
v -0.080278483 0.225160286 0.00337056791
v -0.0836661067 0.224944408 0.00328200258
v -0.080394725 0.225160286 0.00117304076
v -0.0836439654 0.224944408 -0.00169979701
v -0.0803006243 0.225160286 -0.00481618942
v -0.0832232801 0.224944408 -0.00691408058
v -0.0796529904 0.225160286 -0.0107666723
v -0.0827195648 0.224944408 -0.0133073901
v -0.0784573585 0.225160286 -0.0166285898
v -0.0167051848 0.225160286 -0.0951417514
v -0.0204138579 0.225160286 -0.0949314087
v -0.0192735793 0.224944408 -0.0985404458
v -0.0245487515 0.225160286 -0.0978817412
v -0.0220910637 0.224944408 -0.099542341
v -0.0261595334 0.224944408 -0.103466892
v -0.0287389985 0.225160286 -0.102160553
v -0.0300453371 0.224944408 -0.107009505
v -0.0332613655 0.225160286 -0.106035287
v -0.0342023721 0.224944408 -0.109998585
v -0.0381878117 0.225160286 -0.109456122
v -0.0389461523 0.224944408 -0.112865887
v -0.0434353073 0.225160286 -0.112389849
v -0.0443043546 0.224944408 -0.115799614
v -0.0489263575 0.225160286 -0.114753436
v -0.0499670001 0.224944408 -0.11823516
v -0.0546609624 0.225160286 -0.11648046
v -0.0558732003 0.224944408 -0.120012002
v -0.0605726979 0.225160286 -0.117432537
v -0.0619620665 0.224944408 -0.120997291
v -0.0665729988 0.225160286 -0.117515567
v -0.0681450333 0.224944408 -0.121080321
v -0.0725234816 0.225160286 -0.116879004
v -0.0742726468 0.224944408 -0.120427152
v -0.0783964698 0.225160286 -0.115666766
v -0.0803227656 0.224944408 -0.119176167
v -0.0840480447 0.225160286 -0.113718329
v -0.0861514712 0.224944408 -0.117166841
v -0.0893564289 0.225160286 -0.110961733
v -0.0916148447 0.224944408 -0.114327215
v -0.0942607338 0.225160286 -0.107535362
v -0.0966686036 0.224944408 -0.110795673
v -0.0988439895 0.225160286 -0.103666164
v -0.101390243 0.224944408 -0.106815768
v -0.103227973 0.225160286 -0.0995810884
v -0.105907074 0.224944408 -0.10260338
v -0.107224483 0.225160286 -0.0951196101
v -0.110019827 0.224944408 -0.0980090538
v -0.110595501 0.225160286 -0.0901654871
v -0.113496016 0.224944408 -0.0929054769
v -0.113374238 0.225160286 -0.0848571029
v -0.116357783 0.224944408 -0.087436568
v -0.115588371 0.225160286 -0.0792996287
v -0.11863834 0.224944408 -0.0817130338
v -0.117210224 0.225160286 -0.0735373472
v -0.12031001 0.224944408 -0.0757736216
v -0.117813575 0.225160286 -0.0676200763
v -0.121096028 0.224944408 -0.0695961901
v -0.11772501 0.225160286 -0.0616363815
v -0.121494572 0.224944408 -0.0637619493
v -0.117010952 0.225160286 -0.0556914339
v -0.120852473 0.224944408 -0.0575457705
v -0.115627119 0.225160286 -0.0498627284
v -0.119662376 0.224944408 -0.0512631676
v -0.113651005 0.225160286 -0.0442111535
v -0.117669657 0.224944408 -0.0447204042
v -0.111149034 0.225160286 -0.0387754567
v -0.115422311 0.224944408 -0.0391186473
v -0.108198702 0.225160286 -0.0335390317
v -0.112278242 0.224944408 -0.0331626291
v -0.104694836 0.225160286 -0.0286291915
v -0.108918295 0.224944408 -0.0276328316
v -0.10051566 0.225160286 -0.0243669852
v -0.104490029 0.224944408 -0.0225956786
v -0.0956445671 0.225160286 -0.0208963314
v -0.0997241074 0.224944408 -0.0184054316
v -0.0902088702 0.225160286 -0.0183722197
v -0.0937902305 0.224944408 -0.0154329579
v -0.0844133766 0.225160286 -0.0169108918
v -0.087978131 0.224944408 -0.0136837927
v -0.0784573585 0.225160286 -0.0166285898
v -0.0827195648 0.224944408 -0.0133073901
vt 0 1
vt 0.500488759 0
vt 0.0127077224 0
vt 0.500488759 0
vt 0.982404692 1
vt 0.982404692 0
vt 0.500488759 0
vt 1 1
vt 0.982404692 1
vt 0.973607038 1
vt 0.982404692 0
vt 0.973607038 0
vt 0.966764418 0
vt 0.966764418 1
vt 0.963831867 0
vt 0.963831867 1
vt 0.960899316 1
vt 0.960899316 0
vt 0.954056696 0
vt 0.954056696 1
vt 0.946236559 1
vt 0.946236559 0
vt 0.937438905 0
vt 0.937438905 1
vt 0.930596285 0
vt 0.930596285 1
vt 0.9257087 1
vt 0.9257087 0
vt 0.920821114 0
vt 0.920821114 1
vt 0.915933529 1
vt 0.915933529 0
vt 0.91202346 0
vt 0.91202346 1
vt 0.908113392 0
vt 0.908113392 1
vt 0.904203324 1
vt 0.904203324 0
vt 0.901270772 0
vt 0.901270772 1
vt 0.898338221 1
vt 0.898338221 0
vt 0.89540567 0
vt 0.89540567 1
vt 0.892473118 0
vt 0.892473118 1
vt 0.890518084 1
vt 0.890518084 0
vt 0.883675464 0
vt 0.883675464 1
vt 0.877810362 1
vt 0.877810362 0
vt 0.872922776 0
vt 0.872922776 1
vt 0.867057674 0
vt 0.867057674 1
vt 0.860215054 1
vt 0.860215054 0
vt 0.849462366 0
vt 0.849462366 1
vt 0.83773216 1
vt 0.83773216 0
vt 0.828934506 0
vt 0.828934506 1
vt 0.823069404 0
vt 0.823069404 1
vt 0.818181818 1
vt 0.818181818 0
vt 0.81427175 0
vt 0.81427175 1
vt 0.810361681 1
vt 0.810361681 0
vt 0.805474096 0
vt 0.805474096 1
vt 0.801564027 0
vt 0.801564027 1
vt 0.797653959 1
vt 0.797653959 0
vt 0.792766373 0
vt 0.792766373 1
vt 0.786901271 1
vt 0.786901271 0
vt 0.778103617 0
vt 0.778103617 1
vt 0.760508309 1
vt 0.760508309 0
vt 0.744868035 0
vt 0.744868035 1
vt 0.73998045 1
vt 0.73998045 0
vt 0.736070381 0
vt 0.736070381 1
vt 0.732160313 0
vt 0.732160313 1
vt 0.728250244 1
vt 0.728250244 0
vt 0.725317693 0
vt 0.725317693 1
vt 0.721407625 1
vt 0.721407625 0
vt 0.716520039 0
vt 0.716520039 1
vt 0.711632454 0
vt 0.711632454 1
vt 0.704789834 1
vt 0.704789834 0
vt 0.696969697 0
vt 0.696969697 1
vt 0.687194526 1
vt 0.687194526 0
vt 0.669599218 0
vt 0.669599218 1
vt 0.659824047 0
vt 0.659824047 1
vt 0.653958944 1
vt 0.653958944 0
vt 0.650048876 0
vt 0.650048876 1
vt 0.646138807 1
vt 0.646138807 0
vt 0.643206256 0
vt 0.643206256 1
vt 0.643206256 0
vt 0.643206256 1
vt 0.640273705 1
vt 0.640273705 0
vt 0.637341153 0
vt 0.637341153 1
vt 0.633431085 1
vt 0.633431085 0
vt 0.629521017 0
vt 0.629521017 1
vt 0.624633431 0
vt 0.624633431 1
vt 0.620723363 1
vt 0.620723363 0
vt 0.615835777 0
vt 0.615835777 1
vt 0.611925709 1
vt 0.611925709 0
vt 0.607038123 1
vt 0.607038123 0
vt 0.604105572 1
vt 0.604105572 0
vt 0.599217986 0
vt 0.599217986 1
vt 0.595307918 1
vt 0.595307918 0
vt 0.590420332 0
vt 0.590420332 1
vt 0.586510264 0
vt 0.586510264 1
vt 0.581622678 1
vt 0.581622678 0
vt 0.576735093 0
vt 0.576735093 1
vt 0.571847507 1
vt 0.571847507 0
vt 0.571847507 0
vt 0.571847507 1
vt 0.56402737 1
vt 0.56402737 0
vt 0.556207234 0
vt 0.556207234 1
vt 0.546432063 1
vt 0.546432063 0
vt 0.53372434 0
vt 0.53372434 1
vt 0.525904203 0
vt 0.525904203 1
vt 0.520039101 1
vt 0.520039101 0
vt 0.515151515 0
vt 0.515151515 1
vt 0.511241447 1
vt 0.511241447 0
vt 0.506353861 0
vt 0.506353861 1
vt 0.502443793 0
vt 0.502443793 1
vt 0.498533724 1
vt 0.498533724 0
vt 0.493646139 0
vt 0.493646139 1
vt 0.488758553 1
vt 0.488758553 0
vt 0.482893451 0
vt 0.482893451 1
vt 0.476050831 0
vt 0.476050831 1
vt 0.465298143 1
vt 0.465298143 0
vt 0.451612903 0
vt 0.451612903 1
vt 0.443792766 1
vt 0.443792766 0
vt 0.437927664 0
vt 0.437927664 1
vt 0.432062561 0
vt 0.432062561 1
vt 0.427174976 1
vt 0.427174976 0
vt 0.421309873 0
vt 0.421309873 1
vt 0.41544477 1
vt 0.41544477 0
vt 0.408602151 0
vt 0.408602151 1
vt 0.400782014 0
vt 0.400782014 1
vt 0.39198436 1
vt 0.39198436 0
vt 0.383186706 0
vt 0.383186706 1
vt 0.376344086 1
vt 0.376344086 0
vt 0.369501466 0
vt 0.369501466 1
vt 0.362658847 0
vt 0.362658847 1
vt 0.356793744 1
vt 0.356793744 0
vt 0.350928641 0
vt 0.350928641 1
vt 0.342130987 1
vt 0.171065494 0
vt 0 1
vt 0.0127077224 0
vt 0.500488759 0
vt 0.500488759 0
vt 0.982404692 0
vt 0.982404692 1
vt 0.500488759 0
vt 0.982404692 1
vt 1 1
vt 0.973607038 1
vt 0.982404692 0
vt 0.973607038 0
vt 0.966764418 0
vt 0.966764418 1
vt 0.963831867 0
vt 0.963831867 1
vt 0.960899316 1
vt 0.960899316 0
vt 0.954056696 0
vt 0.954056696 1
vt 0.946236559 1
vt 0.946236559 0
vt 0.937438905 0
vt 0.937438905 1
vt 0.930596285 0
vt 0.930596285 1
vt 0.9257087 1
vt 0.9257087 0
vt 0.920821114 0
vt 0.920821114 1
vt 0.915933529 1
vt 0.915933529 0
vt 0.91202346 0
vt 0.91202346 1
vt 0.908113392 0
vt 0.908113392 1
vt 0.904203324 1
vt 0.904203324 0
vt 0.901270772 0
vt 0.901270772 1
vt 0.898338221 1
vt 0.898338221 0
vt 0.89540567 0
vt 0.89540567 1
vt 0.892473118 0
vt 0.892473118 1
vt 0.890518084 1
vt 0.890518084 0
vt 0.883675464 0
vt 0.883675464 1
vt 0.877810362 1
vt 0.877810362 0
vt 0.872922776 0
vt 0.872922776 1
vt 0.867057674 0
vt 0.867057674 1
vt 0.860215054 1
vt 0.860215054 0
vt 0.849462366 0
vt 0.849462366 1
vt 0.83773216 1
vt 0.83773216 0
vt 0.828934506 0
vt 0.828934506 1
vt 0.823069404 0
vt 0.823069404 1
vt 0.818181818 1
vt 0.818181818 0
vt 0.81427175 0
vt 0.81427175 1
vt 0.810361681 1
vt 0.810361681 0
vt 0.805474096 0
vt 0.805474096 1
vt 0.801564027 0
vt 0.801564027 1
vt 0.797653959 1
vt 0.797653959 0
vt 0.792766373 0
vt 0.792766373 1
vt 0.786901271 1
vt 0.786901271 0
vt 0.778103617 0
vt 0.778103617 1
vt 0.760508309 1
vt 0.760508309 0
vt 0.744868035 0
vt 0.744868035 1
vt 0.73998045 1
vt 0.73998045 0
vt 0.736070381 0
vt 0.736070381 1
vt 0.732160313 0
vt 0.732160313 1
vt 0.728250244 1
vt 0.728250244 0
vt 0.725317693 0
vt 0.725317693 1
vt 0.721407625 1
vt 0.721407625 0
vt 0.716520039 0
vt 0.716520039 1
vt 0.711632454 0
vt 0.711632454 1
vt 0.704789834 1
vt 0.704789834 0
vt 0.696969697 0
vt 0.696969697 1
vt 0.687194526 1
vt 0.687194526 0
vt 0.669599218 0
vt 0.669599218 1
vt 0.659824047 0
vt 0.659824047 1
vt 0.653958944 1
vt 0.653958944 0
vt 0.650048876 0
vt 0.650048876 1
vt 0.646138807 1
vt 0.646138807 0
vt 0.643206256 0
vt 0.643206256 1
vt 0.643206256 0
vt 0.643206256 1
vt 0.640273705 1
vt 0.640273705 0
vt 0.637341153 0
vt 0.637341153 1
vt 0.633431085 1
vt 0.633431085 0
vt 0.629521017 0
vt 0.629521017 1
vt 0.624633431 0
vt 0.624633431 1
vt 0.620723363 1
vt 0.620723363 0
vt 0.615835777 0
vt 0.615835777 1
vt 0.611925709 1
vt 0.611925709 0
vt 0.607038123 0
vt 0.607038123 1
vt 0.604105572 1
vt 0.604105572 0
vt 0.599217986 0
vt 0.599217986 1
vt 0.595307918 1
vt 0.595307918 0
vt 0.590420332 0
vt 0.590420332 1
vt 0.586510264 0
vt 0.586510264 1
vt 0.581622678 1
vt 0.581622678 0
vt 0.576735093 0
vt 0.576735093 1
vt 0.571847507 1
vt 0.571847507 0
vt 0.571847507 0
vt 0.571847507 1
vt 0.56402737 1
vt 0.56402737 0
vt 0.556207234 0
vt 0.556207234 1
vt 0.546432063 1
vt 0.546432063 0
vt 0.53372434 0
vt 0.53372434 1
vt 0.525904203 0
vt 0.525904203 1
vt 0.520039101 1
vt 0.520039101 0
vt 0.515151515 0
vt 0.515151515 1
vt 0.511241447 1
vt 0.511241447 0
vt 0.506353861 0
vt 0.506353861 1
vt 0.502443793 0
vt 0.502443793 1
vt 0.498533724 1
vt 0.498533724 0
vt 0.493646139 0
vt 0.493646139 1
vt 0.488758553 1
vt 0.488758553 0
vt 0.482893451 0
vt 0.482893451 1
vt 0.476050831 0
vt 0.476050831 1
vt 0.465298143 1
vt 0.465298143 0
vt 0.451612903 0
vt 0.451612903 1
vt 0.443792766 1
vt 0.443792766 0
vt 0.437927664 0
vt 0.437927664 1
vt 0.432062561 0
vt 0.432062561 1
vt 0.427174976 1
vt 0.427174976 0
vt 0.421309873 0
vt 0.421309873 1
vt 0.41544477 1
vt 0.41544477 0
vt 0.408602151 0
vt 0.408602151 1
vt 0.400782014 0
vt 0.400782014 1
vt 0.39198436 1
vt 0.39198436 0
vt 0.383186706 0
vt 0.383186706 1
vt 0.376344086 1
vt 0.376344086 0
vt 0.369501466 0
vt 0.369501466 1
vt 0.362658847 0
vt 0.362658847 1
vt 0.356793744 1
vt 0.356793744 0
vt 0.350928641 0
vt 0.350928641 1
vt 0.342130987 1
vt 0.342130987 0
vt 0.330400782 0
vt 0.330400782 1
vt 0.330400782 0
vt 0 1
vt 0.267839687 0
vt 0 1
vt 0.0127077224 0
vt 0.0127077224 1
vt 0.0195503421 1
vt 0.0195503421 0
vt 0.0244379277 0
vt 0.0244379277 1
vt 0.0283479961 1
vt 0.0283479961 0
vt 0.0322580645 0
vt 0.0322580645 1
vt 0.0361681329 1
vt 0.0361681329 0
vt 0.0391006843 1
vt 0.0391006843 0
vt 0.0430107527 0
vt 0.0430107527 1
vt 0.0478983382 1
vt 0.0478983382 0
vt 0.0527859238 0
vt 0.0527859238 1
vt 0.0596285435 1
vt 0.0596285435 0
vt 0.0684261975 1
vt 0.0684261975 0
vt 0.0801564027 0
vt 0.0801564027 1
vt 0.0869990225 1
vt 0.0869990225 0
vt 0.0928641251 0
vt 0.0928641251 1
vt 0.0977517107 1
vt 0.0977517107 0
vt 0.102639296 1
vt 0.102639296 0
vt 0.107526882 0
vt 0.107526882 1
vt 0.11143695 1
vt 0.11143695 0
vt 0.117302053 0
vt 0.117302053 1
vt 0.122189638 1
vt 0.122189638 0
vt 0.128054741 1
vt 0.128054741 0
vt 0.133919844 0
vt 0.133919844 1
vt 0.138807429 1
vt 0.138807429 0
vt 0.142717498 0
vt 0.142717498 1
vt 0.147605083 1
vt 0.147605083 0
vt 0.151515152 1
vt 0.151515152 0
vt 0.156402737 0
vt 0.156402737 1
vt 0.161290323 1
vt 0.161290323 0
vt 0.166177908 0
vt 0.166177908 1
vt 0.173998045 1
vt 0.173998045 0
vt 0.184750733 1
vt 0.184750733 0
vt 0.195503421 0
vt 0.195503421 1
vt 0.204301075 1
vt 0.204301075 0
vt 0 1
vt 0.0127077224 1
vt 0.0127077224 0
vt 0.0195503421 1
vt 0.0195503421 0
vt 0.0244379277 0
vt 0.0244379277 1
vt 0.0283479961 1
vt 0.0283479961 0
vt 0.0322580645 0
vt 0.0322580645 1
vt 0.0361681329 1
vt 0.0361681329 0
vt 0.0391006843 1
vt 0.0391006843 0
vt 0.0430107527 0
vt 0.0430107527 1
vt 0.0478983382 1
vt 0.0478983382 0
vt 0.0527859238 0
vt 0.0527859238 1
vt 0.0596285435 1
vt 0.0596285435 0
vt 0.0684261975 1
vt 0.0684261975 0
vt 0.0801564027 0
vt 0.0801564027 1
vt 0.0869990225 1
vt 0.0869990225 0
vt 0.0928641251 0
vt 0.0928641251 1
vt 0.0977517107 1
vt 0.0977517107 0
vt 0.102639296 1
vt 0.102639296 0
vt 0.107526882 0
vt 0.107526882 1
vt 0.11143695 1
vt 0.11143695 0
vt 0.117302053 0
vt 0.117302053 1
vt 0.122189638 1
vt 0.122189638 0
vt 0.128054741 1
vt 0.128054741 0
vt 0.133919844 0
vt 0.133919844 1
vt 0.138807429 1
vt 0.138807429 0
vt 0.142717498 0
vt 0.142717498 1
vt 0.147605083 1
vt 0.147605083 0
vt 0.151515152 1
vt 0.151515152 0
vt 0.156402737 0
vt 0.156402737 1
vt 0.161290323 1
vt 0.161290323 0
vt 0.166177908 0
vt 0.166177908 1
vt 0.173998045 1
vt 0.173998045 0
vt 0.184750733 1
vt 0.184750733 0
vt 0.195503421 0
vt 0.195503421 1
vt 0.204301075 1
vt 0.204301075 0
vt 0.204301075 1
vt 0.267839687 0
vt 0.204301075 0
vt 0.267839687 1
vt 0.330400782 0
vt 0.330400782 1
vt 0.171065494 0
vt 1 0
vt 1 1
vt 0 1
vt 0.204301075 1
vt 0.204301075 0
vt 0 1
vt 1 1
vt 0.330400782 0
vt 0.171065494 0
vt 0 1
vt 0.342130987 0
vt 0.350928641 0
vt 0.350928641 0
vt 0.356793744 0
vt 0.356793744 0
vt 0.362658847 0
vt 0.362658847 0
vt 0.369501466 0
vt 0.369501466 0
vt 0.376344086 0
vt 0.376344086 0
vt 0.383186706 0
vt 0.383186706 0
vt 0.39198436 0
vt 0.39198436 0
vt 0.400782014 0
vt 0.400782014 0
vt 0.408602151 0
vt 0.408602151 0
vt 0.41544477 0
vt 0.41544477 0
vt 0.421309873 0
vt 0.421309873 0
vt 0.427174976 0
vt 0.427174976 0
vt 0.432062561 0
vt 0.432062561 0
vt 0.437927664 0
vt 0.437927664 0
vt 0.443792766 0
vt 0.443792766 0
vt 0.451612903 0
vt 0.451612903 0
vt 0.465298143 0
vt 0.465298143 0
vt 0.476050831 0
vt 0.476050831 0
vt 0.482893451 0
vt 0.482893451 0
vt 0.488758553 0
vt 0.488758553 0
vt 0.493646139 0
vt 0.493646139 0
vt 0.498533724 0
vt 0.498533724 0
vt 0.502443793 0
vt 0.502443793 0
vt 0.506353861 0
vt 0.506353861 0
vt 0.511241447 0
vt 0.511241447 0
vt 0.515151515 0
vt 0.515151515 0
vt 0.520039101 0
vt 0.520039101 0
vt 0.525904203 0
vt 0.525904203 0
vt 0.53372434 0
vt 0.53372434 0
vt 0.546432063 0
vt 0.546432063 0
vt 0.556207234 0
vt 0.556207234 0
vt 0.56402737 0
vt 0.56402737 0
vt 0.571847507 0
vt 0.571847507 0
vt 0.571847507 0
vt 0.571847507 0
vt 0.576735093 0
vt 0.576735093 0
vt 0.581622678 0
vt 0.581622678 0
vt 0.586510264 0
vt 0.586510264 0
vt 0.590420332 0
vt 0.590420332 0
vt 0.595307918 0
vt 0.595307918 0
vt 0.599217986 0
vt 0.599217986 0
vt 0.604105572 0
vt 0.604105572 0
vt 0.607038123 0
vt 0.607038123 0
vt 0.611925709 0
vt 0.611925709 0
vt 0.615835777 0
vt 0.615835777 0
vt 0.620723363 0
vt 0.620723363 0
vt 0.624633431 0
vt 0.624633431 0
vt 0.629521017 0
vt 0.629521017 0
vt 0.633431085 0
vt 0.633431085 0
vt 0.637341153 0
vt 0.637341153 0
vt 0.640273705 0
vt 0.640273705 0
vt 0.643206256 0
vt 0.643206256 0
vt 0.643206256 0
vt 0.643206256 0
vt 0.646138807 0
vt 0.646138807 0
vt 0.650048876 0
vt 0.650048876 0
vt 0.653958944 0
vt 0.653958944 0
vt 0.659824047 0
vt 0.659824047 0
vt 0.669599218 0
vt 0.669599218 0
vt 0.687194526 0
vt 0.687194526 0
vt 0.696969697 0
vt 0.696969697 0
vt 0.704789834 0
vt 0.704789834 0
vt 0.711632454 0
vt 0.711632454 0
vt 0.716520039 0
vt 0.716520039 0
vt 0.721407625 0
vt 0.721407625 0
vt 0.725317693 0
vt 0.725317693 0
vt 0.728250244 0
vt 0.728250244 0
vt 0.732160313 0
vt 0.732160313 0
vt 0.736070381 0
vt 0.736070381 0
vt 0.73998045 0
vt 0.73998045 0
vt 0.744868035 0
vt 0.744868035 0
vt 0.760508309 0
vt 0.760508309 0
vt 0.778103617 0
vt 0.778103617 0
vt 0.786901271 0
vt 0.786901271 0
vt 0.792766373 0
vt 0.792766373 0
vt 0.797653959 0
vt 0.797653959 0
vt 0.801564027 0
vt 0.801564027 0
vt 0.805474096 0
vt 0.805474096 0
vt 0.810361681 0
vt 0.810361681 0
vt 0.81427175 0
vt 0.81427175 0
vt 0.818181818 0
vt 0.818181818 0
vt 0.823069404 0
vt 0.823069404 0
vt 0.828934506 0
vt 0.828934506 0
vt 0.83773216 0
vt 0.83773216 0
vt 0.849462366 0
vt 0.849462366 0
vt 0.860215054 0
vt 0.860215054 0
vt 0.867057674 0
vt 0.867057674 0
vt 0.872922776 0
vt 0.872922776 0
vt 0.877810362 0
vt 0.877810362 0
vt 0.883675464 0
vt 0.883675464 0
vt 0.890518084 0
vt 0.890518084 0
vt 0.892473118 0
vt 0.892473118 0
vt 0.89540567 0
vt 0.89540567 0
vt 0.898338221 0
vt 0.898338221 0
vt 0.901270772 0
vt 0.901270772 0
vt 0.904203324 0
vt 0.904203324 0
vt 0.908113392 0
vt 0.908113392 0
vt 0.91202346 0
vt 0.91202346 0
vt 0.915933529 0
vt 0.915933529 0
vt 0.920821114 0
vt 0.920821114 0
vt 0.9257087 0
vt 0.9257087 0
vt 0.930596285 0
vt 0.930596285 0
vt 0.937438905 0
vt 0.937438905 0
vt 0.946236559 0
vt 0.946236559 0
vt 0.954056696 0
vt 0.954056696 0
vt 0.960899316 0
vt 0.960899316 0
vt 0.963831867 0
vt 0.963831867 0
vt 0.966764418 0
vt 0.966764418 0
vt 0.973607038 0
vt 0.973607038 0
vt 0.982404692 0
vt 0.982404692 0
vt 0.500488759 0
vt 0.500488759 0
vt 0 1
vt 0.204301075 0
vt 0.267839687 0
vt 0.195503421 0
vt 0.204301075 0
vt 0.195503421 0
vt 0.184750733 0
vt 0.184750733 0
vt 0.173998045 0
vt 0.173998045 0
vt 0.166177908 0
vt 0.166177908 0
vt 0.161290323 0
vt 0.161290323 0
vt 0.156402737 0
vt 0.156402737 0
vt 0.151515152 0
vt 0.151515152 0
vt 0.147605083 0
vt 0.147605083 0
vt 0.142717498 0
vt 0.142717498 0
vt 0.138807429 0
vt 0.138807429 0
vt 0.133919844 0
vt 0.133919844 0
vt 0.128054741 0
vt 0.128054741 0
vt 0.122189638 0
vt 0.122189638 0
vt 0.117302053 0
vt 0.117302053 0
vt 0.11143695 0
vt 0.11143695 0
vt 0.107526882 0
vt 0.107526882 0
vt 0.102639296 0
vt 0.102639296 0
vt 0.0977517107 0
vt 0.0977517107 0
vt 0.0928641251 0
vt 0.0928641251 0
vt 0.0869990225 0
vt 0.0869990225 0
vt 0.0801564027 0
vt 0.0801564027 0
vt 0.0684261975 0
vt 0.0684261975 0
vt 0.0596285435 0
vt 0.0596285435 0
vt 0.0527859238 0
vt 0.0527859238 0
vt 0.0478983382 0
vt 0.0478983382 0
vt 0.0430107527 0
vt 0.0430107527 0
vt 0.0391006843 0
vt 0.0391006843 0
vt 0.0361681329 0
vt 0.0361681329 0
vt 0.0322580645 0
vt 0.0322580645 0
vt 0.0283479961 0
vt 0.0283479961 0
vt 0.0244379277 0
vt 0.0244379277 0
vt 0.0195503421 0
vt 0.0195503421 0
vt 0.0127077224 0
vt 0.0127077224 0
vt 0.500488759 0
vt 0.500488759 0
g paizipolySurface21_mobile_0
f 3/3/3 2/2/2 1/1/1
f 6/6/6 5/5/5 4/4/4
f 9/9/9 8/8/8 7/7/7
f 9/9/9 11/11/11 10/10/10
f 11/11/11 12/12/12 10/10/10
f 12/12/12 13/13/13 10/10/10
f 13/13/13 14/14/14 10/10/10
f 14/14/14 13/13/13 15/15/15
f 16/16/16 14/14/14 15/15/15
f 16/16/16 15/15/15 17/17/17
f 15/15/15 18/18/18 17/17/17
f 18/18/18 19/19/19 17/17/17
f 19/19/19 20/20/20 17/17/17
f 20/20/20 19/19/19 21/21/21
f 19/19/19 22/22/22 21/21/21
f 22/22/22 23/23/23 21/21/21
f 23/23/23 24/24/24 21/21/21
f 24/24/24 23/23/23 25/25/25
f 26/26/26 24/24/24 25/25/25
f 26/26/26 25/25/25 27/27/27
f 25/25/25 28/28/28 27/27/27
f 28/28/28 29/29/29 27/27/27
f 29/29/29 30/30/30 27/27/27
f 30/30/30 29/29/29 31/31/31
f 29/29/29 32/32/32 31/31/31
f 32/32/32 33/33/33 31/31/31
f 33/33/33 34/34/34 31/31/31
f 34/34/34 33/33/33 35/35/35
f 36/36/36 34/34/34 35/35/35
f 36/36/36 35/35/35 37/37/37
f 35/35/35 38/38/38 37/37/37
f 38/38/38 39/39/39 37/37/37
f 39/39/39 40/40/40 37/37/37
f 40/40/40 39/39/39 41/41/41
f 39/39/39 42/42/42 41/41/41
f 42/42/42 43/43/43 41/41/41
f 43/43/43 44/44/44 41/41/41
f 44/44/44 43/43/43 45/45/45
f 46/46/46 44/44/44 45/45/45
f 46/46/46 45/45/45 47/47/47
f 45/45/45 48/48/48 47/47/47
f 48/48/48 49/49/49 47/47/47
f 49/49/49 50/50/50 47/47/47
f 50/50/50 49/49/49 51/51/51
f 49/49/49 52/52/52 51/51/51
f 52/52/52 53/53/53 51/51/51
f 53/53/53 54/54/54 51/51/51
f 54/54/54 53/53/53 55/55/55
f 56/56/56 54/54/54 55/55/55
f 56/56/56 55/55/55 57/57/57
f 55/55/55 58/58/58 57/57/57
f 58/58/58 59/59/59 57/57/57
f 59/59/59 60/60/60 57/57/57
f 60/60/60 59/59/59 61/61/61
f 59/59/59 62/62/62 61/61/61
f 62/62/62 63/63/63 61/61/61
f 63/63/63 64/64/64 61/61/61
f 64/64/64 63/63/63 65/65/65
f 66/66/66 64/64/64 65/65/65
f 66/66/66 65/65/65 67/67/67
f 65/65/65 68/68/68 67/67/67
f 68/68/68 69/69/69 67/67/67
f 69/69/69 70/70/70 67/67/67
f 70/70/70 69/69/69 71/71/71
f 69/69/69 72/72/72 71/71/71
f 72/72/72 73/73/73 71/71/71
f 73/73/73 74/74/74 71/71/71
f 74/74/74 73/73/73 75/75/75
f 76/76/76 74/74/74 75/75/75
f 76/76/76 75/75/75 77/77/77
f 75/75/75 78/78/78 77/77/77
f 78/78/78 79/79/79 77/77/77
f 79/79/79 80/80/80 77/77/77
f 80/80/80 79/79/79 81/81/81
f 79/79/79 82/82/82 81/81/81
f 82/82/82 83/83/83 81/81/81
f 83/83/83 84/84/84 81/81/81
f 84/84/84 83/83/83 85/85/85
f 83/83/83 86/86/86 85/85/85
f 86/86/86 87/87/87 85/85/85
f 87/87/87 88/88/88 85/85/85
f 88/88/88 87/87/87 89/89/89
f 87/87/87 90/90/90 89/89/89
f 90/90/90 91/91/91 89/89/89
f 91/91/91 92/92/92 89/89/89
f 92/92/92 91/91/91 93/93/93
f 94/94/94 92/92/92 93/93/93
f 94/94/94 93/93/93 95/95/95
f 93/93/93 96/96/96 95/95/95
f 96/96/96 97/97/97 95/95/95
f 97/97/97 98/98/98 95/95/95
f 98/98/98 97/97/97 99/99/99
f 97/97/97 100/100/100 99/99/99
f 100/100/100 101/101/101 99/99/99
f 101/101/101 102/102/102 99/99/99
f 102/102/102 101/101/101 103/103/103
f 104/104/104 102/102/102 103/103/103
f 104/104/104 103/103/103 105/105/105
f 103/103/103 106/106/106 105/105/105
f 106/106/106 107/107/107 105/105/105
f 107/107/107 108/108/108 105/105/105
f 108/108/108 107/107/107 109/109/109
f 107/107/107 110/110/110 109/109/109
f 110/110/110 111/111/111 109/109/109
f 111/111/111 112/112/112 109/109/109
f 112/112/112 111/111/111 113/113/113
f 114/114/114 112/112/112 113/113/113
f 114/114/114 113/113/113 115/115/115
f 113/113/113 116/116/116 115/115/115
f 116/116/116 117/117/117 115/115/115
f 117/117/117 118/118/118 115/115/115
f 118/118/118 117/117/117 119/119/119
f 117/117/117 120/120/120 119/119/119
f 120/120/120 121/121/121 119/119/119
f 121/121/121 122/122/122 119/119/119
f 122/122/122 121/121/121 123/123/123
f 124/124/124 122/122/122 123/123/123
f 124/124/124 123/123/123 125/125/125
f 123/123/123 126/126/126 125/125/125
f 126/126/126 127/127/127 125/125/125
f 127/127/127 128/128/128 125/125/125
f 128/128/128 127/127/127 129/129/129
f 127/127/127 130/130/130 129/129/129
f 130/130/130 131/131/131 129/129/129
f 131/131/131 132/132/132 129/129/129
f 132/132/132 131/131/131 133/133/133
f 134/134/134 132/132/132 133/133/133
f 134/134/134 133/133/133 135/135/135
f 133/133/133 136/136/136 135/135/135
f 136/136/136 137/137/137 135/135/135
f 137/137/137 138/138/138 135/135/135
f 138/138/138 137/137/137 139/139/139
f 137/137/137 140/140/140 139/139/139
f 139/139/139 140/140/140 141/141/141
f 140/140/140 142/142/142 141/141/141
f 141/141/141 142/142/142 143/143/143
f 142/142/142 144/144/144 143/143/143
f 144/144/144 145/145/145 143/143/143
f 145/145/145 146/146/146 143/143/143
f 146/146/146 145/145/145 147/147/147
f 145/145/145 148/148/148 147/147/147
f 148/148/148 149/149/149 147/147/147
f 149/149/149 150/150/150 147/147/147
f 150/150/150 149/149/149 151/151/151
f 152/152/152 150/150/150 151/151/151
f 152/152/152 151/151/151 153/153/153
f 151/151/151 154/154/154 153/153/153
f 154/154/154 155/155/155 153/153/153
f 155/155/155 156/156/156 153/153/153
f 156/156/156 155/155/155 157/157/157
f 155/155/155 158/158/158 157/157/157
f 158/158/158 159/159/159 157/157/157
f 159/159/159 160/160/160 157/157/157
f 160/160/160 159/159/159 161/161/161
f 159/159/159 162/162/162 161/161/161
f 162/162/162 163/163/163 161/161/161
f 163/163/163 164/164/164 161/161/161
f 164/164/164 163/163/163 165/165/165
f 163/163/163 166/166/166 165/165/165
f 166/166/166 167/167/167 165/165/165
f 167/167/167 168/168/168 165/165/165
f 168/168/168 167/167/167 169/169/169
f 170/170/170 168/168/168 169/169/169
f 170/170/170 169/169/169 171/171/171
f 169/169/169 172/172/172 171/171/171
f 172/172/172 173/173/173 171/171/171
f 173/173/173 174/174/174 171/171/171
f 174/174/174 173/173/173 175/175/175
f 173/173/173 176/176/176 175/175/175
f 176/176/176 177/177/177 175/175/175
f 177/177/177 178/178/178 175/175/175
f 178/178/178 177/177/177 179/179/179
f 180/180/180 178/178/178 179/179/179
f 180/180/180 179/179/179 181/181/181
f 179/179/179 182/182/182 181/181/181
f 182/182/182 183/183/183 181/181/181
f 183/183/183 184/184/184 181/181/181
f 184/184/184 183/183/183 185/185/185
f 183/183/183 186/186/186 185/185/185
f 186/186/186 187/187/187 185/185/185
f 187/187/187 188/188/188 185/185/185
f 188/188/188 187/187/187 189/189/189
f 190/190/190 188/188/188 189/189/189
f 190/190/190 189/189/189 191/191/191
f 189/189/189 192/192/192 191/191/191
f 192/192/192 193/193/193 191/191/191
f 193/193/193 194/194/194 191/191/191
f 194/194/194 193/193/193 195/195/195
f 193/193/193 196/196/196 195/195/195
f 196/196/196 197/197/197 195/195/195
f 197/197/197 198/198/198 195/195/195
f 198/198/198 197/197/197 199/199/199
f 200/200/200 198/198/198 199/199/199
f 200/200/200 199/199/199 201/201/201
f 199/199/199 202/202/202 201/201/201
f 202/202/202 203/203/203 201/201/201
f 203/203/203 204/204/204 201/201/201
f 204/204/204 203/203/203 205/205/205
f 203/203/203 206/206/206 205/205/205
f 206/206/206 207/207/207 205/205/205
f 207/207/207 208/208/208 205/205/205
f 208/208/208 207/207/207 209/209/209
f 210/210/210 208/208/208 209/209/209
f 210/210/210 209/209/209 211/211/211
f 209/209/209 212/212/212 211/211/211
f 212/212/212 213/213/213 211/211/211
f 213/213/213 214/214/214 211/211/211
f 214/214/214 213/213/213 215/215/215
f 213/213/213 216/216/216 215/215/215
f 216/216/216 217/217/217 215/215/215
f 217/217/217 218/218/218 215/215/215
f 218/218/218 217/217/217 219/219/219
f 220/220/220 218/218/218 219/219/219
f 220/220/220 219/219/219 221/221/221
f 219/219/219 222/222/222 221/221/221
f 222/222/222 223/223/223 221/221/221
f 223/223/223 224/224/224 221/221/221
f 224/224/224 223/223/223 225/225/225
f 223/223/223 226/226/226 225/225/225
f 229/229/229 228/228/228 227/227/227
f 232/232/232 231/231/231 230/230/230
f 235/235/235 234/234/234 233/233/233
f 237/237/237 234/234/234 236/236/236
f 238/238/238 237/237/237 236/236/236
f 239/239/239 238/238/238 236/236/236
f 240/240/240 239/239/239 236/236/236
f 239/239/239 240/240/240 241/241/241
f 240/240/240 242/242/242 241/241/241
f 241/241/241 242/242/242 243/243/243
f 244/244/244 241/241/241 243/243/243
f 245/245/245 244/244/244 243/243/243
f 246/246/246 245/245/245 243/243/243
f 245/245/245 246/246/246 247/247/247
f 248/248/248 245/245/245 247/247/247
f 249/249/249 248/248/248 247/247/247
f 250/250/250 249/249/249 247/247/247
f 249/249/249 250/250/250 251/251/251
f 250/250/250 252/252/252 251/251/251
f 251/251/251 252/252/252 253/253/253
f 254/254/254 251/251/251 253/253/253
f 255/255/255 254/254/254 253/253/253
f 256/256/256 255/255/255 253/253/253
f 255/255/255 256/256/256 257/257/257
f 258/258/258 255/255/255 257/257/257
f 259/259/259 258/258/258 257/257/257
f 260/260/260 259/259/259 257/257/257
f 259/259/259 260/260/260 261/261/261
f 260/260/260 262/262/262 261/261/261
f 261/261/261 262/262/262 263/263/263
f 264/264/264 261/261/261 263/263/263
f 265/265/265 264/264/264 263/263/263
f 266/266/266 265/265/265 263/263/263
f 265/265/265 266/266/266 267/267/267
f 268/268/268 265/265/265 267/267/267
f 269/269/269 268/268/268 267/267/267
f 270/270/270 269/269/269 267/267/267
f 269/269/269 270/270/270 271/271/271
f 270/270/270 272/272/272 271/271/271
f 271/271/271 272/272/272 273/273/273
f 274/274/274 271/271/271 273/273/273
f 275/275/275 274/274/274 273/273/273
f 276/276/276 275/275/275 273/273/273
f 275/275/275 276/276/276 277/277/277
f 278/278/278 275/275/275 277/277/277
f 279/279/279 278/278/278 277/277/277
f 280/280/280 279/279/279 277/277/277
f 279/279/279 280/280/280 281/281/281
f 280/280/280 282/282/282 281/281/281
f 281/281/281 282/282/282 283/283/283
f 284/284/284 281/281/281 283/283/283
f 285/285/285 284/284/284 283/283/283
f 286/286/286 285/285/285 283/283/283
f 285/285/285 286/286/286 287/287/287
f 288/288/288 285/285/285 287/287/287
f 289/289/289 288/288/288 287/287/287
f 290/290/290 289/289/289 287/287/287
f 289/289/289 290/290/290 291/291/291
f 290/290/290 292/292/292 291/291/291
f 291/291/291 292/292/292 293/293/293
f 294/294/294 291/291/291 293/293/293
f 295/295/295 294/294/294 293/293/293
f 296/296/296 295/295/295 293/293/293
f 295/295/295 296/296/296 297/297/297
f 298/298/298 295/295/295 297/297/297
f 299/299/299 298/298/298 297/297/297
f 300/300/300 299/299/299 297/297/297
f 299/299/299 300/300/300 301/301/301
f 300/300/300 302/302/302 301/301/301
f 301/301/301 302/302/302 303/303/303
f 304/304/304 301/301/301 303/303/303
f 305/305/305 304/304/304 303/303/303
f 306/306/306 305/305/305 303/303/303
f 305/305/305 306/306/306 307/307/307
f 308/308/308 305/305/305 307/307/307
f 309/309/309 308/308/308 307/307/307
f 310/310/310 309/309/309 307/307/307
f 309/309/309 310/310/310 311/311/311
f 312/312/312 309/309/309 311/311/311
f 313/313/313 312/312/312 311/311/311
f 314/314/314 313/313/313 311/311/311
f 313/313/313 314/314/314 315/315/315
f 316/316/316 313/313/313 315/315/315
f 317/317/317 316/316/316 315/315/315
f 318/318/318 317/317/317 315/315/315
f 317/317/317 318/318/318 319/319/319
f 318/318/318 320/320/320 319/319/319
f 319/319/319 320/320/320 321/321/321
f 322/322/322 319/319/319 321/321/321
f 323/323/323 322/322/322 321/321/321
f 324/324/324 323/323/323 321/321/321
f 323/323/323 324/324/324 325/325/325
f 326/326/326 323/323/323 325/325/325
f 327/327/327 326/326/326 325/325/325
f 328/328/328 327/327/327 325/325/325
f 327/327/327 328/328/328 329/329/329
f 328/328/328 330/330/330 329/329/329
f 329/329/329 330/330/330 331/331/331
f 332/332/332 329/329/329 331/331/331
f 333/333/333 332/332/332 331/331/331
f 334/334/334 333/333/333 331/331/331
f 333/333/333 334/334/334 335/335/335
f 336/336/336 333/333/333 335/335/335
f 337/337/337 336/336/336 335/335/335
f 338/338/338 337/337/337 335/335/335
f 337/337/337 338/338/338 339/339/339
f 338/338/338 340/340/340 339/339/339
f 339/339/339 340/340/340 341/341/341
f 342/342/342 339/339/339 341/341/341
f 343/343/343 342/342/342 341/341/341
f 344/344/344 343/343/343 341/341/341
f 343/343/343 344/344/344 345/345/345
f 346/346/346 343/343/343 345/345/345
f 347/347/347 346/346/346 345/345/345
f 348/348/348 347/347/347 345/345/345
f 347/347/347 348/348/348 349/349/349
f 348/348/348 350/350/350 349/349/349
f 349/349/349 350/350/350 351/351/351
f 352/352/352 349/349/349 351/351/351
f 353/353/353 352/352/352 351/351/351
f 354/354/354 353/353/353 351/351/351
f 353/353/353 354/354/354 355/355/355
f 356/356/356 353/353/353 355/355/355
f 357/357/357 356/356/356 355/355/355
f 358/358/358 357/357/357 355/355/355
f 357/357/357 358/358/358 359/359/359
f 358/358/358 360/360/360 359/359/359
f 359/359/359 360/360/360 361/361/361
f 362/362/362 359/359/359 361/361/361
f 363/363/363 362/362/362 361/361/361
f 364/364/364 363/363/363 361/361/361
f 363/363/363 364/364/364 365/365/365
f 366/366/366 363/363/363 365/365/365
f 367/367/367 366/366/366 365/365/365
f 368/368/368 367/367/367 365/365/365
f 367/367/367 368/368/368 369/369/369
f 370/370/370 367/367/367 369/369/369
f 371/371/371 370/370/370 369/369/369
f 372/372/372 371/371/371 369/369/369
f 371/371/371 372/372/372 373/373/373
f 374/374/374 371/371/371 373/373/373
f 375/375/375 374/374/374 373/373/373
f 376/376/376 375/375/375 373/373/373
f 375/375/375 376/376/376 377/377/377
f 376/376/376 378/378/378 377/377/377
f 377/377/377 378/378/378 379/379/379
f 380/380/380 377/377/377 379/379/379
f 381/381/381 380/380/380 379/379/379
f 382/382/382 381/381/381 379/379/379
f 381/381/381 382/382/382 383/383/383
f 384/384/384 381/381/381 383/383/383
f 385/385/385 384/384/384 383/383/383
f 386/386/386 385/385/385 383/383/383
f 385/385/385 386/386/386 387/387/387
f 388/388/388 385/385/385 387/387/387
f 389/389/389 388/388/388 387/387/387
f 390/390/390 389/389/389 387/387/387
f 389/389/389 390/390/390 391/391/391
f 392/392/392 389/389/389 391/391/391
f 393/393/393 392/392/392 391/391/391
f 394/394/394 393/393/393 391/391/391
f 393/393/393 394/394/394 395/395/395
f 394/394/394 396/396/396 395/395/395
f 395/395/395 396/396/396 397/397/397
f 398/398/398 395/395/395 397/397/397
f 399/399/399 398/398/398 397/397/397
f 400/400/400 399/399/399 397/397/397
f 399/399/399 400/400/400 401/401/401
f 402/402/402 399/399/399 401/401/401
f 403/403/403 402/402/402 401/401/401
f 404/404/404 403/403/403 401/401/401
f 403/403/403 404/404/404 405/405/405
f 404/404/404 406/406/406 405/405/405
f 405/405/405 406/406/406 407/407/407
f 408/408/408 405/405/405 407/407/407
f 409/409/409 408/408/408 407/407/407
f 410/410/410 409/409/409 407/407/407
f 409/409/409 410/410/410 411/411/411
f 412/412/412 409/409/409 411/411/411
f 413/413/413 412/412/412 411/411/411
f 414/414/414 413/413/413 411/411/411
f 413/413/413 414/414/414 415/415/415
f 414/414/414 416/416/416 415/415/415
f 415/415/415 416/416/416 417/417/417
f 418/418/418 415/415/415 417/417/417
f 419/419/419 418/418/418 417/417/417
f 420/420/420 419/419/419 417/417/417
f 419/419/419 420/420/420 421/421/421
f 422/422/422 419/419/419 421/421/421
f 423/423/423 422/422/422 421/421/421
f 424/424/424 423/423/423 421/421/421
f 423/423/423 424/424/424 425/425/425
f 424/424/424 426/426/426 425/425/425
f 425/425/425 426/426/426 427/427/427
f 428/428/428 425/425/425 427/427/427
f 429/429/429 428/428/428 427/427/427
f 430/430/430 429/429/429 427/427/427
f 429/429/429 430/430/430 431/431/431
f 432/432/432 429/429/429 431/431/431
f 433/433/433 432/432/432 431/431/431
f 434/434/434 433/433/433 431/431/431
f 433/433/433 434/434/434 435/435/435
f 434/434/434 436/436/436 435/435/435
f 435/435/435 436/436/436 437/437/437
f 438/438/438 435/435/435 437/437/437
f 439/439/439 438/438/438 437/437/437
f 440/440/440 439/439/439 437/437/437
f 439/439/439 440/440/440 441/441/441
f 442/442/442 439/439/439 441/441/441
f 443/443/443 442/442/442 441/441/441
f 444/444/444 443/443/443 441/441/441
f 443/443/443 444/444/444 445/445/445
f 444/444/444 446/446/446 445/445/445
f 445/445/445 446/446/446 447/447/447
f 448/448/448 445/445/445 447/447/447
f 449/449/449 448/448/448 447/447/447
f 450/450/450 449/449/449 447/447/447
f 449/449/449 450/450/450 451/451/451
f 452/452/452 449/449/449 451/451/451
f 453/453/453 452/452/452 451/451/451
f 454/454/454 453/453/453 451/451/451
f 457/457/457 456/456/456 455/455/455
f 460/460/460 459/459/459 458/458/458
f 459/459/459 460/460/460 461/461/461
f 462/462/462 459/459/459 461/461/461
f 463/463/463 462/462/462 461/461/461
f 464/464/464 463/463/463 461/461/461
f 463/463/463 464/464/464 465/465/465
f 466/466/466 463/463/463 465/465/465
f 467/467/467 466/466/466 465/465/465
f 468/468/468 467/467/467 465/465/465
f 468/468/468 469/469/469 467/467/467
f 469/469/469 470/470/470 467/467/467
f 470/470/470 469/469/469 471/471/471
f 472/472/472 470/470/470 471/471/471
f 473/473/473 472/472/472 471/471/471
f 474/474/474 473/473/473 471/471/471
f 473/473/473 474/474/474 475/475/475
f 476/476/476 473/473/473 475/475/475
f 477/477/477 476/476/476 475/475/475
f 478/478/478 477/477/477 475/475/475
f 478/478/478 479/479/479 477/477/477
f 479/479/479 480/480/480 477/477/477
f 480/480/480 479/479/479 481/481/481
f 482/482/482 480/480/480 481/481/481
f 483/483/483 482/482/482 481/481/481
f 484/484/484 483/483/483 481/481/481
f 483/483/483 484/484/484 485/485/485
f 486/486/486 483/483/483 485/485/485
f 487/487/487 486/486/486 485/485/485
f 488/488/488 487/487/487 485/485/485
f 488/488/488 489/489/489 487/487/487
f 489/489/489 490/490/490 487/487/487
f 490/490/490 489/489/489 491/491/491
f 492/492/492 490/490/490 491/491/491
f 493/493/493 492/492/492 491/491/491
f 494/494/494 493/493/493 491/491/491
f 493/493/493 494/494/494 495/495/495
f 496/496/496 493/493/493 495/495/495
f 497/497/497 496/496/496 495/495/495
f 498/498/498 497/497/497 495/495/495
f 498/498/498 499/499/499 497/497/497
f 499/499/499 500/500/500 497/497/497
f 500/500/500 499/499/499 501/501/501
f 502/502/502 500/500/500 501/501/501
f 503/503/503 502/502/502 501/501/501
f 504/504/504 503/503/503 501/501/501
f 503/503/503 504/504/504 505/505/505
f 506/506/506 503/503/503 505/505/505
f 507/507/507 506/506/506 505/505/505
f 508/508/508 507/507/507 505/505/505
f 508/508/508 509/509/509 507/507/507
f 509/509/509 510/510/510 507/507/507
f 510/510/510 509/509/509 511/511/511
f 512/512/512 510/510/510 511/511/511
f 513/513/513 512/512/512 511/511/511
f 514/514/514 513/513/513 511/511/511
f 513/513/513 514/514/514 515/515/515
f 516/516/516 513/513/513 515/515/515
f 517/517/517 516/516/516 515/515/515
f 518/518/518 517/517/517 515/515/515
f 518/518/518 519/519/519 517/517/517
f 519/519/519 520/520/520 517/517/517
f 520/520/520 519/519/519 521/521/521
f 522/522/522 520/520/520 521/521/521
f 523/523/523 522/522/522 521/521/521
f 524/524/524 523/523/523 521/521/521
f 523/523/523 524/524/524 525/525/525
f 526/526/526 523/523/523 525/525/525
f 529/529/529 528/528/528 527/527/527
f 528/528/528 529/529/529 530/530/530
f 529/529/529 531/531/531 530/530/530
f 531/531/531 532/532/532 530/530/530
f 532/532/532 533/533/533 530/530/530
f 533/533/533 532/532/532 534/534/534
f 532/532/532 535/535/535 534/534/534
f 535/535/535 536/536/536 534/534/534
f 536/536/536 537/537/537 534/534/534
f 538/538/538 537/537/537 536/536/536
f 539/539/539 538/538/538 536/536/536
f 538/538/538 539/539/539 540/540/540
f 539/539/539 541/541/541 540/540/540
f 541/541/541 542/542/542 540/540/540
f 542/542/542 543/543/543 540/540/540
f 543/543/543 542/542/542 544/544/544
f 542/542/542 545/545/545 544/544/544
f 545/545/545 546/546/546 544/544/544
f 546/546/546 547/547/547 544/544/544
f 548/548/548 547/547/547 546/546/546
f 549/549/549 548/548/548 546/546/546
f 548/548/548 549/549/549 550/550/550
f 549/549/549 551/551/551 550/550/550
f 551/551/551 552/552/552 550/550/550
f 552/552/552 553/553/553 550/550/550
f 553/553/553 552/552/552 554/554/554
f 552/552/552 555/555/555 554/554/554
f 555/555/555 556/556/556 554/554/554
f 556/556/556 557/557/557 554/554/554
f 558/558/558 557/557/557 556/556/556
f 559/559/559 558/558/558 556/556/556
f 558/558/558 559/559/559 560/560/560
f 559/559/559 561/561/561 560/560/560
f 561/561/561 562/562/562 560/560/560
f 562/562/562 563/563/563 560/560/560
f 563/563/563 562/562/562 564/564/564
f 562/562/562 565/565/565 564/564/564
f 565/565/565 566/566/566 564/564/564
f 566/566/566 567/567/567 564/564/564
f 568/568/568 567/567/567 566/566/566
f 569/569/569 568/568/568 566/566/566
f 568/568/568 569/569/569 570/570/570
f 569/569/569 571/571/571 570/570/570
f 571/571/571 572/572/572 570/570/570
f 572/572/572 573/573/573 570/570/570
f 573/573/573 572/572/572 574/574/574
f 572/572/572 575/575/575 574/574/574
f 575/575/575 576/576/576 574/574/574
f 576/576/576 577/577/577 574/574/574
f 578/578/578 577/577/577 576/576/576
f 579/579/579 578/578/578 576/576/576
f 578/578/578 579/579/579 580/580/580
f 579/579/579 581/581/581 580/580/580
f 581/581/581 582/582/582 580/580/580
f 582/582/582 583/583/583 580/580/580
f 583/583/583 582/582/582 584/584/584
f 582/582/582 585/585/585 584/584/584
f 585/585/585 586/586/586 584/584/584
f 586/586/586 587/587/587 584/584/584
f 588/588/588 587/587/587 586/586/586
f 589/589/589 588/588/588 586/586/586
f 588/588/588 589/589/589 590/590/590
f 589/589/589 591/591/591 590/590/590
f 591/591/591 592/592/592 590/590/590
f 592/592/592 593/593/593 590/590/590
f 593/593/593 592/592/592 594/594/594
f 592/592/592 595/595/595 594/594/594
f 598/598/598 597/597/597 596/596/596
f 597/597/597 599/599/599 596/596/596
f 597/597/597 600/600/600 599/599/599
f 600/600/600 601/601/601 599/599/599
f 604/604/604 603/603/603 602/602/602
f 605/605/605 604/604/604 602/602/602
f 608/608/608 607/607/607 606/606/606
f 609/609/609 608/608/608 606/606/606
f 612/612/612 611/611/611 610/610/610
f 613/613/613 610/610/610 611/611/611
f 614/614/614 613/613/613 611/611/611
f 615/615/615 613/613/613 614/614/614
f 616/616/616 615/615/615 614/614/614
f 617/617/617 615/615/615 616/616/616
f 618/618/618 617/617/617 616/616/616
f 619/619/619 617/617/617 618/618/618
f 620/620/620 619/619/619 618/618/618
f 621/621/621 619/619/619 620/620/620
f 622/622/622 621/621/621 620/620/620
f 623/623/623 621/621/621 622/622/622
f 624/624/624 623/623/623 622/622/622
f 625/625/625 623/623/623 624/624/624
f 626/626/626 625/625/625 624/624/624
f 627/627/627 625/625/625 626/626/626
f 628/628/628 627/627/627 626/626/626
f 629/629/629 627/627/627 628/628/628
f 630/630/630 629/629/629 628/628/628
f 631/631/631 629/629/629 630/630/630
f 632/632/632 631/631/631 630/630/630
f 633/633/633 631/631/631 632/632/632
f 634/634/634 633/633/633 632/632/632
f 635/635/635 633/633/633 634/634/634
f 636/636/636 635/635/635 634/634/634
f 635/635/635 636/636/636 637/637/637
f 638/638/638 637/637/637 636/636/636
f 639/639/639 638/638/638 636/636/636
f 640/640/640 638/638/638 639/639/639
f 641/641/641 640/640/640 639/639/639
f 642/642/642 640/640/640 641/641/641
f 643/643/643 642/642/642 641/641/641
f 644/644/644 642/642/642 643/643/643
f 645/645/645 644/644/644 643/643/643
f 646/646/646 644/644/644 645/645/645
f 647/647/647 646/646/646 645/645/645
f 648/648/648 646/646/646 647/647/647
f 649/649/649 648/648/648 647/647/647
f 650/650/650 648/648/648 649/649/649
f 651/651/651 650/650/650 649/649/649
f 652/652/652 650/650/650 651/651/651
f 653/653/653 652/652/652 651/651/651
f 654/654/654 652/652/652 653/653/653
f 655/655/655 654/654/654 653/653/653
f 656/656/656 654/654/654 655/655/655
f 657/657/657 656/656/656 655/655/655
f 658/658/658 656/656/656 657/657/657
f 659/659/659 658/658/658 657/657/657
f 660/660/660 658/658/658 659/659/659
f 661/661/661 660/660/660 659/659/659
f 662/662/662 660/660/660 661/661/661
f 663/663/663 662/662/662 661/661/661
f 664/664/664 662/662/662 663/663/663
f 665/665/665 664/664/664 663/663/663
f 666/666/666 664/664/664 665/665/665
f 667/667/667 666/666/666 665/665/665
f 668/668/668 666/666/666 667/667/667
f 669/669/669 668/668/668 667/667/667
f 670/670/670 668/668/668 669/669/669
f 671/671/671 670/670/670 669/669/669
f 672/672/672 670/670/670 671/671/671
f 673/673/673 672/672/672 671/671/671
f 674/674/674 672/672/672 673/673/673
f 675/675/675 674/674/674 673/673/673
f 676/676/676 674/674/674 675/675/675
f 677/677/677 676/676/676 675/675/675
f 678/678/678 676/676/676 677/677/677
f 679/679/679 678/678/678 677/677/677
f 680/680/680 678/678/678 679/679/679
f 681/681/681 680/680/680 679/679/679
f 682/682/682 680/680/680 681/681/681
f 683/683/683 682/682/682 681/681/681
f 684/684/684 682/682/682 683/683/683
f 685/685/685 684/684/684 683/683/683
f 686/686/686 684/684/684 685/685/685
f 687/687/687 686/686/686 685/685/685
f 688/688/688 686/686/686 687/687/687
f 689/689/689 688/688/688 687/687/687
f 690/690/690 688/688/688 689/689/689
f 691/691/691 690/690/690 689/689/689
f 692/692/692 690/690/690 691/691/691
f 693/693/693 692/692/692 691/691/691
f 694/694/694 692/692/692 693/693/693
f 695/695/695 694/694/694 693/693/693
f 696/696/696 694/694/694 695/695/695
f 697/697/697 696/696/696 695/695/695
f 696/696/696 697/697/697 698/698/698
f 697/697/697 699/699/699 698/698/698
f 700/700/700 698/698/698 699/699/699
f 701/701/701 700/700/700 699/699/699
f 702/702/702 700/700/700 701/701/701
f 703/703/703 702/702/702 701/701/701
f 704/704/704 702/702/702 703/703/703
f 705/705/705 704/704/704 703/703/703
f 706/706/706 704/704/704 705/705/705
f 707/707/707 706/706/706 705/705/705
f 708/708/708 706/706/706 707/707/707
f 709/709/709 708/708/708 707/707/707
f 710/710/710 708/708/708 709/709/709
f 711/711/711 710/710/710 709/709/709
f 712/712/712 710/710/710 711/711/711
f 713/713/713 712/712/712 711/711/711
f 714/714/714 712/712/712 713/713/713
f 715/715/715 714/714/714 713/713/713
f 716/716/716 714/714/714 715/715/715
f 717/717/717 716/716/716 715/715/715
f 718/718/718 716/716/716 717/717/717
f 719/719/719 718/718/718 717/717/717
f 720/720/720 718/718/718 719/719/719
f 721/721/721 720/720/720 719/719/719
f 722/722/722 720/720/720 721/721/721
f 723/723/723 722/722/722 721/721/721
f 724/724/724 722/722/722 723/723/723
f 725/725/725 724/724/724 723/723/723
f 726/726/726 724/724/724 725/725/725
f 727/727/727 726/726/726 725/725/725
f 728/728/728 726/726/726 727/727/727
f 729/729/729 728/728/728 727/727/727
f 730/730/730 728/728/728 729/729/729
f 731/731/731 730/730/730 729/729/729
f 732/732/732 730/730/730 731/731/731
f 733/733/733 732/732/732 731/731/731
f 734/734/734 732/732/732 733/733/733
f 735/735/735 734/734/734 733/733/733
f 736/736/736 734/734/734 735/735/735
f 737/737/737 736/736/736 735/735/735
f 738/738/738 736/736/736 737/737/737
f 739/739/739 738/738/738 737/737/737
f 740/740/740 738/738/738 739/739/739
f 741/741/741 740/740/740 739/739/739
f 742/742/742 740/740/740 741/741/741
f 743/743/743 742/742/742 741/741/741
f 744/744/744 742/742/742 743/743/743
f 745/745/745 744/744/744 743/743/743
f 746/746/746 744/744/744 745/745/745
f 747/747/747 746/746/746 745/745/745
f 748/748/748 746/746/746 747/747/747
f 749/749/749 748/748/748 747/747/747
f 750/750/750 748/748/748 749/749/749
f 751/751/751 750/750/750 749/749/749
f 752/752/752 750/750/750 751/751/751
f 753/753/753 752/752/752 751/751/751
f 754/754/754 752/752/752 753/753/753
f 755/755/755 754/754/754 753/753/753
f 756/756/756 754/754/754 755/755/755
f 757/757/757 756/756/756 755/755/755
f 758/758/758 756/756/756 757/757/757
f 759/759/759 758/758/758 757/757/757
f 760/760/760 758/758/758 759/759/759
f 761/761/761 760/760/760 759/759/759
f 762/762/762 760/760/760 761/761/761
f 763/763/763 762/762/762 761/761/761
f 764/764/764 762/762/762 763/763/763
f 765/765/765 764/764/764 763/763/763
f 766/766/766 764/764/764 765/765/765
f 767/767/767 766/766/766 765/765/765
f 768/768/768 766/766/766 767/767/767
f 769/769/769 768/768/768 767/767/767
f 770/770/770 768/768/768 769/769/769
f 771/771/771 770/770/770 769/769/769
f 772/772/772 770/770/770 771/771/771
f 773/773/773 772/772/772 771/771/771
f 774/774/774 772/772/772 773/773/773
f 775/775/775 774/774/774 773/773/773
f 776/776/776 774/774/774 775/775/775
f 777/777/777 776/776/776 775/775/775
f 778/778/778 776/776/776 777/777/777
f 779/779/779 778/778/778 777/777/777
f 780/780/780 778/778/778 779/779/779
f 781/781/781 780/780/780 779/779/779
f 782/782/782 780/780/780 781/781/781
f 783/783/783 782/782/782 781/781/781
f 784/784/784 782/782/782 783/783/783
f 785/785/785 784/784/784 783/783/783
f 786/786/786 784/784/784 785/785/785
f 787/787/787 786/786/786 785/785/785
f 788/788/788 786/786/786 787/787/787
f 789/789/789 788/788/788 787/787/787
f 790/790/790 788/788/788 789/789/789
f 791/791/791 790/790/790 789/789/789
f 792/792/792 790/790/790 791/791/791
f 793/793/793 792/792/792 791/791/791
f 794/794/794 792/792/792 793/793/793
f 795/795/795 794/794/794 793/793/793
f 796/796/796 794/794/794 795/795/795
f 797/797/797 796/796/796 795/795/795
f 798/798/798 796/796/796 797/797/797
f 799/799/799 798/798/798 797/797/797
f 800/800/800 798/798/798 799/799/799
f 801/801/801 800/800/800 799/799/799
f 802/802/802 800/800/800 801/801/801
f 803/803/803 802/802/802 801/801/801
f 804/804/804 802/802/802 803/803/803
f 805/805/805 804/804/804 803/803/803
f 806/806/806 804/804/804 805/805/805
f 807/807/807 806/806/806 805/805/805
f 808/808/808 806/806/806 807/807/807
f 809/809/809 808/808/808 807/807/807
f 810/810/810 808/808/808 809/809/809
f 811/811/811 810/810/810 809/809/809
f 812/812/812 810/810/810 811/811/811
f 813/813/813 812/812/812 811/811/811
f 814/814/814 812/812/812 813/813/813
f 815/815/815 814/814/814 813/813/813
f 816/816/816 814/814/814 815/815/815
f 817/817/817 816/816/816 815/815/815
f 818/818/818 816/816/816 817/817/817
f 819/819/819 818/818/818 817/817/817
f 820/820/820 818/818/818 819/819/819
f 821/821/821 820/820/820 819/819/819
f 822/822/822 820/820/820 821/821/821
f 823/823/823 822/822/822 821/821/821
f 824/824/824 822/822/822 823/823/823
f 825/825/825 824/824/824 823/823/823
f 826/826/826 824/824/824 825/825/825
f 827/827/827 826/826/826 825/825/825
f 828/828/828 826/826/826 827/827/827
f 829/829/829 828/828/828 827/827/827
f 830/830/830 828/828/828 829/829/829
f 831/831/831 830/830/830 829/829/829
f 834/834/834 833/833/833 832/832/832
f 833/833/833 834/834/834 835/835/835
f 834/834/834 836/836/836 835/835/835
f 837/837/837 835/835/835 836/836/836
f 835/835/835 837/837/837 838/838/838
f 837/837/837 839/839/839 838/838/838
f 838/838/838 839/839/839 840/840/840
f 839/839/839 841/841/841 840/840/840
f 840/840/840 841/841/841 842/842/842
f 841/841/841 843/843/843 842/842/842
f 842/842/842 843/843/843 844/844/844
f 843/843/843 845/845/845 844/844/844
f 844/844/844 845/845/845 846/846/846
f 845/845/845 847/847/847 846/846/846
f 846/846/846 847/847/847 848/848/848
f 847/847/847 849/849/849 848/848/848
f 848/848/848 849/849/849 850/850/850
f 849/849/849 851/851/851 850/850/850
f 850/850/850 851/851/851 852/852/852
f 851/851/851 853/853/853 852/852/852
f 852/852/852 853/853/853 854/854/854
f 853/853/853 855/855/855 854/854/854
f 854/854/854 855/855/855 856/856/856
f 855/855/855 857/857/857 856/856/856
f 856/856/856 857/857/857 858/858/858
f 857/857/857 859/859/859 858/858/858
f 858/858/858 859/859/859 860/860/860
f 859/859/859 861/861/861 860/860/860
f 860/860/860 861/861/861 862/862/862
f 861/861/861 863/863/863 862/862/862
f 862/862/862 863/863/863 864/864/864
f 863/863/863 865/865/865 864/864/864
f 864/864/864 865/865/865 866/866/866
f 865/865/865 867/867/867 866/866/866
f 866/866/866 867/867/867 868/868/868
f 867/867/867 869/869/869 868/868/868
f 868/868/868 869/869/869 870/870/870
f 869/869/869 871/871/871 870/870/870
f 870/870/870 871/871/871 872/872/872
f 871/871/871 873/873/873 872/872/872
f 872/872/872 873/873/873 874/874/874
f 873/873/873 875/875/875 874/874/874
f 874/874/874 875/875/875 876/876/876
f 875/875/875 877/877/877 876/876/876
f 876/876/876 877/877/877 878/878/878
f 877/877/877 879/879/879 878/878/878
f 878/878/878 879/879/879 880/880/880
f 879/879/879 881/881/881 880/880/880
f 880/880/880 881/881/881 882/882/882
f 881/881/881 883/883/883 882/882/882
f 882/882/882 883/883/883 884/884/884
f 883/883/883 885/885/885 884/884/884
f 884/884/884 885/885/885 886/886/886
f 885/885/885 887/887/887 886/886/886
f 886/886/886 887/887/887 888/888/888
f 887/887/887 889/889/889 888/888/888
f 888/888/888 889/889/889 890/890/890
f 889/889/889 891/891/891 890/890/890
f 890/890/890 891/891/891 892/892/892
f 891/891/891 893/893/893 892/892/892
f 892/892/892 893/893/893 894/894/894
f 893/893/893 895/895/895 894/894/894
f 894/894/894 895/895/895 896/896/896
f 895/895/895 897/897/897 896/896/896
f 896/896/896 897/897/897 898/898/898
f 897/897/897 899/899/899 898/898/898
f 898/898/898 899/899/899 900/900/900
f 899/899/899 901/901/901 900/900/900
f 900/900/900 901/901/901 902/902/902
f 901/901/901 903/903/903 902/902/902
