g pb_Mesh-790278
v -64.0238037 67.0041656 162.623001
v -63.8737946 167.004166 162.623001
v -63.8737946 167.004166 162.623001
v -63.8737946 -32.9958344 162.623001
v -63.8737946 -32.9958344 162.623001
v -64.0238037 67.0041656 162.623001
v -62.8676605 67.0041656 145.956116
v -62.7190857 167.004166 145.976776
v -62.7190857 167.004166 145.976776
v -62.7190857 -32.9958344 145.976776
v -62.7190857 -32.9958344 145.976776
v -62.8676605 67.0041656 145.956116
v -62.8676605 67.0041656 145.956116
v -62.7190857 167.004166 145.976776
v -62.7190857 167.004166 145.976776
v -62.7190857 -32.9958344 145.976776
v -62.7190857 -32.9958344 145.976776
v -62.8676605 67.0041656 145.956116
v -59.4104462 67.0041656 129.450119
v -59.266037 167.004166 129.490677
v -59.266037 167.004166 129.490677
v -59.266037 -32.9958344 129.490677
v -59.266037 -32.9958344 129.490677
v -59.4104462 67.0041656 129.450119
v -59.4104462 67.0041656 129.450119
v -59.266037 167.004166 129.490677
v -59.266037 167.004166 129.490677
v -59.266037 -32.9958344 129.490677
v -59.266037 -32.9958344 129.490677
v -59.4104462 67.0041656 129.450119
v -53.6857147 67.0041656 113.264267
v -53.5478363 167.004166 113.323326
v -53.5478363 167.004166 113.323326
v -53.5478363 -32.9958344 113.323326
v -53.5478363 -32.9958344 113.323326
v -53.6857147 67.0041656 113.264267
v -53.6857147 67.0041656 113.264267
v -53.5478363 167.004166 113.323326
v -53.5478363 167.004166 113.323326
v -53.5478363 -32.9958344 113.323326
v -53.5478363 -32.9958344 113.323326
v -53.6857147 67.0041656 113.264267
v -45.7488098 67.0041656 97.5546036
v -45.6193237 167.004166 97.6303329
v -45.6193237 167.004166 97.6303329
v -45.6193237 -32.9958344 97.6303329
v -45.6193237 -32.9958344 97.6303329
v -45.7488098 67.0041656 97.5546036
v -45.7488098 67.0041656 97.5546036
v -45.6193237 167.004166 97.6303329
v -45.6193237 167.004166 97.6303329
v -45.6193237 -32.9958344 97.6303329
v -45.6193237 -32.9958344 97.6303329
v -45.7488098 67.0041656 97.5546036
v -35.6765289 67.0041656 82.4724579
v -35.5568085 167.004166 82.5628204
v -35.5568085 167.004166 82.5628204
v -35.5568085 -32.9958344 82.5628204
v -35.5568085 -32.9958344 82.5628204
v -35.6765289 67.0041656 82.4724579
v -35.6765289 67.0041656 82.4724579
v -35.5568085 167.004166 82.5628204
v -35.5568085 167.004166 82.5628204
v -35.5568085 -32.9958344 82.5628204
v -35.5568085 -32.9958344 82.5628204
v -35.6765289 67.0041656 82.4724579
v -23.5660858 67.0041656 68.1629944
v -23.4569855 167.004166 68.2659302
v -23.4569855 167.004166 68.2659302
v -23.4569855 -32.9958344 68.2659302
v -23.4569855 -32.9958344 68.2659302
v -23.5660858 67.0041656 68.1629944
v -23.5660858 67.0041656 68.1629944
v -23.4569855 167.004166 68.2659302
v -23.4569855 167.004166 68.2659302
v -23.4569855 -32.9958344 68.2659302
v -23.4569855 -32.9958344 68.2659302
v -23.5660858 67.0041656 68.1629944
v -9.53434753 67.0041656 54.7638779
v -9.43634033 167.004166 54.8774414
v -9.43634033 167.004166 54.8774414
v -9.43634033 -32.9958344 54.8774414
v -9.43634033 -32.9958344 54.8774414
v -9.53434753 67.0041656 54.7638779
v -9.53434753 67.0041656 54.7638779
v -9.43634033 167.004166 54.8774414
v -9.43634033 167.004166 54.8774414
v -9.43634033 -32.9958344 54.8774414
v -9.43634033 -32.9958344 54.8774414
v -9.53434753 67.0041656 54.7638779
v 6.28349304 67.0041656 42.4039612
v 6.37019348 167.004166 42.5263672
v 6.37019348 167.004166 42.5263672
v 6.37019348 -32.9958344 42.5263672
v 6.37019348 -32.9958344 42.5263672
v 6.28349304 67.0041656 42.4039612
v 6.28349304 67.0041656 42.4039612
v 6.37019348 167.004166 42.5263672
v 6.37019348 167.004166 42.5263672
v 6.37019348 -32.9958344 42.5263672
v 6.37019348 -32.9958344 42.5263672
v 6.28349304 67.0041656 42.4039612
v 23.7350006 67.0041656 31.2020721
v 23.810379 167.004166 31.3317566
v 23.810379 167.004166 31.3317566
v 23.810379 -32.9958344 31.3317566
v 23.810379 -32.9958344 31.3317566
v 23.7350006 67.0041656 31.2020721
v 23.7350006 67.0041656 31.2020721
v 23.810379 167.004166 31.3317566
v 23.810379 167.004166 31.3317566
v 23.810379 -32.9958344 31.3317566
v 23.810379 -32.9958344 31.3317566
v 23.7350006 67.0041656 31.2020721
v 42.6521301 67.0041656 21.2659302
v 42.7162933 167.004166 21.4015198
v 42.7162933 167.004166 21.4015198
v 42.7162933 -32.9958344 21.4015198
v 42.7162933 -32.9958344 21.4015198
v 42.6521301 67.0041656 21.2659302
v 42.6521301 67.0041656 21.2659302
v 42.7162933 167.004166 21.4015198
v 42.7162933 167.004166 21.4015198
v 42.7162933 -32.9958344 21.4015198
v 42.7162933 -32.9958344 21.4015198
v 42.6521301 67.0041656 21.2659302
v 62.8527145 67.0041656 12.6910706
v 62.9058151 167.004166 12.8313599
v 62.9058151 167.004166 12.8313599
v 62.9058151 -32.9958344 12.8313599
v 62.9058151 -32.9958344 12.8313599
v 62.8527145 67.0041656 12.6910706
v 62.8527145 67.0041656 12.6910706
v 62.9058151 167.004166 12.8313599
v 62.9058151 167.004166 12.8313599
v 62.9058151 -32.9958344 12.8313599
v 62.9058151 -32.9958344 12.8313599
v 62.8527145 67.0041656 12.6910706
v 84.1422958 67.0041656 5.55992126
v 84.1845245 167.004166 5.70385742
v 84.1845245 167.004166 5.70385742
v 84.1845245 -32.9958344 5.70385742
v 84.1845245 -32.9958344 5.70385742
v 84.1422958 67.0041656 5.55992126
v 84.1422958 67.0041656 5.55992126
v 84.1845245 167.004166 5.70385742
v 84.1845245 167.004166 5.70385742
v 84.1845245 -32.9958344 5.70385742
v 84.1845245 -32.9958344 5.70385742
v 84.1422958 67.0041656 5.55992126
v 106.31591 67.0041656 -0.0589294434
v 106.34742 167.004166 0.0877227783
v 106.34742 167.004166 0.0877227783
v 106.34742 -32.9958344 0.0877227783
v 106.34742 -32.9958344 0.0877227783
v 106.31591 67.0041656 -0.0589294434
v 106.31591 67.0041656 -0.0589294434
v 106.34742 167.004166 0.0877227783
v 106.34742 167.004166 0.0877227783
v 106.34742 -32.9958344 0.0877227783
v 106.34742 -32.9958344 0.0877227783
v 106.31591 67.0041656 -0.0589294434
v 129.160065 67.0041656 -4.11143494
v 129.181 167.004166 -3.96289062
v 129.181 167.004166 -3.96289062
v 129.181 -32.9958344 -3.96289062
v 129.181 -32.9958344 -3.96289062
v 129.160065 67.0041656 -4.11143494
v 129.160065 67.0041656 -4.11143494
v 129.181 167.004166 -3.96289062
v 129.181 167.004166 -3.96289062
v 129.181 -32.9958344 -3.96289062
v 129.181 -32.9958344 -3.96289062
v 129.160065 67.0041656 -4.11143494
v 152.454926 67.0041656 -6.55863953
v 152.465363 167.004166 -6.40899658
v 152.465363 167.004166 -6.40899658
v 152.465363 -32.9958344 -6.40899658
v 152.465363 -32.9958344 -6.40899658
v 152.454926 67.0041656 -6.55863953
v 152.454926 67.0041656 -6.55863953
v 152.465363 167.004166 -6.40899658
v 152.465363 167.004166 -6.40899658
v 152.465363 -32.9958344 -6.40899658
v 152.465363 -32.9958344 -6.40899658
v 152.454926 67.0041656 -6.55863953
v 175.976212 67.0041656 -7.3769989
v 175.976212 167.004166 -7.22698975
v 175.976212 167.004166 -7.22698975
v 175.976212 -32.9958344 -7.22698975
v 175.976212 -32.9958344 -7.22698975
v 175.976212 67.0041656 -7.3769989
v 175.976212 67.0041656 -7.3769989
v 175.976212 167.004166 -7.22698975
v 175.976212 167.004166 -7.22698975
v 175.976212 -32.9958344 -7.22698975
v 175.976212 -32.9958344 -7.22698975
v 175.976212 67.0041656 -7.3769989
v 199.497452 67.0041656 -6.55863953
v 199.487015 167.004166 -6.40899658
v 199.487015 167.004166 -6.40899658
v 199.487015 -32.9958344 -6.40899658
v 199.487015 -32.9958344 -6.40899658
v 199.497452 67.0041656 -6.55863953
v 199.497452 67.0041656 -6.55863953
v 199.487015 167.004166 -6.40899658
v 199.487015 167.004166 -6.40899658
v 199.487015 -32.9958344 -6.40899658
v 199.487015 -32.9958344 -6.40899658
v 199.497452 67.0041656 -6.55863953
v 222.792313 67.0041656 -4.11143494
v 222.771393 167.004166 -3.96289062
v 222.771393 167.004166 -3.96289062
v 222.771393 -32.9958344 -3.96289062
v 222.771393 -32.9958344 -3.96289062
v 222.792313 67.0041656 -4.11143494
v 222.792313 67.0041656 -4.11143494
v 222.771393 167.004166 -3.96289062
v 222.771393 167.004166 -3.96289062
v 222.771393 -32.9958344 -3.96289062
v 222.771393 -32.9958344 -3.96289062
v 222.792313 67.0041656 -4.11143494
v 245.636505 67.0041656 -0.0589141846
v 245.604996 167.004166 0.0877380371
v 245.604996 167.004166 0.0877380371
v 245.604996 -32.9958344 0.0877380371
v 245.604996 -32.9958344 0.0877380371
v 245.636505 67.0041656 -0.0589141846
v 245.636505 67.0041656 -0.0589141846
v 245.604996 167.004166 0.0877380371
v 245.604996 167.004166 0.0877380371
v 245.604996 -32.9958344 0.0877380371
v 245.604996 -32.9958344 0.0877380371
v 245.636505 67.0041656 -0.0589141846
v 267.810089 67.0041656 5.55990601
v 267.767883 167.004166 5.70384216
v 267.767883 167.004166 5.70384216
v 267.767883 -32.9958344 5.70384216
v 267.767883 -32.9958344 5.70384216
v 267.810089 67.0041656 5.55990601
v 267.810089 67.0041656 5.55990601
v 267.767883 167.004166 5.70384216
v 267.767883 167.004166 5.70384216
v 267.767883 -32.9958344 5.70384216
v 267.767883 -32.9958344 5.70384216
v 267.810089 67.0041656 5.55990601
v 289.09964 67.0041656 12.6910553
v 289.046539 167.004166 12.8313446
v 289.046539 167.004166 12.8313446
v 289.046539 -32.9958344 12.8313446
v 289.046539 -32.9958344 12.8313446
v 289.09964 67.0041656 12.6910553
v 289.09964 67.0041656 12.6910553
v 289.046539 167.004166 12.8313446
v 289.046539 167.004166 12.8313446
v 289.046539 -32.9958344 12.8313446
v 289.046539 -32.9958344 12.8313446
v 289.09964 67.0041656 12.6910553
v 309.300232 67.0041656 21.2659149
v 309.236084 167.004166 21.4015045
v 309.236084 167.004166 21.4015045
v 309.236084 -32.9958344 21.4015045
v 309.236084 -32.9958344 21.4015045
v 309.300232 67.0041656 21.2659149
v 309.300232 67.0041656 21.2659149
v 309.236084 167.004166 21.4015045
v 309.236084 167.004166 21.4015045
v 309.236084 -32.9958344 21.4015045
v 309.236084 -32.9958344 21.4015045
v 309.300232 67.0041656 21.2659149
v 328.217407 67.0041656 31.2020721
v 328.142029 167.004166 31.3317566
v 328.142029 167.004166 31.3317566
v 328.142029 -32.9958344 31.3317566
v 328.142029 -32.9958344 31.3317566
v 328.217407 67.0041656 31.2020721
v 328.217407 67.0041656 31.2020721
v 328.142029 167.004166 31.3317566
v 328.142029 167.004166 31.3317566
v 328.142029 -32.9958344 31.3317566
v 328.142029 -32.9958344 31.3317566
v 328.217407 67.0041656 31.2020721
v 345.668884 67.0041656 42.4039612
v 345.582214 167.004166 42.5263672
v 345.582214 167.004166 42.5263672
v 345.582214 -32.9958344 42.5263672
v 345.582214 -32.9958344 42.5263672
v 345.668884 67.0041656 42.4039612
v 345.668884 67.0041656 42.4039612
v 345.582214 167.004166 42.5263672
v 345.582214 167.004166 42.5263672
v 345.582214 -32.9958344 42.5263672
v 345.582214 -32.9958344 42.5263672
v 345.668884 67.0041656 42.4039612
v 361.486755 67.0041656 54.7638779
v 361.388733 167.004166 54.8774414
v 361.388733 167.004166 54.8774414
v 361.388733 -32.9958344 54.8774414
v 361.388733 -32.9958344 54.8774414
v 361.486755 67.0041656 54.7638779
v 361.486755 67.0041656 54.7638779
v 361.388733 167.004166 54.8774414
v 361.388733 167.004166 54.8774414
v 361.388733 -32.9958344 54.8774414
v 361.388733 -32.9958344 54.8774414
v 361.486755 67.0041656 54.7638779
v 375.518494 67.0041656 68.163002
v 375.409393 167.004166 68.2659378
v 375.409393 167.004166 68.2659378
v 375.409393 -32.9958344 68.2659378
v 375.409393 -32.9958344 68.2659378
v 375.518494 67.0041656 68.163002
v 375.518494 67.0041656 68.163002
v 375.409393 167.004166 68.2659378
v 375.409393 167.004166 68.2659378
v 375.409393 -32.9958344 68.2659378
v 375.409393 -32.9958344 68.2659378
v 375.518494 67.0041656 68.163002
v 387.628906 67.0041656 82.4724426
v 387.509186 167.004166 82.5628052
v 387.509186 167.004166 82.5628052
v 387.509186 -32.9958344 82.5628052
v 387.509186 -32.9958344 82.5628052
v 387.628906 67.0041656 82.4724426
v 387.628906 67.0041656 82.4724426
v 387.509186 167.004166 82.5628052
v 387.509186 167.004166 82.5628052
v 387.509186 -32.9958344 82.5628052
v 387.509186 -32.9958344 82.5628052
v 387.628906 67.0041656 82.4724426
v 397.701202 67.0041656 97.5545959
v 397.571716 167.004166 97.6303253
v 397.571716 167.004166 97.6303253
v 397.571716 -32.9958344 97.6303253
v 397.571716 -32.9958344 97.6303253
v 397.701202 67.0041656 97.5545959
v 397.701202 67.0041656 97.5545959
v 397.571716 167.004166 97.6303253
v 397.571716 167.004166 97.6303253
v 397.571716 -32.9958344 97.6303253
v 397.571716 -32.9958344 97.6303253
v 397.701202 67.0041656 97.5545959
v 405.638123 67.0041656 113.264252
v 405.500244 167.004166 113.323318
v 405.500244 167.004166 113.323318
v 405.500244 -32.9958344 113.323318
v 405.500244 -32.9958344 113.323318
v 405.638123 67.0041656 113.264252
v 405.638123 67.0041656 113.264252
v 405.500244 167.004166 113.323318
v 405.500244 167.004166 113.323318
v 405.500244 -32.9958344 113.323318
v 405.500244 -32.9958344 113.323318
v 405.638123 67.0041656 113.264252
v 411.362854 67.0041656 129.450119
v 411.218445 167.004166 129.490677
v 411.218445 167.004166 129.490677
v 411.218445 -32.9958344 129.490677
v 411.218445 -32.9958344 129.490677
v 411.362854 67.0041656 129.450119
v 411.362854 67.0041656 129.450119
v 411.218445 167.004166 129.490677
v 411.218445 167.004166 129.490677
v 411.218445 -32.9958344 129.490677
v 411.218445 -32.9958344 129.490677
v 411.362854 67.0041656 129.450119
v 414.820068 67.0041656 145.956116
v 414.671478 167.004166 145.976776
v 414.671478 167.004166 145.976776
v 414.671478 -32.9958344 145.976776
v 414.671478 -32.9958344 145.976776
v 414.820068 67.0041656 145.956116
v 414.820068 67.0041656 145.956116
v 414.671478 167.004166 145.976776
v 414.671478 167.004166 145.976776
v 414.671478 -32.9958344 145.976776
v 414.671478 -32.9958344 145.976776
v 414.820068 67.0041656 145.956116
v 415.976196 67.0041656 162.623016
v 415.826172 167.004166 162.623016
v 415.826172 167.004166 162.623016
v 415.826172 -32.9958344 162.623016
v 415.826172 -32.9958344 162.623016
v 415.976196 67.0041656 162.623016
v 415.976196 67.0041656 162.623016
v 415.826172 167.004166 162.623016
v 415.826172 167.004166 162.623016
v 415.826172 -32.9958344 162.623016
v 415.826172 -32.9958344 162.623016
v 415.976196 67.0041656 162.623016
v 414.820068 67.0041656 179.289871
v 414.671478 167.004166 179.269211
v 414.671478 167.004166 179.269211
v 414.671478 -32.9958344 179.269211
v 414.671478 -32.9958344 179.269211
v 414.820068 67.0041656 179.289871
v 414.820068 67.0041656 179.289871
v 414.671478 167.004166 179.269211
v 414.671478 167.004166 179.269211
v 414.671478 -32.9958344 179.269211
v 414.671478 -32.9958344 179.269211
v 414.820068 67.0041656 179.289871
v 411.362854 67.0041656 195.795868
v 411.218445 167.004166 195.75531
v 411.218445 167.004166 195.75531
v 411.218445 -32.9958344 195.75531
v 411.218445 -32.9958344 195.75531
v 411.362854 67.0041656 195.795868
v 411.362854 67.0041656 195.795868
v 411.218445 167.004166 195.75531
v 411.218445 167.004166 195.75531
v 411.218445 -32.9958344 195.75531
v 411.218445 -32.9958344 195.75531
v 411.362854 67.0041656 195.795868
v 405.638123 67.0041656 211.981735
v 405.500244 167.004166 211.922668
v 405.500244 167.004166 211.922668
v 405.500244 -32.9958344 211.922668
v 405.500244 -32.9958344 211.922668
v 405.638123 67.0041656 211.981735
v 405.638123 67.0041656 211.981735
v 405.500244 167.004166 211.922668
v 405.500244 167.004166 211.922668
v 405.500244 -32.9958344 211.922668
v 405.500244 -32.9958344 211.922668
v 405.638123 67.0041656 211.981735
v 397.701202 67.0041656 227.691406
v 397.571716 167.004166 227.615662
v 397.571716 167.004166 227.615662
v 397.571716 -32.9958344 227.615662
v 397.571716 -32.9958344 227.615662
v 397.701202 67.0041656 227.691406
v 397.701202 67.0041656 227.691406
v 397.571716 167.004166 227.615662
v 397.571716 167.004166 227.615662
v 397.571716 -32.9958344 227.615662
v 397.571716 -32.9958344 227.615662
v 397.701202 67.0041656 227.691406
v 387.628906 67.0041656 242.77356
v 387.509186 167.004166 242.683197
v 387.509186 167.004166 242.683197
v 387.509186 -32.9958344 242.683197
v 387.509186 -32.9958344 242.683197
v 387.628906 67.0041656 242.77356
v 387.628906 67.0041656 242.77356
v 387.509186 167.004166 242.683197
v 387.509186 167.004166 242.683197
v 387.509186 -32.9958344 242.683197
v 387.509186 -32.9958344 242.683197
v 387.628906 67.0041656 242.77356
v 375.518494 67.0041656 257.083008
v 375.409363 167.004166 256.980072
v 375.409363 167.004166 256.980072
v 375.409363 -32.9958344 256.980072
v 375.409363 -32.9958344 256.980072
v 375.518494 67.0041656 257.083008
v 375.518494 67.0041656 257.083008
v 375.409363 167.004166 256.980072
v 375.409363 167.004166 256.980072
v 375.409363 -32.9958344 256.980072
v 375.409363 -32.9958344 256.980072
v 375.518494 67.0041656 257.083008
v 361.486755 67.0041656 270.482117
v 361.388733 167.004166 270.36853
v 361.388733 167.004166 270.36853
v 361.388733 -32.9958344 270.36853
v 361.388733 -32.9958344 270.36853
v 361.486755 67.0041656 270.482117
v 361.486755 67.0041656 270.482117
v 361.388733 167.004166 270.36853
v 361.388733 167.004166 270.36853
v 361.388733 -32.9958344 270.36853
v 361.388733 -32.9958344 270.36853
v 361.486755 67.0041656 270.482117
v 345.668915 67.0041656 282.842041
v 345.582214 167.004166 282.719635
v 345.582214 167.004166 282.719635
v 345.582214 -32.9958344 282.719635
v 345.582214 -32.9958344 282.719635
v 345.668915 67.0041656 282.842041
v 345.668915 67.0041656 282.842041
v 345.582214 167.004166 282.719635
v 345.582214 167.004166 282.719635
v 345.582214 -32.9958344 282.719635
v 345.582214 -32.9958344 282.719635
v 345.668915 67.0041656 282.842041
v 328.217407 67.0041656 294.043945
v 328.142029 167.004166 293.914246
v 328.142029 167.004166 293.914246
v 328.142029 -32.9958344 293.914246
v 328.142029 -32.9958344 293.914246
v 328.217407 67.0041656 294.043945
v 328.217407 67.0041656 294.043945
v 328.142029 167.004166 293.914246
v 328.142029 167.004166 293.914246
v 328.142029 -32.9958344 293.914246
v 328.142029 -32.9958344 293.914246
v 328.217407 67.0041656 294.043945
v 309.300293 67.0041656 303.980042
v 309.236145 167.004166 303.844482
v 309.236145 167.004166 303.844482
v 309.236145 -32.9958344 303.844482
v 309.236145 -32.9958344 303.844482
v 309.300293 67.0041656 303.980042
v 309.300293 67.0041656 303.980042
v 309.236145 167.004166 303.844482
v 309.236145 167.004166 303.844482
v 309.236145 -32.9958344 303.844482
v 309.236145 -32.9958344 303.844482
v 309.300293 67.0041656 303.980042
v 289.09967 67.0041656 312.554932
v 289.04657 167.004166 312.414673
v 289.04657 167.004166 312.414673
v 289.04657 -32.9958344 312.414673
v 289.04657 -32.9958344 312.414673
v 289.09967 67.0041656 312.554932
v 289.09967 67.0041656 312.554932
v 289.04657 167.004166 312.414673
v 289.04657 167.004166 312.414673
v 289.04657 -32.9958344 312.414673
v 289.04657 -32.9958344 312.414673
v 289.09967 67.0041656 312.554932
v 267.81012 67.0041656 319.686096
v 267.767914 167.004166 319.542145
v 267.767914 167.004166 319.542145
v 267.767914 -32.9958344 319.542145
v 267.767914 -32.9958344 319.542145
v 267.81012 67.0041656 319.686096
v 267.81012 67.0041656 319.686096
v 267.767914 167.004166 319.542145
v 267.767914 167.004166 319.542145
v 267.767914 -32.9958344 319.542145
v 267.767914 -32.9958344 319.542145
v 267.81012 67.0041656 319.686096
v 245.636459 67.0041656 325.304932
v 245.60495 167.004166 325.158264
v 245.60495 167.004166 325.158264
v 245.60495 -32.9958344 325.158264
v 245.60495 -32.9958344 325.158264
v 245.636459 67.0041656 325.304932
v 245.636459 67.0041656 325.304932
v 245.60495 167.004166 325.158264
v 245.60495 167.004166 325.158264
v 245.60495 -32.9958344 325.158264
v 245.60495 -32.9958344 325.158264
v 245.636459 67.0041656 325.304932
v 222.792328 67.0041656 329.357422
v 222.771408 167.004166 329.208893
v 222.771408 167.004166 329.208893
v 222.771408 -32.9958344 329.208893
v 222.771408 -32.9958344 329.208893
v 222.792328 67.0041656 329.357422
v 222.792328 67.0041656 329.357422
v 222.771408 167.004166 329.208893
v 222.771408 167.004166 329.208893
v 222.771408 -32.9958344 329.208893
v 222.771408 -32.9958344 329.208893
v 222.792328 67.0041656 329.357422
v 199.497528 67.0041656 331.804626
v 199.487091 167.004166 331.654999
v 199.487091 167.004166 331.654999
v 199.487091 -32.9958344 331.654999
v 199.487091 -32.9958344 331.654999
v 199.497528 67.0041656 331.804626
v 199.497528 67.0041656 331.804626
v 199.487091 167.004166 331.654999
v 199.487091 167.004166 331.654999
v 199.487091 -32.9958344 331.654999
v 199.487091 -32.9958344 331.654999
v 199.497528 67.0041656 331.804626
v 175.976196 67.0041656 332.622986
v 175.976196 167.004166 332.472992
v 175.976196 167.004166 332.472992
v 175.976196 -32.9958344 332.472992
v 175.976196 -32.9958344 332.472992
v 175.976196 67.0041656 332.622986
v 175.976196 67.0041656 332.622986
v 175.976196 167.004166 332.472992
v 175.976196 167.004166 332.472992
v 175.976196 -32.9958344 332.472992
v 175.976196 -32.9958344 332.472992
v 175.976196 67.0041656 332.622986
v 152.454971 67.0041656 331.804626
v 152.465408 167.004166 331.654999
v 152.465408 167.004166 331.654999
v 152.465408 -32.9958344 331.654999
v 152.465408 -32.9958344 331.654999
v 152.454971 67.0041656 331.804626
v 152.454971 67.0041656 331.804626
v 152.465408 167.004166 331.654999
v 152.465408 167.004166 331.654999
v 152.465408 -32.9958344 331.654999
v 152.465408 -32.9958344 331.654999
v 152.454971 67.0041656 331.804626
v 129.160065 67.0041656 329.357422
v 129.180984 167.004166 329.208893
v 129.180984 167.004166 329.208893
v 129.180984 -32.9958344 329.208893
v 129.180984 -32.9958344 329.208893
v 129.160065 67.0041656 329.357422
v 129.160065 67.0041656 329.357422
v 129.180984 167.004166 329.208893
v 129.180984 167.004166 329.208893
v 129.180984 -32.9958344 329.208893
v 129.180984 -32.9958344 329.208893
v 129.160065 67.0041656 329.357422
v 106.315926 67.0041656 325.304932
v 106.347435 167.004166 325.158264
v 106.347435 167.004166 325.158264
v 106.347435 -32.9958344 325.158264
v 106.347435 -32.9958344 325.158264
v 106.315926 67.0041656 325.304932
v 106.315926 67.0041656 325.304932
v 106.347435 167.004166 325.158264
v 106.347435 167.004166 325.158264
v 106.347435 -32.9958344 325.158264
v 106.347435 -32.9958344 325.158264
v 106.315926 67.0041656 325.304932
v 84.1422501 67.0041656 319.686096
v 84.1844788 167.004166 319.542145
v 84.1844788 167.004166 319.542145
v 84.1844788 -32.9958344 319.542145
v 84.1844788 -32.9958344 319.542145
v 84.1422501 67.0041656 319.686096
v 84.1422501 67.0041656 319.686096
v 84.1844788 167.004166 319.542145
v 84.1844788 167.004166 319.542145
v 84.1844788 -32.9958344 319.542145
v 84.1844788 -32.9958344 319.542145
v 84.1422501 67.0041656 319.686096
v 62.8527298 67.0041656 312.554932
v 62.9058304 167.004166 312.414673
v 62.9058304 167.004166 312.414673
v 62.9058304 -32.9958344 312.414673
v 62.9058304 -32.9958344 312.414673
v 62.8527298 67.0041656 312.554932
v 62.8527298 67.0041656 312.554932
v 62.9058304 167.004166 312.414673
v 62.9058304 167.004166 312.414673
v 62.9058304 -32.9958344 312.414673
v 62.9058304 -32.9958344 312.414673
v 62.8527298 67.0041656 312.554932
v 42.6521759 67.0041656 303.980103
v 42.7163391 167.004166 303.844482
v 42.7163391 167.004166 303.844482
v 42.7163391 -32.9958344 303.844482
v 42.7163391 -32.9958344 303.844482
v 42.6521759 67.0041656 303.980103
v 42.6521759 67.0041656 303.980103
v 42.7163391 167.004166 303.844482
v 42.7163391 167.004166 303.844482
v 42.7163391 -32.9958344 303.844482
v 42.7163391 -32.9958344 303.844482
v 42.6521759 67.0041656 303.980103
v 23.7349854 67.0041656 294.043945
v 23.8103638 167.004166 293.914246
v 23.8103638 167.004166 293.914246
v 23.8103638 -32.9958344 293.914246
v 23.8103638 -32.9958344 293.914246
v 23.7349854 67.0041656 294.043945
v 23.7349854 67.0041656 294.043945
v 23.8103638 167.004166 293.914246
v 23.8103638 167.004166 293.914246
v 23.8103638 -32.9958344 293.914246
v 23.8103638 -32.9958344 293.914246
v 23.7349854 67.0041656 294.043945
v 6.2835083 67.0041656 282.842072
v 6.37020874 167.004166 282.719666
v 6.37020874 167.004166 282.719666
v 6.37020874 -32.9958344 282.719666
v 6.37020874 -32.9958344 282.719666
v 6.2835083 67.0041656 282.842072
v 6.2835083 67.0041656 282.842072
v 6.37020874 167.004166 282.719666
v 6.37020874 167.004166 282.719666
v 6.37020874 -32.9958344 282.719666
v 6.37020874 -32.9958344 282.719666
v 6.2835083 67.0041656 282.842072
v -9.53436279 67.0041656 270.482117
v -9.43635559 167.004166 270.36853
v -9.43635559 167.004166 270.36853
v -9.43635559 -32.9958344 270.36853
v -9.43635559 -32.9958344 270.36853
v -9.53436279 67.0041656 270.482117
v -9.53436279 67.0041656 270.482117
v -9.43635559 167.004166 270.36853
v -9.43635559 167.004166 270.36853
v -9.43635559 -32.9958344 270.36853
v -9.43635559 -32.9958344 270.36853
v -9.53436279 67.0041656 270.482117
v -23.5660858 67.0041656 257.083008
v -23.4569855 167.004166 256.980072
v -23.4569855 167.004166 256.980072
v -23.4569855 -32.9958344 256.980072
v -23.4569855 -32.9958344 256.980072
v -23.5660858 67.0041656 257.083008
v -23.5660858 67.0041656 257.083008
v -23.4569855 167.004166 256.980072
v -23.4569855 167.004166 256.980072
v -23.4569855 -32.9958344 256.980072
v -23.4569855 -32.9958344 256.980072
v -23.5660858 67.0041656 257.083008
v -35.6764984 67.0041656 242.77359
v -35.556778 167.004166 242.683228
v -35.556778 167.004166 242.683228
v -35.556778 -32.9958344 242.683228
v -35.556778 -32.9958344 242.683228
v -35.6764984 67.0041656 242.77359
v -35.6764984 67.0041656 242.77359
v -35.556778 167.004166 242.683228
v -35.556778 167.004166 242.683228
v -35.556778 -32.9958344 242.683228
v -35.556778 -32.9958344 242.683228
v -35.6764984 67.0041656 242.77359
v -45.7488251 67.0041656 227.691406
v -45.619339 167.004166 227.615662
v -45.619339 167.004166 227.615662
v -45.619339 -32.9958344 227.615662
v -45.619339 -32.9958344 227.615662
v -45.7488251 67.0041656 227.691406
v -45.7488251 67.0041656 227.691406
v -45.619339 167.004166 227.615662
v -45.619339 167.004166 227.615662
v -45.619339 -32.9958344 227.615662
v -45.619339 -32.9958344 227.615662
v -45.7488251 67.0041656 227.691406
v -53.6856995 67.0041656 211.981766
v -53.547821 167.004166 211.922699
v -53.547821 167.004166 211.922699
v -53.547821 -32.9958344 211.922699
v -53.547821 -32.9958344 211.922699
v -53.6856995 67.0041656 211.981766
v -53.6856995 67.0041656 211.981766
v -53.547821 167.004166 211.922699
v -53.547821 167.004166 211.922699
v -53.547821 -32.9958344 211.922699
v -53.547821 -32.9958344 211.922699
v -53.6856995 67.0041656 211.981766
v -59.4104614 67.0041656 195.795868
v -59.2660522 167.004166 195.75531
v -59.2660522 167.004166 195.75531
v -59.2660522 -32.9958344 195.75531
v -59.2660522 -32.9958344 195.75531
v -59.4104614 67.0041656 195.795868
v -59.4104614 67.0041656 195.795868
v -59.2660522 167.004166 195.75531
v -59.2660522 167.004166 195.75531
v -59.2660522 -32.9958344 195.75531
v -59.2660522 -32.9958344 195.75531
v -59.4104614 67.0041656 195.795868
v -62.8676605 67.0041656 179.289902
v -62.7190857 167.004166 179.269241
v -62.7190857 167.004166 179.269241
v -62.7190857 -32.9958344 179.269241
v -62.7190857 -32.9958344 179.269241
v -62.8676605 67.0041656 179.289902
v -62.8676605 67.0041656 179.289902
v -62.7190857 167.004166 179.269241
v -62.7190857 167.004166 179.269241
v -62.7190857 -32.9958344 179.269241
v -62.7190857 -32.9958344 179.269241
v -62.8676605 67.0041656 179.289902
v -64.0238037 67.0041656 162.622971
v -63.8737946 167.004166 162.622971
v -63.8737946 167.004166 162.622971
v -63.8737946 -32.9958344 162.622971
v -63.8737946 -32.9958344 162.622971
v -64.0238037 67.0041656 162.622971
vt 240 0
vt 239.849991 0
vt 0 0.0866025388
vt 0 -0.0866025388
vt -239.849991 0
vt -240 0
vt 238.843857 -16.6668873
vt 238.695282 -16.646225
vt 16.646225 0.0866025388
vt 16.646225 -0.0866025388
vt -238.695282 -16.646225
vt -238.843857 -16.6668873
vt 238.843857 -16.6668873
vt 238.695282 -16.646225
vt 16.646225 0.0866025388
vt 16.646225 -0.0866025388
vt -238.695282 -16.646225
vt -238.843857 -16.6668873
vt 235.386642 -33.1728821
vt 235.242233 -33.1323242
vt 33.1323242 0.0866025388
vt 33.1323242 -0.0866025388
vt -235.242233 -33.1323242
vt -235.386642 -33.1728821
vt 235.386642 -33.1728821
vt 235.242233 -33.1323242
vt 33.1323242 0.0866025388
vt 33.1323242 -0.0866025388
vt -235.242233 -33.1323242
vt -235.386642 -33.1728821
vt 229.661911 -49.3587341
vt 229.524033 -49.299675
vt 49.299675 0.0866025388
vt 49.299675 -0.0866025388
vt -229.524033 -49.299675
vt -229.661911 -49.3587341
vt 229.661911 -49.3587341
vt 229.524033 -49.299675
vt 49.299675 0.0866025388
vt 49.299675 -0.0866025388
vt -229.524033 -49.299675
vt -229.661911 -49.3587341
vt 221.725006 -65.0683975
vt 221.59552 -64.9926682
vt 64.9926682 0.0866025388
vt 64.9926682 -0.0866025388
vt -221.59552 -64.9926682
vt -221.725006 -65.0683975
vt 221.725006 -65.0683975
vt 221.59552 -64.9926682
vt 64.9926682 0.0866025388
vt 64.9926682 -0.0866025388
vt -221.59552 -64.9926682
vt -221.725006 -65.0683975
vt 211.652725 -80.1505432
vt 211.533005 -80.0601807
vt 80.0601807 0.0866025388
vt 80.0601807 -0.0866025388
vt -211.533005 -80.0601807
vt -211.652725 -80.1505432
vt 211.652725 -80.1505432
vt 211.533005 -80.0601807
vt 80.0601807 0.0866025388
vt 80.0601807 -0.0866025388
vt -211.533005 -80.0601807
vt -211.652725 -80.1505432
vt 199.542282 -94.4600067
vt 199.433182 -94.3570709
vt 94.3570709 0.0866025388
vt 94.3570709 -0.0866025388
vt -199.433182 -94.3570709
vt -199.542282 -94.4600067
vt 199.542282 -94.4600067
vt 199.433182 -94.3570709
vt -199.433182 0.0866025388
vt -199.433182 -0.0866025388
vt -199.433182 -94.3570709
vt -199.542282 -94.4600067
vt 185.510544 -107.859123
vt 185.412537 -107.74556
vt -185.412537 0.0866025388
vt -185.412537 -0.0866025388
vt -185.412537 -107.74556
vt -185.510544 -107.859123
vt 185.510544 -107.859123
vt 185.412537 -107.74556
vt -185.412537 0.0866025388
vt -185.412537 -0.0866025388
vt -185.412537 -107.74556
vt -185.510544 -107.859123
vt 169.692703 -120.21904
vt 169.606003 -120.096634
vt -169.606003 0.0866025388
vt -169.606003 -0.0866025388
vt -169.606003 -120.096634
vt -169.692703 -120.21904
vt 169.692703 -120.21904
vt 169.606003 -120.096634
vt -169.606003 0.0866025388
vt -169.606003 -0.0866025388
vt -169.606003 -120.096634
vt -169.692703 -120.21904
vt 152.241196 -131.420929
vt 152.165817 -131.291245
vt -152.165817 0.0866025388
vt -152.165817 -0.0866025388
vt -152.165817 -131.291245
vt -152.241196 -131.420929
vt 152.241196 -131.420929
vt 152.165817 -131.291245
vt -152.165817 0.0866025388
vt -152.165817 -0.0866025388
vt -152.165817 -131.291245
vt -152.241196 -131.420929
vt 133.324066 -141.357071
vt 133.259903 -141.221481
vt -133.259903 0.0866025388
vt -133.259903 -0.0866025388
vt -133.259903 -141.221481
vt -133.324066 -141.357071
vt 133.324066 -141.357071
vt 133.259903 -141.221481
vt -133.259903 0.0866025388
vt -133.259903 -0.0866025388
vt -133.259903 -141.221481
vt -133.324066 -141.357071
vt 113.123482 -149.931931
vt 113.070381 -149.791641
vt -113.070381 0.0866025388
vt -113.070381 -0.0866025388
vt -113.070381 -149.791641
vt -113.123482 -149.931931
vt 113.123482 -149.931931
vt 113.070381 -149.791641
vt -113.070381 0.0866025388
vt -113.070381 -0.0866025388
vt -113.070381 -149.791641
vt -113.123482 -149.931931
vt 91.8339005 -157.06308
vt 91.7916718 -156.919144
vt -91.7916718 0.0866025388
vt -91.7916718 -0.0866025388
vt -91.7916718 -156.919144
vt -91.8339005 -157.06308
vt 91.8339005 -157.06308
vt 91.7916718 -156.919144
vt -91.7916718 0.0866025388
vt -91.7916718 -0.0866025388
vt -91.7916718 -156.919144
vt -91.8339005 -157.06308
vt 69.6602859 -162.681931
vt 69.6287766 -162.535278
vt -69.6287766 0.0866025388
vt -69.6287766 -0.0866025388
vt -69.6287766 -162.535278
vt -69.6602859 -162.681931
vt 69.6602859 -162.681931
vt 69.6287766 -162.535278
vt -69.6287766 0.0866025388
vt -69.6287766 -0.0866025388
vt -69.6287766 -162.535278
vt -69.6602859 -162.681931
vt 46.816124 -166.734436
vt 46.7952003 -166.585892
vt -46.7952003 0.0866025388
vt -46.7952003 -0.0866025388
vt -46.7952003 -166.585892
vt -46.816124 -166.734436
vt 46.816124 -166.734436
vt 46.7952003 -166.585892
vt -46.7952003 0.0866025388
vt -46.7952003 -0.0866025388
vt -46.7952003 -166.585892
vt -46.816124 -166.734436
vt 23.5212669 -169.181641
vt 23.5108299 -169.031998
vt -23.5108299 0.0866025388
vt -23.5108299 -0.0866025388
vt -23.5108299 -169.031998
vt -23.5212669 -169.181641
vt 23.5212669 -169.181641
vt 23.5108299 -169.031998
vt -23.5108299 0.0866025388
vt -23.5108299 -0.0866025388
vt -23.5108299 -169.031998
vt -23.5212669 -169.181641
vt -1.04804012E-05 -170
vt -1.04893425E-05 -169.849991
vt 1.04893425E-05 0.0866025388
vt 1.04893425E-05 -0.0866025388
vt 1.04893425E-05 -169.849991
vt 1.04804012E-05 -170
vt -1.04804012E-05 -170
vt -1.04893425E-05 -169.849991
vt 1.04893425E-05 0.0866025388
vt 1.04893425E-05 -0.0866025388
vt 1.04893425E-05 -169.849991
vt 1.04804012E-05 -170
vt -23.5212612 -169.181641
vt -23.5108242 -169.031998
vt 23.5108242 0.0866025388
vt 23.5108242 -0.0866025388
vt 23.5108242 -169.031998
vt 23.5212612 -169.181641
vt -23.5212612 -169.181641
vt -23.5108242 -169.031998
vt 23.5108242 0.0866025388
vt 23.5108242 -0.0866025388
vt 23.5108242 -169.031998
vt 23.5212612 -169.181641
vt -46.8161163 -166.734436
vt -46.7951927 -166.585892
vt 46.7951927 0.0866025388
vt 46.7951927 -0.0866025388
vt 46.7951927 -166.585892
vt 46.8161163 -166.734436
vt -46.8161163 -166.734436
vt -46.7951927 -166.585892
vt 46.7951927 0.0866025388
vt 46.7951927 -0.0866025388
vt 46.7951927 -166.585892
vt 46.8161163 -166.734436
vt -69.6603088 -162.681915
vt -69.6287994 -162.535263
vt 69.6287994 0.0866025388
vt 69.6287994 -0.0866025388
vt 69.6287994 -162.535263
vt 69.6603088 -162.681915
vt -69.6603088 -162.681915
vt -69.6287994 -162.535263
vt 69.6287994 0.0866025388
vt 69.6287994 -0.0866025388
vt 69.6287994 -162.535263
vt 69.6603088 -162.681915
vt -91.8339005 -157.063095
vt -91.7916718 -156.919159
vt 91.7916718 0.0866025388
vt 91.7916718 -0.0866025388
vt 91.7916718 -156.919159
vt 91.8339005 -157.063095
vt -91.8339005 -157.063095
vt -91.7916718 -156.919159
vt 91.7916718 0.0866025388
vt 91.7916718 -0.0866025388
vt 91.7916718 -156.919159
vt 91.8339005 -157.063095
vt -113.123451 -149.931946
vt -113.070351 -149.791656
vt 113.070351 0.0866025388
vt 113.070351 -0.0866025388
vt 113.070351 -149.791656
vt 113.123451 -149.931946
vt -113.123451 -149.931946
vt -113.070351 -149.791656
vt 113.070351 0.0866025388
vt 113.070351 -0.0866025388
vt 113.070351 -149.791656
vt 113.123451 -149.931946
vt -133.324051 -141.357086
vt -133.259888 -141.221497
vt 133.259888 0.0866025388
vt 133.259888 -0.0866025388
vt 133.259888 -141.221497
vt 133.324051 -141.357086
vt -133.324051 -141.357086
vt -133.259888 -141.221497
vt 133.259888 0.0866025388
vt 133.259888 -0.0866025388
vt 133.259888 -141.221497
vt 133.324051 -141.357086
vt -152.241196 -131.420929
vt -152.165817 -131.291245
vt 152.165817 0.0866025388
vt 152.165817 -0.0866025388
vt 152.165817 -131.291245
vt 152.241196 -131.420929
vt -152.241196 -131.420929
vt -152.165817 -131.291245
vt 152.165817 0.0866025388
vt 152.165817 -0.0866025388
vt 152.165817 -131.291245
vt 152.241196 -131.420929
vt -169.692703 -120.21904
vt -169.606003 -120.096634
vt 169.606003 0.0866025388
vt 169.606003 -0.0866025388
vt 169.606003 -120.096634
vt 169.692703 -120.21904
vt -169.692703 -120.21904
vt -169.606003 -120.096634
vt 169.606003 0.0866025388
vt 169.606003 -0.0866025388
vt 169.606003 -120.096634
vt 169.692703 -120.21904
vt -185.510544 -107.859123
vt -185.412537 -107.74556
vt 185.412537 0.0866025388
vt 185.412537 -0.0866025388
vt 185.412537 -107.74556
vt 185.510544 -107.859123
vt -185.510544 -107.859123
vt -185.412537 -107.74556
vt 185.412537 0.0866025388
vt 185.412537 -0.0866025388
vt 185.412537 -107.74556
vt 185.510544 -107.859123
vt -199.542297 -94.4599991
vt -199.433197 -94.3570633
vt 199.433197 0.0866025388
vt 199.433197 -0.0866025388
vt 199.433197 -94.3570633
vt 199.542297 -94.4599991
vt -199.542297 -94.4599991
vt -199.433197 -94.3570633
vt -94.3570633 0.0866025388
vt -94.3570633 -0.0866025388
vt 199.433197 -94.3570633
vt 199.542297 -94.4599991
vt -211.65271 -80.1505585
vt -211.53299 -80.0601959
vt -80.0601959 0.0866025388
vt -80.0601959 -0.0866025388
vt 211.53299 -80.0601959
vt 211.65271 -80.1505585
vt -211.65271 -80.1505585
vt -211.53299 -80.0601959
vt -80.0601959 0.0866025388
vt -80.0601959 -0.0866025388
vt 211.53299 -80.0601959
vt 211.65271 -80.1505585
vt -221.725006 -65.0684052
vt -221.59552 -64.9926758
vt -64.9926758 0.0866025388
vt -64.9926758 -0.0866025388
vt 221.59552 -64.9926758
vt 221.725006 -65.0684052
vt -221.725006 -65.0684052
vt -221.59552 -64.9926758
vt -64.9926758 0.0866025388
vt -64.9926758 -0.0866025388
vt 221.59552 -64.9926758
vt 221.725006 -65.0684052
vt -229.661911 -49.3587456
vt -229.524033 -49.2996864
vt -49.2996864 0.0866025388
vt -49.2996864 -0.0866025388
vt 229.524033 -49.2996864
vt 229.661911 -49.3587456
vt -229.661911 -49.3587456
vt -229.524033 -49.2996864
vt -49.2996864 0.0866025388
vt -49.2996864 -0.0866025388
vt 229.524033 -49.2996864
vt 229.661911 -49.3587456
vt -235.386658 -33.1728821
vt -235.242249 -33.1323242
vt -33.1323242 0.0866025388
vt -33.1323242 -0.0866025388
vt 235.242249 -33.1323242
vt 235.386658 -33.1728821
vt -235.386658 -33.1728821
vt -235.242249 -33.1323242
vt -33.1323242 0.0866025388
vt -33.1323242 -0.0866025388
vt 235.242249 -33.1323242
vt 235.386658 -33.1728821
vt -238.843857 -16.6668797
vt -238.695282 -16.6462173
vt -16.6462173 0.0866025388
vt -16.6462173 -0.0866025388
vt 238.695282 -16.6462173
vt 238.843857 -16.6668797
vt -238.843857 -16.6668797
vt -238.695282 -16.6462173
vt -16.6462173 0.0866025388
vt -16.6462173 -0.0866025388
vt 238.695282 -16.6462173
vt 238.843857 -16.6668797
vt -240 1.48443869E-05
vt -239.849991 1.48575E-05
vt 1.48575E-05 0.0866025388
vt 1.48575E-05 -0.0866025388
vt 239.849991 1.48575E-05
vt 240 1.48443869E-05
vt -240 1.48443869E-05
vt -239.849991 1.48575E-05
vt 1.48575E-05 0.0866025388
vt 1.48575E-05 -0.0866025388
vt 239.849991 1.48575E-05
vt 240 1.48443869E-05
vt -238.843857 16.6668682
vt -238.695282 16.6462059
vt 16.6462059 0.0866025388
vt 16.6462059 -0.0866025388
vt 238.695282 16.6462059
vt 238.843857 16.6668682
vt -238.843857 16.6668682
vt -238.695282 16.6462059
vt 16.6462059 0.0866025388
vt 16.6462059 -0.0866025388
vt 238.695282 16.6462059
vt 238.843857 16.6668682
vt -235.386658 33.1728706
vt -235.242249 33.1323128
vt 33.1323128 0.0866025388
vt 33.1323128 -0.0866025388
vt 235.242249 33.1323128
vt 235.386658 33.1728706
vt -235.386658 33.1728706
vt -235.242249 33.1323128
vt 33.1323128 0.0866025388
vt 33.1323128 -0.0866025388
vt 235.242249 33.1323128
vt 235.386658 33.1728706
vt -229.661911 49.3587303
vt -229.524033 49.2996712
vt 49.2996712 0.0866025388
vt 49.2996712 -0.0866025388
vt 229.524033 49.2996712
vt 229.661911 49.3587303
vt -229.661911 49.3587303
vt -229.524033 49.2996712
vt 49.2996712 0.0866025388
vt 49.2996712 -0.0866025388
vt 229.524033 49.2996712
vt 229.661911 49.3587303
vt -221.725006 65.0683975
vt -221.59552 64.9926682
vt 64.9926682 0.0866025388
vt 64.9926682 -0.0866025388
vt 221.59552 64.9926682
vt 221.725006 65.0683975
vt -221.725006 65.0683975
vt -221.59552 64.9926682
vt 64.9926682 0.0866025388
vt 64.9926682 -0.0866025388
vt 221.59552 64.9926682
vt 221.725006 65.0683975
vt -211.65271 80.1505508
vt -211.53299 80.0601883
vt 80.0601883 0.0866025388
vt 80.0601883 -0.0866025388
vt 211.53299 80.0601883
vt 211.65271 80.1505508
vt -211.65271 80.1505508
vt -211.53299 80.0601883
vt 80.0601883 0.0866025388
vt 80.0601883 -0.0866025388
vt 211.53299 80.0601883
vt 211.65271 80.1505508
vt -199.542282 94.4600143
vt -199.433182 94.3570786
vt 94.3570786 0.0866025388
vt 94.3570786 -0.0866025388
vt 199.433182 94.3570786
vt 199.542282 94.4600143
vt -199.542282 94.4600143
vt -199.433182 94.3570786
vt -199.433182 0.0866025388
vt -199.433182 -0.0866025388
vt 199.433182 94.3570786
vt 199.542282 94.4600143
vt -185.510559 107.859108
vt -185.412552 107.745544
vt -185.412552 0.0866025388
vt -185.412552 -0.0866025388
vt 185.412552 107.745544
vt 185.510559 107.859108
vt -185.510559 107.859108
vt -185.412552 107.745544
vt -185.412552 0.0866025388
vt -185.412552 -0.0866025388
vt 185.412552 107.745544
vt 185.510559 107.859108
vt -169.692719 120.219032
vt -169.606018 120.096626
vt -169.606018 0.0866025388
vt -169.606018 -0.0866025388
vt 169.606018 120.096626
vt 169.692719 120.219032
vt -169.692719 120.219032
vt -169.606018 120.096626
vt -169.606018 0.0866025388
vt -169.606018 -0.0866025388
vt 169.606018 120.096626
vt 169.692719 120.219032
vt -152.241211 131.420929
vt -152.165833 131.291245
vt -152.165833 0.0866025388
vt -152.165833 -0.0866025388
vt 152.165833 131.291245
vt 152.241211 131.420929
vt -152.241211 131.420929
vt -152.165833 131.291245
vt -152.165833 0.0866025388
vt -152.165833 -0.0866025388
vt 152.165833 131.291245
vt 152.241211 131.420929
vt -133.324112 141.357056
vt -133.259949 141.221466
vt -133.259949 0.0866025388
vt -133.259949 -0.0866025388
vt 133.259949 141.221466
vt 133.324112 141.357056
vt -133.324112 141.357056
vt -133.259949 141.221466
vt -133.259949 0.0866025388
vt -133.259949 -0.0866025388
vt 133.259949 141.221466
vt 133.324112 141.357056
vt -113.123459 149.931946
vt -113.070358 149.791656
vt -113.070358 0.0866025388
vt -113.070358 -0.0866025388
vt 113.070358 149.791656
vt 113.123459 149.931946
vt -113.123459 149.931946
vt -113.070358 149.791656
vt -113.070358 0.0866025388
vt -113.070358 -0.0866025388
vt 113.070358 149.791656
vt 113.123459 149.931946
vt -91.8339386 157.06308
vt -91.7917099 156.919144
vt -91.7917099 0.0866025388
vt -91.7917099 -0.0866025388
vt 91.7917099 156.919144
vt 91.8339386 157.06308
vt -91.8339386 157.06308
vt -91.7917099 156.919144
vt -91.7917099 0.0866025388
vt -91.7917099 -0.0866025388
vt 91.7917099 156.919144
vt 91.8339386 157.06308
vt -69.6602631 162.681931
vt -69.6287537 162.535278
vt -69.6287537 0.0866025388
vt -69.6287537 -0.0866025388
vt 69.6287537 162.535278
vt 69.6602631 162.681931
vt -69.6602631 162.681931
vt -69.6287537 162.535278
vt -69.6287537 0.0866025388
vt -69.6287537 -0.0866025388
vt 69.6287537 162.535278
vt 69.6602631 162.681931
vt -46.8161316 166.734436
vt -46.795208 166.585892
vt -46.795208 0.0866025388
vt -46.795208 -0.0866025388
vt 46.795208 166.585892
vt 46.8161316 166.734436
vt -46.8161316 166.734436
vt -46.795208 166.585892
vt -46.795208 0.0866025388
vt -46.795208 -0.0866025388
vt 46.795208 166.585892
vt 46.8161316 166.734436
vt -23.5213318 169.181641
vt -23.5108948 169.031998
vt -23.5108948 0.0866025388
vt -23.5108948 -0.0866025388
vt 23.5108948 169.031998
vt 23.5213318 169.181641
vt -23.5213318 169.181641
vt -23.5108948 169.031998
vt -23.5108948 0.0866025388
vt -23.5108948 -0.0866025388
vt 23.5108948 169.031998
vt 23.5213318 169.181641
vt 2.86673912E-06 170
vt 2.85779856E-06 169.849991
vt 2.85779856E-06 0.0866025388
vt 2.85779856E-06 -0.0866025388
vt -2.85779856E-06 169.849991
vt -2.86673912E-06 170
vt 2.86673912E-06 170
vt 2.85779856E-06 169.849991
vt 2.85779856E-06 0.0866025388
vt 2.85779856E-06 -0.0866025388
vt -2.85779856E-06 169.849991
vt -2.86673912E-06 170
vt 23.521225 169.181641
vt 23.510788 169.031998
vt 23.510788 0.0866025388
vt 23.510788 -0.0866025388
vt -23.510788 169.031998
vt -23.521225 169.181641
vt 23.521225 169.181641
vt 23.510788 169.031998
vt 23.510788 0.0866025388
vt 23.510788 -0.0866025388
vt -23.510788 169.031998
vt -23.521225 169.181641
vt 46.8161392 166.734436
vt 46.7952156 166.585892
vt 46.7952156 0.0866025388
vt 46.7952156 -0.0866025388
vt -46.7952156 166.585892
vt -46.8161392 166.734436
vt 46.8161392 166.734436
vt 46.7952156 166.585892
vt 46.7952156 0.0866025388
vt 46.7952156 -0.0866025388
vt -46.7952156 166.585892
vt -46.8161392 166.734436
vt 69.6602707 162.681931
vt 69.6287613 162.535278
vt 69.6287613 0.0866025388
vt 69.6287613 -0.0866025388
vt -69.6287613 162.535278
vt -69.6602707 162.681931
vt 69.6602707 162.681931
vt 69.6287613 162.535278
vt 69.6287613 0.0866025388
vt 69.6287613 -0.0866025388
vt -69.6287613 162.535278
vt -69.6602707 162.681931
vt 91.8339462 157.06308
vt 91.7917175 156.919144
vt 91.7917175 0.0866025388
vt 91.7917175 -0.0866025388
vt -91.7917175 156.919144
vt -91.8339462 157.06308
vt 91.8339462 157.06308
vt 91.7917175 156.919144
vt 91.7917175 0.0866025388
vt 91.7917175 -0.0866025388
vt -91.7917175 156.919144
vt -91.8339462 157.06308
vt 113.123466 149.931946
vt 113.070366 149.791656
vt 113.070366 0.0866025388
vt 113.070366 -0.0866025388
vt -113.070366 149.791656
vt -113.123466 149.931946
vt 113.123466 149.931946
vt 113.070366 149.791656
vt 113.070366 0.0866025388
vt 113.070366 -0.0866025388
vt -113.070366 149.791656
vt -113.123466 149.931946
vt 133.32402 141.357086
vt 133.259857 141.221497
vt 133.259857 0.0866025388
vt 133.259857 -0.0866025388
vt -133.259857 141.221497
vt -133.32402 141.357086
vt 133.32402 141.357086
vt 133.259857 141.221497
vt 133.259857 0.0866025388
vt 133.259857 -0.0866025388
vt -133.259857 141.221497
vt -133.32402 141.357086
vt 152.241211 131.420929
vt 152.165833 131.291245
vt 152.165833 0.0866025388
vt 152.165833 -0.0866025388
vt -152.165833 131.291245
vt -152.241211 131.420929
vt 152.241211 131.420929
vt 152.165833 131.291245
vt 152.165833 0.0866025388
vt 152.165833 -0.0866025388
vt -152.165833 131.291245
vt -152.241211 131.420929
vt 169.692688 120.219063
vt 169.605988 120.096657
vt 169.605988 0.0866025388
vt 169.605988 -0.0866025388
vt -169.605988 120.096657
vt -169.692688 120.219063
vt 169.692688 120.219063
vt 169.605988 120.096657
vt 169.605988 0.0866025388
vt 169.605988 -0.0866025388
vt -169.605988 120.096657
vt -169.692688 120.219063
vt 185.510559 107.8591
vt 185.412552 107.745537
vt 185.412552 0.0866025388
vt 185.412552 -0.0866025388
vt -185.412552 107.745537
vt -185.510559 107.8591
vt 185.510559 107.8591
vt 185.412552 107.745537
vt 185.412552 0.0866025388
vt 185.412552 -0.0866025388
vt -185.412552 107.745537
vt -185.510559 107.8591
vt 199.542282 94.4600143
vt 199.433182 94.3570786
vt 199.433182 0.0866025388
vt 199.433182 -0.0866025388
vt -199.433182 94.3570786
vt -199.542282 94.4600143
vt 199.542282 94.4600143
vt 199.433182 94.3570786
vt -94.3570786 0.0866025388
vt -94.3570786 -0.0866025388
vt -199.433182 94.3570786
vt -199.542282 94.4600143
vt 211.652695 80.150589
vt 211.532974 80.0602264
vt -80.0602264 0.0866025388
vt -80.0602264 -0.0866025388
vt -211.532974 80.0602264
vt -211.652695 80.150589
vt 211.652695 80.150589
vt 211.532974 80.0602264
vt -80.0602264 0.0866025388
vt -80.0602264 -0.0866025388
vt -211.532974 80.0602264
vt -211.652695 80.150589
vt 221.725021 65.0683975
vt 221.595535 64.9926682
vt -64.9926682 0.0866025388
vt -64.9926682 -0.0866025388
vt -221.595535 64.9926682
vt -221.725021 65.0683975
vt 221.725021 65.0683975
vt 221.595535 64.9926682
vt -64.9926682 0.0866025388
vt -64.9926682 -0.0866025388
vt -221.595535 64.9926682
vt -221.725021 65.0683975
vt 229.661896 49.3587646
vt 229.524017 49.2997055
vt -49.2997055 0.0866025388
vt -49.2997055 -0.0866025388
vt -229.524017 49.2997055
vt -229.661896 49.3587646
vt 229.661896 49.3587646
vt 229.524017 49.2997055
vt -49.2997055 0.0866025388
vt -49.2997055 -0.0866025388
vt -229.524017 49.2997055
vt -229.661896 49.3587646
vt 235.386658 33.1728668
vt 235.242249 33.132309
vt -33.132309 0.0866025388
vt -33.132309 -0.0866025388
vt -235.242249 33.132309
vt -235.386658 33.1728668
vt 235.386658 33.1728668
vt 235.242249 33.132309
vt -33.132309 0.0866025388
vt -33.132309 -0.0866025388
vt -235.242249 33.132309
vt -235.386658 33.1728668
vt 238.843857 16.6669044
vt 238.695282 16.6462421
vt -16.6462421 0.0866025388
vt -16.6462421 -0.0866025388
vt -238.695282 16.6462421
vt -238.843857 16.6669044
vt 238.843857 16.6669044
vt 238.695282 16.6462421
vt -16.6462421 0.0866025388
vt -16.6462421 -0.0866025388
vt -238.695282 16.6462421
vt -238.843857 16.6669044
vt 240 -2.97062579E-05
vt 239.849991 -2.97062579E-05
vt 2.97062579E-05 0.0866025388
vt 2.97062579E-05 -0.0866025388
vt -239.849991 -2.97062579E-05
vt -240 -2.97062579E-05
vn -1 8.75213998E-11 -9.52232853E-08
vn 0.000756762282 0.999999702 -1.24467488E-05
vn 0.000756762282 0.999999702 -1.24467488E-05
vn 0.00077667716 -0.999999702 9.95739902E-06
vn 0.00077667716 -0.999999702 9.95739902E-06
vn -1 8.75213998E-11 -9.52232853E-08
vn -0.990512073 -9.04347153E-10 -0.13742575
vn 0.00075674837 0.999999702 0.000119486584
vn 0.00075674837 0.999999702 0.000119486584
vn 0.000736834714 -0.999999702 8.96150304E-05
vn 0.000736834714 -0.999999702 8.96150304E-05
vn -0.990512073 -9.04347153E-10 -0.13742575
vn -0.990512073 -9.04347153E-10 -0.13742575
vn 0.00075674837 0.999999702 0.000119486584
vn 0.00075674837 0.999999702 0.000119486584
vn 0.000736834714 -0.999999702 8.96150304E-05
vn 0.000736834714 -0.999999702 8.96150304E-05
vn -0.990512073 -9.04347153E-10 -0.13742575
vn -0.962909281 -1.76179622E-08 -0.269825429
vn 0.000677029428 0.999999702 0.000318602077
vn 0.000677029428 0.999999702 0.000318602077
vn 0.000716871524 -0.999999702 0.000219044072
vn 0.000716871524 -0.999999702 0.000219044072
vn -0.962909281 -1.76179622E-08 -0.269825429
vn -0.962909281 -1.76179622E-08 -0.269825429
vn 0.000677029428 0.999999702 0.000318602077
vn 0.000677029428 0.999999702 0.000318602077
vn 0.000716871524 -0.999999702 0.000219044072
vn 0.000716871524 -0.999999702 0.000219044072
vn -0.962909281 -1.76179622E-08 -0.269825429
vn -0.919540226 -4.86446226E-08 -0.392995983
vn 0.00057735265 0.999999702 0.000517626526
vn 0.00057735265 0.999999702 0.000517626526
vn 0.000637120218 -0.999999702 0.000408155145
vn 0.000637120218 -0.999999702 0.000408155145
vn -0.919540226 -4.86446226E-08 -0.392995983
vn -0.919540226 -4.86446226E-08 -0.392995983
vn 0.00057735265 0.999999702 0.000517626526
vn 0.00057735265 0.999999702 0.000517626526
vn 0.000637120218 -0.999999702 0.000408155145
vn 0.000637120218 -0.999999702 0.000408155145
vn -0.919540226 -4.86446226E-08 -0.392995983
vn -0.863658905 -4.04701908E-08 -0.50407666
vn 0.000597112812 0.999999762 0.000417978968
vn 0.000597112812 0.999999762 0.000417978968
vn 0.00051752571 -0.999999702 0.000597145059
vn 0.00051752571 -0.999999702 0.000597145059
vn -0.863658905 -4.04701908E-08 -0.50407666
vn -0.863658905 -4.04701908E-08 -0.50407666
vn 0.000597112812 0.999999762 0.000417978968
vn 0.000597112812 0.999999762 0.000417978968
vn 0.00051752571 -0.999999702 0.000597145059
vn 0.00051752571 -0.999999702 0.000597145059
vn -0.863658905 -4.04701908E-08 -0.50407666
vn -0.798750162 -2.71394267E-08 -0.601662874
vn 0.000497512287 0.999999702 0.000557213731
vn 0.000497512287 0.999999702 0.000557213731
vn 0.000557233929 -0.999999702 0.000497530331
vn 0.000557233929 -0.999999702 0.000497530331
vn -0.798750162 -2.71394267E-08 -0.601662874
vn -0.798750162 -2.71394267E-08 -0.601662874
vn 0.000497512287 0.999999702 0.000557213731
vn 0.000497512287 0.999999702 0.000557213731
vn 0.000557233929 -0.999999702 0.000497530331
vn 0.000557233929 -0.999999702 0.000497530331
vn -0.798750162 -2.71394267E-08 -0.601662874
vn -0.727992833 -5.1411547E-08 -0.685584784
vn 0.000378023746 0.999999702 0.000676463533
vn 0.000378023746 0.999999702 0.000676463533
vn 0.000457639078 -0.999999702 0.000636715267
vn 0.000457639078 -0.999999702 0.000636715267
vn -0.727992833 -5.1411547E-08 -0.685584784
vn -0.727992833 -5.1411547E-08 -0.685584784
vn 0.000378023746 0.999999702 0.000676463533
vn 0.000378023746 0.999999702 0.000676463533
vn 0.000457639078 -0.999999702 0.000636715267
vn 0.000457639078 -0.999999702 0.000636715267
vn -0.727992833 -5.1411547E-08 -0.685584784
vn -0.65396601 -3.8784794E-08 -0.756523967
vn 0.000437613169 0.999999702 0.000596745231
vn 0.000437613169 0.999999702 0.000596745231
vn 0.000318280625 -0.999999702 0.000716131355
vn 0.000318280625 -0.999999702 0.000716131355
vn -0.65396601 -3.8784794E-08 -0.756523967
vn -0.65396601 -3.8784794E-08 -0.756523967
vn 0.000437613169 0.999999702 0.000596745231
vn 0.000437613169 0.999999702 0.000596745231
vn 0.000318280625 -0.999999702 0.000716131355
vn 0.000318280625 -0.999999702 0.000716131355
vn -0.65396601 -3.8784794E-08 -0.756523967
vn -0.57856679 -1.8937822E-08 -0.815635026
vn 0.000358005142 0.999999762 0.000636453624
vn 0.000358005142 0.999999762 0.000636453624
vn 0.000377903867 -0.999999702 0.000636469689
vn 0.000377903867 -0.999999702 0.000636469689
vn -0.57856679 -1.8937822E-08 -0.815635026
vn -0.57856679 -1.8937822E-08 -0.815635026
vn 0.000358005142 0.999999762 0.000636453624
vn 0.000358005142 0.999999762 0.000636453624
vn 0.000377903867 -0.999999702 0.000636469689
vn 0.000377903867 -0.999999702 0.000636469689
vn -0.57856679 -1.8937822E-08 -0.815635026
vn -0.503067911 -2.75291985E-08 -0.864246845
vn 0.000278413034 0.999999702 0.000696032599
vn 0.000278413034 0.999999702 0.000696032599
vn 0.000318198028 -0.999999702 0.00069605821
vn 0.000318198028 -0.999999702 0.00069605821
vn -0.503067911 -2.75291985E-08 -0.864246845
vn -0.503067911 -2.75291985E-08 -0.864246845
vn 0.000278413034 0.999999702 0.000696032599
vn 0.000278413034 0.999999702 0.000696032599
vn 0.000318198028 -0.999999702 0.00069605821
vn 0.000318198028 -0.999999702 0.00069605821
vn -0.503067911 -2.75291985E-08 -0.864246845
vn -0.428233594 -2.03607975E-08 -0.903668046
vn 0.000308206188 0.999999702 0.000695949479
vn 0.000308206188 0.999999702 0.000695949479
vn 0.000218732894 -0.999999702 0.000715853064
vn 0.000218732894 -0.999999702 0.000715853064
vn -0.428233594 -2.03607975E-08 -0.903668046
vn -0.428233594 -2.03607975E-08 -0.903668046
vn 0.000308206188 0.999999702 0.000695949479
vn 0.000308206188 0.999999702 0.000695949479
vn 0.000218732894 -0.999999702 0.000715853064
vn 0.000218732894 -0.999999702 0.000715853064
vn -0.428233594 -2.03607975E-08 -0.903668046
vn -0.354448467 -1.0485409E-08 -0.935075581
vn 0.000208770856 0.999999762 0.000676019932
vn 0.000208770856 0.999999762 0.000676019932
vn 0.00023859863 -0.999999762 0.000695912633
vn 0.00023859863 -0.999999762 0.000695912633
vn -0.354448467 -1.0485409E-08 -0.935075581
vn -0.354448467 -1.0485409E-08 -0.935075581
vn 0.000208770856 0.999999762 0.000676019932
vn 0.000208770856 0.999999762 0.000676019932
vn 0.00023859863 -0.999999762 0.000695912633
vn 0.00023859863 -0.999999762 0.000695912633
vn -0.354448467 -1.0485409E-08 -0.935075581
vn -0.281825274 -5.91224447E-09 -0.959465742
vn 0.000203788877 0.999999702 0.000715746311
vn 0.000203788877 0.999999702 0.000715746311
vn 0.000164026496 -0.999999762 0.000715751958
vn 0.000164026496 -0.999999762 0.000715751958
vn -0.281825274 -5.91224447E-09 -0.959465742
vn -0.281825274 -5.91224447E-09 -0.959465742
vn 0.000203788877 0.999999702 0.000715746311
vn 0.000203788877 0.999999702 0.000715746311
vn 0.000164026496 -0.999999762 0.000715751958
vn 0.000164026496 -0.999999762 0.000715751958
vn -0.281825274 -5.91224447E-09 -0.959465742
vn -0.210293204 -1.96871834E-08 -0.977638364
vn 4.47320854E-05 0.999999702 0.000755475252
vn 4.47320854E-05 0.999999702 0.000755475252
vn 0.000154081237 -0.999999702 0.000735613634
vn 0.000154081237 -0.999999702 0.000735613634
vn -0.210293204 -1.96871834E-08 -0.977638364
vn -0.210293204 -1.96871834E-08 -0.977638364
vn 4.47320854E-05 0.999999702 0.000755475252
vn 4.47320854E-05 0.999999702 0.000755475252
vn 0.000154081237 -0.999999702 0.000735613634
vn 0.000154081237 -0.999999702 0.000735613634
vn -0.210293204 -1.96871834E-08 -0.977638364
vn -0.13966231 -1.47066919E-08 -0.990199149
vn 0.000126730098 0.999999762 0.000715652364
vn 0.000126730098 0.999999762 0.000715652364
vn -1.24247654E-05 -0.999999762 0.000735546113
vn -1.24247654E-05 -0.999999762 0.000735546113
vn -0.13966231 -1.47066919E-08 -0.990199149
vn -0.13966231 -1.47066919E-08 -0.990199149
vn 0.000126730098 0.999999762 0.000715652364
vn 0.000126730098 0.999999762 0.000715652364
vn -1.24247654E-05 -0.999999762 0.000735546113
vn -1.24247654E-05 -0.999999762 0.000735546113
vn -0.13966231 -1.47066919E-08 -0.990199149
vn -0.0696673989 1.36871725E-09 -0.997570276
vn 2.98191171E-05 0.999999762 0.000735538197
vn 2.98191171E-05 0.999999762 0.000735538197
vn 8.07599499E-05 -0.999999702 0.0007355368
vn 8.07599499E-05 -0.999999702 0.0007355368
vn -0.0696673989 1.36871725E-09 -0.997570276
vn -0.0696673989 1.36871725E-09 -0.997570276
vn 2.98191171E-05 0.999999762 0.000735538197
vn 2.98191171E-05 0.999999762 0.000735538197
vn 8.07599499E-05 -0.999999702 0.0007355368
vn 8.07599499E-05 -0.999999702 0.0007355368
vn -0.0696673989 1.36871725E-09 -0.997570276
vn 3.35479378E-08 0 -1
vn 2.11215865E-05 0.999999702 0.000755407382
vn 2.11215865E-05 0.999999702 0.000755407382
vn -2.11215865E-05 -0.999999702 0.000755407382
vn -2.11215865E-05 -0.999999702 0.000755407382
vn 3.35479378E-08 0 -1
vn 3.35479378E-08 0 -1
vn 2.11215865E-05 0.999999702 0.000755407382
vn 2.11215865E-05 0.999999702 0.000755407382
vn -2.11215865E-05 -0.999999702 0.000755407382
vn -2.11215865E-05 -0.999999702 0.000755407382
vn 3.35479378E-08 0 -1
vn 0.0696674287 5.8243288E-10 -0.997570276
vn -7.20629105E-05 0.999999702 0.000755418092
vn -7.20629105E-05 0.999999702 0.000755418092
vn -3.23040367E-05 -0.999999702 0.00075541751
vn -3.23040367E-05 -0.999999702 0.00075541751
vn 0.0696674287 5.8243288E-10 -0.997570276
vn 0.0696674287 5.8243288E-10 -0.997570276
vn -7.20629105E-05 0.999999702 0.000755418092
vn -7.20629105E-05 0.999999702 0.000755418092
vn -3.23040367E-05 -0.999999702 0.00075541751
vn -3.23040367E-05 -0.999999702 0.00075541751
vn 0.0696674287 5.8243288E-10 -0.997570276
vn 0.139662489 1.33961935E-08 -0.990199208
vn -1.49098614E-05 0.999999702 0.000755432993
vn -1.49098614E-05 0.999999702 0.000755432993
vn -0.000129216511 -0.999999702 0.000735540118
vn -0.000129216511 -0.999999702 0.000735540118
vn 0.139662489 1.33961935E-08 -0.990199208
vn 0.139662489 1.33961935E-08 -0.990199208
vn -1.49098614E-05 0.999999702 0.000755432993
vn -1.49098614E-05 0.999999702 0.000755432993
vn -0.000129216511 -0.999999702 0.000735540118
vn -0.000129216511 -0.999999702 0.000735540118
vn 0.139662489 1.33961935E-08 -0.990199208
vn 0.210292891 2.3414934E-08 -0.977638423
vn -0.00012426023 0.999999702 0.000755502144
vn -0.00012426023 0.999999702 0.000755502144
vn -6.95835552E-05 -0.999999702 0.00075547857
vn -6.95835552E-05 -0.999999702 0.00075547857
vn 0.210292891 2.3414934E-08 -0.977638423
vn 0.210292891 2.3414934E-08 -0.977638423
vn -0.00012426023 0.999999702 0.000755502144
vn -0.00012426023 0.999999702 0.000755502144
vn -6.95835552E-05 -0.999999702 0.00075547857
vn -6.95835552E-05 -0.999999702 0.00075547857
vn 0.210292891 2.3414934E-08 -0.977638423
vn 0.281825036 3.8444159E-09 -0.959465861
vn -0.000228650053 0.999999702 0.000735656708
vn -0.000228650053 0.999999702 0.000735656708
vn -0.000169001331 -0.999999702 0.00075553538
vn -0.000169001331 -0.999999702 0.00075553538
vn 0.281825036 3.8444159E-09 -0.959465861
vn 0.281825036 3.8444159E-09 -0.959465861
vn -0.000228650053 0.999999702 0.000735656708
vn -0.000228650053 0.999999702 0.000735656708
vn -0.000169001331 -0.999999702 0.00075553538
vn -0.000169001331 -0.999999702 0.00075553538
vn 0.281825036 3.8444159E-09 -0.959465861
vn 0.354448617 8.91259777E-09 -0.935075521
vn -0.000188892445 0.999999702 0.000715802948
vn -0.000188892445 0.999999702 0.000715802948
vn -0.000278364518 -0.999999702 0.000695911294
vn -0.000278364518 -0.999999702 0.000695911294
vn 0.354448617 8.91259777E-09 -0.935075521
vn 0.354448617 8.91259777E-09 -0.935075521
vn -0.000188892445 0.999999702 0.000715802948
vn -0.000188892445 0.999999702 0.000715802948
vn -0.000278364518 -0.999999702 0.000695911294
vn -0.000278364518 -0.999999702 0.000695911294
vn 0.354448617 8.91259777E-09 -0.935075521
vn 0.428233445 1.89043732E-08 -0.903668165
vn -0.000268453441 0.999999762 0.000676104974
vn -0.000268453441 0.999999762 0.000676104974
vn -0.000238619265 -0.999999762 0.000676087919
vn -0.000238619265 -0.999999762 0.000676087919
vn 0.428233445 1.89043732E-08 -0.903668165
vn 0.428233445 1.89043732E-08 -0.903668165
vn -0.000268453441 0.999999762 0.000676104974
vn -0.000268453441 0.999999762 0.000676104974
vn -0.000238619265 -0.999999762 0.000676087919
vn -0.000238619265 -0.999999762 0.000676087919
vn 0.428233445 1.89043732E-08 -0.903668165
vn 0.50306803 3.92400317E-08 -0.864246786
vn -0.000178991293 0.999999702 0.0007358531
vn -0.000178991293 0.999999702 0.0007358531
vn -0.000338076963 -0.999999702 0.000656267046
vn -0.000338076963 -0.999999702 0.000656267046
vn 0.50306803 3.92400317E-08 -0.864246786
vn 0.50306803 3.92400317E-08 -0.864246786
vn -0.000178991293 0.999999702 0.0007358531
vn -0.000178991293 0.999999702 0.0007358531
vn -0.000338076963 -0.999999702 0.000656267046
vn -0.000338076963 -0.999999702 0.000656267046
vn 0.50306803 3.92400317E-08 -0.864246786
vn 0.57856679 4.28286162E-09 -0.815635026
vn -0.000576841412 0.999999702 0.000497277069
vn -0.000576841412 0.999999702 0.000497277069
vn -0.000258582586 -0.999999702 0.000716074836
vn -0.000258582586 -0.999999702 0.000716074836
vn 0.57856679 4.28286162E-09 -0.815635026
vn 0.57856679 4.28286162E-09 -0.815635026
vn -0.000576841412 0.999999702 0.000497277069
vn -0.000576841412 0.999999702 0.000497277069
vn -0.000258582586 -0.999999702 0.000716074836
vn -0.000258582586 -0.999999702 0.000716074836
vn 0.57856679 4.28286162E-09 -0.815635026
vn 0.653965771 1.67552656E-08 -0.756524146
vn -0.000258590328 0.999999583 0.000795662578
vn -0.000258590328 0.999999583 0.000795662578
vn -0.000636515848 -0.999999702 0.000457495771
vn -0.000636515848 -0.999999702 0.000457495771
vn 0.653965771 1.67552656E-08 -0.756524146
vn 0.653965771 1.67552656E-08 -0.756524146
vn -0.000258590328 0.999999583 0.000795662578
vn -0.000258590328 0.999999583 0.000795662578
vn -0.000636515848 -0.999999702 0.000457495771
vn -0.000636515848 -0.999999702 0.000457495771
vn 0.653965771 1.67552656E-08 -0.756524146
vn 0.727993131 6.45850236E-08 -0.685584486
vn -0.000457639166 0.999999702 0.000636715326
vn -0.000457639166 0.999999702 0.000636715326
vn -0.000318330218 -0.999999702 0.000736138609
vn -0.000318330218 -0.999999702 0.000736138609
vn 0.727993131 6.45850236E-08 -0.685584486
vn 0.727993131 6.45850236E-08 -0.685584486
vn -0.000457639166 0.999999702 0.000636715326
vn -0.000457639166 0.999999702 0.000636715326
vn -0.000318330218 -0.999999702 0.000736138609
vn -0.000318330218 -0.999999702 0.000736138609
vn 0.727993131 6.45850236E-08 -0.685584486
vn 0.798750162 2.71102749E-08 -0.601662874
vn -0.000597036327 0.999999702 0.000517431472
vn -0.000597036327 0.999999702 0.000517431472
vn -0.000517412787 -0.999999702 0.000577114231
vn -0.000517412787 -0.999999702 0.000577114231
vn 0.798750162 2.71102749E-08 -0.601662874
vn 0.798750162 2.71102749E-08 -0.601662874
vn -0.000597036327 0.999999702 0.000517431472
vn -0.000597036327 0.999999702 0.000517431472
vn -0.000517412787 -0.999999702 0.000577114231
vn -0.000517412787 -0.999999702 0.000577114231
vn 0.798750162 2.71102749E-08 -0.601662874
vn 0.863658547 3.6242394E-08 -0.504077256
vn -0.000537427433 0.999999702 0.000587189221
vn -0.000537427433 0.999999702 0.000587189221
vn -0.000636920275 -0.999999702 0.00044783458
vn -0.000636920275 -0.999999702 0.00044783458
vn 0.863658547 3.6242394E-08 -0.504077256
vn 0.863658547 3.6242394E-08 -0.504077256
vn -0.000537427433 0.999999702 0.000587189221
vn -0.000537427433 0.999999702 0.000587189221
vn -0.000636920275 -0.999999702 0.00044783458
vn -0.000636920275 -0.999999702 0.00044783458
vn 0.863658547 3.6242394E-08 -0.504077256
vn 0.919540107 4.75072497E-08 -0.392996281
vn -0.000657019846 0.999999702 0.000428058382
vn -0.000657019846 0.999999702 0.000428058382
vn -0.000577344443 -0.999999702 0.000497710716
vn -0.000577344443 -0.999999702 0.000497710716
vn 0.919540107 4.75072497E-08 -0.392996281
vn 0.919540107 4.75072497E-08 -0.392996281
vn -0.000657019846 0.999999702 0.000428058382
vn -0.000657019846 0.999999702 0.000428058382
vn -0.000577344443 -0.999999702 0.000497710716
vn -0.000577344443 -0.999999702 0.000497710716
vn 0.919540107 4.75072497E-08 -0.392996281
vn 0.962909341 2.04181672E-09 -0.26982522
vn -0.000756678812 0.999999702 8.46285548E-05
vn -0.000756678812 0.999999702 8.46285548E-05
vn -0.000696939125 -0.999999702 0.000338513288
vn -0.000696939125 -0.999999702 0.000338513288
vn 0.962909341 2.04181672E-09 -0.26982522
vn 0.962909341 2.04181672E-09 -0.26982522
vn -0.000756678812 0.999999702 8.46285548E-05
vn -0.000756678812 0.999999702 8.46285548E-05
vn -0.000696939125 -0.999999702 0.000338513288
vn -0.000696939125 -0.999999702 0.000338513288
vn 0.962909341 2.04181672E-09 -0.26982522
vn 0.990512133 -1.7853564E-08 -0.13742514
vn -0.000756672875 0.999999702 9.20950552E-05
vn -0.000756672875 0.999999702 9.20950552E-05
vn -0.000776603818 -0.999999702 -1.9912919E-05
vn -0.000776603818 -0.999999702 -1.9912919E-05
vn 0.990512133 -1.7853564E-08 -0.13742514
vn 0.990512133 -1.7853564E-08 -0.13742514
vn -0.000756672875 0.999999702 9.20950552E-05
vn -0.000756672875 0.999999702 9.20950552E-05
vn -0.000776603818 -0.999999702 -1.9912919E-05
vn -0.000776603818 -0.999999702 -1.9912919E-05
vn 0.990512133 -1.7853564E-08 -0.13742514
vn 1 0 9.1489035E-08
vn -0.000756685389 0.999999702 9.95638675E-06
vn -0.000756685389 0.999999702 9.95638675E-06
vn -0.000756685331 -0.999999702 -1.24454818E-05
vn -0.000756685331 -0.999999702 -1.24454818E-05
vn 1 0 9.1489035E-08
vn 1 0 9.1489035E-08
vn -0.000756685389 0.999999702 9.95638675E-06
vn -0.000756685389 0.999999702 9.95638675E-06
vn -0.000756685331 -0.999999702 -1.24454818E-05
vn -0.000756685331 -0.999999702 -1.24454818E-05
vn 1 0 9.1489035E-08
vn 0.990512133 1.7853564E-08 0.137425244
vn -0.000776603818 0.999999702 1.9912919E-05
vn -0.000776603818 0.999999702 1.9912919E-05
vn -0.000756672875 -0.999999702 -9.45841093E-05
vn -0.000756672875 -0.999999702 -9.45841093E-05
vn 0.990512133 1.7853564E-08 0.137425244
vn 0.990512133 1.7853564E-08 0.137425244
vn -0.000776603818 0.999999702 1.9912919E-05
vn -0.000776603818 0.999999702 1.9912919E-05
vn -0.000756672875 -0.999999702 -9.45841093E-05
vn -0.000756672875 -0.999999702 -9.45841093E-05
vn 0.990512133 1.7853564E-08 0.137425244
vn 0.962909341 -2.04181672E-09 0.26982519
vn -0.000696939125 0.999999702 -0.000338513288
vn -0.000696939125 0.999999702 -0.000338513288
vn -0.000756678812 -0.999999702 -8.96067068E-05
vn -0.000756678812 -0.999999702 -8.96067068E-05
vn 0.962909341 -2.04181672E-09 0.26982519
vn 0.962909341 -2.04181672E-09 0.26982519
vn -0.000696939125 0.999999702 -0.000338513288
vn -0.000696939125 0.999999702 -0.000338513288
vn -0.000756678812 -0.999999702 -8.96067068E-05
vn -0.000756678812 -0.999999702 -8.96067068E-05
vn 0.962909341 -2.04181672E-09 0.26982519
vn 0.919540107 -5.61104656E-08 0.392996162
vn -0.000577337807 0.999999702 -0.000557429623
vn -0.000577337807 0.999999702 -0.000557429623
vn -0.000657019846 -0.999999702 -0.000428058382
vn -0.000657019846 -0.999999702 -0.000428058382
vn 0.919540107 -5.61104656E-08 0.392996162
vn 0.919540107 -5.61104656E-08 0.392996162
vn -0.000577337807 0.999999702 -0.000557429623
vn -0.000577337807 0.999999702 -0.000557429623
vn -0.000657019846 -0.999999702 -0.000428058382
vn -0.000657019846 -0.999999702 -0.000428058382
vn 0.919540107 -5.61104656E-08 0.392996162
vn 0.863658607 -3.42013919E-08 0.504077137
vn -0.000656799646 0.999999702 -0.000338351325
vn -0.000656799646 0.999999702 -0.000338351325
vn -0.000517502136 -0.999999702 -0.000617021811
vn -0.000517502136 -0.999999702 -0.000617021811
vn 0.863658607 -3.42013919E-08 0.504077137
vn 0.863658607 -3.42013919E-08 0.504077137
vn -0.000656799646 0.999999702 -0.000338351325
vn -0.000656799646 0.999999702 -0.000338351325
vn -0.000517502136 -0.999999702 -0.000617021811
vn -0.000517502136 -0.999999702 -0.000617021811
vn 0.863658607 -3.42013919E-08 0.504077137
vn 0.798750162 -4.56793536E-08 0.601662874
vn -0.000358194928 0.999999702 -0.000696490111
vn -0.000358194928 0.999999702 -0.000696490111
vn -0.000616928854 -0.999999702 -0.000417919538
vn -0.000616928854 -0.999999702 -0.000417919538
vn 0.798750162 -4.56793536E-08 0.601662874
vn 0.798750162 -4.56793536E-08 0.601662874
vn -0.000358194928 0.999999702 -0.000696490111
vn -0.000358194928 0.999999702 -0.000696490111
vn -0.000616928854 -0.999999702 -0.000417919538
vn -0.000616928854 -0.999999702 -0.000417919538
vn 0.798750162 -4.56793536E-08 0.601662874
vn 0.727992892 -8.81340725E-08 0.685584664
vn -0.000377963966 0.999999702 -0.000696249364
vn -0.000377963966 0.999999702 -0.000696249364
vn -0.000338218029 -0.999999583 -0.000775911962
vn -0.000338218029 -0.999999583 -0.000775911962
vn 0.727992892 -8.81340725E-08 0.685584664
vn 0.727992892 -8.81340725E-08 0.685584664
vn -0.000377963966 0.999999702 -0.000696249364
vn -0.000377963966 0.999999702 -0.000696249364
vn -0.000338218029 -0.999999583 -0.000775911962
vn -0.000338218029 -0.999999583 -0.000775911962
vn 0.727992892 -8.81340725E-08 0.685584664
vn 0.653966069 -1.20346506E-08 0.756523907
vn -0.000656330376 0.999999702 -0.000457442395
vn -0.000656330376 0.999999702 -0.000457442395
vn -0.000318225881 -0.999999702 -0.000755786488
vn -0.000318225881 -0.999999702 -0.000755786488
vn 0.653966069 -1.20346506E-08 0.756523907
vn 0.653966069 -1.20346506E-08 0.756523907
vn -0.000656330376 0.999999702 -0.000457442395
vn -0.000656330376 0.999999702 -0.000457442395
vn -0.000318225881 -0.999999702 -0.000755786488
vn -0.000318225881 -0.999999702 -0.000755786488
vn 0.653966069 -1.20346506E-08 0.756523907
vn 0.578567207 -6.99242664E-10 0.815634727
vn -0.000298331259 0.999999702 -0.000715995033
vn -0.000298331259 0.999999702 -0.000715995033
vn -0.000576774182 -0.999999702 -0.000497219153
vn -0.000576774182 -0.999999702 -0.000497219153
vn 0.578567207 -6.99242664E-10 0.815634727
vn 0.578567207 -6.99242664E-10 0.815634727
vn -0.000298331259 0.999999702 -0.000715995033
vn -0.000298331259 0.999999702 -0.000715995033
vn -0.000576774182 -0.999999702 -0.000497219153
vn -0.000576774182 -0.999999702 -0.000497219153
vn 0.578567207 -6.99242664E-10 0.815634727
vn 0.503067672 1.60222857E-08 0.864247024
vn -0.000626423978 0.999999702 -0.00053693488
vn -0.000626423978 0.999999702 -0.00053693488
vn -0.000238632638 -0.999999702 -0.000755670015
vn -0.000238632638 -0.999999702 -0.000755670015
vn 0.503067672 1.60222857E-08 0.864247024
vn 0.503067672 1.60222857E-08 0.864247024
vn -0.000626423978 0.999999702 -0.00053693488
vn -0.000626423978 0.999999702 -0.00053693488
vn -0.000238632638 -0.999999702 -0.000755670015
vn -0.000238632638 -0.999999702 -0.000755670015
vn 0.503067672 1.60222857E-08 0.864247024
vn 0.428233445 3.18082805E-08 0.903668165
vn -0.000258551707 0.999999702 -0.000715989328
vn -0.000258551707 0.999999702 -0.000715989328
vn -0.000576744787 -0.999999702 -0.000556857034
vn -0.000576744787 -0.999999702 -0.000556857034
vn 0.428233445 3.18082805E-08 0.903668165
vn 0.428233445 3.18082805E-08 0.903668165
vn -0.000258551707 0.999999702 -0.000715989328
vn -0.000258551707 0.999999702 -0.000715989328
vn -0.000576744787 -0.999999702 -0.000556857034
vn -0.000576744787 -0.999999702 -0.000556857034
vn 0.428233445 3.18082805E-08 0.903668165
vn 0.354449034 -6.30872066E-08 0.935075343
vn 1.98855214E-05 0.999999702 -0.000795420841
vn 1.98855214E-05 0.999999702 -0.000795420841
vn -0.000208815589 -0.999999702 -0.000755713554
vn -0.000208815589 -0.999999702 -0.000755713554
vn 0.354449034 -6.30872066E-08 0.935075343
vn 0.354449034 -6.30872066E-08 0.935075343
vn 1.98855214E-05 0.999999702 -0.000795420841
vn 1.98855214E-05 0.999999702 -0.000795420841
vn -0.000208815589 -0.999999702 -0.000755713554
vn -0.000208815589 -0.999999702 -0.000755713554
vn 0.354449034 -6.30872066E-08 0.935075343
vn 0.281825036 -5.81322226E-08 0.959465861
vn -0.000188865437 0.999999702 -0.000775342342
vn -0.000188865437 0.999999702 -0.000775342342
vn 6.95873823E-05 -0.999999583 -0.000835048617
vn 6.95873823E-05 -0.999999583 -0.000835048617
vn 0.281825036 -5.81322226E-08 0.959465861
vn 0.281825036 -5.81322226E-08 0.959465861
vn -0.000188865437 0.999999702 -0.000775342342
vn -0.000188865437 0.999999702 -0.000775342342
vn 6.95873823E-05 -0.999999583 -0.000835048617
vn 6.95873823E-05 -0.999999583 -0.000835048617
vn 0.281825036 -5.81322226E-08 0.959465861
vn 0.210292563 1.41538044E-08 0.977638483
vn -0.000283290487 0.999999702 -0.000715681235
vn -0.000283290487 0.999999702 -0.000715681235
vn -0.000124247876 -0.999999702 -0.000755427056
vn -0.000124247876 -0.999999702 -0.000755427056
vn 0.210292563 1.41538044E-08 0.977638483
vn 0.210292563 1.41538044E-08 0.977638483
vn -0.000283290487 0.999999702 -0.000715681235
vn -0.000283290487 0.999999702 -0.000715681235
vn -0.000124247876 -0.999999702 -0.000755427056
vn -0.000124247876 -0.999999702 -0.000755427056
vn 0.210292563 1.41538044E-08 0.977638483
vn 0.139662385 2.42296387E-08 0.990199149
vn -0.00012177397 0.999999762 -0.000715732749
vn -0.00012177397 0.999999762 -0.000715732749
vn -0.000223659255 -0.999999762 -0.000695828756
vn -0.000223659255 -0.999999762 -0.000695828756
vn 0.139662385 2.42296387E-08 0.990199149
vn 0.139662385 2.42296387E-08 0.990199149
vn -0.00012177397 0.999999762 -0.000715732749
vn -0.00012177397 0.999999762 -0.000715732749
vn -0.000223659255 -0.999999762 -0.000695828756
vn -0.000223659255 -0.999999762 -0.000695828756
vn 0.139662385 2.42296387E-08 0.990199149
vn 0.0696674958 -5.8243288E-10 0.997570276
vn -3.10647301E-05 0.999999762 -0.000735612819
vn -3.10647301E-05 0.999999762 -0.000735612819
vn -6.83424514E-05 -0.999999702 -0.000735613343
vn -6.83424514E-05 -0.999999702 -0.000735613343
vn 0.0696674958 -5.8243288E-10 0.997570276
vn 0.0696674958 -5.8243288E-10 0.997570276
vn -3.10647301E-05 0.999999762 -0.000735612819
vn -3.10647301E-05 0.999999762 -0.000735612819
vn -6.83424514E-05 -0.999999702 -0.000735613343
vn -6.83424514E-05 -0.999999702 -0.000735613343
vn 0.0696674958 -5.8243288E-10 0.997570276
vn -8.01422928E-08 2.91214726E-11 1
vn -1.86385914E-05 0.999999702 -0.000755484216
vn -1.86385914E-05 0.999999702 -0.000755484216
vn 2.23663083E-05 -0.999999702 -0.000755484216
vn 2.23663083E-05 -0.999999702 -0.000755484216
vn -8.01422928E-08 2.91214726E-11 1
vn -8.01422928E-08 2.91214726E-11 1
vn -1.86385914E-05 0.999999702 -0.000755484216
vn -1.86385914E-05 0.999999702 -0.000755484216
vn 2.23663083E-05 -0.999999702 -0.000755484216
vn 2.23663083E-05 -0.999999702 -0.000755484216
vn -8.01422928E-08 2.91214726E-11 1
vn -0.0696673393 6.11554529E-10 0.997570276
vn 6.70998634E-05 0.999999702 -0.000735613343
vn 6.70998634E-05 0.999999702 -0.000735613343
vn 2.73369624E-05 -0.999999762 -0.000735612819
vn 2.73369624E-05 -0.999999762 -0.000735612819
vn -0.0696673393 6.11554529E-10 0.997570276
vn -0.0696673393 6.11554529E-10 0.997570276
vn 6.70998634E-05 0.999999702 -0.000735613343
vn 6.70998634E-05 0.999999702 -0.000735613343
vn 2.73369624E-05 -0.999999762 -0.000735612819
vn 2.73369624E-05 -0.999999762 -0.000735612819
vn -0.0696673393 6.11554529E-10 0.997570276
vn -0.139662117 -2.41713956E-08 0.990199208
vn 0.000218689049 0.999999702 -0.000715709582
vn 0.000218689049 0.999999702 -0.000715709582
vn 0.000119288779 -0.999999702 -0.000735614158
vn 0.000119288779 -0.999999702 -0.000735614158
vn -0.139662117 -2.41713956E-08 0.990199208
vn -0.139662117 -2.41713956E-08 0.990199208
vn 0.000218689049 0.999999702 -0.000715709582
vn 0.000218689049 0.999999702 -0.000715709582
vn 0.000119288779 -0.999999702 -0.000735614158
vn 0.000119288779 -0.999999702 -0.000735614158
vn -0.139662117 -2.41713956E-08 0.990199208
vn -0.210292444 -2.11724576E-08 0.977638483
vn 0.000159035772 0.999999702 -0.000735540467
vn 0.000159035772 0.999999702 -0.000735540467
vn 0.000278320484 -0.999999702 -0.000735561305
vn 0.000278320484 -0.999999702 -0.000735561305
vn -0.210292444 -2.11724576E-08 0.977638483
vn -0.210292444 -2.11724576E-08 0.977638483
vn 0.000159035772 0.999999702 -0.000735540467
vn 0.000159035772 0.999999702 -0.000735540467
vn 0.000278320484 -0.999999702 -0.000735561305
vn 0.000278320484 -0.999999702 -0.000735561305
vn -0.210292444 -2.11724576E-08 0.977638483
vn -0.281825125 6.01418009E-08 0.959465802
vn -0.000119288983 0.999999583 -0.000854904356
vn -0.000119288983 0.999999583 -0.000854904356
vn 0.000218678906 -0.999999702 -0.000715676404
vn 0.000218678906 -0.999999702 -0.000715676404
vn -0.281825125 6.01418009E-08 0.959465802
vn -0.281825125 6.01418009E-08 0.959465802
vn -0.000119288983 0.999999583 -0.000854904356
vn -0.000119288983 0.999999583 -0.000854904356
vn 0.000218678906 -0.999999702 -0.000715676404
vn 0.000218678906 -0.999999702 -0.000715676404
vn -0.281825125 6.01418009E-08 0.959465802
vn -0.354448915 -5.47571322E-09 0.935075402
vn 0.000636324345 0.999999583 -0.000556783809
vn 0.000636324345 0.999999583 -0.000556783809
vn -7.95411179E-05 -0.999999583 -0.000835181738
vn -7.95411179E-05 -0.999999583 -0.000835181738
vn -0.354448915 -5.47571322E-09 0.935075402
vn -0.354448915 -5.47571322E-09 0.935075402
vn 0.000636324345 0.999999583 -0.000556783809
vn 0.000636324345 0.999999583 -0.000556783809
vn -7.95411179E-05 -0.999999583 -0.000835181738
vn -7.95411179E-05 -0.999999583 -0.000835181738
vn -0.354448915 -5.47571322E-09 0.935075402
vn -0.428233176 -3.30608039E-08 0.903668225
vn 0.000129230393 0.999999702 -0.00077538233
vn 0.000129230393 0.999999702 -0.00077538233
vn 0.000685945386 -0.999999583 -0.000516944332
vn 0.000685945386 -0.999999583 -0.000516944332
vn -0.428233176 -3.30608039E-08 0.903668225
vn -0.428233176 -3.30608039E-08 0.903668225
vn 0.000129230393 0.999999702 -0.00077538233
vn 0.000129230393 0.999999702 -0.00077538233
vn 0.000685945386 -0.999999583 -0.000516944332
vn 0.000685945386 -0.999999583 -0.000516944332
vn -0.428233176 -3.30608039E-08 0.903668225
vn -0.503067553 6.04768431E-08 0.864247084
vn 0.000218746587 0.999999702 -0.000735783949
vn 0.000218746587 0.999999702 -0.000735783949
vn 0.000198844486 -0.999999702 -0.000735724578
vn 0.000198844486 -0.999999702 -0.000735724578
vn -0.503067553 6.04768431E-08 0.864247084
vn -0.503067553 6.04768431E-08 0.864247084
vn 0.000218746587 0.999999702 -0.000735783949
vn 0.000218746587 0.999999702 -0.000735783949
vn 0.000198844486 -0.999999702 -0.000735724578
vn 0.000198844486 -0.999999702 -0.000735724578
vn -0.503067553 6.04768431E-08 0.864247084
vn -0.578567088 1.24698278E-08 0.815634787
vn 0.000517116045 0.999999702 -0.000556894171
vn 0.000517116045 0.999999702 -0.000556894171
vn 0.000298331259 -0.999999702 -0.000715995033
vn 0.000298331259 -0.999999702 -0.000715995033
vn -0.578567088 1.24698278E-08 0.815634787
vn -0.578567088 1.24698278E-08 0.815634787
vn 0.000517116045 0.999999702 -0.000556894171
vn 0.000517116045 0.999999702 -0.000556894171
vn 0.000298331259 -0.999999702 -0.000715995033
vn 0.000298331259 -0.999999702 -0.000715995033
vn -0.578567088 1.24698278E-08 0.815634787
vn -0.653966308 3.69198609E-08 0.756523728
vn 0.000258580287 0.999999583 -0.00081552245
vn 0.000258580287 0.999999583 -0.00081552245
vn 0.000576804508 -0.999999702 -0.000517135079
vn 0.000576804508 -0.999999702 -0.000517135079
vn -0.653966308 3.69198609E-08 0.756523728
vn -0.653966308 3.69198609E-08 0.756523728
vn 0.000258580287 0.999999583 -0.00081552245
vn 0.000258580287 0.999999583 -0.00081552245
vn 0.000576804508 -0.999999702 -0.000517135079
vn 0.000576804508 -0.999999702 -0.000517135079
vn -0.653966308 3.69198609E-08 0.756523728
vn -0.727992773 7.21626847E-08 0.685584784
vn 0.000477536465 0.999999702 -0.000656612625
vn 0.000477536465 0.999999702 -0.000656612625
vn 0.000318326958 -0.999999583 -0.000775921973
vn 0.000318326958 -0.999999583 -0.000775921973
vn -0.727992773 7.21626847E-08 0.685584784
vn -0.727992773 7.21626847E-08 0.685584784
vn 0.000477536465 0.999999702 -0.000656612625
vn 0.000477536465 0.999999702 -0.000656612625
vn 0.000318326958 -0.999999583 -0.000775921973
vn 0.000318326958 -0.999999583 -0.000775921973
vn -0.727992773 7.21626847E-08 0.685584784
vn -0.798749804 1.65576726E-08 0.601663351
vn 0.000636829704 0.999999702 -0.000437820447
vn 0.000636829704 0.999999702 -0.000437820447
vn 0.000517412787 -0.999999702 -0.000577114231
vn 0.000517412787 -0.999999702 -0.000577114231
vn -0.798749804 1.65576726E-08 0.601663351
vn -0.798749804 1.65576726E-08 0.601663351
vn 0.000636829704 0.999999702 -0.000437820447
vn 0.000636829704 0.999999702 -0.000437820447
vn 0.000517412787 -0.999999702 -0.000577114231
vn 0.000517412787 -0.999999702 -0.000577114231
vn -0.798749804 1.65576726E-08 0.601663351
vn -0.863658965 3.4201399E-08 0.5040766
vn 0.000537406071 0.999999702 -0.00062697375
vn 0.000537406071 0.999999702 -0.00062697375
vn 0.000676702708 -0.999999702 -0.000358254387
vn 0.000676702708 -0.999999702 -0.000358254387
vn -0.863658965 3.4201399E-08 0.5040766
vn -0.863658965 3.4201399E-08 0.5040766
vn 0.000537406071 0.999999702 -0.00062697375
vn 0.000537406071 0.999999702 -0.00062697375
vn 0.000676702708 -0.999999702 -0.000358254387
vn 0.000676702708 -0.999999702 -0.000358254387
vn -0.863658965 3.4201399E-08 0.5040766
vn -0.919540226 5.61396192E-08 0.392995924
vn 0.000657019787 0.999999702 -0.00044796805
vn 0.000657019787 0.999999702 -0.00044796805
vn 0.000577337749 -0.999999702 -0.000557429565
vn 0.000577337749 -0.999999702 -0.000557429565
vn -0.919540226 5.61396192E-08 0.392995924
vn -0.919540226 5.61396192E-08 0.392995924
vn 0.000657019787 0.999999702 -0.00044796805
vn 0.000657019787 0.999999702 -0.00044796805
vn 0.000577337749 -0.999999702 -0.000557429565
vn 0.000577337749 -0.999999702 -0.000557429565
vn -0.919540226 5.61396192E-08 0.392995924
vn -0.962909222 2.07973621E-08 0.269825578
vn 0.000716871524 0.999999702 -0.000224022355
vn 0.000716871524 0.999999702 -0.000224022355
vn 0.000677026575 -0.999999702 -0.00034349144
vn 0.000677026575 -0.999999702 -0.00034349144
vn -0.962909222 2.07973621E-08 0.269825578
vn -0.962909222 2.07973621E-08 0.269825578
vn 0.000716871524 0.999999702 -0.000224022355
vn 0.000716871524 0.999999702 -0.000224022355
vn 0.000677026575 -0.999999702 -0.00034349144
vn 0.000677026575 -0.999999702 -0.00034349144
vn -0.962909222 2.07973621E-08 0.269825578
vn -0.990512073 9.04347153E-10 0.137425393
vn 0.000736834714 0.999999702 -8.96150304E-05
vn 0.000736834714 0.999999702 -8.96150304E-05
vn 0.000736833841 -0.999999702 -0.000119486569
vn 0.000736833841 -0.999999702 -0.000119486569
vn -0.990512073 9.04347153E-10 0.137425393
vn -0.990512073 9.04347153E-10 0.137425393
vn 0.000736834714 0.999999702 -8.96150304E-05
vn 0.000736834714 0.999999702 -8.96150304E-05
vn 0.000736833841 -0.999999702 -0.000119486569
vn 0.000736833841 -0.999999702 -0.000119486569
vn -0.990512073 9.04347153E-10 0.137425393
vn -1 8.75213998E-11 -9.52232853E-08
vn 0.000756762282 0.999999702 -1.24467488E-05
vn 0.000756762282 0.999999702 -1.24467488E-05
vn 0.00077667716 -0.999999702 9.95739902E-06
vn 0.00077667716 -0.999999702 9.95739902E-06
vn -1 8.75213998E-11 -9.52232853E-08
g pb_Mesh-790278_0
f 2/2/2 7/7/7 1/1/1
f 2/2/2 8/8/8 7/7/7
f 4/4/4 9/9/9 3/3/3
f 4/4/4 10/10/10 9/9/9
f 6/6/6 11/11/11 5/5/5
f 6/6/6 12/12/12 11/11/11
f 14/14/14 19/19/19 13/13/13
f 14/14/14 20/20/20 19/19/19
f 16/16/16 21/21/21 15/15/15
f 16/16/16 22/22/22 21/21/21
f 18/18/18 23/23/23 17/17/17
f 18/18/18 24/24/24 23/23/23
f 26/26/26 31/31/31 25/25/25
f 26/26/26 32/32/32 31/31/31
f 28/28/28 33/33/33 27/27/27
f 28/28/28 34/34/34 33/33/33
f 30/30/30 35/35/35 29/29/29
f 30/30/30 36/36/36 35/35/35
f 38/38/38 43/43/43 37/37/37
f 38/38/38 44/44/44 43/43/43
f 40/40/40 45/45/45 39/39/39
f 40/40/40 46/46/46 45/45/45
f 42/42/42 47/47/47 41/41/41
f 42/42/42 48/48/48 47/47/47
f 50/50/50 55/55/55 49/49/49
f 50/50/50 56/56/56 55/55/55
f 52/52/52 57/57/57 51/51/51
f 52/52/52 58/58/58 57/57/57
f 54/54/54 59/59/59 53/53/53
f 54/54/54 60/60/60 59/59/59
f 62/62/62 67/67/67 61/61/61
f 62/62/62 68/68/68 67/67/67
f 64/64/64 69/69/69 63/63/63
f 64/64/64 70/70/70 69/69/69
f 66/66/66 71/71/71 65/65/65
f 66/66/66 72/72/72 71/71/71
f 74/74/74 79/79/79 73/73/73
f 74/74/74 80/80/80 79/79/79
f 76/76/76 81/81/81 75/75/75
f 76/76/76 82/82/82 81/81/81
f 78/78/78 83/83/83 77/77/77
f 78/78/78 84/84/84 83/83/83
f 86/86/86 91/91/91 85/85/85
f 86/86/86 92/92/92 91/91/91
f 88/88/88 93/93/93 87/87/87
f 88/88/88 94/94/94 93/93/93
f 90/90/90 95/95/95 89/89/89
f 90/90/90 96/96/96 95/95/95
f 98/98/98 103/103/103 97/97/97
f 98/98/98 104/104/104 103/103/103
f 100/100/100 105/105/105 99/99/99
f 100/100/100 106/106/106 105/105/105
f 102/102/102 107/107/107 101/101/101
f 102/102/102 108/108/108 107/107/107
f 110/110/110 115/115/115 109/109/109
f 110/110/110 116/116/116 115/115/115
f 112/112/112 117/117/117 111/111/111
f 112/112/112 118/118/118 117/117/117
f 114/114/114 119/119/119 113/113/113
f 114/114/114 120/120/120 119/119/119
f 122/122/122 127/127/127 121/121/121
f 122/122/122 128/128/128 127/127/127
f 124/124/124 129/129/129 123/123/123
f 124/124/124 130/130/130 129/129/129
f 126/126/126 131/131/131 125/125/125
f 126/126/126 132/132/132 131/131/131
f 134/134/134 139/139/139 133/133/133
f 134/134/134 140/140/140 139/139/139
f 136/136/136 141/141/141 135/135/135
f 136/136/136 142/142/142 141/141/141
f 138/138/138 143/143/143 137/137/137
f 138/138/138 144/144/144 143/143/143
f 146/146/146 151/151/151 145/145/145
f 146/146/146 152/152/152 151/151/151
f 148/148/148 153/153/153 147/147/147
f 148/148/148 154/154/154 153/153/153
f 150/150/150 155/155/155 149/149/149
f 150/150/150 156/156/156 155/155/155
f 158/158/158 163/163/163 157/157/157
f 158/158/158 164/164/164 163/163/163
f 160/160/160 165/165/165 159/159/159
f 160/160/160 166/166/166 165/165/165
f 162/162/162 167/167/167 161/161/161
f 162/162/162 168/168/168 167/167/167
f 170/170/170 175/175/175 169/169/169
f 170/170/170 176/176/176 175/175/175
f 172/172/172 177/177/177 171/171/171
f 172/172/172 178/178/178 177/177/177
f 174/174/174 179/179/179 173/173/173
f 174/174/174 180/180/180 179/179/179
f 182/182/182 187/187/187 181/181/181
f 182/182/182 188/188/188 187/187/187
f 184/184/184 189/189/189 183/183/183
f 184/184/184 190/190/190 189/189/189
f 186/186/186 191/191/191 185/185/185
f 186/186/186 192/192/192 191/191/191
f 194/194/194 199/199/199 193/193/193
f 194/194/194 200/200/200 199/199/199
f 196/196/196 201/201/201 195/195/195
f 196/196/196 202/202/202 201/201/201
f 198/198/198 203/203/203 197/197/197
f 198/198/198 204/204/204 203/203/203
f 206/206/206 211/211/211 205/205/205
f 206/206/206 212/212/212 211/211/211
f 208/208/208 213/213/213 207/207/207
f 208/208/208 214/214/214 213/213/213
f 210/210/210 215/215/215 209/209/209
f 210/210/210 216/216/216 215/215/215
f 218/218/218 223/223/223 217/217/217
f 218/218/218 224/224/224 223/223/223
f 220/220/220 225/225/225 219/219/219
f 220/220/220 226/226/226 225/225/225
f 222/222/222 227/227/227 221/221/221
f 222/222/222 228/228/228 227/227/227
f 230/230/230 235/235/235 229/229/229
f 230/230/230 236/236/236 235/235/235
f 232/232/232 237/237/237 231/231/231
f 232/232/232 238/238/238 237/237/237
f 234/234/234 239/239/239 233/233/233
f 234/234/234 240/240/240 239/239/239
f 242/242/242 247/247/247 241/241/241
f 242/242/242 248/248/248 247/247/247
f 244/244/244 249/249/249 243/243/243
f 244/244/244 250/250/250 249/249/249
f 246/246/246 251/251/251 245/245/245
f 246/246/246 252/252/252 251/251/251
f 254/254/254 259/259/259 253/253/253
f 254/254/254 260/260/260 259/259/259
f 256/256/256 261/261/261 255/255/255
f 256/256/256 262/262/262 261/261/261
f 258/258/258 263/263/263 257/257/257
f 258/258/258 264/264/264 263/263/263
f 266/266/266 271/271/271 265/265/265
f 266/266/266 272/272/272 271/271/271
f 268/268/268 273/273/273 267/267/267
f 268/268/268 274/274/274 273/273/273
f 270/270/270 275/275/275 269/269/269
f 270/270/270 276/276/276 275/275/275
f 278/278/278 283/283/283 277/277/277
f 278/278/278 284/284/284 283/283/283
f 280/280/280 285/285/285 279/279/279
f 280/280/280 286/286/286 285/285/285
f 282/282/282 287/287/287 281/281/281
f 282/282/282 288/288/288 287/287/287
f 290/290/290 295/295/295 289/289/289
f 290/290/290 296/296/296 295/295/295
f 292/292/292 297/297/297 291/291/291
f 292/292/292 298/298/298 297/297/297
f 294/294/294 299/299/299 293/293/293
f 294/294/294 300/300/300 299/299/299
f 302/302/302 307/307/307 301/301/301
f 302/302/302 308/308/308 307/307/307
f 304/304/304 309/309/309 303/303/303
f 304/304/304 310/310/310 309/309/309
f 306/306/306 311/311/311 305/305/305
f 306/306/306 312/312/312 311/311/311
f 314/314/314 319/319/319 313/313/313
f 314/314/314 320/320/320 319/319/319
f 316/316/316 321/321/321 315/315/315
f 316/316/316 322/322/322 321/321/321
f 318/318/318 323/323/323 317/317/317
f 318/318/318 324/324/324 323/323/323
f 326/326/326 331/331/331 325/325/325
f 326/326/326 332/332/332 331/331/331
f 328/328/328 333/333/333 327/327/327
f 328/328/328 334/334/334 333/333/333
f 330/330/330 335/335/335 329/329/329
f 330/330/330 336/336/336 335/335/335
f 338/338/338 343/343/343 337/337/337
f 338/338/338 344/344/344 343/343/343
f 340/340/340 345/345/345 339/339/339
f 340/340/340 346/346/346 345/345/345
f 342/342/342 347/347/347 341/341/341
f 342/342/342 348/348/348 347/347/347
f 350/350/350 355/355/355 349/349/349
f 350/350/350 356/356/356 355/355/355
f 352/352/352 357/357/357 351/351/351
f 352/352/352 358/358/358 357/357/357
f 354/354/354 359/359/359 353/353/353
f 354/354/354 360/360/360 359/359/359
f 362/362/362 367/367/367 361/361/361
f 362/362/362 368/368/368 367/367/367
f 364/364/364 369/369/369 363/363/363
f 364/364/364 370/370/370 369/369/369
f 366/366/366 371/371/371 365/365/365
f 366/366/366 372/372/372 371/371/371
f 374/374/374 379/379/379 373/373/373
f 374/374/374 380/380/380 379/379/379
f 376/376/376 381/381/381 375/375/375
f 376/376/376 382/382/382 381/381/381
f 378/378/378 383/383/383 377/377/377
f 378/378/378 384/384/384 383/383/383
f 386/386/386 391/391/391 385/385/385
f 386/386/386 392/392/392 391/391/391
f 388/388/388 393/393/393 387/387/387
f 388/388/388 394/394/394 393/393/393
f 390/390/390 395/395/395 389/389/389
f 390/390/390 396/396/396 395/395/395
f 398/398/398 403/403/403 397/397/397
f 398/398/398 404/404/404 403/403/403
f 400/400/400 405/405/405 399/399/399
f 400/400/400 406/406/406 405/405/405
f 402/402/402 407/407/407 401/401/401
f 402/402/402 408/408/408 407/407/407
f 410/410/410 415/415/415 409/409/409
f 410/410/410 416/416/416 415/415/415
f 412/412/412 417/417/417 411/411/411
f 412/412/412 418/418/418 417/417/417
f 414/414/414 419/419/419 413/413/413
f 414/414/414 420/420/420 419/419/419
f 422/422/422 427/427/427 421/421/421
f 422/422/422 428/428/428 427/427/427
f 424/424/424 429/429/429 423/423/423
f 424/424/424 430/430/430 429/429/429
f 426/426/426 431/431/431 425/425/425
f 426/426/426 432/432/432 431/431/431
f 434/434/434 439/439/439 433/433/433
f 434/434/434 440/440/440 439/439/439
f 436/436/436 441/441/441 435/435/435
f 436/436/436 442/442/442 441/441/441
f 438/438/438 443/443/443 437/437/437
f 438/438/438 444/444/444 443/443/443
f 446/446/446 451/451/451 445/445/445
f 446/446/446 452/452/452 451/451/451
f 448/448/448 453/453/453 447/447/447
f 448/448/448 454/454/454 453/453/453
f 450/450/450 455/455/455 449/449/449
f 450/450/450 456/456/456 455/455/455
f 458/458/458 463/463/463 457/457/457
f 458/458/458 464/464/464 463/463/463
f 460/460/460 465/465/465 459/459/459
f 460/460/460 466/466/466 465/465/465
f 462/462/462 467/467/467 461/461/461
f 462/462/462 468/468/468 467/467/467
f 470/470/470 475/475/475 469/469/469
f 470/470/470 476/476/476 475/475/475
f 472/472/472 477/477/477 471/471/471
f 472/472/472 478/478/478 477/477/477
f 474/474/474 479/479/479 473/473/473
f 474/474/474 480/480/480 479/479/479
f 482/482/482 487/487/487 481/481/481
f 482/482/482 488/488/488 487/487/487
f 484/484/484 489/489/489 483/483/483
f 484/484/484 490/490/490 489/489/489
f 486/486/486 491/491/491 485/485/485
f 486/486/486 492/492/492 491/491/491
f 494/494/494 499/499/499 493/493/493
f 494/494/494 500/500/500 499/499/499
f 496/496/496 501/501/501 495/495/495
f 496/496/496 502/502/502 501/501/501
f 498/498/498 503/503/503 497/497/497
f 498/498/498 504/504/504 503/503/503
f 506/506/506 511/511/511 505/505/505
f 506/506/506 512/512/512 511/511/511
f 508/508/508 513/513/513 507/507/507
f 508/508/508 514/514/514 513/513/513
f 510/510/510 515/515/515 509/509/509
f 510/510/510 516/516/516 515/515/515
f 518/518/518 523/523/523 517/517/517
f 518/518/518 524/524/524 523/523/523
f 520/520/520 525/525/525 519/519/519
f 520/520/520 526/526/526 525/525/525
f 522/522/522 527/527/527 521/521/521
f 522/522/522 528/528/528 527/527/527
f 530/530/530 535/535/535 529/529/529
f 530/530/530 536/536/536 535/535/535
f 532/532/532 537/537/537 531/531/531
f 532/532/532 538/538/538 537/537/537
f 534/534/534 539/539/539 533/533/533
f 534/534/534 540/540/540 539/539/539
f 542/542/542 547/547/547 541/541/541
f 542/542/542 548/548/548 547/547/547
f 544/544/544 549/549/549 543/543/543
f 544/544/544 550/550/550 549/549/549
f 546/546/546 551/551/551 545/545/545
f 546/546/546 552/552/552 551/551/551
f 554/554/554 559/559/559 553/553/553
f 554/554/554 560/560/560 559/559/559
f 556/556/556 561/561/561 555/555/555
f 556/556/556 562/562/562 561/561/561
f 558/558/558 563/563/563 557/557/557
f 558/558/558 564/564/564 563/563/563
f 566/566/566 571/571/571 565/565/565
f 566/566/566 572/572/572 571/571/571
f 568/568/568 573/573/573 567/567/567
f 568/568/568 574/574/574 573/573/573
f 570/570/570 575/575/575 569/569/569
f 570/570/570 576/576/576 575/575/575
f 578/578/578 583/583/583 577/577/577
f 578/578/578 584/584/584 583/583/583
f 580/580/580 585/585/585 579/579/579
f 580/580/580 586/586/586 585/585/585
f 582/582/582 587/587/587 581/581/581
f 582/582/582 588/588/588 587/587/587
f 590/590/590 595/595/595 589/589/589
f 590/590/590 596/596/596 595/595/595
f 592/592/592 597/597/597 591/591/591
f 592/592/592 598/598/598 597/597/597
f 594/594/594 599/599/599 593/593/593
f 594/594/594 600/600/600 599/599/599
f 602/602/602 607/607/607 601/601/601
f 602/602/602 608/608/608 607/607/607
f 604/604/604 609/609/609 603/603/603
f 604/604/604 610/610/610 609/609/609
f 606/606/606 611/611/611 605/605/605
f 606/606/606 612/612/612 611/611/611
f 614/614/614 619/619/619 613/613/613
f 614/614/614 620/620/620 619/619/619
f 616/616/616 621/621/621 615/615/615
f 616/616/616 622/622/622 621/621/621
f 618/618/618 623/623/623 617/617/617
f 618/618/618 624/624/624 623/623/623
f 626/626/626 631/631/631 625/625/625
f 626/626/626 632/632/632 631/631/631
f 628/628/628 633/633/633 627/627/627
f 628/628/628 634/634/634 633/633/633
f 630/630/630 635/635/635 629/629/629
f 630/630/630 636/636/636 635/635/635
f 638/638/638 643/643/643 637/637/637
f 638/638/638 644/644/644 643/643/643
f 640/640/640 645/645/645 639/639/639
f 640/640/640 646/646/646 645/645/645
f 642/642/642 647/647/647 641/641/641
f 642/642/642 648/648/648 647/647/647
f 650/650/650 655/655/655 649/649/649
f 650/650/650 656/656/656 655/655/655
f 652/652/652 657/657/657 651/651/651
f 652/652/652 658/658/658 657/657/657
f 654/654/654 659/659/659 653/653/653
f 654/654/654 660/660/660 659/659/659
f 662/662/662 667/667/667 661/661/661
f 662/662/662 668/668/668 667/667/667
f 664/664/664 669/669/669 663/663/663
f 664/664/664 670/670/670 669/669/669
f 666/666/666 671/671/671 665/665/665
f 666/666/666 672/672/672 671/671/671
f 674/674/674 679/679/679 673/673/673
f 674/674/674 680/680/680 679/679/679
f 676/676/676 681/681/681 675/675/675
f 676/676/676 682/682/682 681/681/681
f 678/678/678 683/683/683 677/677/677
f 678/678/678 684/684/684 683/683/683
f 686/686/686 691/691/691 685/685/685
f 686/686/686 692/692/692 691/691/691
f 688/688/688 693/693/693 687/687/687
f 688/688/688 694/694/694 693/693/693
f 690/690/690 695/695/695 689/689/689
f 690/690/690 696/696/696 695/695/695
f 698/698/698 703/703/703 697/697/697
f 698/698/698 704/704/704 703/703/703
f 700/700/700 705/705/705 699/699/699
f 700/700/700 706/706/706 705/705/705
f 702/702/702 707/707/707 701/701/701
f 702/702/702 708/708/708 707/707/707
f 710/710/710 715/715/715 709/709/709
f 710/710/710 716/716/716 715/715/715
f 712/712/712 717/717/717 711/711/711
f 712/712/712 718/718/718 717/717/717
f 714/714/714 719/719/719 713/713/713
f 714/714/714 720/720/720 719/719/719
f 722/722/722 727/727/727 721/721/721
f 722/722/722 728/728/728 727/727/727
f 724/724/724 729/729/729 723/723/723
f 724/724/724 730/730/730 729/729/729
f 726/726/726 731/731/731 725/725/725
f 726/726/726 732/732/732 731/731/731
f 734/734/734 739/739/739 733/733/733
f 734/734/734 740/740/740 739/739/739
f 736/736/736 741/741/741 735/735/735
f 736/736/736 742/742/742 741/741/741
f 738/738/738 743/743/743 737/737/737
f 738/738/738 744/744/744 743/743/743
f 746/746/746 751/751/751 745/745/745
f 746/746/746 752/752/752 751/751/751
f 748/748/748 753/753/753 747/747/747
f 748/748/748 754/754/754 753/753/753
f 750/750/750 755/755/755 749/749/749
f 750/750/750 756/756/756 755/755/755
f 758/758/758 763/763/763 757/757/757
f 758/758/758 764/764/764 763/763/763
f 760/760/760 765/765/765 759/759/759
f 760/760/760 766/766/766 765/765/765
f 762/762/762 767/767/767 761/761/761
f 762/762/762 768/768/768 767/767/767
