g pb_Mesh-944292
v -12.5238037 67.0041656 162.622986
v -12.3737946 167.004166 162.622986
v -12.3737946 167.004166 162.622986
v -12.3737946 -32.9958344 162.622986
v -12.3737946 -32.9958344 162.622986
v -12.5238037 67.0041656 162.622986
v -11.6161194 67.0041656 144.146759
v -11.4668427 167.004166 144.161453
v -11.4668427 167.004166 144.161453
v -11.4668427 -32.9958344 144.161453
v -11.4668427 -32.9958344 144.161453
v -11.6161194 67.0041656 144.146759
v -11.6161194 67.0041656 144.146759
v -11.4668427 167.004166 144.161453
v -11.4668427 167.004166 144.161453
v -11.4668427 -32.9958344 144.161453
v -11.4668427 -32.9958344 144.161453
v -11.6161194 67.0041656 144.146759
v -8.90182495 67.0041656 125.848465
v -8.75469971 167.004166 125.877724
v -8.75469971 167.004166 125.877724
v -8.75469971 -32.9958344 125.877724
v -8.75469971 -32.9958344 125.877724
v -8.90182495 67.0041656 125.848465
v -8.90182495 67.0041656 125.848465
v -8.75469971 167.004166 125.877724
v -8.75469971 167.004166 125.877724
v -8.75469971 -32.9958344 125.877724
v -8.75469971 -32.9958344 125.877724
v -8.90182495 67.0041656 125.848465
v -4.40704346 67.0041656 107.904327
v -4.26350403 167.004166 107.947876
v -4.26350403 167.004166 107.947876
v -4.26350403 -32.9958344 107.947876
v -4.26350403 -32.9958344 107.947876
v -4.40704346 67.0041656 107.904327
v -4.40704346 67.0041656 107.904327
v -4.26350403 167.004166 107.947876
v -4.26350403 167.004166 107.947876
v -4.26350403 -32.9958344 107.947876
v -4.26350403 -32.9958344 107.947876
v -4.40704346 67.0041656 107.904327
v 1.8249054 67.0041656 90.4871597
v 1.96348572 167.004166 90.5445633
v 1.96348572 167.004166 90.5445633
v 1.96348572 -32.9958344 90.5445633
v 1.96348572 -32.9958344 90.5445633
v 1.8249054 67.0041656 90.4871597
v 1.8249054 67.0041656 90.4871597
v 1.96348572 167.004166 90.5445633
v 1.96348572 167.004166 90.5445633
v 1.96348572 -32.9958344 90.5445633
v 1.96348572 -32.9958344 90.5445633
v 1.8249054 67.0041656 90.4871597
v 9.73403931 67.0041656 73.7647095
v 9.86633301 167.004166 73.8354187
v 9.86633301 167.004166 73.8354187
v 9.86633301 -32.9958344 73.8354187
v 9.86633301 -32.9958344 73.8354187
v 9.73403931 67.0041656 73.7647095
v 9.73403931 67.0041656 73.7647095
v 9.86633301 167.004166 73.8354187
v 9.86633301 167.004166 73.8354187
v 9.86633301 -32.9958344 73.8354187
v 9.86633301 -32.9958344 73.8354187
v 9.73403931 67.0041656 73.7647095
v 19.2441864 67.0041656 57.897995
v 19.3689117 167.004166 57.9813309
v 19.3689117 167.004166 57.9813309
v 19.3689117 -32.9958344 57.9813309
v 19.3689117 -32.9958344 57.9813309
v 19.2441864 67.0041656 57.897995
v 19.2441864 67.0041656 57.897995
v 19.3689117 167.004166 57.9813309
v 19.3689117 167.004166 57.9813309
v 19.3689117 -32.9958344 57.9813309
v 19.3689117 -32.9958344 57.9813309
v 19.2441864 67.0041656 57.897995
v 30.2637177 67.0041656 43.039856
v 30.3796692 167.004166 43.1350174
v 30.3796692 167.004166 43.1350174
v 30.3796692 -32.9958344 43.1350174
v 30.3796692 -32.9958344 43.1350174
v 30.2637177 67.0041656 43.039856
v 30.2637177 67.0041656 43.039856
v 30.3796692 167.004166 43.1350174
v 30.3796692 167.004166 43.1350174
v 30.3796692 -32.9958344 43.1350174
v 30.3796692 -32.9958344 43.1350174
v 30.2637177 67.0041656 43.039856
v 42.6865692 67.0041656 29.3333588
v 42.7926331 167.004166 29.4394226
v 42.7926331 167.004166 29.4394226
v 42.7926331 -32.9958344 29.4394226
v 42.7926331 -32.9958344 29.4394226
v 42.6865692 67.0041656 29.3333588
v 42.6865692 67.0041656 29.3333588
v 42.7926331 167.004166 29.4394226
v 42.7926331 167.004166 29.4394226
v 42.7926331 -32.9958344 29.4394226
v 42.7926331 -32.9958344 29.4394226
v 42.6865692 67.0041656 29.3333588
v 56.3930664 67.0041656 16.9105225
v 56.4882278 167.004166 17.026474
v 56.4882278 167.004166 17.026474
v 56.4882278 -32.9958344 17.026474
v 56.4882278 -32.9958344 17.026474
v 56.3930664 67.0041656 16.9105225
v 56.3930664 67.0041656 16.9105225
v 56.4882278 167.004166 17.026474
v 56.4882278 167.004166 17.026474
v 56.4882278 -32.9958344 17.026474
v 56.4882278 -32.9958344 17.026474
v 56.3930664 67.0041656 16.9105225
v 71.2512054 67.0041656 5.89097595
v 71.3345413 167.004166 6.01570129
v 71.3345413 167.004166 6.01570129
v 71.3345413 -32.9958344 6.01570129
v 71.3345413 -32.9958344 6.01570129
v 71.2512054 67.0041656 5.89097595
v 71.2512054 67.0041656 5.89097595
v 71.3345413 167.004166 6.01570129
v 71.3345413 167.004166 6.01570129
v 71.3345413 -32.9958344 6.01570129
v 71.3345413 -32.9958344 6.01570129
v 71.2512054 67.0041656 5.89097595
v 87.1179047 67.0041656 -3.61917114
v 87.1886139 167.004166 -3.48687744
v 87.1886139 167.004166 -3.48687744
v 87.1886139 -32.9958344 -3.48687744
v 87.1886139 -32.9958344 -3.48687744
v 87.1179047 67.0041656 -3.61917114
v 87.1179047 67.0041656 -3.61917114
v 87.1886139 167.004166 -3.48687744
v 87.1886139 167.004166 -3.48687744
v 87.1886139 -32.9958344 -3.48687744
v 87.1886139 -32.9958344 -3.48687744
v 87.1179047 67.0041656 -3.61917114
v 103.84037 67.0041656 -11.5283051
v 103.897774 167.004166 -11.3897247
v 103.897774 167.004166 -11.3897247
v 103.897774 -32.9958344 -11.3897247
v 103.897774 -32.9958344 -11.3897247
v 103.84037 67.0041656 -11.5283051
v 103.84037 67.0041656 -11.5283051
v 103.897774 167.004166 -11.3897247
v 103.897774 167.004166 -11.3897247
v 103.897774 -32.9958344 -11.3897247
v 103.897774 -32.9958344 -11.3897247
v 103.84037 67.0041656 -11.5283051
v 121.257538 67.0041656 -17.7602539
v 121.301086 167.004166 -17.6167145
v 121.301086 167.004166 -17.6167145
v 121.301086 -32.9958344 -17.6167145
v 121.301086 -32.9958344 -17.6167145
v 121.257538 67.0041656 -17.7602539
v 121.257538 67.0041656 -17.7602539
v 121.301086 167.004166 -17.6167145
v 121.301086 167.004166 -17.6167145
v 121.301086 -32.9958344 -17.6167145
v 121.301086 -32.9958344 -17.6167145
v 121.257538 67.0041656 -17.7602539
v 139.20166 67.0041656 -22.2550354
v 139.230927 167.004166 -22.1079102
v 139.230927 167.004166 -22.1079102
v 139.230927 -32.9958344 -22.1079102
v 139.230927 -32.9958344 -22.1079102
v 139.20166 67.0041656 -22.2550354
v 139.20166 67.0041656 -22.2550354
v 139.230927 167.004166 -22.1079102
v 139.230927 167.004166 -22.1079102
v 139.230927 -32.9958344 -22.1079102
v 139.230927 -32.9958344 -22.1079102
v 139.20166 67.0041656 -22.2550354
v 157.499969 67.0041656 -24.9693298
v 157.514664 167.004166 -24.8200531
v 157.514664 167.004166 -24.8200531
v 157.514664 -32.9958344 -24.8200531
v 157.514664 -32.9958344 -24.8200531
v 157.499969 67.0041656 -24.9693298
v 157.499969 67.0041656 -24.9693298
v 157.514664 167.004166 -24.8200531
v 157.514664 167.004166 -24.8200531
v 157.514664 -32.9958344 -24.8200531
v 157.514664 -32.9958344 -24.8200531
v 157.499969 67.0041656 -24.9693298
v 175.976212 67.0041656 -25.8770142
v 175.976212 167.004166 -25.727005
v 175.976212 167.004166 -25.727005
v 175.976212 -32.9958344 -25.727005
v 175.976212 -32.9958344 -25.727005
v 175.976212 67.0041656 -25.8770142
v 175.976212 67.0041656 -25.8770142
v 175.976212 167.004166 -25.727005
v 175.976212 167.004166 -25.727005
v 175.976212 -32.9958344 -25.727005
v 175.976212 -32.9958344 -25.727005
v 175.976212 67.0041656 -25.8770142
v 194.452423 67.0041656 -24.9693298
v 194.437714 167.004166 -24.8200531
v 194.437714 167.004166 -24.8200531
v 194.437714 -32.9958344 -24.8200531
v 194.437714 -32.9958344 -24.8200531
v 194.452423 67.0041656 -24.9693298
v 194.452423 67.0041656 -24.9693298
v 194.437714 167.004166 -24.8200531
v 194.437714 167.004166 -24.8200531
v 194.437714 -32.9958344 -24.8200531
v 194.437714 -32.9958344 -24.8200531
v 194.452423 67.0041656 -24.9693298
v 212.750717 67.0041656 -22.2550354
v 212.721466 167.004166 -22.1079102
v 212.721466 167.004166 -22.1079102
v 212.721466 -32.9958344 -22.1079102
v 212.721466 -32.9958344 -22.1079102
v 212.750717 67.0041656 -22.2550354
v 212.750717 67.0041656 -22.2550354
v 212.721466 167.004166 -22.1079102
v 212.721466 167.004166 -22.1079102
v 212.721466 -32.9958344 -22.1079102
v 212.721466 -32.9958344 -22.1079102
v 212.750717 67.0041656 -22.2550354
v 230.69487 67.0041656 -17.7602539
v 230.651321 167.004166 -17.6167145
v 230.651321 167.004166 -17.6167145
v 230.651321 -32.9958344 -17.6167145
v 230.651321 -32.9958344 -17.6167145
v 230.69487 67.0041656 -17.7602539
v 230.69487 67.0041656 -17.7602539
v 230.651321 167.004166 -17.6167145
v 230.651321 167.004166 -17.6167145
v 230.651321 -32.9958344 -17.6167145
v 230.651321 -32.9958344 -17.6167145
v 230.69487 67.0041656 -17.7602539
v 248.112015 67.0041656 -11.5283051
v 248.054611 167.004166 -11.3897247
v 248.054611 167.004166 -11.3897247
v 248.054611 -32.9958344 -11.3897247
v 248.054611 -32.9958344 -11.3897247
v 248.112015 67.0041656 -11.5283051
v 248.112015 67.0041656 -11.5283051
v 248.054611 167.004166 -11.3897247
v 248.054611 167.004166 -11.3897247
v 248.054611 -32.9958344 -11.3897247
v 248.054611 -32.9958344 -11.3897247
v 248.112015 67.0041656 -11.5283051
v 264.834473 67.0041656 -3.61917114
v 264.763733 167.004166 -3.48687744
v 264.763733 167.004166 -3.48687744
v 264.763733 -32.9958344 -3.48687744
v 264.763733 -32.9958344 -3.48687744
v 264.834473 67.0041656 -3.61917114
v 264.834473 67.0041656 -3.61917114
v 264.763733 167.004166 -3.48687744
v 264.763733 167.004166 -3.48687744
v 264.763733 -32.9958344 -3.48687744
v 264.763733 -32.9958344 -3.48687744
v 264.834473 67.0041656 -3.61917114
v 280.701172 67.0041656 5.89096069
v 280.617828 167.004166 6.01568604
v 280.617828 167.004166 6.01568604
v 280.617828 -32.9958344 6.01568604
v 280.617828 -32.9958344 6.01568604
v 280.701172 67.0041656 5.89096069
v 280.701172 67.0041656 5.89096069
v 280.617828 167.004166 6.01568604
v 280.617828 167.004166 6.01568604
v 280.617828 -32.9958344 6.01568604
v 280.617828 -32.9958344 6.01568604
v 280.701172 67.0041656 5.89096069
v 295.559326 67.0041656 16.9105072
v 295.464172 167.004166 17.0264587
v 295.464172 167.004166 17.0264587
v 295.464172 -32.9958344 17.0264587
v 295.464172 -32.9958344 17.0264587
v 295.559326 67.0041656 16.9105072
v 295.559326 67.0041656 16.9105072
v 295.464172 167.004166 17.0264587
v 295.464172 167.004166 17.0264587
v 295.464172 -32.9958344 17.0264587
v 295.464172 -32.9958344 17.0264587
v 295.559326 67.0041656 16.9105072
v 309.265808 67.0041656 29.3333588
v 309.15976 167.004166 29.4394226
v 309.15976 167.004166 29.4394226
v 309.15976 -32.9958344 29.4394226
v 309.15976 -32.9958344 29.4394226
v 309.265808 67.0041656 29.3333588
v 309.265808 67.0041656 29.3333588
v 309.15976 167.004166 29.4394226
v 309.15976 167.004166 29.4394226
v 309.15976 -32.9958344 29.4394226
v 309.15976 -32.9958344 29.4394226
v 309.265808 67.0041656 29.3333588
v 321.68866 67.0041656 43.039856
v 321.572723 167.004166 43.1350174
v 321.572723 167.004166 43.1350174
v 321.572723 -32.9958344 43.1350174
v 321.572723 -32.9958344 43.1350174
v 321.68866 67.0041656 43.039856
v 321.68866 67.0041656 43.039856
v 321.572723 167.004166 43.1350174
v 321.572723 167.004166 43.1350174
v 321.572723 -32.9958344 43.1350174
v 321.572723 -32.9958344 43.1350174
v 321.68866 67.0041656 43.039856
v 332.708221 67.0041656 57.8980103
v 332.583496 167.004166 57.9813461
v 332.583496 167.004166 57.9813461
v 332.583496 -32.9958344 57.9813461
v 332.583496 -32.9958344 57.9813461
v 332.708221 67.0041656 57.8980103
v 332.708221 67.0041656 57.8980103
v 332.583496 167.004166 57.9813461
v 332.583496 167.004166 57.9813461
v 332.583496 -32.9958344 57.9813461
v 332.583496 -32.9958344 57.9813461
v 332.708221 67.0041656 57.8980103
v 342.218353 67.0041656 73.7646866
v 342.08606 167.004166 73.8353958
v 342.08606 167.004166 73.8353958
v 342.08606 -32.9958344 73.8353958
v 342.08606 -32.9958344 73.8353958
v 342.218353 67.0041656 73.7646866
v 342.218353 67.0041656 73.7646866
v 342.08606 167.004166 73.8353958
v 342.08606 167.004166 73.8353958
v 342.08606 -32.9958344 73.8353958
v 342.08606 -32.9958344 73.8353958
v 342.218353 67.0041656 73.7646866
v 350.127502 67.0041656 90.4871521
v 349.988892 167.004166 90.5445557
v 349.988892 167.004166 90.5445557
v 349.988892 -32.9958344 90.5445557
v 349.988892 -32.9958344 90.5445557
v 350.127502 67.0041656 90.4871521
v 350.127502 67.0041656 90.4871521
v 349.988892 167.004166 90.5445557
v 349.988892 167.004166 90.5445557
v 349.988892 -32.9958344 90.5445557
v 349.988892 -32.9958344 90.5445557
v 350.127502 67.0041656 90.4871521
v 356.359436 67.0041656 107.904312
v 356.215881 167.004166 107.947861
v 356.215881 167.004166 107.947861
v 356.215881 -32.9958344 107.947861
v 356.215881 -32.9958344 107.947861
v 356.359436 67.0041656 107.904312
v 356.359436 67.0041656 107.904312
v 356.215881 167.004166 107.947861
v 356.215881 167.004166 107.947861
v 356.215881 -32.9958344 107.947861
v 356.215881 -32.9958344 107.947861
v 356.359436 67.0041656 107.904312
v 360.854248 67.0041656 125.848465
v 360.707092 167.004166 125.877731
v 360.707092 167.004166 125.877731
v 360.707092 -32.9958344 125.877731
v 360.707092 -32.9958344 125.877731
v 360.854248 67.0041656 125.848465
v 360.854248 67.0041656 125.848465
v 360.707092 167.004166 125.877731
v 360.707092 167.004166 125.877731
v 360.707092 -32.9958344 125.877731
v 360.707092 -32.9958344 125.877731
v 360.854248 67.0041656 125.848465
v 363.568512 67.0041656 144.146759
v 363.41925 167.004166 144.161469
v 363.41925 167.004166 144.161469
v 363.41925 -32.9958344 144.161469
v 363.41925 -32.9958344 144.161469
v 363.568512 67.0041656 144.146759
v 363.568512 67.0041656 144.146759
v 363.41925 167.004166 144.161469
v 363.41925 167.004166 144.161469
v 363.41925 -32.9958344 144.161469
v 363.41925 -32.9958344 144.161469
v 363.568512 67.0041656 144.146759
v 364.476196 67.0041656 162.623001
v 364.326172 167.004166 162.623001
v 364.326172 167.004166 162.623001
v 364.326172 -32.9958344 162.623001
v 364.326172 -32.9958344 162.623001
v 364.476196 67.0041656 162.623001
v 364.476196 67.0041656 162.623001
v 364.326172 167.004166 162.623001
v 364.326172 167.004166 162.623001
v 364.326172 -32.9958344 162.623001
v 364.326172 -32.9958344 162.623001
v 364.476196 67.0041656 162.623001
v 363.568512 67.0041656 181.099197
v 363.41925 167.004166 181.084488
v 363.41925 167.004166 181.084488
v 363.41925 -32.9958344 181.084488
v 363.41925 -32.9958344 181.084488
v 363.568512 67.0041656 181.099197
v 363.568512 67.0041656 181.099197
v 363.41925 167.004166 181.084488
v 363.41925 167.004166 181.084488
v 363.41925 -32.9958344 181.084488
v 363.41925 -32.9958344 181.084488
v 363.568512 67.0041656 181.099197
v 360.854248 67.0041656 199.397491
v 360.707092 167.004166 199.368225
v 360.707092 167.004166 199.368225
v 360.707092 -32.9958344 199.368225
v 360.707092 -32.9958344 199.368225
v 360.854248 67.0041656 199.397491
v 360.854248 67.0041656 199.397491
v 360.707092 167.004166 199.368225
v 360.707092 167.004166 199.368225
v 360.707092 -32.9958344 199.368225
v 360.707092 -32.9958344 199.368225
v 360.854248 67.0041656 199.397491
v 356.359436 67.0041656 217.341644
v 356.215881 167.004166 217.298096
v 356.215881 167.004166 217.298096
v 356.215881 -32.9958344 217.298096
v 356.215881 -32.9958344 217.298096
v 356.359436 67.0041656 217.341644
v 356.359436 67.0041656 217.341644
v 356.215881 167.004166 217.298096
v 356.215881 167.004166 217.298096
v 356.215881 -32.9958344 217.298096
v 356.215881 -32.9958344 217.298096
v 356.359436 67.0041656 217.341644
v 350.127502 67.0041656 234.75882
v 349.988892 167.004166 234.701416
v 349.988892 167.004166 234.701416
v 349.988892 -32.9958344 234.701416
v 349.988892 -32.9958344 234.701416
v 350.127502 67.0041656 234.75882
v 350.127502 67.0041656 234.75882
v 349.988892 167.004166 234.701416
v 349.988892 167.004166 234.701416
v 349.988892 -32.9958344 234.701416
v 349.988892 -32.9958344 234.701416
v 350.127502 67.0041656 234.75882
v 342.218353 67.0041656 251.481277
v 342.08606 167.004166 251.410568
v 342.08606 167.004166 251.410568
v 342.08606 -32.9958344 251.410568
v 342.08606 -32.9958344 251.410568
v 342.218353 67.0041656 251.481277
v 342.218353 67.0041656 251.481277
v 342.08606 167.004166 251.410568
v 342.08606 167.004166 251.410568
v 342.08606 -32.9958344 251.410568
v 342.08606 -32.9958344 251.410568
v 342.218353 67.0041656 251.481277
v 332.708191 67.0041656 267.347992
v 332.583466 167.004166 267.264648
v 332.583466 167.004166 267.264648
v 332.583466 -32.9958344 267.264648
v 332.583466 -32.9958344 267.264648
v 332.708191 67.0041656 267.347992
v 332.708191 67.0041656 267.347992
v 332.583466 167.004166 267.264648
v 332.583466 167.004166 267.264648
v 332.583466 -32.9958344 267.264648
v 332.583466 -32.9958344 267.264648
v 332.708191 67.0041656 267.347992
v 321.68866 67.0041656 282.206116
v 321.572723 167.004166 282.110931
v 321.572723 167.004166 282.110931
v 321.572723 -32.9958344 282.110931
v 321.572723 -32.9958344 282.110931
v 321.68866 67.0041656 282.206116
v 321.68866 67.0041656 282.206116
v 321.572723 167.004166 282.110931
v 321.572723 167.004166 282.110931
v 321.572723 -32.9958344 282.110931
v 321.572723 -32.9958344 282.110931
v 321.68866 67.0041656 282.206116
v 309.265808 67.0041656 295.912598
v 309.15976 167.004166 295.806519
v 309.15976 167.004166 295.806519
v 309.15976 -32.9958344 295.806519
v 309.15976 -32.9958344 295.806519
v 309.265808 67.0041656 295.912598
v 309.265808 67.0041656 295.912598
v 309.15976 167.004166 295.806519
v 309.15976 167.004166 295.806519
v 309.15976 -32.9958344 295.806519
v 309.15976 -32.9958344 295.806519
v 309.265808 67.0041656 295.912598
v 295.559326 67.0041656 308.335449
v 295.464172 167.004166 308.219482
v 295.464172 167.004166 308.219482
v 295.464172 -32.9958344 308.219482
v 295.464172 -32.9958344 308.219482
v 295.559326 67.0041656 308.335449
v 295.559326 67.0041656 308.335449
v 295.464172 167.004166 308.219482
v 295.464172 167.004166 308.219482
v 295.464172 -32.9958344 308.219482
v 295.464172 -32.9958344 308.219482
v 295.559326 67.0041656 308.335449
v 280.701233 67.0041656 319.35498
v 280.617889 167.004166 319.230255
v 280.617889 167.004166 319.230255
v 280.617889 -32.9958344 319.230255
v 280.617889 -32.9958344 319.230255
v 280.701233 67.0041656 319.35498
v 280.701233 67.0041656 319.35498
v 280.617889 167.004166 319.230255
v 280.617889 167.004166 319.230255
v 280.617889 -32.9958344 319.230255
v 280.617889 -32.9958344 319.230255
v 280.701233 67.0041656 319.35498
v 264.834473 67.0041656 328.865143
v 264.763763 167.004166 328.732849
v 264.763763 167.004166 328.732849
v 264.763763 -32.9958344 328.732849
v 264.763763 -32.9958344 328.732849
v 264.834473 67.0041656 328.865143
v 264.834473 67.0041656 328.865143
v 264.763763 167.004166 328.732849
v 264.763763 167.004166 328.732849
v 264.763763 -32.9958344 328.732849
v 264.763763 -32.9958344 328.732849
v 264.834473 67.0041656 328.865143
v 248.112045 67.0041656 336.774292
v 248.054642 167.004166 336.635681
v 248.054642 167.004166 336.635681
v 248.054642 -32.9958344 336.635681
v 248.054642 -32.9958344 336.635681
v 248.112045 67.0041656 336.774292
v 248.112045 67.0041656 336.774292
v 248.054642 167.004166 336.635681
v 248.054642 167.004166 336.635681
v 248.054642 -32.9958344 336.635681
v 248.054642 -32.9958344 336.635681
v 248.112045 67.0041656 336.774292
v 230.694824 67.0041656 343.006226
v 230.651291 167.004166 342.862671
v 230.651291 167.004166 342.862671
v 230.651291 -32.9958344 342.862671
v 230.651291 -32.9958344 342.862671
v 230.694824 67.0041656 343.006226
v 230.694824 67.0041656 343.006226
v 230.651291 167.004166 342.862671
v 230.651291 167.004166 342.862671
v 230.651291 -32.9958344 342.862671
v 230.651291 -32.9958344 342.862671
v 230.694824 67.0041656 343.006226
v 212.750732 67.0041656 347.501007
v 212.721466 167.004166 347.353882
v 212.721466 167.004166 347.353882
v 212.721466 -32.9958344 347.353882
v 212.721466 -32.9958344 347.353882
v 212.750732 67.0041656 347.501007
v 212.750732 67.0041656 347.501007
v 212.721466 167.004166 347.353882
v 212.721466 167.004166 347.353882
v 212.721466 -32.9958344 347.353882
v 212.721466 -32.9958344 347.353882
v 212.750732 67.0041656 347.501007
v 194.452484 67.0041656 350.215302
v 194.437775 167.004166 350.06604
v 194.437775 167.004166 350.06604
v 194.437775 -32.9958344 350.06604
v 194.437775 -32.9958344 350.06604
v 194.452484 67.0041656 350.215302
v 194.452484 67.0041656 350.215302
v 194.437775 167.004166 350.06604
v 194.437775 167.004166 350.06604
v 194.437775 -32.9958344 350.06604
v 194.437775 -32.9958344 350.06604
v 194.452484 67.0041656 350.215302
v 175.976196 67.0041656 351.122986
v 175.976196 167.004166 350.972961
v 175.976196 167.004166 350.972961
v 175.976196 -32.9958344 350.972961
v 175.976196 -32.9958344 350.972961
v 175.976196 67.0041656 351.122986
v 175.976196 67.0041656 351.122986
v 175.976196 167.004166 350.972961
v 175.976196 167.004166 350.972961
v 175.976196 -32.9958344 350.972961
v 175.976196 -32.9958344 350.972961
v 175.976196 67.0041656 351.122986
v 157.5 67.0041656 350.215302
v 157.514709 167.004166 350.06604
v 157.514709 167.004166 350.06604
v 157.514709 -32.9958344 350.06604
v 157.514709 -32.9958344 350.06604
v 157.5 67.0041656 350.215302
v 157.5 67.0041656 350.215302
v 157.514709 167.004166 350.06604
v 157.514709 167.004166 350.06604
v 157.514709 -32.9958344 350.06604
v 157.514709 -32.9958344 350.06604
v 157.5 67.0041656 350.215302
v 139.20166 67.0041656 347.501007
v 139.230927 167.004166 347.353882
v 139.230927 167.004166 347.353882
v 139.230927 -32.9958344 347.353882
v 139.230927 -32.9958344 347.353882
v 139.20166 67.0041656 347.501007
v 139.20166 67.0041656 347.501007
v 139.230927 167.004166 347.353882
v 139.230927 167.004166 347.353882
v 139.230927 -32.9958344 347.353882
v 139.230927 -32.9958344 347.353882
v 139.20166 67.0041656 347.501007
v 121.257553 67.0041656 343.006226
v 121.301102 167.004166 342.862671
v 121.301102 167.004166 342.862671
v 121.301102 -32.9958344 342.862671
v 121.301102 -32.9958344 342.862671
v 121.257553 67.0041656 343.006226
v 121.257553 67.0041656 343.006226
v 121.301102 167.004166 342.862671
v 121.301102 167.004166 342.862671
v 121.301102 -32.9958344 342.862671
v 121.301102 -32.9958344 342.862671
v 121.257553 67.0041656 343.006226
v 103.84034 67.0041656 336.774261
v 103.897743 167.004166 336.635681
v 103.897743 167.004166 336.635681
v 103.897743 -32.9958344 336.635681
v 103.897743 -32.9958344 336.635681
v 103.84034 67.0041656 336.774261
v 103.84034 67.0041656 336.774261
v 103.897743 167.004166 336.635681
v 103.897743 167.004166 336.635681
v 103.897743 -32.9958344 336.635681
v 103.897743 -32.9958344 336.635681
v 103.84034 67.0041656 336.774261
v 87.1179199 67.0041656 328.865143
v 87.1886292 167.004166 328.732849
v 87.1886292 167.004166 328.732849
v 87.1886292 -32.9958344 328.732849
v 87.1886292 -32.9958344 328.732849
v 87.1179199 67.0041656 328.865143
v 87.1179199 67.0041656 328.865143
v 87.1886292 167.004166 328.732849
v 87.1886292 167.004166 328.732849
v 87.1886292 -32.9958344 328.732849
v 87.1886292 -32.9958344 328.732849
v 87.1179199 67.0041656 328.865143
v 71.2512436 67.0041656 319.355042
v 71.3345795 167.004166 319.230286
v 71.3345795 167.004166 319.230286
v 71.3345795 -32.9958344 319.230286
v 71.3345795 -32.9958344 319.230286
v 71.2512436 67.0041656 319.355042
v 71.2512436 67.0041656 319.355042
v 71.3345795 167.004166 319.230286
v 71.3345795 167.004166 319.230286
v 71.3345795 -32.9958344 319.230286
v 71.3345795 -32.9958344 319.230286
v 71.2512436 67.0041656 319.355042
v 56.3930588 67.0041656 308.335449
v 56.4882202 167.004166 308.219482
v 56.4882202 167.004166 308.219482
v 56.4882202 -32.9958344 308.219482
v 56.4882202 -32.9958344 308.219482
v 56.3930588 67.0041656 308.335449
v 56.3930588 67.0041656 308.335449
v 56.4882202 167.004166 308.219482
v 56.4882202 167.004166 308.219482
v 56.4882202 -32.9958344 308.219482
v 56.4882202 -32.9958344 308.219482
v 56.3930588 67.0041656 308.335449
v 42.6865997 67.0041656 295.912628
v 42.7926636 167.004166 295.80658
v 42.7926636 167.004166 295.80658
v 42.7926636 -32.9958344 295.80658
v 42.7926636 -32.9958344 295.80658
v 42.6865997 67.0041656 295.912628
v 42.6865997 67.0041656 295.912628
v 42.7926636 167.004166 295.80658
v 42.7926636 167.004166 295.80658
v 42.7926636 -32.9958344 295.80658
v 42.7926636 -32.9958344 295.80658
v 42.6865997 67.0041656 295.912628
v 30.2637177 67.0041656 282.206085
v 30.3796692 167.004166 282.110931
v 30.3796692 167.004166 282.110931
v 30.3796692 -32.9958344 282.110931
v 30.3796692 -32.9958344 282.110931
v 30.2637177 67.0041656 282.206085
v 30.2637177 67.0041656 282.206085
v 30.3796692 167.004166 282.110931
v 30.3796692 167.004166 282.110931
v 30.3796692 -32.9958344 282.110931
v 30.3796692 -32.9958344 282.110931
v 30.2637177 67.0041656 282.206085
v 19.2441864 67.0041656 267.347992
v 19.3689117 167.004166 267.264648
v 19.3689117 167.004166 267.264648
v 19.3689117 -32.9958344 267.264648
v 19.3689117 -32.9958344 267.264648
v 19.2441864 67.0041656 267.347992
v 19.2441864 67.0041656 267.347992
v 19.3689117 167.004166 267.264648
v 19.3689117 167.004166 267.264648
v 19.3689117 -32.9958344 267.264648
v 19.3689117 -32.9958344 267.264648
v 19.2441864 67.0041656 267.347992
v 9.73406982 67.0041656 251.481323
v 9.86636353 167.004166 251.410614
v 9.86636353 167.004166 251.410614
v 9.86636353 -32.9958344 251.410614
v 9.86636353 -32.9958344 251.410614
v 9.73406982 67.0041656 251.481323
v 9.73406982 67.0041656 251.481323
v 9.86636353 167.004166 251.410614
v 9.86636353 167.004166 251.410614
v 9.86636353 -32.9958344 251.410614
v 9.86636353 -32.9958344 251.410614
v 9.73406982 67.0041656 251.481323
v 1.8249054 67.0041656 234.75882
v 1.96348572 167.004166 234.701416
v 1.96348572 167.004166 234.701416
v 1.96348572 -32.9958344 234.701416
v 1.96348572 -32.9958344 234.701416
v 1.8249054 67.0041656 234.75882
v 1.8249054 67.0041656 234.75882
v 1.96348572 167.004166 234.701416
v 1.96348572 167.004166 234.701416
v 1.96348572 -32.9958344 234.701416
v 1.96348572 -32.9958344 234.701416
v 1.8249054 67.0041656 234.75882
v -4.40704346 67.0041656 217.341675
v -4.26350403 167.004166 217.298126
v -4.26350403 167.004166 217.298126
v -4.26350403 -32.9958344 217.298126
v -4.26350403 -32.9958344 217.298126
v -4.40704346 67.0041656 217.341675
v -4.40704346 67.0041656 217.341675
v -4.26350403 167.004166 217.298126
v -4.26350403 167.004166 217.298126
v -4.26350403 -32.9958344 217.298126
v -4.26350403 -32.9958344 217.298126
v -4.40704346 67.0041656 217.341675
v -8.90184021 67.0041656 199.397491
v -8.75471497 167.004166 199.368225
v -8.75471497 167.004166 199.368225
v -8.75471497 -32.9958344 199.368225
v -8.75471497 -32.9958344 199.368225
v -8.90184021 67.0041656 199.397491
v -8.90184021 67.0041656 199.397491
v -8.75471497 167.004166 199.368225
v -8.75471497 167.004166 199.368225
v -8.75471497 -32.9958344 199.368225
v -8.75471497 -32.9958344 199.368225
v -8.90184021 67.0041656 199.397491
v -11.6161194 67.0041656 181.099243
v -11.4668427 167.004166 181.084534
v -11.4668427 167.004166 181.084534
v -11.4668427 -32.9958344 181.084534
v -11.4668427 -32.9958344 181.084534
v -11.6161194 67.0041656 181.099243
v -11.6161194 67.0041656 181.099243
v -11.4668427 167.004166 181.084534
v -11.4668427 167.004166 181.084534
v -11.4668427 -32.9958344 181.084534
v -11.4668427 -32.9958344 181.084534
v -11.6161194 67.0041656 181.099243
v -12.5238037 67.0041656 162.622955
v -12.3737946 167.004166 162.622955
v -12.3737946 167.004166 162.622955
v -12.3737946 -32.9958344 162.622955
v -12.3737946 -32.9958344 162.622955
v -12.5238037 67.0041656 162.622955
vt 188.5 0
vt 188.349991 0
vt 0 0.0866025388
vt 0 -0.0866025388
vt -188.349991 0
vt -188.5 0
vt 187.592316 -18.4762306
vt 187.443039 -18.4615288
vt 18.4615288 0.0866025388
vt 18.4615288 -0.0866025388
vt -187.443039 -18.4615288
vt -187.592316 -18.4762306
vt 187.592316 -18.4762306
vt 187.443039 -18.4615288
vt 18.4615288 0.0866025388
vt 18.4615288 -0.0866025388
vt -187.443039 -18.4615288
vt -187.592316 -18.4762306
vt 184.878021 -36.7745247
vt 184.730896 -36.7452621
vt 36.7452621 0.0866025388
vt 36.7452621 -0.0866025388
vt -184.730896 -36.7452621
vt -184.878021 -36.7745247
vt 184.878021 -36.7745247
vt 184.730896 -36.7452621
vt 36.7452621 0.0866025388
vt 36.7452621 -0.0866025388
vt -184.730896 -36.7452621
vt -184.878021 -36.7745247
vt 180.38324 -54.7186584
vt 180.2397 -54.6751137
vt 54.6751137 0.0866025388
vt 54.6751137 -0.0866025388
vt -180.2397 -54.6751137
vt -180.38324 -54.7186584
vt 180.38324 -54.7186584
vt 180.2397 -54.6751137
vt 54.6751137 0.0866025388
vt 54.6751137 -0.0866025388
vt -180.2397 -54.6751137
vt -180.38324 -54.7186584
vt 174.151291 -72.1358261
vt 174.012711 -72.0784225
vt 72.0784225 0.0866025388
vt 72.0784225 -0.0866025388
vt -174.012711 -72.0784225
vt -174.151291 -72.1358261
vt 174.151291 -72.1358261
vt 174.012711 -72.0784225
vt 72.0784225 0.0866025388
vt 72.0784225 -0.0866025388
vt -174.012711 -72.0784225
vt -174.151291 -72.1358261
vt 166.242157 -88.8582764
vt 166.109863 -88.7875671
vt 88.7875671 0.0866025388
vt 88.7875671 -0.0866025388
vt -166.109863 -88.7875671
vt -166.242157 -88.8582764
vt 166.242157 -88.8582764
vt 166.109863 -88.7875671
vt 88.7875671 0.0866025388
vt 88.7875671 -0.0866025388
vt -166.109863 -88.7875671
vt -166.242157 -88.8582764
vt 156.73201 -104.724991
vt 156.607285 -104.641655
vt 104.641655 0.0866025388
vt 104.641655 -0.0866025388
vt -156.607285 -104.641655
vt -156.73201 -104.724991
vt 156.73201 -104.724991
vt 156.607285 -104.641655
vt 104.641655 0.0866025388
vt 104.641655 -0.0866025388
vt -156.607285 -104.641655
vt -156.73201 -104.724991
vt 145.712479 -119.58313
vt 145.596527 -119.487968
vt 119.487968 0.0866025388
vt 119.487968 -0.0866025388
vt -145.596527 -119.487968
vt -145.712479 -119.58313
vt 145.712479 -119.58313
vt 145.596527 -119.487968
vt 119.487968 0.0866025388
vt 119.487968 -0.0866025388
vt -145.596527 -119.487968
vt -145.712479 -119.58313
vt 133.289627 -133.289627
vt 133.183563 -133.183563
vt 133.183563 0.0866025388
vt 133.183563 -0.0866025388
vt -133.183563 -133.183563
vt -133.289627 -133.289627
vt 133.289627 -133.289627
vt 133.183563 -133.183563
vt -133.183563 0.0866025388
vt -133.183563 -0.0866025388
vt -133.183563 -133.183563
vt -133.289627 -133.289627
vt 119.58313 -145.712463
vt 119.487968 -145.596512
vt -119.487968 0.0866025388
vt -119.487968 -0.0866025388
vt -119.487968 -145.596512
vt -119.58313 -145.712463
vt 119.58313 -145.712463
vt 119.487968 -145.596512
vt -119.487968 0.0866025388
vt -119.487968 -0.0866025388
vt -119.487968 -145.596512
vt -119.58313 -145.712463
vt 104.724991 -156.73201
vt 104.641655 -156.607285
vt -104.641655 0.0866025388
vt -104.641655 -0.0866025388
vt -104.641655 -156.607285
vt -104.724991 -156.73201
vt 104.724991 -156.73201
vt 104.641655 -156.607285
vt -104.641655 0.0866025388
vt -104.641655 -0.0866025388
vt -104.641655 -156.607285
vt -104.724991 -156.73201
vt 88.8582916 -166.242157
vt 88.7875824 -166.109863
vt -88.7875824 0.0866025388
vt -88.7875824 -0.0866025388
vt -88.7875824 -166.109863
vt -88.8582916 -166.242157
vt 88.8582916 -166.242157
vt 88.7875824 -166.109863
vt -88.7875824 0.0866025388
vt -88.7875824 -0.0866025388
vt -88.7875824 -166.109863
vt -88.8582916 -166.242157
vt 72.1358261 -174.151291
vt 72.0784225 -174.012711
vt -72.0784225 0.0866025388
vt -72.0784225 -0.0866025388
vt -72.0784225 -174.012711
vt -72.1358261 -174.151291
vt 72.1358261 -174.151291
vt 72.0784225 -174.012711
vt -72.0784225 0.0866025388
vt -72.0784225 -0.0866025388
vt -72.0784225 -174.012711
vt -72.1358261 -174.151291
vt 54.7186546 -180.38324
vt 54.6751099 -180.2397
vt -54.6751099 0.0866025388
vt -54.6751099 -0.0866025388
vt -54.6751099 -180.2397
vt -54.7186546 -180.38324
vt 54.7186546 -180.38324
vt 54.6751099 -180.2397
vt -54.6751099 0.0866025388
vt -54.6751099 -0.0866025388
vt -54.6751099 -180.2397
vt -54.7186546 -180.38324
vt 36.7745285 -184.878021
vt 36.745266 -184.730896
vt -36.745266 0.0866025388
vt -36.745266 -0.0866025388
vt -36.745266 -184.730896
vt -36.7745285 -184.878021
vt 36.7745285 -184.878021
vt 36.745266 -184.730896
vt -36.745266 0.0866025388
vt -36.745266 -0.0866025388
vt -36.745266 -184.730896
vt -36.7745285 -184.878021
vt 18.4762287 -187.592316
vt 18.4615269 -187.443039
vt -18.4615269 0.0866025388
vt -18.4615269 -0.0866025388
vt -18.4615269 -187.443039
vt -18.4762287 -187.592316
vt 18.4762287 -187.592316
vt 18.4615269 -187.443039
vt -18.4615269 0.0866025388
vt -18.4615269 -0.0866025388
vt -18.4615269 -187.443039
vt -18.4762287 -187.592316
vt -8.22926449E-06 -188.5
vt -8.23820574E-06 -188.349991
vt 8.23820574E-06 0.0866025388
vt 8.23820574E-06 -0.0866025388
vt 8.23820574E-06 -188.349991
vt 8.22926449E-06 -188.5
vt -8.22926449E-06 -188.5
vt -8.23820574E-06 -188.349991
vt 8.23820574E-06 0.0866025388
vt 8.23820574E-06 -0.0866025388
vt 8.23820574E-06 -188.349991
vt 8.22926449E-06 -188.5
vt -18.476223 -187.592316
vt -18.4615211 -187.443039
vt 18.4615211 0.0866025388
vt 18.4615211 -0.0866025388
vt 18.4615211 -187.443039
vt 18.476223 -187.592316
vt -18.476223 -187.592316
vt -18.4615211 -187.443039
vt 18.4615211 0.0866025388
vt 18.4615211 -0.0866025388
vt 18.4615211 -187.443039
vt 18.476223 -187.592316
vt -36.7745247 -184.878021
vt -36.7452621 -184.730896
vt 36.7452621 0.0866025388
vt 36.7452621 -0.0866025388
vt 36.7452621 -184.730896
vt 36.7745247 -184.878021
vt -36.7745247 -184.878021
vt -36.7452621 -184.730896
vt 36.7452621 0.0866025388
vt 36.7452621 -0.0866025388
vt 36.7452621 -184.730896
vt 36.7745247 -184.878021
vt -54.7186699 -180.38324
vt -54.6751251 -180.2397
vt 54.6751251 0.0866025388
vt 54.6751251 -0.0866025388
vt 54.6751251 -180.2397
vt 54.7186699 -180.38324
vt -54.7186699 -180.38324
vt -54.6751251 -180.2397
vt 54.6751251 0.0866025388
vt 54.6751251 -0.0866025388
vt 54.6751251 -180.2397
vt 54.7186699 -180.38324
vt -72.1358185 -174.151291
vt -72.0784149 -174.012711
vt 72.0784149 0.0866025388
vt 72.0784149 -0.0866025388
vt 72.0784149 -174.012711
vt 72.1358185 -174.151291
vt -72.1358185 -174.151291
vt -72.0784149 -174.012711
vt 72.0784149 0.0866025388
vt 72.0784149 -0.0866025388
vt 72.0784149 -174.012711
vt 72.1358185 -174.151291
vt -88.8582611 -166.242157
vt -88.7875519 -166.109863
vt 88.7875519 0.0866025388
vt 88.7875519 -0.0866025388
vt 88.7875519 -166.109863
vt 88.8582611 -166.242157
vt -88.8582611 -166.242157
vt -88.7875519 -166.109863
vt 88.7875519 0.0866025388
vt 88.7875519 -0.0866025388
vt 88.7875519 -166.109863
vt 88.8582611 -166.242157
vt -104.724976 -156.732025
vt -104.64164 -156.6073
vt 104.64164 0.0866025388
vt 104.64164 -0.0866025388
vt 104.64164 -156.6073
vt 104.724976 -156.732025
vt -104.724976 -156.732025
vt -104.64164 -156.6073
vt 104.64164 0.0866025388
vt 104.64164 -0.0866025388
vt 104.64164 -156.6073
vt 104.724976 -156.732025
vt -119.58313 -145.712479
vt -119.487968 -145.596527
vt 119.487968 0.0866025388
vt 119.487968 -0.0866025388
vt 119.487968 -145.596527
vt 119.58313 -145.712479
vt -119.58313 -145.712479
vt -119.487968 -145.596527
vt 119.487968 0.0866025388
vt 119.487968 -0.0866025388
vt 119.487968 -145.596527
vt 119.58313 -145.712479
vt -133.289627 -133.289627
vt -133.183563 -133.183563
vt 133.183563 0.0866025388
vt 133.183563 -0.0866025388
vt 133.183563 -133.183563
vt 133.289627 -133.289627
vt -133.289627 -133.289627
vt -133.183563 -133.183563
vt -133.183563 0.0866025388
vt -133.183563 -0.0866025388
vt 133.183563 -133.183563
vt 133.289627 -133.289627
vt -145.712479 -119.58313
vt -145.596527 -119.487968
vt -119.487968 0.0866025388
vt -119.487968 -0.0866025388
vt 145.596527 -119.487968
vt 145.712479 -119.58313
vt -145.712479 -119.58313
vt -145.596527 -119.487968
vt -119.487968 0.0866025388
vt -119.487968 -0.0866025388
vt 145.596527 -119.487968
vt 145.712479 -119.58313
vt -156.732025 -104.724976
vt -156.6073 -104.64164
vt -104.64164 0.0866025388
vt -104.64164 -0.0866025388
vt 156.6073 -104.64164
vt 156.732025 -104.724976
vt -156.732025 -104.724976
vt -156.6073 -104.64164
vt -104.64164 0.0866025388
vt -104.64164 -0.0866025388
vt 156.6073 -104.64164
vt 156.732025 -104.724976
vt -166.242157 -88.8582993
vt -166.109863 -88.78759
vt -88.78759 0.0866025388
vt -88.78759 -0.0866025388
vt 166.109863 -88.78759
vt 166.242157 -88.8582993
vt -166.242157 -88.8582993
vt -166.109863 -88.78759
vt -88.78759 0.0866025388
vt -88.78759 -0.0866025388
vt 166.109863 -88.78759
vt 166.242157 -88.8582993
vt -174.151291 -72.1358337
vt -174.012711 -72.0784302
vt -72.0784302 0.0866025388
vt -72.0784302 -0.0866025388
vt 174.012711 -72.0784302
vt 174.151291 -72.1358337
vt -174.151291 -72.1358337
vt -174.012711 -72.0784302
vt -72.0784302 0.0866025388
vt -72.0784302 -0.0866025388
vt 174.012711 -72.0784302
vt 174.151291 -72.1358337
vt -180.38324 -54.7186699
vt -180.2397 -54.6751251
vt -54.6751251 0.0866025388
vt -54.6751251 -0.0866025388
vt 180.2397 -54.6751251
vt 180.38324 -54.7186699
vt -180.38324 -54.7186699
vt -180.2397 -54.6751251
vt -54.6751251 0.0866025388
vt -54.6751251 -0.0866025388
vt 180.2397 -54.6751251
vt 180.38324 -54.7186699
vt -184.878036 -36.7745209
vt -184.730911 -36.7452583
vt -36.7452583 0.0866025388
vt -36.7452583 -0.0866025388
vt 184.730911 -36.7452583
vt 184.878036 -36.7745209
vt -184.878036 -36.7745209
vt -184.730911 -36.7452583
vt -36.7452583 0.0866025388
vt -36.7452583 -0.0866025388
vt 184.730911 -36.7452583
vt 184.878036 -36.7745209
vt -187.592316 -18.476223
vt -187.443039 -18.4615211
vt -18.4615211 0.0866025388
vt -18.4615211 -0.0866025388
vt 187.443039 -18.4615211
vt 187.592316 -18.476223
vt -187.592316 -18.476223
vt -187.443039 -18.4615211
vt -18.4615211 0.0866025388
vt -18.4615211 -0.0866025388
vt 187.443039 -18.4615211
vt 187.592316 -18.476223
vt -188.5 1.64617086E-05
vt -188.349991 1.64748217E-05
vt 1.64748217E-05 0.0866025388
vt 1.64748217E-05 -0.0866025388
vt 188.349991 1.64748217E-05
vt 188.5 1.64617086E-05
vt -188.5 1.64617086E-05
vt -188.349991 1.64748217E-05
vt 1.64748217E-05 0.0866025388
vt 1.64748217E-05 -0.0866025388
vt 188.349991 1.64748217E-05
vt 188.5 1.64617086E-05
vt -187.592316 18.4762096
vt -187.443039 18.4615078
vt 18.4615078 0.0866025388
vt 18.4615078 -0.0866025388
vt 187.443039 18.4615078
vt 187.592316 18.4762096
vt -187.592316 18.4762096
vt -187.443039 18.4615078
vt 18.4615078 0.0866025388
vt 18.4615078 -0.0866025388
vt 187.443039 18.4615078
vt 187.592316 18.4762096
vt -184.878036 36.7745094
vt -184.730911 36.7452469
vt 36.7452469 0.0866025388
vt 36.7452469 -0.0866025388
vt 184.730911 36.7452469
vt 184.878036 36.7745094
vt -184.878036 36.7745094
vt -184.730911 36.7452469
vt 36.7452469 0.0866025388
vt 36.7452469 -0.0866025388
vt 184.730911 36.7452469
vt 184.878036 36.7745094
vt -180.38324 54.7186546
vt -180.2397 54.6751099
vt 54.6751099 0.0866025388
vt 54.6751099 -0.0866025388
vt 180.2397 54.6751099
vt 180.38324 54.7186546
vt -180.38324 54.7186546
vt -180.2397 54.6751099
vt 54.6751099 0.0866025388
vt 54.6751099 -0.0866025388
vt 180.2397 54.6751099
vt 180.38324 54.7186546
vt -174.151291 72.1358261
vt -174.012711 72.0784225
vt 72.0784225 0.0866025388
vt 72.0784225 -0.0866025388
vt 174.012711 72.0784225
vt 174.151291 72.1358261
vt -174.151291 72.1358261
vt -174.012711 72.0784225
vt 72.0784225 0.0866025388
vt 72.0784225 -0.0866025388
vt 174.012711 72.0784225
vt 174.151291 72.1358261
vt -166.242157 88.8582916
vt -166.109863 88.7875824
vt 88.7875824 0.0866025388
vt 88.7875824 -0.0866025388
vt 166.109863 88.7875824
vt 166.242157 88.8582916
vt -166.242157 88.8582916
vt -166.109863 88.7875824
vt 88.7875824 0.0866025388
vt 88.7875824 -0.0866025388
vt 166.109863 88.7875824
vt 166.242157 88.8582916
vt -156.731995 104.724998
vt -156.607269 104.641663
vt 104.641663 0.0866025388
vt 104.641663 -0.0866025388
vt 156.607269 104.641663
vt 156.731995 104.724998
vt -156.731995 104.724998
vt -156.607269 104.641663
vt 104.641663 0.0866025388
vt 104.641663 -0.0866025388
vt 156.607269 104.641663
vt 156.731995 104.724998
vt -145.712479 119.583115
vt -145.596527 119.487953
vt 119.487953 0.0866025388
vt 119.487953 -0.0866025388
vt 145.596527 119.487953
vt 145.712479 119.583115
vt -145.712479 119.583115
vt -145.596527 119.487953
vt 119.487953 0.0866025388
vt 119.487953 -0.0866025388
vt 145.596527 119.487953
vt 145.712479 119.583115
vt -133.289627 133.289612
vt -133.183563 133.183548
vt 133.183548 0.0866025388
vt 133.183548 -0.0866025388
vt 133.183563 133.183548
vt 133.289627 133.289612
vt -133.289627 133.289612
vt -133.183563 133.183548
vt -133.183563 0.0866025388
vt -133.183563 -0.0866025388
vt 133.183563 133.183548
vt 133.289627 133.289612
vt -119.583138 145.712463
vt -119.487976 145.596512
vt -119.487976 0.0866025388
vt -119.487976 -0.0866025388
vt 119.487976 145.596512
vt 119.583138 145.712463
vt -119.583138 145.712463
vt -119.487976 145.596512
vt -119.487976 0.0866025388
vt -119.487976 -0.0866025388
vt 119.487976 145.596512
vt 119.583138 145.712463
vt -104.725021 156.731995
vt -104.641685 156.607269
vt -104.641685 0.0866025388
vt -104.641685 -0.0866025388
vt 104.641685 156.607269
vt 104.725021 156.731995
vt -104.725021 156.731995
vt -104.641685 156.607269
vt -104.641685 0.0866025388
vt -104.641685 -0.0866025388
vt 104.641685 156.607269
vt 104.725021 156.731995
vt -88.8582764 166.242157
vt -88.7875671 166.109863
vt -88.7875671 0.0866025388
vt -88.7875671 -0.0866025388
vt 88.7875671 166.109863
vt 88.8582764 166.242157
vt -88.8582764 166.242157
vt -88.7875671 166.109863
vt -88.7875671 0.0866025388
vt -88.7875671 -0.0866025388
vt 88.7875671 166.109863
vt 88.8582764 166.242157
vt -72.135849 174.151291
vt -72.0784454 174.012711
vt -72.0784454 0.0866025388
vt -72.0784454 -0.0866025388
vt 72.0784454 174.012711
vt 72.135849 174.151291
vt -72.135849 174.151291
vt -72.0784454 174.012711
vt -72.0784454 0.0866025388
vt -72.0784454 -0.0866025388
vt 72.0784454 174.012711
vt 72.135849 174.151291
vt -54.7186356 180.38324
vt -54.6750908 180.2397
vt -54.6750908 0.0866025388
vt -54.6750908 -0.0866025388
vt 54.6750908 180.2397
vt 54.7186356 180.38324
vt -54.7186356 180.38324
vt -54.6750908 180.2397
vt -54.6750908 0.0866025388
vt -54.6750908 -0.0866025388
vt 54.6750908 180.2397
vt 54.7186356 180.38324
vt -36.7745361 184.878021
vt -36.7452736 184.730896
vt -36.7452736 0.0866025388
vt -36.7452736 -0.0866025388
vt 36.7452736 184.730896
vt 36.7745361 184.878021
vt -36.7745361 184.878021
vt -36.7452736 184.730896
vt -36.7452736 0.0866025388
vt -36.7452736 -0.0866025388
vt 36.7452736 184.730896
vt 36.7745361 184.878021
vt -18.4762802 187.592316
vt -18.4615784 187.443039
vt -18.4615784 0.0866025388
vt -18.4615784 -0.0866025388
vt 18.4615784 187.443039
vt 18.4762802 187.592316
vt -18.4762802 187.592316
vt -18.4615784 187.443039
vt -18.4615784 0.0866025388
vt -18.4615784 -0.0866025388
vt 18.4615784 187.443039
vt 18.4762802 187.592316
vt 2.25260783E-06 188.5
vt 2.24366727E-06 188.349991
vt 2.24366727E-06 0.0866025388
vt 2.24366727E-06 -0.0866025388
vt -2.24366727E-06 188.349991
vt -2.25260783E-06 188.5
vt 2.25260783E-06 188.5
vt 2.24366727E-06 188.349991
vt 2.24366727E-06 0.0866025388
vt 2.24366727E-06 -0.0866025388
vt -2.24366727E-06 188.349991
vt -2.25260783E-06 188.5
vt 18.4761963 187.592316
vt 18.4614944 187.443039
vt 18.4614944 0.0866025388
vt 18.4614944 -0.0866025388
vt -18.4614944 187.443039
vt -18.4761963 187.592316
vt 18.4761963 187.592316
vt 18.4614944 187.443039
vt 18.4614944 0.0866025388
vt 18.4614944 -0.0866025388
vt -18.4614944 187.443039
vt -18.4761963 187.592316
vt 36.7745399 184.878021
vt 36.7452774 184.730896
vt 36.7452774 0.0866025388
vt 36.7452774 -0.0866025388
vt -36.7452774 184.730896
vt -36.7745399 184.878021
vt 36.7745399 184.878021
vt 36.7452774 184.730896
vt 36.7452774 0.0866025388
vt 36.7452774 -0.0866025388
vt -36.7452774 184.730896
vt -36.7745399 184.878021
vt 54.7186432 180.38324
vt 54.6750984 180.2397
vt 54.6750984 0.0866025388
vt 54.6750984 -0.0866025388
vt -54.6750984 180.2397
vt -54.7186432 180.38324
vt 54.7186432 180.38324
vt 54.6750984 180.2397
vt 54.6750984 0.0866025388
vt 54.6750984 -0.0866025388
vt -54.6750984 180.2397
vt -54.7186432 180.38324
vt 72.1358566 174.151276
vt 72.0784531 174.012695
vt 72.0784531 0.0866025388
vt 72.0784531 -0.0866025388
vt -72.0784531 174.012695
vt -72.1358566 174.151276
vt 72.1358566 174.151276
vt 72.0784531 174.012695
vt 72.0784531 0.0866025388
vt 72.0784531 -0.0866025388
vt -72.0784531 174.012695
vt -72.1358566 174.151276
vt 88.8582764 166.242157
vt 88.7875671 166.109863
vt 88.7875671 0.0866025388
vt 88.7875671 -0.0866025388
vt -88.7875671 166.109863
vt -88.8582764 166.242157
vt 88.8582764 166.242157
vt 88.7875671 166.109863
vt 88.7875671 0.0866025388
vt 88.7875671 -0.0866025388
vt -88.7875671 166.109863
vt -88.8582764 166.242157
vt 104.724953 156.73204
vt 104.641617 156.607315
vt 104.641617 0.0866025388
vt 104.641617 -0.0866025388
vt -104.641617 156.607315
vt -104.724953 156.73204
vt 104.724953 156.73204
vt 104.641617 156.607315
vt 104.641617 0.0866025388
vt 104.641617 -0.0866025388
vt -104.641617 156.607315
vt -104.724953 156.73204
vt 119.583138 145.712463
vt 119.487976 145.596512
vt 119.487976 0.0866025388
vt 119.487976 -0.0866025388
vt -119.487976 145.596512
vt -119.583138 145.712463
vt 119.583138 145.712463
vt 119.487976 145.596512
vt 119.487976 0.0866025388
vt 119.487976 -0.0866025388
vt -119.487976 145.596512
vt -119.583138 145.712463
vt 133.289597 133.289642
vt 133.183533 133.183578
vt 133.183533 0.0866025388
vt 133.183533 -0.0866025388
vt -133.183533 133.183578
vt -133.289597 133.289642
vt 133.289597 133.289642
vt 133.183533 133.183578
vt -133.183578 0.0866025388
vt -133.183578 -0.0866025388
vt -133.183533 133.183578
vt -133.289597 133.289642
vt 145.712479 119.583107
vt 145.596527 119.487946
vt -119.487946 0.0866025388
vt -119.487946 -0.0866025388
vt -145.596527 119.487946
vt -145.712479 119.583107
vt 145.712479 119.583107
vt 145.596527 119.487946
vt -119.487946 0.0866025388
vt -119.487946 -0.0866025388
vt -145.596527 119.487946
vt -145.712479 119.583107
vt 156.73201 104.724998
vt 156.607285 104.641663
vt -104.641663 0.0866025388
vt -104.641663 -0.0866025388
vt -156.607285 104.641663
vt -156.73201 104.724998
vt 156.73201 104.724998
vt 156.607285 104.641663
vt -104.641663 0.0866025388
vt -104.641663 -0.0866025388
vt -156.607285 104.641663
vt -156.73201 104.724998
vt 166.242126 88.8583298
vt 166.109833 88.7876205
vt -88.7876205 0.0866025388
vt -88.7876205 -0.0866025388
vt -166.109833 88.7876205
vt -166.242126 88.8583298
vt 166.242126 88.8583298
vt 166.109833 88.7876205
vt -88.7876205 0.0866025388
vt -88.7876205 -0.0866025388
vt -166.109833 88.7876205
vt -166.242126 88.8583298
vt 174.151291 72.1358261
vt 174.012711 72.0784225
vt -72.0784225 0.0866025388
vt -72.0784225 -0.0866025388
vt -174.012711 72.0784225
vt -174.151291 72.1358261
vt 174.151291 72.1358261
vt 174.012711 72.0784225
vt -72.0784225 0.0866025388
vt -72.0784225 -0.0866025388
vt -174.012711 72.0784225
vt -174.151291 72.1358261
vt 180.38324 54.7186928
vt 180.2397 54.675148
vt -54.675148 0.0866025388
vt -54.675148 -0.0866025388
vt -180.2397 54.675148
vt -180.38324 54.7186928
vt 180.38324 54.7186928
vt 180.2397 54.675148
vt -54.675148 0.0866025388
vt -54.675148 -0.0866025388
vt -180.2397 54.675148
vt -180.38324 54.7186928
vt 184.878036 36.7745056
vt 184.730911 36.7452431
vt -36.7452431 0.0866025388
vt -36.7452431 -0.0866025388
vt -184.730911 36.7452431
vt -184.878036 36.7745056
vt 184.878036 36.7745056
vt 184.730911 36.7452431
vt -36.7452431 0.0866025388
vt -36.7452431 -0.0866025388
vt -184.730911 36.7452431
vt -184.878036 36.7745056
vt 187.592316 18.4762497
vt 187.443039 18.4615479
vt -18.4615479 0.0866025388
vt -18.4615479 -0.0866025388
vt -187.443039 18.4615479
vt -187.592316 18.4762497
vt 187.592316 18.4762497
vt 187.443039 18.4615479
vt -18.4615479 0.0866025388
vt -18.4615479 -0.0866025388
vt -187.443039 18.4615479
vt -187.592316 18.4762497
vt 188.5 -3.29409013E-05
vt 188.349991 -3.29409013E-05
vt 3.29409013E-05 0.0866025388
vt 3.29409013E-05 -0.0866025388
vt -188.349991 -3.29409013E-05
vt -188.5 -3.29409013E-05
vn -1 9.32446786E-10 -7.55281917E-08
vn 0.000735979062 0.999999702 -9.4483803E-05
vn 0.000735979062 0.999999702 -9.4483803E-05
vn 0.000735978188 -0.999999702 8.70244476E-05
vn 0.000735978188 -0.999999702 8.70244476E-05
vn -1 9.32446786E-10 -7.55281917E-08
vn -0.99518472 2.06886641E-09 -0.0980172604
vn 0.00071611692 0.999999762 0.000149191023
vn 0.00071611692 0.999999762 0.000149191023
vn 0.000736007001 -0.999999762 -2.48651013E-05
vn 0.000736007001 -0.999999762 -2.48651013E-05
vn -0.99518472 2.06886641E-09 -0.0980172604
vn -0.99518472 2.06886641E-09 -0.0980172604
vn 0.00071611692 0.999999762 0.000149191023
vn 0.00071611692 0.999999762 0.000149191023
vn 0.000736007001 -0.999999762 -2.48651013E-05
vn 0.000736007001 -0.999999762 -2.48651013E-05
vn -0.99518472 2.06886641E-09 -0.0980172604
vn -0.980785191 -3.29270256E-09 -0.195090532
vn 0.000735987443 0.999999702 8.95119883E-05
vn 0.000735987443 0.999999702 8.95119883E-05
vn 0.00071609905 -0.999999702 0.000223780953
vn 0.00071609905 -0.999999702 0.000223780953
vn -0.980785191 -3.29270256E-09 -0.195090532
vn -0.980785191 -3.29270256E-09 -0.195090532
vn 0.000735987443 0.999999702 8.95119883E-05
vn 0.000735987443 0.999999702 8.95119883E-05
vn 0.00071609905 -0.999999702 0.000223780953
vn 0.00071609905 -0.999999702 0.000223780953
vn -0.980785191 -3.29270256E-09 -0.195090532
vn -0.956940353 9.79069181E-09 -0.290284544
vn 0.000736012298 0.999999702 0.000208868354
vn 0.000736012298 0.999999702 0.000208868354
vn 0.000736002694 -0.999999702 0.000169081701
vn 0.000736002694 -0.999999702 0.000169081701
vn -0.956940353 9.79069181E-09 -0.290284544
vn -0.956940353 9.79069181E-09 -0.290284544
vn 0.000736012298 0.999999702 0.000208868354
vn 0.000736012298 0.999999702 0.000208868354
vn 0.000736002694 -0.999999702 0.000169081701
vn 0.000736002694 -0.999999702 0.000169081701
vn -0.956940353 9.79069181E-09 -0.290284544
vn -0.923879623 -5.30329158E-09 -0.382683277
vn 0.000676332798 0.999999702 0.00032822034
vn 0.000676332798 0.999999702 0.00032822034
vn 0.000716122158 -0.999999702 0.000278491934
vn 0.000716122158 -0.999999702 0.000278491934
vn -0.923879623 -5.30329158E-09 -0.382683277
vn -0.923879623 -5.30329158E-09 -0.382683277
vn 0.000676332798 0.999999702 0.00032822034
vn 0.000676332798 0.999999702 0.00032822034
vn 0.000716122158 -0.999999702 0.000278491934
vn 0.000716122158 -0.999999702 0.000278491934
vn -0.923879623 -5.30329158E-09 -0.382683277
vn -0.881921172 -7.1390458E-09 -0.471396983
vn 0.000676313473 0.999999702 0.000358048303
vn 0.000676313473 0.999999702 0.000358048303
vn 0.000636536279 -0.999999702 0.000397835189
vn 0.000636536279 -0.999999702 0.000397835189
vn -0.881921172 -7.1390458E-09 -0.471396983
vn -0.881921172 -7.1390458E-09 -0.471396983
vn 0.000676313473 0.999999702 0.000358048303
vn 0.000676313473 0.999999702 0.000358048303
vn 0.000636536279 -0.999999702 0.000397835189
vn 0.000636536279 -0.999999702 0.000397835189
vn -0.881921172 -7.1390458E-09 -0.471396983
vn -0.831469774 3.64237041E-09 -0.555570006
vn 0.00063653494 0.999999702 0.000417726056
vn 0.00063653494 0.999999702 0.000417726056
vn 0.000636531797 -0.999999702 0.000437615614
vn 0.000636531797 -0.999999702 0.000437615614
vn -0.831469774 3.64237041E-09 -0.555570006
vn -0.831469774 3.64237041E-09 -0.555570006
vn 0.00063653494 0.999999702 0.000417726056
vn 0.00063653494 0.999999702 0.000417726056
vn 0.000636531797 -0.999999702 0.000437615614
vn 0.000636531797 -0.999999702 0.000437615614
vn -0.831469774 3.64237041E-09 -0.555570006
vn -0.773010671 9.26619048E-09 -0.634393036
vn 0.000596764381 0.999999702 0.00049730367
vn 0.000596764381 0.999999702 0.00049730367
vn 0.000596756989 -0.999999702 0.0004972975
vn 0.000596756989 -0.999999702 0.0004972975
vn -0.773010671 9.26619048E-09 -0.634393036
vn -0.773010671 9.26619048E-09 -0.634393036
vn 0.000596764381 0.999999702 0.00049730367
vn 0.000596764381 0.999999702 0.00049730367
vn 0.000596756989 -0.999999702 0.0004972975
vn 0.000596756989 -0.999999702 0.0004972975
vn -0.773010671 9.26619048E-09 -0.634393036
vn -0.70710659 0 -0.707106948
vn 0.000497311121 0.999999702 0.000596773345
vn 0.000497311121 0.999999702 0.000596773345
vn 0.000556988409 -0.999999702 0.000556988409
vn 0.000556988409 -0.999999702 0.000556988409
vn -0.70710659 0 -0.707106948
vn -0.70710659 0 -0.707106948
vn 0.000497311121 0.999999702 0.000596773345
vn 0.000497311121 0.999999702 0.000596773345
vn 0.000556988409 -0.999999702 0.000556988409
vn 0.000556988409 -0.999999702 0.000556988409
vn -0.70710659 0 -0.707106948
vn -0.634393096 -9.26618959E-09 -0.773010612
vn 0.000477405585 0.999999702 0.000616648875
vn 0.000477405585 0.999999702 0.000616648875
vn 0.000457519374 -0.999999702 0.000616656558
vn 0.000457519374 -0.999999702 0.000616656558
vn -0.634393096 -9.26618959E-09 -0.773010612
vn -0.634393096 -9.26618959E-09 -0.773010612
vn 0.000477405585 0.999999702 0.000616648875
vn 0.000477405585 0.999999702 0.000616648875
vn 0.000457519374 -0.999999702 0.000616656558
vn 0.000457519374 -0.999999702 0.000616656558
vn -0.634393096 -9.26618959E-09 -0.773010612
vn -0.555570483 -3.67150932E-09 -0.831469476
vn 0.000437615643 0.999999702 0.000616640202
vn 0.000437615643 0.999999702 0.000616640202
vn 0.000417726056 -0.999999702 0.00063653494
vn 0.000417726056 -0.999999702 0.00063653494
vn -0.555570483 -3.67150932E-09 -0.831469476
vn -0.555570483 -3.67150932E-09 -0.831469476
vn 0.000437615643 0.999999702 0.000616640202
vn 0.000437615643 0.999999702 0.000616640202
vn 0.000417726056 -0.999999702 0.00063653494
vn 0.000417726056 -0.999999702 0.00063653494
vn -0.555570483 -3.67150932E-09 -0.831469476
vn -0.471396983 7.08076797E-09 -0.881921172
vn 0.000407781103 0.999999702 0.000616644567
vn 0.000407781103 0.999999702 0.000616644567
vn 0.000358048332 -0.999999762 0.000636530342
vn 0.000358048332 -0.999999762 0.000636530342
vn -0.471396983 7.08076797E-09 -0.881921172
vn -0.471396983 7.08076797E-09 -0.881921172
vn 0.000407781103 0.999999702 0.000616644567
vn 0.000407781103 0.999999702 0.000616644567
vn 0.000358048332 -0.999999762 0.000636530342
vn 0.000358048332 -0.999999762 0.000636530342
vn -0.471396983 7.08076797E-09 -0.881921172
vn -0.382683098 5.27415267E-09 -0.923879683
vn 0.000278491934 0.999999702 0.000696229865
vn 0.000278491934 0.999999702 0.000696229865
vn 0.000338166399 -0.999999702 0.000656440679
vn 0.000338166399 -0.999999702 0.000656440679
vn -0.382683098 5.27415267E-09 -0.923879683
vn -0.382683098 5.27415267E-09 -0.923879683
vn 0.000278491934 0.999999702 0.000696229865
vn 0.000278491934 0.999999702 0.000696229865
vn 0.000338166399 -0.999999702 0.000656440679
vn 0.000338166399 -0.999999702 0.000656440679
vn -0.382683098 5.27415267E-09 -0.923879683
vn -0.290284574 -1.20635297E-08 -0.956940353
vn 0.000149189276 0.999999702 0.000736000424
vn 0.000149189276 0.999999702 0.000736000424
vn 0.000208868354 -0.999999702 0.000736012298
vn 0.000208868354 -0.999999702 0.000736012298
vn -0.290284574 -1.20635297E-08 -0.956940353
vn -0.290284574 -1.20635297E-08 -0.956940353
vn 0.000149189276 0.999999702 0.000736000424
vn 0.000149189276 0.999999702 0.000736000424
vn 0.000208868354 -0.999999702 0.000736012298
vn 0.000208868354 -0.999999702 0.000736012298
vn -0.290284574 -1.20635297E-08 -0.956940353
vn -0.195090577 2.3893949E-09 -0.980785191
vn 0.000233724946 0.999999762 0.000696201925
vn 0.000233724946 0.999999762 0.000696201925
vn 7.45928191E-05 -0.999999702 0.000735982438
vn 7.45928191E-05 -0.999999702 0.000735982438
vn -0.195090577 2.3893949E-09 -0.980785191
vn -0.195090577 2.3893949E-09 -0.980785191
vn 0.000233724946 0.999999762 0.000696201925
vn 0.000233724946 0.999999762 0.000696201925
vn 7.45928191E-05 -0.999999702 0.000735982438
vn 7.45928191E-05 -0.999999702 0.000735982438
vn -0.195090577 2.3893949E-09 -0.980785191
vn -0.0980171785 -7.28474003E-10 -0.99518472
vn -2.23785919E-05 0.999999762 0.000736007059
vn -2.23785919E-05 0.999999762 0.000736007059
vn 0.000161623306 -0.999999762 0.000696223462
vn 0.000161623306 -0.999999762 0.000696223462
vn -0.0980171785 -7.28474003E-10 -0.99518472
vn -0.0980171785 -7.28474003E-10 -0.99518472
vn -2.23785919E-05 0.999999762 0.000736007059
vn -2.23785919E-05 0.999999762 0.000736007059
vn 0.000161623306 -0.999999762 0.000696223462
vn 0.000161623306 -0.999999762 0.000696223462
vn -0.0980171785 -7.28474003E-10 -0.99518472
vn 4.56898945E-08 -9.32446786E-10 -1
vn 8.70244476E-05 0.999999702 0.000735978188
vn 8.70244476E-05 0.999999702 0.000735978188
vn -9.57270167E-05 -0.999999702 0.000755870482
vn -9.57270167E-05 -0.999999702 0.000755870482
vn 4.56898945E-08 -9.32446786E-10 -1
vn 4.56898945E-08 -9.32446786E-10 -1
vn 8.70244476E-05 0.999999702 0.000735978188
vn 8.70244476E-05 0.999999702 0.000735978188
vn -9.57270167E-05 -0.999999702 0.000755870482
vn -9.57270167E-05 -0.999999702 0.000755870482
vn 4.56898945E-08 -9.32446786E-10 -1
vn 0.0980172604 5.33243005E-09 -0.99518472
vn -0.000124325306 0.999999702 0.00075589784
vn -0.000124325306 0.999999702 0.00075589784
vn 1.491893E-05 -0.999999702 0.000755892426
vn 1.491893E-05 -0.999999702 0.000755892426
vn 0.0980172604 5.33243005E-09 -0.99518472
vn 0.0980172604 5.33243005E-09 -0.99518472
vn -0.000124325306 0.999999702 0.00075589784
vn -0.000124325306 0.999999702 0.00075589784
vn 1.491893E-05 -0.999999702 0.000755892426
vn 1.491893E-05 -0.999999702 0.000755892426
vn 0.0980172604 5.33243005E-09 -0.99518472
vn 0.195090443 -1.4278092E-09 -0.980785251
vn -0.000104431369 0.999999702 0.000755884219
vn -0.000104431369 0.999999702 0.000755884219
vn -0.000198917274 -0.999999702 0.000755885616
vn -0.000198917274 -0.999999702 0.000755885616
vn 0.195090443 -1.4278092E-09 -0.980785251
vn 0.195090443 -1.4278092E-09 -0.980785251
vn -0.000104431369 0.999999702 0.000755884219
vn -0.000104431369 0.999999702 0.000755884219
vn -0.000198917274 -0.999999702 0.000755885616
vn -0.000198917274 -0.999999702 0.000755885616
vn 0.195090443 -1.4278092E-09 -0.980785251
vn 0.290284663 7.43043538E-09 -0.956940353
vn -0.00019892228 0.999999702 0.000736012415
vn -0.00019892228 0.999999702 0.000736012415
vn -0.000169082225 -0.999999702 0.000736004964
vn -0.000169082225 -0.999999702 0.000736004964
vn 0.290284663 7.43043538E-09 -0.956940353
vn 0.290284663 7.43043538E-09 -0.956940353
vn -0.00019892228 0.999999702 0.000736012415
vn -0.00019892228 0.999999702 0.000736012415
vn -0.000169082225 -0.999999702 0.000736004964
vn -0.000169082225 -0.999999702 0.000736004964
vn 0.290284663 7.43043538E-09 -0.956940353
vn 0.382683396 -2.16211085E-08 -0.923879504
vn -0.000437617593 0.999999702 0.000616642938
vn -0.000437617593 0.999999702 0.000616642938
vn -0.000268545817 -0.999999702 0.000696229923
vn -0.000268545817 -0.999999702 0.000696229923
vn 0.382683396 -2.16211085E-08 -0.923879504
vn 0.382683396 -2.16211085E-08 -0.923879504
vn -0.000437617593 0.999999702 0.000616642938
vn -0.000437617593 0.999999702 0.000616642938
vn -0.000268545817 -0.999999702 0.000696229923
vn -0.000268545817 -0.999999702 0.000696229923
vn 0.382683396 -2.16211085E-08 -0.923879504
vn 0.471396804 -8.65427197E-09 -0.881921291
vn -0.000238680659 0.999999702 0.000716041948
vn -0.000238680659 0.999999702 0.000716041948
vn -0.000497257104 -0.999999702 0.00059670856
vn -0.000497257104 -0.999999702 0.00059670856
vn 0.471396804 -8.65427197E-09 -0.881921291
vn 0.471396804 -8.65427197E-09 -0.881921291
vn -0.000238680659 0.999999702 0.000716041948
vn -0.000238680659 0.999999702 0.000716041948
vn -0.000497257104 -0.999999702 0.00059670856
vn -0.000497257104 -0.999999702 0.00059670856
vn 0.471396804 -8.65427197E-09 -0.881921291
vn 0.555569887 2.97800185E-08 -0.831469834
vn -0.000298371859 0.999999702 0.000696200994
vn -0.000298371859 0.999999702 0.000696200994
vn -0.000298360013 -0.999999702 0.000676282682
vn -0.000298360013 -0.999999702 0.000676282682
vn 0.555569887 2.97800185E-08 -0.831469834
vn 0.555569887 2.97800185E-08 -0.831469834
vn -0.000298371859 0.999999702 0.000696200994
vn -0.000298371859 0.999999702 0.000696200994
vn -0.000298360013 -0.999999702 0.000676282682
vn -0.000298360013 -0.999999702 0.000676282682
vn 0.555569887 2.97800185E-08 -0.831469834
vn 0.634393334 2.70118186E-08 -0.773010433
vn -0.000397859141 0.999999702 0.000636574638
vn -0.000397859141 0.999999702 0.000636574638
vn -0.000358060352 -0.999999762 0.000636551704
vn -0.000358060352 -0.999999762 0.000636551704
vn 0.634393334 2.70118186E-08 -0.773010433
vn 0.634393334 2.70118186E-08 -0.773010433
vn -0.000397859141 0.999999702 0.000636574638
vn -0.000397859141 0.999999702 0.000636574638
vn -0.000358060352 -0.999999762 0.000636551704
vn -0.000358060352 -0.999999762 0.000636551704
vn 0.634393334 2.70118186E-08 -0.773010433
vn 0.707106948 6.38143227E-09 -0.70710659
vn -0.000537134649 0.999999702 0.000537134649
vn -0.000537134649 0.999999702 0.000537134649
vn -0.00045755523 -0.999999702 0.00061670487
vn -0.00045755523 -0.999999702 0.00061670487
vn 0.707106948 6.38143227E-09 -0.70710659
vn 0.707106948 6.38143227E-09 -0.70710659
vn -0.000537134649 0.999999702 0.000537134649
vn -0.000537134649 0.999999702 0.000537134649
vn -0.00045755523 -0.999999702 0.00061670487
vn -0.00045755523 -0.999999702 0.00061670487
vn 0.707106948 6.38143227E-09 -0.70710659
vn 0.773010373 -2.45932839E-08 -0.634393394
vn -0.000656470831 0.999999702 0.00039786112
vn -0.000656470831 0.999999702 0.00039786112
vn -0.000616704987 -0.999999702 0.000497342728
vn -0.000616704987 -0.999999702 0.000497342728
vn 0.773010373 -2.45932839E-08 -0.634393394
vn 0.773010373 -2.45932839E-08 -0.634393394
vn -0.000656470831 0.999999702 0.00039786112
vn -0.000656470831 0.999999702 0.00039786112
vn -0.000616704987 -0.999999702 0.000497342728
vn -0.000616704987 -0.999999702 0.000497342728
vn 0.773010373 -2.45932839E-08 -0.634393394
vn 0.831469476 -1.89986036E-08 -0.555570483
vn -0.000656423508 0.999999702 0.000437615672
vn -0.000656423508 0.999999702 0.000437615672
vn -0.000696224277 -0.999999702 0.00031827396
vn -0.000696224277 -0.999999702 0.00031827396
vn 0.831469476 -1.89986036E-08 -0.555570483
vn 0.831469476 -1.89986036E-08 -0.555570483
vn -0.000656423508 0.999999702 0.000437615672
vn -0.000656423508 0.999999702 0.000437615672
vn -0.000696224277 -0.999999702 0.00031827396
vn -0.000696224277 -0.999999702 0.00031827396
vn 0.831469476 -1.89986036E-08 -0.555570483
vn 0.881921053 -2.73906249E-08 -0.471397132
vn -0.00073596125 0.999999702 0.000188963022
vn -0.00073596125 0.999999702 0.000188963022
vn -0.000676313473 -0.999999702 0.0003679941
vn -0.000676313473 -0.999999702 0.0003679941
vn 0.881921053 -2.73906249E-08 -0.471397132
vn 0.881921053 -2.73906249E-08 -0.471397132
vn -0.00073596125 0.999999702 0.000188963022
vn -0.00073596125 0.999999702 0.000188963022
vn -0.000676313473 -0.999999702 0.0003679941
vn -0.000676313473 -0.999999702 0.0003679941
vn 0.881921053 -2.73906249E-08 -0.471397132
vn 0.923879683 -1.12476393E-08 -0.382683039
vn -0.00065633771 0.999999702 0.000397780415
vn -0.00065633771 0.999999702 0.000397780415
vn -0.000775683438 -0.999999702 0.000109391258
vn -0.000775683438 -0.999999702 0.000109391258
vn 0.923879683 -1.12476393E-08 -0.382683039
vn 0.923879683 -1.12476393E-08 -0.382683039
vn -0.00065633771 0.999999702 0.000397780415
vn -0.00065633771 0.999999702 0.000397780415
vn -0.000775683438 -0.999999702 0.000109391258
vn -0.000775683438 -0.999999702 0.000109391258
vn 0.923879683 -1.12476393E-08 -0.382683039
vn 0.956940293 -1.26463089E-08 -0.290284872
vn -0.00079557905 0.999999702 9.94473794E-06
vn -0.00079557905 0.999999702 9.94473794E-06
vn -0.000696143368 -0.999999702 0.000323209417
vn -0.000696143368 -0.999999702 0.000323209417
vn 0.956940293 -1.26463089E-08 -0.290284872
vn 0.956940293 -1.26463089E-08 -0.290284872
vn -0.00079557905 0.999999702 9.94473794E-06
vn -0.00079557905 0.999999702 9.94473794E-06
vn -0.000696143368 -0.999999702 0.000323209417
vn -0.000696143368 -0.999999702 0.000323209417
vn 0.956940293 -1.26463089E-08 -0.290284872
vn 0.980785191 3.77349565E-08 -0.195090607
vn -0.00067622395 0.999999583 0.000616557139
vn -0.00067622395 0.999999583 0.000616557139
vn -0.000795517641 -0.999999702 -5.46918382E-05
vn -0.000795517641 -0.999999702 -5.46918382E-05
vn 0.980785191 3.77349565E-08 -0.195090607
vn 0.980785191 3.77349565E-08 -0.195090607
vn -0.00067622395 0.999999583 0.000616557139
vn -0.00067622395 0.999999583 0.000616557139
vn -0.000795517641 -0.999999702 -5.46918382E-05
vn -0.000795517641 -0.999999702 -5.46918382E-05
vn 0.980785191 3.77349565E-08 -0.195090607
vn 0.995184839 1.58807349E-08 -0.0980165154
vn -0.00075593061 0.999999702 -0.00028844722
vn -0.00075593061 0.999999702 -0.00028844722
vn -0.00067634444 -0.999999583 0.000542070193
vn -0.00067634444 -0.999999583 0.000542070193
vn 0.995184839 1.58807349E-08 -0.0980165154
vn 0.995184839 1.58807349E-08 -0.0980165154
vn -0.00075593061 0.999999702 -0.00028844722
vn -0.00075593061 0.999999702 -0.00028844722
vn -0.00067634444 -0.999999583 0.000542070193
vn -0.00067634444 -0.999999583 0.000542070193
vn 0.995184839 1.58807349E-08 -0.0980165154
vn 1 -2.91389621E-11 6.15414919E-08
vn -0.000775721273 0.999999583 0.000362997787
vn -0.000775721273 0.999999583 0.000362997787
vn -0.000775721215 -0.999999583 -0.000361754617
vn -0.000775721215 -0.999999583 -0.000361754617
vn 1 -2.91389621E-11 6.15414919E-08
vn 1 -2.91389621E-11 6.15414919E-08
vn -0.000775721273 0.999999583 0.000362997787
vn -0.000775721273 0.999999583 0.000362997787
vn -0.000775721215 -0.999999583 -0.000361754617
vn -0.000775721215 -0.999999583 -0.000361754617
vn 1 -2.91389621E-11 6.15414919E-08
vn 0.995184779 -1.58515956E-08 0.0980165824
vn -0.00067634444 0.999999583 -0.000542070135
vn -0.00067634444 0.999999583 -0.000542070135
vn -0.000755930494 -0.999999702 0.000288447161
vn -0.000755930494 -0.999999702 0.000288447161
vn 0.995184779 -1.58515956E-08 0.0980165824
vn 0.995184779 -1.58515956E-08 0.0980165824
vn -0.00067634444 0.999999583 -0.000542070135
vn -0.00067634444 0.999999583 -0.000542070135
vn -0.000755930494 -0.999999702 0.000288447161
vn -0.000755930494 -0.999999702 0.000288447161
vn 0.995184779 -1.58515956E-08 0.0980165824
vn 0.980785191 -3.77349565E-08 0.195090607
vn -0.000795517641 0.999999702 5.46918382E-05
vn -0.000795517641 0.999999702 5.46918382E-05
vn -0.00067622395 -0.999999583 -0.000616557139
vn -0.00067622395 -0.999999583 -0.000616557139
vn 0.980785191 -3.77349565E-08 0.195090607
vn 0.980785191 -3.77349565E-08 0.195090607
vn -0.000795517641 0.999999702 5.46918382E-05
vn -0.000795517641 0.999999702 5.46918382E-05
vn -0.00067622395 -0.999999583 -0.000616557139
vn -0.00067622395 -0.999999583 -0.000616557139
vn 0.980785191 -3.77349565E-08 0.195090607
vn 0.956940293 1.26463089E-08 0.290284753
vn -0.000676253578 0.999999702 -0.000328181864
vn -0.000676253578 0.999999702 -0.000328181864
vn -0.000775689608 -0.999999702 -1.98894759E-05
vn -0.000775689608 -0.999999702 -1.98894759E-05
vn 0.956940293 1.26463089E-08 0.290284753
vn 0.956940293 1.26463089E-08 0.290284753
vn -0.000676253578 0.999999702 -0.000328181864
vn -0.000676253578 0.999999702 -0.000328181864
vn -0.000775689608 -0.999999702 -1.98894759E-05
vn -0.000775689608 -0.999999702 -1.98894759E-05
vn 0.956940293 1.26463089E-08 0.290284753
vn 0.923879683 1.12476402E-08 0.382683009
vn -0.000755794114 0.999999702 -0.000109391258
vn -0.000755794114 0.999999702 -0.000109391258
vn -0.000636448676 -0.999999702 -0.000387835898
vn -0.000636448676 -0.999999702 -0.000387835898
vn 0.923879683 1.12476402E-08 0.382683009
vn 0.923879683 1.12476402E-08 0.382683009
vn -0.000755794114 0.999999702 -0.000109391258
vn -0.000755794114 0.999999702 -0.000109391258
vn -0.000636448676 -0.999999702 -0.000387835898
vn -0.000636448676 -0.999999702 -0.000387835898
vn 0.923879683 1.12476402E-08 0.382683009
vn 0.881920874 2.25244179E-08 0.47139737
vn -0.000636526151 0.999999702 -0.000377937395
vn -0.000636526151 0.999999702 -0.000377937395
vn -0.000735961308 -0.999999702 -0.000179017617
vn -0.000735961308 -0.999999702 -0.000179017617
vn 0.881920874 2.25244179E-08 0.47139737
vn 0.881920874 2.25244179E-08 0.47139737
vn -0.000636526151 0.999999702 -0.000377937395
vn -0.000636526151 0.999999702 -0.000377937395
vn -0.000735961308 -0.999999702 -0.000179017617
vn -0.000735961308 -0.999999702 -0.000179017617
vn 0.881920874 2.25244179E-08 0.47139737
vn 0.831469417 2.68078448E-09 0.555570543
vn -0.000656411576 0.999999702 -0.000377933931
vn -0.000656411576 0.999999702 -0.000377933931
vn -0.000596735685 -0.999999702 -0.000437606155
vn -0.000596735685 -0.999999702 -0.000437606155
vn 0.831469417 2.68078448E-09 0.555570543
vn 0.831469417 2.68078448E-09 0.555570543
vn -0.000656411576 0.999999702 -0.000377933931
vn -0.000656411576 0.999999702 -0.000377933931
vn -0.000596735685 -0.999999702 -0.000437606155
vn -0.000596735685 -0.999999702 -0.000437606155
vn 0.831469417 2.68078448E-09 0.555570543
vn 0.773010314 1.95813836E-08 0.634393454
vn -0.000636542565 0.999999702 -0.000397839118
vn -0.000636542565 0.999999702 -0.000397839118
vn -0.000616634439 -0.999999702 -0.00041772009
vn -0.000616634439 -0.999999702 -0.00041772009
vn 0.773010314 1.95813836E-08 0.634393454
vn 0.773010314 1.95813836E-08 0.634393454
vn -0.000636542565 0.999999702 -0.000397839118
vn -0.000636542565 0.999999702 -0.000397839118
vn -0.000616634439 -0.999999702 -0.00041772009
vn -0.000616634439 -0.999999702 -0.00041772009
vn 0.773010314 1.95813836E-08 0.634393454
vn 0.707106769 -5.82779172E-11 0.707106769
vn -0.000457522343 0.999999762 -0.000576875987
vn -0.000457522343 0.999999762 -0.000576875987
vn -0.000576875987 -0.999999762 -0.000457522343
vn -0.000576875987 -0.999999762 -0.000457522343
vn 0.707106769 -5.82779172E-11 0.707106769
vn 0.707106769 -5.82779172E-11 0.707106769
vn -0.000457522343 0.999999762 -0.000576875987
vn -0.000457522343 0.999999762 -0.000576875987
vn -0.000576875987 -0.999999762 -0.000457522343
vn -0.000576875987 -0.999999762 -0.000457522343
vn 0.707106769 -5.82779172E-11 0.707106769
vn 0.634393871 -1.16555841E-08 0.773010015
vn -0.000457494956 0.999999762 -0.00057684147
vn -0.000457494956 0.999999762 -0.00057684147
vn -0.000397827855 -0.999999702 -0.000636524579
vn -0.000397827855 -0.999999702 -0.000636524579
vn 0.634393871 -1.16555841E-08 0.773010015
vn 0.634393871 -1.16555841E-08 0.773010015
vn -0.000457494956 0.999999762 -0.00057684147
vn -0.000457494956 0.999999762 -0.00057684147
vn -0.000397827855 -0.999999702 -0.000636524579
vn -0.000397827855 -0.999999702 -0.000636524579
vn 0.634393871 -1.16555841E-08 0.773010015
vn 0.555570483 5.2158744E-09 0.831469476
vn -0.000437606155 0.999999702 -0.000616626872
vn -0.000437606155 0.999999702 -0.000616626872
vn -0.000417712057 -0.999999702 -0.000636513578
vn -0.000417712057 -0.999999702 -0.000636513578
vn 0.555570483 5.2158744E-09 0.831469476
vn 0.555570483 5.2158744E-09 0.831469476
vn -0.000437606155 0.999999702 -0.000616626872
vn -0.000437606155 0.999999702 -0.000616626872
vn -0.000417712057 -0.999999702 -0.000636513578
vn -0.000417712057 -0.999999702 -0.000636513578
vn 0.555570483 5.2158744E-09 0.831469476
vn 0.471397102 -2.25244161E-08 0.881921053
vn -0.000179017588 0.999999702 -0.000775742868
vn -0.000179017588 0.999999702 -0.000775742868
vn -0.000377937366 -0.999999702 -0.000656417571
vn -0.000377937366 -0.999999702 -0.000656417571
vn 0.471397102 -2.25244161E-08 0.881921053
vn 0.471397102 -2.25244161E-08 0.881921053
vn -0.000179017588 0.999999702 -0.000775742868
vn -0.000179017588 0.999999702 -0.000775742868
vn -0.000377937366 -0.999999702 -0.000656417571
vn -0.000377937366 -0.999999702 -0.000656417571
vn 0.471397102 -2.25244161E-08 0.881921053
vn 0.382683009 -4.83706808E-09 0.923879683
vn -0.000427617604 0.999999702 -0.000616564939
vn -0.000427617604 0.999999702 -0.000616564939
vn -9.94465954E-05 -0.999999702 -0.000775683438
vn -9.94465954E-05 -0.999999702 -0.000775683438
vn 0.382683009 -4.83706808E-09 0.923879683
vn 0.382683009 -4.83706808E-09 0.923879683
vn -0.000427617604 0.999999702 -0.000616564939
vn -0.000427617604 0.999999702 -0.000616564939
vn -9.94465954E-05 -0.999999702 -0.000775683438
vn -9.94465954E-05 -0.999999702 -0.000775683438
vn 0.382683009 -4.83706808E-09 0.923879683
vn 0.290284187 2.61376467E-08 0.956940472
vn -0.000238691078 0.999999762 -0.000696182309
vn -0.000238691078 0.999999762 -0.000696182309
vn -0.000358024117 -0.999999762 -0.000636487326
vn -0.000358024117 -0.999999762 -0.000636487326
vn 0.290284187 2.61376467E-08 0.956940472
vn 0.290284187 2.61376467E-08 0.956940472
vn -0.000238691078 0.999999762 -0.000696182309
vn -0.000238691078 0.999999762 -0.000696182309
vn -0.000358024117 -0.999999762 -0.000636487326
vn -0.000358024117 -0.999999762 -0.000636487326
vn 0.290284187 2.61376467E-08 0.956940472
vn 0.195091158 3.24316645E-08 0.980785072
vn -0.000343135383 0.999999702 -0.000676324824
vn -0.000343135383 0.999999702 -0.000676324824
vn -0.000169073915 -0.999999762 -0.000716077746
vn -0.000169073915 -0.999999762 -0.000716077746
vn 0.195091158 3.24316645E-08 0.980785072
vn 0.195091158 3.24316645E-08 0.980785072
vn -0.000343135383 0.999999702 -0.000676324824
vn -0.000343135383 0.999999702 -0.000676324824
vn -0.000169073915 -0.999999762 -0.000716077746
vn -0.000169073915 -0.999999762 -0.000716077746
vn 0.195091158 3.24316645E-08 0.980785072
vn 0.098017253 -2.17668052E-08 0.99518472
vn 0.000293420395 0.999999702 -0.000755930494
vn 0.000293420395 0.999999702 -0.000755930494
vn -0.000273535465 -0.999999702 -0.000696272065
vn -0.000273535465 -0.999999702 -0.000696272065
vn 0.098017253 -2.17668052E-08 0.99518472
vn 0.098017253 -2.17668052E-08 0.99518472
vn 0.000293420395 0.999999702 -0.000755930494
vn 0.000293420395 0.999999702 -0.000755930494
vn -0.000273535465 -0.999999702 -0.000696272065
vn -0.000273535465 -0.999999702 -0.000696272065
vn 0.098017253 -2.17668052E-08 0.99518472
vn -1.21218079E-07 0 1
vn -0.000362997787 0.999999583 -0.000775721273
vn -0.000362997787 0.999999583 -0.000775721273
vn 0.000361754617 -0.999999583 -0.000775721215
vn 0.000361754617 -0.999999583 -0.000775721215
vn -1.21218079E-07 0 1
vn -1.21218079E-07 0 1
vn -0.000362997787 0.999999583 -0.000775721273
vn -0.000362997787 0.999999583 -0.000775721273
vn 0.000361754617 -0.999999583 -0.000775721215
vn 0.000361754617 -0.999999583 -0.000775721215
vn -1.21218079E-07 0 1
vn -0.0980170071 2.1825084E-08 0.995184779
vn 0.000273535436 0.999999702 -0.000716165465
vn 0.000273535436 0.999999702 -0.000716165465
vn -0.000288447161 -0.999999702 -0.000775823428
vn -0.000288447161 -0.999999702 -0.000775823428
vn -0.0980170071 2.1825084E-08 0.995184779
vn -0.0980170071 2.1825084E-08 0.995184779
vn 0.000273535436 0.999999702 -0.000716165465
vn 0.000273535436 0.999999702 -0.000716165465
vn -0.000288447161 -0.999999702 -0.000775823428
vn -0.000288447161 -0.999999702 -0.000775823428
vn -0.0980170071 2.1825084E-08 0.995184779
vn -0.195090756 -3.70064832E-08 0.980785191
vn 0.000203881995 0.999999702 -0.000716073322
vn 0.000203881995 0.999999702 -0.000716073322
vn 0.000343135413 -0.999999702 -0.000696216768
vn 0.000343135413 -0.999999702 -0.000696216768
vn -0.195090756 -3.70064832E-08 0.980785191
vn -0.195090756 -3.70064832E-08 0.980785191
vn 0.000203881995 0.999999702 -0.000716073322
vn 0.000203881995 0.999999702 -0.000716073322
vn 0.000343135413 -0.999999702 -0.000696216768
vn 0.000343135413 -0.999999702 -0.000696216768
vn -0.195090756 -3.70064832E-08 0.980785191
vn -0.290284693 1.15681669E-08 0.956940353
vn 6.96176794E-05 0.999999702 -0.00073595834
vn 6.96176794E-05 0.999999702 -0.00073595834
vn 0.000268521195 -0.999999762 -0.00067627558
vn 0.000268521195 -0.999999762 -0.00067627558
vn -0.290284693 1.15681669E-08 0.956940353
vn -0.290284693 1.15681669E-08 0.956940353
vn 6.96176794E-05 0.999999702 -0.00073595834
vn 6.96176794E-05 0.999999702 -0.00073595834
vn 0.000268521195 -0.999999762 -0.00067627558
vn 0.000268521195 -0.999999762 -0.00067627558
vn -0.290284693 1.15681669E-08 0.956940353
vn -0.382683098 1.26754491E-08 0.923879683
vn 0.00032822034 0.999999762 -0.000656440679
vn 0.00032822034 0.999999762 -0.000656440679
vn 0.000139242635 -0.999999762 -0.000716104987
vn 0.000139242635 -0.999999762 -0.000716104987
vn -0.382683098 1.26754491E-08 0.923879683
vn -0.382683098 1.26754491E-08 0.923879683
vn 0.00032822034 0.999999762 -0.000656440679
vn 0.00032822034 0.999999762 -0.000656440679
vn 0.000139242635 -0.999999762 -0.000716104987
vn 0.000139242635 -0.999999762 -0.000716104987
vn -0.382683098 1.26754491E-08 0.923879683
vn -0.471396625 -3.98038225E-08 0.881921351
vn 0.000556939689 0.999999702 -0.000537048967
vn 0.000556939689 0.999999702 -0.000537048967
vn 0.000417726988 -0.999999702 -0.000636536337
vn 0.000417726988 -0.999999702 -0.000636536337
vn -0.471396625 -3.98038225E-08 0.881921351
vn -0.471396625 -3.98038225E-08 0.881921351
vn 0.000556939689 0.999999702 -0.000537048967
vn 0.000556939689 0.999999702 -0.000537048967
vn 0.000417726988 -0.999999702 -0.000636536337
vn 0.000417726988 -0.999999702 -0.000636536337
vn -0.471396625 -3.98038225E-08 0.881921351
vn -0.555570185 -1.3811869E-08 0.831469655
vn 0.000318220147 0.999999702 -0.000715995324
vn 0.000318220147 0.999999702 -0.000715995324
vn 0.000636451994 -0.999999702 -0.000497228117
vn 0.000636451994 -0.999999702 -0.000497228117
vn -0.555570185 -1.3811869E-08 0.831469655
vn -0.555570185 -1.3811869E-08 0.831469655
vn 0.000318220147 0.999999702 -0.000715995324
vn 0.000318220147 0.999999702 -0.000715995324
vn 0.000636451994 -0.999999702 -0.000497228117
vn 0.000636451994 -0.999999702 -0.000497228117
vn -0.555570185 -1.3811869E-08 0.831469655
vn -0.634393394 5.28289377E-08 0.773010373
vn 0.0003182613 0.999999702 -0.000755870598
vn 0.0003182613 0.999999702 -0.000755870598
vn 0.00037790864 -0.999999702 -0.000676257536
vn 0.00037790864 -0.999999702 -0.000676257536
vn -0.634393394 5.28289377E-08 0.773010373
vn -0.634393394 5.28289377E-08 0.773010373
vn 0.0003182613 0.999999702 -0.000755870598
vn 0.0003182613 0.999999702 -0.000755870598
vn 0.00037790864 -0.999999702 -0.000676257536
vn 0.00037790864 -0.999999702 -0.000676257536
vn -0.634393394 5.28289377E-08 0.773010373
vn -0.707106888 2.1825084E-08 0.70710665
vn 0.00059681118 0.999999702 -0.00045755523
vn 0.00059681118 0.999999702 -0.00045755523
vn 0.000358076242 -0.999999702 -0.000716152485
vn 0.000358076242 -0.999999702 -0.000716152485
vn -0.707106888 2.1825084E-08 0.70710665
vn -0.707106888 2.1825084E-08 0.70710665
vn 0.00059681118 0.999999702 -0.00045755523
vn 0.00059681118 0.999999702 -0.00045755523
vn 0.000358076242 -0.999999702 -0.000716152485
vn 0.000358076242 -0.999999702 -0.000716152485
vn -0.707106888 2.1825084E-08 0.70710665
vn -0.773010373 -2.70118168E-08 0.634393454
vn 0.000656443881 0.999999702 -0.000417736999
vn 0.000656443881 0.999999702 -0.000417736999
vn 0.000636574638 -0.999999702 -0.000417752104
vn 0.000636574638 -0.999999702 -0.000417752104
vn -0.773010373 -2.70118168E-08 0.634393454
vn -0.773010373 -2.70118168E-08 0.634393454
vn 0.000656443881 0.999999702 -0.000417736999
vn 0.000656443881 0.999999702 -0.000417736999
vn 0.000636574638 -0.999999702 -0.000417752104
vn 0.000636574638 -0.999999702 -0.000417752104
vn -0.773010373 -2.70118168E-08 0.634393454
vn -0.831469417 -1.00529425E-08 0.555570543
vn 0.000616626814 0.999999702 -0.000457497314
vn 0.000616626814 0.999999702 -0.000457497314
vn 0.000696200994 -0.999999702 -0.000358046207
vn 0.000696200994 -0.999999702 -0.000358046207
vn -0.831469417 -1.00529425E-08 0.555570543
vn -0.831469417 -1.00529425E-08 0.555570543
vn 0.000616626814 0.999999702 -0.000457497314
vn 0.000616626814 0.999999702 -0.000457497314
vn 0.000696200994 -0.999999702 -0.000358046207
vn 0.000696200994 -0.999999702 -0.000358046207
vn -0.831469417 -1.00529425E-08 0.555570543
vn -0.881921113 1.19761134E-08 0.471397012
vn 0.000636536337 0.999999702 -0.000407781103
vn 0.000636536337 0.999999702 -0.000407781103
vn 0.000656417571 -0.999999702 -0.000377937366
vn 0.000656417571 -0.999999702 -0.000377937366
vn -0.881921113 1.19761134E-08 0.471397012
vn -0.881921113 1.19761134E-08 0.471397012
vn 0.000636536337 0.999999702 -0.000407781103
vn 0.000636536337 0.999999702 -0.000407781103
vn 0.000656417571 -0.999999702 -0.000377937366
vn 0.000656417571 -0.999999702 -0.000377937366
vn -0.881921113 1.19761134E-08 0.471397012
vn -0.923879445 5.30329114E-09 0.382683545
vn 0.000696229923 0.999999702 -0.000268545817
vn 0.000696229923 0.999999702 -0.000268545817
vn 0.000676332798 -0.999999702 -0.00032822034
vn 0.000676332798 -0.999999702 -0.00032822034
vn -0.923879445 5.30329114E-09 0.382683545
vn -0.923879445 5.30329114E-09 0.382683545
vn 0.000696229923 0.999999702 -0.000268545817
vn 0.000696229923 0.999999702 -0.000268545817
vn 0.000676332798 -0.999999702 -0.00032822034
vn 0.000676332798 -0.999999702 -0.00032822034
vn -0.923879445 5.30329114E-09 0.382683545
vn -0.956940293 -1.21509469E-08 0.290284812
vn 0.000736000424 0.999999702 -0.000139243319
vn 0.000736000424 0.999999702 -0.000139243319
vn 0.000716120063 -0.999999702 -0.000203895295
vn 0.000716120063 -0.999999702 -0.000203895295
vn -0.956940293 -1.21509469E-08 0.290284812
vn -0.956940293 -1.21509469E-08 0.290284812
vn 0.000736000424 0.999999702 -0.000139243319
vn 0.000736000424 0.999999702 -0.000139243319
vn 0.000716120063 -0.999999702 -0.000203895295
vn 0.000716120063 -0.999999702 -0.000203895295
vn -0.956940293 -1.21509469E-08 0.290284812
vn -0.980785251 -4.07945455E-10 0.195090383
vn 0.00071609061 0.999999702 -0.000213832609
vn 0.00071609061 0.999999702 -0.000213832609
vn 0.000735982321 -0.999999702 -6.96199495E-05
vn 0.000735982321 -0.999999702 -6.96199495E-05
vn -0.980785251 -4.07945455E-10 0.195090383
vn -0.980785251 -4.07945455E-10 0.195090383
vn 0.00071609061 0.999999702 -0.000213832609
vn 0.00071609061 0.999999702 -0.000213832609
vn 0.000735982321 -0.999999702 -6.96199495E-05
vn 0.000735982321 -0.999999702 -6.96199495E-05
vn -0.980785251 -4.07945455E-10 0.195090383
vn -0.995184779 -2.59336774E-09 0.0980169475
vn 0.000736000598 0.999999762 1.98919079E-05
vn 0.000736000598 0.999999762 1.98919079E-05
vn 0.000716111099 -0.999999762 -0.000136757328
vn 0.000716111099 -0.999999762 -0.000136757328
vn -0.995184779 -2.59336774E-09 0.0980169475
vn -0.995184779 -2.59336774E-09 0.0980169475
vn 0.000736000598 0.999999762 1.98919079E-05
vn 0.000736000598 0.999999762 1.98919079E-05
vn 0.000716111099 -0.999999762 -0.000136757328
vn 0.000716111099 -0.999999762 -0.000136757328
vn -0.995184779 -2.59336774E-09 0.0980169475
vn -1 9.32446786E-10 -7.55281917E-08
vn 0.000735979062 0.999999702 -9.4483803E-05
vn 0.000735979062 0.999999702 -9.4483803E-05
vn 0.000735978188 -0.999999702 8.70244476E-05
vn 0.000735978188 -0.999999702 8.70244476E-05
vn -1 9.32446786E-10 -7.55281917E-08
g pb_Mesh-944292_0
f 2/2/2 7/7/7 1/1/1
f 2/2/2 8/8/8 7/7/7
f 4/4/4 9/9/9 3/3/3
f 4/4/4 10/10/10 9/9/9
f 6/6/6 11/11/11 5/5/5
f 6/6/6 12/12/12 11/11/11
f 14/14/14 19/19/19 13/13/13
f 14/14/14 20/20/20 19/19/19
f 16/16/16 21/21/21 15/15/15
f 16/16/16 22/22/22 21/21/21
f 18/18/18 23/23/23 17/17/17
f 18/18/18 24/24/24 23/23/23
f 26/26/26 31/31/31 25/25/25
f 26/26/26 32/32/32 31/31/31
f 28/28/28 33/33/33 27/27/27
f 28/28/28 34/34/34 33/33/33
f 30/30/30 35/35/35 29/29/29
f 30/30/30 36/36/36 35/35/35
f 38/38/38 43/43/43 37/37/37
f 38/38/38 44/44/44 43/43/43
f 40/40/40 45/45/45 39/39/39
f 40/40/40 46/46/46 45/45/45
f 42/42/42 47/47/47 41/41/41
f 42/42/42 48/48/48 47/47/47
f 50/50/50 55/55/55 49/49/49
f 50/50/50 56/56/56 55/55/55
f 52/52/52 57/57/57 51/51/51
f 52/52/52 58/58/58 57/57/57
f 54/54/54 59/59/59 53/53/53
f 54/54/54 60/60/60 59/59/59
f 62/62/62 67/67/67 61/61/61
f 62/62/62 68/68/68 67/67/67
f 64/64/64 69/69/69 63/63/63
f 64/64/64 70/70/70 69/69/69
f 66/66/66 71/71/71 65/65/65
f 66/66/66 72/72/72 71/71/71
f 74/74/74 79/79/79 73/73/73
f 74/74/74 80/80/80 79/79/79
f 76/76/76 81/81/81 75/75/75
f 76/76/76 82/82/82 81/81/81
f 78/78/78 83/83/83 77/77/77
f 78/78/78 84/84/84 83/83/83
f 86/86/86 91/91/91 85/85/85
f 86/86/86 92/92/92 91/91/91
f 88/88/88 93/93/93 87/87/87
f 88/88/88 94/94/94 93/93/93
f 90/90/90 95/95/95 89/89/89
f 90/90/90 96/96/96 95/95/95
f 98/98/98 103/103/103 97/97/97
f 98/98/98 104/104/104 103/103/103
f 100/100/100 105/105/105 99/99/99
f 100/100/100 106/106/106 105/105/105
f 102/102/102 107/107/107 101/101/101
f 102/102/102 108/108/108 107/107/107
f 110/110/110 115/115/115 109/109/109
f 110/110/110 116/116/116 115/115/115
f 112/112/112 117/117/117 111/111/111
f 112/112/112 118/118/118 117/117/117
f 114/114/114 119/119/119 113/113/113
f 114/114/114 120/120/120 119/119/119
f 122/122/122 127/127/127 121/121/121
f 122/122/122 128/128/128 127/127/127
f 124/124/124 129/129/129 123/123/123
f 124/124/124 130/130/130 129/129/129
f 126/126/126 131/131/131 125/125/125
f 126/126/126 132/132/132 131/131/131
f 134/134/134 139/139/139 133/133/133
f 134/134/134 140/140/140 139/139/139
f 136/136/136 141/141/141 135/135/135
f 136/136/136 142/142/142 141/141/141
f 138/138/138 143/143/143 137/137/137
f 138/138/138 144/144/144 143/143/143
f 146/146/146 151/151/151 145/145/145
f 146/146/146 152/152/152 151/151/151
f 148/148/148 153/153/153 147/147/147
f 148/148/148 154/154/154 153/153/153
f 150/150/150 155/155/155 149/149/149
f 150/150/150 156/156/156 155/155/155
f 158/158/158 163/163/163 157/157/157
f 158/158/158 164/164/164 163/163/163
f 160/160/160 165/165/165 159/159/159
f 160/160/160 166/166/166 165/165/165
f 162/162/162 167/167/167 161/161/161
f 162/162/162 168/168/168 167/167/167
f 170/170/170 175/175/175 169/169/169
f 170/170/170 176/176/176 175/175/175
f 172/172/172 177/177/177 171/171/171
f 172/172/172 178/178/178 177/177/177
f 174/174/174 179/179/179 173/173/173
f 174/174/174 180/180/180 179/179/179
f 182/182/182 187/187/187 181/181/181
f 182/182/182 188/188/188 187/187/187
f 184/184/184 189/189/189 183/183/183
f 184/184/184 190/190/190 189/189/189
f 186/186/186 191/191/191 185/185/185
f 186/186/186 192/192/192 191/191/191
f 194/194/194 199/199/199 193/193/193
f 194/194/194 200/200/200 199/199/199
f 196/196/196 201/201/201 195/195/195
f 196/196/196 202/202/202 201/201/201
f 198/198/198 203/203/203 197/197/197
f 198/198/198 204/204/204 203/203/203
f 206/206/206 211/211/211 205/205/205
f 206/206/206 212/212/212 211/211/211
f 208/208/208 213/213/213 207/207/207
f 208/208/208 214/214/214 213/213/213
f 210/210/210 215/215/215 209/209/209
f 210/210/210 216/216/216 215/215/215
f 218/218/218 223/223/223 217/217/217
f 218/218/218 224/224/224 223/223/223
f 220/220/220 225/225/225 219/219/219
f 220/220/220 226/226/226 225/225/225
f 222/222/222 227/227/227 221/221/221
f 222/222/222 228/228/228 227/227/227
f 230/230/230 235/235/235 229/229/229
f 230/230/230 236/236/236 235/235/235
f 232/232/232 237/237/237 231/231/231
f 232/232/232 238/238/238 237/237/237
f 234/234/234 239/239/239 233/233/233
f 234/234/234 240/240/240 239/239/239
f 242/242/242 247/247/247 241/241/241
f 242/242/242 248/248/248 247/247/247
f 244/244/244 249/249/249 243/243/243
f 244/244/244 250/250/250 249/249/249
f 246/246/246 251/251/251 245/245/245
f 246/246/246 252/252/252 251/251/251
f 254/254/254 259/259/259 253/253/253
f 254/254/254 260/260/260 259/259/259
f 256/256/256 261/261/261 255/255/255
f 256/256/256 262/262/262 261/261/261
f 258/258/258 263/263/263 257/257/257
f 258/258/258 264/264/264 263/263/263
f 266/266/266 271/271/271 265/265/265
f 266/266/266 272/272/272 271/271/271
f 268/268/268 273/273/273 267/267/267
f 268/268/268 274/274/274 273/273/273
f 270/270/270 275/275/275 269/269/269
f 270/270/270 276/276/276 275/275/275
f 278/278/278 283/283/283 277/277/277
f 278/278/278 284/284/284 283/283/283
f 280/280/280 285/285/285 279/279/279
f 280/280/280 286/286/286 285/285/285
f 282/282/282 287/287/287 281/281/281
f 282/282/282 288/288/288 287/287/287
f 290/290/290 295/295/295 289/289/289
f 290/290/290 296/296/296 295/295/295
f 292/292/292 297/297/297 291/291/291
f 292/292/292 298/298/298 297/297/297
f 294/294/294 299/299/299 293/293/293
f 294/294/294 300/300/300 299/299/299
f 302/302/302 307/307/307 301/301/301
f 302/302/302 308/308/308 307/307/307
f 304/304/304 309/309/309 303/303/303
f 304/304/304 310/310/310 309/309/309
f 306/306/306 311/311/311 305/305/305
f 306/306/306 312/312/312 311/311/311
f 314/314/314 319/319/319 313/313/313
f 314/314/314 320/320/320 319/319/319
f 316/316/316 321/321/321 315/315/315
f 316/316/316 322/322/322 321/321/321
f 318/318/318 323/323/323 317/317/317
f 318/318/318 324/324/324 323/323/323
f 326/326/326 331/331/331 325/325/325
f 326/326/326 332/332/332 331/331/331
f 328/328/328 333/333/333 327/327/327
f 328/328/328 334/334/334 333/333/333
f 330/330/330 335/335/335 329/329/329
f 330/330/330 336/336/336 335/335/335
f 338/338/338 343/343/343 337/337/337
f 338/338/338 344/344/344 343/343/343
f 340/340/340 345/345/345 339/339/339
f 340/340/340 346/346/346 345/345/345
f 342/342/342 347/347/347 341/341/341
f 342/342/342 348/348/348 347/347/347
f 350/350/350 355/355/355 349/349/349
f 350/350/350 356/356/356 355/355/355
f 352/352/352 357/357/357 351/351/351
f 352/352/352 358/358/358 357/357/357
f 354/354/354 359/359/359 353/353/353
f 354/354/354 360/360/360 359/359/359
f 362/362/362 367/367/367 361/361/361
f 362/362/362 368/368/368 367/367/367
f 364/364/364 369/369/369 363/363/363
f 364/364/364 370/370/370 369/369/369
f 366/366/366 371/371/371 365/365/365
f 366/366/366 372/372/372 371/371/371
f 374/374/374 379/379/379 373/373/373
f 374/374/374 380/380/380 379/379/379
f 376/376/376 381/381/381 375/375/375
f 376/376/376 382/382/382 381/381/381
f 378/378/378 383/383/383 377/377/377
f 378/378/378 384/384/384 383/383/383
f 386/386/386 391/391/391 385/385/385
f 386/386/386 392/392/392 391/391/391
f 388/388/388 393/393/393 387/387/387
f 388/388/388 394/394/394 393/393/393
f 390/390/390 395/395/395 389/389/389
f 390/390/390 396/396/396 395/395/395
f 398/398/398 403/403/403 397/397/397
f 398/398/398 404/404/404 403/403/403
f 400/400/400 405/405/405 399/399/399
f 400/400/400 406/406/406 405/405/405
f 402/402/402 407/407/407 401/401/401
f 402/402/402 408/408/408 407/407/407
f 410/410/410 415/415/415 409/409/409
f 410/410/410 416/416/416 415/415/415
f 412/412/412 417/417/417 411/411/411
f 412/412/412 418/418/418 417/417/417
f 414/414/414 419/419/419 413/413/413
f 414/414/414 420/420/420 419/419/419
f 422/422/422 427/427/427 421/421/421
f 422/422/422 428/428/428 427/427/427
f 424/424/424 429/429/429 423/423/423
f 424/424/424 430/430/430 429/429/429
f 426/426/426 431/431/431 425/425/425
f 426/426/426 432/432/432 431/431/431
f 434/434/434 439/439/439 433/433/433
f 434/434/434 440/440/440 439/439/439
f 436/436/436 441/441/441 435/435/435
f 436/436/436 442/442/442 441/441/441
f 438/438/438 443/443/443 437/437/437
f 438/438/438 444/444/444 443/443/443
f 446/446/446 451/451/451 445/445/445
f 446/446/446 452/452/452 451/451/451
f 448/448/448 453/453/453 447/447/447
f 448/448/448 454/454/454 453/453/453
f 450/450/450 455/455/455 449/449/449
f 450/450/450 456/456/456 455/455/455
f 458/458/458 463/463/463 457/457/457
f 458/458/458 464/464/464 463/463/463
f 460/460/460 465/465/465 459/459/459
f 460/460/460 466/466/466 465/465/465
f 462/462/462 467/467/467 461/461/461
f 462/462/462 468/468/468 467/467/467
f 470/470/470 475/475/475 469/469/469
f 470/470/470 476/476/476 475/475/475
f 472/472/472 477/477/477 471/471/471
f 472/472/472 478/478/478 477/477/477
f 474/474/474 479/479/479 473/473/473
f 474/474/474 480/480/480 479/479/479
f 482/482/482 487/487/487 481/481/481
f 482/482/482 488/488/488 487/487/487
f 484/484/484 489/489/489 483/483/483
f 484/484/484 490/490/490 489/489/489
f 486/486/486 491/491/491 485/485/485
f 486/486/486 492/492/492 491/491/491
f 494/494/494 499/499/499 493/493/493
f 494/494/494 500/500/500 499/499/499
f 496/496/496 501/501/501 495/495/495
f 496/496/496 502/502/502 501/501/501
f 498/498/498 503/503/503 497/497/497
f 498/498/498 504/504/504 503/503/503
f 506/506/506 511/511/511 505/505/505
f 506/506/506 512/512/512 511/511/511
f 508/508/508 513/513/513 507/507/507
f 508/508/508 514/514/514 513/513/513
f 510/510/510 515/515/515 509/509/509
f 510/510/510 516/516/516 515/515/515
f 518/518/518 523/523/523 517/517/517
f 518/518/518 524/524/524 523/523/523
f 520/520/520 525/525/525 519/519/519
f 520/520/520 526/526/526 525/525/525
f 522/522/522 527/527/527 521/521/521
f 522/522/522 528/528/528 527/527/527
f 530/530/530 535/535/535 529/529/529
f 530/530/530 536/536/536 535/535/535
f 532/532/532 537/537/537 531/531/531
f 532/532/532 538/538/538 537/537/537
f 534/534/534 539/539/539 533/533/533
f 534/534/534 540/540/540 539/539/539
f 542/542/542 547/547/547 541/541/541
f 542/542/542 548/548/548 547/547/547
f 544/544/544 549/549/549 543/543/543
f 544/544/544 550/550/550 549/549/549
f 546/546/546 551/551/551 545/545/545
f 546/546/546 552/552/552 551/551/551
f 554/554/554 559/559/559 553/553/553
f 554/554/554 560/560/560 559/559/559
f 556/556/556 561/561/561 555/555/555
f 556/556/556 562/562/562 561/561/561
f 558/558/558 563/563/563 557/557/557
f 558/558/558 564/564/564 563/563/563
f 566/566/566 571/571/571 565/565/565
f 566/566/566 572/572/572 571/571/571
f 568/568/568 573/573/573 567/567/567
f 568/568/568 574/574/574 573/573/573
f 570/570/570 575/575/575 569/569/569
f 570/570/570 576/576/576 575/575/575
f 578/578/578 583/583/583 577/577/577
f 578/578/578 584/584/584 583/583/583
f 580/580/580 585/585/585 579/579/579
f 580/580/580 586/586/586 585/585/585
f 582/582/582 587/587/587 581/581/581
f 582/582/582 588/588/588 587/587/587
f 590/590/590 595/595/595 589/589/589
f 590/590/590 596/596/596 595/595/595
f 592/592/592 597/597/597 591/591/591
f 592/592/592 598/598/598 597/597/597
f 594/594/594 599/599/599 593/593/593
f 594/594/594 600/600/600 599/599/599
f 602/602/602 607/607/607 601/601/601
f 602/602/602 608/608/608 607/607/607
f 604/604/604 609/609/609 603/603/603
f 604/604/604 610/610/610 609/609/609
f 606/606/606 611/611/611 605/605/605
f 606/606/606 612/612/612 611/611/611
f 614/614/614 619/619/619 613/613/613
f 614/614/614 620/620/620 619/619/619
f 616/616/616 621/621/621 615/615/615
f 616/616/616 622/622/622 621/621/621
f 618/618/618 623/623/623 617/617/617
f 618/618/618 624/624/624 623/623/623
f 626/626/626 631/631/631 625/625/625
f 626/626/626 632/632/632 631/631/631
f 628/628/628 633/633/633 627/627/627
f 628/628/628 634/634/634 633/633/633
f 630/630/630 635/635/635 629/629/629
f 630/630/630 636/636/636 635/635/635
f 638/638/638 643/643/643 637/637/637
f 638/638/638 644/644/644 643/643/643
f 640/640/640 645/645/645 639/639/639
f 640/640/640 646/646/646 645/645/645
f 642/642/642 647/647/647 641/641/641
f 642/642/642 648/648/648 647/647/647
f 650/650/650 655/655/655 649/649/649
f 650/650/650 656/656/656 655/655/655
f 652/652/652 657/657/657 651/651/651
f 652/652/652 658/658/658 657/657/657
f 654/654/654 659/659/659 653/653/653
f 654/654/654 660/660/660 659/659/659
f 662/662/662 667/667/667 661/661/661
f 662/662/662 668/668/668 667/667/667
f 664/664/664 669/669/669 663/663/663
f 664/664/664 670/670/670 669/669/669
f 666/666/666 671/671/671 665/665/665
f 666/666/666 672/672/672 671/671/671
f 674/674/674 679/679/679 673/673/673
f 674/674/674 680/680/680 679/679/679
f 676/676/676 681/681/681 675/675/675
f 676/676/676 682/682/682 681/681/681
f 678/678/678 683/683/683 677/677/677
f 678/678/678 684/684/684 683/683/683
f 686/686/686 691/691/691 685/685/685
f 686/686/686 692/692/692 691/691/691
f 688/688/688 693/693/693 687/687/687
f 688/688/688 694/694/694 693/693/693
f 690/690/690 695/695/695 689/689/689
f 690/690/690 696/696/696 695/695/695
f 698/698/698 703/703/703 697/697/697
f 698/698/698 704/704/704 703/703/703
f 700/700/700 705/705/705 699/699/699
f 700/700/700 706/706/706 705/705/705
f 702/702/702 707/707/707 701/701/701
f 702/702/702 708/708/708 707/707/707
f 710/710/710 715/715/715 709/709/709
f 710/710/710 716/716/716 715/715/715
f 712/712/712 717/717/717 711/711/711
f 712/712/712 718/718/718 717/717/717
f 714/714/714 719/719/719 713/713/713
f 714/714/714 720/720/720 719/719/719
f 722/722/722 727/727/727 721/721/721
f 722/722/722 728/728/728 727/727/727
f 724/724/724 729/729/729 723/723/723
f 724/724/724 730/730/730 729/729/729
f 726/726/726 731/731/731 725/725/725
f 726/726/726 732/732/732 731/731/731
f 734/734/734 739/739/739 733/733/733
f 734/734/734 740/740/740 739/739/739
f 736/736/736 741/741/741 735/735/735
f 736/736/736 742/742/742 741/741/741
f 738/738/738 743/743/743 737/737/737
f 738/738/738 744/744/744 743/743/743
f 746/746/746 751/751/751 745/745/745
f 746/746/746 752/752/752 751/751/751
f 748/748/748 753/753/753 747/747/747
f 748/748/748 754/754/754 753/753/753
f 750/750/750 755/755/755 749/749/749
f 750/750/750 756/756/756 755/755/755
f 758/758/758 763/763/763 757/757/757
f 758/758/758 764/764/764 763/763/763
f 760/760/760 765/765/765 759/759/759
f 760/760/760 766/766/766 765/765/765
f 762/762/762 767/767/767 761/761/761
f 762/762/762 768/768/768 767/767/767
