g pCube1
v 0.0536415887 0.00362977164 9.16840526E-07
v 0.0600851439 0.00362977164 -0.00653982347
v 0.0600851439 -0.00362977164 -0.00653982347
v 0.0536415887 -0.00362977164 9.16840526E-07
v -0.0536415887 -0.00362977164 9.16840526E-07
v -0.0536415887 0.00362977164 9.16840526E-07
v -0.0600851439 -0.00362977164 -0.00653982347
v -0.0600851439 0.00362977164 -0.00653982347
vt 0.946236559 1
vt 1 1
vt 1 0
vt 0.946236559 0
vt 0.0537634409 0
vt 0.0537634409 1
vt 0 0
vt 0 1
vn 0.0586608494 -0.00279337378 0.998274061
vn 0.712310314 -0.00279337378 0.701859112
vn 0.712310314 -0.00279337378 0.701859112
vn 0.0586608494 -0.00279337378 0.998274061
vn -0.0586608494 0.00279337378 0.998274061
vn -0.0586608494 0.00279337378 0.998274061
vn -0.712310314 0.00279337378 0.701859112
vn -0.712310314 0.00279337378 0.701859112
g pCube1_0
f 3/3/3 2/2/2 1/1/1
f 4/4/4 3/3/3 1/1/1
f 5/5/5 4/4/4 1/1/1
f 6/6/6 5/5/5 1/1/1
f 5/5/5 6/6/6 7/7/7
f 6/6/6 8/8/8 7/7/7
