g pCylinder1
v -0.00202729439 -0.000475468146 0.0014727262
v -1.04773797E-07 1.04773797E-07 1.04773797E-07
v -0.0014727262 -0.000475468146 0.00202729439
v 0.0014730504 -0.000475468146 0.00202729439
v -1.04773797E-07 1.04773797E-07 1.04773797E-07
v 0.00202708485 -0.000475468146 0.0014727262
v 0.00468730419 -0.0198116973 -0.0144256071
v -1.04773797E-07 -0.0161496257 -0.0148355286
v -1.04773797E-07 -0.0198116973 -0.0151675222
v 0.00458429008 -0.0161496257 -0.0141090923
v 0.00891515279 -0.0198116973 -0.0122708508
v -1.04773797E-07 -0.012687711 -0.0141016198
v 0.0087197996 -0.0161496257 -0.0120018399
v 0.0122708508 -0.0198116973 -0.00891515279
v 0.00435744553 -0.012687711 -0.0134114786
v -1.04773797E-07 -0.00993248386 -0.0131744927
v 0.0120018399 -0.0161496257 -0.0087197996
v 0.0144256071 -0.0198116973 -0.00468730419
v 0.00407135452 -0.00993248386 -0.0125297205
v -1.04773797E-07 -0.00746281394 -0.0118086217
v 0.00828906184 -0.012687711 -0.0114088415
v 0.0141090923 -0.0161496257 -0.00458429008
v 0.0151675222 -0.0198116973 1.04773797E-07
v 0.00364915679 -0.00746281394 -0.0112311022
v -1.04773797E-07 -0.0055012758 -0.0104731745
v 0.00774410117 -0.00993248386 -0.0106583864
v 0.0114088415 -0.012687711 -0.00828906184
v 0.0148355286 -0.0161496257 1.04773797E-07
v 0.0144256071 -0.0198116973 0.00468697998
v 0.00323656659 -0.0055012758 -0.00996077271
v -1.04773797E-07 -0.00376391345 -0.00866162065
v 0.0134114786 -0.012687711 -0.00435744553
v 0.0106583864 -0.00993248386 -0.00774410117
v 0.00694133835 -0.00746281394 -0.00955352003
v 0.0141090923 -0.0161496257 0.00458449962
v 0.0122708508 -0.0198116973 0.00891536233
v 0.00267666088 -0.00376391345 -0.00823728791
v -1.04773797E-07 -0.00203669238 -0.00590639347
v 0.0141016198 -0.012687711 1.04773797E-07
v 0.0125297205 -0.00993248386 -0.00407135452
v 0.00615618935 -0.0055012758 -0.00847267248
v 0.00955352003 -0.00746281394 -0.00694133835
v 0.0120018399 -0.0161496257 0.00872000915
v 0.00891515279 -0.0198116973 0.0122710604
v 0.00182532664 -0.00203669238 -0.00561763371
v -1.04773797E-07 -0.000475468146 -0.00250586028
v 0.0134114786 -0.012687711 0.00435765508
v 0.0131744927 -0.00993248386 1.04773797E-07
v 0.0112311022 -0.00746281394 -0.00364915679
v 0.00847267248 -0.0055012758 -0.00615618935
v 0.00509082061 -0.00376391345 -0.00700698983
v 0.000774369196 -0.000475468146 -0.00238309735
v -1.04773797E-07 1.04773797E-07 1.04773797E-07
v 0.00347195117 -0.00203669238 -0.00477857576
v 0.00700698983 -0.00376391345 -0.00509082061
v 0.00996077271 -0.0055012758 -0.00323656659
v 0.0118086217 -0.00746281394 1.04773797E-07
v 0.0014730504 -0.000475468146 -0.00202708485
v 0.00477857576 -0.00203669238 -0.00347195117
v 0.00823728791 -0.00376391345 -0.00267666088
v 0.00202708485 -0.000475468146 -0.0014730504
v 0.00561763371 -0.00203669238 -0.00182532664
v 0.0104731745 -0.0055012758 1.04773797E-07
v 0.0125297205 -0.00993248386 0.00407103032
v 0.00238309735 -0.000475468146 -0.000774369196
v 0.00866162065 -0.00376391345 1.04773797E-07
v 0.0112311022 -0.00746281394 0.00364936634
v 0.0114083078 -0.012687711 0.00828873763
v 0.00590639347 -0.00203669238 1.04773797E-07
v 0.00250586028 -0.000475468146 1.04773797E-07
v 0.00996077271 -0.0055012758 0.00323624239
v 0.0106583864 -0.00993248386 0.00774377697
v 0.0087197996 -0.0161496257 0.0120020494
v 0.00468730419 -0.0198116973 0.0144252829
v 0.00238309735 -0.000475468146 0.000774578744
v 0.00202708485 -0.000475468146 0.0014727262
v 0.00828906184 -0.012687711 0.0114085173
v 0.00458429008 -0.0161496257 0.0141093018
v -1.04773797E-07 -0.0198116973 0.0151677318
v -1.04773797E-07 -0.0161496257 0.0148352044
v 0.00435744553 -0.012687711 0.0134116881
v -1.04773797E-07 -0.012687711 0.0141018293
v 0.00561763371 -0.00203669238 0.00182500243
v 0.00477857576 -0.00203669238 0.00347162697
v 0.00774410117 -0.00993248386 0.010658596
v 0.00407135452 -0.00993248386 0.01252993
v -1.04773797E-07 -0.00993248386 0.0131747023
v 0.00823728791 -0.00376391345 0.00267633667
v 0.00955352003 -0.00746281394 0.00694101415
v 0.00364915679 -0.00746281394 0.011230778
v -1.04773797E-07 -0.00746281394 0.0118088312
v 0.00694133835 -0.00746281394 0.00955372958
v 0.00847267248 -0.0055012758 0.00615586514
v 0.00700698983 -0.00376391345 0.00509103015
v 0.00615618935 -0.0055012758 0.00847288203
v 0.00323656659 -0.0055012758 0.0099604485
v -1.04773797E-07 -0.0055012758 0.0104728503
v 0.00509082061 -0.00376391345 0.00700719938
v 0.00267666088 -0.00376391345 0.00823749745
v -1.04773797E-07 -0.00376391345 0.00866129644
v 0.00347195117 -0.00203669238 0.00477825155
v 0.0014730504 -0.000475468146 0.00202729439
v 0.00182532664 -0.00203669238 0.0056173095
v -1.04773797E-07 -0.00203669238 0.00590660302
v 0.000774369196 -0.000475468146 0.00238330689
v -1.04773797E-07 1.04773797E-07 1.04773797E-07
v -1.04773797E-07 -0.000475468146 0.00250553607
v -0.00468697998 -0.0198116973 0.0144252829
v -1.04773797E-07 -0.0161496257 0.0148352044
v -1.04773797E-07 -0.0198116973 0.0151677318
v -0.00458449962 -0.0161496257 0.0141093018
v -0.00891536233 -0.0198116973 0.0122710604
v -1.04773797E-07 -0.012687711 0.0141018293
v -0.00872000915 -0.0161496257 0.0120020494
v -0.0122710604 -0.0198116973 0.00891536233
v -0.00435765508 -0.012687711 0.0134116881
v -1.04773797E-07 -0.00993248386 0.0131747023
v -0.0120020494 -0.0161496257 0.00872000915
v -0.0144252829 -0.0198116973 0.00468697998
v -0.00407103032 -0.00993248386 0.01252993
v -1.04773797E-07 -0.00746281394 0.0118088312
v -0.00828873763 -0.012687711 0.0114085173
v -0.0141093018 -0.0161496257 0.00458449962
v -0.0151677318 -0.0198116973 1.04773797E-07
v -0.00364936634 -0.00746281394 0.011230778
v -1.04773797E-07 -0.0055012758 0.0104728503
v -0.00774377697 -0.00993248386 0.010658596
v -0.0114085173 -0.012687711 0.00828873763
v -0.0148352044 -0.0161496257 1.04773797E-07
v -0.0144252829 -0.0198116973 -0.00468730419
v -0.00323624239 -0.0055012758 0.0099604485
v -1.04773797E-07 -0.00376391345 0.00866129644
v -0.0134116881 -0.012687711 0.00435765508
v -0.010658596 -0.00993248386 0.00774377697
v -0.00694101415 -0.00746281394 0.00955372958
v -0.0141093018 -0.0161496257 -0.00458429008
v -0.0122710604 -0.0198116973 -0.00891515279
v -0.00267633667 -0.00376391345 0.00823749745
v -1.04773797E-07 -0.00203669238 0.00590660302
v -0.0141018293 -0.012687711 1.04773797E-07
v -0.01252993 -0.00993248386 0.00407103032
v -0.00615586514 -0.0055012758 0.00847288203
v -0.00955372958 -0.00746281394 0.00694101415
v -0.0120020494 -0.0161496257 -0.0087197996
v -0.00891536233 -0.0198116973 -0.0122708508
v -0.00182500243 -0.00203669238 0.0056173095
v -1.04773797E-07 -0.000475468146 0.00250553607
v -0.0134116881 -0.012687711 -0.00435744553
v -0.0131747023 -0.00993248386 1.04773797E-07
v -0.011230778 -0.00746281394 0.00364936634
v -0.00847288203 -0.0055012758 0.00615586514
v -0.00509103015 -0.00376391345 0.00700719938
v -0.000774578744 -0.000475468146 0.00238330689
v -1.04773797E-07 1.04773797E-07 1.04773797E-07
v -0.0014727262 -0.000475468146 0.00202729439
v -0.00347162697 -0.00203669238 0.00477825155
v -0.00700719938 -0.00376391345 0.00509103015
v -0.00477825155 -0.00203669238 0.00347162697
v -0.00202729439 -0.000475468146 0.0014727262
v -0.0099604485 -0.0055012758 0.00323624239
v -0.00823749745 -0.00376391345 0.00267633667
v -0.0056173095 -0.00203669238 0.00182500243
v -0.0118088312 -0.00746281394 1.04773797E-07
v -0.0104728503 -0.0055012758 1.04773797E-07
v -0.01252993 -0.00993248386 -0.00407135452
v -0.00238330689 -0.000475468146 0.000774578744
v -1.04773797E-07 1.04773797E-07 1.04773797E-07
v -0.00866129644 -0.00376391345 1.04773797E-07
v -0.011230778 -0.00746281394 -0.00364915679
v -0.0114085173 -0.012687711 -0.00828906184
v -0.00590660302 -0.00203669238 1.04773797E-07
v -0.0099604485 -0.0055012758 -0.00323656659
v -0.010658596 -0.00993248386 -0.00774410117
v -0.00872000915 -0.0161496257 -0.0120018399
v -0.00468697998 -0.0198116973 -0.0144256071
v -0.00828873763 -0.012687711 -0.0114083078
v -0.00458449962 -0.0161496257 -0.0141090923
v -1.04773797E-07 -0.0198116973 -0.0151675222
v -1.04773797E-07 -0.0161496257 -0.0148355286
v -0.00435765508 -0.012687711 -0.0134114786
v -1.04773797E-07 -0.012687711 -0.0141016198
v -0.00955372958 -0.00746281394 -0.00694133835
v -0.00774377697 -0.00993248386 -0.0106583864
v -0.00407103032 -0.00993248386 -0.0125297205
v -1.04773797E-07 -0.00993248386 -0.0131744927
v -0.00694101415 -0.00746281394 -0.00955352003
v -0.00364936634 -0.00746281394 -0.0112311022
v -1.04773797E-07 -0.00746281394 -0.0118086217
v -0.00847288203 -0.0055012758 -0.00615618935
v -0.00323624239 -0.0055012758 -0.00996077271
v -1.04773797E-07 -0.0055012758 -0.0104731745
v -0.00615586514 -0.0055012758 -0.00847267248
v -0.00823749745 -0.00376391345 -0.00267666088
v -0.00267633667 -0.00376391345 -0.00823728791
v -1.04773797E-07 -0.00376391345 -0.00866162065
v -0.00700719938 -0.00376391345 -0.00509082061
v -0.00509103015 -0.00376391345 -0.00700698983
v -0.0056173095 -0.00203669238 -0.00182532664
v -0.00182500243 -0.00203669238 -0.00561763371
v -1.04773797E-07 -0.00203669238 -0.00590639347
v -0.00477825155 -0.00203669238 -0.00347195117
v -0.00347162697 -0.00203669238 -0.00477857576
v -0.00250553607 -0.000475468146 1.04773797E-07
v -0.00238330689 -0.000475468146 -0.000774369196
v -0.00202729439 -0.000475468146 -0.0014730504
v -0.0014727262 -0.000475468146 -0.00202708485
v -0.000774578744 -0.000475468146 -0.00238309735
v -1.04773797E-07 -0.000475468146 -0.00250586028
vt 1.06162957 0.000217861412
vt 0.7680142 0.000217861412
vt 1.17232413 0.000217861412
vt 1.17232413 0.000217861412
vt 0.7680142 0.000217861412
vt 1.06162957 0.000217861412
vt -0.314594339 0.999609209
vt -0.265920133 0.874783424
vt -0.338931441 0.999609209
vt -0.24158303 0.874783424
vt -0.243153166 0.999609209
vt -0.193693893 0.749957639
vt -0.170926926 0.874783424
vt -0.132458602 0.999609209
vt -0.168571722 0.749957639
vt -0.117542313 0.625131854
vt -0.0602323615 0.874783424
vt 0.00649840405 0.999609209
vt -0.0932052104 0.625131854
vt -0.0429608693 0.500306069
vt -0.0979156174 0.749957639
vt 0.0795097123 0.874783424
vt 0.161156767 0.999609209
vt -0.0186237665 0.500306069
vt 0.0331907103 0.374695216
vt -0.0217640378 0.625131854
vt 0.0127789467 0.749957639
vt 0.234168075 0.874783424
vt 0.315815129 0.999609209
vt 0.057527813 0.374695216
vt 0.112482561 0.249869431
vt 0.151735953 0.749957639
vt 0.0889305262 0.625131854
vt 0.052817406 0.500306069
vt 0.38804137 0.874783424
vt 0.454772135 0.999609209
vt 0.136819664 0.249869431
vt 0.195699751 0.125043646
vt 0.306394315 0.749957639
vt 0.227887532 0.625131854
vt 0.128968986 0.374695216
vt 0.16351197 0.500306069
vt 0.527783443 0.874783424
vt 0.565466699 0.999609209
vt 0.220036854 0.125043646
vt 0.267925992 0.000217861412
vt 0.461052678 0.749957639
vt 0.382545895 0.625131854
vt 0.302468976 0.500306069
vt 0.23966355 0.374695216
vt 0.208260836 0.249869431
vt 0.292263094 0.000217861412
vt 0.7680142 0.000217861412
vt 0.290692959 0.125043646
vt 0.318955401 0.249869431
vt 0.378620556 0.374695216
vt 0.457127339 0.500306069
vt 0.363704267 0.000217861412
vt 0.401387523 0.125043646
vt 0.457912407 0.249869431
vt 0.474398831 0.000217861412
vt 0.541129597 0.125043646
vt 0.533278918 0.374695216
vt 0.537204257 0.625131854
vt 0.613355837 0.000217861412
vt 0.612570769 0.249869431
vt 0.611785701 0.500306069
vt 0.600794752 0.749957639
vt 0.695002891 0.125043646
vt 0.7680142 0.000217861412
vt 0.687937281 0.374695216
vt 0.676946331 0.625131854
vt 0.638478008 0.874783424
vt 0.636907872 0.999609209
vt 0.922672562 0.000217861412
vt 1.06162957 0.000217861412
vt 0.711489316 0.749957639
vt 0.709134112 0.874783424
vt 0.661244975 0.999609209
vt 0.733471215 0.874783424
vt 0.78214542 0.749957639
vt 0.806482523 0.749957639
vt 0.849661254 0.125043646
vt 0.989403328 0.125043646
vt 0.786855827 0.625131854
vt 0.858297 0.625131854
vt 0.882634103 0.625131854
vt 0.767229132 0.249869431
vt 0.750742707 0.500306069
vt 0.932878444 0.500306069
vt 0.957215547 0.500306069
vt 0.861437271 0.500306069
vt 0.826894287 0.374695216
vt 0.906186138 0.249869431
vt 0.937588851 0.374695216
vt 1.00903002 0.374695216
vt 1.03336713 0.374695216
vt 1.0168807 0.249869431
vt 1.08832187 0.249869431
vt 1.11265898 0.249869431
vt 1.10009789 0.125043646
vt 1.17232413 0.000217861412
vt 1.170754 0.125043646
vt 1.1950911 0.125043646
vt 1.2437653 0.000217861412
vt 0.7680142 0.000217861412
vt 1.26810241 0.000217861412
vt 0.636907872 0.999609209
vt 0.733471215 0.874783424
vt 0.661244975 0.999609209
vt 0.709134112 0.874783424
vt 0.565466699 0.999609209
vt 0.806482523 0.749957639
vt 0.638478008 0.874783424
vt 0.454772135 0.999609209
vt 0.78214542 0.749957639
vt 0.882634103 0.625131854
vt 0.527783443 0.874783424
vt 0.315815129 0.999609209
vt 0.858297 0.625131854
vt 0.957215547 0.500306069
vt 0.711489316 0.749957639
vt 0.38804137 0.874783424
vt 0.161156767 0.999609209
vt 0.932878444 0.500306069
vt 1.03336713 0.374695216
vt 0.786855827 0.625131854
vt 0.600794752 0.749957639
vt 0.234168075 0.874783424
vt 0.00649840405 0.999609209
vt 1.00903002 0.374695216
vt 1.11265898 0.249869431
vt 0.461052678 0.749957639
vt 0.676946331 0.625131854
vt 0.861437271 0.500306069
vt 0.0795097123 0.874783424
vt -0.132458602 0.999609209
vt 1.08832187 0.249869431
vt 1.1950911 0.125043646
vt 0.306394315 0.749957639
vt 0.537204257 0.625131854
vt 0.937588851 0.374695216
vt 0.750742707 0.500306069
vt -0.0602323615 0.874783424
vt -0.243153166 0.999609209
vt 1.170754 0.125043646
vt 1.26810241 0.000217861412
vt 0.151735953 0.749957639
vt 0.382545895 0.625131854
vt 0.611785701 0.500306069
vt 0.826894287 0.374695216
vt 1.0168807 0.249869431
vt 1.2437653 0.000217861412
vt 0.7680142 0.000217861412
vt 1.17232413 0.000217861412
vt 1.10009789 0.125043646
vt 0.906186138 0.249869431
vt 0.989403328 0.125043646
vt 1.06162957 0.000217861412
vt 0.687937281 0.374695216
vt 0.767229132 0.249869431
vt 0.849661254 0.125043646
vt 0.457127339 0.500306069
vt 0.533278918 0.374695216
vt 0.227887532 0.625131854
vt 0.922672562 0.000217861412
vt 0.7680142 0.000217861412
vt 0.612570769 0.249869431
vt 0.302468976 0.500306069
vt 0.0127789467 0.749957639
vt 0.695002891 0.125043646
vt 0.378620556 0.374695216
vt 0.0889305262 0.625131854
vt -0.170926926 0.874783424
vt -0.314594339 0.999609209
vt -0.0979156174 0.749957639
vt -0.24158303 0.874783424
vt -0.338931441 0.999609209
vt -0.265920133 0.874783424
vt -0.168571722 0.749957639
vt -0.193693893 0.749957639
vt 0.16351197 0.500306069
vt -0.0217640378 0.625131854
vt -0.0932052104 0.625131854
vt -0.117542313 0.625131854
vt 0.052817406 0.500306069
vt -0.0186237665 0.500306069
vt -0.0429608693 0.500306069
vt 0.23966355 0.374695216
vt 0.057527813 0.374695216
vt 0.0331907103 0.374695216
vt 0.128968986 0.374695216
vt 0.457912407 0.249869431
vt 0.136819664 0.249869431
vt 0.112482561 0.249869431
vt 0.318955401 0.249869431
vt 0.208260836 0.249869431
vt 0.541129597 0.125043646
vt 0.220036854 0.125043646
vt 0.195699751 0.125043646
vt 0.401387523 0.125043646
vt 0.290692959 0.125043646
vt 0.7680142 0.000217861412
vt 0.613355837 0.000217861412
vt 0.474398831 0.000217861412
vt 0.363704267 0.000217861412
vt 0.292263094 0.000217861412
vt 0.267925992 0.000217861412
vn -0.357287275 0.913777743 0.193277106
vn 0.00325584528 0.999994576 -0.000497481065
vn -0.184853609 0.913777743 0.361717265
vn 0.285420026 0.913777743 0.289042636
vn 0.00325584528 0.999994576 -0.000497481065
vn 0.285420026 0.913777743 0.289042636
vn 0.308933708 0.0516094121 -0.94968228
vn 0.00325584528 0.0672852 -0.997728471
vn 0.00325584528 0.0516094121 -0.998662039
vn 0.308933708 0.0672852 -0.948700514
vn 0.583259995 0.0516094121 -0.81064434
vn 0.00325584528 0.114312563 -0.993439499
vn 0.583259995 0.0672852 -0.809493965
vn 0.810558919 0.0516094121 -0.5833787
vn 0.308933708 0.114312563 -0.944188859
vn 0.00325584528 0.20836729 -0.97804523
vn 0.810558919 0.0672852 -0.581779117
vn 0.951641009 0.0516094121 -0.302846262
vn 0.301095814 0.20836729 -0.930550581
vn 0.00325584528 0.310259911 -0.950646194
vn 0.583259995 0.114312563 -0.804201726
vn 0.951641009 0.0672852 -0.299753385
vn 0.998667349 0.0516093592 -0
vn 0.29325792 0.310259911 -0.904288991
vn 0.00325584528 0.451342002 -0.892345111
vn 0.575422101 0.20836729 -0.79086818
vn 0.802721025 0.114312563 -0.585296159
vn 0.997738008 0.0672225167 -0
vn 0.951641009 0.0516094121 0.302846262
vn 0.277582132 0.451342002 -0.848079334
vn 0.00325584528 0.662965138 -0.74864319
vn 0.943803115 0.114312563 -0.31011017
vn 0.794883131 0.20836729 -0.569863037
vn 0.559746313 0.310259911 -0.768389779
vn 0.951641009 0.0672852 0.299753385
vn 0.810558919 0.0516094121 0.5833787
vn 0.230554769 0.662965138 -0.712265207
vn 0.00325584528 0.819723016 -0.572750885
vn 0.990830479 0.114312563 0.0720249976
vn 0.928127327 0.20836729 -0.308484581
vn 0.528394738 0.451342002 -0.719089284
vn 0.771369449 0.310259911 -0.555632937
vn 0.810558919 0.0672852 0.581779117
vn 0.583259995 0.0516094121 0.81064434
vn 0.175689511 0.819723016 -0.545148945
vn -0.059447306 0.913777743 -0.401841081
vn 0.943803115 0.114312563 0.31011017
vn 0.975154691 0.20836729 0.0752090495
vn 0.904613646 0.310259911 -0.292254922
vn 0.724342086 0.451342002 -0.52117074
vn 0.442177905 0.662965138 -0.604115823
vn 0.183527405 0.913777743 -0.362391954
vn 0.00325584528 0.999994576 -0.000497481065
vn 0.33244739 0.819723016 -0.466404235
vn 0.606773677 0.662965138 -0.438523581
vn 0.849748388 0.451342002 -0.272429943
vn 0.950746861 0.309968396 -0
vn 0.183527405 0.913777743 -0.362391954
vn 0.457853692 0.819723016 -0.344128135
vn 0.708666298 0.662965138 -0.241390358
vn 0.379474753 0.921615637 -0.08138507
vn 0.544070525 0.819723016 -0.17900123
vn 0.893247092 0.449566048 -0
vn 0.928127327 0.20836729 0.308484581
vn 0.379474753 0.921615637 -0.08138507
vn 0.747855767 0.662965138 0.0344815551
vn 0.904613646 0.310259911 0.292254922
vn 0.802721025 0.114312563 0.585296159
vn 0.567584207 0.819723016 0.0768267198
vn 0.379474753 0.921615637 -0.08138507
vn 0.849748388 0.451342002 0.272429943
vn 0.794883131 0.20836729 0.569863037
vn 0.583259995 0.0672852 0.809493965
vn 0.308933708 0.0516094121 0.94968228
vn 0.387312647 0.913777743 0.122471017
vn 0.285420026 0.913777743 0.289042636
vn 0.583259995 0.114312563 0.804201726
vn 0.308933708 0.0672852 0.948700514
vn 0.00325584528 0.0516094121 0.998662039
vn 0.00325584528 0.0672852 0.997728471
vn 0.308933708 0.114312563 0.944188859
vn 0.00325584528 0.114312563 0.993439499
vn 0.544070525 0.819723016 0.17900123
vn 0.457853692 0.819723016 0.344128135
vn 0.575422101 0.20836729 0.79086818
vn 0.301095814 0.20836729 0.930550581
vn 0.00325584528 0.20836729 0.97804523
vn 0.708666298 0.662965138 0.241390358
vn 0.771369449 0.310259911 0.555632937
vn 0.29325792 0.310259911 0.904288991
vn 0.00325584528 0.310259911 0.950646194
vn 0.559746313 0.310259911 0.768389779
vn 0.724342086 0.451342002 0.52117074
vn 0.606773677 0.662965138 0.438523581
vn 0.528394738 0.451342002 0.719089284
vn 0.277582132 0.451342002 0.848079334
vn 0.00325584528 0.451342002 0.892345111
vn 0.442177905 0.662965138 0.604115823
vn 0.230554769 0.662965138 0.712265207
vn 0.00325584528 0.662965138 0.74864319
vn 0.33244739 0.819723016 0.466404235
vn 0.285420026 0.913777743 0.289042636
vn 0.175689511 0.819723016 0.545148945
vn 0.00325584528 0.819723016 0.572750885
vn 0.0659589966 0.913777743 0.400823711
vn 0.00325584528 0.999994576 -0.000497481065
vn 0.0659589966 0.913777743 0.400823711
vn -0.310259911 0.0516094121 0.949249839
vn 0.00325584528 0.0672852 0.997728471
vn 0.00325584528 0.0516094121 0.998662039
vn -0.310259911 0.0672852 0.948267625
vn -0.584586198 0.0516094121 0.809688487
vn 0.00325584528 0.114312563 0.993439499
vn -0.584586198 0.0672852 0.808536751
vn -0.811885122 0.0516094121 0.581531613
vn -0.310259911 0.114312563 0.943753901
vn 0.00325584528 0.20836729 0.97804523
vn -0.804047228 0.0672852 0.590745933
vn -0.952967212 0.0516094121 0.298646883
vn -0.302422017 0.20836729 0.93012042
vn 0.00325584528 0.310259911 0.950646194
vn -0.584586198 0.114312563 0.803238205
vn -0.945129319 0.0672852 0.319692466
vn -0.998670874 0.0515410963 -0
vn -0.294584124 0.310259911 0.903857833
vn 0.00325584528 0.451342002 0.892345111
vn -0.576748305 0.20836729 0.789901554
vn -0.804047228 0.114312563 0.583472958
vn -0.997743984 0.0671337676 -0
vn -0.952967212 0.0516094121 -0.298646883
vn -0.278908336 0.451342002 0.84764411
vn 0.00325584528 0.662965138 0.74864319
vn -0.945129319 0.114312563 0.306044456
vn -0.78837144 0.20836729 0.578838099
vn -0.561072517 0.310259911 0.76742193
vn -0.945129319 0.0672852 -0.319692466
vn -0.811885122 0.0516094121 -0.581531613
vn -0.231880972 0.662965138 0.71183456
vn 0.00325584528 0.819723016 0.572750885
vn -0.992156682 0.114312563 -0.050574263
vn -0.929453531 0.20836729 0.304465444
vn -0.521883047 0.451342002 0.723829042
vn -0.772695652 0.310259911 0.553787158
vn -0.804047228 0.0672852 -0.590745933
vn -0.584586198 0.0516094121 -0.809688487
vn -0.177015715 0.819723016 0.544719757
vn 0.0659589966 0.913777743 0.400823711
vn -0.945129319 0.114312563 -0.306044456
vn -0.976480894 0.20836729 -0.0553907526
vn -0.905939849 0.310259911 0.288117645
vn -0.725668289 0.451342002 0.51932257
vn -0.435666214 0.662965138 0.608828528
vn -0.184853609 0.913777743 0.361717265
vn 0.00325584528 0.999994576 -0.000497481065
vn -0.184853609 0.913777743 0.361717265
vn -0.333773593 0.819723016 0.465456084
vn -0.600261986 0.662965138 0.447395546
vn -0.459179896 0.819723016 0.34235654
vn -0.357287275 0.913777743 0.193277106
vn -0.851074592 0.451342002 0.268258154
vn -0.709992501 0.662965138 0.237461312
vn -0.545396729 0.819723016 0.174918796
vn -0.950873923 0.309578394 -0
vn -0.890264061 0.451342002 -0.0609942521
vn -0.929453531 0.20836729 -0.304465444
vn -0.357287275 0.913777743 0.193277106
vn 0.00325584528 0.999994576 -0.000497481065
vn -0.748883825 0.662701303 -0
vn -0.905939849 0.310259911 -0.288117645
vn -0.804047228 0.114312563 -0.583472958
vn -0.568910411 0.819723016 -0.0662957157
vn -0.851074592 0.451342002 -0.268258154
vn -0.78837144 0.20836729 -0.578838099
vn -0.584586198 0.0672852 -0.808536751
vn -0.310259911 0.0516094121 -0.949249839
vn -0.584586198 0.114312563 -0.803238205
vn -0.310259911 0.0672852 -0.948267625
vn 0.00325584528 0.0516094121 -0.998662039
vn 0.00325584528 0.0672852 -0.997728471
vn -0.310259911 0.114312563 -0.943753901
vn 0.00325584528 0.114312563 -0.993439499
vn -0.772695652 0.310259911 -0.553787158
vn -0.576748305 0.20836729 -0.789901554
vn -0.302422017 0.20836729 -0.93012042
vn 0.00325584528 0.20836729 -0.97804523
vn -0.561072517 0.310259911 -0.76742193
vn -0.294584124 0.310259911 -0.903857833
vn 0.00325584528 0.310259911 -0.950646194
vn -0.725668289 0.451342002 -0.51932257
vn -0.278908336 0.451342002 -0.84764411
vn 0.00325584528 0.451342002 -0.892345111
vn -0.521883047 0.451342002 -0.723829042
vn -0.709992501 0.662965138 -0.237461312
vn -0.231880972 0.662965138 -0.71183456
vn 0.00325584528 0.662965138 -0.74864319
vn -0.600261986 0.662965138 -0.447395546
vn -0.435666214 0.662965138 -0.608828528
vn -0.545396729 0.819723016 -0.174918796
vn -0.177015715 0.819723016 -0.544719757
vn 0.00325584528 0.819723016 -0.572750885
vn -0.459179896 0.819723016 -0.34235654
vn -0.333773593 0.819723016 -0.465456084
vn -0.396476744 0.913777743 -0.0884105633
vn -0.396476744 0.913777743 -0.0884105633
vn -0.28674623 0.913777743 -0.287727017
vn -0.28674623 0.913777743 -0.287727017
vn -0.059447306 0.913777743 -0.401841081
vn -0.059447306 0.913777743 -0.401841081
g pCylinder1_0
f 3/3/3 2/2/2 1/1/1
f 6/6/6 5/5/5 4/4/4
f 9/9/9 8/8/8 7/7/7
f 8/8/8 10/10/10 7/7/7
f 7/7/7 10/10/10 11/11/11
f 8/8/8 12/12/12 10/10/10
f 10/10/10 13/13/13 11/11/11
f 11/11/11 13/13/13 14/14/14
f 12/12/12 15/15/15 10/10/10
f 10/10/10 15/15/15 13/13/13
f 12/12/12 16/16/16 15/15/15
f 13/13/13 17/17/17 14/14/14
f 14/14/14 17/17/17 18/18/18
f 16/16/16 19/19/19 15/15/15
f 16/16/16 20/20/20 19/19/19
f 15/15/15 21/21/21 13/13/13
f 13/13/13 21/21/21 17/17/17
f 15/15/15 19/19/19 21/21/21
f 17/17/17 22/22/22 18/18/18
f 18/18/18 22/22/22 23/23/23
f 20/20/20 24/24/24 19/19/19
f 20/20/20 25/25/25 24/24/24
f 19/19/19 26/26/26 21/21/21
f 19/19/19 24/24/24 26/26/26
f 21/21/21 27/27/27 17/17/17
f 17/17/17 27/27/27 22/22/22
f 21/21/21 26/26/26 27/27/27
f 22/22/22 28/28/28 23/23/23
f 23/23/23 28/28/28 29/29/29
f 25/25/25 30/30/30 24/24/24
f 25/25/25 31/31/31 30/30/30
f 27/27/27 32/32/32 22/22/22
f 22/22/22 32/32/32 28/28/28
f 26/26/26 33/33/33 27/27/27
f 27/27/27 33/33/33 32/32/32
f 24/24/24 34/34/34 26/26/26
f 24/24/24 30/30/30 34/34/34
f 26/26/26 34/34/34 33/33/33
f 28/28/28 35/35/35 29/29/29
f 29/29/29 35/35/35 36/36/36
f 31/31/31 37/37/37 30/30/30
f 31/31/31 38/38/38 37/37/37
f 32/32/32 39/39/39 28/28/28
f 28/28/28 39/39/39 35/35/35
f 33/33/33 40/40/40 32/32/32
f 32/32/32 40/40/40 39/39/39
f 30/30/30 41/41/41 34/34/34
f 30/30/30 37/37/37 41/41/41
f 34/34/34 42/42/42 33/33/33
f 33/33/33 42/42/42 40/40/40
f 34/34/34 41/41/41 42/42/42
f 35/35/35 43/43/43 36/36/36
f 36/36/36 43/43/43 44/44/44
f 38/38/38 45/45/45 37/37/37
f 38/38/38 46/46/46 45/45/45
f 39/39/39 47/47/47 35/35/35
f 35/35/35 47/47/47 43/43/43
f 40/40/40 48/48/48 39/39/39
f 39/39/39 48/48/48 47/47/47
f 42/42/42 49/49/49 40/40/40
f 40/40/40 49/49/49 48/48/48
f 41/41/41 50/50/50 42/42/42
f 42/42/42 50/50/50 49/49/49
f 37/37/37 51/51/51 41/41/41
f 37/37/37 45/45/45 51/51/51
f 41/41/41 51/51/51 50/50/50
f 46/46/46 52/52/52 45/45/45
f 46/46/46 53/53/53 52/52/52
f 45/45/45 54/54/54 51/51/51
f 45/45/45 52/52/52 54/54/54
f 51/51/51 55/55/55 50/50/50
f 51/51/51 54/54/54 55/55/55
f 50/50/50 56/56/56 49/49/49
f 50/50/50 55/55/55 56/56/56
f 49/49/49 57/57/57 48/48/48
f 49/49/49 56/56/56 57/57/57
f 52/52/52 58/58/58 54/54/54
f 52/52/52 53/53/53 58/58/58
f 54/54/54 59/59/59 55/55/55
f 54/54/54 58/58/58 59/59/59
f 55/55/55 60/60/60 56/56/56
f 55/55/55 59/59/59 60/60/60
f 58/58/58 61/61/61 59/59/59
f 58/58/58 53/53/53 61/61/61
f 59/59/59 61/61/61 62/62/62
f 59/59/59 62/62/62 60/60/60
f 56/56/56 60/60/60 63/63/63
f 56/56/56 63/63/63 57/57/57
f 48/48/48 57/57/57 64/64/64
f 48/48/48 64/64/64 47/47/47
f 61/61/61 53/53/53 65/65/65
f 61/61/61 65/65/65 62/62/62
f 60/60/60 62/62/62 66/66/66
f 60/60/60 66/66/66 63/63/63
f 57/57/57 63/63/63 67/67/67
f 57/57/57 67/67/67 64/64/64
f 47/47/47 64/64/64 68/68/68
f 47/47/47 68/68/68 43/43/43
f 62/62/62 65/65/65 69/69/69
f 62/62/62 69/69/69 66/66/66
f 65/65/65 53/53/53 70/70/70
f 65/65/65 70/70/70 69/69/69
f 63/63/63 66/66/66 71/71/71
f 63/63/63 71/71/71 67/67/67
f 64/64/64 67/67/67 72/72/72
f 64/64/64 72/72/72 68/68/68
f 43/43/43 68/68/68 73/73/73
f 43/43/43 73/73/73 44/44/44
f 44/44/44 73/73/73 74/74/74
f 70/70/70 53/53/53 75/75/75
f 75/75/75 53/53/53 76/76/76
f 68/68/68 77/77/77 73/73/73
f 68/68/68 72/72/72 77/77/77
f 73/73/73 78/78/78 74/74/74
f 73/73/73 77/77/77 78/78/78
f 74/74/74 78/78/78 79/79/79
f 78/78/78 80/80/80 79/79/79
f 78/78/78 81/81/81 80/80/80
f 77/77/77 81/81/81 78/78/78
f 81/81/81 82/82/82 80/80/80
f 70/70/70 75/75/75 83/83/83
f 69/69/69 70/70/70 83/83/83
f 75/75/75 76/76/76 84/84/84
f 83/83/83 75/75/75 84/84/84
f 72/72/72 85/85/85 77/77/77
f 77/77/77 85/85/85 81/81/81
f 81/81/81 86/86/86 82/82/82
f 85/85/85 86/86/86 81/81/81
f 86/86/86 87/87/87 82/82/82
f 69/69/69 83/83/83 88/88/88
f 66/66/66 69/69/69 88/88/88
f 66/66/66 88/88/88 71/71/71
f 72/72/72 89/89/89 85/85/85
f 67/67/67 89/89/89 72/72/72
f 67/67/67 71/71/71 89/89/89
f 86/86/86 90/90/90 87/87/87
f 90/90/90 91/91/91 87/87/87
f 85/85/85 92/92/92 86/86/86
f 89/89/89 92/92/92 85/85/85
f 92/92/92 90/90/90 86/86/86
f 71/71/71 93/93/93 89/89/89
f 71/71/71 88/88/88 93/93/93
f 89/89/89 93/93/93 92/92/92
f 88/88/88 83/83/83 94/94/94
f 88/88/88 94/94/94 93/93/93
f 83/83/83 84/84/84 94/94/94
f 93/93/93 95/95/95 92/92/92
f 92/92/92 95/95/95 90/90/90
f 93/93/93 94/94/94 95/95/95
f 90/90/90 96/96/96 91/91/91
f 95/95/95 96/96/96 90/90/90
f 96/96/96 97/97/97 91/91/91
f 94/94/94 98/98/98 95/95/95
f 94/94/94 84/84/84 98/98/98
f 95/95/95 98/98/98 96/96/96
f 96/96/96 99/99/99 97/97/97
f 98/98/98 99/99/99 96/96/96
f 99/99/99 100/100/100 97/97/97
f 84/84/84 101/101/101 98/98/98
f 98/98/98 101/101/101 99/99/99
f 84/84/84 76/76/76 101/101/101
f 76/76/76 102/102/102 101/101/101
f 99/99/99 103/103/103 100/100/100
f 101/101/101 103/103/103 99/99/99
f 101/101/101 102/102/102 103/103/103
f 103/103/103 104/104/104 100/100/100
f 102/102/102 105/105/105 103/103/103
f 103/103/103 105/105/105 104/104/104
f 102/102/102 106/106/106 105/105/105
f 105/105/105 107/107/107 104/104/104
f 105/105/105 106/106/106 107/107/107
f 110/110/110 109/109/109 108/108/108
f 109/109/109 111/111/111 108/108/108
f 108/108/108 111/111/111 112/112/112
f 109/109/109 113/113/113 111/111/111
f 111/111/111 114/114/114 112/112/112
f 112/112/112 114/114/114 115/115/115
f 113/113/113 116/116/116 111/111/111
f 111/111/111 116/116/116 114/114/114
f 113/113/113 117/117/117 116/116/116
f 114/114/114 118/118/118 115/115/115
f 115/115/115 118/118/118 119/119/119
f 117/117/117 120/120/120 116/116/116
f 117/117/117 121/121/121 120/120/120
f 116/116/116 122/122/122 114/114/114
f 114/114/114 122/122/122 118/118/118
f 116/116/116 120/120/120 122/122/122
f 118/118/118 123/123/123 119/119/119
f 119/119/119 123/123/123 124/124/124
f 121/121/121 125/125/125 120/120/120
f 121/121/121 126/126/126 125/125/125
f 120/120/120 127/127/127 122/122/122
f 120/120/120 125/125/125 127/127/127
f 122/122/122 128/128/128 118/118/118
f 118/118/118 128/128/128 123/123/123
f 122/122/122 127/127/127 128/128/128
f 123/123/123 129/129/129 124/124/124
f 124/124/124 129/129/129 130/130/130
f 126/126/126 131/131/131 125/125/125
f 126/126/126 132/132/132 131/131/131
f 128/128/128 133/133/133 123/123/123
f 123/123/123 133/133/133 129/129/129
f 127/127/127 134/134/134 128/128/128
f 128/128/128 134/134/134 133/133/133
f 125/125/125 135/135/135 127/127/127
f 125/125/125 131/131/131 135/135/135
f 127/127/127 135/135/135 134/134/134
f 129/129/129 136/136/136 130/130/130
f 130/130/130 136/136/136 137/137/137
f 132/132/132 138/138/138 131/131/131
f 132/132/132 139/139/139 138/138/138
f 133/133/133 140/140/140 129/129/129
f 129/129/129 140/140/140 136/136/136
f 134/134/134 141/141/141 133/133/133
f 133/133/133 141/141/141 140/140/140
f 131/131/131 142/142/142 135/135/135
f 131/131/131 138/138/138 142/142/142
f 135/135/135 143/143/143 134/134/134
f 134/134/134 143/143/143 141/141/141
f 135/135/135 142/142/142 143/143/143
f 136/136/136 144/144/144 137/137/137
f 137/137/137 144/144/144 145/145/145
f 139/139/139 146/146/146 138/138/138
f 139/139/139 147/147/147 146/146/146
f 140/140/140 148/148/148 136/136/136
f 136/136/136 148/148/148 144/144/144
f 141/141/141 149/149/149 140/140/140
f 140/140/140 149/149/149 148/148/148
f 143/143/143 150/150/150 141/141/141
f 141/141/141 150/150/150 149/149/149
f 142/142/142 151/151/151 143/143/143
f 143/143/143 151/151/151 150/150/150
f 138/138/138 152/152/152 142/142/142
f 138/138/138 146/146/146 152/152/152
f 142/142/142 152/152/152 151/151/151
f 147/147/147 153/153/153 146/146/146
f 147/147/147 154/154/154 153/153/153
f 153/153/153 154/154/154 155/155/155
f 146/146/146 153/153/153 156/156/156
f 146/146/146 156/156/156 152/152/152
f 153/153/153 155/155/155 156/156/156
f 152/152/152 157/157/157 151/151/151
f 152/152/152 156/156/156 157/157/157
f 156/156/156 155/155/155 158/158/158
f 156/156/156 158/158/158 157/157/157
f 155/155/155 159/159/159 158/158/158
f 151/151/151 160/160/160 150/150/150
f 151/151/151 157/157/157 160/160/160
f 157/157/157 158/158/158 161/161/161
f 157/157/157 161/161/161 160/160/160
f 158/158/158 159/159/159 162/162/162
f 158/158/158 162/162/162 161/161/161
f 150/150/150 160/160/160 163/163/163
f 150/150/150 163/163/163 149/149/149
f 160/160/160 161/161/161 164/164/164
f 160/160/160 164/164/164 163/163/163
f 149/149/149 163/163/163 165/165/165
f 149/149/149 165/165/165 148/148/148
f 159/159/159 166/166/166 162/162/162
f 159/159/159 167/167/167 166/166/166
f 161/161/161 162/162/162 168/168/168
f 161/161/161 168/168/168 164/164/164
f 163/163/163 164/164/164 169/169/169
f 163/163/163 169/169/169 165/165/165
f 148/148/148 165/165/165 170/170/170
f 148/148/148 170/170/170 144/144/144
f 162/162/162 166/166/166 171/171/171
f 162/162/162 171/171/171 168/168/168
f 164/164/164 168/168/168 172/172/172
f 164/164/164 172/172/172 169/169/169
f 165/165/165 169/169/169 173/173/173
f 165/165/165 173/173/173 170/170/170
f 144/144/144 170/170/170 174/174/174
f 144/144/144 174/174/174 145/145/145
f 145/145/145 174/174/174 175/175/175
f 170/170/170 176/176/176 174/174/174
f 170/170/170 173/173/173 176/176/176
f 174/174/174 177/177/177 175/175/175
f 174/174/174 176/176/176 177/177/177
f 175/175/175 177/177/177 178/178/178
f 177/177/177 179/179/179 178/178/178
f 177/177/177 180/180/180 179/179/179
f 176/176/176 180/180/180 177/177/177
f 180/180/180 181/181/181 179/179/179
f 169/169/169 182/182/182 173/173/173
f 169/169/169 172/172/172 182/182/182
f 173/173/173 183/183/183 176/176/176
f 176/176/176 183/183/183 180/180/180
f 173/173/173 182/182/182 183/183/183
f 180/180/180 184/184/184 181/181/181
f 183/183/183 184/184/184 180/180/180
f 184/184/184 185/185/185 181/181/181
f 182/182/182 186/186/186 183/183/183
f 183/183/183 186/186/186 184/184/184
f 184/184/184 187/187/187 185/185/185
f 186/186/186 187/187/187 184/184/184
f 187/187/187 188/188/188 185/185/185
f 172/172/172 189/189/189 182/182/182
f 182/182/182 189/189/189 186/186/186
f 187/187/187 190/190/190 188/188/188
f 190/190/190 191/191/191 188/188/188
f 186/186/186 192/192/192 187/187/187
f 189/189/189 192/192/192 186/186/186
f 192/192/192 190/190/190 187/187/187
f 172/172/172 193/193/193 189/189/189
f 168/168/168 193/193/193 172/172/172
f 168/168/168 171/171/171 193/193/193
f 190/190/190 194/194/194 191/191/191
f 194/194/194 195/195/195 191/191/191
f 189/189/189 196/196/196 192/192/192
f 193/193/193 196/196/196 189/189/189
f 192/192/192 197/197/197 190/190/190
f 197/197/197 194/194/194 190/190/190
f 196/196/196 197/197/197 192/192/192
f 171/171/171 198/198/198 193/193/193
f 193/193/193 198/198/198 196/196/196
f 194/194/194 199/199/199 195/195/195
f 199/199/199 200/200/200 195/195/195
f 196/196/196 201/201/201 197/197/197
f 198/198/198 201/201/201 196/196/196
f 197/197/197 202/202/202 194/194/194
f 202/202/202 199/199/199 194/194/194
f 201/201/201 202/202/202 197/197/197
f 171/171/171 203/203/203 198/198/198
f 166/166/166 203/203/203 171/171/171
f 166/166/166 167/167/167 203/203/203
f 203/203/203 204/204/204 198/198/198
f 198/198/198 204/204/204 201/201/201
f 203/203/203 167/167/167 204/204/204
f 204/204/204 205/205/205 201/201/201
f 201/201/201 205/205/205 202/202/202
f 204/204/204 167/167/167 205/205/205
f 205/205/205 206/206/206 202/202/202
f 202/202/202 206/206/206 199/199/199
f 205/205/205 167/167/167 206/206/206
f 199/199/199 207/207/207 200/200/200
f 206/206/206 207/207/207 199/199/199
f 206/206/206 167/167/167 207/207/207
f 207/207/207 208/208/208 200/200/200
f 207/207/207 167/167/167 208/208/208
