g Penquan_Trail01
v -0.210120469 -2.41331645 -1.38852514
v -0.527326363 -2.4724321 -0.78475256
v -0.142714217 -1.20036437 0.301317164
v -0.463885184 -1.23028266 0.901485133
v -0.86579947 -2.53479189 -0.202247192
v -0.120005159 -2.84349126E-05 0.864357625
v -0.806683826 -1.26200325 1.48002543
v -1.22553979 -2.60003538 0.357909579
v -0.442978432 -2.84349126E-05 1.46344421
v -0.142714217 1.2003075 0.301317164
v -1.17074968 -1.29516568 2.03657759
v -1.60690778 -2.66780209 0.896438675
v -0.787218919 -2.84349126E-05 2.04054266
v -0.463885184 1.23022579 0.901485133
v -0.210120469 2.41325958 -1.38852514
v -0.527326363 2.47237523 -0.78475256
v -0.806683826 1.26194638 1.48002543
v -0.86579947 2.53473502 -0.202247192
v -1.55608275 -1.3294095 2.57186253
v -2.00954299 -2.73845249 1.4133401
v -1.15236616 -2.84349126E-05 2.5963739
v -1.17074968 1.29510881 2.03657759
v -1.22553979 2.59997851 0.357909579
v -1.96268303 -1.36509516 3.08515934
v -2.43380587 -2.81162613 1.90825338
v -1.53914107 -2.84349126E-05 3.130217
v -1.55608275 1.32935263 2.57186253
v -1.60690778 2.66810568 0.896438675
v -2.39055053 -1.40222267 3.57718894
v -2.87933597 -2.88696253 2.38117853
v -1.94682274 -2.84349126E-05 3.64279288
v -1.96268303 1.36503829 3.08515934
v -2.00954299 2.73875609 1.4133401
v -2.83968523 -1.4400711 4.0472304
v -3.34649374 -2.96410123 2.83247601
v -2.37613208 -2.84349126E-05 4.13338063
v -2.39055053 1.4021658 3.57718894
v -2.43380587 2.81156926 1.90825338
v -3.31008716 -1.47900091 4.49564418
v -3.83491872 -3.04304224 3.26214581
v -2.82634817 -2.84349126E-05 4.60234071
v -2.83968523 1.44001423 4.0472304
v -2.87933597 2.88690566 2.38117853
v -3.80175629 -1.51865165 4.92206983
v -4.34461092 -3.1234251 3.66982748
v -3.29783147 -2.84349126E-05 5.04967311
v -3.31008716 1.47894404 4.49564418
v -3.34649374 2.96404436 2.83247601
v -4.31469264 -1.55938377 5.32722827
v -4.87593079 -3.20488934 4.055521
v -3.79058199 -2.84349126E-05 5.47537784
v -3.80175629 1.51895524 4.92206983
v -3.83491872 3.04298537 3.26214581
v -4.8488962 -1.60047635 5.71039857
v -5.42887834 -3.28779543 4.41958686
v -4.30459972 -2.84349126E-05 5.87981535
v -4.31469264 1.5593269 5.32722827
v -4.34461092 3.12336823 3.66982748
v -5.40436697 -1.64192939 6.07230166
v -6.0030931 -3.37106198 4.76166458
v -4.83988467 -2.84349126E-05 6.26226473
v -4.8488962 1.60041948 5.71039857
v -4.87593079 3.20519293 4.055521
v -5.98110496 -1.68410336 6.41221661
v -6.59857507 -3.45468898 5.08211462
v -5.39643683 -2.84349126E-05 6.62308644
v -5.40436697 1.64187252 6.07230166
v -5.42887834 3.28773856 4.41958686
v -6.57947063 -1.72591686 6.73050389
v -7.21568472 -3.53867645 5.38093699
v -5.97389574 -2.84349126E-05 6.96228046
v -5.98110496 1.68404649 6.41221661
v -6.0030931 3.37100511 4.76166458
v -7.19874304 -1.76809083 7.02680303
v -7.85406158 -3.62230346 5.65741077
v -6.57298232 -2.84349126E-05 7.27984682
v -6.57947063 1.72622046 6.73050389
v -6.59857507 3.45499257 5.08211462
v -7.83928267 -1.81026479 7.30183496
v -8.51406611 -3.70557001 5.91261733
v -7.19297566 -2.84349126E-05 7.5757855
v -7.19874304 1.76839442 7.02680303
v -7.21568472 3.53861958 5.38093699
v -8.50144997 -1.8520783 7.55487875
v -9.19533786 -3.78811563 6.14583575
v -7.83459667 -2.84349126E-05 7.84973604
v -7.83928267 1.81020793 7.30183496
v -7.85406158 3.62260705 5.65741077
v -9.18452403 -1.89353134 7.78665533
v -9.89823729 -3.86921941 6.35706604
v -8.49712444 -2.84349126E-05 8.10241937
v -8.50144997 1.85202143 7.55487875
v -8.51406611 3.7058736 5.91261733
v -9.88922575 -1.93426346 7.99644377
v -10.6224039 -3.94924181 6.54666865
v -9.18091941 -2.84349126E-05 8.33347503
v -9.18452403 1.89347447 7.78665533
v -9.19533786 3.78805876 6.14583575
v -10.6148342 -1.97427466 8.18460454
v -11.3681982 -4.02710144 6.71428313
v -9.8859816 -2.84349126E-05 8.54290301
v -9.88922575 1.93420659 7.99644377
v -9.89823729 3.869523 6.35706604
v -11.3620704 -2.01320447 8.35113763
v -12.1352598 -4.1027983 6.86026993
v -10.612311 -2.84349126E-05 8.73070332
v -10.6148342 1.97421779 8.18460454
v -10.6224039 3.94918494 6.54666865
v -12.1302133 -2.0510529 8.49568259
v -12.9235885 -4.17561147 6.9842686
v -11.3599076 -2.84349126E-05 8.89651549
v -11.3620704 2.0131476 8.35113763
v -11.3681982 4.02704457 6.71428313
v -12.9199839 -2.08781995 8.61896034
v -13.7335449 -4.24554095 7.08627913
v -12.1287715 -2.84349126E-05 9.04106045
v -12.1302133 2.05099604 8.49568259
v -12.1352598 4.10274143 6.86026993
v -13.7310217 -2.12278469 8.72024994
v -14.565129 -4.31222628 7.16702245
v -12.9189025 -2.84349126E-05 9.16397773
v -12.9199839 2.08776308 8.61896034
v -12.9235885 4.1755546 6.9842686
v -14.5633267 -2.15594713 8.79991188
v -15.4179803 -4.37494654 7.22541717
v -13.7299403 -2.84349126E-05 9.26490688
v -13.7310217 2.12272782 8.72024994
v -13.7335449 4.24584454 7.08627913
v -15.4165384 -2.18766772 8.85794614
v -16.2920988 -4.43370172 7.26218422
v -14.5626058 -2.84349126E-05 9.34456882
v -14.5633267 2.15625072 8.79991188
v -14.565129 4.31216941 7.16702245
v -16.2913779 -2.21686508 8.89435272
v -17.187845 -4.48741044 7.27732359
v -15.416178 -2.84349126E-05 9.40224262
v -15.4165384 2.18761085 8.85794614
v -15.4179803 4.37525013 7.22541717
v -17.1874845 -2.24389967 8.90913164
v -18.1048584 -4.53607271 7.27047483
v -16.2913779 -2.84349126E-05 9.4386492
v -16.2913779 2.21680821 8.89435272
v -16.2920988 4.43364485 7.26218422
v -18.1048584 -2.26805057 8.90228287
v -19.0434995 -4.57932806 7.24199839
v -19.0434995 -2.28967825 8.87344597
v -17.1874845 -2.84349126E-05 9.45306765
v -17.1874845 2.2438428 8.90913164
v -17.187845 4.48735357 7.27732359
v -18.1048584 -2.84349126E-05 9.44585843
v -19.0434995 -2.84349126E-05 9.41738199
v -18.1048584 2.2679937 8.90228287
v -18.1048584 4.53601584 7.27047483
v -19.0434995 2.28962138 8.87344597
v -19.0434995 4.57927119 7.24199839
vt 1.00000036 0
vt 0.966781 0
vt 1.00000036 0.250122219
vt 0.966781 0.250122219
vt 0.933561643 0
vt 1.00000036 0.499755919
vt 0.933561643 0.250122219
vt 0.899853766 0
vt 0.966781 0.499755919
vt 1.00000036 0.749878138
vt 0.899853766 0.250122219
vt 0.866634409 0.00830483932
vt 0.929164963 0.510503358
vt 0.966781 0.749878138
vt 1.00000036 1.00000036
vt 0.966781 1.00000036
vt 0.929164963 0.760137057
vt 0.933561643 1.00000036
vt 0.866634409 0.258427059
vt 0.833415051 0.00830483932
vt 0.895945606 0.510503358
vt 0.895945606 0.760137057
vt 0.899853766 1.00000036
vt 0.833415051 0.258427059
vt 0.800195694 0
vt 0.866634409 0.499755919
vt 0.866634409 0.749878138
vt 0.866634409 1.00000036
vt 0.800195694 0.250122219
vt 0.766487817 0
vt 0.833415051 0.508060758
vt 0.833415051 0.758182978
vt 0.833415051 1.00000036
vt 0.766487817 0.250122219
vt 0.73326846 0
vt 0.800195694 0.508060758
vt 0.800195694 0.758182978
vt 0.800195694 1.00000036
vt 0.73326846 0.250122219
vt 0.700049102 0.0102589192
vt 0.766487817 0.499755919
vt 0.766487817 0.749878138
vt 0.766487817 1.00000036
vt 0.700049102 0.260381139
vt 0.666829745 0.0102589192
vt 0.73326846 0.499755919
vt 0.73326846 0.749878138
vt 0.73326846 1.00000036
vt 0.666829745 0.260381139
vt 0.633121868 0
vt 0.710796541 0.493893679
vt 0.710796541 0.744015899
vt 0.700049102 1.00000036
vt 0.633121868 0.250122219
vt 0.599902511 0
vt 0.677577184 0.493893679
vt 0.677577184 0.744015899
vt 0.666829745 1.00000036
vt 0.599902511 0.250122219
vt 0.566683153 0
vt 0.633121868 0.499755919
vt 0.625305548 0.736688099
vt 0.625305548 0.986810319
vt 0.566683153 0.250122219
vt 0.533463796 0
vt 0.599902511 0.499755919
vt 0.592086191 0.736688099
vt 0.592086191 0.986810319
vt 0.533463796 0.250122219
vt 0.499755919 0
vt 0.566683153 0.499755919
vt 0.566683153 0.749878138
vt 0.566683153 1.00000036
vt 0.499755919 0.234001061
vt 0.466536562 0
vt 0.533463796 0.508060758
vt 0.533463796 0.757694458
vt 0.533463796 1.00000036
vt 0.466536562 0.234001061
vt 0.438690924 0.0131900389
vt 0.499755919 0.491939599
vt 0.499755919 0.757694458
vt 0.499755919 1.00000036
vt 0.438690924 0.263312258
vt 0.405471567 0.0131900389
vt 0.466536562 0.48412328
vt 0.466536562 0.749878138
vt 0.466536562 1.00000036
vt 0.405471567 0.263312258
vt 0.36687849 0
vt 0.433317204 0.499755919
vt 0.431851644 0.742061819
vt 0.431851644 0.992184038
vt 0.36687849 0.250122219
vt 0.333170613 0.0175867186
vt 0.400097847 0.499755919
vt 0.398632287 0.742061819
vt 0.398632287 0.992184038
vt 0.333170613 0.267220418
vt 0.299951255 0.0175867186
vt 0.36687849 0.499755919
vt 0.36687849 0.749878138
vt 0.36687849 1.00000036
vt 0.299951255 0.267220418
vt 0.266731898 0
vt 0.333170613 0.499755919
vt 0.333170613 0.749878138
vt 0.333170613 1.00000036
vt 0.266731898 0.250122219
vt 0.233512541 0
vt 0.299951255 0.499755919
vt 0.299951255 0.749878138
vt 0.299951255 1.00000036
vt 0.233512541 0.250122219
vt 0.199804664 0
vt 0.264777818 0.518319677
vt 0.264777818 0.768441897
vt 0.266731898 1.00000036
vt 0.199804664 0.250122219
vt 0.166585306 0
vt 0.231069941 0.518319677
vt 0.231069941 0.768441897
vt 0.233512541 1.00000036
vt 0.168539386 0.2374207
vt 0.133365949 0
vt 0.199804664 0.499755919
vt 0.199804664 0.749878138
vt 0.199804664 1.00000036
vt 0.135320029 0.2374207
vt 0.100146592 0
vt 0.168539386 0.48754292
vt 0.166585306 0.749878138
vt 0.166585306 1.00000036
vt 0.100146592 0.250122219
vt 0.0664387145 0
vt 0.135320029 0.479238081
vt 0.133365949 0.741573299
vt 0.133365949 1.00000036
vt 0.0664387145 0.250122219
vt 0.0332193573 0
vt 0.100146592 0.491939599
vt 0.100146592 0.741573299
vt 0.100146592 1.00000036
vt 0.0332193573 0.250122219
vt 0 0
vt 0 0.250122219
vt 0.0664387145 0.499755919
vt 0.0664387145 0.749878138
vt 0.0664387145 1.00000036
vt 0.0332193573 0.499755919
vt 0 0.499755919
vt 0.0332193573 0.749878138
vt 0.0332193573 1.00000036
vt 0 0.749878138
vt 0 1.00000036
vn 0.768796588 -0.532468238 0.354160108
vn 0.762888379 -0.538376447 0.357983411
vn 0.80424584 -0.437936899 0.401746066
vn 0.80424584 -0.396579437 0.442621033
vn 0.739255544 -0.556101073 0.379806315
vn 0.881052554 0.00517875657 0.47299004
vn 0.786521214 -0.408395855 0.463246377
vn 0.715622709 -0.567917491 0.406637261
vn 0.869236136 0.00517875657 0.494370023
vn 0.798337631 0.448294412 0.40210589
vn 0.75698017 -0.420212272 0.500402506
vn 0.691989874 -0.579733908 0.43018439
vn 0.845603301 0.00517875657 0.533786697
vn 0.80424584 0.401028742 0.438593863
vn 0.768796588 0.531009334 0.356343786
vn 0.768796588 0.531009334 0.356343786
vn 0.780613005 0.412845159 0.469257084
vn 0.745163753 0.542825751 0.387390223
vn 0.733347335 -0.43202869 0.524931326
vn 0.668357039 -0.591550326 0.450962394
vn 0.821970466 0.00517875657 0.56950657
vn 0.75698017 0.424661577 0.496632225
vn 0.721530918 0.554642169 0.414445653
vn 0.703806292 -0.437936899 0.559346026
vn 0.638815996 -0.597458534 0.48472407
vn 0.792429423 0.00517875657 0.609941629
vn 0.733347335 0.430569785 0.52612864
vn 0.697898083 0.572366795 0.430504957
vn 0.680173457 -0.443845107 0.583408596
vn 0.615183161 -0.609274952 0.500333601
vn 0.768796588 0.00517875657 0.639472429
vn 0.703806292 0.442386203 0.555833744
vn 0.668357039 0.578275004 0.467864177
vn 0.650632413 -0.449753316 0.611881866
vn 0.585642117 -0.615183161 0.527800142
vn 0.733347335 0.00517875657 0.67983444
vn 0.674265248 0.448294412 0.586854749
vn 0.644724204 0.590091421 0.485924701
vn 0.621091369 -0.455661525 0.637666124
vn 0.562009282 -0.621091369 0.546251845
vn 0.703806292 0.00517875657 0.71037306
vn 0.650632413 0.45420262 0.60858643
vn 0.621091369 0.59599963 0.508949852
vn 0.585642117 -0.461569733 0.66631576
vn 0.532468238 -0.626999578 0.568637938
vn 0.668357039 0.00517875657 0.743822592
vn 0.615183161 0.460110829 0.640193489
vn 0.591550326 0.607816048 0.529743206
vn 0.556101073 -0.461569733 0.691162049
vn 0.502927195 -0.626999578 0.594925009
vn 0.632907787 0.00517875657 0.774209864
vn 0.585642117 0.460110829 0.667324011
vn 0.562009282 0.613724256 0.554516099
vn 0.520651821 -0.461569733 0.718244431
vn 0.473386151 -0.632907787 0.612644502
vn 0.597458534 0.00517875657 0.801883084
vn 0.556101073 0.466019038 0.68816993
vn 0.538376447 0.613724256 0.577488821
vn 0.491110777 -0.461569733 0.738758137
vn 0.449753316 -0.632907787 0.630198134
vn 0.562009282 0.00517875657 0.827114712
vn 0.520651821 0.466019038 0.715365597
vn 0.508835403 0.619632465 0.597613705
vn 0.455661525 -0.461569733 0.76113465
vn 0.420212272 -0.632907787 0.650268698
vn 0.52656003 0.00517875657 0.850122177
vn 0.491110777 0.466019038 0.735959551
vn 0.47929436 0.625540674 0.615610089
vn 0.426120481 -0.461569733 0.778058299
vn 0.390671229 -0.632907787 0.668433785
vn 0.485202568 0.00517875657 0.874386441
vn 0.455661525 0.466019038 0.758418638
vn 0.449753316 0.625540674 0.637511428
vn 0.390671229 -0.461569733 0.796447972
vn 0.361130185 -0.632907787 0.684845036
vn 0.449753316 0.00517875657 0.893137803
vn 0.426120481 0.466019038 0.775401568
vn 0.420212272 0.625540674 0.657358739
vn 0.361130185 -0.461569733 0.810270554
vn 0.331589141 -0.632907787 0.699625882
vn 0.414304064 0.00517875657 0.910123796
vn 0.390671229 0.466019038 0.793852787
vn 0.390671229 0.625540674 0.675333145
vn 0.325680933 -0.455661525 0.828434973
vn 0.302048098 -0.626999578 0.718079714
vn 0.372946602 0.00517875657 0.927838355
vn 0.361130185 0.460110829 0.811099879
vn 0.361130185 0.625540674 0.691580693
vn 0.296139889 -0.455661525 0.839448474
vn 0.272507054 -0.626999578 0.729802326
vn 0.33749735 0.00517875657 0.941312233
vn 0.325680933 0.460110829 0.825972127
vn 0.331589141 0.625540674 0.706220579
vn 0.260690636 -0.449753316 0.854261287
vn 0.24296601 -0.621091369 0.745126183
vn 0.302048098 0.00517875657 0.95327862
vn 0.296139889 0.460110829 0.837018035
vn 0.302048098 0.619632465 0.724446378
vn 0.231149593 -0.449753316 0.86272349
vn 0.219333175 -0.621091369 0.752421736
vn 0.266598845 -0.000729452161 0.963807306
vn 0.260690636 0.45420262 0.851903969
vn 0.272507054 0.619632465 0.736067601
vn 0.201608549 -0.443845107 0.873129723
vn 0.189792132 -0.615183161 0.765198422
vn 0.237057802 -0.000729452161 0.971495274
vn 0.231149593 0.448294412 0.863482476
vn 0.24296601 0.613724256 0.751205734
vn 0.172067505 -0.443845107 0.879428391
vn 0.160251088 -0.609274952 0.776597464
vn 0.201608549 -0.000729452161 0.979465906
vn 0.201608549 0.448294412 0.870853669
vn 0.219333175 0.613724256 0.75844281
vn 0.142526462 -0.437936899 0.887635894
vn 0.136618253 -0.609274952 0.781101457
vn 0.172067505 -0.000729452161 0.98508489
vn 0.172067505 0.442386203 0.880163179
vn 0.189792132 0.607816048 0.771063291
vn 0.118893627 -0.43202869 0.893988544
vn 0.107077209 -0.603366743 0.790242396
vn 0.142526462 -0.000729452161 0.989790723
vn 0.142526462 0.442386203 0.885426821
vn 0.160251088 0.607816048 0.777739829
vn 0.0893525832 -0.43202869 0.897422602
vn 0.0834443744 -0.597458534 0.797546448
vn 0.112985418 -0.000729452161 0.993596378
vn 0.118893627 0.436477994 0.891824683
vn 0.136618253 0.601907839 0.78679248
vn 0.0657197482 -0.426120481 0.90227615
vn 0.0598115395 -0.591550326 0.804046511
vn 0.0834443744 -0.000729452161 0.99651217
vn 0.0893525832 0.430569785 0.898123475
vn 0.107077209 0.59599963 0.795813365
vn 0.0420869133 -0.420212272 0.906449302
vn 0.0361787046 -0.591550326 0.805455966
vn 0.0539033308 -0.000729452161 0.998545892
vn 0.0657197482 0.424661577 0.902963709
vn 0.0834443744 0.59599963 0.798637263
vn 0.0184540784 -0.420212272 0.907238168
vn 0.0125458696 -0.585642117 0.810472647
vn 0.0302704958 -0.000729452161 0.999541477
vn 0.0420869133 0.424661577 0.904373395
vn 0.0598115395 0.590091421 0.805117814
vn -0.00517875657 -0.414304064 0.910123796
vn 0.000729452161 -0.585642117 0.810569416
vn -0.016995174 -0.420212272 0.90726667
vn 0.0066376609 -0.000729452161 0.999977704
vn 0.0184540784 0.418753368 0.907912476
vn 0.0361787046 0.584183213 0.810815069
vn -0.016995174 -0.000729452161 0.999855306
vn -0.0288115915 -0.000729452161 0.999584594
vn -0.00517875657 0.418753368 0.908085237
vn 0.0125458696 0.584183213 0.811524846
vn -0.016995174 0.418753368 0.907940957
vn 0.000729452161 0.578275004 0.815841583
g Penquan_Trail01_0
f 3/3/3 2/2/2 1/1/1
f 2/2/2 3/3/3 4/4/4
f 4/4/4 5/5/5 2/2/2
f 6/6/6 4/4/4 3/3/3
f 5/5/5 4/4/4 7/7/7
f 7/7/7 8/8/8 5/5/5
f 4/4/4 6/6/6 9/9/9
f 9/9/9 7/7/7 4/4/4
f 10/10/10 9/9/9 6/6/6
f 8/8/8 7/7/7 11/11/11
f 11/11/11 12/12/12 8/8/8
f 7/7/7 9/9/9 13/13/13
f 13/13/13 11/11/11 7/7/7
f 9/9/9 10/10/10 14/14/14
f 14/14/14 13/13/13 9/9/9
f 15/15/15 14/14/14 10/10/10
f 14/14/14 15/15/15 16/16/16
f 16/16/16 17/17/17 14/14/14
f 13/13/13 14/14/14 17/17/17
f 17/17/17 16/16/16 18/18/18
f 12/12/12 11/11/11 19/19/19
f 19/19/19 20/20/20 12/12/12
f 11/11/11 13/13/13 21/21/21
f 17/17/17 21/21/21 13/13/13
f 21/21/21 19/19/19 11/11/11
f 18/18/18 22/22/22 17/17/17
f 21/21/21 17/17/17 22/22/22
f 22/22/22 18/18/18 23/23/23
f 20/20/20 19/19/19 24/24/24
f 24/24/24 25/25/25 20/20/20
f 19/19/19 21/21/21 26/26/26
f 22/22/22 26/26/26 21/21/21
f 26/26/26 24/24/24 19/19/19
f 23/23/23 27/27/27 22/22/22
f 26/26/26 22/22/22 27/27/27
f 27/27/27 23/23/23 28/28/28
f 25/25/25 24/24/24 29/29/29
f 29/29/29 30/30/30 25/25/25
f 24/24/24 26/26/26 31/31/31
f 27/27/27 31/31/31 26/26/26
f 31/31/31 29/29/29 24/24/24
f 28/28/28 32/32/32 27/27/27
f 31/31/31 27/27/27 32/32/32
f 32/32/32 28/28/28 33/33/33
f 30/30/30 29/29/29 34/34/34
f 34/34/34 35/35/35 30/30/30
f 29/29/29 31/31/31 36/36/36
f 32/32/32 36/36/36 31/31/31
f 36/36/36 34/34/34 29/29/29
f 33/33/33 37/37/37 32/32/32
f 36/36/36 32/32/32 37/37/37
f 37/37/37 33/33/33 38/38/38
f 35/35/35 34/34/34 39/39/39
f 39/39/39 40/40/40 35/35/35
f 34/34/34 36/36/36 41/41/41
f 37/37/37 41/41/41 36/36/36
f 41/41/41 39/39/39 34/34/34
f 38/38/38 42/42/42 37/37/37
f 41/41/41 37/37/37 42/42/42
f 42/42/42 38/38/38 43/43/43
f 40/40/40 39/39/39 44/44/44
f 44/44/44 45/45/45 40/40/40
f 39/39/39 41/41/41 46/46/46
f 42/42/42 46/46/46 41/41/41
f 46/46/46 44/44/44 39/39/39
f 43/43/43 47/47/47 42/42/42
f 46/46/46 42/42/42 47/47/47
f 47/47/47 43/43/43 48/48/48
f 45/45/45 44/44/44 49/49/49
f 49/49/49 50/50/50 45/45/45
f 44/44/44 46/46/46 51/51/51
f 47/47/47 51/51/51 46/46/46
f 51/51/51 49/49/49 44/44/44
f 48/48/48 52/52/52 47/47/47
f 51/51/51 47/47/47 52/52/52
f 52/52/52 48/48/48 53/53/53
f 50/50/50 49/49/49 54/54/54
f 54/54/54 55/55/55 50/50/50
f 49/49/49 51/51/51 56/56/56
f 52/52/52 56/56/56 51/51/51
f 56/56/56 54/54/54 49/49/49
f 53/53/53 57/57/57 52/52/52
f 56/56/56 52/52/52 57/57/57
f 57/57/57 53/53/53 58/58/58
f 55/55/55 54/54/54 59/59/59
f 59/59/59 60/60/60 55/55/55
f 54/54/54 56/56/56 61/61/61
f 57/57/57 61/61/61 56/56/56
f 61/61/61 59/59/59 54/54/54
f 58/58/58 62/62/62 57/57/57
f 61/61/61 57/57/57 62/62/62
f 62/62/62 58/58/58 63/63/63
f 60/60/60 59/59/59 64/64/64
f 64/64/64 65/65/65 60/60/60
f 59/59/59 61/61/61 66/66/66
f 62/62/62 66/66/66 61/61/61
f 66/66/66 64/64/64 59/59/59
f 63/63/63 67/67/67 62/62/62
f 66/66/66 62/62/62 67/67/67
f 67/67/67 63/63/63 68/68/68
f 65/65/65 64/64/64 69/69/69
f 69/69/69 70/70/70 65/65/65
f 64/64/64 66/66/66 71/71/71
f 67/67/67 71/71/71 66/66/66
f 71/71/71 69/69/69 64/64/64
f 68/68/68 72/72/72 67/67/67
f 71/71/71 67/67/67 72/72/72
f 72/72/72 68/68/68 73/73/73
f 70/70/70 69/69/69 74/74/74
f 74/74/74 75/75/75 70/70/70
f 69/69/69 71/71/71 76/76/76
f 72/72/72 76/76/76 71/71/71
f 76/76/76 74/74/74 69/69/69
f 73/73/73 77/77/77 72/72/72
f 76/76/76 72/72/72 77/77/77
f 77/77/77 73/73/73 78/78/78
f 75/75/75 74/74/74 79/79/79
f 79/79/79 80/80/80 75/75/75
f 74/74/74 76/76/76 81/81/81
f 77/77/77 81/81/81 76/76/76
f 81/81/81 79/79/79 74/74/74
f 78/78/78 82/82/82 77/77/77
f 81/81/81 77/77/77 82/82/82
f 82/82/82 78/78/78 83/83/83
f 80/80/80 79/79/79 84/84/84
f 84/84/84 85/85/85 80/80/80
f 79/79/79 81/81/81 86/86/86
f 82/82/82 86/86/86 81/81/81
f 86/86/86 84/84/84 79/79/79
f 83/83/83 87/87/87 82/82/82
f 86/86/86 82/82/82 87/87/87
f 87/87/87 83/83/83 88/88/88
f 85/85/85 84/84/84 89/89/89
f 89/89/89 90/90/90 85/85/85
f 84/84/84 86/86/86 91/91/91
f 87/87/87 91/91/91 86/86/86
f 91/91/91 89/89/89 84/84/84
f 88/88/88 92/92/92 87/87/87
f 91/91/91 87/87/87 92/92/92
f 92/92/92 88/88/88 93/93/93
f 90/90/90 89/89/89 94/94/94
f 94/94/94 95/95/95 90/90/90
f 89/89/89 91/91/91 96/96/96
f 92/92/92 96/96/96 91/91/91
f 96/96/96 94/94/94 89/89/89
f 93/93/93 97/97/97 92/92/92
f 96/96/96 92/92/92 97/97/97
f 97/97/97 93/93/93 98/98/98
f 95/95/95 94/94/94 99/99/99
f 99/99/99 100/100/100 95/95/95
f 94/94/94 96/96/96 101/101/101
f 97/97/97 101/101/101 96/96/96
f 101/101/101 99/99/99 94/94/94
f 98/98/98 102/102/102 97/97/97
f 101/101/101 97/97/97 102/102/102
f 102/102/102 98/98/98 103/103/103
f 100/100/100 99/99/99 104/104/104
f 104/104/104 105/105/105 100/100/100
f 99/99/99 101/101/101 106/106/106
f 102/102/102 106/106/106 101/101/101
f 106/106/106 104/104/104 99/99/99
f 103/103/103 107/107/107 102/102/102
f 106/106/106 102/102/102 107/107/107
f 107/107/107 103/103/103 108/108/108
f 105/105/105 104/104/104 109/109/109
f 109/109/109 110/110/110 105/105/105
f 104/104/104 106/106/106 111/111/111
f 107/107/107 111/111/111 106/106/106
f 111/111/111 109/109/109 104/104/104
f 108/108/108 112/112/112 107/107/107
f 111/111/111 107/107/107 112/112/112
f 112/112/112 108/108/108 113/113/113
f 110/110/110 109/109/109 114/114/114
f 114/114/114 115/115/115 110/110/110
f 109/109/109 111/111/111 116/116/116
f 112/112/112 116/116/116 111/111/111
f 116/116/116 114/114/114 109/109/109
f 113/113/113 117/117/117 112/112/112
f 116/116/116 112/112/112 117/117/117
f 117/117/117 113/113/113 118/118/118
f 115/115/115 114/114/114 119/119/119
f 119/119/119 120/120/120 115/115/115
f 114/114/114 116/116/116 121/121/121
f 117/117/117 121/121/121 116/116/116
f 121/121/121 119/119/119 114/114/114
f 118/118/118 122/122/122 117/117/117
f 121/121/121 117/117/117 122/122/122
f 122/122/122 118/118/118 123/123/123
f 120/120/120 119/119/119 124/124/124
f 124/124/124 125/125/125 120/120/120
f 119/119/119 121/121/121 126/126/126
f 122/122/122 126/126/126 121/121/121
f 126/126/126 124/124/124 119/119/119
f 123/123/123 127/127/127 122/122/122
f 126/126/126 122/122/122 127/127/127
f 127/127/127 123/123/123 128/128/128
f 125/125/125 124/124/124 129/129/129
f 129/129/129 130/130/130 125/125/125
f 124/124/124 126/126/126 131/131/131
f 127/127/127 131/131/131 126/126/126
f 131/131/131 129/129/129 124/124/124
f 128/128/128 132/132/132 127/127/127
f 131/131/131 127/127/127 132/132/132
f 132/132/132 128/128/128 133/133/133
f 130/130/130 129/129/129 134/134/134
f 134/134/134 135/135/135 130/130/130
f 129/129/129 131/131/131 136/136/136
f 132/132/132 136/136/136 131/131/131
f 136/136/136 134/134/134 129/129/129
f 133/133/133 137/137/137 132/132/132
f 136/136/136 132/132/132 137/137/137
f 137/137/137 133/133/133 138/138/138
f 135/135/135 134/134/134 139/139/139
f 139/139/139 140/140/140 135/135/135
f 134/134/134 136/136/136 141/141/141
f 137/137/137 141/141/141 136/136/136
f 141/141/141 139/139/139 134/134/134
f 138/138/138 142/142/142 137/137/137
f 141/141/141 137/137/137 142/142/142
f 142/142/142 138/138/138 143/143/143
f 140/140/140 139/139/139 144/144/144
f 144/144/144 145/145/145 140/140/140
f 145/145/145 144/144/144 146/146/146
f 139/139/139 141/141/141 147/147/147
f 142/142/142 147/147/147 141/141/141
f 147/147/147 144/144/144 139/139/139
f 143/143/143 148/148/148 142/142/142
f 147/147/147 142/142/142 148/148/148
f 148/148/148 143/143/143 149/149/149
f 150/150/150 146/146/146 144/144/144
f 144/144/144 147/147/147 150/150/150
f 148/148/148 150/150/150 147/147/147
f 146/146/146 150/150/150 151/151/151
f 149/149/149 152/152/152 148/148/148
f 150/150/150 148/148/148 152/152/152
f 152/152/152 151/151/151 150/150/150
f 152/152/152 149/149/149 153/153/153
f 151/151/151 152/152/152 154/154/154
f 153/153/153 154/154/154 152/152/152
f 154/154/154 153/153/153 155/155/155
