g pian_03pian_03_mobile
v -16.0911492 0.116341837 17.6828538
v -16.019765 0.116341837 15.3827562
v -9.27095924 0.116341837 17.7869331
v -6.42430916 0.116341837 -17.7983726
v -6.42430916 0.116341837 -15.4971851
v -13.245044 0.116341837 -17.7351621
v -3.90896905 0.141952969 17.8555927
v -3.90896905 0.141952969 -17.8555889
v 16.0911454 0.141952969 -17.8555889
v 16.0911454 0.141952969 17.8555927
v -6.42430916 0.116341837 14.4138925
v -6.42430916 0.116341837 16.71508
v -15.9521952 0.116341837 13.3583869
v -15.9521952 0.116341837 11.0571995
v -6.42430916 0.116341837 9.81206252
v -6.42430916 0.116341837 12.11325
v -15.9521952 0.116341837 8.75655693
v -15.9521952 0.116341837 6.45536947
v -6.42430916 0.116341837 5.21077744
v -6.42430916 0.116341837 7.51141998
v -15.9521952 0.116341837 4.15472693
v -15.9521952 0.116341837 1.85408439
v -6.42430916 0.116341837 0.60894744
v -6.42430916 0.116341837 2.90958998
v -15.9521952 0.116341837 -0.447103068
v -15.9521952 0.116341837 -2.74774561
v -6.42430916 0.116341837 -3.99288256
v -6.42430916 0.116341837 -1.69224002
v -15.9521952 0.116341837 -5.04893307
v -15.9521952 0.116341837 -7.34957561
v -6.42430916 0.116341837 -8.59471256
v -6.42430916 0.116341837 -6.29407002
v -15.9521952 0.116341837 -9.65076306
v -15.9521952 0.116341837 -11.9514056
v -6.42430916 0.116341837 -13.1965426
v -6.42430916 0.116341837 -10.8953551
v -15.9521952 0.116341837 -14.2525931
v -15.9521952 0.116341837 -16.5532356
v -6.42430916 0.116341837 14.4138925
v -6.42430916 0.116341837 16.71508
v -15.9521952 0.116341837 13.3583869
v -15.9521952 0.116341837 11.0571995
v -6.42430916 0.116341837 9.81206252
v -6.42430916 0.116341837 12.11325
v -15.9521952 0.116341837 8.75655693
v -15.9521952 0.116341837 6.45536947
v -6.42430916 0.116341837 5.21077744
v -6.42430916 0.116341837 7.51141998
v -15.9521952 0.116341837 4.15472693
v -15.9521952 0.116341837 1.85408439
v -6.42430916 0.116341837 0.60894744
v -6.42430916 0.116341837 2.90958998
v -15.9521952 0.116341837 -0.447103068
v -15.9521952 0.116341837 -2.74774561
v -6.42430916 0.116341837 -3.99288256
v -6.42430916 0.116341837 -1.69224002
v -15.9521952 0.116341837 -5.04893307
v -15.9521952 0.116341837 -7.34957561
v -6.42430916 0.116341837 -8.59471256
v -6.42430916 0.116341837 -6.29407002
v -15.9521952 0.116341837 -9.65076306
v -15.9521952 0.116341837 -11.9514056
v -6.42430916 0.116341837 -13.1965426
v -6.42430916 0.116341837 -10.8953551
v -15.9521952 0.116341837 -14.2525931
v -15.9521952 0.116341837 -16.5532356
vt 0.345752428 0.725048046
vt 0.315984924 0.715445626
vt 0.315984924 0.811469833
vt 0.306382503 0.725048046
vt 0.277575241 0.715445626
vt 0.277575241 0.812430075
vt 0.91229525 0.460021234
vt 0.91229525 0.2401258
vt 0.789384265 0.2401258
vt 0.789384265 0.460021234
vt 0.540681568 0.550283989
vt 0.511874306 0.540681568
vt 0.511874306 0.676075701
vt 0.540681568 0.686638363
vt 0.580051493 0.550283989
vt 0.551244231 0.540681568
vt 0.551244231 0.676075701
vt 0.580051493 0.686638363
vt 0.857561452 0.626143113
vt 0.827793948 0.61558045
vt 0.827793948 0.751934824
vt 0.857561452 0.761537245
vt 0.93534106 0.58773343
vt 0.906533798 0.577170767
vt 0.906533798 0.713525141
vt 0.93534106 0.723127562
vt 0.98623389 0.0144689128
vt 0.957426628 0.00390625
vt 0.957426628 0.140260624
vt 0.98623389 0.149863045
vt 0.345752428 0.577170767
vt 0.315984924 0.567568346
vt 0.315984924 0.702962479
vt 0.345752428 0.713525141
vt 0.502271886 0.698161268
vt 0.472504381 0.687598606
vt 0.472504381 0.82395298
vt 0.502271886 0.834515643
vt 0.306382503 0.577170767
vt 0.277575241 0.567568346
vt 0.277575241 0.702962479
vt 0.306382503 0.713525141
vt 0.619421418 0.550283989
vt 0.589653914 0.540681568
vt 0.589653914 0.676075701
vt 0.619421418 0.686638363
vt 0.818191527 0.626143113
vt 0.789384265 0.61558045
vt 0.789384265 0.751934824
vt 0.818191527 0.761537245
vt 0.657831101 0.550283989
vt 0.629023839 0.540681568
vt 0.629023839 0.676075701
vt 0.657831101 0.686638363
vt 0.98623389 0.162346192
vt 0.957426628 0.151783529
vt 0.957426628 0.287177661
vt 0.98623389 0.297740324
vt 0.267012578 0.577170767
vt 0.238205316 0.567568346
vt 0.238205316 0.702962479
vt 0.267012578 0.713525141
vt 0.228602895 0.725048046
vt 0.198835391 0.715445626
vt 0.198835391 0.850839758
vt 0.228602895 0.861402421
g pian_03pian_03_mobile_0
f 3/3/3 2/2/2 1/1/1
f 6/6/6 5/5/5 4/4/4
f 9/9/9 8/8/8 7/7/7
f 10/10/10 9/9/9 7/7/7
f 13/13/13 12/12/12 11/11/11
f 14/14/14 13/13/13 11/11/11
f 17/17/17 16/16/16 15/15/15
f 18/18/18 17/17/17 15/15/15
f 21/21/21 20/20/20 19/19/19
f 22/22/22 21/21/21 19/19/19
f 25/25/25 24/24/24 23/23/23
f 26/26/26 25/25/25 23/23/23
f 29/29/29 28/28/28 27/27/27
f 30/30/30 29/29/29 27/27/27
f 33/33/33 32/32/32 31/31/31
f 34/34/34 33/33/33 31/31/31
f 37/37/37 36/36/36 35/35/35
f 38/38/38 37/37/37 35/35/35
f 41/41/41 40/40/40 39/39/39
f 42/42/42 41/41/41 39/39/39
f 45/45/45 44/44/44 43/43/43
f 46/46/46 45/45/45 43/43/43
f 49/49/49 48/48/48 47/47/47
f 50/50/50 49/49/49 47/47/47
f 53/53/53 52/52/52 51/51/51
f 54/54/54 53/53/53 51/51/51
f 57/57/57 56/56/56 55/55/55
f 58/58/58 57/57/57 55/55/55
f 61/61/61 60/60/60 59/59/59
f 62/62/62 61/61/61 59/59/59
f 65/65/65 64/64/64 63/63/63
f 66/66/66 65/65/65 63/63/63
