g pian_04pian_04_mobile
v 41.347702 0.2037851 -10.4765206
v 41.2921806 0.2037851 -8.6947872
v 37.1558335 0.2037851 -10.5560172
v 34.95138 0.2037851 16.9990201
v 34.95138 0.2037851 15.2172867
v 39.1445104 0.2037851 16.9510698
v 34.95138 0.2037851 -7.94524778
v 34.95138 0.2037851 -9.72698121
v 41.2404447 0.2037851 -7.12756842
v 41.2404447 0.2037851 -5.345835
v 34.95138 0.2037851 -4.38178094
v 34.95138 0.2037851 -6.16351436
v 41.2404447 0.2037851 -3.56410158
v 41.2404447 0.2037851 -1.78236816
v 34.95138 0.2037851 -0.818314101
v 34.95138 0.2037851 -2.60004752
v 41.2404447 0.2037851 -0.00063474013
v 41.2404447 0.2037851 1.78109868
v 34.95138 0.2037851 2.74515274
v 34.95138 0.2037851 0.963419321
v 41.2404447 0.2037851 3.5628321
v 41.2404447 0.2037851 5.34456552
v 34.95138 0.2037851 6.30861958
v 34.95138 0.2037851 4.52688616
v 41.2404447 0.2037851 7.12629894
v 41.2404447 0.2037851 8.90803237
v 34.95138 0.2037851 9.87208643
v 34.95138 0.2037851 8.090353
v 41.2404447 0.2037851 10.6897658
v 41.2404447 0.2037851 12.4714992
v 34.95138 0.2037851 13.4355533
v 34.95138 0.2037851 11.6538198
v 41.2404447 0.2037851 14.2532326
v 41.2404447 0.2037851 16.034966
v 34.95138 0.2037851 -7.94524778
v 34.95138 0.2037851 -9.72698121
v 41.2404447 0.2037851 -7.12756842
v 41.2404447 0.2037851 -5.345835
v 34.95138 0.2037851 -4.38178094
v 34.95138 0.2037851 -6.16351436
v 41.2404447 0.2037851 -3.56410158
v 41.2404447 0.2037851 -1.78236816
v 34.95138 0.2037851 -0.818314101
v 34.95138 0.2037851 -2.60004752
v 41.2404447 0.2037851 -0.00063474013
v 41.2404447 0.2037851 1.78109868
v 34.95138 0.2037851 2.74515274
v 34.95138 0.2037851 0.963419321
v 41.2404447 0.2037851 3.5628321
v 41.2404447 0.2037851 5.34456552
v 34.95138 0.2037851 6.30861958
v 34.95138 0.2037851 4.52688616
v 41.2404447 0.2037851 7.12629894
v 41.2404447 0.2037851 8.90803237
v 34.95138 0.2037851 9.87208643
v 34.95138 0.2037851 8.090353
v 41.2404447 0.2037851 10.6897658
v 41.2404447 0.2037851 12.4714992
v 34.95138 0.2037851 13.4355533
v 34.95138 0.2037851 11.6538198
v 41.2404447 0.2037851 14.2532326
v 41.2404447 0.2037851 16.034966
v -41.3476944 0.2037851 17.1958688
v -38.2233517 0.2037851 14.1459753
v 29.0131098 0.2037851 14.1459753
v 32.1374526 0.2037851 17.1958688
v -41.3476944 0.2037851 -17.1958765
v 29.0131098 0.2037851 -14.1459829
v -38.2233517 0.2037851 -14.1459829
v 32.1374526 0.2037851 -17.1958765
vt 0.811219931 0.87699946
vt 0.788758629 0.867373187
vt 0.788758629 0.92833958
vt 0.240863286 0.913097981
vt 0.218401984 0.904273898
vt 0.218401984 0.965240291
vt 0.495157318 0.844911885
vt 0.472696015 0.836087802
vt 0.472696015 0.92753739
vt 0.495157318 0.936361473
vt 0.881812596 0.829670287
vt 0.859351293 0.820846203
vt 0.859351293 0.912295792
vt 0.881812596 0.921119875
vt 0.8890323 0.625111996
vt 0.867373187 0.615485724
vt 0.867373187 0.706935312
vt 0.8890323 0.716561585
vt 0.982888457 0.767901705
vt 0.961229344 0.759077622
vt 0.961229344 0.85052721
vt 0.982888457 0.859351293
vt 0.920317686 0.731000994
vt 0.898658573 0.72217691
vt 0.898658573 0.813626499
vt 0.920317686 0.823252772
vt 0.455850038 0.844911885
vt 0.433388736 0.836087802
vt 0.433388736 0.92753739
vt 0.455850038 0.936361473
vt 0.951603071 0.757473243
vt 0.929943958 0.74784697
vt 0.929943958 0.839296559
vt 0.951603071 0.848922832
vt 0.416542759 0.844911885
vt 0.394883646 0.836087802
vt 0.394883646 0.92753739
vt 0.416542759 0.936361473
vt 0.526442703 0.885823543
vt 0.503981401 0.87699946
vt 0.503981401 0.968449048
vt 0.526442703 0.977273131
vt 0.8890323 0.728594425
vt 0.867373187 0.719770342
vt 0.867373187 0.811219931
vt 0.8890323 0.820846203
vt 0.576980634 0.890636679
vt 0.554519331 0.881812596
vt 0.554519331 0.973262185
vt 0.576980634 0.982086268
vt 0.545695248 0.790363007
vt 0.523233946 0.780736735
vt 0.523233946 0.872186323
vt 0.545695248 0.881812596
vt 0.85052721 0.772714841
vt 0.828065908 0.763088569
vt 0.828065908 0.855340347
vt 0.85052721 0.86416443
vt 0.311455951 0.820044014
vt 0.288994649 0.811219931
vt 0.288994649 0.90266952
vt 0.311455951 0.912295792
vt 0.383652995 0.540079923
vt 0.36440045 0.559332468
vt 0.36440045 0.973262185
vt 0.383652995 0.992514729
vt 0.171875 0.540079923
vt 0.190325356 0.973262185
vt 0.190325356 0.559332468
vt 0.171875 0.992514729
g pian_04pian_04_mobile_0
f 3/3/3 2/2/2 1/1/1
f 6/6/6 5/5/5 4/4/4
f 9/9/9 8/8/8 7/7/7
f 10/10/10 9/9/9 7/7/7
f 13/13/13 12/12/12 11/11/11
f 14/14/14 13/13/13 11/11/11
f 17/17/17 16/16/16 15/15/15
f 18/18/18 17/17/17 15/15/15
f 21/21/21 20/20/20 19/19/19
f 22/22/22 21/21/21 19/19/19
f 25/25/25 24/24/24 23/23/23
f 26/26/26 25/25/25 23/23/23
f 29/29/29 28/28/28 27/27/27
f 30/30/30 29/29/29 27/27/27
f 33/33/33 32/32/32 31/31/31
f 34/34/34 33/33/33 31/31/31
f 37/37/37 36/36/36 35/35/35
f 38/38/38 37/37/37 35/35/35
f 41/41/41 40/40/40 39/39/39
f 42/42/42 41/41/41 39/39/39
f 45/45/45 44/44/44 43/43/43
f 46/46/46 45/45/45 43/43/43
f 49/49/49 48/48/48 47/47/47
f 50/50/50 49/49/49 47/47/47
f 53/53/53 52/52/52 51/51/51
f 54/54/54 53/53/53 51/51/51
f 57/57/57 56/56/56 55/55/55
f 58/58/58 57/57/57 55/55/55
f 61/61/61 60/60/60 59/59/59
f 62/62/62 61/61/61 59/59/59
f 65/65/65 64/64/64 63/63/63
f 66/66/66 65/65/65 63/63/63
f 63/63/63 64/64/64 67/67/67
f 68/68/68 65/65/65 66/66/66
f 64/64/64 69/69/69 67/67/67
f 70/70/70 68/68/68 66/66/66
f 67/67/67 69/69/69 70/70/70
f 69/69/69 68/68/68 70/70/70
