g pian_02pian_02_mobile
v 3.19835819 -0.000206424046 -13.697681
v 3.14327564 -0.000206424046 -11.9165384
v -0.994222833 -0.000206424046 -13.7779922
v -3.19836582 -0.000206424046 13.7779999
v -3.19836582 -0.000206424046 11.9960163
v 0.994635681 -0.000206424046 13.7292245
v -3.19836582 -0.000206424046 -11.1664066
v -3.19836582 -0.000206424046 -12.9479697
v 3.09071596 -0.000206424046 -10.3485779
v 3.09071596 -0.000206424046 -8.56701475
v -3.19836582 -0.000206424046 -7.60285987
v -3.19836582 -0.000206424046 -9.38442298
v 3.09071596 -0.000206424046 -6.78503116
v 3.09071596 -0.000206424046 -5.00346804
v -3.19836582 -0.000206424046 -4.03931317
v -3.19836582 -0.000206424046 -5.82129676
v 3.09071596 -0.000206424046 -3.22190493
v 3.09071596 -0.000206424046 -1.43992134
v -3.19836582 -0.000206424046 -0.475766462
v -3.19836582 -0.000206424046 -2.25775005
v 3.09071596 -0.000206424046 0.341641773
v 3.09071596 -0.000206424046 2.12320489
v -3.19836582 -0.000206424046 3.08778024
v -3.19836582 -0.000206424046 1.30579665
v 3.09071596 -0.000206424046 3.90518848
v 3.09071596 -0.000206424046 5.68675159
v -3.19836582 -0.000206424046 6.65090647
v -3.19836582 -0.000206424046 4.86934336
v 3.09071596 -0.000206424046 7.46873518
v 3.09071596 -0.000206424046 9.2502983
v -3.19836582 -0.000206424046 10.2144532
v -3.19836582 -0.000206424046 8.43289006
v 3.09071596 -0.000206424046 11.0322819
v 3.09071596 -0.000206424046 12.813845
v -3.19836582 -0.000206424046 -11.1664066
v -3.19836582 -0.000206424046 -12.9479697
v 3.09071596 -0.000206424046 -10.3485779
v 3.09071596 -0.000206424046 -8.56701475
v -3.19836582 -0.000206424046 -7.60285987
v -3.19836582 -0.000206424046 -9.38442298
v 3.09071596 -0.000206424046 -6.78503116
v 3.09071596 -0.000206424046 -5.00346804
v -3.19836582 -0.000206424046 -4.03931317
v -3.19836582 -0.000206424046 -5.82129676
v 3.09071596 -0.000206424046 -3.22190493
v 3.09071596 -0.000206424046 -1.43992134
v -3.19836582 -0.000206424046 -0.475766462
v -3.19836582 -0.000206424046 -2.25775005
v 3.09071596 -0.000206424046 0.341641773
v 3.09071596 -0.000206424046 2.12320489
v -3.19836582 -0.000206424046 3.08778024
v -3.19836582 -0.000206424046 1.30579665
v 3.09071596 -0.000206424046 3.90518848
v 3.09071596 -0.000206424046 5.68675159
v -3.19836582 -0.000206424046 6.65090647
v -3.19836582 -0.000206424046 4.86934336
v 3.09071596 -0.000206424046 7.46873518
v 3.09071596 -0.000206424046 9.2502983
v -3.19836582 -0.000206424046 10.2144532
v -3.19836582 -0.000206424046 8.43289006
v 3.09071596 -0.000206424046 11.0322819
v 3.09071596 -0.000206424046 12.813845
vt 0.951448574 0.861161675
vt 0.93004034 0.851853747
vt 0.93004034 0.91328607
vt 0.221707039 0.872331188
vt 0.199368012 0.863023261
vt 0.199368012 0.923524791
vt 0.643356166 0.797867766
vt 0.621017139 0.788559839
vt 0.621017139 0.880708323
vt 0.643356166 0.890016251
vt 0.983095529 0.458128403
vt 0.960756502 0.448820476
vt 0.960756502 0.540038168
vt 0.983095529 0.549346095
vt 0.611709211 0.697342147
vt 0.590300978 0.688034219
vt 0.590300978 0.779251911
vt 0.611709211 0.788559839
vt 0.917009242 0.0402024475
vt 0.894670215 0.0308945198
vt 0.894670215 0.122112212
vt 0.917009242 0.131420139
vt 0.650802508 0.697342147
vt 0.628463481 0.688034219
vt 0.628463481 0.779251911
vt 0.650802508 0.788559839
vt 0.674072327 0.805314109
vt 0.652664093 0.796936974
vt 0.652664093 0.888154666
vt 0.674072327 0.897462593
vt 0.271969848 0.820206793
vt 0.249630822 0.810898865
vt 0.249630822 0.90304735
vt 0.271969848 0.912355278
vt 0.810898865 0.772736361
vt 0.789490631 0.763428434
vt 0.789490631 0.854646126
vt 0.810898865 0.863954053
vt 0.983095529 0.562377194
vt 0.960756502 0.553069267
vt 0.960756502 0.644286958
vt 0.983095529 0.653594886
vt 0.572615915 0.697342147
vt 0.551207681 0.688034219
vt 0.551207681 0.779251911
vt 0.572615915 0.788559839
vt 0.967272051 0.659179643
vt 0.944933025 0.650802508
vt 0.944933025 0.7420202
vt 0.967272051 0.751328128
vt 0.682449462 0.702926903
vt 0.660110436 0.694549768
vt 0.660110436 0.78576746
vt 0.682449462 0.795075388
vt 0.920732413 0.835099477
vt 0.898393386 0.826722342
vt 0.898393386 0.917940034
vt 0.920732413 0.927247962
vt 0.604262869 0.797867766
vt 0.581923843 0.788559839
vt 0.581923843 0.880708323
vt 0.604262869 0.890016251
g pian_02pian_02_mobile_0
f 3/3/3 2/2/2 1/1/1
f 6/6/6 5/5/5 4/4/4
f 9/9/9 8/8/8 7/7/7
f 10/10/10 9/9/9 7/7/7
f 13/13/13 12/12/12 11/11/11
f 14/14/14 13/13/13 11/11/11
f 17/17/17 16/16/16 15/15/15
f 18/18/18 17/17/17 15/15/15
f 21/21/21 20/20/20 19/19/19
f 22/22/22 21/21/21 19/19/19
f 25/25/25 24/24/24 23/23/23
f 26/26/26 25/25/25 23/23/23
f 29/29/29 28/28/28 27/27/27
f 30/30/30 29/29/29 27/27/27
f 33/33/33 32/32/32 31/31/31
f 34/34/34 33/33/33 31/31/31
f 37/37/37 36/36/36 35/35/35
f 38/38/38 37/37/37 35/35/35
f 41/41/41 40/40/40 39/39/39
f 42/42/42 41/41/41 39/39/39
f 45/45/45 44/44/44 43/43/43
f 46/46/46 45/45/45 43/43/43
f 49/49/49 48/48/48 47/47/47
f 50/50/50 49/49/49 47/47/47
f 53/53/53 52/52/52 51/51/51
f 54/54/54 53/53/53 51/51/51
f 57/57/57 56/56/56 55/55/55
f 58/58/58 57/57/57 55/55/55
f 61/61/61 60/60/60 59/59/59
f 62/62/62 61/61/61 59/59/59
