g Plane002
v 0.63499999 -0.31749515 -9.68947876E-06
v 0.63499999 -0.63499999 -9.68947876E-06
v 0.31749515 -0.63499999 -9.68947876E-06
v 0.31749515 -0.31749515 -9.68947876E-06
v 0.63499999 -9.68947876E-06 -9.68947876E-06
v 9.68947876E-06 -0.63499999 -9.68947876E-06
v 0.31749515 -9.68947876E-06 -9.68947876E-06
v 0.63499999 0.31749515 -9.68947876E-06
v 9.68947876E-06 -0.31749515 -9.68947876E-06
v -0.31749515 -0.63499999 -9.68947876E-06
v 0.31749515 0.31749515 -9.68947876E-06
v 0.63499999 0.63499999 -9.68947876E-06
v 0.31749515 0.63499999 -9.68947876E-06
v -0.31749515 -0.31749515 -9.68947876E-06
v -0.63499999 -0.63499999 -9.68947876E-06
v -0.63499999 -0.31749515 -9.68947876E-06
v 9.68947876E-06 -9.68947876E-06 -9.68947876E-06
v 9.68947876E-06 0.31749515 -9.68947876E-06
v 9.68947876E-06 0.63499999 -9.68947876E-06
v -0.31749515 -9.68947876E-06 -9.68947876E-06
v -0.63499999 -9.68947876E-06 -9.68947876E-06
v -0.31749515 0.31749515 -9.68947876E-06
v -0.31749515 0.63499999 -9.68947876E-06
v -0.63499999 0.31749515 -9.68947876E-06
v -0.63499999 0.63499999 -9.68947876E-06
v 0.63499999 -9.68947876E-06 0.63499999
v 0.31749515 -9.68947876E-06 0.63499999
v 0.63499999 -9.68947876E-06 0.31749515
v 0.31749515 -9.68947876E-06 0.31749515
v 9.68947876E-06 -9.68947876E-06 0.63499999
v 0.63499999 -9.68947876E-06 -9.68947876E-06
v 9.68947876E-06 -9.68947876E-06 0.31749515
v -0.31749515 -9.68947876E-06 0.63499999
v 0.31749515 -9.68947876E-06 -9.68947876E-06
v 0.63499999 -9.68947876E-06 -0.31749515
v -0.31749515 -9.68947876E-06 0.31749515
v -0.63499999 -9.68947876E-06 0.63499999
v -0.63499999 -9.68947876E-06 0.31749515
v 9.68947876E-06 -9.68947876E-06 -9.68947876E-06
v 0.31749515 -9.68947876E-06 -0.31749515
v 0.63499999 -9.68947876E-06 -0.63499999
v 0.31749515 -9.68947876E-06 -0.63499999
v -0.31749515 -9.68947876E-06 -9.68947876E-06
v -0.63499999 -9.68947876E-06 -9.68947876E-06
v 9.68947876E-06 -9.68947876E-06 -0.31749515
v 9.68947876E-06 -9.68947876E-06 -0.63499999
v -0.31749515 -9.68947876E-06 -0.31749515
v -0.63499999 -9.68947876E-06 -0.31749515
v -0.31749515 -9.68947876E-06 -0.63499999
v -0.63499999 -9.68947876E-06 -0.63499999
vt 0.999852105 0.249810615
vt 0.999852105 -4.02331352E-05
vt 0.750001257 -4.02331352E-05
vt 0.750001257 0.249810615
vt 0.999852105 0.500150408
vt 0.500150408 -4.02331352E-05
vt 0.750001257 0.500150408
vt 0.999852105 0.750001257
vt 0.500150408 0.249810615
vt 0.249810615 -4.02331352E-05
vt 0.750001257 0.750001257
vt 0.999852105 0.999852105
vt 0.750001257 0.999852105
vt 0.249810615 0.249810615
vt -4.02331352E-05 -4.02331352E-05
vt -4.02331352E-05 0.249810615
vt 0.500150408 0.500150408
vt 0.500150408 0.750001257
vt 0.500150408 0.999852105
vt 0.249810615 0.500150408
vt -4.02331352E-05 0.500150408
vt 0.249810615 0.750001257
vt 0.249810615 0.999852105
vt -4.02331352E-05 0.750001257
vt -4.02331352E-05 0.999852105
vt 0.999852105 0.000937656682
vt 0.750001257 0.000937656682
vt 0.999852105 0.250788505
vt 0.750001257 0.250788505
vt 0.500150408 0.000937656682
vt 0.999852105 0.500639353
vt 0.500150408 0.250788505
vt 0.249810615 0.000937656682
vt 0.750001257 0.500639353
vt 0.999852105 0.750979146
vt 0.249810615 0.250788505
vt -4.02331352E-05 0.000937656682
vt -4.02331352E-05 0.250788505
vt 0.500150408 0.500639353
vt 0.750001257 0.750979146
vt 0.999852105 1.00082999
vt 0.750001257 1.00082999
vt 0.249810615 0.500639353
vt -4.02331352E-05 0.500639353
vt 0.500150408 0.750979146
vt 0.500150408 1.00082999
vt 0.249810615 0.750979146
vt -4.02331352E-05 0.750979146
vt 0.249810615 1.00082999
vt -4.02331352E-05 1.00082999
vn -0 0 1
vn -0 0 1
vn -0 0 1
vn -0 0 1
vn -0 0 1
vn -0 0 1
vn -0 0 1
vn -0 0 1
vn -0 0 1
vn -0 0 1
vn -0 0 1
vn -0 0 1
vn -0 0 1
vn -0 0 1
vn -0 0 1
vn -0 0 1
vn -0 0 1
vn -0 0 1
vn -0 0 1
vn -0 0 1
vn -0 0 1
vn -0 0 1
vn -0 0 1
vn -0 0 1
vn -0 0 1
vn -0 1 -0
vn -0 1 -0
vn -0 1 -0
vn -0 1 -0
vn -0 1 -0
vn -0 1 -0
vn -0 1 -0
vn -0 1 -0
vn -0 1 -0
vn -0 1 -0
vn -0 1 -0
vn -0 1 -0
vn -0 1 -0
vn -0 1 -0
vn -0 1 -0
vn -0 1 -0
vn -0 1 -0
vn -0 1 -0
vn -0 1 -0
vn -0 1 -0
vn -0 1 -0
vn -0 1 -0
vn -0 1 -0
vn -0 1 -0
vn -0 1 -0
g Plane002_0
f 3/3/3 2/2/2 1/1/1
f 4/4/4 3/3/3 1/1/1
f 4/4/4 1/1/1 5/5/5
f 6/6/6 3/3/3 4/4/4
f 7/7/7 4/4/4 5/5/5
f 7/7/7 5/5/5 8/8/8
f 9/9/9 6/6/6 4/4/4
f 9/9/9 4/4/4 7/7/7
f 10/10/10 6/6/6 9/9/9
f 11/11/11 7/7/7 8/8/8
f 11/11/11 8/8/8 12/12/12
f 13/13/13 11/11/11 12/12/12
f 14/14/14 10/10/10 9/9/9
f 15/15/15 10/10/10 14/14/14
f 16/16/16 15/15/15 14/14/14
f 17/17/17 9/9/9 7/7/7
f 17/17/17 7/7/7 11/11/11
f 14/14/14 9/9/9 17/17/17
f 18/18/18 11/11/11 13/13/13
f 18/18/18 17/17/17 11/11/11
f 19/19/19 18/18/18 13/13/13
f 16/16/16 14/14/14 20/20/20
f 20/20/20 14/14/14 17/17/17
f 20/20/20 17/17/17 18/18/18
f 21/21/21 16/16/16 20/20/20
f 22/22/22 18/18/18 19/19/19
f 22/22/22 20/20/20 18/18/18
f 21/21/21 20/20/20 22/22/22
f 23/23/23 22/22/22 19/19/19
f 24/24/24 21/21/21 22/22/22
f 24/24/24 22/22/22 23/23/23
f 25/25/25 24/24/24 23/23/23
f 28/28/28 27/27/27 26/26/26
f 28/28/28 29/29/29 27/27/27
f 29/29/29 30/30/30 27/27/27
f 31/31/31 29/29/29 28/28/28
f 29/29/29 32/32/32 30/30/30
f 32/32/32 33/33/33 30/30/30
f 31/31/31 34/34/34 29/29/29
f 34/34/34 32/32/32 29/29/29
f 35/35/35 34/34/34 31/31/31
f 32/32/32 36/36/36 33/33/33
f 36/36/36 37/37/37 33/33/33
f 36/36/36 38/38/38 37/37/37
f 34/34/34 39/39/39 32/32/32
f 39/39/39 36/36/36 32/32/32
f 35/35/35 40/40/40 34/34/34
f 40/40/40 39/39/39 34/34/34
f 41/41/41 40/40/40 35/35/35
f 41/41/41 42/42/42 40/40/40
f 43/43/43 38/38/38 36/36/36
f 39/39/39 43/43/43 36/36/36
f 43/43/43 44/44/44 38/38/38
f 40/40/40 45/45/45 39/39/39
f 42/42/42 45/45/45 40/40/40
f 45/45/45 43/43/43 39/39/39
f 42/42/42 46/46/46 45/45/45
f 47/47/47 44/44/44 43/43/43
f 45/45/45 47/47/47 43/43/43
f 46/46/46 47/47/47 45/45/45
f 47/47/47 48/48/48 44/44/44
f 46/46/46 49/49/49 47/47/47
f 49/49/49 48/48/48 47/47/47
f 49/49/49 50/50/50 48/48/48
