g polySurface40
v -0.729161695 -1.49018351E-05 -0.485486887
v 0.852846927 -1.49018351E-05 -0.884915676
v 0.883961959 -1.49018351E-05 -0.878180047
v 0.91296093 -1.49018351E-05 -0.864798199
v 0.937429743 -1.49018351E-05 -0.845753653
v 0.955908019 -1.49018351E-05 -0.822268361
v 0.967412235 -1.49018351E-05 -0.795683487
v 0.971614553 -1.49018351E-05 -0.764061793
v 0.976591766 1.49018351E-05 0.779887542
v -0.976591766 1.49018351E-05 0.741321593
v -0.973045129 1.49018351E-05 0.764985707
v -0.961540912 1.49018351E-05 0.791659992
v 0.968872615 1.49018351E-05 0.807485741
v -0.94309244 1.49018351E-05 0.815204891
v 0.953821762 1.49018351E-05 0.832789057
v -0.918623627 1.49018351E-05 0.83427924
v 0.932214101 1.49018351E-05 0.854277503
v -0.889565049 1.49018351E-05 0.847690892
v -0.85758571 1.49018351E-05 0.854635147
v 0.905271583 1.49018351E-05 0.870669522
v 0.833236112 1.49018351E-05 0.884915676
v 0.874603606 1.49018351E-05 0.880921984
vt 0.700997291 0.87141323
vt 0.904522612 0.0651023892
vt 0.90062739 0.0495215034
vt 0.893810753 0.034914423
vt 0.884072699 0.0222549533
vt 0.872387035 0.0125168996
vt 0.85875376 0.00667406745
vt 0.843172874 0.00472645672
vt 0.0553643356 0.00180504064
vt 0.0748404428 0.998007927
vt 0.0631547785 0.996060316
vt 0.0495215034 0.990217484
vt 0.0417310605 0.00570026209
vt 0.0378358391 0.98047943
vt 0.0280977854 0.013490705
vt 0.0280977854 0.968793766
vt 0.0173859264 0.024202564
vt 0.0203073425 0.95321288
vt 0.0173859264 0.937631994
vt 0.00862167818 0.0388096444
vt 0.00180504064 0.0748404428
vt 0.00375265136 0.0543905302
vn -0 1 -0
vn -0 1 -0
vn -0 1 -0
vn -0 1 -0
vn -0 1 -0
vn -0 1 -0
vn -0 1 -0
vn -0 1 -0
vn -0 1 -0
vn -0 1 -0
vn -0 1 -0
vn -0 1 -0
vn -0 1 -0
vn -0 1 -0
vn -0 1 -0
vn -0 1 -0
vn -0 1 -0
vn -0 1 -0
vn -0 1 -0
vn -0 1 -0
vn -0 1 -0
vn -0 1 -0
g polySurface40_0
f 3/3/3 2/2/2 1/1/1
f 1/1/1 4/4/4 3/3/3
f 1/1/1 5/5/5 4/4/4
f 1/1/1 6/6/6 5/5/5
f 1/1/1 7/7/7 6/6/6
f 1/1/1 8/8/8 7/7/7
f 1/1/1 9/9/9 8/8/8
f 1/1/1 10/10/10 9/9/9
f 10/10/10 11/11/11 9/9/9
f 11/11/11 12/12/12 9/9/9
f 12/12/12 13/13/13 9/9/9
f 12/12/12 14/14/14 13/13/13
f 14/14/14 15/15/15 13/13/13
f 14/14/14 16/16/16 15/15/15
f 16/16/16 17/17/17 15/15/15
f 16/16/16 18/18/18 17/17/17
f 18/18/18 19/19/19 17/17/17
f 19/19/19 20/20/20 17/17/17
f 19/19/19 21/21/21 20/20/20
f 21/21/21 22/22/22 20/20/20
