g polySurface6
v 0.893392348 0.092025111 0.894634694
v 0.893301459 -0.00555927177 0.894634694
v 0.897724718 -0.00555927177 0.890211435
v 0.897724718 0.092025111 0.890302324
v 0.897724718 -0.00555927177 -0.890211236
v 0.902238867 0.0963574819 0.894634694
v 0.897724718 0.0963574819 0.899088251
v 0.985099248 0.0963574819 0.986583965
v 0.897724718 0.092025111 -0.890302125
v 0.893301459 -0.00555927177 -0.894634496
v 0.902178275 0.0963574819 -0.894634496
v 0.989673989 0.0963574819 0.982009224
v 0.893392348 0.092025111 -0.894634496
v -0.887121212 -0.00555927177 -0.894634496
v 0.897724718 0.0963574819 -0.899148645
v -0.887212101 0.092025111 -0.894634496
v -0.891544472 -0.00555927177 -0.890211236
v 0.994279027 0.0921159999 0.986947521
v 0.989946656 0.092025111 0.991189003
v 0.989855767 -0.181732257 0.991189003
v 0.994279027 -0.181732257 0.986765743
v 0.994279027 -0.181732257 -0.986765545
v 0.989673989 0.0963574819 -0.982009025
v 0.994279027 0.092025111 -0.986856433
v 0.990037545 0.0921159999 -0.991188804
v 0.989855767 -0.181732257 -0.991188804
v 0.985099248 0.0963574819 -0.986583767
v -0.983766409 0.092025111 -0.991188804
v -0.983675521 -0.181732257 -0.991188804
v -0.98809878 0.0921159999 -0.986947322
v -0.98809878 -0.181732257 -0.986765545
v -0.978919001 0.0963574819 -0.986583767
v -0.98809878 -0.181732257 0.986765743
v -0.891544472 0.0963574819 -0.899088052
v -0.896058621 0.0963574819 -0.894634496
v -0.983493743 0.0963574819 -0.982009025
v -0.98809878 0.092025111 0.986856632
v -0.983857298 0.0921159999 0.991189003
v -0.983675521 -0.181732257 0.991189003
v 0.989855767 -0.181732257 0.991189003
v 0.989946656 0.092025111 0.991189003
v -0.978919001 0.0963574819 0.986583965
v 0.985099248 0.0963574819 0.986583965
v -0.983493743 0.0963574819 0.982009224
v 0.897724718 0.0963574819 0.899088251
v -0.891544472 0.092025111 -0.890302125
v -0.891544472 -0.00555927177 0.890211435
v -0.895998028 0.0963574819 0.894634694
v -0.891544472 0.0963574819 0.899148843
v -0.891544472 0.092025111 0.890302324
v -0.887121212 -0.00555927177 0.894634694
v -0.887212101 0.092025111 0.894634694
v 0.893392348 0.092025111 0.894634694
v 0.893301459 -0.00555927177 0.894634694
v -0.983493743 0.0963574819 0.982009224
v -0.978919001 0.0963574819 0.986583965
v -0.983857298 0.0921159999 0.991189003
v -0.98809878 0.092025111 0.986856632
v -0.978919001 0.0963574819 -0.986583767
v -0.983493743 0.0963574819 -0.982009025
v -0.98809878 0.0921159999 -0.986947322
v -0.983766409 0.092025111 -0.991188804
v 0.989673989 0.0963574819 -0.982009025
v 0.985099248 0.0963574819 -0.986583767
v 0.990037545 0.0921159999 -0.991188804
v 0.994279027 0.092025111 -0.986856433
v 0.893301459 -0.00998253159 -0.890211236
v -0.887121212 -0.00555927177 -0.894634496
v 0.893301459 -0.00555927177 -0.894634496
v 0.897724718 -0.00555927177 -0.890211236
v -0.887121212 -0.00998253159 -0.890211236
v -0.891544472 -0.00555927177 -0.890211236
v -0.891544472 -0.00555927177 0.890211435
v -0.887121212 -0.00998253159 0.890211435
v -0.887121212 -0.00555927177 0.894634694
v 0.893301459 -0.00555927177 0.894634694
v 0.893301459 -0.00998253159 0.890211435
v 0.897724718 -0.00555927177 0.890211435
vt 0.553204228 0.494735536
vt 0.552434903 0.482426337
vt 0.551665578 0.482426337
vt 0.552434903 0.494735536
vt 0.337793256 0.45934659
vt 0.552434903 0.495504861
vt 0.553204228 0.495504861
vt 0.562436127 0.507814059
vt 0.332407982 0.470117139
vt 0.338562581 0.460115915
vt 0.331638657 0.470886464
vt 0.561666802 0.507814059
vt 0.330100007 0.469347814
vt 0.241627644 0.277785914
vt 0.330100007 0.470117139
vt 0.229318445 0.279324564
vt 0.241627644 0.278555239
vt 0.562436127 0.508583384
vt 0.563205452 0.508583384
vt 0.563974777 0.544741654
vt 0.563205452 0.544741654
vt 0.305481611 0.510891359
vt 0.323176083 0.481657012
vt 0.322406758 0.482426337
vt 0.322406758 0.482426337
vt 0.303942961 0.510122034
vt 0.323176083 0.481657012
vt 0.213931948 0.277785914
vt 0.178543002 0.279324564
vt 0.213931948 0.278555239
vt 0.178543002 0.277016589
vt 0.214701272 0.277785914
vt 0.304712286 0.0469884444
vt 0.228549121 0.279324564
vt 0.228549121 0.277016589
vt 0.214701272 0.278555239
vt 0.323945408 0.0746841407
vt 0.323176083 0.0754534656
vt 0.306250935 0.0462191195
vt 0.560897477 0.00390625
vt 0.563974777 0.0385258705
vt 0.323945408 0.0762227905
vt 0.563205452 0.0392951954
vt 0.323945408 0.0754534656
vt 0.553973553 0.0523737187
vt 0.229318445 0.277016589
vt 0.339331906 0.0977638877
vt 0.330869332 0.087762664
vt 0.332407982 0.0862240142
vt 0.330869332 0.0885319889
vt 0.338562581 0.0977638877
vt 0.333177307 0.0869933391
vt 0.553204228 0.0531430436
vt 0.553973553 0.0654522419
vt 0.323945408 0.0754534656
vt 0.323945408 0.0762227905
vt 0.323176083 0.0754534656
vt 0.323945408 0.0746841407
vt 0.214701272 0.277785914
vt 0.214701272 0.278555239
vt 0.213931948 0.278555239
vt 0.213931948 0.277785914
vt 0.323176083 0.481657012
vt 0.323176083 0.481657012
vt 0.322406758 0.482426337
vt 0.322406758 0.482426337
vt 0.790156297 0.261630091
vt 0.790925622 0.478579713
vt 0.790925622 0.261630091
vt 0.790156297 0.260860766
vt 0.790156297 0.478579713
vt 0.790156297 0.479349038
vt 0.573206675 0.479349038
vt 0.573206675 0.478579713
vt 0.572437351 0.478579713
vt 0.572437351 0.261630091
vt 0.573206675 0.261630091
vt 0.573206675 0.260860766
vn -0.00392153871 0.0588230806 -0.998260721
vn -0.00392153871 0.0431369258 -0.999061473
vn -0.999070885 0.0430971754 -0
vn -0.998274373 0.058722022 -0
vn -0.999070885 0.0430971754 -0
vn -0.0196040749 0.999807822 -0
vn -0.00392153847 0.999992311 -0
vn 0.00392153871 0.992149293 0.124997606
vn -0.998274373 0.058722022 -0
vn -0.00392153871 0.0431369258 0.999061473
vn -0.0196040749 0.999807822 -0
vn 0.1215677 0.992149293 0.0293440684
vn -0.00392153871 0.0588230806 0.998260721
vn 0.00392153871 0.0431369258 0.999061473
vn -0.00392153847 0.999992311 -0
vn 0.00392153871 0.0588230806 0.998260721
vn 0.999070885 0.0430971754 -0
vn 0.999930803 0.0117638918 -0
vn 0.00392153871 0.0117646161 0.999923105
vn 0.00392153871 0.00392153871 0.999984621
vn 0.999992311 0.00392153847 -0
vn 0.999992311 0.00392153847 -0
vn 0.1215677 0.992149293 -0.0293440684
vn 0.999930803 0.0117638918 -0
vn 0.00392153871 0.0117646161 -0.999923105
vn 0.00392153871 0.00392153871 -0.999984621
vn 0.00392153871 0.992149293 -0.124997606
vn -0.00392153871 0.0117646161 -0.999923105
vn -0.00392153871 0.00392153871 -0.999984621
vn -0.999930803 0.0117638918 -0
vn -0.999992311 0.00392153847 -0
vn -0.00392153871 0.992149293 -0.124997606
vn -0.999992311 0.00392153847 -0
vn 0.00392153847 0.999992311 -0
vn 0.0196040749 0.999807822 -0
vn -0.1215677 0.992149293 -0.0293440684
vn -0.999930803 0.0117638918 -0
vn -0.00392153871 0.0117646161 0.999923105
vn -0.00392153871 0.00392153871 0.999984621
vn 0.00392153871 0.00392153871 0.999984621
vn 0.00392153871 0.0117646161 0.999923105
vn -0.00392153871 0.992149293 0.124997606
vn 0.00392153871 0.992149293 0.124997606
vn -0.1215677 0.992149293 0.0293440684
vn -0.00392153847 0.999992311 -0
vn 0.998274373 0.058722022 -0
vn 0.999070885 0.0430971754 -0
vn 0.0196040749 0.999807822 -0
vn 0.00392153847 0.999992311 -0
vn 0.998274373 0.058722022 -0
vn 0.00392153871 0.0431369258 -0.999061473
vn 0.00392153871 0.0588230806 -0.998260721
vn -0.00392153871 0.0588230806 -0.998260721
vn -0.00392153871 0.0431369258 -0.999061473
vn -0.1215677 0.992149293 0.0293440684
vn -0.00392153871 0.992149293 0.124997606
vn -0.00392153871 0.0117646161 0.999923105
vn -0.999930803 0.0117638918 -0
vn -0.00392153871 0.992149293 -0.124997606
vn -0.1215677 0.992149293 -0.0293440684
vn -0.999930803 0.0117638918 -0
vn -0.00392153871 0.0117646161 -0.999923105
vn 0.1215677 0.992149293 -0.0293440684
vn 0.00392153871 0.992149293 -0.124997606
vn 0.00392153871 0.0117646161 -0.999923105
vn 0.999930803 0.0117638918 -0
vn -0.00392153847 0.999992311 -0
vn 0.00392153871 0.0431369258 0.999061473
vn -0.00392153871 0.0431369258 0.999061473
vn -0.999070885 0.0430971754 -0
vn 0.00392153847 0.999992311 -0
vn 0.999070885 0.0430971754 -0
vn 0.999070885 0.0430971754 -0
vn 0.00392153847 0.999992311 -0
vn 0.00392153871 0.0431369258 -0.999061473
vn -0.00392153871 0.0431369258 -0.999061473
vn -0.00392153847 0.999992311 -0
vn -0.999070885 0.0430971754 -0
g polySurface6_0
f 3/3/3 2/2/2 1/1/1
f 4/4/4 3/3/3 1/1/1
f 5/5/5 3/3/3 4/4/4
f 6/6/6 4/4/4 1/1/1
f 7/7/7 6/6/6 1/1/1
f 6/6/6 7/7/7 8/8/8
f 9/9/9 5/5/5 4/4/4
f 10/10/10 5/5/5 9/9/9
f 6/6/6 11/11/11 4/4/4
f 11/11/11 9/9/9 4/4/4
f 12/12/12 6/6/6 8/8/8
f 11/11/11 6/6/6 12/12/12
f 13/13/13 10/10/10 9/9/9
f 14/14/14 10/10/10 13/13/13
f 11/11/11 15/15/15 9/9/9
f 15/15/15 13/13/13 9/9/9
f 16/16/16 14/14/14 13/13/13
f 17/17/17 14/14/14 16/16/16
f 18/18/18 12/12/12 8/8/8
f 19/19/19 18/18/18 8/8/8
f 19/19/19 20/20/20 18/18/18
f 20/20/20 21/21/21 18/18/18
f 21/21/21 22/22/22 18/18/18
f 23/23/23 11/11/11 12/12/12
f 15/15/15 11/11/11 23/23/23
f 18/18/18 24/24/24 12/12/12
f 24/24/24 23/23/23 12/12/12
f 22/22/22 24/24/24 18/18/18
f 24/24/24 22/22/22 25/25/25
f 22/22/22 26/26/26 25/25/25
f 27/27/27 15/15/15 23/23/23
f 25/25/25 26/26/26 28/28/28
f 27/27/27 25/25/25 28/28/28
f 26/26/26 29/29/29 28/28/28
f 28/28/28 29/29/29 30/30/30
f 29/29/29 31/31/31 30/30/30
f 32/32/32 27/27/27 28/28/28
f 31/31/31 33/33/33 30/30/30
f 34/34/34 15/15/15 27/27/27
f 32/32/32 34/34/34 27/27/27
f 15/15/15 34/34/34 13/13/13
f 34/34/34 16/16/16 13/13/13
f 35/35/35 34/34/34 32/32/32
f 34/34/34 35/35/35 16/16/16
f 36/36/36 35/35/35 32/32/32
f 33/33/33 37/37/37 30/30/30
f 36/36/36 30/30/30 37/37/37
f 37/37/37 33/33/33 38/38/38
f 33/33/33 39/39/39 38/38/38
f 39/39/39 40/40/40 38/38/38
f 40/40/40 41/41/41 38/38/38
f 38/38/38 41/41/41 42/42/42
f 41/41/41 43/43/43 42/42/42
f 44/44/44 36/36/36 37/37/37
f 43/43/43 45/45/45 42/42/42
f 35/35/35 46/46/46 16/16/16
f 46/46/46 17/17/17 16/16/16
f 47/47/47 17/17/17 46/46/46
f 48/48/48 35/35/35 36/36/36
f 44/44/44 48/48/48 36/36/36
f 46/46/46 35/35/35 48/48/48
f 42/42/42 49/49/49 44/44/44
f 45/45/45 49/49/49 42/42/42
f 49/49/49 48/48/48 44/44/44
f 50/50/50 47/47/47 46/46/46
f 50/50/50 46/46/46 48/48/48
f 48/48/48 49/49/49 50/50/50
f 51/51/51 47/47/47 50/50/50
f 49/49/49 45/45/45 52/52/52
f 49/49/49 52/52/52 50/50/50
f 52/52/52 51/51/51 50/50/50
f 45/45/45 53/53/53 52/52/52
f 54/54/54 51/51/51 52/52/52
f 53/53/53 54/54/54 52/52/52
f 57/57/57 56/56/56 55/55/55
f 58/58/58 57/57/57 55/55/55
f 61/61/61 60/60/60 59/59/59
f 62/62/62 61/61/61 59/59/59
f 65/65/65 64/64/64 63/63/63
f 66/66/66 65/65/65 63/63/63
f 69/69/69 68/68/68 67/67/67
f 70/70/70 69/69/69 67/67/67
f 68/68/68 71/71/71 67/67/67
f 68/68/68 72/72/72 71/71/71
f 71/71/71 72/72/72 73/73/73
f 74/74/74 71/71/71 73/73/73
f 67/67/67 71/71/71 74/74/74
f 75/75/75 74/74/74 73/73/73
f 75/75/75 76/76/76 74/74/74
f 70/70/70 67/67/67 77/77/77
f 77/77/77 67/67/67 74/74/74
f 76/76/76 77/77/77 74/74/74
f 78/78/78 70/70/70 77/77/77
f 76/76/76 78/78/78 77/77/77
