g polySurface1
v 0.00995177849 -0.00120561496 0.000980086681
v 0.00995177849 0.000482337537 0.000980086681
v 0.00999999698 -0.00120561496 1.52590173E-07
v 0.00980773336 0.000482337537 0.00195086536
v 0.00980773336 -0.00120561496 0.00195086536
v 0.00999999698 0.000482337537 1.52590173E-07
v 0.00995177849 -0.00120561496 -0.000980086681
v 0.00956938751 0.000482337537 0.00290272286
v 0.00956938751 -0.00120561496 0.00290272286
v 0.00995177849 0.000482337537 -0.000980086681
v 0.00980773336 -0.00120561496 -0.00195086536
v 0.0092388772 0.000482337537 0.00382680895
v 0.0092388772 -0.00120561496 0.00382680895
v 0.00980773336 0.000482337537 -0.00195086536
v 0.00956938751 -0.00120561496 -0.00290272286
v 0.00881925422 0.000482337537 0.00471396821
v 0.00881925422 -0.00120561496 0.00471396821
v 0.00956938751 0.000482337537 -0.00290272286
v 0.0092388772 -0.00120561496 -0.00382680895
v 0.00831479111 0.000482337537 0.00555565561
v 0.00831479111 -0.00120561496 0.00555565561
v 0.0092388772 0.000482337537 -0.00382680895
v 0.00881925422 -0.00120561496 -0.00471396821
v 0.00773006557 0.000482337537 0.00634393644
v 0.00773006557 -0.00120561496 0.00634393644
v 0.00881925422 0.000482337537 -0.00471396821
v 0.00831479111 -0.00120561496 -0.00555565561
v 0.0070711812 0.000482337537 0.0070711812
v 0.0070711812 -0.00120561496 0.0070711812
v 0.00831479111 0.000482337537 -0.00555565561
v 0.00773006557 -0.00120561496 -0.00634393644
v 0.00634393644 0.000482337537 0.00773006557
v 0.00634393644 -0.00120561496 0.00773006557
v 0.00773006557 0.000482337537 -0.00634393644
v 0.0070711812 -0.00120561496 -0.0070711812
v 0.00555565561 0.000482337537 0.00831479111
v 0.00555565561 -0.00120561496 0.00831479111
v 0.0070711812 0.000482337537 -0.0070711812
v 0.00634393644 -0.00120561496 -0.00773006557
v 0.00471396821 0.000482337537 0.00881925422
v 0.00471396821 -0.00120561496 0.00881925422
v 0.00634393644 0.000482337537 -0.00773006557
v 0.00555565561 -0.00120561496 -0.00831479111
v 0.00382680895 0.000482337537 0.0092388772
v 0.00382680895 -0.00120561496 0.0092388772
v 0.00555565561 0.000482337537 -0.00831479111
v 0.00471396821 -0.00120561496 -0.00881925422
v 0.00290272286 0.000482337537 0.00956938751
v 0.00290272286 -0.00120561496 0.00956938751
v 0.00471396821 0.000482337537 -0.00881925422
v 0.00382680895 -0.00120561496 -0.0092388772
v 0.00195086536 0.000482337537 0.00980773336
v 0.00195086536 -0.00120561496 0.00980773336
v 0.00382680895 0.000482337537 -0.0092388772
v 0.00290272286 -0.00120561496 -0.00956938751
v 0.000980086681 0.000482337537 0.00995177849
v 0.000980086681 -0.00120561496 0.00995177849
v 0.00290272286 0.000482337537 -0.00956938751
v 0.00195086536 -0.00120561496 -0.00980773336
v -1.52590173E-07 0.000482337537 0.00999999698
v -1.52590173E-07 -0.00120561496 0.00999999698
v 0.00195086536 0.000482337537 -0.00980773336
v 0.000980086681 -0.00120561496 -0.00995177849
v -0.000980086681 0.000482337537 0.00995177849
v -0.000980086681 -0.00120561496 0.00995177849
v 0.000980086681 0.000482337537 -0.00995177849
v 1.52590173E-07 -0.00120561496 -0.00999999698
v -0.00195086536 0.000482337537 0.00980773336
v -0.00195086536 -0.00120561496 0.00980773336
v 1.52590173E-07 0.000482337537 -0.00999999698
v -0.000980086681 -0.00120561496 -0.00995177849
v -0.00290272286 0.000482337537 0.00956938751
v -0.00290272286 -0.00120561496 0.00956938751
v -0.000980086681 0.000482337537 -0.00995177849
v -0.00195086536 -0.00120561496 -0.00980773336
v -0.00382680895 0.000482337537 0.0092388772
v -0.00382680895 -0.00120561496 0.0092388772
v -0.00195086536 0.000482337537 -0.00980773336
v -0.00290272286 -0.00120561496 -0.00956938751
v -0.00471396821 0.000482337537 0.00881925422
v -0.00471396821 -0.00120561496 0.00881925422
v -0.00290272286 0.000482337537 -0.00956938751
v -0.00382680895 -0.00120561496 -0.0092388772
v -0.00555565561 0.000482337537 0.00831479111
v -0.00555565561 -0.00120561496 0.00831479111
v -0.00382680895 0.000482337537 -0.0092388772
v -0.00471396821 -0.00120561496 -0.00881925422
v -0.00634393644 0.000482337537 0.00773006557
v -0.00634393644 -0.00120561496 0.00773006557
v -0.00471396821 0.000482337537 -0.00881925422
v -0.00555565561 -0.00120561496 -0.00831479111
v -0.0070711812 0.000482337537 0.0070711812
v -0.0070711812 -0.00120561496 0.0070711812
v -0.00555565561 0.000482337537 -0.00831479111
v -0.00634393644 -0.00120561496 -0.00773006557
v -0.00773006557 0.000482337537 0.00634393644
v -0.00773006557 -0.00120561496 0.00634393644
v -0.00634393644 0.000482337537 -0.00773006557
v -0.0070711812 -0.00120561496 -0.0070711812
v -0.00831479111 0.000482337537 0.00555565561
v -0.00831479111 -0.00120561496 0.00555565561
v -0.0070711812 0.000482337537 -0.0070711812
v -0.00773006557 -0.00120561496 -0.00634393644
v -0.00881925422 0.000482337537 0.00471396821
v -0.00881925422 -0.00120561496 0.00471396821
v -0.00773006557 0.000482337537 -0.00634393644
v -0.00831479111 -0.00120561496 -0.00555565561
v -0.0092388772 0.000482337537 0.00382680895
v -0.0092388772 -0.00120561496 0.00382680895
v -0.00831479111 0.000482337537 -0.00555565561
v -0.00881925422 -0.00120561496 -0.00471396821
v -0.00956938751 0.000482337537 0.00290272286
v -0.00956938751 -0.00120561496 0.00290272286
v -0.00881925422 0.000482337537 -0.00471396821
v -0.0092388772 -0.00120561496 -0.00382680895
v -0.00980773336 0.000482337537 0.00195086536
v -0.00980773336 -0.00120561496 0.00195086536
v -0.0092388772 0.000482337537 -0.00382680895
v -0.00956938751 -0.00120561496 -0.00290272286
v -0.00995177849 0.000482337537 0.000980086681
v -0.00995177849 -0.00120561496 0.000980086681
v -0.00956938751 0.000482337537 -0.00290272286
v -0.00980773336 -0.00120561496 -0.00195086536
v -0.00999999698 0.000482337537 -1.52590173E-07
v -0.00999999698 -0.00120561496 -1.52590173E-07
v -0.00980773336 0.000482337537 -0.00195086536
v -0.00995177849 -0.00120561496 -0.000980086681
v -0.00995177849 0.000482337537 -0.000980086681
v -0.00920591772 0.00070603473 -0.00381338101
v -0.0095355125 0.00070603473 -0.00289265191
v -0.00977294281 0.00070603473 -0.00194384621
v -0.00991668275 0.00070603473 -0.000976729697
v -0.00996459606 0.00070603473 -1.52590173E-07
v -0.00991668275 0.00070603473 0.000976729697
v -0.00878782065 0.00070603473 -0.00469718329
v -0.00977294281 0.00070603473 0.00194384621
v -0.00828518862 0.00070603473 -0.00553612406
v -0.0095355125 0.00070603473 0.00289265191
v -0.00770259934 0.00070603473 -0.00632135309
v -0.00920591772 0.00070603473 0.00381338101
v -0.00704585123 0.00070603473 -0.00704585123
v -0.00878782065 0.00070603473 0.00469718329
v -0.00632135309 0.00070603473 -0.00770259934
v -0.00828518862 0.00070603473 0.00553612406
v -0.00553612406 0.00070603473 -0.00828518862
v -0.00770259934 0.00070603473 0.00632135309
v -0.00469718329 0.00070603473 -0.00878782065
v -0.00704585123 0.00070603473 0.00704585123
v -0.00381338101 0.00070603473 -0.00920591772
v -0.00632135309 0.00070603473 0.00770259934
v -0.00289265191 0.00070603473 -0.0095355125
v -0.00553612406 0.00070603473 0.00828518862
v -0.00194384621 0.00070603473 -0.00977294281
v -0.00469718329 0.00070603473 0.00878782065
v -0.000976729697 0.00070603473 -0.00991668275
v -0.00381338101 0.00070603473 0.00920591772
v 1.52590173E-07 0.00070603473 -0.00996459606
v -0.00289265191 0.00070603473 0.0095355125
v 0.000976729697 0.00070603473 -0.00991668275
v -0.00194384621 0.00070603473 0.00977294281
v 0.00194384621 0.00070603473 -0.00977294281
v -0.000976729697 0.00070603473 0.00991668275
v 0.00289265191 0.00070603473 -0.0095355125
v -1.52590173E-07 0.00070603473 0.00996459606
v 0.00381338101 0.00070603473 -0.00920591772
v 0.000976729697 0.00070603473 0.00991668275
v 0.00469718329 0.00070603473 -0.00878782065
v 0.00194384621 0.00070603473 0.00977294281
v 0.00553612406 0.00070603473 -0.00828518862
v 0.00289265191 0.00070603473 0.0095355125
v 0.00632135309 0.00070603473 -0.00770259934
v 0.00381338101 0.00070603473 0.00920591772
v 0.00704585123 0.00070603473 -0.00704585123
v 0.00469718329 0.00070603473 0.00878782065
v 0.00770259934 0.00070603473 -0.00632135309
v 0.00553612406 0.00070603473 0.00828518862
v 0.00828518862 0.00070603473 -0.00553612406
v 0.00632135309 0.00070603473 0.00770259934
v 0.00878782065 0.00070603473 -0.00469718329
v 0.00704585123 0.00070603473 0.00704585123
v 0.00920591772 0.00070603473 -0.00381338101
v 0.00770259934 0.00070603473 0.00632135309
v 0.0095355125 0.00070603473 -0.00289265191
v 0.00828518862 0.00070603473 0.00553612406
v 0.00977294281 0.00070603473 -0.00194384621
v 0.00878782065 0.00070603473 0.00469718329
v 0.00991668275 0.00070603473 -0.000976729697
v 0.00920591772 0.00070603473 0.00381338101
v 0.00996459606 0.00070603473 1.52590173E-07
v 0.0095355125 0.00070603473 0.00289265191
v 0.00991668275 0.00070603473 0.000976729697
v 0.00977294281 0.00070603473 0.00194384621
v 0.00967223329 0.000907453758 -0.00192400949
v 0.00981414215 0.000907453758 -0.000966658745
v 0.00986175029 0.000907453758 1.52590173E-07
v 0.00981414215 0.000907453758 0.000966658745
v 0.00967223329 0.000907453758 0.00192400949
v 0.00943693924 0.000907453758 0.00286274423
v 0.00943693924 0.000907453758 -0.00286274423
v 0.00911100664 0.000907453758 0.00377401275
v 0.00911100664 0.000907453758 -0.00377401275
v 0.00869718209 0.000907453758 0.00464865962
v 0.00869718209 0.000907453758 -0.00464865962
v 0.00819973812 0.000907453758 0.00547875016
v 0.00819973812 0.000907453758 -0.00547875016
v 0.00762325245 0.000907453758 0.0062560445
v 0.00762325245 0.000907453758 -0.0062560445
v 0.00697321831 0.000907453758 0.00697321831
v 0.00697321831 0.000907453758 -0.00697321831
v 0.0062560445 0.000907453758 0.00762325245
v 0.0062560445 0.000907453758 -0.00762325245
v 0.00547875016 0.000907453758 0.00819973812
v 0.00547875016 0.000907453758 -0.00819973812
v 0.00464865962 0.000907453758 0.00869718209
v 0.00464865962 0.000907453758 -0.00869718209
v 0.00377401275 0.000907453758 0.00911100664
v 0.00377401275 0.000907453758 -0.00911100664
v 0.00286274423 0.000907453758 0.00943693924
v 0.00286274423 0.000907453758 -0.00943693924
v 0.00192400949 0.000907453758 0.00967223329
v 0.00192400949 0.000907453758 -0.00967223329
v 0.000966658745 0.000907453758 0.00981414215
v 0.000966658745 0.000907453758 -0.00981414215
v -1.52590173E-07 0.000907453758 0.00986175029
v 1.52590173E-07 0.000907453758 -0.00986175029
v -0.000966658745 0.000907453758 0.00981414215
v -0.000966658745 0.000907453758 -0.00981414215
v -0.00192400949 0.000907453758 0.00967223329
v -0.00192400949 0.000907453758 -0.00967223329
v -0.00286274423 0.000907453758 0.00943693924
v -0.00286274423 0.000907453758 -0.00943693924
v -0.00377401275 0.000907453758 0.00911100664
v -0.00377401275 0.000907453758 -0.00911100664
v -0.00464865962 0.000907453758 0.00869718209
v -0.00464865962 0.000907453758 -0.00869718209
v -0.00547875016 0.000907453758 0.00819973812
v -0.00547875016 0.000907453758 -0.00819973812
v -0.0062560445 0.000907453758 0.00762325245
v -0.0062560445 0.000907453758 -0.00762325245
v -0.00697321831 0.000907453758 0.00697321831
v -0.00697321831 0.000907453758 -0.00697321831
v -0.00762325245 0.000907453758 0.0062560445
v -0.00762325245 0.000907453758 -0.0062560445
v -0.00819973812 0.000907453758 0.00547875016
v -0.00819973812 0.000907453758 -0.00547875016
v -0.00869718209 0.000907453758 0.00464865962
v -0.00869718209 0.000907453758 -0.00464865962
v -0.00911100664 0.000907453758 0.00377401275
v -0.00911100664 0.000907453758 -0.00377401275
v -0.00943693924 0.000907453758 0.00286274423
v -0.00943693924 0.000907453758 -0.00286274423
v -0.00967223329 0.000907453758 0.00192400949
v -0.00967223329 0.000907453758 -0.00192400949
v -0.00981414215 0.000907453758 0.000966658745
v -0.00981414215 0.000907453758 -0.000966658745
v -0.00986175029 0.000907453758 -1.52590173E-07
v -0.00928373871 0.00106767344 -0.00281605164
v -0.00951506541 0.00106767344 -0.00189257591
v -0.00965483801 0.00106767344 -0.000950789367
v -0.0097015306 0.00106767344 -1.52590173E-07
v -0.00965483801 0.00106767344 0.000950789367
v -0.00951506541 0.00106767344 0.00189257591
v -0.00896299417 0.00106767344 -0.0037126715
v -0.00928373871 0.00106767344 0.00281605164
v -0.00855588359 0.00106767344 -0.00457328007
v -0.00896299417 0.00106767344 0.0037126715
v -0.00806637431 0.00106767344 -0.00538994268
v -0.00855588359 0.00106767344 0.00457328007
v -0.00749934923 0.00106767344 -0.00615441944
v -0.00806637431 0.00106767344 0.00538994268
v -0.0068599964 0.00106767344 -0.0068599964
v -0.00749934923 0.00106767344 0.00615441944
v -0.00615441944 0.00106767344 -0.00749934923
v -0.0068599964 0.00106767344 0.0068599964
v -0.00538994268 0.00106767344 -0.00806637431
v -0.00615441944 0.00106767344 0.00749934923
v -0.00457328007 0.00106767344 -0.00855588359
v -0.00538994268 0.00106767344 0.00806637431
v -0.0037126715 0.00106767344 -0.00896299417
v -0.00457328007 0.00106767344 0.00855588359
v -0.00281605164 0.00106767344 -0.00928373871
v -0.0037126715 0.00106767344 0.00896299417
v -0.00189257591 0.00106767344 -0.00951506541
v -0.00281605164 0.00106767344 0.00928373871
v -0.000950789367 0.00106767344 -0.00965483801
v -0.00189257591 0.00106767344 0.00951506541
v 1.52590173E-07 0.00106767344 -0.0097015306
v -0.000950789367 0.00106767344 0.00965483801
v 0.000950789367 0.00106767344 -0.00965483801
v -1.52590173E-07 0.00106767344 0.0097015306
v 0.00189257591 0.00106767344 -0.00951506541
v 0.000950789367 0.00106767344 0.00965483801
v 0.00281605164 0.00106767344 -0.00928373871
v 0.00189257591 0.00106767344 0.00951506541
v 0.0037126715 0.00106767344 -0.00896299417
v 0.00281605164 0.00106767344 0.00928373871
v 0.00457328007 0.00106767344 -0.00855588359
v 0.0037126715 0.00106767344 0.00896299417
v 0.00538994268 0.00106767344 -0.00806637431
v 0.00457328007 0.00106767344 0.00855588359
v 0.00615441944 0.00106767344 -0.00749934923
v 0.00538994268 0.00106767344 0.00806637431
v 0.0068599964 0.00106767344 -0.0068599964
v 0.00615441944 0.00106767344 0.00749934923
v 0.00749934923 0.00106767344 -0.00615441944
v 0.0068599964 0.00106767344 0.0068599964
v 0.00806637431 0.00106767344 -0.00538994268
v 0.00749934923 0.00106767344 0.00615441944
v 0.00855588359 0.00106767344 -0.00457328007
v 0.00806637431 0.00106767344 0.00538994268
v 0.00896299417 0.00106767344 -0.0037126715
v 0.00855588359 0.00106767344 0.00457328007
v 0.00928373871 0.00106767344 -0.00281605164
v 0.00896299417 0.00106767344 0.0037126715
v 0.00951506541 0.00106767344 -0.00189257591
v 0.00928373871 0.00106767344 0.00281605164
v 0.00965483801 0.00106767344 -0.000950789367
v 0.00951506541 0.00106767344 0.00189257591
v 0.0097015306 0.00106767344 1.52590173E-07
v 0.00965483801 0.00106767344 0.000950789367
v 0.00909055955 0.00117021404 -0.00275745701
v 0.00931700337 0.00117021404 -0.00185320765
v 0.00945372416 0.00117021404 -0.000931257825
v 0.00949950122 0.00117021404 1.52590173E-07
v 0.00945372416 0.00117021404 0.000931257825
v 0.00931700337 0.00117021404 0.00185320765
v 0.00877652898 0.00117021404 -0.00363546087
v 0.00909055955 0.00117021404 0.00275745701
v 0.00837796344 0.00117021404 -0.0044780638
v 0.00877652898 0.00117021404 0.00363546087
v 0.00789852512 0.00117021404 -0.00527763631
v 0.00837796344 0.00117021404 0.0044780638
v 0.00734340207 0.00117021404 -0.00602654888
v 0.00789852512 0.00117021404 0.00527763631
v 0.006717172 0.00117021404 -0.006717172
v 0.00734340207 0.00117021404 0.00602654888
v 0.00602654888 0.00117021404 -0.00734340207
v 0.006717172 0.00117021404 0.006717172
v 0.00527763631 0.00117021404 -0.00789852512
v 0.00602654888 0.00117021404 0.00734340207
v 0.0044780638 0.00117021404 -0.00837796344
v 0.00527763631 0.00117021404 0.00789852512
v 0.00363546087 0.00117021404 -0.00877652898
v 0.0044780638 0.00117021404 0.00837796344
v 0.00275745701 0.00117021404 -0.00909055955
v 0.00363546087 0.00117021404 0.00877652898
v 0.00185320765 0.00117021404 -0.00931700337
v 0.00275745701 0.00117021404 0.00909055955
v 0.000931257825 0.00117021404 -0.00945372416
v 0.00185320765 0.00117021404 0.00931700337
v 1.52590173E-07 0.00117021404 -0.00949950122
v 0.000931257825 0.00117021404 0.00945372416
v -0.000931257825 0.00117021404 -0.00945372416
v -1.52590173E-07 0.00117021404 0.00949950122
v -0.00185320765 0.00117021404 -0.00931700337
v -0.000931257825 0.00117021404 0.00945372416
v -0.00275745701 0.00117021404 -0.00909055955
v -0.00185320765 0.00117021404 0.00931700337
v -0.00363546087 0.00117021404 -0.00877652898
v -0.00275745701 0.00117021404 0.00909055955
v -0.0044780638 0.00117021404 -0.00837796344
v -0.00363546087 0.00117021404 0.00877652898
v -0.00527763631 0.00117021404 -0.00789852512
v -0.0044780638 0.00117021404 0.00837796344
v -0.00602654888 0.00117021404 -0.00734340207
v -0.00527763631 0.00117021404 0.00789852512
v -0.006717172 0.00117021404 -0.006717172
v -0.00602654888 0.00117021404 0.00734340207
v -0.00734340207 0.00117021404 -0.00602654888
v -0.006717172 0.00117021404 0.006717172
v -0.00789852512 0.00117021404 -0.00527763631
v -0.00734340207 0.00117021404 0.00602654888
v -0.00837796344 0.00117021404 -0.0044780638
v -0.00789852512 0.00117021404 0.00527763631
v -0.00877652898 0.00117021404 -0.00363546087
v -0.00837796344 0.00117021404 0.0044780638
v -0.00909055955 0.00117021404 -0.00275745701
v -0.00877652898 0.00117021404 0.00363546087
v -0.00931700337 0.00117021404 -0.00185320765
v -0.00909055955 0.00117021404 0.00275745701
v -0.00945372416 0.00117021404 -0.000931257825
v -0.00931700337 0.00117021404 0.00185320765
v -0.00949950122 0.00117021404 -1.52590173E-07
v -0.00945372416 0.00117021404 0.000931257825
v -0.0090975787 0.00120561496 -0.00180956686
v -0.00923094251 0.00120561496 -0.00090928484
v -1.52590173E-07 0.00120561496 1.52590173E-07
v -0.00887632295 0.00120561496 -0.00269275878
v -0.00927580402 0.00120561496 -1.52590173E-07
v -0.0085696167 0.00120561496 -0.00354970519
v -0.00923094251 0.00120561496 0.00090928484
v -0.00818051176 0.00120561496 -0.00437247141
v -0.0090975787 0.00120561496 0.00180956686
v -0.00771236511 0.00120561496 -0.00515342791
v -0.00887632295 0.00120561496 0.00269275878
v -0.00717036482 0.00120561496 -0.00588433484
v -0.0085696167 0.00120561496 0.00354970519
v -0.00655908858 0.00120561496 -0.00655908858
v -0.00818051176 0.00120561496 0.00437247141
v -0.00588433484 0.00120561496 -0.00717036482
v -0.00771236511 0.00120561496 0.00515342791
v -0.00515342791 0.00120561496 -0.00771236511
v -0.00717036482 0.00120561496 0.00588433484
v -0.00437247141 0.00120561496 -0.00818051176
v -0.00655908858 0.00120561496 0.00655908858
v -0.00354970519 0.00120561496 -0.0085696167
v -0.00588433484 0.00120561496 0.00717036482
v -0.00269275878 0.00120561496 -0.00887632295
v -0.00515342791 0.00120561496 0.00771236511
v -0.00180956686 0.00120561496 -0.0090975787
v -0.00437247141 0.00120561496 0.00818051176
v -0.00090928484 0.00120561496 -0.00923094251
v -0.00354970519 0.00120561496 0.0085696167
v 1.52590173E-07 0.00120561496 -0.00927580402
v -0.00269275878 0.00120561496 0.00887632295
v 0.00090928484 0.00120561496 -0.00923094251
v -0.00180956686 0.00120561496 0.0090975787
v 0.00180956686 0.00120561496 -0.0090975787
v -0.00090928484 0.00120561496 0.00923094251
v 0.00269275878 0.00120561496 -0.00887632295
v -1.52590173E-07 0.00120561496 0.00927580402
v 0.00354970519 0.00120561496 -0.0085696167
v 0.00090928484 0.00120561496 0.00923094251
v 0.00437247141 0.00120561496 -0.00818051176
v 0.00180956686 0.00120561496 0.0090975787
v 0.00515342791 0.00120561496 -0.00771236511
v 0.00269275878 0.00120561496 0.00887632295
v 0.00588433484 0.00120561496 -0.00717036482
v 0.00354970519 0.00120561496 0.0085696167
v 0.00655908858 0.00120561496 -0.00655908858
v 0.00437247141 0.00120561496 0.00818051176
v 0.00717036482 0.00120561496 -0.00588433484
v 0.00515342791 0.00120561496 0.00771236511
v 0.00771236511 0.00120561496 -0.00515342791
v 0.00588433484 0.00120561496 0.00717036482
v 0.00818051176 0.00120561496 -0.00437247141
v 0.00655908858 0.00120561496 0.00655908858
v 0.0085696167 0.00120561496 -0.00354970519
v 0.00717036482 0.00120561496 0.00588433484
v 0.00887632295 0.00120561496 -0.0026924536
v 0.00771236511 0.00120561496 0.00515342791
v 0.0090975787 0.00120561496 -0.00180956686
v 0.00818051176 0.00120561496 0.00437247141
v 0.00923094251 0.00120561496 -0.00090928484
v 0.0085696167 0.00120561496 0.00354970519
v 0.00927580402 0.00120561496 1.52590173E-07
v 0.00887632295 0.00120561496 0.00269275878
v 0.00923094251 0.00120561496 0.00090928484
v 0.0090975787 0.00120561496 0.00180956686
vt 0.406436221 0.97952165
vt 0.419785965 0.912772931
vt 0.360665671 0.968079013
vt 0.459835196 0.91849425
vt 0.454113878 0.986196522
vt 0.379736734 0.9032374
vt 0.315848674 0.952822162
vt 0.500837981 0.920401356
vt 0.501791534 0.988103628
vt 0.340641056 0.889887656
vt 0.27198523 0.932797547
vt 0.541840765 0.917540697
vt 0.54946919 0.985242969
vt 0.303452484 0.8727237
vt 0.230982446 0.908005166
vt 0.58284355 0.911819378
vt 0.596193293 0.978568097
vt 0.268171018 0.851745531
vt 0.192840321 0.880352125
vt 0.621939228 0.901330294
vt 0.641963843 0.966171906
vt 0.235750212 0.82695315
vt 0.157558855 0.847931319
vt 0.661034906 0.887026997
vt 0.68678084 0.949961503
vt 0.205236512 0.800253662
vt 0.125138049 0.813603406
vt 0.697269925 0.869863041
vt 0.729690731 0.928983334
vt 0.177583471 0.769739962
vt 0.0965314552 0.775461281
vt 0.73255139 0.847931319
vt 0.770693515 0.904190953
vt 0.15279109 0.737319156
vt 0.071739074 0.734458497
vt 0.764972197 0.823138937
vt 0.80883564 0.875584359
vt 0.130859368 0.70203769
vt 0.0507609052 0.691548606
vt 0.795485897 0.795485897
vt 0.844117106 0.843163553
vt 0.113695412 0.664849118
vt 0.034550502 0.646731609
vt 0.823138937 0.764972197
vt 0.875584359 0.807882087
vt 0.0993921146 0.626706993
vt 0.0221543114 0.600961059
vt 0.846977765 0.73255139
vt 0.904190953 0.769739962
vt 0.0889030302 0.586657762
vt 0.0154794395 0.553283403
vt 0.867955934 0.697269925
vt 0.928029781 0.728737178
vt 0.0831817115 0.546608531
vt 0.0126187801 0.505605746
vt 0.885119891 0.660081353
vt 0.948054397 0.684873734
vt 0.0803210521 0.505605746
vt 0.0145258864 0.45792809
vt 0.898469634 0.620985675
vt 0.9642648 0.640056737
vt 0.0822281583 0.464602962
vt 0.0212007583 0.411203987
vt 0.908005166 0.580936443
vt 0.974753884 0.594286187
vt 0.0879494771 0.423600177
vt 0.0326433958 0.364479884
vt 0.913726484 0.540887212
vt 0.981428756 0.546608531
vt 0.0974850084 0.384504499
vt 0.0479002458 0.319662887
vt 0.915633591 0.499884428
vt 0.983335863 0.498930874
vt 0.110834752 0.345408821
vt 0.0679248615 0.276752996
vt 0.913726484 0.458881643
vt 0.981428756 0.451253218
vt 0.127998708 0.308220249
vt 0.0927172427 0.235750212
vt 0.907051612 0.417878859
vt 0.973800331 0.404529115
vt 0.148976877 0.272938784
vt 0.120370283 0.197608087
vt 0.896562528 0.378783181
vt 0.961404141 0.358758565
vt 0.173769258 0.239564424
vt 0.15279109 0.161373068
vt 0.883212784 0.339687502
vt 0.945193737 0.313941568
vt 0.200468746 0.209050724
vt 0.187119002 0.128952262
vt 0.865095275 0.303452484
vt 0.925169122 0.271031677
vt 0.230982446 0.181397683
vt 0.225261127 0.100345668
vt 0.844117106 0.268171018
vt 0.900376741 0.230028893
vt 0.263403252 0.156605302
vt 0.266263912 0.0755532865
vt 0.819324725 0.235750212
vt 0.871770147 0.191886768
vt 0.298684718 0.135627133
vt 0.309173802 0.0555286708
vt 0.791671684 0.205236512
vt 0.83934934 0.156605302
vt 0.33587329 0.117509624
vt 0.353990799 0.0393182677
vt 0.761157984 0.177583471
vt 0.803114322 0.125138049
vt 0.374015415 0.10415988
vt 0.399761349 0.026922077
vt 0.727783625 0.153744643
vt 0.764972197 0.0965314552
vt 0.414064646 0.0936707959
vt 0.447439006 0.019293652
vt 0.692502159 0.132766474
vt 0.723969412 0.0726926271
vt 0.454113878 0.086995924
vt 0.495116662 0.0173865458
vt 0.655313587 0.115602518
vt 0.681059522 0.0526680114
vt 0.495116662 0.0850888177
vt 0.542794318 0.019293652
vt 0.616217909 0.102252774
vt 0.636242525 0.0364576083
vt 0.536119446 0.086995924
vt 0.589518421 0.0259685239
vt 0.577122231 0.0927172427
vt 0.455067431 0.0965314552
vt 0.495116662 0.0936707959
vt 0.535165893 0.0955779021
vt 0.575215125 0.101299221
vt 0.614310803 0.110834752
vt 0.651499375 0.124184496
vt 0.415971752 0.102252774
vt 0.688687947 0.140394899
vt 0.376876074 0.112741858
vt 0.723015859 0.161373068
vt 0.338733949 0.126091602
vt 0.755436665 0.185211896
vt 0.303452484 0.143255558
vt 0.784996812 0.211911383
vt 0.269124571 0.164233727
vt 0.812649853 0.24147153
vt 0.236703765 0.188072555
vt 0.836488681 0.272938784
vt 0.207143618 0.215725596
vt 0.85746685 0.307266696
vt 0.18044413 0.245285743
vt 0.874630806 0.343501715
vt 0.156605302 0.277706549
vt 0.88798055 0.38164384
vt 0.136580687 0.312034462
vt 0.898469634 0.419785965
vt 0.11941673 0.349223034
vt 0.904190953 0.459835196
vt 0.106066986 0.386411606
vt 0.907051612 0.499884428
vt 0.0965314552 0.425507284
vt 0.905144506 0.539933659
vt 0.0908101365 0.465556515
vt 0.899423187 0.579029337
vt 0.0898565834 0.505605746
vt 0.889887656 0.618125015
vt 0.0917636896 0.545654978
vt 0.876537912 0.65626714
vt 0.0984385615 0.584750656
vt 0.860327509 0.692502159
vt 0.107974093 0.623846334
vt 0.83934934 0.726830072
vt 0.121323837 0.661988459
vt 0.815510512 0.759250878
vt 0.139441346 0.697269925
vt 0.788811025 0.789764578
vt 0.160419515 0.731597837
vt 0.759250878 0.816464065
vt 0.184258343 0.764018644
vt 0.727783625 0.840302894
vt 0.21095783 0.79357879
vt 0.693455712 0.861281062
vt 0.24147153 0.820278278
vt 0.657220693 0.879398572
vt 0.273892337 0.844117106
vt 0.619078568 0.892748316
vt 0.308220249 0.864141722
vt 0.580936443 0.902283847
vt 0.344455268 0.881305678
vt 0.540887212 0.908958719
vt 0.382597393 0.894655422
vt 0.500837981 0.910865825
vt 0.421693071 0.904190953
vt 0.460788749 0.909912272
vt 0.312034462 0.856513297
vt 0.348269481 0.8727237
vt 0.384504499 0.886073444
vt 0.422646624 0.894655422
vt 0.461742303 0.900376741
vt 0.500837981 0.902283847
vt 0.278660102 0.836488681
vt 0.539933659 0.899423187
vt 0.247192849 0.813603406
vt 0.579029337 0.893701869
vt 0.217632702 0.786903919
vt 0.617171462 0.884166337
vt 0.190933215 0.758297325
vt 0.653406481 0.870816594
vt 0.167094387 0.726830072
vt 0.688687947 0.853652637
vt 0.147069771 0.693455712
vt 0.722062306 0.833628022
vt 0.129905815 0.658174247
vt 0.753529559 0.809789194
vt 0.116556071 0.620985675
vt 0.783089706 0.783089706
vt 0.10702054 0.58284355
vt 0.80883564 0.753529559
vt 0.101299221 0.544701425
vt 0.831720915 0.722062306
vt 0.0984385615 0.505605746
vt 0.851745531 0.688687947
vt 0.100345668 0.466510068
vt 0.867955934 0.652452928
vt 0.106066986 0.42741439
vt 0.881305678 0.616217909
vt 0.114648965 0.389272265
vt 0.890841209 0.578075784
vt 0.127998708 0.352083693
vt 0.895608975 0.538980106
vt 0.144209112 0.316802227
vt 0.897516081 0.499884428
vt 0.164233727 0.282474315
vt 0.895608975 0.460788749
vt 0.187119002 0.251007062
vt 0.889887656 0.421693071
vt 0.21381849 0.222400468
vt 0.879398572 0.383550946
vt 0.242425084 0.19570098
vt 0.866048828 0.347315927
vt 0.273892337 0.171862152
vt 0.848884872 0.312034462
vt 0.307266696 0.151837537
vt 0.828860256 0.278660102
vt 0.342548162 0.13467358
vt 0.805021428 0.247192849
vt 0.379736734 0.121323837
vt 0.77832194 0.217632702
vt 0.417878859 0.110834752
vt 0.749715347 0.191886768
vt 0.456020984 0.105113433
vt 0.718248093 0.169001493
vt 0.495116662 0.103206327
vt 0.683920181 0.148976877
vt 0.53421234 0.105113433
vt 0.648638715 0.132766474
vt 0.573308018 0.109881199
vt 0.611450143 0.11941673
vt 0.495116662 0.111788305
vt 0.533258787 0.113695412
vt 0.571400912 0.11941673
vt 0.608589484 0.127998708
vt 0.644824503 0.140394899
vt 0.680105968 0.156605302
vt 0.456974537 0.114648965
vt 0.712526775 0.176629918
vt 0.419785965 0.120370283
vt 0.743994028 0.19856164
vt 0.382597393 0.129905815
vt 0.772600622 0.224307574
vt 0.346362374 0.143255558
vt 0.798346556 0.252914168
vt 0.312034462 0.159465962
vt 0.821231831 0.283427868
vt 0.278660102 0.179490577
vt 0.841256447 0.315848674
vt 0.248146402 0.202375852
vt 0.85746685 0.350176587
vt 0.220493362 0.228121787
vt 0.870816594 0.386411606
vt 0.194747427 0.25672838
vt 0.880352125 0.423600177
vt 0.171862152 0.288195634
vt 0.886073444 0.461742303
vt 0.15279109 0.32061644
vt 0.888934103 0.499884428
vt 0.136580687 0.355897906
vt 0.887026997 0.538026553
vt 0.124184496 0.392132924
vt 0.881305678 0.576168678
vt 0.114648965 0.429321496
vt 0.8727237 0.61335725
vt 0.108927646 0.467463621
vt 0.860327509 0.649592268
vt 0.107974093 0.505605746
vt 0.844117106 0.683920181
vt 0.109881199 0.543747871
vt 0.82409249 0.71729454
vt 0.115602518 0.580936443
vt 0.802160769 0.74780824
vt 0.125138049 0.618125015
vt 0.776414834 0.776414834
vt 0.138487793 0.654360034
vt 0.74780824 0.802160769
vt 0.154698196 0.688687947
vt 0.71729454 0.825999597
vt 0.174722812 0.722062306
vt 0.684873734 0.846024212
vt 0.19856164 0.752576006
vt 0.650545822 0.862234616
vt 0.224307574 0.780229047
vt 0.614310803 0.875584359
vt 0.252914168 0.805974981
vt 0.577122231 0.885119891
vt 0.283427868 0.828860256
vt 0.538980106 0.890841209
vt 0.316802227 0.847931319
vt 0.500837981 0.892748316
vt 0.35113014 0.864141722
vt 0.462695856 0.891794762
vt 0.387365159 0.876537912
vt 0.424553731 0.886073444
vt 0.288195634 0.821231831
vt 0.32061644 0.840302894
vt 0.354944352 0.855559744
vt 0.390225818 0.867955934
vt 0.426460837 0.877491466
vt 0.463649409 0.882259231
vt 0.258635487 0.799300109
vt 0.500837981 0.884166337
vt 0.230028893 0.774507728
vt 0.538026553 0.881305678
vt 0.205236512 0.746854687
vt 0.575215125 0.875584359
vt 0.182351237 0.716340987
vt 0.611450143 0.867002381
vt 0.163280174 0.684873734
vt 0.646731609 0.853652637
vt 0.147069771 0.650545822
vt 0.680105968 0.837442234
vt 0.133720027 0.616217909
vt 0.712526775 0.818371172
vt 0.125138049 0.57998289
vt 0.742086922 0.795485897
vt 0.11941673 0.542794318
vt 0.769739962 0.770693515
vt 0.116556071 0.505605746
vt 0.794532344 0.742086922
vt 0.118463177 0.467463621
vt 0.816464065 0.712526775
vt 0.123230943 0.431228603
vt 0.835535128 0.680105968
vt 0.132766474 0.394040031
vt 0.851745531 0.645778056
vt 0.145162665 0.358758565
vt 0.864141722 0.61049659
vt 0.160419515 0.325384206
vt 0.8727237 0.574261571
vt 0.179490577 0.292963399
vt 0.877491466 0.537073
vt 0.201422299 0.262449699
vt 0.879398572 0.499884428
vt 0.22621468 0.234796659
vt 0.877491466 0.462695856
vt 0.253867721 0.209050724
vt 0.871770147 0.425507284
vt 0.284381421 0.187119002
vt 0.862234616 0.389272265
vt 0.315848674 0.167094387
vt 0.849838425 0.353990799
vt 0.350176587 0.150883983
vt 0.833628022 0.32061644
vt 0.384504499 0.138487793
vt 0.813603406 0.288195634
vt 0.420739518 0.128952262
vt 0.791671684 0.258635487
vt 0.45792809 0.123230943
vt 0.76592575 0.230982446
vt 0.495116662 0.121323837
vt 0.738272709 0.206190065
vt 0.533258787 0.123230943
vt 0.707759009 0.184258343
vt 0.569493806 0.127998708
vt 0.675338203 0.16518728
vt 0.606682378 0.136580687
vt 0.641963843 0.148976877
vt 0.532305234 0.131812921
vt 0.568540253 0.136580687
vt 0.497977321 0.502745087
vt 0.495116662 0.129905815
vt 0.603821718 0.145162665
vt 0.458881643 0.132766474
vt 0.638149631 0.157558855
vt 0.422646624 0.13753424
vt 0.67152399 0.172815705
vt 0.387365159 0.147069771
vt 0.702991243 0.191886768
vt 0.353037246 0.159465962
vt 0.73255139 0.212864937
vt 0.32061644 0.175676365
vt 0.759250878 0.237657318
vt 0.289149187 0.194747427
vt 0.784043259 0.264356805
vt 0.25958904 0.216679149
vt 0.805974981 0.293916952
vt 0.232889552 0.24147153
vt 0.825046044 0.324430652
vt 0.209050724 0.268171018
vt 0.841256447 0.357805012
vt 0.187119002 0.297731165
vt 0.853652637 0.392132924
vt 0.169001493 0.329198418
vt 0.863188169 0.42741439
vt 0.153744643 0.362572777
vt 0.867955934 0.463649409
vt 0.141348452 0.39690069
vt 0.870816594 0.499884428
vt 0.132766474 0.432182156
vt 0.868909487 0.536119446
vt 0.127045155 0.468417174
vt 0.864141722 0.572354465
vt 0.126091602 0.505605746
vt 0.855559744 0.608589484
vt 0.127998708 0.541840765
vt 0.843163553 0.642917397
vt 0.133720027 0.578075784
vt 0.827906703 0.675338203
vt 0.142302005 0.61335725
vt 0.80883564 0.706805456
vt 0.155651749 0.647685162
vt 0.787857472 0.736365603
vt 0.170908599 0.680105968
vt 0.76306509 0.764018644
vt 0.189979662 0.711573222
vt 0.736365603 0.788811025
vt 0.211911383 0.741133368
vt 0.706805456 0.810742747
vt 0.236703765 0.767832856
vt 0.676291756 0.829813809
vt 0.264356805 0.791671684
vt 0.642917397 0.845070659
vt 0.293916952 0.813603406
vt 0.608589484 0.858420403
vt 0.325384206 0.831720915
vt 0.573308018 0.867002381
vt 0.357805012 0.846977765
vt 0.537073 0.8727237
vt 0.392132924 0.859373956
vt 0.500837981 0.874630806
vt 0.428367943 0.867955934
vt 0.464602962 0.873677253
vn 0.992149293 0.00392153871 0.124997606
vn 0.992149293 0.0196076935 0.123512422
vn 0.999992311 0.00392153847 -0
vn 0.984306216 0.0196076935 0.175376201
vn 0.984306216 0.00392153871 0.176425325
vn 0.999807822 0.0196040749 -0
vn 0.992149293 0.00392153871 -0.124997606
vn 0.952933906 0.0196076935 0.3025434
vn 0.960776984 0.00392153871 0.277294445
vn 0.992149293 0.0196076935 -0.123512422
vn 0.984306216 0.00392153871 -0.176425325
vn 0.921561596 0.0196076935 0.387736718
vn 0.921561596 0.00392153871 0.388212372
vn 0.984306216 0.0196076935 -0.175376201
vn 0.960776984 0.00392153871 -0.277294445
vn 0.882346209 0.0196076935 0.4701922
vn 0.882346209 0.00392153871 0.470584518
vn 0.952933906 0.0196076935 -0.3025434
vn 0.921561596 0.00392153871 -0.388212372
vn 0.827444667 0.0196076935 0.56120483
vn 0.835287745 0.00392153871 0.549799059
vn 0.921561596 0.0196076935 -0.387736718
vn 0.882346209 0.00392153871 -0.470584518
vn 0.772543126 0.0196076935 0.634659482
vn 0.772543126 0.00392153871 0.634950188
vn 0.882346209 0.0196076935 -0.4701922
vn 0.835287745 0.00392153871 -0.549799059
vn 0.709798506 0.0196076935 0.704131819
vn 0.709798506 0.00392153871 0.704393854
vn 0.827444667 0.0196076935 -0.56120483
vn 0.772543126 0.00392153871 -0.634950188
vn 0.631367732 0.0196076935 0.775235658
vn 0.631367732 0.00392153871 0.775473667
vn 0.772543126 0.0196076935 -0.634659482
vn 0.709798506 0.00392153871 -0.704393854
vn 0.552936958 0.0196076935 0.832992352
vn 0.552936958 0.00392153871 0.833213863
vn 0.709798506 0.0196076935 -0.704131819
vn 0.631367732 0.00392153871 -0.775473667
vn 0.474506184 0.0196076935 0.880033761
vn 0.474506184 0.00392153871 0.880243434
vn 0.631367732 0.0196076935 -0.775235658
vn 0.552936958 0.00392153871 -0.833213863
vn 0.380389255 0.0196076935 0.924618599
vn 0.380389255 0.00392153871 0.924818164
vn 0.552936958 0.0196076935 -0.832992352
vn 0.474506184 0.00392153871 -0.880243434
vn 0.294115403 0.0196076935 0.955568767
vn 0.294115403 0.00392153871 0.955761869
vn 0.474506184 0.0196076935 -0.880033761
vn 0.380389255 0.00392153871 -0.924818164
vn 0.192155397 0.0196076935 0.98116861
vn 0.192155397 0.00392153871 0.981356676
vn 0.380389255 0.0196076935 -0.924618599
vn 0.294115403 0.00392153871 -0.955761869
vn 0.0980384677 0.0196076935 0.994989446
vn 0.0980384677 0.00392153871 0.995174899
vn 0.294115403 0.0196076935 -0.955568767
vn 0.192155397 0.00392153871 -0.981356676
vn -0.00392153871 0.0196076935 0.99980006
vn -0.00392153871 0.00392153871 0.999984621
vn 0.192155397 0.0196076935 -0.98116861
vn 0.0980384677 0.00392153871 -0.995174899
vn -0.0980384677 0.0196076935 0.994989446
vn -0.0980384677 0.00392153871 0.995174899
vn 0.0980384677 0.0196076935 -0.994989446
vn 0.00392153871 0.00392153871 -0.999984621
vn -0.192155397 0.0196076935 0.98116861
vn -0.192155397 0.00392153871 0.981356676
vn 0.00392153871 0.0196076935 -0.99980006
vn -0.0980384677 0.00392153871 -0.995174899
vn -0.294115403 0.0196076935 0.955568767
vn -0.294115403 0.00392153871 0.955761869
vn -0.0980384677 0.0196076935 -0.994989446
vn -0.192155397 0.00392153871 -0.981356676
vn -0.380389255 0.0196076935 0.924618599
vn -0.380389255 0.00392153871 0.924818164
vn -0.192155397 0.0196076935 -0.98116861
vn -0.294115403 0.00392153871 -0.955761869
vn -0.474506184 0.0196076935 0.880033761
vn -0.474506184 0.00392153871 0.880243434
vn -0.294115403 0.0196076935 -0.955568767
vn -0.380389255 0.00392153871 -0.924818164
vn -0.552936958 0.0196076935 0.832992352
vn -0.552936958 0.00392153871 0.833213863
vn -0.380389255 0.0196076935 -0.924618599
vn -0.474506184 0.00392153871 -0.880243434
vn -0.631367732 0.0196076935 0.775235658
vn -0.631367732 0.00392153871 0.775473667
vn -0.474506184 0.0196076935 -0.880033761
vn -0.552936958 0.00392153871 -0.833213863
vn -0.709798506 0.0196076935 0.704131819
vn -0.709798506 0.00392153871 0.704393854
vn -0.552936958 0.0196076935 -0.832992352
vn -0.631367732 0.00392153871 -0.775473667
vn -0.772543126 0.0196076935 0.634659482
vn -0.772543126 0.00392153871 0.634950188
vn -0.631367732 0.0196076935 -0.775235658
vn -0.709798506 0.00392153871 -0.704393854
vn -0.827444667 0.0196076935 0.56120483
vn -0.835287745 0.00392153871 0.549799059
vn -0.709798506 0.0196076935 -0.704131819
vn -0.772543126 0.00392153871 -0.634950188
vn -0.882346209 0.0196076935 0.4701922
vn -0.882346209 0.00392153871 0.470584518
vn -0.772543126 0.0196076935 -0.634659482
vn -0.835287745 0.00392153871 -0.549799059
vn -0.921561596 0.0196076935 0.387736718
vn -0.921561596 0.00392153871 0.388212372
vn -0.827444667 0.0196076935 -0.56120483
vn -0.882346209 0.00392153871 -0.470584518
vn -0.952933906 0.0196076935 0.3025434
vn -0.960776984 0.00392153871 0.277294445
vn -0.882346209 0.0196076935 -0.4701922
vn -0.921561596 0.00392153871 -0.388212372
vn -0.984306216 0.0196076935 0.175376201
vn -0.984306216 0.00392153871 0.176425325
vn -0.921561596 0.0196076935 -0.387736718
vn -0.960776984 0.00392153871 -0.277294445
vn -0.992149293 0.0196076935 0.123512422
vn -0.992149293 0.00392153871 0.124997606
vn -0.952933906 0.0196076935 -0.3025434
vn -0.984306216 0.00392153871 -0.176425325
vn -0.999807822 0.0196040749 -0
vn -0.999992311 0.00392153847 -0
vn -0.984306216 0.0196076935 -0.175376201
vn -0.992149293 0.00392153871 -0.124997606
vn -0.992149293 0.0196076935 -0.123512422
vn -0.882346209 0.309801558 -0.354243083
vn -0.913718519 0.309801558 -0.262947642
vn -0.929404674 0.309801558 -0.200574043
vn -0.945090829 0.309801558 -0.104049605
vn -0.951005304 0.309174564 -0
vn -0.945090829 0.309801558 0.104049605
vn -0.843130822 0.309801558 -0.43949222
vn -0.929404674 0.309801558 0.200574043
vn -0.78822928 0.309801558 -0.531711949
vn -0.913718519 0.309801558 0.262947642
vn -0.733327738 0.309801558 -0.60518875
vn -0.882346209 0.309801558 0.354243083
vn -0.670583119 0.309801558 -0.674048422
vn -0.843130822 0.309801558 0.43949222
vn -0.599995422 0.309801558 -0.737582868
vn -0.78822928 0.309801558 0.531711949
vn -0.529407726 0.309801558 -0.789778738
vn -0.733327738 0.309801558 0.60518875
vn -0.450976951 0.309801558 -0.837044075
vn -0.670583119 0.309801558 0.674048422
vn -0.3647031 0.309801558 -0.878074395
vn -0.599995422 0.309801558 0.737582868
vn -0.278429248 0.309801558 -0.909120536
vn -0.529407726 0.309801558 0.789778738
vn -0.184312319 0.309801558 -0.93276576
vn -0.450976951 0.309801558 0.837044075
vn -0.0901953903 0.309801558 -0.94651349
vn -0.3647031 0.309801558 0.878074395
vn 0.00392153871 0.309801558 -0.950793151
vn -0.278429248 0.309801558 0.909120536
vn 0.0901953903 0.309801558 -0.94651349
vn -0.184312319 0.309801558 0.93276576
vn 0.184312319 0.309801558 -0.93276576
vn -0.0901953903 0.309801558 0.94651349
vn 0.278429248 0.309801558 -0.909120536
vn -0.00392153871 0.309801558 0.950793151
vn 0.3647031 0.309801558 -0.878074395
vn 0.0901953903 0.309801558 0.94651349
vn 0.450976951 0.309801558 -0.837044075
vn 0.184312319 0.309801558 0.93276576
vn 0.529407726 0.309801558 -0.789778738
vn 0.278429248 0.309801558 0.909120536
vn 0.599995422 0.309801558 -0.737582868
vn 0.3647031 0.309801558 0.878074395
vn 0.670583119 0.309801558 -0.674048422
vn 0.450976951 0.309801558 0.837044075
vn 0.733327738 0.309801558 -0.60518875
vn 0.529407726 0.309801558 0.789778738
vn 0.78822928 0.309801558 -0.531711949
vn 0.599995422 0.309801558 0.737582868
vn 0.843130822 0.309801558 -0.43949222
vn 0.670583119 0.309801558 0.674048422
vn 0.882346209 0.309801558 -0.354243083
vn 0.733327738 0.309801558 0.60518875
vn 0.913718519 0.309801558 -0.262947642
vn 0.78822928 0.309801558 0.531711949
vn 0.929404674 0.309801558 -0.200574043
vn 0.843130822 0.309801558 0.43949222
vn 0.945090829 0.309801558 -0.104049605
vn 0.882346209 0.309801558 0.354243083
vn 0.951005304 0.309174564 -0
vn 0.913718519 0.309801558 0.262947642
vn 0.945090829 0.309801558 0.104049605
vn 0.929404674 0.309801558 0.200574043
vn 0.796072358 0.584309268 -0.157643525
vn 0.803915435 0.584309268 -0.110917325
vn 0.811608702 0.584201433 -0
vn 0.803915435 0.584309268 0.110917325
vn 0.796072358 0.584309268 0.157643525
vn 0.772543126 0.584309268 0.248515189
vn 0.772543126 0.584309268 -0.248515189
vn 0.749013893 0.584309268 0.312347351
vn 0.749013893 0.584309268 -0.312347351
vn 0.717641584 0.584309268 0.378910593
vn 0.717641584 0.584309268 -0.378910593
vn 0.670583119 0.584309268 0.457056846
vn 0.670583119 0.584309268 -0.457056846
vn 0.623524655 0.584309268 0.519422453
vn 0.623524655 0.584309268 -0.519422453
vn 0.57646619 0.584309268 0.571199975
vn 0.57646619 0.584309268 -0.571199975
vn 0.513721571 0.584309268 0.628229916
vn 0.513721571 0.584309268 -0.628229916
vn 0.450976951 0.584309268 0.674686942
vn 0.450976951 0.584309268 -0.674686942
vn 0.380389255 0.584309268 0.716858909
vn 0.380389255 0.584309268 -0.716858909
vn 0.309801558 0.584309268 0.750070446
vn 0.309801558 0.584309268 -0.750070446
vn 0.239213861 0.584309268 0.775473667
vn 0.239213861 0.584309268 -0.775473667
vn 0.160783087 0.584309268 0.795444202
vn 0.160783087 0.584309268 -0.795444202
vn 0.0823523129 0.584309268 0.807341797
vn 0.0823523129 0.584309268 -0.807341797
vn -0.00392153871 0.584309268 0.811521596
vn -0.00392153871 0.584309268 -0.811521596
vn -0.0823523129 0.584309268 0.807341797
vn -0.0823523129 0.584309268 -0.807341797
vn -0.160783087 0.584309268 0.795444202
vn -0.160783087 0.584309268 -0.795444202
vn -0.239213861 0.584309268 0.775473667
vn -0.239213861 0.584309268 -0.775473667
vn -0.309801558 0.584309268 0.750070446
vn -0.309801558 0.584309268 -0.750070446
vn -0.380389255 0.584309268 0.716858909
vn -0.380389255 0.584309268 -0.716858909
vn -0.450976951 0.584309268 0.674686942
vn -0.450976951 0.584309268 -0.674686942
vn -0.513721571 0.584309268 0.628229916
vn -0.513721571 0.584309268 -0.628229916
vn -0.57646619 0.584309268 0.571199975
vn -0.57646619 0.584309268 -0.571199975
vn -0.623524655 0.584309268 0.519422453
vn -0.623524655 0.584309268 -0.519422453
vn -0.670583119 0.584309268 0.457056846
vn -0.670583119 0.584309268 -0.457056846
vn -0.717641584 0.584309268 0.378910593
vn -0.717641584 0.584309268 -0.378910593
vn -0.749013893 0.584309268 0.312347351
vn -0.749013893 0.584309268 -0.312347351
vn -0.772543126 0.584309268 0.248515189
vn -0.772543126 0.584309268 -0.248515189
vn -0.796072358 0.584309268 0.157643525
vn -0.796072358 0.584309268 -0.157643525
vn -0.803915435 0.584309268 0.110917325
vn -0.803915435 0.584309268 -0.110917325
vn -0.811608702 0.584201433 -0
vn -0.568623113 0.803915435 -0.174320764
vn -0.57646619 0.803915435 -0.146310303
vn -0.592152345 0.803915435 -0.0554578528
vn -0.592152345 0.803915435 -0.0554578528
vn -0.592152345 0.803915435 0.0554578528
vn -0.57646619 0.803915435 0.146310303
vn -0.54509388 0.803915435 -0.237892065
vn -0.568623113 0.803915435 0.174320764
vn -0.521564648 0.803915435 -0.285815134
vn -0.54509388 0.803915435 0.237892065
vn -0.490192339 0.803915435 -0.33679585
vn -0.521564648 0.803915435 0.285815134
vn -0.458820029 0.803915435 -0.378423247
vn -0.490192339 0.803915435 0.33679585
vn -0.419604642 0.803915435 -0.421487743
vn -0.458820029 0.803915435 0.378423247
vn -0.372546177 0.803915435 -0.463604701
vn -0.419604642 0.803915435 0.421487743
vn -0.325487713 0.803915435 -0.497772761
vn -0.372546177 0.803915435 0.463604701
vn -0.278429248 0.803915435 -0.5255446
vn -0.325487713 0.803915435 0.497772761
vn -0.223527706 0.803915435 -0.551140034
vn -0.278429248 0.803915435 0.5255446
vn -0.168626164 0.803915435 -0.570337786
vn -0.223527706 0.803915435 0.551140034
vn -0.113724623 0.803915435 -0.583769375
vn -0.168626164 0.803915435 0.570337786
vn -0.0588230806 0.803915435 -0.591827524
vn -0.113724623 0.803915435 0.583769375
vn -0.00392153871 0.803915435 -0.594730691
vn -0.0588230806 0.803915435 0.591827524
vn 0.0588230806 0.803915435 -0.591827524
vn -0.00392153871 0.803915435 0.594730691
vn 0.113724623 0.803915435 -0.583769375
vn 0.0588230806 0.803915435 0.591827524
vn 0.168626164 0.803915435 -0.570337786
vn 0.113724623 0.803915435 0.583769375
vn 0.223527706 0.803915435 -0.551140034
vn 0.168626164 0.803915435 0.570337786
vn 0.278429248 0.803915435 -0.5255446
vn 0.223527706 0.803915435 0.551140034
vn 0.325487713 0.803915435 -0.497772761
vn 0.278429248 0.803915435 0.5255446
vn 0.372546177 0.803915435 -0.463604701
vn 0.325487713 0.803915435 0.497772761
vn 0.419604642 0.803915435 -0.421487743
vn 0.372546177 0.803915435 0.463604701
vn 0.458820029 0.803915435 -0.378423247
vn 0.419604642 0.803915435 0.421487743
vn 0.490192339 0.803915435 -0.33679585
vn 0.458820029 0.803915435 0.378423247
vn 0.521564648 0.803915435 -0.285815134
vn 0.490192339 0.803915435 0.33679585
vn 0.54509388 0.803915435 -0.237892065
vn 0.521564648 0.803915435 0.285815134
vn 0.568623113 0.803915435 -0.174320764
vn 0.54509388 0.803915435 0.237892065
vn 0.57646619 0.803915435 -0.146310303
vn 0.568623113 0.803915435 0.174320764
vn 0.592152345 0.803915435 -0.0554578528
vn 0.57646619 0.803915435 0.146310303
vn 0.592152345 0.803915435 -0.0554578528
vn 0.592152345 0.803915435 0.0554578528
vn 0.301958481 0.952933906 -0.0271670136
vn 0.309174564 0.951005304 -0
vn 0.309174564 0.951005304 -0
vn 0.317644635 0.945090829 -0.0768453717
vn 0.309174564 0.951005304 -0
vn 0.309174564 0.951005304 -0
vn 0.294115403 0.952933906 -0.0735737741
vn 0.301958481 0.952933906 0.0271670136
vn 0.278429248 0.952933906 -0.119975515
vn 0.294115403 0.952933906 0.0735737741
vn 0.262743093 0.952933906 -0.151271403
vn 0.278429248 0.952933906 0.119975515
vn 0.247056939 0.952933906 -0.175726605
vn 0.262743093 0.952933906 0.151271403
vn 0.223527706 0.952933906 -0.204822692
vn 0.247056939 0.952933906 0.175726605
vn 0.199998474 0.952933906 -0.227854298
vn 0.223527706 0.952933906 0.204822692
vn 0.176469242 0.952933906 -0.246527032
vn 0.199998474 0.952933906 0.227854298
vn 0.145096932 0.952933906 -0.26620265
vn 0.176469242 0.952933906 0.246527032
vn 0.1215677 0.952933906 -0.277737763
vn 0.145096932 0.952933906 0.26620265
vn 0.0901953903 0.952933906 -0.289450794
vn 0.1215677 0.952933906 0.277737763
vn 0.0588230806 0.952933906 -0.297416906
vn 0.0901953903 0.952933906 0.289450794
vn 0.027450771 0.952933906 -0.301932817
vn 0.0588230806 0.952933906 0.297416906
vn -0.00392153871 0.952933906 -0.303152754
vn 0.027450771 0.952933906 0.301932817
vn -0.027450771 0.952933906 -0.301932817
vn -0.00392153871 0.952933906 0.303152754
vn -0.0588230806 0.952933906 -0.297416906
vn -0.027450771 0.952933906 0.301932817
vn -0.0901953903 0.952933906 -0.289450794
vn -0.0588230806 0.952933906 0.297416906
vn -0.1215677 0.952933906 -0.277737763
vn -0.0901953903 0.952933906 0.289450794
vn -0.145096932 0.952933906 -0.26620265
vn -0.1215677 0.952933906 0.277737763
vn -0.176469242 0.952933906 -0.246527032
vn -0.145096932 0.952933906 0.26620265
vn -0.199998474 0.952933906 -0.227854298
vn -0.176469242 0.952933906 0.246527032
vn -0.223527706 0.952933906 -0.204822692
vn -0.199998474 0.952933906 0.227854298
vn -0.247056939 0.952933906 -0.175726605
vn -0.223527706 0.952933906 0.204822692
vn -0.262743093 0.952933906 -0.151271403
vn -0.247056939 0.952933906 0.175726605
vn -0.278429248 0.952933906 -0.119975515
vn -0.262743093 0.952933906 0.151271403
vn -0.294115403 0.952933906 -0.0735737741
vn -0.278429248 0.952933906 0.119975515
vn -0.301958481 0.952933906 -0.0271670136
vn -0.294115403 0.952933906 0.0735737741
vn -0.309174564 0.951005304 -0
vn -0.301958481 0.952933906 0.0271670136
vn -0.309174564 0.951005304 -0
vn -0.309174564 0.951005304 -0
vn -0.317644635 0.945090829 -0.0768453717
vn -0.309174564 0.951005304 -0
vn -0.00392153847 0.999992311 -0
vn -0.00392153847 0.999992311 -0
vn -0.00392153847 0.999992311 -0
vn -0.00392153847 0.999992311 -0
vn -0.00392153847 0.999992311 -0
vn -0.00392153847 0.999992311 -0
vn -0.00392153847 0.999992311 -0
vn -0.00392153847 0.999992311 -0
vn -0.00392153847 0.999992311 -0
vn -0.00392153847 0.999992311 -0
vn -0.00392153847 0.999992311 -0
vn -0.00392153847 0.999992311 -0
vn -0.00392153847 0.999992311 -0
vn -0.00392153847 0.999992311 -0
vn -0.00392153847 0.999992311 -0
vn -0.00392153847 0.999992311 -0
vn -0.00392153847 0.999992311 -0
vn -0.00392153847 0.999992311 -0
vn -0.00392153847 0.999992311 -0
vn -0.00392153847 0.999992311 -0
vn -0.00392153847 0.999992311 -0
vn -0.00392153847 0.999992311 -0
vn -0.00392153847 0.999992311 -0
vn -0.00392153847 0.999992311 -0
vn -0.00392153847 0.999992311 -0
vn -0.00392153847 0.999992311 -0
vn -0.00392153847 0.999992311 -0
vn -0.00392153847 0.999992311 -0
vn -0.00392153847 0.999992311 -0
vn -0.00392153847 0.999992311 -0
vn -0.00392153847 0.999992311 -0
vn 0.00392153847 0.999992311 -0
vn -0.00392153847 0.999992311 -0
vn 0.00392153847 0.999992311 -0
vn -0.00392153847 0.999992311 -0
vn 0.00392153847 0.999992311 -0
vn -0.00392153847 0.999992311 -0
vn 0.00392153847 0.999992311 -0
vn 0.00392153847 0.999992311 -0
vn 0.00392153847 0.999992311 -0
vn 0.00392153847 0.999992311 -0
vn 0.00392153847 0.999992311 -0
vn 0.00392153847 0.999992311 -0
vn 0.00392153847 0.999992311 -0
vn 0.00392153847 0.999992311 -0
vn 0.00392153847 0.999992311 -0
vn 0.00392153847 0.999992311 -0
vn 0.00392153847 0.999992311 -0
vn 0.00392153847 0.999992311 -0
vn 0.00392153847 0.999992311 -0
vn 0.00392153847 0.999992311 -0
vn 0.00392153847 0.999992311 -0
vn 0.00392153847 0.999992311 -0
vn 0.00392153847 0.999992311 -0
vn 0.00392153847 0.999992311 -0
vn 0.00392153847 0.999992311 -0
vn 0.00392153847 0.999992311 -0
vn 0.00392153847 0.999992311 -0
vn 0.00392153847 0.999992311 -0
vn 0.00392153847 0.999992311 -0
vn 0.00392153847 0.999992311 -0
vn 0.00392153847 0.999992311 -0
vn 0.00392153847 0.999992311 -0
vn 0.00392153847 0.999992311 -0
vn 0.00392153847 0.999992311 -0
g polySurface1_0
f 3/3/3 2/2/2 1/1/1
f 1/1/1 2/2/2 4/4/4
f 1/1/1 4/4/4 5/5/5
f 3/3/3 6/6/6 2/2/2
f 7/7/7 6/6/6 3/3/3
f 5/5/5 4/4/4 8/8/8
f 5/5/5 8/8/8 9/9/9
f 7/7/7 10/10/10 6/6/6
f 11/11/11 10/10/10 7/7/7
f 9/9/9 8/8/8 12/12/12
f 9/9/9 12/12/12 13/13/13
f 11/11/11 14/14/14 10/10/10
f 15/15/15 14/14/14 11/11/11
f 13/13/13 12/12/12 16/16/16
f 13/13/13 16/16/16 17/17/17
f 15/15/15 18/18/18 14/14/14
f 19/19/19 18/18/18 15/15/15
f 17/17/17 16/16/16 20/20/20
f 17/17/17 20/20/20 21/21/21
f 19/19/19 22/22/22 18/18/18
f 23/23/23 22/22/22 19/19/19
f 21/21/21 20/20/20 24/24/24
f 21/21/21 24/24/24 25/25/25
f 23/23/23 26/26/26 22/22/22
f 27/27/27 26/26/26 23/23/23
f 25/25/25 24/24/24 28/28/28
f 25/25/25 28/28/28 29/29/29
f 27/27/27 30/30/30 26/26/26
f 31/31/31 30/30/30 27/27/27
f 29/29/29 28/28/28 32/32/32
f 29/29/29 32/32/32 33/33/33
f 31/31/31 34/34/34 30/30/30
f 35/35/35 34/34/34 31/31/31
f 33/33/33 32/32/32 36/36/36
f 33/33/33 36/36/36 37/37/37
f 35/35/35 38/38/38 34/34/34
f 39/39/39 38/38/38 35/35/35
f 37/37/37 36/36/36 40/40/40
f 37/37/37 40/40/40 41/41/41
f 39/39/39 42/42/42 38/38/38
f 43/43/43 42/42/42 39/39/39
f 41/41/41 40/40/40 44/44/44
f 41/41/41 44/44/44 45/45/45
f 43/43/43 46/46/46 42/42/42
f 47/47/47 46/46/46 43/43/43
f 45/45/45 44/44/44 48/48/48
f 45/45/45 48/48/48 49/49/49
f 47/47/47 50/50/50 46/46/46
f 51/51/51 50/50/50 47/47/47
f 49/49/49 48/48/48 52/52/52
f 49/49/49 52/52/52 53/53/53
f 51/51/51 54/54/54 50/50/50
f 55/55/55 54/54/54 51/51/51
f 53/53/53 52/52/52 56/56/56
f 53/53/53 56/56/56 57/57/57
f 55/55/55 58/58/58 54/54/54
f 59/59/59 58/58/58 55/55/55
f 57/57/57 56/56/56 60/60/60
f 57/57/57 60/60/60 61/61/61
f 59/59/59 62/62/62 58/58/58
f 63/63/63 62/62/62 59/59/59
f 61/61/61 60/60/60 64/64/64
f 61/61/61 64/64/64 65/65/65
f 63/63/63 66/66/66 62/62/62
f 67/67/67 66/66/66 63/63/63
f 65/65/65 64/64/64 68/68/68
f 65/65/65 68/68/68 69/69/69
f 67/67/67 70/70/70 66/66/66
f 71/71/71 70/70/70 67/67/67
f 69/69/69 68/68/68 72/72/72
f 69/69/69 72/72/72 73/73/73
f 71/71/71 74/74/74 70/70/70
f 75/75/75 74/74/74 71/71/71
f 73/73/73 72/72/72 76/76/76
f 73/73/73 76/76/76 77/77/77
f 75/75/75 78/78/78 74/74/74
f 79/79/79 78/78/78 75/75/75
f 77/77/77 76/76/76 80/80/80
f 77/77/77 80/80/80 81/81/81
f 79/79/79 82/82/82 78/78/78
f 83/83/83 82/82/82 79/79/79
f 81/81/81 80/80/80 84/84/84
f 81/81/81 84/84/84 85/85/85
f 83/83/83 86/86/86 82/82/82
f 87/87/87 86/86/86 83/83/83
f 85/85/85 84/84/84 88/88/88
f 85/85/85 88/88/88 89/89/89
f 87/87/87 90/90/90 86/86/86
f 91/91/91 90/90/90 87/87/87
f 89/89/89 88/88/88 92/92/92
f 89/89/89 92/92/92 93/93/93
f 91/91/91 94/94/94 90/90/90
f 95/95/95 94/94/94 91/91/91
f 93/93/93 92/92/92 96/96/96
f 93/93/93 96/96/96 97/97/97
f 95/95/95 98/98/98 94/94/94
f 99/99/99 98/98/98 95/95/95
f 97/97/97 96/96/96 100/100/100
f 97/97/97 100/100/100 101/101/101
f 99/99/99 102/102/102 98/98/98
f 103/103/103 102/102/102 99/99/99
f 101/101/101 100/100/100 104/104/104
f 101/101/101 104/104/104 105/105/105
f 103/103/103 106/106/106 102/102/102
f 107/107/107 106/106/106 103/103/103
f 105/105/105 104/104/104 108/108/108
f 105/105/105 108/108/108 109/109/109
f 107/107/107 110/110/110 106/106/106
f 111/111/111 110/110/110 107/107/107
f 109/109/109 108/108/108 112/112/112
f 109/109/109 112/112/112 113/113/113
f 111/111/111 114/114/114 110/110/110
f 115/115/115 114/114/114 111/111/111
f 113/113/113 112/112/112 116/116/116
f 113/113/113 116/116/116 117/117/117
f 115/115/115 118/118/118 114/114/114
f 119/119/119 118/118/118 115/115/115
f 117/117/117 116/116/116 120/120/120
f 117/117/117 120/120/120 121/121/121
f 119/119/119 122/122/122 118/118/118
f 123/123/123 122/122/122 119/119/119
f 121/121/121 120/120/120 124/124/124
f 121/121/121 124/124/124 125/125/125
f 123/123/123 126/126/126 122/122/122
f 127/127/127 126/126/126 123/123/123
f 125/125/125 128/128/128 127/127/127
f 125/125/125 124/124/124 128/128/128
f 127/127/127 128/128/128 126/126/126
f 114/114/114 118/118/118 129/129/129
f 118/118/118 122/122/122 130/130/130
f 118/118/118 130/130/130 129/129/129
f 122/122/122 126/126/126 131/131/131
f 122/122/122 131/131/131 130/130/130
f 126/126/126 128/128/128 132/132/132
f 126/126/126 132/132/132 131/131/131
f 128/128/128 124/124/124 133/133/133
f 128/128/128 133/133/133 132/132/132
f 124/124/124 120/120/120 134/134/134
f 124/124/124 134/134/134 133/133/133
f 114/114/114 129/129/129 135/135/135
f 110/110/110 114/114/114 135/135/135
f 120/120/120 136/136/136 134/134/134
f 120/120/120 116/116/116 136/136/136
f 110/110/110 135/135/135 137/137/137
f 106/106/106 110/110/110 137/137/137
f 116/116/116 138/138/138 136/136/136
f 116/116/116 112/112/112 138/138/138
f 106/106/106 137/137/137 139/139/139
f 102/102/102 106/106/106 139/139/139
f 112/112/112 140/140/140 138/138/138
f 112/112/112 108/108/108 140/140/140
f 102/102/102 139/139/139 141/141/141
f 98/98/98 102/102/102 141/141/141
f 108/108/108 142/142/142 140/140/140
f 108/108/108 104/104/104 142/142/142
f 98/98/98 141/141/141 143/143/143
f 94/94/94 98/98/98 143/143/143
f 104/104/104 144/144/144 142/142/142
f 104/104/104 100/100/100 144/144/144
f 94/94/94 143/143/143 145/145/145
f 90/90/90 94/94/94 145/145/145
f 100/100/100 146/146/146 144/144/144
f 100/100/100 96/96/96 146/146/146
f 90/90/90 145/145/145 147/147/147
f 86/86/86 90/90/90 147/147/147
f 96/96/96 148/148/148 146/146/146
f 96/96/96 92/92/92 148/148/148
f 86/86/86 147/147/147 149/149/149
f 82/82/82 86/86/86 149/149/149
f 92/92/92 150/150/150 148/148/148
f 92/92/92 88/88/88 150/150/150
f 82/82/82 149/149/149 151/151/151
f 78/78/78 82/82/82 151/151/151
f 88/88/88 152/152/152 150/150/150
f 88/88/88 84/84/84 152/152/152
f 78/78/78 151/151/151 153/153/153
f 74/74/74 78/78/78 153/153/153
f 84/84/84 154/154/154 152/152/152
f 84/84/84 80/80/80 154/154/154
f 74/74/74 153/153/153 155/155/155
f 70/70/70 74/74/74 155/155/155
f 80/80/80 156/156/156 154/154/154
f 80/80/80 76/76/76 156/156/156
f 70/70/70 155/155/155 157/157/157
f 66/66/66 70/70/70 157/157/157
f 76/76/76 158/158/158 156/156/156
f 76/76/76 72/72/72 158/158/158
f 66/66/66 157/157/157 159/159/159
f 62/62/62 66/66/66 159/159/159
f 72/72/72 160/160/160 158/158/158
f 72/72/72 68/68/68 160/160/160
f 62/62/62 159/159/159 161/161/161
f 58/58/58 62/62/62 161/161/161
f 68/68/68 162/162/162 160/160/160
f 68/68/68 64/64/64 162/162/162
f 58/58/58 161/161/161 163/163/163
f 54/54/54 58/58/58 163/163/163
f 64/64/64 164/164/164 162/162/162
f 64/64/64 60/60/60 164/164/164
f 54/54/54 163/163/163 165/165/165
f 50/50/50 54/54/54 165/165/165
f 60/60/60 166/166/166 164/164/164
f 60/60/60 56/56/56 166/166/166
f 50/50/50 165/165/165 167/167/167
f 46/46/46 50/50/50 167/167/167
f 56/56/56 168/168/168 166/166/166
f 56/56/56 52/52/52 168/168/168
f 46/46/46 167/167/167 169/169/169
f 42/42/42 46/46/46 169/169/169
f 52/52/52 170/170/170 168/168/168
f 52/52/52 48/48/48 170/170/170
f 42/42/42 169/169/169 171/171/171
f 38/38/38 42/42/42 171/171/171
f 48/48/48 172/172/172 170/170/170
f 48/48/48 44/44/44 172/172/172
f 38/38/38 171/171/171 173/173/173
f 34/34/34 38/38/38 173/173/173
f 44/44/44 174/174/174 172/172/172
f 44/44/44 40/40/40 174/174/174
f 34/34/34 173/173/173 175/175/175
f 30/30/30 34/34/34 175/175/175
f 40/40/40 176/176/176 174/174/174
f 40/40/40 36/36/36 176/176/176
f 30/30/30 175/175/175 177/177/177
f 26/26/26 30/30/30 177/177/177
f 36/36/36 178/178/178 176/176/176
f 36/36/36 32/32/32 178/178/178
f 26/26/26 177/177/177 179/179/179
f 22/22/22 26/26/26 179/179/179
f 32/32/32 180/180/180 178/178/178
f 32/32/32 28/28/28 180/180/180
f 22/22/22 179/179/179 181/181/181
f 18/18/18 22/22/22 181/181/181
f 28/28/28 182/182/182 180/180/180
f 28/28/28 24/24/24 182/182/182
f 18/18/18 181/181/181 183/183/183
f 14/14/14 18/18/18 183/183/183
f 24/24/24 184/184/184 182/182/182
f 24/24/24 20/20/20 184/184/184
f 14/14/14 183/183/183 185/185/185
f 10/10/10 14/14/14 185/185/185
f 20/20/20 186/186/186 184/184/184
f 20/20/20 16/16/16 186/186/186
f 10/10/10 185/185/185 187/187/187
f 187/187/187 6/6/6 10/10/10
f 16/16/16 188/188/188 186/186/186
f 16/16/16 12/12/12 188/188/188
f 187/187/187 189/189/189 6/6/6
f 2/2/2 6/6/6 189/189/189
f 12/12/12 190/190/190 188/188/188
f 12/12/12 8/8/8 190/190/190
f 2/2/2 189/189/189 191/191/191
f 4/4/4 2/2/2 191/191/191
f 8/8/8 4/4/4 192/192/192
f 8/8/8 192/192/192 190/190/190
f 4/4/4 191/191/191 192/192/192
f 187/187/187 185/185/185 193/193/193
f 194/194/194 189/189/189 187/187/187
f 187/187/187 193/193/193 194/194/194
f 191/191/191 189/189/189 195/195/195
f 194/194/194 195/195/195 189/189/189
f 192/192/192 191/191/191 196/196/196
f 191/191/191 195/195/195 196/196/196
f 190/190/190 192/192/192 197/197/197
f 192/192/192 196/196/196 197/197/197
f 188/188/188 190/190/190 198/198/198
f 190/190/190 197/197/197 198/198/198
f 185/185/185 199/199/199 193/193/193
f 185/185/185 183/183/183 199/199/199
f 188/188/188 198/198/198 200/200/200
f 186/186/186 188/188/188 200/200/200
f 183/183/183 201/201/201 199/199/199
f 183/183/183 181/181/181 201/201/201
f 186/186/186 200/200/200 202/202/202
f 184/184/184 186/186/186 202/202/202
f 181/181/181 203/203/203 201/201/201
f 181/181/181 179/179/179 203/203/203
f 184/184/184 202/202/202 204/204/204
f 182/182/182 184/184/184 204/204/204
f 179/179/179 205/205/205 203/203/203
f 179/179/179 177/177/177 205/205/205
f 182/182/182 204/204/204 206/206/206
f 180/180/180 182/182/182 206/206/206
f 177/177/177 207/207/207 205/205/205
f 177/177/177 175/175/175 207/207/207
f 180/180/180 206/206/206 208/208/208
f 178/178/178 180/180/180 208/208/208
f 175/175/175 209/209/209 207/207/207
f 175/175/175 173/173/173 209/209/209
f 178/178/178 208/208/208 210/210/210
f 176/176/176 178/178/178 210/210/210
f 173/173/173 211/211/211 209/209/209
f 173/173/173 171/171/171 211/211/211
f 176/176/176 210/210/210 212/212/212
f 174/174/174 176/176/176 212/212/212
f 171/171/171 213/213/213 211/211/211
f 171/171/171 169/169/169 213/213/213
f 174/174/174 212/212/212 214/214/214
f 172/172/172 174/174/174 214/214/214
f 169/169/169 215/215/215 213/213/213
f 169/169/169 167/167/167 215/215/215
f 172/172/172 214/214/214 216/216/216
f 170/170/170 172/172/172 216/216/216
f 167/167/167 217/217/217 215/215/215
f 167/167/167 165/165/165 217/217/217
f 170/170/170 216/216/216 218/218/218
f 168/168/168 170/170/170 218/218/218
f 165/165/165 219/219/219 217/217/217
f 165/165/165 163/163/163 219/219/219
f 168/168/168 218/218/218 220/220/220
f 166/166/166 168/168/168 220/220/220
f 163/163/163 221/221/221 219/219/219
f 163/163/163 161/161/161 221/221/221
f 166/166/166 220/220/220 222/222/222
f 164/164/164 166/166/166 222/222/222
f 161/161/161 223/223/223 221/221/221
f 161/161/161 159/159/159 223/223/223
f 164/164/164 222/222/222 224/224/224
f 162/162/162 164/164/164 224/224/224
f 159/159/159 225/225/225 223/223/223
f 159/159/159 157/157/157 225/225/225
f 162/162/162 224/224/224 226/226/226
f 160/160/160 162/162/162 226/226/226
f 157/157/157 227/227/227 225/225/225
f 157/157/157 155/155/155 227/227/227
f 160/160/160 226/226/226 228/228/228
f 158/158/158 160/160/160 228/228/228
f 155/155/155 229/229/229 227/227/227
f 155/155/155 153/153/153 229/229/229
f 158/158/158 228/228/228 230/230/230
f 156/156/156 158/158/158 230/230/230
f 153/153/153 231/231/231 229/229/229
f 153/153/153 151/151/151 231/231/231
f 156/156/156 230/230/230 232/232/232
f 154/154/154 156/156/156 232/232/232
f 151/151/151 233/233/233 231/231/231
f 151/151/151 149/149/149 233/233/233
f 154/154/154 232/232/232 234/234/234
f 152/152/152 154/154/154 234/234/234
f 149/149/149 235/235/235 233/233/233
f 149/149/149 147/147/147 235/235/235
f 152/152/152 234/234/234 236/236/236
f 150/150/150 152/152/152 236/236/236
f 147/147/147 237/237/237 235/235/235
f 147/147/147 145/145/145 237/237/237
f 150/150/150 236/236/236 238/238/238
f 148/148/148 150/150/150 238/238/238
f 145/145/145 239/239/239 237/237/237
f 145/145/145 143/143/143 239/239/239
f 148/148/148 238/238/238 240/240/240
f 146/146/146 148/148/148 240/240/240
f 143/143/143 241/241/241 239/239/239
f 143/143/143 141/141/141 241/241/241
f 146/146/146 240/240/240 242/242/242
f 144/144/144 146/146/146 242/242/242
f 141/141/141 243/243/243 241/241/241
f 141/141/141 139/139/139 243/243/243
f 144/144/144 242/242/242 244/244/244
f 142/142/142 144/144/144 244/244/244
f 139/139/139 245/245/245 243/243/243
f 139/139/139 137/137/137 245/245/245
f 142/142/142 244/244/244 246/246/246
f 140/140/140 142/142/142 246/246/246
f 137/137/137 247/247/247 245/245/245
f 137/137/137 135/135/135 247/247/247
f 140/140/140 246/246/246 248/248/248
f 138/138/138 140/140/140 248/248/248
f 135/135/135 249/249/249 247/247/247
f 135/135/135 129/129/129 249/249/249
f 138/138/138 248/248/248 250/250/250
f 136/136/136 138/138/138 250/250/250
f 129/129/129 251/251/251 249/249/249
f 129/129/129 130/130/130 251/251/251
f 136/136/136 250/250/250 252/252/252
f 134/134/134 136/136/136 252/252/252
f 130/130/130 253/253/253 251/251/251
f 130/130/130 131/131/131 253/253/253
f 134/134/134 252/252/252 254/254/254
f 133/133/133 134/134/134 254/254/254
f 131/131/131 255/255/255 253/253/253
f 131/131/131 132/132/132 255/255/255
f 132/132/132 133/133/133 256/256/256
f 133/133/133 254/254/254 256/256/256
f 132/132/132 256/256/256 255/255/255
f 249/249/249 251/251/251 257/257/257
f 251/251/251 253/253/253 258/258/258
f 251/251/251 258/258/258 257/257/257
f 253/253/253 255/255/255 259/259/259
f 253/253/253 259/259/259 258/258/258
f 255/255/255 256/256/256 260/260/260
f 255/255/255 260/260/260 259/259/259
f 256/256/256 254/254/254 261/261/261
f 256/256/256 261/261/261 260/260/260
f 254/254/254 252/252/252 262/262/262
f 254/254/254 262/262/262 261/261/261
f 249/249/249 257/257/257 263/263/263
f 247/247/247 249/249/249 263/263/263
f 252/252/252 264/264/264 262/262/262
f 252/252/252 250/250/250 264/264/264
f 247/247/247 263/263/263 265/265/265
f 245/245/245 247/247/247 265/265/265
f 250/250/250 266/266/266 264/264/264
f 250/250/250 248/248/248 266/266/266
f 245/245/245 265/265/265 267/267/267
f 243/243/243 245/245/245 267/267/267
f 248/248/248 268/268/268 266/266/266
f 248/248/248 246/246/246 268/268/268
f 243/243/243 267/267/267 269/269/269
f 241/241/241 243/243/243 269/269/269
f 246/246/246 270/270/270 268/268/268
f 246/246/246 244/244/244 270/270/270
f 241/241/241 269/269/269 271/271/271
f 239/239/239 241/241/241 271/271/271
f 244/244/244 272/272/272 270/270/270
f 244/244/244 242/242/242 272/272/272
f 239/239/239 271/271/271 273/273/273
f 237/237/237 239/239/239 273/273/273
f 242/242/242 274/274/274 272/272/272
f 242/242/242 240/240/240 274/274/274
f 237/237/237 273/273/273 275/275/275
f 235/235/235 237/237/237 275/275/275
f 240/240/240 276/276/276 274/274/274
f 240/240/240 238/238/238 276/276/276
f 235/235/235 275/275/275 277/277/277
f 233/233/233 235/235/235 277/277/277
f 238/238/238 278/278/278 276/276/276
f 238/238/238 236/236/236 278/278/278
f 233/233/233 277/277/277 279/279/279
f 231/231/231 233/233/233 279/279/279
f 236/236/236 280/280/280 278/278/278
f 236/236/236 234/234/234 280/280/280
f 231/231/231 279/279/279 281/281/281
f 229/229/229 231/231/231 281/281/281
f 234/234/234 282/282/282 280/280/280
f 234/234/234 232/232/232 282/282/282
f 229/229/229 281/281/281 283/283/283
f 227/227/227 229/229/229 283/283/283
f 232/232/232 284/284/284 282/282/282
f 232/232/232 230/230/230 284/284/284
f 227/227/227 283/283/283 285/285/285
f 225/225/225 227/227/227 285/285/285
f 230/230/230 286/286/286 284/284/284
f 230/230/230 228/228/228 286/286/286
f 225/225/225 285/285/285 287/287/287
f 223/223/223 225/225/225 287/287/287
f 228/228/228 288/288/288 286/286/286
f 228/228/228 226/226/226 288/288/288
f 223/223/223 287/287/287 289/289/289
f 221/221/221 223/223/223 289/289/289
f 226/226/226 290/290/290 288/288/288
f 226/226/226 224/224/224 290/290/290
f 221/221/221 289/289/289 291/291/291
f 219/219/219 221/221/221 291/291/291
f 224/224/224 292/292/292 290/290/290
f 224/224/224 222/222/222 292/292/292
f 219/219/219 291/291/291 293/293/293
f 217/217/217 219/219/219 293/293/293
f 222/222/222 294/294/294 292/292/292
f 222/222/222 220/220/220 294/294/294
f 217/217/217 293/293/293 295/295/295
f 215/215/215 217/217/217 295/295/295
f 220/220/220 296/296/296 294/294/294
f 220/220/220 218/218/218 296/296/296
f 215/215/215 295/295/295 297/297/297
f 213/213/213 215/215/215 297/297/297
f 218/218/218 298/298/298 296/296/296
f 218/218/218 216/216/216 298/298/298
f 213/213/213 297/297/297 299/299/299
f 211/211/211 213/213/213 299/299/299
f 216/216/216 300/300/300 298/298/298
f 216/216/216 214/214/214 300/300/300
f 211/211/211 299/299/299 301/301/301
f 209/209/209 211/211/211 301/301/301
f 214/214/214 302/302/302 300/300/300
f 214/214/214 212/212/212 302/302/302
f 209/209/209 301/301/301 303/303/303
f 207/207/207 209/209/209 303/303/303
f 212/212/212 304/304/304 302/302/302
f 212/212/212 210/210/210 304/304/304
f 207/207/207 303/303/303 305/305/305
f 205/205/205 207/207/207 305/305/305
f 210/210/210 306/306/306 304/304/304
f 210/210/210 208/208/208 306/306/306
f 205/205/205 305/305/305 307/307/307
f 203/203/203 205/205/205 307/307/307
f 208/208/208 308/308/308 306/306/306
f 208/208/208 206/206/206 308/308/308
f 203/203/203 307/307/307 309/309/309
f 201/201/201 203/203/203 309/309/309
f 206/206/206 310/310/310 308/308/308
f 206/206/206 204/204/204 310/310/310
f 201/201/201 309/309/309 311/311/311
f 199/199/199 201/201/201 311/311/311
f 204/204/204 312/312/312 310/310/310
f 204/204/204 202/202/202 312/312/312
f 199/199/199 311/311/311 313/313/313
f 193/193/193 199/199/199 313/313/313
f 202/202/202 314/314/314 312/312/312
f 202/202/202 200/200/200 314/314/314
f 193/193/193 313/313/313 315/315/315
f 194/194/194 193/193/193 315/315/315
f 200/200/200 316/316/316 314/314/314
f 200/200/200 198/198/198 316/316/316
f 194/194/194 315/315/315 317/317/317
f 317/317/317 195/195/195 194/194/194
f 198/198/198 318/318/318 316/316/316
f 198/198/198 197/197/197 318/318/318
f 317/317/317 319/319/319 195/195/195
f 196/196/196 195/195/195 319/319/319
f 197/197/197 196/196/196 320/320/320
f 197/197/197 320/320/320 318/318/318
f 196/196/196 319/319/319 320/320/320
f 315/315/315 313/313/313 321/321/321
f 317/317/317 315/315/315 322/322/322
f 315/315/315 321/321/321 322/322/322
f 323/323/323 319/319/319 317/317/317
f 317/317/317 322/322/322 323/323/323
f 320/320/320 319/319/319 324/324/324
f 323/323/323 324/324/324 319/319/319
f 318/318/318 320/320/320 325/325/325
f 320/320/320 324/324/324 325/325/325
f 316/316/316 318/318/318 326/326/326
f 318/318/318 325/325/325 326/326/326
f 313/313/313 327/327/327 321/321/321
f 313/313/313 311/311/311 327/327/327
f 316/316/316 326/326/326 328/328/328
f 314/314/314 316/316/316 328/328/328
f 311/311/311 329/329/329 327/327/327
f 311/311/311 309/309/309 329/329/329
f 314/314/314 328/328/328 330/330/330
f 312/312/312 314/314/314 330/330/330
f 309/309/309 331/331/331 329/329/329
f 309/309/309 307/307/307 331/331/331
f 312/312/312 330/330/330 332/332/332
f 310/310/310 312/312/312 332/332/332
f 307/307/307 333/333/333 331/331/331
f 307/307/307 305/305/305 333/333/333
f 310/310/310 332/332/332 334/334/334
f 308/308/308 310/310/310 334/334/334
f 305/305/305 335/335/335 333/333/333
f 305/305/305 303/303/303 335/335/335
f 308/308/308 334/334/334 336/336/336
f 306/306/306 308/308/308 336/336/336
f 303/303/303 337/337/337 335/335/335
f 303/303/303 301/301/301 337/337/337
f 306/306/306 336/336/336 338/338/338
f 304/304/304 306/306/306 338/338/338
f 301/301/301 339/339/339 337/337/337
f 301/301/301 299/299/299 339/339/339
f 304/304/304 338/338/338 340/340/340
f 302/302/302 304/304/304 340/340/340
f 299/299/299 341/341/341 339/339/339
f 299/299/299 297/297/297 341/341/341
f 302/302/302 340/340/340 342/342/342
f 300/300/300 302/302/302 342/342/342
f 297/297/297 343/343/343 341/341/341
f 297/297/297 295/295/295 343/343/343
f 300/300/300 342/342/342 344/344/344
f 298/298/298 300/300/300 344/344/344
f 295/295/295 345/345/345 343/343/343
f 295/295/295 293/293/293 345/345/345
f 298/298/298 344/344/344 346/346/346
f 296/296/296 298/298/298 346/346/346
f 293/293/293 347/347/347 345/345/345
f 293/293/293 291/291/291 347/347/347
f 296/296/296 346/346/346 348/348/348
f 294/294/294 296/296/296 348/348/348
f 291/291/291 349/349/349 347/347/347
f 291/291/291 289/289/289 349/349/349
f 294/294/294 348/348/348 350/350/350
f 292/292/292 294/294/294 350/350/350
f 289/289/289 351/351/351 349/349/349
f 289/289/289 287/287/287 351/351/351
f 292/292/292 350/350/350 352/352/352
f 290/290/290 292/292/292 352/352/352
f 287/287/287 353/353/353 351/351/351
f 287/287/287 285/285/285 353/353/353
f 290/290/290 352/352/352 354/354/354
f 288/288/288 290/290/290 354/354/354
f 285/285/285 355/355/355 353/353/353
f 285/285/285 283/283/283 355/355/355
f 288/288/288 354/354/354 356/356/356
f 286/286/286 288/288/288 356/356/356
f 283/283/283 357/357/357 355/355/355
f 283/283/283 281/281/281 357/357/357
f 286/286/286 356/356/356 358/358/358
f 284/284/284 286/286/286 358/358/358
f 281/281/281 359/359/359 357/357/357
f 281/281/281 279/279/279 359/359/359
f 284/284/284 358/358/358 360/360/360
f 282/282/282 284/284/284 360/360/360
f 279/279/279 361/361/361 359/359/359
f 279/279/279 277/277/277 361/361/361
f 282/282/282 360/360/360 362/362/362
f 280/280/280 282/282/282 362/362/362
f 277/277/277 363/363/363 361/361/361
f 277/277/277 275/275/275 363/363/363
f 280/280/280 362/362/362 364/364/364
f 278/278/278 280/280/280 364/364/364
f 275/275/275 365/365/365 363/363/363
f 275/275/275 273/273/273 365/365/365
f 278/278/278 364/364/364 366/366/366
f 276/276/276 278/278/278 366/366/366
f 273/273/273 367/367/367 365/365/365
f 273/273/273 271/271/271 367/367/367
f 276/276/276 366/366/366 368/368/368
f 274/274/274 276/276/276 368/368/368
f 271/271/271 369/369/369 367/367/367
f 271/271/271 269/269/269 369/369/369
f 274/274/274 368/368/368 370/370/370
f 272/272/272 274/274/274 370/370/370
f 269/269/269 371/371/371 369/369/369
f 269/269/269 267/267/267 371/371/371
f 272/272/272 370/370/370 372/372/372
f 270/270/270 272/272/272 372/372/372
f 267/267/267 373/373/373 371/371/371
f 267/267/267 265/265/265 373/373/373
f 270/270/270 372/372/372 374/374/374
f 268/268/268 270/270/270 374/374/374
f 265/265/265 375/375/375 373/373/373
f 265/265/265 263/263/263 375/375/375
f 268/268/268 374/374/374 376/376/376
f 266/266/266 268/268/268 376/376/376
f 263/263/263 377/377/377 375/375/375
f 263/263/263 257/257/257 377/377/377
f 266/266/266 376/376/376 378/378/378
f 264/264/264 266/266/266 378/378/378
f 257/257/257 379/379/379 377/377/377
f 257/257/257 258/258/258 379/379/379
f 264/264/264 378/378/378 380/380/380
f 262/262/262 264/264/264 380/380/380
f 258/258/258 381/381/381 379/379/379
f 258/258/258 259/259/259 381/381/381
f 262/262/262 380/380/380 382/382/382
f 261/261/261 262/262/262 382/382/382
f 259/259/259 383/383/383 381/381/381
f 259/259/259 260/260/260 383/383/383
f 260/260/260 261/261/261 384/384/384
f 261/261/261 382/382/382 384/384/384
f 260/260/260 384/384/384 383/383/383
f 377/377/377 379/379/379 385/385/385
f 379/379/379 381/381/381 386/386/386
f 379/379/379 386/386/386 385/385/385
f 386/386/386 387/387/387 385/385/385
f 377/377/377 385/385/385 388/388/388
f 385/385/385 387/387/387 388/388/388
f 375/375/375 377/377/377 388/388/388
f 381/381/381 389/389/389 386/386/386
f 381/381/381 383/383/383 389/389/389
f 389/389/389 387/387/387 386/386/386
f 375/375/375 388/388/388 390/390/390
f 388/388/388 387/387/387 390/390/390
f 373/373/373 375/375/375 390/390/390
f 383/383/383 391/391/391 389/389/389
f 383/383/383 384/384/384 391/391/391
f 391/391/391 387/387/387 389/389/389
f 373/373/373 390/390/390 392/392/392
f 390/390/390 387/387/387 392/392/392
f 371/371/371 373/373/373 392/392/392
f 384/384/384 393/393/393 391/391/391
f 393/393/393 387/387/387 391/391/391
f 392/392/392 387/387/387 394/394/394
f 371/371/371 392/392/392 394/394/394
f 395/395/395 387/387/387 393/393/393
f 384/384/384 382/382/382 393/393/393
f 382/382/382 395/395/395 393/393/393
f 369/369/369 371/371/371 394/394/394
f 382/382/382 380/380/380 395/395/395
f 369/369/369 394/394/394 396/396/396
f 394/394/394 387/387/387 396/396/396
f 367/367/367 369/369/369 396/396/396
f 380/380/380 397/397/397 395/395/395
f 397/397/397 387/387/387 395/395/395
f 380/380/380 378/378/378 397/397/397
f 367/367/367 396/396/396 398/398/398
f 396/396/396 387/387/387 398/398/398
f 365/365/365 367/367/367 398/398/398
f 378/378/378 399/399/399 397/397/397
f 399/399/399 387/387/387 397/397/397
f 378/378/378 376/376/376 399/399/399
f 365/365/365 398/398/398 400/400/400
f 398/398/398 387/387/387 400/400/400
f 363/363/363 365/365/365 400/400/400
f 401/401/401 387/387/387 399/399/399
f 376/376/376 401/401/401 399/399/399
f 400/400/400 387/387/387 402/402/402
f 363/363/363 400/400/400 402/402/402
f 403/403/403 387/387/387 401/401/401
f 376/376/376 374/374/374 401/401/401
f 374/374/374 403/403/403 401/401/401
f 361/361/361 363/363/363 402/402/402
f 374/374/374 372/372/372 403/403/403
f 361/361/361 402/402/402 404/404/404
f 402/402/402 387/387/387 404/404/404
f 359/359/359 361/361/361 404/404/404
f 372/372/372 405/405/405 403/403/403
f 405/405/405 387/387/387 403/403/403
f 372/372/372 370/370/370 405/405/405
f 359/359/359 404/404/404 406/406/406
f 404/404/404 387/387/387 406/406/406
f 357/357/357 359/359/359 406/406/406
f 370/370/370 407/407/407 405/405/405
f 407/407/407 387/387/387 405/405/405
f 370/370/370 368/368/368 407/407/407
f 357/357/357 406/406/406 408/408/408
f 406/406/406 387/387/387 408/408/408
f 355/355/355 357/357/357 408/408/408
f 409/409/409 387/387/387 407/407/407
f 368/368/368 409/409/409 407/407/407
f 408/408/408 387/387/387 410/410/410
f 355/355/355 408/408/408 410/410/410
f 411/411/411 387/387/387 409/409/409
f 368/368/368 366/366/366 409/409/409
f 366/366/366 411/411/411 409/409/409
f 353/353/353 355/355/355 410/410/410
f 366/366/366 364/364/364 411/411/411
f 353/353/353 410/410/410 412/412/412
f 410/410/410 387/387/387 412/412/412
f 351/351/351 353/353/353 412/412/412
f 364/364/364 413/413/413 411/411/411
f 413/413/413 387/387/387 411/411/411
f 364/364/364 362/362/362 413/413/413
f 351/351/351 412/412/412 414/414/414
f 412/412/412 387/387/387 414/414/414
f 349/349/349 351/351/351 414/414/414
f 362/362/362 415/415/415 413/413/413
f 415/415/415 387/387/387 413/413/413
f 362/362/362 360/360/360 415/415/415
f 349/349/349 414/414/414 416/416/416
f 414/414/414 387/387/387 416/416/416
f 347/347/347 349/349/349 416/416/416
f 417/417/417 387/387/387 415/415/415
f 360/360/360 417/417/417 415/415/415
f 416/416/416 387/387/387 418/418/418
f 347/347/347 416/416/416 418/418/418
f 419/419/419 387/387/387 417/417/417
f 360/360/360 358/358/358 417/417/417
f 358/358/358 419/419/419 417/417/417
f 345/345/345 347/347/347 418/418/418
f 358/358/358 356/356/356 419/419/419
f 345/345/345 418/418/418 420/420/420
f 418/418/418 387/387/387 420/420/420
f 343/343/343 345/345/345 420/420/420
f 356/356/356 421/421/421 419/419/419
f 421/421/421 387/387/387 419/419/419
f 356/356/356 354/354/354 421/421/421
f 343/343/343 420/420/420 422/422/422
f 420/420/420 387/387/387 422/422/422
f 341/341/341 343/343/343 422/422/422
f 354/354/354 423/423/423 421/421/421
f 423/423/423 387/387/387 421/421/421
f 354/354/354 352/352/352 423/423/423
f 341/341/341 422/422/422 424/424/424
f 422/422/422 387/387/387 424/424/424
f 339/339/339 341/341/341 424/424/424
f 425/425/425 387/387/387 423/423/423
f 352/352/352 425/425/425 423/423/423
f 424/424/424 387/387/387 426/426/426
f 339/339/339 424/424/424 426/426/426
f 427/427/427 387/387/387 425/425/425
f 352/352/352 350/350/350 425/425/425
f 350/350/350 427/427/427 425/425/425
f 337/337/337 339/339/339 426/426/426
f 350/350/350 348/348/348 427/427/427
f 337/337/337 426/426/426 428/428/428
f 426/426/426 387/387/387 428/428/428
f 335/335/335 337/337/337 428/428/428
f 348/348/348 429/429/429 427/427/427
f 429/429/429 387/387/387 427/427/427
f 348/348/348 346/346/346 429/429/429
f 335/335/335 428/428/428 430/430/430
f 428/428/428 387/387/387 430/430/430
f 333/333/333 335/335/335 430/430/430
f 346/346/346 431/431/431 429/429/429
f 431/431/431 387/387/387 429/429/429
f 346/346/346 344/344/344 431/431/431
f 333/333/333 430/430/430 432/432/432
f 430/430/430 387/387/387 432/432/432
f 331/331/331 333/333/333 432/432/432
f 433/433/433 387/387/387 431/431/431
f 344/344/344 433/433/433 431/431/431
f 432/432/432 387/387/387 434/434/434
f 331/331/331 432/432/432 434/434/434
f 435/435/435 387/387/387 433/433/433
f 344/344/344 342/342/342 433/433/433
f 342/342/342 435/435/435 433/433/433
f 329/329/329 331/331/331 434/434/434
f 342/342/342 340/340/340 435/435/435
f 329/329/329 434/434/434 436/436/436
f 434/434/434 387/387/387 436/436/436
f 327/327/327 329/329/329 436/436/436
f 340/340/340 437/437/437 435/435/435
f 437/437/437 387/387/387 435/435/435
f 340/340/340 338/338/338 437/437/437
f 327/327/327 436/436/436 438/438/438
f 436/436/436 387/387/387 438/438/438
f 321/321/321 327/327/327 438/438/438
f 338/338/338 439/439/439 437/437/437
f 439/439/439 387/387/387 437/437/437
f 338/338/338 336/336/336 439/439/439
f 321/321/321 438/438/438 440/440/440
f 438/438/438 387/387/387 440/440/440
f 322/322/322 321/321/321 440/440/440
f 441/441/441 387/387/387 439/439/439
f 336/336/336 441/441/441 439/439/439
f 440/440/440 387/387/387 442/442/442
f 322/322/322 440/440/440 442/442/442
f 443/443/443 387/387/387 441/441/441
f 336/336/336 334/334/334 441/441/441
f 334/334/334 443/443/443 441/441/441
f 323/323/323 322/322/322 442/442/442
f 334/334/334 332/332/332 443/443/443
f 323/323/323 442/442/442 444/444/444
f 442/442/442 387/387/387 444/444/444
f 444/444/444 324/324/324 323/323/323
f 332/332/332 445/445/445 443/443/443
f 445/445/445 387/387/387 443/443/443
f 332/332/332 330/330/330 445/445/445
f 444/444/444 446/446/446 324/324/324
f 444/444/444 387/387/387 446/446/446
f 325/325/325 324/324/324 446/446/446
f 330/330/330 447/447/447 445/445/445
f 447/447/447 387/387/387 445/445/445
f 330/330/330 328/328/328 447/447/447
f 325/325/325 446/446/446 448/448/448
f 446/446/446 387/387/387 448/448/448
f 326/326/326 325/325/325 448/448/448
f 449/449/449 387/387/387 447/447/447
f 328/328/328 449/449/449 447/447/447
f 448/448/448 387/387/387 449/449/449
f 328/328/328 326/326/326 449/449/449
f 326/326/326 448/448/448 449/449/449
