g polySurface36
v 2.05085462 -0.123016313 0.848488291
v 2.05184711 -0.128404109 0.847637587
v 2.05085462 -0.129254813 0.842320683
v 2.04922411 -0.123016313 0.842320683
v 2.05085462 0.10156969 0.848488291
v 2.04922411 -0.123016313 -1.00243215
v 2.05085462 -0.129254813 -1.00243215
v 2.04922411 0.10156969 0.842320683
v 2.05085462 -0.123016313 -1.00859976
v 2.05184711 -0.128404109 -1.00774905
v 2.04922411 0.10156969 -1.00243215
v 2.05085462 0.10156969 -1.00859976
v 2.05085462 0.10780819 -1.00243215
v 2.05184711 0.106957486 -1.00774905
v 2.05085462 0.10780819 0.842320683
v 2.05184711 0.106957486 0.847637587
v 2.05184711 -0.128404109 0.847637587
v 2.05624242 -0.132870307 0.847637587
v 2.05539171 -0.133791904 0.842320683
v 2.05085462 -0.129254813 0.842320683
v 2.05085462 -0.129254813 -1.00243215
v 2.05539171 -0.133791904 -1.00243215
v 2.05624242 -0.132870307 -1.00774905
v 2.05184711 -0.128404109 -1.00774905
v 2.05624242 -0.128404109 -1.01221525
v 2.06163021 -0.133791904 -1.00859976
v 2.05624242 -0.132870307 -1.00774905
v 2.05539171 -0.123016313 -1.01313685
v 2.05085462 -0.123016313 -1.00859976
v 2.06163021 -0.129254813 -1.01313685
v 2.05085462 0.10156969 -1.00859976
v 2.05539171 0.10156969 -1.01313685
v 2.05624242 0.106957486 -1.01221525
v 2.05184711 0.106957486 -1.00774905
v 3.77877736 -0.129254813 -1.01313685
v 2.05624242 0.111423685 -1.00774905
v 2.06163021 0.10780819 -1.01313685
v 2.05539171 0.112345281 -1.00243215
v 2.05085462 0.10780819 -1.00243215
v 2.06163021 0.112345281 -1.00859976
v 2.05085462 0.10780819 0.842320683
v 2.05624242 0.111423685 -1.00774905
v 3.77877736 0.112345281 -1.00859976
v 3.77877736 0.10780819 -1.01313685
v 3.78409427 0.106957486 -1.01221525
v 3.77877736 -0.133791904 -1.00859976
v 2.06163021 -0.135422421 -1.00243215
v 3.78409427 -0.132870307 -1.00774905
v 3.78409427 -0.128404109 -1.01221525
v 3.78856047 -0.128404109 -1.00774905
v 3.78494497 -0.133791904 -1.00243215
v 3.78409427 -0.132870307 -1.00774905
v 3.78955295 -0.123016313 -1.00859976
v 3.78955295 -0.129254813 -1.00243215
v 3.78494497 -0.123016313 -1.01313685
v 3.78955295 -0.129254813 0.842320683
v 3.77877736 -0.135422421 -1.00243215
v 2.06163021 -0.135422421 0.842320683
v 3.78494497 -0.133791904 0.842320683
v 3.77877736 -0.135422421 0.842320683
v 3.78409427 -0.132870307 0.847637587
v 3.78856047 -0.128404109 0.847637587
v 2.06163021 -0.133791904 0.848488291
v 2.05624242 -0.132870307 0.847637587
v 3.77877736 -0.133791904 0.848488291
v 3.78409427 -0.132870307 0.847637587
v 2.06163021 -0.129254813 0.853096274
v 2.05624242 -0.128404109 0.852103786
v 2.05539171 -0.123016313 0.853096274
v 2.06163021 -0.123016313 0.854726791
v 3.77877736 -0.129254813 0.853096274
v 2.06163021 0.10156969 0.854726791
v 2.05539171 0.10156969 0.853096274
v 2.06163021 0.10780819 0.853096274
v 2.05624242 0.106957486 0.852103786
v 3.77877736 0.10156969 0.854726791
v 3.77877736 0.10780819 0.853096274
v 3.77877736 -0.123016313 0.854726791
v 3.78494497 0.10156969 0.853096274
v 3.78409427 0.106957486 0.852103786
v 3.78494497 -0.123016313 0.853096274
v 3.78409427 -0.128404109 0.852103786
v 3.78955295 0.10156969 0.848488291
v 3.78409427 0.106957486 0.852103786
v 3.78955295 -0.123016313 0.848488291
v 3.78856047 -0.128404109 0.847637587
v 3.78409427 -0.128404109 0.852103786
v 3.78409427 -0.132870307 0.847637587
v 3.77877736 -0.133791904 0.848488291
v 3.77877736 -0.129254813 0.853096274
v 2.06163021 -0.129254813 0.853096274
v 2.06163021 -0.133791904 0.848488291
v 2.05624242 -0.132870307 0.847637587
v 2.05624242 -0.128404109 0.852103786
v 2.05184711 -0.128404109 0.847637587
v 2.05085462 -0.123016313 0.848488291
v 2.05539171 -0.123016313 0.853096274
v 2.05539171 0.10156969 0.853096274
v 2.05085462 0.10156969 0.848488291
v 2.05184711 0.106957486 0.847637587
v 2.05624242 0.106957486 0.852103786
v 2.05624242 0.111423685 0.847637587
v 2.06163021 0.112345281 0.848488291
v 2.05539171 0.112345281 0.842320683
v 2.06163021 0.10780819 0.853096274
v 3.77877736 0.10780819 0.853096274
v 2.05624242 0.111423685 0.847637587
v 2.06163021 0.113975798 -1.00243215
v 2.06163021 0.113975798 0.842320683
v 3.77877736 0.113975798 -1.00243215
v 3.77877736 0.112345281 0.848488291
v 3.77877736 0.113975798 0.842320683
v 3.78494497 0.112345281 -1.00243215
v 3.78409427 0.111423685 -1.00774905
v 3.78409427 0.111423685 0.847637587
v 3.78494497 0.112345281 0.842320683
v 3.78409427 0.111423685 0.847637587
v 3.78856047 0.106957486 0.847637587
v 3.78955295 0.10780819 0.842320683
v 3.78955295 0.10780819 -1.00243215
v 3.78409427 0.111423685 -1.00774905
v 3.78856047 0.106957486 -1.00774905
v 3.78494497 0.10156969 -1.01313685
v 3.78955295 0.10156969 -1.00859976
v 3.77877736 0.10156969 -1.01483826
v 3.77877736 0.10780819 -1.01313685
v 3.78409427 0.106957486 -1.01221525
v 2.06163021 0.10156969 -1.01483826
v 2.06163021 0.10780819 -1.01313685
v 3.77877736 -0.123016313 -1.01483826
v 2.05539171 0.10156969 -1.01313685
v 2.05624242 0.106957486 -1.01221525
v 2.06163021 -0.123016313 -1.01483826
v 2.05539171 -0.123016313 -1.01313685
v 2.06163021 -0.129254813 -1.01313685
v 2.05624242 -0.128404109 -1.01221525
v 3.77877736 -0.129254813 -1.01313685
v 3.78409427 -0.128404109 -1.01221525
v 3.78955295 -0.129254813 0.842320683
v 3.78856047 -0.128404109 0.847637587
v 3.78955295 -0.123016313 0.848488291
v 3.79118347 -0.123016313 0.842320683
v 3.78955295 -0.129254813 -1.00243215
v 3.79118347 0.10156969 0.842320683
v 3.78955295 0.10156969 0.848488291
v 3.78955295 0.10780819 0.842320683
v 3.78856047 0.106957486 0.847637587
v 3.79118347 0.10156969 -1.00243215
v 3.78955295 0.10780819 -1.00243215
v 3.79118347 -0.123016313 -1.00243215
v 3.78955295 0.10156969 -1.00859976
v 3.78856047 0.106957486 -1.00774905
v 3.78955295 -0.123016313 -1.00859976
v 3.78856047 -0.128404109 -1.00774905
vt -2.64796686E-28 -2.64796686E-28
vt -2.64796686E-28 -2.64796686E-28
vt -2.64796686E-28 -2.64796686E-28
vt -2.64796686E-28 -2.64796686E-28
vt -2.64796686E-28 -2.64796686E-28
vt -2.64796686E-28 -2.64796686E-28
vt -2.64796686E-28 -2.64796686E-28
vt -2.64796686E-28 -2.64796686E-28
vt -2.64796686E-28 -2.64796686E-28
vt -2.64796686E-28 -2.64796686E-28
vt -2.64796686E-28 -2.64796686E-28
vt -2.64796686E-28 -2.64796686E-28
vt -2.64796686E-28 -2.64796686E-28
vt -2.64796686E-28 -2.64796686E-28
vt -2.64796686E-28 -2.64796686E-28
vt -2.64796686E-28 -2.64796686E-28
vt -2.64796686E-28 -2.64796686E-28
vt -2.64796686E-28 -2.64796686E-28
vt -2.64796686E-28 -2.64796686E-28
vt -2.64796686E-28 -2.64796686E-28
vt -2.64796686E-28 -2.64796686E-28
vt -2.64796686E-28 -2.64796686E-28
vt -2.64796686E-28 -2.64796686E-28
vt -2.64796686E-28 -2.64796686E-28
vt -2.64796686E-28 -2.64796686E-28
vt -2.64796686E-28 -2.64796686E-28
vt -2.64796686E-28 -2.64796686E-28
vt -2.64796686E-28 -2.64796686E-28
vt -2.64796686E-28 -2.64796686E-28
vt -2.64796686E-28 -2.64796686E-28
vt -2.64796686E-28 -2.64796686E-28
vt -2.64796686E-28 -2.64796686E-28
vt -2.64796686E-28 -2.64796686E-28
vt -2.64796686E-28 -2.64796686E-28
vt -2.64796686E-28 -2.64796686E-28
vt -2.64796686E-28 -2.64796686E-28
vt -2.64796686E-28 -2.64796686E-28
vt -2.64796686E-28 -2.64796686E-28
vt -2.64796686E-28 -2.64796686E-28
vt -2.64796686E-28 -2.64796686E-28
vt -2.64796686E-28 -2.64796686E-28
vt -2.64796686E-28 -2.64796686E-28
vt -2.64796686E-28 -2.64796686E-28
vt -2.64796686E-28 -2.64796686E-28
vt -2.64796686E-28 -2.64796686E-28
vt -2.64796686E-28 -2.64796686E-28
vt -2.64796686E-28 -2.64796686E-28
vt -2.64796686E-28 -2.64796686E-28
vt -2.64796686E-28 -2.64796686E-28
vt -2.64796686E-28 -2.64796686E-28
vt -2.64796686E-28 -2.64796686E-28
vt -2.64796686E-28 -2.64796686E-28
vt -2.64796686E-28 -2.64796686E-28
vt -2.64796686E-28 -2.64796686E-28
vt -2.64796686E-28 -2.64796686E-28
vt -2.64796686E-28 -2.64796686E-28
vt -2.64796686E-28 -2.64796686E-28
vt -2.64796686E-28 -2.64796686E-28
vt -2.64796686E-28 -2.64796686E-28
vt -2.64796686E-28 -2.64796686E-28
vt -2.64796686E-28 -2.64796686E-28
vt -2.64796686E-28 -2.64796686E-28
vt -2.64796686E-28 -2.64796686E-28
vt -2.64796686E-28 -2.64796686E-28
vt -2.64796686E-28 -2.64796686E-28
vt -2.64796686E-28 -2.64796686E-28
vt -2.64796686E-28 -2.64796686E-28
vt -2.64796686E-28 -2.64796686E-28
vt -2.64796686E-28 -2.64796686E-28
vt -2.64796686E-28 -2.64796686E-28
vt -2.64796686E-28 -2.64796686E-28
vt -2.64796686E-28 -2.64796686E-28
vt -2.64796686E-28 -2.64796686E-28
vt -2.64796686E-28 -2.64796686E-28
vt -2.64796686E-28 -2.64796686E-28
vt -2.64796686E-28 -2.64796686E-28
vt -2.64796686E-28 -2.64796686E-28
vt -2.64796686E-28 -2.64796686E-28
vt -2.64796686E-28 -2.64796686E-28
vt -2.64796686E-28 -2.64796686E-28
vt -2.64796686E-28 -2.64796686E-28
vt -2.64796686E-28 -2.64796686E-28
vt -2.64796686E-28 -2.64796686E-28
vt -2.64796686E-28 -2.64796686E-28
vt -2.64796686E-28 -2.64796686E-28
vt -2.64796686E-28 -2.64796686E-28
vt -2.64796686E-28 -2.64796686E-28
vt -2.64796686E-28 -2.64796686E-28
vt -2.64796686E-28 -2.64796686E-28
vt -2.64796686E-28 -2.64796686E-28
vt -2.64796686E-28 -2.64796686E-28
vt -2.64796686E-28 -2.64796686E-28
vt -2.64796686E-28 -2.64796686E-28
vt -2.64796686E-28 -2.64796686E-28
vt -2.64796686E-28 -2.64796686E-28
vt -2.64796686E-28 -2.64796686E-28
vt -2.64796686E-28 -2.64796686E-28
vt -2.64796686E-28 -2.64796686E-28
vt -2.64796686E-28 -2.64796686E-28
vt -2.64796686E-28 -2.64796686E-28
vt -2.64796686E-28 -2.64796686E-28
vt -2.64796686E-28 -2.64796686E-28
vt -2.64796686E-28 -2.64796686E-28
vt -2.64796686E-28 -2.64796686E-28
vt -2.64796686E-28 -2.64796686E-28
vt -2.64796686E-28 -2.64796686E-28
vt -2.64796686E-28 -2.64796686E-28
vt -2.64796686E-28 -2.64796686E-28
vt -2.64796686E-28 -2.64796686E-28
vt -2.64796686E-28 -2.64796686E-28
vt -2.64796686E-28 -2.64796686E-28
vt -2.64796686E-28 -2.64796686E-28
vt -2.64796686E-28 -2.64796686E-28
vt -2.64796686E-28 -2.64796686E-28
vt -2.64796686E-28 -2.64796686E-28
vt -2.64796686E-28 -2.64796686E-28
vt -2.64796686E-28 -2.64796686E-28
vt -2.64796686E-28 -2.64796686E-28
vt -2.64796686E-28 -2.64796686E-28
vt -2.64796686E-28 -2.64796686E-28
vt -2.64796686E-28 -2.64796686E-28
vt -2.64796686E-28 -2.64796686E-28
vt -2.64796686E-28 -2.64796686E-28
vt -2.64796686E-28 -2.64796686E-28
vt -2.64796686E-28 -2.64796686E-28
vt -2.64796686E-28 -2.64796686E-28
vt -2.64796686E-28 -2.64796686E-28
vt -2.64796686E-28 -2.64796686E-28
vt -2.64796686E-28 -2.64796686E-28
vt -2.64796686E-28 -2.64796686E-28
vt -2.64796686E-28 -2.64796686E-28
vt -2.64796686E-28 -2.64796686E-28
vt -2.64796686E-28 -2.64796686E-28
vt -2.64796686E-28 -2.64796686E-28
vt -2.64796686E-28 -2.64796686E-28
vt -2.64796686E-28 -2.64796686E-28
vt -2.64796686E-28 -2.64796686E-28
vt -2.64796686E-28 -2.64796686E-28
vt -2.64796686E-28 -2.64796686E-28
vt -2.64796686E-28 -2.64796686E-28
vt -2.64796686E-28 -2.64796686E-28
vt -2.64796686E-28 -2.64796686E-28
vt -2.64796686E-28 -2.64796686E-28
vt -2.64796686E-28 -2.64796686E-28
vt -2.64796686E-28 -2.64796686E-28
vt -2.64796686E-28 -2.64796686E-28
vt -2.64796686E-28 -2.64796686E-28
vt -2.64796686E-28 -2.64796686E-28
vt -2.64796686E-28 -2.64796686E-28
vt -2.64796686E-28 -2.64796686E-28
vt -2.64796686E-28 -2.64796686E-28
vt -2.64796686E-28 -2.64796686E-28
vt -2.64796686E-28 -2.64796686E-28
vt -2.64796686E-28 -2.64796686E-28
vn -0.968620061 -0.00392153871 0.248515189
vn -0.945090829 -0.231370784 0.230804865
vn -0.967074537 -0.254493299 -0
vn -0.999992311 -0.00392153847 -0
vn -0.968620061 0.00392153871 0.248515189
vn -0.999992311 -0.00392153847 -0
vn -0.967074537 -0.254493299 -0
vn -0.999992311 0.00392153847 -0
vn -0.968620061 -0.00392153871 -0.248515189
vn -0.945090829 -0.231370784 -0.230804865
vn -0.999992311 0.00392153847 -0
vn -0.968620061 0.00392153871 -0.248515189
vn -0.967074537 0.254493299 -0
vn -0.945090829 0.231370784 -0.230804865
vn -0.967074537 0.254493299 -0
vn -0.945090829 0.231370784 0.230804865
vn -0.709798506 -0.498035416 0.498143358
vn -0.498035416 -0.709798506 0.498143358
vn -0.498035416 -0.866660055 0.0293440684
vn -0.707106781 -0.707106781 -0
vn -0.707106781 -0.707106781 -0
vn -0.498035416 -0.866660055 -0.0293440684
vn -0.498035416 -0.709798506 -0.498143358
vn -0.709798506 -0.498035416 -0.498143358
vn -0.498035416 -0.498035416 -0.709874249
vn -0.00392153871 -0.866660055 -0.498883725
vn -0.231370784 -0.945090829 -0.230804865
vn -0.709798506 -0.00392153871 -0.704393854
vn -0.709798506 -0.00392153871 -0.704393854
vn -0.00392153871 -0.709798506 -0.704393854
vn -0.709798506 0.00392153871 -0.704393854
vn -0.709798506 0.00392153871 -0.704393854
vn -0.498035416 0.498035416 -0.709874249
vn -0.709798506 0.498035416 -0.498143358
vn 0.00392153871 -0.709798506 -0.704393854
vn -0.498035416 0.709798506 -0.498143358
vn -0.00392153871 0.709798506 -0.704393854
vn -0.498035416 0.866660055 -0.0293440684
vn -0.707106781 0.707106781 -0
vn -0.00392153871 0.866660055 -0.498883725
vn -0.707106781 0.707106781 -0
vn -0.231370784 0.945090829 -0.230804865
vn 0.00392153871 0.866660055 -0.498883725
vn 0.00392153871 0.709798506 -0.704393854
vn 0.498035416 0.498035416 -0.709874249
vn 0.00392153871 -0.866660055 -0.498883725
vn -0.00392153847 -0.999992311 -0
vn 0.498035416 -0.709798506 -0.498143358
vn 0.498035416 -0.498035416 -0.709874249
vn 0.709798506 -0.498035416 -0.498143358
vn 0.498035416 -0.866660055 -0.0293440684
vn 0.231370784 -0.945090829 -0.230804865
vn 0.709798506 -0.00392153871 -0.704393854
vn 0.707106781 -0.707106781 -0
vn 0.498035416 -0.00392153871 -0.867147822
vn 0.707106781 -0.707106781 -0
vn 0.00392153847 -0.999992311 -0
vn -0.00392153847 -0.999992311 -0
vn 0.498035416 -0.866660055 0.0293440684
vn 0.00392153847 -0.999992311 -0
vn 0.498035416 -0.709798506 0.498143358
vn 0.709798506 -0.498035416 0.498143358
vn -0.00392153871 -0.866660055 0.498883725
vn -0.231370784 -0.945090829 0.230804865
vn 0.00392153871 -0.866660055 0.498883725
vn 0.231370784 -0.945090829 0.230804865
vn -0.00392153871 -0.254900016 0.966959463
vn -0.231370784 -0.231370784 0.944952444
vn -0.254900016 -0.00392153871 0.966959463
vn -0.00392153871 -0.00392153871 0.999984621
vn 0.00392153871 -0.254900016 0.966959463
vn -0.00392153871 0.00392153871 0.999984621
vn -0.254900016 0.00392153871 0.966959463
vn -0.00392153871 0.254900016 0.966959463
vn -0.231370784 0.231370784 0.944952444
vn 0.00392153871 0.00392153871 0.999984621
vn 0.00392153871 0.254900016 0.966959463
vn 0.00392153871 -0.00392153871 0.999984621
vn 0.498035416 0.00392153871 0.867147822
vn 0.231370784 0.231370784 0.944952444
vn 0.498035416 -0.00392153871 0.867147822
vn 0.231370784 -0.231370784 0.944952444
vn 0.709798506 0.00392153871 0.704393854
vn 0.498035416 0.498035416 0.709874249
vn 0.709798506 -0.00392153871 0.704393854
vn 0.709798506 -0.498035416 0.498143358
vn 0.498035416 -0.498035416 0.709874249
vn 0.498035416 -0.709798506 0.498143358
vn 0.00392153871 -0.866660055 0.498883725
vn 0.00392153871 -0.709798506 0.704393854
vn -0.00392153871 -0.709798506 0.704393854
vn -0.00392153871 -0.866660055 0.498883725
vn -0.498035416 -0.709798506 0.498143358
vn -0.498035416 -0.498035416 0.709874249
vn -0.709798506 -0.498035416 0.498143358
vn -0.709798506 -0.00392153871 0.704393854
vn -0.709798506 -0.00392153871 0.704393854
vn -0.709798506 0.00392153871 0.704393854
vn -0.709798506 0.00392153871 0.704393854
vn -0.709798506 0.498035416 0.498143358
vn -0.498035416 0.498035416 0.709874249
vn -0.498035416 0.709798506 0.498143358
vn -0.00392153871 0.866660055 0.498883725
vn -0.498035416 0.866660055 0.0293440684
vn -0.00392153871 0.709798506 0.704393854
vn 0.00392153871 0.709798506 0.704393854
vn -0.231370784 0.945090829 0.230804865
vn -0.00392153847 0.999992311 -0
vn -0.00392153847 0.999992311 -0
vn 0.00392153847 0.999992311 -0
vn 0.00392153871 0.866660055 0.498883725
vn 0.00392153847 0.999992311 -0
vn 0.498035416 0.866660055 -0.0293440684
vn 0.231370784 0.945090829 -0.230804865
vn 0.498035416 0.709798506 0.498143358
vn 0.498035416 0.866660055 0.0293440684
vn 0.231370784 0.945090829 0.230804865
vn 0.709798506 0.498035416 0.498143358
vn 0.707106781 0.707106781 -0
vn 0.707106781 0.707106781 -0
vn 0.498035416 0.709798506 -0.498143358
vn 0.709798506 0.498035416 -0.498143358
vn 0.498035416 0.00392153871 -0.867147822
vn 0.709798506 0.00392153871 -0.704393854
vn 0.00392153871 0.00392153871 -0.999984621
vn 0.00392153871 0.254900016 -0.966959463
vn 0.231370784 0.231370784 -0.944952444
vn -0.00392153871 0.00392153871 -0.999984621
vn -0.00392153871 0.254900016 -0.966959463
vn 0.00392153871 -0.00392153871 -0.999984621
vn -0.254900016 0.00392153871 -0.966959463
vn -0.231370784 0.231370784 -0.944952444
vn -0.00392153871 -0.00392153871 -0.999984621
vn -0.254900016 -0.00392153871 -0.966959463
vn -0.00392153871 -0.254900016 -0.966959463
vn -0.231370784 -0.231370784 -0.944952444
vn 0.00392153871 -0.254900016 -0.966959463
vn 0.231370784 -0.231370784 -0.944952444
vn 0.967074537 -0.254493299 -0
vn 0.945090829 -0.231370784 0.230804865
vn 0.968620061 -0.00392153871 0.248515189
vn 0.999992311 -0.00392153847 -0
vn 0.967074537 -0.254493299 -0
vn 0.999992311 0.00392153847 -0
vn 0.968620061 0.00392153871 0.248515189
vn 0.967074537 0.254493299 -0
vn 0.945090829 0.231370784 0.230804865
vn 0.999992311 0.00392153847 -0
vn 0.967074537 0.254493299 -0
vn 0.999992311 -0.00392153847 -0
vn 0.968620061 0.00392153871 -0.248515189
vn 0.945090829 0.231370784 -0.230804865
vn 0.968620061 -0.00392153871 -0.248515189
vn 0.945090829 -0.231370784 -0.230804865
g polySurface36_0
f 3/3/3 2/2/2 1/1/1
f 4/4/4 3/3/3 1/1/1
f 1/1/1 5/5/5 4/4/4
f 4/4/4 6/6/6 3/3/3
f 6/6/6 7/7/7 3/3/3
f 5/5/5 8/8/8 4/4/4
f 4/4/4 8/8/8 6/6/6
f 6/6/6 9/9/9 7/7/7
f 9/9/9 10/10/10 7/7/7
f 9/9/9 6/6/6 11/11/11
f 8/8/8 11/11/11 6/6/6
f 12/12/12 9/9/9 11/11/11
f 11/11/11 13/13/13 12/12/12
f 13/13/13 11/11/11 8/8/8
f 13/13/13 14/14/14 12/12/12
f 15/15/15 13/13/13 8/8/8
f 8/8/8 5/5/5 15/15/15
f 5/5/5 16/16/16 15/15/15
f 19/19/19 18/18/18 17/17/17
f 20/20/20 19/19/19 17/17/17
f 20/20/20 21/21/21 19/19/19
f 21/21/21 22/22/22 19/19/19
f 22/22/22 21/21/21 23/23/23
f 21/21/21 24/24/24 23/23/23
f 24/24/24 25/25/25 23/23/23
f 26/26/26 23/23/23 25/25/25
f 22/22/22 27/27/27 26/26/26
f 28/28/28 25/25/25 24/24/24
f 29/29/29 28/28/28 24/24/24
f 30/30/30 26/26/26 25/25/25
f 28/28/28 29/29/29 31/31/31
f 32/32/32 28/28/28 31/31/31
f 32/32/32 31/31/31 33/33/33
f 31/31/31 34/34/34 33/33/33
f 30/30/30 35/35/35 26/26/26
f 34/34/34 36/36/36 33/33/33
f 37/37/37 33/33/33 36/36/36
f 38/38/38 36/36/36 34/34/34
f 39/39/39 38/38/38 34/34/34
f 40/40/40 37/37/37 36/36/36
f 38/38/38 39/39/39 41/41/41
f 40/40/40 42/42/42 38/38/38
f 40/40/40 43/43/43 37/37/37
f 43/43/43 44/44/44 37/37/37
f 44/44/44 43/43/43 45/45/45
f 35/35/35 46/46/46 26/26/26
f 26/26/26 46/46/46 47/47/47
f 47/47/47 22/22/22 26/26/26
f 46/46/46 35/35/35 48/48/48
f 35/35/35 49/49/49 48/48/48
f 48/48/48 49/49/49 50/50/50
f 51/51/51 48/48/48 50/50/50
f 46/46/46 52/52/52 51/51/51
f 53/53/53 50/50/50 49/49/49
f 54/54/54 51/51/51 50/50/50
f 55/55/55 53/53/53 49/49/49
f 51/51/51 54/54/54 56/56/56
f 57/57/57 46/46/46 51/51/51
f 46/46/46 57/57/57 47/47/47
f 22/22/22 47/47/47 58/58/58
f 19/19/19 22/22/22 58/58/58
f 59/59/59 51/51/51 56/56/56
f 57/57/57 51/51/51 59/59/59
f 57/57/57 60/60/60 47/47/47
f 60/60/60 58/58/58 47/47/47
f 60/60/60 57/57/57 59/59/59
f 59/59/59 56/56/56 61/61/61
f 56/56/56 62/62/62 61/61/61
f 58/58/58 63/63/63 19/19/19
f 58/58/58 60/60/60 63/63/63
f 63/63/63 64/64/64 19/19/19
f 60/60/60 65/65/65 63/63/63
f 60/60/60 59/59/59 65/65/65
f 59/59/59 66/66/66 65/65/65
f 69/69/69 68/68/68 67/67/67
f 70/70/70 69/69/69 67/67/67
f 67/67/67 71/71/71 70/70/70
f 70/70/70 72/72/72 69/69/69
f 72/72/72 73/73/73 69/69/69
f 72/72/72 74/74/74 73/73/73
f 74/74/74 75/75/75 73/73/73
f 72/72/72 76/76/76 74/74/74
f 76/76/76 72/72/72 70/70/70
f 76/76/76 77/77/77 74/74/74
f 71/71/71 78/78/78 70/70/70
f 78/78/78 76/76/76 70/70/70
f 76/76/76 79/79/79 77/77/77
f 79/79/79 76/76/76 78/78/78
f 79/79/79 80/80/80 77/77/77
f 78/78/78 71/71/71 81/81/81
f 81/81/81 79/79/79 78/78/78
f 71/71/71 82/82/82 81/81/81
f 83/83/83 79/79/79 81/81/81
f 79/79/79 83/83/83 84/84/84
f 85/85/85 83/83/83 81/81/81
f 85/85/85 81/81/81 86/86/86
f 81/81/81 87/87/87 86/86/86
f 86/86/86 87/87/87 88/88/88
f 89/89/89 88/88/88 87/87/87
f 90/90/90 89/89/89 87/87/87
f 89/89/89 90/90/90 91/91/91
f 92/92/92 89/89/89 91/91/91
f 92/92/92 91/91/91 93/93/93
f 91/91/91 94/94/94 93/93/93
f 93/93/93 94/94/94 95/95/95
f 96/96/96 95/95/95 94/94/94
f 97/97/97 96/96/96 94/94/94
f 97/97/97 98/98/98 96/96/96
f 98/98/98 99/99/99 96/96/96
f 99/99/99 98/98/98 100/100/100
f 98/98/98 101/101/101 100/100/100
f 100/100/100 101/101/101 102/102/102
f 41/41/41 100/100/100 102/102/102
f 103/103/103 102/102/102 101/101/101
f 104/104/104 41/41/41 102/102/102
f 105/105/105 103/103/103 101/101/101
f 104/104/104 38/38/38 41/41/41
f 105/105/105 106/106/106 103/103/103
f 104/104/104 107/107/107 103/103/103
f 108/108/108 38/38/38 104/104/104
f 108/108/108 40/40/40 38/38/38
f 109/109/109 104/104/104 103/103/103
f 109/109/109 108/108/108 104/104/104
f 108/108/108 110/110/110 40/40/40
f 110/110/110 108/108/108 109/109/109
f 110/110/110 43/43/43 40/40/40
f 106/106/106 111/111/111 103/103/103
f 103/103/103 111/111/111 109/109/109
f 112/112/112 110/110/110 109/109/109
f 111/111/111 112/112/112 109/109/109
f 110/110/110 113/113/113 43/43/43
f 113/113/113 110/110/110 112/112/112
f 113/113/113 114/114/114 43/43/43
f 111/111/111 106/106/106 115/115/115
f 106/106/106 84/84/84 115/115/115
f 112/112/112 111/111/111 116/116/116
f 116/116/116 113/113/113 112/112/112
f 111/111/111 117/117/117 116/116/116
f 115/115/115 84/84/84 118/118/118
f 116/116/116 115/115/115 118/118/118
f 83/83/83 118/118/118 84/84/84
f 119/119/119 116/116/116 118/118/118
f 119/119/119 120/120/120 116/116/116
f 120/120/120 113/113/113 116/116/116
f 113/113/113 120/120/120 121/121/121
f 43/43/43 121/121/121 45/45/45
f 120/120/120 122/122/122 121/121/121
f 45/45/45 121/121/121 122/122/122
f 123/123/123 45/45/45 122/122/122
f 124/124/124 123/123/123 122/122/122
f 124/124/124 53/53/53 123/123/123
f 53/53/53 55/55/55 123/123/123
f 123/123/123 55/55/55 125/125/125
f 125/125/125 126/126/126 123/123/123
f 126/126/126 127/127/127 123/123/123
f 126/126/126 125/125/125 128/128/128
f 129/129/129 126/126/126 128/128/128
f 55/55/55 130/130/130 125/125/125
f 125/125/125 130/130/130 128/128/128
f 128/128/128 131/131/131 129/129/129
f 131/131/131 132/132/132 129/129/129
f 128/128/128 133/133/133 131/131/131
f 130/130/130 133/133/133 128/128/128
f 133/133/133 134/134/134 131/131/131
f 133/133/133 135/135/135 134/134/134
f 133/133/133 130/130/130 135/135/135
f 135/135/135 136/136/136 134/134/134
f 130/130/130 137/137/137 135/135/135
f 130/130/130 55/55/55 137/137/137
f 55/55/55 138/138/138 137/137/137
f 141/141/141 140/140/140 139/139/139
f 142/142/142 141/141/141 139/139/139
f 139/139/139 143/143/143 142/142/142
f 142/142/142 144/144/144 141/141/141
f 144/144/144 145/145/145 141/141/141
f 144/144/144 146/146/146 145/145/145
f 146/146/146 147/147/147 145/145/145
f 144/144/144 148/148/148 146/146/146
f 148/148/148 144/144/144 142/142/142
f 148/148/148 149/149/149 146/146/146
f 143/143/143 150/150/150 142/142/142
f 150/150/150 148/148/148 142/142/142
f 148/148/148 151/151/151 149/149/149
f 148/148/148 150/150/150 151/151/151
f 151/151/151 152/152/152 149/149/149
f 150/150/150 153/153/153 151/151/151
f 150/150/150 143/143/143 153/153/153
f 143/143/143 154/154/154 153/153/153
