g QiCai_03QiCai_03_mobile
v -0.49495147 -1.38389946 0.0288764321
v -0.42159753 -1.36484844 1.58936026
v -0.49495147 -1.34519738 1.58936026
v -0.440998572 -1.39835024 0.0288764321
v -0.49495147 -1.3976002 -0.00297527904
v -0.367944647 -1.41850132 1.58936026
v -0.447798937 -1.41020088 -0.00297527904
v -0.40149645 -1.43785236 0.0288764321
v -0.348293592 -1.49180526 1.58936026
v -0.413347086 -1.44470273 -0.00297527904
v -0.387045673 -1.49180526 0.0288764321
v -0.367944647 -1.5651592 1.58936026
v -0.400696407 -1.49180526 -0.00297527904
v -0.40149645 -1.54575816 0.0288764321
v -0.42159753 -1.61881208 1.58936026
v -0.413347086 -1.53895779 -0.00297527904
v -0.440998572 -1.58526028 0.0288764321
v -0.49495147 -1.63846314 1.58936026
v -0.447798937 -1.57345965 -0.00297527904
v -0.49495147 -1.59976106 0.0288764321
v -0.568255408 -1.61881208 1.58936026
v -0.49495147 -1.58606032 -0.00297527904
v -0.548904369 -1.58526028 0.0288764321
v -0.621908291 -1.5651592 1.58936026
v -0.542054001 -1.57345965 -0.00297527904
v -0.588406491 -1.54575816 0.0288764321
v -0.641559346 -1.49180526 1.58936026
v -0.576555854 -1.53895779 -0.00297527904
v -0.602857267 -1.49180526 0.0288764321
v -0.621908291 -1.41850132 1.58936026
v -0.589156531 -1.49180526 -0.00297527904
v -0.588406491 -1.43785236 0.0288764321
v -0.568255408 -1.36484844 1.58936026
v -0.576555854 -1.44470273 -0.00297527904
v -0.548904369 -1.39835024 0.0288764321
v -0.49495147 -1.34519738 1.58936026
v -0.542054001 -1.41020088 -0.00297527904
v -0.49495147 -1.38389946 0.0288764321
v -0.49495147 -1.3976002 -0.00297527904
v -0.49495147 -1.3976002 -0.00297527904
v -0.413347086 -1.44470273 -0.00297527904
v -0.447798937 -1.41020088 -0.00297527904
v -0.576555854 -1.44470273 -0.00297527904
v -0.542054001 -1.41020088 -0.00297527904
v -0.49495147 -1.58606032 -0.00297527904
v -0.413347086 -1.53895779 -0.00297527904
v -0.400696407 -1.49180526 -0.00297527904
v -0.447798937 -1.57345965 -0.00297527904
v -0.576555854 -1.53895779 -0.00297527904
v -0.542054001 -1.57345965 -0.00297527904
v -0.589156531 -1.49180526 -0.00297527904
v 0.494951709 -1.38389946 0.0288764321
v 0.568255647 -1.36484844 1.58936026
v 0.494951709 -1.34519738 1.58936026
v 0.548904607 -1.39835024 0.0288764321
v 0.494951709 -1.3976002 -0.00297527904
v 0.621908529 -1.41850132 1.58936026
v 0.542054239 -1.41020088 -0.00297527904
v 0.588406729 -1.43785236 0.0288764321
v 0.641559585 -1.49180526 1.58936026
v 0.576556093 -1.44470273 -0.00297527904
v 0.602857505 -1.49180526 0.0288764321
v 0.621908529 -1.5651592 1.58936026
v 0.589156769 -1.49180526 -0.00297527904
v 0.588406729 -1.54575816 0.0288764321
v 0.568255647 -1.61881208 1.58936026
v 0.576556093 -1.53895779 -0.00297527904
v 0.548904607 -1.58526028 0.0288764321
v 0.494951709 -1.63846314 1.58936026
v 0.542054239 -1.57345965 -0.00297527904
v 0.494951709 -1.59976106 0.0288764321
v 0.421597768 -1.61881208 1.58936026
v 0.494951709 -1.58606032 -0.00297527904
v 0.44099881 -1.58526028 0.0288764321
v 0.367944886 -1.5651592 1.58936026
v 0.447799176 -1.57345965 -0.00297527904
v 0.401496688 -1.54575816 0.0288764321
v 0.34829383 -1.49180526 1.58936026
v 0.413347325 -1.53895779 -0.00297527904
v 0.387045912 -1.49180526 0.0288764321
v 0.367944886 -1.41850132 1.58936026
v 0.400696645 -1.49180526 -0.00297527904
v 0.401496688 -1.43785236 0.0288764321
v 0.421597768 -1.36484844 1.58936026
v 0.413347325 -1.44470273 -0.00297527904
v 0.44099881 -1.39835024 0.0288764321
v 0.494951709 -1.34519738 1.58936026
v 0.447799176 -1.41020088 -0.00297527904
v 0.494951709 -1.38389946 0.0288764321
v 0.494951709 -1.3976002 -0.00297527904
v 0.494951709 -1.3976002 -0.00297527904
v 0.576556093 -1.44470273 -0.00297527904
v 0.542054239 -1.41020088 -0.00297527904
v 0.413347325 -1.44470273 -0.00297527904
v 0.447799176 -1.41020088 -0.00297527904
v 0.494951709 -1.58606032 -0.00297527904
v 0.576556093 -1.53895779 -0.00297527904
v 0.589156769 -1.49180526 -0.00297527904
v 0.542054239 -1.57345965 -0.00297527904
v 0.413347325 -1.53895779 -0.00297527904
v 0.447799176 -1.57345965 -0.00297527904
v 0.400696645 -1.49180526 -0.00297527904
v 0.494951709 1.38389923 0.0288764321
v 0.421597768 1.3648482 1.58936026
v 0.494951709 1.34519715 1.58936026
v 0.44099881 1.39835 0.0288764321
v 0.494951709 1.39759996 -0.00297527904
v 0.367944886 1.41850108 1.58936026
v 0.447799176 1.41020064 -0.00297527904
v 0.401496688 1.43785212 0.0288764321
v 0.34829383 1.49180502 1.58936026
v 0.413347325 1.44470249 -0.00297527904
v 0.387045912 1.49180502 0.0288764321
v 0.367944886 1.56515896 1.58936026
v 0.400696645 1.49180502 -0.00297527904
v 0.401496688 1.54580792 0.0288764321
v 0.421597768 1.61881185 1.58936026
v 0.413347325 1.53895756 -0.00297527904
v 0.44099881 1.58526004 0.0288764321
v 0.494951709 1.6384629 1.58936026
v 0.447799176 1.57345941 -0.00297527904
v 0.494951709 1.59976082 0.0288764321
v 0.568255647 1.61881185 1.58936026
v 0.494951709 1.58606009 -0.00297527904
v 0.548904607 1.58526004 0.0288764321
v 0.621908529 1.56515896 1.58936026
v 0.542054239 1.57345941 -0.00297527904
v 0.588406729 1.54580792 0.0288764321
v 0.641559585 1.49180502 1.58936026
v 0.576556093 1.53895756 -0.00297527904
v 0.602857505 1.49180502 0.0288764321
v 0.621908529 1.41850108 1.58936026
v 0.589156769 1.49180502 -0.00297527904
v 0.588406729 1.43785212 0.0288764321
v 0.568255647 1.3648482 1.58936026
v 0.576556093 1.44470249 -0.00297527904
v 0.548904607 1.39835 0.0288764321
v 0.494951709 1.34519715 1.58936026
v 0.542054239 1.41020064 -0.00297527904
v 0.494951709 1.38389923 0.0288764321
v 0.494951709 1.39759996 -0.00297527904
v 0.494951709 1.58606009 -0.00297527904
v 0.576556093 1.53895756 -0.00297527904
v 0.542054239 1.57345941 -0.00297527904
v 0.413347325 1.53895756 -0.00297527904
v 0.447799176 1.57345941 -0.00297527904
v 0.494951709 1.39759996 -0.00297527904
v 0.576556093 1.44470249 -0.00297527904
v 0.589156769 1.49180502 -0.00297527904
v 0.542054239 1.41020064 -0.00297527904
v 0.413347325 1.44470249 -0.00297527904
v 0.447799176 1.41020064 -0.00297527904
v 0.400696645 1.49180502 -0.00297527904
v -0.49495147 1.38389923 0.0288764321
v -0.568255408 1.3648482 1.58936026
v -0.49495147 1.34519715 1.58936026
v -0.548904369 1.39835 0.0288764321
v -0.49495147 1.39759996 -0.00297527904
v -0.621908291 1.41850108 1.58936026
v -0.542054001 1.41020064 -0.00297527904
v -0.588406491 1.43785212 0.0288764321
v -0.641559346 1.49180502 1.58936026
v -0.576555854 1.44470249 -0.00297527904
v -0.602857267 1.49180502 0.0288764321
v -0.621908291 1.56515896 1.58936026
v -0.589156531 1.49180502 -0.00297527904
v -0.588406491 1.54580792 0.0288764321
v -0.568255408 1.61881185 1.58936026
v -0.576555854 1.53895756 -0.00297527904
v -0.548904369 1.58526004 0.0288764321
v -0.49495147 1.6384629 1.58936026
v -0.542054001 1.57345941 -0.00297527904
v -0.49495147 1.59976082 0.0288764321
v -0.42159753 1.61881185 1.58936026
v -0.49495147 1.58606009 -0.00297527904
v -0.440998572 1.58526004 0.0288764321
v -0.367944647 1.56515896 1.58936026
v -0.447798937 1.57345941 -0.00297527904
v -0.40149645 1.54580792 0.0288764321
v -0.348293592 1.49180502 1.58936026
v -0.413347086 1.53895756 -0.00297527904
v -0.387045673 1.49180502 0.0288764321
v -0.367944647 1.41850108 1.58936026
v -0.400696407 1.49180502 -0.00297527904
v -0.40149645 1.43785212 0.0288764321
v -0.42159753 1.3648482 1.58936026
v -0.413347086 1.44470249 -0.00297527904
v -0.440998572 1.39835 0.0288764321
v -0.49495147 1.34519715 1.58936026
v -0.447798937 1.41020064 -0.00297527904
v -0.49495147 1.38389923 0.0288764321
v -0.49495147 1.39759996 -0.00297527904
v -0.49495147 1.58606009 -0.00297527904
v -0.413347086 1.53895756 -0.00297527904
v -0.447798937 1.57345941 -0.00297527904
v -0.576555854 1.53895756 -0.00297527904
v -0.542054001 1.57345941 -0.00297527904
v -0.49495147 1.39759996 -0.00297527904
v -0.413347086 1.44470249 -0.00297527904
v -0.400696407 1.49180502 -0.00297527904
v -0.447798937 1.41020064 -0.00297527904
v -0.576555854 1.44470249 -0.00297527904
v -0.542054001 1.41020064 -0.00297527904
v -0.589156531 1.49180502 -0.00297527904
v -0.519352781 -1.44255261 1.323846
v -0.478300576 1.4654036 1.323846
v -0.519352781 1.4654036 1.323846
v -0.478300576 -1.44255261 1.323846
v -0.445048789 1.4654036 1.3479973
v -0.445048789 -1.44255261 1.3479973
v -0.432348107 1.4654036 1.38704939
v -0.432348107 -1.44255261 1.38704939
v -0.445048789 1.4654036 1.42610149
v -0.445048789 -1.44255261 1.42610149
v -0.478300576 1.4654036 1.45020279
v -0.478300576 -1.44255261 1.45020279
v -0.519352781 1.4654036 1.45020279
v -0.519352781 -1.44255261 1.45020279
v -0.552554565 1.4654036 1.42610149
v -0.552554565 -1.44255261 1.42610149
v -0.565255247 1.4654036 1.38704939
v -0.565255247 -1.44255261 1.38704939
v -0.552554565 1.4654036 1.3479973
v -0.552554565 -1.44255261 1.3479973
v -0.519352781 1.4654036 1.323846
v -0.519352781 -1.44255261 1.323846
v 0.524653304 -1.44255261 1.323846
v 0.557905091 1.4654036 1.3479973
v 0.524653304 1.4654036 1.323846
v 0.557905091 -1.44255261 1.3479973
v 0.57055577 1.4654036 1.38704939
v 0.57055577 -1.44255261 1.38704939
v 0.557905091 1.4654036 1.42610149
v 0.557905091 -1.44255261 1.42610149
v 0.524653304 1.4654036 1.45020279
v 0.524653304 -1.44255261 1.45020279
v 0.483601099 1.4654036 1.45020279
v 0.483601099 -1.44255261 1.45020279
v 0.450399315 1.4654036 1.42610149
v 0.450399315 -1.44255261 1.42610149
v 0.437698633 1.4654036 1.38704939
v 0.437698633 -1.44255261 1.38704939
v 0.450399315 1.4654036 1.3479973
v 0.450399315 -1.44255261 1.3479973
v 0.483601099 1.4654036 1.323846
v 0.483601099 -1.44255261 1.323846
v 0.524653304 1.4654036 1.323846
v 0.524653304 -1.44255261 1.323846
v 0.524703307 -1.0550818 1.35539769
v -0.516952652 -1.03508073 1.36189804
v -0.516952652 -1.0550818 1.35539769
v 0.524703307 -1.03508073 1.36189804
v -0.516952652 -1.02273006 1.37889896
v 0.524703307 -1.02273006 1.37889896
v -0.516952652 -1.02273006 1.39990009
v 0.524703307 -1.02273006 1.39990009
v -0.516952652 -1.03508073 1.416901
v 0.524703307 -1.03508073 1.416901
v -0.516952652 -1.0550818 1.42340135
v 0.524703307 -1.0550818 1.42340135
v -0.516952652 -1.07508287 1.416901
v 0.524703307 -1.07508287 1.416901
v -0.516952652 -1.08743354 1.39990009
v 0.524703307 -1.08743354 1.39990009
v -0.516952652 -1.08743354 1.37889896
v 0.524703307 -1.08743354 1.37889896
v -0.516952652 -1.07508287 1.36189804
v 0.524703307 -1.07508287 1.36189804
v -0.516952652 -1.0550818 1.35539769
v 0.524703307 -1.0550818 1.35539769
v 0.524703307 -0.520003054 1.35539769
v -0.516952652 -0.50000198 1.36189804
v -0.516952652 -0.520003054 1.35539769
v 0.524703307 -0.50000198 1.36189804
v -0.516952652 -0.487651316 1.37889896
v 0.524703307 -0.487651316 1.37889896
v -0.516952652 -0.487651316 1.39990009
v 0.524703307 -0.487651316 1.39990009
v -0.516952652 -0.50000198 1.416901
v 0.524703307 -0.50000198 1.416901
v -0.516952652 -0.520003054 1.42340135
v 0.524703307 -0.520003054 1.42340135
v -0.516952652 -0.540004129 1.416901
v 0.524703307 -0.540004129 1.416901
v -0.516952652 -0.552354792 1.39990009
v 0.524703307 -0.552354792 1.39990009
v -0.516952652 -0.552354792 1.37889896
v 0.524703307 -0.552354792 1.37889896
v -0.516952652 -0.540004129 1.36189804
v 0.524703307 -0.540004129 1.36189804
v -0.516952652 -0.520003054 1.35539769
v 0.524703307 -0.520003054 1.35539769
v 0.524703307 0.0442272567 1.35539769
v -0.516952652 0.0642283312 1.36189804
v -0.516952652 0.0442272567 1.35539769
v 0.524703307 0.0642283312 1.36189804
v -0.516952652 0.0765789947 1.37889896
v 0.524703307 0.0765789947 1.37889896
v -0.516952652 0.0765789947 1.39990009
v 0.524703307 0.0765789947 1.39990009
v -0.516952652 0.0642283312 1.416901
v 0.524703307 0.0642283312 1.416901
v -0.516952652 0.0442272567 1.42340135
v 0.524703307 0.0442272567 1.42340135
v -0.516952652 0.0242261823 1.416901
v 0.524703307 0.0242261823 1.416901
v -0.516952652 0.0118755188 1.39990009
v 0.524703307 0.0118755188 1.39990009
v -0.516952652 0.0118755188 1.37889896
v 0.524703307 0.0118755188 1.37889896
v -0.516952652 0.0242261823 1.36189804
v 0.524703307 0.0242261823 1.36189804
v -0.516952652 0.0442272567 1.35539769
v 0.524703307 0.0442272567 1.35539769
v 0.524703307 0.577455902 1.35539769
v -0.516952652 0.597456977 1.36189804
v -0.516952652 0.577455902 1.35539769
v 0.524703307 0.597456977 1.36189804
v -0.516952652 0.60980764 1.37889896
v 0.524703307 0.60980764 1.37889896
v -0.516952652 0.60980764 1.39990009
v 0.524703307 0.60980764 1.39990009
v -0.516952652 0.597456977 1.416901
v 0.524703307 0.597456977 1.416901
v -0.516952652 0.577455902 1.42340135
v 0.524703307 0.577455902 1.42340135
v -0.516952652 0.557454828 1.416901
v 0.524703307 0.557454828 1.416901
v -0.516952652 0.545104164 1.39990009
v 0.524703307 0.545104164 1.39990009
v -0.516952652 0.545104164 1.37889896
v 0.524703307 0.545104164 1.37889896
v -0.516952652 0.557454828 1.36189804
v 0.524703307 0.557454828 1.36189804
v -0.516952652 0.577455902 1.35539769
v 0.524703307 0.577455902 1.35539769
v 0.524703307 1.14798655 1.35539769
v -0.516952652 1.16798763 1.36189804
v -0.516952652 1.14798655 1.35539769
v 0.524703307 1.16798763 1.36189804
v -0.516952652 1.18033829 1.37889896
v 0.524703307 1.18033829 1.37889896
v -0.516952652 1.18033829 1.39990009
v 0.524703307 1.18033829 1.39990009
v -0.516952652 1.16798763 1.416901
v 0.524703307 1.16798763 1.416901
v -0.516952652 1.14798655 1.42340135
v 0.524703307 1.14798655 1.42340135
v -0.516952652 1.12798548 1.416901
v 0.524703307 1.12798548 1.416901
v -0.516952652 1.11563481 1.39990009
v 0.524703307 1.11563481 1.39990009
v -0.516952652 1.11563481 1.37889896
v 0.524703307 1.11563481 1.37889896
v -0.516952652 1.12798548 1.36189804
v 0.524703307 1.12798548 1.36189804
v -0.516952652 1.14798655 1.35539769
v 0.524703307 1.14798655 1.35539769
v -0.428097879 1.3760488 1.62121197
v -0.367944647 1.41850108 1.58936026
v -0.42159753 1.3648482 1.58936026
v -0.49495147 1.35814784 1.62121197
v -0.49495147 1.34519715 1.58936026
v -0.379145249 1.42500143 1.62121197
v -0.348293592 1.49180502 1.58936026
v -0.561805062 1.3760488 1.62121197
v -0.545254173 1.40470034 1.63436268
v -0.568255408 1.3648482 1.58936026
v -0.49495147 1.39119962 1.63436268
v -0.444648768 1.40470034 1.63436268
v -0.394346066 1.49180502 1.63436268
v -0.545254173 1.5789597 1.63436268
v -0.361244287 1.49180502 1.62121197
v -0.367944647 1.56515896 1.58936026
v -0.407796788 1.44150232 1.63436268
v -0.379145249 1.55865861 1.62121197
v -0.42159753 1.61881185 1.58936026
v -0.428097879 1.60761124 1.62121197
v -0.49495147 1.6384629 1.58936026
v -0.407796788 1.54210772 1.63436268
v -0.444648768 1.5789597 1.63436268
v -0.49495147 1.62551221 1.62121197
v -0.568255408 1.61881185 1.58936026
v -0.49495147 1.59241043 1.63436268
v -0.561805062 1.60761124 1.62121197
v -0.621908291 1.56515896 1.58936026
v -0.610707689 1.55865861 1.62121197
v -0.641559346 1.49180502 1.58936026
v -0.628658653 1.49180502 1.62121197
v -0.621908291 1.41850108 1.58936026
v -0.58205615 1.54210772 1.63436268
v -0.595556875 1.49180502 1.63436268
v -0.610707689 1.42500143 1.62121197
v -0.58205615 1.44150232 1.63436268
v 0.5618053 1.3760488 1.62121197
v 0.621908529 1.41850108 1.58936026
v 0.568255647 1.3648482 1.58936026
v 0.494951709 1.35814784 1.62121197
v 0.494951709 1.34519715 1.58936026
v 0.610707927 1.42500143 1.62121197
v 0.641559585 1.49180502 1.58936026
v 0.428098117 1.3760488 1.62121197
v 0.444649006 1.40470034 1.63436268
v 0.421597768 1.3648482 1.58936026
v 0.494951709 1.39119962 1.63436268
v 0.545254411 1.40470034 1.63436268
v 0.595557113 1.49180502 1.63436268
v 0.444649006 1.5789597 1.63436268
v 0.628658892 1.49180502 1.62121197
v 0.621908529 1.56515896 1.58936026
v 0.582056388 1.44150232 1.63436268
v 0.610707927 1.55865861 1.62121197
v 0.568255647 1.61881185 1.58936026
v 0.5618053 1.60761124 1.62121197
v 0.494951709 1.6384629 1.58936026
v 0.582056388 1.54210772 1.63436268
v 0.545254411 1.5789597 1.63436268
v 0.494951709 1.62551221 1.62121197
v 0.421597768 1.61881185 1.58936026
v 0.494951709 1.59241043 1.63436268
v 0.428098117 1.60761124 1.62121197
v 0.367944886 1.56515896 1.58936026
v 0.379145487 1.55865861 1.62121197
v 0.34829383 1.49180502 1.58936026
v 0.361244526 1.49180502 1.62121197
v 0.367944886 1.41850108 1.58936026
v 0.407797027 1.54210772 1.63436268
v 0.394346304 1.49180502 1.63436268
v 0.379145487 1.42500143 1.62121197
v 0.407797027 1.44150232 1.63436268
v 0.5618053 -1.60761148 1.62121197
v 0.621908529 -1.5651592 1.58936026
v 0.568255647 -1.61881208 1.58936026
v 0.494951709 -1.62551244 1.62121197
v 0.494951709 -1.63846314 1.58936026
v 0.610707927 -1.55865885 1.62121197
v 0.641559585 -1.49180526 1.58936026
v 0.428098117 -1.60761148 1.62121197
v 0.444649006 -1.57895994 1.63436268
v 0.421597768 -1.61881208 1.58936026
v 0.494951709 -1.59241067 1.63436268
v 0.545254411 -1.57895994 1.63436268
v 0.595557113 -1.49180526 1.63436268
v 0.444649006 -1.40470058 1.63436268
v 0.628658892 -1.49180526 1.62121197
v 0.621908529 -1.41850132 1.58936026
v 0.582056388 -1.54210796 1.63436268
v 0.610707927 -1.42495167 1.62121197
v 0.568255647 -1.36484844 1.58936026
v 0.5618053 -1.37604904 1.62121197
v 0.494951709 -1.34519738 1.58936026
v 0.582056388 -1.44150256 1.63436268
v 0.545254411 -1.40470058 1.63436268
v 0.494951709 -1.35814808 1.62121197
v 0.421597768 -1.36484844 1.58936026
v 0.494951709 -1.39119986 1.63436268
v 0.428098117 -1.37604904 1.62121197
v 0.367944886 -1.41850132 1.58936026
v 0.379145487 -1.42495167 1.62121197
v 0.34829383 -1.49180526 1.58936026
v 0.361244526 -1.49180526 1.62121197
v 0.367944886 -1.5651592 1.58936026
v 0.407797027 -1.44150256 1.63436268
v 0.394346304 -1.49180526 1.63436268
v 0.379145487 -1.55865885 1.62121197
v 0.407797027 -1.54210796 1.63436268
v -0.428097879 -1.60761148 1.62121197
v -0.367944647 -1.5651592 1.58936026
v -0.42159753 -1.61881208 1.58936026
v -0.49495147 -1.62551244 1.62121197
v -0.49495147 -1.63846314 1.58936026
v -0.379145249 -1.55865885 1.62121197
v -0.348293592 -1.49180526 1.58936026
v -0.561805062 -1.60761148 1.62121197
v -0.545254173 -1.57895994 1.63436268
v -0.568255408 -1.61881208 1.58936026
v -0.49495147 -1.59241067 1.63436268
v -0.444648768 -1.57895994 1.63436268
v -0.394346066 -1.49180526 1.63436268
v -0.545254173 -1.40470058 1.63436268
v -0.361244287 -1.49180526 1.62121197
v -0.367944647 -1.41850132 1.58936026
v -0.407796788 -1.54210796 1.63436268
v -0.379145249 -1.42495167 1.62121197
v -0.42159753 -1.36484844 1.58936026
v -0.428097879 -1.37604904 1.62121197
v -0.49495147 -1.34519738 1.58936026
v -0.407796788 -1.44150256 1.63436268
v -0.444648768 -1.40470058 1.63436268
v -0.49495147 -1.35814808 1.62121197
v -0.568255408 -1.36484844 1.58936026
v -0.49495147 -1.39119986 1.63436268
v -0.561805062 -1.37604904 1.62121197
v -0.621908291 -1.41850132 1.58936026
v -0.610707689 -1.42495167 1.62121197
v -0.641559346 -1.49180526 1.58936026
v -0.628658653 -1.49180526 1.62121197
v -0.621908291 -1.5651592 1.58936026
v -0.58205615 -1.44150256 1.63436268
v -0.595556875 -1.49180526 1.63436268
v -0.610707689 -1.55865885 1.62121197
v -0.58205615 -1.54210796 1.63436268
vt 0.784803144 0.244602046
vt 0.779082406 0.391706732
vt 0.784803144 0.391706732
vt 0.779082406 0.244602046
vt 0.784803144 0.241333053
vt 0.773361668 0.391706732
vt 0.779082406 0.241333053
vt 0.773361668 0.244602046
vt 0.767640931 0.391706732
vt 0.773361668 0.241333053
vt 0.767640931 0.244602046
vt 0.762737441 0.391706732
vt 0.767640931 0.241333053
vt 0.762737441 0.244602046
vt 0.757016703 0.391706732
vt 0.762737441 0.241333053
vt 0.757016703 0.244602046
vt 0.751295965 0.391706732
vt 0.757016703 0.241333053
vt 0.751295965 0.244602046
vt 0.745575228 0.391706732
vt 0.751295965 0.241333053
vt 0.745575228 0.244602046
vt 0.73985449 0.391706732
vt 0.745575228 0.241333053
vt 0.73985449 0.244602046
vt 0.734133752 0.391706732
vt 0.73985449 0.241333053
vt 0.734133752 0.244602046
vt 0.729230262 0.391706732
vt 0.734133752 0.241333053
vt 0.729230262 0.244602046
vt 0.723509525 0.391706732
vt 0.729230262 0.241333053
vt 0.723509525 0.244602046
vt 0.717788787 0.391706732
vt 0.723509525 0.241333053
vt 0.717788787 0.244602046
vt 0.717788787 0.241333053
vt 0.825665557 0.609094769
vt 0.833838039 0.613998258
vt 0.829751798 0.610729265
vt 0.817493074 0.613998258
vt 0.820762067 0.610729265
vt 0.825665557 0.627891479
vt 0.833838039 0.623805237
vt 0.834655288 0.618901748
vt 0.829751798 0.62707423
vt 0.817493074 0.623805237
vt 0.820762067 0.62707423
vt 0.815858578 0.618901748
vt 0.864893473 0.244602046
vt 0.859172735 0.391706732
vt 0.864893473 0.391706732
vt 0.859172735 0.244602046
vt 0.864893473 0.241333053
vt 0.853451998 0.391706732
vt 0.859172735 0.241333053
vt 0.853451998 0.244602046
vt 0.84773126 0.391706732
vt 0.853451998 0.241333053
vt 0.84773126 0.244602046
vt 0.84282777 0.391706732
vt 0.84773126 0.241333053
vt 0.84282777 0.244602046
vt 0.837107032 0.391706732
vt 0.84282777 0.241333053
vt 0.837107032 0.244602046
vt 0.831386295 0.391706732
vt 0.837107032 0.241333053
vt 0.831386295 0.244602046
vt 0.825665557 0.391706732
vt 0.831386295 0.241333053
vt 0.825665557 0.244602046
vt 0.819944819 0.391706732
vt 0.825665557 0.241333053
vt 0.819944819 0.244602046
vt 0.814224081 0.391706732
vt 0.819944819 0.241333053
vt 0.814224081 0.244602046
vt 0.809320592 0.391706732
vt 0.814224081 0.241333053
vt 0.809320592 0.244602046
vt 0.803599854 0.391706732
vt 0.809320592 0.241333053
vt 0.803599854 0.244602046
vt 0.797879116 0.391706732
vt 0.803599854 0.241333053
vt 0.797879116 0.244602046
vt 0.797879116 0.241333053
vt 0.846914011 0.609094769
vt 0.855086494 0.613998258
vt 0.851000253 0.610729265
vt 0.838741529 0.613998258
vt 0.842010522 0.610729265
vt 0.846914011 0.627891479
vt 0.855086494 0.623805237
vt 0.855903742 0.618901748
vt 0.851000253 0.62707423
vt 0.838741529 0.623805237
vt 0.842010522 0.62707423
vt 0.837107032 0.618901748
vt 0.86652797 0.40233096
vt 0.860807232 0.558425377
vt 0.86652797 0.558425377
vt 0.860807232 0.40233096
vt 0.86652797 0.399061966
vt 0.855086494 0.558425377
vt 0.860807232 0.399061966
vt 0.855086494 0.40233096
vt 0.848548508 0.558425377
vt 0.855086494 0.399061966
vt 0.848548508 0.40233096
vt 0.84282777 0.558425377
vt 0.848548508 0.399061966
vt 0.84282777 0.40233096
vt 0.837107032 0.558425377
vt 0.84282777 0.399061966
vt 0.837107032 0.40233096
vt 0.831386295 0.558425377
vt 0.837107032 0.399061966
vt 0.831386295 0.40233096
vt 0.825665557 0.558425377
vt 0.831386295 0.399061966
vt 0.825665557 0.40233096
vt 0.819127571 0.558425377
vt 0.825665557 0.399061966
vt 0.819127571 0.40233096
vt 0.813406833 0.558425377
vt 0.819127571 0.399061966
vt 0.813406833 0.40233096
vt 0.807686095 0.558425377
vt 0.813406833 0.399061966
vt 0.807686095 0.40233096
vt 0.801965357 0.558425377
vt 0.807686095 0.399061966
vt 0.801965357 0.40233096
vt 0.795427371 0.558425377
vt 0.801965357 0.399061966
vt 0.795427371 0.40233096
vt 0.795427371 0.399061966
vt 0.846914011 0.630343223
vt 0.855086494 0.635246713
vt 0.851000253 0.63197772
vt 0.838741529 0.635246713
vt 0.842010522 0.63197772
vt 0.846914011 0.649139933
vt 0.855086494 0.644236444
vt 0.855903742 0.639332954
vt 0.851000253 0.647505437
vt 0.838741529 0.644236444
vt 0.842010522 0.647505437
vt 0.837107032 0.639332954
vt 0.785620392 0.40233096
vt 0.779899654 0.558425377
vt 0.785620392 0.558425377
vt 0.779899654 0.40233096
vt 0.785620392 0.399061966
vt 0.774178917 0.558425377
vt 0.779899654 0.399061966
vt 0.774178917 0.40233096
vt 0.768458179 0.558425377
vt 0.774178917 0.399061966
vt 0.768458179 0.40233096
vt 0.761920193 0.558425377
vt 0.768458179 0.399061966
vt 0.761920193 0.40233096
vt 0.756199455 0.558425377
vt 0.761920193 0.399061966
vt 0.756199455 0.40233096
vt 0.750478717 0.558425377
vt 0.756199455 0.399061966
vt 0.750478717 0.40233096
vt 0.744757979 0.558425377
vt 0.750478717 0.399061966
vt 0.744757979 0.40233096
vt 0.738219993 0.558425377
vt 0.744757979 0.399061966
vt 0.738219993 0.40233096
vt 0.732499255 0.558425377
vt 0.738219993 0.399061966
vt 0.732499255 0.40233096
vt 0.726778518 0.558425377
vt 0.732499255 0.399061966
vt 0.726778518 0.40233096
vt 0.72105778 0.558425377
vt 0.726778518 0.399061966
vt 0.72105778 0.40233096
vt 0.715337042 0.558425377
vt 0.72105778 0.399061966
vt 0.715337042 0.40233096
vt 0.715337042 0.399061966
vt 0.825665557 0.630343223
vt 0.833838039 0.635246713
vt 0.829751798 0.63197772
vt 0.817493074 0.635246713
vt 0.820762067 0.63197772
vt 0.825665557 0.649139933
vt 0.833838039 0.644236444
vt 0.834655288 0.639332954
vt 0.829751798 0.647505437
vt 0.817493074 0.644236444
vt 0.820762067 0.647505437
vt 0.815858578 0.639332954
vt 0.944983802 0.700626573
vt 0.940897561 0.989932456
vt 0.944983802 0.989932456
vt 0.940897561 0.700626573
vt 0.93681132 0.989932456
vt 0.93681132 0.700626573
vt 0.932725078 0.989932456
vt 0.932725078 0.700626573
vt 0.928638837 0.989932456
vt 0.928638837 0.700626573
vt 0.924552596 0.989932456
vt 0.924552596 0.700626573
vt 0.920466355 0.989932456
vt 0.920466355 0.700626573
vt 0.916380113 0.989932456
vt 0.916380113 0.700626573
vt 0.912293872 0.989932456
vt 0.912293872 0.700626573
vt 0.908207631 0.989932456
vt 0.908207631 0.700626573
vt 0.904121389 0.989932456
vt 0.904121389 0.700626573
vt 0.99320145 0.700626573
vt 0.989115208 0.989932456
vt 0.99320145 0.989932456
vt 0.989115208 0.700626573
vt 0.985028967 0.989932456
vt 0.985028967 0.700626573
vt 0.980942726 0.989932456
vt 0.980942726 0.700626573
vt 0.976856484 0.989932456
vt 0.976856484 0.700626573
vt 0.972770243 0.989932456
vt 0.972770243 0.700626573
vt 0.968684002 0.989932456
vt 0.968684002 0.700626573
vt 0.964597761 0.989932456
vt 0.964597761 0.700626573
vt 0.960511519 0.989932456
vt 0.960511519 0.700626573
vt 0.956425278 0.989932456
vt 0.956425278 0.700626573
vt 0.952339037 0.989932456
vt 0.952339037 0.700626573
vt 0.494680013 0.302626672
vt 0.390889484 0.300174927
vt 0.390889484 0.302626672
vt 0.494680013 0.300174927
vt 0.390889484 0.297723183
vt 0.494680013 0.297723183
vt 0.390889484 0.296088686
vt 0.494680013 0.296088686
vt 0.390889484 0.293636941
vt 0.494680013 0.293636941
vt 0.390889484 0.292002445
vt 0.494680013 0.292002445
vt 0.390889484 0.2895507
vt 0.494680013 0.2895507
vt 0.390889484 0.287916204
vt 0.494680013 0.287916204
vt 0.390889484 0.285464459
vt 0.494680013 0.285464459
vt 0.390889484 0.283829962
vt 0.494680013 0.283829962
vt 0.390889484 0.281378217
vt 0.494680013 0.281378217
vt 0.494680013 0.271571238
vt 0.390889484 0.269119494
vt 0.390889484 0.271571238
vt 0.494680013 0.269119494
vt 0.390889484 0.266667749
vt 0.494680013 0.266667749
vt 0.390889484 0.265033252
vt 0.494680013 0.265033252
vt 0.390889484 0.262581508
vt 0.494680013 0.262581508
vt 0.390889484 0.260947011
vt 0.494680013 0.260947011
vt 0.390889484 0.258495266
vt 0.494680013 0.258495266
vt 0.390889484 0.25686077
vt 0.494680013 0.25686077
vt 0.390889484 0.254409025
vt 0.494680013 0.254409025
vt 0.390889484 0.25195728
vt 0.494680013 0.25195728
vt 0.390889484 0.250322784
vt 0.494680013 0.250322784
vt 0.494680013 0.23806406
vt 0.390889484 0.235612315
vt 0.390889484 0.23806406
vt 0.494680013 0.235612315
vt 0.390889484 0.233977819
vt 0.494680013 0.233977819
vt 0.390889484 0.231526074
vt 0.494680013 0.231526074
vt 0.390889484 0.229891577
vt 0.494680013 0.229891577
vt 0.390889484 0.227439832
vt 0.494680013 0.227439832
vt 0.390889484 0.225805336
vt 0.494680013 0.225805336
vt 0.390889484 0.223353591
vt 0.494680013 0.223353591
vt 0.390889484 0.220901846
vt 0.494680013 0.220901846
vt 0.390889484 0.21926735
vt 0.494680013 0.21926735
vt 0.390889484 0.216815605
vt 0.494680013 0.216815605
vt 0.494680013 0.208643123
vt 0.390889484 0.207008626
vt 0.390889484 0.208643123
vt 0.494680013 0.207008626
vt 0.390889484 0.204556881
vt 0.494680013 0.204556881
vt 0.390889484 0.202922385
vt 0.494680013 0.202922385
vt 0.390889484 0.20047064
vt 0.494680013 0.20047064
vt 0.390889484 0.198836143
vt 0.494680013 0.198836143
vt 0.390889484 0.196384399
vt 0.494680013 0.196384399
vt 0.390889484 0.193932654
vt 0.494680013 0.193932654
vt 0.390889484 0.192298157
vt 0.494680013 0.192298157
vt 0.390889484 0.189846413
vt 0.494680013 0.189846413
vt 0.390889484 0.188211916
vt 0.494680013 0.188211916
vt 0.494680013 0.178404937
vt 0.390889484 0.175953192
vt 0.390889484 0.178404937
vt 0.494680013 0.175953192
vt 0.390889484 0.173501447
vt 0.494680013 0.173501447
vt 0.390889484 0.171866951
vt 0.494680013 0.171866951
vt 0.390889484 0.169415206
vt 0.494680013 0.169415206
vt 0.390889484 0.16778071
vt 0.494680013 0.16778071
vt 0.390889484 0.165328965
vt 0.494680013 0.165328965
vt 0.390889484 0.163694468
vt 0.494680013 0.163694468
vt 0.390889484 0.161242724
vt 0.494680013 0.161242724
vt 0.390889484 0.159608227
vt 0.494680013 0.159608227
vt 0.390889484 0.157156482
vt 0.494680013 0.157156482
vt 0.728413014 0.569866852
vt 0.735768248 0.573135845
vt 0.730047511 0.566597859
vt 0.721875028 0.567415107
vt 0.721875028 0.564146114
vt 0.733316504 0.574770342
vt 0.738219993 0.581308328
vt 0.715337042 0.569866852
vt 0.716971539 0.572318597
vt 0.712885297 0.566597859
vt 0.721875028 0.571501349
vt 0.726778518 0.572318597
vt 0.731682007 0.581308328
vt 0.71615429 0.58948081
vt 0.734951 0.581308328
vt 0.735768248 0.58948081
vt 0.730047511 0.576404838
vt 0.733316504 0.587846314
vt 0.730047511 0.596018796
vt 0.728413014 0.592749803
vt 0.72105778 0.597653293
vt 0.730047511 0.586211817
vt 0.725961269 0.58948081
vt 0.72105778 0.5943843
vt 0.712885297 0.596018796
vt 0.72105778 0.591115307
vt 0.714519794 0.592749803
vt 0.707164559 0.58948081
vt 0.709616304 0.587846314
vt 0.704712815 0.581308328
vt 0.707981808 0.581308328
vt 0.707164559 0.572318597
vt 0.712885297 0.586211817
vt 0.711250801 0.581308328
vt 0.709616304 0.573953094
vt 0.712885297 0.576404838
vt 0.769275427 0.569866852
vt 0.776630661 0.573135845
vt 0.770909924 0.566597859
vt 0.761920193 0.567415107
vt 0.761920193 0.564146114
vt 0.773361668 0.574770342
vt 0.779082406 0.581308328
vt 0.755382207 0.569866852
vt 0.757016703 0.572318597
vt 0.75374771 0.566597859
vt 0.761920193 0.571501349
vt 0.766823682 0.572318597
vt 0.771727172 0.581308328
vt 0.757016703 0.58948081
vt 0.775813413 0.581308328
vt 0.776630661 0.58948081
vt 0.770909924 0.576404838
vt 0.773361668 0.587846314
vt 0.770092675 0.596018796
vt 0.768458179 0.592749803
vt 0.761920193 0.597653293
vt 0.770909924 0.586211817
vt 0.766823682 0.58948081
vt 0.761920193 0.5943843
vt 0.75374771 0.596018796
vt 0.761920193 0.591115307
vt 0.755382207 0.592749803
vt 0.747209724 0.58948081
vt 0.750478717 0.587846314
vt 0.745575228 0.581308328
vt 0.748844221 0.581308328
vt 0.747209724 0.572318597
vt 0.75374771 0.586211817
vt 0.752113214 0.581308328
vt 0.750478717 0.573953094
vt 0.75374771 0.576404838
vt 0.848548508 0.569866852
vt 0.855903742 0.573135845
vt 0.850183004 0.566597859
vt 0.841193274 0.567415107
vt 0.841193274 0.564146114
vt 0.852634749 0.574770342
vt 0.858355487 0.581308328
vt 0.834655288 0.569866852
vt 0.836289784 0.572318597
vt 0.833020791 0.566597859
vt 0.841193274 0.571501349
vt 0.846096763 0.572318597
vt 0.851000253 0.581308328
vt 0.836289784 0.58948081
vt 0.855086494 0.581308328
vt 0.855903742 0.58948081
vt 0.850183004 0.576404838
vt 0.852634749 0.587846314
vt 0.849365756 0.596018796
vt 0.84773126 0.592749803
vt 0.841193274 0.597653293
vt 0.850183004 0.586211817
vt 0.846096763 0.58948081
vt 0.841193274 0.5943843
vt 0.833020791 0.596018796
vt 0.841193274 0.591115307
vt 0.834655288 0.592749803
vt 0.826482805 0.58948081
vt 0.829751798 0.587846314
vt 0.824848309 0.581308328
vt 0.828117302 0.581308328
vt 0.827300053 0.572318597
vt 0.833020791 0.586211817
vt 0.831386295 0.581308328
vt 0.829751798 0.573953094
vt 0.833020791 0.576404838
vt 0.808503343 0.569866852
vt 0.815858578 0.573135845
vt 0.81013784 0.566597859
vt 0.801965357 0.567415107
vt 0.801965357 0.564146114
vt 0.813406833 0.574770342
vt 0.818310322 0.581308328
vt 0.794610123 0.569866852
vt 0.79624462 0.572318597
vt 0.792975626 0.566597859
vt 0.801965357 0.571501349
vt 0.806868847 0.572318597
vt 0.810955088 0.581308328
vt 0.79624462 0.58948081
vt 0.815041329 0.581308328
vt 0.815858578 0.58948081
vt 0.81013784 0.576404838
vt 0.812589585 0.587846314
vt 0.809320592 0.596018796
vt 0.807686095 0.592749803
vt 0.801148109 0.597653293
vt 0.81013784 0.586211817
vt 0.806051599 0.58948081
vt 0.801148109 0.5943843
vt 0.792975626 0.596018796
vt 0.801148109 0.591115307
vt 0.794610123 0.592749803
vt 0.78643764 0.58948081
vt 0.789706633 0.587846314
vt 0.784803144 0.581308328
vt 0.788072137 0.581308328
vt 0.787254889 0.572318597
vt 0.792975626 0.586211817
vt 0.79134113 0.581308328
vt 0.789706633 0.573953094
vt 0.792975626 0.576404838
g QiCai_03QiCai_03_mobile_0
f 3/3/3 2/2/2 1/1/1
f 4/4/4 1/1/1 2/2/2
f 1/1/1 4/4/4 5/5/5
f 2/2/2 6/6/6 4/4/4
f 7/7/7 5/5/5 4/4/4
f 8/8/8 4/4/4 6/6/6
f 4/4/4 8/8/8 7/7/7
f 6/6/6 9/9/9 8/8/8
f 10/10/10 7/7/7 8/8/8
f 11/11/11 8/8/8 9/9/9
f 8/8/8 11/11/11 10/10/10
f 9/9/9 12/12/12 11/11/11
f 13/13/13 10/10/10 11/11/11
f 14/14/14 11/11/11 12/12/12
f 11/11/11 14/14/14 13/13/13
f 12/12/12 15/15/15 14/14/14
f 16/16/16 13/13/13 14/14/14
f 17/17/17 14/14/14 15/15/15
f 14/14/14 17/17/17 16/16/16
f 15/15/15 18/18/18 17/17/17
f 19/19/19 16/16/16 17/17/17
f 20/20/20 17/17/17 18/18/18
f 17/17/17 20/20/20 19/19/19
f 18/18/18 21/21/21 20/20/20
f 22/22/22 19/19/19 20/20/20
f 23/23/23 20/20/20 21/21/21
f 20/20/20 23/23/23 22/22/22
f 21/21/21 24/24/24 23/23/23
f 25/25/25 22/22/22 23/23/23
f 26/26/26 23/23/23 24/24/24
f 23/23/23 26/26/26 25/25/25
f 24/24/24 27/27/27 26/26/26
f 28/28/28 25/25/25 26/26/26
f 29/29/29 26/26/26 27/27/27
f 26/26/26 29/29/29 28/28/28
f 27/27/27 30/30/30 29/29/29
f 31/31/31 28/28/28 29/29/29
f 32/32/32 29/29/29 30/30/30
f 29/29/29 32/32/32 31/31/31
f 30/30/30 33/33/33 32/32/32
f 34/34/34 31/31/31 32/32/32
f 35/35/35 32/32/32 33/33/33
f 32/32/32 35/35/35 34/34/34
f 33/33/33 36/36/36 35/35/35
f 37/37/37 34/34/34 35/35/35
f 38/38/38 35/35/35 36/36/36
f 35/35/35 38/38/38 37/37/37
f 39/39/39 37/37/37 38/38/38
f 42/42/42 41/41/41 40/40/40
f 41/41/41 43/43/43 40/40/40
f 43/43/43 44/44/44 40/40/40
f 45/45/45 43/43/43 41/41/41
f 46/46/46 45/45/45 41/41/41
f 47/47/47 46/46/46 41/41/41
f 48/48/48 45/45/45 46/46/46
f 49/49/49 43/43/43 45/45/45
f 50/50/50 49/49/49 45/45/45
f 51/51/51 43/43/43 49/49/49
f 54/54/54 53/53/53 52/52/52
f 55/55/55 52/52/52 53/53/53
f 52/52/52 55/55/55 56/56/56
f 53/53/53 57/57/57 55/55/55
f 58/58/58 56/56/56 55/55/55
f 59/59/59 55/55/55 57/57/57
f 55/55/55 59/59/59 58/58/58
f 57/57/57 60/60/60 59/59/59
f 61/61/61 58/58/58 59/59/59
f 62/62/62 59/59/59 60/60/60
f 59/59/59 62/62/62 61/61/61
f 60/60/60 63/63/63 62/62/62
f 64/64/64 61/61/61 62/62/62
f 65/65/65 62/62/62 63/63/63
f 62/62/62 65/65/65 64/64/64
f 63/63/63 66/66/66 65/65/65
f 67/67/67 64/64/64 65/65/65
f 68/68/68 65/65/65 66/66/66
f 65/65/65 68/68/68 67/67/67
f 66/66/66 69/69/69 68/68/68
f 70/70/70 67/67/67 68/68/68
f 71/71/71 68/68/68 69/69/69
f 68/68/68 71/71/71 70/70/70
f 69/69/69 72/72/72 71/71/71
f 73/73/73 70/70/70 71/71/71
f 74/74/74 71/71/71 72/72/72
f 71/71/71 74/74/74 73/73/73
f 72/72/72 75/75/75 74/74/74
f 76/76/76 73/73/73 74/74/74
f 77/77/77 74/74/74 75/75/75
f 74/74/74 77/77/77 76/76/76
f 75/75/75 78/78/78 77/77/77
f 79/79/79 76/76/76 77/77/77
f 80/80/80 77/77/77 78/78/78
f 77/77/77 80/80/80 79/79/79
f 78/78/78 81/81/81 80/80/80
f 82/82/82 79/79/79 80/80/80
f 83/83/83 80/80/80 81/81/81
f 80/80/80 83/83/83 82/82/82
f 81/81/81 84/84/84 83/83/83
f 85/85/85 82/82/82 83/83/83
f 86/86/86 83/83/83 84/84/84
f 83/83/83 86/86/86 85/85/85
f 84/84/84 87/87/87 86/86/86
f 88/88/88 85/85/85 86/86/86
f 89/89/89 86/86/86 87/87/87
f 86/86/86 89/89/89 88/88/88
f 90/90/90 88/88/88 89/89/89
f 93/93/93 92/92/92 91/91/91
f 92/92/92 94/94/94 91/91/91
f 94/94/94 95/95/95 91/91/91
f 96/96/96 94/94/94 92/92/92
f 97/97/97 96/96/96 92/92/92
f 98/98/98 97/97/97 92/92/92
f 99/99/99 96/96/96 97/97/97
f 100/100/100 94/94/94 96/96/96
f 101/101/101 100/100/100 96/96/96
f 102/102/102 94/94/94 100/100/100
f 105/105/105 104/104/104 103/103/103
f 106/106/106 103/103/103 104/104/104
f 103/103/103 106/106/106 107/107/107
f 104/104/104 108/108/108 106/106/106
f 109/109/109 107/107/107 106/106/106
f 110/110/110 106/106/106 108/108/108
f 106/106/106 110/110/110 109/109/109
f 108/108/108 111/111/111 110/110/110
f 112/112/112 109/109/109 110/110/110
f 113/113/113 110/110/110 111/111/111
f 110/110/110 113/113/113 112/112/112
f 111/111/111 114/114/114 113/113/113
f 115/115/115 112/112/112 113/113/113
f 116/116/116 113/113/113 114/114/114
f 113/113/113 116/116/116 115/115/115
f 114/114/114 117/117/117 116/116/116
f 118/118/118 115/115/115 116/116/116
f 119/119/119 116/116/116 117/117/117
f 116/116/116 119/119/119 118/118/118
f 117/117/117 120/120/120 119/119/119
f 121/121/121 118/118/118 119/119/119
f 122/122/122 119/119/119 120/120/120
f 119/119/119 122/122/122 121/121/121
f 120/120/120 123/123/123 122/122/122
f 124/124/124 121/121/121 122/122/122
f 125/125/125 122/122/122 123/123/123
f 122/122/122 125/125/125 124/124/124
f 123/123/123 126/126/126 125/125/125
f 127/127/127 124/124/124 125/125/125
f 128/128/128 125/125/125 126/126/126
f 125/125/125 128/128/128 127/127/127
f 126/126/126 129/129/129 128/128/128
f 130/130/130 127/127/127 128/128/128
f 131/131/131 128/128/128 129/129/129
f 128/128/128 131/131/131 130/130/130
f 129/129/129 132/132/132 131/131/131
f 133/133/133 130/130/130 131/131/131
f 134/134/134 131/131/131 132/132/132
f 131/131/131 134/134/134 133/133/133
f 132/132/132 135/135/135 134/134/134
f 136/136/136 133/133/133 134/134/134
f 137/137/137 134/134/134 135/135/135
f 134/134/134 137/137/137 136/136/136
f 135/135/135 138/138/138 137/137/137
f 139/139/139 136/136/136 137/137/137
f 140/140/140 137/137/137 138/138/138
f 137/137/137 140/140/140 139/139/139
f 141/141/141 139/139/139 140/140/140
f 144/144/144 143/143/143 142/142/142
f 143/143/143 145/145/145 142/142/142
f 145/145/145 146/146/146 142/142/142
f 147/147/147 145/145/145 143/143/143
f 148/148/148 147/147/147 143/143/143
f 149/149/149 148/148/148 143/143/143
f 150/150/150 147/147/147 148/148/148
f 151/151/151 145/145/145 147/147/147
f 152/152/152 151/151/151 147/147/147
f 153/153/153 145/145/145 151/151/151
f 156/156/156 155/155/155 154/154/154
f 157/157/157 154/154/154 155/155/155
f 154/154/154 157/157/157 158/158/158
f 155/155/155 159/159/159 157/157/157
f 160/160/160 158/158/158 157/157/157
f 161/161/161 157/157/157 159/159/159
f 157/157/157 161/161/161 160/160/160
f 159/159/159 162/162/162 161/161/161
f 163/163/163 160/160/160 161/161/161
f 164/164/164 161/161/161 162/162/162
f 161/161/161 164/164/164 163/163/163
f 162/162/162 165/165/165 164/164/164
f 166/166/166 163/163/163 164/164/164
f 167/167/167 164/164/164 165/165/165
f 164/164/164 167/167/167 166/166/166
f 165/165/165 168/168/168 167/167/167
f 169/169/169 166/166/166 167/167/167
f 170/170/170 167/167/167 168/168/168
f 167/167/167 170/170/170 169/169/169
f 168/168/168 171/171/171 170/170/170
f 172/172/172 169/169/169 170/170/170
f 173/173/173 170/170/170 171/171/171
f 170/170/170 173/173/173 172/172/172
f 171/171/171 174/174/174 173/173/173
f 175/175/175 172/172/172 173/173/173
f 176/176/176 173/173/173 174/174/174
f 173/173/173 176/176/176 175/175/175
f 174/174/174 177/177/177 176/176/176
f 178/178/178 175/175/175 176/176/176
f 179/179/179 176/176/176 177/177/177
f 176/176/176 179/179/179 178/178/178
f 177/177/177 180/180/180 179/179/179
f 181/181/181 178/178/178 179/179/179
f 182/182/182 179/179/179 180/180/180
f 179/179/179 182/182/182 181/181/181
f 180/180/180 183/183/183 182/182/182
f 184/184/184 181/181/181 182/182/182
f 185/185/185 182/182/182 183/183/183
f 182/182/182 185/185/185 184/184/184
f 183/183/183 186/186/186 185/185/185
f 187/187/187 184/184/184 185/185/185
f 188/188/188 185/185/185 186/186/186
f 185/185/185 188/188/188 187/187/187
f 186/186/186 189/189/189 188/188/188
f 190/190/190 187/187/187 188/188/188
f 191/191/191 188/188/188 189/189/189
f 188/188/188 191/191/191 190/190/190
f 192/192/192 190/190/190 191/191/191
f 195/195/195 194/194/194 193/193/193
f 194/194/194 196/196/196 193/193/193
f 196/196/196 197/197/197 193/193/193
f 198/198/198 196/196/196 194/194/194
f 199/199/199 198/198/198 194/194/194
f 200/200/200 199/199/199 194/194/194
f 201/201/201 198/198/198 199/199/199
f 202/202/202 196/196/196 198/198/198
f 203/203/203 202/202/202 198/198/198
f 204/204/204 196/196/196 202/202/202
f 207/207/207 206/206/206 205/205/205
f 208/208/208 205/205/205 206/206/206
f 206/206/206 209/209/209 208/208/208
f 210/210/210 208/208/208 209/209/209
f 209/209/209 211/211/211 210/210/210
f 212/212/212 210/210/210 211/211/211
f 211/211/211 213/213/213 212/212/212
f 214/214/214 212/212/212 213/213/213
f 213/213/213 215/215/215 214/214/214
f 216/216/216 214/214/214 215/215/215
f 215/215/215 217/217/217 216/216/216
f 218/218/218 216/216/216 217/217/217
f 217/217/217 219/219/219 218/218/218
f 220/220/220 218/218/218 219/219/219
f 219/219/219 221/221/221 220/220/220
f 222/222/222 220/220/220 221/221/221
f 221/221/221 223/223/223 222/222/222
f 224/224/224 222/222/222 223/223/223
f 223/223/223 225/225/225 224/224/224
f 226/226/226 224/224/224 225/225/225
f 229/229/229 228/228/228 227/227/227
f 230/230/230 227/227/227 228/228/228
f 228/228/228 231/231/231 230/230/230
f 232/232/232 230/230/230 231/231/231
f 231/231/231 233/233/233 232/232/232
f 234/234/234 232/232/232 233/233/233
f 233/233/233 235/235/235 234/234/234
f 236/236/236 234/234/234 235/235/235
f 235/235/235 237/237/237 236/236/236
f 238/238/238 236/236/236 237/237/237
f 237/237/237 239/239/239 238/238/238
f 240/240/240 238/238/238 239/239/239
f 239/239/239 241/241/241 240/240/240
f 242/242/242 240/240/240 241/241/241
f 241/241/241 243/243/243 242/242/242
f 244/244/244 242/242/242 243/243/243
f 243/243/243 245/245/245 244/244/244
f 246/246/246 244/244/244 245/245/245
f 245/245/245 247/247/247 246/246/246
f 248/248/248 246/246/246 247/247/247
f 251/251/251 250/250/250 249/249/249
f 252/252/252 249/249/249 250/250/250
f 250/250/250 253/253/253 252/252/252
f 254/254/254 252/252/252 253/253/253
f 253/253/253 255/255/255 254/254/254
f 256/256/256 254/254/254 255/255/255
f 255/255/255 257/257/257 256/256/256
f 258/258/258 256/256/256 257/257/257
f 257/257/257 259/259/259 258/258/258
f 260/260/260 258/258/258 259/259/259
f 259/259/259 261/261/261 260/260/260
f 262/262/262 260/260/260 261/261/261
f 261/261/261 263/263/263 262/262/262
f 264/264/264 262/262/262 263/263/263
f 263/263/263 265/265/265 264/264/264
f 266/266/266 264/264/264 265/265/265
f 265/265/265 267/267/267 266/266/266
f 268/268/268 266/266/266 267/267/267
f 267/267/267 269/269/269 268/268/268
f 270/270/270 268/268/268 269/269/269
f 273/273/273 272/272/272 271/271/271
f 274/274/274 271/271/271 272/272/272
f 272/272/272 275/275/275 274/274/274
f 276/276/276 274/274/274 275/275/275
f 275/275/275 277/277/277 276/276/276
f 278/278/278 276/276/276 277/277/277
f 277/277/277 279/279/279 278/278/278
f 280/280/280 278/278/278 279/279/279
f 279/279/279 281/281/281 280/280/280
f 282/282/282 280/280/280 281/281/281
f 281/281/281 283/283/283 282/282/282
f 284/284/284 282/282/282 283/283/283
f 283/283/283 285/285/285 284/284/284
f 286/286/286 284/284/284 285/285/285
f 285/285/285 287/287/287 286/286/286
f 288/288/288 286/286/286 287/287/287
f 287/287/287 289/289/289 288/288/288
f 290/290/290 288/288/288 289/289/289
f 289/289/289 291/291/291 290/290/290
f 292/292/292 290/290/290 291/291/291
f 295/295/295 294/294/294 293/293/293
f 296/296/296 293/293/293 294/294/294
f 294/294/294 297/297/297 296/296/296
f 298/298/298 296/296/296 297/297/297
f 297/297/297 299/299/299 298/298/298
f 300/300/300 298/298/298 299/299/299
f 299/299/299 301/301/301 300/300/300
f 302/302/302 300/300/300 301/301/301
f 301/301/301 303/303/303 302/302/302
f 304/304/304 302/302/302 303/303/303
f 303/303/303 305/305/305 304/304/304
f 306/306/306 304/304/304 305/305/305
f 305/305/305 307/307/307 306/306/306
f 308/308/308 306/306/306 307/307/307
f 307/307/307 309/309/309 308/308/308
f 310/310/310 308/308/308 309/309/309
f 309/309/309 311/311/311 310/310/310
f 312/312/312 310/310/310 311/311/311
f 311/311/311 313/313/313 312/312/312
f 314/314/314 312/312/312 313/313/313
f 317/317/317 316/316/316 315/315/315
f 318/318/318 315/315/315 316/316/316
f 316/316/316 319/319/319 318/318/318
f 320/320/320 318/318/318 319/319/319
f 319/319/319 321/321/321 320/320/320
f 322/322/322 320/320/320 321/321/321
f 321/321/321 323/323/323 322/322/322
f 324/324/324 322/322/322 323/323/323
f 323/323/323 325/325/325 324/324/324
f 326/326/326 324/324/324 325/325/325
f 325/325/325 327/327/327 326/326/326
f 328/328/328 326/326/326 327/327/327
f 327/327/327 329/329/329 328/328/328
f 330/330/330 328/328/328 329/329/329
f 329/329/329 331/331/331 330/330/330
f 332/332/332 330/330/330 331/331/331
f 331/331/331 333/333/333 332/332/332
f 334/334/334 332/332/332 333/333/333
f 333/333/333 335/335/335 334/334/334
f 336/336/336 334/334/334 335/335/335
f 339/339/339 338/338/338 337/337/337
f 340/340/340 337/337/337 338/338/338
f 338/338/338 341/341/341 340/340/340
f 342/342/342 340/340/340 341/341/341
f 341/341/341 343/343/343 342/342/342
f 344/344/344 342/342/342 343/343/343
f 343/343/343 345/345/345 344/344/344
f 346/346/346 344/344/344 345/345/345
f 345/345/345 347/347/347 346/346/346
f 348/348/348 346/346/346 347/347/347
f 347/347/347 349/349/349 348/348/348
f 350/350/350 348/348/348 349/349/349
f 349/349/349 351/351/351 350/350/350
f 352/352/352 350/350/350 351/351/351
f 351/351/351 353/353/353 352/352/352
f 354/354/354 352/352/352 353/353/353
f 353/353/353 355/355/355 354/354/354
f 356/356/356 354/354/354 355/355/355
f 355/355/355 357/357/357 356/356/356
f 358/358/358 356/356/356 357/357/357
f 361/361/361 360/360/360 359/359/359
f 359/359/359 362/362/362 361/361/361
f 363/363/363 361/361/361 362/362/362
f 364/364/364 359/359/359 360/360/360
f 360/360/360 365/365/365 364/364/364
f 362/362/362 366/366/366 363/363/363
f 366/366/366 362/362/362 367/367/367
f 368/368/368 363/363/363 366/366/366
f 362/362/362 359/359/359 369/369/369
f 369/369/369 367/367/367 362/362/362
f 370/370/370 369/369/369 359/359/359
f 359/359/359 364/364/364 370/370/370
f 367/367/367 369/369/369 370/370/370
f 371/371/371 367/367/367 370/370/370
f 372/372/372 367/367/367 371/371/371
f 373/373/373 364/364/364 365/365/365
f 365/365/365 374/374/374 373/373/373
f 375/375/375 370/370/370 364/364/364
f 375/375/375 371/371/371 370/370/370
f 364/364/364 373/373/373 375/375/375
f 371/371/371 375/375/375 373/373/373
f 376/376/376 373/373/373 374/374/374
f 373/373/373 376/376/376 371/371/371
f 374/374/374 377/377/377 376/376/376
f 378/378/378 376/376/376 377/377/377
f 377/377/377 379/379/379 378/378/378
f 380/380/380 371/371/371 376/376/376
f 376/376/376 378/378/378 380/380/380
f 380/380/380 381/381/381 371/371/371
f 381/381/381 380/380/380 378/378/378
f 381/381/381 372/372/372 371/371/371
f 382/382/382 378/378/378 379/379/379
f 378/378/378 382/382/382 381/381/381
f 379/379/379 383/383/383 382/382/382
f 384/384/384 381/381/381 382/382/382
f 384/384/384 372/372/372 381/381/381
f 385/385/385 382/382/382 383/383/383
f 382/382/382 385/385/385 384/384/384
f 372/372/372 384/384/384 385/385/385
f 383/383/383 386/386/386 385/385/385
f 387/387/387 385/385/385 386/386/386
f 385/385/385 387/387/387 372/372/372
f 386/386/386 388/388/388 387/387/387
f 389/389/389 387/387/387 388/388/388
f 388/388/388 390/390/390 389/389/389
f 391/391/391 372/372/372 387/387/387
f 387/387/387 389/389/389 391/391/391
f 391/391/391 392/392/392 372/372/372
f 392/392/392 391/391/391 389/389/389
f 392/392/392 367/367/367 372/372/372
f 393/393/393 389/389/389 390/390/390
f 389/389/389 393/393/393 392/392/392
f 390/390/390 368/368/368 393/393/393
f 366/366/366 393/393/393 368/368/368
f 367/367/367 394/394/394 366/366/366
f 394/394/394 367/367/367 392/392/392
f 394/394/394 392/392/392 393/393/393
f 393/393/393 366/366/366 394/394/394
f 397/397/397 396/396/396 395/395/395
f 395/395/395 398/398/398 397/397/397
f 399/399/399 397/397/397 398/398/398
f 400/400/400 395/395/395 396/396/396
f 396/396/396 401/401/401 400/400/400
f 398/398/398 402/402/402 399/399/399
f 402/402/402 398/398/398 403/403/403
f 404/404/404 399/399/399 402/402/402
f 398/398/398 395/395/395 405/405/405
f 405/405/405 403/403/403 398/398/398
f 406/406/406 405/405/405 395/395/395
f 395/395/395 400/400/400 406/406/406
f 403/403/403 405/405/405 406/406/406
f 407/407/407 403/403/403 406/406/406
f 408/408/408 403/403/403 407/407/407
f 409/409/409 400/400/400 401/401/401
f 401/401/401 410/410/410 409/409/409
f 411/411/411 406/406/406 400/400/400
f 411/411/411 407/407/407 406/406/406
f 400/400/400 409/409/409 411/411/411
f 407/407/407 411/411/411 409/409/409
f 412/412/412 409/409/409 410/410/410
f 409/409/409 412/412/412 407/407/407
f 410/410/410 413/413/413 412/412/412
f 414/414/414 412/412/412 413/413/413
f 413/413/413 415/415/415 414/414/414
f 416/416/416 407/407/407 412/412/412
f 412/412/412 414/414/414 416/416/416
f 416/416/416 417/417/417 407/407/407
f 417/417/417 416/416/416 414/414/414
f 417/417/417 408/408/408 407/407/407
f 418/418/418 414/414/414 415/415/415
f 414/414/414 418/418/418 417/417/417
f 415/415/415 419/419/419 418/418/418
f 420/420/420 417/417/417 418/418/418
f 420/420/420 408/408/408 417/417/417
f 421/421/421 418/418/418 419/419/419
f 418/418/418 421/421/421 420/420/420
f 408/408/408 420/420/420 421/421/421
f 419/419/419 422/422/422 421/421/421
f 423/423/423 421/421/421 422/422/422
f 421/421/421 423/423/423 408/408/408
f 422/422/422 424/424/424 423/423/423
f 425/425/425 423/423/423 424/424/424
f 424/424/424 426/426/426 425/425/425
f 427/427/427 408/408/408 423/423/423
f 423/423/423 425/425/425 427/427/427
f 427/427/427 428/428/428 408/408/408
f 428/428/428 427/427/427 425/425/425
f 428/428/428 403/403/403 408/408/408
f 429/429/429 425/425/425 426/426/426
f 425/425/425 429/429/429 428/428/428
f 426/426/426 404/404/404 429/429/429
f 402/402/402 429/429/429 404/404/404
f 403/403/403 430/430/430 402/402/402
f 430/430/430 403/403/403 428/428/428
f 430/430/430 428/428/428 429/429/429
f 429/429/429 402/402/402 430/430/430
f 433/433/433 432/432/432 431/431/431
f 431/431/431 434/434/434 433/433/433
f 435/435/435 433/433/433 434/434/434
f 436/436/436 431/431/431 432/432/432
f 432/432/432 437/437/437 436/436/436
f 434/434/434 438/438/438 435/435/435
f 438/438/438 434/434/434 439/439/439
f 440/440/440 435/435/435 438/438/438
f 434/434/434 431/431/431 441/441/441
f 441/441/441 439/439/439 434/434/434
f 442/442/442 441/441/441 431/431/431
f 431/431/431 436/436/436 442/442/442
f 439/439/439 441/441/441 442/442/442
f 443/443/443 439/439/439 442/442/442
f 444/444/444 439/439/439 443/443/443
f 445/445/445 436/436/436 437/437/437
f 437/437/437 446/446/446 445/445/445
f 447/447/447 442/442/442 436/436/436
f 447/447/447 443/443/443 442/442/442
f 436/436/436 445/445/445 447/447/447
f 443/443/443 447/447/447 445/445/445
f 448/448/448 445/445/445 446/446/446
f 445/445/445 448/448/448 443/443/443
f 446/446/446 449/449/449 448/448/448
f 450/450/450 448/448/448 449/449/449
f 449/449/449 451/451/451 450/450/450
f 452/452/452 443/443/443 448/448/448
f 448/448/448 450/450/450 452/452/452
f 452/452/452 453/453/453 443/443/443
f 453/453/453 452/452/452 450/450/450
f 453/453/453 444/444/444 443/443/443
f 454/454/454 450/450/450 451/451/451
f 450/450/450 454/454/454 453/453/453
f 451/451/451 455/455/455 454/454/454
f 456/456/456 453/453/453 454/454/454
f 456/456/456 444/444/444 453/453/453
f 457/457/457 454/454/454 455/455/455
f 454/454/454 457/457/457 456/456/456
f 444/444/444 456/456/456 457/457/457
f 455/455/455 458/458/458 457/457/457
f 459/459/459 457/457/457 458/458/458
f 457/457/457 459/459/459 444/444/444
f 458/458/458 460/460/460 459/459/459
f 461/461/461 459/459/459 460/460/460
f 460/460/460 462/462/462 461/461/461
f 463/463/463 444/444/444 459/459/459
f 459/459/459 461/461/461 463/463/463
f 463/463/463 464/464/464 444/444/444
f 464/464/464 463/463/463 461/461/461
f 464/464/464 439/439/439 444/444/444
f 465/465/465 461/461/461 462/462/462
f 461/461/461 465/465/465 464/464/464
f 462/462/462 440/440/440 465/465/465
f 438/438/438 465/465/465 440/440/440
f 439/439/439 466/466/466 438/438/438
f 466/466/466 439/439/439 464/464/464
f 466/466/466 464/464/464 465/465/465
f 465/465/465 438/438/438 466/466/466
f 469/469/469 468/468/468 467/467/467
f 467/467/467 470/470/470 469/469/469
f 471/471/471 469/469/469 470/470/470
f 472/472/472 467/467/467 468/468/468
f 468/468/468 473/473/473 472/472/472
f 470/470/470 474/474/474 471/471/471
f 474/474/474 470/470/470 475/475/475
f 476/476/476 471/471/471 474/474/474
f 470/470/470 467/467/467 477/477/477
f 477/477/477 475/475/475 470/470/470
f 478/478/478 477/477/477 467/467/467
f 467/467/467 472/472/472 478/478/478
f 475/475/475 477/477/477 478/478/478
f 479/479/479 475/475/475 478/478/478
f 480/480/480 475/475/475 479/479/479
f 481/481/481 472/472/472 473/473/473
f 473/473/473 482/482/482 481/481/481
f 483/483/483 478/478/478 472/472/472
f 483/483/483 479/479/479 478/478/478
f 472/472/472 481/481/481 483/483/483
f 479/479/479 483/483/483 481/481/481
f 484/484/484 481/481/481 482/482/482
f 481/481/481 484/484/484 479/479/479
f 482/482/482 485/485/485 484/484/484
f 486/486/486 484/484/484 485/485/485
f 485/485/485 487/487/487 486/486/486
f 488/488/488 479/479/479 484/484/484
f 484/484/484 486/486/486 488/488/488
f 488/488/488 489/489/489 479/479/479
f 489/489/489 488/488/488 486/486/486
f 489/489/489 480/480/480 479/479/479
f 490/490/490 486/486/486 487/487/487
f 486/486/486 490/490/490 489/489/489
f 487/487/487 491/491/491 490/490/490
f 492/492/492 489/489/489 490/490/490
f 492/492/492 480/480/480 489/489/489
f 493/493/493 490/490/490 491/491/491
f 490/490/490 493/493/493 492/492/492
f 480/480/480 492/492/492 493/493/493
f 491/491/491 494/494/494 493/493/493
f 495/495/495 493/493/493 494/494/494
f 493/493/493 495/495/495 480/480/480
f 494/494/494 496/496/496 495/495/495
f 497/497/497 495/495/495 496/496/496
f 496/496/496 498/498/498 497/497/497
f 499/499/499 480/480/480 495/495/495
f 495/495/495 497/497/497 499/499/499
f 499/499/499 500/500/500 480/480/480
f 500/500/500 499/499/499 497/497/497
f 500/500/500 475/475/475 480/480/480
f 501/501/501 497/497/497 498/498/498
f 497/497/497 501/501/501 500/500/500
f 498/498/498 476/476/476 501/501/501
f 474/474/474 501/501/501 476/476/476
f 475/475/475 502/502/502 474/474/474
f 502/502/502 475/475/475 500/500/500
f 502/502/502 500/500/500 501/501/501
f 501/501/501 474/474/474 502/502/502
