g QiCai_01QiCai_01_mobile
v -0.413791612 0.103713356 0.107915637
v -0.38209361 0.0478591953 0.00625382899
v -0.38209361 0.0478591953 0.107915637
v -0.413791612 0.103713356 0.00625382899
v -0.469645772 0.135411358 0.107915637
v -0.469645772 0.135411358 0.00625382899
v -0.56535203 0.135411358 0.00625382899
v -0.56535203 0.135411358 0.107915637
v -0.62123402 0.103713356 0.00625382899
v -0.62123402 0.103713356 0.107915637
v -0.652932022 0.0478591953 0.00625382899
v -0.652932022 0.0478591953 0.107915637
v -0.652932022 -0.0478470621 0.00625382899
v -0.652932022 -0.0478470621 0.107915637
v -0.62123402 -0.103729053 0.107915637
v -0.62123402 -0.103729053 0.00625382899
v -0.56535203 -0.135399224 0.107915637
v -0.56535203 -0.135399224 0.00625382899
v -0.469645772 -0.135399224 0.00625382899
v -0.469645772 -0.135399224 0.107915637
v -0.413791612 -0.103729053 0.00625382899
v -0.413791612 -0.103729053 0.107915637
v -0.38209361 -0.0478470621 0.00625382899
v -0.38209361 -0.0478470621 0.107915637
v -0.38209361 0.0478591953 0.00625382899
v -0.38209361 0.0478591953 0.107915637
v -0.445378294 0.0334155932 0.162573122
v -0.484089374 0.0721266733 0.162573122
v -0.459404451 0.058128346 0.162573122
v -0.57562118 0.058128346 0.162573122
v -0.550908428 0.0721266733 0.162573122
v -0.589647337 0.0334155932 0.162573122
v -0.445378294 -0.03340346 0.162573122
v -0.589647337 -0.03340346 0.162573122
v -0.459404451 -0.0581162127 0.162573122
v -0.550908428 -0.07211454 0.162573122
v -0.484117204 -0.07211454 0.162573122
v -0.57562118 -0.0581162127 0.162573122
v -0.652932022 -0.0478470621 0.00625382899
v -0.62123402 0.103713356 0.00625382899
v -0.652932022 0.0478591953 0.00625382899
v -0.56535203 -0.135399224 0.00625382899
v -0.62123402 -0.103729053 0.00625382899
v -0.38209361 0.0478591953 0.00625382899
v -0.469645772 0.135411358 0.00625382899
v -0.56535203 0.135411358 0.00625382899
v -0.413791612 0.103713356 0.00625382899
v -0.413791612 -0.103729053 0.00625382899
v -0.38209361 -0.0478470621 0.00625382899
v -0.469645772 -0.135399224 0.00625382899
v 0.382109307 -0.0478470621 0.00625382899
v 0.382109307 0.0478591953 0.107915637
v 0.382109307 -0.0478470621 0.107915637
v 0.382109307 0.0478591953 0.00625382899
v 0.413779478 0.103713356 0.107915637
v 0.413779478 0.103713356 0.00625382899
v 0.469661469 0.135411358 0.107915637
v 0.469661469 0.135411358 0.00625382899
v 0.565367726 0.135411358 0.107915637
v 0.565367726 0.135411358 0.00625382899
v 0.621249717 0.103713356 0.00625382899
v 0.621249717 0.103713356 0.107915637
v 0.652919888 0.0478591953 0.00625382899
v 0.652919888 0.0478591953 0.107915637
v 0.652919888 -0.0478470621 0.107915637
v 0.652919888 -0.0478470621 0.00625382899
v 0.621249717 -0.103729053 0.107915637
v 0.621249717 -0.103729053 0.00625382899
v 0.565367726 -0.135399224 0.107915637
v 0.565367726 -0.135399224 0.00625382899
v 0.469661469 -0.135399224 0.107915637
v 0.469661469 -0.135399224 0.00625382899
v 0.413779478 -0.103729053 0.00625382899
v 0.413779478 -0.103729053 0.107915637
v 0.382109307 -0.0478470621 0.00625382899
v 0.382109307 -0.0478470621 0.107915637
v 0.589635204 0.0334155932 0.162573122
v 0.550924124 0.0721266733 0.162573122
v 0.575636877 0.058128346 0.162573122
v 0.459392318 0.058128346 0.162573122
v 0.484105071 0.0721266733 0.162573122
v 0.445393991 0.0334155932 0.162573122
v 0.589635204 -0.03340346 0.162573122
v 0.445393991 -0.03340346 0.162573122
v 0.575636877 -0.0581162127 0.162573122
v 0.484105071 -0.07211454 0.162573122
v 0.550924124 -0.07211454 0.162573122
v 0.459392318 -0.0581162127 0.162573122
v 0.382109307 -0.0478470621 0.00625382899
v 0.413779478 0.103713356 0.00625382899
v 0.382109307 0.0478591953 0.00625382899
v 0.469661469 -0.135399224 0.00625382899
v 0.413779478 -0.103729053 0.00625382899
v 0.652919888 0.0478591953 0.00625382899
v 0.565367726 0.135411358 0.00625382899
v 0.469661469 0.135411358 0.00625382899
v 0.621249717 0.103713356 0.00625382899
v 0.621249717 -0.103729053 0.00625382899
v 0.652919888 -0.0478470621 0.00625382899
v 0.565367726 -0.135399224 0.00625382899
v -0.45261401 -0.040973132 0.122943663
v -0.44059159 -0.00320826102 0.528672516
v -0.442484008 -0.00320826102 0.122888003
v -0.450721592 -0.040973132 0.528895154
v -0.433133237 -0.00320826102 0.72534484
v -0.480248879 -0.0686358305 0.123054981
v -0.443235409 -0.040973132 0.726096241
v -0.418633975 -0.00320826102 0.855810363
v -0.478356461 -0.0686358305 0.529479577
v -0.51804158 -0.0787658327 0.123249789
v -0.428652659 -0.040973132 0.857424485
v -0.407529934 -0.00320826102 0.907768369
v -0.516121332 -0.0787658327 0.530286637
v -0.555806451 -0.0686358305 0.123416767
v -0.470842448 -0.0686358305 0.728155637
v -0.417242491 -0.040973132 0.910662656
v -0.394505646 -0.00320826102 0.941497937
v -0.553914033 -0.0686358305 0.531093698
v -0.583469149 -0.040973132 0.123555915
v -0.50852383 -0.0787658327 0.730966435
v -0.455981401 -0.0686358305 0.861849403
v -0.403550291 -0.040973132 0.946201153
v -0.379366302 -0.00320826102 0.964234783
v -0.581548902 -0.040973132 0.531678121
v -0.593571322 -0.00320826102 0.123583745
v -0.546233042 -0.0686358305 0.733749402
v -0.493300997 -0.0787658327 0.867916273
v -0.443847662 -0.0686358305 0.918594114
v -0.591678904 -0.00320826102 0.531900759
v -0.583469149 0.0345844397 0.123555915
v -0.573812251 -0.040973132 0.735808798
v -0.530648423 -0.0686358305 0.873955312
v -0.48016539 -0.0787658327 0.929392028
v -0.581548902 0.03455661 0.531678121
v -0.555806451 0.0622193084 0.123416767
v -0.583914424 -0.00320826102 0.7365602
v -0.557977166 -0.040973132 0.878380231
v -0.553914033 0.0622193084 0.531093698
v -0.51804158 0.0723493107 0.123249789
v -0.573812251 0.03455661 0.735808798
v -0.516121332 0.0723493107 0.530286637
v -0.480248879 0.0622193084 0.123054981
v -0.428263043 -0.0686358305 0.959002804
v -0.516483118 -0.0686358305 0.940217772
v -0.567968019 -0.00320826102 0.880022182
v -0.546233042 0.0622193084 0.733749402
v -0.478356461 0.0622193084 0.529479577
v -0.45261401 0.0345844397 0.122943663
v -0.461992611 -0.0787658327 0.976479841
v -0.543060459 -0.040973132 0.9481214
v -0.557977166 0.03455661 0.878380231
v -0.50852383 0.0723493107 0.730966435
v -0.450721592 0.03455661 0.528895154
v -0.442484008 -0.00320826102 0.122888003
v -0.44059159 -0.00320826102 0.528672516
v -0.470842448 0.0622193084 0.728155637
v -0.443235409 0.03455661 0.726096241
v -0.433133237 -0.00320826102 0.72534484
v -0.530648423 0.0622193084 0.873955312
v -0.493300997 0.0723493107 0.867916273
v -0.455981401 0.0622193084 0.861849403
v -0.428652659 0.03455661 0.857424485
v -0.418633975 -0.00320826102 0.855810363
v -0.417242491 0.03455661 0.910662656
v -0.407529934 -0.00320826102 0.907768369
v -0.443847662 0.0622193084 0.918594114
v -0.403550291 0.03455661 0.946201153
v -0.394505646 -0.00320826102 0.941497937
v -0.48016539 0.0723493107 0.929392028
v -0.428263043 0.0622193084 0.959002804
v -0.387381249 0.03455661 0.970468631
v -0.379366302 -0.00320826102 0.964234783
v -0.363865172 -0.00320826102 0.981350034
v -0.516483118 0.0622193084 0.940217772
v -0.409255374 0.0622193084 0.987500393
v -0.370516465 0.03455661 0.989086684
v -0.461992611 0.0723493107 0.976479841
v -0.439144447 0.0723493107 1.010766
v -0.352649812 0.03455661 1.00099779
v -0.347751789 -0.00320826102 0.992092289
v -0.388717073 0.0622193084 1.01018158
v -0.366035887 0.0622193084 1.02529309
v -0.330274752 0.03455661 1.01096081
v -0.326684724 -0.00320826102 1.00149872
v -0.340070799 0.0622193084 1.03689807
v -0.307148291 0.03455661 1.01819653
v -0.30469928 -0.00320826102 1.00834482
v -0.313855243 0.0622193084 1.04507999
v -0.268938145 0.03455661 1.02537658
v -0.267630151 -0.00320826102 1.01530224
v -0.272472514 0.0622193084 1.05281664
v -0.215922612 0.03455661 1.02921708
v -0.215532996 -0.00320826102 1.01908708
v -0.21695231 0.0622193084 1.05685195
v -0.00255248201 0.03455661 1.02991282
v -0.00255248201 -0.00320826102 1.01981065
v 0.210455862 -0.00320826102 1.01908708
v -0.00255248201 0.0622193084 1.05757552
v 0.210817648 0.03455661 1.02921708
v 0.262525187 -0.00320826102 1.01530224
v 0.263833181 0.03455661 1.02537658
v 0.299622145 -0.00320826102 1.00834482
v 0.211875175 0.0622193084 1.05685195
v -0.00255248201 0.0723493107 1.09534039
v -0.218371623 0.0723493107 1.09461682
v 0.302071157 0.03455661 1.01819653
v 0.32160759 -0.00320826102 1.00149872
v 0.26739538 0.0622193084 1.05281664
v 0.213294489 0.0723493107 1.09461682
v 0.325169788 0.03455661 1.01096081
v 0.342674655 -0.00320826102 0.992092289
v 0.308778109 0.0622193084 1.04507999
v 0.347572678 0.03455661 1.00099779
v 0.358788038 -0.00320826102 0.981350034
v -0.277342708 0.0723493107 1.09035888
v -0.00255248201 0.0622193084 1.13313309
v 0.272265573 0.0723493107 1.09035888
v 0.334965835 0.0622193084 1.03689807
v -0.323011207 0.0723493107 1.08178734
v -0.219818766 0.0622193084 1.13240952
v 0.214713802 0.0622193084 1.13240952
v 0.317906243 0.0723493107 1.08178734
v -0.353429043 0.0723493107 1.07226959
v -0.282212901 0.0622193084 1.12787328
v -0.00255248201 0.03455661 1.16076796
v 0.277135767 0.0622193084 1.12787328
v -0.384347814 0.0723493107 1.0584939
v -0.332139341 0.0622193084 1.11852251
v -0.220848464 0.03455661 1.16004439
v 0.21577133 0.03455661 1.16004439
v -0.413568974 0.0723493107 1.03901312
v -0.366815118 0.0622193084 1.10766894
v -0.2857751 0.03455661 1.15534117
v -0.00255248201 -0.00320826102 1.17089796
v -0.46900569 0.0622193084 1.03403161
v -0.402631911 0.0622193084 1.0916947
v -0.338846293 0.03455661 1.14537815
v -0.22123808 -0.00320826102 1.17017439
v -0.495750009 0.0622193084 0.993956878
v -0.438420875 0.0622193084 1.06784467
v -0.376583334 0.03455661 1.13357836
v -0.287083095 -0.00320826102 1.16538768
v -0.543060459 0.03455661 0.9481214
v -0.490879815 0.03455661 1.0510912
v -0.416017986 0.03455661 1.11599001
v -0.341295304 -0.00320826102 1.15522985
v -0.552800846 -0.00320826102 0.951015687
v -0.520434932 0.03455661 1.00675853
v -0.456621484 0.03455661 1.08893956
v -0.380173362 -0.00320826102 1.14306828
v -0.529479577 -0.00320826102 1.01143391
v -0.498894762 -0.00320826102 1.05732505
v -0.520434932 -0.040973132 1.00675853
v -0.420943838 -0.00320826102 1.12489551
v -0.495750009 -0.0686358305 0.993956878
v -0.490879815 -0.040973132 1.0510912
v -0.463300606 -0.00320826102 1.09667621
v -0.456621484 -0.040973132 1.08893956
v -0.46900569 -0.0686358305 1.03403161
v -0.438420875 -0.0686358305 1.06784467
v -0.416017986 -0.040973132 1.11599001
v -0.376583334 -0.040973132 1.13357836
v -0.439144447 -0.0787658327 1.010766
v -0.413568974 -0.0787658327 1.03901312
v -0.402631911 -0.0686358305 1.0916947
v -0.409255374 -0.0686358305 0.987500393
v -0.388717073 -0.0686358305 1.01018158
v -0.384347814 -0.0787658327 1.0584939
v -0.387381249 -0.040973132 0.970468631
v -0.363865172 -0.00320826102 0.981350034
v -0.370516465 -0.040973132 0.989086684
v -0.347751789 -0.00320826102 0.992092289
v -0.366035887 -0.0686358305 1.02529309
v -0.352649812 -0.040973132 1.00099779
v -0.326684724 -0.00320826102 1.00149872
v -0.366815118 -0.0686358305 1.10766894
v -0.353429043 -0.0787658327 1.07226959
v -0.330274752 -0.040973132 1.01096081
v -0.30469928 -0.00320826102 1.00834482
v -0.340070799 -0.0686358305 1.03689807
v -0.307148291 -0.040973132 1.01819653
v -0.267630151 -0.00320826102 1.01530224
v -0.313855243 -0.0686358305 1.04507999
v -0.268938145 -0.040973132 1.02537658
v -0.215532996 -0.00320826102 1.01908708
v -0.323011207 -0.0787658327 1.08178734
v -0.332139341 -0.0686358305 1.11849468
v -0.272472514 -0.0686358305 1.05281664
v -0.215922612 -0.040973132 1.02921708
v -0.00255248201 -0.00320826102 1.01981065
v -0.21695231 -0.0686358305 1.05685195
v -0.277342708 -0.0787658327 1.09035888
v -0.338846293 -0.040973132 1.14537815
v -0.00255248201 -0.040973132 1.02991282
v -0.282212901 -0.0686358305 1.12787328
v -0.2857751 -0.040973132 1.15534117
v -0.220848464 -0.040973132 1.16004439
v -0.219818766 -0.0686358305 1.13240952
v -0.00255248201 -0.0686358305 1.13313309
v -0.00255248201 -0.040973132 1.16076796
v -0.218371623 -0.0787658327 1.09461682
v 0.216160946 -0.00320826102 1.17017439
v -0.00255248201 -0.0787658327 1.09534039
v 0.21577133 -0.040973132 1.16004439
v 0.280697965 0.03455661 1.15534117
v -0.00255248201 -0.0686358305 1.05757552
v 0.211875175 -0.0686358305 1.05685195
v 0.213294489 -0.0787658327 1.09461682
v 0.28200596 -0.00320826102 1.16538768
v 0.327062206 0.0622193084 1.11852251
v 0.210817648 -0.040973132 1.02921708
v 0.210455862 -0.00320826102 1.01908708
v 0.263833181 -0.040973132 1.02537658
v 0.262525187 -0.00320826102 1.01530224
v 0.26739538 -0.0686358305 1.05281664
v 0.302071157 -0.040973132 1.01819653
v 0.299622145 -0.00320826102 1.00834482
v 0.333741329 0.03455661 1.14537815
v 0.348351909 0.0723493107 1.07226959
v 0.308778109 -0.0686358305 1.04507999
v 0.325169788 -0.040973132 1.01096081
v 0.32160759 -0.00320826102 1.00149872
v 0.334965835 -0.0686358305 1.03689807
v 0.347572678 -0.040973132 1.00099779
v 0.342674655 -0.00320826102 0.992092289
v 0.36543933 -0.040973132 0.989086684
v 0.358788038 -0.00320826102 0.981350034
v 0.360958752 -0.0686358305 1.02529309
v 0.348351909 -0.0787658327 1.07226959
v 0.317906243 -0.0787658327 1.08178734
v 0.382276285 -0.040973132 0.970468631
v 0.374289167 -0.00320826102 0.964234783
v 0.398473156 -0.040973132 0.946201153
v 0.389428511 -0.00320826102 0.941497937
v 0.40417824 -0.0686358305 0.987500393
v 0.383639939 -0.0686358305 1.01018158
v 0.37927068 -0.0787658327 1.0584939
v 0.272265573 -0.0787658327 1.09035888
v 0.361710154 -0.0686358305 1.10766894
v 0.412165357 -0.040973132 0.910662656
v 0.40242497 -0.00320826102 0.907768369
v 0.214713802 -0.0686358305 1.13240952
v 0.327062206 -0.0686358305 1.11852251
v 0.277135767 -0.0686358305 1.12787328
v 0.280697965 -0.040973132 1.15534117
v 0.333741329 -0.040973132 1.14537815
v 0.33621817 -0.00320826102 1.15522985
v 0.3715062 -0.040973132 1.13357836
v 0.375096228 -0.00320826102 1.14306828
v 0.3715062 0.03455661 1.13357836
v 0.397554777 -0.0686358305 1.0916947
v 0.361710154 0.0622193084 1.10766894
v 0.40849184 -0.0787658327 1.03901312
v 0.434039483 -0.0787658327 1.010766
v 0.423158079 -0.0686358305 0.959002804
v 0.438742698 -0.0686358305 0.918594114
v 0.397554777 0.0622193084 1.0916947
v 0.37927068 0.0723493107 1.0584939
v 0.410940851 0.03455661 1.11599001
v 0.360958752 0.0622193084 1.02529309
v 0.36543933 0.03455661 0.989086684
v 0.383639939 0.0622193084 1.01018158
v 0.40849184 0.0723493107 1.03901312
v 0.382276285 0.03455661 0.970468631
v 0.374289167 -0.00320826102 0.964234783
v 0.389428511 -0.00320826102 0.941497937
v 0.40417824 0.0622193084 0.987500393
v 0.398473156 0.03455661 0.946201153
v 0.40242497 -0.00320826102 0.907768369
v 0.434039483 0.0723493107 1.010766
v 0.433343741 0.0622193084 1.06784467
v 0.412165357 0.03455661 0.910662656
v 0.413556841 -0.00320826102 0.855810363
v 0.423158079 0.0622193084 0.959002804
v 0.463928555 0.0622193084 1.03403161
v 0.423547695 0.03455661 0.857424485
v 0.428056102 -0.00320826102 0.72534484
v 0.438742698 0.0622193084 0.918594114
v 0.456915477 0.0723493107 0.976479841
v 0.438158275 0.03455661 0.726096241
v 0.435514456 -0.00320826102 0.528672516
v 0.450876437 0.0622193084 0.861849403
v 0.475060426 0.0723493107 0.929392028
v 0.445616628 0.0345844397 0.528895154
v 0.437406874 -0.00320826102 0.122888003
v 0.447509046 0.0345844397 0.122943663
v 0.465737484 0.0622193084 0.728155637
v 0.488223863 0.0723493107 0.867916273
v 0.473279327 0.0622193084 0.529479577
v 0.475171745 0.0622193084 0.123054981
v 0.503446696 0.0723493107 0.730966435
v 0.511044198 0.0723493107 0.530286637
v 0.512936616 0.0723493107 0.123249789
v 0.525543459 0.0622193084 0.873955312
v 0.548809069 0.0622193084 0.531093698
v 0.550729316 0.0622193084 0.123416767
v 0.541128078 0.0622193084 0.733749402
v 0.511378154 0.0622193084 0.940217772
v 0.576471767 0.0345844397 0.531678121
v 0.578364185 0.0345844397 0.123555915
v 0.568735117 0.0345844397 0.735808798
v 0.552872201 0.03455661 0.878380231
v 0.490645045 0.0622193084 0.993956878
v 0.58657394 -0.00320826102 0.531900759
v 0.588494187 -0.00320826102 0.123583745
v 0.57883729 -0.00320826102 0.7365602
v 0.576471767 -0.040973132 0.531678121
v 0.578364185 -0.040973132 0.123555915
v 0.562890885 -0.00320826102 0.880022182
v 0.537955495 0.03455661 0.9481214
v 0.485802681 0.03455661 1.0510912
v 0.568735117 -0.040973132 0.735808798
v 0.548809069 -0.0686358305 0.531093698
v 0.550729316 -0.0686358305 0.123416767
v 0.552872201 -0.040973132 0.878380231
v 0.547695882 -0.00320826102 0.951015687
v 0.515357798 0.03455661 1.00675853
v 0.541128078 -0.0686358305 0.733749402
v 0.511044198 -0.0787658327 0.530286637
v 0.512936616 -0.0787658327 0.123249789
v 0.524402442 -0.00320826102 1.01143391
v 0.537955495 -0.040973132 0.9481214
v 0.493817628 -0.00320826102 1.05732505
v 0.525543459 -0.0686358305 0.873955312
v 0.503446696 -0.0787658327 0.730966435
v 0.473279327 -0.0686358305 0.529479577
v 0.475171745 -0.0686358305 0.123054981
v 0.511378154 -0.0686358305 0.940217772
v 0.488223863 -0.0787658327 0.867916273
v 0.465737484 -0.0686358305 0.728155637
v 0.445616628 -0.040973132 0.528895154
v 0.447509046 -0.040973132 0.122943663
v 0.435514456 -0.00320826102 0.528672516
v 0.437406874 -0.00320826102 0.122888003
v 0.428056102 -0.00320826102 0.72534484
v 0.438158275 -0.040973132 0.726096241
v 0.413556841 -0.00320826102 0.855810363
v 0.423547695 -0.040973132 0.857424485
v 0.450876437 -0.0686358305 0.861849403
v 0.475060426 -0.0787658327 0.929392028
v 0.456915477 -0.0787658327 0.976479841
v 0.490645045 -0.0686358305 0.993956878
v 0.463928555 -0.0686358305 1.03403161
v 0.515357798 -0.040973132 1.00675853
v 0.485802681 -0.040973132 1.0510912
v 0.433343741 -0.0686358305 1.06784467
v 0.451544349 -0.040973132 1.08893956
v 0.410940851 -0.040973132 1.11599001
v 0.415838874 -0.00320826102 1.12489551
v 0.458195642 -0.00320826102 1.09667621
v 0.451544349 0.03455661 1.08893956
v 0.502723124 -0.00279081588 0.617616162
v -0.492911382 0.0193616066 0.623571713
v -0.492911382 -0.00279081588 0.617616162
v 0.502723124 0.0193616066 0.623571713
v -0.492911382 0.0356141377 0.639796414
v 0.502723124 0.0356141377 0.639796414
v -0.492911382 0.0415418588 0.661976667
v 0.502723124 0.0415418588 0.661976667
v -0.492911382 0.0356141377 0.684156919
v 0.502723124 0.0356141377 0.684156919
v -0.492911382 0.0193616066 0.70038162
v 0.502723124 0.0193616066 0.70038162
v -0.492911382 -0.00279081588 0.706337171
v 0.502723124 -0.00279081588 0.706337171
v -0.492911382 -0.024971068 0.70038162
v 0.502723124 -0.024971068 0.70038162
v -0.492911382 -0.0412235991 0.684156919
v 0.502723124 -0.0412235991 0.684156919
v -0.492911382 -0.0471513202 0.661976667
v 0.502723124 -0.0471513202 0.661976667
v -0.492911382 -0.0412235991 0.639796414
v 0.502723124 -0.0412235991 0.639796414
v -0.492911382 -0.024971068 0.623571713
v 0.502723124 -0.024971068 0.623571713
v -0.492911382 -0.00279081588 0.617616162
v 0.502723124 -0.00279081588 0.617616162
v 0.609004659 -0.0915118245 0.13947449
v 0.550924124 -0.07211454 0.162573122
v 0.575636877 -0.0581162127 0.162573122
v 0.589635204 -0.03340346 0.162573122
v 0.561499401 -0.118450951 0.13947449
v 0.473529794 -0.118450951 0.13947449
v 0.484105071 -0.07211454 0.162573122
v 0.565367726 -0.135399224 0.107915637
v 0.621249717 -0.103729053 0.107915637
v 0.469661469 -0.135399224 0.107915637
v 0.425996706 -0.0915118245 0.13947449
v 0.459392318 -0.0581162127 0.162573122
v 0.413779478 -0.103729053 0.107915637
v 0.445393991 -0.03340346 0.162573122
v 0.635971616 -0.0439787371 0.13947449
v 0.652919888 -0.0478470621 0.107915637
v 0.39905758 -0.0439787371 0.13947449
v 0.382109307 -0.0478470621 0.107915637
v 0.382109307 0.0478591953 0.107915637
v 0.635971616 0.0439908703 0.13947449
v 0.652919888 0.0478591953 0.107915637
v 0.589635204 0.0334155932 0.162573122
v 0.621249717 0.103713356 0.107915637
v 0.39905758 0.0439908703 0.13947449
v 0.445393991 0.0334155932 0.162573122
v 0.413779478 0.103713356 0.107915637
v 0.609004659 0.0914961281 0.13947449
v 0.575636877 0.058128346 0.162573122
v 0.565367726 0.135411358 0.107915637
v 0.550924124 0.0721266733 0.162573122
v 0.425996706 0.0914961281 0.13947449
v 0.459392318 0.058128346 0.162573122
v 0.484105071 0.0721266733 0.162573122
v 0.469661469 0.135411358 0.107915637
v 0.561499401 0.118463085 0.13947449
v 0.473529794 0.118463085 0.13947449
v -0.42600884 -0.0915118245 0.13947449
v -0.484117204 -0.07211454 0.162573122
v -0.459404451 -0.0581162127 0.162573122
v -0.445378294 -0.03340346 0.162573122
v -0.473541927 -0.118450951 0.13947449
v -0.561483705 -0.118450951 0.13947449
v -0.550908428 -0.07211454 0.162573122
v -0.469645772 -0.135399224 0.107915637
v -0.413791612 -0.103729053 0.107915637
v -0.56535203 -0.135399224 0.107915637
v -0.609016792 -0.0915118245 0.13947449
v -0.57562118 -0.0581162127 0.162573122
v -0.62123402 -0.103729053 0.107915637
v -0.589647337 -0.03340346 0.162573122
v -0.399069713 -0.0439787371 0.13947449
v -0.38209361 -0.0478470621 0.107915637
v -0.635955919 -0.0439787371 0.13947449
v -0.652932022 -0.0478470621 0.107915637
v -0.652932022 0.0478591953 0.107915637
v -0.399069713 0.0439908703 0.13947449
v -0.38209361 0.0478591953 0.107915637
v -0.445378294 0.0334155932 0.162573122
v -0.413791612 0.103713356 0.107915637
v -0.635955919 0.0439908703 0.13947449
v -0.589647337 0.0334155932 0.162573122
v -0.62123402 0.103713356 0.107915637
v -0.42600884 0.0914961281 0.13947449
v -0.459404451 0.058128346 0.162573122
v -0.469645772 0.135411358 0.107915637
v -0.484089374 0.0721266733 0.162573122
v -0.609016792 0.0914961281 0.13947449
v -0.57562118 0.058128346 0.162573122
v -0.550908428 0.0721266733 0.162573122
v -0.56535203 0.135411358 0.107915637
v -0.473541927 0.118463085 0.13947449
v -0.561483705 0.118463085 0.13947449
vt 0.604676427 0.597923844
vt 0.597923844 0.587535254
vt 0.597923844 0.597923844
vt 0.604676427 0.587535254
vt 0.611169296 0.597923844
vt 0.611169296 0.587535254
vt 0.621038456 0.587535254
vt 0.621038456 0.597923844
vt 0.627531325 0.587535254
vt 0.627531325 0.597923844
vt 0.634283908 0.587535254
vt 0.634283908 0.597923844
vt 0.644153068 0.587535254
vt 0.644153068 0.597923844
vt 0.650645937 0.597923844
vt 0.650645937 0.587535254
vt 0.657138805 0.597923844
vt 0.657138805 0.587535254
vt 0.667007965 0.587535254
vt 0.667007965 0.597923844
vt 0.673760549 0.587535254
vt 0.673760549 0.597923844
vt 0.680253417 0.587535254
vt 0.680253417 0.597923844
vt 0.690122577 0.587535254
vt 0.690122577 0.597923844
vt 0.627011895 0.621557886
vt 0.623375889 0.625193892
vt 0.625713321 0.623895318
vt 0.614285873 0.623895318
vt 0.616623306 0.625193892
vt 0.612987299 0.621557886
vt 0.627011895 0.614805302
vt 0.612987299 0.615065017
vt 0.625713321 0.61246787
vt 0.616623306 0.611169296
vt 0.623116174 0.611169296
vt 0.614285873 0.61246787
vt 0.683889424 0.629609043
vt 0.684928283 0.624414748
vt 0.683889424 0.626492466
vt 0.686746286 0.632465905
vt 0.684928283 0.631427046
vt 0.692719725 0.626492466
vt 0.689862863 0.623375889
vt 0.686746286 0.623375889
vt 0.691680866 0.624414748
vt 0.691680866 0.631427046
vt 0.692719725 0.629609043
vt 0.689862863 0.632465905
vt 0.598183559 0.584938107
vt 0.608052719 0.574549517
vt 0.598183559 0.574549517
vt 0.608052719 0.584938107
vt 0.614545588 0.574549517
vt 0.614545588 0.584938107
vt 0.621298171 0.574549517
vt 0.621298171 0.584938107
vt 0.631167331 0.574549517
vt 0.631167331 0.584938107
vt 0.6376602 0.584938107
vt 0.6376602 0.574549517
vt 0.644153068 0.584938107
vt 0.644153068 0.574549517
vt 0.654022228 0.574549517
vt 0.654022228 0.584938107
vt 0.660774812 0.574549517
vt 0.660774812 0.584938107
vt 0.66726768 0.574549517
vt 0.66726768 0.584938107
vt 0.67713684 0.574549517
vt 0.67713684 0.584938107
vt 0.683629709 0.584938107
vt 0.683629709 0.574549517
vt 0.690382292 0.584938107
vt 0.690382292 0.574549517
vt 0.66726768 0.621557886
vt 0.663631674 0.625193892
vt 0.665969106 0.623895318
vt 0.654541658 0.623895318
vt 0.657138805 0.625193892
vt 0.653243084 0.621557886
vt 0.66726768 0.614805302
vt 0.653243084 0.615065017
vt 0.665969106 0.61246787
vt 0.657138805 0.611169296
vt 0.663631674 0.611169296
vt 0.654541658 0.61246787
vt 0.690122577 0.614805302
vt 0.684928283 0.613766443
vt 0.686746286 0.614805302
vt 0.69297944 0.611688725
vt 0.691940581 0.613766443
vt 0.686746286 0.605715286
vt 0.683889424 0.608572149
vt 0.683889424 0.611688725
vt 0.684928283 0.606754145
vt 0.691940581 0.606754145
vt 0.690122577 0.605715286
vt 0.69297944 0.608572149
vt 0.562602639 0.668825969
vt 0.602338995 0.664930247
vt 0.562602639 0.664930247
vt 0.602338995 0.668825969
vt 0.622077315 0.664930247
vt 0.562602639 0.672461975
vt 0.622077315 0.668825969
vt 0.635322767 0.664930247
vt 0.602338995 0.672461975
vt 0.562602639 0.676357696
vt 0.635322767 0.668825969
vt 0.641555921 0.664930247
vt 0.602338995 0.676357696
vt 0.562602639 0.680253417
vt 0.622077315 0.672461975
vt 0.641555921 0.668825969
vt 0.646490501 0.664930247
vt 0.602338995 0.680253417
vt 0.562602639 0.684149138
vt 0.622077315 0.676357696
vt 0.635322767 0.672461975
vt 0.646490501 0.668825969
vt 0.650386222 0.664930247
vt 0.602338995 0.684149138
vt 0.562602639 0.687785145
vt 0.622077315 0.680253417
vt 0.635322767 0.676357696
vt 0.641555921 0.672461975
vt 0.602338995 0.687785145
vt 0.562602639 0.691680866
vt 0.622077315 0.684149138
vt 0.635322767 0.680253417
vt 0.641555921 0.676357696
vt 0.602338995 0.691680866
vt 0.562602639 0.695576587
vt 0.622077315 0.687785145
vt 0.635322767 0.684149138
vt 0.602338995 0.695576587
vt 0.562602639 0.699212593
vt 0.622077315 0.691680866
vt 0.602338995 0.699212593
vt 0.562602639 0.703108315
vt 0.646490501 0.672461975
vt 0.641555921 0.680253417
vt 0.635322767 0.687785145
vt 0.622077315 0.695576587
vt 0.602338995 0.703108315
vt 0.562602639 0.707004036
vt 0.646490501 0.676357696
vt 0.641555921 0.684149138
vt 0.635322767 0.691680866
vt 0.622077315 0.699212593
vt 0.602338995 0.707004036
vt 0.562602639 0.710899757
vt 0.602338995 0.710899757
vt 0.622077315 0.703108315
vt 0.622077315 0.707004036
vt 0.622077315 0.710899757
vt 0.635322767 0.695576587
vt 0.635322767 0.699212593
vt 0.635322767 0.703108315
vt 0.635322767 0.707004036
vt 0.635322767 0.710899757
vt 0.641555921 0.707004036
vt 0.641555921 0.710899757
vt 0.641555921 0.703108315
vt 0.646490501 0.707004036
vt 0.646490501 0.710899757
vt 0.641555921 0.699212593
vt 0.646490501 0.703108315
vt 0.650386222 0.707004036
vt 0.650386222 0.710899757
vt 0.654281943 0.710899757
vt 0.641555921 0.695576587
vt 0.650386222 0.703108315
vt 0.654281943 0.707004036
vt 0.646490501 0.699212593
vt 0.650386222 0.699212593
vt 0.657658235 0.707004036
vt 0.657658235 0.710899757
vt 0.654281943 0.703108315
vt 0.657658235 0.703108315
vt 0.661034526 0.707004036
vt 0.661034526 0.710899757
vt 0.661034526 0.703108315
vt 0.664151103 0.707004036
vt 0.664151103 0.710899757
vt 0.664151103 0.703108315
vt 0.668566254 0.707004036
vt 0.668566254 0.710899757
vt 0.668566254 0.703108315
vt 0.674279978 0.707004036
vt 0.674279978 0.710899757
vt 0.674279978 0.703108315
vt 0.695316872 0.707004036
vt 0.695316872 0.710899757
vt 0.716613481 0.710899757
vt 0.695316872 0.703108315
vt 0.716613481 0.707004036
vt 0.722327205 0.710899757
vt 0.722327205 0.707004036
vt 0.726742356 0.710899757
vt 0.716613481 0.703108315
vt 0.695316872 0.699212593
vt 0.674279978 0.699212593
vt 0.726742356 0.707004036
vt 0.729858933 0.710899757
vt 0.722327205 0.703108315
vt 0.716613481 0.699212593
vt 0.729858933 0.707004036
vt 0.733235225 0.710899757
vt 0.726742356 0.703108315
vt 0.733235225 0.707004036
vt 0.736611516 0.710899757
vt 0.668566254 0.699212593
vt 0.695316872 0.695576587
vt 0.722327205 0.699212593
vt 0.729858933 0.703108315
vt 0.664151103 0.699212593
vt 0.674279978 0.695576587
vt 0.716613481 0.695576587
vt 0.726742356 0.699212593
vt 0.661034526 0.699212593
vt 0.668566254 0.695576587
vt 0.695316872 0.691680866
vt 0.722327205 0.695576587
vt 0.657658235 0.699212593
vt 0.664151103 0.695576587
vt 0.674279978 0.691680866
vt 0.716613481 0.691680866
vt 0.654281943 0.699212593
vt 0.661034526 0.695576587
vt 0.668566254 0.691680866
vt 0.695316872 0.687785145
vt 0.650386222 0.695576587
vt 0.657658235 0.695576587
vt 0.664151103 0.691680866
vt 0.674279978 0.687785145
vt 0.646490501 0.695576587
vt 0.654281943 0.695576587
vt 0.661034526 0.691680866
vt 0.668566254 0.687785145
vt 0.641555921 0.691680866
vt 0.650386222 0.691680866
vt 0.657658235 0.691680866
vt 0.664151103 0.687785145
vt 0.641555921 0.687785145
vt 0.646490501 0.691680866
vt 0.654281943 0.691680866
vt 0.661034526 0.687785145
vt 0.646490501 0.687785145
vt 0.650386222 0.687785145
vt 0.646490501 0.684149138
vt 0.657658235 0.687785145
vt 0.646490501 0.680253417
vt 0.650386222 0.684149138
vt 0.654281943 0.687785145
vt 0.654281943 0.684149138
vt 0.650386222 0.680253417
vt 0.654281943 0.680253417
vt 0.657658235 0.684149138
vt 0.661034526 0.684149138
vt 0.650386222 0.676357696
vt 0.654281943 0.676357696
vt 0.657658235 0.680253417
vt 0.650386222 0.672461975
vt 0.654281943 0.672461975
vt 0.657658235 0.676357696
vt 0.650386222 0.668825969
vt 0.654281943 0.664930247
vt 0.654281943 0.668825969
vt 0.657658235 0.664930247
vt 0.657658235 0.672461975
vt 0.657658235 0.668825969
vt 0.661034526 0.664930247
vt 0.661034526 0.680253417
vt 0.661034526 0.676357696
vt 0.661034526 0.668825969
vt 0.664151103 0.664930247
vt 0.661034526 0.672461975
vt 0.664151103 0.668825969
vt 0.668566254 0.664930247
vt 0.664151103 0.672461975
vt 0.668566254 0.668825969
vt 0.674279978 0.664930247
vt 0.664151103 0.676357696
vt 0.664151103 0.680253417
vt 0.668566254 0.672461975
vt 0.674279978 0.668825969
vt 0.695316872 0.664930247
vt 0.674279978 0.672461975
vt 0.668566254 0.676357696
vt 0.664151103 0.684149138
vt 0.695316872 0.668825969
vt 0.668566254 0.680253417
vt 0.668566254 0.684149138
vt 0.674279978 0.684149138
vt 0.674279978 0.680253417
vt 0.695316872 0.680253417
vt 0.695316872 0.684149138
vt 0.674279978 0.676357696
vt 0.716613481 0.687785145
vt 0.695316872 0.676357696
vt 0.716613481 0.684149138
vt 0.722327205 0.691680866
vt 0.695316872 0.672461975
vt 0.716613481 0.672461975
vt 0.716613481 0.676357696
vt 0.722327205 0.687785145
vt 0.726742356 0.695576587
vt 0.716613481 0.668825969
vt 0.716613481 0.664930247
vt 0.722327205 0.668825969
vt 0.722327205 0.664930247
vt 0.722327205 0.672461975
vt 0.726742356 0.668825969
vt 0.726742356 0.664930247
vt 0.726742356 0.691680866
vt 0.729858933 0.699212593
vt 0.726742356 0.672461975
vt 0.729858933 0.668825969
vt 0.729858933 0.664930247
vt 0.729858933 0.672461975
vt 0.733235225 0.668825969
vt 0.733235225 0.664930247
vt 0.736611516 0.668825969
vt 0.736611516 0.664930247
vt 0.733235225 0.672461975
vt 0.729858933 0.676357696
vt 0.726742356 0.676357696
vt 0.740507237 0.668825969
vt 0.740507237 0.664930247
vt 0.744402959 0.668825969
vt 0.744402959 0.664930247
vt 0.740507237 0.672461975
vt 0.736611516 0.672461975
vt 0.733235225 0.676357696
vt 0.722327205 0.676357696
vt 0.729858933 0.680253417
vt 0.749337539 0.668825969
vt 0.749337539 0.664930247
vt 0.716613481 0.680253417
vt 0.726742356 0.680253417
vt 0.722327205 0.680253417
vt 0.722327205 0.684149138
vt 0.726742356 0.684149138
vt 0.726742356 0.687785145
vt 0.729858933 0.684149138
vt 0.729858933 0.687785145
vt 0.729858933 0.691680866
vt 0.733235225 0.680253417
vt 0.729858933 0.695576587
vt 0.736611516 0.676357696
vt 0.740507237 0.676357696
vt 0.744402959 0.672461975
vt 0.749337539 0.672461975
vt 0.733235225 0.695576587
vt 0.733235225 0.699212593
vt 0.733235225 0.691680866
vt 0.733235225 0.703108315
vt 0.736611516 0.707004036
vt 0.736611516 0.703108315
vt 0.736611516 0.699212593
vt 0.740507237 0.707004036
vt 0.740507237 0.710899757
vt 0.744402959 0.710899757
vt 0.740507237 0.703108315
vt 0.744402959 0.707004036
vt 0.749337539 0.710899757
vt 0.740507237 0.699212593
vt 0.736611516 0.695576587
vt 0.749337539 0.707004036
vt 0.755570692 0.710899757
vt 0.744402959 0.703108315
vt 0.740507237 0.695576587
vt 0.755570692 0.707004036
vt 0.768816144 0.710899757
vt 0.749337539 0.703108315
vt 0.744402959 0.699212593
vt 0.768816144 0.707004036
vt 0.788554465 0.710899757
vt 0.755570692 0.703108315
vt 0.749337539 0.699212593
vt 0.788554465 0.707004036
vt 0.82829082 0.710899757
vt 0.82829082 0.707004036
vt 0.768816144 0.703108315
vt 0.755570692 0.699212593
vt 0.788554465 0.703108315
vt 0.82829082 0.703108315
vt 0.768816144 0.699212593
vt 0.788554465 0.699212593
vt 0.82829082 0.699212593
vt 0.755570692 0.695576587
vt 0.788554465 0.695576587
vt 0.82829082 0.695576587
vt 0.768816144 0.695576587
vt 0.749337539 0.695576587
vt 0.788554465 0.691680866
vt 0.82829082 0.691680866
vt 0.768816144 0.691680866
vt 0.755570692 0.691680866
vt 0.744402959 0.695576587
vt 0.788554465 0.687785145
vt 0.82829082 0.687785145
vt 0.768816144 0.687785145
vt 0.788554465 0.684149138
vt 0.82829082 0.684149138
vt 0.755570692 0.687785145
vt 0.749337539 0.691680866
vt 0.740507237 0.691680866
vt 0.768816144 0.684149138
vt 0.788554465 0.680253417
vt 0.82829082 0.680253417
vt 0.755570692 0.684149138
vt 0.749337539 0.687785145
vt 0.744402959 0.691680866
vt 0.768816144 0.680253417
vt 0.788554465 0.676357696
vt 0.82829082 0.676357696
vt 0.744402959 0.687785145
vt 0.749337539 0.684149138
vt 0.740507237 0.687785145
vt 0.755570692 0.680253417
vt 0.768816144 0.676357696
vt 0.788554465 0.672461975
vt 0.82829082 0.672461975
vt 0.749337539 0.680253417
vt 0.755570692 0.676357696
vt 0.768816144 0.672461975
vt 0.788554465 0.668825969
vt 0.82829082 0.668825969
vt 0.788554465 0.664930247
vt 0.82829082 0.664930247
vt 0.768816144 0.664930247
vt 0.768816144 0.668825969
vt 0.755570692 0.664930247
vt 0.755570692 0.668825969
vt 0.755570692 0.672461975
vt 0.749337539 0.676357696
vt 0.744402959 0.676357696
vt 0.744402959 0.680253417
vt 0.740507237 0.680253417
vt 0.744402959 0.684149138
vt 0.740507237 0.684149138
vt 0.736611516 0.680253417
vt 0.736611516 0.684149138
vt 0.733235225 0.684149138
vt 0.733235225 0.687785145
vt 0.736611516 0.687785145
vt 0.736611516 0.691680866
vt 0.800241628 0.641036491
vt 0.701030597 0.638958773
vt 0.701030597 0.641036491
vt 0.800241628 0.638958773
vt 0.701030597 0.636621341
vt 0.800241628 0.636621341
vt 0.701030597 0.634283908
vt 0.800241628 0.634283908
vt 0.701030597 0.631946475
vt 0.800241628 0.631946475
vt 0.701030597 0.629609043
vt 0.800241628 0.629609043
vt 0.701030597 0.627531325
vt 0.800241628 0.627531325
vt 0.701030597 0.625193892
vt 0.800241628 0.625193892
vt 0.701030597 0.622856459
vt 0.800241628 0.622856459
vt 0.701030597 0.620519027
vt 0.800241628 0.620519027
vt 0.701030597 0.618181594
vt 0.800241628 0.618181594
vt 0.701030597 0.616103876
vt 0.800241628 0.616103876
vt 0.701030597 0.613766443
vt 0.800241628 0.613766443
vt 0.669605113 0.608831863
vt 0.663631674 0.611169296
vt 0.665969106 0.61246787
vt 0.66726768 0.614805302
vt 0.664670533 0.606234716
vt 0.655840232 0.606234716
vt 0.657138805 0.611169296
vt 0.665709392 0.602598709
vt 0.67220226 0.606494431
vt 0.655061087 0.602598709
vt 0.650905651 0.608831863
vt 0.654541658 0.61246787
vt 0.648568219 0.606494431
vt 0.653243084 0.615065017
vt 0.67220226 0.613766443
vt 0.675838267 0.612987299
vt 0.648308504 0.613766443
vt 0.644932212 0.612987299
vt 0.644672498 0.623635604
vt 0.672461975 0.622596745
vt 0.675838267 0.623375889
vt 0.66726768 0.621557886
vt 0.67220226 0.629868757
vt 0.648308504 0.622596745
vt 0.653243084 0.621557886
vt 0.648568219 0.629868757
vt 0.669605113 0.627531325
vt 0.665969106 0.623895318
vt 0.665709392 0.633764478
vt 0.663631674 0.625193892
vt 0.651165366 0.627531325
vt 0.654541658 0.623895318
vt 0.657138805 0.625193892
vt 0.655061087 0.633764478
vt 0.664670533 0.630128472
vt 0.655840232 0.630128472
vt 0.629349328 0.608831863
vt 0.623116174 0.611169296
vt 0.625713321 0.61246787
vt 0.627011895 0.614805302
vt 0.624414748 0.606234716
vt 0.615584447 0.606234716
vt 0.616623306 0.611169296
vt 0.625193892 0.602598709
vt 0.631686761 0.606494431
vt 0.614545588 0.602598709
vt 0.610649866 0.608831863
vt 0.614285873 0.61246787
vt 0.608312434 0.606494431
vt 0.612987299 0.615065017
vt 0.631946475 0.613766443
vt 0.635582482 0.612987299
vt 0.608052719 0.613766443
vt 0.604416713 0.612987299
vt 0.604416713 0.623635604
vt 0.631946475 0.622596745
vt 0.635582482 0.623375889
vt 0.627011895 0.621557886
vt 0.631686761 0.629868757
vt 0.608052719 0.622596745
vt 0.612987299 0.621557886
vt 0.608312434 0.629868757
vt 0.629349328 0.627531325
vt 0.625713321 0.623895318
vt 0.625453607 0.633764478
vt 0.623375889 0.625193892
vt 0.610649866 0.627531325
vt 0.614285873 0.623895318
vt 0.616623306 0.625193892
vt 0.614805302 0.633764478
vt 0.624414748 0.630128472
vt 0.615584447 0.630128472
g QiCai_01QiCai_01_mobile_0
f 3/3/3 2/2/2 1/1/1
f 4/4/4 1/1/1 2/2/2
f 1/1/1 4/4/4 5/5/5
f 6/6/6 5/5/5 4/4/4
f 6/6/6 7/7/7 5/5/5
f 8/8/8 5/5/5 7/7/7
f 7/7/7 9/9/9 8/8/8
f 10/10/10 8/8/8 9/9/9
f 9/9/9 11/11/11 10/10/10
f 12/12/12 10/10/10 11/11/11
f 11/11/11 13/13/13 12/12/12
f 14/14/14 12/12/12 13/13/13
f 14/14/14 13/13/13 15/15/15
f 16/16/16 15/15/15 13/13/13
f 15/15/15 16/16/16 17/17/17
f 18/18/18 17/17/17 16/16/16
f 18/18/18 19/19/19 17/17/17
f 20/20/20 17/17/17 19/19/19
f 19/19/19 21/21/21 20/20/20
f 22/22/22 20/20/20 21/21/21
f 21/21/21 23/23/23 22/22/22
f 24/24/24 22/22/22 23/23/23
f 23/23/23 25/25/25 24/24/24
f 26/26/26 24/24/24 25/25/25
f 29/29/29 28/28/28 27/27/27
f 28/28/28 30/30/30 27/27/27
f 31/31/31 30/30/30 28/28/28
f 30/30/30 32/32/32 27/27/27
f 27/27/27 32/32/32 33/33/33
f 34/34/34 33/33/33 32/32/32
f 33/33/33 34/34/34 35/35/35
f 35/35/35 34/34/34 36/36/36
f 37/37/37 35/35/35 36/36/36
f 34/34/34 38/38/38 36/36/36
f 41/41/41 40/40/40 39/39/39
f 40/40/40 42/42/42 39/39/39
f 42/42/42 43/43/43 39/39/39
f 44/44/44 42/42/42 40/40/40
f 45/45/45 44/44/44 40/40/40
f 46/46/46 45/45/45 40/40/40
f 47/47/47 44/44/44 45/45/45
f 48/48/48 42/42/42 44/44/44
f 49/49/49 48/48/48 44/44/44
f 50/50/50 42/42/42 48/48/48
f 53/53/53 52/52/52 51/51/51
f 54/54/54 51/51/51 52/52/52
f 52/52/52 55/55/55 54/54/54
f 56/56/56 54/54/54 55/55/55
f 55/55/55 57/57/57 56/56/56
f 58/58/58 56/56/56 57/57/57
f 57/57/57 59/59/59 58/58/58
f 60/60/60 58/58/58 59/59/59
f 60/60/60 59/59/59 61/61/61
f 62/62/62 61/61/61 59/59/59
f 61/61/61 62/62/62 63/63/63
f 64/64/64 63/63/63 62/62/62
f 64/64/64 65/65/65 63/63/63
f 66/66/66 63/63/63 65/65/65
f 65/65/65 67/67/67 66/66/66
f 68/68/68 66/66/66 67/67/67
f 67/67/67 69/69/69 68/68/68
f 70/70/70 68/68/68 69/69/69
f 69/69/69 71/71/71 70/70/70
f 72/72/72 70/70/70 71/71/71
f 72/72/72 71/71/71 73/73/73
f 74/74/74 73/73/73 71/71/71
f 73/73/73 74/74/74 75/75/75
f 76/76/76 75/75/75 74/74/74
f 79/79/79 78/78/78 77/77/77
f 78/78/78 80/80/80 77/77/77
f 81/81/81 80/80/80 78/78/78
f 80/80/80 82/82/82 77/77/77
f 77/77/77 82/82/82 83/83/83
f 84/84/84 83/83/83 82/82/82
f 83/83/83 84/84/84 85/85/85
f 85/85/85 84/84/84 86/86/86
f 87/87/87 85/85/85 86/86/86
f 84/84/84 88/88/88 86/86/86
f 91/91/91 90/90/90 89/89/89
f 90/90/90 92/92/92 89/89/89
f 92/92/92 93/93/93 89/89/89
f 94/94/94 92/92/92 90/90/90
f 95/95/95 94/94/94 90/90/90
f 96/96/96 95/95/95 90/90/90
f 97/97/97 94/94/94 95/95/95
f 98/98/98 92/92/92 94/94/94
f 99/99/99 98/98/98 94/94/94
f 100/100/100 92/92/92 98/98/98
f 103/103/103 102/102/102 101/101/101
f 104/104/104 101/101/101 102/102/102
f 102/102/102 105/105/105 104/104/104
f 101/101/101 104/104/104 106/106/106
f 107/107/107 104/104/104 105/105/105
f 105/105/105 108/108/108 107/107/107
f 109/109/109 106/106/106 104/104/104
f 104/104/104 107/107/107 109/109/109
f 106/106/106 109/109/109 110/110/110
f 111/111/111 107/107/107 108/108/108
f 108/108/108 112/112/112 111/111/111
f 113/113/113 110/110/110 109/109/109
f 110/110/110 113/113/113 114/114/114
f 115/115/115 109/109/109 107/107/107
f 107/107/107 111/111/111 115/115/115
f 109/109/109 115/115/115 113/113/113
f 116/116/116 111/111/111 112/112/112
f 112/112/112 117/117/117 116/116/116
f 118/118/118 114/114/114 113/113/113
f 114/114/114 118/118/118 119/119/119
f 120/120/120 113/113/113 115/115/115
f 113/113/113 120/120/120 118/118/118
f 121/121/121 115/115/115 111/111/111
f 111/111/111 116/116/116 121/121/121
f 115/115/115 121/121/121 120/120/120
f 122/122/122 116/116/116 117/117/117
f 117/117/117 123/123/123 122/122/122
f 124/124/124 119/119/119 118/118/118
f 119/119/119 124/124/124 125/125/125
f 126/126/126 118/118/118 120/120/120
f 118/118/118 126/126/126 124/124/124
f 127/127/127 120/120/120 121/121/121
f 120/120/120 127/127/127 126/126/126
f 128/128/128 121/121/121 116/116/116
f 116/116/116 122/122/122 128/128/128
f 121/121/121 128/128/128 127/127/127
f 129/129/129 125/125/125 124/124/124
f 125/125/125 129/129/129 130/130/130
f 131/131/131 124/124/124 126/126/126
f 124/124/124 131/131/131 129/129/129
f 132/132/132 126/126/126 127/127/127
f 126/126/126 132/132/132 131/131/131
f 133/133/133 127/127/127 128/128/128
f 127/127/127 133/133/133 132/132/132
f 134/134/134 130/130/130 129/129/129
f 130/130/130 134/134/134 135/135/135
f 136/136/136 129/129/129 131/131/131
f 129/129/129 136/136/136 134/134/134
f 137/137/137 131/131/131 132/132/132
f 131/131/131 137/137/137 136/136/136
f 138/138/138 135/135/135 134/134/134
f 135/135/135 138/138/138 139/139/139
f 140/140/140 134/134/134 136/136/136
f 134/134/134 140/140/140 138/138/138
f 141/141/141 139/139/139 138/138/138
f 139/139/139 141/141/141 142/142/142
f 128/128/128 143/143/143 133/133/133
f 143/143/143 128/128/128 122/122/122
f 144/144/144 132/132/132 133/133/133
f 132/132/132 144/144/144 137/137/137
f 145/145/145 136/136/136 137/137/137
f 136/136/136 145/145/145 140/140/140
f 146/146/146 138/138/138 140/140/140
f 138/138/138 146/146/146 141/141/141
f 147/147/147 142/142/142 141/141/141
f 142/142/142 147/147/147 148/148/148
f 149/149/149 133/133/133 143/143/143
f 133/133/133 149/149/149 144/144/144
f 150/150/150 137/137/137 144/144/144
f 137/137/137 150/150/150 145/145/145
f 151/151/151 140/140/140 145/145/145
f 140/140/140 151/151/151 146/146/146
f 152/152/152 141/141/141 146/146/146
f 141/141/141 152/152/152 147/147/147
f 153/153/153 148/148/148 147/147/147
f 148/148/148 153/153/153 154/154/154
f 155/155/155 154/154/154 153/153/153
f 147/147/147 156/156/156 153/153/153
f 156/156/156 147/147/147 152/152/152
f 153/153/153 157/157/157 155/155/155
f 157/157/157 153/153/153 156/156/156
f 158/158/158 155/155/155 157/157/157
f 146/146/146 159/159/159 152/152/152
f 159/159/159 146/146/146 151/151/151
f 152/152/152 160/160/160 156/156/156
f 160/160/160 152/152/152 159/159/159
f 156/156/156 161/161/161 157/157/157
f 161/161/161 156/156/156 160/160/160
f 157/157/157 162/162/162 158/158/158
f 162/162/162 157/157/157 161/161/161
f 163/163/163 158/158/158 162/162/162
f 162/162/162 164/164/164 163/163/163
f 162/162/162 161/161/161 164/164/164
f 165/165/165 163/163/163 164/164/164
f 161/161/161 160/160/160 166/166/166
f 166/166/166 164/164/164 161/161/161
f 164/164/164 167/167/167 165/165/165
f 164/164/164 166/166/166 167/167/167
f 168/168/168 165/165/165 167/167/167
f 160/160/160 159/159/159 169/169/169
f 169/169/169 166/166/166 160/160/160
f 170/170/170 167/167/167 166/166/166
f 166/166/166 169/169/169 170/170/170
f 167/167/167 171/171/171 168/168/168
f 172/172/172 168/168/168 171/171/171
f 172/172/172 171/171/171 173/173/173
f 174/174/174 169/169/169 159/159/159
f 159/159/159 151/151/151 174/174/174
f 171/171/171 167/167/167 175/175/175
f 170/170/170 175/175/175 167/167/167
f 176/176/176 173/173/173 171/171/171
f 171/171/171 175/175/175 176/176/176
f 177/177/177 170/170/170 169/169/169
f 169/169/169 174/174/174 177/177/177
f 175/175/175 170/170/170 178/178/178
f 177/177/177 178/178/178 170/170/170
f 176/176/176 179/179/179 173/173/173
f 180/180/180 173/173/173 179/179/179
f 181/181/181 176/176/176 175/175/175
f 175/175/175 178/178/178 181/181/181
f 179/179/179 176/176/176 182/182/182
f 181/181/181 182/182/182 176/176/176
f 179/179/179 183/183/183 180/180/180
f 184/184/184 180/180/180 183/183/183
f 182/182/182 185/185/185 179/179/179
f 183/183/183 179/179/179 185/185/185
f 183/183/183 186/186/186 184/184/184
f 187/187/187 184/184/184 186/186/186
f 185/185/185 188/188/188 183/183/183
f 186/186/186 183/183/183 188/188/188
f 186/186/186 189/189/189 187/187/187
f 190/190/190 187/187/187 189/189/189
f 188/188/188 191/191/191 186/186/186
f 189/189/189 186/186/186 191/191/191
f 189/189/189 192/192/192 190/190/190
f 193/193/193 190/190/190 192/192/192
f 191/191/191 194/194/194 189/189/189
f 192/192/192 189/189/189 194/194/194
f 192/192/192 195/195/195 193/193/193
f 196/196/196 193/193/193 195/195/195
f 196/196/196 195/195/195 197/197/197
f 195/195/195 192/192/192 198/198/198
f 194/194/194 198/198/198 192/192/192
f 199/199/199 197/197/197 195/195/195
f 195/195/195 198/198/198 199/199/199
f 197/197/197 199/199/199 200/200/200
f 201/201/201 200/200/200 199/199/199
f 200/200/200 201/201/201 202/202/202
f 203/203/203 199/199/199 198/198/198
f 199/199/199 203/203/203 201/201/201
f 198/198/198 194/194/194 204/204/204
f 198/198/198 204/204/204 203/203/203
f 194/194/194 191/191/191 205/205/205
f 205/205/205 204/204/204 194/194/194
f 206/206/206 202/202/202 201/201/201
f 202/202/202 206/206/206 207/207/207
f 208/208/208 201/201/201 203/203/203
f 201/201/201 208/208/208 206/206/206
f 209/209/209 203/203/203 204/204/204
f 203/203/203 209/209/209 208/208/208
f 210/210/210 207/207/207 206/206/206
f 207/207/207 210/210/210 211/211/211
f 212/212/212 206/206/206 208/208/208
f 206/206/206 212/212/212 210/210/210
f 213/213/213 211/211/211 210/210/210
f 211/211/211 213/213/213 214/214/214
f 215/215/215 205/205/205 191/191/191
f 191/191/191 188/188/188 215/215/215
f 204/204/204 205/205/205 216/216/216
f 204/204/204 216/216/216 209/209/209
f 217/217/217 208/208/208 209/209/209
f 208/208/208 217/217/217 212/212/212
f 218/218/218 210/210/210 212/212/212
f 210/210/210 218/218/218 213/213/213
f 219/219/219 215/215/215 188/188/188
f 188/188/188 185/185/185 219/219/219
f 205/205/205 215/215/215 220/220/220
f 220/220/220 216/216/216 205/205/205
f 221/221/221 209/209/209 216/216/216
f 209/209/209 221/221/221 217/217/217
f 222/222/222 212/212/212 217/217/217
f 212/212/212 222/222/222 218/218/218
f 223/223/223 219/219/219 185/185/185
f 185/185/185 182/182/182 223/223/223
f 215/215/215 219/219/219 224/224/224
f 224/224/224 220/220/220 215/215/215
f 216/216/216 220/220/220 225/225/225
f 216/216/216 225/225/225 221/221/221
f 226/226/226 217/217/217 221/221/221
f 217/217/217 226/226/226 222/222/222
f 227/227/227 223/223/223 182/182/182
f 182/182/182 181/181/181 227/227/227
f 219/219/219 223/223/223 228/228/228
f 228/228/228 224/224/224 219/219/219
f 220/220/220 224/224/224 229/229/229
f 229/229/229 225/225/225 220/220/220
f 230/230/230 221/221/221 225/225/225
f 221/221/221 230/230/230 226/226/226
f 231/231/231 227/227/227 181/181/181
f 231/231/231 181/181/181 178/178/178
f 223/223/223 227/227/227 232/232/232
f 232/232/232 228/228/228 223/223/223
f 224/224/224 228/228/228 233/233/233
f 233/233/233 229/229/229 224/224/224
f 225/225/225 229/229/229 234/234/234
f 225/225/225 234/234/234 230/230/230
f 178/178/178 235/235/235 231/231/231
f 178/178/178 177/177/177 235/235/235
f 227/227/227 231/231/231 236/236/236
f 236/236/236 232/232/232 227/227/227
f 228/228/228 232/232/232 237/237/237
f 237/237/237 233/233/233 228/228/228
f 229/229/229 233/233/233 238/238/238
f 238/238/238 234/234/234 229/229/229
f 239/239/239 235/235/235 177/177/177
f 239/239/239 177/177/177 174/174/174
f 240/240/240 231/231/231 235/235/235
f 240/240/240 236/236/236 231/231/231
f 232/232/232 236/236/236 241/241/241
f 241/241/241 237/237/237 232/232/232
f 233/233/233 237/237/237 242/242/242
f 242/242/242 238/238/238 233/233/233
f 174/174/174 243/243/243 239/239/239
f 243/243/243 174/174/174 151/151/151
f 235/235/235 239/239/239 244/244/244
f 235/235/235 244/244/244 240/240/240
f 236/236/236 240/240/240 245/245/245
f 245/245/245 241/241/241 236/236/236
f 237/237/237 241/241/241 246/246/246
f 246/246/246 242/242/242 237/237/237
f 243/243/243 151/151/151 247/247/247
f 145/145/145 247/247/247 151/151/151
f 247/247/247 145/145/145 150/150/150
f 248/248/248 239/239/239 243/243/243
f 248/248/248 244/244/244 239/239/239
f 249/249/249 240/240/240 244/244/244
f 249/249/249 245/245/245 240/240/240
f 241/241/241 245/245/245 250/250/250
f 250/250/250 246/246/246 241/241/241
f 247/247/247 251/251/251 243/243/243
f 248/248/248 243/243/243 251/251/251
f 244/244/244 248/248/248 252/252/252
f 244/244/244 252/252/252 249/249/249
f 251/251/251 252/252/252 248/248/248
f 150/150/150 253/253/253 247/247/247
f 251/251/251 247/247/247 253/253/253
f 245/245/245 249/249/249 254/254/254
f 254/254/254 250/250/250 245/245/245
f 253/253/253 150/150/150 255/255/255
f 144/144/144 255/255/255 150/150/150
f 255/255/255 144/144/144 149/149/149
f 253/253/253 256/256/256 251/251/251
f 253/253/253 255/255/255 256/256/256
f 252/252/252 251/251/251 256/256/256
f 257/257/257 249/249/249 252/252/252
f 257/257/257 254/254/254 249/249/249
f 257/257/257 252/252/252 258/258/258
f 256/256/256 258/258/258 252/252/252
f 257/257/257 258/258/258 254/254/254
f 255/255/255 149/149/149 259/259/259
f 259/259/259 256/256/256 255/255/255
f 258/258/258 256/256/256 260/260/260
f 259/259/259 260/260/260 256/256/256
f 261/261/261 254/254/254 258/258/258
f 258/258/258 260/260/260 261/261/261
f 250/250/250 254/254/254 262/262/262
f 261/261/261 262/262/262 254/254/254
f 263/263/263 259/259/259 149/149/149
f 149/149/149 143/143/143 263/263/263
f 260/260/260 259/259/259 264/264/264
f 263/263/263 264/264/264 259/259/259
f 265/265/265 261/261/261 260/260/260
f 261/261/261 265/265/265 262/262/262
f 260/260/260 264/264/264 265/265/265
f 266/266/266 263/263/263 143/143/143
f 143/143/143 122/122/122 266/266/266
f 264/264/264 263/263/263 267/267/267
f 266/266/266 267/267/267 263/263/263
f 268/268/268 265/265/265 264/264/264
f 264/264/264 267/267/267 268/268/268
f 269/269/269 266/266/266 122/122/122
f 269/269/269 122/122/122 123/123/123
f 123/123/123 270/270/270 269/269/269
f 269/269/269 271/271/271 266/266/266
f 271/271/271 269/269/269 270/270/270
f 267/267/267 266/266/266 271/271/271
f 270/270/270 272/272/272 271/271/271
f 267/267/267 271/271/271 273/273/273
f 273/273/273 268/268/268 267/267/267
f 274/274/274 271/271/271 272/272/272
f 274/274/274 273/273/273 271/271/271
f 272/272/272 275/275/275 274/274/274
f 265/265/265 268/268/268 276/276/276
f 276/276/276 262/262/262 265/265/265
f 268/268/268 273/273/273 277/277/277
f 277/277/277 276/276/276 268/268/268
f 278/278/278 274/274/274 275/275/275
f 275/275/275 279/279/279 278/278/278
f 273/273/273 274/274/274 280/280/280
f 278/278/278 280/280/280 274/274/274
f 280/280/280 277/277/277 273/273/273
f 281/281/281 278/278/278 279/279/279
f 278/278/278 281/281/281 280/280/280
f 279/279/279 282/282/282 281/281/281
f 280/280/280 283/283/283 277/277/277
f 283/283/283 280/280/280 281/281/281
f 284/284/284 281/281/281 282/282/282
f 281/281/281 284/284/284 283/283/283
f 282/282/282 285/285/285 284/284/284
f 277/277/277 286/286/286 276/276/276
f 286/286/286 277/277/277 283/283/283
f 276/276/276 287/287/287 262/262/262
f 287/287/287 276/276/276 286/286/286
f 283/283/283 288/288/288 286/286/286
f 288/288/288 283/283/283 284/284/284
f 289/289/289 284/284/284 285/285/285
f 285/285/285 290/290/290 289/289/289
f 289/289/289 291/291/291 284/284/284
f 288/288/288 284/284/284 291/291/291
f 292/292/292 286/286/286 288/288/288
f 286/286/286 292/292/292 287/287/287
f 293/293/293 262/262/262 287/287/287
f 262/262/262 293/293/293 250/250/250
f 246/246/246 250/250/250 293/293/293
f 294/294/294 289/289/289 290/290/290
f 289/289/289 294/294/294 291/291/291
f 287/287/287 295/295/295 293/293/293
f 295/295/295 287/287/287 292/292/292
f 293/293/293 296/296/296 246/246/246
f 296/296/296 293/293/293 295/295/295
f 242/242/242 246/246/246 296/296/296
f 296/296/296 297/297/297 242/242/242
f 296/296/296 295/295/295 297/297/297
f 238/238/238 242/242/242 297/297/297
f 295/295/295 292/292/292 298/298/298
f 298/298/298 297/297/297 295/295/295
f 298/298/298 299/299/299 297/297/297
f 297/297/297 300/300/300 238/238/238
f 300/300/300 297/297/297 299/299/299
f 234/234/234 238/238/238 300/300/300
f 301/301/301 298/298/298 292/292/292
f 298/298/298 301/301/301 299/299/299
f 292/292/292 288/288/288 301/301/301
f 291/291/291 301/301/301 288/288/288
f 234/234/234 300/300/300 302/302/302
f 302/302/302 230/230/230 234/234/234
f 301/301/301 291/291/291 303/303/303
f 303/303/303 299/299/299 301/301/301
f 300/300/300 299/299/299 304/304/304
f 304/304/304 302/302/302 300/300/300
f 230/230/230 302/302/302 305/305/305
f 305/305/305 226/226/226 230/230/230
f 306/306/306 303/303/303 291/291/291
f 306/306/306 291/291/291 294/294/294
f 306/306/306 307/307/307 303/303/303
f 306/306/306 294/294/294 307/307/307
f 303/303/303 308/308/308 299/299/299
f 308/308/308 303/303/303 307/307/307
f 302/302/302 304/304/304 309/309/309
f 309/309/309 305/305/305 302/302/302
f 226/226/226 305/305/305 310/310/310
f 310/310/310 222/222/222 226/226/226
f 311/311/311 307/307/307 294/294/294
f 294/294/294 290/290/290 311/311/311
f 312/312/312 311/311/311 290/290/290
f 311/311/311 312/312/312 313/313/313
f 311/311/311 313/313/313 307/307/307
f 314/314/314 313/313/313 312/312/312
f 307/307/307 315/315/315 308/308/308
f 315/315/315 307/307/307 313/313/313
f 313/313/313 314/314/314 316/316/316
f 317/317/317 316/316/316 314/314/314
f 305/305/305 309/309/309 318/318/318
f 318/318/318 310/310/310 305/305/305
f 222/222/222 310/310/310 319/319/319
f 319/319/319 218/218/218 222/222/222
f 315/315/315 313/313/313 320/320/320
f 316/316/316 320/320/320 313/313/313
f 316/316/316 317/317/317 321/321/321
f 322/322/322 321/321/321 317/317/317
f 321/321/321 323/323/323 316/316/316
f 320/320/320 316/316/316 323/323/323
f 321/321/321 322/322/322 324/324/324
f 321/321/321 324/324/324 323/323/323
f 325/325/325 324/324/324 322/322/322
f 324/324/324 325/325/325 326/326/326
f 327/327/327 326/326/326 325/325/325
f 328/328/328 323/323/323 324/324/324
f 324/324/324 326/326/326 328/328/328
f 323/323/323 329/329/329 320/320/320
f 323/323/323 328/328/328 329/329/329
f 320/320/320 330/330/330 315/315/315
f 330/330/330 320/320/320 329/329/329
f 326/326/326 327/327/327 331/331/331
f 332/332/332 331/331/331 327/327/327
f 331/331/331 332/332/332 333/333/333
f 334/334/334 333/333/333 332/332/332
f 331/331/331 335/335/335 326/326/326
f 331/331/331 333/333/333 335/335/335
f 336/336/336 328/328/328 326/326/326
f 336/336/336 326/326/326 335/335/335
f 337/337/337 329/329/329 328/328/328
f 328/328/328 336/336/336 337/337/337
f 338/338/338 315/315/315 330/330/330
f 338/338/338 308/308/308 315/315/315
f 329/329/329 339/339/339 330/330/330
f 329/329/329 337/337/337 339/339/339
f 333/333/333 334/334/334 340/340/340
f 341/341/341 340/340/340 334/334/334
f 308/308/308 338/338/338 342/342/342
f 342/342/342 299/299/299 308/308/308
f 342/342/342 304/304/304 299/299/299
f 330/330/330 343/343/343 338/338/338
f 343/343/343 330/330/330 339/339/339
f 344/344/344 342/342/342 338/338/338
f 342/342/342 344/344/344 304/304/304
f 344/344/344 338/338/338 343/343/343
f 345/345/345 304/304/304 344/344/344
f 345/345/345 309/309/309 304/304/304
f 343/343/343 346/346/346 344/344/344
f 345/345/345 344/344/344 346/346/346
f 309/309/309 345/345/345 347/347/347
f 346/346/346 347/347/347 345/345/345
f 347/347/347 318/318/318 309/309/309
f 339/339/339 348/348/348 343/343/343
f 346/346/346 343/343/343 348/348/348
f 347/347/347 346/346/346 349/349/349
f 348/348/348 349/349/349 346/346/346
f 318/318/318 347/347/347 350/350/350
f 349/349/349 350/350/350 347/347/347
f 339/339/339 351/351/351 348/348/348
f 351/351/351 339/339/339 337/337/337
f 350/350/350 352/352/352 318/318/318
f 310/310/310 318/318/318 352/352/352
f 352/352/352 319/319/319 310/310/310
f 337/337/337 353/353/353 351/351/351
f 353/353/353 337/337/337 336/336/336
f 353/353/353 336/336/336 354/354/354
f 335/335/335 354/354/354 336/336/336
f 335/335/335 355/355/355 354/354/354
f 355/355/355 335/335/335 333/333/333
f 355/355/355 333/333/333 356/356/356
f 340/340/340 356/356/356 333/333/333
f 352/352/352 350/350/350 357/357/357
f 319/319/319 352/352/352 358/358/358
f 357/357/357 358/358/358 352/352/352
f 359/359/359 357/357/357 350/350/350
f 350/350/350 349/349/349 359/359/359
f 358/358/358 360/360/360 319/319/319
f 218/218/218 319/319/319 360/360/360
f 360/360/360 213/213/213 218/218/218
f 213/213/213 360/360/360 361/361/361
f 361/361/361 214/214/214 213/213/213
f 360/360/360 358/358/358 362/362/362
f 362/362/362 361/361/361 360/360/360
f 358/358/358 357/357/357 363/363/363
f 363/363/363 362/362/362 358/358/358
f 361/361/361 364/364/364 214/214/214
f 365/365/365 214/214/214 364/364/364
f 365/365/365 364/364/364 366/366/366
f 362/362/362 367/367/367 361/361/361
f 364/364/364 361/361/361 367/367/367
f 368/368/368 366/366/366 364/364/364
f 364/364/364 367/367/367 368/368/368
f 366/366/366 368/368/368 369/369/369
f 367/367/367 362/362/362 370/370/370
f 363/363/363 370/370/370 362/362/362
f 371/371/371 363/363/363 357/357/357
f 357/357/357 359/359/359 371/371/371
f 372/372/372 369/369/369 368/368/368
f 369/369/369 372/372/372 373/373/373
f 374/374/374 368/368/368 367/367/367
f 367/367/367 370/370/370 374/374/374
f 370/370/370 363/363/363 375/375/375
f 371/371/371 375/375/375 363/363/363
f 376/376/376 373/373/373 372/372/372
f 373/373/373 376/376/376 377/377/377
f 372/372/372 368/368/368 378/378/378
f 374/374/374 378/378/378 368/368/368
f 379/379/379 374/374/374 370/370/370
f 370/370/370 375/375/375 379/379/379
f 380/380/380 377/377/377 376/376/376
f 377/377/377 380/380/380 381/381/381
f 376/376/376 372/372/372 382/382/382
f 378/378/378 382/382/382 372/372/372
f 376/376/376 382/382/382 380/380/380
f 378/378/378 374/374/374 383/383/383
f 379/379/379 383/383/383 374/374/374
f 384/384/384 381/381/381 380/380/380
f 381/381/381 384/384/384 385/385/385
f 386/386/386 385/385/385 384/384/384
f 387/387/387 380/380/380 382/382/382
f 380/380/380 387/387/387 384/384/384
f 382/382/382 378/378/378 388/388/388
f 383/383/383 388/388/388 378/378/378
f 382/382/382 388/388/388 387/387/387
f 384/384/384 389/389/389 386/386/386
f 389/389/389 384/384/384 387/387/387
f 390/390/390 386/386/386 389/389/389
f 391/391/391 387/387/387 388/388/388
f 387/387/387 391/391/391 389/389/389
f 389/389/389 392/392/392 390/390/390
f 392/392/392 389/389/389 391/391/391
f 393/393/393 390/390/390 392/392/392
f 388/388/388 383/383/383 394/394/394
f 388/388/388 394/394/394 391/391/391
f 392/392/392 395/395/395 393/393/393
f 396/396/396 393/393/393 395/395/395
f 391/391/391 397/397/397 392/392/392
f 397/397/397 391/391/391 394/394/394
f 395/395/395 392/392/392 397/397/397
f 398/398/398 394/394/394 383/383/383
f 383/383/383 379/379/379 398/398/398
f 395/395/395 399/399/399 396/396/396
f 400/400/400 396/396/396 399/399/399
f 397/397/397 401/401/401 395/395/395
f 399/399/399 395/395/395 401/401/401
f 394/394/394 402/402/402 397/397/397
f 394/394/394 398/398/398 402/402/402
f 401/401/401 397/397/397 402/402/402
f 403/403/403 398/398/398 379/379/379
f 403/403/403 379/379/379 375/375/375
f 399/399/399 404/404/404 400/400/400
f 405/405/405 400/400/400 404/404/404
f 401/401/401 406/406/406 399/399/399
f 404/404/404 399/399/399 406/406/406
f 404/404/404 407/407/407 405/405/405
f 408/408/408 405/405/405 407/407/407
f 402/402/402 409/409/409 401/401/401
f 406/406/406 401/401/401 409/409/409
f 410/410/410 402/402/402 398/398/398
f 398/398/398 403/403/403 410/410/410
f 375/375/375 411/411/411 403/403/403
f 375/375/375 371/371/371 411/411/411
f 406/406/406 412/412/412 404/404/404
f 407/407/407 404/404/404 412/412/412
f 407/407/407 413/413/413 408/408/408
f 414/414/414 408/408/408 413/413/413
f 409/409/409 415/415/415 406/406/406
f 412/412/412 406/406/406 415/415/415
f 409/409/409 402/402/402 416/416/416
f 410/410/410 416/416/416 402/402/402
f 417/417/417 410/410/410 403/403/403
f 417/417/417 403/403/403 411/411/411
f 412/412/412 418/418/418 407/407/407
f 413/413/413 407/407/407 418/418/418
f 413/413/413 419/419/419 414/414/414
f 420/420/420 414/414/414 419/419/419
f 417/417/417 421/421/421 410/410/410
f 416/416/416 410/410/410 421/421/421
f 416/416/416 422/422/422 409/409/409
f 415/415/415 409/409/409 422/422/422
f 411/411/411 423/423/423 417/417/417
f 421/421/421 417/417/417 423/423/423
f 415/415/415 424/424/424 412/412/412
f 418/418/418 412/412/412 424/424/424
f 418/418/418 425/425/425 413/413/413
f 419/419/419 413/413/413 425/425/425
f 419/419/419 426/426/426 420/420/420
f 427/427/427 420/420/420 426/426/426
f 422/422/422 428/428/428 415/415/415
f 424/424/424 415/415/415 428/428/428
f 424/424/424 429/429/429 418/418/418
f 425/425/425 418/418/418 429/429/429
f 425/425/425 430/430/430 419/419/419
f 426/426/426 419/419/419 430/430/430
f 426/426/426 431/431/431 427/427/427
f 432/432/432 427/427/427 431/431/431
f 431/431/431 433/433/433 432/432/432
f 434/434/434 432/432/432 433/433/433
f 433/433/433 431/431/431 435/435/435
f 431/431/431 426/426/426 436/436/436
f 436/436/436 435/435/435 431/431/431
f 430/430/430 436/436/436 426/426/426
f 435/435/435 436/436/436 437/437/437
f 438/438/438 437/437/437 436/436/436
f 436/436/436 430/430/430 438/438/438
f 437/437/437 438/438/438 341/341/341
f 340/340/340 341/341/341 438/438/438
f 430/430/430 425/425/425 439/439/439
f 439/439/439 438/438/438 430/430/430
f 438/438/438 439/439/439 340/340/340
f 429/429/429 439/439/439 425/425/425
f 356/356/356 340/340/340 439/439/439
f 439/439/439 429/429/429 356/356/356
f 440/440/440 356/356/356 429/429/429
f 429/429/429 424/424/424 440/440/440
f 356/356/356 440/440/440 355/355/355
f 428/428/428 440/440/440 424/424/424
f 441/441/441 355/355/355 440/440/440
f 440/440/440 428/428/428 441/441/441
f 441/441/441 354/354/354 355/355/355
f 442/442/442 441/441/441 428/428/428
f 428/428/428 422/422/422 442/442/442
f 354/354/354 441/441/441 443/443/443
f 442/442/442 443/443/443 441/441/441
f 354/354/354 443/443/443 353/353/353
f 444/444/444 442/442/442 422/422/422
f 422/422/422 416/416/416 444/444/444
f 421/421/421 444/444/444 416/416/416
f 444/444/444 445/445/445 442/442/442
f 444/444/444 421/421/421 445/445/445
f 443/443/443 442/442/442 445/445/445
f 423/423/423 445/445/445 421/421/421
f 446/446/446 353/353/353 443/443/443
f 443/443/443 445/445/445 446/446/446
f 446/446/446 351/351/351 353/353/353
f 447/447/447 446/446/446 445/445/445
f 445/445/445 423/423/423 447/447/447
f 351/351/351 446/446/446 448/448/448
f 447/447/447 448/448/448 446/446/446
f 448/448/448 348/348/348 351/351/351
f 448/448/448 449/449/449 348/348/348
f 448/448/448 447/447/447 449/449/449
f 349/349/349 348/348/348 449/449/449
f 449/449/449 359/359/359 349/349/349
f 450/450/450 447/447/447 423/423/423
f 450/450/450 449/449/449 447/447/447
f 359/359/359 449/449/449 451/451/451
f 450/450/450 451/451/451 449/449/449
f 450/450/450 423/423/423 451/451/451
f 451/451/451 371/371/371 359/359/359
f 411/411/411 451/451/451 423/423/423
f 451/451/451 411/411/411 371/371/371
f 454/454/454 453/453/453 452/452/452
f 455/455/455 452/452/452 453/453/453
f 453/453/453 456/456/456 455/455/455
f 457/457/457 455/455/455 456/456/456
f 456/456/456 458/458/458 457/457/457
f 459/459/459 457/457/457 458/458/458
f 458/458/458 460/460/460 459/459/459
f 461/461/461 459/459/459 460/460/460
f 460/460/460 462/462/462 461/461/461
f 463/463/463 461/461/461 462/462/462
f 462/462/462 464/464/464 463/463/463
f 465/465/465 463/463/463 464/464/464
f 464/464/464 466/466/466 465/465/465
f 467/467/467 465/465/465 466/466/466
f 466/466/466 468/468/468 467/467/467
f 469/469/469 467/467/467 468/468/468
f 468/468/468 470/470/470 469/469/469
f 471/471/471 469/469/469 470/470/470
f 470/470/470 472/472/472 471/471/471
f 473/473/473 471/471/471 472/472/472
f 472/472/472 474/474/474 473/473/473
f 475/475/475 473/473/473 474/474/474
f 474/474/474 476/476/476 475/475/475
f 477/477/477 475/475/475 476/476/476
f 480/480/480 479/479/479 478/478/478
f 480/480/480 478/478/478 481/481/481
f 482/482/482 478/478/478 479/479/479
f 482/482/482 479/479/479 483/483/483
f 484/484/484 483/483/483 479/479/479
f 482/482/482 485/485/485 478/478/478
f 482/482/482 483/483/483 485/485/485
f 486/486/486 478/478/478 485/485/485
f 487/487/487 485/485/485 483/483/483
f 483/483/483 484/484/484 488/488/488
f 483/483/483 488/488/488 487/487/487
f 489/489/489 488/488/488 484/484/484
f 490/490/490 487/487/487 488/488/488
f 489/489/489 491/491/491 488/488/488
f 478/478/478 486/486/486 492/492/492
f 492/492/492 481/481/481 478/478/478
f 493/493/493 492/492/492 486/486/486
f 488/488/488 494/494/494 490/490/490
f 494/494/494 488/488/488 491/491/491
f 495/495/495 490/490/490 494/494/494
f 495/495/495 494/494/494 496/496/496
f 492/492/492 497/497/497 481/481/481
f 492/492/492 493/493/493 497/497/497
f 498/498/498 497/497/497 493/493/493
f 499/499/499 481/481/481 497/497/497
f 498/498/498 500/500/500 497/497/497
f 494/494/494 491/491/491 501/501/501
f 501/501/501 496/496/496 494/494/494
f 502/502/502 501/501/501 491/491/491
f 496/496/496 501/501/501 503/503/503
f 497/497/497 504/504/504 499/499/499
f 504/504/504 497/497/497 500/500/500
f 505/505/505 499/499/499 504/504/504
f 500/500/500 506/506/506 504/504/504
f 505/505/505 504/504/504 507/507/507
f 501/501/501 502/502/502 508/508/508
f 508/508/508 503/503/503 501/501/501
f 509/509/509 508/508/508 502/502/502
f 509/509/509 510/510/510 508/508/508
f 503/503/503 508/508/508 511/511/511
f 512/512/512 504/504/504 506/506/506
f 512/512/512 507/507/507 504/504/504
f 506/506/506 511/511/511 512/512/512
f 510/510/510 507/507/507 513/513/513
f 513/513/513 508/508/508 510/510/510
f 512/512/512 513/513/513 507/507/507
f 513/513/513 512/512/512 511/511/511
f 513/513/513 511/511/511 508/508/508
f 516/516/516 515/515/515 514/514/514
f 516/516/516 514/514/514 517/517/517
f 518/518/518 514/514/514 515/515/515
f 518/518/518 515/515/515 519/519/519
f 520/520/520 519/519/519 515/515/515
f 518/518/518 521/521/521 514/514/514
f 518/518/518 519/519/519 521/521/521
f 522/522/522 514/514/514 521/521/521
f 523/523/523 521/521/521 519/519/519
f 519/519/519 520/520/520 524/524/524
f 519/519/519 524/524/524 523/523/523
f 525/525/525 524/524/524 520/520/520
f 526/526/526 523/523/523 524/524/524
f 525/525/525 527/527/527 524/524/524
f 514/514/514 522/522/522 528/528/528
f 528/528/528 517/517/517 514/514/514
f 529/529/529 528/528/528 522/522/522
f 524/524/524 530/530/530 526/526/526
f 530/530/530 524/524/524 527/527/527
f 531/531/531 526/526/526 530/530/530
f 531/531/531 530/530/530 532/532/532
f 528/528/528 533/533/533 517/517/517
f 528/528/528 529/529/529 533/533/533
f 534/534/534 533/533/533 529/529/529
f 535/535/535 517/517/517 533/533/533
f 534/534/534 536/536/536 533/533/533
f 530/530/530 527/527/527 537/537/537
f 537/537/537 532/532/532 530/530/530
f 538/538/538 537/537/537 527/527/527
f 532/532/532 537/537/537 539/539/539
f 533/533/533 540/540/540 535/535/535
f 540/540/540 533/533/533 536/536/536
f 541/541/541 535/535/535 540/540/540
f 536/536/536 542/542/542 540/540/540
f 541/541/541 540/540/540 543/543/543
f 537/537/537 538/538/538 544/544/544
f 544/544/544 539/539/539 537/537/537
f 545/545/545 544/544/544 538/538/538
f 545/545/545 546/546/546 544/544/544
f 539/539/539 544/544/544 547/547/547
f 548/548/548 540/540/540 542/542/542
f 548/548/548 543/543/543 540/540/540
f 542/542/542 547/547/547 548/548/548
f 546/546/546 543/543/543 549/549/549
f 549/549/549 544/544/544 546/546/546
f 548/548/548 549/549/549 543/543/543
f 549/549/549 548/548/548 547/547/547
f 549/549/549 547/547/547 544/544/544
