g QiQiuQiQiu2_mobile
v 0.0205051928 0.0326606198 0.0539485787
v 0.0192802934 0.0373195033 0.0494085288
v 0.0194966314 0.0379136709 0.0497147536
v 0.0209668153 0.0329409451 0.0544376243
v 0.0200847049 0.0382534129 0.0496781895
v 0.0192635348 0.037820737 0.0489560473
v 0.0192802934 0.0373195033 0.0494085288
v 0.0218275966 0.028361284 0.0571647013
v 0.0216402053 0.0331085308 0.0546067336
v 0.023055543 0.0331085308 0.0541572991
v 0.0225131746 0.0284938291 0.0573658042
v 0.0197586745 0.0381147738 0.0486223993
v 0.0182184093 0.032913522 0.0438264003
v 0.0215000426 0.0382534129 0.0492302785
v 0.0211999118 0.0381147738 0.0481653473
v 0.0177689748 0.0327581243 0.0443581041
v 0.0192802934 0.0373195033 0.0494085288
v 0.0176760409 0.0325006516 0.0450314941
v 0.0220134644 0.0379258589 0.0489012011
v 0.0232200817 0.0235287208 0.0595977415
v 0.0239285123 0.0284923056 0.0569163697
v 0.0169386636 0.0280946703 0.0417498607
v 0.0168624883 0.027898138 0.0424704794
v 0.017246412 0.0244336838 0.0436816672
v 0.0182900141 0.0309695274 0.0469846297
v 0.0192802934 0.0373195033 0.0494085288
v 0.0191279427 0.0347798176 0.0495608795
v 0.016214998 0.0229574058 0.0404365979
v 0.0163566841 0.0132420037 0.0408921264
v 0.0162820323 0.0230914744 0.0396916032
v 0.0157366169 0.0171513218 0.0389344204
v 0.0154547681 0.0100182636 0.03805231
v 0.0161525342 -0.00472623409 0.0402644417
v 0.0173789571 0.0282135038 0.0411861632
v 0.0157990806 0.0172259737 0.038175714
v 0.0153846868 -0.00477041579 0.0378420661
v 0.0164785646 -0.0197068753 0.0413065203
v 0.0167192787 0.0231737437 0.0391126706
v 0.0155218024 0.0100411162 0.0372829391
v 0.01623328 0.0172732024 0.0375861169
v 0.0187973418 0.0282135038 0.0407367288
v 0.0181376634 0.0231737437 0.0386632362
v 0.0176501413 0.0172732024 0.037135159
v 0.0196352705 0.0329119984 0.0433769658
v 0.0202919018 0.0327626948 0.0435430281
v 0.0194646377 0.0280977173 0.0409317376
v 0.0217956029 0.037829878 0.0481821059
v 0.02077333 0.0324991281 0.0440488323
v 0.0188125769 0.0230929979 0.0388734801
v 0.0221962852 0.0373179798 0.0484868072
v 0.0234973599 0.0329455156 0.0536484479
v 0.0199597774 0.027898138 0.0414878176
v 0.0236024819 0.0326606198 0.0529659169
v 0.0244495516 0.0281434225 0.0556427181
v 0.0243642352 0.0283658545 0.0563755248
v 0.0251427471 0.0232742952 0.0578319972
v 0.0193138106 0.0229574058 0.0394539361
v 0.0183296252 0.0172274972 0.0373560674
v 0.0250665718 0.0234357869 0.0585907035
v 0.025677498 0.0175230575 0.0595185191
v 0.0246369429 0.0235287208 0.0591498305
v 0.0173652455 0.0100548277 0.0362439076
v 0.0188354295 0.0171497983 0.0379517585
v 0.0256058931 0.0176251324 0.0602924605
v 0.018046253 0.0100411162 0.036467863
v 0.0172951642 -0.00477803332 0.0360321401
v 0.0159483843 0.0100563512 0.036693342
v 0.026026381 0.0104235163 0.0606230615
v 0.0185535807 0.0100167401 0.0370696482
v 0.0154501976 -0.00477498631 0.0370711717
v 0.0179746482 -0.00477498631 0.0362576191
v 0.0184819759 -0.00477041579 0.0368594043
v 0.0158767795 -0.00477650981 0.0364830981
v 0.0160702648 -0.0178893318 0.0371016418
v 0.0156345419 -0.0178542912 0.0376942859
v 0.0155751252 -0.0177933509 0.0384560393
v 0.0158798265 -0.0226700958 0.0394188955
v 0.0173058288 -0.0269084914 0.0439193342
v 0.0159422903 -0.0227950233 0.0386678067
v 0.0163460195 -0.0265931255 0.0408951735
v 0.0169538987 -0.0298778059 0.0428163154
v 0.0185490102 -0.0316435501 0.0478438874
v 0.0164206714 -0.0267896578 0.0401699843
v 0.0163795367 -0.0228711987 0.0380827801
v 0.0174886496 -0.0178908553 0.0366506838
v 0.0177979214 -0.0228711987 0.0376333457
v 0.01816661 -0.0178558147 0.0368731158
v 0.0186724142 -0.0177948744 0.0374733775
v 0.0184743584 -0.0227995938 0.0378481601
v 0.0182793495 -0.0269100149 0.0391538053
v 0.0168609648 -0.0269100149 0.0396032398
v 0.0170437856 -0.0301474666 0.0421322609
v 0.0176729939 -0.0325713657 0.0450817698
v 0.0184636938 -0.0346722814 0.0475711797
v 0.019408268 -0.0335083223 0.0505511588
v 0.0177826863 -0.0329141547 0.0444540851
v 0.0174916966 -0.0303120053 0.0415929395
v 0.0189085578 -0.0303120053 0.041143505
v 0.018948169 -0.0267942284 0.0393533847
v 0.0192132591 -0.036060196 0.0499417561
v 0.0193884624 -0.0335098458 0.0504902185
v 0.0186008094 -0.0350866752 0.0470211938
v 0.0182397383 -0.0331198281 0.0439558984
v 0.0196581231 -0.0331198281 0.0435049404
v 0.0196078473 -0.0360373434 0.0511803671
v 0.0202279146 -0.0315521397 0.0531365496
v 0.0194311206 -0.0366147524 0.0496248667
v 0.0190700495 -0.0353289128 0.0465732829
v 0.0195682362 -0.0301550841 0.0413156613
v 0.0204869107 -0.0353304363 0.0461238484
v 0.0203025664 -0.0329217722 0.043642056
v 0.0203452246 -0.0345702065 0.0535052382
v 0.0199719654 -0.0365858058 0.0513327177
v 0.0199399718 -0.0369362123 0.0493186419
v 0.0213583565 -0.0369362123 0.0488692074
v 0.0211130719 -0.0323824509 0.0559291374
v 0.0214269143 -0.0266845359 0.0569102757
v 0.0207779005 -0.0349678417 0.0538891619
v 0.0205676566 -0.0369011717 0.0512976771
v 0.0211130719 -0.0350958163 0.0462137353
v 0.021804744 -0.0296127157 0.0581077519
v 0.0215686004 -0.0327084813 0.0563877129
v 0.0223836765 -0.0262625245 0.0599237719
v 0.0221856207 -0.019405221 0.0592930401
v 0.0214223438 -0.0352009382 0.0539912369
v 0.0222755075 -0.0298625708 0.0586242207
v 0.0222313259 -0.0329004431 0.0565385401
v 0.0219860413 -0.0369026952 0.0508482426
v 0.0228407285 -0.0352009382 0.0535402789
v 0.0219357656 -0.036628464 0.0488250257
v 0.0236497106 -0.0329019666 0.0560891056
v 0.0224811809 -0.0365979938 0.0505435413
v 0.0232977805 -0.0349769827 0.053101509
v 0.0228635811 -0.0264377278 0.0604783283
v 0.022953468 -0.030013398 0.0588100885
v 0.0243703292 -0.030013398 0.058360654
v 0.024096098 -0.0327160988 0.0556000599
v 0.0228133054 -0.0222922661 0.0612751223
v 0.023070778 -0.0173850511 0.0620825809
v 0.0223044542 -0.00439258613 0.0596556347
v 0.023299304 -0.0223943411 0.0618540549
v 0.0235506826 -0.0265443733 0.0606916193
v 0.0249690674 -0.0265443733 0.0602406613
v 0.0248090992 -0.0298686648 0.0578350442
v 0.0230723015 -0.00434992794 0.0620749633
v 0.0219967058 0.0135604166 0.0586653554
v 0.0235598237 -0.0174216153 0.0626721779
v 0.0239940231 -0.0224552813 0.0620825809
v 0.0254124078 -0.0224568048 0.0616316229
v 0.0256744509 -0.0174444679 0.0624573635
v 0.0235613472 -0.00433164586 0.0626660839
v 0.0242591132 -0.00431945781 0.0629022275
v 0.0242575897 -0.0174429444 0.062906798
v 0.0229275684 0.0104250398 0.0616072468
v 0.0254002197 -0.0264422983 0.0596891519
v 0.0225786854 0.0175230575 0.0604996574
v 0.0210033795 0.0246424042 0.0555238846
v 0.023416614 0.0104722686 0.0621953204
v 0.0258405132 -0.0223958646 0.0610648784
v 0.0249035566 -0.0296142392 0.0571250901
v 0.0254809656 -0.026264048 0.0589395866
v 0.0242118845 -0.0323839744 0.0549449521
v 0.0234425137 -0.0345702065 0.0525225764
v 0.0227036129 -0.0360388669 0.0501992288
v 0.0223120717 -0.036060196 0.0489590943
v 0.0215594594 -0.0346738049 0.0465885179
v 0.0207702829 -0.0325728892 0.044099108
v 0.0200527113 -0.0298778059 0.0418336536
v 0.0194433086 -0.0265931255 0.0399125116
v 0.0189755921 -0.0226700958 0.0384362337
v 0.0259105945 -0.0222937896 0.0602924605
v 0.0261680671 -0.0173865746 0.0610999191
v 0.0261010328 -0.0174231388 0.061881478
v 0.0261695906 -0.00435145145 0.061093825
v 0.0261025563 -0.00433164586 0.0618769075
v 0.0259578232 0.0104722686 0.0614061439
v 0.0256759745 -0.00432098131 0.0624512695
v 0.0255312413 0.0105012152 0.0619805059
v 0.0251793113 0.0176830257 0.0608607285
v 0.0241143801 0.0105012152 0.0624314639
v 0.0237609266 0.0176845492 0.0613116865
v 0.0230662075 0.0176236089 0.061081637
v 0.0225284097 0.0234327399 0.0593783565
v 0.0220469815 0.0232758187 0.058814659
v 0.021353786 0.0281434225 0.0566253799
v 0.0198912196 0.0310853139 0.0520350543
v 0.0191279427 0.0347798176 0.0495608795
v 0.0192802934 0.0373195033 0.0494085288
v 0.0170498796 0.0262070455 0.0430753115
v 0.0174353268 0.0280169715 0.0436694791
v 0.0173256343 0.027789969 0.0439406633
v 0.0171367195 0.0263030265 0.0427294755
v 0.0170955848 0.0260943061 0.0434333356
v 0.0173423929 0.0275126908 0.044210324
v 0.0176729939 0.0261262997 0.0452569731
v 0.0165318874 0.0214826513 0.0416675913
v 0.0185139696 0.0215923438 0.0479124452
v 0.0164846587 0.0215618737 0.0412943322
v 0.0165684515 0.0216273845 0.0409393551
v 0.016119017 0.0160635381 0.0403649931
v 0.0190639555 0.0162250298 0.0496492428
v 0.022382153 0.00976231444 0.0601172572
v 0.0160672178 0.0161092433 0.039982593
v 0.0161479637 0.0161458074 0.0396215219
v 0.015875256 0.00940581388 0.0396032398
v 0.0158219332 0.00942104894 0.0392193161
v 0.0159026791 0.00943171349 0.038855198
v 0.0158325978 -0.00141565408 0.0394783122
v 0.0157792751 -0.00141717758 0.0390943886
v 0.0158600209 -0.00141870109 0.038728747
v 0.0158204097 -0.0102717984 0.0392345512
v 0.0159026791 -0.0102809394 0.0388689096
v 0.0158737325 -0.0102580868 0.0396184749
v 0.0159346727 -0.0165897806 0.0396001928
v 0.0160169421 -0.0166187272 0.0392360747
v 0.0225268861 -0.00104848897 0.0605834503
v 0.015986472 -0.0165562635 0.039982593
v 0.0162028099 -0.0211816297 0.0404503095
v 0.0162866028 -0.02124257 0.0400907619
v 0.0162530856 -0.0211100249 0.0408266157
v 0.0225146981 -0.0161997629 0.0605590742
v 0.0166156802 -0.024886798 0.0417544312
v 0.0167025201 -0.0249812554 0.0414085952
v 0.0166613854 -0.0247740585 0.0421155023
v 0.0171534781 -0.0279962751 0.0434531412
v 0.0172479355 -0.0281272967 0.0431271107
v 0.0225695443 -0.00989396875 0.0607236129
v 0.0222922661 -0.020779424 0.0598613081
v 0.0171930893 -0.027842401 0.0437913597
v 0.0177903039 -0.0305542428 0.045461123
v 0.0178923788 -0.0307187816 0.0451625157
v 0.021919007 -0.0244861157 0.0586866845
v 0.017817727 -0.030359234 0.0457688713
v 0.0184926405 -0.0325576541 0.0476747782
v 0.01860538 -0.0327572335 0.047412735
v 0.0214177733 -0.0276108279 0.0571083315
v 0.018506352 -0.0323230341 0.0479383448
v 0.0191873595 -0.0339333807 0.0498655808
v 0.0193336161 -0.0341984708 0.0497086596
v 0.0208159881 -0.0301946953 0.0552146127
v 0.0191614599 -0.0336195383 0.0500042199
v 0.0196078473 -0.0339090046 0.0511910316
v 0.0198211383 -0.0341710477 0.0512428308
v 0.0201471687 -0.0322346707 0.053107603
v 0.0195042489 -0.0336012562 0.0510828626
v 0.0202888548 -0.0324601497 0.0533376525
v 0.0205356629 -0.032650588 0.0534930502
v 0.0209713858 -0.0303805631 0.0554857969
v 0.0212288585 -0.0305374843 0.0556777588
v 0.0215838355 -0.0277540376 0.0574115094
v 0.0218489257 -0.0278759181 0.0576293708
v 0.0220911632 -0.0245866672 0.0590127149
v 0.0223623474 -0.0246719836 0.0592473349
v 0.0224689929 -0.0208403643 0.0601995266
v 0.0227447476 -0.0208891165 0.0604448112
v 0.0226929484 -0.0162226155 0.0609033867
v 0.0229702266 -0.0162393741 0.0611547653
v 0.0227477946 -0.00989396875 0.0610679254
v 0.0230250728 -0.00989244525 0.061319304
v 0.0227051364 -0.00103782442 0.0609277628
v 0.0229824146 -0.00103020689 0.0611806649
v 0.0225604033 0.00978821405 0.0604615698
v 0.0228376815 0.00981106665 0.0607114248
v 0.0220759282 0.0163895685 0.0591467835
v 0.019414362 0.021641096 0.0507537852
v 0.0222526549 0.0164459382 0.059485002
v 0.0225284097 0.0164946905 0.0597333336
v 0.0216112586 0.0217599295 0.057672029
v 0.0201806859 0.0262634153 0.0531578787
v 0.0217849384 0.0218513399 0.05800263
v 0.0220576461 0.0219275153 0.058243344
v 0.0210064265 0.026307597 0.0557615516
v 0.0211755357 0.0264325245 0.0560769175
v 0.0214436729 0.0265376465 0.05630392
v 0.0210323261 0.0287452077 0.0550013218
v 0.0207809475 0.0285441048 0.0548306891
v 0.0206362144 0.0282820616 0.054596069
v 0.0206362144 0.0282866322 0.054593022
v 0.0176105301 0.0318181207 0.0451899388
v 0.0170833968 0.0287436842 0.0429488605
v 0.0177415517 0.0318150736 0.0450406351
v 0.0191980241 0.0374246252 0.0489804234
v 0.0169538987 0.0287513017 0.0431088287
v 0.0169340931 0.028487735 0.0430494119
v 0.0170651147 0.0284831645 0.0428894437
v 0.0177186991 0.0254468157 0.0449690303
v 0.0190441499 0.0373332148 0.0490611693
v 0.0175876775 0.0318211677 0.045362095
v 0.0193229516 0.0373469264 0.0499463266
v 0.0194951079 0.0374413838 0.049923474
v 0.0203665537 0.032011606 0.0539699078
v 0.0205615625 0.0320131295 0.0540171365
v 0.0212974163 0.0289935393 0.0563633368
v 0.0189893036 0.0371808642 0.0491312506
v 0.0192361117 0.0371960992 0.049923474
v 0.0169356166 0.0287604427 0.0432946965
v 0.0202507672 0.032008559 0.0538434567
v 0.0210993604 0.0289981098 0.0563054435
v 0.0213233159 0.0287375901 0.0564425591
v 0.0209774799 0.0290011568 0.0561637574
v 0.0169173345 0.0284907821 0.0432337562
v 0.0210033795 0.0287360666 0.0562460268
v 0.0211237365 0.0287375901 0.0563861894
v 0.0205371864 0.0256814357 0.0545229407
v 0.0207306718 0.0256829593 0.0545640754
v 0.020316278 0.0228279077 0.0532508126
v 0.0204229234 0.0256799122 0.0544025837
v 0.0201227926 0.0228263842 0.0532066309
v 0.0199872005 0.0198448817 0.052199593
v 0.0175846305 0.0254498627 0.045115287
v 0.0175587309 0.0254559568 0.0452798257
v 0.0197906681 0.0198464052 0.0521493173
v 0.0198089502 0.0179267867 0.0516374191
v 0.0200070061 0.0228248607 0.0530817034
v 0.0180477765 0.0226816511 0.046597659
v 0.0181818451 0.0226786041 0.0464498788
v 0.0180249239 0.0226862216 0.0467682917
v 0.0196139414 0.0179252632 0.0515871433
v 0.0196809757 0.0159645101 0.0512321663
v 0.0196718346 0.0198448817 0.0520137252
v 0.0184347472 0.0197732768 0.0478301759
v 0.0185657688 0.0197702298 0.0476778252
v 0.0184134181 0.0197793709 0.0480099497
v 0.0194951079 0.0179237397 0.0514530748
v 0.0194859668 0.0159629866 0.0511818906
v 0.0186419441 0.0178749875 0.0484959483
v 0.0187729657 0.0178719405 0.0483435976
v 0.0186221385 0.017879558 0.0486757221
v 0.0192224002 0.00916967034 0.0503607205
v 0.019417409 0.00907368942 0.0504003316
v 0.019297052 0.00906607189 0.0500209785
v 0.0193656098 0.0159614631 0.051047822
v 0.0188019123 0.0159264225 0.049003276
v 0.0189329339 0.015924899 0.0488509253
v 0.0187805832 0.0159294695 0.0491830498
v 0.0191584129 0.00916662333 0.0501596176
v 0.019077667 0.00931592698 0.0502357929
v 0.0191127077 0.00931440348 0.0503241563
v 0.00993357993 -0.0185154931 0.0359148301
v 0.00690027813 -0.0210094735 0.0360717513
v 0.00913526243 -0.0202340086 0.0343928469
v 0.00785094629 -0.018963404 0.0378832007
v 0.0102260932 -0.0161692928 0.0364709101
v 0.0059358984 -0.0230418314 0.0379030063
v 0.00819830582 -0.0161692928 0.0385474497
v 0.00993357993 -0.013821569 0.0359148301
v 0.00728572532 -0.0201365042 0.0404746856
v 0.00660928835 -0.0255540939 0.0391873225
v 0.00785094629 -0.013373658 0.0378832007
v 0.00913526243 -0.0121045769 0.0343928469
v 0.00777934148 -0.0161692928 0.0414162127
v 0.00845120793 -0.021588406 0.0427005289
v 0.00866449886 -0.0275864518 0.0394341305
v 0.00690027813 -0.0113275885 0.0360717513
v 0.00804595515 -0.0114753687 0.0323147838
v 0.00728572532 -0.0122005579 0.0404746856
v 0.00912612139 -0.0161692928 0.0439863685
v 0.0109055772 -0.0227615062 0.0437075668
v 0.0113154005 -0.0283634402 0.0385489732
v 0.00560225043 -0.0105795468 0.0335960529
v 0.00695512437 -0.0121045769 0.0302367207
v 0.0059358984 -0.00929523063 0.0379030063
v 0.00845120793 -0.0107501795 0.0427005289
v 0.0117252238 -0.0161692928 0.0452722081
v 0.0137088295 -0.0232094171 0.0431133992
v 0.0135503848 -0.0275864518 0.0368715923
v 0.00430422274 -0.0113275885 0.0311218781
v 0.00615833037 -0.013821569 0.0287147375
v 0.00409245531 -0.00823334647 0.0343882764
v 0.00660928835 -0.00678449162 0.0391873225
v 0.0109055772 -0.00957707936 0.0437075668
v 0.0145848458 -0.0161692928 0.044784686
v 0.0157914631 -0.0227615062 0.0411450286
v 0.0145147645 -0.0255540939 0.0350403373
v 0.00335355457 -0.013373658 0.0293089052
v 0.00586581709 -0.0161692928 0.0281586576
v 0.00225053574 -0.00929523063 0.0308735465
v 0.00409245531 -0.00533258975 0.0343882764
v 0.00866449886 -0.00475213371 0.0394341305
v 0.0137088295 -0.0091291684 0.0431133992
v 0.0166126332 -0.0161692928 0.0427096699
v 0.0163582076 -0.021588406 0.0385535437
v 0.0138413746 -0.0230418314 0.0337560212
v 0.0151912015 -0.0201365042 0.0363292239
v 0.0117876876 -0.0210094735 0.0335092131
v 0.0170315976 -0.0161692928 0.0398393833
v 0.0157914631 -0.00957707936 0.0411450286
v 0.0113154005 -0.0039751453 0.0385489732
v 0.00560225043 -0.00298486596 0.0335960529
v 0.0127368322 -0.018963404 0.0353206625
v 0.00913526243 -0.0202340086 0.0343928469
v 0.00993357993 -0.0185154931 0.0359148301
v 0.0156848176 -0.0161692928 0.0372707511
v 0.0130857152 -0.0161692928 0.0359833879
v 0.0102260932 -0.0161692928 0.0364709101
v 0.0163582076 -0.0107501795 0.0385535437
v 0.0135503848 -0.00475213371 0.0368715923
v 0.0151912015 -0.0122005579 0.0363292239
v 0.0127368322 -0.013373658 0.0353206625
v 0.00993357993 -0.013821569 0.0359148301
v 0.0145147645 -0.00678449162 0.0350403373
v 0.00804595515 -0.00208904403 0.0323147838
v 0.0138413746 -0.00929523063 0.0337560212
v 0.0117876876 -0.0113275885 0.0335092131
v 0.00913526243 -0.0121045769 0.0343928469
v 0.0104881364 -0.00298486596 0.0310335147
v 0.0119979315 -0.00533258975 0.0302412912
v 0.0119979315 -0.00823334647 0.0302412912
v 0.0104881364 -0.0105795468 0.0310335147
v 0.00804595515 -0.0114753687 0.0323147838
v 0.00919010867 -0.0113275885 0.0285578164
v 0.00695512437 -0.0121045769 0.0302367207
v 0.0101560119 -0.00929523063 0.0267280848
v 0.00948109844 -0.00678449162 0.0254437687
v 0.00742741144 -0.00475213371 0.0251954371
v 0.00477650981 -0.0039751453 0.0260805945
v 0.008240964 -0.013373658 0.0267463669
v 0.00615833037 -0.013821569 0.0287147375
v 0.00880618498 -0.0122005579 0.0241548821
v 0.00763917887 -0.0107501795 0.0219305623
v 0.00518633311 -0.00957707936 0.0209220009
v 0.00789208097 -0.0161692928 0.0260836415
v 0.00586581709 -0.0161692928 0.0281586576
v 0.00831256882 -0.0161692928 0.0232133549
v 0.00696578891 -0.0161692928 0.0206447227
v 0.008240964 -0.018963404 0.0267463669
v 0.00615833037 -0.0185154931 0.0287147375
v 0.00880618498 -0.0201365042 0.0241548821
v 0.00919010867 -0.0210094735 0.0285578164
v 0.00695512437 -0.0202340086 0.0302367207
v 0.00238308082 -0.0091291684 0.0215161685
v 0.00436516301 -0.0161692928 0.019358883
v 0.00763917887 -0.021588406 0.0219305623
v 0.0101560119 -0.0230418314 0.0267280848
v 0.0104881364 -0.0217590388 0.0310335147
v 0.00804595515 -0.0208616933 0.0323147838
v 0.0117876876 -0.0210094735 0.0335092131
v 0.00913526243 -0.0202340086 0.0343928469
v 0.0138413746 -0.0230418314 0.0337560212
v 0.0119979315 -0.0241052391 0.0302412912
v 0.0145147645 -0.0255540939 0.0350403373
v 0.0119979315 -0.0270059958 0.0302412912
v 0.0135503848 -0.0275864518 0.0368715923
v 0.00948109844 -0.0255540939 0.0254437687
v 0.0104881364 -0.0293521961 0.0310335147
v 0.0113154005 -0.0283634402 0.0385489732
v 0.00742741144 -0.0275864518 0.0251954371
v 0.00804595515 -0.0302495415 0.0323147838
v 0.00866449886 -0.0275864518 0.0394341305
v 0.00518633311 -0.0227615062 0.0209220009
v 0.00560225043 -0.0293521961 0.0335960529
v 0.00660928835 -0.0255540939 0.0391873225
v 0.00477650981 -0.0283634402 0.0260805945
v 0.00238308082 -0.0232094171 0.0215161685
v 0.00409245531 -0.0270059958 0.0343882764
v 0.0059358984 -0.0230418314 0.0379030063
v 0.00254152551 -0.0275864518 0.0277594989
v 0.00150706448 -0.0161692928 0.0198448817
v 0.00409245531 -0.0241052391 0.0343882764
v 0.00690027813 -0.0210094735 0.0360717513
v 0.00157562228 -0.0255540939 0.0295892304
v 0.000298923678 -0.0227615062 0.0234845391
v -0.000520722916 -0.0161692928 0.0219214213
v 0.00560225043 -0.0217590388 0.0335960529
v 0.00913526243 -0.0202340086 0.0343928469
v 0.00804595515 -0.0208616933 0.0323147838
v 0.00225053574 -0.0230418314 0.0308735465
v -0.0002662973 -0.021588406 0.026076024
v 0.00430422274 -0.0210094735 0.0311218781
v 0.00695512437 -0.0202340086 0.0302367207
v 0.000298923678 -0.00957707936 0.0234845391
v 0.000900708817 -0.0201365042 0.0283018672
v 0.00335355457 -0.018963404 0.0293089052
v 0.00615833037 -0.0185154931 0.0287147375
v -0.000941210759 -0.0161692928 0.0247901843
v 0.00254152551 -0.00475213371 0.0277594989
v 0.00300619505 -0.0161692928 0.0286461797
v 0.000407092653 -0.0161692928 0.0273603401
v -0.0002662973 -0.0107501795 0.026076024
v 0.00157562228 -0.00678449162 0.0295892304
v 0.000900708817 -0.0122005579 0.0283018672
v 0.00993357993 0.0123050471 0.0359148301
v 0.00690027813 0.00981106665 0.0360717513
v 0.00913526243 0.0105865316 0.0343928469
v 0.00785094629 0.0118556126 0.0378832007
v 0.0102260932 0.0146512474 0.0364709101
v 0.0059358984 0.00777870874 0.0379030063
v 0.00819830582 0.0146512474 0.0385474497
v 0.00993357993 0.0169974477 0.0359148301
v 0.00728572532 0.0106825125 0.0404746856
v 0.00660928835 0.00526644623 0.0391873225
v 0.00785094629 0.0174468821 0.0378832007
v 0.00913526243 0.0187159632 0.0343928469
v 0.00777934148 0.0146512474 0.0414162127
v 0.00845120793 0.00923213411 0.0427005289
v 0.00866449886 0.00323408831 0.0394341305
v 0.00690027813 0.0194914281 0.0360717513
v 0.00804595515 0.0193451715 0.0323147838
v 0.00728572532 0.0186199823 0.0404746856
v 0.00912612139 0.0146512474 0.0439863685
v 0.0109055772 0.00805903397 0.0437075668
v 0.0113154005 0.00245709991 0.0385489732
v 0.00560225043 0.0202409934 0.0335960529
v 0.00695512437 0.0187159632 0.0302367207
v 0.0059358984 0.021523786 0.0379030063
v 0.00845120793 0.0200703606 0.0427005289
v 0.0117252238 0.0146512474 0.0452722081
v 0.0137088295 0.00761112301 0.0431133992
v 0.0135503848 0.00323408831 0.0368715923
v 0.00430422274 0.0194914281 0.0311218781
v 0.00615833037 0.0169974477 0.0287147375
v 0.00409245531 0.0225871937 0.0343882764
v 0.00660928835 0.0240360485 0.0391873225
v 0.0109055772 0.0212434608 0.0437075668
v 0.0145848458 0.0146512474 0.044784686
v 0.0157914631 0.00805903397 0.0411450286
v 0.0145147645 0.00526644623 0.0350403373
v 0.00335355457 0.0174468821 0.0293089052
v 0.00586581709 0.0146512474 0.0281586576
v 0.00225053574 0.021523786 0.0308735465
v 0.00409245531 0.0254879504 0.0343882764
v 0.00866449886 0.0260684064 0.0394341305
v 0.0137088295 0.0216913717 0.0431133992
v 0.0166126332 0.0146512474 0.0427096699
v 0.0163582076 0.00923213411 0.0385535437
v 0.0138413746 0.00777870874 0.0337560212
v 0.0151912015 0.0106825125 0.0363292239
v 0.0117876876 0.00981106665 0.0335092131
v 0.0170315976 0.0146512474 0.0398393833
v 0.0157914631 0.0212434608 0.0411450286
v 0.0113154005 0.0268453948 0.0385489732
v 0.00560225043 0.0278356742 0.0335960529
v 0.0127368322 0.0118556126 0.0353206625
v 0.00913526243 0.0105865316 0.0343928469
v 0.00993357993 0.0123050471 0.0359148301
v 0.0156848176 0.0146512474 0.0372707511
v 0.0130857152 0.0146512474 0.0359833879
v 0.0102260932 0.0146512474 0.0364709101
v 0.0163582076 0.0200703606 0.0385535437
v 0.0135503848 0.0260684064 0.0368715923
v 0.0151912015 0.0186199823 0.0363292239
v 0.0127368322 0.0174468821 0.0353206625
v 0.00993357993 0.0169974477 0.0359148301
v 0.0145147645 0.0240360485 0.0350403373
v 0.00804595515 0.0287314961 0.0323147838
v 0.0138413746 0.021523786 0.0337560212
v 0.0117876876 0.0194914281 0.0335092131
v 0.00913526243 0.0187159632 0.0343928469
v 0.0104881364 0.0278356742 0.0310335147
v 0.0119979315 0.0254879504 0.0302412912
v 0.0119979315 0.0225871937 0.0302412912
v 0.0104881364 0.0202409934 0.0310335147
v 0.00804595515 0.0193451715 0.0323147838
v 0.00919010867 0.0194914281 0.0285578164
v 0.00695512437 0.0187159632 0.0302367207
v 0.0101560119 0.021523786 0.0267280848
v 0.00948109844 0.0240360485 0.0254437687
v 0.00742741144 0.0260684064 0.0251954371
v 0.00477650981 0.0268453948 0.0260805945
v 0.008240964 0.0174468821 0.0267463669
v 0.00615833037 0.0169974477 0.0287147375
v 0.00880618498 0.0186199823 0.0241548821
v 0.00763917887 0.0200703606 0.0219305623
v 0.00518633311 0.0212434608 0.0209220009
v 0.00789208097 0.0146512474 0.0260836415
v 0.00586581709 0.0146512474 0.0281586576
v 0.00831256882 0.0146512474 0.0232133549
v 0.00696578891 0.0146512474 0.0206447227
v 0.008240964 0.0118556126 0.0267463669
v 0.00615833037 0.0123050471 0.0287147375
v 0.00880618498 0.0106825125 0.0241548821
v 0.00919010867 0.00981106665 0.0285578164
v 0.00695512437 0.0105865316 0.0302367207
v 0.00238308082 0.0216913717 0.0215161685
v 0.00436516301 0.0146512474 0.019358883
v 0.00763917887 0.00923213411 0.0219305623
v 0.0101560119 0.00777870874 0.0267280848
v 0.0104881364 0.00906150137 0.0310335147
v 0.00804595515 0.00995732329 0.0323147838
v 0.0117876876 0.00981106665 0.0335092131
v 0.00913526243 0.0105865316 0.0343928469
v 0.0138413746 0.00777870874 0.0337560212
v 0.0119979315 0.00671530108 0.0302412912
v 0.0145147645 0.00526644623 0.0350403373
v 0.0119979315 0.00381454436 0.0302412912
v 0.0135503848 0.00323408831 0.0368715923
v 0.00948109844 0.00526644623 0.0254437687
v 0.0104881364 0.00146682056 0.0310335147
v 0.0113154005 0.00245709991 0.0385489732
v 0.00742741144 0.00323408831 0.0251954371
v 0.00804595515 0.000570998636 0.0323147838
v 0.00866449886 0.00323408831 0.0394341305
v 0.00518633311 0.00805903397 0.0209220009
v 0.00560225043 0.00146682056 0.0335960529
v 0.00660928835 0.00526644623 0.0391873225
v 0.00477650981 0.00245709991 0.0260805945
v 0.00238308082 0.00761112301 0.0215161685
v 0.00409245531 0.00381454436 0.0343882764
v 0.0059358984 0.00777870874 0.0379030063
v 0.00254152551 0.00323408831 0.0277594989
v 0.00150706448 0.0146512474 0.0198448817
v 0.00409245531 0.00671530108 0.0343882764
v 0.00690027813 0.00981106665 0.0360717513
v 0.00157562228 0.00526644623 0.0295892304
v 0.000298923678 0.00805903397 0.0234845391
v -0.000520722916 0.0146512474 0.0219214213
v 0.00560225043 0.00906150137 0.0335960529
v 0.00913526243 0.0105865316 0.0343928469
v 0.00804595515 0.00995732329 0.0323147838
v 0.00225053574 0.00777870874 0.0308735465
v -0.0002662973 0.00923213411 0.026076024
v 0.00430422274 0.00981106665 0.0311218781
v 0.00695512437 0.0105865316 0.0302367207
v 0.000298923678 0.0212434608 0.0234845391
v 0.000900708817 0.0106825125 0.0283018672
v 0.00335355457 0.0118556126 0.0293089052
v 0.00615833037 0.0123050471 0.0287147375
v -0.000941210759 0.0146512474 0.0247901843
v 0.00254152551 0.0260684064 0.0277594989
v 0.00300619505 0.0146512474 0.0286461797
v 0.000407092653 0.0146512474 0.0273603401
v -0.0002662973 0.0200703606 0.026076024
v 0.00157562228 0.0240360485 0.0295892304
v 0.000900708817 0.0186199823 0.0283018672
vt 0.941671708 0.594911131
vt 0.913555985 0.571907358
vt 0.91100001 0.573611341
vt 0.939967724 0.597467105
vt 0.909296027 0.577019307
vt 0.902480094 0.573611341
vt 0.906740052 0.571055366
vt 0.952747598 0.622174862
vt 0.93741175 0.60002308
vt 0.9322998 0.604283038
vt 0.950191623 0.623878845
vt 0.903332086 0.576167316
vt 0.872660389 0.596615114
vt 0.908444036 0.582983248
vt 0.904184078 0.582983248
vt 0.870956406 0.593207148
vt 0.900776111 0.571055366
vt 0.869252422 0.591503164
vt 0.907592044 0.585539223
vt 0.958711539 0.646882618
vt 0.944227682 0.62643482
vt 0.853916574 0.615358929
vt 0.851360599 0.613654946
vt 0.833468776 0.618766895
vt 0.858176532 0.585539223
vt 0.880328313 0.56253545
vt 0.870104414 0.566795408
vt 0.839432717 0.636658719
vt 0.811316994 0.679258298
vt 0.842840683 0.638362702
vt 0.829208818 0.665626433
vt 0.821540893 0.698854105
vt 0.800241104 0.769569406
vt 0.856472549 0.617914904
vt 0.832616784 0.666478424
vt 0.812168986 0.770421398
vt 0.804501062 0.848804624
vt 0.845396658 0.640066685
vt 0.82494886 0.699706096
vt 0.835172759 0.668182407
vt 0.86243649 0.62132287
vt 0.851360599 0.643474651
vt 0.841988692 0.669886391
vt 0.876920347 0.600875072
vt 0.879476321 0.603431047
vt 0.865844456 0.623026853
vt 0.905036069 0.585539223
vt 0.882032296 0.60513503
vt 0.854768565 0.644326643
vt 0.905888061 0.588095198
vt 0.929743825 0.605987021
vt 0.869252422 0.624730836
vt 0.926335859 0.607691005
vt 0.93741175 0.628990794
vt 0.940819716 0.627286811
vt 0.945931665 0.650290584
vt 0.858176532 0.645178634
vt 0.844544666 0.670738382
vt 0.950191623 0.650290584
vt 0.952747598 0.676702323
vt 0.952747598 0.649438592
vt 0.834320767 0.702262071
vt 0.848804624 0.671590374
vt 0.955303573 0.676702323
vt 0.837728734 0.702262071
vt 0.827504835 0.770421398
vt 0.828356826 0.700558088
vt 0.956155565 0.709078004
vt 0.8411367 0.703114063
vt 0.816428944 0.770421398
vt 0.830912801 0.770421398
vt 0.834320767 0.770421398
vt 0.81983691 0.770421398
vt 0.822392885 0.831764793
vt 0.818984919 0.832616784
vt 0.815576952 0.833468776
vt 0.821540893 0.85732454
vt 0.823244877 0.893960179
vt 0.824096868 0.855620557
vt 0.829208818 0.87862433
vt 0.839432717 0.895664162
vt 0.855620557 0.926335859
vt 0.831764793 0.876068355
vt 0.827504835 0.854768565
vt 0.829208818 0.830912801
vt 0.833468776 0.852212591
vt 0.832616784 0.830060809
vt 0.835172759 0.829208818
vt 0.83602475 0.851360599
vt 0.840284708 0.870956406
vt 0.834320767 0.874364372
vt 0.841988692 0.893108187
vt 0.854768565 0.910148019
vt 0.869252422 0.920371918
vt 0.885440263 0.934003783
vt 0.854768565 0.906740052
vt 0.843692675 0.890552212
vt 0.848804624 0.886292254
vt 0.842840683 0.870104414
vt 0.882884288 0.922927893
vt 0.886292254 0.934003783
vt 0.869252422 0.916963951
vt 0.856472549 0.904184078
vt 0.859880515 0.899072128
vt 0.889700221 0.923779884
vt 0.916963951 0.929743825
vt 0.882884288 0.921223909
vt 0.869252422 0.913555985
vt 0.851360599 0.884588271
vt 0.871808397 0.908444036
vt 0.86243649 0.896516153
vt 0.904184078 0.922075901
vt 0.890552212 0.921223909
vt 0.882032296 0.918667935
vt 0.882884288 0.913555985
vt 0.919519926 0.913555985
vt 0.952747598 0.902480094
vt 0.904184078 0.919519926
vt 0.890552212 0.919519926
vt 0.87351238 0.905888061
vt 0.935707766 0.901628103
vt 0.918667935 0.91100001
vt 0.94848764 0.886292254
vt 0.976603363 0.859028523
vt 0.904184078 0.91611196
vt 0.934003783 0.899072128
vt 0.917815943 0.908444036
vt 0.890552212 0.913555985
vt 0.902480094 0.910148019
vt 0.883736279 0.91100001
vt 0.915259968 0.902480094
vt 0.889700221 0.911852002
vt 0.901628103 0.908444036
vt 0.945931665 0.883736279
vt 0.9322998 0.896516153
vt 0.92718785 0.891404204
vt 0.913555985 0.89992412
vt 0.958711539 0.866696448
vt 0.966379464 0.842840683
vt 0.989383236 0.780645297
vt 0.956155565 0.864140473
vt 0.943375691 0.881180305
vt 0.938263741 0.876920347
vt 0.925483867 0.889700221
vt 0.977455354 0.778941314
vt 0.989383236 0.688630206
vt 0.962971497 0.841988692
vt 0.95359959 0.863288481
vt 0.947635649 0.859880515
vt 0.95359959 0.838580725
vt 0.973195396 0.778941314
vt 0.96978743 0.778941314
vt 0.960415522 0.840284708
vt 0.976603363 0.70737402
vt 0.935707766 0.875216364
vt 0.972343405 0.673294357
vt 0.973195396 0.627286811
vt 0.973195396 0.708226012
vt 0.944227682 0.859028523
vt 0.922075901 0.887144246
vt 0.9322998 0.874364372
vt 0.91100001 0.898220136
vt 0.89992412 0.905888061
vt 0.889700221 0.909296027
vt 0.884588271 0.909296027
vt 0.875216364 0.903332086
vt 0.864992464 0.89481217
vt 0.854768565 0.882884288
vt 0.84624865 0.868400431
vt 0.839432717 0.851360599
vt 0.940819716 0.858176532
vt 0.947635649 0.836876742
vt 0.951043615 0.837728734
vt 0.955303573 0.777237331
vt 0.959563531 0.777237331
vt 0.959563531 0.709078004
vt 0.962971497 0.778089322
vt 0.962971497 0.709078004
vt 0.958711539 0.675850332
vt 0.96978743 0.708226012
vt 0.965527472 0.67499834
vt 0.968935438 0.674146349
vt 0.962119506 0.645178634
vt 0.965527472 0.644326643
vt 0.955303573 0.619618887
vt 0.95359959 0.591503164
vt 0.944227682 0.571907358
vt 0.934003783 0.565943417
vt 0.700558088 0.853916574
vt 0.703114063 0.86243649
vt 0.704818046 0.861584498
vt 0.698854105 0.854768565
vt 0.702262071 0.853064582
vt 0.705670037 0.859880515
vt 0.710781987 0.853064582
vt 0.692890163 0.832616784
vt 0.723561861 0.832616784
vt 0.69118618 0.832616784
vt 0.689482197 0.833468776
vt 0.686074231 0.807057036
vt 0.731229785 0.807057036
vt 0.781497289 0.777237331
vt 0.684370248 0.807909028
vt 0.682666264 0.807909028
vt 0.682666264 0.777237331
vt 0.68011029 0.777237331
vt 0.678406306 0.777237331
vt 0.680962281 0.726969827
vt 0.679258298 0.726969827
vt 0.677554315 0.726969827
vt 0.679258298 0.686074231
vt 0.677554315 0.686074231
vt 0.680962281 0.686074231
vt 0.68011029 0.657106517
vt 0.678406306 0.657106517
vt 0.783201272 0.726969827
vt 0.681814273 0.657958508
vt 0.684370248 0.635806727
vt 0.682666264 0.635806727
vt 0.686074231 0.636658719
vt 0.781497289 0.657958508
vt 0.690334189 0.619618887
vt 0.688630206 0.618766895
vt 0.692038172 0.619618887
vt 0.698002113 0.604283038
vt 0.69629813 0.604283038
vt 0.783201272 0.686074231
vt 0.778089322 0.636658719
vt 0.699706096 0.60513503
vt 0.70737402 0.593207148
vt 0.706522029 0.592355156
vt 0.772125381 0.619618887
vt 0.709078004 0.593207148
vt 0.71759792 0.58383524
vt 0.716745928 0.582131257
vt 0.763605465 0.60513503
vt 0.719301903 0.584687232
vt 0.72867381 0.577019307
vt 0.727821819 0.575315324
vt 0.754233558 0.593207148
vt 0.729525802 0.578723291
vt 0.734637751 0.577019307
vt 0.735489743 0.575315324
vt 0.744009659 0.584687232
vt 0.734637751 0.578723291
vt 0.745713642 0.58383524
vt 0.746565634 0.582131257
vt 0.755937541 0.593207148
vt 0.756789533 0.592355156
vt 0.765309449 0.604283038
vt 0.767013432 0.604283038
vt 0.773829364 0.619618887
vt 0.774681356 0.618766895
vt 0.779793306 0.635806727
vt 0.781497289 0.635806727
vt 0.783201272 0.657106517
vt 0.784905255 0.657106517
vt 0.784905255 0.686074231
vt 0.786609238 0.686074231
vt 0.784905255 0.726969827
vt 0.786609238 0.726969827
vt 0.783201272 0.777237331
vt 0.784905255 0.777237331
vt 0.777237331 0.807057036
vt 0.737193726 0.832616784
vt 0.778941314 0.807909028
vt 0.780645297 0.807909028
vt 0.770421398 0.832616784
vt 0.749121608 0.853064582
vt 0.772125381 0.832616784
vt 0.773829364 0.833468776
vt 0.761901482 0.853064582
vt 0.763605465 0.853916574
vt 0.765309449 0.854768565
vt 0.758493516 0.864992464
vt 0.757641524 0.864140473
vt 0.755937541 0.86243649
vt 0.755937541 0.86243649
vt 0.734637751 0.911852002
vt 0.754233558 0.893960179
vt 0.73378576 0.910148019
vt 0.69629813 0.940819716
vt 0.755085549 0.895664162
vt 0.756789533 0.89481217
vt 0.756789533 0.893960179
vt 0.778941314 0.907592044
vt 0.697150121 0.941671708
vt 0.734637751 0.912703993
vt 0.697150121 0.94848764
vt 0.69629813 0.949339632
vt 0.735489743 0.975751371
vt 0.734637751 0.977455354
vt 0.756789533 0.993643194
vt 0.698002113 0.942523699
vt 0.698854105 0.947635649
vt 0.755085549 0.897368145
vt 0.735489743 0.974899379
vt 0.756789533 0.991939211
vt 0.759345507 0.993643194
vt 0.756789533 0.990235228
vt 0.756789533 0.896516153
vt 0.758493516 0.99108722
vt 0.758493516 0.992791203
vt 0.779793306 0.978307346
vt 0.779793306 0.979159337
vt 0.799389112 0.968935438
vt 0.779793306 0.976603363
vt 0.799389112 0.967231455
vt 0.81983691 0.960415522
vt 0.778941314 0.909296027
vt 0.778941314 0.910148019
vt 0.81983691 0.958711539
vt 0.833468776 0.956155565
vt 0.798537121 0.966379464
vt 0.798537121 0.918667935
vt 0.798537121 0.917815943
vt 0.798537121 0.920371918
vt 0.832616784 0.954451581
vt 0.84624865 0.952747598
vt 0.81983691 0.957859548
vt 0.818984919 0.92718785
vt 0.818984919 0.926335859
vt 0.818984919 0.928891834
vt 0.832616784 0.95359959
vt 0.84624865 0.951895607
vt 0.832616784 0.9322998
vt 0.832616784 0.930595817
vt 0.832616784 0.933151792
vt 0.893108187 0.945079674
vt 0.893960179 0.945931665
vt 0.893960179 0.941671708
vt 0.84624865 0.950191623
vt 0.84624865 0.935707766
vt 0.84624865 0.934003783
vt 0.84624865 0.936559758
vt 0.893108187 0.942523699
vt 0.892256195 0.943375691
vt 0.892256195 0.944227682
vt 0.241334621 0.963823489
vt 0.230258731 0.984271287
vt 0.241334621 0.984271287
vt 0.230258731 0.963823489
vt 0.241334621 0.943375691
vt 0.218330848 0.984271287
vt 0.230258731 0.943375691
vt 0.241334621 0.922075901
vt 0.218330848 0.963823489
vt 0.206402966 0.984271287
vt 0.230258731 0.922075901
vt 0.241334621 0.902480094
vt 0.218330848 0.942523699
vt 0.206402966 0.963823489
vt 0.193623092 0.984271287
vt 0.230258731 0.902480094
vt 0.242186613 0.882032296
vt 0.218330848 0.922075901
vt 0.206402966 0.942523699
vt 0.194475084 0.963823489
vt 0.18169521 0.984271287
vt 0.230258731 0.882032296
vt 0.242186613 0.861584498
vt 0.218330848 0.902480094
vt 0.206402966 0.922075901
vt 0.194475084 0.942523699
vt 0.18169521 0.963823489
vt 0.169767328 0.984271287
vt 0.230258731 0.861584498
vt 0.242186613 0.8411367
vt 0.218330848 0.882032296
vt 0.206402966 0.902480094
vt 0.194475084 0.922075901
vt 0.18169521 0.942523699
vt 0.169767328 0.963823489
vt 0.158691437 0.984271287
vt 0.230258731 0.8411367
vt 0.242186613 0.820688902
vt 0.218330848 0.861584498
vt 0.206402966 0.882032296
vt 0.194475084 0.902480094
vt 0.18169521 0.922075901
vt 0.169767328 0.942523699
vt 0.158691437 0.962971497
vt 0.146763555 0.984271287
vt 0.146763555 0.962971497
vt 0.133983681 0.984271287
vt 0.158691437 0.942523699
vt 0.169767328 0.922075901
vt 0.18169521 0.902480094
vt 0.194475084 0.882032296
vt 0.133983681 0.962971497
vt 0.122055799 0.984271287
vt 0.122055799 0.962971497
vt 0.146763555 0.942523699
vt 0.134835673 0.942523699
vt 0.122055799 0.942523699
vt 0.158691437 0.922075901
vt 0.169767328 0.902480094
vt 0.146763555 0.922075901
vt 0.134835673 0.922075901
vt 0.122055799 0.922075901
vt 0.158691437 0.902480094
vt 0.18169521 0.882032296
vt 0.146763555 0.902480094
vt 0.134835673 0.902480094
vt 0.122055799 0.902480094
vt 0.169767328 0.882032296
vt 0.158691437 0.882032296
vt 0.146763555 0.882032296
vt 0.134835673 0.881180305
vt 0.122055799 0.881180305
vt 0.134835673 0.860732507
vt 0.122055799 0.860732507
vt 0.146763555 0.860732507
vt 0.158691437 0.860732507
vt 0.169767328 0.860732507
vt 0.182547202 0.860732507
vt 0.134835673 0.8411367
vt 0.12290779 0.8411367
vt 0.146763555 0.8411367
vt 0.158691437 0.8411367
vt 0.169767328 0.8411367
vt 0.134835673 0.820688902
vt 0.12290779 0.820688902
vt 0.146763555 0.820688902
vt 0.158691437 0.820688902
vt 0.134835673 0.800241104
vt 0.12290779 0.800241104
vt 0.146763555 0.800241104
vt 0.134835673 0.778941314
vt 0.12290779 0.778941314
vt 0.182547202 0.8411367
vt 0.169767328 0.820688902
vt 0.158691437 0.800241104
vt 0.146763555 0.778941314
vt 0.134835673 0.759345507
vt 0.12290779 0.759345507
vt 0.134835673 0.738897709
vt 0.12290779 0.738897709
vt 0.146763555 0.738897709
vt 0.146763555 0.759345507
vt 0.158691437 0.738897709
vt 0.158691437 0.759345507
vt 0.170619319 0.738897709
vt 0.158691437 0.778941314
vt 0.170619319 0.759345507
vt 0.182547202 0.738897709
vt 0.169767328 0.779793306
vt 0.182547202 0.759345507
vt 0.194475084 0.738897709
vt 0.169767328 0.800241104
vt 0.194475084 0.759345507
vt 0.207254958 0.738897709
vt 0.182547202 0.779793306
vt 0.182547202 0.800241104
vt 0.206402966 0.759345507
vt 0.21918284 0.738897709
vt 0.194475084 0.779793306
vt 0.182547202 0.820688902
vt 0.218330848 0.759345507
vt 0.231110722 0.738897709
vt 0.206402966 0.779793306
vt 0.194475084 0.800241104
vt 0.194475084 0.820688902
vt 0.231110722 0.760197499
vt 0.242186613 0.738897709
vt 0.242186613 0.760197499
vt 0.218330848 0.779793306
vt 0.206402966 0.800241104
vt 0.231110722 0.779793306
vt 0.242186613 0.779793306
vt 0.194475084 0.8411367
vt 0.218330848 0.800241104
vt 0.230258731 0.800241104
vt 0.242186613 0.800241104
vt 0.206402966 0.820688902
vt 0.194475084 0.861584498
vt 0.230258731 0.820688902
vt 0.218330848 0.820688902
vt 0.206402966 0.8411367
vt 0.206402966 0.861584498
vt 0.218330848 0.8411367
vt 0.241334621 0.963823489
vt 0.230258731 0.984271287
vt 0.241334621 0.984271287
vt 0.230258731 0.963823489
vt 0.241334621 0.943375691
vt 0.218330848 0.984271287
vt 0.230258731 0.943375691
vt 0.241334621 0.922075901
vt 0.218330848 0.963823489
vt 0.206402966 0.984271287
vt 0.230258731 0.922075901
vt 0.241334621 0.902480094
vt 0.218330848 0.942523699
vt 0.206402966 0.963823489
vt 0.193623092 0.984271287
vt 0.230258731 0.902480094
vt 0.242186613 0.882032296
vt 0.218330848 0.922075901
vt 0.206402966 0.942523699
vt 0.194475084 0.963823489
vt 0.18169521 0.984271287
vt 0.230258731 0.882032296
vt 0.242186613 0.861584498
vt 0.218330848 0.902480094
vt 0.206402966 0.922075901
vt 0.194475084 0.942523699
vt 0.18169521 0.963823489
vt 0.169767328 0.984271287
vt 0.230258731 0.861584498
vt 0.242186613 0.8411367
vt 0.218330848 0.882032296
vt 0.206402966 0.902480094
vt 0.194475084 0.922075901
vt 0.18169521 0.942523699
vt 0.169767328 0.963823489
vt 0.158691437 0.984271287
vt 0.230258731 0.8411367
vt 0.242186613 0.820688902
vt 0.218330848 0.861584498
vt 0.206402966 0.882032296
vt 0.194475084 0.902480094
vt 0.18169521 0.922075901
vt 0.169767328 0.942523699
vt 0.158691437 0.962971497
vt 0.146763555 0.984271287
vt 0.146763555 0.962971497
vt 0.133983681 0.984271287
vt 0.158691437 0.942523699
vt 0.169767328 0.922075901
vt 0.18169521 0.902480094
vt 0.194475084 0.882032296
vt 0.133983681 0.962971497
vt 0.122055799 0.984271287
vt 0.122055799 0.962971497
vt 0.146763555 0.942523699
vt 0.134835673 0.942523699
vt 0.122055799 0.942523699
vt 0.158691437 0.922075901
vt 0.169767328 0.902480094
vt 0.146763555 0.922075901
vt 0.134835673 0.922075901
vt 0.122055799 0.922075901
vt 0.158691437 0.902480094
vt 0.18169521 0.882032296
vt 0.146763555 0.902480094
vt 0.134835673 0.902480094
vt 0.122055799 0.902480094
vt 0.169767328 0.882032296
vt 0.158691437 0.882032296
vt 0.146763555 0.882032296
vt 0.134835673 0.881180305
vt 0.122055799 0.881180305
vt 0.134835673 0.860732507
vt 0.122055799 0.860732507
vt 0.146763555 0.860732507
vt 0.158691437 0.860732507
vt 0.169767328 0.860732507
vt 0.182547202 0.860732507
vt 0.134835673 0.8411367
vt 0.12290779 0.8411367
vt 0.146763555 0.8411367
vt 0.158691437 0.8411367
vt 0.169767328 0.8411367
vt 0.134835673 0.820688902
vt 0.12290779 0.820688902
vt 0.146763555 0.820688902
vt 0.158691437 0.820688902
vt 0.134835673 0.800241104
vt 0.12290779 0.800241104
vt 0.146763555 0.800241104
vt 0.134835673 0.778941314
vt 0.12290779 0.778941314
vt 0.182547202 0.8411367
vt 0.169767328 0.820688902
vt 0.158691437 0.800241104
vt 0.146763555 0.778941314
vt 0.134835673 0.759345507
vt 0.12290779 0.759345507
vt 0.134835673 0.738897709
vt 0.12290779 0.738897709
vt 0.146763555 0.738897709
vt 0.146763555 0.759345507
vt 0.158691437 0.738897709
vt 0.158691437 0.759345507
vt 0.170619319 0.738897709
vt 0.158691437 0.778941314
vt 0.170619319 0.759345507
vt 0.182547202 0.738897709
vt 0.169767328 0.779793306
vt 0.182547202 0.759345507
vt 0.194475084 0.738897709
vt 0.169767328 0.800241104
vt 0.194475084 0.759345507
vt 0.207254958 0.738897709
vt 0.182547202 0.779793306
vt 0.182547202 0.800241104
vt 0.206402966 0.759345507
vt 0.21918284 0.738897709
vt 0.194475084 0.779793306
vt 0.182547202 0.820688902
vt 0.218330848 0.759345507
vt 0.231110722 0.738897709
vt 0.206402966 0.779793306
vt 0.194475084 0.800241104
vt 0.194475084 0.820688902
vt 0.231110722 0.760197499
vt 0.242186613 0.738897709
vt 0.242186613 0.760197499
vt 0.218330848 0.779793306
vt 0.206402966 0.800241104
vt 0.231110722 0.779793306
vt 0.242186613 0.779793306
vt 0.194475084 0.8411367
vt 0.218330848 0.800241104
vt 0.230258731 0.800241104
vt 0.242186613 0.800241104
vt 0.206402966 0.820688902
vt 0.194475084 0.861584498
vt 0.230258731 0.820688902
vt 0.218330848 0.820688902
vt 0.206402966 0.8411367
vt 0.206402966 0.861584498
vt 0.218330848 0.8411367
g QiQiuQiQiu2_mobile_0
f 3/3/3 2/2/2 1/1/1
f 4/4/4 3/3/3 1/1/1
f 5/5/5 3/3/3 4/4/4
f 6/6/6 3/3/3 5/5/5
f 6/6/6 7/7/7 3/3/3
f 8/8/8 4/4/4 1/1/1
f 9/9/9 5/5/5 4/4/4
f 5/5/5 9/9/9 10/10/10
f 11/11/11 9/9/9 4/4/4
f 8/8/8 11/11/11 4/4/4
f 10/10/10 9/9/9 11/11/11
f 12/12/12 6/6/6 5/5/5
f 6/6/6 12/12/12 13/13/13
f 5/5/5 14/14/14 12/12/12
f 14/14/14 5/5/5 10/10/10
f 14/14/14 15/15/15 12/12/12
f 12/12/12 15/15/15 13/13/13
f 16/16/16 6/6/6 13/13/13
f 17/17/17 6/6/6 16/16/16
f 18/18/18 17/17/17 16/16/16
f 19/19/19 14/14/14 10/10/10
f 15/15/15 14/14/14 19/19/19
f 20/20/20 11/11/11 8/8/8
f 21/21/21 10/10/10 11/11/11
f 21/21/21 11/11/11 20/20/20
f 16/16/16 13/13/13 22/22/22
f 18/18/18 16/16/16 23/23/23
f 16/16/16 22/22/22 23/23/23
f 23/23/23 24/24/24 18/18/18
f 24/24/24 25/25/25 18/18/18
f 18/18/18 25/25/25 26/26/26
f 25/25/25 27/27/27 26/26/26
f 28/28/28 24/24/24 23/23/23
f 23/23/23 22/22/22 28/28/28
f 29/29/29 24/24/24 28/28/28
f 22/22/22 30/30/30 28/28/28
f 31/31/31 29/29/29 28/28/28
f 28/28/28 30/30/30 31/31/31
f 32/32/32 29/29/29 31/31/31
f 33/33/33 29/29/29 32/32/32
f 13/13/13 34/34/34 22/22/22
f 22/22/22 34/34/34 30/30/30
f 30/30/30 35/35/35 31/31/31
f 31/31/31 35/35/35 32/32/32
f 36/36/36 33/33/33 32/32/32
f 37/37/37 33/33/33 36/36/36
f 34/34/34 38/38/38 30/30/30
f 30/30/30 38/38/38 35/35/35
f 35/35/35 39/39/39 32/32/32
f 32/32/32 39/39/39 36/36/36
f 38/38/38 40/40/40 35/35/35
f 35/35/35 40/40/40 39/39/39
f 34/34/34 13/13/13 41/41/41
f 38/38/38 34/34/34 42/42/42
f 34/34/34 41/41/41 42/42/42
f 40/40/40 38/38/38 43/43/43
f 38/38/38 42/42/42 43/43/43
f 13/13/13 44/44/44 41/41/41
f 15/15/15 44/44/44 13/13/13
f 41/41/41 44/44/44 45/45/45
f 44/44/44 15/15/15 45/45/45
f 42/42/42 41/41/41 46/46/46
f 46/46/46 41/41/41 45/45/45
f 15/15/15 47/47/47 45/45/45
f 47/47/47 15/15/15 19/19/19
f 45/45/45 47/47/47 48/48/48
f 46/46/46 45/45/45 48/48/48
f 49/49/49 42/42/42 46/46/46
f 43/43/43 42/42/42 49/49/49
f 47/47/47 19/19/19 50/50/50
f 47/47/47 50/50/50 48/48/48
f 50/50/50 19/19/19 51/51/51
f 51/51/51 19/19/19 10/10/10
f 49/49/49 46/46/46 52/52/52
f 52/52/52 46/46/46 48/48/48
f 48/48/48 50/50/50 53/53/53
f 53/53/53 50/50/50 51/51/51
f 48/48/48 53/53/53 54/54/54
f 53/53/53 51/51/51 54/54/54
f 52/52/52 48/48/48 54/54/54
f 51/51/51 10/10/10 55/55/55
f 51/51/51 55/55/55 54/54/54
f 10/10/10 21/21/21 55/55/55
f 52/52/52 54/54/54 56/56/56
f 54/54/54 55/55/55 56/56/56
f 57/57/57 49/49/49 52/52/52
f 57/57/57 52/52/52 56/56/56
f 58/58/58 43/43/43 49/49/49
f 58/58/58 49/49/49 57/57/57
f 55/55/55 21/21/21 59/59/59
f 55/55/55 59/59/59 56/56/56
f 57/57/57 56/56/56 60/60/60
f 56/56/56 59/59/59 60/60/60
f 21/21/21 61/61/61 59/59/59
f 61/61/61 21/21/21 20/20/20
f 62/62/62 43/43/43 58/58/58
f 40/40/40 43/43/43 62/62/62
f 63/63/63 58/58/58 57/57/57
f 63/63/63 57/57/57 60/60/60
f 59/59/59 64/64/64 60/60/60
f 59/59/59 61/61/61 64/64/64
f 65/65/65 62/62/62 58/58/58
f 65/65/65 58/58/58 63/63/63
f 66/66/66 62/62/62 65/65/65
f 67/67/67 40/40/40 62/62/62
f 67/67/67 62/62/62 66/66/66
f 40/40/40 67/67/67 39/39/39
f 63/63/63 60/60/60 68/68/68
f 60/60/60 64/64/64 68/68/68
f 69/69/69 65/65/65 63/63/63
f 69/69/69 63/63/63 68/68/68
f 39/39/39 67/67/67 70/70/70
f 39/39/39 70/70/70 36/36/36
f 71/71/71 65/65/65 69/69/69
f 71/71/71 66/66/66 65/65/65
f 69/69/69 68/68/68 72/72/72
f 72/72/72 71/71/71 69/69/69
f 67/67/67 73/73/73 70/70/70
f 73/73/73 67/67/67 66/66/66
f 70/70/70 73/73/73 74/74/74
f 73/73/73 66/66/66 74/74/74
f 36/36/36 70/70/70 75/75/75
f 75/75/75 70/70/70 74/74/74
f 76/76/76 36/36/36 75/75/75
f 76/76/76 37/37/37 36/36/36
f 77/77/77 37/37/37 76/76/76
f 76/76/76 75/75/75 77/77/77
f 78/78/78 37/37/37 77/77/77
f 75/75/75 79/79/79 77/77/77
f 75/75/75 74/74/74 79/79/79
f 80/80/80 78/78/78 77/77/77
f 77/77/77 79/79/79 80/80/80
f 81/81/81 78/78/78 80/80/80
f 82/82/82 78/78/78 81/81/81
f 79/79/79 83/83/83 80/80/80
f 80/80/80 83/83/83 81/81/81
f 74/74/74 84/84/84 79/79/79
f 79/79/79 84/84/84 83/83/83
f 66/66/66 85/85/85 74/74/74
f 85/85/85 86/86/86 74/74/74
f 86/86/86 84/84/84 74/74/74
f 85/85/85 66/66/66 87/87/87
f 86/86/86 85/85/85 87/87/87
f 66/66/66 71/71/71 87/87/87
f 87/87/87 71/71/71 88/88/88
f 71/71/71 72/72/72 88/88/88
f 89/89/89 86/86/86 87/87/87
f 89/89/89 87/87/87 88/88/88
f 86/86/86 90/90/90 84/84/84
f 90/90/90 86/86/86 89/89/89
f 84/84/84 91/91/91 83/83/83
f 90/90/90 91/91/91 84/84/84
f 83/83/83 92/92/92 81/81/81
f 83/83/83 91/91/91 92/92/92
f 81/81/81 92/92/92 93/93/93
f 93/93/93 82/82/82 81/81/81
f 94/94/94 82/82/82 93/93/93
f 95/95/95 82/82/82 94/94/94
f 92/92/92 96/96/96 93/93/93
f 93/93/93 96/96/96 94/94/94
f 91/91/91 97/97/97 92/92/92
f 92/92/92 97/97/97 96/96/96
f 90/90/90 98/98/98 91/91/91
f 98/98/98 97/97/97 91/91/91
f 99/99/99 90/90/90 89/89/89
f 98/98/98 90/90/90 99/99/99
f 100/100/100 95/95/95 94/94/94
f 101/101/101 95/95/95 100/100/100
f 96/96/96 102/102/102 94/94/94
f 94/94/94 102/102/102 100/100/100
f 97/97/97 103/103/103 96/96/96
f 96/96/96 103/103/103 102/102/102
f 98/98/98 104/104/104 97/97/97
f 104/104/104 103/103/103 97/97/97
f 105/105/105 101/101/101 100/100/100
f 106/106/106 101/101/101 105/105/105
f 102/102/102 107/107/107 100/100/100
f 105/105/105 100/100/100 107/107/107
f 103/103/103 108/108/108 102/102/102
f 102/102/102 108/108/108 107/107/107
f 109/109/109 98/98/98 99/99/99
f 104/104/104 98/98/98 109/109/109
f 104/104/104 110/110/110 103/103/103
f 110/110/110 108/108/108 103/103/103
f 111/111/111 104/104/104 109/109/109
f 110/110/110 104/104/104 111/111/111
f 112/112/112 106/106/106 105/105/105
f 113/113/113 105/105/105 107/107/107
f 105/105/105 113/113/113 112/112/112
f 108/108/108 114/114/114 107/107/107
f 113/113/113 107/107/107 114/114/114
f 110/110/110 115/115/115 108/108/108
f 115/115/115 114/114/114 108/108/108
f 116/116/116 106/106/106 112/112/112
f 117/117/117 106/106/106 116/116/116
f 113/113/113 118/118/118 112/112/112
f 112/112/112 118/118/118 116/116/116
f 119/119/119 113/113/113 114/114/114
f 119/119/119 114/114/114 115/115/115
f 113/113/113 119/119/119 118/118/118
f 120/120/120 110/110/110 111/111/111
f 115/115/115 110/110/110 120/120/120
f 121/121/121 117/117/117 116/116/116
f 118/118/118 122/122/122 116/116/116
f 116/116/116 122/122/122 121/121/121
f 123/123/123 117/117/117 121/121/121
f 124/124/124 117/117/117 123/123/123
f 119/119/119 125/125/125 118/118/118
f 118/118/118 125/125/125 122/122/122
f 122/122/122 126/126/126 121/121/121
f 121/121/121 126/126/126 123/123/123
f 125/125/125 127/127/127 122/122/122
f 122/122/122 127/127/127 126/126/126
f 128/128/128 119/119/119 115/115/115
f 125/125/125 119/119/119 129/129/129
f 119/119/119 128/128/128 129/129/129
f 128/128/128 115/115/115 130/130/130
f 130/130/130 115/115/115 120/120/120
f 127/127/127 125/125/125 131/131/131
f 125/125/125 129/129/129 131/131/131
f 129/129/129 128/128/128 132/132/132
f 132/132/132 128/128/128 130/130/130
f 131/131/131 129/129/129 133/133/133
f 133/133/133 129/129/129 132/132/132
f 126/126/126 134/134/134 123/123/123
f 127/127/127 135/135/135 126/126/126
f 126/126/126 135/135/135 134/134/134
f 127/127/127 131/131/131 136/136/136
f 135/135/135 127/127/127 136/136/136
f 137/137/137 131/131/131 133/133/133
f 136/136/136 131/131/131 137/137/137
f 123/123/123 134/134/134 138/138/138
f 138/138/138 124/124/124 123/123/123
f 139/139/139 124/124/124 138/138/138
f 140/140/140 124/124/124 139/139/139
f 134/134/134 141/141/141 138/138/138
f 138/138/138 141/141/141 139/139/139
f 135/135/135 142/142/142 134/134/134
f 134/134/134 142/142/142 141/141/141
f 135/135/135 136/136/136 143/143/143
f 142/142/142 135/135/135 143/143/143
f 144/144/144 136/136/136 137/137/137
f 143/143/143 136/136/136 144/144/144
f 145/145/145 140/140/140 139/139/139
f 146/146/146 140/140/140 145/145/145
f 141/141/141 147/147/147 139/139/139
f 142/142/142 148/148/148 141/141/141
f 141/141/141 148/148/148 147/147/147
f 142/142/142 143/143/143 149/149/149
f 148/148/148 142/142/142 149/149/149
f 148/148/148 149/149/149 150/150/150
f 151/151/151 145/145/145 139/139/139
f 147/147/147 151/151/151 139/139/139
f 152/152/152 151/151/151 147/147/147
f 148/148/148 153/153/153 147/147/147
f 153/153/153 148/148/148 150/150/150
f 153/153/153 152/152/152 147/147/147
f 152/152/152 153/153/153 150/150/150
f 154/154/154 146/146/146 145/145/145
f 145/145/145 151/151/151 154/154/154
f 149/149/149 143/143/143 155/155/155
f 155/155/155 143/143/143 144/144/144
f 156/156/156 146/146/146 154/154/154
f 157/157/157 146/146/146 156/156/156
f 151/151/151 158/158/158 154/154/154
f 151/151/151 152/152/152 158/158/158
f 154/154/154 158/158/158 156/156/156
f 150/150/150 149/149/149 159/159/159
f 159/159/159 149/149/149 155/155/155
f 155/155/155 144/144/144 160/160/160
f 159/159/159 155/155/155 161/161/161
f 161/161/161 155/155/155 160/160/160
f 160/160/160 144/144/144 162/162/162
f 144/144/144 137/137/137 162/162/162
f 162/162/162 137/137/137 163/163/163
f 137/137/137 133/133/133 163/163/163
f 163/163/163 133/133/133 164/164/164
f 133/133/133 132/132/132 164/164/164
f 164/164/164 132/132/132 165/165/165
f 132/132/132 130/130/130 165/165/165
f 164/164/164 165/165/165 166/166/166
f 165/165/165 130/130/130 166/166/166
f 163/163/163 164/164/164 166/166/166
f 130/130/130 120/120/120 166/166/166
f 163/163/163 166/166/166 167/167/167
f 166/166/166 120/120/120 167/167/167
f 162/162/162 163/163/163 167/167/167
f 120/120/120 111/111/111 167/167/167
f 162/162/162 167/167/167 168/168/168
f 167/167/167 111/111/111 168/168/168
f 160/160/160 162/162/162 168/168/168
f 111/111/111 109/109/109 168/168/168
f 160/160/160 168/168/168 169/169/169
f 168/168/168 109/109/109 169/169/169
f 109/109/109 99/99/99 169/169/169
f 161/161/161 160/160/160 169/169/169
f 169/169/169 99/99/99 170/170/170
f 161/161/161 169/169/169 170/170/170
f 99/99/99 89/89/89 170/170/170
f 170/170/170 89/89/89 88/88/88
f 171/171/171 161/161/161 170/170/170
f 171/171/171 170/170/170 88/88/88
f 171/171/171 159/159/159 161/161/161
f 172/172/172 171/171/171 88/88/88
f 172/172/172 88/88/88 72/72/72
f 173/173/173 159/159/159 171/171/171
f 172/172/172 173/173/173 171/171/171
f 173/173/173 150/150/150 159/159/159
f 174/174/174 172/172/172 72/72/72
f 172/172/172 174/174/174 173/173/173
f 68/68/68 174/174/174 72/72/72
f 173/173/173 175/175/175 150/150/150
f 174/174/174 175/175/175 173/173/173
f 68/68/68 176/176/176 174/174/174
f 176/176/176 175/175/175 174/174/174
f 64/64/64 176/176/176 68/68/68
f 175/175/175 177/177/177 150/150/150
f 177/177/177 152/152/152 150/150/150
f 178/178/178 177/177/177 175/175/175
f 176/176/176 178/178/178 175/175/175
f 177/177/177 178/178/178 152/152/152
f 64/64/64 179/179/179 176/176/176
f 179/179/179 178/178/178 176/176/176
f 61/61/61 179/179/179 64/64/64
f 178/178/178 180/180/180 152/152/152
f 178/178/178 179/179/179 180/180/180
f 152/152/152 180/180/180 158/158/158
f 179/179/179 61/61/61 181/181/181
f 179/179/179 181/181/181 180/180/180
f 61/61/61 20/20/20 181/181/181
f 158/158/158 180/180/180 182/182/182
f 180/180/180 181/181/181 182/182/182
f 158/158/158 182/182/182 156/156/156
f 181/181/181 20/20/20 183/183/183
f 182/182/182 181/181/181 183/183/183
f 183/183/183 20/20/20 8/8/8
f 156/156/156 182/182/182 184/184/184
f 182/182/182 183/183/183 184/184/184
f 184/184/184 157/157/157 156/156/156
f 183/183/183 8/8/8 185/185/185
f 184/184/184 183/183/183 185/185/185
f 185/185/185 157/157/157 184/184/184
f 186/186/186 157/157/157 185/185/185
f 185/185/185 8/8/8 1/1/1
f 1/1/1 186/186/186 185/185/185
f 187/187/187 186/186/186 1/1/1
f 188/188/188 187/187/187 1/1/1
f 191/191/191 190/190/190 189/189/189
f 190/190/190 192/192/192 189/189/189
f 191/191/191 189/189/189 193/193/193
f 194/194/194 191/191/191 193/193/193
f 195/195/195 194/194/194 193/193/193
f 195/195/195 193/193/193 196/196/196
f 193/193/193 189/189/189 196/196/196
f 197/197/197 195/195/195 196/196/196
f 189/189/189 192/192/192 198/198/198
f 189/189/189 198/198/198 196/196/196
f 192/192/192 199/199/199 198/198/198
f 197/197/197 196/196/196 200/200/200
f 196/196/196 198/198/198 200/200/200
f 201/201/201 197/197/197 200/200/200
f 202/202/202 201/201/201 200/200/200
f 198/198/198 199/199/199 203/203/203
f 198/198/198 203/203/203 200/200/200
f 199/199/199 204/204/204 203/203/203
f 200/200/200 203/203/203 205/205/205
f 200/200/200 205/205/205 202/202/202
f 203/203/203 204/204/204 206/206/206
f 203/203/203 206/206/206 205/205/205
f 204/204/204 207/207/207 206/206/206
f 205/205/205 206/206/206 208/208/208
f 202/202/202 205/205/205 208/208/208
f 206/206/206 207/207/207 209/209/209
f 206/206/206 209/209/209 208/208/208
f 207/207/207 210/210/210 209/209/209
f 211/211/211 209/209/209 210/210/210
f 212/212/212 211/211/211 210/210/210
f 213/213/213 208/208/208 209/209/209
f 211/211/211 213/213/213 209/209/209
f 211/211/211 212/212/212 214/214/214
f 212/212/212 215/215/215 214/214/214
f 216/216/216 202/202/202 208/208/208
f 216/216/216 208/208/208 213/213/213
f 213/213/213 211/211/211 217/217/217
f 211/211/211 214/214/214 217/217/217
f 214/214/214 215/215/215 218/218/218
f 215/215/215 219/219/219 218/218/218
f 217/217/217 214/214/214 220/220/220
f 214/214/214 218/218/218 220/220/220
f 217/217/217 221/221/221 213/213/213
f 217/217/217 220/220/220 221/221/221
f 218/218/218 219/219/219 222/222/222
f 219/219/219 223/223/223 222/222/222
f 220/220/220 218/218/218 224/224/224
f 218/218/218 222/222/222 224/224/224
f 222/222/222 223/223/223 225/225/225
f 223/223/223 226/226/226 225/225/225
f 227/227/227 216/216/216 213/213/213
f 221/221/221 227/227/227 213/213/213
f 220/220/220 228/228/228 221/221/221
f 220/220/220 224/224/224 228/228/228
f 224/224/224 222/222/222 229/229/229
f 222/222/222 225/225/225 229/229/229
f 225/225/225 226/226/226 230/230/230
f 226/226/226 231/231/231 230/230/230
f 224/224/224 232/232/232 228/228/228
f 224/224/224 229/229/229 232/232/232
f 229/229/229 225/225/225 233/233/233
f 225/225/225 230/230/230 233/233/233
f 230/230/230 231/231/231 234/234/234
f 231/231/231 235/235/235 234/234/234
f 229/229/229 236/236/236 232/232/232
f 229/229/229 233/233/233 236/236/236
f 233/233/233 230/230/230 237/237/237
f 230/230/230 234/234/234 237/237/237
f 234/234/234 235/235/235 238/238/238
f 235/235/235 239/239/239 238/238/238
f 233/233/233 240/240/240 236/236/236
f 233/233/233 237/237/237 240/240/240
f 237/237/237 234/234/234 241/241/241
f 234/234/234 238/238/238 241/241/241
f 242/242/242 238/238/238 239/239/239
f 243/243/243 242/242/242 239/239/239
f 237/237/237 241/241/241 244/244/244
f 237/237/237 244/244/244 240/240/240
f 245/245/245 241/241/241 238/238/238
f 242/242/242 245/245/245 238/238/238
f 241/241/241 245/245/245 244/244/244
f 245/245/245 242/242/242 244/244/244
f 242/242/242 243/243/243 246/246/246
f 242/242/242 246/246/246 244/244/244
f 244/244/244 246/246/246 240/240/240
f 243/243/243 247/247/247 246/246/246
f 246/246/246 248/248/248 240/240/240
f 246/246/246 247/247/247 248/248/248
f 240/240/240 248/248/248 236/236/236
f 247/247/247 249/249/249 248/248/248
f 248/248/248 250/250/250 236/236/236
f 248/248/248 249/249/249 250/250/250
f 236/236/236 250/250/250 232/232/232
f 249/249/249 251/251/251 250/250/250
f 250/250/250 252/252/252 232/232/232
f 250/250/250 251/251/251 252/252/252
f 232/232/232 252/252/252 228/228/228
f 251/251/251 253/253/253 252/252/252
f 252/252/252 254/254/254 228/228/228
f 252/252/252 253/253/253 254/254/254
f 228/228/228 254/254/254 221/221/221
f 253/253/253 255/255/255 254/254/254
f 254/254/254 256/256/256 221/221/221
f 254/254/254 255/255/255 256/256/256
f 221/221/221 256/256/256 227/227/227
f 255/255/255 257/257/257 256/256/256
f 256/256/256 258/258/258 227/227/227
f 256/256/256 257/257/257 258/258/258
f 216/216/216 227/227/227 258/258/258
f 257/257/257 259/259/259 258/258/258
f 260/260/260 216/216/216 258/258/258
f 260/260/260 258/258/258 259/259/259
f 261/261/261 260/260/260 259/259/259
f 216/216/216 260/260/260 202/202/202
f 260/260/260 261/261/261 262/262/262
f 260/260/260 262/262/262 202/202/202
f 261/261/261 263/263/263 262/262/262
f 202/202/202 262/262/262 264/264/264
f 202/202/202 264/264/264 201/201/201
f 201/201/201 264/264/264 265/265/265
f 262/262/262 263/263/263 266/266/266
f 262/262/262 266/266/266 264/264/264
f 263/263/263 267/267/267 266/266/266
f 264/264/264 268/268/268 265/265/265
f 264/264/264 266/266/266 268/268/268
f 265/265/265 268/268/268 269/269/269
f 266/266/266 267/267/267 270/270/270
f 266/266/266 270/270/270 268/268/268
f 267/267/267 271/271/271 270/270/270
f 268/268/268 272/272/272 269/269/269
f 268/268/268 270/270/270 272/272/272
f 270/270/270 271/271/271 273/273/273
f 270/270/270 273/273/273 272/272/272
f 271/271/271 274/274/274 273/273/273
f 273/273/273 274/274/274 275/275/275
f 276/276/276 273/273/273 275/275/275
f 272/272/272 273/273/273 276/276/276
f 269/269/269 272/272/272 277/277/277
f 277/277/277 272/272/272 276/276/276
f 278/278/278 269/269/269 277/277/277
f 278/278/278 277/277/277 276/276/276
f 281/281/281 280/280/280 279/279/279
f 282/282/282 281/281/281 279/279/279
f 280/280/280 283/283/283 279/279/279
f 283/283/283 280/280/280 284/284/284
f 280/280/280 285/285/285 284/284/284
f 284/284/284 285/285/285 286/286/286
f 287/287/287 282/282/282 279/279/279
f 279/279/279 283/283/283 288/288/288
f 287/287/287 279/279/279 288/288/288
f 287/287/287 289/289/289 282/282/282
f 289/289/289 290/290/290 282/282/282
f 289/289/289 291/291/291 290/290/290
f 291/291/291 292/292/292 290/290/290
f 292/292/292 291/291/291 293/293/293
f 289/289/289 287/287/287 294/294/294
f 294/294/294 287/287/287 288/288/288
f 295/295/295 289/289/289 294/294/294
f 291/291/291 289/289/289 295/295/295
f 294/294/294 288/288/288 295/295/295
f 283/283/283 296/296/296 288/288/288
f 296/296/296 283/283/283 284/284/284
f 288/288/288 297/297/297 295/295/295
f 297/297/297 291/291/291 295/295/295
f 288/288/288 296/296/296 297/297/297
f 291/291/291 298/298/298 293/293/293
f 293/293/293 298/298/298 299/299/299
f 297/297/297 300/300/300 291/291/291
f 296/296/296 300/300/300 297/297/297
f 300/300/300 298/298/298 291/291/291
f 301/301/301 296/296/296 284/284/284
f 300/300/300 296/296/296 301/301/301
f 298/298/298 300/300/300 302/302/302
f 302/302/302 300/300/300 301/301/301
f 298/298/298 303/303/303 299/299/299
f 303/303/303 298/298/298 302/302/302
f 299/299/299 303/303/303 304/304/304
f 305/305/305 299/299/299 304/304/304
f 306/306/306 305/305/305 304/304/304
f 303/303/303 302/302/302 307/307/307
f 304/304/304 303/303/303 307/307/307
f 307/307/307 302/302/302 301/301/301
f 308/308/308 306/306/306 304/304/304
f 308/308/308 304/304/304 307/307/307
f 309/309/309 306/306/306 308/308/308
f 301/301/301 284/284/284 310/310/310
f 310/310/310 284/284/284 286/286/286
f 311/311/311 307/307/307 301/301/301
f 311/311/311 301/301/301 310/310/310
f 312/312/312 309/309/309 308/308/308
f 313/313/313 309/309/309 312/312/312
f 314/314/314 308/308/308 307/307/307
f 307/307/307 311/311/311 314/314/314
f 312/312/312 308/308/308 314/314/314
f 315/315/315 310/310/310 286/286/286
f 316/316/316 315/315/315 286/286/286
f 317/317/317 311/311/311 310/310/310
f 311/311/311 317/317/317 314/314/314
f 315/315/315 317/317/317 310/310/310
f 318/318/318 313/313/313 312/312/312
f 319/319/319 313/313/313 318/318/318
f 320/320/320 312/312/312 314/314/314
f 314/314/314 317/317/317 320/320/320
f 318/318/318 312/312/312 320/320/320
f 321/321/321 315/315/315 316/316/316
f 322/322/322 321/321/321 316/316/316
f 323/323/323 317/317/317 315/315/315
f 317/317/317 323/323/323 320/320/320
f 321/321/321 323/323/323 315/315/315
f 324/324/324 318/318/318 320/320/320
f 320/320/320 323/323/323 324/324/324
f 325/325/325 319/319/319 318/318/318
f 325/325/325 318/318/318 324/324/324
f 326/326/326 321/321/321 322/322/322
f 327/327/327 326/326/326 322/322/322
f 328/328/328 323/323/323 321/321/321
f 323/323/323 328/328/328 324/324/324
f 326/326/326 328/328/328 321/321/321
f 325/325/325 329/329/329 319/319/319
f 329/329/329 330/330/330 319/319/319
f 331/331/331 330/330/330 329/329/329
f 332/332/332 325/325/325 324/324/324
f 324/324/324 328/328/328 332/332/332
f 329/329/329 325/325/325 332/332/332
f 333/333/333 326/326/326 327/327/327
f 334/334/334 333/333/333 327/327/327
f 333/333/333 334/334/334 331/331/331
f 335/335/335 328/328/328 326/326/326
f 328/328/328 335/335/335 332/332/332
f 333/333/333 335/335/335 326/326/326
f 336/336/336 331/331/331 329/329/329
f 336/336/336 333/333/333 331/331/331
f 335/335/335 333/333/333 337/337/337
f 335/335/335 337/337/337 332/332/332
f 333/333/333 336/336/336 337/337/337
f 336/336/336 329/329/329 338/338/338
f 338/338/338 329/329/329 332/332/332
f 337/337/337 336/336/336 338/338/338
f 337/337/337 338/338/338 332/332/332
g QiQiuQiQiu2_mobile_1
f 341/341/341 340/340/340 339/339/339
f 340/340/340 342/342/342 339/339/339
f 339/339/339 342/342/342 343/343/343
f 340/340/340 344/344/344 342/342/342
f 342/342/342 345/345/345 343/343/343
f 343/343/343 345/345/345 346/346/346
f 344/344/344 347/347/347 342/342/342
f 342/342/342 347/347/347 345/345/345
f 344/344/344 348/348/348 347/347/347
f 345/345/345 349/349/349 346/346/346
f 346/346/346 349/349/349 350/350/350
f 347/347/347 351/351/351 345/345/345
f 345/345/345 351/351/351 349/349/349
f 348/348/348 352/352/352 347/347/347
f 347/347/347 352/352/352 351/351/351
f 348/348/348 353/353/353 352/352/352
f 349/349/349 354/354/354 350/350/350
f 350/350/350 354/354/354 355/355/355
f 351/351/351 356/356/356 349/349/349
f 349/349/349 356/356/356 354/354/354
f 352/352/352 357/357/357 351/351/351
f 351/351/351 357/357/357 356/356/356
f 353/353/353 358/358/358 352/352/352
f 352/352/352 358/358/358 357/357/357
f 353/353/353 359/359/359 358/358/358
f 354/354/354 360/360/360 355/355/355
f 355/355/355 360/360/360 361/361/361
f 356/356/356 362/362/362 354/354/354
f 354/354/354 362/362/362 360/360/360
f 357/357/357 363/363/363 356/356/356
f 356/356/356 363/363/363 362/362/362
f 358/358/358 364/364/364 357/357/357
f 357/357/357 364/364/364 363/363/363
f 359/359/359 365/365/365 358/358/358
f 358/358/358 365/365/365 364/364/364
f 359/359/359 366/366/366 365/365/365
f 360/360/360 367/367/367 361/361/361
f 361/361/361 367/367/367 368/368/368
f 362/362/362 369/369/369 360/360/360
f 360/360/360 369/369/369 367/367/367
f 363/363/363 370/370/370 362/362/362
f 362/362/362 370/370/370 369/369/369
f 364/364/364 371/371/371 363/363/363
f 363/363/363 371/371/371 370/370/370
f 365/365/365 372/372/372 364/364/364
f 364/364/364 372/372/372 371/371/371
f 366/366/366 373/373/373 365/365/365
f 365/365/365 373/373/373 372/372/372
f 366/366/366 374/374/374 373/373/373
f 367/367/367 375/375/375 368/368/368
f 368/368/368 375/375/375 376/376/376
f 369/369/369 377/377/377 367/367/367
f 367/367/367 377/377/377 375/375/375
f 370/370/370 378/378/378 369/369/369
f 369/369/369 378/378/378 377/377/377
f 371/371/371 379/379/379 370/370/370
f 370/370/370 379/379/379 378/378/378
f 372/372/372 380/380/380 371/371/371
f 371/371/371 380/380/380 379/379/379
f 373/373/373 381/381/381 372/372/372
f 372/372/372 381/381/381 380/380/380
f 374/374/374 382/382/382 373/373/373
f 373/373/373 382/382/382 381/381/381
f 374/374/374 383/383/383 382/382/382
f 383/383/383 384/384/384 382/382/382
f 383/383/383 385/385/385 384/384/384
f 382/382/382 386/386/386 381/381/381
f 382/382/382 384/384/384 386/386/386
f 381/381/381 387/387/387 380/380/380
f 381/381/381 386/386/386 387/387/387
f 380/380/380 388/388/388 379/379/379
f 380/380/380 387/387/387 388/388/388
f 379/379/379 389/389/389 378/378/378
f 379/379/379 388/388/388 389/389/389
f 385/385/385 390/390/390 384/384/384
f 385/385/385 391/391/391 390/390/390
f 391/391/391 392/392/392 390/390/390
f 384/384/384 393/393/393 386/386/386
f 384/384/384 390/390/390 393/393/393
f 390/390/390 392/392/392 394/394/394
f 390/390/390 394/394/394 393/393/393
f 392/392/392 395/395/395 394/394/394
f 386/386/386 396/396/396 387/387/387
f 386/386/386 393/393/393 396/396/396
f 387/387/387 397/397/397 388/388/388
f 387/387/387 396/396/396 397/397/397
f 393/393/393 394/394/394 398/398/398
f 393/393/393 398/398/398 396/396/396
f 394/394/394 395/395/395 399/399/399
f 394/394/394 399/399/399 398/398/398
f 395/395/395 400/400/400 399/399/399
f 396/396/396 398/398/398 401/401/401
f 396/396/396 401/401/401 397/397/397
f 388/388/388 397/397/397 402/402/402
f 388/388/388 402/402/402 389/389/389
f 398/398/398 399/399/399 403/403/403
f 398/398/398 403/403/403 401/401/401
f 399/399/399 400/400/400 404/404/404
f 399/399/399 404/404/404 403/403/403
f 400/400/400 405/405/405 404/404/404
f 397/397/397 401/401/401 406/406/406
f 397/397/397 406/406/406 402/402/402
f 401/401/401 403/403/403 407/407/407
f 401/401/401 407/407/407 406/406/406
f 403/403/403 404/404/404 408/408/408
f 403/403/403 408/408/408 407/407/407
f 404/404/404 405/405/405 409/409/409
f 404/404/404 409/409/409 408/408/408
f 405/405/405 410/410/410 409/409/409
f 409/409/409 410/410/410 411/411/411
f 410/410/410 412/412/412 411/411/411
f 408/408/408 409/409/409 413/413/413
f 409/409/409 411/411/411 413/413/413
f 407/407/407 408/408/408 414/414/414
f 408/408/408 413/413/413 414/414/414
f 406/406/406 407/407/407 415/415/415
f 407/407/407 414/414/414 415/415/415
f 402/402/402 406/406/406 416/416/416
f 406/406/406 415/415/415 416/416/416
f 411/411/411 412/412/412 417/417/417
f 412/412/412 418/418/418 417/417/417
f 413/413/413 411/411/411 419/419/419
f 411/411/411 417/417/417 419/419/419
f 414/414/414 413/413/413 420/420/420
f 413/413/413 419/419/419 420/420/420
f 415/415/415 414/414/414 421/421/421
f 414/414/414 420/420/420 421/421/421
f 417/417/417 418/418/418 422/422/422
f 418/418/418 423/423/423 422/422/422
f 419/419/419 417/417/417 424/424/424
f 417/417/417 422/422/422 424/424/424
f 420/420/420 419/419/419 425/425/425
f 419/419/419 424/424/424 425/425/425
f 422/422/422 423/423/423 426/426/426
f 423/423/423 427/427/427 426/426/426
f 424/424/424 422/422/422 428/428/428
f 422/422/422 426/426/426 428/428/428
f 426/426/426 427/427/427 429/429/429
f 427/427/427 430/430/430 429/429/429
f 415/415/415 421/421/421 431/431/431
f 416/416/416 415/415/415 431/431/431
f 421/421/421 420/420/420 432/432/432
f 420/420/420 425/425/425 432/432/432
f 425/425/425 424/424/424 433/433/433
f 424/424/424 428/428/428 433/433/433
f 428/428/428 426/426/426 434/434/434
f 426/426/426 429/429/429 434/434/434
f 429/429/429 430/430/430 435/435/435
f 430/430/430 436/436/436 435/435/435
f 435/435/435 436/436/436 437/437/437
f 436/436/436 438/438/438 437/437/437
f 435/435/435 437/437/437 439/439/439
f 429/429/429 435/435/435 440/440/440
f 440/440/440 435/435/435 439/439/439
f 434/434/434 429/429/429 440/440/440
f 440/440/440 439/439/439 441/441/441
f 442/442/442 440/440/440 441/441/441
f 434/434/434 440/440/440 442/442/442
f 442/442/442 441/441/441 443/443/443
f 428/428/428 434/434/434 444/444/444
f 444/444/444 434/434/434 442/442/442
f 433/433/433 428/428/428 444/444/444
f 445/445/445 442/442/442 443/443/443
f 444/444/444 442/442/442 445/445/445
f 445/445/445 443/443/443 446/446/446
f 433/433/433 444/444/444 447/447/447
f 447/447/447 444/444/444 445/445/445
f 448/448/448 445/445/445 446/446/446
f 447/447/447 445/445/445 448/448/448
f 448/448/448 446/446/446 449/449/449
f 450/450/450 433/433/433 447/447/447
f 425/425/425 433/433/433 450/450/450
f 432/432/432 425/425/425 450/450/450
f 451/451/451 448/448/448 449/449/449
f 451/451/451 449/449/449 452/452/452
f 453/453/453 447/447/447 448/448/448
f 450/450/450 447/447/447 453/453/453
f 453/453/453 448/448/448 451/451/451
f 432/432/432 450/450/450 454/454/454
f 454/454/454 450/450/450 453/453/453
f 455/455/455 451/451/451 452/452/452
f 455/455/455 452/452/452 456/456/456
f 457/457/457 453/453/453 451/451/451
f 454/454/454 453/453/453 457/457/457
f 457/457/457 451/451/451 455/455/455
f 458/458/458 432/432/432 454/454/454
f 421/421/421 432/432/432 458/458/458
f 431/431/431 421/421/421 458/458/458
f 459/459/459 455/455/455 456/456/456
f 459/459/459 456/456/456 460/460/460
f 461/461/461 457/457/457 455/455/455
f 461/461/461 455/455/455 459/459/459
f 462/462/462 454/454/454 457/457/457
f 458/458/458 454/454/454 462/462/462
f 462/462/462 457/457/457 461/461/461
f 431/431/431 458/458/458 463/463/463
f 463/463/463 458/458/458 462/462/462
f 464/464/464 459/459/459 460/460/460
f 464/464/464 460/460/460 465/465/465
f 466/466/466 464/464/464 465/465/465
f 467/467/467 461/461/461 459/459/459
f 467/467/467 459/459/459 464/464/464
f 468/468/468 462/462/462 461/461/461
f 463/463/463 462/462/462 468/468/468
f 468/468/468 461/461/461 467/467/467
f 469/469/469 464/464/464 466/466/466
f 469/469/469 467/467/467 464/464/464
f 470/470/470 469/469/469 466/466/466
f 471/471/471 431/431/431 463/463/463
f 416/416/416 431/431/431 471/471/471
f 472/472/472 468/468/468 467/467/467
f 472/472/472 467/467/467 469/469/469
f 473/473/473 469/469/469 470/470/470
f 473/473/473 472/472/472 469/469/469
f 474/474/474 473/473/473 470/470/470
f 475/475/475 463/463/463 468/468/468
f 475/475/475 468/468/468 472/472/472
f 471/471/471 463/463/463 475/475/475
f 476/476/476 416/416/416 471/471/471
f 402/402/402 416/416/416 476/476/476
f 389/389/389 402/402/402 476/476/476
f 477/477/477 473/473/473 474/474/474
f 376/376/376 477/477/477 474/474/474
f 375/375/375 477/477/477 376/376/376
f 478/478/478 472/472/472 473/473/473
f 478/478/478 475/475/475 472/472/472
f 477/477/477 478/478/478 473/473/473
f 479/479/479 471/471/471 475/475/475
f 476/476/476 471/471/471 479/479/479
f 479/479/479 475/475/475 478/478/478
f 389/389/389 476/476/476 480/480/480
f 480/480/480 476/476/476 479/479/479
f 378/378/378 389/389/389 480/480/480
f 378/378/378 480/480/480 377/377/377
f 377/377/377 481/481/481 375/375/375
f 375/375/375 481/481/481 477/477/477
f 481/481/481 478/478/478 477/477/477
f 481/481/481 479/479/479 478/478/478
f 480/480/480 479/479/479 481/481/481
f 377/377/377 480/480/480 481/481/481
f 484/484/484 483/483/483 482/482/482
f 483/483/483 485/485/485 482/482/482
f 482/482/482 485/485/485 486/486/486
f 483/483/483 487/487/487 485/485/485
f 485/485/485 488/488/488 486/486/486
f 486/486/486 488/488/488 489/489/489
f 487/487/487 490/490/490 485/485/485
f 485/485/485 490/490/490 488/488/488
f 487/487/487 491/491/491 490/490/490
f 488/488/488 492/492/492 489/489/489
f 489/489/489 492/492/492 493/493/493
f 490/490/490 494/494/494 488/488/488
f 488/488/488 494/494/494 492/492/492
f 491/491/491 495/495/495 490/490/490
f 490/490/490 495/495/495 494/494/494
f 491/491/491 496/496/496 495/495/495
f 492/492/492 497/497/497 493/493/493
f 493/493/493 497/497/497 498/498/498
f 494/494/494 499/499/499 492/492/492
f 492/492/492 499/499/499 497/497/497
f 495/495/495 500/500/500 494/494/494
f 494/494/494 500/500/500 499/499/499
f 496/496/496 501/501/501 495/495/495
f 495/495/495 501/501/501 500/500/500
f 496/496/496 502/502/502 501/501/501
f 497/497/497 503/503/503 498/498/498
f 498/498/498 503/503/503 504/504/504
f 499/499/499 505/505/505 497/497/497
f 497/497/497 505/505/505 503/503/503
f 500/500/500 506/506/506 499/499/499
f 499/499/499 506/506/506 505/505/505
f 501/501/501 507/507/507 500/500/500
f 500/500/500 507/507/507 506/506/506
f 502/502/502 508/508/508 501/501/501
f 501/501/501 508/508/508 507/507/507
f 502/502/502 509/509/509 508/508/508
f 503/503/503 510/510/510 504/504/504
f 504/504/504 510/510/510 511/511/511
f 505/505/505 512/512/512 503/503/503
f 503/503/503 512/512/512 510/510/510
f 506/506/506 513/513/513 505/505/505
f 505/505/505 513/513/513 512/512/512
f 507/507/507 514/514/514 506/506/506
f 506/506/506 514/514/514 513/513/513
f 508/508/508 515/515/515 507/507/507
f 507/507/507 515/515/515 514/514/514
f 509/509/509 516/516/516 508/508/508
f 508/508/508 516/516/516 515/515/515
f 509/509/509 517/517/517 516/516/516
f 510/510/510 518/518/518 511/511/511
f 511/511/511 518/518/518 519/519/519
f 512/512/512 520/520/520 510/510/510
f 510/510/510 520/520/520 518/518/518
f 513/513/513 521/521/521 512/512/512
f 512/512/512 521/521/521 520/520/520
f 514/514/514 522/522/522 513/513/513
f 513/513/513 522/522/522 521/521/521
f 515/515/515 523/523/523 514/514/514
f 514/514/514 523/523/523 522/522/522
f 516/516/516 524/524/524 515/515/515
f 515/515/515 524/524/524 523/523/523
f 517/517/517 525/525/525 516/516/516
f 516/516/516 525/525/525 524/524/524
f 517/517/517 526/526/526 525/525/525
f 526/526/526 527/527/527 525/525/525
f 526/526/526 528/528/528 527/527/527
f 525/525/525 529/529/529 524/524/524
f 525/525/525 527/527/527 529/529/529
f 524/524/524 530/530/530 523/523/523
f 524/524/524 529/529/529 530/530/530
f 523/523/523 531/531/531 522/522/522
f 523/523/523 530/530/530 531/531/531
f 522/522/522 532/532/532 521/521/521
f 522/522/522 531/531/531 532/532/532
f 528/528/528 533/533/533 527/527/527
f 528/528/528 534/534/534 533/533/533
f 534/534/534 535/535/535 533/533/533
f 527/527/527 536/536/536 529/529/529
f 527/527/527 533/533/533 536/536/536
f 533/533/533 535/535/535 537/537/537
f 533/533/533 537/537/537 536/536/536
f 535/535/535 538/538/538 537/537/537
f 529/529/529 539/539/539 530/530/530
f 529/529/529 536/536/536 539/539/539
f 530/530/530 540/540/540 531/531/531
f 530/530/530 539/539/539 540/540/540
f 536/536/536 537/537/537 541/541/541
f 536/536/536 541/541/541 539/539/539
f 537/537/537 538/538/538 542/542/542
f 537/537/537 542/542/542 541/541/541
f 538/538/538 543/543/543 542/542/542
f 539/539/539 541/541/541 544/544/544
f 539/539/539 544/544/544 540/540/540
f 531/531/531 540/540/540 545/545/545
f 531/531/531 545/545/545 532/532/532
f 541/541/541 542/542/542 546/546/546
f 541/541/541 546/546/546 544/544/544
f 542/542/542 543/543/543 547/547/547
f 542/542/542 547/547/547 546/546/546
f 543/543/543 548/548/548 547/547/547
f 540/540/540 544/544/544 549/549/549
f 540/540/540 549/549/549 545/545/545
f 544/544/544 546/546/546 550/550/550
f 544/544/544 550/550/550 549/549/549
f 546/546/546 547/547/547 551/551/551
f 546/546/546 551/551/551 550/550/550
f 547/547/547 548/548/548 552/552/552
f 547/547/547 552/552/552 551/551/551
f 548/548/548 553/553/553 552/552/552
f 552/552/552 553/553/553 554/554/554
f 553/553/553 555/555/555 554/554/554
f 551/551/551 552/552/552 556/556/556
f 552/552/552 554/554/554 556/556/556
f 550/550/550 551/551/551 557/557/557
f 551/551/551 556/556/556 557/557/557
f 549/549/549 550/550/550 558/558/558
f 550/550/550 557/557/557 558/558/558
f 545/545/545 549/549/549 559/559/559
f 549/549/549 558/558/558 559/559/559
f 554/554/554 555/555/555 560/560/560
f 555/555/555 561/561/561 560/560/560
f 556/556/556 554/554/554 562/562/562
f 554/554/554 560/560/560 562/562/562
f 557/557/557 556/556/556 563/563/563
f 556/556/556 562/562/562 563/563/563
f 558/558/558 557/557/557 564/564/564
f 557/557/557 563/563/563 564/564/564
f 560/560/560 561/561/561 565/565/565
f 561/561/561 566/566/566 565/565/565
f 562/562/562 560/560/560 567/567/567
f 560/560/560 565/565/565 567/567/567
f 563/563/563 562/562/562 568/568/568
f 562/562/562 567/567/567 568/568/568
f 565/565/565 566/566/566 569/569/569
f 566/566/566 570/570/570 569/569/569
f 567/567/567 565/565/565 571/571/571
f 565/565/565 569/569/569 571/571/571
f 569/569/569 570/570/570 572/572/572
f 570/570/570 573/573/573 572/572/572
f 558/558/558 564/564/564 574/574/574
f 559/559/559 558/558/558 574/574/574
f 564/564/564 563/563/563 575/575/575
f 563/563/563 568/568/568 575/575/575
f 568/568/568 567/567/567 576/576/576
f 567/567/567 571/571/571 576/576/576
f 571/571/571 569/569/569 577/577/577
f 569/569/569 572/572/572 577/577/577
f 572/572/572 573/573/573 578/578/578
f 573/573/573 579/579/579 578/578/578
f 578/578/578 579/579/579 580/580/580
f 579/579/579 581/581/581 580/580/580
f 578/578/578 580/580/580 582/582/582
f 572/572/572 578/578/578 583/583/583
f 583/583/583 578/578/578 582/582/582
f 577/577/577 572/572/572 583/583/583
f 583/583/583 582/582/582 584/584/584
f 585/585/585 583/583/583 584/584/584
f 577/577/577 583/583/583 585/585/585
f 585/585/585 584/584/584 586/586/586
f 571/571/571 577/577/577 587/587/587
f 587/587/587 577/577/577 585/585/585
f 576/576/576 571/571/571 587/587/587
f 588/588/588 585/585/585 586/586/586
f 587/587/587 585/585/585 588/588/588
f 588/588/588 586/586/586 589/589/589
f 576/576/576 587/587/587 590/590/590
f 590/590/590 587/587/587 588/588/588
f 591/591/591 588/588/588 589/589/589
f 590/590/590 588/588/588 591/591/591
f 591/591/591 589/589/589 592/592/592
f 593/593/593 576/576/576 590/590/590
f 568/568/568 576/576/576 593/593/593
f 575/575/575 568/568/568 593/593/593
f 594/594/594 591/591/591 592/592/592
f 594/594/594 592/592/592 595/595/595
f 596/596/596 590/590/590 591/591/591
f 593/593/593 590/590/590 596/596/596
f 596/596/596 591/591/591 594/594/594
f 575/575/575 593/593/593 597/597/597
f 597/597/597 593/593/593 596/596/596
f 598/598/598 594/594/594 595/595/595
f 598/598/598 595/595/595 599/599/599
f 600/600/600 596/596/596 594/594/594
f 597/597/597 596/596/596 600/600/600
f 600/600/600 594/594/594 598/598/598
f 601/601/601 575/575/575 597/597/597
f 564/564/564 575/575/575 601/601/601
f 574/574/574 564/564/564 601/601/601
f 602/602/602 598/598/598 599/599/599
f 602/602/602 599/599/599 603/603/603
f 604/604/604 600/600/600 598/598/598
f 604/604/604 598/598/598 602/602/602
f 605/605/605 597/597/597 600/600/600
f 601/601/601 597/597/597 605/605/605
f 605/605/605 600/600/600 604/604/604
f 574/574/574 601/601/601 606/606/606
f 606/606/606 601/601/601 605/605/605
f 607/607/607 602/602/602 603/603/603
f 607/607/607 603/603/603 608/608/608
f 609/609/609 607/607/607 608/608/608
f 610/610/610 604/604/604 602/602/602
f 610/610/610 602/602/602 607/607/607
f 611/611/611 605/605/605 604/604/604
f 606/606/606 605/605/605 611/611/611
f 611/611/611 604/604/604 610/610/610
f 612/612/612 607/607/607 609/609/609
f 612/612/612 610/610/610 607/607/607
f 613/613/613 612/612/612 609/609/609
f 614/614/614 574/574/574 606/606/606
f 559/559/559 574/574/574 614/614/614
f 615/615/615 611/611/611 610/610/610
f 615/615/615 610/610/610 612/612/612
f 616/616/616 612/612/612 613/613/613
f 616/616/616 615/615/615 612/612/612
f 617/617/617 616/616/616 613/613/613
f 618/618/618 606/606/606 611/611/611
f 618/618/618 611/611/611 615/615/615
f 614/614/614 606/606/606 618/618/618
f 619/619/619 559/559/559 614/614/614
f 545/545/545 559/559/559 619/619/619
f 532/532/532 545/545/545 619/619/619
f 620/620/620 616/616/616 617/617/617
f 519/519/519 620/620/620 617/617/617
f 518/518/518 620/620/620 519/519/519
f 621/621/621 615/615/615 616/616/616
f 621/621/621 618/618/618 615/615/615
f 620/620/620 621/621/621 616/616/616
f 622/622/622 614/614/614 618/618/618
f 619/619/619 614/614/614 622/622/622
f 622/622/622 618/618/618 621/621/621
f 532/532/532 619/619/619 623/623/623
f 623/623/623 619/619/619 622/622/622
f 521/521/521 532/532/532 623/623/623
f 521/521/521 623/623/623 520/520/520
f 520/520/520 624/624/624 518/518/518
f 518/518/518 624/624/624 620/620/620
f 624/624/624 621/621/621 620/620/620
f 624/624/624 622/622/622 621/621/621
f 623/623/623 622/622/622 624/624/624
f 520/520/520 623/623/623 624/624/624
