g shafashafa_mobile
v -1.00992732 -0.704056797 1.00717983
v -0.280385075 -0.7367463 0.900981
v -1.01323552 -0.7367463 0.922960906
v -0.277076875 -0.704056797 0.985424211
v -1.00746019 -0.594157266 1.07188598
v -0.057053528 -0.704056797 0.977125675
v -0.0477457106 -0.594157266 1.04132719
v -0.0692209761 -0.7367463 0.892906748
v 0.102861504 -0.7367463 0.821640267
v -0.274609743 -0.594157266 1.05013036
v -1.00746019 -0.271411499 1.07188598
v 0.170203003 -0.704056797 0.879954303
v 0.165268738 -0.7367463 0.655613475
v -0.274609743 -0.271411499 1.05013036
v -1.00992732 -0.161063399 1.00717983
v -0.277076875 -0.161063399 0.985424211
v -1.01323552 -0.128373895 0.922960906
v -0.280385075 -0.128373895 0.900981
v -1.0874177 -0.128373895 -0.987945229
v -0.0692209761 -0.128373895 0.892906748
v -0.057053528 -0.161063399 0.977125675
v -0.354567259 -0.128373895 -1.00970085
v -1.09066983 -0.161063399 -1.07244451
v -0.0477457106 -0.271411499 1.04132719
v 0.221788497 -0.271411499 0.924643041
v 0.170203003 -0.161063399 0.879954303
v 0.325071628 -0.271411499 0.664136296
v 0.221788497 -0.594157266 0.924643041
v 0.255767638 -0.704056797 0.660267383
v -0.357819388 -0.161063399 -1.09414406
v -1.09319304 -0.271411499 -1.13715066
v 0.325071628 -0.594157266 0.664136296
v 0.267430445 -0.594157266 -0.820236301
v 0.198631096 -0.704056797 -0.811433124
v 0.10880505 -0.7367463 -0.799489961
v 0.0336696564 -0.7367463 -0.960358203
v 0.096301175 -0.704056797 -1.02383079
v -0.14340316 -0.7367463 -1.01799939
v -0.360342591 -0.271411499 -1.15885021
v -0.13353463 -0.271411499 -1.16765339
v -1.09319304 -0.594157266 -1.13715066
v -0.360342591 -0.594157266 -1.15885021
v -1.09066983 -0.704056797 -1.07244451
v -0.137796041 -0.161063399 -1.10272295
v -0.357819388 -0.704056797 -1.09414406
v -1.0874177 -0.7367463 -0.987945229
v -0.354567259 -0.7367463 -1.00970085
v -0.137796041 -0.704056797 -1.10272295
v 0.144242042 -0.594157266 -1.07216416
v -0.13353463 -0.594157266 -1.16765339
v 0.144242042 -0.271411499 -1.07216416
v 0.096301175 -0.161063399 -1.02383079
v 0.267430445 -0.271411499 -0.820236301
v 0.198631096 -0.161063399 -0.811433124
v 0.255767638 -0.161063399 0.660267383
v 0.10880505 -0.128373895 -0.799489961
v 0.0336696564 -0.128373895 -0.960358203
v 0.102861504 -0.128373895 0.821640267
v -0.14340316 -0.128373895 -1.01799939
v 0.165268738 -0.128373895 0.655613475
v -1.59020806 -0.704056797 1.02915974
v -1.59351626 -0.7367463 0.944660456
v -1.76363625 -0.7367463 0.880963585
v -1.81813744 -0.704056797 0.941464398
v -1.86652688 -0.7367463 0.734449567
v -1.58768486 -0.594157266 1.09358554
v -1.956409 -0.704056797 0.746168446
v -1.9147481 -0.7367463 -0.768706878
v -1.85985441 -0.594157266 0.987891343
v -2.0031163 -0.704056797 -0.786032876
v -1.81651138 -0.7367463 -0.90030596
v -1.85985441 -0.271411499 0.987891343
v -1.58768486 -0.271411499 1.09358554
v -1.59020806 -0.161063399 1.02915974
v -2.02515228 -0.594157266 0.755476263
v -1.87062008 -0.704056797 -0.962825336
v -1.66769844 -0.7367463 -0.966245678
v -1.67095057 -0.704056797 -1.05068889
v -1.81813744 -0.161063399 0.941464398
v -1.59351626 -0.128373895 0.944660456
v -2.02515228 -0.271411499 0.755476263
v -2.07073815 -0.594157266 -0.799209605
v -1.91211276 -0.594157266 -1.01042978
v -1.67347378 -0.594157266 -1.11517076
v -1.67347378 -0.271411499 -1.11517076
v -2.07073815 -0.271411499 -0.799209605
v -1.91211276 -0.271411499 -1.01042978
v -1.956409 -0.161063399 0.746168446
v -1.87062008 -0.161063399 -0.962825336
v -1.67095057 -0.161063399 -1.05068889
v -2.0031163 -0.161063399 -0.786032876
v -1.76363625 -0.128373895 0.880963585
v -1.81651138 -0.128373895 -0.90030596
v -1.66769844 -0.128373895 -0.966245678
v -1.9147481 -0.128373895 -0.768706878
v -1.86652688 -0.128373895 0.734449567
v 0.232890592 -0.576719126 0.861731167
v 0.16913765 -0.67024587 0.74543952
v 0.18562258 -0.626678555 0.734225282
v 0.223470633 -0.612941114 0.890719972
v 0.309988478 -0.48969664 0.947856514
v 0.187360787 -0.730073829 0.752784846
v 0.311838827 -0.513358682 0.988620269
v 0.392525269 -0.393478479 0.968602854
v 0.247076603 -0.666993741 0.911634526
v 0.403066652 -0.406935564 1.01144124
v 1.03908215 0.369201839 0.94342689
v 0.42134586 -0.814853467 0.904849912
v 0.361686114 -0.877877484 0.746112374
v 0.423084067 -0.885951735 0.735570991
v 0.344079761 -0.557542779 1.01861835
v 1.05539887 0.362865795 0.986040994
v 1.11971252 0.465363929 0.916344505
v 0.477360978 -0.828590908 0.880795371
v 0.463062825 -0.862009337 0.723459614
v 0.510386909 -0.812330264 0.850965499
v 0.518349018 -0.705514648 1.01177767
v 0.565785244 -0.728952405 0.978695668
v 0.587484794 -0.725532062 0.937090845
v 0.441923986 -0.443325766 1.04317754
v 0.616193243 -0.591241564 1.03633685
v 0.656956998 -0.622529287 1.00157271
v 0.669965514 -0.628865332 0.957837186
v 1.27301116 0.183381918 1.01082446
v 1.30934529 0.147047787 0.976284607
v 1.3165224 0.133814986 0.932717293
v 1.0987419 0.331578071 1.017553
v 1.39849848 0.253470904 0.946510805
v 1.39715277 0.230033147 0.905578837
v 1.3686686 0.297655002 0.978863882
v 1.14455206 0.469064628 0.956379335
v 1.18189547 0.541564676 0.850404787
v 1.47004532 0.341110173 0.870590415
v 1.45933572 0.306177822 0.83969519
v 1.44744863 0.394321732 0.895373881
v 1.4875956 0.447365077 0.768821206
v 1.19439935 0.44562687 0.985536353
v 1.2160989 0.556928181 0.880458944
v 1.21155713 0.58137522 0.749644859
v 1.50565052 0.3885464 0.755139836
v 1.48899738 0.345539797 0.738935262
v 1.42204838 0.345539797 -0.985309883
v 1.2731233 0.542293601 0.902158494
v 1.2517041 0.603859767 0.765064436
v 1.43741188 0.3885464 -1.00280409
v 1.18346547 0.603859767 -0.992879493
v 1.24402235 0.595336946 -1.008243
v 1.14460813 0.58137522 -0.974600286
v 1.10720865 0.541564676 -1.0726688
v 1.31332634 0.595336946 0.775549749
v 1.13905708 0.556928181 -1.10524616
v 1.04014751 0.465363929 -1.13373032
v 1.06179099 0.469064628 -1.17533514
v 0.957610715 0.369201839 -1.15419631
v 1.39294743 0.341334458 -1.11517076
v 1.38464889 0.306177822 -1.08365875
v 1.41834768 0.447365077 -1.01497154
v 1.36844432 0.394321732 -1.13810387
v 1.19417506 0.542293601 -1.13126319
v 0.970619231 0.362865795 -1.19815612
v 0.31105383 -0.393478479 -1.1293007
v 1.3157374 0.253470904 -1.18520367
v 1.31758775 0.230033147 -1.14443992
v 1.28349647 0.297655002 -1.21525783
v 1.10922721 0.44562687 -1.20841715
v 0.318230943 -0.406935564 -1.17286801
v 0.23042346 -0.48969664 -1.10221831
v 1.22450958 0.147047787 -1.20802465
v 1.23505096 0.133814986 -1.16518626
v 1.18565224 0.183381918 -1.23976094
v 1.01138299 0.331578071 -1.23292026
v 0.229077751 -0.513358682 -1.14298207
v 0.16016626 -0.576719126 -1.0103737
v 0.572177359 -0.622529287 -1.18268047
v 0.588494075 -0.628865332 -1.14006637
v 0.52883433 -0.591241564 -1.21413641
v 0.354565073 -0.443325766 -1.20740786
v 0.148559523 -0.612941114 -1.03852144
v 0.12293499 -0.626678555 -0.87955962
v 0.483024168 -0.728952405 -1.1528506
v 0.507863705 -0.725532062 -1.11292791
v 0.433176881 -0.705514648 -1.18217583
v 0.258907624 -0.557542779 -1.17533514
v 0.105665064 -0.67024587 -0.88948422
v 0.18562258 -0.626678555 0.734225282
v 0.16913765 -0.67024587 0.74543952
v 0.40250594 -0.828590908 -1.04838997
v 0.437718647 -0.812330264 -1.02119544
v 0.344752615 -0.814853467 -1.06801489
v 0.170483359 -0.666993741 -1.0611742
v 0.123271417 -0.730073829 -0.898287397
v 0.187360787 -0.730073829 0.752784846
v 0.361686114 -0.877877484 0.746112374
v 0.297540674 -0.877877484 -0.90501594
v 0.35961148 -0.885951735 -0.899352749
v 0.400375235 -0.862009337 -0.89043743
v 0.423084067 -0.885951735 0.735570991
v 0.463062825 -0.862009337 0.723459614
v 1.14460813 0.58137522 -0.974600286
v 1.21155713 0.58137522 0.749644859
v 1.18189547 0.541564676 0.850404787
v 1.10720865 0.541564676 -1.0726688
v 1.04014751 0.465363929 -1.13373032
v 1.11971252 0.465363929 0.916344505
v 0.957610715 0.369201839 -1.15419631
v 1.03908215 0.369201839 0.94342689
v 0.31105383 -0.393478479 -1.1293007
v 0.392525269 -0.393478479 0.968602854
v 0.23042346 -0.48969664 -1.10221831
v 0.309988478 -0.48969664 0.947856514
v 0.16016626 -0.576719126 -1.0103737
v 0.232890592 -0.576719126 0.861731167
v 0.12293499 -0.626678555 -0.87955962
v 0.18562258 -0.626678555 0.734225282
v 1.45933572 0.306177822 0.83969519
v 1.48899738 0.345539797 0.738935262
v 1.42204838 0.345539797 -0.985309883
v 1.38464889 0.306177822 -1.08365875
v 1.39715277 0.230033147 0.905578837
v 1.31758775 0.230033147 -1.14443992
v 1.3165224 0.133814986 0.932717293
v 1.23505096 0.133814986 -1.16518626
v 0.669965514 -0.628865332 0.957837186
v 0.588494075 -0.628865332 -1.14006637
v 0.587484794 -0.725532062 0.937090845
v 0.507863705 -0.725532062 -1.11292791
v 0.510386909 -0.812330264 0.850965499
v 0.437718647 -0.812330264 -1.02119544
v 0.400375235 -0.862009337 -0.89043743
v 0.463062825 -0.862009337 0.723459614
v -1.66769844 -0.7367463 -0.966245678
v -1.65199851 -0.710897482 -1.0773227
v -1.67095057 -0.704056797 -1.05068889
v -1.64891459 -0.744596267 -0.990636646
v -1.0874177 -0.7367463 -0.987945229
v -1.10194014 -0.744596267 -1.01284084
v -1.09066983 -0.704056797 -1.07244451
v -1.10502406 -0.710897482 -1.0995269
v -1.09319304 -0.594157266 -1.13715066
v -1.10737905 -0.59858689 -1.16591518
v -1.09319304 -0.271411499 -1.13715066
v -1.6543535 -0.59858689 -1.14348671
v -1.67347378 -0.594157266 -1.11517076
v -1.10737905 -0.267037947 -1.16591518
v -1.09066983 -0.161063399 -1.07244451
v -1.6543535 -0.267037947 -1.14348671
v -1.67347378 -0.271411499 -1.11517076
v -1.10502406 -0.154222714 -1.0995269
v -1.0874177 -0.128373895 -0.987945229
v -1.65199851 -0.154222714 -1.0773227
v -1.67095057 -0.161063399 -1.05068889
v -1.10194014 -0.120523929 -1.01284084
v -1.01323552 -0.128373895 0.922960906
v -1.64891459 -0.120523929 -0.990636646
v -1.66769844 -0.128373895 -0.966245678
v -1.03201937 -0.120523929 0.947351873
v -1.00992732 -0.161063399 1.00717983
v -1.57893775 -0.120523929 0.969556064
v -1.59351626 -0.128373895 0.944660456
v -1.02893545 -0.154222714 1.03375758
v -1.00746019 -0.271411499 1.07188598
v -1.57585384 -0.154222714 1.05624212
v -1.59020806 -0.161063399 1.02915974
v -1.02658046 -0.267037947 1.10020194
v -1.00746019 -0.594157266 1.07188598
v -1.57349885 -0.267037947 1.12240613
v -1.58768486 -0.271411499 1.09358554
v -1.02658046 -0.59858689 1.10020194
v -1.00992732 -0.704056797 1.00717983
v -1.57349885 -0.59858689 1.12240613
v -1.58768486 -0.594157266 1.09358554
v -1.02893545 -0.710897482 1.03375758
v -1.01323552 -0.7367463 0.922960906
v -1.57585384 -0.710897482 1.05624212
v -1.59020806 -0.704056797 1.02915974
v -1.03201937 -0.744596267 0.947351873
v -1.59351626 -0.7367463 0.944660456
v -1.57893775 -0.744596267 0.969556064
v 1.15066382 0.460485736 0.704451481
v 1.11051685 0.567918135 0.584795563
v 1.16406483 0.481961001 0.580141654
v 1.09627477 0.544985018 0.716899285
v 1.10395652 0.400938133 0.808687822
v 1.05668851 0.567918135 -0.802405663
v 1.11040471 0.481961001 -0.801676738
v 1.04553034 0.480054581 0.830387372
v 1.03067147 0.311112087 0.880458944
v 1.03224147 0.544985018 -0.932995463
v 1.08741552 0.460485736 -0.924696927
v 0.965965322 0.382378569 0.908045969
v 0.940172575 0.203175048 0.908270254
v 0.972862079 0.480054581 -1.04216607
v 1.03274611 0.400938133 -1.02528864
v 0.869747161 0.267656915 0.937819771
v 0.632229603 -0.160110189 0.920493773
v 0.887521728 0.382378569 -1.11343255
v 0.954134301 0.311112087 -1.09072372
v 0.557935277 -0.100057945 0.95004329
v 0.539768212 -0.267991157 0.899523149
v 0.789228933 0.267656915 -1.13563674
v 0.861728981 0.203175048 -1.11175041
v 0.459642482 -0.214779598 0.927839099
v 0.461212476 -0.357873273 0.833807715
v 0.477417049 -0.100057945 -1.12369358
v 0.553786009 -0.160110189 -1.10003154
v 0.374358203 -0.311950969 0.856516546
v 0.406543066 -0.417420877 0.733496357
v 0.381198888 -0.214779598 -1.09363942
v 0.46328711 -0.267991157 -1.07171559
v 0.314922742 -0.376881407 0.747402012
v 0.383553878 -0.438896142 0.610420096
v 0.301633871 -0.311950969 -1.01603689
v 0.390002065 -0.357873273 -1.00039303
v 0.290475704 -0.399870594 0.61675614
v 0.32989375 -0.438896142 -0.77162258
v 0.250889444 -0.376881407 -0.902773092
v 0.343294764 -0.417420877 -0.895932407
v 0.236647362 -0.399870594 -0.77066937
v 0.283298592 0.0645109962 -1.11612397
v 0.187024359 -0.0502106573 -1.08606981
v 0.107515413 -0.147382029 -1.00869157
v 0.0567149153 -0.212368537 -0.895203481
v 0.0424728332 -0.235301653 -0.763099759
v 0.0963572462 -0.235301653 0.624325751
v 0.595110476 0.432674426 -1.12806713
v 0.120804285 -0.212368537 0.754747338
v 0.6933472 0.547396079 -1.10586294
v 0.180183674 -0.147382029 0.864086157
v 0.77868755 0.64456745 -1.03459646
v 0.265524025 -0.0502106573 0.935128354
v 0.838123011 0.709553959 -0.925425853
v 0.36381682 0.0645109962 0.957612901
v 0.862570049 0.732487075 -0.794836052
v 0.675628704 0.432674426 0.945389382
v 0.916398391 0.732487075 0.592365173
v 0.771846865 0.547396079 0.91561558
v 0.902156309 0.709553959 0.724468895
v 0.851411883 0.64456745 0.837956983
v 0.746502687 0.749588788 -0.911520198
v 0.769491875 0.771512623 -0.788500008
v 0.823152003 0.771512623 0.593374455
v 0.809750989 0.749588788 0.71762821
v 0.763043688 0.689985114 0.822369192
v 0.689758643 0.600663709 0.893635674
v 0.65611593 0.681181937 0.761083382
v 0.689254003 0.723179258 0.687069412
v 0.699795386 0.73977633 0.589169115
v 0.646808112 0.73977633 -0.774818638
v 0.599259744 0.49272667 0.92172734
v 0.604194008 0.617709351 0.811603524
v 0.291316772 0.129441434 0.933670503
v 0.532983598 0.532761499 0.833807715
v 0.19885538 0.0215604651 0.912699878
v 0.238217355 0.184615484 0.845302308
v 0.120299644 -0.0683216515 0.8472648
v 0.165493023 0.100172273 0.828705236
v 0.109814332 0.0366996862 0.782334363
v 0.0656302344 -0.128373895 0.746673086
v 0.0710691398 -0.00630691601 0.71101181
v 0.0426410467 -0.14934452 0.623596826
v 0.0529581456 -0.0229039881 0.614345079
v -0.0110190815 -0.14934452 -0.758221566
v 2.69428019E-05 -0.0229039881 -0.74992303
v 0.00238193276 -0.128373895 -0.882755677
v 0.0105683264 -0.00630691601 -0.847599042
v 0.0490892335 -0.0683216515 -0.987216303
v 0.122374278 0.0215604651 -1.05848278
v 0.628697118 0.723179258 -0.871485368
v 0.589951926 0.681181937 -0.942807921
v 0.0436503281 0.0366996862 -0.921781225
v 0.212873178 0.129441434 -1.08685481
v 0.0955722495 0.100172273 -0.972077082
v 0.52081615 0.49272667 -1.09857369
v 0.16678266 0.184615484 -0.994561629
v 0.613277541 0.600663709 -1.07754699
v 0.461548903 0.532761499 -1.00577587
v 0.691833278 0.689985114 -1.01211191
v 0.534273235 0.617709351 -0.989178795
v 0.980543832 -1.08147197 0.868235425
v 1.08696695 -1.04681998 0.685611561
v 1.03459646 -1.08147197 0.682695859
v 1.02506436 -1.04681998 0.895598165
v 0.780033258 -1.08147197 1.01228231
v 1.00801871 -1.04681998 -0.973534933
v 0.957835 -1.08147197 -0.958900353
v 0.794779981 -1.04681998 1.06235388
v -1.77260764 -1.08147197 1.11141617
v 0.841262997 -1.04681998 -1.20376324
v 0.813956328 -1.08147197 -1.1590745
v -1.78337331 -1.04681998 1.16266524
v -1.9836596 -1.08147197 0.983461719
v 0.631276393 -1.04681998 -1.26555369
v 0.628192478 -1.08147197 -1.21329534
v -2.02593727 -1.04681998 1.0142448
v -2.05189823 -1.08147197 0.802351777
v -1.80086752 -1.04681998 -1.17129802
v -1.79374648 -1.08147197 -1.11932003
v -2.1039323 -1.04681998 0.809641032
v -2.10264266 -1.08147197 -0.840029431
v -2.00541522 -1.04681998 -1.09319085
v -1.97474428 -1.08147197 -1.05096925
v -2.15383566 -1.04681998 -0.850739028
v 0.632229603 -1.00140231 -1.28114148
v -1.80299822 -1.00140231 -1.18666152
v -2.01449875 -1.00140231 -1.10586294
v -2.16897488 -1.00140231 -0.853935086
v -2.1192958 -1.00140231 0.811603524
v -2.03844115 -1.00140231 1.02304798
v 0.849337249 -1.00140231 -1.21693997
v -1.78656936 -1.00140231 1.17780446
v 1.02287758 -1.00140231 -0.977964557
v 0.799153534 -1.00140231 1.07721275
v 1.10249867 -1.00140231 0.686620842
v 1.03824109 -1.00140231 0.903672417
v -2.1192958 -0.804648511 0.811603524
v -2.03844115 -0.804648511 1.02304798
v -1.78656936 -0.804648511 1.17780446
v 0.799153534 -0.804648511 1.07721275
v 1.03824109 -0.804648511 0.903672417
v 1.10249867 -0.804648511 0.686620842
v -2.16897488 -0.804648511 -0.853935086
v 1.02287758 -0.804648511 -0.977964557
v -2.01449875 -0.804648511 -1.10586294
v 0.849337249 -0.804648511 -1.21693997
v -1.80299822 -0.804648511 -1.18666152
v 0.632229603 -0.804648511 -1.28114148
v -2.1039323 -0.759230847 0.809641032
v -2.15383566 -0.759230847 -0.850739028
v -2.00541522 -0.759230847 -1.09319085
v -1.80086752 -0.759230847 -1.17129802
v 0.631276393 -0.759230847 -1.26555369
v 0.841262997 -0.759230847 -1.20376324
v -2.02593727 -0.759230847 1.0142448
v 1.00801871 -0.759230847 -0.973534933
v -1.78337331 -0.759230847 1.16266524
v 1.08696695 -0.759230847 0.685611561
v 0.794779981 -0.759230847 1.06235388
v 1.02506436 -0.759230847 0.895598165
v -1.99661204 -0.726989913 0.992769537
v -1.77591584 -0.726989913 1.12706004
v 0.784575025 -0.726989913 1.02764582
v 0.994225202 -0.726989913 0.876533961
v 1.05063282 -0.726989913 0.683424785
v 0.973254577 -0.726989913 -0.963273905
v 0.242478766 -0.746054118 0.754915551
v -1.59777767 -0.746054118 0.854497984
v 0.242478766 -0.746054118 0.58042201
v 0.242478766 -0.746054118 -0.827525556
v -1.77109372 -0.746054118 0.831620938
v 0.242478766 -0.746054118 -0.973422791
v 0.822310935 -0.726989913 -1.17275587
v -2.06787852 -0.726989913 0.804538554
v -1.82727705 -0.746054118 0.682191219
v 0.629145688 -0.726989913 -1.22938777
v -1.61689795 -0.746054118 -0.880568901
v -2.11834259 -0.726989913 -0.843169418
v -1.87112472 -0.746054118 -0.726485273
v -1.79593325 -0.726989913 -1.13518817
v -1.76643981 -0.746054118 -0.899577034
v -1.98410816 -0.726989913 -1.06386562
vt 0.875681432 0.561149206
vt 0.84858937 0.551898258
vt 0.874359868 0.564453116
vt 0.850571716 0.54925513
vt 0.87832456 0.557184514
vt 0.843303114 0.543308093
vt 0.846607024 0.541325747
vt 0.840659986 0.544629657
vt 0.833391385 0.536700273
vt 0.853875626 0.545951221
vt 0.885593161 0.545951221
vt 0.836034513 0.535378709
vt 0.826783565 0.526127761
vt 0.86180501 0.538021837
vt 0.888897071 0.540664965
vt 0.864448138 0.534057145
vt 0.890879417 0.537361055
vt 0.865769702 0.531414017
vt 0.890879417 0.460710344
vt 0.859161882 0.530092453
vt 0.857840318 0.532074799
vt 0.867752048 0.466657382
vt 0.888897071 0.456745652
vt 0.85519719 0.534717927
vt 0.847928588 0.529431671
vt 0.851232498 0.528110107
vt 0.844624678 0.522163069
vt 0.839338422 0.533396363
vt 0.830087475 0.525466979
vt 0.865769702 0.463353472
vt 0.886914725 0.452120179
vt 0.834052167 0.524806197
vt 0.836034513 0.471943638
vt 0.832069821 0.470622074
vt 0.828765911 0.469961292
vt 0.834712949 0.460049562
vt 0.837356076 0.461371126
vt 0.84198155 0.452120179
vt 0.863787356 0.45938878
vt 0.857179536 0.46269269
vt 0.879646124 0.440886885
vt 0.855857972 0.450798615
vt 0.877002996 0.436261411
vt 0.859161882 0.465335818
vt 0.852554062 0.447494705
vt 0.875681432 0.433618283
vt 0.850571716 0.445512359
vt 0.844624678 0.453441742
vt 0.841320768 0.463353472
vt 0.84858937 0.455424088
vt 0.849910934 0.467318164
vt 0.853214844 0.46930051
vt 0.845946242 0.474586766
vt 0.849910934 0.475247548
vt 0.84858937 0.521502287
vt 0.853214844 0.475247548
vt 0.855857972 0.470622074
vt 0.853875626 0.526788543
vt 0.861144228 0.467318164
vt 0.85189328 0.521502287
vt 0.972816384 0.393310582
vt 0.976120294 0.391989018
vt 0.977441858 0.384720416
vt 0.97479873 0.384720416
vt 0.980084985 0.37613025
vt 0.967530128 0.393971364
vt 0.976781076 0.37613025
vt 0.980084985 0.321285345
vt 0.970173256 0.384720416
vt 0.976781076 0.320624563
vt 0.977441858 0.312695179
vt 0.958939962 0.38273807
vt 0.954314488 0.390667454
vt 0.949689014 0.386702762
vt 0.972816384 0.375469468
vt 0.97479873 0.312695179
vt 0.976781076 0.30608736
vt 0.973477166 0.304765796
vt 0.95497527 0.381416506
vt 0.946385104 0.383398852
vt 0.962243872 0.374808686
vt 0.972816384 0.321285345
vt 0.970173256 0.312695179
vt 0.96819091 0.304105014
vt 0.95497527 0.307408924
vt 0.96158309 0.321946127
vt 0.95827918 0.314677525
vt 0.95827918 0.374147904
vt 0.954314488 0.316659871
vt 0.949689014 0.311373615
vt 0.957618398 0.322606909
vt 0.95167136 0.380094942
vt 0.95167136 0.317981435
vt 0.946385104 0.314677525
vt 0.95497527 0.322606909
vt 0.95497527 0.374147904
vt 0.806960105 0.314677525
vt 0.807620887 0.307408924
vt 0.806299323 0.308069706
vt 0.808281669 0.314016743
vt 0.806960105 0.319302999
vt 0.810264015 0.306748142
vt 0.808281669 0.318642217
vt 0.806299323 0.323928473
vt 0.810264015 0.314016743
vt 0.808281669 0.323928473
vt 0.806299323 0.358289136
vt 0.818193399 0.314016743
vt 0.818193399 0.306748142
vt 0.820836527 0.307408924
vt 0.810264015 0.318642217
vt 0.808281669 0.358289136
vt 0.806960105 0.363575392
vt 0.820175745 0.314016743
vt 0.822158091 0.307408924
vt 0.821497309 0.314016743
vt 0.818193399 0.318642217
vt 0.820175745 0.318642217
vt 0.821497309 0.318642217
vt 0.810264015 0.323928473
vt 0.818193399 0.323928473
vt 0.820175745 0.323928473
vt 0.822158091 0.323928473
vt 0.818193399 0.358289136
vt 0.820175745 0.358289136
vt 0.822158091 0.358289136
vt 0.810264015 0.358289136
vt 0.820175745 0.363575392
vt 0.822158091 0.363575392
vt 0.818193399 0.363575392
vt 0.808281669 0.363575392
vt 0.806960105 0.368200866
vt 0.820175745 0.368200866
vt 0.822158091 0.368200866
vt 0.818193399 0.368200866
vt 0.818193399 0.37282634
vt 0.810264015 0.363575392
vt 0.808281669 0.368200866
vt 0.806960105 0.37282634
vt 0.820175745 0.37282634
vt 0.822158091 0.37282634
vt 0.822158091 0.434279065
vt 0.810264015 0.368200866
vt 0.808281669 0.37282634
vt 0.820175745 0.433618283
vt 0.808281669 0.433618283
vt 0.810924797 0.433618283
vt 0.806960105 0.434279065
vt 0.806960105 0.438904539
vt 0.810264015 0.37282634
vt 0.808281669 0.438243757
vt 0.806960105 0.443530013
vt 0.808281669 0.443530013
vt 0.806960105 0.448155487
vt 0.820175745 0.438243757
vt 0.822158091 0.438904539
vt 0.818193399 0.433618283
vt 0.818193399 0.438243757
vt 0.810924797 0.438243757
vt 0.808281669 0.448155487
vt 0.806960105 0.483176932
vt 0.820175745 0.443530013
vt 0.822158091 0.443530013
vt 0.818193399 0.443530013
vt 0.810924797 0.443530013
vt 0.808281669 0.483176932
vt 0.806960105 0.487802406
vt 0.820836527 0.448155487
vt 0.822158091 0.448155487
vt 0.818193399 0.448155487
vt 0.810264015 0.448155487
vt 0.808281669 0.487802406
vt 0.806960105 0.49242788
vt 0.820836527 0.48251615
vt 0.822158091 0.48251615
vt 0.818193399 0.48251615
vt 0.810924797 0.483176932
vt 0.808281669 0.49242788
vt 0.806960105 0.499696482
vt 0.820836527 0.487802406
vt 0.822158091 0.487802406
vt 0.818193399 0.487802406
vt 0.810924797 0.487802406
vt 0.808281669 0.499696482
vt 0.806960105 0.553219822
vt 0.808281669 0.553219822
vt 0.820836527 0.49242788
vt 0.822158091 0.49242788
vt 0.818193399 0.49242788
vt 0.810924797 0.49242788
vt 0.810924797 0.499696482
vt 0.810924797 0.553880604
vt 0.818854181 0.553219822
vt 0.818193399 0.499696482
vt 0.820836527 0.499696482
vt 0.822158091 0.499696482
vt 0.820836527 0.553219822
vt 0.822818873 0.553219822
vt 0.94175963 0.633835225
vt 0.94175963 0.575025628
vt 0.939116502 0.571721718
vt 0.939116502 0.637139135
vt 0.935812592 0.639782263
vt 0.935812592 0.569739372
vt 0.931847901 0.640443045
vt 0.931847901 0.56907859
vt 0.897487237 0.640443045
vt 0.897487237 0.56907859
vt 0.893522545 0.639782263
vt 0.893522545 0.569739372
vt 0.890218635 0.637139135
vt 0.890218635 0.571721718
vt 0.887575507 0.631852879
vt 0.887575507 0.577007974
vt 0.923918517 0.497053354
vt 0.921936171 0.500357264
vt 0.921936171 0.55916686
vt 0.923918517 0.56247077
vt 0.927222427 0.495071008
vt 0.927222427 0.564453116
vt 0.931847901 0.493749444
vt 0.931847901 0.565113898
vt 0.965547782 0.493749444
vt 0.965547782 0.565113898
vt 0.970173256 0.495071008
vt 0.970173256 0.564453116
vt 0.973477166 0.497053354
vt 0.973477166 0.56247077
vt 0.976120294 0.557184514
vt 0.976120294 0.502339609
vt 0.915328351 0.433618283
vt 0.914667569 0.437582975
vt 0.915989133 0.436922193
vt 0.914667569 0.434279065
vt 0.895504891 0.433618283
vt 0.896165673 0.434939847
vt 0.895504891 0.437582975
vt 0.896165673 0.437582975
vt 0.895504891 0.442208449
vt 0.896165673 0.442208449
vt 0.895504891 0.453441742
vt 0.915328351 0.441547667
vt 0.915989133 0.441547667
vt 0.896826455 0.453441742
vt 0.896165673 0.458067216
vt 0.915328351 0.452780961
vt 0.916649915 0.453441742
vt 0.896826455 0.457406434
vt 0.896165673 0.461371126
vt 0.915328351 0.457406434
vt 0.916649915 0.458067216
vt 0.896826455 0.460710344
vt 0.895504891 0.526788543
vt 0.915328351 0.460710344
vt 0.915989133 0.461371126
vt 0.896165673 0.527449325
vt 0.895504891 0.530092453
vt 0.915328351 0.527449325
vt 0.915328351 0.526788543
vt 0.896826455 0.530753235
vt 0.895504891 0.535378709
vt 0.915328351 0.530753235
vt 0.915989133 0.530092453
vt 0.896826455 0.535378709
vt 0.895504891 0.546612003
vt 0.915328351 0.534717927
vt 0.915989133 0.534717927
vt 0.896826455 0.546612003
vt 0.896165673 0.551237476
vt 0.915328351 0.545951221
vt 0.916649915 0.545951221
vt 0.896826455 0.550576694
vt 0.896165673 0.554541386
vt 0.915328351 0.550576694
vt 0.916649915 0.550576694
vt 0.896826455 0.553880604
vt 0.915989133 0.554541386
vt 0.915989133 0.553219822
vt 0.873038304 0.57568641
vt 0.873699086 0.58229423
vt 0.877002996 0.580972666
vt 0.870395176 0.577007974
vt 0.86841283 0.570400154
vt 0.873699086 0.637139135
vt 0.877002996 0.637799917
vt 0.865769702 0.5723825
vt 0.86180501 0.56577468
vt 0.870395176 0.641764609
vt 0.873038304 0.643746955
vt 0.860483446 0.568417808
vt 0.854536408 0.563131552
vt 0.865769702 0.647050864
vt 0.86841283 0.64903321
vt 0.853875626 0.56577468
vt 0.830748257 0.56247077
vt 0.860483446 0.650354774
vt 0.862465792 0.652997902
vt 0.831409039 0.56577468
vt 0.823479655 0.56577468
vt 0.853875626 0.653658684
vt 0.85519719 0.656301812
vt 0.825462001 0.568417808
vt 0.817532617 0.570400154
vt 0.832069821 0.652997902
vt 0.830748257 0.656301812
vt 0.819514963 0.5723825
vt 0.812907143 0.57568641
vt 0.825462001 0.650354774
vt 0.823479655 0.652997902
vt 0.815550271 0.577007974
vt 0.808942451 0.581633448
vt 0.819514963 0.646390082
vt 0.817532617 0.64903321
vt 0.812246361 0.58229423
vt 0.808942451 0.637799917
vt 0.815550271 0.641764609
vt 0.812907143 0.643746955
vt 0.812246361 0.637139135
vt 0.834052167 0.646390082
vt 0.829426693 0.644407737
vt 0.824801219 0.641764609
vt 0.822158091 0.637799917
vt 0.820175745 0.633835225
vt 0.819514963 0.584937358
vt 0.85189328 0.6457293
vt 0.822158091 0.580972666
vt 0.856518754 0.644407737
vt 0.824801219 0.577668756
vt 0.861144228 0.641103827
vt 0.828765911 0.575025628
vt 0.864448138 0.637799917
vt 0.834052167 0.573043282
vt 0.865769702 0.633835225
vt 0.85189328 0.573043282
vt 0.865769702 0.584937358
vt 0.856518754 0.575025628
vt 0.863787356 0.580972666
vt 0.860483446 0.577668756
vt 0.861144228 0.636478353
vt 0.863126574 0.633174443
vt 0.862465792 0.586258922
vt 0.861144228 0.58229423
vt 0.8585011 0.579651102
vt 0.85519719 0.577007974
vt 0.855857972 0.581633448
vt 0.857840318 0.583615794
vt 0.8585011 0.586919704
vt 0.8585011 0.632513661
vt 0.850571716 0.57568641
vt 0.853214844 0.580311884
vt 0.834712949 0.576347192
vt 0.849910934 0.579651102
vt 0.830748257 0.577007974
vt 0.835373731 0.579651102
vt 0.826783565 0.579651102
vt 0.832069821 0.580311884
vt 0.829426693 0.581633448
vt 0.824140437 0.58229423
vt 0.828105129 0.584276576
vt 0.822818873 0.586258922
vt 0.826783565 0.586919704
vt 0.823479655 0.633174443
vt 0.827444347 0.632513661
vt 0.824801219 0.636478353
vt 0.828105129 0.635156789
vt 0.827444347 0.639782263
vt 0.830748257 0.641764609
vt 0.857840318 0.635156789
vt 0.856518754 0.637139135
vt 0.830087475 0.637139135
vt 0.834712949 0.643086173
vt 0.832069821 0.639121481
vt 0.851232498 0.643086173
vt 0.836034513 0.639782263
vt 0.85519719 0.641764609
vt 0.850571716 0.639121481
vt 0.859161882 0.639782263
vt 0.853875626 0.638460699
vt 0.835373731 0.310712833
vt 0.846607024 0.30608736
vt 0.846607024 0.304105014
vt 0.837356076 0.311373615
vt 0.826783565 0.323267691
vt 0.908059749 0.306748142
vt 0.908059749 0.304765796
vt 0.829426693 0.323267691
vt 0.826783565 0.414455605
vt 0.919293043 0.315338307
vt 0.920614607 0.313355961
vt 0.829426693 0.414455605
vt 0.835373731 0.427010463
vt 0.924579299 0.324589255
vt 0.926561645 0.324589255
vt 0.836695294 0.425688899
vt 0.845946242 0.433618283
vt 0.924579299 0.413134041
vt 0.926561645 0.413134041
vt 0.846607024 0.431635937
vt 0.908059749 0.432957501
vt 0.919293043 0.423045771
vt 0.919953825 0.424367335
vt 0.907398967 0.430975155
vt 0.923257735 0.324589255
vt 0.923257735 0.413134041
vt 0.917971479 0.421724207
vt 0.907398967 0.428992809
vt 0.846607024 0.429653591
vt 0.838016858 0.425028117
vt 0.917971479 0.315999089
vt 0.830748257 0.414455605
vt 0.907398967 0.308730488
vt 0.830748257 0.323267691
vt 0.846607024 0.308069706
vt 0.838016858 0.312695179
vt 0.84858937 0.423045771
vt 0.84198155 0.420402643
vt 0.837356076 0.413134041
vt 0.837356076 0.324589255
vt 0.84198155 0.317320653
vt 0.84858937 0.314016743
vt 0.906077403 0.423045771
vt 0.906077403 0.314677525
vt 0.913346005 0.417759515
vt 0.913346005 0.319963781
vt 0.916649915 0.411812477
vt 0.916649915 0.325910819
vt 0.84858937 0.421724207
vt 0.905416621 0.421724207
vt 0.912685223 0.417098733
vt 0.914667569 0.411151695
vt 0.914667569 0.326571601
vt 0.912024441 0.320624563
vt 0.843303114 0.419081079
vt 0.905416621 0.316659871
vt 0.83867764 0.412473259
vt 0.84858937 0.315999089
vt 0.83867764 0.324589255
vt 0.843303114 0.317981435
vt 0.843963896 0.417759515
vt 0.840659986 0.412473259
vt 0.840659986 0.325250037
vt 0.843963896 0.319302999
vt 0.849250152 0.317320653
vt 0.904755839 0.317981435
vt 0.847928588 0.329214729
vt 0.846607024 0.405865439
vt 0.853214844 0.325910819
vt 0.900791147 0.326571601
vt 0.849250152 0.410490913
vt 0.906077403 0.330536293
vt 0.911363659 0.321946127
vt 0.849250152 0.420402643
vt 0.853214844 0.411812477
vt 0.913346005 0.326571601
vt 0.906738185 0.405204657
vt 0.904755839 0.419741861
vt 0.900791147 0.411812477
vt 0.913346005 0.411151695
vt 0.905416621 0.409169349
vt 0.911363659 0.415777169
g shafashafa_mobile_0
f 3/3/3 2/2/2 1/1/1
f 2/2/2 4/4/4 1/1/1
f 1/1/1 4/4/4 5/5/5
f 4/4/4 2/2/2 6/6/6
f 4/4/4 6/6/6 7/7/7
f 2/2/2 8/8/8 6/6/6
f 8/8/8 9/9/9 6/6/6
f 4/4/4 10/10/10 5/5/5
f 10/10/10 4/4/4 7/7/7
f 5/5/5 10/10/10 11/11/11
f 9/9/9 12/12/12 6/6/6
f 6/6/6 12/12/12 7/7/7
f 9/9/9 13/13/13 12/12/12
f 10/10/10 14/14/14 11/11/11
f 14/14/14 10/10/10 7/7/7
f 11/11/11 14/14/14 15/15/15
f 14/14/14 16/16/16 15/15/15
f 15/15/15 16/16/16 17/17/17
f 16/16/16 18/18/18 17/17/17
f 17/17/17 18/18/18 19/19/19
f 18/18/18 16/16/16 20/20/20
f 16/16/16 21/21/21 20/20/20
f 16/16/16 14/14/14 21/21/21
f 22/22/22 18/18/18 20/20/20
f 18/18/18 22/22/22 19/19/19
f 19/19/19 22/22/22 23/23/23
f 24/24/24 14/14/14 7/7/7
f 14/14/14 24/24/24 21/21/21
f 24/24/24 7/7/7 25/25/25
f 24/24/24 25/25/25 21/21/21
f 21/21/21 26/26/26 20/20/20
f 25/25/25 26/26/26 21/21/21
f 25/25/25 27/27/27 26/26/26
f 7/7/7 28/28/28 25/25/25
f 27/27/27 25/25/25 28/28/28
f 12/12/12 28/28/28 7/7/7
f 12/12/12 29/29/29 28/28/28
f 13/13/13 29/29/29 12/12/12
f 22/22/22 30/30/30 23/23/23
f 23/23/23 30/30/30 31/31/31
f 32/32/32 27/27/27 28/28/28
f 29/29/29 32/32/32 28/28/28
f 32/32/32 29/29/29 33/33/33
f 27/27/27 32/32/32 33/33/33
f 29/29/29 13/13/13 34/34/34
f 29/29/29 34/34/34 33/33/33
f 13/13/13 35/35/35 34/34/34
f 35/35/35 36/36/36 34/34/34
f 36/36/36 37/37/37 34/34/34
f 34/34/34 37/37/37 33/33/33
f 36/36/36 38/38/38 37/37/37
f 30/30/30 39/39/39 31/31/31
f 39/39/39 30/30/30 40/40/40
f 41/41/41 31/31/31 39/39/39
f 42/42/42 41/41/41 39/39/39
f 39/39/39 40/40/40 42/42/42
f 43/43/43 41/41/41 42/42/42
f 30/30/30 44/44/44 40/40/40
f 30/30/30 22/22/22 44/44/44
f 45/45/45 43/43/43 42/42/42
f 46/46/46 43/43/43 45/45/45
f 47/47/47 46/46/46 45/45/45
f 38/38/38 47/47/47 45/45/45
f 48/48/48 38/38/38 45/45/45
f 38/38/38 48/48/48 37/37/37
f 48/48/48 45/45/45 42/42/42
f 37/37/37 48/48/48 49/49/49
f 37/37/37 49/49/49 33/33/33
f 50/50/50 48/48/48 42/42/42
f 40/40/40 50/50/50 42/42/42
f 48/48/48 50/50/50 49/49/49
f 50/50/50 40/40/40 49/49/49
f 33/33/33 49/49/49 51/51/51
f 40/40/40 51/51/51 49/49/49
f 40/40/40 44/44/44 52/52/52
f 51/51/51 40/40/40 52/52/52
f 53/53/53 33/33/33 51/51/51
f 53/53/53 27/27/27 33/33/33
f 53/53/53 51/51/51 54/54/54
f 53/53/53 54/54/54 27/27/27
f 51/51/51 52/52/52 54/54/54
f 54/54/54 55/55/55 27/27/27
f 27/27/27 55/55/55 26/26/26
f 54/54/54 52/52/52 56/56/56
f 54/54/54 56/56/56 55/55/55
f 52/52/52 44/44/44 57/57/57
f 52/52/52 57/57/57 56/56/56
f 26/26/26 55/55/55 58/58/58
f 26/26/26 58/58/58 20/20/20
f 20/20/20 56/56/56 57/57/57
f 44/44/44 59/59/59 57/57/57
f 57/57/57 59/59/59 20/20/20
f 22/22/22 59/59/59 44/44/44
f 59/59/59 22/22/22 20/20/20
f 55/55/55 60/60/60 58/58/58
f 56/56/56 60/60/60 55/55/55
f 20/20/20 60/60/60 56/56/56
f 20/20/20 58/58/58 60/60/60
f 63/63/63 62/62/62 61/61/61
f 64/64/64 63/63/63 61/61/61
f 63/63/63 64/64/64 65/65/65
f 64/64/64 61/61/61 66/66/66
f 64/64/64 67/67/67 65/65/65
f 68/68/68 65/65/65 67/67/67
f 69/69/69 64/64/64 66/66/66
f 64/64/64 69/69/69 67/67/67
f 70/70/70 68/68/68 67/67/67
f 68/68/68 70/70/70 71/71/71
f 72/72/72 69/69/69 66/66/66
f 73/73/73 72/72/72 66/66/66
f 72/72/72 73/73/73 74/74/74
f 69/69/69 75/75/75 67/67/67
f 70/70/70 67/67/67 75/75/75
f 70/70/70 76/76/76 71/71/71
f 77/77/77 71/71/71 76/76/76
f 78/78/78 77/77/77 76/76/76
f 79/79/79 72/72/72 74/74/74
f 79/79/79 74/74/74 80/80/80
f 72/72/72 81/81/81 69/69/69
f 81/81/81 75/75/75 69/69/69
f 81/81/81 72/72/72 79/79/79
f 70/70/70 82/82/82 76/76/76
f 82/82/82 70/70/70 75/75/75
f 78/78/78 76/76/76 83/83/83
f 82/82/82 83/83/83 76/76/76
f 84/84/84 78/78/78 83/83/83
f 85/85/85 84/84/84 83/83/83
f 81/81/81 86/86/86 75/75/75
f 86/86/86 82/82/82 75/75/75
f 83/83/83 82/82/82 87/87/87
f 87/87/87 85/85/85 83/83/83
f 82/82/82 86/86/86 87/87/87
f 88/88/88 81/81/81 79/79/79
f 86/86/86 81/81/81 88/88/88
f 87/87/87 89/89/89 85/85/85
f 89/89/89 90/90/90 85/85/85
f 87/87/87 86/86/86 91/91/91
f 91/91/91 86/86/86 88/88/88
f 89/89/89 87/87/87 91/91/91
f 88/88/88 79/79/79 92/92/92
f 92/92/92 79/79/79 80/80/80
f 89/89/89 93/93/93 90/90/90
f 93/93/93 92/92/92 80/80/80
f 93/93/93 94/94/94 90/90/90
f 94/94/94 93/93/93 80/80/80
f 93/93/93 89/89/89 95/95/95
f 89/89/89 91/91/91 95/95/95
f 93/93/93 95/95/95 92/92/92
f 96/96/96 88/88/88 92/92/92
f 91/91/91 88/88/88 96/96/96
f 95/95/95 91/91/91 96/96/96
f 95/95/95 96/96/96 92/92/92
f 99/99/99 98/98/98 97/97/97
f 98/98/98 100/100/100 97/97/97
f 97/97/97 100/100/100 101/101/101
f 98/98/98 102/102/102 100/100/100
f 100/100/100 103/103/103 101/101/101
f 101/101/101 103/103/103 104/104/104
f 102/102/102 105/105/105 100/100/100
f 100/100/100 105/105/105 103/103/103
f 103/103/103 106/106/106 104/104/104
f 104/104/104 106/106/106 107/107/107
f 105/105/105 102/102/102 108/108/108
f 102/102/102 109/109/109 108/108/108
f 108/108/108 109/109/109 110/110/110
f 105/105/105 111/111/111 103/103/103
f 103/103/103 111/111/111 106/106/106
f 106/106/106 112/112/112 107/107/107
f 107/107/107 112/112/112 113/113/113
f 114/114/114 108/108/108 110/110/110
f 114/114/114 110/110/110 115/115/115
f 116/116/116 114/114/114 115/115/115
f 105/105/105 108/108/108 117/117/117
f 117/117/117 108/108/108 114/114/114
f 111/111/111 105/105/105 117/117/117
f 118/118/118 114/114/114 116/116/116
f 118/118/118 117/117/117 114/114/114
f 119/119/119 118/118/118 116/116/116
f 111/111/111 120/120/120 106/106/106
f 106/106/106 120/120/120 112/112/112
f 111/111/111 117/117/117 121/121/121
f 121/121/121 117/117/117 118/118/118
f 120/120/120 111/111/111 121/121/121
f 122/122/122 118/118/118 119/119/119
f 122/122/122 121/121/121 118/118/118
f 123/123/123 122/122/122 119/119/119
f 120/120/120 121/121/121 124/124/124
f 121/121/121 122/122/122 124/124/124
f 122/122/122 123/123/123 125/125/125
f 122/122/122 125/125/125 124/124/124
f 123/123/123 126/126/126 125/125/125
f 120/120/120 127/127/127 112/112/112
f 127/127/127 120/120/120 124/124/124
f 128/128/128 125/125/125 126/126/126
f 129/129/129 128/128/128 126/126/126
f 130/130/130 124/124/124 125/125/125
f 124/124/124 130/130/130 127/127/127
f 128/128/128 130/130/130 125/125/125
f 112/112/112 127/127/127 131/131/131
f 112/112/112 131/131/131 113/113/113
f 113/113/113 131/131/131 132/132/132
f 133/133/133 128/128/128 129/129/129
f 134/134/134 133/133/133 129/129/129
f 135/135/135 130/130/130 128/128/128
f 133/133/133 135/135/135 128/128/128
f 136/136/136 135/135/135 133/133/133
f 130/130/130 137/137/137 127/127/127
f 127/127/127 137/137/137 131/131/131
f 130/130/130 135/135/135 137/137/137
f 131/131/131 138/138/138 132/132/132
f 131/131/131 137/137/137 138/138/138
f 132/132/132 138/138/138 139/139/139
f 140/140/140 133/133/133 134/134/134
f 140/140/140 136/136/136 133/133/133
f 141/141/141 140/140/140 134/134/134
f 141/141/141 142/142/142 140/140/140
f 135/135/135 143/143/143 137/137/137
f 137/137/137 143/143/143 138/138/138
f 135/135/135 136/136/136 143/143/143
f 138/138/138 144/144/144 139/139/139
f 138/138/138 143/143/143 144/144/144
f 142/142/142 145/145/145 140/140/140
f 140/140/140 145/145/145 136/136/136
f 144/144/144 146/146/146 139/139/139
f 147/147/147 146/146/146 144/144/144
f 146/146/146 148/148/148 139/139/139
f 148/148/148 146/146/146 149/149/149
f 143/143/143 150/150/150 144/144/144
f 136/136/136 150/150/150 143/143/143
f 150/150/150 147/147/147 144/144/144
f 150/150/150 136/136/136 147/147/147
f 146/146/146 151/151/151 149/149/149
f 146/146/146 147/147/147 151/151/151
f 149/149/149 151/151/151 152/152/152
f 151/151/151 153/153/153 152/152/152
f 152/152/152 153/153/153 154/154/154
f 155/155/155 145/145/145 142/142/142
f 156/156/156 155/155/155 142/142/142
f 145/145/145 157/157/157 136/136/136
f 136/136/136 157/157/157 147/147/147
f 158/158/158 157/157/157 145/145/145
f 157/157/157 158/158/158 147/147/147
f 155/155/155 158/158/158 145/145/145
f 147/147/147 159/159/159 151/151/151
f 158/158/158 159/159/159 147/147/147
f 151/151/151 159/159/159 153/153/153
f 153/153/153 160/160/160 154/154/154
f 161/161/161 154/154/154 160/160/160
f 162/162/162 155/155/155 156/156/156
f 163/163/163 162/162/162 156/156/156
f 164/164/164 158/158/158 155/155/155
f 158/158/158 164/164/164 159/159/159
f 162/162/162 164/164/164 155/155/155
f 159/159/159 165/165/165 153/153/153
f 164/164/164 165/165/165 159/159/159
f 153/153/153 165/165/165 160/160/160
f 166/166/166 161/161/161 160/160/160
f 161/161/161 166/166/166 167/167/167
f 168/168/168 162/162/162 163/163/163
f 169/169/169 168/168/168 163/163/163
f 170/170/170 164/164/164 162/162/162
f 164/164/164 170/170/170 165/165/165
f 168/168/168 170/170/170 162/162/162
f 165/165/165 171/171/171 160/160/160
f 170/170/170 171/171/171 165/165/165
f 166/166/166 160/160/160 171/171/171
f 166/166/166 172/172/172 167/167/167
f 167/167/167 172/172/172 173/173/173
f 168/168/168 169/169/169 174/174/174
f 169/169/169 175/175/175 174/174/174
f 170/170/170 168/168/168 176/176/176
f 171/171/171 170/170/170 176/176/176
f 168/168/168 174/174/174 176/176/176
f 177/177/177 166/166/166 171/171/171
f 177/177/177 171/171/171 176/176/176
f 166/166/166 177/177/177 172/172/172
f 172/172/172 178/178/178 173/173/173
f 173/173/173 178/178/178 179/179/179
f 180/180/180 174/174/174 175/175/175
f 181/181/181 180/180/180 175/175/175
f 182/182/182 176/176/176 174/174/174
f 176/176/176 182/182/182 177/177/177
f 180/180/180 182/182/182 174/174/174
f 177/177/177 183/183/183 172/172/172
f 182/182/182 183/183/183 177/177/177
f 172/172/172 183/183/183 178/178/178
f 178/178/178 184/184/184 179/179/179
f 179/179/179 184/184/184 185/185/185
f 184/184/184 186/186/186 185/185/185
f 187/187/187 180/180/180 181/181/181
f 188/188/188 187/187/187 181/181/181
f 189/189/189 182/182/182 180/180/180
f 182/182/182 189/189/189 183/183/183
f 187/187/187 189/189/189 180/180/180
f 183/183/183 190/190/190 178/178/178
f 178/178/178 190/190/190 184/184/184
f 189/189/189 190/190/190 183/183/183
f 184/184/184 191/191/191 186/186/186
f 190/190/190 191/191/191 184/184/184
f 191/191/191 192/192/192 186/186/186
f 192/192/192 191/191/191 193/193/193
f 189/189/189 194/194/194 190/190/190
f 194/194/194 191/191/191 190/190/190
f 194/194/194 189/189/189 187/187/187
f 191/191/191 194/194/194 193/193/193
f 195/195/195 187/187/187 188/188/188
f 195/195/195 194/194/194 187/187/187
f 194/194/194 195/195/195 193/193/193
f 196/196/196 195/195/195 188/188/188
f 195/195/195 197/197/197 193/193/193
f 195/195/195 196/196/196 197/197/197
f 196/196/196 198/198/198 197/197/197
f 201/201/201 200/200/200 199/199/199
f 202/202/202 201/201/201 199/199/199
f 202/202/202 203/203/203 201/201/201
f 203/203/203 204/204/204 201/201/201
f 203/203/203 205/205/205 204/204/204
f 205/205/205 206/206/206 204/204/204
f 205/205/205 207/207/207 206/206/206
f 207/207/207 208/208/208 206/206/206
f 207/207/207 209/209/209 208/208/208
f 209/209/209 210/210/210 208/208/208
f 209/209/209 211/211/211 210/210/210
f 211/211/211 212/212/212 210/210/210
f 211/211/211 213/213/213 212/212/212
f 213/213/213 214/214/214 212/212/212
f 217/217/217 216/216/216 215/215/215
f 218/218/218 217/217/217 215/215/215
f 218/218/218 215/215/215 219/219/219
f 220/220/220 218/218/218 219/219/219
f 220/220/220 219/219/219 221/221/221
f 222/222/222 220/220/220 221/221/221
f 222/222/222 221/221/221 223/223/223
f 224/224/224 222/222/222 223/223/223
f 224/224/224 223/223/223 225/225/225
f 226/226/226 224/224/224 225/225/225
f 226/226/226 225/225/225 227/227/227
f 228/228/228 226/226/226 227/227/227
f 228/228/228 227/227/227 229/229/229
f 227/227/227 230/230/230 229/229/229
f 233/233/233 232/232/232 231/231/231
f 232/232/232 234/234/234 231/231/231
f 231/231/231 234/234/234 235/235/235
f 234/234/234 236/236/236 235/235/235
f 235/235/235 236/236/236 237/237/237
f 236/236/236 234/234/234 238/238/238
f 236/236/236 238/238/238 237/237/237
f 234/234/234 232/232/232 238/238/238
f 237/237/237 238/238/238 239/239/239
f 238/238/238 240/240/240 239/239/239
f 238/238/238 232/232/232 240/240/240
f 239/239/239 240/240/240 241/241/241
f 242/242/242 232/232/232 233/233/233
f 232/232/232 242/242/242 240/240/240
f 243/243/243 242/242/242 233/233/233
f 240/240/240 244/244/244 241/241/241
f 240/240/240 242/242/242 244/244/244
f 241/241/241 244/244/244 245/245/245
f 246/246/246 242/242/242 243/243/243
f 242/242/242 246/246/246 244/244/244
f 247/247/247 246/246/246 243/243/243
f 244/244/244 248/248/248 245/245/245
f 248/248/248 244/244/244 246/246/246
f 245/245/245 248/248/248 249/249/249
f 250/250/250 246/246/246 247/247/247
f 250/250/250 248/248/248 246/246/246
f 251/251/251 250/250/250 247/247/247
f 248/248/248 252/252/252 249/249/249
f 252/252/252 248/248/248 250/250/250
f 249/249/249 252/252/252 253/253/253
f 254/254/254 250/250/250 251/251/251
f 254/254/254 252/252/252 250/250/250
f 255/255/255 254/254/254 251/251/251
f 252/252/252 256/256/256 253/253/253
f 256/256/256 252/252/252 254/254/254
f 253/253/253 256/256/256 257/257/257
f 258/258/258 254/254/254 255/255/255
f 258/258/258 256/256/256 254/254/254
f 259/259/259 258/258/258 255/255/255
f 256/256/256 260/260/260 257/257/257
f 260/260/260 256/256/256 258/258/258
f 257/257/257 260/260/260 261/261/261
f 262/262/262 258/258/258 259/259/259
f 262/262/262 260/260/260 258/258/258
f 263/263/263 262/262/262 259/259/259
f 260/260/260 264/264/264 261/261/261
f 264/264/264 260/260/260 262/262/262
f 261/261/261 264/264/264 265/265/265
f 266/266/266 262/262/262 263/263/263
f 266/266/266 264/264/264 262/262/262
f 267/267/267 266/266/266 263/263/263
f 264/264/264 268/268/268 265/265/265
f 268/268/268 264/264/264 266/266/266
f 265/265/265 268/268/268 269/269/269
f 270/270/270 266/266/266 267/267/267
f 270/270/270 268/268/268 266/266/266
f 271/271/271 270/270/270 267/267/267
f 268/268/268 272/272/272 269/269/269
f 272/272/272 268/268/268 270/270/270
f 269/269/269 272/272/272 273/273/273
f 274/274/274 270/270/270 271/271/271
f 274/274/274 272/272/272 270/270/270
f 275/275/275 274/274/274 271/271/271
f 272/272/272 276/276/276 273/273/273
f 276/276/276 272/272/272 274/274/274
f 273/273/273 276/276/276 277/277/277
f 278/278/278 274/274/274 275/275/275
f 277/277/277 278/278/278 275/275/275
f 278/278/278 276/276/276 274/274/274
f 276/276/276 278/278/278 277/277/277
f 281/281/281 280/280/280 279/279/279
f 280/280/280 282/282/282 279/279/279
f 279/279/279 282/282/282 283/283/283
f 280/280/280 281/281/281 284/284/284
f 281/281/281 285/285/285 284/284/284
f 282/282/282 286/286/286 283/283/283
f 283/283/283 286/286/286 287/287/287
f 288/288/288 284/284/284 285/285/285
f 289/289/289 288/288/288 285/285/285
f 286/286/286 290/290/290 287/287/287
f 287/287/287 290/290/290 291/291/291
f 292/292/292 288/288/288 289/289/289
f 293/293/293 292/292/292 289/289/289
f 290/290/290 294/294/294 291/291/291
f 295/295/295 291/291/291 294/294/294
f 296/296/296 292/292/292 293/293/293
f 297/297/297 296/296/296 293/293/293
f 298/298/298 295/295/295 294/294/294
f 295/295/295 298/298/298 299/299/299
f 300/300/300 296/296/296 297/297/297
f 301/301/301 300/300/300 297/297/297
f 298/298/298 302/302/302 299/299/299
f 299/299/299 302/302/302 303/303/303
f 300/300/300 301/301/301 304/304/304
f 301/301/301 305/305/305 304/304/304
f 302/302/302 306/306/306 303/303/303
f 303/303/303 306/306/306 307/307/307
f 308/308/308 304/304/304 305/305/305
f 309/309/309 308/308/308 305/305/305
f 306/306/306 310/310/310 307/307/307
f 307/307/307 310/310/310 311/311/311
f 312/312/312 308/308/308 309/309/309
f 313/313/313 312/312/312 309/309/309
f 310/310/310 314/314/314 311/311/311
f 315/315/315 311/311/311 314/314/314
f 316/316/316 312/312/312 313/313/313
f 317/317/317 316/316/316 313/313/313
f 315/315/315 318/318/318 317/317/317
f 318/318/318 315/315/315 314/314/314
f 318/318/318 316/316/316 317/317/317
f 304/304/304 308/308/308 319/319/319
f 308/308/308 312/312/312 320/320/320
f 308/308/308 320/320/320 319/319/319
f 312/312/312 316/316/316 321/321/321
f 312/312/312 321/321/321 320/320/320
f 316/316/316 318/318/318 322/322/322
f 316/316/316 322/322/322 321/321/321
f 323/323/323 318/318/318 314/314/314
f 318/318/318 323/323/323 322/322/322
f 324/324/324 314/314/314 310/310/310
f 324/324/324 323/323/323 314/314/314
f 319/319/319 325/325/325 304/304/304
f 325/325/325 300/300/300 304/304/304
f 326/326/326 324/324/324 310/310/310
f 326/326/326 310/310/310 306/306/306
f 300/300/300 325/325/325 327/327/327
f 296/296/296 300/300/300 327/327/327
f 328/328/328 326/326/326 306/306/306
f 328/328/328 306/306/306 302/302/302
f 296/296/296 327/327/327 329/329/329
f 292/292/292 296/296/296 329/329/329
f 330/330/330 328/328/328 302/302/302
f 330/330/330 302/302/302 298/298/298
f 292/292/292 329/329/329 331/331/331
f 288/288/288 292/292/292 331/331/331
f 332/332/332 330/330/330 298/298/298
f 332/332/332 298/298/298 294/294/294
f 288/288/288 331/331/331 333/333/333
f 284/284/284 288/288/288 333/333/333
f 334/334/334 332/332/332 294/294/294
f 294/294/294 290/290/290 334/334/334
f 333/333/333 335/335/335 284/284/284
f 335/335/335 280/280/280 284/284/284
f 290/290/290 336/336/336 334/334/334
f 290/290/290 286/286/286 336/336/336
f 280/280/280 335/335/335 337/337/337
f 282/282/282 280/280/280 337/337/337
f 286/286/286 282/282/282 338/338/338
f 286/286/286 338/338/338 336/336/336
f 282/282/282 337/337/337 338/338/338
f 333/333/333 331/331/331 339/339/339
f 333/333/333 340/340/340 335/335/335
f 340/340/340 333/333/333 339/339/339
f 337/337/337 335/335/335 341/341/341
f 340/340/340 341/341/341 335/335/335
f 338/338/338 337/337/337 342/342/342
f 342/342/342 337/337/337 341/341/341
f 336/336/336 338/338/338 343/343/343
f 343/343/343 338/338/338 342/342/342
f 334/334/334 336/336/336 344/344/344
f 344/344/344 336/336/336 343/343/343
f 344/344/344 343/343/343 345/345/345
f 343/343/343 342/342/342 346/346/346
f 345/345/345 343/343/343 346/346/346
f 342/342/342 341/341/341 347/347/347
f 346/346/346 342/342/342 347/347/347
f 340/340/340 348/348/348 341/341/341
f 348/348/348 347/347/347 341/341/341
f 349/349/349 334/334/334 344/344/344
f 332/332/332 334/334/334 349/349/349
f 350/350/350 344/344/344 345/345/345
f 349/349/349 344/344/344 350/350/350
f 351/351/351 332/332/332 349/349/349
f 330/330/330 332/332/332 351/351/351
f 352/352/352 349/349/349 350/350/350
f 352/352/352 350/350/350 345/345/345
f 351/351/351 349/349/349 352/352/352
f 353/353/353 330/330/330 351/351/351
f 328/328/328 330/330/330 353/353/353
f 354/354/354 351/351/351 352/352/352
f 354/354/354 352/352/352 345/345/345
f 353/353/353 351/351/351 354/354/354
f 355/355/355 328/328/328 353/353/353
f 326/326/326 328/328/328 355/355/355
f 356/356/356 353/353/353 354/354/354
f 356/356/356 354/354/354 345/345/345
f 355/355/355 353/353/353 356/356/356
f 345/345/345 357/357/357 356/356/356
f 357/357/357 355/355/355 356/356/356
f 357/357/357 345/345/345 346/346/346
f 358/358/358 326/326/326 355/355/355
f 358/358/358 355/355/355 357/357/357
f 324/324/324 326/326/326 358/358/358
f 359/359/359 357/357/357 346/346/346
f 359/359/359 358/358/358 357/357/357
f 359/359/359 346/346/346 347/347/347
f 360/360/360 324/324/324 358/358/358
f 360/360/360 358/358/358 359/359/359
f 323/323/323 324/324/324 360/360/360
f 361/361/361 359/359/359 347/347/347
f 361/361/361 360/360/360 359/359/359
f 361/361/361 347/347/347 348/348/348
f 362/362/362 323/323/323 360/360/360
f 362/362/362 360/360/360 361/361/361
f 322/322/322 323/323/323 362/362/362
f 363/363/363 362/362/362 361/361/361
f 363/363/363 361/361/361 348/348/348
f 364/364/364 322/322/322 362/362/362
f 364/364/364 362/362/362 363/363/363
f 321/321/321 322/322/322 364/364/364
f 365/365/365 363/363/363 348/348/348
f 365/365/365 364/364/364 363/363/363
f 366/366/366 321/321/321 364/364/364
f 366/366/366 364/364/364 365/365/365
f 320/320/320 321/321/321 366/366/366
f 367/367/367 320/320/320 366/366/366
f 319/319/319 320/320/320 367/367/367
f 368/368/368 365/365/365 348/348/348
f 348/348/348 340/340/340 368/368/368
f 368/368/368 369/369/369 365/365/365
f 369/369/369 370/370/370 365/365/365
f 370/370/370 366/366/366 365/365/365
f 367/367/367 366/366/366 370/370/370
f 340/340/340 339/339/339 368/368/368
f 368/368/368 339/339/339 369/369/369
f 371/371/371 319/319/319 367/367/367
f 319/319/319 371/371/371 325/325/325
f 372/372/372 367/367/367 370/370/370
f 372/372/372 370/370/370 369/369/369
f 371/371/371 367/367/367 372/372/372
f 371/371/371 373/373/373 325/325/325
f 327/327/327 325/325/325 373/373/373
f 374/374/374 371/371/371 372/372/372
f 369/369/369 374/374/374 372/372/372
f 371/371/371 374/374/374 373/373/373
f 375/375/375 327/327/327 373/373/373
f 329/329/329 327/327/327 375/375/375
f 374/374/374 376/376/376 373/373/373
f 369/369/369 376/376/376 374/374/374
f 375/375/375 373/373/373 376/376/376
f 339/339/339 377/377/377 369/369/369
f 377/377/377 329/329/329 375/375/375
f 339/339/339 331/331/331 377/377/377
f 331/331/331 329/329/329 377/377/377
f 378/378/378 375/375/375 376/376/376
f 369/369/369 378/378/378 376/376/376
f 377/377/377 375/375/375 378/378/378
f 369/369/369 377/377/377 378/378/378
f 381/381/381 380/380/380 379/379/379
f 380/380/380 382/382/382 379/379/379
f 379/379/379 382/382/382 383/383/383
f 380/380/380 381/381/381 384/384/384
f 381/381/381 385/385/385 384/384/384
f 382/382/382 386/386/386 383/383/383
f 387/387/387 383/383/383 386/386/386
f 388/388/388 384/384/384 385/385/385
f 389/389/389 388/388/388 385/385/385
f 390/390/390 387/387/387 386/386/386
f 387/387/387 390/390/390 391/391/391
f 392/392/392 388/388/388 389/389/389
f 393/393/393 392/392/392 389/389/389
f 390/390/390 394/394/394 391/391/391
f 391/391/391 394/394/394 395/395/395
f 392/392/392 393/393/393 396/396/396
f 393/393/393 397/397/397 396/396/396
f 394/394/394 398/398/398 395/395/395
f 399/399/399 395/395/395 398/398/398
f 400/400/400 396/396/396 397/397/397
f 401/401/401 400/400/400 397/397/397
f 399/399/399 402/402/402 401/401/401
f 402/402/402 399/399/399 398/398/398
f 402/402/402 400/400/400 401/401/401
f 392/392/392 403/403/403 388/388/388
f 392/392/392 396/396/396 404/404/404
f 403/403/403 392/392/392 404/404/404
f 400/400/400 405/405/405 396/396/396
f 405/405/405 404/404/404 396/396/396
f 402/402/402 406/406/406 400/400/400
f 406/406/406 405/405/405 400/400/400
f 402/402/402 398/398/398 407/407/407
f 406/406/406 402/402/402 407/407/407
f 394/394/394 408/408/408 398/398/398
f 408/408/408 407/407/407 398/398/398
f 403/403/403 409/409/409 388/388/388
f 388/388/388 409/409/409 384/384/384
f 410/410/410 408/408/408 394/394/394
f 390/390/390 410/410/410 394/394/394
f 409/409/409 411/411/411 384/384/384
f 380/380/380 384/384/384 411/411/411
f 410/410/410 390/390/390 412/412/412
f 390/390/390 386/386/386 412/412/412
f 413/413/413 380/380/380 411/411/411
f 380/380/380 413/413/413 382/382/382
f 382/382/382 414/414/414 386/386/386
f 414/414/414 412/412/412 386/386/386
f 413/413/413 414/414/414 382/382/382
f 415/415/415 407/407/407 408/408/408
f 416/416/416 408/408/408 410/410/410
f 416/416/416 415/415/415 408/408/408
f 417/417/417 410/410/410 412/412/412
f 417/417/417 416/416/416 410/410/410
f 412/412/412 414/414/414 418/418/418
f 418/418/418 417/417/417 412/412/412
f 414/414/414 413/413/413 419/419/419
f 414/414/414 419/419/419 418/418/418
f 420/420/420 413/413/413 411/411/411
f 413/413/413 420/420/420 419/419/419
f 415/415/415 421/421/421 407/407/407
f 421/421/421 406/406/406 407/407/407
f 422/422/422 420/420/420 411/411/411
f 411/411/411 409/409/409 422/422/422
f 406/406/406 421/421/421 423/423/423
f 405/405/405 406/406/406 423/423/423
f 409/409/409 424/424/424 422/422/422
f 409/409/409 403/403/403 424/424/424
f 405/405/405 423/423/423 425/425/425
f 404/404/404 405/405/405 425/425/425
f 426/426/426 403/403/403 404/404/404
f 403/403/403 426/426/426 424/424/424
f 425/425/425 426/426/426 404/404/404
f 421/421/421 415/415/415 427/427/427
f 423/423/423 421/421/421 428/428/428
f 428/428/428 421/421/421 427/427/427
f 425/425/425 423/423/423 429/429/429
f 429/429/429 423/423/423 428/428/428
f 425/425/425 430/430/430 426/426/426
f 430/430/430 425/425/425 429/429/429
f 424/424/424 426/426/426 431/431/431
f 430/430/430 431/431/431 426/426/426
f 422/422/422 424/424/424 432/432/432
f 432/432/432 424/424/424 431/431/431
f 427/427/427 415/415/415 433/433/433
f 415/415/415 416/416/416 433/433/433
f 434/434/434 422/422/422 432/432/432
f 422/422/422 434/434/434 420/420/420
f 433/433/433 416/416/416 435/435/435
f 416/416/416 417/417/417 435/435/435
f 434/434/434 436/436/436 420/420/420
f 419/419/419 420/420/420 436/436/436
f 435/435/435 417/417/417 437/437/437
f 417/417/417 418/418/418 437/437/437
f 418/418/418 419/419/419 438/438/438
f 438/438/438 419/419/419 436/436/436
f 437/437/437 418/418/418 438/438/438
f 427/427/427 433/433/433 439/439/439
f 433/433/433 435/435/435 440/440/440
f 439/439/439 433/433/433 440/440/440
f 435/435/435 437/437/437 441/441/441
f 440/440/440 435/435/435 441/441/441
f 437/437/437 438/438/438 442/442/442
f 441/441/441 437/437/437 442/442/442
f 438/438/438 436/436/436 443/443/443
f 442/442/442 438/438/438 443/443/443
f 434/434/434 444/444/444 436/436/436
f 444/444/444 443/443/443 436/436/436
f 440/440/440 441/441/441 445/445/445
f 441/441/441 442/442/442 445/445/445
f 446/446/446 440/440/440 445/445/445
f 439/439/439 440/440/440 446/446/446
f 445/445/445 442/442/442 447/447/447
f 442/442/442 443/443/443 447/447/447
f 448/448/448 447/447/447 443/443/443
f 444/444/444 448/448/448 443/443/443
f 449/449/449 439/439/439 446/446/446
f 448/448/448 444/444/444 450/450/450
f 444/444/444 434/434/434 451/451/451
f 444/444/444 451/451/451 450/450/450
f 434/434/434 432/432/432 451/451/451
f 452/452/452 439/439/439 449/449/449
f 452/452/452 427/427/427 439/439/439
f 453/453/453 452/452/452 449/449/449
f 428/428/428 427/427/427 452/452/452
f 451/451/451 454/454/454 450/450/450
f 451/451/451 432/432/432 454/454/454
f 455/455/455 450/450/450 454/454/454
f 432/432/432 431/431/431 454/454/454
f 456/456/456 452/452/452 453/453/453
f 456/456/456 428/428/428 452/452/452
f 457/457/457 456/456/456 453/453/453
f 429/429/429 428/428/428 456/456/456
f 458/458/458 455/455/455 454/454/454
f 458/458/458 454/454/454 431/431/431
f 455/455/455 458/458/458 459/459/459
f 430/430/430 458/458/458 431/431/431
f 460/460/460 456/456/456 457/457/457
f 460/460/460 429/429/429 456/456/456
f 459/459/459 460/460/460 457/457/457
f 458/458/458 460/460/460 459/459/459
f 430/430/430 429/429/429 460/460/460
f 458/458/458 430/430/430 460/460/460
