g shuitongshuitong_mobile
v -0.142935949 -0.471713168 -0.473185304
v 0.0521755151 -0.47657762 -0.515578577
v 0.0496366125 -0.471713168 -0.490978958
v -0.149976603 -0.47657762 -0.496910176
v -0.313981177 -0.471713168 -0.38306493
v 0.0542023701 -0.500750533 -0.534844367
v -0.329555958 -0.47657762 -0.402309385
v -0.437555327 -0.471713168 -0.234357778
v -0.155438444 -0.500750533 -0.515471901
v 0.0538823404 -0.535484427 -0.531750747
v -0.459296014 -0.47657762 -0.246156208
v -0.494797979 -0.471713168 -0.0496792831
v -0.341759758 -0.500750533 -0.417308112
v -0.154585032 -0.535484427 -0.512484956
v -0.519418934 -0.47657762 -0.0522395211
v -0.477004326 -0.471713168 0.142850608
v -0.47630026 -0.500750533 -0.255351729
v -0.500729197 -0.47657762 0.149912597
v -0.386905287 -0.471713168 0.313917171
v -0.139351616 -0.651057833 -0.461173521
v 0.0482924876 -0.651057833 -0.478519133
v 0.0452628727 -0.681631341 -0.449375092
v -0.339818244 -0.535484427 -0.414939892
v -0.538642054 -0.500750533 -0.0542663761
v -0.406107071 -0.47657762 0.329491952
v -0.238198135 -0.471713168 0.437512656
v -0.131009507 -0.681631341 -0.433096246
v 0.0413371746 -0.699104965 -0.411910277
v -0.120299179 -0.699104965 -0.396996891
v -0.30608711 -0.651057833 -0.373357361
v -0.287632062 -0.681631341 -0.350592579
v -0.263928526 -0.699104965 -0.321341861
v -0.426567639 -0.651057833 -0.228383889
v -0.400815913 -0.681631341 -0.214409257
v -0.367682167 -0.699104965 -0.196444921
v -0.473612011 -0.535484427 -0.253922263
v -0.482338155 -0.651057833 -0.0483564936
v -0.453194113 -0.681631341 -0.0453268787
v -0.415750634 -0.699104965 -0.0414011806
v -0.535569768 -0.535484427 -0.053925011
v -0.464992543 -0.651057833 0.13928761
v -0.436915267 -0.681631341 0.130945502
v -0.400815913 -0.699104965 0.120235173
v -0.519290922 -0.500750533 0.155417109
v -0.516325313 -0.535484427 0.154542361
v -0.377176383 -0.651057833 0.306044439
v -0.354411601 -0.681631341 0.287610726
v -0.325160882 -0.699104965 0.26390719
v -0.421148469 -0.500750533 0.341674417
v -0.418758913 -0.535484427 0.339754239
v -0.232202911 -0.651057833 0.426482298
v -0.218249614 -0.681631341 0.400730571
v -0.200306614 -0.699104965 0.367639496
v -0.249975229 -0.47657762 0.459232008
v -0.0534983047 -0.471713168 0.494733973
v -0.259192086 -0.500750533 0.47625759
v -0.0560798779 -0.47657762 0.519376263
v 0.139031586 -0.471713168 0.476982991
v -0.257719949 -0.535484427 0.47356934
v -0.0522181857 -0.651057833 0.482295484
v -0.0491459002 -0.681631341 0.453172778
v -0.0452202021 -0.699104965 0.415729299
v 0.146072241 -0.47657762 0.500707862
v 0.310098149 -0.471713168 0.386841281
v -0.0580853976 -0.500750533 0.538599383
v -0.0577653679 -0.535484427 0.535527097
v 0.135468588 -0.651057833 0.464949872
v 0.12712648 -0.681631341 0.436872597
v 0.116416151 -0.699104965 0.400773242
v 0.32567293 -0.47657762 0.406085736
v 0.433650964 -0.471713168 0.238112793
v 0.151598087 -0.500750533 0.519248251
v 0.150702004 -0.535484427 0.516282643
v 0.302204082 -0.651057833 0.377133712
v 0.28377037 -0.681631341 0.35436893
v 0.260066834 -0.699104965 0.325118212
v 0.455412986 -0.47657762 0.249911223
v 0.490914952 -0.471713168 0.0534342987
v 0.337876731 -0.500750533 0.421084463
v 0.335935217 -0.535484427 0.418694907
v 0.422641941 -0.651057833 0.232138905
v 0.396890215 -0.681631341 0.218185608
v 0.36379914 -0.699104965 0.200242608
v 0.515535906 -0.47657762 0.056015872
v 0.473121298 -0.471713168 -0.139074257
v 0.472417233 -0.500750533 0.259149415
v 0.469728983 -0.535484427 0.257655943
v 0.478476463 -0.651057833 0.0521328445
v 0.449332421 -0.681631341 0.0490818943
v 0.411867606 -0.699104965 0.0451775315
v 0.49684617 -0.47657762 -0.146136246
v 0.383000924 -0.471713168 -0.310162155
v 0.534759026 -0.500750533 0.0580213917
v 0.531686741 -0.535484427 0.0577013619
v 0.461109516 -0.651057833 -0.135532594
v 0.43303224 -0.681631341 -0.127211821
v 0.396932885 -0.699104965 -0.116480157
v 0.402245379 -0.47657762 -0.325736936
v 0.234293772 -0.471713168 -0.43371497
v 0.515386559 -0.500750533 -0.151619423
v 0.512442286 -0.535484427 -0.15076601
v 0.373293355 -0.651057833 -0.302289424
v 0.350528573 -0.681631341 -0.283834375
v 0.321277855 -0.699104965 -0.260109504
v 0.246092202 -0.47657762 -0.455476992
v 0.0496366125 -0.471713168 -0.490978958
v 0.0521755151 -0.47657762 -0.515578577
v 0.417244106 -0.500750533 -0.337919401
v 0.255330393 -0.500750533 -0.472481239
v 0.0542023701 -0.500750533 -0.534844367
v 0.414875886 -0.535484427 -0.335999223
v 0.253836921 -0.535484427 -0.469771654
v 0.0538823404 -0.535484427 -0.531750747
v 0.0482924876 -0.651057833 -0.478519133
v 0.228319883 -0.651057833 -0.422705947
v 0.214345251 -0.681631341 -0.396954221
v 0.0452628727 -0.681631341 -0.449375092
v 0.196380915 -0.699104965 -0.36384181
v 0.0413371746 -0.699104965 -0.411910277
v -0.145645534 0.038456907 -0.482380826
v 0.050618037 0.038456907 -0.500515844
v 0.0549491062 0.0533702928 -0.541970363
v -0.15750797 0.0533702928 -0.522363208
v -0.320040407 0.038456907 -0.39053229
v 0.056421243 0.0758577158 -0.555731642
v -0.346304181 0.0533702928 -0.4229193
v -0.446004112 0.038456907 -0.2389022
v -0.161455003 0.0758577158 -0.535612439
v -0.482658185 0.0533702928 -0.25880805
v -0.504356201 0.038456907 -0.0506607077
v -0.16192438 0.10380698 -0.537319264
v 0.0565705902 0.10380698 -0.557502473
v -0.354987654 0.0758577158 -0.433672299
v -0.54581072 0.0533702928 -0.0549704415
v -0.486221182 0.038456907 0.145624199
v -0.14771506 0.231690863 -0.489336139
v 0.0513647731 0.231690863 -0.507705846
v 0.0485271761 0.263203125 -0.480524653
v -0.356118426 0.10380698 -0.435037759
v -0.494797979 0.0758577158 -0.265400663
v -0.526182229 0.0533702928 0.157443964
v -0.394351312 0.038456907 0.319976401
v -0.13992767 0.263203125 -0.4630937
v 0.0444948014 0.281231467 -0.442035743
v -0.324606164 0.231690863 -0.396143479
v -0.496376793 0.10380698 -0.266211405
v -0.559593334 0.0758577158 -0.056421243
v -0.426738322 0.0533702928 0.346218839
v -0.242763892 0.038456907 0.445940106
v -0.452340701 0.231690863 -0.242379857
v -0.307388564 0.263203125 -0.374893504
v -0.561321494 0.10380698 -0.0566345961
v -0.53943146 0.0758577158 0.161390997
v -0.262627071 0.0533702928 0.482594179
v -0.0545223999 0.038456907 0.504292195
v -0.511546202 0.231690863 -0.051428779
v -0.541159621 0.10380698 0.161903045
v -0.437491321 0.0758577158 0.354944983
v -0.058853469 0.0533702928 0.545768049
v 0.141762507 0.038456907 0.486157176
v -0.42833847 0.263203125 -0.229343979
v -0.493176495 0.231690863 0.147672389
v -0.438878116 0.10380698 0.356097091
v -0.269219684 0.0758577158 0.494755309
v 0.153624942 0.0533702928 0.526118223
v 0.316157379 0.038456907 0.394308641
v -0.484343675 0.263203125 -0.0485698467
v -0.400005171 0.231690863 0.324563494
v -0.270094432 0.10380698 0.496334122
v -0.0602829352 0.0758577158 0.559550663
v 0.342399818 0.0533702928 0.426716986
v 0.442121084 0.038456907 0.242699886
v -0.466955392 0.263203125 0.139884999
v -0.246220213 0.231690863 0.452319365
v -0.0604536177 0.10380698 0.561278824
v 0.157571976 0.0758577158 0.53938879
v 0.478753822 0.0533702928 0.262605736
v 0.500473173 0.038456907 0.0544370586
v -0.378755196 0.263203125 0.307324558
v -0.0552478006 0.231690863 0.511503532
v 0.158062688 0.10380698 0.541095615
v 0.351125962 0.0758577158 0.43744865
v 0.541927692 0.0533702928 0.0587681277
v 0.482338155 0.038456907 -0.141826513
v -0.233184335 0.263203125 0.4282958
v 0.143832032 0.231690863 0.493133825
v 0.352235398 0.10380698 0.438835446
v 0.490914952 0.0758577158 0.269198349
v 0.522299202 0.0533702928 -0.153646278
v 0.390468284 0.038456907 -0.316178714
v -0.0523888683 0.263203125 0.484301004
v 0.320723137 0.231690863 0.3999625
v 0.49247243 0.10380698 0.270009091
v 0.555688971 0.0758577158 0.0602402645
v 0.422855294 0.0533702928 -0.342421153
v 0.238880865 0.038456907 -0.442163755
v 0.136065977 0.263203125 0.466870051
v 0.448479009 0.231690863 0.246177543
v 0.557459802 0.10380698 0.0604322824
v 0.535569768 0.0758577158 -0.157593311
v 0.258744044 0.0533702928 -0.478796492
v 0.050618037 0.038456907 -0.500515844
v 0.0549491062 0.0533702928 -0.541970363
v 0.433608293 0.0758577158 -0.351168633
v 0.265357992 0.0758577158 -0.490978958
v 0.056421243 0.0758577158 -0.555731642
v 0.0565705902 0.10380698 -0.557502473
v 0.266190069 0.10380698 -0.492515101
v 0.0513647731 0.231690863 -0.507705846
v 0.537276593 0.10380698 -0.158126694
v 0.434973754 0.10380698 -0.352278069
v 0.242337186 0.231690863 -0.448543014
v 0.396100808 0.231690863 -0.320744472
v 0.489250797 0.231690863 -0.143874703
v 0.229301308 0.263203125 -0.424498113
v 0.0485271761 0.263203125 -0.480524653
v 0.374872169 0.263203125 -0.303569543
v 0.21084626 0.281231467 -0.39048962
v 0.0444948014 0.281231467 -0.442035743
v 0.0399077084 0.281231467 -0.398255675
v 0.189873644 0.281231467 -0.351787357
v 0.344810708 0.281231467 -0.279204612
v 0.310588862 0.281231467 -0.251468701
v 0.425991586 0.281231467 -0.125099625
v 0.383768995 0.281231467 -0.112554459
v 0.463072365 0.263203125 -0.136108648
v 0.441993072 0.281231467 0.0483351582
v 0.398213004 0.281231467 0.0437480653
v 0.480481982 0.263203125 0.0523675329
v 0.390446949 0.281231467 0.214686617
v 0.351744686 0.281231467 0.193692666
v 0.507663175 0.231690863 0.05520513
v 0.424434107 0.263203125 0.233141665
v 0.279140606 0.281231467 0.348651065
v 0.251404695 0.281231467 0.314450554
v 0.303505537 0.263203125 0.37869119
v 0.125035619 0.281231467 0.429831942
v 0.112511789 0.281231467 0.387609352
v -0.0483778289 0.281231467 0.445833429
v -0.0437907359 0.281231467 0.402032026
v -0.214729287 0.281231467 0.394265971
v -0.193756672 0.281231467 0.355563708
v -0.348672401 0.281231467 0.282959628
v -0.314493224 0.281231467 0.255223717
v -0.429874613 0.281231467 0.128897311
v -0.387673358 0.281231467 0.116352145
v -0.4458761 0.281231467 -0.0445588073
v -0.402096032 0.281231467 -0.0399717144
v -0.394329977 0.281231467 -0.210910266
v -0.355627714 0.281231467 -0.189916315
v -0.283002298 0.281231467 -0.344853379
v -0.255287723 0.281231467 -0.310652868
v -0.128897311 0.281231467 -0.426034256
v -0.116394816 0.281231467 -0.383811666
v 0.0399077084 0.281231467 -0.398255675
v -0.129196006 0.161390997 -0.435379125
v 0.0561652192 -0.00728601039 -0.536828552
v 0.0472470571 0.161390997 -0.451700641
v -0.153560936 -0.00728601039 -0.517456085
v -0.285989242 0.161390997 -0.352811452
v -0.161903045 -0.205875131 -0.545554696
v 0.059194834 -0.205875131 -0.565993929
v -0.33988225 -0.00728601039 -0.419292296
v -0.399215764 0.161390997 -0.216521454
v -0.152984883 -0.404165557 -0.515450565
v 0.0559305307 -0.404165557 -0.534780361
v -0.358358634 -0.205875131 -0.442099749
v -0.474465423 -0.00728601039 -0.257335913
v -0.451679306 0.161390997 -0.0472683924
v -0.128107905 -0.571967817 -0.431730785
v 0.0468416861 -0.571967817 -0.447860284
v -0.283557016 -0.571967817 -0.349824508
v -0.338602131 -0.404165557 -0.417713483
v -0.395844784 -0.571967817 -0.214686617
v -0.472651921 -0.404165557 -0.256354489
v -0.447860284 -0.571967817 -0.0468416861
v -0.500238485 -0.205875131 -0.271310545
v -0.534759026 -0.404165557 -0.0559305307
v -0.43170945 -0.571967817 0.128107905
v -0.565993929 -0.205875131 -0.0592161694
v -0.515471901 -0.404165557 0.152963548
v -0.349824508 -0.571967817 0.283578352
v -0.536828552 -0.00728601039 -0.0561652192
v -0.435379125 0.161390997 0.12917467
v -0.417692148 -0.404165557 0.338580796
v -0.214707952 -0.571967817 0.395844784
v -0.545576031 -0.205875131 0.161903045
v -0.517456085 -0.00728601039 0.153560936
v -0.352790117 0.161390997 0.285967907
v -0.256333153 -0.404165557 0.472673257
v -0.0468630214 -0.571967817 0.447860284
v -0.442078414 -0.205875131 0.358358634
v -0.419313632 -0.00728601039 0.339903586
v -0.216500118 0.161390997 0.399194429
v -0.0559305307 -0.404165557 0.534759026
v 0.128107905 -0.571967817 0.43170945
v -0.27128921 -0.205875131 0.500238485
v -0.257314578 -0.00728601039 0.474486759
v -0.0472470571 0.161390997 0.451679306
v 0.152963548 -0.404165557 0.515450565
v 0.283557016 -0.571967817 0.349803172
v -0.0592161694 -0.205875131 0.565993929
v -0.0561652192 -0.00728601039 0.536849887
v 0.129196006 0.161390997 0.435379125
v 0.338580796 -0.404165557 0.417670812
v 0.395844784 -0.571967817 0.214686617
v 0.161903045 -0.205875131 0.545554696
v 0.153539601 -0.00728601039 0.51743475
v 0.285989242 0.161390997 0.352790117
v 0.472651921 -0.404165557 0.256311818
v 0.447860284 -0.571967817 0.0468630214
v 0.358358634 -0.205875131 0.442078414
v 0.33988225 -0.00728601039 0.419313632
v 0.399237099 0.161390997 0.216500118
v 0.534759026 -0.404165557 0.0559305307
v 0.43170945 -0.571967817 -0.128107905
v 0.50025982 -0.205875131 0.271310545
v 0.474465423 -0.00728601039 0.257314578
v 0.451679306 0.161390997 0.0472257218
v 0.515471901 -0.404165557 -0.152984883
v 0.349824508 -0.571967817 -0.283578352
v 0.565993929 -0.205875131 0.0592161694
v 0.536828552 -0.00728601039 0.0561652192
v 0.435357789 0.161390997 -0.129217341
v 0.417713483 -0.404165557 -0.338602131
v 0.214686617 -0.571967817 -0.395866119
v 0.545576031 -0.205875131 -0.16192438
v 0.517456085 -0.00728601039 -0.153560936
v 0.352768781 0.161390997 -0.285967907
v 0.256333153 -0.404165557 -0.472673257
v 0.0468416861 -0.571967817 -0.447860284
v 0.0559305307 -0.404165557 -0.534780361
v 0.442078414 -0.205875131 -0.358358634
v 0.419292296 -0.00728601039 -0.339903586
v 0.216521454 0.161390997 -0.399237099
v 0.27128921 -0.205875131 -0.500281156
v 0.059194834 -0.205875131 -0.565993929
v 0.257314578 -0.00728601039 -0.474465423
v 0.0472470571 0.161390997 -0.451700641
v 0.0561652192 -0.00728601039 -0.536828552
v 0.19126044 0.23079478 -0.354347595
v 0.0420839107 0.389678878 -0.41918562
v 0.0402277382 0.23079478 -0.401178613
v 0.199901243 0.389678878 -0.370242405
v 0.312893076 0.23079478 -0.253303538
v 0.192177858 0.417116094 -0.356011749
v 0.0403984207 0.417116094 -0.403034786
v 0.326953049 0.389678878 -0.264696597
v 0.386585257 0.23079478 -0.113386537
v 0.17408551 0.430215978 -0.322685986
v 0.0364727226 0.430215978 -0.365356618
v 0.0283653025 0.430215978 -0.287888086
v 0.314343877 0.417116094 -0.254476981
v 0.403930869 0.389678878 -0.118549683
v 0.401135942 0.23079478 0.0440680951
v 0.284901141 0.430215978 -0.230602762
v 0.136962061 0.430215978 -0.254242292
v 0.388377424 0.417116094 -0.113941255
v 0.419121614 0.389678878 0.0459242675
v 0.354326259 0.23079478 0.195079461
v 0.352043381 0.430215978 -0.10316692
v 0.402992115 0.417116094 0.0442387776
v 0.370199734 0.389678878 0.203741599
v 0.253260868 0.23079478 0.316712097
v 0.126273067 0.420679092 -0.234549796
v 0.0260610884 0.420679092 -0.265635351
v 0.224415521 0.430215978 -0.181595542
v 0.365292612 0.430215978 0.0403130794
v 0.355947743 0.417116094 0.19599688
v 0.264653926 0.389678878 0.330772071
v 0.113343866 0.23079478 0.390446949
v 0.120107161 0.400111847 -0.223156737
v 0.0246956282 0.400111847 -0.252727485
v 0.022924797 0.293136573 -0.23585125
v 0.112042412 0.293136573 -0.208243351
v 0.196935634 0.400111847 -0.159321472
v 0.183750408 0.293136573 -0.148653814
v 0.206984567 0.420679092 -0.167471562
v 0.243489293 0.400111847 -0.0709079225
v 0.227253118 0.293136573 -0.0661288117
v 0.255906447 0.420679092 -0.0746202675
v 0.252663479 0.400111847 0.0285359851
v 0.235808579 0.293136573 0.0267651538
v 0.277412445 0.430215978 -0.0809781916
v 0.265571345 0.420679092 0.0298587746
v 0.223114066 0.400111847 0.123947518
v 0.208200681 0.293136573 0.115861433
v 0.28786675 0.430215978 0.0322056594
v 0.23448579 0.420679092 0.13013476
v 0.159257466 0.400111847 0.200775991
v 0.148589808 0.293136573 0.187590765
v 0.322643315 0.430215978 0.177904532
v 0.254220957 0.430215978 0.140802417
v 0.167428892 0.420679092 0.210824924
v 0.0708865872 0.400111847 0.247308315
v 0.0660648058 0.293136573 0.231072139
v 0.230581427 0.430215978 0.288720163
v 0.181531536 0.430215978 0.228255877
v 0.0745989321 0.420679092 0.259725468
v -0.0285786557 0.400133183 0.256525171
v -0.0268078245 0.293136573 0.239648936
v 0.25443431 0.417116094 0.318162899
v 0.103102914 0.430215978 0.355862402
v 0.0809568563 0.430215978 0.281252802
v -0.0299441159 0.420679092 0.269411702
v -0.123990189 0.400133183 0.226933088
v -0.115925439 0.293136573 0.212019702
v 0.113877249 0.417116094 0.39221778
v -0.0403770854 0.430215978 0.369132969
v -0.03224833 0.430215978 0.291685772
v -0.13017743 0.420679092 0.238347482
v -0.200818661 0.400133183 0.163097823
v -0.187676107 0.293136573 0.152408829
v 0.118485677 0.389678878 0.407771226
v -0.0441107657 0.23079478 0.404954964
v -0.0443027835 0.417116094 0.406832472
v -0.0459882735 0.389678878 0.422961971
v -0.195143467 0.23079478 0.358145281
v -0.177968538 0.430215978 0.326483672
v -0.140845088 0.430215978 0.258039979
v -0.21088893 0.420679092 0.171269249
v -0.203762935 0.389678878 0.374040091
v -0.316797439 0.23079478 0.25712256
v -0.19603955 0.417116094 0.3597881
v -0.288784169 0.430215978 0.234379113
v -0.330836076 0.389678878 0.268494283
v -0.390468284 0.23079478 0.117184223
v -0.318226905 0.417116094 0.258253332
v -0.228298548 0.430215978 0.185393228
v -0.247372321 0.400133183 0.0747056087
v -0.23111481 0.293136573 0.0699051626
v -0.407813896 0.389678878 0.122347369
v -0.40501897 0.23079478 -0.0402490735
v -0.392260451 0.417116094 0.117738941
v -0.355926408 0.430215978 0.106921936
v -0.25981081 0.420679092 0.0784179537
v -0.256546506 0.400133183 -0.0247596341
v -0.239691607 0.293136573 -0.0229888029
v -0.423004641 0.389678878 -0.0421479166
v -0.358209287 0.23079478 -0.19130311
v -0.406875142 0.417116094 -0.0404410913
v -0.369175639 0.430215978 -0.0364940579
v -0.281295473 0.430215978 0.0847972132
v -0.269454373 0.420679092 -0.026103759
v -0.226975759 0.400133183 -0.120171167
v -0.212105043 0.293136573 -0.112063747
v -0.374082762 0.389678878 -0.199922578
v -0.257143895 0.23079478 -0.312935746
v -0.359830771 0.417116094 -0.192199194
v -0.326526343 0.430215978 -0.174106846
v -0.291749778 0.430215978 -0.0284293085
v -0.238368817 0.420679092 -0.126315738
v -0.163119158 0.400133183 -0.19699964
v -0.1524515 0.293136573 -0.183814414
v -0.268536954 0.389678878 -0.32699572
v -0.117248229 0.23079478 -0.386649263
v -0.258338673 0.417116094 -0.314386548
v -0.234464454 0.430215978 -0.284922477
v -0.258082649 0.430215978 -0.137004731
v -0.171311919 0.420679092 -0.207027238
v -0.0747696147 0.400111847 -0.243531964
v -0.0699478333 0.293136573 -0.227295788
v -0.122368705 0.389678878 -0.403973539
v 0.0402277382 0.23079478 -0.401178613
v 0.0420839107 0.389678878 -0.41918562
v 0.0403984207 0.417116094 -0.403034786
v -0.117760276 0.417116094 -0.388420094
v 0.0364727226 0.430215978 -0.365356618
v -0.106985942 0.430215978 -0.352086051
v 0.0246956282 0.400111847 -0.252727485
v 0.022924797 0.293136573 -0.23585125
v -0.0784606243 0.420679092 -0.255970453
v 0.0260610884 0.420679092 -0.265635351
v -0.0848398838 0.430215978 -0.277433781
v 0.0283653025 0.430215978 -0.287888086
v -0.185414563 0.430215978 -0.224479527
v -0.247713686 0.300049216 0.131350873
v 0.127531851 0.300049216 0.247671015
v -0.084178489 0.300049216 0.267214164
v 0.263373807 0.300049216 0.0841358184
v 0.243830658 0.300049216 -0.127574522
v 0.0803167968 0.300049216 -0.263416478
v -0.131393543 0.300049216 -0.243873329
v -0.267256835 0.300049216 -0.0803381321
v 0.0492739121 0.341866435 -0.0185083866
v 0.00628325054 0.384537067 -0.0173136089
v 0.000821409663 0.341866435 -0.033528449
v 0.0542023701 0.388654783 -0.00419238958
v 0.0729347775 0.341866435 0.0263811181
v 0.0570826378 0.443742568 0.00227221115
v 0.00848078808 0.435656484 -0.0106996609
v 0.0777352236 0.404634934 0.0403984207
v 0.0578933798 0.341866435 0.0748549559
v 0.0546290764 0.497806259 -0.0150307301
v 0.004085713 0.485239758 -0.0275972312
v 0.0804874793 0.461898922 0.0459456029
v 0.0632272088 0.42597025 0.0906004191
v 0.0130038751 0.341866435 0.098494486
v 0.0475030809 0.53638051 -0.0514501144
v -0.00570719701 0.519994988 -0.0634618972
v -0.032312336 0.564905828 -0.165914084
v 0.0785246303 0.519504275 0.0292613858
v 0.0650833812 0.480674 0.0949741589
v 0.0184657159 0.431304079 0.11464532
v -0.0354486274 0.341866435 0.0834744236
v 0.0723800593 0.562004225 -0.00519514943
v 0.0330804073 0.590678889 -0.154777049
v 0.062096437 0.537041905 0.079719408
v 0.0195324817 0.485197087 0.118955054
v -0.0303494869 0.416305352 0.09843048
v -0.0590881575 0.341866435 0.0385849189
v 0.0550557828 0.57992589 0.0488685411
v 0.0147320356 0.541010274 0.10453238
v -0.0296667568 0.472374562 0.103764309
v -0.054394388 0.394671342 0.0522395211
v -0.0440680951 0.341866435 -0.00988891893
v 0.0614990482 0.636933854 -0.109802203
v 0.00532316132 0.583766247 0.0752389916
v -0.036430052 0.529553209 0.0890856117
v -0.05351964 0.451721977 0.0590241515
v -0.0388409427 0.385731844 0.0055578498
v 0.000821409663 0.341866435 -0.033528449
v 0.00628325054 0.384537067 -0.0173136089
v 0.00848078808 0.435656484 -0.0106996609
v -0.0374541471 0.438387404 0.0124704922
v 0.004085713 0.485239758 -0.0275972312
v -0.0440680951 0.489677504 -0.00374434795
v -0.00570719701 0.519994988 -0.0634618972
v -0.0612216891 0.50832457 0.0435773828
v -0.0568906199 0.525862199 -0.0386915954
v -0.0754310095 0.549331047 0.0100382661
v -0.0965743076 0.573930666 -0.136087313
v -0.032312336 0.564905828 -0.165914084
v -0.0397796966 0.589825477 -0.182726313
v -0.122539387 0.612760941 -0.0829197054
v -0.0958275715 0.597868891 -0.157038593
v -0.0449215077 0.6180521 -0.183601061
v -0.0842851656 0.623855305 -0.165423372
v -0.119061731 0.632709462 -0.111253005
v -0.100051964 0.648689613 -0.133143039
v -0.0488685411 0.5725012 0.0583200861
v -0.0950595001 0.659549289 -0.0377101709
v -0.095251518 0.674846711 -0.0718253411
v -0.0830263819 0.678025673 -0.105641817
v -0.0293253917 0.686581134 -0.0268718304
v -0.0375181531 0.699104965 -0.0623311255
v -0.0431080058 0.694667219 -0.0990492042
v 0.0358326631 0.677044248 -0.0568906199
v 0.0197671702 0.690570838 -0.088701576
v -0.00370167731 0.688821342 -0.117205558
v 0.0422332579 0.654492819 -0.135041882
v 0.0120437858 0.663923029 -0.149485891
v 0.017185597 0.612867618 -0.173765481
v -0.0050244669 0.634608305 -0.176965778
v -0.0397796966 0.589825477 -0.182726313
v -0.0449215077 0.6180521 -0.183601061
v -0.0842851656 0.623855305 -0.165423372
v -0.0449215077 0.6180521 -0.183601061
v -0.0449641783 0.658546529 -0.144557433
v -0.100051964 0.648689613 -0.133143039
v -0.0050244669 0.634608305 -0.176965778
v -0.0830263819 0.678025673 -0.105641817
v 0.0120437858 0.663923029 -0.149485891
v -0.0431080058 0.694667219 -0.0990492042
v -0.00370167731 0.688821342 -0.117205558
v -0.325160882 -0.699104965 0.26390719
v -0.200306614 -0.699104965 0.367639496
v -0.00193084609 -0.699104965 0.00190951078
v -0.400815913 -0.699104965 0.120235173
v -0.0452202021 -0.699104965 0.415729299
v -0.415750634 -0.699104965 -0.0414011806
v 0.116416151 -0.699104965 0.400773242
v -0.367682167 -0.699104965 -0.196444921
v 0.260066834 -0.699104965 0.325118212
v -0.263928526 -0.699104965 -0.321341861
v 0.36379914 -0.699104965 0.200242608
v -0.120299179 -0.699104965 -0.396996891
v 0.411867606 -0.699104965 0.0451775315
v 0.0413371746 -0.699104965 -0.411910277
v 0.396932885 -0.699104965 -0.116480157
v 0.196380915 -0.699104965 -0.36384181
v 0.321277855 -0.699104965 -0.260109504
vt 0.866070753 0.0179747959
vt 0.868013699 0.000488281308
vt 0.866070753 0.000488281308
vt 0.868013699 0.0179747959
vt 0.866070753 0.0354613105
vt 0.870928118 0.000488281308
vt 0.868013699 0.0354613105
vt 0.866070753 0.0529478251
vt 0.870928118 0.0179747959
vt 0.873842537 0.000488281308
vt 0.868013699 0.0529478251
vt 0.866070753 0.0714058127
vt 0.870928118 0.0354613105
vt 0.873842537 0.0179747959
vt 0.868013699 0.0714058127
vt 0.866070753 0.0888923273
vt 0.870928118 0.0529478251
vt 0.868013699 0.0888923273
vt 0.866070753 0.106378842
vt 0.885500214 0.0179747959
vt 0.885500214 0.000488281308
vt 0.889386106 0.000488281308
vt 0.873842537 0.0354613105
vt 0.870928118 0.0714058127
vt 0.868013699 0.106378842
vt 0.866070753 0.123865356
vt 0.889386106 0.0179747959
vt 0.893271998 0.000488281308
vt 0.893271998 0.0179747959
vt 0.885500214 0.0354613105
vt 0.889386106 0.0354613105
vt 0.893271998 0.0354613105
vt 0.885500214 0.0529478251
vt 0.889386106 0.0529478251
vt 0.893271998 0.0529478251
vt 0.873842537 0.0529478251
vt 0.885500214 0.0714058127
vt 0.889386106 0.0714058127
vt 0.893271998 0.0714058127
vt 0.873842537 0.0714058127
vt 0.885500214 0.0888923273
vt 0.889386106 0.0888923273
vt 0.893271998 0.0888923273
vt 0.870928118 0.0888923273
vt 0.873842537 0.0888923273
vt 0.885500214 0.106378842
vt 0.889386106 0.106378842
vt 0.893271998 0.106378842
vt 0.870928118 0.106378842
vt 0.873842537 0.106378842
vt 0.885500214 0.123865356
vt 0.889386106 0.123865356
vt 0.893271998 0.123865356
vt 0.868013699 0.123865356
vt 0.866070753 0.141351871
vt 0.870928118 0.123865356
vt 0.868013699 0.141351871
vt 0.866070753 0.158838386
vt 0.873842537 0.123865356
vt 0.885500214 0.141351871
vt 0.889386106 0.141351871
vt 0.893271998 0.141351871
vt 0.868013699 0.158838386
vt 0.866070753 0.177296373
vt 0.870928118 0.141351871
vt 0.873842537 0.141351871
vt 0.885500214 0.158838386
vt 0.889386106 0.158838386
vt 0.893271998 0.158838386
vt 0.868013699 0.177296373
vt 0.866070753 0.194782888
vt 0.870928118 0.158838386
vt 0.873842537 0.158838386
vt 0.885500214 0.177296373
vt 0.889386106 0.177296373
vt 0.893271998 0.177296373
vt 0.868013699 0.194782888
vt 0.866070753 0.212269402
vt 0.870928118 0.177296373
vt 0.873842537 0.177296373
vt 0.885500214 0.194782888
vt 0.889386106 0.194782888
vt 0.893271998 0.194782888
vt 0.868013699 0.212269402
vt 0.866070753 0.229755917
vt 0.870928118 0.194782888
vt 0.873842537 0.194782888
vt 0.885500214 0.212269402
vt 0.889386106 0.212269402
vt 0.893271998 0.212269402
vt 0.868013699 0.229755917
vt 0.866070753 0.247242432
vt 0.870928118 0.212269402
vt 0.873842537 0.212269402
vt 0.885500214 0.229755917
vt 0.889386106 0.229755917
vt 0.893271998 0.229755917
vt 0.868013699 0.247242432
vt 0.866070753 0.264728946
vt 0.870928118 0.229755917
vt 0.873842537 0.229755917
vt 0.885500214 0.247242432
vt 0.889386106 0.247242432
vt 0.893271998 0.247242432
vt 0.868013699 0.264728946
vt 0.866070753 0.282215461
vt 0.868013699 0.282215461
vt 0.870928118 0.247242432
vt 0.870928118 0.264728946
vt 0.870928118 0.282215461
vt 0.873842537 0.247242432
vt 0.873842537 0.264728946
vt 0.873842537 0.282215461
vt 0.885500214 0.282215461
vt 0.885500214 0.264728946
vt 0.889386106 0.264728946
vt 0.889386106 0.282215461
vt 0.893271998 0.264728946
vt 0.893271998 0.282215461
vt 0.829154778 0.271529257
vt 0.829154778 0.289987245
vt 0.83304067 0.289987245
vt 0.83304067 0.271529257
vt 0.829154778 0.254042743
vt 0.834983616 0.289987245
vt 0.83304067 0.254042743
vt 0.829154778 0.235584755
vt 0.834983616 0.271529257
vt 0.83304067 0.235584755
vt 0.829154778 0.217126768
vt 0.837898035 0.271529257
vt 0.837898035 0.289987245
vt 0.834983616 0.254042743
vt 0.83304067 0.217126768
vt 0.829154778 0.199640253
vt 0.850527185 0.271529257
vt 0.850527185 0.289987245
vt 0.854413077 0.289987245
vt 0.837898035 0.254042743
vt 0.834983616 0.235584755
vt 0.83304067 0.199640253
vt 0.829154778 0.181182265
vt 0.854413077 0.271529257
vt 0.858298969 0.289987245
vt 0.850527185 0.254042743
vt 0.837898035 0.235584755
vt 0.834983616 0.217126768
vt 0.83304067 0.181182265
vt 0.829154778 0.163695751
vt 0.850527185 0.235584755
vt 0.854413077 0.254042743
vt 0.837898035 0.217126768
vt 0.834983616 0.199640253
vt 0.83304067 0.163695751
vt 0.829154778 0.145237763
vt 0.850527185 0.217126768
vt 0.837898035 0.199640253
vt 0.834983616 0.181182265
vt 0.83304067 0.145237763
vt 0.829154778 0.126779776
vt 0.854413077 0.235584755
vt 0.850527185 0.199640253
vt 0.837898035 0.181182265
vt 0.834983616 0.163695751
vt 0.83304067 0.126779776
vt 0.829154778 0.109293261
vt 0.854413077 0.217126768
vt 0.850527185 0.181182265
vt 0.837898035 0.163695751
vt 0.834983616 0.145237763
vt 0.83304067 0.109293261
vt 0.829154778 0.0908352733
vt 0.854413077 0.199640253
vt 0.850527185 0.163695751
vt 0.837898035 0.145237763
vt 0.834983616 0.126779776
vt 0.83304067 0.0908352733
vt 0.829154778 0.0723772857
vt 0.854413077 0.181182265
vt 0.850527185 0.145237763
vt 0.837898035 0.126779776
vt 0.834983616 0.109293261
vt 0.83304067 0.0723772857
vt 0.829154778 0.0548907711
vt 0.854413077 0.163695751
vt 0.850527185 0.126779776
vt 0.837898035 0.109293261
vt 0.834983616 0.0908352733
vt 0.83304067 0.0548907711
vt 0.829154778 0.0364327835
vt 0.854413077 0.145237763
vt 0.850527185 0.109293261
vt 0.837898035 0.0908352733
vt 0.834983616 0.0723772857
vt 0.83304067 0.0364327835
vt 0.829154778 0.0189462689
vt 0.854413077 0.126779776
vt 0.850527185 0.0908352733
vt 0.837898035 0.0723772857
vt 0.834983616 0.0548907711
vt 0.83304067 0.0189462689
vt 0.829154778 0.000488281308
vt 0.83304067 0.000488281308
vt 0.834983616 0.0364327835
vt 0.834983616 0.0189462689
vt 0.834983616 0.000488281308
vt 0.837898035 0.000488281308
vt 0.837898035 0.0189462689
vt 0.850527185 0.000488281308
vt 0.837898035 0.0548907711
vt 0.837898035 0.0364327835
vt 0.850527185 0.0189462689
vt 0.850527185 0.0364327835
vt 0.850527185 0.0548907711
vt 0.854413077 0.0189462689
vt 0.854413077 0.000488281308
vt 0.854413077 0.0364327835
vt 0.858298969 0.0189462689
vt 0.858298969 0.000488281308
vt 0.862184861 0.000488281308
vt 0.862184861 0.0189462689
vt 0.858298969 0.0364327835
vt 0.862184861 0.0364327835
vt 0.858298969 0.0548907711
vt 0.862184861 0.0548907711
vt 0.854413077 0.0548907711
vt 0.858298969 0.0723772857
vt 0.862184861 0.0723772857
vt 0.854413077 0.0723772857
vt 0.858298969 0.0908352733
vt 0.862184861 0.0908352733
vt 0.850527185 0.0723772857
vt 0.854413077 0.0908352733
vt 0.858298969 0.109293261
vt 0.862184861 0.109293261
vt 0.854413077 0.109293261
vt 0.858298969 0.126779776
vt 0.862184861 0.126779776
vt 0.858298969 0.145237763
vt 0.862184861 0.145237763
vt 0.858298969 0.163695751
vt 0.862184861 0.163695751
vt 0.858298969 0.181182265
vt 0.862184861 0.181182265
vt 0.858298969 0.199640253
vt 0.862184861 0.199640253
vt 0.858298969 0.217126768
vt 0.862184861 0.217126768
vt 0.858298969 0.235584755
vt 0.862184861 0.235584755
vt 0.858298969 0.254042743
vt 0.862184861 0.254042743
vt 0.858298969 0.271529257
vt 0.862184861 0.271529257
vt 0.862184861 0.289987245
vt 0.751436935 0.0189462689
vt 0.76892345 0.000488281308
vt 0.751436935 0.000488281308
vt 0.76892345 0.0189462689
vt 0.751436935 0.0374042565
vt 0.786409965 0.0189462689
vt 0.786409965 0.000488281308
vt 0.76892345 0.0374042565
vt 0.751436935 0.0558622442
vt 0.804867952 0.0189462689
vt 0.804867952 0.000488281308
vt 0.786409965 0.0374042565
vt 0.76892345 0.0558622442
vt 0.751436935 0.0743202318
vt 0.822354467 0.0189462689
vt 0.822354467 0.000488281308
vt 0.822354467 0.0374042565
vt 0.804867952 0.0374042565
vt 0.822354467 0.0558622442
vt 0.804867952 0.0558622442
vt 0.822354467 0.0743202318
vt 0.786409965 0.0558622442
vt 0.804867952 0.0743202318
vt 0.822354467 0.0937496924
vt 0.786409965 0.0743202318
vt 0.804867952 0.0937496924
vt 0.822354467 0.11220768
vt 0.76892345 0.0743202318
vt 0.751436935 0.0937496924
vt 0.804867952 0.11220768
vt 0.822354467 0.130665668
vt 0.786409965 0.0937496924
vt 0.76892345 0.0937496924
vt 0.751436935 0.11220768
vt 0.804867952 0.130665668
vt 0.822354467 0.149123655
vt 0.786409965 0.11220768
vt 0.76892345 0.11220768
vt 0.751436935 0.130665668
vt 0.804867952 0.149123655
vt 0.822354467 0.167581643
vt 0.786409965 0.130665668
vt 0.76892345 0.130665668
vt 0.751436935 0.149123655
vt 0.804867952 0.167581643
vt 0.822354467 0.186039631
vt 0.786409965 0.149123655
vt 0.76892345 0.149123655
vt 0.751436935 0.167581643
vt 0.804867952 0.186039631
vt 0.822354467 0.204497618
vt 0.786409965 0.167581643
vt 0.76892345 0.167581643
vt 0.751436935 0.186039631
vt 0.804867952 0.204497618
vt 0.822354467 0.222955606
vt 0.786409965 0.186039631
vt 0.76892345 0.186039631
vt 0.751436935 0.204497618
vt 0.804867952 0.222955606
vt 0.822354467 0.242385066
vt 0.786409965 0.204497618
vt 0.76892345 0.204497618
vt 0.751436935 0.222955606
vt 0.804867952 0.242385066
vt 0.822354467 0.260843054
vt 0.786409965 0.222955606
vt 0.76892345 0.222955606
vt 0.751436935 0.242385066
vt 0.804867952 0.260843054
vt 0.822354467 0.279301042
vt 0.786409965 0.242385066
vt 0.76892345 0.242385066
vt 0.751436935 0.260843054
vt 0.804867952 0.279301042
vt 0.822354467 0.297759029
vt 0.804867952 0.297759029
vt 0.786409965 0.260843054
vt 0.76892345 0.260843054
vt 0.751436935 0.279301042
vt 0.786409965 0.279301042
vt 0.786409965 0.297759029
vt 0.76892345 0.279301042
vt 0.751436935 0.297759029
vt 0.76892345 0.297759029
vt 0.94184565 0.180210792
vt 0.926302081 0.192839942
vt 0.94184565 0.192839942
vt 0.926302081 0.180210792
vt 0.94184565 0.168553116
vt 0.923387662 0.180210792
vt 0.923387662 0.192839942
vt 0.926302081 0.168553116
vt 0.94184565 0.15689544
vt 0.920473243 0.180210792
vt 0.920473243 0.192839942
vt 0.912701459 0.192839942
vt 0.923387662 0.168553116
vt 0.926302081 0.15689544
vt 0.94184565 0.14426629
vt 0.920473243 0.168553116
vt 0.912701459 0.180210792
vt 0.923387662 0.15689544
vt 0.926302081 0.14426629
vt 0.94184565 0.132608614
vt 0.920473243 0.15689544
vt 0.923387662 0.14426629
vt 0.926302081 0.132608614
vt 0.94184565 0.120950937
vt 0.910758513 0.180210792
vt 0.910758513 0.192839942
vt 0.912701459 0.168553116
vt 0.920473243 0.14426629
vt 0.923387662 0.132608614
vt 0.926302081 0.120950937
vt 0.94184565 0.108321788
vt 0.908815567 0.180210792
vt 0.908815567 0.192839942
vt 0.899100836 0.192839942
vt 0.899100836 0.180210792
vt 0.908815567 0.168553116
vt 0.899100836 0.168553116
vt 0.910758513 0.168553116
vt 0.908815567 0.15689544
vt 0.899100836 0.15689544
vt 0.910758513 0.15689544
vt 0.908815567 0.14426629
vt 0.899100836 0.14426629
vt 0.912701459 0.15689544
vt 0.910758513 0.14426629
vt 0.908815567 0.132608614
vt 0.899100836 0.132608614
vt 0.912701459 0.14426629
vt 0.910758513 0.132608614
vt 0.908815567 0.120950937
vt 0.899100836 0.120950937
vt 0.920473243 0.132608614
vt 0.912701459 0.132608614
vt 0.910758513 0.120950937
vt 0.908815567 0.108321788
vt 0.899100836 0.108321788
vt 0.920473243 0.120950937
vt 0.912701459 0.120950937
vt 0.910758513 0.108321788
vt 0.908815567 0.0966641115
vt 0.899100836 0.0966641115
vt 0.923387662 0.120950937
vt 0.920473243 0.108321788
vt 0.912701459 0.108321788
vt 0.910758513 0.0966641115
vt 0.908815567 0.0840349621
vt 0.899100836 0.0840349621
vt 0.923387662 0.108321788
vt 0.920473243 0.0966641115
vt 0.912701459 0.0966641115
vt 0.910758513 0.0840349621
vt 0.908815567 0.0723772857
vt 0.899100836 0.0723772857
vt 0.926302081 0.108321788
vt 0.94184565 0.0966641115
vt 0.923387662 0.0966641115
vt 0.926302081 0.0966641115
vt 0.94184565 0.0840349621
vt 0.920473243 0.0840349621
vt 0.912701459 0.0840349621
vt 0.910758513 0.0723772857
vt 0.926302081 0.0840349621
vt 0.94184565 0.0723772857
vt 0.923387662 0.0840349621
vt 0.920473243 0.0723772857
vt 0.926302081 0.0723772857
vt 0.94184565 0.0607196093
vt 0.923387662 0.0723772857
vt 0.912701459 0.0723772857
vt 0.908815567 0.0607196093
vt 0.899100836 0.0607196093
vt 0.926302081 0.0607196093
vt 0.94184565 0.0480904599
vt 0.923387662 0.0607196093
vt 0.920473243 0.0607196093
vt 0.910758513 0.0607196093
vt 0.908815567 0.0480904599
vt 0.899100836 0.0480904599
vt 0.926302081 0.0480904599
vt 0.94184565 0.0364327835
vt 0.923387662 0.0480904599
vt 0.920473243 0.0480904599
vt 0.912701459 0.0607196093
vt 0.910758513 0.0480904599
vt 0.908815567 0.0364327835
vt 0.899100836 0.0364327835
vt 0.926302081 0.0364327835
vt 0.94184565 0.0247751071
vt 0.923387662 0.0364327835
vt 0.920473243 0.0364327835
vt 0.912701459 0.0480904599
vt 0.910758513 0.0364327835
vt 0.908815567 0.0247751071
vt 0.899100836 0.0247751071
vt 0.926302081 0.0247751071
vt 0.94184565 0.0121459577
vt 0.923387662 0.0247751071
vt 0.920473243 0.0247751071
vt 0.912701459 0.0364327835
vt 0.910758513 0.0247751071
vt 0.908815567 0.0121459577
vt 0.899100836 0.0121459577
vt 0.926302081 0.0121459577
vt 0.94184565 0.000488281308
vt 0.926302081 0.000488281308
vt 0.923387662 0.000488281308
vt 0.923387662 0.0121459577
vt 0.920473243 0.000488281308
vt 0.920473243 0.0121459577
vt 0.908815567 0.000488281308
vt 0.899100836 0.000488281308
vt 0.910758513 0.0121459577
vt 0.910758513 0.000488281308
vt 0.912701459 0.0121459577
vt 0.912701459 0.000488281308
vt 0.912701459 0.0247751071
vt 0.96127511 0.0471189869
vt 0.947674488 0.0140889038
vt 0.947674488 0.0335183644
vt 0.96127511 0.000488281308
vt 0.980704571 0.000488281308
vt 0.994305193 0.0140889038
vt 0.994305193 0.0335183644
vt 0.980704571 0.0471189869
vt 0.986533409 0.0830634891
vt 0.980704571 0.0888923273
vt 0.986533409 0.0888923273
vt 0.980704571 0.0830634891
vt 0.986533409 0.0782061239
vt 0.974875733 0.0830634891
vt 0.974875733 0.0888923273
vt 0.980704571 0.0782061239
vt 0.986533409 0.0733487587
vt 0.970018368 0.0830634891
vt 0.970018368 0.0888923273
vt 0.974875733 0.0782061239
vt 0.980704571 0.0733487587
vt 0.986533409 0.0675199205
vt 0.965161003 0.0830634891
vt 0.965161003 0.0888923273
vt 0.953503326 0.0888923273
vt 0.970018368 0.0782061239
vt 0.974875733 0.0733487587
vt 0.980704571 0.0675199205
vt 0.986533409 0.0626625554
vt 0.965161003 0.0782061239
vt 0.953503326 0.0830634891
vt 0.970018368 0.0733487587
vt 0.974875733 0.0675199205
vt 0.980704571 0.0626625554
vt 0.986533409 0.0578051902
vt 0.965161003 0.0733487587
vt 0.970018368 0.0675199205
vt 0.974875733 0.0626625554
vt 0.980704571 0.0578051902
vt 0.986533409 0.0529478251
vt 0.953503326 0.0782061239
vt 0.965161003 0.0675199205
vt 0.970018368 0.0626625554
vt 0.974875733 0.0578051902
vt 0.980704571 0.0529478251
vt 0.986533409 0.0471189869
vt 0.980704571 0.0471189869
vt 0.974875733 0.0471189869
vt 0.974875733 0.0529478251
vt 0.970018368 0.0471189869
vt 0.970018368 0.0529478251
vt 0.965161003 0.0471189869
vt 0.970018368 0.0578051902
vt 0.965161003 0.0529478251
vt 0.965161003 0.0578051902
vt 0.953503326 0.0529478251
vt 0.953503326 0.0471189869
vt 0.950588907 0.0471189869
vt 0.953503326 0.0578051902
vt 0.950588907 0.0529478251
vt 0.947674488 0.0471189869
vt 0.947674488 0.0529478251
vt 0.950588907 0.0578051902
vt 0.947674488 0.0578051902
vt 0.965161003 0.0626625554
vt 0.953503326 0.0626625554
vt 0.950588907 0.0626625554
vt 0.947674488 0.0626625554
vt 0.953503326 0.0675199205
vt 0.950588907 0.0675199205
vt 0.947674488 0.0675199205
vt 0.953503326 0.0733487587
vt 0.950588907 0.0733487587
vt 0.947674488 0.0733487587
vt 0.950588907 0.0782061239
vt 0.947674488 0.0782061239
vt 0.950588907 0.0830634891
vt 0.947674488 0.0830634891
vt 0.950588907 0.0888923273
vt 0.947674488 0.0888923273
vt 0.947674488 0.0918067464
vt 0.947674488 0.0956926385
vt 0.952531853 0.0937496924
vt 0.950588907 0.0888923273
vt 0.950588907 0.0986070576
vt 0.954474799 0.0888923273
vt 0.954474799 0.0986070576
vt 0.957389218 0.0918067464
vt 0.957389218 0.0956926385
vt 0.956417745 0.19866878
vt 0.942817123 0.192839942
vt 0.936016812 0.229755917
vt 0.967103949 0.209354983
vt 0.928245027 0.192839942
vt 0.972932787 0.222955606
vt 0.914644405 0.19866878
vt 0.972932787 0.237527701
vt 0.903958201 0.209354983
vt 0.967103949 0.251128324
vt 0.899100836 0.222955606
vt 0.956417745 0.261814527
vt 0.899100836 0.237527701
vt 0.942817123 0.266671892
vt 0.903958201 0.251128324
vt 0.928245027 0.266671892
vt 0.914644405 0.261814527
g shuitongshuitong_mobile_0
f 3/3/3 2/2/2 1/1/1
f 2/2/2 4/4/4 1/1/1
f 1/1/1 4/4/4 5/5/5
f 2/2/2 6/6/6 4/4/4
f 4/4/4 7/7/7 5/5/5
f 5/5/5 7/7/7 8/8/8
f 6/6/6 9/9/9 4/4/4
f 4/4/4 9/9/9 7/7/7
f 6/6/6 10/10/10 9/9/9
f 7/7/7 11/11/11 8/8/8
f 8/8/8 11/11/11 12/12/12
f 9/9/9 13/13/13 7/7/7
f 7/7/7 13/13/13 11/11/11
f 10/10/10 14/14/14 9/9/9
f 9/9/9 14/14/14 13/13/13
f 11/11/11 15/15/15 12/12/12
f 12/12/12 15/15/15 16/16/16
f 13/13/13 17/17/17 11/11/11
f 11/11/11 17/17/17 15/15/15
f 15/15/15 18/18/18 16/16/16
f 16/16/16 18/18/18 19/19/19
f 20/20/20 14/14/14 10/10/10
f 21/21/21 20/20/20 10/10/10
f 21/21/21 22/22/22 20/20/20
f 14/14/14 23/23/23 13/13/13
f 13/13/13 23/23/23 17/17/17
f 17/17/17 24/24/24 15/15/15
f 15/15/15 24/24/24 18/18/18
f 18/18/18 25/25/25 19/19/19
f 19/19/19 25/25/25 26/26/26
f 22/22/22 27/27/27 20/20/20
f 22/22/22 28/28/28 27/27/27
f 28/28/28 29/29/29 27/27/27
f 20/20/20 30/30/30 14/14/14
f 20/20/20 27/27/27 30/30/30
f 30/30/30 23/23/23 14/14/14
f 27/27/27 29/29/29 31/31/31
f 27/27/27 31/31/31 30/30/30
f 29/29/29 32/32/32 31/31/31
f 30/30/30 33/33/33 23/23/23
f 30/30/30 31/31/31 33/33/33
f 31/31/31 32/32/32 34/34/34
f 31/31/31 34/34/34 33/33/33
f 32/32/32 35/35/35 34/34/34
f 33/33/33 36/36/36 23/23/23
f 23/23/23 36/36/36 17/17/17
f 17/17/17 36/36/36 24/24/24
f 33/33/33 34/34/34 37/37/37
f 33/33/33 37/37/37 36/36/36
f 34/34/34 35/35/35 38/38/38
f 34/34/34 38/38/38 37/37/37
f 35/35/35 39/39/39 38/38/38
f 36/36/36 40/40/40 24/24/24
f 37/37/37 40/40/40 36/36/36
f 37/37/37 38/38/38 41/41/41
f 37/37/37 41/41/41 40/40/40
f 38/38/38 39/39/39 42/42/42
f 38/38/38 42/42/42 41/41/41
f 39/39/39 43/43/43 42/42/42
f 24/24/24 40/40/40 44/44/44
f 24/24/24 44/44/44 18/18/18
f 18/18/18 44/44/44 25/25/25
f 41/41/41 45/45/45 40/40/40
f 40/40/40 45/45/45 44/44/44
f 41/41/41 42/42/42 46/46/46
f 45/45/45 41/41/41 46/46/46
f 42/42/42 43/43/43 47/47/47
f 42/42/42 47/47/47 46/46/46
f 43/43/43 48/48/48 47/47/47
f 44/44/44 49/49/49 25/25/25
f 44/44/44 45/45/45 49/49/49
f 50/50/50 45/45/45 46/46/46
f 45/45/45 50/50/50 49/49/49
f 46/46/46 47/47/47 51/51/51
f 46/46/46 51/51/51 50/50/50
f 47/47/47 48/48/48 52/52/52
f 47/47/47 52/52/52 51/51/51
f 48/48/48 53/53/53 52/52/52
f 25/25/25 49/49/49 54/54/54
f 25/25/25 54/54/54 26/26/26
f 26/26/26 54/54/54 55/55/55
f 49/49/49 50/50/50 56/56/56
f 49/49/49 56/56/56 54/54/54
f 54/54/54 57/57/57 55/55/55
f 54/54/54 56/56/56 57/57/57
f 55/55/55 57/57/57 58/58/58
f 51/51/51 59/59/59 50/50/50
f 50/50/50 59/59/59 56/56/56
f 51/51/51 52/52/52 60/60/60
f 51/51/51 60/60/60 59/59/59
f 52/52/52 53/53/53 61/61/61
f 52/52/52 61/61/61 60/60/60
f 53/53/53 62/62/62 61/61/61
f 57/57/57 63/63/63 58/58/58
f 58/58/58 63/63/63 64/64/64
f 56/56/56 65/65/65 57/57/57
f 56/56/56 59/59/59 65/65/65
f 57/57/57 65/65/65 63/63/63
f 60/60/60 66/66/66 59/59/59
f 59/59/59 66/66/66 65/65/65
f 60/60/60 61/61/61 67/67/67
f 60/60/60 67/67/67 66/66/66
f 61/61/61 62/62/62 68/68/68
f 61/61/61 68/68/68 67/67/67
f 62/62/62 69/69/69 68/68/68
f 63/63/63 70/70/70 64/64/64
f 64/64/64 70/70/70 71/71/71
f 65/65/65 72/72/72 63/63/63
f 65/65/65 66/66/66 72/72/72
f 63/63/63 72/72/72 70/70/70
f 67/67/67 73/73/73 66/66/66
f 66/66/66 73/73/73 72/72/72
f 67/67/67 68/68/68 74/74/74
f 67/67/67 74/74/74 73/73/73
f 68/68/68 69/69/69 75/75/75
f 68/68/68 75/75/75 74/74/74
f 69/69/69 76/76/76 75/75/75
f 70/70/70 77/77/77 71/71/71
f 71/71/71 77/77/77 78/78/78
f 72/72/72 79/79/79 70/70/70
f 72/72/72 73/73/73 79/79/79
f 70/70/70 79/79/79 77/77/77
f 74/74/74 80/80/80 73/73/73
f 73/73/73 80/80/80 79/79/79
f 74/74/74 75/75/75 81/81/81
f 74/74/74 81/81/81 80/80/80
f 75/75/75 76/76/76 82/82/82
f 75/75/75 82/82/82 81/81/81
f 76/76/76 83/83/83 82/82/82
f 77/77/77 84/84/84 78/78/78
f 78/78/78 84/84/84 85/85/85
f 79/79/79 86/86/86 77/77/77
f 79/79/79 80/80/80 86/86/86
f 77/77/77 86/86/86 84/84/84
f 81/81/81 87/87/87 80/80/80
f 80/80/80 87/87/87 86/86/86
f 81/81/81 82/82/82 88/88/88
f 81/81/81 88/88/88 87/87/87
f 82/82/82 83/83/83 89/89/89
f 82/82/82 89/89/89 88/88/88
f 83/83/83 90/90/90 89/89/89
f 84/84/84 91/91/91 85/85/85
f 85/85/85 91/91/91 92/92/92
f 86/86/86 93/93/93 84/84/84
f 86/86/86 87/87/87 93/93/93
f 84/84/84 93/93/93 91/91/91
f 88/88/88 94/94/94 87/87/87
f 87/87/87 94/94/94 93/93/93
f 88/88/88 89/89/89 95/95/95
f 88/88/88 95/95/95 94/94/94
f 89/89/89 90/90/90 96/96/96
f 89/89/89 96/96/96 95/95/95
f 90/90/90 97/97/97 96/96/96
f 91/91/91 98/98/98 92/92/92
f 92/92/92 98/98/98 99/99/99
f 93/93/93 100/100/100 91/91/91
f 93/93/93 94/94/94 100/100/100
f 91/91/91 100/100/100 98/98/98
f 95/95/95 101/101/101 94/94/94
f 94/94/94 101/101/101 100/100/100
f 95/95/95 96/96/96 102/102/102
f 95/95/95 102/102/102 101/101/101
f 96/96/96 97/97/97 103/103/103
f 96/96/96 103/103/103 102/102/102
f 97/97/97 104/104/104 103/103/103
f 98/98/98 105/105/105 99/99/99
f 99/99/99 105/105/105 106/106/106
f 105/105/105 107/107/107 106/106/106
f 100/100/100 108/108/108 98/98/98
f 100/100/100 101/101/101 108/108/108
f 98/98/98 108/108/108 105/105/105
f 105/105/105 109/109/109 107/107/107
f 108/108/108 109/109/109 105/105/105
f 109/109/109 110/110/110 107/107/107
f 101/101/101 111/111/111 108/108/108
f 102/102/102 111/111/111 101/101/101
f 108/108/108 111/111/111 109/109/109
f 109/109/109 112/112/112 110/110/110
f 111/111/111 112/112/112 109/109/109
f 112/112/112 113/113/113 110/110/110
f 114/114/114 113/113/113 112/112/112
f 102/102/102 115/115/115 111/111/111
f 115/115/115 112/112/112 111/111/111
f 115/115/115 114/114/114 112/112/112
f 102/102/102 103/103/103 115/115/115
f 115/115/115 116/116/116 114/114/114
f 103/103/103 116/116/116 115/115/115
f 103/103/103 104/104/104 116/116/116
f 116/116/116 117/117/117 114/114/114
f 104/104/104 118/118/118 116/116/116
f 116/116/116 118/118/118 117/117/117
f 118/118/118 119/119/119 117/117/117
f 122/122/122 121/121/121 120/120/120
f 123/123/123 122/122/122 120/120/120
f 123/123/123 120/120/120 124/124/124
f 125/125/125 122/122/122 123/123/123
f 126/126/126 123/123/123 124/124/124
f 126/126/126 124/124/124 127/127/127
f 128/128/128 125/125/125 123/123/123
f 128/128/128 123/123/123 126/126/126
f 129/129/129 126/126/126 127/127/127
f 129/129/129 127/127/127 130/130/130
f 128/128/128 131/131/131 125/125/125
f 131/131/131 132/132/132 125/125/125
f 133/133/133 128/128/128 126/126/126
f 133/133/133 126/126/126 129/129/129
f 134/134/134 129/129/129 130/130/130
f 134/134/134 130/130/130 135/135/135
f 131/131/131 136/136/136 132/132/132
f 136/136/136 137/137/137 132/132/132
f 138/138/138 137/137/137 136/136/136
f 139/139/139 131/131/131 128/128/128
f 133/133/133 139/139/139 128/128/128
f 140/140/140 133/133/133 129/129/129
f 140/140/140 129/129/129 134/134/134
f 141/141/141 134/134/134 135/135/135
f 141/141/141 135/135/135 142/142/142
f 143/143/143 138/138/138 136/136/136
f 144/144/144 138/138/138 143/143/143
f 145/145/145 136/136/136 131/131/131
f 139/139/139 145/145/145 131/131/131
f 143/143/143 136/136/136 145/145/145
f 146/146/146 139/139/139 133/133/133
f 140/140/140 146/146/146 133/133/133
f 147/147/147 140/140/140 134/134/134
f 147/147/147 134/134/134 141/141/141
f 148/148/148 141/141/141 142/142/142
f 148/148/148 142/142/142 149/149/149
f 150/150/150 145/145/145 139/139/139
f 146/146/146 150/150/150 139/139/139
f 151/151/151 143/143/143 145/145/145
f 151/151/151 145/145/145 150/150/150
f 152/152/152 146/146/146 140/140/140
f 147/147/147 152/152/152 140/140/140
f 153/153/153 147/147/147 141/141/141
f 153/153/153 141/141/141 148/148/148
f 154/154/154 148/148/148 149/149/149
f 154/154/154 149/149/149 155/155/155
f 156/156/156 150/150/150 146/146/146
f 152/152/152 156/156/156 146/146/146
f 157/157/157 152/152/152 147/147/147
f 153/153/153 157/157/157 147/147/147
f 158/158/158 153/153/153 148/148/148
f 158/158/158 148/148/148 154/154/154
f 159/159/159 154/154/154 155/155/155
f 159/159/159 155/155/155 160/160/160
f 161/161/161 150/150/150 156/156/156
f 161/161/161 151/151/151 150/150/150
f 162/162/162 156/156/156 152/152/152
f 157/157/157 162/162/162 152/152/152
f 163/163/163 157/157/157 153/153/153
f 158/158/158 163/163/163 153/153/153
f 164/164/164 158/158/158 154/154/154
f 164/164/164 154/154/154 159/159/159
f 165/165/165 159/159/159 160/160/160
f 165/165/165 160/160/160 166/166/166
f 167/167/167 161/161/161 156/156/156
f 167/167/167 156/156/156 162/162/162
f 162/162/162 157/157/157 168/168/168
f 157/157/157 163/163/163 168/168/168
f 169/169/169 163/163/163 158/158/158
f 164/164/164 169/169/169 158/158/158
f 170/170/170 164/164/164 159/159/159
f 170/170/170 159/159/159 165/165/165
f 171/171/171 165/165/165 166/166/166
f 171/171/171 166/166/166 172/172/172
f 173/173/173 167/167/167 162/162/162
f 173/173/173 162/162/162 168/168/168
f 174/174/174 168/168/168 163/163/163
f 169/169/169 174/174/174 163/163/163
f 175/175/175 169/169/169 164/164/164
f 170/170/170 175/175/175 164/164/164
f 176/176/176 170/170/170 165/165/165
f 176/176/176 165/165/165 171/171/171
f 177/177/177 171/171/171 172/172/172
f 177/177/177 172/172/172 178/178/178
f 179/179/179 173/173/173 168/168/168
f 179/179/179 168/168/168 174/174/174
f 180/180/180 174/174/174 169/169/169
f 175/175/175 180/180/180 169/169/169
f 181/181/181 175/175/175 170/170/170
f 176/176/176 181/181/181 170/170/170
f 182/182/182 176/176/176 171/171/171
f 182/182/182 171/171/171 177/177/177
f 183/183/183 177/177/177 178/178/178
f 183/183/183 178/178/178 184/184/184
f 185/185/185 179/179/179 174/174/174
f 185/185/185 174/174/174 180/180/180
f 186/186/186 180/180/180 175/175/175
f 181/181/181 186/186/186 175/175/175
f 187/187/187 181/181/181 176/176/176
f 182/182/182 187/187/187 176/176/176
f 188/188/188 182/182/182 177/177/177
f 188/188/188 177/177/177 183/183/183
f 189/189/189 183/183/183 184/184/184
f 189/189/189 184/184/184 190/190/190
f 191/191/191 185/185/185 180/180/180
f 191/191/191 180/180/180 186/186/186
f 192/192/192 186/186/186 181/181/181
f 187/187/187 192/192/192 181/181/181
f 193/193/193 187/187/187 182/182/182
f 188/188/188 193/193/193 182/182/182
f 194/194/194 188/188/188 183/183/183
f 194/194/194 183/183/183 189/189/189
f 195/195/195 189/189/189 190/190/190
f 195/195/195 190/190/190 196/196/196
f 197/197/197 191/191/191 186/186/186
f 197/197/197 186/186/186 192/192/192
f 198/198/198 192/192/192 187/187/187
f 193/193/193 198/198/198 187/187/187
f 199/199/199 193/193/193 188/188/188
f 194/194/194 199/199/199 188/188/188
f 200/200/200 194/194/194 189/189/189
f 200/200/200 189/189/189 195/195/195
f 201/201/201 195/195/195 196/196/196
f 201/201/201 196/196/196 202/202/202
f 203/203/203 201/201/201 202/202/202
f 204/204/204 195/195/195 201/201/201
f 204/204/204 200/200/200 195/195/195
f 205/205/205 201/201/201 203/203/203
f 205/205/205 204/204/204 201/201/201
f 206/206/206 205/205/205 203/203/203
f 206/206/206 207/207/207 205/205/205
f 207/207/207 208/208/208 205/205/205
f 205/205/205 208/208/208 204/204/204
f 207/207/207 209/209/209 208/208/208
f 200/200/200 210/210/210 194/194/194
f 210/210/210 199/199/199 194/194/194
f 204/204/204 211/211/211 200/200/200
f 208/208/208 211/211/211 204/204/204
f 211/211/211 210/210/210 200/200/200
f 209/209/209 212/212/212 208/208/208
f 208/208/208 212/212/212 211/211/211
f 211/211/211 213/213/213 210/210/210
f 212/212/212 213/213/213 211/211/211
f 210/210/210 214/214/214 199/199/199
f 213/213/213 214/214/214 210/210/210
f 215/215/215 212/212/212 209/209/209
f 216/216/216 215/215/215 209/209/209
f 217/217/217 213/213/213 212/212/212
f 215/215/215 217/217/217 212/212/212
f 218/218/218 215/215/215 216/216/216
f 219/219/219 218/218/218 216/216/216
f 219/219/219 220/220/220 218/218/218
f 220/220/220 221/221/221 218/218/218
f 218/218/218 222/222/222 215/215/215
f 218/218/218 221/221/221 222/222/222
f 222/222/222 217/217/217 215/215/215
f 221/221/221 223/223/223 222/222/222
f 222/222/222 223/223/223 224/224/224
f 222/222/222 224/224/224 217/217/217
f 223/223/223 225/225/225 224/224/224
f 217/217/217 226/226/226 213/213/213
f 224/224/224 226/226/226 217/217/217
f 226/226/226 214/214/214 213/213/213
f 224/224/224 225/225/225 227/227/227
f 224/224/224 227/227/227 226/226/226
f 225/225/225 228/228/228 227/227/227
f 226/226/226 229/229/229 214/214/214
f 227/227/227 229/229/229 226/226/226
f 227/227/227 228/228/228 230/230/230
f 227/227/227 230/230/230 229/229/229
f 228/228/228 231/231/231 230/230/230
f 229/229/229 232/232/232 214/214/214
f 214/214/214 232/232/232 199/199/199
f 199/199/199 232/232/232 193/193/193
f 232/232/232 198/198/198 193/193/193
f 229/229/229 233/233/233 232/232/232
f 230/230/230 233/233/233 229/229/229
f 233/233/233 198/198/198 232/232/232
f 230/230/230 231/231/231 234/234/234
f 230/230/230 234/234/234 233/233/233
f 231/231/231 235/235/235 234/234/234
f 233/233/233 236/236/236 198/198/198
f 234/234/234 236/236/236 233/233/233
f 236/236/236 192/192/192 198/198/198
f 236/236/236 197/197/197 192/192/192
f 234/234/234 235/235/235 237/237/237
f 234/234/234 237/237/237 236/236/236
f 237/237/237 197/197/197 236/236/236
f 235/235/235 238/238/238 237/237/237
f 237/237/237 239/239/239 197/197/197
f 237/237/237 238/238/238 239/239/239
f 239/239/239 191/191/191 197/197/197
f 238/238/238 240/240/240 239/239/239
f 239/239/239 241/241/241 191/191/191
f 239/239/239 240/240/240 241/241/241
f 241/241/241 185/185/185 191/191/191
f 240/240/240 242/242/242 241/241/241
f 241/241/241 243/243/243 185/185/185
f 241/241/241 242/242/242 243/243/243
f 243/243/243 179/179/179 185/185/185
f 242/242/242 244/244/244 243/243/243
f 243/243/243 245/245/245 179/179/179
f 243/243/243 244/244/244 245/245/245
f 245/245/245 173/173/173 179/179/179
f 244/244/244 246/246/246 245/245/245
f 245/245/245 247/247/247 173/173/173
f 245/245/245 246/246/246 247/247/247
f 247/247/247 167/167/167 173/173/173
f 246/246/246 248/248/248 247/247/247
f 247/247/247 249/249/249 167/167/167
f 247/247/247 248/248/248 249/249/249
f 249/249/249 161/161/161 167/167/167
f 248/248/248 250/250/250 249/249/249
f 249/249/249 251/251/251 161/161/161
f 249/249/249 250/250/250 251/251/251
f 251/251/251 151/151/151 161/161/161
f 250/250/250 252/252/252 251/251/251
f 251/251/251 253/253/253 151/151/151
f 251/251/251 252/252/252 253/253/253
f 253/253/253 143/143/143 151/151/151
f 252/252/252 254/254/254 253/253/253
f 253/253/253 144/144/144 143/143/143
f 253/253/253 254/254/254 144/144/144
f 254/254/254 255/255/255 144/144/144
f 258/258/258 257/257/257 256/256/256
f 257/257/257 259/259/259 256/256/256
f 256/256/256 259/259/259 260/260/260
f 261/261/261 259/259/259 257/257/257
f 262/262/262 261/261/261 257/257/257
f 259/259/259 263/263/263 260/260/260
f 260/260/260 263/263/263 264/264/264
f 265/265/265 261/261/261 262/262/262
f 266/266/266 265/265/265 262/262/262
f 261/261/261 267/267/267 259/259/259
f 267/267/267 263/263/263 259/259/259
f 263/263/263 268/268/268 264/264/264
f 264/264/264 268/268/268 269/269/269
f 270/270/270 265/265/265 266/266/266
f 271/271/271 270/270/270 266/266/266
f 270/270/270 272/272/272 265/265/265
f 265/265/265 273/273/273 261/261/261
f 272/272/272 273/273/273 265/265/265
f 273/273/273 267/267/267 261/261/261
f 272/272/272 274/274/274 273/273/273
f 274/274/274 275/275/275 273/273/273
f 273/273/273 275/275/275 267/267/267
f 274/274/274 276/276/276 275/275/275
f 267/267/267 277/277/277 263/263/263
f 275/275/275 277/277/277 267/267/267
f 277/277/277 268/268/268 263/263/263
f 276/276/276 278/278/278 275/275/275
f 275/275/275 278/278/278 277/277/277
f 276/276/276 279/279/279 278/278/278
f 277/277/277 280/280/280 268/268/268
f 278/278/278 280/280/280 277/277/277
f 279/279/279 281/281/281 278/278/278
f 278/278/278 281/281/281 280/280/280
f 279/279/279 282/282/282 281/281/281
f 280/280/280 283/283/283 268/268/268
f 268/268/268 283/283/283 269/269/269
f 269/269/269 283/283/283 284/284/284
f 282/282/282 285/285/285 281/281/281
f 282/282/282 286/286/286 285/285/285
f 281/281/281 287/287/287 280/280/280
f 280/280/280 287/287/287 283/283/283
f 281/281/281 285/285/285 287/287/287
f 283/283/283 288/288/288 284/284/284
f 287/287/287 288/288/288 283/283/283
f 284/284/284 288/288/288 289/289/289
f 286/286/286 290/290/290 285/285/285
f 286/286/286 291/291/291 290/290/290
f 285/285/285 292/292/292 287/287/287
f 287/287/287 292/292/292 288/288/288
f 285/285/285 290/290/290 292/292/292
f 288/288/288 293/293/293 289/289/289
f 292/292/292 293/293/293 288/288/288
f 289/289/289 293/293/293 294/294/294
f 291/291/291 295/295/295 290/290/290
f 291/291/291 296/296/296 295/295/295
f 290/290/290 297/297/297 292/292/292
f 292/292/292 297/297/297 293/293/293
f 290/290/290 295/295/295 297/297/297
f 293/293/293 298/298/298 294/294/294
f 297/297/297 298/298/298 293/293/293
f 294/294/294 298/298/298 299/299/299
f 296/296/296 300/300/300 295/295/295
f 296/296/296 301/301/301 300/300/300
f 295/295/295 302/302/302 297/297/297
f 297/297/297 302/302/302 298/298/298
f 295/295/295 300/300/300 302/302/302
f 298/298/298 303/303/303 299/299/299
f 302/302/302 303/303/303 298/298/298
f 299/299/299 303/303/303 304/304/304
f 301/301/301 305/305/305 300/300/300
f 301/301/301 306/306/306 305/305/305
f 300/300/300 307/307/307 302/302/302
f 302/302/302 307/307/307 303/303/303
f 300/300/300 305/305/305 307/307/307
f 303/303/303 308/308/308 304/304/304
f 307/307/307 308/308/308 303/303/303
f 304/304/304 308/308/308 309/309/309
f 306/306/306 310/310/310 305/305/305
f 306/306/306 311/311/311 310/310/310
f 305/305/305 312/312/312 307/307/307
f 307/307/307 312/312/312 308/308/308
f 305/305/305 310/310/310 312/312/312
f 308/308/308 313/313/313 309/309/309
f 312/312/312 313/313/313 308/308/308
f 309/309/309 313/313/313 314/314/314
f 311/311/311 315/315/315 310/310/310
f 311/311/311 316/316/316 315/315/315
f 310/310/310 317/317/317 312/312/312
f 312/312/312 317/317/317 313/313/313
f 310/310/310 315/315/315 317/317/317
f 313/313/313 318/318/318 314/314/314
f 317/317/317 318/318/318 313/313/313
f 314/314/314 318/318/318 319/319/319
f 316/316/316 320/320/320 315/315/315
f 316/316/316 321/321/321 320/320/320
f 315/315/315 322/322/322 317/317/317
f 317/317/317 322/322/322 318/318/318
f 315/315/315 320/320/320 322/322/322
f 318/318/318 323/323/323 319/319/319
f 322/322/322 323/323/323 318/318/318
f 319/319/319 323/323/323 324/324/324
f 321/321/321 325/325/325 320/320/320
f 321/321/321 326/326/326 325/325/325
f 320/320/320 327/327/327 322/322/322
f 322/322/322 327/327/327 323/323/323
f 320/320/320 325/325/325 327/327/327
f 323/323/323 328/328/328 324/324/324
f 327/327/327 328/328/328 323/323/323
f 324/324/324 328/328/328 329/329/329
f 326/326/326 330/330/330 325/325/325
f 326/326/326 331/331/331 330/330/330
f 331/331/331 332/332/332 330/330/330
f 325/325/325 333/333/333 327/327/327
f 327/327/327 333/333/333 328/328/328
f 325/325/325 330/330/330 333/333/333
f 328/328/328 334/334/334 329/329/329
f 333/333/333 334/334/334 328/328/328
f 329/329/329 334/334/334 335/335/335
f 330/330/330 332/332/332 336/336/336
f 330/330/330 336/336/336 333/333/333
f 333/333/333 336/336/336 334/334/334
f 332/332/332 337/337/337 336/336/336
f 334/334/334 338/338/338 335/335/335
f 336/336/336 338/338/338 334/334/334
f 336/336/336 337/337/337 338/338/338
f 335/335/335 338/338/338 339/339/339
f 337/337/337 340/340/340 338/338/338
f 338/338/338 340/340/340 339/339/339
f 343/343/343 342/342/342 341/341/341
f 342/342/342 344/344/344 341/341/341
f 341/341/341 344/344/344 345/345/345
f 346/346/346 344/344/344 342/342/342
f 347/347/347 346/346/346 342/342/342
f 344/344/344 348/348/348 345/345/345
f 345/345/345 348/348/348 349/349/349
f 350/350/350 346/346/346 347/347/347
f 351/351/351 350/350/350 347/347/347
f 351/351/351 352/352/352 350/350/350
f 346/346/346 353/353/353 344/344/344
f 353/353/353 348/348/348 344/344/344
f 348/348/348 354/354/354 349/349/349
f 349/349/349 354/354/354 355/355/355
f 350/350/350 356/356/356 346/346/346
f 356/356/356 353/353/353 346/346/346
f 352/352/352 357/357/357 350/350/350
f 350/350/350 357/357/357 356/356/356
f 353/353/353 358/358/358 348/348/348
f 358/358/358 354/354/354 348/348/348
f 354/354/354 359/359/359 355/355/355
f 355/355/355 359/359/359 360/360/360
f 356/356/356 361/361/361 353/353/353
f 361/361/361 358/358/358 353/353/353
f 358/358/358 362/362/362 354/354/354
f 362/362/362 359/359/359 354/354/354
f 359/359/359 363/363/363 360/360/360
f 360/360/360 363/363/363 364/364/364
f 365/365/365 357/357/357 352/352/352
f 366/366/366 365/365/365 352/352/352
f 357/357/357 367/367/367 356/356/356
f 356/356/356 367/367/367 361/361/361
f 361/361/361 368/368/368 358/358/358
f 368/368/368 362/362/362 358/358/358
f 362/362/362 369/369/369 359/359/359
f 369/369/369 363/363/363 359/359/359
f 363/363/363 370/370/370 364/364/364
f 364/364/364 370/370/370 371/371/371
f 372/372/372 365/365/365 366/366/366
f 373/373/373 372/372/372 366/366/366
f 373/373/373 374/374/374 372/372/372
f 374/374/374 375/375/375 372/372/372
f 372/372/372 375/375/375 376/376/376
f 372/372/372 376/376/376 365/365/365
f 375/375/375 377/377/377 376/376/376
f 376/376/376 378/378/378 365/365/365
f 365/365/365 378/378/378 357/357/357
f 378/378/378 367/367/367 357/357/357
f 376/376/376 377/377/377 379/379/379
f 376/376/376 379/379/379 378/378/378
f 377/377/377 380/380/380 379/379/379
f 378/378/378 381/381/381 367/367/367
f 379/379/379 381/381/381 378/378/378
f 379/379/379 380/380/380 382/382/382
f 379/379/379 382/382/382 381/381/381
f 380/380/380 383/383/383 382/382/382
f 381/381/381 384/384/384 367/367/367
f 367/367/367 384/384/384 361/361/361
f 361/361/361 384/384/384 368/368/368
f 382/382/382 385/385/385 381/381/381
f 381/381/381 385/385/385 384/384/384
f 382/382/382 383/383/383 386/386/386
f 382/382/382 386/386/386 385/385/385
f 383/383/383 387/387/387 386/386/386
f 384/384/384 388/388/388 368/368/368
f 385/385/385 388/388/388 384/384/384
f 386/386/386 389/389/389 385/385/385
f 385/385/385 389/389/389 388/388/388
f 386/386/386 387/387/387 390/390/390
f 386/386/386 390/390/390 389/389/389
f 387/387/387 391/391/391 390/390/390
f 368/368/368 388/388/388 392/392/392
f 368/368/368 392/392/392 362/362/362
f 392/392/392 369/369/369 362/362/362
f 389/389/389 393/393/393 388/388/388
f 388/388/388 393/393/393 392/392/392
f 390/390/390 394/394/394 389/389/389
f 389/389/389 394/394/394 393/393/393
f 390/390/390 391/391/391 395/395/395
f 390/390/390 395/395/395 394/394/394
f 391/391/391 396/396/396 395/395/395
f 392/392/392 397/397/397 369/369/369
f 392/392/392 393/393/393 397/397/397
f 394/394/394 398/398/398 393/393/393
f 393/393/393 398/398/398 397/397/397
f 395/395/395 399/399/399 394/394/394
f 394/394/394 399/399/399 398/398/398
f 395/395/395 396/396/396 400/400/400
f 395/395/395 400/400/400 399/399/399
f 396/396/396 401/401/401 400/400/400
f 397/397/397 402/402/402 369/369/369
f 369/369/369 402/402/402 363/363/363
f 402/402/402 370/370/370 363/363/363
f 397/397/397 398/398/398 403/403/403
f 397/397/397 403/403/403 402/402/402
f 399/399/399 404/404/404 398/398/398
f 398/398/398 404/404/404 403/403/403
f 400/400/400 405/405/405 399/399/399
f 399/399/399 405/405/405 404/404/404
f 400/400/400 401/401/401 406/406/406
f 400/400/400 406/406/406 405/405/405
f 401/401/401 407/407/407 406/406/406
f 402/402/402 408/408/408 370/370/370
f 403/403/403 408/408/408 402/402/402
f 403/403/403 404/404/404 409/409/409
f 403/403/403 409/409/409 408/408/408
f 405/405/405 410/410/410 404/404/404
f 404/404/404 410/410/410 409/409/409
f 406/406/406 411/411/411 405/405/405
f 405/405/405 411/411/411 410/410/410
f 406/406/406 407/407/407 412/412/412
f 406/406/406 412/412/412 411/411/411
f 407/407/407 413/413/413 412/412/412
f 408/408/408 414/414/414 370/370/370
f 370/370/370 414/414/414 371/371/371
f 371/371/371 414/414/414 415/415/415
f 409/409/409 416/416/416 408/408/408
f 408/408/408 416/416/416 414/414/414
f 414/414/414 417/417/417 415/415/415
f 416/416/416 417/417/417 414/414/414
f 415/415/415 417/417/417 418/418/418
f 409/409/409 410/410/410 419/419/419
f 409/409/409 419/419/419 416/416/416
f 411/411/411 420/420/420 410/410/410
f 410/410/410 420/420/420 419/419/419
f 412/412/412 421/421/421 411/411/411
f 411/411/411 421/421/421 420/420/420
f 417/417/417 422/422/422 418/418/418
f 418/418/418 422/422/422 423/423/423
f 416/416/416 424/424/424 417/417/417
f 419/419/419 424/424/424 416/416/416
f 424/424/424 422/422/422 417/417/417
f 419/419/419 420/420/420 425/425/425
f 419/419/419 425/425/425 424/424/424
f 422/422/422 426/426/426 423/423/423
f 427/427/427 423/423/423 426/426/426
f 424/424/424 428/428/428 422/422/422
f 425/425/425 428/428/428 424/424/424
f 428/428/428 426/426/426 422/422/422
f 420/420/420 429/429/429 425/425/425
f 421/421/421 429/429/429 420/420/420
f 412/412/412 430/430/430 421/421/421
f 430/430/430 412/412/412 413/413/413
f 431/431/431 430/430/430 413/413/413
f 432/432/432 427/427/427 426/426/426
f 427/427/427 432/432/432 433/433/433
f 428/428/428 434/434/434 426/426/426
f 434/434/434 432/432/432 426/426/426
f 425/425/425 435/435/435 428/428/428
f 435/435/435 425/425/425 429/429/429
f 435/435/435 434/434/434 428/428/428
f 430/430/430 436/436/436 421/421/421
f 421/421/421 436/436/436 429/429/429
f 430/430/430 431/431/431 437/437/437
f 430/430/430 437/437/437 436/436/436
f 431/431/431 438/438/438 437/437/437
f 432/432/432 439/439/439 433/433/433
f 433/433/433 439/439/439 440/440/440
f 434/434/434 441/441/441 432/432/432
f 441/441/441 439/439/439 432/432/432
f 435/435/435 442/442/442 434/434/434
f 442/442/442 441/441/441 434/434/434
f 443/443/443 435/435/435 429/429/429
f 436/436/436 443/443/443 429/429/429
f 435/435/435 443/443/443 442/442/442
f 437/437/437 444/444/444 436/436/436
f 436/436/436 444/444/444 443/443/443
f 437/437/437 438/438/438 445/445/445
f 437/437/437 445/445/445 444/444/444
f 438/438/438 446/446/446 445/445/445
f 439/439/439 447/447/447 440/440/440
f 440/440/440 447/447/447 448/448/448
f 441/441/441 449/449/449 439/439/439
f 449/449/449 447/447/447 439/439/439
f 442/442/442 450/450/450 441/441/441
f 450/450/450 449/449/449 441/441/441
f 443/443/443 451/451/451 442/442/442
f 444/444/444 451/451/451 443/443/443
f 442/442/442 451/451/451 450/450/450
f 445/445/445 452/452/452 444/444/444
f 444/444/444 452/452/452 451/451/451
f 445/445/445 446/446/446 453/453/453
f 445/445/445 453/453/453 452/452/452
f 446/446/446 454/454/454 453/453/453
f 447/447/447 455/455/455 448/448/448
f 448/448/448 455/455/455 456/456/456
f 449/449/449 457/457/457 447/447/447
f 457/457/457 455/455/455 447/447/447
f 450/450/450 458/458/458 449/449/449
f 458/458/458 457/457/457 449/449/449
f 451/451/451 459/459/459 450/450/450
f 452/452/452 459/459/459 451/451/451
f 450/450/450 459/459/459 458/458/458
f 453/453/453 460/460/460 452/452/452
f 452/452/452 460/460/460 459/459/459
f 453/453/453 454/454/454 461/461/461
f 453/453/453 461/461/461 460/460/460
f 454/454/454 462/462/462 461/461/461
f 455/455/455 463/463/463 456/456/456
f 456/456/456 463/463/463 464/464/464
f 463/463/463 465/465/465 464/464/464
f 466/466/466 465/465/465 463/463/463
f 467/467/467 463/463/463 455/455/455
f 467/467/467 466/466/466 463/463/463
f 457/457/457 467/467/467 455/455/455
f 468/468/468 466/466/466 467/467/467
f 469/469/469 467/467/467 457/457/457
f 469/469/469 468/468/468 467/467/467
f 458/458/458 469/469/469 457/457/457
f 461/461/461 462/462/462 470/470/470
f 462/462/462 471/471/471 470/470/470
f 461/461/461 470/470/470 472/472/472
f 461/461/461 472/472/472 460/460/460
f 470/470/470 473/473/473 472/472/472
f 469/469/469 474/474/474 468/468/468
f 472/472/472 473/473/473 474/474/474
f 474/474/474 475/475/475 468/468/468
f 473/473/473 475/475/475 474/474/474
f 458/458/458 476/476/476 469/469/469
f 476/476/476 474/474/474 469/469/469
f 472/472/472 474/474/474 476/476/476
f 460/460/460 472/472/472 476/476/476
f 459/459/459 476/476/476 458/458/458
f 460/460/460 476/476/476 459/459/459
f 479/479/479 478/478/478 477/477/477
f 478/478/478 480/480/480 477/477/477
f 480/480/480 481/481/481 477/477/477
f 477/477/477 481/481/481 482/482/482
f 477/477/477 482/482/482 483/483/483
f 477/477/477 483/483/483 484/484/484
f 487/487/487 486/486/486 485/485/485
f 486/486/486 488/488/488 485/485/485
f 485/485/485 488/488/488 489/489/489
f 490/490/490 488/488/488 486/486/486
f 491/491/491 490/490/490 486/486/486
f 488/488/488 492/492/492 489/489/489
f 489/489/489 492/492/492 493/493/493
f 494/494/494 490/490/490 491/491/491
f 495/495/495 494/494/494 491/491/491
f 490/490/490 496/496/496 488/488/488
f 496/496/496 492/492/492 488/488/488
f 492/492/492 497/497/497 493/493/493
f 493/493/493 497/497/497 498/498/498
f 499/499/499 494/494/494 495/495/495
f 500/500/500 499/499/499 495/495/495
f 500/500/500 501/501/501 499/499/499
f 494/494/494 502/502/502 490/490/490
f 502/502/502 496/496/496 490/490/490
f 496/496/496 503/503/503 492/492/492
f 503/503/503 497/497/497 492/492/492
f 497/497/497 504/504/504 498/498/498
f 498/498/498 504/504/504 505/505/505
f 499/499/499 506/506/506 494/494/494
f 506/506/506 502/502/502 494/494/494
f 501/501/501 507/507/507 499/499/499
f 499/499/499 507/507/507 506/506/506
f 502/502/502 508/508/508 496/496/496
f 508/508/508 503/503/503 496/496/496
f 503/503/503 509/509/509 497/497/497
f 509/509/509 504/504/504 497/497/497
f 504/504/504 510/510/510 505/505/505
f 511/511/511 505/505/505 510/510/510
f 506/506/506 512/512/512 502/502/502
f 512/512/512 508/508/508 502/502/502
f 508/508/508 513/513/513 503/503/503
f 513/513/513 509/509/509 503/503/503
f 509/509/509 514/514/514 504/504/504
f 514/514/514 510/510/510 504/504/504
f 515/515/515 511/511/511 510/510/510
f 511/511/511 515/515/515 516/516/516
f 506/506/506 517/517/517 512/512/512
f 507/507/507 517/517/517 506/506/506
f 512/512/512 518/518/518 508/508/508
f 518/518/518 513/513/513 508/508/508
f 513/513/513 519/519/519 509/509/509
f 519/519/519 514/514/514 509/509/509
f 514/514/514 520/520/520 510/510/510
f 520/520/520 515/515/515 510/510/510
f 515/515/515 521/521/521 516/516/516
f 516/516/516 521/521/521 522/522/522
f 521/521/521 523/523/523 522/522/522
f 524/524/524 523/523/523 521/521/521
f 525/525/525 521/521/521 515/515/515
f 525/525/525 524/524/524 521/521/521
f 520/520/520 525/525/525 515/515/515
f 526/526/526 524/524/524 525/525/525
f 527/527/527 526/526/526 525/525/525
f 527/527/527 525/525/525 520/520/520
f 528/528/528 526/526/526 527/527/527
f 529/529/529 520/520/520 514/514/514
f 529/529/529 527/527/527 520/520/520
f 519/519/519 529/529/529 514/514/514
f 530/530/530 528/528/528 527/527/527
f 530/530/530 527/527/527 529/529/529
f 531/531/531 529/529/529 519/519/519
f 531/531/531 530/530/530 529/529/529
f 530/530/530 532/532/532 528/528/528
f 532/532/532 533/533/533 528/528/528
f 534/534/534 533/533/533 532/532/532
f 535/535/535 532/532/532 530/530/530
f 531/531/531 535/535/535 530/530/530
f 536/536/536 534/534/534 532/532/532
f 536/536/536 532/532/532 535/535/535
f 537/537/537 534/534/534 536/536/536
f 538/538/538 537/537/537 536/536/536
f 538/538/538 536/536/536 539/539/539
f 539/539/539 536/536/536 535/535/535
f 540/540/540 538/538/538 539/539/539
f 541/541/541 531/531/531 519/519/519
f 541/541/541 519/519/519 513/513/513
f 518/518/518 541/541/541 513/513/513
f 535/535/535 531/531/531 542/542/542
f 539/539/539 535/535/535 542/542/542
f 531/531/531 541/541/541 542/542/542
f 540/540/540 539/539/539 543/543/543
f 543/543/543 539/539/539 542/542/542
f 544/544/544 540/540/540 543/543/543
f 545/545/545 542/542/542 541/541/541
f 518/518/518 545/545/545 541/541/541
f 543/543/543 542/542/542 545/545/545
f 544/544/544 543/543/543 546/546/546
f 546/546/546 543/543/543 545/545/545
f 547/547/547 544/544/544 546/546/546
f 548/548/548 545/545/545 518/518/518
f 546/546/546 545/545/545 548/548/548
f 512/512/512 548/548/548 518/518/518
f 517/517/517 548/548/548 512/512/512
f 547/547/547 546/546/546 549/549/549
f 549/549/549 546/546/546 548/548/548
f 549/549/549 548/548/548 517/517/517
f 550/550/550 547/547/547 549/549/549
f 551/551/551 549/549/549 517/517/517
f 550/550/550 549/549/549 551/551/551
f 551/551/551 517/517/517 507/507/507
f 552/552/552 550/550/550 551/551/551
f 553/553/553 551/551/551 507/507/507
f 552/552/552 551/551/551 553/553/553
f 553/553/553 507/507/507 501/501/501
f 554/554/554 552/552/552 553/553/553
f 555/555/555 553/553/553 501/501/501
f 554/554/554 553/553/553 555/555/555
f 556/556/556 554/554/554 555/555/555
f 559/559/559 558/558/558 557/557/557
f 559/559/559 557/557/557 560/560/560
f 559/559/559 561/561/561 558/558/558
f 562/562/562 559/559/559 560/560/560
f 559/559/559 563/563/563 561/561/561
f 562/562/562 564/564/564 559/559/559
f 565/565/565 563/563/563 559/559/559
f 564/564/564 565/565/565 559/559/559
f 568/568/568 567/567/567 566/566/566
f 568/568/568 566/566/566 569/569/569
f 568/568/568 570/570/570 567/567/567
f 571/571/571 568/568/568 569/569/569
f 568/568/568 572/572/572 570/570/570
f 571/571/571 573/573/573 568/568/568
f 568/568/568 574/574/574 572/572/572
f 573/573/573 575/575/575 568/568/568
f 568/568/568 576/576/576 574/574/574
f 575/575/575 577/577/577 568/568/568
f 568/568/568 578/578/578 576/576/576
f 577/577/577 579/579/579 568/568/568
f 568/568/568 580/580/580 578/578/578
f 579/579/579 581/581/581 568/568/568
f 582/582/582 580/580/580 568/568/568
f 581/581/581 582/582/582 568/568/568
