g ShuQi_Short_ActShuQi_Short_Act_mobile
v 0.00282597848 -0.00663281243 0.0134196462
v 7.85566526E-05 -0.011692925 0.0123661089
v 7.85566526E-05 -0.00717720535 0.0134196462
v 0.00455315314 -0.0108019222 0.0123661089
v 7.85566526E-05 -0.0137157951 0.00952860762
v 0.00515433525 -0.00507600533 0.0134196462
v 0.00532666107 -0.012672049 0.00952860762
v 7.85566526E-05 -0.0137020874 0.00188164951
v 0.00834627935 -0.00826794944 0.0123661089
v 0.0067091841 -0.00274764856 0.0134196462
v 0.0108802522 -0.00447482322 0.0123661089
v 0.00725749351 -2.26735927E-07 0.0134196462
v 0.00977580033 -0.00969747042 0.00952860762
v 0.00532078632 -0.0126583413 0.00188164951
v 0.0117692967 -2.26735927E-07 0.0123661089
v 0.0067091841 0.00274719509 0.0134196462
v 0.0127503789 -0.00524833115 0.00952860762
v 0.0108802522 0.00447436975 0.0123661089
v 0.00515433525 0.00507555186 0.0134196462
v 0.00515433525 -0.0122569004 0.000953439999
v 7.85566526E-05 -0.0132653981 0.000953439999
v 0.00976600909 -0.00968767918 0.00188164951
v 0.0137941251 -2.26735927E-07 0.00952860762
v 0.00834627935 0.00826749597 0.0123661089
v 0.00282597848 0.00663235896 0.0134196462
v 0.00479793413 -0.0113933131 0.00052066721
v 7.85566526E-05 -0.0123313139 0.00052066721
v 0.00879863462 -0.00872030471 0.00052066721
v 0.00945856417 -0.00938023425 0.000953439999
v 0.011471643 -0.00471960421 0.00052066721
v 0.0123352304 -0.00507600533 0.000953439999
v 0.0124096438 -2.26735927E-07 0.00052066721
v 0.0127366712 -0.00524245641 0.00188164951
v 0.013343728 -2.26735927E-07 0.000953439999
v 0.011471643 0.00471915074 0.00052066721
v 0.0137804173 -2.26735927E-07 0.00188164951
v 0.0123352304 0.00507751011 0.000953439999
v 0.00879863462 0.00871985123 0.00052066721
v 0.0127503789 0.00524983593 0.00952860762
v 0.00945856417 0.00937978078 0.000953439999
v 0.00479793413 0.0113928596 0.00052066721
v 0.0127366712 0.00524396118 0.00188164951
v 0.00977580033 0.00969897519 0.00952860762
v 0.00515433525 0.012256447 0.000953439999
v 7.85566526E-05 0.0123308604 0.00052066721
v 0.00976600909 0.00968918395 0.00188164951
v 0.00455315314 0.0108014688 0.0123661089
v 7.85566526E-05 0.00717871012 0.0134196462
v 7.85566526E-05 0.0132669029 0.000953439999
v -0.00464082083 0.0113928596 0.00052066721
v 0.00532078632 0.0126578878 0.00188164951
v 0.00532666107 0.0126715955 0.00952860762
v 7.85566526E-05 0.0116924716 0.0123661089
v -0.00266886517 0.00663235896 0.0134196462
v -0.00499918019 0.012256447 0.000953439999
v -0.00864152132 0.00871985123 0.00052066721
v 7.85566526E-05 0.0137016339 0.00188164951
v 7.85566526E-05 0.0137153417 0.00952860762
v -0.00439603984 0.0108014688 0.0123661089
v -0.00499722195 0.00507555186 0.0134196462
v -0.00930145087 0.00937978078 0.000953439999
v -0.0113145297 0.00471915074 0.00052066721
v -0.00516563127 0.0126578878 0.00188164951
v -0.00517150601 0.0126715955 0.00952860762
v -0.00818916605 0.00826749597 0.0123661089
v -0.00655402904 0.00274719509 0.0134196462
v -0.0121781171 0.00507751011 0.000953439999
v -0.0122544887 -2.26735927E-07 0.00052066721
v -0.00961085404 0.00968918395 0.00188164951
v -0.00962064528 0.00969897519 0.00952860762
v -0.0107250971 0.00447436975 0.0123661089
v -0.00710038021 -2.26735927E-07 0.0134196462
v -0.013188573 -2.26735927E-07 0.000953439999
v -0.0113145297 -0.00471960421 0.00052066721
v -0.0125795579 0.00524396118 0.00188164951
v -0.0125932656 0.00524983593 0.00952860762
v -0.0116141417 -2.26735927E-07 0.0123661089
v -0.00655402904 -0.00274764856 0.0134196462
v -0.0121781171 -0.00507600533 0.000953439999
v -0.00864152132 -0.00872030471 0.00052066721
v -0.013623304 -2.26735927E-07 0.00188164951
v -0.0136370118 -2.26735927E-07 0.00952860762
v -0.0107250971 -0.00447482322 0.0123661089
v -0.00499722195 -0.00507600533 0.0134196462
v -0.00930340911 -0.00938023425 0.000953439999
v -0.00464082083 -0.0113933131 0.00052066721
v -0.0125795579 -0.00524245641 0.00188164951
v -0.0125932656 -0.00524833115 0.00952860762
v -0.00818916605 -0.00826794944 0.0123661089
v -0.00266886517 -0.00663281243 0.0134196462
v -0.00499918019 -0.0122569004 0.000953439999
v 7.85566526E-05 -0.0123313139 0.00052066721
v 7.85566526E-05 -0.0132653981 0.000953439999
v -0.00961085404 -0.00968767918 0.00188164951
v -0.00962064528 -0.00969747042 0.00952860762
v -0.00439603984 -0.0108019222 0.0123661089
v 7.85566526E-05 -0.00717720535 0.0134196462
v 7.85566526E-05 -0.011692925 0.0123661089
v -0.00516563127 -0.0126583413 0.00188164951
v 7.85566526E-05 -0.0137020874 0.00188164951
v 7.85566526E-05 -0.0137157951 0.00952860762
v -0.00517150601 -0.012672049 0.00952860762
v 0.000121638107 -0.00753752297 0.0157832515
v 0.00306096823 -0.0074611513 0.0131317838
v 0.000121638107 -0.00804862567 0.0131317838
v 0.00286514344 -0.00698921355 0.0157832515
v 0.00555185958 -0.00579272407 0.0131317838
v 0.0018213973 -0.00448265622 0.017627921
v 0.000117721611 -0.00482339135 0.017627921
v 0.00326658426 -0.0035133235 0.017627921
v 0.00456686088 -0.0003625026 0.017627921
v 0.000105972123 0.00408663667 0.017627921
v -0.00434316714 -0.00037229384 0.017627921
v 0.00518958371 -0.00543240646 0.0157832515
v 0.00721245381 -0.00329791623 0.0131317838
v 0.00423004223 -0.00206813654 0.017627921
v 0.00674051606 -0.00310404968 0.0157832515
v 0.00779405344 -0.000358586105 0.0131317838
v 0.00728295074 -0.000358586105 0.0157832515
v 0.00720657907 0.00258074402 0.0131317838
v 0.00673268307 0.00238491923 0.0157832515
v 0.00553815184 0.00507163537 0.0131317838
v 0.00422612574 0.00134313133 0.017627921
v 0.00325875127 0.00278636005 0.017627921
v 0.00517587598 0.0047093595 0.0157832515
v 0.003043344 0.0067322296 0.0131317838
v 0.00181160606 0.00374981802 0.017627921
v 0.00284751921 0.00626029185 0.0157832515
v 0.000102055628 0.00731382923 0.0131317838
v 0.000104013875 0.00680272653 0.0157832515
v -0.00283531625 0.00672635486 0.0131317838
v -0.00263949146 0.00625441711 0.0157832515
v -0.0053262076 0.00505792763 0.0131317838
v -0.00159770356 0.00374590153 0.017627921
v -0.00304093228 0.00277852706 0.017627921
v -0.00496393173 0.00469565177 0.0157832515
v -0.00698876008 0.00256311979 0.0131317838
v -0.0040063485 0.00133138185 0.017627921
v -0.00651486408 0.00236729499 0.0157832515
v -0.00757035971 -0.000378168584 0.0131317838
v -0.007059257 -0.000376210336 0.0157832515
v -0.00698092709 -0.00331554046 0.0131317838
v -0.00650898934 -0.00311971567 0.0157832515
v -0.00531249986 -0.00580643181 0.0131317838
v -0.004002432 -0.00207792778 0.017627921
v -0.00303505753 -0.00352115649 0.017627921
v -0.00495218224 -0.00544415594 0.0157832515
v -0.00281965026 -0.00746898429 0.0131317838
v -0.00158791232 -0.00448657271 0.017627921
v -0.00262382547 -0.00699508829 0.0157832515
v 0.000121638107 -0.00804862567 0.0131317838
v 0.000121638107 -0.00753752297 0.0157832515
v -0.000424713062 0.00069886777 0.015953619
v 0.000507412946 -0.000720861969 0.0433945471
v -0.00088685957 -0.000720861969 0.0159751598
v 0.000969559454 0.00069886777 0.0433847558
v 0.000507412946 -0.000720861969 0.0545428525
v 0.000781567654 0.00157812108 0.0158987881
v 0.000969559454 0.00069886777 0.0545487272
v 0.00028808918 -0.000720861969 0.0653504227
v 0.00217779842 0.00157812108 0.0433612569
v 0.00227375257 0.00157812108 0.0158322077
v 0.00074827744 0.00069886777 0.0653915459
v -0.0012354277 -0.000720861969 0.0750300422
v 0.00367194158 0.00157812108 0.0433318832
v 0.00348199153 0.00069886777 0.0157773767
v 0.00217779842 0.00157812108 0.0545604767
v -0.000783072431 0.00069886777 0.0751299128
v -0.00350503703 -0.000720861969 0.0830275267
v 0.00488018054 0.00069886777 0.0433083842
v 0.00394217979 -0.000720861969 0.0157577942
v 0.00367194158 0.00157812108 0.0545741844
v 0.00195455816 0.00157812108 0.0654972913
v -0.00306834775 0.00069886777 0.0831841865
v -0.00617804544 -0.000720861969 0.0890158488
v 0.00534232705 -0.000720861969 0.0432985929
v 0.00348199153 -0.00214254996 0.0157773767
v 0.00488018054 0.00069886777 0.0545878922
v 0.00344674307 0.00157812108 0.0656304522
v 0.000399709311 0.00157812108 0.0753903598
v -0.00576877163 0.00069886777 0.0892292978
v -0.00922703745 -0.000720861969 0.0940622537
v 0.00488018054 -0.00214254996 0.0433083842
v 0.00227375257 -0.00301984502 0.0158322077
v 0.00534232705 -0.000720861969 0.0545918087
v 0.00465302378 0.00069886777 0.0657361976
v 0.00186056226 0.00157812108 0.0757115124
v -0.00193060571 0.00157812108 0.0835993351
v -0.00885497034 0.00069886777 0.0943403249
v -0.0132101137 -0.000720861969 0.0983586496
v 0.00367194158 -0.00301984502 0.0433318832
v 0.000781567654 -0.00301984502 0.0158987881
v 0.00488018054 -0.00214254996 0.0545878922
v 0.00511517029 -0.000720861969 0.0657773208
v 0.003043344 0.00069886777 0.0759700012
v -0.000522625458 0.00157812108 0.0841104378
v -0.00469369352 0.00157812108 0.089791315
v 0.00217779842 -0.00301984502 0.0433612569
v -0.000424713062 -0.00214254996 0.015953619
v 0.00367194158 -0.00301984502 0.0545741844
v 0.000969559454 -0.00214254996 0.0433847558
v -0.00088685957 -0.000720861969 0.0159751598
v 0.000507412946 -0.000720861969 0.0433945471
v 0.00217779842 -0.00301984502 0.0545604767
v 0.000969559454 -0.00214254996 0.0545487272
v 0.000507412946 -0.000720861969 0.0545428525
v 0.00074827744 -0.00214254996 0.0653915459
v 0.00028808918 -0.000720861969 0.0653504227
v 0.00195455816 -0.00301984502 0.0654972913
v 0.00344674307 -0.00301984502 0.0656304522
v -0.000783072431 -0.00214254996 0.0751299128
v -0.0012354277 -0.000720861969 0.0750300422
v 0.000399709311 -0.00301984502 0.0753903598
v -0.00306834775 -0.00214254996 0.0831841865
v -0.00350503703 -0.000720861969 0.0830275267
v 0.00465302378 -0.00214254996 0.0657361976
v 0.00186056226 -0.00301984502 0.0757115124
v -0.00193060571 -0.00301984502 0.0835993351
v -0.00576877163 -0.00214254996 0.0892292978
v -0.00617804544 -0.000720861969 0.0890158488
v 0.00349569927 -0.000720861969 0.0760698718
v 0.003043344 -0.00214254996 0.0759700012
v -0.000522625458 -0.00301984502 0.0841104378
v -0.00469369352 -0.00301984502 0.089791315
v -0.00885497034 -0.00214254996 0.0943403249
v -0.00922703745 -0.000720861969 0.0940622537
v 0.00061707483 0.00069886777 0.0845236281
v 0.00105180587 -0.000720861969 0.0846802879
v 0.00061707483 -0.00214254996 0.0845236281
v -0.00336795968 -0.00301984502 0.0904845347
v -0.00336795968 0.00157812108 0.0904845347
v -0.00229483982 0.00069886777 0.0910445936
v -0.00188556601 -0.000720861969 0.0912600009
v -0.00229483982 -0.00214254996 0.0910445936
v -0.00788563762 -0.00301984502 0.0950727096
v -0.00788563762 0.00157812108 0.0950727096
v -0.00668523165 0.00157812108 0.0959754619
v -0.00571589893 0.00069886777 0.0967058884
v -0.00534383183 -0.000720861969 0.0969859178
v -0.00668523165 -0.00301984502 0.0959754619
v -0.0102061614 0.00069886777 0.101552552
v -0.0110364585 0.00157812108 0.100669382
v -0.0120625804 0.00157812108 0.0995786381
v -0.00571589893 -0.00214254996 0.0967058884
v -0.00988892524 -0.000720861969 0.101889371
v -0.0102061614 -0.00214254996 0.101552552
v -0.0110364585 -0.00301984502 0.100669382
v -0.0128928775 0.00069886777 0.0986954682
v -0.0184856336 -0.000720861969 0.102676586
v -0.0182212701 0.00069886777 0.103056486
v -0.0243975841 -0.000720861969 0.10611527
v -0.0120625804 -0.00301984502 0.0995786381
v -0.0175300086 0.00157812108 0.104053235
v -0.024184135 0.00069886777 0.106524543
v -0.0293950327 -0.000720861969 0.108455376
v -0.0236221179 0.00157812108 0.107597663
v -0.0166762125 0.00157812108 0.105284972
v -0.0292344564 0.00069886777 0.108890107
v -0.0229288981 0.00157812108 0.108921439
v -0.015984951 0.00069886777 0.106279762
v -0.022366881 0.00069886777 0.1099926
v -0.0157225458 -0.000720861969 0.106661621
v -0.0288114749 0.00157812108 0.110025891
v -0.0336816374 0.00069886777 0.110200175
v -0.0337403849 -0.000720861969 0.109743903
v -0.015984951 -0.00214254996 0.106279762
v -0.0221534319 -0.000720861969 0.110403833
v -0.0282866644 0.00157812108 0.111429954
v -0.0335288941 0.00157812108 0.111400581
v -0.0166762125 -0.00301984502 0.105284972
v -0.022366881 -0.00214254996 0.1099926
v -0.0278636829 0.00069886777 0.112565738
v -0.0333409023 0.00157812108 0.112882974
v -0.0277011483 -0.000720861969 0.113000469
v -0.0331881589 0.00069886777 0.114081422
v -0.0331294115 -0.000720861969 0.114539652
v -0.0278636829 -0.00214254996 0.112565738
v -0.0379016617 0.00157812108 0.111332042
v -0.0380250313 0.00157812108 0.11282031
v -0.037801791 0.00069886777 0.11012772
v -0.0381249019 0.00069886777 0.114026591
v -0.0377626261 -0.000720861969 0.109667531
v -0.037801791 -0.00214254996 0.11012772
v -0.0336816374 -0.00214254996 0.110200175
v -0.0381640669 -0.000720861969 0.114486779
v -0.0379016617 -0.00301984502 0.111332042
v -0.0331881589 -0.00214254996 0.114081422
v -0.0381249019 -0.00214254996 0.114026591
v -0.0282866644 -0.00301984502 0.111429954
v -0.0333409023 -0.00301984502 0.112882974
v -0.0380250313 -0.00301984502 0.11282031
v -0.0335288941 -0.00301984502 0.111400581
v -0.0229288981 -0.00301984502 0.108921439
v -0.0288114749 -0.00301984502 0.110025891
v -0.0292344564 -0.00214254996 0.108890107
v -0.0175300086 -0.00301984502 0.104053235
v -0.0236221179 -0.00301984502 0.107597663
v -0.0293950327 -0.000720861969 0.108455376
v -0.0337403849 -0.000720861969 0.109743903
v -0.0243975841 -0.000720861969 0.10611527
v -0.024184135 -0.00214254996 0.106524543
v -0.0184856336 -0.000720861969 0.102676586
v -0.0182212701 -0.00214254996 0.103056486
v -0.0132101137 -0.000720861969 0.0983586496
v -0.0128928775 -0.00214254996 0.0986954682
v 0.000554410896 0.000565706912 0.0352325698
v -0.0135214751 0.000565706912 0.029847388
v 0.000554410896 0.000565706912 0.0310947919
v -0.0137055504 0.000565706912 0.0339890823
v -0.0245522856 0.000565706912 0.0288604311
v -0.0139209577 0.000565706912 0.0457738183
v 0.00109880382 0.000565706912 0.0466452386
v -0.024902812 0.000565706912 0.0330021254
v -0.0267572728 0.000565706912 0.028662648
v -0.0285686521 0.000565706912 0.0290601723
v -0.0299922983 0.000565706912 0.0304622778
v -0.0306463532 0.000565706912 0.0324929809
v -0.02586627 0.000565706912 0.0450825568
v -0.0316646421 0.000565706912 0.0447261557
v -0.014136365 0.000565706912 0.0575585543
v 0.00164319674 0.000565706912 0.0580559492
v -0.0268277697 0.000565706912 0.0571610299
v -0.032682931 0.000565706912 0.0569612887
v -0.0143517722 0.000565706912 0.0693452485
v 0.00218758966 0.000565706912 0.0694666598
v -0.000516750714 0.000565706912 0.0788212101
v -0.0277892694 0.000565706912 0.0692414613
v -0.0337012199 0.000565706912 0.0691944634
v -0.0146846744 0.000565706912 0.0787428802
v -0.00321913284 0.000565706912 0.0881777187
v -0.0287546857 0.000565706912 0.0786665086
v -0.0345256423 0.000565706912 0.0786332183
v -0.0150195348 0.000565706912 0.088140512
v -0.0156148421 0.000565706912 0.101764043
v -0.0297201019 0.000565706912 0.0880895975
v -0.0353500646 0.000565706912 0.088070015
v -0.0311594141 0.000565706912 0.1023711
v -0.0319995025 0.000565706912 0.110503703
v -0.0365700531 0.000565706912 0.102034281
v -0.0373102708 0.000565706912 0.110511536
v 0.00218758966 0.000565706912 0.0694666598
v -0.000516750714 -0.00201330559 0.0788212101
v -0.000516750714 0.000565706912 0.0788212101
v 0.00218758966 -0.00201330559 0.0694666598
v -0.00321913284 -0.00201330559 0.0881777187
v -0.0156148421 0.000565706912 0.101764043
v -0.00321913284 0.000565706912 0.0881777187
v -0.0156148421 -0.00201330559 0.101764043
v -0.0319995025 0.000565706912 0.110503703
v -0.0319995025 -0.00201330559 0.110503703
v -0.0373102708 0.000565706912 0.110511536
v -0.0373102708 -0.00201330559 0.110511536
v 0.000554410896 -0.00201330559 0.0352325698
v 0.000554410896 0.000565706912 0.0310947919
v 0.000554410896 -0.00201330559 0.0310947919
v 0.000554410896 0.000565706912 0.0352325698
v 0.00109880382 0.000565706912 0.0466452386
v 0.00109880382 -0.00201330559 0.0466452386
v 0.00109880382 -0.00201330559 0.0466452386
v 0.00164319674 0.000565706912 0.0580559492
v 0.00164319674 -0.00201330559 0.0580559492
v 0.00164319674 -0.00201330559 0.0580559492
v 0.00218758966 0.000565706912 0.0694666598
v 0.00218758966 -0.00201330559 0.0694666598
v -0.0365700531 -0.00201330559 0.102034281
v -0.0373102708 0.000565706912 0.110511536
v -0.0373102708 -0.00201330559 0.110511536
v -0.0365700531 0.000565706912 0.102034281
v -0.0353500646 0.000565706912 0.088070015
v -0.0353500646 -0.00201330559 0.088070015
v -0.0345256423 0.000565706912 0.0786332183
v -0.0345256423 -0.00201330559 0.0786332183
v -0.0337012199 -0.00201330559 0.0691944634
v -0.0337012199 0.000565706912 0.0691944634
v -0.032682931 0.000565706912 0.0569612887
v -0.032682931 -0.00201330559 0.0569612887
v -0.032682931 -0.00201330559 0.0569612887
v -0.0316646421 0.000565706912 0.0447261557
v -0.0316646421 -0.00201330559 0.0447261557
v -0.0316646421 -0.00201330559 0.0447261557
v -0.0306463532 0.000565706912 0.0324929809
v -0.0306463532 -0.00201330559 0.0324929809
v -0.0306463532 -0.00201330559 0.0324929809
v -0.0299922983 0.000565706912 0.0304622778
v -0.0306463532 0.000565706912 0.0324929809
v -0.0299922983 -0.00201330559 0.0304622778
v -0.0285686521 0.000565706912 0.0290601723
v -0.0285686521 -0.00201330559 0.0290601723
v -0.0267572728 0.000565706912 0.028662648
v -0.0267572728 -0.00201330559 0.028662648
v -0.0245522856 -0.00201330559 0.0288604311
v -0.0245522856 0.000565706912 0.0288604311
v -0.0135214751 0.000565706912 0.029847388
v -0.0135214751 -0.00201330559 0.029847388
v 0.000554410896 0.000565706912 0.0310947919
v 0.000554410896 -0.00201330559 0.0310947919
v -0.0135214751 -0.00201330559 0.029847388
v 0.000554410896 -0.00201330559 0.0352325698
v 0.000554410896 -0.00201330559 0.0310947919
v -0.0137055504 -0.00201330559 0.0339890823
v -0.0245522856 -0.00201330559 0.0288604311
v -0.0139209577 -0.00201330559 0.0457738183
v 0.00109880382 -0.00201330559 0.0466452386
v -0.024902812 -0.00201330559 0.0330021254
v -0.0267572728 -0.00201330559 0.028662648
v -0.0285686521 -0.00201330559 0.0290601723
v -0.0299922983 -0.00201330559 0.0304622778
v -0.0306463532 -0.00201330559 0.0324929809
v -0.02586627 -0.00201330559 0.0450825568
v -0.0316646421 -0.00201330559 0.0447261557
v -0.014136365 -0.00201330559 0.0575585543
v 0.00164319674 -0.00201330559 0.0580559492
v -0.0268277697 -0.00201330559 0.0571610299
v -0.032682931 -0.00201330559 0.0569612887
v -0.0143517722 -0.00201330559 0.0693452485
v 0.00218758966 -0.00201330559 0.0694666598
v -0.000516750714 -0.00201330559 0.0788212101
v -0.0277892694 -0.00201330559 0.0692414613
v -0.0337012199 -0.00201330559 0.0691944634
v -0.0146846744 -0.00201330559 0.0787428802
v -0.00321913284 -0.00201330559 0.0881777187
v -0.0287546857 -0.00201330559 0.0786665086
v -0.0345256423 -0.00201330559 0.0786332183
v -0.0150195348 -0.00201330559 0.088140512
v -0.0156148421 -0.00201330559 0.101764043
v -0.0297201019 -0.00201330559 0.0880895975
v -0.0353500646 -0.00201330559 0.088070015
v -0.0311594141 -0.00201330559 0.1023711
v -0.0319995025 -0.00201330559 0.110503703
v -0.0365700531 -0.00201330559 0.102034281
v -0.0373102708 -0.00201330559 0.110511536
v -0.0379016617 -0.00301984502 0.111332042
v -0.0381249019 -0.00214254996 0.114026591
v -0.0380250313 -0.00301984502 0.11282031
v -0.0377626261 -0.000720861969 0.109667531
v -0.037801791 -0.00214254996 0.11012772
v -0.0379016617 0.00157812108 0.111332042
v -0.037801791 0.00069886777 0.11012772
v -0.0381249019 0.00069886777 0.114026591
v -0.0381640669 -0.000720861969 0.114486779
v -0.0380250313 0.00157812108 0.11282031
v -0.00321913284 0.000565706912 0.0881777187
v -0.000516750714 -0.00201330559 0.0788212101
v -0.00321913284 -0.00201330559 0.0881777187
v -0.000516750714 0.000565706912 0.0788212101
vt 0.151341841 0.218205518
vt 0.135837221 0.2327411
vt 0.151341841 0.2327411
vt 0.135837221 0.218205518
vt 0.124208755 0.2327411
vt 0.151341841 0.204638975
vt 0.124208755 0.218205518
vt 0.0990137464 0.2327411
vt 0.135837221 0.204638975
vt 0.151341841 0.191072432
vt 0.135837221 0.191072432
vt 0.151341841 0.17653685
vt 0.124208755 0.204638975
vt 0.0990137464 0.218205518
vt 0.135837221 0.17653685
vt 0.151341841 0.162970307
vt 0.124208755 0.191072432
vt 0.135837221 0.162970307
vt 0.151341841 0.148434725
vt 0.09610663 0.218205518
vt 0.09610663 0.2327411
vt 0.0990137464 0.204638975
vt 0.124208755 0.17653685
vt 0.135837221 0.148434725
vt 0.151341841 0.134868182
vt 0.0931995136 0.218205518
vt 0.0931995136 0.2327411
vt 0.0931995136 0.204638975
vt 0.09610663 0.204638975
vt 0.0931995136 0.191072432
vt 0.09610663 0.191072432
vt 0.0931995136 0.17653685
vt 0.0990137464 0.191072432
vt 0.09610663 0.17653685
vt 0.0931995136 0.162970307
vt 0.0990137464 0.17653685
vt 0.09610663 0.162970307
vt 0.0931995136 0.148434725
vt 0.124208755 0.162970307
vt 0.09610663 0.148434725
vt 0.0931995136 0.134868182
vt 0.0990137464 0.162970307
vt 0.124208755 0.148434725
vt 0.09610663 0.134868182
vt 0.0931995136 0.121301639
vt 0.0990137464 0.148434725
vt 0.135837221 0.134868182
vt 0.151341841 0.121301639
vt 0.09610663 0.121301639
vt 0.0931995136 0.106766057
vt 0.0990137464 0.134868182
vt 0.124208755 0.134868182
vt 0.135837221 0.121301639
vt 0.151341841 0.106766057
vt 0.09610663 0.106766057
vt 0.0931995136 0.0931995136
vt 0.0990137464 0.121301639
vt 0.124208755 0.121301639
vt 0.135837221 0.106766057
vt 0.151341841 0.0931995136
vt 0.09610663 0.0931995136
vt 0.0931995136 0.0786639316
vt 0.0990137464 0.106766057
vt 0.124208755 0.106766057
vt 0.135837221 0.0931995136
vt 0.151341841 0.0786639316
vt 0.09610663 0.0786639316
vt 0.0931995136 0.0650973885
vt 0.0990137464 0.0931995136
vt 0.124208755 0.0931995136
vt 0.135837221 0.0786639316
vt 0.151341841 0.0650973885
vt 0.09610663 0.0650973885
vt 0.0931995136 0.0505618065
vt 0.0990137464 0.0786639316
vt 0.124208755 0.0786639316
vt 0.135837221 0.0650973885
vt 0.151341841 0.0505618065
vt 0.09610663 0.0505618065
vt 0.0931995136 0.0369952633
vt 0.0990137464 0.0650973885
vt 0.124208755 0.0650973885
vt 0.135837221 0.0505618065
vt 0.151341841 0.0369952633
vt 0.09610663 0.0369952633
vt 0.0931995136 0.0234287202
vt 0.0990137464 0.0505618065
vt 0.124208755 0.0505618065
vt 0.135837221 0.0369952633
vt 0.151341841 0.0234287202
vt 0.09610663 0.0234287202
vt 0.0931995136 0.00889313821
vt 0.09610663 0.00889313821
vt 0.0990137464 0.0369952633
vt 0.124208755 0.0369952633
vt 0.135837221 0.0234287202
vt 0.151341841 0.00889313821
vt 0.135837221 0.00889313821
vt 0.0990137464 0.0234287202
vt 0.0990137464 0.00889313821
vt 0.124208755 0.00889313821
vt 0.124208755 0.0234287202
vt 0.0515308453 0.670746637
vt 0.0360262245 0.672684714
vt 0.0457166125 0.679467986
vt 0.0428094961 0.665901443
vt 0.0273048754 0.663963365
vt 0.0505618065 0.656211055
vt 0.0563760393 0.658149132
vt 0.0457166125 0.6523349
vt 0.0408714185 0.640706434
vt 0.0563760393 0.625201813
vt 0.07188066 0.640706434
vt 0.0350571857 0.659118171
vt 0.0214906426 0.6523349
vt 0.0418404573 0.646520667
vt 0.0311810306 0.649427783
vt 0.019552565 0.639737395
vt 0.029242953 0.639737395
vt 0.0234287202 0.626170852
vt 0.0321500693 0.630047007
vt 0.0311810306 0.614542387
vt 0.0418404573 0.634892201
vt 0.0457166125 0.630047007
vt 0.0369952633 0.621325658
vt 0.0418404573 0.606790076
vt 0.0505618065 0.626170852
vt 0.0457166125 0.615511425
vt 0.0554070005 0.60388296
vt 0.0563760393 0.613573348
vt 0.0689735436 0.606790076
vt 0.0660664273 0.615511425
vt 0.0806020092 0.613573348
vt 0.0621902721 0.626170852
vt 0.0670354661 0.630047007
vt 0.0747877764 0.621325658
vt 0.0893233584 0.625201813
vt 0.0699425824 0.634892201
vt 0.0806020092 0.629077969
vt 0.0922304748 0.637799318
vt 0.0835091256 0.638768357
vt 0.091261436 0.651365861
vt 0.081571048 0.649427783
vt 0.0854472032 0.662994326
vt 0.0709116212 0.646520667
vt 0.0680045049 0.651365861
vt 0.0776948928 0.658149132
vt 0.0776948928 0.672684714
vt 0.0631593109 0.656211055
vt 0.0699425824 0.664932404
vt 0.0680045049 0.679467986
vt 0.0621902721 0.670746637
vt 0.0728496988 0.00792409941
vt 0.0776948928 0.175567811
vt 0.0776948928 0.00792409941
vt 0.0728496988 0.175567811
vt 0.0776948928 0.207546092
vt 0.0670354661 0.00792409941
vt 0.0728496988 0.207546092
vt 0.0776948928 0.238555333
vt 0.0670354661 0.175567811
vt 0.0612212333 0.00792409941
vt 0.0728496988 0.238555333
vt 0.0776948928 0.267626497
vt 0.0612212333 0.175567811
vt 0.0563760393 0.00792409941
vt 0.0670354661 0.207546092
vt 0.0728496988 0.267626497
vt 0.0776948928 0.292821506
vt 0.0563760393 0.175567811
vt 0.0505618065 0.00792409941
vt 0.0612212333 0.207546092
vt 0.0670354661 0.238555333
vt 0.0728496988 0.292821506
vt 0.0776948928 0.312202282
vt 0.0505618065 0.175567811
vt 0.0447475737 0.00792409941
vt 0.0563760393 0.207546092
vt 0.0612212333 0.238555333
vt 0.0670354661 0.267626497
vt 0.0728496988 0.312202282
vt 0.0776948928 0.330614019
vt 0.0447475737 0.175567811
vt 0.0399023797 0.00792409941
vt 0.0505618065 0.207546092
vt 0.0563760393 0.238555333
vt 0.0612212333 0.267626497
vt 0.0670354661 0.292821506
vt 0.0728496988 0.330614019
vt 0.0776948928 0.348056717
vt 0.0399023797 0.175567811
vt 0.0340881469 0.00792409941
vt 0.0447475737 0.207546092
vt 0.0505618065 0.238555333
vt 0.0563760393 0.267626497
vt 0.0612212333 0.292821506
vt 0.0670354661 0.312202282
vt 0.0340881469 0.175567811
vt 0.0282739142 0.00792409941
vt 0.0399023797 0.207546092
vt 0.0282739142 0.175567811
vt 0.0234287202 0.00792409941
vt 0.0234287202 0.175567811
vt 0.0340881469 0.207546092
vt 0.0282739142 0.207546092
vt 0.0234287202 0.207546092
vt 0.0282739142 0.238555333
vt 0.0234287202 0.238555333
vt 0.0340881469 0.238555333
vt 0.0399023797 0.238555333
vt 0.0282739142 0.267626497
vt 0.0234287202 0.267626497
vt 0.0340881469 0.267626497
vt 0.0282739142 0.292821506
vt 0.0234287202 0.292821506
vt 0.0447475737 0.238555333
vt 0.0399023797 0.267626497
vt 0.0340881469 0.292821506
vt 0.0282739142 0.312202282
vt 0.0234287202 0.312202282
vt 0.0505618065 0.267626497
vt 0.0447475737 0.267626497
vt 0.0399023797 0.292821506
vt 0.0340881469 0.312202282
vt 0.0282739142 0.330614019
vt 0.0234287202 0.330614019
vt 0.0563760393 0.292821506
vt 0.0505618065 0.292821506
vt 0.0447475737 0.292821506
vt 0.0399023797 0.312202282
vt 0.0612212333 0.312202282
vt 0.0563760393 0.312202282
vt 0.0505618065 0.312202282
vt 0.0447475737 0.312202282
vt 0.0340881469 0.330614019
vt 0.0670354661 0.330614019
vt 0.0612212333 0.330614019
vt 0.0563760393 0.330614019
vt 0.0505618065 0.330614019
vt 0.0399023797 0.330614019
vt 0.0563760393 0.348056717
vt 0.0612212333 0.348056717
vt 0.0670354661 0.348056717
vt 0.0447475737 0.330614019
vt 0.0505618065 0.348056717
vt 0.0447475737 0.348056717
vt 0.0399023797 0.348056717
vt 0.0728496988 0.348056717
vt 0.0776948928 0.368406532
vt 0.0728496988 0.368406532
vt 0.0776948928 0.388756347
vt 0.0340881469 0.348056717
vt 0.0670354661 0.368406532
vt 0.0728496988 0.388756347
vt 0.0776948928 0.406199045
vt 0.0670354661 0.388756347
vt 0.0612212333 0.368406532
vt 0.0728496988 0.406199045
vt 0.0612212333 0.388756347
vt 0.0563760393 0.368406532
vt 0.0563760393 0.388756347
vt 0.0505618065 0.368406532
vt 0.0670354661 0.406199045
vt 0.0728496988 0.414920394
vt 0.0776948928 0.414920394
vt 0.0447475737 0.368406532
vt 0.0505618065 0.388756347
vt 0.0612212333 0.406199045
vt 0.0670354661 0.414920394
vt 0.0399023797 0.368406532
vt 0.0447475737 0.388756347
vt 0.0563760393 0.406199045
vt 0.0612212333 0.414920394
vt 0.0505618065 0.406199045
vt 0.0563760393 0.414920394
vt 0.0505618065 0.414920394
vt 0.0447475737 0.406199045
vt 0.0670354661 0.414920394
vt 0.0612212333 0.414920394
vt 0.0728496988 0.414920394
vt 0.0563760393 0.414920394
vt 0.0776948928 0.414920394
vt 0.0282739142 0.414920394
vt 0.0282739142 0.414920394
vt 0.0505618065 0.414920394
vt 0.0340881469 0.414920394
vt 0.0447475737 0.414920394
vt 0.0447475737 0.414920394
vt 0.0399023797 0.406199045
vt 0.0399023797 0.414920394
vt 0.0399023797 0.414920394
vt 0.0340881469 0.414920394
vt 0.0399023797 0.388756347
vt 0.0340881469 0.406199045
vt 0.0282739142 0.406199045
vt 0.0340881469 0.368406532
vt 0.0340881469 0.388756347
vt 0.0234287202 0.406199045
vt 0.0234287202 0.414920394
vt 0.0234287202 0.388756347
vt 0.0282739142 0.388756347
vt 0.0234287202 0.368406532
vt 0.0282739142 0.368406532
vt 0.0234287202 0.348056717
vt 0.0282739142 0.348056717
vt 0.109673173 0.338366329
vt 0.175567811 0.324799786
vt 0.111611251 0.322861709
vt 0.174598773 0.340304407
vt 0.225957829 0.325768825
vt 0.171691656 0.407168084
vt 0.102889902 0.404260968
vt 0.225957829 0.342242485
vt 0.235648217 0.325768825
vt 0.243400527 0.328675941
vt 0.250183799 0.334490174
vt 0.252121876 0.342242485
vt 0.225957829 0.4100752
vt 0.252121876 0.411044239
vt 0.167815501 0.4750008
vt 0.09610663 0.470155606
vt 0.22498879 0.478876955
vt 0.252121876 0.479845994
vt 0.163939346 0.541864477
vt 0.0893233584 0.536050244
vt 0.0980447076 0.572873718
vt 0.22498879 0.546709671
vt 0.252121876 0.548647748
vt 0.162001268 0.578687951
vt 0.106766057 0.610666231
vt 0.225957829 0.583533145
vt 0.252121876 0.585471223
vt 0.160063191 0.614542387
vt 0.157156074 0.666870482
vt 0.225957829 0.619387581
vt 0.252121876 0.622294697
vt 0.226926868 0.674622792
vt 0.227895906 0.706601072
vt 0.252121876 0.675591831
vt 0.252121876 0.70853915
vt 0.014707371 0.736641275
vt 0.00501698302 0.775402827
vt 0.014707371 0.775402827
vt 0.00501698302 0.736641275
vt 0.00501698302 0.81319534
vt 0.014707371 0.888780366
vt 0.014707371 0.81319534
vt 0.00501698302 0.888780366
vt 0.014707371 0.972117703
vt 0.00501698302 0.972117703
vt 0.014707371 0.996343673
vt 0.00501698302 0.996343673
vt 0.00501698302 0.53895736
vt 0.014707371 0.522483701
vt 0.00501698302 0.522483701
vt 0.014707371 0.53895736
vt 0.014707371 0.604851999
vt 0.00501698302 0.604851999
vt 0.00501698302 0.604851999
vt 0.014707371 0.670746637
vt 0.00501698302 0.670746637
vt 0.00501698302 0.670746637
vt 0.014707371 0.736641275
vt 0.00501698302 0.736641275
vt 0.00501698302 0.0399023797
vt 0.014707371 0.00792409941
vt 0.00501698302 0.00792409941
vt 0.014707371 0.0399023797
vt 0.014707371 0.0941685524
vt 0.00501698302 0.0941685524
vt 0.014707371 0.130022988
vt 0.00501698302 0.130022988
vt 0.00501698302 0.166846462
vt 0.014707371 0.166846462
vt 0.014707371 0.235648217
vt 0.00501698302 0.235648217
vt 0.00501698302 0.235648217
vt 0.014707371 0.304449971
vt 0.00501698302 0.304449971
vt 0.00501698302 0.304449971
vt 0.014707371 0.373251726
vt 0.00501698302 0.373251726
vt 0.00501698302 0.373251726
vt 0.014707371 0.381973075
vt 0.014707371 0.373251726
vt 0.00501698302 0.381973075
vt 0.014707371 0.389725386
vt 0.00501698302 0.389725386
vt 0.014707371 0.398446735
vt 0.00501698302 0.398446735
vt 0.00501698302 0.408137123
vt 0.014707371 0.408137123
vt 0.014707371 0.45852714
vt 0.00501698302 0.45852714
vt 0.014707371 0.522483701
vt 0.00501698302 0.522483701
vt 0.331583058 0.324799786
vt 0.397477696 0.339335368
vt 0.395539618 0.322861709
vt 0.332552097 0.341273446
vt 0.282162079 0.325768825
vt 0.336428252 0.408137123
vt 0.404260968 0.405230006
vt 0.282162079 0.342242485
vt 0.271502652 0.326737864
vt 0.263750342 0.328675941
vt 0.257936109 0.334490174
vt 0.255998032 0.343211523
vt 0.282162079 0.411044239
vt 0.255998032 0.412013278
vt 0.339335368 0.4750008
vt 0.411044239 0.471124645
vt 0.282162079 0.478876955
vt 0.255998032 0.480815033
vt 0.343211523 0.542833516
vt 0.417827511 0.536050244
vt 0.4100752 0.573842757
vt 0.282162079 0.54767871
vt 0.255998032 0.549616787
vt 0.345149601 0.578687951
vt 0.401353851 0.610666231
vt 0.282162079 0.583533145
vt 0.255998032 0.585471223
vt 0.348056717 0.614542387
vt 0.350963834 0.66783952
vt 0.28119304 0.620356619
vt 0.255998032 0.622294697
vt 0.280224001 0.675591831
vt 0.280224001 0.706601072
vt 0.255998032 0.675591831
vt 0.255998032 0.70853915
vt 0.0340881469 0.414920394
vt 0.0447475737 0.414920394
vt 0.0399023797 0.414920394
vt 0.0776948928 0.414920394
vt 0.0282739142 0.414920394
vt 0.0670354661 0.414920394
vt 0.0728496988 0.414920394
vt 0.0563760393 0.414920394
vt 0.0505618065 0.414920394
vt 0.0612212333 0.414920394
vt 0.014707371 0.81319534
vt 0.00501698302 0.775402827
vt 0.00501698302 0.81319534
vt 0.014707371 0.775402827
g ShuQi_Short_ActShuQi_Short_Act_mobile_0
f 3/3/3 2/2/2 1/1/1
f 4/4/4 1/1/1 2/2/2
f 2/2/2 5/5/5 4/4/4
f 1/1/1 4/4/4 6/6/6
f 7/7/7 4/4/4 5/5/5
f 5/5/5 8/8/8 7/7/7
f 9/9/9 6/6/6 4/4/4
f 4/4/4 7/7/7 9/9/9
f 6/6/6 9/9/9 10/10/10
f 11/11/11 10/10/10 9/9/9
f 10/10/10 11/11/11 12/12/12
f 13/13/13 9/9/9 7/7/7
f 9/9/9 13/13/13 11/11/11
f 14/14/14 7/7/7 8/8/8
f 7/7/7 14/14/14 13/13/13
f 15/15/15 12/12/12 11/11/11
f 12/12/12 15/15/15 16/16/16
f 17/17/17 11/11/11 13/13/13
f 11/11/11 17/17/17 15/15/15
f 18/18/18 16/16/16 15/15/15
f 16/16/16 18/18/18 19/19/19
f 14/14/14 8/8/8 20/20/20
f 21/21/21 20/20/20 8/8/8
f 22/22/22 13/13/13 14/14/14
f 13/13/13 22/22/22 17/17/17
f 23/23/23 15/15/15 17/17/17
f 15/15/15 23/23/23 18/18/18
f 24/24/24 19/19/19 18/18/18
f 19/19/19 24/24/24 25/25/25
f 20/20/20 21/21/21 26/26/26
f 27/27/27 26/26/26 21/21/21
f 26/26/26 28/28/28 20/20/20
f 20/20/20 29/29/29 14/14/14
f 29/29/29 20/20/20 28/28/28
f 22/22/22 14/14/14 29/29/29
f 28/28/28 30/30/30 29/29/29
f 31/31/31 29/29/29 30/30/30
f 29/29/29 31/31/31 22/22/22
f 30/30/30 32/32/32 31/31/31
f 33/33/33 22/22/22 31/31/31
f 33/33/33 17/17/17 22/22/22
f 17/17/17 33/33/33 23/23/23
f 34/34/34 31/31/31 32/32/32
f 31/31/31 34/34/34 33/33/33
f 32/32/32 35/35/35 34/34/34
f 36/36/36 23/23/23 33/33/33
f 36/36/36 33/33/33 34/34/34
f 37/37/37 34/34/34 35/35/35
f 34/34/34 37/37/37 36/36/36
f 35/35/35 38/38/38 37/37/37
f 23/23/23 36/36/36 39/39/39
f 39/39/39 18/18/18 23/23/23
f 18/18/18 39/39/39 24/24/24
f 40/40/40 37/37/37 38/38/38
f 38/38/38 41/41/41 40/40/40
f 42/42/42 36/36/36 37/37/37
f 42/42/42 39/39/39 36/36/36
f 37/37/37 40/40/40 42/42/42
f 43/43/43 24/24/24 39/39/39
f 39/39/39 42/42/42 43/43/43
f 44/44/44 40/40/40 41/41/41
f 41/41/41 45/45/45 44/44/44
f 46/46/46 42/42/42 40/40/40
f 46/46/46 43/43/43 42/42/42
f 40/40/40 44/44/44 46/46/46
f 24/24/24 43/43/43 47/47/47
f 47/47/47 25/25/25 24/24/24
f 25/25/25 47/47/47 48/48/48
f 49/49/49 44/44/44 45/45/45
f 45/45/45 50/50/50 49/49/49
f 51/51/51 46/46/46 44/44/44
f 44/44/44 49/49/49 51/51/51
f 43/43/43 46/46/46 52/52/52
f 52/52/52 47/47/47 43/43/43
f 51/51/51 52/52/52 46/46/46
f 53/53/53 48/48/48 47/47/47
f 47/47/47 52/52/52 53/53/53
f 48/48/48 53/53/53 54/54/54
f 55/55/55 49/49/49 50/50/50
f 50/50/50 56/56/56 55/55/55
f 57/57/57 51/51/51 49/49/49
f 49/49/49 55/55/55 57/57/57
f 52/52/52 51/51/51 58/58/58
f 58/58/58 53/53/53 52/52/52
f 57/57/57 58/58/58 51/51/51
f 59/59/59 54/54/54 53/53/53
f 53/53/53 58/58/58 59/59/59
f 54/54/54 59/59/59 60/60/60
f 61/61/61 55/55/55 56/56/56
f 56/56/56 62/62/62 61/61/61
f 63/63/63 57/57/57 55/55/55
f 55/55/55 61/61/61 63/63/63
f 58/58/58 57/57/57 64/64/64
f 64/64/64 59/59/59 58/58/58
f 63/63/63 64/64/64 57/57/57
f 65/65/65 60/60/60 59/59/59
f 59/59/59 64/64/64 65/65/65
f 60/60/60 65/65/65 66/66/66
f 67/67/67 61/61/61 62/62/62
f 62/62/62 68/68/68 67/67/67
f 69/69/69 63/63/63 61/61/61
f 61/61/61 67/67/67 69/69/69
f 64/64/64 63/63/63 70/70/70
f 70/70/70 65/65/65 64/64/64
f 69/69/69 70/70/70 63/63/63
f 71/71/71 66/66/66 65/65/65
f 65/65/65 70/70/70 71/71/71
f 66/66/66 71/71/71 72/72/72
f 73/73/73 67/67/67 68/68/68
f 68/68/68 74/74/74 73/73/73
f 75/75/75 69/69/69 67/67/67
f 67/67/67 73/73/73 75/75/75
f 70/70/70 69/69/69 76/76/76
f 76/76/76 71/71/71 70/70/70
f 75/75/75 76/76/76 69/69/69
f 77/77/77 72/72/72 71/71/71
f 71/71/71 76/76/76 77/77/77
f 72/72/72 77/77/77 78/78/78
f 79/79/79 73/73/73 74/74/74
f 74/74/74 80/80/80 79/79/79
f 81/81/81 75/75/75 73/73/73
f 73/73/73 79/79/79 81/81/81
f 76/76/76 75/75/75 82/82/82
f 82/82/82 77/77/77 76/76/76
f 81/81/81 82/82/82 75/75/75
f 83/83/83 78/78/78 77/77/77
f 77/77/77 82/82/82 83/83/83
f 78/78/78 83/83/83 84/84/84
f 85/85/85 79/79/79 80/80/80
f 80/80/80 86/86/86 85/85/85
f 87/87/87 81/81/81 79/79/79
f 79/79/79 85/85/85 87/87/87
f 82/82/82 81/81/81 88/88/88
f 88/88/88 83/83/83 82/82/82
f 87/87/87 88/88/88 81/81/81
f 89/89/89 84/84/84 83/83/83
f 83/83/83 88/88/88 89/89/89
f 84/84/84 89/89/89 90/90/90
f 91/91/91 85/85/85 86/86/86
f 86/86/86 92/92/92 91/91/91
f 93/93/93 91/91/91 92/92/92
f 94/94/94 87/87/87 85/85/85
f 85/85/85 91/91/91 94/94/94
f 88/88/88 87/87/87 95/95/95
f 95/95/95 89/89/89 88/88/88
f 94/94/94 95/95/95 87/87/87
f 96/96/96 90/90/90 89/89/89
f 89/89/89 95/95/95 96/96/96
f 90/90/90 96/96/96 97/97/97
f 98/98/98 97/97/97 96/96/96
f 91/91/91 93/93/93 99/99/99
f 99/99/99 94/94/94 91/91/91
f 100/100/100 99/99/99 93/93/93
f 100/100/100 101/101/101 99/99/99
f 102/102/102 96/96/96 95/95/95
f 96/96/96 102/102/102 98/98/98
f 95/95/95 94/94/94 102/102/102
f 99/99/99 102/102/102 94/94/94
f 101/101/101 98/98/98 102/102/102
f 102/102/102 99/99/99 101/101/101
f 105/105/105 104/104/104 103/103/103
f 106/106/106 103/103/103 104/104/104
f 104/104/104 107/107/107 106/106/106
f 106/106/106 108/108/108 103/103/103
f 109/109/109 103/103/103 108/108/108
f 108/108/108 110/110/110 109/109/109
f 108/108/108 106/106/106 110/110/110
f 110/110/110 111/111/111 109/109/109
f 111/111/111 112/112/112 109/109/109
f 109/109/109 112/112/112 113/113/113
f 114/114/114 106/106/106 107/107/107
f 114/114/114 110/110/110 106/106/106
f 107/107/107 115/115/115 114/114/114
f 110/110/110 114/114/114 116/116/116
f 116/116/116 111/111/111 110/110/110
f 117/117/117 114/114/114 115/115/115
f 117/117/117 116/116/116 114/114/114
f 116/116/116 117/117/117 111/111/111
f 115/115/115 118/118/118 117/117/117
f 119/119/119 117/117/117 118/118/118
f 119/119/119 111/111/111 117/117/117
f 118/118/118 120/120/120 119/119/119
f 121/121/121 119/119/119 120/120/120
f 120/120/120 122/122/122 121/121/121
f 111/111/111 119/119/119 123/123/123
f 121/121/121 123/123/123 119/119/119
f 123/123/123 124/124/124 111/111/111
f 123/123/123 121/121/121 124/124/124
f 124/124/124 112/112/112 111/111/111
f 125/125/125 121/121/121 122/122/122
f 125/125/125 124/124/124 121/121/121
f 122/122/122 126/126/126 125/125/125
f 124/124/124 125/125/125 127/127/127
f 127/127/127 112/112/112 124/124/124
f 128/128/128 125/125/125 126/126/126
f 128/128/128 127/127/127 125/125/125
f 127/127/127 128/128/128 112/112/112
f 126/126/126 129/129/129 128/128/128
f 130/130/130 128/128/128 129/129/129
f 130/130/130 112/112/112 128/128/128
f 129/129/129 131/131/131 130/130/130
f 132/132/132 130/130/130 131/131/131
f 131/131/131 133/133/133 132/132/132
f 112/112/112 130/130/130 134/134/134
f 132/132/132 134/134/134 130/130/130
f 112/112/112 134/134/134 135/135/135
f 134/134/134 132/132/132 135/135/135
f 113/113/113 112/112/112 135/135/135
f 136/136/136 132/132/132 133/133/133
f 136/136/136 135/135/135 132/132/132
f 133/133/133 137/137/137 136/136/136
f 135/135/135 136/136/136 138/138/138
f 138/138/138 113/113/113 135/135/135
f 139/139/139 136/136/136 137/137/137
f 139/139/139 138/138/138 136/136/136
f 138/138/138 139/139/139 113/113/113
f 137/137/137 140/140/140 139/139/139
f 141/141/141 139/139/139 140/140/140
f 141/141/141 113/113/113 139/139/139
f 140/140/140 142/142/142 141/141/141
f 143/143/143 141/141/141 142/142/142
f 142/142/142 144/144/144 143/143/143
f 113/113/113 141/141/141 145/145/145
f 143/143/143 145/145/145 141/141/141
f 145/145/145 146/146/146 113/113/113
f 145/145/145 143/143/143 146/146/146
f 146/146/146 109/109/109 113/113/113
f 147/147/147 143/143/143 144/144/144
f 147/147/147 146/146/146 143/143/143
f 144/144/144 148/148/148 147/147/147
f 149/149/149 109/109/109 146/146/146
f 146/146/146 147/147/147 149/149/149
f 150/150/150 147/147/147 148/148/148
f 150/150/150 149/149/149 147/147/147
f 149/149/149 150/150/150 109/109/109
f 148/148/148 151/151/151 150/150/150
f 152/152/152 109/109/109 150/150/150
f 152/152/152 150/150/150 151/151/151
f 155/155/155 154/154/154 153/153/153
f 156/156/156 153/153/153 154/154/154
f 154/154/154 157/157/157 156/156/156
f 153/153/153 156/156/156 158/158/158
f 159/159/159 156/156/156 157/157/157
f 157/157/157 160/160/160 159/159/159
f 161/161/161 158/158/158 156/156/156
f 156/156/156 159/159/159 161/161/161
f 158/158/158 161/161/161 162/162/162
f 163/163/163 159/159/159 160/160/160
f 160/160/160 164/164/164 163/163/163
f 165/165/165 162/162/162 161/161/161
f 162/162/162 165/165/165 166/166/166
f 167/167/167 161/161/161 159/159/159
f 159/159/159 163/163/163 167/167/167
f 161/161/161 167/167/167 165/165/165
f 168/168/168 163/163/163 164/164/164
f 164/164/164 169/169/169 168/168/168
f 170/170/170 166/166/166 165/165/165
f 166/166/166 170/170/170 171/171/171
f 172/172/172 165/165/165 167/167/167
f 165/165/165 172/172/172 170/170/170
f 173/173/173 167/167/167 163/163/163
f 163/163/163 168/168/168 173/173/173
f 167/167/167 173/173/173 172/172/172
f 174/174/174 168/168/168 169/169/169
f 169/169/169 175/175/175 174/174/174
f 176/176/176 171/171/171 170/170/170
f 171/171/171 176/176/176 177/177/177
f 178/178/178 170/170/170 172/172/172
f 170/170/170 178/178/178 176/176/176
f 179/179/179 172/172/172 173/173/173
f 172/172/172 179/179/179 178/178/178
f 180/180/180 173/173/173 168/168/168
f 168/168/168 174/174/174 180/180/180
f 173/173/173 180/180/180 179/179/179
f 181/181/181 174/174/174 175/175/175
f 175/175/175 182/182/182 181/181/181
f 183/183/183 177/177/177 176/176/176
f 177/177/177 183/183/183 184/184/184
f 185/185/185 176/176/176 178/178/178
f 176/176/176 185/185/185 183/183/183
f 186/186/186 178/178/178 179/179/179
f 178/178/178 186/186/186 185/185/185
f 187/187/187 179/179/179 180/180/180
f 179/179/179 187/187/187 186/186/186
f 188/188/188 180/180/180 174/174/174
f 174/174/174 181/181/181 188/188/188
f 180/180/180 188/188/188 187/187/187
f 189/189/189 181/181/181 182/182/182
f 182/182/182 190/190/190 189/189/189
f 191/191/191 184/184/184 183/183/183
f 184/184/184 191/191/191 192/192/192
f 193/193/193 183/183/183 185/185/185
f 183/183/183 193/193/193 191/191/191
f 194/194/194 185/185/185 186/186/186
f 185/185/185 194/194/194 193/193/193
f 195/195/195 186/186/186 187/187/187
f 186/186/186 195/195/195 194/194/194
f 196/196/196 187/187/187 188/188/188
f 187/187/187 196/196/196 195/195/195
f 197/197/197 188/188/188 181/181/181
f 188/188/188 197/197/197 196/196/196
f 181/181/181 189/189/189 197/197/197
f 198/198/198 192/192/192 191/191/191
f 192/192/192 198/198/198 199/199/199
f 200/200/200 191/191/191 193/193/193
f 191/191/191 200/200/200 198/198/198
f 201/201/201 199/199/199 198/198/198
f 199/199/199 201/201/201 202/202/202
f 203/203/203 202/202/202 201/201/201
f 198/198/198 204/204/204 201/201/201
f 204/204/204 198/198/198 200/200/200
f 201/201/201 205/205/205 203/203/203
f 205/205/205 201/201/201 204/204/204
f 206/206/206 203/203/203 205/205/205
f 205/205/205 207/207/207 206/206/206
f 205/205/205 204/204/204 207/207/207
f 208/208/208 206/206/206 207/207/207
f 204/204/204 200/200/200 209/209/209
f 209/209/209 207/207/207 204/204/204
f 200/200/200 193/193/193 210/210/210
f 210/210/210 209/209/209 200/200/200
f 207/207/207 211/211/211 208/208/208
f 212/212/212 208/208/208 211/211/211
f 209/209/209 213/213/213 207/207/207
f 211/211/211 207/207/207 213/213/213
f 211/211/211 214/214/214 212/212/212
f 215/215/215 212/212/212 214/214/214
f 216/216/216 210/210/210 193/193/193
f 216/216/216 193/193/193 194/194/194
f 210/210/210 217/217/217 209/209/209
f 213/213/213 209/209/209 217/217/217
f 213/213/213 218/218/218 211/211/211
f 214/214/214 211/211/211 218/218/218
f 214/214/214 219/219/219 215/215/215
f 220/220/220 215/215/215 219/219/219
f 194/194/194 221/221/221 216/216/216
f 221/221/221 194/194/194 195/195/195
f 216/216/216 222/222/222 210/210/210
f 217/217/217 210/210/210 222/222/222
f 222/222/222 216/216/216 221/221/221
f 217/217/217 223/223/223 213/213/213
f 218/218/218 213/213/213 223/223/223
f 219/219/219 214/214/214 224/224/224
f 218/218/218 224/224/224 214/214/214
f 219/219/219 225/225/225 220/220/220
f 219/219/219 224/224/224 225/225/225
f 226/226/226 220/220/220 225/225/225
f 195/195/195 227/227/227 221/221/221
f 227/227/227 195/195/195 196/196/196
f 221/221/221 228/228/228 222/222/222
f 228/228/228 221/221/221 227/227/227
f 222/222/222 229/229/229 217/217/217
f 229/229/229 222/222/222 228/228/228
f 223/223/223 217/217/217 229/229/229
f 224/224/224 218/218/218 230/230/230
f 223/223/223 230/230/230 218/218/218
f 196/196/196 231/231/231 227/227/227
f 231/231/231 196/196/196 197/197/197
f 227/227/227 232/232/232 228/228/228
f 232/232/232 227/227/227 231/231/231
f 228/228/228 233/233/233 229/229/229
f 233/233/233 228/228/228 232/232/232
f 229/229/229 234/234/234 223/223/223
f 230/230/230 223/223/223 234/234/234
f 234/234/234 229/229/229 233/233/233
f 224/224/224 230/230/230 235/235/235
f 235/235/235 225/225/225 224/224/224
f 197/197/197 236/236/236 231/231/231
f 236/236/236 197/197/197 189/189/189
f 231/231/231 237/237/237 232/232/232
f 237/237/237 231/231/231 236/236/236
f 232/232/232 238/238/238 233/233/233
f 238/238/238 232/232/232 237/237/237
f 239/239/239 233/233/233 238/238/238
f 233/233/233 239/239/239 234/234/234
f 230/230/230 234/234/234 240/240/240
f 240/240/240 235/235/235 230/230/230
f 238/238/238 237/237/237 241/241/241
f 238/238/238 241/241/241 239/239/239
f 237/237/237 236/236/236 242/242/242
f 242/242/242 241/241/241 237/237/237
f 236/236/236 189/189/189 243/243/243
f 243/243/243 242/242/242 236/236/236
f 244/244/244 234/234/234 239/239/239
f 244/244/244 240/240/240 234/234/234
f 239/239/239 245/245/245 244/244/244
f 245/245/245 239/239/239 241/241/241
f 244/244/244 246/246/246 240/240/240
f 246/246/246 244/244/244 245/245/245
f 240/240/240 247/247/247 235/235/235
f 247/247/247 240/240/240 246/246/246
f 248/248/248 243/243/243 189/189/189
f 248/248/248 189/189/189 190/190/190
f 190/190/190 249/249/249 248/248/248
f 250/250/250 248/248/248 249/249/249
f 248/248/248 250/250/250 243/243/243
f 249/249/249 251/251/251 250/250/250
f 252/252/252 235/235/235 247/247/247
f 235/235/235 252/252/252 225/225/225
f 253/253/253 243/243/243 250/250/250
f 243/243/243 253/253/253 242/242/242
f 254/254/254 250/250/250 251/251/251
f 251/251/251 255/255/255 254/254/254
f 254/254/254 256/256/256 250/250/250
f 253/253/253 250/250/250 256/256/256
f 257/257/257 242/242/242 253/253/253
f 242/242/242 257/257/257 241/241/241
f 258/258/258 254/254/254 255/255/255
f 254/254/254 258/258/258 256/256/256
f 256/256/256 259/259/259 253/253/253
f 257/257/257 253/253/253 259/259/259
f 260/260/260 241/241/241 257/257/257
f 241/241/241 260/260/260 245/245/245
f 260/260/260 257/257/257 261/261/261
f 259/259/259 261/261/261 257/257/257
f 262/262/262 245/245/245 260/260/260
f 260/260/260 261/261/261 262/262/262
f 245/245/245 262/262/262 246/246/246
f 256/256/256 263/263/263 259/259/259
f 263/263/263 256/256/256 258/258/258
f 258/258/258 255/255/255 264/264/264
f 265/265/265 264/264/264 255/255/255
f 266/266/266 246/246/246 262/262/262
f 246/246/246 266/266/266 247/247/247
f 267/267/267 262/262/262 261/261/261
f 262/262/262 267/267/267 266/266/266
f 259/259/259 268/268/268 261/261/261
f 268/268/268 259/259/259 263/263/263
f 263/263/263 258/258/258 269/269/269
f 264/264/264 269/269/269 258/258/258
f 270/270/270 247/247/247 266/266/266
f 247/247/247 270/270/270 252/252/252
f 271/271/271 266/266/266 267/267/267
f 266/266/266 271/271/271 270/270/270
f 261/261/261 272/272/272 267/267/267
f 272/272/272 261/261/261 268/268/268
f 268/268/268 263/263/263 273/273/273
f 269/269/269 273/273/273 263/263/263
f 267/267/267 274/274/274 271/271/271
f 274/274/274 267/267/267 272/272/272
f 272/272/272 268/268/268 275/275/275
f 273/273/273 275/275/275 268/268/268
f 274/274/274 272/272/272 276/276/276
f 275/275/275 276/276/276 272/272/272
f 277/277/277 271/271/271 274/274/274
f 274/274/274 276/276/276 277/277/277
f 269/269/269 278/278/278 273/273/273
f 279/279/279 273/273/273 278/278/278
f 273/273/273 279/279/279 275/275/275
f 278/278/278 269/269/269 280/280/280
f 281/281/281 275/275/275 279/279/279
f 275/275/275 281/281/281 276/276/276
f 264/264/264 280/280/280 269/269/269
f 280/280/280 264/264/264 282/282/282
f 265/265/265 282/282/282 264/264/264
f 282/282/282 265/265/265 283/283/283
f 284/284/284 283/283/283 265/265/265
f 285/285/285 276/276/276 281/281/281
f 283/283/283 284/284/284 286/286/286
f 276/276/276 285/285/285 287/287/287
f 287/287/287 277/277/277 276/276/276
f 288/288/288 287/287/287 285/285/285
f 277/277/277 287/287/287 289/289/289
f 277/277/277 289/289/289 271/271/271
f 287/287/287 288/288/288 290/290/290
f 290/290/290 289/289/289 287/287/287
f 291/291/291 290/290/290 288/288/288
f 286/286/286 292/292/292 291/291/291
f 290/290/290 291/291/291 292/292/292
f 292/292/292 286/286/286 284/284/284
f 293/293/293 271/271/271 289/289/289
f 293/293/293 270/270/270 271/271/271
f 289/289/289 290/290/290 294/294/294
f 292/292/292 294/294/294 290/290/290
f 289/289/289 294/294/294 293/293/293
f 284/284/284 295/295/295 292/292/292
f 294/294/294 292/292/292 295/295/295
f 270/270/270 293/293/293 296/296/296
f 296/296/296 252/252/252 270/270/270
f 297/297/297 293/293/293 294/294/294
f 294/294/294 295/295/295 297/297/297
f 297/297/297 296/296/296 293/293/293
f 295/295/295 284/284/284 298/298/298
f 299/299/299 298/298/298 284/284/284
f 298/298/298 300/300/300 295/295/295
f 301/301/301 295/295/295 300/300/300
f 301/301/301 297/297/297 295/295/295
f 300/300/300 302/302/302 301/301/301
f 301/301/301 303/303/303 297/297/297
f 303/303/303 301/301/301 302/302/302
f 296/296/296 297/297/297 303/303/303
f 302/302/302 304/304/304 303/303/303
f 252/252/252 296/296/296 305/305/305
f 303/303/303 305/305/305 296/296/296
f 305/305/305 303/303/303 304/304/304
f 305/305/305 225/225/225 252/252/252
f 304/304/304 226/226/226 305/305/305
f 225/225/225 305/305/305 226/226/226
f 308/308/308 307/307/307 306/306/306
f 309/309/309 306/306/306 307/307/307
f 307/307/307 310/310/310 309/309/309
f 309/309/309 311/311/311 306/306/306
f 312/312/312 306/306/306 311/311/311
f 313/313/313 309/309/309 310/310/310
f 314/314/314 313/313/313 310/310/310
f 315/315/315 313/313/313 314/314/314
f 316/316/316 313/313/313 315/315/315
f 317/317/317 313/313/313 316/316/316
f 313/313/313 318/318/318 309/309/309
f 313/313/313 317/317/317 318/318/318
f 311/311/311 309/309/309 318/318/318
f 319/319/319 318/318/318 317/317/317
f 311/311/311 320/320/320 312/312/312
f 311/311/311 318/318/318 320/320/320
f 321/321/321 312/312/312 320/320/320
f 318/318/318 319/319/319 322/322/322
f 322/322/322 320/320/320 318/318/318
f 323/323/323 322/322/322 319/319/319
f 320/320/320 324/324/324 321/321/321
f 320/320/320 322/322/322 324/324/324
f 325/325/325 321/321/321 324/324/324
f 325/325/325 324/324/324 326/326/326
f 322/322/322 323/323/323 327/327/327
f 327/327/327 324/324/324 322/322/322
f 328/328/328 327/327/327 323/323/323
f 329/329/329 326/326/326 324/324/324
f 324/324/324 327/327/327 329/329/329
f 326/326/326 329/329/329 330/330/330
f 327/327/327 328/328/328 331/331/331
f 331/331/331 329/329/329 327/327/327
f 332/332/332 331/331/331 328/328/328
f 333/333/333 330/330/330 329/329/329
f 329/329/329 331/331/331 333/333/333
f 330/330/330 333/333/333 334/334/334
f 331/331/331 332/332/332 335/335/335
f 335/335/335 333/333/333 331/331/331
f 333/333/333 335/335/335 334/334/334
f 336/336/336 335/335/335 332/332/332
f 337/337/337 334/334/334 335/335/335
f 335/335/335 336/336/336 337/337/337
f 334/334/334 337/337/337 338/338/338
f 339/339/339 337/337/337 336/336/336
f 337/337/337 339/339/339 338/338/338
f 340/340/340 338/338/338 339/339/339
f 343/343/343 342/342/342 341/341/341
f 344/344/344 341/341/341 342/342/342
f 347/347/347 346/346/346 345/345/345
f 348/348/348 345/345/345 346/346/346
f 346/346/346 349/349/349 348/348/348
f 350/350/350 348/348/348 349/349/349
f 349/349/349 351/351/351 350/350/350
f 352/352/352 350/350/350 351/351/351
f 355/355/355 354/354/354 353/353/353
f 356/356/356 353/353/353 354/354/354
f 356/356/356 357/357/357 353/353/353
f 358/358/358 353/353/353 357/357/357
f 357/357/357 360/360/360 359/359/359
f 361/361/361 359/359/359 360/360/360
f 360/360/360 363/363/363 362/362/362
f 364/364/364 362/362/362 363/363/363
f 367/367/367 366/366/366 365/365/365
f 368/368/368 365/365/365 366/366/366
f 368/368/368 369/369/369 365/365/365
f 370/370/370 365/365/365 369/369/369
f 369/369/369 371/371/371 370/370/370
f 372/372/372 370/370/370 371/371/371
f 372/372/372 371/371/371 373/373/373
f 374/374/374 373/373/373 371/371/371
f 374/374/374 375/375/375 373/373/373
f 376/376/376 373/373/373 375/375/375
f 375/375/375 378/378/378 377/377/377
f 379/379/379 377/377/377 378/378/378
f 378/378/378 381/381/381 380/380/380
f 382/382/382 380/380/380 381/381/381
f 385/385/385 384/384/384 383/383/383
f 386/386/386 383/383/383 384/384/384
f 384/384/384 387/387/387 386/386/386
f 388/388/388 386/386/386 387/387/387
f 387/387/387 389/389/389 388/388/388
f 390/390/390 388/388/388 389/389/389
f 390/390/390 389/389/389 391/391/391
f 392/392/392 391/391/391 389/389/389
f 392/392/392 393/393/393 391/391/391
f 394/394/394 391/391/391 393/393/393
f 393/393/393 395/395/395 394/394/394
f 396/396/396 394/394/394 395/395/395
f 399/399/399 398/398/398 397/397/397
f 400/400/400 397/397/397 398/398/398
f 397/397/397 400/400/400 401/401/401
f 400/400/400 398/398/398 402/402/402
f 403/403/403 402/402/402 398/398/398
f 404/404/404 401/401/401 400/400/400
f 401/401/401 404/404/404 405/405/405
f 405/405/405 404/404/404 406/406/406
f 406/406/406 404/404/404 407/407/407
f 407/407/407 404/404/404 408/408/408
f 404/404/404 400/400/400 409/409/409
f 404/404/404 409/409/409 408/408/408
f 402/402/402 409/409/409 400/400/400
f 410/410/410 408/408/408 409/409/409
f 402/402/402 403/403/403 411/411/411
f 402/402/402 411/411/411 409/409/409
f 412/412/412 411/411/411 403/403/403
f 409/409/409 413/413/413 410/410/410
f 413/413/413 409/409/409 411/411/411
f 414/414/414 410/410/410 413/413/413
f 411/411/411 412/412/412 415/415/415
f 411/411/411 415/415/415 413/413/413
f 416/416/416 415/415/415 412/412/412
f 416/416/416 417/417/417 415/415/415
f 413/413/413 418/418/418 414/414/414
f 418/418/418 413/413/413 415/415/415
f 419/419/419 414/414/414 418/418/418
f 420/420/420 415/415/415 417/417/417
f 415/415/415 420/420/420 418/418/418
f 417/417/417 421/421/421 420/420/420
f 418/418/418 422/422/422 419/419/419
f 422/422/422 418/418/418 420/420/420
f 423/423/423 419/419/419 422/422/422
f 424/424/424 420/420/420 421/421/421
f 420/420/420 424/424/424 422/422/422
f 425/425/425 424/424/424 421/421/421
f 422/422/422 426/426/426 423/423/423
f 426/426/426 422/422/422 424/424/424
f 424/424/424 425/425/425 426/426/426
f 427/427/427 423/423/423 426/426/426
f 428/428/428 426/426/426 425/425/425
f 426/426/426 428/428/428 427/427/427
f 429/429/429 428/428/428 425/425/425
f 430/430/430 427/427/427 428/428/428
f 428/428/428 429/429/429 430/430/430
f 431/431/431 430/430/430 429/429/429
f 434/434/434 433/433/433 432/432/432
f 433/433/433 435/435/435 432/432/432
f 435/435/435 436/436/436 432/432/432
f 437/437/437 435/435/435 433/433/433
f 438/438/438 435/435/435 437/437/437
f 439/439/439 437/437/437 433/433/433
f 440/440/440 439/439/439 433/433/433
f 441/441/441 437/437/437 439/439/439
f 444/444/444 443/443/443 442/442/442
f 445/445/445 442/442/442 443/443/443
