g SM_carton_01Box283_mobile
v 16.8321018 0.242015844 11.0031395
v 16.8321018 0.242015844 -10.4781627
v -16.8322366 0.242015844 -10.4781627
v -16.8322366 0.242015844 11.0031395
v 16.8321018 0.242015844 -10.4781627
v 16.8321018 17.6250831 -10.4781627
v -16.8322366 17.6250831 -10.4781627
v -16.8322366 0.242015844 -10.4781627
v -16.8322366 0.242015844 11.0031395
v -16.8322366 17.6250831 11.0031395
v 16.8321018 17.6250831 11.0031395
v 16.8321018 0.242015844 11.0031395
v 16.8321018 17.6250831 -10.4781627
v 16.8321018 17.9388185 0.0750448098
v -16.8322366 17.9388185 0.0750448098
v -16.8322366 17.6250831 -10.4781627
v -16.8322366 17.6250831 11.0031395
v -16.8322366 18.0164547 0.111204142
v 16.8321018 18.0164547 0.111204142
v 16.8321018 17.6250831 11.0031395
v -16.5626368 0.242015844 -10.4781627
v -16.5626368 17.6250831 -10.4781627
v -16.5626368 17.6250831 11.0031395
v -16.5626368 0.242015844 11.0031395
v 16.4572146 0.242015844 11.0031395
v 16.4572146 17.6250831 11.0031395
v 16.4572146 17.6250831 -10.4781627
v 16.4572146 0.242015844 -10.4781627
v -16.8322366 0.540862091 -10.1793164
v 16.8321018 0.540862091 -10.1793164
v 16.8321018 0.540862091 10.7042932
v -16.8322366 0.540862091 10.7042932
v -16.8322366 17.3352767 -10.1793164
v 16.8321018 17.3352767 -10.1793164
v 16.8321018 0.540862091 -10.1793164
v -16.8322366 0.540862091 -10.1793164
v 16.8321018 17.336872 10.7042932
v -16.8322366 17.336872 10.7042932
v -16.8322366 0.540862091 10.7042932
v 16.8321018 0.540862091 10.7042932
v -16.8322366 17.640504 0.0840846429
v 16.8321018 17.640504 0.0840846429
v 16.8321018 17.3352767 -10.1793164
v -16.8322366 17.3352767 -10.1793164
v 16.8321018 17.7181402 0.100569044
v -16.8322366 17.7181402 0.100569044
v -16.8322366 17.336872 10.7042932
v 16.8321018 17.336872 10.7042932
v -16.2637906 17.6250831 11.0031395
v -16.2637906 17.6250831 -10.4781627
v -16.2637906 0.242015844 -10.4781627
v -16.2637906 0.242015844 11.0031395
v 16.1583684 17.6250831 -10.4781627
v 16.1583684 17.6250831 11.0031395
v 16.1583684 0.242015844 11.0031395
v 16.1583684 0.242015844 -10.4781627
v -16.8322366 17.9388185 0.0750448098
v -16.8322366 17.640504 0.0840846429
v -16.8322366 17.3352767 -10.1793164
v -16.8322366 17.6250831 -10.4781627
v -16.8322366 0.540862091 -10.1793164
v -16.8322366 0.242015844 -10.4781627
v -16.8322366 0.540862091 10.7042932
v -16.8322366 0.242015844 11.0031395
v -16.8322366 17.336872 10.7042932
v -16.8322366 17.6250831 11.0031395
v -16.8322366 17.7181402 0.100569044
v -16.8322366 18.0164547 0.111204142
v 16.8321018 17.9388185 0.0750448098
v 16.8321018 17.640504 0.0840846429
v -16.8322366 17.640504 0.0840846429
v -16.8322366 17.9388185 0.0750448098
v 16.8321018 17.6250831 -10.4781627
v 16.8321018 17.640504 0.0840846429
v 16.8321018 17.9388185 0.0750448098
v 16.8321018 17.3352767 -10.1793164
v 16.8321018 0.242015844 -10.4781627
v 16.8321018 0.540862091 -10.1793164
v 16.8321018 0.242015844 11.0031395
v 16.8321018 0.540862091 10.7042932
v 16.8321018 17.6250831 11.0031395
v 16.8321018 17.336872 10.7042932
v 16.8321018 18.0164547 0.111204142
v 16.8321018 17.7181402 0.100569044
v -16.8322366 18.0164547 0.111204142
v -16.8322366 17.7181402 0.100569044
v 16.8321018 17.7181402 0.100569044
v 16.8321018 18.0164547 0.111204142
v -16.5626368 0.242015844 11.0031395
v -16.2637906 0.242015844 11.0031395
v -16.2637906 0.242015844 -10.4781627
v -16.5626368 0.242015844 -10.4781627
v -16.5626368 17.6250831 11.0031395
v -16.2637906 17.6250831 11.0031395
v -16.2637906 0.242015844 11.0031395
v -16.5626368 0.242015844 11.0031395
v -16.5626368 17.6250831 -10.4781627
v -16.2637906 17.6250831 -10.4781627
v -16.2637906 17.6250831 11.0031395
v -16.5626368 17.6250831 11.0031395
v -16.5626368 0.242015844 -10.4781627
v -16.2637906 0.242015844 -10.4781627
v -16.2637906 17.6250831 -10.4781627
v -16.5626368 17.6250831 -10.4781627
v 16.4572146 0.242015844 -10.4781627
v 16.1583684 0.242015844 -10.4781627
v 16.1583684 0.242015844 11.0031395
v 16.4572146 0.242015844 11.0031395
v 16.4572146 17.6250831 -10.4781627
v 16.1583684 17.6250831 -10.4781627
v 16.1583684 0.242015844 -10.4781627
v 16.4572146 0.242015844 -10.4781627
v 16.4572146 17.6250831 11.0031395
v 16.1583684 17.6250831 11.0031395
v 16.1583684 17.6250831 -10.4781627
v 16.4572146 17.6250831 -10.4781627
v 16.4572146 0.242015844 11.0031395
v 16.1583684 0.242015844 11.0031395
v 16.1583684 17.6250831 11.0031395
v 16.4572146 17.6250831 11.0031395
vt 0.54407352 0.502061403
vt 0.54407352 0.63772553
vt 0.755884609 0.63772553
vt 0.755884609 0.502061403
vt 0.979073979 0.695492191
vt 0.979073979 0.586085637
vt 0.76726289 0.586085637
vt 0.76726289 0.695492191
vt 0.755884609 0.858289143
vt 0.755884609 0.748882589
vt 0.54407352 0.748882589
vt 0.54407352 0.858289143
vt 0.751508346 0.498560393
vt 0.751508346 0.432041208
vt 0.539697258 0.432041208
vt 0.539697258 0.498560393
vt 0.751508346 0.431165956
vt 0.751508346 0.362896266
vt 0.539697258 0.362896266
vt 0.539697258 0.431165956
vt 0.423288684 0.698117948
vt 0.532695238 0.698117948
vt 0.532695238 0.562453821
vt 0.423288684 0.562453821
vt 0.193097294 0.376900305
vt 0.0836907402 0.376900305
vt 0.0836907402 0.51168918
vt 0.193097294 0.51168918
vt 0.76726289 0.93618661
vt 0.979073979 0.93618661
vt 0.979073979 0.804023492
vt 0.76726289 0.804023492
vt 0.755884609 0.64122654
vt 0.54407352 0.64122654
vt 0.54407352 0.747132084
vt 0.755884609 0.747132084
vt 0.979073979 0.697242696
vt 0.76726289 0.697242696
vt 0.76726289 0.80314824
vt 0.979073979 0.80314824
vt 0.979073979 0.51168918
vt 0.76726289 0.51168918
vt 0.76726289 0.57645786
vt 0.979073979 0.57645786
vt 0.76726289 0.50818817
vt 0.979073979 0.50818817
vt 0.979073979 0.441668985
vt 0.76726289 0.441668985
vt 0.532695238 0.837283085
vt 0.532695238 0.70249421
vt 0.423288684 0.70249421
vt 0.423288684 0.837283085
vt 0.41803717 0.423288684
vt 0.41803717 0.558077559
vt 0.527443724 0.558077559
vt 0.527443724 0.423288684
vt 0.0845659926 0.592212404
vt 0.0863164975 0.592212404
vt 0.0880670023 0.527443724
vt 0.0863164975 0.525693219
vt 0.193972547 0.527443724
vt 0.195723052 0.525693219
vt 0.193972547 0.658731589
vt 0.195723052 0.660482093
vt 0.0880670023 0.658731589
vt 0.0863164975 0.660482093
vt 0.085441245 0.592212404
vt 0.0836907402 0.592212404
vt 0.76726289 0.580834122
vt 0.76726289 0.583459879
vt 0.979073979 0.583459879
vt 0.979073979 0.580834122
vt 0.158087197 0.253489712
vt 0.224606382 0.253489712
vt 0.224606382 0.251739207
vt 0.159837702 0.255240217
vt 0.158087197 0.362896266
vt 0.159837702 0.361145761
vt 0.292876072 0.362896266
vt 0.291125567 0.361145761
vt 0.292876072 0.253489712
vt 0.291125567 0.255240217
vt 0.224606382 0.250863955
vt 0.224606382 0.25261446
vt 0.76726289 0.57645786
vt 0.76726289 0.578208365
vt 0.979073979 0.578208365
vt 0.979073979 0.57645786
vt 0.753258851 0.917806309
vt 0.753258851 0.916055804
vt 0.618469977 0.916055804
vt 0.618469977 0.917806309
vt 0.0959442742 0.530944733
vt 0.0941937694 0.530944733
vt 0.0941937694 0.640351287
vt 0.0959442742 0.640351287
vt 0.618469977 0.920432066
vt 0.618469977 0.922182571
vt 0.753258851 0.922182571
vt 0.753258851 0.920432066
vt 0.0898175072 0.640351287
vt 0.0915680121 0.640351287
vt 0.0915680121 0.530944733
vt 0.0898175072 0.530944733
vt 0.194847799 0.51168918
vt 0.197473556 0.51168918
vt 0.197473556 0.376900305
vt 0.194847799 0.376900305
vt 0.0941937694 0.530944733
vt 0.0915680121 0.530944733
vt 0.0915680121 0.640351287
vt 0.0941937694 0.640351287
vt 0.753258851 0.927434085
vt 0.753258851 0.925683581
vt 0.618469977 0.925683581
vt 0.618469977 0.927434085
vt 0.0880670023 0.640351287
vt 0.0898175072 0.640351287
vt 0.0898175072 0.530944733
vt 0.0880670023 0.530944733
g SM_carton_01Box283_mobile_0
f 3/3/3 2/2/2 1/1/1
f 4/4/4 3/3/3 1/1/1
f 7/7/7 6/6/6 5/5/5
f 8/8/8 7/7/7 5/5/5
f 11/11/11 10/10/10 9/9/9
f 12/12/12 11/11/11 9/9/9
f 15/15/15 14/14/14 13/13/13
f 16/16/16 15/15/15 13/13/13
f 19/19/19 18/18/18 17/17/17
f 20/20/20 19/19/19 17/17/17
f 23/23/23 22/22/22 21/21/21
f 24/24/24 23/23/23 21/21/21
f 27/27/27 26/26/26 25/25/25
f 28/28/28 27/27/27 25/25/25
f 31/31/31 30/30/30 29/29/29
f 32/32/32 31/31/31 29/29/29
f 35/35/35 34/34/34 33/33/33
f 36/36/36 35/35/35 33/33/33
f 39/39/39 38/38/38 37/37/37
f 40/40/40 39/39/39 37/37/37
f 43/43/43 42/42/42 41/41/41
f 44/44/44 43/43/43 41/41/41
f 47/47/47 46/46/46 45/45/45
f 48/48/48 47/47/47 45/45/45
f 51/51/51 50/50/50 49/49/49
f 52/52/52 51/51/51 49/49/49
f 55/55/55 54/54/54 53/53/53
f 56/56/56 55/55/55 53/53/53
f 59/59/59 58/58/58 57/57/57
f 60/60/60 59/59/59 57/57/57
f 61/61/61 59/59/59 60/60/60
f 62/62/62 61/61/61 60/60/60
f 63/63/63 61/61/61 62/62/62
f 64/64/64 63/63/63 62/62/62
f 65/65/65 63/63/63 64/64/64
f 66/66/66 65/65/65 64/64/64
f 67/67/67 65/65/65 66/66/66
f 68/68/68 67/67/67 66/66/66
f 71/71/71 70/70/70 69/69/69
f 72/72/72 71/71/71 69/69/69
f 75/75/75 74/74/74 73/73/73
f 74/74/74 76/76/76 73/73/73
f 73/73/73 76/76/76 77/77/77
f 76/76/76 78/78/78 77/77/77
f 77/77/77 78/78/78 79/79/79
f 78/78/78 80/80/80 79/79/79
f 79/79/79 80/80/80 81/81/81
f 80/80/80 82/82/82 81/81/81
f 81/81/81 82/82/82 83/83/83
f 82/82/82 84/84/84 83/83/83
f 87/87/87 86/86/86 85/85/85
f 88/88/88 87/87/87 85/85/85
f 91/91/91 90/90/90 89/89/89
f 92/92/92 91/91/91 89/89/89
f 95/95/95 94/94/94 93/93/93
f 96/96/96 95/95/95 93/93/93
f 99/99/99 98/98/98 97/97/97
f 100/100/100 99/99/99 97/97/97
f 103/103/103 102/102/102 101/101/101
f 104/104/104 103/103/103 101/101/101
f 107/107/107 106/106/106 105/105/105
f 108/108/108 107/107/107 105/105/105
f 111/111/111 110/110/110 109/109/109
f 112/112/112 111/111/111 109/109/109
f 115/115/115 114/114/114 113/113/113
f 116/116/116 115/115/115 113/113/113
f 119/119/119 118/118/118 117/117/117
f 120/120/120 119/119/119 117/117/117
