g snow1_12
v -1.12396943 -0.682080559 2.23412672
v -1.68842238 -0.685371539 1.65202215
v -1.67944698 -0.657747251 2.16122653
v -1.05675366 -0.690058692 1.74077889
v -0.464277512 -0.700430266 2.33943809
v -0.995920389 -0.567594342 1.19627127
v -1.63806042 -0.61675959 1.08547494
v -0.390978409 -0.610676263 1.8597528
v 0.216257284 -0.731844167 2.43677132
v -0.952040654 -0.424287117 0.62244401
v -0.258441665 -0.367742095 0.699432999
v -1.57403589 -0.471657285 0.53049602
v -1.51080919 -0.40892921 -0.0272752442
v -0.94466088 -0.297933426 0.0369487312
v -1.43242402 -0.485619019 -0.559217301
v -0.312992153 -0.484322572 1.31843644
v 0.293844633 -0.60509157 1.98251633
v -0.937580287 -0.378712029 -0.52451242
v -1.30666869 -0.646777318 -1.0116772
v 0.398557636 -0.487214646 1.47061934
v 0.908759279 -0.748199341 2.06030314
v 0.860890478 -0.886420505 2.4625008
v -0.31668204 -0.285268139 0.0523066384
v -0.912748346 -0.562807461 -0.949348034
v -0.499082119 -0.568292428 -0.976573415
v -1.09464979 -0.827980677 -1.32521785
v -0.877245652 -0.709804573 -1.19856498
v -0.609978176 -0.752687041 -1.29410313
v -0.777419255 -0.947253774 -1.52945807
v -0.476743345 -0.996419022 -1.63297436
v -0.268912965 -0.83416373 -1.43282293
v 0.0523066384 -0.975276968 -1.67715327
v -0.391975676 -1.19447619 -1.90253554
v 0.40444151 -0.678290945 -1.29569876
v -0.0556973451 -0.61646041 -1.0875692
v 0.685172085 -0.376817222 -0.81232359
v 0.145850255 -0.354278995 -0.625635264
v 0.948151314 -0.352483915 -0.177463609
v -0.40563823 -0.366246195 -0.529498754
v 0.341314528 -0.332039947 -0.0109200704
v 1.22239966 -0.338721634 0.449019331
v 0.570486415 -0.341513981 0.771535382
v 1.20135733 -0.519924993 1.2322726
v 1.5460127 -0.503669546 0.941768807
v 1.76062449 -0.780111875 1.29589821
v 1.02314577 -0.618454943 1.64364511
v 1.44967674 -0.842640497 1.69949204
v 1.49006604 -0.728852367 1.41636803
v 1.83073234 -1.01177693 1.66428853
v 1.77787721 -1.2053464 2.03447393
v 1.39811805 -0.970988721 2.06798209
v 1.37897053 -1.1100077 2.41712516
v 1.69889368 -1.27166463 2.32886706
v -0.777419255 -0.947253774 -1.52945807
v -0.476743345 -0.996419022 -1.63297436
v -0.391975676 -1.19447619 -1.90253554
v -0.934089853 -1.17871937 -1.82425011
v -1.42793632 -1.00858568 -1.55239521
v -1.09464979 -0.827980677 -1.32521785
v -1.30666869 -0.646777318 -1.0116772
v -1.76890181 -0.756277201 -1.15518388
v -1.43242402 -0.485619019 -0.559217301
v -1.93743988 -0.541864861 -0.653159824
v -1.51080919 -0.40892921 -0.0272752442
v -2.35140529 -0.826285323 -1.37557982
v -2.0239029 -0.469263845 -0.120120774
v -1.57403589 -0.471657285 0.53049602
v -1.91420357 -1.20265378 -1.93444808
v -2.7089254 -0.378213396 -1.76441411
v -2.48473984 -0.484821206 -0.773529915
v -0.228224484 -1.48527916 -2.41822215
v -1.14820301 -1.45595952 -2.32238482
v -2.18735491 -0.808234796 -2.50448572
v 0.437351311 -1.17473031 -2.04434687
v 0.0523066384 -0.975276968 -1.67715327
v 0.40444151 -0.678290945 -1.29569876
v 0.899883606 -0.712198013 -1.6099375
v 0.685172085 -0.376817222 -0.81232359
v -2.46599123 -0.336727101 -0.21875045
v -2.69616038 -0.0301673176 -0.986944988
v -2.12113641 -0.508755606 0.41192101
v -2.24589447 -0.644383877 0.949647214
v -1.63806042 -0.61675959 1.08547494
v -2.3282687 -0.700629719 1.57952086
v -1.68842238 -0.685371539 1.65202215
v -2.21986581 -0.620748657 2.19533305
v -1.67944698 -0.657747251 2.16122653
v -1.61961098 -0.582453615 2.48633547
v -3.11581021 -0.604892116 1.48148954
v -2.76586933 -0.502472826 0.792677436
v -3.02336359 0.0951891064 1.35513585
v -2.5462712 -0.300925226 0.323762634
v -2.61887221 0.0988789932 -0.297335066
v -2.41263746 0.633613397 -0.367542642
v -2.82730095 0.0489159316 0.802450649
v -2.67202653 0.0986795398 0.281378799
v -2.43946394 0.52660668 0.324660174
v -2.93081724 -0.476643619 2.34821403
v -2.32737116 0.447124524 -1.16176584
v -2.55813867 0.377914216 0.885223785
v -2.18117186 0.134880321 -1.87531016
v -1.67077076 0.728553187 -1.28323292
v -1.81976241 -0.153928115 -2.53699662
v -2.22385488 0.638400277 1.05944628
v -1.97184558 0.869267518 0.477042525
v -1.83472141 0.829875483 1.31235311
v -2.72288713 0.360761228 1.25451164
v -2.51326167 0.518129913 1.51051001
v -1.59547713 1.07590118 -0.392773489
v -0.985748268 0.791879622 -1.49585018
v -1.62180497 0.378712029 -1.86045089
v -1.4252437 0.138869388 -2.28020044
v -1.02055288 0.060883132 -2.51236413
v -1.18151172 0.278785906 -2.16571423
v -3.00032673 0.32356318 1.98151907
v -2.32467854 0.537676341 2.45312649
v -1.13234647 0.467967398 -1.91151094
v -0.73623214 0.400651896 -2.14985769
v -0.988640342 0.247471731 -2.27950236
v -1.15009782 -0.353082275 -2.88723668
v -2.07516241 0.71379364 1.79024331
v -1.52676545 0.610277356 2.51944472
v -1.33838177 -1.19856498 -3.01917507
v -0.132486881 -1.13862925 -3.26779366
v -0.284968959 -0.311994887 -3.07562036
v -0.474649085 0.163701329 -2.55863731
v 0.769341395 -0.921524293 -2.70363988
v -0.383798089 0.679487665 -1.85117631
v 0.0384446312 0.997117109 -1.35832711
v 0.135079774 0.417505703 -2.35320037
v 0.62064893 -0.176865249 -2.84156187
v 1.40829017 -0.568092975 -2.01881684
v 0.754482121 0.781906955 -1.90433062
v 1.2895157 1.08078778 -1.16575491
v 1.52177912 -0.00324111677 -2.35718943
v 1.92357787 0.481031592 -1.46673
v 2.22784394 0.563006915 -0.579760995
v 1.86743176 -0.272104219 -1.24633406
v 1.24842832 -0.476244712 -0.999610276
v 1.50253187 -0.359165602 -0.358666968
v 0.948151314 -0.352483915 -0.177463609
v 2.02150946 -0.0613817653 -0.536080714
v 2.21118959 -0.0706563456 0.120320227
v 1.74486768 -0.339319994 0.229022297
v 1.22239966 -0.338721634 0.449019331
v 1.5460127 -0.503669546 0.941768807
v 1.95389478 -0.487414099 0.748398794
v 2.14536999 -0.804245729 1.16465791
v 1.76062449 -0.780111875 1.29589821
v 2.26314718 -1.1877945 1.56685557
v 1.83073234 -1.01177693 1.66428853
v 1.77787721 -1.2053464 2.03447393
v 2.60002387 -0.649071031 1.1010323
v 2.37354461 -0.319773567 0.651464471
v 2.57299795 0.0979814532 0.747102347
v 2.40615523 0.371132802 0.173773722
v 2.35599271 0.5173321 1.03571133
v 2.90030088 -0.200699923 1.26209087
v 2.85382825 -1.12865659 1.55478865
v 2.19184261 -1.43691172 2.07406542
v 2.0657881 0.81770883 0.425783017
v 1.90373226 -1.39592406 2.52602668
v 1.69889368 -1.27166463 2.32886706
v 1.73629119 1.03930149 -0.320671107
v 1.01596545 1.2921086 0.0715538856
v 1.51848814 1.19238193 0.797065409
v 0.263527725 1.48527916 0.53199192
v 0.525509687 1.27874522 -0.692651586
v -0.247770911 1.43441856 -0.212667124
v -0.71947806 1.2072412 -0.924416366
v -1.0052947 1.38305932 0.312294067
v -1.49345674 1.03920176 0.852114531
v -0.507957793 1.40848962 0.993227769
v -1.11359786 1.07011703 1.31983261
v -0.858995671 0.961813868 1.8758088
v -0.0368490045 1.22658818 1.69241145
v -1.49864253 0.893999732 1.51988431
v -1.51180645 0.804844089 1.91679646
v 0.788788095 1.36550743 1.26179169
v 1.95389478 0.887916405 1.42414671
v 2.34911157 0.534684541 1.93355054
v 1.34366729 1.08637248 1.92557241
v 0.470360839 0.845632297 2.50697889
v 1.47700184 0.435556231 2.83837061
v 0.308504453 0.167790122 3.09207526
v -0.688762246 0.710901566 2.53191056
v 2.68329564 0.196411676 1.56865065
v 2.93121614 -0.164997775 2.06678537
v 1.91749455 0.677393405 2.37174953
v 2.27611165 0.350090475 2.59294328
v 2.64869049 0.193220423 2.36746128
v 2.14596835 0.0661686455 2.91147026
v 2.66285168 -0.254652052 2.72627784
v 1.94432102 -0.454304845 3.13695226
v -0.631818317 0.220744984 3.02097015
v 3.11581021 -0.652661191 1.80839357
v 2.75709338 -1.46084612 2.25826058
v 3.10244684 -1.12755959 2.56482036
v 2.95973797 -0.474549359 2.46459506
v 2.59184629 -0.82339325 2.95754399
v 1.68782402 -0.994225035 3.13924598
v 2.2673357 -1.25879989 2.80595945
v 1.20155678 -0.0869117928 3.17793993
v 1.46333929 -1.17642566 2.76776413
v 1.37897053 -1.1100077 2.41712516
v 0.883927339 -0.918432766 2.88594024
v 0.860890478 -0.886420505 2.4625008
v 1.00310071 -0.629524604 3.26779366
v 0.177363882 -0.719278607 2.90259459
v 0.216257284 -0.731844167 2.43677132
v -0.464277512 -0.700430266 2.33943809
v 0.211769583 -0.390679229 3.21982513
v -0.539371694 -0.635807384 2.79818077
v -1.12396943 -0.682080559 2.23412672
v -0.602199496 -0.291251739 3.12678014
v -1.21212781 -0.61496451 2.64689541
v -1.67944698 -0.657747251 2.16122653
v -1.47989392 0.181352949 2.99364504
v -1.35553476 -0.348893755 2.97988276
v -1.90522816 -0.490505626 2.6749186
v -2.30642856 -0.0961863731 2.87875992
vt 0.740176258 0.366492622
vt 0.676840049 0.354730183
vt 0.70126973 0.387303091
vt 0.722080199 0.332110108
vt 0.787226014 0.343872547
vt 0.700364927 0.293203579
vt 0.654219974 0.315823654
vt 0.770034757 0.30858523
vt 0.836085376 0.319442866
vt 0.677744852 0.253392248
vt 0.72569941 0.226248158
vt 0.633409505 0.275107519
vt 0.611694233 0.236200991
vt 0.651505565 0.214485719
vt 0.591788567 0.197294462
vt 0.750129091 0.269678701
vt 0.819798922 0.285965155
vt 0.626171081 0.178293599
vt 0.577311719 0.161102342
vt 0.802607665 0.247058627
vt 0.865039072 0.264249884
vt 0.882230328 0.294108382
vt 0.6922217 0.187341629
vt 0.606265415 0.1484351
vt 0.630695096 0.126719828
vt 0.572787704 0.128529434
vt 0.594502976 0.128529434
vt 0.606265415 0.108623769
vt 0.581835734 0.0977661326
vt 0.594502976 0.0769556637
vt 0.620742263 0.0823844817
vt 0.627075884 0.0498115739
vt 0.584550143 0.0516211799
vt 0.672316034 0.0633836188
vt 0.653315171 0.0977661326
vt 0.717556184 0.0860036937
vt 0.691316897 0.122195813
vt 0.763701136 0.114957389
vt 0.659648792 0.152959115
vt 0.732033031 0.152959115
vt 0.809846089 0.143006282
vt 0.781797196 0.192770447
vt 0.845133406 0.195484856
vt 0.854181436 0.162007145
vt 0.890373555 0.177388796
vt 0.85237183 0.231676976
vt 0.888563949 0.218104931
vt 0.87680151 0.197294462
vt 0.916612842 0.200008871
vt 0.933804099 0.228057764
vt 0.903040797 0.245249021
vt 0.919327251 0.269678701
vt 0.941947326 0.251582642
vt 0.525737949 0.863229466
vt 0.570978098 0.840609391
vt 0.599026991 0.795369241
vt 0.525737949 0.83427577
vt 0.453353709 0.862324663
vt 0.462401739 0.888563949
vt 0.389112697 0.903040797
vt 0.379159864 0.868658284
vt 0.307680427 0.893087964
vt 0.30858523 0.855086239
vt 0.227152961 0.869563087
vt 0.37192144 0.831561361
vt 0.242534612 0.831561361
vt 0.152054312 0.831561361
vt 0.442496073 0.829751755
vt 0.37192144 0.789940423
vt 0.30858523 0.81617971
vt 0.585454946 0.758272318
vt 0.518499525 0.80713168
vt 0.434352846 0.78903562
vt 0.627075884 0.686792882
vt 0.654219974 0.71031776
vt 0.682268867 0.617123051
vt 0.648791156 0.599026991
vt 0.689507291 0.521213934
vt 0.255201854 0.79808365
vt 0.314918851 0.77998759
vt 0.181912811 0.799893256
vt 0.127624631 0.757367515
vt 0.0850988907 0.776368378
vt 0.0823844817 0.703079336
vt 0.038953938 0.700364927
vt 0.0624788158 0.634314308
vt 0.0299059081 0.616218248
vt 0.04257315 0.554691645
vt 0.128529434 0.694936109
vt 0.162007145 0.742890667
vt 0.167435963 0.682268867
vt 0.205437689 0.770034757
vt 0.265154687 0.762796333
vt 0.28144114 0.721175396
vt 0.191865644 0.714841775
vt 0.224438552 0.741081061
vt 0.240725006 0.703984139
vt 0.101385345 0.639743126
vt 0.330300502 0.736557046
vt 0.208152098 0.685888079
vt 0.377350258 0.745605076
vt 0.355634986 0.6922217
vt 0.428019225 0.744700273
vt 0.217200128 0.650600762
vt 0.254297051 0.656934383
vt 0.219914537 0.609884627
vt 0.188246432 0.670506428
vt 0.188246432 0.642457535
vt 0.313109245 0.657839186
vt 0.393636712 0.656934383
vt 0.391827106 0.708508154
vt 0.42349521 0.712127366
vt 0.451544103 0.699460124
vt 0.425304816 0.694031306
vt 0.151149509 0.641552732
vt 0.145720691 0.585454946
vt 0.411732772 0.681364064
vt 0.440686467 0.668696822
vt 0.438876861 0.687697685
vt 0.472354572 0.72569941
vt 0.189151235 0.600836597
vt 0.158387933 0.536595585
vt 0.499498662 0.772749166
vt 0.55016763 0.718460987
vt 0.51397551 0.687697685
vt 0.474164178 0.671411231
vt 0.59269337 0.660553595
vt 0.437972058 0.636123914
vt 0.429828831 0.593598173
vt 0.488641026 0.630695096
vt 0.547453221 0.639743126
vt 0.608075021 0.58364534
vt 0.490450632 0.579121325
vt 0.482307405 0.522118737
vt 0.566454084 0.577311719
vt 0.544738812 0.510356298
vt 0.524833146 0.4506393
vt 0.598122188 0.503117874
vt 0.645171944 0.511261101
vt 0.620742263 0.429828831
vt 0.665982413 0.42349521
vt 0.57459731 0.438876861
vt 0.540214797 0.382779076
vt 0.580026128 0.36287341
vt 0.618932657 0.340253335
vt 0.557406054 0.278726731
vt 0.534785979 0.305870821
vt 0.485021814 0.25701146
vt 0.497689056 0.231676976
vt 0.428924028 0.222628946
vt 0.433448043 0.194580053
vt 0.360159001 0.180103205
vt 0.470544966 0.288679564
vt 0.510356298 0.330300502
vt 0.479592996 0.354730183
vt 0.504022677 0.398160727
vt 0.438876861 0.377350258
vt 0.445210482 0.318538063
vt 0.420780801 0.25701146
vt 0.367397425 0.209961704
vt 0.456972921 0.418066393
vt 0.306775624 0.213580916
vt 0.304966018 0.195484856
vt 0.471449769 0.467830557
vt 0.409923166 0.490450632
vt 0.39906553 0.440686467
vt 0.347491759 0.514880313
vt 0.420780801 0.542929206
vt 0.360159001 0.567358887
vt 0.373731046 0.618932657
vt 0.303156412 0.593598173
vt 0.255201854 0.607170218
vt 0.289584367 0.540214797
vt 0.244344218 0.563739675
vt 0.221724143 0.524833146
vt 0.269678701 0.488641026
vt 0.219914537 0.579121325
vt 0.197294462 0.561930069
vt 0.334824517 0.464211345
vt 0.387303091 0.397255924
vt 0.372826243 0.361063804
vt 0.323966881 0.414447181
vt 0.241629809 0.428019225
vt 0.271488307 0.36287341
vt 0.183722417 0.391827106
vt 0.18462722 0.485021814
vt 0.414447181 0.342967744
vt 0.386398288 0.314918851
vt 0.324871684 0.370111834
vt 0.32668129 0.342967744
vt 0.356539789 0.332110108
vt 0.300442003 0.32668129
vt 0.333919714 0.306775624
vt 0.273297913 0.296822791
vt 0.143006282 0.455163315
vt 0.409018363 0.287774761
vt 0.369207031 0.237105794
vt 0.358349395 0.263345081
vt 0.361063804 0.295917988
vt 0.319442866 0.274202716
vt 0.255201854 0.262440278
vt 0.309490033 0.239820203
vt 0.228962567 0.337538926
vt 0.24796343 0.235296188
vt 0.239820203 0.21177131
vt 0.182817614 0.277821928
vt 0.16653116 0.253392248
vt 0.201818477 0.306775624
vt 0.125815025 0.342967744
vt 0.0986709356 0.31763326
vt 0.0489067709 0.39906553
vt 0.150244706 0.365587819
vt 0.0805748757 0.415351984
vt 0.0217626811 0.485926617
vt 0.110433375 0.434352846
vt 0.0516211799 0.494069844
vt 0.0163338631 0.555596448
vt 0.114957389 0.516689919
vt 0.0805748757 0.50492748
vt 0.0633836188 0.567358887
vt 0.0977661326 0.580026128
vn -0.018358944 -0.99983146 -0
vn 0.0208012302 -0.999783631 -0
vn -0.049688536 -0.992012333 0.115942144
vn 0.0677965244 -0.992012333 -0.106372753
vn -0.018358944 -0.99983146 -0
vn 0.114790549 -0.976347658 -0.183216758
vn 0.0834611991 -0.984179996 -0.156281683
vn 0.0677965244 -0.984179996 -0.163686797
vn -0.12801191 -0.984179996 -0.122485457
vn 0.106958211 -0.976347658 -0.187896757
vn 0.0521318496 -0.984179996 -0.169328103
vn 0.122622886 -0.976347658 -0.178069869
vn 0.13806601 -0.990423029 -0
vn 0.0991258738 -0.992012333 -0.0780102073
vn 0.122622886 -0.960682983 0.249102054
vn 0.0912935364 -0.976347658 -0.195986582
vn -0.0575208734 -0.960682983 -0.271623921
vn 0.0912935364 -0.960682983 0.262209259
vn 0.0912935364 -0.890191947 0.44634492
vn -0.0340238613 -0.976347658 -0.213512593
vn -0.261161645 -0.905856622 -0.333494191
vn -0.300323332 -0.937185971 -0.177449575
vn 0.0129701628 -0.99984467 -0.0119335727
vn 0.0834611991 -0.898024285 0.431956725
vn 0.0364671749 -0.890191947 0.454123818
vn 0.0677965244 -0.819700911 0.568765371
vn 0.0756288617 -0.835365586 0.544467275
vn 0.0442995123 -0.835365586 0.547906827
vn 0.0677965244 -0.804036236 0.590702431
vn 0.0756288617 -0.796203899 0.600282955
vn 0.0677965244 -0.835365586 0.54549791
vn 0.138287561 -0.827533248 0.544118805
vn 0.0677965244 -0.843197923 0.533311254
vn 0.130455223 -0.866694935 0.48147827
vn 0.0756288617 -0.874527273 0.479043135
vn 0.0208025002 -0.968515321 0.248083311
vn 0.0286348376 -0.968515321 0.247301677
vn -0.018358944 -0.99983146 -0
vn 0.0208025002 -0.968515321 0.248083311
vn -0.018358944 -0.99983146 -0
vn -0.049688536 -0.992012333 -0.115942144
vn -0.0340238613 -0.992012333 -0.121465667
vn -0.175005934 -0.945018309 -0.276248655
vn -0.159341259 -0.929353634 -0.333034812
vn -0.308155669 -0.811868574 -0.495892632
vn -0.214167621 -0.929353634 -0.300722552
vn -0.402143717 -0.827533248 -0.391751392
vn -0.36298203 -0.835365586 -0.412805504
vn -0.39431138 -0.788371562 -0.472216917
vn -0.441305404 -0.811868574 -0.382255097
vn -0.425640729 -0.827533248 -0.366085635
vn -0.433473067 -0.88235961 -0.183146442
vn -0.464802416 -0.858862598 -0.215206301
vn 0.0677965244 -0.804036236 0.590702431
vn 0.0756288617 -0.796203899 0.600282955
vn 0.0677965244 -0.843197923 0.533311254
vn 0.0129701628 -0.858862598 0.512041808
vn -0.026191524 -0.85103026 0.524463059
vn 0.0677965244 -0.819700911 0.568765371
vn 0.0912935364 -0.890191947 0.44634492
vn -0.0418561987 -0.88235961 0.468710548
vn 0.122622886 -0.960682983 0.249102054
vn -0.0575208734 -0.952850646 0.297937905
vn 0.13806601 -0.990423029 -0
vn -0.597952151 -0.780539224 0.182240896
vn -0.0888502228 -0.992012333 0.0895386464
vn 0.122622886 -0.976347658 -0.178069869
vn -0.456681694 -0.889630165 -0
vn -0.942574995 -0.0208025002 -0.333346118
vn -0.668443188 -0.694383513 0.266486851
vn 0.16961691 -0.984179996 -0.0511843739
vn -0.182838271 -0.976347658 -0.115392447
vn -0.731101886 -0.279269633 -0.622493778
vn 0.396754694 -0.905856622 0.148355969
vn 0.138287561 -0.827533248 0.544118805
vn 0.130455223 -0.866694935 0.48147827
vn 0.349760669 -0.898024285 0.26687049
vn 0.0208025002 -0.968515321 0.248083311
vn -0.698017814 -0.716080395 -0
vn -0.981736682 0.167173596 -0.0908079067
vn -0.0810178855 -0.976347658 -0.200452869
vn -0.0575208734 -0.976347658 -0.208414489
vn 0.0834611991 -0.984179996 -0.156281683
vn -0.0885152192 -0.996074824 -0
vn 0.0208012302 -0.999783631 -0
vn -0.135844247 -0.945018309 0.297467203
vn -0.049688536 -0.992012333 0.115942144
vn -0.104514898 -0.937185971 0.332804885
vn -0.793760585 -0.608227802 -0.00175321335
vn -0.621449163 -0.678718839 -0.391333203
vn -0.95823967 0.237664633 -0.159035397
vn -0.6919402 -0.663054164 -0.285618515
vn -0.9884814 0.151342401 -0
vn -0.652778513 0.746766561 -0.127357435
vn -0.919077983 0.190670609 -0.344877341
vn -0.973904345 0.159341259 -0.161618968
vn -0.691283764 0.722583392 -0
vn -0.746766561 -0.381090019 0.545078068
vn -0.613616826 0.731101886 -0.298269044
vn -0.684107862 0.723269549 -0.0942209752
vn -0.582287477 0.629281501 -0.51472914
vn -0.355149693 0.848586947 -0.392133764
vn -0.464802416 0.456970079 -0.758377914
vn -0.503734784 0.863858361 -0
vn -0.503734784 0.863858361 -0
vn -0.370814368 0.919077983 0.133388026
vn -0.613616826 0.762431236 -0.205360662
vn -0.456970079 0.887748634 -0.0555041488
vn -0.378646705 0.911245646 -0.162043345
vn -0.206335283 0.856419284 -0.473256548
vn -0.300323332 0.801592923 -0.51696681
vn -0.229832295 0.770263573 -0.594870695
vn -0.182838271 0.723269549 -0.665921411
vn -0.198502946 0.801592923 -0.563955111
vn -0.817257597 0.472634754 0.32970655
vn -0.441305404 0.707604874 0.551855853
vn -0.206335283 0.80942526 -0.549778591
vn -0.167173596 0.80942526 -0.562924273
vn -0.190670609 0.793760585 -0.577571513
vn -0.27682632 0.355149693 -0.892880666
vn -0.292490994 0.950407333 0.105711497
vn -0.159341259 0.817257597 0.553805365
vn -0.355149693 -0.490742742 -0.79563827
vn 0.161784573 -0.46724573 -0.86919916
vn 0.0208025002 0.370814368 -0.928473996
vn -0.0888502228 0.731101886 -0.67645818
vn 0.600395465 -0.553401441 -0.577297264
vn -0.120179572 0.840754609 -0.527909611
vn -0.0418561987 0.903413308 -0.426722923
vn 0.0442995123 0.746766561 -0.663609265
vn 0.349760669 0.36298203 -0.863661693
vn 0.7335452 -0.608227802 -0.303266187
vn 0.16961691 0.801592923 -0.573305233
vn 0.310598983 0.872083959 -0.378150553
vn 0.631724814 0.300323332 -0.714653521
vn 0.764874549 0.441305404 -0.469272271
vn 0.88235961 0.39431138 -0.256826896
vn 0.804036236 -0.58473079 -0.10777585
vn 0.240107946 -0.952850646 0.185536574
vn 0.231443135 -0.972848434 -0
vn -0.018358944 -0.99983146 -0
vn 0.796203899 -0.58473079 -0.155400304
vn 0.717880525 -0.608227802 -0.338683469
vn 0.193113922 -0.960682983 -0.199487389
vn -0.049688536 -0.992012333 -0.115942144
vn -0.159341259 -0.929353634 -0.333034812
vn 0.059964187 -0.88235961 -0.466739558
vn -0.0418561987 -0.764874549 -0.642818001
vn -0.308155669 -0.811868574 -0.495892632
vn -0.0653532108 -0.827533248 -0.557599929
vn -0.39431138 -0.788371562 -0.472216917
vn -0.441305404 -0.811868574 -0.382255097
vn 0.537736766 -0.482910404 -0.691112662
vn 0.58473079 -0.576898453 -0.570331551
vn 0.921521297 0.214167621 -0.323930131
vn 0.945018309 0.27682632 -0.174090738
vn 0.7335452 0.676275525 -0.0675489003
vn 0.913688959 0.167173596 -0.370439569
vn 0.58473079 -0.631724814 -0.508933848
vn -0.0888502228 -0.976347658 -0.197106287
vn 0.630305236 0.776347415 -0
vn -0.167173596 -0.952850646 0.253236322
vn -0.464802416 -0.858862598 -0.215206301
vn 0.482910404 0.864251622 -0.140949196
vn 0.247940284 0.966072007 -0.0723221442
vn 0.388922356 0.919077983 0.0635221369
vn 0.0677965244 0.997401357 0.0243754988
vn 0.0991258738 0.966072007 -0.238493056
vn -0.0418561987 0.981736682 -0.185583259
vn -0.159341259 0.92691032 -0.339775839
vn -0.27682632 0.95823967 -0.0717211536
vn -0.417808392 0.895580971 0.152875348
vn -0.159341259 0.966072007 0.203261506
vn -0.300323332 0.911245646 0.281846181
vn -0.182838271 0.911245646 0.369054928
vn -0.0731855481 0.934742658 0.347706829
vn -0.261161645 0.942574995 0.208199361
vn -0.175005934 0.942574995 0.284473727
vn 0.138287561 0.966072007 0.218131674
vn 0.522072091 0.848586947 0.085679199
vn 0.61606014 0.778095911 0.122624053
vn 0.216610934 0.903413308 0.370032563
vn 0.00513782548 0.80942526 0.587200435
vn 0.138287561 0.668443188 0.730794264
vn -0.0183591866 0.503964103 0.863529457
vn -0.0966825602 0.80942526 0.579209143
vn 0.795839688 0.605507382 -0
vn 0.88235961 0.456970079 0.112338177
vn 0.31843132 0.832922272 0.452594723
vn 0.459413392 0.699772537 0.547044542
vn 0.710048188 0.629281501 0.315968928
vn 0.341928332 0.456970079 0.821135411
vn 0.61606014 0.339485018 0.710788173
vn 0.247940284 0.120179572 0.961292092
vn -0.0731855481 0.51179644 0.855983808
vn 0.976347658 -0.059964187 -0.207724689
vn 0.489367986 -0.87207739 -0
vn 0.835365586 -0.388922356 0.388463305
vn 0.866694935 0.292490994 0.404090222
vn 0.459413392 -0.146119898 0.876121173
vn 0.0364671749 -0.443748718 0.895408968
vn 0.153952235 -0.710048188 0.68711737
vn 0.0756288617 0.370814368 0.925622482
vn -0.284658657 -0.88235961 0.374714515
vn -0.433473067 -0.88235961 -0.183146442
vn -0.292490994 -0.874527273 0.386847603
vn -0.300323332 -0.937185971 -0.177449575
vn -0.0653532108 -0.240107946 0.96854382
vn -0.198502946 -0.88235961 0.426659231
vn -0.12801191 -0.984179996 -0.122485457
vn -0.018358944 -0.99983146 -0
vn -0.120179572 -0.177449247 0.97676437
vn -0.120179572 -0.890191947 0.439448709
vn -0.018358944 -0.99983146 -0
vn -0.12801191 -0.224443272 0.96604253
vn -0.104514898 -0.905856622 0.410488023
vn -0.049688536 -0.992012333 0.115942144
vn -0.167173596 0.402143717 0.900185214
vn -0.151508922 -0.388922356 0.908726828
vn -0.175005934 -0.694383513 0.698000329
vn -0.456970079 0.0653532108 0.887077959
g snow1_12_0
f 3/3/3 2/2/2 1/1/1
f 2/2/2 4/4/4 1/1/1
f 1/1/1 4/4/4 5/5/5
f 6/6/6 4/4/4 2/2/2
f 7/7/7 6/6/6 2/2/2
f 4/4/4 8/8/8 5/5/5
f 4/4/4 6/6/6 8/8/8
f 5/5/5 8/8/8 9/9/9
f 6/6/6 7/7/7 10/10/10
f 6/6/6 10/10/10 11/11/11
f 7/7/7 12/12/12 10/10/10
f 12/12/12 13/13/13 10/10/10
f 13/13/13 14/14/14 10/10/10
f 10/10/10 14/14/14 11/11/11
f 13/13/13 15/15/15 14/14/14
f 6/6/6 16/16/16 8/8/8
f 16/16/16 6/6/6 11/11/11
f 8/8/8 17/17/17 9/9/9
f 8/8/8 16/16/16 17/17/17
f 15/15/15 18/18/18 14/14/14
f 15/15/15 19/19/19 18/18/18
f 16/16/16 11/11/11 20/20/20
f 16/16/16 20/20/20 17/17/17
f 17/17/17 21/21/21 9/9/9
f 21/21/21 22/22/22 9/9/9
f 14/14/14 23/23/23 11/11/11
f 14/14/14 18/18/18 23/23/23
f 19/19/19 24/24/24 18/18/18
f 18/18/18 24/24/24 25/25/25
f 19/19/19 26/26/26 24/24/24
f 26/26/26 27/27/27 24/24/24
f 24/24/24 27/27/27 25/25/25
f 27/27/27 26/26/26 28/28/28
f 27/27/27 28/28/28 25/25/25
f 26/26/26 29/29/29 28/28/28
f 29/29/29 30/30/30 28/28/28
f 30/30/30 31/31/31 28/28/28
f 28/28/28 31/31/31 25/25/25
f 31/31/31 30/30/30 32/32/32
f 30/30/30 33/33/33 32/32/32
f 31/31/31 32/32/32 34/34/34
f 35/35/35 31/31/31 34/34/34
f 31/31/31 35/35/35 25/25/25
f 35/35/35 34/34/34 36/36/36
f 37/37/37 35/35/35 36/36/36
f 35/35/35 37/37/37 25/25/25
f 37/37/37 36/36/36 38/38/38
f 37/37/37 39/39/39 25/25/25
f 39/39/39 18/18/18 25/25/25
f 18/18/18 39/39/39 23/23/23
f 39/39/39 37/37/37 23/23/23
f 40/40/40 37/37/37 38/38/38
f 37/37/37 40/40/40 23/23/23
f 23/23/23 40/40/40 11/11/11
f 40/40/40 38/38/38 41/41/41
f 40/40/40 42/42/42 11/11/11
f 42/42/42 40/40/40 41/41/41
f 43/43/43 42/42/42 41/41/41
f 11/11/11 42/42/42 20/20/20
f 42/42/42 43/43/43 20/20/20
f 44/44/44 43/43/43 41/41/41
f 44/44/44 45/45/45 43/43/43
f 43/43/43 46/46/46 20/20/20
f 46/46/46 43/43/43 47/47/47
f 20/20/20 46/46/46 17/17/17
f 46/46/46 21/21/21 17/17/17
f 21/21/21 46/46/46 47/47/47
f 45/45/45 48/48/48 43/43/43
f 43/43/43 48/48/48 47/47/47
f 48/48/48 45/45/45 47/47/47
f 45/45/45 49/49/49 47/47/47
f 49/49/49 50/50/50 47/47/47
f 51/51/51 21/21/21 47/47/47
f 50/50/50 51/51/51 47/47/47
f 21/21/21 51/51/51 22/22/22
f 51/51/51 52/52/52 22/22/22
f 52/52/52 51/51/51 50/50/50
f 53/53/53 52/52/52 50/50/50
f 56/56/56 55/55/55 54/54/54
f 57/57/57 56/56/56 54/54/54
f 58/58/58 57/57/57 54/54/54
f 59/59/59 58/58/58 54/54/54
f 58/58/58 59/59/59 60/60/60
f 61/61/61 58/58/58 60/60/60
f 61/61/61 60/60/60 62/62/62
f 63/63/63 61/61/61 62/62/62
f 63/63/63 62/62/62 64/64/64
f 58/58/58 61/61/61 65/65/65
f 65/65/65 61/61/61 63/63/63
f 66/66/66 63/63/63 64/64/64
f 66/66/66 64/64/64 67/67/67
f 58/58/58 68/68/68 57/57/57
f 68/68/68 58/58/58 65/65/65
f 68/68/68 65/65/65 69/69/69
f 70/70/70 65/65/65 63/63/63
f 70/70/70 63/63/63 66/66/66
f 65/65/65 70/70/70 69/69/69
f 71/71/71 56/56/56 57/57/57
f 68/68/68 72/72/72 57/57/57
f 72/72/72 71/71/71 57/57/57
f 73/73/73 68/68/68 69/69/69
f 68/68/68 73/73/73 72/72/72
f 56/56/56 71/71/71 74/74/74
f 75/75/75 56/56/56 74/74/74
f 75/75/75 74/74/74 76/76/76
f 74/74/74 77/77/77 76/76/76
f 76/76/76 77/77/77 78/78/78
f 79/79/79 70/70/70 66/66/66
f 70/70/70 80/80/80 69/69/69
f 80/80/80 70/70/70 79/79/79
f 79/79/79 66/66/66 81/81/81
f 81/81/81 66/66/66 67/67/67
f 82/82/82 81/81/81 67/67/67
f 83/83/83 82/82/82 67/67/67
f 82/82/82 83/83/83 84/84/84
f 83/83/83 85/85/85 84/84/84
f 84/84/84 85/85/85 86/86/86
f 85/85/85 87/87/87 86/86/86
f 87/87/87 88/88/88 86/86/86
f 82/82/82 84/84/84 89/89/89
f 89/89/89 84/84/84 86/86/86
f 82/82/82 90/90/90 81/81/81
f 90/90/90 82/82/82 89/89/89
f 90/90/90 89/89/89 91/91/91
f 92/92/92 79/79/79 81/81/81
f 90/90/90 92/92/92 81/81/81
f 93/93/93 80/80/80 79/79/79
f 93/93/93 79/79/79 92/92/92
f 80/80/80 93/93/93 94/94/94
f 92/92/92 90/90/90 95/95/95
f 95/95/95 90/90/90 91/91/91
f 96/96/96 93/93/93 92/92/92
f 94/94/94 93/93/93 96/96/96
f 96/96/96 92/92/92 95/95/95
f 97/97/97 96/96/96 95/95/95
f 97/97/97 94/94/94 96/96/96
f 98/98/98 89/89/89 86/86/86
f 89/89/89 98/98/98 91/91/91
f 99/99/99 80/80/80 94/94/94
f 80/80/80 99/99/99 69/69/69
f 100/100/100 95/95/95 91/91/91
f 100/100/100 97/97/97 95/95/95
f 99/99/99 101/101/101 69/69/69
f 102/102/102 99/99/99 94/94/94
f 99/99/99 102/102/102 101/101/101
f 101/101/101 103/103/103 69/69/69
f 103/103/103 73/73/73 69/69/69
f 97/97/97 100/100/100 104/104/104
f 97/97/97 105/105/105 94/94/94
f 105/105/105 97/97/97 104/104/104
f 105/105/105 104/104/104 106/106/106
f 100/100/100 107/107/107 104/104/104
f 107/107/107 100/100/100 91/91/91
f 107/107/107 108/108/108 104/104/104
f 108/108/108 107/107/107 91/91/91
f 104/104/104 108/108/108 106/106/106
f 109/109/109 102/102/102 94/94/94
f 105/105/105 109/109/109 94/94/94
f 102/102/102 109/109/109 110/110/110
f 102/102/102 111/111/111 101/101/101
f 102/102/102 110/110/110 111/111/111
f 112/112/112 103/103/103 101/101/101
f 111/111/111 112/112/112 101/101/101
f 103/103/103 112/112/112 113/113/113
f 114/114/114 112/112/112 111/111/111
f 112/112/112 114/114/114 113/113/113
f 115/115/115 108/108/108 91/91/91
f 98/98/98 115/115/115 91/91/91
f 108/108/108 115/115/115 116/116/116
f 115/115/115 98/98/98 116/116/116
f 110/110/110 117/117/117 111/111/111
f 117/117/117 114/114/114 111/111/111
f 114/114/114 117/117/117 118/118/118
f 118/118/118 117/117/117 110/110/110
f 114/114/114 119/119/119 113/113/113
f 119/119/119 114/114/114 118/118/118
f 119/119/119 118/118/118 113/113/113
f 120/120/120 103/103/103 113/113/113
f 73/73/73 103/103/103 120/120/120
f 121/121/121 108/108/108 116/116/116
f 121/121/121 116/116/116 122/122/122
f 108/108/108 121/121/121 106/106/106
f 123/123/123 73/73/73 120/120/120
f 73/73/73 123/123/123 72/72/72
f 123/123/123 124/124/124 72/72/72
f 124/124/124 123/123/123 120/120/120
f 124/124/124 71/71/71 72/72/72
f 125/125/125 120/120/120 113/113/113
f 125/125/125 124/124/124 120/120/120
f 118/118/118 126/126/126 113/113/113
f 126/126/126 125/125/125 113/113/113
f 71/71/71 124/124/124 127/127/127
f 74/74/74 71/71/71 127/127/127
f 126/126/126 118/118/118 128/128/128
f 128/128/128 118/118/118 110/110/110
f 129/129/129 128/128/128 110/110/110
f 130/130/130 126/126/126 128/128/128
f 125/125/125 126/126/126 130/130/130
f 130/130/130 128/128/128 129/129/129
f 124/124/124 125/125/125 131/131/131
f 131/131/131 125/125/125 130/130/130
f 127/127/127 124/124/124 131/131/131
f 74/74/74 127/127/127 132/132/132
f 77/77/77 74/74/74 132/132/132
f 131/131/131 130/130/130 133/133/133
f 133/133/133 130/130/130 129/129/129
f 134/134/134 133/133/133 129/129/129
f 127/127/127 131/131/131 135/135/135
f 135/135/135 131/131/131 133/133/133
f 132/132/132 127/127/127 135/135/135
f 135/135/135 133/133/133 134/134/134
f 132/132/132 135/135/135 136/136/136
f 136/136/136 135/135/135 134/134/134
f 137/137/137 136/136/136 134/134/134
f 138/138/138 132/132/132 136/136/136
f 77/77/77 132/132/132 138/138/138
f 138/138/138 136/136/136 137/137/137
f 139/139/139 77/77/77 138/138/138
f 77/77/77 139/139/139 78/78/78
f 78/78/78 139/139/139 140/140/140
f 139/139/139 138/138/138 140/140/140
f 141/141/141 78/78/78 140/140/140
f 142/142/142 138/138/138 137/137/137
f 138/138/138 142/142/142 140/140/140
f 140/140/140 142/142/142 143/143/143
f 142/142/142 137/137/137 143/143/143
f 141/141/141 140/140/140 144/144/144
f 144/144/144 140/140/140 143/143/143
f 145/145/145 141/141/141 144/144/144
f 146/146/146 145/145/145 144/144/144
f 147/147/147 146/146/146 144/144/144
f 147/147/147 144/144/144 143/143/143
f 147/147/147 148/148/148 146/146/146
f 148/148/148 149/149/149 146/146/146
f 149/149/149 148/148/148 150/150/150
f 151/151/151 149/149/149 150/150/150
f 151/151/151 150/150/150 152/152/152
f 148/148/148 147/147/147 153/153/153
f 148/148/148 153/153/153 150/150/150
f 154/154/154 147/147/147 143/143/143
f 147/147/147 154/154/154 153/153/153
f 155/155/155 154/154/154 143/143/143
f 153/153/153 154/154/154 155/155/155
f 156/156/156 155/155/155 143/143/143
f 155/155/155 156/156/156 157/157/157
f 137/137/137 156/156/156 143/143/143
f 158/158/158 153/153/153 155/155/155
f 158/158/158 155/155/155 157/157/157
f 153/153/153 159/159/159 150/150/150
f 153/153/153 158/158/158 159/159/159
f 150/150/150 160/160/160 152/152/152
f 150/150/150 159/159/159 160/160/160
f 161/161/161 156/156/156 137/137/137
f 156/156/156 161/161/161 157/157/157
f 160/160/160 162/162/162 152/152/152
f 162/162/162 163/163/163 152/152/152
f 164/164/164 161/161/161 137/137/137
f 164/164/164 137/137/137 134/134/134
f 164/164/164 165/165/165 161/161/161
f 165/165/165 164/164/164 134/134/134
f 161/161/161 166/166/166 157/157/157
f 165/165/165 166/166/166 161/161/161
f 165/165/165 167/167/167 166/166/166
f 168/168/168 165/165/165 134/134/134
f 165/165/165 168/168/168 167/167/167
f 168/168/168 134/134/134 129/129/129
f 169/169/169 168/168/168 129/129/129
f 168/168/168 169/169/169 167/167/167
f 170/170/170 169/169/169 129/129/129
f 170/170/170 129/129/129 110/110/110
f 109/109/109 170/170/170 110/110/110
f 169/169/169 170/170/170 171/171/171
f 170/170/170 109/109/109 171/171/171
f 169/169/169 171/171/171 167/167/167
f 171/171/171 109/109/109 105/105/105
f 172/172/172 171/171/171 105/105/105
f 172/172/172 105/105/105 106/106/106
f 173/173/173 171/171/171 172/172/172
f 171/171/171 173/173/173 167/167/167
f 174/174/174 172/172/172 106/106/106
f 174/174/174 173/173/173 172/172/172
f 173/173/173 174/174/174 175/175/175
f 173/173/173 176/176/176 167/167/167
f 176/176/176 173/173/173 175/175/175
f 177/177/177 174/174/174 106/106/106
f 174/174/174 177/177/177 175/175/175
f 178/178/178 177/177/177 106/106/106
f 177/177/177 178/178/178 175/175/175
f 121/121/121 178/178/178 106/106/106
f 178/178/178 121/121/121 122/122/122
f 175/175/175 178/178/178 122/122/122
f 176/176/176 179/179/179 167/167/167
f 167/167/167 179/179/179 166/166/166
f 166/166/166 179/179/179 180/180/180
f 166/166/166 180/180/180 157/157/157
f 157/157/157 180/180/180 181/181/181
f 179/179/179 182/182/182 180/180/180
f 179/179/179 176/176/176 182/182/182
f 180/180/180 182/182/182 181/181/181
f 183/183/183 176/176/176 175/175/175
f 176/176/176 183/183/183 182/182/182
f 182/182/182 183/183/183 184/184/184
f 184/184/184 183/183/183 185/185/185
f 186/186/186 183/183/183 175/175/175
f 186/186/186 175/175/175 122/122/122
f 183/183/183 186/186/186 185/185/185
f 187/187/187 157/157/157 181/181/181
f 188/188/188 187/187/187 181/181/181
f 187/187/187 158/158/158 157/157/157
f 158/158/158 187/187/187 188/188/188
f 189/189/189 182/182/182 184/184/184
f 182/182/182 189/189/189 181/181/181
f 189/189/189 190/190/190 181/181/181
f 190/190/190 189/189/189 184/184/184
f 190/190/190 191/191/191 181/181/181
f 191/191/191 188/188/188 181/181/181
f 190/190/190 192/192/192 191/191/191
f 192/192/192 190/190/190 184/184/184
f 192/192/192 193/193/193 191/191/191
f 191/191/191 193/193/193 188/188/188
f 194/194/194 192/192/192 184/184/184
f 192/192/192 194/194/194 193/193/193
f 186/186/186 195/195/195 185/185/185
f 195/195/195 186/186/186 122/122/122
f 196/196/196 158/158/158 188/188/188
f 158/158/158 196/196/196 159/159/159
f 159/159/159 196/196/196 197/197/197
f 159/159/159 197/197/197 160/160/160
f 196/196/196 188/188/188 198/198/198
f 196/196/196 198/198/198 197/197/197
f 193/193/193 199/199/199 188/188/188
f 188/188/188 199/199/199 198/198/198
f 199/199/199 193/193/193 198/198/198
f 193/193/193 200/200/200 198/198/198
f 198/198/198 200/200/200 197/197/197
f 194/194/194 200/200/200 193/193/193
f 200/200/200 194/194/194 201/201/201
f 197/197/197 202/202/202 160/160/160
f 200/200/200 202/202/202 197/197/197
f 202/202/202 200/200/200 201/201/201
f 202/202/202 162/162/162 160/160/160
f 162/162/162 202/202/202 201/201/201
f 194/194/194 203/203/203 201/201/201
f 203/203/203 194/194/194 184/184/184
f 203/203/203 184/184/184 185/185/185
f 204/204/204 162/162/162 201/201/201
f 163/163/163 162/162/162 204/204/204
f 205/205/205 163/163/163 204/204/204
f 205/205/205 204/204/204 206/206/206
f 206/206/206 204/204/204 201/201/201
f 207/207/207 205/205/205 206/206/206
f 203/203/203 208/208/208 201/201/201
f 208/208/208 203/203/203 185/185/185
f 208/208/208 206/206/206 201/201/201
f 207/207/207 206/206/206 209/209/209
f 210/210/210 207/207/207 209/209/209
f 211/211/211 210/210/210 209/209/209
f 206/206/206 208/208/208 212/212/212
f 212/212/212 208/208/208 185/185/185
f 209/209/209 206/206/206 212/212/212
f 213/213/213 211/211/211 209/209/209
f 213/213/213 209/209/209 212/212/212
f 214/214/214 211/211/211 213/213/213
f 215/215/215 212/212/212 185/185/185
f 215/215/215 213/213/213 212/212/212
f 195/195/195 215/215/215 185/185/185
f 216/216/216 214/214/214 213/213/213
f 216/216/216 213/213/213 215/215/215
f 217/217/217 214/214/214 216/216/216
f 88/88/88 217/217/217 216/216/216
f 195/195/195 218/218/218 215/215/215
f 218/218/218 195/195/195 122/122/122
f 219/219/219 216/216/216 215/215/215
f 218/218/218 219/219/219 215/215/215
f 220/220/220 88/88/88 216/216/216
f 219/219/219 220/220/220 216/216/216
f 88/88/88 220/220/220 86/86/86
f 221/221/221 218/218/218 122/122/122
f 219/219/219 218/218/218 221/221/221
f 220/220/220 219/219/219 221/221/221
f 220/220/220 221/221/221 86/86/86
f 116/116/116 221/221/221 122/122/122
f 221/221/221 98/98/98 86/86/86
f 98/98/98 221/221/221 116/116/116
