g snow1_17
v 10.3389204 -0.530448122 -1.42870808
v 8.82536881 -0.239959031 0.0101060121
v 10.3628928 -0.672872385 -0.0331383186
v 11.2785445 -1.07711287 -0.0669817079
v 8.89258555 -0.0458295896 -1.208256
v 10.3506716 -0.054760484 -2.09053436
v 7.22109815 -0.619757065 0.0166866711
v 11.2371803 -0.764531564 -1.52647787
v 12.4583626 -1.00707585 -0.102705285
v 7.30570663 -0.52104718 -1.3130765
v 5.44620041 -0.812006318 0.0190369064
v 8.89023531 0.0951845322 -1.88794407
v 5.55243105 -0.680863185 -1.33751895
v 3.81419697 -0.325977645 0.0101060121
v 7.31322738 -0.160051028 -2.05716101
v 3.84663022 -0.256880725 -1.23269845
v 2.08113341 -0.131848204 0.0279678008
v 5.57170298 -0.237608795 -2.02519781
v 5.57922373 0.389434 -2.30017535
v 7.27139319 0.43267833 -2.34153949
v 2.09382469 -0.0970647205 -1.19274445
v 0.287433785 -0.0890739203 0.0524102486
v 3.85321088 0.0359586011 -1.89546482
v 0.288843926 -0.0251475184 -1.16266143
v -1.53634886 -0.0430093072 0.074032414
v 2.08630393 0.133728392 -1.84610988
v -1.54433966 -0.00446544719 -1.14197936
v -3.34838032 -0.0368986952 0.0923642498
v 8.85780206 0.481563226 -2.26727206
v 3.83393895 0.571812264 -2.22825815
v 0.281323173 0.131848204 -1.82824809
v -3.35731122 -0.00446544719 -1.128348
v -5.1096467 -0.0505300603 0.117746792
v 2.09617492 0.570402123 -2.05340064
v -1.5617314 0.17744277 -1.81649691
v 0.258290866 0.505535627 -2.16010132
v -5.12327807 -0.0115161533 -1.11518668
v -3.36154164 0.17415244 -1.80192545
v -1.57066229 0.55959104 -2.15258057
v 0.279442985 0.97229237 -1.85645091
v 2.07878318 1.07100226 -1.88841411
v -6.7971157 -0.27380242 -1.13868903
v -6.77831381 -0.366401693 0.156290652
v -8.457792 -0.315636609 0.189663994
v -8.46531276 -0.226797713 -1.08087324
v -10.0108275 -0.0566406723 0.205175547
v -6.83142913 0.00681568255 -1.8832436
v -5.13643939 0.171802205 -1.8343587
v -6.86668266 0.454770543 -2.23953928
v -9.99672612 -0.035488554 -1.00425557
v -11.453402 -0.423277389 0.202825312
v -8.48740497 0.0425392601 -1.79816508
v -3.37000249 0.521517227 -2.16668198
v -11.4106277 -0.341959245 -1.08369353
v -12.7526121 -0.855720696 0.166631687
v -10.0178782 0.107405756 -1.67736298
v -12.652022 -0.722227327 -1.22893807
v -13.9455916 -1.23363854 0.112576274
v -13.6560426 -1.01271642 -1.44750996
v -11.4247291 -0.117746792 -1.74175943
v -8.51701793 0.437848848 -2.16997231
v -10.0531318 0.402595318 -2.14129944
v -1.55092032 1.07100226 -1.93212849
v -12.6233492 -0.43596866 -1.89875515
v -8.52547878 0.916826815 -2.11779709
v -3.335219 0.9995551 -1.9311884
v -2.42990834 1.20872605 -1.31730692
v -5.98581445 1.1922744 -1.42024723
v -2.45764112 1.23034821 1.11847701
v 1.16783195 1.21013619 -1.26325151
v 4.65558123 1.21389657 -1.27500268
v -5.13972972 0.54360944 -2.17420273
v -5.13643939 0.9995551 -1.99370466
v -6.8840744 0.908365968 -2.09241454
v -9.3175081 1.18193336 -1.53540876
v 1.11001616 1.22376755 1.16407158
v 3.84286984 0.989214065 -1.9302483
v 5.55008081 0.975582699 -2.04776007
v 7.21639768 0.986863829 -2.03036833
v 7.9365098 1.20590577 -1.27124231
v 7.81993813 1.20496567 1.40614582
v 10.6096675 1.20684586 -1.20684586
v 8.80656693 1.03010816 -2.01861715
v 10.2858051 1.02258741 -1.94058934
v 10.3365702 0.485323603 -2.25129045
v 11.0750141 1.02023717 -1.90251553
v 11.1488115 0.486263697 -2.27197253
v 4.53618928 1.20073525 1.26654184
v 11.2005167 -0.160991122 -2.18125344
v 12.4146483 -0.688383938 -1.48558377
v 12.3812749 -0.14688971 -2.11168647
v 12.3338002 0.489083979 -2.29547488
v 12.9895158 -0.45524059 -1.37888309
v 13.0388708 -0.661121208 -0.116806698
v 12.9998569 -0.0533503428 -1.96926221
v 12.252012 1.06489164 -1.82965823
v 13.0163085 0.491904262 -2.30534587
v 12.9100779 1.11659682 -1.77983324
v 12.4940862 1.21906708 -1.09168433
v 10.5664232 1.19133431 1.43716892
v 13.6363006 -0.106935709 -1.21201638
v 13.959693 -0.0350185069 -1.65809105
v 13.8459416 -0.148769899 -0.640439137
v 13.9441814 -0.166631687 0.198124841
v 14.9002572 -0.193894418 0.0716821786
v 14.6666438 -0.210346065 -0.898965027
v 15.4022675 0.399304988 -0.0467696837
v 14.2873158 0.662061302 -2.19253457
v 15.3844057 0.501305203 -1.14291946
v 15.1061378 0.948319969 -0.0754425552
v 14.0179788 1.17911308 -1.53117834
v 14.8523124 1.10813597 -0.901315262
v 14.1124583 1.21765694 -0.771112223
v 14.0631033 1.19979515 1.29521471
v 15.1061378 0.948319969 -0.0754425552
v 12.4762244 1.19368454 1.42353756
v 15.0816954 0.990154159 0.838799001
v 15.4022675 0.399304988 -0.0467696837
v 15.3782951 0.398834941 1.03668882
v 14.8852157 -0.192014229 0.882043332
v 14.9002572 -0.193894418 0.0716821786
v 13.9441814 -0.166631687 0.198124841
v 13.9611031 -0.160521075 1.02070722
v 13.0388708 -0.661121208 -0.116806698
v 14.7169388 0.016216624 1.64727997
v 15.0257598 0.450070072 1.90251553
v 13.0379307 -0.573692452 1.00002515
v 12.4583626 -1.00707585 -0.102705285
v 13.9484119 0.0345484598 1.77654291
v 14.6962568 1.08134329 1.59886512
v 12.3986667 -0.879693097 1.10766593
v 11.2785445 -1.07711287 -0.0669817079
v 12.9500319 -0.145949616 1.90674595
v 13.9535824 0.516346709 2.32837817
v 13.8732043 1.06395155 1.99088438
v 12.8456814 0.973232464 2.08489379
v 11.2179084 -0.933278463 1.17394256
v 10.3628928 -0.672872385 -0.0331383186
v 12.9034972 0.4054156 2.27902323
v 12.2867955 -0.28978402 2.07267257
v 12.1904358 0.912596392 2.0750228
v 10.2919157 -0.598604947 1.08651381
v 8.82536881 -0.239959031 0.0101060121
v 11.1055672 -0.314696515 2.13659897
v 12.2195787 0.353240375 2.3246178
v 11.0129679 0.864181543 2.12061737
v 11.0374103 0.341959245 2.34153949
v 10.1997865 -0.161461169 2.01250654
v 8.75862213 -0.257820819 0.98827397
v 10.174874 0.390844141 2.30910624
v 10.1734638 0.873112438 2.19864518
v 8.63076933 0.867471873 2.17138245
v 7.15999204 -0.554420522 1.08604376
v 7.22109815 -0.619757065 0.0166866711
v 5.41188697 -0.690734173 1.16078125
v 5.44620041 -0.812006318 0.0190369064
v 3.81419697 -0.325977645 0.0101060121
v 8.68811507 0.0209170947 1.86021129
v 8.64769102 0.467931861 2.25646097
v 7.0927753 -0.157700793 1.98054334
v 7.01239725 0.876872814 2.21133645
v 7.03871989 0.408235883 2.3086362
v 5.33667944 0.866531779 2.07314261
v 5.39496528 -0.176032629 2.01814711
v 5.37616339 0.401655224 2.14646996
v 3.6976253 0.984043547 1.89781506
v 3.74745029 0.042069213 1.89969524
v 3.7206576 0.542669345 2.16010132
v 1.98994428 1.0963848 1.90345562
v 3.78411396 -0.300595103 1.04514967
v 0.225387571 1.09497466 1.8193172
v 2.02754805 0.146419663 1.94575986
v 2.0510504 -0.144539475 1.07194235
v 0.276622702 0.263931431 1.91943722
v 2.08113341 -0.131848204 0.0279678008
v 2.03224852 0.66394149 2.24423975
v 0.273332373 -0.0580508135 1.05737089
v 0.287433785 -0.0890739203 0.0524102486
v -1.5297682 -0.0660416137 1.18475365
v -1.53634886 -0.0430093072 0.074032414
v 0.303885433 0.702955397 2.22355768
v -1.57395262 1.0954447 1.77983324
v -1.55938116 0.68321342 2.21039636
v -3.37141263 1.12505767 1.84516978
v -3.34461995 -0.0589909076 1.11894706
v -3.3521407 0.231498183 1.93776906
v -3.34838032 -0.0368986952 0.0923642498
v -5.1096467 -0.0505300603 0.117746792
v -1.54057928 0.253590396 2.06045134
v -5.10588633 -0.0674517549 1.1513803
v -5.98205407 1.22987817 1.10014517
v -3.36765225 0.769702082 2.14835015
v -5.11340708 0.783333447 2.11450676
v -6.79100508 -0.296834726 1.21577675
v -6.77831381 -0.366401693 0.156290652
v -5.10870661 0.237608795 1.95281056
v -6.81638763 0.116336651 2.06045134
v -8.48317455 -0.247949831 1.2562008
v -8.457792 -0.315636609 0.189663994
v -9.36686304 1.23363854 1.09215437
v -12.422169 1.23128831 1.02587774
v -6.83095908 0.672402338 2.28513384
v -8.52124836 0.170862111 2.07690299
v -10.0597124 -0.0444194484 1.18663384
v -10.0108275 -0.0566406723 0.205175547
v -8.54099034 0.788033917 2.25505083
v -10.1335098 0.247949831 2.01203649
v -11.5309598 -0.342429292 1.23786897
v -11.453402 -0.423277389 0.202825312
v -10.1791044 0.698254927 2.2837237
v -11.6508218 0.0707420844 2.05387068
v -12.8969166 -0.765941705 1.27923311
v -12.7526121 -0.855720696 0.166631687
v -11.7438911 0.615996689 2.26022135
v -13.0863455 -0.300125056 2.12907822
v -13.2433413 0.452420308 2.34153949
v -10.1936758 1.11001616 1.81132639
v -11.7739741 1.05972113 1.78030329
v -13.1878757 1.1034355 1.79722498
v -8.53958019 1.12928809 1.85316058
v -14.3883759 1.16407158 1.40238544
v -14.5101181 0.896614791 -1.64445968
v -12.2647032 1.12975814 -1.71966722
v -6.84036003 1.10249541 1.83388865
v -5.11951769 1.06630178 1.75210046
v -14.8415013 0.288843926 1.98430372
v -10.0822747 0.897554885 -2.12531784
v -11.4792546 0.253120349 -2.20663598
v -11.5356602 0.672402338 -2.25035036
v -12.7145383 0.0025852589 -2.21227655
v -12.8287597 0.556770758 -2.28090342
v -13.7359506 -0.319867033 -2.21838716
v -13.3932863 -0.619287018 -1.90909619
v -14.0137484 0.368751929 -2.28325366
v -14.7258697 -0.960071146 -1.80004527
v -15.0163588 0.0632213313 -1.76949221
v -15.4022675 -0.0359586011 -0.638558948
v -15.1507923 -1.04467962 -0.5981349
v -15.0426814 -1.03339849 0.775812694
v -15.1348107 0.892854415 -0.715646668
v -14.9721744 0.988744018 0.425157577
v -15.4022675 0.0378387894 0.68650375
v -14.5246896 -0.791324247 1.97443273
v -14.2450116 -1.19368454 1.23363854
vt 0.731304915 0.48692607
vt 0.702392489 0.522722408
vt 0.740942391 0.51790367
vt 0.767101253 0.512396541
vt 0.69688536 0.493809981
vt 0.725797787 0.469027901
vt 0.663842586 0.531671492
vt 0.751956649 0.482107332
vt 0.794636898 0.49931711
vt 0.659023848 0.502070674
vt 0.621162337 0.537867012
vt 0.692066622 0.477288594
vt 0.619785555 0.507577803
vt 0.581235653 0.537178621
vt 0.655581893 0.483484114
vt 0.57985887 0.508954586
vt 0.541997359 0.539243795
vt 0.617720382 0.489679634
vt 0.614966817 0.47453503
vt 0.652139937 0.469027901
vt 0.539243795 0.511019759
vt 0.502070674 0.544750924
vt 0.577793697 0.491744808
vt 0.498628719 0.517215279
vt 0.460078817 0.552323226
vt 0.537178621 0.494498372
vt 0.457325252 0.52409919
vt 0.41877535 0.559895528
vt 0.687936275 0.464897554
vt 0.575728524 0.477288594
vt 0.496563546 0.501382283
vt 0.416021785 0.531671492
vt 0.376783492 0.568844613
vt 0.535801839 0.483484114
vt 0.454571688 0.508266195
vt 0.494498372 0.490368026
vt 0.374718318 0.539932186
vt 0.413956612 0.515838497
vt 0.453194905 0.496563546
vt 0.49312159 0.477288594
vt 0.533736666 0.470404683
vt 0.334791634 0.548192879
vt 0.334103243 0.577793697
vt 0.28935782 0.581235653
vt 0.294176558 0.552323226
vt 0.243924007 0.577793697
vt 0.335480025 0.53029471
vt 0.374029927 0.522722408
vt 0.334791634 0.517215279
vt 0.254249873 0.551634835
vt 0.197801802 0.565402657
vt 0.296930122 0.535113448
vt 0.41257983 0.503447457
vt 0.217076753 0.545439315
vt 0.158563509 0.533736666
vt 0.260445393 0.537178621
vt 0.187475935 0.53029471
vt 0.139976948 0.481418941
vt 0.172331331 0.513084932
vt 0.22740262 0.534425057
vt 0.298995296 0.522722408
vt 0.26457574 0.524787581
vt 0.451818123 0.484172506
vt 0.201932149 0.524787581
vt 0.300372078 0.511019759
vt 0.41257983 0.491056417
vt 0.43116639 0.471781465
vt 0.354066585 0.486237679
vt 0.421528914 0.414645003
vt 0.511019759 0.459390425
vt 0.588119564 0.445622603
vt 0.373341536 0.510331368
vt 0.373341536 0.497940328
vt 0.334791634 0.506201021
vt 0.286604256 0.497940328
vt 0.501382283 0.402253963
vt 0.572974959 0.464897554
vt 0.611524862 0.460767208
vt 0.648697982 0.455260079
vt 0.661089022 0.435296736
vt 0.648697982 0.373341536
vt 0.718913875 0.424282479
vt 0.683805929 0.450441341
vt 0.71547192 0.442869039
vt 0.720979049 0.456636861
vt 0.732681698 0.438050301
vt 0.738188827 0.451129732
vt 0.576416915 0.386420967
vt 0.743695956 0.464897554
vt 0.776738729 0.473846639
vt 0.768478036 0.458013643
vt 0.762282516 0.444934212
vt 0.789129769 0.467651119
vt 0.809093111 0.487614461
vt 0.781557467 0.453883296
vt 0.756775387 0.429789608
vt 0.775361947 0.441492256
vt 0.770543209 0.42497087
vt 0.759528951 0.413268221
vt 0.707211226 0.366457625
vt 0.803585982 0.458702034
vt 0.801520809 0.448376168
vt 0.816665414 0.463520772
vt 0.833875191 0.470404683
vt 0.844201058 0.445622603
vt 0.823549325 0.445622603
vt 0.843512667 0.422217305
vt 0.797390462 0.431854781
vt 0.822172543 0.42497087
vt 0.834563583 0.405007527
vt 0.792571725 0.416021785
vt 0.813911849 0.409826265
vt 0.798767245 0.399500398
vt 0.780180685 0.362327278
vt 0.816665414 0.370587972
vt 0.747826302 0.363704061
vt 0.8022092 0.357508541
vt 0.826302889 0.352001412
vt 0.805651156 0.344429109
vt 0.807027938 0.327907723
vt 0.822172543 0.32653094
vt 0.803585982 0.30174886
vt 0.78981816 0.313451509
vt 0.782245858 0.280408736
vt 0.792571725 0.330661287
vt 0.791194942 0.340298763
vt 0.769854818 0.301060469
vt 0.76503608 0.273524825
vt 0.778803902 0.325154158
vt 0.787752987 0.352689803
vt 0.753333431 0.296930122
vt 0.732681698 0.268017696
vt 0.75884056 0.321023811
vt 0.773296773 0.337545198
vt 0.772608382 0.349936238
vt 0.753333431 0.348559456
vt 0.725797787 0.29555334
vt 0.705146053 0.271459651
vt 0.754710213 0.334791634
vt 0.744384347 0.32033542
vt 0.740254 0.348559456
vt 0.702392489 0.297618514
vt 0.665219369 0.279720345
vt 0.719602267 0.32033542
vt 0.740942391 0.334791634
vt 0.71547192 0.348559456
vt 0.716160311 0.335480025
vt 0.699638924 0.321712203
vt 0.665219369 0.302437251
vt 0.698262142 0.336168416
vt 0.697573751 0.347871065
vt 0.664530977 0.350624629
vt 0.627357857 0.308632771
vt 0.626669466 0.284539082
vt 0.588119564 0.316893465
vt 0.584677608 0.291422994
vt 0.546127706 0.302437251
vt 0.664530977 0.325154158
vt 0.664530977 0.340298763
vt 0.628046248 0.330661287
vt 0.629423031 0.356131758
vt 0.628734639 0.345805892
vt 0.59224991 0.363704061
vt 0.590184737 0.339610372
vt 0.591561519 0.352689803
vt 0.555765181 0.374029927
vt 0.553700008 0.347871065
vt 0.554388399 0.361638887
vt 0.51790367 0.38160223
vt 0.550258052 0.325842549
vt 0.478665377 0.389174532
vt 0.515150106 0.355443367
vt 0.51170815 0.334791634
vt 0.475911812 0.363704061
vt 0.507577803 0.311386336
vt 0.516526888 0.369211189
vt 0.471781465 0.342363936
vt 0.467651119 0.319647029
vt 0.431854781 0.350624629
vt 0.426347652 0.325842549
vt 0.478665377 0.376095101
vt 0.438738692 0.396058443
vt 0.436673519 0.382290621
vt 0.398812007 0.399500398
vt 0.390551314 0.355443367
vt 0.39399327 0.375406709
vt 0.385044185 0.33272646
vt 0.3451175 0.337545198
vt 0.435296736 0.371964754
vt 0.349936238 0.360950496
vt 0.3451175 0.42497087
vt 0.396746834 0.388486141
vt 0.358196932 0.394681661
vt 0.310009554 0.363704061
vt 0.303125643 0.340987154
vt 0.354754976 0.380913838
vt 0.315516683 0.383667403
vt 0.270082869 0.371276363
vt 0.260445393 0.349247847
vt 0.279031954 0.435296736
vt 0.23359814 0.446999385
vt 0.318958638 0.396746834
vt 0.278343562 0.390551314
vt 0.231532967 0.382979012
vt 0.219830318 0.364392452
vt 0.283850691 0.404319136
vt 0.243235616 0.399500398
vt 0.195736629 0.40018879
vt 0.179215242 0.386420967
vt 0.249431136 0.409826265
vt 0.212258015 0.411203047
vt 0.167512593 0.426347652
vt 0.147549251 0.424282479
vt 0.222583882 0.41877535
vt 0.186099153 0.427724434
vt 0.199866975 0.431854781
vt 0.257691829 0.422217305
vt 0.232221358 0.430477999
vt 0.212946407 0.440803865
vt 0.288669429 0.416021785
vt 0.201243758 0.453194905
vt 0.206750887 0.49312159
vt 0.234974922 0.500693892
vt 0.323088985 0.410514656
vt 0.360262105 0.405695919
vt 0.185410762 0.451129732
vt 0.268017696 0.513773323
vt 0.234286531 0.523410799
vt 0.239105269 0.515838497
vt 0.210881233 0.519280452
vt 0.218453535 0.51170815
vt 0.194359847 0.513773323
vt 0.188852718 0.51790367
vt 0.203308931 0.504824239
vt 0.178526851 0.502070674
vt 0.1902295 0.495875154
vt 0.179903633 0.483484114
vt 0.162005464 0.487614461
vt 0.1592519 0.469027901
vt 0.195736629 0.482107332
vt 0.19642502 0.467651119
vt 0.177150069 0.46833951
vt 0.169577766 0.449064559
vt 0.157186726 0.45594847
vn -0.294218035 -0.921276871 -0.25433182
vn -0.0197514436 -0.999695897 -0.0147646129
vn -0.309901841 -0.944802579 -0.106343483
vn -0.121696178 -0.991853994 -0.037625709
vn -0.0197514436 -0.976170189 -0.216105627
vn -0.184431399 -0.686019792 -0.703819511
vn 0.160612317 -0.984012092 -0.0769667902
vn -0.0981704698 -0.921276871 -0.376313016
vn 0.207663732 -0.976170189 -0.0629883789
vn 0.168454219 -0.960486384 -0.221560561
vn -0.0822323049 -0.996613189 -0
vn 0.0116161669 -0.795806429 -0.605439669
vn -0.0668028593 -0.968328287 -0.240577861
vn -0.184220151 -0.982885006 -0
vn 0.105718998 -0.748755013 -0.654361844
vn -0.176589496 -0.960486384 -0.215132648
vn -0.0666744842 -0.997774781 -0
vn -0.0668028593 -0.717387403 -0.693464269
vn -0.0432771514 -0.0351418748 -0.998444859
vn 0.0272999721 -0.0194580695 -0.99943789
vn -0.0589609567 -0.984012092 -0.168058944
vn -0.0275912317 -0.999619289 -0
vn -0.12953808 -0.740913111 -0.65898987
vn -0.0275933462 -0.991853994 -0.124355381
vn -0.011909541 -0.999695897 -0.0215934284
vn -0.0432771514 -0.811490234 -0.582761262
vn -0.011909541 -0.991853994 -0.126821987
vn 0.00377426428 -0.999695897 -0.0243694121
vn 0.0272999721 -0.0194580695 -0.99943789
vn -0.0746447619 -0.0194580695 -0.997020332
vn -0.011909541 -0.85854165 -0.5126055
vn 0.00377426428 -0.991853994 -0.12732403
vn 0.0819418027 -0.996637116 -0
vn -0.0275933462 -0.0351418748 -0.999001329
vn -0.011909541 -0.882067358 -0.470972758
vn 0.0116161669 -0.0743513879 -0.997164448
vn 0.0821932905 -0.991853994 -0.0973134966
vn 0.00377426428 -0.88990926 -0.456121983
vn 0.00377426428 -0.105718998 -0.994388882
vn 0.0194580695 0.811783608 -0.583634095
vn -0.00406763834 0.835309316 -0.549765223
vn 0.0586675826 -0.984012092 -0.168161582
vn 0.0663829671 -0.997794218 -0
vn -0.0822323049 -0.996613189 -0
vn -0.0746447619 -0.984012092 -0.161704553
vn 0.0351308658 -0.999382721 -0
vn 0.0351418748 -0.850699747 -0.524475918
vn 0.0586675826 -0.866383553 -0.495921017
vn 0.0116161669 -0.246873246 -0.968978155
vn 0.0351418748 -0.991853994 -0.122436523
vn 0.270398953 -0.960486384 0.0659568962
vn -0.0589609567 -0.866383553 -0.495886222
vn 0.00377426428 -0.160612317 -0.987010354
vn 0.262557051 -0.952644481 -0.15340237
vn 0.301766564 -0.952644481 0.0374891055
vn 0.0429837774 -0.897751163 -0.43840078
vn 0.301766564 -0.936960676 -0.176186357
vn 0.129213793 -0.991616758 -0
vn 0.137086609 -0.960486384 -0.242225448
vn 0.215505635 -0.85854165 -0.465256442
vn -0.0275933462 -0.34881798 -0.936784193
vn 0.0429837774 -0.458604616 -0.887600248
vn 0.0194580695 0.819625511 -0.572569127
vn 0.254715148 -0.787964526 -0.56056409
vn 0.00377426428 0.725522679 -0.688187908
vn 0.00377426428 0.803941706 -0.594696132
vn -0.00406763834 0.999989271 -0.0022162751
vn -0.00406763834 0.999989271 -0.0022162751
vn -0.00406763834 0.999989271 0.0022162751
vn 0.00377426428 0.999989271 -0.00268560722
vn 0.00377426428 0.999989271 -0.00268560722
vn 0.0351418748 -0.176296122 -0.983709676
vn 0.0116161669 0.803941706 -0.594594651
vn 0.0116161669 0.749048387 -0.66241345
vn -0.00406763834 0.999989271 -0.0022162751
vn 0.00377426428 0.999989271 0.00268560722
vn -0.00406763834 0.835309316 -0.549765223
vn -0.00406763834 0.827467414 -0.561499006
vn -0.00406763834 0.827467414 -0.561499006
vn 0.00377426428 0.999989271 -0.00268560722
vn 0.00377426428 0.999989271 0.00268560722
vn 0.00377426428 0.999989271 -0.00268560722
vn 0.0116161669 0.835309316 -0.54965754
vn 0.0194580695 0.850993121 -0.524816245
vn -0.0275933462 0.0746447619 -0.996828354
vn 0.00377426428 0.850993121 -0.525163272
vn -0.00406763834 0.215799009 -0.976429333
vn 0.00377426428 0.999989271 0.00268560722
vn -0.0432771514 -0.552707448 -0.832250903
vn 0.176296122 -0.905593066 -0.38577309
vn 0.105718998 -0.568391253 -0.815938035
vn 0.0272999721 0.215799009 -0.976056094
vn 0.411553201 -0.866383553 -0.282848905
vn 0.466446519 -0.882067358 -0.0662179834
vn 0.239031343 -0.67817789 -0.694937959
vn -0.00406763834 0.858835024 -0.512236133
vn 0.121402804 0.145221886 -0.981922585
vn 0.00377426428 0.890202634 -0.455549146
vn -0.00406763834 0.999989271 -0.0022162751
vn -0.00406763834 0.999989271 0.0022162751
vn 0.270398953 -0.944802579 -0.185020251
vn 0.309608466 -0.764438818 -0.565487303
vn 0.191979927 -0.976170189 -0.101170496
vn 0.19982183 -0.976170189 0.0846344964
vn 0.419395103 -0.905593066 -0.0633162449
vn 0.395869395 -0.866383553 -0.304412486
vn 0.976170189 -0.19982183 -0.0846344964
vn 0.450762714 0.0903285672 -0.88806178
vn 0.85854165 -0.113560901 -0.500010157
vn 0.513170193 0.858286871 -0
vn 0.184138025 0.890202634 -0.416692282
vn 0.552707448 0.796099803 -0.246454014
vn 0.0429445837 0.999077456 -0
vn 0.0507607024 0.998710845 -0
vn 0.513170193 0.858286871 -0
vn -0.00406763834 0.999989271 0.0022162751
vn 0.513497935 0.850993121 0.110138906
vn 0.976170189 -0.19982183 -0.0846344964
vn 0.976170189 -0.0978770957 0.193679725
vn 0.388027493 -0.913434968 0.122764912
vn 0.419395103 -0.905593066 -0.0633162449
vn 0.19982183 -0.976170189 0.0846344964
vn 0.215505635 -0.960486384 0.176134118
vn 0.466446519 -0.882067358 -0.0662179834
vn 0.309608466 -0.835015942 0.454852695
vn 0.693861695 -0.0194580695 0.719845353
vn 0.411553201 -0.882067358 0.229305777
vn 0.207663732 -0.976170189 -0.0629883789
vn 0.176296122 -0.827174039 0.533575473
vn 0.505656032 0.709838874 0.490347581
vn 0.191979927 -0.929118774 0.316041156
vn -0.121696178 -0.991853994 -0.037625709
vn 0.270398953 -0.756596916 0.595353267
vn 0.19982183 -0.0586675826 0.978074308
vn 0.0978770957 0.7882579 0.607510952
vn -0.0197514436 0.7882579 0.615027937
vn -0.113854275 -0.944802579 0.307221892
vn -0.309901841 -0.944802579 -0.106343483
vn 0.0900351931 -0.137086609 0.986458781
vn 0.144928511 -0.701703598 0.697572783
vn -0.00406763834 0.749048387 0.662502806
vn -0.270692327 -0.936960676 0.220975916
vn -0.0197514436 -0.999695897 -0.0147646129
vn -0.0746447619 -0.7095455 0.7006949
vn 0.0586675826 -0.0272999721 0.997904217
vn 0.0116161669 0.741206485 0.671176588
vn -0.011909541 -0.0351418748 0.999311369
vn -0.192273301 -0.787964526 0.58492981
vn -0.011909541 -0.984012092 0.177703027
vn -0.0668028593 -0.191979927 0.97912261
vn 0.00377426428 0.772574095 0.634913398
vn 0.00377426428 0.764732193 0.644337201
vn 0.129244706 -0.960486384 0.246498909
vn 0.160612317 -0.984012092 -0.0769667902
vn -0.0746447619 -0.960486384 0.268130688
vn -0.0822323049 -0.996613189 -0
vn -0.184220151 -0.982885006 -0
vn -0.00406763834 -0.827174039 0.561931101
vn 0.00377426428 -0.254715148 0.967008763
vn 0.0743513879 -0.780122624 0.621192855
vn -0.0275933462 0.780415998 0.624651485
vn 0.00377426428 -0.19982183 0.97982498
vn -0.0354352488 0.7882579 0.614323877
vn -0.0668028593 -0.740913111 0.66827026
vn -0.0589609567 -0.0978770957 0.993450391
vn 0.0272999721 0.858835024 0.511524304
vn -0.0981704698 -0.772280721 0.627650418
vn -0.00406763834 -0.0116161669 0.999924257
vn 0.0194580695 0.882360732 0.470171163
vn -0.160905691 -0.968328287 0.190918014
vn -0.00406763834 0.90588644 0.423501137
vn -0.0432771514 -0.819332137 0.571683424
vn -0.0668028593 -0.984012092 0.165098701
vn -0.011909541 -0.827174039 0.561819607
vn -0.0666744842 -0.997774781 -0
vn 0.00377426428 0.0589609567 0.998253155
vn -0.0197514436 -0.984012092 0.177003061
vn -0.0275912317 -0.999619289 -0
vn 0.00377426428 -0.984012092 0.178061669
vn -0.011909541 -0.999695897 -0.0215934284
vn -0.011909541 0.153063788 0.988144544
vn 0.00377426428 0.913728342 0.406308099
vn -0.00406763834 0.200115204 0.97976393
vn -0.011909541 0.921570245 0.388028925
vn -0.00406763834 -0.991853994 0.127314995
vn -0.011909541 -0.787964526 0.615605448
vn 0.00377426428 -0.999695897 -0.0243694121
vn 0.0819418027 -0.996637116 -0
vn 0.00377426428 -0.803648332 0.595092526
vn 0.0743513879 -0.984012092 0.161839656
vn -0.00406763834 0.999989271 0.0022162751
vn -0.0197514436 0.192273301 0.981142629
vn 0.0272999721 0.215799009 0.976056094
vn 0.0586675826 -0.976170189 0.208925528
vn 0.0663829671 -0.997794218 -0
vn 0.0586675826 -0.748755013 0.660245443
vn 0.0429837774 -0.733071208 0.678792309
vn -0.0746447619 -0.968328287 0.238261388
vn -0.0822323049 -0.996613189 -0
vn -0.00406763834 0.999989271 0.0022162751
vn -0.0275831432 0.999619513 -0
vn 0.0429837774 0.200115204 0.978829045
vn -0.0432771514 -0.733071208 0.678773668
vn 0.0272999721 -0.976170189 0.21528231
vn 0.0351308658 -0.999382721 -0
vn -0.011909541 0.24716662 0.968899801
vn 0.0272999721 -0.764438818 0.644118005
vn 0.239031343 -0.936960676 0.254889601
vn 0.270398953 -0.960486384 0.0659568962
vn -0.011909541 0.239324717 0.970866542
vn 0.160612317 -0.693861695 0.701968398
vn 0.278240856 -0.905593066 0.320130013
vn 0.301766564 -0.952644481 0.0374891055
vn 0.0272999721 0.262850425 0.964450292
vn 0.113560901 -0.568391253 0.814883615
vn -0.0981704698 0.239324717 0.965963891
vn -0.0275933462 0.921570245 0.387229765
vn -0.011909541 0.90588644 0.423353187
vn -0.0981704698 0.7882579 0.607463613
vn 0.00377426428 0.93725405 0.348626735
vn -0.270692327 0.945095953 0.183082779
vn -0.255008522 0.929412148 -0.266765278
vn -0.0354352488 0.992147369 -0.119949749
vn 0.0194580695 0.929412148 0.368530112
vn -0.00406763834 0.929412148 0.369021021
vn -0.647103653 0.176589496 0.741669072
vn 0.00377426428 0.631419848 -0.775431964
vn 0.121402804 -0.450762714 -0.884349668
vn 0.00377426428 0.568684627 -0.822546989
vn 0.105718998 -0.356659882 -0.928233388
vn -0.0589609567 0.474581796 -0.878234436
vn -0.0981704698 -0.340976077 -0.934932016
vn 0.19982183 -0.740913111 -0.64118562
vn -0.215799009 0.364795159 -0.905734663
vn -0.443214185 -0.740913111 -0.5045879
vn -0.7882579 0.0197514436 -0.615027937
vn -0.992147369 0.011909541 -0.124506072
vn -0.654945556 -0.748755013 -0.102040428
vn -0.780415998 -0.584075058 0.22317526
vn -0.811783608 0.560842724 -0.162673943
vn -0.372141454 0.928176028 -0
vn -0.968621661 0.0589609567 0.241444992
vn -0.364795159 -0.56054935 0.743443957
vn 0.0743513879 -0.960486384 0.268212187
g snow1_17_0
f 3/3/3 2/2/2 1/1/1
f 3/3/3 1/1/1 4/4/4
f 2/2/2 5/5/5 1/1/1
f 1/1/1 5/5/5 6/6/6
f 2/2/2 7/7/7 5/5/5
f 1/1/1 8/8/8 4/4/4
f 8/8/8 1/1/1 6/6/6
f 4/4/4 8/8/8 9/9/9
f 7/7/7 10/10/10 5/5/5
f 7/7/7 11/11/11 10/10/10
f 5/5/5 12/12/12 6/6/6
f 5/5/5 10/10/10 12/12/12
f 11/11/11 13/13/13 10/10/10
f 11/11/11 14/14/14 13/13/13
f 10/10/10 15/15/15 12/12/12
f 10/10/10 13/13/13 15/15/15
f 14/14/14 16/16/16 13/13/13
f 14/14/14 17/17/17 16/16/16
f 13/13/13 18/18/18 15/15/15
f 13/13/13 16/16/16 18/18/18
f 15/15/15 18/18/18 19/19/19
f 15/15/15 20/20/20 12/12/12
f 20/20/20 15/15/15 19/19/19
f 17/17/17 21/21/21 16/16/16
f 17/17/17 22/22/22 21/21/21
f 16/16/16 23/23/23 18/18/18
f 18/18/18 23/23/23 19/19/19
f 16/16/16 21/21/21 23/23/23
f 22/22/22 24/24/24 21/21/21
f 22/22/22 25/25/25 24/24/24
f 21/21/21 26/26/26 23/23/23
f 21/21/21 24/24/24 26/26/26
f 25/25/25 27/27/27 24/24/24
f 25/25/25 28/28/28 27/27/27
f 20/20/20 29/29/29 12/12/12
f 12/12/12 29/29/29 6/6/6
f 23/23/23 30/30/30 19/19/19
f 23/23/23 26/26/26 30/30/30
f 24/24/24 31/31/31 26/26/26
f 24/24/24 27/27/27 31/31/31
f 28/28/28 32/32/32 27/27/27
f 32/32/32 28/28/28 33/33/33
f 26/26/26 34/34/34 30/30/30
f 26/26/26 31/31/31 34/34/34
f 27/27/27 35/35/35 31/31/31
f 27/27/27 32/32/32 35/35/35
f 31/31/31 36/36/36 34/34/34
f 31/31/31 35/35/35 36/36/36
f 37/37/37 32/32/32 33/33/33
f 32/32/32 38/38/38 35/35/35
f 32/32/32 37/37/37 38/38/38
f 35/35/35 39/39/39 36/36/36
f 35/35/35 38/38/38 39/39/39
f 34/34/34 36/36/36 40/40/40
f 36/36/36 39/39/39 40/40/40
f 34/34/34 41/41/41 30/30/30
f 41/41/41 34/34/34 40/40/40
f 37/37/37 33/33/33 42/42/42
f 33/33/33 43/43/43 42/42/42
f 43/43/43 44/44/44 42/42/42
f 44/44/44 45/45/45 42/42/42
f 44/44/44 46/46/46 45/45/45
f 37/37/37 42/42/42 47/47/47
f 42/42/42 45/45/45 47/47/47
f 37/37/37 48/48/48 38/38/38
f 48/48/48 37/37/37 47/47/47
f 48/48/48 47/47/47 49/49/49
f 46/46/46 50/50/50 45/45/45
f 46/46/46 51/51/51 50/50/50
f 45/45/45 52/52/52 47/47/47
f 47/47/47 52/52/52 49/49/49
f 45/45/45 50/50/50 52/52/52
f 38/38/38 48/48/48 53/53/53
f 38/38/38 53/53/53 39/39/39
f 51/51/51 54/54/54 50/50/50
f 51/51/51 55/55/55 54/54/54
f 50/50/50 56/56/56 52/52/52
f 50/50/50 54/54/54 56/56/56
f 55/55/55 57/57/57 54/54/54
f 57/57/57 55/55/55 58/58/58
f 59/59/59 57/57/57 58/58/58
f 54/54/54 57/57/57 60/60/60
f 54/54/54 60/60/60 56/56/56
f 52/52/52 56/56/56 61/61/61
f 52/52/52 61/61/61 49/49/49
f 56/56/56 62/62/62 61/61/61
f 56/56/56 60/60/60 62/62/62
f 39/39/39 53/53/53 63/63/63
f 39/39/39 63/63/63 40/40/40
f 64/64/64 57/57/57 59/59/59
f 57/57/57 64/64/64 60/60/60
f 49/49/49 61/61/61 65/65/65
f 61/61/61 62/62/62 65/65/65
f 53/53/53 66/66/66 63/63/63
f 63/63/63 67/67/67 40/40/40
f 66/66/66 67/67/67 63/63/63
f 67/67/67 66/66/66 68/68/68
f 67/67/67 68/68/68 69/69/69
f 67/67/67 70/70/70 40/40/40
f 70/70/70 67/67/67 69/69/69
f 70/70/70 41/41/41 40/40/40
f 41/41/41 70/70/70 71/71/71
f 53/53/53 72/72/72 66/66/66
f 48/48/48 72/72/72 53/53/53
f 72/72/72 48/48/48 49/49/49
f 72/72/72 73/73/73 66/66/66
f 73/73/73 72/72/72 49/49/49
f 66/66/66 73/73/73 68/68/68
f 74/74/74 73/73/73 49/49/49
f 73/73/73 74/74/74 68/68/68
f 74/74/74 49/49/49 65/65/65
f 74/74/74 65/65/65 75/75/75
f 68/68/68 74/74/74 75/75/75
f 76/76/76 70/70/70 69/69/69
f 71/71/71 70/70/70 76/76/76
f 77/77/77 41/41/41 71/71/71
f 41/41/41 77/77/77 30/30/30
f 30/30/30 77/77/77 19/19/19
f 77/77/77 78/78/78 19/19/19
f 78/78/78 77/77/77 71/71/71
f 78/78/78 79/79/79 19/19/19
f 79/79/79 20/20/20 19/19/19
f 79/79/79 78/78/78 80/80/80
f 78/78/78 71/71/71 80/80/80
f 80/80/80 71/71/71 81/81/81
f 82/82/82 80/80/80 81/81/81
f 20/20/20 79/79/79 83/83/83
f 83/83/83 79/79/79 80/80/80
f 83/83/83 80/80/80 82/82/82
f 29/29/29 20/20/20 83/83/83
f 29/29/29 83/83/83 84/84/84
f 84/84/84 83/83/83 82/82/82
f 85/85/85 29/29/29 84/84/84
f 29/29/29 85/85/85 6/6/6
f 85/85/85 84/84/84 86/86/86
f 86/86/86 84/84/84 82/82/82
f 6/6/6 85/85/85 87/87/87
f 87/87/87 85/85/85 86/86/86
f 71/71/71 88/88/88 81/81/81
f 88/88/88 71/71/71 76/76/76
f 89/89/89 6/6/6 87/87/87
f 89/89/89 8/8/8 6/6/6
f 8/8/8 89/89/89 90/90/90
f 8/8/8 90/90/90 9/9/9
f 91/91/91 89/89/89 87/87/87
f 89/89/89 91/91/91 90/90/90
f 92/92/92 87/87/87 86/86/86
f 92/92/92 91/91/91 87/87/87
f 90/90/90 93/93/93 9/9/9
f 93/93/93 94/94/94 9/9/9
f 90/90/90 91/91/91 95/95/95
f 93/93/93 90/90/90 95/95/95
f 96/96/96 92/92/92 86/86/86
f 96/96/96 86/86/86 82/82/82
f 91/91/91 92/92/92 97/97/97
f 95/95/95 91/91/91 97/97/97
f 92/92/92 96/96/96 98/98/98
f 97/97/97 92/92/92 98/98/98
f 99/99/99 96/96/96 82/82/82
f 98/98/98 96/96/96 99/99/99
f 82/82/82 100/100/100 99/99/99
f 100/100/100 82/82/82 81/81/81
f 93/93/93 101/101/101 94/94/94
f 93/93/93 95/95/95 102/102/102
f 101/101/101 93/93/93 102/102/102
f 101/101/101 103/103/103 94/94/94
f 101/101/101 102/102/102 103/103/103
f 103/103/103 104/104/104 94/94/94
f 105/105/105 104/104/104 103/103/103
f 106/106/106 105/105/105 103/103/103
f 102/102/102 106/106/106 103/103/103
f 107/107/107 105/105/105 106/106/106
f 102/102/102 95/95/95 108/108/108
f 106/106/106 102/102/102 108/108/108
f 95/95/95 97/97/97 108/108/108
f 109/109/109 107/107/107 106/106/106
f 109/109/109 106/106/106 108/108/108
f 110/110/110 107/107/107 109/109/109
f 108/108/108 97/97/97 111/111/111
f 109/109/109 108/108/108 111/111/111
f 97/97/97 98/98/98 111/111/111
f 112/112/112 110/110/110 109/109/109
f 112/112/112 109/109/109 111/111/111
f 113/113/113 110/110/110 112/112/112
f 112/112/112 111/111/111 113/113/113
f 111/111/111 98/98/98 113/113/113
f 98/98/98 99/99/99 113/113/113
f 113/113/113 99/99/99 114/114/114
f 113/113/113 114/114/114 115/115/115
f 99/99/99 116/116/116 114/114/114
f 100/100/100 116/116/116 99/99/99
f 114/114/114 117/117/117 115/115/115
f 115/115/115 117/117/117 118/118/118
f 117/117/117 119/119/119 118/118/118
f 119/119/119 120/120/120 118/118/118
f 120/120/120 121/121/121 118/118/118
f 121/121/121 120/120/120 122/122/122
f 120/120/120 123/123/123 122/122/122
f 122/122/122 123/123/123 124/124/124
f 125/125/125 120/120/120 119/119/119
f 120/120/120 125/125/125 123/123/123
f 126/126/126 119/119/119 117/117/117
f 126/126/126 125/125/125 119/119/119
f 123/123/123 127/127/127 124/124/124
f 124/124/124 127/127/127 128/128/128
f 125/125/125 129/129/129 123/123/123
f 125/125/125 126/126/126 129/129/129
f 123/123/123 129/129/129 127/127/127
f 130/130/130 126/126/126 117/117/117
f 114/114/114 130/130/130 117/117/117
f 127/127/127 131/131/131 128/128/128
f 128/128/128 131/131/131 132/132/132
f 129/129/129 133/133/133 127/127/127
f 127/127/127 133/133/133 131/131/131
f 126/126/126 134/134/134 129/129/129
f 126/126/126 130/130/130 134/134/134
f 129/129/129 134/134/134 133/133/133
f 135/135/135 130/130/130 114/114/114
f 130/130/130 135/135/135 134/134/134
f 136/136/136 135/135/135 114/114/114
f 135/135/135 136/136/136 134/134/134
f 116/116/116 136/136/136 114/114/114
f 131/131/131 137/137/137 132/132/132
f 132/132/132 137/137/137 138/138/138
f 134/134/134 139/139/139 133/133/133
f 136/136/136 139/139/139 134/134/134
f 133/133/133 140/140/140 131/131/131
f 131/131/131 140/140/140 137/137/137
f 133/133/133 139/139/139 140/140/140
f 141/141/141 136/136/136 116/116/116
f 136/136/136 141/141/141 139/139/139
f 137/137/137 142/142/142 138/138/138
f 138/138/138 142/142/142 143/143/143
f 140/140/140 144/144/144 137/137/137
f 137/137/137 144/144/144 142/142/142
f 139/139/139 145/145/145 140/140/140
f 141/141/141 145/145/145 139/139/139
f 140/140/140 145/145/145 144/144/144
f 141/141/141 116/116/116 146/146/146
f 116/116/116 100/100/100 146/146/146
f 145/145/145 141/141/141 147/147/147
f 145/145/145 147/147/147 144/144/144
f 141/141/141 146/146/146 147/147/147
f 144/144/144 148/148/148 142/142/142
f 144/144/144 147/147/147 148/148/148
f 142/142/142 149/149/149 143/143/143
f 142/142/142 148/148/148 149/149/149
f 147/147/147 146/146/146 150/150/150
f 147/147/147 150/150/150 148/148/148
f 151/151/151 146/146/146 100/100/100
f 146/146/146 151/151/151 150/150/150
f 152/152/152 151/151/151 100/100/100
f 151/151/151 152/152/152 150/150/150
f 81/81/81 152/152/152 100/100/100
f 143/143/143 149/149/149 153/153/153
f 154/154/154 143/143/143 153/153/153
f 154/154/154 153/153/153 155/155/155
f 156/156/156 154/154/154 155/155/155
f 157/157/157 156/156/156 155/155/155
f 148/148/148 158/158/158 149/149/149
f 148/148/148 150/150/150 158/158/158
f 149/149/149 158/158/158 153/153/153
f 152/152/152 159/159/159 150/150/150
f 150/150/150 159/159/159 158/158/158
f 158/158/158 160/160/160 153/153/153
f 153/153/153 160/160/160 155/155/155
f 158/158/158 159/159/159 160/160/160
f 161/161/161 152/152/152 81/81/81
f 152/152/152 161/161/161 159/159/159
f 159/159/159 162/162/162 160/160/160
f 161/161/161 162/162/162 159/159/159
f 163/163/163 161/161/161 81/81/81
f 161/161/161 163/163/163 162/162/162
f 88/88/88 163/163/163 81/81/81
f 160/160/160 162/162/162 164/164/164
f 160/160/160 164/164/164 155/155/155
f 163/163/163 165/165/165 162/162/162
f 162/162/162 165/165/165 164/164/164
f 163/163/163 88/88/88 166/166/166
f 163/163/163 166/166/166 165/165/165
f 88/88/88 76/76/76 166/166/166
f 155/155/155 164/164/164 167/167/167
f 164/164/164 165/165/165 167/167/167
f 166/166/166 168/168/168 165/165/165
f 165/165/165 168/168/168 167/167/167
f 76/76/76 169/169/169 166/166/166
f 166/166/166 169/169/169 168/168/168
f 170/170/170 155/155/155 167/167/167
f 170/170/170 157/157/157 155/155/155
f 76/76/76 171/171/171 169/169/169
f 76/76/76 69/69/69 171/171/171
f 167/167/167 168/168/168 172/172/172
f 170/170/170 167/167/167 172/172/172
f 170/170/170 173/173/173 157/157/157
f 173/173/173 170/170/170 172/172/172
f 173/173/173 172/172/172 174/174/174
f 173/173/173 175/175/175 157/157/157
f 169/169/169 176/176/176 168/168/168
f 168/168/168 176/176/176 172/172/172
f 169/169/169 171/171/171 176/176/176
f 172/172/172 176/176/176 174/174/174
f 173/173/173 177/177/177 175/175/175
f 177/177/177 173/173/173 174/174/174
f 177/177/177 178/178/178 175/175/175
f 177/177/177 179/179/179 178/178/178
f 179/179/179 177/177/177 174/174/174
f 179/179/179 180/180/180 178/178/178
f 171/171/171 181/181/181 176/176/176
f 176/176/176 181/181/181 174/174/174
f 171/171/171 182/182/182 181/181/181
f 69/69/69 182/182/182 171/171/171
f 181/181/181 183/183/183 174/174/174
f 182/182/182 183/183/183 181/181/181
f 69/69/69 184/184/184 182/182/182
f 182/182/182 184/184/184 183/183/183
f 179/179/179 185/185/185 180/180/180
f 185/185/185 179/179/179 186/186/186
f 185/185/185 187/187/187 180/180/180
f 187/187/187 185/185/185 188/188/188
f 189/189/189 179/179/179 174/174/174
f 183/183/183 189/189/189 174/174/174
f 179/179/179 189/189/189 186/186/186
f 186/186/186 189/189/189 183/183/183
f 185/185/185 190/190/190 188/188/188
f 185/185/185 186/186/186 190/190/190
f 69/69/69 191/191/191 184/184/184
f 68/68/68 191/191/191 69/69/69
f 184/184/184 192/192/192 183/183/183
f 192/192/192 186/186/186 183/183/183
f 192/192/192 184/184/184 193/193/193
f 192/192/192 193/193/193 186/186/186
f 190/190/190 194/194/194 188/188/188
f 194/194/194 195/195/195 188/188/188
f 186/186/186 196/196/196 190/190/190
f 193/193/193 196/196/196 186/186/186
f 196/196/196 197/197/197 190/190/190
f 197/197/197 194/194/194 190/190/190
f 194/194/194 198/198/198 195/195/195
f 198/198/198 199/199/199 195/195/195
f 200/200/200 191/191/191 68/68/68
f 75/75/75 200/200/200 68/68/68
f 201/201/201 200/200/200 75/75/75
f 193/193/193 202/202/202 196/196/196
f 202/202/202 197/197/197 196/196/196
f 197/197/197 203/203/203 194/194/194
f 203/203/203 198/198/198 194/194/194
f 198/198/198 204/204/204 199/199/199
f 204/204/204 205/205/205 199/199/199
f 202/202/202 206/206/206 197/197/197
f 206/206/206 203/203/203 197/197/197
f 203/203/203 207/207/207 198/198/198
f 207/207/207 204/204/204 198/198/198
f 204/204/204 208/208/208 205/205/205
f 208/208/208 209/209/209 205/205/205
f 206/206/206 210/210/210 203/203/203
f 210/210/210 207/207/207 203/203/203
f 207/207/207 211/211/211 204/204/204
f 211/211/211 208/208/208 204/204/204
f 208/208/208 212/212/212 209/209/209
f 212/212/212 213/213/213 209/209/209
f 213/213/213 212/212/212 58/58/58
f 210/210/210 214/214/214 207/207/207
f 214/214/214 211/211/211 207/207/207
f 211/211/211 215/215/215 208/208/208
f 215/215/215 212/212/212 208/208/208
f 214/214/214 216/216/216 211/211/211
f 216/216/216 215/215/215 211/211/211
f 217/217/217 210/210/210 206/206/206
f 218/218/218 214/214/214 210/210/210
f 217/217/217 218/218/218 210/210/210
f 218/218/218 219/219/219 214/214/214
f 219/219/219 216/216/216 214/214/214
f 201/201/201 219/219/219 218/218/218
f 201/201/201 218/218/218 217/217/217
f 220/220/220 217/217/217 206/206/206
f 220/220/220 206/206/206 202/202/202
f 219/219/219 221/221/221 216/216/216
f 201/201/201 221/221/221 219/219/219
f 221/221/221 201/201/201 222/222/222
f 223/223/223 222/222/222 201/201/201
f 200/200/200 201/201/201 217/217/217
f 200/200/200 217/217/217 220/220/220
f 223/223/223 201/201/201 75/75/75
f 224/224/224 220/220/220 202/202/202
f 200/200/200 220/220/220 224/224/224
f 224/224/224 202/202/202 193/193/193
f 191/191/191 200/200/200 224/224/224
f 225/225/225 224/224/224 193/193/193
f 225/225/225 191/191/191 224/224/224
f 184/184/184 225/225/225 193/193/193
f 191/191/191 225/225/225 184/184/184
f 221/221/221 226/226/226 216/216/216
f 216/216/216 226/226/226 215/215/215
f 223/223/223 75/75/75 227/227/227
f 65/65/65 227/227/227 75/75/75
f 62/62/62 227/227/227 65/65/65
f 62/62/62 228/228/228 227/227/227
f 60/60/60 228/228/228 62/62/62
f 229/229/229 223/223/223 227/227/227
f 228/228/228 229/229/229 227/227/227
f 230/230/230 228/228/228 60/60/60
f 228/228/228 230/230/230 229/229/229
f 64/64/64 230/230/230 60/60/60
f 231/231/231 223/223/223 229/229/229
f 230/230/230 231/231/231 229/229/229
f 223/223/223 231/231/231 222/222/222
f 230/230/230 64/64/64 232/232/232
f 231/231/231 230/230/230 232/232/232
f 64/64/64 233/233/233 232/232/232
f 233/233/233 64/64/64 59/59/59
f 232/232/232 233/233/233 59/59/59
f 234/234/234 231/231/231 232/232/232
f 231/231/231 234/234/234 222/222/222
f 235/235/235 232/232/232 59/59/59
f 234/234/234 232/232/232 235/235/235
f 235/235/235 59/59/59 58/58/58
f 222/222/222 234/234/234 236/236/236
f 236/236/236 234/234/234 235/235/235
f 236/236/236 235/235/235 237/237/237
f 222/222/222 236/236/236 237/237/237
f 238/238/238 235/235/235 58/58/58
f 235/235/235 238/238/238 237/237/237
f 239/239/239 238/238/238 58/58/58
f 238/238/238 239/239/239 237/237/237
f 240/240/240 222/222/222 237/237/237
f 241/241/241 222/222/222 240/240/240
f 241/241/241 240/240/240 237/237/237
f 241/241/241 221/221/221 222/222/222
f 242/242/242 241/241/241 237/237/237
f 221/221/221 241/241/241 242/242/242
f 239/239/239 242/242/242 237/237/237
f 226/226/226 221/221/221 242/242/242
f 226/226/226 242/242/242 239/239/239
f 243/243/243 226/226/226 239/239/239
f 243/243/243 239/239/239 58/58/58
f 226/226/226 243/243/243 215/215/215
f 215/215/215 243/243/243 212/212/212
f 212/212/212 244/244/244 58/58/58
f 244/244/244 243/243/243 58/58/58
f 243/243/243 244/244/244 212/212/212
