g snow1_15
v 38.5257272 -0.965967734 -26.6927704
v 38.5553037 -1.131596 -32.0638586
v 38.5269103 -1.4640356 -32.0650416
v 38.6132736 -0.473815159 -32.0614924
v 38.3671973 -1.27238003 -26.6123223
v 36.1264834 -2.45070687 -32.0674077
v 35.9998961 -2.37262497 -26.1497462
v 35.6071205 -2.22829177 -19.5932329
v 38.381394 -0.841746531 -20.397713
v 35.2391891 -2.41876428 -15.9576923
v 38.6783418 -0.299905475 -26.8737784
v 38.5292764 0.273878176 -32.0591263
v 38.44173 -1.50071044 -16.8426205
v 34.635829 -2.26969883 -12.025204
v 38.6333856 -0.558995413 -20.5278495
v 38.5091644 -1.06297858 -16.9822215
v 38.5257272 -1.03695128 -13.1183505
v 38.2074843 -1.59653822 -12.9006677
v 33.5971031 -2.41639816 -7.77447271
v 38.680708 0.321200539 -20.8224312
v 38.581331 0.535334231 -27.12577
v 37.7874984 -1.80475662 -8.58723429
v 32.1017164 -2.45070687 -3.29067881
v 38.6393009 -0.225372754 -17.292183
v 38.1909215 1.26291556 -27.3529173
v 38.2110335 0.907997839 -32.0579433
v 38.5695004 1.34099746 -21.2270374
v 38.1909215 -1.45693725 -8.69252655
v 37.2385589 -2.37380803 -3.85381493
v 30.1437537 -2.45070687 1.3398144
v 37.400638 1.8804724 -27.5410237
v 37.4278484 1.41671324 -32.0567602
v 34.4134139 1.80712274 -32.0555771
v 34.0182721 2.61041985 -25.1051051
v 26.5342404 1.80712274 -32.0555771
v 37.3485834 2.85531308 -21.9723647
v 37.6845722 -1.9266117 -3.90468647
v 26.0610168 2.27561413 -25.4955146
v -10.3310634 1.80712274 -32.0555771
v 38.1909215 2.19398305 -21.6150808
v 38.160162 1.652142 -18.2019554
v 38.5517545 0.775495223 -17.7441115
v 38.680708 -0.194613218 -13.447241
v 33.9413733 2.66247445 -19.3033834
v 37.278783 2.37854027 -18.6609823
v 38.2145827 1.33863134 -14.3641117
v 25.6978177 2.27561413 -18.0801003
v -7.48817241 2.27561413 -15.389824
v -4.82510643 2.27561413 -6.70735342
v 25.4801348 2.29572613 -10.8859181
v 37.3852583 1.99996136 -14.9260648
v 33.9567531 2.5974062 -15.8121761
v 38.5742326 0.638260371 -13.927563
v 38.0927276 1.49834432 -10.0849871
v 33.6811003 2.94404251 -11.9885291
v 37.1036902 2.23184094 -10.7912733
v 38.500883 0.807437818 -9.58455309
v 32.8955491 2.54771772 -7.91762285
v 37.7271623 1.68290153 -5.3492016
v 36.3015762 2.13009786 -6.27198768
v 31.4782443 2.27561413 -3.70829867
v 38.6475823 0.1662198 -9.2343676
v 38.3577328 1.01920539 -4.72809559
v 36.2282265 2.04964985 -0.404014674
v 38.7658882 -0.457252332 -8.99420661
v 38.6913555 0.236020285 -4.29272985
v 38.6830741 -1.02393763 -8.81911387
v 38.6156397 -0.593304126 -4.05848415
v 38.221681 -1.38831982 -3.94609354
v 36.9451603 1.31733628 0.385085729
v 32.8718879 1.95027288 3.61365394
v 34.9919298 2.43059487 -1.51845632
v 37.2302775 0.44778786 0.891435012
v 37.0516356 -0.426492796 1.08663976
v 33.5698928 0.697413324 5.03214177
v 36.5464694 -1.25226803 1.13277906
v 35.9762349 -1.78109544 1.15170801
v 33.3037045 -0.595670244 5.64733249
v 35.596473 -2.31347202 1.24753579
v 32.9712649 -1.37057394 6.03419281
v 32.3264977 -1.72549166 6.00934857
v 27.6960045 -2.45070687 6.02709445
v 24.7939605 -2.45070687 10.6220959
v 29.0849158 -1.16117248 10.5487462
v 28.7773205 -1.652142 10.7758936
v 21.8067364 -2.30873978 14.7450568
v 29.5794345 -0.223006635 9.99270847
v 24.9797008 -1.25345109 14.9035867
v 18.5829004 -2.22474259 18.6893757
v 25.243523 -0.762481573 14.689453
v 29.6255738 1.08782282 8.60261406
v 21.1832643 -0.950587966 19.0312798
v 15.7092499 -2.36670968 21.899015
v 21.4955918 -0.492744104 18.9058755
v 25.9498093 0.0254357701 14.2611856
v 18.3190782 -1.12922989 22.8785879
v 12.9113152 -2.45070687 24.4177478
v 18.5687037 -0.63944343 22.7520006
v 15.3117421 -1.4238116 26.1213528
v 9.94301999 -2.45070687 26.0941425
v 15.5282419 -0.957686321 26.0551015
v 12.8746404 -1.131596 29.4433827
v 12.4889631 -1.69591518 29.2505441
v 6.55237268 -2.40693369 26.9625078
v 9.0841191 -1.8023905 31.772826
v 2.66838974 -2.34659767 27.0760815
v 15.7695859 -0.510489991 25.9427109
v 18.9224384 0.114165201 22.4077304
v 4.40275434 -1.08309058 31.4735121
v -2.01770725 -2.41284898 26.0787627
v 9.27814079 -1.16945389 31.8603724
v 22.3059873 0.139009441 18.5237475
v -1.09492117 -1.60481963 31.2167883
v -7.82179507 -2.44715769 23.7138276
v 25.7096483 1.23807132 12.7776295
v -7.82534425 -2.28152942 29.1334212
v -13.2567685 -2.45070687 20.517202
v 28.9737083 1.95737124 7.03151161
v -13.8826067 -2.45070687 25.4825009
v -19.1531349 -2.45070687 16.2416265
v -19.9233063 -1.51372409 19.7493967
v -22.5035582 -3.14161337 9.36095492
v -26.0207928 -0.982530561 13.7560194
v -24.6519935 -2.45070687 4.9907347
v -20.0416122 -1.02512069 20.2533798
v -25.7936455 0.055012247 14.0636147
v -14.1760054 -1.96446959 26.4230329
v -31.4273728 -1.44510666 7.25747589
v -26.9802537 -2.45070687 -0.877238304
v -20.1480876 -0.474998218 20.6709997
v -8.05012547 -1.84971286 30.0455598
v -14.5321061 -1.30077345 27.1316853
v -1.1635386 -1.18128449 31.8355282
v -35.698216 -1.82486862 1.02630375
v -29.9024096 -2.45070687 -6.378463
v -20.0108527 0.385085729 20.7904886
v -25.4990638 1.10438565 14.1712731
v -19.3270446 1.5740601 20.3503907
v -8.31158153 -1.06297858 30.5601905
v -14.5001635 0.148473914 27.2961305
v 4.48911766 -0.527052818 31.7136731
v 4.54472143 0.0183374157 31.9455527
v -1.2357052 -0.405197733 32.0674077
v -1.09018894 0.676118261 32.0390143
v 9.45914883 -0.580290476 31.9455527
v -8.23586575 0.346044779 30.631174
v -7.61239361 1.79292603 29.930803
v 4.6843224 0.825183704 31.9763122
v -13.7536533 1.68999989 26.5117623
v -12.5339194 2.61988432 25.2056651
v -0.672569084 1.90531664 31.3942471
v 12.9976785 -0.577924358 29.3014156
v 13.1822357 0.141375559 29.0754513
v 9.5987498 0.362607606 31.8355282
v 16.0263097 0.0419985971 25.7285772
v 13.1798696 1.21204402 28.1928893
v 5.03805707 2.00587666 31.0570753
v -6.66594635 2.7275427 28.727632
v 16.4675908 1.20731179 24.5171247
v 9.69457758 1.58825681 30.7423816
v -0.150840032 2.7417394 30.3022836
v 19.3057495 1.18838284 21.7097255
v 12.8190366 1.93607617 27.0512373
v 5.29951312 2.68731869 29.5770684
v 22.1817661 1.22742379 17.2898168
v 16.7657217 1.952639 22.9152627
v 9.65790275 2.29217696 29.1369704
v 11.6418928 2.39392004 25.1346816
v 17.2708879 2.45662217 19.9221233
v 18.5580562 2.32530261 14.0612486
v 19.3944789 2.07922632 18.0753681
v 24.9217309 1.97393407 11.3496772
v 21.1300266 2.02717172 15.9162853
v 26.9648739 2.27561413 4.7683196
v 29.5924482 2.27561413 0.572009062
v 8.68542819 2.27561413 21.7641463
v 13.7867789 2.27561413 8.78717127
v 22.1853153 2.27561413 1.62374858
v 23.8285843 2.27561413 -1.6982813
v -1.85207898 2.27561413 0.567276826
v 10.5747735 2.27561413 2.83756719
v 24.7395398 2.27561413 -5.30424536
v 18.8064986 2.27561413 -5.44502939
v 2.34423156 2.27561413 15.9009055
v 9.422474 2.53115489 26.3555985
v 5.30069618 2.86241143 26.8524833
v 3.98395143 2.27561413 22.6549897
v 0.521137522 3.14161337 28.5004846
v -5.23444487 3.03277194 27.006281
v -7.3438392 2.27561413 9.98442706
v -2.22001035 2.27561413 18.7508948
v -10.5889702 2.81272295 23.4168798
v -16.8035796 2.83756719 18.0517069
v -18.3604853 2.37617415 19.5056865
v -21.558294 2.793794 13.5773775
v -26.3106423 2.81390601 6.43170066
v -29.870467 2.75711917 0.407563851
v -28.648367 2.21882729 7.01258266
v -30.0431937 1.5480328 7.39707686
v -32.7311039 2.63526409 0.921011489
v -32.7760601 3.07536206 -5.84963559
v -34.0277366 2.88488955 -10.5463801
v -35.4308447 2.72990881 -5.39179173
v -38.080897 1.1576233 -10.5132545
v -34.6121678 2.24367153 1.39068594
v -30.8393924 0.838197354 7.57098655
v -37.0114116 2.06621267 -5.01439589
v -31.2167883 0.0834056647 7.54495925
v -35.7005822 1.35164499 1.65569117
v -31.3906979 -0.766030751 7.40772439
v -37.9093534 1.19429814 -4.77778407
v -36.3772919 0.208809927 1.77754626
v -36.4766689 -0.952954084 1.6261147
v -38.2701865 0.283342648 -4.72099724
v -38.3766618 -0.717525329 -4.8404862
v -38.4192519 0.23010499 -10.4399048
v -38.3518175 -1.44155748 -5.08892861
v -27.565868 -2.45070687 -11.3473111
v -38.421618 -1.47823231 -10.5534785
v -27.9645589 -1.99286301 -15.6406325
v -38.420435 -1.20376261 -15.2360263
v -28.3916432 -2.3832725 -19.4264215
v -38.7126506 -0.144924737 -15.2561383
v -38.7658882 -0.234837226 -19.3388752
v -38.420435 -1.24398662 -19.2856375
v -28.386911 -2.33949932 -26.0018639
v -38.421618 -1.35756029 -26.0929594
v -28.3904601 -2.28862778 -32.0674077
v -38.3955907 -1.35756029 -32.0626755
v -38.7564237 -0.387451847 -26.1390987
v -38.6949047 -0.385085729 -32.0603094
v -38.4168858 0.755383219 -26.2029839
v -38.3198749 0.770762987 -32.0579433
v -38.2630881 1.10438565 -15.3081929
v -35.5314047 2.35132991 -25.0057281
v -35.7266095 2.05556514 -32.0555771
v -32.3962982 2.2649666 -32.0543941
v -38.4145197 0.952954084 -19.4134079
v -34.8132878 2.69678316 -15.5329741
v -35.5254894 2.48264947 -20.9135268
v -31.6213945 2.67430504 -23.0749757
v -9.41892482 2.27561413 -24.2710484
vt 0.485629556 0.85248566
vt 0.45486098 0.879309547
vt 0.456438856 0.881676361
vt 0.451705228 0.875364858
vt 0.48799637 0.854063536
vt 0.470639737 0.895877242
vt 0.504564065 0.865897604
vt 0.545588833 0.835129027
vt 0.524287511 0.821717084
vt 0.570834845 0.818561332
vt 0.480895929 0.849329909
vt 0.447760539 0.871420169
vt 0.547166709 0.805938326
vt 0.59844767 0.798048948
vt 0.52113176 0.820928146
vt 0.54322202 0.804360451
vt 0.56531228 0.783848066
vt 0.570045907 0.78621488
vt 0.630005184 0.775958688
vt 0.514820257 0.817772394
vt 0.475373364 0.845385219
vt 0.596080856 0.764913558
vt 0.660773761 0.743612236
vt 0.536910517 0.801204699
vt 0.469061861 0.842229468
vt 0.44381585 0.866686541
vt 0.506930878 0.813827705
vt 0.592136167 0.762546744
vt 0.621326868 0.738878609
vt 0.681286145 0.700220654
vt 0.462750358 0.836706903
vt 0.438293285 0.861163976
vt 0.420147714 0.843018406
vt 0.456438856 0.804360451
vt 0.373600381 0.793315321
vt 0.491941059 0.806727264
vt 0.617382179 0.737300733
vt 0.41068046 0.758602055
vt 0.201611928 0.534543703
vt 0.4990415 0.810671954
vt 0.520342822 0.795682134
vt 0.528232201 0.798837886
vt 0.558211839 0.781481253
vt 0.488785308 0.775958688
vt 0.510875568 0.791737445
vt 0.54322202 0.777536564
vt 0.454072042 0.721521976
vt 0.323897296 0.493518935
vt 0.390957013 0.478529116
vt 0.496674686 0.68680871
vt 0.533754766 0.77516975
vt 0.509297692 0.759390993
vt 0.550322461 0.779903377
vt 0.56531228 0.754657366
vt 0.529810076 0.738878609
vt 0.55426715 0.752290552
vt 0.572412721 0.756235241
vt 0.547955647 0.715210473
vt 0.585824664 0.728622416
vt 0.573990596 0.725466665
vt 0.566101218 0.687597648
vt 0.577935286 0.757813117
vt 0.593714043 0.730200292
vt 0.604759173 0.698642778
vt 0.583457851 0.759390993
vt 0.600025546 0.73098923
vt 0.58740254 0.760968869
vt 0.606337048 0.733356044
vt 0.612648551 0.735722857
vt 0.613437489 0.700220654
vt 0.618960054 0.666296326
vt 0.592925105 0.697064902
vt 0.619748992 0.701798529
vt 0.626060495 0.703376405
vt 0.633949874 0.667085264
vt 0.632371998 0.704165343
vt 0.637894563 0.704954281
vt 0.644995004 0.666296326
vt 0.64262819 0.704954281
vt 0.652095444 0.665507388
vt 0.657618009 0.66471845
vt 0.691542337 0.65367332
vt 0.698642778 0.607125986
vt 0.665507388 0.622115806
vt 0.670241015 0.62053793
vt 0.704954281 0.56531228
vt 0.656829071 0.625271557
vt 0.680497207 0.577146348
vt 0.713632597 0.524287511
vt 0.676552518 0.578724223
vt 0.64262819 0.629216246
vt 0.691542337 0.533754766
vt 0.723099851 0.48799637
vt 0.68680871 0.535332641
vt 0.667874201 0.583457851
vt 0.699431716 0.495096811
vt 0.730200292 0.453283104
vt 0.695487026 0.497463624
vt 0.705743219 0.460383545
vt 0.734933919 0.416991963
vt 0.701798529 0.462750358
vt 0.701798529 0.431192844
vt 0.706532156 0.428826031
vt 0.728622416 0.379911883
vt 0.700220654 0.401213206
vt 0.712054721 0.342831804
vt 0.69785384 0.465117172
vt 0.689175524 0.501408313
vt 0.687597648 0.371233567
vt 0.68680871 0.30022916
vt 0.697064902 0.403580019
vt 0.679708269 0.540855206
vt 0.668663139 0.335731363
vt 0.641839252 0.25604864
vt 0.652884382 0.58740254
vt 0.635527749 0.294706595
vt 0.584246788 0.231591566
vt 0.627638371 0.630794122
vt 0.590558291 0.265515894
vt 0.518764946 0.223702188
vt 0.526654325 0.249737137
vt 0.459594607 0.194511487
vt 0.459594607 0.240269883
vt 0.418569838 0.180310606
vt 0.527443263 0.255259702
vt 0.460383545 0.248948199
vt 0.588980416 0.273405273
vt 0.396479578 0.229224753
vt 0.361766313 0.163742911
vt 0.526654325 0.260782267
vt 0.63158306 0.301018098
vt 0.586613602 0.279716776
vt 0.66471845 0.338887115
vt 0.342831804 0.223702188
vt 0.298651284 0.170843351
vt 0.525076449 0.26709377
vt 0.460383545 0.256837578
vt 0.521920698 0.2781389
vt 0.626060495 0.305751725
vt 0.581879975 0.288395092
vt 0.683652959 0.374389318
vt 0.679708269 0.376756132
vt 0.659984823 0.342042866
vt 0.654462258 0.348354369
vt 0.693120213 0.405946833
vt 0.62053793 0.313641103
vt 0.614226427 0.324686233
vt 0.674974642 0.380700821
vt 0.575568472 0.30022916
vt 0.569256969 0.312852166
vt 0.648150755 0.356243748
vt 0.698642778 0.433559658
vt 0.693120213 0.436715409
vt 0.687597648 0.408313646
vt 0.693909151 0.467483986
vt 0.684441896 0.442237974
vt 0.666296326 0.3885902
vt 0.608703862 0.335731363
vt 0.682864021 0.47695124
vt 0.678919331 0.414625149
vt 0.641050314 0.364922064
vt 0.679708269 0.506141941
vt 0.67576358 0.446971601
vt 0.656829071 0.396479578
vt 0.667085264 0.545588833
vt 0.672607829 0.487207432
vt 0.670241015 0.42172559
vt 0.659195885 0.450127353
vt 0.656829071 0.504564065
vt 0.627638371 0.539277331
vt 0.656829071 0.525076449
vt 0.638683501 0.588191478
vt 0.652095444 0.545588833
vt 0.603970235 0.626849433
vt 0.585824664 0.659195885
vt 0.626060495 0.450127353
vt 0.570834845 0.533754766
vt 0.562156528 0.612648551
vt 0.547166709 0.636316687
vt 0.450127353 0.469850799
vt 0.518764946 0.537699455
vt 0.527443263 0.656829071
vt 0.501408313 0.621326868
vt 0.563734404 0.436715409
vt 0.655251196 0.433559658
vt 0.641050314 0.409102584
vt 0.611070676 0.419358776
vt 0.632371998 0.375967194
vt 0.603181297 0.349932245
vt 0.489574246 0.398057454
vt 0.563734404 0.398846392
vt 0.562945466 0.330208798
vt 0.511664506 0.304962787
vt 0.517976008 0.28918403
vt 0.468272923 0.28918403
vt 0.406735771 0.286817216
vt 0.357821623 0.288395092
vt 0.402791081 0.267882708
vt 0.400424268 0.25604864
vt 0.351510121 0.270249521
vt 0.307329601 0.290761906
vt 0.272616335 0.293128719
vt 0.304173849 0.272616335
vt 0.264726956 0.260782267
vt 0.348354369 0.257626516
vt 0.398846392 0.248159261
vt 0.303384911 0.260782267
vt 0.398057454 0.241847758
vt 0.346776493 0.248159261
vt 0.397268516 0.234747318
vt 0.302595973 0.252103951
vt 0.345198618 0.239480945
vt 0.34440968 0.231591566
vt 0.301807036 0.24500351
vt 0.301018098 0.238692007
vt 0.263938018 0.253681826
vt 0.298651284 0.23395838
vt 0.252103951 0.159798221
vt 0.262360143 0.241058821
vt 0.215812809 0.171632289
vt 0.228435815 0.250526075
vt 0.185044233 0.182677419
vt 0.230013691 0.259204391
vt 0.201611928 0.267882708
vt 0.200034052 0.259993329
vt 0.13455221 0.199245114
vt 0.151119905 0.275772086
vt 0.0887938142 0.212657058
vt 0.108517261 0.289972968
vt 0.152697781 0.283661465
vt 0.110884074 0.298651284
vt 0.155064594 0.293917657
vt 0.113250888 0.308118538
vt 0.231591566 0.269460583
vt 0.170843351 0.316796855
vt 0.120351328 0.331786674
vt 0.129029645 0.360188437
vt 0.203189803 0.2781389
vt 0.236325193 0.299440222
vt 0.199245114 0.307329601
vt 0.194511487 0.342831804
vt 0.257626516 0.512453443
vn 0.968603281 -0.231360288 0.0909950563
vn 0.976446292 -0.199988246 0.0809774065
vn 0.482336626 -0.874487155 0.0512210435
vn 0.999807985 -0.0195957232 -0
vn 0.482336626 -0.874487155 0.0512210435
vn 0.403906521 -0.913702207 0.0448084663
vn 0.426735845 -0.904376315 -0
vn 0.394858681 -0.918741869 -0
vn 0.466650605 -0.882330165 0.0610793931
vn 0.270575341 -0.960760271 -0.0610629738
vn 0.999975324 -0.00391298182 -0.00583443315
vn 0.960478619 0.278353774 -0
vn 0.3882205 -0.921545218 -0.00626537154
vn 0.184045408 -0.982917742 -0
vn 0.968603281 -0.247046309 0.0278532631
vn 0.968603281 -0.239203299 -0.0677455909
vn 0.95291726 -0.301947383 -0.0278652609
vn 0.301947383 -0.95291726 0.0278652609
vn 0.0980291086 -0.992132313 -0.0778701942
vn 0.999975324 0.00393002875 0.00582296411
vn 0.960760271 0.270592388 -0.0609873882
vn 0.199988246 -0.976446292 -0.0809774065
vn 0.0352639482 -0.999378034 -0
vn 0.999930902 -0.0117554702 -0
vn 0.764685007 0.639213885 -0.0816238341
vn 0.748913744 0.662667491 -0
vn 0.960760271 0.270592388 0.0609873882
vn 0.714876568 -0.699250665 -0
vn 0.137027658 -0.990567222 -0
vn 0.0588140558 -0.992132313 0.110518687
vn 0.25488932 0.960777318 -0.109262895
vn 0.231360288 0.968620328 -0.0908134162
vn 0.019599003 0.99214936 -0.123513264
vn -0.0117723133 0.999930704 -0
vn -0.00393002838 0.999992277 -0
vn 0.168616204 0.984306349 -0.0520536861
vn 0.701940922 -0.694097912 0.159709207
vn -0.00393002838 0.999992277 -0
vn 0.00391298172 0.999992344 -0
vn 0.770452928 0.637496891 -0
vn 0.756198105 0.654342743 -0
vn 0.960760271 0.262749377 0.0888958189
vn 0.999930902 -0.0117554702 -0
vn -0.0196124265 0.999807658 -0
vn 0.168616204 0.984306349 0.0520536861
vn 0.748913744 0.662667491 -0
vn -0.00393002838 0.999992277 -0
vn 0.00391298172 0.999992344 -0
vn 0.0117552698 0.999930904 -0
vn -0.0117723133 0.999930704 -0
vn 0.294104373 0.952934307 -0.0736126624
vn 0.0117552698 0.999930904 -0
vn 0.95291726 0.29412142 0.0737650699
vn 0.637478448 0.770468187 -0
vn 0.0117552698 0.999930904 -0
vn 0.26273233 0.960777318 0.0887618621
vn 0.904369747 0.426749764 -0
vn 0.0117552698 0.999930904 -0
vn 0.505865658 0.85881818 0.080816267
vn 0.160773193 0.984306349 0.0727529433
vn -0.00393002838 0.999992277 -0
vn 0.976446292 0.200005293 0.0809352933
vn 0.81174307 0.5764698 0.0935722062
vn 0.427435552 0.882347212 0.196881299
vn 0.992132313 -0.105872119 0.0668174203
vn 0.968603281 0.207848303 0.13640662
vn 0.882330165 -0.466650605 0.0610793931
vn 0.960760271 -0.215674267 0.174425665
vn 0.81174307 -0.552923721 0.188012091
vn 0.647039848 0.686271948 0.33222018
vn 0.176459214 0.968620328 0.175033726
vn 0.0742947498 0.997236326 -0
vn 0.866644144 0.207848303 0.453571395
vn 0.866644144 -0.160773193 0.472313358
vn 0.599981785 0.584312811 0.546443407
vn 0.772528017 -0.505865658 0.38379734
vn 0.725469954 -0.560766732 0.399041374
vn 0.756841996 0.105889166 0.644963315
vn 0.129401151 -0.984289303 0.120124565
vn 0.733312964 -0.333319426 0.592579325
vn 0.184302225 -0.968603281 0.166854347
vn 0.137244161 -0.984289303 0.111079292
vn 0.207831257 -0.95291726 0.220805036
vn 0.733312964 -0.231360288 0.63931566
vn 0.270575341 -0.929388229 0.251050802
vn 0.294104373 -0.905859197 0.304830663
vn 0.701940922 0.356865504 0.616381338
vn 0.356848457 -0.866644144 0.348693427
vn 0.349005447 -0.890173176 0.292894034
vn 0.717626943 -0.247046309 0.651137229
vn 0.513708669 0.71764399 0.470202623
vn 0.419592542 -0.827429091 0.373233436
vn 0.317633404 -0.913702207 0.25349023
vn 0.733312964 -0.286261362 0.616689978
vn 0.701940922 0.380394536 0.60214528
vn 0.427435552 -0.843115112 0.326275583
vn 0.223517278 -0.95291726 0.204911497
vn 0.748998986 -0.231360288 0.620864669
vn 0.325476415 -0.905859197 0.271079728
vn 0.11371513 -0.984289303 0.135068272
vn 0.748998986 -0.223517278 0.623731149
vn 0.647039848 -0.294104373 0.703450107
vn 0.199988246 -0.95291726 0.227932877
vn -0.035302071 -0.976446292 0.212853007
vn 0.0274420135 -0.95291726 0.301986144
vn -0.0117730393 -0.976446292 0.215439166
vn 0.756841996 -0.090186098 0.647345859
vn 0.756841996 0.113732177 0.643626588
vn -0.035302071 -0.94507425 0.324943728
vn 0.0274420135 -0.992132313 0.122149127
vn 0.239203299 -0.294104373 0.925356364
vn 0.756841996 0.200005293 0.622244386
vn 0.019599003 -0.976446292 0.214868606
vn 0.0117554702 -0.999930902 -0
vn 0.466650605 0.796074096 0.38536119
vn -0.0117730393 -0.992132313 0.124638954
vn -0.090203145 -0.992132313 0.0868151249
vn 0.168616204 0.976463339 0.134491351
vn -0.113732177 -0.984289303 0.135053918
vn -0.239220346 -0.95291726 0.186339264
vn -0.247063356 -0.95291726 0.17580783
vn -0.239220346 -0.960760271 0.14040416
vn -0.372551525 -0.882330165 0.287574061
vn -0.145104219 -0.984289303 0.100594903
vn -0.631370874 -0.576452753 0.51872251
vn -0.749016032 0.176476261 0.638616561
vn -0.419609589 -0.772528017 0.476579747
vn -0.192162282 -0.968603281 0.157738202
vn -0.090203145 -0.992132313 0.0868151249
vn -0.741173022 -0.26273233 0.617765549
vn -0.207848303 -0.756841996 0.619668682
vn -0.599998832 -0.325476415 0.730798539
vn -0.0509880921 -0.607824795 0.792432478
vn -0.168633251 -0.984289303 0.0523201269
vn -0.0980461555 -0.992132313 -0.0778487294
vn -0.71764399 0.317650451 0.619746153
vn -0.450981631 0.811760117 0.371027062
vn -0.537254747 0.694114959 0.479126039
vn -0.333336473 -0.270575341 0.903147707
vn -0.599998832 0.309807441 0.737577624
vn 0.00391298182 -0.380377489 0.92482304
vn 0.0117559924 -0.105872119 0.994310259
vn -0.113732177 -0.168616204 0.979098344
vn -0.121575187 0.309807441 0.942994604
vn 0.286261362 -0.0509710452 0.95679485
vn -0.349022494 0.286278409 0.892316071
vn -0.262749377 0.701957969 0.661980192
vn 0.0431280346 0.388237546 0.920549608
vn -0.43529561 0.725487001 0.533091309
vn -0.200005293 0.952934307 0.227846635
vn -0.0823601344 0.694114959 0.715137212
vn 0.67841189 -0.0431280346 0.733414807
vn 0.647039848 0.333336473 0.685730436
vn 0.301947383 0.403923568 0.863523902
vn 0.717626943 0.286278409 0.634867106
vn 0.5372377 0.654899906 0.531490138
vn 0.0666570663 0.756859043 0.65017015
vn -0.129418198 0.945091297 0.300088939
vn 0.584295764 0.599998832 0.546442918
vn 0.278418352 0.749016032 0.601213942
vn -0.0274590604 0.937248286 0.347579703
vn 0.568609743 0.70980098 0.415771007
vn 0.270575341 0.929405276 0.250987686
vn 0.0823430875 0.968620328 0.234508583
vn 0.482336626 0.788231085 0.382155904
vn 0.247046309 0.945091297 0.213940557
vn 0.176459214 0.952934307 0.246532659
vn 0.043088309 0.999071268 -0
vn 0.0509053487 0.998703482 -0
vn 0.00391298172 0.999992344 -0
vn 0.286261362 0.945091297 0.157660628
vn 0.160773193 0.976463339 0.14377527
vn 0.231360288 0.960777318 0.152903115
vn 0.0274318957 0.999623675 -0
vn 0.0117552698 0.999930904 -0
vn -0.00393002838 0.999992277 -0
vn -0.00393002838 0.999992277 -0
vn -0.00393002838 0.999992277 -0
vn 0.00391298172 0.999992344 -0
vn 0.0117552698 0.999930904 -0
vn 0.00391298172 0.999992344 -0
vn -0.00393002838 0.999992277 -0
vn -0.00393002838 0.999992277 -0
vn -0.00393002838 0.999992277 -0
vn 0.066509979 0.99778576 -0
vn 0.043088309 0.999071268 -0
vn 0.0195953893 0.999807992 -0
vn 0.0274318957 0.999623675 -0
vn 0.00391298172 0.999992344 -0
vn 0.0195953893 0.999807992 -0
vn 0.0274318957 0.999623675 -0
vn 0.0117552698 0.999930904 -0
vn -0.0196124265 0.999807658 -0
vn -0.262749377 0.937248286 0.229190783
vn -0.0274489235 0.999623207 -0
vn -0.0117723133 0.999930704 -0
vn 0.00391298172 0.999992344 -0
vn -0.231377335 0.952934307 0.195910017
vn -0.44313862 0.803917106 0.396667933
vn -0.16079024 0.976463339 0.143756205
vn 0.00391298172 0.999992344 -0
vn -0.0274489235 0.999623207 -0
vn -0.231377335 0.968620328 0.0907699747
vn -0.537254747 0.843132159 -0.0220340318
vn -0.403923568 0.874504202 0.26849237
vn -0.631370874 0.545097758 0.551578874
vn -0.513725716 0.85097517 0.10921149
vn -0.741173022 0.184319272 0.645514491
vn -0.686271948 0.607841842 0.399448505
vn -0.749016032 -0.145087172 0.646470955
vn -0.788231085 0.592155821 0.167461158
vn -0.843132159 0.239220346 0.481561822
vn -0.85097517 -0.247046309 0.46347533
vn -0.960777318 0.207848303 0.183592016
vn -0.976463339 -0.145087172 0.159590289
vn -0.976463339 0.200005293 0.0807293663
vn -0.168633251 -0.984289303 0.0523201269
vn -0.090203145 -0.992132313 -0.0868151249
vn -0.230573707 -0.973054863 -0
vn -0.090203145 -0.992132313 -0.0868151249
vn -0.207848303 -0.976446292 -0.0578940552
vn -0.0980461555 -0.992132313 0.0778487294
vn -0.997784631 0.0665269131 -0
vn -0.999930704 0.0117723133 -0
vn -0.191612018 -0.981470751 -0
vn -0.0980461555 -0.992132313 0.0778487294
vn -0.191612018 -0.981470751 -0
vn -0.0980461555 -0.992132313 -0.0778487294
vn -0.184061855 -0.982914662 -0
vn -0.999992277 0.00393002838 -0
vn -0.999807658 0.0196124265 -0
vn -0.647056895 0.756859043 -0.0920964895
vn -0.623527863 0.780388075 -0.0469835745
vn -0.568626789 0.819603128 0.0701019794
vn -0.254499164 0.967072994 -0
vn -0.239220346 0.968620328 -0.0674409795
vn 0.00391298172 0.999992344 -0
vn -0.63748854 0.770459837 -0
vn -0.035280363 0.999377454 -0
vn -0.0431053086 0.999070534 -0
vn 0.0117552698 0.999930904 -0
vn 0.00391298172 0.999992344 -0
g snow1_15_0
f 3/3/3 2/2/2 1/1/1
f 2/2/2 4/4/4 1/1/1
f 5/5/5 3/3/3 1/1/1
f 6/6/6 3/3/3 5/5/5
f 7/7/7 6/6/6 5/5/5
f 7/7/7 5/5/5 8/8/8
f 5/5/5 9/9/9 8/8/8
f 5/5/5 1/1/1 9/9/9
f 8/8/8 9/9/9 10/10/10
f 4/4/4 11/11/11 1/1/1
f 4/4/4 12/12/12 11/11/11
f 9/9/9 13/13/13 10/10/10
f 10/10/10 13/13/13 14/14/14
f 1/1/1 15/15/15 9/9/9
f 1/1/1 11/11/11 15/15/15
f 15/15/15 16/16/16 9/9/9
f 16/16/16 13/13/13 9/9/9
f 16/16/16 17/17/17 13/13/13
f 13/13/13 18/18/18 14/14/14
f 17/17/17 18/18/18 13/13/13
f 14/14/14 18/18/18 19/19/19
f 11/11/11 20/20/20 15/15/15
f 15/15/15 20/20/20 16/16/16
f 12/12/12 21/21/21 11/11/11
f 11/11/11 21/21/21 20/20/20
f 18/18/18 22/22/22 19/19/19
f 19/19/19 22/22/22 23/23/23
f 20/20/20 24/24/24 16/16/16
f 16/16/16 24/24/24 17/17/17
f 21/21/21 12/12/12 25/25/25
f 12/12/12 26/26/26 25/25/25
f 21/21/21 27/27/27 20/20/20
f 20/20/20 27/27/27 24/24/24
f 21/21/21 25/25/25 27/27/27
f 28/28/28 22/22/22 18/18/18
f 17/17/17 28/28/28 18/18/18
f 22/22/22 29/29/29 23/23/23
f 23/23/23 29/29/29 30/30/30
f 25/25/25 26/26/26 31/31/31
f 26/26/26 32/32/32 31/31/31
f 31/31/31 32/32/32 33/33/33
f 34/34/34 31/31/31 33/33/33
f 34/34/34 33/33/33 35/35/35
f 31/31/31 36/36/36 25/25/25
f 36/36/36 31/31/31 34/34/34
f 28/28/28 37/37/37 22/22/22
f 37/37/37 29/29/29 22/22/22
f 38/38/38 34/34/34 35/35/35
f 38/38/38 35/35/35 39/39/39
f 36/36/36 40/40/40 25/25/25
f 25/25/25 40/40/40 27/27/27
f 40/40/40 41/41/41 27/27/27
f 41/41/41 40/40/40 36/36/36
f 41/41/41 42/42/42 27/27/27
f 27/27/27 42/42/42 24/24/24
f 24/24/24 42/42/42 43/43/43
f 24/24/24 43/43/43 17/17/17
f 36/36/36 34/34/34 44/44/44
f 45/45/45 41/41/41 36/36/36
f 45/45/45 36/36/36 44/44/44
f 41/41/41 46/46/46 42/42/42
f 46/46/46 41/41/41 45/45/45
f 34/34/34 38/38/38 47/47/47
f 44/44/44 34/34/34 47/47/47
f 47/47/47 38/38/38 48/48/48
f 47/47/47 48/48/48 49/49/49
f 50/50/50 47/47/47 49/49/49
f 45/45/45 44/44/44 51/51/51
f 51/51/51 46/46/46 45/45/45
f 52/52/52 44/44/44 47/47/47
f 52/52/52 47/47/47 50/50/50
f 44/44/44 52/52/52 51/51/51
f 46/46/46 53/53/53 42/42/42
f 42/42/42 53/53/53 43/43/43
f 46/46/46 54/54/54 53/53/53
f 46/46/46 51/51/51 54/54/54
f 51/51/51 52/52/52 55/55/55
f 55/55/55 52/52/52 50/50/50
f 56/56/56 51/51/51 55/55/55
f 51/51/51 56/56/56 54/54/54
f 54/54/54 57/57/57 53/53/53
f 53/53/53 57/57/57 43/43/43
f 58/58/58 55/55/55 50/50/50
f 56/56/56 55/55/55 58/58/58
f 54/54/54 56/56/56 59/59/59
f 54/54/54 59/59/59 57/57/57
f 60/60/60 56/56/56 58/58/58
f 56/56/56 60/60/60 59/59/59
f 58/58/58 50/50/50 61/61/61
f 60/60/60 58/58/58 61/61/61
f 57/57/57 62/62/62 43/43/43
f 59/59/59 63/63/63 57/57/57
f 57/57/57 63/63/63 62/62/62
f 59/59/59 60/60/60 64/64/64
f 59/59/59 64/64/64 63/63/63
f 62/62/62 65/65/65 43/43/43
f 43/43/43 65/65/65 17/17/17
f 63/63/63 66/66/66 62/62/62
f 62/62/62 66/66/66 65/65/65
f 65/65/65 67/67/67 17/17/17
f 67/67/67 28/28/28 17/17/17
f 65/65/65 68/68/68 67/67/67
f 66/66/66 68/68/68 65/65/65
f 67/67/67 69/69/69 28/28/28
f 68/68/68 69/69/69 67/67/67
f 69/69/69 37/37/37 28/28/28
f 63/63/63 70/70/70 66/66/66
f 64/64/64 70/70/70 63/63/63
f 64/64/64 71/71/71 70/70/70
f 60/60/60 72/72/72 64/64/64
f 64/64/64 72/72/72 71/71/71
f 72/72/72 60/60/60 61/61/61
f 66/66/66 73/73/73 68/68/68
f 70/70/70 73/73/73 66/66/66
f 68/68/68 74/74/74 69/69/69
f 73/73/73 74/74/74 68/68/68
f 70/70/70 75/75/75 73/73/73
f 71/71/71 75/75/75 70/70/70
f 73/73/73 75/75/75 74/74/74
f 69/69/69 76/76/76 37/37/37
f 74/74/74 76/76/76 69/69/69
f 76/76/76 77/77/77 37/37/37
f 37/37/37 77/77/77 29/29/29
f 74/74/74 78/78/78 76/76/76
f 75/75/75 78/78/78 74/74/74
f 76/76/76 78/78/78 77/77/77
f 77/77/77 79/79/79 29/29/29
f 29/29/29 79/79/79 30/30/30
f 77/77/77 80/80/80 79/79/79
f 78/78/78 80/80/80 77/77/77
f 30/30/30 79/79/79 81/81/81
f 80/80/80 81/81/81 79/79/79
f 82/82/82 30/30/30 81/81/81
f 83/83/83 82/82/82 81/81/81
f 80/80/80 78/78/78 84/84/84
f 80/80/80 84/84/84 81/81/81
f 85/85/85 83/83/83 81/81/81
f 84/84/84 85/85/85 81/81/81
f 86/86/86 83/83/83 85/85/85
f 78/78/78 75/75/75 87/87/87
f 78/78/78 87/87/87 84/84/84
f 88/88/88 86/86/86 85/85/85
f 89/89/89 86/86/86 88/88/88
f 84/84/84 90/90/90 85/85/85
f 84/84/84 87/87/87 90/90/90
f 90/90/90 88/88/88 85/85/85
f 75/75/75 91/91/91 87/87/87
f 75/75/75 71/71/71 91/91/91
f 92/92/92 89/89/89 88/88/88
f 93/93/93 89/89/89 92/92/92
f 90/90/90 94/94/94 88/88/88
f 94/94/94 92/92/92 88/88/88
f 87/87/87 95/95/95 90/90/90
f 87/87/87 91/91/91 95/95/95
f 90/90/90 95/95/95 94/94/94
f 96/96/96 93/93/93 92/92/92
f 97/97/97 93/93/93 96/96/96
f 94/94/94 98/98/98 92/92/92
f 98/98/98 96/96/96 92/92/92
f 99/99/99 97/97/97 96/96/96
f 100/100/100 97/97/97 99/99/99
f 98/98/98 101/101/101 96/96/96
f 101/101/101 99/99/99 96/96/96
f 101/101/101 102/102/102 99/99/99
f 103/103/103 100/100/100 99/99/99
f 102/102/102 103/103/103 99/99/99
f 100/100/100 103/103/103 104/104/104
f 103/103/103 105/105/105 104/104/104
f 105/105/105 103/103/103 102/102/102
f 104/104/104 105/105/105 106/106/106
f 107/107/107 101/101/101 98/98/98
f 101/101/101 107/107/107 102/102/102
f 98/98/98 94/94/94 108/108/108
f 108/108/108 107/107/107 98/98/98
f 105/105/105 109/109/109 106/106/106
f 106/106/106 109/109/109 110/110/110
f 111/111/111 105/105/105 102/102/102
f 109/109/109 105/105/105 111/111/111
f 94/94/94 112/112/112 108/108/108
f 95/95/95 112/112/112 94/94/94
f 109/109/109 113/113/113 110/110/110
f 110/110/110 113/113/113 114/114/114
f 95/95/95 115/115/115 112/112/112
f 91/91/91 115/115/115 95/95/95
f 113/113/113 116/116/116 114/114/114
f 114/114/114 116/116/116 117/117/117
f 91/91/91 118/118/118 115/115/115
f 71/71/71 118/118/118 91/91/91
f 116/116/116 119/119/119 117/117/117
f 117/117/117 119/119/119 120/120/120
f 119/119/119 121/121/121 120/120/120
f 120/120/120 121/121/121 122/122/122
f 121/121/121 123/123/123 122/122/122
f 122/122/122 123/123/123 124/124/124
f 125/125/125 121/121/121 119/119/119
f 125/125/125 123/123/123 121/121/121
f 126/126/126 123/123/123 125/125/125
f 127/127/127 119/119/119 116/116/116
f 127/127/127 125/125/125 119/119/119
f 123/123/123 128/128/128 124/124/124
f 124/124/124 128/128/128 129/129/129
f 130/130/130 126/126/126 125/125/125
f 130/130/130 125/125/125 127/127/127
f 131/131/131 127/127/127 116/116/116
f 131/131/131 116/116/116 113/113/113
f 132/132/132 130/130/130 127/127/127
f 132/132/132 127/127/127 131/131/131
f 133/133/133 131/131/131 113/113/113
f 133/133/133 113/113/113 109/109/109
f 128/128/128 134/134/134 129/129/129
f 129/129/129 134/134/134 135/135/135
f 136/136/136 126/126/126 130/130/130
f 136/136/136 130/130/130 132/132/132
f 137/137/137 126/126/126 136/136/136
f 138/138/138 137/137/137 136/136/136
f 139/139/139 132/132/132 131/131/131
f 139/139/139 131/131/131 133/133/133
f 140/140/140 136/136/136 132/132/132
f 138/138/138 136/136/136 140/140/140
f 140/140/140 132/132/132 139/139/139
f 141/141/141 133/133/133 109/109/109
f 141/141/141 109/109/109 111/111/111
f 133/133/133 141/141/141 142/142/142
f 142/142/142 141/141/141 111/111/111
f 143/143/143 139/139/139 133/133/133
f 143/143/143 133/133/133 142/142/142
f 139/139/139 143/143/143 144/144/144
f 144/144/144 143/143/143 142/142/142
f 145/145/145 142/142/142 111/111/111
f 145/145/145 111/111/111 102/102/102
f 146/146/146 140/140/140 139/139/139
f 146/146/146 139/139/139 144/144/144
f 140/140/140 146/146/146 147/147/147
f 147/147/147 146/146/146 144/144/144
f 148/148/148 144/144/144 142/142/142
f 148/148/148 142/142/142 145/145/145
f 149/149/149 138/138/138 140/140/140
f 149/149/149 140/140/140 147/147/147
f 138/138/138 149/149/149 150/150/150
f 150/150/150 149/149/149 147/147/147
f 151/151/151 147/147/147 144/144/144
f 151/151/151 144/144/144 148/148/148
f 152/152/152 145/145/145 102/102/102
f 107/107/107 152/152/152 102/102/102
f 152/152/152 153/153/153 145/145/145
f 153/153/153 152/152/152 107/107/107
f 154/154/154 148/148/148 145/145/145
f 153/153/153 154/154/154 145/145/145
f 155/155/155 153/153/153 107/107/107
f 155/155/155 107/107/107 108/108/108
f 156/156/156 153/153/153 155/155/155
f 153/153/153 156/156/156 154/154/154
f 157/157/157 148/148/148 154/154/154
f 157/157/157 151/151/151 148/148/148
f 158/158/158 147/147/147 151/151/151
f 158/158/158 150/150/150 147/147/147
f 159/159/159 155/155/155 108/108/108
f 159/159/159 156/156/156 155/155/155
f 156/156/156 160/160/160 154/154/154
f 160/160/160 157/157/157 154/154/154
f 161/161/161 151/151/151 157/157/157
f 161/161/161 158/158/158 151/151/151
f 162/162/162 159/159/159 108/108/108
f 108/108/108 112/112/112 162/162/162
f 163/163/163 156/156/156 159/159/159
f 156/156/156 163/163/163 160/160/160
f 164/164/164 157/157/157 160/160/160
f 164/164/164 161/161/161 157/157/157
f 112/112/112 165/165/165 162/162/162
f 115/115/115 165/165/165 112/112/112
f 166/166/166 159/159/159 162/162/162
f 166/166/166 163/163/163 159/159/159
f 163/163/163 167/167/167 160/160/160
f 167/167/167 164/164/164 160/160/160
f 168/168/168 163/163/163 166/166/166
f 163/163/163 168/168/168 167/167/167
f 169/169/169 166/166/166 162/162/162
f 169/169/169 168/168/168 166/166/166
f 168/168/168 169/169/169 170/170/170
f 170/170/170 169/169/169 171/171/171
f 171/171/171 169/169/169 162/162/162
f 162/162/162 165/165/165 171/171/171
f 115/115/115 172/172/172 165/165/165
f 118/118/118 172/172/172 115/115/115
f 172/172/172 118/118/118 170/170/170
f 165/165/165 173/173/173 171/171/171
f 172/172/172 173/173/173 165/165/165
f 171/171/171 173/173/173 170/170/170
f 173/173/173 172/172/172 170/170/170
f 118/118/118 174/174/174 170/170/170
f 118/118/118 71/71/71 174/174/174
f 71/71/71 175/175/175 174/174/174
f 71/71/71 72/72/72 175/175/175
f 72/72/72 61/61/61 175/175/175
f 176/176/176 168/168/168 170/170/170
f 170/170/170 174/174/174 177/177/177
f 170/170/170 177/177/177 176/176/176
f 174/174/174 175/175/175 178/178/178
f 174/174/174 178/178/178 177/177/177
f 175/175/175 61/61/61 179/179/179
f 175/175/175 179/179/179 178/178/178
f 179/179/179 180/180/180 178/178/178
f 180/180/180 181/181/181 178/178/178
f 178/178/178 181/181/181 177/177/177
f 61/61/61 182/182/182 179/179/179
f 179/179/179 182/182/182 180/180/180
f 50/50/50 182/182/182 61/61/61
f 182/182/182 50/50/50 183/183/183
f 182/182/182 183/183/183 180/180/180
f 50/50/50 49/49/49 183/183/183
f 183/183/183 49/49/49 180/180/180
f 177/177/177 181/181/181 184/184/184
f 177/177/177 184/184/184 176/176/176
f 185/185/185 168/168/168 176/176/176
f 168/168/168 185/185/185 167/167/167
f 185/185/185 186/186/186 167/167/167
f 185/185/185 176/176/176 186/186/186
f 186/186/186 164/164/164 167/167/167
f 176/176/176 187/187/187 186/186/186
f 176/176/176 184/184/184 187/187/187
f 186/186/186 188/188/188 164/164/164
f 186/186/186 187/187/187 188/188/188
f 188/188/188 161/161/161 164/164/164
f 188/188/188 189/189/189 161/161/161
f 188/188/188 187/187/187 189/189/189
f 189/189/189 158/158/158 161/161/161
f 181/181/181 190/190/190 184/184/184
f 181/181/181 180/180/180 190/190/190
f 184/184/184 191/191/191 187/187/187
f 187/187/187 191/191/191 189/189/189
f 184/184/184 190/190/190 191/191/191
f 189/189/189 192/192/192 158/158/158
f 189/189/189 191/191/191 192/192/192
f 192/192/192 150/150/150 158/158/158
f 192/192/192 191/191/191 193/193/193
f 192/192/192 193/193/193 150/150/150
f 191/191/191 190/190/190 193/193/193
f 193/193/193 194/194/194 150/150/150
f 194/194/194 138/138/138 150/150/150
f 194/194/194 137/137/137 138/138/138
f 137/137/137 194/194/194 193/193/193
f 193/193/193 190/190/190 195/195/195
f 195/195/195 137/137/137 193/193/193
f 195/195/195 190/190/190 196/196/196
f 190/190/190 180/180/180 196/196/196
f 195/195/195 196/196/196 137/137/137
f 196/196/196 180/180/180 197/197/197
f 180/180/180 49/49/49 197/197/197
f 196/196/196 198/198/198 137/137/137
f 196/196/196 197/197/197 198/198/198
f 198/198/198 199/199/199 137/137/137
f 137/137/137 199/199/199 126/126/126
f 197/197/197 200/200/200 198/198/198
f 198/198/198 200/200/200 199/199/199
f 197/197/197 49/49/49 201/201/201
f 197/197/197 201/201/201 200/200/200
f 201/201/201 49/49/49 202/202/202
f 49/49/49 48/48/48 202/202/202
f 201/201/201 203/203/203 200/200/200
f 201/201/201 202/202/202 203/203/203
f 202/202/202 204/204/204 203/203/203
f 200/200/200 205/205/205 199/199/199
f 200/200/200 203/203/203 205/205/205
f 199/199/199 206/206/206 126/126/126
f 199/199/199 205/205/205 206/206/206
f 203/203/203 207/207/207 205/205/205
f 203/203/203 204/204/204 207/207/207
f 206/206/206 208/208/208 126/126/126
f 126/126/126 208/208/208 123/123/123
f 205/205/205 209/209/209 206/206/206
f 205/205/205 207/207/207 209/209/209
f 206/206/206 209/209/209 208/208/208
f 208/208/208 210/210/210 123/123/123
f 210/210/210 128/128/128 123/123/123
f 207/207/207 211/211/211 209/209/209
f 207/207/207 204/204/204 211/211/211
f 209/209/209 212/212/212 208/208/208
f 208/208/208 212/212/212 210/210/210
f 209/209/209 211/211/211 212/212/212
f 210/210/210 213/213/213 128/128/128
f 212/212/212 213/213/213 210/210/210
f 213/213/213 134/134/134 128/128/128
f 211/211/211 214/214/214 212/212/212
f 212/212/212 214/214/214 213/213/213
f 213/213/213 215/215/215 134/134/134
f 214/214/214 215/215/215 213/213/213
f 211/211/211 216/216/216 214/214/214
f 204/204/204 216/216/216 211/211/211
f 214/214/214 216/216/216 215/215/215
f 215/215/215 217/217/217 134/134/134
f 134/134/134 217/217/217 135/135/135
f 135/135/135 217/217/217 218/218/218
f 215/215/215 219/219/219 217/217/217
f 217/217/217 219/219/219 218/218/218
f 216/216/216 219/219/219 215/215/215
f 218/218/218 219/219/219 220/220/220
f 219/219/219 221/221/221 220/220/220
f 219/219/219 216/216/216 221/221/221
f 220/220/220 221/221/221 222/222/222
f 216/216/216 204/204/204 223/223/223
f 216/216/216 223/223/223 221/221/221
f 223/223/223 224/224/224 221/221/221
f 221/221/221 225/225/225 222/222/222
f 224/224/224 225/225/225 221/221/221
f 222/222/222 225/225/225 226/226/226
f 225/225/225 227/227/227 226/226/226
f 225/225/225 224/224/224 227/227/227
f 226/226/226 227/227/227 228/228/228
f 227/227/227 229/229/229 228/228/228
f 227/227/227 230/230/230 229/229/229
f 224/224/224 230/230/230 227/227/227
f 230/230/230 231/231/231 229/229/229
f 230/230/230 232/232/232 231/231/231
f 232/232/232 230/230/230 224/224/224
f 232/232/232 233/233/233 231/231/231
f 204/204/204 234/234/234 223/223/223
f 223/223/223 234/234/234 224/224/224
f 232/232/232 235/235/235 233/233/233
f 235/235/235 236/236/236 233/233/233
f 237/237/237 236/236/236 235/235/235
f 238/238/238 232/232/232 224/224/224
f 234/234/234 238/238/238 224/224/224
f 235/235/235 232/232/232 238/238/238
f 239/239/239 234/234/234 204/204/204
f 202/202/202 239/239/239 204/204/204
f 239/239/239 202/202/202 48/48/48
f 240/240/240 238/238/238 234/234/234
f 239/239/239 240/240/240 234/234/234
f 240/240/240 235/235/235 238/238/238
f 240/240/240 239/239/239 48/48/48
f 241/241/241 237/237/237 235/235/235
f 241/241/241 235/235/235 240/240/240
f 241/241/241 240/240/240 48/48/48
f 39/39/39 237/237/237 241/241/241
f 48/48/48 242/242/242 241/241/241
f 242/242/242 39/39/39 241/241/241
f 38/38/38 242/242/242 48/48/48
f 242/242/242 38/38/38 39/39/39
