g snow1_14
v -6.4504189 -2.25190357 -2.812381
v -5.61257771 -2.59498037 -4.54884795
v -6.31817142 -2.13170348 -4.53597915
v -7.28962912 -1.43651433 -4.52803882
v -5.59258999 -2.81977372 -2.85482067
v -4.68684532 -2.52844593 -4.55049078
v -4.62879881 -3.00842489 -2.91122436
v -3.84653989 -2.3934604 -4.54501469
v -3.65159122 -2.78527437 -2.94106903
v -3.01718663 -1.85105406 -4.53570534
v -2.82771404 -2.1333463 -2.91697425
v -1.41789563 -1.42501455 -4.52831263
v -1.40530064 -1.46909704 -2.89534371
v 0.382093919 -1.56602377 -4.53159828
v 0.382367723 -1.54548844 -2.90876012
v 2.27955781 -1.42118129 -4.52831263
v -4.53515774 -3.19680225 -1.22404218
v -3.48457059 -2.96269957 -1.28154109
v -2.75460829 -2.20344021 -1.31905228
v -1.38120586 -1.48525149 -1.35053977
v 0.381820114 -1.55041692 -1.37052749
v -5.56301913 -3.06510238 -1.15476969
v 2.27106987 -1.48443008 -2.91177196
v 4.13102257 -1.41926466 -2.91286718
v 4.14005811 -1.34342086 -4.52858643
v 5.88227495 -1.10165165 -4.52886024
v 2.24560607 -1.62270126 -1.36915847
v 0.359368161 -1.53973855 0.0584572208
v -1.35683727 -1.43897857 0.0414813534
v -2.66425287 -2.13827478 0.135670037
v 5.86173963 -1.24293468 -2.86440382
v 7.41092443 -1.59641605 -4.53816958
v -1.37408694 -1.24594653 1.27688641
v -3.36546571 -2.87973686 0.266822303
v 7.34575901 -1.74262755 -2.86659425
v 8.24575378 -1.65281973 -4.53433632
v -2.64809841 -1.93730242 1.42583596
v -4.42015992 -3.15929106 0.35745153
v 8.24383715 -1.7138781 -2.85728491
v 8.72545894 -0.546102702 -4.52940784
v -3.31919278 -2.74146568 1.61476093
v 8.79418382 -0.565542808 -2.83209491
v 8.81307632 -0.557602483 -1.19310229
v 8.71806622 1.21528044 -4.52803882
v 8.74133959 1.25279163 -2.85016599
v 7.98481827 2.47313746 -4.52803882
v 8.20030227 -1.82586406 -1.19720936
v 7.98974675 2.52707691 -2.8570111
v 6.88604157 2.79704796 -4.52803882
v 7.26498673 -1.86091101 -1.22486359
v 6.86222059 2.79677415 -2.85235643
v 3.35013267 2.93805718 -4.52803882
v 3.33726387 2.92108131 -2.86193958
v -1.39544368 2.90903392 -4.52803882
v 6.82334038 2.78253633 -1.26401761
v 3.32795452 2.90410544 -1.27332696
v -1.37983683 2.90054599 -2.86823708
v -3.75481544 3.14696987 -4.52776502
v 7.9735923 2.52214843 -1.26182718
v -3.7263398 3.1423152 -2.85016599
v -5.9044531 2.99719891 -4.52803882
v -1.34287325 2.88384392 -1.27661261
v -5.8789893 3.00459163 -2.83921382
v -7.70690689 2.3554016 -4.52831263
v 8.79473143 1.30673108 -1.25169642
v 6.77706745 2.81210719 0.170443185
v 8.83251642 1.40886009 0.183311987
v -3.66582904 3.13492248 -1.2443037
v -3.56862851 3.17571932 0.238894263
v -7.74222765 2.43945953 -2.85098741
v -8.44125006 1.53481008 -4.52858643
v -5.81820475 3.04155521 -1.21500664
v -8.55268842 1.60901104 -2.84222567
v -8.74325622 0.0658499372 -4.52831263
v -7.71457342 2.56239766 -1.18844762
v -8.93574065 0.0601000467 -2.80882154
v -8.43467876 -1.30864771 -4.52803882
v -1.28017206 2.90410544 0.196728399
v -5.71908758 3.10206596 0.285988605
v -5.59669706 3.1360177 1.67280745
v -8.51654625 1.67992636 -1.15422208
v -7.65543168 2.74173949 0.318023709
v -8.42783365 -1.34287325 -2.76911992
v -7.34712803 -1.59285659 -2.78472676
v -8.49327288 -1.38011064 -1.00691536
v -8.97188282 0.096242216 -1.0791997
v -8.47848745 1.82449504 0.391403265
v -7.2945576 -1.72181842 -1.06989035
v -8.92944315 0.195633182 0.545007485
v -7.57301659 2.77048894 1.7333182
v -6.37649174 -2.32254508 -1.10794915
v -8.26793193 -1.47539454 0.633993886
v -7.15957207 -1.70730679 0.551578788
v -5.41817664 -3.11028009 0.433569129
v -6.29927892 -2.44028094 0.484770536
v -4.30351929 -3.09741129 1.75385353
v -5.3261784 -3.06674521 1.85598253
v -8.7862435 0.923952654 1.95948056
v -8.716971 -0.297214582 2.16373858
v -7.98180642 -1.28400532 2.15059597
v -6.9895396 -1.75467494 2.02081273
v -8.37142996 1.93976665 1.75056787
v -8.23699204 1.24375609 3.15956487
v -8.07380467 0.124991669 3.52262939
v -6.25683925 -2.55719538 1.95044502
v -7.41913856 -0.882060594 3.43364298
v -6.07448558 -2.5079106 3.26169388
v -6.63879627 -1.53179823 3.21706377
v -7.43036454 2.57855212 2.98898478
v -8.14170814 1.98877763 2.71299003
v -7.34466379 1.88117253 3.96673998
v -6.13006786 2.81949991 2.95941392
v -7.00815829 0.671778881 4.40373167
v -5.92635745 2.15689347 3.97851357
v -6.47643031 -0.379355875 4.27011516
v -4.73996336 2.89698653 2.87152273
v -5.62572031 1.11561567 4.47218274
v -4.51681285 2.27189129 3.82956402
v -3.29153855 2.91204577 2.78554818
v -3.44486896 3.19680225 1.61065387
v -1.19145947 2.95749728 1.51509616
v -1.83188775 2.77514361 2.66206243
v -3.11602998 2.34472323 3.67705502
v -4.26135342 1.35656347 4.33473298
v -5.26210819 0.0872066736 4.50832491
v -6.00493929 -1.21966131 4.1901643
v -5.56822141 -2.09391848 4.14443898
v -5.19393091 -2.86276099 3.05004314
v -4.23862766 -2.89589131 2.97036609
v -3.35423973 -2.40906725 2.80663111
v -2.6979308 -1.64980789 2.53857669
v -1.97892067 -0.993498949 2.30611682
v -4.93628105 -0.848382663 4.55049078
v -4.67178609 -1.72729451 4.4502784
v -5.05757636 -2.5714332 3.82518315
v -4.31994755 -2.44110235 3.94976411
v -3.5678071 -1.92114796 3.74961316
v -3.03032923 -1.17530501 3.40489353
v -3.61791329 -0.606613455 4.22411604
v -3.90814586 -1.45841867 4.298317
v -3.95660922 0.394141308 4.45164742
v -2.14785793 -0.590459001 3.17106465
v -2.9142362 1.5301554 4.12773692
v -2.66835993 0.679171598 4.22137799
v -1.69279516 2.32939019 3.54727177
v -0.927238305 -0.85385875 2.30228356
v -2.38962714 -0.0828258046 3.91581238
v -1.55151214 1.63502245 4.0061678
v -0.345404141 2.7173709 2.60456353
v -0.247929805 2.35950867 3.52701026
v 1.91594568 2.83894002 2.63331298
v 0.308166754 -1.40447922 1.3524564
v -1.03566481 -0.405093481 3.1423152
v -1.37189651 0.833871035 4.08803529
v -1.19447131 0.141146123 3.79342185
v 0.232322959 -1.13505578 2.48053017
v 2.21603521 -1.6821168 0.0784449356
v -0.0395647232 0.871108421 4.12253464
v 0.138955689 -0.64631508 3.40735777
v 2.17852401 -1.64652224 1.39818172
v 4.0948804 -1.47019226 -1.36422999
v -0.147169818 1.6569268 3.97796596
v 0.0557191777 0.0976112375 3.96701379
v 1.36915847 0.876858312 4.25752016
v 1.2377324 2.34691367 3.50045124
v 4.04066715 -1.47156128 0.0521597216
v 5.7965742 -1.40721727 -1.28975522
v 5.68431444 -1.41433618 0.111301453
v 1.42583596 -0.0280649421 4.26053201
v 3.99384661 -1.34177803 1.29221945
v 5.5359125 -1.29796934 1.26155337
v 7.10289458 -1.92854068 0.341023272
v 8.16826716 -1.95756393 0.499555969
v 6.81540005 -1.72510407 1.74098472
v 8.88317022 -0.501198795 0.338559033
v 8.03957913 -1.73769907 2.24149901
v 2.82771404 -1.37025368 2.54542179
v 3.98234683 -1.06769992 2.33212823
v 1.48716813 -1.53097682 2.66124102
v 1.46608519 -0.939011891 3.69622132
v 2.85646349 -0.806490603 3.49853461
v 4.06722616 -0.621398888 3.20200454
v 2.86385621 -0.0209460299 4.11541572
v 5.02088659 -1.03237916 2.1648338
v 2.80964296 0.870287008 4.23233017
v 1.29085043 1.69608082 4.01821519
v 2.76337003 1.71688994 4.07407127
v 4.19755702 0.826204514 4.06996421
v 4.16606952 0.00506537979 3.81642141
v 2.71299003 2.45506637 3.5678071
v 4.20960441 1.68020017 4.05928584
v 5.22651363 -0.680266815 2.94106903
v 5.53919815 0.727634961 3.97248987
v 5.45733066 -0.136765254 3.62284176
v 6.9202671 0.632624865 3.93826433
v 6.26642241 -1.05072405 2.60784918
v 5.53974576 1.64487941 3.95304977
v 4.16415289 2.47395887 3.55822395
v 4.13047496 2.90328403 2.61496809
v 5.79164573 -1.13204393 2.04518131
v 7.06510959 -0.695326052 3.57246177
v 8.41907191 -0.170443185 3.12123226
v 5.53071022 2.46738756 3.51824852
v 1.86830373 2.98925859 1.49127519
v 1.84283993 2.90465305 0.180026336
v 4.10802301 3.07468553 1.478954
v 4.80950966 2.96023533 0.186050031
v 5.48553251 2.81922611 2.5774569
v 6.78500777 1.63064158 3.85667065
v 5.48252066 2.97666359 1.45595443
v 6.73106832 2.87015371 1.43733574
v 6.66398627 2.3994841 3.45061885
v 6.67439083 2.74666796 2.55418353
v 7.93224784 2.59853983 0.177014488
v 7.89391524 2.65165787 1.45458541
v 7.70252603 2.53501723 2.56650473
v 8.71149492 1.94798078 1.47813258
v 7.45747117 2.27462933 3.32795452
v 8.93847869 1.02087938 1.44335943
v 8.51901049 1.87761308 2.65576493
v 7.85695166 1.68512864 3.55192645
v 8.68384068 1.02005797 2.55500495
v 8.11870858 0.79608604 3.52920069
v 8.97188282 0.119241778 1.52741736
v 8.7736485 0.327059252 2.4312454
v 8.78295784 -0.793621801 1.92908829
vt 0.160558984 0.364121111
vt 0.151090978 0.293111066
vt 0.117952957 0.331772091
vt 0.0816589347 0.393314129
vt 0.192119004 0.324671086
vt 0.190541003 0.254450042
vt 0.229202027 0.293900067
vt 0.232358029 0.224468024
vt 0.269441052 0.265496049
vt 0.283643061 0.196853006
vt 0.31520308 0.242615035
vt 0.374378117 0.166081987
vt 0.389369126 0.222101022
vt 0.476948181 0.158191982
vt 0.476159181 0.214211017
vt 0.584252248 0.172393991
vt 0.263918048 0.326249087
vt 0.301790072 0.304157073
vt 0.341240096 0.286010062
vt 0.402782135 0.272597054
vt 0.476159181 0.265496049
vt 0.232358029 0.353864104
vt 0.567683238 0.225257024
vt 0.653684291 0.255239043
vt 0.682877309 0.209477014
vt 0.765722361 0.26707405
vt 0.553481229 0.273386054
vt 0.47537018 0.31441408
vt 0.413828142 0.319148083
vt 0.36254311 0.327827088
vt 0.724694335 0.303368073
vt 0.824897398 0.338873095
vt 0.422507147 0.36333211
vt 0.329405089 0.339662095
vt 0.776768368 0.359387108
vt 0.847778412 0.383057122
vt 0.37911212 0.368066113
vt 0.294689067 0.357020106
vt 0.797282381 0.398048132
vt 0.868292425 0.451700165
vt 0.3475521 0.373589117
vt 0.815429392 0.458012169
vt 0.774401366 0.465113174
vt 0.866714424 0.553481229
vt 0.816218392 0.547169225
vt 0.84462241 0.63553728
vt 0.754676354 0.409883139
vt 0.79570438 0.616601268
vt 0.81227339 0.694712317
vt 0.733373341 0.37832312
vt 0.767300362 0.664730298
vt 0.663152297 0.818585394
vt 0.63632628 0.765722361
vt 0.422507147 0.859613419
vt 0.729428338 0.640271283
vt 0.612656266 0.718382331
vt 0.424874149 0.803594385
vt 0.293111066 0.832787403
vt 0.755465355 0.600032258
vt 0.315992081 0.781502371
vt 0.185807 0.772034365
vt 0.429608152 0.750731352
vt 0.224468024 0.73258434
vt 0.113218954 0.689189313
vt 0.775979367 0.542435222
vt 0.694712317 0.617390269
vt 0.742841347 0.53927922
vt 0.338084094 0.735740342
vt 0.358598107 0.693134316
vt 0.158980983 0.663941298
vt 0.0848149367 0.630014276
vt 0.258395045 0.698657319
vt 0.132943967 0.613445266
vt 0.0611449219 0.544013223
vt 0.200009008 0.643427285
vt 0.114796955 0.537701219
vt 0.0611449219 0.45880117
vt 0.436709156 0.69944632
vt 0.289166064 0.6678863
vt 0.31441408 0.637115281
vt 0.173971992 0.601610259
vt 0.23472503 0.626858274
vt 0.118741958 0.465113174
vt 0.134521968 0.413039141
vt 0.165292987 0.473003179
vt 0.159769983 0.535334217
vt 0.211055015 0.590564252
vt 0.178705995 0.424874149
vt 0.196064006 0.533756216
vt 0.263918048 0.607133262
vt 0.201587009 0.386213124
vt 0.204743011 0.473003179
vt 0.21815602 0.437498156
vt 0.26628505 0.377534119
vt 0.238670033 0.405149136
vt 0.317570082 0.384635123
vt 0.291533065 0.401993134
vt 0.233147029 0.549536226
vt 0.233147029 0.514031204
vt 0.241037034 0.480893183
vt 0.253661042 0.451700165
vt 0.242615035 0.580307245
vt 0.26628505 0.550325227
vt 0.270230052 0.520343208
vt 0.270230052 0.424874149
vt 0.275753056 0.49115019
vt 0.297845069 0.44302116
vt 0.283643061 0.467480175
vt 0.286010062 0.584252248
vt 0.263918048 0.57162824
vt 0.297845069 0.559793233
vt 0.316781081 0.600032258
vt 0.305735074 0.529022213
vt 0.33098309 0.569261239
vt 0.310469077 0.500618196
vt 0.351497103 0.608711263
vt 0.339662095 0.537701219
vt 0.364910111 0.573995241
vt 0.388580126 0.611867265
vt 0.375956118 0.65131729
vt 0.441443159 0.652895291
vt 0.42724115 0.611867265
vt 0.398048132 0.575573242
vt 0.372800116 0.540857221
vt 0.345185099 0.508508201
vt 0.315992081 0.479315182
vt 0.320726084 0.457223169
vt 0.312047078 0.424085148
vt 0.334139092 0.41146114
vt 0.360965109 0.405938137
vt 0.387791125 0.404360136
vt 0.413828142 0.404360136
vt 0.3475521 0.483260185
vt 0.345185099 0.461168171
vt 0.325460087 0.439865158
vt 0.343607098 0.438287157
vt 0.365699112 0.435920155
vt 0.390158127 0.439865158
vt 0.381479122 0.47537018
vt 0.364910111 0.458012169
vt 0.37832312 0.509297201
vt 0.415406143 0.441443159
vt 0.404360136 0.542435222
vt 0.409094139 0.509297201
vt 0.432764153 0.574784242
vt 0.440654158 0.403571135
vt 0.413039141 0.477737181
vt 0.435920155 0.541646221
vt 0.465902174 0.610289264
vt 0.467480175 0.57241724
vt 0.527444212 0.60318826
vt 0.473792179 0.359387108
vt 0.442232159 0.442232159
vt 0.439076157 0.509297201
vt 0.440654158 0.477737181
vt 0.473003179 0.402782135
vt 0.541646221 0.318359082
vt 0.469847177 0.508508201
vt 0.472214178 0.442232159
vt 0.532967216 0.360965109
vt 0.627647275 0.296267068
vt 0.468269176 0.54006822
vt 0.470636177 0.477737181
vt 0.502985197 0.508508201
vt 0.504563198 0.570050239
vt 0.605555261 0.334139092
vt 0.689189313 0.333350092
vt 0.658418294 0.360176108
vt 0.503774198 0.476948181
vt 0.588986251 0.370433115
vt 0.633170278 0.385424124
vt 0.695501317 0.39489213
vt 0.71601533 0.423296148
vt 0.662363297 0.413828142
vt 0.739685345 0.473003179
vt 0.681299308 0.442232159
vt 0.544802223 0.401993134
vt 0.577940244 0.405149136
vt 0.508508201 0.401204134
vt 0.506141199 0.440654158
vt 0.540857221 0.439865158
vt 0.57241724 0.438287157
vt 0.53927922 0.473792179
vt 0.606344262 0.407516138
vt 0.537701219 0.505352199
vt 0.502985197 0.53927922
vt 0.538490219 0.535334217
vt 0.570050239 0.499040195
vt 0.570050239 0.469058176
vt 0.541646221 0.566105237
vt 0.57241724 0.529022213
vt 0.602399259 0.435920155
vt 0.600032258 0.495884193
vt 0.600821258 0.465113174
vt 0.630803277 0.496673193
vt 0.632381278 0.429608152
vt 0.601610259 0.525077211
vt 0.576362243 0.559793233
vt 0.585041248 0.592931253
vt 0.627647275 0.409883139
vt 0.640271283 0.462746172
vt 0.673409303 0.484049185
vt 0.607133262 0.554270229
vt 0.533756216 0.642638284
vt 0.543224222 0.686822312
vt 0.597665256 0.628436275
vt 0.637904281 0.655262292
vt 0.618179269 0.584252248
vt 0.629225276 0.52428821
vt 0.634748279 0.614234267
vt 0.666308299 0.595298255
vt 0.632381278 0.547958225
vt 0.645005286 0.57241724
vt 0.720749333 0.586619249
vt 0.691556315 0.57241724
vt 0.666308299 0.557426231
vt 0.707336325 0.545591224
vt 0.649739289 0.543224222
vt 0.714437329 0.520343208
vt 0.680510308 0.535334217
vt 0.654473292 0.525866211
vt 0.687611312 0.514820205
vt 0.660785296 0.505352199
vt 0.714437329 0.493517191
vt 0.692345315 0.497462194
vt 0.701813321 0.469058176
vn -0.584199003 -0.811610452 -0
vn -0.32547024 -0.929363056 -0.174222367
vn -0.568594192 -0.819565142 -0.0708069397
vn -0.388211905 -0.921520348 -0.0095794266
vn -0.372526489 -0.921520348 -0.109655204
vn 0.0509797484 -0.968576596 -0.243434678
vn 0.0352943322 -0.984262013 -0.173154846
vn 0.388216197 -0.882306807 -0.266125689
vn 0.419587029 -0.890149515 -0.177709216
vn 0.435272445 -0.882306807 -0.179088236
vn 0.490171402 -0.866621391 -0.0932703664
vn 0.129341018 -0.991600172 -0
vn 0.160777662 -0.984262013 -0.0733405359
vn -0.00391920828 -0.999947429 -0.00947521166
vn -0.0117617211 -0.999930829 -0
vn 0.043099223 -0.999070797 -0
vn 0.0509163006 -0.998702924 -0
vn 0.466643278 -0.882306807 -0.0614715323
vn 0.560755775 -0.82740785 -0.0308092479
vn 0.199991202 -0.976419304 -0.0812949013
vn -0.0352699382 -0.999377822 -0
vn -0.403897321 -0.91367764 -0.0453885959
vn 0.0352742219 -0.999377671 -0
vn 0.0745078727 -0.992104721 -0.100880128
vn 0.0823505808 -0.992104721 -0.0945864958
vn -0.0901889974 -0.992104721 -0.0871445243
vn 0.0274427279 -0.999623377 -0
vn -0.074301546 -0.99723582 -0
vn 0.192148494 -0.976419304 0.0984088317
vn 0.592126607 -0.803879726 0.0562447032
vn -0.0980317055 -0.992104721 -0.0782176967
vn -0.207829619 -0.976419304 -0.0584139666
vn 0.184305786 -0.960733888 0.207416907
vn 0.513343382 -0.858183297 -0
vn -0.192144203 -0.976419304 -0.0984172107
vn 0.631340148 -0.772508894 -0.068114805
vn 0.639182856 -0.741138061 0.205328153
vn 0.105878705 -0.992104721 0.0672154979
vn 0.637487889 -0.770460376 -0
vn 0.984262013 -0.160777662 -0.0733405359
vn 0.576441191 -0.811722434 0.0939267947
vn 0.984262013 -0.16862037 -0.0528721249
vn 0.981472337 -0.191603891 -0
vn 0.968576596 0.239200451 -0.0681360491
vn 0.968576596 0.247043159 -0.0287933062
vn 0.645944546 0.763384335 -0
vn 0.631340148 -0.772508894 -0.068114805
vn 0.631340148 0.772504602 -0.068163459
vn 0.0901932889 0.992100429 0.0871889286
vn -0.176458787 -0.984262013 -0.00951774186
vn 0.0901932889 0.992100429 -0.0871889286
vn 0.0117660625 0.999930777 -0
vn 0.0117660625 0.999930777 -0
vn 0.0274428456 0.999623374 -0
vn 0.0901932889 0.992100429 -0.0871889286
vn 0.0117660625 0.999930777 -0
vn 0.0352743731 0.999377666 -0
vn 0.0196062616 0.999807779 -0
vn 0.606871024 0.794800328 -0
vn 0.0274428456 0.999623374 -0
vn -0.184050409 0.982916806 -0
vn 0.0352743731 0.999377666 -0
vn -0.168616078 0.984257721 -0.0529656192
vn -0.482324402 0.874459808 -0.0517997661
vn 0.965124283 0.261792128 -0
vn 0.105878705 0.992100429 -0.0672788112
vn 0.95289118 0.301942116 -0.0287985659
vn 0.0352743731 0.999377666 -0
vn 0.0430994077 0.999070789 -0
vn -0.473632143 0.880722768 -0
vn -0.897987932 0.427425446 -0.104523502
vn -0.144704001 0.989474988 -0
vn -0.897987932 0.435268154 -0.064492701
vn -0.999623374 -0.0274428456 -0
vn -0.45095357 0.890145224 -0.0654397301
vn -0.999623374 -0.0274428456 -0
vn -0.717605646 -0.694081813 -0.0573809615
vn 0.0430994077 0.999070789 -0
vn -0.113717122 0.992100429 -0.0529637128
vn -0.0980317055 0.992100429 0.078272111
vn -0.896764878 0.442507348 -0
vn -0.419582738 0.90583064 -0.0584908367
vn -0.717605646 -0.694081813 -0.0573809615
vn -0.396054613 -0.91367764 -0.0912902742
vn -0.748919709 -0.66266075 -0
vn -0.999377666 -0.0352743731 -0
vn -0.882302516 0.466638986 -0.0615656347
vn -0.41174003 -0.905834931 -0.0996655656
vn -0.997785006 -0.0665212843 -0
vn -0.388211905 0.921516056 0.00998373017
vn -0.60686625 -0.794803972 -0
vn -0.701920229 -0.709767229 0.0594850602
vn -0.458141561 -0.888879244 -0
vn -0.348971407 -0.937133372 -0
vn -0.623493148 -0.780351602 0.0480382295
vn 0.176463078 -0.976419304 0.124362873
vn -0.270571284 -0.960733888 0.0614945241
vn -0.960729597 0.184301495 0.207440597
vn -0.897987932 -0.341159948 0.277898478
vn -0.662706689 -0.701924521 0.261001555
vn -0.5764369 -0.803879726 0.146621576
vn -0.858774391 0.505852527 0.081361944
vn -0.827403559 0.192144203 0.527715791
vn -0.74113377 -0.20783391 0.638377475
vn -0.631335856 -0.772508894 0.0681545705
vn -0.568594192 -0.568598483 0.594471539
vn -0.623493148 -0.694081813 0.359870437
vn -0.623493148 -0.62349744 0.471706727
vn -0.372526489 0.850931683 0.370323217
vn -0.788190018 0.537223359 0.300245828
vn -0.419582738 0.474481694 0.773832959
vn -0.12155983 0.921516056 0.368824302
vn -0.380369197 0.0117619164 0.924759932
vn -0.0666608731 0.639178565 0.76616388
vn -0.333312949 -0.286260991 0.898307922
vn -0.00391920828 0.921516056 0.388320484
vn -0.0352900407 0.223515035 0.974061416
vn 0.0274516241 0.686234813 0.726861878
vn 0.0509797484 0.937201472 0.345042701
vn 0.0431370403 0.992100429 0.117796156
vn 0.0430994077 0.999070789 -0
vn 0.0823505808 0.94504418 0.316401452
vn 0.0588224565 0.717605646 0.693961134
vn 0.0666651646 0.317627532 0.94586918
vn -0.0196046245 -0.0352943322 0.999184652
vn -0.443110862 -0.325474532 0.835295812
vn -0.427425446 -0.474485986 0.769526177
vn -0.199986911 -0.945048472 0.258628345
vn 0.270575575 -0.91367764 0.303285392
vn 0.647025564 -0.694081813 0.315607916
vn 0.694081813 -0.615654732 0.373121547
vn 0.435272445 -0.78819431 0.43507198
vn -0.0196046245 -0.0901932889 0.995731304
vn 0.0509797484 -0.286260991 0.956794497
vn -0.113717122 -0.811722434 0.572865696
vn 0.2941037 -0.725452645 0.622271222
vn 0.654868272 -0.482328694 0.58181318
vn 0.647025564 -0.490171402 0.584029037
vn 0.364688072 -0.215676619 0.905806936
vn 0.466643278 -0.20783391 0.859679659
vn 0.152934954 0.0117619164 0.98816626
vn 0.372530781 -0.725452645 0.578739386
vn 0.0901932889 0.341155657 0.935669807
vn 0.16862037 -0.0431370403 0.984736699
vn 0.0431370403 0.764661894 0.642986301
vn -0.105874414 -0.921520348 0.373618599
vn 0.2941037 -0.474485986 0.829678289
vn 0.0352943322 0.356841073 0.93349813
vn -0.0117619164 0.960729597 0.277236901
vn -0.00391920828 0.796032727 0.605240893
vn -0.0352900407 0.968572305 0.246215969
vn -0.137245246 -0.984262013 0.11131951
vn -0.058818165 -0.819565142 0.569959122
vn 0.0431370403 -0.0823505808 0.995669412
vn 0.0117662079 -0.552913067 0.833155866
vn -0.239200451 -0.921520348 0.305914029
vn 0.0196061775 -0.99980778 -0
vn -0.0745035812 -0.00392349982 0.997213028
vn -0.270571284 -0.748980769 0.604829718
vn 0.0117662079 -0.992104721 0.124859039
vn 0.0665210001 -0.997785025 -0
vn -0.0196046245 0.388211905 0.921361588
vn -0.192144203 -0.427429737 0.883393698
vn -0.0431327488 0.0745035812 0.9962875
vn -0.0352900407 0.788190018 0.614419326
vn 0.0820770438 -0.996625987 -0
vn -0.1293368 -0.991600722 -0
vn -0.152348314 -0.988326865 -0
vn -0.0509754569 -0.356845364 0.932771617
vn 0.113721413 -0.984262013 0.135261713
vn -0.152930662 -0.976419304 0.152373077
vn -0.184049634 -0.982916951 -0
vn 0.568598483 -0.819565142 0.0707724692
vn -0.223515035 -0.937205764 0.267743133
vn 0.968576596 -0.247047451 -0.0287564615
vn 0.411744321 -0.811722434 0.41421408
vn 0.199991202 -0.921520348 0.332871999
vn 0.16862037 -0.929363056 0.328407493
vn -0.105874414 -0.945048472 0.309312131
vn -0.0666608731 -0.741138061 0.668034956
vn 0.192148494 -0.748980769 0.634118887
vn 0.16862037 -0.796037018 0.581284988
vn 0.145092246 -0.388216197 0.910074956
vn 0.0117662079 -0.937205764 0.348578417
vn 0.0666651646 0.0196046245 0.997582786
vn -0.0352900407 0.419582738 0.907030837
vn 0.00392349982 0.388211905 0.921561785
vn 0.098035997 -0.105878705 0.989534559
vn 0.137249538 -0.49801411 0.856238583
vn -0.0274473326 0.788190018 0.614819599
vn 0.0509797484 0.309784824 0.949439007
vn -0.0666608731 -0.843093267 0.533619782
vn 0.0352943322 -0.160777662 0.986359394
vn -0.0431327488 -0.552913067 0.83212181
vn 0.160777662 -0.145092246 0.976267783
vn -0.231357743 -0.843093267 0.485455805
vn 0.0666651646 0.262728576 0.962563999
vn 0.019608916 0.78034731 0.625038851
vn 0.00392349982 0.968572305 0.24870122
vn -0.278413992 -0.890149515 0.360720792
vn 0.137249538 -0.592126607 0.794070932
vn 0.647025564 -0.317631824 0.69315795
vn 0.0666651646 0.764661894 0.640974214
vn -0.0196019723 0.999807863 -0
vn -0.0117617716 0.999930828 -0
vn -0.00391920828 0.999943137 0.00991777371
vn 0.0352743731 0.999377666 -0
vn 0.0666651646 0.968572305 0.239631897
vn 0.152934954 0.239200451 0.958850376
vn 0.0743061194 0.997235479 -0
vn 0.129341568 0.9916001 -0
vn 0.129406829 0.756819186 0.640686032
vn 0.121564121 0.968572305 0.21700197
vn 0.545070359 0.835246267 -0.0725394881
vn 0.466643278 0.882302516 0.0615330981
vn 0.411744321 0.874459808 0.256489101
vn 0.819565142 0.568594192 0.0708069397
vn 0.341159948 0.725448354 0.597774687
vn 0.992104721 0.0980317055 0.0782176967
vn 0.803879726 0.474481694 0.358670472
vn 0.521542235 0.317627532 0.791900529
vn 0.91367764 0.129402538 0.385289702
vn 0.552913067 -0.0431370403 0.832121587
vn 0.999623377 -0.0274427279 -0
vn 0.937205764 -0.019608916 0.348225281
vn 0.843093267 -0.450957862 0.292968856
g snow1_14_0
f 3/3/3 2/2/2 1/1/1
f 4/4/4 3/3/3 1/1/1
f 2/2/2 5/5/5 1/1/1
f 2/2/2 6/6/6 5/5/5
f 6/6/6 7/7/7 5/5/5
f 6/6/6 8/8/8 7/7/7
f 8/8/8 9/9/9 7/7/7
f 8/8/8 10/10/10 9/9/9
f 10/10/10 11/11/11 9/9/9
f 10/10/10 12/12/12 11/11/11
f 12/12/12 13/13/13 11/11/11
f 12/12/12 14/14/14 13/13/13
f 14/14/14 15/15/15 13/13/13
f 14/14/14 16/16/16 15/15/15
f 7/7/7 17/17/17 5/5/5
f 9/9/9 18/18/18 7/7/7
f 18/18/18 17/17/17 7/7/7
f 11/11/11 19/19/19 9/9/9
f 19/19/19 18/18/18 9/9/9
f 13/13/13 20/20/20 11/11/11
f 20/20/20 19/19/19 11/11/11
f 15/15/15 21/21/21 13/13/13
f 21/21/21 20/20/20 13/13/13
f 17/17/17 22/22/22 5/5/5
f 5/5/5 22/22/22 1/1/1
f 16/16/16 23/23/23 15/15/15
f 23/23/23 16/16/16 24/24/24
f 16/16/16 25/25/25 24/24/24
f 25/25/25 26/26/26 24/24/24
f 15/15/15 23/23/23 27/27/27
f 21/21/21 15/15/15 27/27/27
f 27/27/27 23/23/23 24/24/24
f 20/20/20 21/21/21 28/28/28
f 28/28/28 21/21/21 27/27/27
f 20/20/20 29/29/29 19/19/19
f 29/29/29 20/20/20 28/28/28
f 29/29/29 30/30/30 19/19/19
f 19/19/19 30/30/30 18/18/18
f 26/26/26 31/31/31 24/24/24
f 26/26/26 32/32/32 31/31/31
f 33/33/33 29/29/29 28/28/28
f 29/29/29 33/33/33 30/30/30
f 30/30/30 34/34/34 18/18/18
f 18/18/18 34/34/34 17/17/17
f 32/32/32 35/35/35 31/31/31
f 32/32/32 36/36/36 35/35/35
f 33/33/33 37/37/37 30/30/30
f 30/30/30 37/37/37 34/34/34
f 34/34/34 38/38/38 17/17/17
f 17/17/17 38/38/38 22/22/22
f 36/36/36 39/39/39 35/35/35
f 36/36/36 40/40/40 39/39/39
f 37/37/37 41/41/41 34/34/34
f 34/34/34 41/41/41 38/38/38
f 40/40/40 42/42/42 39/39/39
f 39/39/39 42/42/42 43/43/43
f 40/40/40 44/44/44 42/42/42
f 44/44/44 45/45/45 42/42/42
f 42/42/42 45/45/45 43/43/43
f 44/44/44 46/46/46 45/45/45
f 39/39/39 47/47/47 35/35/35
f 47/47/47 39/39/39 43/43/43
f 46/46/46 48/48/48 45/45/45
f 46/46/46 49/49/49 48/48/48
f 47/47/47 50/50/50 35/35/35
f 35/35/35 50/50/50 31/31/31
f 49/49/49 51/51/51 48/48/48
f 49/49/49 52/52/52 51/51/51
f 52/52/52 53/53/53 51/51/51
f 52/52/52 54/54/54 53/53/53
f 48/48/48 51/51/51 55/55/55
f 51/51/51 53/53/53 55/55/55
f 53/53/53 56/56/56 55/55/55
f 54/54/54 57/57/57 53/53/53
f 53/53/53 57/57/57 56/56/56
f 54/54/54 58/58/58 57/57/57
f 48/48/48 59/59/59 45/45/45
f 59/59/59 48/48/48 55/55/55
f 58/58/58 60/60/60 57/57/57
f 58/58/58 61/61/61 60/60/60
f 57/57/57 62/62/62 56/56/56
f 57/57/57 60/60/60 62/62/62
f 61/61/61 63/63/63 60/60/60
f 61/61/61 64/64/64 63/63/63
f 59/59/59 65/65/65 45/45/45
f 45/45/45 65/65/65 43/43/43
f 55/55/55 56/56/56 66/66/66
f 59/59/59 55/55/55 66/66/66
f 65/65/65 59/59/59 67/67/67
f 65/65/65 67/67/67 43/43/43
f 60/60/60 68/68/68 62/62/62
f 60/60/60 63/63/63 68/68/68
f 62/62/62 68/68/68 69/69/69
f 64/64/64 70/70/70 63/63/63
f 64/64/64 71/71/71 70/70/70
f 63/63/63 72/72/72 68/68/68
f 68/68/68 72/72/72 69/69/69
f 63/63/63 70/70/70 72/72/72
f 71/71/71 73/73/73 70/70/70
f 71/71/71 74/74/74 73/73/73
f 70/70/70 75/75/75 72/72/72
f 70/70/70 73/73/73 75/75/75
f 74/74/74 76/76/76 73/73/73
f 74/74/74 77/77/77 76/76/76
f 78/78/78 62/62/62 69/69/69
f 62/62/62 78/78/78 56/56/56
f 72/72/72 79/79/79 69/69/69
f 72/72/72 75/75/75 79/79/79
f 79/79/79 80/80/80 69/69/69
f 73/73/73 81/81/81 75/75/75
f 73/73/73 76/76/76 81/81/81
f 75/75/75 82/82/82 79/79/79
f 79/79/79 82/82/82 80/80/80
f 75/75/75 81/81/81 82/82/82
f 77/77/77 83/83/83 76/76/76
f 77/77/77 4/4/4 83/83/83
f 4/4/4 84/84/84 83/83/83
f 84/84/84 4/4/4 1/1/1
f 76/76/76 83/83/83 85/85/85
f 83/83/83 84/84/84 85/85/85
f 76/76/76 86/86/86 81/81/81
f 86/86/86 76/76/76 85/85/85
f 81/81/81 87/87/87 82/82/82
f 81/81/81 86/86/86 87/87/87
f 88/88/88 84/84/84 1/1/1
f 84/84/84 88/88/88 85/85/85
f 86/86/86 85/85/85 89/89/89
f 86/86/86 89/89/89 87/87/87
f 82/82/82 90/90/90 80/80/80
f 82/82/82 87/87/87 90/90/90
f 91/91/91 88/88/88 1/1/1
f 22/22/22 91/91/91 1/1/1
f 85/85/85 88/88/88 92/92/92
f 85/85/85 92/92/92 89/89/89
f 93/93/93 88/88/88 91/91/91
f 88/88/88 93/93/93 92/92/92
f 22/22/22 94/94/94 91/91/91
f 38/38/38 94/94/94 22/22/22
f 95/95/95 93/93/93 91/91/91
f 94/94/94 95/95/95 91/91/91
f 38/38/38 96/96/96 94/94/94
f 41/41/41 96/96/96 38/38/38
f 94/94/94 97/97/97 95/95/95
f 96/96/96 97/97/97 94/94/94
f 87/87/87 89/89/89 98/98/98
f 89/89/89 92/92/92 99/99/99
f 89/89/89 99/99/99 98/98/98
f 92/92/92 93/93/93 100/100/100
f 92/92/92 100/100/100 99/99/99
f 101/101/101 93/93/93 95/95/95
f 93/93/93 101/101/101 100/100/100
f 102/102/102 87/87/87 98/98/98
f 87/87/87 102/102/102 90/90/90
f 98/98/98 99/99/99 103/103/103
f 102/102/102 98/98/98 103/103/103
f 99/99/99 100/100/100 104/104/104
f 99/99/99 104/104/104 103/103/103
f 97/97/97 105/105/105 95/95/95
f 105/105/105 101/101/101 95/95/95
f 100/100/100 106/106/106 104/104/104
f 100/100/100 101/101/101 106/106/106
f 105/105/105 107/107/107 101/101/101
f 107/107/107 105/105/105 97/97/97
f 101/101/101 108/108/108 106/106/106
f 107/107/107 108/108/108 101/101/101
f 90/90/90 102/102/102 109/109/109
f 110/110/110 102/102/102 103/103/103
f 102/102/102 110/110/110 109/109/109
f 110/110/110 103/103/103 109/109/109
f 103/103/103 104/104/104 111/111/111
f 103/103/103 111/111/111 109/109/109
f 90/90/90 109/109/109 112/112/112
f 109/109/109 111/111/111 112/112/112
f 80/80/80 90/90/90 112/112/112
f 104/104/104 106/106/106 113/113/113
f 104/104/104 113/113/113 111/111/111
f 111/111/111 114/114/114 112/112/112
f 111/111/111 113/113/113 114/114/114
f 106/106/106 115/115/115 113/113/113
f 106/106/106 108/108/108 115/115/115
f 80/80/80 112/112/112 116/116/116
f 112/112/112 114/114/114 116/116/116
f 113/113/113 117/117/117 114/114/114
f 113/113/113 115/115/115 117/117/117
f 114/114/114 118/118/118 116/116/116
f 114/114/114 117/117/117 118/118/118
f 80/80/80 116/116/116 119/119/119
f 116/116/116 118/118/118 119/119/119
f 120/120/120 80/80/80 119/119/119
f 80/80/80 120/120/120 69/69/69
f 120/120/120 121/121/121 69/69/69
f 121/121/121 78/78/78 69/69/69
f 120/120/120 119/119/119 122/122/122
f 121/121/121 120/120/120 122/122/122
f 118/118/118 123/123/123 119/119/119
f 119/119/119 123/123/123 122/122/122
f 117/117/117 124/124/124 118/118/118
f 118/118/118 124/124/124 123/123/123
f 115/115/115 125/125/125 117/117/117
f 117/117/117 125/125/125 124/124/124
f 115/115/115 126/126/126 125/125/125
f 108/108/108 126/126/126 115/115/115
f 127/127/127 126/126/126 108/108/108
f 107/107/107 127/127/127 108/108/108
f 127/127/127 107/107/107 128/128/128
f 128/128/128 107/107/107 97/97/97
f 129/129/129 128/128/128 97/97/97
f 96/96/96 129/129/129 97/97/97
f 130/130/130 129/129/129 96/96/96
f 41/41/41 130/130/130 96/96/96
f 131/131/131 130/130/130 41/41/41
f 37/37/37 131/131/131 41/41/41
f 132/132/132 131/131/131 37/37/37
f 33/33/33 132/132/132 37/37/37
f 126/126/126 133/133/133 125/125/125
f 127/127/127 134/134/134 126/126/126
f 134/134/134 133/133/133 126/126/126
f 135/135/135 127/127/127 128/128/128
f 127/127/127 135/135/135 134/134/134
f 136/136/136 135/135/135 128/128/128
f 129/129/129 136/136/136 128/128/128
f 135/135/135 136/136/136 134/134/134
f 137/137/137 136/136/136 129/129/129
f 130/130/130 137/137/137 129/129/129
f 136/136/136 137/137/137 134/134/134
f 131/131/131 138/138/138 130/130/130
f 138/138/138 137/137/137 130/130/130
f 138/138/138 139/139/139 137/137/137
f 137/137/137 140/140/140 134/134/134
f 134/134/134 140/140/140 133/133/133
f 139/139/139 140/140/140 137/137/137
f 140/140/140 139/139/139 133/133/133
f 125/125/125 133/133/133 141/141/141
f 133/133/133 139/139/139 141/141/141
f 125/125/125 141/141/141 124/124/124
f 138/138/138 131/131/131 142/142/142
f 139/139/139 138/138/138 142/142/142
f 131/131/131 132/132/132 142/142/142
f 124/124/124 141/141/141 143/143/143
f 124/124/124 143/143/143 123/123/123
f 141/141/141 139/139/139 144/144/144
f 141/141/141 144/144/144 143/143/143
f 123/123/123 143/143/143 145/145/145
f 123/123/123 145/145/145 122/122/122
f 142/142/142 132/132/132 146/146/146
f 132/132/132 33/33/33 146/146/146
f 147/147/147 139/139/139 142/142/142
f 139/139/139 147/147/147 144/144/144
f 143/143/143 144/144/144 148/148/148
f 143/143/143 148/148/148 145/145/145
f 122/122/122 145/145/145 149/149/149
f 121/121/121 122/122/122 149/149/149
f 145/145/145 150/150/150 149/149/149
f 145/145/145 148/148/148 150/150/150
f 121/121/121 149/149/149 151/151/151
f 149/149/149 150/150/150 151/151/151
f 146/146/146 33/33/33 152/152/152
f 152/152/152 33/33/33 28/28/28
f 153/153/153 142/142/142 146/146/146
f 147/147/147 142/142/142 153/153/153
f 144/144/144 147/147/147 154/154/154
f 144/144/144 154/154/154 148/148/148
f 147/147/147 155/155/155 154/154/154
f 155/155/155 147/147/147 153/153/153
f 153/153/153 146/146/146 156/156/156
f 156/156/156 146/146/146 152/152/152
f 152/152/152 28/28/28 157/157/157
f 157/157/157 28/28/28 27/27/27
f 148/148/148 154/154/154 158/158/158
f 154/154/154 155/155/155 158/158/158
f 155/155/155 153/153/153 159/159/159
f 159/159/159 153/153/153 156/156/156
f 156/156/156 152/152/152 160/160/160
f 160/160/160 152/152/152 157/157/157
f 157/157/157 27/27/27 161/161/161
f 161/161/161 27/27/27 24/24/24
f 162/162/162 148/148/148 158/158/158
f 148/148/148 162/162/162 150/150/150
f 155/155/155 163/163/163 158/158/158
f 163/163/163 155/155/155 159/159/159
f 158/158/158 163/163/163 164/164/164
f 162/162/162 158/158/158 164/164/164
f 150/150/150 162/162/162 165/165/165
f 150/150/150 165/165/165 151/151/151
f 160/160/160 157/157/157 166/166/166
f 166/166/166 157/157/157 161/161/161
f 161/161/161 24/24/24 167/167/167
f 24/24/24 31/31/31 167/167/167
f 50/50/50 167/167/167 31/31/31
f 161/161/161 167/167/167 168/168/168
f 166/166/166 161/161/161 168/168/168
f 167/167/167 50/50/50 168/168/168
f 163/163/163 169/169/169 164/164/164
f 169/169/169 163/163/163 159/159/159
f 170/170/170 160/160/160 166/166/166
f 170/170/170 166/166/166 168/168/168
f 171/171/171 170/170/170 168/168/168
f 50/50/50 172/172/172 168/168/168
f 168/168/168 172/172/172 171/171/171
f 50/50/50 47/47/47 172/172/172
f 47/47/47 173/173/173 172/172/172
f 173/173/173 47/47/47 43/43/43
f 172/172/172 174/174/174 171/171/171
f 172/172/172 173/173/173 174/174/174
f 175/175/175 173/173/173 43/43/43
f 67/67/67 175/175/175 43/43/43
f 173/173/173 176/176/176 174/174/174
f 173/173/173 175/175/175 176/176/176
f 177/177/177 160/160/160 170/170/170
f 178/178/178 170/170/170 171/171/171
f 178/178/178 177/177/177 170/170/170
f 177/177/177 179/179/179 160/160/160
f 179/179/179 156/156/156 160/160/160
f 159/159/159 156/156/156 179/179/179
f 180/180/180 159/159/159 179/179/179
f 180/180/180 179/179/179 177/177/177
f 180/180/180 169/169/169 159/159/159
f 181/181/181 180/180/180 177/177/177
f 181/181/181 177/177/177 178/178/178
f 169/169/169 180/180/180 181/181/181
f 182/182/182 181/181/181 178/178/178
f 183/183/183 169/169/169 181/181/181
f 183/183/183 181/181/181 182/182/182
f 184/184/184 178/178/178 171/171/171
f 182/182/182 178/178/178 184/184/184
f 169/169/169 183/183/183 185/185/185
f 164/164/164 169/169/169 185/185/185
f 186/186/186 164/164/164 185/185/185
f 186/186/186 162/162/162 164/164/164
f 162/162/162 186/186/186 165/165/165
f 187/187/187 186/186/186 185/185/185
f 165/165/165 186/186/186 187/187/187
f 185/185/185 183/183/183 188/188/188
f 187/187/187 185/185/185 188/188/188
f 189/189/189 183/183/183 182/182/182
f 183/183/183 189/189/189 188/188/188
f 190/190/190 165/165/165 187/187/187
f 165/165/165 190/190/190 151/151/151
f 191/191/191 187/187/187 188/188/188
f 190/190/190 187/187/187 191/191/191
f 192/192/192 182/182/182 184/184/184
f 189/189/189 182/182/182 192/192/192
f 188/188/188 189/189/189 193/193/193
f 191/191/191 188/188/188 193/193/193
f 194/194/194 189/189/189 192/192/192
f 189/189/189 194/194/194 193/193/193
f 193/193/193 194/194/194 195/195/195
f 196/196/196 192/192/192 184/184/184
f 194/194/194 192/192/192 196/196/196
f 197/197/197 191/191/191 193/193/193
f 197/197/197 193/193/193 195/195/195
f 198/198/198 190/190/190 191/191/191
f 198/198/198 191/191/191 197/197/197
f 151/151/151 190/190/190 199/199/199
f 190/190/190 198/198/198 199/199/199
f 200/200/200 196/196/196 184/184/184
f 200/200/200 184/184/184 171/171/171
f 196/196/196 200/200/200 171/171/171
f 174/174/174 196/196/196 171/171/171
f 201/201/201 194/194/194 196/196/196
f 201/201/201 196/196/196 174/174/174
f 194/194/194 201/201/201 195/195/195
f 201/201/201 202/202/202 195/195/195
f 176/176/176 201/201/201 174/174/174
f 202/202/202 201/201/201 176/176/176
f 203/203/203 198/198/198 197/197/197
f 199/199/199 198/198/198 203/203/203
f 204/204/204 151/151/151 199/199/199
f 204/204/204 121/121/121 151/151/151
f 78/78/78 121/121/121 204/204/204
f 205/205/205 78/78/78 204/204/204
f 78/78/78 205/205/205 56/56/56
f 206/206/206 204/204/204 199/199/199
f 205/205/205 204/204/204 206/206/206
f 56/56/56 205/205/205 207/207/207
f 207/207/207 205/205/205 206/206/206
f 56/56/56 207/207/207 66/66/66
f 206/206/206 199/199/199 208/208/208
f 208/208/208 199/199/199 203/203/203
f 203/203/203 197/197/197 209/209/209
f 209/209/209 197/197/197 195/195/195
f 207/207/207 206/206/206 210/210/210
f 210/210/210 206/206/206 208/208/208
f 66/66/66 207/207/207 211/211/211
f 207/207/207 210/210/210 211/211/211
f 208/208/208 203/203/203 212/212/212
f 212/212/212 203/203/203 209/209/209
f 210/210/210 208/208/208 213/213/213
f 211/211/211 210/210/210 213/213/213
f 213/213/213 208/208/208 212/212/212
f 214/214/214 66/66/66 211/211/211
f 214/214/214 59/59/59 66/66/66
f 59/59/59 214/214/214 67/67/67
f 215/215/215 211/211/211 213/213/213
f 215/215/215 214/214/214 211/211/211
f 216/216/216 213/213/213 212/212/212
f 216/216/216 215/215/215 213/213/213
f 214/214/214 215/215/215 217/217/217
f 67/67/67 214/214/214 217/217/217
f 215/215/215 216/216/216 217/217/217
f 218/218/218 212/212/212 209/209/209
f 218/218/218 216/216/216 212/212/212
f 67/67/67 217/217/217 219/219/219
f 67/67/67 219/219/219 175/175/175
f 216/216/216 220/220/220 217/217/217
f 216/216/216 218/218/218 220/220/220
f 217/217/217 220/220/220 219/219/219
f 221/221/221 218/218/218 209/209/209
f 218/218/218 221/221/221 220/220/220
f 221/221/221 209/209/209 195/195/195
f 220/220/220 222/222/222 219/219/219
f 220/220/220 221/221/221 222/222/222
f 223/223/223 221/221/221 195/195/195
f 221/221/221 223/223/223 222/222/222
f 202/202/202 223/223/223 195/195/195
f 223/223/223 202/202/202 222/222/222
f 219/219/219 224/224/224 175/175/175
f 219/219/219 222/222/222 224/224/224
f 202/202/202 225/225/225 222/222/222
f 222/222/222 225/225/225 224/224/224
f 225/225/225 202/202/202 224/224/224
f 224/224/224 226/226/226 175/175/175
f 202/202/202 226/226/226 224/224/224
f 175/175/175 226/226/226 176/176/176
f 226/226/226 202/202/202 176/176/176
