g snow1_26
v -0.0984229534 -0.176839137 0.641209073
v 0.016324719 -0.176810371 0.642014522
v 0.127764299 -0.176810371 0.641985756
v 0.172092743 -0.170596909 -0.678029585
v -0.0154617383 -0.164383448 -0.694512517
v -0.189122229 -0.174825515 -0.66373287
v 0.25583064 -0.172035211 -0.399747062
v -0.273723108 -0.184203239 -0.390513168
v 0.255801874 -0.177817182 -0.2068421
v -0.275247707 -0.185814136 -0.208769424
v -0.273608044 -0.187540098 -0.0166986773
v 0.256377195 -0.178248672 -0.0099098955
v -0.272284807 -0.188057886 0.175458367
v 0.256434727 -0.171546188 0.180981444
v -0.269321906 -0.185267582 0.3622074
v 0.256060769 -0.170251717 0.361373185
v 0.243432484 -0.177673351 0.555802746
v -0.229107004 -0.178881524 0.561872377
v 0.127764299 -0.176810371 0.641985756
v -0.0984229534 -0.176839137 0.641209073
v 0.0168425074 -0.172179041 0.789670526
v 0.016324719 -0.176810371 0.642014522
v 0.127764299 -0.176810371 0.641985756
v -0.0952874567 -0.172495467 0.786506264
v -0.204742181 -0.176177518 0.76872886
v -0.229107004 -0.178881524 0.561872377
v 0.127562936 -0.169244906 0.778279181
v 0.236356042 -0.181125274 0.755870447
v 0.235032805 -0.112547072 0.897370523
v 0.243432484 -0.177673351 0.555802746
v 0.328925109 -0.151409971 0.526231272
v 0.256060769 -0.170251717 0.361373185
v -0.0958915433 -0.104780245 0.916298567
v 0.0166411453 -0.106851399 0.919779256
v -0.208568062 -0.0964093317 0.907266035
v 0.129375196 -0.10575829 0.907150971
v -0.096754524 -0.0073497193 0.938793598
v 0.0169575715 -0.0137357768 0.942590714
v -0.207158527 0.00122255605 0.925072204
v 0.129892984 -0.0130741582 0.934162268
v -0.100637937 0.0805880181 0.886842158
v -0.20908585 0.0794086111 0.877665796
v 0.0129590941 0.0817961912 0.890725571
v -0.293255239 -0.162082166 0.783284469
v -0.309047786 -0.07811414 0.873408424
v 0.229826154 -0.0173315299 0.928639192
v 0.127476638 0.0823427456 0.886353135
v -0.10590212 0.139098112 0.790792401
v -0.214580161 0.130410773 0.792518363
v 0.0079250398 0.146433449 0.791712914
v -0.112403241 0.162139698 0.654786637
v -0.304186328 0.0646228744 0.850251774
v -0.310773748 0.0964668637 0.794647049
v -0.302057642 0.013965905 0.88284368
v -0.366608601 0.0325487569 0.794819645
v -0.380934082 -0.048945391 0.801781023
v -0.22746734 0.149770307 0.661172694
v -0.289947146 0.139673433 0.426470699
v -0.328148426 0.109843065 0.66778888
v -0.38383945 0.0409484361 0.669716203
v -0.402537366 0.0526562082 0.521024622
v -0.398164931 -0.0459824904 0.673254424
v -0.359215733 -0.11798385 0.79412926
v -0.370865973 -0.124513738 0.678374777
v -0.370865973 -0.124513738 0.678374777
v -0.413986244 -0.0351089331 0.524706673
v -0.386773585 -0.116229123 0.53022975
v -0.300475511 -0.16864082 0.717554102
v -0.386773585 -0.116229123 0.53022975
v -0.422270859 -0.0269393821 0.35590764
v -0.402422302 -0.104521351 0.361574547
v -0.31603793 -0.162024634 0.539204749
v -0.34816958 -0.158371349 0.362725188
v -0.402422302 -0.104521351 0.361574547
v -0.269321906 -0.185267582 0.3622074
v -0.406823504 -0.107139059 0.172783127
v -0.272284807 -0.188057886 0.175458367
v -0.352052993 -0.161219185 0.174307727
v -0.4114836 -0.10872119 -0.018626001
v -0.273608044 -0.187540098 -0.0166986773
v -0.355591214 -0.162024634 -0.017504126
v -0.409843937 -0.102651559 -0.209718703
v -0.275247707 -0.185814136 -0.208769424
v -0.355648746 -0.158112455 -0.209287213
v -0.273723108 -0.184203239 -0.390513168
v -0.408578231 -0.100753001 -0.397474546
v -0.354296743 -0.156386493 -0.395173264
v -0.189122229 -0.174825515 -0.66373287
v -0.311205238 -0.165361493 -0.606891206
v -0.399027911 -0.110849876 -0.568028306
v -0.386572223 -0.113179924 -0.728255064
v -0.302690495 -0.161363015 -0.703199856
v -0.309421744 -0.0963517996 -0.85042437
v -0.167173752 -0.151294907 -0.844671166
v -0.0154617383 -0.164383448 -0.694512517
v -0.248150112 -0.138091301 -0.845332784
v -0.186964777 -0.0728499575 -0.924611948
v -0.038474558 -0.05481366 -0.928840554
v -0.0269969142 -0.136106446 -0.852006502
v 0.113467584 -0.0493481153 -0.921821644
v 0.172092743 -0.170596909 -0.678029585
v 0.119623514 -0.135473593 -0.852035268
v 0.26647407 -0.068793948 -0.861873248
v 0.206611972 -0.116200357 -0.856494002
v 0.288623909 -0.146260852 -0.723105945
v 0.368564691 -0.0888438672 -0.750289839
v 0.379236886 -0.0844426654 -0.573033595
v 0.294463412 -0.149741541 -0.61670042
v 0.25583064 -0.172035211 -0.399747062
v 0.330536007 -0.133805164 -0.398481357
v 0.378230075 -0.0686788839 -0.397330716
v 0.255801874 -0.177817182 -0.2068421
v 0.33890692 -0.143556846 -0.208280402
v 0.394655476 -0.0811345726 -0.209920065
v 0.256377195 -0.178248672 -0.0099098955
v 0.343710846 -0.150633288 -0.012872796
v 0.402738728 -0.0947696683 -0.0160658248
v 0.256434727 -0.171546188 0.180981444
v 0.396784161 -0.0853056462 0.172437935
v 0.339079516 -0.141917183 0.176436412
v 0.340345221 -0.140622712 0.357950028
v 0.39968953 -0.0836947488 0.354469339
v 0.399373104 -0.0950285625 0.51423584
v 0.396582799 -0.103198114 0.657059153
v 0.330593539 -0.161391781 0.699747933
v 0.324121183 -0.15489066 0.767319325
v 0.385680476 -0.102622793 0.770426056
v 0.394367815 -0.0732239158 0.812424452
v 0.330104516 -0.106678803 0.869496245
v 0.384731197 -0.0239764816 0.858651454
v 0.385680476 -0.102622793 0.770426056
v 0.322970542 -0.0224518823 0.905108583
v 0.228733045 0.0755539638 0.880945123
v 0.405241373 -0.0265078917 0.762170207
v 0.396582799 -0.103198114 0.657059153
v 0.322826712 0.0541520414 0.862103376
v 0.12442744 0.148907327 0.790849933
v 0.230286411 0.140450115 0.785067962
v 0.00458818094 0.170251717 0.652888079
v 0.122931606 0.176637775 0.653348335
v -0.0272845744 0.170481845 0.417121741
v 0.232731523 0.167288816 0.653146973
v 0.326566295 0.107081527 0.77502862
v 0.385479114 0.018626001 0.828821086
v 0.390800828 0.0488303269 0.764183828
v 0.331945542 0.129749154 0.652168928
v 0.240757244 0.182506044 0.419739449
v 0.399631998 0.0637598937 0.650586797
v -0.0278311289 0.171143464 0.152589378
v 0.419049064 -0.0206971548 0.651277182
v 0.340201391 0.14758409 0.474394896
v 0.428915811 -0.0100824916 0.510352427
v 0.399373104 -0.0950285625 0.51423584
v 0.39968953 -0.0836947488 0.354469339
v 0.409182318 0.0790058868 0.509403148
v 0.347018939 0.150863416 0.37371381
v 0.416891613 0.0849029218 0.345062849
v 0.425694016 -0.000906129777 0.349118858
v 0.421465411 -0.00171157847 0.167749073
v 0.396784161 -0.0853056462 0.172437935
v 0.419796981 -0.00706205906 -0.0213012413
v 0.402738728 -0.0947696683 -0.0160658248
v 0.394655476 -0.0811345726 -0.209920065
v 0.409326148 0.0845001975 0.163721829
v 0.242828397 0.188057886 0.154804362
v 0.340834243 0.154344105 0.158601477
v 0.331916776 0.146030724 -0.065255727
v 0.238197067 0.178823992 -0.124197312
v 0.397848504 0.0802428258 -0.0257887411
v 0.396467735 0.0846152616 -0.215356844
v 0.413784882 0.00130885412 -0.213084328
v 0.393130876 0.00944963911 -0.396237607
v 0.378230075 -0.0686788839 -0.397330716
v 0.331629115 0.147152599 -0.180262294
v 0.220218302 0.170827038 -0.454632637
v -0.0266517219 0.174767983 -0.125721911
v 0.381509402 0.0884411429 -0.392929514
v 0.369111246 0.0989982739 -0.557586239
v 0.396525267 0.00893185066 -0.567337922
v 0.379236886 -0.0844426654 -0.573033595
v 0.368564691 -0.0888438672 -0.750289839
v 0.316440654 0.144621189 -0.416431356
v 0.383666854 0.0208697509 -0.744651698
v 0.305941055 0.149108689 -0.515185119
v 0.284826793 0.156702919 -0.669342245
v 0.270673909 0.038417026 -0.865353937
v 0.26647407 -0.068793948 -0.861873248
v 0.113467584 -0.0493481153 -0.921821644
v 0.346702512 0.114129203 -0.714361074
v 0.238225833 0.128080725 -0.819213234
v 0.102967985 0.0494344134 -0.930652813
v 0.18253481 0.168525756 -0.737028701
v -0.0503836922 0.0426743976 -0.939541515
v -0.038474558 -0.05481366 -0.928840554
v -0.20177928 0.0289242378 -0.942590714
v -0.204742181 0.123391863 -0.900247125
v -0.186964777 -0.0728499575 -0.924611948
v -0.309421744 -0.0963517996 -0.85042437
v -0.0623215925 0.134927039 -0.896996564
v 0.0835509187 0.136336574 -0.877665796
v 0.0574889003 0.172207807 -0.779401056
v -0.336317977 0.00539362963 -0.862419803
v -0.418186084 -0.0143973953 -0.727248253
v -0.386572223 -0.113179924 -0.728255064
v -0.0835796847 0.176580242 -0.798242802
v -0.321129516 0.101443386 -0.830949772
v -0.421407878 -0.0177630202 -0.56575579
v -0.399027911 -0.110849876 -0.568028306
v -0.408578231 -0.100753001 -0.397474546
v -0.392440492 0.0811345726 -0.713814519
v 0.0293844942 0.175630964 -0.663042486
v -0.0882397807 0.182074553 -0.678346011
v -0.199075274 0.167921669 -0.80296043
v -0.314196905 0.137976237 -0.770310992
v -0.307235527 0.150144266 -0.692038639
v -0.274097066 0.149770307 -0.471777188
v -0.204253158 0.173214618 -0.684990963
v -0.397675908 0.0741156626 -0.562476463
v 0.115251078 0.176436412 -0.640835115
v -0.0196615779 0.178507566 -0.463377508
v 0.2038792 0.171488656 -0.612327984
v -0.42566525 -0.0175616581 -0.39577735
v -0.4040332 0.0622352944 -0.393878793
v -0.285200752 0.13875292 -0.121637135
v -0.426787125 -0.0213300073 -0.210524152
v -0.409843937 -0.102651559 -0.209718703
v -0.405529033 0.0588696695 -0.211415898
v -0.291471745 0.139270708 0.159320628
v -0.403889369 0.0530589325 -0.0237751194
v -0.428915811 -0.0282626192 -0.0211574111
v -0.4114836 -0.10872119 -0.018626001
v -0.406823504 -0.107139059 0.172783127
v -0.409009722 0.0556766408 0.165965579
v -0.426729593 -0.0267092539 0.169561332
v -0.411742494 0.0543246376 0.350442096
vt 0.389020608 0.178048868
vt 0.388221473 0.154074807
vt 0.389020608 0.130899881
vt 0.127703339 0.130899881
vt 0.125305933 0.168459244
vt 0.132498152 0.202822065
vt 0.18284368 0.110921496
vt 0.188437628 0.218804772
vt 0.221202179 0.109323226
vt 0.22439872 0.218804772
vt 0.262757218 0.217206502
vt 0.261158948 0.107724955
vt 0.301115716 0.216407366
vt 0.29871831 0.106126684
vt 0.338675079 0.215608231
vt 0.334679402 0.104528413
vt 0.374636171 0.106925819
vt 0.377033577 0.206018606
vt 0.389020608 0.130899881
vt 0.389020608 0.178048868
vt 0.413793805 0.154074807
vt 0.388221473 0.154074807
vt 0.389020608 0.130899881
vt 0.41459294 0.175651462
vt 0.416191211 0.198027253
vt 0.377033577 0.206018606
vt 0.413793805 0.132498152
vt 0.412994669 0.110122361
vt 0.439366137 0.114917173
vt 0.374636171 0.106925819
vt 0.37143963 0.0877465703
vt 0.334679402 0.104528413
vt 0.439366137 0.17245492
vt 0.439366137 0.153275671
vt 0.442562678 0.19163417
vt 0.439366137 0.134096422
vt 0.456947115 0.171655785
vt 0.45614798 0.153275671
vt 0.459344521 0.189236763
vt 0.456947115 0.134895558
vt 0.475327229 0.171655785
vt 0.475327229 0.189236763
vt 0.475327229 0.153275671
vt 0.426579971 0.21400996
vt 0.448156626 0.210014283
vt 0.456947115 0.118113715
vt 0.476126364 0.134895558
vt 0.495305613 0.174053191
vt 0.492109072 0.192433305
vt 0.496903884 0.154873942
vt 0.519279675 0.178048868
vt 0.474528094 0.205219471
vt 0.484916854 0.208416013
vt 0.464139334 0.205219471
vt 0.474528094 0.219603908
vt 0.459344521 0.225996991
vt 0.512886592 0.199625523
vt 0.552044225 0.219603908
vt 0.504096103 0.218005637
vt 0.494506478 0.232390074
vt 0.522476216 0.242778834
vt 0.480921177 0.244377105
vt 0.442562678 0.228394397
vt 0.411396399 0.23478748
vt 0.465737604 0.253167594
vt 0.512886592 0.257962406
vt 0.500899561 0.271547707
vt 0.413793805 0.218005637
vt 0.377832713 0.241180563
vt 0.550445955 0.266752895
vt 0.543253736 0.281936467
vt 0.376234442 0.22439872
vt 0.34027335 0.232390074
vt 0.341871621 0.247573646
vt 0.338675079 0.215608231
vt 0.302713987 0.249171917
vt 0.301115716 0.216407366
vt 0.301914852 0.233988345
vt 0.263556354 0.249971052
vt 0.262757218 0.217206502
vt 0.263556354 0.23478748
vt 0.225197855 0.251569323
vt 0.22439872 0.218804772
vt 0.22439872 0.235586615
vt 0.188437628 0.218804772
vt 0.186839357 0.251569323
vt 0.186839357 0.236385751
vt 0.132498152 0.202822065
vt 0.144485182 0.227595262
vt 0.151677401 0.248372781
vt 0.11891285 0.24517624
vt 0.125305933 0.225996991
vt 0.0925413826 0.229992668
vt 0.0965370595 0.199625523
vt 0.125305933 0.168459244
vt 0.0965370595 0.215608231
vt 0.0741612689 0.205219471
vt 0.070165592 0.174053191
vt 0.093340518 0.171655785
vt 0.070165592 0.142886911
vt 0.127703339 0.130899881
vt 0.0925413826 0.142886911
vt 0.0845500288 0.110921496
vt 0.0909431118 0.125305933
vt 0.117314579 0.107724955
vt 0.10852409 0.0893448411
vt 0.144485182 0.082951758
vt 0.138092099 0.105327549
vt 0.18284368 0.110921496
vt 0.182044545 0.0941396533
vt 0.180446274 0.0773578104
vt 0.221202179 0.109323226
vt 0.220403043 0.0917422472
vt 0.218804772 0.0749604043
vt 0.261158948 0.107724955
vt 0.259560677 0.0893448411
vt 0.258761541 0.0733621335
vt 0.29871831 0.106126684
vt 0.297919175 0.0717638627
vt 0.297919175 0.0877465703
vt 0.335478538 0.0861482996
vt 0.335478538 0.0693664566
vt 0.37143963 0.070165592
vt 0.405003316 0.0725629981
vt 0.408998993 0.0901439765
vt 0.422584294 0.093340518
vt 0.43537046 0.0789560812
vt 0.452152303 0.0805543519
vt 0.443361814 0.0973361949
vt 0.460143657 0.0893448411
vt 0.457746251 0.0677681859
vt 0.457746251 0.102930143
vt 0.475327229 0.118113715
vt 0.471331552 0.0749604043
vt 0.482519447 0.0501872075
vt 0.473728958 0.102131007
vt 0.496903884 0.134895558
vt 0.495305613 0.116515444
vt 0.521677081 0.156472213
vt 0.521677081 0.134096422
vt 0.563232121 0.166061837
vt 0.518480539 0.113318902
vt 0.491309937 0.0989344656
vt 0.470532417 0.0893448411
vt 0.483318583 0.0845500288
vt 0.512886592 0.0941396533
vt 0.560834715 0.110122361
vt 0.504895238 0.0773578104
vt 0.610381108 0.168459244
vt 0.495305613 0.0629733736
vt 0.546450278 0.0893448411
vt 0.526471893 0.0549820198
vt 0.517681404 0.0382001768
vt 0.557638173 0.0342044999
vt 0.533664112 0.0717638627
vt 0.566428662 0.0877465703
vt 0.568026933 0.0677681859
vt 0.563232121 0.0509863429
vt 0.60318889 0.0501872075
vt 0.600791483 0.0326062292
vt 0.644743929 0.0517854783
vt 0.643944794 0.0334053646
vt 0.68789724 0.040597583
vt 0.605586296 0.0685673212
vt 0.610381108 0.110122361
vt 0.608782837 0.0885457057
vt 0.652735283 0.0909431118
vt 0.663923178 0.113318902
vt 0.645543065 0.0709647274
vt 0.684700698 0.0749604043
vt 0.686298969 0.0573794259
vt 0.725456603 0.0653707797
vt 0.729452279 0.0493880721
vt 0.676709344 0.093340518
vt 0.727054873 0.121310256
vt 0.661525772 0.17085665
vt 0.72066179 0.0813534873
vt 0.753426341 0.0909431118
vt 0.761417695 0.0733621335
vt 0.770208184 0.0565802905
vt 0.809365817 0.0749604043
vt 0.723059196 0.099733601
vt 0.79498138 0.0901439765
vt 0.74143931 0.105327549
vt 0.770208184 0.114917173
vt 0.816558036 0.115716309
vt 0.833339879 0.104528413
vt 0.846126045 0.144485182
vt 0.782195214 0.103729278
vt 0.798977057 0.126105068
vt 0.827745931 0.150878265
vt 0.780596944 0.135694693
vt 0.830942473 0.18284368
vt 0.850121722 0.18284368
vt 0.825348525 0.21400996
vt 0.807767547 0.208416013
vt 0.844527774 0.222001314
vt 0.825348525 0.254765864
vt 0.810164953 0.18284368
vt 0.808566682 0.155673078
vt 0.786990027 0.158869619
vt 0.810164953 0.241979698
vt 0.784592621 0.261958083
vt 0.795780516 0.27794079
vt 0.788588297 0.185241087
vt 0.795780516 0.229992668
vt 0.751028935 0.271547707
vt 0.757422018 0.289927821
vt 0.716666113 0.291526092
vt 0.775802131 0.245975375
vt 0.763815101 0.162865296
vt 0.765413371 0.185241087
vt 0.787789162 0.206018606
vt 0.78299435 0.227595262
vt 0.768609913 0.226796126
vt 0.726255738 0.22439872
vt 0.766212507 0.207616877
vt 0.747033258 0.252368458
vt 0.760618559 0.146083453
vt 0.725456603 0.17085665
vt 0.757422018 0.128502475
vt 0.714268707 0.273945114
vt 0.712670436 0.257163271
vt 0.658329231 0.227595262
vt 0.674311938 0.275543384
vt 0.674311938 0.292325227
vt 0.675111074 0.258761541
vt 0.60318889 0.225996991
vt 0.63595344 0.257962406
vt 0.633556034 0.275543384
vt 0.631158628 0.292325227
vt 0.587206182 0.28832955
vt 0.595996671 0.254765864
vt 0.591201859 0.272346843
vt 0.557638173 0.250770188
vn 0.0195487329 -0.999795735 -0.00513181787
vn 0.0195487329 -0.999795735 -0.00513181787
vn 0.0195487329 -0.999795735 -0.00513181787
vn 0.0195487329 -0.999795735 -0.00513181787
vn 0.0195487329 -0.999795735 -0.00513181787
vn 0.0195487329 -0.999795735 -0.00513181787
vn 0.0195487329 -0.999795735 -0.00513181787
vn 0.0195487329 -0.999795735 -0.00513181787
vn 0.0195487329 -0.999795735 -0.00513181787
vn 0.0195487329 -0.999795735 -0.00513181787
vn 0.0195487329 -0.999795735 -0.00513181787
vn 0.0195487329 -0.999795735 -0.00513181787
vn 0.0195487329 -0.999795735 -0.00513181787
vn 0.0195487329 -0.999795735 -0.00513181787
vn 0.0195487329 -0.999795735 -0.00513181787
vn 0.0195487329 -0.999795735 -0.00513181787
vn 0.0195487329 -0.999795735 -0.00513181787
vn 0.0195487329 -0.999795735 -0.00513181787
vn 0.0195487329 -0.999795735 -0.00513181787
vn 0.0117067568 -0.999795735 0.016475447
vn 0.0195487329 -0.968427831 0.248526424
vn 0.0117067568 -0.999795735 0.016475447
vn -0.0274983399 -0.999621849 -0
vn -0.0196611472 -0.968427831 0.248517556
vn -0.0745549793 -0.968427831 0.237884618
vn -0.129401637 -0.991592263 -0
vn 0.00386478083 -0.968427831 0.249264117
vn 0.066600589 -0.976269807 0.206062189
vn 0.113652445 -0.717484598 0.687240113
vn 0.18400801 -0.982924744 -0
vn 0.450857414 -0.890008071 -0.0679207379
vn 0.317543821 -0.944901903 -0.0795381392
vn -0.0667130033 -0.678274718 0.731773723
vn 0.0273907089 -0.686116694 0.726975674
vn -0.184342644 -0.61553891 0.766243851
vn 0.0509166369 -0.709642622 0.702719606
vn -0.0667130033 0.152974739 0.985975712
vn 0.0195487329 0.137290787 0.990337865
vn -0.215710548 0.152974739 0.96440017
vn 0.074442565 0.121606835 0.989782846
vn -0.0510290513 0.701913061 0.710432327
vn -0.160816716 0.701913061 0.693870333
vn -0.00397719519 0.686229109 0.727374589
vn -0.34902414 -0.827272263 0.440230341
vn -0.474495756 -0.427331486 0.769572335
vn 0.160704301 0.0823969553 0.983557253
vn 0.0509166369 0.678387133 0.732938193
vn -0.0667130033 0.945014317 0.32015202
vn -0.184342644 0.937172341 0.296185403
vn -0.0353450993 0.937172341 0.347071645
vn -0.0980809074 0.992066173 0.0786437763
vn -0.450969828 0.639177252 0.622959593
vn -0.513705636 0.811700725 0.277936058
vn -0.529389588 0.19218462 0.826324232
vn -0.874436533 0.356866116 0.328644679
vn -0.913646413 -0.097968493 0.39452808
vn -0.176500668 0.984224197 0.0122574052
vn -0.261832678 0.965113283 -0
vn -0.568599468 0.819542701 0.0710239821
vn -0.858752581 0.498021684 0.120492351
vn -0.843068629 0.529389588 0.0947731542
vn -0.992066173 -0.074442565 0.101306527
vn -0.748964917 -0.568487054 0.340402736
vn -0.780332821 -0.623380886 0.049769063
vn -0.780332821 -0.623380886 0.049769063
vn -0.992066173 -0.074442565 0.101306527
vn -0.81165453 -0.58413776 -0
vn -0.317656236 -0.944901903 0.0790879888
vn -0.81165453 -0.58413776 -0
vn -0.998706026 -0.0508554232 -0
vn -0.858223224 -0.51327663 -0
vn -0.380392044 -0.921375975 0.0798010407
vn -0.489027253 -0.872268506 -0
vn -0.858223224 -0.51327663 -0
vn -0.286288332 -0.952743879 0.101578012
vn -0.874436533 -0.482225318 0.0530988949
vn -0.317656236 -0.944901903 -0.0790879888
vn -0.513408865 -0.858144124 -0
vn -0.874436533 -0.482225318 0.0530988949
vn -0.3092418 -0.950983443 -0
vn -0.50586366 -0.858640167 -0.0826983771
vn -0.882278509 -0.466541366 -0.0626401355
vn -0.317656236 -0.944901903 -0.0790879888
vn -0.521547612 -0.850798191 -0.0642691766
vn -0.247078452 -0.968427831 -0.0331628589
vn -0.866594557 -0.49790927 -0.0331697578
vn -0.458211336 -0.888843277 -0
vn -0.0510290513 -0.991953759 -0.115861021
vn -0.34902414 -0.937059927 -0.0100420835
vn -0.827384677 -0.560645078 -0.0333420604
vn -0.780332821 -0.552803102 -0.292385737
vn -0.325498212 -0.929217951 -0.174942602
vn -0.58428342 -0.490067294 -0.646874742
vn -0.00397719519 -0.929217951 -0.369510733
vn 0.0273907089 -0.984111783 -0.175424479
vn -0.239236476 -0.882166095 -0.405646262
vn -0.168658692 -0.411647534 -0.895600666
vn 0.0430746609 -0.41948951 -0.906737627
vn 0.0352326849 -0.913533999 -0.405233625
vn 0.176388253 -0.309701845 -0.93432968
vn 0.121494421 -0.976269807 -0.179266198
vn 0.0587586129 -0.905692023 -0.419844478
vn 0.53711915 -0.333227774 -0.774895006
vn 0.239124061 -0.819430287 -0.520916201
vn 0.388121606 -0.890008071 -0.239263983
vn 0.819430287 -0.435173462 -0.373038957
vn 0.874324119 -0.482225318 -0.0549188351
vn 0.450857414 -0.890008071 -0.0679207379
vn 0.34106975 -0.937059927 -0.0747671026
vn 0.551973815 -0.833861444 -0
vn 0.890008071 -0.450857414 -0.0679207379
vn 0.378756569 -0.925496333 -0
vn 0.568487054 -0.819430287 -0.0731879429
vn 0.890008071 -0.443015438 -0.107809814
vn 0.332583128 -0.943073944 -0
vn 0.521435198 -0.850798191 0.0651749439
vn 0.874324119 -0.482225318 -0.0549188351
vn 0.325385797 -0.944901903 0.0358396001
vn 0.866482143 -0.49790927 0.0359868801
vn 0.513326122 -0.858193622 -0
vn 0.505751246 -0.858640167 -0.0833831015
vn 0.849105112 -0.528223919 -0
vn 0.827272263 -0.560645078 -0.0360236061
vn 0.827272263 -0.560645078 0.0360236061
vn 0.426715276 -0.90438602 -0
vn 0.411647534 -0.858640167 0.305423268
vn 0.819430287 -0.544961126 0.177627072
vn 0.827272263 -0.427331486 0.364703174
vn 0.388121606 -0.670432742 0.632361888
vn 0.788062382 0.00397719519 0.61558254
vn 0.819430287 -0.544961126 0.177627072
vn 0.411647534 0.0431870753 0.910319276
vn 0.184230229 0.670545157 0.71862954
vn 0.991953759 -0.0117067568 0.126058289
vn 0.827272263 -0.560645078 0.0360236061
vn 0.411647534 0.639177252 0.649614307
vn 0.0352326849 0.929330365 0.367564594
vn 0.207756157 0.913646413 0.349410376
vn -0.0588710273 0.992066173 0.111080647
vn -0.00397719519 0.999908149 0.0129566584
vn -0.082126157 0.996621942 -0
vn 0.129336397 0.984224197 0.120726244
vn 0.474383342 0.819542701 0.321419051
vn 0.788062382 0.443127852 0.427311816
vn 0.827272263 0.513705636 0.227435975
vn 0.490067294 0.858752581 0.149592955
vn 0.0508554232 0.998706026 -0
vn 0.850798191 0.513705636 0.110675012
vn -0.082126157 0.996621942 -0
vn 0.999379653 -0.0352180222 -0
vn 0.49790927 0.858752581 0.12095604
vn 0.998277468 -0.0586693835 -0
vn 0.827272263 -0.560645078 -0.0360236061
vn 0.849105112 -0.528223919 -0
vn 0.866482143 0.490179708 0.0945121697
vn 0.504047809 0.863675753 -0
vn 0.882166095 0.46665378 -0.0633816294
vn 0.996630352 -0.0820240257 -0
vn 0.998705735 -0.0508611265 -0
vn 0.866482143 -0.49790927 0.0359868801
vn 0.999795735 -0.0117067568 -0.016475447
vn 0.874324119 -0.482225318 -0.0549188351
vn 0.890008071 -0.443015438 -0.107809814
vn 0.874324119 0.482337732 -0.0539226086
vn 0.0508554232 0.998706026 -0
vn 0.504047809 0.863675753 -0
vn 0.521435198 0.850910605 -0.0636904766
vn 0.0508554232 0.998706026 -0
vn 0.874324119 0.474495756 -0.102034862
vn 0.866482143 0.490179708 -0.0945121697
vn 0.999795735 -0.00386478083 -0.0198381446
vn 0.999795735 0.00397719519 -0.0198159135
vn 0.890008071 -0.450857414 -0.0679207379
vn 0.482225318 0.874436533 -0.0530988949
vn 0.0742439311 0.997240111 -0
vn -0.0743554261 0.997231804 -0
vn 0.858640167 0.50586366 -0.0826983771
vn 0.842956215 0.537231564 -0.0284089188
vn 0.998700025 0.0509731268 -0
vn 0.874324119 -0.482225318 -0.0549188351
vn 0.819430287 -0.435173462 -0.373038957
vn 0.450857414 0.890120485 -0.0664312774
vn 0.913533999 0.145132763 -0.379989624
vn 0.435173462 0.897962461 -0.0654788271
vn 0.364595678 0.921488389 -0.133899741
vn 0.552803102 0.239236476 -0.798232196
vn 0.53711915 -0.333227774 -0.774895006
vn 0.176388253 -0.309701845 -0.93432968
vn 0.725326574 0.631335276 -0.274439664
vn 0.403805558 0.717597013 -0.567446561
vn 0.223440109 0.239236476 -0.944902337
vn 0.168546277 0.968540245 -0.183089994
vn 0.0352326849 0.176500668 -0.983669748
vn 0.0430746609 -0.41948951 -0.906737627
vn -0.27060438 0.0980809074 -0.957681265
vn -0.254920428 0.631335276 -0.732414735
vn -0.168658692 -0.411647534 -0.895600666
vn -0.58428342 -0.490067294 -0.646874742
vn 0.0195487329 0.725438989 -0.688008809
vn 0.168546277 0.748964917 -0.640814877
vn 0.074442565 0.976382221 -0.202820272
vn -0.701913061 0.0275031232 -0.711731434
vn -0.960698269 -0.0117067568 -0.277347774
vn -0.780332821 -0.552803102 -0.292385737
vn -0.00397719519 0.976382221 -0.21601375
vn -0.639177252 0.529389588 -0.557852224
vn -0.999908149 -0.00386478083 -0.0129906331
vn -0.827384677 -0.560645078 -0.0333420604
vn -0.866594557 -0.49790927 -0.0331697578
vn -0.827384677 0.54507354 -0.135386233
vn 0.0352140678 0.999379792 -0
vn -0.058774654 0.998271276 -0
vn -0.176500668 0.952856293 -0.246804374
vn -0.450969828 0.866594557 -0.213635409
vn -0.46665378 0.882278509 -0.0617971038
vn -0.254531973 0.967064359 -0
vn -0.129387219 0.991594145 -0
vn -0.794795749 0.606877019 -0
vn 0.0430387013 0.999073406 -0
vn -0.058774654 0.998271276 -0
vn 0.097968493 0.992066173 -0.0787837694
vn -0.99980674 0.0196591532 -0
vn -0.733280965 0.678387133 0.0457156994
vn -0.247078452 0.968540245 0.0296990266
vn -0.999375832 0.0353262827 -0
vn -0.882278509 -0.466541366 -0.0626401355
vn -0.733280965 0.678387133 0.0457156994
vn -0.278380452 0.960470887 -0
vn -0.763382028 0.645947272 -0
vn -0.99980674 0.0196591532 -0
vn -0.874436533 -0.482225318 0.0530988949
vn -0.874436533 -0.482225318 0.0530988949
vn -0.748918503 0.662662113 -0
vn -0.999908149 -0.0117067568 0.00682970884
vn -0.788077844 0.615575594 -0
g snow1_26_0
f 3/3/3 2/2/2 1/1/1
f 6/6/6 5/5/5 4/4/4
f 4/4/4 7/7/7 6/6/6
f 7/7/7 8/8/8 6/6/6
f 7/7/7 9/9/9 8/8/8
f 9/9/9 10/10/10 8/8/8
f 9/9/9 11/11/11 10/10/10
f 9/9/9 12/12/12 11/11/11
f 12/12/12 13/13/13 11/11/11
f 12/12/12 14/14/14 13/13/13
f 14/14/14 15/15/15 13/13/13
f 14/14/14 16/16/16 15/15/15
f 16/16/16 17/17/17 15/15/15
f 17/17/17 18/18/18 15/15/15
f 17/17/17 19/19/19 18/18/18
f 19/19/19 20/20/20 18/18/18
f 20/20/20 22/22/22 21/21/21
f 22/22/22 23/23/23 21/21/21
f 24/24/24 20/20/20 21/21/21
f 20/20/20 24/24/24 25/25/25
f 26/26/26 20/20/20 25/25/25
f 23/23/23 27/27/27 21/21/21
f 27/27/27 23/23/23 28/28/28
f 28/28/28 29/29/29 27/27/27
f 23/23/23 30/30/30 28/28/28
f 30/30/30 31/31/31 28/28/28
f 30/30/30 32/32/32 31/31/31
f 33/33/33 24/24/24 21/21/21
f 34/34/34 21/21/21 27/27/27
f 34/34/34 33/33/33 21/21/21
f 35/35/35 25/25/25 24/24/24
f 33/33/33 35/35/35 24/24/24
f 29/29/29 36/36/36 27/27/27
f 36/36/36 34/34/34 27/27/27
f 37/37/37 33/33/33 34/34/34
f 38/38/38 34/34/34 36/36/36
f 38/38/38 37/37/37 34/34/34
f 39/39/39 35/35/35 33/33/33
f 37/37/37 39/39/39 33/33/33
f 40/40/40 36/36/36 29/29/29
f 40/40/40 38/38/38 36/36/36
f 41/41/41 37/37/37 38/38/38
f 42/42/42 39/39/39 37/37/37
f 41/41/41 42/42/42 37/37/37
f 43/43/43 38/38/38 40/40/40
f 43/43/43 41/41/41 38/38/38
f 25/25/25 35/35/35 44/44/44
f 45/45/45 35/35/35 39/39/39
f 35/35/35 45/45/45 44/44/44
f 46/46/46 40/40/40 29/29/29
f 47/47/47 43/43/43 40/40/40
f 47/47/47 40/40/40 46/46/46
f 41/41/41 43/43/43 48/48/48
f 42/42/42 41/41/41 49/49/49
f 41/41/41 48/48/48 49/49/49
f 43/43/43 50/50/50 48/48/48
f 43/43/43 47/47/47 50/50/50
f 49/49/49 48/48/48 51/51/51
f 48/48/48 50/50/50 51/51/51
f 42/42/42 52/52/52 39/39/39
f 42/42/42 49/49/49 53/53/53
f 52/52/52 42/42/42 53/53/53
f 52/52/52 54/54/54 39/39/39
f 54/54/54 45/45/45 39/39/39
f 54/54/54 52/52/52 55/55/55
f 45/45/45 54/54/54 55/55/55
f 52/52/52 53/53/53 55/55/55
f 56/56/56 45/45/45 55/55/55
f 45/45/45 56/56/56 44/44/44
f 57/57/57 49/49/49 51/51/51
f 49/49/49 57/57/57 53/53/53
f 57/57/57 51/51/51 58/58/58
f 59/59/59 57/57/57 58/58/58
f 57/57/57 59/59/59 53/53/53
f 55/55/55 53/53/53 60/60/60
f 53/53/53 59/59/59 60/60/60
f 56/56/56 55/55/55 60/60/60
f 59/59/59 58/58/58 61/61/61
f 60/60/60 59/59/59 61/61/61
f 62/62/62 56/56/56 60/60/60
f 56/56/56 63/63/63 44/44/44
f 63/63/63 56/56/56 62/62/62
f 63/63/63 64/64/64 44/44/44
f 65/65/65 63/63/63 62/62/62
f 62/62/62 60/60/60 66/66/66
f 65/65/65 62/62/62 66/66/66
f 60/60/60 61/61/61 66/66/66
f 67/67/67 65/65/65 66/66/66
f 64/64/64 68/68/68 44/44/44
f 68/68/68 25/25/25 44/44/44
f 68/68/68 64/64/64 69/69/69
f 67/67/67 66/66/66 70/70/70
f 66/66/66 61/61/61 70/70/70
f 71/71/71 67/67/67 70/70/70
f 25/25/25 68/68/68 72/72/72
f 72/72/72 68/68/68 69/69/69
f 72/72/72 69/69/69 73/73/73
f 26/26/26 25/25/25 72/72/72
f 26/26/26 72/72/72 73/73/73
f 69/69/69 74/74/74 73/73/73
f 75/75/75 26/26/26 73/73/73
f 74/74/74 76/76/76 73/73/73
f 77/77/77 75/75/75 73/73/73
f 76/76/76 78/78/78 73/73/73
f 78/78/78 77/77/77 73/73/73
f 76/76/76 79/79/79 78/78/78
f 80/80/80 77/77/77 78/78/78
f 79/79/79 81/81/81 78/78/78
f 81/81/81 80/80/80 78/78/78
f 81/81/81 79/79/79 82/82/82
f 83/83/83 80/80/80 81/81/81
f 84/84/84 81/81/81 82/82/82
f 84/84/84 83/83/83 81/81/81
f 85/85/85 83/83/83 84/84/84
f 84/84/84 82/82/82 86/86/86
f 87/87/87 85/85/85 84/84/84
f 87/87/87 84/84/84 86/86/86
f 88/88/88 85/85/85 87/87/87
f 89/89/89 87/87/87 86/86/86
f 89/89/89 88/88/88 87/87/87
f 90/90/90 89/89/89 86/86/86
f 90/90/90 91/91/91 89/89/89
f 91/91/91 92/92/92 89/89/89
f 92/92/92 88/88/88 89/89/89
f 92/92/92 91/91/91 93/93/93
f 94/94/94 88/88/88 92/92/92
f 88/88/88 94/94/94 95/95/95
f 96/96/96 92/92/92 93/93/93
f 96/96/96 94/94/94 92/92/92
f 96/96/96 93/93/93 97/97/97
f 94/94/94 96/96/96 97/97/97
f 94/94/94 97/97/97 98/98/98
f 94/94/94 99/99/99 95/95/95
f 99/99/99 94/94/94 98/98/98
f 99/99/99 98/98/98 100/100/100
f 95/95/95 99/99/99 101/101/101
f 102/102/102 99/99/99 100/100/100
f 99/99/99 102/102/102 101/101/101
f 102/102/102 100/100/100 103/103/103
f 104/104/104 102/102/102 103/103/103
f 102/102/102 104/104/104 101/101/101
f 105/105/105 104/104/104 103/103/103
f 104/104/104 105/105/105 101/101/101
f 106/106/106 105/105/105 103/103/103
f 105/105/105 106/106/106 107/107/107
f 101/101/101 105/105/105 108/108/108
f 108/108/108 105/105/105 107/107/107
f 109/109/109 101/101/101 108/108/108
f 110/110/110 108/108/108 107/107/107
f 110/110/110 109/109/109 108/108/108
f 111/111/111 110/110/110 107/107/107
f 112/112/112 109/109/109 110/110/110
f 113/113/113 110/110/110 111/111/111
f 113/113/113 112/112/112 110/110/110
f 114/114/114 113/113/113 111/111/111
f 115/115/115 112/112/112 113/113/113
f 116/116/116 113/113/113 114/114/114
f 116/116/116 115/115/115 113/113/113
f 117/117/117 116/116/116 114/114/114
f 118/118/118 115/115/115 116/116/116
f 117/117/117 119/119/119 116/116/116
f 120/120/120 118/118/118 116/116/116
f 119/119/119 120/120/120 116/116/116
f 32/32/32 118/118/118 120/120/120
f 121/121/121 120/120/120 119/119/119
f 121/121/121 32/32/32 120/120/120
f 122/122/122 121/121/121 119/119/119
f 32/32/32 121/121/121 31/31/31
f 121/121/121 122/122/122 31/31/31
f 122/122/122 123/123/123 31/31/31
f 123/123/123 124/124/124 31/31/31
f 124/124/124 125/125/125 31/31/31
f 31/31/31 125/125/125 28/28/28
f 125/125/125 124/124/124 126/126/126
f 125/125/125 126/126/126 28/28/28
f 124/124/124 127/127/127 126/126/126
f 29/29/29 28/28/28 126/126/126
f 127/127/127 128/128/128 126/126/126
f 129/129/129 29/29/29 126/126/126
f 128/128/128 129/129/129 126/126/126
f 129/129/129 128/128/128 130/130/130
f 130/130/130 128/128/128 131/131/131
f 129/129/129 132/132/132 29/29/29
f 132/132/132 129/129/129 130/130/130
f 132/132/132 46/46/46 29/29/29
f 133/133/133 46/46/46 132/132/132
f 133/133/133 47/47/47 46/46/46
f 134/134/134 130/130/130 131/131/131
f 134/134/134 131/131/131 135/135/135
f 136/136/136 132/132/132 130/130/130
f 136/136/136 133/133/133 132/132/132
f 47/47/47 133/133/133 137/137/137
f 47/47/47 137/137/137 50/50/50
f 133/133/133 136/136/136 138/138/138
f 133/133/133 138/138/138 137/137/137
f 50/50/50 137/137/137 139/139/139
f 50/50/50 139/139/139 51/51/51
f 137/137/137 140/140/140 139/139/139
f 137/137/137 138/138/138 140/140/140
f 51/51/51 139/139/139 141/141/141
f 139/139/139 140/140/140 141/141/141
f 51/51/51 141/141/141 58/58/58
f 138/138/138 142/142/142 140/140/140
f 140/140/140 142/142/142 141/141/141
f 136/136/136 143/143/143 138/138/138
f 138/138/138 143/143/143 142/142/142
f 144/144/144 136/136/136 130/130/130
f 136/136/136 144/144/144 143/143/143
f 145/145/145 144/144/144 130/130/130
f 144/144/144 145/145/145 143/143/143
f 134/134/134 145/145/145 130/130/130
f 143/143/143 146/146/146 142/142/142
f 143/143/143 145/145/145 146/146/146
f 142/142/142 147/147/147 141/141/141
f 142/142/142 146/146/146 147/147/147
f 145/145/145 134/134/134 148/148/148
f 145/145/145 148/148/148 146/146/146
f 58/58/58 141/141/141 149/149/149
f 141/141/141 147/147/147 149/149/149
f 134/134/134 150/150/150 148/148/148
f 150/150/150 134/134/134 135/135/135
f 146/146/146 148/148/148 151/151/151
f 146/146/146 151/151/151 147/147/147
f 152/152/152 150/150/150 135/135/135
f 153/153/153 152/152/152 135/135/135
f 152/152/152 153/153/153 154/154/154
f 148/148/148 150/150/150 155/155/155
f 148/148/148 155/155/155 151/151/151
f 150/150/150 152/152/152 155/155/155
f 151/151/151 156/156/156 147/147/147
f 151/151/151 155/155/155 156/156/156
f 155/155/155 152/152/152 157/157/157
f 155/155/155 157/157/157 156/156/156
f 158/158/158 152/152/152 154/154/154
f 152/152/152 158/158/158 157/157/157
f 158/158/158 154/154/154 159/159/159
f 157/157/157 158/158/158 159/159/159
f 154/154/154 160/160/160 159/159/159
f 159/159/159 160/160/160 161/161/161
f 160/160/160 162/162/162 161/161/161
f 161/161/161 162/162/162 163/163/163
f 164/164/164 157/157/157 159/159/159
f 157/157/157 164/164/164 156/156/156
f 164/164/164 159/159/159 161/161/161
f 147/147/147 156/156/156 165/165/165
f 147/147/147 165/165/165 149/149/149
f 164/164/164 166/166/166 156/156/156
f 156/156/156 166/166/166 165/165/165
f 166/166/166 164/164/164 167/167/167
f 165/165/165 166/166/166 168/168/168
f 166/166/166 167/167/167 168/168/168
f 169/169/169 164/164/164 161/161/161
f 164/164/164 169/169/169 167/167/167
f 169/169/169 161/161/161 170/170/170
f 167/167/167 169/169/169 170/170/170
f 171/171/171 161/161/161 163/163/163
f 161/161/161 171/171/171 170/170/170
f 171/171/171 163/163/163 172/172/172
f 170/170/170 171/171/171 172/172/172
f 163/163/163 173/173/173 172/172/172
f 174/174/174 167/167/167 170/170/170
f 167/167/167 174/174/174 168/168/168
f 168/168/168 174/174/174 175/175/175
f 165/165/165 168/168/168 176/176/176
f 176/176/176 168/168/168 175/175/175
f 149/149/149 165/165/165 176/176/176
f 174/174/174 170/170/170 177/177/177
f 177/177/177 170/170/170 172/172/172
f 177/177/177 172/172/172 178/178/178
f 172/172/172 173/173/173 179/179/179
f 172/172/172 179/179/179 178/178/178
f 173/173/173 180/180/180 179/179/179
f 180/180/180 181/181/181 179/179/179
f 182/182/182 174/174/174 177/177/177
f 174/174/174 182/182/182 175/175/175
f 182/182/182 177/177/177 178/178/178
f 181/181/181 183/183/183 179/179/179
f 179/179/179 183/183/183 178/178/178
f 175/175/175 182/182/182 184/184/184
f 184/184/184 182/182/182 178/178/178
f 185/185/185 184/184/184 178/178/178
f 175/175/175 184/184/184 185/185/185
f 183/183/183 181/181/181 186/186/186
f 181/181/181 187/187/187 186/186/186
f 187/187/187 188/188/188 186/186/186
f 183/183/183 189/189/189 178/178/178
f 189/189/189 185/185/185 178/178/178
f 183/183/183 186/186/186 190/190/190
f 189/189/189 183/183/183 190/190/190
f 188/188/188 191/191/191 186/186/186
f 186/186/186 191/191/191 190/190/190
f 185/185/185 189/189/189 192/192/192
f 189/189/189 190/190/190 192/192/192
f 191/191/191 188/188/188 193/193/193
f 188/188/188 194/194/194 193/193/193
f 193/193/193 194/194/194 195/195/195
f 193/193/193 195/195/195 196/196/196
f 194/194/194 197/197/197 195/195/195
f 197/197/197 198/198/198 195/195/195
f 191/191/191 193/193/193 199/199/199
f 199/199/199 193/193/193 196/196/196
f 191/191/191 200/200/200 190/190/190
f 200/200/200 191/191/191 199/199/199
f 190/190/190 200/200/200 201/201/201
f 200/200/200 199/199/199 201/201/201
f 192/192/192 190/190/190 201/201/201
f 198/198/198 202/202/202 195/195/195
f 195/195/195 202/202/202 196/196/196
f 203/203/203 202/202/202 198/198/198
f 204/204/204 203/203/203 198/198/198
f 199/199/199 205/205/205 201/201/201
f 205/205/205 199/199/199 196/196/196
f 202/202/202 206/206/206 196/196/196
f 202/202/202 203/203/203 206/206/206
f 203/203/203 204/204/204 207/207/207
f 204/204/204 208/208/208 207/207/207
f 207/207/207 208/208/208 209/209/209
f 203/203/203 210/210/210 206/206/206
f 203/203/203 207/207/207 210/210/210
f 192/192/192 201/201/201 211/211/211
f 201/201/201 205/205/205 212/212/212
f 211/211/211 201/201/201 212/212/212
f 213/213/213 205/205/205 196/196/196
f 205/205/205 213/213/213 212/212/212
f 206/206/206 214/214/214 196/196/196
f 214/214/214 213/213/213 196/196/196
f 215/215/215 214/214/214 206/206/206
f 214/214/214 215/215/215 213/213/213
f 210/210/210 215/215/215 206/206/206
f 215/215/215 210/210/210 216/216/216
f 217/217/217 215/215/215 216/216/216
f 215/215/215 217/217/217 213/213/213
f 213/213/213 217/217/217 212/212/212
f 217/217/217 216/216/216 212/212/212
f 207/207/207 218/218/218 210/210/210
f 210/210/210 218/218/218 216/216/216
f 219/219/219 192/192/192 211/211/211
f 185/185/185 192/192/192 219/219/219
f 220/220/220 211/211/211 212/212/212
f 219/219/219 211/211/211 220/220/220
f 216/216/216 220/220/220 212/212/212
f 221/221/221 185/185/185 219/219/219
f 221/221/221 219/219/219 220/220/220
f 221/221/221 175/175/175 185/185/185
f 175/175/175 221/221/221 220/220/220
f 220/220/220 176/176/176 175/175/175
f 176/176/176 220/220/220 216/216/216
f 218/218/218 207/207/207 222/222/222
f 222/222/222 207/207/207 209/209/209
f 218/218/218 223/223/223 216/216/216
f 223/223/223 218/218/218 222/222/222
f 224/224/224 176/176/176 216/216/216
f 224/224/224 216/216/216 223/223/223
f 176/176/176 224/224/224 149/149/149
f 225/225/225 222/222/222 209/209/209
f 226/226/226 225/225/225 209/209/209
f 227/227/227 223/223/223 222/222/222
f 227/227/227 224/224/224 223/223/223
f 225/225/225 227/227/227 222/222/222
f 224/224/224 228/228/228 149/149/149
f 228/228/228 58/58/58 149/149/149
f 229/229/229 224/224/224 227/227/227
f 229/229/229 227/227/227 225/225/225
f 228/228/228 224/224/224 229/229/229
f 230/230/230 225/225/225 226/226/226
f 230/230/230 229/229/229 225/225/225
f 231/231/231 230/230/230 226/226/226
f 231/231/231 232/232/232 230/230/230
f 233/233/233 228/228/228 229/229/229
f 58/58/58 228/228/228 233/233/233
f 233/233/233 229/229/229 230/230/230
f 232/232/232 234/234/234 230/230/230
f 234/234/234 233/233/233 230/230/230
f 232/232/232 71/71/71 234/234/234
f 71/71/71 70/70/70 234/234/234
f 235/235/235 58/58/58 233/233/233
f 235/235/235 233/233/233 234/234/234
f 70/70/70 235/235/235 234/234/234
f 61/61/61 58/58/58 235/235/235
f 61/61/61 235/235/235 70/70/70
