g snow1_7
v -4.73174644 -2.22182364 -0.111815983
v -4.61330163 -2.0373819 -0.647367191
v -4.77122805 -1.87756153 -0.359923629
v -4.77385044 -1.35264559 -0.512022503
v -4.52253765 -1.44778023 -0.852496707
v -4.71776034 -0.625805282 -0.6689291
v -4.6851261 -2.44924351 -0.380611407
v -4.2795291 -2.13411912 -0.783731699
v -4.45435539 -2.76859287 -0.0874859904
v -4.53055052 -2.48683116 0.116769394
v -4.46120276 -2.60075963 -0.574085837
v -4.15569381 -2.87115763 0.140079567
v -4.34538034 -2.69210637 0.215400561
v -4.18483152 -2.33706331 0.387167393
v -4.53055052 -2.48683116 0.116769394
v -4.4976249 -2.02397855 0.168488839
v -4.73174644 -2.22182364 -0.111815983
v -4.77122805 -1.87756153 -0.359923629
v -4.67303395 -1.75154091 -0.162369919
v -4.77385044 -1.35264559 -0.512022503
v -4.67798736 -1.34944044 -0.149549324
v -4.71776034 -0.625805282 -0.6689291
v -4.34421483 -1.56899313 0.275569943
v -3.95391513 -1.86240992 0.51435352
v -3.86096582 -2.5156775 0.366625304
v -3.97911925 -2.93569767 -0.054560372
v -4.2910385 -2.8778593 -0.328600585
v -4.16021016 -2.54423246 -0.579184937
v -4.13311208 -2.75518952 -0.42635762
v -3.82964277 -2.54700054 -0.222102235
v -3.68293438 -2.61736813 0.143284715
v -3.64840619 -2.0692877 0.452872941
v -3.64214158 -1.32307081 0.627116479
v -3.46658684 -2.16165426 0.174025005
v -4.10164335 -0.973272537 0.361526203
v -4.54264267 -0.666015329 -0.150423456
v -3.73611071 -0.29844305 0.42737744
v -4.20522793 0.109922031 -0.153628604
v -4.41487379 0.218314332 -0.80004882
v -3.35673765 -1.5579208 0.498910531
v -3.36445915 -0.661936049 0.620414804
v -3.7540304 0.978663015 -0.0388260057
v -3.86606492 1.16354182 -0.638625876
v -3.27282103 0.409312057 0.540140399
v -2.64854548 1.04101773 0.628136299
v -3.08735948 1.81185599 0.0657783924
v -3.10353091 1.96002127 -0.554563568
v -2.90277205 -0.0488785175 0.717734774
v -3.00315148 -0.998913727 0.630904382
v -3.21687662 -1.66165106 0.233320256
v -2.16325683 2.32919612 0.173150874
v -2.17942826 2.56390042 -0.504592386
v -1.99061587 1.80428018 0.584721103
v -1.13221877 2.67622631 0.196898112
v -1.11036549 2.86431026 -0.479679639
v 0.462925453 2.69225206 0.239584865
v 0.580204757 2.93569767 -0.486381314
v 2.18438168 2.49761212 -0.484924428
v -3.49470474 -2.11372272 -0.133377892
v -1.09448543 2.12785451 0.653340423
v 2.00416491 2.29947565 0.300045624
v 3.07235355 1.96176953 -0.469918505
v -3.8446487 -2.3600821 -0.372452847
v -3.72707802 -2.05719555 -0.458700484
v -4.10878209 -1.55733804 -0.976769063
v -3.47387127 -1.63644694 -0.597833075
v 2.89927552 1.77120887 0.28300006
v 3.88121653 1.27892717 -0.50619496
v -4.33503645 -0.597396009 -1.03052815
v -4.14680681 -0.0612620466 -1.10599483
v -4.41487379 0.218314332 -0.80004882
v -3.6711336 -0.513770766 -1.15013847
v -3.5104391 0.948651168 -1.06971838
v -3.86606492 1.16354182 -0.638625876
v -2.98960244 -0.791453194 -0.730118303
v -2.98610591 0.564761768 -1.18306409
v -2.79219442 1.65159855 -0.953021825
v -3.10353091 1.96002127 -0.554563568
v -2.17942826 2.56390042 -0.504592386
v -2.36124761 1.153635 -1.04189186
v -1.18102445 1.62464616 -1.02032995
v -1.80224054 2.21570472 -0.918202255
v -1.12085507 2.40364298 -0.907858366
v -1.11036549 2.86431026 -0.479679639
v 0.580204757 2.93569767 -0.486381314
v 0.590985712 2.44880644 -0.974583735
v 0.552086862 1.68190178 -1.09754489
v 2.18438168 2.49761212 -0.484924428
v 2.17709725 1.97051085 -0.89620328
v 3.07235355 1.96176953 -0.469918505
v -2.37625353 0.0650499496 -0.624494085
v -1.83866268 0.51027424 -0.559516979
v 2.73595863 1.63499005 -0.870562091
v 3.88121653 1.27892717 -0.50619496
v 2.12872864 1.09798196 -0.970213077
v 3.56303268 0.954187334 -0.865462991
v 3.98698644 0.251385639 -0.758964641
v 4.32221585 0.455641024 -0.423589537
v 3.06681739 0.419801634 -0.911063515
v -0.879449094 0.860509579 -0.597978764
v 4.29759448 -0.432185163 -0.650135274
v 3.68861623 -0.602786487 -0.666452395
v 4.64768413 -0.2697424 -0.36079776
v 4.77385044 -0.888918851 -0.246577916
v 4.48349311 -1.05835467 -0.513042323
v 4.46601048 -1.61911 -0.223850498
v 4.75024889 -1.26435831 -0.119391789
v 4.43949516 -1.58807833 0.230115107
v 4.00315787 -1.16237631 -0.576708231
v 4.05924797 -1.73289278 -0.293198261
v 3.46950061 -0.0768507243 -0.810975463
v 4.63836006 -1.2161354 0.237253847
v 4.77385044 -0.888918851 -0.246577916
v 4.62991013 -0.771202481 0.144158847
v 4.64768413 -0.2697424 -0.36079776
v 3.55778789 -1.08705532 -0.372598535
v 4.32716926 -0.876098257 0.38745877
v 4.03710331 -0.557768716 0.508088912
v 4.45013042 -0.273093237 0.114875443
v 4.32221585 0.455641024 -0.423589537
v 4.12203975 0.370558895 0.147655373
v 3.60761338 1.0860355 0.201268769
v 3.6048453 -0.0775791672 0.661936049
v 3.17011059 -0.587780563 0.83588821
v 3.02762716 0.480262393 0.800340197
v 4.03550073 -1.26902035 0.444423004
v 2.53651097 1.31622345 0.782857568
v 3.68060336 -0.948651168 0.600892535
v 3.37757112 -1.21453282 0.458554796
v 3.81478254 -1.50605566 0.240604685
v 4.22547864 -1.7516866 -0.0343096598
v 3.6163547 -1.46657406 -0.0769964128
v 3.19196387 -1.19879845 0.131921006
v 1.70229818 1.81069048 0.809518577
v 1.36808858 1.24673 1.12668261
v 0.318693762 2.18146791 0.736965666
v -1.03475312 1.53679595 0.861820776
v 2.81885543 -0.974875112 0.680584187
v 3.11358342 -0.938452968 -0.190342126
v 2.12435798 0.771639547 1.03402467
v 2.51261804 -0.295966344 1.13396704
v 0.164700936 1.61255401 1.04597114
v 2.13003984 -0.730846746 0.885713703
v 2.62465256 -1.04116341 0.326560945
v 1.69501375 0.214526429 1.18306409
v 1.31316399 -0.171985365 0.990026724
v 1.87362794 -0.893580886 0.503863943
v 2.5781779 -0.786791159 -0.0634473752
v 1.58327061 -0.415285288 -0.00983397894
v 2.66704793 -0.193838651 -0.455203958
v 1.12741105 -0.420530077 0.570297934
v 0.672279938 0.163098362 0.526299984
v 0.762752544 0.332242799 0.994688758
v 1.06053999 0.744250095 1.1663099
v 0.0472759432 1.10497501 1.06549341
v 0.254736477 0.716132199 0.909752318
v 0.204619606 0.563887637 0.442383364
v 3.08881636 -0.385856196 -0.472249522
v 1.78257258 0.208261821 -0.536061118
v 0.727787286 0.290575866 0.0618448009
v 0.834139947 0.73754842 -0.50721478
v 0.166740576 0.598852895 0.0344553484
v 0.14998639 0.91980483 -0.546696385
v -0.375512307 0.663392935 0.389935476
v -0.431165343 0.652903357 -0.022217508
v -0.340692737 0.829040846 0.764937873
v -0.934227999 0.488566642 0.365022729
v -1.01727049 0.541742973 -0.0515009119
v -1.50824099 0.169362971 -0.0797644958
v -0.93102285 0.678107481 0.733906206
v -2.05471884 -0.192818831 -0.0873403018
v -1.45215089 0.185680091 0.342003934
v -0.96380278 1.02644887 0.909315252
v -2.55632461 -0.613858818 -0.0959359278
v -1.5029962 0.411497385 0.706225376
v -1.9659945 -0.220499661 0.33530226
v -1.61881862 0.765666315 0.880323225
v -2.92389689 -1.14445662 -0.114729754
v -2.05486453 -0.010853799 0.721522677
v -2.45099177 -0.645618928 0.335593637
v -1.80296898 1.25270323 0.808790134
v -2.31535571 0.443694561 0.824524501
v -2.56885383 -0.475600359 0.681895384
v -2.84420524 -1.13746356 0.322918731
v -3.2617487 -1.65043304 -0.114292689
vt 0.102520458 0.300953355
vt 0.145259851 0.294084524
vt 0.129232579 0.277294048
vt 0.163576734 0.256687555
vt 0.181130413 0.278820455
vt 0.210895348 0.237607469
vt 0.11854773 0.311638203
vt 0.161287124 0.311638203
vt 0.109389289 0.339876731
vt 0.0903092028 0.334534307
vt 0.133048596 0.320796645
vt 0.11625812 0.360483224
vt 0.101757255 0.361246428
vt 0.11625812 0.389484955
vt 0.0895459994 0.375747293
vt 0.0964148304 0.407038635
vt 0.07199232 0.395590583
vt 0.0620706752 0.422302704
vt 0.0780979476 0.427645128
vt 0.0628338786 0.458173266
vt 0.0864931856 0.452067638
vt 0.0727555235 0.504728676
vt 0.11625812 0.433750755
vt 0.140680631 0.414670669
vt 0.133811799 0.381852921
vt 0.130758986 0.355904003
vt 0.126179765 0.339113527
vt 0.147549462 0.33071829
vt 0.13839102 0.339113527
vt 0.153655089 0.354377596
vt 0.145259851 0.372694479
vt 0.1559447 0.400933007
vt 0.172735175 0.439093179
vt 0.168919158 0.386432141
vt 0.143733444 0.464278893
vt 0.105573272 0.490991014
vt 0.1780776 0.497859845
vt 0.134575003 0.533730407
vt 0.095651627 0.556626511
vt 0.186472838 0.420013093
vt 0.201736907 0.471147724
vt 0.174261582 0.577996207
vt 0.142970241 0.606234735
vt 0.217000976 0.532204
vt 0.261266776 0.565021749
vt 0.218527382 0.6207356
vt 0.191815262 0.652790145
vt 0.242186689 0.499386252
vt 0.221580196 0.44596201
vt 0.197157686 0.403985821
vt 0.269662014 0.654316552
vt 0.242949893 0.694003132
vt 0.295610931 0.614629973
vt 0.320033441 0.690187114
vt 0.297900541 0.732163304
vt 0.400933007 0.738268932
vt 0.385668938 0.788640359
vt 0.4879382 0.833669363
vt 0.178840803 0.371168072
vt 0.342166341 0.645158111
vt 0.490227811 0.777955511
vt 0.561205731 0.842827804
vt 0.163576734 0.347508765
vt 0.181893617 0.347508765
vt 0.195631279 0.304006169
vt 0.210132144 0.351324783
vt 0.555100104 0.791693173
vt 0.637526076 0.83748538
vt 0.233791451 0.2666092
vt 0.269662014 0.264319589
vt 0.271951624 0.233028248
vt 0.263556386 0.304769372
vt 0.341403138 0.271951624
vt 0.341403138 0.232265045
vt 0.268135607 0.362009631
vt 0.341403138 0.316980627
vt 0.400933007 0.286452489
vt 0.406275431 0.24676591
vt 0.468094911 0.265082793
vt 0.393300972 0.3330079
vt 0.467331707 0.368878462
vt 0.465042097 0.308585389
vt 0.503202269 0.325375865
vt 0.526098373 0.290268507
vt 0.61844599 0.331481493
vt 0.59631309 0.371168072
vt 0.568074562 0.416197076
vt 0.706214387 0.387958548
vt 0.685607894 0.424592314
vt 0.754296204 0.436040366
vt 0.334534307 0.384142531
vt 0.380326514 0.402459414
vt 0.716136032 0.453594045
vt 0.793982784 0.496333438
vt 0.661948587 0.472674131
vt 0.758875425 0.508544693
vt 0.774902697 0.558916121
vt 0.809246853 0.559679324
vt 0.716136032 0.526098373
vt 0.446725214 0.432987552
vt 0.780245121 0.607761142
vt 0.739032135 0.59631309
vt 0.809246853 0.616919583
vt 0.793982784 0.664238197
vt 0.771849884 0.649737332
vt 0.752006594 0.671107028
vt 0.769560273 0.690950318
vt 0.736742525 0.68484469
vt 0.74666417 0.630657245
vt 0.734452915 0.656606163
vt 0.734452915 0.562732138
vt 0.742848152 0.700871963
vt 0.766507459 0.72453127
vt 0.738268932 0.725294473
vt 0.742848152 0.76879707
vt 0.717662439 0.6207356
vt 0.716136032 0.712320014
vt 0.690950318 0.718425642
vt 0.714609625 0.750480187
vt 0.697819149 0.807720446
vt 0.674159842 0.774139494
vt 0.619209194 0.791693173
vt 0.652026942 0.725294473
vt 0.644394907 0.68255508
vt 0.602418718 0.72682088
vt 0.707740794 0.687134301
vt 0.54975768 0.742084949
vt 0.681028673 0.687134301
vt 0.678739063 0.659658976
vt 0.707740794 0.665764604
vt 0.735216118 0.668817418
vt 0.710030404 0.645158111
vt 0.68255508 0.635999669
vt 0.492517421 0.72682088
vt 0.496333438 0.677212656
vt 0.414670669 0.688660708
vt 0.362009631 0.603945125
vt 0.645158111 0.648974128
vt 0.689423911 0.610813956
vt 0.546704866 0.695529539
vt 0.601655514 0.668817418
vt 0.427645128 0.642105297
vt 0.604708328 0.633710059
vt 0.648974128 0.623788414
vt 0.547468069 0.649737332
vt 0.54975768 0.613866769
vt 0.606997938 0.606997938
vt 0.65813257 0.597076294
vt 0.599365904 0.564258545
vt 0.674923045 0.558916121
vt 0.561205731 0.586391445
vt 0.519229542 0.565784952
vt 0.50778149 0.600129107
vt 0.500912659 0.635999669
vt 0.439856383 0.603945125
vt 0.466568504 0.585628242
vt 0.480306166 0.546704866
vt 0.700108759 0.5764698
vt 0.621498804 0.522282355
vt 0.532204 0.532967204
vt 0.555863307 0.4879382
vt 0.490991014 0.514650321
vt 0.511597507 0.466568504
vt 0.439093179 0.526861576
vt 0.450541231 0.492517421
vt 0.427645128 0.561205731
vt 0.3994066 0.504728676
vt 0.410854652 0.470384521
vt 0.367352055 0.452067638
vt 0.388721752 0.537546424
vt 0.324612662 0.431461145
vt 0.358193614 0.48335898
vt 0.378800107 0.567311359
vt 0.282636472 0.413907466
vt 0.347508765 0.514650321
vt 0.314691017 0.461226079
vt 0.336060714 0.543652052
vt 0.242186689 0.397880193
vt 0.303242965 0.490991014
vt 0.272714827 0.442909197
vt 0.317743831 0.577233004
vt 0.287215693 0.523808762
vt 0.261266776 0.468094911
vt 0.233028248 0.424592314
vt 0.206316127 0.383379328
vn -0.968414084 -0.138311549 0.207470668
vn -0.69753718 -0.19248693 -0.690210594
vn -0.991632104 -0.0377001281 -0.123468501
vn -0.968414084 0.0319539327 -0.247291546
vn -0.519532358 -0.107354189 -0.847679896
vn -0.960674744 0.209958755 -0.181717799
vn -0.867802662 -0.393709772 -0.303168524
vn 0.0609181484 -0.378231092 -0.923704617
vn -0.69753718 -0.711022716 0.0888176742
vn -0.767191241 -0.277619671 0.578225663
vn -0.519532358 -0.533017894 -0.667815883
vn -0.101607994 -0.788416117 0.606692544
vn -0.465356978 -0.416927793 0.780777881
vn -0.349266876 -0.16152957 0.922995584
vn -0.767191241 -0.277619671 0.578225663
vn -0.6820585 0.0319539327 0.730599171
vn -0.968414084 -0.138311549 0.207470668
vn -0.991632104 -0.0377001281 -0.123468501
vn -0.867802662 0.0783899733 0.490686816
vn -0.968414084 0.0319539327 -0.247291546
vn -0.844584642 0.140304694 0.516712081
vn -0.960674744 0.209958755 -0.181717799
vn -0.62788312 0.0938686534 0.772626342
vn -0.287352156 -0.0609181484 0.955885829
vn 0.262140991 -0.447885153 0.854798801
vn 0.362752412 -0.927724238 0.0879683183
vn -0.202219415 -0.904506218 -0.375467455
vn 0.447885153 -0.424667133 -0.786801574
vn 0.463363833 -0.587193274 -0.663700246
vn 0.734240736 -0.486581853 -0.473422265
vn 0.765198097 -0.602671955 0.226403154
vn 0.362752412 -0.331795052 0.870817278
vn -0.217698095 -0.00674276773 0.975992866
vn 0.858070178 -0.478842513 0.185540879
vn -0.573707739 0.186740735 0.797488137
vn -0.790409262 0.271873476 0.548942631
vn -0.542750379 0.217698095 0.811190216
vn -0.759451901 0.341527536 0.55370728
vn -0.867802662 0.434399617 -0.241278908
vn 0.385970432 -0.347273732 0.854650678
vn -0.233176775 0.0396932728 0.971623917
vn -0.69753718 0.418920937 0.581332203
vn -0.782669921 0.589186419 -0.20071661
vn -0.488574998 0.240916115 0.838602347
vn -0.387963577 0.302830836 0.870504307
vn -0.565968399 0.581447079 0.584464768
vn -0.596925759 0.759451901 -0.258674405
vn -0.209958755 0.0242145926 0.977410341
vn 0.285359011 -0.316316371 0.904717739
vn 0.811634137 -0.533017894 0.239043829
vn -0.380224237 0.728494541 0.569846676
vn -0.403442257 0.891020683 -0.208126135
vn -0.295091496 0.442138958 0.847014847
vn -0.132565354 0.844584642 0.518751587
vn -0.124826014 0.976153424 -0.177603377
vn 0.0841361686 0.852323982 0.516202416
vn 0.115093529 0.968414084 -0.221195936
vn 0.355013072 0.914238703 -0.195277528
vn 0.811634137 -0.463363833 -0.355730215
vn -0.132565354 0.535011039 0.834379779
vn 0.300837691 0.798148602 0.521972694
vn 0.594932615 0.798148602 -0.0949420548
vn 0.633629315 -0.370491752 -0.679153703
vn 0.579453934 -0.440145813 -0.685933525
vn 0.146050889 -0.300837691 -0.942425499
vn 0.563975254 -0.424667133 -0.708230004
vn 0.517539214 0.63562246 0.572832655
vn 0.757458756 0.63562246 -0.149131891
vn -0.473096318 -0.0222214479 -0.880730425
vn -0.364745557 0.171262054 -0.915221278
vn -0.867802662 0.434399617 -0.241278908
vn 0.22344429 -0.20022627 -0.953929814
vn -0.295091496 0.318309516 -0.900888484
vn -0.782669921 0.589186419 -0.20071661
vn 0.540757234 -0.378231092 -0.75134736
vn 0.22344429 -0.0996148488 -0.969613083
vn -0.217698095 0.387963577 -0.895595781
vn -0.596925759 0.759451901 -0.258674405
vn -0.403442257 0.891020683 -0.208126135
vn 0.138311549 -0.122832869 -0.982742083
vn 0.029960788 -0.19248693 -0.980842053
vn -0.148044034 0.411181597 -0.899451309
vn -0.0706506332 0.449878298 -0.890290967
vn -0.124826014 0.976153424 -0.177603377
vn 0.115093529 0.968414084 -0.221195936
vn 0.0609181484 0.418920937 -0.905976946
vn -0.00873591245 -0.122832869 -0.992388921
vn 0.355013072 0.914238703 -0.195277528
vn 0.19248693 0.372484897 -0.907856698
vn 0.594932615 0.798148602 -0.0949420548
vn 0.517539214 -0.401449112 -0.755639975
vn 0.331795052 -0.502060534 -0.798653407
vn 0.246662311 0.310570176 -0.917989036
vn 0.757458756 0.63562246 -0.149131891
vn -0.055171953 -0.21570495 -0.974898677
vn 0.308577031 0.209958755 -0.92773786
vn 0.393709772 0.0629112931 -0.917079486
vn 0.889027538 0.434399617 -0.144661705
vn -0.0474326129 -0.21570495 -0.975305861
vn 0.115093529 -0.594932615 -0.795492718
vn 0.385970432 -0.0222214479 -0.922243478
vn -0.109347334 -0.262140991 -0.958814508
vn 0.919984898 0.287352156 -0.266564299
vn 0.950942259 0.0396932728 -0.306811448
vn 0.416927793 -0.21570495 -0.88297372
vn 0.556235914 -0.610411295 -0.563914585
vn 0.935463579 -0.324055711 -0.141052434
vn 0.401449112 -0.618150635 0.675816841
vn -0.0706506332 -0.355013072 -0.93218786
vn -0.186740735 -0.772937437 -0.606379103
vn -0.0242145926 -0.23892297 -0.970736559
vn 0.718762056 -0.21570495 0.660948168
vn 0.950942259 0.0396932728 -0.306811448
vn 0.819373477 0.233176775 0.523694278
vn 0.919984898 0.287352156 -0.266564299
vn -0.488574998 -0.486581853 -0.724246209
vn 0.447885153 0.0396932728 0.893209569
vn 0.478842513 0.117086674 0.87005779
vn 0.741980076 0.318309516 0.590037811
vn 0.889027538 0.434399617 -0.144661705
vn 0.680065356 0.380224237 0.626849776
vn 0.618150635 0.488574998 0.615779395
vn 0.463363833 0.186740735 0.866268928
vn 0.285359011 -0.16926891 0.943354796
vn 0.416927793 0.248655455 0.874266367
vn 0.153790229 -0.378231092 0.912847088
vn 0.385970432 0.395702917 0.833334283
vn 0.22344429 -0.262140991 0.938804959
vn -0.140304694 -0.757458756 0.637629065
vn -0.256394795 -0.811634137 0.524892119
vn -0.0319539327 -0.950942259 0.307713774
vn -0.558229059 -0.772937437 -0.301575922
vn -0.434399617 -0.881288198 -0.186086229
vn 0.20022627 0.535011039 0.820775627
vn 0.107354189 0.279612816 0.954092108
vn 0.0222214479 0.581447079 0.813280703
vn -0.140304694 0.264134135 0.954226258
vn -0.0164752525 -0.734240736 0.678689257
vn -0.411181597 -0.571714594 -0.709980364
vn 0.22344429 0.202219415 0.953509285
vn 0.16926891 -0.115093529 0.978826602
vn -0.0474326129 0.310570176 0.949366269
vn -0.163522714 -0.625889975 0.762575938
vn -0.295091496 -0.943202919 -0.152608202
vn 0.0222214479 -0.0686574884 0.997392779
vn -0.357006217 -0.494321193 0.792586348
vn -0.387963577 -0.919984898 0.0557857488
vn -0.287352156 -0.656847335 -0.697122885
vn -0.395702917 -0.641368655 -0.657316856
vn -0.225437435 -0.486581853 -0.844047429
vn -0.6433618 -0.757458756 0.111093774
vn -0.6820585 -0.726501396 0.0836177229
vn -0.449878298 -0.478842513 0.753869594
vn -0.0706506332 -0.0454394682 0.996465625
vn -0.132565354 -0.0454394682 0.990132154
vn -0.387963577 -0.602671955 0.697331182
vn -0.434399617 -0.889027538 0.144661705
vn -0.341527536 -0.447885153 -0.826291614
vn -0.248655455 -0.509799874 -0.823574255
vn -0.488574998 -0.687804696 -0.536860477
vn -0.248655455 -0.556235914 -0.792951494
vn -0.209958755 -0.904506218 -0.371195127
vn -0.0396932728 -0.664586675 -0.746156147
vn 0.029960788 -0.981899619 0.18701735
vn 0.0686574884 -0.950942259 -0.301653725
vn -0.0474326129 -0.780676777 0.623132343
vn 0.378231092 -0.912245558 0.157319046
vn 0.378231092 -0.842591497 -0.383380763
vn 0.486581853 -0.749719416 -0.44850741
vn 0.18474759 -0.687804696 0.701992186
vn 0.610411295 -0.664586675 -0.430955453
vn 0.548496574 -0.811634137 0.201001333
vn -0.0706506332 -0.122832869 0.989909377
vn 0.711022716 -0.594932615 -0.374835806
vn 0.300837691 -0.548496574 0.780159081
vn 0.618150635 -0.765198097 0.179893484
vn -0.0474326129 -0.0609181484 0.997015108
vn 0.796155457 -0.540757234 -0.271510778
vn 0.293098351 -0.440145813 0.8487432
vn 0.703283376 -0.687804696 0.179769836
vn -0.179001394 0.209958755 0.961184593
vn -0.132565354 0.0164752525 0.991037332
vn 0.246662311 -0.355013072 0.901733566
vn 0.772937437 -0.602671955 0.198379016
vn 0.811634137 -0.502060534 -0.298638993
g snow1_7_0
f 3/3/3 2/2/2 1/1/1
f 2/2/2 3/3/3 4/4/4
f 5/5/5 2/2/2 4/4/4
f 5/5/5 4/4/4 6/6/6
f 2/2/2 7/7/7 1/1/1
f 8/8/8 2/2/2 5/5/5
f 2/2/2 8/8/8 7/7/7
f 1/1/1 7/7/7 9/9/9
f 10/10/10 1/1/1 9/9/9
f 8/8/8 11/11/11 7/7/7
f 7/7/7 11/11/11 9/9/9
f 10/10/10 9/9/9 12/12/12
f 13/13/13 10/10/10 12/12/12
f 13/13/13 12/12/12 14/14/14
f 15/15/15 13/13/13 14/14/14
f 16/16/16 15/15/15 14/14/14
f 17/17/17 15/15/15 16/16/16
f 18/18/18 17/17/17 16/16/16
f 19/19/19 18/18/18 16/16/16
f 18/18/18 19/19/19 20/20/20
f 19/19/19 21/21/21 20/20/20
f 20/20/20 21/21/21 22/22/22
f 19/19/19 16/16/16 23/23/23
f 21/21/21 19/19/19 23/23/23
f 16/16/16 14/14/14 24/24/24
f 23/23/23 16/16/16 24/24/24
f 12/12/12 25/25/25 14/14/14
f 14/14/14 25/25/25 24/24/24
f 12/12/12 9/9/9 26/26/26
f 12/12/12 26/26/26 25/25/25
f 9/9/9 27/27/27 26/26/26
f 11/11/11 27/27/27 9/9/9
f 11/11/11 28/28/28 27/27/27
f 8/8/8 28/28/28 11/11/11
f 27/27/27 29/29/29 26/26/26
f 28/28/28 29/29/29 27/27/27
f 29/29/29 30/30/30 26/26/26
f 30/30/30 29/29/29 28/28/28
f 26/26/26 31/31/31 25/25/25
f 26/26/26 30/30/30 31/31/31
f 25/25/25 32/32/32 24/24/24
f 25/25/25 31/31/31 32/32/32
f 23/23/23 24/24/24 33/33/33
f 24/24/24 32/32/32 33/33/33
f 31/31/31 34/34/34 32/32/32
f 31/31/31 30/30/30 34/34/34
f 35/35/35 23/23/23 33/33/33
f 21/21/21 23/23/23 35/35/35
f 36/36/36 21/21/21 35/35/35
f 21/21/21 36/36/36 22/22/22
f 36/36/36 35/35/35 37/37/37
f 35/35/35 33/33/33 37/37/37
f 36/36/36 38/38/38 22/22/22
f 38/38/38 36/36/36 37/37/37
f 38/38/38 39/39/39 22/22/22
f 32/32/32 40/40/40 33/33/33
f 32/32/32 34/34/34 40/40/40
f 33/33/33 41/41/41 37/37/37
f 33/33/33 40/40/40 41/41/41
f 39/39/39 38/38/38 42/42/42
f 43/43/43 39/39/39 42/42/42
f 38/38/38 37/37/37 44/44/44
f 37/37/37 41/41/41 44/44/44
f 42/42/42 38/38/38 44/44/44
f 42/42/42 44/44/44 45/45/45
f 43/43/43 42/42/42 46/46/46
f 46/46/46 42/42/42 45/45/45
f 47/47/47 43/43/43 46/46/46
f 41/41/41 48/48/48 44/44/44
f 44/44/44 48/48/48 45/45/45
f 40/40/40 49/49/49 41/41/41
f 41/41/41 49/49/49 48/48/48
f 34/34/34 50/50/50 40/40/40
f 40/40/40 50/50/50 49/49/49
f 47/47/47 46/46/46 51/51/51
f 52/52/52 47/47/47 51/51/51
f 51/51/51 46/46/46 53/53/53
f 46/46/46 45/45/45 53/53/53
f 52/52/52 51/51/51 54/54/54
f 54/54/54 51/51/51 53/53/53
f 55/55/55 52/52/52 54/54/54
f 55/55/55 54/54/54 56/56/56
f 57/57/57 55/55/55 56/56/56
f 58/58/58 57/57/57 56/56/56
f 34/34/34 59/59/59 50/50/50
f 30/30/30 59/59/59 34/34/34
f 60/60/60 54/54/54 53/53/53
f 54/54/54 60/60/60 56/56/56
f 61/61/61 58/58/58 56/56/56
f 58/58/58 61/61/61 62/62/62
f 30/30/30 63/63/63 59/59/59
f 63/63/63 30/30/30 28/28/28
f 64/64/64 63/63/63 28/28/28
f 63/63/63 64/64/64 59/59/59
f 8/8/8 64/64/64 28/28/28
f 64/64/64 8/8/8 65/65/65
f 65/65/65 8/8/8 5/5/5
f 64/64/64 66/66/66 59/59/59
f 66/66/66 64/64/64 65/65/65
f 61/61/61 67/67/67 62/62/62
f 62/62/62 67/67/67 68/68/68
f 65/65/65 5/5/5 69/69/69
f 69/69/69 5/5/5 6/6/6
f 70/70/70 69/69/69 6/6/6
f 71/71/71 70/70/70 6/6/6
f 72/72/72 65/65/65 69/69/69
f 72/72/72 69/69/69 70/70/70
f 70/70/70 71/71/71 73/73/73
f 71/71/71 74/74/74 73/73/73
f 65/65/65 72/72/72 75/75/75
f 66/66/66 65/65/65 75/75/75
f 72/72/72 70/70/70 76/76/76
f 70/70/70 73/73/73 76/76/76
f 75/75/75 72/72/72 76/76/76
f 73/73/73 74/74/74 77/77/77
f 74/74/74 78/78/78 77/77/77
f 78/78/78 79/79/79 77/77/77
f 76/76/76 73/73/73 80/80/80
f 73/73/73 77/77/77 80/80/80
f 80/80/80 77/77/77 81/81/81
f 79/79/79 82/82/82 77/77/77
f 77/77/77 82/82/82 81/81/81
f 82/82/82 79/79/79 83/83/83
f 81/81/81 82/82/82 83/83/83
f 79/79/79 84/84/84 83/83/83
f 83/83/83 84/84/84 85/85/85
f 86/86/86 83/83/83 85/85/85
f 81/81/81 83/83/83 86/86/86
f 87/87/87 81/81/81 86/86/86
f 86/86/86 85/85/85 88/88/88
f 89/89/89 86/86/86 88/88/88
f 87/87/87 86/86/86 89/89/89
f 89/89/89 88/88/88 90/90/90
f 91/91/91 76/76/76 80/80/80
f 91/91/91 75/75/75 76/76/76
f 92/92/92 80/80/80 81/81/81
f 92/92/92 91/91/91 80/80/80
f 93/93/93 89/89/89 90/90/90
f 93/93/93 90/90/90 94/94/94
f 93/93/93 95/95/95 89/89/89
f 95/95/95 87/87/87 89/89/89
f 96/96/96 93/93/93 94/94/94
f 93/93/93 96/96/96 95/95/95
f 97/97/97 96/96/96 94/94/94
f 98/98/98 97/97/97 94/94/94
f 96/96/96 99/99/99 95/95/95
f 96/96/96 97/97/97 99/99/99
f 100/100/100 81/81/81 87/87/87
f 100/100/100 92/92/92 81/81/81
f 97/97/97 98/98/98 101/101/101
f 97/97/97 101/101/101 102/102/102
f 98/98/98 103/103/103 101/101/101
f 103/103/103 104/104/104 101/101/101
f 104/104/104 105/105/105 101/101/101
f 101/101/101 105/105/105 102/102/102
f 105/105/105 104/104/104 106/106/106
f 104/104/104 107/107/107 106/106/106
f 106/106/106 107/107/107 108/108/108
f 105/105/105 106/106/106 109/109/109
f 105/105/105 109/109/109 102/102/102
f 106/106/106 110/110/110 109/109/109
f 106/106/106 108/108/108 110/110/110
f 111/111/111 97/97/97 102/102/102
f 97/97/97 111/111/111 99/99/99
f 107/107/107 112/112/112 108/108/108
f 107/107/107 113/113/113 112/112/112
f 113/113/113 114/114/114 112/112/112
f 114/114/114 113/113/113 115/115/115
f 109/109/109 116/116/116 102/102/102
f 109/109/109 110/110/110 116/116/116
f 112/112/112 117/117/117 108/108/108
f 114/114/114 117/117/117 112/112/112
f 117/117/117 114/114/114 118/118/118
f 119/119/119 114/114/114 115/115/115
f 114/114/114 119/119/119 118/118/118
f 119/119/119 115/115/115 120/120/120
f 121/121/121 119/119/119 120/120/120
f 119/119/119 121/121/121 118/118/118
f 121/121/121 120/120/120 68/68/68
f 122/122/122 121/121/121 68/68/68
f 67/67/67 122/122/122 68/68/68
f 121/121/121 122/122/122 123/123/123
f 121/121/121 123/123/123 118/118/118
f 118/118/118 123/123/123 124/124/124
f 122/122/122 125/125/125 123/123/123
f 122/122/122 67/67/67 125/125/125
f 123/123/123 125/125/125 124/124/124
f 117/117/117 118/118/118 126/126/126
f 117/117/117 126/126/126 108/108/108
f 67/67/67 127/127/127 125/125/125
f 67/67/67 61/61/61 127/127/127
f 128/128/128 118/118/118 124/124/124
f 118/118/118 128/128/128 126/126/126
f 128/128/128 129/129/129 126/126/126
f 129/129/129 128/128/128 124/124/124
f 126/126/126 130/130/130 108/108/108
f 129/129/129 130/130/130 126/126/126
f 130/130/130 131/131/131 108/108/108
f 108/108/108 131/131/131 110/110/110
f 131/131/131 130/130/130 110/110/110
f 130/130/130 132/132/132 110/110/110
f 110/110/110 132/132/132 116/116/116
f 132/132/132 130/130/130 133/133/133
f 130/130/130 129/129/129 133/133/133
f 132/132/132 133/133/133 116/116/116
f 61/61/61 134/134/134 127/127/127
f 127/127/127 134/134/134 135/135/135
f 134/134/134 61/61/61 56/56/56
f 136/136/136 134/134/134 56/56/56
f 134/134/134 136/136/136 135/135/135
f 60/60/60 136/136/136 56/56/56
f 60/60/60 137/137/137 136/136/136
f 137/137/137 60/60/60 53/53/53
f 133/133/133 129/129/129 138/138/138
f 138/138/138 129/129/129 124/124/124
f 133/133/133 139/139/139 116/116/116
f 116/116/116 139/139/139 102/102/102
f 140/140/140 127/127/127 135/135/135
f 127/127/127 140/140/140 125/125/125
f 125/125/125 141/141/141 124/124/124
f 125/125/125 140/140/140 141/141/141
f 136/136/136 142/142/142 135/135/135
f 137/137/137 142/142/142 136/136/136
f 143/143/143 138/138/138 124/124/124
f 141/141/141 143/143/143 124/124/124
f 144/144/144 133/133/133 138/138/138
f 133/133/133 144/144/144 139/139/139
f 140/140/140 145/145/145 141/141/141
f 140/140/140 135/135/135 145/145/145
f 146/146/146 143/143/143 141/141/141
f 145/145/145 146/146/146 141/141/141
f 138/138/138 143/143/143 147/147/147
f 144/144/144 138/138/138 147/147/147
f 147/147/147 143/143/143 146/146/146
f 144/144/144 148/148/148 139/139/139
f 148/148/148 144/144/144 147/147/147
f 149/149/149 148/148/148 147/147/147
f 148/148/148 150/150/150 139/139/139
f 148/148/148 149/149/149 150/150/150
f 151/151/151 147/147/147 146/146/146
f 147/147/147 151/151/151 149/149/149
f 152/152/152 151/151/151 146/146/146
f 151/151/151 152/152/152 149/149/149
f 153/153/153 146/146/146 145/145/145
f 153/153/153 152/152/152 146/146/146
f 135/135/135 154/154/154 145/145/145
f 154/154/154 153/153/153 145/145/145
f 155/155/155 154/154/154 135/135/135
f 142/142/142 155/155/155 135/135/135
f 156/156/156 153/153/153 154/154/154
f 155/155/155 156/156/156 154/154/154
f 157/157/157 152/152/152 153/153/153
f 156/156/156 157/157/157 153/153/153
f 150/150/150 158/158/158 139/139/139
f 139/139/139 158/158/158 102/102/102
f 158/158/158 111/111/111 102/102/102
f 111/111/111 158/158/158 150/150/150
f 99/99/99 111/111/111 150/150/150
f 99/99/99 150/150/150 159/159/159
f 95/95/95 99/99/99 159/159/159
f 149/149/149 159/159/159 150/150/150
f 87/87/87 95/95/95 159/159/159
f 152/152/152 160/160/160 149/149/149
f 152/152/152 157/157/157 160/160/160
f 159/159/159 149/149/149 161/161/161
f 161/161/161 87/87/87 159/159/159
f 149/149/149 160/160/160 161/161/161
f 157/157/157 162/162/162 160/160/160
f 160/160/160 162/162/162 161/161/161
f 161/161/161 163/163/163 87/87/87
f 162/162/162 163/163/163 161/161/161
f 163/163/163 100/100/100 87/87/87
f 157/157/157 164/164/164 162/162/162
f 164/164/164 157/157/157 156/156/156
f 162/162/162 165/165/165 163/163/163
f 165/165/165 100/100/100 163/163/163
f 164/164/164 165/165/165 162/162/162
f 166/166/166 164/164/164 156/156/156
f 166/166/166 156/156/156 155/155/155
f 165/165/165 164/164/164 167/167/167
f 167/167/167 164/164/164 166/166/166
f 165/165/165 168/168/168 100/100/100
f 168/168/168 165/165/165 167/167/167
f 168/168/168 169/169/169 100/100/100
f 169/169/169 168/168/168 167/167/167
f 169/169/169 92/92/92 100/100/100
f 170/170/170 166/166/166 155/155/155
f 170/170/170 167/167/167 166/166/166
f 169/169/169 171/171/171 92/92/92
f 171/171/171 91/91/91 92/92/92
f 172/172/172 169/169/169 167/167/167
f 172/172/172 167/167/167 170/170/170
f 171/171/171 169/169/169 172/172/172
f 173/173/173 170/170/170 155/155/155
f 173/173/173 155/155/155 142/142/142
f 137/137/137 173/173/173 142/142/142
f 171/171/171 174/174/174 91/91/91
f 174/174/174 75/75/75 91/91/91
f 175/175/175 172/172/172 170/170/170
f 175/175/175 170/170/170 173/173/173
f 176/176/176 171/171/171 172/172/172
f 174/174/174 171/171/171 176/176/176
f 176/176/176 172/172/172 175/175/175
f 177/177/177 173/173/173 137/137/137
f 177/177/177 175/175/175 173/173/173
f 75/75/75 174/174/174 178/178/178
f 66/66/66 75/75/75 178/178/178
f 179/179/179 176/176/176 175/175/175
f 179/179/179 175/175/175 177/177/177
f 180/180/180 174/174/174 176/176/176
f 178/178/178 174/174/174 180/180/180
f 180/180/180 176/176/176 179/179/179
f 181/181/181 177/177/177 137/137/137
f 181/181/181 137/137/137 53/53/53
f 181/181/181 53/53/53 45/45/45
f 177/177/177 181/181/181 45/45/45
f 182/182/182 177/177/177 45/45/45
f 182/182/182 179/179/179 177/177/177
f 48/48/48 182/182/182 45/45/45
f 179/179/179 182/182/182 48/48/48
f 183/183/183 179/179/179 48/48/48
f 183/183/183 180/180/180 179/179/179
f 49/49/49 183/183/183 48/48/48
f 180/180/180 183/183/183 49/49/49
f 184/184/184 180/180/180 49/49/49
f 184/184/184 178/178/178 180/180/180
f 50/50/50 184/184/184 49/49/49
f 178/178/178 184/184/184 50/50/50
f 185/185/185 178/178/178 50/50/50
f 59/59/59 185/185/185 50/50/50
f 185/185/185 66/66/66 178/178/178
f 66/66/66 185/185/185 59/59/59
