g snow1_6
v 2.76818626 -0.0194860904 0.165997402
v 2.66460457 0.344598389 0.00270998608
v 2.7270633 0.137004852 -0.0819448173
v 2.66641123 0.241877012 0.286183134
v 2.51060854 0.571807064 0.39544289
v 2.52359926 0.674184316 0.00804392695
v 2.25526763 0.922298597 0.477344692
v 2.11426232 1.14589396 -0.017679433
v 2.44737553 0.404562208 0.640374013
v 2.64610784 0.116099245 0.517693373
v 1.86718041 1.17755348 0.517951467
v 1.2388938 1.48649189 0.548578611
v 1.54292843 1.53664814 -0.083837506
v 1.06382009 1.7321973 -0.0928707929
v 0.535501853 1.92172426 -0.0863324138
v 0.498164267 1.75645812 0.579291787
v -0.062071586 2.00233559 -0.154383175
v -0.0786756277 1.81358291 0.576108629
v -1.04566749 1.79345158 -0.164018682
v 0.232757694 1.55325218 0.950430834
v 1.20525556 1.31047184 0.868098875
v 1.79233318 1.00721149 0.80047827
v 2.19212065 0.779228538 0.783185978
v -1.03336501 1.60598937 0.535071697
v -0.898123801 1.25902512 0.89476858
v -2.01205713 1.0099645 0.417724998
v -2.03803858 1.18452201 -0.290914855
v -2.40694081 0.549610987 0.32093978
v -2.46931351 0.628673756 -0.377032191
v -2.74831303 -0.019658153 -0.423489095
v -2.66589504 0.0101947096 0.203679113
v -2.81903076 -0.443878514 -0.405852678
v -2.19478762 0.199033422 0.66592531
v -1.76884663 0.653192677 0.775271098
v -0.678141756 0.807102681 1.03990339
v 0.268718779 1.12791341 1.08205873
v 1.11483666 1.00050105 1.01211528
v 1.66586716 0.757204524 0.96471203
v 1.98186014 0.526210472 0.865173811
v 2.24296515 0.230434848 0.748687425
v -1.89040886 -0.163158368 0.742063015
v -1.42377507 0.23516657 0.837127606
v -2.53392302 -0.286527259 0.469859968
v -2.72207348 -0.332898132 0.127197283
v -2.67510039 -0.569656281 0.273020344
v -2.77119736 -0.778884413 -0.271471781
v -2.32108157 -0.584797791 0.620930938
v -2.56171113 -0.89278986 0.472440907
v -2.61530863 -1.27605932 -0.158942835
v -2.37295845 -0.920319877 0.432350319
v -2.21285419 -1.19088833 -0.133993756
v -1.92809057 -0.600971676 0.435189353
v -1.86064203 -0.844268204 -0.154985395
v -1.74019821 -0.505562959 0.834202542
v -1.64917709 -1.22375229 0.34795361
v -1.76394285 -1.32716191 -0.00589314434
v -1.11844997 -0.253491238 1.03190248
v -1.43685183 -1.26952094 0.585055884
v -1.4293671 -1.69038608 0.169696748
v -0.433124601 0.360342118 1.11113731
v -0.819663251 -1.14606602 0.857775119
v -0.800994458 -1.69279496 0.43768426
v -1.26616572 -1.68100867 0.308121116
v -0.956883181 -1.99812006 0.0139800869
v -0.383054382 -2.00233559 -0.172707843
v 0.330059099 0.773636503 1.04282845
v -0.409465993 -0.428306848 1.00368421
v 1.02760091 0.682443321 1.04222624
v 1.51144097 0.466848872 0.993532517
v 1.7432093 0.297625297 0.732427509
v 1.43108773 0.0464999199 0.786111043
v -0.312078556 -1.02329935 0.632717227
v -0.118852247 -0.516316872 0.706360023
v 0.1929252 0.0478764208 0.70352099
v 0.0370364765 0.237317353 0.975638006
v 0.279214598 0.449040392 0.936579794
v -0.420822125 -1.63773492 0.302615113
v -0.137435009 -1.32957079 0.208927022
v -0.00623726956 -1.70690409 -0.218820622
v 0.0346276 -0.894682548 0.194989951
v 0.175460845 -0.913351341 -0.162642181
v 0.196452483 -0.399486361 -0.0747181877
v 0.132617255 -0.445341046 0.282397756
v 0.275343189 -0.00976455303 0.348469798
v 0.264503245 0.0923546051 -0.00417251826
v 0.37634394 0.425037659 -0.0822889425
v 0.41393962 0.226993596 0.379785193
v 0.370493812 0.272848281 0.69027217
v 0.619296344 0.306314459 0.407831398
v 0.593572984 0.459794306 -0.0483065773
v 0.832912072 0.272074 -0.0625017425
v 0.588583168 0.362664963 0.681927133
v 0.773894597 0.0655988695 0.448782299
v 1.11509475 0.117475746 -0.071104873
v 0.542470389 0.529307599 0.903887898
v 0.77673363 0.18105288 0.740256357
v 0.948280051 0.366536372 0.999554708
v 1.07724098 -0.090633979 0.454718459
v 1.43306645 0.0776432521 0.208840991
v 1.05633537 0.0224111548 0.805209992
v 1.71146375 0.244027794 0.212368275
v 1.36570394 0.242995419 1.022353
v 2.07494601 0.169954842 0.568193749
v 1.97626811 0.166685652 0.186386821
v 2.4967575 -0.0355739443 0.686830917
v 2.31746826 -0.243597638 0.524317784
v 2.17121504 -0.138983572 0.199463579
v 2.43928858 -0.600025331 0.307949054
v 2.29793915 -0.435877603 0.170557061
v 2.28400208 -0.519500031 0.00804392695
v 2.41907123 -0.686744886 -0.0452954817
v 2.72026682 -0.550643363 -0.0662871199
v 2.79141471 -0.124100156 0.40404602
v 2.64954909 -0.377548379 0.59400314
v 2.77231576 -0.553568427 0.334532727
v 2.79218899 -0.250738236 0.0339393495
v 2.81903076 -0.283086007 0.253835363
v -1.4293671 -1.69038608 0.169696748
v -1.76394285 -1.32716191 -0.00589314434
v -1.64917709 -1.22375229 0.34795361
v -1.70699012 -1.52073235 -0.304937958
v -1.19510386 -1.92972517 -0.536706292
v -1.64521965 -1.28999639 -0.636416573
v -0.956883181 -1.99812006 0.0139800869
v -1.86064203 -0.844268204 -0.154985395
v -0.383054382 -2.00233559 -0.172707843
v -1.93523117 -0.800650333 -0.67246369
v -2.31402701 -1.26866063 -0.670398938
v -2.21285419 -1.19088833 -0.133993756
v -2.47077604 -1.29128686 -0.74438586
v -2.61530863 -1.27605932 -0.158942835
v -2.28030273 -0.749977895 -0.875411536
v -2.62829936 -0.991983954 -0.744299829
v -2.77119736 -0.778884413 -0.271471781
v -2.81903076 -0.443878514 -0.405852678
v -2.66116332 -0.588841262 -0.797467175
v -1.68023439 -0.588755231 -0.796692893
v -2.52807289 -0.17115928 -0.839708545
v -2.74831303 -0.019658153 -0.423489095
v -2.0938729 -0.389678793 -0.882552135
v -2.07873139 0.524317784 -0.879196914
v -2.46931351 0.628673756 -0.377032191
v -1.66380241 0.237919572 -0.882035947
v -1.46739294 1.15604565 -0.813813122
v -2.03803858 1.18452201 -0.290914855
v -1.04566749 1.79345158 -0.164018682
v -1.13918352 0.783099947 -0.868356969
v -0.533351071 1.72084116 -0.716081561
v -0.062071586 2.00233559 -0.154383175
v -0.360600212 1.33292601 -0.837299669
v -0.101990111 0.845730736 -0.843149797
v -0.660247244 0.247383015 -0.891671453
v -1.10003927 -0.295130389 -0.896919362
v 0.29383992 1.8168521 -0.720039001
v 0.535501853 1.92172426 -0.0863324138
v 1.06382009 1.7321973 -0.0928707929
v 0.324983252 1.46369359 -0.893306048
v 0.32420897 1.09453327 -0.963421561
v -1.37860863 -1.01116893 -0.796950987
v -1.25437943 -1.55488678 -0.734578291
v -0.69422961 -1.60108559 -0.838762201
v -0.358191335 -1.13376354 -0.946989581
v -0.532146632 -1.96646054 -0.743783641
v -0.0793638782 -1.66225384 -0.731997352
v -0.00623726956 -1.70690409 -0.218820622
v 0.0377247269 -0.490765575 -0.878508663
v 0.164792963 -0.83144954 -0.600111363
v 0.175460845 -0.913351341 -0.162642181
v 0.200668017 -0.278956504 -0.478205005
v 0.196452483 -0.399486361 -0.0747181877
v 0.264503245 0.0923546051 -0.00417251826
v 0.121089061 -0.0101947096 -0.868184907
v 0.259599461 0.251856643 -0.366622403
v 0.37634394 0.425037659 -0.0822889425
v 0.224412657 0.446803579 -0.734836385
v 0.347781547 0.654741241 -0.558644274
v 0.550041144 0.588583168 -0.529049505
v 0.593572984 0.459794306 -0.0483065773
v 0.273880657 0.836783481 -0.804091585
v 0.797467175 0.416348497 -0.564408371
v 0.832912072 0.272074 -0.0625017425
v 0.485947822 0.720985345 -0.873260754
v 1.1298061 0.255297895 -0.582560977
v 1.11509475 0.117475746 -0.071104873
v 0.796778924 0.525694285 -0.990349359
v 1.6118395 0.321369937 -0.401809206
v 1.43306645 0.0776432521 0.208840991
v 1.71146375 0.244027794 0.212368275
v 1.94830793 0.0903758851 -0.308551273
v 1.97626811 0.166685652 0.186386821
v 2.17121504 -0.138983572 0.199463579
v 0.941569609 0.962475216 -1.11113731
v 1.23476429 0.45876193 -0.924965568
v 1.022353 1.31012772 -0.910082152
v 1.68986989 0.408347586 -0.641148295
v 1.3403247 0.830675258 -0.982090354
v 1.07767113 1.61975438 -0.674872566
v 1.41878525 1.11526681 -0.84134314
v 1.52598026 1.40450406 -0.640115919
v 1.54292843 1.53664814 -0.083837506
v 1.80936738 0.599509144 -0.761247996
v 2.07219301 1.04773224 -0.532404726
v 2.11426232 1.14589396 -0.017679433
v 1.95802947 0.829212726 -0.763656872
v 2.01696091 0.0762667512 -0.530253944
v 2.46828113 0.617231592 -0.36576209
v 2.52359926 0.674184316 0.00804392695
v 2.18136673 0.199635641 -0.669108469
v 2.37149592 0.412563119 -0.591508232
v 2.64412912 0.334962883 -0.266912121
v 2.66460457 0.344598389 0.00270998608
v 2.7270633 0.137004852 -0.0819448173
v 2.73007439 -0.0970863268 -0.273794626
v 2.76818626 -0.0194860904 0.165997402
v 2.79218899 -0.250738236 0.0339393495
v 2.72026682 -0.550643363 -0.0662871199
v 2.60877025 0.127455377 -0.495153172
v 2.41210269 -0.138123259 -0.673324003
v 2.59646778 -0.40137905 -0.439576949
v 2.41907123 -0.686744886 -0.0452954817
v 2.14600787 -0.24506017 -0.498680455
v 2.3016385 -0.536018041 -0.324983252
v 2.11477851 -0.260803899 -0.186128727
v 2.28400208 -0.519500031 0.00804392695
v 2.29793915 -0.435877603 0.170557061
vt 0.321969029 0.0706124255
vt 0.318102004 0.0706124255
vt 0.320035517 0.0725459378
vt 0.320035517 0.0686789132
vt 0.317135248 0.0667454008
vt 0.315201736 0.0696456693
vt 0.31423498 0.0638451323
vt 0.309401199 0.0657786447
vt 0.31906876 0.0638451323
vt 0.321969029 0.0667454008
vt 0.311334711 0.0609448638
vt 0.30650093 0.056111083
vt 0.303600662 0.06191162
vt 0.299733637 0.0580445953
vt 0.295866612 0.0532108145
vt 0.301667149 0.050310546
vt 0.292966344 0.0483770337
vt 0.298766881 0.0454767652
vt 0.289099319 0.038709472
vt 0.304567418 0.0454767652
vt 0.309401199 0.0532108145
vt 0.313268223 0.0580445953
vt 0.316168492 0.0609448638
vt 0.295866612 0.0367759597
vt 0.300700393 0.0358092035
vt 0.2939331 0.0261416418
vt 0.287165807 0.027108398
vt 0.2939331 0.021307861
vt 0.287165807 0.0193743487
vt 0.290066075 0.0126070555
vt 0.294899856 0.015507324
vt 0.291999588 0.00874003083
vt 0.299733637 0.0203411048
vt 0.299733637 0.0261416418
vt 0.30650093 0.0348424473
vt 0.308434443 0.044510009
vt 0.312301467 0.0512773022
vt 0.315201736 0.056111083
vt 0.31906876 0.0590113515
vt 0.321969029 0.06191162
vt 0.304567418 0.0193743487
vt 0.304567418 0.0261416418
vt 0.298766881 0.0145405678
vt 0.295866612 0.0126070555
vt 0.298766881 0.0116402993
vt 0.295866612 0.0068065185
vt 0.302633906 0.0135738117
vt 0.301667149 0.0106735432
vt 0.300700393 0.00390625
vt 0.303600662 0.0106735432
vt 0.305534174 0.00487300617
vt 0.307467686 0.0145405678
vt 0.309401199 0.00777327467
vt 0.307467686 0.0184075925
vt 0.31423498 0.0126070555
vt 0.31423498 0.00874003083
vt 0.310367955 0.0251748857
vt 0.315201736 0.015507324
vt 0.31906876 0.0106735432
vt 0.311334711 0.0348424473
vt 0.318102004 0.021307861
vt 0.322935785 0.0164740802
vt 0.320035517 0.0126070555
vt 0.324869297 0.0116402993
vt 0.330669834 0.015507324
vt 0.312301467 0.0425764967
vt 0.316168492 0.0290419103
vt 0.315201736 0.0493437898
vt 0.318102004 0.0541775707
vt 0.321002273 0.056111083
vt 0.321969029 0.0522440583
vt 0.321969029 0.0251748857
vt 0.320035517 0.0300086665
vt 0.31906876 0.0377427158
vt 0.315201736 0.0377427158
vt 0.315201736 0.0406429843
vt 0.325836054 0.0193743487
vt 0.32680281 0.0232413733
vt 0.331636591 0.0203411048
vt 0.32680281 0.0280751542
vt 0.330669834 0.0280751542
vt 0.327769566 0.032908935
vt 0.324869297 0.032908935
vt 0.322935785 0.0377427158
vt 0.32680281 0.0377427158
vt 0.328736322 0.0406429843
vt 0.322935785 0.0406429843
vt 0.31906876 0.0406429843
vt 0.322935785 0.0425764967
vt 0.327769566 0.0425764967
vt 0.328736322 0.0454767652
vt 0.31906876 0.0435432528
vt 0.322935785 0.0454767652
vt 0.328736322 0.0483770337
vt 0.316168492 0.0435432528
vt 0.320035517 0.0454767652
vt 0.318102004 0.0483770337
vt 0.323902541 0.0483770337
vt 0.32680281 0.0522440583
vt 0.321002273 0.0483770337
vt 0.32680281 0.056111083
vt 0.31906876 0.0522440583
vt 0.323902541 0.0599781077
vt 0.327769566 0.0580445953
vt 0.322935785 0.0648118885
vt 0.325836054 0.0638451323
vt 0.328736322 0.06191162
vt 0.328736322 0.0667454008
vt 0.330669834 0.0648118885
vt 0.331636591 0.0667454008
vt 0.331636591 0.0686789132
vt 0.329703078 0.0715791817
vt 0.323902541 0.0686789132
vt 0.325836054 0.0667454008
vt 0.32680281 0.0686789132
vt 0.325836054 0.0725459378
vt 0.324869297 0.0706124255
vt 0.31906876 0.989030784
vt 0.313268223 0.989030784
vt 0.315201736 0.992897809
vt 0.31423498 0.986130515
vt 0.31906876 0.982263491
vt 0.311334711 0.983230247
vt 0.323902541 0.984197003
vt 0.308434443 0.988064028
vt 0.32680281 0.978396466
vt 0.305534174 0.983230247
vt 0.302633906 0.988064028
vt 0.304567418 0.991931052
vt 0.301667149 0.988064028
vt 0.300700393 0.992897809
vt 0.300700393 0.983230247
vt 0.298766881 0.987097272
vt 0.294899856 0.98999754
vt 0.292966344 0.986130515
vt 0.296833369 0.984197003
vt 0.305534174 0.978396466
vt 0.295866612 0.981296735
vt 0.291032832 0.982263491
vt 0.300700393 0.979363222
vt 0.2939331 0.973562685
vt 0.288132563 0.976462954
vt 0.298766881 0.972595929
vt 0.2939331 0.96486188
vt 0.287165807 0.968728904
vt 0.287165807 0.95712783
vt 0.298766881 0.96486188
vt 0.294899856 0.955194318
vt 0.291032832 0.948427025
vt 0.298766881 0.955194318
vt 0.304567418 0.956161074
vt 0.305534174 0.963895124
vt 0.30650093 0.971629173
vt 0.297800125 0.947460269
vt 0.292966344 0.942626488
vt 0.295866612 0.937792707
vt 0.300700393 0.949393781
vt 0.304567418 0.950360537
vt 0.310367955 0.978396466
vt 0.315201736 0.980329978
vt 0.318102004 0.976462954
vt 0.317135248 0.971629173
vt 0.321969029 0.97742971
vt 0.321969029 0.972595929
vt 0.32680281 0.972595929
vt 0.315201736 0.963895124
vt 0.320035517 0.965828636
vt 0.323902541 0.96486188
vt 0.318102004 0.960028099
vt 0.321969029 0.960028099
vt 0.320035517 0.955194318
vt 0.313268223 0.960028099
vt 0.315201736 0.955194318
vt 0.317135248 0.953260806
vt 0.311334711 0.956161074
vt 0.311334711 0.95229405
vt 0.313268223 0.950360537
vt 0.318102004 0.951327293
vt 0.307467686 0.95229405
vt 0.31423498 0.947460269
vt 0.31906876 0.948427025
vt 0.309401199 0.950360537
vt 0.316168492 0.943593244
vt 0.321002273 0.94456
vt 0.310367955 0.946493513
vt 0.318102004 0.938759463
vt 0.323902541 0.942626488
vt 0.323902541 0.939726219
vt 0.320035517 0.935859195
vt 0.324869297 0.936825951
vt 0.32680281 0.933925682
vt 0.307467686 0.94456
vt 0.312301467 0.942626488
vt 0.303600662 0.942626488
vt 0.315201736 0.937792707
vt 0.309401199 0.940692976
vt 0.300700393 0.941659732
vt 0.30650093 0.939726219
vt 0.303600662 0.937792707
vt 0.299733637 0.933925682
vt 0.312301467 0.936825951
vt 0.307467686 0.932958926
vt 0.304567418 0.929091902
vt 0.310367955 0.934892439
vt 0.318102004 0.933925682
vt 0.311334711 0.928125145
vt 0.309401199 0.925224877
vt 0.316168492 0.932958926
vt 0.313268223 0.931025414
vt 0.313268223 0.926191633
vt 0.312301467 0.923291365
vt 0.315201736 0.923291365
vt 0.317135248 0.925224877
vt 0.317135248 0.921357852
vt 0.31906876 0.922324608
vt 0.322935785 0.923291365
vt 0.315201736 0.928125145
vt 0.318102004 0.930058658
vt 0.320035517 0.927158389
vt 0.324869297 0.926191633
vt 0.320035517 0.931025414
vt 0.322935785 0.929091902
vt 0.322935785 0.93199217
vt 0.325836054 0.929091902
vt 0.32680281 0.930058658
vn 0.966721886 0.243947945 0.0770596889
vn 0.919857247 0.384541861 0.0773963959
vn 0.966721886 0.212704853 -0.142145845
vn 0.912046474 0.361109541 0.194347956
vn 0.833938743 0.493892684 0.246203553
vn 0.818317197 0.572000415 -0.0563248641
vn 0.7011556 0.650108146 0.292814314
vn 0.630858642 0.775080516 -0.0356029105
vn 0.693344827 0.243947945 0.678057778
vn 0.787074104 0.251758718 0.563144655
vn 0.482453954 0.806323608 0.342170165
vn 0.37310313 0.845377474 0.382270822
vn 0.490264727 0.868809793 0.0693544616
vn 0.341860038 0.939106751 0.0347882874
vn 0.240319987 0.970349843 -0.0258357341
vn 0.232509214 0.900052885 0.368570575
vn -0.111164802 0.993782163 -0.00627693548
vn -0.134597122 0.892242112 0.43103089
vn -0.384407848 0.923163369 -0
vn -0.00962475188 0.540757323 0.841123583
vn 0.279373853 0.603243508 0.747025783
vn 0.388724676 0.579811188 0.716039183
vn 0.560561685 0.40797418 0.720643925
vn -0.376731088 0.806323608 0.455977989
vn -0.275191037 0.431406499 0.859161408
vn -0.603243508 0.665729692 0.439205245
vn -0.6344866 0.75945897 -0.143697
vn -0.798512835 0.454838819 0.39433349
vn -0.806323608 0.540757323 -0.239632545
vn -0.907863659 0.345487995 -0.237532361
vn -0.900052885 0.290812584 0.324550219
vn -0.98597139 0.0408678443 -0.161833984
vn -0.493892684 0.158029441 0.855041936
vn -0.384541861 0.28300181 0.878656664
vn -0.173650987 0.134597122 0.975565964
vn -0.00181397877 0.197083306 0.980385067
vn 0.14659071 0.220515626 0.964304943
vn 0.24813076 0.134597122 0.959330361
vn 0.27156308 -0.170023029 0.947283307
vn 0.107536845 -0.279373853 0.954141539
vn -0.314244903 0.00962475188 0.949293161
vn -0.267380264 0.0799217098 0.960270959
vn -0.642297373 0.095543256 0.760477199
vn -0.970349843 0.0643001636 0.232995001
vn -0.923485205 -0.0997260715 0.37044539
vn -0.974615767 -0.223884135 -0
vn -0.259569491 -0.193455349 0.946149411
vn -0.618865054 -0.4980755 0.607393482
vn -0.665729692 -0.72458792 0.178259147
vn 0.365292357 -0.740209466 0.564492197
vn 0.521507819 -0.818317197 0.24163311
vn -0.30643413 -0.7011556 0.643800395
vn -0.376731088 -0.904235701 0.201075818
vn -0.423595726 -0.232509214 0.875503356
vn -0.814134381 -0.435589315 0.383988487
vn -0.915674432 -0.396535449 0.0655741762
vn -0.18146176 -0.107536845 0.977500617
vn -0.384541861 -0.459021634 0.800891189
vn -0.587621961 -0.755831012 0.288825054
vn -0.0721109367 -0.0138075674 0.99730104
vn 0.0138075674 -0.412156996 0.911008212
vn 0.0997260715 -0.677723281 0.728523071
vn -0.30643413 -0.669912508 0.676250956
vn -0.173650987 -0.958911113 0.224354212
vn 0.334049265 -0.92766802 0.166862617
vn 0.0372398867 -0.0528614329 0.99790724
vn 0.224698441 -0.255941534 0.940215157
vn 0.0216183405 -0.060672206 0.99792361
vn 0.240319987 -0.177833803 0.95426487
vn 0.310616945 -0.818317197 0.483605292
vn 0.396535449 -0.849560289 0.347860536
vn 0.59961555 -0.419967769 0.681240241
vn 0.693344827 -0.380913903 0.611700539
vn 0.732398693 -0.435589315 0.523310714
vn 0.435589315 -0.310616945 0.844854462
vn 0.341860038 -0.388724676 0.855584502
vn 0.466832407 -0.607426323 0.642729154
vn 0.763641785 -0.37310313 0.526920562
vn 0.849560289 -0.513697046 0.119844315
vn 0.849560289 -0.287184626 0.442461643
vn 0.974532659 -0.201266122 0.0988839972
vn 0.990154205 -0.130969164 0.0494138461
vn 0.896424928 -0.302806172 0.323621338
vn 0.912046474 -0.388724676 0.130630606
vn 0.966721886 -0.240319987 -0.0877217143
vn 0.59961555 -0.732398693 -0.32257301
vn 0.693344827 -0.716777147 -0.074185394
vn 0.576183231 -0.669912508 0.468220158
vn -0.384541861 -0.912046474 -0.14247381
vn -0.345487995 -0.888614155 -0.301666917
vn -0.540757323 -0.794884878 -0.275208193
vn -0.267380264 -0.82612797 0.496004407
vn -0.587621961 -0.802695651 -0.101882888
vn -0.103354029 -0.943289567 -0.315472247
vn -0.126786348 -0.4980755 0.857814676
vn -0.579811188 -0.7011556 0.41496965
vn -0.18146176 -0.388724676 0.903307675
vn -0.095543256 -0.990154205 -0.102304136
vn 0.37310313 -0.919857247 -0.121064855
vn -0.0877324829 -0.888614155 0.450186512
vn 0.060672206 -0.997964978 0.0196159543
vn 0.162212256 -0.404346223 0.900106281
vn -0.486081911 -0.740209466 0.464558201
vn -0.6344866 -0.755831012 0.161697977
vn 0.209076895 -0.138779937 0.96800154
vn -0.6344866 -0.544940138 0.548148703
vn -0.86099902 -0.459021634 0.21904298
vn -0.275191037 -0.872992609 0.402683248
vn -0.853188247 -0.451210861 0.261684112
vn -0.837566701 -0.529318592 0.135291722
vn -0.0721109367 -0.982343432 -0.172630804
vn 0.685534054 -0.677723281 -0.265959047
vn 0.896424928 0.134597122 0.422262908
vn 0.326238491 -0.451210861 0.830648665
vn 0.552750911 -0.740209466 0.382826823
vn 0.982343432 -0.0684829791 -0.174101876
vn 0.990154205 -0.0762937522 0.117362317
vn -0.587621961 -0.755831012 0.288825054
vn -0.915674432 -0.396535449 0.0655741762
vn -0.814134381 -0.435589315 0.383988487
vn -0.814134381 -0.568372458 -0.118903148
vn -0.392352634 -0.865181835 -0.312281607
vn -0.73602665 -0.365292357 -0.569935316
vn -0.173650987 -0.958911113 0.224354212
vn -0.376731088 -0.904235701 0.201075818
vn 0.334049265 -0.92766802 0.166862617
vn -0.0799217098 -0.646480189 -0.75873308
vn 0.537129365 -0.779263331 -0.322863292
vn 0.521507819 -0.818317197 0.24163311
vn -0.376731088 -0.740209466 -0.556923365
vn -0.665729692 -0.72458792 0.178259147
vn 0.0450506598 -0.209076895 -0.976860937
vn -0.790702062 -0.287184626 -0.540661853
vn -0.974615767 -0.223884135 -0
vn -0.98597139 0.0408678443 -0.161833984
vn -0.689162012 -0.0294291136 -0.724009426
vn -0.0486786174 -0.162212256 -0.985554451
vn -0.50951423 0.197083306 -0.837587858
vn -0.907863659 0.345487995 -0.237532361
vn -0.017435525 -0.0841045253 -0.996304387
vn -0.400163407 0.337677222 -0.851964401
vn -0.806323608 0.540757323 -0.239632545
vn -0.017435525 0.00962475188 -0.999801664
vn -0.290812584 0.470460365 -0.833123692
vn -0.6344866 0.75945897 -0.143697
vn -0.384407848 0.923163369 -0
vn -0.00962475188 0.0877324829 -0.996097573
vn -0.173650987 0.712594331 -0.679746022
vn -0.111164802 0.993782163 -0.00627693548
vn -0.0564893905 0.158029441 -0.985817247
vn 0.0450506598 0.0330570712 -0.998437614
vn 0.0294291136 0.0408678443 -0.998731068
vn -0.0330570712 -0.0138075674 -0.999358085
vn 0.0450506598 0.806323608 -0.589756456
vn 0.240319987 0.970349843 -0.0258357341
vn 0.341860038 0.939106751 0.0347882874
vn -0.0252462981 0.345487995 -0.938083509
vn -0.150218668 0.0799217098 -0.985417106
vn -0.197083306 -0.130969164 -0.971599325
vn -0.384541861 -0.357481584 -0.851078419
vn -0.111164802 -0.224698441 -0.968066629
vn 0.115347618 -0.0841045253 -0.989758231
vn 0.123158391 -0.82612797 -0.549858698
vn 0.708966373 -0.443400088 -0.548418675
vn 0.849560289 -0.513697046 0.119844315
vn 0.334049265 -0.0138075674 -0.942454476
vn 0.896424928 -0.170023029 -0.409285375
vn 0.974532659 -0.201266122 0.0988839972
vn 0.982343432 -0.0841045253 -0.167116158
vn 0.990154205 -0.130969164 0.0494138461
vn 0.966721886 -0.240319987 -0.0877217143
vn 0.537129365 -0.00599679433 -0.843478561
vn 0.966721886 -0.177833803 -0.183912844
vn 0.59961555 -0.732398693 -0.32257301
vn 0.529318592 -0.0450506598 -0.847226219
vn 0.459021634 -0.7011556 -0.545600553
vn -0.431406499 -0.865181835 -0.25563416
vn -0.345487995 -0.888614155 -0.301666917
vn 0.0762937522 -0.505886273 -0.859219612
vn -0.462649592 -0.849560289 -0.253382458
vn -0.540757323 -0.794884878 -0.275208193
vn -0.462649592 -0.521507819 -0.716927437
vn -0.0643001636 -0.943289567 -0.32568433
vn -0.103354029 -0.943289567 -0.315472247
vn -0.259569491 -0.583994004 -0.769138923
vn -0.0408678443 -0.966721886 -0.252544283
vn 0.37310313 -0.919857247 -0.121064855
vn 0.060672206 -0.997964978 0.0196159543
vn -0.712594331 -0.7011556 -0.0242928692
vn -0.6344866 -0.755831012 0.161697977
vn -0.86099902 -0.459021634 0.21904298
vn 0.0216183405 0.0721109367 -0.997162304
vn 0.130969164 -0.646480189 -0.751605245
vn 0.170023029 0.447028046 -0.878213013
vn 0.0216183405 -0.716777147 -0.696967122
vn 0.310616945 -0.0450506598 -0.949466983
vn 0.310616945 0.821945154 -0.477413109
vn 0.37310313 0.384541861 -0.844346855
vn 0.482453954 0.751648197 -0.44973678
vn 0.490264727 0.868809793 0.0693544616
vn 0.240319987 -0.177833803 -0.95426487
vn 0.630858642 0.650108146 -0.42352895
vn 0.630858642 0.775080516 -0.0356029105
vn 0.459021634 0.28300181 -0.842145542
vn -0.579811188 -0.529318592 -0.619387451
vn 0.771452558 0.50951423 -0.381124913
vn 0.818317197 0.572000415 -0.0563248641
vn 0.0450506598 -0.154401483 -0.986980557
vn 0.552750911 0.228326399 -0.801457102
vn 0.880803382 0.353298768 -0.315222752
vn 0.919857247 0.384541861 0.0773963959
vn 0.966721886 0.212704853 -0.142145845
vn 0.919857247 -0.0216183405 -0.39165711
vn 0.966721886 0.243947945 0.0770596889
vn 0.982343432 -0.0684829791 -0.174101876
vn 0.685534054 -0.677723281 -0.265959047
vn 0.740209466 0.142407895 -0.657122468
vn 0.232509214 -0.255941534 -0.938314125
vn 0.537129365 -0.513697046 -0.66903467
vn -0.0721109367 -0.982343432 -0.172630804
vn -0.556378869 -0.537129365 -0.633983122
vn -0.259569491 -0.82612797 -0.500136238
vn -0.884364444 -0.466797098 -0
vn -0.837566701 -0.529318592 0.135291722
vn -0.853188247 -0.451210861 0.261684112
g snow1_6_0
f 3/3/3 2/2/2 1/1/1
f 2/2/2 4/4/4 1/1/1
f 5/5/5 4/4/4 2/2/2
f 6/6/6 5/5/5 2/2/2
f 7/7/7 5/5/5 6/6/6
f 8/8/8 7/7/7 6/6/6
f 5/5/5 9/9/9 4/4/4
f 5/5/5 7/7/7 9/9/9
f 4/4/4 10/10/10 1/1/1
f 9/9/9 10/10/10 4/4/4
f 11/11/11 7/7/7 8/8/8
f 12/12/12 11/11/11 8/8/8
f 13/13/13 12/12/12 8/8/8
f 14/14/14 12/12/12 13/13/13
f 14/14/14 15/15/15 12/12/12
f 15/15/15 16/16/16 12/12/12
f 15/15/15 17/17/17 16/16/16
f 17/17/17 18/18/18 16/16/16
f 17/17/17 19/19/19 18/18/18
f 16/16/16 20/20/20 12/12/12
f 18/18/18 20/20/20 16/16/16
f 12/12/12 21/21/21 11/11/11
f 20/20/20 21/21/21 12/12/12
f 11/11/11 22/22/22 7/7/7
f 21/21/21 22/22/22 11/11/11
f 7/7/7 23/23/23 9/9/9
f 22/22/22 23/23/23 7/7/7
f 19/19/19 24/24/24 18/18/18
f 24/24/24 25/25/25 18/18/18
f 25/25/25 20/20/20 18/18/18
f 24/24/24 19/19/19 26/26/26
f 24/24/24 26/26/26 25/25/25
f 19/19/19 27/27/27 26/26/26
f 26/26/26 27/27/27 28/28/28
f 27/27/27 29/29/29 28/28/28
f 29/29/29 30/30/30 28/28/28
f 30/30/30 31/31/31 28/28/28
f 31/31/31 30/30/30 32/32/32
f 26/26/26 28/28/28 33/33/33
f 28/28/28 31/31/31 33/33/33
f 26/26/26 34/34/34 25/25/25
f 34/34/34 26/26/26 33/33/33
f 25/25/25 35/35/35 20/20/20
f 25/25/25 34/34/34 35/35/35
f 35/35/35 36/36/36 20/20/20
f 20/20/20 36/36/36 21/21/21
f 36/36/36 37/37/37 21/21/21
f 21/21/21 37/37/37 22/22/22
f 37/37/37 38/38/38 22/22/22
f 22/22/22 38/38/38 23/23/23
f 38/38/38 39/39/39 23/23/23
f 23/23/23 39/39/39 9/9/9
f 39/39/39 40/40/40 9/9/9
f 9/9/9 40/40/40 10/10/10
f 34/34/34 33/33/33 41/41/41
f 34/34/34 42/42/42 35/35/35
f 42/42/42 34/34/34 41/41/41
f 33/33/33 43/43/43 41/41/41
f 31/31/31 43/43/43 33/33/33
f 31/31/31 44/44/44 43/43/43
f 44/44/44 31/31/31 32/32/32
f 45/45/45 44/44/44 32/32/32
f 44/44/44 45/45/45 43/43/43
f 46/46/46 45/45/45 32/32/32
f 43/43/43 45/45/45 47/47/47
f 43/43/43 47/47/47 41/41/41
f 48/48/48 45/45/45 46/46/46
f 45/45/45 48/48/48 47/47/47
f 49/49/49 48/48/48 46/46/46
f 50/50/50 48/48/48 49/49/49
f 48/48/48 50/50/50 47/47/47
f 51/51/51 50/50/50 49/49/49
f 50/50/50 52/52/52 47/47/47
f 52/52/52 50/50/50 51/51/51
f 41/41/41 47/47/47 52/52/52
f 53/53/53 52/52/52 51/51/51
f 42/42/42 41/41/41 54/54/54
f 41/41/41 52/52/52 54/54/54
f 55/55/55 52/52/52 53/53/53
f 52/52/52 55/55/55 54/54/54
f 56/56/56 55/55/55 53/53/53
f 57/57/57 42/42/42 54/54/54
f 42/42/42 57/57/57 35/35/35
f 55/55/55 58/58/58 54/54/54
f 58/58/58 55/55/55 59/59/59
f 57/57/57 60/60/60 35/35/35
f 35/35/35 60/60/60 36/36/36
f 61/61/61 57/57/57 54/54/54
f 58/58/58 61/61/61 54/54/54
f 62/62/62 61/61/61 58/58/58
f 63/63/63 58/58/58 59/59/59
f 63/63/63 62/62/62 58/58/58
f 62/62/62 63/63/63 59/59/59
f 64/64/64 62/62/62 59/59/59
f 62/62/62 64/64/64 65/65/65
f 60/60/60 66/66/66 36/36/36
f 36/36/36 66/66/66 37/37/37
f 57/57/57 61/61/61 67/67/67
f 60/60/60 57/57/57 67/67/67
f 66/66/66 68/68/68 37/37/37
f 37/37/37 68/68/68 38/38/38
f 68/68/68 69/69/69 38/38/38
f 38/38/38 69/69/69 39/39/39
f 69/69/69 70/70/70 39/39/39
f 71/71/71 70/70/70 69/69/69
f 39/39/39 70/70/70 40/40/40
f 61/61/61 62/62/62 72/72/72
f 67/67/67 61/61/61 73/73/73
f 61/61/61 72/72/72 73/73/73
f 67/67/67 73/73/73 74/74/74
f 75/75/75 60/60/60 67/67/67
f 75/75/75 67/67/67 74/74/74
f 60/60/60 75/75/75 76/76/76
f 76/76/76 75/75/75 74/74/74
f 66/66/66 60/60/60 76/76/76
f 62/62/62 77/77/77 72/72/72
f 77/77/77 62/62/62 65/65/65
f 78/78/78 77/77/77 65/65/65
f 77/77/77 78/78/78 72/72/72
f 79/79/79 78/78/78 65/65/65
f 78/78/78 79/79/79 80/80/80
f 78/78/78 80/80/80 72/72/72
f 79/79/79 81/81/81 80/80/80
f 80/80/80 81/81/81 82/82/82
f 73/73/73 72/72/72 83/83/83
f 72/72/72 80/80/80 83/83/83
f 83/83/83 80/80/80 82/82/82
f 73/73/73 83/83/83 74/74/74
f 83/83/83 82/82/82 84/84/84
f 83/83/83 84/84/84 74/74/74
f 82/82/82 85/85/85 84/84/84
f 85/85/85 86/86/86 84/84/84
f 84/84/84 87/87/87 74/74/74
f 86/86/86 87/87/87 84/84/84
f 87/87/87 88/88/88 74/74/74
f 88/88/88 76/76/76 74/74/74
f 87/87/87 86/86/86 89/89/89
f 86/86/86 90/90/90 89/89/89
f 89/89/89 90/90/90 91/91/91
f 88/88/88 87/87/87 92/92/92
f 76/76/76 88/88/88 92/92/92
f 87/87/87 89/89/89 92/92/92
f 93/93/93 89/89/89 91/91/91
f 93/93/93 91/91/91 94/94/94
f 95/95/95 76/76/76 92/92/92
f 66/66/66 76/76/76 95/95/95
f 66/66/66 95/95/95 68/68/68
f 92/92/92 89/89/89 96/96/96
f 95/95/95 92/92/92 96/96/96
f 89/89/89 93/93/93 96/96/96
f 95/95/95 97/97/97 68/68/68
f 97/97/97 95/95/95 96/96/96
f 68/68/68 97/97/97 69/69/69
f 98/98/98 93/93/93 94/94/94
f 98/98/98 94/94/94 99/99/99
f 96/96/96 93/93/93 100/100/100
f 93/93/93 98/98/98 100/100/100
f 97/97/97 96/96/96 100/100/100
f 98/98/98 99/99/99 71/71/71
f 100/100/100 98/98/98 71/71/71
f 97/97/97 100/100/100 71/71/71
f 99/99/99 101/101/101 71/71/71
f 97/97/97 102/102/102 69/69/69
f 102/102/102 71/71/71 69/69/69
f 102/102/102 97/97/97 71/71/71
f 101/101/101 70/70/70 71/71/71
f 70/70/70 101/101/101 103/103/103
f 70/70/70 103/103/103 40/40/40
f 101/101/101 104/104/104 103/103/103
f 40/40/40 103/103/103 105/105/105
f 40/40/40 105/105/105 10/10/10
f 103/103/103 104/104/104 106/106/106
f 103/103/103 106/106/106 105/105/105
f 104/104/104 107/107/107 106/106/106
f 106/106/106 107/107/107 108/108/108
f 107/107/107 109/109/109 108/108/108
f 109/109/109 110/110/110 108/108/108
f 110/110/110 111/111/111 108/108/108
f 111/111/111 112/112/112 108/108/108
f 10/10/10 105/105/105 113/113/113
f 10/10/10 113/113/113 1/1/1
f 114/114/114 105/105/105 106/106/106
f 114/114/114 106/106/106 108/108/108
f 105/105/105 114/114/114 113/113/113
f 112/112/112 115/115/115 108/108/108
f 115/115/115 114/114/114 108/108/108
f 114/114/114 115/115/115 113/113/113
f 112/112/112 116/116/116 115/115/115
f 117/117/117 116/116/116 1/1/1
f 113/113/113 117/117/117 1/1/1
f 115/115/115 117/117/117 113/113/113
f 116/116/116 117/117/117 115/115/115
f 120/120/120 119/119/119 118/118/118
f 119/119/119 121/121/121 118/118/118
f 121/121/121 122/122/122 118/118/118
f 123/123/123 121/121/121 119/119/119
f 121/121/121 123/123/123 122/122/122
f 122/122/122 124/124/124 118/118/118
f 119/119/119 125/125/125 123/123/123
f 124/124/124 122/122/122 126/126/126
f 125/125/125 127/127/127 123/123/123
f 128/128/128 127/127/127 125/125/125
f 129/129/129 128/128/128 125/125/125
f 130/130/130 128/128/128 129/129/129
f 131/131/131 130/130/130 129/129/129
f 127/127/127 128/128/128 132/132/132
f 128/128/128 130/130/130 132/132/132
f 130/130/130 131/131/131 133/133/133
f 131/131/131 134/134/134 133/133/133
f 134/134/134 135/135/135 133/133/133
f 130/130/130 133/133/133 136/136/136
f 135/135/135 136/136/136 133/133/133
f 132/132/132 130/130/130 136/136/136
f 137/137/137 127/127/127 132/132/132
f 123/123/123 127/127/127 137/137/137
f 138/138/138 136/136/136 135/135/135
f 139/139/139 138/138/138 135/135/135
f 140/140/140 132/132/132 136/136/136
f 138/138/138 140/140/140 136/136/136
f 140/140/140 137/137/137 132/132/132
f 138/138/138 139/139/139 141/141/141
f 140/140/140 138/138/138 141/141/141
f 139/139/139 142/142/142 141/141/141
f 137/137/137 140/140/140 143/143/143
f 143/143/143 140/140/140 141/141/141
f 141/141/141 142/142/142 144/144/144
f 142/142/142 145/145/145 144/144/144
f 144/144/144 145/145/145 146/146/146
f 147/147/147 143/143/143 141/141/141
f 144/144/144 147/147/147 141/141/141
f 148/148/148 144/144/144 146/146/146
f 148/148/148 146/146/146 149/149/149
f 147/147/147 144/144/144 150/150/150
f 144/144/144 148/148/148 150/150/150
f 147/147/147 150/150/150 151/151/151
f 147/147/147 152/152/152 143/143/143
f 152/152/152 147/147/147 151/151/151
f 153/153/153 137/137/137 143/143/143
f 152/152/152 153/153/153 143/143/143
f 154/154/154 148/148/148 149/149/149
f 154/154/154 149/149/149 155/155/155
f 154/154/154 155/155/155 156/156/156
f 150/150/150 148/148/148 157/157/157
f 148/148/148 154/154/154 157/157/157
f 151/151/151 150/150/150 158/158/158
f 150/150/150 157/157/157 158/158/158
f 159/159/159 137/137/137 153/153/153
f 159/159/159 123/123/123 137/137/137
f 160/160/160 123/123/123 159/159/159
f 123/123/123 160/160/160 122/122/122
f 161/161/161 160/160/160 159/159/159
f 161/161/161 159/159/159 153/153/153
f 160/160/160 161/161/161 122/122/122
f 162/162/162 161/161/161 153/153/153
f 162/162/162 153/153/153 152/152/152
f 161/161/161 163/163/163 122/122/122
f 163/163/163 161/161/161 162/162/162
f 122/122/122 163/163/163 126/126/126
f 163/163/163 164/164/164 126/126/126
f 164/164/164 163/163/163 162/162/162
f 164/164/164 165/165/165 126/126/126
f 166/166/166 162/162/162 152/152/152
f 164/164/164 162/162/162 166/166/166
f 165/165/165 164/164/164 167/167/167
f 167/167/167 164/164/164 166/166/166
f 168/168/168 165/165/165 167/167/167
f 168/168/168 167/167/167 169/169/169
f 169/169/169 167/167/167 166/166/166
f 170/170/170 168/168/168 169/169/169
f 170/170/170 169/169/169 171/171/171
f 172/172/172 166/166/166 152/152/152
f 172/172/172 169/169/169 166/166/166
f 152/152/152 151/151/151 172/172/172
f 169/169/169 173/173/173 171/171/171
f 173/173/173 169/169/169 172/172/172
f 173/173/173 174/174/174 171/171/171
f 175/175/175 173/173/173 172/172/172
f 151/151/151 175/175/175 172/172/172
f 173/173/173 175/175/175 176/176/176
f 174/174/174 173/173/173 176/176/176
f 175/175/175 151/151/151 176/176/176
f 174/174/174 176/176/176 177/177/177
f 178/178/178 174/174/174 177/177/177
f 151/151/151 179/179/179 176/176/176
f 176/176/176 179/179/179 177/177/177
f 151/151/151 158/158/158 179/179/179
f 178/178/178 177/177/177 180/180/180
f 181/181/181 178/178/178 180/180/180
f 179/179/179 182/182/182 177/177/177
f 179/179/179 158/158/158 182/182/182
f 177/177/177 182/182/182 180/180/180
f 181/181/181 180/180/180 183/183/183
f 184/184/184 181/181/181 183/183/183
f 182/182/182 185/185/185 180/180/180
f 182/182/182 158/158/158 185/185/185
f 180/180/180 185/185/185 183/183/183
f 184/184/184 183/183/183 186/186/186
f 187/187/187 184/184/184 186/186/186
f 188/188/188 187/187/187 186/186/186
f 188/188/188 186/186/186 189/189/189
f 190/190/190 188/188/188 189/189/189
f 191/191/191 190/190/190 189/189/189
f 158/158/158 192/192/192 185/185/185
f 158/158/158 157/157/157 192/192/192
f 185/185/185 193/193/193 183/183/183
f 183/183/183 193/193/193 186/186/186
f 185/185/185 192/192/192 193/193/193
f 157/157/157 194/194/194 192/192/192
f 157/157/157 154/154/154 194/194/194
f 193/193/193 195/195/195 186/186/186
f 186/186/186 195/195/195 189/189/189
f 192/192/192 196/196/196 193/193/193
f 192/192/192 194/194/194 196/196/196
f 193/193/193 196/196/196 195/195/195
f 154/154/154 197/197/197 194/194/194
f 197/197/197 154/154/154 156/156/156
f 194/194/194 198/198/198 196/196/196
f 194/194/194 197/197/197 198/198/198
f 199/199/199 197/197/197 156/156/156
f 197/197/197 199/199/199 198/198/198
f 200/200/200 199/199/199 156/156/156
f 196/196/196 201/201/201 195/195/195
f 196/196/196 198/198/198 201/201/201
f 202/202/202 199/199/199 200/200/200
f 203/203/203 202/202/202 200/200/200
f 198/198/198 199/199/199 204/204/204
f 198/198/198 204/204/204 201/201/201
f 199/199/199 202/202/202 204/204/204
f 195/195/195 201/201/201 205/205/205
f 195/195/195 205/205/205 189/189/189
f 202/202/202 203/203/203 206/206/206
f 203/203/203 207/207/207 206/206/206
f 201/201/201 204/204/204 208/208/208
f 201/201/201 208/208/208 205/205/205
f 204/204/204 202/202/202 209/209/209
f 202/202/202 206/206/206 209/209/209
f 204/204/204 209/209/209 208/208/208
f 206/206/206 207/207/207 210/210/210
f 206/206/206 210/210/210 209/209/209
f 207/207/207 211/211/211 210/210/210
f 212/212/212 210/210/210 211/211/211
f 210/210/210 212/212/212 213/213/213
f 213/213/213 212/212/212 214/214/214
f 215/215/215 213/213/213 214/214/214
f 213/213/213 215/215/215 216/216/216
f 210/210/210 217/217/217 209/209/209
f 209/209/209 217/217/217 208/208/208
f 217/217/217 210/210/210 213/213/213
f 217/217/217 218/218/218 208/208/208
f 218/218/218 217/217/217 213/213/213
f 208/208/208 218/218/218 205/205/205
f 219/219/219 213/213/213 216/216/216
f 219/219/219 218/218/218 213/213/213
f 219/219/219 216/216/216 220/220/220
f 218/218/218 221/221/221 205/205/205
f 205/205/205 221/221/221 189/189/189
f 218/218/218 219/219/219 222/222/222
f 222/222/222 219/219/219 220/220/220
f 221/221/221 218/218/218 222/222/222
f 221/221/221 223/223/223 189/189/189
f 221/221/221 222/222/222 223/223/223
f 222/222/222 220/220/220 223/223/223
f 223/223/223 191/191/191 189/189/189
f 220/220/220 224/224/224 223/223/223
f 191/191/191 223/223/223 225/225/225
f 223/223/223 224/224/224 225/225/225
