g snow1_22
v -105.242346 -6.6532811 14.4758649
v -105.882314 -6.65668519 16.113229
v -101.974426 -6.38095443 19.9087821
v -99.3805143 -6.6532811 17.0629683
v -103.938582 -6.6532811 11.9364186
v -99.0367018 -6.65668519 4.14106752
v -92.477033 -6.66008927 8.34170649
v -89.1342231 -6.66349335 -8.20894724
v -82.482644 -6.66349335 -2.92921381
v -73.5639454 -6.66349335 -22.9588408
v -67.0417215 -6.66349335 -15.7592043
v -41.6744916 -6.66349335 -41.3374874
v -36.466244 -6.66349335 -28.7696113
v 7.37835088 -6.66349335 -48.8502995
v -71.303634 -6.66008927 8.27702891
v -57.5511368 -6.66008927 -2.09861745
v -81.2878107 -6.65668519 17.743785
v -31.8264782 -6.66008927 -14.8162732
v -25.4370136 -6.62264435 6.34350951
v 4.07979401 -6.6124321 8.92720885
v -46.3891472 -6.66008927 15.7626084
v -41.2694057 -5.79204799 33.7872303
v -57.7826145 -6.65668519 23.7213555
v 6.08820325 -6.66349335 -19.9360147
v 44.8062484 -6.66008927 -9.16209061
v 6.85752611 -6.66349335 -34.8254757
v 51.8322766 -6.66349335 -23.0235184
v 42.2940348 -6.66349335 -42.1306388
v 71.1708747 -6.66349335 -24.5689723
v 88.1776756 -6.66008927 9.67270312
v 92.9365843 -6.66008927 -3.26962215
v 101.470622 -6.65668519 7.90257973
v 106.399734 -6.6532811 14.0639708
v 98.4852403 -6.65668519 21.3010522
v 100.837462 -6.15288084 23.3366941
v 108.452397 -6.66689744 15.4936858
v 104.939383 -2.50029929 22.8703347
v 110.886316 -3.22536907 16.3515149
v 106.580151 1.96926228 21.4201951
v 111.420757 1.56417635 15.9566412
v 109.170658 6.27542784 14.6358568
v 104.830452 6.6737056 19.1837123
v 104.118998 6.34691359 7.48387746
v 98.9584079 1.69012743 27.043741
v 100.01027 -2.63305855 26.2676099
v 90.5877667 -4.01511643 30.2571957
v 88.7189249 -6.66689744 28.8070562
v 99.4315755 6.67030152 11.7866389
v 95.2819978 6.53754227 -4.29084719
v 78.8368707 -6.65668519 18.0637688
v 79.3849281 6.66689744 -9.59781329
v 72.7844103 6.66349335 -27.5883943
v 29.2768197 6.66689744 -38.0287183
v 42.8386882 6.66689744 -42.791031
v 19.6500717 6.66689744 -48.9047649
v -4.87294546 6.66349335 -49.8034429
v -16.0519555 6.66689744 -38.8491024
v -30.0393344 6.66689744 -45.7321591
v -54.3206617 6.66689744 -36.3573133
v 26.5671693 6.66689744 -27.1152267
v 72.8627042 6.66689744 -1.76161319
v -60.0769668 6.66689744 -22.2235588
v -75.3510892 6.66689744 -22.3835507
v -90.7171219 6.66689744 -6.37074218
v 92.3306575 6.67030152 18.0569607
v -14.2886403 6.66689744 -27.3024513
v -89.539309 6.67030152 5.59120707
v -100.568539 6.66689744 6.97326495
v -106.052518 6.6737056 15.8919636
v -53.9496166 6.66689744 -12.1849167
v -11.4700592 6.66689744 -6.81327302
v -45.2657997 6.67030152 3.19132823
v -81.3933373 6.67030152 12.9542396
v -100.068139 6.67710969 20.9368153
v -107.860086 5.28483956 18.969255
v -101.582956 4.90358221 23.4115839
v -108.27198 0.570183978 20.2525945
v -91.5272938 6.6737056 27.288835
v 20.9504316 6.66349335 -5.90438274
v -72.3929407 6.67030152 21.4508319
v -102.393128 0.733579983 24.8106622
v -93.5663397 -0.611032979 30.4546326
v -106.927367 -4.92060263 19.5036961
v -101.722524 -3.630455 24.310262
v -105.810828 -6.67710969 18.7854345
v -100.697895 -4.86613729 23.2958451
v -93.1306171 4.99208838 29.8214731
v -84.7123187 6.41499526 32.143058
v -93.0727476 -5.1929293 29.8418976
v -86.4245727 5.10101905 35.039933
v -87.1019853 -0.233179716 35.775215
v -91.8064286 -6.66008927 28.4564356
v -68.120816 6.6737056 33.3923566
v -74.1937008 5.99969708 42.6208268
v -86.8092341 -4.99889655 35.121631
v -88.9333822 -6.65668519 25.5936014
v -72.8048348 6.65668519 40.3945563
v -75.3068361 0.665498314 44.0403296
v -75.3136443 -5.28143547 40.7553891
v -66.0715577 -6.65668519 31.4758576
v -54.3581066 6.67030152 43.972248
v -60.1927056 5.09761497 51.396554
v -74.7213338 -3.56577741 43.24037
v -61.4113675 -3.80406326 52.9045629
v -72.7265409 -6.49669326 38.0899918
v -51.845893 -6.25159926 44.3603135
v -60.4582241 -6.17330534 52.1046033
v -57.6430471 -6.66349335 49.9940716
v -58.4838557 -5.59120707 53.8202614
v -55.2567846 -6.32308501 52.4007586
v -57.4864593 -3.07218531 54.9163763
v -49.8953532 -4.42020236 46.0998001
v -61.8062412 0.2365838 53.4662367
v -56.8941487 5.44483148 51.8765297
v -59.9067626 -4.30105944 54.3921474
v -59.6242237 -2.20754812 55.0082865
v -58.3510965 2.01691944 54.4466127
v -54.4704413 -3.05856898 53.0475344
v -56.4107689 1.16589858 54.7768088
v -54.1164166 0.743792234 53.4730449
v -49.7013204 2.69433205 46.8010413
v -54.9436089 4.01511643 53.0985957
v -58.7425661 6.67710969 49.5379244
v -51.9548237 5.89417049 45.5074896
v -49.2111324 -1.69012743 46.8384862
v -40.0541479 -2.61944221 35.2407739
v -41.4396099 5.98608075 34.1718917
v -40.2345643 2.66709938 35.2646025
v -25.7706138 1.99989903 25.20894
v -25.7876342 -2.43221762 25.2157482
v -14.2614076 2.45604621 21.6516728
v -26.2914385 5.40738656 24.1196333
v -14.5133098 4.84911687 20.2525945
v -2.52412788 4.81848012 18.4041772
v -26.2233569 -6.33329726 24.1775027
v -14.360126 -2.35392371 21.7606035
v -14.7005344 -5.43461923 20.3683333
v -2.5411483 -1.96926228 19.663688
v -2.29945837 -5.36653756 18.7071406
v -2.56497688 1.79224994 19.7249616
v 9.12464569 4.95464346 18.9147897
v 8.84210676 1.96926228 20.5555579
v 8.86933943 -2.56497688 20.0721781
v 20.0211168 4.76401479 21.1751011
v 9.22676819 -5.43802331 18.5403405
v 19.3913614 1.79565402 22.8771428
v 57.0200998 6.67030152 16.6170334
v 19.4832716 -3.19132823 22.7545958
v 34.1650835 -3.45344266 29.8384935
v 20.2185537 -5.39036614 20.9606438
v 34.8969615 5.03974555 28.6436602
v 35.530121 -6.66008927 9.59100512
v 34.0493447 1.56077226 29.858918
v 47.3729273 5.79545207 40.1120173
v 73.5911781 6.6737056 32.8204706
v 46.0453348 1.39397217 40.9868668
v 35.2271576 -6.10181958 28.4870724
v 60.3595057 -6.65668519 34.2944387
v 47.9618338 -5.88736233 39.2371679
v 46.7363637 -4.54615345 40.3128583
v 97.8316563 6.60562393 25.3621237
v 92.2898085 1.31908234 31.6256373
v 72.202312 -6.59541168 41.2285567
v 45.933 -1.7377846 41.0140994
v 91.1902895 4.86954138 29.7091383
v 91.8370654 -1.40078034 31.3771392
v 73.8396762 -5.61503565 43.2880272
v 74.9698319 1.58460085 44.5577503
v 65.877525 6.43882385 48.1865033
v 75.3204525 -2.07819295 44.1833011
v 60.2267464 -2.91219339 54.4500168
v 59.5663542 -5.84651333 52.662873
v 52.78542 6.50690551 48.3464952
v 60.1178158 1.07058424 54.6814945
v 58.2251454 4.76401479 52.8739262
v 51.6042031 1.41439667 48.7992383
v 57.7894227 0.471465558 55.1070049
v 55.8729237 0.81868207 53.9802533
v 51.5667581 -2.09180928 48.5303157
v 57.5647532 -4.22957369 54.8619109
v 55.6754869 -2.87134439 53.6909062
v 52.5539423 -5.09421088 47.5329193
v 57.7281492 -6.33670134 53.8270696
v 56.6218221 -5.65588465 52.295232
v 54.1368411 -6.42180343 46.2257512
v 58.3510965 -6.37414626 50.8859415
v -107.135016 -6.66689744 16.3140699
v -105.810828 -6.67710969 18.7854345
v -101.974426 -6.38095443 19.9087821
v -105.882314 -6.65668519 16.113229
v -108.363891 -5.19973747 16.5829925
v -108.697491 -5.74439082 13.7269665
v -110.249753 -0.580396228 16.9438254
v -106.927367 -4.92060263 19.5036961
v -108.27198 0.570183978 20.2525945
v -107.860086 5.28483956 18.969255
v -107.117996 -6.66008927 13.8597258
v -105.242346 -6.6532811 14.4758649
v -103.938582 -6.6532811 11.9364186
v -106.13762 -6.66349335 11.0002957
v -110.379108 3.64747542 15.9362167
v -106.052518 6.6737056 15.8919636
v -108.656642 5.54695398 13.2537989
v -100.568539 6.66689744 6.97326495
v -111.543304 1.54375184 13.7337747
v -103.135218 5.94523175 4.68912495
v -90.7171219 6.66689744 -6.37074218
v -111.145027 -2.40158087 13.543146
v -110.328047 0.304665469 10.7552017
v -93.1544456 4.98528021 -8.24298807
v -75.3510892 6.66689744 -22.3835507
v -107.9554 -6.04395017 10.5918057
v -104.639823 1.07058424 2.74879739
v -78.4351888 6.47967285 -25.7025321
v -54.3206617 6.66689744 -36.3573133
v -102.859488 -4.47807178 2.67731163
v -94.4820382 0.74038815 -9.92120121
v -56.1963116 5.89757458 -39.5060905
v -30.0393344 6.66689744 -45.7321591
v -101.259568 -5.87715008 3.1572874
v -99.0367018 -6.65668519 4.14106752
v -93.2225273 -4.65508412 -10.0641727
v -78.5577358 -4.49849628 -26.6080183
v -79.1330259 1.21015167 -26.635251
v -91.6123958 -6.66349335 -9.56717654
v -89.1342231 -6.66349335 -8.20894724
v -76.7365512 -6.66349335 -25.3621237
v -73.5639454 -6.66349335 -22.9588408
v -43.3322803 -6.4694606 -44.4283951
v -41.6744916 -6.66349335 -41.3374874
v 7.37835088 -6.66349335 -48.8502995
v -57.4285898 1.23398025 -41.238769
v -56.9179773 -4.86273321 -41.3579119
v -31.0605594 6.26861967 -49.439206
v -4.87294546 6.66349335 -49.8034429
v -5.06697822 6.54094635 -53.9700411
v 19.6500717 6.66689744 -48.9047649
v -31.7890333 3.78704284 -51.7505786
v -31.2852289 -1.22717208 -52.7513792
v 20.0619658 4.45083911 -52.0433298
v 42.8386882 6.66689744 -42.791031
v -5.10782722 3.53514066 -55.1308335
v -31.775417 -5.25079872 -51.845893
v -5.81247249 -1.00590666 -55.2499764
v 20.4398191 2.73177697 -53.7317552
v 43.9177826 5.35632531 -45.7423714
v -5.14186805 -4.46785953 -54.5997965
v 74.6430398 5.66269282 -30.0257181
v 72.7844103 6.66349335 -27.5883943
v 21.0934031 -1.42801301 -53.8474941
v 7.47026113 -6.60562393 -52.1148156
v 20.2219577 -4.83550054 -52.9522201
v 44.7517831 -0.590608479 -48.3362829
v 44.5339217 3.25260174 -47.4614335
v 43.5126967 -6.43541976 -45.5279141
v 42.2940348 -6.66349335 -42.1306388
v 44.3194645 -4.35552477 -47.5090907
v 75.7323466 3.00069956 -31.4758576
v 76.1408366 -1.56417635 -32.3575152
v 73.3154473 -6.66689744 -27.1867125
v 71.1708747 -6.66349335 -24.5689723
v 92.9365843 -6.66008927 -3.26962215
v 75.4191709 -5.32568856 -31.3328861
v 95.2207243 -6.66008927 -5.02612921
v 96.8070272 -5.24739464 -6.22436659
v 103.734337 -6.08820325 6.34350951
v 101.470622 -6.65668519 7.90257973
v 98.0256891 -1.73438052 -7.12304462
v 107.536698 -6.65668519 12.2700188
v 106.399734 -6.6532811 14.0639708
v 109.017475 -6.5511586 12.3142719
v 108.452397 -6.66689744 15.4936858
v 110.886316 -3.22536907 16.3515149
v 105.259366 -5.16569664 5.31547631
v 111.543304 -2.7862423 11.9874799
v 111.420757 1.56417635 15.9566412
v 98.0767503 2.2518012 -6.99028536
v 106.433775 -2.13265828 4.66529637
v 111.441182 1.98968678 11.6777083
v 109.170658 6.27542784 14.6358568
v 106.328249 1.346315 5.06357413
v 97.4061459 5.04655371 -6.15628492
v 95.2819978 6.53754227 -4.29084719
v 105.429571 3.39557324 6.07458692
v 104.118998 6.34691359 7.48387746
v 109.81403 3.69513258 11.7866389
vt 0.275210992 0.10869725
vt 0.270636439 0.109612161
vt 0.264232064 0.12242091
vt 0.276125903 0.125165642
vt 0.283445188 0.109612161
vt 0.311807419 0.114186714
vt 0.309062687 0.134314749
vt 0.355723131 0.135229659
vt 0.347488935 0.155357694
vt 0.402383575 0.17731555
vt 0.386830094 0.197443585
vt 0.450873841 0.266061885
vt 0.418851968 0.281615367
vt 0.471001876 0.395979201
vt 0.329190722 0.19103921
vt 0.355723131 0.227635637
vt 0.29991358 0.168166443
vt 0.38134063 0.296253938
vt 0.321871436 0.316381972
vt 0.307232866 0.393234469
vt 0.311807419 0.261487332
vt 0.267891707 0.27246626
vt 0.301743402 0.232210191
vt 0.393234469 0.39506429
vt 0.379510809 0.497534285
vt 0.433490538 0.39506429
vt 0.415192325 0.516747409
vt 0.461852769 0.489300089
vt 0.420681789 0.57164205
vt 0.337424918 0.619217405
vt 0.364872238 0.633855975
vt 0.325531079 0.655813831
vt 0.29991358 0.662218206
vt 0.294424116 0.636600707
vt 0.28618992 0.64026035
vt 0.291679384 0.665877849
vt 0.274296081 0.649409457
vt 0.277040813 0.670452402
vt 0.260572421 0.654898921
vt 0.260572421 0.672282224
vt 0.241359297 0.668622581
vt 0.244104029 0.653069099
vt 0.212082156 0.663133117
vt 0.263317153 0.632026154
vt 0.275210992 0.635685797
vt 0.279785545 0.611898119
vt 0.288934652 0.609153387
vt 0.21757162 0.648494546
vt 0.171826086 0.644834903
vt 0.323701258 0.590855174
vt 0.148038409 0.602749013
vt 0.103207786 0.589940263
vt 0.0766753763 0.472831697
vt 0.0647815376 0.510343035
vt 0.0473982348 0.44995893
vt 0.0419087708 0.386830094
vt 0.0684411803 0.356638042
vt 0.0464833242 0.320956526
vt 0.0611218949 0.255997868
vt 0.105037607 0.46276768
vt 0.16359189 0.583535888
vt 0.0949735898 0.238614565
vt 0.0922288577 0.195613764
vt 0.132484927 0.14986823
vt 0.224890905 0.62653669
vt 0.0995481431 0.359382774
vt 0.161762069 0.152612962
vt 0.173655908 0.123335821
vt 0.205677781 0.113271803
vt 0.121505999 0.254168047
vt 0.158102426 0.363042417
vt 0.161762069 0.276125903
vt 0.175485729 0.175485729
vt 0.212082156 0.131570017
vt 0.21848653 0.111441982
vt 0.223061084 0.129740195
vt 0.234040012 0.109612161
vt 0.21848653 0.156272605
vt 0.161762069 0.442639645
vt 0.191954121 0.200188317
vt 0.236784744 0.128825285
vt 0.243189119 0.151698051
vt 0.252338225 0.110527071
vt 0.250508404 0.128825285
vt 0.259657511 0.111441982
vt 0.256912779 0.128825285
vt 0.227635637 0.154442783
vt 0.222146173 0.173655908
vt 0.255997868 0.152612962
vt 0.230380369 0.171826086
vt 0.244104029 0.169996265
vt 0.262402243 0.152612962
vt 0.212082156 0.211167245
vt 0.234040012 0.201103228
vt 0.255082957 0.169081354
vt 0.273381171 0.156272605
vt 0.228550548 0.202018138
vt 0.245933851 0.197443585
vt 0.260572421 0.194698853
vt 0.28618992 0.211167245
vt 0.232210191 0.243189119
vt 0.239529476 0.227635637
vt 0.255082957 0.197443585
vt 0.255082957 0.224890905
vt 0.268806617 0.198358496
vt 0.266976796 0.24501894
vt 0.2587426 0.226720726
vt 0.263317153 0.23129528
vt 0.257827689 0.230380369
vt 0.259657511 0.234954923
vt 0.253253136 0.232210191
vt 0.260572421 0.248678583
vt 0.247763672 0.224890905
vt 0.240444387 0.234040012
vt 0.255082957 0.227635637
vt 0.252338225 0.228550548
vt 0.245933851 0.23129528
vt 0.255082957 0.237699655
vt 0.247763672 0.234040012
vt 0.248678583 0.238614565
vt 0.24501894 0.249593493
vt 0.243189119 0.236784744
vt 0.235869833 0.23129528
vt 0.237699655 0.246848761
vt 0.254168047 0.249593493
vt 0.2587426 0.274296081
vt 0.234040012 0.273381171
vt 0.244104029 0.274296081
vt 0.246848761 0.314552151
vt 0.260572421 0.31363724
vt 0.245933851 0.345659114
vt 0.235869833 0.314552151
vt 0.236784744 0.345659114
vt 0.238614565 0.379510809
vt 0.273381171 0.311807419
vt 0.262402243 0.344744203
vt 0.273381171 0.342914382
vt 0.263317153 0.377680987
vt 0.276125903 0.377680987
vt 0.250508404 0.378595898
vt 0.241359297 0.411532682
vt 0.253253136 0.410617771
vt 0.268806617 0.409702861
vt 0.242274208 0.442639645
vt 0.279785545 0.410617771
vt 0.254168047 0.440809824
vt 0.202933049 0.535960533
vt 0.270636439 0.439894913
vt 0.27246626 0.480150983
vt 0.280700456 0.439894913
vt 0.246848761 0.481065893
vt 0.328275811 0.472831697
vt 0.257827689 0.480150983
vt 0.247763672 0.515832499
vt 0.235869833 0.576216603
vt 0.257827689 0.513087767
vt 0.281615367 0.481065893
vt 0.298083759 0.539620176
vt 0.277040813 0.515832499
vt 0.27246626 0.514002677
vt 0.248678583 0.632026154
vt 0.263317153 0.614642851
vt 0.284360099 0.567982407
vt 0.265146975 0.513087767
vt 0.251423315 0.614642851
vt 0.270636439 0.613727941
vt 0.279785545 0.569812228
vt 0.264232064 0.57255696
vt 0.255082957 0.556088568
vt 0.271551349 0.57255696
vt 0.270636439 0.546024551
vt 0.275210992 0.543279819
vt 0.252338225 0.533215801
vt 0.264232064 0.546024551
vt 0.2587426 0.542364908
vt 0.260572421 0.527726337
vt 0.266061885 0.541449998
vt 0.264232064 0.537790355
vt 0.266976796 0.526811427
vt 0.271551349 0.541449998
vt 0.269721528 0.536875444
vt 0.273381171 0.528641248
vt 0.273381171 0.540535087
vt 0.274296081 0.537790355
vt 0.277955724 0.530471069
vt 0.277955724 0.540535087
vt 0.300828491 0.965053638
vt 0.29899867 0.970543103
vt 0.302658312 0.977862388
vt 0.302658312 0.965968549
vt 0.297168848 0.963223817
vt 0.300828491 0.958649264
vt 0.287104831 0.957734353
vt 0.293509206 0.969628192
vt 0.280700456 0.962308906
vt 0.274296081 0.951329978
vt 0.304488134 0.960479085
vt 0.307232866 0.963223817
vt 0.31272233 0.958649264
vt 0.309062687 0.954989621
vt 0.282530277 0.949500157
vt 0.275210992 0.941265961
vt 0.282530277 0.942180872
vt 0.288934652 0.920223016
vt 0.288934652 0.949500157
vt 0.295339027 0.923882658
vt 0.31363724 0.893690606
vt 0.294424116 0.95407471
vt 0.294424116 0.945840514
vt 0.319126704 0.898265159
vt 0.343829292 0.854349447
vt 0.305403044 0.9531598
vt 0.305403044 0.930287033
vt 0.350233667 0.860753822
vt 0.384085362 0.813178467
vt 0.316381972 0.936691408
vt 0.3273609 0.904669534
vt 0.388659915 0.819582842
vt 0.429830896 0.772922397
vt 0.320041615 0.938521229
vt 0.325531079 0.941265961
vt 0.338339828 0.911073909
vt 0.368531881 0.876307303
vt 0.359382774 0.868988018
vt 0.342914382 0.913818641
vt 0.348403846 0.916563373
vt 0.374021345 0.879966946
vt 0.38134063 0.883626589
vt 0.431660717 0.824157395
vt 0.437150181 0.829646859
vt 0.525896516 0.77658204
vt 0.395979201 0.827817038
vt 0.405128307 0.836966144
vt 0.433490538 0.779326772
vt 0.481980804 0.744560167
vt 0.485640447 0.752794363
vt 0.535045623 0.727176864
vt 0.438065092 0.785731147
vt 0.445384377 0.793965343
vt 0.537790355 0.734496149
vt 0.58628062 0.710708472
vt 0.488385179 0.759198737
vt 0.44904402 0.801284628
vt 0.492044821 0.768347844
vt 0.539620176 0.739070703
vt 0.588110442 0.717112846
vt 0.495704464 0.774752219
vt 0.658558563 0.696984812
vt 0.656728742 0.690580437
vt 0.54419473 0.747304899
vt 0.523151784 0.770177665
vt 0.54510964 0.754624184
vt 0.591770084 0.730836507
vt 0.589940263 0.722602311
vt 0.595429727 0.745475077
vt 0.598174459 0.752794363
vt 0.594514816 0.739070703
vt 0.660388385 0.703389186
vt 0.662218206 0.712538293
vt 0.669537492 0.729921596
vt 0.670452402 0.737240881
vt 0.734496149 0.717112846
vt 0.664962938 0.720772489
vt 0.732666328 0.710708472
vt 0.731751417 0.706133918
vt 0.761943469 0.702474276
vt 0.763773291 0.70887865
vt 0.729921596 0.697899722
vt 0.777496951 0.700644454
vt 0.780241683 0.703389186
vt 0.778411861 0.697899722
vt 0.784816236 0.699729544
vt 0.787560968 0.689665526
vt 0.761028559 0.698814633
vt 0.778411861 0.688750616
vt 0.784816236 0.677771688
vt 0.728091775 0.689665526
vt 0.760113648 0.691495348
vt 0.775667129 0.679601509
vt 0.777496951 0.66770767
vt 0.759198737 0.684176062
vt 0.727176864 0.683261152
vt 0.726261953 0.675941866
vt 0.758283827 0.678686598
vt 0.758283827 0.671367313
vt 0.773837308 0.675026956
vn -0.00392153847 -0.999992311 -0
vn 0.0117638918 -0.999930803 -0
vn -0.0823523129 -0.992149293 0.0941162929
vn -0.00392153847 -0.999992311 -0
vn -0.0196040749 -0.999807822 -0
vn -0.0352721557 -0.999377744 -0
vn -0.00392153847 -0.999992311 -0
vn -0.0117638918 -0.999930803 -0
vn -0.00392153847 -0.999992311 -0
vn -0.00392153847 -0.999992311 -0
vn 0.00392153847 -0.999992311 -0
vn -0.00392153847 -0.999992311 -0
vn -0.00392153847 -0.999992311 -0
vn 0.00392153847 -0.999992311 -0
vn -0.00392153847 -0.999992311 -0
vn 0.00392153847 -0.999992311 -0
vn -0.00392153847 -0.999992311 -0
vn 0.00392153847 -0.999992311 -0
vn 0.00392153847 -0.999992311 -0
vn -0.00392153847 -0.999992311 -0
vn 0.00392153847 -0.999992311 -0
vn 0.113724623 -0.984306216 0.134936962
vn 0.0117638918 -0.999930803 -0
vn -0.00392153847 -0.999992311 -0
vn -0.00392153847 -0.999992311 -0
vn -0.00392153847 -0.999992311 -0
vn -0.00392153847 -0.999992311 -0
vn 0.00392153847 -0.999992311 -0
vn 0.00392153847 -0.999992311 -0
vn 0.00392153847 -0.999992311 -0
vn 0.00392153847 -0.999992311 -0
vn 0.0196040749 -0.999807822 -0
vn 0.0117638918 -0.999930803 -0
vn 0.0352721557 -0.999377744 -0
vn 0.341173868 -0.796072358 0.499869176
vn 0.505878493 -0.780386203 0.367538194
vn 0.639210809 -0.278429248 0.716858909
vn 0.796072358 -0.325487713 0.51022206
vn 0.662740042 0.254900016 0.704131819
vn 0.858816977 0.207841552 0.468225682
vn 0.450976951 0.890189287 0.0646747476
vn 0.278429248 0.921561596 0.270557531
vn 0.184312319 0.976463138 -0.112021018
vn 0.54509388 0.254900016 0.798685572
vn 0.505878493 -0.270586171 0.819066587
vn 0.443133874 -0.654896964 0.612162018
vn 0.0588230806 -0.992149293 0.110361339
vn 0.0117638918 0.999930803 -0
vn 0.15294001 0.984306216 -0.0880376456
vn 0.00392153847 -0.999992311 -0
vn 0.00392153847 0.999992311 -0
vn 0.050914272 0.998703027 -0
vn 0.00392153847 0.999992311 -0
vn 0.0274406433 0.999623435 -0
vn 0.0196076935 0.992149293 -0.123512422
vn 0.00392153847 0.999992311 -0
vn -0.00392153847 0.999992311 -0
vn -0.0117638918 0.999930803 -0
vn -0.0117638918 0.999930803 -0
vn -0.00392153847 0.999992311 -0
vn -0.00392153847 0.999992311 -0
vn -0.00392153847 0.999992311 -0
vn -0.0352721557 0.999377744 -0
vn -0.050914272 0.998703027 -0
vn 0.00392153847 0.999992311 -0
vn 0.00392153847 0.999992311 -0
vn -0.00392153847 0.999992311 -0
vn -0.0823523129 0.992149293 -0.0941162929
vn -0.113724623 0.992149293 0.0520239392
vn -0.00392153847 0.999992311 -0
vn 0.00392153847 0.999992311 -0
vn 0.0117638918 0.999930803 -0
vn 0.00392153847 0.999992311 -0
vn -0.050914272 0.998703027 -0
vn -0.568623113 0.6078385 0.554256361
vn -0.474506184 0.568623113 0.671946157
vn -0.701955429 0.0196076935 0.711950921
vn -0.0430971754 0.999070885 -0
vn -0.00392153847 0.999992311 -0
vn -0.00392153847 0.999992311 -0
vn -0.584309268 0.0823523129 0.807341797
vn -0.599995422 0.0117646161 0.799916925
vn -0.647053887 -0.372546177 0.665229745
vn -0.560780035 -0.317644635 0.764609467
vn -0.317644635 -0.8509739 0.418264638
vn -0.474506184 -0.623524655 0.621337981
vn -0.505878493 0.521564648 0.687064238
vn -0.0430971754 0.999070885 -0
vn -0.505878493 -0.568623113 0.648656077
vn -0.498035416 0.537250803 0.680677823
vn -0.584309268 0.0352938484 0.810763236
vn -0.145096932 -0.968620061 0.201797071
vn -0.00392153847 0.999992311 -0
vn -0.443133874 0.599995422 0.666061456
vn -0.498035416 -0.505878493 0.70430652
vn -0.0196040749 -0.999807822 -0
vn -0.0588230806 0.992149293 0.110361339
vn -0.552936958 0.105881545 0.826468281
vn -0.192155397 -0.937247751 0.290934625
vn 0.0117638918 -0.999930803 -0
vn 0.0352721557 0.999377744 -0
vn -0.403918487 0.6078385 0.683653578
vn -0.54509388 -0.33333079 0.769261494
vn -0.568623113 -0.349016945 0.744885849
vn -0.0274406433 -0.999623435 -0
vn 0.0980384677 -0.992149293 0.0776417341
vn -0.286272326 -0.890189287 0.354416689
vn 0.00392153847 -0.999992311 -0
vn 0.0431369258 -0.733327738 0.678505441
vn 0.505878493 -0.725484661 0.466646501
vn 0.278429248 -0.192155397 0.941038499
vn 0.623524655 -0.615681577 0.48182279
vn -0.54509388 0.168626164 0.821241669
vn 0.239213861 0.81960159 0.520605381
vn -0.466663106 -0.3647031 0.805740153
vn -0.341173868 -0.0352938484 0.939337392
vn -0.207841552 0.450976951 0.867998663
vn 0.709798506 -0.184312319 0.679863993
vn 0.239213861 0.15294001 0.958846224
vn 0.733327738 0.027450771 0.679320899
vn 0.741170816 0.309801558 0.595557568
vn 0.521564648 0.615681577 0.59068309
vn -0.0117646161 0.992149293 0.124504513
vn 0.215684629 0.960776984 0.174320764
vn 0.78822928 -0.066666158 0.611759941
vn 0.647053887 -0.215684629 0.731301175
vn 0.176469242 0.976463138 0.12400946
vn 0.647053887 0.231370784 0.726490762
vn 0.466663106 0.176469242 0.866651113
vn 0.458820029 -0.168626164 0.872381452
vn 0.231370784 0.192155397 0.953700091
vn 0.0745092355 0.992149293 0.100439802
vn 0.0431369258 0.992149293 0.117383924
vn 0.00392153871 0.992149293 0.124997606
vn 0.0901953903 -0.984306216 0.151677504
vn 0.231370784 -0.15294001 0.960768918
vn 0.0588230806 -0.968620061 0.241485036
vn 0.066666158 -0.176469242 0.982045941
vn 0.0117646161 -0.960776984 0.277072521
vn 0.0588230806 0.184312319 0.981105914
vn -0.0117646161 0.992149293 0.124504513
vn -0.137253855 0.184312319 0.973237046
vn -0.129410777 -0.239213861 0.962304307
vn -0.066666158 0.992149293 0.105808333
vn -0.027450771 -0.968620061 0.247025571
vn -0.349016945 0.192155397 0.917204162
vn -0.0117638918 0.999930803 -0
vn -0.349016945 -0.270586171 0.897201369
vn -0.529407726 -0.270586171 0.804058819
vn -0.066666158 -0.976463138 0.205122799
vn -0.105881545 0.984306216 0.141174969
vn -0.00392153847 -0.999992311 -0
vn -0.552936958 0.192155397 0.810763236
vn -0.145096932 0.984306216 0.100439802
vn 0.0117638918 0.999930803 -0
vn -0.725484661 0.184312319 0.663099522
vn -0.0901953903 -0.992149293 0.0866289305
vn -0.00392153847 -0.999992311 -0
vn -0.0901953903 -0.992149293 0.0866289305
vn -0.592152345 -0.568623113 0.57098455
vn 0.184312319 0.929404674 0.319743524
vn 0.560780035 0.286272326 0.776900192
vn 0.0509800032 -0.992149293 0.114196407
vn -0.725484661 -0.129410777 0.675962172
vn 0.254900016 0.882346209 0.395589622
vn 0.552936958 -0.294115403 0.779587616
vn 0.450976951 -0.670583119 0.58901449
vn 0.568623113 0.301958481 0.76517242
vn 0.215684629 0.898032364 0.383429281
vn 0.57646619 -0.270586171 0.771018713
vn 0.513721571 -0.231370784 0.826170508
vn 0.39607541 -0.709798506 0.58250352
vn -0.129410777 0.984306216 0.119975515
vn 0.474506184 0.223527706 0.851398406
vn 0.0509800032 0.890189287 0.45272958
vn -0.764700048 0.192155397 0.615069216
vn -0.15294001 0.176469242 0.972351768
vn -0.631367732 0.215684629 0.744885849
vn -0.780386203 -0.207841552 0.589745084
vn -0.15294001 -0.309801558 0.938420134
vn -0.725484661 -0.207841552 0.656105095
vn -0.631367732 -0.623524655 0.461076775
vn -0.0980384677 -0.764700048 0.636884837
vn -0.584309268 -0.694112351 0.42046489
vn -0.0745092355 -0.992149293 0.100439802
vn 0.00392153847 -0.999992311 -0
vn -0.419604642 -0.890189287 0.177468246
vn -0.317644635 -0.8509739 0.418264638
vn -0.0823523129 -0.992149293 0.0941162929
vn 0.0117638918 -0.999930803 -0
vn -0.796072358 -0.450976951 0.403594587
vn -0.81960159 -0.568623113 -0.0701497636
vn -0.874503132 -0.145096932 0.4628079
vn -0.647053887 -0.372546177 0.665229745
vn -0.701955429 0.0196076935 0.711950921
vn -0.568623113 0.6078385 0.554256361
vn -0.294115403 -0.952933906 0.0735737741
vn -0.00392153847 -0.999992311 -0
vn -0.0196040749 -0.999807822 -0
vn -0.254900016 -0.945090829 -0.204522144
vn -0.874503132 0.443133874 0.197171605
vn -0.113724623 0.992149293 0.0520239392
vn -0.599995422 0.741170816 -0.301116779
vn -0.0823523129 0.992149293 -0.0941162929
vn -0.960776984 0.254900016 -0.10924088
vn -0.568623113 0.701955429 -0.428866333
vn -0.050914272 0.998703027 -0
vn -0.929404674 -0.3647031 -0.056556177
vn -0.843130822 0.0980384677 -0.528695447
vn -0.568623113 0.678426197 -0.465194208
vn -0.0352721557 0.999377744 -0
vn -0.741170816 -0.435290797 -0.511065303
vn -0.796072358 0.113724623 -0.594420315
vn -0.474506184 0.686269274 -0.551251635
vn -0.0117638918 0.999930803 -0
vn -0.741170816 -0.3647031 -0.563611099
vn -0.764700048 0.0980384677 -0.636884837
vn -0.309801558 0.756856971 -0.575491547
vn -0.0117638918 0.999930803 -0
vn -0.349016945 -0.898032364 -0.267815319
vn -0.0352721557 -0.999377744 -0
vn -0.725484661 -0.317644635 -0.610552121
vn -0.592152345 -0.372546177 -0.714538275
vn -0.647053887 0.113724623 -0.7539151
vn -0.33333079 -0.905875442 -0.261304934
vn -0.0117638918 -0.999930803 -0
vn -0.199998474 -0.945090829 -0.258464574
vn -0.00392153847 -0.999992311 -0
vn -0.0588230806 -0.984306216 -0.166376437
vn -0.00392153847 -0.999992311 -0
vn 0.00392153847 -0.999992311 -0
vn -0.482349261 0.160783087 -0.861096969
vn -0.435290797 -0.458820029 -0.774600609
vn -0.168626164 0.835287745 -0.523315966
vn 0.00392153847 0.999992311 -0
vn -0.00392153871 0.843130822 -0.537694186
vn 0.0196076935 0.992149293 -0.123512422
vn -0.247056939 0.349016945 -0.903963518
vn -0.239213861 -0.0196076935 -0.970768905
vn 0.105881545 0.796072358 -0.595867351
vn 0.0274406433 0.999623435 -0
vn -0.027450771 0.262743093 -0.964475257
vn -0.168626164 -0.717641584 -0.675689111
vn -0.0352938484 -0.0509800032 -0.998075841
vn 0.137253855 0.278429248 -0.950599039
vn 0.215684629 0.796072358 -0.565463475
vn -0.027450771 -0.780386203 -0.624694989
vn 0.39607541 0.764700048 -0.508289392
vn 0.050914272 0.998703027 -0
vn 0.15294001 -0.066666158 -0.985984268
vn 0.00392153871 -0.976463138 -0.215648698
vn 0.129410777 -0.568623113 -0.812354976
vn 0.372546177 -0.027450771 -0.927607568
vn 0.349016945 0.372546177 -0.859881688
vn 0.0980384677 -0.952933906 -0.286889229
vn 0.00392153847 -0.999992311 -0
vn 0.286272326 -0.6078385 -0.740662213
vn 0.584309268 0.317644635 -0.74678281
vn 0.6078385 -0.066666158 -0.791257216
vn 0.15294001 -0.968620061 -0.195919705
vn 0.00392153847 -0.999992311 -0
vn 0.00392153847 -0.999992311 -0
vn 0.466663106 -0.631367732 -0.619354771
vn 0.192155397 -0.968620061 -0.157643525
vn 0.592152345 -0.639210809 -0.490678246
vn 0.223527706 -0.960776984 -0.164143085
vn 0.0196040749 -0.999807822 -0
vn 0.764700048 -0.129410777 -0.631258019
vn 0.1215677 -0.984306216 -0.127916254
vn 0.0117638918 -0.999930803 -0
vn 0.701955429 -0.647053887 -0.297623661
vn 0.505878493 -0.780386203 0.367538194
vn 0.796072358 -0.325487713 0.51022206
vn 0.647053887 -0.599995422 -0.470453782
vn 0.905875442 -0.239213861 -0.349523122
vn 0.858816977 0.207841552 0.468225682
vn 0.749013893 0.247056939 -0.614769108
vn 0.796072358 -0.184312319 -0.576452748
vn 0.905875442 0.207841552 -0.369041426
vn 0.450976951 0.890189287 0.0646747476
vn 0.803915435 0.207841552 -0.557244886
vn 0.560780035 0.694112351 -0.451368802
vn 0.15294001 0.984306216 -0.0880376456
vn 0.662740042 0.599995422 -0.448086075
vn 0.184312319 0.976463138 -0.112021018
vn 0.709798506 0.584309268 -0.39340661
g snow1_22_0
f 3/3/3 2/2/2 1/1/1
f 4/4/4 3/3/3 1/1/1
f 5/5/5 4/4/4 1/1/1
f 5/5/5 6/6/6 4/4/4
f 6/6/6 7/7/7 4/4/4
f 6/6/6 8/8/8 7/7/7
f 8/8/8 9/9/9 7/7/7
f 8/8/8 10/10/10 9/9/9
f 10/10/10 11/11/11 9/9/9
f 10/10/10 12/12/12 11/11/11
f 12/12/12 13/13/13 11/11/11
f 12/12/12 14/14/14 13/13/13
f 7/7/7 9/9/9 15/15/15
f 9/9/9 11/11/11 16/16/16
f 15/15/15 9/9/9 16/16/16
f 4/4/4 7/7/7 17/17/17
f 17/17/17 7/7/7 15/15/15
f 11/11/11 13/13/13 18/18/18
f 16/16/16 11/11/11 18/18/18
f 16/16/16 18/18/18 19/19/19
f 19/19/19 18/18/18 20/20/20
f 15/15/15 16/16/16 21/21/21
f 21/21/21 16/16/16 19/19/19
f 21/21/21 19/19/19 22/22/22
f 23/23/23 15/15/15 21/21/21
f 17/17/17 15/15/15 23/23/23
f 23/23/23 21/21/21 22/22/22
f 18/18/18 13/13/13 24/24/24
f 18/18/18 24/24/24 20/20/20
f 24/24/24 25/25/25 20/20/20
f 13/13/13 26/26/26 24/24/24
f 24/24/24 26/26/26 25/25/25
f 14/14/14 26/26/26 13/13/13
f 26/26/26 14/14/14 27/27/27
f 26/26/26 27/27/27 25/25/25
f 14/14/14 28/28/28 27/27/27
f 28/28/28 29/29/29 27/27/27
f 27/27/27 29/29/29 30/30/30
f 27/27/27 30/30/30 25/25/25
f 29/29/29 31/31/31 30/30/30
f 31/31/31 32/32/32 30/30/30
f 32/32/32 33/33/33 30/30/30
f 33/33/33 34/34/34 30/30/30
f 35/35/35 34/34/34 33/33/33
f 36/36/36 35/35/35 33/33/33
f 35/35/35 36/36/36 37/37/37
f 36/36/36 38/38/38 37/37/37
f 37/37/37 38/38/38 39/39/39
f 38/38/38 40/40/40 39/39/39
f 39/39/39 40/40/40 41/41/41
f 42/42/42 39/39/39 41/41/41
f 41/41/41 43/43/43 42/42/42
f 37/37/37 39/39/39 44/44/44
f 44/44/44 39/39/39 42/42/42
f 35/35/35 37/37/37 45/45/45
f 45/45/45 37/37/37 44/44/44
f 34/34/34 35/35/35 46/46/46
f 35/35/35 45/45/45 46/46/46
f 34/34/34 47/47/47 30/30/30
f 47/47/47 34/34/34 46/46/46
f 43/43/43 48/48/48 42/42/42
f 48/48/48 43/43/43 49/49/49
f 47/47/47 50/50/50 30/30/30
f 30/30/30 50/50/50 25/25/25
f 51/51/51 48/48/48 49/49/49
f 52/52/52 51/51/51 49/49/49
f 53/53/53 51/51/51 52/52/52
f 54/54/54 53/53/53 52/52/52
f 55/55/55 53/53/53 54/54/54
f 55/55/55 56/56/56 53/53/53
f 56/56/56 57/57/57 53/53/53
f 57/57/57 56/56/56 58/58/58
f 57/57/57 58/58/58 59/59/59
f 53/53/53 60/60/60 51/51/51
f 53/53/53 57/57/57 60/60/60
f 51/51/51 61/61/61 48/48/48
f 60/60/60 61/61/61 51/51/51
f 62/62/62 57/57/57 59/59/59
f 62/62/62 59/59/59 63/63/63
f 62/62/62 63/63/63 64/64/64
f 61/61/61 65/65/65 48/48/48
f 48/48/48 65/65/65 42/42/42
f 57/57/57 66/66/66 60/60/60
f 66/66/66 57/57/57 62/62/62
f 67/67/67 62/62/62 64/64/64
f 67/67/67 64/64/64 68/68/68
f 67/67/67 68/68/68 69/69/69
f 70/70/70 66/66/66 62/62/62
f 70/70/70 62/62/62 67/67/67
f 66/66/66 71/71/71 60/60/60
f 71/71/71 66/66/66 70/70/70
f 72/72/72 71/71/71 70/70/70
f 72/72/72 70/70/70 73/73/73
f 73/73/73 70/70/70 67/67/67
f 74/74/74 67/67/67 69/69/69
f 73/73/73 67/67/67 74/74/74
f 69/69/69 75/75/75 74/74/74
f 75/75/75 76/76/76 74/74/74
f 75/75/75 77/77/77 76/76/76
f 78/78/78 73/73/73 74/74/74
f 74/74/74 76/76/76 78/78/78
f 71/71/71 79/79/79 60/60/60
f 60/60/60 79/79/79 61/61/61
f 80/80/80 72/72/72 73/73/73
f 80/80/80 73/73/73 78/78/78
f 77/77/77 81/81/81 76/76/76
f 76/76/76 81/81/81 82/82/82
f 77/77/77 83/83/83 81/81/81
f 83/83/83 84/84/84 81/81/81
f 81/81/81 84/84/84 82/82/82
f 83/83/83 85/85/85 84/84/84
f 85/85/85 86/86/86 84/84/84
f 84/84/84 86/86/86 82/82/82
f 85/85/85 3/3/3 86/86/86
f 76/76/76 87/87/87 78/78/78
f 87/87/87 76/76/76 82/82/82
f 88/88/88 80/80/80 78/78/78
f 78/78/78 87/87/87 88/88/88
f 86/86/86 3/3/3 89/89/89
f 86/86/86 89/89/89 82/82/82
f 90/90/90 87/87/87 82/82/82
f 87/87/87 90/90/90 88/88/88
f 91/91/91 90/90/90 82/82/82
f 82/82/82 89/89/89 91/91/91
f 3/3/3 92/92/92 89/89/89
f 3/3/3 4/4/4 92/92/92
f 93/93/93 80/80/80 88/88/88
f 72/72/72 80/80/80 93/93/93
f 88/88/88 90/90/90 94/94/94
f 90/90/90 91/91/91 94/94/94
f 89/89/89 95/95/95 91/91/91
f 89/89/89 92/92/92 95/95/95
f 4/4/4 96/96/96 92/92/92
f 96/96/96 4/4/4 17/17/17
f 97/97/97 93/93/93 88/88/88
f 97/97/97 88/88/88 94/94/94
f 91/91/91 98/98/98 94/94/94
f 91/91/91 95/95/95 98/98/98
f 92/92/92 99/99/99 95/95/95
f 92/92/92 96/96/96 99/99/99
f 96/96/96 17/17/17 100/100/100
f 100/100/100 17/17/17 23/23/23
f 101/101/101 93/93/93 97/97/97
f 101/101/101 72/72/72 93/93/93
f 97/97/97 94/94/94 102/102/102
f 94/94/94 98/98/98 102/102/102
f 95/95/95 103/103/103 98/98/98
f 95/95/95 99/99/99 103/103/103
f 98/98/98 103/103/103 104/104/104
f 103/103/103 99/99/99 104/104/104
f 96/96/96 105/105/105 99/99/99
f 105/105/105 96/96/96 100/100/100
f 100/100/100 23/23/23 106/106/106
f 23/23/23 22/22/22 106/106/106
f 99/99/99 105/105/105 107/107/107
f 99/99/99 107/107/107 104/104/104
f 108/108/108 105/105/105 100/100/100
f 105/105/105 108/108/108 107/107/107
f 106/106/106 108/108/108 100/100/100
f 107/107/107 108/108/108 109/109/109
f 104/104/104 107/107/107 109/109/109
f 108/108/108 106/106/106 110/110/110
f 108/108/108 110/110/110 109/109/109
f 109/109/109 110/110/110 111/111/111
f 106/106/106 112/112/112 110/110/110
f 106/106/106 22/22/22 112/112/112
f 113/113/113 98/98/98 104/104/104
f 98/98/98 113/113/113 102/102/102
f 102/102/102 113/113/113 114/114/114
f 115/115/115 104/104/104 109/109/109
f 115/115/115 109/109/109 111/111/111
f 115/115/115 116/116/116 104/104/104
f 116/116/116 113/113/113 104/104/104
f 116/116/116 115/115/115 111/111/111
f 116/116/116 117/117/117 113/113/113
f 113/113/113 117/117/117 114/114/114
f 117/117/117 116/116/116 111/111/111
f 110/110/110 118/118/118 111/111/111
f 110/110/110 112/112/112 118/118/118
f 119/119/119 117/117/117 111/111/111
f 114/114/114 117/117/117 119/119/119
f 120/120/120 119/119/119 111/111/111
f 118/118/118 120/120/120 111/111/111
f 120/120/120 118/118/118 121/121/121
f 119/119/119 120/120/120 122/122/122
f 122/122/122 114/114/114 119/119/119
f 120/120/120 121/121/121 122/122/122
f 122/122/122 121/121/121 114/114/114
f 123/123/123 102/102/102 114/114/114
f 123/123/123 97/97/97 102/102/102
f 123/123/123 101/101/101 97/97/97
f 114/114/114 124/124/124 123/123/123
f 124/124/124 101/101/101 123/123/123
f 121/121/121 124/124/124 114/114/114
f 112/112/112 125/125/125 118/118/118
f 118/118/118 125/125/125 121/121/121
f 125/125/125 112/112/112 126/126/126
f 121/121/121 125/125/125 126/126/126
f 22/22/22 126/126/126 112/112/112
f 124/124/124 127/127/127 101/101/101
f 127/127/127 72/72/72 101/101/101
f 121/121/121 128/128/128 124/124/124
f 128/128/128 121/121/121 126/126/126
f 128/128/128 127/127/127 124/124/124
f 128/128/128 126/126/126 129/129/129
f 127/127/127 128/128/128 129/129/129
f 126/126/126 22/22/22 130/130/130
f 126/126/126 130/130/130 129/129/129
f 129/129/129 130/130/130 131/131/131
f 132/132/132 127/127/127 129/129/129
f 127/127/127 132/132/132 72/72/72
f 132/132/132 129/129/129 131/131/131
f 72/72/72 132/132/132 133/133/133
f 133/133/133 132/132/132 131/131/131
f 71/71/71 72/72/72 133/133/133
f 133/133/133 134/134/134 71/71/71
f 133/133/133 131/131/131 134/134/134
f 71/71/71 134/134/134 79/79/79
f 22/22/22 135/135/135 130/130/130
f 19/19/19 135/135/135 22/22/22
f 130/130/130 135/135/135 136/136/136
f 130/130/130 136/136/136 131/131/131
f 135/135/135 19/19/19 137/137/137
f 135/135/135 137/137/137 136/136/136
f 131/131/131 136/136/136 138/138/138
f 136/136/136 137/137/137 138/138/138
f 137/137/137 19/19/19 139/139/139
f 137/137/137 139/139/139 138/138/138
f 19/19/19 20/20/20 139/139/139
f 131/131/131 140/140/140 134/134/134
f 140/140/140 131/131/131 138/138/138
f 134/134/134 140/140/140 141/141/141
f 134/134/134 141/141/141 79/79/79
f 140/140/140 138/138/138 142/142/142
f 140/140/140 142/142/142 141/141/141
f 138/138/138 139/139/139 143/143/143
f 138/138/138 143/143/143 142/142/142
f 141/141/141 144/144/144 79/79/79
f 141/141/141 142/142/142 144/144/144
f 139/139/139 20/20/20 145/145/145
f 139/139/139 145/145/145 143/143/143
f 142/142/142 143/143/143 146/146/146
f 142/142/142 146/146/146 144/144/144
f 79/79/79 144/144/144 147/147/147
f 79/79/79 147/147/147 61/61/61
f 61/61/61 147/147/147 65/65/65
f 143/143/143 145/145/145 148/148/148
f 143/143/143 148/148/148 146/146/146
f 146/146/146 148/148/148 149/149/149
f 145/145/145 150/150/150 148/148/148
f 145/145/145 20/20/20 150/150/150
f 148/148/148 150/150/150 149/149/149
f 144/144/144 146/146/146 151/151/151
f 144/144/144 151/151/151 147/147/147
f 20/20/20 152/152/152 150/150/150
f 25/25/25 152/152/152 20/20/20
f 146/146/146 153/153/153 151/151/151
f 153/153/153 146/146/146 149/149/149
f 151/151/151 154/154/154 147/147/147
f 151/151/151 153/153/153 154/154/154
f 147/147/147 155/155/155 65/65/65
f 147/147/147 154/154/154 155/155/155
f 153/153/153 156/156/156 154/154/154
f 153/153/153 149/149/149 156/156/156
f 150/150/150 157/157/157 149/149/149
f 150/150/150 152/152/152 157/157/157
f 158/158/158 152/152/152 25/25/25
f 50/50/50 158/158/158 25/25/25
f 157/157/157 152/152/152 159/159/159
f 152/152/152 158/158/158 159/159/159
f 149/149/149 157/157/157 160/160/160
f 157/157/157 159/159/159 160/160/160
f 65/65/65 155/155/155 161/161/161
f 65/65/65 161/161/161 42/42/42
f 161/161/161 44/44/44 42/42/42
f 162/162/162 44/44/44 161/161/161
f 45/45/45 44/44/44 162/162/162
f 163/163/163 158/158/158 50/50/50
f 47/47/47 163/163/163 50/50/50
f 149/149/149 160/160/160 164/164/164
f 149/149/149 164/164/164 156/156/156
f 155/155/155 165/165/165 161/161/161
f 165/165/165 162/162/162 161/161/161
f 166/166/166 45/45/45 162/162/162
f 45/45/45 166/166/166 46/46/46
f 47/47/47 46/46/46 167/167/167
f 163/163/163 47/47/47 167/167/167
f 46/46/46 166/166/166 167/167/167
f 168/168/168 162/162/162 165/165/165
f 166/166/166 162/162/162 168/168/168
f 155/155/155 169/169/169 165/165/165
f 169/169/169 168/168/168 165/165/165
f 166/166/166 170/170/170 167/167/167
f 170/170/170 166/166/166 168/168/168
f 167/167/167 170/170/170 171/171/171
f 170/170/170 168/168/168 171/171/171
f 163/163/163 167/167/167 172/172/172
f 172/172/172 167/167/167 171/171/171
f 155/155/155 173/173/173 169/169/169
f 154/154/154 173/173/173 155/155/155
f 154/154/154 156/156/156 173/173/173
f 174/174/174 168/168/168 169/169/169
f 168/168/168 174/174/174 171/171/171
f 173/173/173 175/175/175 169/169/169
f 175/175/175 174/174/174 169/169/169
f 156/156/156 176/176/176 173/173/173
f 173/173/173 176/176/176 175/175/175
f 156/156/156 164/164/164 176/176/176
f 177/177/177 174/174/174 175/175/175
f 174/174/174 177/177/177 171/171/171
f 176/176/176 178/178/178 175/175/175
f 178/178/178 177/177/177 175/175/175
f 164/164/164 179/179/179 176/176/176
f 176/176/176 179/179/179 178/178/178
f 164/164/164 160/160/160 179/179/179
f 177/177/177 180/180/180 171/171/171
f 180/180/180 177/177/177 178/178/178
f 179/179/179 181/181/181 178/178/178
f 181/181/181 180/180/180 178/178/178
f 160/160/160 182/182/182 179/179/179
f 179/179/179 182/182/182 181/181/181
f 160/160/160 159/159/159 182/182/182
f 180/180/180 183/183/183 171/171/171
f 183/183/183 180/180/180 181/181/181
f 183/183/183 172/172/172 171/171/171
f 184/184/184 183/183/183 181/181/181
f 182/182/182 184/184/184 181/181/181
f 183/183/183 184/184/184 172/172/172
f 159/159/159 185/185/185 182/182/182
f 182/182/182 185/185/185 184/184/184
f 159/159/159 158/158/158 185/185/185
f 184/184/184 186/186/186 172/172/172
f 185/185/185 186/186/186 184/184/184
f 186/186/186 185/185/185 158/158/158
f 186/186/186 163/163/163 172/172/172
f 163/163/163 186/186/186 158/158/158
f 189/189/189 188/188/188 187/187/187
f 190/190/190 189/189/189 187/187/187
f 187/187/187 188/188/188 191/191/191
f 187/187/187 191/191/191 192/192/192
f 191/191/191 193/193/193 192/192/192
f 188/188/188 194/194/194 191/191/191
f 191/191/191 194/194/194 193/193/193
f 194/194/194 195/195/195 193/193/193
f 193/193/193 195/195/195 196/196/196
f 190/190/190 187/187/187 197/197/197
f 197/197/197 187/187/187 192/192/192
f 198/198/198 190/190/190 197/197/197
f 199/199/199 198/198/198 197/197/197
f 200/200/200 199/199/199 197/197/197
f 200/200/200 197/197/197 192/192/192
f 201/201/201 193/193/193 196/196/196
f 201/201/201 196/196/196 202/202/202
f 203/203/203 201/201/201 202/202/202
f 202/202/202 204/204/204 203/203/203
f 193/193/193 201/201/201 205/205/205
f 205/205/205 201/201/201 203/203/203
f 204/204/204 206/206/206 203/203/203
f 204/204/204 207/207/207 206/206/206
f 208/208/208 193/193/193 205/205/205
f 193/193/193 208/208/208 192/192/192
f 209/209/209 205/205/205 203/203/203
f 209/209/209 208/208/208 205/205/205
f 208/208/208 209/209/209 192/192/192
f 203/203/203 206/206/206 209/209/209
f 207/207/207 210/210/210 206/206/206
f 207/207/207 211/211/211 210/210/210
f 209/209/209 212/212/212 192/192/192
f 212/212/212 200/200/200 192/192/192
f 206/206/206 213/213/213 209/209/209
f 209/209/209 213/213/213 212/212/212
f 206/206/206 210/210/210 213/213/213
f 211/211/211 214/214/214 210/210/210
f 211/211/211 215/215/215 214/214/214
f 212/212/212 216/216/216 200/200/200
f 213/213/213 216/216/216 212/212/212
f 210/210/210 217/217/217 213/213/213
f 210/210/210 214/214/214 217/217/217
f 215/215/215 218/218/218 214/214/214
f 215/215/215 219/219/219 218/218/218
f 216/216/216 220/220/220 200/200/200
f 200/200/200 220/220/220 199/199/199
f 220/220/220 221/221/221 199/199/199
f 216/216/216 213/213/213 222/222/222
f 216/216/216 222/222/222 220/220/220
f 213/213/213 217/217/217 222/222/222
f 223/223/223 222/222/222 217/217/217
f 214/214/214 224/224/224 217/217/217
f 214/214/214 218/218/218 224/224/224
f 224/224/224 223/223/223 217/217/217
f 220/220/220 225/225/225 221/221/221
f 222/222/222 225/225/225 220/220/220
f 222/222/222 223/223/223 225/225/225
f 225/225/225 226/226/226 221/221/221
f 225/225/225 227/227/227 226/226/226
f 223/223/223 227/227/227 225/225/225
f 227/227/227 228/228/228 226/226/226
f 227/227/227 229/229/229 228/228/228
f 229/229/229 227/227/227 223/223/223
f 229/229/229 230/230/230 228/228/228
f 230/230/230 229/229/229 231/231/231
f 218/218/218 232/232/232 224/224/224
f 224/224/224 232/232/232 223/223/223
f 233/233/233 229/229/229 223/223/223
f 232/232/232 233/233/233 223/223/223
f 218/218/218 234/234/234 232/232/232
f 219/219/219 234/234/234 218/218/218
f 219/219/219 235/235/235 234/234/234
f 235/235/235 236/236/236 234/234/234
f 235/235/235 237/237/237 236/236/236
f 234/234/234 238/238/238 232/232/232
f 234/234/234 236/236/236 238/238/238
f 232/232/232 239/239/239 233/233/233
f 238/238/238 239/239/239 232/232/232
f 237/237/237 240/240/240 236/236/236
f 240/240/240 237/237/237 241/241/241
f 236/236/236 242/242/242 238/238/238
f 238/238/238 242/242/242 239/239/239
f 236/236/236 240/240/240 242/242/242
f 239/239/239 243/243/243 233/233/233
f 233/233/233 243/243/243 229/229/229
f 242/242/242 244/244/244 239/239/239
f 239/239/239 244/244/244 243/243/243
f 240/240/240 245/245/245 242/242/242
f 242/242/242 245/245/245 244/244/244
f 246/246/246 240/240/240 241/241/241
f 245/245/245 240/240/240 246/246/246
f 243/243/243 247/247/247 229/229/229
f 244/244/244 247/247/247 243/243/243
f 246/246/246 241/241/241 248/248/248
f 241/241/241 249/249/249 248/248/248
f 245/245/245 250/250/250 244/244/244
f 244/244/244 250/250/250 247/247/247
f 247/247/247 251/251/251 229/229/229
f 229/229/229 251/251/251 231/231/231
f 250/250/250 252/252/252 247/247/247
f 247/247/247 252/252/252 251/251/251
f 253/253/253 250/250/250 245/245/245
f 250/250/250 253/253/253 252/252/252
f 254/254/254 245/245/245 246/246/246
f 254/254/254 253/253/253 245/245/245
f 251/251/251 255/255/255 231/231/231
f 255/255/255 256/256/256 231/231/231
f 252/252/252 257/257/257 251/251/251
f 253/253/253 257/257/257 252/252/252
f 257/257/257 255/255/255 251/251/251
f 254/254/254 246/246/246 258/258/258
f 246/246/246 248/248/248 258/258/258
f 259/259/259 253/253/253 254/254/254
f 257/257/257 253/253/253 259/259/259
f 258/258/258 259/259/259 254/254/254
f 255/255/255 260/260/260 256/256/256
f 260/260/260 261/261/261 256/256/256
f 261/261/261 260/260/260 262/262/262
f 255/255/255 257/257/257 263/263/263
f 260/260/260 255/255/255 263/263/263
f 263/263/263 257/257/257 259/259/259
f 260/260/260 264/264/264 262/262/262
f 260/260/260 263/263/263 264/264/264
f 263/263/263 259/259/259 265/265/265
f 263/263/263 265/265/265 264/264/264
f 264/264/264 266/266/266 262/262/262
f 264/264/264 265/265/265 266/266/266
f 266/266/266 267/267/267 262/262/262
f 259/259/259 258/258/258 268/268/268
f 259/259/259 268/268/268 265/265/265
f 266/266/266 269/269/269 267/267/267
f 269/269/269 270/270/270 267/267/267
f 269/269/269 271/271/271 270/270/270
f 271/271/271 269/269/269 266/266/266
f 271/271/271 272/272/272 270/270/270
f 272/272/272 271/271/271 273/273/273
f 265/265/265 274/274/274 266/266/266
f 274/274/274 271/271/271 266/266/266
f 265/265/265 268/268/268 274/274/274
f 271/271/271 275/275/275 273/273/273
f 275/275/275 271/271/271 274/274/274
f 276/276/276 273/273/273 275/275/275
f 258/258/258 277/277/277 268/268/268
f 258/258/258 248/248/248 277/277/277
f 268/268/268 278/278/278 274/274/274
f 278/278/278 275/275/275 274/274/274
f 268/268/268 277/277/277 278/278/278
f 279/279/279 276/276/276 275/275/275
f 276/276/276 279/279/279 280/280/280
f 278/278/278 281/281/281 275/275/275
f 277/277/277 281/281/281 278/278/278
f 281/281/281 279/279/279 275/275/275
f 248/248/248 282/282/282 277/277/277
f 277/277/277 282/282/282 281/281/281
f 248/248/248 249/249/249 282/282/282
f 249/249/249 283/283/283 282/282/282
f 282/282/282 284/284/284 281/281/281
f 282/282/282 283/283/283 284/284/284
f 281/281/281 284/284/284 279/279/279
f 283/283/283 285/285/285 284/284/284
f 285/285/285 280/280/280 284/284/284
f 279/279/279 286/286/286 280/280/280
f 280/280/280 286/286/286 284/284/284
f 284/284/284 286/286/286 279/279/279
