g snow1_24
v -3.60509487 0.521142096 0.938643821
v -3.1299836 0.411449505 1.39315633
v -3.64997672 0.275799125 1.31511549
v -4.11303018 0.156895706 1.21027952
v -3.14639562 0.663156321 0.923739026
v -2.52525086 0.786916359 0.844023494
v -2.45742567 0.531525212 1.40136234
v -1.82673513 0.748900759 0.685262309
v -1.93542291 0.766820006 0.148019817
v -1.19085305 0.628657582 0.554301078
v -1.73345456 0.514610782 1.24561561
v -1.1106351 0.418148289 1.07111228
v -0.544587841 0.352835144 0.969123289
v -2.61836396 0.789930812 0.296565356
v -2.78566609 0.703683965 -0.215054286
v -3.1927847 0.689616519 0.46889158
v -0.612078092 0.549779399 0.474250607
v 0.0427280628 0.340944802 0.901130629
v -0.0441886621 0.526668593 0.432048267
v 0.627364453 0.306781002 0.75258509
v -0.657462354 0.565856481 0.027274232
v -1.26772159 0.650093692 0.0554091256
v -0.114023487 0.526166184 0.0405043308
v 0.527217629 0.472073502 0.331566504
v 0.437286451 0.488652993 -0.077394271
v 1.12726122 0.43054104 0.217184764
v 1.20965627 0.271444916 0.598680523
v 1.05206737 0.461020508 -0.201489248
v 1.74689876 0.386496534 0.0939271347
v 1.79446013 0.239123282 0.439751868
v 1.69816511 0.420157925 -0.295774635
v 2.46467349 0.339270106 -0.0522738303
v 2.44926628 0.199432986 0.260894331
v 2.43251932 0.369247165 -0.408481679
v 3.41623578 0.303096671 -0.220245844
v 3.36331538 0.1679487 0.0463657669
v 3.37487079 0.323360493 -0.518006801
v 4.62168199 0.277641291 -0.423386474
v 4.56959895 0.145340303 -0.20902538
v 4.50730025 0.291541268 -0.648968032
v 5.84102819 0.233094376 -0.616478929
v 5.79597886 0.119717454 -0.405299757
v 5.63420322 0.271779855 -0.816437637
v 6.44123925 0.0517247943 -0.771555782
v 6.44174166 -0.0626569457 -0.577291041
v 6.42432482 -0.25976867 -0.694519764
v 6.1952264 0.114525896 -0.897157986
v 5.3781422 0.18921734 -0.953092834
v 4.31270057 0.206801648 -0.832682188
v 6.54708004 -0.135506224 -0.908880858
v 6.14716262 0.00952245388 -1.00785539
v 3.25111075 0.247999171 -0.790982257
v 5.08825231 0.0381597563 -1.0254397
v 6.16524934 -0.277352979 -1.01103732
v 4.08644914 0.0523946727 -0.953930182
v 2.35565077 0.304938837 -0.751124491
v 5.88657992 -0.110050844 -1.09359983
v 4.81376963 -0.145219461 -1.00852527
v 3.07258815 0.0858885936 -0.989768677
v 1.6562977 0.350825508 -0.689830615
v 5.51211788 -0.167492918 -1.07702034
v 3.8789543 -0.156272455 -0.974863883
v 2.28481113 0.138641519 -1.02979391
v 0.995462644 0.382812203 -0.617818685
v 4.67409998 -0.314698701 -0.914072416
v 5.49821791 -0.289243321 -0.994625296
v 4.60828443 -0.438961148 -0.750957021
v 2.91164986 -0.16246883 -1.03582282
v 3.73208345 -0.365441991 -0.876391755
v 1.64993386 0.165101717 -1.05039267
v 0.375490167 0.411282036 -0.423051535
v 6.06744709 -0.404294939 -0.803207538
v 2.25734612 -0.15392788 -1.09493959
v 2.80832111 -0.415850342 -0.903354361
v 0.984912059 0.158402932 -0.995462644
v -0.144837894 0.462527735 -0.272161421
v 1.67773381 -0.18809168 -1.10632752
v 0.348025152 0.178331815 -0.705070349
v -0.670692453 0.51528066 -0.390897371
v 3.66576549 -0.506451398 -0.67509329
v 2.24110156 -0.441473192 -0.913235068
v 2.23356543 -0.580640433 -0.564060942
v 1.03364571 -0.22627475 -1.04905292
v 1.09577694 -0.562888655 -0.811748488
v 1.69582053 -0.503436945 -0.8656737
v -1.32985282 0.606551595 -0.478483974
v -1.32650343 0.325537598 -1.07132637
v -2.0643745 0.707200827 -0.395084111
v 2.77767418 -0.56506576 -0.627699392
v 2.81518737 -0.578965737 -0.323909529
v 1.70318919 -0.618153625 -0.467263511
v -2.23753807 0.440421747 -1.0860637
v 3.7042835 -0.537600745 -0.436281634
v 1.73299878 -0.631216254 -0.125290578
v 2.25918828 -0.591693427 -0.228786794
v 1.13245278 -0.679949909 -0.389390145
v 1.17331536 -0.694352295 -0.0343545826
v 1.77955533 -0.592530775 0.234936542
v 2.30507495 -0.545136877 0.0944295435
v 1.22154661 -0.649972849 0.330059277
v 0.575616345 -0.734042591 0.0884006377
v 0.634063237 -0.703395653 0.44326873
v 1.27162002 -0.448506915 0.690621336
v 0.52671522 -0.706577576 -0.220915722
v 1.8326432 -0.397261216 0.567698646
v 2.88267762 -0.525710403 -0.0351919306
v 2.36368931 -0.369796201 0.381304976
v 3.84546038 -0.474967113 -0.2177338
v 3.00275333 -0.353886588 0.193069141
v 3.20555902 -0.071867774 0.21031851
v 4.08125758 -0.307999917 -0.0777292102
v 1.8348203 -0.0459099853 0.636361184
v 1.26693087 -0.0596424929 0.796964535
v 2.40723141 -0.0576328576 0.44326873
v 1.79446013 0.239123282 0.439751868
v 1.20965627 0.271444916 0.598680523
v 2.44926628 0.199432986 0.260894331
v 3.36331538 0.1679487 0.0463657669
v 4.56959895 0.145340303 -0.20902538
v 0.627364453 0.306781002 0.75258509
v 4.36461615 -0.0723701828 -0.0814135415
v 5.79597886 0.119717454 -0.405299757
v 0.688155919 -0.0717003044 0.952878737
v 5.15306305 -0.271659012 -0.309842082
v 5.4977155 -0.0660063378 -0.29828668
v 0.692510129 -0.496403222 0.840674102
v 0.0815810111 -0.0839255855 1.08986887
v 0.0427280628 0.340944802 0.901130629
v 6.17831197 -0.184742288 -0.461569544
v 6.00950261 -0.331445661 -0.501092371
v 5.67573569 -0.420037082 -0.592195836
v 0.0752171661 -0.529897143 0.956898008
v -0.519132461 -0.0815810111 1.18566149
v -0.544587841 0.352835144 0.969123289
v 0.021459423 -0.745597994 0.537721587
v 4.85513462 -0.417357569 -0.415515403
v 4.63474462 -0.475804461 -0.568415152
v 5.29859414 -0.447167158 -0.668561976
v 5.41984213 -0.405634696 -0.827993039
v -0.542745675 -0.560209141 1.06223639
v -0.615260014 -0.768708799 0.595331131
v -1.14881817 -0.525877872 1.17996752
v -0.0240923095 -0.761340137 0.173810136
v -1.10108934 -0.028660616 1.30104805
v -1.1106351 0.418148289 1.07111228
v -1.72491361 -0.00370764489 1.46533573
v -1.73345456 0.514610782 1.24561561
v -2.41287875 -0.021459423 1.5740235
v -2.45742567 0.531525212 1.40136234
v -1.77431715 -0.538773032 1.29233963
v -1.24142887 -0.753971474 0.687439414
v -0.654447902 -0.782608776 0.182686025
v -0.0513898551 -0.712773951 -0.121438777
v -3.06601021 -0.0797388454 1.54002717
v -3.1299836 0.411449505 1.39315633
v -2.40952936 -0.548821208 1.34994917
v -1.86240616 -0.744090767 0.761963388
v -1.30908659 -0.773397948 0.226898001
v -3.60660209 -0.190938663 1.43753577
v -3.64997672 0.275799125 1.31511549
v -4.04453511 -0.331278192 1.27492279
v -4.11303018 0.156895706 1.21027952
v -4.42117425 0.0132067852 0.939816108
v -2.99801755 -0.54362965 1.34308292
v -2.44453051 -0.739904027 0.833807848
v -3.50109624 -0.618321094 1.25717101
v -0.662988851 -0.758660623 -0.21354706
v -1.93726507 -0.746602811 0.292713555
v -2.9553128 -0.739401618 0.897613768
v -1.35162387 -0.781436489 -0.258596383
v -2.50749908 -0.751124491 0.395707362
v -2.02669384 -0.765024468 -0.197135038
v -0.0783524614 -0.553342888 -0.388552797
v -0.619614224 -0.607770509 -0.60308136
v -0.121727089 -0.204503701 -0.548821208
v 0.459894848 -0.567075395 -0.557864567
v 0.3830263 -0.218068739 -0.737894392
v -1.34877688 -0.655666816 -0.908713389
v -0.150196922 0.201275151 -0.526045342
v -0.623298555 0.246157005 -0.717128161
v -0.602029915 -0.20902538 -0.762512424
v -1.32868053 -0.20081937 -1.19006232
v -2.19684296 -0.618990973 -0.96330848
v -2.26617538 -0.119764081 -1.24884416
v -2.62975189 -0.772225661 -0.0301678424
v -2.92583815 -0.679949909 -0.612459658
v -3.09431257 -0.209862728 -0.871870076
v -2.9872995 -0.773900357 0.513103555
v -3.13082095 -0.796341284 0.16811617
v -3.37180971 -0.782106368 0.891417392
v -3.06818731 0.345299011 -0.761675076
v -3.44482646 -0.677102925 -0.245701224
v -3.282046 -0.796173814 0.5745649
v -3.47999507 -0.809068974 0.376615827
v -3.87857273 -0.693849886 1.04749906
v -3.63205747 -0.241681953 -0.439965965
v -3.61748762 0.264578662 -0.344005882
v -3.82180054 -0.682629422 0.0609356225
v -4.06814832 -0.748444977 0.423674786
v -3.67844655 -0.820959316 0.679065933
v -4.03180742 -0.271993952 -0.0814135415
v -4.20413364 -0.662868009 0.874335493
v -4.4280405 -0.378337151 0.927758296
v -4.33760692 -0.311516778 0.305943654
v -4.00836168 0.206634179 0.006508001
v -4.31114672 0.213835372 0.410109748
v -3.36946513 0.605379307 0.0592609265
v -3.98943761 0.450302453 0.766820006
v -3.75179824 0.518964991 0.340777332
v -3.53542751 0.585785364 0.592316678
vt 0.225271577 0.353658475
vt 0.229968659 0.300424884
vt 0.194740547 0.345047159
vt 0.178300761 0.39593221
vt 0.257368302 0.324693139
vt 0.308253353 0.301990577
vt 0.289465026 0.264413924
vt 0.370098261 0.294944955
vt 0.374795343 0.330173067
vt 0.426463241 0.304339118
vt 0.363052639 0.253454067
vt 0.428028934 0.263631077
vt 0.479696832 0.279288016
vt 0.320778904 0.334087302
vt 0.326258832 0.365401179
vt 0.274590935 0.3473957
vt 0.474999751 0.318430363
vt 0.528233343 0.294162108
vt 0.519622026 0.331738761
vt 0.573638465 0.312950435
vt 0.474216904 0.352092781
vt 0.428028934 0.338784384
vt 0.514142098 0.362269792
vt 0.562678608 0.345830006
vt 0.554850138 0.37792673
vt 0.608866577 0.359921251
vt 0.619043587 0.330955914
vt 0.600255261 0.390452281
vt 0.655837394 0.376361037
vt 0.66444871 0.350527088
vt 0.648008924 0.404543526
vt 0.708288138 0.400629292
vt 0.71298522 0.37557819
vt 0.700459669 0.425680394
vt 0.774047281 0.432726016
vt 0.777178669 0.410806302
vt 0.764653118 0.453080037
vt 0.85624621 0.468736975
vt 0.859377598 0.451514343
vt 0.842154965 0.48282822
vt 0.936879444 0.510227863
vt 0.945490761 0.496919465
vt 0.914176883 0.514142098
vt 0.955667771 0.550153057
vt 0.967410475 0.563461455
vt 0.951753536 0.568941383
vt 0.939227985 0.5391932
vt 0.893040016 0.518839179
vt 0.823366638 0.494570924
vt 0.947839302 0.557198679
vt 0.932182363 0.543107434
vt 0.750561873 0.471868363
vt 0.871120302 0.525101955
vt 0.928268128 0.558764373
vt 0.803795465 0.506313628
vt 0.689499812 0.449948649
vt 0.91495973 0.546238822
vt 0.849200587 0.533713271
vt 0.73333924 0.488308149
vt 0.641746149 0.432726016
vt 0.893040016 0.544673128
vt 0.785007138 0.519622026
vt 0.680105649 0.47265121
vt 0.594775332 0.420983312
vt 0.836675036 0.545455975
vt 0.889908628 0.553284445
vt 0.829629414 0.560330067
vt 0.717682302 0.504747934
vt 0.770915893 0.535278965
vt 0.637831914 0.461691353
vt 0.54937021 0.406892067
vt 0.924353893 0.570507077
vt 0.673842873 0.493788077
vt 0.706722445 0.525101955
vt 0.593209638 0.453080037
vt 0.511793557 0.389669435
vt 0.634700526 0.488308149
vt 0.547021669 0.437423098
vt 0.474216904 0.384972353
vt 0.763087424 0.554067292
vt 0.667580098 0.518839179
vt 0.661317322 0.547021669
vt 0.593209638 0.480479679
vt 0.588512557 0.510227863
vt 0.629220598 0.516490639
vt 0.428811781 0.373229649
vt 0.430377475 0.413154843
vt 0.377143883 0.363052639
vt 0.699676822 0.548587363
vt 0.698111128 0.572072771
vt 0.622957822 0.546238822
vt 0.377143883 0.405326373
vt 0.763087424 0.572855618
vt 0.618260741 0.571289924
vt 0.657403087 0.572072771
vt 0.581466934 0.540758894
vt 0.5775527 0.56737569
vt 0.615129353 0.598689567
vt 0.655054547 0.597123873
vt 0.572855618 0.594775332
vt 0.534496118 0.562678608
vt 0.530581883 0.590861098
vt 0.56972423 0.626872057
vt 0.538410353 0.536844659
vt 0.612780812 0.627654904
vt 0.698893975 0.594775332
vt 0.655054547 0.622957822
vt 0.770915893 0.592426792
vt 0.705156751 0.617477894
vt 0.722379383 0.637049067
vt 0.787355679 0.610432271
vt 0.612780812 0.653488853
vt 0.566592843 0.65662024
vt 0.658968781 0.64644323
vt 0.6159122 0.679322802
vt 0.566592843 0.686368424
vt 0.668362945 0.668362945
vt 0.739602016 0.6542717
vt 0.832760802 0.640963302
vt 0.517273485 0.690282659
vt 0.811623934 0.62608921
vt 0.929050975 0.621392128
vt 0.520404873 0.658968781
vt 0.868771761 0.603386649
vt 0.898519944 0.614346506
vt 0.525101955 0.625306363
vt 0.471868363 0.658185934
vt 0.466388434 0.6926312
vt 0.94314222 0.586164016
vt 0.926702434 0.586164016
vt 0.901651332 0.581466934
vt 0.478913985 0.623740669
vt 0.423331853 0.657403087
vt 0.415503383 0.6926312
vt 0.486742455 0.58772971
vt 0.845286353 0.590078251
vt 0.830412261 0.575204159
vt 0.875817383 0.575204159
vt 0.883645853 0.565809996
vt 0.432726016 0.622174975
vt 0.442903026 0.584598322
vt 0.384189506 0.620609281
vt 0.493788077 0.557981526
vt 0.373229649 0.655837394
vt 0.363835486 0.690282659
vt 0.319996057 0.644877536
vt 0.304339118 0.680888496
vt 0.266762465 0.620609281
vt 0.240928516 0.651140312
vt 0.336435843 0.610432271
vt 0.397497904 0.583815475
vt 0.451514343 0.554067292
vt 0.499268006 0.532147577
vt 0.226054424 0.584598322
vt 0.195523394 0.602603802
vt 0.291813567 0.591643945
vt 0.352875628 0.575987006
vt 0.406892067 0.553284445
vt 0.203351863 0.543890281
vt 0.172037986 0.550935904
vt 0.197089088 0.505530781
vt 0.166558057 0.496919465
vt 0.18378069 0.445251567
vt 0.255019761 0.56737569
vt 0.312167588 0.562678608
vt 0.233100047 0.536844659
vt 0.460125659 0.524319108
vt 0.363052639 0.547804516
vt 0.279288016 0.547021669
vt 0.415503383 0.521970567
vt 0.324693139 0.538410353
vt 0.371663955 0.518839179
vt 0.503965088 0.503182241
vt 0.469519822 0.491439536
vt 0.508662169 0.465605588
vt 0.543107434 0.506313628
vt 0.544673128 0.471868363
vt 0.4241147 0.480479679
vt 0.51101071 0.424897547
vt 0.476565445 0.418634771
vt 0.476565445 0.456994271
vt 0.428028934 0.447600108
vt 0.376361037 0.471085516
vt 0.377143883 0.438205945
vt 0.330955914 0.511793557
vt 0.330955914 0.474216904
vt 0.328607373 0.440554485
vt 0.293379261 0.528233343
vt 0.298076343 0.505530781
vt 0.258151149 0.528233343
vt 0.326258832 0.406892067
vt 0.294944955 0.47265121
vt 0.276156628 0.518839179
vt 0.273808088 0.501616547
vt 0.226837271 0.508662169
vt 0.290247873 0.441337332
vt 0.286333639 0.409240608
vt 0.268328159 0.471868363
vt 0.245625598 0.478131139
vt 0.25267122 0.506313628
vt 0.26049969 0.443685873
vt 0.221357343 0.485959608
vt 0.204917557 0.467954128
vt 0.2323172 0.448382955
vt 0.255019761 0.414720537
vt 0.222923037 0.420200465
vt 0.281636557 0.374012496
vt 0.215094567 0.387320894
vt 0.249539833 0.382623812
vt 0.247974139 0.360704098
vn -0.292040527 0.887052874 0.357560526
vn -0.174603879 0.60520492 0.77668558
vn -0.307698747 0.542572041 0.781624629
vn -0.558230261 0.487768273 0.67116398
vn -0.198091209 0.934027533 0.297241385
vn -0.0180216829 0.965343972 0.260357897
vn 0.0289529761 0.675666908 0.736638279
vn 0.146389623 0.973173082 0.177494312
vn 0.0837422098 0.996487452 -0
vn 0.185535173 0.965343972 0.183542135
vn 0.209022502 0.714812458 0.667347544
vn 0.240338941 0.738299787 0.630198872
vn 0.154218733 0.746128897 0.647694567
vn -0.0728254517 0.996660411 -0.0369388416
vn -0.198091209 0.934027533 -0.297241385
vn -0.213749429 0.973173082 -0.0851195306
vn 0.115073184 0.973173082 0.199229303
vn 0.146389623 0.738299787 0.65839464
vn 0.0915858547 0.973173082 0.211059669
vn 0.193364282 0.753958007 0.627819702
vn 0.115073184 0.988831302 -0.0947144097
vn 0.146389623 0.988831302 -0.0279774061
vn 0.0680985252 0.996660411 -0.045062349
vn 0.107244074 0.973173082 0.203550636
vn 0.0446111957 0.996660411 -0.0683949241
vn 0.107244074 0.973173082 0.203550636
vn 0.193364282 0.769616226 0.60852372
vn 0.0446111957 0.996660411 -0.0683949241
vn 0.115073184 0.965343972 0.234241708
vn 0.201193392 0.777445336 0.59590265
vn 0.0602694154 0.996660411 -0.055096479
vn 0.0994149645 0.965343972 0.241304124
vn 0.193364282 0.753958007 0.627819702
vn 0.0524403056 0.996660411 -0.0625942392
vn 0.0837567449 0.957514862 0.275953069
vn 0.177706063 0.691325128 0.70035
vn 0.0289529761 0.996660411 -0.076352797
vn 0.075927635 0.949685752 0.303861755
vn 0.146389623 0.660008689 0.736857251
vn 0.0132947564 0.988831302 -0.148444961
vn 0.201193392 0.934027533 0.295150448
vn 0.216851612 0.636521359 0.740145889
vn 0.075927635 0.981002192 -0.178520851
vn 0.576990664 0.808761775 0.113956852
vn 0.576990664 0.378160735 0.723931096
vn 0.600477993 -0.78054752 0.17370017
vn 0.271655381 0.871394654 -0.408503012
vn -0.0101925731 0.746128897 -0.665723502
vn -0.0180216829 0.832249105 -0.554108876
vn 0.78054752 -0.263826271 -0.566693276
vn 0.209022502 0.440793614 -0.872932176
vn 0.0289529761 0.887052874 -0.460759074
vn -0.057167232 0.409477174 -0.910527513
vn 0.263826271 -0.608307103 -0.748570749
vn -0.0101925731 0.425135394 -0.905072377
vn 0.0446111957 0.926198423 -0.374387931
vn 0.0524403056 0.12762922 -0.99043465
vn -0.057167232 -0.177706063 -0.982421734
vn 0.0524403056 0.503426492 -0.862445234
vn 0.0211238662 0.941856643 -0.335350335
vn -0.0649963419 -0.209022502 -0.975748466
vn 0.0211238662 -0.177706063 -0.983856868
vn 0.0524403056 0.59737581 -0.80024506
vn -0.057167232 0.926198423 -0.372677326
vn -0.0180216829 -0.647452652 -0.761892566
vn -0.0258507927 -0.702256421 -0.711454605
vn 0.0211238662 -0.913642387 -0.405969668
vn 0.0602694154 -0.185535173 -0.98078759
vn 0.0367820859 -0.670939982 -0.740598824
vn -0.0180216829 0.60520492 -0.795865707
vn -0.0884836713 0.902711093 -0.42105026
vn 0.185535173 -0.968446155 -0.16639935
vn 0.0446111957 -0.185535173 -0.98162444
vn 0.0446111957 -0.717914641 -0.69470023
vn -0.213749429 0.511255602 -0.832423505
vn 0.075927635 0.910540203 -0.406388401
vn -0.0180216829 -0.232509832 -0.972427065
vn -0.307698747 0.448622723 -0.839082316
vn 0.209022502 0.910540203 -0.356687723
vn 0.0446111957 -0.937129716 -0.346118096
vn 0.0367820859 -0.7648893 -0.64311075
vn 0.0367820859 -0.976275265 -0.213386234
vn -0.237236758 -0.255997161 -0.937114814
vn -0.111971001 -0.796205739 -0.594574567
vn 0.0289529761 -0.811863959 -0.58312832
vn 0.154218733 0.934027533 -0.322194274
vn 0.224680722 0.5895467 -0.77585647
vn -0.00236346324 0.957514862 -0.288374241
vn 0.0367820859 -0.960617046 -0.275430517
vn 0.0523807502 -0.998627186 -0
vn 0.0680985252 -0.984104375 -0.164015761
vn -0.119800111 0.667837799 -0.734602347
vn 0.0679572308 -0.997688235 -0
vn 0.0994149645 -0.991933485 0.0786423958
vn 0.0601744853 -0.998187874 -0
vn 0.0211238662 -0.984104375 -0.176330262
vn 0.0915858547 -0.991933485 0.0876355682
vn 0.162047843 -0.937129716 0.309076676
vn 0.138560514 -0.937129716 0.320294988
vn 0.146389623 -0.944958826 0.292613902
vn 0.0523807502 -0.998627186 -0
vn 0.122902294 -0.952787936 0.277651176
vn 0.232509832 -0.616136213 0.752539265
vn -0.0336799026 -0.968446155 -0.246936648
vn 0.255997161 -0.584819774 0.769708572
vn 0.122902294 -0.921471496 0.36849058
vn 0.263826271 -0.576990664 0.77296667
vn 0.130731404 -0.897984167 0.420159179
vn 0.224680722 -0.569161554 0.790932171
vn 0.255997161 0.104141891 0.961051466
vn 0.209022502 -0.530016005 0.821822747
vn 0.2873136 0.190262099 0.938749822
vn 0.263826271 0.15111655 0.952659166
vn 0.29514271 0.174603879 0.939363756
vn 0.201193392 0.777445336 0.59590265
vn 0.193364282 0.769616226 0.60852372
vn 0.193364282 0.753958007 0.627819702
vn 0.177706063 0.691325128 0.70035
vn 0.146389623 0.660008689 0.736857251
vn 0.193364282 0.753958007 0.627819702
vn 0.216851612 0.0728254517 0.973484377
vn 0.216851612 0.636521359 0.740145889
vn 0.240338941 0.111971001 0.964209359
vn 0.169876953 -0.537845115 0.825750842
vn 0.185535173 0.0336799026 0.982060265
vn 0.209022502 -0.623965323 0.752978665
vn 0.193364282 0.0806545615 0.977806267
vn 0.146389623 0.738299787 0.65839464
vn 0.32645915 -0.146389623 0.933806458
vn 0.224680722 -0.686598202 0.691448829
vn 0.0994149645 -0.929300606 0.35569235
vn 0.162047843 -0.639623543 0.751413482
vn 0.177706063 0.0806545615 0.980772857
vn 0.154218733 0.746128897 0.647694567
vn 0.0837567449 -0.960617046 0.264952259
vn 0.122902294 -0.874496837 0.469201777
vn 0.0679572308 -0.997688235 -0
vn 0.0367659461 -0.999323904 -0
vn 0.00546564658 -0.913642387 -0.406482123
vn 0.122902294 -0.670939982 0.731255473
vn 0.0367820859 -0.968446155 0.246493656
vn 0.130731404 -0.663110872 0.737016466
vn 0.0445774321 -0.999005932 -0
vn 0.232509832 0.0884836713 0.968560694
vn 0.240338941 0.738299787 0.630198872
vn 0.201193392 0.0415090124 0.978671661
vn 0.209022502 0.714812458 0.667347544
vn 0.0602694154 -0.00546564658 0.998167183
vn 0.0289529761 0.675666908 0.736638279
vn 0.115073184 -0.678769092 0.725279727
vn 0.0132947564 -0.968446155 0.248868024
vn 0.0211238662 -0.999762595 -0.00534195789
vn 0.0367820859 -0.960617046 -0.275430517
vn -0.0963127812 -0.0446111957 0.994350888
vn -0.174603879 0.60520492 0.77668558
vn 0.0524403056 -0.686598202 0.725143382
vn 0.0211238662 -0.976275265 0.215500322
vn -0.0180216829 -0.999762595 0.0122463539
vn -0.229407648 -0.115073184 0.966504161
vn -0.307698747 0.542572041 0.781624629
vn -0.440793614 -0.232509832 0.866971838
vn -0.558230261 0.487768273 0.67116398
vn -0.910540203 0.323356966 0.257598157
vn -0.0101925731 -0.663110872 0.748451791
vn 0.0211238662 -0.976275265 0.215500322
vn -0.0963127812 -0.686598202 0.720629418
vn 0.0915858547 -0.976275265 -0.196210697
vn -0.0101925731 -0.999762595 0.0192578735
vn 0.0446111957 -0.960617046 0.274271276
vn 0.0132947564 -0.991933485 -0.126060347
vn 0.028947715 -0.999580927 -0
vn -0.0180216829 -0.991933485 -0.125471832
vn 0.0446111957 -0.733572861 -0.678145043
vn 0.2873136 -0.74140197 -0.606443743
vn 0.0524403056 -0.193364282 -0.979724588
vn -0.221578538 -0.75706019 -0.614624129
vn -0.370331625 -0.240338941 -0.897269012
vn 0.122902294 -0.804034849 -0.581741341
vn 0.0680985252 0.456451833 -0.887138273
vn 0.389092028 0.503426492 -0.771472074
vn 0.443895797 -0.146389623 -0.884039931
vn 0.232509832 -0.138560514 -0.962673445
vn -0.104141891 -0.804034849 -0.585390834
vn -0.174603879 -0.107244074 -0.978780973
vn -0.0101925731 -0.991933485 -0.126349013
vn -0.237236758 -0.827522178 -0.508847487
vn -0.479939163 -0.162047843 -0.862205832
vn 0.0601744853 -0.998187874 -0
vn -0.0415090124 -0.991933485 -0.119770462
vn 0.0367820859 -0.952787936 0.301400444
vn -0.417306284 0.60520492 -0.677925121
vn -0.346844296 -0.804034849 -0.48293581
vn 0.075927635 -0.991933485 0.101503477
vn -0.0649963419 -0.991933485 -0.108827557
vn -0.260724088 -0.804034849 0.53436964
vn -0.62086314 -0.177706063 -0.763511308
vn -0.566059371 0.550401151 -0.61370625
vn -0.432964504 -0.7648893 -0.476955027
vn -0.534742932 -0.811863959 -0.234364907
vn -0.104141891 -0.991933485 0.0722663693
vn -0.706983348 -0.177706063 -0.684540065
vn -0.61303403 -0.7648893 0.197822236
vn -0.926198423 -0.279484491 0.253070941
vn -0.887052874 -0.209022502 -0.411639154
vn -0.660008689 0.511255602 -0.550460026
vn -0.824419995 0.511255602 -0.242794936
vn -0.346844296 0.894881984 -0.280865217
vn -0.487768273 0.855736434 0.172618849
vn -0.417306284 0.879223764 -0.22982828
vn -0.276382307 0.957514862 0.0823292712
g snow1_24_0
f 3/3/3 2/2/2 1/1/1
f 4/4/4 3/3/3 1/1/1
f 2/2/2 5/5/5 1/1/1
f 6/6/6 5/5/5 2/2/2
f 7/7/7 6/6/6 2/2/2
f 8/8/8 6/6/6 7/7/7
f 8/8/8 9/9/9 6/6/6
f 9/9/9 8/8/8 10/10/10
f 11/11/11 8/8/8 7/7/7
f 8/8/8 11/11/11 10/10/10
f 11/11/11 12/12/12 10/10/10
f 12/12/12 13/13/13 10/10/10
f 6/6/6 14/14/14 5/5/5
f 9/9/9 14/14/14 6/6/6
f 14/14/14 9/9/9 15/15/15
f 14/14/14 16/16/16 5/5/5
f 5/5/5 16/16/16 1/1/1
f 16/16/16 14/14/14 15/15/15
f 13/13/13 17/17/17 10/10/10
f 13/13/13 18/18/18 17/17/17
f 18/18/18 19/19/19 17/17/17
f 18/18/18 20/20/20 19/19/19
f 17/17/17 21/21/21 10/10/10
f 22/22/22 9/9/9 10/10/10
f 21/21/21 22/22/22 10/10/10
f 19/19/19 23/23/23 17/17/17
f 23/23/23 21/21/21 17/17/17
f 20/20/20 24/24/24 19/19/19
f 25/25/25 23/23/23 19/19/19
f 24/24/24 25/25/25 19/19/19
f 26/26/26 24/24/24 20/20/20
f 27/27/27 26/26/26 20/20/20
f 28/28/28 25/25/25 24/24/24
f 26/26/26 28/28/28 24/24/24
f 29/29/29 26/26/26 27/27/27
f 30/30/30 29/29/29 27/27/27
f 31/31/31 28/28/28 26/26/26
f 29/29/29 31/31/31 26/26/26
f 32/32/32 29/29/29 30/30/30
f 33/33/33 32/32/32 30/30/30
f 34/34/34 31/31/31 29/29/29
f 32/32/32 34/34/34 29/29/29
f 35/35/35 32/32/32 33/33/33
f 36/36/36 35/35/35 33/33/33
f 37/37/37 34/34/34 32/32/32
f 35/35/35 37/37/37 32/32/32
f 38/38/38 35/35/35 36/36/36
f 39/39/39 38/38/38 36/36/36
f 40/40/40 37/37/37 35/35/35
f 38/38/38 40/40/40 35/35/35
f 41/41/41 38/38/38 39/39/39
f 42/42/42 41/41/41 39/39/39
f 43/43/43 40/40/40 38/38/38
f 41/41/41 43/43/43 38/38/38
f 44/44/44 41/41/41 42/42/42
f 45/45/45 44/44/44 42/42/42
f 44/44/44 45/45/45 46/46/46
f 47/47/47 43/43/43 41/41/41
f 44/44/44 47/47/47 41/41/41
f 40/40/40 43/43/43 48/48/48
f 43/43/43 47/47/47 48/48/48
f 37/37/37 40/40/40 49/49/49
f 49/49/49 40/40/40 48/48/48
f 47/47/47 44/44/44 50/50/50
f 50/50/50 44/44/44 46/46/46
f 47/47/47 51/51/51 48/48/48
f 51/51/51 47/47/47 50/50/50
f 52/52/52 37/37/37 49/49/49
f 34/34/34 37/37/37 52/52/52
f 49/49/49 48/48/48 53/53/53
f 48/48/48 51/51/51 53/53/53
f 51/51/51 50/50/50 54/54/54
f 54/54/54 50/50/50 46/46/46
f 52/52/52 49/49/49 55/55/55
f 55/55/55 49/49/49 53/53/53
f 56/56/56 34/34/34 52/52/52
f 31/31/31 34/34/34 56/56/56
f 51/51/51 57/57/57 53/53/53
f 57/57/57 51/51/51 54/54/54
f 53/53/53 57/57/57 58/58/58
f 55/55/55 53/53/53 58/58/58
f 59/59/59 52/52/52 55/55/55
f 56/56/56 52/52/52 59/59/59
f 60/60/60 31/31/31 56/56/56
f 28/28/28 31/31/31 60/60/60
f 61/61/61 57/57/57 54/54/54
f 57/57/57 61/61/61 58/58/58
f 62/62/62 55/55/55 58/58/58
f 59/59/59 55/55/55 62/62/62
f 63/63/63 56/56/56 59/59/59
f 60/60/60 56/56/56 63/63/63
f 64/64/64 28/28/28 60/60/60
f 25/25/25 28/28/28 64/64/64
f 58/58/58 61/61/61 65/65/65
f 62/62/62 58/58/58 65/65/65
f 66/66/66 61/61/61 54/54/54
f 61/61/61 66/66/66 65/65/65
f 65/65/65 66/66/66 67/67/67
f 68/68/68 59/59/59 62/62/62
f 63/63/63 59/59/59 68/68/68
f 69/69/69 62/62/62 65/65/65
f 69/69/69 65/65/65 67/67/67
f 68/68/68 62/62/62 69/69/69
f 70/70/70 60/60/60 63/63/63
f 64/64/64 60/60/60 70/70/70
f 71/71/71 25/25/25 64/64/64
f 23/23/23 25/25/25 71/71/71
f 66/66/66 54/54/54 72/72/72
f 72/72/72 54/54/54 46/46/46
f 73/73/73 63/63/63 68/68/68
f 70/70/70 63/63/63 73/73/73
f 74/74/74 68/68/68 69/69/69
f 73/73/73 68/68/68 74/74/74
f 75/75/75 64/64/64 70/70/70
f 71/71/71 64/64/64 75/75/75
f 76/76/76 23/23/23 71/71/71
f 21/21/21 23/23/23 76/76/76
f 77/77/77 70/70/70 73/73/73
f 75/75/75 70/70/70 77/77/77
f 78/78/78 71/71/71 75/75/75
f 76/76/76 71/71/71 78/78/78
f 79/79/79 21/21/21 76/76/76
f 22/22/22 21/21/21 79/79/79
f 74/74/74 69/69/69 80/80/80
f 80/80/80 69/69/69 67/67/67
f 81/81/81 73/73/73 74/74/74
f 77/77/77 73/73/73 81/81/81
f 81/81/81 74/74/74 82/82/82
f 83/83/83 75/75/75 77/77/77
f 78/78/78 75/75/75 83/83/83
f 83/83/83 77/77/77 84/84/84
f 85/85/85 77/77/77 81/81/81
f 85/85/85 81/81/81 82/82/82
f 77/77/77 85/85/85 84/84/84
f 86/86/86 22/22/22 79/79/79
f 86/86/86 79/79/79 87/87/87
f 9/9/9 22/22/22 86/86/86
f 88/88/88 9/9/9 86/86/86
f 88/88/88 86/86/86 87/87/87
f 9/9/9 88/88/88 15/15/15
f 74/74/74 89/89/89 82/82/82
f 89/89/89 90/90/90 82/82/82
f 89/89/89 74/74/74 80/80/80
f 89/89/89 80/80/80 90/90/90
f 85/85/85 91/91/91 84/84/84
f 91/91/91 85/85/85 82/82/82
f 92/92/92 88/88/88 87/87/87
f 88/88/88 92/92/92 15/15/15
f 80/80/80 93/93/93 90/90/90
f 93/93/93 80/80/80 67/67/67
f 94/94/94 91/91/91 82/82/82
f 90/90/90 95/95/95 82/82/82
f 95/95/95 94/94/94 82/82/82
f 91/91/91 96/96/96 84/84/84
f 94/94/94 97/97/97 91/91/91
f 97/97/97 96/96/96 91/91/91
f 98/98/98 94/94/94 95/95/95
f 99/99/99 95/95/95 90/90/90
f 99/99/99 98/98/98 95/95/95
f 100/100/100 97/97/97 94/94/94
f 98/98/98 100/100/100 94/94/94
f 97/97/97 101/101/101 96/96/96
f 100/100/100 102/102/102 97/97/97
f 102/102/102 101/101/101 97/97/97
f 103/103/103 100/100/100 98/98/98
f 100/100/100 103/103/103 102/102/102
f 96/96/96 104/104/104 84/84/84
f 101/101/101 104/104/104 96/96/96
f 105/105/105 98/98/98 99/99/99
f 105/105/105 103/103/103 98/98/98
f 106/106/106 99/99/99 90/90/90
f 107/107/107 105/105/105 99/99/99
f 107/107/107 99/99/99 106/106/106
f 108/108/108 106/106/106 90/90/90
f 93/93/93 108/108/108 90/90/90
f 109/109/109 107/107/107 106/106/106
f 109/109/109 106/106/106 108/108/108
f 107/107/107 109/109/109 110/110/110
f 111/111/111 109/109/109 108/108/108
f 109/109/109 111/111/111 110/110/110
f 112/112/112 105/105/105 107/107/107
f 113/113/113 103/103/103 105/105/105
f 112/112/112 113/113/113 105/105/105
f 114/114/114 107/107/107 110/110/110
f 114/114/114 112/112/112 107/107/107
f 112/112/112 114/114/114 115/115/115
f 112/112/112 115/115/115 116/116/116
f 113/113/113 112/112/112 116/116/116
f 114/114/114 117/117/117 115/115/115
f 114/114/114 110/110/110 117/117/117
f 110/110/110 118/118/118 117/117/117
f 119/119/119 118/118/118 110/110/110
f 113/113/113 116/116/116 120/120/120
f 121/121/121 119/119/119 110/110/110
f 111/111/111 121/121/121 110/110/110
f 122/122/122 119/119/119 121/121/121
f 113/113/113 123/123/123 103/103/103
f 123/123/123 113/113/113 120/120/120
f 111/111/111 124/124/124 121/121/121
f 124/124/124 111/111/111 108/108/108
f 125/125/125 122/122/122 121/121/121
f 124/124/124 125/125/125 121/121/121
f 45/45/45 122/122/122 125/125/125
f 123/123/123 126/126/126 103/103/103
f 103/103/103 126/126/126 102/102/102
f 127/127/127 123/123/123 120/120/120
f 123/123/123 127/127/127 126/126/126
f 128/128/128 127/127/127 120/120/120
f 129/129/129 45/45/45 125/125/125
f 45/45/45 129/129/129 46/46/46
f 130/130/130 129/129/129 125/125/125
f 129/129/129 130/130/130 46/46/46
f 124/124/124 130/130/130 125/125/125
f 130/130/130 131/131/131 46/46/46
f 131/131/131 130/130/130 124/124/124
f 131/131/131 72/72/72 46/46/46
f 126/126/126 132/132/132 102/102/102
f 127/127/127 132/132/132 126/126/126
f 127/127/127 128/128/128 133/133/133
f 127/127/127 133/133/133 132/132/132
f 128/128/128 134/134/134 133/133/133
f 132/132/132 135/135/135 102/102/102
f 102/102/102 135/135/135 101/101/101
f 136/136/136 131/131/131 124/124/124
f 136/136/136 124/124/124 108/108/108
f 136/136/136 108/108/108 93/93/93
f 137/137/137 136/136/136 93/93/93
f 131/131/131 136/136/136 137/137/137
f 137/137/137 93/93/93 67/67/67
f 138/138/138 131/131/131 137/137/137
f 138/138/138 137/137/137 67/67/67
f 131/131/131 138/138/138 72/72/72
f 139/139/139 138/138/138 67/67/67
f 138/138/138 139/139/139 72/72/72
f 66/66/66 139/139/139 67/67/67
f 139/139/139 66/66/66 72/72/72
f 132/132/132 140/140/140 135/135/135
f 133/133/133 140/140/140 132/132/132
f 140/140/140 141/141/141 135/135/135
f 140/140/140 133/133/133 142/142/142
f 140/140/140 142/142/142 141/141/141
f 135/135/135 141/141/141 143/143/143
f 135/135/135 143/143/143 101/101/101
f 101/101/101 143/143/143 104/104/104
f 133/133/133 144/144/144 142/142/142
f 133/133/133 134/134/134 144/144/144
f 134/134/134 145/145/145 144/144/144
f 144/144/144 145/145/145 146/146/146
f 144/144/144 146/146/146 142/142/142
f 145/145/145 147/147/147 146/146/146
f 146/146/146 147/147/147 148/148/148
f 147/147/147 149/149/149 148/148/148
f 146/146/146 150/150/150 142/142/142
f 146/146/146 148/148/148 150/150/150
f 142/142/142 151/151/151 141/141/141
f 142/142/142 150/150/150 151/151/151
f 141/141/141 152/152/152 143/143/143
f 141/141/141 151/151/151 152/152/152
f 143/143/143 153/153/153 104/104/104
f 143/143/143 152/152/152 153/153/153
f 148/148/148 149/149/149 154/154/154
f 149/149/149 155/155/155 154/154/154
f 148/148/148 156/156/156 150/150/150
f 148/148/148 154/154/154 156/156/156
f 150/150/150 157/157/157 151/151/151
f 150/150/150 156/156/156 157/157/157
f 151/151/151 158/158/158 152/152/152
f 151/151/151 157/157/157 158/158/158
f 154/154/154 155/155/155 159/159/159
f 155/155/155 160/160/160 159/159/159
f 159/159/159 160/160/160 161/161/161
f 160/160/160 162/162/162 161/161/161
f 162/162/162 163/163/163 161/161/161
f 154/154/154 164/164/164 156/156/156
f 154/154/154 159/159/159 164/164/164
f 156/156/156 165/165/165 157/157/157
f 156/156/156 164/164/164 165/165/165
f 159/159/159 166/166/166 164/164/164
f 166/166/166 159/159/159 161/161/161
f 152/152/152 158/158/158 167/167/167
f 152/152/152 167/167/167 153/153/153
f 157/157/157 168/168/168 158/158/158
f 157/157/157 165/165/165 168/168/168
f 164/164/164 169/169/169 165/165/165
f 164/164/164 166/166/166 169/169/169
f 158/158/158 170/170/170 167/167/167
f 158/158/158 168/168/168 170/170/170
f 165/165/165 171/171/171 168/168/168
f 165/165/165 169/169/169 171/171/171
f 168/168/168 172/172/172 170/170/170
f 168/168/168 171/171/171 172/172/172
f 153/153/153 167/167/167 173/173/173
f 167/167/167 170/170/170 174/174/174
f 167/167/167 174/174/174 173/173/173
f 173/173/173 174/174/174 175/175/175
f 153/153/153 173/173/173 176/176/176
f 176/176/176 173/173/173 175/175/175
f 104/104/104 153/153/153 176/176/176
f 104/104/104 176/176/176 84/84/84
f 176/176/176 177/177/177 84/84/84
f 177/177/177 176/176/176 175/175/175
f 177/177/177 83/83/83 84/84/84
f 177/177/177 78/78/78 83/83/83
f 78/78/78 177/177/177 175/175/175
f 170/170/170 178/178/178 174/174/174
f 170/170/170 172/172/172 178/178/178
f 179/179/179 78/78/78 175/175/175
f 179/179/179 76/76/76 78/78/78
f 79/79/79 76/76/76 179/179/179
f 180/180/180 79/79/79 179/179/179
f 180/180/180 179/179/179 175/175/175
f 79/79/79 180/180/180 87/87/87
f 174/174/174 181/181/181 175/175/175
f 181/181/181 180/180/180 175/175/175
f 174/174/174 178/178/178 181/181/181
f 180/180/180 181/181/181 87/87/87
f 178/178/178 182/182/182 181/181/181
f 181/181/181 182/182/182 87/87/87
f 172/172/172 183/183/183 178/178/178
f 178/178/178 183/183/183 182/182/182
f 182/182/182 184/184/184 87/87/87
f 183/183/183 184/184/184 182/182/182
f 184/184/184 92/92/92 87/87/87
f 172/172/172 185/185/185 183/183/183
f 171/171/171 185/185/185 172/172/172
f 183/183/183 186/186/186 184/184/184
f 185/185/185 186/186/186 183/183/183
f 184/184/184 187/187/187 92/92/92
f 186/186/186 187/187/187 184/184/184
f 171/171/171 188/188/188 185/185/185
f 169/169/169 188/188/188 171/171/171
f 185/185/185 189/189/189 186/186/186
f 188/188/188 189/189/189 185/185/185
f 169/169/169 190/190/190 188/188/188
f 166/166/166 190/190/190 169/169/169
f 187/187/187 191/191/191 92/92/92
f 92/92/92 191/191/191 15/15/15
f 186/186/186 192/192/192 187/187/187
f 189/189/189 192/192/192 186/186/186
f 188/188/188 193/193/193 189/189/189
f 190/190/190 193/193/193 188/188/188
f 193/193/193 194/194/194 189/189/189
f 189/189/189 194/194/194 192/192/192
f 194/194/194 193/193/193 190/190/190
f 166/166/166 195/195/195 190/190/190
f 195/195/195 166/166/166 161/161/161
f 187/187/187 196/196/196 191/191/191
f 192/192/192 196/196/196 187/187/187
f 191/191/191 197/197/197 15/15/15
f 196/196/196 197/197/197 191/191/191
f 192/192/192 198/198/198 196/196/196
f 194/194/194 198/198/198 192/192/192
f 198/198/198 194/194/194 199/199/199
f 200/200/200 194/194/194 190/190/190
f 195/195/195 200/200/200 190/190/190
f 194/194/194 200/200/200 199/199/199
f 200/200/200 195/195/195 199/199/199
f 198/198/198 201/201/201 196/196/196
f 196/196/196 201/201/201 197/197/197
f 201/201/201 198/198/198 199/199/199
f 202/202/202 195/195/195 161/161/161
f 195/195/195 202/202/202 199/199/199
f 203/203/203 202/202/202 161/161/161
f 202/202/202 203/203/203 199/199/199
f 163/163/163 203/203/203 161/161/161
f 203/203/203 204/204/204 199/199/199
f 204/204/204 201/201/201 199/199/199
f 203/203/203 163/163/163 204/204/204
f 201/201/201 205/205/205 197/197/197
f 205/205/205 201/201/201 204/204/204
f 163/163/163 206/206/206 204/204/204
f 206/206/206 205/205/205 204/204/204
f 163/163/163 4/4/4 206/206/206
f 197/197/197 205/205/205 207/207/207
f 197/197/197 207/207/207 15/15/15
f 207/207/207 16/16/16 15/15/15
f 4/4/4 208/208/208 206/206/206
f 208/208/208 4/4/4 1/1/1
f 209/209/209 205/205/205 206/206/206
f 208/208/208 209/209/209 206/206/206
f 205/205/205 209/209/209 207/207/207
f 209/209/209 208/208/208 1/1/1
f 210/210/210 16/16/16 207/207/207
f 16/16/16 210/210/210 1/1/1
f 209/209/209 210/210/210 207/207/207
f 210/210/210 209/209/209 1/1/1
