g snow1_13
v -6.40861682 1.36036083 -2.1366268
v -6.15526685 0.454576803 -3.14834186
v -6.17485251 1.46355408 -3.14834186
v -5.8458977 2.00373917 -3.14834186
v -6.43936419 0.444257478 -2.15684426
v -6.11272596 -0.355174324 -3.14834186
v -6.41324998 -0.389501875 -2.1781147
v -5.99078945 -0.858715271 -3.14834186
v -6.29278766 -1.17040101 -1.67204657
v -5.66899498 -1.18788068 -3.14834186
v -5.74038786 -1.57980444 -1.69015804
v -5.28970713 -1.24453167 -3.14834186
v -5.06773634 -1.60149608 -1.73206714
v -4.20259782 -1.03772397 -3.14834186
v -6.02616999 2.10335224 -2.11198678
v -6.576885 1.32055772 -1.04151475
v -6.63290419 0.418564464 -1.06783955
v -5.05088846 2.45884247 -1.53284098
v -4.893782 2.10693242 -3.14834186
v -6.14557932 2.20106993 -1.01371575
v -5.11680579 2.65743682 0.662858692
v -3.85553153 2.48285069 -1.48145495
v -3.73949178 2.23181731 -3.14834186
v -6.66323037 1.32034712 0.0651802272
v -6.60826417 -0.440466705 -1.09500676
v -6.73820343 0.389291276 0.0356964411
v -6.67776166 1.3235061 1.17440238
v -6.20854827 2.26656606 0.0919262332
v -6.74304719 -0.494590513 0.00136889007
v -3.89954662 2.67639069 0.688551706
v -3.77571471 2.52749757 2.04417407
v -1.87801188 2.6471175 0.719299083
v -6.23613667 2.27983376 1.18809128
v -5.95224993 2.10335224 2.18990822
v -6.45894985 -1.32224251 -0.0455945693
v -6.78980005 0.368442028 1.14175962
v -6.61247614 0.339590037 2.14820972
v -6.90078545 -0.542185767 1.11943618
v -4.94579983 2.4259891 2.09956147
v -5.74038786 -1.82367747 -0.0828704989
v -6.45558028 1.24558467 2.18927642
v -5.81304434 1.0888994 2.87645924
v -5.56243215 1.73838509 2.69850353
v -4.74889025 1.8615852 2.69976712
v -6.50380733 -1.45323476 1.11901498
v -5.64540795 -1.86979854 1.09037359
v -5.4453394 -1.71732524 2.15200049
v -6.26519926 -1.28749376 2.2061243
v -4.76784412 -1.82283508 0.993287695
v -6.7274629 -0.518177541 2.16337281
v -5.8454765 -0.842499189 2.97270274
v -6.36544413 -0.401295389 2.81159491
v -5.335407 -0.047700554 3.14834186
v -6.12725726 0.260826208 2.93058304
v -4.86303463 -1.80409181 -0.123305406
v -5.13533845 -1.1449186 2.76779042
v -4.64380162 0.904204541 3.02303577
v -3.38084258 1.24642706 2.73283108
v -4.01263799 0.181009387 2.65111887
v -4.63579887 -0.471635279 2.90004626
v -4.26598796 -0.774265284 2.33922253
v -4.67160062 -1.21694327 2.40619285
v -4.68507892 -1.57706666 1.89380676
v -4.12025381 -1.24263629 0.910311897
v -4.10403773 -1.06468058 1.72806577
v -3.56153607 -0.626425156 0.896412398
v -4.18259096 -1.19167146 -0.0919262332
v -3.67294266 -0.250296285 2.18506445
v -4.20744158 -1.11459242 -1.61960755
v -3.45349905 -0.710243348 -0.775318276
v -3.42822723 -0.614421043 -3.14834186
v -2.59783746 -0.638429269 -0.719930878
v -2.59846925 -0.612736256 -3.14834186
v -1.65583049 -0.817437971 -0.689183501
v -1.66235904 -0.829652682 -3.14834186
v -2.97438753 0.342959612 2.26003751
v -2.69260677 -0.368231429 1.59770531
v -1.93339928 0.432674562 2.32132166
v -2.64185254 -0.630426527 0.933688328
v -0.637797474 -0.937689699 -0.688972903
v -0.637165678 -0.96232972 -3.14834186
v -1.68468248 -0.726880628 1.01160976
v -3.53563245 -0.525759086 1.61013062
v -1.74280766 -0.424882418 1.71585105
v -0.624319172 -0.9098907 1.0061342
v 0.376234171 -0.753205437 -0.723300454
v 0.391186663 -0.779951443 -3.14834186
v -0.607892491 -0.596098976 1.82494106
v 0.416669078 -0.655066549 0.892832224
v 1.31466096 -0.619475407 -0.769842716
v 1.31929413 -0.650854579 -3.14834186
v 1.38794923 -0.514386769 0.744992096
v 0.443415084 -0.342117219 1.58801778
v 2.20401831 -0.670650836 -0.786058798
v 2.20422891 -0.665596472 -3.14834186
v 2.29078488 -0.596098976 0.63969286
v 2.80590875 -1.13144029 -0.797009919
v 2.76547384 -1.12470114 -3.14834186
v -0.776581867 0.377076565 2.50685892
v 1.49135308 -0.331587295 1.39447779
v 1.72827636 0.285887426 2.16695298
v 2.85855837 -1.0760529 0.640114057
v 2.90446883 -1.7920877 -0.753205437
v 2.89246472 -1.79524668 -3.14834186
v 0.463632537 0.413720699 2.34680408
v 0.438992516 1.37110135 2.81749166
v -0.946956031 1.4060607 2.75810289
v 2.91668354 -1.65330331 0.714455318
v 3.14960545 -2.55234819 -0.662858692
v 3.06157529 -2.56540529 -3.14834186
v -2.21897081 1.36015023 2.65743682
v -2.39819011 2.01426909 2.53971228
v -1.06425938 2.07260487 2.53213073
v 3.13781194 -2.28973189 0.890305042
v 3.14792067 -1.78471675 1.42796294
v 3.68894814 -2.50559533 0.933688328
v 3.69905687 -2.67028333 -0.689183501
v 3.7085338 -2.74504579 -3.14834186
v 4.26577736 -2.54624083 -0.738884741
v 4.28662661 -2.60183883 -3.14834186
v 2.95122169 -1.50377839 1.13775825
v 2.88614677 -1.05057048 1.19019727
v 4.75773539 -2.35670221 -0.762261171
v 4.78785097 -2.42135594 -3.14834186
v 2.47063598 -0.480269816 1.19125026
v 2.72145876 -0.323795151 1.751021
v 3.09463925 -1.11964678 1.68426128
v 3.69358131 -1.28517718 2.16316221
v 5.17303558 -1.92350115 -0.723932249
v 5.19999218 -1.94182322 -3.14834186
v 3.38716053 -0.0845552867 2.39524173
v 5.04457051 -0.407402745 2.25519374
v 3.39790105 0.946113638 2.75389093
v 4.75857778 -1.41090447 1.90096711
v 3.69358131 -2.09092693 1.71816764
v 4.5216545 -2.09471771 1.43575509
v 4.33148408 -2.40387626 0.778687852
v 4.98454995 -1.97952034 0.831969265
v 4.71393091 -2.27225222 0.570195364
v 5.20799492 -1.40121694 1.05920502
v 5.41627681 -1.33824799 -0.67001904
v 5.47650798 -1.31950473 -3.14834186
v 5.97457336 -1.07436811 -0.620738998
v 5.93919282 -0.987601537 -3.14834186
v 5.72290819 -0.969279469 1.24811185
v 6.58046517 -0.822492334 -0.625793361
v 6.65185805 -0.895570004 -3.14834186
v 6.57435781 -0.689183501 1.31613515
v 6.78643048 0.00263248091 1.07226212
v 6.85529618 -0.139942685 -0.676547593
v 6.85677037 -0.0915050363 -3.14834186
v 6.86961687 0.638429269 -0.690236493
v 6.87235465 0.669597843 -3.14834186
v 6.21276024 -0.097612392 2.08861035
v 6.00468895 0.717403696 2.47379496
v 6.89741587 1.3513051 -0.679917168
v 6.8797256 1.36794238 1.00466001
v 6.90078545 1.35930784 -3.14834186
v 6.44778813 2.03238056 -1.46481768
v 6.63943274 1.95193194 -3.14834186
v 6.85824455 0.67423101 1.01097797
v 6.69355655 0.179324599 1.71922063
v 6.72051315 0.726248832 1.81693832
v 4.84113239 0.738674142 2.67323171
v 4.77416207 1.67415256 2.60963097
v 6.66996952 1.42543576 1.81693832
v 5.88317363 1.59138736 2.36533674
v 6.40398365 1.88622522 1.59623112
v 5.74417864 2.09682369 1.84915989
v 6.66049259 2.06017956 1.03772397
v 6.44041719 2.07829103 0.200595045
v 5.70248014 2.37207589 1.13544166
v 4.5629318 2.54539844 0.797220517
v 4.69666183 2.27372641 2.05596759
v 5.68099909 2.52433859 0.271987927
v 5.7212234 2.54518784 -0.771948701
v 3.34525144 2.39524173 2.15452767
v 5.79619646 2.44367938 -1.87379991
v 6.15779404 2.3166885 -3.14834186
v 4.54124016 2.46684521 -1.34267056
v 4.69876782 2.20738789 -3.14834186
v 3.24142639 2.19959575 -3.14834186
v 3.1982537 2.43272825 -1.34288116
v 1.74470305 2.19306719 -3.14834186
v 3.38926652 1.90728507 2.81496448
v 3.24290058 2.52454919 0.847132355
v 1.74870442 2.48306129 -1.35404288
v 0.269460746 2.18717044 -3.14834186
v 1.80072224 2.65385665 0.847132355
v 0.270303139 2.49232762 -1.38373726
v -1.84305253 2.22760534 -3.14834186
v 1.87085153 2.50412114 2.13999638
v 0.297470342 2.74504579 0.797009919
v -1.8750635 2.43946741 -1.43112192
v 0.339590037 2.63237561 2.1096702
v 1.91360302 2.08524078 2.79074566
v -1.81757012 2.52770817 1.99005027
v 1.9026519 1.23315936 2.80991012
v 0.391397261 2.12757107 2.68692061
v -3.61671287 1.99278805 2.59362549
vt 0.158463105 0.218086937
vt 0.157623332 0.134109708
vt 0.117314263 0.208849442
vt 0.103038134 0.260075552
vt 0.189534679 0.165181283
vt 0.208849442 0.0904415495
vt 0.227324432 0.125711986
vt 0.247478967 0.0669279255
vt 0.276870997 0.117314263
vt 0.281909631 0.0518120243
vt 0.313820978 0.103038134
vt 0.312141433 0.0408949845
vt 0.350770959 0.0912813218
vt 0.397798207 0.0257790834
vt 0.144186976 0.270992591
vt 0.193733541 0.234042611
vt 0.218086937 0.192053996
vt 0.160142649 0.342373236
vt 0.0887620049 0.33649483
vt 0.181136957 0.286108492
vt 0.240760789 0.350770959
vt 0.174418778 0.411234563
vt 0.103038134 0.425510692
vt 0.224805115 0.251677829
vt 0.249158512 0.157623332
vt 0.243280106 0.214727848
vt 0.25587669 0.268473274
vt 0.216407393 0.297025532
vt 0.270152819 0.185335818
vt 0.262594868 0.396958434
vt 0.320539156 0.377643672
vt 0.31466075 0.464140217
vt 0.250838056 0.3071028
vt 0.286948265 0.312981206
vt 0.301224394 0.162661966
vt 0.268473274 0.235722155
vt 0.297025532 0.25587669
vt 0.291147126 0.210528987
vt 0.297025532 0.347411869
vt 0.339014147 0.147546065
vt 0.288627809 0.282749403
vt 0.320539156 0.295345988
vt 0.312141433 0.315500523
vt 0.328936879 0.335655057
vt 0.321378929 0.190374452
vt 0.35496982 0.181136957
vt 0.36588686 0.214727848
vt 0.337334602 0.219766482
vt 0.386881167 0.181976729
vt 0.311301661 0.233202838
vt 0.349091414 0.246639195
vt 0.328097107 0.249158512
vt 0.35496982 0.275191453
vt 0.32557779 0.270152819
vt 0.378483444 0.144186976
vt 0.372605038 0.241600561
vt 0.360008454 0.310461889
vt 0.385201622 0.339853919
vt 0.396958434 0.291147126
vt 0.383522078 0.26679373
vt 0.40283684 0.249998284
vt 0.390240256 0.235722155
vt 0.391919801 0.213888076
vt 0.417952742 0.192053996
vt 0.415433425 0.225644888
vt 0.445665227 0.208849442
vt 0.418792514 0.151744926
vt 0.419632286 0.269313047
vt 0.408715246 0.0912813218
vt 0.457422039 0.134109708
vt 0.464140217 0.0299779448
vt 0.497731109 0.151744926
vt 0.519565188 0.0442540737
vt 0.539719723 0.174418778
vt 0.580868565 0.0677676977
vt 0.426350464 0.304583483
vt 0.458261811 0.262594868
vt 0.449864088 0.328097107
vt 0.474217485 0.229003977
vt 0.58254811 0.202131264
vt 0.64133217 0.0996790447
vt 0.505289059 0.250838056
vt 0.434748187 0.242440334
vt 0.484294752 0.284428948
vt 0.54223904 0.272672136
vt 0.624536724 0.231523294
vt 0.695917369 0.140827887
vt 0.519565188 0.308782344
vt 0.577509476 0.297865304
vt 0.660646933 0.260075552
vt 0.7404253 0.181136957
vt 0.61194014 0.320539156
vt 0.553995852 0.331456196
vt 0.693398052 0.289467582
vt 0.779054825 0.222285799
vt 0.643851487 0.341533463
vt 0.721110537 0.315500523
vt 0.808446855 0.257556235
vt 0.480935663 0.353290275
vt 0.590945833 0.350770959
vt 0.561553803 0.396958434
vt 0.6707242 0.358328909
vt 0.742104844 0.341533463
vt 0.834479796 0.292826671
vt 0.519565188 0.376803899
vt 0.482615208 0.420472058
vt 0.442306138 0.393599345
vt 0.68919919 0.374284583
vt 0.761419607 0.375124355
vt 0.860512737 0.337334602
vt 0.410394791 0.365047087
vt 0.381842533 0.386881167
vt 0.414593652 0.418792514
vt 0.705154864 0.396118662
vt 0.677442378 0.401157296
vt 0.716911676 0.416273197
vt 0.774016191 0.400317524
vt 0.873949094 0.379323216
vt 0.783253687 0.428030009
vt 0.881507044 0.417112969
vt 0.673243517 0.385201622
vt 0.654768527 0.380162989
vt 0.78829232 0.454902722
vt 0.884866133 0.452383405
vt 0.627895813 0.368406177
vt 0.613619685 0.398637979
vt 0.648890121 0.40283684
vt 0.654768527 0.433908415
vt 0.785773003 0.484294752
vt 0.884866133 0.49437202
vt 0.606061734 0.441466366
vt 0.649729893 0.492692475
vt 0.569111753 0.475897029
vt 0.680801468 0.469178851
vt 0.686679874 0.42467092
vt 0.705994636 0.451543633
vt 0.72950826 0.439786821
vt 0.728668488 0.470018623
vt 0.738745755 0.454902722
vt 0.715232131 0.490173158
vt 0.779054825 0.515366327
vt 0.878987727 0.538879951
vt 0.76981733 0.543918585
vt 0.869750232 0.575829932
vt 0.702635547 0.512007238
vt 0.758060518 0.574990159
vt 0.85043547 0.620337863
vt 0.696757141 0.544758357
vt 0.68919919 0.572470842
vt 0.739585528 0.606901506
vt 0.81768435 0.666525339
vt 0.711873042 0.636293536
vt 0.78073437 0.703475319
vt 0.662326477 0.536360634
vt 0.631254903 0.543078812
vt 0.680801468 0.657287843
vt 0.650569665 0.608581051
vt 0.743784389 0.734546894
vt 0.654768527 0.700956002
vt 0.702635547 0.756380973
vt 0.672403745 0.59346515
vt 0.668204883 0.559874258
vt 0.653088982 0.570791298
vt 0.605221962 0.511167465
vt 0.577509476 0.538040179
vt 0.632934447 0.583387882
vt 0.606901506 0.562393575
vt 0.616978774 0.595984466
vt 0.592625377 0.585067427
vt 0.624536724 0.615299229
vt 0.628735586 0.645531031
vt 0.586746971 0.614459457
vt 0.540559496 0.621177635
vt 0.559034486 0.568271981
vt 0.589266288 0.645531031
vt 0.597664011 0.686679874
vt 0.517885644 0.54223904
vt 0.615299229 0.727828716
vt 0.661486705 0.770657102
vt 0.535520862 0.708513953
vt 0.552316308 0.78829232
vt 0.445665227 0.771496875
vt 0.459941356 0.690878735
vt 0.34405278 0.730348032
vt 0.539719723 0.510327693
vt 0.491012931 0.595984466
vt 0.385201622 0.653088982
vt 0.258396007 0.664845794
vt 0.437267504 0.564912892
vt 0.31466075 0.604382189
vt 0.162661966 0.549796991
vt 0.473377713 0.51284701
vt 0.38436185 0.527962911
vt 0.228164205 0.514526555
vt 0.428869781 0.479256119
vt 0.498570881 0.481775435
vt 0.367566404 0.426350464
vt 0.525443594 0.447344772
vt 0.455742494 0.450703861
vt 0.352450503 0.360008454
vn -0.952875998 0.231478718 -0.196073803
vn -0.960717273 -0.0116008008 -0.277286393
vn -0.945034723 0.239319992 -0.222789842
vn -0.443193137 0.87446325 -0.197215284
vn -0.976399822 0.00408174875 -0.215932227
vn -0.945034723 -0.160585022 -0.284818931
vn -0.960717273 -0.137061197 -0.241322503
vn -0.803891777 -0.521283662 -0.286393706
vn -0.772526678 -0.607537684 -0.184663191
vn -0.396145488 -0.881982302 -0.255295851
vn -0.341256565 -0.921188676 -0.186963581
vn 0.184108846 -0.96039505 -0.209153726
vn 0.262521594 -0.952553775 -0.154025058
vn 0.41934709 -0.897664852 -0.135446789
vn -0.560812258 0.811733052 -0.163030867
vn -0.960717273 0.262843817 -0.0890811446
vn -0.992082372 0.0276055731 -0.122517346
vn -0.113859596 0.984241097 -0.135297656
vn -0.106018321 0.976399822 -0.188158186
vn -0.592177358 0.803891777 -0.0555336679
vn -0.129476867 0.991582443 -0
vn -0.00408174875 0.992082372 -0.125522536
vn -0.0119230235 0.992082372 -0.125021635
vn -0.960717273 0.270685091 -0.061252784
vn -0.976399822 -0.160585022 -0.144415505
vn -0.992082372 0.0589706722 -0.110882946
vn -0.952875998 0.286367641 0.100104481
vn -0.607859907 0.788209227 -0.0960861452
vn -0.976399822 -0.168426297 -0.135188646
vn -0.00408174875 0.999923646 -0.0116636443
vn -0.0119230235 0.945034723 0.326752527
vn -0.0119230235 0.999923646 -0.00324696472
vn -0.639225006 0.749002853 0.174316141
vn -0.51376461 0.749002853 0.418378598
vn -0.780367952 -0.615378959 -0.111061223
vn -0.992082372 0.106018321 0.0673252067
vn -0.921510899 0.160907244 0.353449462
vn -0.984241097 -0.168426297 0.05387064
vn -0.129542145 0.929352173 0.345721521
vn -0.286367641 -0.952553775 -0.103125554
vn -0.850939426 0.302050191 0.429729888
vn -0.388304213 0.270685091 0.880879912
vn -0.270685091 0.490240785 0.828488717
vn -0.0119230235 0.505923335 0.862496041
vn -0.733320304 -0.678109158 0.0490846467
vn -0.223637443 -0.968236325 0.111824478
vn -0.129542145 -0.913347401 0.386025074
vn -0.607859907 -0.685950432 0.399972921
vn 0.371982735 -0.928239648 -0
vn -0.921510899 -0.184108846 0.341938001
vn -0.270685091 -0.442870914 0.854748463
vn -0.67843138 -0.129219923 0.723210256
vn 0.0351246252 -0.0351246252 0.998765499
vn -0.505923335 0.145224695 0.850265469
vn 0.340934342 -0.936871225 -0.0776922228
vn 0.113537373 -0.59969641 0.792132237
vn 0.137061197 0.0824944966 0.987121515
vn 0.152743747 -0.0508071747 0.986958955
vn 0.395823265 -0.254680319 0.882304867
vn 0.395823265 -0.262521594 0.880003611
vn 0.631061509 -0.505601112 0.588327194
vn 0.513442387 -0.638902784 0.572870097
vn 0.435029639 -0.850617203 0.295295762
vn 0.675186865 -0.737646729 -0
vn 0.693791707 -0.670267883 0.263427471
vn 0.364458166 -0.929029951 0.0638247278
vn 0.623220234 -0.78004573 -0.0559034824
vn 0.497759837 -0.58401386 0.641219896
vn 0.482077288 -0.874141027 -0.0589826506
vn 0.23899777 -0.968236325 -0.0734743891
vn 0.254382403 -0.967103714 -0
vn -0.08224778 -0.996611912 -0
vn -0.0900050007 -0.995941313 -0
vn -0.15306597 -0.983918874 0.0920568193
vn -0.160907244 -0.983918874 0.077540362
vn 0.137061197 -0.482077288 0.865341387
vn 0.0351246252 -0.819252104 0.572356752
vn -0.0824944966 -0.482077288 0.872236291
vn -0.0511293975 -0.991760149 0.11746315
vn 0.0272833504 -0.999601424 0.00725344384
vn 0.0272833504 -0.999601424 0.00725344384
vn -0.145224695 -0.976077599 0.16180948
vn 0.458553464 -0.795728279 0.395657967
vn -0.13738342 -0.756521905 0.639375009
vn 0.0351246252 -0.983918874 0.175128267
vn 0.168426297 -0.983918874 0.0594662231
vn 0.160585022 -0.983918874 0.0782054975
vn 0.0508071747 -0.76436318 0.642781113
vn 0.191950121 -0.968236325 0.160229744
vn 0.0507619058 -0.998710783 -0
vn 0.0507619058 -0.998710783 -0
vn 0.0508071747 -0.991760149 0.117602882
vn 0.176267571 -0.787887005 0.590054075
vn -0.31773274 -0.9447125 0.0810197366
vn -0.31773274 -0.9447125 0.0810197366
vn -0.325574015 -0.936871225 0.12756907
vn -0.858297025 -0.51315321 -0
vn -0.849212565 -0.528051153 -0
vn -0.0119230235 -0.474236013 0.880317014
vn 0.00375952604 -0.866299752 0.499510365
vn -0.0589706722 -0.607537684 0.792098745
vn -0.8587807 -0.497759837 0.121370725
vn -0.974828544 -0.222955848 -0
vn -0.976399822 -0.215473945 0.0146412547
vn 0.0821722739 -0.552648761 0.829353401
vn -0.0119230235 -0.168426297 0.985642138
vn -0.0511293975 -0.0821722739 0.995305733
vn -0.968558547 -0.231156495 0.0919837776
vn -0.733320304 -0.678109158 0.0490846467
vn -0.749002853 -0.662426608 0.0136277196
vn -0.0197642983 -0.105696098 0.994202046
vn 0.0116008008 0.505923335 0.862500435
vn -0.0746532218 0.529447159 0.845051834
vn -0.709796479 -0.670267883 0.216633153
vn -0.701955205 -0.450712189 0.551468416
vn -0.0746532218 -0.96039505 0.268455294
vn -0.0276055731 -0.999601424 0.00590982148
vn -0.0119230235 -0.999601424 0.0255897473
vn 0.278204144 -0.96039505 0.0156141866
vn 0.285449361 -0.958393793 -0
vn -0.945034723 -0.215473945 0.245927533
vn -0.850939426 -0.435029639 0.294365941
vn 0.568331311 -0.819252104 0.0763250421
vn 0.575267579 -0.817965288 -0
vn -0.372621664 -0.827093378 0.420796434
vn -0.435351862 -0.654585333 0.618050805
vn -0.686272655 -0.348775617 0.638267508
vn -0.121700871 -0.356616891 0.926290068
vn 0.849122862 -0.528195385 -0
vn 0.842775928 -0.536966211 0.03736339
vn -0.113859596 -0.380140716 0.9178938
vn 0.184108846 -0.41934709 0.888961164
vn -0.0197642983 -0.231156495 0.97271581
vn 0.364458166 -0.450712189 0.814879603
vn -0.121700871 -0.670267883 0.732072308
vn 0.40366454 -0.693791707 0.596412614
vn 0.270362869 -0.936871225 0.221757133
vn 0.811410829 -0.544807486 0.211653655
vn 0.552648761 -0.827093378 0.102449452
vn 0.717315531 -0.638902784 0.27795982
vn 0.748680631 -0.662426608 0.0258515449
vn 0.756216701 -0.654321253 -0
vn 0.394785429 -0.918773348 -0
vn 0.371982735 -0.928239648 -0
vn 0.435029639 -0.827093378 0.355901329
vn 0.699248966 -0.71487823 -0
vn 0.709474257 -0.701632982 0.0660108914
vn 0.615378959 -0.732998081 0.289866434
vn 0.968236325 -0.215473945 0.126843993
vn 0.982940148 -0.183925709 -0
vn 0.983918874 -0.168426297 0.0594662231
vn 0.999383209 -0.0351169574 -0
vn 0.999601424 -0.0272833504 0.00725344384
vn 0.387981991 -0.497759837 0.775696538
vn 0.356616891 -0.113537373 0.927326079
vn 0.981436523 0.191787255 -0
vn 0.976077599 0.200113618 0.0850121151
vn 0.974742538 0.223331556 -0
vn 0.748680631 0.662748831 0.0155338583
vn 0.76436318 0.639225006 0.0845004145
vn 0.999077508 -0.0429433805 -0
vn 0.850617203 -0.20763267 0.483051807
vn 0.834934653 -0.0116008008 0.550226813
vn 0.105696098 -0.176267571 0.978651152
vn 0.176267571 0.364780389 0.914256535
vn 0.78004573 0.270685091 0.564143812
vn 0.364458166 0.380462938 0.84995188
vn 0.560490036 0.69411393 0.451726435
vn 0.262521594 0.843098151 0.469327094
vn 0.709474257 0.69411393 0.121869321
vn 0.685950432 0.725479029 -0.0561443042
vn 0.246839044 0.945034723 0.214429146
vn 0.0194398859 0.999811028 -0
vn 0.137061197 0.905828349 0.400860612
vn 0.199791396 0.976399822 0.0820169838
vn 0.215473945 0.976399822 -0.0146412547
vn 0.0900135487 0.937193448 0.336995552
vn 0.144902472 0.984241097 -0.10135451
vn 0.215473945 0.976399822 -0.0146412547
vn -0.027597166 0.999619126 -0
vn -0.0354468479 0.992082372 -0.120482732
vn 0.00375952604 0.992082372 -0.125532601
vn 0.0116008008 0.992082372 -0.125051946
vn 0.0116008008 0.984241097 -0.176450799
vn 0.0900135487 0.396145488 0.913764911
vn 0.035105655 0.999383607 -0
vn 0.0272833504 0.992082372 -0.122589505
vn 0.00375952604 0.984241097 -0.176791768
vn 0.0585522995 0.998284342 -0
vn -0.00408174875 0.992082372 -0.125522536
vn 0.00375952604 0.992082372 -0.125532601
vn 0.0664897243 0.952875998 0.295983867
vn -0.00408174875 0.999923646 -0.0116636443
vn -0.00408174875 0.992082372 -0.125522536
vn -0.0119230235 0.952875998 0.303125674
vn 0.0194420756 0.458875686 0.888287741
vn -0.0276055731 0.968558547 0.247249414
vn -0.0432881227 -0.254680319 0.966055937
vn -0.0432881227 0.51376461 0.856838412
vn 0.0429659 0.521605885 0.852104003
g snow1_13_0
f 3/3/3 2/2/2 1/1/1
f 4/4/4 3/3/3 1/1/1
f 2/2/2 5/5/5 1/1/1
f 2/2/2 6/6/6 5/5/5
f 6/6/6 7/7/7 5/5/5
f 6/6/6 8/8/8 7/7/7
f 8/8/8 9/9/9 7/7/7
f 8/8/8 10/10/10 9/9/9
f 10/10/10 11/11/11 9/9/9
f 10/10/10 12/12/12 11/11/11
f 12/12/12 13/13/13 11/11/11
f 13/13/13 12/12/12 14/14/14
f 15/15/15 4/4/4 1/1/1
f 1/1/1 5/5/5 16/16/16
f 15/15/15 1/1/1 16/16/16
f 5/5/5 7/7/7 17/17/17
f 5/5/5 17/17/17 16/16/16
f 4/4/4 15/15/15 18/18/18
f 19/19/19 4/4/4 18/18/18
f 20/20/20 15/15/15 16/16/16
f 15/15/15 20/20/20 18/18/18
f 18/18/18 20/20/20 21/21/21
f 19/19/19 18/18/18 22/22/22
f 23/23/23 19/19/19 22/22/22
f 20/20/20 16/16/16 24/24/24
f 16/16/16 17/17/17 24/24/24
f 7/7/7 25/25/25 17/17/17
f 7/7/7 9/9/9 25/25/25
f 17/17/17 25/25/25 26/26/26
f 17/17/17 26/26/26 24/24/24
f 24/24/24 26/26/26 27/27/27
f 28/28/28 20/20/20 24/24/24
f 20/20/20 28/28/28 21/21/21
f 28/28/28 24/24/24 27/27/27
f 25/25/25 9/9/9 29/29/29
f 25/25/25 29/29/29 26/26/26
f 18/18/18 21/21/21 30/30/30
f 30/30/30 21/21/21 31/31/31
f 22/22/22 18/18/18 30/30/30
f 22/22/22 30/30/30 32/32/32
f 32/32/32 30/30/30 31/31/31
f 33/33/33 28/28/28 27/27/27
f 28/28/28 33/33/33 21/21/21
f 33/33/33 34/34/34 21/21/21
f 34/34/34 33/33/33 27/27/27
f 9/9/9 35/35/35 29/29/29
f 9/9/9 11/11/11 35/35/35
f 26/26/26 29/29/29 36/36/36
f 26/26/26 36/36/36 27/27/27
f 27/27/27 36/36/36 37/37/37
f 29/29/29 38/38/38 36/36/36
f 29/29/29 35/35/35 38/38/38
f 36/36/36 38/38/38 37/37/37
f 21/21/21 39/39/39 31/31/31
f 34/34/34 39/39/39 21/21/21
f 11/11/11 40/40/40 35/35/35
f 11/11/11 13/13/13 40/40/40
f 41/41/41 27/27/27 37/37/37
f 41/41/41 34/34/34 27/27/27
f 41/41/41 42/42/42 34/34/34
f 42/42/42 41/41/41 37/37/37
f 34/34/34 43/43/43 39/39/39
f 42/42/42 43/43/43 34/34/34
f 43/43/43 44/44/44 39/39/39
f 39/39/39 44/44/44 31/31/31
f 43/43/43 42/42/42 44/44/44
f 35/35/35 45/45/45 38/38/38
f 40/40/40 46/46/46 35/35/35
f 46/46/46 45/45/45 35/35/35
f 45/45/45 46/46/46 47/47/47
f 45/45/45 48/48/48 38/38/38
f 48/48/48 45/45/45 47/47/47
f 49/49/49 46/46/46 40/40/40
f 46/46/46 49/49/49 47/47/47
f 48/48/48 50/50/50 38/38/38
f 38/38/38 50/50/50 37/37/37
f 48/48/48 51/51/51 50/50/50
f 51/51/51 48/48/48 47/47/47
f 50/50/50 52/52/52 37/37/37
f 51/51/51 52/52/52 50/50/50
f 52/52/52 51/51/51 53/53/53
f 52/52/52 54/54/54 37/37/37
f 54/54/54 42/42/42 37/37/37
f 54/54/54 52/52/52 53/53/53
f 42/42/42 54/54/54 53/53/53
f 55/55/55 49/49/49 40/40/40
f 13/13/13 55/55/55 40/40/40
f 56/56/56 51/51/51 47/47/47
f 51/51/51 56/56/56 53/53/53
f 57/57/57 42/42/42 53/53/53
f 42/42/42 57/57/57 44/44/44
f 44/44/44 57/57/57 58/58/58
f 59/59/59 57/57/57 53/53/53
f 57/57/57 59/59/59 58/58/58
f 56/56/56 60/60/60 53/53/53
f 60/60/60 59/59/59 53/53/53
f 60/60/60 56/56/56 61/61/61
f 60/60/60 61/61/61 59/59/59
f 62/62/62 56/56/56 47/47/47
f 56/56/56 62/62/62 61/61/61
f 63/63/63 62/62/62 47/47/47
f 61/61/61 62/62/62 63/63/63
f 49/49/49 63/63/63 47/47/47
f 49/49/49 55/55/55 64/64/64
f 49/49/49 64/64/64 63/63/63
f 65/65/65 61/61/61 63/63/63
f 64/64/64 65/65/65 63/63/63
f 65/65/65 64/64/64 66/66/66
f 55/55/55 67/67/67 64/64/64
f 64/64/64 67/67/67 66/66/66
f 67/67/67 55/55/55 13/13/13
f 61/61/61 68/68/68 59/59/59
f 61/61/61 65/65/65 68/68/68
f 69/69/69 67/67/67 13/13/13
f 69/69/69 13/13/13 14/14/14
f 67/67/67 69/69/69 70/70/70
f 69/69/69 14/14/14 70/70/70
f 67/67/67 70/70/70 66/66/66
f 14/14/14 71/71/71 70/70/70
f 70/70/70 71/71/71 72/72/72
f 70/70/70 72/72/72 66/66/66
f 71/71/71 73/73/73 72/72/72
f 72/72/72 73/73/73 74/74/74
f 73/73/73 75/75/75 74/74/74
f 59/59/59 68/68/68 76/76/76
f 76/76/76 68/68/68 77/77/77
f 76/76/76 77/77/77 78/78/78
f 59/59/59 76/76/76 58/58/58
f 76/76/76 78/78/78 58/58/58
f 72/72/72 79/79/79 66/66/66
f 72/72/72 74/74/74 79/79/79
f 66/66/66 79/79/79 77/77/77
f 74/74/74 75/75/75 80/80/80
f 75/75/75 81/81/81 80/80/80
f 74/74/74 82/82/82 79/79/79
f 79/79/79 82/82/82 77/77/77
f 82/82/82 74/74/74 80/80/80
f 68/68/68 83/83/83 77/77/77
f 83/83/83 66/66/66 77/77/77
f 65/65/65 83/83/83 68/68/68
f 83/83/83 65/65/65 66/66/66
f 82/82/82 84/84/84 77/77/77
f 77/77/77 84/84/84 78/78/78
f 82/82/82 85/85/85 84/84/84
f 85/85/85 82/82/82 80/80/80
f 80/80/80 81/81/81 86/86/86
f 81/81/81 87/87/87 86/86/86
f 85/85/85 88/88/88 84/84/84
f 84/84/84 88/88/88 78/78/78
f 89/89/89 85/85/85 80/80/80
f 86/86/86 89/89/89 80/80/80
f 85/85/85 89/89/89 88/88/88
f 86/86/86 87/87/87 90/90/90
f 87/87/87 91/91/91 90/90/90
f 92/92/92 89/89/89 86/86/86
f 90/90/90 92/92/92 86/86/86
f 89/89/89 93/93/93 88/88/88
f 89/89/89 92/92/92 93/93/93
f 90/90/90 91/91/91 94/94/94
f 91/91/91 95/95/95 94/94/94
f 96/96/96 92/92/92 90/90/90
f 94/94/94 96/96/96 90/90/90
f 94/94/94 95/95/95 97/97/97
f 95/95/95 98/98/98 97/97/97
f 88/88/88 93/93/93 99/99/99
f 88/88/88 99/99/99 78/78/78
f 100/100/100 92/92/92 96/96/96
f 92/92/92 100/100/100 93/93/93
f 93/93/93 100/100/100 101/101/101
f 102/102/102 96/96/96 94/94/94
f 97/97/97 102/102/102 94/94/94
f 97/97/97 98/98/98 103/103/103
f 98/98/98 104/104/104 103/103/103
f 93/93/93 105/105/105 99/99/99
f 105/105/105 93/93/93 101/101/101
f 99/99/99 105/105/105 106/106/106
f 105/105/105 101/101/101 106/106/106
f 99/99/99 107/107/107 78/78/78
f 107/107/107 99/99/99 106/106/106
f 108/108/108 102/102/102 97/97/97
f 103/103/103 108/108/108 97/97/97
f 103/103/103 104/104/104 109/109/109
f 104/104/104 110/110/110 109/109/109
f 107/107/107 111/111/111 78/78/78
f 78/78/78 111/111/111 58/58/58
f 112/112/112 111/111/111 107/107/107
f 111/111/111 112/112/112 58/58/58
f 113/113/113 107/107/107 106/106/106
f 113/113/113 112/112/112 107/107/107
f 114/114/114 108/108/108 103/103/103
f 109/109/109 114/114/114 103/103/103
f 114/114/114 115/115/115 108/108/108
f 114/114/114 109/109/109 116/116/116
f 115/115/115 114/114/114 116/116/116
f 109/109/109 110/110/110 117/117/117
f 109/109/109 117/117/117 116/116/116
f 110/110/110 118/118/118 117/117/117
f 117/117/117 118/118/118 119/119/119
f 117/117/117 119/119/119 116/116/116
f 118/118/118 120/120/120 119/119/119
f 115/115/115 121/121/121 108/108/108
f 108/108/108 121/121/121 102/102/102
f 121/121/121 122/122/122 102/102/102
f 122/122/122 121/121/121 115/115/115
f 102/102/102 122/122/122 96/96/96
f 119/119/119 120/120/120 123/123/123
f 120/120/120 124/124/124 123/123/123
f 122/122/122 125/125/125 96/96/96
f 125/125/125 100/100/100 96/96/96
f 100/100/100 125/125/125 126/126/126
f 125/125/125 122/122/122 126/126/126
f 101/101/101 100/100/100 126/126/126
f 127/127/127 122/122/122 115/115/115
f 122/122/122 127/127/127 126/126/126
f 128/128/128 127/127/127 115/115/115
f 126/126/126 127/127/127 128/128/128
f 123/123/123 124/124/124 129/129/129
f 124/124/124 130/130/130 129/129/129
f 126/126/126 131/131/131 101/101/101
f 131/131/131 126/126/126 128/128/128
f 132/132/132 131/131/131 128/128/128
f 131/131/131 132/132/132 133/133/133
f 131/131/131 133/133/133 101/101/101
f 134/134/134 132/132/132 128/128/128
f 135/135/135 128/128/128 115/115/115
f 134/134/134 128/128/128 135/135/135
f 135/135/135 115/115/115 116/116/116
f 136/136/136 135/135/135 116/116/116
f 136/136/136 134/134/134 135/135/135
f 137/137/137 136/136/136 116/116/116
f 119/119/119 137/137/137 116/116/116
f 134/134/134 136/136/136 138/138/138
f 138/138/138 136/136/136 137/137/137
f 139/139/139 137/137/137 119/119/119
f 139/139/139 138/138/138 137/137/137
f 123/123/123 139/139/139 119/119/119
f 138/138/138 139/139/139 123/123/123
f 129/129/129 138/138/138 123/123/123
f 140/140/140 134/134/134 138/138/138
f 140/140/140 138/138/138 129/129/129
f 132/132/132 134/134/134 140/140/140
f 141/141/141 140/140/140 129/129/129
f 129/129/129 130/130/130 141/141/141
f 130/130/130 142/142/142 141/141/141
f 141/141/141 142/142/142 143/143/143
f 141/141/141 143/143/143 140/140/140
f 142/142/142 144/144/144 143/143/143
f 145/145/145 132/132/132 140/140/140
f 143/143/143 145/145/145 140/140/140
f 143/143/143 144/144/144 146/146/146
f 144/144/144 147/147/147 146/146/146
f 145/145/145 143/143/143 148/148/148
f 132/132/132 145/145/145 148/148/148
f 143/143/143 146/146/146 148/148/148
f 148/148/148 146/146/146 149/149/149
f 146/146/146 147/147/147 150/150/150
f 146/146/146 150/150/150 149/149/149
f 147/147/147 151/151/151 150/150/150
f 150/150/150 151/151/151 152/152/152
f 149/149/149 150/150/150 152/152/152
f 151/151/151 153/153/153 152/152/152
f 154/154/154 132/132/132 148/148/148
f 154/154/154 148/148/148 149/149/149
f 132/132/132 154/154/154 155/155/155
f 152/152/152 153/153/153 156/156/156
f 156/156/156 157/157/157 152/152/152
f 153/153/153 158/158/158 156/156/156
f 156/156/156 158/158/158 159/159/159
f 158/158/158 160/160/160 159/159/159
f 161/161/161 149/149/149 152/152/152
f 157/157/157 161/161/161 152/152/152
f 162/162/162 154/154/154 149/149/149
f 154/154/154 162/162/162 155/155/155
f 161/161/161 163/163/163 149/149/149
f 163/163/163 162/162/162 149/149/149
f 163/163/163 161/161/161 157/157/157
f 162/162/162 163/163/163 155/155/155
f 164/164/164 132/132/132 155/155/155
f 164/164/164 155/155/155 165/165/165
f 132/132/132 164/164/164 133/133/133
f 133/133/133 164/164/164 165/165/165
f 163/163/163 166/166/166 155/155/155
f 166/166/166 163/163/163 157/157/157
f 166/166/166 167/167/167 155/155/155
f 155/155/155 167/167/167 165/165/165
f 166/166/166 168/168/168 167/167/167
f 168/168/168 166/166/166 157/157/157
f 168/168/168 169/169/169 167/167/167
f 167/167/167 169/169/169 165/165/165
f 170/170/170 168/168/168 157/157/157
f 168/168/168 170/170/170 169/169/169
f 171/171/171 170/170/170 157/157/157
f 156/156/156 171/171/171 157/157/157
f 156/156/156 159/159/159 171/171/171
f 170/170/170 172/172/172 169/169/169
f 170/170/170 171/171/171 172/172/172
f 172/172/172 173/173/173 169/169/169
f 173/173/173 174/174/174 169/169/169
f 169/169/169 174/174/174 165/165/165
f 171/171/171 175/175/175 172/172/172
f 175/175/175 173/173/173 172/172/172
f 175/175/175 171/171/171 176/176/176
f 171/171/171 159/159/159 176/176/176
f 175/175/175 176/176/176 173/173/173
f 174/174/174 177/177/177 165/165/165
f 174/174/174 173/173/173 177/177/177
f 159/159/159 178/178/178 176/176/176
f 159/159/159 160/160/160 178/178/178
f 160/160/160 179/179/179 178/178/178
f 176/176/176 178/178/178 180/180/180
f 178/178/178 179/179/179 180/180/180
f 176/176/176 180/180/180 173/173/173
f 179/179/179 181/181/181 180/180/180
f 181/181/181 182/182/182 180/180/180
f 182/182/182 183/183/183 180/180/180
f 173/173/173 180/180/180 183/183/183
f 182/182/182 184/184/184 183/183/183
f 177/177/177 185/185/185 165/165/165
f 185/185/185 133/133/133 165/165/165
f 186/186/186 173/173/173 183/183/183
f 173/173/173 186/186/186 177/177/177
f 184/184/184 187/187/187 183/183/183
f 184/184/184 188/188/188 187/187/187
f 189/189/189 186/186/186 183/183/183
f 186/186/186 189/189/189 177/177/177
f 187/187/187 189/189/189 183/183/183
f 188/188/188 190/190/190 187/187/187
f 188/188/188 191/191/191 190/190/190
f 189/189/189 192/192/192 177/177/177
f 177/177/177 192/192/192 185/185/185
f 189/189/189 187/187/187 193/193/193
f 187/187/187 190/190/190 193/193/193
f 189/189/189 193/193/193 192/192/192
f 191/191/191 194/194/194 190/190/190
f 190/190/190 194/194/194 193/193/193
f 191/191/191 23/23/23 194/194/194
f 23/23/23 22/22/22 194/194/194
f 194/194/194 22/22/22 32/32/32
f 194/194/194 32/32/32 193/193/193
f 193/193/193 195/195/195 192/192/192
f 195/195/195 193/193/193 32/32/32
f 192/192/192 196/196/196 185/185/185
f 192/192/192 195/195/195 196/196/196
f 197/197/197 195/195/195 32/32/32
f 197/197/197 32/32/32 31/31/31
f 196/196/196 198/198/198 185/185/185
f 198/198/198 133/133/133 185/185/185
f 133/133/133 198/198/198 101/101/101
f 101/101/101 198/198/198 106/106/106
f 198/198/198 196/196/196 106/106/106
f 195/195/195 199/199/199 196/196/196
f 196/196/196 199/199/199 106/106/106
f 195/195/195 197/197/197 199/199/199
f 199/199/199 113/113/113 106/106/106
f 197/197/197 113/113/113 199/199/199
f 197/197/197 112/112/112 113/113/113
f 112/112/112 197/197/197 31/31/31
f 200/200/200 112/112/112 31/31/31
f 44/44/44 200/200/200 31/31/31
f 112/112/112 200/200/200 58/58/58
f 200/200/200 44/44/44 58/58/58
