g treetree_mobile
v -0.245089502 0.17482115 1.78272192
v -0.0760963915 0.169812822 2.06189824
v -0.0325391192 0.17360701 2.09437648
v -0.0437699141 0.185065456 1.76784871
v -0.0480952879 0.163514471 1.44124505
v -0.379100204 0.186127829 1.54687523
v -0.584669282 0.19121204 1.14256661
v 0.177203565 0.252450226 1.77369176
v 0.0464558642 0.19121204 2.05916642
v 0.255895013 0.296918103 1.53238143
v 0.424736356 0.357473335 1.11820793
v -0.0405827967 0.0663832715 0.973573499
v -0.606372034 0.0879342565 0.786671823
v -0.0211565567 -0.0736222466 0.620562295
v 0.467838326 0.276960677 0.783105287
v -0.536103682 0.00431036432 0.587401097
v 0.427771706 0.141128765 0.569492532
v -0.443753159 -0.0994227215 0.462724096
v 0.0211106918 -0.329274599 0.228091542
v 0.306813009 -0.027409043 0.364378756
v -0.151221304 -0.38231734 0.102503936
v 0.195946851 -0.321762108 0.0946120264
v -0.0157688105 -0.61869522 -0.0843218553
v 0.136681643 -0.589100558 -0.0881160428
v 0.0680827329 -0.637969693 -0.0626949866
v 0.0187582956 -0.725691307 -0.15747379
v 0.088950764 -0.745876385 -0.140020528
v 0.139185806 -0.699739065 -0.160433256
v -0.0157688105 -0.61869522 -0.0843218553
v 0.0187582956 -0.725691307 -0.15747379
v 0.0300649743 -0.672420915 -0.218560208
v -0.0323873517 -0.562996548 -0.144877088
v -0.151221304 -0.38231734 0.102503936
v 0.0565484029 -0.655954142 -0.234647563
v 0.0245254606 -0.5146586 -0.176217076
v 0.105645189 -0.660355399 -0.2139313
v -0.195006227 -0.311593686 0.0609196416
v -0.443753159 -0.0994227215 0.462724096
v -0.475396682 -0.0513124242 0.347304913
v -0.536103682 0.00431036432 0.587401097
v 0.123174335 -0.533174235 -0.148747159
v 0.139185806 -0.699739065 -0.160433256
v 0.136681643 -0.589100558 -0.0881160428
v 0.206267041 -0.241628868 0.0517377079
v 0.195946851 -0.321762108 0.0946120264
v -0.19485446 -0.212489508 0.0571254541
v -0.601591358 0.0682803653 0.520623397
v -0.606372034 0.0879342565 0.786671823
v 0.166352189 -0.149505996 0.0488541254
v 0.371314197 0.0816359052 0.298739313
v 0.306813009 -0.027409043 0.364378756
v -0.0298073042 -0.0951732315 0.133843925
v -0.386081509 0.0147823218 0.267095789
v -0.0748822515 0.166398054 0.469705401
v 0.281847256 0.131567413 0.251994923
v -0.669355546 0.163590355 0.722474171
v -0.584669282 0.19121204 1.14256661
v -0.548852152 0.152738979 0.475472566
v 0.471025444 0.233023986 0.462117026
v 0.427771706 0.141128765 0.569492532
v 0.406448373 0.319379693 0.448382067
v -0.649777539 0.271800582 1.1402901
v -0.379100204 0.186127829 1.54687523
v -0.636421999 0.251008434 0.718072914
v 0.512913273 0.365896431 0.713519889
v 0.467838326 0.276960677 0.783105287
v 0.457138717 0.441097227 0.68157283
v -0.448685602 0.265350463 1.57146156
v -0.245089502 0.17482115 1.78272192
v -0.107360496 0.381300833 0.91552243
v -0.60447494 0.347153145 1.10841892
v -0.105387519 0.427514036 1.34267206
v 0.377309013 0.517739815 1.08603322
v 0.451143901 0.463331166 1.11517258
v 0.424736356 0.357473335 1.11820793
v -0.305417083 0.232416916 1.81292365
v -0.0760963915 0.169812822 2.06189824
v -0.415752055 0.341158329 1.57533163
v 0.232826353 0.43791011 1.55825779
v 0.293533353 0.37841725 1.55226297
v 0.255895013 0.296918103 1.53238143
v -0.120943688 0.19667567 2.08041387
v -0.0325391192 0.17360701 2.09437648
v -0.273242373 0.292289194 1.83743411
v 0.132811571 0.350795565 1.82643096
v 0.197464526 0.307845363 1.79971988
v 0.177203565 0.252450226 1.77369176
v -0.0378509817 0.202974021 2.12306054
v 0.0464558642 0.19121204 2.05916642
v 0.0510088892 0.226649751 2.07646792
v -0.108878171 0.229078031 2.0952112
v -0.0446805191 0.236438755 2.12715826
v -0.0743510653 0.34077891 1.82779687
v 0.0162541318 0.250932551 2.09232762
v 1.85385501 0.838424541 0.318165553
v 2.17249088 0.818315347 0.250173713
v 2.21695876 0.811334042 0.219668446
v 1.90393829 0.772481562 0.133768041
v 1.59440847 0.700923186 0.0548489416
v 1.58719952 0.858685502 0.365137594
v 1.13849891 0.871661623 0.430169967
v 1.97754553 0.755331835 -0.0846253903
v 2.20823212 0.793121942 0.133692158
v 1.77258352 0.728165452 -0.238441751
v 1.4322449 0.65486175 -0.525737627
v 1.15838045 0.532537146 -0.0438758167
v 0.799146777 0.72649601 0.390634534
v 0.836481582 0.339261235 -0.104127514
v 1.13235232 0.510530858 -0.625221223
v 0.636603785 0.59172647 0.306555339
v 0.923140824 0.365517013 -0.596081863
v 0.552676358 0.44276667 0.23188573
v 0.489465195 0.0251025117 -0.149733648
v 0.697386669 0.221034353 -0.480966215
v 0.317588502 0.0182729743 -0.0129911306
v 0.418969191 -0.0530577504 -0.342933674
v 0.194201525 -0.278204836 -0.0903166715
v 0.2382141 -0.306813009 -0.236468773
v 0.242387706 -0.322748597 -0.150037183
v 0.140551714 -0.400832975 -0.098663884
v 0.180466566 -0.441961967 -0.147305368
v 0.175306471 -0.421093936 -0.215221323
v 0.194201525 -0.278204836 -0.0903166715
v 0.140551714 -0.400832975 -0.098663884
v 0.084094204 -0.366078218 -0.146698298
v 0.129245035 -0.23092926 -0.114675355
v 0.317588502 0.0182729743 -0.0129911306
v 0.0767334803 -0.363194635 -0.180921869
v 0.115813611 -0.212337741 -0.192304431
v 0.112247075 -0.381634386 -0.21635958
v 0.261206876 0.0922596302 -0.0142052706
v 0.552676358 0.44276667 0.23188573
v 0.431262359 0.479418521 0.208361767
v 0.636603785 0.59172647 0.306555339
v 0.174244099 -0.260523922 -0.26371104
v 0.175306471 -0.421093936 -0.215221323
v 0.2382141 -0.306813009 -0.236468773
v 0.378295502 0.00969811054 -0.395596996
v 0.418969191 -0.0530577504 -0.342933674
v 0.253466733 0.182485409 -0.0545754254
v 0.549792776 0.663208963 0.319910879
v 0.799146777 0.72649601 0.390634534
v 0.358945145 0.108271101 -0.397873509
v 0.651401117 0.287053216 -0.598813678
v 0.697386669 0.221034353 -0.480966215
v 0.374121895 0.243040641 -0.223947955
v 0.381254968 0.494671155 0.0816359052
v 0.666426099 0.554315782 -0.194049757
v 0.576276204 0.357625103 -0.553283428
v 0.714991699 0.808298692 0.397995258
v 1.13849891 0.871661623 0.430169967
v 0.520425765 0.714278726 0.227788007
v 0.831625022 0.416586776 -0.700270251
v 0.923140824 0.365517013 -0.596081863
v 0.79413845 0.516980977 -0.681678733
v 1.11209136 0.968868706 0.454680419
v 1.58719952 0.858685502 0.365137594
v 0.717723514 0.875835229 0.333418187
v 1.07726072 0.564484204 -0.719241189
v 1.13235232 0.510530858 -0.625221223
v 1.0259633 0.648487515 -0.709072766
v 1.58484712 0.960597378 0.401637678
v 1.85385501 0.838424541 0.318165553
v 1.06876174 0.836148028 -0.126057918
v 1.09327219 1.01637193 0.376444273
v 1.47162857 0.947773024 -0.026801973
v 1.37980923 0.81391409 -0.556546429
v 1.43345904 0.741976295 -0.591528838
v 1.4322449 0.65486175 -0.525737627
v 1.86060867 0.918026594 0.356638614
v 2.17249088 0.818315347 0.250173713
v 1.59585026 1.0188761 0.343966028
v 1.78366255 0.870068064 -0.266746389
v 1.79997755 0.792590756 -0.298010494
v 1.77258352 0.728165452 -0.238441751
v 2.17438797 0.862176154 0.283941982
v 2.21695876 0.811334042 0.219668446
v 1.89164512 0.96530217 0.311715434
v 2.00903728 0.870219832 -0.0699039429
v 2.00630547 0.803062713 -0.117027751
v 1.97754553 0.755331835 -0.0846253903
v 2.24116567 0.844950543 0.220654935
v 2.20823212 0.793121942 0.133692158
v 2.22462301 0.826890211 0.120564269
v 2.19093063 0.89002549 0.264743393
v 2.24146921 0.878794695 0.214584235
v 1.94430844 0.936314578 0.115707709
v 2.22743071 0.864300899 0.145833557
v 0.0530577504 -0.268188181 -0.191849129
v -0.000516176835 -0.268188181 -0.214083067
v -0.000516176835 -0.281391953 -0.228804515
v 0.0634538241 -0.281391953 -0.202321086
v 0.0752916891 -0.268188181 -0.138275201
v 0.112474726 -2.43345509 -0.251266105
v -0.000516176835 -2.43345509 -0.298086378
v 0.159219116 -2.43345509 -0.138275201
v 0.0900131365 -0.281391953 -0.138275201
v 0.0530577504 -0.268188181 -0.084701274
v 0.112474726 -2.43345509 -0.0252842981
v 0.0634538241 -0.281391953 -0.0742293166
v -0.000516176835 -0.268188181 -0.0624673354
v -0.000516176835 -2.43345509 0.0215359755
v -0.000516176835 -0.281391953 -0.047745888
v -0.0540901041 -0.268188181 -0.084701274
v -0.11350708 -2.43345509 -0.0252842981
v -0.0645620616 -0.281391953 -0.0742293166
v -0.0763240428 -0.268188181 -0.138275201
v -0.160327354 -2.43345509 -0.138275201
v -0.0910454902 -0.281391953 -0.138275201
v -0.0540901041 -0.268188181 -0.191849129
v -0.11350708 -2.43345509 -0.251266105
v -0.0645620616 -0.281391953 -0.202321086
v -0.000516176835 -0.268188181 -0.214083067
v -0.000516176835 -2.43345509 -0.298086378
v -0.000516176835 -0.281391953 -0.228804515
v 1.25801581 -0.307951266 -0.798919126
v 1.36766783 -0.332385833 -1.01275953
v 1.37077906 -0.335193532 -1.05282615
v 1.16991478 -0.327149854 -0.918284264
v 0.968746958 -0.343996047 -0.784273562
v 1.16149168 -0.283289047 -0.624386502
v 0.987793779 -0.254680873 -0.3386083
v 1.08287612 -0.307192428 -1.06413283
v 1.31674983 -0.332992903 -1.08955389
v 0.898023303 -0.286476164 -1.02216912
v 0.568763713 -0.266822273 -0.969278144
v 0.680388709 -0.418210354 -0.593653583
v 0.781162328 -0.32889518 -0.173485261
v 0.46245058 -0.524599371 -0.451068017
v 0.34832142 -0.332992903 -0.854769566
v 0.635465529 -0.400074138 -0.129017384
v 0.240338845 -0.427695823 -0.73100317
v 0.529380047 -0.488478706 -0.125450848
v 0.219470813 -0.718482351 -0.294368074
v 0.1714364 -0.535602515 -0.557153499
v 0.211654787 -0.735025009 -0.132811571
v 0.0676274304 -0.736770335 -0.350294398
v 0.0598872879 -0.926024407 -0.1168001
v -0.00377917807 -0.924582615 -0.212489508
v 0.0423581417 -0.95099016 -0.174927052
v 0.00874164062 -1.00881358 -0.0976015115
v -0.00605569056 -1.03271696 -0.145560041
v -0.0417210529 -1.00585411 -0.173485261
v 0.0598872879 -0.926024407 -0.1168001
v 0.00874164062 -1.00881358 -0.0976015115
v -0.0378509817 -0.971858191 -0.086218949
v 0.0242978093 -0.883529507 -0.0887231128
v 0.211654787 -0.735025009 -0.132811571
v -0.0594019666 -0.963435095 -0.0979809302
v -0.0210047892 -0.856059589 -0.116724216
v -0.0651691316 -0.973072331 -0.135922805
v 0.197312759 -0.677960429 -0.0970703252
v 0.529380047 -0.488478706 -0.125450848
v 0.465789465 -0.449929761 -0.0656544529
v 0.635465529 -0.400074138 -0.129017384
v -0.0406586804 -0.882391251 -0.186385499
v -0.0417210529 -1.00585411 -0.173485261
v -0.00377917807 -0.924582615 -0.212489508
v 0.0308238118 -0.68000929 -0.348397304
v 0.0676274304 -0.736770335 -0.350294398
v 0.187447871 -0.605870867 -0.10647991
v 0.614293963 -0.34528607 -0.0692968729
v 0.781162328 -0.32889518 -0.173485261
v 0.0375774655 -0.607616193 -0.332689368
v 0.0972220927 -0.465030627 -0.582878091
v 0.1714364 -0.535602515 -0.557153499
v 0.162785652 -0.541749098 -0.251266105
v 0.376018989 -0.414036748 -0.096235604
v 0.370858894 -0.343540744 -0.384517969
v 0.0988915352 -0.417072098 -0.5146586
v 0.759763111 -0.265835784 -0.117558938
v 0.987793779 -0.254680873 -0.3386083
v 0.559202361 -0.290953306 -0.0931243703
v 0.149505996 -0.367064707 -0.725311889
v 0.240338845 -0.427695823 -0.73100317
v 0.159446767 -0.295733982 -0.689418875
v 1.00555058 -0.187371987 -0.306357707
v 1.16149168 -0.283289047 -0.624386502
v 0.73768094 -0.206570576 -0.145635925
v 0.280633116 -0.274562416 -0.864786221
v 0.34832142 -0.332992903 -0.854769566
v 0.276611277 -0.212565392 -0.826009625
v 1.19799177 -0.21635958 -0.599800167
v 1.25801581 -0.307951266 -0.798919126
v 0.646392789 -0.180390682 -0.563907153
v 0.962448606 -0.13865462 -0.329881669
v 0.909481749 -0.14472532 -0.738743312
v 0.555028754 -0.144042366 -0.944767693
v 0.548730403 -0.193215036 -0.99591334
v 0.568763713 -0.266822273 -0.969278144
v 1.29603357 -0.257867991 -0.779872305
v 1.36766783 -0.332385833 -1.01275953
v 1.18198029 -0.165441584 -0.629926015
v 0.912517099 -0.180618334 -1.0334758
v 0.889751974 -0.231991632 -1.06200809
v 0.898023303 -0.286476164 -1.02216912
v 1.39460656 -0.306813009 -0.99530627
v 1.37077906 -0.335193532 -1.05282615
v 1.29444001 -0.218408441 -0.815917086
v 1.12575044 -0.229411585 -1.06823055
v 1.08712561 -0.269402321 -1.09289277
v 1.08287612 -0.307192428 -1.06413283
v 1.38861174 -0.312959593 -1.06405695
v 1.31674983 -0.332992903 -1.08955389
v 1.32319995 -0.307647731 -1.10298531
v 1.39673131 -0.284730838 -1.01215246
v 1.39134356 -0.287690304 -1.06511932
v 1.207629 -0.209378275 -0.939987017
v 1.34482682 -0.285337908 -1.09054038
v -2.12389526 0.215115421 -0.17993538
v -2.41893128 0.166246286 -0.0035056619
v -2.45224424 0.160706772 0.0412657504
v -2.09885362 0.189011411 0.018652393
v -1.74386944 0.180815966 -0.0039609644
v -1.87446537 0.262315113 -0.318954409
v -1.44534277 0.323401532 -0.536589003
v -2.09733595 0.219364911 0.249187224
v -2.41103937 0.166246286 0.12079192
v -1.83333638 0.262315113 0.325070974
v -1.37810977 0.313005458 0.485033918
v -1.2327165 0.0956743989 -0.0366668605
v -1.0566662 0.232416916 -0.594336537
v -0.844039938 -0.042282258 -0.0614808466
v -1.00969416 0.233251637 0.496416481
v -0.834326818 0.138624601 -0.551234567
v -0.775213377 0.1050081 0.420077429
v -0.69128595 0.0159964618 -0.487416334
v -0.40755661 -0.306205939 -0.0893301828
v -0.552494572 -0.0434205142 0.258293274
v -0.277415979 -0.325176877 -0.274410648
v -0.254878506 -0.325176877 0.0776899502
v -0.0603125716 -0.594715956 -0.198299247
v -0.0502200329 -0.591528838 -0.0431169792
v -0.0793593927 -0.631898993 -0.11922838
v 0.0241460418 -0.712184 -0.1896485
v 0.00919694312 -0.747621711 -0.124236708
v 0.0320379518 -0.706948021 -0.0664132904
v -0.0603125716 -0.594715956 -0.198299247
v 0.0241460418 -0.712184 -0.1896485
v 0.089254299 -0.654891769 -0.17022226
v 0.00267094065 -0.529607698 -0.205735855
v -0.277415979 -0.325176877 -0.274410648
v 0.107314631 -0.641612113 -0.141538203
v 0.0376533492 -0.48734045 -0.141386435
v 0.0872813215 -0.65633356 -0.093503789
v -0.236590522 -0.239807658 -0.304612381
v -0.69128595 0.0159964618 -0.487416334
v -0.569113113 0.078069369 -0.51344446
v -0.834326818 0.138624601 -0.551234567
v 0.0129911306 -0.526724116 -0.047442353
v 0.0320379518 -0.706948021 -0.0664132904
v -0.0502200329 -0.591528838 -0.0431169792
v -0.21063828 -0.239807658 0.102428053
v -0.254878506 -0.325176877 0.0776899502
v -0.235831685 -0.133949828 -0.284199652
v -0.767093816 0.221869075 -0.605036146
v -1.0566662 0.232416916 -0.594336537
v -0.21245949 -0.133949828 0.0820912077
v -0.481998568 0.0636514566 0.341006562
v -0.552494572 -0.0434205142 0.258293274
v -0.315509622 -0.042889328 -0.0952491152
v -0.480253242 0.135285716 -0.415782074
v -0.690906531 0.230292171 -0.0712698503
v -0.436999505 0.135665135 0.261632159
v -0.992468552 0.327726905 -0.643205672
v -1.44534277 0.323401532 -0.536589003
v -0.718452332 0.304051176 -0.538030795
v -0.659794194 0.199559252 0.47676259
v -0.775213377 0.1050081 0.420077429
v -0.650764028 0.304278827 0.43062527
v -1.44860577 0.421670987 -0.583864579
v -1.87446537 0.262315113 -0.318954409
v -0.989129667 0.414917334 -0.593198281
v -0.935176321 0.322718578 0.555833457
v -1.00969416 0.233251637 0.496416481
v -0.905581659 0.414765566 0.515311535
v -1.90709539 0.358763359 -0.369872405
v -2.12389526 0.215115421 -0.17993538
v -1.18346795 0.446560857 -0.039853978
v -1.41445808 0.494898806 -0.525434092
v -1.64848357 0.477293776 -0.0101075481
v -1.35079162 0.494215852 0.470160704
v -1.37719916 0.421139801 0.532537146
v -1.37810977 0.313005458 0.485033918
v -2.16138183 0.286522029 -0.225920932
v -2.41893128 0.166246286 -0.0035056619
v -1.91233137 0.433281201 -0.321837992
v -1.86718053 0.415903823 0.332507582
v -1.85587386 0.341310097 0.379403739
v -1.83333638 0.262315113 0.325070974
v -2.44199994 0.202518718 -0.0411440017
v -2.45224424 0.160706772 0.0412657504
v -2.18854821 0.343283074 -0.18114952
v -2.15986416 0.330231069 0.228091542
v -2.12647531 0.273470024 0.281513702
v -2.09733595 0.219364911 0.249187224
v -2.48464661 0.191894993 0.0433146116
v -2.41103937 0.166246286 0.12079192
v -2.43084503 0.202518718 0.133236855
v -2.45861848 0.234162242 -0.0220212968
v -2.49056554 0.228698612 0.0436940304
v -2.17056377 0.358308057 0.0232813017
v -2.45049892 0.234162242 0.104856333
v 0.199816922 0.620031109 -2.11049386
v 0.042585793 0.629137159 -2.41994779
v 1.50094127E-05 0.630427183 -2.45644787
v 1.50094127E-05 0.592105889 -2.1032849
v 1.50094127E-05 0.517588047 -1.75528202
v 0.322672713 0.618285783 -1.84846727
v 0.512457971 0.595748309 -1.40265024
v -0.230140403 0.624356483 -2.11049386
v -0.082015324 0.629137159 -2.41994779
v -0.322718578 0.618285783 -1.84846727
v -0.51136558 0.585200468 -1.40272612
v 1.50094127E-05 0.33835063 -1.26803247
v 0.545315635 0.433281201 -1.03491759
v 1.50094127E-05 0.130125621 -0.911151192
v -0.546196221 0.438365412 -1.05707564
v 0.488175171 0.300181104 -0.837164536
v -0.484958035 0.267778743 -0.846346469
v 0.415326771 0.153877235 -0.723870097
v 1.50094127E-05 -0.210820066 -0.530745955
v -0.337667677 0.0785246715 -0.645558068
v 0.176444727 -0.255895013 -0.39506581
v -0.176414709 -0.255895013 -0.39506581
v 0.0865983678 -0.560264733 -0.237379378
v -0.0688874353 -0.557077616 -0.236544657
v 0.00889340812 -0.592287676 -0.267884646
v 0.0725598741 -0.691315969 -0.176975914
v 0.00821045438 -0.72250419 -0.20239697
v -0.0509029866 -0.68607999 -0.175989425
v 0.0865983678 -0.560264733 -0.237379378
v 0.0725598741 -0.691315969 -0.176975914
v 0.0490359117 -0.646923975 -0.103672211
v 0.0900131365 -0.508056713 -0.16293742
v 0.176444727 -0.255895013 -0.39506581
v 0.0192894818 -0.636831437 -0.085308344
v 0.0236148556 -0.472315467 -0.124843778
v -0.0273790242 -0.647075743 -0.1107294
v 0.203914645 -0.180011264 -0.337242393
v 0.415326771 0.153877235 -0.723870097
v 0.433538871 0.19181911 -0.590845884
v 0.488175171 0.300181104 -0.837164536
v -0.068659784 -0.505324898 -0.162254466
v -0.0509029866 -0.68607999 -0.175989425
v -0.0688874353 -0.557077616 -0.236544657
v -0.203884626 -0.180011264 -0.337242393
v -0.176414709 -0.255895013 -0.39506581
v 0.183501916 -0.0758987591 -0.318043804
v 0.537575492 0.368855898 -0.752326504
v 0.545315635 0.433281201 -1.03491759
v -0.183547781 -0.0758987591 -0.318043804
v -0.424782221 0.171558149 -0.561630641
v -0.337667677 0.0785246715 -0.645558068
v 1.50094127E-05 0.0307179092 -0.390968088
v 0.330412855 0.232644567 -0.499102431
v 1.50094127E-05 0.369235316 -0.709452185
v -0.348443169 0.232948102 -0.499102431
v 0.590011163 0.514325046 -0.951141928
v 0.512457971 0.595748309 -1.40265024
v 0.467534791 0.441324879 -0.693516598
v -0.548928036 0.339792422 -0.719089421
v -0.484958035 0.267778743 -0.846346469
v -0.503397786 0.440490157 -0.687749433
v 0.559885314 0.692348323 -1.38458991
v 0.322672713 0.618285783 -1.84846727
v 0.539927888 0.599997799 -0.934751038
v -0.610242105 0.513035022 -0.97102347
v -0.546196221 0.438365412 -1.05707564
v -0.571693161 0.597493635 -0.922306103
v 0.375487803 0.718452332 -1.85916688
v 0.199816922 0.620031109 -2.11049386
v 1.50094127E-05 0.673832688 -1.15397919
v 0.499405966 0.75867072 -1.34110852
v 1.50094127E-05 0.791073081 -1.60601869
v -0.498237691 0.757987766 -1.34110852
v -0.558792923 0.691817136 -1.38458991
v -0.51136558 0.585200468 -1.40272612
v 0.248078987 0.696673696 -2.13105835
v 0.042585793 0.629137159 -2.41994779
v 0.327984575 0.79327371 -1.85339971
v -0.327954557 0.775592796 -1.85339971
v -0.375533668 0.700771419 -1.85916688
v -0.322718578 0.618285783 -1.84846727
v 0.0815900403 0.668596709 -2.43337921
v 1.50094127E-05 0.630427183 -2.45644787
v 0.205128785 0.757987766 -2.14980164
v -0.205098766 0.74470811 -2.14980164
v -0.260569787 0.68339404 -2.13105835
v -0.230140403 0.624356483 -2.11049386
v 1.50094127E-05 0.667079034 -2.482476
v -0.082015324 0.629137159 -2.41994779
v -0.0931702352 0.668596709 -2.43337921
v 0.0636055916 0.703047931 -2.44491354
v 1.50094127E-05 0.704337955 -2.48141362
v 1.50094127E-05 0.771874492 -2.14228915
v -0.0635755728 0.703047931 -2.44491354
v 0.0530577504 -0.268188181 -0.084701274
v -0.000516176835 -0.268188181 -0.138275201
v 0.0752916891 -0.268188181 -0.138275201
v -0.000516176835 -0.268188181 -0.0624673354
v 0.0530577504 -0.268188181 -0.191849129
v -0.0540901041 -0.268188181 -0.084701274
v -0.000516176835 -0.268188181 -0.214083067
v -0.0763240428 -0.268188181 -0.138275201
v -0.0540901041 -0.268188181 -0.191849129
v 0.159219116 -2.43345509 -0.138275201
v -0.000516176835 -2.43345509 -0.138275201
v 0.112474726 -2.43345509 -0.0252842981
v 0.112474726 -2.43345509 -0.251266105
v -0.000516176835 -2.43345509 0.0215359755
v -0.000516176835 -2.43345509 -0.298086378
v -0.11350708 -2.43345509 -0.0252842981
v -0.11350708 -2.43345509 -0.251266105
v -0.160327354 -2.43345509 -0.138275201
vt 0.849458458 0.864354006
vt 0.865063318 0.894145103
vt 0.869319189 0.897691662
vt 0.869319189 0.862935383
vt 0.868609877 0.828179103
vt 0.836690845 0.840237404
vt 0.815411491 0.799097319
vt 0.892017167 0.864354006
vt 0.877830931 0.894145103
vt 0.901238221 0.839528093
vt 0.921098952 0.797678695
vt 0.867900565 0.776399341
vt 0.81115562 0.761503792
vt 0.867191254 0.735259255
vt 0.923936199 0.762213104
vt 0.816120803 0.738805814
vt 0.917552393 0.736677879
vt 0.824632544 0.72178233
vt 0.867191254 0.684188804
vt 0.902656845 0.711142653
vt 0.848749146 0.672130503
vt 0.886342673 0.672130503
vt 0.8579702 0.639502159
vt 0.874993684 0.639502159
vt 0.866481942 0.638083536
vt 0.859388824 0.625315923
vt 0.866481942 0.623897299
vt 0.87357506 0.626025235
vt 0.340881883 0.732422008
vt 0.345137754 0.720363707
vt 0.352230872 0.723200954
vt 0.347975001 0.736677879
vt 0.329532894 0.762213104
vt 0.355777431 0.723910266
vt 0.35506812 0.738096502
vt 0.360033302 0.723200954
vt 0.3359167 0.768596911
vt 0.301869733 0.809736996
vt 0.314637346 0.809736996
vt 0.29690455 0.830307039
vt 0.364289173 0.736677879
vt 0.36712642 0.721073019
vt 0.371382291 0.732422008
vt 0.37847541 0.768596911
vt 0.384149904 0.762213104
vt 0.340172571 0.776399341
vt 0.306834916 0.831725663
vt 0.294067303 0.857260888
vt 0.374219539 0.776399341
vt 0.398336141 0.806190437
vt 0.406847882 0.797678695
vt 0.357196055 0.78774833
vt 0.327404959 0.808318372
vt 0.357196055 0.825341856
vt 0.388405775 0.807609061
vt 0.303997668 0.853714329
vt 0.299032486 0.89698235
vt 0.316765281 0.831725663
vt 0.407557194 0.828179103
vt 0.421034119 0.828179103
vt 0.399045452 0.831725663
vt 0.307544228 0.894854415
vt 0.31250941 0.942378306
vt 0.311800099 0.855842264
vt 0.412522377 0.854423641
vt 0.422452742 0.858679512
vt 0.404010635 0.854423641
vt 0.321730464 0.937413124
vt 0.326695647 0.96720422
vt 0.357196055 0.87357506
vt 0.315346658 0.892017167
vt 0.357905367 0.914715145
vt 0.399754764 0.891307855
vt 0.407557194 0.893435791
vt 0.416778248 0.896273038
vt 0.333079453 0.962239037
vt 0.350812249 0.99061151
vt 0.328823582 0.9359945
vt 0.387696463 0.935285188
vt 0.395498893 0.936703812
vt 0.403301323 0.940250371
vt 0.35152156 0.985646327
vt 0.357905367 0.991320822
vt 0.340172571 0.960820414
vt 0.377056786 0.960820414
vt 0.384149904 0.961529726
vt 0.389824399 0.964366973
vt 0.358614679 0.988483575
vt 0.368545044 0.988483575
vt 0.36712642 0.985646327
vt 0.353649496 0.984227704
vt 0.358614679 0.985646327
vt 0.358614679 0.95940179
vt 0.363579861 0.984227704
vt 0.849458458 0.864354006
vt 0.865063318 0.894145103
vt 0.869319189 0.897691662
vt 0.869319189 0.862935383
vt 0.868609877 0.828179103
vt 0.836690845 0.840237404
vt 0.815411491 0.799097319
vt 0.892017167 0.864354006
vt 0.877830931 0.894145103
vt 0.901238221 0.839528093
vt 0.921098952 0.797678695
vt 0.867900565 0.776399341
vt 0.81115562 0.761503792
vt 0.867191254 0.735259255
vt 0.923936199 0.762213104
vt 0.816120803 0.738805814
vt 0.917552393 0.736677879
vt 0.824632544 0.72178233
vt 0.867191254 0.684188804
vt 0.902656845 0.711142653
vt 0.848749146 0.672130503
vt 0.886342673 0.672130503
vt 0.8579702 0.639502159
vt 0.874993684 0.639502159
vt 0.866481942 0.638083536
vt 0.859388824 0.625315923
vt 0.866481942 0.623897299
vt 0.87357506 0.626025235
vt 0.484162871 0.868609877
vt 0.479907 0.879958866
vt 0.472813882 0.877830931
vt 0.477069753 0.864354006
vt 0.49551186 0.838818781
vt 0.469976634 0.877121619
vt 0.469976634 0.862935383
vt 0.465011452 0.877121619
vt 0.489837365 0.833144286
vt 0.523175021 0.792004201
vt 0.510407408 0.792004201
vt 0.528140204 0.771434158
vt 0.460755581 0.864354006
vt 0.458627645 0.879958866
vt 0.454371774 0.867900565
vt 0.446569344 0.832434974
vt 0.441604162 0.839528093
vt 0.484872183 0.824632544
vt 0.518209838 0.770015534
vt 0.530977451 0.745189621
vt 0.451534527 0.824632544
vt 0.427417925 0.79555076
vt 0.418906183 0.80335319
vt 0.467848699 0.813283555
vt 0.497639795 0.793422824
vt 0.468558011 0.776399341
vt 0.437348291 0.794132136
vt 0.521047085 0.748026868
vt 0.526012268 0.705468159
vt 0.508279473 0.770015534
vt 0.418196872 0.773562093
vt 0.404719947 0.773562093
vt 0.426708613 0.770015534
vt 0.517500526 0.707596094
vt 0.512535344 0.660781514
vt 0.513244655 0.746608244
vt 0.413231689 0.747317556
vt 0.403301323 0.743770997
vt 0.422452742 0.747317556
vt 0.504023602 0.665746697
vt 0.498349107 0.6359556
vt 0.468558011 0.728875449
vt 0.509698096 0.710433341
vt 0.467848699 0.688444675
vt 0.425999302 0.711142653
vt 0.418196872 0.709014718
vt 0.408975818 0.70617747
vt 0.491965301 0.640920783
vt 0.474941817 0.61254831
vt 0.496221172 0.66716532
vt 0.438057602 0.667874632
vt 0.430964484 0.666456008
vt 0.423162054 0.662200138
vt 0.474232505 0.617513493
vt 0.467848699 0.611838998
vt 0.485581494 0.642339407
vt 0.44869728 0.642339407
vt 0.441604162 0.641630095
vt 0.436638979 0.638792848
vt 0.467139387 0.614676246
vt 0.457209022 0.614676246
vt 0.458627645 0.617513493
vt 0.471395258 0.618932117
vt 0.467139387 0.617513493
vt 0.467139387 0.64375803
vt 0.462174204 0.618932117
vt 0.987774263 0.926773446
vt 0.996286005 0.926773446
vt 0.996286005 0.925354823
vt 0.987774263 0.925354823
vt 0.979262521 0.926773446
vt 0.987774263 0.695537793
vt 0.996286005 0.695537793
vt 0.979262521 0.695537793
vt 0.979262521 0.925354823
vt 0.970750779 0.926773446
vt 0.970750779 0.695537793
vt 0.970750779 0.925354823
vt 0.962239037 0.926773446
vt 0.962239037 0.695537793
vt 0.962239037 0.925354823
vt 0.953727296 0.926773446
vt 0.953727296 0.695537793
vt 0.953727296 0.925354823
vt 0.945215554 0.926773446
vt 0.945215554 0.695537793
vt 0.945215554 0.925354823
vt 0.936703812 0.926773446
vt 0.936703812 0.695537793
vt 0.936703812 0.925354823
vt 0.92819207 0.926773446
vt 0.92819207 0.695537793
vt 0.92819207 0.925354823
vt 0.849458458 0.864354006
vt 0.865063318 0.894145103
vt 0.869319189 0.897691662
vt 0.869319189 0.862935383
vt 0.868609877 0.828179103
vt 0.836690845 0.840237404
vt 0.815411491 0.799097319
vt 0.892017167 0.864354006
vt 0.877830931 0.894145103
vt 0.901238221 0.839528093
vt 0.921098952 0.797678695
vt 0.867900565 0.776399341
vt 0.81115562 0.761503792
vt 0.867191254 0.735259255
vt 0.923936199 0.762213104
vt 0.816120803 0.738805814
vt 0.917552393 0.736677879
vt 0.824632544 0.72178233
vt 0.867191254 0.684188804
vt 0.902656845 0.711142653
vt 0.848749146 0.672130503
vt 0.886342673 0.672130503
vt 0.8579702 0.639502159
vt 0.874993684 0.639502159
vt 0.866481942 0.638083536
vt 0.859388824 0.625315923
vt 0.866481942 0.623897299
vt 0.87357506 0.626025235
vt 0.422452742 0.618932117
vt 0.430255172 0.619641428
vt 0.429545861 0.624606611
vt 0.421034119 0.623897299
vt 0.403301323 0.616804181
vt 0.429545861 0.626025235
vt 0.421034119 0.62815317
vt 0.430964484 0.628862482
vt 0.400464076 0.621060052
vt 0.37067298 0.607583127
vt 0.372800915 0.614676246
vt 0.357905367 0.607583127
vt 0.423871366 0.633827665
vt 0.43309242 0.632409041
vt 0.426708613 0.636664912
vt 0.406847882 0.646595278
vt 0.411103753 0.648723213
vt 0.396208205 0.625315923
vt 0.358614679 0.613257622
vt 0.341591195 0.609711063
vt 0.401173388 0.645176654
vt 0.386987151 0.663618761
vt 0.393370958 0.667874632
vt 0.391952334 0.636664912
vt 0.375638162 0.622478676
vt 0.369254356 0.642339407
vt 0.384859216 0.658653578
vt 0.345137754 0.614676246
vt 0.318183905 0.618222805
vt 0.360033302 0.619641428
vt 0.375638162 0.672839815
vt 0.377766098 0.680642245
vt 0.372091603 0.668583944
vt 0.321021152 0.623187987
vt 0.294067303 0.633118353
vt 0.345137754 0.62035074
vt 0.360742614 0.679932933
vt 0.360033302 0.686316739
vt 0.35932399 0.674258439
vt 0.297613862 0.638083536
vt 0.28129969 0.645885966
vt 0.340881883 0.649432525
vt 0.323858399 0.627443858
vt 0.316765281 0.656525643
vt 0.337335324 0.677804998
vt 0.336626012 0.68277018
vt 0.336626012 0.688444675
vt 0.284846249 0.648723213
vt 0.270660013 0.662909449
vt 0.299741798 0.642339407
vt 0.308962851 0.677095686
vt 0.308962851 0.681351557
vt 0.308253539 0.687026051
vt 0.27349726 0.662909449
vt 0.271369325 0.667874632
vt 0.286974185 0.652269772
vt 0.292648679 0.674258439
vt 0.293357991 0.678514309
vt 0.291939368 0.682060869
vt 0.272787948 0.66716532
vt 0.274915884 0.673549127
vt 0.276334508 0.672130503
vt 0.274915884 0.664328073
vt 0.274915884 0.66716532
vt 0.290520744 0.662909449
vt 0.276334508 0.670002568
vt 0.849458458 0.864354006
vt 0.865063318 0.894145103
vt 0.869319189 0.897691662
vt 0.869319189 0.862935383
vt 0.868609877 0.828179103
vt 0.836690845 0.840237404
vt 0.815411491 0.799097319
vt 0.892017167 0.864354006
vt 0.877830931 0.894145103
vt 0.901238221 0.839528093
vt 0.921098952 0.797678695
vt 0.867900565 0.776399341
vt 0.81115562 0.761503792
vt 0.867191254 0.735259255
vt 0.923936199 0.762213104
vt 0.816120803 0.738805814
vt 0.917552393 0.736677879
vt 0.824632544 0.72178233
vt 0.867191254 0.684188804
vt 0.902656845 0.711142653
vt 0.848749146 0.672130503
vt 0.886342673 0.672130503
vt 0.8579702 0.639502159
vt 0.874993684 0.639502159
vt 0.866481942 0.638083536
vt 0.859388824 0.625315923
vt 0.866481942 0.623897299
vt 0.87357506 0.626025235
vt 0.538070569 0.855132953
vt 0.524593645 0.85016777
vt 0.528140204 0.84236534
vt 0.543035752 0.847330523
vt 0.571408225 0.868609877
vt 0.528849515 0.838818781
vt 0.545163687 0.839528093
vt 0.528849515 0.833144286
vt 0.578501343 0.862226071
vt 0.623187987 0.901947533
vt 0.623897299 0.887761296
vt 0.646595278 0.908331339
vt 0.543745064 0.828888415
vt 0.526012268 0.826051168
vt 0.539489193 0.821085985
vt 0.579919966 0.813992867
vt 0.572826848 0.807609061
vt 0.587722396 0.857260888
vt 0.648723213 0.89698235
vt 0.676386374 0.91258721
vt 0.58914102 0.819667362
vt 0.623187987 0.793422824
vt 0.613966934 0.783492459
vt 0.601199321 0.838818781
vt 0.622478676 0.872865748
vt 0.643048718 0.840946716
vt 0.624606611 0.804062502
vt 0.672839815 0.901238221
vt 0.72178233 0.908331339
vt 0.648723213 0.886342673
vt 0.648013901 0.784201771
vt 0.648013901 0.768596911
vt 0.65156046 0.793422824
vt 0.719654395 0.898400974
vt 0.77214347 0.894145103
vt 0.675677062 0.892017167
vt 0.677804998 0.779236588
vt 0.682060869 0.767887599
vt 0.677095686 0.789166953
vt 0.767887599 0.884214737
vt 0.801225254 0.879249554
vt 0.696956417 0.84236534
vt 0.716817148 0.88917992
vt 0.743061685 0.84236534
vt 0.718235771 0.794841448
vt 0.72178233 0.786329706
vt 0.724619578 0.775690029
vt 0.79555076 0.872156436
vt 0.828179103 0.853714329
vt 0.766468975 0.875702995
vt 0.767178287 0.809736996
vt 0.769306222 0.801225254
vt 0.773562093 0.792713512
vt 0.823213921 0.852295705
vt 0.829597727 0.845202587
vt 0.794841448 0.864354006
vt 0.79555076 0.823213921
vt 0.796260072 0.814702179
vt 0.799806631 0.809027684
vt 0.826051168 0.844493275
vt 0.82676048 0.833144286
vt 0.823213921 0.835272222
vt 0.821085985 0.849458458
vt 0.823213921 0.844493275
vt 0.793422824 0.843783963
vt 0.821795297 0.838818781
vt 0.849458458 0.864354006
vt 0.865063318 0.894145103
vt 0.869319189 0.897691662
vt 0.869319189 0.862935383
vt 0.868609877 0.828179103
vt 0.836690845 0.840237404
vt 0.815411491 0.799097319
vt 0.892017167 0.864354006
vt 0.877830931 0.894145103
vt 0.901238221 0.839528093
vt 0.921098952 0.797678695
vt 0.867900565 0.776399341
vt 0.81115562 0.761503792
vt 0.867191254 0.735259255
vt 0.923936199 0.762213104
vt 0.816120803 0.738805814
vt 0.917552393 0.736677879
vt 0.824632544 0.72178233
vt 0.867191254 0.684188804
vt 0.902656845 0.711142653
vt 0.848749146 0.672130503
vt 0.886342673 0.672130503
vt 0.8579702 0.639502159
vt 0.874993684 0.639502159
vt 0.866481942 0.638083536
vt 0.859388824 0.625315923
vt 0.866481942 0.623897299
vt 0.87357506 0.626025235
vt 0.817539426 0.670711879
vt 0.831016351 0.675677062
vt 0.827469792 0.683479492
vt 0.813283555 0.678514309
vt 0.784201771 0.657944267
vt 0.82676048 0.687026051
vt 0.810446308 0.687026051
vt 0.827469792 0.692700546
vt 0.777108652 0.664328073
vt 0.731003384 0.626025235
vt 0.731003384 0.640211471
vt 0.707596094 0.62035074
vt 0.812574243 0.696956417
vt 0.830307039 0.699793664
vt 0.816830114 0.704758847
vt 0.776399341 0.712561277
vt 0.784201771 0.718945083
vt 0.767887599 0.669293256
vt 0.70617747 0.631699729
vt 0.677804998 0.616804181
vt 0.767178287 0.707596094
vt 0.733840631 0.734549943
vt 0.743061685 0.744480309
vt 0.755119986 0.688444675
vt 0.732422008 0.655107019
vt 0.712561277 0.687735363
vt 0.732422008 0.723910266
vt 0.681351557 0.62815317
vt 0.632409041 0.621769364
vt 0.705468159 0.642339407
vt 0.709014718 0.744480309
vt 0.70972403 0.760085169
vt 0.705468159 0.735259255
vt 0.635246288 0.631699729
vt 0.582047902 0.636664912
vt 0.679223621 0.637374224
vt 0.679223621 0.750154803
vt 0.67496775 0.761503792
vt 0.679932933 0.740224438
vt 0.587013085 0.646595278
vt 0.553675429 0.652979084
vt 0.658653578 0.687735363
vt 0.638083536 0.640920783
vt 0.61254831 0.688444675
vt 0.638792848 0.735259255
vt 0.6359556 0.744480309
vt 0.633118353 0.754410674
vt 0.559349924 0.660072202
vt 0.527430892 0.679223621
vt 0.58914102 0.655107019
vt 0.58914102 0.721073019
vt 0.587722396 0.72958476
vt 0.582757214 0.738805814
vt 0.532396075 0.679932933
vt 0.526012268 0.687735363
vt 0.560768547 0.667874632
vt 0.560768547 0.709014718
vt 0.560059236 0.71752646
vt 0.556512676 0.723200954
vt 0.529558827 0.687735363
vt 0.529558827 0.699793664
vt 0.533105386 0.697665729
vt 0.53452401 0.68277018
vt 0.532396075 0.688444675
vt 0.562187171 0.688444675
vt 0.53452401 0.694119169
vt 0.832434974 0.631699729
vt 0.838109469 0.636664912
vt 0.837400157 0.628862482
vt 0.830307039 0.636664912
vt 0.843074652 0.630990418
vt 0.833144286 0.641630095
vt 0.845202587 0.636664912
vt 0.838109469 0.64375803
vt 0.843074652 0.641630095
vt 0.81115562 0.654397708
vt 0.809027684 0.639502159
vt 0.799806631 0.65156046
vt 0.821795297 0.648723213
vt 0.794132136 0.641630095
vt 0.824632544 0.637374224
vt 0.796969383 0.629571794
vt 0.81895805 0.626734547
vt 0.806899749 0.623897299
g treetree_mobile_0
f 3/3/3 2/2/2 1/1/1
f 4/4/4 3/3/3 1/1/1
f 5/5/5 4/4/4 1/1/1
f 6/6/6 5/5/5 1/1/1
f 6/6/6 7/7/7 5/5/5
f 3/3/3 4/4/4 8/8/8
f 4/4/4 5/5/5 8/8/8
f 9/9/9 3/3/3 8/8/8
f 5/5/5 10/10/10 8/8/8
f 11/11/11 10/10/10 5/5/5
f 5/5/5 7/7/7 12/12/12
f 11/11/11 5/5/5 12/12/12
f 7/7/7 13/13/13 12/12/12
f 13/13/13 14/14/14 12/12/12
f 15/15/15 11/11/11 12/12/12
f 14/14/14 15/15/15 12/12/12
f 13/13/13 16/16/16 14/14/14
f 17/17/17 15/15/15 14/14/14
f 16/16/16 18/18/18 14/14/14
f 18/18/18 19/19/19 14/14/14
f 20/20/20 17/17/17 14/14/14
f 19/19/19 20/20/20 14/14/14
f 18/18/18 21/21/21 19/19/19
f 22/22/22 20/20/20 19/19/19
f 19/19/19 21/21/21 23/23/23
f 22/22/22 19/19/19 24/24/24
f 25/25/25 19/19/19 23/23/23
f 19/19/19 25/25/25 24/24/24
f 23/23/23 26/26/26 25/25/25
f 26/26/26 27/27/27 25/25/25
f 25/25/25 27/27/27 24/24/24
f 27/27/27 28/28/28 24/24/24
f 31/31/31 30/30/30 29/29/29
f 32/32/32 31/31/31 29/29/29
f 29/29/29 33/33/33 32/32/32
f 34/34/34 31/31/31 32/32/32
f 35/35/35 34/34/34 32/32/32
f 36/36/36 34/34/34 35/35/35
f 33/33/33 37/37/37 32/32/32
f 32/32/32 37/37/37 35/35/35
f 33/33/33 38/38/38 37/37/37
f 38/38/38 39/39/39 37/37/37
f 38/38/38 40/40/40 39/39/39
f 41/41/41 36/36/36 35/35/35
f 42/42/42 36/36/36 41/41/41
f 43/43/43 42/42/42 41/41/41
f 43/43/43 41/41/41 44/44/44
f 45/45/45 43/43/43 44/44/44
f 37/37/37 46/46/46 35/35/35
f 37/37/37 39/39/39 46/46/46
f 40/40/40 47/47/47 39/39/39
f 40/40/40 48/48/48 47/47/47
f 41/41/41 35/35/35 49/49/49
f 44/44/44 41/41/41 49/49/49
f 45/45/45 44/44/44 50/50/50
f 51/51/51 45/45/45 50/50/50
f 46/46/46 52/52/52 35/35/35
f 52/52/52 49/49/49 35/35/35
f 39/39/39 53/53/53 46/46/46
f 39/39/39 47/47/47 53/53/53
f 46/46/46 53/53/53 52/52/52
f 52/52/52 53/53/53 54/54/54
f 44/44/44 49/49/49 55/55/55
f 55/55/55 49/49/49 52/52/52
f 50/50/50 44/44/44 55/55/55
f 55/55/55 52/52/52 54/54/54
f 48/48/48 56/56/56 47/47/47
f 48/48/48 57/57/57 56/56/56
f 47/47/47 58/58/58 53/53/53
f 53/53/53 58/58/58 54/54/54
f 47/47/47 56/56/56 58/58/58
f 51/51/51 50/50/50 59/59/59
f 60/60/60 51/51/51 59/59/59
f 50/50/50 55/55/55 61/61/61
f 61/61/61 55/55/55 54/54/54
f 59/59/59 50/50/50 61/61/61
f 57/57/57 62/62/62 56/56/56
f 57/57/57 63/63/63 62/62/62
f 56/56/56 64/64/64 58/58/58
f 58/58/58 64/64/64 54/54/54
f 56/56/56 62/62/62 64/64/64
f 60/60/60 59/59/59 65/65/65
f 66/66/66 60/60/60 65/65/65
f 59/59/59 61/61/61 67/67/67
f 67/67/67 61/61/61 54/54/54
f 65/65/65 59/59/59 67/67/67
f 63/63/63 68/68/68 62/62/62
f 63/63/63 69/69/69 68/68/68
f 54/54/54 64/64/64 70/70/70
f 67/67/67 54/54/54 70/70/70
f 62/62/62 71/71/71 64/64/64
f 62/62/62 68/68/68 71/71/71
f 64/64/64 71/71/71 70/70/70
f 71/71/71 72/72/72 70/70/70
f 73/73/73 67/67/67 70/70/70
f 65/65/65 67/67/67 73/73/73
f 72/72/72 73/73/73 70/70/70
f 66/66/66 65/65/65 74/74/74
f 74/74/74 65/65/65 73/73/73
f 75/75/75 66/66/66 74/74/74
f 69/69/69 76/76/76 68/68/68
f 69/69/69 77/77/77 76/76/76
f 68/68/68 78/78/78 71/71/71
f 71/71/71 78/78/78 72/72/72
f 68/68/68 76/76/76 78/78/78
f 74/74/74 73/73/73 79/79/79
f 79/79/79 73/73/73 72/72/72
f 75/75/75 74/74/74 80/80/80
f 80/80/80 74/74/74 79/79/79
f 81/81/81 75/75/75 80/80/80
f 77/77/77 82/82/82 76/76/76
f 77/77/77 83/83/83 82/82/82
f 76/76/76 84/84/84 78/78/78
f 72/72/72 78/78/78 84/84/84
f 76/76/76 82/82/82 84/84/84
f 79/79/79 72/72/72 85/85/85
f 80/80/80 79/79/79 85/85/85
f 81/81/81 80/80/80 86/86/86
f 86/86/86 80/80/80 85/85/85
f 87/87/87 81/81/81 86/86/86
f 83/83/83 88/88/88 82/82/82
f 83/83/83 89/89/89 88/88/88
f 89/89/89 87/87/87 90/90/90
f 87/87/87 86/86/86 90/90/90
f 89/89/89 90/90/90 88/88/88
f 82/82/82 88/88/88 91/91/91
f 82/82/82 91/91/91 84/84/84
f 88/88/88 92/92/92 91/91/91
f 88/88/88 90/90/90 92/92/92
f 91/91/91 92/92/92 84/84/84
f 93/93/93 72/72/72 84/84/84
f 72/72/72 93/93/93 85/85/85
f 92/92/92 93/93/93 84/84/84
f 93/93/93 92/92/92 85/85/85
f 86/86/86 85/85/85 94/94/94
f 90/90/90 86/86/86 94/94/94
f 92/92/92 94/94/94 85/85/85
f 90/90/90 94/94/94 92/92/92
f 97/97/97 96/96/96 95/95/95
f 98/98/98 97/97/97 95/95/95
f 99/99/99 98/98/98 95/95/95
f 100/100/100 99/99/99 95/95/95
f 100/100/100 101/101/101 99/99/99
f 97/97/97 98/98/98 102/102/102
f 98/98/98 99/99/99 102/102/102
f 103/103/103 97/97/97 102/102/102
f 99/99/99 104/104/104 102/102/102
f 105/105/105 104/104/104 99/99/99
f 99/99/99 101/101/101 106/106/106
f 105/105/105 99/99/99 106/106/106
f 101/101/101 107/107/107 106/106/106
f 107/107/107 108/108/108 106/106/106
f 109/109/109 105/105/105 106/106/106
f 108/108/108 109/109/109 106/106/106
f 107/107/107 110/110/110 108/108/108
f 111/111/111 109/109/109 108/108/108
f 110/110/110 112/112/112 108/108/108
f 112/112/112 113/113/113 108/108/108
f 114/114/114 111/111/111 108/108/108
f 113/113/113 114/114/114 108/108/108
f 112/112/112 115/115/115 113/113/113
f 116/116/116 114/114/114 113/113/113
f 113/113/113 115/115/115 117/117/117
f 116/116/116 113/113/113 118/118/118
f 119/119/119 113/113/113 117/117/117
f 113/113/113 119/119/119 118/118/118
f 117/117/117 120/120/120 119/119/119
f 120/120/120 121/121/121 119/119/119
f 119/119/119 121/121/121 118/118/118
f 121/121/121 122/122/122 118/118/118
f 125/125/125 124/124/124 123/123/123
f 126/126/126 125/125/125 123/123/123
f 123/123/123 127/127/127 126/126/126
f 128/128/128 125/125/125 126/126/126
f 129/129/129 128/128/128 126/126/126
f 130/130/130 128/128/128 129/129/129
f 127/127/127 131/131/131 126/126/126
f 126/126/126 131/131/131 129/129/129
f 127/127/127 132/132/132 131/131/131
f 132/132/132 133/133/133 131/131/131
f 132/132/132 134/134/134 133/133/133
f 135/135/135 130/130/130 129/129/129
f 136/136/136 130/130/130 135/135/135
f 137/137/137 136/136/136 135/135/135
f 137/137/137 135/135/135 138/138/138
f 139/139/139 137/137/137 138/138/138
f 131/131/131 140/140/140 129/129/129
f 131/131/131 133/133/133 140/140/140
f 134/134/134 141/141/141 133/133/133
f 134/134/134 142/142/142 141/141/141
f 135/135/135 129/129/129 143/143/143
f 138/138/138 135/135/135 143/143/143
f 139/139/139 138/138/138 144/144/144
f 145/145/145 139/139/139 144/144/144
f 140/140/140 146/146/146 129/129/129
f 146/146/146 143/143/143 129/129/129
f 133/133/133 147/147/147 140/140/140
f 133/133/133 141/141/141 147/147/147
f 140/140/140 147/147/147 146/146/146
f 146/146/146 147/147/147 148/148/148
f 138/138/138 143/143/143 149/149/149
f 149/149/149 143/143/143 146/146/146
f 144/144/144 138/138/138 149/149/149
f 149/149/149 146/146/146 148/148/148
f 142/142/142 150/150/150 141/141/141
f 142/142/142 151/151/151 150/150/150
f 141/141/141 152/152/152 147/147/147
f 147/147/147 152/152/152 148/148/148
f 141/141/141 150/150/150 152/152/152
f 145/145/145 144/144/144 153/153/153
f 154/154/154 145/145/145 153/153/153
f 144/144/144 149/149/149 155/155/155
f 155/155/155 149/149/149 148/148/148
f 153/153/153 144/144/144 155/155/155
f 151/151/151 156/156/156 150/150/150
f 151/151/151 157/157/157 156/156/156
f 150/150/150 158/158/158 152/152/152
f 152/152/152 158/158/158 148/148/148
f 150/150/150 156/156/156 158/158/158
f 154/154/154 153/153/153 159/159/159
f 160/160/160 154/154/154 159/159/159
f 153/153/153 155/155/155 161/161/161
f 161/161/161 155/155/155 148/148/148
f 159/159/159 153/153/153 161/161/161
f 157/157/157 162/162/162 156/156/156
f 157/157/157 163/163/163 162/162/162
f 148/148/148 158/158/158 164/164/164
f 161/161/161 148/148/148 164/164/164
f 156/156/156 165/165/165 158/158/158
f 156/156/156 162/162/162 165/165/165
f 158/158/158 165/165/165 164/164/164
f 165/165/165 166/166/166 164/164/164
f 167/167/167 161/161/161 164/164/164
f 159/159/159 161/161/161 167/167/167
f 166/166/166 167/167/167 164/164/164
f 160/160/160 159/159/159 168/168/168
f 168/168/168 159/159/159 167/167/167
f 169/169/169 160/160/160 168/168/168
f 163/163/163 170/170/170 162/162/162
f 163/163/163 171/171/171 170/170/170
f 162/162/162 172/172/172 165/165/165
f 165/165/165 172/172/172 166/166/166
f 162/162/162 170/170/170 172/172/172
f 168/168/168 167/167/167 173/173/173
f 173/173/173 167/167/167 166/166/166
f 169/169/169 168/168/168 174/174/174
f 174/174/174 168/168/168 173/173/173
f 175/175/175 169/169/169 174/174/174
f 171/171/171 176/176/176 170/170/170
f 171/171/171 177/177/177 176/176/176
f 170/170/170 178/178/178 172/172/172
f 166/166/166 172/172/172 178/178/178
f 170/170/170 176/176/176 178/178/178
f 173/173/173 166/166/166 179/179/179
f 174/174/174 173/173/173 179/179/179
f 175/175/175 174/174/174 180/180/180
f 180/180/180 174/174/174 179/179/179
f 181/181/181 175/175/175 180/180/180
f 177/177/177 182/182/182 176/176/176
f 177/177/177 183/183/183 182/182/182
f 183/183/183 181/181/181 184/184/184
f 181/181/181 180/180/180 184/184/184
f 183/183/183 184/184/184 182/182/182
f 176/176/176 182/182/182 185/185/185
f 176/176/176 185/185/185 178/178/178
f 182/182/182 186/186/186 185/185/185
f 182/182/182 184/184/184 186/186/186
f 185/185/185 186/186/186 178/178/178
f 187/187/187 166/166/166 178/178/178
f 166/166/166 187/187/187 179/179/179
f 186/186/186 187/187/187 178/178/178
f 187/187/187 186/186/186 179/179/179
f 180/180/180 179/179/179 188/188/188
f 184/184/184 180/180/180 188/188/188
f 186/186/186 188/188/188 179/179/179
f 184/184/184 188/188/188 186/186/186
f 191/191/191 190/190/190 189/189/189
f 192/192/192 191/191/191 189/189/189
f 189/189/189 193/193/193 192/192/192
f 191/191/191 192/192/192 194/194/194
f 195/195/195 191/191/191 194/194/194
f 194/194/194 192/192/192 196/196/196
f 193/193/193 197/197/197 192/192/192
f 192/192/192 197/197/197 196/196/196
f 197/197/197 193/193/193 198/198/198
f 196/196/196 197/197/197 199/199/199
f 200/200/200 197/197/197 198/198/198
f 197/197/197 200/200/200 199/199/199
f 200/200/200 198/198/198 201/201/201
f 199/199/199 200/200/200 202/202/202
f 203/203/203 200/200/200 201/201/201
f 200/200/200 203/203/203 202/202/202
f 203/203/203 201/201/201 204/204/204
f 202/202/202 203/203/203 205/205/205
f 206/206/206 203/203/203 204/204/204
f 203/203/203 206/206/206 205/205/205
f 206/206/206 204/204/204 207/207/207
f 205/205/205 206/206/206 208/208/208
f 209/209/209 206/206/206 207/207/207
f 206/206/206 209/209/209 208/208/208
f 209/209/209 207/207/207 210/210/210
f 208/208/208 209/209/209 211/211/211
f 212/212/212 209/209/209 210/210/210
f 209/209/209 212/212/212 211/211/211
f 212/212/212 210/210/210 213/213/213
f 211/211/211 212/212/212 214/214/214
f 215/215/215 212/212/212 213/213/213
f 212/212/212 215/215/215 214/214/214
f 218/218/218 217/217/217 216/216/216
f 219/219/219 218/218/218 216/216/216
f 220/220/220 219/219/219 216/216/216
f 221/221/221 220/220/220 216/216/216
f 221/221/221 222/222/222 220/220/220
f 218/218/218 219/219/219 223/223/223
f 219/219/219 220/220/220 223/223/223
f 224/224/224 218/218/218 223/223/223
f 220/220/220 225/225/225 223/223/223
f 226/226/226 225/225/225 220/220/220
f 220/220/220 222/222/222 227/227/227
f 226/226/226 220/220/220 227/227/227
f 222/222/222 228/228/228 227/227/227
f 228/228/228 229/229/229 227/227/227
f 230/230/230 226/226/226 227/227/227
f 229/229/229 230/230/230 227/227/227
f 228/228/228 231/231/231 229/229/229
f 232/232/232 230/230/230 229/229/229
f 231/231/231 233/233/233 229/229/229
f 233/233/233 234/234/234 229/229/229
f 235/235/235 232/232/232 229/229/229
f 234/234/234 235/235/235 229/229/229
f 233/233/233 236/236/236 234/234/234
f 237/237/237 235/235/235 234/234/234
f 234/234/234 236/236/236 238/238/238
f 237/237/237 234/234/234 239/239/239
f 240/240/240 234/234/234 238/238/238
f 234/234/234 240/240/240 239/239/239
f 238/238/238 241/241/241 240/240/240
f 241/241/241 242/242/242 240/240/240
f 240/240/240 242/242/242 239/239/239
f 242/242/242 243/243/243 239/239/239
f 246/246/246 245/245/245 244/244/244
f 247/247/247 246/246/246 244/244/244
f 244/244/244 248/248/248 247/247/247
f 249/249/249 246/246/246 247/247/247
f 250/250/250 249/249/249 247/247/247
f 251/251/251 249/249/249 250/250/250
f 248/248/248 252/252/252 247/247/247
f 247/247/247 252/252/252 250/250/250
f 248/248/248 253/253/253 252/252/252
f 253/253/253 254/254/254 252/252/252
f 253/253/253 255/255/255 254/254/254
f 256/256/256 251/251/251 250/250/250
f 257/257/257 251/251/251 256/256/256
f 258/258/258 257/257/257 256/256/256
f 258/258/258 256/256/256 259/259/259
f 260/260/260 258/258/258 259/259/259
f 252/252/252 261/261/261 250/250/250
f 252/252/252 254/254/254 261/261/261
f 255/255/255 262/262/262 254/254/254
f 255/255/255 263/263/263 262/262/262
f 256/256/256 250/250/250 264/264/264
f 259/259/259 256/256/256 264/264/264
f 260/260/260 259/259/259 265/265/265
f 266/266/266 260/260/260 265/265/265
f 261/261/261 267/267/267 250/250/250
f 267/267/267 264/264/264 250/250/250
f 254/254/254 268/268/268 261/261/261
f 254/254/254 262/262/262 268/268/268
f 261/261/261 268/268/268 267/267/267
f 267/267/267 268/268/268 269/269/269
f 259/259/259 264/264/264 270/270/270
f 270/270/270 264/264/264 267/267/267
f 265/265/265 259/259/259 270/270/270
f 270/270/270 267/267/267 269/269/269
f 263/263/263 271/271/271 262/262/262
f 263/263/263 272/272/272 271/271/271
f 262/262/262 273/273/273 268/268/268
f 268/268/268 273/273/273 269/269/269
f 262/262/262 271/271/271 273/273/273
f 266/266/266 265/265/265 274/274/274
f 275/275/275 266/266/266 274/274/274
f 265/265/265 270/270/270 276/276/276
f 276/276/276 270/270/270 269/269/269
f 274/274/274 265/265/265 276/276/276
f 272/272/272 277/277/277 271/271/271
f 272/272/272 278/278/278 277/277/277
f 271/271/271 279/279/279 273/273/273
f 273/273/273 279/279/279 269/269/269
f 271/271/271 277/277/277 279/279/279
f 275/275/275 274/274/274 280/280/280
f 281/281/281 275/275/275 280/280/280
f 274/274/274 276/276/276 282/282/282
f 282/282/282 276/276/276 269/269/269
f 280/280/280 274/274/274 282/282/282
f 278/278/278 283/283/283 277/277/277
f 278/278/278 284/284/284 283/283/283
f 269/269/269 279/279/279 285/285/285
f 282/282/282 269/269/269 285/285/285
f 277/277/277 286/286/286 279/279/279
f 277/277/277 283/283/283 286/286/286
f 279/279/279 286/286/286 285/285/285
f 286/286/286 287/287/287 285/285/285
f 288/288/288 282/282/282 285/285/285
f 280/280/280 282/282/282 288/288/288
f 287/287/287 288/288/288 285/285/285
f 281/281/281 280/280/280 289/289/289
f 289/289/289 280/280/280 288/288/288
f 290/290/290 281/281/281 289/289/289
f 284/284/284 291/291/291 283/283/283
f 284/284/284 292/292/292 291/291/291
f 283/283/283 293/293/293 286/286/286
f 286/286/286 293/293/293 287/287/287
f 283/283/283 291/291/291 293/293/293
f 289/289/289 288/288/288 294/294/294
f 294/294/294 288/288/288 287/287/287
f 290/290/290 289/289/289 295/295/295
f 295/295/295 289/289/289 294/294/294
f 296/296/296 290/290/290 295/295/295
f 292/292/292 297/297/297 291/291/291
f 292/292/292 298/298/298 297/297/297
f 291/291/291 299/299/299 293/293/293
f 287/287/287 293/293/293 299/299/299
f 291/291/291 297/297/297 299/299/299
f 294/294/294 287/287/287 300/300/300
f 295/295/295 294/294/294 300/300/300
f 296/296/296 295/295/295 301/301/301
f 301/301/301 295/295/295 300/300/300
f 302/302/302 296/296/296 301/301/301
f 298/298/298 303/303/303 297/297/297
f 298/298/298 304/304/304 303/303/303
f 304/304/304 302/302/302 305/305/305
f 302/302/302 301/301/301 305/305/305
f 304/304/304 305/305/305 303/303/303
f 297/297/297 303/303/303 306/306/306
f 297/297/297 306/306/306 299/299/299
f 303/303/303 307/307/307 306/306/306
f 303/303/303 305/305/305 307/307/307
f 306/306/306 307/307/307 299/299/299
f 308/308/308 287/287/287 299/299/299
f 287/287/287 308/308/308 300/300/300
f 307/307/307 308/308/308 299/299/299
f 308/308/308 307/307/307 300/300/300
f 301/301/301 300/300/300 309/309/309
f 305/305/305 301/301/301 309/309/309
f 307/307/307 309/309/309 300/300/300
f 305/305/305 309/309/309 307/307/307
f 312/312/312 311/311/311 310/310/310
f 313/313/313 312/312/312 310/310/310
f 314/314/314 313/313/313 310/310/310
f 315/315/315 314/314/314 310/310/310
f 315/315/315 316/316/316 314/314/314
f 312/312/312 313/313/313 317/317/317
f 313/313/313 314/314/314 317/317/317
f 318/318/318 312/312/312 317/317/317
f 314/314/314 319/319/319 317/317/317
f 320/320/320 319/319/319 314/314/314
f 314/314/314 316/316/316 321/321/321
f 320/320/320 314/314/314 321/321/321
f 316/316/316 322/322/322 321/321/321
f 322/322/322 323/323/323 321/321/321
f 324/324/324 320/320/320 321/321/321
f 323/323/323 324/324/324 321/321/321
f 322/322/322 325/325/325 323/323/323
f 326/326/326 324/324/324 323/323/323
f 325/325/325 327/327/327 323/323/323
f 327/327/327 328/328/328 323/323/323
f 329/329/329 326/326/326 323/323/323
f 328/328/328 329/329/329 323/323/323
f 327/327/327 330/330/330 328/328/328
f 331/331/331 329/329/329 328/328/328
f 328/328/328 330/330/330 332/332/332
f 331/331/331 328/328/328 333/333/333
f 334/334/334 328/328/328 332/332/332
f 328/328/328 334/334/334 333/333/333
f 332/332/332 335/335/335 334/334/334
f 335/335/335 336/336/336 334/334/334
f 334/334/334 336/336/336 333/333/333
f 336/336/336 337/337/337 333/333/333
f 340/340/340 339/339/339 338/338/338
f 341/341/341 340/340/340 338/338/338
f 338/338/338 342/342/342 341/341/341
f 343/343/343 340/340/340 341/341/341
f 344/344/344 343/343/343 341/341/341
f 345/345/345 343/343/343 344/344/344
f 342/342/342 346/346/346 341/341/341
f 341/341/341 346/346/346 344/344/344
f 342/342/342 347/347/347 346/346/346
f 347/347/347 348/348/348 346/346/346
f 347/347/347 349/349/349 348/348/348
f 350/350/350 345/345/345 344/344/344
f 351/351/351 345/345/345 350/350/350
f 352/352/352 351/351/351 350/350/350
f 352/352/352 350/350/350 353/353/353
f 354/354/354 352/352/352 353/353/353
f 346/346/346 355/355/355 344/344/344
f 346/346/346 348/348/348 355/355/355
f 349/349/349 356/356/356 348/348/348
f 349/349/349 357/357/357 356/356/356
f 350/350/350 344/344/344 358/358/358
f 353/353/353 350/350/350 358/358/358
f 354/354/354 353/353/353 359/359/359
f 360/360/360 354/354/354 359/359/359
f 355/355/355 361/361/361 344/344/344
f 361/361/361 358/358/358 344/344/344
f 348/348/348 362/362/362 355/355/355
f 348/348/348 356/356/356 362/362/362
f 355/355/355 362/362/362 361/361/361
f 361/361/361 362/362/362 363/363/363
f 353/353/353 358/358/358 364/364/364
f 364/364/364 358/358/358 361/361/361
f 359/359/359 353/353/353 364/364/364
f 364/364/364 361/361/361 363/363/363
f 357/357/357 365/365/365 356/356/356
f 357/357/357 366/366/366 365/365/365
f 356/356/356 367/367/367 362/362/362
f 362/362/362 367/367/367 363/363/363
f 356/356/356 365/365/365 367/367/367
f 360/360/360 359/359/359 368/368/368
f 369/369/369 360/360/360 368/368/368
f 359/359/359 364/364/364 370/370/370
f 370/370/370 364/364/364 363/363/363
f 368/368/368 359/359/359 370/370/370
f 366/366/366 371/371/371 365/365/365
f 366/366/366 372/372/372 371/371/371
f 365/365/365 373/373/373 367/367/367
f 367/367/367 373/373/373 363/363/363
f 365/365/365 371/371/371 373/373/373
f 369/369/369 368/368/368 374/374/374
f 375/375/375 369/369/369 374/374/374
f 368/368/368 370/370/370 376/376/376
f 376/376/376 370/370/370 363/363/363
f 374/374/374 368/368/368 376/376/376
f 372/372/372 377/377/377 371/371/371
f 372/372/372 378/378/378 377/377/377
f 363/363/363 373/373/373 379/379/379
f 376/376/376 363/363/363 379/379/379
f 371/371/371 380/380/380 373/373/373
f 371/371/371 377/377/377 380/380/380
f 373/373/373 380/380/380 379/379/379
f 380/380/380 381/381/381 379/379/379
f 382/382/382 376/376/376 379/379/379
f 374/374/374 376/376/376 382/382/382
f 381/381/381 382/382/382 379/379/379
f 375/375/375 374/374/374 383/383/383
f 383/383/383 374/374/374 382/382/382
f 384/384/384 375/375/375 383/383/383
f 378/378/378 385/385/385 377/377/377
f 378/378/378 386/386/386 385/385/385
f 377/377/377 387/387/387 380/380/380
f 380/380/380 387/387/387 381/381/381
f 377/377/377 385/385/385 387/387/387
f 383/383/383 382/382/382 388/388/388
f 388/388/388 382/382/382 381/381/381
f 384/384/384 383/383/383 389/389/389
f 389/389/389 383/383/383 388/388/388
f 390/390/390 384/384/384 389/389/389
f 386/386/386 391/391/391 385/385/385
f 386/386/386 392/392/392 391/391/391
f 385/385/385 393/393/393 387/387/387
f 381/381/381 387/387/387 393/393/393
f 385/385/385 391/391/391 393/393/393
f 388/388/388 381/381/381 394/394/394
f 389/389/389 388/388/388 394/394/394
f 390/390/390 389/389/389 395/395/395
f 395/395/395 389/389/389 394/394/394
f 396/396/396 390/390/390 395/395/395
f 392/392/392 397/397/397 391/391/391
f 392/392/392 398/398/398 397/397/397
f 398/398/398 396/396/396 399/399/399
f 396/396/396 395/395/395 399/399/399
f 398/398/398 399/399/399 397/397/397
f 391/391/391 397/397/397 400/400/400
f 391/391/391 400/400/400 393/393/393
f 397/397/397 401/401/401 400/400/400
f 397/397/397 399/399/399 401/401/401
f 400/400/400 401/401/401 393/393/393
f 402/402/402 381/381/381 393/393/393
f 381/381/381 402/402/402 394/394/394
f 401/401/401 402/402/402 393/393/393
f 402/402/402 401/401/401 394/394/394
f 395/395/395 394/394/394 403/403/403
f 399/399/399 395/395/395 403/403/403
f 401/401/401 403/403/403 394/394/394
f 399/399/399 403/403/403 401/401/401
f 406/406/406 405/405/405 404/404/404
f 407/407/407 406/406/406 404/404/404
f 408/408/408 407/407/407 404/404/404
f 409/409/409 408/408/408 404/404/404
f 409/409/409 410/410/410 408/408/408
f 406/406/406 407/407/407 411/411/411
f 407/407/407 408/408/408 411/411/411
f 412/412/412 406/406/406 411/411/411
f 408/408/408 413/413/413 411/411/411
f 414/414/414 413/413/413 408/408/408
f 408/408/408 410/410/410 415/415/415
f 414/414/414 408/408/408 415/415/415
f 410/410/410 416/416/416 415/415/415
f 416/416/416 417/417/417 415/415/415
f 418/418/418 414/414/414 415/415/415
f 417/417/417 418/418/418 415/415/415
f 416/416/416 419/419/419 417/417/417
f 420/420/420 418/418/418 417/417/417
f 419/419/419 421/421/421 417/417/417
f 421/421/421 422/422/422 417/417/417
f 423/423/423 420/420/420 417/417/417
f 422/422/422 423/423/423 417/417/417
f 421/421/421 424/424/424 422/422/422
f 425/425/425 423/423/423 422/422/422
f 422/422/422 424/424/424 426/426/426
f 425/425/425 422/422/422 427/427/427
f 428/428/428 422/422/422 426/426/426
f 422/422/422 428/428/428 427/427/427
f 426/426/426 429/429/429 428/428/428
f 429/429/429 430/430/430 428/428/428
f 428/428/428 430/430/430 427/427/427
f 430/430/430 431/431/431 427/427/427
f 434/434/434 433/433/433 432/432/432
f 435/435/435 434/434/434 432/432/432
f 432/432/432 436/436/436 435/435/435
f 437/437/437 434/434/434 435/435/435
f 438/438/438 437/437/437 435/435/435
f 439/439/439 437/437/437 438/438/438
f 436/436/436 440/440/440 435/435/435
f 435/435/435 440/440/440 438/438/438
f 436/436/436 441/441/441 440/440/440
f 441/441/441 442/442/442 440/440/440
f 441/441/441 443/443/443 442/442/442
f 444/444/444 439/439/439 438/438/438
f 445/445/445 439/439/439 444/444/444
f 446/446/446 445/445/445 444/444/444
f 446/446/446 444/444/444 447/447/447
f 448/448/448 446/446/446 447/447/447
f 440/440/440 449/449/449 438/438/438
f 440/440/440 442/442/442 449/449/449
f 443/443/443 450/450/450 442/442/442
f 443/443/443 451/451/451 450/450/450
f 444/444/444 438/438/438 452/452/452
f 447/447/447 444/444/444 452/452/452
f 448/448/448 447/447/447 453/453/453
f 454/454/454 448/448/448 453/453/453
f 449/449/449 455/455/455 438/438/438
f 455/455/455 452/452/452 438/438/438
f 442/442/442 456/456/456 449/449/449
f 442/442/442 450/450/450 456/456/456
f 449/449/449 456/456/456 455/455/455
f 455/455/455 456/456/456 457/457/457
f 447/447/447 452/452/452 458/458/458
f 458/458/458 452/452/452 455/455/455
f 453/453/453 447/447/447 458/458/458
f 458/458/458 455/455/455 457/457/457
f 451/451/451 459/459/459 450/450/450
f 451/451/451 460/460/460 459/459/459
f 450/450/450 461/461/461 456/456/456
f 456/456/456 461/461/461 457/457/457
f 450/450/450 459/459/459 461/461/461
f 454/454/454 453/453/453 462/462/462
f 463/463/463 454/454/454 462/462/462
f 453/453/453 458/458/458 464/464/464
f 464/464/464 458/458/458 457/457/457
f 462/462/462 453/453/453 464/464/464
f 460/460/460 465/465/465 459/459/459
f 460/460/460 466/466/466 465/465/465
f 459/459/459 467/467/467 461/461/461
f 461/461/461 467/467/467 457/457/457
f 459/459/459 465/465/465 467/467/467
f 463/463/463 462/462/462 468/468/468
f 469/469/469 463/463/463 468/468/468
f 462/462/462 464/464/464 470/470/470
f 470/470/470 464/464/464 457/457/457
f 468/468/468 462/462/462 470/470/470
f 466/466/466 471/471/471 465/465/465
f 466/466/466 472/472/472 471/471/471
f 457/457/457 467/467/467 473/473/473
f 470/470/470 457/457/457 473/473/473
f 465/465/465 474/474/474 467/467/467
f 465/465/465 471/471/471 474/474/474
f 467/467/467 474/474/474 473/473/473
f 474/474/474 475/475/475 473/473/473
f 476/476/476 470/470/470 473/473/473
f 468/468/468 470/470/470 476/476/476
f 475/475/475 476/476/476 473/473/473
f 469/469/469 468/468/468 477/477/477
f 477/477/477 468/468/468 476/476/476
f 478/478/478 469/469/469 477/477/477
f 472/472/472 479/479/479 471/471/471
f 472/472/472 480/480/480 479/479/479
f 471/471/471 481/481/481 474/474/474
f 474/474/474 481/481/481 475/475/475
f 471/471/471 479/479/479 481/481/481
f 477/477/477 476/476/476 482/482/482
f 482/482/482 476/476/476 475/475/475
f 478/478/478 477/477/477 483/483/483
f 483/483/483 477/477/477 482/482/482
f 484/484/484 478/478/478 483/483/483
f 480/480/480 485/485/485 479/479/479
f 480/480/480 486/486/486 485/485/485
f 479/479/479 487/487/487 481/481/481
f 475/475/475 481/481/481 487/487/487
f 479/479/479 485/485/485 487/487/487
f 482/482/482 475/475/475 488/488/488
f 483/483/483 482/482/482 488/488/488
f 484/484/484 483/483/483 489/489/489
f 489/489/489 483/483/483 488/488/488
f 490/490/490 484/484/484 489/489/489
f 486/486/486 491/491/491 485/485/485
f 486/486/486 492/492/492 491/491/491
f 492/492/492 490/490/490 493/493/493
f 490/490/490 489/489/489 493/493/493
f 492/492/492 493/493/493 491/491/491
f 485/485/485 491/491/491 494/494/494
f 485/485/485 494/494/494 487/487/487
f 491/491/491 495/495/495 494/494/494
f 491/491/491 493/493/493 495/495/495
f 494/494/494 495/495/495 487/487/487
f 496/496/496 475/475/475 487/487/487
f 475/475/475 496/496/496 488/488/488
f 495/495/495 496/496/496 487/487/487
f 496/496/496 495/495/495 488/488/488
f 489/489/489 488/488/488 497/497/497
f 493/493/493 489/489/489 497/497/497
f 495/495/495 497/497/497 488/488/488
f 493/493/493 497/497/497 495/495/495
f 500/500/500 499/499/499 498/498/498
f 498/498/498 499/499/499 501/501/501
f 502/502/502 499/499/499 500/500/500
f 501/501/501 499/499/499 503/503/503
f 504/504/504 499/499/499 502/502/502
f 503/503/503 499/499/499 505/505/505
f 506/506/506 499/499/499 504/504/504
f 505/505/505 499/499/499 506/506/506
f 509/509/509 508/508/508 507/507/507
f 507/507/507 508/508/508 510/510/510
f 511/511/511 508/508/508 509/509/509
f 510/510/510 508/508/508 512/512/512
f 513/513/513 508/508/508 511/511/511
f 512/512/512 508/508/508 514/514/514
f 515/515/515 508/508/508 513/513/513
f 514/514/514 508/508/508 515/515/515
