g Wang_01Wang_01_mobile
v -0.765614575 -0.0138690214 3.00628355
v -0.799912099 0.0212289839 0.233294827
v -0.790491056 -0.0138690214 0.233294827
v -0.778360693 0.0337287999 3.00628355
v -0.825650637 0.0469675212 0.233294827
v -0.813212396 0.068518928 3.00628355
v -0.860748642 0.0563885647 0.233294827
v -0.860748642 0.0813266212 3.00628355
v -0.895908223 0.0469675212 0.233294827
v -0.908346463 0.068518928 3.00628355
v -0.92164676 0.0212289839 0.233294827
v -0.943198167 0.0337287999 3.00628355
v -0.931006228 -0.0138690214 0.233294827
v -0.955944285 -0.0138690214 3.00628355
v -0.92164676 -0.0490286022 0.233294827
v -0.943198167 -0.0614668427 3.00628355
v -0.895908223 -0.074705564 0.233294827
v -0.908346463 -0.0963185463 3.00628355
v -0.860748642 -0.0841266076 0.233294827
v -0.860748642 -0.109064664 3.00628355
v -0.825650637 -0.074705564 0.233294827
v -0.813212396 -0.0963185463 3.00628355
v -0.799912099 -0.0490286022 0.233294827
v -0.778360693 -0.0614668427 3.00628355
v -0.790491056 -0.0138690214 0.233294827
v -0.765614575 -0.0138690214 3.00628355
v 0.804990377 -0.0138690214 0.233294827
v 0.792798439 0.0337287999 3.00628355
v 0.780052321 -0.0138690214 3.00628355
v 0.814411421 0.0212289839 0.233294827
v 0.827650142 0.068518928 3.00628355
v 0.840088383 0.0469675212 0.233294827
v 0.875247964 0.0813266212 3.00628355
v 0.875247964 0.0563885647 0.233294827
v 0.922845785 0.068518928 3.00628355
v 0.910345969 0.0469675212 0.233294827
v 0.957635913 0.0337287999 3.00628355
v 0.936084506 0.0212289839 0.233294827
v 0.970443606 -0.0138690214 3.00628355
v 0.94550555 -0.0138690214 0.233294827
v 0.957635913 -0.0614668427 3.00628355
v 0.936084506 -0.0490286022 0.233294827
v 0.922845785 -0.0963185463 3.00628355
v 0.910345969 -0.074705564 0.233294827
v 0.875247964 -0.109064664 3.00628355
v 0.875247964 -0.0841266076 0.233294827
v 0.827650142 -0.0963185463 3.00628355
v 0.840088383 -0.074705564 0.233294827
v 0.792798439 -0.0614668427 3.00628355
v 0.814411421 -0.0490286022 0.233294827
v 0.780052321 -0.0138690214 3.00628355
v 0.804990377 -0.0138690214 0.233294827
v 0.847477436 -0.00955874006 0.496098839
v -0.831869757 0.018211787 0.503549468
v -0.831869757 -0.00955874006 0.496098839
v 0.847477436 0.018211787 0.503549468
v -0.831869757 0.0385316848 0.523869366
v 0.847477436 0.0385316848 0.523869366
v -0.831869757 0.045982314 0.551639893
v 0.847477436 0.045982314 0.551639893
v -0.831869757 0.0385316848 0.57941042
v 0.847477436 0.0385316848 0.57941042
v -0.831869757 0.018211787 0.599730318
v 0.847477436 0.018211787 0.599730318
v -0.831869757 -0.00955874006 0.607180947
v 0.847477436 -0.00955874006 0.607180947
v -0.831869757 -0.0373292671 0.599730318
v 0.847477436 -0.0373292671 0.599730318
v -0.831869757 -0.057649165 0.57941042
v 0.847477436 -0.057649165 0.57941042
v -0.831869757 -0.0650382187 0.551639893
v 0.847477436 -0.0650382187 0.551639893
v -0.831869757 -0.057649165 0.523869366
v 0.847477436 -0.057649165 0.523869366
v -0.831869757 -0.0373292671 0.503549468
v 0.847477436 -0.0373292671 0.503549468
v -0.831869757 -0.00955874006 0.496098839
v 0.847477436 -0.00955874006 0.496098839
v -0.56629485 -0.00955874006 2.74963708
v -0.570358829 -0.000876601893 0.5972673
v -0.566787453 -0.00955874006 0.5972673
v -0.570050952 -0.000568724653 2.74963708
v -0.579040967 0.00269477409 0.5972673
v -0.579040967 0.00318737768 2.74963708
v -0.587723106 -0.000876601893 0.5972673
v -0.588030983 -0.000568724653 2.74963708
v -0.591294482 -0.00955874006 0.5972673
v -0.591787085 -0.00955874006 2.74963708
v -0.587723106 -0.0182408782 0.5972673
v -0.588030983 -0.0186103309 2.74963708
v -0.579040967 -0.0218738297 0.5972673
v -0.579040967 -0.0223048578 2.74963708
v -0.570358829 -0.0182408782 0.5972673
v -0.570050952 -0.0186103309 2.74963708
v -0.566787453 -0.00955874006 0.5972673
v -0.56629485 -0.00955874006 2.74963708
v -0.390804823 -0.00955874006 0.5972673
v -0.387541324 -0.000568724653 2.74963708
v -0.391297426 -0.00955874006 2.74963708
v -0.387233447 -0.000876601893 0.5972673
v -0.378551309 0.00318737768 2.74963708
v -0.378551309 0.00269477409 0.5972673
v -0.369499718 -0.000568724653 2.74963708
v -0.369869171 -0.000876601893 0.5972673
v -0.365805191 -0.00955874006 2.74963708
v -0.366236219 -0.00955874006 0.5972673
v -0.369499718 -0.0186103309 2.74963708
v -0.369869171 -0.0182408782 0.5972673
v -0.378551309 -0.0223048578 2.74963708
v -0.378551309 -0.0218738297 0.5972673
v -0.387541324 -0.0186103309 2.74963708
v -0.387233447 -0.0182408782 0.5972673
v -0.391297426 -0.00955874006 2.74963708
v -0.390804823 -0.00955874006 0.5972673
v -0.191300371 -0.00955874006 0.5972673
v -0.188036873 -0.000568724653 2.74963708
v -0.191792975 -0.00955874006 2.74963708
v -0.18766742 -0.000876601893 0.5972673
v -0.179046857 0.00318737768 2.74963708
v -0.179046857 0.00269477409 0.5972673
v -0.169995266 -0.000568724653 2.74963708
v -0.170364719 -0.000876601893 0.5972673
v -0.166239164 -0.00955874006 2.74963708
v -0.166731768 -0.00955874006 0.5972673
v -0.169995266 -0.0186103309 2.74963708
v -0.170364719 -0.0182408782 0.5972673
v -0.179046857 -0.0223048578 2.74963708
v -0.179046857 -0.0218738297 0.5972673
v -0.188036873 -0.0186103309 2.74963708
v -0.18766742 -0.0182408782 0.5972673
v -0.191792975 -0.00955874006 2.74963708
v -0.191300371 -0.00955874006 0.5972673
v 0.0069109958 -0.00955874006 0.5972673
v 0.0101744945 -0.000568724653 2.74963708
v 0.00641839221 -0.00955874006 2.74963708
v 0.0104823718 -0.000876601893 0.5972673
v 0.0191645099 0.00318737768 2.74963708
v 0.0191645099 0.00269477409 0.5972673
v 0.0282161008 -0.000568724653 2.74963708
v 0.0278466481 -0.000876601893 0.5972673
v 0.0319106277 -0.00955874006 2.74963708
v 0.0314795996 -0.00955874006 0.5972673
v 0.0282161008 -0.0186103309 2.74963708
v 0.0278466481 -0.0182408782 0.5972673
v 0.0191645099 -0.0223048578 2.74963708
v 0.0191645099 -0.0218738297 0.5972673
v 0.0101744945 -0.0186103309 2.74963708
v 0.0104823718 -0.0182408782 0.5972673
v 0.00641839221 -0.00955874006 2.74963708
v 0.0069109958 -0.00955874006 0.5972673
v 0.196070772 -0.00955874006 0.5972673
v 0.199334271 -0.000568724653 2.74963708
v 0.195578168 -0.00955874006 2.74963708
v 0.199642148 -0.000876601893 0.5972673
v 0.208324286 0.00318737768 2.74963708
v 0.208324286 0.00269477409 0.5972673
v 0.217375877 -0.000568724653 2.74963708
v 0.217006424 -0.000876601893 0.5972673
v 0.221070404 -0.00955874006 2.74963708
v 0.220639376 -0.00955874006 0.5972673
v 0.217375877 -0.0186103309 2.74963708
v 0.217006424 -0.0182408782 0.5972673
v 0.208324286 -0.0223048578 2.74963708
v 0.208324286 -0.0218738297 0.5972673
v 0.199334271 -0.0186103309 2.74963708
v 0.199642148 -0.0182408782 0.5972673
v 0.195578168 -0.00955874006 2.74963708
v 0.196070772 -0.00955874006 0.5972673
v 0.401732768 -0.00955874006 0.5972673
v 0.404996267 -0.000568724653 2.74963708
v 0.40130174 -0.00955874006 2.74963708
v 0.40536572 -0.000876601893 0.5972673
v 0.414047858 0.00318737768 2.74963708
v 0.414047858 0.00269477409 0.5972673
v 0.423037873 -0.000568724653 2.74963708
v 0.422729996 -0.000876601893 0.5972673
v 0.426793976 -0.00955874006 2.74963708
v 0.426301372 -0.00955874006 0.5972673
v 0.423037873 -0.0186103309 2.74963708
v 0.422729996 -0.0182408782 0.5972673
v 0.414047858 -0.0223048578 2.74963708
v 0.414047858 -0.0218738297 0.5972673
v 0.404996267 -0.0186103309 2.74963708
v 0.40536572 -0.0182408782 0.5972673
v 0.40130174 -0.00955874006 2.74963708
v 0.401732768 -0.00955874006 0.5972673
v 0.602961332 -0.00955874006 0.5972673
v 0.606224831 -0.000568724653 2.74963708
v 0.602468729 -0.00955874006 2.74963708
v 0.606532708 -0.000876601893 0.5972673
v 0.615214847 0.00318737768 2.74963708
v 0.615214847 0.00269477409 0.5972673
v 0.624266437 -0.000568724653 2.74963708
v 0.623896985 -0.000876601893 0.5972673
v 0.627960964 -0.00955874006 2.74963708
v 0.627529936 -0.00955874006 0.5972673
v 0.624266437 -0.0186103309 2.74963708
v 0.623896985 -0.0182408782 0.5972673
v 0.615214847 -0.0223048578 2.74963708
v 0.615214847 -0.0218738297 0.5972673
v 0.606224831 -0.0186103309 2.74963708
v 0.606532708 -0.0182408782 0.5972673
v 0.602468729 -0.00955874006 2.74963708
v 0.602961332 -0.00955874006 0.5972673
v 0.883806951 -0.00888141013 0.819739394
v -0.82952989 0.00817498896 0.82682057
v -0.82952989 -0.00888141013 0.819739394
v 0.883806951 0.00817498896 0.82682057
v -0.82952989 0.0153177409 0.843938545
v 0.883806951 0.0153177409 0.843938545
v -0.82952989 0.00817498896 0.861056519
v 0.883806951 0.00817498896 0.861056519
v -0.82952989 -0.00888141013 0.868137696
v 0.883806951 -0.00888141013 0.868137696
v -0.82952989 -0.0259993847 0.861056519
v 0.883806951 -0.0259993847 0.861056519
v -0.82952989 -0.0330805612 0.843938545
v 0.883806951 -0.0330805612 0.843938545
v -0.82952989 -0.0259993847 0.82682057
v 0.883806951 -0.0259993847 0.82682057
v -0.82952989 -0.00888141013 0.819739394
v 0.883806951 -0.00888141013 0.819739394
v 0.883806951 -0.00888141013 1.13568302
v -0.82952989 0.00817498896 1.14276419
v -0.82952989 -0.00888141013 1.13568302
v 0.883806951 0.00817498896 1.14276419
v -0.82952989 0.0153177409 1.15988217
v 0.883806951 0.0153177409 1.15988217
v -0.82952989 0.00817498896 1.17700014
v 0.883806951 0.00817498896 1.17700014
v -0.82952989 -0.00888141013 1.18408132
v 0.883806951 -0.00888141013 1.18408132
v -0.82952989 -0.0259993847 1.17700014
v 0.883806951 -0.0259993847 1.17700014
v -0.82952989 -0.0330805612 1.15988217
v 0.883806951 -0.0330805612 1.15988217
v -0.82952989 -0.0259993847 1.14276419
v 0.883806951 -0.0259993847 1.14276419
v -0.82952989 -0.00888141013 1.13568302
v 0.883806951 -0.00888141013 1.13568302
v 0.883806951 -0.00888141013 1.45162664
v -0.82952989 0.00817498896 1.45870782
v -0.82952989 -0.00888141013 1.45162664
v 0.883806951 0.00817498896 1.45870782
v -0.82952989 0.0153177409 1.47582579
v 0.883806951 0.0153177409 1.47582579
v -0.82952989 0.00817498896 1.49294377
v 0.883806951 0.00817498896 1.49294377
v -0.82952989 -0.00888141013 1.50002494
v 0.883806951 -0.00888141013 1.50002494
v -0.82952989 -0.0259993847 1.49294377
v 0.883806951 -0.0259993847 1.49294377
v -0.82952989 -0.0330805612 1.47582579
v 0.883806951 -0.0330805612 1.47582579
v -0.82952989 -0.0259993847 1.45870782
v 0.883806951 -0.0259993847 1.45870782
v -0.82952989 -0.00888141013 1.45162664
v 0.883806951 -0.00888141013 1.45162664
v 0.883806951 -0.00888141013 1.76757026
v -0.82952989 0.00817498896 1.77465144
v -0.82952989 -0.00888141013 1.76757026
v 0.883806951 0.00817498896 1.77465144
v -0.82952989 0.0153177409 1.79176942
v 0.883806951 0.0153177409 1.79176942
v -0.82952989 0.00817498896 1.80888739
v 0.883806951 0.00817498896 1.80888739
v -0.82952989 -0.00888141013 1.81596857
v 0.883806951 -0.00888141013 1.81596857
v -0.82952989 -0.0259993847 1.80888739
v 0.883806951 -0.0259993847 1.80888739
v -0.82952989 -0.0330805612 1.79176942
v 0.883806951 -0.0330805612 1.79176942
v -0.82952989 -0.0259993847 1.77465144
v 0.883806951 -0.0259993847 1.77465144
v -0.82952989 -0.00888141013 1.76757026
v 0.883806951 -0.00888141013 1.76757026
v 0.883806951 -0.00888141013 2.08351389
v -0.82952989 0.00817498896 2.09059506
v -0.82952989 -0.00888141013 2.08351389
v 0.883806951 0.00817498896 2.09059506
v -0.82952989 0.0152561655 2.10771304
v 0.883806951 0.0153177409 2.10771304
v -0.82952989 0.00817498896 2.12476944
v 0.883806951 0.00817498896 2.12476944
v -0.82952989 -0.00888141013 2.13185062
v 0.883806951 -0.00888141013 2.13185062
v -0.82952989 -0.0259993847 2.12476944
v 0.883806951 -0.0259993847 2.12476944
v -0.82952989 -0.0330805612 2.10771304
v 0.883806951 -0.0330805612 2.10771304
v -0.82952989 -0.0259993847 2.09059506
v 0.883806951 -0.0259993847 2.09059506
v -0.82952989 -0.00888141013 2.08351389
v 0.883806951 -0.00888141013 2.08351389
v 0.883806951 -0.00888141013 2.39939594
v -0.82952989 0.00817498896 2.40653869
v -0.82952989 -0.00888141013 2.39939594
v 0.883806951 0.00817498896 2.40653869
v -0.82952989 0.0153177409 2.42359509
v 0.883806951 0.0153177409 2.42359509
v -0.82952989 0.00817498896 2.44071306
v 0.883806951 0.00817498896 2.44071306
v -0.82952989 -0.00888141013 2.44779424
v 0.883806951 -0.00888141013 2.44779424
v -0.82952989 -0.0259993847 2.44071306
v 0.883806951 -0.0259993847 2.44071306
v -0.82952989 -0.0330805612 2.42359509
v 0.883806951 -0.0330805612 2.42359509
v -0.82952989 -0.0259993847 2.40653869
v 0.883806951 -0.0259993847 2.40653869
v -0.82952989 -0.00888141013 2.39939594
v 0.883806951 -0.00888141013 2.39939594
v 0.847477436 -0.00955874006 2.71152188
v -0.831869757 0.018211787 2.71891094
v -0.831869757 -0.00955874006 2.71152188
v 0.847477436 0.018211787 2.71891094
v -0.831869757 0.0385316848 2.73923083
v 0.847477436 0.0385316848 2.73923083
v -0.831869757 0.045982314 2.76700136
v 0.847477436 0.045982314 2.76700136
v -0.831869757 0.0385316848 2.79477189
v 0.847477436 0.0385316848 2.79477189
v -0.831869757 0.018211787 2.81509179
v 0.847477436 0.018211787 2.81509179
v -0.831869757 -0.00955874006 2.82254242
v 0.847477436 -0.00955874006 2.82254242
v -0.831869757 -0.0373292671 2.81509179
v 0.847477436 -0.0373292671 2.81509179
v -0.831869757 -0.057649165 2.79477189
v 0.847477436 -0.057649165 2.79477189
v -0.831869757 -0.0650382187 2.76700136
v 0.847477436 -0.0650382187 2.76700136
v -0.831869757 -0.057649165 2.73923083
v 0.847477436 -0.057649165 2.73923083
v -0.831869757 -0.0373292671 2.71891094
v 0.847477436 -0.0373292671 2.71891094
v -0.831869757 -0.00955874006 2.71152188
v 0.847477436 -0.00955874006 2.71152188
v -0.0370538741 0.0878536187 0.0102685542
v 1.45456206E-05 0.0992450766 0.0327435927
v -0.0371154495 0.116486202 0.0220910402
v 1.45456206E-05 0.0730139357 0.0218447384
v 1.45456206E-05 -0.073043027 0.0218447384
v -0.0882846468 0.0974593886 0.00281792499
v -0.0882846468 0.127569783 0.0152561655
v -0.0370538741 -0.0878827099 0.0102685542
v 1.45456206E-05 -0.0992741678 0.0327435927
v -0.0371154495 -0.116515293 0.0220910402
v -0.0882846468 -0.0974269044 0.00281792499
v -0.0882846468 -0.127537298 0.0152561655
v -0.957422095 -0.127537298 0.0152561655
v -0.957422095 -0.0974269044 0.00281792499
v -0.981990699 -0.122057084 0.0207979558
v -0.987532489 -0.0974269044 0.0152561655
v -0.987532489 0.0974593886 0.0152561655
v -0.957422095 0.0974593886 0.00281792499
v -0.957422095 0.127569783 0.0152561655
v -0.981990699 0.122027992 0.0207979558
v 1.45456206E-05 0.0992450766 0.0327435927
v 0.0416395485 0.0885309486 0.00977595061
v 0.0416395485 0.117286683 0.0215984366
v 1.45456206E-05 0.0730139357 0.0218447384
v 0.0933013493 0.0974593886 0.00281792499
v 0.0933013493 0.127569783 0.0152561655
v 0.957389611 0.127569783 0.0152561655
v 0.0416395485 -0.0884984644 0.00977595061
v 1.45456206E-05 -0.073043027 0.0218447384
v 1.45456206E-05 -0.0992741678 0.0327435927
v 0.0416395485 -0.117254199 0.0215984366
v 0.0933013493 -0.0974269044 0.00281792499
v 0.0933013493 -0.127537298 0.0152561655
v 0.957389611 0.0974593886 0.00281792499
v 0.98201979 0.122027992 0.0207979558
v 0.987500005 0.0974593886 0.0152561655
v 0.987500005 -0.0974269044 0.0152561655
v 0.957389611 -0.0974269044 0.00281792499
v 0.957389611 -0.127537298 0.0152561655
v 0.98201979 -0.122057084 0.0207979558
v 1.45456206E-05 0.0992450766 0.0327435927
v 0.0417011239 0.129170744 0.0503541708
v 1.45456206E-05 0.110143931 0.0589747336
v 0.0416395485 0.117286683 0.0215984366
v 1.45456206E-05 0.110143931 0.243023748
v 0.0933013493 0.140008023 0.0453665596
v 0.0933013493 0.127569783 0.0152561655
v 0.0417011239 0.129170744 0.25164431
v 1.45456206E-05 0.0992450766 0.269254888
v 0.957389611 0.140008023 0.0453665596
v 0.957389611 0.127569783 0.0152561655
v 0.98201979 0.122027992 0.0207979558
v 0.987500005 0.127569783 0.0453665596
v 0.0933013493 0.140008023 0.256570346
v 0.957389611 0.140008023 0.256570346
v 0.987500005 0.127569783 0.256570346
v 0.98201979 0.122027992 0.281200525
v 0.0416395485 0.117286683 0.280338469
v 0.957389611 0.127569783 0.286742316
v 0.0933013493 0.127569783 0.286742316
v 0.0416395485 0.0885309486 0.292222531
v 1.45456206E-05 0.0730139357 0.280153743
v 1.45456206E-05 -0.073043027 0.280153743
v 0.957389611 0.0974593886 0.299180556
v 0.0933013493 0.0974593886 0.299180556
v 0.0416395485 -0.0884984644 0.292222531
v 1.45456206E-05 -0.0992741678 0.269254888
v 0.987500005 0.0974593886 0.286742316
v 0.957389611 -0.0974269044 0.299180556
v 0.0933013493 -0.0974269044 0.299180556
v 0.0416395485 -0.117254199 0.280338469
v 0.999999821 0.0974593886 0.256570346
v 0.987500005 0.127569783 0.256570346
v 0.987500005 -0.0974269044 0.286742316
v 0.0417011239 -0.12913826 0.25164431
v 1.45456206E-05 -0.110111447 0.243023748
v 1.45456206E-05 -0.110111447 0.0589747336
v 0.0417011239 -0.12913826 0.0503541708
v 1.45456206E-05 -0.0992741678 0.0327435927
v 0.0416395485 -0.117254199 0.0215984366
v 0.0933013493 -0.140037114 0.256570346
v 0.0933013493 -0.140037114 0.0453665596
v 0.0933013493 -0.127537298 0.0152561655
v 0.957389611 -0.127537298 0.0152561655
v 0.0933013493 -0.127537298 0.286742316
v 0.957389611 -0.140037114 0.256570346
v 0.957389611 -0.140037114 0.0453665596
v 0.98201979 -0.122057084 0.0207979558
v 0.987500005 -0.127537298 0.0453665596
v 0.987500005 -0.127537298 0.256570346
v 0.98201979 -0.122057084 0.281200525
v 0.957389611 -0.127537298 0.286742316
v 0.999999821 -0.0974269044 0.256570346
v 0.987500005 -0.127537298 0.256570346
v 0.987500005 -0.127537298 0.0453665596
v 0.999999821 -0.0974269044 0.0453665596
v 0.98201979 -0.122057084 0.0207979558
v 0.987500005 -0.0974269044 0.0152561655
v 0.987500005 0.0974593886 0.0152561655
v 0.999999821 0.0974593886 0.0453665596
v 0.98201979 0.122027992 0.0207979558
v 0.987500005 0.127569783 0.0453665596
v -0.0370538741 -0.0878827099 0.291729927
v 1.45456206E-05 0.0730139357 0.280153743
v 1.45456206E-05 -0.073043027 0.280153743
v 1.45456206E-05 -0.0992741678 0.269254888
v -0.0370538741 0.0878536187 0.291729927
v 1.45456206E-05 0.0992450766 0.269254888
v -0.0371154495 -0.116515293 0.279907441
v -0.0882846468 -0.0974269044 0.299180556
v -0.0371154495 -0.128337779 0.251274858
v 1.45456206E-05 -0.110111447 0.243023748
v -0.0371154495 -0.128337779 0.0506620481
v 1.45456206E-05 -0.110111447 0.0589747336
v 1.45456206E-05 -0.0992741678 0.0327435927
v -0.0371154495 -0.116515293 0.0220910402
v -0.0882846468 -0.140037114 0.0453665596
v -0.0882846468 -0.127537298 0.0152561655
v -0.0882846468 -0.140037114 0.256570346
v -0.957422095 -0.140037114 0.0453665596
v -0.957422095 -0.127537298 0.0152561655
v -0.981990699 -0.122057084 0.0207979558
v -0.987532489 -0.127537298 0.0453665596
v -0.957422095 -0.140037114 0.256570346
v -0.987532489 -0.127537298 0.256570346
v -0.981990699 -0.122057084 0.281200525
v -0.0882846468 -0.127537298 0.286742316
v -0.957422095 -0.127537298 0.286742316
v -0.957422095 -0.0974269044 0.299180556
v -0.957422095 0.0974593886 0.299180556
v -0.987532489 -0.0974269044 0.286742316
v -0.99997073 -0.0974269044 0.256570346
v -0.987532489 -0.127537298 0.256570346
v -0.0882846468 0.0974593886 0.299180556
v -0.987532489 0.0974593886 0.286742316
v -0.99997073 -0.0974269044 0.0453665596
v -0.987532489 -0.127537298 0.0453665596
v -0.981990699 -0.122057084 0.0207979558
v -0.987532489 -0.0974269044 0.0152561655
v -0.99997073 0.0974593886 0.0453665596
v -0.987532489 0.0974593886 0.0152561655
v -0.981990699 0.122027992 0.0207979558
v -0.987532489 0.127569783 0.0453665596
v -0.99997073 0.0974593886 0.256570346
v -0.987532489 0.127569783 0.256570346
v -0.981990699 0.122027992 0.281200525
v -0.957422095 0.127569783 0.286742316
v -0.957422095 0.140069599 0.256570346
v -0.987532489 0.127569783 0.256570346
v -0.0882846468 0.127569783 0.286742316
v -0.0371154495 0.116486202 0.279907441
v -0.0882846468 0.140008023 0.256570346
v -0.0371154495 0.128370263 0.251274858
v 1.45456206E-05 0.110143931 0.243023748
v 1.45456206E-05 0.110143931 0.0589747336
v -0.0371154495 0.128370263 0.0506620481
v 1.45456206E-05 0.0992450766 0.0327435927
v -0.0371154495 0.116486202 0.0220910402
v -0.0882846468 0.140008023 0.0453665596
v -0.0882846468 0.127569783 0.0152561655
v -0.957422095 0.127569783 0.0152561655
v -0.957422095 0.140069599 0.0453665596
v -0.981990699 0.122027992 0.0207979558
v -0.987532489 0.127569783 0.0453665596
v 0.918227626 -0.0883753135 3.02641872
v 0.957635913 -0.0614668427 3.00628355
v 0.922845785 -0.0963185463 3.00628355
v 0.875247964 -0.0998899223 3.02641872
v 0.875247964 -0.109064664 3.00628355
v 0.949754256 -0.0569102596 3.02641872
v 0.970443606 -0.0138690214 3.00628355
v 0.875247964 -0.0795700244 3.03534716
v 0.908067677 -0.0707647354 3.03534716
v 0.932143677 -0.0467503107 3.03534716
v 0.961268864 -0.0138690214 3.02641872
v 0.957635913 0.0337287999 3.00628355
v 0.832206725 -0.0883753135 3.02641872
v 0.827650142 -0.0963185463 3.00628355
v 0.940948967 -0.0138690214 3.03534716
v 0.949754256 0.0291106413 3.02641872
v 0.922845785 0.068518928 3.00628355
v 0.918227626 0.0606372707 3.02641872
v 0.875247964 0.0813266212 3.00628355
v 0.932143677 0.0189506924 3.03534716
v 0.908067677 0.0430266925 3.03534716
v 0.875247964 0.0721518794 3.02641872
v 0.827650142 0.068518928 3.00628355
v 0.875247964 0.0518319816 3.03534716
v 0.832206725 0.0606372707 3.02641872
v 0.792798439 0.0337287999 3.00628355
v 0.84242825 0.0430266925 3.03534716
v 0.800741671 0.0291106413 3.02641872
v 0.780052321 -0.0138690214 3.00628355
v 0.789227063 -0.0138690214 3.02641872
v 0.792798439 -0.0614668427 3.00628355
v 0.81835225 0.0189506924 3.03534716
v 0.809546961 -0.0138690214 3.03534716
v 0.800741671 -0.0569102596 3.02641872
v 0.84242825 -0.0707647354 3.03534716
v 0.81835225 -0.0467503107 3.03534716
v -0.817768979 -0.0883753135 3.02641872
v -0.778360693 -0.0614668427 3.00628355
v -0.813212396 -0.0963185463 3.00628355
v -0.860748642 -0.0998899223 3.02641872
v -0.860748642 -0.109064664 3.00628355
v -0.786303925 -0.0569102596 3.02641872
v -0.765614575 -0.0138690214 3.00628355
v -0.860748642 -0.0795700244 3.03534716
v -0.827928928 -0.0707647354 3.03534716
v -0.803914504 -0.0467503107 3.03534716
v -0.774727741 -0.0138690214 3.02641872
v -0.778360693 0.0337287999 3.00628355
v -0.90378988 -0.0883753135 3.02641872
v -0.908346463 -0.0963185463 3.00628355
v -0.795109214 -0.0138690214 3.03534716
v -0.786303925 0.0291106413 3.02641872
v -0.813212396 0.068518928 3.00628355
v -0.817768979 0.0606372707 3.02641872
v -0.860748642 0.0813266212 3.00628355
v -0.803914504 0.0189506924 3.03534716
v -0.827928928 0.0430266925 3.03534716
v -0.860748642 0.0721518794 3.02641872
v -0.908346463 0.068518928 3.00628355
v -0.860748642 0.0518319816 3.03534716
v -0.90378988 0.0606372707 3.02641872
v -0.943198167 0.0337287999 3.00628355
v -0.893629931 0.0430266925 3.03534716
v -0.935254934 0.0291106413 3.02641872
v -0.955944285 -0.0138690214 3.00628355
v -0.946769543 -0.0138690214 3.02641872
v -0.943198167 -0.0614668427 3.00628355
v -0.917644356 0.0189506924 3.03534716
v -0.926449645 -0.0138690214 3.03534716
v -0.935254934 -0.0569102596 3.02641872
v -0.893629931 -0.0707647354 3.03534716
v -0.917644356 -0.0467503107 3.03534716
vt 0.882096543 0.400031944
vt 0.886946287 0.12456646
vt 0.882096543 0.12456646
vt 0.886946287 0.400031944
vt 0.890826083 0.12456646
vt 0.890826083 0.400031944
vt 0.894705878 0.12456646
vt 0.894705878 0.400031944
vt 0.899555623 0.12456646
vt 0.899555623 0.400031944
vt 0.903435418 0.12456646
vt 0.903435418 0.400031944
vt 0.907315214 0.12456646
vt 0.907315214 0.400031944
vt 0.912164958 0.12456646
vt 0.912164958 0.400031944
vt 0.916044754 0.12456646
vt 0.916044754 0.400031944
vt 0.920894498 0.12456646
vt 0.920894498 0.400031944
vt 0.924774294 0.12456646
vt 0.924774294 0.400031944
vt 0.928654089 0.12456646
vt 0.928654089 0.400031944
vt 0.933503834 0.12456646
vt 0.933503834 0.400031944
vt 0.995580563 0.12456646
vt 0.991700767 0.400031944
vt 0.995580563 0.400031944
vt 0.991700767 0.12456646
vt 0.986851023 0.400031944
vt 0.986851023 0.12456646
vt 0.982971227 0.400031944
vt 0.982971227 0.12456646
vt 0.978121483 0.400031944
vt 0.978121483 0.12456646
vt 0.974241687 0.400031944
vt 0.974241687 0.12456646
vt 0.970361891 0.400031944
vt 0.970361891 0.12456646
vt 0.965512147 0.400031944
vt 0.965512147 0.12456646
vt 0.961632351 0.400031944
vt 0.961632351 0.12456646
vt 0.956782607 0.400031944
vt 0.956782607 0.12456646
vt 0.952902811 0.400031944
vt 0.952902811 0.12456646
vt 0.949023016 0.400031944
vt 0.949023016 0.12456646
vt 0.944173271 0.400031944
vt 0.944173271 0.12456646
vt 0.1769437 0.0392109573
vt 0.0101124906 0.0363011106
vt 0.0101124906 0.0392109573
vt 0.1769437 0.0363011106
vt 0.0101124906 0.0333912639
vt 0.1769437 0.0333912639
vt 0.0101124906 0.0304814173
vt 0.1769437 0.0304814173
vt 0.0101124906 0.0275715706
vt 0.1769437 0.0275715706
vt 0.0101124906 0.0246617239
vt 0.1769437 0.0246617239
vt 0.0101124906 0.0217518773
vt 0.1769437 0.0217518773
vt 0.0101124906 0.0198119795
vt 0.1769437 0.0198119795
vt 0.0101124906 0.0169021328
vt 0.1769437 0.0169021328
vt 0.0101124906 0.0139922861
vt 0.1769437 0.0139922861
vt 0.0101124906 0.0110824395
vt 0.1769437 0.0110824395
vt 0.0101124906 0.0081725928
vt 0.1769437 0.0081725928
vt 0.0101124906 0.00526274613
vt 0.1769437 0.00526274613
vt 0.195372729 0.204102269
vt 0.196342677 0.00332284835
vt 0.195372729 0.00332284835
vt 0.196342677 0.204102269
vt 0.197312626 0.00332284835
vt 0.197312626 0.204102269
vt 0.198282575 0.00332284835
vt 0.198282575 0.204102269
vt 0.199252524 0.00332284835
vt 0.199252524 0.204102269
vt 0.200222473 0.00332284835
vt 0.200222473 0.204102269
vt 0.201192422 0.00332284835
vt 0.201192422 0.204102269
vt 0.202162371 0.00332284835
vt 0.202162371 0.204102269
vt 0.20313232 0.00332284835
vt 0.20313232 0.204102269
vt 0.223501246 0.00332284835
vt 0.222531297 0.204102269
vt 0.223501246 0.204102269
vt 0.222531297 0.00332284835
vt 0.221561349 0.204102269
vt 0.221561349 0.00332284835
vt 0.2205914 0.204102269
vt 0.2205914 0.00332284835
vt 0.219621451 0.204102269
vt 0.219621451 0.00332284835
vt 0.218651502 0.204102269
vt 0.218651502 0.00332284835
vt 0.217681553 0.204102269
vt 0.217681553 0.00332284835
vt 0.216711604 0.204102269
vt 0.216711604 0.00332284835
vt 0.215741655 0.204102269
vt 0.215741655 0.00332284835
vt 0.242900224 0.00332284835
vt 0.241930275 0.204102269
vt 0.242900224 0.204102269
vt 0.241930275 0.00332284835
vt 0.240960326 0.204102269
vt 0.240960326 0.00332284835
vt 0.239990377 0.204102269
vt 0.239990377 0.00332284835
vt 0.239020429 0.204102269
vt 0.239020429 0.00332284835
vt 0.23805048 0.204102269
vt 0.23805048 0.00332284835
vt 0.237080531 0.204102269
vt 0.237080531 0.00332284835
vt 0.236110582 0.204102269
vt 0.236110582 0.00332284835
vt 0.235140633 0.204102269
vt 0.235140633 0.00332284835
vt 0.262299202 0.00332284835
vt 0.261329253 0.204102269
vt 0.262299202 0.204102269
vt 0.261329253 0.00332284835
vt 0.260359304 0.204102269
vt 0.260359304 0.00332284835
vt 0.259389355 0.204102269
vt 0.259389355 0.00332284835
vt 0.258419406 0.204102269
vt 0.258419406 0.00332284835
vt 0.257449457 0.204102269
vt 0.257449457 0.00332284835
vt 0.256479509 0.204102269
vt 0.256479509 0.00332284835
vt 0.25550956 0.204102269
vt 0.25550956 0.00332284835
vt 0.25550956 0.204102269
vt 0.25550956 0.00332284835
vt 0.28169818 0.00332284835
vt 0.280728231 0.204102269
vt 0.28169818 0.204102269
vt 0.280728231 0.00332284835
vt 0.279758282 0.204102269
vt 0.279758282 0.00332284835
vt 0.278788333 0.204102269
vt 0.278788333 0.00332284835
vt 0.277818384 0.204102269
vt 0.277818384 0.00332284835
vt 0.276848435 0.204102269
vt 0.276848435 0.00332284835
vt 0.275878486 0.204102269
vt 0.275878486 0.00332284835
vt 0.274908537 0.204102269
vt 0.274908537 0.00332284835
vt 0.273938589 0.204102269
vt 0.273938589 0.00332284835
vt 0.302067106 0.00332284835
vt 0.301097158 0.204102269
vt 0.302067106 0.204102269
vt 0.301097158 0.00332284835
vt 0.300127209 0.204102269
vt 0.300127209 0.00332284835
vt 0.29915726 0.204102269
vt 0.29915726 0.00332284835
vt 0.298187311 0.204102269
vt 0.298187311 0.00332284835
vt 0.297217362 0.204102269
vt 0.297217362 0.00332284835
vt 0.296247413 0.204102269
vt 0.296247413 0.00332284835
vt 0.295277464 0.204102269
vt 0.295277464 0.00332284835
vt 0.294307515 0.204102269
vt 0.294307515 0.00332284835
vt 0.322436033 0.00332284835
vt 0.321466084 0.204102269
vt 0.322436033 0.204102269
vt 0.321466084 0.00332284835
vt 0.320496135 0.204102269
vt 0.320496135 0.00332284835
vt 0.319526186 0.204102269
vt 0.319526186 0.00332284835
vt 0.318556238 0.204102269
vt 0.318556238 0.00332284835
vt 0.317586289 0.204102269
vt 0.317586289 0.00332284835
vt 0.31661634 0.204102269
vt 0.31661634 0.00332284835
vt 0.315646391 0.204102269
vt 0.315646391 0.00332284835
vt 0.314676442 0.204102269
vt 0.314676442 0.00332284835
vt 0.180823495 0.0586099351
vt 0.0101124906 0.0566700373
vt 0.0101124906 0.0586099351
vt 0.180823495 0.0566700373
vt 0.0101124906 0.0547301395
vt 0.180823495 0.0547301395
vt 0.0101124906 0.0537601906
vt 0.180823495 0.0537601906
vt 0.0101124906 0.0518202928
vt 0.180823495 0.0518202928
vt 0.0101124906 0.0498803951
vt 0.180823495 0.0498803951
vt 0.0101124906 0.0479404973
vt 0.180823495 0.0479404973
vt 0.0101124906 0.0460005995
vt 0.180823495 0.0460005995
vt 0.0101124906 0.0440607017
vt 0.180823495 0.0440607017
vt 0.180823495 0.0789788618
vt 0.0101124906 0.077038964
vt 0.0101124906 0.0789788618
vt 0.180823495 0.077038964
vt 0.0101124906 0.0750990662
vt 0.180823495 0.0750990662
vt 0.0101124906 0.0731591684
vt 0.180823495 0.0731591684
vt 0.0101124906 0.0712192706
vt 0.180823495 0.0712192706
vt 0.0101124906 0.0692793729
vt 0.180823495 0.0692793729
vt 0.0101124906 0.0673394751
vt 0.180823495 0.0673394751
vt 0.0101124906 0.0653995773
vt 0.180823495 0.0653995773
vt 0.0101124906 0.0634596795
vt 0.180823495 0.0634596795
vt 0.180823495 0.0993477884
vt 0.0101124906 0.0974078907
vt 0.0101124906 0.0993477884
vt 0.180823495 0.0974078907
vt 0.0101124906 0.0954679929
vt 0.180823495 0.0954679929
vt 0.0101124906 0.0935280951
vt 0.180823495 0.0935280951
vt 0.0101124906 0.0915881973
vt 0.180823495 0.0915881973
vt 0.0101124906 0.0896482995
vt 0.180823495 0.0896482995
vt 0.0101124906 0.0877084018
vt 0.180823495 0.0877084018
vt 0.0101124906 0.085768504
vt 0.180823495 0.085768504
vt 0.0101124906 0.0838286062
vt 0.180823495 0.0838286062
vt 0.180823495 0.118746766
vt 0.0101124906 0.116806868
vt 0.0101124906 0.118746766
vt 0.180823495 0.116806868
vt 0.0101124906 0.114866971
vt 0.180823495 0.114866971
vt 0.0101124906 0.112927073
vt 0.180823495 0.112927073
vt 0.0101124906 0.110987175
vt 0.180823495 0.110987175
vt 0.0101124906 0.109047277
vt 0.180823495 0.109047277
vt 0.0101124906 0.108077328
vt 0.180823495 0.108077328
vt 0.0101124906 0.106137431
vt 0.180823495 0.106137431
vt 0.0101124906 0.104197533
vt 0.180823495 0.104197533
vt 0.180823495 0.139115693
vt 0.0101124906 0.137175795
vt 0.0101124906 0.139115693
vt 0.180823495 0.137175795
vt 0.0101124906 0.135235897
vt 0.180823495 0.135235897
vt 0.0101124906 0.133296
vt 0.180823495 0.133296
vt 0.0101124906 0.131356102
vt 0.180823495 0.131356102
vt 0.0101124906 0.129416204
vt 0.180823495 0.129416204
vt 0.0101124906 0.127476306
vt 0.180823495 0.127476306
vt 0.0101124906 0.126506357
vt 0.180823495 0.126506357
vt 0.0101124906 0.12456646
vt 0.180823495 0.12456646
vt 0.180823495 0.157544722
vt 0.0101124906 0.156574773
vt 0.0101124906 0.157544722
vt 0.180823495 0.156574773
vt 0.0101124906 0.154634875
vt 0.180823495 0.154634875
vt 0.0101124906 0.152694977
vt 0.180823495 0.152694977
vt 0.0101124906 0.15075508
vt 0.180823495 0.15075508
vt 0.0101124906 0.148815182
vt 0.180823495 0.148815182
vt 0.0101124906 0.146875284
vt 0.180823495 0.146875284
vt 0.0101124906 0.144935386
vt 0.180823495 0.144935386
vt 0.0101124906 0.142995488
vt 0.180823495 0.142995488
vt 0.1769437 0.198282575
vt 0.0101124906 0.195372729
vt 0.0101124906 0.198282575
vt 0.1769437 0.195372729
vt 0.0101124906 0.192462882
vt 0.1769437 0.192462882
vt 0.0101124906 0.189553035
vt 0.1769437 0.189553035
vt 0.0101124906 0.186643189
vt 0.1769437 0.186643189
vt 0.0101124906 0.183733342
vt 0.1769437 0.183733342
vt 0.0101124906 0.180823495
vt 0.1769437 0.180823495
vt 0.0101124906 0.177913649
vt 0.1769437 0.177913649
vt 0.0101124906 0.175003802
vt 0.1769437 0.175003802
vt 0.0101124906 0.172093955
vt 0.1769437 0.172093955
vt 0.0101124906 0.169184109
vt 0.1769437 0.169184109
vt 0.0101124906 0.166274262
vt 0.1769437 0.166274262
vt 0.0101124906 0.163364415
vt 0.1769437 0.163364415
vt 0.0702493217 0.248719917
vt 0.068309424 0.249689866
vt 0.0702493217 0.250659815
vt 0.068309424 0.247749969
vt 0.068309424 0.241930275
vt 0.0731591684 0.249689866
vt 0.0731591684 0.250659815
vt 0.0702493217 0.240960326
vt 0.068309424 0.239990377
vt 0.0702493217 0.239020429
vt 0.0731591684 0.240960326
vt 0.0731591684 0.239020429
vt 0.111957124 0.239020429
vt 0.111957124 0.240960326
vt 0.112927073 0.239020429
vt 0.113897022 0.239990377
vt 0.113897022 0.249689866
vt 0.111957124 0.249689866
vt 0.111957124 0.250659815
vt 0.112927073 0.250659815
vt 0.0673394751 0.249689866
vt 0.0653995773 0.248719917
vt 0.0653995773 0.250659815
vt 0.0673394751 0.247749969
vt 0.0624897306 0.249689866
vt 0.0624897306 0.250659815
vt 0.023691775 0.250659815
vt 0.0653995773 0.240960326
vt 0.0673394751 0.241930275
vt 0.0673394751 0.239990377
vt 0.0653995773 0.239020429
vt 0.0624897306 0.240960326
vt 0.0624897306 0.239020429
vt 0.023691775 0.249689866
vt 0.0227218261 0.250659815
vt 0.0217518773 0.249689866
vt 0.0217518773 0.239990377
vt 0.023691775 0.240960326
vt 0.023691775 0.239020429
vt 0.0227218261 0.239020429
vt 0.376753171 0.382572864
vt 0.374813273 0.376753171
vt 0.373843324 0.381602915
vt 0.37772312 0.37772312
vt 0.354444346 0.381602915
vt 0.375783222 0.371903426
vt 0.378693069 0.371903426
vt 0.354444346 0.376753171
vt 0.350564551 0.380632966
vt 0.375783222 0.285577975
vt 0.379663018 0.285577975
vt 0.378693069 0.282668129
vt 0.375783222 0.282668129
vt 0.354444346 0.371903426
vt 0.354444346 0.285577975
vt 0.354444346 0.282668129
vt 0.3515345 0.282668129
vt 0.3515345 0.376753171
vt 0.3515345 0.285577975
vt 0.3515345 0.371903426
vt 0.347654704 0.376753171
vt 0.346684755 0.380632966
vt 0.331165573 0.381602915
vt 0.348624653 0.285577975
vt 0.348624653 0.371903426
vt 0.329225675 0.376753171
vt 0.327285778 0.380632966
vt 0.348624653 0.282668129
vt 0.329225675 0.285577975
vt 0.329225675 0.371903426
vt 0.326315829 0.376753171
vt 0.348624653 0.279758282
vt 0.3515345 0.279758282
vt 0.329225675 0.282668129
vt 0.323405982 0.376753171
vt 0.323405982 0.381602915
vt 0.304007004 0.381602915
vt 0.303037055 0.37772312
vt 0.301097158 0.382572864
vt 0.300127209 0.37772312
vt 0.323405982 0.371903426
vt 0.302067106 0.371903426
vt 0.29915726 0.371903426
vt 0.298187311 0.285577975
vt 0.326315829 0.371903426
vt 0.322436033 0.285577975
vt 0.302067106 0.285577975
vt 0.29915726 0.282668129
vt 0.301097158 0.282668129
vt 0.323405982 0.282668129
vt 0.326315829 0.282668129
vt 0.326315829 0.285577975
vt 0.329225675 0.279758282
vt 0.32534588 0.279758282
vt 0.32534588 0.258419406
vt 0.329225675 0.258419406
vt 0.326315829 0.25550956
vt 0.329225675 0.25550956
vt 0.348624653 0.25550956
vt 0.348624653 0.258419406
vt 0.3515345 0.25550956
vt 0.3515345 0.258419406
vt 0.330195624 0.394212251
vt 0.346684755 0.390332455
vt 0.331165573 0.390332455
vt 0.327285778 0.390332455
vt 0.347654704 0.394212251
vt 0.350564551 0.390332455
vt 0.326315829 0.3951822
vt 0.329225675 0.400031944
vt 0.323405982 0.394212251
vt 0.323405982 0.390332455
vt 0.303037055 0.394212251
vt 0.304007004 0.390332455
vt 0.301097158 0.389362506
vt 0.300127209 0.393242302
vt 0.302067106 0.399061995
vt 0.29915726 0.399061995
vt 0.323405982 0.400031944
vt 0.302067106 0.486357395
vt 0.298187311 0.486357395
vt 0.29915726 0.489267242
vt 0.302067106 0.489267242
vt 0.322436033 0.486357395
vt 0.323405982 0.489267242
vt 0.326315829 0.489267242
vt 0.326315829 0.400031944
vt 0.326315829 0.486357395
vt 0.329225675 0.486357395
vt 0.348624653 0.486357395
vt 0.329225675 0.489267242
vt 0.329225675 0.492177089
vt 0.32534588 0.492177089
vt 0.348624653 0.400031944
vt 0.348624653 0.489267242
vt 0.329225675 0.513515964
vt 0.326315829 0.513515964
vt 0.326315829 0.516425811
vt 0.329225675 0.516425811
vt 0.348624653 0.513515964
vt 0.348624653 0.516425811
vt 0.3515345 0.516425811
vt 0.3515345 0.513515964
vt 0.348624653 0.492177089
vt 0.3515345 0.492177089
vt 0.3515345 0.489267242
vt 0.3515345 0.486357395
vt 0.354444346 0.486357395
vt 0.354444346 0.489267242
vt 0.3515345 0.400031944
vt 0.3515345 0.3951822
vt 0.354444346 0.400031944
vt 0.354444346 0.394212251
vt 0.354444346 0.390332455
vt 0.373843324 0.390332455
vt 0.374813273 0.394212251
vt 0.376753171 0.389362506
vt 0.37772312 0.393242302
vt 0.375783222 0.399061995
vt 0.378693069 0.399061995
vt 0.379663018 0.486357395
vt 0.375783222 0.486357395
vt 0.378693069 0.489267242
vt 0.375783222 0.489267242
vt 0.263269151 0.275878486
vt 0.268118895 0.277818384
vt 0.2642391 0.273938589
vt 0.258419406 0.273938589
vt 0.258419406 0.271998691
vt 0.266178997 0.278788333
vt 0.269088844 0.283638078
vt 0.258419406 0.276848435
vt 0.261329253 0.277818384
vt 0.2642391 0.279758282
vt 0.267148946 0.283638078
vt 0.267148946 0.288487822
vt 0.254539611 0.274908537
vt 0.253569662 0.27296864
vt 0.265209049 0.283638078
vt 0.265209049 0.287517873
vt 0.263269151 0.292367618
vt 0.262299202 0.29042772
vt 0.257449457 0.293337566
vt 0.2642391 0.286547924
vt 0.261329253 0.288487822
vt 0.258419406 0.291397669
vt 0.252599713 0.292367618
vt 0.258419406 0.289457771
vt 0.253569662 0.29042772
vt 0.248719917 0.287517873
vt 0.254539611 0.288487822
vt 0.250659815 0.286547924
vt 0.247749969 0.282668129
vt 0.249689866 0.282668129
vt 0.248719917 0.276848435
vt 0.252599713 0.285577975
vt 0.251629764 0.282668129
vt 0.250659815 0.278788333
vt 0.25550956 0.276848435
vt 0.252599713 0.279758282
vt 0.263269151 0.215741655
vt 0.268118895 0.217681553
vt 0.2642391 0.213801757
vt 0.258419406 0.214771706
vt 0.258419406 0.21186186
vt 0.266178997 0.218651502
vt 0.269088844 0.223501246
vt 0.258419406 0.216711604
vt 0.261329253 0.217681553
vt 0.2642391 0.219621451
vt 0.267148946 0.223501246
vt 0.267148946 0.228350991
vt 0.254539611 0.215741655
vt 0.253569662 0.213801757
vt 0.2642391 0.223501246
vt 0.265209049 0.227381042
vt 0.263269151 0.232230786
vt 0.262299202 0.230290889
vt 0.257449457 0.234170684
vt 0.263269151 0.226411093
vt 0.261329253 0.228350991
vt 0.257449457 0.231260837
vt 0.252599713 0.232230786
vt 0.257449457 0.22932094
vt 0.253569662 0.230290889
vt 0.248719917 0.228350991
vt 0.254539611 0.228350991
vt 0.250659815 0.227381042
vt 0.247749969 0.222531297
vt 0.249689866 0.222531297
vt 0.248719917 0.217681553
vt 0.252599713 0.226411093
vt 0.251629764 0.222531297
vt 0.250659815 0.218651502
vt 0.25550956 0.217681553
vt 0.252599713 0.219621451
g Wang_01Wang_01_mobile_0
f 3/3/3 2/2/2 1/1/1
f 4/4/4 1/1/1 2/2/2
f 2/2/2 5/5/5 4/4/4
f 6/6/6 4/4/4 5/5/5
f 5/5/5 7/7/7 6/6/6
f 8/8/8 6/6/6 7/7/7
f 7/7/7 9/9/9 8/8/8
f 10/10/10 8/8/8 9/9/9
f 9/9/9 11/11/11 10/10/10
f 12/12/12 10/10/10 11/11/11
f 11/11/11 13/13/13 12/12/12
f 14/14/14 12/12/12 13/13/13
f 13/13/13 15/15/15 14/14/14
f 16/16/16 14/14/14 15/15/15
f 15/15/15 17/17/17 16/16/16
f 18/18/18 16/16/16 17/17/17
f 17/17/17 19/19/19 18/18/18
f 20/20/20 18/18/18 19/19/19
f 19/19/19 21/21/21 20/20/20
f 22/22/22 20/20/20 21/21/21
f 21/21/21 23/23/23 22/22/22
f 24/24/24 22/22/22 23/23/23
f 23/23/23 25/25/25 24/24/24
f 26/26/26 24/24/24 25/25/25
f 29/29/29 28/28/28 27/27/27
f 30/30/30 27/27/27 28/28/28
f 28/28/28 31/31/31 30/30/30
f 32/32/32 30/30/30 31/31/31
f 31/31/31 33/33/33 32/32/32
f 34/34/34 32/32/32 33/33/33
f 33/33/33 35/35/35 34/34/34
f 36/36/36 34/34/34 35/35/35
f 35/35/35 37/37/37 36/36/36
f 38/38/38 36/36/36 37/37/37
f 37/37/37 39/39/39 38/38/38
f 40/40/40 38/38/38 39/39/39
f 39/39/39 41/41/41 40/40/40
f 42/42/42 40/40/40 41/41/41
f 41/41/41 43/43/43 42/42/42
f 44/44/44 42/42/42 43/43/43
f 43/43/43 45/45/45 44/44/44
f 46/46/46 44/44/44 45/45/45
f 45/45/45 47/47/47 46/46/46
f 48/48/48 46/46/46 47/47/47
f 47/47/47 49/49/49 48/48/48
f 50/50/50 48/48/48 49/49/49
f 49/49/49 51/51/51 50/50/50
f 52/52/52 50/50/50 51/51/51
f 55/55/55 54/54/54 53/53/53
f 56/56/56 53/53/53 54/54/54
f 54/54/54 57/57/57 56/56/56
f 58/58/58 56/56/56 57/57/57
f 57/57/57 59/59/59 58/58/58
f 60/60/60 58/58/58 59/59/59
f 59/59/59 61/61/61 60/60/60
f 62/62/62 60/60/60 61/61/61
f 61/61/61 63/63/63 62/62/62
f 64/64/64 62/62/62 63/63/63
f 63/63/63 65/65/65 64/64/64
f 66/66/66 64/64/64 65/65/65
f 65/65/65 67/67/67 66/66/66
f 68/68/68 66/66/66 67/67/67
f 67/67/67 69/69/69 68/68/68
f 70/70/70 68/68/68 69/69/69
f 69/69/69 71/71/71 70/70/70
f 72/72/72 70/70/70 71/71/71
f 71/71/71 73/73/73 72/72/72
f 74/74/74 72/72/72 73/73/73
f 73/73/73 75/75/75 74/74/74
f 76/76/76 74/74/74 75/75/75
f 75/75/75 77/77/77 76/76/76
f 78/78/78 76/76/76 77/77/77
f 81/81/81 80/80/80 79/79/79
f 82/82/82 79/79/79 80/80/80
f 80/80/80 83/83/83 82/82/82
f 84/84/84 82/82/82 83/83/83
f 83/83/83 85/85/85 84/84/84
f 86/86/86 84/84/84 85/85/85
f 85/85/85 87/87/87 86/86/86
f 88/88/88 86/86/86 87/87/87
f 87/87/87 89/89/89 88/88/88
f 90/90/90 88/88/88 89/89/89
f 89/89/89 91/91/91 90/90/90
f 92/92/92 90/90/90 91/91/91
f 91/91/91 93/93/93 92/92/92
f 94/94/94 92/92/92 93/93/93
f 93/93/93 95/95/95 94/94/94
f 96/96/96 94/94/94 95/95/95
f 99/99/99 98/98/98 97/97/97
f 100/100/100 97/97/97 98/98/98
f 98/98/98 101/101/101 100/100/100
f 102/102/102 100/100/100 101/101/101
f 101/101/101 103/103/103 102/102/102
f 104/104/104 102/102/102 103/103/103
f 103/103/103 105/105/105 104/104/104
f 106/106/106 104/104/104 105/105/105
f 105/105/105 107/107/107 106/106/106
f 108/108/108 106/106/106 107/107/107
f 107/107/107 109/109/109 108/108/108
f 110/110/110 108/108/108 109/109/109
f 109/109/109 111/111/111 110/110/110
f 112/112/112 110/110/110 111/111/111
f 111/111/111 113/113/113 112/112/112
f 114/114/114 112/112/112 113/113/113
f 117/117/117 116/116/116 115/115/115
f 118/118/118 115/115/115 116/116/116
f 116/116/116 119/119/119 118/118/118
f 120/120/120 118/118/118 119/119/119
f 119/119/119 121/121/121 120/120/120
f 122/122/122 120/120/120 121/121/121
f 121/121/121 123/123/123 122/122/122
f 124/124/124 122/122/122 123/123/123
f 123/123/123 125/125/125 124/124/124
f 126/126/126 124/124/124 125/125/125
f 125/125/125 127/127/127 126/126/126
f 128/128/128 126/126/126 127/127/127
f 127/127/127 129/129/129 128/128/128
f 130/130/130 128/128/128 129/129/129
f 129/129/129 131/131/131 130/130/130
f 132/132/132 130/130/130 131/131/131
f 135/135/135 134/134/134 133/133/133
f 136/136/136 133/133/133 134/134/134
f 134/134/134 137/137/137 136/136/136
f 138/138/138 136/136/136 137/137/137
f 137/137/137 139/139/139 138/138/138
f 140/140/140 138/138/138 139/139/139
f 139/139/139 141/141/141 140/140/140
f 142/142/142 140/140/140 141/141/141
f 141/141/141 143/143/143 142/142/142
f 144/144/144 142/142/142 143/143/143
f 143/143/143 145/145/145 144/144/144
f 146/146/146 144/144/144 145/145/145
f 145/145/145 147/147/147 146/146/146
f 148/148/148 146/146/146 147/147/147
f 147/147/147 149/149/149 148/148/148
f 150/150/150 148/148/148 149/149/149
f 153/153/153 152/152/152 151/151/151
f 154/154/154 151/151/151 152/152/152
f 152/152/152 155/155/155 154/154/154
f 156/156/156 154/154/154 155/155/155
f 155/155/155 157/157/157 156/156/156
f 158/158/158 156/156/156 157/157/157
f 157/157/157 159/159/159 158/158/158
f 160/160/160 158/158/158 159/159/159
f 159/159/159 161/161/161 160/160/160
f 162/162/162 160/160/160 161/161/161
f 161/161/161 163/163/163 162/162/162
f 164/164/164 162/162/162 163/163/163
f 163/163/163 165/165/165 164/164/164
f 166/166/166 164/164/164 165/165/165
f 165/165/165 167/167/167 166/166/166
f 168/168/168 166/166/166 167/167/167
f 171/171/171 170/170/170 169/169/169
f 172/172/172 169/169/169 170/170/170
f 170/170/170 173/173/173 172/172/172
f 174/174/174 172/172/172 173/173/173
f 173/173/173 175/175/175 174/174/174
f 176/176/176 174/174/174 175/175/175
f 175/175/175 177/177/177 176/176/176
f 178/178/178 176/176/176 177/177/177
f 177/177/177 179/179/179 178/178/178
f 180/180/180 178/178/178 179/179/179
f 179/179/179 181/181/181 180/180/180
f 182/182/182 180/180/180 181/181/181
f 181/181/181 183/183/183 182/182/182
f 184/184/184 182/182/182 183/183/183
f 183/183/183 185/185/185 184/184/184
f 186/186/186 184/184/184 185/185/185
f 189/189/189 188/188/188 187/187/187
f 190/190/190 187/187/187 188/188/188
f 188/188/188 191/191/191 190/190/190
f 192/192/192 190/190/190 191/191/191
f 191/191/191 193/193/193 192/192/192
f 194/194/194 192/192/192 193/193/193
f 193/193/193 195/195/195 194/194/194
f 196/196/196 194/194/194 195/195/195
f 195/195/195 197/197/197 196/196/196
f 198/198/198 196/196/196 197/197/197
f 197/197/197 199/199/199 198/198/198
f 200/200/200 198/198/198 199/199/199
f 199/199/199 201/201/201 200/200/200
f 202/202/202 200/200/200 201/201/201
f 201/201/201 203/203/203 202/202/202
f 204/204/204 202/202/202 203/203/203
f 207/207/207 206/206/206 205/205/205
f 208/208/208 205/205/205 206/206/206
f 206/206/206 209/209/209 208/208/208
f 210/210/210 208/208/208 209/209/209
f 209/209/209 211/211/211 210/210/210
f 212/212/212 210/210/210 211/211/211
f 211/211/211 213/213/213 212/212/212
f 214/214/214 212/212/212 213/213/213
f 213/213/213 215/215/215 214/214/214
f 216/216/216 214/214/214 215/215/215
f 215/215/215 217/217/217 216/216/216
f 218/218/218 216/216/216 217/217/217
f 217/217/217 219/219/219 218/218/218
f 220/220/220 218/218/218 219/219/219
f 219/219/219 221/221/221 220/220/220
f 222/222/222 220/220/220 221/221/221
f 225/225/225 224/224/224 223/223/223
f 226/226/226 223/223/223 224/224/224
f 224/224/224 227/227/227 226/226/226
f 228/228/228 226/226/226 227/227/227
f 227/227/227 229/229/229 228/228/228
f 230/230/230 228/228/228 229/229/229
f 229/229/229 231/231/231 230/230/230
f 232/232/232 230/230/230 231/231/231
f 231/231/231 233/233/233 232/232/232
f 234/234/234 232/232/232 233/233/233
f 233/233/233 235/235/235 234/234/234
f 236/236/236 234/234/234 235/235/235
f 235/235/235 237/237/237 236/236/236
f 238/238/238 236/236/236 237/237/237
f 237/237/237 239/239/239 238/238/238
f 240/240/240 238/238/238 239/239/239
f 243/243/243 242/242/242 241/241/241
f 244/244/244 241/241/241 242/242/242
f 242/242/242 245/245/245 244/244/244
f 246/246/246 244/244/244 245/245/245
f 245/245/245 247/247/247 246/246/246
f 248/248/248 246/246/246 247/247/247
f 247/247/247 249/249/249 248/248/248
f 250/250/250 248/248/248 249/249/249
f 249/249/249 251/251/251 250/250/250
f 252/252/252 250/250/250 251/251/251
f 251/251/251 253/253/253 252/252/252
f 254/254/254 252/252/252 253/253/253
f 253/253/253 255/255/255 254/254/254
f 256/256/256 254/254/254 255/255/255
f 255/255/255 257/257/257 256/256/256
f 258/258/258 256/256/256 257/257/257
f 261/261/261 260/260/260 259/259/259
f 262/262/262 259/259/259 260/260/260
f 260/260/260 263/263/263 262/262/262
f 264/264/264 262/262/262 263/263/263
f 263/263/263 265/265/265 264/264/264
f 266/266/266 264/264/264 265/265/265
f 265/265/265 267/267/267 266/266/266
f 268/268/268 266/266/266 267/267/267
f 267/267/267 269/269/269 268/268/268
f 270/270/270 268/268/268 269/269/269
f 269/269/269 271/271/271 270/270/270
f 272/272/272 270/270/270 271/271/271
f 271/271/271 273/273/273 272/272/272
f 274/274/274 272/272/272 273/273/273
f 273/273/273 275/275/275 274/274/274
f 276/276/276 274/274/274 275/275/275
f 279/279/279 278/278/278 277/277/277
f 280/280/280 277/277/277 278/278/278
f 278/278/278 281/281/281 280/280/280
f 282/282/282 280/280/280 281/281/281
f 281/281/281 283/283/283 282/282/282
f 284/284/284 282/282/282 283/283/283
f 283/283/283 285/285/285 284/284/284
f 286/286/286 284/284/284 285/285/285
f 285/285/285 287/287/287 286/286/286
f 288/288/288 286/286/286 287/287/287
f 287/287/287 289/289/289 288/288/288
f 290/290/290 288/288/288 289/289/289
f 289/289/289 291/291/291 290/290/290
f 292/292/292 290/290/290 291/291/291
f 291/291/291 293/293/293 292/292/292
f 294/294/294 292/292/292 293/293/293
f 297/297/297 296/296/296 295/295/295
f 298/298/298 295/295/295 296/296/296
f 296/296/296 299/299/299 298/298/298
f 300/300/300 298/298/298 299/299/299
f 299/299/299 301/301/301 300/300/300
f 302/302/302 300/300/300 301/301/301
f 301/301/301 303/303/303 302/302/302
f 304/304/304 302/302/302 303/303/303
f 303/303/303 305/305/305 304/304/304
f 306/306/306 304/304/304 305/305/305
f 305/305/305 307/307/307 306/306/306
f 308/308/308 306/306/306 307/307/307
f 307/307/307 309/309/309 308/308/308
f 310/310/310 308/308/308 309/309/309
f 309/309/309 311/311/311 310/310/310
f 312/312/312 310/310/310 311/311/311
f 315/315/315 314/314/314 313/313/313
f 316/316/316 313/313/313 314/314/314
f 314/314/314 317/317/317 316/316/316
f 318/318/318 316/316/316 317/317/317
f 317/317/317 319/319/319 318/318/318
f 320/320/320 318/318/318 319/319/319
f 319/319/319 321/321/321 320/320/320
f 322/322/322 320/320/320 321/321/321
f 321/321/321 323/323/323 322/322/322
f 324/324/324 322/322/322 323/323/323
f 323/323/323 325/325/325 324/324/324
f 326/326/326 324/324/324 325/325/325
f 325/325/325 327/327/327 326/326/326
f 328/328/328 326/326/326 327/327/327
f 327/327/327 329/329/329 328/328/328
f 330/330/330 328/328/328 329/329/329
f 329/329/329 331/331/331 330/330/330
f 332/332/332 330/330/330 331/331/331
f 331/331/331 333/333/333 332/332/332
f 334/334/334 332/332/332 333/333/333
f 333/333/333 335/335/335 334/334/334
f 336/336/336 334/334/334 335/335/335
f 335/335/335 337/337/337 336/336/336
f 338/338/338 336/336/336 337/337/337
f 341/341/341 340/340/340 339/339/339
f 342/342/342 339/339/339 340/340/340
f 342/342/342 343/343/343 339/339/339
f 339/339/339 344/344/344 341/341/341
f 345/345/345 341/341/341 344/344/344
f 346/346/346 339/339/339 343/343/343
f 339/339/339 346/346/346 344/344/344
f 343/343/343 347/347/347 346/346/346
f 348/348/348 346/346/346 347/347/347
f 346/346/346 348/348/348 349/349/349
f 349/349/349 344/344/344 346/346/346
f 350/350/350 349/349/349 348/348/348
f 350/350/350 351/351/351 349/349/349
f 352/352/352 349/349/349 351/351/351
f 349/349/349 352/352/352 344/344/344
f 351/351/351 353/353/353 352/352/352
f 354/354/354 352/352/352 353/353/353
f 354/354/354 355/355/355 352/352/352
f 344/344/344 356/356/356 345/345/345
f 356/356/356 344/344/344 352/352/352
f 356/356/356 352/352/352 355/355/355
f 357/357/357 345/345/345 356/356/356
f 355/355/355 358/358/358 356/356/356
f 357/357/357 356/356/356 358/358/358
f 361/361/361 360/360/360 359/359/359
f 362/362/362 359/359/359 360/360/360
f 360/360/360 361/361/361 363/363/363
f 364/364/364 363/363/363 361/361/361
f 364/364/364 365/365/365 363/363/363
f 360/360/360 366/366/366 362/362/362
f 367/367/367 362/362/362 366/366/366
f 367/367/367 366/366/366 368/368/368
f 369/369/369 368/368/368 366/366/366
f 366/366/366 360/360/360 370/370/370
f 366/366/366 370/370/370 369/369/369
f 363/363/363 370/370/370 360/360/360
f 371/371/371 369/369/369 370/370/370
f 372/372/372 363/363/363 365/365/365
f 363/363/363 372/372/372 370/370/370
f 365/365/365 373/373/373 372/372/372
f 374/374/374 372/372/372 373/373/373
f 374/374/374 375/375/375 372/372/372
f 370/370/370 376/376/376 371/371/371
f 376/376/376 370/370/370 372/372/372
f 376/376/376 372/372/372 375/375/375
f 377/377/377 371/371/371 376/376/376
f 375/375/375 378/378/378 376/376/376
f 377/377/377 376/376/376 378/378/378
f 381/381/381 380/380/380 379/379/379
f 382/382/382 379/379/379 380/380/380
f 381/381/381 383/383/383 380/380/380
f 380/380/380 384/384/384 382/382/382
f 385/385/385 382/382/382 384/384/384
f 386/386/386 380/380/380 383/383/383
f 380/380/380 386/386/386 384/384/384
f 383/383/383 387/387/387 386/386/386
f 384/384/384 388/388/388 385/385/385
f 389/389/389 385/385/385 388/388/388
f 389/389/389 388/388/388 390/390/390
f 391/391/391 390/390/390 388/388/388
f 392/392/392 384/384/384 386/386/386
f 384/384/384 392/392/392 388/388/388
f 388/388/388 393/393/393 391/391/391
f 393/393/393 388/388/388 392/392/392
f 394/394/394 391/391/391 393/393/393
f 394/394/394 393/393/393 395/395/395
f 396/396/396 386/386/386 387/387/387
f 386/386/386 396/396/396 392/392/392
f 393/393/393 392/392/392 397/397/397
f 397/397/397 395/395/395 393/393/393
f 398/398/398 397/397/397 392/392/392
f 398/398/398 392/392/392 396/396/396
f 396/396/396 387/387/387 399/399/399
f 400/400/400 399/399/399 387/387/387
f 400/400/400 401/401/401 399/399/399
f 397/397/397 398/398/398 402/402/402
f 397/397/397 402/402/402 395/395/395
f 398/398/398 396/396/396 403/403/403
f 399/399/399 403/403/403 396/396/396
f 403/403/403 402/402/402 398/398/398
f 404/404/404 399/399/399 401/401/401
f 399/399/399 404/404/404 403/403/403
f 401/401/401 405/405/405 404/404/404
f 406/406/406 395/395/395 402/402/402
f 402/402/402 403/403/403 407/407/407
f 402/402/402 407/407/407 406/406/406
f 408/408/408 403/403/403 404/404/404
f 408/408/408 407/407/407 403/403/403
f 409/409/409 404/404/404 405/405/405
f 404/404/404 409/409/409 408/408/408
f 406/406/406 410/410/410 395/395/395
f 411/411/411 395/395/395 410/410/410
f 412/412/412 406/406/406 407/407/407
f 406/406/406 412/412/412 410/410/410
f 409/409/409 405/405/405 413/413/413
f 414/414/414 413/413/413 405/405/405
f 414/414/414 415/415/415 413/413/413
f 416/416/416 413/413/413 415/415/415
f 415/415/415 417/417/417 416/416/416
f 418/418/418 416/416/416 417/417/417
f 413/413/413 419/419/419 409/409/409
f 413/413/413 416/416/416 419/419/419
f 416/416/416 418/418/418 420/420/420
f 420/420/420 419/419/419 416/416/416
f 421/421/421 420/420/420 418/418/418
f 421/421/421 422/422/422 420/420/420
f 423/423/423 409/409/409 419/419/419
f 423/423/423 408/408/408 409/409/409
f 419/419/419 420/420/420 424/424/424
f 419/419/419 424/424/424 423/423/423
f 425/425/425 420/420/420 422/422/422
f 425/425/425 424/424/424 420/420/420
f 422/422/422 426/426/426 425/425/425
f 427/427/427 425/425/425 426/426/426
f 427/427/427 428/428/428 425/425/425
f 424/424/424 425/425/425 428/428/428
f 428/428/428 429/429/429 424/424/424
f 423/423/423 430/430/430 408/408/408
f 430/430/430 423/423/423 424/424/424
f 430/430/430 424/424/424 429/429/429
f 407/407/407 408/408/408 430/430/430
f 430/430/430 429/429/429 407/407/407
f 412/412/412 407/407/407 429/429/429
f 412/412/412 429/429/429 431/431/431
f 432/432/432 431/431/431 429/429/429
f 432/432/432 433/433/433 431/431/431
f 431/431/431 410/410/410 412/412/412
f 434/434/434 431/431/431 433/433/433
f 431/431/431 434/434/434 410/410/410
f 433/433/433 435/435/435 434/434/434
f 436/436/436 434/434/434 435/435/435
f 436/436/436 437/437/437 434/434/434
f 438/438/438 410/410/410 434/434/434
f 438/438/438 434/434/434 437/437/437
f 410/410/410 438/438/438 411/411/411
f 437/437/437 439/439/439 438/438/438
f 440/440/440 411/411/411 438/438/438
f 440/440/440 438/438/438 439/439/439
f 443/443/443 442/442/442 441/441/441
f 443/443/443 441/441/441 444/444/444
f 445/445/445 441/441/441 442/442/442
f 442/442/442 446/446/446 445/445/445
f 447/447/447 444/444/444 441/441/441
f 441/441/441 445/445/445 448/448/448
f 441/441/441 448/448/448 447/447/447
f 447/447/447 449/449/449 444/444/444
f 450/450/450 444/444/444 449/449/449
f 449/449/449 451/451/451 450/450/450
f 452/452/452 450/450/450 451/451/451
f 452/452/452 451/451/451 453/453/453
f 454/454/454 453/453/453 451/451/451
f 451/451/451 455/455/455 454/454/454
f 451/451/451 449/449/449 455/455/455
f 456/456/456 454/454/454 455/455/455
f 449/449/449 447/447/447 457/457/457
f 457/457/457 455/455/455 449/449/449
f 455/455/455 458/458/458 456/456/456
f 455/455/455 457/457/457 458/458/458
f 459/459/459 456/456/456 458/458/458
f 459/459/459 458/458/458 460/460/460
f 461/461/461 460/460/460 458/458/458
f 458/458/458 462/462/462 461/461/461
f 462/462/462 458/458/458 457/457/457
f 463/463/463 461/461/461 462/462/462
f 463/463/463 462/462/462 464/464/464
f 465/465/465 457/457/457 447/447/447
f 465/465/465 447/447/447 448/448/448
f 462/462/462 457/457/457 466/466/466
f 465/465/465 466/466/466 457/457/457
f 466/466/466 464/464/464 462/462/462
f 466/466/466 465/465/465 467/467/467
f 448/448/448 467/467/467 465/465/465
f 466/466/466 467/467/467 464/464/464
f 467/467/467 448/448/448 468/468/468
f 469/469/469 464/464/464 467/467/467
f 467/467/467 468/468/468 469/469/469
f 469/469/469 470/470/470 464/464/464
f 471/471/471 464/464/464 470/470/470
f 472/472/472 468/468/468 448/448/448
f 472/472/472 448/448/448 445/445/445
f 473/473/473 469/469/469 468/468/468
f 469/469/469 473/473/473 470/470/470
f 470/470/470 474/474/474 471/471/471
f 475/475/475 471/471/471 474/474/474
f 475/475/475 474/474/474 476/476/476
f 477/477/477 476/476/476 474/474/474
f 474/474/474 478/478/478 477/477/477
f 474/474/474 470/470/470 478/478/478
f 479/479/479 477/477/477 478/478/478
f 479/479/479 478/478/478 480/480/480
f 481/481/481 480/480/480 478/478/478
f 482/482/482 478/478/478 470/470/470
f 478/478/478 482/482/482 481/481/481
f 482/482/482 470/470/470 473/473/473
f 483/483/483 481/481/481 482/482/482
f 483/483/483 482/482/482 484/484/484
f 473/473/473 484/484/484 482/482/482
f 473/473/473 468/468/468 484/484/484
f 485/485/485 484/484/484 468/468/468
f 468/468/468 472/472/472 485/485/485
f 485/485/485 486/486/486 484/484/484
f 487/487/487 484/484/484 486/486/486
f 488/488/488 485/485/485 472/472/472
f 485/485/485 488/488/488 486/486/486
f 488/488/488 472/472/472 489/489/489
f 445/445/445 489/489/489 472/472/472
f 489/489/489 445/445/445 446/446/446
f 488/488/488 489/489/489 490/490/490
f 490/490/490 486/486/486 488/488/488
f 489/489/489 446/446/446 491/491/491
f 491/491/491 490/490/490 489/489/489
f 492/492/492 491/491/491 446/446/446
f 492/492/492 493/493/493 491/491/491
f 494/494/494 491/491/491 493/493/493
f 491/491/491 494/494/494 490/490/490
f 493/493/493 495/495/495 494/494/494
f 496/496/496 494/494/494 495/495/495
f 497/497/497 490/490/490 494/494/494
f 494/494/494 496/496/496 497/497/497
f 490/490/490 497/497/497 486/486/486
f 498/498/498 497/497/497 496/496/496
f 498/498/498 499/499/499 497/497/497
f 500/500/500 486/486/486 497/497/497
f 500/500/500 497/497/497 499/499/499
f 486/486/486 500/500/500 487/487/487
f 499/499/499 501/501/501 500/500/500
f 502/502/502 487/487/487 500/500/500
f 502/502/502 500/500/500 501/501/501
f 505/505/505 504/504/504 503/503/503
f 503/503/503 506/506/506 505/505/505
f 507/507/507 505/505/505 506/506/506
f 508/508/508 503/503/503 504/504/504
f 504/504/504 509/509/509 508/508/508
f 506/506/506 503/503/503 510/510/510
f 511/511/511 510/510/510 503/503/503
f 503/503/503 508/508/508 511/511/511
f 511/511/511 512/512/512 510/510/510
f 512/512/512 511/511/511 508/508/508
f 513/513/513 508/508/508 509/509/509
f 508/508/508 513/513/513 512/512/512
f 509/509/509 514/514/514 513/513/513
f 506/506/506 515/515/515 507/507/507
f 516/516/516 507/507/507 515/515/515
f 517/517/517 512/512/512 513/513/513
f 512/512/512 517/517/517 510/510/510
f 518/518/518 513/513/513 514/514/514
f 513/513/513 518/518/518 517/517/517
f 514/514/514 519/519/519 518/518/518
f 520/520/520 518/518/518 519/519/519
f 519/519/519 521/521/521 520/520/520
f 522/522/522 517/517/517 518/518/518
f 518/518/518 520/520/520 522/522/522
f 522/522/522 523/523/523 517/517/517
f 523/523/523 522/522/522 520/520/520
f 517/517/517 523/523/523 510/510/510
f 524/524/524 520/520/520 521/521/521
f 520/520/520 524/524/524 523/523/523
f 521/521/521 525/525/525 524/524/524
f 526/526/526 523/523/523 524/524/524
f 523/523/523 526/526/526 510/510/510
f 527/527/527 524/524/524 525/525/525
f 524/524/524 527/527/527 526/526/526
f 525/525/525 528/528/528 527/527/527
f 529/529/529 526/526/526 527/527/527
f 526/526/526 529/529/529 510/510/510
f 530/530/530 527/527/527 528/528/528
f 527/527/527 530/530/530 529/529/529
f 528/528/528 531/531/531 530/530/530
f 532/532/532 530/530/530 531/531/531
f 531/531/531 533/533/533 532/532/532
f 534/534/534 529/529/529 530/530/530
f 530/530/530 532/532/532 534/534/534
f 529/529/529 534/534/534 535/535/535
f 510/510/510 529/529/529 535/535/535
f 535/535/535 534/534/534 532/532/532
f 536/536/536 532/532/532 533/533/533
f 532/532/532 536/536/536 535/535/535
f 533/533/533 516/516/516 536/536/536
f 515/515/515 536/536/536 516/516/516
f 537/537/537 510/510/510 535/535/535
f 510/510/510 537/537/537 506/506/506
f 515/515/515 506/506/506 537/537/537
f 538/538/538 535/535/535 536/536/536
f 538/538/538 537/537/537 535/535/535
f 536/536/536 515/515/515 538/538/538
f 537/537/537 538/538/538 515/515/515
f 541/541/541 540/540/540 539/539/539
f 539/539/539 542/542/542 541/541/541
f 543/543/543 541/541/541 542/542/542
f 544/544/544 539/539/539 540/540/540
f 540/540/540 545/545/545 544/544/544
f 542/542/542 539/539/539 546/546/546
f 547/547/547 546/546/546 539/539/539
f 539/539/539 544/544/544 547/547/547
f 547/547/547 548/548/548 546/546/546
f 548/548/548 547/547/547 544/544/544
f 549/549/549 544/544/544 545/545/545
f 544/544/544 549/549/549 548/548/548
f 545/545/545 550/550/550 549/549/549
f 542/542/542 551/551/551 543/543/543
f 552/552/552 543/543/543 551/551/551
f 553/553/553 548/548/548 549/549/549
f 548/548/548 553/553/553 546/546/546
f 554/554/554 549/549/549 550/550/550
f 549/549/549 554/554/554 553/553/553
f 550/550/550 555/555/555 554/554/554
f 556/556/556 554/554/554 555/555/555
f 555/555/555 557/557/557 556/556/556
f 558/558/558 553/553/553 554/554/554
f 554/554/554 556/556/556 558/558/558
f 558/558/558 559/559/559 553/553/553
f 559/559/559 558/558/558 556/556/556
f 553/553/553 559/559/559 546/546/546
f 560/560/560 556/556/556 557/557/557
f 556/556/556 560/560/560 559/559/559
f 557/557/557 561/561/561 560/560/560
f 562/562/562 559/559/559 560/560/560
f 559/559/559 562/562/562 546/546/546
f 563/563/563 560/560/560 561/561/561
f 560/560/560 563/563/563 562/562/562
f 561/561/561 564/564/564 563/563/563
f 565/565/565 562/562/562 563/563/563
f 562/562/562 565/565/565 546/546/546
f 566/566/566 563/563/563 564/564/564
f 563/563/563 566/566/566 565/565/565
f 564/564/564 567/567/567 566/566/566
f 568/568/568 566/566/566 567/567/567
f 567/567/567 569/569/569 568/568/568
f 570/570/570 565/565/565 566/566/566
f 566/566/566 568/568/568 570/570/570
f 565/565/565 570/570/570 571/571/571
f 546/546/546 565/565/565 571/571/571
f 571/571/571 570/570/570 568/568/568
f 572/572/572 568/568/568 569/569/569
f 568/568/568 572/572/572 571/571/571
f 569/569/569 552/552/552 572/572/572
f 551/551/551 572/572/572 552/552/552
f 573/573/573 546/546/546 571/571/571
f 546/546/546 573/573/573 542/542/542
f 551/551/551 542/542/542 573/573/573
f 574/574/574 571/571/571 572/572/572
f 574/574/574 573/573/573 571/571/571
f 572/572/572 551/551/551 574/574/574
f 573/573/573 574/574/574 551/551/551
