g weilanweilan_01_mobile
v 2358.59728 -7.76602929 194.295217
v 2358.59728 7.76602929 194.295217
v 2355.05741 6.75463943 185.770645
v 2355.05741 -6.75463943 185.770645
v 2341.11468 -19.1080442 417.451165
v 2275.59107 -15.4236954 426.047979
v 2340.60899 -15.5681797 426.047979
v 2275.08537 -18.9635599 417.451165
v 2341.11468 -19.1080442 194.295217
v 2265.04372 -12.6062522 426.047979
v 2275.08537 -18.9635599 194.295217
v 2340.60899 -15.5681797 185.770645
v 2275.59107 -15.4236954 185.770645
v 2262.80421 -15.6404218 194.295217
v 2265.04372 -12.6062522 185.770645
v 2262.80421 -15.6404218 417.451165
v 2261.21488 -6.53791303 426.047979
v 2257.67502 -7.54930289 194.295217
v 2261.21488 -6.53791303 185.770645
v 2257.67502 -7.54930289 417.451165
v 2261.21488 6.53791303 426.047979
v 2257.67502 7.54930289 417.451165
v 2265.04372 12.6062522 426.047979
v 2257.67502 7.54930289 194.295217
v 2261.21488 6.53791303 185.770645
v 2262.80421 15.6404218 194.295217
v 2265.04372 12.6062522 185.770645
v 2262.80421 15.6404218 417.451165
v 2275.59107 15.4236954 426.047979
v 2275.08537 18.9635599 194.295217
v 2275.59107 15.4236954 185.770645
v 2275.08537 18.9635599 417.451165
v 2340.60899 15.5681797 426.047979
v 2341.11468 19.1080442 417.451165
v 2351.22858 12.7507365 426.047979
v 2341.11468 19.1080442 194.295217
v 2340.60899 15.5681797 185.770645
v 2353.46809 15.7849061 194.295217
v 2351.22858 12.7507365 185.770645
v 2353.46809 15.7849061 417.451165
v 2355.05741 6.75463943 426.047979
v 2358.59728 7.76602929 194.295217
v 2355.05741 6.75463943 185.770645
v 2358.59728 7.76602929 417.451165
v 2355.05741 -6.75463943 426.047979
v 2358.59728 -7.76602929 417.451165
v 2358.59728 -7.76602929 194.295217
v 2351.22858 -12.7507365 426.047979
v 2353.46809 -15.7849061 194.295217
v 2355.05741 -6.75463943 185.770645
v 2351.22858 -12.7507365 185.770645
v 2353.46809 -15.7849061 417.451165
v 2340.60899 -15.5681797 426.047979
v 2341.11468 -19.1080442 417.451165
v 2341.11468 -19.1080442 194.295217
v 2340.60899 -15.5681797 185.770645
v 2349.7115 -19.1080442 -1916.11421
v 2349.7115 -19.1080442 -931.959636
v 2362.0649 -15.7849061 -931.959636
v 2362.0649 -15.7849061 -1917.05336
v 2328.32782 -19.1080442 -2050.99028
v 2349.7115 -19.1080442 -1916.11421
v 2340.24778 -15.7849061 -2054.81911
v 2266.99425 -19.1080442 -2171.41791
v 2277.10815 -15.7849061 -2178.78661
v 2171.41791 -19.1080442 -2266.99425
v 2178.78661 -15.7849061 -2277.10815
v 2050.99028 -19.1080442 -2328.32782
v 2054.81911 -15.7849061 -2340.24778
v 1916.11421 -19.1080442 -2349.7115
v 1917.05336 -15.7849061 -2362.0649
v -1916.11421 -19.1080442 -2349.7115
v -1917.05336 -15.7849061 -2362.0649
v -2050.99028 -19.1080442 -2328.32782
v -2054.81911 -15.7849061 -2340.24778
v -2171.41791 -19.1080442 -2266.99425
v -2178.78661 -15.7849061 -2277.10815
v -2266.99425 -19.1080442 -2171.41791
v -2277.10815 -15.7849061 -2178.78661
v -2328.32782 -19.1080442 -2050.99028
v -2340.24778 -15.7849061 -2054.81911
v -2349.7115 -19.1080442 -1916.11421
v -2362.0649 -15.7849061 -1917.05336
v -2349.7115 -19.1080442 1916.11421
v -2362.0649 -15.7849061 1917.05336
v -2328.32782 -19.1080442 2050.99028
v -2340.24778 -15.7849061 2054.81911
v -2266.99425 -19.1080442 2171.41791
v -2277.10815 -15.7849061 2178.78661
v -2171.41791 -19.1080442 2266.99425
v -2178.78661 -15.7849061 2277.10815
v -2050.99028 -19.1080442 2328.32782
v -2054.81911 -15.7849061 2340.24778
v -1916.11421 -19.1080442 2349.7115
v -1917.05336 -15.7849061 2362.0649
v 1916.11421 -19.1080442 2349.7115
v 1917.05336 -15.7849061 2362.0649
v 2050.99028 -19.1080442 2328.32782
v 2054.81911 -15.7849061 2340.24778
v 2171.41791 -19.1080442 2266.99425
v 2178.78661 -15.7849061 2277.10815
v 2266.99425 -19.1080442 2171.41791
v 2277.10815 -15.7849061 2178.78661
v 2328.32782 -19.1080442 2050.99028
v 2340.24778 -15.7849061 2054.81911
v 2349.7115 -19.1080442 1916.11421
v 2362.0649 -15.7849061 1917.05336
v 2349.7115 -19.1080442 890.564894
v 2362.0649 -15.7849061 890.564894
v 2362.0649 -15.7849061 -1917.05336
v 2362.0649 -15.7849061 -931.959636
v 2367.19409 -7.76602929 -931.959636
v 2367.19409 -7.76602929 -1917.48681
v 2340.24778 -15.7849061 -2054.81911
v 2367.19409 7.76602929 -1917.48681
v 2367.19409 7.76602929 -931.959636
v 2362.0649 15.7849061 -931.959636
v 2362.0649 15.7849061 -1917.05336
v 2345.16024 7.76602929 -2056.40844
v 2340.24778 15.7849061 -2054.81911
v 2345.16024 -7.76602929 -2056.40844
v 2277.10815 -15.7849061 -2178.78661
v 2281.2982 7.76602929 -2181.82078
v 2277.10815 15.7849061 -2178.78661
v 2281.2982 -7.76602929 -2181.82078
v 2178.78661 -15.7849061 -2277.10815
v 2181.82078 7.76602929 -2281.2982
v 2178.78661 15.7849061 -2277.10815
v 2181.82078 -7.76602929 -2281.2982
v 2054.81911 -15.7849061 -2340.24778
v 2056.40844 7.76602929 -2345.16024
v 2054.81911 15.7849061 -2340.24778
v 2056.40844 -7.76602929 -2345.16024
v 1917.05336 -15.7849061 -2362.0649
v 1917.48681 7.76602929 -2367.19409
v 1917.05336 15.7849061 -2362.0649
v 1917.48681 -7.76602929 -2367.19409
v -1917.05336 -15.7849061 -2362.0649
v -1917.48681 -7.76602929 -2367.19409
v -2054.81911 -15.7849061 -2340.24778
v -1917.48681 7.76602929 -2367.19409
v -1917.05336 15.7849061 -2362.0649
v -2056.40844 7.76602929 -2345.16024
v -2054.81911 15.7849061 -2340.24778
v -2056.40844 -7.76602929 -2345.16024
v -2178.78661 -15.7849061 -2277.10815
v -2181.82078 7.76602929 -2281.2982
v -2178.78661 15.7849061 -2277.10815
v -2181.82078 -7.76602929 -2281.2982
v -2277.10815 -15.7849061 -2178.78661
v -2281.2982 7.76602929 -2181.82078
v -2277.10815 15.7849061 -2178.78661
v -2281.2982 -7.76602929 -2181.82078
v -2340.24778 -15.7849061 -2054.81911
v -2345.16024 7.76602929 -2056.40844
v -2340.24778 15.7849061 -2054.81911
v -2345.16024 -7.76602929 -2056.40844
v -2362.0649 -15.7849061 -1917.05336
v -2367.19409 7.76602929 -1917.48681
v -2362.0649 15.7849061 -1917.05336
v -2367.19409 -7.76602929 -1917.48681
v -2362.0649 -15.7849061 1917.05336
v -2367.19409 -7.76602929 1917.48681
v -2340.24778 -15.7849061 2054.81911
v -2367.19409 7.76602929 1917.48681
v -2362.0649 15.7849061 1917.05336
v -2345.16024 7.76602929 2056.40844
v -2340.24778 15.7849061 2054.81911
v -2345.16024 -7.76602929 2056.40844
v -2277.10815 -15.7849061 2178.78661
v -2281.2982 7.76602929 2181.82078
v -2277.10815 15.7849061 2178.78661
v -2281.2982 -7.76602929 2181.82078
v -2178.78661 -15.7849061 2277.10815
v -2181.82078 7.76602929 2281.2982
v -2178.78661 15.7849061 2277.10815
v -2181.82078 -7.76602929 2281.2982
v -2054.81911 -15.7849061 2340.24778
v -2056.40844 7.76602929 2345.16024
v -2054.81911 15.7849061 2340.24778
v -2056.40844 -7.76602929 2345.16024
v -1917.05336 -15.7849061 2362.0649
v -1917.48681 7.76602929 2367.19409
v -1917.05336 15.7849061 2362.0649
v -1917.48681 -7.76602929 2367.19409
v 1917.05336 -15.7849061 2362.0649
v 1917.48681 -7.76602929 2367.19409
v 2054.81911 -15.7849061 2340.24778
v 1917.48681 7.76602929 2367.19409
v 1917.05336 15.7849061 2362.0649
v 2056.40844 7.76602929 2345.16024
v 2054.81911 15.7849061 2340.24778
v 2056.40844 -7.76602929 2345.16024
v 2178.78661 -15.7849061 2277.10815
v 2181.82078 7.76602929 2281.2982
v 2178.78661 15.7849061 2277.10815
v 2181.82078 -7.76602929 2281.2982
v 2277.10815 -15.7849061 2178.78661
v 2281.2982 7.76602929 2181.82078
v 2277.10815 15.7849061 2178.78661
v 2281.2982 -7.76602929 2181.82078
v 2340.24778 -15.7849061 2054.81911
v 2345.16024 7.76602929 2056.40844
v 2340.24778 15.7849061 2054.81911
v 2345.16024 -7.76602929 2056.40844
v 2362.0649 -15.7849061 1917.05336
v 2367.19409 7.76602929 1917.48681
v 2362.0649 15.7849061 1917.05336
v 2367.19409 -7.76602929 1917.48681
v 2362.0649 -15.7849061 890.564894
v 2367.19409 -7.76602929 890.564894
v 2367.19409 7.76602929 890.564894
v 2362.0649 15.7849061 890.564894
v 2271.40102 -15.6404218 -1891.33516
v 2271.40102 -15.6404218 -931.959636
v 2283.75443 -18.9635599 -931.959636
v 2283.75443 -18.9635599 -1892.27431
v 2253.55722 -15.6404218 -2012.77419
v 2265.47717 -18.9635599 -2016.60302
v 2200.31476 -15.6404218 -2117.3808
v 2210.42866 -18.9635599 -2124.67725
v 2117.3808 -15.6404218 -2200.31476
v 2124.67725 -18.9635599 -2210.42866
v 2012.77419 -15.6404218 -2253.55722
v 2016.60302 -18.9635599 -2265.47717
v 1891.33516 -15.6404218 -2271.40102
v 1892.27431 -18.9635599 -2283.75443
v -1891.33516 -15.6404218 -2271.40102
v -1892.27431 -18.9635599 -2283.75443
v -2012.77419 -15.6404218 -2253.55722
v -2016.60302 -18.9635599 -2265.47717
v -2117.3808 -15.6404218 -2200.31476
v -2124.67725 -18.9635599 -2210.42866
v -2200.31476 -15.6404218 -2117.3808
v -2210.42866 -18.9635599 -2124.67725
v -2253.55722 -15.6404218 -2012.77419
v -2265.47717 -18.9635599 -2016.60302
v -2271.40102 -15.6404218 -1891.33516
v -2283.75443 -18.9635599 -1892.27431
v -2271.40102 -15.6404218 1891.33516
v -2283.75443 -18.9635599 1892.27431
v -2253.55722 -15.6404218 2012.77419
v -2265.47717 -18.9635599 2016.60302
v -2200.31476 -15.6404218 2117.3808
v -2210.42866 -18.9635599 2124.67725
v -2117.3808 -15.6404218 2200.31476
v -2124.67725 -18.9635599 2210.42866
v -2012.77419 -15.6404218 2253.55722
v -2016.60302 -18.9635599 2265.47717
v -1891.33516 -15.6404218 2271.40102
v -1892.27431 -18.9635599 2283.75443
v 1891.33516 -15.6404218 2271.40102
v 1892.27431 -18.9635599 2283.75443
v 2012.77419 -15.6404218 2253.55722
v 2016.60302 -18.9635599 2265.47717
v 2117.3808 -15.6404218 2200.31476
v 2124.67725 -18.9635599 2210.42866
v 2200.31476 -15.6404218 2117.3808
v 2210.42866 -18.9635599 2124.67725
v 2253.55722 -15.6404218 2012.77419
v 2265.47717 -18.9635599 2016.60302
v 2271.40102 -15.6404218 1891.33516
v 2283.75443 -18.9635599 1892.27431
v 2271.40102 -15.6404218 890.564894
v 2283.75443 -18.9635599 890.564894
v 2271.40102 15.6404218 1891.33516
v 2271.40102 15.6404218 890.564894
v 2283.75443 18.9635599 890.564894
v 2283.75443 18.9635599 1892.27431
v 2253.55722 15.6404218 2012.77419
v 2349.7115 19.1080442 1916.11421
v 2349.7115 19.1080442 890.564894
v 2362.0649 15.7849061 890.564894
v 2362.0649 15.7849061 1917.05336
v 2265.47717 18.9635599 2016.60302
v 2200.31476 15.6404218 2117.3808
v 2328.32782 19.1080442 2050.99028
v 2340.24778 15.7849061 2054.81911
v 2210.42866 18.9635599 2124.67725
v 2117.3808 15.6404218 2200.31476
v 2266.99425 19.1080442 2171.41791
v 2277.10815 15.7849061 2178.78661
v 2124.67725 18.9635599 2210.42866
v 2012.77419 15.6404218 2253.55722
v 2171.41791 19.1080442 2266.99425
v 2178.78661 15.7849061 2277.10815
v 2016.60302 18.9635599 2265.47717
v 1891.33516 15.6404218 2271.40102
v 2050.99028 19.1080442 2328.32782
v 2054.81911 15.7849061 2340.24778
v 1892.27431 18.9635599 2283.75443
v -1891.33516 15.6404218 2271.40102
v 1916.11421 19.1080442 2349.7115
v 1917.05336 15.7849061 2362.0649
v -1892.27431 18.9635599 2283.75443
v -2012.77419 15.6404218 2253.55722
v -1916.11421 19.1080442 2349.7115
v -1917.05336 15.7849061 2362.0649
v -2016.60302 18.9635599 2265.47717
v -2117.3808 15.6404218 2200.31476
v -2050.99028 19.1080442 2328.32782
v -2054.81911 15.7849061 2340.24778
v -2124.67725 18.9635599 2210.42866
v -2200.31476 15.6404218 2117.3808
v -2171.41791 19.1080442 2266.99425
v -2178.78661 15.7849061 2277.10815
v -2210.42866 18.9635599 2124.67725
v -2253.55722 15.6404218 2012.77419
v -2266.99425 19.1080442 2171.41791
v -2277.10815 15.7849061 2178.78661
v -2265.47717 18.9635599 2016.60302
v -2271.40102 15.6404218 1891.33516
v -2328.32782 19.1080442 2050.99028
v -2340.24778 15.7849061 2054.81911
v -2283.75443 18.9635599 1892.27431
v -2271.40102 15.6404218 -1891.33516
v -2349.7115 19.1080442 1916.11421
v -2362.0649 15.7849061 1917.05336
v -2283.75443 18.9635599 -1892.27431
v -2253.55722 15.6404218 -2012.77419
v -2349.7115 19.1080442 -1916.11421
v -2362.0649 15.7849061 -1917.05336
v -2265.47717 18.9635599 -2016.60302
v -2200.31476 15.6404218 -2117.3808
v -2328.32782 19.1080442 -2050.99028
v -2340.24778 15.7849061 -2054.81911
v -2210.42866 18.9635599 -2124.67725
v -2117.3808 15.6404218 -2200.31476
v -2266.99425 19.1080442 -2171.41791
v -2277.10815 15.7849061 -2178.78661
v -2124.67725 18.9635599 -2210.42866
v -2012.77419 15.6404218 -2253.55722
v -2171.41791 19.1080442 -2266.99425
v -2178.78661 15.7849061 -2277.10815
v -2016.60302 18.9635599 -2265.47717
v -1891.33516 15.6404218 -2271.40102
v -2050.99028 19.1080442 -2328.32782
v -2054.81911 15.7849061 -2340.24778
v -1892.27431 18.9635599 -2283.75443
v 1891.33516 15.6404218 -2271.40102
v -1916.11421 19.1080442 -2349.7115
v -1917.05336 15.7849061 -2362.0649
v 1892.27431 18.9635599 -2283.75443
v 2012.77419 15.6404218 -2253.55722
v 1916.11421 19.1080442 -2349.7115
v 1917.05336 15.7849061 -2362.0649
v 2016.60302 18.9635599 -2265.47717
v 2117.3808 15.6404218 -2200.31476
v 2050.99028 19.1080442 -2328.32782
v 2054.81911 15.7849061 -2340.24778
v 2124.67725 18.9635599 -2210.42866
v 2200.31476 15.6404218 -2117.3808
v 2171.41791 19.1080442 -2266.99425
v 2178.78661 15.7849061 -2277.10815
v 2210.42866 18.9635599 -2124.67725
v 2253.55722 15.6404218 -2012.77419
v 2266.99425 19.1080442 -2171.41791
v 2277.10815 15.7849061 -2178.78661
v 2265.47717 18.9635599 -2016.60302
v 2271.40102 15.6404218 -1891.33516
v 2328.32782 19.1080442 -2050.99028
v 2340.24778 15.7849061 -2054.81911
v 2283.75443 18.9635599 -1892.27431
v 2271.40102 15.6404218 -931.959636
v 2283.75443 18.9635599 -931.959636
v 2349.7115 19.1080442 -1916.11421
v 2362.0649 15.7849061 -1917.05336
v 2349.7115 19.1080442 -931.959636
v 2362.0649 15.7849061 -931.959636
v 2349.7115 -19.1080442 1916.11421
v 2349.7115 -19.1080442 890.564894
v 2283.75443 -18.9635599 890.564894
v 2283.75443 -18.9635599 1892.27431
v 2328.32782 -19.1080442 2050.99028
v 2265.47717 -18.9635599 2016.60302
v 2266.99425 -19.1080442 2171.41791
v 2210.42866 -18.9635599 2124.67725
v 2171.41791 -19.1080442 2266.99425
v 2124.67725 -18.9635599 2210.42866
v 2050.99028 -19.1080442 2328.32782
v 2016.60302 -18.9635599 2265.47717
v 1916.11421 -19.1080442 2349.7115
v 1892.27431 -18.9635599 2283.75443
v -1916.11421 -19.1080442 2349.7115
v -1892.27431 -18.9635599 2283.75443
v -2050.99028 -19.1080442 2328.32782
v -2016.60302 -18.9635599 2265.47717
v -2171.41791 -19.1080442 2266.99425
v -2124.67725 -18.9635599 2210.42866
v -2266.99425 -19.1080442 2171.41791
v -2210.42866 -18.9635599 2124.67725
v -2328.32782 -19.1080442 2050.99028
v -2265.47717 -18.9635599 2016.60302
v -2349.7115 -19.1080442 1916.11421
v -2283.75443 -18.9635599 1892.27431
v -2349.7115 -19.1080442 -1916.11421
v -2283.75443 -18.9635599 -1892.27431
v -2328.32782 -19.1080442 -2050.99028
v -2265.47717 -18.9635599 -2016.60302
v -2266.99425 -19.1080442 -2171.41791
v -2210.42866 -18.9635599 -2124.67725
v -2171.41791 -19.1080442 -2266.99425
v -2124.67725 -18.9635599 -2210.42866
v -2050.99028 -19.1080442 -2328.32782
v -2016.60302 -18.9635599 -2265.47717
v -1916.11421 -19.1080442 -2349.7115
v -1892.27431 -18.9635599 -2283.75443
v 1916.11421 -19.1080442 -2349.7115
v 1892.27431 -18.9635599 -2283.75443
v 2050.99028 -19.1080442 -2328.32782
v 2016.60302 -18.9635599 -2265.47717
v 2171.41791 -19.1080442 -2266.99425
v 2124.67725 -18.9635599 -2210.42866
v 2266.99425 -19.1080442 -2171.41791
v 2210.42866 -18.9635599 -2124.67725
v 2328.32782 -19.1080442 -2050.99028
v 2265.47717 -18.9635599 -2016.60302
v 2349.7115 -19.1080442 -1916.11421
v 2283.75443 -18.9635599 -1892.27431
v 2283.75443 -18.9635599 -931.959636
v 2349.7115 -19.1080442 -931.959636
v 2271.40102 -15.6404218 1891.33516
v 2271.40102 -15.6404218 890.564894
v 2266.27183 -7.54930289 890.564894
v 2266.27183 -7.54930289 1890.97395
v 2253.55722 -15.6404218 2012.77419
v 2266.27183 7.54930289 1890.97395
v 2266.27183 7.54930289 890.564894
v 2271.40102 15.6404218 890.564894
v 2271.40102 15.6404218 1891.33516
v 2248.64475 -7.54930289 2011.18486
v 2200.31476 -15.6404218 2117.3808
v 2248.64475 7.54930289 2011.18486
v 2253.55722 15.6404218 2012.77419
v 2196.12472 -7.54930289 2114.34663
v 2117.3808 -15.6404218 2200.31476
v 2196.12472 7.54930289 2114.34663
v 2200.31476 15.6404218 2117.3808
v 2114.34663 -7.54930289 2196.12472
v 2012.77419 -15.6404218 2253.55722
v 2114.34663 7.54930289 2196.12472
v 2117.3808 15.6404218 2200.31476
v 2011.18486 -7.54930289 2248.64475
v 1891.33516 -15.6404218 2271.40102
v 2011.18486 7.54930289 2248.64475
v 2012.77419 15.6404218 2253.55722
v 1890.97395 -7.54930289 2266.27183
v -1891.33516 -15.6404218 2271.40102
v 1890.97395 7.54930289 2266.27183
v 1891.33516 15.6404218 2271.40102
v -1890.97395 7.54930289 2266.27183
v -1891.33516 15.6404218 2271.40102
v -1890.97395 -7.54930289 2266.27183
v -2012.77419 -15.6404218 2253.55722
v -2011.18486 -7.54930289 2248.64475
v -2117.3808 -15.6404218 2200.31476
v -2011.18486 7.54930289 2248.64475
v -2012.77419 15.6404218 2253.55722
v -2114.34663 -7.54930289 2196.12472
v -2200.31476 -15.6404218 2117.3808
v -2114.34663 7.54930289 2196.12472
v -2117.3808 15.6404218 2200.31476
v -2196.12472 -7.54930289 2114.34663
v -2253.55722 -15.6404218 2012.77419
v -2196.12472 7.54930289 2114.34663
v -2200.31476 15.6404218 2117.3808
v -2248.64475 -7.54930289 2011.18486
v -2271.40102 -15.6404218 1891.33516
v -2248.64475 7.54930289 2011.18486
v -2253.55722 15.6404218 2012.77419
v -2266.27183 -7.54930289 1890.97395
v -2271.40102 -15.6404218 -1891.33516
v -2266.27183 7.54930289 1890.97395
v -2271.40102 15.6404218 1891.33516
v -2266.27183 7.54930289 -1890.97395
v -2271.40102 15.6404218 -1891.33516
v -2266.27183 -7.54930289 -1890.97395
v -2253.55722 -15.6404218 -2012.77419
v -2248.64475 -7.54930289 -2011.18486
v -2200.31476 -15.6404218 -2117.3808
v -2248.64475 7.54930289 -2011.18486
v -2253.55722 15.6404218 -2012.77419
v -2196.12472 -7.54930289 -2114.34663
v -2117.3808 -15.6404218 -2200.31476
v -2196.12472 7.54930289 -2114.34663
v -2200.31476 15.6404218 -2117.3808
v -2114.34663 -7.54930289 -2196.12472
v -2012.77419 -15.6404218 -2253.55722
v -2114.34663 7.54930289 -2196.12472
v -2117.3808 15.6404218 -2200.31476
v -2011.18486 -7.54930289 -2248.64475
v -1891.33516 -15.6404218 -2271.40102
v -2011.18486 7.54930289 -2248.64475
v -2012.77419 15.6404218 -2253.55722
v -1890.97395 -7.54930289 -2266.27183
v 1891.33516 -15.6404218 -2271.40102
v -1890.97395 7.54930289 -2266.27183
v -1891.33516 15.6404218 -2271.40102
v 1890.97395 7.54930289 -2266.27183
v 1891.33516 15.6404218 -2271.40102
v 1890.97395 -7.54930289 -2266.27183
v 2012.77419 -15.6404218 -2253.55722
v 2011.18486 -7.54930289 -2248.64475
v 2117.3808 -15.6404218 -2200.31476
v 2011.18486 7.54930289 -2248.64475
v 2012.77419 15.6404218 -2253.55722
v 2114.34663 -7.54930289 -2196.12472
v 2200.31476 -15.6404218 -2117.3808
v 2114.34663 7.54930289 -2196.12472
v 2117.3808 15.6404218 -2200.31476
v 2196.12472 -7.54930289 -2114.34663
v 2253.55722 -15.6404218 -2012.77419
v 2196.12472 7.54930289 -2114.34663
v 2200.31476 15.6404218 -2117.3808
v 2248.64475 -7.54930289 -2011.18486
v 2271.40102 -15.6404218 -1891.33516
v 2248.64475 7.54930289 -2011.18486
v 2253.55722 15.6404218 -2012.77419
v 2266.27183 -7.54930289 -1890.97395
v 2271.40102 -15.6404218 -931.959636
v 2266.27183 -7.54930289 -931.959636
v 2266.27183 7.54930289 -931.959636
v 2266.27183 7.54930289 -1890.97395
v 2271.40102 15.6404218 -1891.33516
v 2271.40102 15.6404218 -931.959636
v 2275.59107 15.4236954 185.770645
v 2265.04372 12.6062522 185.770645
v 2270.17291 4.58737544 182.158538
v 2261.21488 6.53791303 185.770645
v 2276.74694 6.8991237 182.158538
v 2340.60899 15.5681797 185.770645
v 2270.17291 -4.58737544 182.158538
v 2261.21488 -6.53791303 185.770645
v 2265.04372 -12.6062522 185.770645
v 2276.74694 -6.8991237 182.158538
v 2275.59107 -15.4236954 185.770645
v 2339.52535 6.97136583 182.158538
v 2351.22858 12.7507365 185.770645
v 2339.52535 -6.97136583 182.158538
v 2340.60899 -15.5681797 185.770645
v 2346.09939 4.80410184 182.158538
v 2355.05741 6.75463943 185.770645
v 2355.05741 -6.75463943 185.770645
v 2346.09939 -4.80410184 182.158538
v 2351.22858 -12.7507365 185.770645
v 2261.21488 -6.53791303 426.047979
v 2261.21488 6.53791303 426.047979
v 2270.17291 4.58737544 429.587844
v 2265.04372 12.6062522 426.047979
v 2270.17291 -4.58737544 429.587844
v 2265.04372 -12.6062522 426.047979
v 2275.59107 -15.4236954 426.047979
v 2276.74694 6.8991237 429.587844
v 2275.59107 15.4236954 426.047979
v 2276.74694 -6.8991237 429.587844
v 2340.60899 -15.5681797 426.047979
v 2339.52535 -6.97136583 429.587844
v 2351.22858 -12.7507365 426.047979
v 2339.52535 6.97136583 429.587844
v 2340.60899 15.5681797 426.047979
v 2346.09939 -4.80410184 429.587844
v 2355.05741 -6.75463943 426.047979
v 2355.05741 6.75463943 426.047979
v 2346.09939 4.80410184 429.587844
v 2351.22858 12.7507365 426.047979
vt 0.271021324 0.851510399
vt 0.271021324 0.852481116
vt 0.271992042 0.852481116
vt 0.271992042 0.851510399
vt 0.255489844 0.866071161
vt 0.254519126 0.862188291
vt 0.254519126 0.866071161
vt 0.255489844 0.862188291
vt 0.271021324 0.867041879
vt 0.254519126 0.861217574
vt 0.271021324 0.862188291
vt 0.271021324 0.867041879
vt 0.271021324 0.862188291
vt 0.271021324 0.861217574
vt 0.271021324 0.861217574
vt 0.255489844 0.861217574
vt 0.254519126 0.860246856
vt 0.271021324 0.861217574
vt 0.271021324 0.861217574
vt 0.255489844 0.860246856
vt 0.254519126 0.859276139
vt 0.255489844 0.859276139
vt 0.254519126 0.858305421
vt 0.271021324 0.859276139
vt 0.271992042 0.860246856
vt 0.271021324 0.859276139
vt 0.271992042 0.859276139
vt 0.255489844 0.858305421
vt 0.254519126 0.858305421
vt 0.271021324 0.858305421
vt 0.271992042 0.858305421
vt 0.255489844 0.858305421
vt 0.255489844 0.853451834
vt 0.255489844 0.853451834
vt 0.255489844 0.852481116
vt 0.271021324 0.853451834
vt 0.271992042 0.853451834
vt 0.271021324 0.852481116
vt 0.271992042 0.853451834
vt 0.255489844 0.852481116
vt 0.255489844 0.851510399
vt 0.271021324 0.852481116
vt 0.271992042 0.852481116
vt 0.255489844 0.851510399
vt 0.255489844 0.850539681
vt 0.255489844 0.850539681
vt 0.271021324 0.851510399
vt 0.255489844 0.850539681
vt 0.271021324 0.850539681
vt 0.271992042 0.851510399
vt 0.271992042 0.850539681
vt 0.255489844 0.850539681
vt 0.255489844 0.849568964
vt 0.255489844 0.849568964
vt 0.271021324 0.849568964
vt 0.271992042 0.849568964
vt 0.0555220356 0.0642584933
vt 0.0555220356 0.00407400727
vt 0.0526098831 0.00407400727
vt 0.0526098831 0.0642584933
vt 0.0555220356 0.0729949509
vt 0.0555220356 0.0642584933
vt 0.0526098831 0.0729949509
vt 0.0555220356 0.080760691
vt 0.0526098831 0.080760691
vt 0.0555220356 0.0885264312
vt 0.0526098831 0.0885264312
vt 0.0555220356 0.0962921713
vt 0.0526098831 0.0962921713
vt 0.0555220356 0.105028629
vt 0.0526098831 0.105028629
vt 0.0555220356 0.340912985
vt 0.0526098831 0.340912985
vt 0.0555220356 0.348678725
vt 0.0526098831 0.348678725
vt 0.0555220356 0.357415183
vt 0.0526098831 0.357415183
vt 0.0555220356 0.365180923
vt 0.0526098831 0.365180923
vt 0.0555220356 0.372946663
vt 0.0526098831 0.372946663
vt 0.0555220356 0.380712403
vt 0.0526098831 0.380712403
vt 0.0555220356 0.617567477
vt 0.0526098831 0.617567477
vt 0.0555220356 0.625333217
vt 0.0526098831 0.625333217
vt 0.0555220356 0.634069675
vt 0.0526098831 0.634069675
vt 0.0555220356 0.641835415
vt 0.0526098831 0.641835415
vt 0.0555220356 0.649601155
vt 0.0526098831 0.649601155
vt 0.0555220356 0.657366895
vt 0.0526098831 0.657366895
vt 0.0555220356 0.894221969
vt 0.0526098831 0.894221969
vt 0.0555220356 0.901987709
vt 0.0526098831 0.901987709
vt 0.0555220356 0.90975345
vt 0.0526098831 0.90975345
vt 0.0555220356 0.918489907
vt 0.0526098831 0.918489907
vt 0.0555220356 0.926255647
vt 0.0526098831 0.926255647
vt 0.0555220356 0.934021387
vt 0.0526098831 0.934021387
vt 0.0555220356 0.997118026
vt 0.0526098831 0.997118026
vt 0.0526098831 0.0642584933
vt 0.0526098831 0.00407400727
vt 0.0496977305 0.00407400727
vt 0.0496977305 0.0642584933
vt 0.0526098831 0.0729949509
vt 0.0458148605 0.0642584933
vt 0.0458148605 0.00407400727
vt 0.0438734254 0.00407400727
vt 0.0438734254 0.0642584933
vt 0.0458148605 0.0729949509
vt 0.0438734254 0.0729949509
vt 0.0496977305 0.0729949509
vt 0.0526098831 0.080760691
vt 0.0458148605 0.080760691
vt 0.0438734254 0.080760691
vt 0.0496977305 0.080760691
vt 0.0526098831 0.0885264312
vt 0.0458148605 0.0885264312
vt 0.0438734254 0.0885264312
vt 0.0496977305 0.0885264312
vt 0.0526098831 0.0962921713
vt 0.0458148605 0.0962921713
vt 0.0438734254 0.0962921713
vt 0.0496977305 0.0962921713
vt 0.0526098831 0.105028629
vt 0.0458148605 0.105028629
vt 0.0438734254 0.105028629
vt 0.0496977305 0.105028629
vt 0.0526098831 0.340912985
vt 0.0496977305 0.340912985
vt 0.0526098831 0.348678725
vt 0.0458148605 0.340912985
vt 0.0438734254 0.340912985
vt 0.0458148605 0.348678725
vt 0.0438734254 0.348678725
vt 0.0496977305 0.348678725
vt 0.0526098831 0.357415183
vt 0.0458148605 0.357415183
vt 0.0438734254 0.357415183
vt 0.0496977305 0.357415183
vt 0.0526098831 0.365180923
vt 0.0458148605 0.365180923
vt 0.0438734254 0.365180923
vt 0.0496977305 0.365180923
vt 0.0526098831 0.372946663
vt 0.0458148605 0.372946663
vt 0.0438734254 0.372946663
vt 0.0496977305 0.372946663
vt 0.0526098831 0.380712403
vt 0.0458148605 0.380712403
vt 0.0438734254 0.380712403
vt 0.0496977305 0.380712403
vt 0.0526098831 0.617567477
vt 0.0496977305 0.617567477
vt 0.0526098831 0.625333217
vt 0.0458148605 0.617567477
vt 0.0438734254 0.617567477
vt 0.0458148605 0.625333217
vt 0.0438734254 0.625333217
vt 0.0496977305 0.625333217
vt 0.0526098831 0.634069675
vt 0.0458148605 0.634069675
vt 0.0438734254 0.634069675
vt 0.0496977305 0.634069675
vt 0.0526098831 0.641835415
vt 0.0458148605 0.641835415
vt 0.0438734254 0.641835415
vt 0.0496977305 0.641835415
vt 0.0526098831 0.649601155
vt 0.0458148605 0.649601155
vt 0.0438734254 0.649601155
vt 0.0496977305 0.649601155
vt 0.0526098831 0.657366895
vt 0.0458148605 0.657366895
vt 0.0438734254 0.657366895
vt 0.0496977305 0.657366895
vt 0.0526098831 0.894221969
vt 0.0496977305 0.894221969
vt 0.0526098831 0.901987709
vt 0.0458148605 0.894221969
vt 0.0438734254 0.894221969
vt 0.0458148605 0.901987709
vt 0.0438734254 0.901987709
vt 0.0496977305 0.901987709
vt 0.0526098831 0.90975345
vt 0.0458148605 0.90975345
vt 0.0438734254 0.90975345
vt 0.0496977305 0.90975345
vt 0.0526098831 0.918489907
vt 0.0458148605 0.918489907
vt 0.0438734254 0.918489907
vt 0.0496977305 0.918489907
vt 0.0526098831 0.926255647
vt 0.0458148605 0.926255647
vt 0.0438734254 0.926255647
vt 0.0496977305 0.926255647
vt 0.0526098831 0.934021387
vt 0.0458148605 0.934021387
vt 0.0438734254 0.934021387
vt 0.0496977305 0.934021387
vt 0.0526098831 0.997118026
vt 0.0496977305 0.997118026
vt 0.0458148605 0.997118026
vt 0.0438734254 0.997118026
vt 0.0108690299 0.0642584933
vt 0.0108690299 0.00407400727
vt 0.00698615982 0.00407400727
vt 0.00698615982 0.0642584933
vt 0.0108690299 0.0729949509
vt 0.00698615982 0.0729949509
vt 0.0108690299 0.080760691
vt 0.00698615982 0.080760691
vt 0.0108690299 0.0885264312
vt 0.00698615982 0.0885264312
vt 0.0108690299 0.0962921713
vt 0.00698615982 0.0962921713
vt 0.0108690299 0.105028629
vt 0.00698615982 0.105028629
vt 0.0108690299 0.340912985
vt 0.00698615982 0.340912985
vt 0.0108690299 0.348678725
vt 0.00698615982 0.348678725
vt 0.0108690299 0.357415183
vt 0.00698615982 0.357415183
vt 0.0108690299 0.365180923
vt 0.00698615982 0.365180923
vt 0.0108690299 0.372946663
vt 0.00698615982 0.372946663
vt 0.0108690299 0.380712403
vt 0.00698615982 0.380712403
vt 0.0108690299 0.617567477
vt 0.00698615982 0.617567477
vt 0.0108690299 0.625333217
vt 0.00698615982 0.625333217
vt 0.0108690299 0.634069675
vt 0.00698615982 0.634069675
vt 0.0108690299 0.641835415
vt 0.00698615982 0.641835415
vt 0.0108690299 0.649601155
vt 0.00698615982 0.649601155
vt 0.0108690299 0.657366895
vt 0.00698615982 0.657366895
vt 0.0108690299 0.894221969
vt 0.00698615982 0.894221969
vt 0.0108690299 0.901987709
vt 0.00698615982 0.901987709
vt 0.0108690299 0.90975345
vt 0.00698615982 0.90975345
vt 0.0108690299 0.918489907
vt 0.00698615982 0.918489907
vt 0.0108690299 0.926255647
vt 0.00698615982 0.926255647
vt 0.0108690299 0.934021387
vt 0.00698615982 0.934021387
vt 0.0108690299 0.997118026
vt 0.00698615982 0.997118026
vt 0.0196054875 0.934021387
vt 0.0196054875 0.997118026
vt 0.0225176401 0.997118026
vt 0.0225176401 0.934021387
vt 0.0196054875 0.926255647
vt 0.0399905554 0.934021387
vt 0.0399905554 0.997118026
vt 0.0438734254 0.997118026
vt 0.0438734254 0.934021387
vt 0.0225176401 0.926255647
vt 0.0196054875 0.918489907
vt 0.0399905554 0.926255647
vt 0.0438734254 0.926255647
vt 0.0225176401 0.918489907
vt 0.0196054875 0.90975345
vt 0.0399905554 0.918489907
vt 0.0438734254 0.918489907
vt 0.0225176401 0.90975345
vt 0.0196054875 0.901987709
vt 0.0399905554 0.90975345
vt 0.0438734254 0.90975345
vt 0.0225176401 0.901987709
vt 0.0196054875 0.894221969
vt 0.0399905554 0.901987709
vt 0.0438734254 0.901987709
vt 0.0225176401 0.894221969
vt 0.0196054875 0.657366895
vt 0.0399905554 0.894221969
vt 0.0438734254 0.894221969
vt 0.0225176401 0.657366895
vt 0.0196054875 0.649601155
vt 0.0399905554 0.657366895
vt 0.0438734254 0.657366895
vt 0.0225176401 0.649601155
vt 0.0196054875 0.641835415
vt 0.0399905554 0.649601155
vt 0.0438734254 0.649601155
vt 0.0225176401 0.641835415
vt 0.0196054875 0.634069675
vt 0.0399905554 0.641835415
vt 0.0438734254 0.641835415
vt 0.0225176401 0.634069675
vt 0.0196054875 0.625333217
vt 0.0399905554 0.634069675
vt 0.0438734254 0.634069675
vt 0.0225176401 0.625333217
vt 0.0196054875 0.617567477
vt 0.0399905554 0.625333217
vt 0.0438734254 0.625333217
vt 0.0225176401 0.617567477
vt 0.0196054875 0.380712403
vt 0.0399905554 0.617567477
vt 0.0438734254 0.617567477
vt 0.0225176401 0.380712403
vt 0.0196054875 0.372946663
vt 0.0399905554 0.380712403
vt 0.0438734254 0.380712403
vt 0.0225176401 0.372946663
vt 0.0196054875 0.365180923
vt 0.0399905554 0.372946663
vt 0.0438734254 0.372946663
vt 0.0225176401 0.365180923
vt 0.0196054875 0.357415183
vt 0.0399905554 0.365180923
vt 0.0438734254 0.365180923
vt 0.0225176401 0.357415183
vt 0.0196054875 0.348678725
vt 0.0399905554 0.357415183
vt 0.0438734254 0.357415183
vt 0.0225176401 0.348678725
vt 0.0196054875 0.340912985
vt 0.0399905554 0.348678725
vt 0.0438734254 0.348678725
vt 0.0225176401 0.340912985
vt 0.0196054875 0.105028629
vt 0.0399905554 0.340912985
vt 0.0438734254 0.340912985
vt 0.0225176401 0.105028629
vt 0.0196054875 0.0962921713
vt 0.0399905554 0.105028629
vt 0.0438734254 0.105028629
vt 0.0225176401 0.0962921713
vt 0.0196054875 0.0885264312
vt 0.0399905554 0.0962921713
vt 0.0438734254 0.0962921713
vt 0.0225176401 0.0885264312
vt 0.0196054875 0.080760691
vt 0.0399905554 0.0885264312
vt 0.0438734254 0.0885264312
vt 0.0225176401 0.080760691
vt 0.0196054875 0.0729949509
vt 0.0399905554 0.080760691
vt 0.0438734254 0.080760691
vt 0.0225176401 0.0729949509
vt 0.0196054875 0.0642584933
vt 0.0399905554 0.0729949509
vt 0.0438734254 0.0729949509
vt 0.0225176401 0.0642584933
vt 0.0196054875 0.00407400727
vt 0.0225176401 0.00407400727
vt 0.0399905554 0.0642584933
vt 0.0438734254 0.0642584933
vt 0.0399905554 0.00407400727
vt 0.0438734254 0.00407400727
vt 0.110852934 0.0661999283
vt 0.110852934 0.00407400727
vt 0.104057911 0.00407400727
vt 0.104057911 0.0661999283
vt 0.110852934 0.0739656684
vt 0.104057911 0.0739656684
vt 0.110852934 0.0817314085
vt 0.104057911 0.0817314085
vt 0.110852934 0.0894971487
vt 0.104057911 0.0894971487
vt 0.110852934 0.0972628888
vt 0.104057911 0.0972628888
vt 0.110852934 0.105028629
vt 0.104057911 0.105028629
vt 0.110852934 0.337030115
vt 0.104057911 0.337030115
vt 0.110852934 0.344795855
vt 0.104057911 0.344795855
vt 0.110852934 0.352561595
vt 0.104057911 0.352561595
vt 0.110852934 0.360327336
vt 0.104057911 0.360327336
vt 0.110852934 0.368093076
vt 0.104057911 0.368093076
vt 0.110852934 0.375858816
vt 0.104057911 0.375858816
vt 0.110852934 0.607860302
vt 0.104057911 0.607860302
vt 0.110852934 0.615626042
vt 0.104057911 0.615626042
vt 0.110852934 0.6243625
vt 0.104057911 0.6243625
vt 0.110852934 0.63212824
vt 0.104057911 0.63212824
vt 0.110852934 0.63989398
vt 0.104057911 0.63989398
vt 0.110852934 0.64765972
vt 0.104057911 0.64765972
vt 0.110852934 0.879661207
vt 0.104057911 0.879661207
vt 0.110852934 0.887426947
vt 0.104057911 0.887426947
vt 0.110852934 0.895192687
vt 0.104057911 0.895192687
vt 0.110852934 0.902958427
vt 0.104057911 0.902958427
vt 0.110852934 0.910724167
vt 0.104057911 0.910724167
vt 0.110852934 0.918489907
vt 0.104057911 0.918489907
vt 0.104057911 0.977703676
vt 0.110852934 0.977703676
vt 0.0108690299 0.934021387
vt 0.0108690299 0.997118026
vt 0.0128104649 0.997118026
vt 0.0128104649 0.934021387
vt 0.0108690299 0.926255647
vt 0.016693335 0.934021387
vt 0.016693335 0.997118026
vt 0.0196054875 0.997118026
vt 0.0196054875 0.934021387
vt 0.0128104649 0.926255647
vt 0.0108690299 0.918489907
vt 0.016693335 0.926255647
vt 0.0196054875 0.926255647
vt 0.0128104649 0.918489907
vt 0.0108690299 0.90975345
vt 0.016693335 0.918489907
vt 0.0196054875 0.918489907
vt 0.0128104649 0.90975345
vt 0.0108690299 0.901987709
vt 0.016693335 0.90975345
vt 0.0196054875 0.90975345
vt 0.0128104649 0.901987709
vt 0.0108690299 0.894221969
vt 0.016693335 0.901987709
vt 0.0196054875 0.901987709
vt 0.0128104649 0.894221969
vt 0.0108690299 0.657366895
vt 0.016693335 0.894221969
vt 0.0196054875 0.894221969
vt 0.016693335 0.657366895
vt 0.0196054875 0.657366895
vt 0.0128104649 0.657366895
vt 0.0108690299 0.649601155
vt 0.0128104649 0.649601155
vt 0.0108690299 0.641835415
vt 0.016693335 0.649601155
vt 0.0196054875 0.649601155
vt 0.0128104649 0.641835415
vt 0.0108690299 0.634069675
vt 0.016693335 0.641835415
vt 0.0196054875 0.641835415
vt 0.0128104649 0.634069675
vt 0.0108690299 0.625333217
vt 0.016693335 0.634069675
vt 0.0196054875 0.634069675
vt 0.0128104649 0.625333217
vt 0.0108690299 0.617567477
vt 0.016693335 0.625333217
vt 0.0196054875 0.625333217
vt 0.0128104649 0.617567477
vt 0.0108690299 0.380712403
vt 0.016693335 0.617567477
vt 0.0196054875 0.617567477
vt 0.016693335 0.380712403
vt 0.0196054875 0.380712403
vt 0.0128104649 0.380712403
vt 0.0108690299 0.372946663
vt 0.0128104649 0.372946663
vt 0.0108690299 0.365180923
vt 0.016693335 0.372946663
vt 0.0196054875 0.372946663
vt 0.0128104649 0.365180923
vt 0.0108690299 0.357415183
vt 0.016693335 0.365180923
vt 0.0196054875 0.365180923
vt 0.0128104649 0.357415183
vt 0.0108690299 0.348678725
vt 0.016693335 0.357415183
vt 0.0196054875 0.357415183
vt 0.0128104649 0.348678725
vt 0.0108690299 0.340912985
vt 0.016693335 0.348678725
vt 0.0196054875 0.348678725
vt 0.0128104649 0.340912985
vt 0.0108690299 0.105028629
vt 0.016693335 0.340912985
vt 0.0196054875 0.340912985
vt 0.016693335 0.105028629
vt 0.0196054875 0.105028629
vt 0.0128104649 0.105028629
vt 0.0108690299 0.0962921713
vt 0.0128104649 0.0962921713
vt 0.0108690299 0.0885264312
vt 0.016693335 0.0962921713
vt 0.0196054875 0.0962921713
vt 0.0128104649 0.0885264312
vt 0.0108690299 0.080760691
vt 0.016693335 0.0885264312
vt 0.0196054875 0.0885264312
vt 0.0128104649 0.080760691
vt 0.0108690299 0.0729949509
vt 0.016693335 0.080760691
vt 0.0196054875 0.080760691
vt 0.0128104649 0.0729949509
vt 0.0108690299 0.0642584933
vt 0.016693335 0.0729949509
vt 0.0196054875 0.0729949509
vt 0.0128104649 0.0642584933
vt 0.0108690299 0.00407400727
vt 0.0128104649 0.00407400727
vt 0.016693335 0.00407400727
vt 0.016693335 0.0642584933
vt 0.0196054875 0.0642584933
vt 0.0196054875 0.00407400727
vt 0.253548409 0.874807619
vt 0.253548409 0.875778337
vt 0.254519126 0.874807619
vt 0.253548409 0.875778337
vt 0.253548409 0.874807619
vt 0.253548409 0.869954031
vt 0.254519126 0.874807619
vt 0.254519126 0.875778337
vt 0.255489844 0.875778337
vt 0.254519126 0.874807619
vt 0.255489844 0.874807619
vt 0.254519126 0.870924749
vt 0.253548409 0.869954031
vt 0.255489844 0.870924749
vt 0.255489844 0.870924749
vt 0.254519126 0.869954031
vt 0.254519126 0.868983314
vt 0.255489844 0.868983314
vt 0.254519126 0.869954031
vt 0.255489844 0.869954031
vt 0.256460561 0.875778337
vt 0.257431279 0.875778337
vt 0.257431279 0.874807619
vt 0.258401996 0.875778337
vt 0.256460561 0.874807619
vt 0.256460561 0.875778337
vt 0.256460561 0.874807619
vt 0.257431279 0.874807619
vt 0.258401996 0.874807619
vt 0.256460561 0.874807619
vt 0.256460561 0.870924749
vt 0.256460561 0.870924749
vt 0.256460561 0.869954031
vt 0.257431279 0.870924749
vt 0.258401996 0.870924749
vt 0.256460561 0.869954031
vt 0.256460561 0.869954031
vt 0.257431279 0.869954031
vt 0.257431279 0.869954031
vt 0.258401996 0.869954031
g weilanweilan_01_mobile_0
f 3/3/3 2/2/2 1/1/1
f 4/4/4 3/3/3 1/1/1
f 7/7/7 6/6/6 5/5/5
f 6/6/6 8/8/8 5/5/5
f 5/5/5 8/8/8 9/9/9
f 6/6/6 10/10/10 8/8/8
f 8/8/8 11/11/11 9/9/9
f 9/9/9 11/11/11 12/12/12
f 11/11/11 13/13/13 12/12/12
f 11/11/11 14/14/14 13/13/13
f 11/11/11 8/8/8 14/14/14
f 14/14/14 15/15/15 13/13/13
f 10/10/10 16/16/16 8/8/8
f 8/8/8 16/16/16 14/14/14
f 16/16/16 10/10/10 17/17/17
f 15/15/15 14/14/14 18/18/18
f 14/14/14 16/16/16 18/18/18
f 19/19/19 15/15/15 18/18/18
f 20/20/20 16/16/16 17/17/17
f 16/16/16 20/20/20 18/18/18
f 17/17/17 21/21/21 20/20/20
f 21/21/21 22/22/22 20/20/20
f 20/20/20 22/22/22 18/18/18
f 21/21/21 23/23/23 22/22/22
f 18/18/18 24/24/24 19/19/19
f 22/22/22 24/24/24 18/18/18
f 24/24/24 25/25/25 19/19/19
f 24/24/24 26/26/26 25/25/25
f 24/24/24 22/22/22 26/26/26
f 26/26/26 27/27/27 25/25/25
f 23/23/23 28/28/28 22/22/22
f 22/22/22 28/28/28 26/26/26
f 28/28/28 23/23/23 29/29/29
f 27/27/27 26/26/26 30/30/30
f 26/26/26 28/28/28 30/30/30
f 31/31/31 27/27/27 30/30/30
f 32/32/32 28/28/28 29/29/29
f 28/28/28 32/32/32 30/30/30
f 32/32/32 29/29/29 33/33/33
f 34/34/34 32/32/32 33/33/33
f 30/30/30 32/32/32 34/34/34
f 33/33/33 35/35/35 34/34/34
f 31/31/31 30/30/30 36/36/36
f 36/36/36 30/30/30 34/34/34
f 37/37/37 31/31/31 36/36/36
f 36/36/36 38/38/38 37/37/37
f 36/36/36 34/34/34 38/38/38
f 38/38/38 39/39/39 37/37/37
f 35/35/35 40/40/40 34/34/34
f 34/34/34 40/40/40 38/38/38
f 40/40/40 35/35/35 41/41/41
f 39/39/39 38/38/38 42/42/42
f 38/38/38 40/40/40 42/42/42
f 43/43/43 39/39/39 42/42/42
f 44/44/44 40/40/40 41/41/41
f 40/40/40 44/44/44 42/42/42
f 44/44/44 41/41/41 45/45/45
f 44/44/44 46/46/46 42/42/42
f 46/46/46 44/44/44 45/45/45
f 46/46/46 47/47/47 42/42/42
f 45/45/45 48/48/48 46/46/46
f 47/47/47 46/46/46 49/49/49
f 47/47/47 49/49/49 50/50/50
f 49/49/49 51/51/51 50/50/50
f 48/48/48 52/52/52 46/46/46
f 46/46/46 52/52/52 49/49/49
f 52/52/52 48/48/48 53/53/53
f 54/54/54 52/52/52 53/53/53
f 52/52/52 54/54/54 55/55/55
f 49/49/49 52/52/52 55/55/55
f 51/51/51 49/49/49 55/55/55
f 56/56/56 51/51/51 55/55/55
f 59/59/59 58/58/58 57/57/57
f 60/60/60 59/59/59 57/57/57
f 62/62/62 61/61/61 60/60/60
f 61/61/61 63/63/63 60/60/60
f 63/63/63 61/61/61 64/64/64
f 65/65/65 63/63/63 64/64/64
f 65/65/65 64/64/64 66/66/66
f 67/67/67 65/65/65 66/66/66
f 67/67/67 66/66/66 68/68/68
f 69/69/69 67/67/67 68/68/68
f 69/69/69 68/68/68 70/70/70
f 71/71/71 69/69/69 70/70/70
f 70/70/70 72/72/72 71/71/71
f 72/72/72 73/73/73 71/71/71
f 72/72/72 74/74/74 73/73/73
f 74/74/74 75/75/75 73/73/73
f 75/75/75 74/74/74 76/76/76
f 77/77/77 75/75/75 76/76/76
f 77/77/77 76/76/76 78/78/78
f 79/79/79 77/77/77 78/78/78
f 79/79/79 78/78/78 80/80/80
f 81/81/81 79/79/79 80/80/80
f 81/81/81 80/80/80 82/82/82
f 83/83/83 81/81/81 82/82/82
f 82/82/82 84/84/84 83/83/83
f 84/84/84 85/85/85 83/83/83
f 84/84/84 86/86/86 85/85/85
f 86/86/86 87/87/87 85/85/85
f 86/86/86 88/88/88 87/87/87
f 88/88/88 89/89/89 87/87/87
f 88/88/88 90/90/90 89/89/89
f 90/90/90 91/91/91 89/89/89
f 90/90/90 92/92/92 91/91/91
f 92/92/92 93/93/93 91/91/91
f 93/93/93 92/92/92 94/94/94
f 95/95/95 93/93/93 94/94/94
f 94/94/94 96/96/96 95/95/95
f 96/96/96 97/97/97 95/95/95
f 96/96/96 98/98/98 97/97/97
f 98/98/98 99/99/99 97/97/97
f 98/98/98 100/100/100 99/99/99
f 100/100/100 101/101/101 99/99/99
f 100/100/100 102/102/102 101/101/101
f 102/102/102 103/103/103 101/101/101
f 102/102/102 104/104/104 103/103/103
f 104/104/104 105/105/105 103/103/103
f 104/104/104 106/106/106 105/105/105
f 106/106/106 107/107/107 105/105/105
f 106/106/106 108/108/108 107/107/107
f 108/108/108 109/109/109 107/107/107
f 112/112/112 111/111/111 110/110/110
f 113/113/113 112/112/112 110/110/110
f 110/110/110 114/114/114 113/113/113
f 112/112/112 113/113/113 115/115/115
f 116/116/116 112/112/112 115/115/115
f 117/117/117 116/116/116 115/115/115
f 118/118/118 117/117/117 115/115/115
f 118/118/118 115/115/115 119/119/119
f 115/115/115 113/113/113 119/119/119
f 120/120/120 118/118/118 119/119/119
f 114/114/114 121/121/121 113/113/113
f 113/113/113 121/121/121 119/119/119
f 121/121/121 114/114/114 122/122/122
f 120/120/120 119/119/119 123/123/123
f 119/119/119 121/121/121 123/123/123
f 124/124/124 120/120/120 123/123/123
f 125/125/125 121/121/121 122/122/122
f 121/121/121 125/125/125 123/123/123
f 125/125/125 122/122/122 126/126/126
f 124/124/124 123/123/123 127/127/127
f 123/123/123 125/125/125 127/127/127
f 128/128/128 124/124/124 127/127/127
f 129/129/129 125/125/125 126/126/126
f 125/125/125 129/129/129 127/127/127
f 129/129/129 126/126/126 130/130/130
f 128/128/128 127/127/127 131/131/131
f 127/127/127 129/129/129 131/131/131
f 132/132/132 128/128/128 131/131/131
f 133/133/133 129/129/129 130/130/130
f 129/129/129 133/133/133 131/131/131
f 133/133/133 130/130/130 134/134/134
f 132/132/132 131/131/131 135/135/135
f 131/131/131 133/133/133 135/135/135
f 136/136/136 132/132/132 135/135/135
f 137/137/137 133/133/133 134/134/134
f 133/133/133 137/137/137 135/135/135
f 134/134/134 138/138/138 137/137/137
f 138/138/138 139/139/139 137/137/137
f 135/135/135 137/137/137 139/139/139
f 138/138/138 140/140/140 139/139/139
f 136/136/136 135/135/135 141/141/141
f 141/141/141 135/135/135 139/139/139
f 142/142/142 136/136/136 141/141/141
f 141/141/141 143/143/143 142/142/142
f 141/141/141 139/139/139 143/143/143
f 143/143/143 144/144/144 142/142/142
f 140/140/140 145/145/145 139/139/139
f 139/139/139 145/145/145 143/143/143
f 145/145/145 140/140/140 146/146/146
f 144/144/144 143/143/143 147/147/147
f 143/143/143 145/145/145 147/147/147
f 148/148/148 144/144/144 147/147/147
f 149/149/149 145/145/145 146/146/146
f 145/145/145 149/149/149 147/147/147
f 149/149/149 146/146/146 150/150/150
f 148/148/148 147/147/147 151/151/151
f 147/147/147 149/149/149 151/151/151
f 152/152/152 148/148/148 151/151/151
f 153/153/153 149/149/149 150/150/150
f 149/149/149 153/153/153 151/151/151
f 153/153/153 150/150/150 154/154/154
f 152/152/152 151/151/151 155/155/155
f 151/151/151 153/153/153 155/155/155
f 156/156/156 152/152/152 155/155/155
f 157/157/157 153/153/153 154/154/154
f 153/153/153 157/157/157 155/155/155
f 157/157/157 154/154/154 158/158/158
f 156/156/156 155/155/155 159/159/159
f 155/155/155 157/157/157 159/159/159
f 160/160/160 156/156/156 159/159/159
f 161/161/161 157/157/157 158/158/158
f 157/157/157 161/161/161 159/159/159
f 158/158/158 162/162/162 161/161/161
f 162/162/162 163/163/163 161/161/161
f 161/161/161 163/163/163 159/159/159
f 162/162/162 164/164/164 163/163/163
f 160/160/160 159/159/159 165/165/165
f 163/163/163 165/165/165 159/159/159
f 166/166/166 160/160/160 165/165/165
f 165/165/165 167/167/167 166/166/166
f 167/167/167 165/165/165 163/163/163
f 167/167/167 168/168/168 166/166/166
f 164/164/164 169/169/169 163/163/163
f 169/169/169 167/167/167 163/163/163
f 164/164/164 170/170/170 169/169/169
f 167/167/167 171/171/171 168/168/168
f 171/171/171 167/167/167 169/169/169
f 171/171/171 172/172/172 168/168/168
f 170/170/170 173/173/173 169/169/169
f 173/173/173 171/171/171 169/169/169
f 170/170/170 174/174/174 173/173/173
f 171/171/171 175/175/175 172/172/172
f 175/175/175 171/171/171 173/173/173
f 175/175/175 176/176/176 172/172/172
f 174/174/174 177/177/177 173/173/173
f 177/177/177 175/175/175 173/173/173
f 174/174/174 178/178/178 177/177/177
f 175/175/175 179/179/179 176/176/176
f 179/179/179 175/175/175 177/177/177
f 179/179/179 180/180/180 176/176/176
f 178/178/178 181/181/181 177/177/177
f 181/181/181 179/179/179 177/177/177
f 181/181/181 178/178/178 182/182/182
f 180/180/180 179/179/179 183/183/183
f 183/183/183 179/179/179 181/181/181
f 184/184/184 180/180/180 183/183/183
f 185/185/185 181/181/181 182/182/182
f 185/185/185 183/183/183 181/181/181
f 182/182/182 186/186/186 185/185/185
f 186/186/186 187/187/187 185/185/185
f 185/185/185 187/187/187 183/183/183
f 186/186/186 188/188/188 187/187/187
f 184/184/184 183/183/183 189/189/189
f 187/187/187 189/189/189 183/183/183
f 190/190/190 184/184/184 189/189/189
f 189/189/189 191/191/191 190/190/190
f 191/191/191 189/189/189 187/187/187
f 191/191/191 192/192/192 190/190/190
f 188/188/188 193/193/193 187/187/187
f 193/193/193 191/191/191 187/187/187
f 188/188/188 194/194/194 193/193/193
f 191/191/191 195/195/195 192/192/192
f 195/195/195 191/191/191 193/193/193
f 195/195/195 196/196/196 192/192/192
f 194/194/194 197/197/197 193/193/193
f 197/197/197 195/195/195 193/193/193
f 194/194/194 198/198/198 197/197/197
f 195/195/195 199/199/199 196/196/196
f 199/199/199 195/195/195 197/197/197
f 199/199/199 200/200/200 196/196/196
f 198/198/198 201/201/201 197/197/197
f 201/201/201 199/199/199 197/197/197
f 198/198/198 202/202/202 201/201/201
f 199/199/199 203/203/203 200/200/200
f 203/203/203 199/199/199 201/201/201
f 203/203/203 204/204/204 200/200/200
f 202/202/202 205/205/205 201/201/201
f 205/205/205 203/203/203 201/201/201
f 202/202/202 206/206/206 205/205/205
f 204/204/204 203/203/203 207/207/207
f 207/207/207 203/203/203 205/205/205
f 208/208/208 204/204/204 207/207/207
f 206/206/206 209/209/209 205/205/205
f 209/209/209 207/207/207 205/205/205
f 206/206/206 210/210/210 209/209/209
f 210/210/210 211/211/211 209/209/209
f 209/209/209 211/211/211 207/207/207
f 211/211/211 212/212/212 207/207/207
f 207/207/207 212/212/212 208/208/208
f 212/212/212 213/213/213 208/208/208
f 216/216/216 215/215/215 214/214/214
f 217/217/217 216/216/216 214/214/214
f 214/214/214 218/218/218 217/217/217
f 218/218/218 219/219/219 217/217/217
f 219/219/219 218/218/218 220/220/220
f 221/221/221 219/219/219 220/220/220
f 221/221/221 220/220/220 222/222/222
f 223/223/223 221/221/221 222/222/222
f 223/223/223 222/222/222 224/224/224
f 225/225/225 223/223/223 224/224/224
f 225/225/225 224/224/224 226/226/226
f 227/227/227 225/225/225 226/226/226
f 227/227/227 226/226/226 228/228/228
f 229/229/229 227/227/227 228/228/228
f 228/228/228 230/230/230 229/229/229
f 230/230/230 231/231/231 229/229/229
f 231/231/231 230/230/230 232/232/232
f 233/233/233 231/231/231 232/232/232
f 233/233/233 232/232/232 234/234/234
f 235/235/235 233/233/233 234/234/234
f 235/235/235 234/234/234 236/236/236
f 237/237/237 235/235/235 236/236/236
f 237/237/237 236/236/236 238/238/238
f 239/239/239 237/237/237 238/238/238
f 238/238/238 240/240/240 239/239/239
f 240/240/240 241/241/241 239/239/239
f 240/240/240 242/242/242 241/241/241
f 242/242/242 243/243/243 241/241/241
f 242/242/242 244/244/244 243/243/243
f 244/244/244 245/245/245 243/243/243
f 244/244/244 246/246/246 245/245/245
f 246/246/246 247/247/247 245/245/245
f 246/246/246 248/248/248 247/247/247
f 248/248/248 249/249/249 247/247/247
f 249/249/249 248/248/248 250/250/250
f 251/251/251 249/249/249 250/250/250
f 250/250/250 252/252/252 251/251/251
f 252/252/252 253/253/253 251/251/251
f 252/252/252 254/254/254 253/253/253
f 254/254/254 255/255/255 253/253/253
f 254/254/254 256/256/256 255/255/255
f 256/256/256 257/257/257 255/255/255
f 256/256/256 258/258/258 257/257/257
f 258/258/258 259/259/259 257/257/257
f 258/258/258 260/260/260 259/259/259
f 260/260/260 261/261/261 259/259/259
f 260/260/260 262/262/262 261/261/261
f 262/262/262 263/263/263 261/261/261
f 262/262/262 264/264/264 263/263/263
f 264/264/264 265/265/265 263/263/263
f 268/268/268 267/267/267 266/266/266
f 269/269/269 268/268/268 266/266/266
f 266/266/266 270/270/270 269/269/269
f 268/268/268 269/269/269 271/271/271
f 272/272/272 268/268/268 271/271/271
f 273/273/273 272/272/272 271/271/271
f 274/274/274 273/273/273 271/271/271
f 270/270/270 275/275/275 269/269/269
f 269/269/269 275/275/275 271/271/271
f 275/275/275 270/270/270 276/276/276
f 271/271/271 277/277/277 274/274/274
f 275/275/275 277/277/277 271/271/271
f 277/277/277 278/278/278 274/274/274
f 279/279/279 275/275/275 276/276/276
f 275/275/275 279/279/279 277/277/277
f 279/279/279 276/276/276 280/280/280
f 278/278/278 277/277/277 281/281/281
f 279/279/279 281/281/281 277/277/277
f 282/282/282 278/278/278 281/281/281
f 283/283/283 279/279/279 280/280/280
f 279/279/279 283/283/283 281/281/281
f 283/283/283 280/280/280 284/284/284
f 282/282/282 281/281/281 285/285/285
f 283/283/283 285/285/285 281/281/281
f 286/286/286 282/282/282 285/285/285
f 287/287/287 283/283/283 284/284/284
f 283/283/283 287/287/287 285/285/285
f 287/287/287 284/284/284 288/288/288
f 286/286/286 285/285/285 289/289/289
f 287/287/287 289/289/289 285/285/285
f 290/290/290 286/286/286 289/289/289
f 291/291/291 287/287/287 288/288/288
f 287/287/287 291/291/291 289/289/289
f 291/291/291 288/288/288 292/292/292
f 290/290/290 289/289/289 293/293/293
f 291/291/291 293/293/293 289/289/289
f 294/294/294 290/290/290 293/293/293
f 295/295/295 291/291/291 292/292/292
f 291/291/291 295/295/295 293/293/293
f 292/292/292 296/296/296 295/295/295
f 293/293/293 297/297/297 294/294/294
f 295/295/295 297/297/297 293/293/293
f 297/297/297 298/298/298 294/294/294
f 296/296/296 299/299/299 295/295/295
f 295/295/295 299/299/299 297/297/297
f 299/299/299 296/296/296 300/300/300
f 297/297/297 301/301/301 298/298/298
f 299/299/299 301/301/301 297/297/297
f 301/301/301 302/302/302 298/298/298
f 303/303/303 299/299/299 300/300/300
f 299/299/299 303/303/303 301/301/301
f 303/303/303 300/300/300 304/304/304
f 302/302/302 301/301/301 305/305/305
f 303/303/303 305/305/305 301/301/301
f 306/306/306 302/302/302 305/305/305
f 307/307/307 303/303/303 304/304/304
f 303/303/303 307/307/307 305/305/305
f 307/307/307 304/304/304 308/308/308
f 306/306/306 305/305/305 309/309/309
f 307/307/307 309/309/309 305/305/305
f 310/310/310 306/306/306 309/309/309
f 311/311/311 307/307/307 308/308/308
f 307/307/307 311/311/311 309/309/309
f 311/311/311 308/308/308 312/312/312
f 310/310/310 309/309/309 313/313/313
f 311/311/311 313/313/313 309/309/309
f 314/314/314 310/310/310 313/313/313
f 315/315/315 311/311/311 312/312/312
f 311/311/311 315/315/315 313/313/313
f 315/315/315 312/312/312 316/316/316
f 314/314/314 313/313/313 317/317/317
f 315/315/315 317/317/317 313/313/313
f 318/318/318 314/314/314 317/317/317
f 319/319/319 315/315/315 316/316/316
f 315/315/315 319/319/319 317/317/317
f 316/316/316 320/320/320 319/319/319
f 317/317/317 321/321/321 318/318/318
f 319/319/319 321/321/321 317/317/317
f 321/321/321 322/322/322 318/318/318
f 320/320/320 323/323/323 319/319/319
f 319/319/319 323/323/323 321/321/321
f 320/320/320 324/324/324 323/323/323
f 321/321/321 325/325/325 322/322/322
f 323/323/323 325/325/325 321/321/321
f 325/325/325 326/326/326 322/322/322
f 324/324/324 327/327/327 323/323/323
f 323/323/323 327/327/327 325/325/325
f 324/324/324 328/328/328 327/327/327
f 325/325/325 329/329/329 326/326/326
f 327/327/327 329/329/329 325/325/325
f 329/329/329 330/330/330 326/326/326
f 328/328/328 331/331/331 327/327/327
f 327/327/327 331/331/331 329/329/329
f 328/328/328 332/332/332 331/331/331
f 329/329/329 333/333/333 330/330/330
f 331/331/331 333/333/333 329/329/329
f 333/333/333 334/334/334 330/330/330
f 332/332/332 335/335/335 331/331/331
f 331/331/331 335/335/335 333/333/333
f 335/335/335 332/332/332 336/336/336
f 333/333/333 337/337/337 334/334/334
f 335/335/335 337/337/337 333/333/333
f 337/337/337 338/338/338 334/334/334
f 339/339/339 335/335/335 336/336/336
f 335/335/335 339/339/339 337/337/337
f 336/336/336 340/340/340 339/339/339
f 338/338/338 337/337/337 341/341/341
f 339/339/339 341/341/341 337/337/337
f 342/342/342 338/338/338 341/341/341
f 340/340/340 343/343/343 339/339/339
f 339/339/339 343/343/343 341/341/341
f 340/340/340 344/344/344 343/343/343
f 341/341/341 345/345/345 342/342/342
f 343/343/343 345/345/345 341/341/341
f 345/345/345 346/346/346 342/342/342
f 344/344/344 347/347/347 343/343/343
f 343/343/343 347/347/347 345/345/345
f 344/344/344 348/348/348 347/347/347
f 345/345/345 349/349/349 346/346/346
f 347/347/347 349/349/349 345/345/345
f 349/349/349 350/350/350 346/346/346
f 348/348/348 351/351/351 347/347/347
f 347/347/347 351/351/351 349/349/349
f 348/348/348 352/352/352 351/351/351
f 349/349/349 353/353/353 350/350/350
f 351/351/351 353/353/353 349/349/349
f 353/353/353 354/354/354 350/350/350
f 352/352/352 355/355/355 351/351/351
f 351/351/351 355/355/355 353/353/353
f 352/352/352 356/356/356 355/355/355
f 353/353/353 357/357/357 354/354/354
f 355/355/355 357/357/357 353/353/353
f 357/357/357 358/358/358 354/354/354
f 356/356/356 359/359/359 355/355/355
f 355/355/355 359/359/359 357/357/357
f 356/356/356 360/360/360 359/359/359
f 357/357/357 361/361/361 358/358/358
f 359/359/359 361/361/361 357/357/357
f 361/361/361 362/362/362 358/358/358
f 360/360/360 363/363/363 359/359/359
f 359/359/359 363/363/363 361/361/361
f 360/360/360 364/364/364 363/363/363
f 364/364/364 365/365/365 363/363/363
f 361/361/361 366/366/366 362/362/362
f 363/363/363 366/366/366 361/361/361
f 363/363/363 365/365/365 366/366/366
f 366/366/366 367/367/367 362/362/362
f 365/365/365 368/368/368 366/366/366
f 366/366/366 368/368/368 367/367/367
f 368/368/368 369/369/369 367/367/367
f 372/372/372 371/371/371 370/370/370
f 373/373/373 372/372/372 370/370/370
f 373/373/373 370/370/370 374/374/374
f 375/375/375 373/373/373 374/374/374
f 375/375/375 374/374/374 376/376/376
f 377/377/377 375/375/375 376/376/376
f 377/377/377 376/376/376 378/378/378
f 379/379/379 377/377/377 378/378/378
f 379/379/379 378/378/378 380/380/380
f 381/381/381 379/379/379 380/380/380
f 381/381/381 380/380/380 382/382/382
f 383/383/383 381/381/381 382/382/382
f 383/383/383 382/382/382 384/384/384
f 385/385/385 383/383/383 384/384/384
f 385/385/385 384/384/384 386/386/386
f 387/387/387 385/385/385 386/386/386
f 387/387/387 386/386/386 388/388/388
f 389/389/389 387/387/387 388/388/388
f 389/389/389 388/388/388 390/390/390
f 391/391/391 389/389/389 390/390/390
f 391/391/391 390/390/390 392/392/392
f 393/393/393 391/391/391 392/392/392
f 393/393/393 392/392/392 394/394/394
f 395/395/395 393/393/393 394/394/394
f 395/395/395 394/394/394 396/396/396
f 397/397/397 395/395/395 396/396/396
f 397/397/397 396/396/396 398/398/398
f 399/399/399 397/397/397 398/398/398
f 399/399/399 398/398/398 400/400/400
f 401/401/401 399/399/399 400/400/400
f 401/401/401 400/400/400 402/402/402
f 403/403/403 401/401/401 402/402/402
f 403/403/403 402/402/402 404/404/404
f 405/405/405 403/403/403 404/404/404
f 405/405/405 404/404/404 406/406/406
f 407/407/407 405/405/405 406/406/406
f 407/407/407 406/406/406 408/408/408
f 409/409/409 407/407/407 408/408/408
f 409/409/409 408/408/408 410/410/410
f 411/411/411 409/409/409 410/410/410
f 411/411/411 410/410/410 412/412/412
f 413/413/413 411/411/411 412/412/412
f 413/413/413 412/412/412 414/414/414
f 415/415/415 413/413/413 414/414/414
f 415/415/415 414/414/414 416/416/416
f 417/417/417 415/415/415 416/416/416
f 417/417/417 416/416/416 418/418/418
f 419/419/419 417/417/417 418/418/418
f 420/420/420 419/419/419 418/418/418
f 421/421/421 420/420/420 418/418/418
f 424/424/424 423/423/423 422/422/422
f 425/425/425 424/424/424 422/422/422
f 425/425/425 422/422/422 426/426/426
f 424/424/424 425/425/425 427/427/427
f 428/428/428 424/424/424 427/427/427
f 429/429/429 428/428/428 427/427/427
f 430/430/430 429/429/429 427/427/427
f 431/431/431 425/425/425 426/426/426
f 427/427/427 425/425/425 431/431/431
f 431/431/431 426/426/426 432/432/432
f 427/427/427 433/433/433 430/430/430
f 433/433/433 427/427/427 431/431/431
f 433/433/433 434/434/434 430/430/430
f 435/435/435 431/431/431 432/432/432
f 433/433/433 431/431/431 435/435/435
f 435/435/435 432/432/432 436/436/436
f 434/434/434 433/433/433 437/437/437
f 437/437/437 433/433/433 435/435/435
f 438/438/438 434/434/434 437/437/437
f 439/439/439 435/435/435 436/436/436
f 437/437/437 435/435/435 439/439/439
f 439/439/439 436/436/436 440/440/440
f 438/438/438 437/437/437 441/441/441
f 441/441/441 437/437/437 439/439/439
f 442/442/442 438/438/438 441/441/441
f 443/443/443 439/439/439 440/440/440
f 441/441/441 439/439/439 443/443/443
f 443/443/443 440/440/440 444/444/444
f 442/442/442 441/441/441 445/445/445
f 445/445/445 441/441/441 443/443/443
f 446/446/446 442/442/442 445/445/445
f 447/447/447 443/443/443 444/444/444
f 445/445/445 443/443/443 447/447/447
f 447/447/447 444/444/444 448/448/448
f 446/446/446 445/445/445 449/449/449
f 449/449/449 445/445/445 447/447/447
f 450/450/450 446/446/446 449/449/449
f 450/450/450 449/449/449 451/451/451
f 449/449/449 447/447/447 451/451/451
f 452/452/452 450/450/450 451/451/451
f 453/453/453 447/447/447 448/448/448
f 447/447/447 453/453/453 451/451/451
f 448/448/448 454/454/454 453/453/453
f 454/454/454 455/455/455 453/453/453
f 451/451/451 453/453/453 455/455/455
f 455/455/455 454/454/454 456/456/456
f 451/451/451 457/457/457 452/452/452
f 457/457/457 451/451/451 455/455/455
f 457/457/457 458/458/458 452/452/452
f 459/459/459 455/455/455 456/456/456
f 457/457/457 455/455/455 459/459/459
f 459/459/459 456/456/456 460/460/460
f 458/458/458 457/457/457 461/461/461
f 461/461/461 457/457/457 459/459/459
f 462/462/462 458/458/458 461/461/461
f 463/463/463 459/459/459 460/460/460
f 461/461/461 459/459/459 463/463/463
f 463/463/463 460/460/460 464/464/464
f 462/462/462 461/461/461 465/465/465
f 465/465/465 461/461/461 463/463/463
f 466/466/466 462/462/462 465/465/465
f 467/467/467 463/463/463 464/464/464
f 465/465/465 463/463/463 467/467/467
f 467/467/467 464/464/464 468/468/468
f 466/466/466 465/465/465 469/469/469
f 469/469/469 465/465/465 467/467/467
f 470/470/470 466/466/466 469/469/469
f 471/471/471 467/467/467 468/468/468
f 469/469/469 467/467/467 471/471/471
f 471/471/471 468/468/468 472/472/472
f 470/470/470 469/469/469 473/473/473
f 473/473/473 469/469/469 471/471/471
f 474/474/474 470/470/470 473/473/473
f 474/474/474 473/473/473 475/475/475
f 473/473/473 471/471/471 475/475/475
f 476/476/476 474/474/474 475/475/475
f 477/477/477 471/471/471 472/472/472
f 471/471/471 477/477/477 475/475/475
f 472/472/472 478/478/478 477/477/477
f 478/478/478 479/479/479 477/477/477
f 477/477/477 479/479/479 475/475/475
f 478/478/478 480/480/480 479/479/479
f 475/475/475 481/481/481 476/476/476
f 479/479/479 481/481/481 475/475/475
f 481/481/481 482/482/482 476/476/476
f 480/480/480 483/483/483 479/479/479
f 479/479/479 483/483/483 481/481/481
f 480/480/480 484/484/484 483/483/483
f 481/481/481 485/485/485 482/482/482
f 483/483/483 485/485/485 481/481/481
f 485/485/485 486/486/486 482/482/482
f 484/484/484 487/487/487 483/483/483
f 483/483/483 487/487/487 485/485/485
f 484/484/484 488/488/488 487/487/487
f 485/485/485 489/489/489 486/486/486
f 487/487/487 489/489/489 485/485/485
f 489/489/489 490/490/490 486/486/486
f 488/488/488 491/491/491 487/487/487
f 487/487/487 491/491/491 489/489/489
f 491/491/491 488/488/488 492/492/492
f 489/489/489 493/493/493 490/490/490
f 491/491/491 493/493/493 489/489/489
f 493/493/493 494/494/494 490/490/490
f 495/495/495 491/491/491 492/492/492
f 491/491/491 495/495/495 493/493/493
f 492/492/492 496/496/496 495/495/495
f 494/494/494 493/493/493 497/497/497
f 495/495/495 497/497/497 493/493/493
f 498/498/498 494/494/494 497/497/497
f 497/497/497 499/499/499 498/498/498
f 499/499/499 497/497/497 495/495/495
f 499/499/499 500/500/500 498/498/498
f 496/496/496 501/501/501 495/495/495
f 501/501/501 499/499/499 495/495/495
f 496/496/496 502/502/502 501/501/501
f 502/502/502 503/503/503 501/501/501
f 501/501/501 503/503/503 499/499/499
f 502/502/502 504/504/504 503/503/503
f 499/499/499 505/505/505 500/500/500
f 503/503/503 505/505/505 499/499/499
f 505/505/505 506/506/506 500/500/500
f 504/504/504 507/507/507 503/503/503
f 503/503/503 507/507/507 505/505/505
f 504/504/504 508/508/508 507/507/507
f 505/505/505 509/509/509 506/506/506
f 507/507/507 509/509/509 505/505/505
f 509/509/509 510/510/510 506/506/506
f 508/508/508 511/511/511 507/507/507
f 507/507/507 511/511/511 509/509/509
f 508/508/508 512/512/512 511/511/511
f 509/509/509 513/513/513 510/510/510
f 511/511/511 513/513/513 509/509/509
f 513/513/513 514/514/514 510/510/510
f 512/512/512 515/515/515 511/511/511
f 511/511/511 515/515/515 513/513/513
f 515/515/515 512/512/512 516/516/516
f 513/513/513 517/517/517 514/514/514
f 515/515/515 517/517/517 513/513/513
f 517/517/517 518/518/518 514/514/514
f 519/519/519 515/515/515 516/516/516
f 515/515/515 519/519/519 517/517/517
f 516/516/516 520/520/520 519/519/519
f 520/520/520 521/521/521 519/519/519
f 521/521/521 522/522/522 519/519/519
f 517/517/517 523/523/523 518/518/518
f 519/519/519 523/523/523 517/517/517
f 522/522/522 523/523/523 519/519/519
f 523/523/523 524/524/524 518/518/518
f 523/523/523 522/522/522 524/524/524
f 522/522/522 525/525/525 524/524/524
f 528/528/528 527/527/527 526/526/526
f 529/529/529 527/527/527 528/528/528
f 530/530/530 528/528/528 526/526/526
f 530/530/530 526/526/526 531/531/531
f 529/529/529 528/528/528 532/532/532
f 533/533/533 529/529/529 532/532/532
f 532/532/532 534/534/534 533/533/533
f 535/535/535 532/532/532 528/528/528
f 534/534/534 532/532/532 535/535/535
f 530/530/530 535/535/535 528/528/528
f 536/536/536 534/534/534 535/535/535
f 537/537/537 530/530/530 531/531/531
f 530/530/530 537/537/537 535/535/535
f 531/531/531 538/538/538 537/537/537
f 536/536/536 535/535/535 539/539/539
f 537/537/537 539/539/539 535/535/535
f 540/540/540 536/536/536 539/539/539
f 538/538/538 541/541/541 537/537/537
f 537/537/537 541/541/541 539/539/539
f 541/541/541 538/538/538 542/542/542
f 541/541/541 542/542/542 543/543/543
f 539/539/539 544/544/544 540/540/540
f 541/541/541 544/544/544 539/539/539
f 544/544/544 541/541/541 543/543/543
f 544/544/544 545/545/545 540/540/540
f 543/543/543 545/545/545 544/544/544
f 548/548/548 547/547/547 546/546/546
f 548/548/548 549/549/549 547/547/547
f 550/550/550 548/548/548 546/546/546
f 546/546/546 551/551/551 550/550/550
f 550/550/550 551/551/551 552/552/552
f 549/549/549 548/548/548 553/553/553
f 553/553/553 548/548/548 550/550/550
f 554/554/554 549/549/549 553/553/553
f 555/555/555 550/550/550 552/552/552
f 555/555/555 553/553/553 550/550/550
f 555/555/555 552/552/552 556/556/556
f 557/557/557 555/555/555 556/556/556
f 555/555/555 557/557/557 553/553/553
f 556/556/556 558/558/558 557/557/557
f 554/554/554 553/553/553 559/559/559
f 557/557/557 559/559/559 553/553/553
f 560/560/560 554/554/554 559/559/559
f 558/558/558 561/561/561 557/557/557
f 557/557/557 561/561/561 559/559/559
f 561/561/561 558/558/558 562/562/562
f 562/562/562 563/563/563 561/561/561
f 559/559/559 564/564/564 560/560/560
f 561/561/561 564/564/564 559/559/559
f 563/563/563 564/564/564 561/561/561
f 564/564/564 565/565/565 560/560/560
f 563/563/563 565/565/565 564/564/564
