g YuanHuan_24
v 0.794245388 0.530554631 -0.0691309105
v 0.691768062 0.652579922 -0.0937383476
v 0.945523632 0.734957342 0.36138425
v 0.811355606 0.880256209 0.335074991
v 1.09684787 0.939360053 0.791853416
v 0.570892651 0.755517201 -0.118299789
v 0.930943151 1.10797849 0.763842334
v 0.655155875 1.00154558 0.308719736
v 0.435114793 0.836698745 -0.142861231
v 0.739419099 1.24757395 0.735785256
v 0.481247988 1.09551379 0.282410476
v 0.288298084 0.893962781 -0.167422673
v 0.527335188 1.35437483 0.707728178
v 0.294231466 1.15963111 0.256101216
v 0.134490103 0.925883457 -0.19193812
v 0.300210843 1.42534544 0.679625105
v 0.0992577728 1.19219572 0.229791956
v -0.0219396043 0.931816839 -0.216453567
v 0.0640714375 1.45846199 0.651476037
v -0.0983836425 1.19224171 0.203436701
v -0.176667489 0.911670937 -0.240923018
v -0.174781685 1.45271259 0.623372964
v -0.293357336 1.15986109 0.177127441
v -0.325415997 0.866181675 -0.265392469
v -0.410047182 1.40805124 0.5951779
v -0.480373857 1.09588175 0.150818181
v -0.464137548 0.796820899 -0.289861921
v -0.635331718 1.32558183 0.567028832
v -0.654373735 1.00205152 0.124462926
v -0.588922552 0.705566403 -0.314285377
v -0.844655917 1.20728215 0.538833769
v -0.810665457 0.880854147 0.0981536664
v -0.696505347 0.595131905 -0.338708833
v -1.03240836 1.05614189 0.51059271
v -0.944971469 0.73564727 0.0718444066
v -0.78394224 0.468645079 -0.363086294
v -1.1933916 0.876162635 0.482351651
v -1.05361215 0.570248497 0.0455351468
v -0.848841481 0.329693551 -0.387463756
v -1.32328207 0.67189791 0.454110593
v -1.13364382 0.389211352 0.0191798917
v -0.889593236 0.182232909 -0.411795221
v -1.41844616 0.448729153 0.425823539
v -1.18290469 0.197411329 -0.00712936812
v -0.905139617 0.0304027228 -0.436126687
v -1.47617014 0.212543752 0.397536485
v -1.20001491 -1.10650814E-07 -0.033438628
v -0.900816067 -0.0758002159 -0.454294795
v -1.4948442 -0.0304029441 0.369203436
v -1.18290469 -0.19741155 -0.059793883
v -0.871425129 -0.224226757 -0.47853427
v -1.46499331 -0.318976889 0.334753024
v -1.13364382 -0.389211573 -0.0861031428
v -0.8179327 -0.365064088 -0.502727751
v -1.39586251 -0.554242385 0.306327985
v -1.05361215 -0.570248718 -0.112412403
v -0.742040604 -0.494540603 -0.526921231
v -1.28924561 -0.775479343 0.277902945
v -0.944971469 -0.735647491 -0.138721663
v -0.646002607 -0.60911467 -0.551114711
v -1.14785634 -0.976708384 0.249477906
v -0.810665457 -0.880854368 -0.165076918
v -0.53257842 -0.705750605 -0.575262196
v -0.975328307 -1.15259407 0.221006871
v -0.654373735 -1.00205174 -0.191386177
v -0.405125695 -0.781826682 -0.599409681
v -0.776215045 -1.29835288 0.192489841
v -0.480373857 -1.09588197 -0.217695437
v -0.267278052 -0.835365106 -0.623511171
v -0.55562202 -1.40993726 0.164018806
v -0.293357336 -1.15986131 -0.244050692
v -0.122853094 -0.865078011 -0.647658656
v -0.319436619 -1.48435751 0.135455781
v -0.0983836425 -1.19224194 -0.270359952
v 0.02400961 -0.870229474 -0.67171415
v -0.0738681958 -1.51945186 0.106938751
v 0.0992577728 -1.19219594 -0.296669212
v 0.169170491 -0.850819496 -0.695769645
v 0.174551931 -1.51416241 0.0783757263
v 0.294231466 -1.15963133 -0.322978472
v 0.308673962 -0.807538004 -0.719825139
v 0.41929244 -1.46848916 0.0498127012
v 0.481247988 -1.09551401 -0.349333727
v 0.438610428 -0.741718859 -0.743880634
v 0.653776019 -1.38353601 0.0212036809
v 0.655155875 -1.0015458 -0.375642987
v 0.555392265 -0.655385851 -0.767890133
v 0.871747316 -1.26137274 -0.00740533938
v 0.811355606 -0.88025643 -0.401952247
v 0.655799808 -0.550976725 -0.791853637
v 1.06731895 -1.105173 -0.0360603549
v 0.945523632 -0.734957563 -0.428261506
v 1.23529345 -0.918938401 -0.0646693752
vt 0 0
vt 0.0332193573 0
vt 0 0.499755919
vt 0.0332193573 0.499755919
vt 0 1.00000036
vt 0.0664387145 0
vt 0.0332193573 1.00000036
vt 0.0664387145 0.499755919
vt 0.100146592 0
vt 0.0664387145 1.00000036
vt 0.100146592 0.499755919
vt 0.133365949 0
vt 0.100146592 1.00000036
vt 0.133365949 0.499755919
vt 0.166585306 0
vt 0.133365949 1.00000036
vt 0.166585306 0.499755919
vt 0.199804664 0
vt 0.166585306 1.00000036
vt 0.199804664 0.499755919
vt 0.233512541 0
vt 0.199804664 1.00000036
vt 0.233512541 0.499755919
vt 0.266731898 0
vt 0.233512541 1.00000036
vt 0.266731898 0.499755919
vt 0.299951255 0
vt 0.266731898 1.00000036
vt 0.299951255 0.499755919
vt 0.333170613 0
vt 0.299951255 1.00000036
vt 0.333170613 0.499755919
vt 0.36687849 0
vt 0.333170613 1.00000036
vt 0.36687849 0.499755919
vt 0.400097847 0
vt 0.36687849 1.00000036
vt 0.400097847 0.499755919
vt 0.433317204 0
vt 0.400097847 1.00000036
vt 0.433317204 0.499755919
vt 0.466536562 0
vt 0.433317204 1.00000036
vt 0.466536562 0.499755919
vt 0.500244439 0
vt 0.466536562 1.00000036
vt 0.500244439 0.499755919
vt 0.533463796 0
vt 0.500244439 1.00000036
vt 0.533463796 0.499755919
vt 0.566683153 0
vt 0.533463796 1.00000036
vt 0.566683153 0.499755919
vt 0.599902511 0
vt 0.566683153 1.00000036
vt 0.599902511 0.499755919
vt 0.633121868 0
vt 0.599902511 1.00000036
vt 0.633121868 0.499755919
vt 0.666829745 0
vt 0.633121868 1.00000036
vt 0.666829745 0.499755919
vt 0.700049102 0
vt 0.666829745 1.00000036
vt 0.700049102 0.499755919
vt 0.73326846 0
vt 0.700049102 1.00000036
vt 0.73326846 0.499755919
vt 0.766487817 0
vt 0.73326846 1.00000036
vt 0.766487817 0.499755919
vt 0.800195694 0
vt 0.766487817 1.00000036
vt 0.800195694 0.499755919
vt 0.833415051 0
vt 0.800195694 1.00000036
vt 0.833415051 0.499755919
vt 0.866634409 0
vt 0.833415051 1.00000036
vt 0.866634409 0.499755919
vt 0.899853766 0
vt 0.866634409 1.00000036
vt 0.899853766 0.499755919
vt 0.933561643 0
vt 0.899853766 1.00000036
vt 0.933561643 0.499755919
vt 0.966781 0
vt 0.933561643 1.00000036
vt 0.966781 0.499755919
vt 1.00000036 0
vt 0.966781 1.00000036
vt 1.00000036 0.499755919
vt 1.00000036 1.00000036
vn -0.717076865 -0.502347078 0.483164758
vn -0.666530795 -0.559211407 0.492969879
vn -0.685485571 -0.54025663 0.488090468
vn -0.634939501 -0.597120959 0.490202397
vn -0.666530795 -0.565529666 0.485708654
vn -0.559120396 -0.660303547 0.5013817
vn -0.615984725 -0.616075736 0.490931265
vn -0.527529102 -0.685576582 0.501694924
vn -0.445391738 -0.736122652 0.509656394
vn -0.502256067 -0.704531359 0.501372524
vn -0.407482185 -0.761395687 0.504217092
vn -0.312708304 -0.79930524 0.513151683
vn -0.38220915 -0.774032205 0.504767581
vn -0.274798751 -0.811941758 0.515010901
vn -0.18002487 -0.837214793 0.516393684
vn -0.249525716 -0.818260016 0.51786819
vn -0.142115317 -0.843533051 0.517933613
vn -0.0410231766 -0.84985131 0.525423495
vn -0.116842282 -0.843533051 0.524213575
vn -0.00311362393 -0.84985131 0.527013336
vn 0.104296775 -0.837214793 0.536836636
vn 0.0221594112 -0.84985131 0.526556465
vn 0.135888069 -0.837214793 0.529722402
vn 0.236980209 -0.805623499 0.542965154
vn 0.161161104 -0.830896534 0.5325768
vn 0.268571503 -0.79930524 0.537569047
vn 0.363345385 -0.755077429 0.545745552
vn 0.293844538 -0.792986981 0.533691891
vn 0.394936679 -0.736122652 0.549680326
vn 0.483392301 -0.679258323 0.552213738
vn 0.413891455 -0.729804394 0.544131795
vn 0.508665337 -0.660303547 0.552502309
vn 0.584484442 -0.590802701 0.556174529
vn 0.521301854 -0.64766703 0.555672382
vn 0.603439218 -0.565529666 0.562171955
vn 0.666621806 -0.483392301 0.567403957
vn 0.616075736 -0.552893148 0.561034629
vn 0.685576582 -0.458119266 0.565783959
vn 0.736122652 -0.363345385 0.571054789
vn 0.691894841 -0.445482749 0.568178361
vn 0.74875917 -0.33807235 0.57014629
vn 0.780350464 -0.236980209 0.578699865
vn 0.755077429 -0.325435832 0.569165702
vn 0.786668723 -0.211707174 0.579941715
vn 0.805623499 -0.116933293 0.580773091
vn 0.792986981 -0.199070657 0.575797292
vn 0.805623499 -0.0790237401 0.587133738
vn 0.805623499 0.00311362393 0.592419685
vn 0.811941758 -0.0600689638 0.580639563
vn 0.805623499 0.0536596941 0.589992725
vn 0.792986981 0.135797058 0.593911447
vn 0.79930524 0.085250988 0.594847377
vn 0.780350464 0.186343128 0.596933323
vn 0.755077429 0.262162234 0.60094013
vn 0.767713946 0.217934422 0.602594295
vn 0.736122652 0.306390045 0.6035301
vn 0.6982131 0.375890891 0.609265546
vn 0.723486135 0.337981339 0.601943874
vn 0.672940065 0.420118703 0.608811913
vn 0.622393994 0.483301291 0.615666775
vn 0.653985288 0.445391738 0.611497704
vn 0.590802701 0.521210843 0.615866403
vn 0.527620113 0.578075172 0.622451694
vn 0.565529666 0.54016562 0.623215293
vn 0.496028819 0.603348207 0.624440831
vn 0.426527973 0.647576019 0.63144215
vn 0.470755784 0.622302984 0.625402261
vn 0.38861842 0.672849054 0.629483816
vn 0.312799315 0.704440348 0.637118816
vn 0.363345385 0.685485571 0.63094347
vn 0.268571503 0.723395124 0.636057263
vn 0.186434139 0.7423499 0.643551814
vn 0.243298468 0.729713383 0.639002531
vn 0.148524587 0.754986418 0.638698643
vn 0.0663872226 0.761304677 0.644986764
vn 0.123251552 0.754986418 0.644053231
vn 0.0221594112 0.761304677 0.648015548
vn -0.0599779529 0.754986418 0.652991695
vn -0.00311362393 0.761304677 0.64838684
vn -0.0978875055 0.748668159 0.655678293
vn -0.186343128 0.729713383 0.657871277
vn -0.123160541 0.748668159 0.651404229
vn -0.217934422 0.717076865 0.662046341
vn -0.300071786 0.685485571 0.663375048
vn -0.236889198 0.710758606 0.662348633
vn -0.33166308 0.666530795 0.667634856
vn -0.407482185 0.622302984 0.668354147
vn -0.350617856 0.660212536 0.664218733
vn -0.43275522 0.603348207 0.669846147
vn -0.458028255 0.584393431 0.669846576
vn -0.445391738 0.59071169 0.672819366
vn -0.483301291 0.559120396 0.673649943
vn -0.495937808 0.552802137 0.669668192
g YuanHuan_24_0
f 3/3/3 2/2/2 1/1/1
f 2/2/2 3/3/3 4/4/4
f 5/5/5 4/4/4 3/3/3
f 4/4/4 6/6/6 2/2/2
f 4/4/4 5/5/5 7/7/7
f 6/6/6 4/4/4 8/8/8
f 7/7/7 8/8/8 4/4/4
f 8/8/8 9/9/9 6/6/6
f 8/8/8 7/7/7 10/10/10
f 9/9/9 8/8/8 11/11/11
f 10/10/10 11/11/11 8/8/8
f 11/11/11 12/12/12 9/9/9
f 11/11/11 10/10/10 13/13/13
f 12/12/12 11/11/11 14/14/14
f 13/13/13 14/14/14 11/11/11
f 14/14/14 15/15/15 12/12/12
f 14/14/14 13/13/13 16/16/16
f 15/15/15 14/14/14 17/17/17
f 16/16/16 17/17/17 14/14/14
f 17/17/17 18/18/18 15/15/15
f 17/17/17 16/16/16 19/19/19
f 18/18/18 17/17/17 20/20/20
f 19/19/19 20/20/20 17/17/17
f 20/20/20 21/21/21 18/18/18
f 20/20/20 19/19/19 22/22/22
f 21/21/21 20/20/20 23/23/23
f 22/22/22 23/23/23 20/20/20
f 23/23/23 24/24/24 21/21/21
f 23/23/23 22/22/22 25/25/25
f 24/24/24 23/23/23 26/26/26
f 25/25/25 26/26/26 23/23/23
f 26/26/26 27/27/27 24/24/24
f 26/26/26 25/25/25 28/28/28
f 27/27/27 26/26/26 29/29/29
f 28/28/28 29/29/29 26/26/26
f 29/29/29 30/30/30 27/27/27
f 29/29/29 28/28/28 31/31/31
f 30/30/30 29/29/29 32/32/32
f 31/31/31 32/32/32 29/29/29
f 32/32/32 33/33/33 30/30/30
f 32/32/32 31/31/31 34/34/34
f 33/33/33 32/32/32 35/35/35
f 34/34/34 35/35/35 32/32/32
f 35/35/35 36/36/36 33/33/33
f 35/35/35 34/34/34 37/37/37
f 36/36/36 35/35/35 38/38/38
f 37/37/37 38/38/38 35/35/35
f 38/38/38 39/39/39 36/36/36
f 38/38/38 37/37/37 40/40/40
f 39/39/39 38/38/38 41/41/41
f 40/40/40 41/41/41 38/38/38
f 41/41/41 42/42/42 39/39/39
f 41/41/41 40/40/40 43/43/43
f 42/42/42 41/41/41 44/44/44
f 43/43/43 44/44/44 41/41/41
f 44/44/44 45/45/45 42/42/42
f 44/44/44 43/43/43 46/46/46
f 45/45/45 44/44/44 47/47/47
f 46/46/46 47/47/47 44/44/44
f 47/47/47 48/48/48 45/45/45
f 47/47/47 46/46/46 49/49/49
f 48/48/48 47/47/47 50/50/50
f 49/49/49 50/50/50 47/47/47
f 50/50/50 51/51/51 48/48/48
f 50/50/50 49/49/49 52/52/52
f 51/51/51 50/50/50 53/53/53
f 52/52/52 53/53/53 50/50/50
f 53/53/53 54/54/54 51/51/51
f 53/53/53 52/52/52 55/55/55
f 54/54/54 53/53/53 56/56/56
f 55/55/55 56/56/56 53/53/53
f 56/56/56 57/57/57 54/54/54
f 56/56/56 55/55/55 58/58/58
f 57/57/57 56/56/56 59/59/59
f 58/58/58 59/59/59 56/56/56
f 59/59/59 60/60/60 57/57/57
f 59/59/59 58/58/58 61/61/61
f 60/60/60 59/59/59 62/62/62
f 61/61/61 62/62/62 59/59/59
f 62/62/62 63/63/63 60/60/60
f 62/62/62 61/61/61 64/64/64
f 63/63/63 62/62/62 65/65/65
f 64/64/64 65/65/65 62/62/62
f 65/65/65 66/66/66 63/63/63
f 65/65/65 64/64/64 67/67/67
f 66/66/66 65/65/65 68/68/68
f 67/67/67 68/68/68 65/65/65
f 68/68/68 69/69/69 66/66/66
f 68/68/68 67/67/67 70/70/70
f 69/69/69 68/68/68 71/71/71
f 70/70/70 71/71/71 68/68/68
f 71/71/71 72/72/72 69/69/69
f 71/71/71 70/70/70 73/73/73
f 72/72/72 71/71/71 74/74/74
f 73/73/73 74/74/74 71/71/71
f 74/74/74 75/75/75 72/72/72
f 74/74/74 73/73/73 76/76/76
f 75/75/75 74/74/74 77/77/77
f 76/76/76 77/77/77 74/74/74
f 77/77/77 78/78/78 75/75/75
f 77/77/77 76/76/76 79/79/79
f 78/78/78 77/77/77 80/80/80
f 79/79/79 80/80/80 77/77/77
f 80/80/80 81/81/81 78/78/78
f 80/80/80 79/79/79 82/82/82
f 81/81/81 80/80/80 83/83/83
f 82/82/82 83/83/83 80/80/80
f 83/83/83 84/84/84 81/81/81
f 83/83/83 82/82/82 85/85/85
f 84/84/84 83/83/83 86/86/86
f 85/85/85 86/86/86 83/83/83
f 86/86/86 87/87/87 84/84/84
f 86/86/86 85/85/85 88/88/88
f 87/87/87 86/86/86 89/89/89
f 88/88/88 89/89/89 86/86/86
f 89/89/89 90/90/90 87/87/87
f 89/89/89 88/88/88 91/91/91
f 90/90/90 89/89/89 92/92/92
f 91/91/91 92/92/92 89/89/89
f 92/92/92 91/91/91 93/93/93
