g YuanHuan_20
v -0.0379473334 0.0217663712 -0.0214461298
v -0.0382162252 0.0272549283 -0.0118609265
v 0.00188029389 -0.00455339517 0.000444829699
v 0.00388907414 -0.0183775994 -0.0242615856
v 0.0419926302 -0.0363617186 0.0127505859
v 0.0457096645 -0.05852157 -0.0270770414
v -0.0399086621 0.0192039901 -0.0249259067
v -0.0379473334 0.0217663712 -0.0214461298
v 0.00388907414 -0.0183775994 -0.0242615856
v -0.00534815156 -0.034321304 -0.0470383065
v 0.0457096645 -0.05852157 -0.0270770414
v 0.0291965418 -0.0878624154 -0.0691348893
v -0.0473901823 0.0114061266 -0.0339258749
v -0.0399086621 0.0192039901 -0.0249259067
v -0.00534815156 -0.034321304 -0.0470383065
v -0.0222408862 -0.0508344267 -0.0648326198
v 0.0291965418 -0.0878624154 -0.0691348893
v 0.00290840977 -0.11307498 -0.0957235475
v -0.0636818646 -0.00104198403 -0.0424038765
v -0.0473901823 0.0114061266 -0.0339258749
v -0.0222408862 -0.0508344267 -0.0648326198
v -0.0440211256 -0.0674740867 -0.0761893459
v 0.00290840977 -0.11307498 -0.0957235475
v -0.0243603867 -0.133906189 -0.109958998
v -0.0763672328 -0.00963070587 -0.0439855933
v -0.0636818646 -0.00104198403 -0.0424038765
v -0.0440211256 -0.0674740867 -0.0761893459
v -0.0682055744 -0.084050478 -0.0803967124
v -0.0243603867 -0.133906189 -0.109958998
v -0.0600439161 -0.158486067 -0.116792014
v -0.0899225451 -0.0186939427 -0.0433054551
v -0.0763672328 -0.00963070587 -0.0439855933
v -0.0682055744 -0.084050478 -0.0803967124
v -0.0927063666 -0.100516149 -0.0783879321
v -0.0600439161 -0.158486067 -0.116792014
v -0.095490188 -0.182338356 -0.113470409
v -0.108159739 -0.0315216654 -0.036678062
v -0.0899225451 -0.0186939427 -0.0433054551
v -0.0927063666 -0.100516149 -0.0783879321
v -0.115815248 -0.116792014 -0.0698466618
v -0.095490188 -0.182338356 -0.113470409
v -0.12345494 -0.20207818 -0.102999444
v -0.124609593 -0.0443493881 -0.0259540225
v -0.108159739 -0.0315216654 -0.036678062
v -0.115815248 -0.116792014 -0.0698466618
v -0.136551554 -0.132909708 -0.0564969726
v -0.12345494 -0.20207818 -0.102999444
v -0.148477698 -0.221470028 -0.0870557398
v -0.135191278 -0.0542351177 -0.0148029196
v -0.124609593 -0.0443493881 -0.0259540225
v -0.136551554 -0.132909708 -0.0564969726
v -0.153649912 -0.148837595 -0.0386868422
v -0.148477698 -0.221470028 -0.0870557398
v -0.172108546 -0.243440073 -0.0625707648
v -0.145931135 -0.067221012 0.00253269578
v -0.135191278 -0.0542351177 -0.0148029196
v -0.153649912 -0.148837595 -0.0386868422
v -0.166556721 -0.164575677 -0.0176025582
v -0.172108546 -0.243440073 -0.0625707648
v -0.18716649 -0.261930342 -0.0377378122
v -0.153080494 -0.0802069064 0.0219087257
v -0.145931135 -0.067221012 0.00253269578
v -0.166556721 -0.164575677 -0.0176025582
v -0.175113808 -0.180139769 0.00560122624
v -0.18716649 -0.261930342 -0.0377378122
v -0.197162939 -0.280072632 -0.0106904561
v -0.156402099 -0.0932086179 0.0425659462
v -0.153080494 -0.0802069064 0.0219087257
v -0.175113808 -0.180139769 0.00560122624
v -0.179163003 -0.195529873 0.0300545669
v -0.197162939 -0.280072632 -0.0106904561
v -0.201923907 -0.297851128 0.0175273704
v -0.155801047 -0.106226147 0.0637925847
v -0.156402099 -0.0932086179 0.0425659462
v -0.179163003 -0.195529873 0.0300545669
v -0.178641037 -0.210761805 0.0548558852
v -0.201923907 -0.297851128 0.0175273704
v -0.201496843 -0.315297464 0.0459350029
v -0.151324789 -0.119259492 0.0848452344
v -0.155801047 -0.106226147 0.0637925847
v -0.178641037 -0.210761805 0.0548558852
v -0.17370608 -0.225835566 0.0792143229
v -0.201496843 -0.315297464 0.0459350029
v -0.196087372 -0.332395822 0.0735992285
v -0.143131496 -0.132308655 0.105075391
v -0.151324789 -0.119259492 0.0848452344
v -0.17370608 -0.225835566 0.0792143229
v -0.164595392 -0.240751155 0.102386473
v -0.196087372 -0.332395822 0.0735992285
v -0.186043471 -0.349177836 0.0996975545
v -0.131490061 -0.14540527 0.12389782
v -0.143131496 -0.132308655 0.105075391
v -0.164595392 -0.240751155 0.102386473
v -0.151688583 -0.255508572 0.123723832
v -0.186043471 -0.349177836 0.0996975545
v -0.171871289 -0.365611873 0.123549843
v -0.116764278 -0.158517702 0.140774738
v -0.131490061 -0.14540527 0.12389782
v -0.151688583 -0.255508572 0.123723832
v -0.135444353 -0.270123634 0.142656981
v -0.171871289 -0.365611873 0.123549843
v -0.154124427 -0.381745384 0.144539224
v -0.0993337597 -0.171661768 0.155310715
v -0.116764278 -0.158517702 0.140774738
v -0.135444353 -0.270123634 0.142656981
v -0.116384666 -0.284612159 0.158790492
v -0.154124427 -0.381745384 0.144539224
v -0.133435572 -0.397562551 0.162270268
v -0.0796730207 -0.184853285 0.167141956
v -0.0993337597 -0.171661768 0.155310715
v -0.116384666 -0.284612159 0.158790492
v -0.0950631245 -0.298974147 0.171776386
v -0.133435572 -0.397562551 0.162270268
v -0.110453228 -0.413079192 0.176410816
v -0.0582091247 -0.198076437 0.176047021
v -0.0796730207 -0.184853285 0.167141956
v -0.0950631245 -0.298974147 0.171776386
v -0.0720333289 -0.313193781 0.181440675
v -0.110453228 -0.413079192 0.176410816
v -0.0858575331 -0.428311124 0.186834329
v -0.0354482209 -0.21134704 0.181851921
v -0.0582091247 -0.198076437 0.176047021
v -0.0720333289 -0.313193781 0.181440675
v -0.0478646973 -0.327302694 0.187656822
v -0.0858575331 -0.428311124 0.186834329
v -0.0602653564 -0.443258347 0.193461722
v -0.0118331902 -0.224665095 0.184461754
v -0.0354482209 -0.21134704 0.181851921
v -0.0478646973 -0.327302694 0.187656822
v -0.0230475618 -0.341300887 0.190424826
v -0.0602653564 -0.443258347 0.193461722
v -0.0342619334 -0.457920862 0.196372081
v 0.0122089041 -0.238030602 0.183876519
v -0.0118331902 -0.224665095 0.184461754
v -0.0230475618 -0.341300887 0.190424826
v 0.00194356256 -0.35518836 0.189807957
v -0.0342619334 -0.457920862 0.196372081
v -0.00833759618 -0.472330301 0.195723577
v 0.0362826328 -0.25144356 0.180112033
v 0.0122089041 -0.238030602 0.183876519
v 0.00194356256 -0.35518836 0.189807957
v 0.0266499779 -0.368965113 0.185901116
v -0.00833759618 -0.472330301 0.195723577
v 0.0170331402 -0.486470849 0.1916902
v 0.0599925666 -0.264919786 0.173247382
v 0.0362826328 -0.25144356 0.180112033
v 0.0266499779 -0.368965113 0.185901116
v 0.0507395237 -0.382646962 0.178894111
v 0.0170331402 -0.486470849 0.1916902
v 0.0414864808 -0.500374139 0.18454084
v 0.0826743845 -0.278475099 0.162475892
v 0.0599925666 -0.264919786 0.173247382
v 0.0507395237 -0.382646962 0.178894111
v 0.0734213416 -0.396202275 0.168106803
v 0.0414864808 -0.500374139 0.18454084
v 0.0641682987 -0.513929451 0.173753532
v 0.1036954 -0.291872239 0.149078751
v 0.0826743845 -0.278475099 0.162475892
v 0.0734213416 -0.396202275 0.168106803
v 0.0945530771 -0.409678501 0.154646394
v 0.0641682987 -0.513929451 0.173753532
v 0.0854265716 -0.527484763 0.160229854
v 0.123197967 -0.305316831 0.133166681
v 0.1036954 -0.291872239 0.149078751
v 0.0945530771 -0.409678501 0.154646394
v 0.113960741 -0.423059825 0.138813409
v 0.0854265716 -0.527484763 0.160229854
v 0.104723516 -0.540787001 0.144475955
v 0.14099228 -0.318824692 0.114913669
v 0.123197967 -0.305316831 0.133166681
v 0.113960741 -0.423059825 0.138813409
v 0.13150198 -0.436362063 0.120876742
v 0.104723516 -0.540787001 0.144475955
v 0.12201168 -0.553883616 0.126823996
v 0.156066041 -0.332032027 0.0947784155
v 0.14099228 -0.318824692 0.114913669
v 0.13150198 -0.436362063 0.120876742
v 0.146559923 -0.449569397 0.10072567
v 0.12201168 -0.553883616 0.126823996
v 0.137069623 -0.56709095 0.106672925
v 0.168545786 -0.345476619 0.0722231349
v 0.156066041 -0.332032027 0.0947784155
v 0.146559923 -0.449569397 0.10072567
v 0.158707508 -0.462666012 0.0787239907
v 0.137069623 -0.56709095 0.106672925
v 0.14886923 -0.579855404 0.0852248464
v 0.178668773 -0.35898448 0.0482917608
v 0.168545786 -0.345476619 0.0722231349
v 0.158707508 -0.462666012 0.0787239907
v 0.168482517 -0.475715175 0.0556151093
v 0.14886923 -0.579855404 0.0852248464
v 0.158296261 -0.592430052 0.0629542749
v 0.186419185 -0.37255561 0.0231582819
v 0.178668773 -0.35898448 0.0482917608
v 0.168482517 -0.475715175 0.0556151093
v 0.175964037 -0.488669435 0.0316046493
v 0.158296261 -0.592430052 0.0629542749
v 0.165493072 -0.604799077 0.0400510166
v 0.190405111 -0.385414967 -0.00172212222
v 0.186419185 -0.37255561 0.0231582819
v 0.175964037 -0.488669435 0.0316046493
v 0.179949963 -0.501544609 0.00672424512
v 0.165493072 -0.604799077 0.0400510166
v 0.169478999 -0.617674251 0.0151706125
v 0.191670484 -0.398938645 -0.0282316946
v 0.190405111 -0.385414967 -0.00172212222
v 0.179949963 -0.501544609 0.00672424512
v 0.181104617 -0.514340697 -0.0183775994
v 0.169478999 -0.617674251 0.0151706125
v 0.170522932 -0.629758567 -0.00853932133
v 0.190436745 -0.412493957 -0.0549785245
v 0.191670484 -0.398938645 -0.0282316946
v 0.181104617 -0.514340697 -0.0183775994
v 0.179997415 -0.527073517 -0.0435110782
v 0.170522932 -0.629758567 -0.00853932133
v 0.169558084 -0.641668894 -0.0320278148
v 0.186340099 -0.425163508 -0.0798747459
v 0.190436745 -0.412493957 -0.0549785245
v 0.179997415 -0.527073517 -0.0435110782
v 0.175916586 -0.539743068 -0.0683914824
v 0.169558084 -0.641668894 -0.0320278148
v 0.165477255 -0.654322628 -0.0569082189
v 0.178700407 -0.438687186 -0.105830717
v 0.186340099 -0.425163508 -0.0798747459
v 0.175916586 -0.539743068 -0.0683914824
v 0.168719775 -0.552317716 -0.0925126625
v 0.165477255 -0.654322628 -0.0569082189
v 0.158723325 -0.665964063 -0.0792104248
v 0.168751409 -0.452258316 -0.131233088
v 0.178700407 -0.438687186 -0.105830717
v 0.168719775 -0.552317716 -0.0925126625
v 0.159593269 -0.564844913 -0.115985339
v 0.158723325 -0.665964063 -0.0792104248
v 0.150435129 -0.677431509 -0.10073759
v 0.156999254 -0.464722244 -0.153566928
v 0.168751409 -0.452258316 -0.131233088
v 0.159593269 -0.564844913 -0.115985339
v 0.147841114 -0.57730884 -0.138319179
v 0.150435129 -0.677431509 -0.10073759
v 0.138682974 -0.689895437 -0.12307143
v 0.141356075 -0.478245922 -0.176232929
v 0.156999254 -0.464722244 -0.153566928
v 0.147841114 -0.57730884 -0.138319179
v 0.133463309 -0.589677865 -0.159008034
v 0.138682974 -0.689895437 -0.12307143
v 0.125554725 -0.701125626 -0.141783139
v 0.123830654 -0.491848685 -0.197775911
v 0.141356075 -0.478245922 -0.176232929
v 0.133463309 -0.589677865 -0.159008034
v 0.117630324 -0.602015256 -0.178621321
v 0.125554725 -0.701125626 -0.141783139
v 0.111429995 -0.712197643 -0.159482549
v 0.105609277 -0.50410699 -0.215285515
v 0.123830654 -0.491848685 -0.197775911
v 0.117630324 -0.602015256 -0.178621321
v 0.0994089475 -0.614289378 -0.196130926
v 0.111429995 -0.712197643 -0.159482549
v 0.0932086179 -0.724471765 -0.176992153
v 0.0836075973 -0.517646485 -0.232573679
v 0.105609277 -0.50410699 -0.215285515
v 0.0994089475 -0.614289378 -0.196130926
v 0.0795584025 -0.626484414 -0.211663384
v 0.0932086179 -0.724471765 -0.176992153
v 0.0755092077 -0.735322342 -0.190753089
v 0.0601665554 -0.531265066 -0.248359212
v 0.0836075973 -0.517646485 -0.232573679
v 0.0795584025 -0.626484414 -0.211663384
v 0.058711376 -0.638647815 -0.225946286
v 0.0755092077 -0.735322342 -0.190753089
v 0.0572561966 -0.746046381 -0.203549177
v 0.037342383 -0.543333565 -0.259241423
v 0.0601665554 -0.531265066 -0.248359212
v 0.058711376 -0.638647815 -0.225946286
v 0.0358872036 -0.650716314 -0.236844314
v 0.0572561966 -0.746046381 -0.203549177
v 0.0344320242 -0.75811488 -0.214431388
v 0.0109435308 -0.556904695 -0.269807291
v 0.037342383 -0.543333565 -0.259241423
v 0.0358872036 -0.650716314 -0.236844314
v 0.0124936132 -0.662768995 -0.246255529
v 0.0344320242 -0.75811488 -0.214431388
v 0.0140278784 -0.768617479 -0.222703767
v -0.0133358211 -0.56887829 -0.276909199
v 0.0109435308 -0.556904695 -0.269807291
v 0.0124936132 -0.662768995 -0.246255529
v -0.0117857387 -0.674742591 -0.253357437
v 0.0140278784 -0.768617479 -0.222703767
v -0.0102514734 -0.780606892 -0.229805675
v -0.0415536475 -0.582417785 -0.281844155
v -0.0133358211 -0.56887829 -0.276909199
v -0.0117857387 -0.674742591 -0.253357437
v -0.03668196 -0.686668735 -0.257596438
v -0.0102514734 -0.780606892 -0.229805675
v -0.0318102725 -0.790919685 -0.23334872
v -0.0617996217 -0.698547428 -0.260617517
v -0.0533374372 -0.801121758 -0.236211627
v -0.03668196 -0.686668735 -0.257596438
v -0.0702618062 -0.595988915 -0.285023406
v -0.0415536475 -0.582417785 -0.281844155
v -0.0955692739 -0.607804339 -0.284121827
v -0.0702618062 -0.595988915 -0.285023406
v -0.0617996217 -0.698547428 -0.260617517
v -0.0871070894 -0.710362852 -0.259715938
v -0.0533374372 -0.801121758 -0.236211627
v -0.0786290877 -0.812921365 -0.235310049
v -0.112272203 -0.722130824 -0.257564803
v -0.100029715 -0.822933631 -0.233601795
v -0.0871070894 -0.710362852 -0.259715938
v -0.124498873 -0.621343834 -0.281527812
v -0.0955692739 -0.607804339 -0.284121827
v -0.149347643 -0.633064355 -0.276608673
v -0.124498873 -0.621343834 -0.281527812
v -0.112272203 -0.722130824 -0.257564803
v -0.137120972 -0.733851345 -0.252645664
v -0.100029715 -0.822933631 -0.233601795
v -0.124878485 -0.834654152 -0.228666839
vt 0.980947783 1.00000006
vt 1.00000006 1.00000006
vt 1.00000006 0.5002442
vt 0.980947783 0.5002442
vt 1.00000006 -1.78813934E-07
vt 0.980947783 -1.78813934E-07
vt 0.962384027 1.00000006
vt 0.980947783 1.00000006
vt 0.980947783 0.5002442
vt 0.962384027 0.5002442
vt 0.980947783 -1.78813934E-07
vt 0.962384027 -1.78813934E-07
vt 0.943331751 1.00000006
vt 0.962384027 1.00000006
vt 0.962384027 0.5002442
vt 0.943331751 0.5002442
vt 0.962384027 -1.78813934E-07
vt 0.943331751 -1.78813934E-07
vt 0.924767995 1.00000006
vt 0.943331751 1.00000006
vt 0.943331751 0.5002442
vt 0.924767995 0.5002442
vt 0.943331751 -1.78813934E-07
vt 0.924767995 -1.78813934E-07
vt 0.905715719 1.00000006
vt 0.924767995 1.00000006
vt 0.924767995 0.5002442
vt 0.905715719 0.5002442
vt 0.924767995 -1.78813934E-07
vt 0.905715719 -1.78813934E-07
vt 0.886663442 1.00000006
vt 0.905715719 1.00000006
vt 0.905715719 0.5002442
vt 0.886663442 0.5002442
vt 0.905715719 -1.78813934E-07
vt 0.886663442 -1.78813934E-07
vt 0.868099686 1.00000006
vt 0.886663442 1.00000006
vt 0.886663442 0.5002442
vt 0.868099686 0.5002442
vt 0.886663442 -1.78813934E-07
vt 0.868099686 -1.78813934E-07
vt 0.84904741 1.00000006
vt 0.868099686 1.00000006
vt 0.868099686 0.5002442
vt 0.84904741 0.5002442
vt 0.868099686 -1.78813934E-07
vt 0.84904741 -1.78813934E-07
vt 0.829995134 1.00000006
vt 0.84904741 1.00000006
vt 0.84904741 0.5002442
vt 0.829995134 0.5002442
vt 0.84904741 -1.78813934E-07
vt 0.829995134 -1.78813934E-07
vt 0.811431378 1.00000006
vt 0.829995134 1.00000006
vt 0.829995134 0.5002442
vt 0.811431378 0.5002442
vt 0.829995134 -1.78813934E-07
vt 0.811431378 -1.78813934E-07
vt 0.792379101 1.00000006
vt 0.811431378 1.00000006
vt 0.811431378 0.5002442
vt 0.792379101 0.5002442
vt 0.811431378 -1.78813934E-07
vt 0.792379101 -1.78813934E-07
vt 0.773815345 1.00000006
vt 0.792379101 1.00000006
vt 0.792379101 0.5002442
vt 0.773815345 0.5002442
vt 0.792379101 -1.78813934E-07
vt 0.773815345 -1.78813934E-07
vt 0.754763069 1.00000006
vt 0.773815345 1.00000006
vt 0.773815345 0.5002442
vt 0.754763069 0.5002442
vt 0.773815345 -1.78813934E-07
vt 0.754763069 -1.78813934E-07
vt 0.735710793 1.00000006
vt 0.754763069 1.00000006
vt 0.754763069 0.5002442
vt 0.735710793 0.5002442
vt 0.754763069 -1.78813934E-07
vt 0.735710793 -1.78813934E-07
vt 0.717147037 1.00000006
vt 0.735710793 1.00000006
vt 0.735710793 0.5002442
vt 0.717147037 0.5002442
vt 0.735710793 -1.78813934E-07
vt 0.717147037 -1.78813934E-07
vt 0.69809476 1.00000006
vt 0.717147037 1.00000006
vt 0.717147037 0.5002442
vt 0.69809476 0.5002442
vt 0.717147037 -1.78813934E-07
vt 0.69809476 -1.78813934E-07
vt 0.679042484 1.00000006
vt 0.69809476 1.00000006
vt 0.69809476 0.5002442
vt 0.679042484 0.5002442
vt 0.69809476 -1.78813934E-07
vt 0.679042484 -1.78813934E-07
vt 0.660478728 1.00000006
vt 0.679042484 1.00000006
vt 0.679042484 0.5002442
vt 0.660478728 0.5002442
vt 0.679042484 -1.78813934E-07
vt 0.660478728 -1.78813934E-07
vt 0.641426452 1.00000006
vt 0.660478728 1.00000006
vt 0.660478728 0.5002442
vt 0.641426452 0.5002442
vt 0.660478728 -1.78813934E-07
vt 0.641426452 -1.78813934E-07
vt 0.622862696 1.00000006
vt 0.641426452 1.00000006
vt 0.641426452 0.5002442
vt 0.622862696 0.5002442
vt 0.641426452 -1.78813934E-07
vt 0.622862696 -1.78813934E-07
vt 0.603810419 1.00000006
vt 0.622862696 1.00000006
vt 0.622862696 0.5002442
vt 0.603810419 0.5002442
vt 0.622862696 -1.78813934E-07
vt 0.603810419 -1.78813934E-07
vt 0.584758143 1.00000006
vt 0.603810419 1.00000006
vt 0.603810419 0.5002442
vt 0.584758143 0.5002442
vt 0.603810419 -1.78813934E-07
vt 0.584758143 -1.78813934E-07
vt 0.566194387 1.00000006
vt 0.584758143 1.00000006
vt 0.584758143 0.5002442
vt 0.566194387 0.5002442
vt 0.584758143 -1.78813934E-07
vt 0.566194387 -1.78813934E-07
vt 0.547142111 1.00000006
vt 0.566194387 1.00000006
vt 0.566194387 0.5002442
vt 0.547142111 0.5002442
vt 0.566194387 -1.78813934E-07
vt 0.547142111 -1.78813934E-07
vt 0.528089835 1.00000006
vt 0.547142111 1.00000006
vt 0.547142111 0.5002442
vt 0.528089835 0.5002442
vt 0.547142111 -1.78813934E-07
vt 0.528089835 -1.78813934E-07
vt 0.509526078 1.00000006
vt 0.528089835 1.00000006
vt 0.528089835 0.5002442
vt 0.509526078 0.5002442
vt 0.528089835 -1.78813934E-07
vt 0.509526078 -1.78813934E-07
vt 0.490473802 1.00000006
vt 0.509526078 1.00000006
vt 0.509526078 0.5002442
vt 0.490473802 0.5002442
vt 0.509526078 -1.78813934E-07
vt 0.490473802 -1.78813934E-07
vt 0.471910046 1.00000006
vt 0.490473802 1.00000006
vt 0.490473802 0.5002442
vt 0.471910046 0.5002442
vt 0.490473802 -1.78813934E-07
vt 0.471910046 -1.78813934E-07
vt 0.45285777 1.00000006
vt 0.471910046 1.00000006
vt 0.471910046 0.5002442
vt 0.45285777 0.5002442
vt 0.471910046 -1.78813934E-07
vt 0.45285777 -1.78813934E-07
vt 0.433805494 1.00000006
vt 0.45285777 1.00000006
vt 0.45285777 0.5002442
vt 0.433805494 0.5002442
vt 0.45285777 -1.78813934E-07
vt 0.433805494 -1.78813934E-07
vt 0.415241737 1.00000006
vt 0.433805494 1.00000006
vt 0.433805494 0.5002442
vt 0.415241737 0.5002442
vt 0.433805494 -1.78813934E-07
vt 0.415241737 -1.78813934E-07
vt 0.396189461 1.00000006
vt 0.415241737 1.00000006
vt 0.415241737 0.5002442
vt 0.396189461 0.5002442
vt 0.415241737 -1.78813934E-07
vt 0.396189461 -1.78813934E-07
vt 0.377137185 1.00000006
vt 0.396189461 1.00000006
vt 0.396189461 0.5002442
vt 0.377137185 0.5002442
vt 0.396189461 -1.78813934E-07
vt 0.377137185 -1.78813934E-07
vt 0.358573429 1.00000006
vt 0.377137185 1.00000006
vt 0.377137185 0.5002442
vt 0.358573429 0.5002442
vt 0.377137185 -1.78813934E-07
vt 0.358573429 -1.78813934E-07
vt 0.339521153 1.00000006
vt 0.358573429 1.00000006
vt 0.358573429 0.5002442
vt 0.339521153 0.5002442
vt 0.358573429 -1.78813934E-07
vt 0.339521153 -1.78813934E-07
vt 0.320957396 1.00000006
vt 0.339521153 1.00000006
vt 0.339521153 0.5002442
vt 0.320957396 0.5002442
vt 0.339521153 -1.78813934E-07
vt 0.320957396 -1.78813934E-07
vt 0.30190512 1.00000006
vt 0.320957396 1.00000006
vt 0.320957396 0.5002442
vt 0.30190512 0.49975568
vt 0.320957396 -1.78813934E-07
vt 0.30190512 -1.78813934E-07
vt 0.282852844 1.00000006
vt 0.30190512 1.00000006
vt 0.30190512 0.49975568
vt 0.282852844 0.49975568
vt 0.30190512 -1.78813934E-07
vt 0.282852844 -1.78813934E-07
vt 0.264289088 1.00000006
vt 0.282852844 1.00000006
vt 0.282852844 0.49975568
vt 0.264289088 0.49975568
vt 0.282852844 -1.78813934E-07
vt 0.264289088 -1.78813934E-07
vt 0.245236812 1.00000006
vt 0.264289088 1.00000006
vt 0.264289088 0.49975568
vt 0.245236812 0.49975568
vt 0.264289088 -1.78813934E-07
vt 0.245236812 -1.78813934E-07
vt 0.226184536 1.00000006
vt 0.245236812 1.00000006
vt 0.245236812 0.49975568
vt 0.226184536 0.49975568
vt 0.245236812 -1.78813934E-07
vt 0.226184536 -1.78813934E-07
vt 0.207620779 1.00000006
vt 0.226184536 1.00000006
vt 0.226184536 0.49975568
vt 0.207620779 0.49975568
vt 0.226184536 -1.78813934E-07
vt 0.207620779 -1.78813934E-07
vt 0.188568503 1.00000006
vt 0.207620779 1.00000006
vt 0.207620779 0.49975568
vt 0.188568503 0.49975568
vt 0.207620779 -1.78813934E-07
vt 0.188568503 -1.78813934E-07
vt 0.170004747 1.00000006
vt 0.188568503 1.00000006
vt 0.188568503 0.49975568
vt 0.170004747 0.49975568
vt 0.188568503 -1.78813934E-07
vt 0.170004747 -1.78813934E-07
vt 0.150952471 1.00000006
vt 0.170004747 1.00000006
vt 0.170004747 0.49975568
vt 0.150952471 0.49975568
vt 0.170004747 -1.78813934E-07
vt 0.150952471 -1.78813934E-07
vt 0.131900195 1.00000006
vt 0.150952471 1.00000006
vt 0.150952471 0.49975568
vt 0.131900195 0.49975568
vt 0.150952471 -1.78813934E-07
vt 0.131900195 -1.78813934E-07
vt 0.113336438 1.00000006
vt 0.131900195 1.00000006
vt 0.131900195 0.49975568
vt 0.113336438 0.49975568
vt 0.131900195 -1.78813934E-07
vt 0.113336438 -1.78813934E-07
vt 0.0942841622 1.00000006
vt 0.113336438 1.00000006
vt 0.113336438 0.49975568
vt 0.0942841622 0.49975568
vt 0.113336438 -1.78813934E-07
vt 0.0942841622 -1.78813934E-07
vt 0.075231886 1.00000006
vt 0.0942841622 1.00000006
vt 0.0942841622 0.49975568
vt 0.075231886 0.49975568
vt 0.0942841622 -1.78813934E-07
vt 0.075231886 -1.78813934E-07
vt 0.0566681298 0.49975568
vt 0.0566681298 -1.78813934E-07
vt 0.075231886 0.49975568
vt 0.0566681298 1.00000006
vt 0.075231886 1.00000006
vt 0.0376158536 1.00000006
vt 0.0566681298 1.00000006
vt 0.0566681298 0.49975568
vt 0.0376158536 0.49975568
vt 0.0566681298 -1.78813934E-07
vt 0.0376158536 -1.78813934E-07
vt 0.0190520973 0.49975568
vt 0.0190520973 -1.78813934E-07
vt 0.0376158536 0.49975568
vt 0.0190520973 1.00000006
vt 0.0376158536 1.00000006
vt -1.78813934E-07 1.00000006
vt 0.0190520973 1.00000006
vt 0.0190520973 0.49975568
vt -1.78813934E-07 0.49975568
vt 0.0190520973 -1.78813934E-07
vt -1.78813934E-07 -1.78813934E-07
vn -0.640261378 -0.681704468 0.354040091
vn -0.640261378 -0.681704468 0.354040091
vn -0.640261378 -0.681704468 0.354040091
vn -0.640261378 -0.681704468 0.354040091
vn -0.647992173 -0.689435262 0.323705365
vn -0.647992173 -0.689435262 0.323705365
vn -0.508837873 -0.58120414 0.635047846
vn -0.508837873 -0.58120414 0.635047846
vn -0.508837873 -0.58120414 0.635047846
vn -0.508837873 -0.58120414 0.635047846
vn -0.524299462 -0.588934935 0.615033102
vn -0.524299462 -0.588934935 0.615033102
vn -0.331029601 -0.527088579 0.782685782
vn -0.331029601 -0.527088579 0.782685782
vn -0.331029601 -0.527088579 0.782685782
vn -0.331029601 -0.527088579 0.782685782
vn -0.307837218 -0.527088579 0.792094614
vn -0.307837218 -0.527088579 0.792094614
vn -0.0913749744 -0.472973018 0.876325931
vn -0.0913749744 -0.472973018 0.876325931
vn -0.0913749744 -0.472973018 0.876325931
vn -0.0913749744 -0.472973018 0.876325931
vn -0.0991057688 -0.472973018 0.875485334
vn -0.0991057688 -0.472973018 0.875485334
vn 0.148279653 -0.418857457 0.895863592
vn 0.148279653 -0.418857457 0.895863592
vn 0.148279653 -0.418857457 0.895863592
vn 0.148279653 -0.418857457 0.895863592
vn 0.125087269 -0.418857457 0.899395133
vn 0.125087269 -0.418857457 0.899395133
vn 0.31835713 -0.38793428 0.86495996
vn 0.31835713 -0.38793428 0.86495996
vn 0.31835713 -0.38793428 0.86495996
vn 0.31835713 -0.38793428 0.86495996
vn 0.333818719 -0.380203485 0.862560359
vn 0.333818719 -0.380203485 0.862560359
vn 0.527088579 -0.349280308 0.774713429
vn 0.527088579 -0.349280308 0.774713429
vn 0.527088579 -0.349280308 0.774713429
vn 0.527088579 -0.349280308 0.774713429
vn 0.534819374 -0.349280308 0.769396844
vn 0.534819374 -0.349280308 0.769396844
vn 0.673973673 -0.31835713 0.666639502
vn 0.673973673 -0.31835713 0.666639502
vn 0.673973673 -0.31835713 0.666639502
vn 0.673973673 -0.31835713 0.666639502
vn 0.673973673 -0.31835713 0.666639502
vn 0.673973673 -0.31835713 0.666639502
vn 0.805397178 -0.287433952 0.518379309
vn 0.805397178 -0.287433952 0.518379309
vn 0.805397178 -0.287433952 0.518379309
vn 0.805397178 -0.287433952 0.518379309
vn 0.805397178 -0.287433952 0.518379309
vn 0.805397178 -0.287433952 0.518379309
vn 0.898166711 -0.264241569 0.351387182
vn 0.898166711 -0.264241569 0.351387182
vn 0.898166711 -0.264241569 0.351387182
vn 0.898166711 -0.264241569 0.351387182
vn 0.898166711 -0.264241569 0.351387182
vn 0.898166711 -0.264241569 0.351387182
vn 0.952282272 -0.241049186 0.187226504
vn 0.952282272 -0.241049186 0.187226504
vn 0.952282272 -0.241049186 0.187226504
vn 0.952282272 -0.241049186 0.187226504
vn 0.952282272 -0.241049186 0.187226504
vn 0.952282272 -0.241049186 0.187226504
vn 0.975474656 -0.217856802 0.0314262607
vn 0.975474656 -0.217856802 0.0314262607
vn 0.975474656 -0.217856802 0.0314262607
vn 0.975474656 -0.217856802 0.0314262607
vn 0.975474656 -0.217856802 0.0314262607
vn 0.975474656 -0.217856802 0.0314262607
vn 0.967743861 -0.202395214 -0.150026653
vn 0.967743861 -0.202395214 -0.150026653
vn 0.967743861 -0.202395214 -0.150026653
vn 0.967743861 -0.202395214 -0.150026653
vn 0.967743861 -0.202395214 -0.150026653
vn 0.967743861 -0.202395214 -0.150026653
vn 0.936820684 -0.17920283 -0.300421957
vn 0.936820684 -0.17920283 -0.300421957
vn 0.936820684 -0.17920283 -0.300421957
vn 0.936820684 -0.17920283 -0.300421957
vn 0.936820684 -0.17920283 -0.300421957
vn 0.936820684 -0.17920283 -0.300421957
vn 0.874974328 -0.163741241 -0.455641011
vn 0.874974328 -0.163741241 -0.455641011
vn 0.874974328 -0.163741241 -0.455641011
vn 0.874974328 -0.163741241 -0.455641011
vn 0.882705123 -0.163741241 -0.44047755
vn 0.882705123 -0.163741241 -0.44047755
vn 0.797666384 -0.140548858 -0.586493272
vn 0.797666384 -0.140548858 -0.586493272
vn 0.797666384 -0.140548858 -0.586493272
vn 0.797666384 -0.140548858 -0.586493272
vn 0.797666384 -0.148279653 -0.584586593
vn 0.797666384 -0.148279653 -0.584586593
vn 0.697166056 -0.125087269 -0.705912647
vn 0.697166056 -0.125087269 -0.705912647
vn 0.697166056 -0.125087269 -0.705912647
vn 0.697166056 -0.125087269 -0.705912647
vn 0.704896851 -0.125087269 -0.6981931
vn 0.704896851 -0.125087269 -0.6981931
vn 0.588934935 -0.109625681 -0.800710842
vn 0.588934935 -0.109625681 -0.800710842
vn 0.588934935 -0.109625681 -0.800710842
vn 0.588934935 -0.109625681 -0.800710842
vn 0.588934935 -0.109625681 -0.800710842
vn 0.588934935 -0.109625681 -0.800710842
vn 0.465242224 -0.101894886 -0.879299213
vn 0.465242224 -0.101894886 -0.879299213
vn 0.465242224 -0.101894886 -0.879299213
vn 0.465242224 -0.101894886 -0.879299213
vn 0.472973018 -0.101894886 -0.875165102
vn 0.472973018 -0.101894886 -0.875165102
vn 0.341549513 -0.0864332973 -0.935880983
vn 0.341549513 -0.0864332973 -0.935880983
vn 0.341549513 -0.0864332973 -0.935880983
vn 0.341549513 -0.0864332973 -0.935880983
vn 0.341549513 -0.0864332973 -0.935880983
vn 0.341549513 -0.0864332973 -0.935880983
vn 0.210126008 -0.0709717084 -0.975094907
vn 0.210126008 -0.0709717084 -0.975094907
vn 0.210126008 -0.0709717084 -0.975094907
vn 0.210126008 -0.0709717084 -0.975094907
vn 0.210126008 -0.0709717084 -0.975094907
vn 0.210126008 -0.0709717084 -0.975094907
vn 0.0787025029 -0.0555101196 -0.995351467
vn 0.0787025029 -0.0555101196 -0.995351467
vn 0.0787025029 -0.0555101196 -0.995351467
vn 0.0787025029 -0.0555101196 -0.995351467
vn 0.0787025029 -0.0555101196 -0.995351467
vn 0.0787025029 -0.0555101196 -0.995351467
vn -0.0527210023 -0.0477793252 -0.997465604
vn -0.0527210023 -0.0477793252 -0.997465604
vn -0.0527210023 -0.0477793252 -0.997465604
vn -0.0527210023 -0.0477793252 -0.997465604
vn -0.0527210023 -0.0477793252 -0.997465604
vn -0.0527210023 -0.0477793252 -0.997465604
vn -0.176413713 -0.0323177363 -0.983785427
vn -0.176413713 -0.0323177363 -0.983785427
vn -0.176413713 -0.0323177363 -0.983785427
vn -0.176413713 -0.0323177363 -0.983785427
vn -0.176413713 -0.0323177363 -0.983785427
vn -0.176413713 -0.0323177363 -0.983785427
vn -0.292375629 -0.0245869419 -0.955987434
vn -0.292375629 -0.0245869419 -0.955987434
vn -0.292375629 -0.0245869419 -0.955987434
vn -0.292375629 -0.0245869419 -0.955987434
vn -0.292375629 -0.0245869419 -0.955987434
vn -0.292375629 -0.0245869419 -0.955987434
vn -0.431529929 -0.00912535307 -0.902052464
vn -0.431529929 -0.00912535307 -0.902052464
vn -0.431529929 -0.00912535307 -0.902052464
vn -0.431529929 -0.00912535307 -0.902052464
vn -0.431529929 -0.00912535307 -0.902052464
vn -0.431529929 -0.00912535307 -0.902052464
vn -0.539761051 -0.00139455865 -0.84181712
vn -0.539761051 -0.00139455865 -0.84181712
vn -0.539761051 -0.00139455865 -0.84181712
vn -0.539761051 -0.00139455865 -0.84181712
vn -0.539761051 -0.00139455865 -0.84181712
vn -0.539761051 -0.00139455865 -0.84181712
vn -0.624799789 0.0140670302 -0.780658275
vn -0.624799789 0.0140670302 -0.780658275
vn -0.624799789 0.0140670302 -0.780658275
vn -0.624799789 0.0140670302 -0.780658275
vn -0.624799789 0.0140670302 -0.780658275
vn -0.624799789 0.0140670302 -0.780658275
vn -0.709838528 0.0217978246 -0.704027073
vn -0.709838528 0.0217978246 -0.704027073
vn -0.709838528 0.0217978246 -0.704027073
vn -0.709838528 0.0217978246 -0.704027073
vn -0.709838528 0.0217978246 -0.704027073
vn -0.709838528 0.0217978246 -0.704027073
vn -0.787146472 0.029528619 -0.616058838
vn -0.787146472 0.029528619 -0.616058838
vn -0.787146472 0.029528619 -0.616058838
vn -0.787146472 0.029528619 -0.616058838
vn -0.787146472 0.029528619 -0.616058838
vn -0.787146472 0.029528619 -0.616058838
vn -0.864454416 0.0449902079 -0.500693962
vn -0.864454416 0.0449902079 -0.500693962
vn -0.864454416 0.0449902079 -0.500693962
vn -0.864454416 0.0449902079 -0.500693962
vn -0.864454416 0.0449902079 -0.500693962
vn -0.864454416 0.0449902079 -0.500693962
vn -0.910839183 0.0527210023 -0.409380604
vn -0.910839183 0.0527210023 -0.409380604
vn -0.910839183 0.0527210023 -0.409380604
vn -0.910839183 0.0527210023 -0.409380604
vn -0.910839183 0.0527210023 -0.409380604
vn -0.910839183 0.0527210023 -0.409380604
vn -0.941762361 0.0604517967 -0.330800901
vn -0.941762361 0.0604517967 -0.330800901
vn -0.941762361 0.0604517967 -0.330800901
vn -0.941762361 0.0604517967 -0.330800901
vn -0.941762361 0.0604517967 -0.330800901
vn -0.941762361 0.0604517967 -0.330800901
vn -0.980416333 0.0759133856 -0.181716737
vn -0.980416333 0.0759133856 -0.181716737
vn -0.980416333 0.0759133856 -0.181716737
vn -0.980416333 0.0759133856 -0.181716737
vn -0.980416333 0.0759133856 -0.181716737
vn -0.980416333 0.0759133856 -0.181716737
vn -0.995877922 0.08364418 -0.0350829939
vn -0.995877922 0.08364418 -0.0350829939
vn -0.995877922 0.08364418 -0.0350829939
vn -0.995877922 0.08364418 -0.0350829939
vn -0.995877922 0.08364418 -0.0350829939
vn -0.995877922 0.08364418 -0.0350829939
vn -0.995817069 0.0913693909 -0
vn -0.995817069 0.0913693909 -0
vn -0.995817069 0.0913693909 -0
vn -0.995817069 0.0913693909 -0
vn -0.995817069 0.0913693909 -0
vn -0.995817069 0.0913693909 -0
vn -0.988147127 0.0991057688 0.117231829
vn -0.988147127 0.0991057688 0.117231829
vn -0.988147127 0.0991057688 0.117231829
vn -0.988147127 0.0991057688 0.117231829
vn -0.988147127 0.0991057688 0.117231829
vn -0.988147127 0.0991057688 0.117231829
vn -0.964954744 0.114567358 0.236086134
vn -0.964954744 0.114567358 0.236086134
vn -0.964954744 0.114567358 0.236086134
vn -0.964954744 0.114567358 0.236086134
vn -0.964954744 0.114567358 0.236086134
vn -0.964954744 0.114567358 0.236086134
vn -0.941762361 0.122298152 0.313252004
vn -0.941762361 0.122298152 0.313252004
vn -0.941762361 0.122298152 0.313252004
vn -0.941762361 0.122298152 0.313252004
vn -0.949493155 0.114567358 0.292125091
vn -0.949493155 0.114567358 0.292125091
vn -0.903108389 0.130028946 0.409252626
vn -0.903108389 0.130028946 0.409252626
vn -0.903108389 0.130028946 0.409252626
vn -0.903108389 0.130028946 0.409252626
vn -0.903108389 0.130028946 0.409252626
vn -0.903108389 0.130028946 0.409252626
vn -0.848992828 0.137759741 0.510130799
vn -0.848992828 0.137759741 0.510130799
vn -0.848992828 0.137759741 0.510130799
vn -0.848992828 0.137759741 0.510130799
vn -0.848992828 0.137759741 0.510130799
vn -0.848992828 0.137759741 0.510130799
vn -0.810338855 0.145490535 0.567612054
vn -0.810338855 0.145490535 0.567612054
vn -0.810338855 0.145490535 0.567612054
vn -0.810338855 0.145490535 0.567612054
vn -0.810338855 0.145490535 0.567612054
vn -0.810338855 0.145490535 0.567612054
vn -0.740761706 0.15322133 0.654060639
vn -0.740761706 0.15322133 0.654060639
vn -0.740761706 0.15322133 0.654060639
vn -0.740761706 0.15322133 0.654060639
vn -0.740761706 0.15322133 0.654060639
vn -0.740761706 0.15322133 0.654060639
vn -0.671184556 0.160952124 0.723606043
vn -0.671184556 0.160952124 0.723606043
vn -0.671184556 0.160952124 0.723606043
vn -0.671184556 0.160952124 0.723606043
vn -0.671184556 0.160952124 0.723606043
vn -0.671184556 0.160952124 0.723606043
vn -0.617068995 0.168682919 0.768616893
vn -0.617068995 0.168682919 0.768616893
vn -0.617068995 0.168682919 0.768616893
vn -0.617068995 0.168682919 0.768616893
vn -0.624799789 0.168682919 0.762345916
vn -0.624799789 0.168682919 0.762345916
vn -0.501107079 0.184144507 0.845566376
vn -0.501107079 0.184144507 0.845566376
vn -0.501107079 0.184144507 0.845566376
vn -0.501107079 0.184144507 0.845566376
vn -0.501107079 0.184144507 0.845566376
vn -0.501107079 0.184144507 0.845566376
vn -0.446991518 0.191875302 0.873717604
vn -0.446991518 0.191875302 0.873717604
vn -0.446991518 0.191875302 0.873717604
vn -0.446991518 0.191875302 0.873717604
vn -0.446991518 0.191875302 0.873717604
vn -0.446991518 0.191875302 0.873717604
vn -0.361952779 0.199606096 0.910575418
vn -0.361952779 0.199606096 0.910575418
vn -0.361952779 0.199606096 0.910575418
vn -0.361952779 0.199606096 0.910575418
vn -0.361952779 0.199606096 0.910575418
vn -0.361952779 0.199606096 0.910575418
vn -0.261452452 0.207336891 0.94268448
vn -0.261452452 0.207336891 0.94268448
vn -0.261452452 0.207336891 0.94268448
vn -0.261452452 0.207336891 0.94268448
vn -0.253721657 0.207336891 0.944794546
vn -0.253721657 0.207336891 0.944794546
vn -0.207336891 0.207336891 0.956045411
vn -0.22279848 0.207336891 0.952560891
vn -0.207336891 0.207336891 0.956045411
vn -0.207336891 0.207336891 0.956045411
vn -0.207336891 0.207336891 0.956045411
vn -0.0681825911 0.22279848 0.972477235
vn -0.0681825911 0.22279848 0.972477235
vn -0.0681825911 0.22279848 0.972477235
vn -0.0681825911 0.22279848 0.972477235
vn -0.0681825911 0.22279848 0.972477235
vn -0.0681825911 0.22279848 0.972477235
vn -0.0217978246 0.230529274 0.972821211
vn -0.029528619 0.230529274 0.97261725
vn -0.0217978246 0.230529274 0.972821211
vn -0.0217978246 0.230529274 0.972821211
vn -0.0217978246 0.230529274 0.972821211
vn 0.0787025029 0.238260068 0.96800726
vn 0.0787025029 0.238260068 0.96800726
vn 0.0787025029 0.238260068 0.96800726
vn 0.0787025029 0.238260068 0.96800726
vn 0.0787025029 0.238260068 0.96800726
vn 0.0787025029 0.238260068 0.96800726
g YuanHuan_20_0
f 3/3/3 2/2/2 1/1/1
f 4/4/4 3/3/3 1/1/1
f 5/5/5 3/3/3 4/4/4
f 6/6/6 5/5/5 4/4/4
f 9/9/9 8/8/8 7/7/7
f 10/10/10 9/9/9 7/7/7
f 11/11/11 9/9/9 10/10/10
f 12/12/12 11/11/11 10/10/10
f 15/15/15 14/14/14 13/13/13
f 16/16/16 15/15/15 13/13/13
f 17/17/17 15/15/15 16/16/16
f 18/18/18 17/17/17 16/16/16
f 21/21/21 20/20/20 19/19/19
f 22/22/22 21/21/21 19/19/19
f 23/23/23 21/21/21 22/22/22
f 24/24/24 23/23/23 22/22/22
f 27/27/27 26/26/26 25/25/25
f 28/28/28 27/27/27 25/25/25
f 29/29/29 27/27/27 28/28/28
f 30/30/30 29/29/29 28/28/28
f 33/33/33 32/32/32 31/31/31
f 34/34/34 33/33/33 31/31/31
f 35/35/35 33/33/33 34/34/34
f 36/36/36 35/35/35 34/34/34
f 39/39/39 38/38/38 37/37/37
f 40/40/40 39/39/39 37/37/37
f 41/41/41 39/39/39 40/40/40
f 42/42/42 41/41/41 40/40/40
f 45/45/45 44/44/44 43/43/43
f 46/46/46 45/45/45 43/43/43
f 47/47/47 45/45/45 46/46/46
f 48/48/48 47/47/47 46/46/46
f 51/51/51 50/50/50 49/49/49
f 52/52/52 51/51/51 49/49/49
f 53/53/53 51/51/51 52/52/52
f 54/54/54 53/53/53 52/52/52
f 57/57/57 56/56/56 55/55/55
f 58/58/58 57/57/57 55/55/55
f 59/59/59 57/57/57 58/58/58
f 60/60/60 59/59/59 58/58/58
f 63/63/63 62/62/62 61/61/61
f 64/64/64 63/63/63 61/61/61
f 65/65/65 63/63/63 64/64/64
f 66/66/66 65/65/65 64/64/64
f 69/69/69 68/68/68 67/67/67
f 70/70/70 69/69/69 67/67/67
f 71/71/71 69/69/69 70/70/70
f 72/72/72 71/71/71 70/70/70
f 75/75/75 74/74/74 73/73/73
f 76/76/76 75/75/75 73/73/73
f 77/77/77 75/75/75 76/76/76
f 78/78/78 77/77/77 76/76/76
f 81/81/81 80/80/80 79/79/79
f 82/82/82 81/81/81 79/79/79
f 83/83/83 81/81/81 82/82/82
f 84/84/84 83/83/83 82/82/82
f 87/87/87 86/86/86 85/85/85
f 88/88/88 87/87/87 85/85/85
f 89/89/89 87/87/87 88/88/88
f 90/90/90 89/89/89 88/88/88
f 93/93/93 92/92/92 91/91/91
f 94/94/94 93/93/93 91/91/91
f 95/95/95 93/93/93 94/94/94
f 96/96/96 95/95/95 94/94/94
f 99/99/99 98/98/98 97/97/97
f 100/100/100 99/99/99 97/97/97
f 101/101/101 99/99/99 100/100/100
f 102/102/102 101/101/101 100/100/100
f 105/105/105 104/104/104 103/103/103
f 106/106/106 105/105/105 103/103/103
f 107/107/107 105/105/105 106/106/106
f 108/108/108 107/107/107 106/106/106
f 111/111/111 110/110/110 109/109/109
f 112/112/112 111/111/111 109/109/109
f 113/113/113 111/111/111 112/112/112
f 114/114/114 113/113/113 112/112/112
f 117/117/117 116/116/116 115/115/115
f 118/118/118 117/117/117 115/115/115
f 119/119/119 117/117/117 118/118/118
f 120/120/120 119/119/119 118/118/118
f 123/123/123 122/122/122 121/121/121
f 124/124/124 123/123/123 121/121/121
f 125/125/125 123/123/123 124/124/124
f 126/126/126 125/125/125 124/124/124
f 129/129/129 128/128/128 127/127/127
f 130/130/130 129/129/129 127/127/127
f 131/131/131 129/129/129 130/130/130
f 132/132/132 131/131/131 130/130/130
f 135/135/135 134/134/134 133/133/133
f 136/136/136 135/135/135 133/133/133
f 137/137/137 135/135/135 136/136/136
f 138/138/138 137/137/137 136/136/136
f 141/141/141 140/140/140 139/139/139
f 142/142/142 141/141/141 139/139/139
f 143/143/143 141/141/141 142/142/142
f 144/144/144 143/143/143 142/142/142
f 147/147/147 146/146/146 145/145/145
f 148/148/148 147/147/147 145/145/145
f 149/149/149 147/147/147 148/148/148
f 150/150/150 149/149/149 148/148/148
f 153/153/153 152/152/152 151/151/151
f 154/154/154 153/153/153 151/151/151
f 155/155/155 153/153/153 154/154/154
f 156/156/156 155/155/155 154/154/154
f 159/159/159 158/158/158 157/157/157
f 160/160/160 159/159/159 157/157/157
f 161/161/161 159/159/159 160/160/160
f 162/162/162 161/161/161 160/160/160
f 165/165/165 164/164/164 163/163/163
f 166/166/166 165/165/165 163/163/163
f 167/167/167 165/165/165 166/166/166
f 168/168/168 167/167/167 166/166/166
f 171/171/171 170/170/170 169/169/169
f 172/172/172 171/171/171 169/169/169
f 173/173/173 171/171/171 172/172/172
f 174/174/174 173/173/173 172/172/172
f 177/177/177 176/176/176 175/175/175
f 178/178/178 177/177/177 175/175/175
f 179/179/179 177/177/177 178/178/178
f 180/180/180 179/179/179 178/178/178
f 183/183/183 182/182/182 181/181/181
f 184/184/184 183/183/183 181/181/181
f 185/185/185 183/183/183 184/184/184
f 186/186/186 185/185/185 184/184/184
f 189/189/189 188/188/188 187/187/187
f 190/190/190 189/189/189 187/187/187
f 191/191/191 189/189/189 190/190/190
f 192/192/192 191/191/191 190/190/190
f 195/195/195 194/194/194 193/193/193
f 196/196/196 195/195/195 193/193/193
f 197/197/197 195/195/195 196/196/196
f 198/198/198 197/197/197 196/196/196
f 201/201/201 200/200/200 199/199/199
f 202/202/202 201/201/201 199/199/199
f 203/203/203 201/201/201 202/202/202
f 204/204/204 203/203/203 202/202/202
f 207/207/207 206/206/206 205/205/205
f 208/208/208 207/207/207 205/205/205
f 209/209/209 207/207/207 208/208/208
f 210/210/210 209/209/209 208/208/208
f 213/213/213 212/212/212 211/211/211
f 214/214/214 213/213/213 211/211/211
f 215/215/215 213/213/213 214/214/214
f 216/216/216 215/215/215 214/214/214
f 219/219/219 218/218/218 217/217/217
f 220/220/220 219/219/219 217/217/217
f 221/221/221 219/219/219 220/220/220
f 222/222/222 221/221/221 220/220/220
f 225/225/225 224/224/224 223/223/223
f 226/226/226 225/225/225 223/223/223
f 227/227/227 225/225/225 226/226/226
f 228/228/228 227/227/227 226/226/226
f 231/231/231 230/230/230 229/229/229
f 232/232/232 231/231/231 229/229/229
f 233/233/233 231/231/231 232/232/232
f 234/234/234 233/233/233 232/232/232
f 237/237/237 236/236/236 235/235/235
f 238/238/238 237/237/237 235/235/235
f 239/239/239 237/237/237 238/238/238
f 240/240/240 239/239/239 238/238/238
f 243/243/243 242/242/242 241/241/241
f 244/244/244 243/243/243 241/241/241
f 245/245/245 243/243/243 244/244/244
f 246/246/246 245/245/245 244/244/244
f 249/249/249 248/248/248 247/247/247
f 250/250/250 249/249/249 247/247/247
f 251/251/251 249/249/249 250/250/250
f 252/252/252 251/251/251 250/250/250
f 255/255/255 254/254/254 253/253/253
f 256/256/256 255/255/255 253/253/253
f 257/257/257 255/255/255 256/256/256
f 258/258/258 257/257/257 256/256/256
f 261/261/261 260/260/260 259/259/259
f 262/262/262 261/261/261 259/259/259
f 263/263/263 261/261/261 262/262/262
f 264/264/264 263/263/263 262/262/262
f 267/267/267 266/266/266 265/265/265
f 268/268/268 267/267/267 265/265/265
f 269/269/269 267/267/267 268/268/268
f 270/270/270 269/269/269 268/268/268
f 273/273/273 272/272/272 271/271/271
f 274/274/274 273/273/273 271/271/271
f 275/275/275 273/273/273 274/274/274
f 276/276/276 275/275/275 274/274/274
f 279/279/279 278/278/278 277/277/277
f 280/280/280 279/279/279 277/277/277
f 281/281/281 279/279/279 280/280/280
f 282/282/282 281/281/281 280/280/280
f 285/285/285 284/284/284 283/283/283
f 286/286/286 285/285/285 283/283/283
f 287/287/287 285/285/285 286/286/286
f 288/288/288 287/287/287 286/286/286
f 291/291/291 290/290/290 289/289/289
f 292/292/292 291/291/291 289/289/289
f 293/293/293 291/291/291 292/292/292
f 294/294/294 293/293/293 292/292/292
f 296/296/296 294/294/294 295/295/295
f 294/294/294 297/297/297 295/295/295
f 295/295/295 297/297/297 298/298/298
f 297/297/297 299/299/299 298/298/298
f 302/302/302 301/301/301 300/300/300
f 303/303/303 302/302/302 300/300/300
f 304/304/304 302/302/302 303/303/303
f 305/305/305 304/304/304 303/303/303
f 307/307/307 305/305/305 306/306/306
f 305/305/305 308/308/308 306/306/306
f 306/306/306 308/308/308 309/309/309
f 308/308/308 310/310/310 309/309/309
f 313/313/313 312/312/312 311/311/311
f 314/314/314 313/313/313 311/311/311
f 315/315/315 313/313/313 314/314/314
f 316/316/316 315/315/315 314/314/314
