g zheyangsanzheyangsan_mobile
v -0.0178341749 -0.0254963967 0.0526297047
v -0.0164162072 -0.0240273618 0.0523437281
v -0.0176247991 -0.0230962354 0.0491418108
v -0.0194717317 -0.024134603 0.0494941749
v -0.0200879433 -0.019809206 0.0481323812
v -0.021934876 -0.0208458714 0.0484830431
v -0.0233664615 -0.0129610862 0.0486600763
v -0.0252985063 -0.0137900781 0.0490294628
v -0.0261666497 -0.00484649829 0.0491128726
v -0.0237035055 -0.0137900781 0.0560597225
v -0.0172928619 -0.0254963967 0.0550213548
v -0.00827268123 -0.0180354697 0.0612668809
v -0.0281838066 -0.0054661144 0.0494975793
v -0.0266143394 -0.000970493132 0.0505938232
v -0.0281991267 1.68072606E-05 0.0543115199
v -0.0286314962 -0.001588407 0.0509785299
v -0.0261802677 2.36162288E-05 0.0539285154
v -0.0276578138 1.68072606E-05 0.0567014677
v -0.0137011311 -0.00975576438 0.0621469401
v 0.000235124564 -0.010315802 0.064087496
v -0.0156042378 9.99829239E-06 0.0624550459
v -0.00286976495 -0.00558016462 0.0645896574
v 0.0107260424 -1.917402E-06 0.0639989794
v -0.00395749762 4.89156622E-06 0.0647666906
v 0.00721091251 -0.0360724266 0.0485715597
v 0.00719218785 -0.0340042025 0.0485187902
v 0.00547292337 -0.0336807765 0.0453985805
v 0.00489075659 -0.0357524051 0.0455466755
v 0.00135860432 -0.0329079586 0.0446564029
v 0.000776437537 -0.0349795872 0.0448027958
v -0.00571591366 -0.0304260897 0.0458003096
v -0.00650234949 -0.0324109039 0.0459824495
v -0.0133317446 -0.0267032863 0.0470310306
v -0.00490905093 -0.0324109039 0.0530144114
v 0.00775392773 -0.0360724266 0.0509615075
v 0.00944425409 -0.0255168236 0.0583951986
v -0.0143241517 -0.0286029884 0.0472506198
v -0.0162493875 -0.024507394 0.0489137103
v -0.0178341749 -0.0254963967 0.0526297047
v -0.0172417946 -0.0264053939 0.0491315973
v -0.0164162072 -0.0240273618 0.0523437281
v -0.0172928619 -0.0254963967 0.0550213548
v -0.000146177657 -0.0235711609 0.0599493456
v 0.0103668693 -0.0145935363 0.0624448324
v -0.00827268123 -0.0180354697 0.0612668809
v 0.00488224538 -0.01348027 0.0633334028
v 0.0107260424 -1.917402E-06 0.0639989794
v 0.000235124564 -0.010315802 0.064087496
v 0.0322679156 -0.0255185258 0.0445134146
v 0.0308142009 -0.0240614066 0.04469215
v 0.0291562171 -0.0245363322 0.0415617269
v 0.0301860735 -0.0264275231 0.0414493789
v 0.0256189581 -0.0267288199 0.040725926
v 0.0266505168 -0.0286217131 0.0406118758
v 0.0188933997 -0.0300669166 0.0418136587
v 0.0197189871 -0.0320449219 0.0417353556
v 0.0109235024 -0.032918172 0.0431022559
v 0.0213122857 -0.0320466241 0.0487656153
v 0.0328092285 -0.0255185258 0.0469033625
v 0.0271679984 -0.0180524922 0.0555252185
v 0.0115431185 -0.0349846939 0.0430596999
v 0.00742369277 -0.0336875854 0.0450768567
v 0.00721091251 -0.0360724266 0.0485715597
v 0.00804501112 -0.0357541073 0.0450343007
v 0.00719218785 -0.0340042025 0.0485187902
v 0.00775392773 -0.0360724266 0.0509615075
v 0.0190346858 -0.0235796721 0.0568410516
v 0.0205037207 -0.0103243132 0.0608038711
v 0.00944425409 -0.0255168236 0.0583951986
v 0.0158514932 -0.0134853767 0.0615562621
v 0.0107260424 -1.917402E-06 0.0639989794
v 0.0103668693 -0.0145935363 0.0624448324
v 0.0426549966 -1.55353384E-05 0.0428315995
v 0.0406123061 -2.40465487E-05 0.0431073627
v 0.0395518093 -0.00101645367 0.0398799117
v 0.0415979043 -0.0016207496 0.0396024463
v 0.0384845036 -0.00489245883 0.038644084
v 0.0405305985 -0.00549675476 0.0383649163
v 0.0360451907 -0.012094645 0.0390355997
v 0.0380078758 -0.0129083167 0.0387734544
v 0.032390477 -0.0198483575 0.0396245754
v 0.0396011744 -0.0129083167 0.0458037141
v 0.0431980118 -1.55353384E-05 0.0452232495
v 0.0345165773 -1.21308543E-05 0.0543353513
v 0.03426805 -0.0208731073 0.0393794526
v 0.0305401399 -0.0231336847 0.0413336264
v 0.0322679156 -0.0255185258 0.0445134146
v 0.0324177129 -0.0241567322 0.0410868013
v 0.0308142009 -0.0240614066 0.04469215
v 0.0328092285 -0.0255185258 0.0469033625
v 0.0326032573 -0.00977619129 0.0546451593
v 0.0247048541 -8.72637022E-06 0.0601229743
v 0.0271679984 -0.0180524922 0.0555252185
v 0.0236120147 -0.00559208031 0.0603000074
v 0.0107260424 -1.917402E-06 0.0639989794
v 0.0205037207 -0.0103243132 0.0608038711
v 0.00724495735 0.0360719962 0.0485715597
v 0.00723985062 0.0340037722 0.0485170879
v 0.00747305779 0.0336820484 0.0450802612
v 0.00807735372 0.035753677 0.0450343007
v 0.0109711652 0.0329092305 0.0431039582
v 0.0115754611 0.0349808591 0.0430596999
v 0.018043981 0.0304273616 0.0419549448
v 0.0188542482 0.0324121758 0.0418800461
v 0.0256581097 0.0267045582 0.0407191171
v 0.020449249 0.0324104736 0.0489103058
v 0.00778627032 0.0360719962 0.0509615075
v 0.00946638323 0.0255163933 0.0583951986
v 0.0266760504 0.0286042603 0.0406118758
v 0.0291919642 0.0245069637 0.0415549179
v 0.032291747 0.0254959664 0.0445134146
v 0.0302099049 0.0264066659 0.0414493789
v 0.0308465435 0.0240286337 0.0446904478
v 0.0328330599 0.0254959664 0.0469033625
v 0.019056815 0.0235690283 0.0568410516
v 0.0103804872 0.0145914037 0.0624448324
v 0.0271833186 0.0180333372 0.0555252185
v 0.0158651111 0.0134781374 0.0615562621
v 0.0107260424 -1.917402E-06 0.0639989794
v 0.0205122319 0.0103119672 0.0608038711
v 0.032291747 0.0254959664 0.0445134146
v 0.0308465435 0.0240286337 0.0446904478
v 0.0305707802 0.0230975073 0.0413370309
v 0.032439842 0.0241341727 0.0410868013
v 0.0324177129 0.0198104779 0.0396279799
v 0.0342867747 0.0208471433 0.0393794526
v 0.0356945288 0.0129623581 0.0390951781
v 0.037650405 0.01379135 0.0388330329
v 0.0384930148 0.00484777022 0.0386389773
v 0.0392437035 0.0137896477 0.0458649948
v 0.0328330599 0.0254959664 0.0469033625
v 0.0271833186 0.0180333372 0.0555252185
v 0.0405357052 0.00546568408 0.0383649163
v 0.0395569161 0.000971765054 0.039874805
v 0.0426549966 -1.55353384E-05 0.0428315995
v 0.0415996065 0.00158967892 0.0396024463
v 0.0406123061 -2.40465487E-05 0.0431073627
v 0.0431980118 -1.55353384E-05 0.0452232495
v 0.0326117685 0.00975363182 0.0546451593
v 0.0205122319 0.0103119672 0.0608038711
v 0.0345165773 -1.21308543E-05 0.0543353513
v 0.0236171214 0.00557632982 0.0603000074
v 0.0107260424 -1.917402E-06 0.0639989794
v 0.0247048541 -8.72637022E-06 0.0601229743
v -0.0281991267 1.68072606E-05 0.0543115199
v -0.0261802677 2.36162288E-05 0.0539285154
v -0.0266075304 0.00101772559 0.05059893
v -0.028629794 0.00162202152 0.0509785299
v -0.0261564363 0.00489373075 0.0491162771
v -0.0281786998 0.00549802668 0.0494975793
v -0.0237188256 0.0120959169 0.0487196547
v -0.0256559771 0.0129095886 0.0490890413
v -0.020064112 0.0198496295 0.0481255722
v -0.0240609763 0.0129095886 0.0561193009
v -0.0276578138 1.68072606E-05 0.0567014677
v -0.0156042378 9.99829239E-06 0.0624550459
v -0.0219161513 0.0208743792 0.0484830431
v -0.0175975632 0.0231349566 0.0491350018
v -0.0178120457 0.0255180955 0.0526297047
v -0.0194496026 0.0241580041 0.0494941749
v -0.0163821624 0.0240609763 0.0523420258
v -0.0172690305 0.0255180955 0.0550213548
v -0.0136926199 0.00977405873 0.0621469401
v -0.00395749762 4.89156622E-06 0.0647666906
v -0.00825736105 0.0180503596 0.0612668809
v -0.00286465822 0.00558824551 0.0645896574
v 0.0107260424 -1.917402E-06 0.0639989794
v 0.000243635774 0.0103221807 0.064087496
v -0.0178120457 0.0255180955 0.0526297047
v -0.0163821624 0.0240609763 0.0523420258
v -0.0162102359 0.0245359018 0.0489154126
v -0.0172179632 0.026428795 0.0491315973
v -0.0132908908 0.0267300918 0.0470344351
v -0.0142986181 0.028622985 0.0472506198
v -0.00656533245 0.0300681885 0.0459415957
v -0.00736708846 0.0320461938 0.0461271401
v 0.00140286261 0.032919444 0.044649594
v -0.00577378989 0.0320461938 0.053159102
v -0.0172690305 0.0255180955 0.0550213548
v -0.00825736105 0.0180503596 0.0612668809
v 0.000808780137 0.0349859658 0.0448027958
v 0.00551888391 0.0336871551 0.0453917715
v 0.00724495735 0.0360719962 0.0485715597
v 0.00492309919 0.035753677 0.0455449733
v 0.00723985062 0.0340037722 0.0485170879
v 0.00778627032 0.0360719962 0.0509615075
v -0.00012404851 0.0235775396 0.0599493456
v 0.000243635774 0.0103221807 0.064087496
v 0.00946638323 0.0255163933 0.0583951986
v 0.00489586331 0.0134832442 0.0633334028
v 0.0107260424 -1.917402E-06 0.0639989794
v 0.0103804872 0.0145914037 0.0624448324
v 0.0109149912 0.00116241616 0.0681422366
v 0.0112622486 0.00042194087 0.0682256464
v 0.0109388226 0.000556417992 0.0682801182
v 0.0116605732 0.000849203626 0.0680145684
v 0.0113950235 9.34081531E-05 0.0682018151
v 0.010850306 0.0016049991 0.0677626366
v 0.0119686791 9.34081531E-05 0.0679617989
v 0.0112622486 -0.000233422322 0.0682256464
v 0.0119039939 0.00116241616 0.0675821989
v 0.0116605732 -0.00066238732 0.0680145684
v 0.0109388226 -0.000369601686 0.0682801182
v 0.0119278252 0.00127816862 0.0670442905
v 0.0107617894 0.00176841434 0.0672434528
v 0.0123397678 9.34081531E-05 0.0675073003
v 0.0109149912 -0.000973897616 0.0681422366
v 0.0106153966 -0.000233422322 0.0683362922
v 0.00105390299 0.00127816862 0.00626573785
v -0.000113835058 0.00176841434 0.00646490017
v 0.00153733974 9.34081531E-05 0.00618232799
v 0.012411262 9.34081531E-05 0.0669608806
v 0.00105390299 -0.00108965008 0.00626573785
v 0.0119278252 -0.00108965008 0.0670442905
v -0.000113835058 -0.00157989579 0.00646490017
v 0.0119039939 -0.000975599858 0.0675821989
v 0.0101711114 -0.00066238732 0.0682682025
v 0.0104826217 9.34081531E-05 0.0683584213
v 0.0107617894 -0.00157989579 0.0672434528
v 0.010850306 -0.00141818279 0.0677626366
v 0.00959405139 -0.00108965008 0.0674426151
v -0.00127987087 -0.00108965008 0.00666406249
v -0.00176330761 9.34081531E-05 0.00674747235
v 0.00986130339 9.34081531E-05 0.068320972
v 0.0106153966 0.00042194087 0.0683362922
v 0.00979661819 -0.000975599858 0.067941372
v 0.00911231689 9.34081531E-05 0.067526025
v -0.00127987087 0.00127816862 0.00666406249
v 0.0101711114 0.000849203626 0.0682682025
v 0.0109388226 0.000556417992 0.0682801182
v 0.0109149912 0.00116241616 0.0681422366
v 0.00936084423 9.34081531E-05 0.0680162707
v 0.00959405139 0.00127816862 0.0674426151
v -0.000113835058 0.00176841434 0.00646490017
v 0.0107617894 0.00176841434 0.0672434528
v 0.00979661819 0.00116241616 0.067941372
v 0.010850306 0.0016049991 0.0677626366
v -0.000277250295 0.00432347966 0.00629297372
v 0.00180799622 0.00217865467 0.00772626153
v -0.000277250295 0.00304169139 0.00772626153
v 0.002713589 0.00308424745 0.00629297372
v 0.00267103295 9.34081531E-05 0.00772626153
v 0.00257400515 0.0029446636 0.00464520341
v -0.000277250295 0.00412601958 0.00464520341
v -0.000277250295 0.00346895415 0.00407495232
v 0.00210929307 0.00247995152 0.00407495232
v 0.00375365889 9.34081531E-05 0.00464520341
v 0.00309659346 9.34081531E-05 0.00407495232
v 0.00395282121 9.34081531E-05 0.00629297372
v 0.00180799622 -0.00199183837 0.00772626153
v 0.00257400515 -0.00275784729 0.00464520341
v 0.00210929307 -0.00229313521 0.00407495232
v 0.002713589 -0.00289743114 0.00629297372
v -0.000277250295 -0.00285487509 0.00772626153
v -0.000277250295 -0.00393750104 0.00464520341
v -0.000277250295 -0.0032804356 0.00407495232
v -0.000277250295 -0.00413496111 0.00629297372
v -0.00236249681 -0.00199183837 0.00772626153
v -0.00312850574 -0.00275784729 0.00464520341
v -0.00266379366 -0.00229313521 0.00407495232
v -0.00326808959 -0.00289743114 0.00629297372
v -0.00322553354 9.34081531E-05 0.00772626153
v -0.00430815948 9.34081531E-05 0.00464520341
v -0.00365279629 9.34081531E-05 0.00407495232
v -0.0045073218 9.34081531E-05 0.00629297372
v -0.00236249681 0.00217865467 0.00772626153
v -0.00312850574 0.0029446636 0.00464520341
v -0.00266379366 0.00247995152 0.00407495232
v -0.00326808959 0.00308424745 0.00629297372
v -0.000277250295 0.00304169139 0.00772626153
v -0.000277250295 0.00432347966 0.00629297372
v -0.000277250295 0.00412601958 0.00464520341
v -0.000277250295 0.00346895415 0.00407495232
v -0.00277103491 0.00211737396 0.00463158547
v -0.0026654959 0.00331234788 0.00440008055
v -0.00238462596 0.00234887888 0.00463158547
v -0.00347576312 0.00282380441 0.00440008055
v -0.00396600883 0.00201353719 0.00440008055
v -0.00300253983 0.00173266725 0.00463158547
v -0.00300253983 -0.00247016838 0.00463158547
v -0.00407325008 0.00341958913 0.00409197474
v -0.00290891651 0.00412091286 0.00409197474
v -0.00861823637 0.00982853047 0.00118624755
v -0.00477457381 0.00225695781 0.00409197474
v -0.0104821914 0.00796457542 0.00118624755
v -0.00396600883 -0.00275103832 0.00440008055
v -0.00347576312 -0.00356300778 0.00440008055
v -0.00277103491 -0.00285657733 0.00463158547
v -0.00238462596 -0.00308808225 0.00463158547
v -0.00477457381 -0.00299445894 0.00409197474
v -0.00978086769 0.00912720674 0.00118624755
v -0.0106370954 0.0099834345 0.000340233251
v -0.00962085694 0.0105962416 0.000340233251
v -0.0026654959 -0.00405155125 0.00440008055
v 0.00181820968 -0.00308808225 0.00463158547
v -0.0111358524 0.0104821914 -0.000836016009
v -0.0102660067 0.011006482 -0.000836016009
v -0.0101196139 0.0108600892 -0.00406346695
v -0.00290891651 -0.00486011623 0.00409197474
v 0.00209907962 -0.00405155125 0.00440008055
v 0.00290934683 -0.00356300778 0.00440008055
v 0.00220291638 -0.00285657733 0.00463158547
v -0.00407325008 -0.0041587925 0.00409197474
v -0.00978086769 -0.00986641012 0.00118624755
v 0.00234250023 -0.00486011623 0.00409197474
v 0.0033978903 -0.00275103832 0.00440008055
v 0.0024344213 -0.00247016838 0.00463158547
v 0.0024344213 0.00173266725 0.00463158547
v 0.0033978903 0.00201353719 0.00440008055
v 0.00220291638 0.00211737396 0.00463158547
v 0.00420645528 -0.00299445894 0.00409197474
v -0.00861823637 -0.0105677338 0.00118624755
v -0.0104821914 -0.00870377879 0.00118624755
v -0.0112499026 -0.00970639936 0.000340233251
v 0.00350513155 -0.0041587925 0.00409197474
v 0.00921274917 -0.00986641012 0.00118624755
v 0.00805011784 -0.0105677338 0.00118624755
v 0.00905273841 -0.011335445 0.000340233251
v -0.00962085694 -0.011335445 0.000340233251
v -0.0102660067 -0.0117456853 -0.000836016009
v -0.0106370954 -0.0107209356 0.000340233251
v -0.0112499026 0.00896719599 0.000340233251
v -0.0116601429 0.00961234573 -0.000836016009
v -0.0116601429 -0.0103515491 -0.000836016009
v -0.0111358524 -0.0112213948 -0.000836016009
v -0.0109894596 -0.0110732997 -0.00406346695
v -0.0115137501 -0.0102051563 -0.00406346695
v -0.0115137501 0.00946595291 -0.00406346695
v -0.0109894596 0.0103357986 -0.00406346695
v -0.0108413645 0.0101877035 -0.00475798171
v -0.0100889735 0.0106422022 -0.00475798171
v -0.0100651421 0.0101076982 -0.00526865432
v -0.0104992138 0.00984725513 -0.00526865432
v -0.0107613591 0.00941318341 -0.00526865432
v -0.0112958631 0.00943531256 -0.00475798171
v -0.0112958631 -0.0101745159 -0.00475798171
v -0.0107613591 -0.0101506845 -0.00526865432
v -0.0104992138 -0.0105847563 -0.00526865432
v -0.0108413645 -0.0109269069 -0.00475798171
v -0.0100889735 -0.0113814055 -0.00475798171
v -0.0100651421 -0.0108469015 -0.00526865432
v -0.0101196139 -0.0115992925 -0.00406346695
v 0.00952085498 -0.0113814055 -0.00475798171
v 0.00949702359 -0.0108469015 -0.00526865432
v 0.00993109531 -0.0105847563 -0.00526865432
v 0.00955149534 -0.0115992925 -0.00406346695
v 0.010273246 -0.0109269069 -0.00475798171
v 0.00969788815 -0.0117456853 -0.000836016009
v 0.0107277446 -0.0101745159 -0.00475798171
v 0.0101932406 -0.0101506845 -0.00526865432
v 0.010421341 -0.0110732997 -0.00406346695
v 0.0100672747 -0.0107209356 0.000340233251
v 0.0107277446 0.00943531256 -0.00475798171
v 0.0109456316 0.00946595291 -0.00406346695
v 0.010273246 0.0101877035 -0.00475798171
v 0.0101932406 0.00941318341 -0.00526865432
v 0.00993109531 0.00984725513 -0.00526865432
v 0.00949702359 0.0101076982 -0.00526865432
v 0.0109456316 -0.0102051563 -0.00406346695
v 0.0110920244 -0.0103515491 -0.000836016009
v 0.0105677338 -0.0112213948 -0.000836016009
v 0.00991407289 -0.00870377879 0.00118624755
v 0.0106800818 -0.00970469712 0.000340233251
v 0.0106800818 0.00896719599 0.000340233251
v 0.00420645528 0.00225695781 0.00409197474
v 0.00991407289 0.00796457542 0.00118624755
v 0.00350513155 0.00341958913 0.00409197474
v 0.0110920244 0.00961234573 -0.000836016009
v 0.0105677338 0.0104821914 -0.000836016009
v 0.0100672747 0.0099834345 0.000340233251
v 0.00290934683 0.00282380441 0.00440008055
v 0.00209907962 0.00331234788 0.00440008055
v 0.00181820968 0.00234887888 0.00463158547
v -0.00238462596 0.00234887888 0.00463158547
v -0.0026654959 0.00331234788 0.00440008055
v 0.00234250023 0.00412091286 0.00409197474
v 0.00805011784 0.00982853047 0.00118624755
v -0.00290891651 0.00412091286 0.00409197474
v -0.00861823637 0.00982853047 0.00118624755
v -0.00962085694 0.0105962416 0.000340233251
v 0.00921274917 0.00912720674 0.00118624755
v 0.00905273841 0.0105962416 0.000340233251
v 0.00969788815 0.011006482 -0.000836016009
v -0.0102660067 0.011006482 -0.000836016009
v -0.0101196139 0.0108600892 -0.00406346695
v 0.00955149534 0.0108600892 -0.00406346695
v 0.010421341 0.0103357986 -0.00406346695
v 0.00952085498 0.0106422022 -0.00475798171
v -0.0100889735 0.0106422022 -0.00475798171
v -0.0100651421 0.0101076982 -0.00526865432
v 0.00180799622 0.00217865467 0.00772626153
v 0.00267103295 9.34081531E-05 0.00772626153
v -0.000277250295 9.34081531E-05 0.00792372161
v -0.000277250295 0.00304169139 0.00772626153
v 0.00180799622 -0.00199183837 0.00772626153
v -0.00236249681 0.00217865467 0.00772626153
v -0.000277250295 -0.00285487509 0.00772626153
v -0.00322553354 9.34081531E-05 0.00772626153
v -0.00236249681 -0.00199183837 0.00772626153
v 0.0112622486 0.00042194087 0.0682256464
v 0.0113950235 9.34081531E-05 0.0682018151
v 0.0109388226 9.34081531E-05 0.0682801182
v 0.0109388226 0.000556417992 0.0682801182
v 0.0112622486 -0.000233422322 0.0682256464
v 0.0106153966 0.00042194087 0.0683362922
v 0.0109388226 -0.000369601686 0.0682801182
v 0.0104826217 9.34081531E-05 0.0683584213
v 0.0106153966 -0.000233422322 0.0683362922
v 0.00666789729 -0.00144882315 0.0653982224
v 0.00615892692 -0.00154074422 0.0637402386
v 0.00615892692 0.00172926277 0.0637402386
v 0.00881782901 -0.00363109747 0.0650305381
v 0.00843652679 -0.00385238893 0.0633504252
v 0.00666789729 0.0016373417 0.0653982224
v 0.00843652679 0.00404090748 0.0633504252
v 0.0118597356 -0.00363109747 0.0645113543
v 0.0116605732 -0.00385238893 0.0627988988
v 0.00881782901 0.00381791377 0.0650305381
v 0.0116605732 0.00404090748 0.0627988988
v 0.0140096673 -0.00144882315 0.06414367
v 0.0139398754 -0.00154074422 0.0624090853
v 0.0118597356 0.00381791377 0.0645113543
v 0.0139398754 0.00172926277 0.0624090853
v 0.0140096673 0.0016373417 0.06414367
v 0.0114052369 0.00238292372 0.0653794977
v 0.0127261768 0.00104155698 0.0651530995
v 0.010470706 9.34081531E-05 0.0655395085
v 0.0127261768 -0.000854740672 0.0651530995
v 0.0114052369 -0.00219440517 0.0653794977
v 0.00953617516 -0.00219440517 0.065697817
v 0.00821353308 -0.000854740672 0.0659242152
v 0.00821353308 0.00104155698 0.0659242152
v 0.00953617516 0.00238292372 0.065697817
vt 0.493462817 0.848665555
vt 0.498589455 0.844271294
vt 0.491998064 0.834750396
vt 0.48833618 0.839144656
vt 0.479547658 0.828891381
vt 0.478082905 0.834750396
vt 0.456111601 0.827426628
vt 0.456111601 0.833285642
vt 0.430478414 0.828159005
vt 0.456111601 0.853792192
vt 0.493462817 0.855989322
vt 0.482477165 0.892608161
vt 0.431210791 0.834018019
vt 0.417295632 0.833285642
vt 0.415830879 0.847200801
vt 0.420957516 0.837679903
vt 0.411436618 0.84280654
vt 0.416563255 0.853792192
vt 0.454646848 0.887481524
vt 0.47002676 0.924100363
vt 0.42681653 0.891143408
vt 0.453914471 0.920438479
vt 0.453914471 0.962183955
vt 0.438534559 0.923367986
vt 0.572559509 0.97463436
vt 0.568165248 0.979028621
vt 0.574756639 0.988549519
vt 0.578418523 0.984155258
vt 0.587939421 0.993676157
vt 0.589404175 0.987817142
vt 0.611375478 0.994408533
vt 0.610643102 0.988549519
vt 0.637008666 0.99294378
vt 0.609910725 0.968775346
vt 0.572559509 0.967310593
vt 0.58134803 0.930691754
vt 0.635543912 0.987084766
vt 0.649459071 0.987084766
vt 0.650191448 0.973169607
vt 0.645797187 0.983422882
vt 0.655318085 0.977563867
vt 0.649459071 0.966578216
vt 0.609178348 0.935086014
vt 0.592333682 0.899199552
vt 0.637008666 0.929959377
vt 0.607713594 0.902129059
vt 0.606981218 0.860383583
vt 0.623825884 0.898467175
vt 0.362367374 0.966578216
vt 0.357973113 0.970972476
vt 0.363832127 0.980493375
vt 0.367494011 0.976831491
vt 0.376282533 0.987084766
vt 0.377747286 0.981225751
vt 0.398986213 0.990014273
vt 0.399718589 0.983422882
vt 0.4246194 0.990746649
vt 0.400450966 0.963648709
vt 0.363099751 0.959254448
vt 0.375550156 0.924832739
vt 0.4246194 0.984887635
vt 0.437802182 0.986352389
vt 0.439999312 0.97243723
vt 0.434872675 0.981958128
vt 0.444393573 0.976831491
vt 0.439999312 0.965845839
vt 0.402648097 0.930691754
vt 0.388732938 0.894805292
vt 0.430478414 0.929227
vt 0.40411285 0.898467175
vt 0.407042357 0.857454076
vt 0.420225139 0.897002422
vt 0.464167746 0.973169607
vt 0.459041108 0.977563867
vt 0.465632499 0.987817142
vt 0.468562007 0.983422882
vt 0.478082905 0.993676157
vt 0.478815281 0.987817142
vt 0.500786585 0.99514091
vt 0.501518962 0.989281896
vt 0.526419772 0.99514091
vt 0.501518962 0.968775346
vt 0.464167746 0.966578216
vt 0.475885774 0.932156507
vt 0.525687395 0.989281896
vt 0.539602554 0.990014273
vt 0.541799684 0.976099114
vt 0.536673047 0.985620012
vt 0.546193945 0.981225751
vt 0.541067308 0.969507723
vt 0.502983715 0.936550768
vt 0.48833618 0.901396683
vt 0.53154641 0.933621261
vt 0.503716092 0.905058566
vt 0.505180846 0.864045467
vt 0.519828381 0.902861436
vt 0.700725445 0.855989322
vt 0.705119706 0.851595062
vt 0.699260692 0.842074163
vt 0.695598808 0.846468424
vt 0.686810287 0.836947526
vt 0.68607791 0.84280654
vt 0.664106606 0.836215149
vt 0.664106606 0.842074163
vt 0.637741042 0.836947526
vt 0.662641853 0.861848337
vt 0.699993069 0.86331309
vt 0.68827504 0.898467175
vt 0.639205796 0.84280654
vt 0.625290637 0.84280654
vt 0.623093507 0.856721699
vt 0.628952521 0.847200801
vt 0.618699246 0.852327438
vt 0.623093507 0.864045467
vt 0.660444722 0.894805292
vt 0.675824635 0.929959377
vt 0.632614405 0.899199552
vt 0.659712346 0.92702987
vt 0.659712346 0.968775346
vt 0.644332433 0.930691754
vt 0.791540166 0.845736047
vt 0.795934426 0.84060941
vt 0.789343035 0.831820889
vt 0.786413528 0.836215149
vt 0.776160253 0.826694251
vt 0.775427877 0.833285642
vt 0.752724197 0.828159005
vt 0.753456573 0.834018019
vt 0.727091009 0.831088512
vt 0.75418895 0.853792192
vt 0.791540166 0.852327438
vt 0.782751644 0.888213901
vt 0.728555763 0.836947526
vt 0.714640604 0.836947526
vt 0.713908227 0.851595062
vt 0.718302488 0.841341787
vt 0.709513967 0.847200801
vt 0.714640604 0.858186453
vt 0.754921327 0.88601677
vt 0.773230746 0.919706102
vt 0.727823386 0.892608161
vt 0.757118457 0.918241348
vt 0.760047964 0.958522071
vt 0.741738545 0.921903232
vt 0.598192696 0.855256946
vt 0.602586957 0.851595062
vt 0.59746032 0.841341787
vt 0.593066059 0.845736047
vt 0.585009914 0.835482772
vt 0.583545161 0.841341787
vt 0.561573857 0.833285642
vt 0.561573857 0.839144656
vt 0.53594067 0.833285642
vt 0.560109104 0.858918829
vt 0.59746032 0.862580713
vt 0.584277538 0.898467175
vt 0.536673047 0.839144656
vt 0.522757888 0.83841228
vt 0.520560758 0.851595062
vt 0.525687395 0.84280654
vt 0.51543412 0.847200801
vt 0.519828381 0.858918829
vt 0.55644722 0.893340538
vt 0.571094756 0.929959377
vt 0.528616902 0.896270045
vt 0.554982466 0.926297493
vt 0.553517713 0.968042969
vt 0.538870177 0.928494623
vt 0.669233244 0.976099114
vt 0.664106606 0.980493375
vt 0.670697997 0.990014273
vt 0.673627505 0.985620012
vt 0.683148403 0.99514091
vt 0.684613156 0.989281896
vt 0.70658446 0.99514091
vt 0.705852083 0.989281896
vt 0.732217647 0.99294378
vt 0.70658446 0.968775346
vt 0.669233244 0.968775346
vt 0.679486519 0.932156507
vt 0.730752893 0.987084766
vt 0.744668052 0.987084766
vt 0.746132806 0.973169607
vt 0.741006168 0.982690505
vt 0.751259443 0.977563867
vt 0.746132806 0.965845839
vt 0.707316836 0.935086014
vt 0.691204547 0.899931929
vt 0.735147154 0.929959377
vt 0.70658446 0.902129059
vt 0.705119706 0.86111596
vt 0.722696749 0.898467175
vt 0.329410419 0.828159005
vt 0.332339926 0.827426628
vt 0.331607549 0.826694251
vt 0.330875172 0.828891381
vt 0.333804679 0.827426628
vt 0.327945665 0.828891381
vt 0.333072303 0.828891381
vt 0.33600181 0.828159005
vt 0.330142796 0.829623758
vt 0.33600181 0.828891381
vt 0.33819894 0.828159005
vt 0.329410419 0.831088512
vt 0.326480912 0.831088512
vt 0.333072303 0.830356135
vt 0.33819894 0.828891381
vt 0.34039607 0.827426628
vt 0.329410419 0.977563867
vt 0.326480912 0.977563867
vt 0.332339926 0.977563867
vt 0.332339926 0.831088512
vt 0.335269433 0.977563867
vt 0.335269433 0.831088512
vt 0.33819894 0.977563867
vt 0.335269433 0.830356135
vt 0.34039607 0.828891381
vt 0.342593201 0.828159005
vt 0.33819894 0.831820889
vt 0.33819894 0.830356135
vt 0.341128447 0.831088512
vt 0.341860824 0.977563867
vt 0.344790331 0.977563867
vt 0.343325578 0.828891381
vt 0.344057954 0.827426628
vt 0.341128447 0.830356135
vt 0.344057954 0.831088512
vt 0.347719838 0.977563867
vt 0.345522708 0.828891381
vt 0.344790331 0.826694251
vt 0.346987461 0.828159005
vt 0.344057954 0.830356135
vt 0.346987461 0.831088512
vt 0.350649345 0.977563867
vt 0.349916969 0.831088512
vt 0.346255085 0.829623758
vt 0.348452215 0.828891381
vt 0.363832127 0.826694251
vt 0.368226388 0.834018019
vt 0.368226388 0.826694251
vt 0.363832127 0.834018019
vt 0.368226388 0.84060941
vt 0.359437867 0.834018019
vt 0.359437867 0.826694251
vt 0.357973113 0.826694251
vt 0.357973113 0.834018019
vt 0.359437867 0.84060941
vt 0.357973113 0.84060941
vt 0.363832127 0.84060941
vt 0.368226388 0.847933178
vt 0.359437867 0.847933178
vt 0.357973113 0.847933178
vt 0.363832127 0.847933178
vt 0.368226388 0.854524569
vt 0.359437867 0.854524569
vt 0.357973113 0.854524569
vt 0.363832127 0.854524569
vt 0.368226388 0.861848337
vt 0.359437867 0.861848337
vt 0.357973113 0.861848337
vt 0.363832127 0.861848337
vt 0.368226388 0.868439728
vt 0.359437867 0.868439728
vt 0.357973113 0.868439728
vt 0.363832127 0.868439728
vt 0.368226388 0.875031119
vt 0.359437867 0.875031119
vt 0.357973113 0.875031119
vt 0.363832127 0.875031119
vt 0.368226388 0.882354886
vt 0.363832127 0.882354886
vt 0.359437867 0.882354886
vt 0.357973113 0.882354886
vt 0.260567002 0.874298742
vt 0.257637494 0.872833988
vt 0.259834625 0.875031119
vt 0.259102248 0.872101611
vt 0.262031755 0.871369235
vt 0.262031755 0.874298742
vt 0.273017407 0.877228249
vt 0.258369871 0.869904481
vt 0.255440364 0.871369235
vt 0.246651843 0.850862685
vt 0.262031755 0.869172104
vt 0.252510857 0.849397931
vt 0.273749784 0.875031119
vt 0.275946914 0.876495872
vt 0.27448216 0.878693002
vt 0.275946914 0.880157756
vt 0.27448216 0.872833988
vt 0.24958135 0.849397931
vt 0.248848973 0.845736047
vt 0.245919466 0.846468424
vt 0.278144044 0.879425379
vt 0.281073551 0.892608161
vt 0.248848973 0.842074163
vt 0.246651843 0.841341787
vt 0.24958135 0.833285642
vt 0.279608798 0.877960626
vt 0.283270682 0.891143408
vt 0.283270682 0.894805292
vt 0.281073551 0.894072915
vt 0.277411667 0.875031119
vt 0.290594449 0.860383583
vt 0.285467812 0.890411031
vt 0.283270682 0.897734799
vt 0.280341175 0.896270045
vt 0.275214537 0.90872045
vt 0.277411667 0.910185204
vt 0.273749784 0.910185204
vt 0.285467812 0.898467175
vt 0.292059203 0.862580713
vt 0.288397319 0.858918829
vt 0.291326826 0.856721699
vt 0.286200189 0.894805292
vt 0.305974362 0.895537668
vt 0.305241985 0.893340538
vt 0.308903869 0.894072915
vt 0.294256333 0.858918829
vt 0.295721087 0.856721699
vt 0.29279158 0.857454076
vt 0.251046103 0.845736047
vt 0.251046103 0.842074163
vt 0.294256333 0.854524569
vt 0.29498871 0.855256946
vt 0.300115348 0.850130308
vt 0.297918217 0.848665555
vt 0.253975611 0.834750396
vt 0.251046103 0.834018019
vt 0.252510857 0.832553265
vt 0.250313727 0.831088512
vt 0.252510857 0.830356135
vt 0.253243234 0.831088512
vt 0.254707987 0.831088512
vt 0.253975611 0.833285642
vt 0.298650594 0.847200801
vt 0.300115348 0.845736047
vt 0.302312478 0.847933178
vt 0.301580101 0.848665555
vt 0.303777231 0.850862685
vt 0.305241985 0.850130308
vt 0.302312478 0.852327438
vt 0.321354274 0.893340538
vt 0.323551405 0.893340538
vt 0.322819028 0.896270045
vt 0.319889521 0.893340538
vt 0.322086651 0.896270045
vt 0.312565753 0.894805292
vt 0.321354274 0.899199552
vt 0.322819028 0.899931929
vt 0.319889521 0.896270045
vt 0.309636246 0.895537668
vt 0.299382971 0.940212652
vt 0.297918217 0.938747898
vt 0.29718584 0.941677405
vt 0.300847724 0.940945029
vt 0.297918217 0.943142159
vt 0.295721087 0.945339289
vt 0.319889521 0.899199552
vt 0.312565753 0.897002422
vt 0.312565753 0.896270045
vt 0.305241985 0.897734799
vt 0.308903869 0.897734799
vt 0.290594449 0.930691754
vt 0.279608798 0.910917581
vt 0.289129696 0.927762247
vt 0.276679291 0.913847088
vt 0.29279158 0.933621261
vt 0.292059203 0.934353638
vt 0.289862073 0.932156507
vt 0.275214537 0.911649957
vt 0.273017407 0.913114711
vt 0.27228503 0.910917581
vt 0.261299378 0.913114711
vt 0.260567002 0.916044218
vt 0.273017407 0.915311841
vt 0.285467812 0.930691754
vt 0.260567002 0.918241348
vt 0.248116596 0.937283145
vt 0.246651843 0.940945029
vt 0.287664942 0.929959377
vt 0.288397319 0.932888884
vt 0.290594449 0.935086014
vt 0.245919466 0.943874536
vt 0.248116596 0.95193068
vt 0.294256333 0.941677405
vt 0.296453464 0.940945029
vt 0.29498871 0.943874536
vt 0.248848973 0.953395434
vt 0.24958135 0.955592564
vt 0.308171492 0.826694251
vt 0.303044855 0.826694251
vt 0.305241985 0.833285642
vt 0.311833376 0.831088512
vt 0.298650594 0.831088512
vt 0.311833376 0.836215149
vt 0.298650594 0.836215149
vt 0.308171492 0.839877033
vt 0.303044855 0.839877033
vt 0.263496509 0.827426628
vt 0.263496509 0.828159005
vt 0.264961262 0.828159005
vt 0.264228885 0.826694251
vt 0.264228885 0.828891381
vt 0.264961262 0.826694251
vt 0.264961262 0.828891381
vt 0.265693639 0.827426628
vt 0.265693639 0.828159005
vt 0.254707987 0.899199552
vt 0.253243234 0.902861436
vt 0.263496509 0.902861436
vt 0.24958135 0.894072915
vt 0.245919466 0.896270045
vt 0.262031755 0.899931929
vt 0.270820276 0.896270045
vt 0.24958135 0.886749147
vt 0.245919466 0.885284393
vt 0.267158393 0.894805292
vt 0.271552653 0.88601677
vt 0.254707987 0.88162251
vt 0.253243234 0.877960626
vt 0.267158393 0.887481524
vt 0.264228885 0.877960626
vt 0.262031755 0.88162251
vt 0.263496509 0.888946277
vt 0.260567002 0.885284393
vt 0.258369871 0.890411031
vt 0.256172741 0.885284393
vt 0.253243234 0.888213901
vt 0.253243234 0.892608161
vt 0.256172741 0.895537668
vt 0.260567002 0.896270045
vt 0.263496509 0.892608161
g zheyangsanzheyangsan_mobile_0
f 3/3/3 2/2/2 1/1/1
f 4/4/4 3/3/3 1/1/1
f 5/5/5 3/3/3 4/4/4
f 6/6/6 5/5/5 4/4/4
f 1/1/1 6/6/6 4/4/4
f 7/7/7 5/5/5 6/6/6
f 8/8/8 7/7/7 6/6/6
f 6/6/6 1/1/1 8/8/8
f 9/9/9 7/7/7 8/8/8
f 8/8/8 1/1/1 10/10/10
f 10/10/10 1/1/1 11/11/11
f 10/10/10 11/11/11 12/12/12
f 13/13/13 9/9/9 8/8/8
f 14/14/14 9/9/9 13/13/13
f 15/15/15 13/13/13 8/8/8
f 15/15/15 8/8/8 10/10/10
f 16/16/16 14/14/14 13/13/13
f 13/13/13 15/15/15 16/16/16
f 17/17/17 14/14/14 16/16/16
f 15/15/15 17/17/17 16/16/16
f 15/15/15 10/10/10 18/18/18
f 19/19/19 10/10/10 12/12/12
f 18/18/18 10/10/10 19/19/19
f 19/19/19 12/12/12 20/20/20
f 21/21/21 18/18/18 19/19/19
f 22/22/22 19/19/19 20/20/20
f 21/21/21 19/19/19 22/22/22
f 20/20/20 23/23/23 22/22/22
f 24/24/24 21/21/21 22/22/22
f 22/22/22 23/23/23 24/24/24
f 27/27/27 26/26/26 25/25/25
f 28/28/28 27/27/27 25/25/25
f 29/29/29 27/27/27 28/28/28
f 30/30/30 29/29/29 28/28/28
f 25/25/25 30/30/30 28/28/28
f 31/31/31 29/29/29 30/30/30
f 32/32/32 31/31/31 30/30/30
f 30/30/30 25/25/25 32/32/32
f 33/33/33 31/31/31 32/32/32
f 32/32/32 25/25/25 34/34/34
f 34/34/34 25/25/25 35/35/35
f 34/34/34 35/35/35 36/36/36
f 37/37/37 33/33/33 32/32/32
f 38/38/38 33/33/33 37/37/37
f 39/39/39 37/37/37 32/32/32
f 39/39/39 32/32/32 34/34/34
f 40/40/40 38/38/38 37/37/37
f 37/37/37 39/39/39 40/40/40
f 41/41/41 38/38/38 40/40/40
f 39/39/39 41/41/41 40/40/40
f 39/39/39 34/34/34 42/42/42
f 43/43/43 34/34/34 36/36/36
f 42/42/42 34/34/34 43/43/43
f 43/43/43 36/36/36 44/44/44
f 45/45/45 42/42/42 43/43/43
f 46/46/46 43/43/43 44/44/44
f 45/45/45 43/43/43 46/46/46
f 44/44/44 47/47/47 46/46/46
f 48/48/48 45/45/45 46/46/46
f 46/46/46 47/47/47 48/48/48
f 51/51/51 50/50/50 49/49/49
f 52/52/52 51/51/51 49/49/49
f 53/53/53 51/51/51 52/52/52
f 54/54/54 53/53/53 52/52/52
f 52/52/52 49/49/49 54/54/54
f 55/55/55 53/53/53 54/54/54
f 56/56/56 55/55/55 54/54/54
f 54/54/54 49/49/49 56/56/56
f 57/57/57 55/55/55 56/56/56
f 56/56/56 49/49/49 58/58/58
f 58/58/58 49/49/49 59/59/59
f 58/58/58 59/59/59 60/60/60
f 61/61/61 57/57/57 56/56/56
f 62/62/62 57/57/57 61/61/61
f 63/63/63 61/61/61 56/56/56
f 63/63/63 56/56/56 58/58/58
f 64/64/64 62/62/62 61/61/61
f 64/64/64 61/61/61 63/63/63
f 65/65/65 62/62/62 64/64/64
f 63/63/63 65/65/65 64/64/64
f 63/63/63 58/58/58 66/66/66
f 67/67/67 58/58/58 60/60/60
f 66/66/66 58/58/58 67/67/67
f 67/67/67 60/60/60 68/68/68
f 69/69/69 66/66/66 67/67/67
f 70/70/70 67/67/67 68/68/68
f 69/69/69 67/67/67 70/70/70
f 68/68/68 71/71/71 70/70/70
f 72/72/72 69/69/69 70/70/70
f 70/70/70 71/71/71 72/72/72
f 75/75/75 74/74/74 73/73/73
f 76/76/76 75/75/75 73/73/73
f 77/77/77 75/75/75 76/76/76
f 78/78/78 77/77/77 76/76/76
f 73/73/73 78/78/78 76/76/76
f 79/79/79 77/77/77 78/78/78
f 80/80/80 79/79/79 78/78/78
f 78/78/78 73/73/73 80/80/80
f 81/81/81 79/79/79 80/80/80
f 80/80/80 73/73/73 82/82/82
f 82/82/82 73/73/73 83/83/83
f 82/82/82 83/83/83 84/84/84
f 85/85/85 81/81/81 80/80/80
f 86/86/86 81/81/81 85/85/85
f 87/87/87 85/85/85 80/80/80
f 87/87/87 80/80/80 82/82/82
f 88/88/88 86/86/86 85/85/85
f 88/88/88 85/85/85 87/87/87
f 89/89/89 86/86/86 88/88/88
f 87/87/87 89/89/89 88/88/88
f 87/87/87 82/82/82 90/90/90
f 91/91/91 82/82/82 84/84/84
f 90/90/90 82/82/82 91/91/91
f 91/91/91 84/84/84 92/92/92
f 93/93/93 90/90/90 91/91/91
f 94/94/94 91/91/91 92/92/92
f 93/93/93 91/91/91 94/94/94
f 92/92/92 95/95/95 94/94/94
f 96/96/96 93/93/93 94/94/94
f 94/94/94 95/95/95 96/96/96
f 99/99/99 98/98/98 97/97/97
f 100/100/100 99/99/99 97/97/97
f 101/101/101 99/99/99 100/100/100
f 102/102/102 101/101/101 100/100/100
f 97/97/97 102/102/102 100/100/100
f 103/103/103 101/101/101 102/102/102
f 104/104/104 103/103/103 102/102/102
f 102/102/102 97/97/97 104/104/104
f 105/105/105 103/103/103 104/104/104
f 104/104/104 97/97/97 106/106/106
f 106/106/106 97/97/97 107/107/107
f 106/106/106 107/107/107 108/108/108
f 109/109/109 105/105/105 104/104/104
f 110/110/110 105/105/105 109/109/109
f 111/111/111 109/109/109 104/104/104
f 111/111/111 104/104/104 106/106/106
f 112/112/112 110/110/110 109/109/109
f 109/109/109 111/111/111 112/112/112
f 113/113/113 110/110/110 112/112/112
f 111/111/111 113/113/113 112/112/112
f 111/111/111 106/106/106 114/114/114
f 115/115/115 106/106/106 108/108/108
f 114/114/114 106/106/106 115/115/115
f 115/115/115 108/108/108 116/116/116
f 117/117/117 114/114/114 115/115/115
f 118/118/118 115/115/115 116/116/116
f 117/117/117 115/115/115 118/118/118
f 116/116/116 119/119/119 118/118/118
f 120/120/120 117/117/117 118/118/118
f 118/118/118 119/119/119 120/120/120
f 123/123/123 122/122/122 121/121/121
f 124/124/124 123/123/123 121/121/121
f 125/125/125 123/123/123 124/124/124
f 126/126/126 125/125/125 124/124/124
f 121/121/121 126/126/126 124/124/124
f 127/127/127 125/125/125 126/126/126
f 128/128/128 127/127/127 126/126/126
f 126/126/126 121/121/121 128/128/128
f 129/129/129 127/127/127 128/128/128
f 128/128/128 121/121/121 130/130/130
f 130/130/130 121/121/121 131/131/131
f 130/130/130 131/131/131 132/132/132
f 133/133/133 129/129/129 128/128/128
f 134/134/134 129/129/129 133/133/133
f 135/135/135 133/133/133 128/128/128
f 135/135/135 128/128/128 130/130/130
f 136/136/136 134/134/134 133/133/133
f 133/133/133 135/135/135 136/136/136
f 137/137/137 134/134/134 136/136/136
f 135/135/135 137/137/137 136/136/136
f 135/135/135 130/130/130 138/138/138
f 139/139/139 130/130/130 132/132/132
f 138/138/138 130/130/130 139/139/139
f 139/139/139 132/132/132 140/140/140
f 141/141/141 138/138/138 139/139/139
f 142/142/142 139/139/139 140/140/140
f 141/141/141 139/139/139 142/142/142
f 140/140/140 143/143/143 142/142/142
f 144/144/144 141/141/141 142/142/142
f 142/142/142 143/143/143 144/144/144
f 147/147/147 146/146/146 145/145/145
f 148/148/148 147/147/147 145/145/145
f 149/149/149 147/147/147 148/148/148
f 150/150/150 149/149/149 148/148/148
f 145/145/145 150/150/150 148/148/148
f 151/151/151 149/149/149 150/150/150
f 152/152/152 151/151/151 150/150/150
f 150/150/150 145/145/145 152/152/152
f 153/153/153 151/151/151 152/152/152
f 152/152/152 145/145/145 154/154/154
f 154/154/154 145/145/145 155/155/155
f 154/154/154 155/155/155 156/156/156
f 157/157/157 153/153/153 152/152/152
f 158/158/158 153/153/153 157/157/157
f 159/159/159 157/157/157 152/152/152
f 159/159/159 152/152/152 154/154/154
f 160/160/160 158/158/158 157/157/157
f 157/157/157 159/159/159 160/160/160
f 161/161/161 158/158/158 160/160/160
f 159/159/159 161/161/161 160/160/160
f 159/159/159 154/154/154 162/162/162
f 163/163/163 154/154/154 156/156/156
f 162/162/162 154/154/154 163/163/163
f 163/163/163 156/156/156 164/164/164
f 165/165/165 162/162/162 163/163/163
f 166/166/166 163/163/163 164/164/164
f 165/165/165 163/163/163 166/166/166
f 164/164/164 167/167/167 166/166/166
f 168/168/168 165/165/165 166/166/166
f 166/166/166 167/167/167 168/168/168
f 171/171/171 170/170/170 169/169/169
f 172/172/172 171/171/171 169/169/169
f 173/173/173 171/171/171 172/172/172
f 174/174/174 173/173/173 172/172/172
f 169/169/169 174/174/174 172/172/172
f 175/175/175 173/173/173 174/174/174
f 176/176/176 175/175/175 174/174/174
f 174/174/174 169/169/169 176/176/176
f 177/177/177 175/175/175 176/176/176
f 176/176/176 169/169/169 178/178/178
f 178/178/178 169/169/169 179/179/179
f 178/178/178 179/179/179 180/180/180
f 181/181/181 177/177/177 176/176/176
f 182/182/182 177/177/177 181/181/181
f 183/183/183 181/181/181 176/176/176
f 183/183/183 176/176/176 178/178/178
f 184/184/184 182/182/182 181/181/181
f 181/181/181 183/183/183 184/184/184
f 185/185/185 182/182/182 184/184/184
f 183/183/183 185/185/185 184/184/184
f 183/183/183 178/178/178 186/186/186
f 187/187/187 178/178/178 180/180/180
f 186/186/186 178/178/178 187/187/187
f 187/187/187 180/180/180 188/188/188
f 189/189/189 186/186/186 187/187/187
f 190/190/190 187/187/187 188/188/188
f 189/189/189 187/187/187 190/190/190
f 188/188/188 191/191/191 190/190/190
f 192/192/192 189/189/189 190/190/190
f 190/190/190 191/191/191 192/192/192
f 195/195/195 194/194/194 193/193/193
f 194/194/194 196/196/196 193/193/193
f 194/194/194 197/197/197 196/196/196
f 193/193/193 196/196/196 198/198/198
f 197/197/197 199/199/199 196/196/196
f 197/197/197 200/200/200 199/199/199
f 196/196/196 201/201/201 198/198/198
f 196/196/196 199/199/199 201/201/201
f 200/200/200 202/202/202 199/199/199
f 200/200/200 203/203/203 202/202/202
f 198/198/198 201/201/201 204/204/204
f 205/205/205 198/198/198 204/204/204
f 199/199/199 206/206/206 201/201/201
f 199/199/199 202/202/202 206/206/206
f 203/203/203 207/207/207 202/202/202
f 203/203/203 208/208/208 207/207/207
f 204/204/204 209/209/209 205/205/205
f 209/209/209 210/210/210 205/205/205
f 211/211/211 209/209/209 204/204/204
f 204/204/204 201/201/201 212/212/212
f 212/212/212 211/211/211 204/204/204
f 201/201/201 206/206/206 212/212/212
f 213/213/213 211/211/211 212/212/212
f 214/214/214 213/213/213 212/212/212
f 212/212/212 206/206/206 214/214/214
f 215/215/215 213/213/213 214/214/214
f 202/202/202 216/216/216 206/206/206
f 206/206/206 216/216/216 214/214/214
f 202/202/202 207/207/207 216/216/216
f 208/208/208 217/217/217 207/207/207
f 208/208/208 218/218/218 217/217/217
f 219/219/219 215/215/215 214/214/214
f 214/214/214 216/216/216 219/219/219
f 207/207/207 220/220/220 216/216/216
f 216/216/216 220/220/220 219/219/219
f 207/207/207 217/217/217 220/220/220
f 219/219/219 221/221/221 215/215/215
f 219/219/219 220/220/220 221/221/221
f 221/221/221 222/222/222 215/215/215
f 223/223/223 222/222/222 221/221/221
f 218/218/218 224/224/224 217/217/217
f 218/218/218 225/225/225 224/224/224
f 217/217/217 226/226/226 220/220/220
f 220/220/220 226/226/226 221/221/221
f 217/217/217 224/224/224 226/226/226
f 227/227/227 223/223/223 221/221/221
f 221/221/221 226/226/226 227/227/227
f 228/228/228 223/223/223 227/227/227
f 225/225/225 229/229/229 224/224/224
f 225/225/225 230/230/230 229/229/229
f 230/230/230 231/231/231 229/229/229
f 224/224/224 232/232/232 226/226/226
f 226/226/226 232/232/232 227/227/227
f 224/224/224 229/229/229 232/232/232
f 233/233/233 228/228/228 227/227/227
f 227/227/227 232/232/232 233/233/233
f 234/234/234 228/228/228 233/233/233
f 235/235/235 234/234/234 233/233/233
f 229/229/229 231/231/231 236/236/236
f 229/229/229 236/236/236 232/232/232
f 232/232/232 236/236/236 233/233/233
f 233/233/233 236/236/236 235/235/235
f 231/231/231 237/237/237 236/236/236
f 236/236/236 237/237/237 235/235/235
f 240/240/240 239/239/239 238/238/238
f 239/239/239 241/241/241 238/238/238
f 239/239/239 242/242/242 241/241/241
f 238/238/238 241/241/241 243/243/243
f 244/244/244 238/238/238 243/243/243
f 244/244/244 243/243/243 245/245/245
f 243/243/243 246/246/246 245/245/245
f 243/243/243 247/247/247 246/246/246
f 243/243/243 241/241/241 247/247/247
f 247/247/247 248/248/248 246/246/246
f 242/242/242 249/249/249 241/241/241
f 241/241/241 249/249/249 247/247/247
f 242/242/242 250/250/250 249/249/249
f 247/247/247 251/251/251 248/248/248
f 247/247/247 249/249/249 251/251/251
f 251/251/251 252/252/252 248/248/248
f 250/250/250 253/253/253 249/249/249
f 249/249/249 253/253/253 251/251/251
f 250/250/250 254/254/254 253/253/253
f 251/251/251 255/255/255 252/252/252
f 251/251/251 253/253/253 255/255/255
f 255/255/255 256/256/256 252/252/252
f 254/254/254 257/257/257 253/253/253
f 253/253/253 257/257/257 255/255/255
f 254/254/254 258/258/258 257/257/257
f 255/255/255 259/259/259 256/256/256
f 255/255/255 257/257/257 259/259/259
f 259/259/259 260/260/260 256/256/256
f 258/258/258 261/261/261 257/257/257
f 257/257/257 261/261/261 259/259/259
f 258/258/258 262/262/262 261/261/261
f 259/259/259 263/263/263 260/260/260
f 259/259/259 261/261/261 263/263/263
f 263/263/263 264/264/264 260/260/260
f 262/262/262 265/265/265 261/261/261
f 261/261/261 265/265/265 263/263/263
f 262/262/262 266/266/266 265/265/265
f 263/263/263 267/267/267 264/264/264
f 263/263/263 265/265/265 267/267/267
f 267/267/267 268/268/268 264/264/264
f 266/266/266 269/269/269 265/265/265
f 265/265/265 269/269/269 267/267/267
f 266/266/266 270/270/270 269/269/269
f 270/270/270 271/271/271 269/269/269
f 269/269/269 271/271/271 272/272/272
f 267/267/267 269/269/269 272/272/272
f 267/267/267 272/272/272 268/268/268
f 272/272/272 273/273/273 268/268/268
f 276/276/276 275/275/275 274/274/274
f 275/275/275 277/277/277 274/274/274
f 274/274/274 277/277/277 278/278/278
f 279/279/279 274/274/274 278/278/278
f 279/279/279 278/278/278 280/280/280
f 281/281/281 277/277/277 275/275/275
f 282/282/282 281/281/281 275/275/275
f 282/282/282 283/283/283 281/281/281
f 278/278/278 277/277/277 284/284/284
f 277/277/277 281/281/281 284/284/284
f 285/285/285 284/284/284 281/281/281
f 278/278/278 286/286/286 280/280/280
f 278/278/278 284/284/284 286/286/286
f 286/286/286 287/287/287 280/280/280
f 287/287/287 288/288/288 280/280/280
f 289/289/289 288/288/288 287/287/287
f 284/284/284 290/290/290 286/286/286
f 290/290/290 284/284/284 285/285/285
f 287/287/287 286/286/286 290/290/290
f 283/283/283 291/291/291 281/281/281
f 291/291/291 285/285/285 281/281/281
f 292/292/292 291/291/291 283/283/283
f 291/291/291 292/292/292 285/285/285
f 293/293/293 292/292/292 283/283/283
f 294/294/294 289/289/289 287/287/287
f 289/289/289 294/294/294 295/295/295
f 296/296/296 292/292/292 293/293/293
f 297/297/297 296/296/296 293/293/293
f 297/297/297 298/298/298 296/296/296
f 299/299/299 294/294/294 287/287/287
f 294/294/294 300/300/300 295/295/295
f 294/294/294 299/299/299 300/300/300
f 300/300/300 301/301/301 295/295/295
f 301/301/301 302/302/302 295/295/295
f 303/303/303 299/299/299 287/287/287
f 299/299/299 303/303/303 304/304/304
f 303/303/303 287/287/287 290/290/290
f 303/303/303 290/290/290 304/304/304
f 299/299/299 305/305/305 300/300/300
f 301/301/301 300/300/300 305/305/305
f 302/302/302 301/301/301 306/306/306
f 307/307/307 302/302/302 306/306/306
f 307/307/307 306/306/306 308/308/308
f 306/306/306 309/309/309 308/308/308
f 308/308/308 309/309/309 310/310/310
f 306/306/306 301/301/301 311/311/311
f 306/306/306 311/311/311 309/309/309
f 312/312/312 299/299/299 304/304/304
f 305/305/305 299/299/299 312/312/312
f 290/290/290 313/313/313 304/304/304
f 313/313/313 290/290/290 285/285/285
f 313/313/313 285/285/285 314/314/314
f 313/313/313 314/314/314 304/304/304
f 301/301/301 315/315/315 311/311/311
f 315/315/315 301/301/301 305/305/305
f 316/316/316 315/315/315 305/305/305
f 315/315/315 316/316/316 311/311/311
f 317/317/317 305/305/305 312/312/312
f 317/317/317 316/316/316 305/305/305
f 317/317/317 312/312/312 318/318/318
f 317/317/317 318/318/318 316/316/316
f 312/312/312 304/304/304 319/319/319
f 312/312/312 319/319/319 318/318/318
f 319/319/319 320/320/320 318/318/318
f 304/304/304 321/321/321 319/319/319
f 314/314/314 321/321/321 304/304/304
f 319/319/319 321/321/321 320/320/320
f 285/285/285 322/322/322 314/314/314
f 292/292/292 322/322/322 285/285/285
f 322/322/322 292/292/292 323/323/323
f 322/322/322 323/323/323 314/314/314
f 292/292/292 296/296/296 323/323/323
f 321/321/321 314/314/314 324/324/324
f 323/323/323 324/324/324 314/314/314
f 321/321/321 325/325/325 320/320/320
f 325/325/325 321/321/321 324/324/324
f 325/325/325 324/324/324 326/326/326
f 320/320/320 325/325/325 326/326/326
f 324/324/324 323/323/323 327/327/327
f 324/324/324 327/327/327 326/326/326
f 328/328/328 323/323/323 296/296/296
f 323/323/323 328/328/328 327/327/327
f 329/329/329 328/328/328 296/296/296
f 329/329/329 330/330/330 328/328/328
f 298/298/298 329/329/329 296/296/296
f 329/329/329 298/298/298 330/330/330
f 298/298/298 331/331/331 330/330/330
f 331/331/331 332/332/332 330/330/330
f 332/332/332 333/333/333 330/330/330
f 330/330/330 333/333/333 334/334/334
f 330/330/330 335/335/335 328/328/328
f 335/335/335 330/330/330 334/334/334
f 327/327/327 328/328/328 335/335/335
f 336/336/336 335/335/335 334/334/334
f 336/336/336 327/327/327 335/335/335
f 337/337/337 336/336/336 334/334/334
f 337/337/337 338/338/338 336/336/336
f 336/336/336 339/339/339 327/327/327
f 338/338/338 339/339/339 336/336/336
f 339/339/339 326/326/326 327/327/327
f 340/340/340 339/339/339 338/338/338
f 326/326/326 339/339/339 340/340/340
f 341/341/341 340/340/340 338/338/338
f 342/342/342 326/326/326 340/340/340
f 342/342/342 320/320/320 326/326/326
f 343/343/343 340/340/340 341/341/341
f 344/344/344 343/343/343 341/341/341
f 344/344/344 345/345/345 343/343/343
f 346/346/346 342/342/342 340/340/340
f 320/320/320 342/342/342 346/346/346
f 343/343/343 346/346/346 340/340/340
f 345/345/345 347/347/347 343/343/343
f 343/343/343 347/347/347 346/346/346
f 348/348/348 320/320/320 346/346/346
f 320/320/320 348/348/348 318/318/318
f 349/349/349 347/347/347 345/345/345
f 350/350/350 349/349/349 345/345/345
f 347/347/347 351/351/351 346/346/346
f 346/346/346 351/351/351 348/348/348
f 351/351/351 347/347/347 349/349/349
f 352/352/352 318/318/318 348/348/348
f 318/318/318 352/352/352 316/316/316
f 353/353/353 349/349/349 350/350/350
f 353/353/353 354/354/354 349/349/349
f 354/354/354 353/353/353 355/355/355
f 356/356/356 353/353/353 350/350/350
f 353/353/353 356/356/356 355/355/355
f 356/356/356 357/357/357 355/355/355
f 355/355/355 357/357/357 358/358/358
f 359/359/359 351/351/351 349/349/349
f 354/354/354 359/359/359 349/349/349
f 351/351/351 359/359/359 360/360/360
f 360/360/360 359/359/359 354/354/354
f 351/351/351 361/361/361 348/348/348
f 361/361/361 352/352/352 348/348/348
f 361/361/361 351/351/351 360/360/360
f 361/361/361 360/360/360 352/352/352
f 362/362/362 316/316/316 352/352/352
f 316/316/316 362/362/362 311/311/311
f 360/360/360 363/363/363 352/352/352
f 363/363/363 362/362/362 352/352/352
f 363/363/363 360/360/360 364/364/364
f 362/362/362 363/363/363 364/364/364
f 365/365/365 311/311/311 362/362/362
f 311/311/311 365/365/365 309/309/309
f 366/366/366 365/365/365 362/362/362
f 366/366/366 362/362/362 364/364/364
f 365/365/365 367/367/367 309/309/309
f 367/367/367 365/365/365 366/366/366
f 368/368/368 360/360/360 354/354/354
f 360/360/360 368/368/368 364/364/364
f 368/368/368 354/354/354 369/369/369
f 368/368/368 369/369/369 364/364/364
f 364/364/364 370/370/370 366/366/366
f 369/369/369 370/370/370 364/364/364
f 367/367/367 371/371/371 309/309/309
f 309/309/309 371/371/371 310/310/310
f 310/310/310 371/371/371 372/372/372
f 373/373/373 310/310/310 372/372/372
f 373/373/373 372/372/372 374/374/374
f 372/372/372 375/375/375 374/374/374
f 372/372/372 371/371/371 376/376/376
f 372/372/372 376/376/376 375/375/375
f 371/371/371 367/367/367 376/376/376
f 376/376/376 367/367/367 377/377/377
f 376/376/376 378/378/378 375/375/375
f 378/378/378 376/376/376 377/377/377
f 379/379/379 378/378/378 377/377/377
f 379/379/379 377/377/377 380/380/380
f 367/367/367 381/381/381 377/377/377
f 381/381/381 370/370/370 377/377/377
f 381/381/381 367/367/367 366/366/366
f 370/370/370 381/381/381 366/366/366
f 377/377/377 382/382/382 380/380/380
f 370/370/370 382/382/382 377/377/377
f 382/382/382 383/383/383 380/380/380
f 382/382/382 370/370/370 383/383/383
f 383/383/383 384/384/384 380/380/380
f 370/370/370 369/369/369 383/383/383
f 384/384/384 383/383/383 385/385/385
f 386/386/386 383/383/383 369/369/369
f 383/383/383 386/386/386 385/385/385
f 387/387/387 386/386/386 369/369/369
f 354/354/354 387/387/387 369/369/369
f 387/387/387 354/354/354 355/355/355
f 387/387/387 355/355/355 386/386/386
f 385/385/385 386/386/386 388/388/388
f 355/355/355 388/388/388 386/386/386
f 389/389/389 385/385/385 388/388/388
f 388/388/388 355/355/355 358/358/358
f 389/389/389 388/388/388 358/358/358
f 390/390/390 389/389/389 358/358/358
f 393/393/393 392/392/392 391/391/391
f 393/393/393 391/391/391 394/394/394
f 393/393/393 395/395/395 392/392/392
f 396/396/396 393/393/393 394/394/394
f 393/393/393 397/397/397 395/395/395
f 396/396/396 398/398/398 393/393/393
f 399/399/399 397/397/397 393/393/393
f 398/398/398 399/399/399 393/393/393
f 402/402/402 401/401/401 400/400/400
f 402/402/402 400/400/400 403/403/403
f 402/402/402 404/404/404 401/401/401
f 405/405/405 402/402/402 403/403/403
f 402/402/402 406/406/406 404/404/404
f 405/405/405 407/407/407 402/402/402
f 408/408/408 406/406/406 402/402/402
f 407/407/407 408/408/408 402/402/402
f 411/411/411 410/410/410 409/409/409
f 409/409/409 410/410/410 412/412/412
f 410/410/410 413/413/413 412/412/412
f 414/414/414 411/411/411 409/409/409
f 415/415/415 411/411/411 414/414/414
f 412/412/412 413/413/413 416/416/416
f 413/413/413 417/417/417 416/416/416
f 418/418/418 415/415/415 414/414/414
f 419/419/419 415/415/415 418/418/418
f 416/416/416 417/417/417 420/420/420
f 417/417/417 421/421/421 420/420/420
f 422/422/422 419/419/419 418/418/418
f 423/423/423 419/419/419 422/422/422
f 421/421/421 423/423/423 424/424/424
f 424/424/424 423/423/423 422/422/422
f 420/420/420 421/421/421 424/424/424
f 422/422/422 425/425/425 424/424/424
f 422/422/422 418/418/418 425/425/425
f 424/424/424 426/426/426 420/420/420
f 425/425/425 426/426/426 424/424/424
f 427/427/427 426/426/426 425/425/425
f 426/426/426 428/428/428 420/420/420
f 420/420/420 428/428/428 416/416/416
f 427/427/427 428/428/428 426/426/426
f 428/428/428 429/429/429 416/416/416
f 427/427/427 429/429/429 428/428/428
f 416/416/416 429/429/429 412/412/412
f 429/429/429 430/430/430 412/412/412
f 427/427/427 430/430/430 429/429/429
f 412/412/412 430/430/430 409/409/409
f 430/430/430 431/431/431 409/409/409
f 431/431/431 430/430/430 427/427/427
f 409/409/409 431/431/431 414/414/414
f 431/431/431 432/432/432 414/414/414
f 414/414/414 432/432/432 418/418/418
f 432/432/432 431/431/431 427/427/427
f 418/418/418 433/433/433 425/425/425
f 433/433/433 427/427/427 425/425/425
f 432/432/432 433/433/433 418/418/418
f 433/433/433 432/432/432 427/427/427
